<?xml version="1.0" encoding="UTF-8" standalone="no"?>
<!DOCTYPE svg PUBLIC "-//W3C//DTD SVG 1.1//EN"
 "http://www.w3.org/Graphics/SVG/1.1/DTD/svg11.dtd">
<!-- Generated by graphviz version 7.0.5 (20221223.1930)
 -->
<!-- Title: include/audio_buf.h Pages: 1 -->
<svg width="289pt" height="368pt"
 viewBox="0.00 0.00 289.00 368.00" xmlns="http://www.w3.org/2000/svg" xmlns:xlink="http://www.w3.org/1999/xlink">
<g id="graph0" class="graph" transform="scale(1 1) rotate(0) translate(4 364)">
<title>include/audio_buf.h</title>
<!-- Node1 -->
<g id="node1" class="node">
<title>Node1</title>
<g id="a_node1"><a xlink:title="Unified sound&#45;chip buffer of the libmsx audio replayer.">
<polygon fill="#999999" stroke="#666666" points="243,-360 143,-360 143,-341 243,-341 243,-360"/>
<text text-anchor="middle" x="193" y="-348" font-family="Helvetica,sans-Serif" font-size="10.00">include/audio_buf.h</text>
</a>
</g>
</g>
<!-- Node2 -->
<g id="node2" class="node">
<title>Node2</title>
<g id="a_node2"><a xlink:href="memfile_8h.html" target="_top" xlink:title="Stream interface for ROM / RAM / MegaROM.">
<polygon fill="white" stroke="#666666" points="145,-305 87,-305 87,-286 145,-286 145,-305"/>
<text text-anchor="middle" x="116" y="-293" font-family="Helvetica,sans-Serif" font-size="10.00">memfile.h</text>
</a>
</g>
</g>
<!-- Node1&#45;&gt;Node2 -->
<g id="edge1" class="edge">
<title>Node1&#45;&gt;Node2</title>
<path fill="none" stroke="#63b8ff" d="M179.94,-340.51C168.48,-332.62 151.57,-320.98 138.02,-311.65"/>
<polygon fill="#63b8ff" stroke="#63b8ff" points="140.34,-309 130.12,-306.22 136.37,-314.77 140.34,-309"/>
</g>
<!-- Node4 -->
<g id="node4" class="node">
<title>Node4</title>
<g id="a_node4"><a xlink:title=" ">
<polygon fill="#e0e0e0" stroke="#999999" points="187,-19 139,-19 139,0 187,0 187,-19"/>
<text text-anchor="middle" x="163" y="-7" font-family="Helvetica,sans-Serif" font-size="10.00">stdint.h</text>
</a>
</g>
</g>
<!-- Node1&#45;&gt;Node4 -->
<g id="edge15" class="edge">
<title>Node1&#45;&gt;Node4</title>
<path fill="none" stroke="#63b8ff" d="M207.93,-340.57C233.03,-324.29 281,-287.21 281,-241.5 281,-241.5 281,-241.5 281,-118.5 281,-72.44 231.48,-40.73 196.6,-24.11"/>
<polygon fill="#63b8ff" stroke="#63b8ff" points="198.24,-21.02 187.69,-20.07 195.35,-27.39 198.24,-21.02"/>
</g>
<!-- Node3 -->
<g id="node3" class="node">
<title>Node3</title>
<g id="a_node3"><a xlink:href="bmem_8h.html" target="_top" xlink:title="Data types and functions for accessing banked memory.">
<polygon fill="white" stroke="#666666" points="202.5,-250 151.5,-250 151.5,-231 202.5,-231 202.5,-250"/>
<text text-anchor="middle" x="177" y="-238" font-family="Helvetica,sans-Serif" font-size="10.00">bmem.h</text>
</a>
</g>
</g>
<!-- Node2&#45;&gt;Node3 -->
<g id="edge2" class="edge">
<title>Node2&#45;&gt;Node3</title>
<path fill="none" stroke="#63b8ff" d="M126.35,-285.51C135.08,-277.93 147.79,-266.88 158.3,-257.75"/>
<polygon fill="#63b8ff" stroke="#63b8ff" points="160.41,-260.55 165.66,-251.35 155.82,-255.27 160.41,-260.55"/>
</g>
<!-- Node2&#45;&gt;Node4 -->
<g id="edge11" class="edge">
<title>Node2&#45;&gt;Node4</title>
<path fill="none" stroke="#63b8ff" d="M86.67,-287.08C66.22,-280.5 39.7,-268.92 23,-250 1.61,-225.76 0,-213.33 0,-181 0,-181 0,-181 0,-118.5 0,-57.82 79.48,-29.22 127.44,-17.49"/>
<polygon fill="#63b8ff" stroke="#63b8ff" points="128.16,-20.91 137.12,-15.26 126.59,-14.09 128.16,-20.91"/>
</g>
<!-- Node9 -->
<g id="node9" class="node">
<title>Node9</title>
<g id="a_node9"><a xlink:title=" ">
<polygon fill="#e0e0e0" stroke="#999999" points="88,-250 32,-250 32,-231 88,-231 88,-250"/>
<text text-anchor="middle" x="60" y="-238" font-family="Helvetica,sans-Serif" font-size="10.00">stdbool.h</text>
</a>
</g>
</g>
<!-- Node2&#45;&gt;Node9 -->
<g id="edge10" class="edge">
<title>Node2&#45;&gt;Node9</title>
<path fill="none" stroke="#63b8ff" d="M106.5,-285.51C98.57,-278 87.05,-267.1 77.46,-258.03"/>
<polygon fill="#63b8ff" stroke="#63b8ff" points="80.13,-255.73 70.46,-251.4 75.32,-260.81 80.13,-255.73"/>
</g>
<!-- Node10 -->
<g id="node10" class="node">
<title>Node10</title>
<g id="a_node10"><a xlink:href="memfile__types_8h.html" target="_top" xlink:title=" ">
<polygon fill="white" stroke="#666666" points="133,-195 43,-195 43,-165 133,-165 133,-195"/>
<text text-anchor="start" x="51" y="-183" font-family="Helvetica,sans-Serif" font-size="10.00">./internal/memfile</text>
<text text-anchor="middle" x="88" y="-172" font-family="Helvetica,sans-Serif" font-size="10.00">_types.h</text>
</a>
</g>
</g>
<!-- Node2&#45;&gt;Node10 -->
<g id="edge12" class="edge">
<title>Node2&#45;&gt;Node10</title>
<path fill="none" stroke="#63b8ff" d="M113.8,-285.59C109.64,-268.72 100.47,-231.54 94.26,-206.37"/>
<polygon fill="#63b8ff" stroke="#63b8ff" points="97.72,-205.78 91.92,-196.91 90.92,-207.46 97.72,-205.78"/>
</g>
<!-- Node3&#45;&gt;Node4 -->
<g id="edge3" class="edge">
<title>Node3&#45;&gt;Node4</title>
<path fill="none" stroke="#63b8ff" d="M186.25,-230.56C194.27,-222.19 205.45,-208.91 211,-195 234.16,-136.96 252.32,-110.71 224,-55 217.52,-42.26 205.49,-32.29 193.82,-25.06"/>
<polygon fill="#63b8ff" stroke="#63b8ff" points="195.55,-22.01 185.12,-20.14 192.1,-28.11 195.55,-22.01"/>
</g>
<!-- Node5 -->
<g id="node5" class="node">
<title>Node5</title>
<g id="a_node5"><a xlink:href="vmem_8h.html" target="_top" xlink:title="Data types and functions for VRAM access.">
<polygon fill="white" stroke="#666666" points="202.5,-189.5 151.5,-189.5 151.5,-170.5 202.5,-170.5 202.5,-189.5"/>
<text text-anchor="middle" x="177" y="-177.5" font-family="Helvetica,sans-Serif" font-size="10.00">vmem.h</text>
</a>
</g>
</g>
<!-- Node3&#45;&gt;Node5 -->
<g id="edge4" class="edge">
<title>Node3&#45;&gt;Node5</title>
<path fill="none" stroke="#63b8ff" d="M177,-230.87C177,-223 177,-211.1 177,-200.89"/>
<polygon fill="#63b8ff" stroke="#63b8ff" points="180.5,-201.18 177,-191.18 173.5,-201.18 180.5,-201.18"/>
</g>
<!-- Node5&#45;&gt;Node4 -->
<g id="edge5" class="edge">
<title>Node5&#45;&gt;Node4</title>
<path fill="none" stroke="#63b8ff" d="M173.94,-170.04C167.33,-149.73 152.6,-98.54 156,-55 156.63,-46.91 157.9,-38.07 159.19,-30.41"/>
<polygon fill="#63b8ff" stroke="#63b8ff" points="162.59,-31.27 160.93,-20.81 155.7,-30.02 162.59,-31.27"/>
</g>
<!-- Node6 -->
<g id="node6" class="node">
<title>Node6</title>
<g id="a_node6"><a xlink:title=" ">
<polygon fill="#e0e0e0" stroke="#999999" points="117.5,-129 66.5,-129 66.5,-110 117.5,-110 117.5,-129"/>
<text text-anchor="middle" x="92" y="-117" font-family="Helvetica,sans-Serif" font-size="10.00">stddef.h</text>
</a>
</g>
</g>
<!-- Node5&#45;&gt;Node6 -->
<g id="edge6" class="edge">
<title>Node5&#45;&gt;Node6</title>
<path fill="none" stroke="#63b8ff" d="M164.09,-170.12C150.86,-161.01 130.03,-146.68 114.16,-135.75"/>
<polygon fill="#63b8ff" stroke="#63b8ff" points="116.5,-133.11 106.28,-130.33 112.53,-138.88 116.5,-133.11"/>
</g>
<!-- Node7 -->
<g id="node7" class="node">
<title>Node7</title>
<g id="a_node7"><a xlink:href="io_8h.html" target="_top" xlink:title="Definition of I/O ports.">
<polygon fill="white" stroke="#666666" points="206,-129 174,-129 174,-110 206,-110 206,-129"/>
<text text-anchor="middle" x="190" y="-117" font-family="Helvetica,sans-Serif" font-size="10.00">io.h</text>
</a>
</g>
</g>
<!-- Node5&#45;&gt;Node7 -->
<g id="edge7" class="edge">
<title>Node5&#45;&gt;Node7</title>
<path fill="none" stroke="#63b8ff" d="M178.92,-170.37C180.67,-162.5 183.31,-150.6 185.58,-140.39"/>
<polygon fill="#63b8ff" stroke="#63b8ff" points="188.99,-141.17 187.75,-130.64 182.16,-139.65 188.99,-141.17"/>
</g>
<!-- Node8 -->
<g id="node8" class="node">
<title>Node8</title>
<g id="a_node8"><a xlink:href="config_8h.html" target="_top" xlink:title="Hack for C Compiler portability.">
<polygon fill="white" stroke="#666666" points="215,-74 165,-74 165,-55 215,-55 215,-74"/>
<text text-anchor="middle" x="190" y="-62" font-family="Helvetica,sans-Serif" font-size="10.00">config.h</text>
</a>
</g>
</g>
<!-- Node7&#45;&gt;Node8 -->
<g id="edge8" class="edge">
<title>Node7&#45;&gt;Node8</title>
<path fill="none" stroke="#63b8ff" d="M190,-109.75C190,-103.27 190,-94.16 190,-85.9"/>
<polygon fill="#63b8ff" stroke="#63b8ff" points="193.5,-85.96 190,-75.96 186.5,-85.96 193.5,-85.96"/>
</g>
<!-- Node8&#45;&gt;Node4 -->
<g id="edge9" class="edge">
<title>Node8&#45;&gt;Node4</title>
<path fill="none" stroke="#63b8ff" d="M185.54,-54.75C182.05,-47.88 177.05,-38.08 172.65,-29.45"/>
<polygon fill="#63b8ff" stroke="#63b8ff" points="175.9,-28.11 168.24,-20.79 169.66,-31.29 175.9,-28.11"/>
</g>
<!-- Node10&#45;&gt;Node4 -->
<g id="edge13" class="edge">
<title>Node10&#45;&gt;Node4</title>
<path fill="none" stroke="#63b8ff" d="M74,-164.51C62.32,-150.59 48.81,-128.92 57,-110 73.38,-72.17 112,-42.11 137.82,-25.31"/>
<polygon fill="#63b8ff" stroke="#63b8ff" points="139.45,-28.41 146.06,-20.13 135.73,-22.48 139.45,-28.41"/>
</g>
<!-- Node10&#45;&gt;Node6 -->
<g id="edge14" class="edge">
<title>Node10&#45;&gt;Node6</title>
<path fill="none" stroke="#63b8ff" d="M88.99,-164.54C89.49,-157.26 90.1,-148.31 90.64,-140.39"/>
<polygon fill="#63b8ff" stroke="#63b8ff" points="94.11,-140.9 91.3,-130.69 87.13,-140.42 94.11,-140.9"/>
</g>
</g>
</svg>
