<?xml version="1.0" encoding="UTF-8" standalone="no"?>
<!DOCTYPE svg PUBLIC "-//W3C//DTD SVG 1.1//EN"
 "http://www.w3.org/Graphics/SVG/1.1/DTD/svg11.dtd">
<!-- Generated by graphviz version 7.0.5 (20221223.1930)
 -->
<!-- Title: include/audio_cb.h Pages: 1 -->
<svg width="142pt" height="137pt"
 viewBox="0.00 0.00 142.00 137.00" xmlns="http://www.w3.org/2000/svg" xmlns:xlink="http://www.w3.org/1999/xlink">
<g id="graph0" class="graph" transform="scale(1 1) rotate(0) translate(4 133)">
<title>include/audio_cb.h</title>
<!-- Node1 -->
<g id="node1" class="node">
<title>Node1</title>
<g id="a_node1"><a xlink:title="Callback functions of the libmsx audio replayer.">
<polygon fill="#999999" stroke="#666666" points="120.5,-129 23.5,-129 23.5,-110 120.5,-110 120.5,-129"/>
<text text-anchor="middle" x="72" y="-117" font-family="Helvetica,sans-Serif" font-size="10.00">include/audio_cb.h</text>
</a>
</g>
</g>
<!-- Node2 -->
<g id="node2" class="node">
<title>Node2</title>
<g id="a_node2"><a xlink:href="audio__dec_8h.html" target="_top" xlink:title="The audio decoder interface for the libmsx audio replayer.">
<polygon fill="white" stroke="#666666" points="68,-74 0,-74 0,-55 68,-55 68,-74"/>
<text text-anchor="middle" x="34" y="-62" font-family="Helvetica,sans-Serif" font-size="10.00">audio_dec.h</text>
</a>
</g>
</g>
<!-- Node1&#45;&gt;Node2 -->
<g id="edge1" class="edge">
<title>Node1&#45;&gt;Node2</title>
<path fill="none" stroke="#63b8ff" d="M65.73,-109.75C60.64,-102.66 53.3,-92.42 46.97,-83.59"/>
<polygon fill="#63b8ff" stroke="#63b8ff" points="49.96,-81.76 41.29,-75.67 44.28,-85.84 49.96,-81.76"/>
</g>
<!-- Node4 -->
<g id="node4" class="node">
<title>Node4</title>
<g id="a_node4"><a xlink:title=" ">
<polygon fill="#e0e0e0" stroke="#999999" points="134,-74 86,-74 86,-55 134,-55 134,-74"/>
<text text-anchor="middle" x="110" y="-62" font-family="Helvetica,sans-Serif" font-size="10.00">stdint.h</text>
</a>
</g>
</g>
<!-- Node1&#45;&gt;Node4 -->
<g id="edge3" class="edge">
<title>Node1&#45;&gt;Node4</title>
<path fill="none" stroke="#63b8ff" d="M78.27,-109.75C83.36,-102.66 90.7,-92.42 97.03,-83.59"/>
<polygon fill="#63b8ff" stroke="#63b8ff" points="99.72,-85.84 102.71,-75.67 94.04,-81.76 99.72,-85.84"/>
</g>
<!-- Node3 -->
<g id="node3" class="node">
<title>Node3</title>
<g id="a_node3"><a xlink:title=" ">
<polygon fill="#e0e0e0" stroke="#999999" points="62,-19 6,-19 6,0 62,0 62,-19"/>
<text text-anchor="middle" x="34" y="-7" font-family="Helvetica,sans-Serif" font-size="10.00">stdbool.h</text>
</a>
</g>
</g>
<!-- Node2&#45;&gt;Node3 -->
<g id="edge2" class="edge">
<title>Node2&#45;&gt;Node3</title>
<path fill="none" stroke="#63b8ff" d="M34,-54.75C34,-48.27 34,-39.16 34,-30.9"/>
<polygon fill="#63b8ff" stroke="#63b8ff" points="37.5,-30.96 34,-20.96 30.5,-30.96 37.5,-30.96"/>
</g>
</g>
</svg>
