<?xml version="1.0" encoding="UTF-8" standalone="no"?>
<!DOCTYPE svg PUBLIC "-//W3C//DTD SVG 1.1//EN"
 "http://www.w3.org/Graphics/SVG/1.1/DTD/svg11.dtd">
<!-- Generated by graphviz version 9.0.0 (20230911.1827)
 -->
<!-- Title: include/audio_cb.h Pages: 1 -->
<svg width="142pt" height="138pt"
 viewBox="0.00 0.00 141.62 137.75" xmlns="http://www.w3.org/2000/svg" xmlns:xlink="http://www.w3.org/1999/xlink">
<g id="graph0" class="graph" transform="scale(1 1) rotate(0) translate(4 133.75)">
<title>include/audio_cb.h</title>
<!-- Node1 -->
<g id="Node000001" class="node">
<title>Node1</title>
<g id="a_Node000001"><a xlink:title="Callback functions of the libmsx audio replayer.">
<polygon fill="#999999" stroke="#666666" points="120,-129.75 23.75,-129.75 23.75,-110.5 120,-110.5 120,-129.75"/>
<text text-anchor="middle" x="71.88" y="-116.25" font-family="Helvetica,sans-Serif" font-size="10.00">include/audio_cb.h</text>
</a>
</g>
</g>
<!-- Node2 -->
<g id="Node000002" class="node">
<title>Node2</title>
<g id="a_Node000002"><a xlink:href="audio__dec_8h.html" target="_top" xlink:title="The audio decoder interface for the libmsx audio replayer.">
<polygon fill="white" stroke="#666666" points="67.75,-74.5 0,-74.5 0,-55.25 67.75,-55.25 67.75,-74.5"/>
<text text-anchor="middle" x="33.88" y="-61" font-family="Helvetica,sans-Serif" font-size="10.00">audio_dec.h</text>
</a>
</g>
</g>
<!-- Node1&#45;&gt;Node2 -->
<g id="edge1_Node000001_Node000002" class="edge">
<title>Node1&#45;&gt;Node2</title>
<g id="a_edge1_Node000001_Node000002"><a xlink:title=" ">
<path fill="none" stroke="#63b8ff" d="M65.6,-110.33C60.52,-103.21 53.18,-92.93 46.84,-84.05"/>
<polygon fill="#63b8ff" stroke="#63b8ff" points="49.82,-82.2 41.17,-76.09 44.13,-86.26 49.82,-82.2"/>
</a>
</g>
</g>
<!-- Node4 -->
<g id="Node000004" class="node">
<title>Node4</title>
<g id="a_Node000004"><a xlink:title=" ">
<polygon fill="#e0e0e0" stroke="#999999" points="133.62,-74.5 86.12,-74.5 86.12,-55.25 133.62,-55.25 133.62,-74.5"/>
<text text-anchor="middle" x="109.88" y="-61" font-family="Helvetica,sans-Serif" font-size="10.00">stdint.h</text>
</a>
</g>
</g>
<!-- Node1&#45;&gt;Node4 -->
<g id="edge3_Node000001_Node000004" class="edge">
<title>Node1&#45;&gt;Node4</title>
<g id="a_edge3_Node000001_Node000004"><a xlink:title=" ">
<path fill="none" stroke="#63b8ff" d="M78.15,-110.33C83.23,-103.21 90.57,-92.93 96.91,-84.05"/>
<polygon fill="#63b8ff" stroke="#63b8ff" points="99.62,-86.26 102.58,-76.09 93.93,-82.2 99.62,-86.26"/>
</a>
</g>
</g>
<!-- Node3 -->
<g id="Node000003" class="node">
<title>Node3</title>
<g id="a_Node000003"><a xlink:title=" ">
<polygon fill="#e0e0e0" stroke="#999999" points="61.38,-19.25 6.38,-19.25 6.38,0 61.38,0 61.38,-19.25"/>
<text text-anchor="middle" x="33.88" y="-5.75" font-family="Helvetica,sans-Serif" font-size="10.00">stdbool.h</text>
</a>
</g>
</g>
<!-- Node2&#45;&gt;Node3 -->
<g id="edge2_Node000002_Node000003" class="edge">
<title>Node2&#45;&gt;Node3</title>
<g id="a_edge2_Node000002_Node000003"><a xlink:title=" ">
<path fill="none" stroke="#63b8ff" d="M33.88,-55.08C33.88,-48.57 33.88,-39.42 33.88,-31.12"/>
<polygon fill="#63b8ff" stroke="#63b8ff" points="37.38,-31.12 33.88,-21.12 30.38,-31.12 37.38,-31.12"/>
</a>
</g>
</g>
</g>
</svg>
