<?xml version="1.0" encoding="UTF-8" standalone="no"?>
<!DOCTYPE svg PUBLIC "-//W3C//DTD SVG 1.1//EN"
 "http://www.w3.org/Graphics/SVG/1.1/DTD/svg11.dtd">
<!-- Generated by graphviz version 12.2.0 (20241103.1931)
 -->
<!-- Title: include/audio.h Pages: 1 -->
<svg width="182pt" height="83pt"
 viewBox="0.00 0.00 182.25 82.50" xmlns="http://www.w3.org/2000/svg" xmlns:xlink="http://www.w3.org/1999/xlink">
<g id="graph0" class="graph" transform="scale(1 1) rotate(0) translate(4 78.5)">
<title>include/audio.h</title>
<!-- Node1 -->
<g id="Node000001" class="node">
<title>Node1</title>
<g id="a_Node000001"><a xlink:title="The libmsx audio replayer.">
<polygon fill="#999999" stroke="#666666" points="123.25,-74.5 42.75,-74.5 42.75,-55.25 123.25,-55.25 123.25,-74.5"/>
<text text-anchor="middle" x="83" y="-61" font-family="Helvetica,sans-Serif" font-size="10.00">include/audio.h</text>
</a>
</g>
</g>
<!-- Node2 -->
<g id="Node000002" class="node">
<title>Node2</title>
<g id="a_Node000002"><a xlink:href="la0_8h.html" target="_top" xlink:title="The libmsx audio format 0 (LA0) decoder.">
<polygon fill="white" stroke="#666666" points="70,-19.25 0,-19.25 0,0 70,0 70,-19.25"/>
<text text-anchor="middle" x="35" y="-5.75" font-family="Helvetica,sans-Serif" font-size="10.00">include/la0.h</text>
</a>
</g>
</g>
<!-- Node1&#45;&gt;Node2 -->
<g id="edge1_Node000001_Node000002" class="edge">
<title>Node1&#45;&gt;Node2</title>
<g id="a_edge1_Node000001_Node000002"><a xlink:title=" ">
<path fill="none" stroke="#63b8ff" d="M67.6,-46.79C59.45,-37.75 49.78,-27.02 43.1,-19.61"/>
<polygon fill="#63b8ff" stroke="#63b8ff" points="64.77,-48.87 74.06,-53.96 69.96,-44.19 64.77,-48.87"/>
</a>
</g>
</g>
<!-- Node3 -->
<g id="Node000003" class="node">
<title>Node3</title>
<g id="a_Node000003"><a xlink:href="snddrv_8h.html" target="_top" xlink:title="SNDDRV a PSG sound driver.">
<polygon fill="white" stroke="#666666" points="174.25,-19.25 87.75,-19.25 87.75,0 174.25,0 174.25,-19.25"/>
<text text-anchor="middle" x="131" y="-5.75" font-family="Helvetica,sans-Serif" font-size="10.00">include/snddrv.h</text>
</a>
</g>
</g>
<!-- Node1&#45;&gt;Node3 -->
<g id="edge2_Node000001_Node000003" class="edge">
<title>Node1&#45;&gt;Node3</title>
<g id="a_edge2_Node000001_Node000003"><a xlink:title=" ">
<path fill="none" stroke="#63b8ff" d="M98.4,-46.79C106.55,-37.75 116.22,-27.02 122.9,-19.61"/>
<polygon fill="#63b8ff" stroke="#63b8ff" points="96.04,-44.19 91.94,-53.96 101.23,-48.87 96.04,-44.19"/>
</a>
</g>
</g>
</g>
</svg>
