<?xml version="1.0" encoding="UTF-8" standalone="no"?>
<!DOCTYPE svg PUBLIC "-//W3C//DTD SVG 1.1//EN"
 "http://www.w3.org/Graphics/SVG/1.1/DTD/svg11.dtd">
<!-- Generated by graphviz version 12.2.0 (20241103.1931)
 -->
<!-- Title: include/audio_buf.h Pages: 1 -->
<svg width="287pt" height="370pt"
 viewBox="0.00 0.00 287.00 370.00" xmlns="http://www.w3.org/2000/svg" xmlns:xlink="http://www.w3.org/1999/xlink">
<g id="graph0" class="graph" transform="scale(1 1) rotate(0) translate(4 366)">
<title>include/audio_buf.h</title>
<!-- Node1 -->
<g id="Node000001" class="node">
<title>Node1</title>
<g id="a_Node000001"><a xlink:title="Unified sound&#45;chip buffer of the libmsx audio replayer.">
<polygon fill="#999999" stroke="#666666" points="241.62,-362 142.38,-362 142.38,-342.75 241.62,-342.75 241.62,-362"/>
<text text-anchor="middle" x="192" y="-348.5" font-family="Helvetica,sans-Serif" font-size="10.00">include/audio_buf.h</text>
</a>
</g>
</g>
<!-- Node2 -->
<g id="Node000002" class="node">
<title>Node2</title>
<g id="a_Node000002"><a xlink:href="memfile_8h.html" target="_top" xlink:title="Stream interface for ROM / RAM / MegaROM.">
<polygon fill="white" stroke="#666666" points="144.62,-306.75 87.38,-306.75 87.38,-287.5 144.62,-287.5 144.62,-306.75"/>
<text text-anchor="middle" x="116" y="-293.25" font-family="Helvetica,sans-Serif" font-size="10.00">memfile.h</text>
</a>
</g>
</g>
<!-- Node1&#45;&gt;Node2 -->
<g id="edge1_Node000001_Node000002" class="edge">
<title>Node1&#45;&gt;Node2</title>
<g id="a_edge1_Node000001_Node000002"><a xlink:title=" ">
<path fill="none" stroke="#63b8ff" d="M179.11,-342.34C167.97,-334.54 151.63,-323.09 138.36,-313.79"/>
<polygon fill="#63b8ff" stroke="#63b8ff" points="140.39,-310.94 130.2,-308.07 136.38,-316.68 140.39,-310.94"/>
</a>
</g>
</g>
<!-- Node4 -->
<g id="Node000004" class="node">
<title>Node4</title>
<g id="a_Node000004"><a xlink:title=" ">
<polygon fill="#e0e0e0" stroke="#999999" points="184.75,-19.25 137.25,-19.25 137.25,0 184.75,0 184.75,-19.25"/>
<text text-anchor="middle" x="161" y="-5.75" font-family="Helvetica,sans-Serif" font-size="10.00">stdint.h</text>
</a>
</g>
</g>
<!-- Node1&#45;&gt;Node4 -->
<g id="edge15_Node000001_Node000004" class="edge">
<title>Node1&#45;&gt;Node4</title>
<g id="a_edge15_Node000001_Node000004"><a xlink:title=" ">
<path fill="none" stroke="#63b8ff" d="M206.76,-342.35C231.58,-325.9 279,-288.51 279,-242.88 279,-242.88 279,-242.88 279,-119.12 279,-72.97 229.48,-41.08 194.6,-24.34"/>
<polygon fill="#63b8ff" stroke="#63b8ff" points="196.24,-21.25 185.69,-20.27 193.33,-27.61 196.24,-21.25"/>
</a>
</g>
</g>
<!-- Node3 -->
<g id="Node000003" class="node">
<title>Node3</title>
<g id="a_Node000003"><a xlink:href="bmem_8h.html" target="_top" xlink:title="Data types and functions for accessing banked memory.">
<polygon fill="white" stroke="#666666" points="201.25,-251.5 150.75,-251.5 150.75,-232.25 201.25,-232.25 201.25,-251.5"/>
<text text-anchor="middle" x="176" y="-238" font-family="Helvetica,sans-Serif" font-size="10.00">bmem.h</text>
</a>
</g>
</g>
<!-- Node2&#45;&gt;Node3 -->
<g id="edge2_Node000002_Node000003" class="edge">
<title>Node2&#45;&gt;Node3</title>
<g id="a_edge2_Node000002_Node000003"><a xlink:title=" ">
<path fill="none" stroke="#63b8ff" d="M126.18,-287.09C134.76,-279.47 147.27,-268.37 157.6,-259.2"/>
<polygon fill="#63b8ff" stroke="#63b8ff" points="159.68,-262.04 164.84,-252.78 155.04,-256.8 159.68,-262.04"/>
</a>
</g>
</g>
<!-- Node2&#45;&gt;Node4 -->
<g id="edge11_Node000002_Node000004" class="edge">
<title>Node2&#45;&gt;Node4</title>
<g id="a_edge11_Node000002_Node000004"><a xlink:title=" ">
<path fill="none" stroke="#63b8ff" d="M87.09,-288.82C66.57,-282.24 39.8,-270.59 23,-251.5 1.51,-227.07 0,-214.54 0,-182 0,-182 0,-182 0,-119.12 0,-58.87 78.5,-29.86 125.88,-17.84"/>
<polygon fill="#63b8ff" stroke="#63b8ff" points="126.51,-21.29 135.42,-15.56 124.88,-14.48 126.51,-21.29"/>
</a>
</g>
</g>
<!-- Node9 -->
<g id="Node000009" class="node">
<title>Node9</title>
<g id="a_Node000009"><a xlink:title=" ">
<polygon fill="#e0e0e0" stroke="#999999" points="87.5,-251.5 32.5,-251.5 32.5,-232.25 87.5,-232.25 87.5,-251.5"/>
<text text-anchor="middle" x="60" y="-238" font-family="Helvetica,sans-Serif" font-size="10.00">stdbool.h</text>
</a>
</g>
</g>
<!-- Node2&#45;&gt;Node9 -->
<g id="edge10_Node000002_Node000009" class="edge">
<title>Node2&#45;&gt;Node9</title>
<g id="a_edge10_Node000002_Node000009"><a xlink:title=" ">
<path fill="none" stroke="#63b8ff" d="M106.5,-287.09C98.57,-279.55 87.05,-268.6 77.46,-259.48"/>
<polygon fill="#63b8ff" stroke="#63b8ff" points="80.11,-257.17 70.46,-252.82 75.29,-262.24 80.11,-257.17"/>
</a>
</g>
</g>
<!-- Node10 -->
<g id="Node000010" class="node">
<title>Node10</title>
<g id="a_Node000010"><a xlink:href="memfile__types_8h.html" target="_top" xlink:title=" ">
<polygon fill="white" stroke="#666666" points="132.75,-196.25 43.25,-196.25 43.25,-165.75 132.75,-165.75 132.75,-196.25"/>
<text text-anchor="start" x="51.25" y="-182.75" font-family="Helvetica,sans-Serif" font-size="10.00">./internal/memfile</text>
<text text-anchor="middle" x="88" y="-171.5" font-family="Helvetica,sans-Serif" font-size="10.00">_types.h</text>
</a>
</g>
</g>
<!-- Node2&#45;&gt;Node10 -->
<g id="edge12_Node000002_Node000010" class="edge">
<title>Node2&#45;&gt;Node10</title>
<g id="a_edge12_Node000002_Node000010"><a xlink:title=" ">
<path fill="none" stroke="#63b8ff" d="M113.8,-287.17C109.64,-270.2 100.47,-232.81 94.26,-207.51"/>
<polygon fill="#63b8ff" stroke="#63b8ff" points="97.7,-206.87 91.92,-197.99 90.91,-208.54 97.7,-206.87"/>
</a>
</g>
</g>
<!-- Node3&#45;&gt;Node4 -->
<g id="edge3_Node000003_Node000004" class="edge">
<title>Node3&#45;&gt;Node4</title>
<g id="a_edge3_Node000003_Node000004"><a xlink:title=" ">
<path fill="none" stroke="#63b8ff" d="M185.28,-231.92C193.32,-223.52 204.51,-210.21 210,-196.25 233.02,-137.72 250.46,-111.33 222,-55.25 215.57,-42.58 203.67,-32.64 192.07,-25.4"/>
<polygon fill="#63b8ff" stroke="#63b8ff" points="193.84,-22.38 183.42,-20.47 190.37,-28.46 193.84,-22.38"/>
</a>
</g>
</g>
<!-- Node5 -->
<g id="Node000005" class="node">
<title>Node5</title>
<g id="a_Node000005"><a xlink:href="vmem_8h.html" target="_top" xlink:title="Data types and functions for VRAM access.">
<polygon fill="white" stroke="#666666" points="201.25,-190.62 150.75,-190.62 150.75,-171.38 201.25,-171.38 201.25,-190.62"/>
<text text-anchor="middle" x="176" y="-177.12" font-family="Helvetica,sans-Serif" font-size="10.00">vmem.h</text>
</a>
</g>
</g>
<!-- Node3&#45;&gt;Node5 -->
<g id="edge4_Node000003_Node000005" class="edge">
<title>Node3&#45;&gt;Node5</title>
<g id="a_edge4_Node000003_Node000005"><a xlink:title=" ">
<path fill="none" stroke="#63b8ff" d="M176,-231.93C176,-224.15 176,-212.58 176,-202.53"/>
<polygon fill="#63b8ff" stroke="#63b8ff" points="179.5,-202.54 176,-192.54 172.5,-202.54 179.5,-202.54"/>
</a>
</g>
</g>
<!-- Node5&#45;&gt;Node4 -->
<g id="edge5_Node000005_Node000004" class="edge">
<title>Node5&#45;&gt;Node4</title>
<g id="a_edge5_Node000005_Node000004"><a xlink:title=" ">
<path fill="none" stroke="#63b8ff" d="M172.81,-171C165.93,-150.58 150.58,-99.1 154,-55.25 154.63,-47.14 155.9,-38.27 157.19,-30.6"/>
<polygon fill="#63b8ff" stroke="#63b8ff" points="160.6,-31.42 158.93,-20.96 153.71,-30.18 160.6,-31.42"/>
</a>
</g>
</g>
<!-- Node6 -->
<g id="Node000006" class="node">
<title>Node6</title>
<g id="a_Node000006"><a xlink:title=" ">
<polygon fill="#e0e0e0" stroke="#999999" points="116.25,-129.75 65.75,-129.75 65.75,-110.5 116.25,-110.5 116.25,-129.75"/>
<text text-anchor="middle" x="91" y="-116.25" font-family="Helvetica,sans-Serif" font-size="10.00">stddef.h</text>
</a>
</g>
</g>
<!-- Node5&#45;&gt;Node6 -->
<g id="edge6_Node000005_Node000006" class="edge">
<title>Node5&#45;&gt;Node6</title>
<g id="a_edge6_Node000005_Node000006"><a xlink:title=" ">
<path fill="none" stroke="#63b8ff" d="M163.09,-171.06C149.86,-161.89 129.03,-147.47 113.16,-136.48"/>
<polygon fill="#63b8ff" stroke="#63b8ff" points="115.49,-133.83 105.28,-131.01 111.5,-139.58 115.49,-133.83"/>
</a>
</g>
</g>
<!-- Node7 -->
<g id="Node000007" class="node">
<title>Node7</title>
<g id="a_Node000007"><a xlink:href="io_8h.html" target="_top" xlink:title="Definition of I/O ports.">
<polygon fill="white" stroke="#666666" points="203.5,-129.75 172.5,-129.75 172.5,-110.5 203.5,-110.5 203.5,-129.75"/>
<text text-anchor="middle" x="188" y="-116.25" font-family="Helvetica,sans-Serif" font-size="10.00">io.h</text>
</a>
</g>
</g>
<!-- Node5&#45;&gt;Node7 -->
<g id="edge7_Node000005_Node000007" class="edge">
<title>Node5&#45;&gt;Node7</title>
<g id="a_edge7_Node000005_Node000007"><a xlink:title=" ">
<path fill="none" stroke="#63b8ff" d="M177.82,-171.06C179.43,-163.19 181.82,-151.45 183.88,-141.32"/>
<polygon fill="#63b8ff" stroke="#63b8ff" points="187.29,-142.13 185.86,-131.63 180.43,-140.73 187.29,-142.13"/>
</a>
</g>
</g>
<!-- Node8 -->
<g id="Node000008" class="node">
<title>Node8</title>
<g id="a_Node000008"><a xlink:href="config_8h.html" target="_top" xlink:title="Hack for C Compiler portability.">
<polygon fill="white" stroke="#666666" points="212.5,-74.5 163.5,-74.5 163.5,-55.25 212.5,-55.25 212.5,-74.5"/>
<text text-anchor="middle" x="188" y="-61" font-family="Helvetica,sans-Serif" font-size="10.00">config.h</text>
</a>
</g>
</g>
<!-- Node7&#45;&gt;Node8 -->
<g id="edge8_Node000007_Node000008" class="edge">
<title>Node7&#45;&gt;Node8</title>
<g id="a_edge8_Node000007_Node000008"><a xlink:title=" ">
<path fill="none" stroke="#63b8ff" d="M188,-110.33C188,-103.82 188,-94.67 188,-86.37"/>
<polygon fill="#63b8ff" stroke="#63b8ff" points="191.5,-86.37 188,-76.37 184.5,-86.37 191.5,-86.37"/>
</a>
</g>
</g>
<!-- Node8&#45;&gt;Node4 -->
<g id="edge9_Node000008_Node000004" class="edge">
<title>Node8&#45;&gt;Node4</title>
<g id="a_edge9_Node000008_Node000004"><a xlink:title=" ">
<path fill="none" stroke="#63b8ff" d="M183.54,-55.08C180.05,-48.19 175.05,-38.34 170.65,-29.66"/>
<polygon fill="#63b8ff" stroke="#63b8ff" points="173.88,-28.3 166.24,-20.96 167.64,-31.46 173.88,-28.3"/>
</a>
</g>
</g>
<!-- Node10&#45;&gt;Node4 -->
<g id="edge13_Node000010_Node000004" class="edge">
<title>Node10&#45;&gt;Node4</title>
<g id="a_edge13_Node000010_Node000004"><a xlink:title=" ">
<path fill="none" stroke="#63b8ff" d="M74.03,-165.42C62.37,-151.4 48.87,-129.58 57,-110.5 73.03,-72.89 110.93,-42.62 136.28,-25.63"/>
<polygon fill="#63b8ff" stroke="#63b8ff" points="137.86,-28.77 144.36,-20.4 134.06,-22.9 137.86,-28.77"/>
</a>
</g>
</g>
<!-- Node10&#45;&gt;Node6 -->
<g id="edge14_Node000010_Node000006" class="edge">
<title>Node10&#45;&gt;Node6</title>
<g id="a_edge14_Node000010_Node000006"><a xlink:title=" ">
<path fill="none" stroke="#63b8ff" d="M88.74,-165.45C89.11,-158.21 89.56,-149.34 89.96,-141.44"/>
<polygon fill="#63b8ff" stroke="#63b8ff" points="93.45,-141.88 90.46,-131.71 86.46,-141.52 93.45,-141.88"/>
</a>
</g>
</g>
</g>
</svg>
