<?xml version="1.0" encoding="UTF-8" standalone="no"?>
<!DOCTYPE svg PUBLIC "-//W3C//DTD SVG 1.1//EN"
 "http://www.w3.org/Graphics/SVG/1.1/DTD/svg11.dtd">
<!-- Generated by graphviz version 7.0.5 (20221223.1930)
 -->
<!-- Title: include/audio_dec.h Pages: 1 -->
<svg width="299pt" height="82pt"
 viewBox="0.00 0.00 299.00 82.00" xmlns="http://www.w3.org/2000/svg" xmlns:xlink="http://www.w3.org/1999/xlink">
<g id="graph0" class="graph" transform="scale(1 1) rotate(0) translate(4 78)">
<title>include/audio_dec.h</title>
<!-- Node1 -->
<g id="node1" class="node">
<title>Node1</title>
<g id="a_node1"><a xlink:title="The audio decoder interface for the libmsx audio replayer.">
<polygon fill="#999999" stroke="#666666" points="201.5,-74 99.5,-74 99.5,-55 201.5,-55 201.5,-74"/>
<text text-anchor="middle" x="150.5" y="-62" font-family="Helvetica,sans-Serif" font-size="10.00">include/audio_dec.h</text>
</a>
</g>
</g>
<!-- Node2 -->
<g id="node2" class="node">
<title>Node2</title>
<g id="a_node2"><a xlink:href="audio__cb_8h.html" target="_top" xlink:title="Callback functions of the libmsx audio replayer.">
<polygon fill="white" stroke="#666666" points="97,-19 0,-19 0,0 97,0 97,-19"/>
<text text-anchor="middle" x="48.5" y="-7" font-family="Helvetica,sans-Serif" font-size="10.00">include/audio_cb.h</text>
</a>
</g>
</g>
<!-- Node1&#45;&gt;Node2 -->
<g id="edge1" class="edge">
<title>Node1&#45;&gt;Node2</title>
<path fill="none" stroke="#63b8ff" d="M123.11,-49.27C104.78,-39.74 81.24,-27.51 65.55,-19.36"/>
<polygon fill="#63b8ff" stroke="#63b8ff" points="121.37,-52.31 131.85,-53.81 124.59,-46.09 121.37,-52.31"/>
</g>
<!-- Node3 -->
<g id="node3" class="node">
<title>Node3</title>
<g id="a_node3"><a xlink:href="la0_8h.html" target="_top" xlink:title="The libmsx audio format 0 (LA0) decoder.">
<polygon fill="white" stroke="#666666" points="186,-19 115,-19 115,0 186,0 186,-19"/>
<text text-anchor="middle" x="150.5" y="-7" font-family="Helvetica,sans-Serif" font-size="10.00">include/la0.h</text>
</a>
</g>
</g>
<!-- Node1&#45;&gt;Node3 -->
<g id="edge2" class="edge">
<title>Node1&#45;&gt;Node3</title>
<path fill="none" stroke="#63b8ff" d="M150.5,-43.35C150.5,-35.1 150.5,-25.97 150.5,-19.44"/>
<polygon fill="#63b8ff" stroke="#63b8ff" points="147,-43.23 150.5,-53.23 154,-43.23 147,-43.23"/>
</g>
<!-- Node4 -->
<g id="node4" class="node">
<title>Node4</title>
<g id="a_node4"><a xlink:href="snddrv_8h.html" target="_top" xlink:title="SNDDRV a PSG sound driver.">
<polygon fill="white" stroke="#666666" points="291,-19 204,-19 204,0 291,0 291,-19"/>
<text text-anchor="middle" x="247.5" y="-7" font-family="Helvetica,sans-Serif" font-size="10.00">include/snddrv.h</text>
</a>
</g>
</g>
<!-- Node1&#45;&gt;Node4 -->
<g id="edge3" class="edge">
<title>Node1&#45;&gt;Node4</title>
<path fill="none" stroke="#63b8ff" d="M177.04,-49C194.39,-39.52 216.51,-27.43 231.29,-19.36"/>
<polygon fill="#63b8ff" stroke="#63b8ff" points="175.38,-45.92 168.28,-53.78 178.74,-52.06 175.38,-45.92"/>
</g>
</g>
</svg>
