<?xml version="1.0" encoding="UTF-8" standalone="no"?>
<!DOCTYPE svg PUBLIC "-//W3C//DTD SVG 1.1//EN"
 "http://www.w3.org/Graphics/SVG/1.1/DTD/svg11.dtd">
<!-- Generated by graphviz version 9.0.0 (20230911.1827)
 -->
<!-- Title: include/audio_dec.h Pages: 1 -->
<svg width="296pt" height="83pt"
 viewBox="0.00 0.00 296.38 82.50" xmlns="http://www.w3.org/2000/svg" xmlns:xlink="http://www.w3.org/1999/xlink">
<g id="graph0" class="graph" transform="scale(1 1) rotate(0) translate(4 78.5)">
<title>include/audio_dec.h</title>
<!-- Node1 -->
<g id="Node000001" class="node">
<title>Node1</title>
<g id="a_Node000001"><a xlink:title="The audio decoder interface for the libmsx audio replayer.">
<polygon fill="#999999" stroke="#666666" points="199.88,-74.5 98.38,-74.5 98.38,-55.25 199.88,-55.25 199.88,-74.5"/>
<text text-anchor="middle" x="149.12" y="-61" font-family="Helvetica,sans-Serif" font-size="10.00">include/audio_dec.h</text>
</a>
</g>
</g>
<!-- Node2 -->
<g id="Node000002" class="node">
<title>Node2</title>
<g id="a_Node000002"><a xlink:href="audio__cb_8h.html" target="_top" xlink:title="Callback functions of the libmsx audio replayer.">
<polygon fill="white" stroke="#666666" points="96.25,-19.25 0,-19.25 0,0 96.25,0 96.25,-19.25"/>
<text text-anchor="middle" x="48.12" y="-5.75" font-family="Helvetica,sans-Serif" font-size="10.00">include/audio_cb.h</text>
</a>
</g>
</g>
<!-- Node1&#45;&gt;Node2 -->
<g id="edge1_Node000001_Node000002" class="edge">
<title>Node1&#45;&gt;Node2</title>
<g id="a_edge1_Node000001_Node000002"><a xlink:title=" ">
<path fill="none" stroke="#63b8ff" d="M121.81,-49.48C103.83,-39.99 80.82,-27.86 65.34,-19.7"/>
<polygon fill="#63b8ff" stroke="#63b8ff" points="120.17,-52.57 130.65,-54.14 123.44,-46.38 120.17,-52.57"/>
</a>
</g>
</g>
<!-- Node3 -->
<g id="Node000003" class="node">
<title>Node3</title>
<g id="a_Node000003"><a xlink:href="la0_8h.html" target="_top" xlink:title="The libmsx audio format 0 (LA0) decoder.">
<polygon fill="white" stroke="#666666" points="184.12,-19.25 114.12,-19.25 114.12,0 184.12,0 184.12,-19.25"/>
<text text-anchor="middle" x="149.12" y="-5.75" font-family="Helvetica,sans-Serif" font-size="10.00">include/la0.h</text>
</a>
</g>
</g>
<!-- Node1&#45;&gt;Node3 -->
<g id="edge2_Node000001_Node000003" class="edge">
<title>Node1&#45;&gt;Node3</title>
<g id="a_edge2_Node000001_Node000003"><a xlink:title=" ">
<path fill="none" stroke="#63b8ff" d="M149.12,-43.63C149.12,-35.34 149.12,-26.17 149.12,-19.61"/>
<polygon fill="#63b8ff" stroke="#63b8ff" points="145.63,-43.57 149.13,-53.57 152.63,-43.57 145.63,-43.57"/>
</a>
</g>
</g>
<!-- Node4 -->
<g id="Node000004" class="node">
<title>Node4</title>
<g id="a_Node000004"><a xlink:href="snddrv_8h.html" target="_top" xlink:title="SNDDRV a PSG sound driver.">
<polygon fill="white" stroke="#666666" points="288.38,-19.25 201.88,-19.25 201.88,0 288.38,0 288.38,-19.25"/>
<text text-anchor="middle" x="245.12" y="-5.75" font-family="Helvetica,sans-Serif" font-size="10.00">include/snddrv.h</text>
</a>
</g>
</g>
<!-- Node1&#45;&gt;Node4 -->
<g id="edge3_Node000001_Node000004" class="edge">
<title>Node1&#45;&gt;Node4</title>
<g id="a_edge3_Node000001_Node000004"><a xlink:title=" ">
<path fill="none" stroke="#63b8ff" d="M175.33,-49.34C192.39,-39.88 214.12,-27.83 228.76,-19.7"/>
<polygon fill="#63b8ff" stroke="#63b8ff" points="173.78,-46.2 166.73,-54.11 177.18,-52.32 173.78,-46.2"/>
</a>
</g>
</g>
</g>
</svg>
