<?xml version="1.0" encoding="UTF-8" standalone="no"?>
<!DOCTYPE svg PUBLIC "-//W3C//DTD SVG 1.1//EN"
 "http://www.w3.org/Graphics/SVG/1.1/DTD/svg11.dtd">
<!-- Generated by graphviz version 7.0.5 (20221223.1930)
 -->
<!-- Title: include/ay_3_8910.h Pages: 1 -->
<svg width="114pt" height="247pt"
 viewBox="0.00 0.00 114.00 247.00" xmlns="http://www.w3.org/2000/svg" xmlns:xlink="http://www.w3.org/1999/xlink">
<g id="graph0" class="graph" transform="scale(1 1) rotate(0) translate(4 243)">
<title>include/ay_3_8910.h</title>
<!-- Node1 -->
<g id="node1" class="node">
<title>Node1</title>
<g id="a_node1"><a xlink:title="Buffer for PSG (AY&#45;3&#45;8910) registers.">
<polygon fill="#999999" stroke="#666666" points="104,-239 0,-239 0,-220 104,-220 104,-239"/>
<text text-anchor="middle" x="52" y="-227" font-family="Helvetica,sans-Serif" font-size="10.00">include/ay_3_8910.h</text>
</a>
</g>
</g>
<!-- Node2 -->
<g id="node2" class="node">
<title>Node2</title>
<g id="a_node2"><a xlink:href="psg_8h.html" target="_top" xlink:title="Device interface for PSG (AY&#45;3&#45;8910) an internal sound chip.">
<polygon fill="white" stroke="#666666" points="72,-184 32,-184 32,-165 72,-165 72,-184"/>
<text text-anchor="middle" x="52" y="-172" font-family="Helvetica,sans-Serif" font-size="10.00">psg.h</text>
</a>
</g>
</g>
<!-- Node1&#45;&gt;Node2 -->
<g id="edge1" class="edge">
<title>Node1&#45;&gt;Node2</title>
<path fill="none" stroke="#63b8ff" d="M52,-219.75C52,-213.27 52,-204.16 52,-195.9"/>
<polygon fill="#63b8ff" stroke="#63b8ff" points="55.5,-195.96 52,-185.96 48.5,-195.96 55.5,-195.96"/>
</g>
<!-- Node3 -->
<g id="node3" class="node">
<title>Node3</title>
<g id="a_node3"><a xlink:title=" ">
<polygon fill="#e0e0e0" stroke="#999999" points="78,-19 30,-19 30,0 78,0 78,-19"/>
<text text-anchor="middle" x="54" y="-7" font-family="Helvetica,sans-Serif" font-size="10.00">stdint.h</text>
</a>
</g>
</g>
<!-- Node2&#45;&gt;Node3 -->
<g id="edge2" class="edge">
<title>Node2&#45;&gt;Node3</title>
<path fill="none" stroke="#63b8ff" d="M50.89,-164.57C48.6,-144.8 43.81,-95.85 47,-55 47.63,-46.91 48.9,-38.07 50.19,-30.41"/>
<polygon fill="#63b8ff" stroke="#63b8ff" points="53.59,-31.27 51.93,-20.81 46.7,-30.02 53.59,-31.27"/>
</g>
<!-- Node4 -->
<g id="node4" class="node">
<title>Node4</title>
<g id="a_node4"><a xlink:href="io_8h.html" target="_top" xlink:title="Definition of I/O ports.">
<polygon fill="white" stroke="#666666" points="92,-129 60,-129 60,-110 92,-110 92,-129"/>
<text text-anchor="middle" x="76" y="-117" font-family="Helvetica,sans-Serif" font-size="10.00">io.h</text>
</a>
</g>
</g>
<!-- Node2&#45;&gt;Node4 -->
<g id="edge3" class="edge">
<title>Node2&#45;&gt;Node4</title>
<path fill="none" stroke="#63b8ff" d="M55.96,-164.75C59.04,-157.96 63.41,-148.3 67.29,-139.73"/>
<polygon fill="#63b8ff" stroke="#63b8ff" points="70.39,-141.37 71.33,-130.82 64.01,-138.49 70.39,-141.37"/>
</g>
<!-- Node5 -->
<g id="node5" class="node">
<title>Node5</title>
<g id="a_node5"><a xlink:href="config_8h.html" target="_top" xlink:title="Hack for C Compiler portability.">
<polygon fill="white" stroke="#666666" points="106,-74 56,-74 56,-55 106,-55 106,-74"/>
<text text-anchor="middle" x="81" y="-62" font-family="Helvetica,sans-Serif" font-size="10.00">config.h</text>
</a>
</g>
</g>
<!-- Node4&#45;&gt;Node5 -->
<g id="edge4" class="edge">
<title>Node4&#45;&gt;Node5</title>
<path fill="none" stroke="#63b8ff" d="M76.83,-109.75C77.44,-103.27 78.3,-94.16 79.08,-85.9"/>
<polygon fill="#63b8ff" stroke="#63b8ff" points="82.56,-86.23 80.01,-75.95 75.59,-85.58 82.56,-86.23"/>
</g>
<!-- Node5&#45;&gt;Node3 -->
<g id="edge5" class="edge">
<title>Node5&#45;&gt;Node3</title>
<path fill="none" stroke="#63b8ff" d="M76.54,-54.75C73.05,-47.88 68.05,-38.08 63.65,-29.45"/>
<polygon fill="#63b8ff" stroke="#63b8ff" points="66.9,-28.11 59.24,-20.79 60.66,-31.29 66.9,-28.11"/>
</g>
</g>
</svg>
