<?xml version="1.0" encoding="UTF-8" standalone="no"?>
<!DOCTYPE svg PUBLIC "-//W3C//DTD SVG 1.1//EN"
 "http://www.w3.org/Graphics/SVG/1.1/DTD/svg11.dtd">
<!-- Generated by graphviz version 12.2.0 (20241103.1931)
 -->
<!-- Title: include/ay_3_8910.h Pages: 1 -->
<svg width="115pt" height="248pt"
 viewBox="0.00 0.00 115.38 248.25" xmlns="http://www.w3.org/2000/svg" xmlns:xlink="http://www.w3.org/1999/xlink">
<g id="graph0" class="graph" transform="scale(1 1) rotate(0) translate(4 244.25)">
<title>include/ay_3_8910.h</title>
<!-- Node1 -->
<g id="Node000001" class="node">
<title>Node1</title>
<g id="a_Node000001"><a xlink:title="Buffer for PSG (AY&#45;3&#45;8910) registers.">
<polygon fill="#999999" stroke="#666666" points="103.75,-240.25 0,-240.25 0,-221 103.75,-221 103.75,-240.25"/>
<text text-anchor="middle" x="51.88" y="-226.75" font-family="Helvetica,sans-Serif" font-size="10.00">include/ay_3_8910.h</text>
</a>
</g>
</g>
<!-- Node2 -->
<g id="Node000002" class="node">
<title>Node2</title>
<g id="a_Node000002"><a xlink:href="psg_8h.html" target="_top" xlink:title="Device interface for PSG (AY&#45;3&#45;8910) an internal sound chip.">
<polygon fill="white" stroke="#666666" points="71.5,-185 32.25,-185 32.25,-165.75 71.5,-165.75 71.5,-185"/>
<text text-anchor="middle" x="51.88" y="-171.5" font-family="Helvetica,sans-Serif" font-size="10.00">psg.h</text>
</a>
</g>
</g>
<!-- Node1&#45;&gt;Node2 -->
<g id="edge1_Node000001_Node000002" class="edge">
<title>Node1&#45;&gt;Node2</title>
<g id="a_edge1_Node000001_Node000002"><a xlink:title=" ">
<path fill="none" stroke="#63b8ff" d="M51.88,-220.83C51.88,-214.32 51.88,-205.17 51.88,-196.87"/>
<polygon fill="#63b8ff" stroke="#63b8ff" points="55.38,-196.87 51.88,-186.87 48.38,-196.87 55.38,-196.87"/>
</a>
</g>
</g>
<!-- Node3 -->
<g id="Node000003" class="node">
<title>Node3</title>
<g id="a_Node000003"><a xlink:title=" ">
<polygon fill="#e0e0e0" stroke="#999999" points="79.62,-19.25 32.12,-19.25 32.12,0 79.62,0 79.62,-19.25"/>
<text text-anchor="middle" x="55.88" y="-5.75" font-family="Helvetica,sans-Serif" font-size="10.00">stdint.h</text>
</a>
</g>
</g>
<!-- Node2&#45;&gt;Node3 -->
<g id="edge2_Node000002_Node000003" class="edge">
<title>Node2&#45;&gt;Node3</title>
<g id="a_edge2_Node000002_Node000003"><a xlink:title=" ">
<path fill="none" stroke="#63b8ff" d="M51.21,-165.4C49.86,-145.52 47.13,-96.32 49.88,-55.25 50.42,-47.16 51.5,-38.3 52.61,-30.62"/>
<polygon fill="#63b8ff" stroke="#63b8ff" points="56.03,-31.39 54.1,-20.98 49.11,-30.32 56.03,-31.39"/>
</a>
</g>
</g>
<!-- Node4 -->
<g id="Node000004" class="node">
<title>Node4</title>
<g id="a_Node000004"><a xlink:href="io_8h.html" target="_top" xlink:title="Definition of I/O ports.">
<polygon fill="white" stroke="#666666" points="93.38,-129.75 62.38,-129.75 62.38,-110.5 93.38,-110.5 93.38,-129.75"/>
<text text-anchor="middle" x="77.88" y="-116.25" font-family="Helvetica,sans-Serif" font-size="10.00">io.h</text>
</a>
</g>
</g>
<!-- Node2&#45;&gt;Node4 -->
<g id="edge3_Node000002_Node000004" class="edge">
<title>Node2&#45;&gt;Node4</title>
<g id="a_edge3_Node000002_Node000004"><a xlink:title=" ">
<path fill="none" stroke="#63b8ff" d="M56.17,-165.58C59.5,-158.76 64.24,-149.06 68.44,-140.45"/>
<polygon fill="#63b8ff" stroke="#63b8ff" points="71.58,-141.99 72.82,-131.47 65.29,-138.92 71.58,-141.99"/>
</a>
</g>
</g>
<!-- Node5 -->
<g id="Node000005" class="node">
<title>Node5</title>
<g id="a_Node000005"><a xlink:href="config_8h.html" target="_top" xlink:title="Hack for C Compiler portability.">
<polygon fill="white" stroke="#666666" points="107.38,-74.5 58.38,-74.5 58.38,-55.25 107.38,-55.25 107.38,-74.5"/>
<text text-anchor="middle" x="82.88" y="-61" font-family="Helvetica,sans-Serif" font-size="10.00">config.h</text>
</a>
</g>
</g>
<!-- Node4&#45;&gt;Node5 -->
<g id="edge4_Node000004_Node000005" class="edge">
<title>Node4&#45;&gt;Node5</title>
<g id="a_edge4_Node000004_Node000005"><a xlink:title=" ">
<path fill="none" stroke="#63b8ff" d="M78.7,-110.33C79.32,-103.74 80.19,-94.46 80.98,-86.07"/>
<polygon fill="#63b8ff" stroke="#63b8ff" points="84.44,-86.65 81.89,-76.37 77.47,-86 84.44,-86.65"/>
</a>
</g>
</g>
<!-- Node5&#45;&gt;Node3 -->
<g id="edge5_Node000005_Node000003" class="edge">
<title>Node5&#45;&gt;Node3</title>
<g id="a_edge5_Node000005_Node000003"><a xlink:title=" ">
<path fill="none" stroke="#63b8ff" d="M78.42,-55.08C74.92,-48.19 69.93,-38.34 65.53,-29.66"/>
<polygon fill="#63b8ff" stroke="#63b8ff" points="68.76,-28.3 61.11,-20.96 62.52,-31.46 68.76,-28.3"/>
</a>
</g>
</g>
</g>
</svg>
