<?xml version="1.0" encoding="UTF-8" standalone="no"?>
<!DOCTYPE svg PUBLIC "-//W3C//DTD SVG 1.1//EN"
 "http://www.w3.org/Graphics/SVG/1.1/DTD/svg11.dtd">
<!-- Generated by graphviz version 2.49.3 (20211027.1534)
 -->
<!-- Title: src/ay_3_8910.c Pages: 1 -->
<svg width="186pt" height="252pt"
 viewBox="0.00 0.00 186.00 252.00" xmlns="http://www.w3.org/2000/svg" xmlns:xlink="http://www.w3.org/1999/xlink">
<g id="graph0" class="graph" transform="scale(1 1) rotate(0) translate(4 248)">
<title>src/ay_3_8910.c</title>
<!-- Node1 -->
<g id="node1" class="node">
<title>Node1</title>
<g id="a_node1"><a xlink:title="Copyright (c) 2022 Daishi Mori (mori0091)">
<polygon fill="#bfbfbf" stroke="black" points="61.5,-224.5 61.5,-243.5 148.5,-243.5 148.5,-224.5 61.5,-224.5"/>
<text text-anchor="middle" x="105" y="-231.5" font-family="Helvetica,sans-Serif" font-size="10.00">src/ay_3_8910.c</text>
</a>
</g>
</g>
<!-- Node2 -->
<g id="node2" class="node">
<title>Node2</title>
<g id="a_node2"><a xlink:href="ay__3__8910_8h.html" target="_top" xlink:title="Copyright (c) 2022 Daishi Mori (mori0091)">
<polygon fill="none" stroke="black" points="0,-168.5 0,-187.5 112,-187.5 112,-168.5 0,-168.5"/>
<text text-anchor="middle" x="56" y="-175.5" font-family="Helvetica,sans-Serif" font-size="10.00">../include/ay_3_8910.h</text>
</a>
</g>
</g>
<!-- Node1&#45;&gt;Node2 -->
<g id="edge1" class="edge">
<title>Node1&#45;&gt;Node2</title>
<path fill="none" stroke="midnightblue" d="M96.91,-224.08C89.84,-216.3 79.41,-204.8 70.85,-195.37"/>
<polygon fill="midnightblue" stroke="midnightblue" points="73.25,-192.8 63.94,-187.75 68.07,-197.51 73.25,-192.8"/>
</g>
<!-- Node7 -->
<g id="node7" class="node">
<title>Node7</title>
<g id="a_node7"><a xlink:title=" ">
<polygon fill="none" stroke="#bfbfbf" points="130,-168.5 130,-187.5 178,-187.5 178,-168.5 130,-168.5"/>
<text text-anchor="middle" x="154" y="-175.5" font-family="Helvetica,sans-Serif" font-size="10.00">string.h</text>
</a>
</g>
</g>
<!-- Node1&#45;&gt;Node7 -->
<g id="edge6" class="edge">
<title>Node1&#45;&gt;Node7</title>
<path fill="none" stroke="midnightblue" d="M113.09,-224.08C120.16,-216.3 130.59,-204.8 139.15,-195.37"/>
<polygon fill="midnightblue" stroke="midnightblue" points="141.93,-197.51 146.06,-187.75 136.75,-192.8 141.93,-197.51"/>
</g>
<!-- Node3 -->
<g id="node3" class="node">
<title>Node3</title>
<g id="a_node3"><a xlink:href="psg_8h.html" target="_top" xlink:title="Copyright (c) 2021 Daishi Mori (mori0091)">
<polygon fill="none" stroke="black" points="36,-112.5 36,-131.5 76,-131.5 76,-112.5 36,-112.5"/>
<text text-anchor="middle" x="56" y="-119.5" font-family="Helvetica,sans-Serif" font-size="10.00">psg.h</text>
</a>
</g>
</g>
<!-- Node2&#45;&gt;Node3 -->
<g id="edge2" class="edge">
<title>Node2&#45;&gt;Node3</title>
<path fill="none" stroke="midnightblue" d="M56,-168.08C56,-161.01 56,-150.86 56,-141.99"/>
<polygon fill="midnightblue" stroke="midnightblue" points="59.5,-141.75 56,-131.75 52.5,-141.75 59.5,-141.75"/>
</g>
<!-- Node4 -->
<g id="node4" class="node">
<title>Node4</title>
<g id="a_node4"><a xlink:title=" ">
<polygon fill="none" stroke="#bfbfbf" points="3,-56.5 3,-75.5 51,-75.5 51,-56.5 3,-56.5"/>
<text text-anchor="middle" x="27" y="-63.5" font-family="Helvetica,sans-Serif" font-size="10.00">stdint.h</text>
</a>
</g>
</g>
<!-- Node3&#45;&gt;Node4 -->
<g id="edge3" class="edge">
<title>Node3&#45;&gt;Node4</title>
<path fill="none" stroke="midnightblue" d="M51.21,-112.08C47.24,-104.69 41.47,-93.95 36.57,-84.81"/>
<polygon fill="midnightblue" stroke="midnightblue" points="39.51,-82.91 31.7,-75.75 33.35,-86.22 39.51,-82.91"/>
</g>
<!-- Node5 -->
<g id="node5" class="node">
<title>Node5</title>
<g id="a_node5"><a xlink:href="io_8h.html" target="_top" xlink:title="Copyright (c) 2021 Daishi Mori (mori0091)">
<polygon fill="none" stroke="black" points="69,-56.5 69,-75.5 101,-75.5 101,-56.5 69,-56.5"/>
<text text-anchor="middle" x="85" y="-63.5" font-family="Helvetica,sans-Serif" font-size="10.00">io.h</text>
</a>
</g>
</g>
<!-- Node3&#45;&gt;Node5 -->
<g id="edge4" class="edge">
<title>Node3&#45;&gt;Node5</title>
<path fill="none" stroke="midnightblue" d="M60.79,-112.08C64.76,-104.69 70.53,-93.95 75.43,-84.81"/>
<polygon fill="midnightblue" stroke="midnightblue" points="78.65,-86.22 80.3,-75.75 72.49,-82.91 78.65,-86.22"/>
</g>
<!-- Node6 -->
<g id="node6" class="node">
<title>Node6</title>
<g id="a_node6"><a xlink:href="config_8h.html" target="_top" xlink:title="Copyright (c) 2022 Daishi Mori (mori0091)">
<polygon fill="none" stroke="black" points="60,-0.5 60,-19.5 110,-19.5 110,-0.5 60,-0.5"/>
<text text-anchor="middle" x="85" y="-7.5" font-family="Helvetica,sans-Serif" font-size="10.00">config.h</text>
</a>
</g>
</g>
<!-- Node5&#45;&gt;Node6 -->
<g id="edge5" class="edge">
<title>Node5&#45;&gt;Node6</title>
<path fill="none" stroke="midnightblue" d="M85,-56.08C85,-49.01 85,-38.86 85,-29.99"/>
<polygon fill="midnightblue" stroke="midnightblue" points="88.5,-29.75 85,-19.75 81.5,-29.75 88.5,-29.75"/>
</g>
</g>
</svg>
