<?xml version="1.0" encoding="UTF-8" standalone="no"?>
<!DOCTYPE svg PUBLIC "-//W3C//DTD SVG 1.1//EN"
 "http://www.w3.org/Graphics/SVG/1.1/DTD/svg11.dtd">
<!-- Generated by graphviz version 3.0.0 (20221109.1736)
 -->
<!-- Title: include/bios.h Pages: 1 -->
<svg width="177pt" height="140pt"
 viewBox="0.00 0.00 176.78 140.00" xmlns="http://www.w3.org/2000/svg" xmlns:xlink="http://www.w3.org/1999/xlink">
<g id="graph0" class="graph" transform="scale(1 1) rotate(0) translate(4 136)">
<title>include/bios.h</title>
<!-- Node1 -->
<g id="node1" class="node">
<title>Node1</title>
<g id="a_node1"><a xlink:title="C language I/F for MSX BIOS routines.">
<polygon fill="#bfbfbf" stroke="black" points="7.28,-112.5 7.28,-131.5 83.28,-131.5 83.28,-112.5 7.28,-112.5"/>
<text text-anchor="middle" x="45.28" y="-119.5" font-family="Helvetica,sans-Serif" font-size="10.00">include/bios.h</text>
</a>
</g>
</g>
<!-- Node2 -->
<g id="node2" class="node">
<title>Node2</title>
<g id="a_node2"><a xlink:title=" ">
<polygon fill="none" stroke="#bfbfbf" points="21.28,-0.5 21.28,-19.5 69.28,-19.5 69.28,-0.5 21.28,-0.5"/>
<text text-anchor="middle" x="45.28" y="-7.5" font-family="Helvetica,sans-Serif" font-size="10.00">stdint.h</text>
</a>
</g>
</g>
<!-- Node1&#45;&gt;Node2 -->
<g id="edge1" class="edge">
<title>Node1&#45;&gt;Node2</title>
<path fill="none" stroke="midnightblue" d="M32.79,-112.3C22.41,-104.25 8.4,-91.24 2.28,-76 -5.12,-57.52 10.19,-38.82 24.55,-26.24"/>
<polygon fill="midnightblue" stroke="midnightblue" points="27.17,-28.63 32.71,-19.6 22.75,-23.2 27.17,-28.63"/>
</g>
<!-- Node3 -->
<g id="node3" class="node">
<title>Node3</title>
<g id="a_node3"><a xlink:href="bios__const_8h.html" target="_top" xlink:title="Constant variables in the MSX BIOS ROM.">
<polygon fill="none" stroke="black" points="97.78,-56.5 97.78,-75.5 168.78,-75.5 168.78,-56.5 97.78,-56.5"/>
<text text-anchor="middle" x="133.28" y="-63.5" font-family="Helvetica,sans-Serif" font-size="10.00">bios_const.h</text>
</a>
</g>
</g>
<!-- Node1&#45;&gt;Node3 -->
<g id="edge2" class="edge">
<title>Node1&#45;&gt;Node3</title>
<path fill="none" stroke="midnightblue" d="M59.42,-112.32C73.15,-103.9 94.22,-90.97 110.35,-81.07"/>
<polygon fill="midnightblue" stroke="midnightblue" points="112.49,-83.87 119.18,-75.65 108.83,-77.9 112.49,-83.87"/>
</g>
<!-- Node5 -->
<g id="node5" class="node">
<title>Node5</title>
<g id="a_node5"><a xlink:href="bios__entry_8h.html" target="_top" xlink:title="Assembler entry points for MSX BIOS functions.">
<polygon fill="none" stroke="black" points="11.28,-56.5 11.28,-75.5 79.28,-75.5 79.28,-56.5 11.28,-56.5"/>
<text text-anchor="middle" x="45.28" y="-63.5" font-family="Helvetica,sans-Serif" font-size="10.00">bios_entry.h</text>
</a>
</g>
</g>
<!-- Node1&#45;&gt;Node5 -->
<g id="edge5" class="edge">
<title>Node1&#45;&gt;Node5</title>
<path fill="none" stroke="midnightblue" d="M45.28,-112.08C45.28,-105.01 45.28,-94.86 45.28,-85.99"/>
<polygon fill="midnightblue" stroke="midnightblue" points="48.78,-85.75 45.28,-75.75 41.78,-85.75 48.78,-85.75"/>
</g>
<!-- Node3&#45;&gt;Node2 -->
<g id="edge3" class="edge">
<title>Node3&#45;&gt;Node2</title>
<path fill="none" stroke="midnightblue" d="M119.15,-56.32C105.42,-47.9 84.35,-34.97 68.22,-25.07"/>
<polygon fill="midnightblue" stroke="midnightblue" points="69.74,-21.9 59.39,-19.65 66.08,-27.87 69.74,-21.9"/>
</g>
<!-- Node4 -->
<g id="node4" class="node">
<title>Node4</title>
<g id="a_node4"><a xlink:href="config_8h.html" target="_top" xlink:title="Copyright (c) 2022 Daishi Mori (mori0091)">
<polygon fill="none" stroke="black" points="97.28,-0.5 97.28,-19.5 147.28,-19.5 147.28,-0.5 97.28,-0.5"/>
<text text-anchor="middle" x="122.28" y="-7.5" font-family="Helvetica,sans-Serif" font-size="10.00">config.h</text>
</a>
</g>
</g>
<!-- Node3&#45;&gt;Node4 -->
<g id="edge4" class="edge">
<title>Node3&#45;&gt;Node4</title>
<path fill="none" stroke="midnightblue" d="M131.47,-56.08C130.01,-48.93 127.91,-38.64 126.09,-29.69"/>
<polygon fill="midnightblue" stroke="midnightblue" points="129.49,-28.85 124.07,-19.75 122.63,-30.25 129.49,-28.85"/>
</g>
<!-- Node5&#45;&gt;Node2 -->
<g id="edge6" class="edge">
<title>Node5&#45;&gt;Node2</title>
<path fill="none" stroke="midnightblue" d="M45.28,-56.08C45.28,-49.01 45.28,-38.86 45.28,-29.99"/>
<polygon fill="midnightblue" stroke="midnightblue" points="48.78,-29.75 45.28,-19.75 41.78,-29.75 48.78,-29.75"/>
</g>
<!-- Node5&#45;&gt;Node4 -->
<g id="edge7" class="edge">
<title>Node5&#45;&gt;Node4</title>
<path fill="none" stroke="midnightblue" d="M57.66,-56.32C69.44,-48.06 87.42,-35.45 101.42,-25.63"/>
<polygon fill="midnightblue" stroke="midnightblue" points="103.77,-28.26 109.94,-19.65 99.75,-22.53 103.77,-28.26"/>
</g>
</g>
</svg>
