<?xml version="1.0" encoding="UTF-8" standalone="no"?>
<!DOCTYPE svg PUBLIC "-//W3C//DTD SVG 1.1//EN"
 "http://www.w3.org/Graphics/SVG/1.1/DTD/svg11.dtd">
<!-- Generated by graphviz version 3.0.0 (20221109.1736)
 -->
<!-- Title: include/bios.h Pages: 1 -->
<svg width="182pt" height="252pt"
 viewBox="0.00 0.00 182.00 252.00" xmlns="http://www.w3.org/2000/svg" xmlns:xlink="http://www.w3.org/1999/xlink">
<g id="graph0" class="graph" transform="scale(1 1) rotate(0) translate(4 248)">
<title>include/bios.h</title>
<!-- Node1 -->
<g id="node1" class="node">
<title>Node1</title>
<g id="a_node1"><a xlink:title="C language I/F for MSX BIOS routines.">
<polygon fill="#bfbfbf" stroke="black" points="0,-224.5 0,-243.5 76,-243.5 76,-224.5 0,-224.5"/>
<text text-anchor="middle" x="38" y="-231.5" font-family="Helvetica,sans-Serif" font-size="10.00">include/bios.h</text>
</a>
</g>
</g>
<!-- Node2 -->
<g id="node2" class="node">
<title>Node2</title>
<g id="a_node2"><a xlink:href="msx_8h.html" target="_top" xlink:title="Using #include &lt;msx.h&gt; includes almost all C header files in libmsx, for ease to use.">
<polygon fill="none" stroke="black" points="0,-0.5 0,-19.5 76,-19.5 76,-0.5 0,-0.5"/>
<text text-anchor="middle" x="38" y="-7.5" font-family="Helvetica,sans-Serif" font-size="10.00">include/msx.h</text>
</a>
</g>
</g>
<!-- Node1&#45;&gt;Node2 -->
<g id="edge1" class="edge">
<title>Node1&#45;&gt;Node2</title>
<path fill="none" stroke="midnightblue" d="M38,-214.3C38,-168.64 38,-52.85 38,-19.88"/>
<polygon fill="midnightblue" stroke="midnightblue" points="34.5,-214.3 38,-224.3 41.5,-214.3 34.5,-214.3"/>
</g>
<!-- Node3 -->
<g id="node3" class="node">
<title>Node3</title>
<g id="a_node3"><a xlink:href="vdp_8h.html" target="_top" xlink:title="Data types and functions for VDP (Video Display Proccessor) access.">
<polygon fill="none" stroke="black" points="54,-112.5 54,-131.5 128,-131.5 128,-112.5 54,-112.5"/>
<text text-anchor="middle" x="91" y="-119.5" font-family="Helvetica,sans-Serif" font-size="10.00">include/vdp.h</text>
</a>
</g>
</g>
<!-- Node1&#45;&gt;Node3 -->
<g id="edge2" class="edge">
<title>Node1&#45;&gt;Node3</title>
<path fill="none" stroke="midnightblue" d="M41.57,-214.29C44.57,-200.93 49.58,-182.77 57,-168 63.95,-154.18 75.27,-140.28 82.92,-131.66"/>
<polygon fill="midnightblue" stroke="midnightblue" points="38.12,-213.71 39.52,-224.21 44.98,-215.13 38.12,-213.71"/>
</g>
<!-- Node5 -->
<g id="node5" class="node">
<title>Node5</title>
<g id="a_node5"><a xlink:href="vdp__unsafe_8h.html" target="_top" xlink:title="Unsafe primitive functions for VDP (Video Display Proccessor) access.">
<polygon fill="none" stroke="black" points="66,-168.5 66,-187.5 174,-187.5 174,-168.5 66,-168.5"/>
<text text-anchor="middle" x="120" y="-175.5" font-family="Helvetica,sans-Serif" font-size="10.00">include/vdp_unsafe.h</text>
</a>
</g>
</g>
<!-- Node1&#45;&gt;Node5 -->
<g id="edge6" class="edge">
<title>Node1&#45;&gt;Node5</title>
<path fill="none" stroke="midnightblue" d="M59.83,-218.62C74.81,-208.76 94.2,-195.99 106.86,-187.65"/>
<polygon fill="midnightblue" stroke="midnightblue" points="57.6,-215.9 51.17,-224.32 61.45,-221.75 57.6,-215.9"/>
</g>
<!-- Node3&#45;&gt;Node2 -->
<g id="edge5" class="edge">
<title>Node3&#45;&gt;Node2</title>
<path fill="none" stroke="midnightblue" d="M76.41,-104.72C69.72,-96.56 62.16,-86.26 57,-76 47.5,-57.09 41.96,-32.64 39.52,-19.79"/>
<polygon fill="midnightblue" stroke="midnightblue" points="73.77,-107.01 82.92,-112.34 79.09,-102.46 73.77,-107.01"/>
</g>
<!-- Node4 -->
<g id="node4" class="node">
<title>Node4</title>
<g id="a_node4"><a xlink:href="metasprite_8h.html" target="_top" xlink:title="Meta&#45;sprite ; an aggregate of sprites.">
<polygon fill="none" stroke="black" points="66,-56.5 66,-75.5 170,-75.5 170,-56.5 66,-56.5"/>
<text text-anchor="middle" x="118" y="-63.5" font-family="Helvetica,sans-Serif" font-size="10.00">include/metasprite.h</text>
</a>
</g>
</g>
<!-- Node3&#45;&gt;Node4 -->
<g id="edge3" class="edge">
<title>Node3&#45;&gt;Node4</title>
<path fill="none" stroke="midnightblue" d="M100.01,-102.98C104.59,-93.82 109.95,-83.09 113.62,-75.75"/>
<polygon fill="midnightblue" stroke="midnightblue" points="96.8,-101.57 95.46,-112.08 103.06,-104.7 96.8,-101.57"/>
</g>
<!-- Node4&#45;&gt;Node2 -->
<g id="edge4" class="edge">
<title>Node4&#45;&gt;Node2</title>
<path fill="none" stroke="midnightblue" d="M96.7,-50.62C82.08,-40.76 63.17,-27.99 50.82,-19.65"/>
<polygon fill="midnightblue" stroke="midnightblue" points="94.9,-53.63 105.15,-56.32 98.82,-47.83 94.9,-53.63"/>
</g>
<!-- Node5&#45;&gt;Node3 -->
<g id="edge7" class="edge">
<title>Node5&#45;&gt;Node3</title>
<path fill="none" stroke="midnightblue" d="M110.32,-158.98C105.4,-149.82 99.64,-139.09 95.7,-131.75"/>
<polygon fill="midnightblue" stroke="midnightblue" points="107.4,-160.93 115.21,-168.08 113.56,-157.62 107.4,-160.93"/>
</g>
</g>
</svg>
