<?xml version="1.0" encoding="UTF-8" standalone="no"?>
<!DOCTYPE svg PUBLIC "-//W3C//DTD SVG 1.1//EN"
 "http://www.w3.org/Graphics/SVG/1.1/DTD/svg11.dtd">
<!-- Generated by graphviz version 2.44.0 ()
 -->
<!-- Title: include/bios.h Pages: 1 -->
<svg width="4509pt" height="207pt"
 viewBox="0.00 0.00 4509.00 207.00" xmlns="http://www.w3.org/2000/svg" xmlns:xlink="http://www.w3.org/1999/xlink">
<g id="graph0" class="graph" transform="scale(1 1) rotate(0) translate(4 203)">
<title>include/bios.h</title>
<!-- Node1 -->
<g id="node1" class="node">
<title>Node1</title>
<g id="a_node1"><a xlink:title="Copyright (c) 2021 Daishi Mori (mori0091)">
<polygon fill="#bfbfbf" stroke="black" points="2206,-179.5 2206,-198.5 2282,-198.5 2282,-179.5 2206,-179.5"/>
<text text-anchor="middle" x="2244" y="-186.5" font-family="Helvetica,sans-Serif" font-size="10.00">include/bios.h</text>
</a>
</g>
</g>
<!-- Node2 -->
<g id="node2" class="node">
<title>Node2</title>
<g id="a_node2"><a xlink:href="msx_8h.html" target="_top" xlink:title="Copyright (c) 2021 Daishi Mori (mori0091)">
<polygon fill="none" stroke="black" points="0,-0.5 0,-19.5 76,-19.5 76,-0.5 0,-0.5"/>
<text text-anchor="middle" x="38" y="-7.5" font-family="Helvetica,sans-Serif" font-size="10.00">include/msx.h</text>
</a>
</g>
</g>
<!-- Node1&#45;&gt;Node2 -->
<g id="edge1" class="edge">
<title>Node1&#45;&gt;Node2</title>
<path fill="none" stroke="midnightblue" d="M2195.43,-187.29C1881.75,-182.5 152.16,-153.15 64,-87 42.58,-70.93 38.67,-36.22 38.05,-19.86"/>
<polygon fill="midnightblue" stroke="midnightblue" points="2195.51,-190.79 2205.57,-187.44 2195.62,-183.79 2195.51,-190.79"/>
</g>
<!-- Node3 -->
<g id="node3" class="node">
<title>Node3</title>
<g id="a_node3"><a xlink:href="vdp_8h.html" target="_top" xlink:title="Copyright (c) 2021 Daishi Mori (mori0091)">
<polygon fill="none" stroke="black" points="2157,-123.5 2157,-142.5 2231,-142.5 2231,-123.5 2157,-123.5"/>
<text text-anchor="middle" x="2194" y="-130.5" font-family="Helvetica,sans-Serif" font-size="10.00">include/vdp.h</text>
</a>
</g>
</g>
<!-- Node1&#45;&gt;Node3 -->
<g id="edge2" class="edge">
<title>Node1&#45;&gt;Node3</title>
<path fill="none" stroke="midnightblue" d="M2228.92,-171.72C2220.11,-162.2 2209.33,-150.56 2202.1,-142.75"/>
<polygon fill="midnightblue" stroke="midnightblue" points="2226.38,-174.12 2235.74,-179.08 2231.52,-169.37 2226.38,-174.12"/>
</g>
<!-- Node42 -->
<g id="node42" class="node">
<title>Node42</title>
<g id="a_node42"><a xlink:href="sleep__millis_8c.html" target="_top" xlink:title="Copyright (c) 2021 Daishi Mori (mori0091)">
<polygon fill="none" stroke="black" points="2249,-123.5 2249,-142.5 2341,-142.5 2341,-123.5 2249,-123.5"/>
<text text-anchor="middle" x="2295" y="-130.5" font-family="Helvetica,sans-Serif" font-size="10.00">src/sleep_millis.c</text>
</a>
</g>
</g>
<!-- Node1&#45;&gt;Node42 -->
<g id="edge43" class="edge">
<title>Node1&#45;&gt;Node42</title>
<path fill="none" stroke="midnightblue" d="M2259.38,-171.72C2268.37,-162.2 2279.36,-150.56 2286.74,-142.75"/>
<polygon fill="midnightblue" stroke="midnightblue" points="2256.74,-169.41 2252.42,-179.08 2261.83,-174.22 2256.74,-169.41"/>
</g>
<!-- Node43 -->
<g id="node43" class="node">
<title>Node43</title>
<g id="a_node43"><a xlink:href="sound_8c.html" target="_top" xlink:title="Copyright (c) 2021 Daishi Mori (mori0091)">
<polygon fill="none" stroke="black" points="2359.5,-123.5 2359.5,-142.5 2426.5,-142.5 2426.5,-123.5 2359.5,-123.5"/>
<text text-anchor="middle" x="2393" y="-130.5" font-family="Helvetica,sans-Serif" font-size="10.00">src/sound.c</text>
</a>
</g>
</g>
<!-- Node1&#45;&gt;Node43 -->
<g id="edge44" class="edge">
<title>Node1&#45;&gt;Node43</title>
<path fill="none" stroke="midnightblue" d="M2277.37,-175.91C2305.38,-165.75 2344.7,-151.51 2369.5,-142.52"/>
<polygon fill="midnightblue" stroke="midnightblue" points="2275.82,-172.75 2267.61,-179.44 2278.2,-179.33 2275.82,-172.75"/>
</g>
<!-- Node3&#45;&gt;Node2 -->
<g id="edge8" class="edge">
<title>Node3&#45;&gt;Node2</title>
<path fill="none" stroke="midnightblue" d="M2146.81,-132.05C1845.53,-132.27 200.61,-131.42 105,-87 74.05,-72.62 51.53,-36.39 42.44,-19.68"/>
<polygon fill="midnightblue" stroke="midnightblue" points="2146.96,-135.55 2156.96,-132.05 2146.96,-128.55 2146.96,-135.55"/>
</g>
<!-- Node4 -->
<g id="node4" class="node">
<title>Node4</title>
<g id="a_node4"><a xlink:href="metasprite_8h.html" target="_top" xlink:title="Copyright (c) 2021 Daishi Mori (mori0091)">
<polygon fill="none" stroke="black" points="114,-62 114,-81 218,-81 218,-62 114,-62"/>
<text text-anchor="middle" x="166" y="-69" font-family="Helvetica,sans-Serif" font-size="10.00">include/metasprite.h</text>
</a>
</g>
</g>
<!-- Node3&#45;&gt;Node4 -->
<g id="edge3" class="edge">
<title>Node3&#45;&gt;Node4</title>
<path fill="none" stroke="midnightblue" d="M2146.6,-132.27C1884.98,-133.54 615.24,-137.02 227,-87 216.85,-85.69 205.93,-83.39 196.17,-81"/>
<polygon fill="midnightblue" stroke="midnightblue" points="2146.91,-135.77 2156.89,-132.22 2146.88,-128.77 2146.91,-135.77"/>
</g>
<!-- Node8 -->
<g id="node8" class="node">
<title>Node8</title>
<g id="a_node8"><a xlink:href="vdp_8c.html" target="_top" xlink:title="Copyright (c) 2021 Daishi Mori (mori0091)">
<polygon fill="none" stroke="black" points="236,-62 236,-81 292,-81 292,-62 236,-62"/>
<text text-anchor="middle" x="264" y="-69" font-family="Helvetica,sans-Serif" font-size="10.00">src/vdp.c</text>
</a>
</g>
</g>
<!-- Node3&#45;&gt;Node8 -->
<g id="edge9" class="edge">
<title>Node3&#45;&gt;Node8</title>
<path fill="none" stroke="midnightblue" d="M2146.61,-131.86C1871.6,-130.92 486.64,-124.37 301,-87 294.64,-85.72 287.96,-83.43 282.06,-81.03"/>
<polygon fill="midnightblue" stroke="midnightblue" points="2146.65,-135.36 2156.66,-131.89 2146.67,-128.36 2146.65,-135.36"/>
</g>
<!-- Node9 -->
<g id="node9" class="node">
<title>Node9</title>
<g id="a_node9"><a xlink:href="vdp__cmd__execute__HMMM_8c.html" target="_top" xlink:title="Copyright (c) 2021 Daishi Mori (mori0091)">
<polygon fill="none" stroke="black" points="310,-56.5 310,-86.5 422,-86.5 422,-56.5 310,-56.5"/>
<text text-anchor="start" x="318" y="-74.5" font-family="Helvetica,sans-Serif" font-size="10.00">src/vdp_cmd_execute</text>
<text text-anchor="middle" x="366" y="-63.5" font-family="Helvetica,sans-Serif" font-size="10.00">_HMMM.c</text>
</a>
</g>
</g>
<!-- Node3&#45;&gt;Node9 -->
<g id="edge10" class="edge">
<title>Node3&#45;&gt;Node9</title>
<path fill="none" stroke="midnightblue" d="M2146.54,-132.03C1901.42,-132.02 776.84,-129.58 431,-87 428.13,-86.65 425.2,-86.22 422.25,-85.75"/>
<polygon fill="midnightblue" stroke="midnightblue" points="2146.89,-135.53 2156.89,-132.03 2146.89,-128.53 2146.89,-135.53"/>
</g>
<!-- Node10 -->
<g id="node10" class="node">
<title>Node10</title>
<g id="a_node10"><a xlink:href="vdp__cmd__execute__HMMV_8c.html" target="_top" xlink:title="Copyright (c) 2021 Daishi Mori (mori0091)">
<polygon fill="none" stroke="black" points="440,-56.5 440,-86.5 552,-86.5 552,-56.5 440,-56.5"/>
<text text-anchor="start" x="448" y="-74.5" font-family="Helvetica,sans-Serif" font-size="10.00">src/vdp_cmd_execute</text>
<text text-anchor="middle" x="496" y="-63.5" font-family="Helvetica,sans-Serif" font-size="10.00">_HMMV.c</text>
</a>
</g>
</g>
<!-- Node3&#45;&gt;Node10 -->
<g id="edge11" class="edge">
<title>Node3&#45;&gt;Node10</title>
<path fill="none" stroke="midnightblue" d="M2146.7,-131.92C1912.96,-131.35 879.77,-126.58 561,-87 558.13,-86.64 555.2,-86.22 552.25,-85.74"/>
<polygon fill="midnightblue" stroke="midnightblue" points="2146.9,-135.42 2156.9,-131.95 2146.91,-128.42 2146.9,-135.42"/>
</g>
<!-- Node11 -->
<g id="node11" class="node">
<title>Node11</title>
<g id="a_node11"><a xlink:href="vdp__cmd__execute__LMMM_8c.html" target="_top" xlink:title="Copyright (c) 2021 Daishi Mori (mori0091)">
<polygon fill="none" stroke="black" points="570,-56.5 570,-86.5 682,-86.5 682,-56.5 570,-56.5"/>
<text text-anchor="start" x="578" y="-74.5" font-family="Helvetica,sans-Serif" font-size="10.00">src/vdp_cmd_execute</text>
<text text-anchor="middle" x="626" y="-63.5" font-family="Helvetica,sans-Serif" font-size="10.00">_LMMM.c</text>
</a>
</g>
</g>
<!-- Node3&#45;&gt;Node11 -->
<g id="edge12" class="edge">
<title>Node3&#45;&gt;Node11</title>
<path fill="none" stroke="midnightblue" d="M2146.92,-131.79C1925.11,-130.63 982.79,-123.58 691,-87 688.13,-86.64 685.2,-86.21 682.26,-85.73"/>
<polygon fill="midnightblue" stroke="midnightblue" points="2146.92,-135.29 2156.94,-131.84 2146.96,-128.29 2146.92,-135.29"/>
</g>
<!-- Node12 -->
<g id="node12" class="node">
<title>Node12</title>
<g id="a_node12"><a xlink:href="vdp__cmd__execute__LMMV_8c.html" target="_top" xlink:title="Copyright (c) 2021 Daishi Mori (mori0091)">
<polygon fill="none" stroke="black" points="700,-56.5 700,-86.5 812,-86.5 812,-56.5 700,-56.5"/>
<text text-anchor="start" x="708" y="-74.5" font-family="Helvetica,sans-Serif" font-size="10.00">src/vdp_cmd_execute</text>
<text text-anchor="middle" x="756" y="-63.5" font-family="Helvetica,sans-Serif" font-size="10.00">_LMMV.c</text>
</a>
</g>
</g>
<!-- Node3&#45;&gt;Node12 -->
<g id="edge13" class="edge">
<title>Node3&#45;&gt;Node12</title>
<path fill="none" stroke="midnightblue" d="M2146.68,-131.61C1936.55,-129.72 1086.53,-120.11 822,-87 818.74,-86.59 815.4,-86.1 812.05,-85.55"/>
<polygon fill="midnightblue" stroke="midnightblue" points="2146.74,-135.11 2156.77,-131.7 2146.81,-128.11 2146.74,-135.11"/>
</g>
<!-- Node13 -->
<g id="node13" class="node">
<title>Node13</title>
<g id="a_node13"><a xlink:href="vdp__cmd__set__unrestricted_8c.html" target="_top" xlink:title="Copyright (c) 2021 Daishi Mori (mori0091)">
<polygon fill="none" stroke="black" points="830.5,-62 830.5,-81 985.5,-81 985.5,-62 830.5,-62"/>
<text text-anchor="middle" x="908" y="-69" font-family="Helvetica,sans-Serif" font-size="10.00">src/vdp_cmd_set_unrestricted.c</text>
</a>
</g>
</g>
<!-- Node3&#45;&gt;Node13 -->
<g id="edge14" class="edge">
<title>Node3&#45;&gt;Node13</title>
<path fill="none" stroke="midnightblue" d="M2146.49,-132.39C1984.8,-133.25 1441.13,-132.36 995,-87 981.14,-85.59 966.14,-83.35 952.56,-81.05"/>
<polygon fill="midnightblue" stroke="midnightblue" points="2146.61,-135.89 2156.58,-132.33 2146.56,-128.89 2146.61,-135.89"/>
</g>
<!-- Node14 -->
<g id="node14" class="node">
<title>Node14</title>
<g id="a_node14"><a xlink:href="vdp__get__sprite__mode_8c.html" target="_top" xlink:title="Copyright (c) 2021 Daishi Mori (mori0091)">
<polygon fill="none" stroke="black" points="1003.5,-56.5 1003.5,-86.5 1100.5,-86.5 1100.5,-56.5 1003.5,-56.5"/>
<text text-anchor="start" x="1011.5" y="-74.5" font-family="Helvetica,sans-Serif" font-size="10.00">src/vdp_get_sprite</text>
<text text-anchor="middle" x="1052" y="-63.5" font-family="Helvetica,sans-Serif" font-size="10.00">_mode.c</text>
</a>
</g>
</g>
<!-- Node3&#45;&gt;Node14 -->
<g id="edge15" class="edge">
<title>Node3&#45;&gt;Node14</title>
<path fill="none" stroke="midnightblue" d="M2146.93,-131.32C1965.93,-128.51 1314.71,-116.52 1110,-87 1106.92,-86.56 1103.76,-86.02 1100.59,-85.41"/>
<polygon fill="midnightblue" stroke="midnightblue" points="2146.88,-134.82 2156.93,-131.47 2146.99,-127.82 2146.88,-134.82"/>
</g>
<!-- Node15 -->
<g id="node15" class="node">
<title>Node15</title>
<g id="a_node15"><a xlink:href="vdp__get__status_8c.html" target="_top" xlink:title="Copyright (c) 2021 Daishi Mori (mori0091)">
<polygon fill="none" stroke="black" points="1118.5,-62 1118.5,-81 1225.5,-81 1225.5,-62 1118.5,-62"/>
<text text-anchor="middle" x="1172" y="-69" font-family="Helvetica,sans-Serif" font-size="10.00">src/vdp_get_status.c</text>
</a>
</g>
</g>
<!-- Node3&#45;&gt;Node15 -->
<g id="edge16" class="edge">
<title>Node3&#45;&gt;Node15</title>
<path fill="none" stroke="midnightblue" d="M2146.7,-130.9C1979.14,-126.85 1414.24,-111.63 1235,-87 1224.88,-85.61 1214,-83.38 1204.17,-81.07"/>
<polygon fill="midnightblue" stroke="midnightblue" points="2146.85,-134.41 2156.93,-131.15 2147.01,-127.41 2146.85,-134.41"/>
</g>
<!-- Node16 -->
<g id="node16" class="node">
<title>Node16</title>
<g id="a_node16"><a xlink:href="vdp__set__adjust_8c.html" target="_top" xlink:title="Copyright (c) 2021 Daishi Mori (mori0091)">
<polygon fill="none" stroke="black" points="1243.5,-62 1243.5,-81 1350.5,-81 1350.5,-62 1243.5,-62"/>
<text text-anchor="middle" x="1297" y="-69" font-family="Helvetica,sans-Serif" font-size="10.00">src/vdp_set_adjust.c</text>
</a>
</g>
</g>
<!-- Node3&#45;&gt;Node16 -->
<g id="edge17" class="edge">
<title>Node3&#45;&gt;Node16</title>
<path fill="none" stroke="midnightblue" d="M2146.57,-132.29C2018.83,-132.46 1657.12,-128.89 1360,-87 1349.89,-85.57 1339,-83.33 1329.17,-81.03"/>
<polygon fill="midnightblue" stroke="midnightblue" points="2146.79,-135.79 2156.79,-132.27 2146.78,-128.79 2146.79,-135.79"/>
</g>
<!-- Node17 -->
<g id="node17" class="node">
<title>Node17</title>
<g id="a_node17"><a xlink:href="vdp__set__color_8c.html" target="_top" xlink:title="Copyright (c) 2021 Daishi Mori (mori0091)">
<polygon fill="none" stroke="black" points="1368.5,-62 1368.5,-81 1469.5,-81 1469.5,-62 1368.5,-62"/>
<text text-anchor="middle" x="1419" y="-69" font-family="Helvetica,sans-Serif" font-size="10.00">src/vdp_set_color.c</text>
</a>
</g>
</g>
<!-- Node3&#45;&gt;Node17 -->
<g id="edge18" class="edge">
<title>Node3&#45;&gt;Node17</title>
<path fill="none" stroke="midnightblue" d="M2146.71,-131.86C2031.71,-130.91 1728.55,-124.71 1479,-87 1469.46,-85.56 1459.22,-83.34 1449.94,-81.07"/>
<polygon fill="midnightblue" stroke="midnightblue" points="2146.9,-135.36 2156.92,-131.94 2146.95,-128.36 2146.9,-135.36"/>
</g>
<!-- Node18 -->
<g id="node18" class="node">
<title>Node18</title>
<g id="a_node18"><a xlink:href="vdp__set__color__table_8c.html" target="_top" xlink:title="Copyright (c) 2021 Daishi Mori (mori0091)">
<polygon fill="none" stroke="black" points="1488,-62 1488,-81 1616,-81 1616,-62 1488,-62"/>
<text text-anchor="middle" x="1552" y="-69" font-family="Helvetica,sans-Serif" font-size="10.00">src/vdp_set_color_table.c</text>
</a>
</g>
</g>
<!-- Node3&#45;&gt;Node18 -->
<g id="edge19" class="edge">
<title>Node3&#45;&gt;Node18</title>
<path fill="none" stroke="midnightblue" d="M2146.74,-130.14C2048.97,-125.87 1817.49,-113.64 1625,-87 1613.74,-85.44 1601.59,-83.24 1590.5,-81.02"/>
<polygon fill="midnightblue" stroke="midnightblue" points="2146.75,-133.64 2156.89,-130.57 2147.05,-126.65 2146.75,-133.64"/>
</g>
<!-- Node19 -->
<g id="node19" class="node">
<title>Node19</title>
<g id="a_node19"><a xlink:href="vdp__set__control_8c.html" target="_top" xlink:title="Copyright (c) 2021 Daishi Mori (mori0091)">
<polygon fill="none" stroke="black" points="1634,-62 1634,-81 1744,-81 1744,-62 1634,-62"/>
<text text-anchor="middle" x="1689" y="-69" font-family="Helvetica,sans-Serif" font-size="10.00">src/vdp_set_control.c</text>
</a>
</g>
</g>
<!-- Node3&#45;&gt;Node19 -->
<g id="edge20" class="edge">
<title>Node3&#45;&gt;Node19</title>
<path fill="none" stroke="midnightblue" d="M2146.36,-128.97C2065.37,-123.41 1895.82,-109.99 1754,-87 1744.07,-85.39 1733.38,-83.2 1723.6,-81.01"/>
<polygon fill="midnightblue" stroke="midnightblue" points="2146.51,-132.49 2156.72,-129.67 2146.98,-125.51 2146.51,-132.49"/>
</g>
<!-- Node20 -->
<g id="node20" class="node">
<title>Node20</title>
<g id="a_node20"><a xlink:href="vdp__set__hscroll_8c.html" target="_top" xlink:title="Copyright (c) 2021 Daishi Mori (mori0091)">
<polygon fill="none" stroke="black" points="1762.5,-62 1762.5,-81 1871.5,-81 1871.5,-62 1762.5,-62"/>
<text text-anchor="middle" x="1817" y="-69" font-family="Helvetica,sans-Serif" font-size="10.00">src/vdp_set_hscroll.c</text>
</a>
</g>
</g>
<!-- Node3&#45;&gt;Node20 -->
<g id="edge21" class="edge">
<title>Node3&#45;&gt;Node20</title>
<path fill="none" stroke="midnightblue" d="M2146.58,-126.38C2085.09,-118.82 1974.64,-104.31 1881,-87 1871.7,-85.28 1861.71,-83.15 1852.44,-81.06"/>
<polygon fill="midnightblue" stroke="midnightblue" points="2146.39,-129.89 2156.74,-127.62 2147.24,-122.94 2146.39,-129.89"/>
</g>
<!-- Node21 -->
<g id="node21" class="node">
<title>Node21</title>
<g id="a_node21"><a xlink:href="vdp__set__hscroll__dual__page_8c.html" target="_top" xlink:title="Copyright (c) 2021 Daishi Mori (mori0091)">
<polygon fill="none" stroke="black" points="1889.5,-56.5 1889.5,-86.5 1990.5,-86.5 1990.5,-56.5 1889.5,-56.5"/>
<text text-anchor="start" x="1897.5" y="-74.5" font-family="Helvetica,sans-Serif" font-size="10.00">src/vdp_set_hscroll</text>
<text text-anchor="middle" x="1940" y="-63.5" font-family="Helvetica,sans-Serif" font-size="10.00">_dual_page.c</text>
</a>
</g>
</g>
<!-- Node3&#45;&gt;Node21 -->
<g id="edge22" class="edge">
<title>Node3&#45;&gt;Node21</title>
<path fill="none" stroke="midnightblue" d="M2146.95,-121.21C2107.65,-112.17 2050.14,-98.87 2000,-87 1996.98,-86.28 1993.87,-85.54 1990.73,-84.79"/>
<polygon fill="midnightblue" stroke="midnightblue" points="2146.26,-124.65 2156.79,-123.47 2147.82,-117.82 2146.26,-124.65"/>
</g>
<!-- Node22 -->
<g id="node22" class="node">
<title>Node22</title>
<g id="a_node22"><a xlink:href="vdp__set__hscroll__mask_8c.html" target="_top" xlink:title="Copyright (c) 2021 Daishi Mori (mori0091)">
<polygon fill="none" stroke="black" points="2008.5,-56.5 2008.5,-86.5 2109.5,-86.5 2109.5,-56.5 2008.5,-56.5"/>
<text text-anchor="start" x="2016.5" y="-74.5" font-family="Helvetica,sans-Serif" font-size="10.00">src/vdp_set_hscroll</text>
<text text-anchor="middle" x="2059" y="-63.5" font-family="Helvetica,sans-Serif" font-size="10.00">_mask.c</text>
</a>
</g>
</g>
<!-- Node3&#45;&gt;Node22 -->
<g id="edge23" class="edge">
<title>Node3&#45;&gt;Node22</title>
<path fill="none" stroke="midnightblue" d="M2165.25,-119.33C2143.41,-109.7 2113.38,-96.47 2090.82,-86.52"/>
<polygon fill="midnightblue" stroke="midnightblue" points="2164.1,-122.64 2174.66,-123.48 2166.92,-116.24 2164.1,-122.64"/>
</g>
<!-- Node23 -->
<g id="node23" class="node">
<title>Node23</title>
<g id="a_node23"><a xlink:href="vdp__set__image__table_8c.html" target="_top" xlink:title="Copyright (c) 2021 Daishi Mori (mori0091)">
<polygon fill="none" stroke="black" points="2127.5,-62 2127.5,-81 2260.5,-81 2260.5,-62 2127.5,-62"/>
<text text-anchor="middle" x="2194" y="-69" font-family="Helvetica,sans-Serif" font-size="10.00">src/vdp_set_image_table.c</text>
</a>
</g>
</g>
<!-- Node3&#45;&gt;Node23 -->
<g id="edge24" class="edge">
<title>Node3&#45;&gt;Node23</title>
<path fill="none" stroke="midnightblue" d="M2194,-113.32C2194,-102.5 2194,-89.4 2194,-81.01"/>
<polygon fill="midnightblue" stroke="midnightblue" points="2190.5,-113.48 2194,-123.48 2197.5,-113.48 2190.5,-113.48"/>
</g>
<!-- Node24 -->
<g id="node24" class="node">
<title>Node24</title>
<g id="a_node24"><a xlink:href="vdp__set__palette_8c.html" target="_top" xlink:title="Copyright (c) 2021 Daishi Mori (mori0091)">
<polygon fill="none" stroke="black" points="2279,-62 2279,-81 2389,-81 2389,-62 2279,-62"/>
<text text-anchor="middle" x="2334" y="-69" font-family="Helvetica,sans-Serif" font-size="10.00">src/vdp_set_palette.c</text>
</a>
</g>
</g>
<!-- Node3&#45;&gt;Node24 -->
<g id="edge25" class="edge">
<title>Node3&#45;&gt;Node24</title>
<path fill="none" stroke="midnightblue" d="M2223.46,-119.48C2250.65,-107.92 2290.29,-91.08 2313.98,-81.01"/>
<polygon fill="midnightblue" stroke="midnightblue" points="2221.89,-116.34 2214.06,-123.48 2224.63,-122.78 2221.89,-116.34"/>
</g>
<!-- Node25 -->
<g id="node25" class="node">
<title>Node25</title>
<g id="a_node25"><a xlink:href="vdp__set__pattern__table_8c.html" target="_top" xlink:title="Copyright (c) 2021 Daishi Mori (mori0091)">
<polygon fill="none" stroke="black" points="2407.5,-56.5 2407.5,-86.5 2510.5,-86.5 2510.5,-56.5 2407.5,-56.5"/>
<text text-anchor="start" x="2415.5" y="-74.5" font-family="Helvetica,sans-Serif" font-size="10.00">src/vdp_set_pattern</text>
<text text-anchor="middle" x="2459" y="-63.5" font-family="Helvetica,sans-Serif" font-size="10.00">_table.c</text>
</a>
</g>
</g>
<!-- Node3&#45;&gt;Node25 -->
<g id="edge26" class="edge">
<title>Node3&#45;&gt;Node25</title>
<path fill="none" stroke="midnightblue" d="M2241.07,-121.84C2282.45,-112.86 2344.28,-99.31 2398,-87 2401.08,-86.29 2404.24,-85.56 2407.43,-84.82"/>
<polygon fill="midnightblue" stroke="midnightblue" points="2240.3,-118.43 2231.27,-123.97 2241.78,-125.27 2240.3,-118.43"/>
</g>
<!-- Node26 -->
<g id="node26" class="node">
<title>Node26</title>
<g id="a_node26"><a xlink:href="vdp__set__screen__lines_8c.html" target="_top" xlink:title="Copyright (c) 2021 Daishi Mori (mori0091)">
<polygon fill="none" stroke="black" points="2529,-56.5 2529,-86.5 2631,-86.5 2631,-56.5 2529,-56.5"/>
<text text-anchor="start" x="2537" y="-74.5" font-family="Helvetica,sans-Serif" font-size="10.00">src/vdp_set_screen</text>
<text text-anchor="middle" x="2580" y="-63.5" font-family="Helvetica,sans-Serif" font-size="10.00">_lines.c</text>
</a>
</g>
</g>
<!-- Node3&#45;&gt;Node26 -->
<g id="edge27" class="edge">
<title>Node3&#45;&gt;Node26</title>
<path fill="none" stroke="midnightblue" d="M2241.04,-122.93C2365.58,-103.27 2399.75,-109.19 2520,-87 2522.85,-86.47 2525.76,-85.9 2528.69,-85.29"/>
<polygon fill="midnightblue" stroke="midnightblue" points="2240.44,-119.48 2231.12,-124.52 2241.55,-126.4 2240.44,-119.48"/>
</g>
<!-- Node27 -->
<g id="node27" class="node">
<title>Node27</title>
<g id="a_node27"><a xlink:href="vdp__set__screen__mode_8c.html" target="_top" xlink:title="Copyright (c) 2021 Daishi Mori (mori0091)">
<polygon fill="none" stroke="black" points="2649,-56.5 2649,-86.5 2751,-86.5 2751,-56.5 2649,-56.5"/>
<text text-anchor="start" x="2657" y="-74.5" font-family="Helvetica,sans-Serif" font-size="10.00">src/vdp_set_screen</text>
<text text-anchor="middle" x="2700" y="-63.5" font-family="Helvetica,sans-Serif" font-size="10.00">_mode.c</text>
</a>
</g>
</g>
<!-- Node3&#45;&gt;Node27 -->
<g id="edge28" class="edge">
<title>Node3&#45;&gt;Node27</title>
<path fill="none" stroke="midnightblue" d="M2241.03,-123C2418.46,-98.47 2467.06,-115.52 2640,-87 2642.85,-86.53 2645.78,-86 2648.71,-85.42"/>
<polygon fill="midnightblue" stroke="midnightblue" points="2240.52,-119.54 2231.1,-124.4 2241.49,-126.47 2240.52,-119.54"/>
</g>
<!-- Node28 -->
<g id="node28" class="node">
<title>Node28</title>
<g id="a_node28"><a xlink:href="vdp__set__sprite__attribute__table_8c.html" target="_top" xlink:title="Copyright (c) 2021 Daishi Mori (mori0091)">
<polygon fill="none" stroke="black" points="2768.5,-56.5 2768.5,-86.5 2865.5,-86.5 2865.5,-56.5 2768.5,-56.5"/>
<text text-anchor="start" x="2776.5" y="-74.5" font-family="Helvetica,sans-Serif" font-size="10.00">src/vdp_set_sprite</text>
<text text-anchor="middle" x="2817" y="-63.5" font-family="Helvetica,sans-Serif" font-size="10.00">_attribute_table.c</text>
</a>
</g>
</g>
<!-- Node3&#45;&gt;Node28 -->
<g id="edge29" class="edge">
<title>Node3&#45;&gt;Node28</title>
<path fill="none" stroke="midnightblue" d="M2241.12,-123.03C2471.45,-93.57 2534.5,-123.19 2760,-87 2762.72,-86.56 2765.5,-86.06 2768.3,-85.5"/>
<polygon fill="midnightblue" stroke="midnightblue" points="2240.56,-119.57 2231.09,-124.33 2241.46,-126.51 2240.56,-119.57"/>
</g>
<!-- Node29 -->
<g id="node29" class="node">
<title>Node29</title>
<g id="a_node29"><a xlink:href="vdp__set__sprite__pattern__table_8c.html" target="_top" xlink:title="Copyright (c) 2021 Daishi Mori (mori0091)">
<polygon fill="none" stroke="black" points="2883.5,-56.5 2883.5,-86.5 2980.5,-86.5 2980.5,-56.5 2883.5,-56.5"/>
<text text-anchor="start" x="2891.5" y="-74.5" font-family="Helvetica,sans-Serif" font-size="10.00">src/vdp_set_sprite</text>
<text text-anchor="middle" x="2932" y="-63.5" font-family="Helvetica,sans-Serif" font-size="10.00">_pattern_table.c</text>
</a>
</g>
</g>
<!-- Node3&#45;&gt;Node29 -->
<g id="edge30" class="edge">
<title>Node3&#45;&gt;Node29</title>
<path fill="none" stroke="midnightblue" d="M2241.17,-123.04C2522.26,-88.76 2598.89,-129.54 2875,-87 2877.72,-86.58 2880.51,-86.09 2883.31,-85.54"/>
<polygon fill="midnightblue" stroke="midnightblue" points="2240.58,-119.59 2231.09,-124.29 2241.44,-126.53 2240.58,-119.59"/>
</g>
<!-- Node30 -->
<g id="node30" class="node">
<title>Node30</title>
<g id="a_node30"><a xlink:href="vdp__set__sprite__size_8c.html" target="_top" xlink:title="Copyright (c) 2021 Daishi Mori (mori0091)">
<polygon fill="none" stroke="black" points="2998.5,-56.5 2998.5,-86.5 3095.5,-86.5 3095.5,-56.5 2998.5,-56.5"/>
<text text-anchor="start" x="3006.5" y="-74.5" font-family="Helvetica,sans-Serif" font-size="10.00">src/vdp_set_sprite</text>
<text text-anchor="middle" x="3047" y="-63.5" font-family="Helvetica,sans-Serif" font-size="10.00">_size.c</text>
</a>
</g>
</g>
<!-- Node3&#45;&gt;Node30 -->
<g id="edge31" class="edge">
<title>Node3&#45;&gt;Node30</title>
<path fill="none" stroke="midnightblue" d="M2241.47,-123.02C2573.14,-83.94 2663.34,-135.88 2990,-87 2992.73,-86.59 2995.51,-86.11 2998.31,-85.57"/>
<polygon fill="midnightblue" stroke="midnightblue" points="2240.6,-119.6 2231.08,-124.26 2241.43,-126.55 2240.6,-119.6"/>
</g>
<!-- Node31 -->
<g id="node31" class="node">
<title>Node31</title>
<g id="a_node31"><a xlink:href="vdp__set__sprite__visible_8c.html" target="_top" xlink:title="Copyright (c) 2021 Daishi Mori (mori0091)">
<polygon fill="none" stroke="black" points="3113.5,-56.5 3113.5,-86.5 3210.5,-86.5 3210.5,-56.5 3113.5,-56.5"/>
<text text-anchor="start" x="3121.5" y="-74.5" font-family="Helvetica,sans-Serif" font-size="10.00">src/vdp_set_sprite</text>
<text text-anchor="middle" x="3162" y="-63.5" font-family="Helvetica,sans-Serif" font-size="10.00">_visible.c</text>
</a>
</g>
</g>
<!-- Node3&#45;&gt;Node31 -->
<g id="edge32" class="edge">
<title>Node3&#45;&gt;Node31</title>
<path fill="none" stroke="midnightblue" d="M2241.04,-123.08C2623.89,-79.03 2727.53,-142.25 3105,-87 3107.73,-86.6 3110.51,-86.12 3113.32,-85.59"/>
<polygon fill="midnightblue" stroke="midnightblue" points="2240.61,-119.61 2231.08,-124.24 2241.42,-126.56 2240.61,-119.61"/>
</g>
<!-- Node32 -->
<g id="node32" class="node">
<title>Node32</title>
<g id="a_node32"><a xlink:href="vdp__set__visible_8c.html" target="_top" xlink:title="Copyright (c) 2021 Daishi Mori (mori0091)">
<polygon fill="none" stroke="black" points="3229,-62 3229,-81 3337,-81 3337,-62 3229,-62"/>
<text text-anchor="middle" x="3283" y="-69" font-family="Helvetica,sans-Serif" font-size="10.00">src/vdp_set_visible.c</text>
</a>
</g>
</g>
<!-- Node3&#45;&gt;Node32 -->
<g id="edge33" class="edge">
<title>Node3&#45;&gt;Node32</title>
<path fill="none" stroke="midnightblue" d="M2241.06,-123.09C2674.73,-74.07 2791.18,-143.7 3220,-87 3230.24,-85.65 3241.25,-83.39 3251.16,-81.06"/>
<polygon fill="midnightblue" stroke="midnightblue" points="2240.62,-119.61 2231.08,-124.23 2241.41,-126.57 2240.62,-119.61"/>
</g>
<!-- Node33 -->
<g id="node33" class="node">
<title>Node33</title>
<g id="a_node33"><a xlink:href="vdp__set__vscroll_8c.html" target="_top" xlink:title="Copyright (c) 2021 Daishi Mori (mori0091)">
<polygon fill="none" stroke="black" points="3355.5,-62 3355.5,-81 3464.5,-81 3464.5,-62 3355.5,-62"/>
<text text-anchor="middle" x="3410" y="-69" font-family="Helvetica,sans-Serif" font-size="10.00">src/vdp_set_vscroll.c</text>
</a>
</g>
</g>
<!-- Node3&#45;&gt;Node33 -->
<g id="edge34" class="edge">
<title>Node3&#45;&gt;Node33</title>
<path fill="none" stroke="midnightblue" d="M2241.23,-123.07C2730.47,-68.72 2861.52,-149.19 3346,-87 3356.51,-85.65 3367.83,-83.37 3377.98,-81.01"/>
<polygon fill="midnightblue" stroke="midnightblue" points="2240.62,-119.62 2231.08,-124.21 2241.41,-126.58 2240.62,-119.62"/>
</g>
<!-- Node34 -->
<g id="node34" class="node">
<title>Node34</title>
<g id="a_node34"><a xlink:href="vdp__write__control_8c.html" target="_top" xlink:title="Copyright (c) 2021 Daishi Mori (mori0091)">
<polygon fill="none" stroke="black" points="3482.5,-62 3482.5,-81 3599.5,-81 3599.5,-62 3482.5,-62"/>
<text text-anchor="middle" x="3541" y="-69" font-family="Helvetica,sans-Serif" font-size="10.00">src/vdp_write_control.c</text>
</a>
</g>
</g>
<!-- Node3&#45;&gt;Node34 -->
<g id="edge35" class="edge">
<title>Node3&#45;&gt;Node34</title>
<path fill="none" stroke="midnightblue" d="M2241.18,-123.08C2787.06,-63.23 2932.67,-152.9 3474,-87 3484.99,-85.66 3496.83,-83.38 3507.46,-81.02"/>
<polygon fill="midnightblue" stroke="midnightblue" points="2240.63,-119.62 2231.08,-124.2 2241.4,-126.58 2240.63,-119.62"/>
</g>
<!-- Node35 -->
<g id="node35" class="node">
<title>Node35</title>
<g id="a_node35"><a xlink:href="vdp__write__palette_8c.html" target="_top" xlink:title="Copyright (c) 2021 Daishi Mori (mori0091)">
<polygon fill="none" stroke="black" points="3617.5,-62 3617.5,-81 3734.5,-81 3734.5,-62 3617.5,-62"/>
<text text-anchor="middle" x="3676" y="-69" font-family="Helvetica,sans-Serif" font-size="10.00">src/vdp_write_palette.c</text>
</a>
</g>
</g>
<!-- Node3&#45;&gt;Node35 -->
<g id="edge36" class="edge">
<title>Node3&#45;&gt;Node35</title>
<path fill="none" stroke="midnightblue" d="M2241.37,-123.07C2846.8,-57.49 3008.09,-159.28 3609,-87 3619.99,-85.68 3631.84,-83.4 3642.47,-81.04"/>
<polygon fill="midnightblue" stroke="midnightblue" points="2240.64,-119.63 2231.08,-124.19 2241.4,-126.59 2240.64,-119.63"/>
</g>
<!-- Node36 -->
<g id="node36" class="node">
<title>Node36</title>
<g id="a_node36"><a xlink:href="vmem__memset_8c.html" target="_top" xlink:title="Copyright (c) 2021 Daishi Mori (mori0091)">
<polygon fill="none" stroke="black" points="3753,-62 3753,-81 3861,-81 3861,-62 3753,-62"/>
<text text-anchor="middle" x="3807" y="-69" font-family="Helvetica,sans-Serif" font-size="10.00">src/vmem_memset.c</text>
</a>
</g>
</g>
<!-- Node3&#45;&gt;Node36 -->
<g id="edge37" class="edge">
<title>Node3&#45;&gt;Node36</title>
<path fill="none" stroke="midnightblue" d="M2241.4,-123.07C2906.52,-51.77 3083.99,-169.98 3744,-87 3754.36,-85.7 3765.5,-83.43 3775.5,-81.07"/>
<polygon fill="midnightblue" stroke="midnightblue" points="2240.64,-119.63 2231.07,-124.19 2241.39,-126.59 2240.64,-119.63"/>
</g>
<!-- Node37 -->
<g id="node37" class="node">
<title>Node37</title>
<g id="a_node37"><a xlink:href="vmem__read_8c.html" target="_top" xlink:title="Copyright (c) 2021 Daishi Mori (mori0091)">
<polygon fill="none" stroke="black" points="3879,-62 3879,-81 3971,-81 3971,-62 3879,-62"/>
<text text-anchor="middle" x="3925" y="-69" font-family="Helvetica,sans-Serif" font-size="10.00">src/vmem_read.c</text>
</a>
</g>
</g>
<!-- Node3&#45;&gt;Node37 -->
<g id="edge38" class="edge">
<title>Node3&#45;&gt;Node37</title>
<path fill="none" stroke="midnightblue" d="M2241.21,-123.12C2616.63,-85.03 3514.47,-137.08 3870,-87 3879.19,-85.71 3889.05,-83.41 3897.84,-81.02"/>
<polygon fill="midnightblue" stroke="midnightblue" points="2240.65,-119.66 2231.07,-124.18 2241.38,-126.62 2240.65,-119.66"/>
</g>
<!-- Node38 -->
<g id="node38" class="node">
<title>Node38</title>
<g id="a_node38"><a xlink:href="vmem__set__read__address_8c.html" target="_top" xlink:title="Copyright (c) 2021 Daishi Mori (mori0091)">
<polygon fill="none" stroke="black" points="3989,-62 3989,-81 4139,-81 4139,-62 3989,-62"/>
<text text-anchor="middle" x="4064" y="-69" font-family="Helvetica,sans-Serif" font-size="10.00">src/vmem_set_read_address.c</text>
</a>
</g>
</g>
<!-- Node3&#45;&gt;Node38 -->
<g id="edge39" class="edge">
<title>Node3&#45;&gt;Node38</title>
<path fill="none" stroke="midnightblue" d="M2241.3,-123.08C3010.86,-41.49 3213.43,-160.67 3980,-87 3993.7,-85.68 4008.53,-83.41 4021.87,-81.05"/>
<polygon fill="midnightblue" stroke="midnightblue" points="2240.64,-119.63 2231.07,-124.18 2241.39,-126.59 2240.64,-119.63"/>
</g>
<!-- Node39 -->
<g id="node39" class="node">
<title>Node39</title>
<g id="a_node39"><a xlink:href="vmem__set__sprite__color__s_8c.html" target="_top" xlink:title="Copyright (c) 2021 Daishi Mori (mori0091)">
<polygon fill="none" stroke="black" points="4157,-56.5 4157,-86.5 4265,-86.5 4265,-56.5 4157,-56.5"/>
<text text-anchor="start" x="4165" y="-74.5" font-family="Helvetica,sans-Serif" font-size="10.00">src/vmem_set_sprite</text>
<text text-anchor="middle" x="4211" y="-63.5" font-family="Helvetica,sans-Serif" font-size="10.00">_color_s.c</text>
</a>
</g>
</g>
<!-- Node3&#45;&gt;Node39 -->
<g id="edge40" class="edge">
<title>Node3&#45;&gt;Node39</title>
<path fill="none" stroke="midnightblue" d="M2241.28,-123.11C2678.3,-79.06 3730.39,-138.43 4148,-87 4150.9,-86.64 4153.85,-86.21 4156.83,-85.72"/>
<polygon fill="midnightblue" stroke="midnightblue" points="2240.66,-119.66 2231.07,-124.17 2241.38,-126.62 2240.66,-119.66"/>
</g>
<!-- Node40 -->
<g id="node40" class="node">
<title>Node40</title>
<g id="a_node40"><a xlink:href="vmem__set__write__address_8c.html" target="_top" xlink:title="Copyright (c) 2021 Daishi Mori (mori0091)">
<polygon fill="none" stroke="black" points="4283.5,-56.5 4283.5,-86.5 4388.5,-86.5 4388.5,-56.5 4283.5,-56.5"/>
<text text-anchor="start" x="4291.5" y="-74.5" font-family="Helvetica,sans-Serif" font-size="10.00">src/vmem_set_write</text>
<text text-anchor="middle" x="4336" y="-63.5" font-family="Helvetica,sans-Serif" font-size="10.00">_address.c</text>
</a>
</g>
</g>
<!-- Node3&#45;&gt;Node40 -->
<g id="edge41" class="edge">
<title>Node3&#45;&gt;Node40</title>
<path fill="none" stroke="midnightblue" d="M2241.25,-123.11C2706.16,-76.4 3828.67,-142.38 4274,-87 4277.07,-86.62 4280.21,-86.15 4283.37,-85.61"/>
<polygon fill="midnightblue" stroke="midnightblue" points="2240.66,-119.66 2231.07,-124.17 2241.38,-126.62 2240.66,-119.66"/>
</g>
<!-- Node41 -->
<g id="node41" class="node">
<title>Node41</title>
<g id="a_node41"><a xlink:href="vmem__write_8c.html" target="_top" xlink:title="Copyright (c) 2021 Daishi Mori (mori0091)">
<polygon fill="none" stroke="black" points="4407,-62 4407,-81 4501,-81 4501,-62 4407,-62"/>
<text text-anchor="middle" x="4454" y="-69" font-family="Helvetica,sans-Serif" font-size="10.00">src/vmem_write.c</text>
</a>
</g>
</g>
<!-- Node3&#45;&gt;Node41 -->
<g id="edge42" class="edge">
<title>Node3&#45;&gt;Node41</title>
<path fill="none" stroke="midnightblue" d="M2241.14,-123.13C2733.43,-73.83 3925.99,-151.12 4398,-87 4407.35,-85.73 4417.39,-83.44 4426.34,-81.04"/>
<polygon fill="midnightblue" stroke="midnightblue" points="2240.66,-119.66 2231.07,-124.16 2241.38,-126.62 2240.66,-119.66"/>
</g>
<!-- Node4&#45;&gt;Node2 -->
<g id="edge4" class="edge">
<title>Node4&#45;&gt;Node2</title>
<path fill="none" stroke="midnightblue" d="M138.41,-57.67C113.57,-46.13 77.77,-29.49 56.31,-19.51"/>
<polygon fill="midnightblue" stroke="midnightblue" points="137.12,-60.93 147.66,-61.98 140.07,-54.59 137.12,-60.93"/>
</g>
<!-- Node5 -->
<g id="node5" class="node">
<title>Node5</title>
<g id="a_node5"><a xlink:href="vmem__set__metasprite__a_8c.html" target="_top" xlink:title="Copyright (c) 2021 Daishi Mori (mori0091)">
<polygon fill="none" stroke="black" points="94,-0.5 94,-19.5 242,-19.5 242,-0.5 94,-0.5"/>
<text text-anchor="middle" x="168" y="-7.5" font-family="Helvetica,sans-Serif" font-size="10.00">src/vmem_set_metasprite_a.c</text>
</a>
</g>
</g>
<!-- Node4&#45;&gt;Node5 -->
<g id="edge5" class="edge">
<title>Node4&#45;&gt;Node5</title>
<path fill="none" stroke="midnightblue" d="M166.63,-51.82C166.99,-41 167.43,-27.9 167.71,-19.51"/>
<polygon fill="midnightblue" stroke="midnightblue" points="163.12,-51.86 166.29,-61.98 170.12,-52.1 163.12,-51.86"/>
</g>
<!-- Node6 -->
<g id="node6" class="node">
<title>Node6</title>
<g id="a_node6"><a xlink:href="vmem__set__metasprite__m_8c.html" target="_top" xlink:title="Copyright (c) 2021 Daishi Mori (mori0091)">
<polygon fill="none" stroke="black" points="260.5,-0.5 260.5,-19.5 411.5,-19.5 411.5,-0.5 260.5,-0.5"/>
<text text-anchor="middle" x="336" y="-7.5" font-family="Helvetica,sans-Serif" font-size="10.00">src/vmem_set_metasprite_m.c</text>
</a>
</g>
</g>
<!-- Node4&#45;&gt;Node6 -->
<g id="edge6" class="edge">
<title>Node4&#45;&gt;Node6</title>
<path fill="none" stroke="midnightblue" d="M200.05,-58.58C233.09,-47.02 282.42,-29.75 311.69,-19.51"/>
<polygon fill="midnightblue" stroke="midnightblue" points="198.64,-55.37 190.36,-61.98 200.95,-61.98 198.64,-55.37"/>
</g>
<!-- Node7 -->
<g id="node7" class="node">
<title>Node7</title>
<g id="a_node7"><a xlink:href="vmem__set__metasprite__s_8c.html" target="_top" xlink:title="Copyright (c) 2021 Daishi Mori (mori0091)">
<polygon fill="none" stroke="black" points="430,-0.5 430,-19.5 578,-19.5 578,-0.5 430,-0.5"/>
<text text-anchor="middle" x="504" y="-7.5" font-family="Helvetica,sans-Serif" font-size="10.00">src/vmem_set_metasprite_s.c</text>
</a>
</g>
</g>
<!-- Node4&#45;&gt;Node7 -->
<g id="edge7" class="edge">
<title>Node4&#45;&gt;Node7</title>
<path fill="none" stroke="midnightblue" d="M210.15,-59.61C215.8,-58.33 221.53,-57.09 227,-56 301.17,-41.18 387.26,-27.78 443.52,-19.54"/>
<polygon fill="midnightblue" stroke="midnightblue" points="209.06,-56.27 200.1,-61.93 210.63,-63.09 209.06,-56.27"/>
</g>
</g>
</svg>
