<?xml version="1.0" encoding="UTF-8" standalone="no"?>
<!DOCTYPE svg PUBLIC "-//W3C//DTD SVG 1.1//EN"
 "http://www.w3.org/Graphics/SVG/1.1/DTD/svg11.dtd">
<!-- Generated by graphviz version 3.0.0 (20221109.1736)
 -->
<!-- Title: include/bios_const.h Pages: 1 -->
<svg width="197pt" height="308pt"
 viewBox="0.00 0.00 196.50 308.00" xmlns="http://www.w3.org/2000/svg" xmlns:xlink="http://www.w3.org/1999/xlink">
<g id="graph0" class="graph" transform="scale(1 1) rotate(0) translate(4 304)">
<title>include/bios_const.h</title>
<!-- Node1 -->
<g id="node1" class="node">
<title>Node1</title>
<g id="a_node1"><a xlink:title="Constant variables in the MSX BIOS ROM.">
<polygon fill="#bfbfbf" stroke="black" points="0,-280.5 0,-299.5 105,-299.5 105,-280.5 0,-280.5"/>
<text text-anchor="middle" x="52.5" y="-287.5" font-family="Helvetica,sans-Serif" font-size="10.00">include/bios_const.h</text>
</a>
</g>
</g>
<!-- Node2 -->
<g id="node2" class="node">
<title>Node2</title>
<g id="a_node2"><a xlink:href="bios_8h.html" target="_top" xlink:title="C language I/F for MSX BIOS routines.">
<polygon fill="none" stroke="black" points="14.5,-224.5 14.5,-243.5 90.5,-243.5 90.5,-224.5 14.5,-224.5"/>
<text text-anchor="middle" x="52.5" y="-231.5" font-family="Helvetica,sans-Serif" font-size="10.00">include/bios.h</text>
</a>
</g>
</g>
<!-- Node1&#45;&gt;Node2 -->
<g id="edge1" class="edge">
<title>Node1&#45;&gt;Node2</title>
<path fill="none" stroke="midnightblue" d="M52.5,-269.8C52.5,-260.91 52.5,-250.78 52.5,-243.75"/>
<polygon fill="midnightblue" stroke="midnightblue" points="49,-270.08 52.5,-280.08 56,-270.08 49,-270.08"/>
</g>
<!-- Node3 -->
<g id="node3" class="node">
<title>Node3</title>
<g id="a_node3"><a xlink:href="msx_8h.html" target="_top" xlink:title="Using #include &lt;msx.h&gt; includes almost all C header files in libmsx, for ease to use.">
<polygon fill="none" stroke="black" points="14.5,-0.5 14.5,-19.5 90.5,-19.5 90.5,-0.5 14.5,-0.5"/>
<text text-anchor="middle" x="52.5" y="-7.5" font-family="Helvetica,sans-Serif" font-size="10.00">include/msx.h</text>
</a>
</g>
</g>
<!-- Node2&#45;&gt;Node3 -->
<g id="edge2" class="edge">
<title>Node2&#45;&gt;Node3</title>
<path fill="none" stroke="midnightblue" d="M52.5,-214.3C52.5,-168.64 52.5,-52.85 52.5,-19.88"/>
<polygon fill="midnightblue" stroke="midnightblue" points="49,-214.3 52.5,-224.3 56,-214.3 49,-214.3"/>
</g>
<!-- Node4 -->
<g id="node4" class="node">
<title>Node4</title>
<g id="a_node4"><a xlink:href="vdp_8h.html" target="_top" xlink:title="Data types and functions for VDP (Video Display Proccessor) access.">
<polygon fill="none" stroke="black" points="68.5,-112.5 68.5,-131.5 142.5,-131.5 142.5,-112.5 68.5,-112.5"/>
<text text-anchor="middle" x="105.5" y="-119.5" font-family="Helvetica,sans-Serif" font-size="10.00">include/vdp.h</text>
</a>
</g>
</g>
<!-- Node2&#45;&gt;Node4 -->
<g id="edge3" class="edge">
<title>Node2&#45;&gt;Node4</title>
<path fill="none" stroke="midnightblue" d="M56.07,-214.29C59.07,-200.93 64.08,-182.77 71.5,-168 78.45,-154.18 89.77,-140.28 97.42,-131.66"/>
<polygon fill="midnightblue" stroke="midnightblue" points="52.62,-213.71 54.02,-224.21 59.48,-215.13 52.62,-213.71"/>
</g>
<!-- Node6 -->
<g id="node6" class="node">
<title>Node6</title>
<g id="a_node6"><a xlink:href="vdp__unsafe_8h.html" target="_top" xlink:title="Unsafe primitive functions for VDP (Video Display Proccessor) access.">
<polygon fill="none" stroke="black" points="80.5,-168.5 80.5,-187.5 188.5,-187.5 188.5,-168.5 80.5,-168.5"/>
<text text-anchor="middle" x="134.5" y="-175.5" font-family="Helvetica,sans-Serif" font-size="10.00">include/vdp_unsafe.h</text>
</a>
</g>
</g>
<!-- Node2&#45;&gt;Node6 -->
<g id="edge7" class="edge">
<title>Node2&#45;&gt;Node6</title>
<path fill="none" stroke="midnightblue" d="M74.33,-218.62C89.31,-208.76 108.7,-195.99 121.36,-187.65"/>
<polygon fill="midnightblue" stroke="midnightblue" points="72.1,-215.9 65.67,-224.32 75.95,-221.75 72.1,-215.9"/>
</g>
<!-- Node4&#45;&gt;Node3 -->
<g id="edge6" class="edge">
<title>Node4&#45;&gt;Node3</title>
<path fill="none" stroke="midnightblue" d="M90.91,-104.72C84.22,-96.56 76.66,-86.26 71.5,-76 62,-57.09 56.46,-32.64 54.02,-19.79"/>
<polygon fill="midnightblue" stroke="midnightblue" points="88.27,-107.01 97.42,-112.34 93.59,-102.46 88.27,-107.01"/>
</g>
<!-- Node5 -->
<g id="node5" class="node">
<title>Node5</title>
<g id="a_node5"><a xlink:href="metasprite_8h.html" target="_top" xlink:title="Meta&#45;sprite ; an aggregate of sprites.">
<polygon fill="none" stroke="black" points="80.5,-56.5 80.5,-75.5 184.5,-75.5 184.5,-56.5 80.5,-56.5"/>
<text text-anchor="middle" x="132.5" y="-63.5" font-family="Helvetica,sans-Serif" font-size="10.00">include/metasprite.h</text>
</a>
</g>
</g>
<!-- Node4&#45;&gt;Node5 -->
<g id="edge4" class="edge">
<title>Node4&#45;&gt;Node5</title>
<path fill="none" stroke="midnightblue" d="M114.51,-102.98C119.09,-93.82 124.45,-83.09 128.12,-75.75"/>
<polygon fill="midnightblue" stroke="midnightblue" points="111.3,-101.57 109.96,-112.08 117.56,-104.7 111.3,-101.57"/>
</g>
<!-- Node5&#45;&gt;Node3 -->
<g id="edge5" class="edge">
<title>Node5&#45;&gt;Node3</title>
<path fill="none" stroke="midnightblue" d="M111.2,-50.62C96.58,-40.76 77.67,-27.99 65.32,-19.65"/>
<polygon fill="midnightblue" stroke="midnightblue" points="109.4,-53.63 119.65,-56.32 113.32,-47.83 109.4,-53.63"/>
</g>
<!-- Node6&#45;&gt;Node4 -->
<g id="edge8" class="edge">
<title>Node6&#45;&gt;Node4</title>
<path fill="none" stroke="midnightblue" d="M124.82,-158.98C119.9,-149.82 114.14,-139.09 110.2,-131.75"/>
<polygon fill="midnightblue" stroke="midnightblue" points="121.9,-160.93 129.71,-168.08 128.06,-157.62 121.9,-160.93"/>
</g>
</g>
</svg>
