<?xml version="1.0" encoding="UTF-8" standalone="no"?>
<!DOCTYPE svg PUBLIC "-//W3C//DTD SVG 1.1//EN"
 "http://www.w3.org/Graphics/SVG/1.1/DTD/svg11.dtd">
<!-- Generated by graphviz version 9.0.0 (20230911.1827)
 -->
<!-- Title: include/bios.h Pages: 1 -->
<svg width="181pt" height="248pt"
 viewBox="0.00 0.00 181.38 248.25" xmlns="http://www.w3.org/2000/svg" xmlns:xlink="http://www.w3.org/1999/xlink">
<g id="graph0" class="graph" transform="scale(1 1) rotate(0) translate(4 244.25)">
<title>include/bios.h</title>
<!-- Node1 -->
<g id="Node000001" class="node">
<title>Node1</title>
<g id="a_Node000001"><a xlink:title="C language I/F for MSX BIOS routines.">
<polygon fill="#999999" stroke="#666666" points="75.25,-240.25 0,-240.25 0,-221 75.25,-221 75.25,-240.25"/>
<text text-anchor="middle" x="37.62" y="-226.75" font-family="Helvetica,sans-Serif" font-size="10.00">include/bios.h</text>
</a>
</g>
</g>
<!-- Node2 -->
<g id="Node000002" class="node">
<title>Node2</title>
<g id="a_Node000002"><a xlink:href="msx_8h.html" target="_top" xlink:title="Using #include &lt;msx.h&gt; includes almost all C header files in libmsx, for ease to use.">
<polygon fill="white" stroke="#666666" points="75.25,-19.25 0,-19.25 0,0 75.25,0 75.25,-19.25"/>
<text text-anchor="middle" x="37.62" y="-5.75" font-family="Helvetica,sans-Serif" font-size="10.00">include/msx.h</text>
</a>
</g>
</g>
<!-- Node1&#45;&gt;Node2 -->
<g id="edge1_Node000001_Node000002" class="edge">
<title>Node1&#45;&gt;Node2</title>
<g id="a_edge1_Node000001_Node000002"><a xlink:title=" ">
<path fill="none" stroke="#63b8ff" d="M37.62,-209.36C37.62,-163.13 37.62,-51.4 37.62,-19.35"/>
<polygon fill="#63b8ff" stroke="#63b8ff" points="34.13,-209.26 37.63,-219.26 41.13,-209.26 34.13,-209.26"/>
</a>
</g>
</g>
<!-- Node3 -->
<g id="Node000003" class="node">
<title>Node3</title>
<g id="a_Node000003"><a xlink:href="vdp_8h.html" target="_top" xlink:title="Data types and functions for VDP (Video Display Proccessor) access.">
<polygon fill="white" stroke="#666666" points="127.12,-129.75 54.12,-129.75 54.12,-110.5 127.12,-110.5 127.12,-129.75"/>
<text text-anchor="middle" x="90.62" y="-116.25" font-family="Helvetica,sans-Serif" font-size="10.00">include/vdp.h</text>
</a>
</g>
</g>
<!-- Node1&#45;&gt;Node3 -->
<g id="edge2_Node000001_Node000003" class="edge">
<title>Node1&#45;&gt;Node3</title>
<g id="a_edge2_Node000001_Node000003"><a xlink:title=" ">
<path fill="none" stroke="#63b8ff" d="M41.61,-209.61C44.66,-196.65 49.56,-179.66 56.62,-165.75 63.51,-152.2 74.63,-138.6 82.26,-130.03"/>
<polygon fill="#63b8ff" stroke="#63b8ff" points="38.26,-208.57 39.56,-219.08 45.1,-210.05 38.26,-208.57"/>
</a>
</g>
</g>
<!-- Node5 -->
<g id="Node000005" class="node">
<title>Node5</title>
<g id="a_Node000005"><a xlink:href="vdp__unsafe_8h.html" target="_top" xlink:title="Unsafe primitive functions for VDP (Video Display Proccessor) access.">
<polygon fill="white" stroke="#666666" points="173.38,-185 65.88,-185 65.88,-165.75 173.38,-165.75 173.38,-185"/>
<text text-anchor="middle" x="119.62" y="-171.5" font-family="Helvetica,sans-Serif" font-size="10.00">include/vdp_unsafe.h</text>
</a>
</g>
</g>
<!-- Node1&#45;&gt;Node5 -->
<g id="edge6_Node000001_Node000005" class="edge">
<title>Node1&#45;&gt;Node5</title>
<g id="a_edge6_Node000001_Node000005"><a xlink:title=" ">
<path fill="none" stroke="#63b8ff" d="M60.83,-214.55C75.28,-205.17 93.37,-193.42 105.65,-185.45"/>
<polygon fill="#63b8ff" stroke="#63b8ff" points="59.29,-211.39 52.8,-219.77 63.1,-217.26 59.29,-211.39"/>
</a>
</g>
</g>
<!-- Node3&#45;&gt;Node2 -->
<g id="edge5_Node000003_Node000002" class="edge">
<title>Node3&#45;&gt;Node2</title>
<g id="a_edge5_Node000003_Node000002"><a xlink:title=" ">
<path fill="none" stroke="#63b8ff" d="M74.96,-101.65C68.55,-93.79 61.52,-84.13 56.62,-74.5 47.3,-56.14 41.75,-32.43 39.24,-19.69"/>
<polygon fill="#63b8ff" stroke="#63b8ff" points="72.13,-103.73 81.28,-109.07 77.45,-99.19 72.13,-103.73"/>
</a>
</g>
</g>
<!-- Node4 -->
<g id="Node000004" class="node">
<title>Node4</title>
<g id="a_Node000004"><a xlink:href="metasprite_8h.html" target="_top" xlink:title="Meta&#45;sprite ; an aggregate of sprites.">
<polygon fill="white" stroke="#666666" points="169.12,-74.5 66.12,-74.5 66.12,-55.25 169.12,-55.25 169.12,-74.5"/>
<text text-anchor="middle" x="117.62" y="-61" font-family="Helvetica,sans-Serif" font-size="10.00">include/metasprite.h</text>
</a>
</g>
</g>
<!-- Node3&#45;&gt;Node4 -->
<g id="edge3_Node000003_Node000004" class="edge">
<title>Node3&#45;&gt;Node4</title>
<g id="a_edge3_Node000003_Node000004"><a xlink:title=" ">
<path fill="none" stroke="#63b8ff" d="M100.16,-100.33C104.54,-91.67 109.55,-81.81 113.07,-74.86"/>
<polygon fill="#63b8ff" stroke="#63b8ff" points="97.17,-98.48 95.77,-108.98 103.41,-101.65 97.17,-98.48"/>
</a>
</g>
</g>
<!-- Node4&#45;&gt;Node2 -->
<g id="edge4_Node000004_Node000002" class="edge">
<title>Node4&#45;&gt;Node2</title>
<g id="a_edge4_Node000004_Node000002"><a xlink:title=" ">
<path fill="none" stroke="#63b8ff" d="M94.57,-48.53C80.55,-39.2 63.12,-27.6 51.26,-19.7"/>
<polygon fill="#63b8ff" stroke="#63b8ff" points="92.53,-51.38 102.79,-54 96.41,-45.55 92.53,-51.38"/>
</a>
</g>
</g>
<!-- Node5&#45;&gt;Node3 -->
<g id="edge7_Node000005_Node000003" class="edge">
<title>Node5&#45;&gt;Node3</title>
<g id="a_edge7_Node000005_Node000003"><a xlink:title=" ">
<path fill="none" stroke="#63b8ff" d="M109.39,-155.58C104.68,-146.92 99.3,-137.06 95.52,-130.11"/>
<polygon fill="#63b8ff" stroke="#63b8ff" points="106.26,-157.14 114.11,-164.25 112.4,-153.8 106.26,-157.14"/>
</a>
</g>
</g>
</g>
</svg>
