<?xml version="1.0" encoding="UTF-8" standalone="no"?>
<!DOCTYPE svg PUBLIC "-//W3C//DTD SVG 1.1//EN"
 "http://www.w3.org/Graphics/SVG/1.1/DTD/svg11.dtd">
<!-- Generated by graphviz version 3.0.0 (20221109.1736)
 -->
<!-- Title: include/bios_const.h Pages: 1 -->
<svg width="264pt" height="308pt"
 viewBox="0.00 0.00 264.00 308.00" xmlns="http://www.w3.org/2000/svg" xmlns:xlink="http://www.w3.org/1999/xlink">
<g id="graph0" class="graph" transform="scale(1 1) rotate(0) translate(4 304)">
<title>include/bios_const.h</title>
<!-- Node1 -->
<g id="node1" class="node">
<title>Node1</title>
<g id="a_node1"><a xlink:title="Constant variables in the MSX BIOS ROM.">
<polygon fill="#bfbfbf" stroke="black" points="52.5,-280.5 52.5,-299.5 157.5,-299.5 157.5,-280.5 52.5,-280.5"/>
<text text-anchor="middle" x="105" y="-287.5" font-family="Helvetica,sans-Serif" font-size="10.00">include/bios_const.h</text>
</a>
</g>
</g>
<!-- Node2 -->
<g id="node2" class="node">
<title>Node2</title>
<g id="a_node2"><a xlink:href="bios_8h.html" target="_top" xlink:title="C language I/F for MSX BIOS routines.">
<polygon fill="none" stroke="black" points="0,-224.5 0,-243.5 76,-243.5 76,-224.5 0,-224.5"/>
<text text-anchor="middle" x="38" y="-231.5" font-family="Helvetica,sans-Serif" font-size="10.00">include/bios.h</text>
</a>
</g>
</g>
<!-- Node1&#45;&gt;Node2 -->
<g id="edge1" class="edge">
<title>Node1&#45;&gt;Node2</title>
<path fill="none" stroke="midnightblue" d="M86.17,-273.82C74.16,-264.15 59.03,-251.95 48.96,-243.83"/>
<polygon fill="midnightblue" stroke="midnightblue" points="84.25,-276.77 94.24,-280.32 88.65,-271.32 84.25,-276.77"/>
</g>
<!-- Node7 -->
<g id="node7" class="node">
<title>Node7</title>
<g id="a_node7"><a xlink:href="workarea_8h.html" target="_top" xlink:title="Definitions of MSX SYSTEM Workarea.">
<polygon fill="none" stroke="black" points="158,-168.5 158,-187.5 256,-187.5 256,-168.5 158,-168.5"/>
<text text-anchor="middle" x="207" y="-175.5" font-family="Helvetica,sans-Serif" font-size="10.00">include/workarea.h</text>
</a>
</g>
</g>
<!-- Node1&#45;&gt;Node7 -->
<g id="edge9" class="edge">
<title>Node1&#45;&gt;Node7</title>
<path fill="none" stroke="midnightblue" d="M119.93,-272.9C141.86,-249.25 182.01,-205.95 199.03,-187.59"/>
<polygon fill="midnightblue" stroke="midnightblue" points="117.24,-270.66 113,-280.37 122.37,-275.42 117.24,-270.66"/>
</g>
<!-- Node3 -->
<g id="node3" class="node">
<title>Node3</title>
<g id="a_node3"><a xlink:href="msx_8h.html" target="_top" xlink:title="Using #include &lt;msx.h&gt; includes almost all C header files in libmsx, for ease to use.">
<polygon fill="none" stroke="black" points="18,-0.5 18,-19.5 94,-19.5 94,-0.5 18,-0.5"/>
<text text-anchor="middle" x="56" y="-7.5" font-family="Helvetica,sans-Serif" font-size="10.00">include/msx.h</text>
</a>
</g>
</g>
<!-- Node2&#45;&gt;Node3 -->
<g id="edge2" class="edge">
<title>Node2&#45;&gt;Node3</title>
<path fill="none" stroke="midnightblue" d="M27.24,-215.69C22.82,-207.59 18.23,-197.64 16,-188 14,-179.34 15.49,-176.87 16,-168 18.89,-117.97 12.86,-103.44 29,-56 33.64,-42.37 42.84,-28.42 49.2,-19.74"/>
<polygon fill="midnightblue" stroke="midnightblue" points="24.3,-217.6 32.36,-224.48 30.35,-214.08 24.3,-217.6"/>
</g>
<!-- Node4 -->
<g id="node4" class="node">
<title>Node4</title>
<g id="a_node4"><a xlink:href="vdp_8h.html" target="_top" xlink:title="Data types and functions for VDP (Video Display Proccessor) access.">
<polygon fill="none" stroke="black" points="49,-112.5 49,-131.5 123,-131.5 123,-112.5 49,-112.5"/>
<text text-anchor="middle" x="86" y="-119.5" font-family="Helvetica,sans-Serif" font-size="10.00">include/vdp.h</text>
</a>
</g>
</g>
<!-- Node2&#45;&gt;Node4 -->
<g id="edge3" class="edge">
<title>Node2&#45;&gt;Node4</title>
<path fill="none" stroke="midnightblue" d="M27.44,-214.92C21.02,-201.4 15.4,-182.77 23,-168 31.8,-150.91 50.42,-138.87 65.15,-131.57"/>
<polygon fill="midnightblue" stroke="midnightblue" points="24.53,-216.91 32.3,-224.12 30.72,-213.64 24.53,-216.91"/>
</g>
<!-- Node6 -->
<g id="node6" class="node">
<title>Node6</title>
<g id="a_node6"><a xlink:href="vdp__unsafe_8h.html" target="_top" xlink:title="Unsafe primitive functions for VDP (Video Display Proccessor) access.">
<polygon fill="none" stroke="black" points="32,-168.5 32,-187.5 140,-187.5 140,-168.5 32,-168.5"/>
<text text-anchor="middle" x="86" y="-175.5" font-family="Helvetica,sans-Serif" font-size="10.00">include/vdp_unsafe.h</text>
</a>
</g>
</g>
<!-- Node2&#45;&gt;Node6 -->
<g id="edge7" class="edge">
<title>Node2&#45;&gt;Node6</title>
<path fill="none" stroke="midnightblue" d="M52.73,-216.43C61.14,-206.97 71.35,-195.48 78.22,-187.75"/>
<polygon fill="midnightblue" stroke="midnightblue" points="49.95,-214.28 45.93,-224.08 55.19,-218.93 49.95,-214.28"/>
</g>
<!-- Node4&#45;&gt;Node3 -->
<g id="edge6" class="edge">
<title>Node4&#45;&gt;Node3</title>
<path fill="none" stroke="midnightblue" d="M61.88,-106.47C51.56,-98.83 40.62,-88.44 35,-76 26.22,-56.54 40.17,-32.31 49.22,-19.64"/>
<polygon fill="midnightblue" stroke="midnightblue" points="60.04,-109.46 70.27,-112.24 64.01,-103.69 60.04,-109.46"/>
</g>
<!-- Node5 -->
<g id="node5" class="node">
<title>Node5</title>
<g id="a_node5"><a xlink:href="metasprite_8h.html" target="_top" xlink:title="Meta&#45;sprite ; an aggregate of sprites.">
<polygon fill="none" stroke="black" points="44,-56.5 44,-75.5 148,-75.5 148,-56.5 44,-56.5"/>
<text text-anchor="middle" x="96" y="-63.5" font-family="Helvetica,sans-Serif" font-size="10.00">include/metasprite.h</text>
</a>
</g>
</g>
<!-- Node4&#45;&gt;Node5 -->
<g id="edge4" class="edge">
<title>Node4&#45;&gt;Node5</title>
<path fill="none" stroke="midnightblue" d="M89.5,-102.1C91.16,-93.14 93.06,-82.86 94.38,-75.75"/>
<polygon fill="midnightblue" stroke="midnightblue" points="86.03,-101.61 87.65,-112.08 92.91,-102.89 86.03,-101.61"/>
</g>
<!-- Node5&#45;&gt;Node3 -->
<g id="edge5" class="edge">
<title>Node5&#45;&gt;Node3</title>
<path fill="none" stroke="midnightblue" d="M83.3,-47.86C76.37,-38.5 68.09,-27.33 62.48,-19.75"/>
<polygon fill="midnightblue" stroke="midnightblue" points="80.63,-50.13 89.39,-56.08 86.25,-45.96 80.63,-50.13"/>
</g>
<!-- Node6&#45;&gt;Node4 -->
<g id="edge8" class="edge">
<title>Node6&#45;&gt;Node4</title>
<path fill="none" stroke="midnightblue" d="M86,-157.8C86,-148.91 86,-138.78 86,-131.75"/>
<polygon fill="midnightblue" stroke="midnightblue" points="82.5,-158.08 86,-168.08 89.5,-158.08 82.5,-158.08"/>
</g>
<!-- Node7&#45;&gt;Node3 -->
<g id="edge10" class="edge">
<title>Node7&#45;&gt;Node3</title>
<path fill="none" stroke="midnightblue" d="M203.81,-158.47C198.45,-132.47 185.31,-85.09 157,-56 139.19,-37.7 112.63,-26.27 91.21,-19.51"/>
<polygon fill="midnightblue" stroke="midnightblue" points="200.41,-159.31 205.71,-168.48 207.29,-158.01 200.41,-159.31"/>
</g>
<!-- Node7&#45;&gt;Node4 -->
<g id="edge11" class="edge">
<title>Node7&#45;&gt;Node4</title>
<path fill="none" stroke="midnightblue" d="M178.69,-164.37C156.03,-154.26 124.87,-140.35 105.08,-131.52"/>
<polygon fill="midnightblue" stroke="midnightblue" points="177.27,-167.56 187.83,-168.44 180.12,-161.17 177.27,-167.56"/>
</g>
</g>
</svg>
