<?xml version="1.0" encoding="UTF-8" standalone="no"?>
<!DOCTYPE svg PUBLIC "-//W3C//DTD SVG 1.1//EN"
 "http://www.w3.org/Graphics/SVG/1.1/DTD/svg11.dtd">
<!-- Generated by graphviz version 9.0.0 (20230911.1827)
 -->
<!-- Title: include/bios_entry.h Pages: 1 -->
<svg width="110pt" height="138pt"
 viewBox="0.00 0.00 110.25 137.75" xmlns="http://www.w3.org/2000/svg" xmlns:xlink="http://www.w3.org/1999/xlink">
<g id="graph0" class="graph" transform="scale(1 1) rotate(0) translate(4 133.75)">
<title>include/bios_entry.h</title>
<!-- Node1 -->
<g id="Node000001" class="node">
<title>Node1</title>
<g id="a_Node000001"><a xlink:title="Assembler entry points for MSX BIOS functions.">
<polygon fill="#999999" stroke="#666666" points="101.5,-129.75 0,-129.75 0,-110.5 101.5,-110.5 101.5,-129.75"/>
<text text-anchor="middle" x="50.75" y="-116.25" font-family="Helvetica,sans-Serif" font-size="10.00">include/bios_entry.h</text>
</a>
</g>
</g>
<!-- Node2 -->
<g id="Node000002" class="node">
<title>Node2</title>
<g id="a_Node000002"><a xlink:title=" ">
<polygon fill="#e0e0e0" stroke="#999999" points="74.5,-19.25 27,-19.25 27,0 74.5,0 74.5,-19.25"/>
<text text-anchor="middle" x="50.75" y="-5.75" font-family="Helvetica,sans-Serif" font-size="10.00">stdint.h</text>
</a>
</g>
</g>
<!-- Node1&#45;&gt;Node2 -->
<g id="edge1_Node000001_Node000002" class="edge">
<title>Node1&#45;&gt;Node2</title>
<g id="a_edge1_Node000001_Node000002"><a xlink:title=" ">
<path fill="none" stroke="#63b8ff" d="M48.95,-110.28C47.22,-101.31 44.73,-87.01 43.75,-74.5 42.61,-59.82 44.5,-43.3 46.61,-30.73"/>
<polygon fill="#63b8ff" stroke="#63b8ff" points="49.99,-31.67 48.4,-21.19 43.11,-30.37 49.99,-31.67"/>
</a>
</g>
</g>
<!-- Node3 -->
<g id="Node000003" class="node">
<title>Node3</title>
<g id="a_Node000003"><a xlink:href="config_8h.html" target="_top" xlink:title="Hack for C Compiler portability.">
<polygon fill="white" stroke="#666666" points="102.25,-74.5 53.25,-74.5 53.25,-55.25 102.25,-55.25 102.25,-74.5"/>
<text text-anchor="middle" x="77.75" y="-61" font-family="Helvetica,sans-Serif" font-size="10.00">config.h</text>
</a>
</g>
</g>
<!-- Node1&#45;&gt;Node3 -->
<g id="edge2_Node000001_Node000003" class="edge">
<title>Node1&#45;&gt;Node3</title>
<g id="a_edge2_Node000001_Node000003"><a xlink:title=" ">
<path fill="none" stroke="#63b8ff" d="M55.21,-110.33C58.7,-103.44 63.7,-93.59 68.1,-84.91"/>
<polygon fill="#63b8ff" stroke="#63b8ff" points="71.11,-86.71 72.51,-76.21 64.87,-83.55 71.11,-86.71"/>
</a>
</g>
</g>
<!-- Node3&#45;&gt;Node2 -->
<g id="edge3_Node000003_Node000002" class="edge">
<title>Node3&#45;&gt;Node2</title>
<g id="a_edge3_Node000003_Node000002"><a xlink:title=" ">
<path fill="none" stroke="#63b8ff" d="M73.29,-55.08C69.8,-48.19 64.8,-38.34 60.4,-29.66"/>
<polygon fill="#63b8ff" stroke="#63b8ff" points="63.63,-28.3 55.99,-20.96 57.39,-31.46 63.63,-28.3"/>
</a>
</g>
</g>
</g>
</svg>
