<?xml version="1.0" encoding="UTF-8" standalone="no"?>
<!DOCTYPE svg PUBLIC "-//W3C//DTD SVG 1.1//EN"
 "http://www.w3.org/Graphics/SVG/1.1/DTD/svg11.dtd">
<!-- Generated by graphviz version 3.0.0 (20221109.1736)
 -->
<!-- Title: include/bios_const.h Pages: 1 -->
<svg width="199pt" height="252pt"
 viewBox="0.00 0.00 198.50 252.00" xmlns="http://www.w3.org/2000/svg" xmlns:xlink="http://www.w3.org/1999/xlink">
<g id="graph0" class="graph" transform="scale(1 1) rotate(0) translate(4 248)">
<title>include/bios_const.h</title>
<!-- Node1 -->
<g id="node1" class="node">
<title>Node1</title>
<g id="a_node1"><a xlink:title="Constant variables in the MSX BIOS ROM.">
<polygon fill="#bfbfbf" stroke="black" points="0,-224.5 0,-243.5 105,-243.5 105,-224.5 0,-224.5"/>
<text text-anchor="middle" x="52.5" y="-231.5" font-family="Helvetica,sans-Serif" font-size="10.00">include/bios_const.h</text>
</a>
</g>
</g>
<!-- Node2 -->
<g id="node2" class="node">
<title>Node2</title>
<g id="a_node2"><a xlink:href="bios_8h.html" target="_top" xlink:title="C language I/F for MSX BIOS routines.">
<polygon fill="none" stroke="black" points="14.5,-168.5 14.5,-187.5 90.5,-187.5 90.5,-168.5 14.5,-168.5"/>
<text text-anchor="middle" x="52.5" y="-175.5" font-family="Helvetica,sans-Serif" font-size="10.00">include/bios.h</text>
</a>
</g>
</g>
<!-- Node1&#45;&gt;Node2 -->
<g id="edge1" class="edge">
<title>Node1&#45;&gt;Node2</title>
<path fill="none" stroke="midnightblue" d="M52.5,-213.8C52.5,-204.91 52.5,-194.78 52.5,-187.75"/>
<polygon fill="midnightblue" stroke="midnightblue" points="49,-214.08 52.5,-224.08 56,-214.08 49,-214.08"/>
</g>
<!-- Node3 -->
<g id="node3" class="node">
<title>Node3</title>
<g id="a_node3"><a xlink:href="msx_8h.html" target="_top" xlink:title="Copyright (c) 2021 Daishi Mori (mori0091)">
<polygon fill="none" stroke="black" points="20.5,-0.5 20.5,-19.5 96.5,-19.5 96.5,-0.5 20.5,-0.5"/>
<text text-anchor="middle" x="58.5" y="-7.5" font-family="Helvetica,sans-Serif" font-size="10.00">include/msx.h</text>
</a>
</g>
</g>
<!-- Node2&#45;&gt;Node3 -->
<g id="edge2" class="edge">
<title>Node2&#45;&gt;Node3</title>
<path fill="none" stroke="midnightblue" d="M45.95,-158.7C43.39,-150.63 40.77,-140.96 39.5,-132 33.54,-89.89 48.49,-39.72 55.31,-19.79"/>
<polygon fill="midnightblue" stroke="midnightblue" points="42.64,-159.84 49.16,-168.2 49.27,-157.6 42.64,-159.84"/>
</g>
<!-- Node4 -->
<g id="node4" class="node">
<title>Node4</title>
<g id="a_node4"><a xlink:href="vdp_8h.html" target="_top" xlink:title="Data types and functions for VDP (Video Display Proccessor) access.">
<polygon fill="none" stroke="black" points="48.5,-112.5 48.5,-131.5 122.5,-131.5 122.5,-112.5 48.5,-112.5"/>
<text text-anchor="middle" x="85.5" y="-119.5" font-family="Helvetica,sans-Serif" font-size="10.00">include/vdp.h</text>
</a>
</g>
</g>
<!-- Node2&#45;&gt;Node4 -->
<g id="edge3" class="edge">
<title>Node2&#45;&gt;Node4</title>
<path fill="none" stroke="midnightblue" d="M63.33,-159.27C68.97,-150.05 75.62,-139.17 80.15,-131.75"/>
<polygon fill="midnightblue" stroke="midnightblue" points="60.18,-157.73 57.95,-168.08 66.15,-161.38 60.18,-157.73"/>
</g>
<!-- Node4&#45;&gt;Node3 -->
<g id="edge6" class="edge">
<title>Node4&#45;&gt;Node3</title>
<path fill="none" stroke="midnightblue" d="M80.92,-102.35C75.01,-78.25 64.96,-37.31 60.61,-19.59"/>
<polygon fill="midnightblue" stroke="midnightblue" points="77.6,-103.49 83.38,-112.37 84.4,-101.82 77.6,-103.49"/>
</g>
<!-- Node5 -->
<g id="node5" class="node">
<title>Node5</title>
<g id="a_node5"><a xlink:href="metasprite_8h.html" target="_top" xlink:title="Copyright (c) 2021 Daishi Mori (mori0091)">
<polygon fill="none" stroke="black" points="86.5,-56.5 86.5,-75.5 190.5,-75.5 190.5,-56.5 86.5,-56.5"/>
<text text-anchor="middle" x="138.5" y="-63.5" font-family="Helvetica,sans-Serif" font-size="10.00">include/metasprite.h</text>
</a>
</g>
</g>
<!-- Node4&#45;&gt;Node5 -->
<g id="edge4" class="edge">
<title>Node4&#45;&gt;Node5</title>
<path fill="none" stroke="midnightblue" d="M101.48,-104.72C110.82,-95.2 122.25,-83.56 129.91,-75.75"/>
<polygon fill="midnightblue" stroke="midnightblue" points="98.76,-102.49 94.25,-112.08 103.75,-107.4 98.76,-102.49"/>
</g>
<!-- Node5&#45;&gt;Node3 -->
<g id="edge5" class="edge">
<title>Node5&#45;&gt;Node3</title>
<path fill="none" stroke="midnightblue" d="M117.2,-50.62C102.58,-40.76 83.67,-27.99 71.32,-19.65"/>
<polygon fill="midnightblue" stroke="midnightblue" points="115.4,-53.63 125.65,-56.32 119.32,-47.83 115.4,-53.63"/>
</g>
</g>
</svg>
