<?xml version="1.0" encoding="UTF-8" standalone="no"?>
<!DOCTYPE svg PUBLIC "-//W3C//DTD SVG 1.1//EN"
 "http://www.w3.org/Graphics/SVG/1.1/DTD/svg11.dtd">
<!-- Generated by graphviz version 3.0.0 (20221109.1736)
 -->
<!-- Title: include/bios_entry.h Pages: 1 -->
<svg width="197pt" height="252pt"
 viewBox="0.00 0.00 197.00 252.00" xmlns="http://www.w3.org/2000/svg" xmlns:xlink="http://www.w3.org/1999/xlink">
<g id="graph0" class="graph" transform="scale(1 1) rotate(0) translate(4 248)">
<title>include/bios_entry.h</title>
<!-- Node1 -->
<g id="node1" class="node">
<title>Node1</title>
<g id="a_node1"><a xlink:title="Assembler entry points for MSX BIOS functions.">
<polygon fill="#bfbfbf" stroke="black" points="0,-224.5 0,-243.5 102,-243.5 102,-224.5 0,-224.5"/>
<text text-anchor="middle" x="51" y="-231.5" font-family="Helvetica,sans-Serif" font-size="10.00">include/bios_entry.h</text>
</a>
</g>
</g>
<!-- Node2 -->
<g id="node2" class="node">
<title>Node2</title>
<g id="a_node2"><a xlink:href="bios_8h.html" target="_top" xlink:title="C language I/F for MSX BIOS routines.">
<polygon fill="none" stroke="black" points="13,-168.5 13,-187.5 89,-187.5 89,-168.5 13,-168.5"/>
<text text-anchor="middle" x="51" y="-175.5" font-family="Helvetica,sans-Serif" font-size="10.00">include/bios.h</text>
</a>
</g>
</g>
<!-- Node1&#45;&gt;Node2 -->
<g id="edge1" class="edge">
<title>Node1&#45;&gt;Node2</title>
<path fill="none" stroke="midnightblue" d="M51,-213.8C51,-204.91 51,-194.78 51,-187.75"/>
<polygon fill="midnightblue" stroke="midnightblue" points="47.5,-214.08 51,-224.08 54.5,-214.08 47.5,-214.08"/>
</g>
<!-- Node3 -->
<g id="node3" class="node">
<title>Node3</title>
<g id="a_node3"><a xlink:href="msx_8h.html" target="_top" xlink:title="Copyright (c) 2021 Daishi Mori (mori0091)">
<polygon fill="none" stroke="black" points="19,-0.5 19,-19.5 95,-19.5 95,-0.5 19,-0.5"/>
<text text-anchor="middle" x="57" y="-7.5" font-family="Helvetica,sans-Serif" font-size="10.00">include/msx.h</text>
</a>
</g>
</g>
<!-- Node2&#45;&gt;Node3 -->
<g id="edge2" class="edge">
<title>Node2&#45;&gt;Node3</title>
<path fill="none" stroke="midnightblue" d="M44.45,-158.7C41.89,-150.63 39.27,-140.96 38,-132 32.04,-89.89 46.99,-39.72 53.81,-19.79"/>
<polygon fill="midnightblue" stroke="midnightblue" points="41.14,-159.84 47.66,-168.2 47.77,-157.6 41.14,-159.84"/>
</g>
<!-- Node4 -->
<g id="node4" class="node">
<title>Node4</title>
<g id="a_node4"><a xlink:href="vdp_8h.html" target="_top" xlink:title="Data types and functions for VDP (Video Display Proccessor) access.">
<polygon fill="none" stroke="black" points="47,-112.5 47,-131.5 121,-131.5 121,-112.5 47,-112.5"/>
<text text-anchor="middle" x="84" y="-119.5" font-family="Helvetica,sans-Serif" font-size="10.00">include/vdp.h</text>
</a>
</g>
</g>
<!-- Node2&#45;&gt;Node4 -->
<g id="edge3" class="edge">
<title>Node2&#45;&gt;Node4</title>
<path fill="none" stroke="midnightblue" d="M61.83,-159.27C67.47,-150.05 74.12,-139.17 78.65,-131.75"/>
<polygon fill="midnightblue" stroke="midnightblue" points="58.68,-157.73 56.45,-168.08 64.65,-161.38 58.68,-157.73"/>
</g>
<!-- Node4&#45;&gt;Node3 -->
<g id="edge6" class="edge">
<title>Node4&#45;&gt;Node3</title>
<path fill="none" stroke="midnightblue" d="M79.42,-102.35C73.51,-78.25 63.46,-37.31 59.11,-19.59"/>
<polygon fill="midnightblue" stroke="midnightblue" points="76.1,-103.49 81.88,-112.37 82.9,-101.82 76.1,-103.49"/>
</g>
<!-- Node5 -->
<g id="node5" class="node">
<title>Node5</title>
<g id="a_node5"><a xlink:href="metasprite_8h.html" target="_top" xlink:title="Copyright (c) 2021 Daishi Mori (mori0091)">
<polygon fill="none" stroke="black" points="85,-56.5 85,-75.5 189,-75.5 189,-56.5 85,-56.5"/>
<text text-anchor="middle" x="137" y="-63.5" font-family="Helvetica,sans-Serif" font-size="10.00">include/metasprite.h</text>
</a>
</g>
</g>
<!-- Node4&#45;&gt;Node5 -->
<g id="edge4" class="edge">
<title>Node4&#45;&gt;Node5</title>
<path fill="none" stroke="midnightblue" d="M99.98,-104.72C109.32,-95.2 120.75,-83.56 128.41,-75.75"/>
<polygon fill="midnightblue" stroke="midnightblue" points="97.26,-102.49 92.75,-112.08 102.25,-107.4 97.26,-102.49"/>
</g>
<!-- Node5&#45;&gt;Node3 -->
<g id="edge5" class="edge">
<title>Node5&#45;&gt;Node3</title>
<path fill="none" stroke="midnightblue" d="M115.7,-50.62C101.08,-40.76 82.17,-27.99 69.82,-19.65"/>
<polygon fill="midnightblue" stroke="midnightblue" points="113.9,-53.63 124.15,-56.32 117.82,-47.83 113.9,-53.63"/>
</g>
</g>
</svg>
