<?xml version="1.0" encoding="UTF-8" standalone="no"?>
<!DOCTYPE svg PUBLIC "-//W3C//DTD SVG 1.1//EN"
 "http://www.w3.org/Graphics/SVG/1.1/DTD/svg11.dtd">
<!-- Generated by graphviz version 9.0.0 (20230911.1827)
 -->
<!-- Title: include/bios_entry.h Pages: 1 -->
<svg width="195pt" height="304pt"
 viewBox="0.00 0.00 194.50 303.50" xmlns="http://www.w3.org/2000/svg" xmlns:xlink="http://www.w3.org/1999/xlink">
<g id="graph0" class="graph" transform="scale(1 1) rotate(0) translate(4 299.5)">
<title>include/bios_entry.h</title>
<!-- Node1 -->
<g id="Node000001" class="node">
<title>Node1</title>
<g id="a_Node000001"><a xlink:title="Assembler entry points for MSX BIOS functions.">
<polygon fill="#999999" stroke="#666666" points="101.5,-295.5 0,-295.5 0,-276.25 101.5,-276.25 101.5,-295.5"/>
<text text-anchor="middle" x="50.75" y="-282" font-family="Helvetica,sans-Serif" font-size="10.00">include/bios_entry.h</text>
</a>
</g>
</g>
<!-- Node2 -->
<g id="Node000002" class="node">
<title>Node2</title>
<g id="a_Node000002"><a xlink:href="bios_8h.html" target="_top" xlink:title="C language I/F for MSX BIOS routines.">
<polygon fill="white" stroke="#666666" points="88.38,-240.25 13.12,-240.25 13.12,-221 88.38,-221 88.38,-240.25"/>
<text text-anchor="middle" x="50.75" y="-226.75" font-family="Helvetica,sans-Serif" font-size="10.00">include/bios.h</text>
</a>
</g>
</g>
<!-- Node1&#45;&gt;Node2 -->
<g id="edge1_Node000001_Node000002" class="edge">
<title>Node1&#45;&gt;Node2</title>
<g id="a_edge1_Node000001_Node000002"><a xlink:title=" ">
<path fill="none" stroke="#63b8ff" d="M50.75,-264.63C50.75,-256.34 50.75,-247.17 50.75,-240.61"/>
<polygon fill="#63b8ff" stroke="#63b8ff" points="47.25,-264.57 50.75,-274.57 54.25,-264.57 47.25,-264.57"/>
</a>
</g>
</g>
<!-- Node3 -->
<g id="Node000003" class="node">
<title>Node3</title>
<g id="a_Node000003"><a xlink:href="msx_8h.html" target="_top" xlink:title="Using #include &lt;msx.h&gt; includes almost all C header files in libmsx, for ease to use.">
<polygon fill="white" stroke="#666666" points="88.38,-19.25 13.12,-19.25 13.12,0 88.38,0 88.38,-19.25"/>
<text text-anchor="middle" x="50.75" y="-5.75" font-family="Helvetica,sans-Serif" font-size="10.00">include/msx.h</text>
</a>
</g>
</g>
<!-- Node2&#45;&gt;Node3 -->
<g id="edge2_Node000002_Node000003" class="edge">
<title>Node2&#45;&gt;Node3</title>
<g id="a_edge2_Node000002_Node000003"><a xlink:title=" ">
<path fill="none" stroke="#63b8ff" d="M50.75,-209.36C50.75,-163.13 50.75,-51.4 50.75,-19.35"/>
<polygon fill="#63b8ff" stroke="#63b8ff" points="47.25,-209.26 50.75,-219.26 54.25,-209.26 47.25,-209.26"/>
</a>
</g>
</g>
<!-- Node4 -->
<g id="Node000004" class="node">
<title>Node4</title>
<g id="a_Node000004"><a xlink:href="vdp_8h.html" target="_top" xlink:title="Data types and functions for VDP (Video Display Proccessor) access.">
<polygon fill="white" stroke="#666666" points="140.25,-129.75 67.25,-129.75 67.25,-110.5 140.25,-110.5 140.25,-129.75"/>
<text text-anchor="middle" x="103.75" y="-116.25" font-family="Helvetica,sans-Serif" font-size="10.00">include/vdp.h</text>
</a>
</g>
</g>
<!-- Node2&#45;&gt;Node4 -->
<g id="edge3_Node000002_Node000004" class="edge">
<title>Node2&#45;&gt;Node4</title>
<g id="a_edge3_Node000002_Node000004"><a xlink:title=" ">
<path fill="none" stroke="#63b8ff" d="M54.74,-209.61C57.79,-196.65 62.68,-179.66 69.75,-165.75 76.63,-152.2 87.75,-138.6 95.39,-130.03"/>
<polygon fill="#63b8ff" stroke="#63b8ff" points="51.38,-208.57 52.69,-219.08 58.22,-210.05 51.38,-208.57"/>
</a>
</g>
</g>
<!-- Node6 -->
<g id="Node000006" class="node">
<title>Node6</title>
<g id="a_Node000006"><a xlink:href="vdp__unsafe_8h.html" target="_top" xlink:title="Unsafe primitive functions for VDP (Video Display Proccessor) access.">
<polygon fill="white" stroke="#666666" points="186.5,-185 79,-185 79,-165.75 186.5,-165.75 186.5,-185"/>
<text text-anchor="middle" x="132.75" y="-171.5" font-family="Helvetica,sans-Serif" font-size="10.00">include/vdp_unsafe.h</text>
</a>
</g>
</g>
<!-- Node2&#45;&gt;Node6 -->
<g id="edge7_Node000002_Node000006" class="edge">
<title>Node2&#45;&gt;Node6</title>
<g id="a_edge7_Node000002_Node000006"><a xlink:title=" ">
<path fill="none" stroke="#63b8ff" d="M73.96,-214.55C88.4,-205.17 106.5,-193.42 118.77,-185.45"/>
<polygon fill="#63b8ff" stroke="#63b8ff" points="72.41,-211.39 65.93,-219.77 76.22,-217.26 72.41,-211.39"/>
</a>
</g>
</g>
<!-- Node4&#45;&gt;Node3 -->
<g id="edge6_Node000004_Node000003" class="edge">
<title>Node4&#45;&gt;Node3</title>
<g id="a_edge6_Node000004_Node000003"><a xlink:title=" ">
<path fill="none" stroke="#63b8ff" d="M88.08,-101.65C81.68,-93.79 74.64,-84.13 69.75,-74.5 60.42,-56.14 54.88,-32.43 52.37,-19.69"/>
<polygon fill="#63b8ff" stroke="#63b8ff" points="85.25,-103.73 94.41,-109.07 90.58,-99.19 85.25,-103.73"/>
</a>
</g>
</g>
<!-- Node5 -->
<g id="Node000005" class="node">
<title>Node5</title>
<g id="a_Node000005"><a xlink:href="metasprite_8h.html" target="_top" xlink:title="Meta&#45;sprite ; an aggregate of sprites.">
<polygon fill="white" stroke="#666666" points="182.25,-74.5 79.25,-74.5 79.25,-55.25 182.25,-55.25 182.25,-74.5"/>
<text text-anchor="middle" x="130.75" y="-61" font-family="Helvetica,sans-Serif" font-size="10.00">include/metasprite.h</text>
</a>
</g>
</g>
<!-- Node4&#45;&gt;Node5 -->
<g id="edge4_Node000004_Node000005" class="edge">
<title>Node4&#45;&gt;Node5</title>
<g id="a_edge4_Node000004_Node000005"><a xlink:title=" ">
<path fill="none" stroke="#63b8ff" d="M113.28,-100.33C117.67,-91.67 122.67,-81.81 126.19,-74.86"/>
<polygon fill="#63b8ff" stroke="#63b8ff" points="110.29,-98.48 108.89,-108.98 116.54,-101.65 110.29,-98.48"/>
</a>
</g>
</g>
<!-- Node5&#45;&gt;Node3 -->
<g id="edge5_Node000005_Node000003" class="edge">
<title>Node5&#45;&gt;Node3</title>
<g id="a_edge5_Node000005_Node000003"><a xlink:title=" ">
<path fill="none" stroke="#63b8ff" d="M107.7,-48.53C93.68,-39.2 76.25,-27.6 64.39,-19.7"/>
<polygon fill="#63b8ff" stroke="#63b8ff" points="105.66,-51.38 115.92,-54 109.53,-45.55 105.66,-51.38"/>
</a>
</g>
</g>
<!-- Node6&#45;&gt;Node4 -->
<g id="edge8_Node000006_Node000004" class="edge">
<title>Node6&#45;&gt;Node4</title>
<g id="a_edge8_Node000006_Node000004"><a xlink:title=" ">
<path fill="none" stroke="#63b8ff" d="M122.51,-155.58C117.8,-146.92 112.43,-137.06 108.64,-130.11"/>
<polygon fill="#63b8ff" stroke="#63b8ff" points="119.38,-157.14 127.24,-164.25 125.53,-153.8 119.38,-157.14"/>
</a>
</g>
</g>
</g>
</svg>
