<?xml version="1.0" encoding="UTF-8" standalone="no"?>
<!DOCTYPE svg PUBLIC "-//W3C//DTD SVG 1.1//EN"
 "http://www.w3.org/Graphics/SVG/1.1/DTD/svg11.dtd">
<!-- Generated by graphviz version 7.0.5 (20221223.1930)
 -->
<!-- Title: include/bios_const.h Pages: 1 -->
<svg width="264pt" height="302pt"
 viewBox="0.00 0.00 264.00 302.00" xmlns="http://www.w3.org/2000/svg" xmlns:xlink="http://www.w3.org/1999/xlink">
<g id="graph0" class="graph" transform="scale(1 1) rotate(0) translate(4 298)">
<title>include/bios_const.h</title>
<!-- Node1 -->
<g id="node1" class="node">
<title>Node1</title>
<g id="a_node1"><a xlink:title="Constant variables in the MSX BIOS ROM.">
<polygon fill="#999999" stroke="#666666" points="157.5,-294 52.5,-294 52.5,-275 157.5,-275 157.5,-294"/>
<text text-anchor="middle" x="105" y="-282" font-family="Helvetica,sans-Serif" font-size="10.00">include/bios_const.h</text>
</a>
</g>
</g>
<!-- Node2 -->
<g id="node2" class="node">
<title>Node2</title>
<g id="a_node2"><a xlink:href="bios_8h.html" target="_top" xlink:title="C language I/F for MSX BIOS routines.">
<polygon fill="white" stroke="#666666" points="76,-239 0,-239 0,-220 76,-220 76,-239"/>
<text text-anchor="middle" x="38" y="-227" font-family="Helvetica,sans-Serif" font-size="10.00">include/bios.h</text>
</a>
</g>
</g>
<!-- Node1&#45;&gt;Node2 -->
<g id="edge1" class="edge">
<title>Node1&#45;&gt;Node2</title>
<path fill="none" stroke="#63b8ff" d="M84.95,-267.64C73.25,-258.39 58.93,-247.05 49.2,-239.36"/>
<polygon fill="#63b8ff" stroke="#63b8ff" points="82.43,-270.11 92.45,-273.57 86.78,-264.62 82.43,-270.11"/>
</g>
<!-- Node7 -->
<g id="node7" class="node">
<title>Node7</title>
<g id="a_node7"><a xlink:href="workarea_8h.html" target="_top" xlink:title="Definitions of MSX SYSTEM Workarea.">
<polygon fill="white" stroke="#666666" points="256,-184 158,-184 158,-165 256,-165 256,-184"/>
<text text-anchor="middle" x="207" y="-172" font-family="Helvetica,sans-Serif" font-size="10.00">include/workarea.h</text>
</a>
</g>
</g>
<!-- Node1&#45;&gt;Node7 -->
<g id="edge9" class="edge">
<title>Node1&#45;&gt;Node7</title>
<path fill="none" stroke="#63b8ff" d="M121.12,-266.43C143.07,-243.19 181.55,-202.44 198.54,-184.46"/>
<polygon fill="#63b8ff" stroke="#63b8ff" points="118.71,-263.89 114.39,-273.56 123.8,-268.69 118.71,-263.89"/>
</g>
<!-- Node3 -->
<g id="node3" class="node">
<title>Node3</title>
<g id="a_node3"><a xlink:href="msx_8h.html" target="_top" xlink:title="Using #include &lt;msx.h&gt; includes almost all C header files in libmsx, for ease to use.">
<polygon fill="white" stroke="#666666" points="94,-19 18,-19 18,0 94,0 94,-19"/>
<text text-anchor="middle" x="56" y="-7" font-family="Helvetica,sans-Serif" font-size="10.00">include/msx.h</text>
</a>
</g>
</g>
<!-- Node2&#45;&gt;Node3 -->
<g id="edge2" class="edge">
<title>Node2&#45;&gt;Node3</title>
<path fill="none" stroke="#63b8ff" d="M26.5,-210.03C22.32,-202.29 18.11,-193.01 16,-184 14.08,-175.78 15.5,-173.43 16,-165 18.89,-115.86 12.98,-101.55 29,-55 33.59,-41.67 42.61,-28.06 48.96,-19.46"/>
<polygon fill="#63b8ff" stroke="#63b8ff" points="23.34,-211.57 31.4,-218.45 29.39,-208.05 23.34,-211.57"/>
</g>
<!-- Node4 -->
<g id="node4" class="node">
<title>Node4</title>
<g id="a_node4"><a xlink:href="vdp_8h.html" target="_top" xlink:title="Data types and functions for VDP (Video Display Proccessor) access.">
<polygon fill="white" stroke="#666666" points="123,-129 49,-129 49,-110 123,-110 123,-129"/>
<text text-anchor="middle" x="86" y="-117" font-family="Helvetica,sans-Serif" font-size="10.00">include/vdp.h</text>
</a>
</g>
</g>
<!-- Node2&#45;&gt;Node4 -->
<g id="edge3" class="edge">
<title>Node2&#45;&gt;Node4</title>
<path fill="none" stroke="#63b8ff" d="M26.96,-209.66C20.82,-196.56 15.75,-179 23,-165 31.62,-148.35 49.66,-136.61 64.23,-129.38"/>
<polygon fill="#63b8ff" stroke="#63b8ff" points="23.86,-211.28 31.63,-218.48 30.04,-208.01 23.86,-211.28"/>
</g>
<!-- Node6 -->
<g id="node6" class="node">
<title>Node6</title>
<g id="a_node6"><a xlink:href="vdp__unsafe_8h.html" target="_top" xlink:title="Unsafe primitive functions for VDP (Video Display Proccessor) access.">
<polygon fill="white" stroke="#666666" points="140,-184 32,-184 32,-165 140,-165 140,-184"/>
<text text-anchor="middle" x="86" y="-172" font-family="Helvetica,sans-Serif" font-size="10.00">include/vdp_unsafe.h</text>
</a>
</g>
</g>
<!-- Node2&#45;&gt;Node6 -->
<g id="edge7" class="edge">
<title>Node2&#45;&gt;Node6</title>
<path fill="none" stroke="#63b8ff" d="M53.65,-211.22C61.75,-202.28 71.29,-191.74 77.9,-184.44"/>
<polygon fill="#63b8ff" stroke="#63b8ff" points="51.06,-208.86 46.94,-218.63 56.25,-213.56 51.06,-208.86"/>
</g>
<!-- Node4&#45;&gt;Node3 -->
<g id="edge6" class="edge">
<title>Node4&#45;&gt;Node3</title>
<path fill="none" stroke="#63b8ff" d="M60.55,-103.2C50.64,-95.75 40.38,-85.84 35,-74 26.45,-55.18 39.94,-31.83 48.96,-19.35"/>
<polygon fill="#63b8ff" stroke="#63b8ff" points="58.31,-105.91 68.53,-108.7 62.29,-100.15 58.31,-105.91"/>
</g>
<!-- Node5 -->
<g id="node5" class="node">
<title>Node5</title>
<g id="a_node5"><a xlink:href="metasprite_8h.html" target="_top" xlink:title="Meta&#45;sprite ; an aggregate of sprites.">
<polygon fill="white" stroke="#666666" points="148,-74 44,-74 44,-55 148,-55 148,-74"/>
<text text-anchor="middle" x="96" y="-62" font-family="Helvetica,sans-Serif" font-size="10.00">include/metasprite.h</text>
</a>
</g>
</g>
<!-- Node4&#45;&gt;Node5 -->
<g id="edge4" class="edge">
<title>Node4&#45;&gt;Node5</title>
<path fill="none" stroke="#63b8ff" d="M89.75,-98.64C91.32,-90.31 93.07,-81.05 94.31,-74.44"/>
<polygon fill="#63b8ff" stroke="#63b8ff" points="86.35,-97.79 87.93,-108.26 93.23,-99.08 86.35,-97.79"/>
</g>
<!-- Node5&#45;&gt;Node3 -->
<g id="edge5" class="edge">
<title>Node5&#45;&gt;Node3</title>
<path fill="none" stroke="#63b8ff" d="M82.53,-45.65C75.88,-36.84 68.14,-26.59 62.75,-19.44"/>
<polygon fill="#63b8ff" stroke="#63b8ff" points="79.67,-47.67 88.48,-53.54 85.25,-43.45 79.67,-47.67"/>
</g>
<!-- Node6&#45;&gt;Node4 -->
<g id="edge8" class="edge">
<title>Node6&#45;&gt;Node4</title>
<path fill="none" stroke="#63b8ff" d="M86,-153.35C86,-145.1 86,-135.97 86,-129.44"/>
<polygon fill="#63b8ff" stroke="#63b8ff" points="82.5,-153.23 86,-163.23 89.5,-153.23 82.5,-153.23"/>
</g>
<!-- Node7&#45;&gt;Node3 -->
<g id="edge10" class="edge">
<title>Node7&#45;&gt;Node3</title>
<path fill="none" stroke="#63b8ff" d="M203.33,-153.54C197.63,-127.72 184.33,-82.76 157,-55 139.66,-37.38 114.15,-26.22 93.11,-19.48"/>
<polygon fill="#63b8ff" stroke="#63b8ff" points="199.84,-153.93 205.25,-163.04 206.7,-152.54 199.84,-153.93"/>
</g>
<!-- Node7&#45;&gt;Node4 -->
<g id="edge11" class="edge">
<title>Node7&#45;&gt;Node4</title>
<path fill="none" stroke="#63b8ff" d="M176.02,-159.93C154.08,-150.32 125.27,-137.7 106.22,-129.36"/>
<polygon fill="#63b8ff" stroke="#63b8ff" points="174.52,-163.1 185.09,-163.9 177.33,-156.68 174.52,-163.1"/>
</g>
</g>
</svg>
