<?xml version="1.0" encoding="UTF-8" standalone="no"?>
<!DOCTYPE svg PUBLIC "-//W3C//DTD SVG 1.1//EN"
 "http://www.w3.org/Graphics/SVG/1.1/DTD/svg11.dtd">
<!-- Generated by graphviz version 7.0.2 (20221119.0110)
 -->
<!-- Title: include/bios.h Pages: 1 -->
<svg width="177pt" height="137pt"
 viewBox="0.00 0.00 176.72 137.00" xmlns="http://www.w3.org/2000/svg" xmlns:xlink="http://www.w3.org/1999/xlink">
<g id="graph0" class="graph" transform="scale(1 1) rotate(0) translate(4 133)">
<title>include/bios.h</title>
<!-- Node1 -->
<g id="node1" class="node">
<title>Node1</title>
<g id="a_node1"><a xlink:title="C language I/F for MSX BIOS routines.">
<polygon fill="#999999" stroke="#666666" points="83.22,-129 7.22,-129 7.22,-110 83.22,-110 83.22,-129"/>
<text text-anchor="middle" x="45.22" y="-117" font-family="Helvetica,sans-Serif" font-size="10.00">include/bios.h</text>
</a>
</g>
</g>
<!-- Node2 -->
<g id="node2" class="node">
<title>Node2</title>
<g id="a_node2"><a xlink:title=" ">
<polygon fill="#e0e0e0" stroke="#999999" points="69.22,-19 21.22,-19 21.22,0 69.22,0 69.22,-19"/>
<text text-anchor="middle" x="45.22" y="-7" font-family="Helvetica,sans-Serif" font-size="10.00">stdint.h</text>
</a>
</g>
</g>
<!-- Node1&#45;&gt;Node2 -->
<g id="edge1" class="edge">
<title>Node1&#45;&gt;Node2</title>
<path fill="none" stroke="#63b8ff" d="M32.32,-109.61C21.99,-101.65 8.26,-88.94 2.22,-74 -4.86,-56.48 9.13,-38.87 23,-26.66"/>
<polygon fill="#63b8ff" stroke="#63b8ff" points="25.13,-29.43 30.7,-20.42 20.72,-23.99 25.13,-29.43"/>
</g>
<!-- Node3 -->
<g id="node3" class="node">
<title>Node3</title>
<g id="a_node3"><a xlink:href="bios__const_8h.html" target="_top" xlink:title="Constant variables in the MSX BIOS ROM.">
<polygon fill="white" stroke="#666666" points="168.72,-74 97.72,-74 97.72,-55 168.72,-55 168.72,-74"/>
<text text-anchor="middle" x="133.22" y="-62" font-family="Helvetica,sans-Serif" font-size="10.00">bios_const.h</text>
</a>
</g>
</g>
<!-- Node1&#45;&gt;Node3 -->
<g id="edge2" class="edge">
<title>Node1&#45;&gt;Node3</title>
<path fill="none" stroke="#63b8ff" d="M60.15,-109.51C73.51,-101.47 93.33,-89.53 108.96,-80.11"/>
<polygon fill="#63b8ff" stroke="#63b8ff" points="110.46,-83.3 117.22,-75.14 106.85,-77.3 110.46,-83.3"/>
</g>
<!-- Node5 -->
<g id="node5" class="node">
<title>Node5</title>
<g id="a_node5"><a xlink:href="bios__entry_8h.html" target="_top" xlink:title="Assembler entry points for MSX BIOS functions.">
<polygon fill="white" stroke="#666666" points="79.22,-74 11.22,-74 11.22,-55 79.22,-55 79.22,-74"/>
<text text-anchor="middle" x="45.22" y="-62" font-family="Helvetica,sans-Serif" font-size="10.00">bios_entry.h</text>
</a>
</g>
</g>
<!-- Node1&#45;&gt;Node5 -->
<g id="edge5" class="edge">
<title>Node1&#45;&gt;Node5</title>
<path fill="none" stroke="#63b8ff" d="M45.22,-109.75C45.22,-103.27 45.22,-94.16 45.22,-85.9"/>
<polygon fill="#63b8ff" stroke="#63b8ff" points="48.72,-85.96 45.22,-75.96 41.72,-85.96 48.72,-85.96"/>
</g>
<!-- Node3&#45;&gt;Node2 -->
<g id="edge3" class="edge">
<title>Node3&#45;&gt;Node2</title>
<path fill="none" stroke="#63b8ff" d="M118.3,-54.51C104.94,-46.47 85.12,-34.53 69.49,-25.11"/>
<polygon fill="#63b8ff" stroke="#63b8ff" points="71.6,-22.3 61.23,-20.14 67.99,-28.3 71.6,-22.3"/>
</g>
<!-- Node4 -->
<g id="node4" class="node">
<title>Node4</title>
<g id="a_node4"><a xlink:href="config_8h.html" target="_top" xlink:title="Hack for C Compiler portability.">
<polygon fill="white" stroke="#666666" points="147.22,-19 97.22,-19 97.22,0 147.22,0 147.22,-19"/>
<text text-anchor="middle" x="122.22" y="-7" font-family="Helvetica,sans-Serif" font-size="10.00">config.h</text>
</a>
</g>
</g>
<!-- Node3&#45;&gt;Node4 -->
<g id="edge4" class="edge">
<title>Node3&#45;&gt;Node4</title>
<path fill="none" stroke="#63b8ff" d="M131.41,-54.75C130.05,-48.19 128.13,-38.95 126.4,-30.6"/>
<polygon fill="#63b8ff" stroke="#63b8ff" points="129.85,-30 124.39,-20.92 122.99,-31.43 129.85,-30"/>
</g>
<!-- Node5&#45;&gt;Node2 -->
<g id="edge6" class="edge">
<title>Node5&#45;&gt;Node2</title>
<path fill="none" stroke="#63b8ff" d="M45.22,-54.75C45.22,-48.27 45.22,-39.16 45.22,-30.9"/>
<polygon fill="#63b8ff" stroke="#63b8ff" points="48.72,-30.96 45.22,-20.96 41.72,-30.96 48.72,-30.96"/>
</g>
<!-- Node5&#45;&gt;Node4 -->
<g id="edge7" class="edge">
<title>Node5&#45;&gt;Node4</title>
<path fill="none" stroke="#63b8ff" d="M58.29,-54.51C69.75,-46.62 86.66,-34.98 100.21,-25.65"/>
<polygon fill="#63b8ff" stroke="#63b8ff" points="101.86,-28.77 108.11,-20.22 97.89,-23 101.86,-28.77"/>
</g>
</g>
</svg>
