<?xml version="1.0" encoding="UTF-8" standalone="no"?>
<!DOCTYPE svg PUBLIC "-//W3C//DTD SVG 1.1//EN"
 "http://www.w3.org/Graphics/SVG/1.1/DTD/svg11.dtd">
<!-- Generated by graphviz version 9.0.0 (20230911.1827)
 -->
<!-- Title: include/bios_const.h Pages: 1 -->
<svg width="113pt" height="138pt"
 viewBox="0.00 0.00 112.50 137.75" xmlns="http://www.w3.org/2000/svg" xmlns:xlink="http://www.w3.org/1999/xlink">
<g id="graph0" class="graph" transform="scale(1 1) rotate(0) translate(4 133.75)">
<title>include/bios_const.h</title>
<!-- Node1 -->
<g id="Node000001" class="node">
<title>Node1</title>
<g id="a_Node000001"><a xlink:title="Constant variables in the MSX BIOS ROM.">
<polygon fill="#999999" stroke="#666666" points="104.5,-129.75 0,-129.75 0,-110.5 104.5,-110.5 104.5,-129.75"/>
<text text-anchor="middle" x="52.25" y="-116.25" font-family="Helvetica,sans-Serif" font-size="10.00">include/bios_const.h</text>
</a>
</g>
</g>
<!-- Node2 -->
<g id="Node000002" class="node">
<title>Node2</title>
<g id="a_Node000002"><a xlink:title=" ">
<polygon fill="#e0e0e0" stroke="#999999" points="76,-19.25 28.5,-19.25 28.5,0 76,0 76,-19.25"/>
<text text-anchor="middle" x="52.25" y="-5.75" font-family="Helvetica,sans-Serif" font-size="10.00">stdint.h</text>
</a>
</g>
</g>
<!-- Node1&#45;&gt;Node2 -->
<g id="edge1_Node000001_Node000002" class="edge">
<title>Node1&#45;&gt;Node2</title>
<g id="a_edge1_Node000001_Node000002"><a xlink:title=" ">
<path fill="none" stroke="#63b8ff" d="M50.45,-110.28C48.72,-101.31 46.23,-87.01 45.25,-74.5 44.11,-59.82 46,-43.3 48.11,-30.73"/>
<polygon fill="#63b8ff" stroke="#63b8ff" points="51.49,-31.67 49.9,-21.19 44.61,-30.37 51.49,-31.67"/>
</a>
</g>
</g>
<!-- Node3 -->
<g id="Node000003" class="node">
<title>Node3</title>
<g id="a_Node000003"><a xlink:href="config_8h.html" target="_top" xlink:title="Hack for C Compiler portability.">
<polygon fill="white" stroke="#666666" points="103.75,-74.5 54.75,-74.5 54.75,-55.25 103.75,-55.25 103.75,-74.5"/>
<text text-anchor="middle" x="79.25" y="-61" font-family="Helvetica,sans-Serif" font-size="10.00">config.h</text>
</a>
</g>
</g>
<!-- Node1&#45;&gt;Node3 -->
<g id="edge2_Node000001_Node000003" class="edge">
<title>Node1&#45;&gt;Node3</title>
<g id="a_edge2_Node000001_Node000003"><a xlink:title=" ">
<path fill="none" stroke="#63b8ff" d="M56.71,-110.33C60.2,-103.44 65.2,-93.59 69.6,-84.91"/>
<polygon fill="#63b8ff" stroke="#63b8ff" points="72.61,-86.71 74.01,-76.21 66.37,-83.55 72.61,-86.71"/>
</a>
</g>
</g>
<!-- Node3&#45;&gt;Node2 -->
<g id="edge3_Node000003_Node000002" class="edge">
<title>Node3&#45;&gt;Node2</title>
<g id="a_edge3_Node000003_Node000002"><a xlink:title=" ">
<path fill="none" stroke="#63b8ff" d="M74.79,-55.08C71.3,-48.19 66.3,-38.34 61.9,-29.66"/>
<polygon fill="#63b8ff" stroke="#63b8ff" points="65.13,-28.3 57.49,-20.96 58.89,-31.46 65.13,-28.3"/>
</a>
</g>
</g>
</g>
</svg>
