<?xml version="1.0" encoding="UTF-8" standalone="no"?>
<!DOCTYPE svg PUBLIC "-//W3C//DTD SVG 1.1//EN"
 "http://www.w3.org/Graphics/SVG/1.1/DTD/svg11.dtd">
<!-- Generated by graphviz version 7.0.5 (20221223.1930)
 -->
<!-- Title: include/bios_const.h Pages: 1 -->
<svg width="113pt" height="137pt"
 viewBox="0.00 0.00 113.00 137.00" xmlns="http://www.w3.org/2000/svg" xmlns:xlink="http://www.w3.org/1999/xlink">
<g id="graph0" class="graph" transform="scale(1 1) rotate(0) translate(4 133)">
<title>include/bios_const.h</title>
<!-- Node1 -->
<g id="node1" class="node">
<title>Node1</title>
<g id="a_node1"><a xlink:title="Constant variables in the MSX BIOS ROM.">
<polygon fill="#999999" stroke="#666666" points="105,-129 0,-129 0,-110 105,-110 105,-129"/>
<text text-anchor="middle" x="52.5" y="-117" font-family="Helvetica,sans-Serif" font-size="10.00">include/bios_const.h</text>
</a>
</g>
</g>
<!-- Node2 -->
<g id="node2" class="node">
<title>Node2</title>
<g id="a_node2"><a xlink:title=" ">
<polygon fill="#e0e0e0" stroke="#999999" points="76.5,-19 28.5,-19 28.5,0 76.5,0 76.5,-19"/>
<text text-anchor="middle" x="52.5" y="-7" font-family="Helvetica,sans-Serif" font-size="10.00">stdint.h</text>
</a>
</g>
</g>
<!-- Node1&#45;&gt;Node2 -->
<g id="edge1" class="edge">
<title>Node1&#45;&gt;Node2</title>
<path fill="none" stroke="#63b8ff" d="M50.52,-109.89C47.95,-97.69 43.96,-74.68 45.5,-55 46.13,-46.91 47.4,-38.07 48.69,-30.41"/>
<polygon fill="#63b8ff" stroke="#63b8ff" points="52.09,-31.27 50.43,-20.81 45.2,-30.02 52.09,-31.27"/>
</g>
<!-- Node3 -->
<g id="node3" class="node">
<title>Node3</title>
<g id="a_node3"><a xlink:href="config_8h.html" target="_top" xlink:title="Hack for C Compiler portability.">
<polygon fill="white" stroke="#666666" points="104.5,-74 54.5,-74 54.5,-55 104.5,-55 104.5,-74"/>
<text text-anchor="middle" x="79.5" y="-62" font-family="Helvetica,sans-Serif" font-size="10.00">config.h</text>
</a>
</g>
</g>
<!-- Node1&#45;&gt;Node3 -->
<g id="edge2" class="edge">
<title>Node1&#45;&gt;Node3</title>
<path fill="none" stroke="#63b8ff" d="M56.96,-109.75C60.45,-102.88 65.45,-93.08 69.85,-84.45"/>
<polygon fill="#63b8ff" stroke="#63b8ff" points="72.84,-86.29 74.26,-75.79 66.6,-83.11 72.84,-86.29"/>
</g>
<!-- Node3&#45;&gt;Node2 -->
<g id="edge3" class="edge">
<title>Node3&#45;&gt;Node2</title>
<path fill="none" stroke="#63b8ff" d="M75.04,-54.75C71.55,-47.88 66.55,-38.08 62.15,-29.45"/>
<polygon fill="#63b8ff" stroke="#63b8ff" points="65.4,-28.11 57.74,-20.79 59.16,-31.29 65.4,-28.11"/>
</g>
</g>
</svg>
