<?xml version="1.0" encoding="UTF-8" standalone="no"?>
<!DOCTYPE svg PUBLIC "-//W3C//DTD SVG 1.1//EN"
 "http://www.w3.org/Graphics/SVG/1.1/DTD/svg11.dtd">
<!-- Generated by graphviz version 7.0.5 (20221223.1930)
 -->
<!-- Title: include/bios.h Pages: 1 -->
<svg width="177pt" height="192pt"
 viewBox="0.00 0.00 177.14 192.00" xmlns="http://www.w3.org/2000/svg" xmlns:xlink="http://www.w3.org/1999/xlink">
<g id="graph0" class="graph" transform="scale(1 1) rotate(0) translate(4 188)">
<title>include/bios.h</title>
<!-- Node1 -->
<g id="node1" class="node">
<title>Node1</title>
<g id="a_node1"><a xlink:title="C language I/F for MSX BIOS routines.">
<polygon fill="#999999" stroke="#666666" points="85.14,-184 9.14,-184 9.14,-165 85.14,-165 85.14,-184"/>
<text text-anchor="middle" x="47.14" y="-172" font-family="Helvetica,sans-Serif" font-size="10.00">include/bios.h</text>
</a>
</g>
</g>
<!-- Node2 -->
<g id="node2" class="node">
<title>Node2</title>
<g id="a_node2"><a xlink:title=" ">
<polygon fill="#e0e0e0" stroke="#999999" points="79.14,-19 31.14,-19 31.14,0 79.14,0 79.14,-19"/>
<text text-anchor="middle" x="55.14" y="-7" font-family="Helvetica,sans-Serif" font-size="10.00">stdint.h</text>
</a>
</g>
</g>
<!-- Node1&#45;&gt;Node2 -->
<g id="edge1" class="edge">
<title>Node1&#45;&gt;Node2</title>
<path fill="none" stroke="#63b8ff" d="M33.65,-164.75C22.85,-156.87 8.49,-144.21 2.14,-129 -1.12,-121.21 0.09,-118.19 2.14,-110 9.78,-79.4 28.8,-47.89 41.85,-28.75"/>
<polygon fill="#63b8ff" stroke="#63b8ff" points="44.62,-30.9 47.5,-20.71 38.89,-26.88 44.62,-30.9"/>
</g>
<!-- Node3 -->
<g id="node3" class="node">
<title>Node3</title>
<g id="a_node3"><a xlink:href="bios__const_8h.html" target="_top" xlink:title="Constant variables in the MSX BIOS ROM.">
<polygon fill="white" stroke="#666666" points="82.64,-129 11.64,-129 11.64,-110 82.64,-110 82.64,-129"/>
<text text-anchor="middle" x="47.14" y="-117" font-family="Helvetica,sans-Serif" font-size="10.00">bios_const.h</text>
</a>
</g>
</g>
<!-- Node1&#45;&gt;Node3 -->
<g id="edge2" class="edge">
<title>Node1&#45;&gt;Node3</title>
<path fill="none" stroke="#63b8ff" d="M47.14,-164.75C47.14,-158.27 47.14,-149.16 47.14,-140.9"/>
<polygon fill="#63b8ff" stroke="#63b8ff" points="50.64,-140.96 47.14,-130.96 43.64,-140.96 50.64,-140.96"/>
</g>
<!-- Node5 -->
<g id="node5" class="node">
<title>Node5</title>
<g id="a_node5"><a xlink:href="bios__entry_8h.html" target="_top" xlink:title="Assembler entry points for MSX BIOS functions.">
<polygon fill="white" stroke="#666666" points="169.14,-129 101.14,-129 101.14,-110 169.14,-110 169.14,-129"/>
<text text-anchor="middle" x="135.14" y="-117" font-family="Helvetica,sans-Serif" font-size="10.00">bios_entry.h</text>
</a>
</g>
</g>
<!-- Node1&#45;&gt;Node5 -->
<g id="edge6" class="edge">
<title>Node1&#45;&gt;Node5</title>
<path fill="none" stroke="#63b8ff" d="M62.07,-164.51C75.42,-156.47 95.24,-144.53 110.87,-135.11"/>
<polygon fill="#63b8ff" stroke="#63b8ff" points="112.37,-138.3 119.13,-130.14 108.76,-132.3 112.37,-138.3"/>
</g>
<!-- Node3&#45;&gt;Node2 -->
<g id="edge3" class="edge">
<title>Node3&#45;&gt;Node2</title>
<path fill="none" stroke="#63b8ff" d="M46.89,-109.85C46.63,-97.62 46.45,-74.55 48.14,-55 48.83,-46.92 50.12,-38.08 51.39,-30.42"/>
<polygon fill="#63b8ff" stroke="#63b8ff" points="54.8,-31.27 53.11,-20.81 47.91,-30.04 54.8,-31.27"/>
</g>
<!-- Node4 -->
<g id="node4" class="node">
<title>Node4</title>
<g id="a_node4"><a xlink:href="config_8h.html" target="_top" xlink:title="Hack for C Compiler portability.">
<polygon fill="white" stroke="#666666" points="107.14,-74 57.14,-74 57.14,-55 107.14,-55 107.14,-74"/>
<text text-anchor="middle" x="82.14" y="-62" font-family="Helvetica,sans-Serif" font-size="10.00">config.h</text>
</a>
</g>
</g>
<!-- Node3&#45;&gt;Node4 -->
<g id="edge4" class="edge">
<title>Node3&#45;&gt;Node4</title>
<path fill="none" stroke="#63b8ff" d="M52.92,-109.75C57.55,-102.73 64.21,-92.64 70.01,-83.87"/>
<polygon fill="#63b8ff" stroke="#63b8ff" points="72.81,-85.98 75.4,-75.71 66.97,-82.12 72.81,-85.98"/>
</g>
<!-- Node4&#45;&gt;Node2 -->
<g id="edge5" class="edge">
<title>Node4&#45;&gt;Node2</title>
<path fill="none" stroke="#63b8ff" d="M77.68,-54.75C74.18,-47.88 69.19,-38.08 64.79,-29.45"/>
<polygon fill="#63b8ff" stroke="#63b8ff" points="68.04,-28.11 60.38,-20.79 61.8,-31.29 68.04,-28.11"/>
</g>
<!-- Node5&#45;&gt;Node2 -->
<g id="edge7" class="edge">
<title>Node5&#45;&gt;Node2</title>
<path fill="none" stroke="#63b8ff" d="M134.27,-109.5C132.63,-96.43 128.1,-71.91 116.14,-55 107.59,-42.91 94.71,-32.83 82.99,-25.34"/>
<polygon fill="#63b8ff" stroke="#63b8ff" points="84.8,-22.34 74.42,-20.21 81.21,-28.35 84.8,-22.34"/>
</g>
<!-- Node5&#45;&gt;Node4 -->
<g id="edge8" class="edge">
<title>Node5&#45;&gt;Node4</title>
<path fill="none" stroke="#63b8ff" d="M126.39,-109.75C118.99,-102.35 108.18,-91.54 99.09,-82.45"/>
<polygon fill="#63b8ff" stroke="#63b8ff" points="101.7,-80.11 92.15,-75.51 96.75,-85.06 101.7,-80.11"/>
</g>
</g>
</svg>
