<?xml version="1.0" encoding="UTF-8" standalone="no"?>
<!DOCTYPE svg PUBLIC "-//W3C//DTD SVG 1.1//EN"
 "http://www.w3.org/Graphics/SVG/1.1/DTD/svg11.dtd">
<!-- Generated by graphviz version 7.0.5 (20221223.1930)
 -->
<!-- Title: include/bios_entry.h Pages: 1 -->
<svg width="111pt" height="137pt"
 viewBox="0.00 0.00 111.00 137.00" xmlns="http://www.w3.org/2000/svg" xmlns:xlink="http://www.w3.org/1999/xlink">
<g id="graph0" class="graph" transform="scale(1 1) rotate(0) translate(4 133)">
<title>include/bios_entry.h</title>
<!-- Node1 -->
<g id="node1" class="node">
<title>Node1</title>
<g id="a_node1"><a xlink:title="Assembler entry points for MSX BIOS functions.">
<polygon fill="#999999" stroke="#666666" points="102,-129 0,-129 0,-110 102,-110 102,-129"/>
<text text-anchor="middle" x="51" y="-117" font-family="Helvetica,sans-Serif" font-size="10.00">include/bios_entry.h</text>
</a>
</g>
</g>
<!-- Node2 -->
<g id="node2" class="node">
<title>Node2</title>
<g id="a_node2"><a xlink:title=" ">
<polygon fill="#e0e0e0" stroke="#999999" points="75,-19 27,-19 27,0 75,0 75,-19"/>
<text text-anchor="middle" x="51" y="-7" font-family="Helvetica,sans-Serif" font-size="10.00">stdint.h</text>
</a>
</g>
</g>
<!-- Node1&#45;&gt;Node2 -->
<g id="edge1" class="edge">
<title>Node1&#45;&gt;Node2</title>
<path fill="none" stroke="#63b8ff" d="M49.02,-109.89C46.45,-97.69 42.46,-74.68 44,-55 44.63,-46.91 45.9,-38.07 47.19,-30.41"/>
<polygon fill="#63b8ff" stroke="#63b8ff" points="50.59,-31.27 48.93,-20.81 43.7,-30.02 50.59,-31.27"/>
</g>
<!-- Node3 -->
<g id="node3" class="node">
<title>Node3</title>
<g id="a_node3"><a xlink:href="config_8h.html" target="_top" xlink:title="Hack for C Compiler portability.">
<polygon fill="white" stroke="#666666" points="103,-74 53,-74 53,-55 103,-55 103,-74"/>
<text text-anchor="middle" x="78" y="-62" font-family="Helvetica,sans-Serif" font-size="10.00">config.h</text>
</a>
</g>
</g>
<!-- Node1&#45;&gt;Node3 -->
<g id="edge2" class="edge">
<title>Node1&#45;&gt;Node3</title>
<path fill="none" stroke="#63b8ff" d="M55.46,-109.75C58.95,-102.88 63.95,-93.08 68.35,-84.45"/>
<polygon fill="#63b8ff" stroke="#63b8ff" points="71.34,-86.29 72.76,-75.79 65.1,-83.11 71.34,-86.29"/>
</g>
<!-- Node3&#45;&gt;Node2 -->
<g id="edge3" class="edge">
<title>Node3&#45;&gt;Node2</title>
<path fill="none" stroke="#63b8ff" d="M73.54,-54.75C70.05,-47.88 65.05,-38.08 60.65,-29.45"/>
<polygon fill="#63b8ff" stroke="#63b8ff" points="63.9,-28.11 56.24,-20.79 57.66,-31.29 63.9,-28.11"/>
</g>
</g>
</svg>
