<?xml version="1.0" encoding="UTF-8" standalone="no"?>
<!DOCTYPE svg PUBLIC "-//W3C//DTD SVG 1.1//EN"
 "http://www.w3.org/Graphics/SVG/1.1/DTD/svg11.dtd">
<!-- Generated by graphviz version 3.0.0 (20221109.1736)
 -->
<!-- Title: include/bios.h Pages: 1 -->
<svg width="184pt" height="196pt"
 viewBox="0.00 0.00 184.00 196.00" xmlns="http://www.w3.org/2000/svg" xmlns:xlink="http://www.w3.org/1999/xlink">
<g id="graph0" class="graph" transform="scale(1 1) rotate(0) translate(4 192)">
<title>include/bios.h</title>
<!-- Node1 -->
<g id="node1" class="node">
<title>Node1</title>
<g id="a_node1"><a xlink:title="C language I/F for MSX BIOS routines.">
<polygon fill="#bfbfbf" stroke="black" points="0,-168.5 0,-187.5 76,-187.5 76,-168.5 0,-168.5"/>
<text text-anchor="middle" x="38" y="-175.5" font-family="Helvetica,sans-Serif" font-size="10.00">include/bios.h</text>
</a>
</g>
</g>
<!-- Node2 -->
<g id="node2" class="node">
<title>Node2</title>
<g id="a_node2"><a xlink:href="msx_8h.html" target="_top" xlink:title="Copyright (c) 2021 Daishi Mori (mori0091)">
<polygon fill="none" stroke="black" points="6,-0.5 6,-19.5 82,-19.5 82,-0.5 6,-0.5"/>
<text text-anchor="middle" x="44" y="-7.5" font-family="Helvetica,sans-Serif" font-size="10.00">include/msx.h</text>
</a>
</g>
</g>
<!-- Node1&#45;&gt;Node2 -->
<g id="edge1" class="edge">
<title>Node1&#45;&gt;Node2</title>
<path fill="none" stroke="midnightblue" d="M31.45,-158.7C28.89,-150.63 26.27,-140.96 25,-132 19.04,-89.89 33.99,-39.72 40.81,-19.79"/>
<polygon fill="midnightblue" stroke="midnightblue" points="28.14,-159.84 34.66,-168.2 34.77,-157.6 28.14,-159.84"/>
</g>
<!-- Node3 -->
<g id="node3" class="node">
<title>Node3</title>
<g id="a_node3"><a xlink:href="vdp_8h.html" target="_top" xlink:title="Data types and functions for VDP (Video Display Proccessor) access.">
<polygon fill="none" stroke="black" points="34,-112.5 34,-131.5 108,-131.5 108,-112.5 34,-112.5"/>
<text text-anchor="middle" x="71" y="-119.5" font-family="Helvetica,sans-Serif" font-size="10.00">include/vdp.h</text>
</a>
</g>
</g>
<!-- Node1&#45;&gt;Node3 -->
<g id="edge2" class="edge">
<title>Node1&#45;&gt;Node3</title>
<path fill="none" stroke="midnightblue" d="M48.83,-159.27C54.47,-150.05 61.12,-139.17 65.65,-131.75"/>
<polygon fill="midnightblue" stroke="midnightblue" points="45.68,-157.73 43.45,-168.08 51.65,-161.38 45.68,-157.73"/>
</g>
<!-- Node3&#45;&gt;Node2 -->
<g id="edge5" class="edge">
<title>Node3&#45;&gt;Node2</title>
<path fill="none" stroke="midnightblue" d="M66.42,-102.35C60.51,-78.25 50.46,-37.31 46.11,-19.59"/>
<polygon fill="midnightblue" stroke="midnightblue" points="63.1,-103.49 68.88,-112.37 69.9,-101.82 63.1,-103.49"/>
</g>
<!-- Node4 -->
<g id="node4" class="node">
<title>Node4</title>
<g id="a_node4"><a xlink:href="metasprite_8h.html" target="_top" xlink:title="Copyright (c) 2021 Daishi Mori (mori0091)">
<polygon fill="none" stroke="black" points="72,-56.5 72,-75.5 176,-75.5 176,-56.5 72,-56.5"/>
<text text-anchor="middle" x="124" y="-63.5" font-family="Helvetica,sans-Serif" font-size="10.00">include/metasprite.h</text>
</a>
</g>
</g>
<!-- Node3&#45;&gt;Node4 -->
<g id="edge3" class="edge">
<title>Node3&#45;&gt;Node4</title>
<path fill="none" stroke="midnightblue" d="M86.98,-104.72C96.32,-95.2 107.75,-83.56 115.41,-75.75"/>
<polygon fill="midnightblue" stroke="midnightblue" points="84.26,-102.49 79.75,-112.08 89.25,-107.4 84.26,-102.49"/>
</g>
<!-- Node4&#45;&gt;Node2 -->
<g id="edge4" class="edge">
<title>Node4&#45;&gt;Node2</title>
<path fill="none" stroke="midnightblue" d="M102.7,-50.62C88.08,-40.76 69.17,-27.99 56.82,-19.65"/>
<polygon fill="midnightblue" stroke="midnightblue" points="100.9,-53.63 111.15,-56.32 104.82,-47.83 100.9,-53.63"/>
</g>
</g>
</svg>
