<?xml version="1.0" encoding="UTF-8" standalone="no"?>
<!DOCTYPE svg PUBLIC "-//W3C//DTD SVG 1.1//EN"
 "http://www.w3.org/Graphics/SVG/1.1/DTD/svg11.dtd">
<!-- Generated by graphviz version 9.0.0 (20230911.1827)
 -->
<!-- Title: include/bios_const.h Pages: 1 -->
<svg width="255pt" height="304pt"
 viewBox="0.00 0.00 255.12 303.50" xmlns="http://www.w3.org/2000/svg" xmlns:xlink="http://www.w3.org/1999/xlink">
<g id="graph0" class="graph" transform="scale(1 1) rotate(0) translate(4 299.5)">
<title>include/bios_const.h</title>
<!-- Node1 -->
<g id="Node000001" class="node">
<title>Node1</title>
<g id="a_Node000001"><a xlink:title="Constant variables in the MSX BIOS ROM.">
<polygon fill="#999999" stroke="#666666" points="122.88,-295.5 18.38,-295.5 18.38,-276.25 122.88,-276.25 122.88,-295.5"/>
<text text-anchor="middle" x="70.62" y="-282" font-family="Helvetica,sans-Serif" font-size="10.00">include/bios_const.h</text>
</a>
</g>
</g>
<!-- Node2 -->
<g id="Node000002" class="node">
<title>Node2</title>
<g id="a_Node000002"><a xlink:href="bios_8h.html" target="_top" xlink:title="C language I/F for MSX BIOS routines.">
<polygon fill="white" stroke="#666666" points="75.25,-240.25 0,-240.25 0,-221 75.25,-221 75.25,-240.25"/>
<text text-anchor="middle" x="37.62" y="-226.75" font-family="Helvetica,sans-Serif" font-size="10.00">include/bios.h</text>
</a>
</g>
</g>
<!-- Node1&#45;&gt;Node2 -->
<g id="edge1_Node000001_Node000002" class="edge">
<title>Node1&#45;&gt;Node2</title>
<g id="a_edge1_Node000001_Node000002"><a xlink:title=" ">
<path fill="none" stroke="#63b8ff" d="M59.15,-266.37C53.75,-257.64 47.55,-247.64 43.19,-240.61"/>
<polygon fill="#63b8ff" stroke="#63b8ff" points="56.14,-268.14 64.38,-274.8 62.09,-264.45 56.14,-268.14"/>
</a>
</g>
</g>
<!-- Node7 -->
<g id="Node000007" class="node">
<title>Node7</title>
<g id="a_Node000007"><a xlink:href="workarea_8h.html" target="_top" xlink:title="Definitions of MSX SYSTEM Workarea.">
<polygon fill="white" stroke="#666666" points="247.12,-185 150.12,-185 150.12,-165.75 247.12,-165.75 247.12,-185"/>
<text text-anchor="middle" x="198.62" y="-171.5" font-family="Helvetica,sans-Serif" font-size="10.00">include/workarea.h</text>
</a>
</g>
</g>
<!-- Node1&#45;&gt;Node7 -->
<g id="edge9_Node000001_Node000007" class="edge">
<title>Node1&#45;&gt;Node7</title>
<g id="a_edge9_Node000001_Node000007"><a xlink:title=" ">
<path fill="none" stroke="#63b8ff" d="M89.77,-268.64C117.11,-245.47 166.41,-203.68 188.01,-185.38"/>
<polygon fill="#63b8ff" stroke="#63b8ff" points="87.62,-265.88 82.25,-275.02 92.15,-271.22 87.62,-265.88"/>
</a>
</g>
</g>
<!-- Node3 -->
<g id="Node000003" class="node">
<title>Node3</title>
<g id="a_Node000003"><a xlink:href="msx_8h.html" target="_top" xlink:title="Using #include &lt;msx.h&gt; includes almost all C header files in libmsx, for ease to use.">
<polygon fill="white" stroke="#666666" points="96.25,-19.25 21,-19.25 21,0 96.25,0 96.25,-19.25"/>
<text text-anchor="middle" x="58.62" y="-5.75" font-family="Helvetica,sans-Serif" font-size="10.00">include/msx.h</text>
</a>
</g>
</g>
<!-- Node2&#45;&gt;Node3 -->
<g id="edge2_Node000002_Node000003" class="edge">
<title>Node2&#45;&gt;Node3</title>
<g id="a_edge2_Node000002_Node000003"><a xlink:title=" ">
<path fill="none" stroke="#63b8ff" d="M22.46,-211.52C16.97,-203.84 11.44,-194.49 8.62,-185 6.19,-176.8 7.75,-174.26 8.62,-165.75 13.76,-115.85 13.27,-101.93 31.62,-55.25 36.79,-42.1 45.69,-28.41 51.85,-19.72"/>
<polygon fill="#63b8ff" stroke="#63b8ff" points="19.6,-213.55 28.48,-219.32 25.14,-209.26 19.6,-213.55"/>
</a>
</g>
</g>
<!-- Node4 -->
<g id="Node000004" class="node">
<title>Node4</title>
<g id="a_Node000004"><a xlink:href="vdp_8h.html" target="_top" xlink:title="Data types and functions for VDP (Video Display Proccessor) access.">
<polygon fill="white" stroke="#666666" points="115.12,-129.75 42.12,-129.75 42.12,-110.5 115.12,-110.5 115.12,-129.75"/>
<text text-anchor="middle" x="78.62" y="-116.25" font-family="Helvetica,sans-Serif" font-size="10.00">include/vdp.h</text>
</a>
</g>
</g>
<!-- Node2&#45;&gt;Node4 -->
<g id="edge3_Node000002_Node000004" class="edge">
<title>Node2&#45;&gt;Node4</title>
<g id="a_edge3_Node000002_Node000004"><a xlink:title=" ">
<path fill="none" stroke="#63b8ff" d="M23.6,-211.28C15.42,-198.19 8.06,-180.38 15.62,-165.75 24.18,-149.2 42.02,-137.47 56.54,-130.2"/>
<polygon fill="#63b8ff" stroke="#63b8ff" points="20.64,-213.14 29.21,-219.37 26.39,-209.16 20.64,-213.14"/>
</a>
</g>
</g>
<!-- Node6 -->
<g id="Node000006" class="node">
<title>Node6</title>
<g id="a_Node000006"><a xlink:href="vdp__unsafe_8h.html" target="_top" xlink:title="Unsafe primitive functions for VDP (Video Display Proccessor) access.">
<polygon fill="white" stroke="#666666" points="132.38,-185 24.88,-185 24.88,-165.75 132.38,-165.75 132.38,-185"/>
<text text-anchor="middle" x="78.62" y="-171.5" font-family="Helvetica,sans-Serif" font-size="10.00">include/vdp_unsafe.h</text>
</a>
</g>
</g>
<!-- Node2&#45;&gt;Node6 -->
<g id="edge7_Node000002_Node000006" class="edge">
<title>Node2&#45;&gt;Node6</title>
<g id="a_edge7_Node000002_Node000006"><a xlink:title=" ">
<path fill="none" stroke="#63b8ff" d="M51.21,-211.97C58.08,-203.06 66.12,-192.62 71.71,-185.36"/>
<polygon fill="#63b8ff" stroke="#63b8ff" points="48.65,-209.57 45.32,-219.63 54.19,-213.84 48.65,-209.57"/>
</a>
</g>
</g>
<!-- Node4&#45;&gt;Node3 -->
<g id="edge6_Node000004_Node000003" class="edge">
<title>Node4&#45;&gt;Node3</title>
<g id="a_edge6_Node000004_Node000003"><a xlink:title=" ">
<path fill="none" stroke="#63b8ff" d="M57.71,-102.45C49.84,-94.86 41.79,-85.18 37.62,-74.5 30.08,-55.14 43.18,-31.82 51.86,-19.41"/>
<polygon fill="#63b8ff" stroke="#63b8ff" points="55.37,-105.05 65.17,-109.07 60.01,-99.81 55.37,-105.05"/>
</a>
</g>
</g>
<!-- Node5 -->
<g id="Node000005" class="node">
<title>Node5</title>
<g id="a_Node000005"><a xlink:href="metasprite_8h.html" target="_top" xlink:title="Meta&#45;sprite ; an aggregate of sprites.">
<polygon fill="white" stroke="#666666" points="150.12,-74.5 47.12,-74.5 47.12,-55.25 150.12,-55.25 150.12,-74.5"/>
<text text-anchor="middle" x="98.62" y="-61" font-family="Helvetica,sans-Serif" font-size="10.00">include/metasprite.h</text>
</a>
</g>
</g>
<!-- Node4&#45;&gt;Node5 -->
<g id="edge4_Node000004_Node000005" class="edge">
<title>Node4&#45;&gt;Node5</title>
<g id="a_edge4_Node000004_Node000005"><a xlink:title=" ">
<path fill="none" stroke="#63b8ff" d="M85.9,-99.75C89.1,-91.24 92.7,-81.65 95.25,-74.86"/>
<polygon fill="#63b8ff" stroke="#63b8ff" points="82.7,-98.32 82.46,-108.91 89.25,-100.78 82.7,-98.32"/>
</a>
</g>
</g>
<!-- Node5&#45;&gt;Node3 -->
<g id="edge5_Node000005_Node000003" class="edge">
<title>Node5&#45;&gt;Node3</title>
<g id="a_edge5_Node000005_Node000003"><a xlink:title=" ">
<path fill="none" stroke="#63b8ff" d="M85.15,-45.94C78.5,-37.09 70.77,-26.79 65.37,-19.61"/>
<polygon fill="#63b8ff" stroke="#63b8ff" points="82.31,-47.98 91.11,-53.87 87.9,-43.77 82.31,-47.98"/>
</a>
</g>
</g>
<!-- Node6&#45;&gt;Node4 -->
<g id="edge8_Node000006_Node000004" class="edge">
<title>Node6&#45;&gt;Node4</title>
<g id="a_edge8_Node000006_Node000004"><a xlink:title=" ">
<path fill="none" stroke="#63b8ff" d="M78.62,-154.13C78.62,-145.84 78.62,-136.67 78.62,-130.11"/>
<polygon fill="#63b8ff" stroke="#63b8ff" points="75.13,-154.07 78.63,-164.07 82.13,-154.07 75.13,-154.07"/>
</a>
</g>
</g>
<!-- Node7&#45;&gt;Node3 -->
<g id="edge10_Node000007_Node000003" class="edge">
<title>Node7&#45;&gt;Node3</title>
<g id="a_edge10_Node000007_Node000003"><a xlink:title=" ">
<path fill="none" stroke="#63b8ff" d="M196.99,-154.03C193.88,-128.09 184.98,-83.27 159.62,-55.25 143.03,-36.91 117.51,-25.73 96.28,-19.14"/>
<polygon fill="#63b8ff" stroke="#63b8ff" points="193.49,-154.27 197.96,-163.88 200.46,-153.58 193.49,-154.27"/>
</a>
</g>
</g>
<!-- Node7&#45;&gt;Node4 -->
<g id="edge11_Node000007_Node000004" class="edge">
<title>Node7&#45;&gt;Node4</title>
<g id="a_edge11_Node000007_Node000004"><a xlink:title=" ">
<path fill="none" stroke="#63b8ff" d="M167.97,-160.77C146.35,-151.18 117.99,-138.59 99.08,-130.2"/>
<polygon fill="#63b8ff" stroke="#63b8ff" points="166.33,-163.87 176.89,-164.73 169.16,-157.47 166.33,-163.87"/>
</a>
</g>
</g>
</g>
</svg>
