<?xml version="1.0" encoding="UTF-8" standalone="no"?>
<!DOCTYPE svg PUBLIC "-//W3C//DTD SVG 1.1//EN"
 "http://www.w3.org/Graphics/SVG/1.1/DTD/svg11.dtd">
<!-- Generated by graphviz version 7.0.2 (20221119.0110)
 -->
<!-- Title: include/bios_entry.h Pages: 1 -->
<svg width="195pt" height="302pt"
 viewBox="0.00 0.00 195.00 302.00" xmlns="http://www.w3.org/2000/svg" xmlns:xlink="http://www.w3.org/1999/xlink">
<g id="graph0" class="graph" transform="scale(1 1) rotate(0) translate(4 298)">
<title>include/bios_entry.h</title>
<!-- Node1 -->
<g id="node1" class="node">
<title>Node1</title>
<g id="a_node1"><a xlink:title="Assembler entry points for MSX BIOS functions.">
<polygon fill="#999999" stroke="#666666" points="102,-294 0,-294 0,-275 102,-275 102,-294"/>
<text text-anchor="middle" x="51" y="-282" font-family="Helvetica,sans-Serif" font-size="10.00">include/bios_entry.h</text>
</a>
</g>
</g>
<!-- Node2 -->
<g id="node2" class="node">
<title>Node2</title>
<g id="a_node2"><a xlink:href="bios_8h.html" target="_top" xlink:title="C language I/F for MSX BIOS routines.">
<polygon fill="white" stroke="#666666" points="89,-239 13,-239 13,-220 89,-220 89,-239"/>
<text text-anchor="middle" x="51" y="-227" font-family="Helvetica,sans-Serif" font-size="10.00">include/bios.h</text>
</a>
</g>
</g>
<!-- Node1&#45;&gt;Node2 -->
<g id="edge1" class="edge">
<title>Node1&#45;&gt;Node2</title>
<path fill="none" stroke="#63b8ff" d="M51,-263.35C51,-255.1 51,-245.97 51,-239.44"/>
<polygon fill="#63b8ff" stroke="#63b8ff" points="47.5,-263.23 51,-273.23 54.5,-263.23 47.5,-263.23"/>
</g>
<!-- Node3 -->
<g id="node3" class="node">
<title>Node3</title>
<g id="a_node3"><a xlink:href="msx_8h.html" target="_top" xlink:title="Using #include &lt;msx.h&gt; includes almost all C header files in libmsx, for ease to use.">
<polygon fill="white" stroke="#666666" points="89,-19 13,-19 13,0 89,0 89,-19"/>
<text text-anchor="middle" x="51" y="-7" font-family="Helvetica,sans-Serif" font-size="10.00">include/msx.h</text>
</a>
</g>
</g>
<!-- Node2&#45;&gt;Node3 -->
<g id="edge2" class="edge">
<title>Node2&#45;&gt;Node3</title>
<path fill="none" stroke="#63b8ff" d="M51,-208.33C51,-162.31 51,-51.09 51,-19.19"/>
<polygon fill="#63b8ff" stroke="#63b8ff" points="47.5,-208.17 51,-218.17 54.5,-208.17 47.5,-208.17"/>
</g>
<!-- Node4 -->
<g id="node4" class="node">
<title>Node4</title>
<g id="a_node4"><a xlink:href="vdp_8h.html" target="_top" xlink:title="Data types and functions for VDP (Video Display Proccessor) access.">
<polygon fill="white" stroke="#666666" points="141,-129 67,-129 67,-110 141,-110 141,-129"/>
<text text-anchor="middle" x="104" y="-117" font-family="Helvetica,sans-Serif" font-size="10.00">include/vdp.h</text>
</a>
</g>
</g>
<!-- Node2&#45;&gt;Node4 -->
<g id="edge3" class="edge">
<title>Node2&#45;&gt;Node4</title>
<path fill="none" stroke="#63b8ff" d="M54.9,-209.03C57.94,-196.09 62.87,-178.98 70,-165 76.89,-151.49 88.01,-137.92 95.64,-129.38"/>
<polygon fill="#63b8ff" stroke="#63b8ff" points="51.56,-207.92 52.86,-218.43 58.4,-209.4 51.56,-207.92"/>
</g>
<!-- Node6 -->
<g id="node6" class="node">
<title>Node6</title>
<g id="a_node6"><a xlink:href="vdp__unsafe_8h.html" target="_top" xlink:title="Unsafe primitive functions for VDP (Video Display Proccessor) access.">
<polygon fill="white" stroke="#666666" points="187,-184 79,-184 79,-165 187,-165 187,-184"/>
<text text-anchor="middle" x="133" y="-172" font-family="Helvetica,sans-Serif" font-size="10.00">include/vdp_unsafe.h</text>
</a>
</g>
</g>
<!-- Node2&#45;&gt;Node6 -->
<g id="edge7" class="edge">
<title>Node2&#45;&gt;Node6</title>
<path fill="none" stroke="#63b8ff" d="M74.27,-213.46C88.81,-204.06 107.04,-192.28 119.3,-184.36"/>
<polygon fill="#63b8ff" stroke="#63b8ff" points="72.68,-210.32 66.18,-218.69 76.48,-216.2 72.68,-210.32"/>
</g>
<!-- Node4&#45;&gt;Node3 -->
<g id="edge6" class="edge">
<title>Node4&#45;&gt;Node3</title>
<path fill="none" stroke="#63b8ff" d="M88.34,-101.08C81.93,-93.24 74.9,-83.61 70,-74 60.59,-55.55 55.02,-31.65 52.54,-19.09"/>
<polygon fill="#63b8ff" stroke="#63b8ff" points="85.5,-103.15 94.66,-108.47 90.82,-98.6 85.5,-103.15"/>
</g>
<!-- Node5 -->
<g id="node5" class="node">
<title>Node5</title>
<g id="a_node5"><a xlink:href="metasprite_8h.html" target="_top" xlink:title="Meta&#45;sprite ; an aggregate of sprites.">
<polygon fill="white" stroke="#666666" points="183,-74 79,-74 79,-55 183,-55 183,-74"/>
<text text-anchor="middle" x="131" y="-62" font-family="Helvetica,sans-Serif" font-size="10.00">include/metasprite.h</text>
</a>
</g>
</g>
<!-- Node4&#45;&gt;Node5 -->
<g id="edge4" class="edge">
<title>Node4&#45;&gt;Node5</title>
<path fill="none" stroke="#63b8ff" d="M113.68,-99.5C118.03,-90.96 122.96,-81.28 126.44,-74.44"/>
<polygon fill="#63b8ff" stroke="#63b8ff" points="110.57,-97.9 109.15,-108.4 116.8,-101.08 110.57,-97.9"/>
</g>
<!-- Node5&#45;&gt;Node3 -->
<g id="edge5" class="edge">
<title>Node5&#45;&gt;Node3</title>
<path fill="none" stroke="#63b8ff" d="M107.89,-48.19C93.77,-38.84 76.22,-27.21 64.37,-19.36"/>
<polygon fill="#63b8ff" stroke="#63b8ff" points="105.9,-51.07 116.17,-53.67 109.76,-45.23 105.9,-51.07"/>
</g>
<!-- Node6&#45;&gt;Node4 -->
<g id="edge8" class="edge">
<title>Node6&#45;&gt;Node4</title>
<path fill="none" stroke="#63b8ff" d="M122.76,-154.79C118.05,-146.18 112.68,-136.36 108.89,-129.44"/>
<polygon fill="#63b8ff" stroke="#63b8ff" points="119.61,-156.33 127.48,-163.42 125.75,-152.97 119.61,-156.33"/>
</g>
</g>
</svg>
