<?xml version="1.0" encoding="UTF-8" standalone="no"?>
<!DOCTYPE svg PUBLIC "-//W3C//DTD SVG 1.1//EN"
 "http://www.w3.org/Graphics/SVG/1.1/DTD/svg11.dtd">
<!-- Generated by graphviz version 3.0.0 (20221109.1736)
 -->
<!-- Title: include/bios_entry.h Pages: 1 -->
<svg width="195pt" height="308pt"
 viewBox="0.00 0.00 195.00 308.00" xmlns="http://www.w3.org/2000/svg" xmlns:xlink="http://www.w3.org/1999/xlink">
<g id="graph0" class="graph" transform="scale(1 1) rotate(0) translate(4 304)">
<title>include/bios_entry.h</title>
<!-- Node1 -->
<g id="node1" class="node">
<title>Node1</title>
<g id="a_node1"><a xlink:title="Assembler entry points for MSX BIOS functions.">
<polygon fill="#bfbfbf" stroke="black" points="0,-280.5 0,-299.5 102,-299.5 102,-280.5 0,-280.5"/>
<text text-anchor="middle" x="51" y="-287.5" font-family="Helvetica,sans-Serif" font-size="10.00">include/bios_entry.h</text>
</a>
</g>
</g>
<!-- Node2 -->
<g id="node2" class="node">
<title>Node2</title>
<g id="a_node2"><a xlink:href="bios_8h.html" target="_top" xlink:title="C language I/F for MSX BIOS routines.">
<polygon fill="none" stroke="black" points="13,-224.5 13,-243.5 89,-243.5 89,-224.5 13,-224.5"/>
<text text-anchor="middle" x="51" y="-231.5" font-family="Helvetica,sans-Serif" font-size="10.00">include/bios.h</text>
</a>
</g>
</g>
<!-- Node1&#45;&gt;Node2 -->
<g id="edge1" class="edge">
<title>Node1&#45;&gt;Node2</title>
<path fill="none" stroke="midnightblue" d="M51,-269.8C51,-260.91 51,-250.78 51,-243.75"/>
<polygon fill="midnightblue" stroke="midnightblue" points="47.5,-270.08 51,-280.08 54.5,-270.08 47.5,-270.08"/>
</g>
<!-- Node3 -->
<g id="node3" class="node">
<title>Node3</title>
<g id="a_node3"><a xlink:href="msx_8h.html" target="_top" xlink:title="Using #include &lt;msx.h&gt; includes almost all C header files in libmsx, for ease to use.">
<polygon fill="none" stroke="black" points="13,-0.5 13,-19.5 89,-19.5 89,-0.5 13,-0.5"/>
<text text-anchor="middle" x="51" y="-7.5" font-family="Helvetica,sans-Serif" font-size="10.00">include/msx.h</text>
</a>
</g>
</g>
<!-- Node2&#45;&gt;Node3 -->
<g id="edge2" class="edge">
<title>Node2&#45;&gt;Node3</title>
<path fill="none" stroke="midnightblue" d="M51,-214.3C51,-168.64 51,-52.85 51,-19.88"/>
<polygon fill="midnightblue" stroke="midnightblue" points="47.5,-214.3 51,-224.3 54.5,-214.3 47.5,-214.3"/>
</g>
<!-- Node4 -->
<g id="node4" class="node">
<title>Node4</title>
<g id="a_node4"><a xlink:href="vdp_8h.html" target="_top" xlink:title="Data types and functions for VDP (Video Display Proccessor) access.">
<polygon fill="none" stroke="black" points="67,-112.5 67,-131.5 141,-131.5 141,-112.5 67,-112.5"/>
<text text-anchor="middle" x="104" y="-119.5" font-family="Helvetica,sans-Serif" font-size="10.00">include/vdp.h</text>
</a>
</g>
</g>
<!-- Node2&#45;&gt;Node4 -->
<g id="edge3" class="edge">
<title>Node2&#45;&gt;Node4</title>
<path fill="none" stroke="midnightblue" d="M54.57,-214.29C57.57,-200.93 62.58,-182.77 70,-168 76.95,-154.18 88.27,-140.28 95.92,-131.66"/>
<polygon fill="midnightblue" stroke="midnightblue" points="51.12,-213.71 52.52,-224.21 57.98,-215.13 51.12,-213.71"/>
</g>
<!-- Node6 -->
<g id="node6" class="node">
<title>Node6</title>
<g id="a_node6"><a xlink:href="vdp__unsafe_8h.html" target="_top" xlink:title="Unsafe primitive functions for VDP (Video Display Proccessor) access.">
<polygon fill="none" stroke="black" points="79,-168.5 79,-187.5 187,-187.5 187,-168.5 79,-168.5"/>
<text text-anchor="middle" x="133" y="-175.5" font-family="Helvetica,sans-Serif" font-size="10.00">include/vdp_unsafe.h</text>
</a>
</g>
</g>
<!-- Node2&#45;&gt;Node6 -->
<g id="edge7" class="edge">
<title>Node2&#45;&gt;Node6</title>
<path fill="none" stroke="midnightblue" d="M72.83,-218.62C87.81,-208.76 107.2,-195.99 119.86,-187.65"/>
<polygon fill="midnightblue" stroke="midnightblue" points="70.6,-215.9 64.17,-224.32 74.45,-221.75 70.6,-215.9"/>
</g>
<!-- Node4&#45;&gt;Node3 -->
<g id="edge6" class="edge">
<title>Node4&#45;&gt;Node3</title>
<path fill="none" stroke="midnightblue" d="M89.41,-104.72C82.72,-96.56 75.16,-86.26 70,-76 60.5,-57.09 54.96,-32.64 52.52,-19.79"/>
<polygon fill="midnightblue" stroke="midnightblue" points="86.77,-107.01 95.92,-112.34 92.09,-102.46 86.77,-107.01"/>
</g>
<!-- Node5 -->
<g id="node5" class="node">
<title>Node5</title>
<g id="a_node5"><a xlink:href="metasprite_8h.html" target="_top" xlink:title="Meta&#45;sprite ; an aggregate of sprites.">
<polygon fill="none" stroke="black" points="79,-56.5 79,-75.5 183,-75.5 183,-56.5 79,-56.5"/>
<text text-anchor="middle" x="131" y="-63.5" font-family="Helvetica,sans-Serif" font-size="10.00">include/metasprite.h</text>
</a>
</g>
</g>
<!-- Node4&#45;&gt;Node5 -->
<g id="edge4" class="edge">
<title>Node4&#45;&gt;Node5</title>
<path fill="none" stroke="midnightblue" d="M113.01,-102.98C117.59,-93.82 122.95,-83.09 126.62,-75.75"/>
<polygon fill="midnightblue" stroke="midnightblue" points="109.8,-101.57 108.46,-112.08 116.06,-104.7 109.8,-101.57"/>
</g>
<!-- Node5&#45;&gt;Node3 -->
<g id="edge5" class="edge">
<title>Node5&#45;&gt;Node3</title>
<path fill="none" stroke="midnightblue" d="M109.7,-50.62C95.08,-40.76 76.17,-27.99 63.82,-19.65"/>
<polygon fill="midnightblue" stroke="midnightblue" points="107.9,-53.63 118.15,-56.32 111.82,-47.83 107.9,-53.63"/>
</g>
<!-- Node6&#45;&gt;Node4 -->
<g id="edge8" class="edge">
<title>Node6&#45;&gt;Node4</title>
<path fill="none" stroke="midnightblue" d="M123.32,-158.98C118.4,-149.82 112.64,-139.09 108.7,-131.75"/>
<polygon fill="midnightblue" stroke="midnightblue" points="120.4,-160.93 128.21,-168.08 126.56,-157.62 120.4,-160.93"/>
</g>
</g>
</svg>
