<?xml version="1.0" encoding="UTF-8" standalone="no"?>
<!DOCTYPE svg PUBLIC "-//W3C//DTD SVG 1.1//EN"
 "http://www.w3.org/Graphics/SVG/1.1/DTD/svg11.dtd">
<!-- Generated by graphviz version 9.0.0 (20230911.1827)
 -->
<!-- Title: include/bios.h Pages: 1 -->
<svg width="175pt" height="193pt"
 viewBox="0.00 0.00 175.00 193.00" xmlns="http://www.w3.org/2000/svg" xmlns:xlink="http://www.w3.org/1999/xlink">
<g id="graph0" class="graph" transform="scale(1 1) rotate(0) translate(4 189)">
<title>include/bios.h</title>
<!-- Node1 -->
<g id="Node000001" class="node">
<title>Node1</title>
<g id="a_Node000001"><a xlink:title="C language I/F for MSX BIOS routines.">
<polygon fill="#999999" stroke="#666666" points="83.75,-185 8.5,-185 8.5,-165.75 83.75,-165.75 83.75,-185"/>
<text text-anchor="middle" x="46.12" y="-171.5" font-family="Helvetica,sans-Serif" font-size="10.00">include/bios.h</text>
</a>
</g>
</g>
<!-- Node2 -->
<g id="Node000002" class="node">
<title>Node2</title>
<g id="a_Node000002"><a xlink:title=" ">
<polygon fill="#e0e0e0" stroke="#999999" points="76.87,-19.25 29.37,-19.25 29.37,0 76.87,0 76.87,-19.25"/>
<text text-anchor="middle" x="53.12" y="-5.75" font-family="Helvetica,sans-Serif" font-size="10.00">stdint.h</text>
</a>
</g>
</g>
<!-- Node1&#45;&gt;Node2 -->
<g id="edge1_Node000001_Node000002" class="edge">
<title>Node1&#45;&gt;Node2</title>
<g id="a_edge1_Node000001_Node000002"><a xlink:title=" ">
<path fill="none" stroke="#63b8ff" d="M32.92,-165.52C22.36,-157.58 8.32,-144.85 2.12,-129.75 -1.12,-121.83 0.12,-118.82 2.12,-110.5 9.46,-79.99 27.77,-48.32 40.33,-29.03"/>
<polygon fill="#63b8ff" stroke="#63b8ff" points="43.1,-31.19 45.77,-20.94 37.29,-27.29 43.1,-31.19"/>
</a>
</g>
</g>
<!-- Node3 -->
<g id="Node000003" class="node">
<title>Node3</title>
<g id="a_Node000003"><a xlink:href="bios__const_8h.html" target="_top" xlink:title="Constant variables in the MSX BIOS ROM.">
<polygon fill="white" stroke="#666666" points="81.5,-129.75 10.75,-129.75 10.75,-110.5 81.5,-110.5 81.5,-129.75"/>
<text text-anchor="middle" x="46.12" y="-116.25" font-family="Helvetica,sans-Serif" font-size="10.00">bios_const.h</text>
</a>
</g>
</g>
<!-- Node1&#45;&gt;Node3 -->
<g id="edge2_Node000001_Node000003" class="edge">
<title>Node1&#45;&gt;Node3</title>
<g id="a_edge2_Node000001_Node000003"><a xlink:title=" ">
<path fill="none" stroke="#63b8ff" d="M46.12,-165.58C46.12,-159.07 46.12,-149.92 46.12,-141.62"/>
<polygon fill="#63b8ff" stroke="#63b8ff" points="49.62,-141.62 46.12,-131.62 42.62,-141.62 49.62,-141.62"/>
</a>
</g>
</g>
<!-- Node5 -->
<g id="Node000005" class="node">
<title>Node5</title>
<g id="a_Node000005"><a xlink:href="bios__entry_8h.html" target="_top" xlink:title="Assembler entry points for MSX BIOS functions.">
<polygon fill="white" stroke="#666666" points="167,-129.75 99.25,-129.75 99.25,-110.5 167,-110.5 167,-129.75"/>
<text text-anchor="middle" x="133.12" y="-116.25" font-family="Helvetica,sans-Serif" font-size="10.00">bios_entry.h</text>
</a>
</g>
</g>
<!-- Node1&#45;&gt;Node5 -->
<g id="edge6_Node000001_Node000005" class="edge">
<title>Node1&#45;&gt;Node5</title>
<g id="a_edge6_Node000001_Node000005"><a xlink:title=" ">
<path fill="none" stroke="#63b8ff" d="M60.88,-165.34C74.01,-157.31 93.45,-145.41 108.86,-135.98"/>
<polygon fill="#63b8ff" stroke="#63b8ff" points="110.3,-139.2 117,-130.99 106.65,-133.23 110.3,-139.2"/>
</a>
</g>
</g>
<!-- Node3&#45;&gt;Node2 -->
<g id="edge3_Node000003_Node000002" class="edge">
<title>Node3&#45;&gt;Node2</title>
<g id="a_edge3_Node000003_Node000002"><a xlink:title=" ">
<path fill="none" stroke="#63b8ff" d="M45.68,-110.01C45.18,-97.6 44.61,-74.71 46.12,-55.25 46.76,-47.14 48.03,-38.27 49.31,-30.6"/>
<polygon fill="#63b8ff" stroke="#63b8ff" points="52.72,-31.42 51.05,-20.96 45.83,-30.18 52.72,-31.42"/>
</a>
</g>
</g>
<!-- Node4 -->
<g id="Node000004" class="node">
<title>Node4</title>
<g id="a_Node000004"><a xlink:href="config_8h.html" target="_top" xlink:title="Hack for C Compiler portability.">
<polygon fill="white" stroke="#666666" points="104.62,-74.5 55.62,-74.5 55.62,-55.25 104.62,-55.25 104.62,-74.5"/>
<text text-anchor="middle" x="80.12" y="-61" font-family="Helvetica,sans-Serif" font-size="10.00">config.h</text>
</a>
</g>
</g>
<!-- Node3&#45;&gt;Node4 -->
<g id="edge4_Node000003_Node000004" class="edge">
<title>Node3&#45;&gt;Node4</title>
<g id="a_edge4_Node000003_Node000004"><a xlink:title=" ">
<path fill="none" stroke="#63b8ff" d="M51.74,-110.33C56.24,-103.28 62.71,-93.15 68.34,-84.33"/>
<polygon fill="#63b8ff" stroke="#63b8ff" points="71.14,-86.45 73.57,-76.13 65.24,-82.68 71.14,-86.45"/>
</a>
</g>
</g>
<!-- Node4&#45;&gt;Node2 -->
<g id="edge5_Node000004_Node000002" class="edge">
<title>Node4&#45;&gt;Node2</title>
<g id="a_edge5_Node000004_Node000002"><a xlink:title=" ">
<path fill="none" stroke="#63b8ff" d="M75.66,-55.08C72.17,-48.19 67.17,-38.34 62.78,-29.66"/>
<polygon fill="#63b8ff" stroke="#63b8ff" points="66.01,-28.3 58.36,-20.96 59.76,-31.46 66.01,-28.3"/>
</a>
</g>
</g>
<!-- Node5&#45;&gt;Node2 -->
<g id="edge7_Node000005_Node000002" class="edge">
<title>Node5&#45;&gt;Node2</title>
<g id="a_edge7_Node000005_Node000002"><a xlink:title=" ">
<path fill="none" stroke="#63b8ff" d="M132.08,-110.09C130.2,-96.96 125.23,-72.31 113.12,-55.25 104.64,-43.3 91.96,-33.21 80.45,-25.66"/>
<polygon fill="#63b8ff" stroke="#63b8ff" points="82.4,-22.75 72.05,-20.49 78.73,-28.71 82.4,-22.75"/>
</a>
</g>
</g>
<!-- Node5&#45;&gt;Node4 -->
<g id="edge8_Node000005_Node000004" class="edge">
<title>Node5&#45;&gt;Node4</title>
<g id="a_edge8_Node000005_Node000004"><a xlink:title=" ">
<path fill="none" stroke="#63b8ff" d="M124.37,-110.33C116.97,-102.9 106.16,-92.04 97.08,-82.91"/>
<polygon fill="#63b8ff" stroke="#63b8ff" points="99.67,-80.55 90.13,-75.93 94.71,-85.49 99.67,-80.55"/>
</a>
</g>
</g>
</g>
</svg>
