<?xml version="1.0" encoding="UTF-8" standalone="no"?>
<!DOCTYPE svg PUBLIC "-//W3C//DTD SVG 1.1//EN"
 "http://www.w3.org/Graphics/SVG/1.1/DTD/svg11.dtd">
<!-- Generated by graphviz version 2.43.0 (0)
 -->
<!-- Title: include/bios.h Pages: 1 -->
<svg width="5022pt" height="207pt"
 viewBox="0.00 0.00 5021.50 207.00" xmlns="http://www.w3.org/2000/svg" xmlns:xlink="http://www.w3.org/1999/xlink">
<g id="graph0" class="graph" transform="scale(1 1) rotate(0) translate(4 203)">
<title>include/bios.h</title>
<!-- Node1 -->
<g id="node1" class="node">
<title>Node1</title>
<g id="a_node1"><a xlink:title=" ">
<polygon fill="#bfbfbf" stroke="black" points="3830,-179.5 3830,-198.5 3914,-198.5 3914,-179.5 3830,-179.5"/>
<text text-anchor="middle" x="3872" y="-186.5" font-family="Helvetica,sans-Serif" font-size="10.00">include/bios.h</text>
</a>
</g>
</g>
<!-- Node2 -->
<g id="node2" class="node">
<title>Node2</title>
<g id="a_node2"><a xlink:href="vdp_8h.html" target="_top" xlink:title=" ">
<polygon fill="none" stroke="black" points="2695,-123.5 2695,-142.5 2777,-142.5 2777,-123.5 2695,-123.5"/>
<text text-anchor="middle" x="2736" y="-130.5" font-family="Helvetica,sans-Serif" font-size="10.00">include/vdp.h</text>
</a>
</g>
</g>
<!-- Node1&#45;&gt;Node2 -->
<g id="edge1" class="edge">
<title>Node1&#45;&gt;Node2</title>
<path fill="none" stroke="midnightblue" d="M3819.68,-185.51C3625.9,-176.3 2951.25,-144.23 2777.21,-135.96"/>
<polygon fill="midnightblue" stroke="midnightblue" points="3819.73,-189.02 3829.88,-186 3820.06,-182.03 3819.73,-189.02"/>
</g>
<!-- Node4 -->
<g id="node4" class="node">
<title>Node4</title>
<g id="a_node4"><a xlink:href="msx_8h.html" target="_top" xlink:title=" ">
<polygon fill="none" stroke="black" points="4928.5,-0.5 4928.5,-19.5 5013.5,-19.5 5013.5,-0.5 4928.5,-0.5"/>
<text text-anchor="middle" x="4971" y="-7.5" font-family="Helvetica,sans-Serif" font-size="10.00">include/msx.h</text>
</a>
</g>
</g>
<!-- Node1&#45;&gt;Node4 -->
<g id="edge42" class="edge">
<title>Node1&#45;&gt;Node4</title>
<path fill="none" stroke="midnightblue" d="M3924.1,-187.25C4133.03,-183.71 4902.44,-165.41 4974,-87 4991,-68.37 4980.96,-35.23 4974.77,-19.61"/>
<polygon fill="midnightblue" stroke="midnightblue" points="3923.94,-183.75 3914,-187.42 3924.06,-190.75 3923.94,-183.75"/>
</g>
<!-- Node3 -->
<g id="node3" class="node">
<title>Node3</title>
<g id="a_node3"><a xlink:href="metasprite_8h.html" target="_top" xlink:title=" ">
<polygon fill="none" stroke="black" points="207.5,-62 207.5,-81 324.5,-81 324.5,-62 207.5,-62"/>
<text text-anchor="middle" x="266" y="-69" font-family="Helvetica,sans-Serif" font-size="10.00">include/metasprite.h</text>
</a>
</g>
</g>
<!-- Node2&#45;&gt;Node3 -->
<g id="edge2" class="edge">
<title>Node2&#45;&gt;Node3</title>
<path fill="none" stroke="midnightblue" d="M2684.46,-131.63C2357.19,-129.18 574.69,-114.66 334,-87 322.73,-85.7 310.56,-83.41 299.69,-81.01"/>
<polygon fill="midnightblue" stroke="midnightblue" points="2684.57,-135.13 2694.6,-131.7 2684.63,-128.13 2684.57,-135.13"/>
</g>
<!-- Node2&#45;&gt;Node4 -->
<g id="edge7" class="edge">
<title>Node2&#45;&gt;Node4</title>
<path fill="none" stroke="midnightblue" d="M2787.59,-131.81C3116.52,-130.52 4908.28,-121.85 4952,-87 4972.42,-70.72 4972.9,-36.11 4971.86,-19.82"/>
<polygon fill="midnightblue" stroke="midnightblue" points="2787.38,-128.31 2777.4,-131.85 2787.41,-135.31 2787.38,-128.31"/>
</g>
<!-- Node8 -->
<g id="node8" class="node">
<title>Node8</title>
<g id="a_node8"><a xlink:href="vdp_8c.html" target="_top" xlink:title=" ">
<polygon fill="none" stroke="black" points="343,-62 343,-81 403,-81 403,-62 343,-62"/>
<text text-anchor="middle" x="373" y="-69" font-family="Helvetica,sans-Serif" font-size="10.00">src/vdp.c</text>
</a>
</g>
</g>
<!-- Node2&#45;&gt;Node8 -->
<g id="edge8" class="edge">
<title>Node2&#45;&gt;Node8</title>
<path fill="none" stroke="midnightblue" d="M2684.57,-132.04C2363.64,-132.15 641.94,-130.66 412,-87 405.33,-85.73 398.3,-83.44 392.07,-81.05"/>
<polygon fill="midnightblue" stroke="midnightblue" points="2684.96,-135.54 2694.96,-132.03 2684.96,-128.54 2684.96,-135.54"/>
</g>
<!-- Node9 -->
<g id="node9" class="node">
<title>Node9</title>
<g id="a_node9"><a xlink:href="vdp__cmd__execute__HMMM_8c.html" target="_top" xlink:title=" ">
<polygon fill="none" stroke="black" points="421,-56.5 421,-86.5 543,-86.5 543,-56.5 421,-56.5"/>
<text text-anchor="start" x="429" y="-74.5" font-family="Helvetica,sans-Serif" font-size="10.00">src/vdp_cmd_execute</text>
<text text-anchor="middle" x="482" y="-63.5" font-family="Helvetica,sans-Serif" font-size="10.00">_HMMM.c</text>
</a>
</g>
</g>
<!-- Node2&#45;&gt;Node9 -->
<g id="edge9" class="edge">
<title>Node2&#45;&gt;Node9</title>
<path fill="none" stroke="midnightblue" d="M2684.68,-132.22C2397.25,-133.27 984.51,-135.83 552,-87 549.16,-86.68 546.27,-86.3 543.36,-85.87"/>
<polygon fill="midnightblue" stroke="midnightblue" points="2684.83,-135.72 2694.82,-132.18 2684.81,-128.72 2684.83,-135.72"/>
</g>
<!-- Node10 -->
<g id="node10" class="node">
<title>Node10</title>
<g id="a_node10"><a xlink:href="vdp__cmd__execute__HMMV_8c.html" target="_top" xlink:title=" ">
<polygon fill="none" stroke="black" points="561,-56.5 561,-86.5 683,-86.5 683,-56.5 561,-56.5"/>
<text text-anchor="start" x="569" y="-74.5" font-family="Helvetica,sans-Serif" font-size="10.00">src/vdp_cmd_execute</text>
<text text-anchor="middle" x="622" y="-63.5" font-family="Helvetica,sans-Serif" font-size="10.00">_HMMV.c</text>
</a>
</g>
</g>
<!-- Node2&#45;&gt;Node10 -->
<g id="edge10" class="edge">
<title>Node2&#45;&gt;Node10</title>
<path fill="none" stroke="midnightblue" d="M2684.48,-132.14C2407.72,-132.69 1095.04,-132.79 692,-87 689.16,-86.68 686.27,-86.3 683.36,-85.87"/>
<polygon fill="midnightblue" stroke="midnightblue" points="2684.64,-135.64 2694.64,-132.12 2684.63,-128.64 2684.64,-135.64"/>
</g>
<!-- Node11 -->
<g id="node11" class="node">
<title>Node11</title>
<g id="a_node11"><a xlink:href="vdp__cmd__execute__LMMM_8c.html" target="_top" xlink:title=" ">
<polygon fill="none" stroke="black" points="701,-56.5 701,-86.5 823,-86.5 823,-56.5 701,-56.5"/>
<text text-anchor="start" x="709" y="-74.5" font-family="Helvetica,sans-Serif" font-size="10.00">src/vdp_cmd_execute</text>
<text text-anchor="middle" x="762" y="-63.5" font-family="Helvetica,sans-Serif" font-size="10.00">_LMMM.c</text>
</a>
</g>
</g>
<!-- Node2&#45;&gt;Node11 -->
<g id="edge11" class="edge">
<title>Node2&#45;&gt;Node11</title>
<path fill="none" stroke="midnightblue" d="M2684.65,-132.04C2419.76,-132.06 1205.81,-129.78 832,-87 829.16,-86.68 826.27,-86.29 823.36,-85.86"/>
<polygon fill="midnightblue" stroke="midnightblue" points="2684.75,-135.54 2694.75,-132.04 2684.75,-128.54 2684.75,-135.54"/>
</g>
<!-- Node12 -->
<g id="node12" class="node">
<title>Node12</title>
<g id="a_node12"><a xlink:href="vdp__cmd__execute__LMMV_8c.html" target="_top" xlink:title=" ">
<polygon fill="none" stroke="black" points="841,-56.5 841,-86.5 963,-86.5 963,-56.5 841,-56.5"/>
<text text-anchor="start" x="849" y="-74.5" font-family="Helvetica,sans-Serif" font-size="10.00">src/vdp_cmd_execute</text>
<text text-anchor="middle" x="902" y="-63.5" font-family="Helvetica,sans-Serif" font-size="10.00">_LMMV.c</text>
</a>
</g>
</g>
<!-- Node2&#45;&gt;Node12 -->
<g id="edge12" class="edge">
<title>Node2&#45;&gt;Node12</title>
<path fill="none" stroke="midnightblue" d="M2684.81,-131.93C2432.17,-131.39 1316.63,-126.77 972,-87 969.16,-86.67 966.27,-86.29 963.36,-85.86"/>
<polygon fill="midnightblue" stroke="midnightblue" points="2684.81,-135.43 2694.81,-131.95 2684.82,-128.43 2684.81,-135.43"/>
</g>
<!-- Node13 -->
<g id="node13" class="node">
<title>Node13</title>
<g id="a_node13"><a xlink:href="vdp__cmd__set__unrestricted_8c.html" target="_top" xlink:title=" ">
<polygon fill="none" stroke="black" points="981,-62 981,-81 1151,-81 1151,-62 981,-62"/>
<text text-anchor="middle" x="1066" y="-69" font-family="Helvetica,sans-Serif" font-size="10.00">src/vdp_cmd_set_unrestricted.c</text>
</a>
</g>
</g>
<!-- Node2&#45;&gt;Node13 -->
<g id="edge13" class="edge">
<title>Node2&#45;&gt;Node13</title>
<path fill="none" stroke="midnightblue" d="M2684.69,-131.4C2448.72,-128.48 1466.21,-114.88 1160,-87 1144.87,-85.62 1128.48,-83.36 1113.68,-81.03"/>
<polygon fill="midnightblue" stroke="midnightblue" points="2684.67,-134.9 2694.72,-131.52 2684.76,-127.9 2684.67,-134.9"/>
</g>
<!-- Node14 -->
<g id="node14" class="node">
<title>Node14</title>
<g id="a_node14"><a xlink:href="vdp__get__sprite__mode_8c.html" target="_top" xlink:title=" ">
<polygon fill="none" stroke="black" points="1169,-56.5 1169,-86.5 1275,-86.5 1275,-56.5 1169,-56.5"/>
<text text-anchor="start" x="1177" y="-74.5" font-family="Helvetica,sans-Serif" font-size="10.00">src/vdp_get_sprite</text>
<text text-anchor="middle" x="1222" y="-63.5" font-family="Helvetica,sans-Serif" font-size="10.00">_mode.c</text>
</a>
</g>
</g>
<!-- Node2&#45;&gt;Node14 -->
<g id="edge14" class="edge">
<title>Node2&#45;&gt;Node14</title>
<path fill="none" stroke="midnightblue" d="M2684.74,-131.78C2460.32,-130.59 1563.23,-123.61 1284,-87 1281.15,-86.63 1278.24,-86.18 1275.31,-85.68"/>
<polygon fill="midnightblue" stroke="midnightblue" points="2684.89,-135.28 2694.91,-131.83 2684.93,-128.28 2684.89,-135.28"/>
</g>
<!-- Node15 -->
<g id="node15" class="node">
<title>Node15</title>
<g id="a_node15"><a xlink:href="vdp__get__status_8c.html" target="_top" xlink:title=" ">
<polygon fill="none" stroke="black" points="1293,-62 1293,-81 1409,-81 1409,-62 1293,-62"/>
<text text-anchor="middle" x="1351" y="-69" font-family="Helvetica,sans-Serif" font-size="10.00">src/vdp_get_status.c</text>
</a>
</g>
</g>
<!-- Node2&#45;&gt;Node15 -->
<g id="edge15" class="edge">
<title>Node2&#45;&gt;Node15</title>
<path fill="none" stroke="midnightblue" d="M2684.73,-131.48C2473.48,-129.13 1669.78,-118.29 1418,-87 1407.13,-85.65 1395.43,-83.4 1384.88,-81.07"/>
<polygon fill="midnightblue" stroke="midnightblue" points="2684.88,-134.98 2694.92,-131.59 2684.96,-127.98 2684.88,-134.98"/>
</g>
<!-- Node16 -->
<g id="node16" class="node">
<title>Node16</title>
<g id="a_node16"><a xlink:href="vdp__set__adjust_8c.html" target="_top" xlink:title=" ">
<polygon fill="none" stroke="black" points="1427,-62 1427,-81 1543,-81 1543,-62 1427,-62"/>
<text text-anchor="middle" x="1485" y="-69" font-family="Helvetica,sans-Serif" font-size="10.00">src/vdp_set_adjust.c</text>
</a>
</g>
</g>
<!-- Node2&#45;&gt;Node16 -->
<g id="edge16" class="edge">
<title>Node2&#45;&gt;Node16</title>
<path fill="none" stroke="midnightblue" d="M2684.84,-131.25C2487.57,-128.17 1776.18,-115.3 1552,-87 1541.14,-85.63 1529.43,-83.37 1518.89,-81.04"/>
<polygon fill="midnightblue" stroke="midnightblue" points="2684.88,-134.75 2694.93,-131.4 2684.99,-127.75 2684.88,-134.75"/>
</g>
<!-- Node17 -->
<g id="node17" class="node">
<title>Node17</title>
<g id="a_node17"><a xlink:href="vdp__set__color_8c.html" target="_top" xlink:title=" ">
<polygon fill="none" stroke="black" points="1561.5,-62 1561.5,-81 1670.5,-81 1670.5,-62 1561.5,-62"/>
<text text-anchor="middle" x="1616" y="-69" font-family="Helvetica,sans-Serif" font-size="10.00">src/vdp_set_color.c</text>
</a>
</g>
</g>
<!-- Node2&#45;&gt;Node17 -->
<g id="edge17" class="edge">
<title>Node2&#45;&gt;Node17</title>
<path fill="none" stroke="midnightblue" d="M2684.71,-131.04C2501.21,-127.41 1877.71,-113.39 1680,-87 1669.61,-85.61 1658.42,-83.35 1648.35,-81.02"/>
<polygon fill="midnightblue" stroke="midnightblue" points="2684.83,-134.54 2694.9,-131.24 2684.97,-127.54 2684.83,-134.54"/>
</g>
<!-- Node18 -->
<g id="node18" class="node">
<title>Node18</title>
<g id="a_node18"><a xlink:href="vdp__set__color__table_8c.html" target="_top" xlink:title=" ">
<polygon fill="none" stroke="black" points="1689,-62 1689,-81 1829,-81 1829,-62 1689,-62"/>
<text text-anchor="middle" x="1759" y="-69" font-family="Helvetica,sans-Serif" font-size="10.00">src/vdp_set_color_table.c</text>
</a>
</g>
</g>
<!-- Node2&#45;&gt;Node18 -->
<g id="edge18" class="edge">
<title>Node2&#45;&gt;Node18</title>
<path fill="none" stroke="midnightblue" d="M2684.41,-131.78C2546.56,-130.69 2158.37,-124.26 1838,-87 1825.53,-85.55 1812.07,-83.33 1799.85,-81.05"/>
<polygon fill="midnightblue" stroke="midnightblue" points="2684.64,-135.28 2694.67,-131.86 2684.69,-128.28 2684.64,-135.28"/>
</g>
<!-- Node19 -->
<g id="node19" class="node">
<title>Node19</title>
<g id="a_node19"><a xlink:href="vdp__set__control_8c.html" target="_top" xlink:title=" ">
<polygon fill="none" stroke="black" points="1847.5,-62 1847.5,-81 1966.5,-81 1966.5,-62 1847.5,-62"/>
<text text-anchor="middle" x="1907" y="-69" font-family="Helvetica,sans-Serif" font-size="10.00">src/vdp_set_control.c</text>
</a>
</g>
</g>
<!-- Node2&#45;&gt;Node19 -->
<g id="edge19" class="edge">
<title>Node2&#45;&gt;Node19</title>
<path fill="none" stroke="midnightblue" d="M2684.34,-131.57C2561.18,-129.98 2240.78,-122.46 1976,-87 1965.08,-85.54 1953.31,-83.31 1942.64,-81.04"/>
<polygon fill="midnightblue" stroke="midnightblue" points="2684.56,-135.07 2694.6,-131.7 2684.65,-128.07 2684.56,-135.07"/>
</g>
<!-- Node20 -->
<g id="node20" class="node">
<title>Node20</title>
<g id="a_node20"><a xlink:href="vdp__set__hscroll_8c.html" target="_top" xlink:title=" ">
<polygon fill="none" stroke="black" points="1985,-62 1985,-81 2103,-81 2103,-62 1985,-62"/>
<text text-anchor="middle" x="2044" y="-69" font-family="Helvetica,sans-Serif" font-size="10.00">src/vdp_set_hscroll.c</text>
</a>
</g>
</g>
<!-- Node2&#45;&gt;Node20 -->
<g id="edge20" class="edge">
<title>Node2&#45;&gt;Node20</title>
<path fill="none" stroke="midnightblue" d="M2684.72,-130.7C2577.76,-127.45 2323.26,-117 2112,-87 2101.36,-85.49 2089.9,-83.28 2079.48,-81.03"/>
<polygon fill="midnightblue" stroke="midnightblue" points="2684.81,-134.2 2694.91,-131 2685.01,-127.2 2684.81,-134.2"/>
</g>
<!-- Node21 -->
<g id="node21" class="node">
<title>Node21</title>
<g id="a_node21"><a xlink:href="vdp__set__hscroll__dual__page_8c.html" target="_top" xlink:title=" ">
<polygon fill="none" stroke="black" points="2121,-56.5 2121,-86.5 2231,-86.5 2231,-56.5 2121,-56.5"/>
<text text-anchor="start" x="2129" y="-74.5" font-family="Helvetica,sans-Serif" font-size="10.00">src/vdp_set_hscroll</text>
<text text-anchor="middle" x="2176" y="-63.5" font-family="Helvetica,sans-Serif" font-size="10.00">_dual_page.c</text>
</a>
</g>
</g>
<!-- Node2&#45;&gt;Node21 -->
<g id="edge21" class="edge">
<title>Node2&#45;&gt;Node21</title>
<path fill="none" stroke="midnightblue" d="M2684.71,-129.59C2594.38,-124.84 2401.23,-112.46 2240,-87 2237.07,-86.54 2234.08,-86.02 2231.07,-85.46"/>
<polygon fill="midnightblue" stroke="midnightblue" points="2684.78,-133.1 2694.95,-130.12 2685.14,-126.11 2684.78,-133.1"/>
</g>
<!-- Node22 -->
<g id="node22" class="node">
<title>Node22</title>
<g id="a_node22"><a xlink:href="vdp__set__hscroll__mask_8c.html" target="_top" xlink:title=" ">
<polygon fill="none" stroke="black" points="2249,-56.5 2249,-86.5 2359,-86.5 2359,-56.5 2249,-56.5"/>
<text text-anchor="start" x="2257" y="-74.5" font-family="Helvetica,sans-Serif" font-size="10.00">src/vdp_set_hscroll</text>
<text text-anchor="middle" x="2304" y="-63.5" font-family="Helvetica,sans-Serif" font-size="10.00">_mask.c</text>
</a>
</g>
</g>
<!-- Node2&#45;&gt;Node22 -->
<g id="edge22" class="edge">
<title>Node2&#45;&gt;Node22</title>
<path fill="none" stroke="midnightblue" d="M2684.9,-127.4C2613.62,-120.61 2480.42,-106.56 2368,-87 2365.08,-86.49 2362.1,-85.94 2359.09,-85.35"/>
<polygon fill="midnightblue" stroke="midnightblue" points="2684.67,-130.89 2694.96,-128.35 2685.33,-123.92 2684.67,-130.89"/>
</g>
<!-- Node23 -->
<g id="node23" class="node">
<title>Node23</title>
<g id="a_node23"><a xlink:href="vdp__set__image__table_8c.html" target="_top" xlink:title=" ">
<polygon fill="none" stroke="black" points="2377,-62 2377,-81 2523,-81 2523,-62 2377,-62"/>
<text text-anchor="middle" x="2450" y="-69" font-family="Helvetica,sans-Serif" font-size="10.00">src/vdp_set_image_table.c</text>
</a>
</g>
</g>
<!-- Node2&#45;&gt;Node23 -->
<g id="edge23" class="edge">
<title>Node2&#45;&gt;Node23</title>
<path fill="none" stroke="midnightblue" d="M2685.06,-121.4C2629.61,-109.87 2542.05,-91.65 2490.9,-81.01"/>
<polygon fill="midnightblue" stroke="midnightblue" points="2684.52,-124.86 2695.02,-123.48 2685.95,-118.01 2684.52,-124.86"/>
</g>
<!-- Node24 -->
<g id="node24" class="node">
<title>Node24</title>
<g id="a_node24"><a xlink:href="vdp__set__palette_8c.html" target="_top" xlink:title=" ">
<polygon fill="none" stroke="black" points="2541,-62 2541,-81 2661,-81 2661,-62 2541,-62"/>
<text text-anchor="middle" x="2601" y="-69" font-family="Helvetica,sans-Serif" font-size="10.00">src/vdp_set_palette.c</text>
</a>
</g>
</g>
<!-- Node2&#45;&gt;Node24 -->
<g id="edge24" class="edge">
<title>Node2&#45;&gt;Node24</title>
<path fill="none" stroke="midnightblue" d="M2707.25,-119.33C2681.04,-107.78 2643.05,-91.03 2620.31,-81.01"/>
<polygon fill="midnightblue" stroke="midnightblue" points="2706.1,-122.64 2716.66,-123.48 2708.92,-116.24 2706.1,-122.64"/>
</g>
<!-- Node25 -->
<g id="node25" class="node">
<title>Node25</title>
<g id="a_node25"><a xlink:href="vdp__set__pattern__table_8c.html" target="_top" xlink:title=" ">
<polygon fill="none" stroke="black" points="2679.5,-56.5 2679.5,-86.5 2792.5,-86.5 2792.5,-56.5 2679.5,-56.5"/>
<text text-anchor="start" x="2687.5" y="-74.5" font-family="Helvetica,sans-Serif" font-size="10.00">src/vdp_set_pattern</text>
<text text-anchor="middle" x="2736" y="-63.5" font-family="Helvetica,sans-Serif" font-size="10.00">_table.c</text>
</a>
</g>
</g>
<!-- Node2&#45;&gt;Node25 -->
<g id="edge25" class="edge">
<title>Node2&#45;&gt;Node25</title>
<path fill="none" stroke="midnightblue" d="M2736,-113.23C2736,-104.59 2736,-94.5 2736,-86.52"/>
<polygon fill="midnightblue" stroke="midnightblue" points="2732.5,-113.48 2736,-123.48 2739.5,-113.48 2732.5,-113.48"/>
</g>
<!-- Node26 -->
<g id="node26" class="node">
<title>Node26</title>
<g id="a_node26"><a xlink:href="vdp__set__screen__lines_8c.html" target="_top" xlink:title=" ">
<polygon fill="none" stroke="black" points="2811,-56.5 2811,-86.5 2921,-86.5 2921,-56.5 2811,-56.5"/>
<text text-anchor="start" x="2819" y="-74.5" font-family="Helvetica,sans-Serif" font-size="10.00">src/vdp_set_screen</text>
<text text-anchor="middle" x="2866" y="-63.5" font-family="Helvetica,sans-Serif" font-size="10.00">_lines.c</text>
</a>
</g>
</g>
<!-- Node2&#45;&gt;Node26 -->
<g id="edge26" class="edge">
<title>Node2&#45;&gt;Node26</title>
<path fill="none" stroke="midnightblue" d="M2763.97,-119.2C2784.97,-109.58 2813.73,-96.42 2835.36,-86.52"/>
<polygon fill="midnightblue" stroke="midnightblue" points="2762.26,-116.13 2754.63,-123.48 2765.18,-122.5 2762.26,-116.13"/>
</g>
<!-- Node27 -->
<g id="node27" class="node">
<title>Node27</title>
<g id="a_node27"><a xlink:href="vdp__set__screen__mode_8c.html" target="_top" xlink:title=" ">
<polygon fill="none" stroke="black" points="2939,-56.5 2939,-86.5 3049,-86.5 3049,-56.5 2939,-56.5"/>
<text text-anchor="start" x="2947" y="-74.5" font-family="Helvetica,sans-Serif" font-size="10.00">src/vdp_set_screen</text>
<text text-anchor="middle" x="2994" y="-63.5" font-family="Helvetica,sans-Serif" font-size="10.00">_mode.c</text>
</a>
</g>
</g>
<!-- Node2&#45;&gt;Node27 -->
<g id="edge27" class="edge">
<title>Node2&#45;&gt;Node27</title>
<path fill="none" stroke="midnightblue" d="M2782.79,-121.21C2826.62,-111.1 2892.16,-95.99 2938.59,-85.28"/>
<polygon fill="midnightblue" stroke="midnightblue" points="2781.92,-117.82 2772.97,-123.48 2783.5,-124.64 2781.92,-117.82"/>
</g>
<!-- Node28 -->
<g id="node28" class="node">
<title>Node28</title>
<g id="a_node28"><a xlink:href="vdp__set__sprite__attribute__table_8c.html" target="_top" xlink:title=" ">
<polygon fill="none" stroke="black" points="3067.5,-56.5 3067.5,-86.5 3172.5,-86.5 3172.5,-56.5 3067.5,-56.5"/>
<text text-anchor="start" x="3075.5" y="-74.5" font-family="Helvetica,sans-Serif" font-size="10.00">src/vdp_set_sprite</text>
<text text-anchor="middle" x="3120" y="-63.5" font-family="Helvetica,sans-Serif" font-size="10.00">_attribute_table.c</text>
</a>
</g>
</g>
<!-- Node2&#45;&gt;Node28 -->
<g id="edge28" class="edge">
<title>Node2&#45;&gt;Node28</title>
<path fill="none" stroke="midnightblue" d="M2787.3,-126.29C2851.03,-118.86 2962.99,-104.71 3058,-87 3061.04,-86.43 3064.16,-85.82 3067.3,-85.17"/>
<polygon fill="midnightblue" stroke="midnightblue" points="2786.64,-122.84 2777.11,-127.47 2787.45,-129.8 2786.64,-122.84"/>
</g>
<!-- Node29 -->
<g id="node29" class="node">
<title>Node29</title>
<g id="a_node29"><a xlink:href="vdp__set__sprite__pattern__table_8c.html" target="_top" xlink:title=" ">
<polygon fill="none" stroke="black" points="3190.5,-56.5 3190.5,-86.5 3295.5,-86.5 3295.5,-56.5 3190.5,-56.5"/>
<text text-anchor="start" x="3198.5" y="-74.5" font-family="Helvetica,sans-Serif" font-size="10.00">src/vdp_set_sprite</text>
<text text-anchor="middle" x="3243" y="-63.5" font-family="Helvetica,sans-Serif" font-size="10.00">_pattern_table.c</text>
</a>
</g>
</g>
<!-- Node2&#45;&gt;Node29 -->
<g id="edge29" class="edge">
<title>Node2&#45;&gt;Node29</title>
<path fill="none" stroke="midnightblue" d="M2787.21,-128.98C2870.29,-123.59 3039.42,-110.61 3181,-87 3184.05,-86.49 3187.18,-85.92 3190.33,-85.31"/>
<polygon fill="midnightblue" stroke="midnightblue" points="2786.79,-125.5 2777.03,-129.63 2787.24,-132.48 2786.79,-125.5"/>
</g>
<!-- Node30 -->
<g id="node30" class="node">
<title>Node30</title>
<g id="a_node30"><a xlink:href="vdp__set__sprite__size_8c.html" target="_top" xlink:title=" ">
<polygon fill="none" stroke="black" points="3313.5,-56.5 3313.5,-86.5 3418.5,-86.5 3418.5,-56.5 3313.5,-56.5"/>
<text text-anchor="start" x="3321.5" y="-74.5" font-family="Helvetica,sans-Serif" font-size="10.00">src/vdp_set_sprite</text>
<text text-anchor="middle" x="3366" y="-63.5" font-family="Helvetica,sans-Serif" font-size="10.00">_size.c</text>
</a>
</g>
</g>
<!-- Node2&#45;&gt;Node30 -->
<g id="edge30" class="edge">
<title>Node2&#45;&gt;Node30</title>
<path fill="none" stroke="midnightblue" d="M2787.36,-130.52C2887.36,-127.07 3114.96,-116.42 3304,-87 3307.06,-86.52 3310.19,-85.98 3313.34,-85.38"/>
<polygon fill="midnightblue" stroke="midnightblue" points="2787.11,-127.03 2777.23,-130.86 2787.34,-134.02 2787.11,-127.03"/>
</g>
<!-- Node31 -->
<g id="node31" class="node">
<title>Node31</title>
<g id="a_node31"><a xlink:href="vdp__set__sprite__visible_8c.html" target="_top" xlink:title=" ">
<polygon fill="none" stroke="black" points="3436.5,-56.5 3436.5,-86.5 3541.5,-86.5 3541.5,-56.5 3436.5,-56.5"/>
<text text-anchor="start" x="3444.5" y="-74.5" font-family="Helvetica,sans-Serif" font-size="10.00">src/vdp_set_sprite</text>
<text text-anchor="middle" x="3489" y="-63.5" font-family="Helvetica,sans-Serif" font-size="10.00">_visible.c</text>
</a>
</g>
</g>
<!-- Node2&#45;&gt;Node31 -->
<g id="edge31" class="edge">
<title>Node2&#45;&gt;Node31</title>
<path fill="none" stroke="midnightblue" d="M2787.41,-131.54C2902.57,-129.88 3189.74,-122.22 3427,-87 3430.06,-86.55 3433.2,-86.02 3436.35,-85.44"/>
<polygon fill="midnightblue" stroke="midnightblue" points="2787.09,-128.04 2777.14,-131.68 2787.18,-135.04 2787.09,-128.04"/>
</g>
<!-- Node32 -->
<g id="node32" class="node">
<title>Node32</title>
<g id="a_node32"><a xlink:href="vdp__set__visible_8c.html" target="_top" xlink:title=" ">
<polygon fill="none" stroke="black" points="3560,-62 3560,-81 3678,-81 3678,-62 3560,-62"/>
<text text-anchor="middle" x="3619" y="-69" font-family="Helvetica,sans-Serif" font-size="10.00">src/vdp_set_visible.c</text>
</a>
</g>
</g>
<!-- Node2&#45;&gt;Node32 -->
<g id="edge32" class="edge">
<title>Node2&#45;&gt;Node32</title>
<path fill="none" stroke="midnightblue" d="M2787.65,-131.86C2916.76,-130.92 3263.73,-124.77 3550,-87 3560.92,-85.56 3572.69,-83.34 3583.37,-81.07"/>
<polygon fill="midnightblue" stroke="midnightblue" points="2787.26,-128.36 2777.29,-131.93 2787.31,-135.36 2787.26,-128.36"/>
</g>
<!-- Node33 -->
<g id="node33" class="node">
<title>Node33</title>
<g id="a_node33"><a xlink:href="vdp__set__vscroll_8c.html" target="_top" xlink:title=" ">
<polygon fill="none" stroke="black" points="3696,-62 3696,-81 3814,-81 3814,-62 3696,-62"/>
<text text-anchor="middle" x="3755" y="-69" font-family="Helvetica,sans-Serif" font-size="10.00">src/vdp_set_vscroll.c</text>
</a>
</g>
</g>
<!-- Node2&#45;&gt;Node33 -->
<g id="edge33" class="edge">
<title>Node2&#45;&gt;Node33</title>
<path fill="none" stroke="midnightblue" d="M2787.71,-132.5C2931.16,-133.25 3345.97,-131.13 3687,-87 3697.89,-85.59 3709.64,-83.35 3720.24,-81.05"/>
<polygon fill="midnightblue" stroke="midnightblue" points="2787.48,-129 2777.46,-132.44 2787.44,-136 2787.48,-129"/>
</g>
<!-- Node34 -->
<g id="node34" class="node">
<title>Node34</title>
<g id="a_node34"><a xlink:href="vdp__write__control_8c.html" target="_top" xlink:title=" ">
<polygon fill="none" stroke="black" points="3832.5,-62 3832.5,-81 3961.5,-81 3961.5,-62 3832.5,-62"/>
<text text-anchor="middle" x="3897" y="-69" font-family="Helvetica,sans-Serif" font-size="10.00">src/vdp_write_control.c</text>
</a>
</g>
</g>
<!-- Node2&#45;&gt;Node34 -->
<g id="edge34" class="edge">
<title>Node2&#45;&gt;Node34</title>
<path fill="none" stroke="midnightblue" d="M2787.39,-132.64C2943.62,-133.99 3426.48,-133.78 3823,-87 3834.83,-85.6 3847.6,-83.37 3859.15,-81.07"/>
<polygon fill="midnightblue" stroke="midnightblue" points="2787.18,-129.14 2777.14,-132.54 2787.11,-136.14 2787.18,-129.14"/>
</g>
<!-- Node35 -->
<g id="node35" class="node">
<title>Node35</title>
<g id="a_node35"><a xlink:href="vdp__write__palette_8c.html" target="_top" xlink:title=" ">
<polygon fill="none" stroke="black" points="3980,-62 3980,-81 4110,-81 4110,-62 3980,-62"/>
<text text-anchor="middle" x="4045" y="-69" font-family="Helvetica,sans-Serif" font-size="10.00">src/vdp_write_palette.c</text>
</a>
</g>
</g>
<!-- Node2&#45;&gt;Node35 -->
<g id="edge35" class="edge">
<title>Node2&#45;&gt;Node35</title>
<path fill="none" stroke="midnightblue" d="M2787.29,-131.19C2989.94,-127.81 3735.26,-113.81 3970,-87 3982.12,-85.62 3995.22,-83.35 4007.02,-81.02"/>
<polygon fill="midnightblue" stroke="midnightblue" points="2787.16,-127.69 2777.21,-131.35 2787.27,-134.69 2787.16,-127.69"/>
</g>
<!-- Node36 -->
<g id="node36" class="node">
<title>Node36</title>
<g id="a_node36"><a xlink:href="vmem__memset_8c.html" target="_top" xlink:title=" ">
<polygon fill="none" stroke="black" points="4128.5,-62 4128.5,-81 4247.5,-81 4247.5,-62 4128.5,-62"/>
<text text-anchor="middle" x="4188" y="-69" font-family="Helvetica,sans-Serif" font-size="10.00">src/vmem_memset.c</text>
</a>
</g>
</g>
<!-- Node2&#45;&gt;Node36 -->
<g id="edge36" class="edge">
<title>Node2&#45;&gt;Node36</title>
<path fill="none" stroke="midnightblue" d="M2787.27,-131.53C3004.97,-129.35 3853.68,-118.95 4119,-87 4130.18,-85.65 4142.24,-83.4 4153.09,-81.07"/>
<polygon fill="midnightblue" stroke="midnightblue" points="2787.06,-128.03 2777.09,-131.63 2787.12,-135.03 2787.06,-128.03"/>
</g>
<!-- Node37 -->
<g id="node37" class="node">
<title>Node37</title>
<g id="a_node37"><a xlink:href="vmem__read_8c.html" target="_top" xlink:title=" ">
<polygon fill="none" stroke="black" points="4265.5,-62 4265.5,-81 4366.5,-81 4366.5,-62 4265.5,-62"/>
<text text-anchor="middle" x="4316" y="-69" font-family="Helvetica,sans-Serif" font-size="10.00">src/vmem_read.c</text>
</a>
</g>
</g>
<!-- Node2&#45;&gt;Node37 -->
<g id="edge37" class="edge">
<title>Node2&#45;&gt;Node37</title>
<path fill="none" stroke="midnightblue" d="M2787.4,-131.91C3018.51,-131.28 3962.87,-126.33 4256,-87 4265.88,-85.67 4276.5,-83.4 4286.02,-81.04"/>
<polygon fill="midnightblue" stroke="midnightblue" points="2787.25,-128.41 2777.26,-131.94 2787.26,-135.41 2787.25,-128.41"/>
</g>
<!-- Node38 -->
<g id="node38" class="node">
<title>Node38</title>
<g id="a_node38"><a xlink:href="vmem__set__read__address_8c.html" target="_top" xlink:title=" ">
<polygon fill="none" stroke="black" points="4385,-62 4385,-81 4549,-81 4549,-62 4385,-62"/>
<text text-anchor="middle" x="4467" y="-69" font-family="Helvetica,sans-Serif" font-size="10.00">src/vmem_set_read_address.c</text>
</a>
</g>
</g>
<!-- Node2&#45;&gt;Node38 -->
<g id="edge38" class="edge">
<title>Node2&#45;&gt;Node38</title>
<path fill="none" stroke="midnightblue" d="M2787.36,-131.48C3029.17,-128.91 4055.72,-116.42 4375,-87 4389.81,-85.64 4405.86,-83.38 4420.34,-81.05"/>
<polygon fill="midnightblue" stroke="midnightblue" points="2787.06,-127.99 2777.1,-131.59 2787.14,-134.98 2787.06,-127.99"/>
</g>
<!-- Node39 -->
<g id="node39" class="node">
<title>Node39</title>
<g id="a_node39"><a xlink:href="vmem__set__sprite__color__s_8c.html" target="_top" xlink:title=" ">
<polygon fill="none" stroke="black" points="4567.5,-56.5 4567.5,-86.5 4686.5,-86.5 4686.5,-56.5 4567.5,-56.5"/>
<text text-anchor="start" x="4575.5" y="-74.5" font-family="Helvetica,sans-Serif" font-size="10.00">src/vmem_set_sprite</text>
<text text-anchor="middle" x="4627" y="-63.5" font-family="Helvetica,sans-Serif" font-size="10.00">_color_s.c</text>
</a>
</g>
</g>
<!-- Node2&#45;&gt;Node39 -->
<g id="edge39" class="edge">
<title>Node2&#45;&gt;Node39</title>
<path fill="none" stroke="midnightblue" d="M2787.61,-132C3046.07,-131.79 4201.5,-128.51 4558,-87 4561.04,-86.65 4564.14,-86.22 4567.27,-85.75"/>
<polygon fill="midnightblue" stroke="midnightblue" points="2787.38,-128.5 2777.38,-132 2787.38,-135.5 2787.38,-128.5"/>
</g>
<!-- Node40 -->
<g id="node40" class="node">
<title>Node40</title>
<g id="a_node40"><a xlink:href="vmem__set__write__address_8c.html" target="_top" xlink:title=" ">
<polygon fill="none" stroke="black" points="4705,-56.5 4705,-86.5 4821,-86.5 4821,-56.5 4705,-56.5"/>
<text text-anchor="start" x="4713" y="-74.5" font-family="Helvetica,sans-Serif" font-size="10.00">src/vmem_set_write</text>
<text text-anchor="middle" x="4763" y="-63.5" font-family="Helvetica,sans-Serif" font-size="10.00">_address.c</text>
</a>
</g>
</g>
<!-- Node2&#45;&gt;Node40 -->
<g id="edge40" class="edge">
<title>Node2&#45;&gt;Node40</title>
<path fill="none" stroke="midnightblue" d="M2787.55,-132.14C3057.51,-132.69 4310.76,-132.69 4696,-87 4698.84,-86.66 4701.73,-86.26 4704.64,-85.81"/>
<polygon fill="midnightblue" stroke="midnightblue" points="2787.26,-128.64 2777.26,-132.12 2787.25,-135.64 2787.26,-128.64"/>
</g>
<!-- Node41 -->
<g id="node41" class="node">
<title>Node41</title>
<g id="a_node41"><a xlink:href="vmem__write_8c.html" target="_top" xlink:title=" ">
<polygon fill="none" stroke="black" points="4839,-62 4839,-81 4943,-81 4943,-62 4839,-62"/>
<text text-anchor="middle" x="4891" y="-69" font-family="Helvetica,sans-Serif" font-size="10.00">src/vmem_write.c</text>
</a>
</g>
</g>
<!-- Node2&#45;&gt;Node41 -->
<g id="edge41" class="edge">
<title>Node2&#45;&gt;Node41</title>
<path fill="none" stroke="midnightblue" d="M2787.45,-131.55C3089.12,-128.81 4622.03,-113.65 4830,-87 4840.15,-85.7 4851.07,-83.4 4860.83,-81.01"/>
<polygon fill="midnightblue" stroke="midnightblue" points="2787.21,-128.05 2777.25,-131.64 2787.28,-135.05 2787.21,-128.05"/>
</g>
<!-- Node3&#45;&gt;Node4 -->
<g id="edge3" class="edge">
<title>Node3&#45;&gt;Node4</title>
<path fill="none" stroke="midnightblue" d="M309.65,-59.85C317.7,-58.26 326.07,-56.88 334,-56 815.5,-2.87 4490.47,-9.87 4928.38,-10.89"/>
<polygon fill="midnightblue" stroke="midnightblue" points="308.75,-56.46 299.68,-61.92 310.18,-63.31 308.75,-56.46"/>
</g>
<!-- Node5 -->
<g id="node5" class="node">
<title>Node5</title>
<g id="a_node5"><a xlink:href="vmem__set__metasprite__a_8c.html" target="_top" xlink:title=" ">
<polygon fill="none" stroke="black" points="0,-0.5 0,-19.5 164,-19.5 164,-0.5 0,-0.5"/>
<text text-anchor="middle" x="82" y="-7.5" font-family="Helvetica,sans-Serif" font-size="10.00">src/vmem_set_metasprite_a.c</text>
</a>
</g>
</g>
<!-- Node3&#45;&gt;Node5 -->
<g id="edge4" class="edge">
<title>Node3&#45;&gt;Node5</title>
<path fill="none" stroke="midnightblue" d="M230.07,-58.88C194.3,-47.32 140.26,-29.84 108.31,-19.51"/>
<polygon fill="midnightblue" stroke="midnightblue" points="229.05,-62.23 239.64,-61.98 231.2,-55.57 229.05,-62.23"/>
</g>
<!-- Node6 -->
<g id="node6" class="node">
<title>Node6</title>
<g id="a_node6"><a xlink:href="vmem__set__metasprite__m_8c.html" target="_top" xlink:title=" ">
<polygon fill="none" stroke="black" points="182.5,-0.5 182.5,-19.5 349.5,-19.5 349.5,-0.5 182.5,-0.5"/>
<text text-anchor="middle" x="266" y="-7.5" font-family="Helvetica,sans-Serif" font-size="10.00">src/vmem_set_metasprite_m.c</text>
</a>
</g>
</g>
<!-- Node3&#45;&gt;Node6 -->
<g id="edge5" class="edge">
<title>Node3&#45;&gt;Node6</title>
<path fill="none" stroke="midnightblue" d="M266,-51.82C266,-41 266,-27.9 266,-19.51"/>
<polygon fill="midnightblue" stroke="midnightblue" points="262.5,-51.98 266,-61.98 269.5,-51.98 262.5,-51.98"/>
</g>
<!-- Node7 -->
<g id="node7" class="node">
<title>Node7</title>
<g id="a_node7"><a xlink:href="vmem__set__metasprite__s_8c.html" target="_top" xlink:title=" ">
<polygon fill="none" stroke="black" points="367.5,-0.5 367.5,-19.5 530.5,-19.5 530.5,-0.5 367.5,-0.5"/>
<text text-anchor="middle" x="449" y="-7.5" font-family="Helvetica,sans-Serif" font-size="10.00">src/vmem_set_metasprite_s.c</text>
</a>
</g>
</g>
<!-- Node3&#45;&gt;Node7 -->
<g id="edge6" class="edge">
<title>Node3&#45;&gt;Node7</title>
<path fill="none" stroke="midnightblue" d="M301.74,-58.88C337.31,-47.32 391.05,-29.84 422.83,-19.51"/>
<polygon fill="midnightblue" stroke="midnightblue" points="300.65,-55.55 292.22,-61.98 302.81,-62.21 300.65,-55.55"/>
</g>
</g>
</svg>
