<?xml version="1.0" encoding="UTF-8" standalone="no"?>
<!DOCTYPE svg PUBLIC "-//W3C//DTD SVG 1.1//EN"
 "http://www.w3.org/Graphics/SVG/1.1/DTD/svg11.dtd">
<!-- Generated by graphviz version 7.0.5 (20221223.1930)
 -->
<!-- Title: include/bmem.h Pages: 1 -->
<svg width="140pt" height="247pt"
 viewBox="0.00 0.00 139.50 247.00" xmlns="http://www.w3.org/2000/svg" xmlns:xlink="http://www.w3.org/1999/xlink">
<g id="graph0" class="graph" transform="scale(1 1) rotate(0) translate(4 243)">
<title>include/bmem.h</title>
<!-- Node1 -->
<g id="node1" class="node">
<title>Node1</title>
<g id="a_node1"><a xlink:title="Data types and functions for accessing banked memory.">
<polygon fill="#999999" stroke="#666666" points="85,-239 0,-239 0,-220 85,-220 85,-239"/>
<text text-anchor="middle" x="42.5" y="-227" font-family="Helvetica,sans-Serif" font-size="10.00">include/bmem.h</text>
</a>
</g>
</g>
<!-- Node2 -->
<g id="node2" class="node">
<title>Node2</title>
<g id="a_node2"><a xlink:title=" ">
<polygon fill="#e0e0e0" stroke="#999999" points="77.5,-19 29.5,-19 29.5,0 77.5,0 77.5,-19"/>
<text text-anchor="middle" x="53.5" y="-7" font-family="Helvetica,sans-Serif" font-size="10.00">stdint.h</text>
</a>
</g>
</g>
<!-- Node1&#45;&gt;Node2 -->
<g id="edge1" class="edge">
<title>Node1&#45;&gt;Node2</title>
<path fill="none" stroke="#63b8ff" d="M40.44,-219.7C38.46,-210.77 35.62,-196.51 34.5,-184 29.51,-128.05 41.71,-62.14 48.82,-30.05"/>
<polygon fill="#63b8ff" stroke="#63b8ff" points="52.16,-31.16 50.99,-20.63 45.34,-29.59 52.16,-31.16"/>
</g>
<!-- Node3 -->
<g id="node3" class="node">
<title>Node3</title>
<g id="a_node3"><a xlink:href="vmem_8h.html" target="_top" xlink:title="Data types and functions for VRAM access.">
<polygon fill="white" stroke="#666666" points="95,-184 44,-184 44,-165 95,-165 95,-184"/>
<text text-anchor="middle" x="69.5" y="-172" font-family="Helvetica,sans-Serif" font-size="10.00">vmem.h</text>
</a>
</g>
</g>
<!-- Node1&#45;&gt;Node3 -->
<g id="edge2" class="edge">
<title>Node1&#45;&gt;Node3</title>
<path fill="none" stroke="#63b8ff" d="M46.96,-219.75C50.45,-212.88 55.45,-203.08 59.85,-194.45"/>
<polygon fill="#63b8ff" stroke="#63b8ff" points="62.84,-196.29 64.26,-185.79 56.6,-193.11 62.84,-196.29"/>
</g>
<!-- Node3&#45;&gt;Node2 -->
<g id="edge3" class="edge">
<title>Node3&#45;&gt;Node2</title>
<path fill="none" stroke="#63b8ff" d="M68.64,-164.74C66.17,-139.53 58.98,-66.36 55.48,-30.62"/>
<polygon fill="#63b8ff" stroke="#63b8ff" points="58.97,-30.42 54.51,-20.81 52.01,-31.11 58.97,-30.42"/>
</g>
<!-- Node4 -->
<g id="node4" class="node">
<title>Node4</title>
<g id="a_node4"><a xlink:href="io_8h.html" target="_top" xlink:title="Definition of I/O ports.">
<polygon fill="white" stroke="#666666" points="117.5,-129 85.5,-129 85.5,-110 117.5,-110 117.5,-129"/>
<text text-anchor="middle" x="101.5" y="-117" font-family="Helvetica,sans-Serif" font-size="10.00">io.h</text>
</a>
</g>
</g>
<!-- Node3&#45;&gt;Node4 -->
<g id="edge4" class="edge">
<title>Node3&#45;&gt;Node4</title>
<path fill="none" stroke="#63b8ff" d="M74.78,-164.75C78.97,-157.81 84.98,-147.86 90.23,-139.16"/>
<polygon fill="#63b8ff" stroke="#63b8ff" points="93.15,-141.11 95.32,-130.74 87.15,-137.49 93.15,-141.11"/>
</g>
<!-- Node5 -->
<g id="node5" class="node">
<title>Node5</title>
<g id="a_node5"><a xlink:href="config_8h.html" target="_top" xlink:title="Hack for C Compiler portability.">
<polygon fill="white" stroke="#666666" points="131.5,-74 81.5,-74 81.5,-55 131.5,-55 131.5,-74"/>
<text text-anchor="middle" x="106.5" y="-62" font-family="Helvetica,sans-Serif" font-size="10.00">config.h</text>
</a>
</g>
</g>
<!-- Node4&#45;&gt;Node5 -->
<g id="edge5" class="edge">
<title>Node4&#45;&gt;Node5</title>
<path fill="none" stroke="#63b8ff" d="M102.33,-109.75C102.94,-103.27 103.8,-94.16 104.58,-85.9"/>
<polygon fill="#63b8ff" stroke="#63b8ff" points="108.06,-86.23 105.51,-75.95 101.09,-85.58 108.06,-86.23"/>
</g>
<!-- Node5&#45;&gt;Node2 -->
<g id="edge6" class="edge">
<title>Node5&#45;&gt;Node2</title>
<path fill="none" stroke="#63b8ff" d="M97.75,-54.75C90.35,-47.35 79.54,-36.54 70.45,-27.45"/>
<polygon fill="#63b8ff" stroke="#63b8ff" points="73.06,-25.11 63.51,-20.51 68.11,-30.06 73.06,-25.11"/>
</g>
</g>
</svg>
