<?xml version="1.0" encoding="UTF-8" standalone="no"?>
<!DOCTYPE svg PUBLIC "-//W3C//DTD SVG 1.1//EN"
 "http://www.w3.org/Graphics/SVG/1.1/DTD/svg11.dtd">
<!-- Generated by graphviz version 12.2.0 (20241103.1931)
 -->
<!-- Title: include/bmem_rd.h Pages: 1 -->
<svg width="287pt" height="304pt"
 viewBox="0.00 0.00 286.67 303.50" xmlns="http://www.w3.org/2000/svg" xmlns:xlink="http://www.w3.org/1999/xlink">
<g id="graph0" class="graph" transform="scale(1 1) rotate(0) translate(4 299.5)">
<title>include/bmem_rd.h</title>
<!-- Node1 -->
<g id="Node000001" class="node">
<title>Node1</title>
<g id="a_Node000001"><a xlink:title="Stream like access functions for Banked Memory.">
<polygon fill="#999999" stroke="#666666" points="224.04,-295.5 126.29,-295.5 126.29,-276.25 224.04,-276.25 224.04,-295.5"/>
<text text-anchor="middle" x="175.17" y="-282" font-family="Helvetica,sans-Serif" font-size="10.00">include/bmem_rd.h</text>
</a>
</g>
</g>
<!-- Node2 -->
<g id="Node000002" class="node">
<title>Node2</title>
<g id="a_Node000002"><a xlink:href="bmem_8h.html" target="_top" xlink:title="Data types and functions for accessing banked memory.">
<polygon fill="white" stroke="#666666" points="114.42,-240.25 63.92,-240.25 63.92,-221 114.42,-221 114.42,-240.25"/>
<text text-anchor="middle" x="89.17" y="-226.75" font-family="Helvetica,sans-Serif" font-size="10.00">bmem.h</text>
</a>
</g>
</g>
<!-- Node1&#45;&gt;Node2 -->
<g id="edge1_Node000001_Node000002" class="edge">
<title>Node1&#45;&gt;Node2</title>
<g id="a_edge1_Node000001_Node000002"><a xlink:title=" ">
<path fill="none" stroke="#63b8ff" d="M160.58,-275.84C147.73,-267.89 128.75,-256.14 113.59,-246.75"/>
<polygon fill="#63b8ff" stroke="#63b8ff" points="115.46,-243.79 105.11,-241.5 111.77,-249.74 115.46,-243.79"/>
</a>
</g>
</g>
<!-- Node3 -->
<g id="Node000003" class="node">
<title>Node3</title>
<g id="a_Node000003"><a xlink:title=" ">
<polygon fill="#e0e0e0" stroke="#999999" points="85.92,-19.25 38.42,-19.25 38.42,0 85.92,0 85.92,-19.25"/>
<text text-anchor="middle" x="62.17" y="-5.75" font-family="Helvetica,sans-Serif" font-size="10.00">stdint.h</text>
</a>
</g>
</g>
<!-- Node1&#45;&gt;Node3 -->
<g id="edge11_Node000001_Node000003" class="edge">
<title>Node1&#45;&gt;Node3</title>
<g id="a_edge11_Node000001_Node000003"><a xlink:title=" ">
<path fill="none" stroke="#63b8ff" d="M177.95,-275.98C183.44,-257.57 195.17,-213.92 195.17,-176.38 195.17,-176.38 195.17,-176.38 195.17,-119.12 195.17,-68.43 136.44,-37.2 97.04,-21.95"/>
<polygon fill="#63b8ff" stroke="#63b8ff" points="98.27,-18.68 87.67,-18.51 95.85,-25.24 98.27,-18.68"/>
</a>
</g>
</g>
<!-- Node5 -->
<g id="Node000005" class="node">
<title>Node5</title>
<g id="a_Node000005"><a xlink:title=" ">
<polygon fill="#e0e0e0" stroke="#999999" points="167.42,-129.75 116.92,-129.75 116.92,-110.5 167.42,-110.5 167.42,-129.75"/>
<text text-anchor="middle" x="142.17" y="-116.25" font-family="Helvetica,sans-Serif" font-size="10.00">stddef.h</text>
</a>
</g>
</g>
<!-- Node1&#45;&gt;Node5 -->
<g id="edge10_Node000001_Node000005" class="edge">
<title>Node1&#45;&gt;Node5</title>
<g id="a_edge10_Node000001_Node000005"><a xlink:title=" ">
<path fill="none" stroke="#63b8ff" d="M173.39,-276.07C168.27,-250.64 153.35,-176.6 146.15,-140.87"/>
<polygon fill="#63b8ff" stroke="#63b8ff" points="149.66,-140.57 144.25,-131.46 142.79,-141.95 149.66,-140.57"/>
</a>
</g>
</g>
<!-- Node8 -->
<g id="Node000008" class="node">
<title>Node8</title>
<g id="a_Node000008"><a xlink:title=" ">
<polygon fill="#e0e0e0" stroke="#999999" points="278.67,-240.25 223.67,-240.25 223.67,-221 278.67,-221 278.67,-240.25"/>
<text text-anchor="middle" x="251.17" y="-226.75" font-family="Helvetica,sans-Serif" font-size="10.00">stdbool.h</text>
</a>
</g>
</g>
<!-- Node1&#45;&gt;Node8 -->
<g id="edge9_Node000001_Node000008" class="edge">
<title>Node1&#45;&gt;Node8</title>
<g id="a_edge9_Node000001_Node000008"><a xlink:title=" ">
<path fill="none" stroke="#63b8ff" d="M188.06,-275.84C199.2,-268.04 215.54,-256.59 228.81,-247.29"/>
<polygon fill="#63b8ff" stroke="#63b8ff" points="230.79,-250.18 236.97,-241.57 226.77,-244.44 230.79,-250.18"/>
</a>
</g>
</g>
<!-- Node2&#45;&gt;Node3 -->
<g id="edge2_Node000002_Node000003" class="edge">
<title>Node2&#45;&gt;Node3</title>
<g id="a_edge2_Node000002_Node000003"><a xlink:title=" ">
<path fill="none" stroke="#63b8ff" d="M82.33,-220.78C75.42,-211.81 64.46,-197.51 55.17,-185 37.09,-160.66 27.77,-157.32 15.17,-129.75 4.68,-106.81 5.08,-99.56 2.17,-74.5 1.18,-66 -1.67,-62.89 2.17,-55.25 8.52,-42.6 20.35,-32.63 31.84,-25.35"/>
<polygon fill="#63b8ff" stroke="#63b8ff" points="33.48,-28.44 40.39,-20.41 29.98,-22.38 33.48,-28.44"/>
</a>
</g>
</g>
<!-- Node4 -->
<g id="Node000004" class="node">
<title>Node4</title>
<g id="a_Node000004"><a xlink:href="vmem_8h.html" target="_top" xlink:title="Data types and functions for VRAM access.">
<polygon fill="white" stroke="#666666" points="114.42,-185 63.92,-185 63.92,-165.75 114.42,-165.75 114.42,-185"/>
<text text-anchor="middle" x="89.17" y="-171.5" font-family="Helvetica,sans-Serif" font-size="10.00">vmem.h</text>
</a>
</g>
</g>
<!-- Node2&#45;&gt;Node4 -->
<g id="edge3_Node000002_Node000004" class="edge">
<title>Node2&#45;&gt;Node4</title>
<g id="a_edge3_Node000002_Node000004"><a xlink:title=" ">
<path fill="none" stroke="#63b8ff" d="M89.17,-220.83C89.17,-214.32 89.17,-205.17 89.17,-196.87"/>
<polygon fill="#63b8ff" stroke="#63b8ff" points="92.67,-196.87 89.17,-186.87 85.67,-196.87 92.67,-196.87"/>
</a>
</g>
</g>
<!-- Node4&#45;&gt;Node3 -->
<g id="edge4_Node000004_Node000003" class="edge">
<title>Node4&#45;&gt;Node3</title>
<g id="a_edge4_Node000004_Node000003"><a xlink:title=" ">
<path fill="none" stroke="#63b8ff" d="M87.8,-165.4C84.75,-145.53 77.13,-96.34 70.17,-55.25 68.8,-47.2 67.23,-38.34 65.84,-30.66"/>
<polygon fill="#63b8ff" stroke="#63b8ff" points="69.32,-30.21 64.08,-21 62.43,-31.46 69.32,-30.21"/>
</a>
</g>
</g>
<!-- Node4&#45;&gt;Node5 -->
<g id="edge5_Node000004_Node000005" class="edge">
<title>Node4&#45;&gt;Node5</title>
<g id="a_edge5_Node000004_Node000005"><a xlink:title=" ">
<path fill="none" stroke="#63b8ff" d="M97.92,-165.58C105.32,-158.15 116.13,-147.29 125.21,-138.16"/>
<polygon fill="#63b8ff" stroke="#63b8ff" points="127.58,-140.74 132.16,-131.18 122.62,-135.8 127.58,-140.74"/>
</a>
</g>
</g>
<!-- Node6 -->
<g id="Node000006" class="node">
<title>Node6</title>
<g id="a_Node000006"><a xlink:href="io_8h.html" target="_top" xlink:title="Definition of I/O ports.">
<polygon fill="white" stroke="#666666" points="55.67,-129.75 24.67,-129.75 24.67,-110.5 55.67,-110.5 55.67,-129.75"/>
<text text-anchor="middle" x="40.17" y="-116.25" font-family="Helvetica,sans-Serif" font-size="10.00">io.h</text>
</a>
</g>
</g>
<!-- Node4&#45;&gt;Node6 -->
<g id="edge6_Node000004_Node000006" class="edge">
<title>Node4&#45;&gt;Node6</title>
<g id="a_edge6_Node000004_Node000006"><a xlink:title=" ">
<path fill="none" stroke="#63b8ff" d="M81.08,-165.58C74.31,-158.23 64.45,-147.51 56.1,-138.44"/>
<polygon fill="#63b8ff" stroke="#63b8ff" points="58.81,-136.21 49.46,-131.22 53.66,-140.95 58.81,-136.21"/>
</a>
</g>
</g>
<!-- Node7 -->
<g id="Node000007" class="node">
<title>Node7</title>
<g id="a_Node000007"><a xlink:href="config_8h.html" target="_top" xlink:title="Hack for C Compiler portability.">
<polygon fill="white" stroke="#666666" points="60.67,-74.5 11.67,-74.5 11.67,-55.25 60.67,-55.25 60.67,-74.5"/>
<text text-anchor="middle" x="36.17" y="-61" font-family="Helvetica,sans-Serif" font-size="10.00">config.h</text>
</a>
</g>
</g>
<!-- Node6&#45;&gt;Node7 -->
<g id="edge7_Node000006_Node000007" class="edge">
<title>Node6&#45;&gt;Node7</title>
<g id="a_edge7_Node000006_Node000007"><a xlink:title=" ">
<path fill="none" stroke="#63b8ff" d="M39.51,-110.33C39.01,-103.74 38.31,-94.46 37.68,-86.07"/>
<polygon fill="#63b8ff" stroke="#63b8ff" points="41.19,-86.08 36.96,-76.37 34.21,-86.6 41.19,-86.08"/>
</a>
</g>
</g>
<!-- Node7&#45;&gt;Node3 -->
<g id="edge8_Node000007_Node000003" class="edge">
<title>Node7&#45;&gt;Node3</title>
<g id="a_edge8_Node000007_Node000003"><a xlink:title=" ">
<path fill="none" stroke="#63b8ff" d="M40.46,-55.08C43.79,-48.26 48.53,-38.56 52.73,-29.95"/>
<polygon fill="#63b8ff" stroke="#63b8ff" points="55.87,-31.49 57.12,-20.97 49.58,-28.42 55.87,-31.49"/>
</a>
</g>
</g>
</g>
</svg>
