<?xml version="1.0" encoding="UTF-8" standalone="no"?>
<!DOCTYPE svg PUBLIC "-//W3C//DTD SVG 1.1//EN"
 "http://www.w3.org/Graphics/SVG/1.1/DTD/svg11.dtd">
<!-- Generated by graphviz version 7.0.5 (20221223.1930)
 -->
<!-- Title: include/bmem_rd.h Pages: 1 -->
<svg width="289pt" height="302pt"
 viewBox="0.00 0.00 289.14 302.00" xmlns="http://www.w3.org/2000/svg" xmlns:xlink="http://www.w3.org/1999/xlink">
<g id="graph0" class="graph" transform="scale(1 1) rotate(0) translate(4 298)">
<title>include/bmem_rd.h</title>
<!-- Node1 -->
<g id="node1" class="node">
<title>Node1</title>
<g id="a_node1"><a xlink:title="Stream like access functions for Banked Memory.">
<polygon fill="#999999" stroke="#666666" points="227.14,-294 129.14,-294 129.14,-275 227.14,-275 227.14,-294"/>
<text text-anchor="middle" x="178.14" y="-282" font-family="Helvetica,sans-Serif" font-size="10.00">include/bmem_rd.h</text>
</a>
</g>
</g>
<!-- Node2 -->
<g id="node2" class="node">
<title>Node2</title>
<g id="a_node2"><a xlink:href="bmem_8h.html" target="_top" xlink:title="Data types and functions for accessing banked memory.">
<polygon fill="white" stroke="#666666" points="114.64,-239 63.64,-239 63.64,-220 114.64,-220 114.64,-239"/>
<text text-anchor="middle" x="89.14" y="-227" font-family="Helvetica,sans-Serif" font-size="10.00">bmem.h</text>
</a>
</g>
</g>
<!-- Node1&#45;&gt;Node2 -->
<g id="edge1" class="edge">
<title>Node1&#45;&gt;Node2</title>
<path fill="none" stroke="#63b8ff" d="M163.05,-274.51C149.54,-266.47 129.49,-254.53 113.68,-245.11"/>
<polygon fill="#63b8ff" stroke="#63b8ff" points="115.7,-242.24 105.32,-240.13 112.12,-248.26 115.7,-242.24"/>
</g>
<!-- Node3 -->
<g id="node3" class="node">
<title>Node3</title>
<g id="a_node3"><a xlink:title=" ">
<polygon fill="#e0e0e0" stroke="#999999" points="86.14,-19 38.14,-19 38.14,0 86.14,0 86.14,-19"/>
<text text-anchor="middle" x="62.14" y="-7" font-family="Helvetica,sans-Serif" font-size="10.00">stdint.h</text>
</a>
</g>
</g>
<!-- Node1&#45;&gt;Node3 -->
<g id="edge11" class="edge">
<title>Node1&#45;&gt;Node3</title>
<path fill="none" stroke="#63b8ff" d="M180.78,-274.63C186.01,-256.3 197.14,-212.81 197.14,-175.5 197.14,-175.5 197.14,-175.5 197.14,-118.5 197.14,-67.33 137.28,-36.42 97.28,-21.48"/>
<polygon fill="#63b8ff" stroke="#63b8ff" points="98.61,-18.23 88.02,-18.19 96.27,-24.83 98.61,-18.23"/>
</g>
<!-- Node5 -->
<g id="node5" class="node">
<title>Node5</title>
<g id="a_node5"><a xlink:title=" ">
<polygon fill="#e0e0e0" stroke="#999999" points="168.64,-129 117.64,-129 117.64,-110 168.64,-110 168.64,-129"/>
<text text-anchor="middle" x="143.14" y="-117" font-family="Helvetica,sans-Serif" font-size="10.00">stddef.h</text>
</a>
</g>
</g>
<!-- Node1&#45;&gt;Node5 -->
<g id="edge10" class="edge">
<title>Node1&#45;&gt;Node5</title>
<path fill="none" stroke="#63b8ff" d="M176.26,-274.74C170.82,-249.42 155,-175.72 147.36,-140.16"/>
<polygon fill="#63b8ff" stroke="#63b8ff" points="150.87,-139.83 145.35,-130.79 144.03,-141.3 150.87,-139.83"/>
</g>
<!-- Node8 -->
<g id="node8" class="node">
<title>Node8</title>
<g id="a_node8"><a xlink:title=" ">
<polygon fill="#e0e0e0" stroke="#999999" points="281.14,-239 225.14,-239 225.14,-220 281.14,-220 281.14,-239"/>
<text text-anchor="middle" x="253.14" y="-227" font-family="Helvetica,sans-Serif" font-size="10.00">stdbool.h</text>
</a>
</g>
</g>
<!-- Node1&#45;&gt;Node8 -->
<g id="edge9" class="edge">
<title>Node1&#45;&gt;Node8</title>
<path fill="none" stroke="#63b8ff" d="M190.87,-274.51C201.92,-266.7 218.18,-255.21 231.31,-245.93"/>
<polygon fill="#63b8ff" stroke="#63b8ff" points="233.23,-248.86 239.37,-240.23 229.19,-243.14 233.23,-248.86"/>
</g>
<!-- Node2&#45;&gt;Node3 -->
<g id="edge2" class="edge">
<title>Node2&#45;&gt;Node3</title>
<path fill="none" stroke="#63b8ff" d="M82.04,-219.73C74.87,-210.83 63.56,-196.6 54.14,-184 36.21,-159.99 27.48,-156.31 15.14,-129 4.8,-106.11 5.05,-98.95 2.14,-74 1.16,-65.61 -1.65,-62.54 2.14,-55 8.5,-42.37 20.33,-32.42 31.82,-25.17"/>
<polygon fill="#63b8ff" stroke="#63b8ff" points="33.45,-28.27 40.36,-20.24 29.95,-22.2 33.45,-28.27"/>
</g>
<!-- Node4 -->
<g id="node4" class="node">
<title>Node4</title>
<g id="a_node4"><a xlink:href="vmem_8h.html" target="_top" xlink:title="Data types and functions for VRAM access.">
<polygon fill="white" stroke="#666666" points="114.64,-184 63.64,-184 63.64,-165 114.64,-165 114.64,-184"/>
<text text-anchor="middle" x="89.14" y="-172" font-family="Helvetica,sans-Serif" font-size="10.00">vmem.h</text>
</a>
</g>
</g>
<!-- Node2&#45;&gt;Node4 -->
<g id="edge3" class="edge">
<title>Node2&#45;&gt;Node4</title>
<path fill="none" stroke="#63b8ff" d="M89.14,-219.75C89.14,-213.27 89.14,-204.16 89.14,-195.9"/>
<polygon fill="#63b8ff" stroke="#63b8ff" points="92.64,-195.96 89.14,-185.96 85.64,-195.96 92.64,-195.96"/>
</g>
<!-- Node4&#45;&gt;Node3 -->
<g id="edge4" class="edge">
<title>Node4&#45;&gt;Node3</title>
<path fill="none" stroke="#63b8ff" d="M87.77,-164.57C84.72,-144.81 77.09,-95.88 70.14,-55 68.78,-46.97 67.2,-38.14 65.82,-30.48"/>
<polygon fill="#63b8ff" stroke="#63b8ff" points="69.3,-30.05 64.06,-20.85 62.41,-31.31 69.3,-30.05"/>
</g>
<!-- Node4&#45;&gt;Node5 -->
<g id="edge5" class="edge">
<title>Node4&#45;&gt;Node5</title>
<path fill="none" stroke="#63b8ff" d="M98.06,-164.75C105.6,-157.35 116.61,-146.54 125.87,-137.45"/>
<polygon fill="#63b8ff" stroke="#63b8ff" points="128.27,-140 132.95,-130.5 123.36,-135.01 128.27,-140"/>
</g>
<!-- Node6 -->
<g id="node6" class="node">
<title>Node6</title>
<g id="a_node6"><a xlink:href="io_8h.html" target="_top" xlink:title="Definition of I/O ports.">
<polygon fill="white" stroke="#666666" points="56.14,-129 24.14,-129 24.14,-110 56.14,-110 56.14,-129"/>
<text text-anchor="middle" x="40.14" y="-117" font-family="Helvetica,sans-Serif" font-size="10.00">io.h</text>
</a>
</g>
</g>
<!-- Node4&#45;&gt;Node6 -->
<g id="edge6" class="edge">
<title>Node4&#45;&gt;Node6</title>
<path fill="none" stroke="#63b8ff" d="M81.05,-164.75C74.28,-157.43 64.42,-146.76 56.08,-137.74"/>
<polygon fill="#63b8ff" stroke="#63b8ff" points="58.8,-135.52 49.44,-130.55 53.66,-140.27 58.8,-135.52"/>
</g>
<!-- Node7 -->
<g id="node7" class="node">
<title>Node7</title>
<g id="a_node7"><a xlink:href="config_8h.html" target="_top" xlink:title="Hack for C Compiler portability.">
<polygon fill="white" stroke="#666666" points="61.14,-74 11.14,-74 11.14,-55 61.14,-55 61.14,-74"/>
<text text-anchor="middle" x="36.14" y="-62" font-family="Helvetica,sans-Serif" font-size="10.00">config.h</text>
</a>
</g>
</g>
<!-- Node6&#45;&gt;Node7 -->
<g id="edge7" class="edge">
<title>Node6&#45;&gt;Node7</title>
<path fill="none" stroke="#63b8ff" d="M39.48,-109.75C38.99,-103.27 38.31,-94.16 37.68,-85.9"/>
<polygon fill="#63b8ff" stroke="#63b8ff" points="41.17,-85.66 36.93,-75.95 34.19,-86.19 41.17,-85.66"/>
</g>
<!-- Node7&#45;&gt;Node3 -->
<g id="edge8" class="edge">
<title>Node7&#45;&gt;Node3</title>
<path fill="none" stroke="#63b8ff" d="M40.44,-54.75C43.77,-47.96 48.51,-38.3 52.71,-29.73"/>
<polygon fill="#63b8ff" stroke="#63b8ff" points="55.83,-31.32 57.09,-20.8 49.54,-28.24 55.83,-31.32"/>
</g>
</g>
</svg>
