<?xml version="1.0" encoding="UTF-8" standalone="no"?>
<!DOCTYPE svg PUBLIC "-//W3C//DTD SVG 1.1//EN"
 "http://www.w3.org/Graphics/SVG/1.1/DTD/svg11.dtd">
<!-- Generated by graphviz version 7.0.5 (20221223.1930)
 -->
<!-- Title: include/bmem.h Pages: 1 -->
<svg width="192pt" height="247pt"
 viewBox="0.00 0.00 191.50 247.00" xmlns="http://www.w3.org/2000/svg" xmlns:xlink="http://www.w3.org/1999/xlink">
<g id="graph0" class="graph" transform="scale(1 1) rotate(0) translate(4 243)">
<title>include/bmem.h</title>
<!-- Node1 -->
<g id="node1" class="node">
<title>Node1</title>
<g id="a_node1"><a xlink:title="Data types and functions for accessing banked memory.">
<polygon fill="#999999" stroke="#666666" points="85,-239 0,-239 0,-220 85,-220 85,-239"/>
<text text-anchor="middle" x="42.5" y="-227" font-family="Helvetica,sans-Serif" font-size="10.00">include/bmem.h</text>
</a>
</g>
</g>
<!-- Node2 -->
<g id="node2" class="node">
<title>Node2</title>
<g id="a_node2"><a xlink:title=" ">
<polygon fill="#e0e0e0" stroke="#999999" points="77.5,-19 29.5,-19 29.5,0 77.5,0 77.5,-19"/>
<text text-anchor="middle" x="53.5" y="-7" font-family="Helvetica,sans-Serif" font-size="10.00">stdint.h</text>
</a>
</g>
</g>
<!-- Node1&#45;&gt;Node2 -->
<g id="edge1" class="edge">
<title>Node1&#45;&gt;Node2</title>
<path fill="none" stroke="#63b8ff" d="M42.94,-219.68C44.57,-187.57 50.18,-76.33 52.49,-30.49"/>
<polygon fill="#63b8ff" stroke="#63b8ff" points="55.98,-30.86 52.99,-20.7 48.99,-30.51 55.98,-30.86"/>
</g>
<!-- Node3 -->
<g id="node3" class="node">
<title>Node3</title>
<g id="a_node3"><a xlink:href="vmem_8h.html" target="_top" xlink:title="Data types and functions for VRAM access.">
<polygon fill="white" stroke="#666666" points="114,-184 63,-184 63,-165 114,-165 114,-184"/>
<text text-anchor="middle" x="88.5" y="-172" font-family="Helvetica,sans-Serif" font-size="10.00">vmem.h</text>
</a>
</g>
</g>
<!-- Node1&#45;&gt;Node3 -->
<g id="edge2" class="edge">
<title>Node1&#45;&gt;Node3</title>
<path fill="none" stroke="#63b8ff" d="M50.1,-219.75C56.38,-212.5 65.51,-201.98 73.3,-193.02"/>
<polygon fill="#63b8ff" stroke="#63b8ff" points="75.84,-195.43 79.75,-185.59 70.55,-190.84 75.84,-195.43"/>
</g>
<!-- Node3&#45;&gt;Node2 -->
<g id="edge3" class="edge">
<title>Node3&#45;&gt;Node2</title>
<path fill="none" stroke="#63b8ff" d="M84.82,-164.79C81.21,-155.92 75.78,-141.72 72.5,-129 63.73,-94.95 58.27,-54.3 55.56,-30.55"/>
<polygon fill="#63b8ff" stroke="#63b8ff" points="59.06,-30.31 54.5,-20.74 52.1,-31.06 59.06,-30.31"/>
</g>
<!-- Node4 -->
<g id="node4" class="node">
<title>Node4</title>
<g id="a_node4"><a xlink:title=" ">
<polygon fill="#e0e0e0" stroke="#999999" points="133,-129 82,-129 82,-110 133,-110 133,-129"/>
<text text-anchor="middle" x="107.5" y="-117" font-family="Helvetica,sans-Serif" font-size="10.00">stddef.h</text>
</a>
</g>
</g>
<!-- Node3&#45;&gt;Node4 -->
<g id="edge4" class="edge">
<title>Node3&#45;&gt;Node4</title>
<path fill="none" stroke="#63b8ff" d="M91.64,-164.75C94.04,-158.04 97.46,-148.52 100.5,-140.02"/>
<polygon fill="#63b8ff" stroke="#63b8ff" points="103.7,-141.46 103.78,-130.87 97.11,-139.1 103.7,-141.46"/>
</g>
<!-- Node5 -->
<g id="node5" class="node">
<title>Node5</title>
<g id="a_node5"><a xlink:href="io_8h.html" target="_top" xlink:title="Definition of I/O ports.">
<polygon fill="white" stroke="#666666" points="183.5,-129 151.5,-129 151.5,-110 183.5,-110 183.5,-129"/>
<text text-anchor="middle" x="167.5" y="-117" font-family="Helvetica,sans-Serif" font-size="10.00">io.h</text>
</a>
</g>
</g>
<!-- Node3&#45;&gt;Node5 -->
<g id="edge5" class="edge">
<title>Node3&#45;&gt;Node5</title>
<path fill="none" stroke="#63b8ff" d="M101.9,-164.51C113.66,-156.62 131.01,-144.98 144.91,-135.65"/>
<polygon fill="#63b8ff" stroke="#63b8ff" points="146.69,-138.68 153.04,-130.2 142.79,-132.87 146.69,-138.68"/>
</g>
<!-- Node6 -->
<g id="node6" class="node">
<title>Node6</title>
<g id="a_node6"><a xlink:href="config_8h.html" target="_top" xlink:title="Hack for C Compiler portability.">
<polygon fill="white" stroke="#666666" points="161.5,-74 111.5,-74 111.5,-55 161.5,-55 161.5,-74"/>
<text text-anchor="middle" x="136.5" y="-62" font-family="Helvetica,sans-Serif" font-size="10.00">config.h</text>
</a>
</g>
</g>
<!-- Node5&#45;&gt;Node6 -->
<g id="edge6" class="edge">
<title>Node5&#45;&gt;Node6</title>
<path fill="none" stroke="#63b8ff" d="M162.38,-109.75C158.32,-102.81 152.51,-92.86 147.41,-84.16"/>
<polygon fill="#63b8ff" stroke="#63b8ff" points="150.56,-82.61 142.49,-75.75 144.52,-86.15 150.56,-82.61"/>
</g>
<!-- Node6&#45;&gt;Node2 -->
<g id="edge7" class="edge">
<title>Node6&#45;&gt;Node2</title>
<path fill="none" stroke="#63b8ff" d="M122.42,-54.51C109.94,-46.54 91.48,-34.75 76.81,-25.38"/>
<polygon fill="#63b8ff" stroke="#63b8ff" points="78.96,-22.6 68.65,-20.17 75.19,-28.5 78.96,-22.6"/>
</g>
</g>
</svg>
