<?xml version="1.0" encoding="UTF-8" standalone="no"?>
<!DOCTYPE svg PUBLIC "-//W3C//DTD SVG 1.1//EN"
 "http://www.w3.org/Graphics/SVG/1.1/DTD/svg11.dtd">
<!-- Generated by graphviz version 12.2.0 (20241103.1931)
 -->
<!-- Title: include/bmem.h Pages: 1 -->
<svg width="506pt" height="138pt"
 viewBox="0.00 0.00 505.88 137.75" xmlns="http://www.w3.org/2000/svg" xmlns:xlink="http://www.w3.org/1999/xlink">
<g id="graph0" class="graph" transform="scale(1 1) rotate(0) translate(4 133.75)">
<title>include/bmem.h</title>
<!-- Node1 -->
<g id="Node000001" class="node">
<title>Node1</title>
<g id="a_Node000001"><a xlink:title="Data types and functions for accessing banked memory.">
<polygon fill="#999999" stroke="#666666" points="299,-129.75 214.75,-129.75 214.75,-110.5 299,-110.5 299,-129.75"/>
<text text-anchor="middle" x="256.88" y="-116.25" font-family="Helvetica,sans-Serif" font-size="10.00">include/bmem.h</text>
</a>
</g>
</g>
<!-- Node2 -->
<g id="Node000002" class="node">
<title>Node2</title>
<g id="a_Node000002"><a xlink:href="ZX0__decompress_8h.html" target="_top" xlink:title="Decompressor of the ZX0 data compression format version 2.">
<polygon fill="white" stroke="#666666" points="133.75,-74.5 0,-74.5 0,-55.25 133.75,-55.25 133.75,-74.5"/>
<text text-anchor="middle" x="66.88" y="-61" font-family="Helvetica,sans-Serif" font-size="10.00">include/ZX0_decompress.h</text>
</a>
</g>
</g>
<!-- Node1&#45;&gt;Node2 -->
<g id="edge1_Node000001_Node000002" class="edge">
<title>Node1&#45;&gt;Node2</title>
<g id="a_edge1_Node000001_Node000002"><a xlink:title=" ">
<path fill="none" stroke="#63b8ff" d="M213.86,-107.07C179.07,-97.32 130.85,-83.8 99.26,-74.95"/>
<polygon fill="#63b8ff" stroke="#63b8ff" points="212.61,-110.35 223.19,-109.68 214.5,-103.61 212.61,-110.35"/>
</a>
</g>
</g>
<!-- Node3 -->
<g id="Node000003" class="node">
<title>Node3</title>
<g id="a_Node000003"><a xlink:href="bmem__rd_8h.html" target="_top" xlink:title="Stream like access functions for Banked Memory.">
<polygon fill="white" stroke="#666666" points="249.75,-74.5 152,-74.5 152,-55.25 249.75,-55.25 249.75,-74.5"/>
<text text-anchor="middle" x="200.88" y="-61" font-family="Helvetica,sans-Serif" font-size="10.00">include/bmem_rd.h</text>
</a>
</g>
</g>
<!-- Node1&#45;&gt;Node3 -->
<g id="edge2_Node000001_Node000003" class="edge">
<title>Node1&#45;&gt;Node3</title>
<g id="a_edge2_Node000001_Node000003"><a xlink:title=" ">
<path fill="none" stroke="#63b8ff" d="M239.24,-102.36C229.63,-93.22 218.12,-82.28 210.23,-74.77"/>
<polygon fill="#63b8ff" stroke="#63b8ff" points="236.62,-104.69 246.28,-109.05 241.44,-99.62 236.62,-104.69"/>
</a>
</g>
</g>
<!-- Node5 -->
<g id="Node000005" class="node">
<title>Node5</title>
<g id="a_Node000005"><a xlink:href="memfile_8h.html" target="_top" xlink:title="Stream interface for ROM / RAM / MegaROM.">
<polygon fill="white" stroke="#666666" points="358.38,-74.5 267.38,-74.5 267.38,-55.25 358.38,-55.25 358.38,-74.5"/>
<text text-anchor="middle" x="312.88" y="-61" font-family="Helvetica,sans-Serif" font-size="10.00">include/memfile.h</text>
</a>
</g>
</g>
<!-- Node1&#45;&gt;Node5 -->
<g id="edge4_Node000001_Node000005" class="edge">
<title>Node1&#45;&gt;Node5</title>
<g id="a_edge4_Node000001_Node000005"><a xlink:title=" ">
<path fill="none" stroke="#63b8ff" d="M274.51,-102.36C284.12,-93.22 295.63,-82.28 303.52,-74.77"/>
<polygon fill="#63b8ff" stroke="#63b8ff" points="272.31,-99.62 267.47,-109.05 277.13,-104.69 272.31,-99.62"/>
</a>
</g>
</g>
<!-- Node9 -->
<g id="Node000009" class="node">
<title>Node9</title>
<g id="a_Node000009"><a xlink:href="resources_8h.html" target="_top" xlink:title="Data types and functions for accessing embedded resources.">
<polygon fill="white" stroke="#666666" points="476.88,-74.5 376.88,-74.5 376.88,-55.25 476.88,-55.25 476.88,-74.5"/>
<text text-anchor="middle" x="426.88" y="-61" font-family="Helvetica,sans-Serif" font-size="10.00">include/resources.h</text>
</a>
</g>
</g>
<!-- Node1&#45;&gt;Node9 -->
<g id="edge8_Node000001_Node000009" class="edge">
<title>Node1&#45;&gt;Node9</title>
<g id="a_edge8_Node000001_Node000009"><a xlink:title=" ">
<path fill="none" stroke="#63b8ff" d="M296.58,-106.69C327.61,-96.97 370,-83.69 397.9,-74.95"/>
<polygon fill="#63b8ff" stroke="#63b8ff" points="295.65,-103.31 287.16,-109.64 297.75,-109.99 295.65,-103.31"/>
</a>
</g>
</g>
<!-- Node4 -->
<g id="Node000004" class="node">
<title>Node4</title>
<g id="a_Node000004"><a xlink:href="xmem_8h.html" target="_top" xlink:title="Inter&#45;memory transfer functions for ROM / RAM, VRAM, and Banked Memory (MegaROM).">
<polygon fill="white" stroke="#666666" points="195.62,-19.25 112.12,-19.25 112.12,0 195.62,0 195.62,-19.25"/>
<text text-anchor="middle" x="153.88" y="-5.75" font-family="Helvetica,sans-Serif" font-size="10.00">include/xmem.h</text>
</a>
</g>
</g>
<!-- Node3&#45;&gt;Node4 -->
<g id="edge3_Node000003_Node000004" class="edge">
<title>Node3&#45;&gt;Node4</title>
<g id="a_edge3_Node000003_Node000004"><a xlink:title=" ">
<path fill="none" stroke="#63b8ff" d="M185.55,-46.51C177.62,-37.53 168.28,-26.95 161.8,-19.61"/>
<polygon fill="#63b8ff" stroke="#63b8ff" points="182.87,-48.77 192.11,-53.95 188.12,-44.13 182.87,-48.77"/>
</a>
</g>
</g>
<!-- Node6 -->
<g id="Node000006" class="node">
<title>Node6</title>
<g id="a_Node000006"><a xlink:href="NDP_8h.html" target="_top" xlink:title="NDP &#45; NDP sound driver.">
<polygon fill="white" stroke="#666666" points="292,-19.25 213.75,-19.25 213.75,0 292,0 292,-19.25"/>
<text text-anchor="middle" x="252.88" y="-5.75" font-family="Helvetica,sans-Serif" font-size="10.00">include/NDP.h</text>
</a>
</g>
</g>
<!-- Node5&#45;&gt;Node6 -->
<g id="edge5_Node000005_Node000006" class="edge">
<title>Node5&#45;&gt;Node6</title>
<g id="a_edge5_Node000005_Node000006"><a xlink:title=" ">
<path fill="none" stroke="#63b8ff" d="M294.3,-47.39C283.94,-38.19 271.44,-27.1 262.9,-19.52"/>
<polygon fill="#63b8ff" stroke="#63b8ff" points="291.76,-49.82 301.56,-53.84 296.41,-44.58 291.76,-49.82"/>
</a>
</g>
</g>
<!-- Node7 -->
<g id="Node000007" class="node">
<title>Node7</title>
<g id="a_Node000007"><a xlink:href="audio__buf_8h.html" target="_top" xlink:title="Unified sound&#45;chip buffer of the libmsx audio replayer.">
<polygon fill="white" stroke="#666666" points="409.5,-19.25 310.25,-19.25 310.25,0 409.5,0 409.5,-19.25"/>
<text text-anchor="middle" x="359.88" y="-5.75" font-family="Helvetica,sans-Serif" font-size="10.00">include/audio_buf.h</text>
</a>
</g>
</g>
<!-- Node5&#45;&gt;Node7 -->
<g id="edge6_Node000005_Node000007" class="edge">
<title>Node5&#45;&gt;Node7</title>
<g id="a_edge6_Node000005_Node000007"><a xlink:title=" ">
<path fill="none" stroke="#63b8ff" d="M328.2,-46.51C336.13,-37.53 345.47,-26.95 351.95,-19.61"/>
<polygon fill="#63b8ff" stroke="#63b8ff" points="325.63,-44.13 321.64,-53.95 330.88,-48.77 325.63,-44.13"/>
</a>
</g>
</g>
<!-- Node8 -->
<g id="Node000008" class="node">
<title>Node8</title>
<g id="a_Node000008"><a xlink:href="la0_8h.html" target="_top" xlink:title="The libmsx audio format 0 (LA0) decoder.">
<polygon fill="white" stroke="#666666" points="497.88,-19.25 427.88,-19.25 427.88,0 497.88,0 497.88,-19.25"/>
<text text-anchor="middle" x="462.88" y="-5.75" font-family="Helvetica,sans-Serif" font-size="10.00">include/la0.h</text>
</a>
</g>
</g>
<!-- Node5&#45;&gt;Node8 -->
<g id="edge7_Node000005_Node000008" class="edge">
<title>Node5&#45;&gt;Node8</title>
<g id="a_edge7_Node000005_Node000008"><a xlink:title=" ">
<path fill="none" stroke="#63b8ff" d="M349,-51.05C376.27,-41.37 413.02,-28.32 437.3,-19.7"/>
<polygon fill="#63b8ff" stroke="#63b8ff" points="348,-47.69 339.75,-54.34 350.34,-54.29 348,-47.69"/>
</a>
</g>
</g>
</g>
</svg>
