<?xml version="1.0" encoding="UTF-8" standalone="no"?>
<!DOCTYPE svg PUBLIC "-//W3C//DTD SVG 1.1//EN"
 "http://www.w3.org/Graphics/SVG/1.1/DTD/svg11.dtd">
<!-- Generated by graphviz version 9.0.0 (20230911.1827)
 -->
<!-- Title: include/bmem.h Pages: 1 -->
<svg width="190pt" height="248pt"
 viewBox="0.00 0.00 189.62 248.25" xmlns="http://www.w3.org/2000/svg" xmlns:xlink="http://www.w3.org/1999/xlink">
<g id="graph0" class="graph" transform="scale(1 1) rotate(0) translate(4 244.25)">
<title>include/bmem.h</title>
<!-- Node1 -->
<g id="Node000001" class="node">
<title>Node1</title>
<g id="a_Node000001"><a xlink:title="Data types and functions for accessing banked memory.">
<polygon fill="#999999" stroke="#666666" points="84.25,-240.25 0,-240.25 0,-221 84.25,-221 84.25,-240.25"/>
<text text-anchor="middle" x="42.12" y="-226.75" font-family="Helvetica,sans-Serif" font-size="10.00">include/bmem.h</text>
</a>
</g>
</g>
<!-- Node2 -->
<g id="Node000002" class="node">
<title>Node2</title>
<g id="a_Node000002"><a xlink:title=" ">
<polygon fill="#e0e0e0" stroke="#999999" points="77.88,-19.25 30.38,-19.25 30.38,0 77.88,0 77.88,-19.25"/>
<text text-anchor="middle" x="54.12" y="-5.75" font-family="Helvetica,sans-Serif" font-size="10.00">stdint.h</text>
</a>
</g>
</g>
<!-- Node1&#45;&gt;Node2 -->
<g id="edge1_Node000001_Node000002" class="edge">
<title>Node1&#45;&gt;Node2</title>
<g id="a_edge1_Node000001_Node000002"><a xlink:title=" ">
<path fill="none" stroke="#63b8ff" d="M42.61,-220.77C44.38,-188.51 50.5,-76.76 53.02,-30.71"/>
<polygon fill="#63b8ff" stroke="#63b8ff" points="56.51,-31.04 53.56,-20.86 49.52,-30.66 56.51,-31.04"/>
</a>
</g>
</g>
<!-- Node3 -->
<g id="Node000003" class="node">
<title>Node3</title>
<g id="a_Node000003"><a xlink:href="vmem_8h.html" target="_top" xlink:title="Data types and functions for VRAM access.">
<polygon fill="white" stroke="#666666" points="113.38,-185 62.88,-185 62.88,-165.75 113.38,-165.75 113.38,-185"/>
<text text-anchor="middle" x="88.12" y="-171.5" font-family="Helvetica,sans-Serif" font-size="10.00">vmem.h</text>
</a>
</g>
</g>
<!-- Node1&#45;&gt;Node3 -->
<g id="edge2_Node000001_Node000003" class="edge">
<title>Node1&#45;&gt;Node3</title>
<g id="a_edge2_Node000001_Node000003"><a xlink:title=" ">
<path fill="none" stroke="#63b8ff" d="M49.72,-220.83C56.01,-213.55 65.14,-202.98 72.92,-193.98"/>
<polygon fill="#63b8ff" stroke="#63b8ff" points="75.49,-196.36 79.37,-186.5 70.19,-191.78 75.49,-196.36"/>
</a>
</g>
</g>
<!-- Node3&#45;&gt;Node2 -->
<g id="edge3_Node000003_Node000002" class="edge">
<title>Node3&#45;&gt;Node2</title>
<g id="a_edge3_Node000003_Node000002"><a xlink:title=" ">
<path fill="none" stroke="#63b8ff" d="M84.57,-165.28C81.2,-156.35 76.21,-142.29 73.12,-129.75 64.72,-95.6 59.17,-55 56.34,-31.11"/>
<polygon fill="#63b8ff" stroke="#63b8ff" points="59.82,-30.74 55.22,-21.2 52.87,-31.53 59.82,-30.74"/>
</a>
</g>
</g>
<!-- Node4 -->
<g id="Node000004" class="node">
<title>Node4</title>
<g id="a_Node000004"><a xlink:title=" ">
<polygon fill="#e0e0e0" stroke="#999999" points="132.38,-129.75 81.88,-129.75 81.88,-110.5 132.38,-110.5 132.38,-129.75"/>
<text text-anchor="middle" x="107.12" y="-116.25" font-family="Helvetica,sans-Serif" font-size="10.00">stddef.h</text>
</a>
</g>
</g>
<!-- Node3&#45;&gt;Node4 -->
<g id="edge4_Node000003_Node000004" class="edge">
<title>Node3&#45;&gt;Node4</title>
<g id="a_edge4_Node000003_Node000004"><a xlink:title=" ">
<path fill="none" stroke="#63b8ff" d="M91.26,-165.58C93.67,-158.84 97.08,-149.27 100.13,-140.74"/>
<polygon fill="#63b8ff" stroke="#63b8ff" points="103.35,-142.13 103.41,-131.53 96.75,-139.78 103.35,-142.13"/>
</a>
</g>
</g>
<!-- Node5 -->
<g id="Node000005" class="node">
<title>Node5</title>
<g id="a_Node000005"><a xlink:href="io_8h.html" target="_top" xlink:title="Definition of I/O ports.">
<polygon fill="white" stroke="#666666" points="181.62,-129.75 150.62,-129.75 150.62,-110.5 181.62,-110.5 181.62,-129.75"/>
<text text-anchor="middle" x="166.12" y="-116.25" font-family="Helvetica,sans-Serif" font-size="10.00">io.h</text>
</a>
</g>
</g>
<!-- Node3&#45;&gt;Node5 -->
<g id="edge5_Node000003_Node000005" class="edge">
<title>Node3&#45;&gt;Node5</title>
<g id="a_edge5_Node000003_Node000005"><a xlink:title=" ">
<path fill="none" stroke="#63b8ff" d="M101.36,-165.34C112.9,-157.46 129.89,-145.86 143.57,-136.52"/>
<polygon fill="#63b8ff" stroke="#63b8ff" points="145.29,-139.58 151.58,-131.06 141.35,-133.8 145.29,-139.58"/>
</a>
</g>
</g>
<!-- Node6 -->
<g id="Node000006" class="node">
<title>Node6</title>
<g id="a_Node000006"><a xlink:href="config_8h.html" target="_top" xlink:title="Hack for C Compiler portability.">
<polygon fill="white" stroke="#666666" points="160.62,-74.5 111.62,-74.5 111.62,-55.25 160.62,-55.25 160.62,-74.5"/>
<text text-anchor="middle" x="136.12" y="-61" font-family="Helvetica,sans-Serif" font-size="10.00">config.h</text>
</a>
</g>
</g>
<!-- Node5&#45;&gt;Node6 -->
<g id="edge6_Node000005_Node000006" class="edge">
<title>Node5&#45;&gt;Node6</title>
<g id="a_edge6_Node000005_Node000006"><a xlink:title=" ">
<path fill="none" stroke="#63b8ff" d="M161.17,-110.33C157.24,-103.36 151.61,-93.37 146.69,-84.62"/>
<polygon fill="#63b8ff" stroke="#63b8ff" points="149.89,-83.17 141.93,-76.18 143.79,-86.61 149.89,-83.17"/>
</a>
</g>
</g>
<!-- Node6&#45;&gt;Node2 -->
<g id="edge7_Node000006_Node000002" class="edge">
<title>Node6&#45;&gt;Node2</title>
<g id="a_edge7_Node000006_Node000002"><a xlink:title=" ">
<path fill="none" stroke="#63b8ff" d="M122.21,-54.84C109.96,-46.89 91.87,-35.14 77.41,-25.75"/>
<polygon fill="#63b8ff" stroke="#63b8ff" points="79.67,-23.04 69.37,-20.53 75.85,-28.91 79.67,-23.04"/>
</a>
</g>
</g>
</g>
</svg>
