<?xml version="1.0" encoding="UTF-8" standalone="no"?>
<!DOCTYPE svg PUBLIC "-//W3C//DTD SVG 1.1//EN"
 "http://www.w3.org/Graphics/SVG/1.1/DTD/svg11.dtd">
<!-- Generated by graphviz version 3.0.0 (20221109.1736)
 -->
<!-- Title: include/config.h Pages: 1 -->
<svg width="798pt" height="364pt"
 viewBox="0.00 0.00 797.76 364.00" xmlns="http://www.w3.org/2000/svg" xmlns:xlink="http://www.w3.org/1999/xlink">
<g id="graph0" class="graph" transform="scale(1 1) rotate(0) translate(4 360)">
<title>include/config.h</title>
<!-- Node1 -->
<g id="node1" class="node">
<title>Node1</title>
<g id="a_node1"><a xlink:title="Hack for C Compiler portability.">
<polygon fill="#bfbfbf" stroke="black" points="77.5,-336.5 77.5,-355.5 160.5,-355.5 160.5,-336.5 77.5,-336.5"/>
<text text-anchor="middle" x="119" y="-343.5" font-family="Helvetica,sans-Serif" font-size="10.00">include/config.h</text>
</a>
</g>
</g>
<!-- Node2 -->
<g id="node2" class="node">
<title>Node2</title>
<g id="a_node2"><a xlink:href="bios__const_8h.html" target="_top" xlink:title="Constant variables in the MSX BIOS ROM.">
<polygon fill="none" stroke="black" points="66.5,-280.5 66.5,-299.5 171.5,-299.5 171.5,-280.5 66.5,-280.5"/>
<text text-anchor="middle" x="119" y="-287.5" font-family="Helvetica,sans-Serif" font-size="10.00">include/bios_const.h</text>
</a>
</g>
</g>
<!-- Node1&#45;&gt;Node2 -->
<g id="edge1" class="edge">
<title>Node1&#45;&gt;Node2</title>
<path fill="none" stroke="midnightblue" d="M119,-325.8C119,-316.91 119,-306.78 119,-299.75"/>
<polygon fill="midnightblue" stroke="midnightblue" points="115.5,-326.08 119,-336.08 122.5,-326.08 115.5,-326.08"/>
</g>
<!-- Node4 -->
<g id="node4" class="node">
<title>Node4</title>
<g id="a_node4"><a xlink:href="msx_8h.html" target="_top" xlink:title="Using #include &lt;msx.h&gt; includes almost all C header files in libmsx, for ease to use.">
<polygon fill="none" stroke="black" points="324,-0.5 324,-19.5 400,-19.5 400,-0.5 324,-0.5"/>
<text text-anchor="middle" x="362" y="-7.5" font-family="Helvetica,sans-Serif" font-size="10.00">include/msx.h</text>
</a>
</g>
</g>
<!-- Node1&#45;&gt;Node4 -->
<g id="edge33" class="edge">
<title>Node1&#45;&gt;Node4</title>
<path fill="none" stroke="midnightblue" d="M87.46,-332.16C52.2,-315.47 0,-282.7 0,-235 0,-235 0,-235 0,-121 0,-53.84 231,-23.78 323.94,-14.41"/>
<polygon fill="midnightblue" stroke="midnightblue" points="86.34,-335.5 96.9,-336.44 89.23,-329.12 86.34,-335.5"/>
</g>
<!-- Node8 -->
<g id="node8" class="node">
<title>Node8</title>
<g id="a_node8"><a xlink:href="workarea_8h.html" target="_top" xlink:title="Definitions of MSX SYSTEM Workarea.">
<polygon fill="none" stroke="black" points="28,-168.5 28,-187.5 126,-187.5 126,-168.5 28,-168.5"/>
<text text-anchor="middle" x="77" y="-175.5" font-family="Helvetica,sans-Serif" font-size="10.00">include/workarea.h</text>
</a>
</g>
</g>
<!-- Node1&#45;&gt;Node8 -->
<g id="edge34" class="edge">
<title>Node1&#45;&gt;Node8</title>
<path fill="none" stroke="midnightblue" d="M89.9,-331.65C77.37,-324.25 64,-313.73 57,-300 37.46,-261.68 61.21,-208.5 72.1,-187.77"/>
<polygon fill="midnightblue" stroke="midnightblue" points="88.32,-334.78 98.78,-336.49 91.67,-328.63 88.32,-334.78"/>
</g>
<!-- Node9 -->
<g id="node9" class="node">
<title>Node9</title>
<g id="a_node9"><a xlink:href="bios__entry_8h.html" target="_top" xlink:title="Assembler entry points for MSX BIOS functions.">
<polygon fill="none" stroke="black" points="190,-280.5 190,-299.5 292,-299.5 292,-280.5 190,-280.5"/>
<text text-anchor="middle" x="241" y="-287.5" font-family="Helvetica,sans-Serif" font-size="10.00">include/bios_entry.h</text>
</a>
</g>
</g>
<!-- Node1&#45;&gt;Node9 -->
<g id="edge13" class="edge">
<title>Node1&#45;&gt;Node9</title>
<path fill="none" stroke="midnightblue" d="M147.54,-332.37C170.39,-322.26 201.81,-308.35 221.76,-299.52"/>
<polygon fill="midnightblue" stroke="midnightblue" points="146.06,-329.2 138.33,-336.44 148.89,-335.6 146.06,-329.2"/>
</g>
<!-- Node10 -->
<g id="node10" class="node">
<title>Node10</title>
<g id="a_node10"><a xlink:href="io_8h.html" target="_top" xlink:title="Definition of I/O ports.">
<polygon fill="none" stroke="black" points="355.5,-280.5 355.5,-299.5 420.5,-299.5 420.5,-280.5 355.5,-280.5"/>
<text text-anchor="middle" x="388" y="-287.5" font-family="Helvetica,sans-Serif" font-size="10.00">include/io.h</text>
</a>
</g>
</g>
<!-- Node1&#45;&gt;Node10 -->
<g id="edge15" class="edge">
<title>Node1&#45;&gt;Node10</title>
<path fill="none" stroke="midnightblue" d="M170.56,-334.65C225.11,-323.7 309.52,-306.75 355.47,-297.53"/>
<polygon fill="midnightblue" stroke="midnightblue" points="169.85,-331.22 160.74,-336.62 171.23,-338.09 169.85,-331.22"/>
</g>
<!-- Node3 -->
<g id="node3" class="node">
<title>Node3</title>
<g id="a_node3"><a xlink:href="bios_8h.html" target="_top" xlink:title="C language I/F for MSX BIOS routines.">
<polygon fill="none" stroke="black" points="126,-224.5 126,-243.5 202,-243.5 202,-224.5 126,-224.5"/>
<text text-anchor="middle" x="164" y="-231.5" font-family="Helvetica,sans-Serif" font-size="10.00">include/bios.h</text>
</a>
</g>
</g>
<!-- Node2&#45;&gt;Node3 -->
<g id="edge2" class="edge">
<title>Node2&#45;&gt;Node3</title>
<path fill="none" stroke="midnightblue" d="M133.05,-272.14C140.89,-262.74 150.33,-251.4 156.71,-243.75"/>
<polygon fill="midnightblue" stroke="midnightblue" points="130.14,-270.16 126.43,-280.08 135.52,-274.64 130.14,-270.16"/>
</g>
<!-- Node2&#45;&gt;Node8 -->
<g id="edge10" class="edge">
<title>Node2&#45;&gt;Node8</title>
<path fill="none" stroke="midnightblue" d="M112.13,-271C102.96,-247 87.11,-205.47 80.28,-187.59"/>
<polygon fill="midnightblue" stroke="midnightblue" points="108.87,-272.27 115.7,-280.37 115.41,-269.78 108.87,-272.27"/>
</g>
<!-- Node3&#45;&gt;Node4 -->
<g id="edge3" class="edge">
<title>Node3&#45;&gt;Node4</title>
<path fill="none" stroke="midnightblue" d="M170.69,-214.73C175.93,-201.34 183.85,-182.98 193,-168 227.78,-111.05 241.37,-98.28 293,-56 310.37,-41.77 332.39,-28.07 346.82,-19.6"/>
<polygon fill="midnightblue" stroke="midnightblue" points="167.35,-213.64 167.08,-224.23 173.9,-216.12 167.35,-213.64"/>
</g>
<!-- Node5 -->
<g id="node5" class="node">
<title>Node5</title>
<g id="a_node5"><a xlink:href="vdp_8h.html" target="_top" xlink:title="Data types and functions for VDP (Video Display Proccessor) access.">
<polygon fill="none" stroke="black" points="247,-112.5 247,-131.5 321,-131.5 321,-112.5 247,-112.5"/>
<text text-anchor="middle" x="284" y="-119.5" font-family="Helvetica,sans-Serif" font-size="10.00">include/vdp.h</text>
</a>
</g>
</g>
<!-- Node3&#45;&gt;Node5 -->
<g id="edge4" class="edge">
<title>Node3&#45;&gt;Node5</title>
<path fill="none" stroke="midnightblue" d="M175.55,-215.72C185.32,-201.86 200.22,-182.41 216,-168 232.2,-153.2 253.71,-139.82 268.16,-131.57"/>
<polygon fill="midnightblue" stroke="midnightblue" points="172.44,-214.07 169.66,-224.29 178.21,-218.04 172.44,-214.07"/>
</g>
<!-- Node7 -->
<g id="node7" class="node">
<title>Node7</title>
<g id="a_node7"><a xlink:href="vdp__unsafe_8h.html" target="_top" xlink:title="Unsafe primitive functions for VDP (Video Display Proccessor) access.">
<polygon fill="none" stroke="black" points="258,-168.5 258,-187.5 366,-187.5 366,-168.5 258,-168.5"/>
<text text-anchor="middle" x="312" y="-175.5" font-family="Helvetica,sans-Serif" font-size="10.00">include/vdp_unsafe.h</text>
</a>
</g>
</g>
<!-- Node3&#45;&gt;Node7 -->
<g id="edge8" class="edge">
<title>Node3&#45;&gt;Node7</title>
<path fill="none" stroke="midnightblue" d="M197.15,-220.91C224.97,-210.75 264.02,-196.51 288.66,-187.52"/>
<polygon fill="midnightblue" stroke="midnightblue" points="195.65,-217.73 187.45,-224.44 198.04,-224.3 195.65,-217.73"/>
</g>
<!-- Node5&#45;&gt;Node4 -->
<g id="edge7" class="edge">
<title>Node5&#45;&gt;Node4</title>
<path fill="none" stroke="midnightblue" d="M288.05,-102.58C291.7,-88.85 298.03,-70.11 308,-56 318.7,-40.85 335.73,-27.82 347.8,-19.74"/>
<polygon fill="midnightblue" stroke="midnightblue" points="284.64,-101.79 285.69,-112.33 291.45,-103.43 284.64,-101.79"/>
</g>
<!-- Node6 -->
<g id="node6" class="node">
<title>Node6</title>
<g id="a_node6"><a xlink:href="metasprite_8h.html" target="_top" xlink:title="Meta&#45;sprite ; an aggregate of sprites.">
<polygon fill="none" stroke="black" points="350,-56.5 350,-75.5 454,-75.5 454,-56.5 350,-56.5"/>
<text text-anchor="middle" x="402" y="-63.5" font-family="Helvetica,sans-Serif" font-size="10.00">include/metasprite.h</text>
</a>
</g>
</g>
<!-- Node5&#45;&gt;Node6 -->
<g id="edge5" class="edge">
<title>Node5&#45;&gt;Node6</title>
<path fill="none" stroke="midnightblue" d="M311.9,-108.23C333.97,-98.13 364.18,-84.31 383.39,-75.52"/>
<polygon fill="midnightblue" stroke="midnightblue" points="310.33,-105.1 302.7,-112.44 313.25,-111.46 310.33,-105.1"/>
</g>
<!-- Node6&#45;&gt;Node4 -->
<g id="edge6" class="edge">
<title>Node6&#45;&gt;Node4</title>
<path fill="none" stroke="midnightblue" d="M389.3,-47.86C382.37,-38.5 374.09,-27.33 368.48,-19.75"/>
<polygon fill="midnightblue" stroke="midnightblue" points="386.63,-50.13 395.39,-56.08 392.25,-45.96 386.63,-50.13"/>
</g>
<!-- Node7&#45;&gt;Node5 -->
<g id="edge9" class="edge">
<title>Node7&#45;&gt;Node5</title>
<path fill="none" stroke="midnightblue" d="M302.66,-158.98C297.91,-149.82 292.34,-139.09 288.54,-131.75"/>
<polygon fill="midnightblue" stroke="midnightblue" points="299.67,-160.82 307.38,-168.08 305.88,-157.59 299.67,-160.82"/>
</g>
<!-- Node8&#45;&gt;Node4 -->
<g id="edge11" class="edge">
<title>Node8&#45;&gt;Node4</title>
<path fill="none" stroke="midnightblue" d="M81.23,-158.59C88.43,-131.63 105.74,-81.79 140,-56 168.51,-34.53 268.18,-20.89 323.78,-14.76"/>
<polygon fill="midnightblue" stroke="midnightblue" points="77.83,-157.76 78.81,-168.31 84.62,-159.45 77.83,-157.76"/>
</g>
<!-- Node8&#45;&gt;Node5 -->
<g id="edge12" class="edge">
<title>Node8&#45;&gt;Node5</title>
<path fill="none" stroke="midnightblue" d="M119.82,-165.83C158.91,-155.63 215.83,-140.78 251.35,-131.52"/>
<polygon fill="midnightblue" stroke="midnightblue" points="118.59,-162.53 109.8,-168.44 120.36,-169.31 118.59,-162.53"/>
</g>
<!-- Node9&#45;&gt;Node3 -->
<g id="edge14" class="edge">
<title>Node9&#45;&gt;Node3</title>
<path fill="none" stroke="midnightblue" d="M220.1,-274.34C206.09,-264.52 188.12,-251.91 176.34,-243.65"/>
<polygon fill="midnightblue" stroke="midnightblue" points="218.43,-277.45 228.63,-280.32 222.45,-271.72 218.43,-277.45"/>
</g>
<!-- Node10&#45;&gt;Node4 -->
<g id="edge16" class="edge">
<title>Node10&#45;&gt;Node4</title>
<path fill="none" stroke="midnightblue" d="M430.98,-289.27C504.37,-287.24 646,-271.36 646,-179 646,-179 646,-179 646,-121 646,-87.08 633.98,-75.17 606,-56 573.13,-33.48 460.34,-20.01 400.31,-14.27"/>
<polygon fill="midnightblue" stroke="midnightblue" points="430.6,-285.78 420.68,-289.48 430.74,-292.78 430.6,-285.78"/>
</g>
<!-- Node10&#45;&gt;Node5 -->
<g id="edge20" class="edge">
<title>Node10&#45;&gt;Node5</title>
<path fill="none" stroke="midnightblue" d="M356.11,-276.34C322.47,-261.04 271.31,-231.79 249,-188 238.64,-167.67 259.61,-144.19 273.35,-131.76"/>
<polygon fill="midnightblue" stroke="midnightblue" points="354.95,-279.65 365.51,-280.46 357.76,-273.24 354.95,-279.65"/>
</g>
<!-- Node10&#45;&gt;Node7 -->
<g id="edge21" class="edge">
<title>Node10&#45;&gt;Node7</title>
<path fill="none" stroke="midnightblue" d="M376.22,-271.96C359.75,-248.12 330.45,-205.71 317.94,-187.59"/>
<polygon fill="midnightblue" stroke="midnightblue" points="373.47,-274.13 382.04,-280.37 379.23,-270.15 373.47,-274.13"/>
</g>
<!-- Node11 -->
<g id="node11" class="node">
<title>Node11</title>
<g id="a_node11"><a xlink:href="psg_8h.html" target="_top" xlink:title="Device interface for PSG (AY&#45;3&#45;8910) an internal sound chip.">
<polygon fill="none" stroke="black" points="689,-224.5 689,-243.5 763,-243.5 763,-224.5 689,-224.5"/>
<text text-anchor="middle" x="726" y="-231.5" font-family="Helvetica,sans-Serif" font-size="10.00">include/psg.h</text>
</a>
</g>
</g>
<!-- Node10&#45;&gt;Node11 -->
<g id="edge17" class="edge">
<title>Node10&#45;&gt;Node11</title>
<path fill="none" stroke="midnightblue" d="M430.91,-282.14C497.8,-271.46 625.81,-251.01 688.93,-240.92"/>
<polygon fill="midnightblue" stroke="midnightblue" points="430.04,-278.74 420.72,-283.77 431.14,-285.65 430.04,-278.74"/>
</g>
<!-- Node13 -->
<g id="node13" class="node">
<title>Node13</title>
<g id="a_node13"><a xlink:href="vmem_8h.html" target="_top" xlink:title="Data types and functions for VRAM access.">
<polygon fill="none" stroke="black" points="389.5,-224.5 389.5,-243.5 474.5,-243.5 474.5,-224.5 389.5,-224.5"/>
<text text-anchor="middle" x="432" y="-231.5" font-family="Helvetica,sans-Serif" font-size="10.00">include/vmem.h</text>
</a>
</g>
</g>
<!-- Node10&#45;&gt;Node13 -->
<g id="edge22" class="edge">
<title>Node10&#45;&gt;Node13</title>
<path fill="none" stroke="midnightblue" d="M401.73,-272.14C409.4,-262.74 418.63,-251.4 424.87,-243.75"/>
<polygon fill="midnightblue" stroke="midnightblue" points="398.87,-270.12 395.27,-280.08 404.3,-274.54 398.87,-270.12"/>
</g>
<!-- Node11&#45;&gt;Node4 -->
<g id="edge19" class="edge">
<title>Node11&#45;&gt;Node4</title>
<path fill="none" stroke="midnightblue" d="M753.97,-219.48C774.22,-207.63 796.5,-189.04 787,-168 756.04,-99.41 728.21,-87.8 660,-56 573.46,-15.65 458.86,-9.96 400.19,-10.02"/>
<polygon fill="midnightblue" stroke="midnightblue" points="752.02,-216.56 744.93,-224.43 755.38,-222.7 752.02,-216.56"/>
</g>
<!-- Node12 -->
<g id="node12" class="node">
<title>Node12</title>
<g id="a_node12"><a xlink:href="ay__3__8910_8h.html" target="_top" xlink:title="Buffer for PSG (AY&#45;3&#45;8910) registers.">
<polygon fill="none" stroke="black" points="674,-168.5 674,-187.5 778,-187.5 778,-168.5 674,-168.5"/>
<text text-anchor="middle" x="726" y="-175.5" font-family="Helvetica,sans-Serif" font-size="10.00">include/ay_3_8910.h</text>
</a>
</g>
</g>
<!-- Node11&#45;&gt;Node12 -->
<g id="edge18" class="edge">
<title>Node11&#45;&gt;Node12</title>
<path fill="none" stroke="midnightblue" d="M726,-213.8C726,-204.91 726,-194.78 726,-187.75"/>
<polygon fill="midnightblue" stroke="midnightblue" points="722.5,-214.08 726,-224.08 729.5,-214.08 722.5,-214.08"/>
</g>
<!-- Node13&#45;&gt;Node4 -->
<g id="edge24" class="edge">
<title>Node13&#45;&gt;Node4</title>
<path fill="none" stroke="midnightblue" d="M423.48,-215.12C417.06,-201.93 407.87,-183.63 399,-168 375.14,-125.96 354.42,-122.44 341,-76 335.14,-55.72 347.58,-32.22 355.71,-19.78"/>
<polygon fill="midnightblue" stroke="midnightblue" points="420.48,-216.96 427.97,-224.45 426.79,-213.93 420.48,-216.96"/>
</g>
<!-- Node13&#45;&gt;Node5 -->
<g id="edge31" class="edge">
<title>Node13&#45;&gt;Node5</title>
<path fill="none" stroke="midnightblue" d="M420.16,-216.12C409.56,-201.92 392.97,-181.8 375,-168 354.17,-152 326.76,-139.38 307.49,-131.63"/>
<polygon fill="midnightblue" stroke="midnightblue" points="417.5,-218.42 426.21,-224.46 423.17,-214.31 417.5,-218.42"/>
</g>
<!-- Node13&#45;&gt;Node6 -->
<g id="edge23" class="edge">
<title>Node13&#45;&gt;Node6</title>
<path fill="none" stroke="midnightblue" d="M440.14,-214.54C444.86,-201.54 449.27,-183.72 446,-168 438.43,-131.67 417.07,-92.4 407.16,-75.51"/>
<polygon fill="midnightblue" stroke="midnightblue" points="436.75,-213.59 436.27,-224.18 443.25,-216.2 436.75,-213.59"/>
</g>
<!-- Node13&#45;&gt;Node7 -->
<g id="edge32" class="edge">
<title>Node13&#45;&gt;Node7</title>
<path fill="none" stroke="midnightblue" d="M403.63,-220.23C381.18,-210.13 350.46,-196.31 330.93,-187.52"/>
<polygon fill="midnightblue" stroke="midnightblue" points="402.43,-223.53 412.99,-224.44 405.3,-217.15 402.43,-223.53"/>
</g>
<!-- Node14 -->
<g id="node14" class="node">
<title>Node14</title>
<g id="a_node14"><a xlink:href="sprite_8h.html" target="_top" xlink:title="Sprites.">
<polygon fill="none" stroke="black" points="536,-112.5 536,-131.5 618,-131.5 618,-112.5 536,-112.5"/>
<text text-anchor="middle" x="577" y="-119.5" font-family="Helvetica,sans-Serif" font-size="10.00">include/sprite.h</text>
</a>
</g>
</g>
<!-- Node13&#45;&gt;Node14 -->
<g id="edge25" class="edge">
<title>Node13&#45;&gt;Node14</title>
<path fill="none" stroke="midnightblue" d="M464.79,-220.44C482.72,-212.67 504.73,-201.57 522,-188 543.39,-171.19 562.44,-144.97 571.47,-131.54"/>
<polygon fill="midnightblue" stroke="midnightblue" points="463.17,-217.32 455.3,-224.42 465.88,-223.78 463.17,-217.32"/>
</g>
<!-- Node15 -->
<g id="node15" class="node">
<title>Node15</title>
<g id="a_node15"><a xlink:href="sprite__color_8h.html" target="_top" xlink:title="Sprite color table interface.">
<polygon fill="none" stroke="black" points="472,-56.5 472,-75.5 580,-75.5 580,-56.5 472,-56.5"/>
<text text-anchor="middle" x="526" y="-63.5" font-family="Helvetica,sans-Serif" font-size="10.00">include/sprite_color.h</text>
</a>
</g>
</g>
<!-- Node13&#45;&gt;Node15 -->
<g id="edge30" class="edge">
<title>Node13&#45;&gt;Node15</title>
<path fill="none" stroke="midnightblue" d="M442.91,-215.98C448.19,-207.62 454.54,-197.36 460,-188 484.23,-146.45 511.1,-95.55 521.53,-75.6"/>
<polygon fill="midnightblue" stroke="midnightblue" points="439.93,-214.15 437.52,-224.46 445.84,-217.9 439.93,-214.15"/>
</g>
<!-- Node14&#45;&gt;Node4 -->
<g id="edge27" class="edge">
<title>Node14&#45;&gt;Node4</title>
<path fill="none" stroke="midnightblue" d="M587.35,-103.08C594.08,-88.82 599.78,-69.13 589,-56 565.54,-27.44 458.54,-16.69 400.2,-12.9"/>
<polygon fill="midnightblue" stroke="midnightblue" points="584.04,-101.86 582.49,-112.34 590.24,-105.11 584.04,-101.86"/>
</g>
<!-- Node14&#45;&gt;Node6 -->
<g id="edge26" class="edge">
<title>Node14&#45;&gt;Node6</title>
<path fill="none" stroke="midnightblue" d="M539.53,-109.44C506.53,-99.26 459.24,-84.66 429.6,-75.52"/>
<polygon fill="midnightblue" stroke="midnightblue" points="538.68,-112.84 549.27,-112.44 540.75,-106.15 538.68,-112.84"/>
</g>
<!-- Node14&#45;&gt;Node15 -->
<g id="edge28" class="edge">
<title>Node14&#45;&gt;Node15</title>
<path fill="none" stroke="midnightblue" d="M561.62,-104.72C552.63,-95.2 541.64,-83.56 534.26,-75.75"/>
<polygon fill="midnightblue" stroke="midnightblue" points="559.17,-107.22 568.58,-112.08 564.26,-102.41 559.17,-107.22"/>
</g>
<!-- Node15&#45;&gt;Node4 -->
<g id="edge29" class="edge">
<title>Node15&#45;&gt;Node4</title>
<path fill="none" stroke="midnightblue" d="M490.48,-53.3C459.58,-43.13 415.53,-28.62 387.86,-19.52"/>
<polygon fill="midnightblue" stroke="midnightblue" points="489.42,-56.64 500.01,-56.44 491.61,-49.99 489.42,-56.64"/>
</g>
</g>
</svg>
