<?xml version="1.0" encoding="UTF-8" standalone="no"?>
<!DOCTYPE svg PUBLIC "-//W3C//DTD SVG 1.1//EN"
 "http://www.w3.org/Graphics/SVG/1.1/DTD/svg11.dtd">
<!-- Generated by graphviz version 9.0.0 (20230911.1827)
 -->
<!-- Title: include/config.h Pages: 1 -->
<svg width="1177pt" height="359pt"
 viewBox="0.00 0.00 1176.75 358.75" xmlns="http://www.w3.org/2000/svg" xmlns:xlink="http://www.w3.org/1999/xlink">
<g id="graph0" class="graph" transform="scale(1 1) rotate(0) translate(4 354.75)">
<title>include/config.h</title>
<!-- Node1 -->
<g id="Node000001" class="node">
<title>Node1</title>
<g id="a_Node000001"><a xlink:title="Hack for C Compiler portability.">
<polygon fill="#999999" stroke="#666666" points="958.38,-350.75 875.62,-350.75 875.62,-331.5 958.38,-331.5 958.38,-350.75"/>
<text text-anchor="middle" x="917" y="-337.25" font-family="Helvetica,sans-Serif" font-size="10.00">include/config.h</text>
</a>
</g>
</g>
<!-- Node2 -->
<g id="Node000002" class="node">
<title>Node2</title>
<g id="a_Node000002"><a xlink:href="bios__const_8h.html" target="_top" xlink:title="Constant variables in the MSX BIOS ROM.">
<polygon fill="white" stroke="#666666" points="1049.25,-295.5 944.75,-295.5 944.75,-276.25 1049.25,-276.25 1049.25,-295.5"/>
<text text-anchor="middle" x="997" y="-282" font-family="Helvetica,sans-Serif" font-size="10.00">include/bios_const.h</text>
</a>
</g>
</g>
<!-- Node1&#45;&gt;Node2 -->
<g id="edge1_Node000001_Node000002" class="edge">
<title>Node1&#45;&gt;Node2</title>
<g id="a_edge1_Node000001_Node000002"><a xlink:title=" ">
<path fill="none" stroke="#63b8ff" d="M940.05,-324.78C954.07,-315.45 971.5,-303.85 983.36,-295.95"/>
<polygon fill="#63b8ff" stroke="#63b8ff" points="938.22,-321.8 931.83,-330.25 942.09,-327.63 938.22,-321.8"/>
</a>
</g>
</g>
<!-- Node4 -->
<g id="Node000004" class="node">
<title>Node4</title>
<g id="a_Node000004"><a xlink:href="msx_8h.html" target="_top" xlink:title="Using #include &lt;msx.h&gt; includes almost all C header files in libmsx, for ease to use.">
<polygon fill="white" stroke="#666666" points="803.62,-19.25 728.38,-19.25 728.38,0 803.62,0 803.62,-19.25"/>
<text text-anchor="middle" x="766" y="-5.75" font-family="Helvetica,sans-Serif" font-size="10.00">include/msx.h</text>
</a>
</g>
</g>
<!-- Node1&#45;&gt;Node4 -->
<g id="edge44_Node000001_Node000004" class="edge">
<title>Node1&#45;&gt;Node4</title>
<g id="a_edge44_Node000001_Node000004"><a xlink:title=" ">
<path fill="none" stroke="#63b8ff" d="M863.83,-339.46C668.24,-336.33 0,-319.21 0,-231.62 0,-231.62 0,-231.62 0,-119.12 0,-79.25 26.72,-71.79 63,-55.25 123.64,-27.6 590.79,-14.68 728.14,-11.45"/>
<polygon fill="#63b8ff" stroke="#63b8ff" points="863.65,-342.96 873.7,-339.61 863.76,-335.96 863.65,-342.96"/>
</a>
</g>
</g>
<!-- Node8 -->
<g id="Node000008" class="node">
<title>Node8</title>
<g id="a_Node000008"><a xlink:href="workarea_8h.html" target="_top" xlink:title="Definitions of MSX SYSTEM Workarea.">
<polygon fill="white" stroke="#666666" points="1054.5,-240.25 957.5,-240.25 957.5,-221 1054.5,-221 1054.5,-240.25"/>
<text text-anchor="middle" x="1006" y="-226.75" font-family="Helvetica,sans-Serif" font-size="10.00">include/workarea.h</text>
</a>
</g>
</g>
<!-- Node1&#45;&gt;Node8 -->
<g id="edge45_Node000001_Node000008" class="edge">
<title>Node1&#45;&gt;Node8</title>
<g id="a_edge45_Node000001_Node000008"><a xlink:title=" ">
<path fill="none" stroke="#63b8ff" d="M919.27,-320.02C921.62,-306.54 926.39,-288.99 936,-276.25 948.24,-260.03 968.23,-248.14 983.72,-240.73"/>
<polygon fill="#63b8ff" stroke="#63b8ff" points="915.8,-319.52 917.88,-329.91 922.73,-320.5 915.8,-319.52"/>
</a>
</g>
</g>
<!-- Node9 -->
<g id="Node000009" class="node">
<title>Node9</title>
<g id="a_Node000009"><a xlink:href="bios__entry_8h.html" target="_top" xlink:title="Assembler entry points for MSX BIOS functions.">
<polygon fill="white" stroke="#666666" points="1168.75,-295.5 1067.25,-295.5 1067.25,-276.25 1168.75,-276.25 1168.75,-295.5"/>
<text text-anchor="middle" x="1118" y="-282" font-family="Helvetica,sans-Serif" font-size="10.00">include/bios_entry.h</text>
</a>
</g>
</g>
<!-- Node1&#45;&gt;Node9 -->
<g id="edge13_Node000001_Node000009" class="edge">
<title>Node1&#45;&gt;Node9</title>
<g id="a_edge13_Node000001_Node000009"><a xlink:title=" ">
<path fill="none" stroke="#63b8ff" d="M962.03,-328.2C998.87,-318.44 1050.18,-304.84 1083.74,-295.95"/>
<polygon fill="#63b8ff" stroke="#63b8ff" points="961.33,-324.76 952.56,-330.7 963.12,-331.53 961.33,-324.76"/>
</a>
</g>
</g>
<!-- Node10 -->
<g id="Node000010" class="node">
<title>Node10</title>
<g id="a_Node000010"><a xlink:href="io_8h.html" target="_top" xlink:title="Definition of I/O ports.">
<polygon fill="white" stroke="#666666" points="829.38,-295.5 764.62,-295.5 764.62,-276.25 829.38,-276.25 829.38,-295.5"/>
<text text-anchor="middle" x="797" y="-282" font-family="Helvetica,sans-Serif" font-size="10.00">include/io.h</text>
</a>
</g>
</g>
<!-- Node1&#45;&gt;Node10 -->
<g id="edge15_Node000001_Node000010" class="edge">
<title>Node1&#45;&gt;Node10</title>
<g id="a_edge15_Node000001_Node000010"><a xlink:title=" ">
<path fill="none" stroke="#63b8ff" d="M886.34,-326.52C864.73,-316.93 836.37,-304.34 817.46,-295.95"/>
<polygon fill="#63b8ff" stroke="#63b8ff" points="884.7,-329.62 895.26,-330.48 887.54,-323.22 884.7,-329.62"/>
</a>
</g>
</g>
<!-- Node3 -->
<g id="Node000003" class="node">
<title>Node3</title>
<g id="a_Node000003"><a xlink:href="bios_8h.html" target="_top" xlink:title="C language I/F for MSX BIOS routines.">
<polygon fill="white" stroke="#666666" points="1147.62,-240.25 1072.38,-240.25 1072.38,-221 1147.62,-221 1147.62,-240.25"/>
<text text-anchor="middle" x="1110" y="-226.75" font-family="Helvetica,sans-Serif" font-size="10.00">include/bios.h</text>
</a>
</g>
</g>
<!-- Node2&#45;&gt;Node3 -->
<g id="edge2_Node000002_Node000003" class="edge">
<title>Node2&#45;&gt;Node3</title>
<g id="a_edge2_Node000002_Node000003"><a xlink:title=" ">
<path fill="none" stroke="#63b8ff" d="M1026.43,-271.01C1046.71,-261.45 1073.09,-249.02 1090.74,-240.7"/>
<polygon fill="#63b8ff" stroke="#63b8ff" points="1025.09,-267.77 1017.54,-275.2 1028.08,-274.1 1025.09,-267.77"/>
</a>
</g>
</g>
<!-- Node2&#45;&gt;Node8 -->
<g id="edge10_Node000002_Node000008" class="edge">
<title>Node2&#45;&gt;Node8</title>
<g id="a_edge10_Node000002_Node000008"><a xlink:title=" ">
<path fill="none" stroke="#63b8ff" d="M1000.37,-264.92C1001.79,-256.55 1003.36,-247.25 1004.48,-240.61"/>
<polygon fill="#63b8ff" stroke="#63b8ff" points="996.95,-264.15 998.74,-274.59 1003.86,-265.31 996.95,-264.15"/>
</a>
</g>
</g>
<!-- Node3&#45;&gt;Node4 -->
<g id="edge3_Node000003_Node000004" class="edge">
<title>Node3&#45;&gt;Node4</title>
<g id="a_edge3_Node000003_Node000004"><a xlink:title=" ">
<path fill="none" stroke="#63b8ff" d="M1102.9,-210.28C1088.37,-173.62 1051.62,-94.24 993,-55.25 962.48,-34.95 860.11,-20.92 803.84,-14.53"/>
<polygon fill="#63b8ff" stroke="#63b8ff" points="1099.45,-211.07 1106.29,-219.16 1105.99,-208.57 1099.45,-211.07"/>
</a>
</g>
</g>
<!-- Node5 -->
<g id="Node000005" class="node">
<title>Node5</title>
<g id="a_Node000005"><a xlink:href="vdp_8h.html" target="_top" xlink:title="Data types and functions for VDP (Video Display Proccessor) access.">
<polygon fill="white" stroke="#666666" points="999.5,-129.75 926.5,-129.75 926.5,-110.5 999.5,-110.5 999.5,-129.75"/>
<text text-anchor="middle" x="963" y="-116.25" font-family="Helvetica,sans-Serif" font-size="10.00">include/vdp.h</text>
</a>
</g>
</g>
<!-- Node3&#45;&gt;Node5 -->
<g id="edge4_Node000003_Node000005" class="edge">
<title>Node3&#45;&gt;Node5</title>
<g id="a_edge4_Node000003_Node000005"><a xlink:title=" ">
<path fill="none" stroke="#63b8ff" d="M1088.54,-213.78C1057.23,-190.67 1000.05,-148.47 975.14,-130.09"/>
<polygon fill="#63b8ff" stroke="#63b8ff" points="1086.38,-216.54 1096.5,-219.66 1090.53,-210.91 1086.38,-216.54"/>
</a>
</g>
</g>
<!-- Node7 -->
<g id="Node000007" class="node">
<title>Node7</title>
<g id="a_Node000007"><a xlink:href="vdp__unsafe_8h.html" target="_top" xlink:title="Unsafe primitive functions for VDP (Video Display Proccessor) access.">
<polygon fill="white" stroke="#666666" points="934.75,-185 827.25,-185 827.25,-165.75 934.75,-165.75 934.75,-185"/>
<text text-anchor="middle" x="881" y="-171.5" font-family="Helvetica,sans-Serif" font-size="10.00">include/vdp_unsafe.h</text>
</a>
</g>
</g>
<!-- Node3&#45;&gt;Node7 -->
<g id="edge8_Node000003_Node000007" class="edge">
<title>Node3&#45;&gt;Node7</title>
<g id="a_edge8_Node000003_Node000007"><a xlink:title=" ">
<path fill="none" stroke="#63b8ff" d="M1060.81,-218.19C1018.68,-208.39 958.8,-194.47 919.93,-185.43"/>
<polygon fill="#63b8ff" stroke="#63b8ff" points="1059.92,-221.57 1070.45,-220.43 1061.51,-214.76 1059.92,-221.57"/>
</a>
</g>
</g>
<!-- Node5&#45;&gt;Node4 -->
<g id="edge7_Node000005_Node000004" class="edge">
<title>Node5&#45;&gt;Node4</title>
<g id="a_edge7_Node000005_Node000004"><a xlink:title=" ">
<path fill="none" stroke="#63b8ff" d="M963.48,-98.91C962.7,-84.85 959.29,-66.65 948,-55.25 928.08,-35.14 851.16,-21.75 803.93,-15.24"/>
<polygon fill="#63b8ff" stroke="#63b8ff" points="959.98,-98.87 963.59,-108.83 966.98,-98.79 959.98,-98.87"/>
</a>
</g>
</g>
<!-- Node6 -->
<g id="Node000006" class="node">
<title>Node6</title>
<g id="a_Node000006"><a xlink:href="metasprite_8h.html" target="_top" xlink:title="Meta&#45;sprite ; an aggregate of sprites.">
<polygon fill="white" stroke="#666666" points="938.5,-74.5 835.5,-74.5 835.5,-55.25 938.5,-55.25 938.5,-74.5"/>
<text text-anchor="middle" x="887" y="-61" font-family="Helvetica,sans-Serif" font-size="10.00">include/metasprite.h</text>
</a>
</g>
</g>
<!-- Node5&#45;&gt;Node6 -->
<g id="edge5_Node000005_Node000006" class="edge">
<title>Node5&#45;&gt;Node6</title>
<g id="a_edge5_Node000005_Node000006"><a xlink:title=" ">
<path fill="none" stroke="#63b8ff" d="M940.71,-103.51C927.46,-94.22 911.11,-82.77 899.96,-74.95"/>
<polygon fill="#63b8ff" stroke="#63b8ff" points="938.67,-106.35 948.87,-109.22 942.69,-100.62 938.67,-106.35"/>
</a>
</g>
</g>
<!-- Node6&#45;&gt;Node4 -->
<g id="edge6_Node000006_Node000004" class="edge">
<title>Node6&#45;&gt;Node4</title>
<g id="a_edge6_Node000006_Node000004"><a xlink:title=" ">
<path fill="none" stroke="#63b8ff" d="M856.09,-50.27C834.29,-40.68 805.69,-28.09 786.63,-19.7"/>
<polygon fill="#63b8ff" stroke="#63b8ff" points="854.53,-53.41 865.09,-54.23 857.35,-47 854.53,-53.41"/>
</a>
</g>
</g>
<!-- Node7&#45;&gt;Node5 -->
<g id="edge9_Node000007_Node000005" class="edge">
<title>Node7&#45;&gt;Node5</title>
<g id="a_edge9_Node000007_Node000005"><a xlink:title=" ">
<path fill="none" stroke="#63b8ff" d="M904.21,-159.3C918.65,-149.92 936.75,-138.17 949.02,-130.2"/>
<polygon fill="#63b8ff" stroke="#63b8ff" points="902.66,-156.14 896.18,-164.52 906.47,-162.01 902.66,-156.14"/>
</a>
</g>
</g>
<!-- Node8&#45;&gt;Node4 -->
<g id="edge11_Node000008_Node000004" class="edge">
<title>Node8&#45;&gt;Node4</title>
<g id="a_edge11_Node000008_Node000004"><a xlink:title=" ">
<path fill="none" stroke="#63b8ff" d="M1010.63,-209.41C1015.25,-185.19 1020.2,-143.74 1009,-110.5 999.15,-81.27 992.97,-71.89 967,-55.25 916.73,-23.05 846.51,-13.87 803.76,-11.38"/>
<polygon fill="#63b8ff" stroke="#63b8ff" points="1007.21,-208.66 1008.58,-219.17 1014.06,-210.1 1007.21,-208.66"/>
</a>
</g>
</g>
<!-- Node8&#45;&gt;Node5 -->
<g id="edge12_Node000008_Node000005" class="edge">
<title>Node8&#45;&gt;Node5</title>
<g id="a_edge12_Node000008_Node000005"><a xlink:title=" ">
<path fill="none" stroke="#63b8ff" d="M998.32,-210.26C988.95,-186.62 973.51,-147.63 966.57,-130.13"/>
<polygon fill="#63b8ff" stroke="#63b8ff" points="994.99,-211.33 1001.92,-219.34 1001.49,-208.75 994.99,-211.33"/>
</a>
</g>
</g>
<!-- Node9&#45;&gt;Node3 -->
<g id="edge14_Node000009_Node000003" class="edge">
<title>Node9&#45;&gt;Node3</title>
<g id="a_edge14_Node000009_Node000003"><a xlink:title=" ">
<path fill="none" stroke="#63b8ff" d="M1115,-264.92C1113.75,-256.55 1112.35,-247.25 1111.35,-240.61"/>
<polygon fill="#63b8ff" stroke="#63b8ff" points="1111.51,-265.22 1116.45,-274.59 1118.43,-264.18 1111.51,-265.22"/>
</a>
</g>
</g>
<!-- Node10&#45;&gt;Node4 -->
<g id="edge16_Node000010_Node000004" class="edge">
<title>Node10&#45;&gt;Node4</title>
<g id="a_edge16_Node000010_Node000004"><a xlink:title=" ">
<path fill="none" stroke="#63b8ff" d="M752.93,-284.04C628.31,-281.31 275.22,-271.01 164,-240.25 103.49,-223.52 38,-239.16 38,-176.38 38,-176.38 38,-176.38 38,-119.12 38,-73.28 76.23,-71.76 119,-55.25 231.26,-11.93 607.12,-9.84 728.12,-10.33"/>
<polygon fill="#63b8ff" stroke="#63b8ff" points="752.67,-287.53 762.75,-284.25 752.82,-280.53 752.67,-287.53"/>
</a>
</g>
</g>
<!-- Node10&#45;&gt;Node5 -->
<g id="edge20_Node000010_Node000005" class="edge">
<title>Node10&#45;&gt;Node5</title>
<g id="a_edge20_Node000010_Node000005"><a xlink:title=" ">
<path fill="none" stroke="#63b8ff" d="M829.15,-271.08C862.63,-255.1 914.25,-225.67 944,-185 956.3,-168.19 960.69,-143.44 962.22,-130.23"/>
<polygon fill="#63b8ff" stroke="#63b8ff" points="827.95,-267.77 820.34,-275.15 830.89,-274.13 827.95,-267.77"/>
</a>
</g>
</g>
<!-- Node10&#45;&gt;Node7 -->
<g id="edge21_Node000010_Node000007" class="edge">
<title>Node10&#45;&gt;Node7</title>
<g id="a_edge21_Node000010_Node000007"><a xlink:title=" ">
<path fill="none" stroke="#63b8ff" d="M810.76,-267.1C828.91,-243.66 860.17,-203.28 874.03,-185.38"/>
<polygon fill="#63b8ff" stroke="#63b8ff" points="808.15,-264.75 804.8,-274.8 813.69,-269.03 808.15,-264.75"/>
</a>
</g>
</g>
<!-- Node11 -->
<g id="Node000011" class="node">
<title>Node11</title>
<g id="a_Node000011"><a xlink:href="psg_8h.html" target="_top" xlink:title="Device interface for PSG (AY&#45;3&#45;8910) an internal sound chip.">
<polygon fill="white" stroke="#666666" points="246.5,-240.25 173.5,-240.25 173.5,-221 246.5,-221 246.5,-240.25"/>
<text text-anchor="middle" x="210" y="-226.75" font-family="Helvetica,sans-Serif" font-size="10.00">include/psg.h</text>
</a>
</g>
</g>
<!-- Node10&#45;&gt;Node11 -->
<g id="edge17_Node000010_Node000011" class="edge">
<title>Node10&#45;&gt;Node11</title>
<g id="a_edge17_Node000010_Node000011"><a xlink:title=" ">
<path fill="none" stroke="#63b8ff" d="M753.05,-280.89C641.64,-270.78 349.71,-244.3 246.66,-234.95"/>
<polygon fill="#63b8ff" stroke="#63b8ff" points="752.4,-284.34 762.68,-281.76 753.03,-277.37 752.4,-284.34"/>
</a>
</g>
</g>
<!-- Node13 -->
<g id="Node000013" class="node">
<title>Node13</title>
<g id="a_Node000013"><a xlink:href="vmem_8h.html" target="_top" xlink:title="Data types and functions for VRAM access.">
<polygon fill="white" stroke="#666666" points="746.12,-240.25 661.88,-240.25 661.88,-221 746.12,-221 746.12,-240.25"/>
<text text-anchor="middle" x="704" y="-226.75" font-family="Helvetica,sans-Serif" font-size="10.00">include/vmem.h</text>
</a>
</g>
</g>
<!-- Node10&#45;&gt;Node13 -->
<g id="edge22_Node000010_Node000013" class="edge">
<title>Node10&#45;&gt;Node13</title>
<g id="a_edge22_Node000010_Node000013"><a xlink:title=" ">
<path fill="none" stroke="#63b8ff" d="M771.62,-270.34C755.09,-260.88 734.04,-248.83 719.85,-240.7"/>
<polygon fill="#63b8ff" stroke="#63b8ff" points="769.49,-273.16 779.91,-275.09 772.97,-267.08 769.49,-273.16"/>
</a>
</g>
</g>
<!-- Node11&#45;&gt;Node4 -->
<g id="edge19_Node000011_Node000004" class="edge">
<title>Node11&#45;&gt;Node4</title>
<g id="a_edge19_Node000011_Node000004"><a xlink:title=" ">
<path fill="none" stroke="#63b8ff" d="M181.46,-215.19C152.97,-198.91 111.18,-169.44 95,-129.75 70.16,-68.8 183.5,-57.57 191,-55.25 291.8,-24.09 616.33,-13.99 727.9,-11.39"/>
<polygon fill="#63b8ff" stroke="#63b8ff" points="179.5,-218.11 189.95,-219.86 182.87,-211.97 179.5,-218.11"/>
</a>
</g>
</g>
<!-- Node12 -->
<g id="Node000012" class="node">
<title>Node12</title>
<g id="a_Node000012"><a xlink:href="ay__3__8910_8h.html" target="_top" xlink:title="Buffer for PSG (AY&#45;3&#45;8910) registers.">
<polygon fill="white" stroke="#666666" points="261.88,-185 158.12,-185 158.12,-165.75 261.88,-165.75 261.88,-185"/>
<text text-anchor="middle" x="210" y="-171.5" font-family="Helvetica,sans-Serif" font-size="10.00">include/ay_3_8910.h</text>
</a>
</g>
</g>
<!-- Node11&#45;&gt;Node12 -->
<g id="edge18_Node000011_Node000012" class="edge">
<title>Node11&#45;&gt;Node12</title>
<g id="a_edge18_Node000011_Node000012"><a xlink:title=" ">
<path fill="none" stroke="#63b8ff" d="M210,-209.38C210,-201.09 210,-191.92 210,-185.36"/>
<polygon fill="#63b8ff" stroke="#63b8ff" points="206.5,-209.32 210,-219.32 213.5,-209.32 206.5,-209.32"/>
</a>
</g>
</g>
<!-- Node13&#45;&gt;Node4 -->
<g id="edge33_Node000013_Node000004" class="edge">
<title>Node13&#45;&gt;Node4</title>
<g id="a_edge33_Node000013_Node000004"><a xlink:title=" ">
<path fill="none" stroke="#63b8ff" d="M691.03,-211.37C668.88,-177.76 629.22,-104.99 662,-55.25 676.6,-33.1 704.72,-21.9 728.04,-16.27"/>
<polygon fill="#63b8ff" stroke="#63b8ff" points="688.1,-213.29 696.63,-219.58 693.88,-209.35 688.1,-213.29"/>
</a>
</g>
</g>
<!-- Node13&#45;&gt;Node5 -->
<g id="edge40_Node000013_Node000005" class="edge">
<title>Node13&#45;&gt;Node5</title>
<g id="a_edge40_Node000013_Node000005"><a xlink:title=" ">
<path fill="none" stroke="#63b8ff" d="M727.59,-214.45C750.14,-200.42 785.41,-179.71 818,-165.75 853.71,-150.46 896.41,-137.97 926.18,-130.14"/>
<polygon fill="#63b8ff" stroke="#63b8ff" points="725.78,-211.45 719.18,-219.75 729.51,-217.38 725.78,-211.45"/>
</a>
</g>
</g>
<!-- Node13&#45;&gt;Node6 -->
<g id="edge32_Node000013_Node000006" class="edge">
<title>Node13&#45;&gt;Node6</title>
<g id="a_edge32_Node000013_Node000006"><a xlink:title=" ">
<path fill="none" stroke="#63b8ff" d="M722.3,-213.25C760.53,-179.04 847.8,-100.95 877.16,-74.68"/>
<polygon fill="#63b8ff" stroke="#63b8ff" points="720.35,-210.3 715.23,-219.58 725.01,-215.52 720.35,-210.3"/>
</a>
</g>
</g>
<!-- Node13&#45;&gt;Node7 -->
<g id="edge41_Node000013_Node000007" class="edge">
<title>Node13&#45;&gt;Node7</title>
<g id="a_edge41_Node000013_Node000007"><a xlink:title=" ">
<path fill="none" stroke="#63b8ff" d="M744.92,-217.32C777.26,-207.59 821.66,-194.23 850.83,-185.45"/>
<polygon fill="#63b8ff" stroke="#63b8ff" points="744.04,-213.92 735.48,-220.16 746.06,-220.63 744.04,-213.92"/>
</a>
</g>
</g>
<!-- Node14 -->
<g id="Node000014" class="node">
<title>Node14</title>
<g id="a_Node000014"><a xlink:href="ZX0__decompress_8h.html" target="_top" xlink:title="Decompressor of the ZX0 data compression format version 2.">
<polygon fill="white" stroke="#666666" points="237.88,-129.75 104.12,-129.75 104.12,-110.5 237.88,-110.5 237.88,-129.75"/>
<text text-anchor="middle" x="171" y="-116.25" font-family="Helvetica,sans-Serif" font-size="10.00">include/ZX0_decompress.h</text>
</a>
</g>
</g>
<!-- Node13&#45;&gt;Node14 -->
<g id="edge23_Node000013_Node000014" class="edge">
<title>Node13&#45;&gt;Node14</title>
<g id="a_edge23_Node000013_Node000014"><a xlink:title=" ">
<path fill="none" stroke="#63b8ff" d="M650.22,-225.73C582.72,-220.11 463.71,-207.83 364,-185 301.04,-170.59 229.47,-144.14 193.77,-130.23"/>
<polygon fill="#63b8ff" stroke="#63b8ff" points="649.65,-229.19 659.9,-226.51 650.21,-222.21 649.65,-229.19"/>
</a>
</g>
</g>
<!-- Node15 -->
<g id="Node000015" class="node">
<title>Node15</title>
<g id="a_Node000015"><a xlink:href="bmem_8h.html" target="_top" xlink:title="Data types and functions for accessing banked memory.">
<polygon fill="white" stroke="#666666" points="457.12,-185 372.88,-185 372.88,-165.75 457.12,-165.75 457.12,-185"/>
<text text-anchor="middle" x="415" y="-171.5" font-family="Helvetica,sans-Serif" font-size="10.00">include/bmem.h</text>
</a>
</g>
</g>
<!-- Node13&#45;&gt;Node15 -->
<g id="edge24_Node000013_Node000015" class="edge">
<title>Node13&#45;&gt;Node15</title>
<g id="a_edge24_Node000013_Node000015"><a xlink:title=" ">
<path fill="none" stroke="#63b8ff" d="M650.61,-219.79C594.9,-209.52 508.69,-193.64 457.45,-184.2"/>
<polygon fill="#63b8ff" stroke="#63b8ff" points="649.71,-223.18 660.18,-221.55 650.98,-216.3 649.71,-223.18"/>
</a>
</g>
</g>
<!-- Node22 -->
<g id="Node000022" class="node">
<title>Node22</title>
<g id="a_Node000022"><a xlink:href="sprite_8h.html" target="_top" xlink:title="Sprites.">
<polygon fill="white" stroke="#666666" points="794.62,-129.75 713.38,-129.75 713.38,-110.5 794.62,-110.5 794.62,-129.75"/>
<text text-anchor="middle" x="754" y="-116.25" font-family="Helvetica,sans-Serif" font-size="10.00">include/sprite.h</text>
</a>
</g>
</g>
<!-- Node13&#45;&gt;Node22 -->
<g id="edge34_Node000013_Node000022" class="edge">
<title>Node13&#45;&gt;Node22</title>
<g id="a_edge34_Node000013_Node000022"><a xlink:title=" ">
<path fill="none" stroke="#63b8ff" d="M712.78,-210.58C723.66,-186.97 741.75,-147.71 749.85,-130.13"/>
<polygon fill="#63b8ff" stroke="#63b8ff" points="709.73,-208.82 708.73,-219.37 716.09,-211.75 709.73,-208.82"/>
</a>
</g>
</g>
<!-- Node23 -->
<g id="Node000023" class="node">
<title>Node23</title>
<g id="a_Node000023"><a xlink:href="sprite__color_8h.html" target="_top" xlink:title="Sprite color table interface.">
<polygon fill="white" stroke="#666666" points="778.75,-74.5 671.25,-74.5 671.25,-55.25 778.75,-55.25 778.75,-74.5"/>
<text text-anchor="middle" x="725" y="-61" font-family="Helvetica,sans-Serif" font-size="10.00">include/sprite_color.h</text>
</a>
</g>
</g>
<!-- Node13&#45;&gt;Node23 -->
<g id="edge39_Node000013_Node000023" class="edge">
<title>Node13&#45;&gt;Node23</title>
<g id="a_edge39_Node000013_Node000023"><a xlink:title=" ">
<path fill="none" stroke="#63b8ff" d="M701.34,-209.39C698.81,-185.45 696.39,-144.55 704,-110.5 706.95,-97.3 714.26,-83.39 719.42,-74.68"/>
<polygon fill="#63b8ff" stroke="#63b8ff" points="697.83,-209.49 702.49,-219.01 704.78,-208.67 697.83,-209.49"/>
</a>
</g>
</g>
<!-- Node24 -->
<g id="Node000024" class="node">
<title>Node24</title>
<g id="a_Node000024"><a xlink:href="vmem__rw_8h.html" target="_top" xlink:title="Stream like access functions for VRAM.">
<polygon fill="white" stroke="#666666" points="619,-185 519,-185 519,-165.75 619,-165.75 619,-185"/>
<text text-anchor="middle" x="569" y="-171.5" font-family="Helvetica,sans-Serif" font-size="10.00">include/vmem_rw.h</text>
</a>
</g>
</g>
<!-- Node13&#45;&gt;Node24 -->
<g id="edge42_Node000013_Node000024" class="edge">
<title>Node13&#45;&gt;Node24</title>
<g id="a_edge42_Node000013_Node000024"><a xlink:title=" ">
<path fill="none" stroke="#63b8ff" d="M670.51,-216.41C646.07,-206.77 613.58,-193.96 592.01,-185.45"/>
<polygon fill="#63b8ff" stroke="#63b8ff" points="669.1,-219.62 679.69,-220.04 671.67,-213.11 669.1,-219.62"/>
</a>
</g>
</g>
<!-- Node15&#45;&gt;Node14 -->
<g id="edge25_Node000015_Node000014" class="edge">
<title>Node15&#45;&gt;Node14</title>
<g id="a_edge25_Node000015_Node000014"><a xlink:title=" ">
<path fill="none" stroke="#63b8ff" d="M362.35,-162.88C317.47,-153.09 253.84,-139.2 212.5,-130.18"/>
<polygon fill="#63b8ff" stroke="#63b8ff" points="361.34,-166.25 371.85,-164.96 362.83,-159.41 361.34,-166.25"/>
</a>
</g>
</g>
<!-- Node16 -->
<g id="Node000016" class="node">
<title>Node16</title>
<g id="a_Node000016"><a xlink:href="bmem__rd_8h.html" target="_top" xlink:title="Stream like access functions for Banked Memory.">
<polygon fill="white" stroke="#666666" points="580.88,-129.75 483.12,-129.75 483.12,-110.5 580.88,-110.5 580.88,-129.75"/>
<text text-anchor="middle" x="532" y="-116.25" font-family="Helvetica,sans-Serif" font-size="10.00">include/bmem_rd.h</text>
</a>
</g>
</g>
<!-- Node15&#45;&gt;Node16 -->
<g id="edge26_Node000015_Node000016" class="edge">
<title>Node15&#45;&gt;Node16</title>
<g id="a_edge26_Node000015_Node000016"><a xlink:title=" ">
<path fill="none" stroke="#63b8ff" d="M445.18,-160.64C466.22,-151.06 493.7,-138.56 512.06,-130.2"/>
<polygon fill="#63b8ff" stroke="#63b8ff" points="443.88,-157.39 436.23,-164.71 446.78,-163.76 443.88,-157.39"/>
</a>
</g>
</g>
<!-- Node18 -->
<g id="Node000018" class="node">
<title>Node18</title>
<g id="a_Node000018"><a xlink:href="memfile_8h.html" target="_top" xlink:title="Stream interface for ROM / RAM / MegaROM.">
<polygon fill="white" stroke="#666666" points="346.5,-129.75 255.5,-129.75 255.5,-110.5 346.5,-110.5 346.5,-129.75"/>
<text text-anchor="middle" x="301" y="-116.25" font-family="Helvetica,sans-Serif" font-size="10.00">include/memfile.h</text>
</a>
</g>
</g>
<!-- Node15&#45;&gt;Node18 -->
<g id="edge28_Node000015_Node000018" class="edge">
<title>Node15&#45;&gt;Node18</title>
<g id="a_edge28_Node000015_Node000018"><a xlink:title=" ">
<path fill="none" stroke="#63b8ff" d="M385.31,-160.51C364.85,-150.95 338.23,-138.52 320.43,-130.2"/>
<polygon fill="#63b8ff" stroke="#63b8ff" points="383.75,-163.64 394.29,-164.7 386.71,-157.3 383.75,-163.64"/>
</a>
</g>
</g>
<!-- Node21 -->
<g id="Node000021" class="node">
<title>Node21</title>
<g id="a_Node000021"><a xlink:href="resources_8h.html" target="_top" xlink:title="Data types and functions for accessing embedded resources.">
<polygon fill="white" stroke="#666666" points="465,-129.75 365,-129.75 365,-110.5 465,-110.5 465,-129.75"/>
<text text-anchor="middle" x="415" y="-116.25" font-family="Helvetica,sans-Serif" font-size="10.00">include/resources.h</text>
</a>
</g>
</g>
<!-- Node15&#45;&gt;Node21 -->
<g id="edge31_Node000015_Node000021" class="edge">
<title>Node15&#45;&gt;Node21</title>
<g id="a_edge31_Node000015_Node000021"><a xlink:title=" ">
<path fill="none" stroke="#63b8ff" d="M415,-154.13C415,-145.84 415,-136.67 415,-130.11"/>
<polygon fill="#63b8ff" stroke="#63b8ff" points="411.5,-154.07 415,-164.07 418.5,-154.07 411.5,-154.07"/>
</a>
</g>
</g>
<!-- Node17 -->
<g id="Node000017" class="node">
<title>Node17</title>
<g id="a_Node000017"><a xlink:href="xmem_8h.html" target="_top" xlink:title="Inter&#45;memory transfer functions for ROM / RAM, VRAM, and Banked Memory (MegaROM).">
<polygon fill="white" stroke="#666666" points="593.75,-74.5 510.25,-74.5 510.25,-55.25 593.75,-55.25 593.75,-74.5"/>
<text text-anchor="middle" x="552" y="-61" font-family="Helvetica,sans-Serif" font-size="10.00">include/xmem.h</text>
</a>
</g>
</g>
<!-- Node16&#45;&gt;Node17 -->
<g id="edge27_Node000016_Node000017" class="edge">
<title>Node16&#45;&gt;Node17</title>
<g id="a_edge27_Node000016_Node000017"><a xlink:title=" ">
<path fill="none" stroke="#63b8ff" d="M539.28,-99.75C542.47,-91.24 546.07,-81.65 548.63,-74.86"/>
<polygon fill="#63b8ff" stroke="#63b8ff" points="536.07,-98.32 535.83,-108.91 542.63,-100.78 536.07,-98.32"/>
</a>
</g>
</g>
<!-- Node19 -->
<g id="Node000019" class="node">
<title>Node19</title>
<g id="a_Node000019"><a xlink:href="audio__buf_8h.html" target="_top" xlink:title="Unified sound&#45;chip buffer of the libmsx audio replayer.">
<polygon fill="white" stroke="#666666" points="299.62,-74.5 200.38,-74.5 200.38,-55.25 299.62,-55.25 299.62,-74.5"/>
<text text-anchor="middle" x="250" y="-61" font-family="Helvetica,sans-Serif" font-size="10.00">include/audio_buf.h</text>
</a>
</g>
</g>
<!-- Node18&#45;&gt;Node19 -->
<g id="edge29_Node000018_Node000019" class="edge">
<title>Node18&#45;&gt;Node19</title>
<g id="a_edge29_Node000018_Node000019"><a xlink:title=" ">
<path fill="none" stroke="#63b8ff" d="M284.64,-102.04C275.98,-93 265.7,-82.27 258.6,-74.86"/>
<polygon fill="#63b8ff" stroke="#63b8ff" points="282.09,-104.44 291.53,-109.24 287.14,-99.6 282.09,-104.44"/>
</a>
</g>
</g>
<!-- Node20 -->
<g id="Node000020" class="node">
<title>Node20</title>
<g id="a_Node000020"><a xlink:href="la0_8h.html" target="_top" xlink:title="The libmsx audio format 0 (LA0) decoder.">
<polygon fill="white" stroke="#666666" points="388,-74.5 318,-74.5 318,-55.25 388,-55.25 388,-74.5"/>
<text text-anchor="middle" x="353" y="-61" font-family="Helvetica,sans-Serif" font-size="10.00">include/la0.h</text>
</a>
</g>
</g>
<!-- Node18&#45;&gt;Node20 -->
<g id="edge30_Node000018_Node000020" class="edge">
<title>Node18&#45;&gt;Node20</title>
<g id="a_edge30_Node000018_Node000020"><a xlink:title=" ">
<path fill="none" stroke="#63b8ff" d="M317.41,-102.32C326.29,-93.23 336.91,-82.35 344.23,-74.86"/>
<polygon fill="#63b8ff" stroke="#63b8ff" points="315.13,-99.65 310.64,-109.25 320.13,-104.54 315.13,-99.65"/>
</a>
</g>
</g>
<!-- Node22&#45;&gt;Node4 -->
<g id="edge36_Node000022_Node000004" class="edge">
<title>Node22&#45;&gt;Node4</title>
<g id="a_edge36_Node000022_Node000004"><a xlink:title=" ">
<path fill="none" stroke="#63b8ff" d="M771.31,-101.93C777.88,-94.23 784.59,-84.6 788,-74.5 794.6,-54.94 781.73,-32.09 773.04,-19.71"/>
<polygon fill="#63b8ff" stroke="#63b8ff" points="768.84,-99.45 764.63,-109.17 773.99,-104.2 768.84,-99.45"/>
</a>
</g>
</g>
<!-- Node22&#45;&gt;Node6 -->
<g id="edge35_Node000022_Node000006" class="edge">
<title>Node22&#45;&gt;Node6</title>
<g id="a_edge35_Node000022_Node000006"><a xlink:title=" ">
<path fill="none" stroke="#63b8ff" d="M787,-105.91C811.07,-96.27 843.08,-83.46 864.33,-74.95"/>
<polygon fill="#63b8ff" stroke="#63b8ff" points="785.95,-102.56 777.97,-109.53 788.55,-109.06 785.95,-102.56"/>
</a>
</g>
</g>
<!-- Node22&#45;&gt;Node23 -->
<g id="edge37_Node000022_Node000023" class="edge">
<title>Node22&#45;&gt;Node23</title>
<g id="a_edge37_Node000022_Node000023"><a xlink:title=" ">
<path fill="none" stroke="#63b8ff" d="M743.76,-100.33C739.05,-91.67 733.68,-81.81 729.89,-74.86"/>
<polygon fill="#63b8ff" stroke="#63b8ff" points="740.63,-101.89 748.49,-109 746.78,-98.55 740.63,-101.89"/>
</a>
</g>
</g>
<!-- Node23&#45;&gt;Node4 -->
<g id="edge38_Node000023_Node000004" class="edge">
<title>Node23&#45;&gt;Node4</title>
<g id="a_edge38_Node000023_Node000004"><a xlink:title=" ">
<path fill="none" stroke="#63b8ff" d="M738.59,-46.22C745.46,-37.31 753.49,-26.87 759.08,-19.61"/>
<polygon fill="#63b8ff" stroke="#63b8ff" points="736.02,-43.82 732.69,-53.88 741.57,-48.09 736.02,-43.82"/>
</a>
</g>
</g>
<!-- Node24&#45;&gt;Node17 -->
<g id="edge43_Node000024_Node000017" class="edge">
<title>Node24&#45;&gt;Node17</title>
<g id="a_edge43_Node000024_Node000017"><a xlink:title=" ">
<path fill="none" stroke="#63b8ff" d="M581.65,-156.1C588.93,-143.27 595.61,-125.73 590,-110.5 584.66,-95.98 572.26,-82.97 563.07,-74.8"/>
<polygon fill="#63b8ff" stroke="#63b8ff" points="578.83,-154.02 576.47,-164.35 584.75,-157.75 578.83,-154.02"/>
</a>
</g>
</g>
</g>
</svg>
