<?xml version="1.0" encoding="UTF-8" standalone="no"?>
<!DOCTYPE svg PUBLIC "-//W3C//DTD SVG 1.1//EN"
 "http://www.w3.org/Graphics/SVG/1.1/DTD/svg11.dtd">
<!-- Generated by graphviz version 12.2.0 (20241103.1931)
 -->
<!-- Title: include/config.h Pages: 1 -->
<svg width="1365pt" height="359pt"
 viewBox="0.00 0.00 1365.00 358.75" xmlns="http://www.w3.org/2000/svg" xmlns:xlink="http://www.w3.org/1999/xlink">
<g id="graph0" class="graph" transform="scale(1 1) rotate(0) translate(4 354.75)">
<title>include/config.h</title>
<!-- Node1 -->
<g id="Node000001" class="node">
<title>Node1</title>
<g id="a_Node000001"><a xlink:title="Hack for C Compiler portability.">
<polygon fill="#999999" stroke="#666666" points="178.38,-350.75 95.62,-350.75 95.62,-331.5 178.38,-331.5 178.38,-350.75"/>
<text text-anchor="middle" x="137" y="-337.25" font-family="Helvetica,sans-Serif" font-size="10.00">include/config.h</text>
</a>
</g>
</g>
<!-- Node2 -->
<g id="Node000002" class="node">
<title>Node2</title>
<g id="a_Node000002"><a xlink:href="bios__const_8h.html" target="_top" xlink:title="Constant variables in the MSX BIOS ROM.">
<polygon fill="white" stroke="#666666" points="189.25,-295.5 84.75,-295.5 84.75,-276.25 189.25,-276.25 189.25,-295.5"/>
<text text-anchor="middle" x="137" y="-282" font-family="Helvetica,sans-Serif" font-size="10.00">include/bios_const.h</text>
</a>
</g>
</g>
<!-- Node1&#45;&gt;Node2 -->
<g id="edge1_Node000001_Node000002" class="edge">
<title>Node1&#45;&gt;Node2</title>
<g id="a_edge1_Node000001_Node000002"><a xlink:title=" ">
<path fill="none" stroke="#63b8ff" d="M137,-319.88C137,-311.59 137,-302.42 137,-295.86"/>
<polygon fill="#63b8ff" stroke="#63b8ff" points="133.5,-319.82 137,-329.82 140.5,-319.82 133.5,-319.82"/>
</a>
</g>
</g>
<!-- Node4 -->
<g id="Node000004" class="node">
<title>Node4</title>
<g id="a_Node000004"><a xlink:href="msx_8h.html" target="_top" xlink:title="Using #include &lt;msx.h&gt; includes almost all C header files in libmsx, for ease to use.">
<polygon fill="white" stroke="#666666" points="384.62,-19.25 309.38,-19.25 309.38,0 384.62,0 384.62,-19.25"/>
<text text-anchor="middle" x="347" y="-5.75" font-family="Helvetica,sans-Serif" font-size="10.00">include/msx.h</text>
</a>
</g>
</g>
<!-- Node1&#45;&gt;Node4 -->
<g id="edge50_Node000001_Node000004" class="edge">
<title>Node1&#45;&gt;Node4</title>
<g id="a_edge50_Node000001_Node000004"><a xlink:title=" ">
<path fill="none" stroke="#63b8ff" d="M95.93,-327.17C55.58,-311.56 0,-281.1 0,-231.62 0,-231.62 0,-231.62 0,-119.12 0,-54.9 219.27,-24.22 309.2,-14.34"/>
<polygon fill="#63b8ff" stroke="#63b8ff" points="94.58,-330.4 105.17,-330.56 97,-323.83 94.58,-330.4"/>
</a>
</g>
</g>
<!-- Node8 -->
<g id="Node000008" class="node">
<title>Node8</title>
<g id="a_Node000008"><a xlink:href="workarea_8h.html" target="_top" xlink:title="Definitions of MSX SYSTEM Workarea.">
<polygon fill="white" stroke="#666666" points="125.5,-240.25 28.5,-240.25 28.5,-221 125.5,-221 125.5,-240.25"/>
<text text-anchor="middle" x="77" y="-226.75" font-family="Helvetica,sans-Serif" font-size="10.00">include/workarea.h</text>
</a>
</g>
</g>
<!-- Node1&#45;&gt;Node8 -->
<g id="edge51_Node000001_Node000008" class="edge">
<title>Node1&#45;&gt;Node8</title>
<g id="a_edge51_Node000001_Node000008"><a xlink:title=" ">
<path fill="none" stroke="#63b8ff" d="M105.93,-325.35C94.33,-318.11 82.43,-308.17 76,-295.5 66.97,-277.7 71.13,-253.35 74.4,-240.46"/>
<polygon fill="#63b8ff" stroke="#63b8ff" points="104.16,-328.37 114.58,-330.28 107.63,-322.29 104.16,-328.37"/>
</a>
</g>
</g>
<!-- Node9 -->
<g id="Node000009" class="node">
<title>Node9</title>
<g id="a_Node000009"><a xlink:href="bios__entry_8h.html" target="_top" xlink:title="Assembler entry points for MSX BIOS functions.">
<polygon fill="white" stroke="#666666" points="308.75,-295.5 207.25,-295.5 207.25,-276.25 308.75,-276.25 308.75,-295.5"/>
<text text-anchor="middle" x="258" y="-282" font-family="Helvetica,sans-Serif" font-size="10.00">include/bios_entry.h</text>
</a>
</g>
</g>
<!-- Node1&#45;&gt;Node9 -->
<g id="edge13_Node000001_Node000009" class="edge">
<title>Node1&#45;&gt;Node9</title>
<g id="a_edge13_Node000001_Node000009"><a xlink:title=" ">
<path fill="none" stroke="#63b8ff" d="M167.91,-326.52C189.71,-316.93 218.31,-304.34 237.37,-295.95"/>
<polygon fill="#63b8ff" stroke="#63b8ff" points="166.65,-323.25 158.91,-330.48 169.47,-329.66 166.65,-323.25"/>
</a>
</g>
</g>
<!-- Node10 -->
<g id="Node000010" class="node">
<title>Node10</title>
<g id="a_Node000010"><a xlink:href="io_8h.html" target="_top" xlink:title="Definition of I/O ports.">
<polygon fill="white" stroke="#666666" points="461.38,-295.5 396.62,-295.5 396.62,-276.25 461.38,-276.25 461.38,-295.5"/>
<text text-anchor="middle" x="429" y="-282" font-family="Helvetica,sans-Serif" font-size="10.00">include/io.h</text>
</a>
</g>
</g>
<!-- Node1&#45;&gt;Node10 -->
<g id="edge15_Node000001_Node000010" class="edge">
<title>Node1&#45;&gt;Node10</title>
<g id="a_edge15_Node000001_Node000010"><a xlink:title=" ">
<path fill="none" stroke="#63b8ff" d="M189.98,-330.46C250.08,-319.5 346.2,-301.97 396.27,-292.84"/>
<polygon fill="#63b8ff" stroke="#63b8ff" points="189.54,-326.99 180.33,-332.22 190.79,-333.87 189.54,-326.99"/>
</a>
</g>
</g>
<!-- Node3 -->
<g id="Node000003" class="node">
<title>Node3</title>
<g id="a_Node000003"><a xlink:href="bios_8h.html" target="_top" xlink:title="C language I/F for MSX BIOS routines.">
<polygon fill="white" stroke="#666666" points="218.62,-240.25 143.38,-240.25 143.38,-221 218.62,-221 218.62,-240.25"/>
<text text-anchor="middle" x="181" y="-226.75" font-family="Helvetica,sans-Serif" font-size="10.00">include/bios.h</text>
</a>
</g>
</g>
<!-- Node2&#45;&gt;Node3 -->
<g id="edge2_Node000002_Node000003" class="edge">
<title>Node2&#45;&gt;Node3</title>
<g id="a_edge2_Node000002_Node000003"><a xlink:title=" ">
<path fill="none" stroke="#63b8ff" d="M151.58,-267.22C158.95,-258.31 167.58,-247.87 173.58,-240.61"/>
<polygon fill="#63b8ff" stroke="#63b8ff" points="148.9,-264.98 145.23,-274.92 154.3,-269.44 148.9,-264.98"/>
</a>
</g>
</g>
<!-- Node2&#45;&gt;Node8 -->
<g id="edge10_Node000002_Node000008" class="edge">
<title>Node2&#45;&gt;Node8</title>
<g id="a_edge10_Node000002_Node000008"><a xlink:title=" ">
<path fill="none" stroke="#63b8ff" d="M118.42,-268.39C108.06,-259.19 95.57,-248.1 87.03,-240.52"/>
<polygon fill="#63b8ff" stroke="#63b8ff" points="115.89,-270.82 125.69,-274.84 120.53,-265.58 115.89,-270.82"/>
</a>
</g>
</g>
<!-- Node3&#45;&gt;Node4 -->
<g id="edge3_Node000003_Node000004" class="edge">
<title>Node3&#45;&gt;Node4</title>
<g id="a_edge3_Node000003_Node000004"><a xlink:title=" ">
<path fill="none" stroke="#63b8ff" d="M170.9,-210.37C165.51,-197.74 160.63,-180.84 164,-165.75 176.68,-109.01 187.27,-89.84 234,-55.25 256.97,-38.25 287.28,-26.74 310.73,-19.68"/>
<polygon fill="#63b8ff" stroke="#63b8ff" points="167.66,-211.69 175.12,-219.22 173.98,-208.68 167.66,-211.69"/>
</a>
</g>
</g>
<!-- Node5 -->
<g id="Node000005" class="node">
<title>Node5</title>
<g id="a_Node000005"><a xlink:href="vdp_8h.html" target="_top" xlink:title="Data types and functions for VDP (Video Display Proccessor) access.">
<polygon fill="white" stroke="#666666" points="271.5,-129.75 198.5,-129.75 198.5,-110.5 271.5,-110.5 271.5,-129.75"/>
<text text-anchor="middle" x="235" y="-116.25" font-family="Helvetica,sans-Serif" font-size="10.00">include/vdp.h</text>
</a>
</g>
</g>
<!-- Node3&#45;&gt;Node5 -->
<g id="edge4_Node000003_Node000005" class="edge">
<title>Node3&#45;&gt;Node5</title>
<g id="a_edge4_Node000003_Node000005"><a xlink:title=" ">
<path fill="none" stroke="#63b8ff" d="M172.48,-210.12C168.06,-196.92 164.91,-179.46 172,-165.75 180.56,-149.2 198.4,-137.47 212.91,-130.2"/>
<polygon fill="#63b8ff" stroke="#63b8ff" points="169.21,-211.35 176.09,-219.4 175.73,-208.81 169.21,-211.35"/>
</a>
</g>
</g>
<!-- Node7 -->
<g id="Node000007" class="node">
<title>Node7</title>
<g id="a_Node000007"><a xlink:href="vdp__unsafe_8h.html" target="_top" xlink:title="Unsafe primitive functions for VDP (Video Display Proccessor) access.">
<polygon fill="white" stroke="#666666" points="288.75,-185 181.25,-185 181.25,-165.75 288.75,-165.75 288.75,-185"/>
<text text-anchor="middle" x="235" y="-171.5" font-family="Helvetica,sans-Serif" font-size="10.00">include/vdp_unsafe.h</text>
</a>
</g>
</g>
<!-- Node3&#45;&gt;Node7 -->
<g id="edge8_Node000003_Node000007" class="edge">
<title>Node3&#45;&gt;Node7</title>
<g id="a_edge8_Node000003_Node000007"><a xlink:title=" ">
<path fill="none" stroke="#63b8ff" d="M198.04,-212.82C207.26,-203.73 218.29,-192.85 225.89,-185.36"/>
<polygon fill="#63b8ff" stroke="#63b8ff" points="195.66,-210.26 190.99,-219.77 200.57,-215.24 195.66,-210.26"/>
</a>
</g>
</g>
<!-- Node5&#45;&gt;Node4 -->
<g id="edge7_Node000005_Node000004" class="edge">
<title>Node5&#45;&gt;Node4</title>
<g id="a_edge7_Node000005_Node000004"><a xlink:title=" ">
<path fill="none" stroke="#63b8ff" d="M234.13,-99.11C234.56,-85.42 237.26,-67.59 247,-55.25 262.32,-35.85 287.86,-24.65 309.3,-18.32"/>
<polygon fill="#63b8ff" stroke="#63b8ff" points="230.63,-98.76 234.22,-108.73 237.63,-98.69 230.63,-98.76"/>
</a>
</g>
</g>
<!-- Node6 -->
<g id="Node000006" class="node">
<title>Node6</title>
<g id="a_Node000006"><a xlink:href="metasprite_8h.html" target="_top" xlink:title="Meta&#45;sprite ; an aggregate of sprites.">
<polygon fill="white" stroke="#666666" points="358.5,-74.5 255.5,-74.5 255.5,-55.25 358.5,-55.25 358.5,-74.5"/>
<text text-anchor="middle" x="307" y="-61" font-family="Helvetica,sans-Serif" font-size="10.00">include/metasprite.h</text>
</a>
</g>
</g>
<!-- Node5&#45;&gt;Node6 -->
<g id="edge5_Node000005_Node000006" class="edge">
<title>Node5&#45;&gt;Node6</title>
<g id="a_edge5_Node000005_Node000006"><a xlink:title=" ">
<path fill="none" stroke="#63b8ff" d="M256.17,-103.47C268.81,-94.12 284.41,-82.58 294.97,-74.77"/>
<polygon fill="#63b8ff" stroke="#63b8ff" points="254.39,-100.43 248.43,-109.19 258.55,-106.06 254.39,-100.43"/>
</a>
</g>
</g>
<!-- Node6&#45;&gt;Node4 -->
<g id="edge6_Node000006_Node000004" class="edge">
<title>Node6&#45;&gt;Node4</title>
<g id="a_edge6_Node000006_Node000004"><a xlink:title=" ">
<path fill="none" stroke="#63b8ff" d="M320.47,-45.94C327.12,-37.09 334.86,-26.79 340.25,-19.61"/>
<polygon fill="#63b8ff" stroke="#63b8ff" points="317.72,-43.77 314.51,-53.87 323.32,-47.98 317.72,-43.77"/>
</a>
</g>
</g>
<!-- Node7&#45;&gt;Node5 -->
<g id="edge9_Node000007_Node000005" class="edge">
<title>Node7&#45;&gt;Node5</title>
<g id="a_edge9_Node000007_Node000005"><a xlink:title=" ">
<path fill="none" stroke="#63b8ff" d="M235,-154.13C235,-145.84 235,-136.67 235,-130.11"/>
<polygon fill="#63b8ff" stroke="#63b8ff" points="231.5,-154.07 235,-164.07 238.5,-154.07 231.5,-154.07"/>
</a>
</g>
</g>
<!-- Node8&#45;&gt;Node4 -->
<g id="edge11_Node000008_Node000004" class="edge">
<title>Node8&#45;&gt;Node4</title>
<g id="a_edge11_Node000008_Node000004"><a xlink:title=" ">
<path fill="none" stroke="#63b8ff" d="M85.93,-210.88C103.86,-175.27 147.63,-97.58 207,-55.25 237.53,-33.48 279.16,-22 309.08,-16.17"/>
<polygon fill="#63b8ff" stroke="#63b8ff" points="82.96,-208.99 81.7,-219.51 89.25,-212.08 82.96,-208.99"/>
</a>
</g>
</g>
<!-- Node8&#45;&gt;Node5 -->
<g id="edge12_Node000008_Node000005" class="edge">
<title>Node8&#45;&gt;Node5</title>
<g id="a_edge12_Node000008_Node000005"><a xlink:title=" ">
<path fill="none" stroke="#63b8ff" d="M97.38,-214.02C114.82,-200.82 140.73,-181.58 164,-165.75 182.9,-152.9 205.32,-139.02 219.84,-130.22"/>
<polygon fill="#63b8ff" stroke="#63b8ff" points="95.67,-210.92 89.83,-219.76 99.91,-216.49 95.67,-210.92"/>
</a>
</g>
</g>
<!-- Node9&#45;&gt;Node3 -->
<g id="edge14_Node000009_Node000003" class="edge">
<title>Node9&#45;&gt;Node3</title>
<g id="a_edge14_Node000009_Node000003"><a xlink:title=" ">
<path fill="none" stroke="#63b8ff" d="M235.81,-269.53C222.32,-260.2 205.54,-248.6 194.13,-240.7"/>
<polygon fill="#63b8ff" stroke="#63b8ff" points="233.48,-272.17 243.69,-274.98 237.46,-266.41 233.48,-272.17"/>
</a>
</g>
</g>
<!-- Node10&#45;&gt;Node4 -->
<g id="edge16_Node000010_Node000004" class="edge">
<title>Node10&#45;&gt;Node4</title>
<g id="a_edge16_Node000010_Node000004"><a xlink:title=" ">
<path fill="none" stroke="#63b8ff" d="M472.85,-285.07C620.22,-285.33 1096.61,-282.78 1243,-240.25 1298.77,-224.05 1357,-234.45 1357,-176.38 1357,-176.38 1357,-176.38 1357,-119.12 1357,-24.54 1247.05,-72.19 1154,-55.25 1115.78,-48.29 539.55,-19.97 384.94,-12.46"/>
<polygon fill="#63b8ff" stroke="#63b8ff" points="473.13,-281.57 463.13,-285.05 473.12,-288.57 473.13,-281.57"/>
</a>
</g>
</g>
<!-- Node10&#45;&gt;Node5 -->
<g id="edge20_Node000010_Node000005" class="edge">
<title>Node10&#45;&gt;Node5</title>
<g id="a_edge20_Node000010_Node000005"><a xlink:title=" ">
<path fill="none" stroke="#63b8ff" d="M411.86,-268.04C387.39,-244.3 340.68,-200.06 298,-165.75 281.7,-152.65 261.87,-138.94 248.87,-130.24"/>
<polygon fill="#63b8ff" stroke="#63b8ff" points="409.13,-270.27 418.73,-274.74 414.02,-265.25 409.13,-270.27"/>
</a>
</g>
</g>
<!-- Node10&#45;&gt;Node7 -->
<g id="edge21_Node000010_Node000007" class="edge">
<title>Node10&#45;&gt;Node7</title>
<g id="a_edge21_Node000010_Node000007"><a xlink:title=" ">
<path fill="none" stroke="#63b8ff" d="M385.23,-274.21C360.04,-266.92 328.43,-255.75 303,-240.25 277.83,-224.91 254.08,-199.1 242.45,-185.46"/>
<polygon fill="#63b8ff" stroke="#63b8ff" points="384.28,-277.58 394.85,-276.89 386.15,-270.84 384.28,-277.58"/>
</a>
</g>
</g>
<!-- Node11 -->
<g id="Node000011" class="node">
<title>Node11</title>
<g id="a_Node000011"><a xlink:href="psg_8h.html" target="_top" xlink:title="Device interface for PSG (AY&#45;3&#45;8910) an internal sound chip.">
<polygon fill="white" stroke="#666666" points="1233.5,-240.25 1160.5,-240.25 1160.5,-221 1233.5,-221 1233.5,-240.25"/>
<text text-anchor="middle" x="1197" y="-226.75" font-family="Helvetica,sans-Serif" font-size="10.00">include/psg.h</text>
</a>
</g>
</g>
<!-- Node10&#45;&gt;Node11 -->
<g id="edge17_Node000010_Node000011" class="edge">
<title>Node10&#45;&gt;Node11</title>
<g id="a_edge17_Node000010_Node000011"><a xlink:title=" ">
<path fill="none" stroke="#63b8ff" d="M472.8,-281.84C610.41,-272.3 1032.47,-243.03 1160.07,-234.19"/>
<polygon fill="#63b8ff" stroke="#63b8ff" points="472.75,-278.33 463.02,-282.52 473.24,-285.32 472.75,-278.33"/>
</a>
</g>
</g>
<!-- Node13 -->
<g id="Node000013" class="node">
<title>Node13</title>
<g id="a_Node000013"><a xlink:href="vmem_8h.html" target="_top" xlink:title="Data types and functions for VRAM access.">
<polygon fill="white" stroke="#666666" points="542.12,-240.25 457.88,-240.25 457.88,-221 542.12,-221 542.12,-240.25"/>
<text text-anchor="middle" x="500" y="-226.75" font-family="Helvetica,sans-Serif" font-size="10.00">include/vmem.h</text>
</a>
</g>
</g>
<!-- Node10&#45;&gt;Node13 -->
<g id="edge22_Node000010_Node000013" class="edge">
<title>Node10&#45;&gt;Node13</title>
<g id="a_edge22_Node000010_Node000013"><a xlink:title=" ">
<path fill="none" stroke="#63b8ff" d="M450.25,-268.94C462.64,-259.64 477.82,-248.26 488.13,-240.52"/>
<polygon fill="#63b8ff" stroke="#63b8ff" points="448.16,-266.13 442.26,-274.93 452.36,-271.73 448.16,-266.13"/>
</a>
</g>
</g>
<!-- Node11&#45;&gt;Node4 -->
<g id="edge19_Node000011_Node000004" class="edge">
<title>Node11&#45;&gt;Node4</title>
<g id="a_edge19_Node000011_Node000004"><a xlink:title=" ">
<path fill="none" stroke="#63b8ff" d="M1195.98,-209.45C1192.88,-171.96 1180.38,-92.02 1130,-55.25 1122.38,-49.69 540.46,-20.28 384.89,-12.51"/>
<polygon fill="#63b8ff" stroke="#63b8ff" points="1192.48,-209.55 1196.63,-219.29 1199.46,-209.08 1192.48,-209.55"/>
</a>
</g>
</g>
<!-- Node12 -->
<g id="Node000012" class="node">
<title>Node12</title>
<g id="a_Node000012"><a xlink:href="ay__3__8910_8h.html" target="_top" xlink:title="Buffer for PSG (AY&#45;3&#45;8910) registers.">
<polygon fill="white" stroke="#666666" points="1328.88,-185 1225.12,-185 1225.12,-165.75 1328.88,-165.75 1328.88,-185"/>
<text text-anchor="middle" x="1277" y="-171.5" font-family="Helvetica,sans-Serif" font-size="10.00">include/ay_3_8910.h</text>
</a>
</g>
</g>
<!-- Node11&#45;&gt;Node12 -->
<g id="edge18_Node000011_Node000012" class="edge">
<title>Node11&#45;&gt;Node12</title>
<g id="a_edge18_Node000011_Node000012"><a xlink:title=" ">
<path fill="none" stroke="#63b8ff" d="M1220.05,-214.28C1234.07,-204.95 1251.5,-193.35 1263.36,-185.45"/>
<polygon fill="#63b8ff" stroke="#63b8ff" points="1218.22,-211.3 1211.83,-219.75 1222.09,-217.13 1218.22,-211.3"/>
</a>
</g>
</g>
<!-- Node13&#45;&gt;Node4 -->
<g id="edge34_Node000013_Node000004" class="edge">
<title>Node13&#45;&gt;Node4</title>
<g id="a_edge34_Node000013_Node000004"><a xlink:title=" ">
<path fill="none" stroke="#63b8ff" d="M479.06,-213.44C469.54,-205.48 458.53,-195.38 450,-185 402.9,-127.68 363.47,-46.39 351.06,-19.58"/>
<polygon fill="#63b8ff" stroke="#63b8ff" points="476.78,-216.09 486.75,-219.66 481.18,-210.65 476.78,-216.09"/>
</a>
</g>
</g>
<!-- Node13&#45;&gt;Node5 -->
<g id="edge46_Node000013_Node000005" class="edge">
<title>Node13&#45;&gt;Node5</title>
<g id="a_edge46_Node000013_Node000005"><a xlink:title=" ">
<path fill="none" stroke="#63b8ff" d="M463.05,-216.69C438.97,-208.09 406.94,-196.34 379,-185 333.89,-166.7 281.89,-142.97 254.39,-130.2"/>
<polygon fill="#63b8ff" stroke="#63b8ff" points="461.83,-219.97 472.42,-220.02 464.17,-213.38 461.83,-219.97"/>
</a>
</g>
</g>
<!-- Node13&#45;&gt;Node6 -->
<g id="edge33_Node000013_Node000006" class="edge">
<title>Node13&#45;&gt;Node6</title>
<g id="a_edge33_Node000013_Node000006"><a xlink:title=" ">
<path fill="none" stroke="#63b8ff" d="M468.64,-215.84C452.44,-207.97 432.81,-197.25 417,-185 372.05,-150.17 329.55,-96.14 313.62,-74.89"/>
<polygon fill="#63b8ff" stroke="#63b8ff" points="466.81,-218.84 477.35,-219.94 469.79,-212.51 466.81,-218.84"/>
</a>
</g>
</g>
<!-- Node13&#45;&gt;Node7 -->
<g id="edge47_Node000013_Node000007" class="edge">
<title>Node13&#45;&gt;Node7</title>
<g id="a_edge47_Node000013_Node000007"><a xlink:title=" ">
<path fill="none" stroke="#63b8ff" d="M446.44,-218.86C397.57,-209.04 326.16,-194.69 280.13,-185.44"/>
<polygon fill="#63b8ff" stroke="#63b8ff" points="445.45,-222.23 455.94,-220.77 446.82,-215.37 445.45,-222.23"/>
</a>
</g>
</g>
<!-- Node14 -->
<g id="Node000014" class="node">
<title>Node14</title>
<g id="a_Node000014"><a xlink:href="ZX0__decompress_8h.html" target="_top" xlink:title="Decompressor of the ZX0 data compression format version 2.">
<polygon fill="white" stroke="#666666" points="750.88,-129.75 617.12,-129.75 617.12,-110.5 750.88,-110.5 750.88,-129.75"/>
<text text-anchor="middle" x="684" y="-116.25" font-family="Helvetica,sans-Serif" font-size="10.00">include/ZX0_decompress.h</text>
</a>
</g>
</g>
<!-- Node13&#45;&gt;Node14 -->
<g id="edge23_Node000013_Node000014" class="edge">
<title>Node13&#45;&gt;Node14</title>
<g id="a_edge23_Node000013_Node000014"><a xlink:title=" ">
<path fill="none" stroke="#63b8ff" d="M524.83,-214.98C563.43,-192.22 636.67,-149.03 668.54,-130.24"/>
<polygon fill="#63b8ff" stroke="#63b8ff" points="523.51,-211.7 516.68,-219.79 527.07,-217.73 523.51,-211.7"/>
</a>
</g>
</g>
<!-- Node15 -->
<g id="Node000015" class="node">
<title>Node15</title>
<g id="a_Node000015"><a xlink:href="bmem_8h.html" target="_top" xlink:title="Data types and functions for accessing banked memory.">
<polygon fill="white" stroke="#666666" points="856.12,-185 771.88,-185 771.88,-165.75 856.12,-165.75 856.12,-185"/>
<text text-anchor="middle" x="814" y="-171.5" font-family="Helvetica,sans-Serif" font-size="10.00">include/bmem.h</text>
</a>
</g>
</g>
<!-- Node13&#45;&gt;Node15 -->
<g id="edge24_Node000013_Node000015" class="edge">
<title>Node13&#45;&gt;Node15</title>
<g id="a_edge24_Node000013_Node000015"><a xlink:title=" ">
<path fill="none" stroke="#63b8ff" d="M553.38,-220.57C614.98,-210.13 715.03,-193.16 771.57,-183.57"/>
<polygon fill="#63b8ff" stroke="#63b8ff" points="553.11,-217.07 543.84,-222.19 554.28,-223.97 553.11,-217.07"/>
</a>
</g>
</g>
<!-- Node23 -->
<g id="Node000023" class="node">
<title>Node23</title>
<g id="a_Node000023"><a xlink:href="sm2__cfg_8h.html" target="_top" xlink:title="SM2 (Sprite Mode 2) Runtime configuration.">
<polygon fill="white" stroke="#666666" points="990.38,-185 895.62,-185 895.62,-165.75 990.38,-165.75 990.38,-185"/>
<text text-anchor="middle" x="943" y="-171.5" font-family="Helvetica,sans-Serif" font-size="10.00">include/sm2_cfg.h</text>
</a>
</g>
</g>
<!-- Node13&#45;&gt;Node23 -->
<g id="edge35_Node000013_Node000023" class="edge">
<title>Node13&#45;&gt;Node23</title>
<g id="a_edge35_Node000013_Node000023"><a xlink:title=" ">
<path fill="none" stroke="#63b8ff" d="M553.71,-223.17C640.97,-212.68 812.13,-192.11 895.33,-182.1"/>
<polygon fill="#63b8ff" stroke="#63b8ff" points="553.49,-219.67 543.98,-224.34 554.33,-226.62 553.49,-219.67"/>
</a>
</g>
</g>
<!-- Node26 -->
<g id="Node000026" class="node">
<title>Node26</title>
<g id="a_Node000026"><a xlink:href="sprite_8h.html" target="_top" xlink:title="Sprites.">
<polygon fill="white" stroke="#666666" points="540.62,-185 459.38,-185 459.38,-165.75 540.62,-165.75 540.62,-185"/>
<text text-anchor="middle" x="500" y="-171.5" font-family="Helvetica,sans-Serif" font-size="10.00">include/sprite.h</text>
</a>
</g>
</g>
<!-- Node13&#45;&gt;Node26 -->
<g id="edge38_Node000013_Node000026" class="edge">
<title>Node13&#45;&gt;Node26</title>
<g id="a_edge38_Node000013_Node000026"><a xlink:title=" ">
<path fill="none" stroke="#63b8ff" d="M500,-209.38C500,-201.09 500,-191.92 500,-185.36"/>
<polygon fill="#63b8ff" stroke="#63b8ff" points="496.5,-209.32 500,-219.32 503.5,-209.32 496.5,-209.32"/>
</a>
</g>
</g>
<!-- Node27 -->
<g id="Node000027" class="node">
<title>Node27</title>
<g id="a_Node000027"><a xlink:href="sprite__color_8h.html" target="_top" xlink:title="Sprite color table interface.">
<polygon fill="white" stroke="#666666" points="560.75,-129.75 453.25,-129.75 453.25,-110.5 560.75,-110.5 560.75,-129.75"/>
<text text-anchor="middle" x="507" y="-116.25" font-family="Helvetica,sans-Serif" font-size="10.00">include/sprite_color.h</text>
</a>
</g>
</g>
<!-- Node13&#45;&gt;Node27 -->
<g id="edge45_Node000013_Node000027" class="edge">
<title>Node13&#45;&gt;Node27</title>
<g id="a_edge45_Node000013_Node000027"><a xlink:title=" ">
<path fill="none" stroke="#63b8ff" d="M525.27,-213.93C534.89,-206.47 544.79,-196.63 550,-185 559.51,-163.77 536.23,-141.89 520.34,-130.05"/>
<polygon fill="#63b8ff" stroke="#63b8ff" points="523.27,-211.05 517.15,-219.7 527.33,-216.76 523.27,-211.05"/>
</a>
</g>
</g>
<!-- Node28 -->
<g id="Node000028" class="node">
<title>Node28</title>
<g id="a_Node000028"><a xlink:href="vmem__rw_8h.html" target="_top" xlink:title="Stream like access functions for VRAM.">
<polygon fill="white" stroke="#666666" points="1149,-185 1049,-185 1049,-165.75 1149,-165.75 1149,-185"/>
<text text-anchor="middle" x="1099" y="-171.5" font-family="Helvetica,sans-Serif" font-size="10.00">include/vmem_rw.h</text>
</a>
</g>
</g>
<!-- Node13&#45;&gt;Node28 -->
<g id="edge48_Node000013_Node000028" class="edge">
<title>Node13&#45;&gt;Node28</title>
<g id="a_edge48_Node000013_Node000028"><a xlink:title=" ">
<path fill="none" stroke="#63b8ff" d="M553.89,-224.83C668.91,-214.61 937.01,-190.78 1048.73,-180.84"/>
<polygon fill="#63b8ff" stroke="#63b8ff" points="553.76,-221.33 544.11,-225.7 554.38,-228.3 553.76,-221.33"/>
</a>
</g>
</g>
<!-- Node15&#45;&gt;Node14 -->
<g id="edge25_Node000015_Node000014" class="edge">
<title>Node15&#45;&gt;Node14</title>
<g id="a_edge25_Node000015_Node000014"><a xlink:title=" ">
<path fill="none" stroke="#63b8ff" d="M781.43,-161.03C757.93,-151.41 726.83,-138.67 706.16,-130.2"/>
<polygon fill="#63b8ff" stroke="#63b8ff" points="779.97,-164.22 790.55,-164.77 782.62,-157.74 779.97,-164.22"/>
</a>
</g>
</g>
<!-- Node16 -->
<g id="Node000016" class="node">
<title>Node16</title>
<g id="a_Node000016"><a xlink:href="bmem__rd_8h.html" target="_top" xlink:title="Stream like access functions for Banked Memory.">
<polygon fill="white" stroke="#666666" points="974.88,-129.75 877.12,-129.75 877.12,-110.5 974.88,-110.5 974.88,-129.75"/>
<text text-anchor="middle" x="926" y="-116.25" font-family="Helvetica,sans-Serif" font-size="10.00">include/bmem_rd.h</text>
</a>
</g>
</g>
<!-- Node15&#45;&gt;Node16 -->
<g id="edge26_Node000015_Node000016" class="edge">
<title>Node15&#45;&gt;Node16</title>
<g id="a_edge26_Node000015_Node000016"><a xlink:title=" ">
<path fill="none" stroke="#63b8ff" d="M843.17,-160.51C863.27,-150.95 889.42,-138.52 906.91,-130.2"/>
<polygon fill="#63b8ff" stroke="#63b8ff" points="841.89,-157.24 834.37,-164.69 844.9,-163.56 841.89,-157.24"/>
</a>
</g>
</g>
<!-- Node18 -->
<g id="Node000018" class="node">
<title>Node18</title>
<g id="a_Node000018"><a xlink:href="memfile_8h.html" target="_top" xlink:title="Stream interface for ROM / RAM / MegaROM.">
<polygon fill="white" stroke="#666666" points="859.5,-129.75 768.5,-129.75 768.5,-110.5 859.5,-110.5 859.5,-129.75"/>
<text text-anchor="middle" x="814" y="-116.25" font-family="Helvetica,sans-Serif" font-size="10.00">include/memfile.h</text>
</a>
</g>
</g>
<!-- Node15&#45;&gt;Node18 -->
<g id="edge28_Node000015_Node000018" class="edge">
<title>Node15&#45;&gt;Node18</title>
<g id="a_edge28_Node000015_Node000018"><a xlink:title=" ">
<path fill="none" stroke="#63b8ff" d="M814,-154.13C814,-145.84 814,-136.67 814,-130.11"/>
<polygon fill="#63b8ff" stroke="#63b8ff" points="810.5,-154.07 814,-164.07 817.5,-154.07 810.5,-154.07"/>
</a>
</g>
</g>
<!-- Node22 -->
<g id="Node000022" class="node">
<title>Node22</title>
<g id="a_Node000022"><a xlink:href="resources_8h.html" target="_top" xlink:title="Data types and functions for accessing embedded resources.">
<polygon fill="white" stroke="#666666" points="1093,-129.75 993,-129.75 993,-110.5 1093,-110.5 1093,-129.75"/>
<text text-anchor="middle" x="1043" y="-116.25" font-family="Helvetica,sans-Serif" font-size="10.00">include/resources.h</text>
</a>
</g>
</g>
<!-- Node15&#45;&gt;Node22 -->
<g id="edge32_Node000015_Node000022" class="edge">
<title>Node15&#45;&gt;Node22</title>
<g id="a_edge32_Node000015_Node000022"><a xlink:title=" ">
<path fill="none" stroke="#63b8ff" d="M864.22,-162.7C906.29,-152.91 965.5,-139.15 1004.05,-130.18"/>
<polygon fill="#63b8ff" stroke="#63b8ff" points="863.53,-159.26 854.58,-164.94 865.11,-166.08 863.53,-159.26"/>
</a>
</g>
</g>
<!-- Node17 -->
<g id="Node000017" class="node">
<title>Node17</title>
<g id="a_Node000017"><a xlink:href="xmem_8h.html" target="_top" xlink:title="Inter&#45;memory transfer functions for ROM / RAM, VRAM, and Banked Memory (MegaROM).">
<polygon fill="white" stroke="#666666" points="1120.75,-74.5 1037.25,-74.5 1037.25,-55.25 1120.75,-55.25 1120.75,-74.5"/>
<text text-anchor="middle" x="1079" y="-61" font-family="Helvetica,sans-Serif" font-size="10.00">include/xmem.h</text>
</a>
</g>
</g>
<!-- Node16&#45;&gt;Node17 -->
<g id="edge27_Node000016_Node000017" class="edge">
<title>Node16&#45;&gt;Node17</title>
<g id="a_edge27_Node000016_Node000017"><a xlink:title=" ">
<path fill="none" stroke="#63b8ff" d="M962.47,-106.43C990.33,-96.74 1028.04,-83.61 1052.92,-74.95"/>
<polygon fill="#63b8ff" stroke="#63b8ff" points="961.68,-103 953.38,-109.59 963.98,-109.61 961.68,-103"/>
</a>
</g>
</g>
<!-- Node19 -->
<g id="Node000019" class="node">
<title>Node19</title>
<g id="a_Node000019"><a xlink:href="NDP_8h.html" target="_top" xlink:title="NDP &#45; NDP sound driver.">
<polygon fill="white" stroke="#666666" points="853.12,-74.5 774.88,-74.5 774.88,-55.25 853.12,-55.25 853.12,-74.5"/>
<text text-anchor="middle" x="814" y="-61" font-family="Helvetica,sans-Serif" font-size="10.00">include/NDP.h</text>
</a>
</g>
</g>
<!-- Node18&#45;&gt;Node19 -->
<g id="edge29_Node000018_Node000019" class="edge">
<title>Node18&#45;&gt;Node19</title>
<g id="a_edge29_Node000018_Node000019"><a xlink:title=" ">
<path fill="none" stroke="#63b8ff" d="M814,-98.88C814,-90.59 814,-81.42 814,-74.86"/>
<polygon fill="#63b8ff" stroke="#63b8ff" points="810.5,-98.82 814,-108.82 817.5,-98.82 810.5,-98.82"/>
</a>
</g>
</g>
<!-- Node20 -->
<g id="Node000020" class="node">
<title>Node20</title>
<g id="a_Node000020"><a xlink:href="audio__buf_8h.html" target="_top" xlink:title="Unified sound&#45;chip buffer of the libmsx audio replayer.">
<polygon fill="white" stroke="#666666" points="970.62,-74.5 871.38,-74.5 871.38,-55.25 970.62,-55.25 970.62,-74.5"/>
<text text-anchor="middle" x="921" y="-61" font-family="Helvetica,sans-Serif" font-size="10.00">include/audio_buf.h</text>
</a>
</g>
</g>
<!-- Node18&#45;&gt;Node20 -->
<g id="edge30_Node000018_Node000020" class="edge">
<title>Node18&#45;&gt;Node20</title>
<g id="a_edge30_Node000018_Node000020"><a xlink:title=" ">
<path fill="none" stroke="#63b8ff" d="M842.4,-104.99C861.53,-95.47 886.21,-83.19 902.76,-74.95"/>
<polygon fill="#63b8ff" stroke="#63b8ff" points="840.9,-101.83 833.51,-109.42 844.02,-108.1 840.9,-101.83"/>
</a>
</g>
</g>
<!-- Node21 -->
<g id="Node000021" class="node">
<title>Node21</title>
<g id="a_Node000021"><a xlink:href="la0_8h.html" target="_top" xlink:title="The libmsx audio format 0 (LA0) decoder.">
<polygon fill="white" stroke="#666666" points="757,-74.5 687,-74.5 687,-55.25 757,-55.25 757,-74.5"/>
<text text-anchor="middle" x="722" y="-61" font-family="Helvetica,sans-Serif" font-size="10.00">include/la0.h</text>
</a>
</g>
</g>
<!-- Node18&#45;&gt;Node21 -->
<g id="edge31_Node000018_Node000021" class="edge">
<title>Node18&#45;&gt;Node21</title>
<g id="a_edge31_Node000018_Node000021"><a xlink:title=" ">
<path fill="none" stroke="#63b8ff" d="M788.89,-104.59C772.54,-95.13 751.72,-83.08 737.68,-74.95"/>
<polygon fill="#63b8ff" stroke="#63b8ff" points="786.68,-107.35 797.08,-109.33 790.18,-101.29 786.68,-107.35"/>
</a>
</g>
</g>
<!-- Node24 -->
<g id="Node000024" class="node">
<title>Node24</title>
<g id="a_Node000024"><a xlink:href="sm2_8h.html" target="_top" xlink:title="SM2 (Sprite Mode 2) Animated Color Sprites.">
<polygon fill="white" stroke="#666666" points="627,-74.5 551,-74.5 551,-55.25 627,-55.25 627,-74.5"/>
<text text-anchor="middle" x="589" y="-61" font-family="Helvetica,sans-Serif" font-size="10.00">include/sm2.h</text>
</a>
</g>
</g>
<!-- Node23&#45;&gt;Node24 -->
<g id="edge36_Node000023_Node000024" class="edge">
<title>Node23&#45;&gt;Node24</title>
<g id="a_edge36_Node000023_Node000024"><a xlink:title=" ">
<path fill="none" stroke="#63b8ff" d="M1002.07,-169.54C1059.99,-162.64 1135.11,-146.54 1102,-110.5 1070.01,-75.68 725.09,-78.78 678,-74.5 661.3,-72.98 642.85,-71.21 627.1,-69.67"/>
<polygon fill="#63b8ff" stroke="#63b8ff" points="1001.81,-166.05 992.26,-170.64 1002.59,-173.01 1001.81,-166.05"/>
</a>
</g>
</g>
<!-- Node25 -->
<g id="Node000025" class="node">
<title>Node25</title>
<g id="a_Node000025"><a xlink:href="sm2__bmem_8h.html" target="_top" xlink:title="SM2 (Sprite Mode 2) internal APIs for BMEM / Resources.">
<polygon fill="white" stroke="#666666" points="643.12,-19.25 534.88,-19.25 534.88,0 643.12,0 643.12,-19.25"/>
<text text-anchor="middle" x="589" y="-5.75" font-family="Helvetica,sans-Serif" font-size="10.00">include/sm2_bmem.h</text>
</a>
</g>
</g>
<!-- Node24&#45;&gt;Node25 -->
<g id="edge37_Node000024_Node000025" class="edge">
<title>Node24&#45;&gt;Node25</title>
<g id="a_edge37_Node000024_Node000025"><a xlink:title=" ">
<path fill="none" stroke="#63b8ff" d="M589,-43.63C589,-35.34 589,-26.17 589,-19.61"/>
<polygon fill="#63b8ff" stroke="#63b8ff" points="585.5,-43.57 589,-53.57 592.5,-43.57 585.5,-43.57"/>
</a>
</g>
</g>
<!-- Node26&#45;&gt;Node4 -->
<g id="edge40_Node000026_Node000004" class="edge">
<title>Node26&#45;&gt;Node4</title>
<g id="a_edge40_Node000026_Node000004"><a xlink:title=" ">
<path fill="none" stroke="#63b8ff" d="M476.62,-158.82C465.87,-150.93 453.44,-140.71 444,-129.75 419.06,-100.78 425.68,-84.45 401,-55.25 389.07,-41.13 372.27,-28.05 360.59,-19.75"/>
<polygon fill="#63b8ff" stroke="#63b8ff" points="474.46,-161.58 484.65,-164.48 478.5,-155.86 474.46,-161.58"/>
</a>
</g>
</g>
<!-- Node26&#45;&gt;Node6 -->
<g id="edge39_Node000026_Node000006" class="edge">
<title>Node26&#45;&gt;Node6</title>
<g id="a_edge39_Node000026_Node000006"><a xlink:title=" ">
<path fill="none" stroke="#63b8ff" d="M470.48,-160.37C453,-151.87 430.51,-140.61 411,-129.75 378.04,-111.41 340.64,-87.69 320.9,-74.94"/>
<polygon fill="#63b8ff" stroke="#63b8ff" points="468.76,-163.42 479.29,-164.61 471.8,-157.12 468.76,-163.42"/>
</a>
</g>
</g>
<!-- Node26&#45;&gt;Node24 -->
<g id="edge41_Node000026_Node000024" class="edge">
<title>Node26&#45;&gt;Node24</title>
<g id="a_edge41_Node000026_Node000024"><a xlink:title=" ">
<path fill="none" stroke="#63b8ff" d="M532.17,-160.2C545.57,-152.85 560.25,-142.68 570,-129.75 582.68,-112.94 586.93,-87.75 588.33,-74.59"/>
<polygon fill="#63b8ff" stroke="#63b8ff" points="530.93,-156.91 523.63,-164.58 534.12,-163.14 530.93,-156.91"/>
</a>
</g>
</g>
<!-- Node26&#45;&gt;Node27 -->
<g id="edge42_Node000026_Node000027" class="edge">
<title>Node26&#45;&gt;Node27</title>
<g id="a_edge42_Node000026_Node000027"><a xlink:title=" ">
<path fill="none" stroke="#63b8ff" d="M502.62,-154.42C503.72,-146.05 504.95,-136.75 505.82,-130.11"/>
<polygon fill="#63b8ff" stroke="#63b8ff" points="499.19,-153.71 501.35,-164.08 506.13,-154.62 499.19,-153.71"/>
</a>
</g>
</g>
<!-- Node27&#45;&gt;Node4 -->
<g id="edge43_Node000027_Node000004" class="edge">
<title>Node27&#45;&gt;Node4</title>
<g id="a_edge43_Node000027_Node000004"><a xlink:title=" ">
<path fill="none" stroke="#63b8ff" d="M491.79,-102.23C478.73,-88.4 458.92,-68.96 439,-55.25 417.21,-40.25 389.62,-27.6 370.36,-19.64"/>
<polygon fill="#63b8ff" stroke="#63b8ff" points="488.94,-104.31 498.3,-109.28 494.08,-99.56 488.94,-104.31"/>
</a>
</g>
</g>
<!-- Node27&#45;&gt;Node24 -->
<g id="edge44_Node000027_Node000024" class="edge">
<title>Node27&#45;&gt;Node24</title>
<g id="a_edge44_Node000027_Node000024"><a xlink:title=" ">
<path fill="none" stroke="#63b8ff" d="M530.21,-104.05C544.65,-94.67 562.75,-82.92 575.02,-74.95"/>
<polygon fill="#63b8ff" stroke="#63b8ff" points="528.66,-100.89 522.18,-109.27 532.47,-106.76 528.66,-100.89"/>
</a>
</g>
</g>
<!-- Node28&#45;&gt;Node17 -->
<g id="edge49_Node000028_Node000017" class="edge">
<title>Node28&#45;&gt;Node17</title>
<g id="a_edge49_Node000028_Node000017"><a xlink:title=" ">
<path fill="none" stroke="#63b8ff" d="M1118.47,-157.61C1130.74,-144.91 1142.9,-126.9 1135,-110.5 1127.28,-94.48 1110.71,-82.44 1097.59,-74.92"/>
<polygon fill="#63b8ff" stroke="#63b8ff" points="1116.13,-155 1111.3,-164.43 1120.95,-160.08 1116.13,-155"/>
</a>
</g>
</g>
</g>
</svg>
