<?xml version="1.0" encoding="UTF-8" standalone="no"?>
<!DOCTYPE svg PUBLIC "-//W3C//DTD SVG 1.1//EN"
 "http://www.w3.org/Graphics/SVG/1.1/DTD/svg11.dtd">
<!-- Generated by graphviz version 7.0.5 (20221223.1930)
 -->
<!-- Title: include/config.h Pages: 1 -->
<svg width="1116pt" height="357pt"
 viewBox="0.00 0.00 1116.00 357.00" xmlns="http://www.w3.org/2000/svg" xmlns:xlink="http://www.w3.org/1999/xlink">
<g id="graph0" class="graph" transform="scale(1 1) rotate(0) translate(4 353)">
<title>include/config.h</title>
<!-- Node1 -->
<g id="node1" class="node">
<title>Node1</title>
<g id="a_node1"><a xlink:title="Hack for C Compiler portability.">
<polygon fill="#999999" stroke="#666666" points="311.5,-349 228.5,-349 228.5,-330 311.5,-330 311.5,-349"/>
<text text-anchor="middle" x="270" y="-337" font-family="Helvetica,sans-Serif" font-size="10.00">include/config.h</text>
</a>
</g>
</g>
<!-- Node2 -->
<g id="node2" class="node">
<title>Node2</title>
<g id="a_node2"><a xlink:href="bios__const_8h.html" target="_top" xlink:title="Constant variables in the MSX BIOS ROM.">
<polygon fill="white" stroke="#666666" points="200.5,-294 95.5,-294 95.5,-275 200.5,-275 200.5,-294"/>
<text text-anchor="middle" x="148" y="-282" font-family="Helvetica,sans-Serif" font-size="10.00">include/bios_const.h</text>
</a>
</g>
</g>
<!-- Node1&#45;&gt;Node2 -->
<g id="edge1" class="edge">
<title>Node1&#45;&gt;Node2</title>
<path fill="none" stroke="#63b8ff" d="M238.76,-324.93C216.64,-315.32 187.59,-302.7 168.39,-294.36"/>
<polygon fill="#63b8ff" stroke="#63b8ff" points="237.35,-328.13 247.92,-328.91 240.14,-321.71 237.35,-328.13"/>
</g>
<!-- Node4 -->
<g id="node4" class="node">
<title>Node4</title>
<g id="a_node4"><a xlink:href="msx_8h.html" target="_top" xlink:title="Using #include &lt;msx.h&gt; includes almost all C header files in libmsx, for ease to use.">
<polygon fill="white" stroke="#666666" points="744,-19 668,-19 668,0 744,0 744,-19"/>
<text text-anchor="middle" x="706" y="-7" font-family="Helvetica,sans-Serif" font-size="10.00">include/msx.h</text>
</a>
</g>
</g>
<!-- Node1&#45;&gt;Node4 -->
<g id="edge41" class="edge">
<title>Node1&#45;&gt;Node4</title>
<path fill="none" stroke="#63b8ff" d="M323.12,-337.27C507.39,-332.29 1108,-309.98 1108,-230.5 1108,-230.5 1108,-230.5 1108,-118.5 1108,-43.61 844.53,-19.2 744.18,-12.61"/>
<polygon fill="#63b8ff" stroke="#63b8ff" points="323.26,-333.76 313.36,-337.52 323.44,-340.76 323.26,-333.76"/>
</g>
<!-- Node8 -->
<g id="node8" class="node">
<title>Node8</title>
<g id="a_node8"><a xlink:href="workarea_8h.html" target="_top" xlink:title="Definitions of MSX SYSTEM Workarea.">
<polygon fill="white" stroke="#666666" points="98,-239 0,-239 0,-220 98,-220 98,-239"/>
<text text-anchor="middle" x="49" y="-227" font-family="Helvetica,sans-Serif" font-size="10.00">include/workarea.h</text>
</a>
</g>
</g>
<!-- Node1&#45;&gt;Node8 -->
<g id="edge42" class="edge">
<title>Node1&#45;&gt;Node8</title>
<path fill="none" stroke="#63b8ff" d="M216.92,-336.4C177.7,-332.44 124.77,-321.83 87,-294 67.97,-279.98 56.66,-253.31 51.81,-239.42"/>
<polygon fill="#63b8ff" stroke="#63b8ff" points="216.59,-339.88 226.86,-337.27 217.2,-332.91 216.59,-339.88"/>
</g>
<!-- Node9 -->
<g id="node9" class="node">
<title>Node9</title>
<g id="a_node9"><a xlink:href="bios__entry_8h.html" target="_top" xlink:title="Assembler entry points for MSX BIOS functions.">
<polygon fill="white" stroke="#666666" points="321,-294 219,-294 219,-275 321,-275 321,-294"/>
<text text-anchor="middle" x="270" y="-282" font-family="Helvetica,sans-Serif" font-size="10.00">include/bios_entry.h</text>
</a>
</g>
</g>
<!-- Node1&#45;&gt;Node9 -->
<g id="edge13" class="edge">
<title>Node1&#45;&gt;Node9</title>
<path fill="none" stroke="#63b8ff" d="M270,-318.35C270,-310.1 270,-300.97 270,-294.44"/>
<polygon fill="#63b8ff" stroke="#63b8ff" points="266.5,-318.23 270,-328.23 273.5,-318.23 266.5,-318.23"/>
</g>
<!-- Node10 -->
<g id="node10" class="node">
<title>Node10</title>
<g id="a_node10"><a xlink:href="io_8h.html" target="_top" xlink:title="Definition of I/O ports.">
<polygon fill="white" stroke="#666666" points="538.5,-294 473.5,-294 473.5,-275 538.5,-275 538.5,-294"/>
<text text-anchor="middle" x="506" y="-282" font-family="Helvetica,sans-Serif" font-size="10.00">include/io.h</text>
</a>
</g>
</g>
<!-- Node1&#45;&gt;Node10 -->
<g id="edge15" class="edge">
<title>Node1&#45;&gt;Node10</title>
<path fill="none" stroke="#63b8ff" d="M320.99,-327.05C367.08,-316.7 433.56,-301.77 473.02,-292.91"/>
<polygon fill="#63b8ff" stroke="#63b8ff" points="320.5,-323.57 311.51,-329.18 322.03,-330.4 320.5,-323.57"/>
</g>
<!-- Node3 -->
<g id="node3" class="node">
<title>Node3</title>
<g id="a_node3"><a xlink:href="bios_8h.html" target="_top" xlink:title="C language I/F for MSX BIOS routines.">
<polygon fill="white" stroke="#666666" points="192,-239 116,-239 116,-220 192,-220 192,-239"/>
<text text-anchor="middle" x="154" y="-227" font-family="Helvetica,sans-Serif" font-size="10.00">include/bios.h</text>
</a>
</g>
</g>
<!-- Node2&#45;&gt;Node3 -->
<g id="edge2" class="edge">
<title>Node2&#45;&gt;Node3</title>
<path fill="none" stroke="#63b8ff" d="M150.28,-263.35C151.22,-255.1 152.25,-245.97 152.99,-239.44"/>
<polygon fill="#63b8ff" stroke="#63b8ff" points="146.81,-262.91 149.16,-273.24 153.76,-263.7 146.81,-262.91"/>
</g>
<!-- Node2&#45;&gt;Node8 -->
<g id="edge10" class="edge">
<title>Node2&#45;&gt;Node8</title>
<path fill="none" stroke="#63b8ff" d="M121.16,-269.13C103.41,-259.63 80.7,-247.47 65.55,-239.36"/>
<polygon fill="#63b8ff" stroke="#63b8ff" points="119.4,-272.16 129.87,-273.79 122.71,-265.99 119.4,-272.16"/>
</g>
<!-- Node3&#45;&gt;Node4 -->
<g id="edge3" class="edge">
<title>Node3&#45;&gt;Node4</title>
<path fill="none" stroke="#63b8ff" d="M144.48,-209.39C133.7,-184.86 119.77,-141.68 137,-110 158.5,-70.47 179.48,-69.71 222,-55 304.24,-26.56 568.13,-15.06 667.59,-11.67"/>
<polygon fill="#63b8ff" stroke="#63b8ff" points="141.17,-210.58 148.58,-218.15 147.51,-207.61 141.17,-210.58"/>
</g>
<!-- Node5 -->
<g id="node5" class="node">
<title>Node5</title>
<g id="a_node5"><a xlink:href="vdp_8h.html" target="_top" xlink:title="Data types and functions for VDP (Video Display Proccessor) access.">
<polygon fill="white" stroke="#666666" points="220,-129 146,-129 146,-110 220,-110 220,-129"/>
<text text-anchor="middle" x="183" y="-117" font-family="Helvetica,sans-Serif" font-size="10.00">include/vdp.h</text>
</a>
</g>
</g>
<!-- Node3&#45;&gt;Node5 -->
<g id="edge4" class="edge">
<title>Node3&#45;&gt;Node5</title>
<path fill="none" stroke="#63b8ff" d="M159.35,-208.57C165.69,-184.98 175.96,-146.73 180.59,-129.46"/>
<polygon fill="#63b8ff" stroke="#63b8ff" points="155.98,-207.63 156.77,-218.2 162.74,-209.45 155.98,-207.63"/>
</g>
<!-- Node7 -->
<g id="node7" class="node">
<title>Node7</title>
<g id="a_node7"><a xlink:href="vdp__unsafe_8h.html" target="_top" xlink:title="Unsafe primitive functions for VDP (Video Display Proccessor) access.">
<polygon fill="white" stroke="#666666" points="347,-184 239,-184 239,-165 347,-165 347,-184"/>
<text text-anchor="middle" x="293" y="-172" font-family="Helvetica,sans-Serif" font-size="10.00">include/vdp_unsafe.h</text>
</a>
</g>
</g>
<!-- Node3&#45;&gt;Node7 -->
<g id="edge8" class="edge">
<title>Node3&#45;&gt;Node7</title>
<path fill="none" stroke="#63b8ff" d="M188.22,-215.45C213.58,-205.78 247.49,-192.85 269.77,-184.36"/>
<polygon fill="#63b8ff" stroke="#63b8ff" points="187.09,-212.14 178.99,-218.97 189.58,-218.68 187.09,-212.14"/>
</g>
<!-- Node5&#45;&gt;Node4 -->
<g id="edge7" class="edge">
<title>Node5&#45;&gt;Node4</title>
<path fill="none" stroke="#63b8ff" d="M197.21,-101.18C210.65,-86.15 232.24,-65.25 256,-55 329.71,-23.21 572.81,-13.81 667.64,-11.32"/>
<polygon fill="#63b8ff" stroke="#63b8ff" points="194.8,-98.61 190.94,-108.48 200.11,-103.18 194.8,-98.61"/>
</g>
<!-- Node6 -->
<g id="node6" class="node">
<title>Node6</title>
<g id="a_node6"><a xlink:href="metasprite_8h.html" target="_top" xlink:title="Meta&#45;sprite ; an aggregate of sprites.">
<polygon fill="white" stroke="#666666" points="718,-74 614,-74 614,-55 718,-55 718,-74"/>
<text text-anchor="middle" x="666" y="-62" font-family="Helvetica,sans-Serif" font-size="10.00">include/metasprite.h</text>
</a>
</g>
</g>
<!-- Node5&#45;&gt;Node6 -->
<g id="edge5" class="edge">
<title>Node5&#45;&gt;Node6</title>
<path fill="none" stroke="#63b8ff" d="M231.9,-113.13C323.33,-103.1 519.4,-81.59 613.5,-71.26"/>
<polygon fill="#63b8ff" stroke="#63b8ff" points="231.56,-109.65 222,-114.22 232.32,-116.61 231.56,-109.65"/>
</g>
<!-- Node6&#45;&gt;Node4 -->
<g id="edge6" class="edge">
<title>Node6&#45;&gt;Node4</title>
<path fill="none" stroke="#63b8ff" d="M679.47,-45.65C686.12,-36.84 693.86,-26.59 699.25,-19.44"/>
<polygon fill="#63b8ff" stroke="#63b8ff" points="676.75,-43.45 673.52,-53.54 682.33,-47.67 676.75,-43.45"/>
</g>
<!-- Node7&#45;&gt;Node5 -->
<g id="edge9" class="edge">
<title>Node7&#45;&gt;Node5</title>
<path fill="none" stroke="#63b8ff" d="M264.01,-159.53C244.17,-149.97 218.46,-137.59 201.38,-129.36"/>
<polygon fill="#63b8ff" stroke="#63b8ff" points="262.45,-162.66 272.98,-163.85 265.49,-156.36 262.45,-162.66"/>
</g>
<!-- Node8&#45;&gt;Node4 -->
<g id="edge11" class="edge">
<title>Node8&#45;&gt;Node4</title>
<path fill="none" stroke="#63b8ff" d="M55.45,-208.98C69.05,-171.37 104.56,-89.54 166,-55 209.51,-30.54 552.07,-16.05 667.89,-11.81"/>
<polygon fill="#63b8ff" stroke="#63b8ff" points="52.26,-207.49 52.3,-218.09 58.88,-209.79 52.26,-207.49"/>
</g>
<!-- Node8&#45;&gt;Node5 -->
<g id="edge12" class="edge">
<title>Node8&#45;&gt;Node5</title>
<path fill="none" stroke="#63b8ff" d="M68.67,-212.65C97.21,-189.64 149.18,-147.76 171.88,-129.46"/>
<polygon fill="#63b8ff" stroke="#63b8ff" points="66.73,-209.71 61.14,-218.71 71.13,-215.16 66.73,-209.71"/>
</g>
<!-- Node9&#45;&gt;Node3 -->
<g id="edge14" class="edge">
<title>Node9&#45;&gt;Node3</title>
<path fill="none" stroke="#63b8ff" d="M240.01,-269.8C219.01,-260.2 191.56,-247.66 173.39,-239.36"/>
<polygon fill="#63b8ff" stroke="#63b8ff" points="238.4,-272.91 248.95,-273.88 241.3,-266.54 238.4,-272.91"/>
</g>
<!-- Node10&#45;&gt;Node4 -->
<g id="edge16" class="edge">
<title>Node10&#45;&gt;Node4</title>
<path fill="none" stroke="#63b8ff" d="M550.14,-281.05C654.94,-274.02 910,-249.34 910,-175.5 910,-175.5 910,-175.5 910,-118.5 910,-89.04 912.39,-75.25 891,-55 870.13,-35.24 792.16,-21.78 744.36,-15.19"/>
<polygon fill="#63b8ff" stroke="#63b8ff" points="549.98,-277.55 540.23,-281.69 550.43,-284.54 549.98,-277.55"/>
</g>
<!-- Node10&#45;&gt;Node5 -->
<g id="edge20" class="edge">
<title>Node10&#45;&gt;Node5</title>
<path fill="none" stroke="#63b8ff" d="M462.01,-275.91C404.14,-264.18 301.45,-237.25 230,-184 209.76,-168.92 194.34,-142.71 187.26,-129.17"/>
<polygon fill="#63b8ff" stroke="#63b8ff" points="461.33,-279.34 471.82,-277.82 462.67,-272.47 461.33,-279.34"/>
</g>
<!-- Node10&#45;&gt;Node7 -->
<g id="edge21" class="edge">
<title>Node10&#45;&gt;Node7</title>
<path fill="none" stroke="#63b8ff" d="M478.49,-269.55C434.07,-247.03 347.78,-203.28 310.67,-184.46"/>
<polygon fill="#63b8ff" stroke="#63b8ff" points="476.72,-272.58 487.22,-273.98 479.88,-266.33 476.72,-272.58"/>
</g>
<!-- Node11 -->
<g id="node11" class="node">
<title>Node11</title>
<g id="a_node11"><a xlink:href="psg_8h.html" target="_top" xlink:title="Device interface for PSG (AY&#45;3&#45;8910) an internal sound chip.">
<polygon fill="white" stroke="#666666" points="1012,-239 938,-239 938,-220 1012,-220 1012,-239"/>
<text text-anchor="middle" x="975" y="-227" font-family="Helvetica,sans-Serif" font-size="10.00">include/psg.h</text>
</a>
</g>
</g>
<!-- Node10&#45;&gt;Node11 -->
<g id="edge17" class="edge">
<title>Node10&#45;&gt;Node11</title>
<path fill="none" stroke="#63b8ff" d="M549.92,-279.69C626.19,-272.87 787.99,-257.56 924,-239 928.45,-238.39 933.1,-237.7 937.72,-236.98"/>
<polygon fill="#63b8ff" stroke="#63b8ff" points="550.02,-276.16 540.37,-280.53 550.64,-283.13 550.02,-276.16"/>
</g>
<!-- Node13 -->
<g id="node13" class="node">
<title>Node13</title>
<g id="a_node13"><a xlink:href="vmem_8h.html" target="_top" xlink:title="Data types and functions for VRAM access.">
<polygon fill="white" stroke="#666666" points="643.5,-239 558.5,-239 558.5,-220 643.5,-220 643.5,-239"/>
<text text-anchor="middle" x="601" y="-227" font-family="Helvetica,sans-Serif" font-size="10.00">include/vmem.h</text>
</a>
</g>
</g>
<!-- Node10&#45;&gt;Node13 -->
<g id="edge22" class="edge">
<title>Node10&#45;&gt;Node13</title>
<path fill="none" stroke="#63b8ff" d="M531.99,-269C548.99,-259.52 570.65,-247.43 585.12,-239.36"/>
<polygon fill="#63b8ff" stroke="#63b8ff" points="530.46,-265.84 523.44,-273.77 533.88,-271.96 530.46,-265.84"/>
</g>
<!-- Node11&#45;&gt;Node4 -->
<g id="edge19" class="edge">
<title>Node11&#45;&gt;Node4</title>
<path fill="none" stroke="#63b8ff" d="M970.44,-208.9C960.24,-165.78 935.57,-65.63 924,-55 898.19,-31.28 799.4,-18.83 744.08,-13.59"/>
<polygon fill="#63b8ff" stroke="#63b8ff" points="966.98,-209.45 972.67,-218.39 973.79,-207.86 966.98,-209.45"/>
</g>
<!-- Node12 -->
<g id="node12" class="node">
<title>Node12</title>
<g id="a_node12"><a xlink:href="ay__3__8910_8h.html" target="_top" xlink:title="Buffer for PSG (AY&#45;3&#45;8910) registers.">
<polygon fill="white" stroke="#666666" points="1080,-184 976,-184 976,-165 1080,-165 1080,-184"/>
<text text-anchor="middle" x="1028" y="-172" font-family="Helvetica,sans-Serif" font-size="10.00">include/ay_3_8910.h</text>
</a>
</g>
</g>
<!-- Node11&#45;&gt;Node12 -->
<g id="edge18" class="edge">
<title>Node11&#45;&gt;Node12</title>
<path fill="none" stroke="#63b8ff" d="M991.72,-211.78C1000.78,-202.72 1011.6,-191.9 1019.06,-184.44"/>
<polygon fill="#63b8ff" stroke="#63b8ff" points="989.42,-209.13 984.82,-218.68 994.37,-214.08 989.42,-209.13"/>
</g>
<!-- Node13&#45;&gt;Node4 -->
<g id="edge30" class="edge">
<title>Node13&#45;&gt;Node4</title>
<path fill="none" stroke="#63b8ff" d="M614.99,-210.7C628.8,-191.73 648.74,-160.2 655,-129 656.66,-120.72 658.85,-117.52 655,-110 642.52,-85.63 617.48,-98.37 605,-74 601.15,-66.48 600.39,-62.07 605,-55 618.82,-33.81 645.24,-22.65 667.59,-16.8"/>
<polygon fill="#63b8ff" stroke="#63b8ff" points="612.39,-208.33 609.16,-218.42 617.98,-212.55 612.39,-208.33"/>
</g>
<!-- Node13&#45;&gt;Node5 -->
<g id="edge37" class="edge">
<title>Node13&#45;&gt;Node5</title>
<path fill="none" stroke="#63b8ff" d="M547.24,-220.53C505.1,-213.42 445.36,-201.42 395,-184 376.78,-177.7 374.1,-171.66 356,-165 310.45,-148.24 255.94,-135.34 220.44,-127.85"/>
<polygon fill="#63b8ff" stroke="#63b8ff" points="546.44,-223.95 556.87,-222.12 547.57,-217.04 546.44,-223.95"/>
</g>
<!-- Node13&#45;&gt;Node6 -->
<g id="edge29" class="edge">
<title>Node13&#45;&gt;Node6</title>
<path fill="none" stroke="#63b8ff" d="M648.34,-215.34C663.71,-208.58 679.08,-198.58 688,-184 710.06,-147.94 683.61,-95.01 671.47,-74.28"/>
<polygon fill="#63b8ff" stroke="#63b8ff" points="647.2,-212.03 639.19,-218.96 649.78,-218.54 647.2,-212.03"/>
</g>
<!-- Node13&#45;&gt;Node7 -->
<g id="edge38" class="edge">
<title>Node13&#45;&gt;Node7</title>
<path fill="none" stroke="#63b8ff" d="M546.91,-219.19C490.09,-209.41 401.35,-194.14 345.24,-184.49"/>
<polygon fill="#63b8ff" stroke="#63b8ff" points="546.23,-222.63 556.68,-220.87 547.42,-215.73 546.23,-222.63"/>
</g>
<!-- Node14 -->
<g id="node14" class="node">
<title>Node14</title>
<g id="a_node14"><a xlink:href="ZX0__decompress_8h.html" target="_top" xlink:title="Decompresser of ZX0 compressed file format version 2.">
<polygon fill="white" stroke="#666666" points="646,-129 512,-129 512,-110 646,-110 646,-129"/>
<text text-anchor="middle" x="579" y="-117" font-family="Helvetica,sans-Serif" font-size="10.00">include/ZX0_decompress.h</text>
</a>
</g>
</g>
<!-- Node13&#45;&gt;Node14 -->
<g id="edge23" class="edge">
<title>Node13&#45;&gt;Node14</title>
<path fill="none" stroke="#63b8ff" d="M611.57,-209.75C617.38,-196.94 622.42,-179.68 617,-165 611.66,-150.51 599.26,-137.54 590.07,-129.39"/>
<polygon fill="#63b8ff" stroke="#63b8ff" points="608.61,-207.85 607.19,-218.35 614.85,-211.03 608.61,-207.85"/>
</g>
<!-- Node15 -->
<g id="node15" class="node">
<title>Node15</title>
<g id="a_node15"><a xlink:href="bmem_8h.html" target="_top" xlink:title="Data types and functions for accessing banked memory.">
<polygon fill="white" stroke="#666666" points="607.5,-184 522.5,-184 522.5,-165 607.5,-165 607.5,-184"/>
<text text-anchor="middle" x="565" y="-172" font-family="Helvetica,sans-Serif" font-size="10.00">include/bmem.h</text>
</a>
</g>
</g>
<!-- Node13&#45;&gt;Node15 -->
<g id="edge24" class="edge">
<title>Node13&#45;&gt;Node15</title>
<path fill="none" stroke="#63b8ff" d="M588.68,-210.36C582.74,-201.62 575.88,-191.51 571.07,-184.44"/>
<polygon fill="#63b8ff" stroke="#63b8ff" points="585.69,-212.19 594.2,-218.5 591.48,-208.26 585.69,-212.19"/>
</g>
<!-- Node19 -->
<g id="node19" class="node">
<title>Node19</title>
<g id="a_node19"><a xlink:href="sprite_8h.html" target="_top" xlink:title="Sprites.">
<polygon fill="white" stroke="#666666" points="822,-129 740,-129 740,-110 822,-110 822,-129"/>
<text text-anchor="middle" x="781" y="-117" font-family="Helvetica,sans-Serif" font-size="10.00">include/sprite.h</text>
</a>
</g>
</g>
<!-- Node13&#45;&gt;Node19 -->
<g id="edge31" class="edge">
<title>Node13&#45;&gt;Node19</title>
<path fill="none" stroke="#63b8ff" d="M653.2,-216.44C676.77,-209.41 704.16,-198.92 726,-184 748.16,-168.86 766.88,-142.68 775.65,-129.15"/>
<polygon fill="#63b8ff" stroke="#63b8ff" points="652.44,-213.02 643.78,-219.11 654.35,-219.75 652.44,-213.02"/>
</g>
<!-- Node20 -->
<g id="node20" class="node">
<title>Node20</title>
<g id="a_node20"><a xlink:href="sprite__color_8h.html" target="_top" xlink:title="Sprite color table interface.">
<polygon fill="white" stroke="#666666" points="882,-74 774,-74 774,-55 882,-55 882,-74"/>
<text text-anchor="middle" x="828" y="-62" font-family="Helvetica,sans-Serif" font-size="10.00">include/sprite_color.h</text>
</a>
</g>
</g>
<!-- Node13&#45;&gt;Node20 -->
<g id="edge36" class="edge">
<title>Node13&#45;&gt;Node20</title>
<path fill="none" stroke="#63b8ff" d="M655.14,-223.71C711.92,-215.34 797.47,-192.3 831,-129 840.3,-111.45 835.04,-87.18 831.1,-74.33"/>
<polygon fill="#63b8ff" stroke="#63b8ff" points="654.78,-220.23 645.34,-225.04 655.72,-227.17 654.78,-220.23"/>
</g>
<!-- Node21 -->
<g id="node21" class="node">
<title>Node21</title>
<g id="a_node21"><a xlink:href="vmem__rw_8h.html" target="_top" xlink:title="Stream like access functions for VRAM.">
<polygon fill="white" stroke="#666666" points="504.5,-184 403.5,-184 403.5,-165 504.5,-165 504.5,-184"/>
<text text-anchor="middle" x="454" y="-172" font-family="Helvetica,sans-Serif" font-size="10.00">include/vmem_rw.h</text>
</a>
</g>
</g>
<!-- Node13&#45;&gt;Node21 -->
<g id="edge39" class="edge">
<title>Node13&#45;&gt;Node21</title>
<path fill="none" stroke="#63b8ff" d="M565.53,-215.71C538.63,-206.01 502.34,-192.93 478.57,-184.36"/>
<polygon fill="#63b8ff" stroke="#63b8ff" points="564.05,-218.9 574.64,-219 566.42,-212.31 564.05,-218.9"/>
</g>
<!-- Node15&#45;&gt;Node14 -->
<g id="edge25" class="edge">
<title>Node15&#45;&gt;Node14</title>
<path fill="none" stroke="#63b8ff" d="M570.25,-153.64C572.45,-145.31 574.89,-136.05 576.64,-129.44"/>
<polygon fill="#63b8ff" stroke="#63b8ff" points="566.87,-152.72 567.7,-163.28 573.64,-154.51 566.87,-152.72"/>
</g>
<!-- Node16 -->
<g id="node16" class="node">
<title>Node16</title>
<g id="a_node16"><a xlink:href="bmem__rd_8h.html" target="_top" xlink:title="Stream like access functions for Banked Memory.">
<polygon fill="white" stroke="#666666" points="374,-129 276,-129 276,-110 374,-110 374,-129"/>
<text text-anchor="middle" x="325" y="-117" font-family="Helvetica,sans-Serif" font-size="10.00">include/bmem_rd.h</text>
</a>
</g>
</g>
<!-- Node15&#45;&gt;Node16 -->
<g id="edge26" class="edge">
<title>Node15&#45;&gt;Node16</title>
<path fill="none" stroke="#63b8ff" d="M513.18,-162.06C468.93,-152.28 406.16,-138.42 365.51,-129.45"/>
<polygon fill="#63b8ff" stroke="#63b8ff" points="512.29,-165.44 522.81,-164.18 513.8,-158.61 512.29,-165.44"/>
</g>
<!-- Node18 -->
<g id="node18" class="node">
<title>Node18</title>
<g id="a_node18"><a xlink:href="resources_8h.html" target="_top" xlink:title="Data types and functions for accessing embedded resources.">
<polygon fill="white" stroke="#666666" points="493.5,-129 392.5,-129 392.5,-110 493.5,-110 493.5,-129"/>
<text text-anchor="middle" x="443" y="-117" font-family="Helvetica,sans-Serif" font-size="10.00">include/resources.h</text>
</a>
</g>
</g>
<!-- Node15&#45;&gt;Node18 -->
<g id="edge28" class="edge">
<title>Node15&#45;&gt;Node18</title>
<path fill="none" stroke="#63b8ff" d="M533.76,-159.93C511.64,-150.32 482.59,-137.7 463.39,-129.36"/>
<polygon fill="#63b8ff" stroke="#63b8ff" points="532.35,-163.13 542.92,-163.91 535.14,-156.71 532.35,-163.13"/>
</g>
<!-- Node17 -->
<g id="node17" class="node">
<title>Node17</title>
<g id="a_node17"><a xlink:href="xmem_8h.html" target="_top" xlink:title="Inter&#45;memory transfer functions for ROM / RAM, VRAM, and Banked Memory (MegaROM).">
<polygon fill="white" stroke="#666666" points="349,-74 265,-74 265,-55 349,-55 349,-74"/>
<text text-anchor="middle" x="307" y="-62" font-family="Helvetica,sans-Serif" font-size="10.00">include/xmem.h</text>
</a>
</g>
</g>
<!-- Node16&#45;&gt;Node17 -->
<g id="edge27" class="edge">
<title>Node16&#45;&gt;Node17</title>
<path fill="none" stroke="#63b8ff" d="M318.35,-98.93C315.5,-90.53 312.31,-81.13 310.04,-74.44"/>
<polygon fill="#63b8ff" stroke="#63b8ff" points="315.01,-99.97 321.54,-108.31 321.64,-97.72 315.01,-99.97"/>
</g>
<!-- Node19&#45;&gt;Node4 -->
<g id="edge33" class="edge">
<title>Node19&#45;&gt;Node4</title>
<path fill="none" stroke="#63b8ff" d="M768.5,-100.49C752.26,-77.11 724.54,-37.2 712.22,-19.46"/>
<polygon fill="#63b8ff" stroke="#63b8ff" points="765.42,-102.2 774,-108.42 771.17,-98.21 765.42,-102.2"/>
</g>
<!-- Node19&#45;&gt;Node6 -->
<g id="edge32" class="edge">
<title>Node19&#45;&gt;Node6</title>
<path fill="none" stroke="#63b8ff" d="M751.27,-104.8C730.45,-95.2 703.24,-82.66 685.22,-74.36"/>
<polygon fill="#63b8ff" stroke="#63b8ff" points="749.57,-107.87 760.12,-108.88 752.5,-101.51 749.57,-107.87"/>
</g>
<!-- Node19&#45;&gt;Node20 -->
<g id="edge34" class="edge">
<title>Node19&#45;&gt;Node20</title>
<path fill="none" stroke="#63b8ff" d="M796.33,-101.22C804.25,-92.28 813.6,-81.74 820.07,-74.44"/>
<polygon fill="#63b8ff" stroke="#63b8ff" points="793.78,-98.81 789.77,-108.62 799.02,-103.46 793.78,-98.81"/>
</g>
<!-- Node20&#45;&gt;Node4 -->
<g id="edge35" class="edge">
<title>Node20&#45;&gt;Node4</title>
<path fill="none" stroke="#63b8ff" d="M796.76,-49.93C774.64,-40.32 745.59,-27.7 726.39,-19.36"/>
<polygon fill="#63b8ff" stroke="#63b8ff" points="795.35,-53.13 805.92,-53.91 798.14,-46.71 795.35,-53.13"/>
</g>
<!-- Node21&#45;&gt;Node17 -->
<g id="edge40" class="edge">
<title>Node21&#45;&gt;Node17</title>
<path fill="none" stroke="#63b8ff" d="M392.11,-162.69C340.78,-153.09 274.95,-139.06 267,-129 252.54,-110.7 277.86,-86.95 294.4,-74.31"/>
<polygon fill="#63b8ff" stroke="#63b8ff" points="391.19,-166.07 401.66,-164.45 392.46,-159.19 391.19,-166.07"/>
</g>
</g>
</svg>
