<?xml version="1.0" encoding="UTF-8" standalone="no"?>
<!DOCTYPE svg PUBLIC "-//W3C//DTD SVG 1.1//EN"
 "http://www.w3.org/Graphics/SVG/1.1/DTD/svg11.dtd">
<!-- Generated by graphviz version 12.2.0 (20241103.1931)
 -->
<!-- Title: include/config.h Pages: 1 -->
<svg width="1456pt" height="359pt"
 viewBox="0.00 0.00 1455.83 358.75" xmlns="http://www.w3.org/2000/svg" xmlns:xlink="http://www.w3.org/1999/xlink">
<g id="graph0" class="graph" transform="scale(1 1) rotate(0) translate(4 354.75)">
<title>include/config.h</title>
<!-- Node1 -->
<g id="Node000001" class="node">
<title>Node1</title>
<g id="a_Node000001"><a xlink:title="Hack for C Compiler portability.">
<polygon fill="#999999" stroke="#666666" points="293.12,-350.75 210.38,-350.75 210.38,-331.5 293.12,-331.5 293.12,-350.75"/>
<text text-anchor="middle" x="251.75" y="-337.25" font-family="Helvetica,sans-Serif" font-size="10.00">include/config.h</text>
</a>
</g>
</g>
<!-- Node2 -->
<g id="Node000002" class="node">
<title>Node2</title>
<g id="a_Node000002"><a xlink:href="bios__const_8h.html" target="_top" xlink:title="Constant variables in the MSX BIOS ROM.">
<polygon fill="white" stroke="#666666" points="224,-295.5 119.5,-295.5 119.5,-276.25 224,-276.25 224,-295.5"/>
<text text-anchor="middle" x="171.75" y="-282" font-family="Helvetica,sans-Serif" font-size="10.00">include/bios_const.h</text>
</a>
</g>
</g>
<!-- Node1&#45;&gt;Node2 -->
<g id="edge1_Node000001_Node000002" class="edge">
<title>Node1&#45;&gt;Node2</title>
<g id="a_edge1_Node000001_Node000002"><a xlink:title=" ">
<path fill="none" stroke="#63b8ff" d="M228.7,-324.78C214.68,-315.45 197.25,-303.85 185.39,-295.95"/>
<polygon fill="#63b8ff" stroke="#63b8ff" points="226.66,-327.63 236.92,-330.25 230.53,-321.8 226.66,-327.63"/>
</a>
</g>
</g>
<!-- Node4 -->
<g id="Node000004" class="node">
<title>Node4</title>
<g id="a_Node000004"><a xlink:href="msx_8h.html" target="_top" xlink:title="Using #include &lt;msx.h&gt; includes almost all C header files in libmsx, for ease to use.">
<polygon fill="white" stroke="#666666" points="551.38,-19.25 476.12,-19.25 476.12,0 551.38,0 551.38,-19.25"/>
<text text-anchor="middle" x="513.75" y="-5.75" font-family="Helvetica,sans-Serif" font-size="10.00">include/msx.h</text>
</a>
</g>
</g>
<!-- Node1&#45;&gt;Node4 -->
<g id="edge49_Node000001_Node000004" class="edge">
<title>Node1&#45;&gt;Node4</title>
<g id="a_edge49_Node000001_Node000004"><a xlink:title=" ">
<path fill="none" stroke="#63b8ff" d="M305.06,-338.12C537,-329.05 1446.75,-289.79 1446.75,-231.62 1446.75,-231.62 1446.75,-231.62 1446.75,-119.12 1446.75,-89.51 1451.05,-73.53 1427.75,-55.25 1418.99,-48.37 723.46,-19.27 551.75,-12.19"/>
<polygon fill="#63b8ff" stroke="#63b8ff" points="304.95,-334.62 295.09,-338.51 305.22,-341.62 304.95,-334.62"/>
</a>
</g>
</g>
<!-- Node8 -->
<g id="Node000008" class="node">
<title>Node8</title>
<g id="a_Node000008"><a xlink:href="workarea_8h.html" target="_top" xlink:title="Definitions of MSX SYSTEM Workarea.">
<polygon fill="white" stroke="#666666" points="211.25,-240.25 114.25,-240.25 114.25,-221 211.25,-221 211.25,-240.25"/>
<text text-anchor="middle" x="162.75" y="-226.75" font-family="Helvetica,sans-Serif" font-size="10.00">include/workarea.h</text>
</a>
</g>
</g>
<!-- Node1&#45;&gt;Node8 -->
<g id="edge50_Node000001_Node000008" class="edge">
<title>Node1&#45;&gt;Node8</title>
<g id="a_edge50_Node000001_Node000008"><a xlink:title=" ">
<path fill="none" stroke="#63b8ff" d="M249.48,-320.02C247.13,-306.54 242.36,-288.99 232.75,-276.25 220.51,-260.03 200.52,-248.14 185.03,-240.73"/>
<polygon fill="#63b8ff" stroke="#63b8ff" points="246.02,-320.5 250.87,-329.91 252.95,-319.52 246.02,-320.5"/>
</a>
</g>
</g>
<!-- Node9 -->
<g id="Node000009" class="node">
<title>Node9</title>
<g id="a_Node000009"><a xlink:href="bios__entry_8h.html" target="_top" xlink:title="Assembler entry points for MSX BIOS functions.">
<polygon fill="white" stroke="#666666" points="101.5,-295.5 0,-295.5 0,-276.25 101.5,-276.25 101.5,-295.5"/>
<text text-anchor="middle" x="50.75" y="-282" font-family="Helvetica,sans-Serif" font-size="10.00">include/bios_entry.h</text>
</a>
</g>
</g>
<!-- Node1&#45;&gt;Node9 -->
<g id="edge13_Node000001_Node000009" class="edge">
<title>Node1&#45;&gt;Node9</title>
<g id="a_edge13_Node000001_Node000009"><a xlink:title=" ">
<path fill="none" stroke="#63b8ff" d="M206.72,-328.2C169.88,-318.44 118.57,-304.84 85.01,-295.95"/>
<polygon fill="#63b8ff" stroke="#63b8ff" points="205.63,-331.53 216.19,-330.7 207.42,-324.76 205.63,-331.53"/>
</a>
</g>
</g>
<!-- Node10 -->
<g id="Node000010" class="node">
<title>Node10</title>
<g id="a_Node000010"><a xlink:href="io_8h.html" target="_top" xlink:title="Definition of I/O ports.">
<polygon fill="white" stroke="#666666" points="371.12,-295.5 306.38,-295.5 306.38,-276.25 371.12,-276.25 371.12,-295.5"/>
<text text-anchor="middle" x="338.75" y="-282" font-family="Helvetica,sans-Serif" font-size="10.00">include/io.h</text>
</a>
</g>
</g>
<!-- Node1&#45;&gt;Node10 -->
<g id="edge15_Node000001_Node000010" class="edge">
<title>Node1&#45;&gt;Node10</title>
<g id="a_edge15_Node000001_Node000010"><a xlink:title=" ">
<path fill="none" stroke="#63b8ff" d="M275.93,-325.32C291.33,-315.9 310.77,-304 323.92,-295.95"/>
<polygon fill="#63b8ff" stroke="#63b8ff" points="274.5,-322.1 267.8,-330.3 278.16,-328.07 274.5,-322.1"/>
</a>
</g>
</g>
<!-- Node3 -->
<g id="Node000003" class="node">
<title>Node3</title>
<g id="a_Node000003"><a xlink:href="bios_8h.html" target="_top" xlink:title="C language I/F for MSX BIOS routines.">
<polygon fill="white" stroke="#666666" points="96.38,-240.25 21.12,-240.25 21.12,-221 96.38,-221 96.38,-240.25"/>
<text text-anchor="middle" x="58.75" y="-226.75" font-family="Helvetica,sans-Serif" font-size="10.00">include/bios.h</text>
</a>
</g>
</g>
<!-- Node2&#45;&gt;Node3 -->
<g id="edge2_Node000002_Node000003" class="edge">
<title>Node2&#45;&gt;Node3</title>
<g id="a_edge2_Node000002_Node000003"><a xlink:title=" ">
<path fill="none" stroke="#63b8ff" d="M142.32,-271.01C122.04,-261.45 95.66,-249.02 78.01,-240.7"/>
<polygon fill="#63b8ff" stroke="#63b8ff" points="140.67,-274.1 151.21,-275.2 143.66,-267.77 140.67,-274.1"/>
</a>
</g>
</g>
<!-- Node2&#45;&gt;Node8 -->
<g id="edge10_Node000002_Node000008" class="edge">
<title>Node2&#45;&gt;Node8</title>
<g id="a_edge10_Node000002_Node000008"><a xlink:title=" ">
<path fill="none" stroke="#63b8ff" d="M168.38,-264.92C166.96,-256.55 165.39,-247.25 164.27,-240.61"/>
<polygon fill="#63b8ff" stroke="#63b8ff" points="164.89,-265.31 170.01,-274.59 171.8,-264.15 164.89,-265.31"/>
</a>
</g>
</g>
<!-- Node3&#45;&gt;Node4 -->
<g id="edge3_Node000003_Node000004" class="edge">
<title>Node3&#45;&gt;Node4</title>
<g id="a_edge3_Node000003_Node000004"><a xlink:title=" ">
<path fill="none" stroke="#63b8ff" d="M69.18,-210.95C91.69,-172.84 148.98,-87.04 224.75,-55.25 309.48,-19.7 418.87,-12.11 475.69,-10.72"/>
<polygon fill="#63b8ff" stroke="#63b8ff" points="66.25,-209.02 64.3,-219.43 72.32,-212.51 66.25,-209.02"/>
</a>
</g>
</g>
<!-- Node5 -->
<g id="Node000005" class="node">
<title>Node5</title>
<g id="a_Node000005"><a xlink:href="vdp_8h.html" target="_top" xlink:title="Data types and functions for VDP (Video Display Proccessor) access.">
<polygon fill="white" stroke="#666666" points="314.25,-129.75 241.25,-129.75 241.25,-110.5 314.25,-110.5 314.25,-129.75"/>
<text text-anchor="middle" x="277.75" y="-116.25" font-family="Helvetica,sans-Serif" font-size="10.00">include/vdp.h</text>
</a>
</g>
</g>
<!-- Node3&#45;&gt;Node5 -->
<g id="edge4_Node000003_Node000005" class="edge">
<title>Node3&#45;&gt;Node5</title>
<g id="a_edge4_Node000003_Node000005"><a xlink:title=" ">
<path fill="none" stroke="#63b8ff" d="M72.46,-212.29C84.73,-197.88 103.94,-177.84 124.75,-165.75 161.23,-144.55 208.54,-132.77 240.84,-126.71"/>
<polygon fill="#63b8ff" stroke="#63b8ff" points="70.07,-209.69 66.42,-219.64 75.47,-214.14 70.07,-209.69"/>
</a>
</g>
</g>
<!-- Node7 -->
<g id="Node000007" class="node">
<title>Node7</title>
<g id="a_Node000007"><a xlink:href="vdp__unsafe_8h.html" target="_top" xlink:title="Unsafe primitive functions for VDP (Video Display Proccessor) access.">
<polygon fill="white" stroke="#666666" points="249.5,-185 142,-185 142,-165.75 249.5,-165.75 249.5,-185"/>
<text text-anchor="middle" x="195.75" y="-171.5" font-family="Helvetica,sans-Serif" font-size="10.00">include/vdp_unsafe.h</text>
</a>
</g>
</g>
<!-- Node3&#45;&gt;Node7 -->
<g id="edge8_Node000003_Node000007" class="edge">
<title>Node3&#45;&gt;Node7</title>
<g id="a_edge8_Node000003_Node000007"><a xlink:title=" ">
<path fill="none" stroke="#63b8ff" d="M92.41,-216.54C117.24,-206.89 150.41,-194 172.4,-185.45"/>
<polygon fill="#63b8ff" stroke="#63b8ff" points="91.45,-213.16 83.4,-220.04 93.99,-219.68 91.45,-213.16"/>
</a>
</g>
</g>
<!-- Node5&#45;&gt;Node4 -->
<g id="edge7_Node000005_Node000004" class="edge">
<title>Node5&#45;&gt;Node4</title>
<g id="a_edge7_Node000005_Node000004"><a xlink:title=" ">
<path fill="none" stroke="#63b8ff" d="M307.73,-105.34C356.7,-82.83 452.53,-38.77 493.92,-19.74"/>
<polygon fill="#63b8ff" stroke="#63b8ff" points="306.46,-102.07 298.84,-109.43 309.39,-108.43 306.46,-102.07"/>
</a>
</g>
</g>
<!-- Node6 -->
<g id="Node000006" class="node">
<title>Node6</title>
<g id="a_Node000006"><a xlink:href="metasprite_8h.html" target="_top" xlink:title="Meta&#45;sprite ; an aggregate of sprites.">
<polygon fill="white" stroke="#666666" points="605.25,-74.5 502.25,-74.5 502.25,-55.25 605.25,-55.25 605.25,-74.5"/>
<text text-anchor="middle" x="553.75" y="-61" font-family="Helvetica,sans-Serif" font-size="10.00">include/metasprite.h</text>
</a>
</g>
</g>
<!-- Node5&#45;&gt;Node6 -->
<g id="edge5_Node000005_Node000006" class="edge">
<title>Node5&#45;&gt;Node6</title>
<g id="a_edge5_Node000005_Node000006"><a xlink:title=" ">
<path fill="none" stroke="#63b8ff" d="M325.71,-109.87C376.58,-100.06 456.43,-84.65 506.89,-74.92"/>
<polygon fill="#63b8ff" stroke="#63b8ff" points="325.33,-106.38 316.17,-111.71 326.65,-113.25 325.33,-106.38"/>
</a>
</g>
</g>
<!-- Node6&#45;&gt;Node4 -->
<g id="edge6_Node000006_Node000004" class="edge">
<title>Node6&#45;&gt;Node4</title>
<g id="a_edge6_Node000006_Node000004"><a xlink:title=" ">
<path fill="none" stroke="#63b8ff" d="M540.28,-45.94C533.63,-37.09 525.89,-26.79 520.5,-19.61"/>
<polygon fill="#63b8ff" stroke="#63b8ff" points="537.43,-47.98 546.24,-53.87 543.03,-43.77 537.43,-47.98"/>
</a>
</g>
</g>
<!-- Node7&#45;&gt;Node5 -->
<g id="edge9_Node000007_Node000005" class="edge">
<title>Node7&#45;&gt;Node5</title>
<g id="a_edge9_Node000007_Node000005"><a xlink:title=" ">
<path fill="none" stroke="#63b8ff" d="M218.96,-159.3C233.4,-149.92 251.5,-138.17 263.77,-130.2"/>
<polygon fill="#63b8ff" stroke="#63b8ff" points="217.41,-156.14 210.93,-164.52 221.22,-162.01 217.41,-156.14"/>
</a>
</g>
</g>
<!-- Node8&#45;&gt;Node4 -->
<g id="edge11_Node000008_Node000004" class="edge">
<title>Node8&#45;&gt;Node4</title>
<g id="a_edge11_Node000008_Node000004"><a xlink:title=" ">
<path fill="none" stroke="#63b8ff" d="M142.45,-213.43C128.77,-200.48 114.88,-181.88 124.75,-165.75 200.25,-42.32 393.43,-17.05 475.71,-11.91"/>
<polygon fill="#63b8ff" stroke="#63b8ff" points="139.76,-215.73 149.58,-219.7 144.38,-210.47 139.76,-215.73"/>
</a>
</g>
</g>
<!-- Node8&#45;&gt;Node5 -->
<g id="edge12_Node000008_Node000005" class="edge">
<title>Node8&#45;&gt;Node5</title>
<g id="a_edge12_Node000008_Node000005"><a xlink:title=" ">
<path fill="none" stroke="#63b8ff" d="M145.07,-212.42C133.41,-198.96 122.11,-180.16 132.75,-165.75 157.39,-132.38 206.6,-123.18 240.82,-121.04"/>
<polygon fill="#63b8ff" stroke="#63b8ff" points="142.48,-214.78 151.89,-219.67 147.58,-209.99 142.48,-214.78"/>
</a>
</g>
</g>
<!-- Node9&#45;&gt;Node3 -->
<g id="edge14_Node000009_Node000003" class="edge">
<title>Node9&#45;&gt;Node3</title>
<g id="a_edge14_Node000009_Node000003"><a xlink:title=" ">
<path fill="none" stroke="#63b8ff" d="M53.75,-264.92C55,-256.55 56.4,-247.25 57.4,-240.61"/>
<polygon fill="#63b8ff" stroke="#63b8ff" points="50.32,-264.18 52.3,-274.59 57.24,-265.22 50.32,-264.18"/>
</a>
</g>
</g>
<!-- Node10&#45;&gt;Node4 -->
<g id="edge16_Node000010_Node000004" class="edge">
<title>Node10&#45;&gt;Node4</title>
<g id="a_edge16_Node000010_Node000004"><a xlink:title=" ">
<path fill="none" stroke="#63b8ff" d="M365.17,-270.16C377.77,-262.33 392.51,-251.92 403.75,-240.25 467.2,-174.41 457.21,-139.07 493.75,-55.25 499.18,-42.8 505.63,-28.48 509.71,-19.49"/>
<polygon fill="#63b8ff" stroke="#63b8ff" points="363.71,-266.95 356.92,-275.09 367.3,-272.96 363.71,-266.95"/>
</a>
</g>
</g>
<!-- Node10&#45;&gt;Node5 -->
<g id="edge20_Node000010_Node000005" class="edge">
<title>Node10&#45;&gt;Node5</title>
<g id="a_edge20_Node000010_Node000005"><a xlink:title=" ">
<path fill="none" stroke="#63b8ff" d="M326.65,-266.43C321.87,-258.58 316.6,-249.2 312.75,-240.25 295.7,-200.65 283.93,-150.22 279.59,-130.05"/>
<polygon fill="#63b8ff" stroke="#63b8ff" points="323.58,-268.13 331.89,-274.7 329.5,-264.38 323.58,-268.13"/>
</a>
</g>
</g>
<!-- Node10&#45;&gt;Node7 -->
<g id="edge21_Node000010_Node000007" class="edge">
<title>Node10&#45;&gt;Node7</title>
<g id="a_edge21_Node000010_Node000007"><a xlink:title=" ">
<path fill="none" stroke="#63b8ff" d="M311.15,-270.36C296.57,-262.22 278.65,-251.47 263.75,-240.25 240.46,-222.71 216.3,-198.26 204.01,-185.28"/>
<polygon fill="#63b8ff" stroke="#63b8ff" points="309.31,-273.34 319.76,-275.06 312.67,-267.2 309.31,-273.34"/>
</a>
</g>
</g>
<!-- Node11 -->
<g id="Node000011" class="node">
<title>Node11</title>
<g id="a_Node000011"><a xlink:href="psg_8h.html" target="_top" xlink:title="Device interface for PSG (AY&#45;3&#45;8910) an internal sound chip.">
<polygon fill="white" stroke="#666666" points="394.25,-240.25 321.25,-240.25 321.25,-221 394.25,-221 394.25,-240.25"/>
<text text-anchor="middle" x="357.75" y="-226.75" font-family="Helvetica,sans-Serif" font-size="10.00">include/psg.h</text>
</a>
</g>
</g>
<!-- Node10&#45;&gt;Node11 -->
<g id="edge17_Node000010_Node000011" class="edge">
<title>Node10&#45;&gt;Node11</title>
<g id="a_edge17_Node000010_Node000011"><a xlink:title=" ">
<path fill="none" stroke="#63b8ff" d="M345.66,-265.5C348.7,-256.99 352.12,-247.4 354.54,-240.61"/>
<polygon fill="#63b8ff" stroke="#63b8ff" points="342.46,-264.06 342.4,-274.66 349.05,-266.41 342.46,-264.06"/>
</a>
</g>
</g>
<!-- Node13 -->
<g id="Node000013" class="node">
<title>Node13</title>
<g id="a_Node000013"><a xlink:href="vmem_8h.html" target="_top" xlink:title="Data types and functions for VRAM access.">
<polygon fill="white" stroke="#666666" points="746.88,-240.25 662.62,-240.25 662.62,-221 746.88,-221 746.88,-240.25"/>
<text text-anchor="middle" x="704.75" y="-226.75" font-family="Helvetica,sans-Serif" font-size="10.00">include/vmem.h</text>
</a>
</g>
</g>
<!-- Node10&#45;&gt;Node13 -->
<g id="edge22_Node000010_Node000013" class="edge">
<title>Node10&#45;&gt;Node13</title>
<g id="a_edge22_Node000010_Node000013"><a xlink:title=" ">
<path fill="none" stroke="#63b8ff" d="M382.74,-278.48C453.6,-268.16 592.17,-248 662.15,-237.82"/>
<polygon fill="#63b8ff" stroke="#63b8ff" points="382.44,-274.98 373.05,-279.88 383.45,-281.91 382.44,-274.98"/>
</a>
</g>
</g>
<!-- Node11&#45;&gt;Node4 -->
<g id="edge19_Node000011_Node000004" class="edge">
<title>Node11&#45;&gt;Node4</title>
<g id="a_edge19_Node000011_Node000004"><a xlink:title=" ">
<path fill="none" stroke="#63b8ff" d="M385.52,-214.67C397.22,-207.14 410.11,-197.04 418.75,-185 454.02,-135.87 425.95,-105.4 459.75,-55.25 469.95,-40.12 486.73,-27.4 498.89,-19.46"/>
<polygon fill="#63b8ff" stroke="#63b8ff" points="383.72,-211.66 376.97,-219.83 387.34,-217.66 383.72,-211.66"/>
</a>
</g>
</g>
<!-- Node12 -->
<g id="Node000012" class="node">
<title>Node12</title>
<g id="a_Node000012"><a xlink:href="ay__3__8910_8h.html" target="_top" xlink:title="Buffer for PSG (AY&#45;3&#45;8910) registers.">
<polygon fill="white" stroke="#666666" points="409.62,-185 305.88,-185 305.88,-165.75 409.62,-165.75 409.62,-185"/>
<text text-anchor="middle" x="357.75" y="-171.5" font-family="Helvetica,sans-Serif" font-size="10.00">include/ay_3_8910.h</text>
</a>
</g>
</g>
<!-- Node11&#45;&gt;Node12 -->
<g id="edge18_Node000011_Node000012" class="edge">
<title>Node11&#45;&gt;Node12</title>
<g id="a_edge18_Node000011_Node000012"><a xlink:title=" ">
<path fill="none" stroke="#63b8ff" d="M357.75,-209.38C357.75,-201.09 357.75,-191.92 357.75,-185.36"/>
<polygon fill="#63b8ff" stroke="#63b8ff" points="354.25,-209.32 357.75,-219.32 361.25,-209.32 354.25,-209.32"/>
</a>
</g>
</g>
<!-- Node13&#45;&gt;Node4 -->
<g id="edge33_Node000013_Node000004" class="edge">
<title>Node13&#45;&gt;Node4</title>
<g id="a_edge33_Node000013_Node000004"><a xlink:title=" ">
<path fill="none" stroke="#63b8ff" d="M681.9,-213.66C672.33,-205.97 661.82,-196.02 654.75,-185 622.16,-134.21 654.85,-100.34 614.75,-55.25 598.32,-36.77 572.8,-25.58 551.52,-19.03"/>
<polygon fill="#63b8ff" stroke="#63b8ff" points="679.69,-216.39 689.78,-219.65 683.93,-210.81 679.69,-216.39"/>
</a>
</g>
</g>
<!-- Node13&#45;&gt;Node5 -->
<g id="edge45_Node000013_Node000005" class="edge">
<title>Node13&#45;&gt;Node5</title>
<g id="a_edge45_Node000013_Node000005"><a xlink:title=" ">
<path fill="none" stroke="#63b8ff" d="M658.1,-217.77C572.2,-195.94 390.72,-149.83 313.62,-130.24"/>
<polygon fill="#63b8ff" stroke="#63b8ff" points="657.06,-221.12 667.61,-220.19 658.78,-214.33 657.06,-221.12"/>
</a>
</g>
</g>
<!-- Node13&#45;&gt;Node6 -->
<g id="edge32_Node000013_Node000006" class="edge">
<title>Node13&#45;&gt;Node6</title>
<g id="a_edge32_Node000013_Node000006"><a xlink:title=" ">
<path fill="none" stroke="#63b8ff" d="M667.73,-216.21C651.28,-208.89 632.55,-198.52 618.75,-185 584.58,-151.54 563.73,-96.24 556.56,-74.78"/>
<polygon fill="#63b8ff" stroke="#63b8ff" points="666.17,-219.35 676.75,-220 668.89,-212.9 666.17,-219.35"/>
</a>
</g>
</g>
<!-- Node13&#45;&gt;Node7 -->
<g id="edge46_Node000013_Node000007" class="edge">
<title>Node13&#45;&gt;Node7</title>
<g id="a_edge46_Node000013_Node000007"><a xlink:title=" ">
<path fill="none" stroke="#63b8ff" d="M650.86,-223.99C553.12,-213.76 347.72,-192.27 249.84,-182.03"/>
<polygon fill="#63b8ff" stroke="#63b8ff" points="650.41,-227.46 660.72,-225.02 651.14,-220.5 650.41,-227.46"/>
</a>
</g>
</g>
<!-- Node14 -->
<g id="Node000014" class="node">
<title>Node14</title>
<g id="a_Node000014"><a xlink:href="ZX0__decompress_8h.html" target="_top" xlink:title="Decompressor of the ZX0 data compression format version 2.">
<polygon fill="white" stroke="#666666" points="996.62,-129.75 862.88,-129.75 862.88,-110.5 996.62,-110.5 996.62,-129.75"/>
<text text-anchor="middle" x="929.75" y="-116.25" font-family="Helvetica,sans-Serif" font-size="10.00">include/ZX0_decompress.h</text>
</a>
</g>
</g>
<!-- Node13&#45;&gt;Node14 -->
<g id="edge23_Node000013_Node000014" class="edge">
<title>Node13&#45;&gt;Node14</title>
<g id="a_edge23_Node000013_Node000014"><a xlink:title=" ">
<path fill="none" stroke="#63b8ff" d="M733.63,-215.7C780.4,-193.14 871.46,-149.23 910.85,-130.24"/>
<polygon fill="#63b8ff" stroke="#63b8ff" points="732.4,-212.41 724.91,-219.9 735.44,-218.71 732.4,-212.41"/>
</a>
</g>
</g>
<!-- Node15 -->
<g id="Node000015" class="node">
<title>Node15</title>
<g id="a_Node000015"><a xlink:href="bmem_8h.html" target="_top" xlink:title="Data types and functions for accessing banked memory.">
<polygon fill="white" stroke="#666666" points="1105.88,-185 1021.62,-185 1021.62,-165.75 1105.88,-165.75 1105.88,-185"/>
<text text-anchor="middle" x="1063.75" y="-171.5" font-family="Helvetica,sans-Serif" font-size="10.00">include/bmem.h</text>
</a>
</g>
</g>
<!-- Node13&#45;&gt;Node15 -->
<g id="edge24_Node000013_Node000015" class="edge">
<title>Node13&#45;&gt;Node15</title>
<g id="a_edge24_Node000013_Node000015"><a xlink:title=" ">
<path fill="none" stroke="#63b8ff" d="M758.37,-221.67C830.05,-211.04 955.66,-192.41 1021.21,-182.68"/>
<polygon fill="#63b8ff" stroke="#63b8ff" points="758.22,-218.16 748.84,-223.09 759.24,-225.08 758.22,-218.16"/>
</a>
</g>
</g>
<!-- Node22 -->
<g id="Node000022" class="node">
<title>Node22</title>
<g id="a_Node000022"><a xlink:href="sm2__cfg_8h.html" target="_top" xlink:title="SM2 (Sprite Mode 2) Runtime configuration.">
<polygon fill="white" stroke="#666666" points="1222.12,-185 1127.38,-185 1127.38,-165.75 1222.12,-165.75 1222.12,-185"/>
<text text-anchor="middle" x="1174.75" y="-171.5" font-family="Helvetica,sans-Serif" font-size="10.00">include/sm2_cfg.h</text>
</a>
</g>
</g>
<!-- Node13&#45;&gt;Node22 -->
<g id="edge34_Node000013_Node000022" class="edge">
<title>Node13&#45;&gt;Node22</title>
<g id="a_edge34_Node000013_Node000022"><a xlink:title=" ">
<path fill="none" stroke="#63b8ff" d="M758.33,-224.39C836.69,-216.59 987.12,-201.11 1114.75,-185 1118.72,-184.5 1122.83,-183.96 1126.95,-183.4"/>
<polygon fill="#63b8ff" stroke="#63b8ff" points="758.42,-220.86 748.81,-225.33 759.11,-227.83 758.42,-220.86"/>
</a>
</g>
</g>
<!-- Node25 -->
<g id="Node000025" class="node">
<title>Node25</title>
<g id="a_Node000025"><a xlink:href="sprite_8h.html" target="_top" xlink:title="Sprites.">
<polygon fill="white" stroke="#666666" points="745.38,-185 664.12,-185 664.12,-165.75 745.38,-165.75 745.38,-185"/>
<text text-anchor="middle" x="704.75" y="-171.5" font-family="Helvetica,sans-Serif" font-size="10.00">include/sprite.h</text>
</a>
</g>
</g>
<!-- Node13&#45;&gt;Node25 -->
<g id="edge37_Node000013_Node000025" class="edge">
<title>Node13&#45;&gt;Node25</title>
<g id="a_edge37_Node000013_Node000025"><a xlink:title=" ">
<path fill="none" stroke="#63b8ff" d="M704.75,-209.38C704.75,-201.09 704.75,-191.92 704.75,-185.36"/>
<polygon fill="#63b8ff" stroke="#63b8ff" points="701.25,-209.32 704.75,-219.32 708.25,-209.32 701.25,-209.32"/>
</a>
</g>
</g>
<!-- Node26 -->
<g id="Node000026" class="node">
<title>Node26</title>
<g id="a_Node000026"><a xlink:href="sprite__color_8h.html" target="_top" xlink:title="Sprite color table interface.">
<polygon fill="white" stroke="#666666" points="844.5,-129.75 737,-129.75 737,-110.5 844.5,-110.5 844.5,-129.75"/>
<text text-anchor="middle" x="790.75" y="-116.25" font-family="Helvetica,sans-Serif" font-size="10.00">include/sprite_color.h</text>
</a>
</g>
</g>
<!-- Node13&#45;&gt;Node26 -->
<g id="edge44_Node000013_Node000026" class="edge">
<title>Node13&#45;&gt;Node26</title>
<g id="a_edge44_Node000013_Node000026"><a xlink:title=" ">
<path fill="none" stroke="#63b8ff" d="M725.79,-213.51C735.32,-205.57 746.32,-195.47 754.75,-185 769.12,-167.15 781.08,-142.82 786.91,-129.95"/>
<polygon fill="#63b8ff" stroke="#63b8ff" points="723.67,-210.73 718.07,-219.72 728.05,-216.18 723.67,-210.73"/>
</a>
</g>
</g>
<!-- Node27 -->
<g id="Node000027" class="node">
<title>Node27</title>
<g id="a_Node000027"><a xlink:href="vmem__rw_8h.html" target="_top" xlink:title="Stream like access functions for VRAM.">
<polygon fill="white" stroke="#666666" points="1344.75,-185 1244.75,-185 1244.75,-165.75 1344.75,-165.75 1344.75,-185"/>
<text text-anchor="middle" x="1294.75" y="-171.5" font-family="Helvetica,sans-Serif" font-size="10.00">include/vmem_rw.h</text>
</a>
</g>
</g>
<!-- Node13&#45;&gt;Node27 -->
<g id="edge47_Node000013_Node000027" class="edge">
<title>Node13&#45;&gt;Node27</title>
<g id="a_edge47_Node000013_Node000027"><a xlink:title=" ">
<path fill="none" stroke="#63b8ff" d="M758.43,-225.95C853.68,-219.23 1058.47,-203.91 1230.75,-185 1235.21,-184.51 1239.84,-183.96 1244.47,-183.39"/>
<polygon fill="#63b8ff" stroke="#63b8ff" points="758.33,-222.45 748.6,-226.64 758.82,-229.43 758.33,-222.45"/>
</a>
</g>
</g>
<!-- Node15&#45;&gt;Node14 -->
<g id="edge25_Node000015_Node000014" class="edge">
<title>Node15&#45;&gt;Node14</title>
<g id="a_edge25_Node000015_Node000014"><a xlink:title=" ">
<path fill="none" stroke="#63b8ff" d="M1030.5,-161.16C1006.25,-151.52 974,-138.71 952.59,-130.2"/>
<polygon fill="#63b8ff" stroke="#63b8ff" points="1029.03,-164.34 1039.61,-164.78 1031.61,-157.84 1029.03,-164.34"/>
</a>
</g>
</g>
<!-- Node16 -->
<g id="Node000016" class="node">
<title>Node16</title>
<g id="a_Node000016"><a xlink:href="bmem__rd_8h.html" target="_top" xlink:title="Stream like access functions for Banked Memory.">
<polygon fill="white" stroke="#666666" points="1112.62,-129.75 1014.88,-129.75 1014.88,-110.5 1112.62,-110.5 1112.62,-129.75"/>
<text text-anchor="middle" x="1063.75" y="-116.25" font-family="Helvetica,sans-Serif" font-size="10.00">include/bmem_rd.h</text>
</a>
</g>
</g>
<!-- Node15&#45;&gt;Node16 -->
<g id="edge26_Node000015_Node000016" class="edge">
<title>Node15&#45;&gt;Node16</title>
<g id="a_edge26_Node000015_Node000016"><a xlink:title=" ">
<path fill="none" stroke="#63b8ff" d="M1063.75,-154.13C1063.75,-145.84 1063.75,-136.67 1063.75,-130.11"/>
<polygon fill="#63b8ff" stroke="#63b8ff" points="1060.25,-154.07 1063.75,-164.07 1067.25,-154.07 1060.25,-154.07"/>
</a>
</g>
</g>
<!-- Node18 -->
<g id="Node000018" class="node">
<title>Node18</title>
<g id="a_Node000018"><a xlink:href="memfile_8h.html" target="_top" xlink:title="Stream interface for ROM / RAM / MegaROM.">
<polygon fill="white" stroke="#666666" points="1416.25,-129.75 1325.25,-129.75 1325.25,-110.5 1416.25,-110.5 1416.25,-129.75"/>
<text text-anchor="middle" x="1370.75" y="-116.25" font-family="Helvetica,sans-Serif" font-size="10.00">include/memfile.h</text>
</a>
</g>
</g>
<!-- Node15&#45;&gt;Node18 -->
<g id="edge28_Node000015_Node000018" class="edge">
<title>Node15&#45;&gt;Node18</title>
<g id="a_edge28_Node000015_Node000018"><a xlink:title=" ">
<path fill="none" stroke="#63b8ff" d="M1117.38,-165.07C1176.12,-154.88 1269.32,-138.72 1324.82,-129.09"/>
<polygon fill="#63b8ff" stroke="#63b8ff" points="1116.86,-161.61 1107.61,-166.77 1118.06,-168.51 1116.86,-161.61"/>
</a>
</g>
</g>
<!-- Node21 -->
<g id="Node000021" class="node">
<title>Node21</title>
<g id="a_Node000021"><a xlink:href="resources_8h.html" target="_top" xlink:title="Data types and functions for accessing embedded resources.">
<polygon fill="white" stroke="#666666" points="1230.75,-129.75 1130.75,-129.75 1130.75,-110.5 1230.75,-110.5 1230.75,-129.75"/>
<text text-anchor="middle" x="1180.75" y="-116.25" font-family="Helvetica,sans-Serif" font-size="10.00">include/resources.h</text>
</a>
</g>
</g>
<!-- Node15&#45;&gt;Node21 -->
<g id="edge31_Node000015_Node000021" class="edge">
<title>Node15&#45;&gt;Node21</title>
<g id="a_edge31_Node000015_Node000021"><a xlink:title=" ">
<path fill="none" stroke="#63b8ff" d="M1093.93,-160.64C1114.97,-151.06 1142.45,-138.56 1160.81,-130.2"/>
<polygon fill="#63b8ff" stroke="#63b8ff" points="1092.63,-157.39 1084.98,-164.71 1095.53,-163.76 1092.63,-157.39"/>
</a>
</g>
</g>
<!-- Node17 -->
<g id="Node000017" class="node">
<title>Node17</title>
<g id="a_Node000017"><a xlink:href="xmem_8h.html" target="_top" xlink:title="Inter&#45;memory transfer functions for ROM / RAM, VRAM, and Banked Memory (MegaROM).">
<polygon fill="white" stroke="#666666" points="1160.5,-74.5 1077,-74.5 1077,-55.25 1160.5,-55.25 1160.5,-74.5"/>
<text text-anchor="middle" x="1118.75" y="-61" font-family="Helvetica,sans-Serif" font-size="10.00">include/xmem.h</text>
</a>
</g>
</g>
<!-- Node16&#45;&gt;Node17 -->
<g id="edge27_Node000016_Node000017" class="edge">
<title>Node16&#45;&gt;Node17</title>
<g id="a_edge27_Node000016_Node000017"><a xlink:title=" ">
<path fill="none" stroke="#63b8ff" d="M1081.1,-102.32C1090.5,-93.23 1101.73,-82.35 1109.47,-74.86"/>
<polygon fill="#63b8ff" stroke="#63b8ff" points="1078.67,-99.81 1073.92,-109.28 1083.54,-104.84 1078.67,-99.81"/>
</a>
</g>
</g>
<!-- Node19 -->
<g id="Node000019" class="node">
<title>Node19</title>
<g id="a_Node000019"><a xlink:href="audio__buf_8h.html" target="_top" xlink:title="Unified sound&#45;chip buffer of the libmsx audio replayer.">
<polygon fill="white" stroke="#666666" points="1418.38,-74.5 1319.12,-74.5 1319.12,-55.25 1418.38,-55.25 1418.38,-74.5"/>
<text text-anchor="middle" x="1368.75" y="-61" font-family="Helvetica,sans-Serif" font-size="10.00">include/audio_buf.h</text>
</a>
</g>
</g>
<!-- Node18&#45;&gt;Node19 -->
<g id="edge29_Node000018_Node000019" class="edge">
<title>Node18&#45;&gt;Node19</title>
<g id="a_edge29_Node000018_Node000019"><a xlink:title=" ">
<path fill="none" stroke="#63b8ff" d="M1369.99,-98.88C1369.68,-90.59 1369.33,-81.42 1369.09,-74.86"/>
<polygon fill="#63b8ff" stroke="#63b8ff" points="1366.49,-98.96 1370.36,-108.82 1373.49,-98.7 1366.49,-98.96"/>
</a>
</g>
</g>
<!-- Node20 -->
<g id="Node000020" class="node">
<title>Node20</title>
<g id="a_Node000020"><a xlink:href="la0_8h.html" target="_top" xlink:title="The libmsx audio format 0 (LA0) decoder.">
<polygon fill="white" stroke="#666666" points="1300.75,-74.5 1230.75,-74.5 1230.75,-55.25 1300.75,-55.25 1300.75,-74.5"/>
<text text-anchor="middle" x="1265.75" y="-61" font-family="Helvetica,sans-Serif" font-size="10.00">include/la0.h</text>
</a>
</g>
</g>
<!-- Node18&#45;&gt;Node20 -->
<g id="edge30_Node000018_Node000020" class="edge">
<title>Node18&#45;&gt;Node20</title>
<g id="a_edge30_Node000018_Node000020"><a xlink:title=" ">
<path fill="none" stroke="#63b8ff" d="M1342.88,-104.99C1324.11,-95.47 1299.89,-83.19 1283.65,-74.95"/>
<polygon fill="#63b8ff" stroke="#63b8ff" points="1341.09,-108.01 1351.59,-109.41 1344.25,-101.76 1341.09,-108.01"/>
</a>
</g>
</g>
<!-- Node23 -->
<g id="Node000023" class="node">
<title>Node23</title>
<g id="a_Node000023"><a xlink:href="sm2_8h.html" target="_top" xlink:title="SM2 (Sprite Mode 2) Animated Color Sprites.">
<polygon fill="white" stroke="#666666" points="828.75,-74.5 752.75,-74.5 752.75,-55.25 828.75,-55.25 828.75,-74.5"/>
<text text-anchor="middle" x="790.75" y="-61" font-family="Helvetica,sans-Serif" font-size="10.00">include/sm2.h</text>
</a>
</g>
</g>
<!-- Node22&#45;&gt;Node23 -->
<g id="edge35_Node000022_Node000023" class="edge">
<title>Node22&#45;&gt;Node23</title>
<g id="a_edge35_Node000022_Node000023"><a xlink:title=" ">
<path fill="none" stroke="#63b8ff" d="M1206,-160.25C1229.8,-147.61 1255.94,-128.38 1239.75,-110.5 1212.37,-80.27 932.41,-69.69 828.93,-66.8"/>
<polygon fill="#63b8ff" stroke="#63b8ff" points="1204.46,-157.11 1197.09,-164.72 1207.6,-163.37 1204.46,-157.11"/>
</a>
</g>
</g>
<!-- Node24 -->
<g id="Node000024" class="node">
<title>Node24</title>
<g id="a_Node000024"><a xlink:href="sm2__bmem_8h.html" target="_top" xlink:title="SM2 (Sprite Mode 2) internal APIs for BMEM / Resources.">
<polygon fill="white" stroke="#666666" points="844.88,-19.25 736.62,-19.25 736.62,0 844.88,0 844.88,-19.25"/>
<text text-anchor="middle" x="790.75" y="-5.75" font-family="Helvetica,sans-Serif" font-size="10.00">include/sm2_bmem.h</text>
</a>
</g>
</g>
<!-- Node23&#45;&gt;Node24 -->
<g id="edge36_Node000023_Node000024" class="edge">
<title>Node23&#45;&gt;Node24</title>
<g id="a_edge36_Node000023_Node000024"><a xlink:title=" ">
<path fill="none" stroke="#63b8ff" d="M790.75,-43.63C790.75,-35.34 790.75,-26.17 790.75,-19.61"/>
<polygon fill="#63b8ff" stroke="#63b8ff" points="787.25,-43.57 790.75,-53.57 794.25,-43.57 787.25,-43.57"/>
</a>
</g>
</g>
<!-- Node25&#45;&gt;Node4 -->
<g id="edge39_Node000025_Node000004" class="edge">
<title>Node25&#45;&gt;Node4</title>
<g id="a_edge39_Node000025_Node000004"><a xlink:title=" ">
<path fill="none" stroke="#63b8ff" d="M700.41,-154.62C693.62,-128.3 678.03,-81.96 647.75,-55.25 620.91,-31.56 581.1,-20.38 551.84,-15.14"/>
<polygon fill="#63b8ff" stroke="#63b8ff" points="696.92,-155.07 702.64,-163.98 703.73,-153.45 696.92,-155.07"/>
</a>
</g>
</g>
<!-- Node25&#45;&gt;Node6 -->
<g id="edge38_Node000025_Node000006" class="edge">
<title>Node25&#45;&gt;Node6</title>
<g id="a_edge38_Node000025_Node000006"><a xlink:title=" ">
<path fill="none" stroke="#63b8ff" d="M683.12,-158.83C651.05,-135.79 591.92,-93.3 566.22,-74.84"/>
<polygon fill="#63b8ff" stroke="#63b8ff" points="680.74,-161.43 690.91,-164.43 684.83,-155.75 680.74,-161.43"/>
</a>
</g>
</g>
<!-- Node25&#45;&gt;Node23 -->
<g id="edge40_Node000025_Node000023" class="edge">
<title>Node25&#45;&gt;Node23</title>
<g id="a_edge40_Node000025_Node000023"><a xlink:title=" ">
<path fill="none" stroke="#63b8ff" d="M708.64,-154.37C712.01,-140.95 717.92,-123.43 727.75,-110.5 739.59,-94.92 758.42,-82.6 772.41,-74.88"/>
<polygon fill="#63b8ff" stroke="#63b8ff" points="705.3,-153.3 706.56,-163.82 712.13,-154.81 705.3,-153.3"/>
</a>
</g>
</g>
<!-- Node25&#45;&gt;Node26 -->
<g id="edge41_Node000025_Node000026" class="edge">
<title>Node25&#45;&gt;Node26</title>
<g id="a_edge41_Node000025_Node000026"><a xlink:title=" ">
<path fill="none" stroke="#63b8ff" d="M729.09,-159.3C744.24,-149.92 763.22,-138.17 776.09,-130.2"/>
<polygon fill="#63b8ff" stroke="#63b8ff" points="727.29,-156.3 720.63,-164.55 730.97,-162.26 727.29,-156.3"/>
</a>
</g>
</g>
<!-- Node26&#45;&gt;Node4 -->
<g id="edge42_Node000026_Node000004" class="edge">
<title>Node26&#45;&gt;Node4</title>
<g id="a_edge42_Node000026_Node000004"><a xlink:title=" ">
<path fill="none" stroke="#63b8ff" d="M769.45,-103.59C748.92,-89.25 716.51,-68.26 685.75,-55.25 641.43,-36.5 587.25,-24.03 551.69,-17.15"/>
<polygon fill="#63b8ff" stroke="#63b8ff" points="767.37,-106.4 777.54,-109.34 771.42,-100.69 767.37,-106.4"/>
</a>
</g>
</g>
<!-- Node26&#45;&gt;Node23 -->
<g id="edge43_Node000026_Node000023" class="edge">
<title>Node26&#45;&gt;Node23</title>
<g id="a_edge43_Node000026_Node000023"><a xlink:title=" ">
<path fill="none" stroke="#63b8ff" d="M790.75,-98.88C790.75,-90.59 790.75,-81.42 790.75,-74.86"/>
<polygon fill="#63b8ff" stroke="#63b8ff" points="787.25,-98.82 790.75,-108.82 794.25,-98.82 787.25,-98.82"/>
</a>
</g>
</g>
<!-- Node27&#45;&gt;Node17 -->
<g id="edge48_Node000027_Node000017" class="edge">
<title>Node27&#45;&gt;Node17</title>
<g id="a_edge48_Node000027_Node000017"><a xlink:title=" ">
<path fill="none" stroke="#63b8ff" d="M1292.74,-154.58C1290.29,-140.46 1284.84,-122.01 1272.75,-110.5 1242.6,-81.81 1195.15,-71.41 1160.88,-67.72"/>
<polygon fill="#63b8ff" stroke="#63b8ff" points="1289.22,-154.64 1294.02,-164.09 1296.16,-153.71 1289.22,-154.64"/>
</a>
</g>
</g>
</g>
</svg>
