<?xml version="1.0" encoding="UTF-8" standalone="no"?>
<!DOCTYPE svg PUBLIC "-//W3C//DTD SVG 1.1//EN"
 "http://www.w3.org/Graphics/SVG/1.1/DTD/svg11.dtd">
<!-- Generated by graphviz version 7.0.5 (20221223.1930)
 -->
<!-- Title: include/config.h Pages: 1 -->
<svg width="1282pt" height="357pt"
 viewBox="0.00 0.00 1282.00 357.00" xmlns="http://www.w3.org/2000/svg" xmlns:xlink="http://www.w3.org/1999/xlink">
<g id="graph0" class="graph" transform="scale(1 1) rotate(0) translate(4 353)">
<title>include/config.h</title>
<!-- Node1 -->
<g id="node1" class="node">
<title>Node1</title>
<g id="a_node1"><a xlink:title="Hack for C Compiler portability.">
<polygon fill="#999999" stroke="#666666" points="1178.5,-349 1095.5,-349 1095.5,-330 1178.5,-330 1178.5,-349"/>
<text text-anchor="middle" x="1137" y="-337" font-family="Helvetica,sans-Serif" font-size="10.00">include/config.h</text>
</a>
</g>
</g>
<!-- Node2 -->
<g id="node2" class="node">
<title>Node2</title>
<g id="a_node2"><a xlink:href="bios__const_8h.html" target="_top" xlink:title="Constant variables in the MSX BIOS ROM.">
<polygon fill="white" stroke="#666666" points="1189.5,-294 1084.5,-294 1084.5,-275 1189.5,-275 1189.5,-294"/>
<text text-anchor="middle" x="1137" y="-282" font-family="Helvetica,sans-Serif" font-size="10.00">include/bios_const.h</text>
</a>
</g>
</g>
<!-- Node1&#45;&gt;Node2 -->
<g id="edge1" class="edge">
<title>Node1&#45;&gt;Node2</title>
<path fill="none" stroke="#63b8ff" d="M1137,-318.35C1137,-310.1 1137,-300.97 1137,-294.44"/>
<polygon fill="#63b8ff" stroke="#63b8ff" points="1133.5,-318.23 1137,-328.23 1140.5,-318.23 1133.5,-318.23"/>
</g>
<!-- Node4 -->
<g id="node4" class="node">
<title>Node4</title>
<g id="a_node4"><a xlink:href="msx_8h.html" target="_top" xlink:title="Using #include &lt;msx.h&gt; includes almost all C header files in libmsx, for ease to use.">
<polygon fill="white" stroke="#666666" points="887,-19 811,-19 811,0 887,0 887,-19"/>
<text text-anchor="middle" x="849" y="-7" font-family="Helvetica,sans-Serif" font-size="10.00">include/msx.h</text>
</a>
</g>
</g>
<!-- Node1&#45;&gt;Node4 -->
<g id="edge43" class="edge">
<title>Node1&#45;&gt;Node4</title>
<path fill="none" stroke="#63b8ff" d="M1178.07,-325.66C1218.42,-310.17 1274,-279.88 1274,-230.5 1274,-230.5 1274,-230.5 1274,-118.5 1274,-39.13 992.08,-17.41 887.47,-12.08"/>
<polygon fill="#63b8ff" stroke="#63b8ff" points="1177.02,-322.31 1168.83,-329.03 1179.42,-328.89 1177.02,-322.31"/>
</g>
<!-- Node8 -->
<g id="node8" class="node">
<title>Node8</title>
<g id="a_node8"><a xlink:href="workarea_8h.html" target="_top" xlink:title="Definitions of MSX SYSTEM Workarea.">
<polygon fill="white" stroke="#666666" points="1246,-239 1148,-239 1148,-220 1246,-220 1246,-239"/>
<text text-anchor="middle" x="1197" y="-227" font-family="Helvetica,sans-Serif" font-size="10.00">include/workarea.h</text>
</a>
</g>
</g>
<!-- Node1&#45;&gt;Node8 -->
<g id="edge44" class="edge">
<title>Node1&#45;&gt;Node8</title>
<path fill="none" stroke="#63b8ff" d="M1167.82,-323.94C1179.49,-316.71 1191.52,-306.74 1198,-294 1206.99,-276.31 1202.85,-252.1 1199.59,-239.29"/>
<polygon fill="#63b8ff" stroke="#63b8ff" points="1166.1,-320.89 1159.12,-328.86 1169.55,-326.99 1166.1,-320.89"/>
</g>
<!-- Node9 -->
<g id="node9" class="node">
<title>Node9</title>
<g id="a_node9"><a xlink:href="bios__entry_8h.html" target="_top" xlink:title="Assembler entry points for MSX BIOS functions.">
<polygon fill="white" stroke="#666666" points="1066,-294 964,-294 964,-275 1066,-275 1066,-294"/>
<text text-anchor="middle" x="1015" y="-282" font-family="Helvetica,sans-Serif" font-size="10.00">include/bios_entry.h</text>
</a>
</g>
</g>
<!-- Node1&#45;&gt;Node9 -->
<g id="edge13" class="edge">
<title>Node1&#45;&gt;Node9</title>
<path fill="none" stroke="#63b8ff" d="M1105.76,-324.93C1083.64,-315.32 1054.59,-302.7 1035.39,-294.36"/>
<polygon fill="#63b8ff" stroke="#63b8ff" points="1104.35,-328.13 1114.92,-328.91 1107.14,-321.71 1104.35,-328.13"/>
</g>
<!-- Node10 -->
<g id="node10" class="node">
<title>Node10</title>
<g id="a_node10"><a xlink:href="io_8h.html" target="_top" xlink:title="Definition of I/O ports.">
<polygon fill="white" stroke="#666666" points="886.5,-294 821.5,-294 821.5,-275 886.5,-275 886.5,-294"/>
<text text-anchor="middle" x="854" y="-282" font-family="Helvetica,sans-Serif" font-size="10.00">include/io.h</text>
</a>
</g>
</g>
<!-- Node1&#45;&gt;Node10 -->
<g id="edge15" class="edge">
<title>Node1&#45;&gt;Node10</title>
<path fill="none" stroke="#63b8ff" d="M1084.12,-328.6C1026.17,-317.74 935.02,-300.67 886.67,-291.62"/>
<polygon fill="#63b8ff" stroke="#63b8ff" points="1083.28,-332 1093.75,-330.4 1084.57,-325.12 1083.28,-332"/>
</g>
<!-- Node3 -->
<g id="node3" class="node">
<title>Node3</title>
<g id="a_node3"><a xlink:href="bios_8h.html" target="_top" xlink:title="C language I/F for MSX BIOS routines.">
<polygon fill="white" stroke="#666666" points="1130,-239 1054,-239 1054,-220 1130,-220 1130,-239"/>
<text text-anchor="middle" x="1092" y="-227" font-family="Helvetica,sans-Serif" font-size="10.00">include/bios.h</text>
</a>
</g>
</g>
<!-- Node2&#45;&gt;Node3 -->
<g id="edge2" class="edge">
<title>Node2&#45;&gt;Node3</title>
<path fill="none" stroke="#63b8ff" d="M1122.32,-266.22C1114.74,-257.28 1105.79,-246.74 1099.59,-239.44"/>
<polygon fill="#63b8ff" stroke="#63b8ff" points="1119.45,-268.24 1128.59,-273.59 1124.79,-263.71 1119.45,-268.24"/>
</g>
<!-- Node2&#45;&gt;Node8 -->
<g id="edge10" class="edge">
<title>Node2&#45;&gt;Node8</title>
<path fill="none" stroke="#63b8ff" d="M1155.58,-267.09C1165.94,-257.94 1178.43,-246.9 1186.97,-239.36"/>
<polygon fill="#63b8ff" stroke="#63b8ff" points="1153.49,-264.26 1148.31,-273.51 1158.12,-269.51 1153.49,-264.26"/>
</g>
<!-- Node3&#45;&gt;Node4 -->
<g id="edge3" class="edge">
<title>Node3&#45;&gt;Node4</title>
<path fill="none" stroke="#63b8ff" d="M1093.9,-208.39C1094.21,-195.18 1092.73,-178.01 1085,-165 1036.96,-84.17 928.23,-37.68 876.87,-19.49"/>
<polygon fill="#63b8ff" stroke="#63b8ff" points="1090.43,-207.86 1093.31,-218.06 1097.42,-208.3 1090.43,-207.86"/>
</g>
<!-- Node5 -->
<g id="node5" class="node">
<title>Node5</title>
<g id="a_node5"><a xlink:href="vdp_8h.html" target="_top" xlink:title="Data types and functions for VDP (Video Display Proccessor) access.">
<polygon fill="white" stroke="#666666" points="992,-129 918,-129 918,-110 992,-110 992,-129"/>
<text text-anchor="middle" x="955" y="-117" font-family="Helvetica,sans-Serif" font-size="10.00">include/vdp.h</text>
</a>
</g>
</g>
<!-- Node3&#45;&gt;Node5 -->
<g id="edge4" class="edge">
<title>Node3&#45;&gt;Node5</title>
<path fill="none" stroke="#63b8ff" d="M1087.61,-209.13C1083.57,-195.24 1076.29,-176.96 1064,-165 1044.37,-145.9 1015.42,-134.61 992.29,-128.18"/>
<polygon fill="#63b8ff" stroke="#63b8ff" points="1084.13,-209.64 1090,-218.46 1090.91,-207.9 1084.13,-209.64"/>
</g>
<!-- Node7 -->
<g id="node7" class="node">
<title>Node7</title>
<g id="a_node7"><a xlink:href="vdp__unsafe_8h.html" target="_top" xlink:title="Unsafe primitive functions for VDP (Video Display Proccessor) access.">
<polygon fill="white" stroke="#666666" points="862,-184 754,-184 754,-165 862,-165 862,-184"/>
<text text-anchor="middle" x="808" y="-172" font-family="Helvetica,sans-Serif" font-size="10.00">include/vdp_unsafe.h</text>
</a>
</g>
</g>
<!-- Node3&#45;&gt;Node7 -->
<g id="edge8" class="edge">
<title>Node3&#45;&gt;Node7</title>
<path fill="none" stroke="#63b8ff" d="M1042.67,-219.29C990.29,-209.52 908.03,-194.17 856.11,-184.48"/>
<polygon fill="#63b8ff" stroke="#63b8ff" points="1041.74,-222.68 1052.21,-221.07 1043.02,-215.8 1041.74,-222.68"/>
</g>
<!-- Node5&#45;&gt;Node4 -->
<g id="edge7" class="edge">
<title>Node5&#45;&gt;Node4</title>
<path fill="none" stroke="#63b8ff" d="M942.39,-100.8C932.6,-87.57 918.32,-69.37 904,-55 890.48,-41.43 873.01,-27.87 861.43,-19.35"/>
<polygon fill="#63b8ff" stroke="#63b8ff" points="939.33,-102.54 948.04,-108.58 945,-98.43 939.33,-102.54"/>
</g>
<!-- Node6 -->
<g id="node6" class="node">
<title>Node6</title>
<g id="a_node6"><a xlink:href="metasprite_8h.html" target="_top" xlink:title="Meta&#45;sprite ; an aggregate of sprites.">
<polygon fill="white" stroke="#666666" points="698,-74 594,-74 594,-55 698,-55 698,-74"/>
<text text-anchor="middle" x="646" y="-62" font-family="Helvetica,sans-Serif" font-size="10.00">include/metasprite.h</text>
</a>
</g>
</g>
<!-- Node5&#45;&gt;Node6 -->
<g id="edge5" class="edge">
<title>Node5&#45;&gt;Node6</title>
<path fill="none" stroke="#63b8ff" d="M906.57,-110.19C849.96,-100.48 756.62,-84.47 698.37,-74.48"/>
<polygon fill="#63b8ff" stroke="#63b8ff" points="905.79,-113.61 916.24,-111.85 906.97,-106.71 905.79,-113.61"/>
</g>
<!-- Node6&#45;&gt;Node4 -->
<g id="edge6" class="edge">
<title>Node6&#45;&gt;Node4</title>
<path fill="none" stroke="#63b8ff" d="M691.51,-51.62C728.84,-41.87 780.86,-28.29 814.73,-19.45"/>
<polygon fill="#63b8ff" stroke="#63b8ff" points="690.69,-48.21 681.9,-54.13 692.46,-54.99 690.69,-48.21"/>
</g>
<!-- Node7&#45;&gt;Node5 -->
<g id="edge9" class="edge">
<title>Node7&#45;&gt;Node5</title>
<path fill="none" stroke="#63b8ff" d="M843.47,-160.71C870.37,-151.01 906.66,-137.93 930.43,-129.36"/>
<polygon fill="#63b8ff" stroke="#63b8ff" points="842.58,-157.31 834.36,-164 844.95,-163.9 842.58,-157.31"/>
</g>
<!-- Node8&#45;&gt;Node4 -->
<g id="edge11" class="edge">
<title>Node8&#45;&gt;Node4</title>
<path fill="none" stroke="#63b8ff" d="M1181.82,-211.54C1149.73,-176.76 1071.22,-97.12 989,-55 956.43,-38.31 916.38,-26.35 887.48,-19.06"/>
<polygon fill="#63b8ff" stroke="#63b8ff" points="1178.93,-213.57 1188.25,-218.61 1184.11,-208.86 1178.93,-213.57"/>
</g>
<!-- Node8&#45;&gt;Node5 -->
<g id="edge12" class="edge">
<title>Node8&#45;&gt;Node5</title>
<path fill="none" stroke="#63b8ff" d="M1173.75,-213.62C1151.55,-199.82 1116.85,-179.33 1085,-165 1052.26,-150.27 1013.08,-137.48 986.36,-129.44"/>
<polygon fill="#63b8ff" stroke="#63b8ff" points="1171.68,-216.46 1182.01,-218.81 1175.41,-210.53 1171.68,-216.46"/>
</g>
<!-- Node9&#45;&gt;Node3 -->
<g id="edge14" class="edge">
<title>Node9&#45;&gt;Node3</title>
<path fill="none" stroke="#63b8ff" d="M1037.25,-268.19C1050.83,-258.84 1067.73,-247.21 1079.13,-239.36"/>
<polygon fill="#63b8ff" stroke="#63b8ff" points="1035.56,-265.1 1029.31,-273.65 1039.53,-270.86 1035.56,-265.1"/>
</g>
<!-- Node10&#45;&gt;Node4 -->
<g id="edge16" class="edge">
<title>Node10&#45;&gt;Node4</title>
<path fill="none" stroke="#63b8ff" d="M809.72,-282.61C634.6,-278.51 0,-257.95 0,-175.5 0,-175.5 0,-175.5 0,-118.5 0,-68.08 46.25,-71.17 94,-55 228.78,-9.36 676.56,-9.1 810.7,-10.1"/>
<polygon fill="#63b8ff" stroke="#63b8ff" points="809.46,-286.1 819.53,-282.83 809.61,-279.1 809.46,-286.1"/>
</g>
<!-- Node10&#45;&gt;Node5 -->
<g id="edge20" class="edge">
<title>Node10&#45;&gt;Node5</title>
<path fill="none" stroke="#63b8ff" d="M897.6,-272.79C940.23,-259.73 1002.71,-233.06 1031,-184 1045.26,-159.27 1009.07,-139.91 981.86,-129.36"/>
<polygon fill="#63b8ff" stroke="#63b8ff" points="896.77,-269.39 888.15,-275.55 898.73,-276.11 896.77,-269.39"/>
</g>
<!-- Node10&#45;&gt;Node7 -->
<g id="edge21" class="edge">
<title>Node10&#45;&gt;Node7</title>
<path fill="none" stroke="#63b8ff" d="M845.79,-264.22C835.77,-240.69 819.24,-201.89 811.82,-184.46"/>
<polygon fill="#63b8ff" stroke="#63b8ff" points="842.5,-265.44 849.64,-273.27 848.94,-262.7 842.5,-265.44"/>
</g>
<!-- Node11 -->
<g id="node11" class="node">
<title>Node11</title>
<g id="a_node11"><a xlink:href="psg_8h.html" target="_top" xlink:title="Device interface for PSG (AY&#45;3&#45;8910) an internal sound chip.">
<polygon fill="white" stroke="#666666" points="927,-239 853,-239 853,-220 927,-220 927,-239"/>
<text text-anchor="middle" x="890" y="-227" font-family="Helvetica,sans-Serif" font-size="10.00">include/psg.h</text>
</a>
</g>
</g>
<!-- Node10&#45;&gt;Node11 -->
<g id="edge17" class="edge">
<title>Node10&#45;&gt;Node11</title>
<path fill="none" stroke="#63b8ff" d="M866.32,-265.36C872.26,-256.62 879.12,-246.51 883.93,-239.44"/>
<polygon fill="#63b8ff" stroke="#63b8ff" points="863.52,-263.26 860.8,-273.5 869.31,-267.19 863.52,-263.26"/>
</g>
<!-- Node13 -->
<g id="node13" class="node">
<title>Node13</title>
<g id="a_node13"><a xlink:href="vmem_8h.html" target="_top" xlink:title="Data types and functions for VRAM access.">
<polygon fill="white" stroke="#666666" points="673.5,-239 588.5,-239 588.5,-220 673.5,-220 673.5,-239"/>
<text text-anchor="middle" x="631" y="-227" font-family="Helvetica,sans-Serif" font-size="10.00">include/vmem.h</text>
</a>
</g>
</g>
<!-- Node10&#45;&gt;Node13 -->
<g id="edge22" class="edge">
<title>Node10&#45;&gt;Node13</title>
<path fill="none" stroke="#63b8ff" d="M810.01,-273.04C768.7,-263.23 707.57,-248.7 668.51,-239.42"/>
<polygon fill="#63b8ff" stroke="#63b8ff" points="809.08,-276.42 819.62,-275.33 810.7,-269.61 809.08,-276.42"/>
</g>
<!-- Node11&#45;&gt;Node4 -->
<g id="edge19" class="edge">
<title>Node11&#45;&gt;Node4</title>
<path fill="none" stroke="#63b8ff" d="M890.05,-208.49C889.65,-175.74 886.75,-108.92 871,-55 867.18,-41.93 859.7,-28.04 854.53,-19.32"/>
<polygon fill="#63b8ff" stroke="#63b8ff" points="886.55,-208.13 890.1,-218.11 893.55,-208.09 886.55,-208.13"/>
</g>
<!-- Node12 -->
<g id="node12" class="node">
<title>Node12</title>
<g id="a_node12"><a xlink:href="ay__3__8910_8h.html" target="_top" xlink:title="Buffer for PSG (AY&#45;3&#45;8910) registers.">
<polygon fill="white" stroke="#666666" points="1022,-184 918,-184 918,-165 1022,-165 1022,-184"/>
<text text-anchor="middle" x="970" y="-172" font-family="Helvetica,sans-Serif" font-size="10.00">include/ay_3_8910.h</text>
</a>
</g>
</g>
<!-- Node11&#45;&gt;Node12 -->
<g id="edge18" class="edge">
<title>Node11&#45;&gt;Node12</title>
<path fill="none" stroke="#63b8ff" d="M913.11,-213.19C927.23,-203.84 944.78,-192.21 956.63,-184.36"/>
<polygon fill="#63b8ff" stroke="#63b8ff" points="911.24,-210.23 904.83,-218.67 915.1,-216.07 911.24,-210.23"/>
</g>
<!-- Node13&#45;&gt;Node4 -->
<g id="edge32" class="edge">
<title>Node13&#45;&gt;Node4</title>
<path fill="none" stroke="#63b8ff" d="M576.75,-226.92C422.44,-221.33 -4.07,-197.84 57,-110 97.06,-52.38 136.4,-69.79 205,-55 321.81,-29.81 690.89,-15.71 810.89,-11.7"/>
<polygon fill="#63b8ff" stroke="#63b8ff" points="576.62,-230.41 586.73,-227.26 576.86,-223.42 576.62,-230.41"/>
</g>
<!-- Node13&#45;&gt;Node5 -->
<g id="edge39" class="edge">
<title>Node13&#45;&gt;Node5</title>
<path fill="none" stroke="#63b8ff" d="M653.6,-213.22C675.92,-198.8 711.49,-177.56 745,-165 803.28,-143.16 874.89,-130.88 917.64,-124.98"/>
<polygon fill="#63b8ff" stroke="#63b8ff" points="651.75,-210.25 645.32,-218.67 655.6,-216.1 651.75,-210.25"/>
</g>
<!-- Node13&#45;&gt;Node6 -->
<g id="edge31" class="edge">
<title>Node13&#45;&gt;Node6</title>
<path fill="none" stroke="#63b8ff" d="M629.01,-208.17C627.15,-184.44 625.41,-144.09 631,-110 633.08,-97.29 638.31,-83.32 642,-74.48"/>
<polygon fill="#63b8ff" stroke="#63b8ff" points="625.52,-208.34 629.88,-217.99 632.49,-207.72 625.52,-208.34"/>
</g>
<!-- Node13&#45;&gt;Node7 -->
<g id="edge40" class="edge">
<title>Node13&#45;&gt;Node7</title>
<path fill="none" stroke="#63b8ff" d="M671.95,-216.24C704.4,-206.52 748.97,-193.18 778.12,-184.45"/>
<polygon fill="#63b8ff" stroke="#63b8ff" points="671.05,-212.85 662.48,-219.08 673.06,-219.56 671.05,-212.85"/>
</g>
<!-- Node14 -->
<g id="node14" class="node">
<title>Node14</title>
<g id="a_node14"><a xlink:href="ZX0__decompress_8h.html" target="_top" xlink:title="Decompressor of the ZX0 data compression format version 2.">
<polygon fill="white" stroke="#666666" points="200,-129 66,-129 66,-110 200,-110 200,-129"/>
<text text-anchor="middle" x="133" y="-117" font-family="Helvetica,sans-Serif" font-size="10.00">include/ZX0_decompress.h</text>
</a>
</g>
</g>
<!-- Node13&#45;&gt;Node14 -->
<g id="edge23" class="edge">
<title>Node13&#45;&gt;Node14</title>
<path fill="none" stroke="#63b8ff" d="M576.71,-223.38C515.49,-216.96 413.22,-204.26 327,-184 263.87,-169.16 191.86,-143.09 155.93,-129.43"/>
<polygon fill="#63b8ff" stroke="#63b8ff" points="576.21,-226.85 586.52,-224.39 576.93,-219.89 576.21,-226.85"/>
</g>
<!-- Node15 -->
<g id="node15" class="node">
<title>Node15</title>
<g id="a_node15"><a xlink:href="bmem_8h.html" target="_top" xlink:title="Data types and functions for accessing banked memory.">
<polygon fill="white" stroke="#666666" points="421.5,-184 336.5,-184 336.5,-165 421.5,-165 421.5,-184"/>
<text text-anchor="middle" x="379" y="-172" font-family="Helvetica,sans-Serif" font-size="10.00">include/bmem.h</text>
</a>
</g>
</g>
<!-- Node13&#45;&gt;Node15 -->
<g id="edge24" class="edge">
<title>Node13&#45;&gt;Node15</title>
<path fill="none" stroke="#63b8ff" d="M577.18,-217.18C530.68,-207.4 464.4,-193.46 421.54,-184.45"/>
<polygon fill="#63b8ff" stroke="#63b8ff" points="576.26,-220.56 586.77,-219.2 577.7,-213.71 576.26,-220.56"/>
</g>
<!-- Node21 -->
<g id="node21" class="node">
<title>Node21</title>
<g id="a_node21"><a xlink:href="sprite_8h.html" target="_top" xlink:title="Sprites.">
<polygon fill="white" stroke="#666666" points="722,-129 640,-129 640,-110 722,-110 722,-129"/>
<text text-anchor="middle" x="681" y="-117" font-family="Helvetica,sans-Serif" font-size="10.00">include/sprite.h</text>
</a>
</g>
</g>
<!-- Node13&#45;&gt;Node21 -->
<g id="edge33" class="edge">
<title>Node13&#45;&gt;Node21</title>
<path fill="none" stroke="#63b8ff" d="M639.93,-209.22C650.82,-185.69 668.78,-146.89 676.85,-129.46"/>
<polygon fill="#63b8ff" stroke="#63b8ff" points="636.75,-207.74 635.73,-218.29 643.11,-210.68 636.75,-207.74"/>
</g>
<!-- Node22 -->
<g id="node22" class="node">
<title>Node22</title>
<g id="a_node22"><a xlink:href="sprite__color_8h.html" target="_top" xlink:title="Sprite color table interface.">
<polygon fill="white" stroke="#666666" points="862,-74 754,-74 754,-55 862,-55 862,-74"/>
<text text-anchor="middle" x="808" y="-62" font-family="Helvetica,sans-Serif" font-size="10.00">include/sprite_color.h</text>
</a>
</g>
</g>
<!-- Node13&#45;&gt;Node22 -->
<g id="edge38" class="edge">
<title>Node13&#45;&gt;Node22</title>
<path fill="none" stroke="#63b8ff" d="M649.17,-211.77C686.39,-177.49 770.2,-100.31 798.48,-74.27"/>
<polygon fill="#63b8ff" stroke="#63b8ff" points="646.87,-209.13 641.88,-218.48 651.61,-214.28 646.87,-209.13"/>
</g>
<!-- Node23 -->
<g id="node23" class="node">
<title>Node23</title>
<g id="a_node23"><a xlink:href="vmem__rw_8h.html" target="_top" xlink:title="Stream like access functions for VRAM.">
<polygon fill="white" stroke="#666666" points="583.5,-184 482.5,-184 482.5,-165 583.5,-165 583.5,-184"/>
<text text-anchor="middle" x="533" y="-172" font-family="Helvetica,sans-Serif" font-size="10.00">include/vmem_rw.h</text>
</a>
</g>
</g>
<!-- Node13&#45;&gt;Node23 -->
<g id="edge41" class="edge">
<title>Node13&#45;&gt;Node23</title>
<path fill="none" stroke="#63b8ff" d="M604.68,-214.27C587.08,-204.74 564.45,-192.51 549.38,-184.36"/>
<polygon fill="#63b8ff" stroke="#63b8ff" points="602.58,-217.11 613.04,-218.79 605.91,-210.95 602.58,-217.11"/>
</g>
<!-- Node15&#45;&gt;Node14 -->
<g id="edge25" class="edge">
<title>Node15&#45;&gt;Node14</title>
<path fill="none" stroke="#63b8ff" d="M326.17,-162.12C280.8,-152.34 216.28,-138.44 174.52,-129.45"/>
<polygon fill="#63b8ff" stroke="#63b8ff" points="325.28,-165.51 335.79,-164.19 326.75,-158.66 325.28,-165.51"/>
</g>
<!-- Node16 -->
<g id="node16" class="node">
<title>Node16</title>
<g id="a_node16"><a xlink:href="bmem__rd_8h.html" target="_top" xlink:title="Stream like access functions for Banked Memory.">
<polygon fill="white" stroke="#666666" points="546,-129 448,-129 448,-110 546,-110 546,-129"/>
<text text-anchor="middle" x="497" y="-117" font-family="Helvetica,sans-Serif" font-size="10.00">include/bmem_rd.h</text>
</a>
</g>
</g>
<!-- Node15&#45;&gt;Node16 -->
<g id="edge26" class="edge">
<title>Node15&#45;&gt;Node16</title>
<path fill="none" stroke="#63b8ff" d="M409.51,-159.8C430.87,-150.2 458.79,-137.66 477.28,-129.36"/>
<polygon fill="#63b8ff" stroke="#63b8ff" points="408.09,-156.6 400.4,-163.89 410.95,-162.98 408.09,-156.6"/>
</g>
<!-- Node18 -->
<g id="node18" class="node">
<title>Node18</title>
<g id="a_node18"><a xlink:href="memfile_8h.html" target="_top" xlink:title="Stream interface for ROM / RAM / MegaROM.">
<polygon fill="white" stroke="#666666" points="310,-129 218,-129 218,-110 310,-110 310,-129"/>
<text text-anchor="middle" x="264" y="-117" font-family="Helvetica,sans-Serif" font-size="10.00">include/memfile.h</text>
</a>
</g>
</g>
<!-- Node15&#45;&gt;Node18 -->
<g id="edge28" class="edge">
<title>Node15&#45;&gt;Node18</title>
<path fill="none" stroke="#63b8ff" d="M349.27,-159.8C328.45,-150.2 301.24,-137.66 283.22,-129.36"/>
<polygon fill="#63b8ff" stroke="#63b8ff" points="347.57,-162.87 358.12,-163.88 350.5,-156.51 347.57,-162.87"/>
</g>
<!-- Node20 -->
<g id="node20" class="node">
<title>Node20</title>
<g id="a_node20"><a xlink:href="resources_8h.html" target="_top" xlink:title="Data types and functions for accessing embedded resources.">
<polygon fill="white" stroke="#666666" points="429.5,-129 328.5,-129 328.5,-110 429.5,-110 429.5,-129"/>
<text text-anchor="middle" x="379" y="-117" font-family="Helvetica,sans-Serif" font-size="10.00">include/resources.h</text>
</a>
</g>
</g>
<!-- Node15&#45;&gt;Node20 -->
<g id="edge30" class="edge">
<title>Node15&#45;&gt;Node20</title>
<path fill="none" stroke="#63b8ff" d="M379,-153.35C379,-145.1 379,-135.97 379,-129.44"/>
<polygon fill="#63b8ff" stroke="#63b8ff" points="375.5,-153.23 379,-163.23 382.5,-153.23 375.5,-153.23"/>
</g>
<!-- Node17 -->
<g id="node17" class="node">
<title>Node17</title>
<g id="a_node17"><a xlink:href="xmem_8h.html" target="_top" xlink:title="Inter&#45;memory transfer functions for ROM / RAM, VRAM, and Banked Memory (MegaROM).">
<polygon fill="white" stroke="#666666" points="557,-74 473,-74 473,-55 557,-55 557,-74"/>
<text text-anchor="middle" x="515" y="-62" font-family="Helvetica,sans-Serif" font-size="10.00">include/xmem.h</text>
</a>
</g>
</g>
<!-- Node16&#45;&gt;Node17 -->
<g id="edge27" class="edge">
<title>Node16&#45;&gt;Node17</title>
<path fill="none" stroke="#63b8ff" d="M503.65,-98.93C506.5,-90.53 509.69,-81.13 511.96,-74.44"/>
<polygon fill="#63b8ff" stroke="#63b8ff" points="500.36,-97.72 500.46,-108.31 506.99,-99.97 500.36,-97.72"/>
</g>
<!-- Node19 -->
<g id="node19" class="node">
<title>Node19</title>
<g id="a_node19"><a xlink:href="audio__buf_8h.html" target="_top" xlink:title="Unified sound&#45;chip buffer of the libmsx audio replayer.">
<polygon fill="white" stroke="#666666" points="314,-74 214,-74 214,-55 314,-55 314,-74"/>
<text text-anchor="middle" x="264" y="-62" font-family="Helvetica,sans-Serif" font-size="10.00">include/audio_buf.h</text>
</a>
</g>
</g>
<!-- Node18&#45;&gt;Node19 -->
<g id="edge29" class="edge">
<title>Node18&#45;&gt;Node19</title>
<path fill="none" stroke="#63b8ff" d="M264,-98.35C264,-90.1 264,-80.97 264,-74.44"/>
<polygon fill="#63b8ff" stroke="#63b8ff" points="260.5,-98.23 264,-108.23 267.5,-98.23 260.5,-98.23"/>
</g>
<!-- Node21&#45;&gt;Node4 -->
<g id="edge35" class="edge">
<title>Node21&#45;&gt;Node4</title>
<path fill="none" stroke="#63b8ff" d="M695.33,-101.01C707.43,-87.11 725.8,-67.93 745,-55 768.62,-39.09 798.84,-26.93 820.62,-19.37"/>
<polygon fill="#63b8ff" stroke="#63b8ff" points="692.79,-98.59 689.01,-108.48 698.14,-103.11 692.79,-98.59"/>
</g>
<!-- Node21&#45;&gt;Node6 -->
<g id="edge34" class="edge">
<title>Node21&#45;&gt;Node6</title>
<path fill="none" stroke="#63b8ff" d="M669.02,-100.36C663.25,-91.62 656.57,-81.51 651.91,-74.44"/>
<polygon fill="#63b8ff" stroke="#63b8ff" points="665.96,-102.07 674.39,-108.49 671.8,-98.21 665.96,-102.07"/>
</g>
<!-- Node21&#45;&gt;Node22 -->
<g id="edge36" class="edge">
<title>Node21&#45;&gt;Node22</title>
<path fill="none" stroke="#63b8ff" d="M712.89,-105.19C735.99,-95.55 766.6,-82.78 786.77,-74.36"/>
<polygon fill="#63b8ff" stroke="#63b8ff" points="711.82,-101.84 703.94,-108.93 714.52,-108.31 711.82,-101.84"/>
</g>
<!-- Node22&#45;&gt;Node4 -->
<g id="edge37" class="edge">
<title>Node22&#45;&gt;Node4</title>
<path fill="none" stroke="#63b8ff" d="M821.81,-45.65C828.63,-36.84 836.55,-26.59 842.08,-19.44"/>
<polygon fill="#63b8ff" stroke="#63b8ff" points="819.05,-43.5 815.7,-53.55 824.58,-47.78 819.05,-43.5"/>
</g>
<!-- Node23&#45;&gt;Node17 -->
<g id="edge42" class="edge">
<title>Node23&#45;&gt;Node17</title>
<path fill="none" stroke="#63b8ff" d="M546.21,-155.34C553.81,-142.58 560.81,-125.15 555,-110 549.35,-95.26 536.31,-82.33 526.64,-74.27"/>
<polygon fill="#63b8ff" stroke="#63b8ff" points="543.38,-153.27 540.79,-163.55 549.22,-157.13 543.38,-153.27"/>
</g>
</g>
</svg>
