<?xml version="1.0" encoding="UTF-8" standalone="no"?>
<!DOCTYPE svg PUBLIC "-//W3C//DTD SVG 1.1//EN"
 "http://www.w3.org/Graphics/SVG/1.1/DTD/svg11.dtd">
<!-- Generated by graphviz version 7.0.5 (20221223.1930)
 -->
<!-- Title: include/config.h Pages: 1 -->
<svg width="1180pt" height="357pt"
 viewBox="0.00 0.00 1180.00 357.00" xmlns="http://www.w3.org/2000/svg" xmlns:xlink="http://www.w3.org/1999/xlink">
<g id="graph0" class="graph" transform="scale(1 1) rotate(0) translate(4 353)">
<title>include/config.h</title>
<!-- Node1 -->
<g id="node1" class="node">
<title>Node1</title>
<g id="a_node1"><a xlink:title="Hack for C Compiler portability.">
<polygon fill="#999999" stroke="#666666" points="959.5,-349 876.5,-349 876.5,-330 959.5,-330 959.5,-349"/>
<text text-anchor="middle" x="918" y="-337" font-family="Helvetica,sans-Serif" font-size="10.00">include/config.h</text>
</a>
</g>
</g>
<!-- Node2 -->
<g id="node2" class="node">
<title>Node2</title>
<g id="a_node2"><a xlink:href="bios__const_8h.html" target="_top" xlink:title="Constant variables in the MSX BIOS ROM.">
<polygon fill="white" stroke="#666666" points="1051.5,-294 946.5,-294 946.5,-275 1051.5,-275 1051.5,-294"/>
<text text-anchor="middle" x="999" y="-282" font-family="Helvetica,sans-Serif" font-size="10.00">include/bios_const.h</text>
</a>
</g>
</g>
<!-- Node1&#45;&gt;Node2 -->
<g id="edge1" class="edge">
<title>Node1&#45;&gt;Node2</title>
<path fill="none" stroke="#63b8ff" d="M940.99,-323.46C955.35,-314.06 973.35,-302.28 985.46,-294.36"/>
<polygon fill="#63b8ff" stroke="#63b8ff" points="939.46,-320.28 933.01,-328.68 943.29,-326.13 939.46,-320.28"/>
</g>
<!-- Node4 -->
<g id="node4" class="node">
<title>Node4</title>
<g id="a_node4"><a xlink:href="msx_8h.html" target="_top" xlink:title="Using #include &lt;msx.h&gt; includes almost all C header files in libmsx, for ease to use.">
<polygon fill="white" stroke="#666666" points="807,-19 731,-19 731,0 807,0 807,-19"/>
<text text-anchor="middle" x="769" y="-7" font-family="Helvetica,sans-Serif" font-size="10.00">include/msx.h</text>
</a>
</g>
</g>
<!-- Node1&#45;&gt;Node4 -->
<g id="edge44" class="edge">
<title>Node1&#45;&gt;Node4</title>
<path fill="none" stroke="#63b8ff" d="M864.77,-337.87C668.97,-334.86 0,-318.17 0,-230.5 0,-230.5 0,-230.5 0,-118.5 0,-78.74 26.8,-71.43 63,-55 123.88,-27.36 591.98,-14.55 730.5,-11.33"/>
<polygon fill="#63b8ff" stroke="#63b8ff" points="864.61,-341.37 874.66,-338.02 864.71,-334.37 864.61,-341.37"/>
</g>
<!-- Node8 -->
<g id="node8" class="node">
<title>Node8</title>
<g id="a_node8"><a xlink:href="workarea_8h.html" target="_top" xlink:title="Definitions of MSX SYSTEM Workarea.">
<polygon fill="white" stroke="#666666" points="1057,-239 959,-239 959,-220 1057,-220 1057,-239"/>
<text text-anchor="middle" x="1008" y="-227" font-family="Helvetica,sans-Serif" font-size="10.00">include/workarea.h</text>
</a>
</g>
</g>
<!-- Node1&#45;&gt;Node8 -->
<g id="edge45" class="edge">
<title>Node1&#45;&gt;Node8</title>
<path fill="none" stroke="#63b8ff" d="M920.64,-318.5C923.24,-305.1 928.29,-287.64 938,-275 950.45,-258.78 970.63,-246.86 986.13,-239.47"/>
<polygon fill="#63b8ff" stroke="#63b8ff" points="917.19,-317.91 919.07,-328.34 924.11,-319.01 917.19,-317.91"/>
</g>
<!-- Node9 -->
<g id="node9" class="node">
<title>Node9</title>
<g id="a_node9"><a xlink:href="bios__entry_8h.html" target="_top" xlink:title="Assembler entry points for MSX BIOS functions.">
<polygon fill="white" stroke="#666666" points="1172,-294 1070,-294 1070,-275 1172,-275 1172,-294"/>
<text text-anchor="middle" x="1121" y="-282" font-family="Helvetica,sans-Serif" font-size="10.00">include/bios_entry.h</text>
</a>
</g>
</g>
<!-- Node1&#45;&gt;Node9 -->
<g id="edge13" class="edge">
<title>Node1&#45;&gt;Node9</title>
<path fill="none" stroke="#63b8ff" d="M963.51,-326.62C1000.84,-316.87 1052.86,-303.29 1086.73,-294.45"/>
<polygon fill="#63b8ff" stroke="#63b8ff" points="962.69,-323.21 953.9,-329.13 964.46,-329.99 962.69,-323.21"/>
</g>
<!-- Node10 -->
<g id="node10" class="node">
<title>Node10</title>
<g id="a_node10"><a xlink:href="io_8h.html" target="_top" xlink:title="Definition of I/O ports.">
<polygon fill="white" stroke="#666666" points="830.5,-294 765.5,-294 765.5,-275 830.5,-275 830.5,-294"/>
<text text-anchor="middle" x="798" y="-282" font-family="Helvetica,sans-Serif" font-size="10.00">include/io.h</text>
</a>
</g>
</g>
<!-- Node1&#45;&gt;Node10 -->
<g id="edge15" class="edge">
<title>Node1&#45;&gt;Node10</title>
<path fill="none" stroke="#63b8ff" d="M887.28,-324.93C865.51,-315.32 836.95,-302.7 818.06,-294.36"/>
<polygon fill="#63b8ff" stroke="#63b8ff" points="885.7,-328.06 896.26,-328.9 888.53,-321.66 885.7,-328.06"/>
</g>
<!-- Node3 -->
<g id="node3" class="node">
<title>Node3</title>
<g id="a_node3"><a xlink:href="bios_8h.html" target="_top" xlink:title="C language I/F for MSX BIOS routines.">
<polygon fill="white" stroke="#666666" points="1151,-239 1075,-239 1075,-220 1151,-220 1151,-239"/>
<text text-anchor="middle" x="1113" y="-227" font-family="Helvetica,sans-Serif" font-size="10.00">include/bios.h</text>
</a>
</g>
</g>
<!-- Node2&#45;&gt;Node3 -->
<g id="edge2" class="edge">
<title>Node2&#45;&gt;Node3</title>
<path fill="none" stroke="#63b8ff" d="M1028.76,-269.67C1049.36,-260.09 1076.17,-247.62 1093.95,-239.36"/>
<polygon fill="#63b8ff" stroke="#63b8ff" points="1027.3,-266.48 1019.71,-273.87 1030.25,-272.83 1027.3,-266.48"/>
</g>
<!-- Node2&#45;&gt;Node8 -->
<g id="edge10" class="edge">
<title>Node2&#45;&gt;Node8</title>
<path fill="none" stroke="#63b8ff" d="M1002.37,-263.64C1003.79,-255.31 1005.36,-246.05 1006.48,-239.44"/>
<polygon fill="#63b8ff" stroke="#63b8ff" points="998.96,-262.81 1000.74,-273.26 1005.86,-263.98 998.96,-262.81"/>
</g>
<!-- Node3&#45;&gt;Node4 -->
<g id="edge3" class="edge">
<title>Node3&#45;&gt;Node4</title>
<path fill="none" stroke="#63b8ff" d="M1105.77,-209.28C1091,-172.83 1053.7,-93.8 995,-55 964.64,-34.94 863.22,-20.91 807.12,-14.48"/>
<polygon fill="#63b8ff" stroke="#63b8ff" points="1102.47,-210.45 1109.37,-218.49 1108.99,-207.9 1102.47,-210.45"/>
</g>
<!-- Node5 -->
<g id="node5" class="node">
<title>Node5</title>
<g id="a_node5"><a xlink:href="vdp_8h.html" target="_top" xlink:title="Data types and functions for VDP (Video Display Proccessor) access.">
<polygon fill="white" stroke="#666666" points="1003,-129 929,-129 929,-110 1003,-110 1003,-129"/>
<text text-anchor="middle" x="966" y="-117" font-family="Helvetica,sans-Serif" font-size="10.00">include/vdp.h</text>
</a>
</g>
</g>
<!-- Node3&#45;&gt;Node5 -->
<g id="edge4" class="edge">
<title>Node3&#45;&gt;Node5</title>
<path fill="none" stroke="#63b8ff" d="M1091.83,-212.94C1060.6,-190 1003.21,-147.84 978.2,-129.46"/>
<polygon fill="#63b8ff" stroke="#63b8ff" points="1089.62,-215.67 1099.75,-218.77 1093.76,-210.02 1089.62,-215.67"/>
</g>
<!-- Node7 -->
<g id="node7" class="node">
<title>Node7</title>
<g id="a_node7"><a xlink:href="vdp__unsafe_8h.html" target="_top" xlink:title="Unsafe primitive functions for VDP (Video Display Proccessor) access.">
<polygon fill="white" stroke="#666666" points="938,-184 830,-184 830,-165 938,-165 938,-184"/>
<text text-anchor="middle" x="884" y="-172" font-family="Helvetica,sans-Serif" font-size="10.00">include/vdp_unsafe.h</text>
</a>
</g>
</g>
<!-- Node3&#45;&gt;Node7 -->
<g id="edge8" class="edge">
<title>Node3&#45;&gt;Node7</title>
<path fill="none" stroke="#63b8ff" d="M1063.55,-217.05C1021.39,-207.3 961.63,-193.47 922.84,-184.49"/>
<polygon fill="#63b8ff" stroke="#63b8ff" points="1062.66,-220.44 1073.2,-219.29 1064.24,-213.62 1062.66,-220.44"/>
</g>
<!-- Node5&#45;&gt;Node4 -->
<g id="edge7" class="edge">
<title>Node5&#45;&gt;Node4</title>
<path fill="none" stroke="#63b8ff" d="M966.45,-98.4C965.65,-84.42 962.24,-66.33 951,-55 931.13,-34.97 854.59,-21.65 807.33,-15.14"/>
<polygon fill="#63b8ff" stroke="#63b8ff" points="962.95,-98.3 966.57,-108.25 969.94,-98.21 962.95,-98.3"/>
</g>
<!-- Node6 -->
<g id="node6" class="node">
<title>Node6</title>
<g id="a_node6"><a xlink:href="metasprite_8h.html" target="_top" xlink:title="Meta&#45;sprite ; an aggregate of sprites.">
<polygon fill="white" stroke="#666666" points="942,-74 838,-74 838,-55 942,-55 942,-74"/>
<text text-anchor="middle" x="890" y="-62" font-family="Helvetica,sans-Serif" font-size="10.00">include/metasprite.h</text>
</a>
</g>
</g>
<!-- Node5&#45;&gt;Node6 -->
<g id="edge5" class="edge">
<title>Node5&#45;&gt;Node6</title>
<path fill="none" stroke="#63b8ff" d="M944.04,-103.19C930.63,-93.84 913.96,-82.21 902.7,-74.36"/>
<polygon fill="#63b8ff" stroke="#63b8ff" points="941.66,-105.79 951.87,-108.64 945.67,-100.05 941.66,-105.79"/>
</g>
<!-- Node6&#45;&gt;Node4 -->
<g id="edge6" class="edge">
<title>Node6&#45;&gt;Node4</title>
<path fill="none" stroke="#63b8ff" d="M859.02,-49.93C837.08,-40.32 808.27,-27.7 789.22,-19.36"/>
<polygon fill="#63b8ff" stroke="#63b8ff" points="857.52,-53.1 868.09,-53.9 860.33,-46.68 857.52,-53.1"/>
</g>
<!-- Node7&#45;&gt;Node5 -->
<g id="edge9" class="edge">
<title>Node7&#45;&gt;Node5</title>
<path fill="none" stroke="#63b8ff" d="M907.27,-158.46C921.81,-149.06 940.04,-137.28 952.3,-129.36"/>
<polygon fill="#63b8ff" stroke="#63b8ff" points="905.68,-155.32 899.18,-163.69 909.48,-161.2 905.68,-155.32"/>
</g>
<!-- Node8&#45;&gt;Node4 -->
<g id="edge11" class="edge">
<title>Node8&#45;&gt;Node4</title>
<path fill="none" stroke="#63b8ff" d="M1012.89,-208.39C1017.8,-184.3 1023.18,-143.06 1012,-110 1002.15,-80.86 995.92,-71.55 970,-55 919.84,-22.97 849.91,-13.78 807.13,-11.27"/>
<polygon fill="#63b8ff" stroke="#63b8ff" points="1009.48,-207.57 1010.71,-218.09 1016.32,-209.1 1009.48,-207.57"/>
</g>
<!-- Node8&#45;&gt;Node5 -->
<g id="edge12" class="edge">
<title>Node8&#45;&gt;Node5</title>
<path fill="none" stroke="#63b8ff" d="M1000.5,-209.22C991.35,-185.69 976.26,-146.89 969.48,-129.46"/>
<polygon fill="#63b8ff" stroke="#63b8ff" points="997.13,-210.2 1004.01,-218.25 1003.65,-207.66 997.13,-210.2"/>
</g>
<!-- Node9&#45;&gt;Node3 -->
<g id="edge14" class="edge">
<title>Node9&#45;&gt;Node3</title>
<path fill="none" stroke="#63b8ff" d="M1118,-263.64C1116.75,-255.31 1115.35,-246.05 1114.35,-239.44"/>
<polygon fill="#63b8ff" stroke="#63b8ff" points="1114.5,-263.89 1119.45,-273.25 1121.42,-262.84 1114.5,-263.89"/>
</g>
<!-- Node10&#45;&gt;Node4 -->
<g id="edge16" class="edge">
<title>Node10&#45;&gt;Node4</title>
<path fill="none" stroke="#63b8ff" d="M753.94,-282.64C629.34,-279.86 276.31,-269.44 165,-239 104.13,-222.36 38,-238.61 38,-175.5 38,-175.5 38,-175.5 38,-118.5 38,-72.76 76.3,-71.4 119,-55 231.72,-11.72 608.52,-9.68 730.52,-10.19"/>
<polygon fill="#63b8ff" stroke="#63b8ff" points="753.68,-286.14 763.75,-282.85 753.83,-279.14 753.68,-286.14"/>
</g>
<!-- Node10&#45;&gt;Node5 -->
<g id="edge20" class="edge">
<title>Node10&#45;&gt;Node5</title>
<path fill="none" stroke="#63b8ff" d="M830.57,-269.89C864.49,-254.08 916.81,-224.86 947,-184 959.45,-167.16 963.8,-142.17 965.27,-129.13"/>
<polygon fill="#63b8ff" stroke="#63b8ff" points="829.31,-266.62 821.64,-273.92 832.19,-273 829.31,-266.62"/>
</g>
<!-- Node10&#45;&gt;Node7 -->
<g id="edge21" class="edge">
<title>Node10&#45;&gt;Node7</title>
<path fill="none" stroke="#63b8ff" d="M812.09,-265.81C830.67,-242.47 862.67,-202.28 876.87,-184.46"/>
<polygon fill="#63b8ff" stroke="#63b8ff" points="809.47,-263.47 805.98,-273.48 814.95,-267.84 809.47,-263.47"/>
</g>
<!-- Node11 -->
<g id="node11" class="node">
<title>Node11</title>
<g id="a_node11"><a xlink:href="psg_8h.html" target="_top" xlink:title="Device interface for PSG (AY&#45;3&#45;8910) an internal sound chip.">
<polygon fill="white" stroke="#666666" points="248,-239 174,-239 174,-220 248,-220 248,-239"/>
<text text-anchor="middle" x="211" y="-227" font-family="Helvetica,sans-Serif" font-size="10.00">include/psg.h</text>
</a>
</g>
</g>
<!-- Node10&#45;&gt;Node11 -->
<g id="edge17" class="edge">
<title>Node10&#45;&gt;Node11</title>
<path fill="none" stroke="#63b8ff" d="M753.74,-279.5C642.37,-269.45 352.05,-243.24 248.43,-233.88"/>
<polygon fill="#63b8ff" stroke="#63b8ff" points="753.4,-282.99 763.68,-280.4 754.03,-276.02 753.4,-282.99"/>
</g>
<!-- Node13 -->
<g id="node13" class="node">
<title>Node13</title>
<g id="a_node13"><a xlink:href="vmem_8h.html" target="_top" xlink:title="Data types and functions for VRAM access.">
<polygon fill="white" stroke="#666666" points="749.5,-239 664.5,-239 664.5,-220 749.5,-220 749.5,-239"/>
<text text-anchor="middle" x="707" y="-227" font-family="Helvetica,sans-Serif" font-size="10.00">include/vmem.h</text>
</a>
</g>
</g>
<!-- Node10&#45;&gt;Node13 -->
<g id="edge22" class="edge">
<title>Node10&#45;&gt;Node13</title>
<path fill="none" stroke="#63b8ff" d="M772.64,-268.73C756.43,-259.29 735.94,-247.36 722.21,-239.36"/>
<polygon fill="#63b8ff" stroke="#63b8ff" points="770.85,-271.74 781.26,-273.75 774.38,-265.69 770.85,-271.74"/>
</g>
<!-- Node11&#45;&gt;Node4 -->
<g id="edge19" class="edge">
<title>Node11&#45;&gt;Node4</title>
<path fill="none" stroke="#63b8ff" d="M182.27,-214.2C153.58,-198.04 111.46,-168.73 95,-129 69.89,-68.38 180.12,-58.35 191,-55 292.36,-23.81 618.56,-13.81 730.71,-11.26"/>
<polygon fill="#63b8ff" stroke="#63b8ff" points="180.37,-217.15 190.83,-218.83 183.7,-210.99 180.37,-217.15"/>
</g>
<!-- Node12 -->
<g id="node12" class="node">
<title>Node12</title>
<g id="a_node12"><a xlink:href="ay__3__8910_8h.html" target="_top" xlink:title="Buffer for PSG (AY&#45;3&#45;8910) registers.">
<polygon fill="white" stroke="#666666" points="263,-184 159,-184 159,-165 263,-165 263,-184"/>
<text text-anchor="middle" x="211" y="-172" font-family="Helvetica,sans-Serif" font-size="10.00">include/ay_3_8910.h</text>
</a>
</g>
</g>
<!-- Node11&#45;&gt;Node12 -->
<g id="edge18" class="edge">
<title>Node11&#45;&gt;Node12</title>
<path fill="none" stroke="#63b8ff" d="M211,-208.35C211,-200.1 211,-190.97 211,-184.44"/>
<polygon fill="#63b8ff" stroke="#63b8ff" points="207.5,-208.23 211,-218.23 214.5,-208.23 207.5,-208.23"/>
</g>
<!-- Node13&#45;&gt;Node4 -->
<g id="edge33" class="edge">
<title>Node13&#45;&gt;Node4</title>
<path fill="none" stroke="#63b8ff" d="M694.05,-210.34C671.95,-176.89 632.35,-104.48 665,-55 679.49,-33.03 707.31,-21.87 730.53,-16.22"/>
<polygon fill="#63b8ff" stroke="#63b8ff" points="691.1,-212.23 699.64,-218.5 696.88,-208.27 691.1,-212.23"/>
</g>
<!-- Node13&#45;&gt;Node5 -->
<g id="edge40" class="edge">
<title>Node13&#45;&gt;Node5</title>
<path fill="none" stroke="#63b8ff" d="M730.23,-213.64C752.76,-199.7 788.26,-178.96 821,-165 856.73,-149.77 899.42,-137.32 929.19,-129.5"/>
<polygon fill="#63b8ff" stroke="#63b8ff" points="728.46,-210.62 721.84,-218.9 732.18,-216.56 728.46,-210.62"/>
</g>
<!-- Node13&#45;&gt;Node6 -->
<g id="edge32" class="edge">
<title>Node13&#45;&gt;Node6</title>
<path fill="none" stroke="#63b8ff" d="M725.3,-212.2C763.53,-178.15 850.8,-100.42 880.16,-74.27"/>
<polygon fill="#63b8ff" stroke="#63b8ff" points="723.37,-209.23 718.23,-218.5 728.03,-214.46 723.37,-209.23"/>
</g>
<!-- Node13&#45;&gt;Node7 -->
<g id="edge41" class="edge">
<title>Node13&#45;&gt;Node7</title>
<path fill="none" stroke="#63b8ff" d="M747.95,-216.24C780.4,-206.52 824.97,-193.18 854.12,-184.45"/>
<polygon fill="#63b8ff" stroke="#63b8ff" points="747.05,-212.85 738.48,-219.08 749.06,-219.56 747.05,-212.85"/>
</g>
<!-- Node14 -->
<g id="node14" class="node">
<title>Node14</title>
<g id="a_node14"><a xlink:href="ZX0__decompress_8h.html" target="_top" xlink:title="Decompressor of the ZX0 data compression format version 2.">
<polygon fill="white" stroke="#666666" points="238,-129 104,-129 104,-110 238,-110 238,-129"/>
<text text-anchor="middle" x="171" y="-117" font-family="Helvetica,sans-Serif" font-size="10.00">include/ZX0_decompress.h</text>
</a>
</g>
</g>
<!-- Node13&#45;&gt;Node14 -->
<g id="edge23" class="edge">
<title>Node13&#45;&gt;Node14</title>
<path fill="none" stroke="#63b8ff" d="M652.92,-224.6C585.03,-219 465.33,-206.74 365,-184 301.58,-169.63 229.4,-143.23 193.61,-129.44"/>
<polygon fill="#63b8ff" stroke="#63b8ff" points="652.41,-228.07 662.65,-225.39 652.97,-221.1 652.41,-228.07"/>
</g>
<!-- Node15 -->
<g id="node15" class="node">
<title>Node15</title>
<g id="a_node15"><a xlink:href="bmem_8h.html" target="_top" xlink:title="Data types and functions for accessing banked memory.">
<polygon fill="white" stroke="#666666" points="459.5,-184 374.5,-184 374.5,-165 459.5,-165 459.5,-184"/>
<text text-anchor="middle" x="417" y="-172" font-family="Helvetica,sans-Serif" font-size="10.00">include/bmem.h</text>
</a>
</g>
</g>
<!-- Node13&#45;&gt;Node15 -->
<g id="edge24" class="edge">
<title>Node13&#45;&gt;Node15</title>
<path fill="none" stroke="#63b8ff" d="M653.13,-218.66C597.36,-208.46 511.34,-192.74 459.97,-183.35"/>
<polygon fill="#63b8ff" stroke="#63b8ff" points="652.25,-222.05 662.72,-220.41 653.51,-215.17 652.25,-222.05"/>
</g>
<!-- Node22 -->
<g id="node22" class="node">
<title>Node22</title>
<g id="a_node22"><a xlink:href="sprite_8h.html" target="_top" xlink:title="Sprites.">
<polygon fill="white" stroke="#666666" points="798,-129 716,-129 716,-110 798,-110 798,-129"/>
<text text-anchor="middle" x="757" y="-117" font-family="Helvetica,sans-Serif" font-size="10.00">include/sprite.h</text>
</a>
</g>
</g>
<!-- Node13&#45;&gt;Node22 -->
<g id="edge34" class="edge">
<title>Node13&#45;&gt;Node22</title>
<path fill="none" stroke="#63b8ff" d="M715.93,-209.22C726.82,-185.69 744.78,-146.89 752.85,-129.46"/>
<polygon fill="#63b8ff" stroke="#63b8ff" points="712.75,-207.74 711.73,-218.29 719.11,-210.68 712.75,-207.74"/>
</g>
<!-- Node23 -->
<g id="node23" class="node">
<title>Node23</title>
<g id="a_node23"><a xlink:href="sprite__color_8h.html" target="_top" xlink:title="Sprite color table interface.">
<polygon fill="white" stroke="#666666" points="782,-74 674,-74 674,-55 782,-55 782,-74"/>
<text text-anchor="middle" x="728" y="-62" font-family="Helvetica,sans-Serif" font-size="10.00">include/sprite_color.h</text>
</a>
</g>
</g>
<!-- Node13&#45;&gt;Node23 -->
<g id="edge39" class="edge">
<title>Node13&#45;&gt;Node23</title>
<path fill="none" stroke="#63b8ff" d="M704.35,-208.39C701.83,-184.58 699.41,-143.88 707,-110 709.95,-96.83 717.26,-82.97 722.42,-74.28"/>
<polygon fill="#63b8ff" stroke="#63b8ff" points="700.87,-208.72 705.53,-218.23 707.82,-207.89 700.87,-208.72"/>
</g>
<!-- Node24 -->
<g id="node24" class="node">
<title>Node24</title>
<g id="a_node24"><a xlink:href="vmem__rw_8h.html" target="_top" xlink:title="Stream like access functions for VRAM.">
<polygon fill="white" stroke="#666666" points="621.5,-184 520.5,-184 520.5,-165 621.5,-165 621.5,-184"/>
<text text-anchor="middle" x="571" y="-172" font-family="Helvetica,sans-Serif" font-size="10.00">include/vmem_rw.h</text>
</a>
</g>
</g>
<!-- Node13&#45;&gt;Node24 -->
<g id="edge42" class="edge">
<title>Node13&#45;&gt;Node24</title>
<path fill="none" stroke="#63b8ff" d="M673.52,-215.45C648.7,-205.78 615.53,-192.85 593.73,-184.36"/>
<polygon fill="#63b8ff" stroke="#63b8ff" points="671.93,-218.59 682.52,-218.96 674.47,-212.07 671.93,-218.59"/>
</g>
<!-- Node15&#45;&gt;Node14 -->
<g id="edge25" class="edge">
<title>Node15&#45;&gt;Node14</title>
<path fill="none" stroke="#63b8ff" d="M364.17,-162.12C318.8,-152.34 254.28,-138.44 212.52,-129.45"/>
<polygon fill="#63b8ff" stroke="#63b8ff" points="363.28,-165.51 373.79,-164.19 364.75,-158.66 363.28,-165.51"/>
</g>
<!-- Node16 -->
<g id="node16" class="node">
<title>Node16</title>
<g id="a_node16"><a xlink:href="bmem__rd_8h.html" target="_top" xlink:title="Stream like access functions for Banked Memory.">
<polygon fill="white" stroke="#666666" points="584,-129 486,-129 486,-110 584,-110 584,-129"/>
<text text-anchor="middle" x="535" y="-117" font-family="Helvetica,sans-Serif" font-size="10.00">include/bmem_rd.h</text>
</a>
</g>
</g>
<!-- Node15&#45;&gt;Node16 -->
<g id="edge26" class="edge">
<title>Node15&#45;&gt;Node16</title>
<path fill="none" stroke="#63b8ff" d="M447.51,-159.8C468.87,-150.2 496.79,-137.66 515.28,-129.36"/>
<polygon fill="#63b8ff" stroke="#63b8ff" points="446.09,-156.6 438.4,-163.89 448.95,-162.98 446.09,-156.6"/>
</g>
<!-- Node18 -->
<g id="node18" class="node">
<title>Node18</title>
<g id="a_node18"><a xlink:href="memfile_8h.html" target="_top" xlink:title="Stream interface for ROM / RAM / MegaROM.">
<polygon fill="white" stroke="#666666" points="348,-129 256,-129 256,-110 348,-110 348,-129"/>
<text text-anchor="middle" x="302" y="-117" font-family="Helvetica,sans-Serif" font-size="10.00">include/memfile.h</text>
</a>
</g>
</g>
<!-- Node15&#45;&gt;Node18 -->
<g id="edge28" class="edge">
<title>Node15&#45;&gt;Node18</title>
<path fill="none" stroke="#63b8ff" d="M387.27,-159.8C366.45,-150.2 339.24,-137.66 321.22,-129.36"/>
<polygon fill="#63b8ff" stroke="#63b8ff" points="385.57,-162.87 396.12,-163.88 388.5,-156.51 385.57,-162.87"/>
</g>
<!-- Node21 -->
<g id="node21" class="node">
<title>Node21</title>
<g id="a_node21"><a xlink:href="resources_8h.html" target="_top" xlink:title="Data types and functions for accessing embedded resources.">
<polygon fill="white" stroke="#666666" points="467.5,-129 366.5,-129 366.5,-110 467.5,-110 467.5,-129"/>
<text text-anchor="middle" x="417" y="-117" font-family="Helvetica,sans-Serif" font-size="10.00">include/resources.h</text>
</a>
</g>
</g>
<!-- Node15&#45;&gt;Node21 -->
<g id="edge31" class="edge">
<title>Node15&#45;&gt;Node21</title>
<path fill="none" stroke="#63b8ff" d="M417,-153.35C417,-145.1 417,-135.97 417,-129.44"/>
<polygon fill="#63b8ff" stroke="#63b8ff" points="413.5,-153.23 417,-163.23 420.5,-153.23 413.5,-153.23"/>
</g>
<!-- Node17 -->
<g id="node17" class="node">
<title>Node17</title>
<g id="a_node17"><a xlink:href="xmem_8h.html" target="_top" xlink:title="Inter&#45;memory transfer functions for ROM / RAM, VRAM, and Banked Memory (MegaROM).">
<polygon fill="white" stroke="#666666" points="597,-74 513,-74 513,-55 597,-55 597,-74"/>
<text text-anchor="middle" x="555" y="-62" font-family="Helvetica,sans-Serif" font-size="10.00">include/xmem.h</text>
</a>
</g>
</g>
<!-- Node16&#45;&gt;Node17 -->
<g id="edge27" class="edge">
<title>Node16&#45;&gt;Node17</title>
<path fill="none" stroke="#63b8ff" d="M542.28,-99.22C545.47,-90.74 549.07,-81.21 551.63,-74.44"/>
<polygon fill="#63b8ff" stroke="#63b8ff" points="539.09,-97.74 538.84,-108.33 545.64,-100.21 539.09,-97.74"/>
</g>
<!-- Node19 -->
<g id="node19" class="node">
<title>Node19</title>
<g id="a_node19"><a xlink:href="audio__buf_8h.html" target="_top" xlink:title="Unified sound&#45;chip buffer of the libmsx audio replayer.">
<polygon fill="white" stroke="#666666" points="300,-74 200,-74 200,-55 300,-55 300,-74"/>
<text text-anchor="middle" x="250" y="-62" font-family="Helvetica,sans-Serif" font-size="10.00">include/audio_buf.h</text>
</a>
</g>
</g>
<!-- Node18&#45;&gt;Node19 -->
<g id="edge29" class="edge">
<title>Node18&#45;&gt;Node19</title>
<path fill="none" stroke="#63b8ff" d="M285.59,-101.78C276.71,-92.72 266.09,-81.9 258.77,-74.44"/>
<polygon fill="#63b8ff" stroke="#63b8ff" points="282.85,-103.98 292.35,-108.67 287.85,-99.08 282.85,-103.98"/>
</g>
<!-- Node20 -->
<g id="node20" class="node">
<title>Node20</title>
<g id="a_node20"><a xlink:href="la0_8h.html" target="_top" xlink:title="The libmsx audio format 0 (LA0) decoder.">
<polygon fill="white" stroke="#666666" points="389.5,-74 318.5,-74 318.5,-55 389.5,-55 389.5,-74"/>
<text text-anchor="middle" x="354" y="-62" font-family="Helvetica,sans-Serif" font-size="10.00">include/la0.h</text>
</a>
</g>
</g>
<!-- Node18&#45;&gt;Node20 -->
<g id="edge30" class="edge">
<title>Node18&#45;&gt;Node20</title>
<path fill="none" stroke="#63b8ff" d="M318.41,-101.78C327.29,-92.72 337.91,-81.9 345.23,-74.44"/>
<polygon fill="#63b8ff" stroke="#63b8ff" points="316.15,-99.08 311.65,-108.67 321.15,-103.98 316.15,-99.08"/>
</g>
<!-- Node22&#45;&gt;Node4 -->
<g id="edge36" class="edge">
<title>Node22&#45;&gt;Node4</title>
<path fill="none" stroke="#63b8ff" d="M774.31,-101.36C780.88,-93.68 787.59,-84.08 791,-74 797.66,-54.33 784.42,-31.31 775.74,-19.11"/>
<polygon fill="#63b8ff" stroke="#63b8ff" points="771.86,-98.86 767.63,-108.58 776.99,-103.62 771.86,-98.86"/>
</g>
<!-- Node22&#45;&gt;Node6 -->
<g id="edge35" class="edge">
<title>Node22&#45;&gt;Node6</title>
<path fill="none" stroke="#63b8ff" d="M790.07,-105.32C814.3,-95.67 846.55,-82.82 867.77,-74.36"/>
<polygon fill="#63b8ff" stroke="#63b8ff" points="788.96,-102 780.97,-108.95 791.55,-108.5 788.96,-102"/>
</g>
<!-- Node22&#45;&gt;Node23 -->
<g id="edge37" class="edge">
<title>Node22&#45;&gt;Node23</title>
<path fill="none" stroke="#63b8ff" d="M746.76,-99.79C742.05,-91.18 736.68,-81.36 732.89,-74.44"/>
<polygon fill="#63b8ff" stroke="#63b8ff" points="743.61,-101.33 751.48,-108.42 749.75,-97.97 743.61,-101.33"/>
</g>
<!-- Node23&#45;&gt;Node4 -->
<g id="edge38" class="edge">
<title>Node23&#45;&gt;Node4</title>
<path fill="none" stroke="#63b8ff" d="M741.81,-45.65C748.63,-36.84 756.55,-26.59 762.08,-19.44"/>
<polygon fill="#63b8ff" stroke="#63b8ff" points="739.05,-43.5 735.7,-53.55 744.58,-47.78 739.05,-43.5"/>
</g>
<!-- Node24&#45;&gt;Node17 -->
<g id="edge43" class="edge">
<title>Node24&#45;&gt;Node17</title>
<path fill="none" stroke="#63b8ff" d="M584.09,-155.38C591.64,-142.64 598.61,-125.22 593,-110 587.66,-95.51 575.26,-82.54 566.07,-74.39"/>
<polygon fill="#63b8ff" stroke="#63b8ff" points="581.28,-153.29 578.72,-163.57 587.13,-157.13 581.28,-153.29"/>
</g>
</g>
</svg>
