<?xml version="1.0" encoding="UTF-8" standalone="no"?>
<!DOCTYPE svg PUBLIC "-//W3C//DTD SVG 1.1//EN"
 "http://www.w3.org/Graphics/SVG/1.1/DTD/svg11.dtd">
<!-- Generated by graphviz version 7.0.5 (20221223.1930)
 -->
<!-- Title: include/config.h Pages: 1 -->
<svg width="1200pt" height="357pt"
 viewBox="0.00 0.00 1200.00 357.00" xmlns="http://www.w3.org/2000/svg" xmlns:xlink="http://www.w3.org/1999/xlink">
<g id="graph0" class="graph" transform="scale(1 1) rotate(0) translate(4 353)">
<title>include/config.h</title>
<!-- Node1 -->
<g id="node1" class="node">
<title>Node1</title>
<g id="a_node1"><a xlink:title="Hack for C Compiler portability.">
<polygon fill="#999999" stroke="#666666" points="311.5,-349 228.5,-349 228.5,-330 311.5,-330 311.5,-349"/>
<text text-anchor="middle" x="270" y="-337" font-family="Helvetica,sans-Serif" font-size="10.00">include/config.h</text>
</a>
</g>
</g>
<!-- Node2 -->
<g id="node2" class="node">
<title>Node2</title>
<g id="a_node2"><a xlink:href="bios__const_8h.html" target="_top" xlink:title="Constant variables in the MSX BIOS ROM.">
<polygon fill="white" stroke="#666666" points="200.5,-294 95.5,-294 95.5,-275 200.5,-275 200.5,-294"/>
<text text-anchor="middle" x="148" y="-282" font-family="Helvetica,sans-Serif" font-size="10.00">include/bios_const.h</text>
</a>
</g>
</g>
<!-- Node1&#45;&gt;Node2 -->
<g id="edge1" class="edge">
<title>Node1&#45;&gt;Node2</title>
<path fill="none" stroke="#63b8ff" d="M238.76,-324.93C216.64,-315.32 187.59,-302.7 168.39,-294.36"/>
<polygon fill="#63b8ff" stroke="#63b8ff" points="237.35,-328.13 247.92,-328.91 240.14,-321.71 237.35,-328.13"/>
</g>
<!-- Node4 -->
<g id="node4" class="node">
<title>Node4</title>
<g id="a_node4"><a xlink:href="msx_8h.html" target="_top" xlink:title="Using #include &lt;msx.h&gt; includes almost all C header files in libmsx, for ease to use.">
<polygon fill="white" stroke="#666666" points="850,-19 774,-19 774,0 850,0 850,-19"/>
<text text-anchor="middle" x="812" y="-7" font-family="Helvetica,sans-Serif" font-size="10.00">include/msx.h</text>
</a>
</g>
</g>
<!-- Node1&#45;&gt;Node4 -->
<g id="edge42" class="edge">
<title>Node1&#45;&gt;Node4</title>
<path fill="none" stroke="#63b8ff" d="M323.13,-337.9C519.36,-334.99 1192,-318.6 1192,-230.5 1192,-230.5 1192,-230.5 1192,-118.5 1192,-47.94 946.54,-21.04 850.18,-13.19"/>
<polygon fill="#63b8ff" stroke="#63b8ff" points="323.17,-334.4 313.22,-338.04 323.27,-341.4 323.17,-334.4"/>
</g>
<!-- Node8 -->
<g id="node8" class="node">
<title>Node8</title>
<g id="a_node8"><a xlink:href="workarea_8h.html" target="_top" xlink:title="Definitions of MSX SYSTEM Workarea.">
<polygon fill="white" stroke="#666666" points="98,-239 0,-239 0,-220 98,-220 98,-239"/>
<text text-anchor="middle" x="49" y="-227" font-family="Helvetica,sans-Serif" font-size="10.00">include/workarea.h</text>
</a>
</g>
</g>
<!-- Node1&#45;&gt;Node8 -->
<g id="edge43" class="edge">
<title>Node1&#45;&gt;Node8</title>
<path fill="none" stroke="#63b8ff" d="M216.92,-336.4C177.7,-332.44 124.77,-321.83 87,-294 67.97,-279.98 56.66,-253.31 51.81,-239.42"/>
<polygon fill="#63b8ff" stroke="#63b8ff" points="216.59,-339.88 226.86,-337.27 217.2,-332.91 216.59,-339.88"/>
</g>
<!-- Node9 -->
<g id="node9" class="node">
<title>Node9</title>
<g id="a_node9"><a xlink:href="bios__entry_8h.html" target="_top" xlink:title="Assembler entry points for MSX BIOS functions.">
<polygon fill="white" stroke="#666666" points="321,-294 219,-294 219,-275 321,-275 321,-294"/>
<text text-anchor="middle" x="270" y="-282" font-family="Helvetica,sans-Serif" font-size="10.00">include/bios_entry.h</text>
</a>
</g>
</g>
<!-- Node1&#45;&gt;Node9 -->
<g id="edge13" class="edge">
<title>Node1&#45;&gt;Node9</title>
<path fill="none" stroke="#63b8ff" d="M270,-318.35C270,-310.1 270,-300.97 270,-294.44"/>
<polygon fill="#63b8ff" stroke="#63b8ff" points="266.5,-318.23 270,-328.23 273.5,-318.23 266.5,-318.23"/>
</g>
<!-- Node10 -->
<g id="node10" class="node">
<title>Node10</title>
<g id="a_node10"><a xlink:href="io_8h.html" target="_top" xlink:title="Definition of I/O ports.">
<polygon fill="white" stroke="#666666" points="516.5,-294 451.5,-294 451.5,-275 516.5,-275 516.5,-294"/>
<text text-anchor="middle" x="484" y="-282" font-family="Helvetica,sans-Serif" font-size="10.00">include/io.h</text>
</a>
</g>
</g>
<!-- Node1&#45;&gt;Node10 -->
<g id="edge15" class="edge">
<title>Node1&#45;&gt;Node10</title>
<path fill="none" stroke="#63b8ff" d="M317.27,-326.79C357.84,-316.75 415.27,-302.52 451.04,-293.66"/>
<polygon fill="#63b8ff" stroke="#63b8ff" points="316.64,-323.34 307.77,-329.15 318.32,-330.14 316.64,-323.34"/>
</g>
<!-- Node3 -->
<g id="node3" class="node">
<title>Node3</title>
<g id="a_node3"><a xlink:href="bios_8h.html" target="_top" xlink:title="C language I/F for MSX BIOS routines.">
<polygon fill="white" stroke="#666666" points="192,-239 116,-239 116,-220 192,-220 192,-239"/>
<text text-anchor="middle" x="154" y="-227" font-family="Helvetica,sans-Serif" font-size="10.00">include/bios.h</text>
</a>
</g>
</g>
<!-- Node2&#45;&gt;Node3 -->
<g id="edge2" class="edge">
<title>Node2&#45;&gt;Node3</title>
<path fill="none" stroke="#63b8ff" d="M150.28,-263.35C151.22,-255.1 152.25,-245.97 152.99,-239.44"/>
<polygon fill="#63b8ff" stroke="#63b8ff" points="146.81,-262.91 149.16,-273.24 153.76,-263.7 146.81,-262.91"/>
</g>
<!-- Node2&#45;&gt;Node8 -->
<g id="edge10" class="edge">
<title>Node2&#45;&gt;Node8</title>
<path fill="none" stroke="#63b8ff" d="M121.16,-269.13C103.41,-259.63 80.7,-247.47 65.55,-239.36"/>
<polygon fill="#63b8ff" stroke="#63b8ff" points="119.4,-272.16 129.87,-273.79 122.71,-265.99 119.4,-272.16"/>
</g>
<!-- Node3&#45;&gt;Node4 -->
<g id="edge3" class="edge">
<title>Node3&#45;&gt;Node4</title>
<path fill="none" stroke="#63b8ff" d="M143.07,-209.7C130.23,-184.86 113.04,-140.68 133,-110 165.87,-59.46 198.57,-69.84 257,-55 355.26,-30.04 665.08,-16.11 773.82,-11.89"/>
<polygon fill="#63b8ff" stroke="#63b8ff" points="139.92,-211.22 147.79,-218.3 146.05,-207.85 139.92,-211.22"/>
</g>
<!-- Node5 -->
<g id="node5" class="node">
<title>Node5</title>
<g id="a_node5"><a xlink:href="vdp_8h.html" target="_top" xlink:title="Data types and functions for VDP (Video Display Proccessor) access.">
<polygon fill="white" stroke="#666666" points="216,-129 142,-129 142,-110 216,-110 216,-129"/>
<text text-anchor="middle" x="179" y="-117" font-family="Helvetica,sans-Serif" font-size="10.00">include/vdp.h</text>
</a>
</g>
</g>
<!-- Node3&#45;&gt;Node5 -->
<g id="edge4" class="edge">
<title>Node3&#45;&gt;Node5</title>
<path fill="none" stroke="#63b8ff" d="M158.61,-208.57C164.07,-184.98 172.93,-146.73 176.93,-129.46"/>
<polygon fill="#63b8ff" stroke="#63b8ff" points="155.23,-207.66 156.39,-218.19 162.05,-209.23 155.23,-207.66"/>
</g>
<!-- Node7 -->
<g id="node7" class="node">
<title>Node7</title>
<g id="a_node7"><a xlink:href="vdp__unsafe_8h.html" target="_top" xlink:title="Unsafe primitive functions for VDP (Video Display Proccessor) access.">
<polygon fill="white" stroke="#666666" points="349,-184 241,-184 241,-165 349,-165 349,-184"/>
<text text-anchor="middle" x="295" y="-172" font-family="Helvetica,sans-Serif" font-size="10.00">include/vdp_unsafe.h</text>
</a>
</g>
</g>
<!-- Node3&#45;&gt;Node7 -->
<g id="edge8" class="edge">
<title>Node3&#45;&gt;Node7</title>
<path fill="none" stroke="#63b8ff" d="M188.36,-215.58C214.13,-205.9 248.73,-192.89 271.43,-184.36"/>
<polygon fill="#63b8ff" stroke="#63b8ff" points="187.46,-212.18 179.34,-218.98 189.93,-218.73 187.46,-212.18"/>
</g>
<!-- Node5&#45;&gt;Node4 -->
<g id="edge7" class="edge">
<title>Node5&#45;&gt;Node4</title>
<path fill="none" stroke="#63b8ff" d="M202.7,-103.73C228.17,-88.65 270.36,-65.97 310,-55 397.38,-30.83 672.29,-16.63 773.83,-12.1"/>
<polygon fill="#63b8ff" stroke="#63b8ff" points="200.91,-100.72 194.16,-108.88 204.53,-106.71 200.91,-100.72"/>
</g>
<!-- Node6 -->
<g id="node6" class="node">
<title>Node6</title>
<g id="a_node6"><a xlink:href="metasprite_8h.html" target="_top" xlink:title="Meta&#45;sprite ; an aggregate of sprites.">
<polygon fill="white" stroke="#666666" points="802,-74 698,-74 698,-55 802,-55 802,-74"/>
<text text-anchor="middle" x="750" y="-62" font-family="Helvetica,sans-Serif" font-size="10.00">include/metasprite.h</text>
</a>
</g>
</g>
<!-- Node5&#45;&gt;Node6 -->
<g id="edge5" class="edge">
<title>Node5&#45;&gt;Node6</title>
<path fill="none" stroke="#63b8ff" d="M227.52,-113.51C239.14,-112.34 251.51,-111.11 263,-110 421.25,-94.76 608.55,-78.01 697.73,-70.11"/>
<polygon fill="#63b8ff" stroke="#63b8ff" points="227.31,-110.01 217.71,-114.5 228.02,-116.98 227.31,-110.01"/>
</g>
<!-- Node6&#45;&gt;Node4 -->
<g id="edge6" class="edge">
<title>Node6&#45;&gt;Node4</title>
<path fill="none" stroke="#63b8ff" d="M769.2,-47.09C779.9,-37.94 792.81,-26.9 801.64,-19.36"/>
<polygon fill="#63b8ff" stroke="#63b8ff" points="766.99,-44.37 761.67,-53.53 771.54,-49.69 766.99,-44.37"/>
</g>
<!-- Node7&#45;&gt;Node5 -->
<g id="edge9" class="edge">
<title>Node7&#45;&gt;Node5</title>
<path fill="none" stroke="#63b8ff" d="M265.01,-159.8C244.01,-150.2 216.56,-137.66 198.39,-129.36"/>
<polygon fill="#63b8ff" stroke="#63b8ff" points="263.4,-162.91 273.95,-163.88 266.3,-156.54 263.4,-162.91"/>
</g>
<!-- Node8&#45;&gt;Node4 -->
<g id="edge11" class="edge">
<title>Node8&#45;&gt;Node4</title>
<path fill="none" stroke="#63b8ff" d="M55.23,-209.04C68.67,-170.85 104.41,-87.01 168,-55 222.06,-27.79 643.37,-14.82 773.7,-11.43"/>
<polygon fill="#63b8ff" stroke="#63b8ff" points="52,-207.69 52.13,-218.28 58.63,-209.92 52,-207.69"/>
</g>
<!-- Node8&#45;&gt;Node5 -->
<g id="edge12" class="edge">
<title>Node8&#45;&gt;Node5</title>
<path fill="none" stroke="#63b8ff" d="M68.45,-212.34C96.21,-189.28 146.28,-147.68 168.21,-129.46"/>
<polygon fill="#63b8ff" stroke="#63b8ff" points="66.26,-209.61 60.8,-218.69 70.73,-215 66.26,-209.61"/>
</g>
<!-- Node9&#45;&gt;Node3 -->
<g id="edge14" class="edge">
<title>Node9&#45;&gt;Node3</title>
<path fill="none" stroke="#63b8ff" d="M240.01,-269.8C219.01,-260.2 191.56,-247.66 173.39,-239.36"/>
<polygon fill="#63b8ff" stroke="#63b8ff" points="238.4,-272.91 248.95,-273.88 241.3,-266.54 238.4,-272.91"/>
</g>
<!-- Node10&#45;&gt;Node4 -->
<g id="edge16" class="edge">
<title>Node10&#45;&gt;Node4</title>
<path fill="none" stroke="#63b8ff" d="M527.95,-283.49C651.68,-282.3 994,-270.41 994,-175.5 994,-175.5 994,-175.5 994,-118.5 994,-52.18 903.52,-25.69 850.15,-15.84"/>
<polygon fill="#63b8ff" stroke="#63b8ff" points="528.17,-279.99 518.19,-283.57 528.22,-286.99 528.17,-279.99"/>
</g>
<!-- Node10&#45;&gt;Node5 -->
<g id="edge20" class="edge">
<title>Node10&#45;&gt;Node5</title>
<path fill="none" stroke="#63b8ff" d="M440.19,-273.33C387.19,-259.51 297,-230.96 232,-184 210.58,-168.53 192.57,-142.49 184.14,-129.07"/>
<polygon fill="#63b8ff" stroke="#63b8ff" points="439.21,-276.69 449.77,-275.77 440.94,-269.91 439.21,-276.69"/>
</g>
<!-- Node10&#45;&gt;Node7 -->
<g id="edge21" class="edge">
<title>Node10&#45;&gt;Node7</title>
<path fill="none" stroke="#63b8ff" d="M458.58,-268.97C418.88,-246.29 343.33,-203.12 310.68,-184.46"/>
<polygon fill="#63b8ff" stroke="#63b8ff" points="456.8,-271.99 467.22,-273.91 460.27,-265.91 456.8,-271.99"/>
</g>
<!-- Node11 -->
<g id="node11" class="node">
<title>Node11</title>
<g id="a_node11"><a xlink:href="psg_8h.html" target="_top" xlink:title="Device interface for PSG (AY&#45;3&#45;8910) an internal sound chip.">
<polygon fill="white" stroke="#666666" points="1096,-239 1022,-239 1022,-220 1096,-220 1096,-239"/>
<text text-anchor="middle" x="1059" y="-227" font-family="Helvetica,sans-Serif" font-size="10.00">include/psg.h</text>
</a>
</g>
</g>
<!-- Node10&#45;&gt;Node11 -->
<g id="edge17" class="edge">
<title>Node10&#45;&gt;Node11</title>
<path fill="none" stroke="#63b8ff" d="M528.33,-280.94C618.76,-275.46 830.92,-261.24 1008,-239 1012.45,-238.44 1017.11,-237.78 1021.73,-237.07"/>
<polygon fill="#63b8ff" stroke="#63b8ff" points="528.18,-277.45 518.41,-281.54 528.6,-284.43 528.18,-277.45"/>
</g>
<!-- Node13 -->
<g id="node13" class="node">
<title>Node13</title>
<g id="a_node13"><a xlink:href="vmem_8h.html" target="_top" xlink:title="Data types and functions for VRAM access.">
<polygon fill="white" stroke="#666666" points="613.5,-239 528.5,-239 528.5,-220 613.5,-220 613.5,-239"/>
<text text-anchor="middle" x="571" y="-227" font-family="Helvetica,sans-Serif" font-size="10.00">include/vmem.h</text>
</a>
</g>
</g>
<!-- Node10&#45;&gt;Node13 -->
<g id="edge22" class="edge">
<title>Node10&#45;&gt;Node13</title>
<path fill="none" stroke="#63b8ff" d="M508.24,-268.73C523.74,-259.29 543.33,-247.36 556.46,-239.36"/>
<polygon fill="#63b8ff" stroke="#63b8ff" points="506.77,-265.53 500.05,-273.72 510.41,-271.51 506.77,-265.53"/>
</g>
<!-- Node11&#45;&gt;Node4 -->
<g id="edge19" class="edge">
<title>Node11&#45;&gt;Node4</title>
<path fill="none" stroke="#63b8ff" d="M1054.42,-208.92C1044.19,-165.83 1019.46,-65.76 1008,-55 985.55,-33.92 900.89,-20.75 850.47,-14.61"/>
<polygon fill="#63b8ff" stroke="#63b8ff" points="1050.96,-209.47 1056.66,-218.4 1057.77,-207.86 1050.96,-209.47"/>
</g>
<!-- Node12 -->
<g id="node12" class="node">
<title>Node12</title>
<g id="a_node12"><a xlink:href="ay__3__8910_8h.html" target="_top" xlink:title="Buffer for PSG (AY&#45;3&#45;8910) registers.">
<polygon fill="white" stroke="#666666" points="1164,-184 1060,-184 1060,-165 1164,-165 1164,-184"/>
<text text-anchor="middle" x="1112" y="-172" font-family="Helvetica,sans-Serif" font-size="10.00">include/ay_3_8910.h</text>
</a>
</g>
</g>
<!-- Node11&#45;&gt;Node12 -->
<g id="edge18" class="edge">
<title>Node11&#45;&gt;Node12</title>
<path fill="none" stroke="#63b8ff" d="M1075.72,-211.78C1084.78,-202.72 1095.6,-191.9 1103.06,-184.44"/>
<polygon fill="#63b8ff" stroke="#63b8ff" points="1073.42,-209.13 1068.82,-218.68 1078.37,-214.08 1073.42,-209.13"/>
</g>
<!-- Node13&#45;&gt;Node4 -->
<g id="edge31" class="edge">
<title>Node13&#45;&gt;Node4</title>
<path fill="none" stroke="#63b8ff" d="M624.8,-216.72C670.02,-203.66 731.81,-177.68 761,-129 787.92,-84.11 699.48,-90.96 689,-74 684.56,-66.82 684.15,-61.91 689,-55 707.98,-27.95 745.12,-17.28 773.64,-13.1"/>
<polygon fill="#63b8ff" stroke="#63b8ff" points="624.15,-213.27 615.44,-219.29 626.01,-220.02 624.15,-213.27"/>
</g>
<!-- Node13&#45;&gt;Node5 -->
<g id="edge38" class="edge">
<title>Node13&#45;&gt;Node5</title>
<path fill="none" stroke="#63b8ff" d="M517.19,-217.7C482.36,-209.99 436.35,-198.45 397,-184 378.9,-177.35 376.12,-171.58 358,-165 310.3,-147.67 253.05,-134.74 216.36,-127.41"/>
<polygon fill="#63b8ff" stroke="#63b8ff" points="516.08,-221.04 526.6,-219.75 517.57,-214.2 516.08,-221.04"/>
</g>
<!-- Node13&#45;&gt;Node6 -->
<g id="edge30" class="edge">
<title>Node13&#45;&gt;Node6</title>
<path fill="none" stroke="#63b8ff" d="M625.17,-225.38C684.2,-220.71 773.05,-209.54 794,-184 814.86,-158.57 806.5,-140.42 794,-110 787.81,-94.93 773.76,-82.24 763.2,-74.32"/>
<polygon fill="#63b8ff" stroke="#63b8ff" points="625.02,-221.88 615.3,-226.11 625.54,-228.86 625.02,-221.88"/>
</g>
<!-- Node13&#45;&gt;Node7 -->
<g id="edge39" class="edge">
<title>Node13&#45;&gt;Node7</title>
<path fill="none" stroke="#63b8ff" d="M517.04,-218.14C465.98,-208.33 390.12,-193.77 341.62,-184.45"/>
<polygon fill="#63b8ff" stroke="#63b8ff" points="516.21,-221.54 526.69,-219.99 517.53,-214.67 516.21,-221.54"/>
</g>
<!-- Node14 -->
<g id="node14" class="node">
<title>Node14</title>
<g id="a_node14"><a xlink:href="ZX0__decompress_8h.html" target="_top" xlink:title="Decompressor of the ZX0 data compression format version 2.">
<polygon fill="white" stroke="#666666" points="406,-129 272,-129 272,-110 406,-110 406,-129"/>
<text text-anchor="middle" x="339" y="-117" font-family="Helvetica,sans-Serif" font-size="10.00">include/ZX0_decompress.h</text>
</a>
</g>
</g>
<!-- Node13&#45;&gt;Node14 -->
<g id="edge23" class="edge">
<title>Node13&#45;&gt;Node14</title>
<path fill="none" stroke="#63b8ff" d="M559.72,-210.19C549.91,-195.79 534.39,-176.32 516,-165 482.94,-144.66 440.99,-133.59 406.23,-127.59"/>
<polygon fill="#63b8ff" stroke="#63b8ff" points="556.62,-211.84 565,-218.32 562.49,-208.03 556.62,-211.84"/>
</g>
<!-- Node15 -->
<g id="node15" class="node">
<title>Node15</title>
<g id="a_node15"><a xlink:href="bmem_8h.html" target="_top" xlink:title="Data types and functions for accessing banked memory.">
<polygon fill="white" stroke="#666666" points="648.5,-184 563.5,-184 563.5,-165 648.5,-165 648.5,-184"/>
<text text-anchor="middle" x="606" y="-172" font-family="Helvetica,sans-Serif" font-size="10.00">include/bmem.h</text>
</a>
</g>
</g>
<!-- Node13&#45;&gt;Node15 -->
<g id="edge24" class="edge">
<title>Node13&#45;&gt;Node15</title>
<path fill="none" stroke="#63b8ff" d="M582.98,-210.36C588.75,-201.62 595.43,-191.51 600.09,-184.44"/>
<polygon fill="#63b8ff" stroke="#63b8ff" points="580.2,-208.21 577.61,-218.49 586.04,-212.07 580.2,-208.21"/>
</g>
<!-- Node20 -->
<g id="node20" class="node">
<title>Node20</title>
<g id="a_node20"><a xlink:href="sprite_8h.html" target="_top" xlink:title="Sprites.">
<polygon fill="white" stroke="#666666" points="966,-129 884,-129 884,-110 966,-110 966,-129"/>
<text text-anchor="middle" x="925" y="-117" font-family="Helvetica,sans-Serif" font-size="10.00">include/sprite.h</text>
</a>
</g>
</g>
<!-- Node13&#45;&gt;Node20 -->
<g id="edge32" class="edge">
<title>Node13&#45;&gt;Node20</title>
<path fill="none" stroke="#63b8ff" d="M625.39,-224.93C699.84,-219.28 828.96,-206.55 870,-184 893.78,-170.94 912.04,-143.34 920.25,-129.22"/>
<polygon fill="#63b8ff" stroke="#63b8ff" points="625.15,-221.44 615.44,-225.67 625.67,-228.42 625.15,-221.44"/>
</g>
<!-- Node21 -->
<g id="node21" class="node">
<title>Node21</title>
<g id="a_node21"><a xlink:href="sprite__color_8h.html" target="_top" xlink:title="Sprite color table interface.">
<polygon fill="white" stroke="#666666" points="928,-74 820,-74 820,-55 928,-55 928,-74"/>
<text text-anchor="middle" x="874" y="-62" font-family="Helvetica,sans-Serif" font-size="10.00">include/sprite_color.h</text>
</a>
</g>
</g>
<!-- Node13&#45;&gt;Node21 -->
<g id="edge37" class="edge">
<title>Node13&#45;&gt;Node21</title>
<path fill="none" stroke="#63b8ff" d="M625.05,-224.1C687.05,-218.12 783.9,-205.6 813,-184 851.09,-155.72 867.29,-96.75 872.24,-74.37"/>
<polygon fill="#63b8ff" stroke="#63b8ff" points="625.04,-220.59 615.41,-225 625.7,-227.56 625.04,-220.59"/>
</g>
<!-- Node22 -->
<g id="node22" class="node">
<title>Node22</title>
<g id="a_node22"><a xlink:href="vmem__rw_8h.html" target="_top" xlink:title="Stream like access functions for VRAM.">
<polygon fill="white" stroke="#666666" points="506.5,-184 405.5,-184 405.5,-165 506.5,-165 506.5,-184"/>
<text text-anchor="middle" x="456" y="-172" font-family="Helvetica,sans-Serif" font-size="10.00">include/vmem_rw.h</text>
</a>
</g>
</g>
<!-- Node13&#45;&gt;Node22 -->
<g id="edge40" class="edge">
<title>Node13&#45;&gt;Node22</title>
<path fill="none" stroke="#63b8ff" d="M541.27,-214.8C520.45,-205.2 493.24,-192.66 475.22,-184.36"/>
<polygon fill="#63b8ff" stroke="#63b8ff" points="539.57,-217.87 550.12,-218.88 542.5,-211.51 539.57,-217.87"/>
</g>
<!-- Node15&#45;&gt;Node14 -->
<g id="edge25" class="edge">
<title>Node15&#45;&gt;Node14</title>
<path fill="none" stroke="#63b8ff" d="M552,-162.78C502.6,-152.98 430.37,-138.64 384.02,-129.44"/>
<polygon fill="#63b8ff" stroke="#63b8ff" points="551.13,-166.18 561.62,-164.69 552.49,-159.31 551.13,-166.18"/>
</g>
<!-- Node16 -->
<g id="node16" class="node">
<title>Node16</title>
<g id="a_node16"><a xlink:href="bmem__rd_8h.html" target="_top" xlink:title="Stream like access functions for Banked Memory.">
<polygon fill="white" stroke="#666666" points="522,-129 424,-129 424,-110 522,-110 522,-129"/>
<text text-anchor="middle" x="473" y="-117" font-family="Helvetica,sans-Serif" font-size="10.00">include/bmem_rd.h</text>
</a>
</g>
</g>
<!-- Node15&#45;&gt;Node16 -->
<g id="edge26" class="edge">
<title>Node15&#45;&gt;Node16</title>
<path fill="none" stroke="#63b8ff" d="M572.93,-160.32C548.7,-150.67 516.45,-137.82 495.23,-129.36"/>
<polygon fill="#63b8ff" stroke="#63b8ff" points="571.45,-163.5 582.03,-163.95 574.04,-157 571.45,-163.5"/>
</g>
<!-- Node18 -->
<g id="node18" class="node">
<title>Node18</title>
<g id="a_node18"><a xlink:href="memfile_8h.html" target="_top" xlink:title="Stream interface for ROM / RAM / MegaROM.">
<polygon fill="white" stroke="#666666" points="752,-129 660,-129 660,-110 752,-110 752,-129"/>
<text text-anchor="middle" x="706" y="-117" font-family="Helvetica,sans-Serif" font-size="10.00">include/memfile.h</text>
</a>
</g>
</g>
<!-- Node15&#45;&gt;Node18 -->
<g id="edge28" class="edge">
<title>Node15&#45;&gt;Node18</title>
<path fill="none" stroke="#63b8ff" d="M633.11,-159.13C651.04,-149.63 673.98,-137.47 689.29,-129.36"/>
<polygon fill="#63b8ff" stroke="#63b8ff" points="631.5,-156.02 624.3,-163.8 634.78,-162.21 631.5,-156.02"/>
</g>
<!-- Node19 -->
<g id="node19" class="node">
<title>Node19</title>
<g id="a_node19"><a xlink:href="resources_8h.html" target="_top" xlink:title="Data types and functions for accessing embedded resources.">
<polygon fill="white" stroke="#666666" points="641.5,-129 540.5,-129 540.5,-110 641.5,-110 641.5,-129"/>
<text text-anchor="middle" x="591" y="-117" font-family="Helvetica,sans-Serif" font-size="10.00">include/resources.h</text>
</a>
</g>
</g>
<!-- Node15&#45;&gt;Node19 -->
<g id="edge29" class="edge">
<title>Node15&#45;&gt;Node19</title>
<path fill="none" stroke="#63b8ff" d="M600.46,-153.93C598.08,-145.53 595.42,-136.13 593.53,-129.44"/>
<polygon fill="#63b8ff" stroke="#63b8ff" points="597.02,-154.62 603.11,-163.29 603.76,-152.72 597.02,-154.62"/>
</g>
<!-- Node17 -->
<g id="node17" class="node">
<title>Node17</title>
<g id="a_node17"><a xlink:href="xmem_8h.html" target="_top" xlink:title="Inter&#45;memory transfer functions for ROM / RAM, VRAM, and Banked Memory (MegaROM).">
<polygon fill="white" stroke="#666666" points="403,-74 319,-74 319,-55 403,-55 403,-74"/>
<text text-anchor="middle" x="361" y="-62" font-family="Helvetica,sans-Serif" font-size="10.00">include/xmem.h</text>
</a>
</g>
</g>
<!-- Node16&#45;&gt;Node17 -->
<g id="edge27" class="edge">
<title>Node16&#45;&gt;Node17</title>
<path fill="none" stroke="#63b8ff" d="M443.77,-104.67C423.53,-95.09 397.19,-82.62 379.72,-74.36"/>
<polygon fill="#63b8ff" stroke="#63b8ff" points="442.1,-107.75 452.63,-108.86 445.09,-101.42 442.1,-107.75"/>
</g>
<!-- Node20&#45;&gt;Node4 -->
<g id="edge34" class="edge">
<title>Node20&#45;&gt;Node4</title>
<path fill="none" stroke="#63b8ff" d="M935.46,-99.74C941.47,-86.18 946.2,-68.04 937,-55 917.55,-27.42 879.42,-16.84 850.37,-12.82"/>
<polygon fill="#63b8ff" stroke="#63b8ff" points="932.43,-97.97 931.06,-108.48 938.68,-101.12 932.43,-97.97"/>
</g>
<!-- Node20&#45;&gt;Node6 -->
<g id="edge33" class="edge">
<title>Node20&#45;&gt;Node6</title>
<path fill="none" stroke="#63b8ff" d="M884.51,-106.24C852.43,-96.52 808.36,-83.18 779.54,-74.45"/>
<polygon fill="#63b8ff" stroke="#63b8ff" points="883.28,-109.52 893.87,-109.07 885.31,-102.82 883.28,-109.52"/>
</g>
<!-- Node20&#45;&gt;Node21 -->
<g id="edge35" class="edge">
<title>Node20&#45;&gt;Node21</title>
<path fill="none" stroke="#63b8ff" d="M908.64,-101.5C899.98,-92.5 889.7,-81.82 882.6,-74.44"/>
<polygon fill="#63b8ff" stroke="#63b8ff" points="906.07,-103.88 915.53,-108.66 911.12,-99.02 906.07,-103.88"/>
</g>
<!-- Node21&#45;&gt;Node4 -->
<g id="edge36" class="edge">
<title>Node21&#45;&gt;Node4</title>
<path fill="none" stroke="#63b8ff" d="M854.8,-47.09C844.1,-37.94 831.19,-26.9 822.36,-19.36"/>
<polygon fill="#63b8ff" stroke="#63b8ff" points="852.46,-49.69 862.33,-53.53 857.01,-44.37 852.46,-49.69"/>
</g>
<!-- Node22&#45;&gt;Node17 -->
<g id="edge41" class="edge">
<title>Node22&#45;&gt;Node17</title>
<path fill="none" stroke="#63b8ff" d="M394.39,-163.22C341.11,-153.71 271.34,-139.49 263,-129 242.49,-103.22 287.5,-84.58 323.12,-74.41"/>
<polygon fill="#63b8ff" stroke="#63b8ff" points="393.53,-166.62 403.99,-164.91 394.75,-159.73 393.53,-166.62"/>
</g>
</g>
</svg>
