<?xml version="1.0" encoding="UTF-8" standalone="no"?>
<!DOCTYPE svg PUBLIC "-//W3C//DTD SVG 1.1//EN"
 "http://www.w3.org/Graphics/SVG/1.1/DTD/svg11.dtd">
<!-- Generated by graphviz version 7.0.4 (20221203.1631)
 -->
<!-- Title: include/config.h Pages: 1 -->
<svg width="798pt" height="357pt"
 viewBox="0.00 0.00 797.72 357.00" xmlns="http://www.w3.org/2000/svg" xmlns:xlink="http://www.w3.org/1999/xlink">
<g id="graph0" class="graph" transform="scale(1 1) rotate(0) translate(4 353)">
<title>include/config.h</title>
<!-- Node1 -->
<g id="node1" class="node">
<title>Node1</title>
<g id="a_node1"><a xlink:title="Hack for C Compiler portability.">
<polygon fill="#999999" stroke="#666666" points="160.5,-349 77.5,-349 77.5,-330 160.5,-330 160.5,-349"/>
<text text-anchor="middle" x="119" y="-337" font-family="Helvetica,sans-Serif" font-size="10.00">include/config.h</text>
</a>
</g>
</g>
<!-- Node2 -->
<g id="node2" class="node">
<title>Node2</title>
<g id="a_node2"><a xlink:href="bios__const_8h.html" target="_top" xlink:title="Constant variables in the MSX BIOS ROM.">
<polygon fill="white" stroke="#666666" points="171.5,-294 66.5,-294 66.5,-275 171.5,-275 171.5,-294"/>
<text text-anchor="middle" x="119" y="-282" font-family="Helvetica,sans-Serif" font-size="10.00">include/bios_const.h</text>
</a>
</g>
</g>
<!-- Node1&#45;&gt;Node2 -->
<g id="edge1" class="edge">
<title>Node1&#45;&gt;Node2</title>
<path fill="none" stroke="#63b8ff" d="M119,-318.35C119,-310.1 119,-300.97 119,-294.44"/>
<polygon fill="#63b8ff" stroke="#63b8ff" points="115.5,-318.23 119,-328.23 122.5,-318.23 115.5,-318.23"/>
</g>
<!-- Node4 -->
<g id="node4" class="node">
<title>Node4</title>
<g id="a_node4"><a xlink:href="msx_8h.html" target="_top" xlink:title="Using #include &lt;msx.h&gt; includes almost all C header files in libmsx, for ease to use.">
<polygon fill="white" stroke="#666666" points="400,-19 324,-19 324,0 400,0 400,-19"/>
<text text-anchor="middle" x="362" y="-7" font-family="Helvetica,sans-Serif" font-size="10.00">include/msx.h</text>
</a>
</g>
</g>
<!-- Node1&#45;&gt;Node4 -->
<g id="edge33" class="edge">
<title>Node1&#45;&gt;Node4</title>
<path fill="none" stroke="#63b8ff" d="M85.12,-324.97C49.94,-308.42 0,-276.77 0,-230.5 0,-230.5 0,-230.5 0,-118.5 0,-51.52 230.44,-22.67 323.6,-13.74"/>
<polygon fill="#63b8ff" stroke="#63b8ff" points="83.55,-328.1 94.11,-329 86.42,-321.71 83.55,-328.1"/>
</g>
<!-- Node8 -->
<g id="node8" class="node">
<title>Node8</title>
<g id="a_node8"><a xlink:href="workarea_8h.html" target="_top" xlink:title="Definitions of MSX SYSTEM Workarea.">
<polygon fill="white" stroke="#666666" points="126,-184 28,-184 28,-165 126,-165 126,-184"/>
<text text-anchor="middle" x="77" y="-172" font-family="Helvetica,sans-Serif" font-size="10.00">include/workarea.h</text>
</a>
</g>
</g>
<!-- Node1&#45;&gt;Node8 -->
<g id="edge34" class="edge">
<title>Node1&#45;&gt;Node8</title>
<path fill="none" stroke="#63b8ff" d="M87.79,-324.12C75.9,-316.89 63.62,-306.89 57,-294 37.85,-256.69 61.1,-204.92 71.98,-184.39"/>
<polygon fill="#63b8ff" stroke="#63b8ff" points="85.8,-327.01 96.24,-328.8 89.19,-320.89 85.8,-327.01"/>
</g>
<!-- Node9 -->
<g id="node9" class="node">
<title>Node9</title>
<g id="a_node9"><a xlink:href="bios__entry_8h.html" target="_top" xlink:title="Assembler entry points for MSX BIOS functions.">
<polygon fill="white" stroke="#666666" points="292,-294 190,-294 190,-275 292,-275 292,-294"/>
<text text-anchor="middle" x="241" y="-282" font-family="Helvetica,sans-Serif" font-size="10.00">include/bios_entry.h</text>
</a>
</g>
</g>
<!-- Node1&#45;&gt;Node9 -->
<g id="edge13" class="edge">
<title>Node1&#45;&gt;Node9</title>
<path fill="none" stroke="#63b8ff" d="M150.24,-324.93C172.36,-315.32 201.41,-302.7 220.61,-294.36"/>
<polygon fill="#63b8ff" stroke="#63b8ff" points="148.86,-321.71 141.08,-328.91 151.65,-328.13 148.86,-321.71"/>
</g>
<!-- Node10 -->
<g id="node10" class="node">
<title>Node10</title>
<g id="a_node10"><a xlink:href="io_8h.html" target="_top" xlink:title="Definition of I/O ports.">
<polygon fill="white" stroke="#666666" points="420.5,-294 355.5,-294 355.5,-275 420.5,-275 420.5,-294"/>
<text text-anchor="middle" x="388" y="-282" font-family="Helvetica,sans-Serif" font-size="10.00">include/io.h</text>
</a>
</g>
</g>
<!-- Node1&#45;&gt;Node10 -->
<g id="edge15" class="edge">
<title>Node1&#45;&gt;Node10</title>
<path fill="none" stroke="#63b8ff" d="M171.89,-328.08C226.31,-317.36 309.4,-300.99 355.07,-291.99"/>
<polygon fill="#63b8ff" stroke="#63b8ff" points="171.36,-324.62 162.22,-329.98 172.71,-331.49 171.36,-324.62"/>
</g>
<!-- Node3 -->
<g id="node3" class="node">
<title>Node3</title>
<g id="a_node3"><a xlink:href="bios_8h.html" target="_top" xlink:title="C language I/F for MSX BIOS routines.">
<polygon fill="white" stroke="#666666" points="202,-239 126,-239 126,-220 202,-220 202,-239"/>
<text text-anchor="middle" x="164" y="-227" font-family="Helvetica,sans-Serif" font-size="10.00">include/bios.h</text>
</a>
</g>
</g>
<!-- Node2&#45;&gt;Node3 -->
<g id="edge2" class="edge">
<title>Node2&#45;&gt;Node3</title>
<path fill="none" stroke="#63b8ff" d="M133.68,-266.22C141.26,-257.28 150.21,-246.74 156.41,-239.44"/>
<polygon fill="#63b8ff" stroke="#63b8ff" points="131.21,-263.71 127.41,-273.59 136.55,-268.24 131.21,-263.71"/>
</g>
<!-- Node2&#45;&gt;Node8 -->
<g id="edge10" class="edge">
<title>Node2&#45;&gt;Node8</title>
<path fill="none" stroke="#63b8ff" d="M111.5,-264.22C102.35,-240.69 87.26,-201.89 80.48,-184.46"/>
<polygon fill="#63b8ff" stroke="#63b8ff" points="108.13,-265.2 115.01,-273.25 114.65,-262.66 108.13,-265.2"/>
</g>
<!-- Node3&#45;&gt;Node4 -->
<g id="edge3" class="edge">
<title>Node3&#45;&gt;Node4</title>
<path fill="none" stroke="#63b8ff" d="M171.77,-209.07C177.27,-196.18 185.2,-179.1 194,-165 228.83,-109.21 241.82,-96.31 293,-55 310.08,-41.21 331.58,-27.91 346,-19.5"/>
<polygon fill="#63b8ff" stroke="#63b8ff" points="168.61,-207.56 168.03,-218.14 175.08,-210.23 168.61,-207.56"/>
</g>
<!-- Node5 -->
<g id="node5" class="node">
<title>Node5</title>
<g id="a_node5"><a xlink:href="vdp_8h.html" target="_top" xlink:title="Data types and functions for VDP (Video Display Proccessor) access.">
<polygon fill="white" stroke="#666666" points="321,-129 247,-129 247,-110 321,-110 321,-129"/>
<text text-anchor="middle" x="284" y="-117" font-family="Helvetica,sans-Serif" font-size="10.00">include/vdp.h</text>
</a>
</g>
</g>
<!-- Node3&#45;&gt;Node5 -->
<g id="edge4" class="edge">
<title>Node3&#45;&gt;Node5</title>
<path fill="none" stroke="#63b8ff" d="M176.5,-210.39C186.31,-196.95 200.8,-178.66 216,-165 231.95,-150.67 252.93,-137.67 267.35,-129.47"/>
<polygon fill="#63b8ff" stroke="#63b8ff" points="173.8,-208.15 170.86,-218.33 179.5,-212.21 173.8,-208.15"/>
</g>
<!-- Node7 -->
<g id="node7" class="node">
<title>Node7</title>
<g id="a_node7"><a xlink:href="vdp__unsafe_8h.html" target="_top" xlink:title="Unsafe primitive functions for VDP (Video Display Proccessor) access.">
<polygon fill="white" stroke="#666666" points="366,-184 258,-184 258,-165 366,-165 366,-184"/>
<text text-anchor="middle" x="312" y="-172" font-family="Helvetica,sans-Serif" font-size="10.00">include/vdp_unsafe.h</text>
</a>
</g>
</g>
<!-- Node3&#45;&gt;Node7 -->
<g id="edge8" class="edge">
<title>Node3&#45;&gt;Node7</title>
<path fill="none" stroke="#63b8ff" d="M199.71,-215.71C226.79,-206.01 263.33,-192.93 287.26,-184.36"/>
<polygon fill="#63b8ff" stroke="#63b8ff" points="198.77,-212.33 190.53,-219 201.13,-218.92 198.77,-212.33"/>
</g>
<!-- Node5&#45;&gt;Node4 -->
<g id="edge7" class="edge">
<title>Node5&#45;&gt;Node4</title>
<path fill="none" stroke="#63b8ff" d="M288.58,-98.84C292.31,-85.6 298.54,-68.21 308,-55 318.61,-40.18 335.33,-27.45 347.35,-19.45"/>
<polygon fill="#63b8ff" stroke="#63b8ff" points="285.29,-97.57 286.2,-108.13 292.07,-99.31 285.29,-97.57"/>
</g>
<!-- Node6 -->
<g id="node6" class="node">
<title>Node6</title>
<g id="a_node6"><a xlink:href="metasprite_8h.html" target="_top" xlink:title="Meta&#45;sprite ; an aggregate of sprites.">
<polygon fill="white" stroke="#666666" points="454,-74 350,-74 350,-55 454,-55 454,-74"/>
<text text-anchor="middle" x="402" y="-62" font-family="Helvetica,sans-Serif" font-size="10.00">include/metasprite.h</text>
</a>
</g>
</g>
<!-- Node5&#45;&gt;Node6 -->
<g id="edge5" class="edge">
<title>Node5&#45;&gt;Node6</title>
<path fill="none" stroke="#63b8ff" d="M314.51,-104.8C335.87,-95.2 363.79,-82.66 382.28,-74.36"/>
<polygon fill="#63b8ff" stroke="#63b8ff" points="313.09,-101.6 305.4,-108.89 315.95,-107.98 313.09,-101.6"/>
</g>
<!-- Node6&#45;&gt;Node4 -->
<g id="edge6" class="edge">
<title>Node6&#45;&gt;Node4</title>
<path fill="none" stroke="#63b8ff" d="M388.53,-45.65C381.88,-36.84 374.14,-26.59 368.75,-19.44"/>
<polygon fill="#63b8ff" stroke="#63b8ff" points="385.67,-47.67 394.48,-53.54 391.25,-43.45 385.67,-47.67"/>
</g>
<!-- Node7&#45;&gt;Node5 -->
<g id="edge9" class="edge">
<title>Node7&#45;&gt;Node5</title>
<path fill="none" stroke="#63b8ff" d="M302.12,-154.79C297.57,-146.18 292.38,-136.36 288.72,-129.44"/>
<polygon fill="#63b8ff" stroke="#63b8ff" points="298.9,-156.2 306.67,-163.41 305.09,-152.93 298.9,-156.2"/>
</g>
<!-- Node8&#45;&gt;Node4 -->
<g id="edge11" class="edge">
<title>Node8&#45;&gt;Node4</title>
<path fill="none" stroke="#63b8ff" d="M81.85,-153.63C89.47,-126.83 106.93,-79.62 140,-55 168.61,-33.7 268.24,-20.23 323.81,-14.2"/>
<polygon fill="#63b8ff" stroke="#63b8ff" points="78.49,-152.64 79.33,-163.2 85.26,-154.42 78.49,-152.64"/>
</g>
<!-- Node8&#45;&gt;Node5 -->
<g id="edge12" class="edge">
<title>Node8&#45;&gt;Node5</title>
<path fill="none" stroke="#63b8ff" d="M122.92,-161.74C161.01,-151.99 214.37,-138.33 249.06,-129.45"/>
<polygon fill="#63b8ff" stroke="#63b8ff" points="122.4,-158.26 113.58,-164.13 124.14,-165.04 122.4,-158.26"/>
</g>
<!-- Node9&#45;&gt;Node3 -->
<g id="edge14" class="edge">
<title>Node9&#45;&gt;Node3</title>
<path fill="none" stroke="#63b8ff" d="M218.75,-268.19C205.17,-258.84 188.27,-247.21 176.87,-239.36"/>
<polygon fill="#63b8ff" stroke="#63b8ff" points="216.47,-270.86 226.69,-273.65 220.44,-265.1 216.47,-270.86"/>
</g>
<!-- Node10&#45;&gt;Node4 -->
<g id="edge16" class="edge">
<title>Node10&#45;&gt;Node4</title>
<path fill="none" stroke="#63b8ff" d="M432.17,-284.03C505.88,-282.35 646,-267.11 646,-175.5 646,-175.5 646,-175.5 646,-118.5 646,-84.91 632.93,-73.67 605,-55 572.02,-32.95 459.8,-19.53 400.1,-13.78"/>
<polygon fill="#63b8ff" stroke="#63b8ff" points="432.4,-280.53 422.45,-284.17 432.5,-287.52 432.4,-280.53"/>
</g>
<!-- Node10&#45;&gt;Node5 -->
<g id="edge20" class="edge">
<title>Node10&#45;&gt;Node5</title>
<path fill="none" stroke="#63b8ff" d="M353.57,-270.01C319.95,-254.76 270.79,-226.4 249,-184 238.87,-164.3 259.21,-141.67 272.92,-129.45"/>
<polygon fill="#63b8ff" stroke="#63b8ff" points="351.92,-273.11 362.49,-273.9 354.72,-266.7 351.92,-273.11"/>
</g>
<!-- Node10&#45;&gt;Node7 -->
<g id="edge21" class="edge">
<title>Node10&#45;&gt;Node7</title>
<path fill="none" stroke="#63b8ff" d="M375.33,-265.49C358.88,-242.11 330.79,-202.2 318.31,-184.46"/>
<polygon fill="#63b8ff" stroke="#63b8ff" points="372.29,-267.26 380.91,-273.42 378.02,-263.23 372.29,-267.26"/>
</g>
<!-- Node11 -->
<g id="node11" class="node">
<title>Node11</title>
<g id="a_node11"><a xlink:href="psg_8h.html" target="_top" xlink:title="Device interface for PSG (AY&#45;3&#45;8910) an internal sound chip.">
<polygon fill="white" stroke="#666666" points="763,-239 689,-239 689,-220 763,-220 763,-239"/>
<text text-anchor="middle" x="726" y="-227" font-family="Helvetica,sans-Serif" font-size="10.00">include/psg.h</text>
</a>
</g>
</g>
<!-- Node10&#45;&gt;Node11 -->
<g id="edge17" class="edge">
<title>Node10&#45;&gt;Node11</title>
<path fill="none" stroke="#63b8ff" d="M431.72,-276.64C498.74,-266.14 625.71,-246.23 688.67,-236.35"/>
<polygon fill="#63b8ff" stroke="#63b8ff" points="431.55,-273.13 422.21,-278.14 432.63,-280.04 431.55,-273.13"/>
</g>
<!-- Node13 -->
<g id="node13" class="node">
<title>Node13</title>
<g id="a_node13"><a xlink:href="vmem_8h.html" target="_top" xlink:title="Data types and functions for VRAM access.">
<polygon fill="white" stroke="#666666" points="474.5,-239 389.5,-239 389.5,-220 474.5,-220 474.5,-239"/>
<text text-anchor="middle" x="432" y="-227" font-family="Helvetica,sans-Serif" font-size="10.00">include/vmem.h</text>
</a>
</g>
</g>
<!-- Node10&#45;&gt;Node13 -->
<g id="edge22" class="edge">
<title>Node10&#45;&gt;Node13</title>
<path fill="none" stroke="#63b8ff" d="M402.58,-265.93C409.95,-257.06 418.58,-246.67 424.58,-239.44"/>
<polygon fill="#63b8ff" stroke="#63b8ff" points="399.93,-263.65 396.23,-273.58 405.31,-268.13 399.93,-263.65"/>
</g>
<!-- Node11&#45;&gt;Node4 -->
<g id="edge19" class="edge">
<title>Node11&#45;&gt;Node4</title>
<path fill="none" stroke="#63b8ff" d="M756.1,-214.15C775.73,-202.59 796.14,-185.01 787,-165 755.97,-97.08 727.84,-86.2 660,-55 573.27,-15.12 458.75,-9.48 400.14,-9.54"/>
<polygon fill="#63b8ff" stroke="#63b8ff" points="754.5,-211.04 747.39,-218.9 757.85,-217.18 754.5,-211.04"/>
</g>
<!-- Node12 -->
<g id="node12" class="node">
<title>Node12</title>
<g id="a_node12"><a xlink:href="ay__3__8910_8h.html" target="_top" xlink:title="Buffer for PSG (AY&#45;3&#45;8910) registers.">
<polygon fill="white" stroke="#666666" points="778,-184 674,-184 674,-165 778,-165 778,-184"/>
<text text-anchor="middle" x="726" y="-172" font-family="Helvetica,sans-Serif" font-size="10.00">include/ay_3_8910.h</text>
</a>
</g>
</g>
<!-- Node11&#45;&gt;Node12 -->
<g id="edge18" class="edge">
<title>Node11&#45;&gt;Node12</title>
<path fill="none" stroke="#63b8ff" d="M726,-208.35C726,-200.1 726,-190.97 726,-184.44"/>
<polygon fill="#63b8ff" stroke="#63b8ff" points="722.5,-208.23 726,-218.23 729.5,-208.23 722.5,-208.23"/>
</g>
<!-- Node13&#45;&gt;Node4 -->
<g id="edge24" class="edge">
<title>Node13&#45;&gt;Node4</title>
<path fill="none" stroke="#63b8ff" d="M422.65,-209.45C416.27,-196.71 407.46,-179.67 399,-165 375.03,-123.46 354.43,-120.04 341,-74 335.28,-54.38 347.35,-31.72 355.45,-19.48"/>
<polygon fill="#63b8ff" stroke="#63b8ff" points="419.5,-210.98 427.08,-218.39 425.78,-207.87 419.5,-210.98"/>
</g>
<!-- Node13&#45;&gt;Node5 -->
<g id="edge31" class="edge">
<title>Node13&#45;&gt;Node5</title>
<path fill="none" stroke="#63b8ff" d="M419.13,-210.75C408.47,-196.98 392.31,-178.08 375,-165 354.37,-149.42 327.43,-137.06 308.23,-129.36"/>
<polygon fill="#63b8ff" stroke="#63b8ff" points="416.15,-212.61 424.95,-218.51 421.75,-208.41 416.15,-212.61"/>
</g>
<!-- Node13&#45;&gt;Node6 -->
<g id="edge23" class="edge">
<title>Node13&#45;&gt;Node6</title>
<path fill="none" stroke="#63b8ff" d="M440.55,-209.31C445.09,-196.73 449.15,-179.9 446,-165 438.5,-129.52 417.5,-91.29 407.47,-74.39"/>
<polygon fill="#63b8ff" stroke="#63b8ff" points="437.35,-207.9 436.83,-218.48 443.83,-210.53 437.35,-207.9"/>
</g>
<!-- Node13&#45;&gt;Node7 -->
<g id="edge32" class="edge">
<title>Node13&#45;&gt;Node7</title>
<path fill="none" stroke="#63b8ff" d="M401.28,-214.93C379.51,-205.32 350.95,-192.7 332.06,-184.36"/>
<polygon fill="#63b8ff" stroke="#63b8ff" points="399.7,-218.06 410.26,-218.9 402.53,-211.66 399.7,-218.06"/>
</g>
<!-- Node14 -->
<g id="node14" class="node">
<title>Node14</title>
<g id="a_node14"><a xlink:href="sprite_8h.html" target="_top" xlink:title="Sprites.">
<polygon fill="white" stroke="#666666" points="618,-129 536,-129 536,-110 618,-110 618,-129"/>
<text text-anchor="middle" x="577" y="-117" font-family="Helvetica,sans-Serif" font-size="10.00">include/sprite.h</text>
</a>
</g>
</g>
<!-- Node13&#45;&gt;Node14 -->
<g id="edge25" class="edge">
<title>Node13&#45;&gt;Node14</title>
<path fill="none" stroke="#63b8ff" d="M466.81,-215.17C484.33,-207.53 505.33,-196.89 522,-184 543,-167.77 561.94,-142.52 571.13,-129.28"/>
<polygon fill="#63b8ff" stroke="#63b8ff" points="465.68,-211.85 457.81,-218.95 468.39,-218.3 465.68,-211.85"/>
</g>
<!-- Node15 -->
<g id="node15" class="node">
<title>Node15</title>
<g id="a_node15"><a xlink:href="sprite__color_8h.html" target="_top" xlink:title="Sprite color table interface.">
<polygon fill="white" stroke="#666666" points="580,-74 472,-74 472,-55 580,-55 580,-74"/>
<text text-anchor="middle" x="526" y="-62" font-family="Helvetica,sans-Serif" font-size="10.00">include/sprite_color.h</text>
</a>
</g>
</g>
<!-- Node13&#45;&gt;Node15 -->
<g id="edge30" class="edge">
<title>Node13&#45;&gt;Node15</title>
<path fill="none" stroke="#63b8ff" d="M443.77,-210.29C448.86,-202.28 454.82,-192.74 460,-184 484.01,-143.48 510.79,-93.95 521.35,-74.21"/>
<polygon fill="#63b8ff" stroke="#63b8ff" points="440.99,-208.14 438.54,-218.45 446.88,-211.92 440.99,-208.14"/>
</g>
<!-- Node14&#45;&gt;Node4 -->
<g id="edge27" class="edge">
<title>Node14&#45;&gt;Node4</title>
<path fill="none" stroke="#63b8ff" d="M587.83,-99.72C594.21,-85.91 599.24,-67.44 589,-55 565.52,-26.47 458.52,-15.96 400.2,-12.31"/>
<polygon fill="#63b8ff" stroke="#63b8ff" points="584.9,-97.77 583.38,-108.26 591.1,-101.01 584.9,-97.77"/>
</g>
<!-- Node14&#45;&gt;Node6 -->
<g id="edge26" class="edge">
<title>Node14&#45;&gt;Node6</title>
<path fill="none" stroke="#63b8ff" d="M536.51,-106.24C504.43,-96.52 460.36,-83.18 431.54,-74.45"/>
<polygon fill="#63b8ff" stroke="#63b8ff" points="535.28,-109.52 545.87,-109.07 537.31,-102.82 535.28,-109.52"/>
</g>
<!-- Node14&#45;&gt;Node15 -->
<g id="edge28" class="edge">
<title>Node14&#45;&gt;Node15</title>
<path fill="none" stroke="#63b8ff" d="M560.64,-101.5C551.98,-92.5 541.7,-81.82 534.6,-74.44"/>
<polygon fill="#63b8ff" stroke="#63b8ff" points="558.07,-103.88 567.53,-108.66 563.12,-99.02 558.07,-103.88"/>
</g>
<!-- Node15&#45;&gt;Node4 -->
<g id="edge29" class="edge">
<title>Node15&#45;&gt;Node4</title>
<path fill="none" stroke="#63b8ff" d="M487.27,-50.98C457.27,-41.29 416.46,-28.1 389.68,-19.45"/>
<polygon fill="#63b8ff" stroke="#63b8ff" points="486.15,-54.3 496.74,-54.04 488.3,-47.64 486.15,-54.3"/>
</g>
</g>
</svg>
