<?xml version="1.0" encoding="UTF-8" standalone="no"?>
<!DOCTYPE svg PUBLIC "-//W3C//DTD SVG 1.1//EN"
 "http://www.w3.org/Graphics/SVG/1.1/DTD/svg11.dtd">
<!-- Generated by graphviz version 7.0.5 (20221223.1930)
 -->
<!-- Title: include/config.h Pages: 1 -->
<svg width="915pt" height="357pt"
 viewBox="0.00 0.00 915.00 357.00" xmlns="http://www.w3.org/2000/svg" xmlns:xlink="http://www.w3.org/1999/xlink">
<g id="graph0" class="graph" transform="scale(1 1) rotate(0) translate(4 353)">
<title>include/config.h</title>
<!-- Node1 -->
<g id="node1" class="node">
<title>Node1</title>
<g id="a_node1"><a xlink:title="Hack for C Compiler portability.">
<polygon fill="#999999" stroke="#666666" points="305.5,-349 222.5,-349 222.5,-330 305.5,-330 305.5,-349"/>
<text text-anchor="middle" x="264" y="-337" font-family="Helvetica,sans-Serif" font-size="10.00">include/config.h</text>
</a>
</g>
</g>
<!-- Node2 -->
<g id="node2" class="node">
<title>Node2</title>
<g id="a_node2"><a xlink:href="bios__const_8h.html" target="_top" xlink:title="Constant variables in the MSX BIOS ROM.">
<polygon fill="white" stroke="#666666" points="194.5,-294 89.5,-294 89.5,-275 194.5,-275 194.5,-294"/>
<text text-anchor="middle" x="142" y="-282" font-family="Helvetica,sans-Serif" font-size="10.00">include/bios_const.h</text>
</a>
</g>
</g>
<!-- Node1&#45;&gt;Node2 -->
<g id="edge1" class="edge">
<title>Node1&#45;&gt;Node2</title>
<path fill="none" stroke="#63b8ff" d="M232.76,-324.93C210.64,-315.32 181.59,-302.7 162.39,-294.36"/>
<polygon fill="#63b8ff" stroke="#63b8ff" points="231.35,-328.13 241.92,-328.91 234.14,-321.71 231.35,-328.13"/>
</g>
<!-- Node4 -->
<g id="node4" class="node">
<title>Node4</title>
<g id="a_node4"><a xlink:href="msx_8h.html" target="_top" xlink:title="Using #include &lt;msx.h&gt; includes almost all C header files in libmsx, for ease to use.">
<polygon fill="white" stroke="#666666" points="385,-19 309,-19 309,0 385,0 385,-19"/>
<text text-anchor="middle" x="347" y="-7" font-family="Helvetica,sans-Serif" font-size="10.00">include/msx.h</text>
</a>
</g>
</g>
<!-- Node1&#45;&gt;Node4 -->
<g id="edge39" class="edge">
<title>Node1&#45;&gt;Node4</title>
<path fill="none" stroke="#63b8ff" d="M317.15,-335.16C471.18,-324.78 907,-290.14 907,-230.5 907,-230.5 907,-230.5 907,-118.5 907,-12.06 512.01,-8.23 385.49,-9.73"/>
<polygon fill="#63b8ff" stroke="#63b8ff" points="316.95,-331.67 307.2,-335.82 317.41,-338.65 316.95,-331.67"/>
</g>
<!-- Node8 -->
<g id="node8" class="node">
<title>Node8</title>
<g id="a_node8"><a xlink:href="workarea_8h.html" target="_top" xlink:title="Definitions of MSX SYSTEM Workarea.">
<polygon fill="white" stroke="#666666" points="98,-239 0,-239 0,-220 98,-220 98,-239"/>
<text text-anchor="middle" x="49" y="-227" font-family="Helvetica,sans-Serif" font-size="10.00">include/workarea.h</text>
</a>
</g>
</g>
<!-- Node1&#45;&gt;Node8 -->
<g id="edge40" class="edge">
<title>Node1&#45;&gt;Node8</title>
<path fill="none" stroke="#63b8ff" d="M210.95,-337.24C171.35,-333.74 117.93,-323.34 81,-294 63.21,-279.87 54.46,-253.25 50.95,-239.39"/>
<polygon fill="#63b8ff" stroke="#63b8ff" points="210.5,-340.71 220.73,-337.97 211.02,-333.73 210.5,-340.71"/>
</g>
<!-- Node9 -->
<g id="node9" class="node">
<title>Node9</title>
<g id="a_node9"><a xlink:href="bios__entry_8h.html" target="_top" xlink:title="Assembler entry points for MSX BIOS functions.">
<polygon fill="white" stroke="#666666" points="315,-294 213,-294 213,-275 315,-275 315,-294"/>
<text text-anchor="middle" x="264" y="-282" font-family="Helvetica,sans-Serif" font-size="10.00">include/bios_entry.h</text>
</a>
</g>
</g>
<!-- Node1&#45;&gt;Node9 -->
<g id="edge13" class="edge">
<title>Node1&#45;&gt;Node9</title>
<path fill="none" stroke="#63b8ff" d="M264,-318.35C264,-310.1 264,-300.97 264,-294.44"/>
<polygon fill="#63b8ff" stroke="#63b8ff" points="260.5,-318.23 264,-328.23 267.5,-318.23 260.5,-318.23"/>
</g>
<!-- Node10 -->
<g id="node10" class="node">
<title>Node10</title>
<g id="a_node10"><a xlink:href="io_8h.html" target="_top" xlink:title="Definition of I/O ports.">
<polygon fill="white" stroke="#666666" points="402.5,-294 337.5,-294 337.5,-275 402.5,-275 402.5,-294"/>
<text text-anchor="middle" x="370" y="-282" font-family="Helvetica,sans-Serif" font-size="10.00">include/io.h</text>
</a>
</g>
</g>
<!-- Node1&#45;&gt;Node10 -->
<g id="edge15" class="edge">
<title>Node1&#45;&gt;Node10</title>
<path fill="none" stroke="#63b8ff" d="M292.2,-324.4C311.28,-314.86 335.9,-302.55 352.28,-294.36"/>
<polygon fill="#63b8ff" stroke="#63b8ff" points="290.71,-321.23 283.34,-328.83 293.84,-327.49 290.71,-321.23"/>
</g>
<!-- Node3 -->
<g id="node3" class="node">
<title>Node3</title>
<g id="a_node3"><a xlink:href="bios_8h.html" target="_top" xlink:title="C language I/F for MSX BIOS routines.">
<polygon fill="white" stroke="#666666" points="192,-239 116,-239 116,-220 192,-220 192,-239"/>
<text text-anchor="middle" x="154" y="-227" font-family="Helvetica,sans-Serif" font-size="10.00">include/bios.h</text>
</a>
</g>
</g>
<!-- Node2&#45;&gt;Node3 -->
<g id="edge2" class="edge">
<title>Node2&#45;&gt;Node3</title>
<path fill="none" stroke="#63b8ff" d="M146.5,-263.64C148.38,-255.31 150.48,-246.05 151.98,-239.44"/>
<polygon fill="#63b8ff" stroke="#63b8ff" points="143.11,-262.75 144.32,-273.27 149.94,-264.29 143.11,-262.75"/>
</g>
<!-- Node2&#45;&gt;Node8 -->
<g id="edge10" class="edge">
<title>Node2&#45;&gt;Node8</title>
<path fill="none" stroke="#63b8ff" d="M116.56,-269C99.92,-259.52 78.71,-247.43 64.54,-239.36"/>
<polygon fill="#63b8ff" stroke="#63b8ff" points="114.49,-271.85 124.91,-273.76 117.95,-265.77 114.49,-271.85"/>
</g>
<!-- Node3&#45;&gt;Node4 -->
<g id="edge3" class="edge">
<title>Node3&#45;&gt;Node4</title>
<path fill="none" stroke="#63b8ff" d="M130.1,-212.97C120.74,-205.46 111.05,-195.56 106,-184 81.46,-127.79 107.54,-93.85 155,-55 198.95,-19.02 266.63,-10.99 308.79,-9.79"/>
<polygon fill="#63b8ff" stroke="#63b8ff" points="127.83,-215.64 137.95,-218.75 131.98,-210 127.83,-215.64"/>
</g>
<!-- Node5 -->
<g id="node5" class="node">
<title>Node5</title>
<g id="a_node5"><a xlink:href="vdp_8h.html" target="_top" xlink:title="Data types and functions for VDP (Video Display Proccessor) access.">
<polygon fill="white" stroke="#666666" points="213,-129 139,-129 139,-110 213,-110 213,-129"/>
<text text-anchor="middle" x="176" y="-117" font-family="Helvetica,sans-Serif" font-size="10.00">include/vdp.h</text>
</a>
</g>
</g>
<!-- Node3&#45;&gt;Node5 -->
<g id="edge4" class="edge">
<title>Node3&#45;&gt;Node5</title>
<path fill="none" stroke="#63b8ff" d="M132.6,-212.55C118.55,-200 104.25,-181.89 113,-165 121.62,-148.35 139.66,-136.61 154.23,-129.38"/>
<polygon fill="#63b8ff" stroke="#63b8ff" points="130.01,-214.94 139.94,-218.61 134.46,-209.55 130.01,-214.94"/>
</g>
<!-- Node7 -->
<g id="node7" class="node">
<title>Node7</title>
<g id="a_node7"><a xlink:href="vdp__unsafe_8h.html" target="_top" xlink:title="Unsafe primitive functions for VDP (Video Display Proccessor) access.">
<polygon fill="white" stroke="#666666" points="230,-184 122,-184 122,-165 230,-165 230,-184"/>
<text text-anchor="middle" x="176" y="-172" font-family="Helvetica,sans-Serif" font-size="10.00">include/vdp_unsafe.h</text>
</a>
</g>
</g>
<!-- Node3&#45;&gt;Node7 -->
<g id="edge8" class="edge">
<title>Node3&#45;&gt;Node7</title>
<path fill="none" stroke="#63b8ff" d="M162,-209.22C165.52,-200.74 169.48,-191.21 172.29,-184.44"/>
<polygon fill="#63b8ff" stroke="#63b8ff" points="158.81,-207.77 158.21,-218.35 165.28,-210.46 158.81,-207.77"/>
</g>
<!-- Node5&#45;&gt;Node4 -->
<g id="edge7" class="edge">
<title>Node5&#45;&gt;Node4</title>
<path fill="none" stroke="#63b8ff" d="M165.59,-99.43C159.66,-85.72 155.18,-67.51 165,-55 182.52,-32.68 260.72,-20.11 308.73,-14.37"/>
<polygon fill="#63b8ff" stroke="#63b8ff" points="162.4,-100.88 169.95,-108.31 168.68,-97.79 162.4,-100.88"/>
</g>
<!-- Node6 -->
<g id="node6" class="node">
<title>Node6</title>
<g id="a_node6"><a xlink:href="metasprite_8h.html" target="_top" xlink:title="Meta&#45;sprite ; an aggregate of sprites.">
<polygon fill="white" stroke="#666666" points="278,-74 174,-74 174,-55 278,-55 278,-74"/>
<text text-anchor="middle" x="226" y="-62" font-family="Helvetica,sans-Serif" font-size="10.00">include/metasprite.h</text>
</a>
</g>
</g>
<!-- Node5&#45;&gt;Node6 -->
<g id="edge5" class="edge">
<title>Node5&#45;&gt;Node6</title>
<path fill="none" stroke="#63b8ff" d="M192.04,-101.5C200.53,-92.5 210.6,-81.82 217.56,-74.44"/>
<polygon fill="#63b8ff" stroke="#63b8ff" points="189.61,-98.97 185.3,-108.65 194.7,-103.78 189.61,-98.97"/>
</g>
<!-- Node6&#45;&gt;Node4 -->
<g id="edge6" class="edge">
<title>Node6&#45;&gt;Node4</title>
<path fill="none" stroke="#63b8ff" d="M256.98,-49.93C278.92,-40.32 307.73,-27.7 326.78,-19.36"/>
<polygon fill="#63b8ff" stroke="#63b8ff" points="255.67,-46.68 247.91,-53.9 258.48,-53.1 255.67,-46.68"/>
</g>
<!-- Node7&#45;&gt;Node5 -->
<g id="edge9" class="edge">
<title>Node7&#45;&gt;Node5</title>
<path fill="none" stroke="#63b8ff" d="M176,-153.35C176,-145.1 176,-135.97 176,-129.44"/>
<polygon fill="#63b8ff" stroke="#63b8ff" points="172.5,-153.23 176,-163.23 179.5,-153.23 172.5,-153.23"/>
</g>
<!-- Node8&#45;&gt;Node4 -->
<g id="edge11" class="edge">
<title>Node8&#45;&gt;Node4</title>
<path fill="none" stroke="#63b8ff" d="M51.73,-208.31C57.98,-170.8 77.12,-90.93 130,-55 184.24,-18.15 262.49,-10.65 308.7,-9.75"/>
<polygon fill="#63b8ff" stroke="#63b8ff" points="48.27,-207.76 50.24,-218.17 55.19,-208.8 48.27,-207.76"/>
</g>
<!-- Node8&#45;&gt;Node5 -->
<g id="edge12" class="edge">
<title>Node8&#45;&gt;Node5</title>
<path fill="none" stroke="#63b8ff" d="M62.65,-210.83C73.53,-197.37 89.63,-178.87 106,-165 122.81,-150.76 144.53,-137.65 159.29,-129.4"/>
<polygon fill="#63b8ff" stroke="#63b8ff" points="60.11,-208.39 56.65,-218.4 65.6,-212.73 60.11,-208.39"/>
</g>
<!-- Node9&#45;&gt;Node3 -->
<g id="edge14" class="edge">
<title>Node9&#45;&gt;Node3</title>
<path fill="none" stroke="#63b8ff" d="M235.01,-269.53C215.17,-259.97 189.46,-247.59 172.38,-239.36"/>
<polygon fill="#63b8ff" stroke="#63b8ff" points="233.45,-272.66 243.98,-273.85 236.49,-266.36 233.45,-272.66"/>
</g>
<!-- Node10&#45;&gt;Node4 -->
<g id="edge16" class="edge">
<title>Node10&#45;&gt;Node4</title>
<path fill="none" stroke="#63b8ff" d="M413.73,-277.28C478.3,-266.53 601.08,-240.03 690,-184 723.79,-162.71 760.45,-144.89 741,-110 718.36,-69.39 695.69,-70.91 652,-55 560.23,-21.59 444.3,-13.2 385.3,-11.14"/>
<polygon fill="#63b8ff" stroke="#63b8ff" points="413.56,-273.76 404.25,-278.8 414.68,-280.67 413.56,-273.76"/>
</g>
<!-- Node10&#45;&gt;Node5 -->
<g id="edge20" class="edge">
<title>Node10&#45;&gt;Node5</title>
<path fill="none" stroke="#63b8ff" d="M352.01,-267.18C316.8,-235.23 241.93,-167.34 239,-165 222.48,-151.78 202.36,-137.92 189.37,-129.26"/>
<polygon fill="#63b8ff" stroke="#63b8ff" points="349.54,-269.66 359.3,-273.79 354.25,-264.48 349.54,-269.66"/>
</g>
<!-- Node10&#45;&gt;Node7 -->
<g id="edge21" class="edge">
<title>Node10&#45;&gt;Node7</title>
<path fill="none" stroke="#63b8ff" d="M325.99,-272.79C300.84,-265.51 269.37,-254.39 244,-239 218.59,-223.58 194.58,-197.52 183.08,-184.09"/>
<polygon fill="#63b8ff" stroke="#63b8ff" points="325.02,-276.15 335.59,-275.46 326.89,-269.41 325.02,-276.15"/>
</g>
<!-- Node11 -->
<g id="node11" class="node">
<title>Node11</title>
<g id="a_node11"><a xlink:href="psg_8h.html" target="_top" xlink:title="Device interface for PSG (AY&#45;3&#45;8910) an internal sound chip.">
<polygon fill="white" stroke="#666666" points="826,-239 752,-239 752,-220 826,-220 826,-239"/>
<text text-anchor="middle" x="789" y="-227" font-family="Helvetica,sans-Serif" font-size="10.00">include/psg.h</text>
</a>
</g>
</g>
<!-- Node10&#45;&gt;Node11 -->
<g id="edge17" class="edge">
<title>Node10&#45;&gt;Node11</title>
<path fill="none" stroke="#63b8ff" d="M413.92,-278C480.69,-269.63 611.73,-253.18 723,-239 732.28,-237.82 742.3,-236.53 751.65,-235.33"/>
<polygon fill="#63b8ff" stroke="#63b8ff" points="413.6,-274.51 404.11,-279.23 414.47,-281.46 413.6,-274.51"/>
</g>
<!-- Node13 -->
<g id="node13" class="node">
<title>Node13</title>
<g id="a_node13"><a xlink:href="vmem_8h.html" target="_top" xlink:title="Data types and functions for VRAM access.">
<polygon fill="white" stroke="#666666" points="414.5,-239 329.5,-239 329.5,-220 414.5,-220 414.5,-239"/>
<text text-anchor="middle" x="372" y="-227" font-family="Helvetica,sans-Serif" font-size="10.00">include/vmem.h</text>
</a>
</g>
</g>
<!-- Node10&#45;&gt;Node13 -->
<g id="edge22" class="edge">
<title>Node10&#45;&gt;Node13</title>
<path fill="none" stroke="#63b8ff" d="M370.76,-263.35C371.07,-255.1 371.42,-245.97 371.66,-239.44"/>
<polygon fill="#63b8ff" stroke="#63b8ff" points="367.27,-263.11 370.39,-273.24 374.26,-263.37 367.27,-263.11"/>
</g>
<!-- Node11&#45;&gt;Node4 -->
<g id="edge19" class="edge">
<title>Node11&#45;&gt;Node4</title>
<path fill="none" stroke="#63b8ff" d="M819.82,-213.94C831.49,-206.71 843.52,-196.74 850,-184 853.83,-176.47 852.51,-173.06 850,-165 832.31,-108.27 825.12,-85.3 774,-55 708.76,-16.33 477.42,-11.02 385.28,-10.47"/>
<polygon fill="#63b8ff" stroke="#63b8ff" points="818.1,-210.89 811.12,-218.86 821.55,-216.99 818.1,-210.89"/>
</g>
<!-- Node12 -->
<g id="node12" class="node">
<title>Node12</title>
<g id="a_node12"><a xlink:href="ay__3__8910_8h.html" target="_top" xlink:title="Buffer for PSG (AY&#45;3&#45;8910) registers.">
<polygon fill="white" stroke="#666666" points="841,-184 737,-184 737,-165 841,-165 841,-184"/>
<text text-anchor="middle" x="789" y="-172" font-family="Helvetica,sans-Serif" font-size="10.00">include/ay_3_8910.h</text>
</a>
</g>
</g>
<!-- Node11&#45;&gt;Node12 -->
<g id="edge18" class="edge">
<title>Node11&#45;&gt;Node12</title>
<path fill="none" stroke="#63b8ff" d="M789,-208.35C789,-200.1 789,-190.97 789,-184.44"/>
<polygon fill="#63b8ff" stroke="#63b8ff" points="785.5,-208.23 789,-218.23 792.5,-208.23 785.5,-208.23"/>
</g>
<!-- Node13&#45;&gt;Node4 -->
<g id="edge28" class="edge">
<title>Node13&#45;&gt;Node4</title>
<path fill="none" stroke="#63b8ff" d="M390.04,-212.18C422.96,-180.37 486.31,-108.51 451,-55 436.51,-33.03 408.69,-21.87 385.47,-16.22"/>
<polygon fill="#63b8ff" stroke="#63b8ff" points="388.02,-209.27 383.13,-218.67 392.82,-214.37 388.02,-209.27"/>
</g>
<!-- Node13&#45;&gt;Node5 -->
<g id="edge35" class="edge">
<title>Node13&#45;&gt;Node5</title>
<path fill="none" stroke="#63b8ff" d="M349.65,-213.11C329.71,-199.67 299.51,-180.03 272,-165 247.01,-151.35 217.09,-137.92 197.37,-129.44"/>
<polygon fill="#63b8ff" stroke="#63b8ff" points="347.58,-215.93 357.82,-218.66 351.52,-210.14 347.58,-215.93"/>
</g>
<!-- Node13&#45;&gt;Node6 -->
<g id="edge27" class="edge">
<title>Node13&#45;&gt;Node6</title>
<path fill="none" stroke="#63b8ff" d="M356.48,-211.18C325.53,-176.62 257.11,-100.23 233.89,-74.31"/>
<polygon fill="#63b8ff" stroke="#63b8ff" points="353.86,-213.5 363.14,-218.61 359.08,-208.82 353.86,-213.5"/>
</g>
<!-- Node13&#45;&gt;Node7 -->
<g id="edge36" class="edge">
<title>Node13&#45;&gt;Node7</title>
<path fill="none" stroke="#63b8ff" d="M328.06,-216.62C292.02,-206.87 241.79,-193.29 209.08,-184.45"/>
<polygon fill="#63b8ff" stroke="#63b8ff" points="326.72,-219.88 337.29,-219.11 328.55,-213.13 326.72,-219.88"/>
</g>
<!-- Node14 -->
<g id="node14" class="node">
<title>Node14</title>
<g id="a_node14"><a xlink:href="bmem_8h.html" target="_top" xlink:title="Data types and functions for accessing banked memory.">
<polygon fill="white" stroke="#666666" points="680.5,-184 595.5,-184 595.5,-165 680.5,-165 680.5,-184"/>
<text text-anchor="middle" x="638" y="-172" font-family="Helvetica,sans-Serif" font-size="10.00">include/bmem.h</text>
</a>
</g>
</g>
<!-- Node13&#45;&gt;Node14 -->
<g id="edge23" class="edge">
<title>Node13&#45;&gt;Node14</title>
<path fill="none" stroke="#63b8ff" d="M425.97,-217.75C475.97,-207.78 549.36,-193.16 595.37,-183.99"/>
<polygon fill="#63b8ff" stroke="#63b8ff" points="425.35,-214.3 416.22,-219.69 426.71,-221.17 425.35,-214.3"/>
</g>
<!-- Node18 -->
<g id="node18" class="node">
<title>Node18</title>
<g id="a_node18"><a xlink:href="sprite_8h.html" target="_top" xlink:title="Sprites.">
<polygon fill="white" stroke="#666666" points="382,-129 300,-129 300,-110 382,-110 382,-129"/>
<text text-anchor="middle" x="341" y="-117" font-family="Helvetica,sans-Serif" font-size="10.00">include/sprite.h</text>
</a>
</g>
</g>
<!-- Node13&#45;&gt;Node18 -->
<g id="edge29" class="edge">
<title>Node13&#45;&gt;Node18</title>
<path fill="none" stroke="#63b8ff" d="M366.37,-208.9C359.61,-185.33 348.55,-146.81 343.57,-129.46"/>
<polygon fill="#63b8ff" stroke="#63b8ff" points="362.92,-209.56 369.05,-218.21 369.65,-207.63 362.92,-209.56"/>
</g>
<!-- Node19 -->
<g id="node19" class="node">
<title>Node19</title>
<g id="a_node19"><a xlink:href="sprite__color_8h.html" target="_top" xlink:title="Sprite color table interface.">
<polygon fill="white" stroke="#666666" points="442,-74 334,-74 334,-55 442,-55 442,-74"/>
<text text-anchor="middle" x="388" y="-62" font-family="Helvetica,sans-Serif" font-size="10.00">include/sprite_color.h</text>
</a>
</g>
</g>
<!-- Node13&#45;&gt;Node19 -->
<g id="edge34" class="edge">
<title>Node13&#45;&gt;Node19</title>
<path fill="none" stroke="#63b8ff" d="M376.98,-208.49C381.67,-188.51 388.36,-156.85 391,-129 391.8,-120.59 391.28,-118.44 391,-110 390.58,-97.62 389.52,-83.33 388.77,-74.36"/>
<polygon fill="#63b8ff" stroke="#63b8ff" points="373.61,-207.51 374.66,-218.06 380.41,-209.16 373.61,-207.51"/>
</g>
<!-- Node20 -->
<g id="node20" class="node">
<title>Node20</title>
<g id="a_node20"><a xlink:href="vmem__rw_8h.html" target="_top" xlink:title="Stream like access functions for VRAM.">
<polygon fill="white" stroke="#666666" points="577.5,-184 476.5,-184 476.5,-165 577.5,-165 577.5,-184"/>
<text text-anchor="middle" x="527" y="-172" font-family="Helvetica,sans-Serif" font-size="10.00">include/vmem_rw.h</text>
</a>
</g>
</g>
<!-- Node13&#45;&gt;Node20 -->
<g id="edge37" class="edge">
<title>Node13&#45;&gt;Node20</title>
<path fill="none" stroke="#63b8ff" d="M408.98,-215.85C437.3,-206.17 475.64,-193.06 500.84,-184.45"/>
<polygon fill="#63b8ff" stroke="#63b8ff" points="408.06,-212.47 399.73,-219.02 410.32,-219.1 408.06,-212.47"/>
</g>
<!-- Node15 -->
<g id="node15" class="node">
<title>Node15</title>
<g id="a_node15"><a xlink:href="bmem__rd_8h.html" target="_top" xlink:title="Stream like access functions for Banked Memory.">
<polygon fill="white" stroke="#666666" points="732,-129 634,-129 634,-110 732,-110 732,-129"/>
<text text-anchor="middle" x="683" y="-117" font-family="Helvetica,sans-Serif" font-size="10.00">include/bmem_rd.h</text>
</a>
</g>
</g>
<!-- Node14&#45;&gt;Node15 -->
<g id="edge24" class="edge">
<title>Node14&#45;&gt;Node15</title>
<path fill="none" stroke="#63b8ff" d="M652.68,-156.22C660.26,-147.28 669.21,-136.74 675.41,-129.44"/>
<polygon fill="#63b8ff" stroke="#63b8ff" points="650.21,-153.71 646.41,-163.59 655.55,-158.24 650.21,-153.71"/>
</g>
<!-- Node17 -->
<g id="node17" class="node">
<title>Node17</title>
<g id="a_node17"><a xlink:href="resources_8h.html" target="_top" xlink:title="Data types and functions for accessing embedded resources.">
<polygon fill="white" stroke="#666666" points="615.5,-129 514.5,-129 514.5,-110 615.5,-110 615.5,-129"/>
<text text-anchor="middle" x="565" y="-117" font-family="Helvetica,sans-Serif" font-size="10.00">include/resources.h</text>
</a>
</g>
</g>
<!-- Node14&#45;&gt;Node17 -->
<g id="edge26" class="edge">
<title>Node14&#45;&gt;Node17</title>
<path fill="none" stroke="#63b8ff" d="M616.53,-157.92C603.72,-148.61 587.9,-137.13 577.2,-129.36"/>
<polygon fill="#63b8ff" stroke="#63b8ff" points="614.24,-160.58 624.39,-163.62 618.36,-154.91 614.24,-160.58"/>
</g>
<!-- Node16 -->
<g id="node16" class="node">
<title>Node16</title>
<g id="a_node16"><a xlink:href="xmem_8h.html" target="_top" xlink:title="Inter&#45;memory transfer functions for ROM / RAM, VRAM, and Banked Memory (MegaROM).">
<polygon fill="white" stroke="#666666" points="643,-74 559,-74 559,-55 643,-55 643,-74"/>
<text text-anchor="middle" x="601" y="-62" font-family="Helvetica,sans-Serif" font-size="10.00">include/xmem.h</text>
</a>
</g>
</g>
<!-- Node15&#45;&gt;Node16 -->
<g id="edge25" class="edge">
<title>Node15&#45;&gt;Node16</title>
<path fill="none" stroke="#63b8ff" d="M659.73,-103.46C645.19,-94.06 626.96,-82.28 614.7,-74.36"/>
<polygon fill="#63b8ff" stroke="#63b8ff" points="657.52,-106.2 667.82,-108.69 661.32,-100.32 657.52,-106.2"/>
</g>
<!-- Node18&#45;&gt;Node4 -->
<g id="edge31" class="edge">
<title>Node18&#45;&gt;Node4</title>
<path fill="none" stroke="#63b8ff" d="M331.46,-99.73C326.24,-87.11 321.47,-70.09 325,-55 328.1,-41.74 335.75,-27.9 341.16,-19.24"/>
<polygon fill="#63b8ff" stroke="#63b8ff" points="328.16,-100.92 335.53,-108.52 334.51,-97.98 328.16,-100.92"/>
</g>
<!-- Node18&#45;&gt;Node6 -->
<g id="edge30" class="edge">
<title>Node18&#45;&gt;Node6</title>
<path fill="none" stroke="#63b8ff" d="M311.27,-104.8C290.45,-95.2 263.24,-82.66 245.22,-74.36"/>
<polygon fill="#63b8ff" stroke="#63b8ff" points="309.57,-107.87 320.12,-108.88 312.5,-101.51 309.57,-107.87"/>
</g>
<!-- Node18&#45;&gt;Node19 -->
<g id="edge32" class="edge">
<title>Node18&#45;&gt;Node19</title>
<path fill="none" stroke="#63b8ff" d="M356.33,-101.22C364.25,-92.28 373.6,-81.74 380.07,-74.44"/>
<polygon fill="#63b8ff" stroke="#63b8ff" points="353.78,-98.81 349.77,-108.62 359.02,-103.46 353.78,-98.81"/>
</g>
<!-- Node19&#45;&gt;Node4 -->
<g id="edge33" class="edge">
<title>Node19&#45;&gt;Node4</title>
<path fill="none" stroke="#63b8ff" d="M374.19,-45.65C367.37,-36.84 359.45,-26.59 353.92,-19.44"/>
<polygon fill="#63b8ff" stroke="#63b8ff" points="371.42,-47.78 380.3,-53.55 376.95,-43.5 371.42,-47.78"/>
</g>
<!-- Node20&#45;&gt;Node16 -->
<g id="edge38" class="edge">
<title>Node20&#45;&gt;Node16</title>
<path fill="none" stroke="#63b8ff" d="M513.21,-155.62C504.73,-142.29 497.06,-124.05 506,-110 517.73,-91.56 539.33,-80.63 558.98,-74.22"/>
<polygon fill="#63b8ff" stroke="#63b8ff" points="510.1,-157.28 518.71,-163.46 515.83,-153.26 510.1,-157.28"/>
</g>
</g>
</svg>
