<?xml version="1.0" encoding="UTF-8" standalone="no"?>
<!DOCTYPE svg PUBLIC "-//W3C//DTD SVG 1.1//EN"
 "http://www.w3.org/Graphics/SVG/1.1/DTD/svg11.dtd">
<!-- Generated by graphviz version 2.49.3 (20211027.1534)
 -->
<!-- Title: include/config.h Pages: 1 -->
<svg width="4924pt" height="319pt"
 viewBox="0.00 0.00 4924.00 319.00" xmlns="http://www.w3.org/2000/svg" xmlns:xlink="http://www.w3.org/1999/xlink">
<g id="graph0" class="graph" transform="scale(1 1) rotate(0) translate(4 315)">
<title>include/config.h</title>
<!-- Node1 -->
<g id="node1" class="node">
<title>Node1</title>
<g id="a_node1"><a xlink:title="Copyright (c) 2022 Daishi Mori (mori0091)">
<polygon fill="#bfbfbf" stroke="black" points="2996.5,-291.5 2996.5,-310.5 3079.5,-310.5 3079.5,-291.5 2996.5,-291.5"/>
<text text-anchor="middle" x="3038" y="-298.5" font-family="Helvetica,sans-Serif" font-size="10.00">include/config.h</text>
</a>
</g>
</g>
<!-- Node2 -->
<g id="node2" class="node">
<title>Node2</title>
<g id="a_node2"><a xlink:href="bios__const_8h.html" target="_top" xlink:title="Constant variables in the MSX BIOS ROM.">
<polygon fill="none" stroke="black" points="1099.5,-235.5 1099.5,-254.5 1204.5,-254.5 1204.5,-235.5 1099.5,-235.5"/>
<text text-anchor="middle" x="1152" y="-242.5" font-family="Helvetica,sans-Serif" font-size="10.00">include/bios_const.h</text>
</a>
</g>
</g>
<!-- Node1&#45;&gt;Node2 -->
<g id="edge1" class="edge">
<title>Node1&#45;&gt;Node2</title>
<path fill="none" stroke="midnightblue" d="M2986.12,-298.51C2716.35,-290.79 1475.8,-255.27 1204.51,-247.5"/>
<polygon fill="midnightblue" stroke="midnightblue" points="2986.31,-302.02 2996.41,-298.81 2986.51,-295.02 2986.31,-302.02"/>
</g>
<!-- Node4 -->
<g id="node4" class="node">
<title>Node4</title>
<g id="a_node4"><a xlink:href="msx_8h.html" target="_top" xlink:title="Copyright (c) 2021 Daishi Mori (mori0091)">
<polygon fill="none" stroke="black" points="4042,-0.5 4042,-19.5 4118,-19.5 4118,-0.5 4042,-0.5"/>
<text text-anchor="middle" x="4080" y="-7.5" font-family="Helvetica,sans-Serif" font-size="10.00">include/msx.h</text>
</a>
</g>
</g>
<!-- Node1&#45;&gt;Node4 -->
<g id="edge59" class="edge">
<title>Node1&#45;&gt;Node4</title>
<path fill="none" stroke="midnightblue" d="M3090,-299.56C3382.72,-296.78 4812,-278.63 4812,-190 4812,-190 4812,-190 4812,-132 4812,-93.83 4804.02,-76.78 4772,-56 4717.02,-20.32 4254.91,-12.78 4118.05,-11.32"/>
<polygon fill="midnightblue" stroke="midnightblue" points="3089.64,-296.07 3079.67,-299.66 3089.7,-303.07 3089.64,-296.07"/>
</g>
<!-- Node52 -->
<g id="node41" class="node">
<title>Node52</title>
<g id="a_node41"><a xlink:href="bios__entry_8h.html" target="_top" xlink:title="Assembler entry points for MSX BIOS functions.">
<polygon fill="none" stroke="black" points="2271,-235.5 2271,-254.5 2373,-254.5 2373,-235.5 2271,-235.5"/>
<text text-anchor="middle" x="2322" y="-242.5" font-family="Helvetica,sans-Serif" font-size="10.00">include/bios_entry.h</text>
</a>
</g>
</g>
<!-- Node1&#45;&gt;Node52 -->
<g id="edge42" class="edge">
<title>Node1&#45;&gt;Node52</title>
<path fill="none" stroke="midnightblue" d="M2986.14,-296.09C2853.78,-286.11 2504.6,-259.77 2373.08,-249.85"/>
<polygon fill="midnightblue" stroke="midnightblue" points="2986.18,-299.6 2996.41,-296.86 2986.7,-292.62 2986.18,-299.6"/>
</g>
<!-- Node53 -->
<g id="node42" class="node">
<title>Node53</title>
<g id="a_node42"><a xlink:href="io_8h.html" target="_top" xlink:title="Copyright (c) 2021 Daishi Mori (mori0091)">
<polygon fill="none" stroke="black" points="2915.5,-235.5 2915.5,-254.5 2980.5,-254.5 2980.5,-235.5 2915.5,-235.5"/>
<text text-anchor="middle" x="2948" y="-242.5" font-family="Helvetica,sans-Serif" font-size="10.00">include/io.h</text>
</a>
</g>
</g>
<!-- Node1&#45;&gt;Node53 -->
<g id="edge44" class="edge">
<title>Node1&#45;&gt;Node53</title>
<path fill="none" stroke="midnightblue" d="M3014.96,-286.18C2998.4,-276.24 2976.58,-263.15 2962.42,-254.65"/>
<polygon fill="midnightblue" stroke="midnightblue" points="3013.16,-289.18 3023.54,-291.32 3016.77,-283.18 3013.16,-289.18"/>
</g>
<!-- Node70 -->
<g id="node49" class="node">
<title>Node70</title>
<g id="a_node49"><a xlink:href="workarea_8h.html" target="_top" xlink:title="Copyright (c) 2021 Daishi Mori (mori0091)">
<polygon fill="none" stroke="black" points="3080,-179.5 3080,-198.5 3178,-198.5 3178,-179.5 3080,-179.5"/>
<text text-anchor="middle" x="3129" y="-186.5" font-family="Helvetica,sans-Serif" font-size="10.00">include/workarea.h</text>
</a>
</g>
</g>
<!-- Node1&#45;&gt;Node70 -->
<g id="edge60" class="edge">
<title>Node1&#45;&gt;Node70</title>
<path fill="none" stroke="midnightblue" d="M3051.58,-283.59C3071.2,-259.87 3106.77,-216.87 3121.89,-198.59"/>
<polygon fill="midnightblue" stroke="midnightblue" points="3048.82,-281.43 3045.14,-291.37 3054.21,-285.89 3048.82,-281.43"/>
</g>
<!-- Node71 -->
<g id="node50" class="node">
<title>Node71</title>
<g id="a_node50"><a xlink:href="interrupt_8c.html" target="_top" xlink:title="Copyright (c) 2021 Daishi Mori (mori0091)">
<polygon fill="none" stroke="black" points="4840,-235.5 4840,-254.5 4916,-254.5 4916,-235.5 4840,-235.5"/>
<text text-anchor="middle" x="4878" y="-242.5" font-family="Helvetica,sans-Serif" font-size="10.00">src/interrupt.c</text>
</a>
</g>
</g>
<!-- Node1&#45;&gt;Node71 -->
<g id="edge63" class="edge">
<title>Node1&#45;&gt;Node71</title>
<path fill="none" stroke="midnightblue" d="M3089.86,-299.72C3345.82,-298.18 4476.06,-289.5 4826,-255 4830.47,-254.56 4835.13,-253.96 4839.75,-253.27"/>
<polygon fill="midnightblue" stroke="midnightblue" points="3089.71,-296.22 3079.73,-299.78 3089.75,-303.22 3089.71,-296.22"/>
</g>
<!-- Node3 -->
<g id="node3" class="node">
<title>Node3</title>
<g id="a_node3"><a xlink:href="bios_8h.html" target="_top" xlink:title="Copyright (c) 2021 Daishi Mori (mori0091)">
<polygon fill="none" stroke="black" points="555,-179.5 555,-198.5 631,-198.5 631,-179.5 555,-179.5"/>
<text text-anchor="middle" x="593" y="-186.5" font-family="Helvetica,sans-Serif" font-size="10.00">include/bios.h</text>
</a>
</g>
</g>
<!-- Node2&#45;&gt;Node3 -->
<g id="edge2" class="edge">
<title>Node2&#45;&gt;Node3</title>
<path fill="none" stroke="midnightblue" d="M1089.22,-237.94C972.69,-226.68 726.15,-202.86 631.3,-193.7"/>
<polygon fill="midnightblue" stroke="midnightblue" points="1089.12,-241.44 1099.41,-238.92 1089.79,-234.47 1089.12,-241.44"/>
</g>
<!-- Node3&#45;&gt;Node4 -->
<g id="edge3" class="edge">
<title>Node3&#45;&gt;Node4</title>
<path fill="none" stroke="midnightblue" d="M544.36,-188.64C463.25,-188.54 305.84,-183.04 271,-143 265.17,-136.29 265,-129.56 271,-123 385.19,1.73 860.12,-64.7 1029,-56 1655.59,-23.73 3734.79,-12.65 4041.95,-11.18"/>
<polygon fill="midnightblue" stroke="midnightblue" points="544.81,-192.13 554.8,-188.62 544.8,-185.13 544.81,-192.13"/>
</g>
<!-- Node5 -->
<g id="node5" class="node">
<title>Node5</title>
<g id="a_node5"><a xlink:href="vdp_8h.html" target="_top" xlink:title="Data types and functions for VDP (Video Display Proccessor) access.">
<polygon fill="none" stroke="red" points="2947,-123.5 2947,-142.5 3021,-142.5 3021,-123.5 2947,-123.5"/>
<text text-anchor="middle" x="2984" y="-130.5" font-family="Helvetica,sans-Serif" font-size="10.00">include/vdp.h</text>
</a>
</g>
</g>
<!-- Node3&#45;&gt;Node5 -->
<g id="edge4" class="edge">
<title>Node3&#45;&gt;Node5</title>
<path fill="none" stroke="midnightblue" d="M641.07,-186.91C951.64,-179.9 2670.45,-141.08 2946.56,-134.85"/>
<polygon fill="midnightblue" stroke="midnightblue" points="640.96,-183.42 631.04,-187.14 641.12,-190.41 640.96,-183.42"/>
</g>
<!-- Node45 -->
<g id="node34" class="node">
<title>Node45</title>
<g id="a_node34"><a xlink:href="joypad__get__state_8c.html" target="_top" xlink:title="Copyright (c) 2021 Daishi Mori (mori0091)">
<polygon fill="none" stroke="black" points="536,-123.5 536,-142.5 650,-142.5 650,-123.5 536,-123.5"/>
<text text-anchor="middle" x="593" y="-130.5" font-family="Helvetica,sans-Serif" font-size="10.00">src/joypad_get_state.c</text>
</a>
</g>
</g>
<!-- Node3&#45;&gt;Node45 -->
<g id="edge35" class="edge">
<title>Node3&#45;&gt;Node45</title>
<path fill="none" stroke="midnightblue" d="M593,-168.8C593,-159.91 593,-149.78 593,-142.75"/>
<polygon fill="midnightblue" stroke="midnightblue" points="589.5,-169.08 593,-179.08 596.5,-169.08 589.5,-169.08"/>
</g>
<!-- Node46 -->
<g id="node35" class="node">
<title>Node46</title>
<g id="a_node35"><a xlink:href="msx__CHGCPU_8c.html" target="_top" xlink:title="Copyright (c) 2021 Daishi Mori (mori0091)">
<polygon fill="none" stroke="black" points="706.5,-123.5 706.5,-142.5 813.5,-142.5 813.5,-123.5 706.5,-123.5"/>
<text text-anchor="middle" x="760" y="-130.5" font-family="Helvetica,sans-Serif" font-size="10.00">src/msx_CHGCPU.c</text>
</a>
</g>
</g>
<!-- Node3&#45;&gt;Node46 -->
<g id="edge36" class="edge">
<title>Node3&#45;&gt;Node46</title>
<path fill="none" stroke="midnightblue" d="M629.17,-176.3C660.64,-166.13 705.49,-151.62 733.66,-142.52"/>
<polygon fill="midnightblue" stroke="midnightblue" points="627.9,-173.04 619.46,-179.44 630.05,-179.7 627.9,-173.04"/>
</g>
<!-- Node47 -->
<g id="node36" class="node">
<title>Node47</title>
<g id="a_node36"><a xlink:href="msx__GTSTCK_8c.html" target="_top" xlink:title="Copyright (c) 2022 Daishi Mori (mori0091)">
<polygon fill="none" stroke="black" points="0,-123.5 0,-142.5 104,-142.5 104,-123.5 0,-123.5"/>
<text text-anchor="middle" x="52" y="-130.5" font-family="Helvetica,sans-Serif" font-size="10.00">src/msx_GTSTCK.c</text>
</a>
</g>
</g>
<!-- Node3&#45;&gt;Node47 -->
<g id="edge37" class="edge">
<title>Node3&#45;&gt;Node47</title>
<path fill="none" stroke="midnightblue" d="M544.93,-184.34C458.39,-177.57 270.71,-162.01 113,-143 110.13,-142.65 107.19,-142.28 104.22,-141.89"/>
<polygon fill="midnightblue" stroke="midnightblue" points="544.73,-187.84 554.97,-185.12 545.27,-180.86 544.73,-187.84"/>
</g>
<!-- Node48 -->
<g id="node37" class="node">
<title>Node48</title>
<g id="a_node37"><a xlink:href="msx__GTTRIG_8c.html" target="_top" xlink:title="Copyright (c) 2022 Daishi Mori (mori0091)">
<polygon fill="none" stroke="black" points="122.5,-123.5 122.5,-142.5 223.5,-142.5 223.5,-123.5 122.5,-123.5"/>
<text text-anchor="middle" x="173" y="-130.5" font-family="Helvetica,sans-Serif" font-size="10.00">src/msx_GTTRIG.c</text>
</a>
</g>
</g>
<!-- Node3&#45;&gt;Node48 -->
<g id="edge38" class="edge">
<title>Node3&#45;&gt;Node48</title>
<path fill="none" stroke="midnightblue" d="M544.87,-182.08C476.58,-173.63 347.69,-157.55 238,-143 233.37,-142.39 228.56,-141.74 223.73,-141.08"/>
<polygon fill="midnightblue" stroke="midnightblue" points="544.54,-185.56 554.89,-183.32 545.4,-178.62 544.54,-185.56"/>
</g>
<!-- Node49 -->
<g id="node38" class="node">
<title>Node49</title>
<g id="a_node38"><a xlink:href="msx__set__cpu__mode_8c.html" target="_top" xlink:title="Copyright (c) 2021 Daishi Mori (mori0091)">
<polygon fill="none" stroke="black" points="280,-123.5 280,-142.5 408,-142.5 408,-123.5 280,-123.5"/>
<text text-anchor="middle" x="344" y="-130.5" font-family="Helvetica,sans-Serif" font-size="10.00">src/msx_set_cpu_mode.c</text>
</a>
</g>
</g>
<!-- Node3&#45;&gt;Node49 -->
<g id="edge39" class="edge">
<title>Node3&#45;&gt;Node49</title>
<path fill="none" stroke="midnightblue" d="M544.96,-177.58C497.92,-167.38 427.11,-152.02 383.32,-142.53"/>
<polygon fill="midnightblue" stroke="midnightblue" points="544.4,-181.04 554.91,-179.74 545.88,-174.2 544.4,-181.04"/>
</g>
<!-- Node50 -->
<g id="node39" class="node">
<title>Node50</title>
<g id="a_node39"><a xlink:href="sleep__millis_8c.html" target="_top" xlink:title="Copyright (c) 2021 Daishi Mori (mori0091)">
<polygon fill="none" stroke="black" points="426,-123.5 426,-142.5 518,-142.5 518,-123.5 426,-123.5"/>
<text text-anchor="middle" x="472" y="-130.5" font-family="Helvetica,sans-Serif" font-size="10.00">src/sleep_millis.c</text>
</a>
</g>
</g>
<!-- Node3&#45;&gt;Node50 -->
<g id="edge40" class="edge">
<title>Node3&#45;&gt;Node50</title>
<path fill="none" stroke="midnightblue" d="M564.69,-175.37C542.03,-165.26 510.87,-151.35 491.08,-142.52"/>
<polygon fill="midnightblue" stroke="midnightblue" points="563.27,-178.56 573.83,-179.44 566.12,-172.17 563.27,-178.56"/>
</g>
<!-- Node51 -->
<g id="node40" class="node">
<title>Node51</title>
<g id="a_node40"><a xlink:href="sound_8c.html" target="_top" xlink:title="Copyright (c) 2021 Daishi Mori (mori0091)">
<polygon fill="none" stroke="black" points="1056.5,-62 1056.5,-81 1123.5,-81 1123.5,-62 1056.5,-62"/>
<text text-anchor="middle" x="1090" y="-69" font-family="Helvetica,sans-Serif" font-size="10.00">src/sound.c</text>
</a>
</g>
</g>
<!-- Node3&#45;&gt;Node51 -->
<g id="edge41" class="edge">
<title>Node3&#45;&gt;Node51</title>
<path fill="none" stroke="midnightblue" d="M613.72,-173.56C638.79,-156.35 679.77,-129.16 697,-123 823.97,-77.63 986.88,-72.13 1056.28,-72.05"/>
<polygon fill="midnightblue" stroke="midnightblue" points="611.52,-170.82 605.28,-179.38 615.5,-176.58 611.52,-170.82"/>
</g>
<!-- Node5&#45;&gt;Node4 -->
<g id="edge7" class="edge">
<title>Node5&#45;&gt;Node4</title>
<path fill="none" stroke="midnightblue" d="M3031.34,-131.19C3139.83,-128.8 3403.31,-119.68 3485,-87 3505.56,-78.77 3503.41,-64.13 3524,-56 3618.58,-18.64 3932.13,-12.29 4041.76,-11.22"/>
<polygon fill="midnightblue" stroke="midnightblue" points="3031.27,-127.69 3021.34,-131.41 3031.41,-134.69 3031.27,-127.69"/>
</g>
<!-- Node6 -->
<g id="node6" class="node">
<title>Node6</title>
<g id="a_node6"><a xlink:href="metasprite_8h.html" target="_top" xlink:title="Copyright (c) 2021 Daishi Mori (mori0091)">
<polygon fill="none" stroke="red" points="4604,-62 4604,-81 4708,-81 4708,-62 4604,-62"/>
<text text-anchor="middle" x="4656" y="-69" font-family="Helvetica,sans-Serif" font-size="10.00">include/metasprite.h</text>
</a>
</g>
</g>
<!-- Node5&#45;&gt;Node6 -->
<g id="edge5" class="edge">
<title>Node5&#45;&gt;Node6</title>
<path fill="none" stroke="midnightblue" d="M3031.2,-131.26C3280.3,-127.28 4436.72,-107.8 4595,-87 4605.04,-85.68 4615.83,-83.41 4625.51,-81.05"/>
<polygon fill="midnightblue" stroke="midnightblue" points="3030.97,-127.76 3021.03,-131.42 3031.08,-134.76 3030.97,-127.76"/>
</g>
<!-- Node10 -->
<g id="node7" class="node">
<title>Node10</title>
<g id="a_node7"><a xlink:href="vdp_8c.html" target="_top" xlink:title="Copyright (c) 2021 Daishi Mori (mori0091)">
<polygon fill="none" stroke="black" points="3420,-62 3420,-81 3476,-81 3476,-62 3420,-62"/>
<text text-anchor="middle" x="3448" y="-69" font-family="Helvetica,sans-Serif" font-size="10.00">src/vdp.c</text>
</a>
</g>
</g>
<!-- Node5&#45;&gt;Node10 -->
<g id="edge8" class="edge">
<title>Node5&#45;&gt;Node10</title>
<path fill="none" stroke="midnightblue" d="M3031.31,-131.14C3110.83,-128.78 3275.85,-119.97 3411,-87 3417.03,-85.53 3423.4,-83.3 3429.11,-81.03"/>
<polygon fill="midnightblue" stroke="midnightblue" points="3031.02,-127.65 3021.12,-131.42 3031.22,-134.64 3031.02,-127.65"/>
</g>
<!-- Node11 -->
<g id="node8" class="node">
<title>Node11</title>
<g id="a_node8"><a xlink:href="vdp__cmd__execute_8c.html" target="_top" xlink:title="Copyright (c) 2021 Daishi Mori (mori0091)">
<polygon fill="none" stroke="black" points="3532.5,-62 3532.5,-81 3651.5,-81 3651.5,-62 3532.5,-62"/>
<text text-anchor="middle" x="3592" y="-69" font-family="Helvetica,sans-Serif" font-size="10.00">src/vdp_cmd_execute.c</text>
</a>
</g>
</g>
<!-- Node5&#45;&gt;Node11 -->
<g id="edge9" class="edge">
<title>Node5&#45;&gt;Node11</title>
<path fill="none" stroke="midnightblue" d="M3031.31,-129.76C3124.7,-124.94 3339.22,-111.97 3518,-87 3529.28,-85.42 3541.44,-83.25 3552.58,-81.05"/>
<polygon fill="midnightblue" stroke="midnightblue" points="3030.87,-126.27 3021.06,-130.28 3031.22,-133.26 3030.87,-126.27"/>
</g>
<!-- Node12 -->
<g id="node9" class="node">
<title>Node12</title>
<g id="a_node9"><a xlink:href="vdp__cmd__execute__HMMM_8c.html" target="_top" xlink:title="Copyright (c) 2021 Daishi Mori (mori0091)">
<polygon fill="none" stroke="black" points="3670,-56.5 3670,-86.5 3782,-86.5 3782,-56.5 3670,-56.5"/>
<text text-anchor="start" x="3678" y="-74.5" font-family="Helvetica,sans-Serif" font-size="10.00">src/vdp_cmd_execute</text>
<text text-anchor="middle" x="3726" y="-63.5" font-family="Helvetica,sans-Serif" font-size="10.00">_HMMM.c</text>
</a>
</g>
</g>
<!-- Node5&#45;&gt;Node12 -->
<g id="edge10" class="edge">
<title>Node5&#45;&gt;Node12</title>
<path fill="none" stroke="midnightblue" d="M3031.44,-131.34C3142.22,-129.25 3426.35,-120.77 3661,-87 3663.86,-86.59 3666.78,-86.12 3669.73,-85.61"/>
<polygon fill="midnightblue" stroke="midnightblue" points="3031.2,-127.84 3021.27,-131.52 3031.33,-134.84 3031.2,-127.84"/>
</g>
<!-- Node13 -->
<g id="node10" class="node">
<title>Node13</title>
<g id="a_node10"><a xlink:href="vdp__cmd__execute__HMMV_8c.html" target="_top" xlink:title="Copyright (c) 2021 Daishi Mori (mori0091)">
<polygon fill="none" stroke="black" points="3800,-56.5 3800,-86.5 3912,-86.5 3912,-56.5 3800,-56.5"/>
<text text-anchor="start" x="3808" y="-74.5" font-family="Helvetica,sans-Serif" font-size="10.00">src/vdp_cmd_execute</text>
<text text-anchor="middle" x="3856" y="-63.5" font-family="Helvetica,sans-Serif" font-size="10.00">_HMMV.c</text>
</a>
</g>
</g>
<!-- Node5&#45;&gt;Node13 -->
<g id="edge11" class="edge">
<title>Node5&#45;&gt;Node13</title>
<path fill="none" stroke="midnightblue" d="M3031.57,-132.06C3156.61,-131.63 3504.67,-126.65 3791,-87 3793.86,-86.6 3796.79,-86.15 3799.73,-85.64"/>
<polygon fill="midnightblue" stroke="midnightblue" points="3031.2,-128.56 3021.21,-132.08 3031.22,-135.56 3031.2,-128.56"/>
</g>
<!-- Node14 -->
<g id="node11" class="node">
<title>Node14</title>
<g id="a_node11"><a xlink:href="vdp__cmd__execute__LMMM_8c.html" target="_top" xlink:title="Copyright (c) 2021 Daishi Mori (mori0091)">
<polygon fill="none" stroke="black" points="3930,-56.5 3930,-86.5 4042,-86.5 4042,-56.5 3930,-56.5"/>
<text text-anchor="start" x="3938" y="-74.5" font-family="Helvetica,sans-Serif" font-size="10.00">src/vdp_cmd_execute</text>
<text text-anchor="middle" x="3986" y="-63.5" font-family="Helvetica,sans-Serif" font-size="10.00">_LMMM.c</text>
</a>
</g>
</g>
<!-- Node5&#45;&gt;Node14 -->
<g id="edge12" class="edge">
<title>Node5&#45;&gt;Node14</title>
<path fill="none" stroke="midnightblue" d="M3031.48,-132.58C3169.52,-133.67 3582.39,-132.56 3921,-87 3923.86,-86.61 3926.79,-86.17 3929.74,-85.67"/>
<polygon fill="midnightblue" stroke="midnightblue" points="3031.29,-129.08 3021.26,-132.5 3031.23,-136.08 3031.29,-129.08"/>
</g>
<!-- Node15 -->
<g id="node12" class="node">
<title>Node15</title>
<g id="a_node12"><a xlink:href="vdp__cmd__execute__LMMV_8c.html" target="_top" xlink:title="Copyright (c) 2021 Daishi Mori (mori0091)">
<polygon fill="none" stroke="black" points="4060,-56.5 4060,-86.5 4172,-86.5 4172,-56.5 4060,-56.5"/>
<text text-anchor="start" x="4068" y="-74.5" font-family="Helvetica,sans-Serif" font-size="10.00">src/vdp_cmd_execute</text>
<text text-anchor="middle" x="4116" y="-63.5" font-family="Helvetica,sans-Serif" font-size="10.00">_LMMV.c</text>
</a>
</g>
</g>
<!-- Node5&#45;&gt;Node15 -->
<g id="edge13" class="edge">
<title>Node5&#45;&gt;Node15</title>
<path fill="none" stroke="midnightblue" d="M3031.18,-131.12C3210.46,-127.62 3849.48,-113.51 4051,-87 4053.87,-86.62 4056.79,-86.18 4059.74,-85.69"/>
<polygon fill="midnightblue" stroke="midnightblue" points="3030.95,-127.63 3021.02,-131.32 3031.08,-134.63 3030.95,-127.63"/>
</g>
<!-- Node16 -->
<g id="node13" class="node">
<title>Node16</title>
<g id="a_node13"><a xlink:href="vdp__cmd__set__unrestricted_8c.html" target="_top" xlink:title="Copyright (c) 2021 Daishi Mori (mori0091)">
<polygon fill="none" stroke="black" points="4190.5,-62 4190.5,-81 4345.5,-81 4345.5,-62 4190.5,-62"/>
<text text-anchor="middle" x="4268" y="-69" font-family="Helvetica,sans-Serif" font-size="10.00">src/vdp_cmd_set_unrestricted.c</text>
</a>
</g>
</g>
<!-- Node5&#45;&gt;Node16 -->
<g id="edge14" class="edge">
<title>Node5&#45;&gt;Node16</title>
<path fill="none" stroke="midnightblue" d="M3031.43,-132.39C3192.85,-133.23 3735.62,-132.3 4181,-87 4194.86,-85.59 4209.86,-83.35 4223.44,-81.05"/>
<polygon fill="midnightblue" stroke="midnightblue" points="3031.37,-128.88 3021.35,-132.33 3031.33,-135.88 3031.37,-128.88"/>
</g>
<!-- Node17 -->
<g id="node14" class="node">
<title>Node17</title>
<g id="a_node14"><a xlink:href="vdp__get__sprite__mode_8c.html" target="_top" xlink:title="Copyright (c) 2021 Daishi Mori (mori0091)">
<polygon fill="none" stroke="black" points="4363.5,-56.5 4363.5,-86.5 4460.5,-86.5 4460.5,-56.5 4363.5,-56.5"/>
<text text-anchor="start" x="4371.5" y="-74.5" font-family="Helvetica,sans-Serif" font-size="10.00">src/vdp_get_sprite</text>
<text text-anchor="middle" x="4412" y="-63.5" font-family="Helvetica,sans-Serif" font-size="10.00">_mode.c</text>
</a>
</g>
</g>
<!-- Node5&#45;&gt;Node17 -->
<g id="edge15" class="edge">
<title>Node5&#45;&gt;Node17</title>
<path fill="none" stroke="midnightblue" d="M3031.31,-131.82C3241.41,-130.81 4091.24,-124.43 4355,-87 4357.73,-86.61 4360.52,-86.15 4363.32,-85.62"/>
<polygon fill="midnightblue" stroke="midnightblue" points="3031.2,-128.32 3021.22,-131.87 3031.24,-135.32 3031.2,-128.32"/>
</g>
<!-- Node18 -->
<g id="node15" class="node">
<title>Node18</title>
<g id="a_node15"><a xlink:href="vdp__get__status_8c.html" target="_top" xlink:title="Copyright (c) 2021 Daishi Mori (mori0091)">
<polygon fill="none" stroke="black" points="4478.5,-62 4478.5,-81 4585.5,-81 4585.5,-62 4478.5,-62"/>
<text text-anchor="middle" x="4532" y="-69" font-family="Helvetica,sans-Serif" font-size="10.00">src/vdp_get_status.c</text>
</a>
</g>
</g>
<!-- Node5&#45;&gt;Node18 -->
<g id="edge16" class="edge">
<title>Node5&#45;&gt;Node18</title>
<path fill="none" stroke="midnightblue" d="M3031.6,-131.84C3252.86,-130.87 4182.16,-124.63 4470,-87 4480.19,-85.67 4491.16,-83.39 4501,-81.03"/>
<polygon fill="midnightblue" stroke="midnightblue" points="3031.29,-128.34 3021.31,-131.88 3031.32,-135.34 3031.29,-128.34"/>
</g>
<!-- Node19 -->
<g id="node16" class="node">
<title>Node19</title>
<g id="a_node16"><a xlink:href="vdp__set__adjust_8c.html" target="_top" xlink:title="Copyright (c) 2021 Daishi Mori (mori0091)">
<polygon fill="none" stroke="black" points="1180.5,-62 1180.5,-81 1287.5,-81 1287.5,-62 1180.5,-62"/>
<text text-anchor="middle" x="1234" y="-69" font-family="Helvetica,sans-Serif" font-size="10.00">src/vdp_set_adjust.c</text>
</a>
</g>
</g>
<!-- Node5&#45;&gt;Node19 -->
<g id="edge17" class="edge">
<title>Node5&#45;&gt;Node19</title>
<path fill="none" stroke="midnightblue" d="M2936.66,-132.01C2698.18,-131.88 1626.89,-128.94 1297,-87 1286.65,-85.68 1275.5,-83.41 1265.5,-81.05"/>
<polygon fill="midnightblue" stroke="midnightblue" points="2936.74,-135.51 2946.74,-132.02 2936.74,-128.51 2936.74,-135.51"/>
</g>
<!-- Node20 -->
<g id="node17" class="node">
<title>Node20</title>
<g id="a_node17"><a xlink:href="vdp__set__color_8c.html" target="_top" xlink:title="Copyright (c) 2021 Daishi Mori (mori0091)">
<polygon fill="none" stroke="black" points="1305.5,-62 1305.5,-81 1406.5,-81 1406.5,-62 1305.5,-62"/>
<text text-anchor="middle" x="1356" y="-69" font-family="Helvetica,sans-Serif" font-size="10.00">src/vdp_set_color.c</text>
</a>
</g>
</g>
<!-- Node5&#45;&gt;Node20 -->
<g id="edge18" class="edge">
<title>Node5&#45;&gt;Node20</title>
<path fill="none" stroke="midnightblue" d="M2936.38,-131.97C2707.7,-131.62 1720.74,-127.74 1416,-87 1406.12,-85.68 1395.5,-83.4 1385.98,-81.04"/>
<polygon fill="midnightblue" stroke="midnightblue" points="2936.69,-135.47 2946.69,-131.98 2936.7,-128.47 2936.69,-135.47"/>
</g>
<!-- Node21 -->
<g id="node18" class="node">
<title>Node21</title>
<g id="a_node18"><a xlink:href="vdp__set__color__table_8c.html" target="_top" xlink:title="Copyright (c) 2021 Daishi Mori (mori0091)">
<polygon fill="none" stroke="black" points="1425,-62 1425,-81 1553,-81 1553,-62 1425,-62"/>
<text text-anchor="middle" x="1489" y="-69" font-family="Helvetica,sans-Serif" font-size="10.00">src/vdp_set_color_table.c</text>
</a>
</g>
</g>
<!-- Node5&#45;&gt;Node21 -->
<g id="edge19" class="edge">
<title>Node5&#45;&gt;Node21</title>
<path fill="none" stroke="midnightblue" d="M2936.72,-131.55C2722,-129.34 1837.25,-118.47 1562,-87 1550.19,-85.65 1537.44,-83.4 1525.95,-81.07"/>
<polygon fill="midnightblue" stroke="midnightblue" points="2936.69,-135.05 2946.73,-131.65 2936.76,-128.05 2936.69,-135.05"/>
</g>
<!-- Node22 -->
<g id="node19" class="node">
<title>Node22</title>
<g id="a_node19"><a xlink:href="vdp__set__control_8c.html" target="_top" xlink:title="Copyright (c) 2021 Daishi Mori (mori0091)">
<polygon fill="none" stroke="black" points="1571,-62 1571,-81 1681,-81 1681,-62 1571,-62"/>
<text text-anchor="middle" x="1626" y="-69" font-family="Helvetica,sans-Serif" font-size="10.00">src/vdp_set_control.c</text>
</a>
</g>
</g>
<!-- Node5&#45;&gt;Node22 -->
<g id="edge20" class="edge">
<title>Node5&#45;&gt;Node22</title>
<path fill="none" stroke="midnightblue" d="M2936.79,-131.53C2734.41,-129.31 1939.15,-118.72 1691,-87 1680.45,-85.65 1669.09,-83.4 1658.86,-81.07"/>
<polygon fill="midnightblue" stroke="midnightblue" points="2936.77,-135.02 2946.81,-131.63 2936.84,-128.03 2936.77,-135.02"/>
</g>
<!-- Node23 -->
<g id="node20" class="node">
<title>Node23</title>
<g id="a_node20"><a xlink:href="vdp__set__hscroll_8c.html" target="_top" xlink:title="Copyright (c) 2021 Daishi Mori (mori0091)">
<polygon fill="none" stroke="black" points="1699.5,-62 1699.5,-81 1808.5,-81 1808.5,-62 1699.5,-62"/>
<text text-anchor="middle" x="1754" y="-69" font-family="Helvetica,sans-Serif" font-size="10.00">src/vdp_set_hscroll.c</text>
</a>
</g>
</g>
<!-- Node5&#45;&gt;Node23 -->
<g id="edge21" class="edge">
<title>Node5&#45;&gt;Node23</title>
<path fill="none" stroke="midnightblue" d="M2936.57,-131.34C2746.54,-128.49 2039.77,-116.15 1818,-87 1807.61,-85.63 1796.42,-83.38 1786.35,-81.05"/>
<polygon fill="midnightblue" stroke="midnightblue" points="2936.74,-134.84 2946.79,-131.49 2936.84,-127.84 2936.74,-134.84"/>
</g>
<!-- Node24 -->
<g id="node21" class="node">
<title>Node24</title>
<g id="a_node21"><a xlink:href="vdp__set__hscroll__dual__page_8c.html" target="_top" xlink:title="Copyright (c) 2021 Daishi Mori (mori0091)">
<polygon fill="none" stroke="black" points="1826.5,-56.5 1826.5,-86.5 1927.5,-86.5 1927.5,-56.5 1826.5,-56.5"/>
<text text-anchor="start" x="1834.5" y="-74.5" font-family="Helvetica,sans-Serif" font-size="10.00">src/vdp_set_hscroll</text>
<text text-anchor="middle" x="1877" y="-63.5" font-family="Helvetica,sans-Serif" font-size="10.00">_dual_page.c</text>
</a>
</g>
</g>
<!-- Node5&#45;&gt;Node24 -->
<g id="edge22" class="edge">
<title>Node5&#45;&gt;Node24</title>
<path fill="none" stroke="midnightblue" d="M2936.8,-131.19C2759.62,-127.96 2134.17,-114.79 1937,-87 1933.92,-86.57 1930.77,-86.04 1927.61,-85.46"/>
<polygon fill="midnightblue" stroke="midnightblue" points="2936.79,-134.69 2946.85,-131.37 2936.92,-127.69 2936.79,-134.69"/>
</g>
<!-- Node25 -->
<g id="node22" class="node">
<title>Node25</title>
<g id="a_node22"><a xlink:href="vdp__set__hscroll__mask_8c.html" target="_top" xlink:title="Copyright (c) 2021 Daishi Mori (mori0091)">
<polygon fill="none" stroke="black" points="1945.5,-56.5 1945.5,-86.5 2046.5,-86.5 2046.5,-56.5 1945.5,-56.5"/>
<text text-anchor="start" x="1953.5" y="-74.5" font-family="Helvetica,sans-Serif" font-size="10.00">src/vdp_set_hscroll</text>
<text text-anchor="middle" x="1996" y="-63.5" font-family="Helvetica,sans-Serif" font-size="10.00">_mask.c</text>
</a>
</g>
</g>
<!-- Node5&#45;&gt;Node25 -->
<g id="edge23" class="edge">
<title>Node5&#45;&gt;Node25</title>
<path fill="none" stroke="midnightblue" d="M2936.6,-130.88C2772.42,-126.83 2228.73,-111.83 2056,-87 2052.92,-86.56 2049.77,-86.03 2046.61,-85.44"/>
<polygon fill="midnightblue" stroke="midnightblue" points="2936.77,-134.39 2946.85,-131.14 2936.94,-127.39 2936.77,-134.39"/>
</g>
<!-- Node26 -->
<g id="node23" class="node">
<title>Node26</title>
<g id="a_node23"><a xlink:href="vdp__set__image__table_8c.html" target="_top" xlink:title="Copyright (c) 2021 Daishi Mori (mori0091)">
<polygon fill="none" stroke="black" points="2064.5,-62 2064.5,-81 2197.5,-81 2197.5,-62 2064.5,-62"/>
<text text-anchor="middle" x="2131" y="-69" font-family="Helvetica,sans-Serif" font-size="10.00">src/vdp_set_image_table.c</text>
</a>
</g>
</g>
<!-- Node5&#45;&gt;Node26 -->
<g id="edge24" class="edge">
<title>Node5&#45;&gt;Node26</title>
<path fill="none" stroke="midnightblue" d="M2936.55,-131.41C2814.86,-129.42 2481.93,-121.04 2207,-87 2195,-85.51 2182.05,-83.28 2170.29,-81.01"/>
<polygon fill="midnightblue" stroke="midnightblue" points="2936.59,-134.91 2946.64,-131.56 2936.7,-127.91 2936.59,-134.91"/>
</g>
<!-- Node27 -->
<g id="node24" class="node">
<title>Node27</title>
<g id="a_node24"><a xlink:href="vdp__set__palette_8c.html" target="_top" xlink:title="Copyright (c) 2021 Daishi Mori (mori0091)">
<polygon fill="none" stroke="black" points="2216,-62 2216,-81 2326,-81 2326,-62 2216,-62"/>
<text text-anchor="middle" x="2271" y="-69" font-family="Helvetica,sans-Serif" font-size="10.00">src/vdp_set_palette.c</text>
</a>
</g>
</g>
<!-- Node5&#45;&gt;Node27 -->
<g id="edge25" class="edge">
<title>Node5&#45;&gt;Node27</title>
<path fill="none" stroke="midnightblue" d="M2936.72,-131.14C2829.39,-128.67 2559.29,-119.47 2336,-87 2325.82,-85.52 2314.86,-83.32 2304.89,-81.07"/>
<polygon fill="midnightblue" stroke="midnightblue" points="2936.82,-134.65 2946.9,-131.37 2936.98,-127.65 2936.82,-134.65"/>
</g>
<!-- Node28 -->
<g id="node25" class="node">
<title>Node28</title>
<g id="a_node25"><a xlink:href="vdp__set__pattern__table_8c.html" target="_top" xlink:title="Copyright (c) 2021 Daishi Mori (mori0091)">
<polygon fill="none" stroke="black" points="2344.5,-56.5 2344.5,-86.5 2447.5,-86.5 2447.5,-56.5 2344.5,-56.5"/>
<text text-anchor="start" x="2352.5" y="-74.5" font-family="Helvetica,sans-Serif" font-size="10.00">src/vdp_set_pattern</text>
<text text-anchor="middle" x="2396" y="-63.5" font-family="Helvetica,sans-Serif" font-size="10.00">_table.c</text>
</a>
</g>
</g>
<!-- Node5&#45;&gt;Node28 -->
<g id="edge26" class="edge">
<title>Node5&#45;&gt;Node28</title>
<path fill="none" stroke="midnightblue" d="M2936.53,-130.3C2843.84,-126.47 2632.47,-115.19 2457,-87 2453.99,-86.52 2450.91,-85.97 2447.81,-85.37"/>
<polygon fill="midnightblue" stroke="midnightblue" points="2936.58,-133.81 2946.71,-130.71 2936.86,-126.82 2936.58,-133.81"/>
</g>
<!-- Node29 -->
<g id="node26" class="node">
<title>Node29</title>
<g id="a_node26"><a xlink:href="vdp__set__screen__lines_8c.html" target="_top" xlink:title="Copyright (c) 2021 Daishi Mori (mori0091)">
<polygon fill="none" stroke="black" points="2466,-56.5 2466,-86.5 2568,-86.5 2568,-56.5 2466,-56.5"/>
<text text-anchor="start" x="2474" y="-74.5" font-family="Helvetica,sans-Serif" font-size="10.00">src/vdp_set_screen</text>
<text text-anchor="middle" x="2517" y="-63.5" font-family="Helvetica,sans-Serif" font-size="10.00">_lines.c</text>
</a>
</g>
</g>
<!-- Node5&#45;&gt;Node29 -->
<g id="edge27" class="edge">
<title>Node5&#45;&gt;Node29</title>
<path fill="none" stroke="midnightblue" d="M2936.51,-128.72C2860.28,-123.01 2706.07,-109.64 2577,-87 2574.15,-86.5 2571.23,-85.94 2568.3,-85.35"/>
<polygon fill="midnightblue" stroke="midnightblue" points="2936.51,-132.23 2946.74,-129.47 2937.02,-125.24 2936.51,-132.23"/>
</g>
<!-- Node30 -->
<g id="node27" class="node">
<title>Node30</title>
<g id="a_node27"><a xlink:href="vdp__set__screen__mode_8c.html" target="_top" xlink:title="Copyright (c) 2021 Daishi Mori (mori0091)">
<polygon fill="none" stroke="black" points="2586,-56.5 2586,-86.5 2688,-86.5 2688,-56.5 2586,-56.5"/>
<text text-anchor="start" x="2594" y="-74.5" font-family="Helvetica,sans-Serif" font-size="10.00">src/vdp_set_screen</text>
<text text-anchor="middle" x="2637" y="-63.5" font-family="Helvetica,sans-Serif" font-size="10.00">_mode.c</text>
</a>
</g>
</g>
<!-- Node5&#45;&gt;Node30 -->
<g id="edge28" class="edge">
<title>Node5&#45;&gt;Node30</title>
<path fill="none" stroke="midnightblue" d="M2936.51,-125.76C2879.42,-117.99 2780.82,-103.67 2697,-87 2694.06,-86.41 2691.04,-85.78 2688,-85.12"/>
<polygon fill="midnightblue" stroke="midnightblue" points="2936.3,-129.27 2946.68,-127.14 2937.24,-122.33 2936.3,-129.27"/>
</g>
<!-- Node31 -->
<g id="node28" class="node">
<title>Node31</title>
<g id="a_node28"><a xlink:href="vdp__set__sprite__attribute__table_8c.html" target="_top" xlink:title="Copyright (c) 2021 Daishi Mori (mori0091)">
<polygon fill="none" stroke="black" points="2705.5,-56.5 2705.5,-86.5 2802.5,-86.5 2802.5,-56.5 2705.5,-56.5"/>
<text text-anchor="start" x="2713.5" y="-74.5" font-family="Helvetica,sans-Serif" font-size="10.00">src/vdp_set_sprite</text>
<text text-anchor="middle" x="2754" y="-63.5" font-family="Helvetica,sans-Serif" font-size="10.00">_attribute_table.c</text>
</a>
</g>
</g>
<!-- Node5&#45;&gt;Node31 -->
<g id="edge29" class="edge">
<title>Node5&#45;&gt;Node31</title>
<path fill="none" stroke="midnightblue" d="M2941.23,-120.94C2901.89,-110.76 2843.61,-95.68 2802.54,-85.06"/>
<polygon fill="midnightblue" stroke="midnightblue" points="2940.49,-124.36 2951.05,-123.48 2942.24,-117.58 2940.49,-124.36"/>
</g>
<!-- Node32 -->
<g id="node29" class="node">
<title>Node32</title>
<g id="a_node29"><a xlink:href="vdp__set__sprite__pattern__table_8c.html" target="_top" xlink:title="Copyright (c) 2021 Daishi Mori (mori0091)">
<polygon fill="none" stroke="black" points="2820.5,-56.5 2820.5,-86.5 2917.5,-86.5 2917.5,-56.5 2820.5,-56.5"/>
<text text-anchor="start" x="2828.5" y="-74.5" font-family="Helvetica,sans-Serif" font-size="10.00">src/vdp_set_sprite</text>
<text text-anchor="middle" x="2869" y="-63.5" font-family="Helvetica,sans-Serif" font-size="10.00">_pattern_table.c</text>
</a>
</g>
</g>
<!-- Node5&#45;&gt;Node32 -->
<g id="edge30" class="edge">
<title>Node5&#45;&gt;Node32</title>
<path fill="none" stroke="midnightblue" d="M2958.5,-118.81C2939.99,-109.23 2914.98,-96.29 2896.1,-86.52"/>
<polygon fill="midnightblue" stroke="midnightblue" points="2957.03,-121.99 2967.52,-123.48 2960.25,-115.77 2957.03,-121.99"/>
</g>
<!-- Node33 -->
<g id="node30" class="node">
<title>Node33</title>
<g id="a_node30"><a xlink:href="vdp__set__sprite__size_8c.html" target="_top" xlink:title="Copyright (c) 2021 Daishi Mori (mori0091)">
<polygon fill="none" stroke="black" points="2935.5,-56.5 2935.5,-86.5 3032.5,-86.5 3032.5,-56.5 2935.5,-56.5"/>
<text text-anchor="start" x="2943.5" y="-74.5" font-family="Helvetica,sans-Serif" font-size="10.00">src/vdp_set_sprite</text>
<text text-anchor="middle" x="2984" y="-63.5" font-family="Helvetica,sans-Serif" font-size="10.00">_size.c</text>
</a>
</g>
</g>
<!-- Node5&#45;&gt;Node33 -->
<g id="edge31" class="edge">
<title>Node5&#45;&gt;Node33</title>
<path fill="none" stroke="midnightblue" d="M2984,-113.23C2984,-104.59 2984,-94.5 2984,-86.52"/>
<polygon fill="midnightblue" stroke="midnightblue" points="2980.5,-113.48 2984,-123.48 2987.5,-113.48 2980.5,-113.48"/>
</g>
<!-- Node34 -->
<g id="node31" class="node">
<title>Node34</title>
<g id="a_node31"><a xlink:href="vdp__set__sprite__visible_8c.html" target="_top" xlink:title="Copyright (c) 2021 Daishi Mori (mori0091)">
<polygon fill="none" stroke="black" points="3050.5,-56.5 3050.5,-86.5 3147.5,-86.5 3147.5,-56.5 3050.5,-56.5"/>
<text text-anchor="start" x="3058.5" y="-74.5" font-family="Helvetica,sans-Serif" font-size="10.00">src/vdp_set_sprite</text>
<text text-anchor="middle" x="3099" y="-63.5" font-family="Helvetica,sans-Serif" font-size="10.00">_visible.c</text>
</a>
</g>
</g>
<!-- Node5&#45;&gt;Node34 -->
<g id="edge32" class="edge">
<title>Node5&#45;&gt;Node34</title>
<path fill="none" stroke="midnightblue" d="M3009.5,-118.81C3028.01,-109.23 3053.02,-96.29 3071.9,-86.52"/>
<polygon fill="midnightblue" stroke="midnightblue" points="3007.75,-115.77 3000.48,-123.48 3010.97,-121.99 3007.75,-115.77"/>
</g>
<!-- Node35 -->
<g id="node32" class="node">
<title>Node35</title>
<g id="a_node32"><a xlink:href="vdp__set__visible_8c.html" target="_top" xlink:title="Copyright (c) 2021 Daishi Mori (mori0091)">
<polygon fill="none" stroke="black" points="3166,-62 3166,-81 3274,-81 3274,-62 3166,-62"/>
<text text-anchor="middle" x="3220" y="-69" font-family="Helvetica,sans-Serif" font-size="10.00">src/vdp_set_visible.c</text>
</a>
</g>
</g>
<!-- Node5&#45;&gt;Node35 -->
<g id="edge33" class="edge">
<title>Node5&#45;&gt;Node35</title>
<path fill="none" stroke="midnightblue" d="M3027.76,-120.97C3073.58,-109.41 3144.57,-91.52 3186.25,-81.01"/>
<polygon fill="midnightblue" stroke="midnightblue" points="3026.65,-117.64 3017.81,-123.48 3028.37,-124.42 3026.65,-117.64"/>
</g>
<!-- Node36 -->
<g id="node33" class="node">
<title>Node36</title>
<g id="a_node33"><a xlink:href="vdp__set__vscroll_8c.html" target="_top" xlink:title="Copyright (c) 2021 Daishi Mori (mori0091)">
<polygon fill="none" stroke="black" points="3292.5,-62 3292.5,-81 3401.5,-81 3401.5,-62 3292.5,-62"/>
<text text-anchor="middle" x="3347" y="-69" font-family="Helvetica,sans-Serif" font-size="10.00">src/vdp_set_vscroll.c</text>
</a>
</g>
</g>
<!-- Node5&#45;&gt;Node36 -->
<g id="edge34" class="edge">
<title>Node5&#45;&gt;Node36</title>
<path fill="none" stroke="midnightblue" d="M3031.6,-125.93C3090.74,-118.14 3194.67,-103.63 3283,-87 3292.29,-85.25 3302.29,-83.11 3311.55,-81.02"/>
<polygon fill="midnightblue" stroke="midnightblue" points="3030.9,-122.5 3021.44,-127.26 3031.81,-129.44 3030.9,-122.5"/>
</g>
<!-- Node6&#45;&gt;Node4 -->
<g id="edge6" class="edge">
<title>Node6&#45;&gt;Node4</title>
<path fill="none" stroke="midnightblue" d="M4614.08,-59.69C4607.72,-58.29 4601.21,-57 4595,-56 4418.02,-27.39 4203.68,-16.03 4118.03,-12.42"/>
<polygon fill="midnightblue" stroke="midnightblue" points="4613.36,-63.11 4623.89,-61.94 4614.92,-56.29 4613.36,-63.11"/>
</g>
<!-- Node52&#45;&gt;Node3 -->
<g id="edge43" class="edge">
<title>Node52&#45;&gt;Node3</title>
<path fill="none" stroke="midnightblue" d="M2260.45,-242.08C1983.16,-233.42 853.81,-198.15 631.2,-191.19"/>
<polygon fill="midnightblue" stroke="midnightblue" points="2260.62,-245.58 2270.72,-242.4 2260.84,-238.59 2260.62,-245.58"/>
</g>
<!-- Node53&#45;&gt;Node4 -->
<g id="edge45" class="edge">
<title>Node53&#45;&gt;Node4</title>
<path fill="none" stroke="midnightblue" d="M2904.97,-241.83C2639.39,-228.22 1232.56,-153.15 1172,-87 1162.7,-76.84 1162.33,-65.82 1172,-56 1198.42,-29.17 3702.24,-13.26 4042,-11.22"/>
<polygon fill="midnightblue" stroke="midnightblue" points="2905.18,-245.34 2915.35,-242.36 2905.54,-238.35 2905.18,-245.34"/>
</g>
<!-- Node53&#45;&gt;Node5 -->
<g id="edge54" class="edge">
<title>Node53&#45;&gt;Node5</title>
<path fill="none" stroke="midnightblue" d="M2953.47,-225.46C2957.38,-212.42 2962.83,-194.59 2968,-179 2972.23,-166.25 2977.51,-151.62 2980.82,-142.59"/>
<polygon fill="midnightblue" stroke="midnightblue" points="2950.09,-224.55 2950.6,-235.13 2956.8,-226.54 2950.09,-224.55"/>
</g>
<!-- Node54 -->
<g id="node43" class="node">
<title>Node54</title>
<g id="a_node43"><a xlink:href="psg_8h.html" target="_top" xlink:title="Copyright (c) 2021 Daishi Mori (mori0091)">
<polygon fill="none" stroke="black" points="1029,-179.5 1029,-198.5 1103,-198.5 1103,-179.5 1029,-179.5"/>
<text text-anchor="middle" x="1066" y="-186.5" font-family="Helvetica,sans-Serif" font-size="10.00">include/psg.h</text>
</a>
</g>
</g>
<!-- Node53&#45;&gt;Node54 -->
<g id="edge46" class="edge">
<title>Node53&#45;&gt;Node54</title>
<path fill="none" stroke="midnightblue" d="M2905.26,-242.99C2716.91,-238.49 1942.05,-219.64 1306,-199 1234.32,-196.67 1150.62,-193.41 1103.41,-191.52"/>
<polygon fill="midnightblue" stroke="midnightblue" points="2905.23,-246.49 2915.31,-243.23 2905.4,-239.49 2905.23,-246.49"/>
</g>
<!-- Node60 -->
<g id="node48" class="node">
<title>Node60</title>
<g id="a_node48"><a xlink:href="vmem_8h.html" target="_top" xlink:title="Data types and functions for VRAM access.">
<polygon fill="none" stroke="red" points="2976.5,-179.5 2976.5,-198.5 3061.5,-198.5 3061.5,-179.5 2976.5,-179.5"/>
<text text-anchor="middle" x="3019" y="-186.5" font-family="Helvetica,sans-Serif" font-size="10.00">include/vmem.h</text>
</a>
</g>
</g>
<!-- Node53&#45;&gt;Node60 -->
<g id="edge55" class="edge">
<title>Node53&#45;&gt;Node60</title>
<path fill="none" stroke="midnightblue" d="M2967.59,-229.1C2980.37,-219.38 2996.61,-207.03 3007.39,-198.83"/>
<polygon fill="midnightblue" stroke="midnightblue" points="2965.25,-226.48 2959.41,-235.32 2969.49,-232.06 2965.25,-226.48"/>
</g>
<!-- Node54&#45;&gt;Node4 -->
<g id="edge49" class="edge">
<title>Node54&#45;&gt;Node4</title>
<path fill="none" stroke="midnightblue" d="M1055.75,-170.32C1040.8,-141.99 1017.93,-86.52 1048,-56 1075.59,-28 3692.98,-13.07 4041.76,-11.2"/>
<polygon fill="midnightblue" stroke="midnightblue" points="1052.88,-172.37 1060.78,-179.43 1059.01,-168.99 1052.88,-172.37"/>
</g>
<!-- Node54&#45;&gt;Node51 -->
<g id="edge53" class="edge">
<title>Node54&#45;&gt;Node51</title>
<path fill="none" stroke="midnightblue" d="M1069.84,-169.5C1075.09,-144.26 1084.28,-100.02 1088.18,-81.28"/>
<polygon fill="midnightblue" stroke="midnightblue" points="1066.41,-168.82 1067.8,-179.32 1073.27,-170.24 1066.41,-168.82"/>
</g>
<!-- Node55 -->
<g id="node44" class="node">
<title>Node55</title>
<g id="a_node44"><a xlink:href="ay__3__8910_8h.html" target="_top" xlink:title="Copyright (c) 2022 Daishi Mori (mori0091)">
<polygon fill="none" stroke="red" points="1094,-123.5 1094,-142.5 1198,-142.5 1198,-123.5 1094,-123.5"/>
<text text-anchor="middle" x="1146" y="-130.5" font-family="Helvetica,sans-Serif" font-size="10.00">include/ay_3_8910.h</text>
</a>
</g>
</g>
<!-- Node54&#45;&gt;Node55 -->
<g id="edge47" class="edge">
<title>Node54&#45;&gt;Node55</title>
<path fill="none" stroke="midnightblue" d="M1087.3,-173.62C1101.92,-163.76 1120.83,-150.99 1133.18,-142.65"/>
<polygon fill="midnightblue" stroke="midnightblue" points="1085.18,-170.83 1078.85,-179.32 1089.1,-176.63 1085.18,-170.83"/>
</g>
<!-- Node57 -->
<g id="node45" class="node">
<title>Node57</title>
<g id="a_node45"><a xlink:href="psg__get_8c.html" target="_top" xlink:title="Copyright (c) 2021 Daishi Mori (mori0091)">
<polygon fill="none" stroke="black" points="1216.5,-123.5 1216.5,-142.5 1291.5,-142.5 1291.5,-123.5 1216.5,-123.5"/>
<text text-anchor="middle" x="1254" y="-130.5" font-family="Helvetica,sans-Serif" font-size="10.00">src/psg_get.c</text>
</a>
</g>
</g>
<!-- Node54&#45;&gt;Node57 -->
<g id="edge50" class="edge">
<title>Node54&#45;&gt;Node57</title>
<path fill="none" stroke="midnightblue" d="M1105.8,-176.57C1141.27,-166.38 1192.37,-151.7 1224.35,-142.52"/>
<polygon fill="midnightblue" stroke="midnightblue" points="1104.43,-173.32 1095.79,-179.44 1106.37,-180.05 1104.43,-173.32"/>
</g>
<!-- Node58 -->
<g id="node46" class="node">
<title>Node58</title>
<g id="a_node46"><a xlink:href="psg__init_8c.html" target="_top" xlink:title="Copyright (c) 2021 Daishi Mori (mori0091)">
<polygon fill="none" stroke="black" points="832,-123.5 832,-142.5 906,-142.5 906,-123.5 832,-123.5"/>
<text text-anchor="middle" x="869" y="-130.5" font-family="Helvetica,sans-Serif" font-size="10.00">src/psg_init.c</text>
</a>
</g>
</g>
<!-- Node54&#45;&gt;Node58 -->
<g id="edge51" class="edge">
<title>Node54&#45;&gt;Node58</title>
<path fill="none" stroke="midnightblue" d="M1024.77,-176.7C987.59,-166.51 933.73,-151.74 900.07,-142.52"/>
<polygon fill="midnightblue" stroke="midnightblue" points="1024.22,-180.18 1034.78,-179.44 1026.07,-173.42 1024.22,-180.18"/>
</g>
<!-- Node59 -->
<g id="node47" class="node">
<title>Node59</title>
<g id="a_node47"><a xlink:href="psg__set_8c.html" target="_top" xlink:title="Copyright (c) 2021 Daishi Mori (mori0091)">
<polygon fill="none" stroke="black" points="924.5,-123.5 924.5,-142.5 999.5,-142.5 999.5,-123.5 924.5,-123.5"/>
<text text-anchor="middle" x="962" y="-130.5" font-family="Helvetica,sans-Serif" font-size="10.00">src/psg_set.c</text>
</a>
</g>
</g>
<!-- Node54&#45;&gt;Node59 -->
<g id="edge52" class="edge">
<title>Node54&#45;&gt;Node59</title>
<path fill="none" stroke="midnightblue" d="M1040.17,-174.59C1020.94,-164.61 995.26,-151.27 978.67,-142.65"/>
<polygon fill="midnightblue" stroke="midnightblue" points="1038.8,-177.82 1049.29,-179.32 1042.03,-171.61 1038.8,-177.82"/>
</g>
<!-- Node55&#45;&gt;Node51 -->
<g id="edge48" class="edge">
<title>Node55&#45;&gt;Node51</title>
<path fill="none" stroke="midnightblue" d="M1130.94,-116C1120.34,-104.74 1106.57,-90.1 1098.01,-81.01"/>
<polygon fill="midnightblue" stroke="midnightblue" points="1128.57,-118.59 1137.98,-123.48 1133.67,-113.79 1128.57,-118.59"/>
</g>
<!-- Node60&#45;&gt;Node4 -->
<g id="edge57" class="edge">
<title>Node60&#45;&gt;Node4</title>
<path fill="none" stroke="midnightblue" d="M3071.65,-179.25C3295.98,-161.52 4594.29,-219 4717,-87 4726.38,-76.91 4726.39,-66.08 4717,-56 4676.14,-12.15 4249.77,-10.27 4118.35,-10.75"/>
<polygon fill="midnightblue" stroke="midnightblue" points="3071.14,-175.78 3061.5,-180.18 3071.78,-182.75 3071.14,-175.78"/>
</g>
<!-- Node60&#45;&gt;Node5 -->
<g id="edge58" class="edge">
<title>Node60&#45;&gt;Node5</title>
<path fill="none" stroke="midnightblue" d="M3007.7,-170.57C3001.68,-161.27 2994.53,-150.25 2989.67,-142.75"/>
<polygon fill="midnightblue" stroke="midnightblue" points="3004.84,-172.6 3013.22,-179.08 3010.72,-168.79 3004.84,-172.6"/>
</g>
<!-- Node60&#45;&gt;Node6 -->
<g id="edge56" class="edge">
<title>Node60&#45;&gt;Node6</title>
<path fill="none" stroke="midnightblue" d="M3071.49,-179.09C3746.78,-101.41 3927.01,-185.79 4595,-87 4604.69,-85.57 4615.11,-83.35 4624.54,-81.08"/>
<polygon fill="midnightblue" stroke="midnightblue" points="3071.04,-175.62 3061.51,-180.25 3071.85,-182.57 3071.04,-175.62"/>
</g>
<!-- Node70&#45;&gt;Node4 -->
<g id="edge61" class="edge">
<title>Node70&#45;&gt;Node4</title>
<path fill="none" stroke="midnightblue" d="M3188.64,-187.47C3477.91,-184.78 4722.25,-171.53 4750,-143 4776.96,-115.28 4776.41,-84.24 4750,-56 4706.75,-9.75 4254.39,-9.59 4118.43,-10.6"/>
<polygon fill="midnightblue" stroke="midnightblue" points="3188.32,-183.98 3178.35,-187.57 3188.39,-190.98 3188.32,-183.98"/>
</g>
<!-- Node70&#45;&gt;Node5 -->
<g id="edge62" class="edge">
<title>Node70&#45;&gt;Node5</title>
<path fill="none" stroke="midnightblue" d="M3096.52,-175.91C3069.26,-165.75 3031.01,-151.51 3006.87,-142.52"/>
<polygon fill="midnightblue" stroke="midnightblue" points="3095.43,-179.23 3106.02,-179.44 3097.87,-172.67 3095.43,-179.23"/>
</g>
</g>
</svg>
