<?xml version="1.0" encoding="UTF-8" standalone="no"?>
<!DOCTYPE svg PUBLIC "-//W3C//DTD SVG 1.1//EN"
 "http://www.w3.org/Graphics/SVG/1.1/DTD/svg11.dtd">
<!-- Generated by graphviz version 3.0.0 (20220413.0242)
 -->
<!-- Title: include/config.h Pages: 1 -->
<svg width="683pt" height="308pt"
 viewBox="0.00 0.00 683.00 308.00" xmlns="http://www.w3.org/2000/svg" xmlns:xlink="http://www.w3.org/1999/xlink">
<g id="graph0" class="graph" transform="scale(1 1) rotate(0) translate(4 304)">
<title>include/config.h</title>
<!-- Node1 -->
<g id="node1" class="node">
<title>Node1</title>
<g id="a_node1"><a xlink:title="Copyright (c) 2022 Daishi Mori (mori0091)">
<polygon fill="#bfbfbf" stroke="black" points="363.5,-280.5 363.5,-299.5 446.5,-299.5 446.5,-280.5 363.5,-280.5"/>
<text text-anchor="middle" x="405" y="-287.5" font-family="Helvetica,sans-Serif" font-size="10.00">include/config.h</text>
</a>
</g>
</g>
<!-- Node2 -->
<g id="node2" class="node">
<title>Node2</title>
<g id="a_node2"><a xlink:href="bios__const_8h.html" target="_top" xlink:title="Constant variables in the MSX BIOS ROM.">
<polygon fill="none" stroke="black" points="352.5,-224.5 352.5,-243.5 457.5,-243.5 457.5,-224.5 352.5,-224.5"/>
<text text-anchor="middle" x="405" y="-231.5" font-family="Helvetica,sans-Serif" font-size="10.00">include/bios_const.h</text>
</a>
</g>
</g>
<!-- Node1&#45;&gt;Node2 -->
<g id="edge1" class="edge">
<title>Node1&#45;&gt;Node2</title>
<path fill="none" stroke="midnightblue" d="M405,-269.8C405,-260.91 405,-250.78 405,-243.75"/>
<polygon fill="midnightblue" stroke="midnightblue" points="401.5,-270.08 405,-280.08 408.5,-270.08 401.5,-270.08"/>
</g>
<!-- Node4 -->
<g id="node4" class="node">
<title>Node4</title>
<g id="a_node4"><a xlink:href="msx_8h.html" target="_top" xlink:title="Copyright (c) 2021 Daishi Mori (mori0091)">
<polygon fill="none" stroke="black" points="321,-0.5 321,-19.5 397,-19.5 397,-0.5 321,-0.5"/>
<text text-anchor="middle" x="359" y="-7.5" font-family="Helvetica,sans-Serif" font-size="10.00">include/msx.h</text>
</a>
</g>
</g>
<!-- Node1&#45;&gt;Node4 -->
<g id="edge26" class="edge">
<title>Node1&#45;&gt;Node4</title>
<path fill="none" stroke="midnightblue" d="M353.04,-285.8C243.73,-277.64 0,-251.35 0,-179 0,-179 0,-179 0,-121 0,-72.02 43.85,-74.98 89,-56 166.98,-23.22 267.05,-14.27 320.8,-11.86"/>
<polygon fill="midnightblue" stroke="midnightblue" points="352.96,-289.3 363.18,-286.53 353.46,-282.32 352.96,-289.3"/>
</g>
<!-- Node7 -->
<g id="node7" class="node">
<title>Node7</title>
<g id="a_node7"><a xlink:href="bios__entry_8h.html" target="_top" xlink:title="Assembler entry points for MSX BIOS functions.">
<polygon fill="none" stroke="black" points="476,-224.5 476,-243.5 578,-243.5 578,-224.5 476,-224.5"/>
<text text-anchor="middle" x="527" y="-231.5" font-family="Helvetica,sans-Serif" font-size="10.00">include/bios_entry.h</text>
</a>
</g>
</g>
<!-- Node1&#45;&gt;Node7 -->
<g id="edge8" class="edge">
<title>Node1&#45;&gt;Node7</title>
<path fill="none" stroke="midnightblue" d="M433.54,-276.37C456.39,-266.26 487.81,-252.35 507.76,-243.52"/>
<polygon fill="midnightblue" stroke="midnightblue" points="432.06,-273.2 424.33,-280.44 434.89,-279.6 432.06,-273.2"/>
</g>
<!-- Node8 -->
<g id="node8" class="node">
<title>Node8</title>
<g id="a_node8"><a xlink:href="io_8h.html" target="_top" xlink:title="Copyright (c) 2021 Daishi Mori (mori0091)">
<polygon fill="none" stroke="black" points="269.5,-224.5 269.5,-243.5 334.5,-243.5 334.5,-224.5 269.5,-224.5"/>
<text text-anchor="middle" x="302" y="-231.5" font-family="Helvetica,sans-Serif" font-size="10.00">include/io.h</text>
</a>
</g>
</g>
<!-- Node1&#45;&gt;Node8 -->
<g id="edge10" class="edge">
<title>Node1&#45;&gt;Node8</title>
<path fill="none" stroke="midnightblue" d="M379.42,-275.59C360.38,-265.61 334.94,-252.27 318.51,-243.65"/>
<polygon fill="midnightblue" stroke="midnightblue" points="377.97,-278.78 388.45,-280.32 381.22,-272.58 377.97,-278.78"/>
</g>
<!-- Node14 -->
<g id="node14" class="node">
<title>Node14</title>
<g id="a_node14"><a xlink:href="workarea_8h.html" target="_top" xlink:title="Copyright (c) 2021 Daishi Mori (mori0091)">
<polygon fill="none" stroke="black" points="577,-168.5 577,-187.5 675,-187.5 675,-168.5 577,-168.5"/>
<text text-anchor="middle" x="626" y="-175.5" font-family="Helvetica,sans-Serif" font-size="10.00">include/workarea.h</text>
</a>
</g>
</g>
<!-- Node1&#45;&gt;Node14 -->
<g id="edge27" class="edge">
<title>Node1&#45;&gt;Node14</title>
<path fill="none" stroke="midnightblue" d="M456.91,-286.74C496,-282.7 549.15,-271.97 587,-244 606.69,-229.45 618.35,-201.73 623.26,-187.66"/>
<polygon fill="midnightblue" stroke="midnightblue" points="456.42,-283.27 446.79,-287.67 457.07,-290.24 456.42,-283.27"/>
</g>
<!-- Node3 -->
<g id="node3" class="node">
<title>Node3</title>
<g id="a_node3"><a xlink:href="bios_8h.html" target="_top" xlink:title="Copyright (c) 2021 Daishi Mori (mori0091)">
<polygon fill="none" stroke="black" points="483,-168.5 483,-187.5 559,-187.5 559,-168.5 483,-168.5"/>
<text text-anchor="middle" x="521" y="-175.5" font-family="Helvetica,sans-Serif" font-size="10.00">include/bios.h</text>
</a>
</g>
</g>
<!-- Node2&#45;&gt;Node3 -->
<g id="edge2" class="edge">
<title>Node2&#45;&gt;Node3</title>
<path fill="none" stroke="midnightblue" d="M432.72,-220.1C454.39,-210.01 483.9,-196.27 502.71,-187.52"/>
<polygon fill="midnightblue" stroke="midnightblue" points="430.97,-217.05 423.38,-224.44 433.92,-223.4 430.97,-217.05"/>
</g>
<!-- Node3&#45;&gt;Node4 -->
<g id="edge3" class="edge">
<title>Node3&#45;&gt;Node4</title>
<path fill="none" stroke="midnightblue" d="M542.71,-162.07C552.06,-154.31 561.97,-143.95 567,-132 574.99,-113.02 567.24,-65.84 558,-56 536.42,-33.02 448.64,-20.24 397.16,-14.59"/>
<polygon fill="midnightblue" stroke="midnightblue" points="540.56,-159.31 534.79,-168.19 544.84,-164.85 540.56,-159.31"/>
</g>
<!-- Node5 -->
<g id="node5" class="node">
<title>Node5</title>
<g id="a_node5"><a xlink:href="vdp_8h.html" target="_top" xlink:title="Data types and functions for VDP (Video Display Proccessor) access.">
<polygon fill="none" stroke="black" points="484,-112.5 484,-131.5 558,-131.5 558,-112.5 484,-112.5"/>
<text text-anchor="middle" x="521" y="-119.5" font-family="Helvetica,sans-Serif" font-size="10.00">include/vdp.h</text>
</a>
</g>
</g>
<!-- Node3&#45;&gt;Node5 -->
<g id="edge4" class="edge">
<title>Node3&#45;&gt;Node5</title>
<path fill="none" stroke="midnightblue" d="M521,-157.8C521,-148.91 521,-138.78 521,-131.75"/>
<polygon fill="midnightblue" stroke="midnightblue" points="517.5,-158.08 521,-168.08 524.5,-158.08 517.5,-158.08"/>
</g>
<!-- Node5&#45;&gt;Node4 -->
<g id="edge7" class="edge">
<title>Node5&#45;&gt;Node4</title>
<path fill="none" stroke="midnightblue" d="M534.19,-103.77C543.26,-89.68 551.87,-69.88 541,-56 523.49,-33.64 445.29,-20.85 397.27,-14.98"/>
<polygon fill="midnightblue" stroke="midnightblue" points="531.24,-101.89 528.37,-112.09 536.97,-105.9 531.24,-101.89"/>
</g>
<!-- Node6 -->
<g id="node6" class="node">
<title>Node6</title>
<g id="a_node6"><a xlink:href="metasprite_8h.html" target="_top" xlink:title="Copyright (c) 2021 Daishi Mori (mori0091)">
<polygon fill="none" stroke="black" points="428,-56.5 428,-75.5 532,-75.5 532,-56.5 428,-56.5"/>
<text text-anchor="middle" x="480" y="-63.5" font-family="Helvetica,sans-Serif" font-size="10.00">include/metasprite.h</text>
</a>
</g>
</g>
<!-- Node5&#45;&gt;Node6 -->
<g id="edge5" class="edge">
<title>Node5&#45;&gt;Node6</title>
<path fill="none" stroke="midnightblue" d="M507.98,-103.86C500.88,-94.5 492.4,-83.33 486.64,-75.75"/>
<polygon fill="midnightblue" stroke="midnightblue" points="505.39,-106.24 514.23,-112.08 510.97,-102 505.39,-106.24"/>
</g>
<!-- Node6&#45;&gt;Node4 -->
<g id="edge6" class="edge">
<title>Node6&#45;&gt;Node4</title>
<path fill="none" stroke="midnightblue" d="M451.69,-52.37C429.03,-42.26 397.87,-28.35 378.08,-19.52"/>
<polygon fill="midnightblue" stroke="midnightblue" points="450.27,-55.56 460.83,-56.44 453.12,-49.17 450.27,-55.56"/>
</g>
<!-- Node7&#45;&gt;Node3 -->
<g id="edge9" class="edge">
<title>Node7&#45;&gt;Node3</title>
<path fill="none" stroke="midnightblue" d="M524.9,-214.1C523.9,-205.14 522.76,-194.86 521.97,-187.75"/>
<polygon fill="midnightblue" stroke="midnightblue" points="521.43,-214.53 526.01,-224.08 528.38,-213.76 521.43,-214.53"/>
</g>
<!-- Node8&#45;&gt;Node4 -->
<g id="edge11" class="edge">
<title>Node8&#45;&gt;Node4</title>
<path fill="none" stroke="midnightblue" d="M259.38,-228.66C175.7,-218.4 2.58,-187.58 57,-112 118.21,-26.98 254.28,-12.49 320.84,-10.69"/>
<polygon fill="midnightblue" stroke="midnightblue" points="259.02,-232.14 269.36,-229.84 259.84,-225.19 259.02,-232.14"/>
</g>
<!-- Node8&#45;&gt;Node5 -->
<g id="edge15" class="edge">
<title>Node8&#45;&gt;Node5</title>
<path fill="none" stroke="midnightblue" d="M328.12,-219.88C373.52,-197.08 465.75,-150.75 503.9,-131.59"/>
<polygon fill="midnightblue" stroke="midnightblue" points="326.55,-216.75 319.18,-224.37 329.69,-223.01 326.55,-216.75"/>
</g>
<!-- Node9 -->
<g id="node9" class="node">
<title>Node9</title>
<g id="a_node9"><a xlink:href="psg_8h.html" target="_top" xlink:title="Copyright (c) 2021 Daishi Mori (mori0091)">
<polygon fill="none" stroke="black" points="161,-168.5 161,-187.5 235,-187.5 235,-168.5 161,-168.5"/>
<text text-anchor="middle" x="198" y="-175.5" font-family="Helvetica,sans-Serif" font-size="10.00">include/psg.h</text>
</a>
</g>
</g>
<!-- Node8&#45;&gt;Node9 -->
<g id="edge12" class="edge">
<title>Node8&#45;&gt;Node9</title>
<path fill="none" stroke="midnightblue" d="M276.17,-219.59C256.94,-209.61 231.26,-196.27 214.67,-187.65"/>
<polygon fill="midnightblue" stroke="midnightblue" points="274.8,-222.82 285.29,-224.32 278.03,-216.61 274.8,-222.82"/>
</g>
<!-- Node11 -->
<g id="node11" class="node">
<title>Node11</title>
<g id="a_node11"><a xlink:href="vmem_8h.html" target="_top" xlink:title="Data types and functions for VRAM access.">
<polygon fill="none" stroke="black" points="291.5,-168.5 291.5,-187.5 376.5,-187.5 376.5,-168.5 291.5,-168.5"/>
<text text-anchor="middle" x="334" y="-175.5" font-family="Helvetica,sans-Serif" font-size="10.00">include/vmem.h</text>
</a>
</g>
</g>
<!-- Node8&#45;&gt;Node11 -->
<g id="edge16" class="edge">
<title>Node8&#45;&gt;Node11</title>
<path fill="none" stroke="midnightblue" d="M312.5,-215.27C317.97,-206.05 324.42,-195.17 328.81,-187.75"/>
<polygon fill="midnightblue" stroke="midnightblue" points="309.37,-213.7 307.28,-224.08 315.39,-217.26 309.37,-213.7"/>
</g>
<!-- Node9&#45;&gt;Node4 -->
<g id="edge14" class="edge">
<title>Node9&#45;&gt;Node4</title>
<path fill="none" stroke="midnightblue" d="M200.51,-158.32C204.96,-132.14 216.62,-84.53 245,-56 265.41,-35.48 296.3,-24.06 320.79,-17.87"/>
<polygon fill="midnightblue" stroke="midnightblue" points="197.02,-157.99 198.97,-168.41 203.94,-159.05 197.02,-157.99"/>
</g>
<!-- Node10 -->
<g id="node10" class="node">
<title>Node10</title>
<g id="a_node10"><a xlink:href="ay__3__8910_8h.html" target="_top" xlink:title="Copyright (c) 2022 Daishi Mori (mori0091)">
<polygon fill="none" stroke="black" points="66,-112.5 66,-131.5 170,-131.5 170,-112.5 66,-112.5"/>
<text text-anchor="middle" x="118" y="-119.5" font-family="Helvetica,sans-Serif" font-size="10.00">include/ay_3_8910.h</text>
</a>
</g>
</g>
<!-- Node9&#45;&gt;Node10 -->
<g id="edge13" class="edge">
<title>Node9&#45;&gt;Node10</title>
<path fill="none" stroke="midnightblue" d="M176.7,-162.62C162.08,-152.76 143.17,-139.99 130.82,-131.65"/>
<polygon fill="midnightblue" stroke="midnightblue" points="174.9,-165.63 185.15,-168.32 178.82,-159.83 174.9,-165.63"/>
</g>
<!-- Node11&#45;&gt;Node4 -->
<g id="edge18" class="edge">
<title>Node11&#45;&gt;Node4</title>
<path fill="none" stroke="midnightblue" d="M312.61,-162.72C281.4,-140.08 229.69,-94.52 255,-56 269.53,-33.88 297.5,-22.59 320.77,-16.84"/>
<polygon fill="midnightblue" stroke="midnightblue" points="310.6,-165.59 320.79,-168.48 314.63,-159.86 310.6,-165.59"/>
</g>
<!-- Node11&#45;&gt;Node5 -->
<g id="edge25" class="edge">
<title>Node11&#45;&gt;Node5</title>
<path fill="none" stroke="midnightblue" d="M373.59,-165.57C408.87,-155.38 459.69,-140.7 491.51,-131.52"/>
<polygon fill="midnightblue" stroke="midnightblue" points="372.27,-162.31 363.63,-168.44 374.21,-169.03 372.27,-162.31"/>
</g>
<!-- Node11&#45;&gt;Node6 -->
<g id="edge17" class="edge">
<title>Node11&#45;&gt;Node6</title>
<path fill="none" stroke="midnightblue" d="M374.99,-165.21C395.2,-157.96 419.03,-147.11 437,-132 456.06,-115.98 469.93,-89.41 476.23,-75.73"/>
<polygon fill="midnightblue" stroke="midnightblue" points="373.73,-161.94 365.4,-168.48 375.99,-168.56 373.73,-161.94"/>
</g>
<!-- Node12 -->
<g id="node12" class="node">
<title>Node12</title>
<g id="a_node12"><a xlink:href="sprite_8h.html" target="_top" xlink:title="Copyright (c) 2021 Daishi Mori (mori0091)">
<polygon fill="none" stroke="black" points="346,-112.5 346,-131.5 428,-131.5 428,-112.5 346,-112.5"/>
<text text-anchor="middle" x="387" y="-119.5" font-family="Helvetica,sans-Serif" font-size="10.00">include/sprite.h</text>
</a>
</g>
</g>
<!-- Node11&#45;&gt;Node12 -->
<g id="edge19" class="edge">
<title>Node11&#45;&gt;Node12</title>
<path fill="none" stroke="midnightblue" d="M349.98,-160.72C359.32,-151.2 370.75,-139.56 378.41,-131.75"/>
<polygon fill="midnightblue" stroke="midnightblue" points="347.26,-158.49 342.75,-168.08 352.25,-163.4 347.26,-158.49"/>
</g>
<!-- Node13 -->
<g id="node13" class="node">
<title>Node13</title>
<g id="a_node13"><a xlink:href="sprite__color_8h.html" target="_top" xlink:title="Copyright (c) 2021 Daishi Mori (mori0091)">
<polygon fill="none" stroke="black" points="264,-56.5 264,-75.5 372,-75.5 372,-56.5 264,-56.5"/>
<text text-anchor="middle" x="318" y="-63.5" font-family="Helvetica,sans-Serif" font-size="10.00">include/sprite_color.h</text>
</a>
</g>
</g>
<!-- Node11&#45;&gt;Node13 -->
<g id="edge24" class="edge">
<title>Node11&#45;&gt;Node13</title>
<path fill="none" stroke="midnightblue" d="M331.29,-158.35C327.78,-134.25 321.83,-93.31 319.25,-75.59"/>
<polygon fill="midnightblue" stroke="midnightblue" points="327.84,-158.98 332.74,-168.37 334.77,-157.97 327.84,-158.98"/>
</g>
<!-- Node12&#45;&gt;Node4 -->
<g id="edge21" class="edge">
<title>Node12&#45;&gt;Node4</title>
<path fill="none" stroke="midnightblue" d="M387.05,-102.25C386.66,-89.08 385.26,-71.19 381,-56 377.24,-42.6 369.59,-28.37 364.38,-19.59"/>
<polygon fill="midnightblue" stroke="midnightblue" points="383.56,-102.45 387.18,-112.41 390.55,-102.36 383.56,-102.45"/>
</g>
<!-- Node12&#45;&gt;Node6 -->
<g id="edge20" class="edge">
<title>Node12&#45;&gt;Node6</title>
<path fill="none" stroke="midnightblue" d="M410.81,-107.18C427.92,-97.24 450.47,-84.15 465.1,-75.65"/>
<polygon fill="midnightblue" stroke="midnightblue" points="408.83,-104.28 401.94,-112.32 412.35,-110.33 408.83,-104.28"/>
</g>
<!-- Node12&#45;&gt;Node13 -->
<g id="edge22" class="edge">
<title>Node12&#45;&gt;Node13</title>
<path fill="none" stroke="midnightblue" d="M367.96,-106.1C355.54,-96.38 339.76,-84.03 329.29,-75.83"/>
<polygon fill="midnightblue" stroke="midnightblue" points="365.88,-108.92 375.91,-112.32 370.2,-103.4 365.88,-108.92"/>
</g>
<!-- Node13&#45;&gt;Node4 -->
<g id="edge23" class="edge">
<title>Node13&#45;&gt;Node4</title>
<path fill="none" stroke="midnightblue" d="M331.02,-47.86C338.12,-38.5 346.6,-27.33 352.36,-19.75"/>
<polygon fill="midnightblue" stroke="midnightblue" points="328.03,-46 324.77,-56.08 333.61,-50.24 328.03,-46"/>
</g>
<!-- Node14&#45;&gt;Node4 -->
<g id="edge28" class="edge">
<title>Node14&#45;&gt;Node4</title>
<path fill="none" stroke="midnightblue" d="M623.91,-158.36C619.86,-131.46 608.38,-82.15 577,-56 550.13,-33.61 452.28,-20.38 397.25,-14.56"/>
<polygon fill="midnightblue" stroke="midnightblue" points="620.45,-158.92 625.23,-168.38 627.4,-158.01 620.45,-158.92"/>
</g>
<!-- Node14&#45;&gt;Node5 -->
<g id="edge29" class="edge">
<title>Node14&#45;&gt;Node5</title>
<path fill="none" stroke="midnightblue" d="M600.19,-163.73C580.75,-153.73 554.65,-140.31 537.83,-131.65"/>
<polygon fill="midnightblue" stroke="midnightblue" points="598.64,-166.86 609.13,-168.32 601.84,-160.64 598.64,-166.86"/>
</g>
</g>
</svg>
