<?xml version="1.0" encoding="UTF-8" standalone="no"?>
<!DOCTYPE svg PUBLIC "-//W3C//DTD SVG 1.1//EN"
 "http://www.w3.org/Graphics/SVG/1.1/DTD/svg11.dtd">
<!-- Generated by graphviz version 3.0.0 (20220413.0106)
 -->
<!-- Title: include/config.h Pages: 1 -->
<svg width="4883pt" height="319pt"
 viewBox="0.00 0.00 4883.00 319.00" xmlns="http://www.w3.org/2000/svg" xmlns:xlink="http://www.w3.org/1999/xlink">
<g id="graph0" class="graph" transform="scale(1 1) rotate(0) translate(4 315)">
<title>include/config.h</title>
<!-- Node1 -->
<g id="node1" class="node">
<title>Node1</title>
<g id="a_node1"><a xlink:title="Copyright (c) 2022 Daishi Mori (mori0091)">
<polygon fill="#bfbfbf" stroke="black" points="2372.5,-291.5 2372.5,-310.5 2455.5,-310.5 2455.5,-291.5 2372.5,-291.5"/>
<text text-anchor="middle" x="2414" y="-298.5" font-family="Helvetica,sans-Serif" font-size="10.00">include/config.h</text>
</a>
</g>
</g>
<!-- Node2 -->
<g id="node2" class="node">
<title>Node2</title>
<g id="a_node2"><a xlink:href="bios__const_8h.html" target="_top" xlink:title="Constant variables in the MSX BIOS ROM.">
<polygon fill="none" stroke="black" points="632.5,-235.5 632.5,-254.5 737.5,-254.5 737.5,-235.5 632.5,-235.5"/>
<text text-anchor="middle" x="685" y="-242.5" font-family="Helvetica,sans-Serif" font-size="10.00">include/bios_const.h</text>
</a>
</g>
</g>
<!-- Node1&#45;&gt;Node2 -->
<g id="edge1" class="edge">
<title>Node1&#45;&gt;Node2</title>
<path fill="none" stroke="midnightblue" d="M2362.03,-298.38C2107.47,-290.43 994.03,-255.65 737.74,-247.65"/>
<polygon fill="midnightblue" stroke="midnightblue" points="2362.01,-301.88 2372.12,-298.69 2362.23,-294.88 2362.01,-301.88"/>
</g>
<!-- Node4 -->
<g id="node4" class="node">
<title>Node4</title>
<g id="a_node4"><a xlink:href="msx_8h.html" target="_top" xlink:title="Copyright (c) 2021 Daishi Mori (mori0091)">
<polygon fill="none" stroke="black" points="2407,-0.5 2407,-19.5 2483,-19.5 2483,-0.5 2407,-0.5"/>
<text text-anchor="middle" x="2445" y="-7.5" font-family="Helvetica,sans-Serif" font-size="10.00">include/msx.h</text>
</a>
</g>
</g>
<!-- Node1&#45;&gt;Node4 -->
<g id="edge60" class="edge">
<title>Node1&#45;&gt;Node4</title>
<path fill="none" stroke="midnightblue" d="M2466.05,-299.55C2673.79,-297.54 3463.82,-288.04 4113,-255 4282.73,-246.36 4875,-359.95 4875,-190 4875,-190 4875,-190 4875,-132 4875,-89.24 4854.22,-75.17 4816,-56 4761.6,-28.72 2784.16,-13.44 2483.23,-11.27"/>
<polygon fill="midnightblue" stroke="midnightblue" points="2465.71,-296.05 2455.74,-299.64 2465.78,-303.05 2465.71,-296.05"/>
</g>
<!-- Node52 -->
<g id="node42" class="node">
<title>Node52</title>
<g id="a_node42"><a xlink:href="bios__entry_8h.html" target="_top" xlink:title="Assembler entry points for MSX BIOS functions.">
<polygon fill="none" stroke="black" points="1759,-235.5 1759,-254.5 1861,-254.5 1861,-235.5 1759,-235.5"/>
<text text-anchor="middle" x="1810" y="-242.5" font-family="Helvetica,sans-Serif" font-size="10.00">include/bios_entry.h</text>
</a>
</g>
</g>
<!-- Node1&#45;&gt;Node52 -->
<g id="edge43" class="edge">
<title>Node1&#45;&gt;Node52</title>
<path fill="none" stroke="midnightblue" d="M2362.25,-295.37C2247.87,-285.15 1974.72,-260.73 1861.02,-250.56"/>
<polygon fill="midnightblue" stroke="midnightblue" points="2362.21,-298.88 2372.48,-296.29 2362.84,-291.91 2362.21,-298.88"/>
</g>
<!-- Node53 -->
<g id="node43" class="node">
<title>Node53</title>
<g id="a_node43"><a xlink:href="io_8h.html" target="_top" xlink:title="Copyright (c) 2021 Daishi Mori (mori0091)">
<polygon fill="none" stroke="black" points="2381.5,-235.5 2381.5,-254.5 2446.5,-254.5 2446.5,-235.5 2381.5,-235.5"/>
<text text-anchor="middle" x="2414" y="-242.5" font-family="Helvetica,sans-Serif" font-size="10.00">include/io.h</text>
</a>
</g>
</g>
<!-- Node1&#45;&gt;Node53 -->
<g id="edge45" class="edge">
<title>Node1&#45;&gt;Node53</title>
<path fill="none" stroke="midnightblue" d="M2414,-280.8C2414,-271.91 2414,-261.78 2414,-254.75"/>
<polygon fill="midnightblue" stroke="midnightblue" points="2410.5,-281.08 2414,-291.08 2417.5,-281.08 2410.5,-281.08"/>
</g>
<!-- Node70 -->
<g id="node50" class="node">
<title>Node70</title>
<g id="a_node50"><a xlink:href="workarea_8h.html" target="_top" xlink:title="Copyright (c) 2021 Daishi Mori (mori0091)">
<polygon fill="none" stroke="black" points="4749,-179.5 4749,-198.5 4847,-198.5 4847,-179.5 4749,-179.5"/>
<text text-anchor="middle" x="4798" y="-186.5" font-family="Helvetica,sans-Serif" font-size="10.00">include/workarea.h</text>
</a>
</g>
</g>
<!-- Node1&#45;&gt;Node70 -->
<g id="edge61" class="edge">
<title>Node1&#45;&gt;Node70</title>
<path fill="none" stroke="midnightblue" d="M2465.97,-299.63C2716.99,-297.44 3828.85,-283.23 4735,-199 4739.51,-198.58 4744.19,-198.06 4748.87,-197.49"/>
<polygon fill="midnightblue" stroke="midnightblue" points="2465.66,-296.13 2455.69,-299.72 2465.72,-303.13 2465.66,-296.13"/>
</g>
<!-- Node3 -->
<g id="node3" class="node">
<title>Node3</title>
<g id="a_node3"><a xlink:href="bios_8h.html" target="_top" xlink:title="Copyright (c) 2021 Daishi Mori (mori0091)">
<polygon fill="none" stroke="black" points="564,-179.5 564,-198.5 640,-198.5 640,-179.5 564,-179.5"/>
<text text-anchor="middle" x="602" y="-186.5" font-family="Helvetica,sans-Serif" font-size="10.00">include/bios.h</text>
</a>
</g>
</g>
<!-- Node2&#45;&gt;Node3 -->
<g id="edge2" class="edge">
<title>Node2&#45;&gt;Node3</title>
<path fill="none" stroke="midnightblue" d="M662.9,-229.62C647.74,-219.76 628.12,-206.99 615.3,-198.65"/>
<polygon fill="midnightblue" stroke="midnightblue" points="661.37,-232.8 671.66,-235.32 665.19,-226.94 661.37,-232.8"/>
</g>
<!-- Node3&#45;&gt;Node4 -->
<g id="edge3" class="edge">
<title>Node3&#45;&gt;Node4</title>
<path fill="none" stroke="midnightblue" d="M553.49,-188.46C473.88,-188.07 320.9,-182.09 287,-143 281.18,-136.28 281.05,-129.6 287,-123 360.91,-41.02 2123.19,-15.11 2406.67,-11.47"/>
<polygon fill="midnightblue" stroke="midnightblue" points="553.75,-191.96 563.76,-188.48 553.76,-184.96 553.75,-191.96"/>
</g>
<!-- Node5 -->
<g id="node5" class="node">
<title>Node5</title>
<g id="a_node5"><a xlink:href="vdp_8h.html" target="_top" xlink:title="Data types and functions for VDP (Video Display Proccessor) access.">
<polygon fill="none" stroke="red" points="2807,-123.5 2807,-142.5 2881,-142.5 2881,-123.5 2807,-123.5"/>
<text text-anchor="middle" x="2844" y="-130.5" font-family="Helvetica,sans-Serif" font-size="10.00">include/vdp.h</text>
</a>
</g>
</g>
<!-- Node3&#45;&gt;Node5 -->
<g id="edge4" class="edge">
<title>Node3&#45;&gt;Node5</title>
<path fill="none" stroke="midnightblue" d="M650.54,-186.83C949.96,-179.62 2541.59,-141.28 2806.59,-134.9"/>
<polygon fill="midnightblue" stroke="midnightblue" points="650.36,-183.33 640.44,-187.07 650.52,-190.33 650.36,-183.33"/>
</g>
<!-- Node45 -->
<g id="node35" class="node">
<title>Node45</title>
<g id="a_node35"><a xlink:href="joypad__get__state_8c.html" target="_top" xlink:title="Copyright (c) 2021 Daishi Mori (mori0091)">
<polygon fill="none" stroke="black" points="0,-123.5 0,-142.5 114,-142.5 114,-123.5 0,-123.5"/>
<text text-anchor="middle" x="57" y="-130.5" font-family="Helvetica,sans-Serif" font-size="10.00">src/joypad_get_state.c</text>
</a>
</g>
</g>
<!-- Node3&#45;&gt;Node45 -->
<g id="edge36" class="edge">
<title>Node3&#45;&gt;Node45</title>
<path fill="none" stroke="midnightblue" d="M553.72,-184.14C467.25,-177.07 280.28,-161.1 123,-143 120.13,-142.67 117.19,-142.32 114.22,-141.95"/>
<polygon fill="midnightblue" stroke="midnightblue" points="553.51,-187.63 563.76,-184.95 554.07,-180.65 553.51,-187.63"/>
</g>
<!-- Node46 -->
<g id="node36" class="node">
<title>Node46</title>
<g id="a_node36"><a xlink:href="msx__CHGCPU_8c.html" target="_top" xlink:title="Copyright (c) 2021 Daishi Mori (mori0091)">
<polygon fill="none" stroke="black" points="132.5,-123.5 132.5,-142.5 239.5,-142.5 239.5,-123.5 132.5,-123.5"/>
<text text-anchor="middle" x="186" y="-130.5" font-family="Helvetica,sans-Serif" font-size="10.00">src/msx_CHGCPU.c</text>
</a>
</g>
</g>
<!-- Node3&#45;&gt;Node46 -->
<g id="edge37" class="edge">
<title>Node3&#45;&gt;Node46</title>
<path fill="none" stroke="midnightblue" d="M553.61,-181.79C486.39,-173.15 360.93,-156.99 254,-143 249.39,-142.4 244.61,-141.77 239.82,-141.14"/>
<polygon fill="midnightblue" stroke="midnightblue" points="553.52,-185.31 563.89,-183.11 554.42,-178.36 553.52,-185.31"/>
</g>
<!-- Node47 -->
<g id="node37" class="node">
<title>Node47</title>
<g id="a_node37"><a xlink:href="msx__GTSTCK_8c.html" target="_top" xlink:title="Copyright (c) 2022 Daishi Mori (mori0091)">
<polygon fill="none" stroke="black" points="296,-123.5 296,-142.5 400,-142.5 400,-123.5 296,-123.5"/>
<text text-anchor="middle" x="348" y="-130.5" font-family="Helvetica,sans-Serif" font-size="10.00">src/msx_GTSTCK.c</text>
</a>
</g>
</g>
<!-- Node3&#45;&gt;Node47 -->
<g id="edge38" class="edge">
<title>Node3&#45;&gt;Node47</title>
<path fill="none" stroke="midnightblue" d="M554.16,-177.83C506.28,-167.65 433.44,-152.17 388.39,-142.59"/>
<polygon fill="midnightblue" stroke="midnightblue" points="553.46,-181.26 563.97,-179.92 554.92,-174.41 553.46,-181.26"/>
</g>
<!-- Node48 -->
<g id="node38" class="node">
<title>Node48</title>
<g id="a_node38"><a xlink:href="msx__GTTRIG_8c.html" target="_top" xlink:title="Copyright (c) 2022 Daishi Mori (mori0091)">
<polygon fill="none" stroke="black" points="418.5,-123.5 418.5,-142.5 519.5,-142.5 519.5,-123.5 418.5,-123.5"/>
<text text-anchor="middle" x="469" y="-130.5" font-family="Helvetica,sans-Serif" font-size="10.00">src/msx_GTTRIG.c</text>
</a>
</g>
</g>
<!-- Node3&#45;&gt;Node48 -->
<g id="edge39" class="edge">
<title>Node3&#45;&gt;Node48</title>
<path fill="none" stroke="midnightblue" d="M571.55,-175.64C546.59,-165.5 511.92,-151.43 489.98,-142.52"/>
<polygon fill="midnightblue" stroke="midnightblue" points="570.34,-178.92 580.93,-179.44 572.98,-172.44 570.34,-178.92"/>
</g>
<!-- Node49 -->
<g id="node39" class="node">
<title>Node49</title>
<g id="a_node39"><a xlink:href="msx__set__cpu__mode_8c.html" target="_top" xlink:title="Copyright (c) 2021 Daishi Mori (mori0091)">
<polygon fill="none" stroke="black" points="538,-123.5 538,-142.5 666,-142.5 666,-123.5 538,-123.5"/>
<text text-anchor="middle" x="602" y="-130.5" font-family="Helvetica,sans-Serif" font-size="10.00">src/msx_set_cpu_mode.c</text>
</a>
</g>
</g>
<!-- Node3&#45;&gt;Node49 -->
<g id="edge40" class="edge">
<title>Node3&#45;&gt;Node49</title>
<path fill="none" stroke="midnightblue" d="M602,-168.8C602,-159.91 602,-149.78 602,-142.75"/>
<polygon fill="midnightblue" stroke="midnightblue" points="598.5,-169.08 602,-179.08 605.5,-169.08 598.5,-169.08"/>
</g>
<!-- Node50 -->
<g id="node40" class="node">
<title>Node50</title>
<g id="a_node40"><a xlink:href="sleep__millis_8c.html" target="_top" xlink:title="Copyright (c) 2021 Daishi Mori (mori0091)">
<polygon fill="none" stroke="black" points="684,-123.5 684,-142.5 776,-142.5 776,-123.5 684,-123.5"/>
<text text-anchor="middle" x="730" y="-130.5" font-family="Helvetica,sans-Serif" font-size="10.00">src/sleep_millis.c</text>
</a>
</g>
</g>
<!-- Node3&#45;&gt;Node50 -->
<g id="edge41" class="edge">
<title>Node3&#45;&gt;Node50</title>
<path fill="none" stroke="midnightblue" d="M631.62,-175.5C655.62,-165.38 688.78,-151.39 709.81,-142.52"/>
<polygon fill="midnightblue" stroke="midnightblue" points="630.14,-172.33 622.28,-179.44 632.86,-178.78 630.14,-172.33"/>
</g>
<!-- Node51 -->
<g id="node41" class="node">
<title>Node51</title>
<g id="a_node41"><a xlink:href="sound_8c.html" target="_top" xlink:title="Copyright (c) 2021 Daishi Mori (mori0091)">
<polygon fill="none" stroke="black" points="964.5,-62 964.5,-81 1031.5,-81 1031.5,-62 964.5,-62"/>
<text text-anchor="middle" x="998" y="-69" font-family="Helvetica,sans-Serif" font-size="10.00">src/sound.c</text>
</a>
</g>
</g>
<!-- Node3&#45;&gt;Node51 -->
<g id="edge42" class="edge">
<title>Node3&#45;&gt;Node51</title>
<path fill="none" stroke="midnightblue" d="M650.41,-179.3C687.84,-171.81 740.6,-159.59 785,-143 803.25,-136.18 805.9,-130.19 824,-123 871.5,-104.13 928.81,-88.87 964.33,-80.24"/>
<polygon fill="midnightblue" stroke="midnightblue" points="649.42,-175.93 640.28,-181.29 650.76,-182.8 649.42,-175.93"/>
</g>
<!-- Node5&#45;&gt;Node4 -->
<g id="edge7" class="edge">
<title>Node5&#45;&gt;Node4</title>
<path fill="none" stroke="midnightblue" d="M2891.22,-131.39C3070.83,-128.84 3702.82,-117.7 3732,-87 3741.49,-77.01 3741.57,-65.91 3732,-56 3687.52,-9.94 2691.7,-10.28 2483.1,-10.86"/>
<polygon fill="midnightblue" stroke="midnightblue" points="2890.99,-127.89 2881.04,-131.53 2891.08,-134.89 2890.99,-127.89"/>
</g>
<!-- Node6 -->
<g id="node6" class="node">
<title>Node6</title>
<g id="a_node6"><a xlink:href="metasprite_8h.html" target="_top" xlink:title="Copyright (c) 2021 Daishi Mori (mori0091)">
<polygon fill="none" stroke="red" points="1088,-62 1088,-81 1192,-81 1192,-62 1088,-62"/>
<text text-anchor="middle" x="1140" y="-69" font-family="Helvetica,sans-Serif" font-size="10.00">include/metasprite.h</text>
</a>
</g>
</g>
<!-- Node5&#45;&gt;Node6 -->
<g id="edge5" class="edge">
<title>Node5&#45;&gt;Node6</title>
<path fill="none" stroke="midnightblue" d="M2796.43,-131.99C2561.36,-131.77 1522.32,-128.41 1202,-87 1191.8,-85.68 1180.83,-83.41 1171,-81.05"/>
<polygon fill="midnightblue" stroke="midnightblue" points="2796.69,-135.49 2806.69,-132 2796.7,-128.49 2796.69,-135.49"/>
</g>
<!-- Node10 -->
<g id="node7" class="node">
<title>Node10</title>
<g id="a_node7"><a xlink:href="vdp_8c.html" target="_top" xlink:title="Copyright (c) 2021 Daishi Mori (mori0091)">
<polygon fill="none" stroke="black" points="1830,-62 1830,-81 1886,-81 1886,-62 1830,-62"/>
<text text-anchor="middle" x="1858" y="-69" font-family="Helvetica,sans-Serif" font-size="10.00">src/vdp.c</text>
</a>
</g>
</g>
<!-- Node5&#45;&gt;Node10 -->
<g id="edge8" class="edge">
<title>Node5&#45;&gt;Node10</title>
<path fill="none" stroke="midnightblue" d="M2796.57,-131.73C2629.77,-130.47 2070.88,-123.54 1896,-87 1889.64,-85.67 1882.94,-83.42 1876.98,-81.09"/>
<polygon fill="midnightblue" stroke="midnightblue" points="2796.95,-135.23 2806.98,-131.8 2797,-128.23 2796.95,-135.23"/>
</g>
<!-- Node11 -->
<g id="node8" class="node">
<title>Node11</title>
<g id="a_node8"><a xlink:href="vdp__cmd__execute_8c.html" target="_top" xlink:title="Copyright (c) 2021 Daishi Mori (mori0091)">
<polygon fill="none" stroke="black" points="1904.5,-62 1904.5,-81 2023.5,-81 2023.5,-62 1904.5,-62"/>
<text text-anchor="middle" x="1964" y="-69" font-family="Helvetica,sans-Serif" font-size="10.00">src/vdp_cmd_execute.c</text>
</a>
</g>
</g>
<!-- Node5&#45;&gt;Node11 -->
<g id="edge9" class="edge">
<title>Node5&#45;&gt;Node11</title>
<path fill="none" stroke="midnightblue" d="M2796.6,-131.88C2671.33,-131 2321.28,-125.06 2033,-87 2022.08,-85.56 2010.31,-83.34 1999.63,-81.06"/>
<polygon fill="midnightblue" stroke="midnightblue" points="2796.61,-135.38 2806.63,-131.94 2796.65,-128.38 2796.61,-135.38"/>
</g>
<!-- Node12 -->
<g id="node9" class="node">
<title>Node12</title>
<g id="a_node9"><a xlink:href="vdp__cmd__execute__HMMM_8c.html" target="_top" xlink:title="Copyright (c) 2021 Daishi Mori (mori0091)">
<polygon fill="none" stroke="black" points="2042,-56.5 2042,-86.5 2154,-86.5 2154,-56.5 2042,-56.5"/>
<text text-anchor="start" x="2050" y="-74.5" font-family="Helvetica,sans-Serif" font-size="10.00">src/vdp_cmd_execute</text>
<text text-anchor="middle" x="2098" y="-63.5" font-family="Helvetica,sans-Serif" font-size="10.00">_HMMM.c</text>
</a>
</g>
</g>
<!-- Node5&#45;&gt;Node12 -->
<g id="edge10" class="edge">
<title>Node5&#45;&gt;Node12</title>
<path fill="none" stroke="midnightblue" d="M2796.68,-131.37C2685.53,-129.34 2399.32,-120.96 2163,-87 2160.14,-86.59 2157.22,-86.12 2154.27,-85.61"/>
<polygon fill="midnightblue" stroke="midnightblue" points="2796.82,-134.87 2806.88,-131.54 2796.94,-127.87 2796.82,-134.87"/>
</g>
<!-- Node13 -->
<g id="node10" class="node">
<title>Node13</title>
<g id="a_node10"><a xlink:href="vdp__cmd__execute__HMMV_8c.html" target="_top" xlink:title="Copyright (c) 2021 Daishi Mori (mori0091)">
<polygon fill="none" stroke="black" points="2172,-56.5 2172,-86.5 2284,-86.5 2284,-56.5 2172,-56.5"/>
<text text-anchor="start" x="2180" y="-74.5" font-family="Helvetica,sans-Serif" font-size="10.00">src/vdp_cmd_execute</text>
<text text-anchor="middle" x="2228" y="-63.5" font-family="Helvetica,sans-Serif" font-size="10.00">_HMMV.c</text>
</a>
</g>
</g>
<!-- Node5&#45;&gt;Node13 -->
<g id="edge11" class="edge">
<title>Node5&#45;&gt;Node13</title>
<path fill="none" stroke="midnightblue" d="M2796.49,-130.33C2700.75,-126.47 2477.99,-115.05 2293,-87 2290.14,-86.57 2287.22,-86.08 2284.28,-85.55"/>
<polygon fill="midnightblue" stroke="midnightblue" points="2796.58,-133.83 2806.71,-130.73 2796.86,-126.84 2796.58,-133.83"/>
</g>
<!-- Node14 -->
<g id="node11" class="node">
<title>Node14</title>
<g id="a_node11"><a xlink:href="vdp__cmd__execute__LMMM_8c.html" target="_top" xlink:title="Copyright (c) 2021 Daishi Mori (mori0091)">
<polygon fill="none" stroke="black" points="2302,-56.5 2302,-86.5 2414,-86.5 2414,-56.5 2302,-56.5"/>
<text text-anchor="start" x="2310" y="-74.5" font-family="Helvetica,sans-Serif" font-size="10.00">src/vdp_cmd_execute</text>
<text text-anchor="middle" x="2358" y="-63.5" font-family="Helvetica,sans-Serif" font-size="10.00">_LMMM.c</text>
</a>
</g>
</g>
<!-- Node5&#45;&gt;Node14 -->
<g id="edge12" class="edge">
<title>Node5&#45;&gt;Node14</title>
<path fill="none" stroke="midnightblue" d="M2796.92,-128.71C2718.85,-122.87 2557.84,-109.17 2423,-87 2420.15,-86.53 2417.23,-86.02 2414.29,-85.47"/>
<polygon fill="midnightblue" stroke="midnightblue" points="2796.69,-132.21 2806.92,-129.45 2797.21,-125.23 2796.69,-132.21"/>
</g>
<!-- Node15 -->
<g id="node12" class="node">
<title>Node15</title>
<g id="a_node12"><a xlink:href="vdp__cmd__execute__LMMV_8c.html" target="_top" xlink:title="Copyright (c) 2021 Daishi Mori (mori0091)">
<polygon fill="none" stroke="black" points="2432,-56.5 2432,-86.5 2544,-86.5 2544,-56.5 2432,-56.5"/>
<text text-anchor="start" x="2440" y="-74.5" font-family="Helvetica,sans-Serif" font-size="10.00">src/vdp_cmd_execute</text>
<text text-anchor="middle" x="2488" y="-63.5" font-family="Helvetica,sans-Serif" font-size="10.00">_LMMV.c</text>
</a>
</g>
</g>
<!-- Node5&#45;&gt;Node15 -->
<g id="edge13" class="edge">
<title>Node5&#45;&gt;Node15</title>
<path fill="none" stroke="midnightblue" d="M2796.55,-125.56C2738.99,-117.54 2639.1,-102.93 2554,-87 2550.77,-86.4 2547.46,-85.75 2544.12,-85.08"/>
<polygon fill="midnightblue" stroke="midnightblue" points="2796.41,-129.08 2806.79,-126.98 2797.37,-122.14 2796.41,-129.08"/>
</g>
<!-- Node16 -->
<g id="node13" class="node">
<title>Node16</title>
<g id="a_node13"><a xlink:href="vdp__cmd__set__unrestricted_8c.html" target="_top" xlink:title="Copyright (c) 2021 Daishi Mori (mori0091)">
<polygon fill="none" stroke="black" points="2562.5,-62 2562.5,-81 2717.5,-81 2717.5,-62 2562.5,-62"/>
<text text-anchor="middle" x="2640" y="-69" font-family="Helvetica,sans-Serif" font-size="10.00">src/vdp_cmd_set_unrestricted.c</text>
</a>
</g>
</g>
<!-- Node5&#45;&gt;Node16 -->
<g id="edge14" class="edge">
<title>Node5&#45;&gt;Node16</title>
<path fill="none" stroke="midnightblue" d="M2804.92,-120.6C2765.28,-109.04 2704.82,-91.41 2669.17,-81.01"/>
<polygon fill="midnightblue" stroke="midnightblue" points="2804.19,-124.04 2814.77,-123.48 2806.15,-117.32 2804.19,-124.04"/>
</g>
<!-- Node17 -->
<g id="node14" class="node">
<title>Node17</title>
<g id="a_node14"><a xlink:href="vdp__get__sprite__mode_8c.html" target="_top" xlink:title="Copyright (c) 2021 Daishi Mori (mori0091)">
<polygon fill="none" stroke="black" points="2735.5,-56.5 2735.5,-86.5 2832.5,-86.5 2832.5,-56.5 2735.5,-56.5"/>
<text text-anchor="start" x="2743.5" y="-74.5" font-family="Helvetica,sans-Serif" font-size="10.00">src/vdp_get_sprite</text>
<text text-anchor="middle" x="2784" y="-63.5" font-family="Helvetica,sans-Serif" font-size="10.00">_mode.c</text>
</a>
</g>
</g>
<!-- Node5&#45;&gt;Node17 -->
<g id="edge15" class="edge">
<title>Node5&#45;&gt;Node17</title>
<path fill="none" stroke="midnightblue" d="M2828.24,-116.37C2818.9,-107.11 2807.18,-95.48 2798.14,-86.52"/>
<polygon fill="midnightblue" stroke="midnightblue" points="2825.84,-118.92 2835.4,-123.48 2830.77,-113.95 2825.84,-118.92"/>
</g>
<!-- Node18 -->
<g id="node15" class="node">
<title>Node18</title>
<g id="a_node15"><a xlink:href="vdp__get__status_8c.html" target="_top" xlink:title="Copyright (c) 2021 Daishi Mori (mori0091)">
<polygon fill="none" stroke="black" points="2850.5,-62 2850.5,-81 2957.5,-81 2957.5,-62 2850.5,-62"/>
<text text-anchor="middle" x="2904" y="-69" font-family="Helvetica,sans-Serif" font-size="10.00">src/vdp_get_status.c</text>
</a>
</g>
</g>
<!-- Node5&#45;&gt;Node18 -->
<g id="edge16" class="edge">
<title>Node5&#45;&gt;Node18</title>
<path fill="none" stroke="midnightblue" d="M2859.81,-116.32C2871.21,-105.02 2886.16,-90.19 2895.42,-81.01"/>
<polygon fill="midnightblue" stroke="midnightblue" points="2857.23,-113.95 2852.6,-123.48 2862.16,-118.92 2857.23,-113.95"/>
</g>
<!-- Node19 -->
<g id="node16" class="node">
<title>Node19</title>
<g id="a_node16"><a xlink:href="vdp__set__adjust_8c.html" target="_top" xlink:title="Copyright (c) 2021 Daishi Mori (mori0091)">
<polygon fill="none" stroke="black" points="2975.5,-62 2975.5,-81 3082.5,-81 3082.5,-62 2975.5,-62"/>
<text text-anchor="middle" x="3029" y="-69" font-family="Helvetica,sans-Serif" font-size="10.00">src/vdp_set_adjust.c</text>
</a>
</g>
</g>
<!-- Node5&#45;&gt;Node19 -->
<g id="edge17" class="edge">
<title>Node5&#45;&gt;Node19</title>
<path fill="none" stroke="midnightblue" d="M2880.13,-120.38C2916.09,-108.82 2970.42,-91.34 3002.54,-81.01"/>
<polygon fill="midnightblue" stroke="midnightblue" points="2878.95,-117.08 2870.51,-123.48 2881.1,-123.75 2878.95,-117.08"/>
</g>
<!-- Node20 -->
<g id="node17" class="node">
<title>Node20</title>
<g id="a_node17"><a xlink:href="vdp__set__color_8c.html" target="_top" xlink:title="Copyright (c) 2021 Daishi Mori (mori0091)">
<polygon fill="none" stroke="black" points="3100.5,-62 3100.5,-81 3201.5,-81 3201.5,-62 3100.5,-62"/>
<text text-anchor="middle" x="3151" y="-69" font-family="Helvetica,sans-Serif" font-size="10.00">src/vdp_set_color.c</text>
</a>
</g>
</g>
<!-- Node5&#45;&gt;Node20 -->
<g id="edge18" class="edge">
<title>Node5&#45;&gt;Node20</title>
<path fill="none" stroke="midnightblue" d="M2890.99,-124.36C2940.99,-116.02 3022.34,-101.87 3092,-87 3100.36,-85.22 3109.33,-83.11 3117.7,-81.06"/>
<polygon fill="midnightblue" stroke="midnightblue" points="2890.41,-120.91 2881.11,-126 2891.55,-127.81 2890.41,-120.91"/>
</g>
<!-- Node21 -->
<g id="node18" class="node">
<title>Node21</title>
<g id="a_node18"><a xlink:href="vdp__set__color__table_8c.html" target="_top" xlink:title="Copyright (c) 2021 Daishi Mori (mori0091)">
<polygon fill="none" stroke="black" points="3220,-62 3220,-81 3348,-81 3348,-62 3220,-62"/>
<text text-anchor="middle" x="3284" y="-69" font-family="Helvetica,sans-Serif" font-size="10.00">src/vdp_set_color_table.c</text>
</a>
</g>
</g>
<!-- Node5&#45;&gt;Node21 -->
<g id="edge19" class="edge">
<title>Node5&#45;&gt;Node21</title>
<path fill="none" stroke="midnightblue" d="M2891.38,-127.32C2961.45,-120.15 3096.76,-105.32 3211,-87 3221.72,-85.28 3233.26,-83.13 3243.93,-81.01"/>
<polygon fill="midnightblue" stroke="midnightblue" points="2890.71,-123.87 2881.11,-128.37 2891.42,-130.84 2890.71,-123.87"/>
</g>
<!-- Node22 -->
<g id="node19" class="node">
<title>Node22</title>
<g id="a_node19"><a xlink:href="vdp__set__control_8c.html" target="_top" xlink:title="Copyright (c) 2021 Daishi Mori (mori0091)">
<polygon fill="none" stroke="black" points="3366,-62 3366,-81 3476,-81 3476,-62 3366,-62"/>
<text text-anchor="middle" x="3421" y="-69" font-family="Helvetica,sans-Serif" font-size="10.00">src/vdp_set_control.c</text>
</a>
</g>
</g>
<!-- Node5&#45;&gt;Node22 -->
<g id="edge20" class="edge">
<title>Node5&#45;&gt;Node22</title>
<path fill="none" stroke="midnightblue" d="M2891.47,-129.98C2982.32,-125.65 3186.85,-113.61 3357,-87 3366.91,-85.45 3377.56,-83.25 3387.29,-81.04"/>
<polygon fill="midnightblue" stroke="midnightblue" points="2891.05,-126.5 2881.22,-130.46 2891.38,-133.49 2891.05,-126.5"/>
</g>
<!-- Node23 -->
<g id="node20" class="node">
<title>Node23</title>
<g id="a_node20"><a xlink:href="vdp__set__hscroll_8c.html" target="_top" xlink:title="Copyright (c) 2021 Daishi Mori (mori0091)">
<polygon fill="none" stroke="black" points="3494.5,-62 3494.5,-81 3603.5,-81 3603.5,-62 3494.5,-62"/>
<text text-anchor="middle" x="3549" y="-69" font-family="Helvetica,sans-Serif" font-size="10.00">src/vdp_set_hscroll.c</text>
</a>
</g>
</g>
<!-- Node5&#45;&gt;Node23 -->
<g id="edge21" class="edge">
<title>Node5&#45;&gt;Node23</title>
<path fill="none" stroke="midnightblue" d="M2891.16,-131.15C2997.61,-128.7 3264.44,-119.53 3485,-87 3495.03,-85.52 3505.82,-83.32 3515.63,-81.07"/>
<polygon fill="midnightblue" stroke="midnightblue" points="2890.99,-127.65 2881.07,-131.37 2891.14,-134.65 2890.99,-127.65"/>
</g>
<!-- Node24 -->
<g id="node21" class="node">
<title>Node24</title>
<g id="a_node21"><a xlink:href="vdp__set__hscroll__dual__page_8c.html" target="_top" xlink:title="Copyright (c) 2021 Daishi Mori (mori0091)">
<polygon fill="none" stroke="black" points="3621.5,-56.5 3621.5,-86.5 3722.5,-86.5 3722.5,-56.5 3621.5,-56.5"/>
<text text-anchor="start" x="3629.5" y="-74.5" font-family="Helvetica,sans-Serif" font-size="10.00">src/vdp_set_hscroll</text>
<text text-anchor="middle" x="3672" y="-63.5" font-family="Helvetica,sans-Serif" font-size="10.00">_dual_page.c</text>
</a>
</g>
</g>
<!-- Node5&#45;&gt;Node24 -->
<g id="edge22" class="edge">
<title>Node5&#45;&gt;Node24</title>
<path fill="none" stroke="midnightblue" d="M2891.08,-132.22C3011.79,-132.15 3341.88,-127.9 3613,-87 3615.71,-86.59 3618.48,-86.12 3621.27,-85.59"/>
<polygon fill="midnightblue" stroke="midnightblue" points="2891.07,-128.72 2881.07,-132.22 2891.06,-135.72 2891.07,-128.72"/>
</g>
<!-- Node25 -->
<g id="node22" class="node">
<title>Node25</title>
<g id="a_node22"><a xlink:href="vdp__set__hscroll__mask_8c.html" target="_top" xlink:title="Copyright (c) 2021 Daishi Mori (mori0091)">
<polygon fill="none" stroke="black" points="3779.5,-56.5 3779.5,-86.5 3880.5,-86.5 3880.5,-56.5 3779.5,-56.5"/>
<text text-anchor="start" x="3787.5" y="-74.5" font-family="Helvetica,sans-Serif" font-size="10.00">src/vdp_set_hscroll</text>
<text text-anchor="middle" x="3830" y="-63.5" font-family="Helvetica,sans-Serif" font-size="10.00">_mask.c</text>
</a>
</g>
</g>
<!-- Node5&#45;&gt;Node25 -->
<g id="edge23" class="edge">
<title>Node5&#45;&gt;Node25</title>
<path fill="none" stroke="midnightblue" d="M2891.14,-132.52C3027.29,-133.43 3432.57,-131.87 3765,-87 3769.7,-86.37 3774.56,-85.56 3779.41,-84.66"/>
<polygon fill="midnightblue" stroke="midnightblue" points="2891.08,-129.02 2881.06,-132.45 2891.03,-136.02 2891.08,-129.02"/>
</g>
<!-- Node26 -->
<g id="node23" class="node">
<title>Node26</title>
<g id="a_node23"><a xlink:href="vdp__set__image__table_8c.html" target="_top" xlink:title="Copyright (c) 2021 Daishi Mori (mori0091)">
<polygon fill="none" stroke="black" points="3898.5,-62 3898.5,-81 4031.5,-81 4031.5,-62 3898.5,-62"/>
<text text-anchor="middle" x="3965" y="-69" font-family="Helvetica,sans-Serif" font-size="10.00">src/vdp_set_image_table.c</text>
</a>
</g>
</g>
<!-- Node5&#45;&gt;Node26 -->
<g id="edge24" class="edge">
<title>Node5&#45;&gt;Node26</title>
<path fill="none" stroke="midnightblue" d="M2891.32,-132.45C3039.34,-133.33 3506.57,-132.06 3890,-87 3901.99,-85.59 3914.93,-83.35 3926.63,-81.05"/>
<polygon fill="midnightblue" stroke="midnightblue" points="2891.24,-128.95 2881.22,-132.38 2891.19,-135.95 2891.24,-128.95"/>
</g>
<!-- Node27 -->
<g id="node24" class="node">
<title>Node27</title>
<g id="a_node24"><a xlink:href="vdp__set__palette_8c.html" target="_top" xlink:title="Copyright (c) 2021 Daishi Mori (mori0091)">
<polygon fill="none" stroke="black" points="4050,-62 4050,-81 4160,-81 4160,-62 4050,-62"/>
<text text-anchor="middle" x="4105" y="-69" font-family="Helvetica,sans-Serif" font-size="10.00">src/vdp_set_palette.c</text>
</a>
</g>
</g>
<!-- Node5&#45;&gt;Node27 -->
<g id="edge25" class="edge">
<title>Node5&#45;&gt;Node27</title>
<path fill="none" stroke="midnightblue" d="M2891.11,-131.39C3083.82,-128.74 3812.71,-116.89 4041,-87 4051.39,-85.64 4062.58,-83.38 4072.65,-81.05"/>
<polygon fill="midnightblue" stroke="midnightblue" points="2890.97,-127.9 2881.02,-131.53 2891.07,-134.9 2890.97,-127.9"/>
</g>
<!-- Node28 -->
<g id="node25" class="node">
<title>Node28</title>
<g id="a_node25"><a xlink:href="vdp__set__pattern__table_8c.html" target="_top" xlink:title="Copyright (c) 2021 Daishi Mori (mori0091)">
<polygon fill="none" stroke="black" points="4178.5,-56.5 4178.5,-86.5 4281.5,-86.5 4281.5,-56.5 4178.5,-56.5"/>
<text text-anchor="start" x="4186.5" y="-74.5" font-family="Helvetica,sans-Serif" font-size="10.00">src/vdp_set_pattern</text>
<text text-anchor="middle" x="4230" y="-63.5" font-family="Helvetica,sans-Serif" font-size="10.00">_table.c</text>
</a>
</g>
</g>
<!-- Node5&#45;&gt;Node28 -->
<g id="edge26" class="edge">
<title>Node5&#45;&gt;Node28</title>
<path fill="none" stroke="midnightblue" d="M2891.36,-131.66C3097.13,-129.97 3914.51,-121.22 4169,-87 4172.02,-86.59 4175.11,-86.1 4178.22,-85.55"/>
<polygon fill="midnightblue" stroke="midnightblue" points="2891.16,-128.16 2881.19,-131.74 2891.22,-135.16 2891.16,-128.16"/>
</g>
<!-- Node29 -->
<g id="node26" class="node">
<title>Node29</title>
<g id="a_node26"><a xlink:href="vdp__set__screen__lines_8c.html" target="_top" xlink:title="Copyright (c) 2021 Daishi Mori (mori0091)">
<polygon fill="none" stroke="black" points="4300,-56.5 4300,-86.5 4402,-86.5 4402,-56.5 4300,-56.5"/>
<text text-anchor="start" x="4308" y="-74.5" font-family="Helvetica,sans-Serif" font-size="10.00">src/vdp_set_screen</text>
<text text-anchor="middle" x="4351" y="-63.5" font-family="Helvetica,sans-Serif" font-size="10.00">_lines.c</text>
</a>
</g>
</g>
<!-- Node5&#45;&gt;Node29 -->
<g id="edge27" class="edge">
<title>Node5&#45;&gt;Node29</title>
<path fill="none" stroke="midnightblue" d="M2891.42,-131.84C3108.8,-130.89 4011.32,-124.73 4291,-87 4293.87,-86.61 4296.8,-86.15 4299.75,-85.62"/>
<polygon fill="midnightblue" stroke="midnightblue" points="2891.29,-128.34 2881.3,-131.88 2891.32,-135.34 2891.29,-128.34"/>
</g>
<!-- Node30 -->
<g id="node27" class="node">
<title>Node30</title>
<g id="a_node27"><a xlink:href="vdp__set__screen__mode_8c.html" target="_top" xlink:title="Copyright (c) 2021 Daishi Mori (mori0091)">
<polygon fill="none" stroke="black" points="4420,-56.5 4420,-86.5 4522,-86.5 4522,-56.5 4420,-56.5"/>
<text text-anchor="start" x="4428" y="-74.5" font-family="Helvetica,sans-Serif" font-size="10.00">src/vdp_set_screen</text>
<text text-anchor="middle" x="4471" y="-63.5" font-family="Helvetica,sans-Serif" font-size="10.00">_mode.c</text>
</a>
</g>
</g>
<!-- Node5&#45;&gt;Node30 -->
<g id="edge28" class="edge">
<title>Node5&#45;&gt;Node30</title>
<path fill="none" stroke="midnightblue" d="M2891.59,-131.97C3120.13,-131.62 4106.45,-127.72 4411,-87 4413.87,-86.62 4416.8,-86.15 4419.75,-85.63"/>
<polygon fill="midnightblue" stroke="midnightblue" points="2891.28,-128.47 2881.28,-131.98 2891.29,-135.47 2891.28,-128.47"/>
</g>
<!-- Node31 -->
<g id="node28" class="node">
<title>Node31</title>
<g id="a_node28"><a xlink:href="vdp__set__sprite__attribute__table_8c.html" target="_top" xlink:title="Copyright (c) 2021 Daishi Mori (mori0091)">
<polygon fill="none" stroke="black" points="4539.5,-56.5 4539.5,-86.5 4636.5,-86.5 4636.5,-56.5 4539.5,-56.5"/>
<text text-anchor="start" x="4547.5" y="-74.5" font-family="Helvetica,sans-Serif" font-size="10.00">src/vdp_set_sprite</text>
<text text-anchor="middle" x="4588" y="-63.5" font-family="Helvetica,sans-Serif" font-size="10.00">_attribute_table.c</text>
</a>
</g>
</g>
<!-- Node5&#45;&gt;Node31 -->
<g id="edge29" class="edge">
<title>Node5&#45;&gt;Node31</title>
<path fill="none" stroke="midnightblue" d="M2891.36,-132.16C3129.93,-132.74 4201.62,-132.71 4531,-87 4533.73,-86.62 4536.52,-86.16 4539.32,-85.64"/>
<polygon fill="midnightblue" stroke="midnightblue" points="2891.29,-128.66 2881.28,-132.13 2891.27,-135.66 2891.29,-128.66"/>
</g>
<!-- Node32 -->
<g id="node29" class="node">
<title>Node32</title>
<g id="a_node29"><a xlink:href="vdp__set__sprite__pattern__table_8c.html" target="_top" xlink:title="Copyright (c) 2021 Daishi Mori (mori0091)">
<polygon fill="none" stroke="black" points="4654.5,-56.5 4654.5,-86.5 4751.5,-86.5 4751.5,-56.5 4654.5,-56.5"/>
<text text-anchor="start" x="4662.5" y="-74.5" font-family="Helvetica,sans-Serif" font-size="10.00">src/vdp_set_sprite</text>
<text text-anchor="middle" x="4703" y="-63.5" font-family="Helvetica,sans-Serif" font-size="10.00">_pattern_table.c</text>
</a>
</g>
</g>
<!-- Node5&#45;&gt;Node32 -->
<g id="edge30" class="edge">
<title>Node5&#45;&gt;Node32</title>
<path fill="none" stroke="midnightblue" d="M2891.35,-132.25C3139.57,-133.36 4292.63,-135.73 4646,-87 4648.73,-86.62 4651.52,-86.16 4654.32,-85.65"/>
<polygon fill="midnightblue" stroke="midnightblue" points="2891.24,-128.75 2881.22,-132.21 2891.21,-135.75 2891.24,-128.75"/>
</g>
<!-- Node33 -->
<g id="node30" class="node">
<title>Node33</title>
<g id="a_node30"><a xlink:href="vdp__set__sprite__size_8c.html" target="_top" xlink:title="Copyright (c) 2021 Daishi Mori (mori0091)">
<polygon fill="none" stroke="black" points="1210.5,-56.5 1210.5,-86.5 1307.5,-86.5 1307.5,-56.5 1210.5,-56.5"/>
<text text-anchor="start" x="1218.5" y="-74.5" font-family="Helvetica,sans-Serif" font-size="10.00">src/vdp_set_sprite</text>
<text text-anchor="middle" x="1259" y="-63.5" font-family="Helvetica,sans-Serif" font-size="10.00">_size.c</text>
</a>
</g>
</g>
<!-- Node5&#45;&gt;Node33 -->
<g id="edge31" class="edge">
<title>Node5&#45;&gt;Node33</title>
<path fill="none" stroke="midnightblue" d="M2796.89,-131.98C2572.79,-131.66 1613.28,-127.91 1317,-87 1313.92,-86.57 1310.76,-86.05 1307.59,-85.45"/>
<polygon fill="midnightblue" stroke="midnightblue" points="2796.99,-135.48 2807,-131.99 2797,-128.48 2796.99,-135.48"/>
</g>
<!-- Node34 -->
<g id="node31" class="node">
<title>Node34</title>
<g id="a_node31"><a xlink:href="vdp__set__sprite__visible_8c.html" target="_top" xlink:title="Copyright (c) 2021 Daishi Mori (mori0091)">
<polygon fill="none" stroke="black" points="1325.5,-56.5 1325.5,-86.5 1422.5,-86.5 1422.5,-56.5 1325.5,-56.5"/>
<text text-anchor="start" x="1333.5" y="-74.5" font-family="Helvetica,sans-Serif" font-size="10.00">src/vdp_set_sprite</text>
<text text-anchor="middle" x="1374" y="-63.5" font-family="Helvetica,sans-Serif" font-size="10.00">_visible.c</text>
</a>
</g>
</g>
<!-- Node5&#45;&gt;Node34 -->
<g id="edge32" class="edge">
<title>Node5&#45;&gt;Node34</title>
<path fill="none" stroke="midnightblue" d="M2796.7,-131.85C2582.76,-130.94 1704.33,-124.94 1432,-87 1428.92,-86.57 1425.76,-86.04 1422.59,-85.44"/>
<polygon fill="midnightblue" stroke="midnightblue" points="2796.94,-135.35 2806.96,-131.89 2796.97,-128.35 2796.94,-135.35"/>
</g>
<!-- Node35 -->
<g id="node32" class="node">
<title>Node35</title>
<g id="a_node32"><a xlink:href="vdp__set__visible_8c.html" target="_top" xlink:title="Copyright (c) 2021 Daishi Mori (mori0091)">
<polygon fill="none" stroke="black" points="1441,-62 1441,-81 1549,-81 1549,-62 1441,-62"/>
<text text-anchor="middle" x="1495" y="-69" font-family="Helvetica,sans-Serif" font-size="10.00">src/vdp_set_visible.c</text>
</a>
</g>
</g>
<!-- Node5&#45;&gt;Node35 -->
<g id="edge33" class="edge">
<title>Node5&#45;&gt;Node35</title>
<path fill="none" stroke="midnightblue" d="M2796.45,-131.53C2594.28,-129.35 1805.3,-118.93 1559,-87 1548.61,-85.65 1537.42,-83.4 1527.35,-81.07"/>
<polygon fill="midnightblue" stroke="midnightblue" points="2796.69,-135.03 2806.73,-131.64 2796.77,-128.03 2796.69,-135.03"/>
</g>
<!-- Node36 -->
<g id="node33" class="node">
<title>Node36</title>
<g id="a_node33"><a xlink:href="vdp__set__vscroll_8c.html" target="_top" xlink:title="Copyright (c) 2021 Daishi Mori (mori0091)">
<polygon fill="none" stroke="black" points="1567.5,-62 1567.5,-81 1676.5,-81 1676.5,-62 1567.5,-62"/>
<text text-anchor="middle" x="1622" y="-69" font-family="Helvetica,sans-Serif" font-size="10.00">src/vdp_set_vscroll.c</text>
</a>
</g>
</g>
<!-- Node5&#45;&gt;Node36 -->
<g id="edge34" class="edge">
<title>Node5&#45;&gt;Node36</title>
<path fill="none" stroke="midnightblue" d="M2796.58,-131.32C2607.38,-128.43 1906.12,-115.96 1686,-87 1675.61,-85.63 1664.42,-83.38 1654.35,-81.04"/>
<polygon fill="midnightblue" stroke="midnightblue" points="2796.7,-134.82 2806.76,-131.47 2796.81,-127.82 2796.7,-134.82"/>
</g>
<!-- Node37 -->
<g id="node34" class="node">
<title>Node37</title>
<g id="a_node34"><a xlink:href="vdp__write__control_8c.html" target="_top" xlink:title="Copyright (c) 2021 Daishi Mori (mori0091)">
<polygon fill="none" stroke="black" points="1694.5,-62 1694.5,-81 1811.5,-81 1811.5,-62 1694.5,-62"/>
<text text-anchor="middle" x="1753" y="-69" font-family="Helvetica,sans-Serif" font-size="10.00">src/vdp_write_control.c</text>
</a>
</g>
</g>
<!-- Node5&#45;&gt;Node37 -->
<g id="edge35" class="edge">
<title>Node5&#45;&gt;Node37</title>
<path fill="none" stroke="midnightblue" d="M2796.77,-130.97C2622.2,-126.98 2013.58,-111.59 1821,-87 1810.1,-85.61 1798.36,-83.37 1787.75,-81.07"/>
<polygon fill="midnightblue" stroke="midnightblue" points="2796.84,-134.47 2806.92,-131.2 2797,-127.47 2796.84,-134.47"/>
</g>
<!-- Node6&#45;&gt;Node4 -->
<g id="edge6" class="edge">
<title>Node6&#45;&gt;Node4</title>
<path fill="none" stroke="midnightblue" d="M1181.21,-59.69C1188.11,-58.22 1195.23,-56.91 1202,-56 1443.46,-23.7 2224.83,-13.38 2406.85,-11.39"/>
<polygon fill="midnightblue" stroke="midnightblue" points="1180.3,-56.31 1171.32,-61.93 1181.85,-63.14 1180.3,-56.31"/>
</g>
<!-- Node52&#45;&gt;Node3 -->
<g id="edge44" class="edge">
<title>Node52&#45;&gt;Node3</title>
<path fill="none" stroke="midnightblue" d="M1748.69,-241.26C1533.2,-231.63 814.24,-199.49 640.19,-191.71"/>
<polygon fill="midnightblue" stroke="midnightblue" points="1748.72,-244.76 1758.87,-241.71 1749.03,-237.77 1748.72,-244.76"/>
</g>
<!-- Node53&#45;&gt;Node4 -->
<g id="edge46" class="edge">
<title>Node53&#45;&gt;Node4</title>
<path fill="none" stroke="midnightblue" d="M2457.04,-243.89C2789.42,-242.7 4930,-228.32 4761,-56 4719.4,-13.58 2780.1,-11.13 2483.01,-11"/>
<polygon fill="midnightblue" stroke="midnightblue" points="2456.85,-240.39 2446.86,-243.93 2456.87,-247.39 2456.85,-240.39"/>
</g>
<!-- Node53&#45;&gt;Node5 -->
<g id="edge55" class="edge">
<title>Node53&#45;&gt;Node5</title>
<path fill="none" stroke="midnightblue" d="M2456.56,-233.11C2542.06,-211.24 2733.11,-162.37 2810.49,-142.57"/>
<polygon fill="midnightblue" stroke="midnightblue" points="2455.49,-229.77 2446.67,-235.64 2457.23,-236.55 2455.49,-229.77"/>
</g>
<!-- Node54 -->
<g id="node44" class="node">
<title>Node54</title>
<g id="a_node44"><a xlink:href="psg_8h.html" target="_top" xlink:title="Copyright (c) 2021 Daishi Mori (mori0091)">
<polygon fill="none" stroke="black" points="1059,-179.5 1059,-198.5 1133,-198.5 1133,-179.5 1059,-179.5"/>
<text text-anchor="middle" x="1096" y="-186.5" font-family="Helvetica,sans-Serif" font-size="10.00">include/psg.h</text>
</a>
</g>
</g>
<!-- Node53&#45;&gt;Node54 -->
<g id="edge47" class="edge">
<title>Node53&#45;&gt;Node54</title>
<path fill="none" stroke="midnightblue" d="M2371.27,-242.25C2170.38,-234.02 1321.78,-199.25 1133.22,-191.53"/>
<polygon fill="midnightblue" stroke="midnightblue" points="2371.29,-245.75 2381.42,-242.67 2371.57,-238.76 2371.29,-245.75"/>
</g>
<!-- Node60 -->
<g id="node49" class="node">
<title>Node60</title>
<g id="a_node49"><a xlink:href="vmem_8h.html" target="_top" xlink:title="Data types and functions for VRAM access.">
<polygon fill="none" stroke="red" points="2336.5,-179.5 2336.5,-198.5 2421.5,-198.5 2421.5,-179.5 2336.5,-179.5"/>
<text text-anchor="middle" x="2379" y="-186.5" font-family="Helvetica,sans-Serif" font-size="10.00">include/vmem.h</text>
</a>
</g>
</g>
<!-- Node53&#45;&gt;Node60 -->
<g id="edge56" class="edge">
<title>Node53&#45;&gt;Node60</title>
<path fill="none" stroke="midnightblue" d="M2402.7,-226.57C2396.68,-217.27 2389.53,-206.25 2384.67,-198.75"/>
<polygon fill="midnightblue" stroke="midnightblue" points="2399.84,-228.6 2408.22,-235.08 2405.72,-224.79 2399.84,-228.6"/>
</g>
<!-- Node54&#45;&gt;Node4 -->
<g id="edge50" class="edge">
<title>Node54&#45;&gt;Node4</title>
<path fill="none" stroke="midnightblue" d="M1048.67,-186.57C1016.58,-182.83 976.27,-172.11 955,-143 943.43,-127.17 918.72,-93.86 956,-56 982.23,-29.37 2176.08,-14.13 2406.67,-11.43"/>
<polygon fill="midnightblue" stroke="midnightblue" points="1048.48,-190.07 1058.77,-187.56 1049.15,-183.1 1048.48,-190.07"/>
</g>
<!-- Node54&#45;&gt;Node51 -->
<g id="edge54" class="edge">
<title>Node54&#45;&gt;Node51</title>
<path fill="none" stroke="midnightblue" d="M1094.02,-168.81C1091.78,-154.95 1087.03,-136.38 1077,-123 1062.26,-103.33 1037.42,-89.3 1019.53,-81.09"/>
<polygon fill="midnightblue" stroke="midnightblue" points="1090.6,-169.68 1095.37,-179.14 1097.54,-168.77 1090.6,-169.68"/>
</g>
<!-- Node55 -->
<g id="node45" class="node">
<title>Node55</title>
<g id="a_node45"><a xlink:href="ay__3__8910_8h.html" target="_top" xlink:title="Copyright (c) 2022 Daishi Mori (mori0091)">
<polygon fill="none" stroke="red" points="964,-123.5 964,-142.5 1068,-142.5 1068,-123.5 964,-123.5"/>
<text text-anchor="middle" x="1016" y="-130.5" font-family="Helvetica,sans-Serif" font-size="10.00">include/ay_3_8910.h</text>
</a>
</g>
</g>
<!-- Node54&#45;&gt;Node55 -->
<g id="edge48" class="edge">
<title>Node54&#45;&gt;Node55</title>
<path fill="none" stroke="midnightblue" d="M1074.7,-173.62C1060.08,-163.76 1041.17,-150.99 1028.82,-142.65"/>
<polygon fill="midnightblue" stroke="midnightblue" points="1072.9,-176.63 1083.15,-179.32 1076.82,-170.83 1072.9,-176.63"/>
</g>
<!-- Node57 -->
<g id="node46" class="node">
<title>Node57</title>
<g id="a_node46"><a xlink:href="psg__get_8c.html" target="_top" xlink:title="Copyright (c) 2021 Daishi Mori (mori0091)">
<polygon fill="none" stroke="black" points="1124.5,-123.5 1124.5,-142.5 1199.5,-142.5 1199.5,-123.5 1124.5,-123.5"/>
<text text-anchor="middle" x="1162" y="-130.5" font-family="Helvetica,sans-Serif" font-size="10.00">src/psg_get.c</text>
</a>
</g>
</g>
<!-- Node54&#45;&gt;Node57 -->
<g id="edge51" class="edge">
<title>Node54&#45;&gt;Node57</title>
<path fill="none" stroke="midnightblue" d="M1114.55,-172.82C1126.38,-163.15 1141.29,-150.95 1151.2,-142.83"/>
<polygon fill="midnightblue" stroke="midnightblue" points="1112.13,-170.28 1106.6,-179.32 1116.56,-175.7 1112.13,-170.28"/>
</g>
<!-- Node58 -->
<g id="node47" class="node">
<title>Node58</title>
<g id="a_node47"><a xlink:href="psg__init_8c.html" target="_top" xlink:title="Copyright (c) 2021 Daishi Mori (mori0091)">
<polygon fill="none" stroke="black" points="1218,-123.5 1218,-142.5 1292,-142.5 1292,-123.5 1218,-123.5"/>
<text text-anchor="middle" x="1255" y="-130.5" font-family="Helvetica,sans-Serif" font-size="10.00">src/psg_init.c</text>
</a>
</g>
</g>
<!-- Node54&#45;&gt;Node58 -->
<g id="edge52" class="edge">
<title>Node54&#45;&gt;Node58</title>
<path fill="none" stroke="midnightblue" d="M1130.83,-176.17C1160.77,-166 1203.22,-151.59 1229.92,-142.52"/>
<polygon fill="midnightblue" stroke="midnightblue" points="1129.54,-172.91 1121.19,-179.44 1131.79,-179.54 1129.54,-172.91"/>
</g>
<!-- Node59 -->
<g id="node48" class="node">
<title>Node59</title>
<g id="a_node48"><a xlink:href="psg__set_8c.html" target="_top" xlink:title="Copyright (c) 2021 Daishi Mori (mori0091)">
<polygon fill="none" stroke="black" points="832.5,-123.5 832.5,-142.5 907.5,-142.5 907.5,-123.5 832.5,-123.5"/>
<text text-anchor="middle" x="870" y="-130.5" font-family="Helvetica,sans-Serif" font-size="10.00">src/psg_set.c</text>
</a>
</g>
</g>
<!-- Node54&#45;&gt;Node59 -->
<g id="edge53" class="edge">
<title>Node54&#45;&gt;Node59</title>
<path fill="none" stroke="midnightblue" d="M1050.33,-177.09C1007.64,-166.89 944.75,-151.86 905.64,-142.52"/>
<polygon fill="midnightblue" stroke="midnightblue" points="1049.65,-180.52 1060.19,-179.44 1051.28,-173.72 1049.65,-180.52"/>
</g>
<!-- Node55&#45;&gt;Node51 -->
<g id="edge49" class="edge">
<title>Node55&#45;&gt;Node51</title>
<path fill="none" stroke="midnightblue" d="M1010.45,-113.66C1007.16,-102.77 1003.14,-89.49 1000.57,-81.01"/>
<polygon fill="midnightblue" stroke="midnightblue" points="1007.18,-114.92 1013.42,-123.48 1013.88,-112.89 1007.18,-114.92"/>
</g>
<!-- Node60&#45;&gt;Node4 -->
<g id="edge58" class="edge">
<title>Node60&#45;&gt;Node4</title>
<path fill="none" stroke="midnightblue" d="M2325.83,-186.92C2187.27,-183.77 1803.83,-172.82 1486,-143 1474.64,-141.93 1086.5,-95.6 1079,-87 1069.95,-76.61 1069.42,-65.9 1079,-56 1126.41,-7 2190.1,-9.72 2406.71,-10.78"/>
<polygon fill="midnightblue" stroke="midnightblue" points="2326.08,-190.43 2336.15,-187.15 2326.23,-183.43 2326.08,-190.43"/>
</g>
<!-- Node60&#45;&gt;Node5 -->
<g id="edge59" class="edge">
<title>Node60&#45;&gt;Node5</title>
<path fill="none" stroke="midnightblue" d="M2431.89,-181.86C2526.95,-170.82 2724.47,-147.88 2806.76,-138.32"/>
<polygon fill="midnightblue" stroke="midnightblue" points="2431.44,-178.39 2421.91,-183.02 2432.25,-185.34 2431.44,-178.39"/>
</g>
<!-- Node60&#45;&gt;Node6 -->
<g id="edge57" class="edge">
<title>Node60&#45;&gt;Node6</title>
<path fill="none" stroke="midnightblue" d="M2325.79,-186.17C2159.06,-179.84 1632.33,-155.42 1202,-87 1192.39,-85.47 1182.06,-83.28 1172.65,-81.06"/>
<polygon fill="midnightblue" stroke="midnightblue" points="2326.12,-189.68 2336.24,-186.56 2326.38,-182.69 2326.12,-189.68"/>
</g>
<!-- Node70&#45;&gt;Node4 -->
<g id="edge62" class="edge">
<title>Node70&#45;&gt;Node4</title>
<path fill="none" stroke="midnightblue" d="M4804.29,-169.79C4812.89,-141.14 4824.07,-85.73 4794,-56 4751.13,-13.61 2782.7,-11.14 2483.07,-11.01"/>
<polygon fill="midnightblue" stroke="midnightblue" points="4800.94,-168.76 4801.21,-179.35 4807.6,-170.91 4800.94,-168.76"/>
</g>
<!-- Node70&#45;&gt;Node5 -->
<g id="edge63" class="edge">
<title>Node70&#45;&gt;Node5</title>
<path fill="none" stroke="midnightblue" d="M4738.58,-186.36C4441.26,-178.14 3119.88,-141.62 2881.06,-135.02"/>
<polygon fill="midnightblue" stroke="midnightblue" points="4738.63,-189.86 4748.72,-186.64 4738.82,-182.86 4738.63,-189.86"/>
</g>
</g>
</svg>
