<?xml version="1.0" encoding="UTF-8" standalone="no"?>
<!DOCTYPE svg PUBLIC "-//W3C//DTD SVG 1.1//EN"
 "http://www.w3.org/Graphics/SVG/1.1/DTD/svg11.dtd">
<!-- Generated by graphviz version 7.0.4 (20221203.1631)
 -->
<!-- Title: include/config.h Pages: 1 -->
<svg width="856pt" height="357pt"
 viewBox="0.00 0.00 856.00 357.00" xmlns="http://www.w3.org/2000/svg" xmlns:xlink="http://www.w3.org/1999/xlink">
<g id="graph0" class="graph" transform="scale(1 1) rotate(0) translate(4 353)">
<title>include/config.h</title>
<!-- Node1 -->
<g id="node1" class="node">
<title>Node1</title>
<g id="a_node1"><a xlink:title="Hack for C Compiler portability.">
<polygon fill="#999999" stroke="#666666" points="160.5,-349 77.5,-349 77.5,-330 160.5,-330 160.5,-349"/>
<text text-anchor="middle" x="119" y="-337" font-family="Helvetica,sans-Serif" font-size="10.00">include/config.h</text>
</a>
</g>
</g>
<!-- Node2 -->
<g id="node2" class="node">
<title>Node2</title>
<g id="a_node2"><a xlink:href="bios__const_8h.html" target="_top" xlink:title="Constant variables in the MSX BIOS ROM.">
<polygon fill="white" stroke="#666666" points="171.5,-294 66.5,-294 66.5,-275 171.5,-275 171.5,-294"/>
<text text-anchor="middle" x="119" y="-282" font-family="Helvetica,sans-Serif" font-size="10.00">include/bios_const.h</text>
</a>
</g>
</g>
<!-- Node1&#45;&gt;Node2 -->
<g id="edge1" class="edge">
<title>Node1&#45;&gt;Node2</title>
<path fill="none" stroke="#63b8ff" d="M119,-318.35C119,-310.1 119,-300.97 119,-294.44"/>
<polygon fill="#63b8ff" stroke="#63b8ff" points="115.5,-318.23 119,-328.23 122.5,-318.23 115.5,-318.23"/>
</g>
<!-- Node4 -->
<g id="node4" class="node">
<title>Node4</title>
<g id="a_node4"><a xlink:href="msx_8h.html" target="_top" xlink:title="Using #include &lt;msx.h&gt; includes almost all C header files in libmsx, for ease to use.">
<polygon fill="white" stroke="#666666" points="442,-19 366,-19 366,0 442,0 442,-19"/>
<text text-anchor="middle" x="404" y="-7" font-family="Helvetica,sans-Serif" font-size="10.00">include/msx.h</text>
</a>
</g>
</g>
<!-- Node1&#45;&gt;Node4 -->
<g id="edge35" class="edge">
<title>Node1&#45;&gt;Node4</title>
<path fill="none" stroke="#63b8ff" d="M85.12,-324.97C49.94,-308.42 0,-276.77 0,-230.5 0,-230.5 0,-230.5 0,-118.5 0,-43.27 264.78,-19.06 365.63,-12.57"/>
<polygon fill="#63b8ff" stroke="#63b8ff" points="83.55,-328.1 94.11,-329 86.42,-321.71 83.55,-328.1"/>
</g>
<!-- Node8 -->
<g id="node8" class="node">
<title>Node8</title>
<g id="a_node8"><a xlink:href="workarea_8h.html" target="_top" xlink:title="Definitions of MSX SYSTEM Workarea.">
<polygon fill="white" stroke="#666666" points="126,-184 28,-184 28,-165 126,-165 126,-184"/>
<text text-anchor="middle" x="77" y="-172" font-family="Helvetica,sans-Serif" font-size="10.00">include/workarea.h</text>
</a>
</g>
</g>
<!-- Node1&#45;&gt;Node8 -->
<g id="edge36" class="edge">
<title>Node1&#45;&gt;Node8</title>
<path fill="none" stroke="#63b8ff" d="M87.79,-324.12C75.9,-316.89 63.62,-306.89 57,-294 37.85,-256.69 61.1,-204.92 71.98,-184.39"/>
<polygon fill="#63b8ff" stroke="#63b8ff" points="85.8,-327.01 96.24,-328.8 89.19,-320.89 85.8,-327.01"/>
</g>
<!-- Node9 -->
<g id="node9" class="node">
<title>Node9</title>
<g id="a_node9"><a xlink:href="bios__entry_8h.html" target="_top" xlink:title="Assembler entry points for MSX BIOS functions.">
<polygon fill="white" stroke="#666666" points="292,-294 190,-294 190,-275 292,-275 292,-294"/>
<text text-anchor="middle" x="241" y="-282" font-family="Helvetica,sans-Serif" font-size="10.00">include/bios_entry.h</text>
</a>
</g>
</g>
<!-- Node1&#45;&gt;Node9 -->
<g id="edge13" class="edge">
<title>Node1&#45;&gt;Node9</title>
<path fill="none" stroke="#63b8ff" d="M150.24,-324.93C172.36,-315.32 201.41,-302.7 220.61,-294.36"/>
<polygon fill="#63b8ff" stroke="#63b8ff" points="148.86,-321.71 141.08,-328.91 151.65,-328.13 148.86,-321.71"/>
</g>
<!-- Node10 -->
<g id="node10" class="node">
<title>Node10</title>
<g id="a_node10"><a xlink:href="io_8h.html" target="_top" xlink:title="Definition of I/O ports.">
<polygon fill="white" stroke="#666666" points="431.5,-294 366.5,-294 366.5,-275 431.5,-275 431.5,-294"/>
<text text-anchor="middle" x="399" y="-282" font-family="Helvetica,sans-Serif" font-size="10.00">include/io.h</text>
</a>
</g>
</g>
<!-- Node1&#45;&gt;Node10 -->
<g id="edge15" class="edge">
<title>Node1&#45;&gt;Node10</title>
<path fill="none" stroke="#63b8ff" d="M171.89,-328.49C228.98,-317.68 318.15,-300.8 366,-291.75"/>
<polygon fill="#63b8ff" stroke="#63b8ff" points="171.58,-324.99 162.41,-330.28 172.88,-331.86 171.58,-324.99"/>
</g>
<!-- Node3 -->
<g id="node3" class="node">
<title>Node3</title>
<g id="a_node3"><a xlink:href="bios_8h.html" target="_top" xlink:title="C language I/F for MSX BIOS routines.">
<polygon fill="white" stroke="#666666" points="202,-239 126,-239 126,-220 202,-220 202,-239"/>
<text text-anchor="middle" x="164" y="-227" font-family="Helvetica,sans-Serif" font-size="10.00">include/bios.h</text>
</a>
</g>
</g>
<!-- Node2&#45;&gt;Node3 -->
<g id="edge2" class="edge">
<title>Node2&#45;&gt;Node3</title>
<path fill="none" stroke="#63b8ff" d="M133.68,-266.22C141.26,-257.28 150.21,-246.74 156.41,-239.44"/>
<polygon fill="#63b8ff" stroke="#63b8ff" points="131.21,-263.71 127.41,-273.59 136.55,-268.24 131.21,-263.71"/>
</g>
<!-- Node2&#45;&gt;Node8 -->
<g id="edge10" class="edge">
<title>Node2&#45;&gt;Node8</title>
<path fill="none" stroke="#63b8ff" d="M111.5,-264.22C102.35,-240.69 87.26,-201.89 80.48,-184.46"/>
<polygon fill="#63b8ff" stroke="#63b8ff" points="108.13,-265.2 115.01,-273.25 114.65,-262.66 108.13,-265.2"/>
</g>
<!-- Node3&#45;&gt;Node4 -->
<g id="edge3" class="edge">
<title>Node3&#45;&gt;Node4</title>
<path fill="none" stroke="#63b8ff" d="M168.8,-208.85C179.03,-171.65 206.76,-91.4 263,-55 294.46,-34.64 335.9,-23.03 365.7,-16.81"/>
<polygon fill="#63b8ff" stroke="#63b8ff" points="165.49,-207.67 166.37,-218.23 172.27,-209.43 165.49,-207.67"/>
</g>
<!-- Node5 -->
<g id="node5" class="node">
<title>Node5</title>
<g id="a_node5"><a xlink:href="vdp_8h.html" target="_top" xlink:title="Data types and functions for VDP (Video Display Proccessor) access.">
<polygon fill="white" stroke="#666666" points="297,-129 223,-129 223,-110 297,-110 297,-129"/>
<text text-anchor="middle" x="260" y="-117" font-family="Helvetica,sans-Serif" font-size="10.00">include/vdp.h</text>
</a>
</g>
</g>
<!-- Node3&#45;&gt;Node5 -->
<g id="edge4" class="edge">
<title>Node3&#45;&gt;Node5</title>
<path fill="none" stroke="#63b8ff" d="M177.73,-210.84C187.98,-197.89 202.48,-180.02 216,-165 227.49,-152.24 241.55,-138.28 250.64,-129.46"/>
<polygon fill="#63b8ff" stroke="#63b8ff" points="175.17,-208.44 171.75,-218.47 180.68,-212.76 175.17,-208.44"/>
</g>
<!-- Node7 -->
<g id="node7" class="node">
<title>Node7</title>
<g id="a_node7"><a xlink:href="vdp__unsafe_8h.html" target="_top" xlink:title="Unsafe primitive functions for VDP (Video Display Proccessor) access.">
<polygon fill="white" stroke="#666666" points="366,-184 258,-184 258,-165 366,-165 366,-184"/>
<text text-anchor="middle" x="312" y="-172" font-family="Helvetica,sans-Serif" font-size="10.00">include/vdp_unsafe.h</text>
</a>
</g>
</g>
<!-- Node3&#45;&gt;Node7 -->
<g id="edge8" class="edge">
<title>Node3&#45;&gt;Node7</title>
<path fill="none" stroke="#63b8ff" d="M199.71,-215.71C226.79,-206.01 263.33,-192.93 287.26,-184.36"/>
<polygon fill="#63b8ff" stroke="#63b8ff" points="198.77,-212.33 190.53,-219 201.13,-218.92 198.77,-212.33"/>
</g>
<!-- Node5&#45;&gt;Node4 -->
<g id="edge7" class="edge">
<title>Node5&#45;&gt;Node4</title>
<path fill="none" stroke="#63b8ff" d="M261.3,-98.65C263.2,-84.8 267.83,-66.75 279,-55 301.69,-31.12 338.03,-20.03 365.7,-14.9"/>
<polygon fill="#63b8ff" stroke="#63b8ff" points="257.83,-98.1 260.35,-108.39 264.8,-98.78 257.83,-98.1"/>
</g>
<!-- Node6 -->
<g id="node6" class="node">
<title>Node6</title>
<g id="a_node6"><a xlink:href="metasprite_8h.html" target="_top" xlink:title="Meta&#45;sprite ; an aggregate of sprites.">
<polygon fill="white" stroke="#666666" points="518,-74 414,-74 414,-55 518,-55 518,-74"/>
<text text-anchor="middle" x="466" y="-62" font-family="Helvetica,sans-Serif" font-size="10.00">include/metasprite.h</text>
</a>
</g>
</g>
<!-- Node5&#45;&gt;Node6 -->
<g id="edge5" class="edge">
<title>Node5&#45;&gt;Node6</title>
<path fill="none" stroke="#63b8ff" d="M305.7,-106.74C343.61,-96.99 396.71,-83.33 431.23,-74.45"/>
<polygon fill="#63b8ff" stroke="#63b8ff" points="305.22,-103.25 296.41,-109.13 306.97,-110.03 305.22,-103.25"/>
</g>
<!-- Node6&#45;&gt;Node4 -->
<g id="edge6" class="edge">
<title>Node6&#45;&gt;Node4</title>
<path fill="none" stroke="#63b8ff" d="M446.8,-47.09C436.1,-37.94 423.19,-26.9 414.36,-19.36"/>
<polygon fill="#63b8ff" stroke="#63b8ff" points="444.46,-49.69 454.33,-53.53 449.01,-44.37 444.46,-49.69"/>
</g>
<!-- Node7&#45;&gt;Node5 -->
<g id="edge9" class="edge">
<title>Node7&#45;&gt;Node5</title>
<path fill="none" stroke="#63b8ff" d="M295.59,-156.78C286.71,-147.72 276.09,-136.9 268.77,-129.44"/>
<polygon fill="#63b8ff" stroke="#63b8ff" points="292.85,-158.98 302.35,-163.67 297.85,-154.08 292.85,-158.98"/>
</g>
<!-- Node8&#45;&gt;Node4 -->
<g id="edge11" class="edge">
<title>Node8&#45;&gt;Node4</title>
<path fill="none" stroke="#63b8ff" d="M81.74,-153.49C89.24,-126.52 106.55,-79.11 140,-55 175.44,-29.45 301.21,-17.43 365.52,-12.84"/>
<polygon fill="#63b8ff" stroke="#63b8ff" points="78.36,-152.57 79.27,-163.12 85.14,-154.31 78.36,-152.57"/>
</g>
<!-- Node8&#45;&gt;Node5 -->
<g id="edge12" class="edge">
<title>Node8&#45;&gt;Node5</title>
<path fill="none" stroke="#63b8ff" d="M118.9,-161.36C152.48,-151.64 198.84,-138.21 229.11,-129.45"/>
<polygon fill="#63b8ff" stroke="#63b8ff" points="118.13,-157.94 109.5,-164.09 120.08,-164.67 118.13,-157.94"/>
</g>
<!-- Node9&#45;&gt;Node3 -->
<g id="edge14" class="edge">
<title>Node9&#45;&gt;Node3</title>
<path fill="none" stroke="#63b8ff" d="M218.75,-268.19C205.17,-258.84 188.27,-247.21 176.87,-239.36"/>
<polygon fill="#63b8ff" stroke="#63b8ff" points="216.47,-270.86 226.69,-273.65 220.44,-265.1 216.47,-270.86"/>
</g>
<!-- Node10&#45;&gt;Node4 -->
<g id="edge16" class="edge">
<title>Node10&#45;&gt;Node4</title>
<path fill="none" stroke="#63b8ff" d="M443.24,-281.58C529.62,-277.29 717.38,-265.19 776,-239 814.96,-221.6 848,-218.17 848,-175.5 848,-175.5 848,-175.5 848,-118.5 848,-35.3 549.94,-15.94 442.24,-11.65"/>
<polygon fill="#63b8ff" stroke="#63b8ff" points="443.08,-278.08 433.26,-282.06 443.42,-285.07 443.08,-278.08"/>
</g>
<!-- Node10&#45;&gt;Node5 -->
<g id="edge20" class="edge">
<title>Node10&#45;&gt;Node5</title>
<path fill="none" stroke="#63b8ff" d="M360.87,-270.34C324.7,-255.58 272.5,-227.79 249,-184 239.48,-166.25 248.78,-142.07 255.15,-129.27"/>
<polygon fill="#63b8ff" stroke="#63b8ff" points="359.53,-273.57 370.12,-273.96 362.08,-267.06 359.53,-273.57"/>
</g>
<!-- Node10&#45;&gt;Node7 -->
<g id="edge21" class="edge">
<title>Node10&#45;&gt;Node7</title>
<path fill="none" stroke="#63b8ff" d="M384.75,-265.81C365.95,-242.47 333.58,-202.28 319.22,-184.46"/>
<polygon fill="#63b8ff" stroke="#63b8ff" points="381.93,-267.89 390.93,-273.48 387.38,-263.5 381.93,-267.89"/>
</g>
<!-- Node11 -->
<g id="node11" class="node">
<title>Node11</title>
<g id="a_node11"><a xlink:href="psg_8h.html" target="_top" xlink:title="Device interface for PSG (AY&#45;3&#45;8910) an internal sound chip.">
<polygon fill="white" stroke="#666666" points="767,-239 693,-239 693,-220 767,-220 767,-239"/>
<text text-anchor="middle" x="730" y="-227" font-family="Helvetica,sans-Serif" font-size="10.00">include/psg.h</text>
</a>
</g>
</g>
<!-- Node10&#45;&gt;Node11 -->
<g id="edge17" class="edge">
<title>Node10&#45;&gt;Node11</title>
<path fill="none" stroke="#63b8ff" d="M443.14,-276.43C508.83,-265.91 631.15,-246.33 692.66,-236.48"/>
<polygon fill="#63b8ff" stroke="#63b8ff" points="442.76,-272.95 433.44,-277.99 443.87,-279.86 442.76,-272.95"/>
</g>
<!-- Node13 -->
<g id="node13" class="node">
<title>Node13</title>
<g id="a_node13"><a xlink:href="vmem_8h.html" target="_top" xlink:title="Data types and functions for VRAM access.">
<polygon fill="white" stroke="#666666" points="493.5,-239 408.5,-239 408.5,-220 493.5,-220 493.5,-239"/>
<text text-anchor="middle" x="451" y="-227" font-family="Helvetica,sans-Serif" font-size="10.00">include/vmem.h</text>
</a>
</g>
</g>
<!-- Node10&#45;&gt;Node13 -->
<g id="edge22" class="edge">
<title>Node10&#45;&gt;Node13</title>
<path fill="none" stroke="#63b8ff" d="M415.41,-266.78C424.29,-257.72 434.91,-246.9 442.23,-239.44"/>
<polygon fill="#63b8ff" stroke="#63b8ff" points="413.15,-264.08 408.65,-273.67 418.15,-268.98 413.15,-264.08"/>
</g>
<!-- Node11&#45;&gt;Node4 -->
<g id="edge19" class="edge">
<title>Node11&#45;&gt;Node4</title>
<path fill="none" stroke="#63b8ff" d="M760.34,-214.08C780.62,-202.29 801.78,-184.44 791,-165 721.12,-38.92 525.58,-15.51 442.32,-11.32"/>
<polygon fill="#63b8ff" stroke="#63b8ff" points="758.75,-210.96 751.62,-218.79 762.08,-217.11 758.75,-210.96"/>
</g>
<!-- Node12 -->
<g id="node12" class="node">
<title>Node12</title>
<g id="a_node12"><a xlink:href="ay__3__8910_8h.html" target="_top" xlink:title="Buffer for PSG (AY&#45;3&#45;8910) registers.">
<polygon fill="white" stroke="#666666" points="782,-184 678,-184 678,-165 782,-165 782,-184"/>
<text text-anchor="middle" x="730" y="-172" font-family="Helvetica,sans-Serif" font-size="10.00">include/ay_3_8910.h</text>
</a>
</g>
</g>
<!-- Node11&#45;&gt;Node12 -->
<g id="edge18" class="edge">
<title>Node11&#45;&gt;Node12</title>
<path fill="none" stroke="#63b8ff" d="M730,-208.35C730,-200.1 730,-190.97 730,-184.44"/>
<polygon fill="#63b8ff" stroke="#63b8ff" points="726.5,-208.23 730,-218.23 733.5,-208.23 726.5,-208.23"/>
</g>
<!-- Node13&#45;&gt;Node4 -->
<g id="edge26" class="edge">
<title>Node13&#45;&gt;Node4</title>
<path fill="none" stroke="#63b8ff" d="M505.07,-221.17C551.28,-213.85 613.07,-201.21 631,-184 655.27,-160.7 664.36,-138.82 647,-110 604.19,-38.93 499.43,-18.62 442.44,-12.82"/>
<polygon fill="#63b8ff" stroke="#63b8ff" points="504.54,-217.71 495.19,-222.69 505.6,-224.63 504.54,-217.71"/>
</g>
<!-- Node13&#45;&gt;Node5 -->
<g id="edge33" class="edge">
<title>Node13&#45;&gt;Node5</title>
<path fill="none" stroke="#63b8ff" d="M434.34,-211.79C419.71,-197.83 397.32,-178.16 375,-165 348.26,-149.24 314.92,-137.05 291.03,-129.45"/>
<polygon fill="#63b8ff" stroke="#63b8ff" points="431.69,-214.1 441.29,-218.58 436.58,-209.09 431.69,-214.1"/>
</g>
<!-- Node13&#45;&gt;Node6 -->
<g id="edge25" class="edge">
<title>Node13&#45;&gt;Node6</title>
<path fill="none" stroke="#63b8ff" d="M460.66,-209.51C470.03,-189.92 483.61,-158.2 489,-129 490.53,-120.7 491,-118.21 489,-110 485.75,-96.65 477.75,-82.83 472.1,-74.2"/>
<polygon fill="#63b8ff" stroke="#63b8ff" points="457.55,-207.89 456.26,-218.41 463.83,-210.99 457.55,-207.89"/>
</g>
<!-- Node13&#45;&gt;Node7 -->
<g id="edge34" class="edge">
<title>Node13&#45;&gt;Node7</title>
<path fill="none" stroke="#63b8ff" d="M416.78,-215.45C391.42,-205.78 357.51,-192.85 335.23,-184.36"/>
<polygon fill="#63b8ff" stroke="#63b8ff" points="415.42,-218.68 426.01,-218.97 417.91,-212.14 415.42,-218.68"/>
</g>
<!-- Node14 -->
<g id="node14" class="node">
<title>Node14</title>
<g id="a_node14"><a xlink:href="bmem_8h.html" target="_top" xlink:title="Data types and functions for accessing banked memory.">
<polygon fill="white" stroke="#666666" points="621.5,-184 536.5,-184 536.5,-165 621.5,-165 621.5,-184"/>
<text text-anchor="middle" x="579" y="-172" font-family="Helvetica,sans-Serif" font-size="10.00">include/bmem.h</text>
</a>
</g>
</g>
<!-- Node13&#45;&gt;Node14 -->
<g id="edge23" class="edge">
<title>Node13&#45;&gt;Node14</title>
<path fill="none" stroke="#63b8ff" d="M483.14,-215.19C506.43,-205.55 537.27,-192.78 557.61,-184.36"/>
<polygon fill="#63b8ff" stroke="#63b8ff" points="482.01,-211.87 474.11,-218.93 484.69,-218.34 482.01,-211.87"/>
</g>
<!-- Node16 -->
<g id="node16" class="node">
<title>Node16</title>
<g id="a_node16"><a xlink:href="sprite_8h.html" target="_top" xlink:title="Sprites.">
<polygon fill="white" stroke="#666666" points="480,-129 398,-129 398,-110 480,-110 480,-129"/>
<text text-anchor="middle" x="439" y="-117" font-family="Helvetica,sans-Serif" font-size="10.00">include/sprite.h</text>
</a>
</g>
</g>
<!-- Node13&#45;&gt;Node16 -->
<g id="edge27" class="edge">
<title>Node13&#45;&gt;Node16</title>
<path fill="none" stroke="#63b8ff" d="M449.82,-208.47C448.99,-195.95 447.71,-179.51 446,-165 444.54,-152.57 442.17,-138.3 440.6,-129.34"/>
<polygon fill="#63b8ff" stroke="#63b8ff" points="446.32,-208.58 450.44,-218.34 453.31,-208.14 446.32,-208.58"/>
</g>
<!-- Node17 -->
<g id="node17" class="node">
<title>Node17</title>
<g id="a_node17"><a xlink:href="sprite__color_8h.html" target="_top" xlink:title="Sprite color table interface.">
<polygon fill="white" stroke="#666666" points="396,-74 288,-74 288,-55 396,-55 396,-74"/>
<text text-anchor="middle" x="342" y="-62" font-family="Helvetica,sans-Serif" font-size="10.00">include/sprite_color.h</text>
</a>
</g>
</g>
<!-- Node13&#45;&gt;Node17 -->
<g id="edge32" class="edge">
<title>Node13&#45;&gt;Node17</title>
<path fill="none" stroke="#63b8ff" d="M438.82,-210.28C415.44,-175.32 365.08,-100.01 347.89,-74.31"/>
<polygon fill="#63b8ff" stroke="#63b8ff" points="435.83,-212.11 444.3,-218.48 441.65,-208.22 435.83,-212.11"/>
</g>
<!-- Node15 -->
<g id="node15" class="node">
<title>Node15</title>
<g id="a_node15"><a xlink:href="resources_8h.html" target="_top" xlink:title="Data types and functions for accessing embedded resources.">
<polygon fill="white" stroke="#666666" points="637.5,-129 536.5,-129 536.5,-110 637.5,-110 637.5,-129"/>
<text text-anchor="middle" x="587" y="-117" font-family="Helvetica,sans-Serif" font-size="10.00">include/resources.h</text>
</a>
</g>
</g>
<!-- Node14&#45;&gt;Node15 -->
<g id="edge24" class="edge">
<title>Node14&#45;&gt;Node15</title>
<path fill="none" stroke="#63b8ff" d="M582,-153.64C583.25,-145.31 584.65,-136.05 585.65,-129.44"/>
<polygon fill="#63b8ff" stroke="#63b8ff" points="578.58,-152.84 580.55,-163.25 585.5,-153.89 578.58,-152.84"/>
</g>
<!-- Node16&#45;&gt;Node4 -->
<g id="edge29" class="edge">
<title>Node16&#45;&gt;Node4</title>
<path fill="none" stroke="#63b8ff" d="M482.49,-105.89C511.93,-95.02 542.81,-77.53 527,-55 508.02,-27.95 470.88,-17.28 442.36,-13.1"/>
<polygon fill="#63b8ff" stroke="#63b8ff" points="481.54,-102.52 473.23,-109.1 483.83,-109.13 481.54,-102.52"/>
</g>
<!-- Node16&#45;&gt;Node6 -->
<g id="edge28" class="edge">
<title>Node16&#45;&gt;Node6</title>
<path fill="none" stroke="#63b8ff" d="M448.68,-99.5C453.03,-90.96 457.96,-81.28 461.44,-74.44"/>
<polygon fill="#63b8ff" stroke="#63b8ff" points="445.57,-97.9 444.15,-108.4 451.8,-101.08 445.57,-97.9"/>
</g>
<!-- Node16&#45;&gt;Node17 -->
<g id="edge30" class="edge">
<title>Node16&#45;&gt;Node17</title>
<path fill="none" stroke="#63b8ff" d="M412.46,-104C395.11,-94.52 372.99,-82.43 358.21,-74.36"/>
<polygon fill="#63b8ff" stroke="#63b8ff" points="410.76,-107.06 421.22,-108.78 414.12,-100.92 410.76,-107.06"/>
</g>
<!-- Node17&#45;&gt;Node4 -->
<g id="edge31" class="edge">
<title>Node17&#45;&gt;Node4</title>
<path fill="none" stroke="#63b8ff" d="M361.2,-47.09C371.9,-37.94 384.81,-26.9 393.64,-19.36"/>
<polygon fill="#63b8ff" stroke="#63b8ff" points="358.99,-44.37 353.67,-53.53 363.54,-49.69 358.99,-44.37"/>
</g>
</g>
</svg>
