<?xml version="1.0" encoding="UTF-8" standalone="no"?>
<!DOCTYPE svg PUBLIC "-//W3C//DTD SVG 1.1//EN"
 "http://www.w3.org/Graphics/SVG/1.1/DTD/svg11.dtd">
<!-- Generated by graphviz version 3.0.0 (20221109.1736)
 -->
<!-- Title: include/config.h Pages: 1 -->
<svg width="860pt" height="364pt"
 viewBox="0.00 0.00 860.00 364.00" xmlns="http://www.w3.org/2000/svg" xmlns:xlink="http://www.w3.org/1999/xlink">
<g id="graph0" class="graph" transform="scale(1 1) rotate(0) translate(4 360)">
<title>include/config.h</title>
<!-- Node1 -->
<g id="node1" class="node">
<title>Node1</title>
<g id="a_node1"><a xlink:title="Hack for C Compiler portability.">
<polygon fill="#bfbfbf" stroke="black" points="486.5,-336.5 486.5,-355.5 569.5,-355.5 569.5,-336.5 486.5,-336.5"/>
<text text-anchor="middle" x="528" y="-343.5" font-family="Helvetica,sans-Serif" font-size="10.00">include/config.h</text>
</a>
</g>
</g>
<!-- Node2 -->
<g id="node2" class="node">
<title>Node2</title>
<g id="a_node2"><a xlink:href="bios__const_8h.html" target="_top" xlink:title="Constant variables in the MSX BIOS ROM.">
<polygon fill="none" stroke="black" points="475.5,-280.5 475.5,-299.5 580.5,-299.5 580.5,-280.5 475.5,-280.5"/>
<text text-anchor="middle" x="528" y="-287.5" font-family="Helvetica,sans-Serif" font-size="10.00">include/bios_const.h</text>
</a>
</g>
</g>
<!-- Node1&#45;&gt;Node2 -->
<g id="edge1" class="edge">
<title>Node1&#45;&gt;Node2</title>
<path fill="none" stroke="midnightblue" d="M528,-325.8C528,-316.91 528,-306.78 528,-299.75"/>
<polygon fill="midnightblue" stroke="midnightblue" points="524.5,-326.08 528,-336.08 531.5,-326.08 524.5,-326.08"/>
</g>
<!-- Node4 -->
<g id="node4" class="node">
<title>Node4</title>
<g id="a_node4"><a xlink:href="msx_8h.html" target="_top" xlink:title="Using #include &lt;msx.h&gt; includes almost all C header files in libmsx, for ease to use.">
<polygon fill="none" stroke="black" points="284,-0.5 284,-19.5 360,-19.5 360,-0.5 284,-0.5"/>
<text text-anchor="middle" x="322" y="-7.5" font-family="Helvetica,sans-Serif" font-size="10.00">include/msx.h</text>
</a>
</g>
</g>
<!-- Node1&#45;&gt;Node4 -->
<g id="edge30" class="edge">
<title>Node1&#45;&gt;Node4</title>
<path fill="none" stroke="midnightblue" d="M475.77,-345.09C342.45,-343.92 0,-331.52 0,-235 0,-235 0,-235 0,-121 0,-86.36 13.9,-74.78 43,-56 82.16,-30.72 216.88,-18.18 283.74,-13.39"/>
<polygon fill="midnightblue" stroke="midnightblue" points="476.1,-348.59 486.13,-345.16 476.15,-341.59 476.1,-348.59"/>
</g>
<!-- Node8 -->
<g id="node8" class="node">
<title>Node8</title>
<g id="a_node8"><a xlink:href="bios__entry_8h.html" target="_top" xlink:title="Assembler entry points for MSX BIOS functions.">
<polygon fill="none" stroke="black" points="599,-280.5 599,-299.5 701,-299.5 701,-280.5 599,-280.5"/>
<text text-anchor="middle" x="650" y="-287.5" font-family="Helvetica,sans-Serif" font-size="10.00">include/bios_entry.h</text>
</a>
</g>
</g>
<!-- Node1&#45;&gt;Node8 -->
<g id="edge10" class="edge">
<title>Node1&#45;&gt;Node8</title>
<path fill="none" stroke="midnightblue" d="M556.54,-332.37C579.39,-322.26 610.81,-308.35 630.76,-299.52"/>
<polygon fill="midnightblue" stroke="midnightblue" points="555.06,-329.2 547.33,-336.44 557.89,-335.6 555.06,-329.2"/>
</g>
<!-- Node9 -->
<g id="node9" class="node">
<title>Node9</title>
<g id="a_node9"><a xlink:href="io_8h.html" target="_top" xlink:title="Definition of I/O ports.">
<polygon fill="none" stroke="black" points="361.5,-280.5 361.5,-299.5 426.5,-299.5 426.5,-280.5 361.5,-280.5"/>
<text text-anchor="middle" x="394" y="-287.5" font-family="Helvetica,sans-Serif" font-size="10.00">include/io.h</text>
</a>
</g>
</g>
<!-- Node1&#45;&gt;Node9 -->
<g id="edge12" class="edge">
<title>Node1&#45;&gt;Node9</title>
<path fill="none" stroke="midnightblue" d="M497.32,-332.64C472.18,-322.5 437.25,-308.43 415.13,-299.52"/>
<polygon fill="midnightblue" stroke="midnightblue" points="496.18,-335.95 506.77,-336.44 498.8,-329.46 496.18,-335.95"/>
</g>
<!-- Node15 -->
<g id="node15" class="node">
<title>Node15</title>
<g id="a_node15"><a xlink:href="workarea_8h.html" target="_top" xlink:title="Definitions of MSX SYSTEM Workarea.">
<polygon fill="none" stroke="black" points="754,-168.5 754,-187.5 852,-187.5 852,-168.5 754,-168.5"/>
<text text-anchor="middle" x="803" y="-175.5" font-family="Helvetica,sans-Serif" font-size="10.00">include/workarea.h</text>
</a>
</g>
</g>
<!-- Node1&#45;&gt;Node15 -->
<g id="edge31" class="edge">
<title>Node1&#45;&gt;Node15</title>
<path fill="none" stroke="midnightblue" d="M579.77,-341.39C618.33,-336.63 670.86,-325.58 710,-300 755.69,-270.14 788.07,-209.98 798.97,-187.63"/>
<polygon fill="midnightblue" stroke="midnightblue" points="579.33,-337.92 569.79,-342.52 580.12,-344.87 579.33,-337.92"/>
</g>
<!-- Node3 -->
<g id="node3" class="node">
<title>Node3</title>
<g id="a_node3"><a xlink:href="bios_8h.html" target="_top" xlink:title="C language I/F for MSX BIOS routines.">
<polygon fill="none" stroke="black" points="612,-224.5 612,-243.5 688,-243.5 688,-224.5 612,-224.5"/>
<text text-anchor="middle" x="650" y="-231.5" font-family="Helvetica,sans-Serif" font-size="10.00">include/bios.h</text>
</a>
</g>
</g>
<!-- Node2&#45;&gt;Node3 -->
<g id="edge2" class="edge">
<title>Node2&#45;&gt;Node3</title>
<path fill="none" stroke="midnightblue" d="M556.54,-276.37C579.39,-266.26 610.81,-252.35 630.76,-243.52"/>
<polygon fill="midnightblue" stroke="midnightblue" points="555.06,-273.2 547.33,-280.44 557.89,-279.6 555.06,-273.2"/>
</g>
<!-- Node3&#45;&gt;Node4 -->
<g id="edge3" class="edge">
<title>Node3&#45;&gt;Node4</title>
<path fill="none" stroke="midnightblue" d="M651.85,-214.06C652.5,-200.81 652.05,-182.89 647,-168 637.25,-139.28 629.89,-133 608,-112 537.89,-44.75 420.28,-21.97 360.06,-14.5"/>
<polygon fill="midnightblue" stroke="midnightblue" points="648.34,-214.07 651.09,-224.31 655.32,-214.59 648.34,-214.07"/>
</g>
<!-- Node5 -->
<g id="node5" class="node">
<title>Node5</title>
<g id="a_node5"><a xlink:href="vdp_8h.html" target="_top" xlink:title="Data types and functions for VDP (Video Display Proccessor) access.">
<polygon fill="none" stroke="black" points="363,-112.5 363,-131.5 437,-131.5 437,-112.5 363,-112.5"/>
<text text-anchor="middle" x="400" y="-119.5" font-family="Helvetica,sans-Serif" font-size="10.00">include/vdp.h</text>
</a>
</g>
</g>
<!-- Node3&#45;&gt;Node5 -->
<g id="edge4" class="edge">
<title>Node3&#45;&gt;Node5</title>
<path fill="none" stroke="midnightblue" d="M649.58,-214.38C648.21,-199.68 643.88,-179.74 631,-168 603.08,-142.53 494.87,-130.37 437.01,-125.59"/>
<polygon fill="midnightblue" stroke="midnightblue" points="646.09,-214.59 650.14,-224.38 653.07,-214.2 646.09,-214.59"/>
</g>
<!-- Node7 -->
<g id="node7" class="node">
<title>Node7</title>
<g id="a_node7"><a xlink:href="vdp__unsafe_8h.html" target="_top" xlink:title="Unsafe primitive functions for VDP (Video Display Proccessor) access.">
<polygon fill="none" stroke="black" points="392,-168.5 392,-187.5 500,-187.5 500,-168.5 392,-168.5"/>
<text text-anchor="middle" x="446" y="-175.5" font-family="Helvetica,sans-Serif" font-size="10.00">include/vdp_unsafe.h</text>
</a>
</g>
</g>
<!-- Node3&#45;&gt;Node7 -->
<g id="edge8" class="edge">
<title>Node3&#45;&gt;Node7</title>
<path fill="none" stroke="midnightblue" d="M607.8,-221.83C569.28,-211.63 513.18,-196.78 478.17,-187.52"/>
<polygon fill="midnightblue" stroke="midnightblue" points="607.11,-225.27 617.68,-224.44 608.9,-218.5 607.11,-225.27"/>
</g>
<!-- Node5&#45;&gt;Node4 -->
<g id="edge7" class="edge">
<title>Node5&#45;&gt;Node4</title>
<path fill="none" stroke="midnightblue" d="M395.95,-102.58C392.3,-88.85 385.97,-70.11 376,-56 365.3,-40.85 348.27,-27.82 336.2,-19.74"/>
<polygon fill="midnightblue" stroke="midnightblue" points="392.55,-103.43 398.31,-112.33 399.36,-101.79 392.55,-103.43"/>
</g>
<!-- Node6 -->
<g id="node6" class="node">
<title>Node6</title>
<g id="a_node6"><a xlink:href="metasprite_8h.html" target="_top" xlink:title="Meta&#45;sprite ; an aggregate of sprites.">
<polygon fill="none" stroke="black" points="230,-56.5 230,-75.5 334,-75.5 334,-56.5 230,-56.5"/>
<text text-anchor="middle" x="282" y="-63.5" font-family="Helvetica,sans-Serif" font-size="10.00">include/metasprite.h</text>
</a>
</g>
</g>
<!-- Node5&#45;&gt;Node6 -->
<g id="edge5" class="edge">
<title>Node5&#45;&gt;Node6</title>
<path fill="none" stroke="midnightblue" d="M372.1,-108.23C350.03,-98.13 319.82,-84.31 300.61,-75.52"/>
<polygon fill="midnightblue" stroke="midnightblue" points="370.75,-111.46 381.3,-112.44 373.67,-105.1 370.75,-111.46"/>
</g>
<!-- Node6&#45;&gt;Node4 -->
<g id="edge6" class="edge">
<title>Node6&#45;&gt;Node4</title>
<path fill="none" stroke="midnightblue" d="M294.7,-47.86C301.63,-38.5 309.91,-27.33 315.52,-19.75"/>
<polygon fill="midnightblue" stroke="midnightblue" points="291.75,-45.96 288.61,-56.08 297.37,-50.13 291.75,-45.96"/>
</g>
<!-- Node7&#45;&gt;Node5 -->
<g id="edge9" class="edge">
<title>Node7&#45;&gt;Node5</title>
<path fill="none" stroke="midnightblue" d="M431.89,-160.43C423.82,-150.97 414.04,-139.48 407.45,-131.75"/>
<polygon fill="midnightblue" stroke="midnightblue" points="429.25,-162.74 438.4,-168.08 434.58,-158.2 429.25,-162.74"/>
</g>
<!-- Node8&#45;&gt;Node3 -->
<g id="edge11" class="edge">
<title>Node8&#45;&gt;Node3</title>
<path fill="none" stroke="midnightblue" d="M650,-269.8C650,-260.91 650,-250.78 650,-243.75"/>
<polygon fill="midnightblue" stroke="midnightblue" points="646.5,-270.08 650,-280.08 653.5,-270.08 646.5,-270.08"/>
</g>
<!-- Node9&#45;&gt;Node4 -->
<g id="edge13" class="edge">
<title>Node9&#45;&gt;Node4</title>
<path fill="none" stroke="midnightblue" d="M386.96,-270.92C383.95,-262.78 380.55,-252.99 378,-244 364.11,-195.02 362.98,-182.11 354,-132 347.98,-98.41 352.77,-88.7 343,-56 339.05,-42.78 331.84,-28.51 326.98,-19.66"/>
<polygon fill="midnightblue" stroke="midnightblue" points="383.77,-272.38 390.59,-280.48 390.32,-269.89 383.77,-272.38"/>
</g>
<!-- Node9&#45;&gt;Node5 -->
<g id="edge17" class="edge">
<title>Node9&#45;&gt;Node5</title>
<path fill="none" stroke="midnightblue" d="M389.26,-270.63C383.82,-246.79 376.43,-204.01 383,-168 385.4,-154.86 391.44,-140.56 395.63,-131.69"/>
<polygon fill="midnightblue" stroke="midnightblue" points="385.88,-271.53 391.64,-280.42 392.68,-269.88 385.88,-271.53"/>
</g>
<!-- Node9&#45;&gt;Node7 -->
<g id="edge18" class="edge">
<title>Node9&#45;&gt;Node7</title>
<path fill="none" stroke="midnightblue" d="M402.36,-271.32C413.68,-247.37 433.45,-205.55 441.94,-187.59"/>
<polygon fill="midnightblue" stroke="midnightblue" points="399.19,-269.83 398.08,-280.37 405.52,-272.82 399.19,-269.83"/>
</g>
<!-- Node10 -->
<g id="node10" class="node">
<title>Node10</title>
<g id="a_node10"><a xlink:href="psg_8h.html" target="_top" xlink:title="Device interface for PSG (AY&#45;3&#45;8910) an internal sound chip.">
<polygon fill="none" stroke="black" points="520,-224.5 520,-243.5 594,-243.5 594,-224.5 520,-224.5"/>
<text text-anchor="middle" x="557" y="-231.5" font-family="Helvetica,sans-Serif" font-size="10.00">include/psg.h</text>
</a>
</g>
</g>
<!-- Node9&#45;&gt;Node10 -->
<g id="edge14" class="edge">
<title>Node9&#45;&gt;Node10</title>
<path fill="none" stroke="midnightblue" d="M429.7,-277.17C460.4,-267 503.92,-252.59 531.29,-243.52"/>
<polygon fill="midnightblue" stroke="midnightblue" points="428.22,-273.98 419.83,-280.44 430.42,-280.62 428.22,-273.98"/>
</g>
<!-- Node12 -->
<g id="node12" class="node">
<title>Node12</title>
<g id="a_node12"><a xlink:href="vmem_8h.html" target="_top" xlink:title="Data types and functions for VRAM access.">
<polygon fill="none" stroke="black" points="174.5,-224.5 174.5,-243.5 259.5,-243.5 259.5,-224.5 174.5,-224.5"/>
<text text-anchor="middle" x="217" y="-231.5" font-family="Helvetica,sans-Serif" font-size="10.00">include/vmem.h</text>
</a>
</g>
</g>
<!-- Node9&#45;&gt;Node12 -->
<g id="edge19" class="edge">
<title>Node9&#45;&gt;Node12</title>
<path fill="none" stroke="midnightblue" d="M356.1,-277.44C322.72,-267.26 274.9,-252.66 244.91,-243.52"/>
<polygon fill="midnightblue" stroke="midnightblue" points="355.37,-280.87 365.95,-280.44 357.41,-274.18 355.37,-280.87"/>
</g>
<!-- Node10&#45;&gt;Node4 -->
<g id="edge16" class="edge">
<title>Node10&#45;&gt;Node4</title>
<path fill="none" stroke="midnightblue" d="M591.08,-220.21C616.43,-208.6 644.48,-189.97 631,-168 570.89,-70.04 428.47,-30.86 360.02,-17.28"/>
<polygon fill="midnightblue" stroke="midnightblue" points="589.38,-217.13 581.59,-224.31 592.16,-223.56 589.38,-217.13"/>
</g>
<!-- Node11 -->
<g id="node11" class="node">
<title>Node11</title>
<g id="a_node11"><a xlink:href="ay__3__8910_8h.html" target="_top" xlink:title="Buffer for PSG (AY&#45;3&#45;8910) registers.">
<polygon fill="none" stroke="black" points="518,-168.5 518,-187.5 622,-187.5 622,-168.5 518,-168.5"/>
<text text-anchor="middle" x="570" y="-175.5" font-family="Helvetica,sans-Serif" font-size="10.00">include/ay_3_8910.h</text>
</a>
</g>
</g>
<!-- Node10&#45;&gt;Node11 -->
<g id="edge15" class="edge">
<title>Node10&#45;&gt;Node11</title>
<path fill="none" stroke="midnightblue" d="M561.55,-214.1C563.71,-205.14 566.18,-194.86 567.89,-187.75"/>
<polygon fill="midnightblue" stroke="midnightblue" points="558.08,-213.54 559.15,-224.08 564.89,-215.18 558.08,-213.54"/>
</g>
<!-- Node12&#45;&gt;Node4 -->
<g id="edge21" class="edge">
<title>Node12&#45;&gt;Node4</title>
<path fill="none" stroke="midnightblue" d="M188.76,-219.92C129.9,-190.95 3.83,-118.96 57,-56 85.6,-22.13 217.72,-13.75 283.94,-11.68"/>
<polygon fill="midnightblue" stroke="midnightblue" points="187.4,-223.15 197.92,-224.35 190.44,-216.84 187.4,-223.15"/>
</g>
<!-- Node12&#45;&gt;Node5 -->
<g id="edge28" class="edge">
<title>Node12&#45;&gt;Node5</title>
<path fill="none" stroke="midnightblue" d="M240.28,-219.01C278.69,-195.92 354.23,-150.51 385.71,-131.59"/>
<polygon fill="midnightblue" stroke="midnightblue" points="238.13,-216.22 231.36,-224.37 241.73,-222.22 238.13,-216.22"/>
</g>
<!-- Node12&#45;&gt;Node6 -->
<g id="edge20" class="edge">
<title>Node12&#45;&gt;Node6</title>
<path fill="none" stroke="midnightblue" d="M224.29,-214.39C238.31,-178.59 268.55,-101.34 278.65,-75.57"/>
<polygon fill="midnightblue" stroke="midnightblue" points="220.88,-213.49 220.49,-224.08 227.4,-216.04 220.88,-213.49"/>
</g>
<!-- Node12&#45;&gt;Node7 -->
<g id="edge29" class="edge">
<title>Node12&#45;&gt;Node7</title>
<path fill="none" stroke="midnightblue" d="M263.27,-222.09C306.54,-211.89 370.26,-196.86 409.88,-187.52"/>
<polygon fill="midnightblue" stroke="midnightblue" points="262.22,-218.74 253.29,-224.44 263.82,-225.55 262.22,-218.74"/>
</g>
<!-- Node13 -->
<g id="node13" class="node">
<title>Node13</title>
<g id="a_node13"><a xlink:href="sprite_8h.html" target="_top" xlink:title="Sprites.">
<polygon fill="none" stroke="black" points="148,-112.5 148,-131.5 230,-131.5 230,-112.5 148,-112.5"/>
<text text-anchor="middle" x="189" y="-119.5" font-family="Helvetica,sans-Serif" font-size="10.00">include/sprite.h</text>
</a>
</g>
</g>
<!-- Node12&#45;&gt;Node13 -->
<g id="edge22" class="edge">
<title>Node12&#45;&gt;Node13</title>
<path fill="none" stroke="midnightblue" d="M212.34,-214.67C206.21,-190.62 195.72,-149.39 191.19,-131.59"/>
<polygon fill="midnightblue" stroke="midnightblue" points="208.94,-215.54 214.8,-224.37 215.73,-213.81 208.94,-215.54"/>
</g>
<!-- Node14 -->
<g id="node14" class="node">
<title>Node14</title>
<g id="a_node14"><a xlink:href="sprite__color_8h.html" target="_top" xlink:title="Sprite color table interface.">
<polygon fill="none" stroke="black" points="66,-56.5 66,-75.5 174,-75.5 174,-56.5 66,-56.5"/>
<text text-anchor="middle" x="120" y="-63.5" font-family="Helvetica,sans-Serif" font-size="10.00">include/sprite_color.h</text>
</a>
</g>
</g>
<!-- Node12&#45;&gt;Node14 -->
<g id="edge27" class="edge">
<title>Node12&#45;&gt;Node14</title>
<path fill="none" stroke="midnightblue" d="M201.44,-216.91C183.95,-198 155.81,-165.02 139,-132 129.4,-113.14 123.9,-88.67 121.49,-75.8"/>
<polygon fill="midnightblue" stroke="midnightblue" points="199.03,-219.45 208.43,-224.33 204.12,-214.65 199.03,-219.45"/>
</g>
<!-- Node13&#45;&gt;Node4 -->
<g id="edge24" class="edge">
<title>Node13&#45;&gt;Node4</title>
<path fill="none" stroke="midnightblue" d="M194.26,-102.55C199.15,-88.25 207.71,-68.79 221,-56 239.67,-38.03 266.74,-26.5 288.15,-19.61"/>
<polygon fill="midnightblue" stroke="midnightblue" points="190.86,-101.69 191.21,-112.28 197.54,-103.78 190.86,-101.69"/>
</g>
<!-- Node13&#45;&gt;Node6 -->
<g id="edge23" class="edge">
<title>Node13&#45;&gt;Node6</title>
<path fill="none" stroke="midnightblue" d="M212.81,-107.18C229.92,-97.24 252.47,-84.15 267.1,-75.65"/>
<polygon fill="midnightblue" stroke="midnightblue" points="210.83,-104.28 203.94,-112.32 214.35,-110.33 210.83,-104.28"/>
</g>
<!-- Node13&#45;&gt;Node14 -->
<g id="edge25" class="edge">
<title>Node13&#45;&gt;Node14</title>
<path fill="none" stroke="midnightblue" d="M169.96,-106.1C157.54,-96.38 141.76,-84.03 131.29,-75.83"/>
<polygon fill="midnightblue" stroke="midnightblue" points="167.88,-108.92 177.91,-112.32 172.2,-103.4 167.88,-108.92"/>
</g>
<!-- Node14&#45;&gt;Node4 -->
<g id="edge26" class="edge">
<title>Node14&#45;&gt;Node4</title>
<path fill="none" stroke="midnightblue" d="M161.79,-53.83C199.93,-43.63 255.48,-28.78 290.14,-19.52"/>
<polygon fill="midnightblue" stroke="midnightblue" points="160.76,-50.48 152.01,-56.44 162.57,-57.24 160.76,-50.48"/>
</g>
<!-- Node15&#45;&gt;Node4 -->
<g id="edge32" class="edge">
<title>Node15&#45;&gt;Node4</title>
<path fill="none" stroke="midnightblue" d="M799.17,-158.58C792.41,-131.17 775.59,-80.29 740,-56 678.74,-14.18 451.27,-10.4 360.13,-10.62"/>
<polygon fill="midnightblue" stroke="midnightblue" points="795.78,-159.46 801.41,-168.44 802.61,-157.91 795.78,-159.46"/>
</g>
<!-- Node15&#45;&gt;Node5 -->
<g id="edge33" class="edge">
<title>Node15&#45;&gt;Node5</title>
<path fill="none" stroke="midnightblue" d="M744.05,-169.1C659.74,-157.8 507.18,-137.36 437.06,-127.97"/>
<polygon fill="midnightblue" stroke="midnightblue" points="743.61,-172.57 753.99,-170.43 744.54,-165.64 743.61,-172.57"/>
</g>
</g>
</svg>
