<?xml version="1.0" encoding="UTF-8" standalone="no"?>
<!DOCTYPE svg PUBLIC "-//W3C//DTD SVG 1.1//EN"
 "http://www.w3.org/Graphics/SVG/1.1/DTD/svg11.dtd">
<!-- Generated by graphviz version 9.0.0 (20230911.1827)
 -->
<!-- Title: SNDDRV &#45; PSG sound driver Pages: 1 -->
<svg width="264pt" height="64pt"
 viewBox="0.00 0.00 263.50 64.25" xmlns="http://www.w3.org/2000/svg" xmlns:xlink="http://www.w3.org/1999/xlink">
<g id="graph0" class="graph" transform="scale(1 1) rotate(0) translate(4 60.25)">
<title>SNDDRV &#45; PSG sound driver</title>
<!-- Node1 -->
<g id="Node000001" class="node">
<title>Node1</title>
<g id="a_Node000001"><a xlink:title="#include &lt;snddrv.h&gt;">
<polygon fill="#999999" stroke="#666666" points="114.25,-42.88 0,-42.88 0,-12.37 114.25,-12.37 114.25,-42.88"/>
<text text-anchor="start" x="8" y="-29.38" font-family="Helvetica,sans-Serif" font-size="10.00">SNDDRV &#45; PSG sound</text>
<text text-anchor="middle" x="57.12" y="-18.12" font-family="Helvetica,sans-Serif" font-size="10.00"> driver</text>
</a>
</g>
</g>
<!-- Node3 -->
<g id="Node000003" class="node">
<title>Node3</title>
<g id="a_Node000003"><a xlink:href="group__SNDDRV__API.html" target="_top" xlink:title="SNDDRV APIs.">
<polygon fill="white" stroke="#666666" points="243.5,-56.25 162.25,-56.25 162.25,-37 243.5,-37 243.5,-56.25"/>
<text text-anchor="middle" x="202.88" y="-42.75" font-family="Helvetica,sans-Serif" font-size="10.00">SNDDRV APIs</text>
</a>
</g>
</g>
<!-- Node1&#45;&gt;Node3 -->
<g id="edge2" class="edge">
<title>Node1&#45;&gt;Node3</title>
<path fill="none" stroke="black" d="M125.83,-36.57C138.24,-38.21 150.81,-39.88 162.06,-41.36"/>
<polygon fill="black" stroke="black" points="126.4,-33.12 116.03,-35.28 125.48,-40.06 126.4,-33.12"/>
</g>
<!-- Node2 -->
<g id="Node000002" class="node">
<title>Node2</title>
<g id="a_Node000002"><a xlink:href="group__SNDDRV__DATA.html" target="_top" xlink:title="Sound data structure for SNDDRV.">
<polygon fill="white" stroke="#666666" points="255.5,-19.25 150.25,-19.25 150.25,0 255.5,0 255.5,-19.25"/>
<text text-anchor="middle" x="202.88" y="-5.75" font-family="Helvetica,sans-Serif" font-size="10.00">Sound data structure</text>
</a>
</g>
</g>
<!-- Node1&#45;&gt;Node2 -->
<g id="edge1" class="edge">
<title>Node1&#45;&gt;Node2</title>
<path fill="none" stroke="black" d="M125.84,-19.15C133.91,-18.13 142.05,-17.12 149.85,-16.14"/>
<polygon fill="black" stroke="black" points="125.52,-15.66 116.03,-20.37 126.39,-22.6 125.52,-15.66"/>
</g>
</g>
</svg>
