<?xml version="1.0" encoding="UTF-8" standalone="no"?>
<!DOCTYPE svg PUBLIC "-//W3C//DTD SVG 1.1//EN"
 "http://www.w3.org/Graphics/SVG/1.1/DTD/svg11.dtd">
<!-- Generated by graphviz version 12.2.0 (20241103.1931)
 -->
<!-- Title: Sound devices. Pages: 1 -->
<svg width="287pt" height="137pt"
 viewBox="0.00 0.00 286.75 136.50" xmlns="http://www.w3.org/2000/svg" xmlns:xlink="http://www.w3.org/1999/xlink">
<g id="graph0" class="graph" transform="scale(1 1) rotate(0) translate(4 132.5)">
<title>Sound devices.</title>
<!-- Node1 -->
<g id="Node000001" class="node">
<title>Node1</title>
<g id="a_Node000001"><a xlink:title=" ">
<polygon fill="#999999" stroke="#666666" points="82,-73.88 0,-73.88 0,-54.62 82,-54.62 82,-73.88"/>
<text text-anchor="middle" x="41" y="-60.38" font-family="Helvetica,sans-Serif" font-size="10.00">Sound devices.</text>
</a>
</g>
</g>
<!-- Node2 -->
<g id="Node000002" class="node">
<title>Node2</title>
<g id="a_Node000002"><a xlink:href="group__OPLL.html" target="_top" xlink:title="#include &lt;opll.h&gt;">
<polygon fill="white" stroke="#666666" points="255.88,-128.5 140.88,-128.5 140.88,-98 255.88,-98 255.88,-128.5"/>
<text text-anchor="start" x="148.88" y="-115" font-family="Helvetica,sans-Serif" font-size="10.00">OPLL &#45; YM2413 / MSX</text>
<text text-anchor="middle" x="198.38" y="-103.75" font-family="Helvetica,sans-Serif" font-size="10.00">&#45;MUSIC</text>
</a>
</g>
</g>
<!-- Node1&#45;&gt;Node2 -->
<g id="edge1" class="edge">
<title>Node1&#45;&gt;Node2</title>
<path fill="none" stroke="black" d="M84.75,-77.76C95.6,-81.18 107.23,-84.85 118,-88.25 127.51,-91.25 137.66,-94.45 147.41,-97.52"/>
<polygon fill="black" stroke="black" points="85.83,-74.43 75.24,-74.75 83.72,-81.1 85.83,-74.43"/>
</g>
<!-- Node3 -->
<g id="Node000003" class="node">
<title>Node3</title>
<g id="a_Node000003"><a xlink:href="group__PSG.html" target="_top" xlink:title="#include &lt;psg.h&gt;, #include &lt;ay_3_8910.h&gt;">
<polygon fill="white" stroke="#666666" points="278.75,-79.5 118,-79.5 118,-49 278.75,-49 278.75,-79.5"/>
<text text-anchor="start" x="126" y="-66" font-family="Helvetica,sans-Serif" font-size="10.00">PSG &#45; AY&#45;3&#45;8910 / Programmable</text>
<text text-anchor="middle" x="198.38" y="-54.75" font-family="Helvetica,sans-Serif" font-size="10.00"> Sound Generator</text>
</a>
</g>
</g>
<!-- Node1&#45;&gt;Node3 -->
<g id="edge2" class="edge">
<title>Node1&#45;&gt;Node3</title>
<path fill="none" stroke="black" d="M93.77,-64.25C101.47,-64.25 109.56,-64.25 117.68,-64.25"/>
<polygon fill="black" stroke="black" points="93.93,-60.75 83.93,-64.25 93.93,-67.75 93.93,-60.75"/>
</g>
<!-- Node4 -->
<g id="Node000004" class="node">
<title>Node4</title>
<g id="a_Node000004"><a xlink:href="group__SCC.html" target="_top" xlink:title="#include &lt;scc.h&gt;">
<polygon fill="white" stroke="#666666" points="263,-30.5 133.75,-30.5 133.75,0 263,0 263,-30.5"/>
<text text-anchor="start" x="141.75" y="-17" font-family="Helvetica,sans-Serif" font-size="10.00">Konami SCC/SCC+ sound</text>
<text text-anchor="middle" x="198.38" y="-5.75" font-family="Helvetica,sans-Serif" font-size="10.00"> cartridge</text>
</a>
</g>
</g>
<!-- Node1&#45;&gt;Node4 -->
<g id="edge3" class="edge">
<title>Node1&#45;&gt;Node4</title>
<path fill="none" stroke="black" d="M84.75,-50.74C95.6,-47.32 107.23,-43.65 118,-40.25 127.51,-37.25 137.66,-34.05 147.41,-30.98"/>
<polygon fill="black" stroke="black" points="83.72,-47.4 75.24,-53.75 85.83,-54.07 83.72,-47.4"/>
</g>
</g>
</svg>
