<?xml version="1.0" encoding="UTF-8" standalone="no"?>
<!DOCTYPE svg PUBLIC "-//W3C//DTD SVG 1.1//EN"
 "http://www.w3.org/Graphics/SVG/1.1/DTD/svg11.dtd">
<!-- Generated by graphviz version 7.0.5 (20221223.1930)
 -->
<!-- Title: Interrupts Pages: 1 -->
<svg width="194pt" height="101pt"
 viewBox="0.00 0.00 194.00 101.00" xmlns="http://www.w3.org/2000/svg" xmlns:xlink="http://www.w3.org/1999/xlink">
<g id="graph0" class="graph" transform="scale(1 1) rotate(0) translate(4 97)">
<title>Interrupts</title>
<!-- Node1 -->
<g id="node1" class="node">
<title>Node1</title>
<g id="a_node1"><a xlink:title="#include &lt;interrupt.h&gt;">
<polygon fill="#999999" stroke="#666666" points="58,-56 0,-56 0,-37 58,-37 58,-56"/>
<text text-anchor="middle" x="29" y="-44" font-family="Helvetica,sans-Serif" font-size="10.00">Interrupts</text>
</a>
</g>
</g>
<!-- Node2 -->
<g id="node2" class="node">
<title>Node2</title>
<g id="a_node2"><a xlink:href="group__INTERRUPT__AWAIT.html" target="_top" xlink:title="Await interrupts.">
<polygon fill="white" stroke="#666666" points="182,-93 98,-93 98,-74 182,-74 182,-93"/>
<text text-anchor="middle" x="140" y="-81" font-family="Helvetica,sans-Serif" font-size="10.00">Await interrupts</text>
</a>
</g>
</g>
<!-- Node1&#45;&gt;Node2 -->
<g id="edge1" class="edge">
<title>Node1&#45;&gt;Node2</title>
<path fill="none" stroke="black" d="M69.17,-59.8C82.52,-64.33 97.2,-69.31 109.65,-73.54"/>
<polygon fill="black" stroke="black" points="70.38,-56.51 59.79,-56.61 68.13,-63.14 70.38,-56.51"/>
</g>
<!-- Node3 -->
<g id="node3" class="node">
<title>Node3</title>
<g id="a_node3"><a xlink:href="group__INTERRUPT__HANDLER.html" target="_top" xlink:title="Pluggable interrupts handler interface.">
<polygon fill="white" stroke="#666666" points="186,-56 94,-56 94,-37 186,-37 186,-56"/>
<text text-anchor="middle" x="140" y="-44" font-family="Helvetica,sans-Serif" font-size="10.00">Interrupts handler</text>
</a>
</g>
</g>
<!-- Node1&#45;&gt;Node3 -->
<g id="edge2" class="edge">
<title>Node1&#45;&gt;Node3</title>
<path fill="none" stroke="black" d="M69.81,-46.5C77.64,-46.5 85.91,-46.5 93.9,-46.5"/>
<polygon fill="black" stroke="black" points="69.87,-43 59.87,-46.5 69.87,-50 69.87,-43"/>
</g>
<!-- Node4 -->
<g id="node4" class="node">
<title>Node4</title>
<g id="a_node4"><a xlink:href="group__INTERRUPT__SLEEP.html" target="_top" xlink:title="Sleep functions.">
<polygon fill="white" stroke="#666666" points="160.5,-19 119.5,-19 119.5,0 160.5,0 160.5,-19"/>
<text text-anchor="middle" x="140" y="-7" font-family="Helvetica,sans-Serif" font-size="10.00">Sleep</text>
</a>
</g>
</g>
<!-- Node1&#45;&gt;Node4 -->
<g id="edge3" class="edge">
<title>Node1&#45;&gt;Node4</title>
<path fill="none" stroke="black" d="M69.09,-33.23C86.01,-27.49 105.09,-21.01 119.04,-16.27"/>
<polygon fill="black" stroke="black" points="68.13,-29.86 59.79,-36.39 70.38,-36.49 68.13,-29.86"/>
</g>
</g>
</svg>
