<?xml version="1.0" encoding="UTF-8" standalone="no"?>
<!DOCTYPE svg PUBLIC "-//W3C//DTD SVG 1.1//EN"
 "http://www.w3.org/Graphics/SVG/1.1/DTD/svg11.dtd">
<!-- Generated by graphviz version 7.0.4 (20221203.1631)
 -->
<!-- Title: Banked Memory interface for MegaROM. Pages: 1 -->
<svg width="312pt" height="86pt"
 viewBox="0.00 0.00 312.00 86.00" xmlns="http://www.w3.org/2000/svg" xmlns:xlink="http://www.w3.org/1999/xlink">
<g id="graph0" class="graph" transform="scale(1 1) rotate(0) translate(4 82)">
<title>Banked Memory interface for MegaROM.</title>
<!-- Node1 -->
<g id="node1" class="node">
<title>Node1</title>
<g id="a_node1"><a xlink:title="#include &lt;bmem.h&gt;">
<polygon fill="#999999" stroke="#666666" points="126,-54 0,-54 0,-24 126,-24 126,-54"/>
<text text-anchor="start" x="8" y="-42" font-family="Helvetica,sans-Serif" font-size="10.00">Banked Memory interface</text>
<text text-anchor="middle" x="63" y="-31" font-family="Helvetica,sans-Serif" font-size="10.00"> for MegaROM.</text>
</a>
</g>
</g>
<!-- Node2 -->
<g id="node2" class="node">
<title>Node2</title>
<g id="a_node2"><a xlink:href="group__BANKED__MEMORY__DIRECT__ACCESS.html" target="_top" xlink:title="APIs for direct access to 16KiB segments of banked memory.">
<polygon fill="white" stroke="#666666" points="304,-78 162,-78 162,-48 304,-48 304,-78"/>
<text text-anchor="start" x="170" y="-66" font-family="Helvetica,sans-Serif" font-size="10.00">Direct access to banked</text>
<text text-anchor="middle" x="233" y="-55" font-family="Helvetica,sans-Serif" font-size="10.00"> memory by switching page 2.</text>
</a>
</g>
</g>
<!-- Node1&#45;&gt;Node2 -->
<g id="edge1" class="edge">
<title>Node1&#45;&gt;Node2</title>
<path fill="none" stroke="black" d="M137.37,-49.48C145.44,-50.63 153.64,-51.81 161.68,-52.95"/>
<polygon fill="black" stroke="black" points="137.97,-46.03 127.58,-48.08 136.98,-52.96 137.97,-46.03"/>
</g>
<!-- Node3 -->
<g id="node3" class="node">
<title>Node3</title>
<g id="a_node3"><a xlink:href="group__BANKED__MEMORY__INDIRECT__ACCESS.html" target="_top" xlink:title="APIs for indirect access to banked memory.">
<polygon fill="white" stroke="#666666" points="288.5,-30 177.5,-30 177.5,0 288.5,0 288.5,-30"/>
<text text-anchor="start" x="185.5" y="-18" font-family="Helvetica,sans-Serif" font-size="10.00">Reading and copying</text>
<text text-anchor="middle" x="233" y="-7" font-family="Helvetica,sans-Serif" font-size="10.00"> from banked memory.</text>
</a>
</g>
</g>
<!-- Node1&#45;&gt;Node3 -->
<g id="edge2" class="edge">
<title>Node1&#45;&gt;Node3</title>
<path fill="none" stroke="black" d="M137.21,-28.54C150.6,-26.63 164.36,-24.66 177.1,-22.84"/>
<polygon fill="black" stroke="black" points="136.98,-25.04 127.58,-29.92 137.97,-31.97 136.98,-25.04"/>
</g>
</g>
</svg>
