<?xml version="1.0" encoding="UTF-8" standalone="no"?>
<!DOCTYPE svg PUBLIC "-//W3C//DTD SVG 1.1//EN"
 "http://www.w3.org/Graphics/SVG/1.1/DTD/svg11.dtd">
<!-- Generated by graphviz version 12.2.0 (20241103.1931)
 -->
<!-- Title: The libmsx audio replayer. Pages: 1 -->
<svg width="469pt" height="256pt"
 viewBox="0.00 0.00 469.25 256.12" xmlns="http://www.w3.org/2000/svg" xmlns:xlink="http://www.w3.org/1999/xlink">
<g id="graph0" class="graph" transform="scale(1 1) rotate(0) translate(4 252.12)">
<title>The libmsx audio replayer.</title>
<!-- Node1 -->
<g id="Node000001" class="node">
<title>Node1</title>
<g id="a_Node000001"><a xlink:title="#include &lt;audio.h&gt; Framework for sound drivers / replayers.">
<polygon fill="#999999" stroke="#666666" points="286.25,-122.88 160,-122.88 160,-103.62 286.25,-103.62 286.25,-122.88"/>
<text text-anchor="middle" x="223.12" y="-109.38" font-family="Helvetica,sans-Serif" font-size="10.00">The libmsx audio replayer.</text>
</a>
</g>
</g>
<!-- Node5 -->
<g id="Node000005" class="node">
<title>Node5</title>
<g id="a_Node000005"><a xlink:href="group__AUDIO__BUFFER.html" target="_top" xlink:title="#include &lt;audio_buf.h&gt;">
<polygon fill="white" stroke="#666666" points="441,-248.12 342.5,-248.12 342.5,-206.38 441,-206.38 441,-248.12"/>
<text text-anchor="start" x="350.5" y="-234.62" font-family="Helvetica,sans-Serif" font-size="10.00">Unified sound&#45;chip</text>
<text text-anchor="start" x="350.5" y="-223.38" font-family="Helvetica,sans-Serif" font-size="10.00"> buffer of the libmsx</text>
<text text-anchor="middle" x="391.75" y="-212.12" font-family="Helvetica,sans-Serif" font-size="10.00"> audio replayer.</text>
</a>
</g>
</g>
<!-- Node1&#45;&gt;Node5 -->
<g id="edge4" class="edge">
<title>Node1&#45;&gt;Node5</title>
<path fill="none" stroke="black" d="M241.8,-131.25C260.53,-149.59 291.56,-177.99 322.25,-197.25 328.52,-201.18 335.39,-204.85 342.29,-208.18"/>
<polygon fill="black" stroke="black" points="244.29,-128.78 234.73,-124.21 239.35,-133.74 244.29,-128.78"/>
</g>
<!-- Node6 -->
<g id="Node000006" class="node">
<title>Node6</title>
<g id="a_Node000006"><a xlink:href="group__AUDIO__CALLBACK.html" target="_top" xlink:title="#include &lt;audio_cb.h&gt;">
<polygon fill="white" stroke="#666666" points="440.62,-188.12 342.88,-188.12 342.88,-146.38 440.62,-146.38 440.62,-188.12"/>
<text text-anchor="start" x="350.88" y="-174.62" font-family="Helvetica,sans-Serif" font-size="10.00">Callback functions</text>
<text text-anchor="start" x="350.88" y="-163.38" font-family="Helvetica,sans-Serif" font-size="10.00"> of the libmsx audio</text>
<text text-anchor="middle" x="391.75" y="-152.12" font-family="Helvetica,sans-Serif" font-size="10.00"> replayer.</text>
</a>
</g>
</g>
<!-- Node1&#45;&gt;Node6 -->
<g id="edge5" class="edge">
<title>Node1&#45;&gt;Node6</title>
<path fill="none" stroke="black" d="M266,-126.82C289.29,-134.37 318.38,-143.8 342.61,-151.65"/>
<polygon fill="black" stroke="black" points="267.11,-123.5 256.52,-123.75 264.95,-130.16 267.11,-123.5"/>
</g>
<!-- Node7 -->
<g id="Node000007" class="node">
<title>Node7</title>
<g id="a_Node000007"><a xlink:href="group__AUDIO__DECODER.html" target="_top" xlink:title="#include &lt;audio_dec.h&gt;">
<polygon fill="white" stroke="#666666" points="461.25,-128.5 322.25,-128.5 322.25,-98 461.25,-98 461.25,-128.5"/>
<text text-anchor="start" x="330.25" y="-115" font-family="Helvetica,sans-Serif" font-size="10.00">The audio decoder interface</text>
<text text-anchor="middle" x="391.75" y="-103.75" font-family="Helvetica,sans-Serif" font-size="10.00"> for the libmsx audio replayer.</text>
</a>
</g>
</g>
<!-- Node1&#45;&gt;Node7 -->
<g id="edge6" class="edge">
<title>Node1&#45;&gt;Node7</title>
<path fill="none" stroke="black" d="M298.16,-113.25C306.09,-113.25 314.14,-113.25 322.01,-113.25"/>
<polygon fill="black" stroke="black" points="298.16,-109.75 288.16,-113.25 298.16,-116.75 298.16,-109.75"/>
</g>
<!-- Node4 -->
<g id="Node000004" class="node">
<title>Node4</title>
<g id="a_Node000004"><a xlink:href="group__AUDIO__EFX.html" target="_top" xlink:title="Effectors for the libmsx audio replayer.">
<polygon fill="white" stroke="#666666" points="448.5,-79.5 335,-79.5 335,-49 448.5,-49 448.5,-79.5"/>
<text text-anchor="start" x="343" y="-66" font-family="Helvetica,sans-Serif" font-size="10.00">Effectors for the libmsx</text>
<text text-anchor="middle" x="391.75" y="-54.75" font-family="Helvetica,sans-Serif" font-size="10.00"> audio replayer.</text>
</a>
</g>
</g>
<!-- Node1&#45;&gt;Node4 -->
<g id="edge3" class="edge">
<title>Node1&#45;&gt;Node4</title>
<path fill="none" stroke="black" d="M269.13,-100.01C290.16,-93.83 315.34,-86.43 337.32,-79.96"/>
<polygon fill="black" stroke="black" points="268.3,-96.61 259.7,-102.79 270.28,-103.33 268.3,-96.61"/>
</g>
<!-- Node3 -->
<g id="Node000003" class="node">
<title>Node3</title>
<g id="a_Node000003"><a xlink:href="group__AUDIO__REPLAYER.html" target="_top" xlink:title="The API of the libmsx audio replayer.">
<polygon fill="white" stroke="#666666" points="445.5,-30.5 338,-30.5 338,0 445.5,0 445.5,-30.5"/>
<text text-anchor="start" x="346" y="-17" font-family="Helvetica,sans-Serif" font-size="10.00">The API of the libmsx</text>
<text text-anchor="middle" x="391.75" y="-5.75" font-family="Helvetica,sans-Serif" font-size="10.00"> audio replayer.</text>
</a>
</g>
</g>
<!-- Node1&#45;&gt;Node3 -->
<g id="edge2" class="edge">
<title>Node1&#45;&gt;Node3</title>
<path fill="none" stroke="black" d="M243.8,-95.91C262.83,-79.81 293,-56.03 322.25,-40.25 328.6,-36.82 335.52,-33.68 342.44,-30.87"/>
<polygon fill="black" stroke="black" points="241.62,-93.17 236.32,-102.34 246.18,-98.47 241.62,-93.17"/>
</g>
<!-- Node2 -->
<g id="Node000002" class="node">
<title>Node2</title>
<g id="a_Node000002"><a xlink:href="group__LIBMSX__REPLAYER.html" target="_top" xlink:title=" ">
<polygon fill="white" stroke="#666666" points="124,-122.88 0,-122.88 0,-103.62 124,-103.62 124,-122.88"/>
<text text-anchor="middle" x="62" y="-109.38" font-family="Helvetica,sans-Serif" font-size="10.00">Sound drivers / replayers.</text>
</a>
</g>
</g>
<!-- Node2&#45;&gt;Node1 -->
<g id="edge1" class="edge">
<title>Node2&#45;&gt;Node1</title>
<path fill="none" stroke="black" d="M135.41,-113.25C143.5,-113.25 151.69,-113.25 159.64,-113.25"/>
<polygon fill="black" stroke="black" points="135.58,-109.75 125.58,-113.25 135.58,-116.75 135.58,-109.75"/>
</g>
</g>
</svg>
