<?xml version="1.0" encoding="UTF-8" standalone="no"?>
<!DOCTYPE svg PUBLIC "-//W3C//DTD SVG 1.1//EN"
 "http://www.w3.org/Graphics/SVG/1.1/DTD/svg11.dtd">
<!-- Generated by graphviz version 12.2.0 (20241103.1931)
 -->
<!-- Title: Interrupts Pages: 1 -->
<svg width="347pt" height="138pt"
 viewBox="0.00 0.00 347.00 138.25" xmlns="http://www.w3.org/2000/svg" xmlns:xlink="http://www.w3.org/1999/xlink">
<g id="graph0" class="graph" transform="scale(1 1) rotate(0) translate(4 134.25)">
<title>Interrupts</title>
<!-- Node1 -->
<g id="Node000001" class="node">
<title>Node1</title>
<g id="a_Node000001"><a xlink:title="#include &lt;interrupt.h&gt;">
<polygon fill="#999999" stroke="#666666" points="210.5,-74.25 153.25,-74.25 153.25,-55 210.5,-55 210.5,-74.25"/>
<text text-anchor="middle" x="181.88" y="-60.75" font-family="Helvetica,sans-Serif" font-size="10.00">Interrupts</text>
</a>
</g>
</g>
<!-- Node3 -->
<g id="Node000003" class="node">
<title>Node3</title>
<g id="a_Node000003"><a xlink:href="group__INTERRUPT__AWAIT.html" target="_top" xlink:title="Await interrupts.">
<polygon fill="white" stroke="#666666" points="334.5,-130.25 251,-130.25 251,-111 334.5,-111 334.5,-130.25"/>
<text text-anchor="middle" x="292.75" y="-116.75" font-family="Helvetica,sans-Serif" font-size="10.00">Await interrupts</text>
</a>
</g>
</g>
<!-- Node1&#45;&gt;Node3 -->
<g id="edge2" class="edge">
<title>Node1&#45;&gt;Node3</title>
<path fill="none" stroke="black" d="M207.6,-80.65C219.18,-87.82 233.29,-96.11 246.5,-102.62 252.26,-105.47 258.59,-108.21 264.64,-110.66"/>
<polygon fill="black" stroke="black" points="209.78,-77.89 199.46,-75.52 206.05,-83.81 209.78,-77.89"/>
</g>
<!-- Node4 -->
<g id="Node000004" class="node">
<title>Node4</title>
<g id="a_Node000004"><a xlink:href="group__INTERRUPT__HANDLER.html" target="_top" xlink:title="Pluggable interrupts handler interface.">
<polygon fill="white" stroke="#666666" points="338.25,-93.25 247.25,-93.25 247.25,-74 338.25,-74 338.25,-93.25"/>
<text text-anchor="middle" x="292.75" y="-79.75" font-family="Helvetica,sans-Serif" font-size="10.00">Interrupts handler</text>
</a>
</g>
</g>
<!-- Node1&#45;&gt;Node4 -->
<g id="edge3" class="edge">
<title>Node1&#45;&gt;Node4</title>
<path fill="none" stroke="black" d="M222.22,-71.49C230.24,-72.89 238.72,-74.37 246.91,-75.8"/>
<polygon fill="black" stroke="black" points="222.86,-68.05 212.4,-69.78 221.65,-74.95 222.86,-68.05"/>
</g>
<!-- Node5 -->
<g id="Node000005" class="node">
<title>Node5</title>
<g id="a_Node000005"><a xlink:href="group__INTERRUPT__SLEEP.html" target="_top" xlink:title="Sleep functions.">
<polygon fill="white" stroke="#666666" points="313.12,-56.25 272.38,-56.25 272.38,-37 313.12,-37 313.12,-56.25"/>
<text text-anchor="middle" x="292.75" y="-42.75" font-family="Helvetica,sans-Serif" font-size="10.00">Sleep</text>
</a>
</g>
</g>
<!-- Node1&#45;&gt;Node5 -->
<g id="edge4" class="edge">
<title>Node1&#45;&gt;Node5</title>
<path fill="none" stroke="black" d="M222.2,-58.12C239.13,-55.32 258.18,-52.18 272.05,-49.88"/>
<polygon fill="black" stroke="black" points="221.7,-54.66 212.41,-59.74 222.84,-61.56 221.7,-54.66"/>
</g>
<!-- Node6 -->
<g id="Node000006" class="node">
<title>Node6</title>
<g id="a_Node000006"><a xlink:href="group__INTERRUPT__STATE.html" target="_top" xlink:title="Get state of interrupts.">
<polygon fill="white" stroke="#666666" points="339,-19.25 246.5,-19.25 246.5,0 339,0 339,-19.25"/>
<text text-anchor="middle" x="292.75" y="-5.75" font-family="Helvetica,sans-Serif" font-size="10.00">State of interrupts</text>
</a>
</g>
</g>
<!-- Node1&#45;&gt;Node6 -->
<g id="edge5" class="edge">
<title>Node1&#45;&gt;Node6</title>
<path fill="none" stroke="black" d="M208.47,-48.58C219.9,-41.72 233.66,-33.87 246.5,-27.62 252.28,-24.81 258.61,-22.09 264.67,-19.64"/>
<polygon fill="black" stroke="black" points="206.73,-45.54 200.02,-53.73 210.38,-51.51 206.73,-45.54"/>
</g>
<!-- Node2 -->
<g id="Node000002" class="node">
<title>Node2</title>
<g id="a_Node000002"><a xlink:href="group__LIBMSX__SYS.html" target="_top" xlink:title=" ">
<polygon fill="white" stroke="#666666" points="117.25,-79.88 0,-79.88 0,-49.38 117.25,-49.38 117.25,-79.88"/>
<text text-anchor="start" x="8" y="-66.38" font-family="Helvetica,sans-Serif" font-size="10.00">BIOS, Interrupts, Slots,</text>
<text text-anchor="middle" x="58.62" y="-55.12" font-family="Helvetica,sans-Serif" font-size="10.00"> etc.</text>
</a>
</g>
</g>
<!-- Node2&#45;&gt;Node1 -->
<g id="edge1" class="edge">
<title>Node2&#45;&gt;Node1</title>
<path fill="none" stroke="black" d="M128.66,-64.62C137.16,-64.62 145.44,-64.62 152.8,-64.62"/>
<polygon fill="black" stroke="black" points="128.92,-61.13 118.92,-64.63 128.92,-68.13 128.92,-61.13"/>
</g>
</g>
</svg>
