<?xml version="1.0" encoding="UTF-8" standalone="no"?>
<!DOCTYPE svg PUBLIC "-//W3C//DTD SVG 1.1//EN"
 "http://www.w3.org/Graphics/SVG/1.1/DTD/svg11.dtd">
<!-- Generated by graphviz version 9.0.0 (20230911.1827)
 -->
<!-- Title: Banked Memory as a storage of Named Resources. Pages: 1 -->
<svg width="472pt" height="98pt"
 viewBox="0.00 0.00 472.25 98.12" xmlns="http://www.w3.org/2000/svg" xmlns:xlink="http://www.w3.org/1999/xlink">
<g id="graph0" class="graph" transform="scale(1 1) rotate(0) translate(4 94.12)">
<title>Banked Memory as a storage of Named Resources.</title>
<!-- Node2 -->
<g id="Node000002" class="node">
<title>Node2</title>
<g id="a_Node000002"><a xlink:href="group__BANKED__MEMORY.html" target="_top" xlink:title="#include &lt;bmem.h&gt;">
<polygon fill="white" stroke="#666666" points="125.5,-63.12 0,-63.12 0,-32.62 125.5,-32.62 125.5,-63.12"/>
<text text-anchor="start" x="8" y="-49.62" font-family="Helvetica,sans-Serif" font-size="10.00">Banked Memory interface</text>
<text text-anchor="middle" x="62.75" y="-38.38" font-family="Helvetica,sans-Serif" font-size="10.00"> for MegaROM.</text>
</a>
</g>
</g>
<!-- Node1 -->
<g id="Node000001" class="node">
<title>Node1</title>
<g id="a_Node000001"><a xlink:title="#include &lt;resources.h&gt;">
<polygon fill="#999999" stroke="#666666" points="307.25,-63.12 161.5,-63.12 161.5,-32.62 307.25,-32.62 307.25,-63.12"/>
<text text-anchor="start" x="169.5" y="-49.62" font-family="Helvetica,sans-Serif" font-size="10.00">Banked Memory as a</text>
<text text-anchor="middle" x="234.38" y="-38.38" font-family="Helvetica,sans-Serif" font-size="10.00"> storage of Named Resources.</text>
</a>
</g>
</g>
<!-- Node2&#45;&gt;Node1 -->
<g id="edge1" class="edge">
<title>Node2&#45;&gt;Node1</title>
<path fill="none" stroke="black" d="M137.37,-47.88C145.25,-47.88 153.26,-47.88 161.13,-47.88"/>
<polygon fill="black" stroke="black" points="137.46,-44.38 127.46,-47.88 137.46,-51.38 137.46,-44.38"/>
</g>
<!-- Node3 -->
<g id="Node000003" class="node">
<title>Node3</title>
<g id="a_Node000003"><a xlink:href="group__RESOURCES__FIND.html" target="_top" xlink:title="APIs for looking up a resource in banked memory by name.">
<polygon fill="white" stroke="#666666" points="449.62,-90.12 357.88,-90.12 357.88,-59.62 449.62,-59.62 449.62,-90.12"/>
<text text-anchor="start" x="365.88" y="-76.62" font-family="Helvetica,sans-Serif" font-size="10.00">Find a resource in</text>
<text text-anchor="middle" x="403.75" y="-65.38" font-family="Helvetica,sans-Serif" font-size="10.00"> banked memory.</text>
</a>
</g>
</g>
<!-- Node1&#45;&gt;Node3 -->
<g id="edge2" class="edge">
<title>Node1&#45;&gt;Node3</title>
<path fill="none" stroke="black" d="M318.56,-61.29C331.96,-63.46 345.39,-65.62 357.46,-67.57"/>
<polygon fill="black" stroke="black" points="319.25,-57.86 308.82,-59.72 318.14,-64.77 319.25,-57.86"/>
</g>
<!-- Node4 -->
<g id="Node000004" class="node">
<title>Node4</title>
<g id="a_Node000004"><a xlink:href="group__RESOURCES__INDIRECT__ACCESS.html" target="_top" xlink:title="APIs for indirect access to banked memory by name.">
<polygon fill="white" stroke="#666666" points="464.25,-41.75 343.25,-41.75 343.25,0 464.25,0 464.25,-41.75"/>
<text text-anchor="start" x="351.25" y="-28.25" font-family="Helvetica,sans-Serif" font-size="10.00">Reading and copying</text>
<text text-anchor="start" x="351.25" y="-17" font-family="Helvetica,sans-Serif" font-size="10.00"> from resource in banked</text>
<text text-anchor="middle" x="403.75" y="-5.75" font-family="Helvetica,sans-Serif" font-size="10.00"> memory.</text>
</a>
</g>
</g>
<!-- Node1&#45;&gt;Node4 -->
<g id="edge3" class="edge">
<title>Node1&#45;&gt;Node4</title>
<path fill="none" stroke="black" d="M318.52,-34.46C326.76,-33.13 335,-31.8 342.93,-30.52"/>
<polygon fill="black" stroke="black" points="318.14,-30.98 308.82,-36.03 319.25,-37.89 318.14,-30.98"/>
</g>
</g>
</svg>
