<?xml version="1.0" encoding="UTF-8" standalone="no"?>
<!DOCTYPE svg PUBLIC "-//W3C//DTD SVG 1.1//EN"
 "http://www.w3.org/Graphics/SVG/1.1/DTD/svg11.dtd">
<!-- Generated by graphviz version 9.0.0 (20230911.1827)
 -->
<!-- Title: Konami SCC/SCC+ sound cartridge Pages: 1 -->
<svg width="309pt" height="113pt"
 viewBox="0.00 0.00 309.25 112.88" xmlns="http://www.w3.org/2000/svg" xmlns:xlink="http://www.w3.org/1999/xlink">
<g id="graph0" class="graph" transform="scale(1 1) rotate(0) translate(4 108.88)">
<title>Konami SCC/SCC+ sound cartridge</title>
<!-- Node1 -->
<g id="Node000001" class="node">
<title>Node1</title>
<g id="a_Node000001"><a xlink:title="#include &lt;scc.h&gt;">
<polygon fill="#999999" stroke="#666666" points="129.25,-73.5 0,-73.5 0,-43 129.25,-43 129.25,-73.5"/>
<text text-anchor="start" x="8" y="-60" font-family="Helvetica,sans-Serif" font-size="10.00">Konami SCC/SCC+ sound</text>
<text text-anchor="middle" x="64.62" y="-48.75" font-family="Helvetica,sans-Serif" font-size="10.00"> cartridge</text>
</a>
</g>
</g>
<!-- Node3 -->
<g id="Node000003" class="node">
<title>Node3</title>
<g id="a_Node000003"><a xlink:href="group__SCC__BUFFER.html" target="_top" xlink:title="#include &lt;scc_buf.h&gt; Buffered access to SCC/SCC+ registers.">
<polygon fill="white" stroke="#666666" points="279.88,-104.88 186.62,-104.88 186.62,-85.62 279.88,-85.62 279.88,-104.88"/>
<text text-anchor="middle" x="233.25" y="-91.38" font-family="Helvetica,sans-Serif" font-size="10.00">SCC/SCC+ Buffer</text>
</a>
</g>
</g>
<!-- Node1&#45;&gt;Node3 -->
<g id="edge2" class="edge">
<title>Node1&#45;&gt;Node3</title>
<path fill="none" stroke="black" d="M140.43,-74.86C156.26,-78.37 172.49,-81.98 186.83,-85.16"/>
<polygon fill="black" stroke="black" points="141.57,-71.53 131.05,-72.78 140.05,-78.36 141.57,-71.53"/>
</g>
<!-- Node2 -->
<g id="Node000002" class="node">
<title>Node2</title>
<g id="a_Node000002"><a xlink:href="group__SCC__DEVICE.html" target="_top" xlink:title="#include &lt;scc.h&gt; Inspect, discover, enable/disable to access registers, of the SCC/SCC+ sound chip.">
<polygon fill="white" stroke="#666666" points="301.25,-67.88 165.25,-67.88 165.25,-48.62 301.25,-48.62 301.25,-67.88"/>
<text text-anchor="middle" x="233.25" y="-54.38" font-family="Helvetica,sans-Serif" font-size="10.00">SCC/SCC+ device interface</text>
</a>
</g>
</g>
<!-- Node1&#45;&gt;Node2 -->
<g id="edge1" class="edge">
<title>Node1&#45;&gt;Node2</title>
<path fill="none" stroke="black" d="M140.81,-58.25C148.83,-58.25 156.96,-58.25 164.88,-58.25"/>
<polygon fill="black" stroke="black" points="141.08,-54.75 131.08,-58.25 141.08,-61.75 141.08,-54.75"/>
</g>
<!-- Node4 -->
<g id="Node000004" class="node">
<title>Node4</title>
<g id="a_Node000004"><a xlink:href="group__SCC__PREDEFINED__WAVEFORMS.html" target="_top" xlink:title="#include &lt;scc_wav.h&gt; Predefined waveforms for SCC/SCC+.">
<polygon fill="white" stroke="#666666" points="289.25,-30.5 177.25,-30.5 177.25,0 289.25,0 289.25,-30.5"/>
<text text-anchor="start" x="185.25" y="-17" font-family="Helvetica,sans-Serif" font-size="10.00">Predefined waveforms</text>
<text text-anchor="middle" x="233.25" y="-5.75" font-family="Helvetica,sans-Serif" font-size="10.00"> for SCC/SCC+.</text>
</a>
</g>
</g>
<!-- Node1&#45;&gt;Node4 -->
<g id="edge3" class="edge">
<title>Node1&#45;&gt;Node4</title>
<path fill="none" stroke="black" d="M137.28,-39.76C150.55,-36.33 164.23,-32.8 176.92,-29.53"/>
<polygon fill="black" stroke="black" points="136.53,-36.34 127.72,-42.23 138.27,-43.12 136.53,-36.34"/>
</g>
</g>
</svg>
