<?xml version="1.0" encoding="UTF-8" standalone="no"?>
<!DOCTYPE svg PUBLIC "-//W3C//DTD SVG 1.1//EN"
 "http://www.w3.org/Graphics/SVG/1.1/DTD/svg11.dtd">
<!-- Generated by graphviz version 12.2.0 (20241103.1931)
 -->
<!-- Title: Text output Pages: 1 -->
<svg width="385pt" height="125pt"
 viewBox="0.00 0.00 384.50 124.88" xmlns="http://www.w3.org/2000/svg" xmlns:xlink="http://www.w3.org/1999/xlink">
<g id="graph0" class="graph" transform="scale(1 1) rotate(0) translate(4 120.88)">
<title>Text output</title>
<!-- Node1 -->
<g id="Node000001" class="node">
<title>Node1</title>
<g id="a_Node000001"><a xlink:title="#include &lt;text.h&gt;">
<polygon fill="#999999" stroke="#666666" points="224,-62.25 160,-62.25 160,-43 224,-43 224,-62.25"/>
<text text-anchor="middle" x="192" y="-48.75" font-family="Helvetica,sans-Serif" font-size="10.00">Text output</text>
</a>
</g>
</g>
<!-- Node4 -->
<g id="Node000004" class="node">
<title>Node4</title>
<g id="a_Node000004"><a xlink:href="group__CUI__COLOR.html" target="_top" xlink:title="Text color, Background color, Backdrop color.">
<polygon fill="white" stroke="#666666" points="370.5,-116.88 266,-116.88 266,-86.38 370.5,-86.38 370.5,-116.88"/>
<text text-anchor="start" x="274" y="-103.38" font-family="Helvetica,sans-Serif" font-size="10.00">Text color, Backdrop</text>
<text text-anchor="middle" x="318.25" y="-92.12" font-family="Helvetica,sans-Serif" font-size="10.00"> color</text>
</a>
</g>
</g>
<!-- Node1&#45;&gt;Node4 -->
<g id="edge3" class="edge">
<title>Node1&#45;&gt;Node4</title>
<path fill="none" stroke="black" d="M229.02,-66.83C244.25,-72.84 262.05,-79.85 277.65,-86.01"/>
<polygon fill="black" stroke="black" points="230.44,-63.63 219.85,-63.21 227.87,-70.14 230.44,-63.63"/>
</g>
<!-- Node3 -->
<g id="Node000003" class="node">
<title>Node3</title>
<g id="a_Node000003"><a xlink:href="group__CUI__CONTROL.html" target="_top" xlink:title="Cursor position, Control characters, Clear screen, etc.">
<polygon fill="white" stroke="#666666" points="376.5,-67.88 260,-67.88 260,-37.38 376.5,-37.38 376.5,-67.88"/>
<text text-anchor="start" x="268" y="-54.38" font-family="Helvetica,sans-Serif" font-size="10.00">Cursor position, Control</text>
<text text-anchor="middle" x="318.25" y="-43.12" font-family="Helvetica,sans-Serif" font-size="10.00"> characters.</text>
</a>
</g>
</g>
<!-- Node1&#45;&gt;Node3 -->
<g id="edge2" class="edge">
<title>Node1&#45;&gt;Node3</title>
<path fill="none" stroke="black" d="M235.71,-52.62C243.47,-52.62 251.67,-52.62 259.77,-52.62"/>
<polygon fill="black" stroke="black" points="235.87,-49.13 225.87,-52.63 235.87,-56.13 235.87,-49.13"/>
</g>
<!-- Node5 -->
<g id="Node000005" class="node">
<title>Node5</title>
<g id="a_Node000005"><a xlink:href="group__CUI__PRINT.html" target="_top" xlink:title="Simple print functions.">
<polygon fill="white" stroke="#666666" points="350.25,-19.25 286.25,-19.25 286.25,0 350.25,0 350.25,-19.25"/>
<text text-anchor="middle" x="318.25" y="-5.75" font-family="Helvetica,sans-Serif" font-size="10.00">Text output</text>
</a>
</g>
</g>
<!-- Node1&#45;&gt;Node5 -->
<g id="edge4" class="edge">
<title>Node1&#45;&gt;Node5</title>
<path fill="none" stroke="black" d="M231.29,-38.73C240.66,-35.38 250.68,-31.84 260,-28.62 268.51,-25.69 277.77,-22.58 286.3,-19.75"/>
<polygon fill="black" stroke="black" points="230.31,-35.37 222.08,-42.04 232.68,-41.96 230.31,-35.37"/>
</g>
<!-- Node2 -->
<g id="Node000002" class="node">
<title>Node2</title>
<g id="a_Node000002"><a xlink:href="group__LIBMSX__CUI.html" target="_top" xlink:title=" ">
<polygon fill="white" stroke="#666666" points="124,-62.25 0,-62.25 0,-43 124,-43 124,-62.25"/>
<text text-anchor="middle" x="62" y="-48.75" font-family="Helvetica,sans-Serif" font-size="10.00">Character User Interface.</text>
</a>
</g>
</g>
<!-- Node2&#45;&gt;Node1 -->
<g id="edge1" class="edge">
<title>Node2&#45;&gt;Node1</title>
<path fill="none" stroke="black" d="M135.79,-52.62C144.1,-52.62 152.22,-52.62 159.56,-52.62"/>
<polygon fill="black" stroke="black" points="135.89,-49.13 125.89,-52.63 135.89,-56.13 135.89,-49.13"/>
</g>
</g>
</svg>
