<?xml version="1.0" encoding="UTF-8" standalone="no"?>
<!DOCTYPE svg PUBLIC "-//W3C//DTD SVG 1.1//EN"
 "http://www.w3.org/Graphics/SVG/1.1/DTD/svg11.dtd">
<!-- Generated by graphviz version 7.0.4 (20221203.1631)
 -->
<!-- Title: Sprites / Meta&#45;Sprites Pages: 1 -->
<svg width="261pt" height="101pt"
 viewBox="0.00 0.00 261.00 101.00" xmlns="http://www.w3.org/2000/svg" xmlns:xlink="http://www.w3.org/1999/xlink">
<g id="graph0" class="graph" transform="scale(1 1) rotate(0) translate(4 97)">
<title>Sprites / Meta&#45;Sprites</title>
<!-- Node1 -->
<g id="node1" class="node">
<title>Node1</title>
<g id="a_node1"><a xlink:title="#include &lt;sprite.h&gt;, #include &lt;sprite_color.h&gt;, #include &lt;metasprite.h&gt;">
<polygon fill="#999999" stroke="#666666" points="110,-56 0,-56 0,-37 110,-37 110,-56"/>
<text text-anchor="middle" x="55" y="-44" font-family="Helvetica,sans-Serif" font-size="10.00">Sprites / Meta&#45;Sprites</text>
</a>
</g>
</g>
<!-- Node3 -->
<g id="node2" class="node">
<title>Node3</title>
<g id="a_node2"><a xlink:href="group__SPRITES__ATTR.html" target="_top" xlink:title="Sprite attribute table interface.">
<polygon fill="white" stroke="#666666" points="251,-93 148,-93 148,-74 251,-74 251,-93"/>
<text text-anchor="middle" x="199.5" y="-81" font-family="Helvetica,sans-Serif" font-size="10.00">Sprite attribute table</text>
</a>
</g>
</g>
<!-- Node1&#45;&gt;Node3 -->
<g id="edge2" class="edge">
<title>Node1&#45;&gt;Node3</title>
<path fill="none" stroke="black" d="M105.1,-59.25C123.13,-63.93 143.26,-69.16 160.21,-73.56"/>
<polygon fill="black" stroke="black" points="106.21,-55.92 95.65,-56.8 104.45,-62.7 106.21,-55.92"/>
</g>
<!-- Node4 -->
<g id="node3" class="node">
<title>Node4</title>
<g id="a_node3"><a xlink:href="group__SPRITES__COLOR.html" target="_top" xlink:title="Sprite color table interface.">
<polygon fill="white" stroke="#666666" points="244,-56 155,-56 155,-37 244,-37 244,-56"/>
<text text-anchor="middle" x="199.5" y="-44" font-family="Helvetica,sans-Serif" font-size="10.00">Sprite color table</text>
</a>
</g>
</g>
<!-- Node1&#45;&gt;Node4 -->
<g id="edge3" class="edge">
<title>Node1&#45;&gt;Node4</title>
<path fill="none" stroke="black" d="M121.75,-46.5C132.87,-46.5 144.16,-46.5 154.54,-46.5"/>
<polygon fill="black" stroke="black" points="121.79,-43 111.79,-46.5 121.79,-50 121.79,-43"/>
</g>
<!-- Node2 -->
<g id="node4" class="node">
<title>Node2</title>
<g id="a_node4"><a xlink:href="group__SPRITES__METASPRITE.html" target="_top" xlink:title="Meta&#45;sprite interface.">
<polygon fill="white" stroke="#666666" points="253,-19 146,-19 146,0 253,0 253,-19"/>
<text text-anchor="middle" x="199.5" y="-7" font-family="Helvetica,sans-Serif" font-size="10.00">Meta&#45;sprite interface.</text>
</a>
</g>
</g>
<!-- Node1&#45;&gt;Node2 -->
<g id="edge1" class="edge">
<title>Node1&#45;&gt;Node2</title>
<path fill="none" stroke="black" d="M105.1,-33.75C123.13,-29.07 143.26,-23.84 160.21,-19.44"/>
<polygon fill="black" stroke="black" points="104.45,-30.3 95.65,-36.2 106.21,-37.08 104.45,-30.3"/>
</g>
</g>
</svg>
