<?xml version="1.0" encoding="UTF-8" standalone="no"?>
<!DOCTYPE svg PUBLIC "-//W3C//DTD SVG 1.1//EN"
 "http://www.w3.org/Graphics/SVG/1.1/DTD/svg11.dtd">
<!-- Generated by graphviz version 12.2.0 (20241103.1931)
 -->
<!-- Title: SM2 (Sprite Mode 2) Animated Color Sprites. Pages: 1 -->
<svg width="445pt" height="174pt"
 viewBox="0.00 0.00 445.25 173.50" xmlns="http://www.w3.org/2000/svg" xmlns:xlink="http://www.w3.org/1999/xlink">
<g id="graph0" class="graph" transform="scale(1 1) rotate(0) translate(4 169.5)">
<title>SM2 (Sprite Mode 2) Animated Color Sprites.</title>
<!-- Node2 -->
<g id="Node000002" class="node">
<title>Node2</title>
<g id="a_Node000002"><a xlink:href="group__LIBMSX__GRAPHICS.html" target="_top" xlink:title=" ">
<polygon fill="white" stroke="#666666" points="128.5,-94.88 0,-94.88 0,-75.62 128.5,-75.62 128.5,-94.88"/>
<text text-anchor="middle" x="64.25" y="-81.38" font-family="Helvetica,sans-Serif" font-size="10.00">Video / Display / Graphics.</text>
</a>
</g>
</g>
<!-- Node1 -->
<g id="Node000001" class="node">
<title>Node1</title>
<g id="a_Node000001"><a xlink:title="SM2 module provides APIs for displaying animated multicolor sprites.">
<polygon fill="#999999" stroke="#666666" points="284,-100.5 164.5,-100.5 164.5,-70 284,-70 284,-100.5"/>
<text text-anchor="start" x="172.5" y="-87" font-family="Helvetica,sans-Serif" font-size="10.00">SM2 (Sprite Mode 2)</text>
<text text-anchor="middle" x="224.25" y="-75.75" font-family="Helvetica,sans-Serif" font-size="10.00"> Animated Color Sprites.</text>
</a>
</g>
</g>
<!-- Node2&#45;&gt;Node1 -->
<g id="edge1" class="edge">
<title>Node2&#45;&gt;Node1</title>
<path fill="none" stroke="black" d="M140.02,-85.25C148.15,-85.25 156.33,-85.25 164.24,-85.25"/>
<polygon fill="black" stroke="black" points="140.12,-81.75 130.12,-85.25 140.12,-88.75 140.12,-81.75"/>
</g>
<!-- Node5 -->
<g id="Node000005" class="node">
<title>Node5</title>
<g id="a_Node000005"><a xlink:href="group__SM2__ANIMATION.html" target="_top" xlink:title="Updates animation state of Animated Color Sprites.">
<polygon fill="white" stroke="#666666" points="437.25,-165.5 320,-165.5 320,-135 437.25,-135 437.25,-165.5"/>
<text text-anchor="start" x="328" y="-152" font-family="Helvetica,sans-Serif" font-size="10.00">SM2 updates animation</text>
<text text-anchor="middle" x="378.62" y="-140.75" font-family="Helvetica,sans-Serif" font-size="10.00"> state.</text>
</a>
</g>
</g>
<!-- Node1&#45;&gt;Node5 -->
<g id="edge4" class="edge">
<title>Node1&#45;&gt;Node5</title>
<path fill="none" stroke="black" d="M271.52,-105.42C286.92,-112.1 304.18,-119.53 320,-126.25 326.38,-128.96 333.18,-131.82 339.78,-134.57"/>
<polygon fill="black" stroke="black" points="273.15,-102.31 262.58,-101.54 270.36,-108.74 273.15,-102.31"/>
</g>
<!-- Node3 -->
<g id="Node000003" class="node">
<title>Node3</title>
<g id="a_Node000003"><a xlink:href="group__SM2__DATATYPES.html" target="_top" xlink:title="Sprite, Sprite&#45;sheet, Frame, Cel, and FrameTag.">
<polygon fill="white" stroke="#666666" points="422.25,-116.88 335,-116.88 335,-97.62 422.25,-97.62 422.25,-116.88"/>
<text text-anchor="middle" x="378.62" y="-103.38" font-family="Helvetica,sans-Serif" font-size="10.00">SM2 Data Types</text>
</a>
</g>
</g>
<!-- Node1&#45;&gt;Node3 -->
<g id="edge2" class="edge">
<title>Node1&#45;&gt;Node3</title>
<path fill="none" stroke="black" d="M295.4,-95.38C308.89,-97.33 322.64,-99.31 334.93,-101.09"/>
<polygon fill="black" stroke="black" points="296.06,-91.94 285.66,-93.97 295.06,-98.87 296.06,-91.94"/>
</g>
<!-- Node6 -->
<g id="Node000006" class="node">
<title>Node6</title>
<g id="a_Node000006"><a xlink:href="group__SM2__DISPLAY.html" target="_top" xlink:title="Display Animated Color Sprites.">
<polygon fill="white" stroke="#666666" points="434.62,-79.5 322.62,-79.5 322.62,-49 434.62,-49 434.62,-79.5"/>
<text text-anchor="start" x="330.62" y="-66" font-family="Helvetica,sans-Serif" font-size="10.00">SM2 display Animated</text>
<text text-anchor="middle" x="378.62" y="-54.75" font-family="Helvetica,sans-Serif" font-size="10.00"> Color Sprites.</text>
</a>
</g>
</g>
<!-- Node1&#45;&gt;Node6 -->
<g id="edge5" class="edge">
<title>Node1&#45;&gt;Node6</title>
<path fill="none" stroke="black" d="M295.49,-75.57C304.5,-74.33 313.63,-73.07 322.37,-71.87"/>
<polygon fill="black" stroke="black" points="295.09,-72.09 285.66,-76.92 296.05,-79.03 295.09,-72.09"/>
</g>
<!-- Node4 -->
<g id="Node000004" class="node">
<title>Node4</title>
<g id="a_Node000004"><a xlink:href="group__SM2__INIT.html" target="_top" xlink:title="Initialization for SM2 module.">
<polygon fill="white" stroke="#666666" points="423,-30.5 334.25,-30.5 334.25,0 423,0 423,-30.5"/>
<text text-anchor="start" x="342.25" y="-17" font-family="Helvetica,sans-Serif" font-size="10.00">SM2 initialization</text>
<text text-anchor="middle" x="378.62" y="-5.75" font-family="Helvetica,sans-Serif" font-size="10.00"> for SM2 module.</text>
</a>
</g>
</g>
<!-- Node1&#45;&gt;Node4 -->
<g id="edge3" class="edge">
<title>Node1&#45;&gt;Node4</title>
<path fill="none" stroke="black" d="M267.86,-64.64C284.12,-56.87 302.86,-48.03 320,-40.25 326.75,-37.18 333.98,-33.98 340.96,-30.93"/>
<polygon fill="black" stroke="black" points="266.44,-61.43 258.94,-68.91 269.47,-67.74 266.44,-61.43"/>
</g>
</g>
</svg>
