<?xml version="1.0" encoding="UTF-8" standalone="no"?>
<!DOCTYPE svg PUBLIC "-//W3C//DTD SVG 1.1//EN"
 "http://www.w3.org/Graphics/SVG/1.1/DTD/svg11.dtd">
<!-- Generated by graphviz version 12.2.0 (20241103.1931)
 -->
<!-- Title: Audio/Sound drivers. Pages: 1 -->
<svg width="276pt" height="113pt"
 viewBox="0.00 0.00 275.50 112.88" xmlns="http://www.w3.org/2000/svg" xmlns:xlink="http://www.w3.org/1999/xlink">
<g id="graph0" class="graph" transform="scale(1 1) rotate(0) translate(4 108.88)">
<title>Audio/Sound drivers.</title>
<!-- Node2 -->
<g id="Node000002" class="node">
<title>Node2</title>
<g id="a_Node000002"><a xlink:href="group__AUDIO.html" target="_top" xlink:title="#include &lt;audio.h&gt;">
<polygon fill="white" stroke="#666666" points="267.5,-104.88 141.25,-104.88 141.25,-85.62 267.5,-85.62 267.5,-104.88"/>
<text text-anchor="middle" x="204.38" y="-91.38" font-family="Helvetica,sans-Serif" font-size="10.00">The libmsx audio replayer.</text>
</a>
</g>
</g>
<!-- Node1 -->
<g id="Node000001" class="node">
<title>Node1</title>
<g id="a_Node000001"><a xlink:title=" ">
<polygon fill="#999999" stroke="#666666" points="105.25,-67.88 0,-67.88 0,-48.62 105.25,-48.62 105.25,-67.88"/>
<text text-anchor="middle" x="52.62" y="-54.38" font-family="Helvetica,sans-Serif" font-size="10.00">Audio/Sound drivers.</text>
</a>
</g>
</g>
<!-- Node1&#45;&gt;Node2 -->
<g id="edge1" class="edge">
<title>Node1&#45;&gt;Node2</title>
<path fill="none" stroke="black" d="M105.54,-71.08C124.18,-75.68 144.93,-80.81 162.5,-85.15"/>
<polygon fill="black" stroke="black" points="106.56,-67.72 96.01,-68.72 104.88,-74.52 106.56,-67.72"/>
</g>
<!-- Node3 -->
<g id="Node000003" class="node">
<title>Node3</title>
<g id="a_Node000003"><a xlink:href="group__NDP.html" target="_top" xlink:title="#include &lt;NDP.h&gt; NDP &#45; PSG Driver for MSX (libmsx version).">
<polygon fill="white" stroke="#666666" points="265.62,-67.88 143.12,-67.88 143.12,-48.62 265.62,-48.62 265.62,-67.88"/>
<text text-anchor="middle" x="204.38" y="-54.38" font-family="Helvetica,sans-Serif" font-size="10.00">NDP &#45; NDP sound driver.</text>
</a>
</g>
</g>
<!-- Node1&#45;&gt;Node3 -->
<g id="edge2" class="edge">
<title>Node1&#45;&gt;Node3</title>
<path fill="none" stroke="black" d="M117.04,-58.25C125.56,-58.25 134.29,-58.25 142.77,-58.25"/>
<polygon fill="black" stroke="black" points="117.09,-54.75 107.09,-58.25 117.09,-61.75 117.09,-54.75"/>
</g>
<!-- Node4 -->
<g id="Node000004" class="node">
<title>Node4</title>
<g id="a_Node000004"><a xlink:href="group__SOUND__OLD.html" target="_top" xlink:title="#include &lt;sound.h&gt;, #include &lt;sound_eg.h&gt;">
<polygon fill="white" stroke="#666666" points="263.38,-30.5 145.38,-30.5 145.38,0 263.38,0 263.38,-30.5"/>
<text text-anchor="start" x="153.38" y="-17" font-family="Helvetica,sans-Serif" font-size="10.00">Sound &#45; Old PSG sound</text>
<text text-anchor="middle" x="204.38" y="-5.75" font-family="Helvetica,sans-Serif" font-size="10.00"> driver</text>
</a>
</g>
</g>
<!-- Node1&#45;&gt;Node4 -->
<g id="edge3" class="edge">
<title>Node1&#45;&gt;Node4</title>
<path fill="none" stroke="black" d="M99.61,-45.05C115.07,-40.61 132.48,-35.61 148.56,-30.99"/>
<polygon fill="black" stroke="black" points="98.84,-41.63 90.19,-47.75 100.77,-48.35 98.84,-41.63"/>
</g>
</g>
</svg>
