<?xml version="1.0" encoding="UTF-8" standalone="no"?>
<!DOCTYPE svg PUBLIC "-//W3C//DTD SVG 1.1//EN"
 "http://www.w3.org/Graphics/SVG/1.1/DTD/svg11.dtd">
<!-- Generated by graphviz version 12.2.0 (20241103.1931)
 -->
<!-- Title: NDP &#45; NDP sound driver. Pages: 1 -->
<svg width="420pt" height="88pt"
 viewBox="0.00 0.00 419.75 87.50" xmlns="http://www.w3.org/2000/svg" xmlns:xlink="http://www.w3.org/1999/xlink">
<g id="graph0" class="graph" transform="scale(1 1) rotate(0) translate(4 83.5)">
<title>NDP &#45; NDP sound driver.</title>
<!-- Node2 -->
<g id="Node000002" class="node">
<title>Node2</title>
<g id="a_Node000002"><a xlink:href="group__LIBMSX__REPLAYER.html" target="_top" xlink:title=" ">
<polygon fill="white" stroke="#666666" points="105.25,-48.88 0,-48.88 0,-29.62 105.25,-29.62 105.25,-48.88"/>
<text text-anchor="middle" x="52.62" y="-35.38" font-family="Helvetica,sans-Serif" font-size="10.00">Audio/Sound drivers.</text>
</a>
</g>
</g>
<!-- Node1 -->
<g id="Node000001" class="node">
<title>Node1</title>
<g id="a_Node000001"><a xlink:title="#include &lt;NDP.h&gt; NDP &#45; PSG Driver for MSX (libmsx version).">
<polygon fill="#999999" stroke="#666666" points="263.75,-48.88 141.25,-48.88 141.25,-29.62 263.75,-29.62 263.75,-48.88"/>
<text text-anchor="middle" x="202.5" y="-35.38" font-family="Helvetica,sans-Serif" font-size="10.00">NDP &#45; NDP sound driver.</text>
</a>
</g>
</g>
<!-- Node2&#45;&gt;Node1 -->
<g id="edge1" class="edge">
<title>Node2&#45;&gt;Node1</title>
<path fill="none" stroke="black" d="M116.59,-39.25C124.66,-39.25 132.9,-39.25 140.93,-39.25"/>
<polygon fill="black" stroke="black" points="116.86,-35.75 106.86,-39.25 116.86,-42.75 116.86,-35.75"/>
</g>
<!-- Node3 -->
<g id="Node000003" class="node">
<title>Node3</title>
<g id="a_Node000003"><a xlink:href="group__NDP__REPLAYER.html" target="_top" xlink:title="The replayer APIs of the NDP sound driver.">
<polygon fill="white" stroke="#666666" points="411.75,-79.5 299.75,-79.5 299.75,-49 411.75,-49 411.75,-79.5"/>
<text text-anchor="start" x="307.75" y="-66" font-family="Helvetica,sans-Serif" font-size="10.00">The replayer APIs of</text>
<text text-anchor="middle" x="355.75" y="-54.75" font-family="Helvetica,sans-Serif" font-size="10.00"> the NDP sound driver.</text>
</a>
</g>
</g>
<!-- Node1&#45;&gt;Node3 -->
<g id="edge2" class="edge">
<title>Node1&#45;&gt;Node3</title>
<path fill="none" stroke="black" d="M275.48,-51.15C283.54,-52.48 291.66,-53.82 299.47,-55.11"/>
<polygon fill="black" stroke="black" points="276.08,-47.7 265.64,-49.52 274.94,-54.61 276.08,-47.7"/>
</g>
<!-- Node4 -->
<g id="Node000004" class="node">
<title>Node4</title>
<g id="a_Node000004"><a xlink:href="group__NDP__SONG.html" target="_top" xlink:title=" ">
<polygon fill="white" stroke="#666666" points="411.38,-30.5 300.12,-30.5 300.12,0 411.38,0 411.38,-30.5"/>
<text text-anchor="start" x="308.12" y="-17" font-family="Helvetica,sans-Serif" font-size="10.00">Open NDP song data,</text>
<text text-anchor="middle" x="355.75" y="-5.75" font-family="Helvetica,sans-Serif" font-size="10.00"> and set it in the driver.</text>
</a>
</g>
</g>
<!-- Node1&#45;&gt;Node4 -->
<g id="edge3" class="edge">
<title>Node1&#45;&gt;Node4</title>
<path fill="none" stroke="black" d="M275.35,-27.85C283.63,-26.54 291.96,-25.21 299.96,-23.94"/>
<polygon fill="black" stroke="black" points="274.97,-24.37 265.64,-29.39 276.07,-31.28 274.97,-24.37"/>
</g>
</g>
</svg>
