<?xml version="1.0" encoding="UTF-8" standalone="no"?>
<!DOCTYPE svg PUBLIC "-//W3C//DTD SVG 1.1//EN"
 "http://www.w3.org/Graphics/SVG/1.1/DTD/svg11.dtd">
<!-- Generated by graphviz version 12.2.0 (20241103.1931)
 -->
<!-- Title: Sound &#45; Old PSG sound driver Pages: 1 -->
<svg width="466pt" height="64pt"
 viewBox="0.00 0.00 466.25 64.25" xmlns="http://www.w3.org/2000/svg" xmlns:xlink="http://www.w3.org/1999/xlink">
<g id="graph0" class="graph" transform="scale(1 1) rotate(0) translate(4 60.25)">
<title>Sound &#45; Old PSG sound driver</title>
<!-- Node2 -->
<g id="Node000002" class="node">
<title>Node2</title>
<g id="a_Node000002"><a xlink:href="group__LIBMSX__REPLAYER.html" target="_top" xlink:title=" ">
<polygon fill="white" stroke="#666666" points="105.25,-37.25 0,-37.25 0,-18 105.25,-18 105.25,-37.25"/>
<text text-anchor="middle" x="52.62" y="-23.75" font-family="Helvetica,sans-Serif" font-size="10.00">Audio/Sound drivers.</text>
</a>
</g>
</g>
<!-- Node1 -->
<g id="Node000001" class="node">
<title>Node1</title>
<g id="a_Node000001"><a xlink:title="#include &lt;sound.h&gt;, #include &lt;sound_eg.h&gt;">
<polygon fill="#999999" stroke="#666666" points="259.25,-42.88 141.25,-42.88 141.25,-12.37 259.25,-12.37 259.25,-42.88"/>
<text text-anchor="start" x="149.25" y="-29.38" font-family="Helvetica,sans-Serif" font-size="10.00">Sound &#45; Old PSG sound</text>
<text text-anchor="middle" x="200.25" y="-18.12" font-family="Helvetica,sans-Serif" font-size="10.00"> driver</text>
</a>
</g>
</g>
<!-- Node2&#45;&gt;Node1 -->
<g id="edge1" class="edge">
<title>Node2&#45;&gt;Node1</title>
<path fill="none" stroke="black" d="M116.65,-27.62C124.73,-27.62 132.97,-27.62 140.97,-27.62"/>
<polygon fill="black" stroke="black" points="116.89,-24.13 106.89,-27.63 116.89,-31.13 116.89,-24.13"/>
</g>
<!-- Node3 -->
<g id="Node000003" class="node">
<title>Node3</title>
<g id="a_Node000003"><a xlink:href="group__SOUND__OLD__API.html" target="_top" xlink:title="Old PSG sound driver APIs.">
<polygon fill="white" stroke="#666666" points="443.25,-56.25 310.25,-56.25 310.25,-37 443.25,-37 443.25,-56.25"/>
<text text-anchor="middle" x="376.75" y="-42.75" font-family="Helvetica,sans-Serif" font-size="10.00">Old PSG sound driver APIs</text>
</a>
</g>
</g>
<!-- Node1&#45;&gt;Node3 -->
<g id="edge2" class="edge">
<title>Node1&#45;&gt;Node3</title>
<path fill="none" stroke="black" d="M270.54,-35.17C283.47,-36.58 296.94,-38.04 309.76,-39.44"/>
<polygon fill="black" stroke="black" points="271.18,-31.72 260.86,-34.12 270.42,-38.68 271.18,-31.72"/>
</g>
<!-- Node4 -->
<g id="Node000004" class="node">
<title>Node4</title>
<g id="a_Node000004"><a xlink:href="group__SOUND__OLD__EG__API.html" target="_top" xlink:title="Software envelope generator interface">
<polygon fill="white" stroke="#666666" points="458.25,-19.25 295.25,-19.25 295.25,0 458.25,0 458.25,-19.25"/>
<text text-anchor="middle" x="376.75" y="-5.75" font-family="Helvetica,sans-Serif" font-size="10.00">Software envelope generator APIs</text>
</a>
</g>
</g>
<!-- Node1&#45;&gt;Node4 -->
<g id="edge3" class="edge">
<title>Node1&#45;&gt;Node4</title>
<path fill="none" stroke="black" d="M270.79,-20.45C278.71,-19.63 286.84,-18.8 294.9,-17.96"/>
<polygon fill="black" stroke="black" points="270.45,-16.97 260.86,-21.48 271.17,-23.93 270.45,-16.97"/>
</g>
</g>
</svg>
