<?xml version="1.0" encoding="UTF-8" standalone="no"?>
<!DOCTYPE svg PUBLIC "-//W3C//DTD SVG 1.1//EN"
 "http://www.w3.org/Graphics/SVG/1.1/DTD/svg11.dtd">
<!-- Generated by graphviz version 9.0.0 (20230911.1827)
 -->
<!-- Title: Interrupts Pages: 1 -->
<svg width="194pt" height="138pt"
 viewBox="0.00 0.00 193.75 138.25" xmlns="http://www.w3.org/2000/svg" xmlns:xlink="http://www.w3.org/1999/xlink">
<g id="graph0" class="graph" transform="scale(1 1) rotate(0) translate(4 134.25)">
<title>Interrupts</title>
<!-- Node1 -->
<g id="Node000001" class="node">
<title>Node1</title>
<g id="a_Node000001"><a xlink:title="#include &lt;interrupt.h&gt;">
<polygon fill="#999999" stroke="#666666" points="57.25,-74.25 0,-74.25 0,-55 57.25,-55 57.25,-74.25"/>
<text text-anchor="middle" x="28.62" y="-60.75" font-family="Helvetica,sans-Serif" font-size="10.00">Interrupts</text>
</a>
</g>
</g>
<!-- Node2 -->
<g id="Node000002" class="node">
<title>Node2</title>
<g id="a_Node000002"><a xlink:href="group__INTERRUPT__AWAIT.html" target="_top" xlink:title="Await interrupts.">
<polygon fill="white" stroke="#666666" points="181.25,-130.25 97.75,-130.25 97.75,-111 181.25,-111 181.25,-130.25"/>
<text text-anchor="middle" x="139.5" y="-116.75" font-family="Helvetica,sans-Serif" font-size="10.00">Await interrupts</text>
</a>
</g>
</g>
<!-- Node1&#45;&gt;Node2 -->
<g id="edge1" class="edge">
<title>Node1&#45;&gt;Node2</title>
<path fill="none" stroke="black" d="M54.35,-80.65C65.93,-87.82 80.04,-96.11 93.25,-102.62 99.01,-105.47 105.34,-108.21 111.39,-110.66"/>
<polygon fill="black" stroke="black" points="56.53,-77.89 46.21,-75.52 52.8,-83.81 56.53,-77.89"/>
</g>
<!-- Node3 -->
<g id="Node000003" class="node">
<title>Node3</title>
<g id="a_Node000003"><a xlink:href="group__INTERRUPT__HANDLER.html" target="_top" xlink:title="Pluggable interrupts handler interface.">
<polygon fill="white" stroke="#666666" points="185,-93.25 94,-93.25 94,-74 185,-74 185,-93.25"/>
<text text-anchor="middle" x="139.5" y="-79.75" font-family="Helvetica,sans-Serif" font-size="10.00">Interrupts handler</text>
</a>
</g>
</g>
<!-- Node1&#45;&gt;Node3 -->
<g id="edge2" class="edge">
<title>Node1&#45;&gt;Node3</title>
<path fill="none" stroke="black" d="M68.97,-71.49C76.99,-72.89 85.47,-74.37 93.66,-75.8"/>
<polygon fill="black" stroke="black" points="69.61,-68.05 59.15,-69.78 68.4,-74.95 69.61,-68.05"/>
</g>
<!-- Node4 -->
<g id="Node000004" class="node">
<title>Node4</title>
<g id="a_Node000004"><a xlink:href="group__INTERRUPT__SLEEP.html" target="_top" xlink:title="Sleep functions.">
<polygon fill="white" stroke="#666666" points="159.88,-56.25 119.12,-56.25 119.12,-37 159.88,-37 159.88,-56.25"/>
<text text-anchor="middle" x="139.5" y="-42.75" font-family="Helvetica,sans-Serif" font-size="10.00">Sleep</text>
</a>
</g>
</g>
<!-- Node1&#45;&gt;Node4 -->
<g id="edge3" class="edge">
<title>Node1&#45;&gt;Node4</title>
<path fill="none" stroke="black" d="M68.95,-58.12C85.88,-55.32 104.93,-52.18 118.8,-49.88"/>
<polygon fill="black" stroke="black" points="68.45,-54.66 59.16,-59.74 69.59,-61.56 68.45,-54.66"/>
</g>
<!-- Node5 -->
<g id="Node000005" class="node">
<title>Node5</title>
<g id="a_Node000005"><a xlink:href="group__INTERRUPT__STATE.html" target="_top" xlink:title="Get state of interrupts.">
<polygon fill="white" stroke="#666666" points="185.75,-19.25 93.25,-19.25 93.25,0 185.75,0 185.75,-19.25"/>
<text text-anchor="middle" x="139.5" y="-5.75" font-family="Helvetica,sans-Serif" font-size="10.00">State of interrupts</text>
</a>
</g>
</g>
<!-- Node1&#45;&gt;Node5 -->
<g id="edge4" class="edge">
<title>Node1&#45;&gt;Node5</title>
<path fill="none" stroke="black" d="M55.22,-48.58C66.65,-41.72 80.41,-33.87 93.25,-27.62 99.03,-24.81 105.36,-22.09 111.42,-19.64"/>
<polygon fill="black" stroke="black" points="53.48,-45.54 46.77,-53.73 57.13,-51.51 53.48,-45.54"/>
</g>
</g>
</svg>
