<?xml version="1.0" encoding="UTF-8" standalone="no"?>
<!DOCTYPE svg PUBLIC "-//W3C//DTD SVG 1.1//EN"
 "http://www.w3.org/Graphics/SVG/1.1/DTD/svg11.dtd">
<!-- Generated by graphviz version 12.2.0 (20241103.1931)
 -->
<!-- Title: Video / Display / Graphics. Pages: 1 -->
<svg width="307pt" height="199pt"
 viewBox="0.00 0.00 307.00 199.25" xmlns="http://www.w3.org/2000/svg" xmlns:xlink="http://www.w3.org/1999/xlink">
<g id="graph0" class="graph" transform="scale(1 1) rotate(0) translate(4 195.25)">
<title>Video / Display / Graphics.</title>
<!-- Node1 -->
<g id="Node000001" class="node">
<title>Node1</title>
<g id="a_Node000001"><a xlink:title=" ">
<polygon fill="#999999" stroke="#666666" points="128.5,-105.25 0,-105.25 0,-86 128.5,-86 128.5,-105.25"/>
<text text-anchor="middle" x="64.25" y="-91.75" font-family="Helvetica,sans-Serif" font-size="10.00">Video / Display / Graphics.</text>
</a>
</g>
</g>
<!-- Node2 -->
<g id="Node000002" class="node">
<title>Node2</title>
<g id="a_Node000002"><a xlink:href="group__SCREEN.html" target="_top" xlink:title="#include &lt;screen.h&gt;">
<polygon fill="white" stroke="#666666" points="299,-191.25 164.5,-191.25 164.5,-172 299,-172 299,-191.25"/>
<text text-anchor="middle" x="231.75" y="-177.75" font-family="Helvetica,sans-Serif" font-size="10.00">SCREEN mode initialization</text>
</a>
</g>
</g>
<!-- Node1&#45;&gt;Node2 -->
<g id="edge1" class="edge">
<title>Node1&#45;&gt;Node2</title>
<path fill="none" stroke="black" d="M86.15,-112.62C105.47,-127.6 135.49,-149.09 164.5,-162.62 171.87,-166.07 180,-169.02 187.97,-171.5"/>
<polygon fill="black" stroke="black" points="88.54,-110.04 78.52,-106.59 84.2,-115.53 88.54,-110.04"/>
</g>
<!-- Node3 -->
<g id="Node000003" class="node">
<title>Node3</title>
<g id="a_Node000003"><a xlink:href="group__SM2.html" target="_top" xlink:title="SM2 module provides APIs for displaying animated multicolor sprites.">
<polygon fill="white" stroke="#666666" points="291.5,-153.88 172,-153.88 172,-123.38 291.5,-123.38 291.5,-153.88"/>
<text text-anchor="start" x="180" y="-140.38" font-family="Helvetica,sans-Serif" font-size="10.00">SM2 (Sprite Mode 2)</text>
<text text-anchor="middle" x="231.75" y="-129.12" font-family="Helvetica,sans-Serif" font-size="10.00"> Animated Color Sprites.</text>
</a>
</g>
</g>
<!-- Node1&#45;&gt;Node3 -->
<g id="edge2" class="edge">
<title>Node1&#45;&gt;Node3</title>
<path fill="none" stroke="black" d="M115.1,-108.58C132.94,-113.21 153.23,-118.48 171.77,-123.3"/>
<polygon fill="black" stroke="black" points="116.08,-105.21 105.52,-106.09 114.32,-111.99 116.08,-105.21"/>
</g>
<!-- Node4 -->
<g id="Node000004" class="node">
<title>Node4</title>
<g id="a_Node000004"><a xlink:href="group__SPRITES.html" target="_top" xlink:title="#include &lt;sprite.h&gt;, #include &lt;sprite_color.h&gt;, #include &lt;metasprite.h&gt;">
<polygon fill="white" stroke="#666666" points="286.62,-105.25 176.88,-105.25 176.88,-86 286.62,-86 286.62,-105.25"/>
<text text-anchor="middle" x="231.75" y="-91.75" font-family="Helvetica,sans-Serif" font-size="10.00">Sprites / Meta&#45;Sprites</text>
</a>
</g>
</g>
<!-- Node1&#45;&gt;Node4 -->
<g id="edge3" class="edge">
<title>Node1&#45;&gt;Node4</title>
<path fill="none" stroke="black" d="M139.98,-95.62C152.31,-95.62 164.87,-95.62 176.57,-95.62"/>
<polygon fill="black" stroke="black" points="140.28,-92.13 130.28,-95.63 140.28,-99.13 140.28,-92.13"/>
</g>
<!-- Node5 -->
<g id="Node000005" class="node">
<title>Node5</title>
<g id="a_Node000005"><a xlink:href="group__VDP.html" target="_top" xlink:title="#include &lt;vdp.h&gt;">
<polygon fill="white" stroke="#666666" points="282.88,-67.88 180.62,-67.88 180.62,-37.38 282.88,-37.38 282.88,-67.88"/>
<text text-anchor="start" x="188.62" y="-54.38" font-family="Helvetica,sans-Serif" font-size="10.00">VDP &#45; Video Display</text>
<text text-anchor="middle" x="231.75" y="-43.12" font-family="Helvetica,sans-Serif" font-size="10.00"> Processor</text>
</a>
</g>
</g>
<!-- Node1&#45;&gt;Node5 -->
<g id="edge4" class="edge">
<title>Node1&#45;&gt;Node5</title>
<path fill="none" stroke="black" d="M115.13,-82.67C135.74,-77.31 159.59,-71.11 180.27,-65.74"/>
<polygon fill="black" stroke="black" points="114.32,-79.26 105.52,-85.16 116.08,-86.04 114.32,-79.26"/>
</g>
<!-- Node6 -->
<g id="Node000006" class="node">
<title>Node6</title>
<g id="a_Node000006"><a xlink:href="group__VMEM.html" target="_top" xlink:title="#include &lt;vmem.h&gt;">
<polygon fill="white" stroke="#666666" points="282.12,-19.25 181.38,-19.25 181.38,0 282.12,0 282.12,-19.25"/>
<text text-anchor="middle" x="231.75" y="-5.75" font-family="Helvetica,sans-Serif" font-size="10.00">VRAM &#45; Video RAM</text>
</a>
</g>
</g>
<!-- Node1&#45;&gt;Node6 -->
<g id="edge5" class="edge">
<title>Node1&#45;&gt;Node6</title>
<path fill="none" stroke="black" d="M86.15,-78.63C105.47,-63.65 135.49,-42.16 164.5,-28.62 171.87,-25.18 180,-22.23 187.97,-19.75"/>
<polygon fill="black" stroke="black" points="84.2,-75.72 78.52,-84.66 88.54,-81.21 84.2,-75.72"/>
</g>
</g>
</svg>
