<?xml version="1.0" encoding="UTF-8" standalone="no"?>
<!DOCTYPE svg PUBLIC "-//W3C//DTD SVG 1.1//EN"
 "http://www.w3.org/Graphics/SVG/1.1/DTD/svg11.dtd">
<!-- Generated by graphviz version 12.2.0 (20241103.1931)
 -->
<!-- Title: Sound &#45; Old PSG sound driver Pages: 1 -->
<svg width="485pt" height="64pt"
 viewBox="0.00 0.00 485.00 64.25" xmlns="http://www.w3.org/2000/svg" xmlns:xlink="http://www.w3.org/1999/xlink">
<g id="graph0" class="graph" transform="scale(1 1) rotate(0) translate(4 60.25)">
<title>Sound &#45; Old PSG sound driver</title>
<!-- Node2 -->
<g id="Node000002" class="node">
<title>Node2</title>
<g id="a_Node000002"><a xlink:href="group__LIBMSX__REPLAYER.html" target="_top" xlink:title=" ">
<polygon fill="white" stroke="#666666" points="124,-37.25 0,-37.25 0,-18 124,-18 124,-37.25"/>
<text text-anchor="middle" x="62" y="-23.75" font-family="Helvetica,sans-Serif" font-size="10.00">Sound drivers / replayers.</text>
</a>
</g>
</g>
<!-- Node1 -->
<g id="Node000001" class="node">
<title>Node1</title>
<g id="a_Node000001"><a xlink:title="#include &lt;sound.h&gt;, #include &lt;sound_eg.h&gt;">
<polygon fill="#999999" stroke="#666666" points="278,-42.88 160,-42.88 160,-12.37 278,-12.37 278,-42.88"/>
<text text-anchor="start" x="168" y="-29.38" font-family="Helvetica,sans-Serif" font-size="10.00">Sound &#45; Old PSG sound</text>
<text text-anchor="middle" x="219" y="-18.12" font-family="Helvetica,sans-Serif" font-size="10.00"> driver</text>
</a>
</g>
</g>
<!-- Node2&#45;&gt;Node1 -->
<g id="edge1" class="edge">
<title>Node2&#45;&gt;Node1</title>
<path fill="none" stroke="black" d="M135.6,-27.62C143.69,-27.62 151.84,-27.62 159.71,-27.62"/>
<polygon fill="black" stroke="black" points="135.77,-24.13 125.77,-27.63 135.77,-31.13 135.77,-24.13"/>
</g>
<!-- Node3 -->
<g id="Node000003" class="node">
<title>Node3</title>
<g id="a_Node000003"><a xlink:href="group__SOUND__OLD__API.html" target="_top" xlink:title="Old PSG sound driver APIs.">
<polygon fill="white" stroke="#666666" points="462,-56.25 329,-56.25 329,-37 462,-37 462,-56.25"/>
<text text-anchor="middle" x="395.5" y="-42.75" font-family="Helvetica,sans-Serif" font-size="10.00">Old PSG sound driver APIs</text>
</a>
</g>
</g>
<!-- Node1&#45;&gt;Node3 -->
<g id="edge2" class="edge">
<title>Node1&#45;&gt;Node3</title>
<path fill="none" stroke="black" d="M289.29,-35.17C302.22,-36.58 315.69,-38.04 328.51,-39.44"/>
<polygon fill="black" stroke="black" points="289.93,-31.72 279.61,-34.12 289.17,-38.68 289.93,-31.72"/>
</g>
<!-- Node4 -->
<g id="Node000004" class="node">
<title>Node4</title>
<g id="a_Node000004"><a xlink:href="group__SOUND__OLD__EG__API.html" target="_top" xlink:title="Software envelope generator interface">
<polygon fill="white" stroke="#666666" points="477,-19.25 314,-19.25 314,0 477,0 477,-19.25"/>
<text text-anchor="middle" x="395.5" y="-5.75" font-family="Helvetica,sans-Serif" font-size="10.00">Software envelope generator APIs</text>
</a>
</g>
</g>
<!-- Node1&#45;&gt;Node4 -->
<g id="edge3" class="edge">
<title>Node1&#45;&gt;Node4</title>
<path fill="none" stroke="black" d="M289.54,-20.45C297.46,-19.63 305.59,-18.8 313.65,-17.96"/>
<polygon fill="black" stroke="black" points="289.2,-16.97 279.61,-21.48 289.92,-23.93 289.2,-16.97"/>
</g>
</g>
</svg>
