<?xml version="1.0" encoding="UTF-8" standalone="no"?>
<!DOCTYPE svg PUBLIC "-//W3C//DTD SVG 1.1//EN"
 "http://www.w3.org/Graphics/SVG/1.1/DTD/svg11.dtd">
<!-- Generated by graphviz version 12.2.0 (20241103.1931)
 -->
<!-- Title: Teletype/console device. Pages: 1 -->
<svg width="447pt" height="39pt"
 viewBox="0.00 0.00 446.75 38.50" xmlns="http://www.w3.org/2000/svg" xmlns:xlink="http://www.w3.org/1999/xlink">
<g id="graph0" class="graph" transform="scale(1 1) rotate(0) translate(4 34.5)">
<title>Teletype/console device.</title>
<!-- Node2 -->
<g id="Node000002" class="node">
<title>Node2</title>
<g id="a_Node000002"><a xlink:href="group__LIBMSX__CUI.html" target="_top" xlink:title=" ">
<polygon fill="white" stroke="#666666" points="124,-24.88 0,-24.88 0,-5.63 124,-5.63 124,-24.88"/>
<text text-anchor="middle" x="62" y="-11.38" font-family="Helvetica,sans-Serif" font-size="10.00">Character User Interface.</text>
</a>
</g>
</g>
<!-- Node1 -->
<g id="Node000001" class="node">
<title>Node1</title>
<g id="a_Node000001"><a xlink:title="#include &lt;tty.h&gt;">
<polygon fill="#999999" stroke="#666666" points="282.5,-24.88 160,-24.88 160,-5.63 282.5,-5.63 282.5,-24.88"/>
<text text-anchor="middle" x="221.25" y="-11.38" font-family="Helvetica,sans-Serif" font-size="10.00">Teletype/console device.</text>
</a>
</g>
</g>
<!-- Node2&#45;&gt;Node1 -->
<g id="edge1" class="edge">
<title>Node2&#45;&gt;Node1</title>
<path fill="none" stroke="black" d="M135.56,-15.25C143.63,-15.25 151.79,-15.25 159.69,-15.25"/>
<polygon fill="black" stroke="black" points="135.76,-11.75 125.76,-15.25 135.76,-18.75 135.76,-11.75"/>
</g>
<!-- Node3 -->
<g id="Node000003" class="node">
<title>Node3</title>
<g id="a_Node000003"><a xlink:href="group__TTY__DEVICE.html" target="_top" xlink:title="Teletype/console device interface for hardware / screen mode abstraction.">
<polygon fill="white" stroke="#666666" points="438.75,-30.5 318.5,-30.5 318.5,0 438.75,0 438.75,-30.5"/>
<text text-anchor="start" x="326.5" y="-17" font-family="Helvetica,sans-Serif" font-size="10.00">Teletype/console device</text>
<text text-anchor="middle" x="378.62" y="-5.75" font-family="Helvetica,sans-Serif" font-size="10.00"> interface.</text>
</a>
</g>
</g>
<!-- Node1&#45;&gt;Node3 -->
<g id="edge2" class="edge">
<title>Node1&#45;&gt;Node3</title>
<path fill="none" stroke="black" d="M294.03,-15.25C302.06,-15.25 310.18,-15.25 318.04,-15.25"/>
<polygon fill="black" stroke="black" points="294.28,-11.75 284.28,-15.25 294.28,-18.75 294.28,-11.75"/>
</g>
</g>
</svg>
