<?xml version="1.0" encoding="UTF-8" standalone="no"?>
<!DOCTYPE svg PUBLIC "-//W3C//DTD SVG 1.1//EN"
 "http://www.w3.org/Graphics/SVG/1.1/DTD/svg11.dtd">
<!-- Generated by graphviz version 12.2.0 (20241103.1931)
 -->
<!-- Title: XMEM &#45; Inter&#45;memory transfer. Pages: 1 -->
<svg width="431pt" height="252pt"
 viewBox="0.00 0.00 431.00 251.75" xmlns="http://www.w3.org/2000/svg" xmlns:xlink="http://www.w3.org/1999/xlink">
<g id="graph0" class="graph" transform="scale(1 1) rotate(0) translate(4 247.75)">
<title>XMEM &#45; Inter&#45;memory transfer.</title>
<!-- Node3 -->
<g id="Node000003" class="node">
<title>Node3</title>
<g id="a_Node000003"><a xlink:href="group__BMEM__RD.html" target="_top" xlink:title="Building blocks for copying and transferring data between different types of memory devices.">
<polygon fill="white" stroke="#666666" points="423,-243.75 299,-243.75 299,-190.75 423,-190.75 423,-243.75"/>
<text text-anchor="start" x="307" y="-230.25" font-family="Helvetica,sans-Serif" font-size="10.00">A part of building</text>
<text text-anchor="start" x="307" y="-219" font-family="Helvetica,sans-Serif" font-size="10.00"> blocks for inter&#45;memory</text>
<text text-anchor="start" x="307" y="-207.75" font-family="Helvetica,sans-Serif" font-size="10.00"> transfer, dedicated to</text>
<text text-anchor="middle" x="361" y="-196.5" font-family="Helvetica,sans-Serif" font-size="10.00"> Banked Memory access.</text>
</a>
</g>
</g>
<!-- Node2 -->
<g id="Node000002" class="node">
<title>Node2</title>
<g id="a_Node000002"><a xlink:href="group__LIBMSX__SYS.html" target="_top" xlink:title=" ">
<polygon fill="white" stroke="#666666" points="117.25,-125.5 0,-125.5 0,-95 117.25,-95 117.25,-125.5"/>
<text text-anchor="start" x="8" y="-112" font-family="Helvetica,sans-Serif" font-size="10.00">BIOS, Interrupts, Slots,</text>
<text text-anchor="middle" x="58.62" y="-100.75" font-family="Helvetica,sans-Serif" font-size="10.00"> etc.</text>
</a>
</g>
</g>
<!-- Node1 -->
<g id="Node000001" class="node">
<title>Node1</title>
<g id="a_Node000001"><a xlink:title="#include &lt;xmem.h&gt;">
<polygon fill="#999999" stroke="#666666" points="263,-125.5 153.25,-125.5 153.25,-95 263,-95 263,-125.5"/>
<text text-anchor="start" x="161.25" y="-112" font-family="Helvetica,sans-Serif" font-size="10.00">XMEM &#45; Inter&#45;memory</text>
<text text-anchor="middle" x="208.12" y="-100.75" font-family="Helvetica,sans-Serif" font-size="10.00"> transfer.</text>
</a>
</g>
</g>
<!-- Node2&#45;&gt;Node1 -->
<g id="edge1" class="edge">
<title>Node2&#45;&gt;Node1</title>
<path fill="none" stroke="black" d="M128.8,-110.25C136.85,-110.25 144.98,-110.25 152.79,-110.25"/>
<polygon fill="black" stroke="black" points="129.01,-106.75 119.01,-110.25 129.01,-113.75 129.01,-106.75"/>
</g>
<!-- Node4 -->
<g id="Node000004" class="node">
<title>Node4</title>
<g id="a_Node000004"><a xlink:href="group__MEM__RW.html" target="_top" xlink:title="Building blocks for copying and transferring data between different types of memory devices.">
<polygon fill="white" stroke="#666666" points="420.38,-172.75 301.62,-172.75 301.62,-119.75 420.38,-119.75 420.38,-172.75"/>
<text text-anchor="start" x="309.62" y="-159.25" font-family="Helvetica,sans-Serif" font-size="10.00">A part of building</text>
<text text-anchor="start" x="309.62" y="-148" font-family="Helvetica,sans-Serif" font-size="10.00"> blocks for inter&#45;memory</text>
<text text-anchor="start" x="309.62" y="-136.75" font-family="Helvetica,sans-Serif" font-size="10.00"> transfer, dedicated to</text>
<text text-anchor="middle" x="361" y="-125.5" font-family="Helvetica,sans-Serif" font-size="10.00"> ROM / RAM access.</text>
</a>
</g>
</g>
<!-- Node5 -->
<g id="Node000005" class="node">
<title>Node5</title>
<g id="a_Node000005"><a xlink:href="group__VMEM__RW.html" target="_top" xlink:title="Building blocks for copying and transferring data between different types of memory devices.">
<polygon fill="white" stroke="#666666" points="420.38,-101.75 301.62,-101.75 301.62,-48.75 420.38,-48.75 420.38,-101.75"/>
<text text-anchor="start" x="309.62" y="-88.25" font-family="Helvetica,sans-Serif" font-size="10.00">A part of building</text>
<text text-anchor="start" x="309.62" y="-77" font-family="Helvetica,sans-Serif" font-size="10.00"> blocks for inter&#45;memory</text>
<text text-anchor="start" x="309.62" y="-65.75" font-family="Helvetica,sans-Serif" font-size="10.00"> transfer, dedicated to</text>
<text text-anchor="middle" x="361" y="-54.5" font-family="Helvetica,sans-Serif" font-size="10.00"> VRAM access.</text>
</a>
</g>
</g>
<!-- Node1&#45;&gt;Node3 -->
<g id="edge2" class="edge">
<title>Node1&#45;&gt;Node3</title>
<path fill="none" stroke="black" d="M235.28,-132.98C252.78,-147.75 276.63,-167.01 299,-182.25 303.04,-185 307.3,-187.75 311.62,-190.42"/>
<polygon fill="black" stroke="black" points="237.78,-130.52 227.89,-126.7 233.24,-135.85 237.78,-130.52"/>
</g>
<!-- Node1&#45;&gt;Node4 -->
<g id="edge3" class="edge">
<title>Node1&#45;&gt;Node4</title>
<path fill="none" stroke="black" d="M274.34,-125.81C283.28,-127.94 292.41,-130.12 301.22,-132.23"/>
<polygon fill="black" stroke="black" points="275.18,-122.41 264.64,-123.5 273.55,-129.22 275.18,-122.41"/>
</g>
<!-- Node1&#45;&gt;Node5 -->
<g id="edge4" class="edge">
<title>Node1&#45;&gt;Node5</title>
<path fill="none" stroke="black" d="M274.34,-95.12C283.28,-93.05 292.41,-90.93 301.22,-88.88"/>
<polygon fill="black" stroke="black" points="273.59,-91.7 264.64,-97.37 275.17,-98.52 273.59,-91.7"/>
</g>
<!-- Node6 -->
<g id="Node000006" class="node">
<title>Node6</title>
<g id="a_Node000006"><a xlink:href="group__XMEM__INTER__MEMORY__TRANSFER.html" target="_top" xlink:title="Building blocks for copying and transferring data between different types of memory devices.">
<polygon fill="white" stroke="#666666" points="417,-30.5 305,-30.5 305,0 417,0 417,-30.5"/>
<text text-anchor="start" x="313" y="-17" font-family="Helvetica,sans-Serif" font-size="10.00">Building blocks for</text>
<text text-anchor="middle" x="361" y="-5.75" font-family="Helvetica,sans-Serif" font-size="10.00"> inter&#45;memory transfer.</text>
</a>
</g>
</g>
<!-- Node1&#45;&gt;Node6 -->
<g id="edge5" class="edge">
<title>Node1&#45;&gt;Node6</title>
<path fill="none" stroke="black" d="M233.98,-87.32C251.27,-72.23 275.36,-52.84 299,-39.25 304.23,-36.24 309.91,-33.45 315.63,-30.92"/>
<polygon fill="black" stroke="black" points="231.89,-84.5 226.73,-93.76 236.54,-89.74 231.89,-84.5"/>
</g>
</g>
</svg>
