<?xml version="1.0" encoding="UTF-8" standalone="no"?>
<!DOCTYPE svg PUBLIC "-//W3C//DTD SVG 1.1//EN"
 "http://www.w3.org/Graphics/SVG/1.1/DTD/svg11.dtd">
<!-- Generated by graphviz version 7.0.4 (20221203.1631)
 -->
<!-- Title: Banked Memory interface for MegaROM. Pages: 1 -->
<svg width="316pt" height="134pt"
 viewBox="0.00 0.00 316.00 134.00" xmlns="http://www.w3.org/2000/svg" xmlns:xlink="http://www.w3.org/1999/xlink">
<g id="graph0" class="graph" transform="scale(1 1) rotate(0) translate(4 130)">
<title>Banked Memory interface for MegaROM.</title>
<!-- Node1 -->
<g id="node1" class="node">
<title>Node1</title>
<g id="a_node1"><a xlink:title="#include &lt;bmem.h&gt;">
<polygon fill="#999999" stroke="#666666" points="126,-78 0,-78 0,-48 126,-48 126,-78"/>
<text text-anchor="start" x="8" y="-66" font-family="Helvetica,sans-Serif" font-size="10.00">Banked Memory interface</text>
<text text-anchor="middle" x="63" y="-55" font-family="Helvetica,sans-Serif" font-size="10.00"> for MegaROM.</text>
</a>
</g>
</g>
<!-- Node2 -->
<g id="node2" class="node">
<title>Node2</title>
<g id="a_node2"><a xlink:href="group__BANKED__MEMORY__DIRECT__ACCESS.html" target="_top" xlink:title="APIs for direct access to 16KiB segments of banked memory.">
<polygon fill="white" stroke="#666666" points="306,-126 164,-126 164,-96 306,-96 306,-126"/>
<text text-anchor="start" x="172" y="-114" font-family="Helvetica,sans-Serif" font-size="10.00">Direct access to banked</text>
<text text-anchor="middle" x="235" y="-103" font-family="Helvetica,sans-Serif" font-size="10.00"> memory by switching page 2.</text>
</a>
</g>
</g>
<!-- Node1&#45;&gt;Node2 -->
<g id="edge1" class="edge">
<title>Node1&#45;&gt;Node2</title>
<path fill="none" stroke="black" d="M129.4,-81.46C145.91,-86.13 163.46,-91.08 179.38,-95.58"/>
<polygon fill="black" stroke="black" points="130.76,-78.21 120.18,-78.86 128.85,-84.95 130.76,-78.21"/>
</g>
<!-- Node3 -->
<g id="node3" class="node">
<title>Node3</title>
<g id="a_node3"><a xlink:href="group__BANKED__MEMORY__INDIRECT__ACCESS.html" target="_top" xlink:title="APIs for indirect access to banked memory.">
<polygon fill="white" stroke="#666666" points="290.5,-78 179.5,-78 179.5,-48 290.5,-48 290.5,-78"/>
<text text-anchor="start" x="187.5" y="-66" font-family="Helvetica,sans-Serif" font-size="10.00">Reading and copying</text>
<text text-anchor="middle" x="235" y="-55" font-family="Helvetica,sans-Serif" font-size="10.00"> from banked memory.</text>
</a>
</g>
</g>
<!-- Node1&#45;&gt;Node3 -->
<g id="edge2" class="edge">
<title>Node1&#45;&gt;Node3</title>
<path fill="none" stroke="black" d="M137.46,-63C151.49,-63 165.94,-63 179.25,-63"/>
<polygon fill="black" stroke="black" points="137.85,-59.5 127.85,-63 137.85,-66.5 137.85,-59.5"/>
</g>
<!-- Node4 -->
<g id="node4" class="node">
<title>Node4</title>
<g id="a_node4"><a xlink:href="group__RESOURCES.html" target="_top" xlink:title="#include &lt;resources.h&gt;">
<polygon fill="white" stroke="#666666" points="308,-30 162,-30 162,0 308,0 308,-30"/>
<text text-anchor="start" x="170" y="-18" font-family="Helvetica,sans-Serif" font-size="10.00">Banked Memory as a</text>
<text text-anchor="middle" x="235" y="-7" font-family="Helvetica,sans-Serif" font-size="10.00"> storage of Named Resources.</text>
</a>
</g>
</g>
<!-- Node1&#45;&gt;Node4 -->
<g id="edge3" class="edge">
<title>Node1&#45;&gt;Node4</title>
<path fill="none" stroke="black" d="M129.4,-44.54C145.91,-39.87 163.46,-34.92 179.38,-30.42"/>
<polygon fill="black" stroke="black" points="128.85,-41.05 120.18,-47.14 130.76,-47.79 128.85,-41.05"/>
</g>
</g>
</svg>
