<?xml version="1.0" encoding="UTF-8" standalone="no"?>
<!DOCTYPE svg PUBLIC "-//W3C//DTD SVG 1.1//EN"
 "http://www.w3.org/Graphics/SVG/1.1/DTD/svg11.dtd">
<!-- Generated by graphviz version 9.0.0 (20230911.1827)
 -->
<!-- Title: 8x8px, 16x16px bitmap image processing. Pages: 1 -->
<svg width="291pt" height="414pt"
 viewBox="0.00 0.00 290.50 414.12" xmlns="http://www.w3.org/2000/svg" xmlns:xlink="http://www.w3.org/1999/xlink">
<g id="graph0" class="graph" transform="scale(1 1) rotate(0) translate(4 410.12)">
<title>8x8px, 16x16px bitmap image processing.</title>
<!-- Node1 -->
<g id="Node000001" class="node">
<title>Node1</title>
<g id="a_Node000001"><a xlink:title="#include &lt;im.h&gt;">
<polygon fill="#999999" stroke="#666666" points="112.75,-234.12 0,-234.12 0,-203.62 112.75,-203.62 112.75,-234.12"/>
<text text-anchor="start" x="8" y="-220.62" font-family="Helvetica,sans-Serif" font-size="10.00">8x8px, 16x16px bitmap</text>
<text text-anchor="middle" x="56.38" y="-209.38" font-family="Helvetica,sans-Serif" font-size="10.00"> image processing.</text>
</a>
</g>
</g>
<!-- Node3 -->
<g id="Node000003" class="node">
<title>Node3</title>
<g id="a_Node000003"><a xlink:href="group__IM__BOOLEAN__BM8x8.html" target="_top" xlink:title="Boolean operators for 8x8px 1bpp bitmap images.">
<polygon fill="white" stroke="#666666" points="282.5,-406.12 148.75,-406.12 148.75,-375.62 282.5,-375.62 282.5,-406.12"/>
<text text-anchor="start" x="156.75" y="-392.62" font-family="Helvetica,sans-Serif" font-size="10.00">Boolean operators for</text>
<text text-anchor="middle" x="215.62" y="-381.38" font-family="Helvetica,sans-Serif" font-size="10.00"> 8x8px 1bpp bitmap images.</text>
</a>
</g>
</g>
<!-- Node1&#45;&gt;Node3 -->
<g id="edge2" class="edge">
<title>Node1&#45;&gt;Node3</title>
<path fill="none" stroke="black" d="M67.39,-244.99C81.11,-277.55 108.7,-332.91 148.75,-365.88 153.09,-369.45 158,-372.55 163.14,-375.23"/>
<polygon fill="black" stroke="black" points="70.7,-243.85 63.69,-235.91 64.22,-246.49 70.7,-243.85"/>
</g>
<!-- Node7 -->
<g id="Node000007" class="node">
<title>Node7</title>
<g id="a_Node000007"><a xlink:href="group__IM__BOOLEAN__SP16x16.html" target="_top" xlink:title="Boolean operators for 16x16 1bpp sprite patterns.">
<polygon fill="white" stroke="#666666" points="282.12,-357.12 149.12,-357.12 149.12,-326.62 282.12,-326.62 282.12,-357.12"/>
<text text-anchor="start" x="157.12" y="-343.62" font-family="Helvetica,sans-Serif" font-size="10.00">Boolean operators for</text>
<text text-anchor="middle" x="215.62" y="-332.38" font-family="Helvetica,sans-Serif" font-size="10.00"> 16x16 1bpp sprite patterns.</text>
</a>
</g>
</g>
<!-- Node1&#45;&gt;Node7 -->
<g id="edge6" class="edge">
<title>Node1&#45;&gt;Node7</title>
<path fill="none" stroke="black" d="M75.11,-243.56C91.92,-265.42 118.98,-296.87 148.75,-316.88 153.93,-320.35 159.66,-323.44 165.51,-326.15"/>
<polygon fill="black" stroke="black" points="78.06,-241.66 69.25,-235.76 72.46,-245.86 78.06,-241.66"/>
</g>
<!-- Node4 -->
<g id="Node000004" class="node">
<title>Node4</title>
<g id="a_Node000004"><a xlink:href="group__IM__SHIFT__BM8x8.html" target="_top" xlink:title="Shift / Rotate (Scroll) operators for 8x8px 1bpp bitmap images.">
<polygon fill="white" stroke="#666666" points="282.5,-308.12 148.75,-308.12 148.75,-277.62 282.5,-277.62 282.5,-308.12"/>
<text text-anchor="start" x="156.75" y="-294.62" font-family="Helvetica,sans-Serif" font-size="10.00">Shift operators for</text>
<text text-anchor="middle" x="215.62" y="-283.38" font-family="Helvetica,sans-Serif" font-size="10.00"> 8x8px 1bpp bitmap images.</text>
</a>
</g>
</g>
<!-- Node1&#45;&gt;Node4 -->
<g id="edge3" class="edge">
<title>Node1&#45;&gt;Node4</title>
<path fill="none" stroke="black" d="M94.26,-240.06C110.69,-249.13 130.44,-259.53 148.75,-267.88 155.87,-271.12 163.55,-274.31 171.07,-277.26"/>
<polygon fill="black" stroke="black" points="96.26,-237.17 85.82,-235.35 92.85,-243.28 96.26,-237.17"/>
</g>
<!-- Node8 -->
<g id="Node000008" class="node">
<title>Node8</title>
<g id="a_Node000008"><a xlink:href="group__IM__SHIFT__SP16x16.html" target="_top" xlink:title="Shift / Rotate (Scroll) operators for 16x16 1bpp sprite patterns.">
<polygon fill="white" stroke="#666666" points="282.12,-259.12 149.12,-259.12 149.12,-228.62 282.12,-228.62 282.12,-259.12"/>
<text text-anchor="start" x="157.12" y="-245.62" font-family="Helvetica,sans-Serif" font-size="10.00">Shift operators for</text>
<text text-anchor="middle" x="215.62" y="-234.38" font-family="Helvetica,sans-Serif" font-size="10.00"> 16x16 1bpp sprite patterns.</text>
</a>
</g>
</g>
<!-- Node1&#45;&gt;Node8 -->
<g id="edge7" class="edge">
<title>Node1&#45;&gt;Node8</title>
<path fill="none" stroke="black" d="M124.14,-229.49C132.25,-230.78 140.54,-232.1 148.64,-233.38"/>
<polygon fill="black" stroke="black" points="124.74,-226.04 114.31,-227.93 123.64,-232.95 124.74,-226.04"/>
</g>
<!-- Node5 -->
<g id="Node000005" class="node">
<title>Node5</title>
<g id="a_Node000005"><a xlink:href="group__IM__TILEMAP__BM8x8.html" target="_top" xlink:title="Tile&#45;mapping for 8x8px 1bpp bitmap images.">
<polygon fill="white" stroke="#666666" points="271.62,-210.12 159.62,-210.12 159.62,-179.62 271.62,-179.62 271.62,-210.12"/>
<text text-anchor="start" x="167.62" y="-196.62" font-family="Helvetica,sans-Serif" font-size="10.00">Tile&#45;mapping for 8x8px</text>
<text text-anchor="middle" x="215.62" y="-185.38" font-family="Helvetica,sans-Serif" font-size="10.00"> 1bpp bitmap images.</text>
</a>
</g>
</g>
<!-- Node1&#45;&gt;Node5 -->
<g id="edge4" class="edge">
<title>Node1&#45;&gt;Node5</title>
<path fill="none" stroke="black" d="M123.92,-208.72C135.66,-206.93 147.76,-205.08 159.16,-203.34"/>
<polygon fill="black" stroke="black" points="123.67,-205.22 114.31,-210.19 124.73,-212.14 123.67,-205.22"/>
</g>
<!-- Node2 -->
<g id="Node000002" class="node">
<title>Node2</title>
<g id="a_Node000002"><a xlink:href="group__IM__TRANSFORM__BM8x8.html" target="_top" xlink:title="Matrix transformation operators for 8x8px 1bpp bitmap images.">
<polygon fill="white" stroke="#666666" points="269,-161.75 162.25,-161.75 162.25,-120 269,-120 269,-161.75"/>
<text text-anchor="start" x="170.25" y="-148.25" font-family="Helvetica,sans-Serif" font-size="10.00">Matrix transformation</text>
<text text-anchor="start" x="170.25" y="-137" font-family="Helvetica,sans-Serif" font-size="10.00"> operators for 8x8px</text>
<text text-anchor="middle" x="215.62" y="-125.75" font-family="Helvetica,sans-Serif" font-size="10.00"> 1bpp bitmap images.</text>
</a>
</g>
</g>
<!-- Node1&#45;&gt;Node2 -->
<g id="edge1" class="edge">
<title>Node1&#45;&gt;Node2</title>
<path fill="none" stroke="black" d="M95.67,-198.14C111.93,-189.5 131.16,-179.49 148.75,-170.88 154.62,-168 160.82,-165.06 166.98,-162.19"/>
<polygon fill="black" stroke="black" points="94.48,-194.81 87.31,-202.61 97.78,-200.99 94.48,-194.81"/>
</g>
<!-- Node6 -->
<g id="Node000006" class="node">
<title>Node6</title>
<g id="a_Node000006"><a xlink:href="group__IM__TRANSFORM__SP16x16.html" target="_top" xlink:title="Matrix transformation operators for 16x16 1bpp sprite patterns.">
<polygon fill="white" stroke="#666666" points="269,-101.75 162.25,-101.75 162.25,-60 269,-60 269,-101.75"/>
<text text-anchor="start" x="170.25" y="-88.25" font-family="Helvetica,sans-Serif" font-size="10.00">Matrix transformation</text>
<text text-anchor="start" x="170.25" y="-77" font-family="Helvetica,sans-Serif" font-size="10.00"> operators for 16x16</text>
<text text-anchor="middle" x="215.62" y="-65.75" font-family="Helvetica,sans-Serif" font-size="10.00"> 1bpp sprite patterns.</text>
</a>
</g>
</g>
<!-- Node1&#45;&gt;Node6 -->
<g id="edge5" class="edge">
<title>Node1&#45;&gt;Node6</title>
<path fill="none" stroke="black" d="M73.57,-193.98C90.12,-170.12 117.74,-134.35 148.75,-110.88 152.86,-107.77 157.34,-104.88 161.97,-102.23"/>
<polygon fill="black" stroke="black" points="70.75,-191.91 68.03,-202.15 76.54,-195.84 70.75,-191.91"/>
</g>
<!-- Node9 -->
<g id="Node000009" class="node">
<title>Node9</title>
<g id="a_Node000009"><a xlink:href="group__IM__TRIM__SP16x16.html" target="_top" xlink:title="Trimming (Cropping) for 16x16 1bpp sprite patterns.">
<polygon fill="white" stroke="#666666" points="269,-41.75 162.25,-41.75 162.25,0 269,0 269,-41.75"/>
<text text-anchor="start" x="170.25" y="-28.25" font-family="Helvetica,sans-Serif" font-size="10.00">Trimming (Cropping)</text>
<text text-anchor="start" x="170.25" y="-17" font-family="Helvetica,sans-Serif" font-size="10.00"> for 16x16 1bpp sprite</text>
<text text-anchor="middle" x="215.62" y="-5.75" font-family="Helvetica,sans-Serif" font-size="10.00"> patterns.</text>
</a>
</g>
</g>
<!-- Node1&#45;&gt;Node9 -->
<g id="edge8" class="edge">
<title>Node1&#45;&gt;Node9</title>
<path fill="none" stroke="black" d="M65.66,-192.66C78.3,-156.47 105.57,-91.11 148.75,-50.88 152.7,-47.19 157.19,-43.9 161.91,-40.97"/>
<polygon fill="black" stroke="black" points="62.43,-191.29 62.56,-201.89 69.06,-193.53 62.43,-191.29"/>
</g>
</g>
</svg>
