<?xml version="1.0" encoding="UTF-8" standalone="no"?>
<!DOCTYPE svg PUBLIC "-//W3C//DTD SVG 1.1//EN"
 "http://www.w3.org/Graphics/SVG/1.1/DTD/svg11.dtd">
<!-- Generated by graphviz version 7.0.5 (20221223.1930)
 -->
<!-- Title: XMEM &#45; Inter&#45;memory transfer. Pages: 1 -->
<svg width="279pt" height="248pt"
 viewBox="0.00 0.00 279.00 248.00" xmlns="http://www.w3.org/2000/svg" xmlns:xlink="http://www.w3.org/1999/xlink">
<g id="graph0" class="graph" transform="scale(1 1) rotate(0) translate(4 244)">
<title>XMEM &#45; Inter&#45;memory transfer.</title>
<!-- Node2 -->
<g id="node1" class="node">
<title>Node2</title>
<g id="a_node1"><a xlink:href="group__BMEM__RD.html" target="_top" xlink:title="Building blocks for copying and transferring data between different types of memory devices.">
<polygon fill="white" stroke="#666666" points="271,-240 146,-240 146,-188 271,-188 271,-240"/>
<text text-anchor="start" x="154" y="-228" font-family="Helvetica,sans-Serif" font-size="10.00">A part of building</text>
<text text-anchor="start" x="154" y="-217" font-family="Helvetica,sans-Serif" font-size="10.00"> blocks for inter&#45;memory</text>
<text text-anchor="start" x="154" y="-206" font-family="Helvetica,sans-Serif" font-size="10.00"> transfer, dedicated to</text>
<text text-anchor="middle" x="208.5" y="-195" font-family="Helvetica,sans-Serif" font-size="10.00"> Banked Memory access.</text>
</a>
</g>
</g>
<!-- Node3 -->
<g id="node2" class="node">
<title>Node3</title>
<g id="a_node2"><a xlink:href="group__MEM__RW.html" target="_top" xlink:title="Building blocks for copying and transferring data between different types of memory devices.">
<polygon fill="white" stroke="#666666" points="268,-170 149,-170 149,-118 268,-118 268,-170"/>
<text text-anchor="start" x="157" y="-158" font-family="Helvetica,sans-Serif" font-size="10.00">A part of building</text>
<text text-anchor="start" x="157" y="-147" font-family="Helvetica,sans-Serif" font-size="10.00"> blocks for inter&#45;memory</text>
<text text-anchor="start" x="157" y="-136" font-family="Helvetica,sans-Serif" font-size="10.00"> transfer, dedicated to</text>
<text text-anchor="middle" x="208.5" y="-125" font-family="Helvetica,sans-Serif" font-size="10.00"> ROM / RAM access.</text>
</a>
</g>
</g>
<!-- Node4 -->
<g id="node3" class="node">
<title>Node4</title>
<g id="a_node3"><a xlink:href="group__VMEM__RW.html" target="_top" xlink:title="Building blocks for copying and transferring data between different types of memory devices.">
<polygon fill="white" stroke="#666666" points="268,-100 149,-100 149,-48 268,-48 268,-100"/>
<text text-anchor="start" x="157" y="-88" font-family="Helvetica,sans-Serif" font-size="10.00">A part of building</text>
<text text-anchor="start" x="157" y="-77" font-family="Helvetica,sans-Serif" font-size="10.00"> blocks for inter&#45;memory</text>
<text text-anchor="start" x="157" y="-66" font-family="Helvetica,sans-Serif" font-size="10.00"> transfer, dedicated to</text>
<text text-anchor="middle" x="208.5" y="-55" font-family="Helvetica,sans-Serif" font-size="10.00"> VRAM access.</text>
</a>
</g>
</g>
<!-- Node1 -->
<g id="node4" class="node">
<title>Node1</title>
<g id="a_node4"><a xlink:title="#include &lt;xmem.h&gt;">
<polygon fill="#999999" stroke="#666666" points="110,-124 0,-124 0,-94 110,-94 110,-124"/>
<text text-anchor="start" x="8" y="-112" font-family="Helvetica,sans-Serif" font-size="10.00">XMEM &#45; Inter&#45;memory</text>
<text text-anchor="middle" x="55" y="-101" font-family="Helvetica,sans-Serif" font-size="10.00"> transfer.</text>
</a>
</g>
</g>
<!-- Node1&#45;&gt;Node2 -->
<g id="edge1" class="edge">
<title>Node1&#45;&gt;Node2</title>
<path fill="none" stroke="black" d="M82.6,-131.32C100.13,-145.62 123.86,-164.2 146,-179 150.29,-181.87 154.83,-184.74 159.42,-187.53"/>
<polygon fill="black" stroke="black" points="85.15,-128.89 75.21,-125.24 80.71,-134.3 85.15,-128.89"/>
</g>
<!-- Node1&#45;&gt;Node3 -->
<g id="edge2" class="edge">
<title>Node1&#45;&gt;Node3</title>
<path fill="none" stroke="black" d="M121.27,-124.08C130.4,-126.19 139.74,-128.35 148.74,-130.42"/>
<polygon fill="black" stroke="black" points="122.27,-120.72 111.74,-121.88 120.7,-127.54 122.27,-120.72"/>
</g>
<!-- Node1&#45;&gt;Node4 -->
<g id="edge3" class="edge">
<title>Node1&#45;&gt;Node4</title>
<path fill="none" stroke="black" d="M121.27,-93.92C130.4,-91.81 139.74,-89.65 148.74,-87.58"/>
<polygon fill="black" stroke="black" points="120.7,-90.46 111.74,-96.12 122.27,-97.28 120.7,-90.46"/>
</g>
<!-- Node5 -->
<g id="node5" class="node">
<title>Node5</title>
<g id="a_node5"><a xlink:href="group__XMEM__INTER__MEMORY__TRANSFER.html" target="_top" xlink:title="Building blocks for copying and transferring data between different types of memory devices.">
<polygon fill="white" stroke="#666666" points="265,-30 152,-30 152,0 265,0 265,-30"/>
<text text-anchor="start" x="160" y="-18" font-family="Helvetica,sans-Serif" font-size="10.00">Building blocks for</text>
<text text-anchor="middle" x="208.5" y="-7" font-family="Helvetica,sans-Serif" font-size="10.00"> inter&#45;memory transfer.</text>
</a>
</g>
</g>
<!-- Node1&#45;&gt;Node5 -->
<g id="edge4" class="edge">
<title>Node1&#45;&gt;Node5</title>
<path fill="none" stroke="black" d="M80.94,-86.4C98.27,-71.53 122.4,-52.4 146,-39 151.48,-35.89 157.45,-33 163.43,-30.39"/>
<polygon fill="black" stroke="black" points="78.91,-83.53 73.67,-92.74 83.51,-88.8 78.91,-83.53"/>
</g>
</g>
</svg>
