<?xml version="1.0" encoding="UTF-8" standalone="no"?>
<!DOCTYPE svg PUBLIC "-//W3C//DTD SVG 1.1//EN"
 "http://www.w3.org/Graphics/SVG/1.1/DTD/svg11.dtd">
<!-- Generated by graphviz version 7.0.5 (20221223.1930)
 -->
<!-- Title: Konami SCC/SCC+ sound cartridge Pages: 1 -->
<svg width="311pt" height="113pt"
 viewBox="0.00 0.00 311.00 112.50" xmlns="http://www.w3.org/2000/svg" xmlns:xlink="http://www.w3.org/1999/xlink">
<g id="graph0" class="graph" transform="scale(1 1) rotate(0) translate(4 108.5)">
<title>Konami SCC/SCC+ sound cartridge</title>
<!-- Node1 -->
<g id="node1" class="node">
<title>Node1</title>
<g id="a_node1"><a xlink:title="#include &lt;scc.h&gt;">
<polygon fill="#999999" stroke="#666666" points="130,-73 0,-73 0,-43 130,-43 130,-73"/>
<text text-anchor="start" x="8" y="-61" font-family="Helvetica,sans-Serif" font-size="10.00">Konami SCC/SCC+ sound</text>
<text text-anchor="middle" x="65" y="-50" font-family="Helvetica,sans-Serif" font-size="10.00"> cartridge</text>
</a>
</g>
</g>
<!-- Node3 -->
<g id="node2" class="node">
<title>Node3</title>
<g id="a_node2"><a xlink:href="group__SCC__BUFFER.html" target="_top" xlink:title="#include &lt;scc_buf.h&gt; Buffered access to SCC/SCC+ registers.">
<polygon fill="white" stroke="#666666" points="281.5,-104.5 187.5,-104.5 187.5,-85.5 281.5,-85.5 281.5,-104.5"/>
<text text-anchor="middle" x="234.5" y="-92.5" font-family="Helvetica,sans-Serif" font-size="10.00">SCC/SCC+ Buffer</text>
</a>
</g>
</g>
<!-- Node1&#45;&gt;Node3 -->
<g id="edge2" class="edge">
<title>Node1&#45;&gt;Node3</title>
<path fill="none" stroke="black" d="M141.3,-74.63C157.37,-78.18 173.85,-81.82 188.35,-85.03"/>
<polygon fill="black" stroke="black" points="142.28,-71.27 131.76,-72.53 140.77,-78.1 142.28,-71.27"/>
</g>
<!-- Node2 -->
<g id="node3" class="node">
<title>Node2</title>
<g id="a_node3"><a xlink:href="group__SCC__DEVICE.html" target="_top" xlink:title="#include &lt;scc.h&gt; Inspect, discover, enable/disable to access registers, of the SCC/SCC+ sound chip.">
<polygon fill="white" stroke="#666666" points="303,-67.5 166,-67.5 166,-48.5 303,-48.5 303,-67.5"/>
<text text-anchor="middle" x="234.5" y="-55.5" font-family="Helvetica,sans-Serif" font-size="10.00">SCC/SCC+ device interface</text>
</a>
</g>
</g>
<!-- Node1&#45;&gt;Node2 -->
<g id="edge1" class="edge">
<title>Node1&#45;&gt;Node2</title>
<path fill="none" stroke="black" d="M141.58,-58C149.65,-58 157.81,-58 165.78,-58"/>
<polygon fill="black" stroke="black" points="141.79,-54.5 131.79,-58 141.79,-61.5 141.79,-54.5"/>
</g>
<!-- Node4 -->
<g id="node4" class="node">
<title>Node4</title>
<g id="a_node4"><a xlink:href="group__SCC__PREDEFINED__WAVEFORMS.html" target="_top" xlink:title="#include &lt;scc_wav.h&gt; Predefined waveforms for SCC/SCC+.">
<polygon fill="white" stroke="#666666" points="291,-30 178,-30 178,0 291,0 291,-30"/>
<text text-anchor="start" x="186" y="-18" font-family="Helvetica,sans-Serif" font-size="10.00">Predefined waveforms</text>
<text text-anchor="middle" x="234.5" y="-7" font-family="Helvetica,sans-Serif" font-size="10.00"> for SCC/SCC+.</text>
</a>
</g>
</g>
<!-- Node1&#45;&gt;Node4 -->
<g id="edge3" class="edge">
<title>Node1&#45;&gt;Node4</title>
<path fill="none" stroke="black" d="M136.79,-39.83C150.4,-36.33 164.49,-32.72 177.55,-29.36"/>
<polygon fill="black" stroke="black" points="136.28,-36.34 127.46,-42.22 138.02,-43.12 136.28,-36.34"/>
</g>
</g>
</svg>
