<?xml version="1.0" encoding="UTF-8" standalone="no"?>
<!DOCTYPE svg PUBLIC "-//W3C//DTD SVG 1.1//EN"
 "http://www.w3.org/Graphics/SVG/1.1/DTD/svg11.dtd">
<!-- Generated by graphviz version 12.2.0 (20241103.1931)
 -->
<!-- Title: SCREEN mode initialization Pages: 1 -->
<svg width="455pt" height="101pt"
 viewBox="0.00 0.00 455.00 101.25" xmlns="http://www.w3.org/2000/svg" xmlns:xlink="http://www.w3.org/1999/xlink">
<g id="graph0" class="graph" transform="scale(1 1) rotate(0) translate(4 97.25)">
<title>SCREEN mode initialization</title>
<!-- Node2 -->
<g id="Node000002" class="node">
<title>Node2</title>
<g id="a_Node000002"><a xlink:href="group__LIBMSX__GRAPHICS.html" target="_top" xlink:title=" ">
<polygon fill="white" stroke="#666666" points="128.5,-56.25 0,-56.25 0,-37 128.5,-37 128.5,-56.25"/>
<text text-anchor="middle" x="64.25" y="-42.75" font-family="Helvetica,sans-Serif" font-size="10.00">Video / Display / Graphics.</text>
</a>
</g>
</g>
<!-- Node1 -->
<g id="Node000001" class="node">
<title>Node1</title>
<g id="a_Node000001"><a xlink:title="#include &lt;screen.h&gt;">
<polygon fill="#999999" stroke="#666666" points="299,-56.25 164.5,-56.25 164.5,-37 299,-37 299,-56.25"/>
<text text-anchor="middle" x="231.75" y="-42.75" font-family="Helvetica,sans-Serif" font-size="10.00">SCREEN mode initialization</text>
</a>
</g>
</g>
<!-- Node2&#45;&gt;Node1 -->
<g id="edge1" class="edge">
<title>Node2&#45;&gt;Node1</title>
<path fill="none" stroke="black" d="M140.02,-46.62C148.05,-46.62 156.18,-46.62 164.11,-46.62"/>
<polygon fill="black" stroke="black" points="140.28,-43.13 130.28,-46.63 140.28,-50.13 140.28,-43.13"/>
</g>
<!-- Node5 -->
<g id="Node000005" class="node">
<title>Node5</title>
<g id="a_Node000005"><a xlink:href="group__SCREEN__BITMAP.html" target="_top" xlink:title="Initialization functions for GRAPHIC 4, 5, 6, and 7 mode.">
<polygon fill="white" stroke="#666666" points="447,-93.25 335,-93.25 335,-74 447,-74 447,-93.25"/>
<text text-anchor="middle" x="391" y="-79.75" font-family="Helvetica,sans-Serif" font-size="10.00">Bitmap graphics mode</text>
</a>
</g>
</g>
<!-- Node1&#45;&gt;Node5 -->
<g id="edge4" class="edge">
<title>Node1&#45;&gt;Node5</title>
<path fill="none" stroke="black" d="M286.71,-59.32C306.43,-63.96 328.45,-69.14 347.08,-73.53"/>
<polygon fill="black" stroke="black" points="287.73,-55.97 277.19,-57.08 286.13,-62.78 287.73,-55.97"/>
</g>
<!-- Node4 -->
<g id="Node000004" class="node">
<title>Node4</title>
<g id="a_Node000004"><a xlink:href="group__SCREEN__PCG.html" target="_top" xlink:title="Initialization functions for GRAPHIC 1, 2, and 3 mode.">
<polygon fill="white" stroke="#666666" points="442.12,-56.25 339.88,-56.25 339.88,-37 442.12,-37 442.12,-56.25"/>
<text text-anchor="middle" x="391" y="-42.75" font-family="Helvetica,sans-Serif" font-size="10.00">Tiled graphics mode</text>
</a>
</g>
</g>
<!-- Node1&#45;&gt;Node4 -->
<g id="edge3" class="edge">
<title>Node1&#45;&gt;Node4</title>
<path fill="none" stroke="black" d="M310.82,-46.62C320.54,-46.62 330.28,-46.62 339.43,-46.62"/>
<polygon fill="black" stroke="black" points="310.95,-43.13 300.95,-46.63 310.95,-50.13 310.95,-43.13"/>
</g>
<!-- Node3 -->
<g id="Node000003" class="node">
<title>Node3</title>
<g id="a_Node000003"><a xlink:href="group__SCREEN__TEXT.html" target="_top" xlink:title="Initialization functions for TEXT 1 and 2 mode.">
<polygon fill="white" stroke="#666666" points="424.5,-19.25 357.5,-19.25 357.5,0 424.5,0 424.5,-19.25"/>
<text text-anchor="middle" x="391" y="-5.75" font-family="Helvetica,sans-Serif" font-size="10.00">TEXT mode</text>
</a>
</g>
</g>
<!-- Node1&#45;&gt;Node3 -->
<g id="edge2" class="edge">
<title>Node1&#45;&gt;Node3</title>
<path fill="none" stroke="black" d="M286.88,-33.89C310.21,-28.4 336.75,-22.15 357.06,-17.38"/>
<polygon fill="black" stroke="black" points="286.13,-30.47 277.19,-36.17 287.73,-37.28 286.13,-30.47"/>
</g>
</g>
</svg>
