<?xml version="1.0" encoding="UTF-8" standalone="no"?>
<!DOCTYPE svg PUBLIC "-//W3C//DTD SVG 1.1//EN"
 "http://www.w3.org/Graphics/SVG/1.1/DTD/svg11.dtd">
<!-- Generated by graphviz version 12.2.0 (20241103.1931)
 -->
<!-- Title: Input device Pages: 1 -->
<svg width="406pt" height="27pt"
 viewBox="0.00 0.00 405.50 27.25" xmlns="http://www.w3.org/2000/svg" xmlns:xlink="http://www.w3.org/1999/xlink">
<g id="graph0" class="graph" transform="scale(1 1) rotate(0) translate(4 23.25)">
<title>Input device</title>
<!-- Node1 -->
<g id="Node000001" class="node">
<title>Node1</title>
<g id="a_Node000001"><a xlink:title="#include &lt;input.h&gt;">
<polygon fill="#999999" stroke="#666666" points="234.5,-19.25 166,-19.25 166,0 234.5,0 234.5,-19.25"/>
<text text-anchor="middle" x="200.25" y="-5.75" font-family="Helvetica,sans-Serif" font-size="10.00">Input device</text>
</a>
</g>
</g>
<!-- Node3 -->
<g id="Node000003" class="node">
<title>Node3</title>
<g id="a_Node000003"><a xlink:href="group__INPUT__JOYPAD.html" target="_top" xlink:title="Get Joypad button state.">
<polygon fill="white" stroke="#666666" points="397.5,-19.25 270.5,-19.25 270.5,0 397.5,0 397.5,-19.25"/>
<text text-anchor="middle" x="334" y="-5.75" font-family="Helvetica,sans-Serif" font-size="10.00">Joystick / Joypad inteface</text>
</a>
</g>
</g>
<!-- Node1&#45;&gt;Node3 -->
<g id="edge2" class="edge">
<title>Node1&#45;&gt;Node3</title>
<path fill="none" stroke="black" d="M246.12,-9.62C253.82,-9.62 261.94,-9.62 270,-9.62"/>
<polygon fill="black" stroke="black" points="246.35,-6.13 236.35,-9.63 246.35,-13.13 246.35,-6.13"/>
</g>
<!-- Node2 -->
<g id="Node000002" class="node">
<title>Node2</title>
<g id="a_Node000002"><a xlink:href="group__LIBMSX__HID.html" target="_top" xlink:title=" ">
<polygon fill="white" stroke="#666666" points="130,-19.25 0,-19.25 0,0 130,0 130,-19.25"/>
<text text-anchor="middle" x="65" y="-5.75" font-family="Helvetica,sans-Serif" font-size="10.00">Human Interaction Device.</text>
</a>
</g>
</g>
<!-- Node2&#45;&gt;Node1 -->
<g id="edge1" class="edge">
<title>Node2&#45;&gt;Node1</title>
<path fill="none" stroke="black" d="M141.74,-9.62C150.1,-9.62 158.25,-9.62 165.68,-9.62"/>
<polygon fill="black" stroke="black" points="141.8,-6.13 131.8,-9.63 141.8,-13.13 141.8,-6.13"/>
</g>
</g>
</svg>
