<?xml version="1.0" encoding="UTF-8" standalone="no"?>
<!DOCTYPE svg PUBLIC "-//W3C//DTD SVG 1.1//EN"
 "http://www.w3.org/Graphics/SVG/1.1/DTD/svg11.dtd">
<!-- Generated by graphviz version 12.2.0 (20241103.1931)
 -->
<!-- Title: Sound drivers / replayers. Pages: 1 -->
<svg width="294pt" height="211pt"
 viewBox="0.00 0.00 294.25 210.88" xmlns="http://www.w3.org/2000/svg" xmlns:xlink="http://www.w3.org/1999/xlink">
<g id="graph0" class="graph" transform="scale(1 1) rotate(0) translate(4 206.88)">
<title>Sound drivers / replayers.</title>
<!-- Node2 -->
<g id="Node000002" class="node">
<title>Node2</title>
<g id="a_Node000002"><a xlink:href="group__AUDIO.html" target="_top" xlink:title="#include &lt;audio.h&gt; Framework for sound drivers / replayers.">
<polygon fill="white" stroke="#666666" points="286.25,-202.88 160,-202.88 160,-183.62 286.25,-183.62 286.25,-202.88"/>
<text text-anchor="middle" x="223.12" y="-189.38" font-family="Helvetica,sans-Serif" font-size="10.00">The libmsx audio replayer.</text>
</a>
</g>
</g>
<!-- Node3 -->
<g id="Node000003" class="node">
<title>Node3</title>
<g id="a_Node000003"><a xlink:href="group__LA0__DECODER.html" target="_top" xlink:title="#include &lt;la0.h&gt; LA0 decoder is a decoder for the libmsx audio replayer.">
<polygon fill="white" stroke="#666666" points="278.75,-165.5 167.5,-165.5 167.5,-135 278.75,-135 278.75,-165.5"/>
<text text-anchor="start" x="175.5" y="-152" font-family="Helvetica,sans-Serif" font-size="10.00">LA0 &#45; PSG, SCC/SCC</text>
<text text-anchor="middle" x="223.12" y="-140.75" font-family="Helvetica,sans-Serif" font-size="10.00">+, OPLL sound driver.</text>
</a>
</g>
</g>
<!-- Node1 -->
<g id="Node000001" class="node">
<title>Node1</title>
<g id="a_Node000001"><a xlink:title=" ">
<polygon fill="#999999" stroke="#666666" points="124,-116.88 0,-116.88 0,-97.62 124,-97.62 124,-116.88"/>
<text text-anchor="middle" x="62" y="-103.38" font-family="Helvetica,sans-Serif" font-size="10.00">Sound drivers / replayers.</text>
</a>
</g>
</g>
<!-- Node1&#45;&gt;Node2 -->
<g id="edge1" class="edge">
<title>Node1&#45;&gt;Node2</title>
<path fill="none" stroke="black" d="M83.68,-124.35C102.56,-139.26 131.76,-160.59 160,-174.25 167.11,-177.69 174.97,-180.67 182.65,-183.18"/>
<polygon fill="black" stroke="black" points="85.97,-121.7 75.98,-118.17 81.58,-127.16 85.97,-121.7"/>
</g>
<!-- Node1&#45;&gt;Node3 -->
<g id="edge2" class="edge">
<title>Node1&#45;&gt;Node3</title>
<path fill="none" stroke="black" d="M111.24,-120.29C128.91,-125.06 149.04,-130.5 167.26,-135.42"/>
<polygon fill="black" stroke="black" points="112.34,-116.96 101.77,-117.73 110.51,-123.71 112.34,-116.96"/>
</g>
<!-- Node4 -->
<g id="Node000004" class="node">
<title>Node4</title>
<g id="a_Node000004"><a xlink:href="group__NDP.html" target="_top" xlink:title="#include &lt;NDP.h&gt; NDP &#45; PSG Driver for MSX (libmsx version).">
<polygon fill="white" stroke="#666666" points="284.38,-116.88 161.88,-116.88 161.88,-97.62 284.38,-97.62 284.38,-116.88"/>
<text text-anchor="middle" x="223.12" y="-103.38" font-family="Helvetica,sans-Serif" font-size="10.00">NDP &#45; NDP sound driver.</text>
</a>
</g>
</g>
<!-- Node1&#45;&gt;Node4 -->
<g id="edge3" class="edge">
<title>Node1&#45;&gt;Node4</title>
<path fill="none" stroke="black" d="M135.42,-107.25C144.13,-107.25 152.96,-107.25 161.48,-107.25"/>
<polygon fill="black" stroke="black" points="135.58,-103.75 125.58,-107.25 135.58,-110.75 135.58,-103.75"/>
</g>
<!-- Node5 -->
<g id="Node000005" class="node">
<title>Node5</title>
<g id="a_Node000005"><a xlink:href="group__SNDDRV.html" target="_top" xlink:title="#include &lt;snddrv.h&gt; SNDDRV is a PSG sound driver inspired by Arkos Tracker 2.">
<polygon fill="white" stroke="#666666" points="280.25,-79.5 166,-79.5 166,-49 280.25,-49 280.25,-79.5"/>
<text text-anchor="start" x="174" y="-66" font-family="Helvetica,sans-Serif" font-size="10.00">SNDDRV &#45; PSG sound</text>
<text text-anchor="middle" x="223.12" y="-54.75" font-family="Helvetica,sans-Serif" font-size="10.00"> driver</text>
</a>
</g>
</g>
<!-- Node1&#45;&gt;Node5 -->
<g id="edge4" class="edge">
<title>Node1&#45;&gt;Node5</title>
<path fill="none" stroke="black" d="M111.22,-94.22C128.41,-89.57 147.92,-84.3 165.73,-79.49"/>
<polygon fill="black" stroke="black" points="110.51,-90.79 101.77,-96.77 112.34,-97.54 110.51,-90.79"/>
</g>
<!-- Node6 -->
<g id="Node000006" class="node">
<title>Node6</title>
<g id="a_Node000006"><a xlink:href="group__SOUND__OLD.html" target="_top" xlink:title="#include &lt;sound.h&gt;, #include &lt;sound_eg.h&gt;">
<polygon fill="white" stroke="#666666" points="282.12,-30.5 164.12,-30.5 164.12,0 282.12,0 282.12,-30.5"/>
<text text-anchor="start" x="172.12" y="-17" font-family="Helvetica,sans-Serif" font-size="10.00">Sound &#45; Old PSG sound</text>
<text text-anchor="middle" x="223.12" y="-5.75" font-family="Helvetica,sans-Serif" font-size="10.00"> driver</text>
</a>
</g>
</g>
<!-- Node1&#45;&gt;Node6 -->
<g id="edge5" class="edge">
<title>Node1&#45;&gt;Node6</title>
<path fill="none" stroke="black" d="M84.61,-90.24C103.7,-75.73 132.68,-54.95 160,-40.25 166.14,-36.95 172.82,-33.82 179.44,-30.96"/>
<polygon fill="black" stroke="black" points="82.58,-87.39 76.79,-96.26 86.85,-92.93 82.58,-87.39"/>
</g>
</g>
</svg>
