<?xml version="1.0" encoding="UTF-8" standalone="no"?>
<!DOCTYPE svg PUBLIC "-//W3C//DTD SVG 1.1//EN"
 "http://www.w3.org/Graphics/SVG/1.1/DTD/svg11.dtd">
<!-- Generated by graphviz version 12.2.0 (20241103.1931)
 -->
<!-- Title: SM2 (Sprite Mode 2) Animated Color Sprites. Pages: 1 -->
<svg width="281pt" height="174pt"
 viewBox="0.00 0.00 280.75 173.50" xmlns="http://www.w3.org/2000/svg" xmlns:xlink="http://www.w3.org/1999/xlink">
<g id="graph0" class="graph" transform="scale(1 1) rotate(0) translate(4 169.5)">
<title>SM2 (Sprite Mode 2) Animated Color Sprites.</title>
<!-- Node1 -->
<g id="Node000001" class="node">
<title>Node1</title>
<g id="a_Node000001"><a xlink:title="SM2 module provides APIs for displaying animated multicolor sprites.">
<polygon fill="#999999" stroke="#666666" points="119.5,-100.5 0,-100.5 0,-70 119.5,-70 119.5,-100.5"/>
<text text-anchor="start" x="8" y="-87" font-family="Helvetica,sans-Serif" font-size="10.00">SM2 (Sprite Mode 2)</text>
<text text-anchor="middle" x="59.75" y="-75.75" font-family="Helvetica,sans-Serif" font-size="10.00"> Animated Color Sprites.</text>
</a>
</g>
</g>
<!-- Node4 -->
<g id="Node000004" class="node">
<title>Node4</title>
<g id="a_Node000004"><a xlink:href="group__SM2__ANIMATION.html" target="_top" xlink:title="Updates animation state of Animated Color Sprites.">
<polygon fill="white" stroke="#666666" points="272.75,-165.5 155.5,-165.5 155.5,-135 272.75,-135 272.75,-165.5"/>
<text text-anchor="start" x="163.5" y="-152" font-family="Helvetica,sans-Serif" font-size="10.00">SM2 updates animation</text>
<text text-anchor="middle" x="214.12" y="-140.75" font-family="Helvetica,sans-Serif" font-size="10.00"> state.</text>
</a>
</g>
</g>
<!-- Node1&#45;&gt;Node4 -->
<g id="edge3" class="edge">
<title>Node1&#45;&gt;Node4</title>
<path fill="none" stroke="black" d="M107.02,-105.42C122.42,-112.1 139.68,-119.53 155.5,-126.25 161.88,-128.96 168.68,-131.82 175.28,-134.57"/>
<polygon fill="black" stroke="black" points="108.65,-102.31 98.08,-101.54 105.86,-108.74 108.65,-102.31"/>
</g>
<!-- Node2 -->
<g id="Node000002" class="node">
<title>Node2</title>
<g id="a_Node000002"><a xlink:href="group__SM2__DATATYPES.html" target="_top" xlink:title="Sprite, Sprite&#45;sheet, Frame, Cel, and FrameTag.">
<polygon fill="white" stroke="#666666" points="257.75,-116.88 170.5,-116.88 170.5,-97.62 257.75,-97.62 257.75,-116.88"/>
<text text-anchor="middle" x="214.12" y="-103.38" font-family="Helvetica,sans-Serif" font-size="10.00">SM2 Data Types</text>
</a>
</g>
</g>
<!-- Node1&#45;&gt;Node2 -->
<g id="edge1" class="edge">
<title>Node1&#45;&gt;Node2</title>
<path fill="none" stroke="black" d="M130.9,-95.38C144.39,-97.33 158.14,-99.31 170.43,-101.09"/>
<polygon fill="black" stroke="black" points="131.56,-91.94 121.16,-93.97 130.56,-98.87 131.56,-91.94"/>
</g>
<!-- Node5 -->
<g id="Node000005" class="node">
<title>Node5</title>
<g id="a_Node000005"><a xlink:href="group__SM2__DISPLAY.html" target="_top" xlink:title="Display Animated Color Sprites.">
<polygon fill="white" stroke="#666666" points="270.12,-79.5 158.12,-79.5 158.12,-49 270.12,-49 270.12,-79.5"/>
<text text-anchor="start" x="166.12" y="-66" font-family="Helvetica,sans-Serif" font-size="10.00">SM2 display Animated</text>
<text text-anchor="middle" x="214.12" y="-54.75" font-family="Helvetica,sans-Serif" font-size="10.00"> Color Sprites.</text>
</a>
</g>
</g>
<!-- Node1&#45;&gt;Node5 -->
<g id="edge4" class="edge">
<title>Node1&#45;&gt;Node5</title>
<path fill="none" stroke="black" d="M130.99,-75.57C140,-74.33 149.13,-73.07 157.87,-71.87"/>
<polygon fill="black" stroke="black" points="130.59,-72.09 121.16,-76.92 131.55,-79.03 130.59,-72.09"/>
</g>
<!-- Node3 -->
<g id="Node000003" class="node">
<title>Node3</title>
<g id="a_Node000003"><a xlink:href="group__SM2__INIT.html" target="_top" xlink:title="Initialization for SM2 module.">
<polygon fill="white" stroke="#666666" points="258.5,-30.5 169.75,-30.5 169.75,0 258.5,0 258.5,-30.5"/>
<text text-anchor="start" x="177.75" y="-17" font-family="Helvetica,sans-Serif" font-size="10.00">SM2 initialization</text>
<text text-anchor="middle" x="214.12" y="-5.75" font-family="Helvetica,sans-Serif" font-size="10.00"> for SM2 module.</text>
</a>
</g>
</g>
<!-- Node1&#45;&gt;Node3 -->
<g id="edge2" class="edge">
<title>Node1&#45;&gt;Node3</title>
<path fill="none" stroke="black" d="M103.36,-64.64C119.62,-56.87 138.36,-48.03 155.5,-40.25 162.25,-37.18 169.48,-33.98 176.46,-30.93"/>
<polygon fill="black" stroke="black" points="101.94,-61.43 94.44,-68.91 104.97,-67.74 101.94,-61.43"/>
</g>
</g>
</svg>
