<?xml version="1.0" encoding="UTF-8" standalone="no"?>
<!DOCTYPE svg PUBLIC "-//W3C//DTD SVG 1.1//EN"
 "http://www.w3.org/Graphics/SVG/1.1/DTD/svg11.dtd">
<!-- Generated by graphviz version 7.0.5 (20221223.1930)
 -->
<!-- Title: OPLL &#45; YM2413 / MSX&#45;MUSIC Pages: 1 -->
<svg width="273pt" height="64pt"
 viewBox="0.00 0.00 273.00 64.00" xmlns="http://www.w3.org/2000/svg" xmlns:xlink="http://www.w3.org/1999/xlink">
<g id="graph0" class="graph" transform="scale(1 1) rotate(0) translate(4 60)">
<title>OPLL &#45; YM2413 / MSX&#45;MUSIC</title>
<!-- Node1 -->
<g id="node1" class="node">
<title>Node1</title>
<g id="a_node1"><a xlink:title="#include &lt;opll.h&gt;">
<polygon fill="#999999" stroke="#666666" points="116,-42.5 0,-42.5 0,-12.5 116,-12.5 116,-42.5"/>
<text text-anchor="start" x="8" y="-30.5" font-family="Helvetica,sans-Serif" font-size="10.00">OPLL &#45; YM2413 / MSX</text>
<text text-anchor="middle" x="58" y="-19.5" font-family="Helvetica,sans-Serif" font-size="10.00">&#45;MUSIC</text>
</a>
</g>
</g>
<!-- Node3 -->
<g id="node2" class="node">
<title>Node3</title>
<g id="a_node2"><a xlink:href="group__OPLL__BUFFER.html" target="_top" xlink:title="#include &lt;opll_buf.h&gt; Buffered access to OPLL registers.">
<polygon fill="white" stroke="#666666" points="244,-56 173,-56 173,-37 244,-37 244,-56"/>
<text text-anchor="middle" x="208.5" y="-44" font-family="Helvetica,sans-Serif" font-size="10.00">OPLL Buffer</text>
</a>
</g>
</g>
<!-- Node1&#45;&gt;Node3 -->
<g id="edge2" class="edge">
<title>Node1&#45;&gt;Node3</title>
<path fill="none" stroke="black" d="M127.65,-36.28C143.21,-38.27 159.09,-40.31 172.56,-42.03"/>
<polygon fill="black" stroke="black" points="128.28,-32.84 117.92,-35.04 127.39,-39.78 128.28,-32.84"/>
</g>
<!-- Node2 -->
<g id="node3" class="node">
<title>Node2</title>
<g id="a_node3"><a xlink:href="group__OPLL__DEVICE.html" target="_top" xlink:title="Inspect, discover, enable/disable to access registers, of the OPLL sound chip.">
<polygon fill="white" stroke="#666666" points="265,-19 152,-19 152,0 265,0 265,-19"/>
<text text-anchor="middle" x="208.5" y="-7" font-family="Helvetica,sans-Serif" font-size="10.00">OPLL device interface</text>
</a>
</g>
</g>
<!-- Node1&#45;&gt;Node2 -->
<g id="edge1" class="edge">
<title>Node1&#45;&gt;Node2</title>
<path fill="none" stroke="black" d="M127.69,-19.17C135.73,-18.2 143.87,-17.21 151.7,-16.26"/>
<polygon fill="black" stroke="black" points="127.42,-15.68 117.92,-20.36 128.27,-22.63 127.42,-15.68"/>
</g>
</g>
</svg>
