<?xml version="1.0" encoding="UTF-8" standalone="no"?>
<!DOCTYPE svg PUBLIC "-//W3C//DTD SVG 1.1//EN"
 "http://www.w3.org/Graphics/SVG/1.1/DTD/svg11.dtd">
<!-- Generated by graphviz version 12.2.0 (20241103.1931)
 -->
<!-- Title: Audio/Sound drivers. Pages: 1 -->
<svg width="276pt" height="76pt"
 viewBox="0.00 0.00 275.50 75.88" xmlns="http://www.w3.org/2000/svg" xmlns:xlink="http://www.w3.org/1999/xlink">
<g id="graph0" class="graph" transform="scale(1 1) rotate(0) translate(4 71.88)">
<title>Audio/Sound drivers.</title>
<!-- Node2 -->
<g id="Node000002" class="node">
<title>Node2</title>
<g id="a_Node000002"><a xlink:href="group__AUDIO.html" target="_top" xlink:title="#include &lt;audio.h&gt;">
<polygon fill="white" stroke="#666666" points="267.5,-67.88 141.25,-67.88 141.25,-48.62 267.5,-48.62 267.5,-67.88"/>
<text text-anchor="middle" x="204.38" y="-54.38" font-family="Helvetica,sans-Serif" font-size="10.00">The libmsx audio replayer.</text>
</a>
</g>
</g>
<!-- Node1 -->
<g id="Node000001" class="node">
<title>Node1</title>
<g id="a_Node000001"><a xlink:title=" ">
<polygon fill="#999999" stroke="#666666" points="105.25,-45.88 0,-45.88 0,-26.62 105.25,-26.62 105.25,-45.88"/>
<text text-anchor="middle" x="52.62" y="-32.38" font-family="Helvetica,sans-Serif" font-size="10.00">Audio/Sound drivers.</text>
</a>
</g>
</g>
<!-- Node1&#45;&gt;Node2 -->
<g id="edge1" class="edge">
<title>Node1&#45;&gt;Node2</title>
<path fill="none" stroke="black" d="M116.74,-45.52C124.75,-46.7 132.94,-47.9 140.94,-49.08"/>
<polygon fill="black" stroke="black" points="117.48,-42.09 107.08,-44.1 116.46,-49.02 117.48,-42.09"/>
</g>
<!-- Node3 -->
<g id="Node000003" class="node">
<title>Node3</title>
<g id="a_Node000003"><a xlink:href="group__SOUND__OLD.html" target="_top" xlink:title="#include &lt;sound.h&gt;, #include &lt;sound_eg.h&gt;">
<polygon fill="white" stroke="#666666" points="263.38,-30.5 145.38,-30.5 145.38,0 263.38,0 263.38,-30.5"/>
<text text-anchor="start" x="153.38" y="-17" font-family="Helvetica,sans-Serif" font-size="10.00">Sound &#45; Old PSG sound</text>
<text text-anchor="middle" x="204.38" y="-5.75" font-family="Helvetica,sans-Serif" font-size="10.00"> driver</text>
</a>
</g>
</g>
<!-- Node1&#45;&gt;Node3 -->
<g id="edge2" class="edge">
<title>Node1&#45;&gt;Node3</title>
<path fill="none" stroke="black" d="M116.85,-27.38C126.22,-26.07 135.84,-24.72 145.11,-23.42"/>
<polygon fill="black" stroke="black" points="116.5,-23.9 107.08,-28.75 117.47,-30.83 116.5,-23.9"/>
</g>
</g>
</svg>
