<?xml version="1.0" encoding="UTF-8" standalone="no"?>
<!DOCTYPE svg PUBLIC "-//W3C//DTD SVG 1.1//EN"
 "http://www.w3.org/Graphics/SVG/1.1/DTD/svg11.dtd">
<!-- Generated by graphviz version 7.0.4 (20221203.1631)
 -->
<!-- Title: Banked Memory as a storage of Named Resources. Pages: 1 -->
<svg width="474pt" height="98pt"
 viewBox="0.00 0.00 474.00 97.50" xmlns="http://www.w3.org/2000/svg" xmlns:xlink="http://www.w3.org/1999/xlink">
<g id="graph0" class="graph" transform="scale(1 1) rotate(0) translate(4 93.5)">
<title>Banked Memory as a storage of Named Resources.</title>
<!-- Node2 -->
<g id="node1" class="node">
<title>Node2</title>
<g id="a_node1"><a xlink:href="group__BANKED__MEMORY.html" target="_top" xlink:title="#include &lt;bmem.h&gt;">
<polygon fill="white" stroke="#666666" points="126,-62.5 0,-62.5 0,-32.5 126,-32.5 126,-62.5"/>
<text text-anchor="start" x="8" y="-50.5" font-family="Helvetica,sans-Serif" font-size="10.00">Banked Memory interface</text>
<text text-anchor="middle" x="63" y="-39.5" font-family="Helvetica,sans-Serif" font-size="10.00"> for MegaROM.</text>
</a>
</g>
</g>
<!-- Node1 -->
<g id="node2" class="node">
<title>Node1</title>
<g id="a_node2"><a xlink:title="#include &lt;resources.h&gt;">
<polygon fill="#999999" stroke="#666666" points="308,-62.5 162,-62.5 162,-32.5 308,-32.5 308,-62.5"/>
<text text-anchor="start" x="170" y="-50.5" font-family="Helvetica,sans-Serif" font-size="10.00">Banked Memory as a</text>
<text text-anchor="middle" x="235" y="-39.5" font-family="Helvetica,sans-Serif" font-size="10.00"> storage of Named Resources.</text>
</a>
</g>
</g>
<!-- Node2&#45;&gt;Node1 -->
<g id="edge1" class="edge">
<title>Node2&#45;&gt;Node1</title>
<path fill="none" stroke="black" d="M137.78,-47.5C145.68,-47.5 153.71,-47.5 161.59,-47.5"/>
<polygon fill="black" stroke="black" points="137.85,-44 127.85,-47.5 137.85,-51 137.85,-44"/>
</g>
<!-- Node3 -->
<g id="node3" class="node">
<title>Node3</title>
<g id="a_node3"><a xlink:href="group__RESOURCES__FIND.html" target="_top" xlink:title="APIs for looking up a resource in banked memory by name.">
<polygon fill="white" stroke="#666666" points="451,-89.5 359,-89.5 359,-59.5 451,-59.5 451,-89.5"/>
<text text-anchor="start" x="367" y="-77.5" font-family="Helvetica,sans-Serif" font-size="10.00">Find a resource in</text>
<text text-anchor="middle" x="405" y="-66.5" font-family="Helvetica,sans-Serif" font-size="10.00"> banked memory.</text>
</a>
</g>
</g>
<!-- Node1&#45;&gt;Node3 -->
<g id="edge2" class="edge">
<title>Node1&#45;&gt;Node3</title>
<path fill="none" stroke="black" d="M319.49,-60.92C332.95,-63.08 346.43,-65.25 358.54,-67.19"/>
<polygon fill="black" stroke="black" points="320.15,-57.48 309.72,-59.35 319.03,-64.39 320.15,-57.48"/>
</g>
<!-- Node4 -->
<g id="node4" class="node">
<title>Node4</title>
<g id="a_node4"><a xlink:href="group__RESOURCES__INDIRECT__ACCESS.html" target="_top" xlink:title="APIs for indirect access to banked memory by name.">
<polygon fill="white" stroke="#666666" points="466,-41 344,-41 344,0 466,0 466,-41"/>
<text text-anchor="start" x="352" y="-29" font-family="Helvetica,sans-Serif" font-size="10.00">Reading and copying</text>
<text text-anchor="start" x="352" y="-18" font-family="Helvetica,sans-Serif" font-size="10.00"> from resource in banked</text>
<text text-anchor="middle" x="405" y="-7" font-family="Helvetica,sans-Serif" font-size="10.00"> memory.</text>
</a>
</g>
</g>
<!-- Node1&#45;&gt;Node4 -->
<g id="edge3" class="edge">
<title>Node1&#45;&gt;Node4</title>
<path fill="none" stroke="black" d="M319.37,-34.1C327.58,-32.78 335.79,-31.46 343.7,-30.19"/>
<polygon fill="black" stroke="black" points="319.03,-30.61 309.72,-35.65 320.15,-37.52 319.03,-30.61"/>
</g>
</g>
</svg>
