<?xml version="1.0" encoding="UTF-8" standalone="no"?>
<!DOCTYPE svg PUBLIC "-//W3C//DTD SVG 1.1//EN"
 "http://www.w3.org/Graphics/SVG/1.1/DTD/svg11.dtd">
<!-- Generated by graphviz version 9.0.0 (20230911.1827)
 -->
<!-- Title: SNDDRV &#45; PSG sound driver Pages: 1 -->
<svg width="416pt" height="64pt"
 viewBox="0.00 0.00 416.00 64.25" xmlns="http://www.w3.org/2000/svg" xmlns:xlink="http://www.w3.org/1999/xlink">
<g id="graph0" class="graph" transform="scale(1 1) rotate(0) translate(4 60.25)">
<title>SNDDRV &#45; PSG sound driver</title>
<!-- Node2 -->
<g id="Node000002" class="node">
<title>Node2</title>
<g id="a_Node000002"><a xlink:href="group__AUDIO__DECODERS.html" target="_top" xlink:title=" ">
<polygon fill="white" stroke="#666666" points="116.5,-42.88 0,-42.88 0,-12.37 116.5,-12.37 116.5,-42.88"/>
<text text-anchor="start" x="8" y="-29.38" font-family="Helvetica,sans-Serif" font-size="10.00">Decoders for the libmsx</text>
<text text-anchor="middle" x="58.25" y="-18.12" font-family="Helvetica,sans-Serif" font-size="10.00"> audio replayer.</text>
</a>
</g>
</g>
<!-- Node1 -->
<g id="Node000001" class="node">
<title>Node1</title>
<g id="a_Node000001"><a xlink:title="#include &lt;snddrv.h&gt;">
<polygon fill="#999999" stroke="#666666" points="266.75,-42.88 152.5,-42.88 152.5,-12.37 266.75,-12.37 266.75,-42.88"/>
<text text-anchor="start" x="160.5" y="-29.38" font-family="Helvetica,sans-Serif" font-size="10.00">SNDDRV &#45; PSG sound</text>
<text text-anchor="middle" x="209.62" y="-18.12" font-family="Helvetica,sans-Serif" font-size="10.00"> driver</text>
</a>
</g>
</g>
<!-- Node2&#45;&gt;Node1 -->
<g id="edge1" class="edge">
<title>Node2&#45;&gt;Node1</title>
<path fill="none" stroke="black" d="M127.95,-27.62C136.06,-27.62 144.27,-27.62 152.19,-27.62"/>
<polygon fill="black" stroke="black" points="128.09,-24.13 118.09,-27.63 128.09,-31.13 128.09,-24.13"/>
</g>
<!-- Node4 -->
<g id="Node000004" class="node">
<title>Node4</title>
<g id="a_Node000004"><a xlink:href="group__SNDDRV__API.html" target="_top" xlink:title="SNDDRV APIs.">
<polygon fill="white" stroke="#666666" points="396,-56.25 314.75,-56.25 314.75,-37 396,-37 396,-56.25"/>
<text text-anchor="middle" x="355.38" y="-42.75" font-family="Helvetica,sans-Serif" font-size="10.00">SNDDRV APIs</text>
</a>
</g>
</g>
<!-- Node1&#45;&gt;Node4 -->
<g id="edge3" class="edge">
<title>Node1&#45;&gt;Node4</title>
<path fill="none" stroke="black" d="M278.33,-36.57C290.74,-38.21 303.31,-39.88 314.56,-41.36"/>
<polygon fill="black" stroke="black" points="278.9,-33.12 268.53,-35.28 277.98,-40.06 278.9,-33.12"/>
</g>
<!-- Node3 -->
<g id="Node000003" class="node">
<title>Node3</title>
<g id="a_Node000003"><a xlink:href="group__SNDDRV__DATA.html" target="_top" xlink:title="Sound data structure for SNDDRV.">
<polygon fill="white" stroke="#666666" points="408,-19.25 302.75,-19.25 302.75,0 408,0 408,-19.25"/>
<text text-anchor="middle" x="355.38" y="-5.75" font-family="Helvetica,sans-Serif" font-size="10.00">Sound data structure</text>
</a>
</g>
</g>
<!-- Node1&#45;&gt;Node3 -->
<g id="edge2" class="edge">
<title>Node1&#45;&gt;Node3</title>
<path fill="none" stroke="black" d="M278.34,-19.15C286.41,-18.13 294.55,-17.12 302.35,-16.14"/>
<polygon fill="black" stroke="black" points="278.02,-15.66 268.53,-20.37 278.89,-22.6 278.02,-15.66"/>
</g>
</g>
</svg>
