<?xml version="1.0" encoding="UTF-8" standalone="no"?>
<!DOCTYPE svg PUBLIC "-//W3C//DTD SVG 1.1//EN"
 "http://www.w3.org/Graphics/SVG/1.1/DTD/svg11.dtd">
<!-- Generated by graphviz version 7.0.5 (20221223.1930)
 -->
<!-- Title: Sound &#45; Old PSG sound driver Pages: 1 -->
<svg width="327pt" height="64pt"
 viewBox="0.00 0.00 327.00 64.00" xmlns="http://www.w3.org/2000/svg" xmlns:xlink="http://www.w3.org/1999/xlink">
<g id="graph0" class="graph" transform="scale(1 1) rotate(0) translate(4 60)">
<title>Sound &#45; Old PSG sound driver</title>
<!-- Node1 -->
<g id="node1" class="node">
<title>Node1</title>
<g id="a_node1"><a xlink:title="#include &lt;sound.h&gt;, #include &lt;sound_eg.h&gt;">
<polygon fill="#999999" stroke="#666666" points="119,-42.5 0,-42.5 0,-12.5 119,-12.5 119,-42.5"/>
<text text-anchor="start" x="8" y="-30.5" font-family="Helvetica,sans-Serif" font-size="10.00">Sound &#45; Old PSG sound</text>
<text text-anchor="middle" x="59.5" y="-19.5" font-family="Helvetica,sans-Serif" font-size="10.00"> driver</text>
</a>
</g>
</g>
<!-- Node2 -->
<g id="node2" class="node">
<title>Node2</title>
<g id="a_node2"><a xlink:href="group__SOUND__OLD__API.html" target="_top" xlink:title="Old PSG sound driver APIs.">
<polygon fill="white" stroke="#666666" points="304,-56 170,-56 170,-37 304,-37 304,-56"/>
<text text-anchor="middle" x="237" y="-44" font-family="Helvetica,sans-Serif" font-size="10.00">Old PSG sound driver APIs</text>
</a>
</g>
</g>
<!-- Node1&#45;&gt;Node2 -->
<g id="edge1" class="edge">
<title>Node1&#45;&gt;Node2</title>
<path fill="none" stroke="black" d="M130.59,-35.09C143.48,-36.48 156.89,-37.94 169.67,-39.32"/>
<polygon fill="black" stroke="black" points="131.25,-31.64 120.93,-34.04 130.5,-38.6 131.25,-31.64"/>
</g>
<!-- Node3 -->
<g id="node3" class="node">
<title>Node3</title>
<g id="a_node3"><a xlink:href="group__SOUND__OLD__EG__API.html" target="_top" xlink:title="Software envelope generator interface.">
<polygon fill="white" stroke="#666666" points="319,-19 155,-19 155,0 319,0 319,-19"/>
<text text-anchor="middle" x="237" y="-7" font-family="Helvetica,sans-Serif" font-size="10.00">Software envelope generator APIs</text>
</a>
</g>
</g>
<!-- Node1&#45;&gt;Node3 -->
<g id="edge2" class="edge">
<title>Node1&#45;&gt;Node3</title>
<path fill="none" stroke="black" d="M130.8,-20.29C138.69,-19.48 146.76,-18.65 154.77,-17.83"/>
<polygon fill="black" stroke="black" points="130.52,-16.8 120.93,-21.3 131.24,-23.76 130.52,-16.8"/>
</g>
</g>
</svg>
