<?xml version="1.0" encoding="UTF-8" standalone="no"?>
<!DOCTYPE svg PUBLIC "-//W3C//DTD SVG 1.1//EN"
 "http://www.w3.org/Graphics/SVG/1.1/DTD/svg11.dtd">
<!-- Generated by graphviz version 12.2.0 (20241103.1931)
 -->
<!-- Title: NDP &#45; NDP sound driver. Pages: 1 -->
<svg width="439pt" height="88pt"
 viewBox="0.00 0.00 438.50 87.50" xmlns="http://www.w3.org/2000/svg" xmlns:xlink="http://www.w3.org/1999/xlink">
<g id="graph0" class="graph" transform="scale(1 1) rotate(0) translate(4 83.5)">
<title>NDP &#45; NDP sound driver.</title>
<!-- Node2 -->
<g id="Node000002" class="node">
<title>Node2</title>
<g id="a_Node000002"><a xlink:href="group__LIBMSX__REPLAYER.html" target="_top" xlink:title=" ">
<polygon fill="white" stroke="#666666" points="124,-48.88 0,-48.88 0,-29.62 124,-29.62 124,-48.88"/>
<text text-anchor="middle" x="62" y="-35.38" font-family="Helvetica,sans-Serif" font-size="10.00">Sound drivers / replayers.</text>
</a>
</g>
</g>
<!-- Node1 -->
<g id="Node000001" class="node">
<title>Node1</title>
<g id="a_Node000001"><a xlink:title="#include &lt;NDP.h&gt; NDP &#45; PSG Driver for MSX (libmsx version).">
<polygon fill="#999999" stroke="#666666" points="282.5,-48.88 160,-48.88 160,-29.62 282.5,-29.62 282.5,-48.88"/>
<text text-anchor="middle" x="221.25" y="-35.38" font-family="Helvetica,sans-Serif" font-size="10.00">NDP &#45; NDP sound driver.</text>
</a>
</g>
</g>
<!-- Node2&#45;&gt;Node1 -->
<g id="edge1" class="edge">
<title>Node2&#45;&gt;Node1</title>
<path fill="none" stroke="black" d="M135.56,-39.25C143.63,-39.25 151.79,-39.25 159.69,-39.25"/>
<polygon fill="black" stroke="black" points="135.76,-35.75 125.76,-39.25 135.76,-42.75 135.76,-35.75"/>
</g>
<!-- Node3 -->
<g id="Node000003" class="node">
<title>Node3</title>
<g id="a_Node000003"><a xlink:href="group__NDP__REPLAYER.html" target="_top" xlink:title="The replayer APIs of the NDP sound driver.">
<polygon fill="white" stroke="#666666" points="430.5,-79.5 318.5,-79.5 318.5,-49 430.5,-49 430.5,-79.5"/>
<text text-anchor="start" x="326.5" y="-66" font-family="Helvetica,sans-Serif" font-size="10.00">The replayer APIs of</text>
<text text-anchor="middle" x="374.5" y="-54.75" font-family="Helvetica,sans-Serif" font-size="10.00"> the NDP sound driver.</text>
</a>
</g>
</g>
<!-- Node1&#45;&gt;Node3 -->
<g id="edge2" class="edge">
<title>Node1&#45;&gt;Node3</title>
<path fill="none" stroke="black" d="M294.23,-51.15C302.29,-52.48 310.41,-53.82 318.22,-55.11"/>
<polygon fill="black" stroke="black" points="294.83,-47.7 284.39,-49.52 293.69,-54.61 294.83,-47.7"/>
</g>
<!-- Node4 -->
<g id="Node000004" class="node">
<title>Node4</title>
<g id="a_Node000004"><a xlink:href="group__NDP__SONG.html" target="_top" xlink:title=" ">
<polygon fill="white" stroke="#666666" points="430.12,-30.5 318.88,-30.5 318.88,0 430.12,0 430.12,-30.5"/>
<text text-anchor="start" x="326.88" y="-17" font-family="Helvetica,sans-Serif" font-size="10.00">Open NDP song data,</text>
<text text-anchor="middle" x="374.5" y="-5.75" font-family="Helvetica,sans-Serif" font-size="10.00"> and set it in the driver.</text>
</a>
</g>
</g>
<!-- Node1&#45;&gt;Node4 -->
<g id="edge3" class="edge">
<title>Node1&#45;&gt;Node4</title>
<path fill="none" stroke="black" d="M294.1,-27.85C302.38,-26.54 310.71,-25.21 318.71,-23.94"/>
<polygon fill="black" stroke="black" points="293.72,-24.37 284.39,-29.39 294.82,-31.28 293.72,-24.37"/>
</g>
</g>
</svg>
