<?xml version="1.0" encoding="UTF-8" standalone="no"?>
<!DOCTYPE svg PUBLIC "-//W3C//DTD SVG 1.1//EN"
 "http://www.w3.org/Graphics/SVG/1.1/DTD/svg11.dtd">
<!-- Generated by graphviz version 12.2.0 (20241103.1931)
 -->
<!-- Title: Slot &#45; Individual Address Spaces of devices. Pages: 1 -->
<svg width="397pt" height="39pt"
 viewBox="0.00 0.00 397.25 38.50" xmlns="http://www.w3.org/2000/svg" xmlns:xlink="http://www.w3.org/1999/xlink">
<g id="graph0" class="graph" transform="scale(1 1) rotate(0) translate(4 34.5)">
<title>Slot &#45; Individual Address Spaces of devices.</title>
<!-- Node2 -->
<g id="Node000002" class="node">
<title>Node2</title>
<g id="a_Node000002"><a xlink:href="group__LIBMSX__SYS.html" target="_top" xlink:title=" ">
<polygon fill="white" stroke="#666666" points="117.25,-30.5 0,-30.5 0,0 117.25,0 117.25,-30.5"/>
<text text-anchor="start" x="8" y="-17" font-family="Helvetica,sans-Serif" font-size="10.00">BIOS, Interrupts, Slots,</text>
<text text-anchor="middle" x="58.62" y="-5.75" font-family="Helvetica,sans-Serif" font-size="10.00"> etc.</text>
</a>
</g>
</g>
<!-- Node1 -->
<g id="Node000001" class="node">
<title>Node1</title>
<g id="a_Node000001"><a xlink:title="#include &lt;slot.h&gt;">
<polygon fill="#999999" stroke="#666666" points="273.5,-30.5 153.25,-30.5 153.25,0 273.5,0 273.5,-30.5"/>
<text text-anchor="start" x="161.25" y="-17" font-family="Helvetica,sans-Serif" font-size="10.00">Slot &#45; Individual Address</text>
<text text-anchor="middle" x="213.38" y="-5.75" font-family="Helvetica,sans-Serif" font-size="10.00"> Spaces of devices.</text>
</a>
</g>
</g>
<!-- Node2&#45;&gt;Node1 -->
<g id="edge1" class="edge">
<title>Node2&#45;&gt;Node1</title>
<path fill="none" stroke="black" d="M128.64,-15.25C136.7,-15.25 144.86,-15.25 152.77,-15.25"/>
<polygon fill="black" stroke="black" points="128.89,-11.75 118.89,-15.25 128.89,-18.75 128.89,-11.75"/>
</g>
<!-- Node3 -->
<g id="Node000003" class="node">
<title>Node3</title>
<g id="a_Node000003"><a xlink:href="group__SLOT__INSPECT.html" target="_top" xlink:title="Inspect the slot mechanism of MSX.">
<polygon fill="white" stroke="#666666" points="389.25,-24.88 309.5,-24.88 309.5,-5.63 389.25,-5.63 389.25,-24.88"/>
<text text-anchor="middle" x="349.38" y="-11.38" font-family="Helvetica,sans-Serif" font-size="10.00">Slot inspection</text>
</a>
</g>
</g>
<!-- Node1&#45;&gt;Node3 -->
<g id="edge2" class="edge">
<title>Node1&#45;&gt;Node3</title>
<path fill="none" stroke="black" d="M285.4,-15.25C293.5,-15.25 301.53,-15.25 309.01,-15.25"/>
<polygon fill="black" stroke="black" points="285.44,-11.75 275.44,-15.25 285.44,-18.75 285.44,-11.75"/>
</g>
</g>
</svg>
