<?xml version="1.0" encoding="UTF-8" standalone="no"?>
<!DOCTYPE svg PUBLIC "-//W3C//DTD SVG 1.1//EN"
 "http://www.w3.org/Graphics/SVG/1.1/DTD/svg11.dtd">
<!-- Generated by graphviz version 9.0.0 (20230911.1827)
 -->
<!-- Title: Banked Memory interface for MegaROM. Pages: 1 -->
<svg width="315pt" height="137pt"
 viewBox="0.00 0.00 315.25 136.50" xmlns="http://www.w3.org/2000/svg" xmlns:xlink="http://www.w3.org/1999/xlink">
<g id="graph0" class="graph" transform="scale(1 1) rotate(0) translate(4 132.5)">
<title>Banked Memory interface for MegaROM.</title>
<!-- Node1 -->
<g id="Node000001" class="node">
<title>Node1</title>
<g id="a_Node000001"><a xlink:title="#include &lt;bmem.h&gt;">
<polygon fill="#999999" stroke="#666666" points="125.5,-79.5 0,-79.5 0,-49 125.5,-49 125.5,-79.5"/>
<text text-anchor="start" x="8" y="-66" font-family="Helvetica,sans-Serif" font-size="10.00">Banked Memory interface</text>
<text text-anchor="middle" x="62.75" y="-54.75" font-family="Helvetica,sans-Serif" font-size="10.00"> for MegaROM.</text>
</a>
</g>
</g>
<!-- Node2 -->
<g id="Node000002" class="node">
<title>Node2</title>
<g id="a_Node000002"><a xlink:href="group__BANKED__MEMORY__DIRECT__ACCESS.html" target="_top" xlink:title="APIs for direct access to 16KiB segments of banked memory.">
<polygon fill="white" stroke="#666666" points="305,-128.5 163.75,-128.5 163.75,-98 305,-98 305,-128.5"/>
<text text-anchor="start" x="171.75" y="-115" font-family="Helvetica,sans-Serif" font-size="10.00">Direct access to banked</text>
<text text-anchor="middle" x="234.38" y="-103.75" font-family="Helvetica,sans-Serif" font-size="10.00"> memory by switching page 2.</text>
</a>
</g>
</g>
<!-- Node1&#45;&gt;Node2 -->
<g id="edge1" class="edge">
<title>Node1&#45;&gt;Node2</title>
<path fill="none" stroke="black" d="M128.61,-82.98C145.2,-87.78 162.87,-92.88 178.88,-97.51"/>
<polygon fill="black" stroke="black" points="129.92,-79.72 119.34,-80.31 127.98,-86.45 129.92,-79.72"/>
</g>
<!-- Node3 -->
<g id="Node000003" class="node">
<title>Node3</title>
<g id="a_Node000003"><a xlink:href="group__BANKED__MEMORY__INDIRECT__ACCESS.html" target="_top" xlink:title="APIs for indirect access to banked memory.">
<polygon fill="white" stroke="#666666" points="289.62,-79.5 179.12,-79.5 179.12,-49 289.62,-49 289.62,-79.5"/>
<text text-anchor="start" x="187.12" y="-66" font-family="Helvetica,sans-Serif" font-size="10.00">Reading and copying</text>
<text text-anchor="middle" x="234.38" y="-54.75" font-family="Helvetica,sans-Serif" font-size="10.00"> from banked memory.</text>
</a>
</g>
</g>
<!-- Node1&#45;&gt;Node3 -->
<g id="edge2" class="edge">
<title>Node1&#45;&gt;Node3</title>
<path fill="none" stroke="black" d="M137.05,-64.25C151.04,-64.25 165.46,-64.25 178.74,-64.25"/>
<polygon fill="black" stroke="black" points="137.46,-60.75 127.46,-64.25 137.46,-67.75 137.46,-60.75"/>
</g>
<!-- Node4 -->
<g id="Node000004" class="node">
<title>Node4</title>
<g id="a_Node000004"><a xlink:href="group__RESOURCES.html" target="_top" xlink:title="#include &lt;resources.h&gt;">
<polygon fill="white" stroke="#666666" points="307.25,-30.5 161.5,-30.5 161.5,0 307.25,0 307.25,-30.5"/>
<text text-anchor="start" x="169.5" y="-17" font-family="Helvetica,sans-Serif" font-size="10.00">Banked Memory as a</text>
<text text-anchor="middle" x="234.38" y="-5.75" font-family="Helvetica,sans-Serif" font-size="10.00"> storage of Named Resources.</text>
</a>
</g>
</g>
<!-- Node1&#45;&gt;Node4 -->
<g id="edge3" class="edge">
<title>Node1&#45;&gt;Node4</title>
<path fill="none" stroke="black" d="M128.61,-45.52C145.2,-40.72 162.87,-35.62 178.88,-30.99"/>
<polygon fill="black" stroke="black" points="127.98,-42.05 119.34,-48.19 129.92,-48.78 127.98,-42.05"/>
</g>
</g>
</svg>
