<?xml version="1.0" encoding="UTF-8" standalone="no"?>
<!DOCTYPE svg PUBLIC "-//W3C//DTD SVG 1.1//EN"
 "http://www.w3.org/Graphics/SVG/1.1/DTD/svg11.dtd">
<!-- Generated by graphviz version 12.2.0 (20241103.1931)
 -->
<!-- Title: SNDDRV &#45; PSG sound driver Pages: 1 -->
<svg width="424pt" height="64pt"
 viewBox="0.00 0.00 423.50 64.25" xmlns="http://www.w3.org/2000/svg" xmlns:xlink="http://www.w3.org/1999/xlink">
<g id="graph0" class="graph" transform="scale(1 1) rotate(0) translate(4 60.25)">
<title>SNDDRV &#45; PSG sound driver</title>
<!-- Node2 -->
<g id="Node000002" class="node">
<title>Node2</title>
<g id="a_Node000002"><a xlink:href="group__LIBMSX__REPLAYER.html" target="_top" xlink:title=" ">
<polygon fill="white" stroke="#666666" points="124,-37.25 0,-37.25 0,-18 124,-18 124,-37.25"/>
<text text-anchor="middle" x="62" y="-23.75" font-family="Helvetica,sans-Serif" font-size="10.00">Sound drivers / replayers.</text>
</a>
</g>
</g>
<!-- Node1 -->
<g id="Node000001" class="node">
<title>Node1</title>
<g id="a_Node000001"><a xlink:title="#include &lt;snddrv.h&gt; SNDDRV is a PSG sound driver inspired by Arkos Tracker 2.">
<polygon fill="#999999" stroke="#666666" points="274.25,-42.88 160,-42.88 160,-12.37 274.25,-12.37 274.25,-42.88"/>
<text text-anchor="start" x="168" y="-29.38" font-family="Helvetica,sans-Serif" font-size="10.00">SNDDRV &#45; PSG sound</text>
<text text-anchor="middle" x="217.12" y="-18.12" font-family="Helvetica,sans-Serif" font-size="10.00"> driver</text>
</a>
</g>
</g>
<!-- Node2&#45;&gt;Node1 -->
<g id="edge1" class="edge">
<title>Node2&#45;&gt;Node1</title>
<path fill="none" stroke="black" d="M135.71,-27.62C143.76,-27.62 151.86,-27.62 159.67,-27.62"/>
<polygon fill="black" stroke="black" points="135.91,-24.13 125.91,-27.63 135.91,-31.13 135.91,-24.13"/>
</g>
<!-- Node4 -->
<g id="Node000004" class="node">
<title>Node4</title>
<g id="a_Node000004"><a xlink:href="group__SNDDRV__API.html" target="_top" xlink:title="SNDDRV APIs.">
<polygon fill="white" stroke="#666666" points="403.5,-56.25 322.25,-56.25 322.25,-37 403.5,-37 403.5,-56.25"/>
<text text-anchor="middle" x="362.88" y="-42.75" font-family="Helvetica,sans-Serif" font-size="10.00">SNDDRV APIs</text>
</a>
</g>
</g>
<!-- Node1&#45;&gt;Node4 -->
<g id="edge3" class="edge">
<title>Node1&#45;&gt;Node4</title>
<path fill="none" stroke="black" d="M285.83,-36.57C298.24,-38.21 310.81,-39.88 322.06,-41.36"/>
<polygon fill="black" stroke="black" points="286.4,-33.12 276.03,-35.28 285.48,-40.06 286.4,-33.12"/>
</g>
<!-- Node3 -->
<g id="Node000003" class="node">
<title>Node3</title>
<g id="a_Node000003"><a xlink:href="group__SNDDRV__DATA.html" target="_top" xlink:title="Sound data structure for SNDDRV.">
<polygon fill="white" stroke="#666666" points="415.5,-19.25 310.25,-19.25 310.25,0 415.5,0 415.5,-19.25"/>
<text text-anchor="middle" x="362.88" y="-5.75" font-family="Helvetica,sans-Serif" font-size="10.00">Sound data structure</text>
</a>
</g>
</g>
<!-- Node1&#45;&gt;Node3 -->
<g id="edge2" class="edge">
<title>Node1&#45;&gt;Node3</title>
<path fill="none" stroke="black" d="M285.84,-19.15C293.91,-18.13 302.05,-17.12 309.85,-16.14"/>
<polygon fill="black" stroke="black" points="285.52,-15.66 276.03,-20.37 286.39,-22.6 285.52,-15.66"/>
</g>
</g>
</svg>
