<?xml version="1.0" encoding="UTF-8" standalone="no"?>
<!DOCTYPE svg PUBLIC "-//W3C//DTD SVG 1.1//EN"
 "http://www.w3.org/Graphics/SVG/1.1/DTD/svg11.dtd">
<!-- Generated by graphviz version 12.2.0 (20241103.1931)
 -->
<!-- Title: NDP &#45; NDP sound driver. Pages: 1 -->
<svg width="449pt" height="147pt"
 viewBox="0.00 0.00 449.00 146.50" xmlns="http://www.w3.org/2000/svg" xmlns:xlink="http://www.w3.org/1999/xlink">
<g id="graph0" class="graph" transform="scale(1 1) rotate(0) translate(4 142.5)">
<title>NDP &#45; NDP sound driver.</title>
<!-- Node2 -->
<g id="Node000002" class="node">
<title>Node2</title>
<g id="a_Node000002"><a xlink:href="group__LIBMSX__REPLAYER.html" target="_top" xlink:title=" ">
<polygon fill="white" stroke="#666666" points="124,-78.88 0,-78.88 0,-59.62 124,-59.62 124,-78.88"/>
<text text-anchor="middle" x="62" y="-65.38" font-family="Helvetica,sans-Serif" font-size="10.00">Sound drivers / replayers.</text>
</a>
</g>
</g>
<!-- Node1 -->
<g id="Node000001" class="node">
<title>Node1</title>
<g id="a_Node000001"><a xlink:title="#include &lt;NDP.h&gt; NDP &#45; PSG Driver for MSX (libmsx version).">
<polygon fill="#999999" stroke="#666666" points="282.5,-78.88 160,-78.88 160,-59.62 282.5,-59.62 282.5,-78.88"/>
<text text-anchor="middle" x="221.25" y="-65.38" font-family="Helvetica,sans-Serif" font-size="10.00">NDP &#45; NDP sound driver.</text>
</a>
</g>
</g>
<!-- Node2&#45;&gt;Node1 -->
<g id="edge1" class="edge">
<title>Node2&#45;&gt;Node1</title>
<path fill="none" stroke="black" d="M135.56,-69.25C143.63,-69.25 151.79,-69.25 159.69,-69.25"/>
<polygon fill="black" stroke="black" points="135.76,-65.75 125.76,-69.25 135.76,-72.75 135.76,-65.75"/>
</g>
<!-- Node3 -->
<g id="Node000003" class="node">
<title>Node3</title>
<g id="a_Node000003"><a xlink:href="group__NDP__REPLAYER.html" target="_top" xlink:title="The replayer APIs of the NDP sound driver.">
<polygon fill="white" stroke="#666666" points="435.75,-138.5 323.75,-138.5 323.75,-108 435.75,-108 435.75,-138.5"/>
<text text-anchor="start" x="331.75" y="-125" font-family="Helvetica,sans-Serif" font-size="10.00">The replayer APIs of</text>
<text text-anchor="middle" x="379.75" y="-113.75" font-family="Helvetica,sans-Serif" font-size="10.00"> the NDP sound driver.</text>
</a>
</g>
</g>
<!-- Node1&#45;&gt;Node3 -->
<g id="edge2" class="edge">
<title>Node1&#45;&gt;Node3</title>
<path fill="none" stroke="black" d="M262.13,-83.01C283.82,-90.49 310.73,-99.78 333.23,-107.54"/>
<polygon fill="black" stroke="black" points="263.35,-79.73 252.75,-79.77 261.06,-86.34 263.35,-79.73"/>
</g>
<!-- Node5 -->
<g id="Node000005" class="node">
<title>Node5</title>
<g id="a_Node000005"><a xlink:href="group__NDP__SFX.html" target="_top" xlink:title=" ">
<polygon fill="white" stroke="#666666" points="441,-90.12 318.5,-90.12 318.5,-48.38 441,-48.38 441,-90.12"/>
<text text-anchor="start" x="326.5" y="-76.62" font-family="Helvetica,sans-Serif" font-size="10.00">Open NDS sound effects</text>
<text text-anchor="start" x="326.5" y="-65.38" font-family="Helvetica,sans-Serif" font-size="10.00"> data, and set it in the</text>
<text text-anchor="middle" x="379.75" y="-54.12" font-family="Helvetica,sans-Serif" font-size="10.00"> driver.</text>
</a>
</g>
</g>
<!-- Node1&#45;&gt;Node5 -->
<g id="edge4" class="edge">
<title>Node1&#45;&gt;Node5</title>
<path fill="none" stroke="black" d="M294.05,-69.25C302.1,-69.25 310.25,-69.25 318.15,-69.25"/>
<polygon fill="black" stroke="black" points="294.27,-65.75 284.27,-69.25 294.27,-72.75 294.27,-65.75"/>
</g>
<!-- Node4 -->
<g id="Node000004" class="node">
<title>Node4</title>
<g id="a_Node000004"><a xlink:href="group__NDP__SONG.html" target="_top" xlink:title=" ">
<polygon fill="white" stroke="#666666" points="435.38,-30.5 324.12,-30.5 324.12,0 435.38,0 435.38,-30.5"/>
<text text-anchor="start" x="332.12" y="-17" font-family="Helvetica,sans-Serif" font-size="10.00">Open NDP song data,</text>
<text text-anchor="middle" x="379.75" y="-5.75" font-family="Helvetica,sans-Serif" font-size="10.00"> and set it in the driver.</text>
</a>
</g>
</g>
<!-- Node1&#45;&gt;Node4 -->
<g id="edge3" class="edge">
<title>Node1&#45;&gt;Node4</title>
<path fill="none" stroke="black" d="M262.13,-55.49C283.82,-48.01 310.73,-38.72 333.23,-30.96"/>
<polygon fill="black" stroke="black" points="261.06,-52.16 252.75,-58.73 263.35,-58.77 261.06,-52.16"/>
</g>
</g>
</svg>
