<?xml version="1.0" encoding="UTF-8" standalone="no"?>
<!DOCTYPE svg PUBLIC "-//W3C//DTD SVG 1.1//EN"
 "http://www.w3.org/Graphics/SVG/1.1/DTD/svg11.dtd">
<!-- Generated by graphviz version 12.2.0 (20241103.1931)
 -->
<!-- Title: BIOS &#45; Basic Input/Output System Pages: 1 -->
<svg width="406pt" height="150pt"
 viewBox="0.00 0.00 405.50 149.88" xmlns="http://www.w3.org/2000/svg" xmlns:xlink="http://www.w3.org/1999/xlink">
<g id="graph0" class="graph" transform="scale(1 1) rotate(0) translate(4 145.88)">
<title>BIOS &#45; Basic Input/Output System</title>
<!-- Node1 -->
<g id="Node000001" class="node">
<title>Node1</title>
<g id="a_Node000001"><a xlink:title="#include &lt;bios.h&gt;">
<polygon fill="#999999" stroke="#666666" points="249.5,-91.5 153.25,-91.5 153.25,-61 249.5,-61 249.5,-91.5"/>
<text text-anchor="start" x="161.25" y="-78" font-family="Helvetica,sans-Serif" font-size="10.00">BIOS &#45; Basic Input</text>
<text text-anchor="middle" x="201.38" y="-66.75" font-family="Helvetica,sans-Serif" font-size="10.00">/Output System</text>
</a>
</g>
</g>
<!-- Node3 -->
<g id="Node000003" class="node">
<title>Node3</title>
<g id="a_Node000003"><a xlink:href="group__BIOS__CONFIG.html" target="_top" xlink:title="Get the system version, VSYNC frequency, etc.">
<polygon fill="white" stroke="#666666" points="394.5,-141.88 288.5,-141.88 288.5,-122.62 394.5,-122.62 394.5,-141.88"/>
<text text-anchor="middle" x="341.5" y="-128.38" font-family="Helvetica,sans-Serif" font-size="10.00">System configuration</text>
</a>
</g>
</g>
<!-- Node1&#45;&gt;Node3 -->
<g id="edge2" class="edge">
<title>Node1&#45;&gt;Node3</title>
<path fill="none" stroke="black" d="M244.47,-96.6C257.49,-102.6 271.97,-108.96 285.5,-114.25 292.61,-117.03 300.35,-119.74 307.71,-122.19"/>
<polygon fill="black" stroke="black" points="246.3,-93.6 235.75,-92.54 243.34,-99.94 246.3,-93.6"/>
</g>
<!-- Node6 -->
<g id="Node000006" class="node">
<title>Node6</title>
<g id="a_Node000006"><a xlink:href="group__BIOS__CPU.html" target="_top" xlink:title="Change / Get CPU mode.">
<polygon fill="white" stroke="#666666" points="397.5,-104.88 285.5,-104.88 285.5,-85.62 397.5,-85.62 397.5,-104.88"/>
<text text-anchor="middle" x="341.5" y="-91.38" font-family="Helvetica,sans-Serif" font-size="10.00">Z80 / R800 CPU mode</text>
</a>
</g>
</g>
<!-- Node1&#45;&gt;Node6 -->
<g id="edge5" class="edge">
<title>Node1&#45;&gt;Node6</title>
<path fill="none" stroke="black" d="M261.08,-84.33C269.1,-85.43 277.32,-86.56 285.27,-87.65"/>
<polygon fill="black" stroke="black" points="261.79,-80.89 251.41,-82.99 260.84,-87.83 261.79,-80.89"/>
</g>
<!-- Node5 -->
<g id="Node000005" class="node">
<title>Node5</title>
<g id="a_Node000005"><a xlink:href="group__BIOS__JOYPAD.html" target="_top" xlink:title="Joystick / Joypad interface.">
<polygon fill="white" stroke="#666666" points="386.62,-67.88 296.38,-67.88 296.38,-48.62 386.62,-48.62 386.62,-67.88"/>
<text text-anchor="middle" x="341.5" y="-54.38" font-family="Helvetica,sans-Serif" font-size="10.00">Joystick / Joypad</text>
</a>
</g>
</g>
<!-- Node1&#45;&gt;Node5 -->
<g id="edge4" class="edge">
<title>Node1&#45;&gt;Node5</title>
<path fill="none" stroke="black" d="M261.01,-68.61C272.78,-67.08 284.95,-65.49 296.13,-64.03"/>
<polygon fill="black" stroke="black" points="260.87,-65.1 251.41,-69.86 261.78,-72.04 260.87,-65.1"/>
</g>
<!-- Node4 -->
<g id="Node000004" class="node">
<title>Node4</title>
<g id="a_Node000004"><a xlink:href="group__BIOS__SLOT.html" target="_top" xlink:title="Inter&#45;slot Read / Write / Call interface.">
<polygon fill="white" stroke="#666666" points="396,-30.5 287,-30.5 287,0 396,0 396,-30.5"/>
<text text-anchor="start" x="295" y="-17" font-family="Helvetica,sans-Serif" font-size="10.00">Inter&#45;slot Read / Write</text>
<text text-anchor="middle" x="341.5" y="-5.75" font-family="Helvetica,sans-Serif" font-size="10.00"> / Call</text>
</a>
</g>
</g>
<!-- Node1&#45;&gt;Node4 -->
<g id="edge3" class="edge">
<title>Node1&#45;&gt;Node4</title>
<path fill="none" stroke="black" d="M247.95,-55.89C260.14,-50.47 273.31,-44.62 285.5,-39.25 291.6,-36.56 298.09,-33.72 304.39,-30.96"/>
<polygon fill="black" stroke="black" points="246.63,-52.65 238.92,-59.91 249.48,-59.04 246.63,-52.65"/>
</g>
<!-- Node2 -->
<g id="Node000002" class="node">
<title>Node2</title>
<g id="a_Node000002"><a xlink:href="group__LIBMSX__SYS.html" target="_top" xlink:title=" ">
<polygon fill="white" stroke="#666666" points="117.25,-91.5 0,-91.5 0,-61 117.25,-61 117.25,-91.5"/>
<text text-anchor="start" x="8" y="-78" font-family="Helvetica,sans-Serif" font-size="10.00">BIOS, Interrupts, Slots,</text>
<text text-anchor="middle" x="58.62" y="-66.75" font-family="Helvetica,sans-Serif" font-size="10.00"> etc.</text>
</a>
</g>
</g>
<!-- Node2&#45;&gt;Node1 -->
<g id="edge1" class="edge">
<title>Node2&#45;&gt;Node1</title>
<path fill="none" stroke="black" d="M129.14,-76.25C137.28,-76.25 145.44,-76.25 153.17,-76.25"/>
<polygon fill="black" stroke="black" points="129.2,-72.75 119.2,-76.25 129.2,-79.75 129.2,-72.75"/>
</g>
</g>
</svg>
