<?xml version="1.0" encoding="UTF-8" standalone="no"?>
<!DOCTYPE svg PUBLIC "-//W3C//DTD SVG 1.1//EN"
 "http://www.w3.org/Graphics/SVG/1.1/DTD/svg11.dtd">
<!-- Generated by graphviz version 12.2.0 (20241103.1931)
 -->
<!-- Title: ZX0 data compression Pages: 1 -->
<svg width="443pt" height="27pt"
 viewBox="0.00 0.00 443.00 27.25" xmlns="http://www.w3.org/2000/svg" xmlns:xlink="http://www.w3.org/1999/xlink">
<g id="graph0" class="graph" transform="scale(1 1) rotate(0) translate(4 23.25)">
<title>ZX0 data compression</title>
<!-- Node2 -->
<g id="Node000002" class="node">
<title>Node2</title>
<g id="a_Node000002"><a xlink:href="group__LIBMSX__COMPRESS.html" target="_top" xlink:title=" ">
<polygon fill="white" stroke="#666666" points="150.25,-19.25 0,-19.25 0,0 150.25,0 150.25,-19.25"/>
<text text-anchor="middle" x="75.12" y="-5.75" font-family="Helvetica,sans-Serif" font-size="10.00">Compression / Decompression.</text>
</a>
</g>
</g>
<!-- Node1 -->
<g id="Node000001" class="node">
<title>Node1</title>
<g id="a_Node000001"><a xlink:title="#include &lt;ZX0_decompress.h&gt;">
<polygon fill="#999999" stroke="#666666" points="299,-19.25 186.25,-19.25 186.25,0 299,0 299,-19.25"/>
<text text-anchor="middle" x="242.62" y="-5.75" font-family="Helvetica,sans-Serif" font-size="10.00">ZX0 data compression</text>
</a>
</g>
</g>
<!-- Node2&#45;&gt;Node1 -->
<g id="edge1" class="edge">
<title>Node2&#45;&gt;Node1</title>
<path fill="none" stroke="black" d="M162.06,-9.62C170.14,-9.62 178.17,-9.62 185.86,-9.62"/>
<polygon fill="black" stroke="black" points="162.16,-6.13 152.16,-9.63 162.16,-13.13 162.16,-6.13"/>
</g>
<!-- Node3 -->
<g id="Node000003" class="node">
<title>Node3</title>
<g id="a_Node000003"><a xlink:href="group__ZX0__DECOMPRESS.html" target="_top" xlink:title="Decompressor of the ZX0 data compression format version 2.">
<polygon fill="white" stroke="#666666" points="435,-19.25 335,-19.25 335,0 435,0 435,-19.25"/>
<text text-anchor="middle" x="385" y="-5.75" font-family="Helvetica,sans-Serif" font-size="10.00">ZX0 decompressor.</text>
</a>
</g>
</g>
<!-- Node1&#45;&gt;Node3 -->
<g id="edge2" class="edge">
<title>Node1&#45;&gt;Node3</title>
<path fill="none" stroke="black" d="M310.58,-9.62C318.75,-9.62 326.99,-9.62 334.84,-9.62"/>
<polygon fill="black" stroke="black" points="310.62,-6.13 300.62,-9.63 310.62,-13.13 310.62,-6.13"/>
</g>
</g>
</svg>
