<?xml version="1.0" encoding="UTF-8" standalone="no"?>
<!DOCTYPE svg PUBLIC "-//W3C//DTD SVG 1.1//EN"
 "http://www.w3.org/Graphics/SVG/1.1/DTD/svg11.dtd">
<!-- Generated by graphviz version 12.2.0 (20241103.1931)
 -->
<!-- Title: Sprites / Meta&#45;Sprites Pages: 1 -->
<svg width="425pt" height="101pt"
 viewBox="0.00 0.00 425.00 101.25" xmlns="http://www.w3.org/2000/svg" xmlns:xlink="http://www.w3.org/1999/xlink">
<g id="graph0" class="graph" transform="scale(1 1) rotate(0) translate(4 97.25)">
<title>Sprites / Meta&#45;Sprites</title>
<!-- Node2 -->
<g id="Node000002" class="node">
<title>Node2</title>
<g id="a_Node000002"><a xlink:href="group__LIBMSX__GRAPHICS.html" target="_top" xlink:title=" ">
<polygon fill="white" stroke="#666666" points="128.5,-56.25 0,-56.25 0,-37 128.5,-37 128.5,-56.25"/>
<text text-anchor="middle" x="64.25" y="-42.75" font-family="Helvetica,sans-Serif" font-size="10.00">Video / Display / Graphics.</text>
</a>
</g>
</g>
<!-- Node1 -->
<g id="Node000001" class="node">
<title>Node1</title>
<g id="a_Node000001"><a xlink:title="#include &lt;sprite.h&gt;, #include &lt;sprite_color.h&gt;, #include &lt;metasprite.h&gt;">
<polygon fill="#999999" stroke="#666666" points="274.25,-56.25 164.5,-56.25 164.5,-37 274.25,-37 274.25,-56.25"/>
<text text-anchor="middle" x="219.38" y="-42.75" font-family="Helvetica,sans-Serif" font-size="10.00">Sprites / Meta&#45;Sprites</text>
</a>
</g>
</g>
<!-- Node2&#45;&gt;Node1 -->
<g id="edge1" class="edge">
<title>Node2&#45;&gt;Node1</title>
<path fill="none" stroke="black" d="M140.32,-46.62C148.47,-46.62 156.63,-46.62 164.46,-46.62"/>
<polygon fill="black" stroke="black" points="140.37,-43.13 130.37,-46.63 140.37,-50.13 140.37,-43.13"/>
</g>
<!-- Node4 -->
<g id="Node000004" class="node">
<title>Node4</title>
<g id="a_Node000004"><a xlink:href="group__SPRITES__ATTR.html" target="_top" xlink:title="Sprite attribute table interface.">
<polygon fill="white" stroke="#666666" points="414.75,-93.25 312.5,-93.25 312.5,-74 414.75,-74 414.75,-93.25"/>
<text text-anchor="middle" x="363.62" y="-79.75" font-family="Helvetica,sans-Serif" font-size="10.00">Sprite attribute table</text>
</a>
</g>
</g>
<!-- Node1&#45;&gt;Node4 -->
<g id="edge3" class="edge">
<title>Node1&#45;&gt;Node4</title>
<path fill="none" stroke="black" d="M269.94,-59.52C287.58,-64.11 307.19,-69.2 323.8,-73.53"/>
<polygon fill="black" stroke="black" points="271.27,-56.25 260.71,-57.12 269.51,-63.02 271.27,-56.25"/>
</g>
<!-- Node5 -->
<g id="Node000005" class="node">
<title>Node5</title>
<g id="a_Node000005"><a xlink:href="group__SPRITES__COLOR.html" target="_top" xlink:title="Sprite color table interface.">
<polygon fill="white" stroke="#666666" points="407.62,-56.25 319.62,-56.25 319.62,-37 407.62,-37 407.62,-56.25"/>
<text text-anchor="middle" x="363.62" y="-42.75" font-family="Helvetica,sans-Serif" font-size="10.00">Sprite color table</text>
</a>
</g>
</g>
<!-- Node1&#45;&gt;Node5 -->
<g id="edge4" class="edge">
<title>Node1&#45;&gt;Node5</title>
<path fill="none" stroke="black" d="M285.78,-46.62C297.11,-46.62 308.63,-46.62 319.19,-46.62"/>
<polygon fill="black" stroke="black" points="286.07,-43.13 276.07,-46.63 286.07,-50.13 286.07,-43.13"/>
</g>
<!-- Node3 -->
<g id="Node000003" class="node">
<title>Node3</title>
<g id="a_Node000003"><a xlink:href="group__SPRITES__METASPRITE.html" target="_top" xlink:title="Meta&#45;sprite interface.">
<polygon fill="white" stroke="#666666" points="417,-19.25 310.25,-19.25 310.25,0 417,0 417,-19.25"/>
<text text-anchor="middle" x="363.62" y="-5.75" font-family="Helvetica,sans-Serif" font-size="10.00">Meta&#45;sprite interface.</text>
</a>
</g>
</g>
<!-- Node1&#45;&gt;Node3 -->
<g id="edge2" class="edge">
<title>Node1&#45;&gt;Node3</title>
<path fill="none" stroke="black" d="M269.94,-33.73C287.58,-29.14 307.19,-24.05 323.8,-19.72"/>
<polygon fill="black" stroke="black" points="269.51,-30.23 260.71,-36.13 271.27,-37 269.51,-30.23"/>
</g>
</g>
</svg>
