<?xml version="1.0" encoding="UTF-8" standalone="no"?>
<!DOCTYPE svg PUBLIC "-//W3C//DTD SVG 1.1//EN"
 "http://www.w3.org/Graphics/SVG/1.1/DTD/svg11.dtd">
<!-- Generated by graphviz version 9.0.0 (20230911.1827)
 -->
<!-- Title: LA0 &#45; PSG, SCC/SCC+, OPLL sound driver. Pages: 1 -->
<svg width="414pt" height="125pt"
 viewBox="0.00 0.00 413.75 124.50" xmlns="http://www.w3.org/2000/svg" xmlns:xlink="http://www.w3.org/1999/xlink">
<g id="graph0" class="graph" transform="scale(1 1) rotate(0) translate(4 120.5)">
<title>LA0 &#45; PSG, SCC/SCC+, OPLL sound driver.</title>
<!-- Node2 -->
<g id="Node000002" class="node">
<title>Node2</title>
<g id="a_Node000002"><a xlink:href="group__AUDIO__DECODERS.html" target="_top" xlink:title=" ">
<polygon fill="white" stroke="#666666" points="116.5,-73.5 0,-73.5 0,-43 116.5,-43 116.5,-73.5"/>
<text text-anchor="start" x="8" y="-60" font-family="Helvetica,sans-Serif" font-size="10.00">Decoders for the libmsx</text>
<text text-anchor="middle" x="58.25" y="-48.75" font-family="Helvetica,sans-Serif" font-size="10.00"> audio replayer.</text>
</a>
</g>
</g>
<!-- Node1 -->
<g id="Node000001" class="node">
<title>Node1</title>
<g id="a_Node000001"><a xlink:title="#include &lt;la0.h&gt;">
<polygon fill="#999999" stroke="#666666" points="263.75,-73.5 152.5,-73.5 152.5,-43 263.75,-43 263.75,-73.5"/>
<text text-anchor="start" x="160.5" y="-60" font-family="Helvetica,sans-Serif" font-size="10.00">LA0 &#45; PSG, SCC/SCC</text>
<text text-anchor="middle" x="208.12" y="-48.75" font-family="Helvetica,sans-Serif" font-size="10.00">+, OPLL sound driver.</text>
</a>
</g>
</g>
<!-- Node2&#45;&gt;Node1 -->
<g id="edge1" class="edge">
<title>Node2&#45;&gt;Node1</title>
<path fill="none" stroke="black" d="M128.2,-58.25C136.3,-58.25 144.48,-58.25 152.35,-58.25"/>
<polygon fill="black" stroke="black" points="128.36,-54.75 118.36,-58.25 128.36,-61.75 128.36,-54.75"/>
</g>
<!-- Node5 -->
<g id="Node000005" class="node">
<title>Node5</title>
<g id="a_Node000005"><a xlink:href="group__LA0__MISC.html" target="_top" xlink:title=" ">
<polygon fill="white" stroke="#666666" points="400.5,-116.5 305,-116.5 305,-86 400.5,-86 400.5,-116.5"/>
<text text-anchor="start" x="313" y="-103" font-family="Helvetica,sans-Serif" font-size="10.00">Other LA0 specific</text>
<text text-anchor="middle" x="352.75" y="-91.75" font-family="Helvetica,sans-Serif" font-size="10.00"> APIs.</text>
</a>
</g>
</g>
<!-- Node1&#45;&gt;Node5 -->
<g id="edge4" class="edge">
<title>Node1&#45;&gt;Node5</title>
<path fill="none" stroke="black" d="M271.94,-77.19C283,-80.52 294.33,-83.94 304.86,-87.11"/>
<polygon fill="black" stroke="black" points="273.05,-73.87 262.47,-74.33 271.03,-80.57 273.05,-73.87"/>
</g>
<!-- Node3 -->
<g id="Node000003" class="node">
<title>Node3</title>
<g id="a_Node000003"><a xlink:href="group__LA0__OPEN.html" target="_top" xlink:title=" ">
<polygon fill="white" stroke="#666666" points="405,-67.88 300.5,-67.88 300.5,-48.62 405,-48.62 405,-67.88"/>
<text text-anchor="middle" x="352.75" y="-54.38" font-family="Helvetica,sans-Serif" font-size="10.00">Open LA0 file image.</text>
</a>
</g>
</g>
<!-- Node1&#45;&gt;Node3 -->
<g id="edge2" class="edge">
<title>Node1&#45;&gt;Node3</title>
<path fill="none" stroke="black" d="M275.2,-58.25C283.6,-58.25 292.09,-58.25 300.21,-58.25"/>
<polygon fill="black" stroke="black" points="275.37,-54.75 265.37,-58.25 275.37,-61.75 275.37,-54.75"/>
</g>
<!-- Node4 -->
<g id="Node000004" class="node">
<title>Node4</title>
<g id="a_Node000004"><a xlink:href="group__LA0__SET__SONG.html" target="_top" xlink:title=" ">
<polygon fill="white" stroke="#666666" points="405.75,-30.5 299.75,-30.5 299.75,0 405.75,0 405.75,-30.5"/>
<text text-anchor="start" x="307.75" y="-17" font-family="Helvetica,sans-Serif" font-size="10.00">Set a song in LA0 file</text>
<text text-anchor="middle" x="352.75" y="-5.75" font-family="Helvetica,sans-Serif" font-size="10.00"> to the decoder.</text>
</a>
</g>
</g>
<!-- Node1&#45;&gt;Node4 -->
<g id="edge3" class="edge">
<title>Node1&#45;&gt;Node4</title>
<path fill="none" stroke="black" d="M271.81,-39.35C281.11,-36.55 290.6,-33.69 299.66,-30.96"/>
<polygon fill="black" stroke="black" points="271.03,-35.93 262.47,-42.17 273.05,-42.63 271.03,-35.93"/>
</g>
</g>
</svg>
