<?xml version="1.0" encoding="UTF-8" standalone="no"?>
<!DOCTYPE svg PUBLIC "-//W3C//DTD SVG 1.1//EN"
 "http://www.w3.org/Graphics/SVG/1.1/DTD/svg11.dtd">
<!-- Generated by graphviz version 7.0.5 (20221223.1930)
 -->
<!-- Title: The libmsx audio replayer. Pages: 1 -->
<svg width="311pt" height="253pt"
 viewBox="0.00 0.00 311.00 252.50" xmlns="http://www.w3.org/2000/svg" xmlns:xlink="http://www.w3.org/1999/xlink">
<g id="graph0" class="graph" transform="scale(1 1) rotate(0) translate(4 248.5)">
<title>The libmsx audio replayer.</title>
<!-- Node1 -->
<g id="node1" class="node">
<title>Node1</title>
<g id="a_node1"><a xlink:title="#include &lt;audio.h&gt;">
<polygon fill="#999999" stroke="#666666" points="127,-120.5 0,-120.5 0,-101.5 127,-101.5 127,-120.5"/>
<text text-anchor="middle" x="63.5" y="-108.5" font-family="Helvetica,sans-Serif" font-size="10.00">The libmsx audio replayer.</text>
</a>
</g>
</g>
<!-- Node4 -->
<g id="node2" class="node">
<title>Node4</title>
<g id="a_node2"><a xlink:href="group__AUDIO__BUFFER.html" target="_top" xlink:title="#include &lt;audio_buf.h&gt;">
<polygon fill="white" stroke="#666666" points="282.5,-244.5 183.5,-244.5 183.5,-203.5 282.5,-203.5 282.5,-244.5"/>
<text text-anchor="start" x="191.5" y="-232.5" font-family="Helvetica,sans-Serif" font-size="10.00">Unified sound&#45;chip</text>
<text text-anchor="start" x="191.5" y="-221.5" font-family="Helvetica,sans-Serif" font-size="10.00"> buffer of the libmsx</text>
<text text-anchor="middle" x="233" y="-210.5" font-family="Helvetica,sans-Serif" font-size="10.00"> audio replayer.</text>
</a>
</g>
</g>
<!-- Node1&#45;&gt;Node4 -->
<g id="edge3" class="edge">
<title>Node1&#45;&gt;Node4</title>
<path fill="none" stroke="black" d="M81.95,-128.84C100.67,-147.24 131.94,-175.87 163,-195 169.31,-198.88 176.23,-202.48 183.17,-205.71"/>
<polygon fill="black" stroke="black" points="84.66,-126.6 75.11,-122.01 79.72,-131.55 84.66,-126.6"/>
</g>
<!-- Node5 -->
<g id="node3" class="node">
<title>Node5</title>
<g id="a_node3"><a xlink:href="group__AUDIO__CALLBACK.html" target="_top" xlink:title="#include &lt;audio_cb.h&gt;">
<polygon fill="white" stroke="#666666" points="282,-185.5 184,-185.5 184,-144.5 282,-144.5 282,-185.5"/>
<text text-anchor="start" x="192" y="-173.5" font-family="Helvetica,sans-Serif" font-size="10.00">Callback functions</text>
<text text-anchor="start" x="192" y="-162.5" font-family="Helvetica,sans-Serif" font-size="10.00"> of the libmsx audio</text>
<text text-anchor="middle" x="233" y="-151.5" font-family="Helvetica,sans-Serif" font-size="10.00"> replayer.</text>
</a>
</g>
</g>
<!-- Node1&#45;&gt;Node5 -->
<g id="edge4" class="edge">
<title>Node1&#45;&gt;Node5</title>
<path fill="none" stroke="black" d="M105.92,-124.35C129.48,-131.95 159.1,-141.5 183.71,-149.43"/>
<polygon fill="black" stroke="black" points="107.25,-121.11 96.66,-121.37 105.11,-127.77 107.25,-121.11"/>
</g>
<!-- Node6 -->
<g id="node4" class="node">
<title>Node6</title>
<g id="a_node4"><a xlink:href="group__AUDIO__DECODER.html" target="_top" xlink:title="#include &lt;audio_dec.h&gt;">
<polygon fill="white" stroke="#666666" points="303,-126 163,-126 163,-96 303,-96 303,-126"/>
<text text-anchor="start" x="171" y="-114" font-family="Helvetica,sans-Serif" font-size="10.00">The audio decoder interface</text>
<text text-anchor="middle" x="233" y="-103" font-family="Helvetica,sans-Serif" font-size="10.00"> for the libmsx audio replayer.</text>
</a>
</g>
</g>
<!-- Node1&#45;&gt;Node6 -->
<g id="edge5" class="edge">
<title>Node1&#45;&gt;Node6</title>
<path fill="none" stroke="black" d="M138.83,-111C146.74,-111 154.77,-111 162.62,-111"/>
<polygon fill="black" stroke="black" points="138.86,-107.5 128.86,-111 138.86,-114.5 138.86,-107.5"/>
</g>
<!-- Node3 -->
<g id="node5" class="node">
<title>Node3</title>
<g id="a_node5"><a xlink:href="group__AUDIO__EFX.html" target="_top" xlink:title="Effectors for the libmsx audio replayer.">
<polygon fill="white" stroke="#666666" points="290,-78 176,-78 176,-48 290,-48 290,-78"/>
<text text-anchor="start" x="184" y="-66" font-family="Helvetica,sans-Serif" font-size="10.00">Effectors for the libmsx</text>
<text text-anchor="middle" x="233" y="-55" font-family="Helvetica,sans-Serif" font-size="10.00"> audio replayer.</text>
</a>
</g>
</g>
<!-- Node1&#45;&gt;Node3 -->
<g id="edge2" class="edge">
<title>Node1&#45;&gt;Node3</title>
<path fill="none" stroke="black" d="M110.11,-97.93C131.14,-91.9 156.25,-84.71 178.21,-78.42"/>
<polygon fill="black" stroke="black" points="109.31,-94.52 100.66,-100.64 111.24,-101.25 109.31,-94.52"/>
</g>
<!-- Node2 -->
<g id="node6" class="node">
<title>Node2</title>
<g id="a_node6"><a xlink:href="group__AUDIO__REPLAYER.html" target="_top" xlink:title="The API of the libmsx audio replayer.">
<polygon fill="white" stroke="#666666" points="287,-30 179,-30 179,0 287,0 287,-30"/>
<text text-anchor="start" x="187" y="-18" font-family="Helvetica,sans-Serif" font-size="10.00">The API of the libmsx</text>
<text text-anchor="middle" x="233" y="-7" font-family="Helvetica,sans-Serif" font-size="10.00"> audio replayer.</text>
</a>
</g>
</g>
<!-- Node1&#45;&gt;Node2 -->
<g id="edge1" class="edge">
<title>Node1&#45;&gt;Node2</title>
<path fill="none" stroke="black" d="M84.25,-93.82C103.35,-77.89 133.63,-54.4 163,-39 168.95,-35.88 175.4,-33.02 181.88,-30.45"/>
<polygon fill="black" stroke="black" points="82.1,-91.05 76.74,-100.19 86.63,-96.39 82.1,-91.05"/>
</g>
</g>
</svg>
