<?xml version="1.0" encoding="UTF-8" standalone="no"?>
<!DOCTYPE svg PUBLIC "-//W3C//DTD SVG 1.1//EN"
 "http://www.w3.org/Graphics/SVG/1.1/DTD/svg11.dtd">
<!-- Generated by graphviz version 9.0.0 (20230911.1827)
 -->
<!-- Title: OPLL &#45; YM2413 / MSX&#45;MUSIC Pages: 1 -->
<svg width="272pt" height="64pt"
 viewBox="0.00 0.00 271.75 64.25" xmlns="http://www.w3.org/2000/svg" xmlns:xlink="http://www.w3.org/1999/xlink">
<g id="graph0" class="graph" transform="scale(1 1) rotate(0) translate(4 60.25)">
<title>OPLL &#45; YM2413 / MSX&#45;MUSIC</title>
<!-- Node1 -->
<g id="Node000001" class="node">
<title>Node1</title>
<g id="a_Node000001"><a xlink:title="#include &lt;opll.h&gt;">
<polygon fill="#999999" stroke="#666666" points="115,-42.88 0,-42.88 0,-12.37 115,-12.37 115,-42.88"/>
<text text-anchor="start" x="8" y="-29.38" font-family="Helvetica,sans-Serif" font-size="10.00">OPLL &#45; YM2413 / MSX</text>
<text text-anchor="middle" x="57.5" y="-18.12" font-family="Helvetica,sans-Serif" font-size="10.00">&#45;MUSIC</text>
</a>
</g>
</g>
<!-- Node3 -->
<g id="Node000003" class="node">
<title>Node3</title>
<g id="a_Node000003"><a xlink:href="group__OPLL__BUFFER.html" target="_top" xlink:title="#include &lt;opll_buf.h&gt; Buffered access to OPLL registers.">
<polygon fill="white" stroke="#666666" points="242.38,-56.25 172.38,-56.25 172.38,-37 242.38,-37 242.38,-56.25"/>
<text text-anchor="middle" x="207.38" y="-42.75" font-family="Helvetica,sans-Serif" font-size="10.00">OPLL Buffer</text>
</a>
</g>
</g>
<!-- Node1&#45;&gt;Node3 -->
<g id="edge2" class="edge">
<title>Node1&#45;&gt;Node3</title>
<path fill="none" stroke="black" d="M126.66,-36.38C142.47,-38.41 158.64,-40.49 172.24,-42.24"/>
<polygon fill="black" stroke="black" points="127.12,-32.91 116.75,-35.11 126.22,-39.86 127.12,-32.91"/>
</g>
<!-- Node2 -->
<g id="Node000002" class="node">
<title>Node2</title>
<g id="a_Node000002"><a xlink:href="group__OPLL__DEVICE.html" target="_top" xlink:title="Inspect, discover, enable/disable to access registers, of the OPLL sound chip.">
<polygon fill="white" stroke="#666666" points="263.75,-19.25 151,-19.25 151,0 263.75,0 263.75,-19.25"/>
<text text-anchor="middle" x="207.38" y="-5.75" font-family="Helvetica,sans-Serif" font-size="10.00">OPLL device interface</text>
</a>
</g>
</g>
<!-- Node1&#45;&gt;Node2 -->
<g id="edge1" class="edge">
<title>Node1&#45;&gt;Node2</title>
<path fill="none" stroke="black" d="M126.51,-19.35C134.54,-18.37 142.67,-17.38 150.51,-16.43"/>
<polygon fill="black" stroke="black" points="126.26,-15.85 116.75,-20.53 127.1,-22.8 126.26,-15.85"/>
</g>
</g>
</svg>
