<?xml version="1.0" encoding="UTF-8" standalone="no"?>
<!DOCTYPE svg PUBLIC "-//W3C//DTD SVG 1.1//EN"
 "http://www.w3.org/Graphics/SVG/1.1/DTD/svg11.dtd">
<!-- Generated by graphviz version 12.2.0 (20241103.1931)
 -->
<!-- Title: LA0 &#45; PSG, SCC/SCC+, OPLL sound driver. Pages: 1 -->
<svg width="421pt" height="125pt"
 viewBox="0.00 0.00 421.25 124.50" xmlns="http://www.w3.org/2000/svg" xmlns:xlink="http://www.w3.org/1999/xlink">
<g id="graph0" class="graph" transform="scale(1 1) rotate(0) translate(4 120.5)">
<title>LA0 &#45; PSG, SCC/SCC+, OPLL sound driver.</title>
<!-- Node1 -->
<g id="Node000001" class="node">
<title>Node1</title>
<g id="a_Node000001"><a xlink:title="#include &lt;la0.h&gt; LA0 decoder is a decoder for the libmsx audio replayer.">
<polygon fill="#999999" stroke="#666666" points="271.25,-73.5 160,-73.5 160,-43 271.25,-43 271.25,-73.5"/>
<text text-anchor="start" x="168" y="-60" font-family="Helvetica,sans-Serif" font-size="10.00">LA0 &#45; PSG, SCC/SCC</text>
<text text-anchor="middle" x="215.62" y="-48.75" font-family="Helvetica,sans-Serif" font-size="10.00">+, OPLL sound driver.</text>
</a>
</g>
</g>
<!-- Node5 -->
<g id="Node000005" class="node">
<title>Node5</title>
<g id="a_Node000005"><a xlink:href="group__LA0__MISC.html" target="_top" xlink:title=" ">
<polygon fill="white" stroke="#666666" points="408,-116.5 312.5,-116.5 312.5,-86 408,-86 408,-116.5"/>
<text text-anchor="start" x="320.5" y="-103" font-family="Helvetica,sans-Serif" font-size="10.00">Other LA0 specific</text>
<text text-anchor="middle" x="360.25" y="-91.75" font-family="Helvetica,sans-Serif" font-size="10.00"> APIs.</text>
</a>
</g>
</g>
<!-- Node1&#45;&gt;Node5 -->
<g id="edge4" class="edge">
<title>Node1&#45;&gt;Node5</title>
<path fill="none" stroke="black" d="M279.44,-77.19C290.5,-80.52 301.83,-83.94 312.36,-87.11"/>
<polygon fill="black" stroke="black" points="280.55,-73.87 269.97,-74.33 278.53,-80.57 280.55,-73.87"/>
</g>
<!-- Node3 -->
<g id="Node000003" class="node">
<title>Node3</title>
<g id="a_Node000003"><a xlink:href="group__LA0__OPEN.html" target="_top" xlink:title=" ">
<polygon fill="white" stroke="#666666" points="412.5,-67.88 308,-67.88 308,-48.62 412.5,-48.62 412.5,-67.88"/>
<text text-anchor="middle" x="360.25" y="-54.38" font-family="Helvetica,sans-Serif" font-size="10.00">Open LA0 file image.</text>
</a>
</g>
</g>
<!-- Node1&#45;&gt;Node3 -->
<g id="edge2" class="edge">
<title>Node1&#45;&gt;Node3</title>
<path fill="none" stroke="black" d="M282.7,-58.25C291.1,-58.25 299.59,-58.25 307.71,-58.25"/>
<polygon fill="black" stroke="black" points="282.87,-54.75 272.87,-58.25 282.87,-61.75 282.87,-54.75"/>
</g>
<!-- Node4 -->
<g id="Node000004" class="node">
<title>Node4</title>
<g id="a_Node000004"><a xlink:href="group__LA0__SET__SONG.html" target="_top" xlink:title=" ">
<polygon fill="white" stroke="#666666" points="413.25,-30.5 307.25,-30.5 307.25,0 413.25,0 413.25,-30.5"/>
<text text-anchor="start" x="315.25" y="-17" font-family="Helvetica,sans-Serif" font-size="10.00">Set a song in LA0 file</text>
<text text-anchor="middle" x="360.25" y="-5.75" font-family="Helvetica,sans-Serif" font-size="10.00"> to the decoder.</text>
</a>
</g>
</g>
<!-- Node1&#45;&gt;Node4 -->
<g id="edge3" class="edge">
<title>Node1&#45;&gt;Node4</title>
<path fill="none" stroke="black" d="M279.31,-39.35C288.61,-36.55 298.1,-33.69 307.16,-30.96"/>
<polygon fill="black" stroke="black" points="278.53,-35.93 269.97,-42.17 280.55,-42.63 278.53,-35.93"/>
</g>
<!-- Node2 -->
<g id="Node000002" class="node">
<title>Node2</title>
<g id="a_Node000002"><a xlink:href="group__LIBMSX__REPLAYER.html" target="_top" xlink:title=" ">
<polygon fill="white" stroke="#666666" points="124,-67.88 0,-67.88 0,-48.62 124,-48.62 124,-67.88"/>
<text text-anchor="middle" x="62" y="-54.38" font-family="Helvetica,sans-Serif" font-size="10.00">Sound drivers / replayers.</text>
</a>
</g>
</g>
<!-- Node2&#45;&gt;Node1 -->
<g id="edge1" class="edge">
<title>Node2&#45;&gt;Node1</title>
<path fill="none" stroke="black" d="M135.56,-58.25C143.62,-58.25 151.73,-58.25 159.52,-58.25"/>
<polygon fill="black" stroke="black" points="135.75,-54.75 125.75,-58.25 135.75,-61.75 135.75,-54.75"/>
</g>
</g>
</svg>
