<?xml version="1.0" encoding="UTF-8" standalone="no"?>
<!DOCTYPE svg PUBLIC "-//W3C//DTD SVG 1.1//EN"
 "http://www.w3.org/Graphics/SVG/1.1/DTD/svg11.dtd">
<!-- Generated by graphviz version 12.2.0 (20241103.1931)
 -->
<!-- Title: Character User Interface. Pages: 1 -->
<svg width="291pt" height="64pt"
 viewBox="0.00 0.00 290.50 64.25" xmlns="http://www.w3.org/2000/svg" xmlns:xlink="http://www.w3.org/1999/xlink">
<g id="graph0" class="graph" transform="scale(1 1) rotate(0) translate(4 60.25)">
<title>Character User Interface.</title>
<!-- Node2 -->
<g id="Node000002" class="node">
<title>Node2</title>
<g id="a_Node000002"><a xlink:href="group__CUI.html" target="_top" xlink:title="#include &lt;text.h&gt;">
<polygon fill="white" stroke="#666666" points="253.25,-56.25 189.25,-56.25 189.25,-37 253.25,-37 253.25,-56.25"/>
<text text-anchor="middle" x="221.25" y="-42.75" font-family="Helvetica,sans-Serif" font-size="10.00">Text output</text>
</a>
</g>
</g>
<!-- Node1 -->
<g id="Node000001" class="node">
<title>Node1</title>
<g id="a_Node000001"><a xlink:title=" ">
<polygon fill="#999999" stroke="#666666" points="124,-37.25 0,-37.25 0,-18 124,-18 124,-37.25"/>
<text text-anchor="middle" x="62" y="-23.75" font-family="Helvetica,sans-Serif" font-size="10.00">Character User Interface.</text>
</a>
</g>
</g>
<!-- Node1&#45;&gt;Node2 -->
<g id="edge1" class="edge">
<title>Node1&#45;&gt;Node2</title>
<path fill="none" stroke="black" d="M135.5,-36.38C154.23,-38.65 173.43,-40.97 188.81,-42.83"/>
<polygon fill="black" stroke="black" points="136.1,-32.93 125.75,-35.21 135.26,-39.88 136.1,-32.93"/>
</g>
<!-- Node3 -->
<g id="Node000003" class="node">
<title>Node3</title>
<g id="a_Node000003"><a xlink:href="group__TTY.html" target="_top" xlink:title="#include &lt;tty.h&gt;">
<polygon fill="white" stroke="#666666" points="282.5,-19.25 160,-19.25 160,0 282.5,0 282.5,-19.25"/>
<text text-anchor="middle" x="221.25" y="-5.75" font-family="Helvetica,sans-Serif" font-size="10.00">Teletype/console device.</text>
</a>
</g>
</g>
<!-- Node1&#45;&gt;Node3 -->
<g id="edge2" class="edge">
<title>Node1&#45;&gt;Node3</title>
<path fill="none" stroke="black" d="M135.56,-19.32C143.63,-18.4 151.79,-17.46 159.69,-16.56"/>
<polygon fill="black" stroke="black" points="135.29,-15.83 125.75,-20.44 136.08,-22.78 135.29,-15.83"/>
</g>
</g>
</svg>
