<?xml version="1.0" encoding="UTF-8" standalone="no"?>
<!DOCTYPE svg PUBLIC "-//W3C//DTD SVG 1.1//EN"
 "http://www.w3.org/Graphics/SVG/1.1/DTD/svg11.dtd">
<!-- Generated by graphviz version 9.0.0 (20230911.1827)
 -->
<!-- Title: Sprites / Meta&#45;Sprites Pages: 1 -->
<svg width="261pt" height="101pt"
 viewBox="0.00 0.00 260.50 101.25" xmlns="http://www.w3.org/2000/svg" xmlns:xlink="http://www.w3.org/1999/xlink">
<g id="graph0" class="graph" transform="scale(1 1) rotate(0) translate(4 97.25)">
<title>Sprites / Meta&#45;Sprites</title>
<!-- Node1 -->
<g id="Node000001" class="node">
<title>Node1</title>
<g id="a_Node000001"><a xlink:title="#include &lt;sprite.h&gt;, #include &lt;sprite_color.h&gt;, #include &lt;metasprite.h&gt;">
<polygon fill="#999999" stroke="#666666" points="109.75,-56.25 0,-56.25 0,-37 109.75,-37 109.75,-56.25"/>
<text text-anchor="middle" x="54.88" y="-42.75" font-family="Helvetica,sans-Serif" font-size="10.00">Sprites / Meta&#45;Sprites</text>
</a>
</g>
</g>
<!-- Node3 -->
<g id="Node000003" class="node">
<title>Node3</title>
<g id="a_Node000003"><a xlink:href="group__SPRITES__ATTR.html" target="_top" xlink:title="Sprite attribute table interface.">
<polygon fill="white" stroke="#666666" points="250.25,-93.25 148,-93.25 148,-74 250.25,-74 250.25,-93.25"/>
<text text-anchor="middle" x="199.12" y="-79.75" font-family="Helvetica,sans-Serif" font-size="10.00">Sprite attribute table</text>
</a>
</g>
</g>
<!-- Node1&#45;&gt;Node3 -->
<g id="edge2" class="edge">
<title>Node1&#45;&gt;Node3</title>
<path fill="none" stroke="black" d="M105.44,-59.52C123.08,-64.11 142.69,-69.2 159.3,-73.53"/>
<polygon fill="black" stroke="black" points="106.77,-56.25 96.21,-57.12 105.01,-63.02 106.77,-56.25"/>
</g>
<!-- Node4 -->
<g id="Node000004" class="node">
<title>Node4</title>
<g id="a_Node000004"><a xlink:href="group__SPRITES__COLOR.html" target="_top" xlink:title="Sprite color table interface.">
<polygon fill="white" stroke="#666666" points="243.12,-56.25 155.12,-56.25 155.12,-37 243.12,-37 243.12,-56.25"/>
<text text-anchor="middle" x="199.12" y="-42.75" font-family="Helvetica,sans-Serif" font-size="10.00">Sprite color table</text>
</a>
</g>
</g>
<!-- Node1&#45;&gt;Node4 -->
<g id="edge3" class="edge">
<title>Node1&#45;&gt;Node4</title>
<path fill="none" stroke="black" d="M121.28,-46.62C132.61,-46.62 144.13,-46.62 154.69,-46.62"/>
<polygon fill="black" stroke="black" points="121.57,-43.13 111.57,-46.63 121.57,-50.13 121.57,-43.13"/>
</g>
<!-- Node2 -->
<g id="Node000002" class="node">
<title>Node2</title>
<g id="a_Node000002"><a xlink:href="group__SPRITES__METASPRITE.html" target="_top" xlink:title="Meta&#45;sprite interface.">
<polygon fill="white" stroke="#666666" points="252.5,-19.25 145.75,-19.25 145.75,0 252.5,0 252.5,-19.25"/>
<text text-anchor="middle" x="199.12" y="-5.75" font-family="Helvetica,sans-Serif" font-size="10.00">Meta&#45;sprite interface.</text>
</a>
</g>
</g>
<!-- Node1&#45;&gt;Node2 -->
<g id="edge1" class="edge">
<title>Node1&#45;&gt;Node2</title>
<path fill="none" stroke="black" d="M105.44,-33.73C123.08,-29.14 142.69,-24.05 159.3,-19.72"/>
<polygon fill="black" stroke="black" points="105.01,-30.23 96.21,-36.13 106.77,-37 105.01,-30.23"/>
</g>
</g>
</svg>
