<?xml version="1.0" encoding="UTF-8" standalone="no"?>
<!DOCTYPE svg PUBLIC "-//W3C//DTD SVG 1.1//EN"
 "http://www.w3.org/Graphics/SVG/1.1/DTD/svg11.dtd">
<!-- Generated by graphviz version 9.0.0 (20230911.1827)
 -->
<!-- Title: SCREEN mode initialization Pages: 1 -->
<svg width="291pt" height="101pt"
 viewBox="0.00 0.00 290.50 101.25" xmlns="http://www.w3.org/2000/svg" xmlns:xlink="http://www.w3.org/1999/xlink">
<g id="graph0" class="graph" transform="scale(1 1) rotate(0) translate(4 97.25)">
<title>SCREEN mode initialization</title>
<!-- Node1 -->
<g id="Node000001" class="node">
<title>Node1</title>
<g id="a_Node000001"><a xlink:title="#include &lt;screen.h&gt;">
<polygon fill="#999999" stroke="#666666" points="134.5,-56.25 0,-56.25 0,-37 134.5,-37 134.5,-56.25"/>
<text text-anchor="middle" x="67.25" y="-42.75" font-family="Helvetica,sans-Serif" font-size="10.00">SCREEN mode initialization</text>
</a>
</g>
</g>
<!-- Node4 -->
<g id="Node000004" class="node">
<title>Node4</title>
<g id="a_Node000004"><a xlink:href="group__SCREEN__BITMAP.html" target="_top" xlink:title="Initialization functions for GRAPHIC 4, 5, 6, and 7 mode.">
<polygon fill="white" stroke="#666666" points="282.5,-93.25 170.5,-93.25 170.5,-74 282.5,-74 282.5,-93.25"/>
<text text-anchor="middle" x="226.5" y="-79.75" font-family="Helvetica,sans-Serif" font-size="10.00">Bitmap graphics mode</text>
</a>
</g>
</g>
<!-- Node1&#45;&gt;Node4 -->
<g id="edge3" class="edge">
<title>Node1&#45;&gt;Node4</title>
<path fill="none" stroke="black" d="M122.21,-59.32C141.93,-63.96 163.95,-69.14 182.58,-73.53"/>
<polygon fill="black" stroke="black" points="123.23,-55.97 112.69,-57.08 121.63,-62.78 123.23,-55.97"/>
</g>
<!-- Node3 -->
<g id="Node000003" class="node">
<title>Node3</title>
<g id="a_Node000003"><a xlink:href="group__SCREEN__PCG.html" target="_top" xlink:title="Initialization functions for GRAPHIC 1, 2, and 3 mode.">
<polygon fill="white" stroke="#666666" points="277.62,-56.25 175.38,-56.25 175.38,-37 277.62,-37 277.62,-56.25"/>
<text text-anchor="middle" x="226.5" y="-42.75" font-family="Helvetica,sans-Serif" font-size="10.00">Tiled graphics mode</text>
</a>
</g>
</g>
<!-- Node1&#45;&gt;Node3 -->
<g id="edge2" class="edge">
<title>Node1&#45;&gt;Node3</title>
<path fill="none" stroke="black" d="M146.32,-46.62C156.04,-46.62 165.78,-46.62 174.93,-46.62"/>
<polygon fill="black" stroke="black" points="146.45,-43.13 136.45,-46.63 146.45,-50.13 146.45,-43.13"/>
</g>
<!-- Node2 -->
<g id="Node000002" class="node">
<title>Node2</title>
<g id="a_Node000002"><a xlink:href="group__SCREEN__TEXT.html" target="_top" xlink:title="Initialization functions for TEXT 1 and 2 mode.">
<polygon fill="white" stroke="#666666" points="260,-19.25 193,-19.25 193,0 260,0 260,-19.25"/>
<text text-anchor="middle" x="226.5" y="-5.75" font-family="Helvetica,sans-Serif" font-size="10.00">TEXT mode</text>
</a>
</g>
</g>
<!-- Node1&#45;&gt;Node2 -->
<g id="edge1" class="edge">
<title>Node1&#45;&gt;Node2</title>
<path fill="none" stroke="black" d="M122.38,-33.89C145.71,-28.4 172.25,-22.15 192.56,-17.38"/>
<polygon fill="black" stroke="black" points="121.63,-30.47 112.69,-36.17 123.23,-37.28 121.63,-30.47"/>
</g>
</g>
</svg>
