<?xml version="1.0" encoding="UTF-8" standalone="no"?>
<!DOCTYPE svg PUBLIC "-//W3C//DTD SVG 1.1//EN"
 "http://www.w3.org/Graphics/SVG/1.1/DTD/svg11.dtd">
<!-- Generated by graphviz version 9.0.0 (20230911.1827)
 -->
<!-- Title: VDP &#45; Video Display Processor Pages: 1 -->
<svg width="279pt" height="396pt"
 viewBox="0.00 0.00 279.25 396.25" xmlns="http://www.w3.org/2000/svg" xmlns:xlink="http://www.w3.org/1999/xlink">
<g id="graph0" class="graph" transform="scale(1 1) rotate(0) translate(4 392.25)">
<title>VDP &#45; Video Display Processor</title>
<!-- Node1 -->
<g id="Node000001" class="node">
<title>Node1</title>
<g id="a_Node000001"><a xlink:title="#include &lt;vdp.h&gt;">
<polygon fill="#999999" stroke="#666666" points="102.25,-202.88 0,-202.88 0,-172.38 102.25,-172.38 102.25,-202.88"/>
<text text-anchor="start" x="8" y="-189.38" font-family="Helvetica,sans-Serif" font-size="10.00">VDP &#45; Video Display</text>
<text text-anchor="middle" x="51.12" y="-178.12" font-family="Helvetica,sans-Serif" font-size="10.00"> Processor</text>
</a>
</g>
</g>
<!-- Node4 -->
<g id="Node000004" class="node">
<title>Node4</title>
<g id="a_Node000004"><a xlink:href="group__VDP__COLOR__REGISTER.html" target="_top" xlink:title="Text and background color in TEXT 1 and 2 mode, and Backdrop color.">
<polygon fill="white" stroke="#666666" points="243.88,-388.25 165.62,-388.25 165.62,-369 243.88,-369 243.88,-388.25"/>
<text text-anchor="middle" x="204.75" y="-374.75" font-family="Helvetica,sans-Serif" font-size="10.00">Color registers</text>
</a>
</g>
</g>
<!-- Node1&#45;&gt;Node4 -->
<g id="edge3" class="edge">
<title>Node1&#45;&gt;Node4</title>
<path fill="none" stroke="black" d="M58.33,-214.49C68.48,-252.43 92.29,-321.34 138.25,-359.62 145.89,-365.99 155.57,-370.22 165.13,-373.04"/>
<polygon fill="black" stroke="black" points="61.72,-213.64 55.87,-204.81 54.94,-215.36 61.72,-213.64"/>
</g>
<!-- Node9 -->
<g id="Node000009" class="node">
<title>Node9</title>
<g id="a_Node000009"><a xlink:href="group__VDP__COMMANDS__HIGH.html" target="_top" xlink:title="Execute, Stop, and Await VDP commands.">
<polygon fill="white" stroke="#666666" points="260.75,-350.88 148.75,-350.88 148.75,-320.38 260.75,-320.38 260.75,-350.88"/>
<text text-anchor="start" x="156.75" y="-337.38" font-family="Helvetica,sans-Serif" font-size="10.00">VDP commands (High</text>
<text text-anchor="middle" x="204.75" y="-326.12" font-family="Helvetica,sans-Serif" font-size="10.00"> level APIs)</text>
</a>
</g>
</g>
<!-- Node1&#45;&gt;Node9 -->
<g id="edge8" class="edge">
<title>Node1&#45;&gt;Node9</title>
<path fill="none" stroke="black" d="M64.16,-213.13C78.33,-240.68 104.31,-284.16 138.25,-310.62 142.76,-314.14 147.82,-317.21 153.08,-319.88"/>
<polygon fill="black" stroke="black" points="67.41,-211.82 59.82,-204.44 61.15,-214.95 67.41,-211.82"/>
</g>
<!-- Node10 -->
<g id="Node000010" class="node">
<title>Node10</title>
<g id="a_Node000010"><a xlink:href="group__VDP__COMMANDS__LOW.html" target="_top" xlink:title="Write to command registers.">
<polygon fill="white" stroke="#666666" points="271.25,-301.88 138.25,-301.88 138.25,-271.38 271.25,-271.38 271.25,-301.88"/>
<text text-anchor="start" x="146.25" y="-288.38" font-family="Helvetica,sans-Serif" font-size="10.00">VDP commands (Low level</text>
<text text-anchor="middle" x="204.75" y="-277.12" font-family="Helvetica,sans-Serif" font-size="10.00"> APIs)</text>
</a>
</g>
</g>
<!-- Node1&#45;&gt;Node10 -->
<g id="edge9" class="edge">
<title>Node1&#45;&gt;Node10</title>
<path fill="none" stroke="black" d="M74.55,-211.29C90.95,-227.5 114.41,-248.54 138.25,-262.62 143.46,-265.71 149.14,-268.5 154.9,-271"/>
<polygon fill="black" stroke="black" points="77.24,-209.03 67.72,-204.39 72.27,-213.95 77.24,-209.03"/>
</g>
<!-- Node3 -->
<g id="Node000003" class="node">
<title>Node3</title>
<g id="a_Node000003"><a xlink:href="group__VDP__CONTROL__REGISTER.html" target="_top" xlink:title="Write to control registers.">
<polygon fill="white" stroke="#666666" points="248,-253.25 161.5,-253.25 161.5,-234 248,-234 248,-253.25"/>
<text text-anchor="middle" x="204.75" y="-239.75" font-family="Helvetica,sans-Serif" font-size="10.00">Control registers</text>
</a>
</g>
</g>
<!-- Node1&#45;&gt;Node3 -->
<g id="edge2" class="edge">
<title>Node1&#45;&gt;Node3</title>
<path fill="none" stroke="black" d="M94.54,-207.82C108.31,-213.98 123.77,-220.47 138.25,-225.62 146.25,-228.47 154.93,-231.14 163.28,-233.51"/>
<polygon fill="black" stroke="black" points="96.31,-204.79 85.76,-203.84 93.42,-211.16 96.31,-204.79"/>
</g>
<!-- Node8 -->
<g id="Node000008" class="node">
<title>Node8</title>
<g id="a_Node000008"><a xlink:href="group__VDP__DISPLAY__REGISTER.html" target="_top" xlink:title="Dispalay area adjust / Hardware scroll.">
<polygon fill="white" stroke="#666666" points="248.38,-216.25 161.12,-216.25 161.12,-197 248.38,-197 248.38,-216.25"/>
<text text-anchor="middle" x="204.75" y="-202.75" font-family="Helvetica,sans-Serif" font-size="10.00">Display registers</text>
</a>
</g>
</g>
<!-- Node1&#45;&gt;Node8 -->
<g id="edge7" class="edge">
<title>Node1&#45;&gt;Node8</title>
<path fill="none" stroke="black" d="M113.95,-195.37C129.78,-197.36 146.45,-199.45 161.08,-201.28"/>
<polygon fill="black" stroke="black" points="114.47,-191.91 104.12,-194.14 113.6,-198.86 114.47,-191.91"/>
</g>
<!-- Node6 -->
<g id="Node000006" class="node">
<title>Node6</title>
<g id="a_Node000006"><a xlink:href="group__VDP__MODE__REGISTER.html" target="_top" xlink:title="Screen / Sprite mode setting.">
<polygon fill="white" stroke="#666666" points="244.62,-179.25 164.88,-179.25 164.88,-160 244.62,-160 244.62,-179.25"/>
<text text-anchor="middle" x="204.75" y="-165.75" font-family="Helvetica,sans-Serif" font-size="10.00">Mode registers</text>
</a>
</g>
</g>
<!-- Node1&#45;&gt;Node6 -->
<g id="edge5" class="edge">
<title>Node1&#45;&gt;Node6</title>
<path fill="none" stroke="black" d="M113.7,-180.31C130.86,-178.28 149.02,-176.12 164.51,-174.28"/>
<polygon fill="black" stroke="black" points="113.63,-176.8 104.12,-181.45 114.46,-183.75 113.63,-176.8"/>
</g>
<!-- Node5 -->
<g id="Node000005" class="node">
<title>Node5</title>
<g id="a_Node000005"><a xlink:href="group__VDP__PALETTE__REGISTER.html" target="_top" xlink:title="Color palettes.">
<polygon fill="white" stroke="#666666" points="248,-142.25 161.5,-142.25 161.5,-123 248,-123 248,-142.25"/>
<text text-anchor="middle" x="204.75" y="-128.75" font-family="Helvetica,sans-Serif" font-size="10.00">Palette registers</text>
</a>
</g>
</g>
<!-- Node1&#45;&gt;Node5 -->
<g id="edge4" class="edge">
<title>Node1&#45;&gt;Node5</title>
<path fill="none" stroke="black" d="M96.04,-167.38C109.44,-161.58 124.31,-155.51 138.25,-150.62 146.37,-147.78 155.19,-145.09 163.65,-142.71"/>
<polygon fill="black" stroke="black" points="94.78,-164.11 87.04,-171.34 97.6,-170.52 94.78,-164.11"/>
</g>
<!-- Node2 -->
<g id="Node000002" class="node">
<title>Node2</title>
<g id="a_Node000002"><a xlink:href="group__VDP__STATUS__REGISTER.html" target="_top" xlink:title="Read from status registers.">
<polygon fill="white" stroke="#666666" points="246.88,-105.25 162.62,-105.25 162.62,-86 246.88,-86 246.88,-105.25"/>
<text text-anchor="middle" x="204.75" y="-91.75" font-family="Helvetica,sans-Serif" font-size="10.00">Status registers</text>
</a>
</g>
</g>
<!-- Node1&#45;&gt;Node2 -->
<g id="edge1" class="edge">
<title>Node1&#45;&gt;Node2</title>
<path fill="none" stroke="black" d="M73.97,-163.98C90.24,-147.66 113.8,-126.64 138.25,-113.62 145.64,-109.69 153.97,-106.56 162.15,-104.08"/>
<polygon fill="black" stroke="black" points="71.67,-161.32 67.21,-170.93 76.69,-166.2 71.67,-161.32"/>
</g>
<!-- Node7 -->
<g id="Node000007" class="node">
<title>Node7</title>
<g id="a_Node000007"><a xlink:href="group__VDP__TABLE__BASE__ADDRESS__REGISTER.html" target="_top" xlink:title="VRAM memory map setting.">
<polygon fill="white" stroke="#666666" points="254.75,-67.88 154.75,-67.88 154.75,-37.38 254.75,-37.38 254.75,-67.88"/>
<text text-anchor="start" x="162.75" y="-54.38" font-family="Helvetica,sans-Serif" font-size="10.00">Table base address</text>
<text text-anchor="middle" x="204.75" y="-43.12" font-family="Helvetica,sans-Serif" font-size="10.00"> registers</text>
</a>
</g>
</g>
<!-- Node1&#45;&gt;Node7 -->
<g id="edge6" class="edge">
<title>Node1&#45;&gt;Node7</title>
<path fill="none" stroke="black" d="M66.05,-162.28C80.94,-137.31 106.72,-99.67 138.25,-76.62 143.14,-73.05 148.62,-69.96 154.27,-67.3"/>
<polygon fill="black" stroke="black" points="63.09,-160.4 61.11,-170.81 69.15,-163.91 63.09,-160.4"/>
</g>
<!-- Node11 -->
<g id="Node000011" class="node">
<title>Node11</title>
<g id="a_Node000011"><a xlink:href="group__VDP__UNSAFE.html" target="_top" xlink:title="Unsafe primitive functions for VDP (Video Display Proccessor) access.">
<polygon fill="white" stroke="#666666" points="269,-19.25 140.5,-19.25 140.5,0 269,0 269,-19.25"/>
<text text-anchor="middle" x="204.75" y="-5.75" font-family="Helvetica,sans-Serif" font-size="10.00">Unsafe primitive functions</text>
</a>
</g>
</g>
<!-- Node1&#45;&gt;Node11 -->
<g id="edge10" class="edge">
<title>Node1&#45;&gt;Node11</title>
<path fill="none" stroke="black" d="M59.48,-160.96C70.63,-125.51 95.21,-63.32 138.25,-28.62 142.77,-24.98 147.95,-22.04 153.39,-19.66"/>
<polygon fill="black" stroke="black" points="56.16,-159.85 56.64,-170.43 62.86,-161.86 56.16,-159.85"/>
</g>
</g>
</svg>
