<?xml version="1.0" encoding="UTF-8" standalone="no"?>
<!DOCTYPE svg PUBLIC "-//W3C//DTD SVG 1.1//EN"
 "http://www.w3.org/Graphics/SVG/1.1/DTD/svg11.dtd">
<!-- Generated by graphviz version 12.2.0 (20241103.1931)
 -->
<!-- Title: 8x8px, 16x16px bitmap image processing. Pages: 1 -->
<svg width="421pt" height="414pt"
 viewBox="0.00 0.00 421.25 414.12" xmlns="http://www.w3.org/2000/svg" xmlns:xlink="http://www.w3.org/1999/xlink">
<g id="graph0" class="graph" transform="scale(1 1) rotate(0) translate(4 410.12)">
<title>8x8px, 16x16px bitmap image processing.</title>
<!-- Node1 -->
<g id="Node000001" class="node">
<title>Node1</title>
<g id="a_Node000001"><a xlink:title="#include &lt;im.h&gt;">
<polygon fill="#999999" stroke="#666666" points="243.5,-234.12 130.75,-234.12 130.75,-203.62 243.5,-203.62 243.5,-234.12"/>
<text text-anchor="start" x="138.75" y="-220.62" font-family="Helvetica,sans-Serif" font-size="10.00">8x8px, 16x16px bitmap</text>
<text text-anchor="middle" x="187.12" y="-209.38" font-family="Helvetica,sans-Serif" font-size="10.00"> image processing.</text>
</a>
</g>
</g>
<!-- Node4 -->
<g id="Node000004" class="node">
<title>Node4</title>
<g id="a_Node000004"><a xlink:href="group__IM__BOOLEAN__BM8x8.html" target="_top" xlink:title=" ">
<polygon fill="white" stroke="#666666" points="413.25,-406.12 279.5,-406.12 279.5,-375.62 413.25,-375.62 413.25,-406.12"/>
<text text-anchor="start" x="287.5" y="-392.62" font-family="Helvetica,sans-Serif" font-size="10.00">Boolean operators for</text>
<text text-anchor="middle" x="346.38" y="-381.38" font-family="Helvetica,sans-Serif" font-size="10.00"> 8x8px 1bpp bitmap images.</text>
</a>
</g>
</g>
<!-- Node1&#45;&gt;Node4 -->
<g id="edge3" class="edge">
<title>Node1&#45;&gt;Node4</title>
<path fill="none" stroke="black" d="M198.14,-244.99C211.86,-277.55 239.45,-332.91 279.5,-365.88 283.84,-369.45 288.75,-372.55 293.89,-375.23"/>
<polygon fill="black" stroke="black" points="201.45,-243.85 194.44,-235.91 194.97,-246.49 201.45,-243.85"/>
</g>
<!-- Node8 -->
<g id="Node000008" class="node">
<title>Node8</title>
<g id="a_Node000008"><a xlink:href="group__IM__BOOLEAN__SP16x16.html" target="_top" xlink:title=" ">
<polygon fill="white" stroke="#666666" points="412.88,-357.12 279.88,-357.12 279.88,-326.62 412.88,-326.62 412.88,-357.12"/>
<text text-anchor="start" x="287.88" y="-343.62" font-family="Helvetica,sans-Serif" font-size="10.00">Boolean operators for</text>
<text text-anchor="middle" x="346.38" y="-332.38" font-family="Helvetica,sans-Serif" font-size="10.00"> 16x16 1bpp sprite patterns.</text>
</a>
</g>
</g>
<!-- Node1&#45;&gt;Node8 -->
<g id="edge7" class="edge">
<title>Node1&#45;&gt;Node8</title>
<path fill="none" stroke="black" d="M205.86,-243.56C222.67,-265.42 249.73,-296.87 279.5,-316.88 284.68,-320.35 290.41,-323.44 296.26,-326.15"/>
<polygon fill="black" stroke="black" points="208.81,-241.66 200,-235.76 203.21,-245.86 208.81,-241.66"/>
</g>
<!-- Node5 -->
<g id="Node000005" class="node">
<title>Node5</title>
<g id="a_Node000005"><a xlink:href="group__IM__SHIFT__BM8x8.html" target="_top" xlink:title=" ">
<polygon fill="white" stroke="#666666" points="413.25,-308.12 279.5,-308.12 279.5,-277.62 413.25,-277.62 413.25,-308.12"/>
<text text-anchor="start" x="287.5" y="-294.62" font-family="Helvetica,sans-Serif" font-size="10.00">Shift operators for</text>
<text text-anchor="middle" x="346.38" y="-283.38" font-family="Helvetica,sans-Serif" font-size="10.00"> 8x8px 1bpp bitmap images.</text>
</a>
</g>
</g>
<!-- Node1&#45;&gt;Node5 -->
<g id="edge4" class="edge">
<title>Node1&#45;&gt;Node5</title>
<path fill="none" stroke="black" d="M225.01,-240.06C241.44,-249.13 261.19,-259.53 279.5,-267.88 286.62,-271.12 294.3,-274.31 301.82,-277.26"/>
<polygon fill="black" stroke="black" points="227.01,-237.17 216.57,-235.35 223.6,-243.28 227.01,-237.17"/>
</g>
<!-- Node9 -->
<g id="Node000009" class="node">
<title>Node9</title>
<g id="a_Node000009"><a xlink:href="group__IM__SHIFT__SP16x16.html" target="_top" xlink:title=" ">
<polygon fill="white" stroke="#666666" points="412.88,-259.12 279.88,-259.12 279.88,-228.62 412.88,-228.62 412.88,-259.12"/>
<text text-anchor="start" x="287.88" y="-245.62" font-family="Helvetica,sans-Serif" font-size="10.00">Shift operators for</text>
<text text-anchor="middle" x="346.38" y="-234.38" font-family="Helvetica,sans-Serif" font-size="10.00"> 16x16 1bpp sprite patterns.</text>
</a>
</g>
</g>
<!-- Node1&#45;&gt;Node9 -->
<g id="edge8" class="edge">
<title>Node1&#45;&gt;Node9</title>
<path fill="none" stroke="black" d="M254.89,-229.49C263,-230.78 271.29,-232.1 279.39,-233.38"/>
<polygon fill="black" stroke="black" points="255.49,-226.04 245.06,-227.93 254.39,-232.95 255.49,-226.04"/>
</g>
<!-- Node6 -->
<g id="Node000006" class="node">
<title>Node6</title>
<g id="a_Node000006"><a xlink:href="group__IM__TILEMAP__BM8x8.html" target="_top" xlink:title=" ">
<polygon fill="white" stroke="#666666" points="402.38,-210.12 290.38,-210.12 290.38,-179.62 402.38,-179.62 402.38,-210.12"/>
<text text-anchor="start" x="298.38" y="-196.62" font-family="Helvetica,sans-Serif" font-size="10.00">Tile&#45;mapping for 8x8px</text>
<text text-anchor="middle" x="346.38" y="-185.38" font-family="Helvetica,sans-Serif" font-size="10.00"> 1bpp bitmap images.</text>
</a>
</g>
</g>
<!-- Node1&#45;&gt;Node6 -->
<g id="edge5" class="edge">
<title>Node1&#45;&gt;Node6</title>
<path fill="none" stroke="black" d="M254.67,-208.72C266.41,-206.93 278.51,-205.08 289.91,-203.34"/>
<polygon fill="black" stroke="black" points="254.42,-205.22 245.06,-210.19 255.48,-212.14 254.42,-205.22"/>
</g>
<!-- Node3 -->
<g id="Node000003" class="node">
<title>Node3</title>
<g id="a_Node000003"><a xlink:href="group__IM__TRANSFORM__BM8x8.html" target="_top" xlink:title=" ">
<polygon fill="white" stroke="#666666" points="399.75,-161.75 293,-161.75 293,-120 399.75,-120 399.75,-161.75"/>
<text text-anchor="start" x="301" y="-148.25" font-family="Helvetica,sans-Serif" font-size="10.00">Matrix transformation</text>
<text text-anchor="start" x="301" y="-137" font-family="Helvetica,sans-Serif" font-size="10.00"> operators for 8x8px</text>
<text text-anchor="middle" x="346.38" y="-125.75" font-family="Helvetica,sans-Serif" font-size="10.00"> 1bpp bitmap images.</text>
</a>
</g>
</g>
<!-- Node1&#45;&gt;Node3 -->
<g id="edge2" class="edge">
<title>Node1&#45;&gt;Node3</title>
<path fill="none" stroke="black" d="M226.42,-198.14C242.68,-189.5 261.91,-179.49 279.5,-170.88 285.37,-168 291.57,-165.06 297.73,-162.19"/>
<polygon fill="black" stroke="black" points="225.23,-194.81 218.06,-202.61 228.53,-200.99 225.23,-194.81"/>
</g>
<!-- Node7 -->
<g id="Node000007" class="node">
<title>Node7</title>
<g id="a_Node000007"><a xlink:href="group__IM__TRANSFORM__SP16x16.html" target="_top" xlink:title=" ">
<polygon fill="white" stroke="#666666" points="399.75,-101.75 293,-101.75 293,-60 399.75,-60 399.75,-101.75"/>
<text text-anchor="start" x="301" y="-88.25" font-family="Helvetica,sans-Serif" font-size="10.00">Matrix transformation</text>
<text text-anchor="start" x="301" y="-77" font-family="Helvetica,sans-Serif" font-size="10.00"> operators for 16x16</text>
<text text-anchor="middle" x="346.38" y="-65.75" font-family="Helvetica,sans-Serif" font-size="10.00"> 1bpp sprite patterns.</text>
</a>
</g>
</g>
<!-- Node1&#45;&gt;Node7 -->
<g id="edge6" class="edge">
<title>Node1&#45;&gt;Node7</title>
<path fill="none" stroke="black" d="M204.32,-193.98C220.87,-170.12 248.49,-134.35 279.5,-110.88 283.61,-107.77 288.09,-104.88 292.72,-102.23"/>
<polygon fill="black" stroke="black" points="201.5,-191.91 198.78,-202.15 207.29,-195.84 201.5,-191.91"/>
</g>
<!-- Node10 -->
<g id="Node000010" class="node">
<title>Node10</title>
<g id="a_Node000010"><a xlink:href="group__IM__TRIM__SP16x16.html" target="_top" xlink:title=" ">
<polygon fill="white" stroke="#666666" points="399.75,-41.75 293,-41.75 293,0 399.75,0 399.75,-41.75"/>
<text text-anchor="start" x="301" y="-28.25" font-family="Helvetica,sans-Serif" font-size="10.00">Trimming (Cropping)</text>
<text text-anchor="start" x="301" y="-17" font-family="Helvetica,sans-Serif" font-size="10.00"> for 16x16 1bpp sprite</text>
<text text-anchor="middle" x="346.38" y="-5.75" font-family="Helvetica,sans-Serif" font-size="10.00"> patterns.</text>
</a>
</g>
</g>
<!-- Node1&#45;&gt;Node10 -->
<g id="edge9" class="edge">
<title>Node1&#45;&gt;Node10</title>
<path fill="none" stroke="black" d="M196.41,-192.66C209.05,-156.47 236.32,-91.11 279.5,-50.88 283.45,-47.19 287.94,-43.9 292.66,-40.97"/>
<polygon fill="black" stroke="black" points="193.18,-191.29 193.31,-201.89 199.81,-193.53 193.18,-191.29"/>
</g>
<!-- Node2 -->
<g id="Node000002" class="node">
<title>Node2</title>
<g id="a_Node000002"><a xlink:href="group__LIBMSX__IMAGE__PROC.html" target="_top" xlink:title=" ">
<polygon fill="white" stroke="#666666" points="94.75,-228.5 0,-228.5 0,-209.25 94.75,-209.25 94.75,-228.5"/>
<text text-anchor="middle" x="47.38" y="-215" font-family="Helvetica,sans-Serif" font-size="10.00">Image processing.</text>
</a>
</g>
</g>
<!-- Node2&#45;&gt;Node1 -->
<g id="edge1" class="edge">
<title>Node2&#45;&gt;Node1</title>
<path fill="none" stroke="black" d="M106.47,-218.88C114.42,-218.88 122.57,-218.88 130.48,-218.88"/>
<polygon fill="black" stroke="black" points="106.52,-215.38 96.52,-218.88 106.52,-222.38 106.52,-215.38"/>
</g>
</g>
</svg>
