<?xml version="1.0" encoding="UTF-8" standalone="no"?>
<!DOCTYPE svg PUBLIC "-//W3C//DTD SVG 1.1//EN"
 "http://www.w3.org/Graphics/SVG/1.1/DTD/svg11.dtd">
<!-- Generated by graphviz version 12.2.0 (20241103.1931)
 -->
<!-- Title: OPLL &#45; YM2413 / MSX&#45;MUSIC Pages: 1 -->
<svg width="390pt" height="64pt"
 viewBox="0.00 0.00 389.75 64.25" xmlns="http://www.w3.org/2000/svg" xmlns:xlink="http://www.w3.org/1999/xlink">
<g id="graph0" class="graph" transform="scale(1 1) rotate(0) translate(4 60.25)">
<title>OPLL &#45; YM2413 / MSX&#45;MUSIC</title>
<!-- Node2 -->
<g id="Node000002" class="node">
<title>Node2</title>
<g id="a_Node000002"><a xlink:href="group__LIBMSX__SOUNDCHIP.html" target="_top" xlink:title=" ">
<polygon fill="white" stroke="#666666" points="82,-37.25 0,-37.25 0,-18 82,-18 82,-37.25"/>
<text text-anchor="middle" x="41" y="-23.75" font-family="Helvetica,sans-Serif" font-size="10.00">Sound devices.</text>
</a>
</g>
</g>
<!-- Node1 -->
<g id="Node000001" class="node">
<title>Node1</title>
<g id="a_Node000001"><a xlink:title="#include &lt;opll.h&gt;">
<polygon fill="#999999" stroke="#666666" points="233,-42.88 118,-42.88 118,-12.37 233,-12.37 233,-42.88"/>
<text text-anchor="start" x="126" y="-29.38" font-family="Helvetica,sans-Serif" font-size="10.00">OPLL &#45; YM2413 / MSX</text>
<text text-anchor="middle" x="175.5" y="-18.12" font-family="Helvetica,sans-Serif" font-size="10.00">&#45;MUSIC</text>
</a>
</g>
</g>
<!-- Node2&#45;&gt;Node1 -->
<g id="edge1" class="edge">
<title>Node2&#45;&gt;Node1</title>
<path fill="none" stroke="black" d="M93.73,-27.62C101.59,-27.62 109.73,-27.62 117.69,-27.62"/>
<polygon fill="black" stroke="black" points="93.99,-24.13 83.99,-27.63 93.99,-31.13 93.99,-24.13"/>
</g>
<!-- Node4 -->
<g id="Node000004" class="node">
<title>Node4</title>
<g id="a_Node000004"><a xlink:href="group__OPLL__BUFFER.html" target="_top" xlink:title="#include &lt;opll_buf.h&gt; Buffered access to OPLL registers.">
<polygon fill="white" stroke="#666666" points="360.38,-56.25 290.38,-56.25 290.38,-37 360.38,-37 360.38,-56.25"/>
<text text-anchor="middle" x="325.38" y="-42.75" font-family="Helvetica,sans-Serif" font-size="10.00">OPLL Buffer</text>
</a>
</g>
</g>
<!-- Node1&#45;&gt;Node4 -->
<g id="edge3" class="edge">
<title>Node1&#45;&gt;Node4</title>
<path fill="none" stroke="black" d="M244.66,-36.38C260.47,-38.41 276.64,-40.49 290.24,-42.24"/>
<polygon fill="black" stroke="black" points="245.12,-32.91 234.75,-35.11 244.22,-39.86 245.12,-32.91"/>
</g>
<!-- Node3 -->
<g id="Node000003" class="node">
<title>Node3</title>
<g id="a_Node000003"><a xlink:href="group__OPLL__DEVICE.html" target="_top" xlink:title="Inspect, discover, enable/disable to access registers, of the OPLL sound chip.">
<polygon fill="white" stroke="#666666" points="381.75,-19.25 269,-19.25 269,0 381.75,0 381.75,-19.25"/>
<text text-anchor="middle" x="325.38" y="-5.75" font-family="Helvetica,sans-Serif" font-size="10.00">OPLL device interface</text>
</a>
</g>
</g>
<!-- Node1&#45;&gt;Node3 -->
<g id="edge2" class="edge">
<title>Node1&#45;&gt;Node3</title>
<path fill="none" stroke="black" d="M244.51,-19.35C252.54,-18.37 260.67,-17.38 268.51,-16.43"/>
<polygon fill="black" stroke="black" points="244.26,-15.85 234.75,-20.53 245.1,-22.8 244.26,-15.85"/>
</g>
</g>
</svg>
