<?xml version="1.0" encoding="UTF-8" standalone="no"?>
<!DOCTYPE svg PUBLIC "-//W3C//DTD SVG 1.1//EN"
 "http://www.w3.org/Graphics/SVG/1.1/DTD/svg11.dtd">
<!-- Generated by graphviz version 12.2.0 (20241103.1931)
 -->
<!-- Title: The libmsx audio replayer. Pages: 1 -->
<svg width="309pt" height="256pt"
 viewBox="0.00 0.00 309.25 256.12" xmlns="http://www.w3.org/2000/svg" xmlns:xlink="http://www.w3.org/1999/xlink">
<g id="graph0" class="graph" transform="scale(1 1) rotate(0) translate(4 252.12)">
<title>The libmsx audio replayer.</title>
<!-- Node1 -->
<g id="Node000001" class="node">
<title>Node1</title>
<g id="a_Node000001"><a xlink:title="#include &lt;audio.h&gt;">
<polygon fill="#999999" stroke="#666666" points="126.25,-122.88 0,-122.88 0,-103.62 126.25,-103.62 126.25,-122.88"/>
<text text-anchor="middle" x="63.12" y="-109.38" font-family="Helvetica,sans-Serif" font-size="10.00">The libmsx audio replayer.</text>
</a>
</g>
</g>
<!-- Node4 -->
<g id="Node000004" class="node">
<title>Node4</title>
<g id="a_Node000004"><a xlink:href="group__AUDIO__BUFFER.html" target="_top" xlink:title="#include &lt;audio_buf.h&gt;">
<polygon fill="white" stroke="#666666" points="281,-248.12 182.5,-248.12 182.5,-206.38 281,-206.38 281,-248.12"/>
<text text-anchor="start" x="190.5" y="-234.62" font-family="Helvetica,sans-Serif" font-size="10.00">Unified sound&#45;chip</text>
<text text-anchor="start" x="190.5" y="-223.38" font-family="Helvetica,sans-Serif" font-size="10.00"> buffer of the libmsx</text>
<text text-anchor="middle" x="231.75" y="-212.12" font-family="Helvetica,sans-Serif" font-size="10.00"> audio replayer.</text>
</a>
</g>
</g>
<!-- Node1&#45;&gt;Node4 -->
<g id="edge3" class="edge">
<title>Node1&#45;&gt;Node4</title>
<path fill="none" stroke="black" d="M81.8,-131.25C100.53,-149.59 131.56,-177.99 162.25,-197.25 168.52,-201.18 175.39,-204.85 182.29,-208.18"/>
<polygon fill="black" stroke="black" points="84.29,-128.78 74.73,-124.21 79.35,-133.74 84.29,-128.78"/>
</g>
<!-- Node5 -->
<g id="Node000005" class="node">
<title>Node5</title>
<g id="a_Node000005"><a xlink:href="group__AUDIO__CALLBACK.html" target="_top" xlink:title="#include &lt;audio_cb.h&gt;">
<polygon fill="white" stroke="#666666" points="280.62,-188.12 182.88,-188.12 182.88,-146.38 280.62,-146.38 280.62,-188.12"/>
<text text-anchor="start" x="190.88" y="-174.62" font-family="Helvetica,sans-Serif" font-size="10.00">Callback functions</text>
<text text-anchor="start" x="190.88" y="-163.38" font-family="Helvetica,sans-Serif" font-size="10.00"> of the libmsx audio</text>
<text text-anchor="middle" x="231.75" y="-152.12" font-family="Helvetica,sans-Serif" font-size="10.00"> replayer.</text>
</a>
</g>
</g>
<!-- Node1&#45;&gt;Node5 -->
<g id="edge4" class="edge">
<title>Node1&#45;&gt;Node5</title>
<path fill="none" stroke="black" d="M106,-126.82C129.29,-134.37 158.38,-143.8 182.61,-151.65"/>
<polygon fill="black" stroke="black" points="107.11,-123.5 96.52,-123.75 104.95,-130.16 107.11,-123.5"/>
</g>
<!-- Node6 -->
<g id="Node000006" class="node">
<title>Node6</title>
<g id="a_Node000006"><a xlink:href="group__AUDIO__DECODER.html" target="_top" xlink:title="#include &lt;audio_dec.h&gt;">
<polygon fill="white" stroke="#666666" points="301.25,-128.5 162.25,-128.5 162.25,-98 301.25,-98 301.25,-128.5"/>
<text text-anchor="start" x="170.25" y="-115" font-family="Helvetica,sans-Serif" font-size="10.00">The audio decoder interface</text>
<text text-anchor="middle" x="231.75" y="-103.75" font-family="Helvetica,sans-Serif" font-size="10.00"> for the libmsx audio replayer.</text>
</a>
</g>
</g>
<!-- Node1&#45;&gt;Node6 -->
<g id="edge5" class="edge">
<title>Node1&#45;&gt;Node6</title>
<path fill="none" stroke="black" d="M138.16,-113.25C146.09,-113.25 154.14,-113.25 162.01,-113.25"/>
<polygon fill="black" stroke="black" points="138.16,-109.75 128.16,-113.25 138.16,-116.75 138.16,-109.75"/>
</g>
<!-- Node3 -->
<g id="Node000003" class="node">
<title>Node3</title>
<g id="a_Node000003"><a xlink:href="group__AUDIO__EFX.html" target="_top" xlink:title="Effectors for the libmsx audio replayer.">
<polygon fill="white" stroke="#666666" points="288.5,-79.5 175,-79.5 175,-49 288.5,-49 288.5,-79.5"/>
<text text-anchor="start" x="183" y="-66" font-family="Helvetica,sans-Serif" font-size="10.00">Effectors for the libmsx</text>
<text text-anchor="middle" x="231.75" y="-54.75" font-family="Helvetica,sans-Serif" font-size="10.00"> audio replayer.</text>
</a>
</g>
</g>
<!-- Node1&#45;&gt;Node3 -->
<g id="edge2" class="edge">
<title>Node1&#45;&gt;Node3</title>
<path fill="none" stroke="black" d="M109.13,-100.01C130.16,-93.83 155.34,-86.43 177.32,-79.96"/>
<polygon fill="black" stroke="black" points="108.3,-96.61 99.7,-102.79 110.28,-103.33 108.3,-96.61"/>
</g>
<!-- Node2 -->
<g id="Node000002" class="node">
<title>Node2</title>
<g id="a_Node000002"><a xlink:href="group__AUDIO__REPLAYER.html" target="_top" xlink:title="The API of the libmsx audio replayer.">
<polygon fill="white" stroke="#666666" points="285.5,-30.5 178,-30.5 178,0 285.5,0 285.5,-30.5"/>
<text text-anchor="start" x="186" y="-17" font-family="Helvetica,sans-Serif" font-size="10.00">The API of the libmsx</text>
<text text-anchor="middle" x="231.75" y="-5.75" font-family="Helvetica,sans-Serif" font-size="10.00"> audio replayer.</text>
</a>
</g>
</g>
<!-- Node1&#45;&gt;Node2 -->
<g id="edge1" class="edge">
<title>Node1&#45;&gt;Node2</title>
<path fill="none" stroke="black" d="M83.8,-95.91C102.83,-79.81 133,-56.03 162.25,-40.25 168.6,-36.82 175.52,-33.68 182.44,-30.87"/>
<polygon fill="black" stroke="black" points="81.62,-93.17 76.32,-102.34 86.18,-98.47 81.62,-93.17"/>
</g>
</g>
</svg>
