<?xml version="1.0" encoding="UTF-8" standalone="no"?>
<!DOCTYPE svg PUBLIC "-//W3C//DTD SVG 1.1//EN"
 "http://www.w3.org/Graphics/SVG/1.1/DTD/svg11.dtd">
<!-- Generated by graphviz version 12.2.0 (20241103.1931)
 -->
<!-- Title: XMEM &#45; Inter&#45;memory transfer. Pages: 1 -->
<svg width="278pt" height="252pt"
 viewBox="0.00 0.00 277.75 251.75" xmlns="http://www.w3.org/2000/svg" xmlns:xlink="http://www.w3.org/1999/xlink">
<g id="graph0" class="graph" transform="scale(1 1) rotate(0) translate(4 247.75)">
<title>XMEM &#45; Inter&#45;memory transfer.</title>
<!-- Node2 -->
<g id="Node000002" class="node">
<title>Node2</title>
<g id="a_Node000002"><a xlink:href="group__BMEM__RD.html" target="_top" xlink:title="Building blocks for copying and transferring data between different types of memory devices.">
<polygon fill="white" stroke="#666666" points="269.75,-243.75 145.75,-243.75 145.75,-190.75 269.75,-190.75 269.75,-243.75"/>
<text text-anchor="start" x="153.75" y="-230.25" font-family="Helvetica,sans-Serif" font-size="10.00">A part of building</text>
<text text-anchor="start" x="153.75" y="-219" font-family="Helvetica,sans-Serif" font-size="10.00"> blocks for inter&#45;memory</text>
<text text-anchor="start" x="153.75" y="-207.75" font-family="Helvetica,sans-Serif" font-size="10.00"> transfer, dedicated to</text>
<text text-anchor="middle" x="207.75" y="-196.5" font-family="Helvetica,sans-Serif" font-size="10.00"> Banked Memory access.</text>
</a>
</g>
</g>
<!-- Node3 -->
<g id="Node000003" class="node">
<title>Node3</title>
<g id="a_Node000003"><a xlink:href="group__MEM__RW.html" target="_top" xlink:title="Building blocks for copying and transferring data between different types of memory devices.">
<polygon fill="white" stroke="#666666" points="267.12,-172.75 148.38,-172.75 148.38,-119.75 267.12,-119.75 267.12,-172.75"/>
<text text-anchor="start" x="156.38" y="-159.25" font-family="Helvetica,sans-Serif" font-size="10.00">A part of building</text>
<text text-anchor="start" x="156.38" y="-148" font-family="Helvetica,sans-Serif" font-size="10.00"> blocks for inter&#45;memory</text>
<text text-anchor="start" x="156.38" y="-136.75" font-family="Helvetica,sans-Serif" font-size="10.00"> transfer, dedicated to</text>
<text text-anchor="middle" x="207.75" y="-125.5" font-family="Helvetica,sans-Serif" font-size="10.00"> ROM / RAM access.</text>
</a>
</g>
</g>
<!-- Node4 -->
<g id="Node000004" class="node">
<title>Node4</title>
<g id="a_Node000004"><a xlink:href="group__VMEM__RW.html" target="_top" xlink:title="Building blocks for copying and transferring data between different types of memory devices.">
<polygon fill="white" stroke="#666666" points="267.12,-101.75 148.38,-101.75 148.38,-48.75 267.12,-48.75 267.12,-101.75"/>
<text text-anchor="start" x="156.38" y="-88.25" font-family="Helvetica,sans-Serif" font-size="10.00">A part of building</text>
<text text-anchor="start" x="156.38" y="-77" font-family="Helvetica,sans-Serif" font-size="10.00"> blocks for inter&#45;memory</text>
<text text-anchor="start" x="156.38" y="-65.75" font-family="Helvetica,sans-Serif" font-size="10.00"> transfer, dedicated to</text>
<text text-anchor="middle" x="207.75" y="-54.5" font-family="Helvetica,sans-Serif" font-size="10.00"> VRAM access.</text>
</a>
</g>
</g>
<!-- Node1 -->
<g id="Node000001" class="node">
<title>Node1</title>
<g id="a_Node000001"><a xlink:title="#include &lt;xmem.h&gt;">
<polygon fill="#999999" stroke="#666666" points="109.75,-125.5 0,-125.5 0,-95 109.75,-95 109.75,-125.5"/>
<text text-anchor="start" x="8" y="-112" font-family="Helvetica,sans-Serif" font-size="10.00">XMEM &#45; Inter&#45;memory</text>
<text text-anchor="middle" x="54.88" y="-100.75" font-family="Helvetica,sans-Serif" font-size="10.00"> transfer.</text>
</a>
</g>
</g>
<!-- Node1&#45;&gt;Node2 -->
<g id="edge1" class="edge">
<title>Node1&#45;&gt;Node2</title>
<path fill="none" stroke="black" d="M82.03,-132.98C99.53,-147.75 123.38,-167.01 145.75,-182.25 149.79,-185 154.05,-187.75 158.37,-190.42"/>
<polygon fill="black" stroke="black" points="84.53,-130.52 74.64,-126.7 79.99,-135.85 84.53,-130.52"/>
</g>
<!-- Node1&#45;&gt;Node3 -->
<g id="edge2" class="edge">
<title>Node1&#45;&gt;Node3</title>
<path fill="none" stroke="black" d="M121.09,-125.81C130.03,-127.94 139.16,-130.12 147.97,-132.23"/>
<polygon fill="black" stroke="black" points="121.93,-122.41 111.39,-123.5 120.3,-129.22 121.93,-122.41"/>
</g>
<!-- Node1&#45;&gt;Node4 -->
<g id="edge3" class="edge">
<title>Node1&#45;&gt;Node4</title>
<path fill="none" stroke="black" d="M121.09,-95.12C130.03,-93.05 139.16,-90.93 147.97,-88.88"/>
<polygon fill="black" stroke="black" points="120.34,-91.7 111.39,-97.37 121.92,-98.52 120.34,-91.7"/>
</g>
<!-- Node5 -->
<g id="Node000005" class="node">
<title>Node5</title>
<g id="a_Node000005"><a xlink:href="group__XMEM__INTER__MEMORY__TRANSFER.html" target="_top" xlink:title="Building blocks for copying and transferring data between different types of memory devices.">
<polygon fill="white" stroke="#666666" points="263.75,-30.5 151.75,-30.5 151.75,0 263.75,0 263.75,-30.5"/>
<text text-anchor="start" x="159.75" y="-17" font-family="Helvetica,sans-Serif" font-size="10.00">Building blocks for</text>
<text text-anchor="middle" x="207.75" y="-5.75" font-family="Helvetica,sans-Serif" font-size="10.00"> inter&#45;memory transfer.</text>
</a>
</g>
</g>
<!-- Node1&#45;&gt;Node5 -->
<g id="edge4" class="edge">
<title>Node1&#45;&gt;Node5</title>
<path fill="none" stroke="black" d="M81.5,-87.22C98.78,-72.48 122.58,-53.68 145.75,-40.25 151.59,-36.86 157.98,-33.71 164.36,-30.86"/>
<polygon fill="black" stroke="black" points="79.5,-84.32 74.23,-93.52 84.08,-89.61 79.5,-84.32"/>
</g>
</g>
</svg>
