<?xml version="1.0" encoding="UTF-8" standalone="no"?>
<!DOCTYPE svg PUBLIC "-//W3C//DTD SVG 1.1//EN"
 "http://www.w3.org/Graphics/SVG/1.1/DTD/svg11.dtd">
<!-- Generated by graphviz version 12.2.0 (20241103.1931)
 -->
<!-- Title: Banked Memory interface for MegaROM. Pages: 1 -->
<svg width="500pt" height="137pt"
 viewBox="0.00 0.00 500.00 136.50" xmlns="http://www.w3.org/2000/svg" xmlns:xlink="http://www.w3.org/1999/xlink">
<g id="graph0" class="graph" transform="scale(1 1) rotate(0) translate(4 132.5)">
<title>Banked Memory interface for MegaROM.</title>
<!-- Node1 -->
<g id="Node000001" class="node">
<title>Node1</title>
<g id="a_Node000001"><a xlink:title="#include &lt;bmem.h&gt;">
<polygon fill="#999999" stroke="#666666" points="310.25,-79.5 184.75,-79.5 184.75,-49 310.25,-49 310.25,-79.5"/>
<text text-anchor="start" x="192.75" y="-66" font-family="Helvetica,sans-Serif" font-size="10.00">Banked Memory interface</text>
<text text-anchor="middle" x="247.5" y="-54.75" font-family="Helvetica,sans-Serif" font-size="10.00"> for MegaROM.</text>
</a>
</g>
</g>
<!-- Node3 -->
<g id="Node000003" class="node">
<title>Node3</title>
<g id="a_Node000003"><a xlink:href="group__BANKED__MEMORY__DIRECT__ACCESS.html" target="_top" xlink:title="APIs for direct access to 16KiB segments of banked memory.">
<polygon fill="white" stroke="#666666" points="489.75,-128.5 348.5,-128.5 348.5,-98 489.75,-98 489.75,-128.5"/>
<text text-anchor="start" x="356.5" y="-115" font-family="Helvetica,sans-Serif" font-size="10.00">Direct access to banked</text>
<text text-anchor="middle" x="419.12" y="-103.75" font-family="Helvetica,sans-Serif" font-size="10.00"> memory by switching page 2.</text>
</a>
</g>
</g>
<!-- Node1&#45;&gt;Node3 -->
<g id="edge2" class="edge">
<title>Node1&#45;&gt;Node3</title>
<path fill="none" stroke="black" d="M313.36,-82.98C329.95,-87.78 347.62,-92.88 363.63,-97.51"/>
<polygon fill="black" stroke="black" points="314.67,-79.72 304.09,-80.31 312.73,-86.45 314.67,-79.72"/>
</g>
<!-- Node4 -->
<g id="Node000004" class="node">
<title>Node4</title>
<g id="a_Node000004"><a xlink:href="group__BANKED__MEMORY__INDIRECT__ACCESS.html" target="_top" xlink:title="APIs for indirect access to banked memory.">
<polygon fill="white" stroke="#666666" points="474.38,-79.5 363.88,-79.5 363.88,-49 474.38,-49 474.38,-79.5"/>
<text text-anchor="start" x="371.88" y="-66" font-family="Helvetica,sans-Serif" font-size="10.00">Reading and copying</text>
<text text-anchor="middle" x="419.12" y="-54.75" font-family="Helvetica,sans-Serif" font-size="10.00"> from banked memory.</text>
</a>
</g>
</g>
<!-- Node1&#45;&gt;Node4 -->
<g id="edge3" class="edge">
<title>Node1&#45;&gt;Node4</title>
<path fill="none" stroke="black" d="M321.8,-64.25C335.79,-64.25 350.21,-64.25 363.49,-64.25"/>
<polygon fill="black" stroke="black" points="322.21,-60.75 312.21,-64.25 322.21,-67.75 322.21,-60.75"/>
</g>
<!-- Node5 -->
<g id="Node000005" class="node">
<title>Node5</title>
<g id="a_Node000005"><a xlink:href="group__RESOURCES.html" target="_top" xlink:title="#include &lt;resources.h&gt;">
<polygon fill="white" stroke="#666666" points="492,-30.5 346.25,-30.5 346.25,0 492,0 492,-30.5"/>
<text text-anchor="start" x="354.25" y="-17" font-family="Helvetica,sans-Serif" font-size="10.00">Banked Memory as a</text>
<text text-anchor="middle" x="419.12" y="-5.75" font-family="Helvetica,sans-Serif" font-size="10.00"> storage of Named Resources.</text>
</a>
</g>
</g>
<!-- Node1&#45;&gt;Node5 -->
<g id="edge4" class="edge">
<title>Node1&#45;&gt;Node5</title>
<path fill="none" stroke="black" d="M313.36,-45.52C329.95,-40.72 347.62,-35.62 363.63,-30.99"/>
<polygon fill="black" stroke="black" points="312.73,-42.05 304.09,-48.19 314.67,-48.78 312.73,-42.05"/>
</g>
<!-- Node2 -->
<g id="Node000002" class="node">
<title>Node2</title>
<g id="a_Node000002"><a xlink:href="group__LIBMSX__STORAGE.html" target="_top" xlink:title=" ">
<polygon fill="white" stroke="#666666" points="148.75,-79.5 0,-79.5 0,-49 148.75,-49 148.75,-79.5"/>
<text text-anchor="start" x="8" y="-66" font-family="Helvetica,sans-Serif" font-size="10.00">RAM/ROM/MegaROM Storage</text>
<text text-anchor="middle" x="74.38" y="-54.75" font-family="Helvetica,sans-Serif" font-size="10.00"> Interface.</text>
</a>
</g>
</g>
<!-- Node2&#45;&gt;Node1 -->
<g id="edge1" class="edge">
<title>Node2&#45;&gt;Node1</title>
<path fill="none" stroke="black" d="M160.32,-64.25C168.4,-64.25 176.48,-64.25 184.28,-64.25"/>
<polygon fill="black" stroke="black" points="160.45,-60.75 150.45,-64.25 160.45,-67.75 160.45,-60.75"/>
</g>
</g>
</svg>
