<?xml version="1.0" encoding="UTF-8" standalone="no"?>
<!DOCTYPE svg PUBLIC "-//W3C//DTD SVG 1.1//EN"
 "http://www.w3.org/Graphics/SVG/1.1/DTD/svg11.dtd">
<!-- Generated by graphviz version 12.2.0 (20241103.1931)
 -->
<!-- Title: Effectors for the libmsx audio replayer. Pages: 1 -->
<svg width="435pt" height="76pt"
 viewBox="0.00 0.00 434.75 75.88" xmlns="http://www.w3.org/2000/svg" xmlns:xlink="http://www.w3.org/1999/xlink">
<g id="graph0" class="graph" transform="scale(1 1) rotate(0) translate(4 71.88)">
<title>Effectors for the libmsx audio replayer.</title>
<!-- Node2 -->
<g id="Node000002" class="node">
<title>Node2</title>
<g id="a_Node000002"><a xlink:href="group__AUDIO.html" target="_top" xlink:title="#include &lt;audio.h&gt;">
<polygon fill="white" stroke="#666666" points="126.25,-45.88 0,-45.88 0,-26.62 126.25,-26.62 126.25,-45.88"/>
<text text-anchor="middle" x="63.12" y="-32.38" font-family="Helvetica,sans-Serif" font-size="10.00">The libmsx audio replayer.</text>
</a>
</g>
</g>
<!-- Node1 -->
<g id="Node000001" class="node">
<title>Node1</title>
<g id="a_Node000001"><a xlink:title="Effectors for the libmsx audio replayer.">
<polygon fill="#999999" stroke="#666666" points="275.75,-51.5 162.25,-51.5 162.25,-21 275.75,-21 275.75,-51.5"/>
<text text-anchor="start" x="170.25" y="-38" font-family="Helvetica,sans-Serif" font-size="10.00">Effectors for the libmsx</text>
<text text-anchor="middle" x="219" y="-26.75" font-family="Helvetica,sans-Serif" font-size="10.00"> audio replayer.</text>
</a>
</g>
</g>
<!-- Node2&#45;&gt;Node1 -->
<g id="edge1" class="edge">
<title>Node2&#45;&gt;Node1</title>
<path fill="none" stroke="black" d="M138.01,-36.25C146.05,-36.25 154.13,-36.25 161.9,-36.25"/>
<polygon fill="black" stroke="black" points="138.23,-32.75 128.23,-36.25 138.23,-39.75 138.23,-32.75"/>
</g>
<!-- Node3 -->
<g id="Node000003" class="node">
<title>Node3</title>
<g id="a_Node000003"><a xlink:href="group__AUDIO__EFX__AMP.html" target="_top" xlink:title="#include &lt;audio_efx_amp.h&gt;">
<polygon fill="white" stroke="#666666" points="415.88,-67.88 322.62,-67.88 322.62,-48.62 415.88,-48.62 415.88,-67.88"/>
<text text-anchor="middle" x="369.25" y="-54.38" font-family="Helvetica,sans-Serif" font-size="10.00">The AMP effector.</text>
</a>
</g>
</g>
<!-- Node1&#45;&gt;Node3 -->
<g id="edge2" class="edge">
<title>Node1&#45;&gt;Node3</title>
<path fill="none" stroke="black" d="M287.28,-46.23C299.11,-47.99 311.18,-49.78 322.26,-51.43"/>
<polygon fill="black" stroke="black" points="287.95,-42.8 277.54,-44.79 286.92,-49.72 287.95,-42.8"/>
</g>
<!-- Node4 -->
<g id="Node000004" class="node">
<title>Node4</title>
<g id="a_Node000004"><a xlink:href="group__AUDIO__EFX__PSG2SCC.html" target="_top" xlink:title="#include &lt;audio_efx_psg2scc.h&gt;">
<polygon fill="white" stroke="#666666" points="426.75,-30.5 311.75,-30.5 311.75,0 426.75,0 426.75,-30.5"/>
<text text-anchor="start" x="319.75" y="-17" font-family="Helvetica,sans-Serif" font-size="10.00">The &quot;PSG to SCC/SCC</text>
<text text-anchor="middle" x="369.25" y="-5.75" font-family="Helvetica,sans-Serif" font-size="10.00">+&quot; effector.</text>
</a>
</g>
</g>
<!-- Node1&#45;&gt;Node4 -->
<g id="edge3" class="edge">
<title>Node1&#45;&gt;Node4</title>
<path fill="none" stroke="black" d="M287.39,-26.7C295.49,-25.56 303.7,-24.39 311.63,-23.27"/>
<polygon fill="black" stroke="black" points="286.96,-23.23 277.55,-28.1 287.94,-30.16 286.96,-23.23"/>
</g>
</g>
</svg>
