<?xml version="1.0" encoding="UTF-8" standalone="no"?>
<!DOCTYPE svg PUBLIC "-//W3C//DTD SVG 1.1//EN"
 "http://www.w3.org/Graphics/SVG/1.1/DTD/svg11.dtd">
<!-- Generated by graphviz version 7.0.5 (20221223.1930)
 -->
<!-- Title: Stream interface for ROM / RAM / MegaROM. Pages: 1 -->
<svg width="284pt" height="172pt"
 viewBox="0.00 0.00 284.00 172.00" xmlns="http://www.w3.org/2000/svg" xmlns:xlink="http://www.w3.org/1999/xlink">
<g id="graph0" class="graph" transform="scale(1 1) rotate(0) translate(4 168)">
<title>Stream interface for ROM / RAM / MegaROM.</title>
<!-- Node1 -->
<g id="node1" class="node">
<title>Node1</title>
<g id="a_node1"><a xlink:title="#include &lt;memfile.h&gt;">
<polygon fill="#999999" stroke="#666666" points="127,-99 0,-99 0,-69 127,-69 127,-99"/>
<text text-anchor="start" x="8" y="-87" font-family="Helvetica,sans-Serif" font-size="10.00">Stream interface for</text>
<text text-anchor="middle" x="63.5" y="-76" font-family="Helvetica,sans-Serif" font-size="10.00"> ROM / RAM / MegaROM.</text>
</a>
</g>
</g>
<!-- Node3 -->
<g id="node2" class="node">
<title>Node3</title>
<g id="a_node2"><a xlink:href="group__STREAM__ERR.html" target="_top" xlink:title="Check error status of the stream.">
<polygon fill="white" stroke="#666666" points="267,-164 172,-164 172,-134 267,-134 267,-164"/>
<text text-anchor="start" x="180" y="-152" font-family="Helvetica,sans-Serif" font-size="10.00">Check error status</text>
<text text-anchor="middle" x="219.5" y="-141" font-family="Helvetica,sans-Serif" font-size="10.00"> of the stream.</text>
</a>
</g>
</g>
<!-- Node1&#45;&gt;Node3 -->
<g id="edge2" class="edge">
<title>Node1&#45;&gt;Node3</title>
<path fill="none" stroke="black" d="M111.42,-103.8C134.09,-113.37 160.88,-124.68 182,-133.59"/>
<polygon fill="black" stroke="black" points="112.96,-100.66 102.39,-99.99 110.24,-107.11 112.96,-100.66"/>
</g>
<!-- Node2 -->
<g id="node3" class="node">
<title>Node2</title>
<g id="a_node3"><a xlink:href="group__STREAM__OPEN.html" target="_top" xlink:title="Open whole or part of memory image as stream.">
<polygon fill="white" stroke="#666666" points="256.5,-115.5 182.5,-115.5 182.5,-96.5 256.5,-96.5 256.5,-115.5"/>
<text text-anchor="middle" x="219.5" y="-103.5" font-family="Helvetica,sans-Serif" font-size="10.00">Open stream.</text>
</a>
</g>
</g>
<!-- Node1&#45;&gt;Node2 -->
<g id="edge1" class="edge">
<title>Node1&#45;&gt;Node2</title>
<path fill="none" stroke="black" d="M138.17,-94.52C153.4,-96.7 168.81,-98.9 182,-100.79"/>
<polygon fill="black" stroke="black" points="139.03,-91.11 128.64,-93.16 138.04,-98.04 139.03,-91.11"/>
</g>
<!-- Node4 -->
<g id="node4" class="node">
<title>Node4</title>
<g id="a_node4"><a xlink:href="group__STREAM__READ.html" target="_top" xlink:title="Read from the current position of the stream.">
<polygon fill="white" stroke="#666666" points="276,-78 163,-78 163,-48 276,-48 276,-78"/>
<text text-anchor="start" x="171" y="-66" font-family="Helvetica,sans-Serif" font-size="10.00">Read from the current</text>
<text text-anchor="middle" x="219.5" y="-55" font-family="Helvetica,sans-Serif" font-size="10.00"> position of the stream.</text>
</a>
</g>
</g>
<!-- Node1&#45;&gt;Node4 -->
<g id="edge3" class="edge">
<title>Node1&#45;&gt;Node4</title>
<path fill="none" stroke="black" d="M138.32,-73.93C146.58,-72.81 154.88,-71.68 162.85,-70.59"/>
<polygon fill="black" stroke="black" points="138.07,-70.43 128.64,-75.25 139.02,-77.37 138.07,-70.43"/>
</g>
<!-- Node5 -->
<g id="node5" class="node">
<title>Node5</title>
<g id="a_node5"><a xlink:href="group__STREAM__SEEK.html" target="_top" xlink:title="Get / Set the current position of the stream.">
<polygon fill="white" stroke="#666666" points="276,-30 163,-30 163,0 276,0 276,-30"/>
<text text-anchor="start" x="171" y="-18" font-family="Helvetica,sans-Serif" font-size="10.00">Get / Set the current</text>
<text text-anchor="middle" x="219.5" y="-7" font-family="Helvetica,sans-Serif" font-size="10.00"> position of the stream.</text>
</a>
</g>
</g>
<!-- Node1&#45;&gt;Node5 -->
<g id="edge4" class="edge">
<title>Node1&#45;&gt;Node5</title>
<path fill="none" stroke="black" d="M107.97,-63.91C125.08,-56.06 144.93,-47.03 163,-39 169.33,-36.19 176.09,-33.23 182.63,-30.39"/>
<polygon fill="black" stroke="black" points="106.71,-60.64 99.08,-67.99 109.63,-67 106.71,-60.64"/>
</g>
</g>
</svg>
