<?xml version="1.0" encoding="UTF-8" standalone="no"?>
<!DOCTYPE svg PUBLIC "-//W3C//DTD SVG 1.1//EN"
 "http://www.w3.org/Graphics/SVG/1.1/DTD/svg11.dtd">
<!-- Generated by graphviz version 9.0.0 (20230911.1827)
 -->
<!-- Title: PSG &#45; AY&#45;3&#45;8910 / Programmable Sound Generator Pages: 1 -->
<svg width="282pt" height="64pt"
 viewBox="0.00 0.00 281.50 64.25" xmlns="http://www.w3.org/2000/svg" xmlns:xlink="http://www.w3.org/1999/xlink">
<g id="graph0" class="graph" transform="scale(1 1) rotate(0) translate(4 60.25)">
<title>PSG &#45; AY&#45;3&#45;8910 / Programmable Sound Generator</title>
<!-- Node1 -->
<g id="Node000001" class="node">
<title>Node1</title>
<g id="a_Node000001"><a xlink:title="#include &lt;psg.h&gt;, #include &lt;ay_3_8910.h&gt;">
<polygon fill="#999999" stroke="#666666" points="160.75,-42.88 0,-42.88 0,-12.37 160.75,-12.37 160.75,-42.88"/>
<text text-anchor="start" x="8" y="-29.38" font-family="Helvetica,sans-Serif" font-size="10.00">PSG &#45; AY&#45;3&#45;8910 / Programmable</text>
<text text-anchor="middle" x="80.38" y="-18.12" font-family="Helvetica,sans-Serif" font-size="10.00"> Sound Generator</text>
</a>
</g>
</g>
<!-- Node2 -->
<g id="Node000002" class="node">
<title>Node2</title>
<g id="a_Node000002"><a xlink:href="group__PSG__BUFFER.html" target="_top" xlink:title="Buffered access to PSG registers.">
<polygon fill="white" stroke="#666666" points="267.5,-56.25 202.75,-56.25 202.75,-37 267.5,-37 267.5,-56.25"/>
<text text-anchor="middle" x="235.12" y="-42.75" font-family="Helvetica,sans-Serif" font-size="10.00">PSG Buffer</text>
</a>
</g>
</g>
<!-- Node1&#45;&gt;Node2 -->
<g id="edge1" class="edge">
<title>Node1&#45;&gt;Node2</title>
<path fill="none" stroke="black" d="M172.25,-38.93C183.06,-40.27 193.46,-41.57 202.55,-42.7"/>
<polygon fill="black" stroke="black" points="172.74,-35.46 162.38,-37.7 171.88,-42.41 172.74,-35.46"/>
</g>
<!-- Node3 -->
<g id="Node000003" class="node">
<title>Node3</title>
<g id="a_Node000003"><a xlink:href="group__PSG__REGISTER.html" target="_top" xlink:title="Read / Write PSG registers.">
<polygon fill="white" stroke="#666666" points="273.5,-19.25 196.75,-19.25 196.75,0 273.5,0 273.5,-19.25"/>
<text text-anchor="middle" x="235.12" y="-5.75" font-family="Helvetica,sans-Serif" font-size="10.00">PSG registers</text>
</a>
</g>
</g>
<!-- Node1&#45;&gt;Node3 -->
<g id="edge2" class="edge">
<title>Node1&#45;&gt;Node3</title>
<path fill="none" stroke="black" d="M172.21,-16.92C180.75,-15.92 189.03,-14.94 196.62,-14.04"/>
<polygon fill="black" stroke="black" points="171.91,-13.43 162.38,-18.08 172.73,-20.38 171.91,-13.43"/>
</g>
</g>
</svg>
