<?xml version="1.0" encoding="UTF-8" standalone="no"?>
<!DOCTYPE svg PUBLIC "-//W3C//DTD SVG 1.1//EN"
 "http://www.w3.org/Graphics/SVG/1.1/DTD/svg11.dtd">
<!-- Generated by graphviz version 12.2.0 (20241103.1931)
 -->
<!-- Title: Decoders for the libmsx audio replayer. Pages: 1 -->
<svg width="437pt" height="88pt"
 viewBox="0.00 0.00 437.00 87.50" xmlns="http://www.w3.org/2000/svg" xmlns:xlink="http://www.w3.org/1999/xlink">
<g id="graph0" class="graph" transform="scale(1 1) rotate(0) translate(4 83.5)">
<title>Decoders for the libmsx audio replayer.</title>
<!-- Node2 -->
<g id="Node000002" class="node">
<title>Node2</title>
<g id="a_Node000002"><a xlink:href="group__AUDIO.html" target="_top" xlink:title="#include &lt;audio.h&gt;">
<polygon fill="white" stroke="#666666" points="126.25,-48.88 0,-48.88 0,-29.62 126.25,-29.62 126.25,-48.88"/>
<text text-anchor="middle" x="63.12" y="-35.38" font-family="Helvetica,sans-Serif" font-size="10.00">The libmsx audio replayer.</text>
</a>
</g>
</g>
<!-- Node1 -->
<g id="Node000001" class="node">
<title>Node1</title>
<g id="a_Node000001"><a xlink:title="Audio/Sound drivers that implements the libmsx audio decoder interfaces.">
<polygon fill="#999999" stroke="#666666" points="278.75,-54.5 162.25,-54.5 162.25,-24 278.75,-24 278.75,-54.5"/>
<text text-anchor="start" x="170.25" y="-41" font-family="Helvetica,sans-Serif" font-size="10.00">Decoders for the libmsx</text>
<text text-anchor="middle" x="220.5" y="-29.75" font-family="Helvetica,sans-Serif" font-size="10.00"> audio replayer.</text>
</a>
</g>
</g>
<!-- Node2&#45;&gt;Node1 -->
<g id="edge1" class="edge">
<title>Node2&#45;&gt;Node1</title>
<path fill="none" stroke="black" d="M137.9,-39.25C146.07,-39.25 154.29,-39.25 162.22,-39.25"/>
<polygon fill="black" stroke="black" points="137.94,-35.75 127.94,-39.25 137.94,-42.75 137.94,-35.75"/>
</g>
<!-- Node3 -->
<g id="Node000003" class="node">
<title>Node3</title>
<g id="a_Node000003"><a xlink:href="group__LA0__DECODER.html" target="_top" xlink:title="#include &lt;la0.h&gt;">
<polygon fill="white" stroke="#666666" points="427.5,-79.5 316.25,-79.5 316.25,-49 427.5,-49 427.5,-79.5"/>
<text text-anchor="start" x="324.25" y="-66" font-family="Helvetica,sans-Serif" font-size="10.00">LA0 &#45; PSG, SCC/SCC</text>
<text text-anchor="middle" x="371.88" y="-54.75" font-family="Helvetica,sans-Serif" font-size="10.00">+, OPLL sound driver.</text>
</a>
</g>
</g>
<!-- Node1&#45;&gt;Node3 -->
<g id="edge2" class="edge">
<title>Node1&#45;&gt;Node3</title>
<path fill="none" stroke="black" d="M290.1,-50.73C298.75,-52.18 307.51,-53.65 315.92,-55.05"/>
<polygon fill="black" stroke="black" points="290.76,-47.29 280.32,-49.09 289.6,-54.2 290.76,-47.29"/>
</g>
<!-- Node4 -->
<g id="Node000004" class="node">
<title>Node4</title>
<g id="a_Node000004"><a xlink:href="group__SNDDRV.html" target="_top" xlink:title="#include &lt;snddrv.h&gt;">
<polygon fill="white" stroke="#666666" points="429,-30.5 314.75,-30.5 314.75,0 429,0 429,-30.5"/>
<text text-anchor="start" x="322.75" y="-17" font-family="Helvetica,sans-Serif" font-size="10.00">SNDDRV &#45; PSG sound</text>
<text text-anchor="middle" x="371.88" y="-5.75" font-family="Helvetica,sans-Serif" font-size="10.00"> driver</text>
</a>
</g>
</g>
<!-- Node1&#45;&gt;Node4 -->
<g id="edge3" class="edge">
<title>Node1&#45;&gt;Node4</title>
<path fill="none" stroke="black" d="M289.92,-28.26C298.12,-26.94 306.43,-25.6 314.44,-24.32"/>
<polygon fill="black" stroke="black" points="289.64,-24.76 280.32,-29.8 290.75,-31.67 289.64,-24.76"/>
</g>
</g>
</svg>
