<?xml version="1.0" encoding="UTF-8" standalone="no"?>
<!DOCTYPE svg PUBLIC "-//W3C//DTD SVG 1.1//EN"
 "http://www.w3.org/Graphics/SVG/1.1/DTD/svg11.dtd">
<!-- Generated by graphviz version 12.2.0 (20241103.1931)
 -->
<!-- Title: PSG &#45; AY&#45;3&#45;8910 / Programmable Sound Generator Pages: 1 -->
<svg width="400pt" height="64pt"
 viewBox="0.00 0.00 399.50 64.25" xmlns="http://www.w3.org/2000/svg" xmlns:xlink="http://www.w3.org/1999/xlink">
<g id="graph0" class="graph" transform="scale(1 1) rotate(0) translate(4 60.25)">
<title>PSG &#45; AY&#45;3&#45;8910 / Programmable Sound Generator</title>
<!-- Node2 -->
<g id="Node000002" class="node">
<title>Node2</title>
<g id="a_Node000002"><a xlink:href="group__LIBMSX__SOUNDCHIP.html" target="_top" xlink:title=" ">
<polygon fill="white" stroke="#666666" points="82,-37.25 0,-37.25 0,-18 82,-18 82,-37.25"/>
<text text-anchor="middle" x="41" y="-23.75" font-family="Helvetica,sans-Serif" font-size="10.00">Sound devices.</text>
</a>
</g>
</g>
<!-- Node1 -->
<g id="Node000001" class="node">
<title>Node1</title>
<g id="a_Node000001"><a xlink:title="#include &lt;psg.h&gt;, #include &lt;ay_3_8910.h&gt;">
<polygon fill="#999999" stroke="#666666" points="278.75,-42.88 118,-42.88 118,-12.37 278.75,-12.37 278.75,-42.88"/>
<text text-anchor="start" x="126" y="-29.38" font-family="Helvetica,sans-Serif" font-size="10.00">PSG &#45; AY&#45;3&#45;8910 / Programmable</text>
<text text-anchor="middle" x="198.38" y="-18.12" font-family="Helvetica,sans-Serif" font-size="10.00"> Sound Generator</text>
</a>
</g>
</g>
<!-- Node2&#45;&gt;Node1 -->
<g id="edge1" class="edge">
<title>Node2&#45;&gt;Node1</title>
<path fill="none" stroke="black" d="M93.77,-27.62C101.47,-27.62 109.56,-27.62 117.68,-27.62"/>
<polygon fill="black" stroke="black" points="93.93,-24.13 83.93,-27.63 93.93,-31.13 93.93,-24.13"/>
</g>
<!-- Node3 -->
<g id="Node000003" class="node">
<title>Node3</title>
<g id="a_Node000003"><a xlink:href="group__PSG__BUFFER.html" target="_top" xlink:title="Buffered access to PSG registers.">
<polygon fill="white" stroke="#666666" points="385.5,-56.25 320.75,-56.25 320.75,-37 385.5,-37 385.5,-56.25"/>
<text text-anchor="middle" x="353.12" y="-42.75" font-family="Helvetica,sans-Serif" font-size="10.00">PSG Buffer</text>
</a>
</g>
</g>
<!-- Node1&#45;&gt;Node3 -->
<g id="edge2" class="edge">
<title>Node1&#45;&gt;Node3</title>
<path fill="none" stroke="black" d="M290.25,-38.93C301.06,-40.27 311.46,-41.57 320.55,-42.7"/>
<polygon fill="black" stroke="black" points="290.74,-35.46 280.38,-37.7 289.88,-42.41 290.74,-35.46"/>
</g>
<!-- Node4 -->
<g id="Node000004" class="node">
<title>Node4</title>
<g id="a_Node000004"><a xlink:href="group__PSG__REGISTER.html" target="_top" xlink:title="Read / Write PSG registers">
<polygon fill="white" stroke="#666666" points="391.5,-19.25 314.75,-19.25 314.75,0 391.5,0 391.5,-19.25"/>
<text text-anchor="middle" x="353.12" y="-5.75" font-family="Helvetica,sans-Serif" font-size="10.00">PSG registers</text>
</a>
</g>
</g>
<!-- Node1&#45;&gt;Node4 -->
<g id="edge3" class="edge">
<title>Node1&#45;&gt;Node4</title>
<path fill="none" stroke="black" d="M290.21,-16.92C298.75,-15.92 307.03,-14.94 314.62,-14.04"/>
<polygon fill="black" stroke="black" points="289.91,-13.43 280.38,-18.08 290.73,-20.38 289.91,-13.43"/>
</g>
</g>
</svg>
