<?xml version="1.0" encoding="UTF-8" standalone="no"?>
<!DOCTYPE svg PUBLIC "-//W3C//DTD SVG 1.1//EN"
 "http://www.w3.org/Graphics/SVG/1.1/DTD/svg11.dtd">
<!-- Generated by graphviz version 7.0.4 (20221203.1631)
 -->
<!-- Title: Text output Pages: 1 -->
<svg width="226pt" height="124pt"
 viewBox="0.00 0.00 226.00 123.50" xmlns="http://www.w3.org/2000/svg" xmlns:xlink="http://www.w3.org/1999/xlink">
<g id="graph0" class="graph" transform="scale(1 1) rotate(0) translate(4 119.5)">
<title>Text output</title>
<!-- Node1 -->
<g id="node1" class="node">
<title>Node1</title>
<g id="a_node1"><a xlink:title="#include &lt;text.h&gt;">
<polygon fill="#999999" stroke="#666666" points="65,-62 0,-62 0,-43 65,-43 65,-62"/>
<text text-anchor="middle" x="32.5" y="-50" font-family="Helvetica,sans-Serif" font-size="10.00">Text output</text>
</a>
</g>
</g>
<!-- Node3 -->
<g id="node2" class="node">
<title>Node3</title>
<g id="a_node2"><a xlink:href="group__CUI__COLOR.html" target="_top" xlink:title="Text color, Background color, Backdrop color.">
<polygon fill="white" stroke="#666666" points="212,-115.5 107,-115.5 107,-85.5 212,-85.5 212,-115.5"/>
<text text-anchor="start" x="115" y="-103.5" font-family="Helvetica,sans-Serif" font-size="10.00">Text color, Backdrop</text>
<text text-anchor="middle" x="159.5" y="-92.5" font-family="Helvetica,sans-Serif" font-size="10.00"> color</text>
</a>
</g>
</g>
<!-- Node1&#45;&gt;Node3 -->
<g id="edge2" class="edge">
<title>Node1&#45;&gt;Node3</title>
<path fill="none" stroke="black" d="M69.95,-66.5C85.13,-72.32 102.8,-79.11 118.36,-85.08"/>
<polygon fill="black" stroke="black" points="71.4,-63.31 60.81,-62.99 68.89,-69.84 71.4,-63.31"/>
</g>
<!-- Node2 -->
<g id="node3" class="node">
<title>Node2</title>
<g id="a_node3"><a xlink:href="group__CUI__CONTROL.html" target="_top" xlink:title="Cursor position, Control characters, Clear screen, etc.">
<polygon fill="white" stroke="#666666" points="218,-67.5 101,-67.5 101,-37.5 218,-37.5 218,-67.5"/>
<text text-anchor="start" x="109" y="-55.5" font-family="Helvetica,sans-Serif" font-size="10.00">Cursor position, Control</text>
<text text-anchor="middle" x="159.5" y="-44.5" font-family="Helvetica,sans-Serif" font-size="10.00"> characters.</text>
</a>
</g>
</g>
<!-- Node1&#45;&gt;Node2 -->
<g id="edge1" class="edge">
<title>Node1&#45;&gt;Node2</title>
<path fill="none" stroke="black" d="M76.78,-52.5C84.58,-52.5 92.81,-52.5 100.93,-52.5"/>
<polygon fill="black" stroke="black" points="76.88,-49 66.88,-52.5 76.88,-56 76.88,-49"/>
</g>
<!-- Node4 -->
<g id="node4" class="node">
<title>Node4</title>
<g id="a_node4"><a xlink:href="group__CUI__PRINT.html" target="_top" xlink:title="Simple print functions.">
<polygon fill="white" stroke="#666666" points="192,-19 127,-19 127,0 192,0 192,-19"/>
<text text-anchor="middle" x="159.5" y="-7" font-family="Helvetica,sans-Serif" font-size="10.00">Text output</text>
</a>
</g>
</g>
<!-- Node1&#45;&gt;Node4 -->
<g id="edge3" class="edge">
<title>Node1&#45;&gt;Node4</title>
<path fill="none" stroke="black" d="M71.82,-38.71C81.34,-35.33 91.53,-31.75 101,-28.5 109.75,-25.5 119.28,-22.32 128.02,-19.43"/>
<polygon fill="black" stroke="black" points="70.71,-35.39 62.46,-42.04 73.06,-41.98 70.71,-35.39"/>
</g>
</g>
</svg>
