<?xml version="1.0" encoding="UTF-8" standalone="no"?>
<!DOCTYPE svg PUBLIC "-//W3C//DTD SVG 1.1//EN"
 "http://www.w3.org/Graphics/SVG/1.1/DTD/svg11.dtd">
<!-- Generated by graphviz version 7.0.5 (20221223.1930)
 -->
<!-- Title: VDP &#45; Video Display Processor Pages: 1 -->
<svg width="281pt" height="395pt"
 viewBox="0.00 0.00 281.00 395.00" xmlns="http://www.w3.org/2000/svg" xmlns:xlink="http://www.w3.org/1999/xlink">
<g id="graph0" class="graph" transform="scale(1 1) rotate(0) translate(4 391)">
<title>VDP &#45; Video Display Processor</title>
<!-- Node1 -->
<g id="node1" class="node">
<title>Node1</title>
<g id="a_node1"><a xlink:title="#include &lt;vdp.h&gt;">
<polygon fill="#999999" stroke="#666666" points="103,-202.5 0,-202.5 0,-172.5 103,-172.5 103,-202.5"/>
<text text-anchor="start" x="8" y="-190.5" font-family="Helvetica,sans-Serif" font-size="10.00">VDP &#45; Video Display</text>
<text text-anchor="middle" x="51.5" y="-179.5" font-family="Helvetica,sans-Serif" font-size="10.00"> Processor</text>
</a>
</g>
</g>
<!-- Node4 -->
<g id="node2" class="node">
<title>Node4</title>
<g id="a_node2"><a xlink:href="group__VDP__COLOR__REGISTER.html" target="_top" xlink:title="Text and background color in TEXT 1 and 2 mode, and Backdrop color.">
<polygon fill="white" stroke="#666666" points="245.5,-387 166.5,-387 166.5,-368 245.5,-368 245.5,-387"/>
<text text-anchor="middle" x="206" y="-375" font-family="Helvetica,sans-Serif" font-size="10.00">Color registers</text>
</a>
</g>
</g>
<!-- Node1&#45;&gt;Node4 -->
<g id="edge3" class="edge">
<title>Node1&#45;&gt;Node4</title>
<path fill="none" stroke="black" d="M58.72,-213.94C68.96,-251.62 92.98,-320.41 139,-358.5 146.72,-364.89 156.47,-369.13 166.1,-371.94"/>
<polygon fill="black" stroke="black" points="62.13,-213.15 56.25,-204.34 55.35,-214.9 62.13,-213.15"/>
</g>
<!-- Node9 -->
<g id="node3" class="node">
<title>Node9</title>
<g id="a_node3"><a xlink:href="group__VDP__COMMANDS__HIGH.html" target="_top" xlink:title="Execute, Stop, and Await VDP commands.">
<polygon fill="white" stroke="#666666" points="262.5,-349.5 149.5,-349.5 149.5,-319.5 262.5,-319.5 262.5,-349.5"/>
<text text-anchor="start" x="157.5" y="-337.5" font-family="Helvetica,sans-Serif" font-size="10.00">VDP commands (High</text>
<text text-anchor="middle" x="206" y="-326.5" font-family="Helvetica,sans-Serif" font-size="10.00"> level APIs)</text>
</a>
</g>
</g>
<!-- Node1&#45;&gt;Node9 -->
<g id="edge8" class="edge">
<title>Node1&#45;&gt;Node9</title>
<path fill="none" stroke="black" d="M64.3,-212.67C78.44,-240.28 104.6,-284.16 139,-310.5 143.26,-313.76 148.01,-316.61 152.94,-319.09"/>
<polygon fill="black" stroke="black" points="67.57,-211.37 59.99,-203.97 61.3,-214.48 67.57,-211.37"/>
</g>
<!-- Node10 -->
<g id="node4" class="node">
<title>Node10</title>
<g id="a_node4"><a xlink:href="group__VDP__COMMANDS__LOW.html" target="_top" xlink:title="Write to command registers.">
<polygon fill="white" stroke="#666666" points="273,-301.5 139,-301.5 139,-271.5 273,-271.5 273,-301.5"/>
<text text-anchor="start" x="147" y="-289.5" font-family="Helvetica,sans-Serif" font-size="10.00">VDP commands (Low level</text>
<text text-anchor="middle" x="206" y="-278.5" font-family="Helvetica,sans-Serif" font-size="10.00"> APIs)</text>
</a>
</g>
</g>
<!-- Node1&#45;&gt;Node10 -->
<g id="edge9" class="edge">
<title>Node1&#45;&gt;Node10</title>
<path fill="none" stroke="black" d="M74.73,-210.88C91.22,-227.13 114.93,-248.34 139,-262.5 144.36,-265.65 150.2,-268.5 156.13,-271.04"/>
<polygon fill="black" stroke="black" points="77.4,-208.6 67.87,-203.97 72.43,-213.53 77.4,-208.6"/>
</g>
<!-- Node3 -->
<g id="node5" class="node">
<title>Node3</title>
<g id="a_node5"><a xlink:href="group__VDP__CONTROL__REGISTER.html" target="_top" xlink:title="Write to control registers.">
<polygon fill="white" stroke="#666666" points="249.5,-253 162.5,-253 162.5,-234 249.5,-234 249.5,-253"/>
<text text-anchor="middle" x="206" y="-241" font-family="Helvetica,sans-Serif" font-size="10.00">Control registers</text>
</a>
</g>
</g>
<!-- Node1&#45;&gt;Node3 -->
<g id="edge2" class="edge">
<title>Node1&#45;&gt;Node3</title>
<path fill="none" stroke="black" d="M94.75,-207.55C108.67,-213.75 124.34,-220.31 139,-225.5 147.29,-228.43 156.3,-231.17 164.92,-233.59"/>
<polygon fill="black" stroke="black" points="96.43,-204.47 85.87,-203.53 93.54,-210.84 96.43,-204.47"/>
</g>
<!-- Node8 -->
<g id="node6" class="node">
<title>Node8</title>
<g id="a_node6"><a xlink:href="group__VDP__DISPLAY__REGISTER.html" target="_top" xlink:title="Dispalay area adjust / Hardware scroll.">
<polygon fill="white" stroke="#666666" points="250,-216 162,-216 162,-197 250,-197 250,-216"/>
<text text-anchor="middle" x="206" y="-204" font-family="Helvetica,sans-Serif" font-size="10.00">Display registers</text>
</a>
</g>
</g>
<!-- Node1&#45;&gt;Node8 -->
<g id="edge7" class="edge">
<title>Node1&#45;&gt;Node8</title>
<path fill="none" stroke="black" d="M114.58,-195.23C130.35,-197.2 146.96,-199.27 161.58,-201.09"/>
<polygon fill="black" stroke="black" points="115.14,-191.78 104.78,-194.01 114.27,-198.72 115.14,-191.78"/>
</g>
<!-- Node6 -->
<g id="node7" class="node">
<title>Node6</title>
<g id="a_node7"><a xlink:href="group__VDP__MODE__REGISTER.html" target="_top" xlink:title="Screen / Sprite mode setting.">
<polygon fill="white" stroke="#666666" points="246,-179 166,-179 166,-160 246,-160 246,-179"/>
<text text-anchor="middle" x="206" y="-167" font-family="Helvetica,sans-Serif" font-size="10.00">Mode registers</text>
</a>
</g>
</g>
<!-- Node1&#45;&gt;Node6 -->
<g id="edge5" class="edge">
<title>Node1&#45;&gt;Node6</title>
<path fill="none" stroke="black" d="M114.43,-180.19C131.69,-178.15 149.96,-176 165.53,-174.16"/>
<polygon fill="black" stroke="black" points="114.3,-176.68 104.78,-181.33 115.12,-183.63 114.3,-176.68"/>
</g>
<!-- Node5 -->
<g id="node8" class="node">
<title>Node5</title>
<g id="a_node8"><a xlink:href="group__VDP__PALETTE__REGISTER.html" target="_top" xlink:title="Color palettes.">
<polygon fill="white" stroke="#666666" points="249.5,-142 162.5,-142 162.5,-123 249.5,-123 249.5,-142"/>
<text text-anchor="middle" x="206" y="-130" font-family="Helvetica,sans-Serif" font-size="10.00">Palette registers</text>
</a>
</g>
</g>
<!-- Node1&#45;&gt;Node5 -->
<g id="edge4" class="edge">
<title>Node1&#45;&gt;Node5</title>
<path fill="none" stroke="black" d="M97.39,-167.68C110.67,-162.12 125.31,-156.3 139,-151.5 148.23,-148.26 158.31,-145.15 167.76,-142.42"/>
<polygon fill="black" stroke="black" points="96.32,-164.33 88.48,-171.45 99.05,-170.77 96.32,-164.33"/>
</g>
<!-- Node2 -->
<g id="node9" class="node">
<title>Node2</title>
<g id="a_node9"><a xlink:href="group__VDP__STATUS__REGISTER.html" target="_top" xlink:title="Read from status registers.">
<polygon fill="white" stroke="#666666" points="248.5,-105 163.5,-105 163.5,-86 248.5,-86 248.5,-105"/>
<text text-anchor="middle" x="206" y="-93" font-family="Helvetica,sans-Serif" font-size="10.00">Status registers</text>
</a>
</g>
</g>
<!-- Node1&#45;&gt;Node2 -->
<g id="edge1" class="edge">
<title>Node1&#45;&gt;Node2</title>
<path fill="none" stroke="black" d="M74.56,-164.28C90.97,-148.23 114.65,-127.51 139,-114.5 146.47,-110.51 154.87,-107.27 163.11,-104.68"/>
<polygon fill="black" stroke="black" points="72.33,-161.55 67.75,-171.11 77.29,-166.5 72.33,-161.55"/>
</g>
<!-- Node7 -->
<g id="node10" class="node">
<title>Node7</title>
<g id="a_node10"><a xlink:href="group__VDP__TABLE__BASE__ADDRESS__REGISTER.html" target="_top" xlink:title="VRAM memory map setting.">
<polygon fill="white" stroke="#666666" points="256.5,-67.5 155.5,-67.5 155.5,-37.5 256.5,-37.5 256.5,-67.5"/>
<text text-anchor="start" x="163.5" y="-55.5" font-family="Helvetica,sans-Serif" font-size="10.00">Table base address</text>
<text text-anchor="middle" x="206" y="-44.5" font-family="Helvetica,sans-Serif" font-size="10.00"> registers</text>
</a>
</g>
</g>
<!-- Node1&#45;&gt;Node7 -->
<g id="edge6" class="edge">
<title>Node1&#45;&gt;Node7</title>
<path fill="none" stroke="black" d="M66.61,-162.46C81.67,-137.78 107.64,-100.52 139,-77.5 143.94,-73.87 149.47,-70.71 155.16,-67.97"/>
<polygon fill="black" stroke="black" points="63.71,-160.5 61.62,-170.88 69.73,-164.07 63.71,-160.5"/>
</g>
<!-- Node11 -->
<g id="node11" class="node">
<title>Node11</title>
<g id="a_node11"><a xlink:href="group__VDP__UNSAFE.html" target="_top" xlink:title="Unsafe primitive functions for VDP (Video Display Proccessor) access.">
<polygon fill="white" stroke="#666666" points="270.5,-19 141.5,-19 141.5,0 270.5,0 270.5,-19"/>
<text text-anchor="middle" x="206" y="-7" font-family="Helvetica,sans-Serif" font-size="10.00">Unsafe primitive functions</text>
</a>
</g>
</g>
<!-- Node1&#45;&gt;Node11 -->
<g id="edge10" class="edge">
<title>Node1&#45;&gt;Node11</title>
<path fill="none" stroke="black" d="M59.74,-161.36C70.88,-125.99 95.63,-63.32 139,-28.5 143.65,-24.77 149,-21.77 154.6,-19.36"/>
<polygon fill="black" stroke="black" points="56.43,-160.2 56.91,-170.78 63.14,-162.21 56.43,-160.2"/>
</g>
</g>
</svg>
