<?xml version="1.0" encoding="UTF-8" standalone="no"?>
<!DOCTYPE svg PUBLIC "-//W3C//DTD SVG 1.1//EN"
 "http://www.w3.org/Graphics/SVG/1.1/DTD/svg11.dtd">
<!-- Generated by graphviz version 12.2.0 (20241103.1931)
 -->
<!-- Title: BIOS &#45; Basic Input/Output System Pages: 1 -->
<svg width="252pt" height="150pt"
 viewBox="0.00 0.00 252.25 149.88" xmlns="http://www.w3.org/2000/svg" xmlns:xlink="http://www.w3.org/1999/xlink">
<g id="graph0" class="graph" transform="scale(1 1) rotate(0) translate(4 145.88)">
<title>BIOS &#45; Basic Input/Output System</title>
<!-- Node1 -->
<g id="Node000001" class="node">
<title>Node1</title>
<g id="a_Node000001"><a xlink:title="#include &lt;bios.h&gt;">
<polygon fill="#999999" stroke="#666666" points="96.25,-91.5 0,-91.5 0,-61 96.25,-61 96.25,-91.5"/>
<text text-anchor="start" x="8" y="-78" font-family="Helvetica,sans-Serif" font-size="10.00">BIOS &#45; Basic Input</text>
<text text-anchor="middle" x="48.12" y="-66.75" font-family="Helvetica,sans-Serif" font-size="10.00">/Output System</text>
</a>
</g>
</g>
<!-- Node2 -->
<g id="Node000002" class="node">
<title>Node2</title>
<g id="a_Node000002"><a xlink:href="group__BIOS__CONFIG.html" target="_top" xlink:title="Get the system version, VSYNC frequency, etc.">
<polygon fill="white" stroke="#666666" points="241.25,-141.88 135.25,-141.88 135.25,-122.62 241.25,-122.62 241.25,-141.88"/>
<text text-anchor="middle" x="188.25" y="-128.38" font-family="Helvetica,sans-Serif" font-size="10.00">System configuration</text>
</a>
</g>
</g>
<!-- Node1&#45;&gt;Node2 -->
<g id="edge1" class="edge">
<title>Node1&#45;&gt;Node2</title>
<path fill="none" stroke="black" d="M91.22,-96.6C104.24,-102.6 118.72,-108.96 132.25,-114.25 139.36,-117.03 147.1,-119.74 154.46,-122.19"/>
<polygon fill="black" stroke="black" points="93.05,-93.6 82.5,-92.54 90.09,-99.94 93.05,-93.6"/>
</g>
<!-- Node5 -->
<g id="Node000005" class="node">
<title>Node5</title>
<g id="a_Node000005"><a xlink:href="group__BIOS__CPU.html" target="_top" xlink:title="Change / Get CPU mode.">
<polygon fill="white" stroke="#666666" points="244.25,-104.88 132.25,-104.88 132.25,-85.62 244.25,-85.62 244.25,-104.88"/>
<text text-anchor="middle" x="188.25" y="-91.38" font-family="Helvetica,sans-Serif" font-size="10.00">Z80 / R800 CPU mode</text>
</a>
</g>
</g>
<!-- Node1&#45;&gt;Node5 -->
<g id="edge4" class="edge">
<title>Node1&#45;&gt;Node5</title>
<path fill="none" stroke="black" d="M107.83,-84.33C115.85,-85.43 124.07,-86.56 132.02,-87.65"/>
<polygon fill="black" stroke="black" points="108.54,-80.89 98.16,-82.99 107.59,-87.83 108.54,-80.89"/>
</g>
<!-- Node4 -->
<g id="Node000004" class="node">
<title>Node4</title>
<g id="a_Node000004"><a xlink:href="group__BIOS__JOYPAD.html" target="_top" xlink:title="Joystick / Joypad interface.">
<polygon fill="white" stroke="#666666" points="233.38,-67.88 143.12,-67.88 143.12,-48.62 233.38,-48.62 233.38,-67.88"/>
<text text-anchor="middle" x="188.25" y="-54.38" font-family="Helvetica,sans-Serif" font-size="10.00">Joystick / Joypad</text>
</a>
</g>
</g>
<!-- Node1&#45;&gt;Node4 -->
<g id="edge3" class="edge">
<title>Node1&#45;&gt;Node4</title>
<path fill="none" stroke="black" d="M107.76,-68.61C119.53,-67.08 131.7,-65.49 142.88,-64.03"/>
<polygon fill="black" stroke="black" points="107.62,-65.1 98.16,-69.86 108.53,-72.04 107.62,-65.1"/>
</g>
<!-- Node3 -->
<g id="Node000003" class="node">
<title>Node3</title>
<g id="a_Node000003"><a xlink:href="group__BIOS__SLOT.html" target="_top" xlink:title="Inter&#45;slot Read / Write / Call interface.">
<polygon fill="white" stroke="#666666" points="242.75,-30.5 133.75,-30.5 133.75,0 242.75,0 242.75,-30.5"/>
<text text-anchor="start" x="141.75" y="-17" font-family="Helvetica,sans-Serif" font-size="10.00">Inter&#45;slot Read / Write</text>
<text text-anchor="middle" x="188.25" y="-5.75" font-family="Helvetica,sans-Serif" font-size="10.00"> / Call</text>
</a>
</g>
</g>
<!-- Node1&#45;&gt;Node3 -->
<g id="edge2" class="edge">
<title>Node1&#45;&gt;Node3</title>
<path fill="none" stroke="black" d="M94.7,-55.89C106.89,-50.47 120.06,-44.62 132.25,-39.25 138.35,-36.56 144.84,-33.72 151.14,-30.96"/>
<polygon fill="black" stroke="black" points="93.38,-52.65 85.67,-59.91 96.23,-59.04 93.38,-52.65"/>
</g>
</g>
</svg>
