<?xml version="1.0" encoding="UTF-8" standalone="no"?>
<!DOCTYPE svg PUBLIC "-//W3C//DTD SVG 1.1//EN"
 "http://www.w3.org/Graphics/SVG/1.1/DTD/svg11.dtd">
<!-- Generated by graphviz version 12.2.0 (20241103.1931)
 -->
<!-- Title: The libmsx audio replayer. Pages: 1 -->
<svg width="451pt" height="305pt"
 viewBox="0.00 0.00 450.50 305.12" xmlns="http://www.w3.org/2000/svg" xmlns:xlink="http://www.w3.org/1999/xlink">
<g id="graph0" class="graph" transform="scale(1 1) rotate(0) translate(4 301.12)">
<title>The libmsx audio replayer.</title>
<!-- Node1 -->
<g id="Node000001" class="node">
<title>Node1</title>
<g id="a_Node000001"><a xlink:title="#include &lt;audio.h&gt;">
<polygon fill="#999999" stroke="#666666" points="267.5,-146.88 141.25,-146.88 141.25,-127.62 267.5,-127.62 267.5,-146.88"/>
<text text-anchor="middle" x="204.38" y="-133.38" font-family="Helvetica,sans-Serif" font-size="10.00">The libmsx audio replayer.</text>
</a>
</g>
</g>
<!-- Node6 -->
<g id="Node000006" class="node">
<title>Node6</title>
<g id="a_Node000006"><a xlink:href="group__AUDIO__BUFFER.html" target="_top" xlink:title="#include &lt;audio_buf.h&gt;">
<polygon fill="white" stroke="#666666" points="422.25,-297.12 323.75,-297.12 323.75,-255.38 422.25,-255.38 422.25,-297.12"/>
<text text-anchor="start" x="331.75" y="-283.62" font-family="Helvetica,sans-Serif" font-size="10.00">Unified sound&#45;chip</text>
<text text-anchor="start" x="331.75" y="-272.38" font-family="Helvetica,sans-Serif" font-size="10.00"> buffer of the libmsx</text>
<text text-anchor="middle" x="373" y="-261.12" font-family="Helvetica,sans-Serif" font-size="10.00"> audio replayer.</text>
</a>
</g>
</g>
<!-- Node1&#45;&gt;Node6 -->
<g id="edge5" class="edge">
<title>Node1&#45;&gt;Node6</title>
<path fill="none" stroke="black" d="M218.79,-156.64C236.05,-180.41 268.07,-220.67 303.5,-246.25 309.61,-250.66 316.46,-254.61 323.41,-258.08"/>
<polygon fill="black" stroke="black" points="221.65,-154.63 213,-148.51 215.95,-158.68 221.65,-154.63"/>
</g>
<!-- Node7 -->
<g id="Node000007" class="node">
<title>Node7</title>
<g id="a_Node000007"><a xlink:href="group__AUDIO__CALLBACK.html" target="_top" xlink:title="#include &lt;audio_cb.h&gt;">
<polygon fill="white" stroke="#666666" points="421.88,-237.12 324.12,-237.12 324.12,-195.38 421.88,-195.38 421.88,-237.12"/>
<text text-anchor="start" x="332.12" y="-223.62" font-family="Helvetica,sans-Serif" font-size="10.00">Callback functions</text>
<text text-anchor="start" x="332.12" y="-212.38" font-family="Helvetica,sans-Serif" font-size="10.00"> of the libmsx audio</text>
<text text-anchor="middle" x="373" y="-201.12" font-family="Helvetica,sans-Serif" font-size="10.00"> replayer.</text>
</a>
</g>
</g>
<!-- Node1&#45;&gt;Node7 -->
<g id="edge6" class="edge">
<title>Node1&#45;&gt;Node7</title>
<path fill="none" stroke="black" d="M234.81,-152.44C254.21,-162.32 280.22,-175.35 303.5,-186.25 310.08,-189.33 317.07,-192.5 323.96,-195.57"/>
<polygon fill="black" stroke="black" points="236.63,-149.43 226.13,-147.99 233.44,-155.66 236.63,-149.43"/>
</g>
<!-- Node8 -->
<g id="Node000008" class="node">
<title>Node8</title>
<g id="a_Node000008"><a xlink:href="group__AUDIO__DECODER.html" target="_top" xlink:title="#include &lt;audio_dec.h&gt;">
<polygon fill="white" stroke="#666666" points="442.5,-177.5 303.5,-177.5 303.5,-147 442.5,-147 442.5,-177.5"/>
<text text-anchor="start" x="311.5" y="-164" font-family="Helvetica,sans-Serif" font-size="10.00">The audio decoder interface</text>
<text text-anchor="middle" x="373" y="-152.75" font-family="Helvetica,sans-Serif" font-size="10.00"> for the libmsx audio replayer.</text>
</a>
</g>
</g>
<!-- Node1&#45;&gt;Node8 -->
<g id="edge7" class="edge">
<title>Node1&#45;&gt;Node8</title>
<path fill="none" stroke="black" d="M279.13,-148.32C287.16,-149.52 295.3,-150.74 303.26,-151.94"/>
<polygon fill="black" stroke="black" points="279.8,-144.88 269.39,-146.85 278.76,-151.8 279.8,-144.88"/>
</g>
<!-- Node4 -->
<g id="Node000004" class="node">
<title>Node4</title>
<g id="a_Node000004"><a xlink:href="group__AUDIO__DECODERS.html" target="_top" xlink:title="Audio/Sound drivers that implements the libmsx audio decoder interfaces.">
<polygon fill="white" stroke="#666666" points="431.25,-128.5 314.75,-128.5 314.75,-98 431.25,-98 431.25,-128.5"/>
<text text-anchor="start" x="322.75" y="-115" font-family="Helvetica,sans-Serif" font-size="10.00">Decoders for the libmsx</text>
<text text-anchor="middle" x="373" y="-103.75" font-family="Helvetica,sans-Serif" font-size="10.00"> audio replayer.</text>
</a>
</g>
</g>
<!-- Node1&#45;&gt;Node4 -->
<g id="edge3" class="edge">
<title>Node1&#45;&gt;Node4</title>
<path fill="none" stroke="black" d="M279.11,-126.63C290.92,-124.93 302.99,-123.19 314.36,-121.55"/>
<polygon fill="black" stroke="black" points="278.79,-123.14 269.39,-128.03 279.79,-130.07 278.79,-123.14"/>
</g>
<!-- Node5 -->
<g id="Node000005" class="node">
<title>Node5</title>
<g id="a_Node000005"><a xlink:href="group__AUDIO__EFX.html" target="_top" xlink:title="Effectors for the libmsx audio replayer.">
<polygon fill="white" stroke="#666666" points="429.75,-79.5 316.25,-79.5 316.25,-49 429.75,-49 429.75,-79.5"/>
<text text-anchor="start" x="324.25" y="-66" font-family="Helvetica,sans-Serif" font-size="10.00">Effectors for the libmsx</text>
<text text-anchor="middle" x="373" y="-54.75" font-family="Helvetica,sans-Serif" font-size="10.00"> audio replayer.</text>
</a>
</g>
</g>
<!-- Node1&#45;&gt;Node5 -->
<g id="edge4" class="edge">
<title>Node1&#45;&gt;Node5</title>
<path fill="none" stroke="black" d="M234.27,-122.12C253.62,-112.24 279.8,-99.34 303.5,-89.25 310.95,-86.08 318.96,-82.93 326.78,-79.99"/>
<polygon fill="black" stroke="black" points="232.91,-118.88 225.62,-126.57 236.12,-125.11 232.91,-118.88"/>
</g>
<!-- Node3 -->
<g id="Node000003" class="node">
<title>Node3</title>
<g id="a_Node000003"><a xlink:href="group__AUDIO__REPLAYER.html" target="_top" xlink:title="The API of the libmsx audio replayer.">
<polygon fill="white" stroke="#666666" points="426.75,-30.5 319.25,-30.5 319.25,0 426.75,0 426.75,-30.5"/>
<text text-anchor="start" x="327.25" y="-17" font-family="Helvetica,sans-Serif" font-size="10.00">The API of the libmsx</text>
<text text-anchor="middle" x="373" y="-5.75" font-family="Helvetica,sans-Serif" font-size="10.00"> audio replayer.</text>
</a>
</g>
</g>
<!-- Node1&#45;&gt;Node3 -->
<g id="edge2" class="edge">
<title>Node1&#45;&gt;Node3</title>
<path fill="none" stroke="black" d="M220.06,-118.47C237.78,-96.93 269.46,-61.82 303.5,-40.25 309.06,-36.73 315.19,-33.6 321.42,-30.86"/>
<polygon fill="black" stroke="black" points="217.44,-116.15 213.9,-126.13 222.89,-120.54 217.44,-116.15"/>
</g>
<!-- Node2 -->
<g id="Node000002" class="node">
<title>Node2</title>
<g id="a_Node000002"><a xlink:href="group__LIBMSX__REPLAYER.html" target="_top" xlink:title=" ">
<polygon fill="white" stroke="#666666" points="105.25,-146.88 0,-146.88 0,-127.62 105.25,-127.62 105.25,-146.88"/>
<text text-anchor="middle" x="52.62" y="-133.38" font-family="Helvetica,sans-Serif" font-size="10.00">Audio/Sound drivers.</text>
</a>
</g>
</g>
<!-- Node2&#45;&gt;Node1 -->
<g id="edge1" class="edge">
<title>Node2&#45;&gt;Node1</title>
<path fill="none" stroke="black" d="M117.02,-137.25C124.94,-137.25 133.03,-137.25 140.94,-137.25"/>
<polygon fill="black" stroke="black" points="117.09,-133.75 107.09,-137.25 117.09,-140.75 117.09,-133.75"/>
</g>
</g>
</svg>
