<?xml version="1.0" encoding="UTF-8" standalone="no"?>
<!DOCTYPE svg PUBLIC "-//W3C//DTD SVG 1.1//EN"
 "http://www.w3.org/Graphics/SVG/1.1/DTD/svg11.dtd">
<!-- Generated by graphviz version 9.0.0 (20230911.1827)
 -->
<!-- Title: Text output Pages: 1 -->
<svg width="225pt" height="125pt"
 viewBox="0.00 0.00 224.50 124.88" xmlns="http://www.w3.org/2000/svg" xmlns:xlink="http://www.w3.org/1999/xlink">
<g id="graph0" class="graph" transform="scale(1 1) rotate(0) translate(4 120.88)">
<title>Text output</title>
<!-- Node1 -->
<g id="Node000001" class="node">
<title>Node1</title>
<g id="a_Node000001"><a xlink:title="#include &lt;text.h&gt;">
<polygon fill="#999999" stroke="#666666" points="64,-62.25 0,-62.25 0,-43 64,-43 64,-62.25"/>
<text text-anchor="middle" x="32" y="-48.75" font-family="Helvetica,sans-Serif" font-size="10.00">Text output</text>
</a>
</g>
</g>
<!-- Node3 -->
<g id="Node000003" class="node">
<title>Node3</title>
<g id="a_Node000003"><a xlink:href="group__CUI__COLOR.html" target="_top" xlink:title="Text color, Background color, Backdrop color.">
<polygon fill="white" stroke="#666666" points="210.5,-116.88 106,-116.88 106,-86.38 210.5,-86.38 210.5,-116.88"/>
<text text-anchor="start" x="114" y="-103.38" font-family="Helvetica,sans-Serif" font-size="10.00">Text color, Backdrop</text>
<text text-anchor="middle" x="158.25" y="-92.12" font-family="Helvetica,sans-Serif" font-size="10.00"> color</text>
</a>
</g>
</g>
<!-- Node1&#45;&gt;Node3 -->
<g id="edge2" class="edge">
<title>Node1&#45;&gt;Node3</title>
<path fill="none" stroke="black" d="M69.02,-66.83C84.25,-72.84 102.05,-79.85 117.65,-86.01"/>
<polygon fill="black" stroke="black" points="70.44,-63.63 59.85,-63.21 67.87,-70.14 70.44,-63.63"/>
</g>
<!-- Node2 -->
<g id="Node000002" class="node">
<title>Node2</title>
<g id="a_Node000002"><a xlink:href="group__CUI__CONTROL.html" target="_top" xlink:title="Cursor position, Control characters, Clear screen, etc.">
<polygon fill="white" stroke="#666666" points="216.5,-67.88 100,-67.88 100,-37.38 216.5,-37.38 216.5,-67.88"/>
<text text-anchor="start" x="108" y="-54.38" font-family="Helvetica,sans-Serif" font-size="10.00">Cursor position, Control</text>
<text text-anchor="middle" x="158.25" y="-43.12" font-family="Helvetica,sans-Serif" font-size="10.00"> characters.</text>
</a>
</g>
</g>
<!-- Node1&#45;&gt;Node2 -->
<g id="edge1" class="edge">
<title>Node1&#45;&gt;Node2</title>
<path fill="none" stroke="black" d="M75.71,-52.62C83.47,-52.62 91.67,-52.62 99.77,-52.62"/>
<polygon fill="black" stroke="black" points="75.87,-49.13 65.87,-52.63 75.87,-56.13 75.87,-49.13"/>
</g>
<!-- Node4 -->
<g id="Node000004" class="node">
<title>Node4</title>
<g id="a_Node000004"><a xlink:href="group__CUI__PRINT.html" target="_top" xlink:title="Simple print functions.">
<polygon fill="white" stroke="#666666" points="190.25,-19.25 126.25,-19.25 126.25,0 190.25,0 190.25,-19.25"/>
<text text-anchor="middle" x="158.25" y="-5.75" font-family="Helvetica,sans-Serif" font-size="10.00">Text output</text>
</a>
</g>
</g>
<!-- Node1&#45;&gt;Node4 -->
<g id="edge3" class="edge">
<title>Node1&#45;&gt;Node4</title>
<path fill="none" stroke="black" d="M71.29,-38.73C80.66,-35.38 90.68,-31.84 100,-28.62 108.51,-25.69 117.77,-22.58 126.3,-19.75"/>
<polygon fill="black" stroke="black" points="70.31,-35.37 62.08,-42.04 72.68,-41.96 70.31,-35.37"/>
</g>
</g>
</svg>
