<?xml version="1.0" encoding="UTF-8" standalone="no"?>
<!DOCTYPE svg PUBLIC "-//W3C//DTD SVG 1.1//EN"
 "http://www.w3.org/Graphics/SVG/1.1/DTD/svg11.dtd">
<!-- Generated by graphviz version 12.2.0 (20241103.1931)
 -->
<!-- Title: Stream interface for ROM / RAM / MegaROM. Pages: 1 -->
<svg width="283pt" height="174pt"
 viewBox="0.00 0.00 283.00 173.50" xmlns="http://www.w3.org/2000/svg" xmlns:xlink="http://www.w3.org/1999/xlink">
<g id="graph0" class="graph" transform="scale(1 1) rotate(0) translate(4 169.5)">
<title>Stream interface for ROM / RAM / MegaROM.</title>
<!-- Node1 -->
<g id="Node000001" class="node">
<title>Node1</title>
<g id="a_Node000001"><a xlink:title="#include &lt;memfile.h&gt;">
<polygon fill="#999999" stroke="#666666" points="126.25,-100.5 0,-100.5 0,-70 126.25,-70 126.25,-100.5"/>
<text text-anchor="start" x="8" y="-87" font-family="Helvetica,sans-Serif" font-size="10.00">Stream interface for</text>
<text text-anchor="middle" x="63.12" y="-75.75" font-family="Helvetica,sans-Serif" font-size="10.00"> ROM / RAM / MegaROM.</text>
</a>
</g>
</g>
<!-- Node3 -->
<g id="Node000003" class="node">
<title>Node3</title>
<g id="a_Node000003"><a xlink:href="group__STREAM__ERR.html" target="_top" xlink:title="Check error status of the stream.">
<polygon fill="white" stroke="#666666" points="266,-165.5 171.25,-165.5 171.25,-135 266,-135 266,-165.5"/>
<text text-anchor="start" x="179.25" y="-152" font-family="Helvetica,sans-Serif" font-size="10.00">Check error status</text>
<text text-anchor="middle" x="218.62" y="-140.75" font-family="Helvetica,sans-Serif" font-size="10.00"> of the stream.</text>
</a>
</g>
</g>
<!-- Node1&#45;&gt;Node3 -->
<g id="edge2" class="edge">
<title>Node1&#45;&gt;Node3</title>
<path fill="none" stroke="black" d="M111.81,-105.44C133.96,-114.82 159.89,-125.8 180.54,-134.55"/>
<polygon fill="black" stroke="black" points="113.25,-102.25 102.68,-101.57 110.52,-108.7 113.25,-102.25"/>
</g>
<!-- Node2 -->
<g id="Node000002" class="node">
<title>Node2</title>
<g id="a_Node000002"><a xlink:href="group__STREAM__OPEN.html" target="_top" xlink:title="Open whole or part of memory image as stream.">
<polygon fill="white" stroke="#666666" points="255.5,-116.88 181.75,-116.88 181.75,-97.62 255.5,-97.62 255.5,-116.88"/>
<text text-anchor="middle" x="218.62" y="-103.38" font-family="Helvetica,sans-Serif" font-size="10.00">Open stream.</text>
</a>
</g>
</g>
<!-- Node1&#45;&gt;Node2 -->
<g id="edge1" class="edge">
<title>Node1&#45;&gt;Node2</title>
<path fill="none" stroke="black" d="M137.65,-95.79C152.97,-97.98 168.47,-100.2 181.68,-102.1"/>
<polygon fill="black" stroke="black" points="138.45,-92.37 128.06,-94.41 137.46,-99.3 138.45,-92.37"/>
</g>
<!-- Node4 -->
<g id="Node000004" class="node">
<title>Node4</title>
<g id="a_Node000004"><a xlink:href="group__STREAM__READ.html" target="_top" xlink:title="Read from the current position of the stream.">
<polygon fill="white" stroke="#666666" points="275,-79.5 162.25,-79.5 162.25,-49 275,-49 275,-79.5"/>
<text text-anchor="start" x="170.25" y="-66" font-family="Helvetica,sans-Serif" font-size="10.00">Read from the current</text>
<text text-anchor="middle" x="218.62" y="-54.75" font-family="Helvetica,sans-Serif" font-size="10.00"> position of the stream.</text>
</a>
</g>
</g>
<!-- Node1&#45;&gt;Node4 -->
<g id="edge3" class="edge">
<title>Node1&#45;&gt;Node4</title>
<path fill="none" stroke="black" d="M137.71,-75.18C145.94,-74.06 154.21,-72.93 162.15,-71.84"/>
<polygon fill="black" stroke="black" points="137.49,-71.68 128.06,-76.5 138.44,-78.62 137.49,-71.68"/>
</g>
<!-- Node5 -->
<g id="Node000005" class="node">
<title>Node5</title>
<g id="a_Node000005"><a xlink:href="group__STREAM__SEEK.html" target="_top" xlink:title="Get / Set the current position of the stream.">
<polygon fill="white" stroke="#666666" points="275,-30.5 162.25,-30.5 162.25,0 275,0 275,-30.5"/>
<text text-anchor="start" x="170.25" y="-17" font-family="Helvetica,sans-Serif" font-size="10.00">Get / Set the current</text>
<text text-anchor="middle" x="218.62" y="-5.75" font-family="Helvetica,sans-Serif" font-size="10.00"> position of the stream.</text>
</a>
</g>
</g>
<!-- Node1&#45;&gt;Node5 -->
<g id="edge4" class="edge">
<title>Node1&#45;&gt;Node5</title>
<path fill="none" stroke="black" d="M108.3,-64.93C125.17,-57.18 144.59,-48.29 162.25,-40.25 168.87,-37.24 175.95,-34.03 182.75,-30.96"/>
<polygon fill="black" stroke="black" points="107.16,-61.59 99.54,-68.95 110.08,-67.96 107.16,-61.59"/>
</g>
</g>
</svg>
