<?xml version="1.0" encoding="UTF-8" standalone="no"?>
<!DOCTYPE svg PUBLIC "-//W3C//DTD SVG 1.1//EN"
 "http://www.w3.org/Graphics/SVG/1.1/DTD/svg11.dtd">
<!-- Generated by graphviz version 12.2.0 (20241103.1931)
 -->
<!-- Title: BIOS, Interrupts, Slots, etc. Pages: 1 -->
<svg width="282pt" height="174pt"
 viewBox="0.00 0.00 281.50 173.50" xmlns="http://www.w3.org/2000/svg" xmlns:xlink="http://www.w3.org/1999/xlink">
<g id="graph0" class="graph" transform="scale(1 1) rotate(0) translate(4 169.5)">
<title>BIOS, Interrupts, Slots, etc.</title>
<!-- Node2 -->
<g id="Node000002" class="node">
<title>Node2</title>
<g id="a_Node000002"><a xlink:href="group__BIOS.html" target="_top" xlink:title="#include &lt;bios.h&gt;">
<polygon fill="white" stroke="#666666" points="261.5,-165.5 165.25,-165.5 165.25,-135 261.5,-135 261.5,-165.5"/>
<text text-anchor="start" x="173.25" y="-152" font-family="Helvetica,sans-Serif" font-size="10.00">BIOS &#45; Basic Input</text>
<text text-anchor="middle" x="213.38" y="-140.75" font-family="Helvetica,sans-Serif" font-size="10.00">/Output System</text>
</a>
</g>
</g>
<!-- Node3 -->
<g id="Node000003" class="node">
<title>Node3</title>
<g id="a_Node000003"><a xlink:href="group__INTERRUPT.html" target="_top" xlink:title="#include &lt;interrupt.h&gt;">
<polygon fill="white" stroke="#666666" points="242,-116.88 184.75,-116.88 184.75,-97.62 242,-97.62 242,-116.88"/>
<text text-anchor="middle" x="213.38" y="-103.38" font-family="Helvetica,sans-Serif" font-size="10.00">Interrupts</text>
</a>
</g>
</g>
<!-- Node1 -->
<g id="Node000001" class="node">
<title>Node1</title>
<g id="a_Node000001"><a xlink:title=" ">
<polygon fill="#999999" stroke="#666666" points="117.25,-100.5 0,-100.5 0,-70 117.25,-70 117.25,-100.5"/>
<text text-anchor="start" x="8" y="-87" font-family="Helvetica,sans-Serif" font-size="10.00">BIOS, Interrupts, Slots,</text>
<text text-anchor="middle" x="58.62" y="-75.75" font-family="Helvetica,sans-Serif" font-size="10.00"> etc.</text>
</a>
</g>
</g>
<!-- Node1&#45;&gt;Node2 -->
<g id="edge1" class="edge">
<title>Node1&#45;&gt;Node2</title>
<path fill="none" stroke="black" d="M104.91,-105.37C120.22,-112.1 137.44,-119.58 153.25,-126.25 159.68,-128.96 166.53,-131.79 173.19,-134.52"/>
<polygon fill="black" stroke="black" points="106.6,-102.3 96.04,-101.47 103.78,-108.7 106.6,-102.3"/>
</g>
<!-- Node1&#45;&gt;Node3 -->
<g id="edge2" class="edge">
<title>Node1&#45;&gt;Node3</title>
<path fill="none" stroke="black" d="M128.56,-95.18C148.31,-98.02 168.73,-100.96 184.47,-103.23"/>
<polygon fill="black" stroke="black" points="129.27,-91.74 118.87,-93.78 128.27,-98.67 129.27,-91.74"/>
</g>
<!-- Node4 -->
<g id="Node000004" class="node">
<title>Node4</title>
<g id="a_Node000004"><a xlink:href="group__SLOT.html" target="_top" xlink:title="#include &lt;slot.h&gt;">
<polygon fill="white" stroke="#666666" points="273.5,-79.5 153.25,-79.5 153.25,-49 273.5,-49 273.5,-79.5"/>
<text text-anchor="start" x="161.25" y="-66" font-family="Helvetica,sans-Serif" font-size="10.00">Slot &#45; Individual Address</text>
<text text-anchor="middle" x="213.38" y="-54.75" font-family="Helvetica,sans-Serif" font-size="10.00"> Spaces of devices.</text>
</a>
</g>
</g>
<!-- Node1&#45;&gt;Node4 -->
<g id="edge3" class="edge">
<title>Node1&#45;&gt;Node4</title>
<path fill="none" stroke="black" d="M128.64,-75.76C136.7,-74.65 144.86,-73.53 152.77,-72.45"/>
<polygon fill="black" stroke="black" points="128.3,-72.28 118.87,-77.1 129.26,-79.21 128.3,-72.28"/>
</g>
<!-- Node5 -->
<g id="Node000005" class="node">
<title>Node5</title>
<g id="a_Node000005"><a xlink:href="group__XMEM.html" target="_top" xlink:title="#include &lt;xmem.h&gt;">
<polygon fill="white" stroke="#666666" points="268.25,-30.5 158.5,-30.5 158.5,0 268.25,0 268.25,-30.5"/>
<text text-anchor="start" x="166.5" y="-17" font-family="Helvetica,sans-Serif" font-size="10.00">XMEM &#45; Inter&#45;memory</text>
<text text-anchor="middle" x="213.38" y="-5.75" font-family="Helvetica,sans-Serif" font-size="10.00"> transfer.</text>
</a>
</g>
</g>
<!-- Node1&#45;&gt;Node5 -->
<g id="edge4" class="edge">
<title>Node1&#45;&gt;Node5</title>
<path fill="none" stroke="black" d="M101.29,-64.7C117.43,-56.87 136.13,-47.98 153.25,-40.25 160.06,-37.18 167.35,-34 174.41,-30.99"/>
<polygon fill="black" stroke="black" points="99.9,-61.48 92.44,-69 102.97,-67.77 99.9,-61.48"/>
</g>
</g>
</svg>
