<?xml version="1.0" encoding="UTF-8" standalone="no"?>
<!DOCTYPE svg PUBLIC "-//W3C//DTD SVG 1.1//EN"
 "http://www.w3.org/Graphics/SVG/1.1/DTD/svg11.dtd">
<!-- Generated by graphviz version 7.0.5 (20221223.1930)
 -->
<!-- Title: Effectors for the libmsx audio replayer. Pages: 1 -->
<svg width="437pt" height="76pt"
 viewBox="0.00 0.00 437.00 75.50" xmlns="http://www.w3.org/2000/svg" xmlns:xlink="http://www.w3.org/1999/xlink">
<g id="graph0" class="graph" transform="scale(1 1) rotate(0) translate(4 71.5)">
<title>Effectors for the libmsx audio replayer.</title>
<!-- Node2 -->
<g id="node1" class="node">
<title>Node2</title>
<g id="a_node1"><a xlink:href="group__AUDIO.html" target="_top" xlink:title="#include &lt;audio.h&gt;">
<polygon fill="white" stroke="#666666" points="127,-45.5 0,-45.5 0,-26.5 127,-26.5 127,-45.5"/>
<text text-anchor="middle" x="63.5" y="-33.5" font-family="Helvetica,sans-Serif" font-size="10.00">The libmsx audio replayer.</text>
</a>
</g>
</g>
<!-- Node1 -->
<g id="node2" class="node">
<title>Node1</title>
<g id="a_node2"><a xlink:title="Effectors for the libmsx audio replayer.">
<polygon fill="#999999" stroke="#666666" points="277,-51 163,-51 163,-21 277,-21 277,-51"/>
<text text-anchor="start" x="171" y="-39" font-family="Helvetica,sans-Serif" font-size="10.00">Effectors for the libmsx</text>
<text text-anchor="middle" x="220" y="-28" font-family="Helvetica,sans-Serif" font-size="10.00"> audio replayer.</text>
</a>
</g>
</g>
<!-- Node2&#45;&gt;Node1 -->
<g id="edge1" class="edge">
<title>Node2&#45;&gt;Node1</title>
<path fill="none" stroke="black" d="M138.68,-36C146.75,-36 154.87,-36 162.68,-36"/>
<polygon fill="black" stroke="black" points="138.85,-32.5 128.85,-36 138.85,-39.5 138.85,-32.5"/>
</g>
<!-- Node3 -->
<g id="node3" class="node">
<title>Node3</title>
<g id="a_node3"><a xlink:href="group__AUDIO__EFX__AMP.html" target="_top" xlink:title="#include &lt;audio_efx_amp.h&gt;">
<polygon fill="white" stroke="#666666" points="418,-67.5 324,-67.5 324,-48.5 418,-48.5 418,-67.5"/>
<text text-anchor="middle" x="371" y="-55.5" font-family="Helvetica,sans-Serif" font-size="10.00">The AMP effector.</text>
</a>
</g>
</g>
<!-- Node1&#45;&gt;Node3 -->
<g id="edge2" class="edge">
<title>Node1&#45;&gt;Node3</title>
<path fill="none" stroke="black" d="M288.62,-45.98C300.51,-47.74 312.64,-49.53 323.78,-51.18"/>
<polygon fill="black" stroke="black" points="289.23,-42.54 278.83,-44.54 288.21,-49.46 289.23,-42.54"/>
</g>
<!-- Node4 -->
<g id="node4" class="node">
<title>Node4</title>
<g id="a_node4"><a xlink:href="group__AUDIO__EFX__PSG2SCC.html" target="_top" xlink:title="#include &lt;audio_efx_psg2scc.h&gt;">
<polygon fill="white" stroke="#666666" points="429,-30 313,-30 313,0 429,0 429,-30"/>
<text text-anchor="start" x="321" y="-18" font-family="Helvetica,sans-Serif" font-size="10.00">The &quot;PSG to SCC/SCC</text>
<text text-anchor="middle" x="371" y="-7" font-family="Helvetica,sans-Serif" font-size="10.00">+&quot; effector.</text>
</a>
</g>
</g>
<!-- Node1&#45;&gt;Node4 -->
<g id="edge3" class="edge">
<title>Node1&#45;&gt;Node4</title>
<path fill="none" stroke="black" d="M288.57,-26.48C296.6,-25.35 304.73,-24.2 312.6,-23.09"/>
<polygon fill="black" stroke="black" points="288.24,-22.99 278.83,-27.85 289.22,-29.92 288.24,-22.99"/>
</g>
</g>
</svg>
