<?xml version="1.0" encoding="UTF-8" standalone="no"?>
<!DOCTYPE svg PUBLIC "-//W3C//DTD SVG 1.1//EN"
 "http://www.w3.org/Graphics/SVG/1.1/DTD/svg11.dtd">
<!-- Generated by graphviz version 7.0.2 (20221119.0110)
 -->
<!-- Title: SNDDRV &#45; PSG sound driver Pages: 1 -->
<svg width="265pt" height="64pt"
 viewBox="0.00 0.00 265.00 64.00" xmlns="http://www.w3.org/2000/svg" xmlns:xlink="http://www.w3.org/1999/xlink">
<g id="graph0" class="graph" transform="scale(1 1) rotate(0) translate(4 60)">
<title>SNDDRV &#45; PSG sound driver</title>
<!-- Node1 -->
<g id="node1" class="node">
<title>Node1</title>
<g id="a_node1"><a xlink:title="#include &lt;snddrv.h&gt;">
<polygon fill="#999999" stroke="#666666" points="115,-42.5 0,-42.5 0,-12.5 115,-12.5 115,-42.5"/>
<text text-anchor="start" x="8" y="-30.5" font-family="Helvetica,sans-Serif" font-size="10.00">SNDDRV &#45; PSG sound</text>
<text text-anchor="middle" x="57.5" y="-19.5" font-family="Helvetica,sans-Serif" font-size="10.00"> driver</text>
</a>
</g>
</g>
<!-- Node3 -->
<g id="node2" class="node">
<title>Node3</title>
<g id="a_node2"><a xlink:href="group__SNDDRV__API.html" target="_top" xlink:title="SNDDRV APIs.">
<polygon fill="white" stroke="#666666" points="245,-56 163,-56 163,-37 245,-37 245,-56"/>
<text text-anchor="middle" x="204" y="-44" font-family="Helvetica,sans-Serif" font-size="10.00">SNDDRV APIs</text>
</a>
</g>
</g>
<!-- Node1&#45;&gt;Node3 -->
<g id="edge2" class="edge">
<title>Node1&#45;&gt;Node3</title>
<path fill="none" stroke="black" d="M126.44,-36.43C138.79,-38.06 151.3,-39.7 162.54,-41.18"/>
<polygon fill="black" stroke="black" points="127.07,-32.99 116.7,-35.15 126.15,-39.93 127.07,-32.99"/>
</g>
<!-- Node2 -->
<g id="node3" class="node">
<title>Node2</title>
<g id="a_node3"><a xlink:href="group__SNDDRV__DATA.html" target="_top" xlink:title="Sound data structure for SNDDRV.">
<polygon fill="white" stroke="#666666" points="257,-19 151,-19 151,0 257,0 257,-19"/>
<text text-anchor="middle" x="204" y="-7" font-family="Helvetica,sans-Serif" font-size="10.00">Sound data structure</text>
</a>
</g>
</g>
<!-- Node1&#45;&gt;Node2 -->
<g id="edge1" class="edge">
<title>Node1&#45;&gt;Node2</title>
<path fill="none" stroke="black" d="M126.57,-19.02C134.68,-18.01 142.87,-16.99 150.71,-16.01"/>
<polygon fill="black" stroke="black" points="126.19,-15.54 116.7,-20.25 127.05,-22.49 126.19,-15.54"/>
</g>
</g>
</svg>
