<?xml version="1.0" encoding="UTF-8" standalone="no"?>
<!DOCTYPE svg PUBLIC "-//W3C//DTD SVG 1.1//EN"
 "http://www.w3.org/Graphics/SVG/1.1/DTD/svg11.dtd">
<!-- Generated by graphviz version 7.0.5 (20221223.1930)
 -->
<!-- Title: SCREEN mode initialization Pages: 1 -->
<svg width="292pt" height="101pt"
 viewBox="0.00 0.00 292.00 101.00" xmlns="http://www.w3.org/2000/svg" xmlns:xlink="http://www.w3.org/1999/xlink">
<g id="graph0" class="graph" transform="scale(1 1) rotate(0) translate(4 97)">
<title>SCREEN mode initialization</title>
<!-- Node1 -->
<g id="node1" class="node">
<title>Node1</title>
<g id="a_node1"><a xlink:title="#include &lt;screen.h&gt;">
<polygon fill="#999999" stroke="#666666" points="135,-56 0,-56 0,-37 135,-37 135,-56"/>
<text text-anchor="middle" x="67.5" y="-44" font-family="Helvetica,sans-Serif" font-size="10.00">SCREEN mode initialization</text>
</a>
</g>
</g>
<!-- Node4 -->
<g id="node2" class="node">
<title>Node4</title>
<g id="a_node2"><a xlink:href="group__SCREEN__BITMAP.html" target="_top" xlink:title="Initialization functions for GRAPHIC 4, 5, 6, and 7 mode.">
<polygon fill="white" stroke="#666666" points="284,-93 171,-93 171,-74 284,-74 284,-93"/>
<text text-anchor="middle" x="227.5" y="-81" font-family="Helvetica,sans-Serif" font-size="10.00">Bitmap graphics mode</text>
</a>
</g>
</g>
<!-- Node1&#45;&gt;Node4 -->
<g id="edge3" class="edge">
<title>Node1&#45;&gt;Node4</title>
<path fill="none" stroke="black" d="M121.81,-58.98C142.09,-63.73 164.9,-69.07 184.04,-73.56"/>
<polygon fill="black" stroke="black" points="122.85,-55.63 112.31,-56.76 121.25,-62.45 122.85,-55.63"/>
</g>
<!-- Node3 -->
<g id="node3" class="node">
<title>Node3</title>
<g id="a_node3"><a xlink:href="group__SCREEN__PCG.html" target="_top" xlink:title="Initialization functions for GRAPHIC 1, 2, and 3 mode.">
<polygon fill="white" stroke="#666666" points="279,-56 176,-56 176,-37 279,-37 279,-56"/>
<text text-anchor="middle" x="227.5" y="-44" font-family="Helvetica,sans-Serif" font-size="10.00">Tiled graphics mode</text>
</a>
</g>
</g>
<!-- Node1&#45;&gt;Node3 -->
<g id="edge2" class="edge">
<title>Node1&#45;&gt;Node3</title>
<path fill="none" stroke="black" d="M146.34,-46.5C156.37,-46.5 166.44,-46.5 175.87,-46.5"/>
<polygon fill="black" stroke="black" points="146.56,-43 136.56,-46.5 146.56,-50 146.56,-43"/>
</g>
<!-- Node2 -->
<g id="node4" class="node">
<title>Node2</title>
<g id="a_node4"><a xlink:href="group__SCREEN__TEXT.html" target="_top" xlink:title="Initialization functions for TEXT 1 and 2 mode.">
<polygon fill="white" stroke="#666666" points="261.5,-19 193.5,-19 193.5,0 261.5,0 261.5,-19"/>
<text text-anchor="middle" x="227.5" y="-7" font-family="Helvetica,sans-Serif" font-size="10.00">TEXT mode</text>
</a>
</g>
</g>
<!-- Node1&#45;&gt;Node2 -->
<g id="edge1" class="edge">
<title>Node1&#45;&gt;Node2</title>
<path fill="none" stroke="black" d="M121.75,-34.03C145.34,-28.51 172.36,-22.18 193.06,-17.33"/>
<polygon fill="black" stroke="black" points="121.25,-30.55 112.31,-36.24 122.85,-37.37 121.25,-30.55"/>
</g>
</g>
</svg>
