<?xml version="1.0" encoding="UTF-8" standalone="no"?>
<!DOCTYPE svg PUBLIC "-//W3C//DTD SVG 1.1//EN"
 "http://www.w3.org/Graphics/SVG/1.1/DTD/svg11.dtd">
<!-- Generated by graphviz version 9.0.0 (20230911.1827)
 -->
<!-- Title: Decoders for the libmsx audio replayer. Pages: 1 -->
<svg width="275pt" height="88pt"
 viewBox="0.00 0.00 274.75 87.50" xmlns="http://www.w3.org/2000/svg" xmlns:xlink="http://www.w3.org/1999/xlink">
<g id="graph0" class="graph" transform="scale(1 1) rotate(0) translate(4 83.5)">
<title>Decoders for the libmsx audio replayer.</title>
<!-- Node1 -->
<g id="Node000001" class="node">
<title>Node1</title>
<g id="a_Node000001"><a xlink:title=" ">
<polygon fill="#999999" stroke="#666666" points="116.5,-54.5 0,-54.5 0,-24 116.5,-24 116.5,-54.5"/>
<text text-anchor="start" x="8" y="-41" font-family="Helvetica,sans-Serif" font-size="10.00">Decoders for the libmsx</text>
<text text-anchor="middle" x="58.25" y="-29.75" font-family="Helvetica,sans-Serif" font-size="10.00"> audio replayer.</text>
</a>
</g>
</g>
<!-- Node2 -->
<g id="Node000002" class="node">
<title>Node2</title>
<g id="a_Node000002"><a xlink:href="group__LA0__DECODER.html" target="_top" xlink:title="#include &lt;la0.h&gt;">
<polygon fill="white" stroke="#666666" points="265.25,-79.5 154,-79.5 154,-49 265.25,-49 265.25,-79.5"/>
<text text-anchor="start" x="162" y="-66" font-family="Helvetica,sans-Serif" font-size="10.00">LA0 &#45; PSG, SCC/SCC</text>
<text text-anchor="middle" x="209.62" y="-54.75" font-family="Helvetica,sans-Serif" font-size="10.00">+, OPLL sound driver.</text>
</a>
</g>
</g>
<!-- Node1&#45;&gt;Node2 -->
<g id="edge1" class="edge">
<title>Node1&#45;&gt;Node2</title>
<path fill="none" stroke="black" d="M127.85,-50.73C136.5,-52.18 145.26,-53.65 153.67,-55.05"/>
<polygon fill="black" stroke="black" points="128.51,-47.29 118.07,-49.09 127.35,-54.2 128.51,-47.29"/>
</g>
<!-- Node3 -->
<g id="Node000003" class="node">
<title>Node3</title>
<g id="a_Node000003"><a xlink:href="group__SNDDRV.html" target="_top" xlink:title="#include &lt;snddrv.h&gt;">
<polygon fill="white" stroke="#666666" points="266.75,-30.5 152.5,-30.5 152.5,0 266.75,0 266.75,-30.5"/>
<text text-anchor="start" x="160.5" y="-17" font-family="Helvetica,sans-Serif" font-size="10.00">SNDDRV &#45; PSG sound</text>
<text text-anchor="middle" x="209.62" y="-5.75" font-family="Helvetica,sans-Serif" font-size="10.00"> driver</text>
</a>
</g>
</g>
<!-- Node1&#45;&gt;Node3 -->
<g id="edge2" class="edge">
<title>Node1&#45;&gt;Node3</title>
<path fill="none" stroke="black" d="M127.67,-28.26C135.87,-26.94 144.18,-25.6 152.19,-24.32"/>
<polygon fill="black" stroke="black" points="127.39,-24.76 118.07,-29.8 128.5,-31.67 127.39,-24.76"/>
</g>
</g>
</svg>
