<?xml version="1.0" encoding="UTF-8" standalone="no"?>
<!DOCTYPE svg PUBLIC "-//W3C//DTD SVG 1.1//EN"
 "http://www.w3.org/Graphics/SVG/1.1/DTD/svg11.dtd">
<!-- Generated by graphviz version 9.0.0 (20230911.1827)
 -->
<!-- Title: Sound &#45; Old PSG sound driver Pages: 1 -->
<svg width="325pt" height="64pt"
 viewBox="0.00 0.00 325.00 64.25" xmlns="http://www.w3.org/2000/svg" xmlns:xlink="http://www.w3.org/1999/xlink">
<g id="graph0" class="graph" transform="scale(1 1) rotate(0) translate(4 60.25)">
<title>Sound &#45; Old PSG sound driver</title>
<!-- Node1 -->
<g id="Node000001" class="node">
<title>Node1</title>
<g id="a_Node000001"><a xlink:title="#include &lt;sound.h&gt;, #include &lt;sound_eg.h&gt;">
<polygon fill="#999999" stroke="#666666" points="118,-42.88 0,-42.88 0,-12.37 118,-12.37 118,-42.88"/>
<text text-anchor="start" x="8" y="-29.38" font-family="Helvetica,sans-Serif" font-size="10.00">Sound &#45; Old PSG sound</text>
<text text-anchor="middle" x="59" y="-18.12" font-family="Helvetica,sans-Serif" font-size="10.00"> driver</text>
</a>
</g>
</g>
<!-- Node2 -->
<g id="Node000002" class="node">
<title>Node2</title>
<g id="a_Node000002"><a xlink:href="group__SOUND__OLD__API.html" target="_top" xlink:title="Old PSG sound driver APIs.">
<polygon fill="white" stroke="#666666" points="302,-56.25 169,-56.25 169,-37 302,-37 302,-56.25"/>
<text text-anchor="middle" x="235.5" y="-42.75" font-family="Helvetica,sans-Serif" font-size="10.00">Old PSG sound driver APIs</text>
</a>
</g>
</g>
<!-- Node1&#45;&gt;Node2 -->
<g id="edge1" class="edge">
<title>Node1&#45;&gt;Node2</title>
<path fill="none" stroke="black" d="M129.29,-35.17C142.22,-36.58 155.69,-38.04 168.51,-39.44"/>
<polygon fill="black" stroke="black" points="129.93,-31.72 119.61,-34.12 129.17,-38.68 129.93,-31.72"/>
</g>
<!-- Node3 -->
<g id="Node000003" class="node">
<title>Node3</title>
<g id="a_Node000003"><a xlink:href="group__SOUND__OLD__EG__API.html" target="_top" xlink:title="Software envelope generator interface.">
<polygon fill="white" stroke="#666666" points="317,-19.25 154,-19.25 154,0 317,0 317,-19.25"/>
<text text-anchor="middle" x="235.5" y="-5.75" font-family="Helvetica,sans-Serif" font-size="10.00">Software envelope generator APIs</text>
</a>
</g>
</g>
<!-- Node1&#45;&gt;Node3 -->
<g id="edge2" class="edge">
<title>Node1&#45;&gt;Node3</title>
<path fill="none" stroke="black" d="M129.54,-20.45C137.46,-19.63 145.59,-18.8 153.65,-17.96"/>
<polygon fill="black" stroke="black" points="129.2,-16.97 119.61,-21.48 129.92,-23.93 129.2,-16.97"/>
</g>
</g>
</svg>
