<?xml version="1.0" encoding="UTF-8" standalone="no"?>
<!DOCTYPE svg PUBLIC "-//W3C//DTD SVG 1.1//EN"
 "http://www.w3.org/Graphics/SVG/1.1/DTD/svg11.dtd">
<!-- Generated by graphviz version 7.0.5 (20221223.1930)
 -->
<!-- Title: PSG &#45; AY&#45;3&#45;8910 / Programmable Sound Generator Pages: 1 -->
<svg width="282pt" height="64pt"
 viewBox="0.00 0.00 282.00 64.00" xmlns="http://www.w3.org/2000/svg" xmlns:xlink="http://www.w3.org/1999/xlink">
<g id="graph0" class="graph" transform="scale(1 1) rotate(0) translate(4 60)">
<title>PSG &#45; AY&#45;3&#45;8910 / Programmable Sound Generator</title>
<!-- Node1 -->
<g id="node1" class="node">
<title>Node1</title>
<g id="a_node1"><a xlink:title="#include &lt;psg.h&gt;, #include &lt;ay_3_8910.h&gt;">
<polygon fill="#999999" stroke="#666666" points="161,-42.5 0,-42.5 0,-12.5 161,-12.5 161,-42.5"/>
<text text-anchor="start" x="8" y="-30.5" font-family="Helvetica,sans-Serif" font-size="10.00">PSG &#45; AY&#45;3&#45;8910 / Programmable</text>
<text text-anchor="middle" x="80.5" y="-19.5" font-family="Helvetica,sans-Serif" font-size="10.00"> Sound Generator</text>
</a>
</g>
</g>
<!-- Node2 -->
<g id="node2" class="node">
<title>Node2</title>
<g id="a_node2"><a xlink:href="group__PSG__BUFFER.html" target="_top" xlink:title="Buffered access to PSG registers.">
<polygon fill="white" stroke="#666666" points="268,-56 203,-56 203,-37 268,-37 268,-56"/>
<text text-anchor="middle" x="235.5" y="-44" font-family="Helvetica,sans-Serif" font-size="10.00">PSG Buffer</text>
</a>
</g>
</g>
<!-- Node1&#45;&gt;Node2 -->
<g id="edge1" class="edge">
<title>Node1&#45;&gt;Node2</title>
<path fill="none" stroke="black" d="M172.41,-38.79C183.13,-40.12 193.46,-41.4 202.51,-42.53"/>
<polygon fill="black" stroke="black" points="172.99,-35.34 162.64,-37.58 172.13,-42.28 172.99,-35.34"/>
</g>
<!-- Node3 -->
<g id="node3" class="node">
<title>Node3</title>
<g id="a_node3"><a xlink:href="group__PSG__REGISTER.html" target="_top" xlink:title="Read / Write PSG registers.">
<polygon fill="white" stroke="#666666" points="274,-19 197,-19 197,0 274,0 274,-19"/>
<text text-anchor="middle" x="235.5" y="-7" font-family="Helvetica,sans-Serif" font-size="10.00">PSG registers</text>
</a>
</g>
</g>
<!-- Node1&#45;&gt;Node3 -->
<g id="edge2" class="edge">
<title>Node1&#45;&gt;Node3</title>
<path fill="none" stroke="black" d="M172.35,-16.81C180.81,-15.82 189.02,-14.85 196.55,-13.96"/>
<polygon fill="black" stroke="black" points="172.16,-13.31 162.64,-17.95 172.98,-20.26 172.16,-13.31"/>
</g>
</g>
</svg>
