<?xml version="1.0" encoding="UTF-8" standalone="no"?>
<!DOCTYPE svg PUBLIC "-//W3C//DTD SVG 1.1//EN"
 "http://www.w3.org/Graphics/SVG/1.1/DTD/svg11.dtd">
<!-- Generated by graphviz version 7.0.5 (20221223.1930)
 -->
<!-- Title: BIOS &#45; Basic Input/Output System Pages: 1 -->
<svg width="254pt" height="150pt"
 viewBox="0.00 0.00 254.00 149.50" xmlns="http://www.w3.org/2000/svg" xmlns:xlink="http://www.w3.org/1999/xlink">
<g id="graph0" class="graph" transform="scale(1 1) rotate(0) translate(4 145.5)">
<title>BIOS &#45; Basic Input/Output System</title>
<!-- Node1 -->
<g id="node1" class="node">
<title>Node1</title>
<g id="a_node1"><a xlink:title="#include &lt;bios.h&gt;">
<polygon fill="#999999" stroke="#666666" points="97,-91 0,-91 0,-61 97,-61 97,-91"/>
<text text-anchor="start" x="8" y="-79" font-family="Helvetica,sans-Serif" font-size="10.00">BIOS &#45; Basic Input</text>
<text text-anchor="middle" x="48.5" y="-68" font-family="Helvetica,sans-Serif" font-size="10.00">/Output System</text>
</a>
</g>
</g>
<!-- Node2 -->
<g id="node2" class="node">
<title>Node2</title>
<g id="a_node2"><a xlink:href="group__BIOS__CONFIG.html" target="_top" xlink:title="Get the system version, VSYNC frequency, etc.">
<polygon fill="white" stroke="#666666" points="243,-141.5 136,-141.5 136,-122.5 243,-122.5 243,-141.5"/>
<text text-anchor="middle" x="189.5" y="-129.5" font-family="Helvetica,sans-Serif" font-size="10.00">System configuration</text>
</a>
</g>
</g>
<!-- Node1&#45;&gt;Node2 -->
<g id="edge1" class="edge">
<title>Node1&#45;&gt;Node2</title>
<path fill="none" stroke="black" d="M91.44,-96.21C104.61,-102.25 119.29,-108.68 133,-114 140.27,-116.82 148.19,-119.58 155.71,-122.05"/>
<polygon fill="black" stroke="black" points="93.17,-93.15 82.63,-92.12 90.22,-99.5 93.17,-93.15"/>
</g>
<!-- Node5 -->
<g id="node3" class="node">
<title>Node5</title>
<g id="a_node3"><a xlink:href="group__BIOS__CPU.html" target="_top" xlink:title="Change / Get CPU mode.">
<polygon fill="white" stroke="#666666" points="246,-104.5 133,-104.5 133,-85.5 246,-85.5 246,-104.5"/>
<text text-anchor="middle" x="189.5" y="-92.5" font-family="Helvetica,sans-Serif" font-size="10.00">Z80 / R800 CPU mode</text>
</a>
</g>
</g>
<!-- Node1&#45;&gt;Node5 -->
<g id="edge4" class="edge">
<title>Node1&#45;&gt;Node5</title>
<path fill="none" stroke="black" d="M108.58,-84.08C116.65,-85.18 124.92,-86.31 132.92,-87.4"/>
<polygon fill="black" stroke="black" points="109.22,-80.63 98.84,-82.74 108.27,-87.57 109.22,-80.63"/>
</g>
<!-- Node4 -->
<g id="node4" class="node">
<title>Node4</title>
<g id="a_node4"><a xlink:href="group__BIOS__JOYPAD.html" target="_top" xlink:title="Joystick / Joypad interface.">
<polygon fill="white" stroke="#666666" points="235,-67.5 144,-67.5 144,-48.5 235,-48.5 235,-67.5"/>
<text text-anchor="middle" x="189.5" y="-55.5" font-family="Helvetica,sans-Serif" font-size="10.00">Joystick / Joypad</text>
</a>
</g>
</g>
<!-- Node1&#45;&gt;Node4 -->
<g id="edge3" class="edge">
<title>Node1&#45;&gt;Node4</title>
<path fill="none" stroke="black" d="M108.51,-68.36C120.35,-66.83 132.6,-65.24 143.85,-63.78"/>
<polygon fill="black" stroke="black" points="108.3,-64.86 98.84,-69.61 109.2,-71.8 108.3,-64.86"/>
</g>
<!-- Node3 -->
<g id="node5" class="node">
<title>Node3</title>
<g id="a_node5"><a xlink:href="group__BIOS__SLOT.html" target="_top" xlink:title="Inter&#45;slot Read / Write / Call interface.">
<polygon fill="white" stroke="#666666" points="244.5,-30 134.5,-30 134.5,0 244.5,0 244.5,-30"/>
<text text-anchor="start" x="142.5" y="-18" font-family="Helvetica,sans-Serif" font-size="10.00">Inter&#45;slot Read / Write</text>
<text text-anchor="middle" x="189.5" y="-7" font-family="Helvetica,sans-Serif" font-size="10.00"> / Call</text>
</a>
</g>
</g>
<!-- Node1&#45;&gt;Node3 -->
<g id="edge2" class="edge">
<title>Node1&#45;&gt;Node3</title>
<path fill="none" stroke="black" d="M95.09,-55.99C114.06,-47.67 135.74,-38.15 153.44,-30.39"/>
<polygon fill="black" stroke="black" points="93.71,-52.78 85.96,-60 96.53,-59.19 93.71,-52.78"/>
</g>
</g>
</svg>
