<?xml version="1.0" encoding="UTF-8" standalone="no"?>
<!DOCTYPE svg PUBLIC "-//W3C//DTD SVG 1.1//EN"
 "http://www.w3.org/Graphics/SVG/1.1/DTD/svg11.dtd">
<!-- Generated by graphviz version 12.2.0 (20241103.1931)
 -->
<!-- Title: VRAM &#45; Video RAM Pages: 1 -->
<svg width="427pt" height="27pt"
 viewBox="0.00 0.00 427.25 27.25" xmlns="http://www.w3.org/2000/svg" xmlns:xlink="http://www.w3.org/1999/xlink">
<g id="graph0" class="graph" transform="scale(1 1) rotate(0) translate(4 23.25)">
<title>VRAM &#45; Video RAM</title>
<!-- Node2 -->
<g id="Node000002" class="node">
<title>Node2</title>
<g id="a_Node000002"><a xlink:href="group__LIBMSX__GRAPHICS.html" target="_top" xlink:title=" ">
<polygon fill="white" stroke="#666666" points="128.5,-19.25 0,-19.25 0,0 128.5,0 128.5,-19.25"/>
<text text-anchor="middle" x="64.25" y="-5.75" font-family="Helvetica,sans-Serif" font-size="10.00">Video / Display / Graphics.</text>
</a>
</g>
</g>
<!-- Node1 -->
<g id="Node000001" class="node">
<title>Node1</title>
<g id="a_Node000001"><a xlink:title="#include &lt;vmem.h&gt;">
<polygon fill="#999999" stroke="#666666" points="265.25,-19.25 164.5,-19.25 164.5,0 265.25,0 265.25,-19.25"/>
<text text-anchor="middle" x="214.88" y="-5.75" font-family="Helvetica,sans-Serif" font-size="10.00">VRAM &#45; Video RAM</text>
</a>
</g>
</g>
<!-- Node2&#45;&gt;Node1 -->
<g id="edge1" class="edge">
<title>Node2&#45;&gt;Node1</title>
<path fill="none" stroke="black" d="M140.16,-9.62C148.28,-9.62 156.39,-9.62 164.11,-9.62"/>
<polygon fill="black" stroke="black" points="140.23,-6.13 130.23,-9.63 140.22,-13.13 140.23,-6.13"/>
</g>
<!-- Node3 -->
<g id="Node000003" class="node">
<title>Node3</title>
<g id="a_Node000003"><a xlink:href="group__VMEM__ACCESS.html" target="_top" xlink:title="Read / Write VRAM.">
<polygon fill="white" stroke="#666666" points="419.25,-19.25 301.25,-19.25 301.25,0 419.25,0 419.25,-19.25"/>
<text text-anchor="middle" x="360.25" y="-5.75" font-family="Helvetica,sans-Serif" font-size="10.00">VRAM access interface</text>
</a>
</g>
</g>
<!-- Node1&#45;&gt;Node3 -->
<g id="edge2" class="edge">
<title>Node1&#45;&gt;Node3</title>
<path fill="none" stroke="black" d="M276.87,-9.62C284.94,-9.62 293.2,-9.62 301.22,-9.62"/>
<polygon fill="black" stroke="black" points="277.13,-6.13 267.13,-9.63 277.13,-13.13 277.13,-6.13"/>
</g>
</g>
</svg>
