<?xml version="1.0" encoding="UTF-8" standalone="no"?>
<!DOCTYPE svg PUBLIC "-//W3C//DTD SVG 1.1//EN"
 "http://www.w3.org/Graphics/SVG/1.1/DTD/svg11.dtd">
<!-- Generated by graphviz version 7.0.5 (20221223.1930)
 -->
<!-- Title: The libmsx audio replayer. Pages: 1 -->
<svg width="311pt" height="194pt"
 viewBox="0.00 0.00 311.00 193.50" xmlns="http://www.w3.org/2000/svg" xmlns:xlink="http://www.w3.org/1999/xlink">
<g id="graph0" class="graph" transform="scale(1 1) rotate(0) translate(4 189.5)">
<title>The libmsx audio replayer.</title>
<!-- Node1 -->
<g id="node1" class="node">
<title>Node1</title>
<g id="a_node1"><a xlink:title="#include &lt;audio.h&gt;">
<polygon fill="#999999" stroke="#666666" points="127,-96.5 0,-96.5 0,-77.5 127,-77.5 127,-96.5"/>
<text text-anchor="middle" x="63.5" y="-84.5" font-family="Helvetica,sans-Serif" font-size="10.00">The libmsx audio replayer.</text>
</a>
</g>
</g>
<!-- Node4 -->
<g id="node2" class="node">
<title>Node4</title>
<g id="a_node2"><a xlink:href="group__AUDIO__CALLBACK.html" target="_top" xlink:title="#include &lt;audio_cb.h&gt;">
<polygon fill="white" stroke="#666666" points="282,-185.5 184,-185.5 184,-144.5 282,-144.5 282,-185.5"/>
<text text-anchor="start" x="192" y="-173.5" font-family="Helvetica,sans-Serif" font-size="10.00">Callback functions</text>
<text text-anchor="start" x="192" y="-162.5" font-family="Helvetica,sans-Serif" font-size="10.00"> of the libmsx audio</text>
<text text-anchor="middle" x="233" y="-151.5" font-family="Helvetica,sans-Serif" font-size="10.00"> replayer.</text>
</a>
</g>
</g>
<!-- Node1&#45;&gt;Node4 -->
<g id="edge3" class="edge">
<title>Node1&#45;&gt;Node4</title>
<path fill="none" stroke="black" d="M94.45,-102.01C113.89,-111.65 139.82,-124.32 163,-135 169.64,-138.06 176.68,-141.22 183.63,-144.28"/>
<polygon fill="black" stroke="black" points="96.24,-99 85.73,-97.67 93.12,-105.26 96.24,-99"/>
</g>
<!-- Node5 -->
<g id="node3" class="node">
<title>Node5</title>
<g id="a_node3"><a xlink:href="group__AUDIO__DECODER.html" target="_top" xlink:title="#include &lt;audio_dec.h&gt;">
<polygon fill="white" stroke="#666666" points="303,-126 163,-126 163,-96 303,-96 303,-126"/>
<text text-anchor="start" x="171" y="-114" font-family="Helvetica,sans-Serif" font-size="10.00">The audio decoder interface</text>
<text text-anchor="middle" x="233" y="-103" font-family="Helvetica,sans-Serif" font-size="10.00"> for the libmsx audio replayer.</text>
</a>
</g>
</g>
<!-- Node1&#45;&gt;Node5 -->
<g id="edge4" class="edge">
<title>Node1&#45;&gt;Node5</title>
<path fill="none" stroke="black" d="M138.55,-97.61C146.55,-98.76 154.68,-99.92 162.62,-101.06"/>
<polygon fill="black" stroke="black" points="139.24,-94.17 128.85,-96.22 138.25,-101.1 139.24,-94.17"/>
</g>
<!-- Node3 -->
<g id="node4" class="node">
<title>Node3</title>
<g id="a_node4"><a xlink:href="group__AUDIO__EFX.html" target="_top" xlink:title="Effectors for the libmsx audio replayer.">
<polygon fill="white" stroke="#666666" points="290,-78 176,-78 176,-48 290,-48 290,-78"/>
<text text-anchor="start" x="184" y="-66" font-family="Helvetica,sans-Serif" font-size="10.00">Effectors for the libmsx</text>
<text text-anchor="middle" x="233" y="-55" font-family="Helvetica,sans-Serif" font-size="10.00"> audio replayer.</text>
</a>
</g>
</g>
<!-- Node1&#45;&gt;Node3 -->
<g id="edge2" class="edge">
<title>Node1&#45;&gt;Node3</title>
<path fill="none" stroke="black" d="M138.65,-76.38C151.09,-74.59 163.8,-72.77 175.69,-71.07"/>
<polygon fill="black" stroke="black" points="138.25,-72.9 128.85,-77.78 139.24,-79.83 138.25,-72.9"/>
</g>
<!-- Node2 -->
<g id="node5" class="node">
<title>Node2</title>
<g id="a_node5"><a xlink:href="group__AUDIO__REPLAYER.html" target="_top" xlink:title="The API of the libmsx audio replayer.">
<polygon fill="white" stroke="#666666" points="287,-30 179,-30 179,0 287,0 287,-30"/>
<text text-anchor="start" x="187" y="-18" font-family="Helvetica,sans-Serif" font-size="10.00">The API of the libmsx</text>
<text text-anchor="middle" x="233" y="-7" font-family="Helvetica,sans-Serif" font-size="10.00"> audio replayer.</text>
</a>
</g>
</g>
<!-- Node1&#45;&gt;Node2 -->
<g id="edge1" class="edge">
<title>Node1&#45;&gt;Node2</title>
<path fill="none" stroke="black" d="M93.1,-71.95C112.54,-61.99 138.99,-48.98 163,-39 170.14,-36.03 177.8,-33.11 185.32,-30.39"/>
<polygon fill="black" stroke="black" points="91.7,-68.73 84.42,-76.43 94.91,-74.95 91.7,-68.73"/>
</g>
</g>
</svg>
