<?xml version="1.0" encoding="UTF-8" standalone="no"?>
<!DOCTYPE svg PUBLIC "-//W3C//DTD SVG 1.1//EN"
 "http://www.w3.org/Graphics/SVG/1.1/DTD/svg11.dtd">
<!-- Generated by graphviz version 12.2.0 (20241103.1931)
 -->
<!-- Title: include/im.h Pages: 1 -->
<svg width="124pt" height="83pt"
 viewBox="0.00 0.00 124.00 82.50" xmlns="http://www.w3.org/2000/svg" xmlns:xlink="http://www.w3.org/1999/xlink">
<g id="graph0" class="graph" transform="scale(1 1) rotate(0) translate(4 78.5)">
<title>include/im.h</title>
<!-- Node1 -->
<g id="Node000001" class="node">
<title>Node1</title>
<g id="a_Node000001"><a xlink:title="8x8px, 16x16px bitmap image processing.">
<polygon fill="#999999" stroke="#666666" points="92.12,-74.5 24.38,-74.5 24.38,-55.25 92.12,-55.25 92.12,-74.5"/>
<text text-anchor="middle" x="58.25" y="-61" font-family="Helvetica,sans-Serif" font-size="10.00">include/im.h</text>
</a>
</g>
</g>
<!-- Node2 -->
<g id="Node000002" class="node">
<title>Node2</title>
<g id="a_Node000002"><a xlink:title=" ">
<polygon fill="#e0e0e0" stroke="#999999" points="50.5,-19.25 0,-19.25 0,0 50.5,0 50.5,-19.25"/>
<text text-anchor="middle" x="25.25" y="-5.75" font-family="Helvetica,sans-Serif" font-size="10.00">stddef.h</text>
</a>
</g>
</g>
<!-- Node1&#45;&gt;Node2 -->
<g id="edge1_Node000001_Node000002" class="edge">
<title>Node1&#45;&gt;Node2</title>
<g id="a_edge1_Node000001_Node000002"><a xlink:title=" ">
<path fill="none" stroke="#63b8ff" d="M52.8,-55.08C48.48,-48.11 42.29,-38.12 36.87,-29.37"/>
<polygon fill="#63b8ff" stroke="#63b8ff" points="39.86,-27.55 31.61,-20.9 33.91,-31.24 39.86,-27.55"/>
</a>
</g>
</g>
<!-- Node3 -->
<g id="Node000003" class="node">
<title>Node3</title>
<g id="a_Node000003"><a xlink:title=" ">
<polygon fill="#e0e0e0" stroke="#999999" points="116,-19.25 68.5,-19.25 68.5,0 116,0 116,-19.25"/>
<text text-anchor="middle" x="92.25" y="-5.75" font-family="Helvetica,sans-Serif" font-size="10.00">stdint.h</text>
</a>
</g>
</g>
<!-- Node1&#45;&gt;Node3 -->
<g id="edge2_Node000001_Node000003" class="edge">
<title>Node1&#45;&gt;Node3</title>
<g id="a_edge2_Node000001_Node000003"><a xlink:title=" ">
<path fill="none" stroke="#63b8ff" d="M63.86,-55.08C68.37,-48.03 74.84,-37.9 80.46,-29.08"/>
<polygon fill="#63b8ff" stroke="#63b8ff" points="83.27,-31.2 85.7,-20.88 77.37,-27.43 83.27,-31.2"/>
</a>
</g>
</g>
</g>
</svg>
