<?xml version="1.0" encoding="UTF-8" standalone="no"?>
<!DOCTYPE svg PUBLIC "-//W3C//DTD SVG 1.1//EN"
 "http://www.w3.org/Graphics/SVG/1.1/DTD/svg11.dtd">
<!-- Generated by graphviz version 2.49.3 (20211027.1534)
 -->
<!-- Title: src/interrupt.c Pages: 1 -->
<svg width="203pt" height="140pt"
 viewBox="0.00 0.00 202.82 140.00" xmlns="http://www.w3.org/2000/svg" xmlns:xlink="http://www.w3.org/1999/xlink">
<g id="graph0" class="graph" transform="scale(1 1) rotate(0) translate(4 136)">
<title>src/interrupt.c</title>
<!-- Node1 -->
<g id="node1" class="node">
<title>Node1</title>
<g id="a_node1"><a xlink:title="Copyright (c) 2021 Daishi Mori (mori0091)">
<polygon fill="#bfbfbf" stroke="black" points="73,-112.5 73,-131.5 149,-131.5 149,-112.5 73,-112.5"/>
<text text-anchor="middle" x="111" y="-119.5" font-family="Helvetica,sans-Serif" font-size="10.00">src/interrupt.c</text>
</a>
</g>
</g>
<!-- Node2 -->
<g id="node2" class="node">
<title>Node2</title>
<g id="a_node2"><a xlink:title=" ">
<polygon fill="none" stroke="#bfbfbf" points="0,-0.5 0,-19.5 56,-19.5 56,-0.5 0,-0.5"/>
<text text-anchor="middle" x="28" y="-7.5" font-family="Helvetica,sans-Serif" font-size="10.00">stdbool.h</text>
</a>
</g>
</g>
<!-- Node1&#45;&gt;Node2 -->
<g id="edge1" class="edge">
<title>Node1&#45;&gt;Node2</title>
<path fill="none" stroke="midnightblue" d="M72.85,-115.55C48.98,-109.96 20.01,-98.67 5,-76 -4.86,-61.1 4.6,-41.47 14.2,-27.7"/>
<polygon fill="midnightblue" stroke="midnightblue" points="17.09,-29.69 20.33,-19.6 11.51,-25.46 17.09,-29.69"/>
</g>
<!-- Node3 -->
<g id="node3" class="node">
<title>Node3</title>
<g id="a_node3"><a xlink:title=" ">
<polygon fill="none" stroke="#bfbfbf" points="78,-0.5 78,-19.5 126,-19.5 126,-0.5 78,-0.5"/>
<text text-anchor="middle" x="102" y="-7.5" font-family="Helvetica,sans-Serif" font-size="10.00">stdint.h</text>
</a>
</g>
</g>
<!-- Node1&#45;&gt;Node3 -->
<g id="edge2" class="edge">
<title>Node1&#45;&gt;Node3</title>
<path fill="none" stroke="midnightblue" d="M138.18,-112.41C167.14,-101.72 206.8,-81.69 191,-56 178.97,-36.44 155.53,-25.07 135.72,-18.66"/>
<polygon fill="midnightblue" stroke="midnightblue" points="136.65,-15.28 126.06,-15.81 134.67,-21.99 136.65,-15.28"/>
</g>
<!-- Node4 -->
<g id="node4" class="node">
<title>Node4</title>
<g id="a_node4"><a xlink:title=" ">
<polygon fill="none" stroke="#bfbfbf" points="134,-56.5 134,-75.5 182,-75.5 182,-56.5 134,-56.5"/>
<text text-anchor="middle" x="158" y="-63.5" font-family="Helvetica,sans-Serif" font-size="10.00">string.h</text>
</a>
</g>
</g>
<!-- Node1&#45;&gt;Node4 -->
<g id="edge3" class="edge">
<title>Node1&#45;&gt;Node4</title>
<path fill="none" stroke="midnightblue" d="M118.76,-112.08C125.54,-104.3 135.54,-92.8 143.76,-83.37"/>
<polygon fill="midnightblue" stroke="midnightblue" points="146.46,-85.59 150.38,-75.75 141.18,-81 146.46,-85.59"/>
</g>
<!-- Node5 -->
<g id="node5" class="node">
<title>Node5</title>
<g id="a_node5"><a xlink:href="interrupt_8h.html" target="_top" xlink:title="Copyright (c) 2021 Daishi Mori (mori0091)">
<polygon fill="none" stroke="black" points="14.5,-56.5 14.5,-75.5 115.5,-75.5 115.5,-56.5 14.5,-56.5"/>
<text text-anchor="middle" x="65" y="-63.5" font-family="Helvetica,sans-Serif" font-size="10.00">../include/interrupt.h</text>
</a>
</g>
</g>
<!-- Node1&#45;&gt;Node5 -->
<g id="edge4" class="edge">
<title>Node1&#45;&gt;Node5</title>
<path fill="none" stroke="midnightblue" d="M103.4,-112.08C96.77,-104.3 86.98,-92.8 78.94,-83.37"/>
<polygon fill="midnightblue" stroke="midnightblue" points="81.6,-81.09 72.45,-75.75 76.27,-85.63 81.6,-81.09"/>
</g>
<!-- Node5&#45;&gt;Node2 -->
<g id="edge5" class="edge">
<title>Node5&#45;&gt;Node2</title>
<path fill="none" stroke="midnightblue" d="M58.89,-56.08C53.72,-48.53 46.15,-37.49 39.81,-28.23"/>
<polygon fill="midnightblue" stroke="midnightblue" points="42.54,-26.02 34,-19.75 36.76,-29.98 42.54,-26.02"/>
</g>
<!-- Node5&#45;&gt;Node3 -->
<g id="edge6" class="edge">
<title>Node5&#45;&gt;Node3</title>
<path fill="none" stroke="midnightblue" d="M71.11,-56.08C76.28,-48.53 83.85,-37.49 90.19,-28.23"/>
<polygon fill="midnightblue" stroke="midnightblue" points="93.24,-29.98 96,-19.75 87.46,-26.02 93.24,-29.98"/>
</g>
</g>
</svg>
