<?xml version="1.0" encoding="UTF-8" standalone="no"?>
<!DOCTYPE svg PUBLIC "-//W3C//DTD SVG 1.1//EN"
 "http://www.w3.org/Graphics/SVG/1.1/DTD/svg11.dtd">
<!-- Generated by graphviz version 2.49.3 (20211027.1534)
 -->
<!-- Title: src/interrupt.c Pages: 1 -->
<svg width="316pt" height="140pt"
 viewBox="0.00 0.00 316.00 140.00" xmlns="http://www.w3.org/2000/svg" xmlns:xlink="http://www.w3.org/1999/xlink">
<g id="graph0" class="graph" transform="scale(1 1) rotate(0) translate(4 136)">
<title>src/interrupt.c</title>
<!-- Node1 -->
<g id="node1" class="node">
<title>Node1</title>
<g id="a_node1"><a xlink:title="Copyright (c) 2021 Daishi Mori (mori0091)">
<polygon fill="#bfbfbf" stroke="black" points="120,-112.5 120,-131.5 196,-131.5 196,-112.5 120,-112.5"/>
<text text-anchor="middle" x="158" y="-119.5" font-family="Helvetica,sans-Serif" font-size="10.00">src/interrupt.c</text>
</a>
</g>
</g>
<!-- Node2 -->
<g id="node2" class="node">
<title>Node2</title>
<g id="a_node2"><a xlink:title=" ">
<polygon fill="none" stroke="#bfbfbf" points="0,-0.5 0,-19.5 56,-19.5 56,-0.5 0,-0.5"/>
<text text-anchor="middle" x="28" y="-7.5" font-family="Helvetica,sans-Serif" font-size="10.00">stdbool.h</text>
</a>
</g>
</g>
<!-- Node1&#45;&gt;Node2 -->
<g id="edge1" class="edge">
<title>Node1&#45;&gt;Node2</title>
<path fill="none" stroke="midnightblue" d="M119.67,-115.05C79.01,-107.86 18.77,-94.4 5,-76 -5.71,-61.69 3.9,-41.96 13.76,-28.01"/>
<polygon fill="midnightblue" stroke="midnightblue" points="16.76,-29.85 20.07,-19.78 11.21,-25.58 16.76,-29.85"/>
</g>
<!-- Node3 -->
<g id="node3" class="node">
<title>Node3</title>
<g id="a_node3"><a xlink:title=" ">
<polygon fill="none" stroke="#bfbfbf" points="78,-0.5 78,-19.5 126,-19.5 126,-0.5 78,-0.5"/>
<text text-anchor="middle" x="102" y="-7.5" font-family="Helvetica,sans-Serif" font-size="10.00">stdint.h</text>
</a>
</g>
</g>
<!-- Node1&#45;&gt;Node3 -->
<g id="edge2" class="edge">
<title>Node1&#45;&gt;Node3</title>
<path fill="none" stroke="midnightblue" d="M196.43,-117.35C248.5,-110.9 331.64,-94.35 301,-56 280.73,-30.63 187.4,-18.52 136.07,-13.69"/>
<polygon fill="midnightblue" stroke="midnightblue" points="136.37,-10.2 126.1,-12.79 135.75,-17.17 136.37,-10.2"/>
</g>
<!-- Node4 -->
<g id="node4" class="node">
<title>Node4</title>
<g id="a_node4"><a xlink:title=" ">
<polygon fill="none" stroke="#bfbfbf" points="134,-56.5 134,-75.5 182,-75.5 182,-56.5 134,-56.5"/>
<text text-anchor="middle" x="158" y="-63.5" font-family="Helvetica,sans-Serif" font-size="10.00">string.h</text>
</a>
</g>
</g>
<!-- Node1&#45;&gt;Node4 -->
<g id="edge3" class="edge">
<title>Node1&#45;&gt;Node4</title>
<path fill="none" stroke="midnightblue" d="M158,-112.08C158,-105.01 158,-94.86 158,-85.99"/>
<polygon fill="midnightblue" stroke="midnightblue" points="161.5,-85.75 158,-75.75 154.5,-85.75 161.5,-85.75"/>
</g>
<!-- Node5 -->
<g id="node5" class="node">
<title>Node5</title>
<g id="a_node5"><a xlink:href="config_8h.html" target="_top" xlink:title="Copyright (c) 2022 Daishi Mori (mori0091)">
<polygon fill="none" stroke="black" points="200.5,-56.5 200.5,-75.5 291.5,-75.5 291.5,-56.5 200.5,-56.5"/>
<text text-anchor="middle" x="246" y="-63.5" font-family="Helvetica,sans-Serif" font-size="10.00">../include/config.h</text>
</a>
</g>
</g>
<!-- Node1&#45;&gt;Node5 -->
<g id="edge4" class="edge">
<title>Node1&#45;&gt;Node5</title>
<path fill="none" stroke="midnightblue" d="M172.14,-112.32C185.87,-103.9 206.94,-90.97 223.06,-81.07"/>
<polygon fill="midnightblue" stroke="midnightblue" points="225.2,-83.87 231.9,-75.65 221.54,-77.9 225.2,-83.87"/>
</g>
<!-- Node6 -->
<g id="node6" class="node">
<title>Node6</title>
<g id="a_node6"><a xlink:href="interrupt_8h.html" target="_top" xlink:title="Copyright (c) 2021 Daishi Mori (mori0091)">
<polygon fill="none" stroke="black" points="14.5,-56.5 14.5,-75.5 115.5,-75.5 115.5,-56.5 14.5,-56.5"/>
<text text-anchor="middle" x="65" y="-63.5" font-family="Helvetica,sans-Serif" font-size="10.00">../include/interrupt.h</text>
</a>
</g>
</g>
<!-- Node1&#45;&gt;Node6 -->
<g id="edge5" class="edge">
<title>Node1&#45;&gt;Node6</title>
<path fill="none" stroke="midnightblue" d="M143.06,-112.32C128.41,-103.82 105.87,-90.73 88.76,-80.8"/>
<polygon fill="midnightblue" stroke="midnightblue" points="90.31,-77.65 79.9,-75.65 86.8,-83.7 90.31,-77.65"/>
</g>
<!-- Node6&#45;&gt;Node2 -->
<g id="edge6" class="edge">
<title>Node6&#45;&gt;Node2</title>
<path fill="none" stroke="midnightblue" d="M58.89,-56.08C53.72,-48.53 46.15,-37.49 39.81,-28.23"/>
<polygon fill="midnightblue" stroke="midnightblue" points="42.54,-26.02 34,-19.75 36.76,-29.98 42.54,-26.02"/>
</g>
<!-- Node6&#45;&gt;Node3 -->
<g id="edge7" class="edge">
<title>Node6&#45;&gt;Node3</title>
<path fill="none" stroke="midnightblue" d="M71.11,-56.08C76.28,-48.53 83.85,-37.49 90.19,-28.23"/>
<polygon fill="midnightblue" stroke="midnightblue" points="93.24,-29.98 96,-19.75 87.46,-26.02 93.24,-29.98"/>
</g>
</g>
</svg>
