<?xml version="1.0" encoding="UTF-8" standalone="no"?>
<!DOCTYPE svg PUBLIC "-//W3C//DTD SVG 1.1//EN"
 "http://www.w3.org/Graphics/SVG/1.1/DTD/svg11.dtd">
<!-- Generated by graphviz version 12.2.0 (20241103.1931)
 -->
<!-- Title: include/interrupt.h Pages: 1 -->
<svg width="128pt" height="83pt"
 viewBox="0.00 0.00 128.25 82.50" xmlns="http://www.w3.org/2000/svg" xmlns:xlink="http://www.w3.org/1999/xlink">
<g id="graph0" class="graph" transform="scale(1 1) rotate(0) translate(4 78.5)">
<title>include/interrupt.h</title>
<!-- Node1 -->
<g id="Node000001" class="node">
<title>Node1</title>
<g id="a_Node000001"><a xlink:title="Interrupts relevant functions and Pluggable interrupts handler interface.">
<polygon fill="#999999" stroke="#666666" points="107.75,-74.5 15.25,-74.5 15.25,-55.25 107.75,-55.25 107.75,-74.5"/>
<text text-anchor="middle" x="61.5" y="-61" font-family="Helvetica,sans-Serif" font-size="10.00">include/interrupt.h</text>
</a>
</g>
</g>
<!-- Node2 -->
<g id="Node000002" class="node">
<title>Node2</title>
<g id="a_Node000002"><a xlink:title=" ">
<polygon fill="#e0e0e0" stroke="#999999" points="55,-19.25 0,-19.25 0,0 55,0 55,-19.25"/>
<text text-anchor="middle" x="27.5" y="-5.75" font-family="Helvetica,sans-Serif" font-size="10.00">stdbool.h</text>
</a>
</g>
</g>
<!-- Node1&#45;&gt;Node2 -->
<g id="edge1_Node000001_Node000002" class="edge">
<title>Node1&#45;&gt;Node2</title>
<g id="a_edge1_Node000001_Node000002"><a xlink:title=" ">
<path fill="none" stroke="#63b8ff" d="M55.89,-55.08C51.38,-48.03 44.91,-37.9 39.29,-29.08"/>
<polygon fill="#63b8ff" stroke="#63b8ff" points="42.38,-27.43 34.05,-20.88 36.48,-31.2 42.38,-27.43"/>
</a>
</g>
</g>
<!-- Node3 -->
<g id="Node000003" class="node">
<title>Node3</title>
<g id="a_Node000003"><a xlink:title=" ">
<polygon fill="#e0e0e0" stroke="#999999" points="120.25,-19.25 72.75,-19.25 72.75,0 120.25,0 120.25,-19.25"/>
<text text-anchor="middle" x="96.5" y="-5.75" font-family="Helvetica,sans-Serif" font-size="10.00">stdint.h</text>
</a>
</g>
</g>
<!-- Node1&#45;&gt;Node3 -->
<g id="edge2_Node000001_Node000003" class="edge">
<title>Node1&#45;&gt;Node3</title>
<g id="a_edge2_Node000001_Node000003"><a xlink:title=" ">
<path fill="none" stroke="#63b8ff" d="M67.28,-55.08C71.91,-48.03 78.57,-37.9 84.37,-29.08"/>
<polygon fill="#63b8ff" stroke="#63b8ff" points="87.2,-31.15 89.76,-20.87 81.35,-27.31 87.2,-31.15"/>
</a>
</g>
</g>
</g>
</svg>
