<?xml version="1.0" encoding="UTF-8" standalone="no"?>
<!DOCTYPE svg PUBLIC "-//W3C//DTD SVG 1.1//EN"
 "http://www.w3.org/Graphics/SVG/1.1/DTD/svg11.dtd">
<!-- Generated by graphviz version 3.0.0 (20221109.1736)
 -->
<!-- Title: include/io.h Pages: 1 -->
<svg width="568pt" height="308pt"
 viewBox="0.00 0.00 568.50 308.00" xmlns="http://www.w3.org/2000/svg" xmlns:xlink="http://www.w3.org/1999/xlink">
<g id="graph0" class="graph" transform="scale(1 1) rotate(0) translate(4 304)">
<title>include/io.h</title>
<!-- Node1 -->
<g id="node1" class="node">
<title>Node1</title>
<g id="a_node1"><a xlink:title="Definition of I/O ports.">
<polygon fill="#bfbfbf" stroke="black" points="165.5,-280.5 165.5,-299.5 230.5,-299.5 230.5,-280.5 165.5,-280.5"/>
<text text-anchor="middle" x="198" y="-287.5" font-family="Helvetica,sans-Serif" font-size="10.00">include/io.h</text>
</a>
</g>
</g>
<!-- Node2 -->
<g id="node2" class="node">
<title>Node2</title>
<g id="a_node2"><a xlink:href="msx_8h.html" target="_top" xlink:title="Using #include &lt;msx.h&gt; includes almost all C header files in libmsx, for ease to use.">
<polygon fill="none" stroke="black" points="285,-0.5 285,-19.5 361,-19.5 361,-0.5 285,-0.5"/>
<text text-anchor="middle" x="323" y="-7.5" font-family="Helvetica,sans-Serif" font-size="10.00">include/msx.h</text>
</a>
</g>
</g>
<!-- Node1&#45;&gt;Node2 -->
<g id="edge1" class="edge">
<title>Node1&#45;&gt;Node2</title>
<path fill="none" stroke="midnightblue" d="M155.27,-284.27C97.06,-275.19 0,-249.48 0,-179 0,-179 0,-179 0,-121 0,-61.39 199.62,-27.52 285,-15.76"/>
<polygon fill="midnightblue" stroke="midnightblue" points="154.9,-287.76 165.3,-285.73 155.91,-280.83 154.9,-287.76"/>
</g>
<!-- Node3 -->
<g id="node3" class="node">
<title>Node3</title>
<g id="a_node3"><a xlink:href="psg_8h.html" target="_top" xlink:title="Device interface for PSG (AY&#45;3&#45;8910) an internal sound chip.">
<polygon fill="none" stroke="black" points="81,-224.5 81,-243.5 155,-243.5 155,-224.5 81,-224.5"/>
<text text-anchor="middle" x="118" y="-231.5" font-family="Helvetica,sans-Serif" font-size="10.00">include/psg.h</text>
</a>
</g>
</g>
<!-- Node1&#45;&gt;Node3 -->
<g id="edge2" class="edge">
<title>Node1&#45;&gt;Node3</title>
<path fill="none" stroke="midnightblue" d="M176.7,-274.62C162.08,-264.76 143.17,-251.99 130.82,-243.65"/>
<polygon fill="midnightblue" stroke="midnightblue" points="174.9,-277.63 185.15,-280.32 178.82,-271.83 174.9,-277.63"/>
</g>
<!-- Node5 -->
<g id="node5" class="node">
<title>Node5</title>
<g id="a_node5"><a xlink:href="vdp_8h.html" target="_top" xlink:title="Data types and functions for VDP (Video Display Proccessor) access.">
<polygon fill="none" stroke="black" points="243,-112.5 243,-131.5 317,-131.5 317,-112.5 243,-112.5"/>
<text text-anchor="middle" x="280" y="-119.5" font-family="Helvetica,sans-Serif" font-size="10.00">include/vdp.h</text>
</a>
</g>
</g>
<!-- Node1&#45;&gt;Node5 -->
<g id="edge5" class="edge">
<title>Node1&#45;&gt;Node5</title>
<path fill="none" stroke="midnightblue" d="M196.65,-270.28C195.73,-245.11 197.33,-199.85 217,-168 227.31,-151.3 246.35,-139.01 260.81,-131.54"/>
<polygon fill="midnightblue" stroke="midnightblue" points="193.15,-270.52 197.19,-280.31 200.14,-270.14 193.15,-270.52"/>
</g>
<!-- Node7 -->
<g id="node7" class="node">
<title>Node7</title>
<g id="a_node7"><a xlink:href="vdp__unsafe_8h.html" target="_top" xlink:title="Unsafe primitive functions for VDP (Video Display Proccessor) access.">
<polygon fill="none" stroke="black" points="226,-168.5 226,-187.5 334,-187.5 334,-168.5 226,-168.5"/>
<text text-anchor="middle" x="280" y="-175.5" font-family="Helvetica,sans-Serif" font-size="10.00">include/vdp_unsafe.h</text>
</a>
</g>
</g>
<!-- Node1&#45;&gt;Node7 -->
<g id="edge9" class="edge">
<title>Node1&#45;&gt;Node7</title>
<path fill="none" stroke="midnightblue" d="M210.47,-272.27C228.2,-248.49 260.03,-205.79 273.6,-187.59"/>
<polygon fill="midnightblue" stroke="midnightblue" points="207.6,-270.26 204.43,-280.37 213.22,-274.44 207.6,-270.26"/>
</g>
<!-- Node8 -->
<g id="node8" class="node">
<title>Node8</title>
<g id="a_node8"><a xlink:href="vmem_8h.html" target="_top" xlink:title="Data types and functions for VRAM access.">
<polygon fill="none" stroke="black" points="357.5,-224.5 357.5,-243.5 442.5,-243.5 442.5,-224.5 357.5,-224.5"/>
<text text-anchor="middle" x="400" y="-231.5" font-family="Helvetica,sans-Serif" font-size="10.00">include/vmem.h</text>
</a>
</g>
</g>
<!-- Node1&#45;&gt;Node8 -->
<g id="edge11" class="edge">
<title>Node1&#45;&gt;Node8</title>
<path fill="none" stroke="midnightblue" d="M239.79,-277.83C277.93,-267.63 333.48,-252.78 368.14,-243.52"/>
<polygon fill="midnightblue" stroke="midnightblue" points="238.76,-274.48 230.01,-280.44 240.57,-281.24 238.76,-274.48"/>
</g>
<!-- Node3&#45;&gt;Node2 -->
<g id="edge4" class="edge">
<title>Node3&#45;&gt;Node2</title>
<path fill="none" stroke="midnightblue" d="M90.31,-219.71C69.11,-207.58 45.32,-188.46 57,-168 107.25,-79.99 228.29,-36.36 288.2,-19.55"/>
<polygon fill="midnightblue" stroke="midnightblue" points="88.66,-222.8 99.12,-224.46 91.98,-216.64 88.66,-222.8"/>
</g>
<!-- Node4 -->
<g id="node4" class="node">
<title>Node4</title>
<g id="a_node4"><a xlink:href="ay__3__8910_8h.html" target="_top" xlink:title="Buffer for PSG (AY&#45;3&#45;8910) registers.">
<polygon fill="none" stroke="black" points="66,-168.5 66,-187.5 170,-187.5 170,-168.5 66,-168.5"/>
<text text-anchor="middle" x="118" y="-175.5" font-family="Helvetica,sans-Serif" font-size="10.00">include/ay_3_8910.h</text>
</a>
</g>
</g>
<!-- Node3&#45;&gt;Node4 -->
<g id="edge3" class="edge">
<title>Node3&#45;&gt;Node4</title>
<path fill="none" stroke="midnightblue" d="M118,-213.8C118,-204.91 118,-194.78 118,-187.75"/>
<polygon fill="midnightblue" stroke="midnightblue" points="114.5,-214.08 118,-224.08 121.5,-214.08 114.5,-214.08"/>
</g>
<!-- Node5&#45;&gt;Node2 -->
<g id="edge8" class="edge">
<title>Node5&#45;&gt;Node2</title>
<path fill="none" stroke="midnightblue" d="M268.44,-103.44C261.12,-89.96 254.36,-71.14 262,-56 270.54,-39.08 288.78,-26.96 303.09,-19.59"/>
<polygon fill="midnightblue" stroke="midnightblue" points="265.54,-105.4 273.67,-112.19 271.55,-101.81 265.54,-105.4"/>
</g>
<!-- Node6 -->
<g id="node6" class="node">
<title>Node6</title>
<g id="a_node6"><a xlink:href="metasprite_8h.html" target="_top" xlink:title="Meta&#45;sprite ; an aggregate of sprites.">
<polygon fill="none" stroke="black" points="271,-56.5 271,-75.5 375,-75.5 375,-56.5 271,-56.5"/>
<text text-anchor="middle" x="323" y="-63.5" font-family="Helvetica,sans-Serif" font-size="10.00">include/metasprite.h</text>
</a>
</g>
</g>
<!-- Node5&#45;&gt;Node6 -->
<g id="edge6" class="edge">
<title>Node5&#45;&gt;Node6</title>
<path fill="none" stroke="midnightblue" d="M293.42,-104.14C300.91,-94.74 309.94,-83.4 316.03,-75.75"/>
<polygon fill="midnightblue" stroke="midnightblue" points="290.59,-102.08 287.1,-112.08 296.07,-106.44 290.59,-102.08"/>
</g>
<!-- Node6&#45;&gt;Node2 -->
<g id="edge7" class="edge">
<title>Node6&#45;&gt;Node2</title>
<path fill="none" stroke="midnightblue" d="M323,-45.8C323,-36.91 323,-26.78 323,-19.75"/>
<polygon fill="midnightblue" stroke="midnightblue" points="319.5,-46.08 323,-56.08 326.5,-46.08 319.5,-46.08"/>
</g>
<!-- Node7&#45;&gt;Node5 -->
<g id="edge10" class="edge">
<title>Node7&#45;&gt;Node5</title>
<path fill="none" stroke="midnightblue" d="M280,-157.8C280,-148.91 280,-138.78 280,-131.75"/>
<polygon fill="midnightblue" stroke="midnightblue" points="276.5,-158.08 280,-168.08 283.5,-158.08 276.5,-158.08"/>
</g>
<!-- Node8&#45;&gt;Node2 -->
<g id="edge13" class="edge">
<title>Node8&#45;&gt;Node2</title>
<path fill="none" stroke="midnightblue" d="M426.61,-219.56C481.57,-190.1 598.43,-117.51 548,-56 524.83,-27.73 419.27,-16.87 361.34,-12.98"/>
<polygon fill="midnightblue" stroke="midnightblue" points="424.65,-216.64 417.43,-224.39 427.91,-222.83 424.65,-216.64"/>
</g>
<!-- Node8&#45;&gt;Node5 -->
<g id="edge20" class="edge">
<title>Node8&#45;&gt;Node5</title>
<path fill="none" stroke="midnightblue" d="M387.21,-216.37C376.24,-202.64 359.61,-183.04 343,-168 327.35,-153.84 307.2,-140.12 293.96,-131.63"/>
<polygon fill="midnightblue" stroke="midnightblue" points="384.61,-218.74 393.54,-224.44 390.12,-214.41 384.61,-218.74"/>
</g>
<!-- Node8&#45;&gt;Node6 -->
<g id="edge12" class="edge">
<title>Node8&#45;&gt;Node6</title>
<path fill="none" stroke="midnightblue" d="M391.58,-214.86C375.07,-179.25 338.98,-101.45 326.97,-75.57"/>
<polygon fill="midnightblue" stroke="midnightblue" points="388.48,-216.48 395.86,-224.08 394.83,-213.53 388.48,-216.48"/>
</g>
<!-- Node8&#45;&gt;Node7 -->
<g id="edge21" class="edge">
<title>Node8&#45;&gt;Node7</title>
<path fill="none" stroke="midnightblue" d="M371.63,-220.23C349.18,-210.13 318.46,-196.31 298.93,-187.52"/>
<polygon fill="midnightblue" stroke="midnightblue" points="370.43,-223.53 380.99,-224.44 373.3,-217.15 370.43,-223.53"/>
</g>
<!-- Node9 -->
<g id="node9" class="node">
<title>Node9</title>
<g id="a_node9"><a xlink:href="sprite_8h.html" target="_top" xlink:title="Sprites.">
<polygon fill="none" stroke="black" points="397,-112.5 397,-131.5 479,-131.5 479,-112.5 397,-112.5"/>
<text text-anchor="middle" x="438" y="-119.5" font-family="Helvetica,sans-Serif" font-size="10.00">include/sprite.h</text>
</a>
</g>
</g>
<!-- Node8&#45;&gt;Node9 -->
<g id="edge14" class="edge">
<title>Node8&#45;&gt;Node9</title>
<path fill="none" stroke="midnightblue" d="M406.33,-214.67C414.64,-190.62 428.88,-149.39 435.03,-131.59"/>
<polygon fill="midnightblue" stroke="midnightblue" points="402.94,-213.77 402.98,-224.37 409.56,-216.06 402.94,-213.77"/>
</g>
<!-- Node10 -->
<g id="node10" class="node">
<title>Node10</title>
<g id="a_node10"><a xlink:href="sprite__color_8h.html" target="_top" xlink:title="Sprite color table interface.">
<polygon fill="none" stroke="black" points="431,-56.5 431,-75.5 539,-75.5 539,-56.5 431,-56.5"/>
<text text-anchor="middle" x="485" y="-63.5" font-family="Helvetica,sans-Serif" font-size="10.00">include/sprite_color.h</text>
</a>
</g>
</g>
<!-- Node8&#45;&gt;Node10 -->
<g id="edge19" class="edge">
<title>Node8&#45;&gt;Node10</title>
<path fill="none" stroke="midnightblue" d="M419.63,-218.01C441.14,-200.21 474.39,-168.34 488,-132 495.13,-112.96 490.75,-88.56 487.52,-75.75"/>
<polygon fill="midnightblue" stroke="midnightblue" points="417.37,-215.34 411.76,-224.33 421.75,-220.79 417.37,-215.34"/>
</g>
<!-- Node9&#45;&gt;Node2 -->
<g id="edge16" class="edge">
<title>Node9&#45;&gt;Node2</title>
<path fill="none" stroke="midnightblue" d="M425.98,-104.37C415.64,-90.64 399.93,-71.04 384,-56 369.07,-41.91 349.69,-28.28 336.82,-19.78"/>
<polygon fill="midnightblue" stroke="midnightblue" points="423.18,-106.48 431.94,-112.44 428.81,-102.32 423.18,-106.48"/>
</g>
<!-- Node9&#45;&gt;Node6 -->
<g id="edge15" class="edge">
<title>Node9&#45;&gt;Node6</title>
<path fill="none" stroke="midnightblue" d="M410.52,-108.1C389.03,-98.01 359.78,-84.27 341.14,-75.52"/>
<polygon fill="midnightblue" stroke="midnightblue" points="409.24,-111.36 419.78,-112.44 412.21,-105.02 409.24,-111.36"/>
</g>
<!-- Node9&#45;&gt;Node10 -->
<g id="edge17" class="edge">
<title>Node9&#45;&gt;Node10</title>
<path fill="none" stroke="midnightblue" d="M452.42,-104.43C460.66,-94.97 470.65,-83.48 477.38,-75.75"/>
<polygon fill="midnightblue" stroke="midnightblue" points="449.69,-102.24 445.76,-112.08 454.97,-106.84 449.69,-102.24"/>
</g>
<!-- Node10&#45;&gt;Node2 -->
<g id="edge18" class="edge">
<title>Node10&#45;&gt;Node2</title>
<path fill="none" stroke="midnightblue" d="M449.52,-53.17C419.01,-43 375.76,-28.59 348.55,-19.52"/>
<polygon fill="midnightblue" stroke="midnightblue" points="448.74,-56.6 459.33,-56.44 450.95,-49.96 448.74,-56.6"/>
</g>
</g>
</svg>
