<?xml version="1.0" encoding="UTF-8" standalone="no"?>
<!DOCTYPE svg PUBLIC "-//W3C//DTD SVG 1.1//EN"
 "http://www.w3.org/Graphics/SVG/1.1/DTD/svg11.dtd">
<!-- Generated by graphviz version 12.2.0 (20241103.1931)
 -->
<!-- Title: include/io.h Pages: 1 -->
<svg width="1262pt" height="304pt"
 viewBox="0.00 0.00 1262.00 303.50" xmlns="http://www.w3.org/2000/svg" xmlns:xlink="http://www.w3.org/1999/xlink">
<g id="graph0" class="graph" transform="scale(1 1) rotate(0) translate(4 299.5)">
<title>include/io.h</title>
<!-- Node1 -->
<g id="Node000001" class="node">
<title>Node1</title>
<g id="a_Node000001"><a xlink:title="Definition of I/O ports.">
<polygon fill="#999999" stroke="#666666" points="230.38,-295.5 165.62,-295.5 165.62,-276.25 230.38,-276.25 230.38,-295.5"/>
<text text-anchor="middle" x="198" y="-282" font-family="Helvetica,sans-Serif" font-size="10.00">include/io.h</text>
</a>
</g>
</g>
<!-- Node2 -->
<g id="Node000002" class="node">
<title>Node2</title>
<g id="a_Node000002"><a xlink:href="msx_8h.html" target="_top" xlink:title="Using #include &lt;msx.h&gt; includes almost all C header files in libmsx, for ease to use.">
<polygon fill="white" stroke="#666666" points="368.62,-19.25 293.38,-19.25 293.38,0 368.62,0 368.62,-19.25"/>
<text text-anchor="middle" x="331" y="-5.75" font-family="Helvetica,sans-Serif" font-size="10.00">include/msx.h</text>
</a>
</g>
</g>
<!-- Node1&#45;&gt;Node2 -->
<g id="edge1_Node000001_Node000002" class="edge">
<title>Node1&#45;&gt;Node2</title>
<g id="a_edge1_Node000001_Node000002"><a xlink:title=" ">
<path fill="none" stroke="#63b8ff" d="M154.18,-280.25C95.86,-271.38 0,-246.2 0,-176.38 0,-176.38 0,-176.38 0,-119.12 0,-58.05 206.09,-25.8 293.03,-14.92"/>
<polygon fill="#63b8ff" stroke="#63b8ff" points="153.42,-283.67 163.81,-281.6 154.39,-276.74 153.42,-283.67"/>
</a>
</g>
</g>
<!-- Node3 -->
<g id="Node000003" class="node">
<title>Node3</title>
<g id="a_Node000003"><a xlink:href="psg_8h.html" target="_top" xlink:title="Device interface for PSG (AY&#45;3&#45;8910) an internal sound chip.">
<polygon fill="white" stroke="#666666" points="169.5,-240.25 96.5,-240.25 96.5,-221 169.5,-221 169.5,-240.25"/>
<text text-anchor="middle" x="133" y="-226.75" font-family="Helvetica,sans-Serif" font-size="10.00">include/psg.h</text>
</a>
</g>
</g>
<!-- Node1&#45;&gt;Node3 -->
<g id="edge2_Node000001_Node000003" class="edge">
<title>Node1&#45;&gt;Node3</title>
<g id="a_edge2_Node000001_Node000003"><a xlink:title=" ">
<path fill="none" stroke="#63b8ff" d="M178.21,-268.66C166.92,-259.42 153.21,-248.18 143.86,-240.52"/>
<polygon fill="#63b8ff" stroke="#63b8ff" points="175.85,-271.25 185.8,-274.88 180.29,-265.84 175.85,-271.25"/>
</a>
</g>
</g>
<!-- Node5 -->
<g id="Node000005" class="node">
<title>Node5</title>
<g id="a_Node000005"><a xlink:href="vdp_8h.html" target="_top" xlink:title="Data types and functions for VDP (Video Display Proccessor) access.">
<polygon fill="white" stroke="#666666" points="306.5,-129.75 233.5,-129.75 233.5,-110.5 306.5,-110.5 306.5,-129.75"/>
<text text-anchor="middle" x="270" y="-116.25" font-family="Helvetica,sans-Serif" font-size="10.00">include/vdp.h</text>
</a>
</g>
</g>
<!-- Node1&#45;&gt;Node5 -->
<g id="edge5_Node000001_Node000005" class="edge">
<title>Node1&#45;&gt;Node5</title>
<g id="a_edge5_Node000001_Node000005"><a xlink:title=" ">
<path fill="none" stroke="#63b8ff" d="M197.06,-264.58C196.81,-239.69 199.36,-196.95 217,-165.75 225.76,-150.25 242.11,-137.76 254.34,-129.98"/>
<polygon fill="#63b8ff" stroke="#63b8ff" points="193.56,-264.41 197.34,-274.3 200.56,-264.21 193.56,-264.41"/>
</a>
</g>
</g>
<!-- Node7 -->
<g id="Node000007" class="node">
<title>Node7</title>
<g id="a_Node000007"><a xlink:href="vdp__unsafe_8h.html" target="_top" xlink:title="Unsafe primitive functions for VDP (Video Display Proccessor) access.">
<polygon fill="white" stroke="#666666" points="333.75,-185 226.25,-185 226.25,-165.75 333.75,-165.75 333.75,-185"/>
<text text-anchor="middle" x="280" y="-171.5" font-family="Helvetica,sans-Serif" font-size="10.00">include/vdp_unsafe.h</text>
</a>
</g>
</g>
<!-- Node1&#45;&gt;Node7 -->
<g id="edge9_Node000001_Node000007" class="edge">
<title>Node1&#45;&gt;Node7</title>
<g id="a_edge9_Node000001_Node000007"><a xlink:title=" ">
<path fill="none" stroke="#63b8ff" d="M211.43,-267.1C229.15,-243.66 259.66,-203.28 273.2,-185.38"/>
<polygon fill="#63b8ff" stroke="#63b8ff" points="208.86,-264.7 205.62,-274.79 214.44,-268.92 208.86,-264.7"/>
</a>
</g>
</g>
<!-- Node8 -->
<g id="Node000008" class="node">
<title>Node8</title>
<g id="a_Node000008"><a xlink:href="vmem_8h.html" target="_top" xlink:title="Data types and functions for VRAM access.">
<polygon fill="white" stroke="#666666" points="580.12,-240.25 495.88,-240.25 495.88,-221 580.12,-221 580.12,-240.25"/>
<text text-anchor="middle" x="538" y="-226.75" font-family="Helvetica,sans-Serif" font-size="10.00">include/vmem.h</text>
</a>
</g>
</g>
<!-- Node1&#45;&gt;Node8 -->
<g id="edge11_Node000001_Node000008" class="edge">
<title>Node1&#45;&gt;Node8</title>
<g id="a_edge11_Node000001_Node000008"><a xlink:title=" ">
<path fill="none" stroke="#63b8ff" d="M241.78,-278.02C307.43,-267.74 430.58,-248.45 495.49,-238.28"/>
<polygon fill="#63b8ff" stroke="#63b8ff" points="241.43,-274.53 232.1,-279.53 242.52,-281.45 241.43,-274.53"/>
</a>
</g>
</g>
<!-- Node3&#45;&gt;Node2 -->
<g id="edge4_Node000003_Node000002" class="edge">
<title>Node3&#45;&gt;Node2</title>
<g id="a_edge4_Node000003_Node000002"><a xlink:title=" ">
<path fill="none" stroke="#63b8ff" d="M143.75,-210.85C163.82,-176.91 209.71,-104.35 262,-55.25 277.6,-40.6 298.61,-27.8 313.33,-19.71"/>
<polygon fill="#63b8ff" stroke="#63b8ff" points="140.74,-209.07 138.73,-219.48 146.78,-212.6 140.74,-209.07"/>
</a>
</g>
</g>
<!-- Node4 -->
<g id="Node000004" class="node">
<title>Node4</title>
<g id="a_Node000004"><a xlink:href="ay__3__8910_8h.html" target="_top" xlink:title="Buffer for PSG (AY&#45;3&#45;8910) registers.">
<polygon fill="white" stroke="#666666" points="131.88,-185 28.12,-185 28.12,-165.75 131.88,-165.75 131.88,-185"/>
<text text-anchor="middle" x="80" y="-171.5" font-family="Helvetica,sans-Serif" font-size="10.00">include/ay_3_8910.h</text>
</a>
</g>
</g>
<!-- Node3&#45;&gt;Node4 -->
<g id="edge3_Node000003_Node000004" class="edge">
<title>Node3&#45;&gt;Node4</title>
<g id="a_edge3_Node000003_Node000004"><a xlink:title=" ">
<path fill="none" stroke="#63b8ff" d="M116.28,-212.82C107.22,-203.73 96.4,-192.85 88.94,-185.36"/>
<polygon fill="#63b8ff" stroke="#63b8ff" points="113.65,-215.14 123.18,-219.76 118.61,-210.2 113.65,-215.14"/>
</a>
</g>
</g>
<!-- Node5&#45;&gt;Node2 -->
<g id="edge8_Node000005_Node000002" class="edge">
<title>Node5&#45;&gt;Node2</title>
<g id="a_edge8_Node000005_Node000002"><a xlink:title=" ">
<path fill="none" stroke="#63b8ff" d="M265.93,-99.14C264.27,-85.97 264.1,-68.71 271,-55.25 279.35,-38.96 296.7,-27.08 310.61,-19.69"/>
<polygon fill="#63b8ff" stroke="#63b8ff" points="262.45,-99.5 267.55,-108.78 269.35,-98.34 262.45,-99.5"/>
</a>
</g>
</g>
<!-- Node6 -->
<g id="Node000006" class="node">
<title>Node6</title>
<g id="a_Node000006"><a xlink:href="metasprite_8h.html" target="_top" xlink:title="Meta&#45;sprite ; an aggregate of sprites.">
<polygon fill="white" stroke="#666666" points="382.5,-74.5 279.5,-74.5 279.5,-55.25 382.5,-55.25 382.5,-74.5"/>
<text text-anchor="middle" x="331" y="-61" font-family="Helvetica,sans-Serif" font-size="10.00">include/metasprite.h</text>
</a>
</g>
</g>
<!-- Node5&#45;&gt;Node6 -->
<g id="edge6_Node000005_Node000006" class="edge">
<title>Node5&#45;&gt;Node6</title>
<g id="a_edge6_Node000005_Node000006"><a xlink:title=" ">
<path fill="none" stroke="#63b8ff" d="M288.89,-102.64C299.42,-93.44 312.12,-82.35 320.81,-74.77"/>
<polygon fill="#63b8ff" stroke="#63b8ff" points="286.72,-99.88 281.49,-109.1 291.32,-105.16 286.72,-99.88"/>
</a>
</g>
</g>
<!-- Node6&#45;&gt;Node2 -->
<g id="edge7_Node000006_Node000002" class="edge">
<title>Node6&#45;&gt;Node2</title>
<g id="a_edge7_Node000006_Node000002"><a xlink:title=" ">
<path fill="none" stroke="#63b8ff" d="M331,-43.63C331,-35.34 331,-26.17 331,-19.61"/>
<polygon fill="#63b8ff" stroke="#63b8ff" points="327.5,-43.57 331,-53.57 334.5,-43.57 327.5,-43.57"/>
</a>
</g>
</g>
<!-- Node7&#45;&gt;Node5 -->
<g id="edge10_Node000007_Node000005" class="edge">
<title>Node7&#45;&gt;Node5</title>
<g id="a_edge10_Node000007_Node000005"><a xlink:title=" ">
<path fill="none" stroke="#63b8ff" d="M276.25,-154.42C274.68,-146.05 272.93,-136.75 271.69,-130.11"/>
<polygon fill="#63b8ff" stroke="#63b8ff" points="272.78,-154.91 278.07,-164.09 279.66,-153.62 272.78,-154.91"/>
</a>
</g>
</g>
<!-- Node8&#45;&gt;Node2 -->
<g id="edge22_Node000008_Node000002" class="edge">
<title>Node8&#45;&gt;Node2</title>
<g id="a_edge22_Node000008_Node000002"><a xlink:title=" ">
<path fill="none" stroke="#63b8ff" d="M553.36,-212.07C581.24,-178.05 633.76,-102.32 594,-55.25 565.65,-21.68 434.84,-13.36 369.03,-11.3"/>
<polygon fill="#63b8ff" stroke="#63b8ff" points="551,-209.45 547.22,-219.35 556.35,-213.96 551,-209.45"/>
</a>
</g>
</g>
<!-- Node8&#45;&gt;Node5 -->
<g id="edge34_Node000008_Node000005" class="edge">
<title>Node8&#45;&gt;Node5</title>
<g id="a_edge34_Node000008_Node000005"><a xlink:title=" ">
<path fill="none" stroke="#63b8ff" d="M487.39,-217.72C457.37,-209.94 418.87,-198.68 386,-185 347.58,-169.01 305.5,-143.7 284.14,-130.24"/>
<polygon fill="#63b8ff" stroke="#63b8ff" points="486.44,-221.09 496.99,-220.16 488.16,-214.31 486.44,-221.09"/>
</a>
</g>
</g>
<!-- Node8&#45;&gt;Node6 -->
<g id="edge21_Node000008_Node000006" class="edge">
<title>Node8&#45;&gt;Node6</title>
<g id="a_edge21_Node000008_Node000006"><a xlink:title=" ">
<path fill="none" stroke="#63b8ff" d="M488.71,-217.31C466.15,-210.18 439.87,-199.66 419,-185 376.08,-154.85 345.68,-97.11 335.1,-74.89"/>
<polygon fill="#63b8ff" stroke="#63b8ff" points="487.41,-220.57 497.99,-220.1 489.42,-213.87 487.41,-220.57"/>
</a>
</g>
</g>
<!-- Node8&#45;&gt;Node7 -->
<g id="edge35_Node000008_Node000007" class="edge">
<title>Node8&#45;&gt;Node7</title>
<g id="a_edge35_Node000008_Node000007"><a xlink:title=" ">
<path fill="none" stroke="#63b8ff" d="M484.4,-218.56C436.88,-208.75 368.32,-194.6 323.96,-185.45"/>
<polygon fill="#63b8ff" stroke="#63b8ff" points="483.41,-221.93 493.91,-220.53 484.83,-215.08 483.41,-221.93"/>
</a>
</g>
</g>
<!-- Node9 -->
<g id="Node000009" class="node">
<title>Node9</title>
<g id="a_Node000009"><a xlink:href="ZX0__decompress_8h.html" target="_top" xlink:title="Decompressor of the ZX0 data compression format version 2.">
<polygon fill="white" stroke="#666666" points="910.88,-129.75 777.12,-129.75 777.12,-110.5 910.88,-110.5 910.88,-129.75"/>
<text text-anchor="middle" x="844" y="-116.25" font-family="Helvetica,sans-Serif" font-size="10.00">include/ZX0_decompress.h</text>
</a>
</g>
</g>
<!-- Node8&#45;&gt;Node9 -->
<g id="edge12_Node000008_Node000009" class="edge">
<title>Node8&#45;&gt;Node9</title>
<g id="a_edge12_Node000008_Node000009"><a xlink:title=" ">
<path fill="none" stroke="#63b8ff" d="M591.72,-227.97C665.01,-224.62 791.11,-214.6 825,-185 841.03,-171 843.83,-144.12 844.14,-130.12"/>
<polygon fill="#63b8ff" stroke="#63b8ff" points="591.79,-224.46 581.95,-228.39 592.09,-231.46 591.79,-224.46"/>
</a>
</g>
</g>
<!-- Node10 -->
<g id="Node000010" class="node">
<title>Node10</title>
<g id="a_Node000010"><a xlink:href="bmem_8h.html" target="_top" xlink:title="Data types and functions for accessing banked memory.">
<polygon fill="white" stroke="#666666" points="1020.12,-185 935.88,-185 935.88,-165.75 1020.12,-165.75 1020.12,-185"/>
<text text-anchor="middle" x="978" y="-171.5" font-family="Helvetica,sans-Serif" font-size="10.00">include/bmem.h</text>
</a>
</g>
</g>
<!-- Node8&#45;&gt;Node10 -->
<g id="edge13_Node000008_Node000010" class="edge">
<title>Node8&#45;&gt;Node10</title>
<g id="a_edge13_Node000008_Node000010"><a xlink:title=" ">
<path fill="none" stroke="#63b8ff" d="M591.98,-223.09C680.54,-212.37 854.87,-191.28 935.39,-181.53"/>
<polygon fill="#63b8ff" stroke="#63b8ff" points="591.6,-219.61 582.09,-224.29 592.44,-226.56 591.6,-219.61"/>
</a>
</g>
</g>
<!-- Node17 -->
<g id="Node000017" class="node">
<title>Node17</title>
<g id="a_Node000017"><a xlink:href="sm2__cfg_8h.html" target="_top" xlink:title="SM2 (Sprite Mode 2) Runtime configuration.">
<polygon fill="white" stroke="#666666" points="698.38,-185 603.62,-185 603.62,-165.75 698.38,-165.75 698.38,-185"/>
<text text-anchor="middle" x="651" y="-171.5" font-family="Helvetica,sans-Serif" font-size="10.00">include/sm2_cfg.h</text>
</a>
</g>
</g>
<!-- Node8&#45;&gt;Node17 -->
<g id="edge23_Node000008_Node000017" class="edge">
<title>Node8&#45;&gt;Node17</title>
<g id="a_edge23_Node000008_Node000017"><a xlink:title=" ">
<path fill="none" stroke="#63b8ff" d="M567.43,-215.76C587.71,-206.2 614.09,-193.77 631.74,-185.45"/>
<polygon fill="#63b8ff" stroke="#63b8ff" points="566.09,-212.52 558.54,-219.95 569.08,-218.85 566.09,-212.52"/>
</a>
</g>
</g>
<!-- Node20 -->
<g id="Node000020" class="node">
<title>Node20</title>
<g id="a_Node000020"><a xlink:href="sprite_8h.html" target="_top" xlink:title="Sprites.">
<polygon fill="white" stroke="#666666" points="509.62,-185 428.38,-185 428.38,-165.75 509.62,-165.75 509.62,-185"/>
<text text-anchor="middle" x="469" y="-171.5" font-family="Helvetica,sans-Serif" font-size="10.00">include/sprite.h</text>
</a>
</g>
</g>
<!-- Node8&#45;&gt;Node20 -->
<g id="edge26_Node000008_Node000020" class="edge">
<title>Node8&#45;&gt;Node20</title>
<g id="a_edge26_Node000008_Node000020"><a xlink:title=" ">
<path fill="none" stroke="#63b8ff" d="M517.35,-213.69C505.3,-204.39 490.55,-193.01 480.53,-185.27"/>
<polygon fill="#63b8ff" stroke="#63b8ff" points="515.04,-216.33 525.1,-219.67 519.32,-210.79 515.04,-216.33"/>
</a>
</g>
</g>
<!-- Node21 -->
<g id="Node000021" class="node">
<title>Node21</title>
<g id="a_Node000021"><a xlink:href="sprite__color_8h.html" target="_top" xlink:title="Sprite color table interface.">
<polygon fill="white" stroke="#666666" points="546.75,-129.75 439.25,-129.75 439.25,-110.5 546.75,-110.5 546.75,-129.75"/>
<text text-anchor="middle" x="493" y="-116.25" font-family="Helvetica,sans-Serif" font-size="10.00">include/sprite_color.h</text>
</a>
</g>
</g>
<!-- Node8&#45;&gt;Node21 -->
<g id="edge33_Node000008_Node000021" class="edge">
<title>Node8&#45;&gt;Node21</title>
<g id="a_edge33_Node000008_Node000021"><a xlink:title=" ">
<path fill="none" stroke="#63b8ff" d="M533.43,-209.88C530.14,-197.04 525.2,-180.07 519,-165.75 513.37,-152.75 504.79,-138.8 499.04,-130.02"/>
<polygon fill="#63b8ff" stroke="#63b8ff" points="529.94,-210.35 535.7,-219.24 536.74,-208.7 529.94,-210.35"/>
</a>
</g>
</g>
<!-- Node22 -->
<g id="Node000022" class="node">
<title>Node22</title>
<g id="a_Node000022"><a xlink:href="vmem__rw_8h.html" target="_top" xlink:title="Stream like access functions for VRAM.">
<polygon fill="white" stroke="#666666" points="816,-185 716,-185 716,-165.75 816,-165.75 816,-185"/>
<text text-anchor="middle" x="766" y="-171.5" font-family="Helvetica,sans-Serif" font-size="10.00">include/vmem_rw.h</text>
</a>
</g>
</g>
<!-- Node8&#45;&gt;Node22 -->
<g id="edge36_Node000008_Node000022" class="edge">
<title>Node8&#45;&gt;Node22</title>
<g id="a_edge36_Node000008_Node000022"><a xlink:title=" ">
<path fill="none" stroke="#63b8ff" d="M588,-217.95C629.89,-208.16 688.84,-194.4 727.23,-185.43"/>
<polygon fill="#63b8ff" stroke="#63b8ff" points="587.35,-214.5 578.41,-220.19 588.94,-221.32 587.35,-214.5"/>
</a>
</g>
</g>
<!-- Node10&#45;&gt;Node9 -->
<g id="edge14_Node000010_Node000009" class="edge">
<title>Node10&#45;&gt;Node9</title>
<g id="a_edge14_Node000010_Node000009"><a xlink:title=" ">
<path fill="none" stroke="#63b8ff" d="M944.75,-161.16C920.5,-151.52 888.25,-138.71 866.84,-130.2"/>
<polygon fill="#63b8ff" stroke="#63b8ff" points="943.28,-164.34 953.86,-164.78 945.86,-157.84 943.28,-164.34"/>
</a>
</g>
</g>
<!-- Node11 -->
<g id="Node000011" class="node">
<title>Node11</title>
<g id="a_Node000011"><a xlink:href="bmem__rd_8h.html" target="_top" xlink:title="Stream like access functions for Banked Memory.">
<polygon fill="white" stroke="#666666" points="1026.88,-129.75 929.12,-129.75 929.12,-110.5 1026.88,-110.5 1026.88,-129.75"/>
<text text-anchor="middle" x="978" y="-116.25" font-family="Helvetica,sans-Serif" font-size="10.00">include/bmem_rd.h</text>
</a>
</g>
</g>
<!-- Node10&#45;&gt;Node11 -->
<g id="edge15_Node000010_Node000011" class="edge">
<title>Node10&#45;&gt;Node11</title>
<g id="a_edge15_Node000010_Node000011"><a xlink:title=" ">
<path fill="none" stroke="#63b8ff" d="M978,-154.13C978,-145.84 978,-136.67 978,-130.11"/>
<polygon fill="#63b8ff" stroke="#63b8ff" points="974.5,-154.07 978,-164.07 981.5,-154.07 974.5,-154.07"/>
</a>
</g>
</g>
<!-- Node13 -->
<g id="Node000013" class="node">
<title>Node13</title>
<g id="a_Node000013"><a xlink:href="memfile_8h.html" target="_top" xlink:title="Stream interface for ROM / RAM / MegaROM.">
<polygon fill="white" stroke="#666666" points="1135.5,-129.75 1044.5,-129.75 1044.5,-110.5 1135.5,-110.5 1135.5,-129.75"/>
<text text-anchor="middle" x="1090" y="-116.25" font-family="Helvetica,sans-Serif" font-size="10.00">include/memfile.h</text>
</a>
</g>
</g>
<!-- Node10&#45;&gt;Node13 -->
<g id="edge17_Node000010_Node000013" class="edge">
<title>Node10&#45;&gt;Node13</title>
<g id="a_edge17_Node000010_Node000013"><a xlink:title=" ">
<path fill="none" stroke="#63b8ff" d="M1007.17,-160.51C1027.27,-150.95 1053.42,-138.52 1070.91,-130.2"/>
<polygon fill="#63b8ff" stroke="#63b8ff" points="1005.89,-157.24 998.37,-164.69 1008.9,-163.56 1005.89,-157.24"/>
</a>
</g>
</g>
<!-- Node16 -->
<g id="Node000016" class="node">
<title>Node16</title>
<g id="a_Node000016"><a xlink:href="resources_8h.html" target="_top" xlink:title="Data types and functions for accessing embedded resources.">
<polygon fill="white" stroke="#666666" points="1254,-129.75 1154,-129.75 1154,-110.5 1254,-110.5 1254,-129.75"/>
<text text-anchor="middle" x="1204" y="-116.25" font-family="Helvetica,sans-Serif" font-size="10.00">include/resources.h</text>
</a>
</g>
</g>
<!-- Node10&#45;&gt;Node16 -->
<g id="edge20_Node000010_Node000016" class="edge">
<title>Node10&#45;&gt;Node16</title>
<g id="a_edge20_Node000010_Node000016"><a xlink:title=" ">
<path fill="none" stroke="#63b8ff" d="M1027.56,-162.7C1069.08,-152.91 1127.51,-139.15 1165.57,-130.18"/>
<polygon fill="#63b8ff" stroke="#63b8ff" points="1027,-159.23 1018.07,-164.93 1028.6,-166.05 1027,-159.23"/>
</a>
</g>
</g>
<!-- Node12 -->
<g id="Node000012" class="node">
<title>Node12</title>
<g id="a_Node000012"><a xlink:href="xmem_8h.html" target="_top" xlink:title="Inter&#45;memory transfer functions for ROM / RAM, VRAM, and Banked Memory (MegaROM).">
<polygon fill="white" stroke="#666666" points="861.75,-74.5 778.25,-74.5 778.25,-55.25 861.75,-55.25 861.75,-74.5"/>
<text text-anchor="middle" x="820" y="-61" font-family="Helvetica,sans-Serif" font-size="10.00">include/xmem.h</text>
</a>
</g>
</g>
<!-- Node11&#45;&gt;Node12 -->
<g id="edge16_Node000011_Node000012" class="edge">
<title>Node11&#45;&gt;Node12</title>
<g id="a_edge16_Node000011_Node000012"><a xlink:title=" ">
<path fill="none" stroke="#63b8ff" d="M940.34,-106.43C911.57,-96.74 872.63,-83.61 846.93,-74.95"/>
<polygon fill="#63b8ff" stroke="#63b8ff" points="939.17,-109.73 949.76,-109.61 941.4,-103.1 939.17,-109.73"/>
</a>
</g>
</g>
<!-- Node14 -->
<g id="Node000014" class="node">
<title>Node14</title>
<g id="a_Node000014"><a xlink:href="audio__buf_8h.html" target="_top" xlink:title="Unified sound&#45;chip buffer of the libmsx audio replayer.">
<polygon fill="white" stroke="#666666" points="1190.62,-74.5 1091.38,-74.5 1091.38,-55.25 1190.62,-55.25 1190.62,-74.5"/>
<text text-anchor="middle" x="1141" y="-61" font-family="Helvetica,sans-Serif" font-size="10.00">include/audio_buf.h</text>
</a>
</g>
</g>
<!-- Node13&#45;&gt;Node14 -->
<g id="edge18_Node000013_Node000014" class="edge">
<title>Node13&#45;&gt;Node14</title>
<g id="a_edge18_Node000013_Node000014"><a xlink:title=" ">
<path fill="none" stroke="#63b8ff" d="M1106.36,-102.04C1115.02,-93 1125.3,-82.27 1132.4,-74.86"/>
<polygon fill="#63b8ff" stroke="#63b8ff" points="1103.86,-99.6 1099.47,-109.24 1108.91,-104.44 1103.86,-99.6"/>
</a>
</g>
</g>
<!-- Node15 -->
<g id="Node000015" class="node">
<title>Node15</title>
<g id="a_Node000015"><a xlink:href="la0_8h.html" target="_top" xlink:title="The libmsx audio format 0 (LA0) decoder.">
<polygon fill="white" stroke="#666666" points="1073,-74.5 1003,-74.5 1003,-55.25 1073,-55.25 1073,-74.5"/>
<text text-anchor="middle" x="1038" y="-61" font-family="Helvetica,sans-Serif" font-size="10.00">include/la0.h</text>
</a>
</g>
</g>
<!-- Node13&#45;&gt;Node15 -->
<g id="edge19_Node000013_Node000015" class="edge">
<title>Node13&#45;&gt;Node15</title>
<g id="a_edge19_Node000013_Node000015"><a xlink:title=" ">
<path fill="none" stroke="#63b8ff" d="M1073.59,-102.32C1064.71,-93.23 1054.09,-82.35 1046.77,-74.86"/>
<polygon fill="#63b8ff" stroke="#63b8ff" points="1070.87,-104.54 1080.36,-109.25 1075.87,-99.65 1070.87,-104.54"/>
</a>
</g>
</g>
<!-- Node18 -->
<g id="Node000018" class="node">
<title>Node18</title>
<g id="a_Node000018"><a xlink:href="sm2_8h.html" target="_top" xlink:title="SM2 (Sprite Mode 2) Animated Color Sprites.">
<polygon fill="white" stroke="#666666" points="585,-74.5 509,-74.5 509,-55.25 585,-55.25 585,-74.5"/>
<text text-anchor="middle" x="547" y="-61" font-family="Helvetica,sans-Serif" font-size="10.00">include/sm2.h</text>
</a>
</g>
</g>
<!-- Node17&#45;&gt;Node18 -->
<g id="edge24_Node000017_Node000018" class="edge">
<title>Node17&#45;&gt;Node18</title>
<g id="a_edge24_Node000017_Node000018"><a xlink:title=" ">
<path fill="none" stroke="#63b8ff" d="M634.56,-157.22C612.18,-133.88 572.94,-92.94 555.63,-74.88"/>
<polygon fill="#63b8ff" stroke="#63b8ff" points="632,-159.61 641.44,-164.4 637.05,-154.76 632,-159.61"/>
</a>
</g>
</g>
<!-- Node19 -->
<g id="Node000019" class="node">
<title>Node19</title>
<g id="a_Node000019"><a xlink:href="sm2__bmem_8h.html" target="_top" xlink:title="SM2 (Sprite Mode 2) internal APIs for BMEM / Resources.">
<polygon fill="white" stroke="#666666" points="601.12,-19.25 492.88,-19.25 492.88,0 601.12,0 601.12,-19.25"/>
<text text-anchor="middle" x="547" y="-5.75" font-family="Helvetica,sans-Serif" font-size="10.00">include/sm2_bmem.h</text>
</a>
</g>
</g>
<!-- Node18&#45;&gt;Node19 -->
<g id="edge25_Node000018_Node000019" class="edge">
<title>Node18&#45;&gt;Node19</title>
<g id="a_edge25_Node000018_Node000019"><a xlink:title=" ">
<path fill="none" stroke="#63b8ff" d="M547,-43.63C547,-35.34 547,-26.17 547,-19.61"/>
<polygon fill="#63b8ff" stroke="#63b8ff" points="543.5,-43.57 547,-53.57 550.5,-43.57 543.5,-43.57"/>
</a>
</g>
</g>
<!-- Node20&#45;&gt;Node2 -->
<g id="edge28_Node000020_Node000002" class="edge">
<title>Node20&#45;&gt;Node2</title>
<g id="a_edge28_Node000020_Node000002"><a xlink:title=" ">
<path fill="none" stroke="#63b8ff" d="M452.02,-156.99C444.75,-149.05 436.47,-139.3 430,-129.75 409.17,-98.97 416.1,-83.55 392,-55.25 379.32,-40.37 360.74,-27.69 347.42,-19.69"/>
<polygon fill="#63b8ff" stroke="#63b8ff" points="449.47,-159.38 458.88,-164.25 454.56,-154.58 449.47,-159.38"/>
</a>
</g>
</g>
<!-- Node20&#45;&gt;Node6 -->
<g id="edge27_Node000020_Node000006" class="edge">
<title>Node20&#45;&gt;Node6</title>
<g id="a_edge27_Node000020_Node000006"><a xlink:title=" ">
<path fill="none" stroke="#63b8ff" d="M442.35,-159.7C428.37,-151.56 411.24,-140.84 397,-129.75 374.36,-112.11 350.93,-87.7 339.01,-74.76"/>
<polygon fill="#63b8ff" stroke="#63b8ff" points="440.59,-162.73 451.01,-164.65 444.06,-156.65 440.59,-162.73"/>
</a>
</g>
</g>
<!-- Node20&#45;&gt;Node18 -->
<g id="edge29_Node000020_Node000018" class="edge">
<title>Node20&#45;&gt;Node18</title>
<g id="a_edge29_Node000020_Node000018"><a xlink:title=" ">
<path fill="none" stroke="#63b8ff" d="M516.34,-161.15C531.71,-154.36 547.08,-144.34 556,-129.75 566.51,-112.55 557.79,-87.96 551.69,-74.87"/>
<polygon fill="#63b8ff" stroke="#63b8ff" points="515.19,-157.84 507.19,-164.78 517.78,-164.34 515.19,-157.84"/>
</a>
</g>
</g>
<!-- Node20&#45;&gt;Node21 -->
<g id="edge30_Node000020_Node000021" class="edge">
<title>Node20&#45;&gt;Node21</title>
<g id="a_edge30_Node000020_Node000021"><a xlink:title=" ">
<path fill="none" stroke="#63b8ff" d="M477.6,-155.29C481.47,-146.71 485.85,-136.98 488.95,-130.11"/>
<polygon fill="#63b8ff" stroke="#63b8ff" points="474.5,-153.65 473.59,-164.2 480.88,-156.52 474.5,-153.65"/>
</a>
</g>
</g>
<!-- Node21&#45;&gt;Node2 -->
<g id="edge31_Node000021_Node000002" class="edge">
<title>Node21&#45;&gt;Node2</title>
<g id="a_edge31_Node000021_Node000002"><a xlink:title=" ">
<path fill="none" stroke="#63b8ff" d="M477.82,-102.19C464.78,-88.33 444.98,-68.88 425,-55.25 402.91,-40.18 374.95,-27.62 355.28,-19.71"/>
<polygon fill="#63b8ff" stroke="#63b8ff" points="474.97,-104.26 484.32,-109.25 480.12,-99.52 474.97,-104.26"/>
</a>
</g>
</g>
<!-- Node21&#45;&gt;Node18 -->
<g id="edge32_Node000021_Node000018" class="edge">
<title>Node21&#45;&gt;Node18</title>
<g id="a_edge32_Node000021_Node000018"><a xlink:title=" ">
<path fill="none" stroke="#63b8ff" d="M510.04,-102.32C519.26,-93.23 530.29,-82.35 537.89,-74.86"/>
<polygon fill="#63b8ff" stroke="#63b8ff" points="507.66,-99.76 502.99,-109.27 512.57,-104.74 507.66,-99.76"/>
</a>
</g>
</g>
<!-- Node22&#45;&gt;Node12 -->
<g id="edge37_Node000022_Node000012" class="edge">
<title>Node22&#45;&gt;Node12</title>
<g id="a_edge37_Node000022_Node000012"><a xlink:title=" ">
<path fill="none" stroke="#63b8ff" d="M762.62,-154.52C761.33,-141.39 761.47,-124.15 768,-110.5 775.45,-94.94 791.14,-82.69 803.35,-74.99"/>
<polygon fill="#63b8ff" stroke="#63b8ff" points="759.11,-154.66 763.94,-164.09 766.05,-153.71 759.11,-154.66"/>
</a>
</g>
</g>
</g>
</svg>
