<?xml version="1.0" encoding="UTF-8" standalone="no"?>
<!DOCTYPE svg PUBLIC "-//W3C//DTD SVG 1.1//EN"
 "http://www.w3.org/Graphics/SVG/1.1/DTD/svg11.dtd">
<!-- Generated by graphviz version 2.44.0 ()
 -->
<!-- Title: include/io.h Pages: 1 -->
<svg width="5362pt" height="274pt"
 viewBox="0.00 0.00 5361.50 274.00" xmlns="http://www.w3.org/2000/svg" xmlns:xlink="http://www.w3.org/1999/xlink">
<g id="graph0" class="graph" transform="scale(1 1) rotate(0) translate(4 270)">
<title>include/io.h</title>
<!-- Node1 -->
<g id="node1" class="node">
<title>Node1</title>
<g id="a_node1"><a xlink:title="Copyright (c) 2021 Daishi Mori (mori0091)">
<polygon fill="#bfbfbf" stroke="black" points="1633.5,-246.5 1633.5,-265.5 1698.5,-265.5 1698.5,-246.5 1633.5,-246.5"/>
<text text-anchor="middle" x="1666" y="-253.5" font-family="Helvetica,sans-Serif" font-size="10.00">include/io.h</text>
</a>
</g>
</g>
<!-- Node2 -->
<g id="node2" class="node">
<title>Node2</title>
<g id="a_node2"><a xlink:href="msx_8h.html" target="_top" xlink:title="Copyright (c) 2021 Daishi Mori (mori0091)">
<polygon fill="none" stroke="black" points="502,-6 502,-25 578,-25 578,-6 502,-6"/>
<text text-anchor="middle" x="540" y="-13" font-family="Helvetica,sans-Serif" font-size="10.00">include/msx.h</text>
</a>
</g>
</g>
<!-- Node1&#45;&gt;Node2 -->
<g id="edge1" class="edge">
<title>Node1&#45;&gt;Node2</title>
<path fill="none" stroke="midnightblue" d="M1623.05,-253.04C1446.49,-244.34 777.65,-204.78 600,-98 570.63,-80.35 551.19,-42.3 543.59,-25.17"/>
<polygon fill="midnightblue" stroke="midnightblue" points="1623.08,-256.55 1633.24,-253.54 1623.42,-249.56 1623.08,-256.55"/>
</g>
<!-- Node3 -->
<g id="node3" class="node">
<title>Node3</title>
<g id="a_node3"><a xlink:href="psg_8h.html" target="_top" xlink:title="Copyright (c) 2021 Daishi Mori (mori0091)">
<polygon fill="none" stroke="black" points="5048,-190.5 5048,-209.5 5122,-209.5 5122,-190.5 5048,-190.5"/>
<text text-anchor="middle" x="5085" y="-197.5" font-family="Helvetica,sans-Serif" font-size="10.00">include/psg.h</text>
</a>
</g>
</g>
<!-- Node1&#45;&gt;Node3 -->
<g id="edge2" class="edge">
<title>Node1&#45;&gt;Node3</title>
<path fill="none" stroke="midnightblue" d="M1708.99,-254.32C2077.85,-248.5 4703.95,-207.02 5047.88,-201.59"/>
<polygon fill="midnightblue" stroke="midnightblue" points="1708.69,-250.83 1698.74,-254.48 1708.8,-257.82 1708.69,-250.83"/>
</g>
<!-- Node8 -->
<g id="node8" class="node">
<title>Node8</title>
<g id="a_node8"><a xlink:href="vdp_8h.html" target="_top" xlink:title="Data types and functions for VDP (Video Display Proccessor) access.">
<polygon fill="none" stroke="black" points="2611,-134.5 2611,-153.5 2685,-153.5 2685,-134.5 2611,-134.5"/>
<text text-anchor="middle" x="2648" y="-141.5" font-family="Helvetica,sans-Serif" font-size="10.00">include/vdp.h</text>
</a>
</g>
</g>
<!-- Node1&#45;&gt;Node8 -->
<g id="edge8" class="edge">
<title>Node1&#45;&gt;Node8</title>
<path fill="none" stroke="midnightblue" d="M1708.84,-250.2C1872.57,-231.86 2457.25,-166.37 2610.83,-149.16"/>
<polygon fill="midnightblue" stroke="midnightblue" points="1708.22,-246.75 1698.67,-251.34 1709,-253.71 1708.22,-246.75"/>
</g>
<!-- Node48 -->
<g id="node48" class="node">
<title>Node48</title>
<g id="a_node48"><a xlink:href="vmem_8h.html" target="_top" xlink:title="Data types and functions for VRAM access.">
<polygon fill="none" stroke="black" points="489.5,-190.5 489.5,-209.5 574.5,-209.5 574.5,-190.5 489.5,-190.5"/>
<text text-anchor="middle" x="532" y="-197.5" font-family="Helvetica,sans-Serif" font-size="10.00">include/vmem.h</text>
</a>
</g>
</g>
<!-- Node1&#45;&gt;Node48 -->
<g id="edge50" class="edge">
<title>Node1&#45;&gt;Node48</title>
<path fill="none" stroke="midnightblue" d="M1622.96,-253.84C1481.18,-249.87 1015.98,-235.62 632,-210 613.22,-208.75 592.48,-206.95 574.79,-205.29"/>
<polygon fill="midnightblue" stroke="midnightblue" points="1623.28,-257.35 1633.37,-254.13 1623.47,-250.35 1623.28,-257.35"/>
</g>
<!-- Node3&#45;&gt;Node2 -->
<g id="edge3" class="edge">
<title>Node3&#45;&gt;Node2</title>
<path fill="none" stroke="midnightblue" d="M5048.79,-186.47C5031.92,-179.15 5012.61,-168.46 4999,-154 4969.96,-123.14 4995.47,-90.18 4960,-67 4909.16,-33.77 647.02,-40.3 587,-31 579.07,-29.77 570.62,-27.49 563.11,-25.09"/>
<polygon fill="midnightblue" stroke="midnightblue" points="5047.81,-189.84 5058.39,-190.39 5050.46,-183.37 5047.81,-189.84"/>
</g>
<!-- Node4 -->
<g id="node4" class="node">
<title>Node4</title>
<g id="a_node4"><a xlink:href="psg__get_8c.html" target="_top" xlink:title="Copyright (c) 2021 Daishi Mori (mori0091)">
<polygon fill="none" stroke="black" points="5092.5,-134.5 5092.5,-153.5 5167.5,-153.5 5167.5,-134.5 5092.5,-134.5"/>
<text text-anchor="middle" x="5130" y="-141.5" font-family="Helvetica,sans-Serif" font-size="10.00">src/psg_get.c</text>
</a>
</g>
</g>
<!-- Node3&#45;&gt;Node4 -->
<g id="edge4" class="edge">
<title>Node3&#45;&gt;Node4</title>
<path fill="none" stroke="midnightblue" d="M5099.05,-182.14C5106.89,-172.74 5116.33,-161.4 5122.71,-153.75"/>
<polygon fill="midnightblue" stroke="midnightblue" points="5096.14,-180.16 5092.43,-190.08 5101.52,-184.64 5096.14,-180.16"/>
</g>
<!-- Node5 -->
<g id="node5" class="node">
<title>Node5</title>
<g id="a_node5"><a xlink:href="psg__init_8c.html" target="_top" xlink:title="Copyright (c) 2021 Daishi Mori (mori0091)">
<polygon fill="none" stroke="black" points="5186,-134.5 5186,-153.5 5260,-153.5 5260,-134.5 5186,-134.5"/>
<text text-anchor="middle" x="5223" y="-141.5" font-family="Helvetica,sans-Serif" font-size="10.00">src/psg_init.c</text>
</a>
</g>
</g>
<!-- Node3&#45;&gt;Node5 -->
<g id="edge5" class="edge">
<title>Node3&#45;&gt;Node5</title>
<path fill="none" stroke="midnightblue" d="M5116.25,-186.77C5142.17,-176.63 5178.36,-162.47 5201.24,-153.52"/>
<polygon fill="midnightblue" stroke="midnightblue" points="5114.9,-183.54 5106.87,-190.44 5117.45,-190.06 5114.9,-183.54"/>
</g>
<!-- Node6 -->
<g id="node6" class="node">
<title>Node6</title>
<g id="a_node6"><a xlink:href="psg__set_8c.html" target="_top" xlink:title="Copyright (c) 2021 Daishi Mori (mori0091)">
<polygon fill="none" stroke="black" points="5278.5,-134.5 5278.5,-153.5 5353.5,-153.5 5353.5,-134.5 5278.5,-134.5"/>
<text text-anchor="middle" x="5316" y="-141.5" font-family="Helvetica,sans-Serif" font-size="10.00">src/psg_set.c</text>
</a>
</g>
</g>
<!-- Node3&#45;&gt;Node6 -->
<g id="edge6" class="edge">
<title>Node3&#45;&gt;Node6</title>
<path fill="none" stroke="midnightblue" d="M5131.4,-188.15C5175.05,-177.95 5239.51,-162.88 5279.57,-153.52"/>
<polygon fill="midnightblue" stroke="midnightblue" points="5130.54,-184.76 5121.6,-190.44 5132.14,-191.58 5130.54,-184.76"/>
</g>
<!-- Node7 -->
<g id="node7" class="node">
<title>Node7</title>
<g id="a_node7"><a xlink:href="sound_8c.html" target="_top" xlink:title="Copyright (c) 2021 Daishi Mori (mori0091)">
<polygon fill="none" stroke="black" points="5007.5,-134.5 5007.5,-153.5 5074.5,-153.5 5074.5,-134.5 5007.5,-134.5"/>
<text text-anchor="middle" x="5041" y="-141.5" font-family="Helvetica,sans-Serif" font-size="10.00">src/sound.c</text>
</a>
</g>
</g>
<!-- Node3&#45;&gt;Node7 -->
<g id="edge7" class="edge">
<title>Node3&#45;&gt;Node7</title>
<path fill="none" stroke="midnightblue" d="M5071.27,-182.14C5063.6,-172.74 5054.37,-161.4 5048.13,-153.75"/>
<polygon fill="midnightblue" stroke="midnightblue" points="5068.7,-184.54 5077.73,-190.08 5074.13,-180.12 5068.7,-184.54"/>
</g>
<!-- Node8&#45;&gt;Node2 -->
<g id="edge14" class="edge">
<title>Node8&#45;&gt;Node2</title>
<path fill="none" stroke="midnightblue" d="M2600.6,-142.66C2308.31,-140.47 760.3,-127.5 665,-98 616.25,-82.91 568.51,-42.78 549.09,-25.09"/>
<polygon fill="midnightblue" stroke="midnightblue" points="2600.83,-146.16 2610.85,-142.74 2600.88,-139.16 2600.83,-146.16"/>
</g>
<!-- Node9 -->
<g id="node9" class="node">
<title>Node9</title>
<g id="a_node9"><a xlink:href="metasprite_8h.html" target="_top" xlink:title="Copyright (c) 2021 Daishi Mori (mori0091)">
<polygon fill="none" stroke="black" points="198,-73 198,-92 302,-92 302,-73 198,-73"/>
<text text-anchor="middle" x="250" y="-80" font-family="Helvetica,sans-Serif" font-size="10.00">include/metasprite.h</text>
</a>
</g>
</g>
<!-- Node8&#45;&gt;Node9 -->
<g id="edge9" class="edge">
<title>Node8&#45;&gt;Node9</title>
<path fill="none" stroke="midnightblue" d="M2600.65,-142.89C2314.13,-142.08 809.05,-136.04 349,-98 332.9,-96.67 315.43,-94.39 299.72,-92.03"/>
<polygon fill="midnightblue" stroke="midnightblue" points="2600.7,-146.39 2610.71,-142.91 2600.72,-139.39 2600.7,-146.39"/>
</g>
<!-- Node13 -->
<g id="node13" class="node">
<title>Node13</title>
<g id="a_node13"><a xlink:href="vdp_8c.html" target="_top" xlink:title="Copyright (c) 2021 Daishi Mori (mori0091)">
<polygon fill="none" stroke="black" points="1838,-73 1838,-92 1894,-92 1894,-73 1838,-73"/>
<text text-anchor="middle" x="1866" y="-80" font-family="Helvetica,sans-Serif" font-size="10.00">src/vdp.c</text>
</a>
</g>
</g>
<!-- Node8&#45;&gt;Node13 -->
<g id="edge15" class="edge">
<title>Node8&#45;&gt;Node13</title>
<path fill="none" stroke="midnightblue" d="M2600.83,-142.08C2458.83,-138.99 2036.94,-127.52 1903,-98 1896.8,-96.63 1890.28,-94.38 1884.47,-92.05"/>
<polygon fill="midnightblue" stroke="midnightblue" points="2600.88,-145.58 2610.96,-142.29 2601.03,-138.58 2600.88,-145.58"/>
</g>
<!-- Node14 -->
<g id="node14" class="node">
<title>Node14</title>
<g id="a_node14"><a xlink:href="vdp__cmd__execute_8c.html" target="_top" xlink:title="Copyright (c) 2021 Daishi Mori (mori0091)">
<polygon fill="none" stroke="black" points="1912.5,-73 1912.5,-92 2031.5,-92 2031.5,-73 1912.5,-73"/>
<text text-anchor="middle" x="1972" y="-80" font-family="Helvetica,sans-Serif" font-size="10.00">src/vdp_cmd_execute.c</text>
</a>
</g>
</g>
<!-- Node8&#45;&gt;Node14 -->
<g id="edge16" class="edge">
<title>Node8&#45;&gt;Node14</title>
<path fill="none" stroke="midnightblue" d="M2600.85,-141.64C2498.47,-138.22 2248.37,-127.34 2041,-98 2030.21,-96.47 2018.59,-94.26 2008.01,-92.01"/>
<polygon fill="midnightblue" stroke="midnightblue" points="2600.76,-145.14 2610.86,-141.97 2600.98,-138.14 2600.76,-145.14"/>
</g>
<!-- Node15 -->
<g id="node15" class="node">
<title>Node15</title>
<g id="a_node15"><a xlink:href="vdp__cmd__execute__HMMM_8c.html" target="_top" xlink:title="Copyright (c) 2021 Daishi Mori (mori0091)">
<polygon fill="none" stroke="black" points="2050,-67.5 2050,-97.5 2162,-97.5 2162,-67.5 2050,-67.5"/>
<text text-anchor="start" x="2058" y="-85.5" font-family="Helvetica,sans-Serif" font-size="10.00">src/vdp_cmd_execute</text>
<text text-anchor="middle" x="2106" y="-74.5" font-family="Helvetica,sans-Serif" font-size="10.00">_HMMM.c</text>
</a>
</g>
</g>
<!-- Node8&#45;&gt;Node15 -->
<g id="edge17" class="edge">
<title>Node8&#45;&gt;Node15</title>
<path fill="none" stroke="midnightblue" d="M2600.78,-140.51C2514.86,-135.55 2327.36,-122.72 2171,-98 2168.14,-97.55 2165.23,-97.05 2162.29,-96.51"/>
<polygon fill="midnightblue" stroke="midnightblue" points="2600.81,-144.02 2611,-141.09 2601.21,-137.03 2600.81,-144.02"/>
</g>
<!-- Node16 -->
<g id="node16" class="node">
<title>Node16</title>
<g id="a_node16"><a xlink:href="vdp__cmd__execute__HMMV_8c.html" target="_top" xlink:title="Copyright (c) 2021 Daishi Mori (mori0091)">
<polygon fill="none" stroke="black" points="2180,-67.5 2180,-97.5 2292,-97.5 2292,-67.5 2180,-67.5"/>
<text text-anchor="start" x="2188" y="-85.5" font-family="Helvetica,sans-Serif" font-size="10.00">src/vdp_cmd_execute</text>
<text text-anchor="middle" x="2236" y="-74.5" font-family="Helvetica,sans-Serif" font-size="10.00">_HMMV.c</text>
</a>
</g>
</g>
<!-- Node8&#45;&gt;Node16 -->
<g id="edge18" class="edge">
<title>Node8&#45;&gt;Node16</title>
<path fill="none" stroke="midnightblue" d="M2600.62,-138.23C2533.62,-131.17 2407.48,-116.74 2301,-98 2298.15,-97.5 2295.24,-96.96 2292.31,-96.39"/>
<polygon fill="midnightblue" stroke="midnightblue" points="2600.55,-141.74 2610.86,-139.3 2601.27,-134.78 2600.55,-141.74"/>
</g>
<!-- Node17 -->
<g id="node17" class="node">
<title>Node17</title>
<g id="a_node17"><a xlink:href="vdp__cmd__execute__LMMM_8c.html" target="_top" xlink:title="Copyright (c) 2021 Daishi Mori (mori0091)">
<polygon fill="none" stroke="black" points="2310,-67.5 2310,-97.5 2422,-97.5 2422,-67.5 2310,-67.5"/>
<text text-anchor="start" x="2318" y="-85.5" font-family="Helvetica,sans-Serif" font-size="10.00">src/vdp_cmd_execute</text>
<text text-anchor="middle" x="2366" y="-74.5" font-family="Helvetica,sans-Serif" font-size="10.00">_LMMM.c</text>
</a>
</g>
</g>
<!-- Node8&#45;&gt;Node17 -->
<g id="edge19" class="edge">
<title>Node8&#45;&gt;Node17</title>
<path fill="none" stroke="midnightblue" d="M2600.88,-133.44C2556.9,-124.47 2489.45,-110.58 2431,-98 2428.06,-97.37 2425.05,-96.71 2422.01,-96.05"/>
<polygon fill="midnightblue" stroke="midnightblue" points="2600.22,-136.88 2610.72,-135.45 2601.62,-130.02 2600.22,-136.88"/>
</g>
<!-- Node18 -->
<g id="node18" class="node">
<title>Node18</title>
<g id="a_node18"><a xlink:href="vdp__cmd__execute__LMMV_8c.html" target="_top" xlink:title="Copyright (c) 2021 Daishi Mori (mori0091)">
<polygon fill="none" stroke="black" points="2440,-67.5 2440,-97.5 2552,-97.5 2552,-67.5 2440,-67.5"/>
<text text-anchor="start" x="2448" y="-85.5" font-family="Helvetica,sans-Serif" font-size="10.00">src/vdp_cmd_execute</text>
<text text-anchor="middle" x="2496" y="-74.5" font-family="Helvetica,sans-Serif" font-size="10.00">_LMMV.c</text>
</a>
</g>
</g>
<!-- Node8&#45;&gt;Node18 -->
<g id="edge20" class="edge">
<title>Node8&#45;&gt;Node18</title>
<path fill="none" stroke="midnightblue" d="M2616.63,-130.72C2591.96,-121.06 2557.57,-107.6 2531.82,-97.52"/>
<polygon fill="midnightblue" stroke="midnightblue" points="2615.63,-134.09 2626.22,-134.48 2618.19,-127.57 2615.63,-134.09"/>
</g>
<!-- Node19 -->
<g id="node19" class="node">
<title>Node19</title>
<g id="a_node19"><a xlink:href="vdp__cmd__set__unrestricted_8c.html" target="_top" xlink:title="Copyright (c) 2021 Daishi Mori (mori0091)">
<polygon fill="none" stroke="black" points="2570.5,-73 2570.5,-92 2725.5,-92 2725.5,-73 2570.5,-73"/>
<text text-anchor="middle" x="2648" y="-80" font-family="Helvetica,sans-Serif" font-size="10.00">src/vdp_cmd_set_unrestricted.c</text>
</a>
</g>
</g>
<!-- Node8&#45;&gt;Node19 -->
<g id="edge21" class="edge">
<title>Node8&#45;&gt;Node19</title>
<path fill="none" stroke="midnightblue" d="M2648,-124.32C2648,-113.5 2648,-100.4 2648,-92.01"/>
<polygon fill="midnightblue" stroke="midnightblue" points="2644.5,-124.48 2648,-134.48 2651.5,-124.48 2644.5,-124.48"/>
</g>
<!-- Node20 -->
<g id="node20" class="node">
<title>Node20</title>
<g id="a_node20"><a xlink:href="vdp__get__sprite__mode_8c.html" target="_top" xlink:title="Copyright (c) 2021 Daishi Mori (mori0091)">
<polygon fill="none" stroke="black" points="2743.5,-67.5 2743.5,-97.5 2840.5,-97.5 2840.5,-67.5 2743.5,-67.5"/>
<text text-anchor="start" x="2751.5" y="-85.5" font-family="Helvetica,sans-Serif" font-size="10.00">src/vdp_get_sprite</text>
<text text-anchor="middle" x="2792" y="-74.5" font-family="Helvetica,sans-Serif" font-size="10.00">_mode.c</text>
</a>
</g>
</g>
<!-- Node8&#45;&gt;Node20 -->
<g id="edge22" class="edge">
<title>Node8&#45;&gt;Node20</title>
<path fill="none" stroke="midnightblue" d="M2678.03,-130.59C2701.38,-120.94 2733.78,-107.56 2758.06,-97.52"/>
<polygon fill="midnightblue" stroke="midnightblue" points="2676.54,-127.42 2668.63,-134.48 2679.21,-133.89 2676.54,-127.42"/>
</g>
<!-- Node21 -->
<g id="node21" class="node">
<title>Node21</title>
<g id="a_node21"><a xlink:href="vdp__get__status_8c.html" target="_top" xlink:title="Copyright (c) 2021 Daishi Mori (mori0091)">
<polygon fill="none" stroke="black" points="2858.5,-73 2858.5,-92 2965.5,-92 2965.5,-73 2858.5,-73"/>
<text text-anchor="middle" x="2912" y="-80" font-family="Helvetica,sans-Serif" font-size="10.00">src/vdp_get_status.c</text>
</a>
</g>
</g>
<!-- Node8&#45;&gt;Node21 -->
<g id="edge23" class="edge">
<title>Node8&#45;&gt;Node21</title>
<path fill="none" stroke="midnightblue" d="M2695.22,-132.63C2736.18,-123.6 2797.04,-110.09 2850,-98 2858.3,-96.11 2867.21,-94.04 2875.62,-92.07"/>
<polygon fill="midnightblue" stroke="midnightblue" points="2694.27,-129.25 2685.26,-134.82 2695.78,-136.09 2694.27,-129.25"/>
</g>
<!-- Node22 -->
<g id="node22" class="node">
<title>Node22</title>
<g id="a_node22"><a xlink:href="vdp__set__adjust_8c.html" target="_top" xlink:title="Copyright (c) 2021 Daishi Mori (mori0091)">
<polygon fill="none" stroke="black" points="2983.5,-73 2983.5,-92 3090.5,-92 3090.5,-73 2983.5,-73"/>
<text text-anchor="middle" x="3037" y="-80" font-family="Helvetica,sans-Serif" font-size="10.00">src/vdp_set_adjust.c</text>
</a>
</g>
</g>
<!-- Node8&#45;&gt;Node22 -->
<g id="edge24" class="edge">
<title>Node8&#45;&gt;Node22</title>
<path fill="none" stroke="midnightblue" d="M2695.61,-137.85C2759.47,-130.63 2876.26,-116.3 2975,-98 2984.13,-96.31 2993.94,-94.17 3003.01,-92.05"/>
<polygon fill="midnightblue" stroke="midnightblue" points="2695,-134.4 2685.45,-138.99 2695.78,-141.36 2695,-134.4"/>
</g>
<!-- Node23 -->
<g id="node23" class="node">
<title>Node23</title>
<g id="a_node23"><a xlink:href="vdp__set__color_8c.html" target="_top" xlink:title="Copyright (c) 2021 Daishi Mori (mori0091)">
<polygon fill="none" stroke="black" points="3108.5,-73 3108.5,-92 3209.5,-92 3209.5,-73 3108.5,-73"/>
<text text-anchor="middle" x="3159" y="-80" font-family="Helvetica,sans-Serif" font-size="10.00">src/vdp_set_color.c</text>
</a>
</g>
</g>
<!-- Node8&#45;&gt;Node23 -->
<g id="edge25" class="edge">
<title>Node8&#45;&gt;Node23</title>
<path fill="none" stroke="midnightblue" d="M2695.22,-140.51C2777.79,-135.66 2953.54,-123.16 3100,-98 3109.15,-96.43 3118.98,-94.22 3127.94,-92.01"/>
<polygon fill="midnightblue" stroke="midnightblue" points="2694.93,-137.02 2685.15,-141.09 2695.34,-144.01 2694.93,-137.02"/>
</g>
<!-- Node24 -->
<g id="node24" class="node">
<title>Node24</title>
<g id="a_node24"><a xlink:href="vdp__set__color__table_8c.html" target="_top" xlink:title="Copyright (c) 2021 Daishi Mori (mori0091)">
<polygon fill="none" stroke="black" points="3228,-73 3228,-92 3356,-92 3356,-73 3228,-73"/>
<text text-anchor="middle" x="3292" y="-80" font-family="Helvetica,sans-Serif" font-size="10.00">src/vdp_set_color_table.c</text>
</a>
</g>
</g>
<!-- Node8&#45;&gt;Node24 -->
<g id="edge26" class="edge">
<title>Node8&#45;&gt;Node24</title>
<path fill="none" stroke="midnightblue" d="M2695.42,-141.15C2793.54,-136.9 3025.83,-124.7 3219,-98 3230.26,-96.44 3242.41,-94.24 3253.5,-92.03"/>
<polygon fill="midnightblue" stroke="midnightblue" points="2695.08,-137.66 2685.24,-141.58 2695.38,-144.65 2695.08,-137.66"/>
</g>
<!-- Node25 -->
<g id="node25" class="node">
<title>Node25</title>
<g id="a_node25"><a xlink:href="vdp__set__control_8c.html" target="_top" xlink:title="Copyright (c) 2021 Daishi Mori (mori0091)">
<polygon fill="none" stroke="black" points="3374,-73 3374,-92 3484,-92 3484,-73 3374,-73"/>
<text text-anchor="middle" x="3429" y="-80" font-family="Helvetica,sans-Serif" font-size="10.00">src/vdp_set_control.c</text>
</a>
</g>
</g>
<!-- Node8&#45;&gt;Node25 -->
<g id="edge27" class="edge">
<title>Node8&#45;&gt;Node25</title>
<path fill="none" stroke="midnightblue" d="M2695.39,-142.64C2810.63,-141.2 3114.49,-134 3365,-98 3375.15,-96.54 3386.07,-94.32 3395.97,-92.04"/>
<polygon fill="midnightblue" stroke="midnightblue" points="2695.11,-139.14 2685.16,-142.76 2695.2,-146.14 2695.11,-139.14"/>
</g>
<!-- Node26 -->
<g id="node26" class="node">
<title>Node26</title>
<g id="a_node26"><a xlink:href="vdp__set__hscroll_8c.html" target="_top" xlink:title="Copyright (c) 2021 Daishi Mori (mori0091)">
<polygon fill="none" stroke="black" points="3502.5,-73 3502.5,-92 3611.5,-92 3611.5,-73 3502.5,-73"/>
<text text-anchor="middle" x="3557" y="-80" font-family="Helvetica,sans-Serif" font-size="10.00">src/vdp_set_hscroll.c</text>
</a>
</g>
</g>
<!-- Node8&#45;&gt;Node26 -->
<g id="edge28" class="edge">
<title>Node8&#45;&gt;Node26</title>
<path fill="none" stroke="midnightblue" d="M2695.59,-143.28C2824.59,-143.44 3191.53,-139.87 3493,-98 3503.27,-96.57 3514.32,-94.33 3524.31,-92.03"/>
<polygon fill="midnightblue" stroke="midnightblue" points="2695.29,-139.78 2685.28,-143.26 2695.27,-146.78 2695.29,-139.78"/>
</g>
<!-- Node27 -->
<g id="node27" class="node">
<title>Node27</title>
<g id="a_node27"><a xlink:href="vdp__set__hscroll__dual__page_8c.html" target="_top" xlink:title="Copyright (c) 2021 Daishi Mori (mori0091)">
<polygon fill="none" stroke="black" points="3629.5,-67.5 3629.5,-97.5 3730.5,-97.5 3730.5,-67.5 3629.5,-67.5"/>
<text text-anchor="start" x="3637.5" y="-85.5" font-family="Helvetica,sans-Serif" font-size="10.00">src/vdp_set_hscroll</text>
<text text-anchor="middle" x="3680" y="-74.5" font-family="Helvetica,sans-Serif" font-size="10.00">_dual_page.c</text>
</a>
</g>
</g>
<!-- Node8&#45;&gt;Node27 -->
<g id="edge29" class="edge">
<title>Node8&#45;&gt;Node27</title>
<path fill="none" stroke="midnightblue" d="M2695.17,-142.04C2864.19,-138.39 3439.04,-124.31 3621,-98 3623.71,-97.61 3626.49,-97.15 3629.27,-96.63"/>
<polygon fill="midnightblue" stroke="midnightblue" points="2695.02,-138.54 2685.1,-142.25 2695.17,-145.54 2695.02,-138.54"/>
</g>
<!-- Node28 -->
<g id="node28" class="node">
<title>Node28</title>
<g id="a_node28"><a xlink:href="vdp__set__hscroll__mask_8c.html" target="_top" xlink:title="Copyright (c) 2021 Daishi Mori (mori0091)">
<polygon fill="none" stroke="black" points="3748.5,-67.5 3748.5,-97.5 3849.5,-97.5 3849.5,-67.5 3748.5,-67.5"/>
<text text-anchor="start" x="3756.5" y="-85.5" font-family="Helvetica,sans-Serif" font-size="10.00">src/vdp_set_hscroll</text>
<text text-anchor="middle" x="3799" y="-74.5" font-family="Helvetica,sans-Serif" font-size="10.00">_mask.c</text>
</a>
</g>
</g>
<!-- Node8&#45;&gt;Node28 -->
<g id="edge30" class="edge">
<title>Node8&#45;&gt;Node28</title>
<path fill="none" stroke="midnightblue" d="M2695.11,-142.31C2877,-139.46 3533.6,-127.31 3740,-98 3742.72,-97.61 3745.49,-97.16 3748.28,-96.65"/>
<polygon fill="midnightblue" stroke="midnightblue" points="2695,-138.81 2685.06,-142.47 2695.11,-145.81 2695,-138.81"/>
</g>
<!-- Node29 -->
<g id="node29" class="node">
<title>Node29</title>
<g id="a_node29"><a xlink:href="vdp__set__image__table_8c.html" target="_top" xlink:title="Copyright (c) 2021 Daishi Mori (mori0091)">
<polygon fill="none" stroke="black" points="3867.5,-73 3867.5,-92 4000.5,-92 4000.5,-73 3867.5,-73"/>
<text text-anchor="middle" x="3934" y="-80" font-family="Helvetica,sans-Serif" font-size="10.00">src/vdp_set_image_table.c</text>
</a>
</g>
</g>
<!-- Node8&#45;&gt;Node29 -->
<g id="edge31" class="edge">
<title>Node8&#45;&gt;Node29</title>
<path fill="none" stroke="midnightblue" d="M2695.31,-142.22C2889.69,-138.84 3627.46,-124.52 3859,-98 3871.12,-96.61 3884.22,-94.35 3896.02,-92.02"/>
<polygon fill="midnightblue" stroke="midnightblue" points="2695.08,-138.72 2685.14,-142.39 2695.2,-145.72 2695.08,-138.72"/>
</g>
<!-- Node30 -->
<g id="node30" class="node">
<title>Node30</title>
<g id="a_node30"><a xlink:href="vdp__set__palette_8c.html" target="_top" xlink:title="Copyright (c) 2021 Daishi Mori (mori0091)">
<polygon fill="none" stroke="black" points="4019,-73 4019,-92 4129,-92 4129,-73 4019,-73"/>
<text text-anchor="middle" x="4074" y="-80" font-family="Helvetica,sans-Serif" font-size="10.00">src/vdp_set_palette.c</text>
</a>
</g>
</g>
<!-- Node8&#45;&gt;Node30 -->
<g id="edge32" class="edge">
<title>Node8&#45;&gt;Node30</title>
<path fill="none" stroke="midnightblue" d="M2695.32,-142.64C2904.53,-140.87 3747.66,-131.74 4010,-98 4020.51,-96.65 4031.83,-94.37 4041.98,-92.01"/>
<polygon fill="midnightblue" stroke="midnightblue" points="2695.24,-139.14 2685.27,-142.72 2695.3,-146.14 2695.24,-139.14"/>
</g>
<!-- Node31 -->
<g id="node31" class="node">
<title>Node31</title>
<g id="a_node31"><a xlink:href="vdp__set__pattern__table_8c.html" target="_top" xlink:title="Copyright (c) 2021 Daishi Mori (mori0091)">
<polygon fill="none" stroke="black" points="4147.5,-67.5 4147.5,-97.5 4250.5,-97.5 4250.5,-67.5 4147.5,-67.5"/>
<text text-anchor="start" x="4155.5" y="-85.5" font-family="Helvetica,sans-Serif" font-size="10.00">src/vdp_set_pattern</text>
<text text-anchor="middle" x="4199" y="-74.5" font-family="Helvetica,sans-Serif" font-size="10.00">_table.c</text>
</a>
</g>
</g>
<!-- Node8&#45;&gt;Node31 -->
<g id="edge33" class="edge">
<title>Node8&#45;&gt;Node31</title>
<path fill="none" stroke="midnightblue" d="M2695.37,-142.86C2916.58,-142.03 3849.29,-136.27 4138,-98 4141.02,-97.6 4144.11,-97.11 4147.22,-96.56"/>
<polygon fill="midnightblue" stroke="midnightblue" points="2695.07,-139.36 2685.08,-142.9 2695.09,-146.36 2695.07,-139.36"/>
</g>
<!-- Node32 -->
<g id="node32" class="node">
<title>Node32</title>
<g id="a_node32"><a xlink:href="vdp__set__screen__lines_8c.html" target="_top" xlink:title="Copyright (c) 2021 Daishi Mori (mori0091)">
<polygon fill="none" stroke="black" points="4269,-67.5 4269,-97.5 4371,-97.5 4371,-67.5 4269,-67.5"/>
<text text-anchor="start" x="4277" y="-85.5" font-family="Helvetica,sans-Serif" font-size="10.00">src/vdp_set_screen</text>
<text text-anchor="middle" x="4320" y="-74.5" font-family="Helvetica,sans-Serif" font-size="10.00">_lines.c</text>
</a>
</g>
</g>
<!-- Node8&#45;&gt;Node32 -->
<g id="edge34" class="edge">
<title>Node8&#45;&gt;Node32</title>
<path fill="none" stroke="midnightblue" d="M2695.46,-143.01C2927.73,-142.88 3946.03,-139.85 4260,-98 4262.87,-97.62 4265.8,-97.15 4268.75,-96.63"/>
<polygon fill="midnightblue" stroke="midnightblue" points="2695.31,-139.51 2685.32,-143.02 2695.32,-146.51 2695.31,-139.51"/>
</g>
<!-- Node33 -->
<g id="node33" class="node">
<title>Node33</title>
<g id="a_node33"><a xlink:href="vdp__set__screen__mode_8c.html" target="_top" xlink:title="Copyright (c) 2021 Daishi Mori (mori0091)">
<polygon fill="none" stroke="black" points="4389,-67.5 4389,-97.5 4491,-97.5 4491,-67.5 4389,-67.5"/>
<text text-anchor="start" x="4397" y="-85.5" font-family="Helvetica,sans-Serif" font-size="10.00">src/vdp_set_screen</text>
<text text-anchor="middle" x="4440" y="-74.5" font-family="Helvetica,sans-Serif" font-size="10.00">_mode.c</text>
</a>
</g>
</g>
<!-- Node8&#45;&gt;Node33 -->
<g id="edge35" class="edge">
<title>Node8&#45;&gt;Node33</title>
<path fill="none" stroke="midnightblue" d="M2695.42,-143.12C2937.91,-143.53 4040.99,-142.85 4380,-98 4382.87,-97.62 4385.8,-97.16 4388.75,-96.64"/>
<polygon fill="midnightblue" stroke="midnightblue" points="2695.19,-139.62 2685.18,-143.1 2695.18,-146.62 2695.19,-139.62"/>
</g>
<!-- Node34 -->
<g id="node34" class="node">
<title>Node34</title>
<g id="a_node34"><a xlink:href="vdp__set__sprite__attribute__table_8c.html" target="_top" xlink:title="Copyright (c) 2021 Daishi Mori (mori0091)">
<polygon fill="none" stroke="black" points="4508.5,-67.5 4508.5,-97.5 4605.5,-97.5 4605.5,-67.5 4508.5,-67.5"/>
<text text-anchor="start" x="4516.5" y="-85.5" font-family="Helvetica,sans-Serif" font-size="10.00">src/vdp_set_sprite</text>
<text text-anchor="middle" x="4557" y="-74.5" font-family="Helvetica,sans-Serif" font-size="10.00">_attribute_table.c</text>
</a>
</g>
</g>
<!-- Node8&#45;&gt;Node34 -->
<g id="edge36" class="edge">
<title>Node8&#45;&gt;Node34</title>
<path fill="none" stroke="midnightblue" d="M2695.43,-143.29C2947.92,-144.61 4136.22,-148.04 4500,-98 4502.73,-97.62 4505.52,-97.17 4508.32,-96.65"/>
<polygon fill="midnightblue" stroke="midnightblue" points="2695.16,-139.79 2685.14,-143.23 2695.12,-146.79 2695.16,-139.79"/>
</g>
<!-- Node35 -->
<g id="node35" class="node">
<title>Node35</title>
<g id="a_node35"><a xlink:href="vdp__set__sprite__pattern__table_8c.html" target="_top" xlink:title="Copyright (c) 2021 Daishi Mori (mori0091)">
<polygon fill="none" stroke="black" points="4623.5,-67.5 4623.5,-97.5 4720.5,-97.5 4720.5,-67.5 4623.5,-67.5"/>
<text text-anchor="start" x="4631.5" y="-85.5" font-family="Helvetica,sans-Serif" font-size="10.00">src/vdp_set_sprite</text>
<text text-anchor="middle" x="4672" y="-74.5" font-family="Helvetica,sans-Serif" font-size="10.00">_pattern_table.c</text>
</a>
</g>
</g>
<!-- Node8&#45;&gt;Node35 -->
<g id="edge37" class="edge">
<title>Node8&#45;&gt;Node35</title>
<path fill="none" stroke="midnightblue" d="M2695.36,-142.56C2976.43,-139.85 4419.64,-124.73 4615,-98 4617.73,-97.63 4620.52,-97.17 4623.33,-96.65"/>
<polygon fill="midnightblue" stroke="midnightblue" points="2695.07,-139.06 2685.1,-142.66 2695.14,-146.06 2695.07,-139.06"/>
</g>
<!-- Node36 -->
<g id="node36" class="node">
<title>Node36</title>
<g id="a_node36"><a xlink:href="vdp__set__sprite__size_8c.html" target="_top" xlink:title="Copyright (c) 2021 Daishi Mori (mori0091)">
<polygon fill="none" stroke="black" points="4738.5,-67.5 4738.5,-97.5 4835.5,-97.5 4835.5,-67.5 4738.5,-67.5"/>
<text text-anchor="start" x="4746.5" y="-85.5" font-family="Helvetica,sans-Serif" font-size="10.00">src/vdp_set_sprite</text>
<text text-anchor="middle" x="4787" y="-74.5" font-family="Helvetica,sans-Serif" font-size="10.00">_size.c</text>
</a>
</g>
</g>
<!-- Node8&#45;&gt;Node36 -->
<g id="edge38" class="edge">
<title>Node8&#45;&gt;Node36</title>
<path fill="none" stroke="midnightblue" d="M2695.34,-142.62C2985.93,-140.22 4522.55,-126.25 4730,-98 4732.73,-97.63 4735.52,-97.17 4738.33,-96.66"/>
<polygon fill="midnightblue" stroke="midnightblue" points="2695.12,-139.12 2685.14,-142.71 2695.17,-146.12 2695.12,-139.12"/>
</g>
<!-- Node37 -->
<g id="node37" class="node">
<title>Node37</title>
<g id="a_node37"><a xlink:href="vdp__set__sprite__visible_8c.html" target="_top" xlink:title="Copyright (c) 2021 Daishi Mori (mori0091)">
<polygon fill="none" stroke="black" points="4853.5,-67.5 4853.5,-97.5 4950.5,-97.5 4950.5,-67.5 4853.5,-67.5"/>
<text text-anchor="start" x="4861.5" y="-85.5" font-family="Helvetica,sans-Serif" font-size="10.00">src/vdp_set_sprite</text>
<text text-anchor="middle" x="4902" y="-74.5" font-family="Helvetica,sans-Serif" font-size="10.00">_visible.c</text>
</a>
</g>
</g>
<!-- Node8&#45;&gt;Node37 -->
<g id="edge39" class="edge">
<title>Node8&#45;&gt;Node37</title>
<path fill="none" stroke="midnightblue" d="M2695.09,-142.68C2994.33,-140.57 4625.39,-127.78 4845,-98 4847.73,-97.63 4850.52,-97.18 4853.33,-96.66"/>
<polygon fill="midnightblue" stroke="midnightblue" points="2694.99,-139.18 2685.01,-142.75 2695.03,-146.18 2694.99,-139.18"/>
</g>
<!-- Node38 -->
<g id="node38" class="node">
<title>Node38</title>
<g id="a_node38"><a xlink:href="vdp__set__visible_8c.html" target="_top" xlink:title="Copyright (c) 2021 Daishi Mori (mori0091)">
<polygon fill="none" stroke="black" points="674,-73 674,-92 782,-92 782,-73 674,-73"/>
<text text-anchor="middle" x="728" y="-80" font-family="Helvetica,sans-Serif" font-size="10.00">src/vdp_set_visible.c</text>
</a>
</g>
</g>
<!-- Node8&#45;&gt;Node38 -->
<g id="edge40" class="edge">
<title>Node8&#45;&gt;Node38</title>
<path fill="none" stroke="midnightblue" d="M2600.46,-143.15C2347.39,-143.74 1156.31,-143.99 791,-98 780.64,-96.7 769.5,-94.43 759.5,-92.06"/>
<polygon fill="midnightblue" stroke="midnightblue" points="2600.79,-146.65 2610.78,-143.12 2600.77,-139.65 2600.79,-146.65"/>
</g>
<!-- Node39 -->
<g id="node39" class="node">
<title>Node39</title>
<g id="a_node39"><a xlink:href="vdp__set__vscroll_8c.html" target="_top" xlink:title="Copyright (c) 2021 Daishi Mori (mori0091)">
<polygon fill="none" stroke="black" points="800.5,-73 800.5,-92 909.5,-92 909.5,-73 800.5,-73"/>
<text text-anchor="middle" x="855" y="-80" font-family="Helvetica,sans-Serif" font-size="10.00">src/vdp_set_vscroll.c</text>
</a>
</g>
</g>
<!-- Node8&#45;&gt;Node39 -->
<g id="edge41" class="edge">
<title>Node8&#45;&gt;Node39</title>
<path fill="none" stroke="midnightblue" d="M2600.64,-143.05C2358.48,-143.11 1256.85,-140.96 918,-98 907.65,-96.69 896.5,-94.41 886.5,-92.05"/>
<polygon fill="midnightblue" stroke="midnightblue" points="2600.87,-146.55 2610.87,-143.05 2600.86,-139.55 2600.87,-146.55"/>
</g>
<!-- Node40 -->
<g id="node40" class="node">
<title>Node40</title>
<g id="a_node40"><a xlink:href="vdp__write__control_8c.html" target="_top" xlink:title="Copyright (c) 2021 Daishi Mori (mori0091)">
<polygon fill="none" stroke="black" points="927.5,-73 927.5,-92 1044.5,-92 1044.5,-73 927.5,-73"/>
<text text-anchor="middle" x="986" y="-80" font-family="Helvetica,sans-Serif" font-size="10.00">src/vdp_write_control.c</text>
</a>
</g>
</g>
<!-- Node8&#45;&gt;Node40 -->
<g id="edge42" class="edge">
<title>Node8&#45;&gt;Node40</title>
<path fill="none" stroke="midnightblue" d="M2600.68,-142.85C2370.24,-141.91 1363.96,-135.71 1053,-98 1042.01,-96.67 1030.17,-94.39 1019.53,-92.03"/>
<polygon fill="midnightblue" stroke="midnightblue" points="2600.74,-146.35 2610.75,-142.88 2600.77,-139.35 2600.74,-146.35"/>
</g>
<!-- Node41 -->
<g id="node41" class="node">
<title>Node41</title>
<g id="a_node41"><a xlink:href="vdp__write__palette_8c.html" target="_top" xlink:title="Copyright (c) 2021 Daishi Mori (mori0091)">
<polygon fill="none" stroke="black" points="1062.5,-73 1062.5,-92 1179.5,-92 1179.5,-73 1062.5,-73"/>
<text text-anchor="middle" x="1121" y="-80" font-family="Helvetica,sans-Serif" font-size="10.00">src/vdp_write_palette.c</text>
</a>
</g>
</g>
<!-- Node8&#45;&gt;Node41 -->
<g id="edge43" class="edge">
<title>Node8&#45;&gt;Node41</title>
<path fill="none" stroke="midnightblue" d="M2600.56,-142.68C2382.12,-141.03 1471.65,-132.21 1189,-98 1177.86,-96.65 1165.83,-94.37 1155.04,-92.01"/>
<polygon fill="midnightblue" stroke="midnightblue" points="2600.71,-146.18 2610.73,-142.76 2600.76,-139.18 2600.71,-146.18"/>
</g>
<!-- Node42 -->
<g id="node42" class="node">
<title>Node42</title>
<g id="a_node42"><a xlink:href="vmem__memset_8c.html" target="_top" xlink:title="Copyright (c) 2021 Daishi Mori (mori0091)">
<polygon fill="none" stroke="black" points="1198,-73 1198,-92 1306,-92 1306,-73 1198,-73"/>
<text text-anchor="middle" x="1252" y="-80" font-family="Helvetica,sans-Serif" font-size="10.00">src/vmem_memset.c</text>
</a>
</g>
</g>
<!-- Node8&#45;&gt;Node42 -->
<g id="edge44" class="edge">
<title>Node8&#45;&gt;Node42</title>
<path fill="none" stroke="midnightblue" d="M2600.7,-142.62C2394.28,-140.79 1571.29,-131.5 1315,-98 1304.65,-96.65 1293.51,-94.36 1283.51,-92"/>
<polygon fill="midnightblue" stroke="midnightblue" points="2600.87,-146.13 2610.9,-142.71 2600.93,-139.13 2600.87,-146.13"/>
</g>
<!-- Node43 -->
<g id="node43" class="node">
<title>Node43</title>
<g id="a_node43"><a xlink:href="vmem__read_8c.html" target="_top" xlink:title="Copyright (c) 2021 Daishi Mori (mori0091)">
<polygon fill="none" stroke="black" points="1324,-73 1324,-92 1416,-92 1416,-73 1324,-73"/>
<text text-anchor="middle" x="1370" y="-80" font-family="Helvetica,sans-Serif" font-size="10.00">src/vmem_read.c</text>
</a>
</g>
</g>
<!-- Node8&#45;&gt;Node43 -->
<g id="edge45" class="edge">
<title>Node8&#45;&gt;Node43</title>
<path fill="none" stroke="midnightblue" d="M2600.49,-142.65C2404.47,-141.01 1657.94,-132.56 1425,-98 1415.92,-96.65 1406.17,-94.37 1397.45,-92.01"/>
<polygon fill="midnightblue" stroke="midnightblue" points="2600.72,-146.16 2610.74,-142.74 2600.77,-139.16 2600.72,-146.16"/>
</g>
<!-- Node44 -->
<g id="node44" class="node">
<title>Node44</title>
<g id="a_node44"><a xlink:href="vmem__set__read__address_8c.html" target="_top" xlink:title="Copyright (c) 2021 Daishi Mori (mori0091)">
<polygon fill="none" stroke="black" points="1434,-73 1434,-92 1584,-92 1584,-73 1434,-73"/>
<text text-anchor="middle" x="1509" y="-80" font-family="Helvetica,sans-Serif" font-size="10.00">src/vmem_set_read_address.c</text>
</a>
</g>
</g>
<!-- Node8&#45;&gt;Node44 -->
<g id="edge46" class="edge">
<title>Node8&#45;&gt;Node44</title>
<path fill="none" stroke="midnightblue" d="M2600.83,-143.14C2452.21,-143.12 1980.62,-139.55 1593,-98 1579.61,-96.56 1565.12,-94.32 1552.02,-92.02"/>
<polygon fill="midnightblue" stroke="midnightblue" points="2600.97,-146.64 2610.96,-143.14 2600.96,-139.64 2600.97,-146.64"/>
</g>
<!-- Node45 -->
<g id="node45" class="node">
<title>Node45</title>
<g id="a_node45"><a xlink:href="vmem__set__sprite__color__s_8c.html" target="_top" xlink:title="Copyright (c) 2021 Daishi Mori (mori0091)">
<polygon fill="none" stroke="black" points="596,-0.5 596,-30.5 704,-30.5 704,-0.5 596,-0.5"/>
<text text-anchor="start" x="604" y="-18.5" font-family="Helvetica,sans-Serif" font-size="10.00">src/vmem_set_sprite</text>
<text text-anchor="middle" x="650" y="-7.5" font-family="Helvetica,sans-Serif" font-size="10.00">_color_s.c</text>
</a>
</g>
</g>
<!-- Node8&#45;&gt;Node45 -->
<g id="edge47" class="edge">
<title>Node8&#45;&gt;Node45</title>
<path fill="none" stroke="midnightblue" d="M2695.03,-142.99C3019.89,-142.8 4918.87,-139.93 4960,-98 4969.65,-88.16 4969.69,-76.8 4960,-67 4920.72,-27.26 1200.14,-17.71 704.36,-16.61"/>
<polygon fill="midnightblue" stroke="midnightblue" points="2695.01,-139.49 2685.01,-142.99 2695.01,-146.49 2695.01,-139.49"/>
</g>
<!-- Node46 -->
<g id="node46" class="node">
<title>Node46</title>
<g id="a_node46"><a xlink:href="vmem__set__write__address_8c.html" target="_top" xlink:title="Copyright (c) 2021 Daishi Mori (mori0091)">
<polygon fill="none" stroke="black" points="1602.5,-67.5 1602.5,-97.5 1707.5,-97.5 1707.5,-67.5 1602.5,-67.5"/>
<text text-anchor="start" x="1610.5" y="-85.5" font-family="Helvetica,sans-Serif" font-size="10.00">src/vmem_set_write</text>
<text text-anchor="middle" x="1655" y="-74.5" font-family="Helvetica,sans-Serif" font-size="10.00">_address.c</text>
</a>
</g>
</g>
<!-- Node8&#45;&gt;Node46 -->
<g id="edge48" class="edge">
<title>Node8&#45;&gt;Node46</title>
<path fill="none" stroke="midnightblue" d="M2600.73,-141.85C2436.38,-137.67 1890.48,-122.27 1717,-98 1713.93,-97.57 1710.8,-97.06 1707.64,-96.5"/>
<polygon fill="midnightblue" stroke="midnightblue" points="2600.91,-145.36 2610.99,-142.11 2601.08,-138.36 2600.91,-145.36"/>
</g>
<!-- Node47 -->
<g id="node47" class="node">
<title>Node47</title>
<g id="a_node47"><a xlink:href="vmem__write_8c.html" target="_top" xlink:title="Copyright (c) 2021 Daishi Mori (mori0091)">
<polygon fill="none" stroke="black" points="1726,-73 1726,-92 1820,-92 1820,-73 1726,-73"/>
<text text-anchor="middle" x="1773" y="-80" font-family="Helvetica,sans-Serif" font-size="10.00">src/vmem_write.c</text>
</a>
</g>
</g>
<!-- Node8&#45;&gt;Node47 -->
<g id="edge49" class="edge">
<title>Node8&#45;&gt;Node47</title>
<path fill="none" stroke="midnightblue" d="M2600.92,-143.66C2474.92,-144.74 2119.84,-143.18 1829,-98 1819.97,-96.6 1810.28,-94.36 1801.55,-92.06"/>
<polygon fill="midnightblue" stroke="midnightblue" points="2601.03,-147.16 2611,-143.57 2600.96,-140.16 2601.03,-147.16"/>
</g>
<!-- Node9&#45;&gt;Node2 -->
<g id="edge10" class="edge">
<title>Node9&#45;&gt;Node2</title>
<path fill="none" stroke="midnightblue" d="M306.95,-71.08C356.2,-61.72 429.16,-47.01 492,-31 498.92,-29.24 506.33,-27.12 513.21,-25.05"/>
<polygon fill="midnightblue" stroke="midnightblue" points="306.3,-67.64 297.13,-72.93 307.6,-74.52 306.3,-67.64"/>
</g>
<!-- Node10 -->
<g id="node10" class="node">
<title>Node10</title>
<g id="a_node10"><a xlink:href="vmem__set__metasprite__a_8c.html" target="_top" xlink:title="Copyright (c) 2021 Daishi Mori (mori0091)">
<polygon fill="none" stroke="black" points="0,-6 0,-25 148,-25 148,-6 0,-6"/>
<text text-anchor="middle" x="74" y="-13" font-family="Helvetica,sans-Serif" font-size="10.00">src/vmem_set_metasprite_a.c</text>
</a>
</g>
</g>
<!-- Node9&#45;&gt;Node10 -->
<g id="edge11" class="edge">
<title>Node9&#45;&gt;Node10</title>
<path fill="none" stroke="midnightblue" d="M216.89,-69.27C181.96,-56.37 127.82,-36.38 97.19,-25.06"/>
<polygon fill="midnightblue" stroke="midnightblue" points="216.04,-72.69 226.63,-72.87 218.46,-66.12 216.04,-72.69"/>
</g>
<!-- Node11 -->
<g id="node11" class="node">
<title>Node11</title>
<g id="a_node11"><a xlink:href="vmem__set__metasprite__m_8c.html" target="_top" xlink:title="Copyright (c) 2021 Daishi Mori (mori0091)">
<polygon fill="none" stroke="black" points="332.5,-6 332.5,-25 483.5,-25 483.5,-6 332.5,-6"/>
<text text-anchor="middle" x="408" y="-13" font-family="Helvetica,sans-Serif" font-size="10.00">src/vmem_set_metasprite_m.c</text>
</a>
</g>
</g>
<!-- Node9&#45;&gt;Node11 -->
<g id="edge12" class="edge">
<title>Node9&#45;&gt;Node11</title>
<path fill="none" stroke="midnightblue" d="M280.51,-68.95C311.79,-56.08 359.62,-36.4 386.93,-25.17"/>
<polygon fill="midnightblue" stroke="midnightblue" points="278.9,-65.83 270.98,-72.87 281.56,-72.3 278.9,-65.83"/>
</g>
<!-- Node12 -->
<g id="node12" class="node">
<title>Node12</title>
<g id="a_node12"><a xlink:href="vmem__set__metasprite__s_8c.html" target="_top" xlink:title="Copyright (c) 2021 Daishi Mori (mori0091)">
<polygon fill="none" stroke="black" points="166,-6 166,-25 314,-25 314,-6 166,-6"/>
<text text-anchor="middle" x="240" y="-13" font-family="Helvetica,sans-Serif" font-size="10.00">src/vmem_set_metasprite_s.c</text>
</a>
</g>
</g>
<!-- Node9&#45;&gt;Node12 -->
<g id="edge13" class="edge">
<title>Node9&#45;&gt;Node12</title>
<path fill="none" stroke="midnightblue" d="M247.08,-62.54C245.18,-50.17 242.79,-34.62 241.33,-25.13"/>
<polygon fill="midnightblue" stroke="midnightblue" points="243.67,-63.38 248.65,-72.73 250.59,-62.32 243.67,-63.38"/>
</g>
<!-- Node48&#45;&gt;Node2 -->
<g id="edge52" class="edge">
<title>Node48&#45;&gt;Node2</title>
<path fill="none" stroke="midnightblue" d="M532.85,-179.72C534.56,-140.56 538.4,-53.09 539.62,-25.21"/>
<polygon fill="midnightblue" stroke="midnightblue" points="529.33,-180.05 532.39,-190.2 536.32,-180.36 529.33,-180.05"/>
</g>
<!-- Node48&#45;&gt;Node8 -->
<g id="edge65" class="edge">
<title>Node48&#45;&gt;Node8</title>
<path fill="none" stroke="midnightblue" d="M584.88,-197.65C883.75,-190.02 2357.05,-152.42 2610.77,-145.95"/>
<polygon fill="midnightblue" stroke="midnightblue" points="584.65,-194.16 574.75,-197.91 584.83,-201.15 584.65,-194.16"/>
</g>
<!-- Node48&#45;&gt;Node9 -->
<g id="edge51" class="edge">
<title>Node48&#45;&gt;Node9</title>
<path fill="none" stroke="midnightblue" d="M479.45,-195.45C414.86,-190.11 310.11,-177.98 280,-154 260.23,-138.25 253.28,-107.05 251.01,-92"/>
<polygon fill="midnightblue" stroke="midnightblue" points="479.21,-198.94 489.45,-196.25 479.76,-191.96 479.21,-198.94"/>
</g>
<!-- Node48&#45;&gt;Node45 -->
<g id="edge66" class="edge">
<title>Node48&#45;&gt;Node45</title>
<path fill="none" stroke="midnightblue" d="M543.15,-181.75C566.35,-145.87 619.44,-63.77 640.82,-30.69"/>
<polygon fill="midnightblue" stroke="midnightblue" points="540.18,-179.9 537.69,-190.2 546.06,-183.7 540.18,-179.9"/>
</g>
<!-- Node49 -->
<g id="node49" class="node">
<title>Node49</title>
<g id="a_node49"><a xlink:href="sprite_8h.html" target="_top" xlink:title="Copyright (c) 2021 Daishi Mori (mori0091)">
<polygon fill="none" stroke="red" points="289,-134.5 289,-153.5 371,-153.5 371,-134.5 289,-134.5"/>
<text text-anchor="middle" x="330" y="-141.5" font-family="Helvetica,sans-Serif" font-size="10.00">include/sprite.h</text>
</a>
</g>
</g>
<!-- Node48&#45;&gt;Node49 -->
<g id="edge53" class="edge">
<title>Node48&#45;&gt;Node49</title>
<path fill="none" stroke="midnightblue" d="M490.21,-187.83C452.07,-177.63 396.52,-162.78 361.86,-153.52"/>
<polygon fill="midnightblue" stroke="midnightblue" points="489.43,-191.24 499.99,-190.44 491.24,-184.48 489.43,-191.24"/>
</g>
<!-- Node50 -->
<g id="node50" class="node">
<title>Node50</title>
<g id="a_node50"><a xlink:href="sprite__color_8h.html" target="_top" xlink:title="Copyright (c) 2021 Daishi Mori (mori0091)">
<polygon fill="none" stroke="red" points="358,-73 358,-92 466,-92 466,-73 358,-73"/>
<text text-anchor="middle" x="412" y="-80" font-family="Helvetica,sans-Serif" font-size="10.00">include/sprite_color.h</text>
</a>
</g>
</g>
<!-- Node48&#45;&gt;Node50 -->
<g id="edge64" class="edge">
<title>Node48&#45;&gt;Node50</title>
<path fill="none" stroke="midnightblue" d="M515.53,-183.15C489.89,-158.47 441.29,-111.69 421.12,-92.28"/>
<polygon fill="midnightblue" stroke="midnightblue" points="513.35,-185.91 522.98,-190.32 518.2,-180.86 513.35,-185.91"/>
</g>
<!-- Node49&#45;&gt;Node2 -->
<g id="edge55" class="edge">
<title>Node49&#45;&gt;Node2</title>
<path fill="none" stroke="midnightblue" d="M381.35,-134.83C410.68,-128.34 447.06,-117.08 475,-98 503.99,-78.2 526.37,-41.6 535.51,-25.04"/>
<polygon fill="midnightblue" stroke="midnightblue" points="380.37,-131.46 371.3,-136.93 381.8,-138.31 380.37,-131.46"/>
</g>
<!-- Node49&#45;&gt;Node9 -->
<g id="edge54" class="edge">
<title>Node49&#45;&gt;Node9</title>
<path fill="none" stroke="midnightblue" d="M310.23,-128.29C294.88,-116.88 274.14,-101.46 261.44,-92.01"/>
<polygon fill="midnightblue" stroke="midnightblue" points="308.43,-131.32 318.54,-134.48 312.6,-125.7 308.43,-131.32"/>
</g>
<!-- Node49&#45;&gt;Node10 -->
<g id="edge61" class="edge">
<title>Node49&#45;&gt;Node10</title>
<path fill="none" stroke="midnightblue" d="M279.19,-132.63C249.28,-125.36 211.31,-114.04 180,-98 140.13,-77.57 100.13,-41.62 82.85,-25.17"/>
<polygon fill="midnightblue" stroke="midnightblue" points="278.46,-136.06 289,-134.95 280.07,-129.25 278.46,-136.06"/>
</g>
<!-- Node49&#45;&gt;Node11 -->
<g id="edge62" class="edge">
<title>Node49&#45;&gt;Node11</title>
<path fill="none" stroke="midnightblue" d="M331.5,-124.04C333.51,-107.86 338.18,-84.5 349,-67 360.21,-48.88 380.05,-33.89 393.61,-25.07"/>
<polygon fill="midnightblue" stroke="midnightblue" points="327.98,-124.06 330.46,-134.36 334.95,-124.77 327.98,-124.06"/>
</g>
<!-- Node49&#45;&gt;Node12 -->
<g id="edge63" class="edge">
<title>Node49&#45;&gt;Node12</title>
<path fill="none" stroke="midnightblue" d="M278.92,-141.11C247.5,-136.98 209.45,-125.99 189,-98 170.39,-72.53 207.06,-40.24 227.52,-25.09"/>
<polygon fill="midnightblue" stroke="midnightblue" points="278.53,-144.59 288.86,-142.22 279.31,-137.63 278.53,-144.59"/>
</g>
<!-- Node49&#45;&gt;Node50 -->
<g id="edge56" class="edge">
<title>Node49&#45;&gt;Node50</title>
<path fill="none" stroke="midnightblue" d="M350.27,-128.29C366,-116.88 387.25,-101.46 400.27,-92.01"/>
<polygon fill="midnightblue" stroke="midnightblue" points="347.79,-125.77 341.75,-134.48 351.9,-131.43 347.79,-125.77"/>
</g>
<!-- Node50&#45;&gt;Node2 -->
<g id="edge57" class="edge">
<title>Node50&#45;&gt;Node2</title>
<path fill="none" stroke="midnightblue" d="M438.05,-68.27C463.4,-55.4 501.19,-36.21 522.93,-25.17"/>
<polygon fill="midnightblue" stroke="midnightblue" points="436.33,-65.22 429,-72.87 439.5,-71.46 436.33,-65.22"/>
</g>
<!-- Node50&#45;&gt;Node11 -->
<g id="edge58" class="edge">
<title>Node50&#45;&gt;Node11</title>
<path fill="none" stroke="midnightblue" d="M410.83,-62.54C410.07,-50.17 409.12,-34.62 408.53,-25.13"/>
<polygon fill="midnightblue" stroke="midnightblue" points="407.35,-62.97 411.46,-72.73 414.34,-62.54 407.35,-62.97"/>
</g>
<!-- Node50&#45;&gt;Node12 -->
<g id="edge59" class="edge">
<title>Node50&#45;&gt;Node12</title>
<path fill="none" stroke="midnightblue" d="M379.64,-69.27C345.5,-56.37 292.59,-36.38 262.66,-25.06"/>
<polygon fill="midnightblue" stroke="midnightblue" points="378.57,-72.61 389.16,-72.87 381.04,-66.06 378.57,-72.61"/>
</g>
<!-- Node50&#45;&gt;Node45 -->
<g id="edge60" class="edge">
<title>Node50&#45;&gt;Node45</title>
<path fill="none" stroke="midnightblue" d="M453.38,-70.2C493.73,-59.18 555.19,-42.39 598.64,-30.53"/>
<polygon fill="midnightblue" stroke="midnightblue" points="452.33,-66.86 443.6,-72.87 454.17,-73.61 452.33,-66.86"/>
</g>
</g>
</svg>
