<?xml version="1.0" encoding="UTF-8" standalone="no"?>
<!DOCTYPE svg PUBLIC "-//W3C//DTD SVG 1.1//EN"
 "http://www.w3.org/Graphics/SVG/1.1/DTD/svg11.dtd">
<!-- Generated by graphviz version 2.43.0 (0)
 -->
<!-- Title: include/io.h Pages: 1 -->
<svg width="5479pt" height="263pt"
 viewBox="0.00 0.00 5478.71 263.00" xmlns="http://www.w3.org/2000/svg" xmlns:xlink="http://www.w3.org/1999/xlink">
<g id="graph0" class="graph" transform="scale(1 1) rotate(0) translate(4 259)">
<title>include/io.h</title>
<!-- Node1 -->
<g id="node1" class="node">
<title>Node1</title>
<g id="a_node1"><a xlink:title=" ">
<polygon fill="#bfbfbf" stroke="black" points="3027.71,-235.5 3027.71,-254.5 3100.71,-254.5 3100.71,-235.5 3027.71,-235.5"/>
<text text-anchor="middle" x="3064.21" y="-242.5" font-family="Helvetica,sans-Serif" font-size="10.00">include/io.h</text>
</a>
</g>
</g>
<!-- Node2 -->
<g id="node2" class="node">
<title>Node2</title>
<g id="a_node2"><a xlink:href="vdp_8h.html" target="_top" xlink:title=" ">
<polygon fill="none" stroke="black" points="2504.21,-123.5 2504.21,-142.5 2586.21,-142.5 2586.21,-123.5 2504.21,-123.5"/>
<text text-anchor="middle" x="2545.21" y="-130.5" font-family="Helvetica,sans-Serif" font-size="10.00">include/vdp.h</text>
</a>
</g>
</g>
<!-- Node1&#45;&gt;Node2 -->
<g id="edge1" class="edge">
<title>Node1&#45;&gt;Node2</title>
<path fill="none" stroke="midnightblue" d="M3017.4,-234.08C2916.52,-212.7 2680.14,-162.6 2585.46,-142.53"/>
<polygon fill="midnightblue" stroke="midnightblue" points="3016.79,-237.53 3027.3,-236.18 3018.24,-230.68 3016.79,-237.53"/>
</g>
<!-- Node4 -->
<g id="node4" class="node">
<title>Node4</title>
<g id="a_node4"><a xlink:href="msx_8h.html" target="_top" xlink:title=" ">
<polygon fill="none" stroke="black" points="4502.71,-0.5 4502.71,-19.5 4587.71,-19.5 4587.71,-0.5 4502.71,-0.5"/>
<text text-anchor="middle" x="4545.21" y="-7.5" font-family="Helvetica,sans-Serif" font-size="10.00">include/msx.h</text>
</a>
</g>
</g>
<!-- Node1&#45;&gt;Node4 -->
<g id="edge56" class="edge">
<title>Node1&#45;&gt;Node4</title>
<path fill="none" stroke="midnightblue" d="M3017.26,-243.41C2640.13,-238.46 115.57,-201.07 7.21,-87 -2.28,-77.01 -2.49,-65.79 7.21,-56 49.01,-13.78 4044.22,-11.17 4502.52,-11.01"/>
<polygon fill="midnightblue" stroke="midnightblue" points="3017.49,-246.91 3027.53,-243.54 3017.58,-239.91 3017.49,-246.91"/>
</g>
<!-- Node41 -->
<g id="node41" class="node">
<title>Node41</title>
<g id="a_node41"><a xlink:href="vmem_8h.html" target="_top" xlink:title=" ">
<polygon fill="none" stroke="black" points="4016.71,-179.5 4016.71,-198.5 4111.71,-198.5 4111.71,-179.5 4016.71,-179.5"/>
<text text-anchor="middle" x="4064.21" y="-186.5" font-family="Helvetica,sans-Serif" font-size="10.00">include/vmem.h</text>
</a>
</g>
</g>
<!-- Node1&#45;&gt;Node41 -->
<g id="edge41" class="edge">
<title>Node1&#45;&gt;Node41</title>
<path fill="none" stroke="midnightblue" d="M3110.97,-241.47C3278.55,-232.43 3847.94,-201.68 4016.7,-192.57"/>
<polygon fill="midnightblue" stroke="midnightblue" points="3110.78,-237.98 3100.98,-242.01 3111.16,-244.97 3110.78,-237.98"/>
</g>
<!-- Node48 -->
<g id="node48" class="node">
<title>Node48</title>
<g id="a_node48"><a xlink:href="joypad__get__state_8c.html" target="_top" xlink:title=" ">
<polygon fill="none" stroke="black" points="4130.21,-179.5 4130.21,-198.5 4256.21,-198.5 4256.21,-179.5 4130.21,-179.5"/>
<text text-anchor="middle" x="4193.21" y="-186.5" font-family="Helvetica,sans-Serif" font-size="10.00">src/joypad_get_state.c</text>
</a>
</g>
</g>
<!-- Node1&#45;&gt;Node48 -->
<g id="edge57" class="edge">
<title>Node1&#45;&gt;Node48</title>
<path fill="none" stroke="midnightblue" d="M3110.84,-243.34C3258.79,-240.98 3730.89,-231.24 4120.21,-199 4123.39,-198.74 4126.64,-198.44 4129.93,-198.12"/>
<polygon fill="midnightblue" stroke="midnightblue" points="3110.69,-239.85 3100.75,-243.5 3110.8,-246.85 3110.69,-239.85"/>
</g>
<!-- Node3 -->
<g id="node3" class="node">
<title>Node3</title>
<g id="a_node3"><a xlink:href="metasprite_8h.html" target="_top" xlink:title=" ">
<polygon fill="none" stroke="black" points="4573.71,-62 4573.71,-81 4690.71,-81 4690.71,-62 4573.71,-62"/>
<text text-anchor="middle" x="4632.21" y="-69" font-family="Helvetica,sans-Serif" font-size="10.00">include/metasprite.h</text>
</a>
</g>
</g>
<!-- Node2&#45;&gt;Node3 -->
<g id="edge2" class="edge">
<title>Node2&#45;&gt;Node3</title>
<path fill="none" stroke="midnightblue" d="M2596.78,-131.61C2868.3,-129.44 4134.31,-117.83 4525.21,-87 4542.49,-85.64 4561.26,-83.37 4578.17,-81.02"/>
<polygon fill="midnightblue" stroke="midnightblue" points="2596.41,-128.11 2586.44,-131.69 2596.46,-135.11 2596.41,-128.11"/>
</g>
<!-- Node2&#45;&gt;Node4 -->
<g id="edge7" class="edge">
<title>Node2&#45;&gt;Node4</title>
<path fill="none" stroke="midnightblue" d="M2596.49,-128.94C2680.9,-123.32 2845.07,-109.81 2898.21,-87 2918.23,-78.4 2915.78,-63.6 2936.21,-56 3011.63,-27.94 4254.31,-13.94 4502.34,-11.42"/>
<polygon fill="midnightblue" stroke="midnightblue" points="2596.11,-125.46 2586.35,-129.6 2596.56,-132.44 2596.11,-125.46"/>
</g>
<!-- Node8 -->
<g id="node8" class="node">
<title>Node8</title>
<g id="a_node8"><a xlink:href="vdp_8c.html" target="_top" xlink:title=" ">
<polygon fill="none" stroke="black" points="1403.21,-62 1403.21,-81 1463.21,-81 1463.21,-62 1403.21,-62"/>
<text text-anchor="middle" x="1433.21" y="-69" font-family="Helvetica,sans-Serif" font-size="10.00">src/vdp.c</text>
</a>
</g>
</g>
<!-- Node2&#45;&gt;Node8 -->
<g id="edge8" class="edge">
<title>Node2&#45;&gt;Node8</title>
<path fill="none" stroke="midnightblue" d="M2494.16,-131.97C2308.75,-131.55 1671.32,-127.14 1472.21,-87 1465.69,-85.69 1458.82,-83.44 1452.7,-81.11"/>
<polygon fill="midnightblue" stroke="midnightblue" points="2494.18,-135.47 2504.19,-131.99 2494.2,-128.47 2494.18,-135.47"/>
</g>
<!-- Node9 -->
<g id="node9" class="node">
<title>Node9</title>
<g id="a_node9"><a xlink:href="vdp__cmd__execute__HMMM_8c.html" target="_top" xlink:title=" ">
<polygon fill="none" stroke="black" points="1481.21,-56.5 1481.21,-86.5 1603.21,-86.5 1603.21,-56.5 1481.21,-56.5"/>
<text text-anchor="start" x="1489.21" y="-74.5" font-family="Helvetica,sans-Serif" font-size="10.00">src/vdp_cmd_execute</text>
<text text-anchor="middle" x="1542.21" y="-63.5" font-family="Helvetica,sans-Serif" font-size="10.00">_HMMM.c</text>
</a>
</g>
</g>
<!-- Node2&#45;&gt;Node9 -->
<g id="edge9" class="edge">
<title>Node2&#45;&gt;Node9</title>
<path fill="none" stroke="midnightblue" d="M2493.99,-132.33C2352.83,-132.62 1946.51,-129.42 1612.21,-87 1609.37,-86.64 1606.49,-86.23 1603.58,-85.78"/>
<polygon fill="midnightblue" stroke="midnightblue" points="2494.09,-135.83 2504.08,-132.3 2494.07,-128.83 2494.09,-135.83"/>
</g>
<!-- Node10 -->
<g id="node10" class="node">
<title>Node10</title>
<g id="a_node10"><a xlink:href="vdp__cmd__execute__HMMV_8c.html" target="_top" xlink:title=" ">
<polygon fill="none" stroke="black" points="1621.21,-56.5 1621.21,-86.5 1743.21,-86.5 1743.21,-56.5 1621.21,-56.5"/>
<text text-anchor="start" x="1629.21" y="-74.5" font-family="Helvetica,sans-Serif" font-size="10.00">src/vdp_cmd_execute</text>
<text text-anchor="middle" x="1682.21" y="-63.5" font-family="Helvetica,sans-Serif" font-size="10.00">_HMMV.c</text>
</a>
</g>
</g>
<!-- Node2&#45;&gt;Node10 -->
<g id="edge10" class="edge">
<title>Node2&#45;&gt;Node10</title>
<path fill="none" stroke="midnightblue" d="M2493.99,-131.71C2367.52,-130.41 2030.48,-123.51 1752.21,-87 1749.38,-86.63 1746.49,-86.21 1743.58,-85.75"/>
<polygon fill="midnightblue" stroke="midnightblue" points="2494.12,-135.21 2504.15,-131.8 2494.18,-128.21 2494.12,-135.21"/>
</g>
<!-- Node11 -->
<g id="node11" class="node">
<title>Node11</title>
<g id="a_node11"><a xlink:href="vdp__cmd__execute__LMMM_8c.html" target="_top" xlink:title=" ">
<polygon fill="none" stroke="black" points="1761.21,-56.5 1761.21,-86.5 1883.21,-86.5 1883.21,-56.5 1761.21,-56.5"/>
<text text-anchor="start" x="1769.21" y="-74.5" font-family="Helvetica,sans-Serif" font-size="10.00">src/vdp_cmd_execute</text>
<text text-anchor="middle" x="1822.21" y="-63.5" font-family="Helvetica,sans-Serif" font-size="10.00">_LMMM.c</text>
</a>
</g>
</g>
<!-- Node2&#45;&gt;Node11 -->
<g id="edge11" class="edge">
<title>Node2&#45;&gt;Node11</title>
<path fill="none" stroke="midnightblue" d="M2493.94,-130.83C2383.48,-127.78 2114.96,-117.6 1892.21,-87 1889.38,-86.61 1886.49,-86.18 1883.59,-85.7"/>
<polygon fill="midnightblue" stroke="midnightblue" points="2494.04,-134.33 2504.13,-131.1 2494.23,-127.33 2494.04,-134.33"/>
</g>
<!-- Node12 -->
<g id="node12" class="node">
<title>Node12</title>
<g id="a_node12"><a xlink:href="vdp__cmd__execute__LMMV_8c.html" target="_top" xlink:title=" ">
<polygon fill="none" stroke="black" points="1901.21,-56.5 1901.21,-86.5 2023.21,-86.5 2023.21,-56.5 1901.21,-56.5"/>
<text text-anchor="start" x="1909.21" y="-74.5" font-family="Helvetica,sans-Serif" font-size="10.00">src/vdp_cmd_execute</text>
<text text-anchor="middle" x="1962.21" y="-63.5" font-family="Helvetica,sans-Serif" font-size="10.00">_LMMV.c</text>
</a>
</g>
</g>
<!-- Node2&#45;&gt;Node12 -->
<g id="edge12" class="edge">
<title>Node2&#45;&gt;Node12</title>
<path fill="none" stroke="midnightblue" d="M2493.91,-129.49C2401.3,-124.51 2200.21,-111.68 2032.21,-87 2029.26,-86.57 2026.25,-86.09 2023.22,-85.57"/>
<polygon fill="midnightblue" stroke="midnightblue" points="2493.95,-132.99 2504.12,-130.03 2494.32,-126 2493.95,-132.99"/>
</g>
<!-- Node13 -->
<g id="node13" class="node">
<title>Node13</title>
<g id="a_node13"><a xlink:href="vdp__cmd__set__unrestricted_8c.html" target="_top" xlink:title=" ">
<polygon fill="none" stroke="black" points="2041.21,-62 2041.21,-81 2211.21,-81 2211.21,-62 2041.21,-62"/>
<text text-anchor="middle" x="2126.21" y="-69" font-family="Helvetica,sans-Serif" font-size="10.00">src/vdp_cmd_set_unrestricted.c</text>
</a>
</g>
</g>
<!-- Node2&#45;&gt;Node13 -->
<g id="edge13" class="edge">
<title>Node2&#45;&gt;Node13</title>
<path fill="none" stroke="midnightblue" d="M2493.9,-125.15C2429.82,-116.53 2316.84,-101.14 2220.21,-87 2207.3,-85.11 2193.41,-83.01 2180.37,-81"/>
<polygon fill="midnightblue" stroke="midnightblue" points="2493.76,-128.66 2504.13,-126.52 2494.69,-121.72 2493.76,-128.66"/>
</g>
<!-- Node14 -->
<g id="node14" class="node">
<title>Node14</title>
<g id="a_node14"><a xlink:href="vdp__get__sprite__mode_8c.html" target="_top" xlink:title=" ">
<polygon fill="none" stroke="black" points="2229.21,-56.5 2229.21,-86.5 2335.21,-86.5 2335.21,-56.5 2229.21,-56.5"/>
<text text-anchor="start" x="2237.21" y="-74.5" font-family="Helvetica,sans-Serif" font-size="10.00">src/vdp_get_sprite</text>
<text text-anchor="middle" x="2282.21" y="-63.5" font-family="Helvetica,sans-Serif" font-size="10.00">_mode.c</text>
</a>
</g>
</g>
<!-- Node2&#45;&gt;Node14 -->
<g id="edge14" class="edge">
<title>Node2&#45;&gt;Node14</title>
<path fill="none" stroke="midnightblue" d="M2496.72,-121.28C2455.99,-112.24 2396.27,-98.91 2344.21,-87 2341.3,-86.33 2338.31,-85.65 2335.3,-84.95"/>
<polygon fill="midnightblue" stroke="midnightblue" points="2496.13,-124.73 2506.65,-123.48 2497.64,-117.9 2496.13,-124.73"/>
</g>
<!-- Node15 -->
<g id="node15" class="node">
<title>Node15</title>
<g id="a_node15"><a xlink:href="vdp__get__status_8c.html" target="_top" xlink:title=" ">
<polygon fill="none" stroke="black" points="2353.21,-62 2353.21,-81 2469.21,-81 2469.21,-62 2353.21,-62"/>
<text text-anchor="middle" x="2411.21" y="-69" font-family="Helvetica,sans-Serif" font-size="10.00">src/vdp_get_status.c</text>
</a>
</g>
</g>
<!-- Node2&#45;&gt;Node15 -->
<g id="edge15" class="edge">
<title>Node2&#45;&gt;Node15</title>
<path fill="none" stroke="midnightblue" d="M2516.67,-119.33C2490.65,-107.78 2452.94,-91.03 2430.37,-81.01"/>
<polygon fill="midnightblue" stroke="midnightblue" points="2515.45,-122.62 2526.01,-123.48 2518.29,-116.22 2515.45,-122.62"/>
</g>
<!-- Node16 -->
<g id="node16" class="node">
<title>Node16</title>
<g id="a_node16"><a xlink:href="vdp__set__adjust_8c.html" target="_top" xlink:title=" ">
<polygon fill="none" stroke="black" points="2487.21,-62 2487.21,-81 2603.21,-81 2603.21,-62 2487.21,-62"/>
<text text-anchor="middle" x="2545.21" y="-69" font-family="Helvetica,sans-Serif" font-size="10.00">src/vdp_set_adjust.c</text>
</a>
</g>
</g>
<!-- Node2&#45;&gt;Node16 -->
<g id="edge16" class="edge">
<title>Node2&#45;&gt;Node16</title>
<path fill="none" stroke="midnightblue" d="M2545.21,-113.32C2545.21,-102.5 2545.21,-89.4 2545.21,-81.01"/>
<polygon fill="midnightblue" stroke="midnightblue" points="2541.71,-113.48 2545.21,-123.48 2548.71,-113.48 2541.71,-113.48"/>
</g>
<!-- Node17 -->
<g id="node17" class="node">
<title>Node17</title>
<g id="a_node17"><a xlink:href="vdp__set__color_8c.html" target="_top" xlink:title=" ">
<polygon fill="none" stroke="black" points="2621.71,-62 2621.71,-81 2730.71,-81 2730.71,-62 2621.71,-62"/>
<text text-anchor="middle" x="2676.21" y="-69" font-family="Helvetica,sans-Serif" font-size="10.00">src/vdp_set_color.c</text>
</a>
</g>
</g>
<!-- Node2&#45;&gt;Node17 -->
<g id="edge17" class="edge">
<title>Node2&#45;&gt;Node17</title>
<path fill="none" stroke="midnightblue" d="M2573.11,-119.33C2598.54,-107.78 2635.41,-91.03 2657.47,-81.01"/>
<polygon fill="midnightblue" stroke="midnightblue" points="2571.63,-116.15 2563.98,-123.48 2574.53,-122.53 2571.63,-116.15"/>
</g>
<!-- Node18 -->
<g id="node18" class="node">
<title>Node18</title>
<g id="a_node18"><a xlink:href="vdp__set__color__table_8c.html" target="_top" xlink:title=" ">
<polygon fill="none" stroke="black" points="2749.21,-62 2749.21,-81 2889.21,-81 2889.21,-62 2749.21,-62"/>
<text text-anchor="middle" x="2819.21" y="-69" font-family="Helvetica,sans-Serif" font-size="10.00">src/vdp_set_color_table.c</text>
</a>
</g>
</g>
<!-- Node2&#45;&gt;Node18 -->
<g id="edge18" class="edge">
<title>Node2&#45;&gt;Node18</title>
<path fill="none" stroke="midnightblue" d="M2594.34,-121.33C2647.48,-109.79 2731.12,-91.63 2780.02,-81.01"/>
<polygon fill="midnightblue" stroke="midnightblue" points="2593.49,-117.93 2584.46,-123.48 2594.98,-124.77 2593.49,-117.93"/>
</g>
<!-- Node19 -->
<g id="node19" class="node">
<title>Node19</title>
<g id="a_node19"><a xlink:href="vdp__set__control_8c.html" target="_top" xlink:title=" ">
<polygon fill="none" stroke="black" points="2945.71,-62 2945.71,-81 3064.71,-81 3064.71,-62 2945.71,-62"/>
<text text-anchor="middle" x="3005.21" y="-69" font-family="Helvetica,sans-Serif" font-size="10.00">src/vdp_set_control.c</text>
</a>
</g>
</g>
<!-- Node2&#45;&gt;Node19 -->
<g id="edge19" class="edge">
<title>Node2&#45;&gt;Node19</title>
<path fill="none" stroke="midnightblue" d="M2596.48,-127.3C2670.59,-120.21 2811.83,-105.63 2931.21,-87 2942.07,-85.3 2953.77,-83.16 2964.59,-81.05"/>
<polygon fill="midnightblue" stroke="midnightblue" points="2596.1,-123.82 2586.48,-128.25 2596.77,-130.79 2596.1,-123.82"/>
</g>
<!-- Node20 -->
<g id="node20" class="node">
<title>Node20</title>
<g id="a_node20"><a xlink:href="vdp__set__hscroll_8c.html" target="_top" xlink:title=" ">
<polygon fill="none" stroke="black" points="3083.21,-62 3083.21,-81 3201.21,-81 3201.21,-62 3083.21,-62"/>
<text text-anchor="middle" x="3142.21" y="-69" font-family="Helvetica,sans-Serif" font-size="10.00">src/vdp_set_hscroll.c</text>
</a>
</g>
</g>
<!-- Node2&#45;&gt;Node20 -->
<g id="edge20" class="edge">
<title>Node2&#45;&gt;Node20</title>
<path fill="none" stroke="midnightblue" d="M2596.65,-129.71C2691.35,-125.02 2899.5,-112.56 3073.21,-87 3083.86,-85.43 3095.35,-83.23 3105.83,-81.01"/>
<polygon fill="midnightblue" stroke="midnightblue" points="2596.3,-126.22 2586.48,-130.2 2596.64,-133.21 2596.3,-126.22"/>
</g>
<!-- Node21 -->
<g id="node21" class="node">
<title>Node21</title>
<g id="a_node21"><a xlink:href="vdp__set__hscroll__dual__page_8c.html" target="_top" xlink:title=" ">
<polygon fill="none" stroke="black" points="3219.21,-56.5 3219.21,-86.5 3329.21,-86.5 3329.21,-56.5 3219.21,-56.5"/>
<text text-anchor="start" x="3227.21" y="-74.5" font-family="Helvetica,sans-Serif" font-size="10.00">src/vdp_set_hscroll</text>
<text text-anchor="middle" x="3274.21" y="-63.5" font-family="Helvetica,sans-Serif" font-size="10.00">_dual_page.c</text>
</a>
</g>
</g>
<!-- Node2&#45;&gt;Node21 -->
<g id="edge21" class="edge">
<title>Node2&#45;&gt;Node21</title>
<path fill="none" stroke="midnightblue" d="M2596.64,-131.23C2708.7,-128.97 2983.1,-120.21 3210.21,-87 3213.14,-86.57 3216.13,-86.08 3219.15,-85.54"/>
<polygon fill="midnightblue" stroke="midnightblue" points="2596.23,-127.74 2586.3,-131.43 2596.37,-134.74 2596.23,-127.74"/>
</g>
<!-- Node22 -->
<g id="node22" class="node">
<title>Node22</title>
<g id="a_node22"><a xlink:href="vdp__set__hscroll__mask_8c.html" target="_top" xlink:title=" ">
<polygon fill="none" stroke="black" points="3347.21,-56.5 3347.21,-86.5 3457.21,-86.5 3457.21,-56.5 3347.21,-56.5"/>
<text text-anchor="start" x="3355.21" y="-74.5" font-family="Helvetica,sans-Serif" font-size="10.00">src/vdp_set_hscroll</text>
<text text-anchor="middle" x="3402.21" y="-63.5" font-family="Helvetica,sans-Serif" font-size="10.00">_mask.c</text>
</a>
</g>
</g>
<!-- Node2&#45;&gt;Node22 -->
<g id="edge22" class="edge">
<title>Node2&#45;&gt;Node22</title>
<path fill="none" stroke="midnightblue" d="M2596.47,-132.03C2723.04,-131.47 3060.29,-126.09 3338.21,-87 3341.14,-86.59 3344.14,-86.11 3347.16,-85.58"/>
<polygon fill="midnightblue" stroke="midnightblue" points="2596.29,-128.53 2586.3,-132.07 2596.31,-135.53 2596.29,-128.53"/>
</g>
<!-- Node23 -->
<g id="node23" class="node">
<title>Node23</title>
<g id="a_node23"><a xlink:href="vdp__set__image__table_8c.html" target="_top" xlink:title=" ">
<polygon fill="none" stroke="black" points="3475.21,-62 3475.21,-81 3621.21,-81 3621.21,-62 3475.21,-62"/>
<text text-anchor="middle" x="3548.21" y="-69" font-family="Helvetica,sans-Serif" font-size="10.00">src/vdp_set_image_table.c</text>
</a>
</g>
</g>
<!-- Node2&#45;&gt;Node23 -->
<g id="edge23" class="edge">
<title>Node2&#45;&gt;Node23</title>
<path fill="none" stroke="midnightblue" d="M2596.69,-131.76C2736.77,-130.61 3136.4,-124.07 3466.21,-87 3479.14,-85.55 3493.11,-83.32 3505.79,-81.05"/>
<polygon fill="midnightblue" stroke="midnightblue" points="2596.64,-128.26 2586.66,-131.83 2596.69,-135.26 2596.64,-128.26"/>
</g>
<!-- Node24 -->
<g id="node24" class="node">
<title>Node24</title>
<g id="a_node24"><a xlink:href="vdp__set__palette_8c.html" target="_top" xlink:title=" ">
<polygon fill="none" stroke="black" points="3639.21,-62 3639.21,-81 3759.21,-81 3759.21,-62 3639.21,-62"/>
<text text-anchor="middle" x="3699.21" y="-69" font-family="Helvetica,sans-Serif" font-size="10.00">src/vdp_set_palette.c</text>
</a>
</g>
</g>
<!-- Node2&#45;&gt;Node24 -->
<g id="edge24" class="edge">
<title>Node2&#45;&gt;Node24</title>
<path fill="none" stroke="midnightblue" d="M2596.34,-131C2782.85,-127.2 3426.29,-112.48 3630.21,-87 3641.38,-85.6 3653.44,-83.34 3664.29,-81.01"/>
<polygon fill="midnightblue" stroke="midnightblue" points="2596.19,-127.51 2586.26,-131.21 2596.33,-134.5 2596.19,-127.51"/>
</g>
<!-- Node25 -->
<g id="node25" class="node">
<title>Node25</title>
<g id="a_node25"><a xlink:href="vdp__set__pattern__table_8c.html" target="_top" xlink:title=" ">
<polygon fill="none" stroke="black" points="3777.71,-56.5 3777.71,-86.5 3890.71,-86.5 3890.71,-56.5 3777.71,-56.5"/>
<text text-anchor="start" x="3785.71" y="-74.5" font-family="Helvetica,sans-Serif" font-size="10.00">src/vdp_set_pattern</text>
<text text-anchor="middle" x="3834.21" y="-63.5" font-family="Helvetica,sans-Serif" font-size="10.00">_table.c</text>
</a>
</g>
</g>
<!-- Node2&#45;&gt;Node25 -->
<g id="edge25" class="edge">
<title>Node2&#45;&gt;Node25</title>
<path fill="none" stroke="midnightblue" d="M2596.39,-131.34C2797.81,-128.56 3536.05,-116.53 3768.21,-87 3771.23,-86.62 3774.32,-86.16 3777.44,-85.65"/>
<polygon fill="midnightblue" stroke="midnightblue" points="2596.33,-127.84 2586.38,-131.48 2596.43,-134.84 2596.33,-127.84"/>
</g>
<!-- Node26 -->
<g id="node26" class="node">
<title>Node26</title>
<g id="a_node26"><a xlink:href="vdp__set__screen__lines_8c.html" target="_top" xlink:title=" ">
<polygon fill="none" stroke="black" points="3909.21,-56.5 3909.21,-86.5 4019.21,-86.5 4019.21,-56.5 3909.21,-56.5"/>
<text text-anchor="start" x="3917.21" y="-74.5" font-family="Helvetica,sans-Serif" font-size="10.00">src/vdp_set_screen</text>
<text text-anchor="middle" x="3964.21" y="-63.5" font-family="Helvetica,sans-Serif" font-size="10.00">_lines.c</text>
</a>
</g>
</g>
<!-- Node2&#45;&gt;Node26 -->
<g id="edge26" class="edge">
<title>Node2&#45;&gt;Node26</title>
<path fill="none" stroke="midnightblue" d="M2596.48,-131.57C2811.35,-129.59 3640.09,-119.92 3899.21,-87 3902.42,-86.59 3905.7,-86.1 3909.01,-85.55"/>
<polygon fill="midnightblue" stroke="midnightblue" points="2596.39,-128.07 2586.42,-131.66 2596.45,-135.07 2596.39,-128.07"/>
</g>
<!-- Node27 -->
<g id="node27" class="node">
<title>Node27</title>
<g id="a_node27"><a xlink:href="vdp__set__screen__mode_8c.html" target="_top" xlink:title=" ">
<polygon fill="none" stroke="black" points="4037.21,-56.5 4037.21,-86.5 4147.21,-86.5 4147.21,-56.5 4037.21,-56.5"/>
<text text-anchor="start" x="4045.21" y="-74.5" font-family="Helvetica,sans-Serif" font-size="10.00">src/vdp_set_screen</text>
<text text-anchor="middle" x="4092.21" y="-63.5" font-family="Helvetica,sans-Serif" font-size="10.00">_mode.c</text>
</a>
</g>
</g>
<!-- Node2&#45;&gt;Node27 -->
<g id="edge27" class="edge">
<title>Node2&#45;&gt;Node27</title>
<path fill="none" stroke="midnightblue" d="M2596.8,-131.77C2824.72,-130.53 3742.56,-123.35 4028.21,-87 4031.14,-86.63 4034.15,-86.18 4037.17,-85.68"/>
<polygon fill="midnightblue" stroke="midnightblue" points="2596.46,-128.27 2586.48,-131.82 2596.49,-135.27 2596.46,-128.27"/>
</g>
<!-- Node28 -->
<g id="node28" class="node">
<title>Node28</title>
<g id="a_node28"><a xlink:href="vdp__set__sprite__attribute__table_8c.html" target="_top" xlink:title=" ">
<polygon fill="none" stroke="black" points="4165.71,-56.5 4165.71,-86.5 4270.71,-86.5 4270.71,-56.5 4165.71,-56.5"/>
<text text-anchor="start" x="4173.71" y="-74.5" font-family="Helvetica,sans-Serif" font-size="10.00">src/vdp_set_sprite</text>
<text text-anchor="middle" x="4218.21" y="-63.5" font-family="Helvetica,sans-Serif" font-size="10.00">_attribute_table.c</text>
</a>
</g>
</g>
<!-- Node2&#45;&gt;Node28 -->
<g id="edge28" class="edge">
<title>Node2&#45;&gt;Node28</title>
<path fill="none" stroke="midnightblue" d="M2596.53,-131.96C2835.88,-131.56 3844,-127.45 4156.21,-87 4159.28,-86.6 4162.42,-86.12 4165.57,-85.57"/>
<polygon fill="midnightblue" stroke="midnightblue" points="2596.36,-128.46 2586.37,-131.98 2596.37,-135.46 2596.36,-128.46"/>
</g>
<!-- Node29 -->
<g id="node29" class="node">
<title>Node29</title>
<g id="a_node29"><a xlink:href="vdp__set__sprite__pattern__table_8c.html" target="_top" xlink:title=" ">
<polygon fill="none" stroke="black" points="4288.71,-56.5 4288.71,-86.5 4393.71,-86.5 4393.71,-56.5 4288.71,-56.5"/>
<text text-anchor="start" x="4296.71" y="-74.5" font-family="Helvetica,sans-Serif" font-size="10.00">src/vdp_set_sprite</text>
<text text-anchor="middle" x="4341.21" y="-63.5" font-family="Helvetica,sans-Serif" font-size="10.00">_pattern_table.c</text>
</a>
</g>
</g>
<!-- Node2&#45;&gt;Node29 -->
<g id="edge29" class="edge">
<title>Node2&#45;&gt;Node29</title>
<path fill="none" stroke="midnightblue" d="M2596.74,-132.08C2847.47,-132.24 3941.5,-130.41 4279.21,-87 4282.28,-86.61 4285.42,-86.12 4288.57,-85.58"/>
<polygon fill="midnightblue" stroke="midnightblue" points="2596.46,-128.58 2586.46,-132.07 2596.46,-135.58 2596.46,-128.58"/>
</g>
<!-- Node30 -->
<g id="node30" class="node">
<title>Node30</title>
<g id="a_node30"><a xlink:href="vdp__set__sprite__size_8c.html" target="_top" xlink:title=" ">
<polygon fill="none" stroke="black" points="4411.71,-56.5 4411.71,-86.5 4516.71,-86.5 4516.71,-56.5 4411.71,-56.5"/>
<text text-anchor="start" x="4419.71" y="-74.5" font-family="Helvetica,sans-Serif" font-size="10.00">src/vdp_set_sprite</text>
<text text-anchor="middle" x="4464.21" y="-63.5" font-family="Helvetica,sans-Serif" font-size="10.00">_size.c</text>
</a>
</g>
</g>
<!-- Node2&#45;&gt;Node30 -->
<g id="edge30" class="edge">
<title>Node2&#45;&gt;Node30</title>
<path fill="none" stroke="midnightblue" d="M2596.54,-132.18C2857.5,-132.88 4038.77,-133.4 4402.21,-87 4405.28,-86.61 4408.42,-86.13 4411.58,-85.58"/>
<polygon fill="midnightblue" stroke="midnightblue" points="2596.23,-128.68 2586.22,-132.15 2596.21,-135.68 2596.23,-128.68"/>
</g>
<!-- Node31 -->
<g id="node31" class="node">
<title>Node31</title>
<g id="a_node31"><a xlink:href="vdp__set__sprite__visible_8c.html" target="_top" xlink:title=" ">
<polygon fill="none" stroke="black" points="16.71,-56.5 16.71,-86.5 121.71,-86.5 121.71,-56.5 16.71,-56.5"/>
<text text-anchor="start" x="24.71" y="-74.5" font-family="Helvetica,sans-Serif" font-size="10.00">src/vdp_set_sprite</text>
<text text-anchor="middle" x="69.21" y="-63.5" font-family="Helvetica,sans-Serif" font-size="10.00">_visible.c</text>
</a>
</g>
</g>
<!-- Node2&#45;&gt;Node31 -->
<g id="edge31" class="edge">
<title>Node2&#45;&gt;Node31</title>
<path fill="none" stroke="midnightblue" d="M2493.92,-131.69C2166.36,-129.66 372.95,-117.18 131.21,-87 128.14,-86.62 124.99,-86.14 121.83,-85.61"/>
<polygon fill="midnightblue" stroke="midnightblue" points="2494.05,-135.2 2504.07,-131.76 2494.09,-128.2 2494.05,-135.2"/>
</g>
<!-- Node32 -->
<g id="node32" class="node">
<title>Node32</title>
<g id="a_node32"><a xlink:href="vdp__set__visible_8c.html" target="_top" xlink:title=" ">
<polygon fill="none" stroke="black" points="140.21,-62 140.21,-81 258.21,-81 258.21,-62 140.21,-62"/>
<text text-anchor="middle" x="199.21" y="-69" font-family="Helvetica,sans-Serif" font-size="10.00">src/vdp_set_visible.c</text>
</a>
</g>
</g>
<!-- Node2&#45;&gt;Node32 -->
<g id="edge32" class="edge">
<title>Node2&#45;&gt;Node32</title>
<path fill="none" stroke="midnightblue" d="M2493.86,-131.57C2177.1,-128.86 494.87,-113.28 267.21,-87 255.93,-85.7 243.77,-83.4 232.89,-81.01"/>
<polygon fill="midnightblue" stroke="midnightblue" points="2494.09,-135.07 2504.12,-131.66 2494.15,-128.07 2494.09,-135.07"/>
</g>
<!-- Node33 -->
<g id="node33" class="node">
<title>Node33</title>
<g id="a_node33"><a xlink:href="vdp__set__vscroll_8c.html" target="_top" xlink:title=" ">
<polygon fill="none" stroke="black" points="276.21,-62 276.21,-81 394.21,-81 394.21,-62 276.21,-62"/>
<text text-anchor="middle" x="335.21" y="-69" font-family="Helvetica,sans-Serif" font-size="10.00">src/vdp_set_vscroll.c</text>
</a>
</g>
</g>
<!-- Node2&#45;&gt;Node33 -->
<g id="edge33" class="edge">
<title>Node2&#45;&gt;Node33</title>
<path fill="none" stroke="midnightblue" d="M2493.96,-132.24C2209.96,-133.36 826.8,-136.16 403.21,-87 392.06,-85.71 380.03,-83.44 369.24,-81.08"/>
<polygon fill="midnightblue" stroke="midnightblue" points="2493.99,-135.74 2503.98,-132.2 2493.97,-128.74 2493.99,-135.74"/>
</g>
<!-- Node34 -->
<g id="node34" class="node">
<title>Node34</title>
<g id="a_node34"><a xlink:href="vdp__write__control_8c.html" target="_top" xlink:title=" ">
<polygon fill="none" stroke="black" points="412.71,-62 412.71,-81 541.71,-81 541.71,-62 412.71,-62"/>
<text text-anchor="middle" x="477.21" y="-69" font-family="Helvetica,sans-Serif" font-size="10.00">src/vdp_write_control.c</text>
</a>
</g>
</g>
<!-- Node2&#45;&gt;Node34 -->
<g id="edge34" class="edge">
<title>Node2&#45;&gt;Node34</title>
<path fill="none" stroke="midnightblue" d="M2493.67,-132.03C2220.97,-132.01 944,-129.6 551.21,-87 539.1,-85.69 526.03,-83.41 514.28,-81.05"/>
<polygon fill="midnightblue" stroke="midnightblue" points="2494.06,-135.53 2504.06,-132.03 2494.06,-128.53 2494.06,-135.53"/>
</g>
<!-- Node35 -->
<g id="node35" class="node">
<title>Node35</title>
<g id="a_node35"><a xlink:href="vdp__write__palette_8c.html" target="_top" xlink:title=" ">
<polygon fill="none" stroke="black" points="560.21,-62 560.21,-81 690.21,-81 690.21,-62 560.21,-62"/>
<text text-anchor="middle" x="625.21" y="-69" font-family="Helvetica,sans-Serif" font-size="10.00">src/vdp_write_palette.c</text>
</a>
</g>
</g>
<!-- Node2&#45;&gt;Node35 -->
<g id="edge35" class="edge">
<title>Node2&#45;&gt;Node35</title>
<path fill="none" stroke="midnightblue" d="M2493.78,-131.92C2233.66,-131.35 1061.07,-126.58 699.21,-87 687.1,-85.68 674.03,-83.4 662.28,-81.04"/>
<polygon fill="midnightblue" stroke="midnightblue" points="2494.06,-135.42 2504.07,-131.94 2494.08,-128.42 2494.06,-135.42"/>
</g>
<!-- Node36 -->
<g id="node36" class="node">
<title>Node36</title>
<g id="a_node36"><a xlink:href="vmem__memset_8c.html" target="_top" xlink:title=" ">
<polygon fill="none" stroke="black" points="708.71,-62 708.71,-81 827.71,-81 827.71,-62 708.71,-62"/>
<text text-anchor="middle" x="768.21" y="-69" font-family="Helvetica,sans-Serif" font-size="10.00">src/vmem_memset.c</text>
</a>
</g>
</g>
<!-- Node2&#45;&gt;Node36 -->
<g id="edge36" class="edge">
<title>Node2&#45;&gt;Node36</title>
<path fill="none" stroke="midnightblue" d="M2494.03,-131.92C2246.22,-131.34 1169.26,-126.55 836.21,-87 825.06,-85.68 813.04,-83.4 802.25,-81.04"/>
<polygon fill="midnightblue" stroke="midnightblue" points="2494.18,-135.42 2504.19,-131.94 2494.2,-128.42 2494.18,-135.42"/>
</g>
<!-- Node37 -->
<g id="node37" class="node">
<title>Node37</title>
<g id="a_node37"><a xlink:href="vmem__read_8c.html" target="_top" xlink:title=" ">
<polygon fill="none" stroke="black" points="845.71,-62 845.71,-81 946.71,-81 946.71,-62 845.71,-62"/>
<text text-anchor="middle" x="896.21" y="-69" font-family="Helvetica,sans-Serif" font-size="10.00">src/vmem_read.c</text>
</a>
</g>
</g>
<!-- Node2&#45;&gt;Node37 -->
<g id="edge37" class="edge">
<title>Node2&#45;&gt;Node37</title>
<path fill="none" stroke="midnightblue" d="M2493.8,-131.99C2256.29,-131.7 1263.66,-128.04 956.21,-87 946.33,-85.68 935.71,-83.41 926.19,-81.05"/>
<polygon fill="midnightblue" stroke="midnightblue" points="2493.88,-135.49 2503.89,-132 2493.89,-128.49 2493.88,-135.49"/>
</g>
<!-- Node38 -->
<g id="node38" class="node">
<title>Node38</title>
<g id="a_node38"><a xlink:href="vmem__set__read__address_8c.html" target="_top" xlink:title=" ">
<polygon fill="none" stroke="black" points="965.21,-62 965.21,-81 1129.21,-81 1129.21,-62 965.21,-62"/>
<text text-anchor="middle" x="1047.21" y="-69" font-family="Helvetica,sans-Serif" font-size="10.00">src/vmem_set_read_address.c</text>
</a>
</g>
</g>
<!-- Node2&#45;&gt;Node38 -->
<g id="edge38" class="edge">
<title>Node2&#45;&gt;Node38</title>
<path fill="none" stroke="midnightblue" d="M2493.81,-131.23C2273.66,-127.77 1409.15,-112.81 1138.21,-87 1123.55,-85.6 1107.68,-83.34 1093.36,-81.01"/>
<polygon fill="midnightblue" stroke="midnightblue" points="2494.05,-134.73 2504.1,-131.39 2494.16,-127.73 2494.05,-134.73"/>
</g>
<!-- Node39 -->
<g id="node39" class="node">
<title>Node39</title>
<g id="a_node39"><a xlink:href="vmem__set__write__address_8c.html" target="_top" xlink:title=" ">
<polygon fill="none" stroke="black" points="1147.21,-56.5 1147.21,-86.5 1263.21,-86.5 1263.21,-56.5 1147.21,-56.5"/>
<text text-anchor="start" x="1155.21" y="-74.5" font-family="Helvetica,sans-Serif" font-size="10.00">src/vmem_set_write</text>
<text text-anchor="middle" x="1205.21" y="-63.5" font-family="Helvetica,sans-Serif" font-size="10.00">_address.c</text>
</a>
</g>
</g>
<!-- Node2&#45;&gt;Node39 -->
<g id="edge39" class="edge">
<title>Node2&#45;&gt;Node39</title>
<path fill="none" stroke="midnightblue" d="M2493.67,-131.4C2286.58,-128.81 1514.59,-117.27 1272.21,-87 1269.37,-86.65 1266.48,-86.23 1263.57,-85.77"/>
<polygon fill="midnightblue" stroke="midnightblue" points="2493.91,-134.9 2503.95,-131.53 2494,-127.91 2493.91,-134.9"/>
</g>
<!-- Node40 -->
<g id="node40" class="node">
<title>Node40</title>
<g id="a_node40"><a xlink:href="vmem__write_8c.html" target="_top" xlink:title=" ">
<polygon fill="none" stroke="black" points="1281.21,-62 1281.21,-81 1385.21,-81 1385.21,-62 1281.21,-62"/>
<text text-anchor="middle" x="1333.21" y="-69" font-family="Helvetica,sans-Serif" font-size="10.00">src/vmem_write.c</text>
</a>
</g>
</g>
<!-- Node2&#45;&gt;Node40 -->
<g id="edge40" class="edge">
<title>Node2&#45;&gt;Node40</title>
<path fill="none" stroke="midnightblue" d="M2493.87,-131.32C2299.84,-128.54 1611.25,-116.75 1394.21,-87 1384.28,-85.64 1373.62,-83.38 1364.02,-81.05"/>
<polygon fill="midnightblue" stroke="midnightblue" points="2494.02,-134.82 2504.07,-131.46 2494.12,-127.82 2494.02,-134.82"/>
</g>
<!-- Node3&#45;&gt;Node4 -->
<g id="edge3" class="edge">
<title>Node3&#45;&gt;Node4</title>
<path fill="none" stroke="midnightblue" d="M4611.17,-56.11C4594.44,-44.67 4571.59,-29.05 4557.65,-19.51"/>
<polygon fill="midnightblue" stroke="midnightblue" points="4609.51,-59.22 4619.74,-61.98 4613.46,-53.44 4609.51,-59.22"/>
</g>
<!-- Node5 -->
<g id="node5" class="node">
<title>Node5</title>
<g id="a_node5"><a xlink:href="vmem__set__metasprite__a_8c.html" target="_top" xlink:title=" ">
<polygon fill="none" stroke="black" points="4740.21,-0.5 4740.21,-19.5 4904.21,-19.5 4904.21,-0.5 4740.21,-0.5"/>
<text text-anchor="middle" x="4822.21" y="-7.5" font-family="Helvetica,sans-Serif" font-size="10.00">src/vmem_set_metasprite_a.c</text>
</a>
</g>
</g>
<!-- Node3&#45;&gt;Node5 -->
<g id="edge4" class="edge">
<title>Node3&#45;&gt;Node5</title>
<path fill="none" stroke="midnightblue" d="M4669.31,-58.88C4706.24,-47.32 4762.04,-29.84 4795.03,-19.51"/>
<polygon fill="midnightblue" stroke="midnightblue" points="4667.93,-55.65 4659.43,-61.98 4670.02,-62.33 4667.93,-55.65"/>
</g>
<!-- Node6 -->
<g id="node6" class="node">
<title>Node6</title>
<g id="a_node6"><a xlink:href="vmem__set__metasprite__m_8c.html" target="_top" xlink:title=" ">
<polygon fill="none" stroke="black" points="4989.71,-0.5 4989.71,-19.5 5156.71,-19.5 5156.71,-0.5 4989.71,-0.5"/>
<text text-anchor="middle" x="5073.21" y="-7.5" font-family="Helvetica,sans-Serif" font-size="10.00">src/vmem_set_metasprite_m.c</text>
</a>
</g>
</g>
<!-- Node3&#45;&gt;Node6 -->
<g id="edge5" class="edge">
<title>Node3&#45;&gt;Node6</title>
<path fill="none" stroke="midnightblue" d="M4678.55,-59.88C4685.46,-58.47 4692.5,-57.13 4699.21,-56 4798.53,-39.31 4913.7,-26.42 4989.7,-18.79"/>
<polygon fill="midnightblue" stroke="midnightblue" points="4677.66,-56.49 4668.6,-61.98 4679.11,-63.34 4677.66,-56.49"/>
</g>
<!-- Node7 -->
<g id="node7" class="node">
<title>Node7</title>
<g id="a_node7"><a xlink:href="vmem__set__metasprite__s_8c.html" target="_top" xlink:title=" ">
<polygon fill="none" stroke="black" points="5207.71,-0.5 5207.71,-19.5 5370.71,-19.5 5370.71,-0.5 5207.71,-0.5"/>
<text text-anchor="middle" x="5289.21" y="-7.5" font-family="Helvetica,sans-Serif" font-size="10.00">src/vmem_set_metasprite_s.c</text>
</a>
</g>
</g>
<!-- Node3&#45;&gt;Node7 -->
<g id="edge6" class="edge">
<title>Node3&#45;&gt;Node7</title>
<path fill="none" stroke="midnightblue" d="M4677.03,-59.91C4684.41,-58.43 4692,-57.05 4699.21,-56 4723.92,-52.4 5051.66,-28.29 5207.69,-16.92"/>
<polygon fill="midnightblue" stroke="midnightblue" points="4676.23,-56.51 4667.16,-61.99 4677.67,-63.36 4676.23,-56.51"/>
</g>
<!-- Node41&#45;&gt;Node2 -->
<g id="edge42" class="edge">
<title>Node41&#45;&gt;Node2</title>
<path fill="none" stroke="midnightblue" d="M4006.48,-185.95C3759.83,-177.18 2797.41,-142.97 2586.29,-135.46"/>
<polygon fill="midnightblue" stroke="midnightblue" points="4006.54,-189.45 4016.66,-186.31 4006.79,-182.46 4006.54,-189.45"/>
</g>
<!-- Node41&#45;&gt;Node3 -->
<g id="edge43" class="edge">
<title>Node41&#45;&gt;Node3</title>
<path fill="none" stroke="midnightblue" d="M4121.81,-179.13C4233.29,-168.29 4472.93,-182.05 4559.21,-143 4589.7,-129.2 4615.14,-97.05 4626.23,-81.39"/>
<polygon fill="midnightblue" stroke="midnightblue" points="4121.32,-175.66 4111.76,-180.22 4122.07,-182.62 4121.32,-175.66"/>
</g>
<!-- Node41&#45;&gt;Node4 -->
<g id="edge55" class="edge">
<title>Node41&#45;&gt;Node4</title>
<path fill="none" stroke="midnightblue" d="M4122.08,-178.77C4239.29,-159.6 4496.11,-114.91 4525.21,-87 4544.01,-68.96 4545.89,-35.53 4545.63,-19.72"/>
<polygon fill="midnightblue" stroke="midnightblue" points="4121.16,-175.38 4111.86,-180.44 4122.29,-182.29 4121.16,-175.38"/>
</g>
<!-- Node42 -->
<g id="node42" class="node">
<title>Node42</title>
<g id="a_node42"><a xlink:href="sprite_8h.html" target="_top" xlink:title=" ">
<polygon fill="none" stroke="black" points="5085.21,-123.5 5085.21,-142.5 5177.21,-142.5 5177.21,-123.5 5085.21,-123.5"/>
<text text-anchor="middle" x="5131.21" y="-130.5" font-family="Helvetica,sans-Serif" font-size="10.00">include/sprite.h</text>
</a>
</g>
</g>
<!-- Node41&#45;&gt;Node42 -->
<g id="edge44" class="edge">
<title>Node41&#45;&gt;Node42</title>
<path fill="none" stroke="midnightblue" d="M4121.77,-179.08C4499.54,-141.51 4942.91,-135.28 5085.02,-134.22"/>
<polygon fill="midnightblue" stroke="midnightblue" points="4121.34,-175.61 4111.74,-180.09 4122.04,-182.57 4121.34,-175.61"/>
</g>
<!-- Node42&#45;&gt;Node3 -->
<g id="edge45" class="edge">
<title>Node42&#45;&gt;Node3</title>
<path fill="none" stroke="midnightblue" d="M5074.77,-128.1C4992.02,-121.94 4833.09,-108.4 4699.21,-87 4689.1,-85.38 4678.22,-83.22 4668.23,-81.05"/>
<polygon fill="midnightblue" stroke="midnightblue" points="5074.73,-131.61 5084.96,-128.85 5075.24,-124.63 5074.73,-131.61"/>
</g>
<!-- Node42&#45;&gt;Node4 -->
<g id="edge46" class="edge">
<title>Node42&#45;&gt;Node4</title>
<path fill="none" stroke="midnightblue" d="M5159.04,-118.27C5170.94,-110.81 5183.6,-100.34 5190.21,-87 5196.32,-74.65 5199.6,-66.08 5190.21,-56 5179.89,-44.94 4729.88,-20.61 4587.75,-13.19"/>
<polygon fill="midnightblue" stroke="midnightblue" points="5157.09,-115.36 5150.19,-123.4 5160.6,-121.41 5157.09,-115.36"/>
</g>
<!-- Node42&#45;&gt;Node5 -->
<g id="edge52" class="edge">
<title>Node42&#45;&gt;Node5</title>
<path fill="none" stroke="midnightblue" d="M5179.8,-119.77C5196.51,-112.99 5213.45,-102.64 5223.21,-87 5230.5,-75.31 5232.39,-66.27 5223.21,-56 5212.7,-44.25 5018.72,-26.78 4904.47,-17.44"/>
<polygon fill="midnightblue" stroke="midnightblue" points="5178.22,-116.62 5170.05,-123.36 5180.64,-123.19 5178.22,-116.62"/>
</g>
<!-- Node42&#45;&gt;Node6 -->
<g id="edge53" class="edge">
<title>Node42&#45;&gt;Node6</title>
<path fill="none" stroke="midnightblue" d="M5186.33,-121.04C5232.31,-109.38 5286.55,-88.13 5261.21,-56 5247.02,-38.02 5194.51,-26.42 5148.58,-19.51"/>
<polygon fill="midnightblue" stroke="midnightblue" points="5185.27,-117.7 5176.37,-123.46 5186.92,-124.5 5185.27,-117.7"/>
</g>
<!-- Node42&#45;&gt;Node7 -->
<g id="edge54" class="edge">
<title>Node42&#45;&gt;Node7</title>
<path fill="none" stroke="midnightblue" d="M5187.27,-129.07C5218.63,-124.37 5255.79,-113.15 5278.21,-87 5294.69,-67.77 5292.77,-35.22 5290.68,-19.72"/>
<polygon fill="midnightblue" stroke="midnightblue" points="5186.78,-125.6 5177.33,-130.37 5187.7,-132.54 5186.78,-125.6"/>
</g>
<!-- Node43 -->
<g id="node43" class="node">
<title>Node43</title>
<g id="a_node43"><a xlink:href="sprite__set__color_8c.html" target="_top" xlink:title=" ">
<polygon fill="none" stroke="black" points="5351.71,-62 5351.71,-81 5470.71,-81 5470.71,-62 5351.71,-62"/>
<text text-anchor="middle" x="5411.21" y="-69" font-family="Helvetica,sans-Serif" font-size="10.00">src/sprite_set_color.c</text>
</a>
</g>
</g>
<!-- Node42&#45;&gt;Node43 -->
<g id="edge47" class="edge">
<title>Node42&#45;&gt;Node43</title>
<path fill="none" stroke="midnightblue" d="M5181.42,-121.33C5235.72,-109.79 5321.19,-91.63 5371.16,-81.01"/>
<polygon fill="midnightblue" stroke="midnightblue" points="5180.38,-117.97 5171.32,-123.48 5181.83,-124.82 5180.38,-117.97"/>
</g>
<!-- Node44 -->
<g id="node44" class="node">
<title>Node44</title>
<g id="a_node44"><a xlink:href="sprite__set__pat_8c.html" target="_top" xlink:title=" ">
<polygon fill="none" stroke="black" points="4708.71,-62 4708.71,-81 4819.71,-81 4819.71,-62 4708.71,-62"/>
<text text-anchor="middle" x="4764.21" y="-69" font-family="Helvetica,sans-Serif" font-size="10.00">src/sprite_set_pat.c</text>
</a>
</g>
</g>
<!-- Node42&#45;&gt;Node44 -->
<g id="edge48" class="edge">
<title>Node42&#45;&gt;Node44</title>
<path fill="none" stroke="midnightblue" d="M5074.9,-124.93C5013.9,-116.97 4913.82,-103.03 4828.21,-87 4818.91,-85.26 4808.92,-83.12 4799.65,-81.03"/>
<polygon fill="midnightblue" stroke="midnightblue" points="5074.72,-128.43 5085.08,-126.25 5075.62,-121.49 5074.72,-128.43"/>
</g>
<!-- Node45 -->
<g id="node45" class="node">
<title>Node45</title>
<g id="a_node45"><a xlink:href="sprite__set__x_8c.html" target="_top" xlink:title=" ">
<polygon fill="none" stroke="black" points="4837.71,-62 4837.71,-81 4938.71,-81 4938.71,-62 4837.71,-62"/>
<text text-anchor="middle" x="4888.21" y="-69" font-family="Helvetica,sans-Serif" font-size="10.00">src/sprite_set_x.c</text>
</a>
</g>
</g>
<!-- Node42&#45;&gt;Node45 -->
<g id="edge49" class="edge">
<title>Node42&#45;&gt;Node45</title>
<path fill="none" stroke="midnightblue" d="M5086.45,-121.04C5039.27,-109.49 4965.96,-91.54 4922.96,-81.01"/>
<polygon fill="midnightblue" stroke="midnightblue" points="5085.85,-124.5 5096.39,-123.48 5087.51,-117.7 5085.85,-124.5"/>
</g>
<!-- Node46 -->
<g id="node46" class="node">
<title>Node46</title>
<g id="a_node46"><a xlink:href="sprite__set__xy_8c.html" target="_top" xlink:title=" ">
<polygon fill="none" stroke="black" points="4957.21,-62 4957.21,-81 5063.21,-81 5063.21,-62 4957.21,-62"/>
<text text-anchor="middle" x="5010.21" y="-69" font-family="Helvetica,sans-Serif" font-size="10.00">src/sprite_set_xy.c</text>
</a>
</g>
</g>
<!-- Node42&#45;&gt;Node46 -->
<g id="edge50" class="edge">
<title>Node42&#45;&gt;Node46</title>
<path fill="none" stroke="midnightblue" d="M5104.81,-119.02C5081.35,-107.48 5047.71,-90.94 5027.51,-81.01"/>
<polygon fill="midnightblue" stroke="midnightblue" points="5103.35,-122.2 5113.87,-123.48 5106.44,-115.92 5103.35,-122.2"/>
</g>
<!-- Node47 -->
<g id="node47" class="node">
<title>Node47</title>
<g id="a_node47"><a xlink:href="sprite__set__y_8c.html" target="_top" xlink:title=" ">
<polygon fill="none" stroke="black" points="5081.21,-62 5081.21,-81 5181.21,-81 5181.21,-62 5081.21,-62"/>
<text text-anchor="middle" x="5131.21" y="-69" font-family="Helvetica,sans-Serif" font-size="10.00">src/sprite_set_y.c</text>
</a>
</g>
</g>
<!-- Node42&#45;&gt;Node47 -->
<g id="edge51" class="edge">
<title>Node42&#45;&gt;Node47</title>
<path fill="none" stroke="midnightblue" d="M5131.21,-113.32C5131.21,-102.5 5131.21,-89.4 5131.21,-81.01"/>
<polygon fill="midnightblue" stroke="midnightblue" points="5127.71,-113.48 5131.21,-123.48 5134.71,-113.48 5127.71,-113.48"/>
</g>
</g>
</svg>
