<?xml version="1.0" encoding="UTF-8" standalone="no"?>
<!DOCTYPE svg PUBLIC "-//W3C//DTD SVG 1.1//EN"
 "http://www.w3.org/Graphics/SVG/1.1/DTD/svg11.dtd">
<!-- Generated by graphviz version 2.44.0 ()
 -->
<!-- Title: include/io.h Pages: 1 -->
<svg width="5247pt" height="274pt"
 viewBox="0.00 0.00 5246.50 274.00" xmlns="http://www.w3.org/2000/svg" xmlns:xlink="http://www.w3.org/1999/xlink">
<g id="graph0" class="graph" transform="scale(1 1) rotate(0) translate(4 270)">
<title>include/io.h</title>
<!-- Node1 -->
<g id="node1" class="node">
<title>Node1</title>
<g id="a_node1"><a xlink:title="Copyright (c) 2021 Daishi Mori (mori0091)">
<polygon fill="#bfbfbf" stroke="black" points="4793.5,-246.5 4793.5,-265.5 4858.5,-265.5 4858.5,-246.5 4793.5,-246.5"/>
<text text-anchor="middle" x="4826" y="-253.5" font-family="Helvetica,sans-Serif" font-size="10.00">include/io.h</text>
</a>
</g>
</g>
<!-- Node2 -->
<g id="node2" class="node">
<title>Node2</title>
<g id="a_node2"><a xlink:href="msx_8h.html" target="_top" xlink:title="Copyright (c) 2021 Daishi Mori (mori0091)">
<polygon fill="none" stroke="black" points="628,-6 628,-25 704,-25 704,-6 628,-6"/>
<text text-anchor="middle" x="666" y="-13" font-family="Helvetica,sans-Serif" font-size="10.00">include/msx.h</text>
</a>
</g>
</g>
<!-- Node1&#45;&gt;Node2 -->
<g id="edge1" class="edge">
<title>Node1&#45;&gt;Node2</title>
<path fill="none" stroke="midnightblue" d="M4831.09,-236.36C4840.29,-198.08 4854.58,-110.54 4807,-67 4766.98,-30.38 1119.17,-17.92 704.29,-16.62"/>
<polygon fill="midnightblue" stroke="midnightblue" points="4827.67,-235.61 4828.58,-246.17 4834.45,-237.35 4827.67,-235.61"/>
</g>
<!-- Node3 -->
<g id="node3" class="node">
<title>Node3</title>
<g id="a_node3"><a xlink:href="psg_8h.html" target="_top" xlink:title="Copyright (c) 2021 Daishi Mori (mori0091)">
<polygon fill="none" stroke="black" points="4921,-190.5 4921,-209.5 4995,-209.5 4995,-190.5 4921,-190.5"/>
<text text-anchor="middle" x="4958" y="-197.5" font-family="Helvetica,sans-Serif" font-size="10.00">include/psg.h</text>
</a>
</g>
</g>
<!-- Node1&#45;&gt;Node3 -->
<g id="edge2" class="edge">
<title>Node1&#45;&gt;Node3</title>
<path fill="none" stroke="midnightblue" d="M4856.22,-242.64C4880.99,-232.5 4915.4,-218.43 4937.18,-209.52"/>
<polygon fill="midnightblue" stroke="midnightblue" points="4854.85,-239.42 4846.92,-246.44 4857.5,-245.9 4854.85,-239.42"/>
</g>
<!-- Node8 -->
<g id="node8" class="node">
<title>Node8</title>
<g id="a_node8"><a xlink:href="vdp_8h.html" target="_top" xlink:title="Copyright (c) 2021 Daishi Mori (mori0091)">
<polygon fill="none" stroke="black" points="2620,-134.5 2620,-153.5 2694,-153.5 2694,-134.5 2620,-134.5"/>
<text text-anchor="middle" x="2657" y="-141.5" font-family="Helvetica,sans-Serif" font-size="10.00">include/vdp.h</text>
</a>
</g>
</g>
<!-- Node1&#45;&gt;Node8 -->
<g id="edge8" class="edge">
<title>Node1&#45;&gt;Node8</title>
<path fill="none" stroke="midnightblue" d="M4783.12,-252.83C4504.62,-238.7 2955.64,-160.15 2694.41,-146.9"/>
<polygon fill="midnightblue" stroke="midnightblue" points="4783.06,-256.33 4793.23,-253.34 4783.42,-249.34 4783.06,-256.33"/>
</g>
<!-- Node47 -->
<g id="node47" class="node">
<title>Node47</title>
<g id="a_node47"><a xlink:href="vmem_8h.html" target="_top" xlink:title="Copyright (c) 2021 Daishi Mori (mori0091)">
<polygon fill="none" stroke="black" points="432.5,-190.5 432.5,-209.5 517.5,-209.5 517.5,-190.5 432.5,-190.5"/>
<text text-anchor="middle" x="475" y="-197.5" font-family="Helvetica,sans-Serif" font-size="10.00">include/vmem.h</text>
</a>
</g>
</g>
<!-- Node1&#45;&gt;Node47 -->
<g id="edge49" class="edge">
<title>Node1&#45;&gt;Node47</title>
<path fill="none" stroke="midnightblue" d="M4783.22,-254.47C4360.64,-249.22 940.41,-206.78 517.78,-201.53"/>
<polygon fill="midnightblue" stroke="midnightblue" points="4783.44,-257.97 4793.48,-254.6 4783.52,-250.97 4783.44,-257.97"/>
</g>
<!-- Node57 -->
<g id="node50" class="node">
<title>Node57</title>
<g id="a_node50"><a xlink:href="joypad__get__state_8c.html" target="_top" xlink:title="Copyright (c) 2021 Daishi Mori (mori0091)">
<polygon fill="none" stroke="black" points="5013,-190.5 5013,-209.5 5127,-209.5 5127,-190.5 5013,-190.5"/>
<text text-anchor="middle" x="5070" y="-197.5" font-family="Helvetica,sans-Serif" font-size="10.00">src/joypad_get_state.c</text>
</a>
</g>
</g>
<!-- Node1&#45;&gt;Node57 -->
<g id="edge66" class="edge">
<title>Node1&#45;&gt;Node57</title>
<path fill="none" stroke="midnightblue" d="M4868.61,-245.57C4914.6,-235.39 4987.19,-219.33 5031.51,-209.52"/>
<polygon fill="midnightblue" stroke="midnightblue" points="4867.66,-242.2 4858.65,-247.77 4869.17,-249.03 4867.66,-242.2"/>
</g>
<!-- Node3&#45;&gt;Node2 -->
<g id="edge3" class="edge">
<title>Node3&#45;&gt;Node2</title>
<path fill="none" stroke="midnightblue" d="M4955.91,-179.89C4953.62,-166.06 4948.85,-147.51 4939,-134 4907.69,-91.07 4890.7,-82.88 4840,-67 4735.67,-34.32 1117.37,-18.37 704.29,-16.66"/>
<polygon fill="midnightblue" stroke="midnightblue" points="4952.5,-180.74 4957.32,-190.18 4959.43,-179.8 4952.5,-180.74"/>
</g>
<!-- Node4 -->
<g id="node4" class="node">
<title>Node4</title>
<g id="a_node4"><a xlink:href="psg__get_8c.html" target="_top" xlink:title="Copyright (c) 2021 Daishi Mori (mori0091)">
<polygon fill="none" stroke="black" points="4854.5,-134.5 4854.5,-153.5 4929.5,-153.5 4929.5,-134.5 4854.5,-134.5"/>
<text text-anchor="middle" x="4892" y="-141.5" font-family="Helvetica,sans-Serif" font-size="10.00">src/psg_get.c</text>
</a>
</g>
</g>
<!-- Node3&#45;&gt;Node4 -->
<g id="edge4" class="edge">
<title>Node3&#45;&gt;Node4</title>
<path fill="none" stroke="midnightblue" d="M4939.45,-183.82C4927.62,-174.15 4912.71,-161.95 4902.8,-153.83"/>
<polygon fill="midnightblue" stroke="midnightblue" points="4937.44,-186.7 4947.4,-190.32 4941.87,-181.28 4937.44,-186.7"/>
</g>
<!-- Node5 -->
<g id="node5" class="node">
<title>Node5</title>
<g id="a_node5"><a xlink:href="psg__init_8c.html" target="_top" xlink:title="Copyright (c) 2021 Daishi Mori (mori0091)">
<polygon fill="none" stroke="black" points="4986,-134.5 4986,-153.5 5060,-153.5 5060,-134.5 4986,-134.5"/>
<text text-anchor="middle" x="5023" y="-141.5" font-family="Helvetica,sans-Serif" font-size="10.00">src/psg_init.c</text>
</a>
</g>
</g>
<!-- Node3&#45;&gt;Node5 -->
<g id="edge5" class="edge">
<title>Node3&#45;&gt;Node5</title>
<path fill="none" stroke="midnightblue" d="M4976.27,-183.82C4987.92,-174.15 5002.6,-161.95 5012.37,-153.83"/>
<polygon fill="midnightblue" stroke="midnightblue" points="4973.9,-181.24 4968.44,-190.32 4978.37,-186.63 4973.9,-181.24"/>
</g>
<!-- Node6 -->
<g id="node6" class="node">
<title>Node6</title>
<g id="a_node6"><a xlink:href="psg__set_8c.html" target="_top" xlink:title="Copyright (c) 2021 Daishi Mori (mori0091)">
<polygon fill="none" stroke="black" points="5078.5,-134.5 5078.5,-153.5 5153.5,-153.5 5153.5,-134.5 5078.5,-134.5"/>
<text text-anchor="middle" x="5116" y="-141.5" font-family="Helvetica,sans-Serif" font-size="10.00">src/psg_set.c</text>
</a>
</g>
</g>
<!-- Node3&#45;&gt;Node6 -->
<g id="edge6" class="edge">
<title>Node3&#45;&gt;Node6</title>
<path fill="none" stroke="midnightblue" d="M4992.61,-187.17C5022.36,-177 5064.55,-162.59 5091.08,-153.52"/>
<polygon fill="midnightblue" stroke="midnightblue" points="4991.37,-183.9 4983.04,-190.44 4993.63,-190.52 4991.37,-183.9"/>
</g>
<!-- Node7 -->
<g id="node7" class="node">
<title>Node7</title>
<g id="a_node7"><a xlink:href="sound_8c.html" target="_top" xlink:title="Copyright (c) 2021 Daishi Mori (mori0091)">
<polygon fill="none" stroke="black" points="5171.5,-134.5 5171.5,-153.5 5238.5,-153.5 5238.5,-134.5 5171.5,-134.5"/>
<text text-anchor="middle" x="5205" y="-141.5" font-family="Helvetica,sans-Serif" font-size="10.00">src/sound.c</text>
</a>
</g>
</g>
<!-- Node3&#45;&gt;Node7 -->
<g id="edge7" class="edge">
<title>Node3&#45;&gt;Node7</title>
<path fill="none" stroke="midnightblue" d="M5005.21,-188.68C5053.86,-178.04 5128.48,-161.73 5171.42,-152.34"/>
<polygon fill="midnightblue" stroke="midnightblue" points="5004.27,-185.3 4995.25,-190.86 5005.76,-192.14 5004.27,-185.3"/>
</g>
<!-- Node8&#45;&gt;Node2 -->
<g id="edge14" class="edge">
<title>Node8&#45;&gt;Node2</title>
<path fill="none" stroke="midnightblue" d="M2704.41,-142.74C2902.88,-141.44 3658.41,-134.13 3693,-98 3702.53,-88.05 3702.66,-76.82 3693,-67 3637.98,-11.05 1050.07,-15.55 704.09,-16.4"/>
<polygon fill="midnightblue" stroke="midnightblue" points="2704.27,-139.24 2694.3,-142.81 2704.32,-146.24 2704.27,-139.24"/>
</g>
<!-- Node9 -->
<g id="node9" class="node">
<title>Node9</title>
<g id="a_node9"><a xlink:href="metasprite_8h.html" target="_top" xlink:title="Copyright (c) 2021 Daishi Mori (mori0091)">
<polygon fill="none" stroke="black" points="423,-73 423,-92 527,-92 527,-73 423,-73"/>
<text text-anchor="middle" x="475" y="-80" font-family="Helvetica,sans-Serif" font-size="10.00">include/metasprite.h</text>
</a>
</g>
</g>
<!-- Node8&#45;&gt;Node9 -->
<g id="edge9" class="edge">
<title>Node8&#45;&gt;Node9</title>
<path fill="none" stroke="midnightblue" d="M2609.51,-142.49C2341.82,-139.56 1019,-123.97 612,-98 583.95,-96.21 552.79,-93.01 527.28,-90.07"/>
<polygon fill="midnightblue" stroke="midnightblue" points="2609.63,-146 2619.67,-142.61 2609.7,-139 2609.63,-146"/>
</g>
<!-- Node13 -->
<g id="node13" class="node">
<title>Node13</title>
<g id="a_node13"><a xlink:href="vdp_8c.html" target="_top" xlink:title="Copyright (c) 2021 Daishi Mori (mori0091)">
<polygon fill="none" stroke="black" points="1659,-73 1659,-92 1715,-92 1715,-73 1659,-73"/>
<text text-anchor="middle" x="1687" y="-80" font-family="Helvetica,sans-Serif" font-size="10.00">src/vdp.c</text>
</a>
</g>
</g>
<!-- Node8&#45;&gt;Node13 -->
<g id="edge15" class="edge">
<title>Node8&#45;&gt;Node13</title>
<path fill="none" stroke="midnightblue" d="M2609.47,-142.74C2444.25,-141.52 1895.66,-134.74 1724,-98 1717.79,-96.67 1711.27,-94.43 1705.46,-92.09"/>
<polygon fill="midnightblue" stroke="midnightblue" points="2609.77,-146.24 2619.79,-142.81 2609.81,-139.24 2609.77,-146.24"/>
</g>
<!-- Node14 -->
<g id="node14" class="node">
<title>Node14</title>
<g id="a_node14"><a xlink:href="vdp__cmd__execute__HMMM_8c.html" target="_top" xlink:title="Copyright (c) 2021 Daishi Mori (mori0091)">
<polygon fill="none" stroke="black" points="1733,-67.5 1733,-97.5 1845,-97.5 1845,-67.5 1733,-67.5"/>
<text text-anchor="start" x="1741" y="-85.5" font-family="Helvetica,sans-Serif" font-size="10.00">src/vdp_cmd_execute</text>
<text text-anchor="middle" x="1789" y="-74.5" font-family="Helvetica,sans-Serif" font-size="10.00">_HMMM.c</text>
</a>
</g>
</g>
<!-- Node8&#45;&gt;Node14 -->
<g id="edge16" class="edge">
<title>Node8&#45;&gt;Node14</title>
<path fill="none" stroke="midnightblue" d="M2609.67,-143.04C2485.24,-142.56 2138.91,-137.49 1854,-98 1851.14,-97.6 1848.21,-97.15 1845.27,-96.64"/>
<polygon fill="midnightblue" stroke="midnightblue" points="2609.96,-146.54 2619.98,-143.07 2609.99,-139.54 2609.96,-146.54"/>
</g>
<!-- Node15 -->
<g id="node15" class="node">
<title>Node15</title>
<g id="a_node15"><a xlink:href="vdp__cmd__execute__HMMV_8c.html" target="_top" xlink:title="Copyright (c) 2021 Daishi Mori (mori0091)">
<polygon fill="none" stroke="black" points="1863,-67.5 1863,-97.5 1975,-97.5 1975,-67.5 1863,-67.5"/>
<text text-anchor="start" x="1871" y="-85.5" font-family="Helvetica,sans-Serif" font-size="10.00">src/vdp_cmd_execute</text>
<text text-anchor="middle" x="1919" y="-74.5" font-family="Helvetica,sans-Serif" font-size="10.00">_HMMV.c</text>
</a>
</g>
</g>
<!-- Node8&#45;&gt;Node15 -->
<g id="edge17" class="edge">
<title>Node8&#45;&gt;Node15</title>
<path fill="none" stroke="midnightblue" d="M2609.84,-142.32C2499.71,-140.19 2217.27,-131.62 1984,-98 1981.14,-97.59 1978.22,-97.12 1975.27,-96.61"/>
<polygon fill="midnightblue" stroke="midnightblue" points="2609.89,-145.82 2619.95,-142.5 2610.02,-138.82 2609.89,-145.82"/>
</g>
<!-- Node16 -->
<g id="node16" class="node">
<title>Node16</title>
<g id="a_node16"><a xlink:href="vdp__cmd__execute__LMMM_8c.html" target="_top" xlink:title="Copyright (c) 2021 Daishi Mori (mori0091)">
<polygon fill="none" stroke="black" points="1993,-67.5 1993,-97.5 2105,-97.5 2105,-67.5 1993,-67.5"/>
<text text-anchor="start" x="2001" y="-85.5" font-family="Helvetica,sans-Serif" font-size="10.00">src/vdp_cmd_execute</text>
<text text-anchor="middle" x="2049" y="-74.5" font-family="Helvetica,sans-Serif" font-size="10.00">_LMMM.c</text>
</a>
</g>
</g>
<!-- Node8&#45;&gt;Node16 -->
<g id="edge18" class="edge">
<title>Node8&#45;&gt;Node16</title>
<path fill="none" stroke="midnightblue" d="M2609.83,-141.26C2515.29,-137.3 2296.08,-125.72 2114,-98 2111.14,-97.56 2108.22,-97.08 2105.28,-96.55"/>
<polygon fill="midnightblue" stroke="midnightblue" points="2609.79,-144.76 2619.93,-141.68 2610.08,-137.77 2609.79,-144.76"/>
</g>
<!-- Node17 -->
<g id="node17" class="node">
<title>Node17</title>
<g id="a_node17"><a xlink:href="vdp__cmd__execute__LMMV_8c.html" target="_top" xlink:title="Copyright (c) 2021 Daishi Mori (mori0091)">
<polygon fill="none" stroke="black" points="2123,-67.5 2123,-97.5 2235,-97.5 2235,-67.5 2123,-67.5"/>
<text text-anchor="start" x="2131" y="-85.5" font-family="Helvetica,sans-Serif" font-size="10.00">src/vdp_cmd_execute</text>
<text text-anchor="middle" x="2179" y="-74.5" font-family="Helvetica,sans-Serif" font-size="10.00">_LMMV.c</text>
</a>
</g>
</g>
<!-- Node8&#45;&gt;Node17 -->
<g id="edge19" class="edge">
<title>Node8&#45;&gt;Node17</title>
<path fill="none" stroke="midnightblue" d="M2609.45,-139.54C2532.38,-133.56 2375.51,-119.76 2244,-98 2241.15,-97.53 2238.23,-97.01 2235.3,-96.46"/>
<polygon fill="midnightblue" stroke="midnightblue" points="2609.55,-143.06 2619.79,-140.34 2610.09,-136.08 2609.55,-143.06"/>
</g>
<!-- Node18 -->
<g id="node18" class="node">
<title>Node18</title>
<g id="a_node18"><a xlink:href="vdp__cmd__set__unrestricted_8c.html" target="_top" xlink:title="Copyright (c) 2021 Daishi Mori (mori0091)">
<polygon fill="none" stroke="black" points="2253.5,-73 2253.5,-92 2408.5,-92 2408.5,-73 2253.5,-73"/>
<text text-anchor="middle" x="2331" y="-80" font-family="Helvetica,sans-Serif" font-size="10.00">src/vdp_cmd_set_unrestricted.c</text>
</a>
</g>
</g>
<!-- Node8&#45;&gt;Node18 -->
<g id="edge20" class="edge">
<title>Node8&#45;&gt;Node18</title>
<path fill="none" stroke="midnightblue" d="M2610.02,-134.43C2548.04,-123.11 2439.61,-103.32 2377.75,-92.03"/>
<polygon fill="midnightblue" stroke="midnightblue" points="2609.46,-137.88 2619.92,-136.23 2610.71,-130.99 2609.46,-137.88"/>
</g>
<!-- Node19 -->
<g id="node19" class="node">
<title>Node19</title>
<g id="a_node19"><a xlink:href="vdp__get__sprite__mode_8c.html" target="_top" xlink:title="Copyright (c) 2021 Daishi Mori (mori0091)">
<polygon fill="none" stroke="black" points="2426.5,-67.5 2426.5,-97.5 2523.5,-97.5 2523.5,-67.5 2426.5,-67.5"/>
<text text-anchor="start" x="2434.5" y="-85.5" font-family="Helvetica,sans-Serif" font-size="10.00">src/vdp_get_sprite</text>
<text text-anchor="middle" x="2475" y="-74.5" font-family="Helvetica,sans-Serif" font-size="10.00">_mode.c</text>
</a>
</g>
</g>
<!-- Node8&#45;&gt;Node19 -->
<g id="edge21" class="edge">
<title>Node8&#45;&gt;Node19</title>
<path fill="none" stroke="midnightblue" d="M2621.39,-131.36C2591.73,-121.66 2549.41,-107.83 2517.89,-97.52"/>
<polygon fill="midnightblue" stroke="midnightblue" points="2620.33,-134.69 2630.92,-134.48 2622.51,-128.04 2620.33,-134.69"/>
</g>
<!-- Node20 -->
<g id="node20" class="node">
<title>Node20</title>
<g id="a_node20"><a xlink:href="vdp__get__status_8c.html" target="_top" xlink:title="Copyright (c) 2021 Daishi Mori (mori0091)">
<polygon fill="none" stroke="black" points="2541.5,-73 2541.5,-92 2648.5,-92 2648.5,-73 2541.5,-73"/>
<text text-anchor="middle" x="2595" y="-80" font-family="Helvetica,sans-Serif" font-size="10.00">src/vdp_get_status.c</text>
</a>
</g>
</g>
<!-- Node8&#45;&gt;Node20 -->
<g id="edge22" class="edge">
<title>Node8&#45;&gt;Node20</title>
<path fill="none" stroke="midnightblue" d="M2640.67,-127.32C2628.89,-116.02 2613.44,-101.19 2603.87,-92.01"/>
<polygon fill="midnightblue" stroke="midnightblue" points="2638.48,-130.08 2648.12,-134.48 2643.33,-125.03 2638.48,-130.08"/>
</g>
<!-- Node21 -->
<g id="node21" class="node">
<title>Node21</title>
<g id="a_node21"><a xlink:href="vdp__set__adjust_8c.html" target="_top" xlink:title="Copyright (c) 2021 Daishi Mori (mori0091)">
<polygon fill="none" stroke="black" points="2666.5,-73 2666.5,-92 2773.5,-92 2773.5,-73 2666.5,-73"/>
<text text-anchor="middle" x="2720" y="-80" font-family="Helvetica,sans-Serif" font-size="10.00">src/vdp_set_adjust.c</text>
</a>
</g>
</g>
<!-- Node8&#45;&gt;Node21 -->
<g id="edge23" class="edge">
<title>Node8&#45;&gt;Node21</title>
<path fill="none" stroke="midnightblue" d="M2673.6,-127.32C2685.57,-116.02 2701.27,-101.19 2710.99,-92.01"/>
<polygon fill="midnightblue" stroke="midnightblue" points="2670.89,-125.06 2666.03,-134.48 2675.7,-130.15 2670.89,-125.06"/>
</g>
<!-- Node22 -->
<g id="node22" class="node">
<title>Node22</title>
<g id="a_node22"><a xlink:href="vdp__set__color_8c.html" target="_top" xlink:title="Copyright (c) 2021 Daishi Mori (mori0091)">
<polygon fill="none" stroke="black" points="2791.5,-73 2791.5,-92 2892.5,-92 2892.5,-73 2791.5,-73"/>
<text text-anchor="middle" x="2842" y="-80" font-family="Helvetica,sans-Serif" font-size="10.00">src/vdp_set_color.c</text>
</a>
</g>
</g>
<!-- Node8&#45;&gt;Node22 -->
<g id="edge24" class="edge">
<title>Node8&#45;&gt;Node22</title>
<path fill="none" stroke="midnightblue" d="M2693.13,-131.38C2729.09,-119.82 2783.42,-102.34 2815.54,-92.01"/>
<polygon fill="midnightblue" stroke="midnightblue" points="2691.95,-128.08 2683.51,-134.48 2694.1,-134.75 2691.95,-128.08"/>
</g>
<!-- Node23 -->
<g id="node23" class="node">
<title>Node23</title>
<g id="a_node23"><a xlink:href="vdp__set__color__table_8c.html" target="_top" xlink:title="Copyright (c) 2021 Daishi Mori (mori0091)">
<polygon fill="none" stroke="black" points="2911,-73 2911,-92 3039,-92 3039,-73 2911,-73"/>
<text text-anchor="middle" x="2975" y="-80" font-family="Helvetica,sans-Serif" font-size="10.00">src/vdp_set_color_table.c</text>
</a>
</g>
</g>
<!-- Node8&#45;&gt;Node23 -->
<g id="edge25" class="edge">
<title>Node8&#45;&gt;Node23</title>
<path fill="none" stroke="midnightblue" d="M2704.45,-134.49C2753.84,-125.59 2833.39,-111.11 2902,-98 2911.9,-96.11 2922.54,-94.02 2932.56,-92.04"/>
<polygon fill="midnightblue" stroke="midnightblue" points="2703.61,-131.09 2694.39,-136.31 2704.85,-137.98 2703.61,-131.09"/>
</g>
<!-- Node24 -->
<g id="node24" class="node">
<title>Node24</title>
<g id="a_node24"><a xlink:href="vdp__set__control_8c.html" target="_top" xlink:title="Copyright (c) 2021 Daishi Mori (mori0091)">
<polygon fill="none" stroke="black" points="3057,-73 3057,-92 3167,-92 3167,-73 3057,-73"/>
<text text-anchor="middle" x="3112" y="-80" font-family="Helvetica,sans-Serif" font-size="10.00">src/vdp_set_control.c</text>
</a>
</g>
</g>
<!-- Node8&#45;&gt;Node24 -->
<g id="edge26" class="edge">
<title>Node8&#45;&gt;Node24</title>
<path fill="none" stroke="midnightblue" d="M2704.47,-139.21C2778.28,-132.93 2924.89,-118.97 3048,-98 3057.66,-96.36 3068.05,-94.18 3077.59,-92.01"/>
<polygon fill="midnightblue" stroke="midnightblue" points="2703.79,-135.75 2694.12,-140.08 2704.37,-142.73 2703.79,-135.75"/>
</g>
<!-- Node25 -->
<g id="node25" class="node">
<title>Node25</title>
<g id="a_node25"><a xlink:href="vdp__set__hscroll_8c.html" target="_top" xlink:title="Copyright (c) 2021 Daishi Mori (mori0091)">
<polygon fill="none" stroke="black" points="3185.5,-73 3185.5,-92 3294.5,-92 3294.5,-73 3185.5,-73"/>
<text text-anchor="middle" x="3240" y="-80" font-family="Helvetica,sans-Serif" font-size="10.00">src/vdp_set_hscroll.c</text>
</a>
</g>
</g>
<!-- Node8&#45;&gt;Node25 -->
<g id="edge27" class="edge">
<title>Node8&#45;&gt;Node25</title>
<path fill="none" stroke="midnightblue" d="M2704.06,-141.07C2795.48,-136.85 3003.26,-124.93 3176,-98 3185.91,-96.46 3196.56,-94.26 3206.29,-92.04"/>
<polygon fill="midnightblue" stroke="midnightblue" points="2703.85,-137.58 2694.02,-141.52 2704.17,-144.57 2703.85,-137.58"/>
</g>
<!-- Node26 -->
<g id="node26" class="node">
<title>Node26</title>
<g id="a_node26"><a xlink:href="vdp__set__hscroll__dual__page_8c.html" target="_top" xlink:title="Copyright (c) 2021 Daishi Mori (mori0091)">
<polygon fill="none" stroke="black" points="3312.5,-67.5 3312.5,-97.5 3413.5,-97.5 3413.5,-67.5 3312.5,-67.5"/>
<text text-anchor="start" x="3320.5" y="-85.5" font-family="Helvetica,sans-Serif" font-size="10.00">src/vdp_set_hscroll</text>
<text text-anchor="middle" x="3363" y="-74.5" font-family="Helvetica,sans-Serif" font-size="10.00">_dual_page.c</text>
</a>
</g>
</g>
<!-- Node8&#45;&gt;Node26 -->
<g id="edge28" class="edge">
<title>Node8&#45;&gt;Node26</title>
<path fill="none" stroke="midnightblue" d="M2704.26,-142.48C2811.53,-140.7 3081.41,-132.83 3304,-98 3306.71,-97.58 3309.48,-97.09 3312.26,-96.56"/>
<polygon fill="midnightblue" stroke="midnightblue" points="2704.03,-138.98 2694.09,-142.64 2704.14,-145.98 2704.03,-138.98"/>
</g>
<!-- Node27 -->
<g id="node27" class="node">
<title>Node27</title>
<g id="a_node27"><a xlink:href="vdp__set__hscroll__mask_8c.html" target="_top" xlink:title="Copyright (c) 2021 Daishi Mori (mori0091)">
<polygon fill="none" stroke="black" points="3431.5,-67.5 3431.5,-97.5 3532.5,-97.5 3532.5,-67.5 3431.5,-67.5"/>
<text text-anchor="start" x="3439.5" y="-85.5" font-family="Helvetica,sans-Serif" font-size="10.00">src/vdp_set_hscroll</text>
<text text-anchor="middle" x="3482" y="-74.5" font-family="Helvetica,sans-Serif" font-size="10.00">_mask.c</text>
</a>
</g>
</g>
<!-- Node8&#45;&gt;Node27 -->
<g id="edge29" class="edge">
<title>Node8&#45;&gt;Node27</title>
<path fill="none" stroke="midnightblue" d="M2704.32,-143.21C2824.91,-143.09 3153.26,-138.72 3423,-98 3425.71,-97.59 3428.48,-97.11 3431.27,-96.59"/>
<polygon fill="midnightblue" stroke="midnightblue" points="2704.32,-139.71 2694.32,-143.21 2704.32,-146.71 2704.32,-139.71"/>
</g>
<!-- Node28 -->
<g id="node28" class="node">
<title>Node28</title>
<g id="a_node28"><a xlink:href="vdp__set__image__table_8c.html" target="_top" xlink:title="Copyright (c) 2021 Daishi Mori (mori0091)">
<polygon fill="none" stroke="black" points="3550.5,-73 3550.5,-92 3683.5,-92 3683.5,-73 3550.5,-73"/>
<text text-anchor="middle" x="3617" y="-80" font-family="Helvetica,sans-Serif" font-size="10.00">src/vdp_set_image_table.c</text>
</a>
</g>
</g>
<!-- Node8&#45;&gt;Node28 -->
<g id="edge30" class="edge">
<title>Node8&#45;&gt;Node28</title>
<path fill="none" stroke="midnightblue" d="M2704.48,-142.92C2837.31,-142.2 3223.79,-136.66 3542,-98 3553.85,-96.56 3566.64,-94.34 3578.24,-92.07"/>
<polygon fill="midnightblue" stroke="midnightblue" points="2704.24,-139.42 2694.26,-142.97 2704.27,-146.42 2704.24,-139.42"/>
</g>
<!-- Node29 -->
<g id="node29" class="node">
<title>Node29</title>
<g id="a_node29"><a xlink:href="vdp__set__palette_8c.html" target="_top" xlink:title="Copyright (c) 2021 Daishi Mori (mori0091)">
<polygon fill="none" stroke="black" points="3740,-73 3740,-92 3850,-92 3850,-73 3740,-73"/>
<text text-anchor="middle" x="3795" y="-80" font-family="Helvetica,sans-Serif" font-size="10.00">src/vdp_set_palette.c</text>
</a>
</g>
</g>
<!-- Node8&#45;&gt;Node29 -->
<g id="edge31" class="edge">
<title>Node8&#45;&gt;Node29</title>
<path fill="none" stroke="midnightblue" d="M2704.25,-142.05C2883.84,-138.27 3523.94,-123.31 3726,-98 3737.17,-96.6 3749.23,-94.33 3760.09,-92"/>
<polygon fill="midnightblue" stroke="midnightblue" points="2704,-138.55 2694.08,-142.26 2704.15,-145.55 2704,-138.55"/>
</g>
<!-- Node30 -->
<g id="node30" class="node">
<title>Node30</title>
<g id="a_node30"><a xlink:href="vdp__set__pattern__table_8c.html" target="_top" xlink:title="Copyright (c) 2021 Daishi Mori (mori0091)">
<polygon fill="none" stroke="black" points="3868.5,-67.5 3868.5,-97.5 3971.5,-97.5 3971.5,-67.5 3868.5,-67.5"/>
<text text-anchor="start" x="3876.5" y="-85.5" font-family="Helvetica,sans-Serif" font-size="10.00">src/vdp_set_pattern</text>
<text text-anchor="middle" x="3920" y="-74.5" font-family="Helvetica,sans-Serif" font-size="10.00">_table.c</text>
</a>
</g>
</g>
<!-- Node8&#45;&gt;Node30 -->
<g id="edge32" class="edge">
<title>Node8&#45;&gt;Node30</title>
<path fill="none" stroke="midnightblue" d="M2704.32,-142.47C2897.87,-140.1 3629.92,-129.21 3859,-98 3862.02,-97.59 3865.11,-97.09 3868.22,-96.54"/>
<polygon fill="midnightblue" stroke="midnightblue" points="2704.14,-138.97 2694.19,-142.59 2704.23,-145.97 2704.14,-138.97"/>
</g>
<!-- Node31 -->
<g id="node31" class="node">
<title>Node31</title>
<g id="a_node31"><a xlink:href="vdp__set__screen__lines_8c.html" target="_top" xlink:title="Copyright (c) 2021 Daishi Mori (mori0091)">
<polygon fill="none" stroke="black" points="3990,-67.5 3990,-97.5 4092,-97.5 4092,-67.5 3990,-67.5"/>
<text text-anchor="start" x="3998" y="-85.5" font-family="Helvetica,sans-Serif" font-size="10.00">src/vdp_set_screen</text>
<text text-anchor="middle" x="4041" y="-74.5" font-family="Helvetica,sans-Serif" font-size="10.00">_lines.c</text>
</a>
</g>
</g>
<!-- Node8&#45;&gt;Node31 -->
<g id="edge33" class="edge">
<title>Node8&#45;&gt;Node31</title>
<path fill="none" stroke="midnightblue" d="M2704.33,-142.68C2909.95,-141.09 3726.77,-132.67 3981,-98 3983.87,-97.61 3986.8,-97.14 3989.74,-96.61"/>
<polygon fill="midnightblue" stroke="midnightblue" points="2704.14,-139.18 2694.16,-142.76 2704.19,-146.18 2704.14,-139.18"/>
</g>
<!-- Node32 -->
<g id="node32" class="node">
<title>Node32</title>
<g id="a_node32"><a xlink:href="vdp__set__screen__mode_8c.html" target="_top" xlink:title="Copyright (c) 2021 Daishi Mori (mori0091)">
<polygon fill="none" stroke="black" points="4110,-67.5 4110,-97.5 4212,-97.5 4212,-67.5 4110,-67.5"/>
<text text-anchor="start" x="4118" y="-85.5" font-family="Helvetica,sans-Serif" font-size="10.00">src/vdp_set_screen</text>
<text text-anchor="middle" x="4161" y="-74.5" font-family="Helvetica,sans-Serif" font-size="10.00">_mode.c</text>
</a>
</g>
</g>
<!-- Node8&#45;&gt;Node32 -->
<g id="edge34" class="edge">
<title>Node8&#45;&gt;Node32</title>
<path fill="none" stroke="midnightblue" d="M2704.33,-142.83C2921.25,-141.88 3821.9,-135.66 4101,-98 4103.87,-97.61 4106.8,-97.15 4109.75,-96.62"/>
<polygon fill="midnightblue" stroke="midnightblue" points="2704.21,-139.34 2694.22,-142.88 2704.24,-146.34 2704.21,-139.34"/>
</g>
<!-- Node33 -->
<g id="node33" class="node">
<title>Node33</title>
<g id="a_node33"><a xlink:href="vdp__set__sprite__attribute__table_8c.html" target="_top" xlink:title="Copyright (c) 2021 Daishi Mori (mori0091)">
<polygon fill="none" stroke="black" points="4229.5,-67.5 4229.5,-97.5 4326.5,-97.5 4326.5,-67.5 4229.5,-67.5"/>
<text text-anchor="start" x="4237.5" y="-85.5" font-family="Helvetica,sans-Serif" font-size="10.00">src/vdp_set_sprite</text>
<text text-anchor="middle" x="4278" y="-74.5" font-family="Helvetica,sans-Serif" font-size="10.00">_attribute_table.c</text>
</a>
</g>
</g>
<!-- Node8&#45;&gt;Node33 -->
<g id="edge35" class="edge">
<title>Node8&#45;&gt;Node33</title>
<path fill="none" stroke="midnightblue" d="M2704.51,-143.04C2932.66,-143.03 3917.29,-140.47 4221,-98 4223.73,-97.62 4226.52,-97.16 4229.32,-96.63"/>
<polygon fill="midnightblue" stroke="midnightblue" points="2704.22,-139.54 2694.22,-143.04 2704.22,-146.54 2704.22,-139.54"/>
</g>
<!-- Node34 -->
<g id="node34" class="node">
<title>Node34</title>
<g id="a_node34"><a xlink:href="vdp__set__sprite__pattern__table_8c.html" target="_top" xlink:title="Copyright (c) 2021 Daishi Mori (mori0091)">
<polygon fill="none" stroke="black" points="4344.5,-67.5 4344.5,-97.5 4441.5,-97.5 4441.5,-67.5 4344.5,-67.5"/>
<text text-anchor="start" x="4352.5" y="-85.5" font-family="Helvetica,sans-Serif" font-size="10.00">src/vdp_set_sprite</text>
<text text-anchor="middle" x="4393" y="-74.5" font-family="Helvetica,sans-Serif" font-size="10.00">_pattern_table.c</text>
</a>
</g>
</g>
<!-- Node8&#45;&gt;Node34 -->
<g id="edge36" class="edge">
<title>Node8&#45;&gt;Node34</title>
<path fill="none" stroke="midnightblue" d="M2704.13,-143.15C2941.58,-143.69 4008.18,-143.51 4336,-98 4338.73,-97.62 4341.52,-97.16 4344.32,-96.64"/>
<polygon fill="midnightblue" stroke="midnightblue" points="2704.11,-139.65 2694.1,-143.13 2704.09,-146.65 2704.11,-139.65"/>
</g>
<!-- Node35 -->
<g id="node35" class="node">
<title>Node35</title>
<g id="a_node35"><a xlink:href="vdp__set__sprite__size_8c.html" target="_top" xlink:title="Copyright (c) 2021 Daishi Mori (mori0091)">
<polygon fill="none" stroke="black" points="4459.5,-67.5 4459.5,-97.5 4556.5,-97.5 4556.5,-67.5 4459.5,-67.5"/>
<text text-anchor="start" x="4467.5" y="-85.5" font-family="Helvetica,sans-Serif" font-size="10.00">src/vdp_set_sprite</text>
<text text-anchor="middle" x="4508" y="-74.5" font-family="Helvetica,sans-Serif" font-size="10.00">_size.c</text>
</a>
</g>
</g>
<!-- Node8&#45;&gt;Node35 -->
<g id="edge37" class="edge">
<title>Node8&#45;&gt;Node35</title>
<path fill="none" stroke="midnightblue" d="M2704.14,-143.25C2951.26,-144.31 4099.2,-146.53 4451,-98 4453.73,-97.62 4456.52,-97.16 4459.32,-96.65"/>
<polygon fill="midnightblue" stroke="midnightblue" points="2704.07,-139.74 2694.06,-143.2 2704.04,-146.74 2704.07,-139.74"/>
</g>
<!-- Node36 -->
<g id="node36" class="node">
<title>Node36</title>
<g id="a_node36"><a xlink:href="vdp__set__sprite__visible_8c.html" target="_top" xlink:title="Copyright (c) 2021 Daishi Mori (mori0091)">
<polygon fill="none" stroke="black" points="4574.5,-67.5 4574.5,-97.5 4671.5,-97.5 4671.5,-67.5 4574.5,-67.5"/>
<text text-anchor="start" x="4582.5" y="-85.5" font-family="Helvetica,sans-Serif" font-size="10.00">src/vdp_set_sprite</text>
<text text-anchor="middle" x="4623" y="-74.5" font-family="Helvetica,sans-Serif" font-size="10.00">_visible.c</text>
</a>
</g>
</g>
<!-- Node8&#45;&gt;Node36 -->
<g id="edge38" class="edge">
<title>Node8&#45;&gt;Node36</title>
<path fill="none" stroke="midnightblue" d="M2704.29,-142.52C2980.23,-139.66 4376.71,-123.97 4566,-98 4568.73,-97.63 4571.52,-97.17 4574.33,-96.65"/>
<polygon fill="midnightblue" stroke="midnightblue" points="2704.17,-139.02 2694.2,-142.63 2704.24,-146.02 2704.17,-139.02"/>
</g>
<!-- Node37 -->
<g id="node37" class="node">
<title>Node37</title>
<g id="a_node37"><a xlink:href="vdp__set__visible_8c.html" target="_top" xlink:title="Copyright (c) 2021 Daishi Mori (mori0091)">
<polygon fill="none" stroke="black" points="4690,-73 4690,-92 4798,-92 4798,-73 4690,-73"/>
<text text-anchor="middle" x="4744" y="-80" font-family="Helvetica,sans-Serif" font-size="10.00">src/vdp_set_visible.c</text>
</a>
</g>
</g>
<!-- Node8&#45;&gt;Node37 -->
<g id="edge39" class="edge">
<title>Node8&#45;&gt;Node37</title>
<path fill="none" stroke="midnightblue" d="M2704.08,-143.26C2969.42,-144.51 4280.47,-148.01 4681,-98 4691.47,-96.69 4702.74,-94.39 4712.82,-92"/>
<polygon fill="midnightblue" stroke="midnightblue" points="2704.02,-139.76 2694.01,-143.21 2703.99,-146.76 2704.02,-139.76"/>
</g>
<!-- Node38 -->
<g id="node38" class="node">
<title>Node38</title>
<g id="a_node38"><a xlink:href="vdp__set__vscroll_8c.html" target="_top" xlink:title="Copyright (c) 2021 Daishi Mori (mori0091)">
<polygon fill="none" stroke="black" points="621.5,-73 621.5,-92 730.5,-92 730.5,-73 621.5,-73"/>
<text text-anchor="middle" x="676" y="-80" font-family="Helvetica,sans-Serif" font-size="10.00">src/vdp_set_vscroll.c</text>
</a>
</g>
</g>
<!-- Node8&#45;&gt;Node38 -->
<g id="edge40" class="edge">
<title>Node8&#45;&gt;Node38</title>
<path fill="none" stroke="midnightblue" d="M2609.54,-143.19C2351.72,-144.03 1117.12,-145.45 739,-98 728.64,-96.7 717.5,-94.43 707.5,-92.07"/>
<polygon fill="midnightblue" stroke="midnightblue" points="2609.71,-146.69 2619.7,-143.16 2609.68,-139.69 2609.71,-146.69"/>
</g>
<!-- Node39 -->
<g id="node39" class="node">
<title>Node39</title>
<g id="a_node39"><a xlink:href="vdp__write__control_8c.html" target="_top" xlink:title="Copyright (c) 2021 Daishi Mori (mori0091)">
<polygon fill="none" stroke="black" points="748.5,-73 748.5,-92 865.5,-92 865.5,-73 748.5,-73"/>
<text text-anchor="middle" x="807" y="-80" font-family="Helvetica,sans-Serif" font-size="10.00">src/vdp_write_control.c</text>
</a>
</g>
</g>
<!-- Node8&#45;&gt;Node39 -->
<g id="edge41" class="edge">
<title>Node8&#45;&gt;Node39</title>
<path fill="none" stroke="midnightblue" d="M2609.78,-143.01C2363.49,-142.87 1224.27,-139.94 874,-98 863.01,-96.68 851.16,-94.41 840.53,-92.05"/>
<polygon fill="midnightblue" stroke="midnightblue" points="2609.83,-146.51 2619.83,-143.01 2609.83,-139.51 2609.83,-146.51"/>
</g>
<!-- Node40 -->
<g id="node40" class="node">
<title>Node40</title>
<g id="a_node40"><a xlink:href="vdp__write__palette_8c.html" target="_top" xlink:title="Copyright (c) 2021 Daishi Mori (mori0091)">
<polygon fill="none" stroke="black" points="883.5,-73 883.5,-92 1000.5,-92 1000.5,-73 883.5,-73"/>
<text text-anchor="middle" x="942" y="-80" font-family="Helvetica,sans-Serif" font-size="10.00">src/vdp_write_palette.c</text>
</a>
</g>
</g>
<!-- Node8&#45;&gt;Node40 -->
<g id="edge42" class="edge">
<title>Node8&#45;&gt;Node40</title>
<path fill="none" stroke="midnightblue" d="M2609.68,-142.87C2374.73,-142.07 1331.87,-136.39 1010,-98 998.85,-96.67 986.83,-94.39 976.04,-92.03"/>
<polygon fill="midnightblue" stroke="midnightblue" points="2609.93,-146.38 2619.94,-142.91 2609.95,-139.38 2609.93,-146.38"/>
</g>
<!-- Node41 -->
<g id="node41" class="node">
<title>Node41</title>
<g id="a_node41"><a xlink:href="vmem__memset_8c.html" target="_top" xlink:title="Copyright (c) 2021 Daishi Mori (mori0091)">
<polygon fill="none" stroke="black" points="1019,-73 1019,-92 1127,-92 1127,-73 1019,-73"/>
<text text-anchor="middle" x="1073" y="-80" font-family="Helvetica,sans-Serif" font-size="10.00">src/vmem_memset.c</text>
</a>
</g>
</g>
<!-- Node8&#45;&gt;Node41 -->
<g id="edge43" class="edge">
<title>Node8&#45;&gt;Node41</title>
<path fill="none" stroke="midnightblue" d="M2609.72,-142.85C2385.9,-141.96 1431.33,-135.98 1136,-98 1125.65,-96.67 1114.5,-94.39 1104.51,-92.03"/>
<polygon fill="midnightblue" stroke="midnightblue" points="2609.81,-146.35 2619.82,-142.89 2609.84,-139.35 2609.81,-146.35"/>
</g>
<!-- Node42 -->
<g id="node42" class="node">
<title>Node42</title>
<g id="a_node42"><a xlink:href="vmem__read_8c.html" target="_top" xlink:title="Copyright (c) 2021 Daishi Mori (mori0091)">
<polygon fill="none" stroke="black" points="1145,-73 1145,-92 1237,-92 1237,-73 1145,-73"/>
<text text-anchor="middle" x="1191" y="-80" font-family="Helvetica,sans-Serif" font-size="10.00">src/vmem_read.c</text>
</a>
</g>
</g>
<!-- Node8&#45;&gt;Node42 -->
<g id="edge44" class="edge">
<title>Node8&#45;&gt;Node42</title>
<path fill="none" stroke="midnightblue" d="M2609.72,-142.93C2395.89,-142.37 1517.89,-137.65 1246,-98 1236.91,-96.67 1227.17,-94.4 1218.45,-92.04"/>
<polygon fill="midnightblue" stroke="midnightblue" points="2609.97,-146.43 2619.98,-142.95 2609.98,-139.43 2609.97,-146.43"/>
</g>
<!-- Node43 -->
<g id="node43" class="node">
<title>Node43</title>
<g id="a_node43"><a xlink:href="vmem__set__read__address_8c.html" target="_top" xlink:title="Copyright (c) 2021 Daishi Mori (mori0091)">
<polygon fill="none" stroke="black" points="1255,-73 1255,-92 1405,-92 1405,-73 1255,-73"/>
<text text-anchor="middle" x="1330" y="-80" font-family="Helvetica,sans-Serif" font-size="10.00">src/vmem_set_read_address.c</text>
</a>
</g>
</g>
<!-- Node8&#45;&gt;Node43 -->
<g id="edge45" class="edge">
<title>Node8&#45;&gt;Node43</title>
<path fill="none" stroke="midnightblue" d="M2609.74,-142.14C2412.27,-138.43 1652.44,-122.78 1414,-98 1400.61,-96.61 1386.12,-94.37 1373.01,-92.07"/>
<polygon fill="midnightblue" stroke="midnightblue" points="2609.73,-145.64 2619.79,-142.33 2609.86,-138.64 2609.73,-145.64"/>
</g>
<!-- Node44 -->
<g id="node44" class="node">
<title>Node44</title>
<g id="a_node44"><a xlink:href="vmem__set__sprite__color__s_8c.html" target="_top" xlink:title="Copyright (c) 2021 Daishi Mori (mori0091)">
<polygon fill="none" stroke="black" points="0,-0.5 0,-30.5 108,-30.5 108,-0.5 0,-0.5"/>
<text text-anchor="start" x="8" y="-18.5" font-family="Helvetica,sans-Serif" font-size="10.00">src/vmem_set_sprite</text>
<text text-anchor="middle" x="54" y="-7.5" font-family="Helvetica,sans-Serif" font-size="10.00">_color_s.c</text>
</a>
</g>
</g>
<!-- Node8&#45;&gt;Node44 -->
<g id="edge46" class="edge">
<title>Node8&#45;&gt;Node44</title>
<path fill="none" stroke="midnightblue" d="M2609.48,-142.74C2278.95,-140.84 332.51,-128.43 212,-98 158.43,-84.48 102.53,-50.02 73.75,-30.51"/>
<polygon fill="midnightblue" stroke="midnightblue" points="2609.65,-146.24 2619.67,-142.8 2609.69,-139.24 2609.65,-146.24"/>
</g>
<!-- Node45 -->
<g id="node45" class="node">
<title>Node45</title>
<g id="a_node45"><a xlink:href="vmem__set__write__address_8c.html" target="_top" xlink:title="Copyright (c) 2021 Daishi Mori (mori0091)">
<polygon fill="none" stroke="black" points="1423.5,-67.5 1423.5,-97.5 1528.5,-97.5 1528.5,-67.5 1423.5,-67.5"/>
<text text-anchor="start" x="1431.5" y="-85.5" font-family="Helvetica,sans-Serif" font-size="10.00">src/vmem_set_write</text>
<text text-anchor="middle" x="1476" y="-74.5" font-family="Helvetica,sans-Serif" font-size="10.00">_address.c</text>
</a>
</g>
</g>
<!-- Node8&#45;&gt;Node45 -->
<g id="edge47" class="edge">
<title>Node8&#45;&gt;Node45</title>
<path fill="none" stroke="midnightblue" d="M2609.67,-142.29C2424.64,-139.34 1750.02,-126.79 1538,-98 1534.93,-97.58 1531.8,-97.08 1528.64,-96.53"/>
<polygon fill="midnightblue" stroke="midnightblue" points="2609.83,-145.79 2619.88,-142.45 2609.94,-138.8 2609.83,-145.79"/>
</g>
<!-- Node46 -->
<g id="node46" class="node">
<title>Node46</title>
<g id="a_node46"><a xlink:href="vmem__write_8c.html" target="_top" xlink:title="Copyright (c) 2021 Daishi Mori (mori0091)">
<polygon fill="none" stroke="black" points="1547,-73 1547,-92 1641,-92 1641,-73 1547,-73"/>
<text text-anchor="middle" x="1594" y="-80" font-family="Helvetica,sans-Serif" font-size="10.00">src/vmem_write.c</text>
</a>
</g>
</g>
<!-- Node8&#45;&gt;Node46 -->
<g id="edge48" class="edge">
<title>Node8&#45;&gt;Node46</title>
<path fill="none" stroke="midnightblue" d="M2609.89,-142.2C2437.16,-139.06 1838.78,-126.34 1650,-98 1640.86,-96.63 1631.06,-94.37 1622.25,-92.04"/>
<polygon fill="midnightblue" stroke="midnightblue" points="2609.88,-145.7 2619.94,-142.38 2610,-138.7 2609.88,-145.7"/>
</g>
<!-- Node9&#45;&gt;Node2 -->
<g id="edge10" class="edge">
<title>Node9&#45;&gt;Node2</title>
<path fill="none" stroke="midnightblue" d="M509.96,-69.6C547.83,-56.71 607.31,-36.47 640.84,-25.06"/>
<polygon fill="midnightblue" stroke="midnightblue" points="508.7,-66.33 500.36,-72.87 510.96,-72.96 508.7,-66.33"/>
</g>
<!-- Node10 -->
<g id="node10" class="node">
<title>Node10</title>
<g id="a_node10"><a xlink:href="vmem__set__metasprite__a_8c.html" target="_top" xlink:title="Copyright (c) 2021 Daishi Mori (mori0091)">
<polygon fill="none" stroke="black" points="462,-6 462,-25 610,-25 610,-6 462,-6"/>
<text text-anchor="middle" x="536" y="-13" font-family="Helvetica,sans-Serif" font-size="10.00">src/vmem_set_metasprite_a.c</text>
</a>
</g>
</g>
<!-- Node9&#45;&gt;Node10 -->
<g id="edge11" class="edge">
<title>Node9&#45;&gt;Node10</title>
<path fill="none" stroke="midnightblue" d="M490.36,-65.13C502.29,-52.42 518.36,-35.3 527.9,-25.13"/>
<polygon fill="midnightblue" stroke="midnightblue" points="487.52,-63.05 483.23,-72.73 492.62,-67.84 487.52,-63.05"/>
</g>
<!-- Node11 -->
<g id="node11" class="node">
<title>Node11</title>
<g id="a_node11"><a xlink:href="vmem__set__metasprite__m_8c.html" target="_top" xlink:title="Copyright (c) 2021 Daishi Mori (mori0091)">
<polygon fill="none" stroke="black" points="126.5,-6 126.5,-25 277.5,-25 277.5,-6 126.5,-6"/>
<text text-anchor="middle" x="202" y="-13" font-family="Helvetica,sans-Serif" font-size="10.00">src/vmem_set_metasprite_m.c</text>
</a>
</g>
</g>
<!-- Node9&#45;&gt;Node11 -->
<g id="edge12" class="edge">
<title>Node9&#45;&gt;Node11</title>
<path fill="none" stroke="midnightblue" d="M429.07,-70.56C375.25,-57.75 287.2,-36.78 238.05,-25.08"/>
<polygon fill="midnightblue" stroke="midnightblue" points="428.49,-74.02 439.03,-72.94 430.11,-67.21 428.49,-74.02"/>
</g>
<!-- Node12 -->
<g id="node12" class="node">
<title>Node12</title>
<g id="a_node12"><a xlink:href="vmem__set__metasprite__s_8c.html" target="_top" xlink:title="Copyright (c) 2021 Daishi Mori (mori0091)">
<polygon fill="none" stroke="black" points="296,-6 296,-25 444,-25 444,-6 296,-6"/>
<text text-anchor="middle" x="370" y="-13" font-family="Helvetica,sans-Serif" font-size="10.00">src/vmem_set_metasprite_s.c</text>
</a>
</g>
</g>
<!-- Node9&#45;&gt;Node12 -->
<g id="edge13" class="edge">
<title>Node9&#45;&gt;Node12</title>
<path fill="none" stroke="midnightblue" d="M452.29,-67.44C431.5,-54.57 401.38,-35.93 383.94,-25.13"/>
<polygon fill="midnightblue" stroke="midnightblue" points="450.49,-70.45 460.84,-72.73 454.18,-64.49 450.49,-70.45"/>
</g>
<!-- Node47&#45;&gt;Node2 -->
<g id="edge51" class="edge">
<title>Node47&#45;&gt;Node2</title>
<path fill="none" stroke="midnightblue" d="M491.3,-183.14C516.89,-158.28 568.12,-108.65 612,-67 627.64,-52.15 646.01,-35.04 656.79,-25.04"/>
<polygon fill="midnightblue" stroke="midnightblue" points="488.66,-180.83 483.93,-190.3 493.54,-185.84 488.66,-180.83"/>
</g>
<!-- Node47&#45;&gt;Node8 -->
<g id="edge64" class="edge">
<title>Node47&#45;&gt;Node8</title>
<path fill="none" stroke="midnightblue" d="M527.94,-197.69C832.9,-190.14 2361.01,-152.33 2619.75,-145.92"/>
<polygon fill="midnightblue" stroke="midnightblue" points="527.52,-194.2 517.61,-197.95 527.69,-201.2 527.52,-194.2"/>
</g>
<!-- Node47&#45;&gt;Node9 -->
<g id="edge50" class="edge">
<title>Node47&#45;&gt;Node9</title>
<path fill="none" stroke="midnightblue" d="M475,-180.16C475,-154.87 475,-110.94 475,-92.28"/>
<polygon fill="midnightblue" stroke="midnightblue" points="471.5,-180.32 475,-190.32 478.5,-180.32 471.5,-180.32"/>
</g>
<!-- Node47&#45;&gt;Node44 -->
<g id="edge65" class="edge">
<title>Node47&#45;&gt;Node44</title>
<path fill="none" stroke="midnightblue" d="M422.27,-192.23C351.78,-181.31 224.94,-154.97 132,-98 102.95,-80.19 77.35,-48.94 63.94,-30.75"/>
<polygon fill="midnightblue" stroke="midnightblue" points="421.84,-195.7 432.25,-193.73 422.88,-188.78 421.84,-195.7"/>
</g>
<!-- Node48 -->
<g id="node48" class="node">
<title>Node48</title>
<g id="a_node48"><a xlink:href="sprite_8h.html" target="_top" xlink:title="Copyright (c) 2021 Daishi Mori (mori0091)">
<polygon fill="none" stroke="red" points="354,-134.5 354,-153.5 436,-153.5 436,-134.5 354,-134.5"/>
<text text-anchor="middle" x="395" y="-141.5" font-family="Helvetica,sans-Serif" font-size="10.00">include/sprite.h</text>
</a>
</g>
</g>
<!-- Node47&#45;&gt;Node48 -->
<g id="edge52" class="edge">
<title>Node47&#45;&gt;Node48</title>
<path fill="none" stroke="midnightblue" d="M453.7,-184.62C439.08,-174.76 420.17,-161.99 407.82,-153.65"/>
<polygon fill="midnightblue" stroke="midnightblue" points="451.9,-187.63 462.15,-190.32 455.82,-181.83 451.9,-187.63"/>
</g>
<!-- Node49 -->
<g id="node49" class="node">
<title>Node49</title>
<g id="a_node49"><a xlink:href="sprite__color_8h.html" target="_top" xlink:title="Copyright (c) 2021 Daishi Mori (mori0091)">
<polygon fill="none" stroke="red" points="221,-73 221,-92 329,-92 329,-73 221,-73"/>
<text text-anchor="middle" x="275" y="-80" font-family="Helvetica,sans-Serif" font-size="10.00">include/sprite_color.h</text>
</a>
</g>
</g>
<!-- Node47&#45;&gt;Node49 -->
<g id="edge63" class="edge">
<title>Node47&#45;&gt;Node49</title>
<path fill="none" stroke="midnightblue" d="M426.15,-187.79C400.71,-180.58 369.81,-169.6 345,-154 317.55,-136.75 292.66,-106.81 281.38,-92.13"/>
<polygon fill="midnightblue" stroke="midnightblue" points="425.4,-191.21 435.97,-190.46 427.24,-184.46 425.4,-191.21"/>
</g>
<!-- Node48&#45;&gt;Node2 -->
<g id="edge54" class="edge">
<title>Node48&#45;&gt;Node2</title>
<path fill="none" stroke="midnightblue" d="M442.44,-131.88C470.5,-124.33 506.26,-112.98 536,-98 557.04,-87.4 559.23,-79.82 579,-67 603.18,-51.32 632.33,-34.88 650,-25.16"/>
<polygon fill="midnightblue" stroke="midnightblue" points="441.26,-128.57 432.47,-134.49 443.03,-135.34 441.26,-128.57"/>
</g>
<!-- Node48&#45;&gt;Node9 -->
<g id="edge53" class="edge">
<title>Node48&#45;&gt;Node9</title>
<path fill="none" stroke="midnightblue" d="M414.77,-128.29C430.12,-116.88 450.86,-101.46 463.56,-92.01"/>
<polygon fill="midnightblue" stroke="midnightblue" points="412.4,-125.7 406.46,-134.48 416.57,-131.32 412.4,-125.7"/>
</g>
<!-- Node48&#45;&gt;Node10 -->
<g id="edge60" class="edge">
<title>Node48&#45;&gt;Node10</title>
<path fill="none" stroke="midnightblue" d="M395.12,-124.1C396.2,-107.26 400.29,-82.9 414,-67 433.24,-44.69 463.9,-32.06 489.67,-25"/>
<polygon fill="midnightblue" stroke="midnightblue" points="391.62,-124.24 394.77,-134.35 398.61,-124.48 391.62,-124.24"/>
</g>
<!-- Node48&#45;&gt;Node11 -->
<g id="edge61" class="edge">
<title>Node48&#45;&gt;Node11</title>
<path fill="none" stroke="midnightblue" d="M343.39,-136.87C295.55,-130.08 229.25,-117.43 212,-98 193.83,-77.53 197.29,-41.92 200.16,-25.4"/>
<polygon fill="midnightblue" stroke="midnightblue" points="343.21,-140.38 353.59,-138.27 344.16,-133.45 343.21,-140.38"/>
</g>
<!-- Node48&#45;&gt;Node12 -->
<g id="edge62" class="edge">
<title>Node48&#45;&gt;Node12</title>
<path fill="none" stroke="midnightblue" d="M388.62,-124.94C385.94,-116.79 382.99,-107 381,-98 375.2,-71.79 371.99,-40.12 370.69,-25.15"/>
<polygon fill="midnightblue" stroke="midnightblue" points="385.34,-126.16 391.88,-134.49 391.96,-123.89 385.34,-126.16"/>
</g>
<!-- Node48&#45;&gt;Node49 -->
<g id="edge55" class="edge">
<title>Node48&#45;&gt;Node49</title>
<path fill="none" stroke="midnightblue" d="M368.82,-130.02C345.55,-118.48 312.2,-101.94 292.16,-92.01"/>
<polygon fill="midnightblue" stroke="midnightblue" points="367.29,-133.17 377.81,-134.48 370.4,-126.9 367.29,-133.17"/>
</g>
<!-- Node49&#45;&gt;Node2 -->
<g id="edge56" class="edge">
<title>Node49&#45;&gt;Node2</title>
<path fill="none" stroke="midnightblue" d="M339.45,-75.03C408.98,-67.36 522.68,-52.79 619,-31 626.16,-29.38 633.82,-27.21 640.82,-25.05"/>
<polygon fill="midnightblue" stroke="midnightblue" points="338.66,-71.59 329.1,-76.16 339.42,-78.55 338.66,-71.59"/>
</g>
<!-- Node49&#45;&gt;Node11 -->
<g id="edge57" class="edge">
<title>Node49&#45;&gt;Node11</title>
<path fill="none" stroke="midnightblue" d="M257.43,-65.86C243.08,-53.08 223.33,-35.49 211.69,-25.13"/>
<polygon fill="midnightblue" stroke="midnightblue" points="255.36,-68.7 265.15,-72.73 260.01,-63.47 255.36,-68.7"/>
</g>
<!-- Node49&#45;&gt;Node12 -->
<g id="edge58" class="edge">
<title>Node49&#45;&gt;Node12</title>
<path fill="none" stroke="midnightblue" d="M296.31,-66.92C315.09,-54.07 341.82,-35.78 357.39,-25.13"/>
<polygon fill="midnightblue" stroke="midnightblue" points="294.09,-64.2 287.81,-72.73 298.04,-69.98 294.09,-64.2"/>
</g>
<!-- Node49&#45;&gt;Node44 -->
<g id="edge59" class="edge">
<title>Node49&#45;&gt;Node44</title>
<path fill="none" stroke="midnightblue" d="M235.62,-69.92C198.14,-58.9 141.7,-42.29 101.7,-30.53"/>
<polygon fill="midnightblue" stroke="midnightblue" points="235.07,-73.4 245.65,-72.87 237.05,-66.69 235.07,-73.4"/>
</g>
</g>
</svg>
