<?xml version="1.0" encoding="UTF-8" standalone="no"?>
<!DOCTYPE svg PUBLIC "-//W3C//DTD SVG 1.1//EN"
 "http://www.w3.org/Graphics/SVG/1.1/DTD/svg11.dtd">
<!-- Generated by graphviz version 2.44.0 ()
 -->
<!-- Title: include/io.h Pages: 1 -->
<svg width="5266pt" height="274pt"
 viewBox="0.00 0.00 5266.00 274.00" xmlns="http://www.w3.org/2000/svg" xmlns:xlink="http://www.w3.org/1999/xlink">
<g id="graph0" class="graph" transform="scale(1 1) rotate(0) translate(4 270)">
<title>include/io.h</title>
<!-- Node1 -->
<g id="node1" class="node">
<title>Node1</title>
<g id="a_node1"><a xlink:title="Copyright (c) 2021 Daishi Mori (mori0091)">
<polygon fill="#bfbfbf" stroke="black" points="4713.5,-246.5 4713.5,-265.5 4778.5,-265.5 4778.5,-246.5 4713.5,-246.5"/>
<text text-anchor="middle" x="4746" y="-253.5" font-family="Helvetica,sans-Serif" font-size="10.00">include/io.h</text>
</a>
</g>
</g>
<!-- Node2 -->
<g id="node2" class="node">
<title>Node2</title>
<g id="a_node2"><a xlink:href="msx_8h.html" target="_top" xlink:title="Copyright (c) 2021 Daishi Mori (mori0091)">
<polygon fill="none" stroke="black" points="4815,-6 4815,-25 4891,-25 4891,-6 4815,-6"/>
<text text-anchor="middle" x="4853" y="-13" font-family="Helvetica,sans-Serif" font-size="10.00">include/msx.h</text>
</a>
</g>
</g>
<!-- Node1&#45;&gt;Node2 -->
<g id="edge1" class="edge">
<title>Node1&#45;&gt;Node2</title>
<path fill="none" stroke="midnightblue" d="M4751.49,-236.73C4755.61,-223.58 4761.62,-205.49 4768,-190 4794.71,-125.19 4834.46,-50.56 4848.16,-25.34"/>
<polygon fill="midnightblue" stroke="midnightblue" points="4748.09,-235.87 4748.5,-246.46 4754.78,-237.92 4748.09,-235.87"/>
</g>
<!-- Node3 -->
<g id="node3" class="node">
<title>Node3</title>
<g id="a_node3"><a xlink:href="psg_8h.html" target="_top" xlink:title="Copyright (c) 2021 Daishi Mori (mori0091)">
<polygon fill="none" stroke="black" points="227,-190.5 227,-209.5 301,-209.5 301,-190.5 227,-190.5"/>
<text text-anchor="middle" x="264" y="-197.5" font-family="Helvetica,sans-Serif" font-size="10.00">include/psg.h</text>
</a>
</g>
</g>
<!-- Node1&#45;&gt;Node3 -->
<g id="edge2" class="edge">
<title>Node1&#45;&gt;Node3</title>
<path fill="none" stroke="midnightblue" d="M4703.26,-254.49C4271.5,-249.28 705.24,-206.32 301.21,-201.45"/>
<polygon fill="midnightblue" stroke="midnightblue" points="4703.4,-257.99 4713.44,-254.61 4703.49,-250.99 4703.4,-257.99"/>
</g>
<!-- Node8 -->
<g id="node8" class="node">
<title>Node8</title>
<g id="a_node8"><a xlink:href="vdp_8h.html" target="_top" xlink:title="Data types and functions for VDP (Video Display Proccessor) access.">
<polygon fill="none" stroke="black" points="2657,-134.5 2657,-153.5 2731,-153.5 2731,-134.5 2657,-134.5"/>
<text text-anchor="middle" x="2694" y="-141.5" font-family="Helvetica,sans-Serif" font-size="10.00">include/vdp.h</text>
</a>
</g>
</g>
<!-- Node1&#45;&gt;Node8 -->
<g id="edge8" class="edge">
<title>Node1&#45;&gt;Node8</title>
<path fill="none" stroke="midnightblue" d="M4703.22,-252.71C4434.55,-238.3 2983.15,-160.5 2731.27,-147"/>
<polygon fill="midnightblue" stroke="midnightblue" points="4703.18,-256.21 4713.35,-253.25 4703.56,-249.22 4703.18,-256.21"/>
</g>
<!-- Node48 -->
<g id="node47" class="node">
<title>Node48</title>
<g id="a_node47"><a xlink:href="vmem_8h.html" target="_top" xlink:title="Copyright (c) 2021 Daishi Mori (mori0091)">
<polygon fill="none" stroke="black" points="4776.5,-190.5 4776.5,-209.5 4861.5,-209.5 4861.5,-190.5 4776.5,-190.5"/>
<text text-anchor="middle" x="4819" y="-197.5" font-family="Helvetica,sans-Serif" font-size="10.00">include/vmem.h</text>
</a>
</g>
</g>
<!-- Node1&#45;&gt;Node48 -->
<g id="edge49" class="edge">
<title>Node1&#45;&gt;Node48</title>
<path fill="none" stroke="midnightblue" d="M4766.14,-240.1C4779.28,-230.38 4795.98,-218.03 4807.06,-209.83"/>
<polygon fill="midnightblue" stroke="midnightblue" points="4763.69,-237.56 4757.73,-246.32 4767.85,-243.19 4763.69,-237.56"/>
</g>
<!-- Node58 -->
<g id="node50" class="node">
<title>Node58</title>
<g id="a_node50"><a xlink:href="joypad__get__state_8c.html" target="_top" xlink:title="Copyright (c) 2021 Daishi Mori (mori0091)">
<polygon fill="none" stroke="black" points="4880,-190.5 4880,-209.5 4994,-209.5 4994,-190.5 4880,-190.5"/>
<text text-anchor="middle" x="4937" y="-197.5" font-family="Helvetica,sans-Serif" font-size="10.00">src/joypad_get_state.c</text>
</a>
</g>
</g>
<!-- Node1&#45;&gt;Node58 -->
<g id="edge64" class="edge">
<title>Node1&#45;&gt;Node58</title>
<path fill="none" stroke="midnightblue" d="M4785.97,-243.7C4822.02,-233.51 4874.24,-218.74 4906.88,-209.52"/>
<polygon fill="midnightblue" stroke="midnightblue" points="4784.94,-240.35 4776.26,-246.44 4786.84,-247.09 4784.94,-240.35"/>
</g>
<!-- Node3&#45;&gt;Node2 -->
<g id="edge3" class="edge">
<title>Node3&#45;&gt;Node2</title>
<path fill="none" stroke="midnightblue" d="M302.15,-186.71C319.74,-179.47 339.82,-168.79 354,-154 383.32,-123.41 357.53,-90.18 393,-67 444.31,-33.47 4745.43,-40.38 4806,-31 4813.93,-29.77 4822.38,-27.49 4829.89,-25.09"/>
<polygon fill="midnightblue" stroke="midnightblue" points="300.74,-183.5 292.68,-190.38 303.27,-190.03 300.74,-183.5"/>
</g>
<!-- Node4 -->
<g id="node4" class="node">
<title>Node4</title>
<g id="a_node4"><a xlink:href="psg__get_8c.html" target="_top" xlink:title="Copyright (c) 2021 Daishi Mori (mori0091)">
<polygon fill="none" stroke="black" points="270.5,-134.5 270.5,-153.5 345.5,-153.5 345.5,-134.5 270.5,-134.5"/>
<text text-anchor="middle" x="308" y="-141.5" font-family="Helvetica,sans-Serif" font-size="10.00">src/psg_get.c</text>
</a>
</g>
</g>
<!-- Node3&#45;&gt;Node4 -->
<g id="edge4" class="edge">
<title>Node3&#45;&gt;Node4</title>
<path fill="none" stroke="midnightblue" d="M277.73,-182.14C285.4,-172.74 294.63,-161.4 300.87,-153.75"/>
<polygon fill="midnightblue" stroke="midnightblue" points="274.87,-180.12 271.27,-190.08 280.3,-184.54 274.87,-180.12"/>
</g>
<!-- Node5 -->
<g id="node5" class="node">
<title>Node5</title>
<g id="a_node5"><a xlink:href="psg__init_8c.html" target="_top" xlink:title="Copyright (c) 2021 Daishi Mori (mori0091)">
<polygon fill="none" stroke="black" points="0,-134.5 0,-153.5 74,-153.5 74,-134.5 0,-134.5"/>
<text text-anchor="middle" x="37" y="-141.5" font-family="Helvetica,sans-Serif" font-size="10.00">src/psg_init.c</text>
</a>
</g>
</g>
<!-- Node3&#45;&gt;Node5 -->
<g id="edge5" class="edge">
<title>Node3&#45;&gt;Node5</title>
<path fill="none" stroke="midnightblue" d="M218.13,-188.09C175.25,-177.89 112.08,-162.86 72.8,-153.52"/>
<polygon fill="midnightblue" stroke="midnightblue" points="217.49,-191.53 228.03,-190.44 219.11,-184.72 217.49,-191.53"/>
</g>
<!-- Node6 -->
<g id="node6" class="node">
<title>Node6</title>
<g id="a_node6"><a xlink:href="psg__set_8c.html" target="_top" xlink:title="Copyright (c) 2021 Daishi Mori (mori0091)">
<polygon fill="none" stroke="black" points="92.5,-134.5 92.5,-153.5 167.5,-153.5 167.5,-134.5 92.5,-134.5"/>
<text text-anchor="middle" x="130" y="-141.5" font-family="Helvetica,sans-Serif" font-size="10.00">src/psg_set.c</text>
</a>
</g>
</g>
<!-- Node3&#45;&gt;Node6 -->
<g id="edge6" class="edge">
<title>Node3&#45;&gt;Node6</title>
<path fill="none" stroke="midnightblue" d="M233.32,-186.64C208.18,-176.5 173.25,-162.43 151.13,-153.52"/>
<polygon fill="midnightblue" stroke="midnightblue" points="232.18,-189.95 242.77,-190.44 234.8,-183.46 232.18,-189.95"/>
</g>
<!-- Node7 -->
<g id="node7" class="node">
<title>Node7</title>
<g id="a_node7"><a xlink:href="sound_8c.html" target="_top" xlink:title="Copyright (c) 2021 Daishi Mori (mori0091)">
<polygon fill="none" stroke="black" points="185.5,-134.5 185.5,-153.5 252.5,-153.5 252.5,-134.5 185.5,-134.5"/>
<text text-anchor="middle" x="219" y="-141.5" font-family="Helvetica,sans-Serif" font-size="10.00">src/sound.c</text>
</a>
</g>
</g>
<!-- Node3&#45;&gt;Node7 -->
<g id="edge7" class="edge">
<title>Node3&#45;&gt;Node7</title>
<path fill="none" stroke="midnightblue" d="M249.95,-182.14C242.11,-172.74 232.67,-161.4 226.29,-153.75"/>
<polygon fill="midnightblue" stroke="midnightblue" points="247.48,-184.64 256.57,-190.08 252.86,-180.16 247.48,-184.64"/>
</g>
<!-- Node8&#45;&gt;Node2 -->
<g id="edge13" class="edge">
<title>Node8&#45;&gt;Node2</title>
<path fill="none" stroke="midnightblue" d="M2741.71,-142.72C3035.88,-140.93 4593.84,-129.91 4689,-98 4711.34,-90.51 4711.44,-78.5 4732,-67 4763.59,-49.33 4802.61,-34.13 4827.65,-25.15"/>
<polygon fill="midnightblue" stroke="midnightblue" points="2741.37,-139.23 2731.39,-142.79 2741.41,-146.23 2741.37,-139.23"/>
</g>
<!-- Node9 -->
<g id="node9" class="node">
<title>Node9</title>
<g id="a_node9"><a xlink:href="metasprite_8h.html" target="_top" xlink:title="Copyright (c) 2021 Daishi Mori (mori0091)">
<polygon fill="none" stroke="red" points="5014,-73 5014,-92 5118,-92 5118,-73 5014,-73"/>
<text text-anchor="middle" x="5066" y="-80" font-family="Helvetica,sans-Serif" font-size="10.00">include/metasprite.h</text>
</a>
</g>
</g>
<!-- Node8&#45;&gt;Node9 -->
<g id="edge9" class="edge">
<title>Node8&#45;&gt;Node9</title>
<path fill="none" stroke="midnightblue" d="M2741.69,-142.87C3027.16,-141.99 4512.62,-135.62 4967,-98 4983.1,-96.67 5000.57,-94.39 5016.28,-92.03"/>
<polygon fill="midnightblue" stroke="midnightblue" points="2741.27,-139.37 2731.28,-142.9 2741.29,-146.37 2741.27,-139.37"/>
</g>
<!-- Node13 -->
<g id="node12" class="node">
<title>Node13</title>
<g id="a_node12"><a xlink:href="vdp_8c.html" target="_top" xlink:title="Copyright (c) 2021 Daishi Mori (mori0091)">
<polygon fill="none" stroke="black" points="3677,-73 3677,-92 3733,-92 3733,-73 3677,-73"/>
<text text-anchor="middle" x="3705" y="-80" font-family="Helvetica,sans-Serif" font-size="10.00">src/vdp.c</text>
</a>
</g>
</g>
<!-- Node8&#45;&gt;Node13 -->
<g id="edge14" class="edge">
<title>Node8&#45;&gt;Node13</title>
<path fill="none" stroke="midnightblue" d="M2741.37,-142.85C2911.06,-142.01 3487.99,-136.34 3668,-98 3674.21,-96.68 3680.73,-94.43 3686.54,-92.1"/>
<polygon fill="midnightblue" stroke="midnightblue" points="2741.24,-139.35 2731.25,-142.9 2741.27,-146.35 2741.24,-139.35"/>
</g>
<!-- Node14 -->
<g id="node13" class="node">
<title>Node14</title>
<g id="a_node13"><a xlink:href="vdp__cmd__execute_8c.html" target="_top" xlink:title="Copyright (c) 2021 Daishi Mori (mori0091)">
<polygon fill="none" stroke="black" points="3751.5,-73 3751.5,-92 3870.5,-92 3870.5,-73 3751.5,-73"/>
<text text-anchor="middle" x="3811" y="-80" font-family="Helvetica,sans-Serif" font-size="10.00">src/vdp_cmd_execute.c</text>
</a>
</g>
</g>
<!-- Node8&#45;&gt;Node14 -->
<g id="edge15" class="edge">
<title>Node8&#45;&gt;Node14</title>
<path fill="none" stroke="midnightblue" d="M2741.22,-142C2918.48,-138.1 3544.24,-122.85 3742,-98 3753.05,-96.61 3764.97,-94.38 3775.73,-92.07"/>
<polygon fill="midnightblue" stroke="midnightblue" points="2741.08,-138.51 2731.16,-142.22 2741.24,-145.5 2741.08,-138.51"/>
</g>
<!-- Node15 -->
<g id="node14" class="node">
<title>Node15</title>
<g id="a_node14"><a xlink:href="vdp__cmd__execute__HMMM_8c.html" target="_top" xlink:title="Copyright (c) 2021 Daishi Mori (mori0091)">
<polygon fill="none" stroke="black" points="3889,-67.5 3889,-97.5 4001,-97.5 4001,-67.5 3889,-67.5"/>
<text text-anchor="start" x="3897" y="-85.5" font-family="Helvetica,sans-Serif" font-size="10.00">src/vdp_cmd_execute</text>
<text text-anchor="middle" x="3945" y="-74.5" font-family="Helvetica,sans-Serif" font-size="10.00">_HMMM.c</text>
</a>
</g>
</g>
<!-- Node8&#45;&gt;Node15 -->
<g id="edge16" class="edge">
<title>Node8&#45;&gt;Node15</title>
<path fill="none" stroke="midnightblue" d="M2741.31,-142.35C2933.21,-139.55 3654.01,-127.25 3880,-98 3882.87,-97.63 3885.79,-97.19 3888.74,-96.71"/>
<polygon fill="midnightblue" stroke="midnightblue" points="2741.21,-138.85 2731.26,-142.5 2741.31,-145.85 2741.21,-138.85"/>
</g>
<!-- Node16 -->
<g id="node15" class="node">
<title>Node16</title>
<g id="a_node15"><a xlink:href="vdp__cmd__execute__HMMV_8c.html" target="_top" xlink:title="Copyright (c) 2021 Daishi Mori (mori0091)">
<polygon fill="none" stroke="black" points="4019,-67.5 4019,-97.5 4131,-97.5 4131,-67.5 4019,-67.5"/>
<text text-anchor="start" x="4027" y="-85.5" font-family="Helvetica,sans-Serif" font-size="10.00">src/vdp_cmd_execute</text>
<text text-anchor="middle" x="4075" y="-74.5" font-family="Helvetica,sans-Serif" font-size="10.00">_HMMV.c</text>
</a>
</g>
</g>
<!-- Node8&#45;&gt;Node16 -->
<g id="edge17" class="edge">
<title>Node8&#45;&gt;Node16</title>
<path fill="none" stroke="midnightblue" d="M2741.37,-142.56C2946.24,-140.46 3757.15,-130.24 4010,-98 4012.87,-97.63 4015.79,-97.2 4018.74,-96.72"/>
<polygon fill="midnightblue" stroke="midnightblue" points="2741.2,-139.06 2731.24,-142.66 2741.27,-146.06 2741.2,-139.06"/>
</g>
<!-- Node17 -->
<g id="node16" class="node">
<title>Node17</title>
<g id="a_node16"><a xlink:href="vdp__cmd__execute__LMMM_8c.html" target="_top" xlink:title="Copyright (c) 2021 Daishi Mori (mori0091)">
<polygon fill="none" stroke="black" points="4149,-67.5 4149,-97.5 4261,-97.5 4261,-67.5 4149,-67.5"/>
<text text-anchor="start" x="4157" y="-85.5" font-family="Helvetica,sans-Serif" font-size="10.00">src/vdp_cmd_execute</text>
<text text-anchor="middle" x="4205" y="-74.5" font-family="Helvetica,sans-Serif" font-size="10.00">_LMMM.c</text>
</a>
</g>
</g>
<!-- Node8&#45;&gt;Node17 -->
<g id="edge18" class="edge">
<title>Node8&#45;&gt;Node17</title>
<path fill="none" stroke="midnightblue" d="M2741.38,-142.73C2958.54,-141.28 3860.19,-133.24 4140,-98 4142.87,-97.64 4145.8,-97.21 4148.74,-96.73"/>
<polygon fill="midnightblue" stroke="midnightblue" points="2741.24,-139.23 2731.26,-142.79 2741.29,-146.23 2741.24,-139.23"/>
</g>
<!-- Node18 -->
<g id="node17" class="node">
<title>Node18</title>
<g id="a_node17"><a xlink:href="vdp__cmd__execute__LMMV_8c.html" target="_top" xlink:title="Copyright (c) 2021 Daishi Mori (mori0091)">
<polygon fill="none" stroke="black" points="4279,-67.5 4279,-97.5 4391,-97.5 4391,-67.5 4279,-67.5"/>
<text text-anchor="start" x="4287" y="-85.5" font-family="Helvetica,sans-Serif" font-size="10.00">src/vdp_cmd_execute</text>
<text text-anchor="middle" x="4335" y="-74.5" font-family="Helvetica,sans-Serif" font-size="10.00">_LMMV.c</text>
</a>
</g>
</g>
<!-- Node8&#45;&gt;Node18 -->
<g id="edge19" class="edge">
<title>Node8&#45;&gt;Node18</title>
<path fill="none" stroke="midnightblue" d="M2741.47,-142.87C2970.55,-142.03 3963.19,-136.25 4270,-98 4272.87,-97.64 4275.8,-97.22 4278.74,-96.74"/>
<polygon fill="midnightblue" stroke="midnightblue" points="2741.13,-139.37 2731.15,-142.9 2741.16,-146.37 2741.13,-139.37"/>
</g>
<!-- Node19 -->
<g id="node18" class="node">
<title>Node19</title>
<g id="a_node18"><a xlink:href="vdp__cmd__set__unrestricted_8c.html" target="_top" xlink:title="Copyright (c) 2021 Daishi Mori (mori0091)">
<polygon fill="none" stroke="black" points="4409.5,-73 4409.5,-92 4564.5,-92 4564.5,-73 4409.5,-73"/>
<text text-anchor="middle" x="4487" y="-80" font-family="Helvetica,sans-Serif" font-size="10.00">src/vdp_cmd_set_unrestricted.c</text>
</a>
</g>
</g>
<!-- Node8&#45;&gt;Node19 -->
<g id="edge20" class="edge">
<title>Node8&#45;&gt;Node19</title>
<path fill="none" stroke="midnightblue" d="M2741.44,-142.64C2981.6,-140.68 4065.08,-130.17 4400,-98 4414.02,-96.65 4429.2,-94.4 4442.9,-92.07"/>
<polygon fill="midnightblue" stroke="midnightblue" points="2741.26,-139.14 2731.29,-142.72 2741.32,-146.14 2741.26,-139.14"/>
</g>
<!-- Node20 -->
<g id="node19" class="node">
<title>Node20</title>
<g id="a_node19"><a xlink:href="vdp__get__sprite__mode_8c.html" target="_top" xlink:title="Copyright (c) 2021 Daishi Mori (mori0091)">
<polygon fill="none" stroke="black" points="4582.5,-67.5 4582.5,-97.5 4679.5,-97.5 4679.5,-67.5 4582.5,-67.5"/>
<text text-anchor="start" x="4590.5" y="-85.5" font-family="Helvetica,sans-Serif" font-size="10.00">src/vdp_get_sprite</text>
<text text-anchor="middle" x="4631" y="-74.5" font-family="Helvetica,sans-Serif" font-size="10.00">_mode.c</text>
</a>
</g>
</g>
<!-- Node8&#45;&gt;Node20 -->
<g id="edge21" class="edge">
<title>Node8&#45;&gt;Node20</title>
<path fill="none" stroke="midnightblue" d="M2741.41,-142.5C3015.15,-139.55 4387.78,-123.58 4574,-98 4576.73,-97.62 4579.52,-97.17 4582.33,-96.65"/>
<polygon fill="midnightblue" stroke="midnightblue" points="2741,-139.01 2731.04,-142.62 2741.07,-146.01 2741,-139.01"/>
</g>
<!-- Node21 -->
<g id="node20" class="node">
<title>Node21</title>
<g id="a_node20"><a xlink:href="vdp__get__status_8c.html" target="_top" xlink:title="Copyright (c) 2021 Daishi Mori (mori0091)">
<polygon fill="none" stroke="black" points="402.5,-73 402.5,-92 509.5,-92 509.5,-73 402.5,-73"/>
<text text-anchor="middle" x="456" y="-80" font-family="Helvetica,sans-Serif" font-size="10.00">src/vdp_get_status.c</text>
</a>
</g>
</g>
<!-- Node8&#45;&gt;Node21 -->
<g id="edge22" class="edge">
<title>Node8&#45;&gt;Node21</title>
<path fill="none" stroke="midnightblue" d="M2646.89,-142.62C2349.31,-140.12 735.67,-125.4 518,-98 507.69,-96.7 496.59,-94.4 486.68,-92.01"/>
<polygon fill="midnightblue" stroke="midnightblue" points="2646.89,-146.12 2656.92,-142.7 2646.95,-139.12 2646.89,-146.12"/>
</g>
<!-- Node22 -->
<g id="node21" class="node">
<title>Node22</title>
<g id="a_node21"><a xlink:href="vdp__set__adjust_8c.html" target="_top" xlink:title="Copyright (c) 2021 Daishi Mori (mori0091)">
<polygon fill="none" stroke="black" points="527.5,-73 527.5,-92 634.5,-92 634.5,-73 527.5,-73"/>
<text text-anchor="middle" x="581" y="-80" font-family="Helvetica,sans-Serif" font-size="10.00">src/vdp_set_adjust.c</text>
</a>
</g>
</g>
<!-- Node8&#45;&gt;Node22 -->
<g id="edge23" class="edge">
<title>Node8&#45;&gt;Node22</title>
<path fill="none" stroke="midnightblue" d="M2646.91,-142.55C2359.54,-139.75 847.51,-123.87 643,-98 632.69,-96.7 621.59,-94.39 611.68,-92"/>
<polygon fill="midnightblue" stroke="midnightblue" points="2646.97,-146.05 2657,-142.65 2647.03,-139.05 2646.97,-146.05"/>
</g>
<!-- Node23 -->
<g id="node22" class="node">
<title>Node23</title>
<g id="a_node22"><a xlink:href="vdp__set__color_8c.html" target="_top" xlink:title="Copyright (c) 2021 Daishi Mori (mori0091)">
<polygon fill="none" stroke="black" points="652.5,-73 652.5,-92 753.5,-92 753.5,-73 652.5,-73"/>
<text text-anchor="middle" x="703" y="-80" font-family="Helvetica,sans-Serif" font-size="10.00">src/vdp_set_color.c</text>
</a>
</g>
</g>
<!-- Node8&#45;&gt;Node23 -->
<g id="edge24" class="edge">
<title>Node8&#45;&gt;Node23</title>
<path fill="none" stroke="midnightblue" d="M2646.63,-143.27C2387.94,-144.53 1143.63,-147.84 763,-98 753.12,-96.71 742.5,-94.44 732.98,-92.08"/>
<polygon fill="midnightblue" stroke="midnightblue" points="2646.83,-146.77 2656.82,-143.22 2646.8,-139.77 2646.83,-146.77"/>
</g>
<!-- Node24 -->
<g id="node23" class="node">
<title>Node24</title>
<g id="a_node23"><a xlink:href="vdp__set__color__table_8c.html" target="_top" xlink:title="Copyright (c) 2021 Daishi Mori (mori0091)">
<polygon fill="none" stroke="black" points="772,-73 772,-92 900,-92 900,-73 772,-73"/>
<text text-anchor="middle" x="836" y="-80" font-family="Helvetica,sans-Serif" font-size="10.00">src/vdp_set_color_table.c</text>
</a>
</g>
</g>
<!-- Node8&#45;&gt;Node24 -->
<g id="edge25" class="edge">
<title>Node8&#45;&gt;Node24</title>
<path fill="none" stroke="midnightblue" d="M2646.74,-142.9C2400.24,-142.22 1260.01,-136.99 909,-98 897.06,-96.67 884.16,-94.4 872.57,-92.04"/>
<polygon fill="midnightblue" stroke="midnightblue" points="2646.79,-146.4 2656.8,-142.93 2646.81,-139.4 2646.79,-146.4"/>
</g>
<!-- Node25 -->
<g id="node24" class="node">
<title>Node25</title>
<g id="a_node24"><a xlink:href="vdp__set__control_8c.html" target="_top" xlink:title="Copyright (c) 2021 Daishi Mori (mori0091)">
<polygon fill="none" stroke="black" points="918,-73 918,-92 1028,-92 1028,-73 918,-73"/>
<text text-anchor="middle" x="973" y="-80" font-family="Helvetica,sans-Serif" font-size="10.00">src/vdp_set_control.c</text>
</a>
</g>
</g>
<!-- Node8&#45;&gt;Node25 -->
<g id="edge26" class="edge">
<title>Node8&#45;&gt;Node25</title>
<path fill="none" stroke="midnightblue" d="M2646.39,-142.96C2409.95,-142.59 1360.57,-138.65 1037,-98 1026.49,-96.68 1015.17,-94.4 1005.01,-92.04"/>
<polygon fill="midnightblue" stroke="midnightblue" points="2646.7,-146.46 2656.71,-142.98 2646.71,-139.46 2646.7,-146.46"/>
</g>
<!-- Node26 -->
<g id="node25" class="node">
<title>Node26</title>
<g id="a_node25"><a xlink:href="vdp__set__hscroll_8c.html" target="_top" xlink:title="Copyright (c) 2021 Daishi Mori (mori0091)">
<polygon fill="none" stroke="black" points="1046.5,-73 1046.5,-92 1155.5,-92 1155.5,-73 1046.5,-73"/>
<text text-anchor="middle" x="1101" y="-80" font-family="Helvetica,sans-Serif" font-size="10.00">src/vdp_set_hscroll.c</text>
</a>
</g>
</g>
<!-- Node8&#45;&gt;Node26 -->
<g id="edge27" class="edge">
<title>Node8&#45;&gt;Node26</title>
<path fill="none" stroke="midnightblue" d="M2646.81,-142.86C2422.34,-142.02 1461.24,-136.2 1164,-98 1153.65,-96.67 1142.5,-94.39 1132.51,-92.03"/>
<polygon fill="midnightblue" stroke="midnightblue" points="2646.93,-146.36 2656.94,-142.9 2646.95,-139.36 2646.93,-146.36"/>
</g>
<!-- Node27 -->
<g id="node26" class="node">
<title>Node27</title>
<g id="a_node26"><a xlink:href="vdp__set__hscroll__dual__page_8c.html" target="_top" xlink:title="Copyright (c) 2021 Daishi Mori (mori0091)">
<polygon fill="none" stroke="black" points="1173.5,-67.5 1173.5,-97.5 1274.5,-97.5 1274.5,-67.5 1173.5,-67.5"/>
<text text-anchor="start" x="1181.5" y="-85.5" font-family="Helvetica,sans-Serif" font-size="10.00">src/vdp_set_hscroll</text>
<text text-anchor="middle" x="1224" y="-74.5" font-family="Helvetica,sans-Serif" font-size="10.00">_dual_page.c</text>
</a>
</g>
</g>
<!-- Node8&#45;&gt;Node27 -->
<g id="edge28" class="edge">
<title>Node8&#45;&gt;Node27</title>
<path fill="none" stroke="midnightblue" d="M2646.74,-142.82C2432.97,-141.8 1555.21,-135.37 1283,-98 1280.28,-97.63 1277.51,-97.18 1274.72,-96.68"/>
<polygon fill="midnightblue" stroke="midnightblue" points="2646.97,-146.32 2656.99,-142.87 2647,-139.32 2646.97,-146.32"/>
</g>
<!-- Node28 -->
<g id="node27" class="node">
<title>Node28</title>
<g id="a_node27"><a xlink:href="vdp__set__hscroll__mask_8c.html" target="_top" xlink:title="Copyright (c) 2021 Daishi Mori (mori0091)">
<polygon fill="none" stroke="black" points="1292.5,-67.5 1292.5,-97.5 1393.5,-97.5 1393.5,-67.5 1292.5,-67.5"/>
<text text-anchor="start" x="1300.5" y="-85.5" font-family="Helvetica,sans-Serif" font-size="10.00">src/vdp_set_hscroll</text>
<text text-anchor="middle" x="1343" y="-74.5" font-family="Helvetica,sans-Serif" font-size="10.00">_mask.c</text>
</a>
</g>
</g>
<!-- Node8&#45;&gt;Node28 -->
<g id="edge29" class="edge">
<title>Node8&#45;&gt;Node28</title>
<path fill="none" stroke="midnightblue" d="M2646.81,-142.66C2444.51,-141 1649.6,-132.36 1402,-98 1399.28,-97.62 1396.51,-97.17 1393.72,-96.67"/>
<polygon fill="midnightblue" stroke="midnightblue" points="2646.79,-146.16 2656.82,-142.74 2646.85,-139.16 2646.79,-146.16"/>
</g>
<!-- Node29 -->
<g id="node28" class="node">
<title>Node29</title>
<g id="a_node28"><a xlink:href="vdp__set__image__table_8c.html" target="_top" xlink:title="Copyright (c) 2021 Daishi Mori (mori0091)">
<polygon fill="none" stroke="black" points="1411.5,-73 1411.5,-92 1544.5,-92 1544.5,-73 1411.5,-73"/>
<text text-anchor="middle" x="1478" y="-80" font-family="Helvetica,sans-Serif" font-size="10.00">src/vdp_set_image_table.c</text>
</a>
</g>
</g>
<!-- Node8&#45;&gt;Node29 -->
<g id="edge30" class="edge">
<title>Node8&#45;&gt;Node29</title>
<path fill="none" stroke="midnightblue" d="M2646.72,-142.07C2459.65,-138.27 1770.91,-122.83 1554,-98 1541.86,-96.61 1528.74,-94.38 1516.88,-92.07"/>
<polygon fill="midnightblue" stroke="midnightblue" points="2646.72,-145.58 2656.79,-142.28 2646.86,-138.58 2646.72,-145.58"/>
</g>
<!-- Node30 -->
<g id="node29" class="node">
<title>Node30</title>
<g id="a_node29"><a xlink:href="vdp__set__palette_8c.html" target="_top" xlink:title="Copyright (c) 2021 Daishi Mori (mori0091)">
<polygon fill="none" stroke="black" points="1563,-73 1563,-92 1673,-92 1673,-73 1563,-73"/>
<text text-anchor="middle" x="1618" y="-80" font-family="Helvetica,sans-Serif" font-size="10.00">src/vdp_set_palette.c</text>
</a>
</g>
</g>
<!-- Node8&#45;&gt;Node30 -->
<g id="edge31" class="edge">
<title>Node8&#45;&gt;Node30</title>
<path fill="none" stroke="midnightblue" d="M2646.69,-142.02C2473.19,-138.24 1872.13,-123.56 1682,-98 1671.61,-96.6 1660.42,-94.34 1650.35,-92.01"/>
<polygon fill="midnightblue" stroke="midnightblue" points="2646.7,-145.52 2656.78,-142.23 2646.85,-138.52 2646.7,-145.52"/>
</g>
<!-- Node31 -->
<g id="node30" class="node">
<title>Node31</title>
<g id="a_node30"><a xlink:href="vdp__set__pattern__table_8c.html" target="_top" xlink:title="Copyright (c) 2021 Daishi Mori (mori0091)">
<polygon fill="none" stroke="black" points="1691.5,-67.5 1691.5,-97.5 1794.5,-97.5 1794.5,-67.5 1691.5,-67.5"/>
<text text-anchor="start" x="1699.5" y="-85.5" font-family="Helvetica,sans-Serif" font-size="10.00">src/vdp_set_pattern</text>
<text text-anchor="middle" x="1743" y="-74.5" font-family="Helvetica,sans-Serif" font-size="10.00">_table.c</text>
</a>
</g>
</g>
<!-- Node8&#45;&gt;Node31 -->
<g id="edge32" class="edge">
<title>Node8&#45;&gt;Node31</title>
<path fill="none" stroke="midnightblue" d="M2646.62,-143.64C2513.24,-144.79 2123.48,-143.66 1804,-98 1800.98,-97.57 1797.9,-97.06 1794.79,-96.49"/>
<polygon fill="midnightblue" stroke="midnightblue" points="2646.92,-147.14 2656.89,-143.54 2646.86,-140.14 2646.92,-147.14"/>
</g>
<!-- Node32 -->
<g id="node31" class="node">
<title>Node32</title>
<g id="a_node31"><a xlink:href="vdp__set__screen__lines_8c.html" target="_top" xlink:title="Copyright (c) 2021 Daishi Mori (mori0091)">
<polygon fill="none" stroke="black" points="1813,-67.5 1813,-97.5 1915,-97.5 1915,-67.5 1813,-67.5"/>
<text text-anchor="start" x="1821" y="-85.5" font-family="Helvetica,sans-Serif" font-size="10.00">src/vdp_set_screen</text>
<text text-anchor="middle" x="1864" y="-74.5" font-family="Helvetica,sans-Serif" font-size="10.00">_lines.c</text>
</a>
</g>
</g>
<!-- Node8&#45;&gt;Node32 -->
<g id="edge33" class="edge">
<title>Node8&#45;&gt;Node32</title>
<path fill="none" stroke="midnightblue" d="M2646.87,-143.17C2526.03,-142.96 2195.55,-138.42 1924,-98 1921.14,-97.57 1918.21,-97.08 1915.27,-96.53"/>
<polygon fill="midnightblue" stroke="midnightblue" points="2646.89,-146.67 2656.89,-143.17 2646.9,-139.67 2646.89,-146.67"/>
</g>
<!-- Node33 -->
<g id="node32" class="node">
<title>Node33</title>
<g id="a_node32"><a xlink:href="vdp__set__screen__mode_8c.html" target="_top" xlink:title="Copyright (c) 2021 Daishi Mori (mori0091)">
<polygon fill="none" stroke="black" points="1933,-67.5 1933,-97.5 2035,-97.5 2035,-67.5 1933,-67.5"/>
<text text-anchor="start" x="1941" y="-85.5" font-family="Helvetica,sans-Serif" font-size="10.00">src/vdp_set_screen</text>
<text text-anchor="middle" x="1984" y="-74.5" font-family="Helvetica,sans-Serif" font-size="10.00">_mode.c</text>
</a>
</g>
</g>
<!-- Node8&#45;&gt;Node33 -->
<g id="edge34" class="edge">
<title>Node8&#45;&gt;Node33</title>
<path fill="none" stroke="midnightblue" d="M2646.45,-142.51C2538.52,-140.78 2266.96,-132.99 2043,-98 2040.39,-97.59 2037.74,-97.13 2035.06,-96.62"/>
<polygon fill="midnightblue" stroke="midnightblue" points="2646.63,-146.01 2656.68,-142.66 2646.74,-139.01 2646.63,-146.01"/>
</g>
<!-- Node34 -->
<g id="node33" class="node">
<title>Node34</title>
<g id="a_node33"><a xlink:href="vdp__set__sprite__attribute__table_8c.html" target="_top" xlink:title="Copyright (c) 2021 Daishi Mori (mori0091)">
<polygon fill="none" stroke="black" points="2052.5,-67.5 2052.5,-97.5 2149.5,-97.5 2149.5,-67.5 2052.5,-67.5"/>
<text text-anchor="start" x="2060.5" y="-85.5" font-family="Helvetica,sans-Serif" font-size="10.00">src/vdp_set_sprite</text>
<text text-anchor="middle" x="2101" y="-74.5" font-family="Helvetica,sans-Serif" font-size="10.00">_attribute_table.c</text>
</a>
</g>
</g>
<!-- Node8&#45;&gt;Node34 -->
<g id="edge35" class="edge">
<title>Node8&#45;&gt;Node34</title>
<path fill="none" stroke="midnightblue" d="M2646.67,-141.65C2552.84,-138.4 2336.86,-128.05 2158,-98 2155.28,-97.54 2152.5,-97.02 2149.7,-96.45"/>
<polygon fill="midnightblue" stroke="midnightblue" points="2646.58,-145.15 2656.7,-141.99 2646.82,-138.16 2646.58,-145.15"/>
</g>
<!-- Node35 -->
<g id="node34" class="node">
<title>Node35</title>
<g id="a_node34"><a xlink:href="vdp__set__sprite__pattern__table_8c.html" target="_top" xlink:title="Copyright (c) 2021 Daishi Mori (mori0091)">
<polygon fill="none" stroke="black" points="2167.5,-67.5 2167.5,-97.5 2264.5,-97.5 2264.5,-67.5 2167.5,-67.5"/>
<text text-anchor="start" x="2175.5" y="-85.5" font-family="Helvetica,sans-Serif" font-size="10.00">src/vdp_set_sprite</text>
<text text-anchor="middle" x="2216" y="-74.5" font-family="Helvetica,sans-Serif" font-size="10.00">_pattern_table.c</text>
</a>
</g>
</g>
<!-- Node8&#45;&gt;Node35 -->
<g id="edge36" class="edge">
<title>Node8&#45;&gt;Node35</title>
<path fill="none" stroke="midnightblue" d="M2646.84,-140.16C2568.67,-134.97 2407.5,-122.17 2273,-98 2270.29,-97.51 2267.51,-96.97 2264.72,-96.38"/>
<polygon fill="midnightblue" stroke="midnightblue" points="2646.66,-143.66 2656.86,-140.82 2647.11,-136.67 2646.66,-143.66"/>
</g>
<!-- Node36 -->
<g id="node35" class="node">
<title>Node36</title>
<g id="a_node35"><a xlink:href="vdp__set__sprite__size_8c.html" target="_top" xlink:title="Copyright (c) 2021 Daishi Mori (mori0091)">
<polygon fill="none" stroke="black" points="2282.5,-67.5 2282.5,-97.5 2379.5,-97.5 2379.5,-67.5 2282.5,-67.5"/>
<text text-anchor="start" x="2290.5" y="-85.5" font-family="Helvetica,sans-Serif" font-size="10.00">src/vdp_set_sprite</text>
<text text-anchor="middle" x="2331" y="-74.5" font-family="Helvetica,sans-Serif" font-size="10.00">_size.c</text>
</a>
</g>
</g>
<!-- Node8&#45;&gt;Node36 -->
<g id="edge37" class="edge">
<title>Node8&#45;&gt;Node36</title>
<path fill="none" stroke="midnightblue" d="M2646.58,-137.57C2586.21,-130.29 2478.83,-116.18 2388,-98 2385.3,-97.46 2382.53,-96.87 2379.74,-96.25"/>
<polygon fill="midnightblue" stroke="midnightblue" points="2646.23,-141.05 2656.57,-138.76 2647.06,-134.1 2646.23,-141.05"/>
</g>
<!-- Node37 -->
<g id="node36" class="node">
<title>Node37</title>
<g id="a_node36"><a xlink:href="vdp__set__sprite__visible_8c.html" target="_top" xlink:title="Copyright (c) 2021 Daishi Mori (mori0091)">
<polygon fill="none" stroke="black" points="2397.5,-67.5 2397.5,-97.5 2494.5,-97.5 2494.5,-67.5 2397.5,-67.5"/>
<text text-anchor="start" x="2405.5" y="-85.5" font-family="Helvetica,sans-Serif" font-size="10.00">src/vdp_set_sprite</text>
<text text-anchor="middle" x="2446" y="-74.5" font-family="Helvetica,sans-Serif" font-size="10.00">_visible.c</text>
</a>
</g>
</g>
<!-- Node8&#45;&gt;Node37 -->
<g id="edge38" class="edge">
<title>Node8&#45;&gt;Node37</title>
<path fill="none" stroke="midnightblue" d="M2647.31,-132.11C2608.82,-123.1 2552.83,-109.89 2504,-98 2500.97,-97.26 2497.86,-96.5 2494.72,-95.73"/>
<polygon fill="midnightblue" stroke="midnightblue" points="2646.65,-135.55 2657.19,-134.42 2648.25,-128.74 2646.65,-135.55"/>
</g>
<!-- Node38 -->
<g id="node37" class="node">
<title>Node38</title>
<g id="a_node37"><a xlink:href="vdp__set__visible_8c.html" target="_top" xlink:title="Copyright (c) 2021 Daishi Mori (mori0091)">
<polygon fill="none" stroke="black" points="2513,-73 2513,-92 2621,-92 2621,-73 2513,-73"/>
<text text-anchor="middle" x="2567" y="-80" font-family="Helvetica,sans-Serif" font-size="10.00">src/vdp_set_visible.c</text>
</a>
</g>
</g>
<!-- Node8&#45;&gt;Node38 -->
<g id="edge39" class="edge">
<title>Node8&#45;&gt;Node38</title>
<path fill="none" stroke="midnightblue" d="M2666.62,-130.17C2641.98,-118.63 2606.46,-101.99 2585.16,-92.01"/>
<polygon fill="midnightblue" stroke="midnightblue" points="2665.26,-133.4 2675.8,-134.48 2668.23,-127.06 2665.26,-133.4"/>
</g>
<!-- Node39 -->
<g id="node38" class="node">
<title>Node39</title>
<g id="a_node38"><a xlink:href="vdp__set__vscroll_8c.html" target="_top" xlink:title="Copyright (c) 2021 Daishi Mori (mori0091)">
<polygon fill="none" stroke="black" points="2639.5,-73 2639.5,-92 2748.5,-92 2748.5,-73 2639.5,-73"/>
<text text-anchor="middle" x="2694" y="-80" font-family="Helvetica,sans-Serif" font-size="10.00">src/vdp_set_vscroll.c</text>
</a>
</g>
</g>
<!-- Node8&#45;&gt;Node39 -->
<g id="edge40" class="edge">
<title>Node8&#45;&gt;Node39</title>
<path fill="none" stroke="midnightblue" d="M2694,-124.32C2694,-113.5 2694,-100.4 2694,-92.01"/>
<polygon fill="midnightblue" stroke="midnightblue" points="2690.5,-124.48 2694,-134.48 2697.5,-124.48 2690.5,-124.48"/>
</g>
<!-- Node40 -->
<g id="node39" class="node">
<title>Node40</title>
<g id="a_node39"><a xlink:href="vdp__write__control_8c.html" target="_top" xlink:title="Copyright (c) 2021 Daishi Mori (mori0091)">
<polygon fill="none" stroke="black" points="2766.5,-73 2766.5,-92 2883.5,-92 2883.5,-73 2766.5,-73"/>
<text text-anchor="middle" x="2825" y="-80" font-family="Helvetica,sans-Serif" font-size="10.00">src/vdp_write_control.c</text>
</a>
</g>
</g>
<!-- Node8&#45;&gt;Node40 -->
<g id="edge41" class="edge">
<title>Node8&#45;&gt;Node40</title>
<path fill="none" stroke="midnightblue" d="M2721.9,-130.33C2747.33,-118.78 2784.2,-102.03 2806.27,-92.01"/>
<polygon fill="midnightblue" stroke="midnightblue" points="2720.43,-127.15 2712.77,-134.48 2723.32,-133.53 2720.43,-127.15"/>
</g>
<!-- Node41 -->
<g id="node40" class="node">
<title>Node41</title>
<g id="a_node40"><a xlink:href="vdp__write__palette_8c.html" target="_top" xlink:title="Copyright (c) 2021 Daishi Mori (mori0091)">
<polygon fill="none" stroke="black" points="2901.5,-73 2901.5,-92 3018.5,-92 3018.5,-73 2901.5,-73"/>
<text text-anchor="middle" x="2960" y="-80" font-family="Helvetica,sans-Serif" font-size="10.00">src/vdp_write_palette.c</text>
</a>
</g>
</g>
<!-- Node8&#45;&gt;Node41 -->
<g id="edge42" class="edge">
<title>Node8&#45;&gt;Node41</title>
<path fill="none" stroke="midnightblue" d="M2741.14,-132.46C2792.6,-120.94 2874.01,-102.73 2921.69,-92.07"/>
<polygon fill="midnightblue" stroke="midnightblue" points="2740.26,-129.07 2731.27,-134.66 2741.79,-135.9 2740.26,-129.07"/>
</g>
<!-- Node42 -->
<g id="node41" class="node">
<title>Node42</title>
<g id="a_node41"><a xlink:href="vmem__memset_8c.html" target="_top" xlink:title="Copyright (c) 2021 Daishi Mori (mori0091)">
<polygon fill="none" stroke="black" points="3037,-73 3037,-92 3145,-92 3145,-73 3037,-73"/>
<text text-anchor="middle" x="3091" y="-80" font-family="Helvetica,sans-Serif" font-size="10.00">src/vmem_memset.c</text>
</a>
</g>
</g>
<!-- Node8&#45;&gt;Node42 -->
<g id="edge43" class="edge">
<title>Node8&#45;&gt;Node42</title>
<path fill="none" stroke="midnightblue" d="M2741.42,-137.93C2806.19,-130.7 2925.85,-116.26 3027,-98 3036.42,-96.3 3046.55,-94.15 3055.9,-92.04"/>
<polygon fill="midnightblue" stroke="midnightblue" points="2740.68,-134.49 2731.13,-139.07 2741.45,-141.45 2740.68,-134.49"/>
</g>
<!-- Node43 -->
<g id="node42" class="node">
<title>Node43</title>
<g id="a_node42"><a xlink:href="vmem__read_8c.html" target="_top" xlink:title="Copyright (c) 2021 Daishi Mori (mori0091)">
<polygon fill="none" stroke="black" points="3163,-73 3163,-92 3255,-92 3255,-73 3163,-73"/>
<text text-anchor="middle" x="3209" y="-80" font-family="Helvetica,sans-Serif" font-size="10.00">src/vmem_read.c</text>
</a>
</g>
</g>
<!-- Node8&#45;&gt;Node43 -->
<g id="edge44" class="edge">
<title>Node8&#45;&gt;Node43</title>
<path fill="none" stroke="midnightblue" d="M2741.47,-140.87C2825.29,-136.55 3004.79,-124.79 3154,-98 3162.55,-96.46 3171.73,-94.27 3180.08,-92.05"/>
<polygon fill="midnightblue" stroke="midnightblue" points="2741.06,-137.38 2731.24,-141.38 2741.41,-144.38 2741.06,-137.38"/>
</g>
<!-- Node44 -->
<g id="node43" class="node">
<title>Node44</title>
<g id="a_node43"><a xlink:href="vmem__set__read__address_8c.html" target="_top" xlink:title="Copyright (c) 2021 Daishi Mori (mori0091)">
<polygon fill="none" stroke="black" points="3273,-73 3273,-92 3423,-92 3423,-73 3273,-73"/>
<text text-anchor="middle" x="3348" y="-80" font-family="Helvetica,sans-Serif" font-size="10.00">src/vmem_set_read_address.c</text>
</a>
</g>
</g>
<!-- Node8&#45;&gt;Node44 -->
<g id="edge45" class="edge">
<title>Node8&#45;&gt;Node44</title>
<path fill="none" stroke="midnightblue" d="M2741.29,-140.74C2839.14,-135.75 3070.85,-122.24 3264,-98 3276.77,-96.4 3290.57,-94.21 3303.21,-92.02"/>
<polygon fill="midnightblue" stroke="midnightblue" points="2740.94,-137.26 2731.13,-141.26 2741.3,-144.25 2740.94,-137.26"/>
</g>
<!-- Node45 -->
<g id="node44" class="node">
<title>Node45</title>
<g id="a_node44"><a xlink:href="vmem__set__sprite__color__s_8c.html" target="_top" xlink:title="Copyright (c) 2021 Daishi Mori (mori0091)">
<polygon fill="none" stroke="black" points="4689,-0.5 4689,-30.5 4797,-30.5 4797,-0.5 4689,-0.5"/>
<text text-anchor="start" x="4697" y="-18.5" font-family="Helvetica,sans-Serif" font-size="10.00">src/vmem_set_sprite</text>
<text text-anchor="middle" x="4743" y="-7.5" font-family="Helvetica,sans-Serif" font-size="10.00">_color_s.c</text>
</a>
</g>
</g>
<!-- Node8&#45;&gt;Node45 -->
<g id="edge46" class="edge">
<title>Node8&#45;&gt;Node45</title>
<path fill="none" stroke="midnightblue" d="M2646.68,-142.98C2321.89,-142.77 433.91,-139.71 393,-98 383.35,-88.16 383.31,-76.8 393,-67 432.66,-26.87 4191.68,-17.65 4688.92,-16.61"/>
<polygon fill="midnightblue" stroke="midnightblue" points="2646.7,-146.48 2656.7,-142.99 2646.7,-139.48 2646.7,-146.48"/>
</g>
<!-- Node46 -->
<g id="node45" class="node">
<title>Node46</title>
<g id="a_node45"><a xlink:href="vmem__set__write__address_8c.html" target="_top" xlink:title="Copyright (c) 2021 Daishi Mori (mori0091)">
<polygon fill="none" stroke="black" points="3441.5,-67.5 3441.5,-97.5 3546.5,-97.5 3546.5,-67.5 3441.5,-67.5"/>
<text text-anchor="start" x="3449.5" y="-85.5" font-family="Helvetica,sans-Serif" font-size="10.00">src/vmem_set_write</text>
<text text-anchor="middle" x="3494" y="-74.5" font-family="Helvetica,sans-Serif" font-size="10.00">_address.c</text>
</a>
</g>
</g>
<!-- Node8&#45;&gt;Node46 -->
<g id="edge47" class="edge">
<title>Node8&#45;&gt;Node46</title>
<path fill="none" stroke="midnightblue" d="M2741.17,-142.88C2858.57,-141.97 3173.09,-135.89 3432,-98 3435.06,-97.55 3438.2,-97.03 3441.35,-96.45"/>
<polygon fill="midnightblue" stroke="midnightblue" points="2741.06,-139.38 2731.09,-142.94 2741.11,-146.38 2741.06,-139.38"/>
</g>
<!-- Node47 -->
<g id="node46" class="node">
<title>Node47</title>
<g id="a_node46"><a xlink:href="vmem__write_8c.html" target="_top" xlink:title="Copyright (c) 2021 Daishi Mori (mori0091)">
<polygon fill="none" stroke="black" points="3565,-73 3565,-92 3659,-92 3659,-73 3565,-73"/>
<text text-anchor="middle" x="3612" y="-80" font-family="Helvetica,sans-Serif" font-size="10.00">src/vmem_write.c</text>
</a>
</g>
</g>
<!-- Node8&#45;&gt;Node47 -->
<g id="edge48" class="edge">
<title>Node8&#45;&gt;Node47</title>
<path fill="none" stroke="midnightblue" d="M2741.4,-141.78C2897.86,-137.57 3396.92,-122.49 3556,-98 3565.03,-96.61 3574.72,-94.38 3583.45,-92.07"/>
<polygon fill="midnightblue" stroke="midnightblue" points="2741.07,-138.29 2731.17,-142.06 2741.26,-145.29 2741.07,-138.29"/>
</g>
<!-- Node9&#45;&gt;Node2 -->
<g id="edge10" class="edge">
<title>Node9&#45;&gt;Node2</title>
<path fill="none" stroke="midnightblue" d="M5028.08,-69.93C4985.91,-57.06 4918.77,-36.57 4881.06,-25.06"/>
<polygon fill="midnightblue" stroke="midnightblue" points="5027.13,-73.3 5037.72,-72.87 5029.17,-66.6 5027.13,-73.3"/>
</g>
<!-- Node10 -->
<g id="node10" class="node">
<title>Node10</title>
<g id="a_node10"><a xlink:href="vmem__set__metasprite__a_8c.html" target="_top" xlink:title="Copyright (c) 2021 Daishi Mori (mori0091)">
<polygon fill="none" stroke="black" points="5110,-6 5110,-25 5258,-25 5258,-6 5110,-6"/>
<text text-anchor="middle" x="5184" y="-13" font-family="Helvetica,sans-Serif" font-size="10.00">src/vmem_set_metasprite_a.c</text>
</a>
</g>
</g>
<!-- Node9&#45;&gt;Node10 -->
<g id="edge11" class="edge">
<title>Node9&#45;&gt;Node10</title>
<path fill="none" stroke="midnightblue" d="M5090.89,-67.79C5114.28,-54.9 5148.56,-36.02 5168.34,-25.13"/>
<polygon fill="midnightblue" stroke="midnightblue" points="5088.98,-64.84 5081.91,-72.73 5092.36,-70.97 5088.98,-64.84"/>
</g>
<!-- Node11 -->
<g id="node11" class="node">
<title>Node11</title>
<g id="a_node11"><a xlink:href="vmem__set__metasprite__m_8c.html" target="_top" xlink:title="Copyright (c) 2021 Daishi Mori (mori0091)">
<polygon fill="none" stroke="black" points="4940.5,-6 4940.5,-25 5091.5,-25 5091.5,-6 4940.5,-6"/>
<text text-anchor="middle" x="5016" y="-13" font-family="Helvetica,sans-Serif" font-size="10.00">src/vmem_set_metasprite_m.c</text>
</a>
</g>
</g>
<!-- Node9&#45;&gt;Node11 -->
<g id="edge12" class="edge">
<title>Node9&#45;&gt;Node11</title>
<path fill="none" stroke="midnightblue" d="M5053.13,-64.77C5043.38,-52.1 5030.39,-35.2 5022.64,-25.13"/>
<polygon fill="midnightblue" stroke="midnightblue" points="5050.39,-66.94 5059.26,-72.73 5055.93,-62.67 5050.39,-66.94"/>
</g>
<!-- Node48&#45;&gt;Node2 -->
<g id="edge51" class="edge">
<title>Node48&#45;&gt;Node2</title>
<path fill="none" stroke="midnightblue" d="M4821.73,-180.14C4825.54,-154.46 4832.91,-107.09 4841,-67 4844,-52.16 4848.23,-35.05 4850.78,-25.04"/>
<polygon fill="midnightblue" stroke="midnightblue" points="4818.23,-179.91 4820.24,-190.31 4825.15,-180.93 4818.23,-179.91"/>
</g>
<!-- Node48&#45;&gt;Node8 -->
<g id="edge62" class="edge">
<title>Node48&#45;&gt;Node8</title>
<path fill="none" stroke="midnightblue" d="M4765.9,-197.65C4465.75,-190.02 2986.18,-152.42 2731.39,-145.95"/>
<polygon fill="midnightblue" stroke="midnightblue" points="4765.99,-201.15 4776.07,-197.91 4766.16,-194.16 4765.99,-201.15"/>
</g>
<!-- Node48&#45;&gt;Node9 -->
<g id="edge50" class="edge">
<title>Node48&#45;&gt;Node9</title>
<path fill="none" stroke="midnightblue" d="M4845.86,-185.98C4873.24,-172.75 4916.98,-151.73 4955,-134 4987.04,-119.06 5024.52,-102.12 5046.7,-92.15"/>
<polygon fill="midnightblue" stroke="midnightblue" points="4844.03,-182.97 4836.55,-190.48 4847.08,-189.28 4844.03,-182.97"/>
</g>
<!-- Node48&#45;&gt;Node45 -->
<g id="edge63" class="edge">
<title>Node48&#45;&gt;Node45</title>
<path fill="none" stroke="midnightblue" d="M4811.43,-180.83C4796.29,-144.48 4762.57,-63.49 4748.91,-30.69"/>
<polygon fill="midnightblue" stroke="midnightblue" points="4808.26,-182.31 4815.33,-190.2 4814.72,-179.62 4808.26,-182.31"/>
</g>
<!-- Node49 -->
<g id="node48" class="node">
<title>Node49</title>
<g id="a_node48"><a xlink:href="sprite_8h.html" target="_top" xlink:title="Copyright (c) 2021 Daishi Mori (mori0091)">
<polygon fill="none" stroke="red" points="4964,-134.5 4964,-153.5 5046,-153.5 5046,-134.5 4964,-134.5"/>
<text text-anchor="middle" x="5005" y="-141.5" font-family="Helvetica,sans-Serif" font-size="10.00">include/sprite.h</text>
</a>
</g>
</g>
<!-- Node48&#45;&gt;Node49 -->
<g id="edge52" class="edge">
<title>Node48&#45;&gt;Node49</title>
<path fill="none" stroke="midnightblue" d="M4858.38,-187.57C4893.47,-177.38 4944.02,-162.7 4975.67,-153.52"/>
<polygon fill="midnightblue" stroke="midnightblue" points="4857.1,-184.29 4848.47,-190.44 4859.05,-191.02 4857.1,-184.29"/>
</g>
<!-- Node50 -->
<g id="node49" class="node">
<title>Node50</title>
<g id="a_node49"><a xlink:href="sprite__color_8h.html" target="_top" xlink:title="Copyright (c) 2021 Daishi Mori (mori0091)">
<polygon fill="none" stroke="red" points="4850,-73 4850,-92 4958,-92 4958,-73 4850,-73"/>
<text text-anchor="middle" x="4904" y="-80" font-family="Helvetica,sans-Serif" font-size="10.00">include/sprite_color.h</text>
</a>
</g>
</g>
<!-- Node48&#45;&gt;Node50 -->
<g id="edge61" class="edge">
<title>Node48&#45;&gt;Node50</title>
<path fill="none" stroke="midnightblue" d="M4831.38,-182.17C4849.72,-157.26 4883.44,-111.44 4897.54,-92.28"/>
<polygon fill="midnightblue" stroke="midnightblue" points="4828.5,-180.19 4825.39,-190.32 4834.14,-184.34 4828.5,-180.19"/>
</g>
<!-- Node49&#45;&gt;Node2 -->
<g id="edge54" class="edge">
<title>Node49&#45;&gt;Node2</title>
<path fill="none" stroke="midnightblue" d="M4999.74,-124.5C4994.1,-107.59 4983.63,-82.87 4967,-67 4944.84,-45.85 4912.35,-32.65 4887.72,-25.08"/>
<polygon fill="midnightblue" stroke="midnightblue" points="4996.47,-125.79 5002.77,-134.31 5003.16,-123.72 4996.47,-125.79"/>
</g>
<!-- Node49&#45;&gt;Node9 -->
<g id="edge53" class="edge">
<title>Node49&#45;&gt;Node9</title>
<path fill="none" stroke="midnightblue" d="M5021.07,-127.32C5032.66,-116.02 5047.86,-101.19 5057.28,-92.01"/>
<polygon fill="midnightblue" stroke="midnightblue" points="5018.45,-124.99 5013.74,-134.48 5023.34,-130 5018.45,-124.99"/>
</g>
<!-- Node49&#45;&gt;Node10 -->
<g id="edge59" class="edge">
<title>Node49&#45;&gt;Node10</title>
<path fill="none" stroke="midnightblue" d="M5056.38,-136.11C5084.62,-130.08 5118.74,-118.85 5143,-98 5166.3,-77.97 5177.83,-41.5 5182.05,-25"/>
<polygon fill="midnightblue" stroke="midnightblue" points="5055.4,-132.74 5046.27,-138.11 5056.75,-139.61 5055.4,-132.74"/>
</g>
<!-- Node49&#45;&gt;Node11 -->
<g id="edge60" class="edge">
<title>Node49&#45;&gt;Node11</title>
<path fill="none" stroke="midnightblue" d="M5056.07,-137.77C5081.85,-132.25 5110.99,-120.97 5127,-98 5134.88,-86.7 5134.46,-78.59 5127,-67 5112.62,-44.66 5085.66,-32.08 5061.91,-25.07"/>
<polygon fill="midnightblue" stroke="midnightblue" points="5055.19,-134.37 5046.02,-139.68 5056.49,-141.25 5055.19,-134.37"/>
</g>
<!-- Node49&#45;&gt;Node50 -->
<g id="edge55" class="edge">
<title>Node49&#45;&gt;Node50</title>
<path fill="none" stroke="midnightblue" d="M4981.65,-129.24C4962.14,-117.75 4934.93,-101.72 4918.44,-92.01"/>
<polygon fill="midnightblue" stroke="midnightblue" points="4980.14,-132.41 4990.53,-134.48 4983.69,-126.38 4980.14,-132.41"/>
</g>
<!-- Node50&#45;&gt;Node2 -->
<g id="edge56" class="edge">
<title>Node50&#45;&gt;Node2</title>
<path fill="none" stroke="midnightblue" d="M4890.87,-64.77C4880.93,-52.1 4867.67,-35.2 4859.77,-25.13"/>
<polygon fill="midnightblue" stroke="midnightblue" points="4888.2,-67.03 4897.12,-72.73 4893.7,-62.71 4888.2,-67.03"/>
</g>
<!-- Node50&#45;&gt;Node11 -->
<g id="edge57" class="edge">
<title>Node50&#45;&gt;Node11</title>
<path fill="none" stroke="midnightblue" d="M4927.92,-67.62C4950.11,-54.74 4982.44,-35.98 5001.13,-25.13"/>
<polygon fill="midnightblue" stroke="midnightblue" points="4926,-64.69 4919.1,-72.73 4929.51,-70.74 4926,-64.69"/>
</g>
<!-- Node50&#45;&gt;Node45 -->
<g id="edge58" class="edge">
<title>Node50&#45;&gt;Node45</title>
<path fill="none" stroke="midnightblue" d="M4873.18,-69.06C4845.91,-58.05 4806.14,-41.99 4777.75,-30.53"/>
<polygon fill="midnightblue" stroke="midnightblue" points="4872.04,-72.37 4882.62,-72.87 4874.66,-65.88 4872.04,-72.37"/>
</g>
</g>
</svg>
