<?xml version="1.0" encoding="UTF-8" standalone="no"?>
<!DOCTYPE svg PUBLIC "-//W3C//DTD SVG 1.1//EN"
 "http://www.w3.org/Graphics/SVG/1.1/DTD/svg11.dtd">
<!-- Generated by graphviz version 3.0.0 (20221109.1736)
 -->
<!-- Title: include/io.h Pages: 1 -->
<svg width="464pt" height="252pt"
 viewBox="0.00 0.00 464.41 252.00" xmlns="http://www.w3.org/2000/svg" xmlns:xlink="http://www.w3.org/1999/xlink">
<g id="graph0" class="graph" transform="scale(1 1) rotate(0) translate(4 248)">
<title>include/io.h</title>
<!-- Node1 -->
<g id="node1" class="node">
<title>Node1</title>
<g id="a_node1"><a xlink:title="Definition of I/O ports.">
<polygon fill="#bfbfbf" stroke="black" points="89.91,-224.5 89.91,-243.5 154.91,-243.5 154.91,-224.5 89.91,-224.5"/>
<text text-anchor="middle" x="122.41" y="-231.5" font-family="Helvetica,sans-Serif" font-size="10.00">include/io.h</text>
</a>
</g>
</g>
<!-- Node2 -->
<g id="node2" class="node">
<title>Node2</title>
<g id="a_node2"><a xlink:href="msx_8h.html" target="_top" xlink:title="Using #include &lt;msx.h&gt; includes almost all C header files in libmsx, for ease to use.">
<polygon fill="none" stroke="black" points="164.41,-0.5 164.41,-19.5 240.41,-19.5 240.41,-0.5 164.41,-0.5"/>
<text text-anchor="middle" x="202.41" y="-7.5" font-family="Helvetica,sans-Serif" font-size="10.00">include/msx.h</text>
</a>
</g>
</g>
<!-- Node1&#45;&gt;Node2 -->
<g id="edge1" class="edge">
<title>Node1&#45;&gt;Node2</title>
<path fill="none" stroke="midnightblue" d="M80.28,-221.13C61.72,-214.08 40.88,-203.43 26.41,-188 2.35,-162.35 -5.5,-145.74 4.41,-112 12.75,-83.61 16.59,-73.56 40.41,-56 77.06,-28.98 129.2,-18.18 164.34,-13.87"/>
<polygon fill="midnightblue" stroke="midnightblue" points="79.14,-224.44 89.73,-224.49 81.49,-217.84 79.14,-224.44"/>
</g>
<!-- Node3 -->
<g id="node3" class="node">
<title>Node3</title>
<g id="a_node3"><a xlink:href="psg_8h.html" target="_top" xlink:title="Device interface for PSG (AY&#45;3&#45;8910) an internal sound chip.">
<polygon fill="none" stroke="black" points="35.41,-168.5 35.41,-187.5 109.41,-187.5 109.41,-168.5 35.41,-168.5"/>
<text text-anchor="middle" x="72.41" y="-175.5" font-family="Helvetica,sans-Serif" font-size="10.00">include/psg.h</text>
</a>
</g>
</g>
<!-- Node1&#45;&gt;Node3 -->
<g id="edge2" class="edge">
<title>Node1&#45;&gt;Node3</title>
<path fill="none" stroke="midnightblue" d="M107.33,-216.72C98.52,-207.2 87.74,-195.56 80.51,-187.75"/>
<polygon fill="midnightblue" stroke="midnightblue" points="104.79,-219.12 114.15,-224.08 109.92,-214.37 104.79,-219.12"/>
</g>
<!-- Node5 -->
<g id="node5" class="node">
<title>Node5</title>
<g id="a_node5"><a xlink:href="vdp_8h.html" target="_top" xlink:title="Data types and functions for VDP (Video Display Proccessor) access.">
<polygon fill="none" stroke="black" points="142.41,-112.5 142.41,-131.5 216.41,-131.5 216.41,-112.5 142.41,-112.5"/>
<text text-anchor="middle" x="179.41" y="-119.5" font-family="Helvetica,sans-Serif" font-size="10.00">include/vdp.h</text>
</a>
</g>
</g>
<!-- Node1&#45;&gt;Node5 -->
<g id="edge5" class="edge">
<title>Node1&#45;&gt;Node5</title>
<path fill="none" stroke="midnightblue" d="M131.57,-215.32C143.98,-191.37 165.65,-149.55 174.96,-131.59"/>
<polygon fill="midnightblue" stroke="midnightblue" points="128.37,-213.88 126.88,-224.37 134.59,-217.1 128.37,-213.88"/>
</g>
<!-- Node7 -->
<g id="node7" class="node">
<title>Node7</title>
<g id="a_node7"><a xlink:href="vmem_8h.html" target="_top" xlink:title="Data types and functions for VRAM access.">
<polygon fill="none" stroke="black" points="213.91,-168.5 213.91,-187.5 298.91,-187.5 298.91,-168.5 213.91,-168.5"/>
<text text-anchor="middle" x="256.41" y="-175.5" font-family="Helvetica,sans-Serif" font-size="10.00">include/vmem.h</text>
</a>
</g>
</g>
<!-- Node1&#45;&gt;Node7 -->
<g id="edge9" class="edge">
<title>Node1&#45;&gt;Node7</title>
<path fill="none" stroke="midnightblue" d="M153.08,-220.64C178.23,-210.5 213.16,-196.43 235.27,-187.52"/>
<polygon fill="midnightblue" stroke="midnightblue" points="151.61,-217.46 143.64,-224.44 154.22,-223.95 151.61,-217.46"/>
</g>
<!-- Node3&#45;&gt;Node2 -->
<g id="edge4" class="edge">
<title>Node3&#45;&gt;Node2</title>
<path fill="none" stroke="midnightblue" d="M44.48,-163.57C23.13,-151.35 -0.75,-132.18 11.41,-112 44.51,-57.06 118.61,-30.45 164.17,-18.84"/>
<polygon fill="midnightblue" stroke="midnightblue" points="42.9,-166.7 53.36,-168.36 46.23,-160.54 42.9,-166.7"/>
</g>
<!-- Node4 -->
<g id="node4" class="node">
<title>Node4</title>
<g id="a_node4"><a xlink:href="ay__3__8910_8h.html" target="_top" xlink:title="Buffer for PSG (AY&#45;3&#45;8910) registers.">
<polygon fill="none" stroke="black" points="20.41,-112.5 20.41,-131.5 124.41,-131.5 124.41,-112.5 20.41,-112.5"/>
<text text-anchor="middle" x="72.41" y="-119.5" font-family="Helvetica,sans-Serif" font-size="10.00">include/ay_3_8910.h</text>
</a>
</g>
</g>
<!-- Node3&#45;&gt;Node4 -->
<g id="edge3" class="edge">
<title>Node3&#45;&gt;Node4</title>
<path fill="none" stroke="midnightblue" d="M72.41,-157.8C72.41,-148.91 72.41,-138.78 72.41,-131.75"/>
<polygon fill="midnightblue" stroke="midnightblue" points="68.91,-158.08 72.41,-168.08 75.91,-158.08 68.91,-158.08"/>
</g>
<!-- Node5&#45;&gt;Node2 -->
<g id="edge8" class="edge">
<title>Node5&#45;&gt;Node2</title>
<path fill="none" stroke="midnightblue" d="M160.38,-105.49C146.9,-92.5 132.64,-73.36 141.41,-56 149.95,-39.08 168.18,-26.96 182.5,-19.59"/>
<polygon fill="midnightblue" stroke="midnightblue" points="158.27,-108.29 168.05,-112.36 162.94,-103.08 158.27,-108.29"/>
</g>
<!-- Node6 -->
<g id="node6" class="node">
<title>Node6</title>
<g id="a_node6"><a xlink:href="metasprite_8h.html" target="_top" xlink:title="Meta&#45;sprite ; an aggregate of sprites.">
<polygon fill="none" stroke="black" points="150.41,-56.5 150.41,-75.5 254.41,-75.5 254.41,-56.5 150.41,-56.5"/>
<text text-anchor="middle" x="202.41" y="-63.5" font-family="Helvetica,sans-Serif" font-size="10.00">include/metasprite.h</text>
</a>
</g>
</g>
<!-- Node5&#45;&gt;Node6 -->
<g id="edge6" class="edge">
<title>Node5&#45;&gt;Node6</title>
<path fill="none" stroke="midnightblue" d="M187.21,-102.69C191.08,-93.59 195.59,-83.01 198.68,-75.75"/>
<polygon fill="midnightblue" stroke="midnightblue" points="183.9,-101.51 183.21,-112.08 190.34,-104.25 183.9,-101.51"/>
</g>
<!-- Node6&#45;&gt;Node2 -->
<g id="edge7" class="edge">
<title>Node6&#45;&gt;Node2</title>
<path fill="none" stroke="midnightblue" d="M202.41,-45.8C202.41,-36.91 202.41,-26.78 202.41,-19.75"/>
<polygon fill="midnightblue" stroke="midnightblue" points="198.91,-46.08 202.41,-56.08 205.91,-46.08 198.91,-46.08"/>
</g>
<!-- Node7&#45;&gt;Node2 -->
<g id="edge11" class="edge">
<title>Node7&#45;&gt;Node2</title>
<path fill="none" stroke="midnightblue" d="M262.81,-158.97C270.44,-134.28 280.18,-89.21 263.41,-56 254.87,-39.08 236.63,-26.96 222.31,-19.59"/>
<polygon fill="midnightblue" stroke="midnightblue" points="259.48,-157.9 259.66,-168.49 266.13,-160.1 259.48,-157.9"/>
</g>
<!-- Node7&#45;&gt;Node5 -->
<g id="edge18" class="edge">
<title>Node7&#45;&gt;Node5</title>
<path fill="none" stroke="midnightblue" d="M235.51,-162.34C221.5,-152.52 203.52,-139.91 191.75,-131.65"/>
<polygon fill="midnightblue" stroke="midnightblue" points="233.84,-165.45 244.04,-168.32 237.86,-159.72 233.84,-165.45"/>
</g>
<!-- Node7&#45;&gt;Node6 -->
<g id="edge10" class="edge">
<title>Node7&#45;&gt;Node6</title>
<path fill="none" stroke="midnightblue" d="M247.91,-158.85C241.76,-145.78 233.18,-127.74 225.41,-112 219.11,-99.26 211.57,-84.62 206.89,-75.59"/>
<polygon fill="midnightblue" stroke="midnightblue" points="244.85,-160.57 252.27,-168.13 251.19,-157.59 244.85,-160.57"/>
</g>
<!-- Node8 -->
<g id="node8" class="node">
<title>Node8</title>
<g id="a_node8"><a xlink:href="sprite_8h.html" target="_top" xlink:title="Sprites.">
<polygon fill="none" stroke="black" points="310.41,-112.5 310.41,-131.5 392.41,-131.5 392.41,-112.5 310.41,-112.5"/>
<text text-anchor="middle" x="351.41" y="-119.5" font-family="Helvetica,sans-Serif" font-size="10.00">include/sprite.h</text>
</a>
</g>
</g>
<!-- Node7&#45;&gt;Node8 -->
<g id="edge12" class="edge">
<title>Node7&#45;&gt;Node8</title>
<path fill="none" stroke="midnightblue" d="M280.73,-163.18C298.21,-153.24 321.24,-140.15 336.18,-131.65"/>
<polygon fill="midnightblue" stroke="midnightblue" points="278.63,-160.34 271.67,-168.32 282.09,-166.43 278.63,-160.34"/>
</g>
<!-- Node9 -->
<g id="node9" class="node">
<title>Node9</title>
<g id="a_node9"><a xlink:href="sprite__color_8h.html" target="_top" xlink:title="Sprite color table interface.">
<polygon fill="none" stroke="black" points="348.41,-56.5 348.41,-75.5 456.41,-75.5 456.41,-56.5 348.41,-56.5"/>
<text text-anchor="middle" x="402.41" y="-63.5" font-family="Helvetica,sans-Serif" font-size="10.00">include/sprite_color.h</text>
</a>
</g>
</g>
<!-- Node7&#45;&gt;Node9 -->
<g id="edge17" class="edge">
<title>Node7&#45;&gt;Node9</title>
<path fill="none" stroke="midnightblue" d="M309.39,-175.34C341.51,-171.28 380.24,-160.27 401.41,-132 413.85,-115.38 408.92,-89.07 405.17,-75.59"/>
<polygon fill="midnightblue" stroke="midnightblue" points="308.8,-171.89 299.23,-176.43 309.55,-178.85 308.8,-171.89"/>
</g>
<!-- Node8&#45;&gt;Node2 -->
<g id="edge14" class="edge">
<title>Node8&#45;&gt;Node2</title>
<path fill="none" stroke="midnightblue" d="M340.14,-104.03C330.02,-89.79 314.07,-69.64 296.41,-56 275.21,-39.63 247.11,-27.15 227.16,-19.53"/>
<polygon fill="midnightblue" stroke="midnightblue" points="337.36,-106.16 345.91,-112.41 343.12,-102.19 337.36,-106.16"/>
</g>
<!-- Node8&#45;&gt;Node6 -->
<g id="edge13" class="edge">
<title>Node8&#45;&gt;Node6</title>
<path fill="none" stroke="midnightblue" d="M318.04,-108.91C290.02,-98.75 250.71,-84.51 225.91,-75.52"/>
<polygon fill="midnightblue" stroke="midnightblue" points="317.2,-112.33 327.8,-112.44 319.59,-105.75 317.2,-112.33"/>
</g>
<!-- Node8&#45;&gt;Node9 -->
<g id="edge15" class="edge">
<title>Node8&#45;&gt;Node9</title>
<path fill="none" stroke="midnightblue" d="M366.79,-104.72C375.77,-95.2 386.77,-83.56 394.14,-75.75"/>
<polygon fill="midnightblue" stroke="midnightblue" points="364.15,-102.41 359.83,-112.08 369.24,-107.22 364.15,-102.41"/>
</g>
<!-- Node9&#45;&gt;Node2 -->
<g id="edge16" class="edge">
<title>Node9&#45;&gt;Node2</title>
<path fill="none" stroke="midnightblue" d="M361.03,-53.83C323.27,-43.63 268.27,-28.78 233.95,-19.52"/>
<polygon fill="midnightblue" stroke="midnightblue" points="360.15,-57.22 370.72,-56.44 361.97,-50.46 360.15,-57.22"/>
</g>
</g>
</svg>
