<?xml version="1.0" encoding="UTF-8" standalone="no"?>
<!DOCTYPE svg PUBLIC "-//W3C//DTD SVG 1.1//EN"
 "http://www.w3.org/Graphics/SVG/1.1/DTD/svg11.dtd">
<!-- Generated by graphviz version 7.0.4 (20221203.1631)
 -->
<!-- Title: include/io.h Pages: 1 -->
<svg width="641pt" height="302pt"
 viewBox="0.00 0.00 641.23 302.00" xmlns="http://www.w3.org/2000/svg" xmlns:xlink="http://www.w3.org/1999/xlink">
<g id="graph0" class="graph" transform="scale(1 1) rotate(0) translate(4 298)">
<title>include/io.h</title>
<!-- Node1 -->
<g id="node1" class="node">
<title>Node1</title>
<g id="a_node1"><a xlink:title="Definition of I/O ports.">
<polygon fill="#999999" stroke="#666666" points="230.5,-294 165.5,-294 165.5,-275 230.5,-275 230.5,-294"/>
<text text-anchor="middle" x="198" y="-282" font-family="Helvetica,sans-Serif" font-size="10.00">include/io.h</text>
</a>
</g>
</g>
<!-- Node2 -->
<g id="node2" class="node">
<title>Node2</title>
<g id="a_node2"><a xlink:href="msx_8h.html" target="_top" xlink:title="Using #include &lt;msx.h&gt; includes almost all C header files in libmsx, for ease to use.">
<polygon fill="white" stroke="#666666" points="430,-19 354,-19 354,0 430,0 430,-19"/>
<text text-anchor="middle" x="392" y="-7" font-family="Helvetica,sans-Serif" font-size="10.00">include/msx.h</text>
</a>
</g>
</g>
<!-- Node1&#45;&gt;Node2 -->
<g id="edge1" class="edge">
<title>Node1&#45;&gt;Node2</title>
<path fill="none" stroke="#63b8ff" d="M154.18,-278.96C95.86,-270.22 0,-245.25 0,-175.5 0,-175.5 0,-175.5 0,-118.5 0,-45.61 255.06,-20.04 353.7,-12.88"/>
<polygon fill="#63b8ff" stroke="#63b8ff" points="153.42,-282.39 163.81,-280.29 154.38,-275.45 153.42,-282.39"/>
</g>
<!-- Node3 -->
<g id="node3" class="node">
<title>Node3</title>
<g id="a_node3"><a xlink:href="psg_8h.html" target="_top" xlink:title="Device interface for PSG (AY&#45;3&#45;8910) an internal sound chip.">
<polygon fill="white" stroke="#666666" points="170,-239 96,-239 96,-220 170,-220 170,-239"/>
<text text-anchor="middle" x="133" y="-227" font-family="Helvetica,sans-Serif" font-size="10.00">include/psg.h</text>
</a>
</g>
</g>
<!-- Node1&#45;&gt;Node3 -->
<g id="edge2" class="edge">
<title>Node1&#45;&gt;Node3</title>
<path fill="none" stroke="#63b8ff" d="M178.21,-267.37C166.92,-258.16 153.21,-246.98 143.86,-239.36"/>
<polygon fill="#63b8ff" stroke="#63b8ff" points="175.84,-269.95 185.8,-273.55 180.26,-264.52 175.84,-269.95"/>
</g>
<!-- Node5 -->
<g id="node5" class="node">
<title>Node5</title>
<g id="a_node5"><a xlink:href="vdp_8h.html" target="_top" xlink:title="Data types and functions for VDP (Video Display Proccessor) access.">
<polygon fill="white" stroke="#666666" points="325,-129 251,-129 251,-110 325,-110 325,-129"/>
<text text-anchor="middle" x="288" y="-117" font-family="Helvetica,sans-Serif" font-size="10.00">include/vdp.h</text>
</a>
</g>
</g>
<!-- Node1&#45;&gt;Node5 -->
<g id="edge5" class="edge">
<title>Node1&#45;&gt;Node5</title>
<path fill="none" stroke="#63b8ff" d="M196.4,-263.26C195.44,-238.11 197.21,-194.88 217,-165 228.08,-148.26 247.85,-136.64 263.72,-129.48"/>
<polygon fill="#63b8ff" stroke="#63b8ff" points="192.9,-263.31 196.99,-273.08 199.89,-262.89 192.9,-263.31"/>
</g>
<!-- Node7 -->
<g id="node7" class="node">
<title>Node7</title>
<g id="a_node7"><a xlink:href="vdp__unsafe_8h.html" target="_top" xlink:title="Unsafe primitive functions for VDP (Video Display Proccessor) access.">
<polygon fill="white" stroke="#666666" points="334,-184 226,-184 226,-165 334,-165 334,-184"/>
<text text-anchor="middle" x="280" y="-172" font-family="Helvetica,sans-Serif" font-size="10.00">include/vdp_unsafe.h</text>
</a>
</g>
</g>
<!-- Node1&#45;&gt;Node7 -->
<g id="edge9" class="edge">
<title>Node1&#45;&gt;Node7</title>
<path fill="none" stroke="#63b8ff" d="M211.67,-265.49C229.42,-242.11 259.72,-202.2 273.2,-184.46"/>
<polygon fill="#63b8ff" stroke="#63b8ff" points="208.89,-263.38 205.63,-273.46 214.46,-267.61 208.89,-263.38"/>
</g>
<!-- Node8 -->
<g id="node8" class="node">
<title>Node8</title>
<g id="a_node8"><a xlink:href="vmem_8h.html" target="_top" xlink:title="Data types and functions for VRAM access.">
<polygon fill="white" stroke="#666666" points="510.5,-239 425.5,-239 425.5,-220 510.5,-220 510.5,-239"/>
<text text-anchor="middle" x="468" y="-227" font-family="Helvetica,sans-Serif" font-size="10.00">include/vmem.h</text>
</a>
</g>
</g>
<!-- Node1&#45;&gt;Node8 -->
<g id="edge11" class="edge">
<title>Node1&#45;&gt;Node8</title>
<path fill="none" stroke="#63b8ff" d="M242.05,-274.85C292.65,-264.92 375.1,-248.74 425.18,-238.91"/>
<polygon fill="#63b8ff" stroke="#63b8ff" points="241.46,-271.4 232.32,-276.76 242.81,-278.27 241.46,-271.4"/>
</g>
<!-- Node3&#45;&gt;Node2 -->
<g id="edge4" class="edge">
<title>Node3&#45;&gt;Node2</title>
<path fill="none" stroke="#63b8ff" d="M147.47,-211.07C167.63,-187.22 205.75,-143.54 242,-110 271.04,-83.13 279.05,-76.91 312,-55 332.51,-41.36 357.51,-27.92 374.05,-19.45"/>
<polygon fill="#63b8ff" stroke="#63b8ff" points="144.94,-208.65 141.19,-218.56 150.3,-213.15 144.94,-208.65"/>
</g>
<!-- Node4 -->
<g id="node4" class="node">
<title>Node4</title>
<g id="a_node4"><a xlink:href="ay__3__8910_8h.html" target="_top" xlink:title="Buffer for PSG (AY&#45;3&#45;8910) registers.">
<polygon fill="white" stroke="#666666" points="132,-184 28,-184 28,-165 132,-165 132,-184"/>
<text text-anchor="middle" x="80" y="-172" font-family="Helvetica,sans-Serif" font-size="10.00">include/ay_3_8910.h</text>
</a>
</g>
</g>
<!-- Node3&#45;&gt;Node4 -->
<g id="edge3" class="edge">
<title>Node3&#45;&gt;Node4</title>
<path fill="none" stroke="#63b8ff" d="M116.28,-211.78C107.22,-202.72 96.4,-191.9 88.94,-184.44"/>
<polygon fill="#63b8ff" stroke="#63b8ff" points="113.63,-214.08 123.18,-218.68 118.58,-209.13 113.63,-214.08"/>
</g>
<!-- Node5&#45;&gt;Node2 -->
<g id="edge8" class="edge">
<title>Node5&#45;&gt;Node2</title>
<path fill="none" stroke="#63b8ff" d="M298.4,-99.64C306.3,-86.3 317.99,-68.47 331,-55 344.84,-40.67 363.75,-27.67 376.83,-19.47"/>
<polygon fill="#63b8ff" stroke="#63b8ff" points="295.39,-97.86 293.47,-108.28 301.47,-101.33 295.39,-97.86"/>
</g>
<!-- Node6 -->
<g id="node6" class="node">
<title>Node6</title>
<g id="a_node6"><a xlink:href="metasprite_8h.html" target="_top" xlink:title="Meta&#45;sprite ; an aggregate of sprites.">
<polygon fill="white" stroke="#666666" points="444,-74 340,-74 340,-55 444,-55 444,-74"/>
<text text-anchor="middle" x="392" y="-62" font-family="Helvetica,sans-Serif" font-size="10.00">include/metasprite.h</text>
</a>
</g>
</g>
<!-- Node5&#45;&gt;Node6 -->
<g id="edge6" class="edge">
<title>Node5&#45;&gt;Node6</title>
<path fill="none" stroke="#63b8ff" d="M315.67,-104.4C334.39,-94.86 358.55,-82.55 374.62,-74.36"/>
<polygon fill="#63b8ff" stroke="#63b8ff" points="314.31,-101.16 306.99,-108.82 317.49,-107.4 314.31,-101.16"/>
</g>
<!-- Node6&#45;&gt;Node2 -->
<g id="edge7" class="edge">
<title>Node6&#45;&gt;Node2</title>
<path fill="none" stroke="#63b8ff" d="M392,-43.35C392,-35.1 392,-25.97 392,-19.44"/>
<polygon fill="#63b8ff" stroke="#63b8ff" points="388.5,-43.23 392,-53.23 395.5,-43.23 388.5,-43.23"/>
</g>
<!-- Node7&#45;&gt;Node5 -->
<g id="edge10" class="edge">
<title>Node7&#45;&gt;Node5</title>
<path fill="none" stroke="#63b8ff" d="M283,-153.64C284.25,-145.31 285.65,-136.05 286.65,-129.44"/>
<polygon fill="#63b8ff" stroke="#63b8ff" points="279.58,-152.84 281.55,-163.25 286.5,-153.89 279.58,-152.84"/>
</g>
<!-- Node8&#45;&gt;Node2 -->
<g id="edge15" class="edge">
<title>Node8&#45;&gt;Node2</title>
<path fill="none" stroke="#63b8ff" d="M512.12,-215.85C531.64,-208.73 553.98,-198.33 571,-184 617.57,-144.81 655.64,-102.03 617,-55 593.81,-26.77 488.26,-16.15 430.34,-12.39"/>
<polygon fill="#63b8ff" stroke="#63b8ff" points="511.06,-212.52 502.75,-219.08 513.34,-219.13 511.06,-212.52"/>
</g>
<!-- Node8&#45;&gt;Node5 -->
<g id="edge22" class="edge">
<title>Node8&#45;&gt;Node5</title>
<path fill="none" stroke="#63b8ff" d="M439.35,-214.72C422.4,-206.32 400.67,-195.09 382,-184 351.69,-166 317.81,-142.13 300.17,-129.39"/>
<polygon fill="#63b8ff" stroke="#63b8ff" points="437.33,-217.63 447.85,-218.9 440.41,-211.35 437.33,-217.63"/>
</g>
<!-- Node8&#45;&gt;Node6 -->
<g id="edge14" class="edge">
<title>Node8&#45;&gt;Node6</title>
<path fill="none" stroke="#63b8ff" d="M478.27,-209.7C483.87,-197.07 488.95,-180.04 485,-165 477.88,-137.86 472.73,-130.9 454,-110 440.74,-95.2 421.73,-82.47 408.26,-74.46"/>
<polygon fill="#63b8ff" stroke="#63b8ff" points="475.2,-208.01 473.88,-218.52 481.47,-211.12 475.2,-208.01"/>
</g>
<!-- Node8&#45;&gt;Node7 -->
<g id="edge23" class="edge">
<title>Node8&#45;&gt;Node7</title>
<path fill="none" stroke="#63b8ff" d="M425.4,-216.49C390.87,-206.76 342.97,-193.25 311.73,-184.45"/>
<polygon fill="#63b8ff" stroke="#63b8ff" points="424.08,-219.75 434.65,-219.1 425.98,-213.02 424.08,-219.75"/>
</g>
<!-- Node9 -->
<g id="node9" class="node">
<title>Node9</title>
<g id="a_node9"><a xlink:href="bmem_8h.html" target="_top" xlink:title="Data types and functions for accessing banked memory.">
<polygon fill="white" stroke="#666666" points="475.5,-184 390.5,-184 390.5,-165 475.5,-165 475.5,-184"/>
<text text-anchor="middle" x="433" y="-172" font-family="Helvetica,sans-Serif" font-size="10.00">include/bmem.h</text>
</a>
</g>
</g>
<!-- Node8&#45;&gt;Node9 -->
<g id="edge12" class="edge">
<title>Node8&#45;&gt;Node9</title>
<path fill="none" stroke="#63b8ff" d="M456.02,-210.36C450.25,-201.62 443.57,-191.51 438.91,-184.44"/>
<polygon fill="#63b8ff" stroke="#63b8ff" points="452.96,-212.07 461.39,-218.49 458.8,-208.21 452.96,-212.07"/>
</g>
<!-- Node11 -->
<g id="node11" class="node">
<title>Node11</title>
<g id="a_node11"><a xlink:href="sprite_8h.html" target="_top" xlink:title="Sprites.">
<polygon fill="white" stroke="#666666" points="583,-129 501,-129 501,-110 583,-110 583,-129"/>
<text text-anchor="middle" x="542" y="-117" font-family="Helvetica,sans-Serif" font-size="10.00">include/sprite.h</text>
</a>
</g>
</g>
<!-- Node8&#45;&gt;Node11 -->
<g id="edge16" class="edge">
<title>Node8&#45;&gt;Node11</title>
<path fill="none" stroke="#63b8ff" d="M490.16,-212.69C499.76,-204.93 510.49,-194.92 518,-184 530.02,-166.52 537,-142.23 540.09,-129.35"/>
<polygon fill="#63b8ff" stroke="#63b8ff" points="488.1,-209.86 482.3,-218.72 492.36,-215.41 488.1,-209.86"/>
</g>
<!-- Node12 -->
<g id="node12" class="node">
<title>Node12</title>
<g id="a_node12"><a xlink:href="sprite__color_8h.html" target="_top" xlink:title="Sprite color table interface.">
<polygon fill="white" stroke="#666666" points="608,-74 500,-74 500,-55 608,-55 608,-74"/>
<text text-anchor="middle" x="554" y="-62" font-family="Helvetica,sans-Serif" font-size="10.00">include/sprite_color.h</text>
</a>
</g>
</g>
<!-- Node8&#45;&gt;Node12 -->
<g id="edge21" class="edge">
<title>Node8&#45;&gt;Node12</title>
<path fill="none" stroke="#63b8ff" d="M499.44,-214.5C530.19,-198.77 574.81,-169.98 592,-129 600.75,-108.15 579.51,-85.95 565.38,-74.12"/>
<polygon fill="#63b8ff" stroke="#63b8ff" points="498.01,-211.3 490.57,-218.85 501.09,-217.59 498.01,-211.3"/>
</g>
<!-- Node10 -->
<g id="node10" class="node">
<title>Node10</title>
<g id="a_node10"><a xlink:href="resources_8h.html" target="_top" xlink:title="Data types and functions for accessing embedded resources.">
<polygon fill="white" stroke="#666666" points="444.5,-129 343.5,-129 343.5,-110 444.5,-110 444.5,-129"/>
<text text-anchor="middle" x="394" y="-117" font-family="Helvetica,sans-Serif" font-size="10.00">include/resources.h</text>
</a>
</g>
</g>
<!-- Node9&#45;&gt;Node10 -->
<g id="edge13" class="edge">
<title>Node9&#45;&gt;Node10</title>
<path fill="none" stroke="#63b8ff" d="M419.86,-155.65C413.38,-146.84 405.84,-136.59 400.58,-129.44"/>
<polygon fill="#63b8ff" stroke="#63b8ff" points="416.92,-157.55 425.66,-163.53 422.56,-153.4 416.92,-157.55"/>
</g>
<!-- Node11&#45;&gt;Node2 -->
<g id="edge18" class="edge">
<title>Node11&#45;&gt;Node2</title>
<path fill="none" stroke="#63b8ff" d="M520.39,-102.94C488.53,-80 429.97,-37.84 404.44,-19.46"/>
<polygon fill="#63b8ff" stroke="#63b8ff" points="518.34,-105.77 528.5,-108.78 522.43,-100.09 518.34,-105.77"/>
</g>
<!-- Node11&#45;&gt;Node6 -->
<g id="edge17" class="edge">
<title>Node11&#45;&gt;Node6</title>
<path fill="none" stroke="#63b8ff" d="M505.85,-105.73C478.48,-96.06 441.59,-83.02 417.32,-74.45"/>
<polygon fill="#63b8ff" stroke="#63b8ff" points="504.53,-108.97 515.13,-109.01 506.86,-102.37 504.53,-108.97"/>
</g>
<!-- Node11&#45;&gt;Node12 -->
<g id="edge19" class="edge">
<title>Node11&#45;&gt;Node12</title>
<path fill="none" stroke="#63b8ff" d="M546.5,-98.64C548.38,-90.31 550.48,-81.05 551.98,-74.44"/>
<polygon fill="#63b8ff" stroke="#63b8ff" points="543.11,-97.75 544.32,-108.27 549.94,-99.29 543.11,-97.75"/>
</g>
<!-- Node12&#45;&gt;Node2 -->
<g id="edge20" class="edge">
<title>Node12&#45;&gt;Node2</title>
<path fill="none" stroke="#63b8ff" d="M515.74,-50.98C486.11,-41.29 445.79,-28.1 419.35,-19.45"/>
<polygon fill="#63b8ff" stroke="#63b8ff" points="514.49,-54.26 525.08,-54.04 516.66,-47.6 514.49,-54.26"/>
</g>
</g>
</svg>
