<?xml version="1.0" encoding="UTF-8" standalone="no"?>
<!DOCTYPE svg PUBLIC "-//W3C//DTD SVG 1.1//EN"
 "http://www.w3.org/Graphics/SVG/1.1/DTD/svg11.dtd">
<!-- Generated by graphviz version 9.0.0 (20230911.1827)
 -->
<!-- Title: include/io.h Pages: 1 -->
<svg width="73pt" height="138pt"
 viewBox="0.00 0.00 72.75 137.75" xmlns="http://www.w3.org/2000/svg" xmlns:xlink="http://www.w3.org/1999/xlink">
<g id="graph0" class="graph" transform="scale(1 1) rotate(0) translate(4 133.75)">
<title>include/io.h</title>
<!-- Node1 -->
<g id="Node000001" class="node">
<title>Node1</title>
<g id="a_Node000001"><a xlink:title="Definition of I/O ports.">
<polygon fill="#999999" stroke="#666666" points="64.75,-129.75 0,-129.75 0,-110.5 64.75,-110.5 64.75,-129.75"/>
<text text-anchor="middle" x="32.38" y="-116.25" font-family="Helvetica,sans-Serif" font-size="10.00">include/io.h</text>
</a>
</g>
</g>
<!-- Node2 -->
<g id="Node000002" class="node">
<title>Node2</title>
<g id="a_Node000002"><a xlink:href="config_8h.html" target="_top" xlink:title="Hack for C Compiler portability.">
<polygon fill="white" stroke="#666666" points="56.88,-74.5 7.88,-74.5 7.88,-55.25 56.88,-55.25 56.88,-74.5"/>
<text text-anchor="middle" x="32.38" y="-61" font-family="Helvetica,sans-Serif" font-size="10.00">config.h</text>
</a>
</g>
</g>
<!-- Node1&#45;&gt;Node2 -->
<g id="edge1_Node000001_Node000002" class="edge">
<title>Node1&#45;&gt;Node2</title>
<g id="a_edge1_Node000001_Node000002"><a xlink:title=" ">
<path fill="none" stroke="#63b8ff" d="M32.38,-110.33C32.38,-103.82 32.38,-94.67 32.38,-86.37"/>
<polygon fill="#63b8ff" stroke="#63b8ff" points="35.88,-86.37 32.38,-76.37 28.88,-86.37 35.88,-86.37"/>
</a>
</g>
</g>
<!-- Node3 -->
<g id="Node000003" class="node">
<title>Node3</title>
<g id="a_Node000003"><a xlink:title=" ">
<polygon fill="#e0e0e0" stroke="#999999" points="56.12,-19.25 8.62,-19.25 8.62,0 56.12,0 56.12,-19.25"/>
<text text-anchor="middle" x="32.38" y="-5.75" font-family="Helvetica,sans-Serif" font-size="10.00">stdint.h</text>
</a>
</g>
</g>
<!-- Node2&#45;&gt;Node3 -->
<g id="edge2_Node000002_Node000003" class="edge">
<title>Node2&#45;&gt;Node3</title>
<g id="a_edge2_Node000002_Node000003"><a xlink:title=" ">
<path fill="none" stroke="#63b8ff" d="M32.38,-55.08C32.38,-48.57 32.38,-39.42 32.38,-31.12"/>
<polygon fill="#63b8ff" stroke="#63b8ff" points="35.88,-31.12 32.38,-21.12 28.88,-31.12 35.88,-31.12"/>
</a>
</g>
</g>
</g>
</svg>
