<?xml version="1.0" encoding="UTF-8" standalone="no"?>
<!DOCTYPE svg PUBLIC "-//W3C//DTD SVG 1.1//EN"
 "http://www.w3.org/Graphics/SVG/1.1/DTD/svg11.dtd">
<!-- Generated by graphviz version 7.0.5 (20221223.1930)
 -->
<!-- Title: include/io.h Pages: 1 -->
<svg width="767pt" height="302pt"
 viewBox="0.00 0.00 767.08 302.00" xmlns="http://www.w3.org/2000/svg" xmlns:xlink="http://www.w3.org/1999/xlink">
<g id="graph0" class="graph" transform="scale(1 1) rotate(0) translate(4 298)">
<title>include/io.h</title>
<!-- Node1 -->
<g id="node1" class="node">
<title>Node1</title>
<g id="a_node1"><a xlink:title="Definition of I/O ports.">
<polygon fill="#999999" stroke="#666666" points="284.58,-294 219.58,-294 219.58,-275 284.58,-275 284.58,-294"/>
<text text-anchor="middle" x="252.08" y="-282" font-family="Helvetica,sans-Serif" font-size="10.00">include/io.h</text>
</a>
</g>
</g>
<!-- Node2 -->
<g id="node2" class="node">
<title>Node2</title>
<g id="a_node2"><a xlink:href="msx_8h.html" target="_top" xlink:title="Using #include &lt;msx.h&gt; includes almost all C header files in libmsx, for ease to use.">
<polygon fill="white" stroke="#666666" points="386.08,-19 310.08,-19 310.08,0 386.08,0 386.08,-19"/>
<text text-anchor="middle" x="348.08" y="-7" font-family="Helvetica,sans-Serif" font-size="10.00">include/msx.h</text>
</a>
</g>
</g>
<!-- Node1&#45;&gt;Node2 -->
<g id="edge1" class="edge">
<title>Node1&#45;&gt;Node2</title>
<path fill="none" stroke="#63b8ff" d="M296.26,-282.39C392.44,-279.41 617.73,-269.34 687.08,-239 726.17,-221.9 759.08,-218.17 759.08,-175.5 759.08,-175.5 759.08,-175.5 759.08,-118.5 759.08,-77.15 728.49,-72.62 691.08,-55 637.71,-29.87 464.19,-17.1 386.41,-12.52"/>
<polygon fill="#63b8ff" stroke="#63b8ff" points="296.32,-278.88 286.43,-282.68 296.53,-285.88 296.32,-278.88"/>
</g>
<!-- Node3 -->
<g id="node3" class="node">
<title>Node3</title>
<g id="a_node3"><a xlink:href="psg_8h.html" target="_top" xlink:title="Device interface for PSG (AY&#45;3&#45;8910) an internal sound chip.">
<polygon fill="white" stroke="#666666" points="678.08,-239 604.08,-239 604.08,-220 678.08,-220 678.08,-239"/>
<text text-anchor="middle" x="641.08" y="-227" font-family="Helvetica,sans-Serif" font-size="10.00">include/psg.h</text>
</a>
</g>
</g>
<!-- Node1&#45;&gt;Node3 -->
<g id="edge2" class="edge">
<title>Node1&#45;&gt;Node3</title>
<path fill="none" stroke="#63b8ff" d="M296.13,-277.5C373.28,-266.99 531.49,-245.43 603.68,-235.6"/>
<polygon fill="#63b8ff" stroke="#63b8ff" points="295.85,-274 286.41,-278.82 296.8,-280.94 295.85,-274"/>
</g>
<!-- Node5 -->
<g id="node5" class="node">
<title>Node5</title>
<g id="a_node5"><a xlink:href="vdp_8h.html" target="_top" xlink:title="Data types and functions for VDP (Video Display Proccessor) access.">
<polygon fill="white" stroke="#666666" points="160.08,-129 86.08,-129 86.08,-110 160.08,-110 160.08,-129"/>
<text text-anchor="middle" x="123.08" y="-117" font-family="Helvetica,sans-Serif" font-size="10.00">include/vdp.h</text>
</a>
</g>
</g>
<!-- Node1&#45;&gt;Node5 -->
<g id="edge5" class="edge">
<title>Node1&#45;&gt;Node5</title>
<path fill="none" stroke="#63b8ff" d="M208.02,-280.16C150.16,-273.15 50.59,-251.39 5.08,-184 -17.24,-150.93 43.3,-133.67 85.7,-125.88"/>
<polygon fill="#63b8ff" stroke="#63b8ff" points="207.53,-283.63 217.85,-281.25 208.29,-276.67 207.53,-283.63"/>
</g>
<!-- Node7 -->
<g id="node7" class="node">
<title>Node7</title>
<g id="a_node7"><a xlink:href="vdp__unsafe_8h.html" target="_top" xlink:title="Unsafe primitive functions for VDP (Video Display Proccessor) access.">
<polygon fill="white" stroke="#666666" points="122.08,-184 14.08,-184 14.08,-165 122.08,-165 122.08,-184"/>
<text text-anchor="middle" x="68.08" y="-172" font-family="Helvetica,sans-Serif" font-size="10.00">include/vdp_unsafe.h</text>
</a>
</g>
</g>
<!-- Node1&#45;&gt;Node7 -->
<g id="edge9" class="edge">
<title>Node1&#45;&gt;Node7</title>
<path fill="none" stroke="#63b8ff" d="M227.58,-269.12C189,-246.47 115.21,-203.16 83.35,-184.46"/>
<polygon fill="#63b8ff" stroke="#63b8ff" points="225.33,-271.85 235.72,-273.9 228.87,-265.82 225.33,-271.85"/>
</g>
<!-- Node8 -->
<g id="node8" class="node">
<title>Node8</title>
<g id="a_node8"><a xlink:href="vmem_8h.html" target="_top" xlink:title="Data types and functions for VRAM access.">
<polygon fill="white" stroke="#666666" points="294.58,-239 209.58,-239 209.58,-220 294.58,-220 294.58,-239"/>
<text text-anchor="middle" x="252.08" y="-227" font-family="Helvetica,sans-Serif" font-size="10.00">include/vmem.h</text>
</a>
</g>
</g>
<!-- Node1&#45;&gt;Node8 -->
<g id="edge11" class="edge">
<title>Node1&#45;&gt;Node8</title>
<path fill="none" stroke="#63b8ff" d="M252.08,-263.35C252.08,-255.1 252.08,-245.97 252.08,-239.44"/>
<polygon fill="#63b8ff" stroke="#63b8ff" points="248.58,-263.23 252.08,-273.23 255.58,-263.23 248.58,-263.23"/>
</g>
<!-- Node3&#45;&gt;Node2 -->
<g id="edge4" class="edge">
<title>Node3&#45;&gt;Node2</title>
<path fill="none" stroke="#63b8ff" d="M671.9,-213.94C683.58,-206.71 695.61,-196.74 702.08,-184 722.72,-143.4 743.24,-119.23 667.08,-55 625.35,-19.8 461.72,-12.41 386.4,-10.88"/>
<polygon fill="#63b8ff" stroke="#63b8ff" points="670.19,-210.89 663.2,-218.86 673.63,-216.99 670.19,-210.89"/>
</g>
<!-- Node4 -->
<g id="node4" class="node">
<title>Node4</title>
<g id="a_node4"><a xlink:href="ay__3__8910_8h.html" target="_top" xlink:title="Buffer for PSG (AY&#45;3&#45;8910) registers.">
<polygon fill="white" stroke="#666666" points="693.08,-184 589.08,-184 589.08,-165 693.08,-165 693.08,-184"/>
<text text-anchor="middle" x="641.08" y="-172" font-family="Helvetica,sans-Serif" font-size="10.00">include/ay_3_8910.h</text>
</a>
</g>
</g>
<!-- Node3&#45;&gt;Node4 -->
<g id="edge3" class="edge">
<title>Node3&#45;&gt;Node4</title>
<path fill="none" stroke="#63b8ff" d="M641.08,-208.35C641.08,-200.1 641.08,-190.97 641.08,-184.44"/>
<polygon fill="#63b8ff" stroke="#63b8ff" points="637.58,-208.23 641.08,-218.23 644.58,-208.23 637.58,-208.23"/>
</g>
<!-- Node5&#45;&gt;Node2 -->
<g id="edge8" class="edge">
<title>Node5&#45;&gt;Node2</title>
<path fill="none" stroke="#63b8ff" d="M133.51,-99.78C142.46,-85.42 156.65,-66.23 174.08,-55 215.63,-28.24 272.43,-17.56 309.67,-13.3"/>
<polygon fill="#63b8ff" stroke="#63b8ff" points="130.56,-97.9 128.5,-108.3 136.59,-101.46 130.56,-97.9"/>
</g>
<!-- Node6 -->
<g id="node6" class="node">
<title>Node6</title>
<g id="a_node6"><a xlink:href="metasprite_8h.html" target="_top" xlink:title="Meta&#45;sprite ; an aggregate of sprites.">
<polygon fill="white" stroke="#666666" points="320.08,-74 216.08,-74 216.08,-55 320.08,-55 320.08,-74"/>
<text text-anchor="middle" x="268.08" y="-62" font-family="Helvetica,sans-Serif" font-size="10.00">include/metasprite.h</text>
</a>
</g>
</g>
<!-- Node5&#45;&gt;Node6 -->
<g id="edge6" class="edge">
<title>Node5&#45;&gt;Node6</title>
<path fill="none" stroke="#63b8ff" d="M158.42,-105.58C184.92,-95.9 220.5,-82.89 243.85,-74.36"/>
<polygon fill="#63b8ff" stroke="#63b8ff" points="157.29,-102.27 149.1,-108.99 159.7,-108.84 157.29,-102.27"/>
</g>
<!-- Node6&#45;&gt;Node2 -->
<g id="edge7" class="edge">
<title>Node6&#45;&gt;Node2</title>
<path fill="none" stroke="#63b8ff" d="M291.2,-48.19C305.31,-38.84 322.87,-27.21 334.71,-19.36"/>
<polygon fill="#63b8ff" stroke="#63b8ff" points="289.32,-45.23 282.92,-53.67 293.19,-51.07 289.32,-45.23"/>
</g>
<!-- Node7&#45;&gt;Node5 -->
<g id="edge10" class="edge">
<title>Node7&#45;&gt;Node5</title>
<path fill="none" stroke="#63b8ff" d="M85.44,-156.78C94.83,-147.72 106.07,-136.9 113.8,-129.44"/>
<polygon fill="#63b8ff" stroke="#63b8ff" points="83.03,-154.24 78.26,-163.7 87.89,-159.28 83.03,-154.24"/>
</g>
<!-- Node8&#45;&gt;Node2 -->
<g id="edge17" class="edge">
<title>Node8&#45;&gt;Node2</title>
<path fill="none" stroke="#63b8ff" d="M238.48,-210.49C214.79,-176.78 171.74,-103.22 207.08,-55 230.45,-23.12 276.73,-13.49 309.9,-10.88"/>
<polygon fill="#63b8ff" stroke="#63b8ff" points="235.5,-212.35 244.21,-218.38 241.16,-208.23 235.5,-212.35"/>
</g>
<!-- Node8&#45;&gt;Node5 -->
<g id="edge24" class="edge">
<title>Node8&#45;&gt;Node5</title>
<path fill="none" stroke="#63b8ff" d="M221.88,-214.65C206.66,-206.87 188.44,-196.25 174.08,-184 154.51,-167.3 136.99,-142.25 128.5,-129.16"/>
<polygon fill="#63b8ff" stroke="#63b8ff" points="219.98,-217.62 230.5,-218.91 223.08,-211.34 219.98,-217.62"/>
</g>
<!-- Node8&#45;&gt;Node6 -->
<g id="edge16" class="edge">
<title>Node8&#45;&gt;Node6</title>
<path fill="none" stroke="#63b8ff" d="M247.4,-208.69C242.58,-184.9 236.83,-143.95 245.08,-110 248.33,-96.65 256.33,-82.83 261.98,-74.2"/>
<polygon fill="#63b8ff" stroke="#63b8ff" points="243.94,-209.23 249.5,-218.24 250.77,-207.72 243.94,-209.23"/>
</g>
<!-- Node8&#45;&gt;Node7 -->
<g id="edge25" class="edge">
<title>Node8&#45;&gt;Node7</title>
<path fill="none" stroke="#63b8ff" d="M209.95,-216.36C176.19,-206.64 129.58,-193.21 99.14,-184.45"/>
<polygon fill="#63b8ff" stroke="#63b8ff" points="208.84,-219.69 219.42,-219.09 210.78,-212.96 208.84,-219.69"/>
</g>
<!-- Node9 -->
<g id="node9" class="node">
<title>Node9</title>
<g id="a_node9"><a xlink:href="bmem_8h.html" target="_top" xlink:title="Data types and functions for accessing banked memory.">
<polygon fill="white" stroke="#666666" points="451.58,-184 366.58,-184 366.58,-165 451.58,-165 451.58,-184"/>
<text text-anchor="middle" x="409.08" y="-172" font-family="Helvetica,sans-Serif" font-size="10.00">include/bmem.h</text>
</a>
</g>
</g>
<!-- Node8&#45;&gt;Node9 -->
<g id="edge12" class="edge">
<title>Node8&#45;&gt;Node9</title>
<path fill="none" stroke="#63b8ff" d="M289.54,-215.85C318.22,-206.17 357.06,-193.06 382.58,-184.45"/>
<polygon fill="#63b8ff" stroke="#63b8ff" points="288.51,-212.51 280.15,-219.03 290.75,-219.14 288.51,-212.51"/>
</g>
<!-- Node13 -->
<g id="node13" class="node">
<title>Node13</title>
<g id="a_node13"><a xlink:href="sprite_8h.html" target="_top" xlink:title="Sprites.">
<polygon fill="white" stroke="#666666" points="336.08,-129 254.08,-129 254.08,-110 336.08,-110 336.08,-129"/>
<text text-anchor="middle" x="295.08" y="-117" font-family="Helvetica,sans-Serif" font-size="10.00">include/sprite.h</text>
</a>
</g>
</g>
<!-- Node8&#45;&gt;Node13 -->
<g id="edge18" class="edge">
<title>Node8&#45;&gt;Node13</title>
<path fill="none" stroke="#63b8ff" d="M259.76,-209.22C269.13,-185.69 284.58,-146.89 291.52,-129.46"/>
<polygon fill="#63b8ff" stroke="#63b8ff" points="256.61,-207.67 256.16,-218.26 263.11,-210.26 256.61,-207.67"/>
</g>
<!-- Node14 -->
<g id="node14" class="node">
<title>Node14</title>
<g id="a_node14"><a xlink:href="sprite__color_8h.html" target="_top" xlink:title="Sprite color table interface.">
<polygon fill="white" stroke="#666666" points="484.08,-74 376.08,-74 376.08,-55 484.08,-55 484.08,-74"/>
<text text-anchor="middle" x="430.08" y="-62" font-family="Helvetica,sans-Serif" font-size="10.00">include/sprite_color.h</text>
</a>
</g>
</g>
<!-- Node8&#45;&gt;Node14 -->
<g id="edge23" class="edge">
<title>Node8&#45;&gt;Node14</title>
<path fill="none" stroke="#63b8ff" d="M270.35,-211.77C307.79,-177.49 392.07,-100.31 420.51,-74.27"/>
<polygon fill="#63b8ff" stroke="#63b8ff" points="268.04,-209.15 263.02,-218.48 272.76,-214.31 268.04,-209.15"/>
</g>
<!-- Node15 -->
<g id="node15" class="node">
<title>Node15</title>
<g id="a_node15"><a xlink:href="vmem__rw_8h.html" target="_top" xlink:title="Stream like access functions for VRAM.">
<polygon fill="white" stroke="#666666" points="570.58,-184 469.58,-184 469.58,-165 570.58,-165 570.58,-184"/>
<text text-anchor="middle" x="520.08" y="-172" font-family="Helvetica,sans-Serif" font-size="10.00">include/vmem_rw.h</text>
</a>
</g>
</g>
<!-- Node8&#45;&gt;Node15 -->
<g id="edge26" class="edge">
<title>Node8&#45;&gt;Node15</title>
<path fill="none" stroke="#63b8ff" d="M305.98,-217.84C355.53,-208.04 428.16,-193.68 474.79,-184.46"/>
<polygon fill="#63b8ff" stroke="#63b8ff" points="305.46,-214.38 296.33,-219.75 306.82,-221.24 305.46,-214.38"/>
</g>
<!-- Node10 -->
<g id="node10" class="node">
<title>Node10</title>
<g id="a_node10"><a xlink:href="bmem__rd_8h.html" target="_top" xlink:title="Stream like access functions for Banked Memory.">
<polygon fill="white" stroke="#666666" points="490.08,-129 392.08,-129 392.08,-110 490.08,-110 490.08,-129"/>
<text text-anchor="middle" x="441.08" y="-117" font-family="Helvetica,sans-Serif" font-size="10.00">include/bmem_rd.h</text>
</a>
</g>
</g>
<!-- Node9&#45;&gt;Node10 -->
<g id="edge13" class="edge">
<title>Node9&#45;&gt;Node10</title>
<path fill="none" stroke="#63b8ff" d="M420.21,-155.08C425.45,-146.4 431.46,-136.44 435.68,-129.44"/>
<polygon fill="#63b8ff" stroke="#63b8ff" points="417.32,-153.08 415.15,-163.45 423.32,-156.7 417.32,-153.08"/>
</g>
<!-- Node12 -->
<g id="node12" class="node">
<title>Node12</title>
<g id="a_node12"><a xlink:href="resources_8h.html" target="_top" xlink:title="Data types and functions for accessing embedded resources.">
<polygon fill="white" stroke="#666666" points="609.58,-129 508.58,-129 508.58,-110 609.58,-110 609.58,-129"/>
<text text-anchor="middle" x="559.08" y="-117" font-family="Helvetica,sans-Serif" font-size="10.00">include/resources.h</text>
</a>
</g>
</g>
<!-- Node9&#45;&gt;Node12 -->
<g id="edge15" class="edge">
<title>Node9&#45;&gt;Node12</title>
<path fill="none" stroke="#63b8ff" d="M445.24,-160.73C472.6,-151.06 509.49,-138.02 533.76,-129.45"/>
<polygon fill="#63b8ff" stroke="#63b8ff" points="444.22,-157.37 435.96,-164.01 446.55,-163.97 444.22,-157.37"/>
</g>
<!-- Node11 -->
<g id="node11" class="node">
<title>Node11</title>
<g id="a_node11"><a xlink:href="xmem_8h.html" target="_top" xlink:title="Inter&#45;memory transfer functions for ROM / RAM, VRAM, and Banked Memory (MegaROM).">
<polygon fill="white" stroke="#666666" points="658.08,-74 574.08,-74 574.08,-55 658.08,-55 658.08,-74"/>
<text text-anchor="middle" x="616.08" y="-62" font-family="Helvetica,sans-Serif" font-size="10.00">include/xmem.h</text>
</a>
</g>
</g>
<!-- Node10&#45;&gt;Node11 -->
<g id="edge14" class="edge">
<title>Node10&#45;&gt;Node11</title>
<path fill="none" stroke="#63b8ff" d="M481.57,-106.24C513.65,-96.52 557.72,-83.18 586.54,-74.45"/>
<polygon fill="#63b8ff" stroke="#63b8ff" points="480.78,-102.82 472.22,-109.07 482.8,-109.52 480.78,-102.82"/>
</g>
<!-- Node13&#45;&gt;Node2 -->
<g id="edge20" class="edge">
<title>Node13&#45;&gt;Node2</title>
<path fill="none" stroke="#63b8ff" d="M310.75,-101.08C317.15,-93.24 324.19,-83.61 329.08,-74 338.49,-55.55 344.06,-31.65 346.54,-19.09"/>
<polygon fill="#63b8ff" stroke="#63b8ff" points="308.27,-98.6 304.42,-108.47 313.58,-103.15 308.27,-98.6"/>
</g>
<!-- Node13&#45;&gt;Node6 -->
<g id="edge19" class="edge">
<title>Node13&#45;&gt;Node6</title>
<path fill="none" stroke="#63b8ff" d="M285.41,-99.5C281.05,-90.96 276.12,-81.28 272.64,-74.44"/>
<polygon fill="#63b8ff" stroke="#63b8ff" points="282.28,-101.08 289.94,-108.4 288.52,-97.9 282.28,-101.08"/>
</g>
<!-- Node13&#45;&gt;Node14 -->
<g id="edge21" class="edge">
<title>Node13&#45;&gt;Node14</title>
<path fill="none" stroke="#63b8ff" d="M328.65,-105.32C353.25,-95.67 385.98,-82.82 407.52,-74.36"/>
<polygon fill="#63b8ff" stroke="#63b8ff" points="327.42,-102.04 319.39,-108.96 329.98,-108.56 327.42,-102.04"/>
</g>
<!-- Node14&#45;&gt;Node2 -->
<g id="edge22" class="edge">
<title>Node14&#45;&gt;Node2</title>
<path fill="none" stroke="#63b8ff" d="M406.81,-48.46C392.27,-39.06 374.05,-27.28 361.79,-19.36"/>
<polygon fill="#63b8ff" stroke="#63b8ff" points="404.6,-51.2 414.9,-53.69 408.4,-45.32 404.6,-51.2"/>
</g>
<!-- Node15&#45;&gt;Node11 -->
<g id="edge27" class="edge">
<title>Node15&#45;&gt;Node11</title>
<path fill="none" stroke="#63b8ff" d="M576.9,-160.62C593.31,-153.98 609.39,-143.99 619.08,-129 629.99,-112.13 623.87,-87.15 619.43,-74.12"/>
<polygon fill="#63b8ff" stroke="#63b8ff" points="575.76,-157.31 567.55,-164 578.15,-163.89 575.76,-157.31"/>
</g>
</g>
</svg>
