<?xml version="1.0" encoding="UTF-8" standalone="no"?>
<!DOCTYPE svg PUBLIC "-//W3C//DTD SVG 1.1//EN"
 "http://www.w3.org/Graphics/SVG/1.1/DTD/svg11.dtd">
<!-- Generated by graphviz version 7.0.4 (20221203.1631)
 -->
<!-- Title: include/io.h Pages: 1 -->
<svg width="637pt" height="302pt"
 viewBox="0.00 0.00 636.69 302.00" xmlns="http://www.w3.org/2000/svg" xmlns:xlink="http://www.w3.org/1999/xlink">
<g id="graph0" class="graph" transform="scale(1 1) rotate(0) translate(4 298)">
<title>include/io.h</title>
<!-- Node1 -->
<g id="node1" class="node">
<title>Node1</title>
<g id="a_node1"><a xlink:title="Definition of I/O ports.">
<polygon fill="#999999" stroke="#666666" points="230.5,-294 165.5,-294 165.5,-275 230.5,-275 230.5,-294"/>
<text text-anchor="middle" x="198" y="-282" font-family="Helvetica,sans-Serif" font-size="10.00">include/io.h</text>
</a>
</g>
</g>
<!-- Node2 -->
<g id="node2" class="node">
<title>Node2</title>
<g id="a_node2"><a xlink:href="msx_8h.html" target="_top" xlink:title="Using #include &lt;msx.h&gt; includes almost all C header files in libmsx, for ease to use.">
<polygon fill="white" stroke="#666666" points="427,-19 351,-19 351,0 427,0 427,-19"/>
<text text-anchor="middle" x="389" y="-7" font-family="Helvetica,sans-Serif" font-size="10.00">include/msx.h</text>
</a>
</g>
</g>
<!-- Node1&#45;&gt;Node2 -->
<g id="edge1" class="edge">
<title>Node1&#45;&gt;Node2</title>
<path fill="none" stroke="#63b8ff" d="M154.18,-278.96C95.86,-270.22 0,-245.25 0,-175.5 0,-175.5 0,-175.5 0,-118.5 0,-46.22 252.5,-20.3 350.64,-12.96"/>
<polygon fill="#63b8ff" stroke="#63b8ff" points="153.42,-282.39 163.81,-280.29 154.38,-275.45 153.42,-282.39"/>
</g>
<!-- Node3 -->
<g id="node3" class="node">
<title>Node3</title>
<g id="a_node3"><a xlink:href="psg_8h.html" target="_top" xlink:title="Device interface for PSG (AY&#45;3&#45;8910) an internal sound chip.">
<polygon fill="white" stroke="#666666" points="170,-239 96,-239 96,-220 170,-220 170,-239"/>
<text text-anchor="middle" x="133" y="-227" font-family="Helvetica,sans-Serif" font-size="10.00">include/psg.h</text>
</a>
</g>
</g>
<!-- Node1&#45;&gt;Node3 -->
<g id="edge2" class="edge">
<title>Node1&#45;&gt;Node3</title>
<path fill="none" stroke="#63b8ff" d="M178.21,-267.37C166.92,-258.16 153.21,-246.98 143.86,-239.36"/>
<polygon fill="#63b8ff" stroke="#63b8ff" points="175.84,-269.95 185.8,-273.55 180.26,-264.52 175.84,-269.95"/>
</g>
<!-- Node5 -->
<g id="node5" class="node">
<title>Node5</title>
<g id="a_node5"><a xlink:href="vdp_8h.html" target="_top" xlink:title="Data types and functions for VDP (Video Display Proccessor) access.">
<polygon fill="white" stroke="#666666" points="346,-129 272,-129 272,-110 346,-110 346,-129"/>
<text text-anchor="middle" x="309" y="-117" font-family="Helvetica,sans-Serif" font-size="10.00">include/vdp.h</text>
</a>
</g>
</g>
<!-- Node1&#45;&gt;Node5 -->
<g id="edge5" class="edge">
<title>Node1&#45;&gt;Node5</title>
<path fill="none" stroke="#63b8ff" d="M195.91,-263.27C194.37,-237.8 195.5,-193.9 217,-165 230.34,-147.06 252.84,-136 272.25,-129.4"/>
<polygon fill="#63b8ff" stroke="#63b8ff" points="192.42,-263.54 196.73,-273.22 199.39,-262.97 192.42,-263.54"/>
</g>
<!-- Node7 -->
<g id="node7" class="node">
<title>Node7</title>
<g id="a_node7"><a xlink:href="vdp__unsafe_8h.html" target="_top" xlink:title="Unsafe primitive functions for VDP (Video Display Proccessor) access.">
<polygon fill="white" stroke="#666666" points="334,-184 226,-184 226,-165 334,-165 334,-184"/>
<text text-anchor="middle" x="280" y="-172" font-family="Helvetica,sans-Serif" font-size="10.00">include/vdp_unsafe.h</text>
</a>
</g>
</g>
<!-- Node1&#45;&gt;Node7 -->
<g id="edge9" class="edge">
<title>Node1&#45;&gt;Node7</title>
<path fill="none" stroke="#63b8ff" d="M211.67,-265.49C229.42,-242.11 259.72,-202.2 273.2,-184.46"/>
<polygon fill="#63b8ff" stroke="#63b8ff" points="208.89,-263.38 205.63,-273.46 214.46,-267.61 208.89,-263.38"/>
</g>
<!-- Node8 -->
<g id="node8" class="node">
<title>Node8</title>
<g id="a_node8"><a xlink:href="vmem_8h.html" target="_top" xlink:title="Data types and functions for VRAM access.">
<polygon fill="white" stroke="#666666" points="510.5,-239 425.5,-239 425.5,-220 510.5,-220 510.5,-239"/>
<text text-anchor="middle" x="468" y="-227" font-family="Helvetica,sans-Serif" font-size="10.00">include/vmem.h</text>
</a>
</g>
</g>
<!-- Node1&#45;&gt;Node8 -->
<g id="edge11" class="edge">
<title>Node1&#45;&gt;Node8</title>
<path fill="none" stroke="#63b8ff" d="M242.05,-274.85C292.65,-264.92 375.1,-248.74 425.18,-238.91"/>
<polygon fill="#63b8ff" stroke="#63b8ff" points="241.46,-271.4 232.32,-276.76 242.81,-278.27 241.46,-271.4"/>
</g>
<!-- Node3&#45;&gt;Node2 -->
<g id="edge4" class="edge">
<title>Node3&#45;&gt;Node2</title>
<path fill="none" stroke="#63b8ff" d="M148.36,-211.36C178.24,-178.6 247.13,-105.82 314,-55 332.56,-40.89 355.93,-27.65 371.61,-19.34"/>
<polygon fill="#63b8ff" stroke="#63b8ff" points="145.82,-208.95 141.71,-218.71 151.01,-213.65 145.82,-208.95"/>
</g>
<!-- Node4 -->
<g id="node4" class="node">
<title>Node4</title>
<g id="a_node4"><a xlink:href="ay__3__8910_8h.html" target="_top" xlink:title="Buffer for PSG (AY&#45;3&#45;8910) registers.">
<polygon fill="white" stroke="#666666" points="132,-184 28,-184 28,-165 132,-165 132,-184"/>
<text text-anchor="middle" x="80" y="-172" font-family="Helvetica,sans-Serif" font-size="10.00">include/ay_3_8910.h</text>
</a>
</g>
</g>
<!-- Node3&#45;&gt;Node4 -->
<g id="edge3" class="edge">
<title>Node3&#45;&gt;Node4</title>
<path fill="none" stroke="#63b8ff" d="M116.28,-211.78C107.22,-202.72 96.4,-191.9 88.94,-184.44"/>
<polygon fill="#63b8ff" stroke="#63b8ff" points="113.63,-214.08 123.18,-218.68 118.58,-209.13 113.63,-214.08"/>
</g>
<!-- Node5&#45;&gt;Node2 -->
<g id="edge8" class="edge">
<title>Node5&#45;&gt;Node2</title>
<path fill="none" stroke="#63b8ff" d="M311.63,-98.26C314.14,-85 318.94,-67.81 328,-55 339.05,-39.37 357.34,-27.1 371.01,-19.43"/>
<polygon fill="#63b8ff" stroke="#63b8ff" points="308.19,-97.59 310.1,-108.01 315.11,-98.67 308.19,-97.59"/>
</g>
<!-- Node6 -->
<g id="node6" class="node">
<title>Node6</title>
<g id="a_node6"><a xlink:href="metasprite_8h.html" target="_top" xlink:title="Meta&#45;sprite ; an aggregate of sprites.">
<polygon fill="white" stroke="#666666" points="441,-74 337,-74 337,-55 441,-55 441,-74"/>
<text text-anchor="middle" x="389" y="-62" font-family="Helvetica,sans-Serif" font-size="10.00">include/metasprite.h</text>
</a>
</g>
</g>
<!-- Node5&#45;&gt;Node6 -->
<g id="edge6" class="edge">
<title>Node5&#45;&gt;Node6</title>
<path fill="none" stroke="#63b8ff" d="M332.11,-103.19C346.23,-93.84 363.78,-82.21 375.63,-74.36"/>
<polygon fill="#63b8ff" stroke="#63b8ff" points="330.24,-100.23 323.83,-108.67 334.1,-106.07 330.24,-100.23"/>
</g>
<!-- Node6&#45;&gt;Node2 -->
<g id="edge7" class="edge">
<title>Node6&#45;&gt;Node2</title>
<path fill="none" stroke="#63b8ff" d="M389,-43.35C389,-35.1 389,-25.97 389,-19.44"/>
<polygon fill="#63b8ff" stroke="#63b8ff" points="385.5,-43.23 389,-53.23 392.5,-43.23 385.5,-43.23"/>
</g>
<!-- Node7&#45;&gt;Node5 -->
<g id="edge10" class="edge">
<title>Node7&#45;&gt;Node5</title>
<path fill="none" stroke="#63b8ff" d="M290.24,-154.79C294.95,-146.18 300.32,-136.36 304.11,-129.44"/>
<polygon fill="#63b8ff" stroke="#63b8ff" points="287.25,-152.97 285.52,-163.42 293.39,-156.33 287.25,-152.97"/>
</g>
<!-- Node8&#45;&gt;Node2 -->
<g id="edge14" class="edge">
<title>Node8&#45;&gt;Node2</title>
<path fill="none" stroke="#63b8ff" d="M507.87,-215.54C525.41,-208.35 545.32,-197.98 560,-184 605.01,-141.14 653.46,-103.02 614,-55 590.81,-26.77 485.26,-16.15 427.34,-12.39"/>
<polygon fill="#63b8ff" stroke="#63b8ff" points="506.8,-212.2 498.73,-219.07 509.32,-218.73 506.8,-212.2"/>
</g>
<!-- Node8&#45;&gt;Node5 -->
<g id="edge21" class="edge">
<title>Node8&#45;&gt;Node5</title>
<path fill="none" stroke="#63b8ff" d="M437.02,-214.68C420.19,-206.64 399.34,-195.78 382,-184 356.99,-167.01 331.06,-142.52 317.87,-129.47"/>
<polygon fill="#63b8ff" stroke="#63b8ff" points="435.5,-217.84 446.05,-218.9 438.47,-211.5 435.5,-217.84"/>
</g>
<!-- Node8&#45;&gt;Node6 -->
<g id="edge13" class="edge">
<title>Node8&#45;&gt;Node6</title>
<path fill="none" stroke="#63b8ff" d="M479.31,-209.68C485.52,-196.83 490.88,-179.57 485,-165 468.28,-123.6 425.18,-89.83 402.86,-74.46"/>
<polygon fill="#63b8ff" stroke="#63b8ff" points="476.31,-207.87 474.61,-218.32 482.46,-211.21 476.31,-207.87"/>
</g>
<!-- Node8&#45;&gt;Node7 -->
<g id="edge22" class="edge">
<title>Node8&#45;&gt;Node7</title>
<path fill="none" stroke="#63b8ff" d="M425.4,-216.49C390.87,-206.76 342.97,-193.25 311.73,-184.45"/>
<polygon fill="#63b8ff" stroke="#63b8ff" points="424.08,-219.75 434.65,-219.1 425.98,-213.02 424.08,-219.75"/>
</g>
<!-- Node9 -->
<g id="node9" class="node">
<title>Node9</title>
<g id="a_node9"><a xlink:href="bmem_8h.html" target="_top" xlink:title="Data types and functions for accessing banked memory.">
<polygon fill="white" stroke="#666666" points="475.5,-184 390.5,-184 390.5,-165 475.5,-165 475.5,-184"/>
<text text-anchor="middle" x="433" y="-172" font-family="Helvetica,sans-Serif" font-size="10.00">include/bmem.h</text>
</a>
</g>
</g>
<!-- Node8&#45;&gt;Node9 -->
<g id="edge12" class="edge">
<title>Node8&#45;&gt;Node9</title>
<path fill="none" stroke="#63b8ff" d="M456.02,-210.36C450.25,-201.62 443.57,-191.51 438.91,-184.44"/>
<polygon fill="#63b8ff" stroke="#63b8ff" points="452.96,-212.07 461.39,-218.49 458.8,-208.21 452.96,-212.07"/>
</g>
<!-- Node10 -->
<g id="node10" class="node">
<title>Node10</title>
<g id="a_node10"><a xlink:href="sprite_8h.html" target="_top" xlink:title="Sprites.">
<polygon fill="white" stroke="#666666" points="567,-129 485,-129 485,-110 567,-110 567,-129"/>
<text text-anchor="middle" x="526" y="-117" font-family="Helvetica,sans-Serif" font-size="10.00">include/sprite.h</text>
</a>
</g>
</g>
<!-- Node8&#45;&gt;Node10 -->
<g id="edge15" class="edge">
<title>Node8&#45;&gt;Node10</title>
<path fill="none" stroke="#63b8ff" d="M492.17,-212.83C501.79,-205.3 511.99,-195.41 518,-184 527.31,-166.3 527.49,-142.1 526.77,-129.29"/>
<polygon fill="#63b8ff" stroke="#63b8ff" points="490.17,-209.95 484.14,-218.66 494.29,-215.62 490.17,-209.95"/>
</g>
<!-- Node11 -->
<g id="node11" class="node">
<title>Node11</title>
<g id="a_node11"><a xlink:href="sprite__color_8h.html" target="_top" xlink:title="Sprite color table interface.">
<polygon fill="white" stroke="#666666" points="605,-74 497,-74 497,-55 605,-55 605,-74"/>
<text text-anchor="middle" x="551" y="-62" font-family="Helvetica,sans-Serif" font-size="10.00">include/sprite_color.h</text>
</a>
</g>
</g>
<!-- Node8&#45;&gt;Node11 -->
<g id="edge20" class="edge">
<title>Node8&#45;&gt;Node11</title>
<path fill="none" stroke="#63b8ff" d="M495.59,-214.04C523.07,-197.73 562.97,-168.27 576,-129 582.57,-109.21 568.29,-86.62 558.72,-74.43"/>
<polygon fill="#63b8ff" stroke="#63b8ff" points="494.03,-210.91 487.07,-218.9 497.49,-216.99 494.03,-210.91"/>
</g>
<!-- Node10&#45;&gt;Node2 -->
<g id="edge17" class="edge">
<title>Node10&#45;&gt;Node2</title>
<path fill="none" stroke="#63b8ff" d="M507.36,-102.34C492.14,-89.29 469.97,-70.6 450,-55 433.68,-42.25 414.27,-28.29 401.8,-19.47"/>
<polygon fill="#63b8ff" stroke="#63b8ff" points="504.84,-104.79 514.7,-108.67 509.41,-99.49 504.84,-104.79"/>
</g>
<!-- Node10&#45;&gt;Node6 -->
<g id="edge16" class="edge">
<title>Node10&#45;&gt;Node6</title>
<path fill="none" stroke="#63b8ff" d="M492.28,-105.45C467.27,-95.78 433.86,-82.85 411.9,-74.36"/>
<polygon fill="#63b8ff" stroke="#63b8ff" points="490.76,-108.62 501.35,-108.96 493.28,-102.09 490.76,-108.62"/>
</g>
<!-- Node10&#45;&gt;Node11 -->
<g id="edge18" class="edge">
<title>Node10&#45;&gt;Node11</title>
<path fill="none" stroke="#63b8ff" d="M534.96,-99.5C538.99,-90.96 543.56,-81.28 546.78,-74.44"/>
<polygon fill="#63b8ff" stroke="#63b8ff" points="531.87,-97.84 530.77,-108.38 538.21,-100.83 531.87,-97.84"/>
</g>
<!-- Node11&#45;&gt;Node2 -->
<g id="edge19" class="edge">
<title>Node11&#45;&gt;Node2</title>
<path fill="none" stroke="#63b8ff" d="M512.74,-50.98C483.11,-41.29 442.79,-28.1 416.35,-19.45"/>
<polygon fill="#63b8ff" stroke="#63b8ff" points="511.49,-54.26 522.08,-54.04 513.66,-47.6 511.49,-54.26"/>
</g>
</g>
</svg>
