<?xml version="1.0" encoding="UTF-8" standalone="no"?>
<!DOCTYPE svg PUBLIC "-//W3C//DTD SVG 1.1//EN"
 "http://www.w3.org/Graphics/SVG/1.1/DTD/svg11.dtd">
<!-- Generated by graphviz version 12.2.0 (20241103.1931)
 -->
<!-- Title: include/io.h Pages: 1 -->
<svg width="1160pt" height="304pt"
 viewBox="0.00 0.00 1160.38 303.50" xmlns="http://www.w3.org/2000/svg" xmlns:xlink="http://www.w3.org/1999/xlink">
<g id="graph0" class="graph" transform="scale(1 1) rotate(0) translate(4 299.5)">
<title>include/io.h</title>
<!-- Node1 -->
<g id="Node000001" class="node">
<title>Node1</title>
<g id="a_Node000001"><a xlink:title="Definition of I/O ports.">
<polygon fill="#999999" stroke="#666666" points="986.75,-295.5 922,-295.5 922,-276.25 986.75,-276.25 986.75,-295.5"/>
<text text-anchor="middle" x="954.38" y="-282" font-family="Helvetica,sans-Serif" font-size="10.00">include/io.h</text>
</a>
</g>
</g>
<!-- Node2 -->
<g id="Node000002" class="node">
<title>Node2</title>
<g id="a_Node000002"><a xlink:href="msx_8h.html" target="_top" xlink:title="Using #include &lt;msx.h&gt; includes almost all C header files in libmsx, for ease to use.">
<polygon fill="white" stroke="#666666" points="912,-19.25 836.75,-19.25 836.75,0 912,0 912,-19.25"/>
<text text-anchor="middle" x="874.38" y="-5.75" font-family="Helvetica,sans-Serif" font-size="10.00">include/msx.h</text>
</a>
</g>
</g>
<!-- Node1&#45;&gt;Node2 -->
<g id="edge1_Node000001_Node000002" class="edge">
<title>Node1&#45;&gt;Node2</title>
<g id="a_edge1_Node000001_Node000002"><a xlink:title=" ">
<path fill="none" stroke="#63b8ff" d="M998.19,-280.25C1056.52,-271.38 1152.38,-246.2 1152.38,-176.38 1152.38,-176.38 1152.38,-176.38 1152.38,-119.12 1152.38,-68.22 988.58,-31.54 912.45,-17.23"/>
<polygon fill="#63b8ff" stroke="#63b8ff" points="997.99,-276.74 988.57,-281.6 998.96,-283.67 997.99,-276.74"/>
</a>
</g>
</g>
<!-- Node3 -->
<g id="Node000003" class="node">
<title>Node3</title>
<g id="a_Node000003"><a xlink:href="psg_8h.html" target="_top" xlink:title="Device interface for PSG (AY&#45;3&#45;8910) an internal sound chip.">
<polygon fill="white" stroke="#666666" points="1070.88,-240.25 997.88,-240.25 997.88,-221 1070.88,-221 1070.88,-240.25"/>
<text text-anchor="middle" x="1034.38" y="-226.75" font-family="Helvetica,sans-Serif" font-size="10.00">include/psg.h</text>
</a>
</g>
</g>
<!-- Node1&#45;&gt;Node3 -->
<g id="edge2_Node000001_Node000003" class="edge">
<title>Node1&#45;&gt;Node3</title>
<g id="a_edge2_Node000001_Node000003"><a xlink:title=" ">
<path fill="none" stroke="#63b8ff" d="M977.43,-269.53C991.45,-260.2 1008.88,-248.6 1020.74,-240.7"/>
<polygon fill="#63b8ff" stroke="#63b8ff" points="975.59,-266.55 969.21,-275 979.47,-272.38 975.59,-266.55"/>
</a>
</g>
</g>
<!-- Node5 -->
<g id="Node000005" class="node">
<title>Node5</title>
<g id="a_Node000005"><a xlink:href="vdp_8h.html" target="_top" xlink:title="Data types and functions for VDP (Video Display Proccessor) access.">
<polygon fill="white" stroke="#666666" points="990.88,-129.75 917.88,-129.75 917.88,-110.5 990.88,-110.5 990.88,-129.75"/>
<text text-anchor="middle" x="954.38" y="-116.25" font-family="Helvetica,sans-Serif" font-size="10.00">include/vdp.h</text>
</a>
</g>
</g>
<!-- Node1&#45;&gt;Node5 -->
<g id="edge5_Node000001_Node000005" class="edge">
<title>Node1&#45;&gt;Node5</title>
<g id="a_edge5_Node000001_Node000005"><a xlink:title=" ">
<path fill="none" stroke="#63b8ff" d="M954.38,-264.72C954.38,-228.86 954.38,-155.35 954.38,-129.97"/>
<polygon fill="#63b8ff" stroke="#63b8ff" points="950.88,-264.56 954.38,-274.56 957.88,-264.56 950.88,-264.56"/>
</a>
</g>
</g>
<!-- Node7 -->
<g id="Node000007" class="node">
<title>Node7</title>
<g id="a_Node000007"><a xlink:href="vdp__unsafe_8h.html" target="_top" xlink:title="Unsafe primitive functions for VDP (Video Display Proccessor) access.">
<polygon fill="white" stroke="#666666" points="926.12,-185 818.62,-185 818.62,-165.75 926.12,-165.75 926.12,-185"/>
<text text-anchor="middle" x="872.38" y="-171.5" font-family="Helvetica,sans-Serif" font-size="10.00">include/vdp_unsafe.h</text>
</a>
</g>
</g>
<!-- Node1&#45;&gt;Node7 -->
<g id="edge9_Node000001_Node000007" class="edge">
<title>Node1&#45;&gt;Node7</title>
<g id="a_edge9_Node000001_Node000007"><a xlink:title=" ">
<path fill="none" stroke="#63b8ff" d="M940.94,-267.1C923.22,-243.66 892.71,-203.28 879.18,-185.38"/>
<polygon fill="#63b8ff" stroke="#63b8ff" points="937.93,-268.92 946.75,-274.79 943.51,-264.7 937.93,-268.92"/>
</a>
</g>
</g>
<!-- Node8 -->
<g id="Node000008" class="node">
<title>Node8</title>
<g id="a_Node000008"><a xlink:href="vmem_8h.html" target="_top" xlink:title="Data types and functions for VRAM access.">
<polygon fill="white" stroke="#666666" points="620.5,-240.25 536.25,-240.25 536.25,-221 620.5,-221 620.5,-240.25"/>
<text text-anchor="middle" x="578.38" y="-226.75" font-family="Helvetica,sans-Serif" font-size="10.00">include/vmem.h</text>
</a>
</g>
</g>
<!-- Node1&#45;&gt;Node8 -->
<g id="edge11_Node000001_Node000008" class="edge">
<title>Node1&#45;&gt;Node8</title>
<g id="a_edge11_Node000001_Node000008"><a xlink:title=" ">
<path fill="none" stroke="#63b8ff" d="M910.63,-278.68C837.87,-268.38 692.89,-247.84 620.93,-237.65"/>
<polygon fill="#63b8ff" stroke="#63b8ff" points="909.77,-282.09 920.17,-280.03 910.76,-275.16 909.77,-282.09"/>
</a>
</g>
</g>
<!-- Node3&#45;&gt;Node2 -->
<g id="edge4_Node000003_Node000002" class="edge">
<title>Node3&#45;&gt;Node2</title>
<g id="a_edge4_Node000003_Node000002"><a xlink:title=" ">
<path fill="none" stroke="#63b8ff" d="M1064.5,-215.18C1084.37,-203.47 1105.08,-185.68 1095.38,-165.75 1055.98,-84.83 951.37,-38.03 901.52,-19.69"/>
<polygon fill="#63b8ff" stroke="#63b8ff" points="1063.07,-211.98 1055.98,-219.85 1066.43,-218.12 1063.07,-211.98"/>
</a>
</g>
</g>
<!-- Node4 -->
<g id="Node000004" class="node">
<title>Node4</title>
<g id="a_Node000004"><a xlink:href="ay__3__8910_8h.html" target="_top" xlink:title="Buffer for PSG (AY&#45;3&#45;8910) registers.">
<polygon fill="white" stroke="#666666" points="1086.25,-185 982.5,-185 982.5,-165.75 1086.25,-165.75 1086.25,-185"/>
<text text-anchor="middle" x="1034.38" y="-171.5" font-family="Helvetica,sans-Serif" font-size="10.00">include/ay_3_8910.h</text>
</a>
</g>
</g>
<!-- Node3&#45;&gt;Node4 -->
<g id="edge3_Node000003_Node000004" class="edge">
<title>Node3&#45;&gt;Node4</title>
<g id="a_edge3_Node000003_Node000004"><a xlink:title=" ">
<path fill="none" stroke="#63b8ff" d="M1034.38,-209.38C1034.38,-201.09 1034.38,-191.92 1034.38,-185.36"/>
<polygon fill="#63b8ff" stroke="#63b8ff" points="1030.88,-209.32 1034.38,-219.32 1037.88,-209.32 1030.88,-209.32"/>
</a>
</g>
</g>
<!-- Node5&#45;&gt;Node2 -->
<g id="edge8_Node000005_Node000002" class="edge">
<title>Node5&#45;&gt;Node2</title>
<g id="a_edge8_Node000005_Node000002"><a xlink:title=" ">
<path fill="none" stroke="#63b8ff" d="M951.76,-98.77C949.27,-85.44 944.47,-68.15 935.38,-55.25 924.41,-39.7 906.3,-27.45 892.65,-19.75"/>
<polygon fill="#63b8ff" stroke="#63b8ff" points="948.29,-99.24 953.29,-108.58 955.21,-98.16 948.29,-99.24"/>
</a>
</g>
</g>
<!-- Node6 -->
<g id="Node000006" class="node">
<title>Node6</title>
<g id="a_Node000006"><a xlink:href="metasprite_8h.html" target="_top" xlink:title="Meta&#45;sprite ; an aggregate of sprites.">
<polygon fill="white" stroke="#666666" points="925.88,-74.5 822.88,-74.5 822.88,-55.25 925.88,-55.25 925.88,-74.5"/>
<text text-anchor="middle" x="874.38" y="-61" font-family="Helvetica,sans-Serif" font-size="10.00">include/metasprite.h</text>
</a>
</g>
</g>
<!-- Node5&#45;&gt;Node6 -->
<g id="edge6_Node000005_Node000006" class="edge">
<title>Node5&#45;&gt;Node6</title>
<g id="a_edge6_Node000005_Node000006"><a xlink:title=" ">
<path fill="none" stroke="#63b8ff" d="M931.32,-103.78C917.3,-94.45 899.87,-82.85 888.01,-74.95"/>
<polygon fill="#63b8ff" stroke="#63b8ff" points="929.28,-106.63 939.54,-109.25 933.16,-100.8 929.28,-106.63"/>
</a>
</g>
</g>
<!-- Node6&#45;&gt;Node2 -->
<g id="edge7_Node000006_Node000002" class="edge">
<title>Node6&#45;&gt;Node2</title>
<g id="a_edge7_Node000006_Node000002"><a xlink:title=" ">
<path fill="none" stroke="#63b8ff" d="M874.38,-43.63C874.38,-35.34 874.38,-26.17 874.38,-19.61"/>
<polygon fill="#63b8ff" stroke="#63b8ff" points="870.88,-43.57 874.38,-53.57 877.88,-43.57 870.88,-43.57"/>
</a>
</g>
</g>
<!-- Node7&#45;&gt;Node5 -->
<g id="edge10_Node000007_Node000005" class="edge">
<title>Node7&#45;&gt;Node5</title>
<g id="a_edge10_Node000007_Node000005"><a xlink:title=" ">
<path fill="none" stroke="#63b8ff" d="M895.58,-159.3C910.03,-149.92 928.12,-138.17 940.4,-130.2"/>
<polygon fill="#63b8ff" stroke="#63b8ff" points="894.04,-156.14 887.55,-164.52 897.85,-162.01 894.04,-156.14"/>
</a>
</g>
</g>
<!-- Node8&#45;&gt;Node2 -->
<g id="edge23_Node000008_Node000002" class="edge">
<title>Node8&#45;&gt;Node2</title>
<g id="a_edge23_Node000008_Node000002"><a xlink:title=" ">
<path fill="none" stroke="#63b8ff" d="M524.77,-227.29C458.09,-223.23 349.56,-212.5 321.38,-185 279.51,-144.15 259.65,-98.18 299.38,-55.25 335.8,-15.89 714,-11.15 836.39,-10.66"/>
<polygon fill="#63b8ff" stroke="#63b8ff" points="524.2,-230.76 534.39,-227.84 524.61,-223.77 524.2,-230.76"/>
</a>
</g>
</g>
<!-- Node8&#45;&gt;Node5 -->
<g id="edge35_Node000008_Node000005" class="edge">
<title>Node8&#45;&gt;Node5</title>
<g id="a_edge35_Node000008_Node000005"><a xlink:title=" ">
<path fill="none" stroke="#63b8ff" d="M631.67,-219.76C669.72,-212.04 721.85,-200.1 766.38,-185 786.2,-178.27 789.78,-173.12 809.38,-165.75 846.97,-151.61 891.23,-138.48 920.87,-130.18"/>
<polygon fill="#63b8ff" stroke="#63b8ff" points="631.44,-216.24 622.31,-221.62 632.8,-223.1 631.44,-216.24"/>
</a>
</g>
</g>
<!-- Node8&#45;&gt;Node6 -->
<g id="edge22_Node000008_Node000006" class="edge">
<title>Node8&#45;&gt;Node6</title>
<g id="a_edge22_Node000008_Node000006"><a xlink:title=" ">
<path fill="none" stroke="#63b8ff" d="M615.89,-216.87C694.61,-190.09 869.87,-130.41 870.38,-129.75 882.64,-113.67 879.49,-88.17 876.64,-74.77"/>
<polygon fill="#63b8ff" stroke="#63b8ff" points="614.78,-213.55 606.44,-220.08 617.03,-220.18 614.78,-213.55"/>
</a>
</g>
</g>
<!-- Node8&#45;&gt;Node7 -->
<g id="edge36_Node000008_Node000007" class="edge">
<title>Node8&#45;&gt;Node7</title>
<g id="a_edge36_Node000008_Node000007"><a xlink:title=" ">
<path fill="none" stroke="#63b8ff" d="M631.91,-219.93C686.05,-210.12 769.11,-195.08 822.07,-185.49"/>
<polygon fill="#63b8ff" stroke="#63b8ff" points="631.52,-216.44 622.3,-221.67 632.76,-223.33 631.52,-216.44"/>
</a>
</g>
</g>
<!-- Node9 -->
<g id="Node000009" class="node">
<title>Node9</title>
<g id="a_Node000009"><a xlink:href="ZX0__decompress_8h.html" target="_top" xlink:title="Decompressor of the ZX0 data compression format version 2.">
<polygon fill="white" stroke="#666666" points="861.25,-129.75 727.5,-129.75 727.5,-110.5 861.25,-110.5 861.25,-129.75"/>
<text text-anchor="middle" x="794.38" y="-116.25" font-family="Helvetica,sans-Serif" font-size="10.00">include/ZX0_decompress.h</text>
</a>
</g>
</g>
<!-- Node8&#45;&gt;Node9 -->
<g id="edge12_Node000008_Node000009" class="edge">
<title>Node8&#45;&gt;Node9</title>
<g id="a_edge12_Node000008_Node000009"><a xlink:title=" ">
<path fill="none" stroke="#63b8ff" d="M606.66,-215.41C651.73,-192.78 738.58,-149.15 776.23,-130.24"/>
<polygon fill="#63b8ff" stroke="#63b8ff" points="605.14,-212.27 597.77,-219.88 608.28,-218.52 605.14,-212.27"/>
</a>
</g>
</g>
<!-- Node10 -->
<g id="Node000010" class="node">
<title>Node10</title>
<g id="a_Node000010"><a xlink:href="bmem_8h.html" target="_top" xlink:title="Data types and functions for accessing banked memory.">
<polygon fill="white" stroke="#666666" points="620.5,-185 536.25,-185 536.25,-165.75 620.5,-165.75 620.5,-185"/>
<text text-anchor="middle" x="578.38" y="-171.5" font-family="Helvetica,sans-Serif" font-size="10.00">include/bmem.h</text>
</a>
</g>
</g>
<!-- Node8&#45;&gt;Node10 -->
<g id="edge13_Node000008_Node000010" class="edge">
<title>Node8&#45;&gt;Node10</title>
<g id="a_edge13_Node000008_Node000010"><a xlink:title=" ">
<path fill="none" stroke="#63b8ff" d="M578.38,-209.38C578.38,-201.09 578.38,-191.92 578.38,-185.36"/>
<polygon fill="#63b8ff" stroke="#63b8ff" points="574.88,-209.32 578.38,-219.32 581.88,-209.32 574.88,-209.32"/>
</a>
</g>
</g>
<!-- Node18 -->
<g id="Node000018" class="node">
<title>Node18</title>
<g id="a_Node000018"><a xlink:href="sm2__cfg_8h.html" target="_top" xlink:title="SM2 (Sprite Mode 2) Runtime configuration.">
<polygon fill="white" stroke="#666666" points="94.75,-185 0,-185 0,-165.75 94.75,-165.75 94.75,-185"/>
<text text-anchor="middle" x="47.38" y="-171.5" font-family="Helvetica,sans-Serif" font-size="10.00">include/sm2_cfg.h</text>
</a>
</g>
</g>
<!-- Node8&#45;&gt;Node18 -->
<g id="edge24_Node000008_Node000018" class="edge">
<title>Node8&#45;&gt;Node18</title>
<g id="a_edge24_Node000008_Node000018"><a xlink:title=" ">
<path fill="none" stroke="#63b8ff" d="M524.59,-224.7C439.13,-216.8 267.06,-200.6 121.38,-185 112.89,-184.09 103.86,-183.08 95.13,-182.07"/>
<polygon fill="#63b8ff" stroke="#63b8ff" points="524.03,-228.16 534.31,-225.6 524.68,-221.19 524.03,-228.16"/>
</a>
</g>
</g>
<!-- Node21 -->
<g id="Node000021" class="node">
<title>Node21</title>
<g id="a_Node000021"><a xlink:href="sprite_8h.html" target="_top" xlink:title="Sprites.">
<polygon fill="white" stroke="#666666" points="252,-185 170.75,-185 170.75,-165.75 252,-165.75 252,-185"/>
<text text-anchor="middle" x="211.38" y="-171.5" font-family="Helvetica,sans-Serif" font-size="10.00">include/sprite.h</text>
</a>
</g>
</g>
<!-- Node8&#45;&gt;Node21 -->
<g id="edge27_Node000008_Node000021" class="edge">
<title>Node8&#45;&gt;Node21</title>
<g id="a_edge27_Node000008_Node000021"><a xlink:title=" ">
<path fill="none" stroke="#63b8ff" d="M524.87,-222.2C462.7,-213.51 357.05,-198.59 266.38,-185 261.79,-184.31 256.99,-183.58 252.21,-182.84"/>
<polygon fill="#63b8ff" stroke="#63b8ff" points="524.07,-225.62 534.46,-223.53 525.04,-218.69 524.07,-225.62"/>
</a>
</g>
</g>
<!-- Node22 -->
<g id="Node000022" class="node">
<title>Node22</title>
<g id="a_Node000022"><a xlink:href="sprite__color_8h.html" target="_top" xlink:title="Sprite color table interface.">
<polygon fill="white" stroke="#666666" points="176.12,-129.75 68.62,-129.75 68.62,-110.5 176.12,-110.5 176.12,-129.75"/>
<text text-anchor="middle" x="122.38" y="-116.25" font-family="Helvetica,sans-Serif" font-size="10.00">include/sprite_color.h</text>
</a>
</g>
</g>
<!-- Node8&#45;&gt;Node22 -->
<g id="edge34_Node000008_Node000022" class="edge">
<title>Node8&#45;&gt;Node22</title>
<g id="a_edge34_Node000008_Node000022"><a xlink:title=" ">
<path fill="none" stroke="#63b8ff" d="M524.58,-229.67C425.86,-228.81 220.48,-222.44 161.38,-185 140.96,-172.07 129.62,-144.21 124.95,-129.94"/>
<polygon fill="#63b8ff" stroke="#63b8ff" points="524.54,-233.17 534.56,-229.74 524.58,-226.17 524.54,-233.17"/>
</a>
</g>
</g>
<!-- Node23 -->
<g id="Node000023" class="node">
<title>Node23</title>
<g id="a_Node000023"><a xlink:href="vmem__rw_8h.html" target="_top" xlink:title="Stream like access functions for VRAM.">
<polygon fill="white" stroke="#666666" points="430.38,-185 330.38,-185 330.38,-165.75 430.38,-165.75 430.38,-185"/>
<text text-anchor="middle" x="380.38" y="-171.5" font-family="Helvetica,sans-Serif" font-size="10.00">include/vmem_rw.h</text>
</a>
</g>
</g>
<!-- Node8&#45;&gt;Node23 -->
<g id="edge37_Node000008_Node000023" class="edge">
<title>Node8&#45;&gt;Node23</title>
<g id="a_edge37_Node000008_Node000023"><a xlink:title=" ">
<path fill="none" stroke="#63b8ff" d="M534.02,-217.7C497.73,-207.94 447.18,-194.34 414.13,-185.45"/>
<polygon fill="#63b8ff" stroke="#63b8ff" points="532.76,-220.98 543.33,-220.2 534.58,-214.22 532.76,-220.98"/>
</a>
</g>
</g>
<!-- Node10&#45;&gt;Node9 -->
<g id="edge14_Node000010_Node000009" class="edge">
<title>Node10&#45;&gt;Node9</title>
<g id="a_edge14_Node000010_Node000009"><a xlink:title=" ">
<path fill="none" stroke="#63b8ff" d="M626,-162.63C665.64,-152.86 721.26,-139.15 757.55,-130.2"/>
<polygon fill="#63b8ff" stroke="#63b8ff" points="625.36,-159.19 616.49,-164.98 627.03,-165.98 625.36,-159.19"/>
</a>
</g>
</g>
<!-- Node11 -->
<g id="Node000011" class="node">
<title>Node11</title>
<g id="a_Node000011"><a xlink:href="bmem__rd_8h.html" target="_top" xlink:title="Stream like access functions for Banked Memory.">
<polygon fill="white" stroke="#666666" points="444.25,-129.75 346.5,-129.75 346.5,-110.5 444.25,-110.5 444.25,-129.75"/>
<text text-anchor="middle" x="395.38" y="-116.25" font-family="Helvetica,sans-Serif" font-size="10.00">include/bmem_rd.h</text>
</a>
</g>
</g>
<!-- Node10&#45;&gt;Node11 -->
<g id="edge15_Node000010_Node000011" class="edge">
<title>Node10&#45;&gt;Node11</title>
<g id="a_edge15_Node000010_Node000011"><a xlink:title=" ">
<path fill="none" stroke="#63b8ff" d="M536.51,-162.19C503.04,-152.45 456.86,-139.02 426.57,-130.2"/>
<polygon fill="#63b8ff" stroke="#63b8ff" points="535.3,-165.49 545.88,-164.92 537.25,-158.76 535.3,-165.49"/>
</a>
</g>
</g>
<!-- Node13 -->
<g id="Node000013" class="node">
<title>Node13</title>
<g id="a_Node000013"><a xlink:href="memfile_8h.html" target="_top" xlink:title="Stream interface for ROM / RAM / MegaROM.">
<polygon fill="white" stroke="#666666" points="552.88,-129.75 461.88,-129.75 461.88,-110.5 552.88,-110.5 552.88,-129.75"/>
<text text-anchor="middle" x="507.38" y="-116.25" font-family="Helvetica,sans-Serif" font-size="10.00">include/memfile.h</text>
</a>
</g>
</g>
<!-- Node10&#45;&gt;Node13 -->
<g id="edge17_Node000010_Node000013" class="edge">
<title>Node10&#45;&gt;Node13</title>
<g id="a_edge17_Node000010_Node000013"><a xlink:title=" ">
<path fill="none" stroke="#63b8ff" d="M557.13,-158.44C544.73,-149.14 529.55,-137.76 519.24,-130.02"/>
<polygon fill="#63b8ff" stroke="#63b8ff" points="555.02,-161.23 565.12,-164.43 559.22,-155.63 555.02,-161.23"/>
</a>
</g>
</g>
<!-- Node17 -->
<g id="Node000017" class="node">
<title>Node17</title>
<g id="a_Node000017"><a xlink:href="resources_8h.html" target="_top" xlink:title="Data types and functions for accessing embedded resources.">
<polygon fill="white" stroke="#666666" points="709.38,-129.75 609.38,-129.75 609.38,-110.5 709.38,-110.5 709.38,-129.75"/>
<text text-anchor="middle" x="659.38" y="-116.25" font-family="Helvetica,sans-Serif" font-size="10.00">include/resources.h</text>
</a>
</g>
</g>
<!-- Node10&#45;&gt;Node17 -->
<g id="edge21_Node000010_Node000017" class="edge">
<title>Node10&#45;&gt;Node17</title>
<g id="a_edge21_Node000010_Node000017"><a xlink:title=" ">
<path fill="none" stroke="#63b8ff" d="M601.71,-159.03C615.91,-149.7 633.56,-138.1 645.57,-130.2"/>
<polygon fill="#63b8ff" stroke="#63b8ff" points="599.81,-156.09 593.38,-164.51 603.66,-161.94 599.81,-156.09"/>
</a>
</g>
</g>
<!-- Node12 -->
<g id="Node000012" class="node">
<title>Node12</title>
<g id="a_Node000012"><a xlink:href="xmem_8h.html" target="_top" xlink:title="Inter&#45;memory transfer functions for ROM / RAM, VRAM, and Banked Memory (MegaROM).">
<polygon fill="white" stroke="#666666" points="392.12,-74.5 308.62,-74.5 308.62,-55.25 392.12,-55.25 392.12,-74.5"/>
<text text-anchor="middle" x="350.38" y="-61" font-family="Helvetica,sans-Serif" font-size="10.00">include/xmem.h</text>
</a>
</g>
</g>
<!-- Node11&#45;&gt;Node12 -->
<g id="edge16_Node000011_Node000012" class="edge">
<title>Node11&#45;&gt;Node12</title>
<g id="a_edge16_Node000011_Node000012"><a xlink:title=" ">
<path fill="none" stroke="#63b8ff" d="M380.7,-101.76C373.11,-92.78 364.17,-82.2 357.97,-74.86"/>
<polygon fill="#63b8ff" stroke="#63b8ff" points="377.84,-103.8 386.97,-109.18 383.19,-99.28 377.84,-103.8"/>
</a>
</g>
</g>
<!-- Node14 -->
<g id="Node000014" class="node">
<title>Node14</title>
<g id="a_Node000014"><a xlink:href="NDP_8h.html" target="_top" xlink:title="NDP &#45; NDP sound driver.">
<polygon fill="white" stroke="#666666" points="488.5,-74.5 410.25,-74.5 410.25,-55.25 488.5,-55.25 488.5,-74.5"/>
<text text-anchor="middle" x="449.38" y="-61" font-family="Helvetica,sans-Serif" font-size="10.00">include/NDP.h</text>
</a>
</g>
</g>
<!-- Node13&#45;&gt;Node14 -->
<g id="edge18_Node000013_Node000014" class="edge">
<title>Node13&#45;&gt;Node14</title>
<g id="a_edge18_Node000013_Node000014"><a xlink:title=" ">
<path fill="none" stroke="#63b8ff" d="M489.11,-102.36C479.16,-93.22 467.24,-82.28 459.07,-74.77"/>
<polygon fill="#63b8ff" stroke="#63b8ff" points="486.69,-104.88 496.42,-109.07 491.42,-99.73 486.69,-104.88"/>
</a>
</g>
</g>
<!-- Node15 -->
<g id="Node000015" class="node">
<title>Node15</title>
<g id="a_Node000015"><a xlink:href="audio__buf_8h.html" target="_top" xlink:title="Unified sound&#45;chip buffer of the libmsx audio replayer.">
<polygon fill="white" stroke="#666666" points="606,-74.5 506.75,-74.5 506.75,-55.25 606,-55.25 606,-74.5"/>
<text text-anchor="middle" x="556.38" y="-61" font-family="Helvetica,sans-Serif" font-size="10.00">include/audio_buf.h</text>
</a>
</g>
</g>
<!-- Node13&#45;&gt;Node15 -->
<g id="edge19_Node000013_Node000015" class="edge">
<title>Node13&#45;&gt;Node15</title>
<g id="a_edge19_Node000013_Node000015"><a xlink:title=" ">
<path fill="none" stroke="#63b8ff" d="M523.09,-102.04C531.41,-93 541.29,-82.27 548.11,-74.86"/>
<polygon fill="#63b8ff" stroke="#63b8ff" points="520.69,-99.49 516.49,-109.22 525.84,-104.23 520.69,-99.49"/>
</a>
</g>
</g>
<!-- Node16 -->
<g id="Node000016" class="node">
<title>Node16</title>
<g id="a_Node000016"><a xlink:href="la0_8h.html" target="_top" xlink:title="The libmsx audio format 0 (LA0) decoder.">
<polygon fill="white" stroke="#666666" points="694.38,-74.5 624.38,-74.5 624.38,-55.25 694.38,-55.25 694.38,-74.5"/>
<text text-anchor="middle" x="659.38" y="-61" font-family="Helvetica,sans-Serif" font-size="10.00">include/la0.h</text>
</a>
</g>
</g>
<!-- Node13&#45;&gt;Node16 -->
<g id="edge20_Node000013_Node000016" class="edge">
<title>Node13&#45;&gt;Node16</title>
<g id="a_edge20_Node000013_Node000016"><a xlink:title=" ">
<path fill="none" stroke="#63b8ff" d="M543.98,-106.3C571.61,-96.62 608.85,-83.57 633.46,-74.95"/>
<polygon fill="#63b8ff" stroke="#63b8ff" points="542.87,-102.98 534.59,-109.59 545.18,-109.59 542.87,-102.98"/>
</a>
</g>
</g>
<!-- Node19 -->
<g id="Node000019" class="node">
<title>Node19</title>
<g id="a_Node000019"><a xlink:href="sm2_8h.html" target="_top" xlink:title="SM2 (Sprite Mode 2) Animated Color Sprites.">
<polygon fill="white" stroke="#666666" points="160.38,-74.5 84.38,-74.5 84.38,-55.25 160.38,-55.25 160.38,-74.5"/>
<text text-anchor="middle" x="122.38" y="-61" font-family="Helvetica,sans-Serif" font-size="10.00">include/sm2.h</text>
</a>
</g>
</g>
<!-- Node18&#45;&gt;Node19 -->
<g id="edge25_Node000018_Node000019" class="edge">
<title>Node18&#45;&gt;Node19</title>
<g id="a_edge25_Node000018_Node000019"><a xlink:title=" ">
<path fill="none" stroke="#63b8ff" d="M47.35,-154.06C48.21,-140.74 51.07,-123.46 59.38,-110.5 69.72,-94.36 88.17,-82.33 102.43,-74.85"/>
<polygon fill="#63b8ff" stroke="#63b8ff" points="43.85,-153.74 47.07,-163.84 50.85,-153.94 43.85,-153.74"/>
</a>
</g>
</g>
<!-- Node20 -->
<g id="Node000020" class="node">
<title>Node20</title>
<g id="a_Node000020"><a xlink:href="sm2__bmem_8h.html" target="_top" xlink:title="SM2 (Sprite Mode 2) internal APIs for BMEM / Resources.">
<polygon fill="white" stroke="#666666" points="176.5,-19.25 68.25,-19.25 68.25,0 176.5,0 176.5,-19.25"/>
<text text-anchor="middle" x="122.38" y="-5.75" font-family="Helvetica,sans-Serif" font-size="10.00">include/sm2_bmem.h</text>
</a>
</g>
</g>
<!-- Node19&#45;&gt;Node20 -->
<g id="edge26_Node000019_Node000020" class="edge">
<title>Node19&#45;&gt;Node20</title>
<g id="a_edge26_Node000019_Node000020"><a xlink:title=" ">
<path fill="none" stroke="#63b8ff" d="M122.38,-43.63C122.38,-35.34 122.38,-26.17 122.38,-19.61"/>
<polygon fill="#63b8ff" stroke="#63b8ff" points="118.88,-43.57 122.38,-53.57 125.88,-43.57 118.88,-43.57"/>
</a>
</g>
</g>
<!-- Node21&#45;&gt;Node2 -->
<g id="edge29_Node000021_Node000002" class="edge">
<title>Node21&#45;&gt;Node2</title>
<g id="a_edge29_Node000021_Node000002"><a xlink:title=" ">
<path fill="none" stroke="#63b8ff" d="M214.31,-154.29C219.5,-126.82 233.07,-78.32 266.38,-55.25 313.2,-22.82 711.12,-13.38 836.62,-11.19"/>
<polygon fill="#63b8ff" stroke="#63b8ff" points="210.87,-153.64 212.68,-164.08 217.78,-154.79 210.87,-153.64"/>
</a>
</g>
</g>
<!-- Node21&#45;&gt;Node6 -->
<g id="edge28_Node000021_Node000006" class="edge">
<title>Node21&#45;&gt;Node6</title>
<g id="a_edge28_Node000021_Node000006"><a xlink:title=" ">
<path fill="none" stroke="#63b8ff" d="M263.66,-169.85C347.19,-162.25 506.9,-146.16 561.38,-129.75 579.88,-124.17 581.97,-116.4 600.38,-110.5 675.53,-86.43 766.65,-74.89 822.56,-69.7"/>
<polygon fill="#63b8ff" stroke="#63b8ff" points="263.55,-166.34 253.9,-170.73 264.17,-173.31 263.55,-166.34"/>
</a>
</g>
</g>
<!-- Node21&#45;&gt;Node19 -->
<g id="edge30_Node000021_Node000019" class="edge">
<title>Node21&#45;&gt;Node19</title>
<g id="a_edge30_Node000021_Node000019"><a xlink:title=" ">
<path fill="none" stroke="#63b8ff" d="M206.42,-154.37C202.38,-140.95 195.63,-123.43 185.38,-110.5 173.13,-95.06 154.18,-82.64 140.25,-74.86"/>
<polygon fill="#63b8ff" stroke="#63b8ff" points="203,-155.11 209,-163.83 209.75,-153.26 203,-155.11"/>
</a>
</g>
</g>
<!-- Node21&#45;&gt;Node22 -->
<g id="edge31_Node000021_Node000022" class="edge">
<title>Node21&#45;&gt;Node22</title>
<g id="a_edge31_Node000021_Node000022"><a xlink:title=" ">
<path fill="none" stroke="#63b8ff" d="M186.64,-159.57C170.89,-150.15 151,-138.25 137.55,-130.2"/>
<polygon fill="#63b8ff" stroke="#63b8ff" points="184.6,-162.43 194.98,-164.56 188.19,-156.43 184.6,-162.43"/>
</a>
</g>
</g>
<!-- Node22&#45;&gt;Node2 -->
<g id="edge32_Node000022_Node000002" class="edge">
<title>Node22&#45;&gt;Node2</title>
<g id="a_edge32_Node000022_Node000002"><a xlink:title=" ">
<path fill="none" stroke="#63b8ff" d="M142.14,-103.23C162.45,-87.92 195.62,-65.58 228.38,-55.25 342.82,-19.14 715.69,-12.22 836.34,-10.92"/>
<polygon fill="#63b8ff" stroke="#63b8ff" points="140.23,-100.29 134.47,-109.18 144.51,-105.82 140.23,-100.29"/>
</a>
</g>
</g>
<!-- Node22&#45;&gt;Node19 -->
<g id="edge33_Node000022_Node000019" class="edge">
<title>Node22&#45;&gt;Node19</title>
<g id="a_edge33_Node000022_Node000019"><a xlink:title=" ">
<path fill="none" stroke="#63b8ff" d="M122.38,-98.88C122.38,-90.59 122.38,-81.42 122.38,-74.86"/>
<polygon fill="#63b8ff" stroke="#63b8ff" points="118.88,-98.82 122.38,-108.82 125.88,-98.82 118.88,-98.82"/>
</a>
</g>
</g>
<!-- Node23&#45;&gt;Node12 -->
<g id="edge38_Node000023_Node000012" class="edge">
<title>Node23&#45;&gt;Node12</title>
<g id="a_edge38_Node000023_Node000012"><a xlink:title=" ">
<path fill="none" stroke="#63b8ff" d="M358.73,-158.13C350.39,-150.54 341.81,-140.74 337.38,-129.75 329.84,-111.07 339.07,-87.49 345.39,-74.85"/>
<polygon fill="#63b8ff" stroke="#63b8ff" points="356.4,-160.74 366.31,-164.48 360.89,-155.38 356.4,-160.74"/>
</a>
</g>
</g>
</g>
</svg>
