<?xml version="1.0" encoding="UTF-8" standalone="no"?>
<!DOCTYPE svg PUBLIC "-//W3C//DTD SVG 1.1//EN"
 "http://www.w3.org/Graphics/SVG/1.1/DTD/svg11.dtd">
<!-- Generated by graphviz version 2.50.0 (20220203.2022)
 -->
<!-- Title: include/io.h Pages: 1 -->
<svg width="5245pt" height="274pt"
 viewBox="0.00 0.00 5244.82 274.00" xmlns="http://www.w3.org/2000/svg" xmlns:xlink="http://www.w3.org/1999/xlink">
<g id="graph0" class="graph" transform="scale(1 1) rotate(0) translate(4 270)">
<title>include/io.h</title>
<!-- Node1 -->
<g id="node1" class="node">
<title>Node1</title>
<g id="a_node1"><a xlink:title="Copyright (c) 2021 Daishi Mori (mori0091)">
<polygon fill="#bfbfbf" stroke="black" points="1482.97,-246.5 1482.97,-265.5 1547.97,-265.5 1547.97,-246.5 1482.97,-246.5"/>
<text text-anchor="middle" x="1515.47" y="-253.5" font-family="Helvetica,sans-Serif" font-size="10.00">include/io.h</text>
</a>
</g>
</g>
<!-- Node2 -->
<g id="node2" class="node">
<title>Node2</title>
<g id="a_node2"><a xlink:href="msx_8h.html" target="_top" xlink:title="Copyright (c) 2021 Daishi Mori (mori0091)">
<polygon fill="none" stroke="black" points="4812.47,-6 4812.47,-25 4888.47,-25 4888.47,-6 4812.47,-6"/>
<text text-anchor="middle" x="4850.47" y="-13" font-family="Helvetica,sans-Serif" font-size="10.00">include/msx.h</text>
</a>
</g>
</g>
<!-- Node1&#45;&gt;Node2 -->
<g id="edge1" class="edge">
<title>Node1&#45;&gt;Node2</title>
<path fill="none" stroke="midnightblue" d="M1472.75,-254.49C1282.72,-252.06 512.95,-240.48 273.47,-210 158.79,-195.4 91.88,-244.11 19.47,-154 -4.75,-123.86 -7.73,-94.48 19.47,-67 64.19,-21.81 4361.31,-16.92 4812.3,-16.53"/>
<polygon fill="midnightblue" stroke="midnightblue" points="1472.86,-257.99 1482.9,-254.62 1472.95,-250.99 1472.86,-257.99"/>
</g>
<!-- Node3 -->
<g id="node3" class="node">
<title>Node3</title>
<g id="a_node3"><a xlink:href="psg_8h.html" target="_top" xlink:title="Copyright (c) 2021 Daishi Mori (mori0091)">
<polygon fill="none" stroke="black" points="282.47,-190.5 282.47,-209.5 356.47,-209.5 356.47,-190.5 282.47,-190.5"/>
<text text-anchor="middle" x="319.47" y="-197.5" font-family="Helvetica,sans-Serif" font-size="10.00">include/psg.h</text>
</a>
</g>
</g>
<!-- Node1&#45;&gt;Node3 -->
<g id="edge2" class="edge">
<title>Node1&#45;&gt;Node3</title>
<path fill="none" stroke="midnightblue" d="M1472.82,-253.07C1285,-244.59 533.16,-210.65 356.68,-202.68"/>
<polygon fill="midnightblue" stroke="midnightblue" points="1472.71,-256.57 1482.86,-253.53 1473.03,-249.58 1472.71,-256.57"/>
</g>
<!-- Node10 -->
<g id="node10" class="node">
<title>Node10</title>
<g id="a_node10"><a xlink:href="vdp_8h.html" target="_top" xlink:title="Data types and functions for VDP (Video Display Proccessor) access.">
<polygon fill="none" stroke="black" points="2674.47,-134.5 2674.47,-153.5 2748.47,-153.5 2748.47,-134.5 2674.47,-134.5"/>
<text text-anchor="middle" x="2711.47" y="-141.5" font-family="Helvetica,sans-Serif" font-size="10.00">include/vdp.h</text>
</a>
</g>
</g>
<!-- Node1&#45;&gt;Node10 -->
<g id="edge11" class="edge">
<title>Node1&#45;&gt;Node10</title>
<path fill="none" stroke="midnightblue" d="M1558.12,-251.08C1745.93,-233.8 2497.77,-164.65 2674.25,-148.42"/>
<polygon fill="midnightblue" stroke="midnightblue" points="1557.72,-247.6 1548.08,-252 1558.36,-254.57 1557.72,-247.6"/>
</g>
<!-- Node50 -->
<g id="node48" class="node">
<title>Node50</title>
<g id="a_node48"><a xlink:href="vmem_8h.html" target="_top" xlink:title="Data types and functions for VRAM access.">
<polygon fill="none" stroke="black" points="4887.97,-190.5 4887.97,-209.5 4972.97,-209.5 4972.97,-190.5 4887.97,-190.5"/>
<text text-anchor="middle" x="4930.47" y="-197.5" font-family="Helvetica,sans-Serif" font-size="10.00">include/vmem.h</text>
</a>
</g>
</g>
<!-- Node1&#45;&gt;Node50 -->
<g id="edge51" class="edge">
<title>Node1&#45;&gt;Node50</title>
<path fill="none" stroke="midnightblue" d="M1558.35,-254.32C1924.62,-248.53 4522.24,-207.46 4887.76,-201.68"/>
<polygon fill="midnightblue" stroke="midnightblue" points="1558.12,-250.83 1548.17,-254.48 1558.23,-257.82 1558.12,-250.83"/>
</g>
<!-- Node3&#45;&gt;Node2 -->
<g id="edge6" class="edge">
<title>Node3&#45;&gt;Node2</title>
<path fill="none" stroke="midnightblue" d="M366.62,-191.17C395.17,-184.71 431.21,-173.36 458.47,-154 498.04,-125.9 481.13,-88.84 524.47,-67 625.79,-15.95 4391.6,-16.28 4812.36,-16.48"/>
<polygon fill="midnightblue" stroke="midnightblue" points="365.52,-187.83 356.47,-193.34 366.98,-194.67 365.52,-187.83"/>
</g>
<!-- Node4 -->
<g id="node4" class="node">
<title>Node4</title>
<g id="a_node4"><a xlink:href="ay__3__8910_8h.html" target="_top" xlink:title="Copyright (c) 2022 Daishi Mori (mori0091)">
<polygon fill="none" stroke="black" points="28.47,-134.5 28.47,-153.5 132.47,-153.5 132.47,-134.5 28.47,-134.5"/>
<text text-anchor="middle" x="80.47" y="-141.5" font-family="Helvetica,sans-Serif" font-size="10.00">include/ay_3_8910.h</text>
</a>
</g>
</g>
<!-- Node3&#45;&gt;Node4 -->
<g id="edge3" class="edge">
<title>Node3&#45;&gt;Node4</title>
<path fill="none" stroke="midnightblue" d="M272.56,-188.4C227.49,-178.22 160.23,-163.02 118.43,-153.58"/>
<polygon fill="midnightblue" stroke="midnightblue" points="271.86,-191.83 282.39,-190.62 273.4,-185 271.86,-191.83"/>
</g>
<!-- Node6 -->
<g id="node6" class="node">
<title>Node6</title>
<g id="a_node6"><a xlink:href="sound_8c.html" target="_top" xlink:title="Copyright (c) 2021 Daishi Mori (mori0091)">
<polygon fill="none" stroke="black" points="133.97,-73 133.97,-92 200.97,-92 200.97,-73 133.97,-73"/>
<text text-anchor="middle" x="167.47" y="-80" font-family="Helvetica,sans-Serif" font-size="10.00">src/sound.c</text>
</a>
</g>
</g>
<!-- Node3&#45;&gt;Node6 -->
<g id="edge10" class="edge">
<title>Node3&#45;&gt;Node6</title>
<path fill="none" stroke="midnightblue" d="M272.3,-196.09C241.37,-191.6 202.53,-180.6 179.47,-154 164.18,-136.36 164.87,-106.61 166.32,-92.05"/>
<polygon fill="midnightblue" stroke="midnightblue" points="272.09,-199.59 282.45,-197.38 272.97,-192.65 272.09,-199.59"/>
</g>
<!-- Node7 -->
<g id="node7" class="node">
<title>Node7</title>
<g id="a_node7"><a xlink:href="psg__get_8c.html" target="_top" xlink:title="Copyright (c) 2021 Daishi Mori (mori0091)">
<polygon fill="none" stroke="black" points="188.97,-134.5 188.97,-153.5 263.97,-153.5 263.97,-134.5 188.97,-134.5"/>
<text text-anchor="middle" x="226.47" y="-141.5" font-family="Helvetica,sans-Serif" font-size="10.00">src/psg_get.c</text>
</a>
</g>
</g>
<!-- Node3&#45;&gt;Node7 -->
<g id="edge7" class="edge">
<title>Node3&#45;&gt;Node7</title>
<path fill="none" stroke="midnightblue" d="M295.66,-185.18C278.55,-175.24 256,-162.15 241.37,-153.65"/>
<polygon fill="midnightblue" stroke="midnightblue" points="294.12,-188.33 304.53,-190.32 297.64,-182.28 294.12,-188.33"/>
</g>
<!-- Node8 -->
<g id="node8" class="node">
<title>Node8</title>
<g id="a_node8"><a xlink:href="psg__init_8c.html" target="_top" xlink:title="Copyright (c) 2021 Daishi Mori (mori0091)">
<polygon fill="none" stroke="black" points="282.47,-134.5 282.47,-153.5 356.47,-153.5 356.47,-134.5 282.47,-134.5"/>
<text text-anchor="middle" x="319.47" y="-141.5" font-family="Helvetica,sans-Serif" font-size="10.00">src/psg_init.c</text>
</a>
</g>
</g>
<!-- Node3&#45;&gt;Node8 -->
<g id="edge8" class="edge">
<title>Node3&#45;&gt;Node8</title>
<path fill="none" stroke="midnightblue" d="M319.47,-179.8C319.47,-170.91 319.47,-160.78 319.47,-153.75"/>
<polygon fill="midnightblue" stroke="midnightblue" points="315.97,-180.08 319.47,-190.08 322.97,-180.08 315.97,-180.08"/>
</g>
<!-- Node9 -->
<g id="node9" class="node">
<title>Node9</title>
<g id="a_node9"><a xlink:href="psg__set_8c.html" target="_top" xlink:title="Copyright (c) 2021 Daishi Mori (mori0091)">
<polygon fill="none" stroke="black" points="374.97,-134.5 374.97,-153.5 449.97,-153.5 449.97,-134.5 374.97,-134.5"/>
<text text-anchor="middle" x="412.47" y="-141.5" font-family="Helvetica,sans-Serif" font-size="10.00">src/psg_set.c</text>
</a>
</g>
</g>
<!-- Node3&#45;&gt;Node9 -->
<g id="edge9" class="edge">
<title>Node3&#45;&gt;Node9</title>
<path fill="none" stroke="midnightblue" d="M343.27,-185.18C360.39,-175.24 382.93,-162.15 397.56,-153.65"/>
<polygon fill="midnightblue" stroke="midnightblue" points="341.3,-182.28 334.41,-190.32 344.82,-188.33 341.3,-182.28"/>
</g>
<!-- Node5 -->
<g id="node5" class="node">
<title>Node5</title>
<g id="a_node5"><a xlink:href="ay__3__8910_8c.html" target="_top" xlink:title="Copyright (c) 2022 Daishi Mori (mori0091)">
<polygon fill="none" stroke="black" points="28.97,-73 28.97,-92 115.97,-92 115.97,-73 28.97,-73"/>
<text text-anchor="middle" x="72.47" y="-80" font-family="Helvetica,sans-Serif" font-size="10.00">src/ay_3_8910.c</text>
</a>
</g>
</g>
<!-- Node4&#45;&gt;Node5 -->
<g id="edge4" class="edge">
<title>Node4&#45;&gt;Node5</title>
<path fill="none" stroke="midnightblue" d="M77.96,-124.32C76.5,-113.5 74.74,-100.4 73.61,-92.01"/>
<polygon fill="midnightblue" stroke="midnightblue" points="74.52,-125.03 79.32,-134.48 81.46,-124.1 74.52,-125.03"/>
</g>
<!-- Node4&#45;&gt;Node6 -->
<g id="edge5" class="edge">
<title>Node4&#45;&gt;Node6</title>
<path fill="none" stroke="midnightblue" d="M101.5,-128.61C118.24,-117.17 141.08,-101.55 155.03,-92.01"/>
<polygon fill="midnightblue" stroke="midnightblue" points="99.21,-125.94 92.93,-134.48 103.16,-131.72 99.21,-125.94"/>
</g>
<!-- Node10&#45;&gt;Node2 -->
<g id="edge15" class="edge">
<title>Node10&#45;&gt;Node2</title>
<path fill="none" stroke="midnightblue" d="M2664.28,-142.93C2350.27,-142.36 574.03,-137.37 535.47,-98 525.83,-88.16 525.78,-76.8 535.47,-67 575.25,-26.75 4387.89,-17.48 4812.22,-16.58"/>
<polygon fill="midnightblue" stroke="midnightblue" points="2664.41,-146.43 2674.41,-142.95 2664.42,-139.43 2664.41,-146.43"/>
</g>
<!-- Node11 -->
<g id="node11" class="node">
<title>Node11</title>
<g id="a_node11"><a xlink:href="metasprite_8h.html" target="_top" xlink:title="Copyright (c) 2021 Daishi Mori (mori0091)">
<polygon fill="none" stroke="red" points="4878.47,-73 4878.47,-92 4982.47,-92 4982.47,-73 4878.47,-73"/>
<text text-anchor="middle" x="4930.47" y="-80" font-family="Helvetica,sans-Serif" font-size="10.00">include/metasprite.h</text>
</a>
</g>
</g>
<!-- Node10&#45;&gt;Node11 -->
<g id="edge12" class="edge">
<title>Node10&#45;&gt;Node11</title>
<path fill="none" stroke="midnightblue" d="M2758.95,-142.8C3032.44,-141.49 4409.26,-133.26 4831.47,-98 4847.57,-96.66 4865.03,-94.37 4880.75,-92.01"/>
<polygon fill="midnightblue" stroke="midnightblue" points="2758.57,-139.3 2748.58,-142.84 2758.6,-146.3 2758.57,-139.3"/>
</g>
<!-- Node15 -->
<g id="node13" class="node">
<title>Node15</title>
<g id="a_node13"><a xlink:href="vdp_8c.html" target="_top" xlink:title="Copyright (c) 2021 Daishi Mori (mori0091)">
<polygon fill="none" stroke="black" points="3694.47,-73 3694.47,-92 3750.47,-92 3750.47,-73 3694.47,-73"/>
<text text-anchor="middle" x="3722.47" y="-80" font-family="Helvetica,sans-Serif" font-size="10.00">src/vdp.c</text>
</a>
</g>
</g>
<!-- Node10&#45;&gt;Node15 -->
<g id="edge16" class="edge">
<title>Node10&#45;&gt;Node15</title>
<path fill="none" stroke="midnightblue" d="M2758.84,-142.85C2928.52,-142.01 3505.46,-136.34 3685.47,-98 3691.68,-96.68 3698.2,-94.43 3704.01,-92.1"/>
<polygon fill="midnightblue" stroke="midnightblue" points="2758.7,-139.35 2748.72,-142.9 2758.74,-146.35 2758.7,-139.35"/>
</g>
<!-- Node16 -->
<g id="node14" class="node">
<title>Node16</title>
<g id="a_node14"><a xlink:href="vdp__cmd__execute_8c.html" target="_top" xlink:title="Copyright (c) 2021 Daishi Mori (mori0091)">
<polygon fill="none" stroke="black" points="3768.97,-73 3768.97,-92 3887.97,-92 3887.97,-73 3768.97,-73"/>
<text text-anchor="middle" x="3828.47" y="-80" font-family="Helvetica,sans-Serif" font-size="10.00">src/vdp_cmd_execute.c</text>
</a>
</g>
</g>
<!-- Node10&#45;&gt;Node16 -->
<g id="edge17" class="edge">
<title>Node10&#45;&gt;Node16</title>
<path fill="none" stroke="midnightblue" d="M2758.68,-142C2935.95,-138.1 3561.71,-122.85 3759.47,-98 3770.52,-96.61 3782.43,-94.38 3793.2,-92.07"/>
<polygon fill="midnightblue" stroke="midnightblue" points="2758.55,-138.51 2748.63,-142.22 2758.71,-145.5 2758.55,-138.51"/>
</g>
<!-- Node17 -->
<g id="node15" class="node">
<title>Node17</title>
<g id="a_node15"><a xlink:href="vdp__cmd__execute__HMMM_8c.html" target="_top" xlink:title="Copyright (c) 2021 Daishi Mori (mori0091)">
<polygon fill="none" stroke="black" points="3906.47,-67.5 3906.47,-97.5 4018.47,-97.5 4018.47,-67.5 3906.47,-67.5"/>
<text text-anchor="start" x="3914.47" y="-85.5" font-family="Helvetica,sans-Serif" font-size="10.00">src/vdp_cmd_execute</text>
<text text-anchor="middle" x="3962.47" y="-74.5" font-family="Helvetica,sans-Serif" font-size="10.00">_HMMM.c</text>
</a>
</g>
</g>
<!-- Node10&#45;&gt;Node17 -->
<g id="edge18" class="edge">
<title>Node10&#45;&gt;Node17</title>
<path fill="none" stroke="midnightblue" d="M2758.78,-142.35C2950.68,-139.55 3671.48,-127.25 3897.47,-98 3900.33,-97.63 3903.26,-97.19 3906.21,-96.71"/>
<polygon fill="midnightblue" stroke="midnightblue" points="2758.68,-138.85 2748.73,-142.5 2758.78,-145.85 2758.68,-138.85"/>
</g>
<!-- Node18 -->
<g id="node16" class="node">
<title>Node18</title>
<g id="a_node16"><a xlink:href="vdp__cmd__execute__HMMV_8c.html" target="_top" xlink:title="Copyright (c) 2021 Daishi Mori (mori0091)">
<polygon fill="none" stroke="black" points="4036.47,-67.5 4036.47,-97.5 4148.47,-97.5 4148.47,-67.5 4036.47,-67.5"/>
<text text-anchor="start" x="4044.47" y="-85.5" font-family="Helvetica,sans-Serif" font-size="10.00">src/vdp_cmd_execute</text>
<text text-anchor="middle" x="4092.47" y="-74.5" font-family="Helvetica,sans-Serif" font-size="10.00">_HMMV.c</text>
</a>
</g>
</g>
<!-- Node10&#45;&gt;Node18 -->
<g id="edge19" class="edge">
<title>Node10&#45;&gt;Node18</title>
<path fill="none" stroke="midnightblue" d="M2758.84,-142.56C2963.71,-140.46 3774.62,-130.24 4027.47,-98 4030.34,-97.63 4033.26,-97.2 4036.21,-96.72"/>
<polygon fill="midnightblue" stroke="midnightblue" points="2758.67,-139.06 2748.7,-142.66 2758.74,-146.06 2758.67,-139.06"/>
</g>
<!-- Node19 -->
<g id="node17" class="node">
<title>Node19</title>
<g id="a_node17"><a xlink:href="vdp__cmd__execute__LMMM_8c.html" target="_top" xlink:title="Copyright (c) 2021 Daishi Mori (mori0091)">
<polygon fill="none" stroke="black" points="4166.47,-67.5 4166.47,-97.5 4278.47,-97.5 4278.47,-67.5 4166.47,-67.5"/>
<text text-anchor="start" x="4174.47" y="-85.5" font-family="Helvetica,sans-Serif" font-size="10.00">src/vdp_cmd_execute</text>
<text text-anchor="middle" x="4222.47" y="-74.5" font-family="Helvetica,sans-Serif" font-size="10.00">_LMMM.c</text>
</a>
</g>
</g>
<!-- Node10&#45;&gt;Node19 -->
<g id="edge20" class="edge">
<title>Node10&#45;&gt;Node19</title>
<path fill="none" stroke="midnightblue" d="M2758.84,-142.73C2976.01,-141.28 3877.66,-133.24 4157.47,-98 4160.34,-97.64 4163.26,-97.21 4166.21,-96.73"/>
<polygon fill="midnightblue" stroke="midnightblue" points="2758.71,-139.23 2748.73,-142.79 2758.75,-146.23 2758.71,-139.23"/>
</g>
<!-- Node20 -->
<g id="node18" class="node">
<title>Node20</title>
<g id="a_node18"><a xlink:href="vdp__cmd__execute__LMMV_8c.html" target="_top" xlink:title="Copyright (c) 2021 Daishi Mori (mori0091)">
<polygon fill="none" stroke="black" points="4296.47,-67.5 4296.47,-97.5 4408.47,-97.5 4408.47,-67.5 4296.47,-67.5"/>
<text text-anchor="start" x="4304.47" y="-85.5" font-family="Helvetica,sans-Serif" font-size="10.00">src/vdp_cmd_execute</text>
<text text-anchor="middle" x="4352.47" y="-74.5" font-family="Helvetica,sans-Serif" font-size="10.00">_LMMV.c</text>
</a>
</g>
</g>
<!-- Node10&#45;&gt;Node20 -->
<g id="edge21" class="edge">
<title>Node10&#45;&gt;Node20</title>
<path fill="none" stroke="midnightblue" d="M2758.94,-142.87C2988.02,-142.03 3980.65,-136.25 4287.47,-98 4290.34,-97.64 4293.26,-97.22 4296.21,-96.74"/>
<polygon fill="midnightblue" stroke="midnightblue" points="2758.6,-139.37 2748.61,-142.9 2758.63,-146.37 2758.6,-139.37"/>
</g>
<!-- Node21 -->
<g id="node19" class="node">
<title>Node21</title>
<g id="a_node19"><a xlink:href="vdp__cmd__set__unrestricted_8c.html" target="_top" xlink:title="Copyright (c) 2021 Daishi Mori (mori0091)">
<polygon fill="none" stroke="black" points="4426.97,-73 4426.97,-92 4581.97,-92 4581.97,-73 4426.97,-73"/>
<text text-anchor="middle" x="4504.47" y="-80" font-family="Helvetica,sans-Serif" font-size="10.00">src/vdp_cmd_set_unrestricted.c</text>
</a>
</g>
</g>
<!-- Node10&#45;&gt;Node21 -->
<g id="edge22" class="edge">
<title>Node10&#45;&gt;Node21</title>
<path fill="none" stroke="midnightblue" d="M2758.91,-142.64C2999.07,-140.68 4082.54,-130.17 4417.47,-98 4431.49,-96.65 4446.67,-94.4 4460.37,-92.07"/>
<polygon fill="midnightblue" stroke="midnightblue" points="2758.73,-139.14 2748.76,-142.72 2758.79,-146.14 2758.73,-139.14"/>
</g>
<!-- Node22 -->
<g id="node20" class="node">
<title>Node22</title>
<g id="a_node20"><a xlink:href="vdp__get__sprite__mode_8c.html" target="_top" xlink:title="Copyright (c) 2021 Daishi Mori (mori0091)">
<polygon fill="none" stroke="black" points="4599.97,-67.5 4599.97,-97.5 4696.97,-97.5 4696.97,-67.5 4599.97,-67.5"/>
<text text-anchor="start" x="4607.97" y="-85.5" font-family="Helvetica,sans-Serif" font-size="10.00">src/vdp_get_sprite</text>
<text text-anchor="middle" x="4648.47" y="-74.5" font-family="Helvetica,sans-Serif" font-size="10.00">_mode.c</text>
</a>
</g>
</g>
<!-- Node10&#45;&gt;Node22 -->
<g id="edge23" class="edge">
<title>Node10&#45;&gt;Node22</title>
<path fill="none" stroke="midnightblue" d="M2758.88,-142.5C3032.62,-139.55 4405.25,-123.58 4591.47,-98 4594.2,-97.62 4596.99,-97.17 4599.79,-96.65"/>
<polygon fill="midnightblue" stroke="midnightblue" points="2758.47,-139.01 2748.5,-142.62 2758.54,-146.01 2758.47,-139.01"/>
</g>
<!-- Node23 -->
<g id="node21" class="node">
<title>Node23</title>
<g id="a_node21"><a xlink:href="vdp__get__status_8c.html" target="_top" xlink:title="Copyright (c) 2021 Daishi Mori (mori0091)">
<polygon fill="none" stroke="black" points="4714.97,-73 4714.97,-92 4821.97,-92 4821.97,-73 4714.97,-73"/>
<text text-anchor="middle" x="4768.47" y="-80" font-family="Helvetica,sans-Serif" font-size="10.00">src/vdp_get_status.c</text>
</a>
</g>
</g>
<!-- Node10&#45;&gt;Node23 -->
<g id="edge24" class="edge">
<title>Node10&#45;&gt;Node23</title>
<path fill="none" stroke="midnightblue" d="M2758.72,-143.26C3022.2,-144.52 4312.2,-148 4706.47,-98 4716.78,-96.69 4727.87,-94.39 4737.79,-92"/>
<polygon fill="midnightblue" stroke="midnightblue" points="2758.73,-139.76 2748.71,-143.21 2758.7,-146.76 2758.73,-139.76"/>
</g>
<!-- Node24 -->
<g id="node22" class="node">
<title>Node24</title>
<g id="a_node22"><a xlink:href="vdp__set__adjust_8c.html" target="_top" xlink:title="Copyright (c) 2021 Daishi Mori (mori0091)">
<polygon fill="none" stroke="black" points="544.97,-73 544.97,-92 651.97,-92 651.97,-73 544.97,-73"/>
<text text-anchor="middle" x="598.47" y="-80" font-family="Helvetica,sans-Serif" font-size="10.00">src/vdp_set_adjust.c</text>
</a>
</g>
</g>
<!-- Node10&#45;&gt;Node24 -->
<g id="edge25" class="edge">
<title>Node10&#45;&gt;Node24</title>
<path fill="none" stroke="midnightblue" d="M2664.38,-142.55C2377,-139.75 864.98,-123.87 660.47,-98 650.16,-96.7 639.06,-94.39 629.14,-92"/>
<polygon fill="midnightblue" stroke="midnightblue" points="2664.43,-146.05 2674.47,-142.65 2664.5,-139.05 2664.43,-146.05"/>
</g>
<!-- Node25 -->
<g id="node23" class="node">
<title>Node25</title>
<g id="a_node23"><a xlink:href="vdp__set__color_8c.html" target="_top" xlink:title="Copyright (c) 2021 Daishi Mori (mori0091)">
<polygon fill="none" stroke="black" points="669.97,-73 669.97,-92 770.97,-92 770.97,-73 669.97,-73"/>
<text text-anchor="middle" x="720.47" y="-80" font-family="Helvetica,sans-Serif" font-size="10.00">src/vdp_set_color.c</text>
</a>
</g>
</g>
<!-- Node10&#45;&gt;Node25 -->
<g id="edge26" class="edge">
<title>Node10&#45;&gt;Node25</title>
<path fill="none" stroke="midnightblue" d="M2664.1,-143.27C2405.4,-144.53 1161.09,-147.84 780.47,-98 770.59,-96.71 759.97,-94.44 750.45,-92.08"/>
<polygon fill="midnightblue" stroke="midnightblue" points="2664.3,-146.77 2674.28,-143.22 2664.27,-139.77 2664.3,-146.77"/>
</g>
<!-- Node26 -->
<g id="node24" class="node">
<title>Node26</title>
<g id="a_node24"><a xlink:href="vdp__set__color__table_8c.html" target="_top" xlink:title="Copyright (c) 2021 Daishi Mori (mori0091)">
<polygon fill="none" stroke="black" points="789.47,-73 789.47,-92 917.47,-92 917.47,-73 789.47,-73"/>
<text text-anchor="middle" x="853.47" y="-80" font-family="Helvetica,sans-Serif" font-size="10.00">src/vdp_set_color_table.c</text>
</a>
</g>
</g>
<!-- Node10&#45;&gt;Node26 -->
<g id="edge27" class="edge">
<title>Node10&#45;&gt;Node26</title>
<path fill="none" stroke="midnightblue" d="M2664.2,-142.9C2417.71,-142.22 1277.47,-136.99 926.47,-98 914.52,-96.67 901.62,-94.4 890.04,-92.04"/>
<polygon fill="midnightblue" stroke="midnightblue" points="2664.26,-146.4 2674.27,-142.93 2664.28,-139.4 2664.26,-146.4"/>
</g>
<!-- Node27 -->
<g id="node25" class="node">
<title>Node27</title>
<g id="a_node25"><a xlink:href="vdp__set__control_8c.html" target="_top" xlink:title="Copyright (c) 2021 Daishi Mori (mori0091)">
<polygon fill="none" stroke="black" points="935.47,-73 935.47,-92 1045.47,-92 1045.47,-73 935.47,-73"/>
<text text-anchor="middle" x="990.47" y="-80" font-family="Helvetica,sans-Serif" font-size="10.00">src/vdp_set_control.c</text>
</a>
</g>
</g>
<!-- Node10&#45;&gt;Node27 -->
<g id="edge28" class="edge">
<title>Node10&#45;&gt;Node27</title>
<path fill="none" stroke="midnightblue" d="M2663.86,-142.96C2427.42,-142.59 1378.04,-138.65 1054.47,-98 1043.96,-96.68 1032.63,-94.4 1022.48,-92.04"/>
<polygon fill="midnightblue" stroke="midnightblue" points="2664.17,-146.46 2674.18,-142.98 2664.18,-139.46 2664.17,-146.46"/>
</g>
<!-- Node28 -->
<g id="node26" class="node">
<title>Node28</title>
<g id="a_node26"><a xlink:href="vdp__set__hscroll_8c.html" target="_top" xlink:title="Copyright (c) 2021 Daishi Mori (mori0091)">
<polygon fill="none" stroke="black" points="1063.97,-73 1063.97,-92 1172.97,-92 1172.97,-73 1063.97,-73"/>
<text text-anchor="middle" x="1118.47" y="-80" font-family="Helvetica,sans-Serif" font-size="10.00">src/vdp_set_hscroll.c</text>
</a>
</g>
</g>
<!-- Node10&#45;&gt;Node28 -->
<g id="edge29" class="edge">
<title>Node10&#45;&gt;Node28</title>
<path fill="none" stroke="midnightblue" d="M2664.28,-142.86C2439.81,-142.02 1478.7,-136.2 1181.47,-98 1171.12,-96.67 1159.97,-94.39 1149.97,-92.03"/>
<polygon fill="midnightblue" stroke="midnightblue" points="2664.39,-146.36 2674.41,-142.9 2664.42,-139.36 2664.39,-146.36"/>
</g>
<!-- Node29 -->
<g id="node27" class="node">
<title>Node29</title>
<g id="a_node27"><a xlink:href="vdp__set__hscroll__dual__page_8c.html" target="_top" xlink:title="Copyright (c) 2021 Daishi Mori (mori0091)">
<polygon fill="none" stroke="black" points="1190.97,-67.5 1190.97,-97.5 1291.97,-97.5 1291.97,-67.5 1190.97,-67.5"/>
<text text-anchor="start" x="1198.97" y="-85.5" font-family="Helvetica,sans-Serif" font-size="10.00">src/vdp_set_hscroll</text>
<text text-anchor="middle" x="1241.47" y="-74.5" font-family="Helvetica,sans-Serif" font-size="10.00">_dual_page.c</text>
</a>
</g>
</g>
<!-- Node10&#45;&gt;Node29 -->
<g id="edge30" class="edge">
<title>Node10&#45;&gt;Node29</title>
<path fill="none" stroke="midnightblue" d="M2664.2,-142.82C2450.43,-141.8 1572.68,-135.37 1300.47,-98 1297.75,-97.63 1294.98,-97.18 1292.19,-96.68"/>
<polygon fill="midnightblue" stroke="midnightblue" points="2664.44,-146.32 2674.46,-142.87 2664.47,-139.32 2664.44,-146.32"/>
</g>
<!-- Node30 -->
<g id="node28" class="node">
<title>Node30</title>
<g id="a_node28"><a xlink:href="vdp__set__hscroll__mask_8c.html" target="_top" xlink:title="Copyright (c) 2021 Daishi Mori (mori0091)">
<polygon fill="none" stroke="black" points="1309.97,-67.5 1309.97,-97.5 1410.97,-97.5 1410.97,-67.5 1309.97,-67.5"/>
<text text-anchor="start" x="1317.97" y="-85.5" font-family="Helvetica,sans-Serif" font-size="10.00">src/vdp_set_hscroll</text>
<text text-anchor="middle" x="1360.47" y="-74.5" font-family="Helvetica,sans-Serif" font-size="10.00">_mask.c</text>
</a>
</g>
</g>
<!-- Node10&#45;&gt;Node30 -->
<g id="edge31" class="edge">
<title>Node10&#45;&gt;Node30</title>
<path fill="none" stroke="midnightblue" d="M2664.28,-142.66C2461.98,-141 1667.07,-132.36 1419.47,-98 1416.75,-97.62 1413.98,-97.17 1411.19,-96.67"/>
<polygon fill="midnightblue" stroke="midnightblue" points="2664.26,-146.16 2674.29,-142.74 2664.32,-139.16 2664.26,-146.16"/>
</g>
<!-- Node31 -->
<g id="node29" class="node">
<title>Node31</title>
<g id="a_node29"><a xlink:href="vdp__set__image__table_8c.html" target="_top" xlink:title="Copyright (c) 2021 Daishi Mori (mori0091)">
<polygon fill="none" stroke="black" points="1428.97,-73 1428.97,-92 1561.97,-92 1561.97,-73 1428.97,-73"/>
<text text-anchor="middle" x="1495.47" y="-80" font-family="Helvetica,sans-Serif" font-size="10.00">src/vdp_set_image_table.c</text>
</a>
</g>
</g>
<!-- Node10&#45;&gt;Node31 -->
<g id="edge32" class="edge">
<title>Node10&#45;&gt;Node31</title>
<path fill="none" stroke="midnightblue" d="M2664.19,-142.07C2477.12,-138.27 1788.38,-122.83 1571.47,-98 1559.32,-96.61 1546.21,-94.38 1534.35,-92.07"/>
<polygon fill="midnightblue" stroke="midnightblue" points="2664.19,-145.58 2674.25,-142.28 2664.33,-138.58 2664.19,-145.58"/>
</g>
<!-- Node32 -->
<g id="node30" class="node">
<title>Node32</title>
<g id="a_node30"><a xlink:href="vdp__set__palette_8c.html" target="_top" xlink:title="Copyright (c) 2021 Daishi Mori (mori0091)">
<polygon fill="none" stroke="black" points="1580.47,-73 1580.47,-92 1690.47,-92 1690.47,-73 1580.47,-73"/>
<text text-anchor="middle" x="1635.47" y="-80" font-family="Helvetica,sans-Serif" font-size="10.00">src/vdp_set_palette.c</text>
</a>
</g>
</g>
<!-- Node10&#45;&gt;Node32 -->
<g id="edge33" class="edge">
<title>Node10&#45;&gt;Node32</title>
<path fill="none" stroke="midnightblue" d="M2664.15,-142.02C2490.66,-138.24 1889.6,-123.56 1699.47,-98 1689.08,-96.6 1677.89,-94.34 1667.82,-92.01"/>
<polygon fill="midnightblue" stroke="midnightblue" points="2664.17,-145.52 2674.24,-142.23 2664.32,-138.52 2664.17,-145.52"/>
</g>
<!-- Node33 -->
<g id="node31" class="node">
<title>Node33</title>
<g id="a_node31"><a xlink:href="vdp__set__pattern__table_8c.html" target="_top" xlink:title="Copyright (c) 2021 Daishi Mori (mori0091)">
<polygon fill="none" stroke="black" points="1708.97,-67.5 1708.97,-97.5 1811.97,-97.5 1811.97,-67.5 1708.97,-67.5"/>
<text text-anchor="start" x="1716.97" y="-85.5" font-family="Helvetica,sans-Serif" font-size="10.00">src/vdp_set_pattern</text>
<text text-anchor="middle" x="1760.47" y="-74.5" font-family="Helvetica,sans-Serif" font-size="10.00">_table.c</text>
</a>
</g>
</g>
<!-- Node10&#45;&gt;Node33 -->
<g id="edge34" class="edge">
<title>Node10&#45;&gt;Node33</title>
<path fill="none" stroke="midnightblue" d="M2664.09,-143.64C2530.71,-144.79 2140.95,-143.66 1821.47,-98 1818.45,-97.57 1815.36,-97.06 1812.26,-96.49"/>
<polygon fill="midnightblue" stroke="midnightblue" points="2664.39,-147.14 2674.36,-143.54 2664.32,-140.14 2664.39,-147.14"/>
</g>
<!-- Node34 -->
<g id="node32" class="node">
<title>Node34</title>
<g id="a_node32"><a xlink:href="vdp__set__screen__lines_8c.html" target="_top" xlink:title="Copyright (c) 2021 Daishi Mori (mori0091)">
<polygon fill="none" stroke="black" points="1830.47,-67.5 1830.47,-97.5 1932.47,-97.5 1932.47,-67.5 1830.47,-67.5"/>
<text text-anchor="start" x="1838.47" y="-85.5" font-family="Helvetica,sans-Serif" font-size="10.00">src/vdp_set_screen</text>
<text text-anchor="middle" x="1881.47" y="-74.5" font-family="Helvetica,sans-Serif" font-size="10.00">_lines.c</text>
</a>
</g>
</g>
<!-- Node10&#45;&gt;Node34 -->
<g id="edge35" class="edge">
<title>Node10&#45;&gt;Node34</title>
<path fill="none" stroke="midnightblue" d="M2664.34,-143.17C2543.49,-142.96 2213.02,-138.42 1941.47,-98 1938.61,-97.57 1935.68,-97.08 1932.74,-96.53"/>
<polygon fill="midnightblue" stroke="midnightblue" points="2664.36,-146.67 2674.36,-143.17 2664.36,-139.67 2664.36,-146.67"/>
</g>
<!-- Node35 -->
<g id="node33" class="node">
<title>Node35</title>
<g id="a_node33"><a xlink:href="vdp__set__screen__mode_8c.html" target="_top" xlink:title="Copyright (c) 2021 Daishi Mori (mori0091)">
<polygon fill="none" stroke="black" points="1950.47,-67.5 1950.47,-97.5 2052.47,-97.5 2052.47,-67.5 1950.47,-67.5"/>
<text text-anchor="start" x="1958.47" y="-85.5" font-family="Helvetica,sans-Serif" font-size="10.00">src/vdp_set_screen</text>
<text text-anchor="middle" x="2001.47" y="-74.5" font-family="Helvetica,sans-Serif" font-size="10.00">_mode.c</text>
</a>
</g>
</g>
<!-- Node10&#45;&gt;Node35 -->
<g id="edge36" class="edge">
<title>Node10&#45;&gt;Node35</title>
<path fill="none" stroke="midnightblue" d="M2663.92,-142.51C2555.98,-140.78 2284.43,-132.99 2060.47,-98 2057.86,-97.59 2055.2,-97.13 2052.53,-96.62"/>
<polygon fill="midnightblue" stroke="midnightblue" points="2664.1,-146.01 2674.15,-142.66 2664.2,-139.01 2664.1,-146.01"/>
</g>
<!-- Node36 -->
<g id="node34" class="node">
<title>Node36</title>
<g id="a_node34"><a xlink:href="vdp__set__sprite__attribute__table_8c.html" target="_top" xlink:title="Copyright (c) 2021 Daishi Mori (mori0091)">
<polygon fill="none" stroke="black" points="2069.97,-67.5 2069.97,-97.5 2166.97,-97.5 2166.97,-67.5 2069.97,-67.5"/>
<text text-anchor="start" x="2077.97" y="-85.5" font-family="Helvetica,sans-Serif" font-size="10.00">src/vdp_set_sprite</text>
<text text-anchor="middle" x="2118.47" y="-74.5" font-family="Helvetica,sans-Serif" font-size="10.00">_attribute_table.c</text>
</a>
</g>
</g>
<!-- Node10&#45;&gt;Node36 -->
<g id="edge37" class="edge">
<title>Node10&#45;&gt;Node36</title>
<path fill="none" stroke="midnightblue" d="M2664.14,-141.65C2570.31,-138.4 2354.33,-128.05 2175.47,-98 2172.75,-97.54 2169.97,-97.02 2167.17,-96.45"/>
<polygon fill="midnightblue" stroke="midnightblue" points="2664.05,-145.15 2674.16,-141.99 2664.29,-138.16 2664.05,-145.15"/>
</g>
<!-- Node37 -->
<g id="node35" class="node">
<title>Node37</title>
<g id="a_node35"><a xlink:href="vdp__set__sprite__pattern__table_8c.html" target="_top" xlink:title="Copyright (c) 2021 Daishi Mori (mori0091)">
<polygon fill="none" stroke="black" points="2184.97,-67.5 2184.97,-97.5 2281.97,-97.5 2281.97,-67.5 2184.97,-67.5"/>
<text text-anchor="start" x="2192.97" y="-85.5" font-family="Helvetica,sans-Serif" font-size="10.00">src/vdp_set_sprite</text>
<text text-anchor="middle" x="2233.47" y="-74.5" font-family="Helvetica,sans-Serif" font-size="10.00">_pattern_table.c</text>
</a>
</g>
</g>
<!-- Node10&#45;&gt;Node37 -->
<g id="edge38" class="edge">
<title>Node10&#45;&gt;Node37</title>
<path fill="none" stroke="midnightblue" d="M2664.31,-140.16C2586.13,-134.97 2424.97,-122.17 2290.47,-98 2287.75,-97.51 2284.98,-96.97 2282.19,-96.38"/>
<polygon fill="midnightblue" stroke="midnightblue" points="2664.12,-143.66 2674.33,-140.82 2664.58,-136.67 2664.12,-143.66"/>
</g>
<!-- Node38 -->
<g id="node36" class="node">
<title>Node38</title>
<g id="a_node36"><a xlink:href="vdp__set__sprite__size_8c.html" target="_top" xlink:title="Copyright (c) 2021 Daishi Mori (mori0091)">
<polygon fill="none" stroke="black" points="2299.97,-67.5 2299.97,-97.5 2396.97,-97.5 2396.97,-67.5 2299.97,-67.5"/>
<text text-anchor="start" x="2307.97" y="-85.5" font-family="Helvetica,sans-Serif" font-size="10.00">src/vdp_set_sprite</text>
<text text-anchor="middle" x="2348.47" y="-74.5" font-family="Helvetica,sans-Serif" font-size="10.00">_size.c</text>
</a>
</g>
</g>
<!-- Node10&#45;&gt;Node38 -->
<g id="edge39" class="edge">
<title>Node10&#45;&gt;Node38</title>
<path fill="none" stroke="midnightblue" d="M2664.05,-137.57C2603.68,-130.29 2496.3,-116.18 2405.47,-98 2402.76,-97.46 2400,-96.87 2397.21,-96.25"/>
<polygon fill="midnightblue" stroke="midnightblue" points="2663.7,-141.05 2674.04,-138.76 2664.53,-134.1 2663.7,-141.05"/>
</g>
<!-- Node39 -->
<g id="node37" class="node">
<title>Node39</title>
<g id="a_node37"><a xlink:href="vdp__set__sprite__visible_8c.html" target="_top" xlink:title="Copyright (c) 2021 Daishi Mori (mori0091)">
<polygon fill="none" stroke="black" points="2414.97,-67.5 2414.97,-97.5 2511.97,-97.5 2511.97,-67.5 2414.97,-67.5"/>
<text text-anchor="start" x="2422.97" y="-85.5" font-family="Helvetica,sans-Serif" font-size="10.00">src/vdp_set_sprite</text>
<text text-anchor="middle" x="2463.47" y="-74.5" font-family="Helvetica,sans-Serif" font-size="10.00">_visible.c</text>
</a>
</g>
</g>
<!-- Node10&#45;&gt;Node39 -->
<g id="edge40" class="edge">
<title>Node10&#45;&gt;Node39</title>
<path fill="none" stroke="midnightblue" d="M2664.78,-132.11C2626.29,-123.1 2570.3,-109.89 2521.47,-98 2518.44,-97.26 2515.33,-96.5 2512.19,-95.73"/>
<polygon fill="midnightblue" stroke="midnightblue" points="2664.12,-135.55 2674.66,-134.42 2665.72,-128.74 2664.12,-135.55"/>
</g>
<!-- Node40 -->
<g id="node38" class="node">
<title>Node40</title>
<g id="a_node38"><a xlink:href="vdp__set__visible_8c.html" target="_top" xlink:title="Copyright (c) 2021 Daishi Mori (mori0091)">
<polygon fill="none" stroke="black" points="2530.47,-73 2530.47,-92 2638.47,-92 2638.47,-73 2530.47,-73"/>
<text text-anchor="middle" x="2584.47" y="-80" font-family="Helvetica,sans-Serif" font-size="10.00">src/vdp_set_visible.c</text>
</a>
</g>
</g>
<!-- Node10&#45;&gt;Node40 -->
<g id="edge41" class="edge">
<title>Node10&#45;&gt;Node40</title>
<path fill="none" stroke="midnightblue" d="M2684.09,-130.17C2659.45,-118.63 2623.93,-101.99 2602.63,-92.01"/>
<polygon fill="midnightblue" stroke="midnightblue" points="2682.73,-133.4 2693.27,-134.48 2685.7,-127.06 2682.73,-133.4"/>
</g>
<!-- Node41 -->
<g id="node39" class="node">
<title>Node41</title>
<g id="a_node39"><a xlink:href="vdp__set__vscroll_8c.html" target="_top" xlink:title="Copyright (c) 2021 Daishi Mori (mori0091)">
<polygon fill="none" stroke="black" points="2656.97,-73 2656.97,-92 2765.97,-92 2765.97,-73 2656.97,-73"/>
<text text-anchor="middle" x="2711.47" y="-80" font-family="Helvetica,sans-Serif" font-size="10.00">src/vdp_set_vscroll.c</text>
</a>
</g>
</g>
<!-- Node10&#45;&gt;Node41 -->
<g id="edge42" class="edge">
<title>Node10&#45;&gt;Node41</title>
<path fill="none" stroke="midnightblue" d="M2711.47,-124.32C2711.47,-113.5 2711.47,-100.4 2711.47,-92.01"/>
<polygon fill="midnightblue" stroke="midnightblue" points="2707.97,-124.48 2711.47,-134.48 2714.97,-124.48 2707.97,-124.48"/>
</g>
<!-- Node42 -->
<g id="node40" class="node">
<title>Node42</title>
<g id="a_node40"><a xlink:href="vdp__write__control_8c.html" target="_top" xlink:title="Copyright (c) 2021 Daishi Mori (mori0091)">
<polygon fill="none" stroke="black" points="2783.97,-73 2783.97,-92 2900.97,-92 2900.97,-73 2783.97,-73"/>
<text text-anchor="middle" x="2842.47" y="-80" font-family="Helvetica,sans-Serif" font-size="10.00">src/vdp_write_control.c</text>
</a>
</g>
</g>
<!-- Node10&#45;&gt;Node42 -->
<g id="edge43" class="edge">
<title>Node10&#45;&gt;Node42</title>
<path fill="none" stroke="midnightblue" d="M2739.37,-130.33C2764.8,-118.78 2801.67,-102.03 2823.73,-92.01"/>
<polygon fill="midnightblue" stroke="midnightblue" points="2737.89,-127.15 2730.24,-134.48 2740.79,-133.53 2737.89,-127.15"/>
</g>
<!-- Node43 -->
<g id="node41" class="node">
<title>Node43</title>
<g id="a_node41"><a xlink:href="vdp__write__palette_8c.html" target="_top" xlink:title="Copyright (c) 2021 Daishi Mori (mori0091)">
<polygon fill="none" stroke="black" points="2918.97,-73 2918.97,-92 3035.97,-92 3035.97,-73 2918.97,-73"/>
<text text-anchor="middle" x="2977.47" y="-80" font-family="Helvetica,sans-Serif" font-size="10.00">src/vdp_write_palette.c</text>
</a>
</g>
</g>
<!-- Node10&#45;&gt;Node43 -->
<g id="edge44" class="edge">
<title>Node10&#45;&gt;Node43</title>
<path fill="none" stroke="midnightblue" d="M2758.61,-132.46C2810.07,-120.94 2891.48,-102.73 2939.16,-92.07"/>
<polygon fill="midnightblue" stroke="midnightblue" points="2757.73,-129.07 2748.73,-134.66 2759.26,-135.9 2757.73,-129.07"/>
</g>
<!-- Node44 -->
<g id="node42" class="node">
<title>Node44</title>
<g id="a_node42"><a xlink:href="vmem__memset_8c.html" target="_top" xlink:title="Copyright (c) 2021 Daishi Mori (mori0091)">
<polygon fill="none" stroke="black" points="3054.47,-73 3054.47,-92 3162.47,-92 3162.47,-73 3054.47,-73"/>
<text text-anchor="middle" x="3108.47" y="-80" font-family="Helvetica,sans-Serif" font-size="10.00">src/vmem_memset.c</text>
</a>
</g>
</g>
<!-- Node10&#45;&gt;Node44 -->
<g id="edge45" class="edge">
<title>Node10&#45;&gt;Node44</title>
<path fill="none" stroke="midnightblue" d="M2759.04,-137.99C2824.02,-130.83 2944.05,-116.46 3045.47,-98 3054.74,-96.31 3064.71,-94.17 3073.93,-92.05"/>
<polygon fill="midnightblue" stroke="midnightblue" points="2758.27,-134.55 2748.71,-139.12 2759.03,-141.51 2758.27,-134.55"/>
</g>
<!-- Node45 -->
<g id="node43" class="node">
<title>Node45</title>
<g id="a_node43"><a xlink:href="vmem__read_8c.html" target="_top" xlink:title="Copyright (c) 2021 Daishi Mori (mori0091)">
<polygon fill="none" stroke="black" points="3180.47,-73 3180.47,-92 3272.47,-92 3272.47,-73 3180.47,-73"/>
<text text-anchor="middle" x="3226.47" y="-80" font-family="Helvetica,sans-Serif" font-size="10.00">src/vmem_read.c</text>
</a>
</g>
</g>
<!-- Node10&#45;&gt;Node45 -->
<g id="edge46" class="edge">
<title>Node10&#45;&gt;Node45</title>
<path fill="none" stroke="midnightblue" d="M2758.93,-140.87C2842.76,-136.55 3022.26,-124.79 3171.47,-98 3180.02,-96.46 3189.19,-94.27 3197.55,-92.05"/>
<polygon fill="midnightblue" stroke="midnightblue" points="2758.52,-137.38 2748.71,-141.38 2758.88,-144.38 2758.52,-137.38"/>
</g>
<!-- Node46 -->
<g id="node44" class="node">
<title>Node46</title>
<g id="a_node44"><a xlink:href="vmem__set__read__address_8c.html" target="_top" xlink:title="Copyright (c) 2021 Daishi Mori (mori0091)">
<polygon fill="none" stroke="black" points="3290.47,-73 3290.47,-92 3440.47,-92 3440.47,-73 3290.47,-73"/>
<text text-anchor="middle" x="3365.47" y="-80" font-family="Helvetica,sans-Serif" font-size="10.00">src/vmem_set_read_address.c</text>
</a>
</g>
</g>
<!-- Node10&#45;&gt;Node46 -->
<g id="edge47" class="edge">
<title>Node10&#45;&gt;Node46</title>
<path fill="none" stroke="midnightblue" d="M2758.75,-140.74C2856.61,-135.75 3088.32,-122.24 3281.47,-98 3294.24,-96.4 3308.04,-94.21 3320.68,-92.02"/>
<polygon fill="midnightblue" stroke="midnightblue" points="2758.41,-137.26 2748.6,-141.26 2758.76,-144.25 2758.41,-137.26"/>
</g>
<!-- Node47 -->
<g id="node45" class="node">
<title>Node47</title>
<g id="a_node45"><a xlink:href="vmem__set__sprite__color__s_8c.html" target="_top" xlink:title="Copyright (c) 2021 Daishi Mori (mori0091)">
<polygon fill="none" stroke="black" points="5114.47,-0.5 5114.47,-30.5 5222.47,-30.5 5222.47,-0.5 5114.47,-0.5"/>
<text text-anchor="start" x="5122.47" y="-18.5" font-family="Helvetica,sans-Serif" font-size="10.00">src/vmem_set_sprite</text>
<text text-anchor="middle" x="5168.47" y="-7.5" font-family="Helvetica,sans-Serif" font-size="10.00">_color_s.c</text>
</a>
</g>
</g>
<!-- Node10&#45;&gt;Node47 -->
<g id="edge48" class="edge">
<title>Node10&#45;&gt;Node47</title>
<path fill="none" stroke="midnightblue" d="M2758.95,-143.23C3066.16,-144.56 4766.95,-149.53 4991.47,-98 5050.49,-84.45 5113.51,-50 5146.08,-30.51"/>
<polygon fill="midnightblue" stroke="midnightblue" points="2758.63,-139.73 2748.62,-143.18 2758.6,-146.73 2758.63,-139.73"/>
</g>
<!-- Node48 -->
<g id="node46" class="node">
<title>Node48</title>
<g id="a_node46"><a xlink:href="vmem__set__write__address_8c.html" target="_top" xlink:title="Copyright (c) 2021 Daishi Mori (mori0091)">
<polygon fill="none" stroke="black" points="3458.97,-67.5 3458.97,-97.5 3563.97,-97.5 3563.97,-67.5 3458.97,-67.5"/>
<text text-anchor="start" x="3466.97" y="-85.5" font-family="Helvetica,sans-Serif" font-size="10.00">src/vmem_set_write</text>
<text text-anchor="middle" x="3511.47" y="-74.5" font-family="Helvetica,sans-Serif" font-size="10.00">_address.c</text>
</a>
</g>
</g>
<!-- Node10&#45;&gt;Node48 -->
<g id="edge49" class="edge">
<title>Node10&#45;&gt;Node48</title>
<path fill="none" stroke="midnightblue" d="M2758.64,-142.88C2876.04,-141.97 3190.56,-135.89 3449.47,-98 3452.53,-97.55 3455.66,-97.03 3458.82,-96.45"/>
<polygon fill="midnightblue" stroke="midnightblue" points="2758.53,-139.38 2748.55,-142.94 2758.58,-146.38 2758.53,-139.38"/>
</g>
<!-- Node49 -->
<g id="node47" class="node">
<title>Node49</title>
<g id="a_node47"><a xlink:href="vmem__write_8c.html" target="_top" xlink:title="Copyright (c) 2021 Daishi Mori (mori0091)">
<polygon fill="none" stroke="black" points="3582.47,-73 3582.47,-92 3676.47,-92 3676.47,-73 3582.47,-73"/>
<text text-anchor="middle" x="3629.47" y="-80" font-family="Helvetica,sans-Serif" font-size="10.00">src/vmem_write.c</text>
</a>
</g>
</g>
<!-- Node10&#45;&gt;Node49 -->
<g id="edge50" class="edge">
<title>Node10&#45;&gt;Node49</title>
<path fill="none" stroke="midnightblue" d="M2758.87,-141.78C2915.33,-137.57 3414.39,-122.49 3573.47,-98 3582.5,-96.61 3592.19,-94.38 3600.92,-92.07"/>
<polygon fill="midnightblue" stroke="midnightblue" points="2758.54,-138.29 2748.64,-142.06 2758.73,-145.29 2758.54,-138.29"/>
</g>
<!-- Node11&#45;&gt;Node2 -->
<g id="edge13" class="edge">
<title>Node11&#45;&gt;Node2</title>
<path fill="none" stroke="midnightblue" d="M4911.65,-66.21C4895.89,-53.41 4873.96,-35.59 4861.09,-25.13"/>
<polygon fill="midnightblue" stroke="midnightblue" points="4909.71,-69.14 4919.68,-72.73 4914.12,-63.71 4909.71,-69.14"/>
</g>
<!-- Node12 -->
<g id="node12" class="node">
<title>Node12</title>
<g id="a_node12"><a xlink:href="vmem__set__metasprite__a_8c.html" target="_top" xlink:title="Copyright (c) 2021 Daishi Mori (mori0091)">
<polygon fill="none" stroke="black" points="4927.47,-6 4927.47,-25 5075.47,-25 5075.47,-6 4927.47,-6"/>
<text text-anchor="middle" x="5001.47" y="-13" font-family="Helvetica,sans-Serif" font-size="10.00">src/vmem_set_metasprite_a.c</text>
</a>
</g>
</g>
<!-- Node11&#45;&gt;Node12 -->
<g id="edge14" class="edge">
<title>Node11&#45;&gt;Node12</title>
<path fill="none" stroke="midnightblue" d="M4947.56,-65.86C4961.51,-53.08 4980.72,-35.49 4992.04,-25.13"/>
<polygon fill="midnightblue" stroke="midnightblue" points="4945.06,-63.4 4940.04,-72.73 4949.78,-68.56 4945.06,-63.4"/>
</g>
<!-- Node50&#45;&gt;Node2 -->
<g id="edge53" class="edge">
<title>Node50&#45;&gt;Node2</title>
<path fill="none" stroke="midnightblue" d="M4917.86,-181.96C4904.09,-162.56 4882.27,-129.47 4869.47,-98 4859.18,-72.7 4853.76,-40.6 4851.6,-25.34"/>
<polygon fill="midnightblue" stroke="midnightblue" points="4915.21,-184.26 4923.91,-190.31 4920.88,-180.16 4915.21,-184.26"/>
</g>
<!-- Node50&#45;&gt;Node10 -->
<g id="edge62" class="edge">
<title>Node50&#45;&gt;Node10</title>
<path fill="none" stroke="midnightblue" d="M4877.62,-197.71C4569.49,-190.22 3009.55,-152.25 2748.54,-145.9"/>
<polygon fill="midnightblue" stroke="midnightblue" points="4877.55,-201.21 4887.63,-197.96 4877.72,-194.22 4877.55,-201.21"/>
</g>
<!-- Node50&#45;&gt;Node11 -->
<g id="edge52" class="edge">
<title>Node50&#45;&gt;Node11</title>
<path fill="none" stroke="midnightblue" d="M4930.47,-180.16C4930.47,-154.87 4930.47,-110.94 4930.47,-92.28"/>
<polygon fill="midnightblue" stroke="midnightblue" points="4926.97,-180.32 4930.47,-190.32 4933.97,-180.32 4926.97,-180.32"/>
</g>
<!-- Node50&#45;&gt;Node47 -->
<g id="edge63" class="edge">
<title>Node50&#45;&gt;Node47</title>
<path fill="none" stroke="midnightblue" d="M4983.09,-199.16C5053.76,-196.15 5176.76,-178.81 5231.47,-98 5239.19,-86.59 5237.43,-79.42 5231.47,-67 5224.01,-51.46 5209.17,-39.19 5195.77,-30.64"/>
<polygon fill="midnightblue" stroke="midnightblue" points="4982.93,-195.67 4973.06,-199.51 4983.17,-202.66 4982.93,-195.67"/>
</g>
<!-- Node51 -->
<g id="node49" class="node">
<title>Node51</title>
<g id="a_node49"><a xlink:href="sprite_8h.html" target="_top" xlink:title="Copyright (c) 2021 Daishi Mori (mori0091)">
<polygon fill="none" stroke="red" points="4969.47,-134.5 4969.47,-153.5 5051.47,-153.5 5051.47,-134.5 4969.47,-134.5"/>
<text text-anchor="middle" x="5010.47" y="-141.5" font-family="Helvetica,sans-Serif" font-size="10.00">include/sprite.h</text>
</a>
</g>
</g>
<!-- Node50&#45;&gt;Node51 -->
<g id="edge54" class="edge">
<title>Node50&#45;&gt;Node51</title>
<path fill="none" stroke="midnightblue" d="M4951.77,-184.62C4966.38,-174.76 4985.29,-161.99 4997.65,-153.65"/>
<polygon fill="midnightblue" stroke="midnightblue" points="4949.65,-181.83 4943.32,-190.32 4953.57,-187.63 4949.65,-181.83"/>
</g>
<!-- Node52 -->
<g id="node50" class="node">
<title>Node52</title>
<g id="a_node50"><a xlink:href="sprite__color_8h.html" target="_top" xlink:title="Copyright (c) 2021 Daishi Mori (mori0091)">
<polygon fill="none" stroke="red" points="5114.47,-73 5114.47,-92 5222.47,-92 5222.47,-73 5114.47,-73"/>
<text text-anchor="middle" x="5168.47" y="-80" font-family="Helvetica,sans-Serif" font-size="10.00">include/sprite_color.h</text>
</a>
</g>
</g>
<!-- Node50&#45;&gt;Node52 -->
<g id="edge61" class="edge">
<title>Node50&#45;&gt;Node52</title>
<path fill="none" stroke="midnightblue" d="M4971.99,-187.48C4998.04,-179.56 5031.98,-167.97 5060.47,-154 5098.07,-135.57 5138.36,-106.45 5157.35,-92.09"/>
<polygon fill="midnightblue" stroke="midnightblue" points="4970.65,-184.22 4962.06,-190.43 4972.64,-190.93 4970.65,-184.22"/>
</g>
<!-- Node51&#45;&gt;Node2 -->
<g id="edge56" class="edge">
<title>Node51&#45;&gt;Node2</title>
<path fill="none" stroke="midnightblue" d="M5010.53,-123.94C5009.57,-106.99 5005.56,-82.56 4991.47,-67 4977.07,-51.1 4922.66,-34.72 4885.79,-25.08"/>
<polygon fill="midnightblue" stroke="midnightblue" points="5007.04,-124.36 5010.79,-134.27 5014.03,-124.18 5007.04,-124.36"/>
</g>
<!-- Node51&#45;&gt;Node11 -->
<g id="edge55" class="edge">
<title>Node51&#45;&gt;Node11</title>
<path fill="none" stroke="midnightblue" d="M4990.69,-128.29C4975.35,-116.88 4954.61,-101.46 4941.91,-92.01"/>
<polygon fill="midnightblue" stroke="midnightblue" points="4988.89,-131.32 4999.01,-134.48 4993.07,-125.7 4988.89,-131.32"/>
</g>
<!-- Node51&#45;&gt;Node12 -->
<g id="edge60" class="edge">
<title>Node51&#45;&gt;Node12</title>
<path fill="none" stroke="midnightblue" d="M5017.93,-124.66C5023.23,-109.23 5028.72,-86.6 5024.47,-67 5021.08,-51.37 5012.41,-34.78 5006.74,-25.04"/>
<polygon fill="midnightblue" stroke="midnightblue" points="5014.63,-123.48 5014.41,-134.07 5021.19,-125.93 5014.63,-123.48"/>
</g>
<!-- Node51&#45;&gt;Node52 -->
<g id="edge57" class="edge">
<title>Node51&#45;&gt;Node52</title>
<path fill="none" stroke="midnightblue" d="M5042.51,-130.93C5073.22,-119.37 5118.79,-102.21 5145.87,-92.01"/>
<polygon fill="midnightblue" stroke="midnightblue" points="5041.23,-127.68 5033.11,-134.48 5043.7,-134.23 5041.23,-127.68"/>
</g>
<!-- Node52&#45;&gt;Node2 -->
<g id="edge58" class="edge">
<title>Node52&#45;&gt;Node2</title>
<path fill="none" stroke="midnightblue" d="M5115.47,-70.97C5064.85,-60.86 4986.41,-45.1 4918.47,-31 4908.78,-28.99 4898.32,-26.78 4888.58,-24.7"/>
<polygon fill="midnightblue" stroke="midnightblue" points="5115.04,-74.45 5125.53,-72.97 5116.41,-67.58 5115.04,-74.45"/>
</g>
<!-- Node52&#45;&gt;Node47 -->
<g id="edge59" class="edge">
<title>Node52&#45;&gt;Node47</title>
<path fill="none" stroke="midnightblue" d="M5168.47,-62.41C5168.47,-52.22 5168.47,-39.9 5168.47,-30.59"/>
<polygon fill="midnightblue" stroke="midnightblue" points="5164.97,-62.73 5168.47,-72.73 5171.97,-62.73 5164.97,-62.73"/>
</g>
</g>
</svg>
