<?xml version="1.0" encoding="UTF-8" standalone="no"?>
<!DOCTYPE svg PUBLIC "-//W3C//DTD SVG 1.1//EN"
 "http://www.w3.org/Graphics/SVG/1.1/DTD/svg11.dtd">
<!-- Generated by graphviz version 7.0.5 (20221223.1930)
 -->
<!-- Title: include/io.h Pages: 1 -->
<svg width="1068pt" height="302pt"
 viewBox="0.00 0.00 1067.50 302.00" xmlns="http://www.w3.org/2000/svg" xmlns:xlink="http://www.w3.org/1999/xlink">
<g id="graph0" class="graph" transform="scale(1 1) rotate(0) translate(4 298)">
<title>include/io.h</title>
<!-- Node1 -->
<g id="node1" class="node">
<title>Node1</title>
<g id="a_node1"><a xlink:title="Definition of I/O ports.">
<polygon fill="#999999" stroke="#666666" points="230.5,-294 165.5,-294 165.5,-275 230.5,-275 230.5,-294"/>
<text text-anchor="middle" x="198" y="-282" font-family="Helvetica,sans-Serif" font-size="10.00">include/io.h</text>
</a>
</g>
</g>
<!-- Node2 -->
<g id="node2" class="node">
<title>Node2</title>
<g id="a_node2"><a xlink:href="msx_8h.html" target="_top" xlink:title="Using #include &lt;msx.h&gt; includes almost all C header files in libmsx, for ease to use.">
<polygon fill="white" stroke="#666666" points="376,-19 300,-19 300,0 376,0 376,-19"/>
<text text-anchor="middle" x="338" y="-7" font-family="Helvetica,sans-Serif" font-size="10.00">include/msx.h</text>
</a>
</g>
</g>
<!-- Node1&#45;&gt;Node2 -->
<g id="edge1" class="edge">
<title>Node1&#45;&gt;Node2</title>
<path fill="none" stroke="#63b8ff" d="M154.18,-278.96C95.86,-270.22 0,-245.25 0,-175.5 0,-175.5 0,-175.5 0,-118.5 0,-56.2 210.97,-24.93 299.56,-14.55"/>
<polygon fill="#63b8ff" stroke="#63b8ff" points="153.42,-282.39 163.81,-280.29 154.38,-275.45 153.42,-282.39"/>
</g>
<!-- Node3 -->
<g id="node3" class="node">
<title>Node3</title>
<g id="a_node3"><a xlink:href="psg_8h.html" target="_top" xlink:title="Device interface for PSG (AY&#45;3&#45;8910) an internal sound chip.">
<polygon fill="white" stroke="#666666" points="155,-239 81,-239 81,-220 155,-220 155,-239"/>
<text text-anchor="middle" x="118" y="-227" font-family="Helvetica,sans-Serif" font-size="10.00">include/psg.h</text>
</a>
</g>
</g>
<!-- Node1&#45;&gt;Node3 -->
<g id="edge2" class="edge">
<title>Node1&#45;&gt;Node3</title>
<path fill="none" stroke="#63b8ff" d="M174.89,-268.19C160.77,-258.84 143.22,-247.21 131.37,-239.36"/>
<polygon fill="#63b8ff" stroke="#63b8ff" points="172.9,-271.07 183.17,-273.67 176.76,-265.23 172.9,-271.07"/>
</g>
<!-- Node5 -->
<g id="node5" class="node">
<title>Node5</title>
<g id="a_node5"><a xlink:href="vdp_8h.html" target="_top" xlink:title="Data types and functions for VDP (Video Display Proccessor) access.">
<polygon fill="white" stroke="#666666" points="310,-129 236,-129 236,-110 310,-110 310,-129"/>
<text text-anchor="middle" x="273" y="-117" font-family="Helvetica,sans-Serif" font-size="10.00">include/vdp.h</text>
</a>
</g>
</g>
<!-- Node1&#45;&gt;Node5 -->
<g id="edge5" class="edge">
<title>Node1&#45;&gt;Node5</title>
<path fill="none" stroke="#63b8ff" d="M196.95,-263.25C196.57,-238.41 198.99,-195.8 217,-165 226.15,-149.35 243.08,-137.08 255.94,-129.42"/>
<polygon fill="#63b8ff" stroke="#63b8ff" points="193.45,-263.37 197.29,-273.24 200.44,-263.13 193.45,-263.37"/>
</g>
<!-- Node7 -->
<g id="node7" class="node">
<title>Node7</title>
<g id="a_node7"><a xlink:href="vdp__unsafe_8h.html" target="_top" xlink:title="Unsafe primitive functions for VDP (Video Display Proccessor) access.">
<polygon fill="white" stroke="#666666" points="334,-184 226,-184 226,-165 334,-165 334,-184"/>
<text text-anchor="middle" x="280" y="-172" font-family="Helvetica,sans-Serif" font-size="10.00">include/vdp_unsafe.h</text>
</a>
</g>
</g>
<!-- Node1&#45;&gt;Node7 -->
<g id="edge9" class="edge">
<title>Node1&#45;&gt;Node7</title>
<path fill="none" stroke="#63b8ff" d="M211.67,-265.49C229.42,-242.11 259.72,-202.2 273.2,-184.46"/>
<polygon fill="#63b8ff" stroke="#63b8ff" points="208.89,-263.38 205.63,-273.46 214.46,-267.61 208.89,-263.38"/>
</g>
<!-- Node8 -->
<g id="node8" class="node">
<title>Node8</title>
<g id="a_node8"><a xlink:href="vmem_8h.html" target="_top" xlink:title="Data types and functions for VRAM access.">
<polygon fill="white" stroke="#666666" points="499.5,-239 414.5,-239 414.5,-220 499.5,-220 499.5,-239"/>
<text text-anchor="middle" x="457" y="-227" font-family="Helvetica,sans-Serif" font-size="10.00">include/vmem.h</text>
</a>
</g>
</g>
<!-- Node1&#45;&gt;Node8 -->
<g id="edge11" class="edge">
<title>Node1&#45;&gt;Node8</title>
<path fill="none" stroke="#63b8ff" d="M241.78,-274.54C289.83,-264.71 366.46,-249.03 414.15,-239.27"/>
<polygon fill="#63b8ff" stroke="#63b8ff" points="241.38,-271.05 232.29,-276.48 242.78,-277.91 241.38,-271.05"/>
</g>
<!-- Node3&#45;&gt;Node2 -->
<g id="edge4" class="edge">
<title>Node3&#45;&gt;Node2</title>
<path fill="none" stroke="#63b8ff" d="M88,-214.28C67.36,-202.4 45.57,-184.34 57,-165 110.06,-75.27 235.84,-34.15 299.57,-18.53"/>
<polygon fill="#63b8ff" stroke="#63b8ff" points="86.09,-217.22 96.56,-218.87 89.4,-211.06 86.09,-217.22"/>
</g>
<!-- Node4 -->
<g id="node4" class="node">
<title>Node4</title>
<g id="a_node4"><a xlink:href="ay__3__8910_8h.html" target="_top" xlink:title="Buffer for PSG (AY&#45;3&#45;8910) registers.">
<polygon fill="white" stroke="#666666" points="170,-184 66,-184 66,-165 170,-165 170,-184"/>
<text text-anchor="middle" x="118" y="-172" font-family="Helvetica,sans-Serif" font-size="10.00">include/ay_3_8910.h</text>
</a>
</g>
</g>
<!-- Node3&#45;&gt;Node4 -->
<g id="edge3" class="edge">
<title>Node3&#45;&gt;Node4</title>
<path fill="none" stroke="#63b8ff" d="M118,-208.35C118,-200.1 118,-190.97 118,-184.44"/>
<polygon fill="#63b8ff" stroke="#63b8ff" points="114.5,-208.23 118,-218.23 121.5,-208.23 114.5,-208.23"/>
</g>
<!-- Node5&#45;&gt;Node2 -->
<g id="edge8" class="edge">
<title>Node5&#45;&gt;Node2</title>
<path fill="none" stroke="#63b8ff" d="M270.06,-98.52C269.09,-85.37 269.75,-68.21 277,-55 285.95,-38.68 303.74,-26.77 317.81,-19.41"/>
<polygon fill="#63b8ff" stroke="#63b8ff" points="266.54,-98.6 271.15,-108.14 273.5,-97.81 266.54,-98.6"/>
</g>
<!-- Node6 -->
<g id="node6" class="node">
<title>Node6</title>
<g id="a_node6"><a xlink:href="metasprite_8h.html" target="_top" xlink:title="Meta&#45;sprite ; an aggregate of sprites.">
<polygon fill="white" stroke="#666666" points="390,-74 286,-74 286,-55 390,-55 390,-74"/>
<text text-anchor="middle" x="338" y="-62" font-family="Helvetica,sans-Serif" font-size="10.00">include/metasprite.h</text>
</a>
</g>
</g>
<!-- Node5&#45;&gt;Node6 -->
<g id="edge6" class="edge">
<title>Node5&#45;&gt;Node6</title>
<path fill="none" stroke="#63b8ff" d="M292.79,-102.37C304.08,-93.16 317.79,-81.98 327.14,-74.36"/>
<polygon fill="#63b8ff" stroke="#63b8ff" points="290.74,-99.52 285.2,-108.55 295.16,-104.95 290.74,-99.52"/>
</g>
<!-- Node6&#45;&gt;Node2 -->
<g id="edge7" class="edge">
<title>Node6&#45;&gt;Node2</title>
<path fill="none" stroke="#63b8ff" d="M338,-43.35C338,-35.1 338,-25.97 338,-19.44"/>
<polygon fill="#63b8ff" stroke="#63b8ff" points="334.5,-43.23 338,-53.23 341.5,-43.23 334.5,-43.23"/>
</g>
<!-- Node7&#45;&gt;Node5 -->
<g id="edge10" class="edge">
<title>Node7&#45;&gt;Node5</title>
<path fill="none" stroke="#63b8ff" d="M277.34,-153.35C276.25,-145.1 275.04,-135.97 274.18,-129.44"/>
<polygon fill="#63b8ff" stroke="#63b8ff" points="273.87,-153.79 278.65,-163.25 280.81,-152.88 273.87,-153.79"/>
</g>
<!-- Node8&#45;&gt;Node2 -->
<g id="edge22" class="edge">
<title>Node8&#45;&gt;Node2</title>
<path fill="none" stroke="#63b8ff" d="M460.76,-208.4C464.42,-184.33 467.98,-143.1 457,-110 441.74,-63.99 389.11,-33.49 359.2,-19.44"/>
<polygon fill="#63b8ff" stroke="#63b8ff" points="457.34,-207.64 459.11,-218.08 464.24,-208.81 457.34,-207.64"/>
</g>
<!-- Node8&#45;&gt;Node5 -->
<g id="edge29" class="edge">
<title>Node8&#45;&gt;Node5</title>
<path fill="none" stroke="#63b8ff" d="M432.5,-214.12C393.92,-191.47 320.12,-148.16 288.27,-129.46"/>
<polygon fill="#63b8ff" stroke="#63b8ff" points="430.24,-216.85 440.64,-218.9 433.78,-210.82 430.24,-216.85"/>
</g>
<!-- Node8&#45;&gt;Node6 -->
<g id="edge21" class="edge">
<title>Node8&#45;&gt;Node6</title>
<path fill="none" stroke="#63b8ff" d="M435.74,-212.7C413.08,-194.8 377.69,-163.57 357,-129 346.36,-111.23 341.29,-87.05 339.22,-74.27"/>
<polygon fill="#63b8ff" stroke="#63b8ff" points="433.33,-215.27 443.39,-218.61 437.61,-209.73 433.33,-215.27"/>
</g>
<!-- Node8&#45;&gt;Node7 -->
<g id="edge30" class="edge">
<title>Node8&#45;&gt;Node7</title>
<path fill="none" stroke="#63b8ff" d="M416.05,-216.24C383.6,-206.52 339.03,-193.18 309.88,-184.45"/>
<polygon fill="#63b8ff" stroke="#63b8ff" points="414.94,-219.56 425.52,-219.08 416.95,-212.85 414.94,-219.56"/>
</g>
<!-- Node9 -->
<g id="node9" class="node">
<title>Node9</title>
<g id="a_node9"><a xlink:href="ZX0__decompress_8h.html" target="_top" xlink:title="Decompressor of the ZX0 data compression format version 2.">
<polygon fill="white" stroke="#666666" points="676,-129 542,-129 542,-110 676,-110 676,-129"/>
<text text-anchor="middle" x="609" y="-117" font-family="Helvetica,sans-Serif" font-size="10.00">include/ZX0_decompress.h</text>
</a>
</g>
</g>
<!-- Node8&#45;&gt;Node9 -->
<g id="edge12" class="edge">
<title>Node8&#45;&gt;Node9</title>
<path fill="none" stroke="#63b8ff" d="M482.02,-213.7C495.81,-205.33 513.11,-194.46 528,-184 554.17,-165.61 583.35,-141.89 598.53,-129.29"/>
<polygon fill="#63b8ff" stroke="#63b8ff" points="480.32,-210.64 473.55,-218.79 483.93,-216.64 480.32,-210.64"/>
</g>
<!-- Node10 -->
<g id="node10" class="node">
<title>Node10</title>
<g id="a_node10"><a xlink:href="bmem_8h.html" target="_top" xlink:title="Data types and functions for accessing banked memory.">
<polygon fill="white" stroke="#666666" points="751.5,-184 666.5,-184 666.5,-165 751.5,-165 751.5,-184"/>
<text text-anchor="middle" x="709" y="-172" font-family="Helvetica,sans-Serif" font-size="10.00">include/bmem.h</text>
</a>
</g>
</g>
<!-- Node8&#45;&gt;Node10 -->
<g id="edge13" class="edge">
<title>Node8&#45;&gt;Node10</title>
<path fill="none" stroke="#63b8ff" d="M510.82,-217.18C557.32,-207.4 623.6,-193.46 666.46,-184.45"/>
<polygon fill="#63b8ff" stroke="#63b8ff" points="510.3,-213.71 501.23,-219.2 511.74,-220.56 510.3,-213.71"/>
</g>
<!-- Node17 -->
<g id="node17" class="node">
<title>Node17</title>
<g id="a_node17"><a xlink:href="sprite_8h.html" target="_top" xlink:title="Sprites.">
<polygon fill="white" stroke="#666666" points="448,-129 366,-129 366,-110 448,-110 448,-129"/>
<text text-anchor="middle" x="407" y="-117" font-family="Helvetica,sans-Serif" font-size="10.00">include/sprite.h</text>
</a>
</g>
</g>
<!-- Node8&#45;&gt;Node17 -->
<g id="edge23" class="edge">
<title>Node8&#45;&gt;Node17</title>
<path fill="none" stroke="#63b8ff" d="M448.07,-209.22C437.18,-185.69 419.22,-146.89 411.15,-129.46"/>
<polygon fill="#63b8ff" stroke="#63b8ff" points="444.89,-210.68 452.27,-218.29 451.25,-207.74 444.89,-210.68"/>
</g>
<!-- Node18 -->
<g id="node18" class="node">
<title>Node18</title>
<g id="a_node18"><a xlink:href="sprite__color_8h.html" target="_top" xlink:title="Sprite color table interface.">
<polygon fill="white" stroke="#666666" points="602,-74 494,-74 494,-55 602,-55 602,-74"/>
<text text-anchor="middle" x="548" y="-62" font-family="Helvetica,sans-Serif" font-size="10.00">include/sprite_color.h</text>
</a>
</g>
</g>
<!-- Node8&#45;&gt;Node18 -->
<g id="edge28" class="edge">
<title>Node8&#45;&gt;Node18</title>
<path fill="none" stroke="#63b8ff" d="M471.41,-210.64C477.5,-202.71 484.45,-193.13 490,-184 513.81,-144.87 535.82,-94.55 544.31,-74.41"/>
<polygon fill="#63b8ff" stroke="#63b8ff" points="468.7,-208.42 465.27,-218.45 474.2,-212.75 468.7,-208.42"/>
</g>
<!-- Node19 -->
<g id="node19" class="node">
<title>Node19</title>
<g id="a_node19"><a xlink:href="vmem__rw_8h.html" target="_top" xlink:title="Stream like access functions for VRAM.">
<polygon fill="white" stroke="#666666" points="870.5,-184 769.5,-184 769.5,-165 870.5,-165 870.5,-184"/>
<text text-anchor="middle" x="820" y="-172" font-family="Helvetica,sans-Serif" font-size="10.00">include/vmem_rw.h</text>
</a>
</g>
</g>
<!-- Node8&#45;&gt;Node19 -->
<g id="edge31" class="edge">
<title>Node8&#45;&gt;Node19</title>
<path fill="none" stroke="#63b8ff" d="M510.84,-220.64C580.46,-210.47 700.82,-192.9 769.01,-182.94"/>
<polygon fill="#63b8ff" stroke="#63b8ff" points="510.6,-217.14 501.21,-222.05 511.61,-224.06 510.6,-217.14"/>
</g>
<!-- Node10&#45;&gt;Node9 -->
<g id="edge14" class="edge">
<title>Node10&#45;&gt;Node9</title>
<path fill="none" stroke="#63b8ff" d="M681.89,-159.13C663.96,-149.63 641.02,-137.47 625.71,-129.36"/>
<polygon fill="#63b8ff" stroke="#63b8ff" points="680.22,-162.21 690.7,-163.8 683.5,-156.02 680.22,-162.21"/>
</g>
<!-- Node11 -->
<g id="node11" class="node">
<title>Node11</title>
<g id="a_node11"><a xlink:href="bmem__rd_8h.html" target="_top" xlink:title="Stream like access functions for Banked Memory.">
<polygon fill="white" stroke="#666666" points="792,-129 694,-129 694,-110 792,-110 792,-129"/>
<text text-anchor="middle" x="743" y="-117" font-family="Helvetica,sans-Serif" font-size="10.00">include/bmem_rd.h</text>
</a>
</g>
</g>
<!-- Node10&#45;&gt;Node11 -->
<g id="edge15" class="edge">
<title>Node10&#45;&gt;Node11</title>
<path fill="none" stroke="#63b8ff" d="M720.82,-155.08C726.39,-146.4 732.78,-136.44 737.26,-129.44"/>
<polygon fill="#63b8ff" stroke="#63b8ff" points="717.89,-153.17 715.43,-163.47 723.78,-156.95 717.89,-153.17"/>
</g>
<!-- Node13 -->
<g id="node13" class="node">
<title>Node13</title>
<g id="a_node13"><a xlink:href="memfile_8h.html" target="_top" xlink:title="Stream interface for ROM / RAM / MegaROM.">
<polygon fill="white" stroke="#666666" points="940,-129 848,-129 848,-110 940,-110 940,-129"/>
<text text-anchor="middle" x="894" y="-117" font-family="Helvetica,sans-Serif" font-size="10.00">include/memfile.h</text>
</a>
</g>
</g>
<!-- Node10&#45;&gt;Node13 -->
<g id="edge17" class="edge">
<title>Node10&#45;&gt;Node13</title>
<path fill="none" stroke="#63b8ff" d="M751.36,-161.36C785.31,-151.64 832.17,-138.21 862.77,-129.45"/>
<polygon fill="#63b8ff" stroke="#63b8ff" points="750.49,-157.97 741.84,-164.09 752.41,-164.7 750.49,-157.97"/>
</g>
<!-- Node16 -->
<g id="node16" class="node">
<title>Node16</title>
<g id="a_node16"><a xlink:href="resources_8h.html" target="_top" xlink:title="Data types and functions for accessing embedded resources.">
<polygon fill="white" stroke="#666666" points="1059.5,-129 958.5,-129 958.5,-110 1059.5,-110 1059.5,-129"/>
<text text-anchor="middle" x="1009" y="-117" font-family="Helvetica,sans-Serif" font-size="10.00">include/resources.h</text>
</a>
</g>
</g>
<!-- Node10&#45;&gt;Node16 -->
<g id="edge20" class="edge">
<title>Node10&#45;&gt;Node16</title>
<path fill="none" stroke="#63b8ff" d="M762.98,-163.96C818.35,-154.18 903.83,-139.08 958.07,-129.5"/>
<polygon fill="#63b8ff" stroke="#63b8ff" points="762.71,-160.46 753.47,-165.64 763.93,-167.35 762.71,-160.46"/>
</g>
<!-- Node12 -->
<g id="node12" class="node">
<title>Node12</title>
<g id="a_node12"><a xlink:href="xmem_8h.html" target="_top" xlink:title="Inter&#45;memory transfer functions for ROM / RAM, VRAM, and Banked Memory (MegaROM).">
<polygon fill="white" stroke="#666666" points="795,-74 711,-74 711,-55 795,-55 795,-74"/>
<text text-anchor="middle" x="753" y="-62" font-family="Helvetica,sans-Serif" font-size="10.00">include/xmem.h</text>
</a>
</g>
</g>
<!-- Node11&#45;&gt;Node12 -->
<g id="edge16" class="edge">
<title>Node11&#45;&gt;Node12</title>
<path fill="none" stroke="#63b8ff" d="M746.75,-98.64C748.32,-90.31 750.07,-81.05 751.31,-74.44"/>
<polygon fill="#63b8ff" stroke="#63b8ff" points="743.35,-97.79 744.93,-108.26 750.23,-99.08 743.35,-97.79"/>
</g>
<!-- Node14 -->
<g id="node14" class="node">
<title>Node14</title>
<g id="a_node14"><a xlink:href="audio__buf_8h.html" target="_top" xlink:title="Unified sound&#45;chip buffer of the libmsx audio replayer.">
<polygon fill="white" stroke="#666666" points="933,-74 833,-74 833,-55 933,-55 933,-74"/>
<text text-anchor="middle" x="883" y="-62" font-family="Helvetica,sans-Serif" font-size="10.00">include/audio_buf.h</text>
</a>
</g>
</g>
<!-- Node13&#45;&gt;Node14 -->
<g id="edge18" class="edge">
<title>Node13&#45;&gt;Node14</title>
<path fill="none" stroke="#63b8ff" d="M889.88,-98.64C888.15,-90.31 886.23,-81.05 884.86,-74.44"/>
<polygon fill="#63b8ff" stroke="#63b8ff" points="886.42,-99.19 891.88,-108.27 893.27,-97.76 886.42,-99.19"/>
</g>
<!-- Node15 -->
<g id="node15" class="node">
<title>Node15</title>
<g id="a_node15"><a xlink:href="la0_8h.html" target="_top" xlink:title="The libmsx audio format 0 (LA0) decoder.">
<polygon fill="white" stroke="#666666" points="1022.5,-74 951.5,-74 951.5,-55 1022.5,-55 1022.5,-74"/>
<text text-anchor="middle" x="987" y="-62" font-family="Helvetica,sans-Serif" font-size="10.00">include/la0.h</text>
</a>
</g>
</g>
<!-- Node13&#45;&gt;Node15 -->
<g id="edge19" class="edge">
<title>Node13&#45;&gt;Node15</title>
<path fill="none" stroke="#63b8ff" d="M919.44,-104C936.08,-94.52 957.29,-82.43 971.46,-74.36"/>
<polygon fill="#63b8ff" stroke="#63b8ff" points="918.05,-100.77 911.09,-108.76 921.51,-106.85 918.05,-100.77"/>
</g>
<!-- Node17&#45;&gt;Node2 -->
<g id="edge25" class="edge">
<title>Node17&#45;&gt;Node2</title>
<path fill="none" stroke="#63b8ff" d="M408.44,-98.42C408.47,-85.23 406.7,-68.05 399,-55 389.48,-38.85 371.56,-26.86 357.6,-19.42"/>
<polygon fill="#63b8ff" stroke="#63b8ff" points="404.95,-97.94 408.05,-108.08 411.95,-98.22 404.95,-97.94"/>
</g>
<!-- Node17&#45;&gt;Node6 -->
<g id="edge24" class="edge">
<title>Node17&#45;&gt;Node6</title>
<path fill="none" stroke="#63b8ff" d="M386.35,-102.64C374.3,-93.39 359.55,-82.05 349.53,-74.36"/>
<polygon fill="#63b8ff" stroke="#63b8ff" points="384.03,-105.27 394.09,-108.59 388.3,-99.72 384.03,-105.27"/>
</g>
<!-- Node17&#45;&gt;Node18 -->
<g id="edge26" class="edge">
<title>Node17&#45;&gt;Node18</title>
<path fill="none" stroke="#63b8ff" d="M441.36,-105.58C467.13,-95.9 501.73,-82.89 524.43,-74.36"/>
<polygon fill="#63b8ff" stroke="#63b8ff" points="440.46,-102.18 432.34,-108.98 442.93,-108.73 440.46,-102.18"/>
</g>
<!-- Node18&#45;&gt;Node2 -->
<g id="edge27" class="edge">
<title>Node18&#45;&gt;Node2</title>
<path fill="none" stroke="#63b8ff" d="M501.42,-51.74C462.77,-41.99 408.64,-28.33 373.45,-19.45"/>
<polygon fill="#63b8ff" stroke="#63b8ff" points="500.36,-55.09 510.91,-54.14 502.07,-48.3 500.36,-55.09"/>
</g>
<!-- Node19&#45;&gt;Node12 -->
<g id="edge32" class="edge">
<title>Node19&#45;&gt;Node12</title>
<path fill="none" stroke="#63b8ff" d="M816.87,-153.6C814.15,-140.48 809.3,-123.32 801,-110 791.87,-95.34 776.66,-82.4 765.81,-74.31"/>
<polygon fill="#63b8ff" stroke="#63b8ff" points="813.38,-153.97 818.6,-163.19 820.27,-152.73 813.38,-153.97"/>
</g>
</g>
</svg>
