<?xml version="1.0" encoding="UTF-8" standalone="no"?>
<!DOCTYPE svg PUBLIC "-//W3C//DTD SVG 1.1//EN"
 "http://www.w3.org/Graphics/SVG/1.1/DTD/svg11.dtd">
<!-- Generated by graphviz version 12.2.0 (20241103.1931)
 -->
<!-- Title: include/io.h Pages: 1 -->
<svg width="1066pt" height="304pt"
 viewBox="0.00 0.00 1066.00 303.50" xmlns="http://www.w3.org/2000/svg" xmlns:xlink="http://www.w3.org/1999/xlink">
<g id="graph0" class="graph" transform="scale(1 1) rotate(0) translate(4 299.5)">
<title>include/io.h</title>
<!-- Node1 -->
<g id="Node000001" class="node">
<title>Node1</title>
<g id="a_Node000001"><a xlink:title="Definition of I/O ports.">
<polygon fill="#999999" stroke="#666666" points="230.38,-295.5 165.62,-295.5 165.62,-276.25 230.38,-276.25 230.38,-295.5"/>
<text text-anchor="middle" x="198" y="-282" font-family="Helvetica,sans-Serif" font-size="10.00">include/io.h</text>
</a>
</g>
</g>
<!-- Node2 -->
<g id="Node000002" class="node">
<title>Node2</title>
<g id="a_Node000002"><a xlink:href="msx_8h.html" target="_top" xlink:title="Using #include &lt;msx.h&gt; includes almost all C header files in libmsx, for ease to use.">
<polygon fill="white" stroke="#666666" points="375.62,-19.25 300.38,-19.25 300.38,0 375.62,0 375.62,-19.25"/>
<text text-anchor="middle" x="338" y="-5.75" font-family="Helvetica,sans-Serif" font-size="10.00">include/msx.h</text>
</a>
</g>
</g>
<!-- Node1&#45;&gt;Node2 -->
<g id="edge1_Node000001_Node000002" class="edge">
<title>Node1&#45;&gt;Node2</title>
<g id="a_edge1_Node000001_Node000002"><a xlink:title=" ">
<path fill="none" stroke="#63b8ff" d="M154.18,-280.25C95.86,-271.38 0,-246.2 0,-176.38 0,-176.38 0,-176.38 0,-119.12 0,-56.72 211.49,-25.15 299.88,-14.68"/>
<polygon fill="#63b8ff" stroke="#63b8ff" points="153.42,-283.67 163.81,-281.6 154.39,-276.74 153.42,-283.67"/>
</a>
</g>
</g>
<!-- Node3 -->
<g id="Node000003" class="node">
<title>Node3</title>
<g id="a_Node000003"><a xlink:href="psg_8h.html" target="_top" xlink:title="Device interface for PSG (AY&#45;3&#45;8910) an internal sound chip.">
<polygon fill="white" stroke="#666666" points="154.5,-240.25 81.5,-240.25 81.5,-221 154.5,-221 154.5,-240.25"/>
<text text-anchor="middle" x="118" y="-226.75" font-family="Helvetica,sans-Serif" font-size="10.00">include/psg.h</text>
</a>
</g>
</g>
<!-- Node1&#45;&gt;Node3 -->
<g id="edge2_Node000001_Node000003" class="edge">
<title>Node1&#45;&gt;Node3</title>
<g id="a_edge2_Node000001_Node000003"><a xlink:title=" ">
<path fill="none" stroke="#63b8ff" d="M174.95,-269.53C160.93,-260.2 143.5,-248.6 131.64,-240.7"/>
<polygon fill="#63b8ff" stroke="#63b8ff" points="172.91,-272.38 183.17,-275 176.78,-266.55 172.91,-272.38"/>
</a>
</g>
</g>
<!-- Node5 -->
<g id="Node000005" class="node">
<title>Node5</title>
<g id="a_Node000005"><a xlink:href="vdp_8h.html" target="_top" xlink:title="Data types and functions for VDP (Video Display Proccessor) access.">
<polygon fill="white" stroke="#666666" points="309.5,-129.75 236.5,-129.75 236.5,-110.5 309.5,-110.5 309.5,-129.75"/>
<text text-anchor="middle" x="273" y="-116.25" font-family="Helvetica,sans-Serif" font-size="10.00">include/vdp.h</text>
</a>
</g>
</g>
<!-- Node1&#45;&gt;Node5 -->
<g id="edge5_Node000001_Node000005" class="edge">
<title>Node1&#45;&gt;Node5</title>
<g id="a_edge5_Node000001_Node000005"><a xlink:title=" ">
<path fill="none" stroke="#63b8ff" d="M196.93,-264.5C196.54,-239.53 198.94,-196.71 217,-165.75 226.08,-150.18 242.84,-137.93 255.67,-130.24"/>
<polygon fill="#63b8ff" stroke="#63b8ff" points="193.42,-264.39 197.26,-274.26 200.42,-264.15 193.42,-264.39"/>
</a>
</g>
</g>
<!-- Node7 -->
<g id="Node000007" class="node">
<title>Node7</title>
<g id="a_Node000007"><a xlink:href="vdp__unsafe_8h.html" target="_top" xlink:title="Unsafe primitive functions for VDP (Video Display Proccessor) access.">
<polygon fill="white" stroke="#666666" points="333.75,-185 226.25,-185 226.25,-165.75 333.75,-165.75 333.75,-185"/>
<text text-anchor="middle" x="280" y="-171.5" font-family="Helvetica,sans-Serif" font-size="10.00">include/vdp_unsafe.h</text>
</a>
</g>
</g>
<!-- Node1&#45;&gt;Node7 -->
<g id="edge9_Node000001_Node000007" class="edge">
<title>Node1&#45;&gt;Node7</title>
<g id="a_edge9_Node000001_Node000007"><a xlink:title=" ">
<path fill="none" stroke="#63b8ff" d="M211.43,-267.1C229.15,-243.66 259.66,-203.28 273.2,-185.38"/>
<polygon fill="#63b8ff" stroke="#63b8ff" points="208.86,-264.7 205.62,-274.79 214.44,-268.92 208.86,-264.7"/>
</a>
</g>
</g>
<!-- Node8 -->
<g id="Node000008" class="node">
<title>Node8</title>
<g id="a_Node000008"><a xlink:href="vmem_8h.html" target="_top" xlink:title="Data types and functions for VRAM access.">
<polygon fill="white" stroke="#666666" points="499.12,-240.25 414.88,-240.25 414.88,-221 499.12,-221 499.12,-240.25"/>
<text text-anchor="middle" x="457" y="-226.75" font-family="Helvetica,sans-Serif" font-size="10.00">include/vmem.h</text>
</a>
</g>
</g>
<!-- Node1&#45;&gt;Node8 -->
<g id="edge11_Node000001_Node000008" class="edge">
<title>Node1&#45;&gt;Node8</title>
<g id="a_edge11_Node000001_Node000008"><a xlink:title=" ">
<path fill="none" stroke="#63b8ff" d="M241.81,-275.87C290.02,-265.96 366.96,-250.14 414.6,-240.34"/>
<polygon fill="#63b8ff" stroke="#63b8ff" points="241.38,-272.38 232.29,-277.83 242.79,-279.24 241.38,-272.38"/>
</a>
</g>
</g>
<!-- Node3&#45;&gt;Node2 -->
<g id="edge4_Node000003_Node000002" class="edge">
<title>Node3&#45;&gt;Node2</title>
<g id="a_edge4_Node000003_Node000002"><a xlink:title=" ">
<path fill="none" stroke="#63b8ff" d="M87.99,-215.29C67.34,-203.33 45.55,-185.16 57,-165.75 110.18,-75.65 236.5,-34.27 300.07,-18.61"/>
<polygon fill="#63b8ff" stroke="#63b8ff" points="86.09,-218.24 96.55,-219.92 89.42,-212.09 86.09,-218.24"/>
</a>
</g>
</g>
<!-- Node4 -->
<g id="Node000004" class="node">
<title>Node4</title>
<g id="a_Node000004"><a xlink:href="ay__3__8910_8h.html" target="_top" xlink:title="Buffer for PSG (AY&#45;3&#45;8910) registers.">
<polygon fill="white" stroke="#666666" points="169.88,-185 66.12,-185 66.12,-165.75 169.88,-165.75 169.88,-185"/>
<text text-anchor="middle" x="118" y="-171.5" font-family="Helvetica,sans-Serif" font-size="10.00">include/ay_3_8910.h</text>
</a>
</g>
</g>
<!-- Node3&#45;&gt;Node4 -->
<g id="edge3_Node000003_Node000004" class="edge">
<title>Node3&#45;&gt;Node4</title>
<g id="a_edge3_Node000003_Node000004"><a xlink:title=" ">
<path fill="none" stroke="#63b8ff" d="M118,-209.38C118,-201.09 118,-191.92 118,-185.36"/>
<polygon fill="#63b8ff" stroke="#63b8ff" points="114.5,-209.32 118,-219.32 121.5,-209.32 114.5,-209.32"/>
</a>
</g>
</g>
<!-- Node5&#45;&gt;Node2 -->
<g id="edge8_Node000005_Node000002" class="edge">
<title>Node5&#45;&gt;Node2</title>
<g id="a_edge8_Node000005_Node000002"><a xlink:title=" ">
<path fill="none" stroke="#63b8ff" d="M270.45,-99.02C269.73,-85.79 270.66,-68.53 278,-55.25 286.91,-39.11 304.4,-27.15 318.21,-19.69"/>
<polygon fill="#63b8ff" stroke="#63b8ff" points="266.94,-99.08 271.36,-108.71 273.91,-98.42 266.94,-99.08"/>
</a>
</g>
</g>
<!-- Node6 -->
<g id="Node000006" class="node">
<title>Node6</title>
<g id="a_Node000006"><a xlink:href="metasprite_8h.html" target="_top" xlink:title="Meta&#45;sprite ; an aggregate of sprites.">
<polygon fill="white" stroke="#666666" points="389.5,-74.5 286.5,-74.5 286.5,-55.25 389.5,-55.25 389.5,-74.5"/>
<text text-anchor="middle" x="338" y="-61" font-family="Helvetica,sans-Serif" font-size="10.00">include/metasprite.h</text>
</a>
</g>
</g>
<!-- Node5&#45;&gt;Node6 -->
<g id="edge6_Node000005_Node000006" class="edge">
<title>Node5&#45;&gt;Node6</title>
<g id="a_edge6_Node000005_Node000006"><a xlink:title=" ">
<path fill="none" stroke="#63b8ff" d="M292.79,-102.91C304.08,-93.67 317.79,-82.43 327.14,-74.77"/>
<polygon fill="#63b8ff" stroke="#63b8ff" points="290.71,-100.09 285.2,-109.13 295.15,-105.5 290.71,-100.09"/>
</a>
</g>
</g>
<!-- Node6&#45;&gt;Node2 -->
<g id="edge7_Node000006_Node000002" class="edge">
<title>Node6&#45;&gt;Node2</title>
<g id="a_edge7_Node000006_Node000002"><a xlink:title=" ">
<path fill="none" stroke="#63b8ff" d="M338,-43.63C338,-35.34 338,-26.17 338,-19.61"/>
<polygon fill="#63b8ff" stroke="#63b8ff" points="334.5,-43.57 338,-53.57 341.5,-43.57 334.5,-43.57"/>
</a>
</g>
</g>
<!-- Node7&#45;&gt;Node5 -->
<g id="edge10_Node000007_Node000005" class="edge">
<title>Node7&#45;&gt;Node5</title>
<g id="a_edge10_Node000007_Node000005"><a xlink:title=" ">
<path fill="none" stroke="#63b8ff" d="M277.38,-154.42C276.28,-146.05 275.05,-136.75 274.18,-130.11"/>
<polygon fill="#63b8ff" stroke="#63b8ff" points="273.87,-154.62 278.65,-164.08 280.81,-153.71 273.87,-154.62"/>
</a>
</g>
</g>
<!-- Node8&#45;&gt;Node2 -->
<g id="edge22_Node000008_Node000002" class="edge">
<title>Node8&#45;&gt;Node2</title>
<g id="a_edge22_Node000008_Node000002"><a xlink:title=" ">
<path fill="none" stroke="#63b8ff" d="M460.77,-209.43C464.43,-185.23 468,-143.79 457,-110.5 441.81,-64.53 389.41,-33.92 359.46,-19.74"/>
<polygon fill="#63b8ff" stroke="#63b8ff" points="457.34,-208.72 459.12,-219.16 464.24,-209.89 457.34,-208.72"/>
</a>
</g>
</g>
<!-- Node8&#45;&gt;Node5 -->
<g id="edge29_Node000008_Node000005" class="edge">
<title>Node8&#45;&gt;Node5</title>
<g id="a_edge29_Node000008_Node000005"><a xlink:title=" ">
<path fill="none" stroke="#63b8ff" d="M432.17,-214.98C393.57,-192.22 320.33,-149.03 288.46,-130.24"/>
<polygon fill="#63b8ff" stroke="#63b8ff" points="429.93,-217.73 440.32,-219.79 433.49,-211.7 429.93,-217.73"/>
</a>
</g>
</g>
<!-- Node8&#45;&gt;Node6 -->
<g id="edge21_Node000008_Node000006" class="edge">
<title>Node8&#45;&gt;Node6</title>
<g id="a_edge21_Node000008_Node000006"><a xlink:title=" ">
<path fill="none" stroke="#63b8ff" d="M435.73,-213.76C413.07,-195.77 377.67,-164.42 357,-129.75 346.34,-111.86 341.28,-87.55 339.21,-74.69"/>
<polygon fill="#63b8ff" stroke="#63b8ff" points="433.34,-216.33 443.38,-219.69 437.62,-210.8 433.34,-216.33"/>
</a>
</g>
</g>
<!-- Node8&#45;&gt;Node7 -->
<g id="edge30_Node000008_Node000007" class="edge">
<title>Node8&#45;&gt;Node7</title>
<g id="a_edge30_Node000008_Node000007"><a xlink:title=" ">
<path fill="none" stroke="#63b8ff" d="M416.08,-217.32C383.74,-207.59 339.34,-194.23 310.17,-185.45"/>
<polygon fill="#63b8ff" stroke="#63b8ff" points="414.94,-220.63 425.52,-220.16 416.96,-213.92 414.94,-220.63"/>
</a>
</g>
</g>
<!-- Node9 -->
<g id="Node000009" class="node">
<title>Node9</title>
<g id="a_Node000009"><a xlink:href="ZX0__decompress_8h.html" target="_top" xlink:title="Decompressor of the ZX0 data compression format version 2.">
<polygon fill="white" stroke="#666666" points="675.88,-129.75 542.12,-129.75 542.12,-110.5 675.88,-110.5 675.88,-129.75"/>
<text text-anchor="middle" x="609" y="-116.25" font-family="Helvetica,sans-Serif" font-size="10.00">include/ZX0_decompress.h</text>
</a>
</g>
</g>
<!-- Node8&#45;&gt;Node9 -->
<g id="edge12_Node000008_Node000009" class="edge">
<title>Node8&#45;&gt;Node9</title>
<g id="a_edge12_Node000008_Node000009"><a xlink:title=" ">
<path fill="none" stroke="#63b8ff" d="M482.29,-214.63C496.04,-206.26 513.21,-195.43 528,-185 554.05,-166.62 583.03,-142.92 598.28,-130.18"/>
<polygon fill="#63b8ff" stroke="#63b8ff" points="480.6,-211.57 473.84,-219.73 484.21,-217.56 480.6,-211.57"/>
</a>
</g>
</g>
<!-- Node10 -->
<g id="Node000010" class="node">
<title>Node10</title>
<g id="a_Node000010"><a xlink:href="bmem_8h.html" target="_top" xlink:title="Data types and functions for accessing banked memory.">
<polygon fill="white" stroke="#666666" points="752.12,-185 667.88,-185 667.88,-165.75 752.12,-165.75 752.12,-185"/>
<text text-anchor="middle" x="710" y="-171.5" font-family="Helvetica,sans-Serif" font-size="10.00">include/bmem.h</text>
</a>
</g>
</g>
<!-- Node8&#45;&gt;Node10 -->
<g id="edge13_Node000008_Node000010" class="edge">
<title>Node8&#45;&gt;Node10</title>
<g id="a_edge13_Node000008_Node000010"><a xlink:title=" ">
<path fill="none" stroke="#63b8ff" d="M510.48,-218.37C557.27,-208.52 624.32,-194.41 667.52,-185.32"/>
<polygon fill="#63b8ff" stroke="#63b8ff" points="509.89,-214.92 500.83,-220.4 511.33,-221.77 509.89,-214.92"/>
</a>
</g>
</g>
<!-- Node17 -->
<g id="Node000017" class="node">
<title>Node17</title>
<g id="a_Node000017"><a xlink:href="sprite_8h.html" target="_top" xlink:title="Sprites.">
<polygon fill="white" stroke="#666666" points="447.62,-129.75 366.38,-129.75 366.38,-110.5 447.62,-110.5 447.62,-129.75"/>
<text text-anchor="middle" x="407" y="-116.25" font-family="Helvetica,sans-Serif" font-size="10.00">include/sprite.h</text>
</a>
</g>
</g>
<!-- Node8&#45;&gt;Node17 -->
<g id="edge23_Node000008_Node000017" class="edge">
<title>Node8&#45;&gt;Node17</title>
<g id="a_edge23_Node000008_Node000017"><a xlink:title=" ">
<path fill="none" stroke="#63b8ff" d="M448.22,-210.58C437.34,-186.97 419.25,-147.71 411.15,-130.13"/>
<polygon fill="#63b8ff" stroke="#63b8ff" points="444.91,-211.75 452.27,-219.37 451.27,-208.82 444.91,-211.75"/>
</a>
</g>
</g>
<!-- Node18 -->
<g id="Node000018" class="node">
<title>Node18</title>
<g id="a_Node000018"><a xlink:href="sprite__color_8h.html" target="_top" xlink:title="Sprite color table interface.">
<polygon fill="white" stroke="#666666" points="601.75,-74.5 494.25,-74.5 494.25,-55.25 601.75,-55.25 601.75,-74.5"/>
<text text-anchor="middle" x="548" y="-61" font-family="Helvetica,sans-Serif" font-size="10.00">include/sprite_color.h</text>
</a>
</g>
</g>
<!-- Node8&#45;&gt;Node18 -->
<g id="edge28_Node000008_Node000018" class="edge">
<title>Node8&#45;&gt;Node18</title>
<g id="a_edge28_Node000008_Node000018"><a xlink:title=" ">
<path fill="none" stroke="#63b8ff" d="M471.42,-211.72C477.5,-203.77 484.45,-194.15 490,-185 513.85,-145.66 535.83,-95.08 544.31,-74.83"/>
<polygon fill="#63b8ff" stroke="#63b8ff" points="468.69,-209.52 465.27,-219.55 474.2,-213.84 468.69,-209.52"/>
</a>
</g>
</g>
<!-- Node19 -->
<g id="Node000019" class="node">
<title>Node19</title>
<g id="a_Node000019"><a xlink:href="vmem__rw_8h.html" target="_top" xlink:title="Stream like access functions for VRAM.">
<polygon fill="white" stroke="#666666" points="870,-185 770,-185 770,-165.75 870,-165.75 870,-185"/>
<text text-anchor="middle" x="820" y="-171.5" font-family="Helvetica,sans-Serif" font-size="10.00">include/vmem_rw.h</text>
</a>
</g>
</g>
<!-- Node8&#45;&gt;Node19 -->
<g id="edge31_Node000008_Node000019" class="edge">
<title>Node8&#45;&gt;Node19</title>
<g id="a_edge31_Node000008_Node000019"><a xlink:title=" ">
<path fill="none" stroke="#63b8ff" d="M510.5,-221.78C580.23,-211.55 701.28,-193.79 769.5,-183.78"/>
<polygon fill="#63b8ff" stroke="#63b8ff" points="510.23,-218.28 500.85,-223.19 511.25,-225.2 510.23,-218.28"/>
</a>
</g>
</g>
<!-- Node10&#45;&gt;Node9 -->
<g id="edge14_Node000010_Node000009" class="edge">
<title>Node10&#45;&gt;Node9</title>
<g id="a_edge14_Node000010_Node000009"><a xlink:title=" ">
<path fill="none" stroke="#63b8ff" d="M682.69,-159.98C664.7,-150.49 641.7,-138.36 626.22,-130.2"/>
<polygon fill="#63b8ff" stroke="#63b8ff" points="681.05,-163.07 691.53,-164.64 684.31,-156.88 681.05,-163.07"/>
</a>
</g>
</g>
<!-- Node11 -->
<g id="Node000011" class="node">
<title>Node11</title>
<g id="a_Node000011"><a xlink:href="bmem__rd_8h.html" target="_top" xlink:title="Stream like access functions for Banked Memory.">
<polygon fill="white" stroke="#666666" points="791.88,-129.75 694.12,-129.75 694.12,-110.5 791.88,-110.5 791.88,-129.75"/>
<text text-anchor="middle" x="743" y="-116.25" font-family="Helvetica,sans-Serif" font-size="10.00">include/bmem_rd.h</text>
</a>
</g>
</g>
<!-- Node10&#45;&gt;Node11 -->
<g id="edge15_Node000010_Node000011" class="edge">
<title>Node10&#45;&gt;Node11</title>
<g id="a_edge15_Node000010_Node000011"><a xlink:title=" ">
<path fill="none" stroke="#63b8ff" d="M721.47,-155.87C726.88,-147.14 733.08,-137.14 737.43,-130.11"/>
<polygon fill="#63b8ff" stroke="#63b8ff" points="718.54,-153.95 716.25,-164.3 724.49,-157.64 718.54,-153.95"/>
</a>
</g>
</g>
<!-- Node13 -->
<g id="Node000013" class="node">
<title>Node13</title>
<g id="a_Node000013"><a xlink:href="memfile_8h.html" target="_top" xlink:title="Stream interface for ROM / RAM / MegaROM.">
<polygon fill="white" stroke="#666666" points="939.5,-129.75 848.5,-129.75 848.5,-110.5 939.5,-110.5 939.5,-129.75"/>
<text text-anchor="middle" x="894" y="-116.25" font-family="Helvetica,sans-Serif" font-size="10.00">include/memfile.h</text>
</a>
</g>
</g>
<!-- Node10&#45;&gt;Node13 -->
<g id="edge17_Node000010_Node000013" class="edge">
<title>Node10&#45;&gt;Node13</title>
<g id="a_edge17_Node000010_Node000013"><a xlink:title=" ">
<path fill="none" stroke="#63b8ff" d="M752.1,-162.19C785.75,-152.45 832.18,-139.02 862.63,-130.2"/>
<polygon fill="#63b8ff" stroke="#63b8ff" points="751.3,-158.78 742.67,-164.92 753.25,-165.5 751.3,-158.78"/>
</a>
</g>
</g>
<!-- Node16 -->
<g id="Node000016" class="node">
<title>Node16</title>
<g id="a_Node000016"><a xlink:href="resources_8h.html" target="_top" xlink:title="Data types and functions for accessing embedded resources.">
<polygon fill="white" stroke="#666666" points="1058,-129.75 958,-129.75 958,-110.5 1058,-110.5 1058,-129.75"/>
<text text-anchor="middle" x="1008" y="-116.25" font-family="Helvetica,sans-Serif" font-size="10.00">include/resources.h</text>
</a>
</g>
</g>
<!-- Node10&#45;&gt;Node16 -->
<g id="edge20_Node000010_Node000016" class="edge">
<title>Node10&#45;&gt;Node16</title>
<g id="a_edge20_Node000010_Node000016"><a xlink:title=" ">
<path fill="none" stroke="#63b8ff" d="M763.65,-164.79C818.7,-154.95 903.69,-139.76 957.55,-130.14"/>
<polygon fill="#63b8ff" stroke="#63b8ff" points="763.1,-161.33 753.87,-166.54 764.33,-168.22 763.1,-161.33"/>
</a>
</g>
</g>
<!-- Node12 -->
<g id="Node000012" class="node">
<title>Node12</title>
<g id="a_Node000012"><a xlink:href="xmem_8h.html" target="_top" xlink:title="Inter&#45;memory transfer functions for ROM / RAM, VRAM, and Banked Memory (MegaROM).">
<polygon fill="white" stroke="#666666" points="794.75,-74.5 711.25,-74.5 711.25,-55.25 794.75,-55.25 794.75,-74.5"/>
<text text-anchor="middle" x="753" y="-61" font-family="Helvetica,sans-Serif" font-size="10.00">include/xmem.h</text>
</a>
</g>
</g>
<!-- Node11&#45;&gt;Node12 -->
<g id="edge16_Node000011_Node000012" class="edge">
<title>Node11&#45;&gt;Node12</title>
<g id="a_edge16_Node000011_Node000012"><a xlink:title=" ">
<path fill="none" stroke="#63b8ff" d="M746.75,-99.17C748.32,-90.8 750.07,-81.5 751.31,-74.86"/>
<polygon fill="#63b8ff" stroke="#63b8ff" points="743.34,-98.37 744.93,-108.84 750.22,-99.66 743.34,-98.37"/>
</a>
</g>
</g>
<!-- Node14 -->
<g id="Node000014" class="node">
<title>Node14</title>
<g id="a_Node000014"><a xlink:href="audio__buf_8h.html" target="_top" xlink:title="Unified sound&#45;chip buffer of the libmsx audio replayer.">
<polygon fill="white" stroke="#666666" points="932.62,-74.5 833.38,-74.5 833.38,-55.25 932.62,-55.25 932.62,-74.5"/>
<text text-anchor="middle" x="883" y="-61" font-family="Helvetica,sans-Serif" font-size="10.00">include/audio_buf.h</text>
</a>
</g>
</g>
<!-- Node13&#45;&gt;Node14 -->
<g id="edge18_Node000013_Node000014" class="edge">
<title>Node13&#45;&gt;Node14</title>
<g id="a_edge18_Node000013_Node000014"><a xlink:title=" ">
<path fill="none" stroke="#63b8ff" d="M889.88,-99.17C888.15,-90.8 886.23,-81.5 884.86,-74.86"/>
<polygon fill="#63b8ff" stroke="#63b8ff" points="886.43,-99.76 891.88,-108.85 893.28,-98.35 886.43,-99.76"/>
</a>
</g>
</g>
<!-- Node15 -->
<g id="Node000015" class="node">
<title>Node15</title>
<g id="a_Node000015"><a xlink:href="la0_8h.html" target="_top" xlink:title="The libmsx audio format 0 (LA0) decoder.">
<polygon fill="white" stroke="#666666" points="1021,-74.5 951,-74.5 951,-55.25 1021,-55.25 1021,-74.5"/>
<text text-anchor="middle" x="986" y="-61" font-family="Helvetica,sans-Serif" font-size="10.00">include/la0.h</text>
</a>
</g>
</g>
<!-- Node13&#45;&gt;Node15 -->
<g id="edge19_Node000013_Node000015" class="edge">
<title>Node13&#45;&gt;Node15</title>
<g id="a_edge19_Node000013_Node000015"><a xlink:title=" ">
<path fill="none" stroke="#63b8ff" d="M919.11,-104.59C935.46,-95.13 956.28,-83.08 970.32,-74.95"/>
<polygon fill="#63b8ff" stroke="#63b8ff" points="917.82,-101.29 910.92,-109.33 921.32,-107.35 917.82,-101.29"/>
</a>
</g>
</g>
<!-- Node17&#45;&gt;Node2 -->
<g id="edge25_Node000017_Node000002" class="edge">
<title>Node17&#45;&gt;Node2</title>
<g id="a_edge25_Node000017_Node000002"><a xlink:title=" ">
<path fill="none" stroke="#63b8ff" d="M408.46,-98.93C408.5,-85.66 406.73,-68.39 399,-55.25 389.55,-39.19 371.82,-27.22 357.89,-19.74"/>
<polygon fill="#63b8ff" stroke="#63b8ff" points="404.97,-98.52 408.06,-108.65 411.96,-98.8 404.97,-98.52"/>
</a>
</g>
</g>
<!-- Node17&#45;&gt;Node6 -->
<g id="edge24_Node000017_Node000006" class="edge">
<title>Node17&#45;&gt;Node6</title>
<g id="a_edge24_Node000017_Node000006"><a xlink:title=" ">
<path fill="none" stroke="#63b8ff" d="M386.35,-103.19C374.3,-93.89 359.55,-82.51 349.53,-74.77"/>
<polygon fill="#63b8ff" stroke="#63b8ff" points="384.04,-105.83 394.1,-109.17 388.32,-100.29 384.04,-105.83"/>
</a>
</g>
</g>
<!-- Node17&#45;&gt;Node18 -->
<g id="edge26_Node000017_Node000018" class="edge">
<title>Node17&#45;&gt;Node18</title>
<g id="a_edge26_Node000017_Node000018"><a xlink:title=" ">
<path fill="none" stroke="#63b8ff" d="M441.64,-106.04C467.2,-96.39 501.34,-83.5 523.96,-74.95"/>
<polygon fill="#63b8ff" stroke="#63b8ff" points="440.45,-102.75 432.33,-109.56 442.93,-109.3 440.45,-102.75"/>
</a>
</g>
</g>
<!-- Node18&#45;&gt;Node2 -->
<g id="edge27_Node000018_Node000002" class="edge">
<title>Node18&#45;&gt;Node2</title>
<g id="a_edge27_Node000018_Node000002"><a xlink:title=" ">
<path fill="none" stroke="#63b8ff" d="M501.45,-52.07C462.93,-42.3 409.01,-28.63 373.8,-19.7"/>
<polygon fill="#63b8ff" stroke="#63b8ff" points="500.36,-55.4 510.91,-54.47 502.08,-48.62 500.36,-55.4"/>
</a>
</g>
</g>
<!-- Node19&#45;&gt;Node12 -->
<g id="edge32_Node000019_Node000012" class="edge">
<title>Node19&#45;&gt;Node12</title>
<g id="a_edge32_Node000019_Node000012"><a xlink:title=" ">
<path fill="none" stroke="#63b8ff" d="M816.88,-154.36C814.17,-141.16 809.32,-123.91 801,-110.5 791.88,-95.81 776.67,-82.83 765.81,-74.71"/>
<polygon fill="#63b8ff" stroke="#63b8ff" points="813.4,-154.79 818.61,-164.02 820.3,-153.56 813.4,-154.79"/>
</a>
</g>
</g>
</g>
</svg>
