<?xml version="1.0" encoding="UTF-8" standalone="no"?>
<!DOCTYPE svg PUBLIC "-//W3C//DTD SVG 1.1//EN"
 "http://www.w3.org/Graphics/SVG/1.1/DTD/svg11.dtd">
<!-- Generated by graphviz version 2.44.0 ()
 -->
<!-- Title: include/io.h Pages: 1 -->
<svg width="5387pt" height="274pt"
 viewBox="0.00 0.00 5387.00 274.00" xmlns="http://www.w3.org/2000/svg" xmlns:xlink="http://www.w3.org/1999/xlink">
<g id="graph0" class="graph" transform="scale(1 1) rotate(0) translate(4 270)">
<title>include/io.h</title>
<!-- Node1 -->
<g id="node1" class="node">
<title>Node1</title>
<g id="a_node1"><a xlink:title="Copyright (c) 2021 Daishi Mori (mori0091)">
<polygon fill="#bfbfbf" stroke="black" points="4342.5,-246.5 4342.5,-265.5 4407.5,-265.5 4407.5,-246.5 4342.5,-246.5"/>
<text text-anchor="middle" x="4375" y="-253.5" font-family="Helvetica,sans-Serif" font-size="10.00">include/io.h</text>
</a>
</g>
</g>
<!-- Node2 -->
<g id="node2" class="node">
<title>Node2</title>
<g id="a_node2"><a xlink:href="msx_8h.html" target="_top" xlink:title="Copyright (c) 2021 Daishi Mori (mori0091)">
<polygon fill="none" stroke="black" points="4841,-6 4841,-25 4917,-25 4917,-6 4841,-6"/>
<text text-anchor="middle" x="4879" y="-13" font-family="Helvetica,sans-Serif" font-size="10.00">include/msx.h</text>
</a>
</g>
</g>
<!-- Node1&#45;&gt;Node2 -->
<g id="edge1" class="edge">
<title>Node1&#45;&gt;Node2</title>
<path fill="none" stroke="midnightblue" d="M4417.61,-254.44C4512.11,-250.78 4740.35,-228.15 4860,-98 4878.88,-77.46 4880.13,-41.89 4879.57,-25.38"/>
<polygon fill="midnightblue" stroke="midnightblue" points="4417.44,-250.95 4407.56,-254.78 4417.67,-257.94 4417.44,-250.95"/>
</g>
<!-- Node3 -->
<g id="node3" class="node">
<title>Node3</title>
<g id="a_node3"><a xlink:href="psg_8h.html" target="_top" xlink:title="Copyright (c) 2021 Daishi Mori (mori0091)">
<polygon fill="none" stroke="black" points="319,-190.5 319,-209.5 393,-209.5 393,-190.5 319,-190.5"/>
<text text-anchor="middle" x="356" y="-197.5" font-family="Helvetica,sans-Serif" font-size="10.00">include/psg.h</text>
</a>
</g>
</g>
<!-- Node1&#45;&gt;Node3 -->
<g id="edge2" class="edge">
<title>Node1&#45;&gt;Node3</title>
<path fill="none" stroke="midnightblue" d="M4332.23,-254.43C3927.12,-248.98 772.3,-206.59 393.23,-201.5"/>
<polygon fill="midnightblue" stroke="midnightblue" points="4332.31,-257.93 4342.35,-254.56 4332.4,-250.93 4332.31,-257.93"/>
</g>
<!-- Node9 -->
<g id="node9" class="node">
<title>Node9</title>
<g id="a_node9"><a xlink:href="vdp_8h.html" target="_top" xlink:title="Data types and functions for VDP (Video Display Proccessor) access.">
<polygon fill="none" stroke="black" points="2828,-134.5 2828,-153.5 2902,-153.5 2902,-134.5 2828,-134.5"/>
<text text-anchor="middle" x="2865" y="-141.5" font-family="Helvetica,sans-Serif" font-size="10.00">include/vdp.h</text>
</a>
</g>
</g>
<!-- Node1&#45;&gt;Node9 -->
<g id="edge9" class="edge">
<title>Node1&#45;&gt;Node9</title>
<path fill="none" stroke="midnightblue" d="M4332.23,-251.88C4112.04,-235.84 3108.61,-162.75 2902.19,-147.71"/>
<polygon fill="midnightblue" stroke="midnightblue" points="4332.18,-255.39 4342.41,-252.63 4332.69,-248.41 4332.18,-255.39"/>
</g>
<!-- Node49 -->
<g id="node48" class="node">
<title>Node49</title>
<g id="a_node48"><a xlink:href="vmem_8h.html" target="_top" xlink:title="Data types and functions for VRAM access.">
<polygon fill="none" stroke="black" points="4954.5,-190.5 4954.5,-209.5 5039.5,-209.5 5039.5,-190.5 4954.5,-190.5"/>
<text text-anchor="middle" x="4997" y="-197.5" font-family="Helvetica,sans-Serif" font-size="10.00">include/vmem.h</text>
</a>
</g>
</g>
<!-- Node1&#45;&gt;Node49 -->
<g id="edge50" class="edge">
<title>Node1&#45;&gt;Node49</title>
<path fill="none" stroke="midnightblue" d="M4417.63,-251.3C4531.31,-241.43 4840.79,-214.56 4954.42,-204.7"/>
<polygon fill="midnightblue" stroke="midnightblue" points="4417.23,-247.82 4407.57,-252.17 4417.83,-254.79 4417.23,-247.82"/>
</g>
<!-- Node3&#45;&gt;Node2 -->
<g id="edge3" class="edge">
<title>Node3&#45;&gt;Node2</title>
<path fill="none" stroke="midnightblue" d="M402.99,-189.98C429.47,-183.24 462.12,-172 487,-154 526.32,-125.55 509.66,-88.84 553,-67 654.32,-15.95 4420.13,-16.28 4840.9,-16.48"/>
<polygon fill="midnightblue" stroke="midnightblue" points="402.07,-186.6 393.17,-192.35 403.72,-193.41 402.07,-186.6"/>
</g>
<!-- Node4 -->
<g id="node4" class="node">
<title>Node4</title>
<g id="a_node4"><a xlink:href="joypad__get__state_8c.html" target="_top" xlink:title="Copyright (c) 2021 Daishi Mori (mori0091)">
<polygon fill="none" stroke="black" points="0,-134.5 0,-153.5 114,-153.5 114,-134.5 0,-134.5"/>
<text text-anchor="middle" x="57" y="-141.5" font-family="Helvetica,sans-Serif" font-size="10.00">src/joypad_get_state.c</text>
</a>
</g>
</g>
<!-- Node3&#45;&gt;Node4 -->
<g id="edge4" class="edge">
<title>Node3&#45;&gt;Node4</title>
<path fill="none" stroke="midnightblue" d="M308.73,-190.46C252.73,-180.35 160.02,-163.61 104.1,-153.51"/>
<polygon fill="midnightblue" stroke="midnightblue" points="308.27,-193.94 318.74,-192.27 309.52,-187.05 308.27,-193.94"/>
</g>
<!-- Node5 -->
<g id="node5" class="node">
<title>Node5</title>
<g id="a_node5"><a xlink:href="psg__get_8c.html" target="_top" xlink:title="Copyright (c) 2021 Daishi Mori (mori0091)">
<polygon fill="none" stroke="black" points="132.5,-134.5 132.5,-153.5 207.5,-153.5 207.5,-134.5 132.5,-134.5"/>
<text text-anchor="middle" x="170" y="-141.5" font-family="Helvetica,sans-Serif" font-size="10.00">src/psg_get.c</text>
</a>
</g>
</g>
<!-- Node3&#45;&gt;Node5 -->
<g id="edge5" class="edge">
<title>Node3&#45;&gt;Node5</title>
<path fill="none" stroke="midnightblue" d="M316.62,-187.57C281.53,-177.38 230.98,-162.7 199.33,-153.52"/>
<polygon fill="midnightblue" stroke="midnightblue" points="315.95,-191.02 326.53,-190.44 317.9,-184.29 315.95,-191.02"/>
</g>
<!-- Node6 -->
<g id="node6" class="node">
<title>Node6</title>
<g id="a_node6"><a xlink:href="psg__init_8c.html" target="_top" xlink:title="Copyright (c) 2021 Daishi Mori (mori0091)">
<polygon fill="none" stroke="black" points="226,-134.5 226,-153.5 300,-153.5 300,-134.5 226,-134.5"/>
<text text-anchor="middle" x="263" y="-141.5" font-family="Helvetica,sans-Serif" font-size="10.00">src/psg_init.c</text>
</a>
</g>
</g>
<!-- Node3&#45;&gt;Node6 -->
<g id="edge6" class="edge">
<title>Node3&#45;&gt;Node6</title>
<path fill="none" stroke="midnightblue" d="M332.19,-185.18C315.08,-175.24 292.53,-162.15 277.9,-153.65"/>
<polygon fill="midnightblue" stroke="midnightblue" points="330.65,-188.33 341.06,-190.32 334.17,-182.28 330.65,-188.33"/>
</g>
<!-- Node7 -->
<g id="node7" class="node">
<title>Node7</title>
<g id="a_node7"><a xlink:href="psg__set_8c.html" target="_top" xlink:title="Copyright (c) 2021 Daishi Mori (mori0091)">
<polygon fill="none" stroke="black" points="318.5,-134.5 318.5,-153.5 393.5,-153.5 393.5,-134.5 318.5,-134.5"/>
<text text-anchor="middle" x="356" y="-141.5" font-family="Helvetica,sans-Serif" font-size="10.00">src/psg_set.c</text>
</a>
</g>
</g>
<!-- Node3&#45;&gt;Node7 -->
<g id="edge7" class="edge">
<title>Node3&#45;&gt;Node7</title>
<path fill="none" stroke="midnightblue" d="M356,-179.8C356,-170.91 356,-160.78 356,-153.75"/>
<polygon fill="midnightblue" stroke="midnightblue" points="352.5,-180.08 356,-190.08 359.5,-180.08 352.5,-180.08"/>
</g>
<!-- Node8 -->
<g id="node8" class="node">
<title>Node8</title>
<g id="a_node8"><a xlink:href="sound_8c.html" target="_top" xlink:title="Copyright (c) 2021 Daishi Mori (mori0091)">
<polygon fill="none" stroke="black" points="411.5,-134.5 411.5,-153.5 478.5,-153.5 478.5,-134.5 411.5,-134.5"/>
<text text-anchor="middle" x="445" y="-141.5" font-family="Helvetica,sans-Serif" font-size="10.00">src/sound.c</text>
</a>
</g>
</g>
<!-- Node3&#45;&gt;Node8 -->
<g id="edge8" class="edge">
<title>Node3&#45;&gt;Node8</title>
<path fill="none" stroke="midnightblue" d="M379.24,-184.9C395.56,-175 416.87,-162.07 430.74,-153.65"/>
<polygon fill="midnightblue" stroke="midnightblue" points="377.03,-182.14 370.3,-190.32 380.66,-188.13 377.03,-182.14"/>
</g>
<!-- Node9&#45;&gt;Node2 -->
<g id="edge14" class="edge">
<title>Node9&#45;&gt;Node2</title>
<path fill="none" stroke="midnightblue" d="M2817.68,-142.98C2492.89,-142.77 604.91,-139.71 564,-98 554.35,-88.16 554.31,-76.8 564,-67 603.79,-26.75 4416.42,-17.48 4840.75,-16.58"/>
<polygon fill="midnightblue" stroke="midnightblue" points="2817.7,-146.48 2827.7,-142.99 2817.7,-139.48 2817.7,-146.48"/>
</g>
<!-- Node10 -->
<g id="node10" class="node">
<title>Node10</title>
<g id="a_node10"><a xlink:href="metasprite_8h.html" target="_top" xlink:title="Copyright (c) 2021 Daishi Mori (mori0091)">
<polygon fill="none" stroke="red" points="4945,-73 4945,-92 5049,-92 5049,-73 4945,-73"/>
<text text-anchor="middle" x="4997" y="-80" font-family="Helvetica,sans-Serif" font-size="10.00">include/metasprite.h</text>
</a>
</g>
</g>
<!-- Node9&#45;&gt;Node10 -->
<g id="edge10" class="edge">
<title>Node9&#45;&gt;Node10</title>
<path fill="none" stroke="midnightblue" d="M2912.57,-142.46C3176.52,-139.4 4463.58,-123.41 4860,-98 4888.05,-96.2 4919.21,-93 4944.72,-90.06"/>
<polygon fill="midnightblue" stroke="midnightblue" points="2912.15,-138.97 2902.19,-142.58 2912.23,-145.97 2912.15,-138.97"/>
</g>
<!-- Node14 -->
<g id="node13" class="node">
<title>Node14</title>
<g id="a_node13"><a xlink:href="vdp_8c.html" target="_top" xlink:title="Copyright (c) 2021 Daishi Mori (mori0091)">
<polygon fill="none" stroke="black" points="3848,-73 3848,-92 3904,-92 3904,-73 3848,-73"/>
<text text-anchor="middle" x="3876" y="-80" font-family="Helvetica,sans-Serif" font-size="10.00">src/vdp.c</text>
</a>
</g>
</g>
<!-- Node9&#45;&gt;Node14 -->
<g id="edge15" class="edge">
<title>Node9&#45;&gt;Node14</title>
<path fill="none" stroke="midnightblue" d="M2912.37,-142.85C3082.06,-142.01 3658.99,-136.34 3839,-98 3845.21,-96.68 3851.73,-94.43 3857.54,-92.1"/>
<polygon fill="midnightblue" stroke="midnightblue" points="2912.24,-139.35 2902.25,-142.9 2912.27,-146.35 2912.24,-139.35"/>
</g>
<!-- Node15 -->
<g id="node14" class="node">
<title>Node15</title>
<g id="a_node14"><a xlink:href="vdp__cmd__execute_8c.html" target="_top" xlink:title="Copyright (c) 2021 Daishi Mori (mori0091)">
<polygon fill="none" stroke="black" points="3922.5,-73 3922.5,-92 4041.5,-92 4041.5,-73 3922.5,-73"/>
<text text-anchor="middle" x="3982" y="-80" font-family="Helvetica,sans-Serif" font-size="10.00">src/vdp_cmd_execute.c</text>
</a>
</g>
</g>
<!-- Node9&#45;&gt;Node15 -->
<g id="edge16" class="edge">
<title>Node9&#45;&gt;Node15</title>
<path fill="none" stroke="midnightblue" d="M2912.22,-142C3089.48,-138.1 3715.24,-122.85 3913,-98 3924.05,-96.61 3935.97,-94.38 3946.73,-92.07"/>
<polygon fill="midnightblue" stroke="midnightblue" points="2912.08,-138.51 2902.16,-142.22 2912.24,-145.5 2912.08,-138.51"/>
</g>
<!-- Node16 -->
<g id="node15" class="node">
<title>Node16</title>
<g id="a_node15"><a xlink:href="vdp__cmd__execute__HMMM_8c.html" target="_top" xlink:title="Copyright (c) 2021 Daishi Mori (mori0091)">
<polygon fill="none" stroke="black" points="4060,-67.5 4060,-97.5 4172,-97.5 4172,-67.5 4060,-67.5"/>
<text text-anchor="start" x="4068" y="-85.5" font-family="Helvetica,sans-Serif" font-size="10.00">src/vdp_cmd_execute</text>
<text text-anchor="middle" x="4116" y="-74.5" font-family="Helvetica,sans-Serif" font-size="10.00">_HMMM.c</text>
</a>
</g>
</g>
<!-- Node9&#45;&gt;Node16 -->
<g id="edge17" class="edge">
<title>Node9&#45;&gt;Node16</title>
<path fill="none" stroke="midnightblue" d="M2912.31,-142.35C3104.21,-139.55 3825.01,-127.25 4051,-98 4053.87,-97.63 4056.79,-97.19 4059.74,-96.71"/>
<polygon fill="midnightblue" stroke="midnightblue" points="2912.21,-138.85 2902.26,-142.5 2912.31,-145.85 2912.21,-138.85"/>
</g>
<!-- Node17 -->
<g id="node16" class="node">
<title>Node17</title>
<g id="a_node16"><a xlink:href="vdp__cmd__execute__HMMV_8c.html" target="_top" xlink:title="Copyright (c) 2021 Daishi Mori (mori0091)">
<polygon fill="none" stroke="black" points="4190,-67.5 4190,-97.5 4302,-97.5 4302,-67.5 4190,-67.5"/>
<text text-anchor="start" x="4198" y="-85.5" font-family="Helvetica,sans-Serif" font-size="10.00">src/vdp_cmd_execute</text>
<text text-anchor="middle" x="4246" y="-74.5" font-family="Helvetica,sans-Serif" font-size="10.00">_HMMV.c</text>
</a>
</g>
</g>
<!-- Node9&#45;&gt;Node17 -->
<g id="edge18" class="edge">
<title>Node9&#45;&gt;Node17</title>
<path fill="none" stroke="midnightblue" d="M2912.37,-142.56C3117.24,-140.46 3928.15,-130.24 4181,-98 4183.87,-97.63 4186.79,-97.2 4189.74,-96.72"/>
<polygon fill="midnightblue" stroke="midnightblue" points="2912.2,-139.06 2902.24,-142.66 2912.27,-146.06 2912.2,-139.06"/>
</g>
<!-- Node18 -->
<g id="node17" class="node">
<title>Node18</title>
<g id="a_node17"><a xlink:href="vdp__cmd__execute__LMMM_8c.html" target="_top" xlink:title="Copyright (c) 2021 Daishi Mori (mori0091)">
<polygon fill="none" stroke="black" points="4320,-67.5 4320,-97.5 4432,-97.5 4432,-67.5 4320,-67.5"/>
<text text-anchor="start" x="4328" y="-85.5" font-family="Helvetica,sans-Serif" font-size="10.00">src/vdp_cmd_execute</text>
<text text-anchor="middle" x="4376" y="-74.5" font-family="Helvetica,sans-Serif" font-size="10.00">_LMMM.c</text>
</a>
</g>
</g>
<!-- Node9&#45;&gt;Node18 -->
<g id="edge19" class="edge">
<title>Node9&#45;&gt;Node18</title>
<path fill="none" stroke="midnightblue" d="M2912.38,-142.73C3129.54,-141.28 4031.19,-133.24 4311,-98 4313.87,-97.64 4316.8,-97.21 4319.74,-96.73"/>
<polygon fill="midnightblue" stroke="midnightblue" points="2912.24,-139.23 2902.26,-142.79 2912.29,-146.23 2912.24,-139.23"/>
</g>
<!-- Node19 -->
<g id="node18" class="node">
<title>Node19</title>
<g id="a_node18"><a xlink:href="vdp__cmd__execute__LMMV_8c.html" target="_top" xlink:title="Copyright (c) 2021 Daishi Mori (mori0091)">
<polygon fill="none" stroke="black" points="4450,-67.5 4450,-97.5 4562,-97.5 4562,-67.5 4450,-67.5"/>
<text text-anchor="start" x="4458" y="-85.5" font-family="Helvetica,sans-Serif" font-size="10.00">src/vdp_cmd_execute</text>
<text text-anchor="middle" x="4506" y="-74.5" font-family="Helvetica,sans-Serif" font-size="10.00">_LMMV.c</text>
</a>
</g>
</g>
<!-- Node9&#45;&gt;Node19 -->
<g id="edge20" class="edge">
<title>Node9&#45;&gt;Node19</title>
<path fill="none" stroke="midnightblue" d="M2912.47,-142.87C3141.55,-142.03 4134.19,-136.25 4441,-98 4443.87,-97.64 4446.8,-97.22 4449.74,-96.74"/>
<polygon fill="midnightblue" stroke="midnightblue" points="2912.13,-139.37 2902.15,-142.9 2912.16,-146.37 2912.13,-139.37"/>
</g>
<!-- Node20 -->
<g id="node19" class="node">
<title>Node20</title>
<g id="a_node19"><a xlink:href="vdp__cmd__set__unrestricted_8c.html" target="_top" xlink:title="Copyright (c) 2021 Daishi Mori (mori0091)">
<polygon fill="none" stroke="black" points="4580.5,-73 4580.5,-92 4735.5,-92 4735.5,-73 4580.5,-73"/>
<text text-anchor="middle" x="4658" y="-80" font-family="Helvetica,sans-Serif" font-size="10.00">src/vdp_cmd_set_unrestricted.c</text>
</a>
</g>
</g>
<!-- Node9&#45;&gt;Node20 -->
<g id="edge21" class="edge">
<title>Node9&#45;&gt;Node20</title>
<path fill="none" stroke="midnightblue" d="M2912.44,-142.64C3152.6,-140.68 4236.08,-130.17 4571,-98 4585.02,-96.65 4600.2,-94.4 4613.9,-92.07"/>
<polygon fill="midnightblue" stroke="midnightblue" points="2912.26,-139.14 2902.29,-142.72 2912.32,-146.14 2912.26,-139.14"/>
</g>
<!-- Node21 -->
<g id="node20" class="node">
<title>Node21</title>
<g id="a_node20"><a xlink:href="vdp__get__sprite__mode_8c.html" target="_top" xlink:title="Copyright (c) 2021 Daishi Mori (mori0091)">
<polygon fill="none" stroke="black" points="4753.5,-67.5 4753.5,-97.5 4850.5,-97.5 4850.5,-67.5 4753.5,-67.5"/>
<text text-anchor="start" x="4761.5" y="-85.5" font-family="Helvetica,sans-Serif" font-size="10.00">src/vdp_get_sprite</text>
<text text-anchor="middle" x="4802" y="-74.5" font-family="Helvetica,sans-Serif" font-size="10.00">_mode.c</text>
</a>
</g>
</g>
<!-- Node9&#45;&gt;Node21 -->
<g id="edge22" class="edge">
<title>Node9&#45;&gt;Node21</title>
<path fill="none" stroke="midnightblue" d="M2912.41,-142.5C3186.15,-139.55 4558.78,-123.58 4745,-98 4747.73,-97.62 4750.52,-97.17 4753.33,-96.65"/>
<polygon fill="midnightblue" stroke="midnightblue" points="2912,-139.01 2902.04,-142.62 2912.07,-146.01 2912,-139.01"/>
</g>
<!-- Node22 -->
<g id="node21" class="node">
<title>Node22</title>
<g id="a_node21"><a xlink:href="vdp__get__status_8c.html" target="_top" xlink:title="Copyright (c) 2021 Daishi Mori (mori0091)">
<polygon fill="none" stroke="black" points="573.5,-73 573.5,-92 680.5,-92 680.5,-73 573.5,-73"/>
<text text-anchor="middle" x="627" y="-80" font-family="Helvetica,sans-Serif" font-size="10.00">src/vdp_get_status.c</text>
</a>
</g>
</g>
<!-- Node9&#45;&gt;Node22 -->
<g id="edge23" class="edge">
<title>Node9&#45;&gt;Node22</title>
<path fill="none" stroke="midnightblue" d="M2817.89,-142.62C2520.31,-140.12 906.67,-125.4 689,-98 678.69,-96.7 667.59,-94.4 657.68,-92.01"/>
<polygon fill="midnightblue" stroke="midnightblue" points="2817.89,-146.12 2827.92,-142.7 2817.95,-139.12 2817.89,-146.12"/>
</g>
<!-- Node23 -->
<g id="node22" class="node">
<title>Node23</title>
<g id="a_node22"><a xlink:href="vdp__set__adjust_8c.html" target="_top" xlink:title="Copyright (c) 2021 Daishi Mori (mori0091)">
<polygon fill="none" stroke="black" points="698.5,-73 698.5,-92 805.5,-92 805.5,-73 698.5,-73"/>
<text text-anchor="middle" x="752" y="-80" font-family="Helvetica,sans-Serif" font-size="10.00">src/vdp_set_adjust.c</text>
</a>
</g>
</g>
<!-- Node9&#45;&gt;Node23 -->
<g id="edge24" class="edge">
<title>Node9&#45;&gt;Node23</title>
<path fill="none" stroke="midnightblue" d="M2817.91,-142.55C2530.54,-139.75 1018.51,-123.87 814,-98 803.69,-96.7 792.59,-94.39 782.68,-92"/>
<polygon fill="midnightblue" stroke="midnightblue" points="2817.97,-146.05 2828,-142.65 2818.03,-139.05 2817.97,-146.05"/>
</g>
<!-- Node24 -->
<g id="node23" class="node">
<title>Node24</title>
<g id="a_node23"><a xlink:href="vdp__set__color_8c.html" target="_top" xlink:title="Copyright (c) 2021 Daishi Mori (mori0091)">
<polygon fill="none" stroke="black" points="823.5,-73 823.5,-92 924.5,-92 924.5,-73 823.5,-73"/>
<text text-anchor="middle" x="874" y="-80" font-family="Helvetica,sans-Serif" font-size="10.00">src/vdp_set_color.c</text>
</a>
</g>
</g>
<!-- Node9&#45;&gt;Node24 -->
<g id="edge25" class="edge">
<title>Node9&#45;&gt;Node24</title>
<path fill="none" stroke="midnightblue" d="M2817.63,-143.27C2558.94,-144.53 1314.63,-147.84 934,-98 924.12,-96.71 913.5,-94.44 903.98,-92.08"/>
<polygon fill="midnightblue" stroke="midnightblue" points="2817.83,-146.77 2827.82,-143.22 2817.8,-139.77 2817.83,-146.77"/>
</g>
<!-- Node25 -->
<g id="node24" class="node">
<title>Node25</title>
<g id="a_node24"><a xlink:href="vdp__set__color__table_8c.html" target="_top" xlink:title="Copyright (c) 2021 Daishi Mori (mori0091)">
<polygon fill="none" stroke="black" points="943,-73 943,-92 1071,-92 1071,-73 943,-73"/>
<text text-anchor="middle" x="1007" y="-80" font-family="Helvetica,sans-Serif" font-size="10.00">src/vdp_set_color_table.c</text>
</a>
</g>
</g>
<!-- Node9&#45;&gt;Node25 -->
<g id="edge26" class="edge">
<title>Node9&#45;&gt;Node25</title>
<path fill="none" stroke="midnightblue" d="M2817.74,-142.9C2571.24,-142.22 1431.01,-136.99 1080,-98 1068.06,-96.67 1055.16,-94.4 1043.57,-92.04"/>
<polygon fill="midnightblue" stroke="midnightblue" points="2817.79,-146.4 2827.8,-142.93 2817.81,-139.4 2817.79,-146.4"/>
</g>
<!-- Node26 -->
<g id="node25" class="node">
<title>Node26</title>
<g id="a_node25"><a xlink:href="vdp__set__control_8c.html" target="_top" xlink:title="Copyright (c) 2021 Daishi Mori (mori0091)">
<polygon fill="none" stroke="black" points="1089,-73 1089,-92 1199,-92 1199,-73 1089,-73"/>
<text text-anchor="middle" x="1144" y="-80" font-family="Helvetica,sans-Serif" font-size="10.00">src/vdp_set_control.c</text>
</a>
</g>
</g>
<!-- Node9&#45;&gt;Node26 -->
<g id="edge27" class="edge">
<title>Node9&#45;&gt;Node26</title>
<path fill="none" stroke="midnightblue" d="M2817.39,-142.96C2580.95,-142.59 1531.57,-138.65 1208,-98 1197.49,-96.68 1186.17,-94.4 1176.01,-92.04"/>
<polygon fill="midnightblue" stroke="midnightblue" points="2817.7,-146.46 2827.71,-142.98 2817.71,-139.46 2817.7,-146.46"/>
</g>
<!-- Node27 -->
<g id="node26" class="node">
<title>Node27</title>
<g id="a_node26"><a xlink:href="vdp__set__hscroll_8c.html" target="_top" xlink:title="Copyright (c) 2021 Daishi Mori (mori0091)">
<polygon fill="none" stroke="black" points="1217.5,-73 1217.5,-92 1326.5,-92 1326.5,-73 1217.5,-73"/>
<text text-anchor="middle" x="1272" y="-80" font-family="Helvetica,sans-Serif" font-size="10.00">src/vdp_set_hscroll.c</text>
</a>
</g>
</g>
<!-- Node9&#45;&gt;Node27 -->
<g id="edge28" class="edge">
<title>Node9&#45;&gt;Node27</title>
<path fill="none" stroke="midnightblue" d="M2817.81,-142.86C2593.34,-142.02 1632.24,-136.2 1335,-98 1324.65,-96.67 1313.5,-94.39 1303.51,-92.03"/>
<polygon fill="midnightblue" stroke="midnightblue" points="2817.93,-146.36 2827.94,-142.9 2817.95,-139.36 2817.93,-146.36"/>
</g>
<!-- Node28 -->
<g id="node27" class="node">
<title>Node28</title>
<g id="a_node27"><a xlink:href="vdp__set__hscroll__dual__page_8c.html" target="_top" xlink:title="Copyright (c) 2021 Daishi Mori (mori0091)">
<polygon fill="none" stroke="black" points="1344.5,-67.5 1344.5,-97.5 1445.5,-97.5 1445.5,-67.5 1344.5,-67.5"/>
<text text-anchor="start" x="1352.5" y="-85.5" font-family="Helvetica,sans-Serif" font-size="10.00">src/vdp_set_hscroll</text>
<text text-anchor="middle" x="1395" y="-74.5" font-family="Helvetica,sans-Serif" font-size="10.00">_dual_page.c</text>
</a>
</g>
</g>
<!-- Node9&#45;&gt;Node28 -->
<g id="edge29" class="edge">
<title>Node9&#45;&gt;Node28</title>
<path fill="none" stroke="midnightblue" d="M2817.74,-142.82C2603.97,-141.8 1726.21,-135.37 1454,-98 1451.28,-97.63 1448.51,-97.18 1445.72,-96.68"/>
<polygon fill="midnightblue" stroke="midnightblue" points="2817.97,-146.32 2827.99,-142.87 2818,-139.32 2817.97,-146.32"/>
</g>
<!-- Node29 -->
<g id="node28" class="node">
<title>Node29</title>
<g id="a_node28"><a xlink:href="vdp__set__hscroll__mask_8c.html" target="_top" xlink:title="Copyright (c) 2021 Daishi Mori (mori0091)">
<polygon fill="none" stroke="black" points="1463.5,-67.5 1463.5,-97.5 1564.5,-97.5 1564.5,-67.5 1463.5,-67.5"/>
<text text-anchor="start" x="1471.5" y="-85.5" font-family="Helvetica,sans-Serif" font-size="10.00">src/vdp_set_hscroll</text>
<text text-anchor="middle" x="1514" y="-74.5" font-family="Helvetica,sans-Serif" font-size="10.00">_mask.c</text>
</a>
</g>
</g>
<!-- Node9&#45;&gt;Node29 -->
<g id="edge30" class="edge">
<title>Node9&#45;&gt;Node29</title>
<path fill="none" stroke="midnightblue" d="M2817.81,-142.66C2615.51,-141 1820.6,-132.36 1573,-98 1570.28,-97.62 1567.51,-97.17 1564.72,-96.67"/>
<polygon fill="midnightblue" stroke="midnightblue" points="2817.79,-146.16 2827.82,-142.74 2817.85,-139.16 2817.79,-146.16"/>
</g>
<!-- Node30 -->
<g id="node29" class="node">
<title>Node30</title>
<g id="a_node29"><a xlink:href="vdp__set__image__table_8c.html" target="_top" xlink:title="Copyright (c) 2021 Daishi Mori (mori0091)">
<polygon fill="none" stroke="black" points="1582.5,-73 1582.5,-92 1715.5,-92 1715.5,-73 1582.5,-73"/>
<text text-anchor="middle" x="1649" y="-80" font-family="Helvetica,sans-Serif" font-size="10.00">src/vdp_set_image_table.c</text>
</a>
</g>
</g>
<!-- Node9&#45;&gt;Node30 -->
<g id="edge31" class="edge">
<title>Node9&#45;&gt;Node30</title>
<path fill="none" stroke="midnightblue" d="M2817.72,-142.07C2630.65,-138.27 1941.91,-122.83 1725,-98 1712.86,-96.61 1699.74,-94.38 1687.88,-92.07"/>
<polygon fill="midnightblue" stroke="midnightblue" points="2817.72,-145.58 2827.79,-142.28 2817.86,-138.58 2817.72,-145.58"/>
</g>
<!-- Node31 -->
<g id="node30" class="node">
<title>Node31</title>
<g id="a_node30"><a xlink:href="vdp__set__palette_8c.html" target="_top" xlink:title="Copyright (c) 2021 Daishi Mori (mori0091)">
<polygon fill="none" stroke="black" points="1734,-73 1734,-92 1844,-92 1844,-73 1734,-73"/>
<text text-anchor="middle" x="1789" y="-80" font-family="Helvetica,sans-Serif" font-size="10.00">src/vdp_set_palette.c</text>
</a>
</g>
</g>
<!-- Node9&#45;&gt;Node31 -->
<g id="edge32" class="edge">
<title>Node9&#45;&gt;Node31</title>
<path fill="none" stroke="midnightblue" d="M2817.69,-142.02C2644.19,-138.24 2043.13,-123.56 1853,-98 1842.61,-96.6 1831.42,-94.34 1821.35,-92.01"/>
<polygon fill="midnightblue" stroke="midnightblue" points="2817.7,-145.52 2827.78,-142.23 2817.85,-138.52 2817.7,-145.52"/>
</g>
<!-- Node32 -->
<g id="node31" class="node">
<title>Node32</title>
<g id="a_node31"><a xlink:href="vdp__set__pattern__table_8c.html" target="_top" xlink:title="Copyright (c) 2021 Daishi Mori (mori0091)">
<polygon fill="none" stroke="black" points="1862.5,-67.5 1862.5,-97.5 1965.5,-97.5 1965.5,-67.5 1862.5,-67.5"/>
<text text-anchor="start" x="1870.5" y="-85.5" font-family="Helvetica,sans-Serif" font-size="10.00">src/vdp_set_pattern</text>
<text text-anchor="middle" x="1914" y="-74.5" font-family="Helvetica,sans-Serif" font-size="10.00">_table.c</text>
</a>
</g>
</g>
<!-- Node9&#45;&gt;Node32 -->
<g id="edge33" class="edge">
<title>Node9&#45;&gt;Node32</title>
<path fill="none" stroke="midnightblue" d="M2817.62,-143.64C2684.24,-144.79 2294.48,-143.66 1975,-98 1971.98,-97.57 1968.9,-97.06 1965.79,-96.49"/>
<polygon fill="midnightblue" stroke="midnightblue" points="2817.92,-147.14 2827.89,-143.54 2817.86,-140.14 2817.92,-147.14"/>
</g>
<!-- Node33 -->
<g id="node32" class="node">
<title>Node33</title>
<g id="a_node32"><a xlink:href="vdp__set__screen__lines_8c.html" target="_top" xlink:title="Copyright (c) 2021 Daishi Mori (mori0091)">
<polygon fill="none" stroke="black" points="1984,-67.5 1984,-97.5 2086,-97.5 2086,-67.5 1984,-67.5"/>
<text text-anchor="start" x="1992" y="-85.5" font-family="Helvetica,sans-Serif" font-size="10.00">src/vdp_set_screen</text>
<text text-anchor="middle" x="2035" y="-74.5" font-family="Helvetica,sans-Serif" font-size="10.00">_lines.c</text>
</a>
</g>
</g>
<!-- Node9&#45;&gt;Node33 -->
<g id="edge34" class="edge">
<title>Node9&#45;&gt;Node33</title>
<path fill="none" stroke="midnightblue" d="M2817.87,-143.17C2697.03,-142.96 2366.55,-138.42 2095,-98 2092.14,-97.57 2089.21,-97.08 2086.27,-96.53"/>
<polygon fill="midnightblue" stroke="midnightblue" points="2817.89,-146.67 2827.89,-143.17 2817.9,-139.67 2817.89,-146.67"/>
</g>
<!-- Node34 -->
<g id="node33" class="node">
<title>Node34</title>
<g id="a_node33"><a xlink:href="vdp__set__screen__mode_8c.html" target="_top" xlink:title="Copyright (c) 2021 Daishi Mori (mori0091)">
<polygon fill="none" stroke="black" points="2104,-67.5 2104,-97.5 2206,-97.5 2206,-67.5 2104,-67.5"/>
<text text-anchor="start" x="2112" y="-85.5" font-family="Helvetica,sans-Serif" font-size="10.00">src/vdp_set_screen</text>
<text text-anchor="middle" x="2155" y="-74.5" font-family="Helvetica,sans-Serif" font-size="10.00">_mode.c</text>
</a>
</g>
</g>
<!-- Node9&#45;&gt;Node34 -->
<g id="edge35" class="edge">
<title>Node9&#45;&gt;Node34</title>
<path fill="none" stroke="midnightblue" d="M2817.45,-142.51C2709.52,-140.78 2437.96,-132.99 2214,-98 2211.39,-97.59 2208.74,-97.13 2206.06,-96.62"/>
<polygon fill="midnightblue" stroke="midnightblue" points="2817.63,-146.01 2827.68,-142.66 2817.74,-139.01 2817.63,-146.01"/>
</g>
<!-- Node35 -->
<g id="node34" class="node">
<title>Node35</title>
<g id="a_node34"><a xlink:href="vdp__set__sprite__attribute__table_8c.html" target="_top" xlink:title="Copyright (c) 2021 Daishi Mori (mori0091)">
<polygon fill="none" stroke="black" points="2223.5,-67.5 2223.5,-97.5 2320.5,-97.5 2320.5,-67.5 2223.5,-67.5"/>
<text text-anchor="start" x="2231.5" y="-85.5" font-family="Helvetica,sans-Serif" font-size="10.00">src/vdp_set_sprite</text>
<text text-anchor="middle" x="2272" y="-74.5" font-family="Helvetica,sans-Serif" font-size="10.00">_attribute_table.c</text>
</a>
</g>
</g>
<!-- Node9&#45;&gt;Node35 -->
<g id="edge36" class="edge">
<title>Node9&#45;&gt;Node35</title>
<path fill="none" stroke="midnightblue" d="M2817.67,-141.65C2723.84,-138.4 2507.86,-128.05 2329,-98 2326.28,-97.54 2323.5,-97.02 2320.7,-96.45"/>
<polygon fill="midnightblue" stroke="midnightblue" points="2817.58,-145.15 2827.7,-141.99 2817.82,-138.16 2817.58,-145.15"/>
</g>
<!-- Node36 -->
<g id="node35" class="node">
<title>Node36</title>
<g id="a_node35"><a xlink:href="vdp__set__sprite__pattern__table_8c.html" target="_top" xlink:title="Copyright (c) 2021 Daishi Mori (mori0091)">
<polygon fill="none" stroke="black" points="2338.5,-67.5 2338.5,-97.5 2435.5,-97.5 2435.5,-67.5 2338.5,-67.5"/>
<text text-anchor="start" x="2346.5" y="-85.5" font-family="Helvetica,sans-Serif" font-size="10.00">src/vdp_set_sprite</text>
<text text-anchor="middle" x="2387" y="-74.5" font-family="Helvetica,sans-Serif" font-size="10.00">_pattern_table.c</text>
</a>
</g>
</g>
<!-- Node9&#45;&gt;Node36 -->
<g id="edge37" class="edge">
<title>Node9&#45;&gt;Node36</title>
<path fill="none" stroke="midnightblue" d="M2817.84,-140.16C2739.67,-134.97 2578.5,-122.17 2444,-98 2441.29,-97.51 2438.51,-96.97 2435.72,-96.38"/>
<polygon fill="midnightblue" stroke="midnightblue" points="2817.66,-143.66 2827.86,-140.82 2818.11,-136.67 2817.66,-143.66"/>
</g>
<!-- Node37 -->
<g id="node36" class="node">
<title>Node37</title>
<g id="a_node36"><a xlink:href="vdp__set__sprite__size_8c.html" target="_top" xlink:title="Copyright (c) 2021 Daishi Mori (mori0091)">
<polygon fill="none" stroke="black" points="2453.5,-67.5 2453.5,-97.5 2550.5,-97.5 2550.5,-67.5 2453.5,-67.5"/>
<text text-anchor="start" x="2461.5" y="-85.5" font-family="Helvetica,sans-Serif" font-size="10.00">src/vdp_set_sprite</text>
<text text-anchor="middle" x="2502" y="-74.5" font-family="Helvetica,sans-Serif" font-size="10.00">_size.c</text>
</a>
</g>
</g>
<!-- Node9&#45;&gt;Node37 -->
<g id="edge38" class="edge">
<title>Node9&#45;&gt;Node37</title>
<path fill="none" stroke="midnightblue" d="M2817.58,-137.57C2757.21,-130.29 2649.83,-116.18 2559,-98 2556.3,-97.46 2553.53,-96.87 2550.74,-96.25"/>
<polygon fill="midnightblue" stroke="midnightblue" points="2817.23,-141.05 2827.57,-138.76 2818.06,-134.1 2817.23,-141.05"/>
</g>
<!-- Node38 -->
<g id="node37" class="node">
<title>Node38</title>
<g id="a_node37"><a xlink:href="vdp__set__sprite__visible_8c.html" target="_top" xlink:title="Copyright (c) 2021 Daishi Mori (mori0091)">
<polygon fill="none" stroke="black" points="2568.5,-67.5 2568.5,-97.5 2665.5,-97.5 2665.5,-67.5 2568.5,-67.5"/>
<text text-anchor="start" x="2576.5" y="-85.5" font-family="Helvetica,sans-Serif" font-size="10.00">src/vdp_set_sprite</text>
<text text-anchor="middle" x="2617" y="-74.5" font-family="Helvetica,sans-Serif" font-size="10.00">_visible.c</text>
</a>
</g>
</g>
<!-- Node9&#45;&gt;Node38 -->
<g id="edge39" class="edge">
<title>Node9&#45;&gt;Node38</title>
<path fill="none" stroke="midnightblue" d="M2818.31,-132.11C2779.82,-123.1 2723.83,-109.89 2675,-98 2671.97,-97.26 2668.86,-96.5 2665.72,-95.73"/>
<polygon fill="midnightblue" stroke="midnightblue" points="2817.65,-135.55 2828.19,-134.42 2819.25,-128.74 2817.65,-135.55"/>
</g>
<!-- Node39 -->
<g id="node38" class="node">
<title>Node39</title>
<g id="a_node38"><a xlink:href="vdp__set__visible_8c.html" target="_top" xlink:title="Copyright (c) 2021 Daishi Mori (mori0091)">
<polygon fill="none" stroke="black" points="2684,-73 2684,-92 2792,-92 2792,-73 2684,-73"/>
<text text-anchor="middle" x="2738" y="-80" font-family="Helvetica,sans-Serif" font-size="10.00">src/vdp_set_visible.c</text>
</a>
</g>
</g>
<!-- Node9&#45;&gt;Node39 -->
<g id="edge40" class="edge">
<title>Node9&#45;&gt;Node39</title>
<path fill="none" stroke="midnightblue" d="M2837.62,-130.17C2812.98,-118.63 2777.46,-101.99 2756.16,-92.01"/>
<polygon fill="midnightblue" stroke="midnightblue" points="2836.26,-133.4 2846.8,-134.48 2839.23,-127.06 2836.26,-133.4"/>
</g>
<!-- Node40 -->
<g id="node39" class="node">
<title>Node40</title>
<g id="a_node39"><a xlink:href="vdp__set__vscroll_8c.html" target="_top" xlink:title="Copyright (c) 2021 Daishi Mori (mori0091)">
<polygon fill="none" stroke="black" points="2810.5,-73 2810.5,-92 2919.5,-92 2919.5,-73 2810.5,-73"/>
<text text-anchor="middle" x="2865" y="-80" font-family="Helvetica,sans-Serif" font-size="10.00">src/vdp_set_vscroll.c</text>
</a>
</g>
</g>
<!-- Node9&#45;&gt;Node40 -->
<g id="edge41" class="edge">
<title>Node9&#45;&gt;Node40</title>
<path fill="none" stroke="midnightblue" d="M2865,-124.32C2865,-113.5 2865,-100.4 2865,-92.01"/>
<polygon fill="midnightblue" stroke="midnightblue" points="2861.5,-124.48 2865,-134.48 2868.5,-124.48 2861.5,-124.48"/>
</g>
<!-- Node41 -->
<g id="node40" class="node">
<title>Node41</title>
<g id="a_node40"><a xlink:href="vdp__write__control_8c.html" target="_top" xlink:title="Copyright (c) 2021 Daishi Mori (mori0091)">
<polygon fill="none" stroke="black" points="2937.5,-73 2937.5,-92 3054.5,-92 3054.5,-73 2937.5,-73"/>
<text text-anchor="middle" x="2996" y="-80" font-family="Helvetica,sans-Serif" font-size="10.00">src/vdp_write_control.c</text>
</a>
</g>
</g>
<!-- Node9&#45;&gt;Node41 -->
<g id="edge42" class="edge">
<title>Node9&#45;&gt;Node41</title>
<path fill="none" stroke="midnightblue" d="M2892.9,-130.33C2918.33,-118.78 2955.2,-102.03 2977.27,-92.01"/>
<polygon fill="midnightblue" stroke="midnightblue" points="2891.43,-127.15 2883.77,-134.48 2894.32,-133.53 2891.43,-127.15"/>
</g>
<!-- Node42 -->
<g id="node41" class="node">
<title>Node42</title>
<g id="a_node41"><a xlink:href="vdp__write__palette_8c.html" target="_top" xlink:title="Copyright (c) 2021 Daishi Mori (mori0091)">
<polygon fill="none" stroke="black" points="3072.5,-73 3072.5,-92 3189.5,-92 3189.5,-73 3072.5,-73"/>
<text text-anchor="middle" x="3131" y="-80" font-family="Helvetica,sans-Serif" font-size="10.00">src/vdp_write_palette.c</text>
</a>
</g>
</g>
<!-- Node9&#45;&gt;Node42 -->
<g id="edge43" class="edge">
<title>Node9&#45;&gt;Node42</title>
<path fill="none" stroke="midnightblue" d="M2912.14,-132.46C2963.6,-120.94 3045.01,-102.73 3092.69,-92.07"/>
<polygon fill="midnightblue" stroke="midnightblue" points="2911.26,-129.07 2902.27,-134.66 2912.79,-135.9 2911.26,-129.07"/>
</g>
<!-- Node43 -->
<g id="node42" class="node">
<title>Node43</title>
<g id="a_node42"><a xlink:href="vmem__memset_8c.html" target="_top" xlink:title="Copyright (c) 2021 Daishi Mori (mori0091)">
<polygon fill="none" stroke="black" points="3208,-73 3208,-92 3316,-92 3316,-73 3208,-73"/>
<text text-anchor="middle" x="3262" y="-80" font-family="Helvetica,sans-Serif" font-size="10.00">src/vmem_memset.c</text>
</a>
</g>
</g>
<!-- Node9&#45;&gt;Node43 -->
<g id="edge44" class="edge">
<title>Node9&#45;&gt;Node43</title>
<path fill="none" stroke="midnightblue" d="M2912.42,-137.93C2977.19,-130.7 3096.85,-116.26 3198,-98 3207.42,-96.3 3217.55,-94.15 3226.9,-92.04"/>
<polygon fill="midnightblue" stroke="midnightblue" points="2911.68,-134.49 2902.13,-139.07 2912.45,-141.45 2911.68,-134.49"/>
</g>
<!-- Node44 -->
<g id="node43" class="node">
<title>Node44</title>
<g id="a_node43"><a xlink:href="vmem__read_8c.html" target="_top" xlink:title="Copyright (c) 2021 Daishi Mori (mori0091)">
<polygon fill="none" stroke="black" points="3334,-73 3334,-92 3426,-92 3426,-73 3334,-73"/>
<text text-anchor="middle" x="3380" y="-80" font-family="Helvetica,sans-Serif" font-size="10.00">src/vmem_read.c</text>
</a>
</g>
</g>
<!-- Node9&#45;&gt;Node44 -->
<g id="edge45" class="edge">
<title>Node9&#45;&gt;Node44</title>
<path fill="none" stroke="midnightblue" d="M2912.47,-140.87C2996.29,-136.55 3175.79,-124.79 3325,-98 3333.55,-96.46 3342.73,-94.27 3351.08,-92.05"/>
<polygon fill="midnightblue" stroke="midnightblue" points="2912.06,-137.38 2902.24,-141.38 2912.41,-144.38 2912.06,-137.38"/>
</g>
<!-- Node45 -->
<g id="node44" class="node">
<title>Node45</title>
<g id="a_node44"><a xlink:href="vmem__set__read__address_8c.html" target="_top" xlink:title="Copyright (c) 2021 Daishi Mori (mori0091)">
<polygon fill="none" stroke="black" points="3444,-73 3444,-92 3594,-92 3594,-73 3444,-73"/>
<text text-anchor="middle" x="3519" y="-80" font-family="Helvetica,sans-Serif" font-size="10.00">src/vmem_set_read_address.c</text>
</a>
</g>
</g>
<!-- Node9&#45;&gt;Node45 -->
<g id="edge46" class="edge">
<title>Node9&#45;&gt;Node45</title>
<path fill="none" stroke="midnightblue" d="M2912.29,-140.74C3010.14,-135.75 3241.85,-122.24 3435,-98 3447.77,-96.4 3461.57,-94.21 3474.21,-92.02"/>
<polygon fill="midnightblue" stroke="midnightblue" points="2911.94,-137.26 2902.13,-141.26 2912.3,-144.25 2911.94,-137.26"/>
</g>
<!-- Node46 -->
<g id="node45" class="node">
<title>Node46</title>
<g id="a_node45"><a xlink:href="vmem__set__sprite__color__s_8c.html" target="_top" xlink:title="Copyright (c) 2021 Daishi Mori (mori0091)">
<polygon fill="none" stroke="black" points="5271,-0.5 5271,-30.5 5379,-30.5 5379,-0.5 5271,-0.5"/>
<text text-anchor="start" x="5279" y="-18.5" font-family="Helvetica,sans-Serif" font-size="10.00">src/vmem_set_sprite</text>
<text text-anchor="middle" x="5325" y="-7.5" font-family="Helvetica,sans-Serif" font-size="10.00">_color_s.c</text>
</a>
</g>
</g>
<!-- Node9&#45;&gt;Node46 -->
<g id="edge47" class="edge">
<title>Node9&#45;&gt;Node46</title>
<path fill="none" stroke="midnightblue" d="M2912.5,-142.81C3212.57,-141.51 4839.66,-132.87 5058,-98 5143.43,-84.35 5239.53,-50.11 5289.89,-30.63"/>
<polygon fill="midnightblue" stroke="midnightblue" points="2912.37,-139.31 2902.39,-142.85 2912.4,-146.31 2912.37,-139.31"/>
</g>
<!-- Node47 -->
<g id="node46" class="node">
<title>Node47</title>
<g id="a_node46"><a xlink:href="vmem__set__write__address_8c.html" target="_top" xlink:title="Copyright (c) 2021 Daishi Mori (mori0091)">
<polygon fill="none" stroke="black" points="3612.5,-67.5 3612.5,-97.5 3717.5,-97.5 3717.5,-67.5 3612.5,-67.5"/>
<text text-anchor="start" x="3620.5" y="-85.5" font-family="Helvetica,sans-Serif" font-size="10.00">src/vmem_set_write</text>
<text text-anchor="middle" x="3665" y="-74.5" font-family="Helvetica,sans-Serif" font-size="10.00">_address.c</text>
</a>
</g>
</g>
<!-- Node9&#45;&gt;Node47 -->
<g id="edge48" class="edge">
<title>Node9&#45;&gt;Node47</title>
<path fill="none" stroke="midnightblue" d="M2912.17,-142.88C3029.57,-141.97 3344.09,-135.89 3603,-98 3606.06,-97.55 3609.2,-97.03 3612.35,-96.45"/>
<polygon fill="midnightblue" stroke="midnightblue" points="2912.06,-139.38 2902.09,-142.94 2912.11,-146.38 2912.06,-139.38"/>
</g>
<!-- Node48 -->
<g id="node47" class="node">
<title>Node48</title>
<g id="a_node47"><a xlink:href="vmem__write_8c.html" target="_top" xlink:title="Copyright (c) 2021 Daishi Mori (mori0091)">
<polygon fill="none" stroke="black" points="3736,-73 3736,-92 3830,-92 3830,-73 3736,-73"/>
<text text-anchor="middle" x="3783" y="-80" font-family="Helvetica,sans-Serif" font-size="10.00">src/vmem_write.c</text>
</a>
</g>
</g>
<!-- Node9&#45;&gt;Node48 -->
<g id="edge49" class="edge">
<title>Node9&#45;&gt;Node48</title>
<path fill="none" stroke="midnightblue" d="M2912.4,-141.78C3068.86,-137.57 3567.92,-122.49 3727,-98 3736.03,-96.61 3745.72,-94.38 3754.45,-92.07"/>
<polygon fill="midnightblue" stroke="midnightblue" points="2912.07,-138.29 2902.17,-142.06 2912.26,-145.29 2912.07,-138.29"/>
</g>
<!-- Node10&#45;&gt;Node2 -->
<g id="edge11" class="edge">
<title>Node10&#45;&gt;Node2</title>
<path fill="none" stroke="midnightblue" d="M4972.11,-67.79C4948.72,-54.9 4914.44,-36.02 4894.66,-25.13"/>
<polygon fill="midnightblue" stroke="midnightblue" points="4970.64,-70.97 4981.09,-72.73 4974.02,-64.84 4970.64,-70.97"/>
</g>
<!-- Node11 -->
<g id="node11" class="node">
<title>Node11</title>
<g id="a_node11"><a xlink:href="vmem__set__metasprite__a_8c.html" target="_top" xlink:title="Copyright (c) 2021 Daishi Mori (mori0091)">
<polygon fill="none" stroke="black" points="4935,-6 4935,-25 5083,-25 5083,-6 4935,-6"/>
<text text-anchor="middle" x="5009" y="-13" font-family="Helvetica,sans-Serif" font-size="10.00">src/vmem_set_metasprite_a.c</text>
</a>
</g>
</g>
<!-- Node10&#45;&gt;Node11 -->
<g id="edge12" class="edge">
<title>Node10&#45;&gt;Node11</title>
<path fill="none" stroke="midnightblue" d="M5000.5,-62.54C5002.78,-50.17 5005.65,-34.62 5007.41,-25.13"/>
<polygon fill="midnightblue" stroke="midnightblue" points="4996.99,-62.26 4998.62,-72.73 5003.88,-63.54 4996.99,-62.26"/>
</g>
<!-- Node12 -->
<g id="node12" class="node">
<title>Node12</title>
<g id="a_node12"><a xlink:href="vmem__set__metasprite__m_8c.html" target="_top" xlink:title="Copyright (c) 2021 Daishi Mori (mori0091)">
<polygon fill="none" stroke="black" points="5101.5,-6 5101.5,-25 5252.5,-25 5252.5,-6 5101.5,-6"/>
<text text-anchor="middle" x="5177" y="-13" font-family="Helvetica,sans-Serif" font-size="10.00">src/vmem_set_metasprite_m.c</text>
</a>
</g>
</g>
<!-- Node10&#45;&gt;Node12 -->
<g id="edge13" class="edge">
<title>Node10&#45;&gt;Node12</title>
<path fill="none" stroke="midnightblue" d="M5030.41,-69.44C5066.12,-56.54 5121.83,-36.42 5153.29,-25.06"/>
<polygon fill="midnightblue" stroke="midnightblue" points="5029.12,-66.18 5020.9,-72.87 5031.5,-72.76 5029.12,-66.18"/>
</g>
<!-- Node49&#45;&gt;Node2 -->
<g id="edge52" class="edge">
<title>Node49&#45;&gt;Node2</title>
<path fill="none" stroke="midnightblue" d="M4985.81,-181.7C4961.18,-143.6 4902.97,-53.57 4884.63,-25.21"/>
<polygon fill="midnightblue" stroke="midnightblue" points="4982.94,-183.7 4991.31,-190.2 4988.82,-179.9 4982.94,-183.7"/>
</g>
<!-- Node49&#45;&gt;Node9 -->
<g id="edge63" class="edge">
<title>Node49&#45;&gt;Node9</title>
<path fill="none" stroke="midnightblue" d="M4944.24,-197.66C4644.16,-190.06 3156.84,-152.39 2902.14,-145.94"/>
<polygon fill="midnightblue" stroke="midnightblue" points="4944.33,-201.17 4954.41,-197.92 4944.5,-194.17 4944.33,-201.17"/>
</g>
<!-- Node49&#45;&gt;Node10 -->
<g id="edge51" class="edge">
<title>Node49&#45;&gt;Node10</title>
<path fill="none" stroke="midnightblue" d="M4997,-180.16C4997,-154.87 4997,-110.94 4997,-92.28"/>
<polygon fill="midnightblue" stroke="midnightblue" points="4993.5,-180.32 4997,-190.32 5000.5,-180.32 4993.5,-180.32"/>
</g>
<!-- Node49&#45;&gt;Node46 -->
<g id="edge64" class="edge">
<title>Node49&#45;&gt;Node46</title>
<path fill="none" stroke="midnightblue" d="M5049.6,-191.3C5136.26,-177.39 5302.81,-145.07 5336,-98 5350.15,-77.93 5340.32,-48.04 5332.35,-30.58"/>
<polygon fill="midnightblue" stroke="midnightblue" points="5049.02,-187.85 5039.69,-192.86 5050.12,-194.76 5049.02,-187.85"/>
</g>
<!-- Node50 -->
<g id="node49" class="node">
<title>Node50</title>
<g id="a_node49"><a xlink:href="sprite_8h.html" target="_top" xlink:title="Copyright (c) 2021 Daishi Mori (mori0091)">
<polygon fill="none" stroke="red" points="5055,-134.5 5055,-153.5 5137,-153.5 5137,-134.5 5055,-134.5"/>
<text text-anchor="middle" x="5096" y="-141.5" font-family="Helvetica,sans-Serif" font-size="10.00">include/sprite.h</text>
</a>
</g>
</g>
<!-- Node49&#45;&gt;Node50 -->
<g id="edge53" class="edge">
<title>Node49&#45;&gt;Node50</title>
<path fill="none" stroke="midnightblue" d="M5021.84,-185.45C5040.11,-175.48 5064.42,-162.23 5080.13,-153.65"/>
<polygon fill="midnightblue" stroke="midnightblue" points="5020.01,-182.46 5012.91,-190.32 5023.36,-188.61 5020.01,-182.46"/>
</g>
<!-- Node51 -->
<g id="node50" class="node">
<title>Node51</title>
<g id="a_node50"><a xlink:href="sprite__color_8h.html" target="_top" xlink:title="Copyright (c) 2021 Daishi Mori (mori0091)">
<polygon fill="none" stroke="red" points="5219,-73 5219,-92 5327,-92 5327,-73 5219,-73"/>
<text text-anchor="middle" x="5273" y="-80" font-family="Helvetica,sans-Serif" font-size="10.00">include/sprite_color.h</text>
</a>
</g>
</g>
<!-- Node49&#45;&gt;Node51 -->
<g id="edge62" class="edge">
<title>Node49&#45;&gt;Node51</title>
<path fill="none" stroke="midnightblue" d="M5042.73,-187.9C5072.68,-179.98 5112.35,-168.23 5146,-154 5189.43,-135.63 5237.18,-106.48 5259.76,-92.1"/>
<polygon fill="midnightblue" stroke="midnightblue" points="5041.77,-184.54 5032.97,-190.44 5043.53,-191.31 5041.77,-184.54"/>
</g>
<!-- Node50&#45;&gt;Node2 -->
<g id="edge55" class="edge">
<title>Node50&#45;&gt;Node2</title>
<path fill="none" stroke="midnightblue" d="M5091.43,-124.45C5086.21,-107.1 5075.97,-81.73 5058,-67 5010.97,-28.45 4984.39,-47.97 4926,-31 4919.6,-29.14 4912.74,-27.07 4906.29,-25.09"/>
<polygon fill="midnightblue" stroke="midnightblue" points="5088.16,-125.76 5094.17,-134.49 5094.92,-123.92 5088.16,-125.76"/>
</g>
<!-- Node50&#45;&gt;Node10 -->
<g id="edge54" class="edge">
<title>Node50&#45;&gt;Node10</title>
<path fill="none" stroke="midnightblue" d="M5073.11,-129.24C5053.99,-117.75 5027.32,-101.72 5011.16,-92.01"/>
<polygon fill="midnightblue" stroke="midnightblue" points="5071.44,-132.32 5081.82,-134.48 5075.05,-126.32 5071.44,-132.32"/>
</g>
<!-- Node50&#45;&gt;Node11 -->
<g id="edge60" class="edge">
<title>Node50&#45;&gt;Node11</title>
<path fill="none" stroke="midnightblue" d="M5099.3,-124.33C5101.19,-108.01 5101.42,-84.3 5091,-67 5078.49,-46.23 5053.84,-32.79 5034.82,-25.04"/>
<polygon fill="midnightblue" stroke="midnightblue" points="5095.83,-123.87 5097.84,-134.27 5102.76,-124.88 5095.83,-123.87"/>
</g>
<!-- Node50&#45;&gt;Node12 -->
<g id="edge61" class="edge">
<title>Node50&#45;&gt;Node12</title>
<path fill="none" stroke="midnightblue" d="M5109.03,-126.08C5115.27,-117.77 5122.74,-107.51 5129,-98 5145.98,-72.22 5163.91,-40.35 5172.23,-25.24"/>
<polygon fill="midnightblue" stroke="midnightblue" points="5106.11,-124.14 5102.84,-134.22 5111.68,-128.38 5106.11,-124.14"/>
</g>
<!-- Node50&#45;&gt;Node51 -->
<g id="edge56" class="edge">
<title>Node50&#45;&gt;Node51</title>
<path fill="none" stroke="midnightblue" d="M5131.01,-131.23C5165.41,-119.67 5217.08,-102.3 5247.69,-92.01"/>
<polygon fill="midnightblue" stroke="midnightblue" points="5129.72,-127.97 5121.36,-134.48 5131.95,-134.61 5129.72,-127.97"/>
</g>
<!-- Node51&#45;&gt;Node2 -->
<g id="edge57" class="edge">
<title>Node51&#45;&gt;Node2</title>
<path fill="none" stroke="midnightblue" d="M5208.73,-75.16C5138.66,-67.55 5023.5,-52.99 4926,-31 4918.84,-29.38 4911.18,-27.22 4904.17,-25.05"/>
<polygon fill="midnightblue" stroke="midnightblue" points="5208.41,-78.65 5218.73,-76.23 5209.16,-71.69 5208.41,-78.65"/>
</g>
<!-- Node51&#45;&gt;Node12 -->
<g id="edge58" class="edge">
<title>Node51&#45;&gt;Node12</title>
<path fill="none" stroke="midnightblue" d="M5251.72,-67.09C5232.73,-54.24 5205.55,-35.83 5189.74,-25.13"/>
<polygon fill="midnightblue" stroke="midnightblue" points="5249.81,-70.03 5260.05,-72.73 5253.73,-64.23 5249.81,-70.03"/>
</g>
<!-- Node51&#45;&gt;Node46 -->
<g id="edge59" class="edge">
<title>Node51&#45;&gt;Node46</title>
<path fill="none" stroke="midnightblue" d="M5286.46,-64.67C5294.92,-54.09 5305.72,-40.6 5313.73,-30.59"/>
<polygon fill="midnightblue" stroke="midnightblue" points="5283.53,-62.74 5280.01,-72.73 5288.99,-67.11 5283.53,-62.74"/>
</g>
</g>
</svg>
