<?xml version="1.0" encoding="UTF-8" standalone="no"?>
<!DOCTYPE svg PUBLIC "-//W3C//DTD SVG 1.1//EN"
 "http://www.w3.org/Graphics/SVG/1.1/DTD/svg11.dtd">
<!-- Generated by graphviz version 2.43.0 (0)
 -->
<!-- Title: include/io.h Pages: 1 -->
<svg width="5674pt" height="274pt"
 viewBox="0.00 0.00 5674.26 274.00" xmlns="http://www.w3.org/2000/svg" xmlns:xlink="http://www.w3.org/1999/xlink">
<g id="graph0" class="graph" transform="scale(1 1) rotate(0) translate(4 270)">
<title>include/io.h</title>
<!-- Node1 -->
<g id="node1" class="node">
<title>Node1</title>
<g id="a_node1"><a xlink:title=" ">
<polygon fill="#bfbfbf" stroke="black" points="1066.71,-246.5 1066.71,-265.5 1139.71,-265.5 1139.71,-246.5 1066.71,-246.5"/>
<text text-anchor="middle" x="1103.21" y="-253.5" font-family="Helvetica,sans-Serif" font-size="10.00">include/io.h</text>
</a>
</g>
</g>
<!-- Node2 -->
<g id="node2" class="node">
<title>Node2</title>
<g id="a_node2"><a xlink:href="vdp_8h.html" target="_top" xlink:title=" ">
<polygon fill="none" stroke="black" points="3209.21,-134.5 3209.21,-153.5 3291.21,-153.5 3291.21,-134.5 3209.21,-134.5"/>
<text text-anchor="middle" x="3250.21" y="-141.5" font-family="Helvetica,sans-Serif" font-size="10.00">include/vdp.h</text>
</a>
</g>
</g>
<!-- Node1&#45;&gt;Node2 -->
<g id="edge1" class="edge">
<title>Node1&#45;&gt;Node2</title>
<path fill="none" stroke="midnightblue" d="M1108.37,-236.75C1113.8,-221.31 1124,-200.12 1141.21,-190 1187.48,-162.79 2918.61,-147.67 3209.06,-145.32"/>
<polygon fill="midnightblue" stroke="midnightblue" points="1105.02,-235.72 1105.34,-246.31 1111.7,-237.83 1105.02,-235.72"/>
</g>
<!-- Node4 -->
<g id="node4" class="node">
<title>Node4</title>
<g id="a_node4"><a xlink:href="msx_8h.html" target="_top" xlink:title=" ">
<polygon fill="none" stroke="black" points="959.71,-6 959.71,-25 1044.71,-25 1044.71,-6 959.71,-6"/>
<text text-anchor="middle" x="1002.21" y="-13" font-family="Helvetica,sans-Serif" font-size="10.00">include/msx.h</text>
</a>
</g>
</g>
<!-- Node1&#45;&gt;Node4 -->
<g id="edge64" class="edge">
<title>Node1&#45;&gt;Node4</title>
<path fill="none" stroke="midnightblue" d="M1099.63,-236.13C1092.48,-201.18 1074.38,-124.68 1043.21,-67 1034.4,-50.71 1020.05,-34.56 1010.88,-25.07"/>
<polygon fill="midnightblue" stroke="midnightblue" points="1096.27,-237.17 1101.64,-246.3 1103.13,-235.81 1096.27,-237.17"/>
</g>
<!-- Node42 -->
<g id="node42" class="node">
<title>Node42</title>
<g id="a_node42"><a xlink:href="vmem_8h.html" target="_top" xlink:title=" ">
<polygon fill="none" stroke="black" points="960.71,-190.5 960.71,-209.5 1055.71,-209.5 1055.71,-190.5 960.71,-190.5"/>
<text text-anchor="middle" x="1008.21" y="-197.5" font-family="Helvetica,sans-Serif" font-size="10.00">include/vmem.h</text>
</a>
</g>
</g>
<!-- Node1&#45;&gt;Node42 -->
<g id="edge42" class="edge">
<title>Node1&#45;&gt;Node42</title>
<path fill="none" stroke="midnightblue" d="M1078.89,-241.18C1061.41,-231.24 1038.38,-218.15 1023.44,-209.65"/>
<polygon fill="midnightblue" stroke="midnightblue" points="1077.52,-244.43 1087.95,-246.32 1080.98,-238.34 1077.52,-244.43"/>
</g>
<!-- Node52 -->
<g id="node50" class="node">
<title>Node52</title>
<g id="a_node50"><a xlink:href="joypad__get__state_8c.html" target="_top" xlink:title=" ">
<polygon fill="none" stroke="black" points="1150.21,-190.5 1150.21,-209.5 1276.21,-209.5 1276.21,-190.5 1150.21,-190.5"/>
<text text-anchor="middle" x="1213.21" y="-197.5" font-family="Helvetica,sans-Serif" font-size="10.00">src/joypad_get_state.c</text>
</a>
</g>
</g>
<!-- Node1&#45;&gt;Node52 -->
<g id="edge65" class="edge">
<title>Node1&#45;&gt;Node52</title>
<path fill="none" stroke="midnightblue" d="M1129.97,-241.86C1150.37,-231.85 1177.88,-218.35 1195.58,-209.65"/>
<polygon fill="midnightblue" stroke="midnightblue" points="1128.32,-238.78 1120.88,-246.32 1131.4,-245.06 1128.32,-238.78"/>
</g>
<!-- Node3 -->
<g id="node3" class="node">
<title>Node3</title>
<g id="a_node3"><a xlink:href="metasprite_8h.html" target="_top" xlink:title=" ">
<polygon fill="none" stroke="black" points="724.71,-73 724.71,-92 841.71,-92 841.71,-73 724.71,-73"/>
<text text-anchor="middle" x="783.21" y="-80" font-family="Helvetica,sans-Serif" font-size="10.00">include/metasprite.h</text>
</a>
</g>
</g>
<!-- Node2&#45;&gt;Node3 -->
<g id="edge2" class="edge">
<title>Node2&#45;&gt;Node3</title>
<path fill="none" stroke="midnightblue" d="M3198.69,-142.84C2897.35,-141.77 1360.32,-134.59 889.21,-98 871.99,-96.66 853.29,-94.38 836.46,-92.02"/>
<polygon fill="midnightblue" stroke="midnightblue" points="3198.87,-146.34 3208.88,-142.87 3198.89,-139.34 3198.87,-146.34"/>
</g>
<!-- Node2&#45;&gt;Node4 -->
<g id="edge7" class="edge">
<title>Node2&#45;&gt;Node4</title>
<path fill="none" stroke="midnightblue" d="M3198.7,-142.77C2885.02,-141.24 1241.71,-131.64 1141.21,-98 1118.87,-90.52 1118.24,-79.4 1098.21,-67 1071.95,-50.74 1039.94,-34.59 1020.32,-25.08"/>
<polygon fill="midnightblue" stroke="midnightblue" points="3198.85,-146.27 3208.87,-142.82 3198.89,-139.27 3198.85,-146.27"/>
</g>
<!-- Node8 -->
<g id="node8" class="node">
<title>Node8</title>
<g id="a_node8"><a xlink:href="vdp_8c.html" target="_top" xlink:title=" ">
<polygon fill="none" stroke="black" points="5310.21,-73 5310.21,-92 5370.21,-92 5370.21,-73 5310.21,-73"/>
<text text-anchor="middle" x="5340.21" y="-80" font-family="Helvetica,sans-Serif" font-size="10.00">src/vdp.c</text>
</a>
</g>
</g>
<!-- Node2&#45;&gt;Node8 -->
<g id="edge8" class="edge">
<title>Node2&#45;&gt;Node8</title>
<path fill="none" stroke="midnightblue" d="M3301.47,-142.78C3598.7,-141.38 5094.52,-132.66 5296.21,-98 5303.66,-96.72 5311.57,-94.42 5318.6,-92.03"/>
<polygon fill="midnightblue" stroke="midnightblue" points="3301.39,-139.28 3291.41,-142.83 3301.43,-146.28 3301.39,-139.28"/>
</g>
<!-- Node9 -->
<g id="node9" class="node">
<title>Node9</title>
<g id="a_node9"><a xlink:href="vdp__cmd__execute__HMMM_8c.html" target="_top" xlink:title=" ">
<polygon fill="none" stroke="black" points="5388.21,-67.5 5388.21,-97.5 5510.21,-97.5 5510.21,-67.5 5388.21,-67.5"/>
<text text-anchor="start" x="5396.21" y="-85.5" font-family="Helvetica,sans-Serif" font-size="10.00">src/vdp_cmd_execute</text>
<text text-anchor="middle" x="5449.21" y="-74.5" font-family="Helvetica,sans-Serif" font-size="10.00">_HMMM.c</text>
</a>
</g>
</g>
<!-- Node2&#45;&gt;Node9 -->
<g id="edge9" class="edge">
<title>Node2&#45;&gt;Node9</title>
<path fill="none" stroke="midnightblue" d="M3302.02,-143.19C3586.23,-144.05 4958.49,-145.61 5379.21,-98 5382.05,-97.68 5384.94,-97.3 5387.85,-96.87"/>
<polygon fill="midnightblue" stroke="midnightblue" points="3301.61,-139.69 3291.6,-143.16 3301.59,-146.69 3301.61,-139.69"/>
</g>
<!-- Node10 -->
<g id="node10" class="node">
<title>Node10</title>
<g id="a_node10"><a xlink:href="vdp__cmd__execute__HMMV_8c.html" target="_top" xlink:title=" ">
<polygon fill="none" stroke="black" points="5528.21,-67.5 5528.21,-97.5 5650.21,-97.5 5650.21,-67.5 5528.21,-67.5"/>
<text text-anchor="start" x="5536.21" y="-85.5" font-family="Helvetica,sans-Serif" font-size="10.00">src/vdp_cmd_execute</text>
<text text-anchor="middle" x="5589.21" y="-74.5" font-family="Helvetica,sans-Serif" font-size="10.00">_HMMV.c</text>
</a>
</g>
</g>
<!-- Node2&#45;&gt;Node10 -->
<g id="edge10" class="edge">
<title>Node2&#45;&gt;Node10</title>
<path fill="none" stroke="midnightblue" d="M3301.61,-143.27C3595.82,-144.61 5068.89,-148.67 5519.21,-98 5522.05,-97.68 5524.94,-97.3 5527.85,-96.88"/>
<polygon fill="midnightblue" stroke="midnightblue" points="3301.27,-139.77 3291.25,-143.22 3301.23,-146.77 3301.27,-139.77"/>
</g>
<!-- Node11 -->
<g id="node11" class="node">
<title>Node11</title>
<g id="a_node11"><a xlink:href="vdp__cmd__execute__LMMM_8c.html" target="_top" xlink:title=" ">
<polygon fill="none" stroke="black" points="1150.21,-67.5 1150.21,-97.5 1272.21,-97.5 1272.21,-67.5 1150.21,-67.5"/>
<text text-anchor="start" x="1158.21" y="-85.5" font-family="Helvetica,sans-Serif" font-size="10.00">src/vdp_cmd_execute</text>
<text text-anchor="middle" x="1211.21" y="-74.5" font-family="Helvetica,sans-Serif" font-size="10.00">_LMMM.c</text>
</a>
</g>
</g>
<!-- Node2&#45;&gt;Node11 -->
<g id="edge11" class="edge">
<title>Node2&#45;&gt;Node11</title>
<path fill="none" stroke="midnightblue" d="M3198.87,-143.09C2928.63,-143.36 1668.63,-142.18 1281.21,-98 1278.37,-97.68 1275.48,-97.29 1272.57,-96.87"/>
<polygon fill="midnightblue" stroke="midnightblue" points="3199.17,-146.59 3209.17,-143.08 3199.17,-139.59 3199.17,-146.59"/>
</g>
<!-- Node12 -->
<g id="node12" class="node">
<title>Node12</title>
<g id="a_node12"><a xlink:href="vdp__cmd__execute__LMMV_8c.html" target="_top" xlink:title=" ">
<polygon fill="none" stroke="black" points="1290.21,-67.5 1290.21,-97.5 1412.21,-97.5 1412.21,-67.5 1290.21,-67.5"/>
<text text-anchor="start" x="1298.21" y="-85.5" font-family="Helvetica,sans-Serif" font-size="10.00">src/vdp_cmd_execute</text>
<text text-anchor="middle" x="1351.21" y="-74.5" font-family="Helvetica,sans-Serif" font-size="10.00">_LMMV.c</text>
</a>
</g>
</g>
<!-- Node2&#45;&gt;Node12 -->
<g id="edge12" class="edge">
<title>Node2&#45;&gt;Node12</title>
<path fill="none" stroke="midnightblue" d="M3198.83,-142.98C2940.22,-142.71 1779.33,-139.16 1421.21,-98 1418.37,-97.67 1415.48,-97.29 1412.57,-96.86"/>
<polygon fill="midnightblue" stroke="midnightblue" points="3199.06,-146.48 3209.06,-142.99 3199.06,-139.48 3199.06,-146.48"/>
</g>
<!-- Node13 -->
<g id="node13" class="node">
<title>Node13</title>
<g id="a_node13"><a xlink:href="vdp__cmd__set__unrestricted_8c.html" target="_top" xlink:title=" ">
<polygon fill="none" stroke="black" points="1430.21,-73 1430.21,-92 1600.21,-92 1600.21,-73 1430.21,-73"/>
<text text-anchor="middle" x="1515.21" y="-80" font-family="Helvetica,sans-Serif" font-size="10.00">src/vdp_cmd_set_unrestricted.c</text>
</a>
</g>
</g>
<!-- Node2&#45;&gt;Node13 -->
<g id="edge13" class="edge">
<title>Node2&#45;&gt;Node13</title>
<path fill="none" stroke="midnightblue" d="M3198.79,-142.46C2956.7,-139.79 1928.93,-126.93 1609.21,-98 1594.08,-96.63 1577.68,-94.37 1562.89,-92.04"/>
<polygon fill="midnightblue" stroke="midnightblue" points="3199.02,-145.96 3209.06,-142.57 3199.1,-138.96 3199.02,-145.96"/>
</g>
<!-- Node14 -->
<g id="node14" class="node">
<title>Node14</title>
<g id="a_node14"><a xlink:href="vdp__get__sprite__mode_8c.html" target="_top" xlink:title=" ">
<polygon fill="none" stroke="black" points="1618.21,-67.5 1618.21,-97.5 1724.21,-97.5 1724.21,-67.5 1618.21,-67.5"/>
<text text-anchor="start" x="1626.21" y="-85.5" font-family="Helvetica,sans-Serif" font-size="10.00">src/vdp_get_sprite</text>
<text text-anchor="middle" x="1671.21" y="-74.5" font-family="Helvetica,sans-Serif" font-size="10.00">_mode.c</text>
</a>
</g>
</g>
<!-- Node2&#45;&gt;Node14 -->
<g id="edge14" class="edge">
<title>Node2&#45;&gt;Node14</title>
<path fill="none" stroke="midnightblue" d="M3198.92,-142.86C2968.29,-142 2025.91,-136.18 1733.21,-98 1730.36,-97.63 1727.45,-97.18 1724.52,-96.68"/>
<polygon fill="midnightblue" stroke="midnightblue" points="3199.03,-146.36 3209.04,-142.89 3199.05,-139.36 3199.03,-146.36"/>
</g>
<!-- Node15 -->
<g id="node15" class="node">
<title>Node15</title>
<g id="a_node15"><a xlink:href="vdp__get__status_8c.html" target="_top" xlink:title=" ">
<polygon fill="none" stroke="black" points="1742.21,-73 1742.21,-92 1858.21,-92 1858.21,-73 1742.21,-73"/>
<text text-anchor="middle" x="1800.21" y="-80" font-family="Helvetica,sans-Serif" font-size="10.00">src/vdp_get_status.c</text>
</a>
</g>
</g>
<!-- Node2&#45;&gt;Node15 -->
<g id="edge15" class="edge">
<title>Node2&#45;&gt;Node15</title>
<path fill="none" stroke="midnightblue" d="M3198.93,-142.57C2981.21,-140.56 2132.43,-130.74 1867.21,-98 1856.22,-96.64 1844.38,-94.36 1833.75,-92"/>
<polygon fill="midnightblue" stroke="midnightblue" points="3199.08,-146.07 3209.11,-142.66 3199.15,-139.07 3199.08,-146.07"/>
</g>
<!-- Node16 -->
<g id="node16" class="node">
<title>Node16</title>
<g id="a_node16"><a xlink:href="vdp__set__adjust_8c.html" target="_top" xlink:title=" ">
<polygon fill="none" stroke="black" points="1876.21,-73 1876.21,-92 1992.21,-92 1992.21,-73 1876.21,-73"/>
<text text-anchor="middle" x="1934.21" y="-80" font-family="Helvetica,sans-Serif" font-size="10.00">src/vdp_set_adjust.c</text>
</a>
</g>
</g>
<!-- Node2&#45;&gt;Node16 -->
<g id="edge16" class="edge">
<title>Node2&#45;&gt;Node16</title>
<path fill="none" stroke="midnightblue" d="M3199.01,-142.34C2994.99,-139.54 2239.61,-127.36 2002.21,-98 1991.19,-96.64 1979.31,-94.38 1968.61,-92.05"/>
<polygon fill="midnightblue" stroke="midnightblue" points="3199.1,-145.84 3209.14,-142.48 3199.19,-138.85 3199.1,-145.84"/>
</g>
<!-- Node17 -->
<g id="node17" class="node">
<title>Node17</title>
<g id="a_node17"><a xlink:href="vdp__set__color_8c.html" target="_top" xlink:title=" ">
<polygon fill="none" stroke="black" points="2010.71,-73 2010.71,-92 2119.71,-92 2119.71,-73 2010.71,-73"/>
<text text-anchor="middle" x="2065.21" y="-80" font-family="Helvetica,sans-Serif" font-size="10.00">src/vdp_set_color.c</text>
</a>
</g>
</g>
<!-- Node2&#45;&gt;Node17 -->
<g id="edge17" class="edge">
<title>Node2&#45;&gt;Node17</title>
<path fill="none" stroke="midnightblue" d="M3198.94,-142.19C3008.28,-138.97 2340.26,-125.91 2129.21,-98 2118.82,-96.63 2107.63,-94.37 2097.56,-92.04"/>
<polygon fill="midnightblue" stroke="midnightblue" points="3198.92,-145.69 3208.98,-142.35 3199.04,-138.69 3198.92,-145.69"/>
</g>
<!-- Node18 -->
<g id="node18" class="node">
<title>Node18</title>
<g id="a_node18"><a xlink:href="vdp__set__color__table_8c.html" target="_top" xlink:title=" ">
<polygon fill="none" stroke="black" points="2138.21,-73 2138.21,-92 2278.21,-92 2278.21,-73 2138.21,-73"/>
<text text-anchor="middle" x="2208.21" y="-80" font-family="Helvetica,sans-Serif" font-size="10.00">src/vdp_set_color_table.c</text>
</a>
</g>
</g>
<!-- Node2&#45;&gt;Node18 -->
<g id="edge18" class="edge">
<title>Node2&#45;&gt;Node18</title>
<path fill="none" stroke="midnightblue" d="M3198.48,-142.99C3054.02,-142.43 2634.24,-137.28 2288.21,-98 2275.45,-96.55 2261.65,-94.3 2249.16,-92"/>
<polygon fill="midnightblue" stroke="midnightblue" points="3198.79,-146.49 3208.8,-143.02 3198.81,-139.49 3198.79,-146.49"/>
</g>
<!-- Node19 -->
<g id="node19" class="node">
<title>Node19</title>
<g id="a_node19"><a xlink:href="vdp__set__control_8c.html" target="_top" xlink:title=" ">
<polygon fill="none" stroke="black" points="2296.71,-73 2296.71,-92 2415.71,-92 2415.71,-73 2296.71,-73"/>
<text text-anchor="middle" x="2356.21" y="-80" font-family="Helvetica,sans-Serif" font-size="10.00">src/vdp_set_control.c</text>
</a>
</g>
</g>
<!-- Node2&#45;&gt;Node19 -->
<g id="edge19" class="edge">
<title>Node2&#45;&gt;Node19</title>
<path fill="none" stroke="midnightblue" d="M3198.72,-142.91C3068.55,-142.11 2715.99,-136.26 2425.21,-98 2414.29,-96.56 2402.52,-94.34 2391.84,-92.07"/>
<polygon fill="midnightblue" stroke="midnightblue" points="3198.78,-146.41 3208.8,-142.97 3198.82,-139.41 3198.78,-146.41"/>
</g>
<!-- Node20 -->
<g id="node20" class="node">
<title>Node20</title>
<g id="a_node20"><a xlink:href="vdp__set__hscroll_8c.html" target="_top" xlink:title=" ">
<polygon fill="none" stroke="black" points="2434.21,-73 2434.21,-92 2552.21,-92 2552.21,-73 2434.21,-73"/>
<text text-anchor="middle" x="2493.21" y="-80" font-family="Helvetica,sans-Serif" font-size="10.00">src/vdp_set_hscroll.c</text>
</a>
</g>
</g>
<!-- Node2&#45;&gt;Node20 -->
<g id="edge20" class="edge">
<title>Node2&#45;&gt;Node20</title>
<path fill="none" stroke="midnightblue" d="M3198.57,-142.18C3083.57,-139.79 2797.83,-130.78 2561.21,-98 2550.45,-96.51 2538.85,-94.27 2528.33,-92"/>
<polygon fill="midnightblue" stroke="midnightblue" points="3198.77,-145.68 3208.84,-142.38 3198.91,-138.69 3198.77,-145.68"/>
</g>
<!-- Node21 -->
<g id="node21" class="node">
<title>Node21</title>
<g id="a_node21"><a xlink:href="vdp__set__hscroll__dual__page_8c.html" target="_top" xlink:title=" ">
<polygon fill="none" stroke="black" points="2570.21,-67.5 2570.21,-97.5 2680.21,-97.5 2680.21,-67.5 2570.21,-67.5"/>
<text text-anchor="start" x="2578.21" y="-85.5" font-family="Helvetica,sans-Serif" font-size="10.00">src/vdp_set_hscroll</text>
<text text-anchor="middle" x="2625.21" y="-74.5" font-family="Helvetica,sans-Serif" font-size="10.00">_dual_page.c</text>
</a>
</g>
</g>
<!-- Node2&#45;&gt;Node21 -->
<g id="edge21" class="edge">
<title>Node2&#45;&gt;Node21</title>
<path fill="none" stroke="midnightblue" d="M3199.13,-141.34C3100.2,-137.6 2875.79,-126.47 2689.21,-98 2686.28,-97.55 2683.29,-97.05 2680.27,-96.5"/>
<polygon fill="midnightblue" stroke="midnightblue" points="3199.03,-144.84 3209.15,-141.71 3199.29,-137.85 3199.03,-144.84"/>
</g>
<!-- Node22 -->
<g id="node22" class="node">
<title>Node22</title>
<g id="a_node22"><a xlink:href="vdp__set__hscroll__mask_8c.html" target="_top" xlink:title=" ">
<polygon fill="none" stroke="black" points="2698.21,-67.5 2698.21,-97.5 2808.21,-97.5 2808.21,-67.5 2698.21,-67.5"/>
<text text-anchor="start" x="2706.21" y="-85.5" font-family="Helvetica,sans-Serif" font-size="10.00">src/vdp_set_hscroll</text>
<text text-anchor="middle" x="2753.21" y="-74.5" font-family="Helvetica,sans-Serif" font-size="10.00">_mask.c</text>
</a>
</g>
</g>
<!-- Node2&#45;&gt;Node22 -->
<g id="edge22" class="edge">
<title>Node2&#45;&gt;Node22</title>
<path fill="none" stroke="midnightblue" d="M3198.64,-139.64C3117.21,-133.88 2954.06,-120.53 2817.21,-98 2814.29,-97.52 2811.3,-96.99 2808.29,-96.42"/>
<polygon fill="midnightblue" stroke="midnightblue" points="3198.88,-143.16 3209.1,-140.37 3199.37,-136.18 3198.88,-143.16"/>
</g>
<!-- Node23 -->
<g id="node23" class="node">
<title>Node23</title>
<g id="a_node23"><a xlink:href="vdp__set__image__table_8c.html" target="_top" xlink:title=" ">
<polygon fill="none" stroke="black" points="2826.21,-73 2826.21,-92 2972.21,-92 2972.21,-73 2826.21,-73"/>
<text text-anchor="middle" x="2899.21" y="-80" font-family="Helvetica,sans-Serif" font-size="10.00">src/vdp_set_image_table.c</text>
</a>
</g>
</g>
<!-- Node2&#45;&gt;Node23 -->
<g id="edge23" class="edge">
<title>Node2&#45;&gt;Node23</title>
<path fill="none" stroke="midnightblue" d="M3199.14,-134.6C3145.02,-125.67 3057.05,-111.05 2981.21,-98 2970.1,-96.09 2958.14,-93.99 2946.89,-92.01"/>
<polygon fill="midnightblue" stroke="midnightblue" points="3198.74,-138.08 3209.17,-136.26 3199.88,-131.18 3198.74,-138.08"/>
</g>
<!-- Node24 -->
<g id="node24" class="node">
<title>Node24</title>
<g id="a_node24"><a xlink:href="vdp__set__palette_8c.html" target="_top" xlink:title=" ">
<polygon fill="none" stroke="black" points="2990.21,-73 2990.21,-92 3110.21,-92 3110.21,-73 2990.21,-73"/>
<text text-anchor="middle" x="3050.21" y="-80" font-family="Helvetica,sans-Serif" font-size="10.00">src/vdp_set_palette.c</text>
</a>
</g>
</g>
<!-- Node2&#45;&gt;Node24 -->
<g id="edge24" class="edge">
<title>Node2&#45;&gt;Node24</title>
<path fill="none" stroke="midnightblue" d="M3211.65,-131.53C3172.78,-119.96 3113.69,-102.38 3078.81,-92.01"/>
<polygon fill="midnightblue" stroke="midnightblue" points="3210.97,-134.98 3221.55,-134.48 3212.97,-128.27 3210.97,-134.98"/>
</g>
<!-- Node25 -->
<g id="node25" class="node">
<title>Node25</title>
<g id="a_node25"><a xlink:href="vdp__set__pattern__table_8c.html" target="_top" xlink:title=" ">
<polygon fill="none" stroke="black" points="3128.71,-67.5 3128.71,-97.5 3241.71,-97.5 3241.71,-67.5 3128.71,-67.5"/>
<text text-anchor="start" x="3136.71" y="-85.5" font-family="Helvetica,sans-Serif" font-size="10.00">src/vdp_set_pattern</text>
<text text-anchor="middle" x="3185.21" y="-74.5" font-family="Helvetica,sans-Serif" font-size="10.00">_table.c</text>
</a>
</g>
</g>
<!-- Node2&#45;&gt;Node25 -->
<g id="edge25" class="edge">
<title>Node2&#45;&gt;Node25</title>
<path fill="none" stroke="midnightblue" d="M3233.44,-127.65C3223.28,-118.35 3210.41,-106.57 3200.53,-97.52"/>
<polygon fill="midnightblue" stroke="midnightblue" points="3231.16,-130.3 3240.9,-134.48 3235.88,-125.14 3231.16,-130.3"/>
</g>
<!-- Node26 -->
<g id="node26" class="node">
<title>Node26</title>
<g id="a_node26"><a xlink:href="vdp__set__screen__lines_8c.html" target="_top" xlink:title=" ">
<polygon fill="none" stroke="black" points="3260.21,-67.5 3260.21,-97.5 3370.21,-97.5 3370.21,-67.5 3260.21,-67.5"/>
<text text-anchor="start" x="3268.21" y="-85.5" font-family="Helvetica,sans-Serif" font-size="10.00">src/vdp_set_screen</text>
<text text-anchor="middle" x="3315.21" y="-74.5" font-family="Helvetica,sans-Serif" font-size="10.00">_lines.c</text>
</a>
</g>
</g>
<!-- Node2&#45;&gt;Node26 -->
<g id="edge26" class="edge">
<title>Node2&#45;&gt;Node26</title>
<path fill="none" stroke="midnightblue" d="M3266.98,-127.65C3277.14,-118.35 3290,-106.57 3299.89,-97.52"/>
<polygon fill="midnightblue" stroke="midnightblue" points="3264.54,-125.14 3259.52,-134.48 3269.26,-130.3 3264.54,-125.14"/>
</g>
<!-- Node27 -->
<g id="node27" class="node">
<title>Node27</title>
<g id="a_node27"><a xlink:href="vdp__set__screen__mode_8c.html" target="_top" xlink:title=" ">
<polygon fill="none" stroke="black" points="3388.21,-67.5 3388.21,-97.5 3498.21,-97.5 3498.21,-67.5 3388.21,-67.5"/>
<text text-anchor="start" x="3396.21" y="-85.5" font-family="Helvetica,sans-Serif" font-size="10.00">src/vdp_set_screen</text>
<text text-anchor="middle" x="3443.21" y="-74.5" font-family="Helvetica,sans-Serif" font-size="10.00">_mode.c</text>
</a>
</g>
</g>
<!-- Node2&#45;&gt;Node27 -->
<g id="edge27" class="edge">
<title>Node2&#45;&gt;Node27</title>
<path fill="none" stroke="midnightblue" d="M3287.57,-131.48C3319.03,-121.78 3364.16,-107.87 3397.72,-97.52"/>
<polygon fill="midnightblue" stroke="midnightblue" points="3286.39,-128.18 3277.86,-134.48 3288.45,-134.87 3286.39,-128.18"/>
</g>
<!-- Node28 -->
<g id="node28" class="node">
<title>Node28</title>
<g id="a_node28"><a xlink:href="vdp__set__sprite__attribute__table_8c.html" target="_top" xlink:title=" ">
<polygon fill="none" stroke="black" points="3516.71,-67.5 3516.71,-97.5 3621.71,-97.5 3621.71,-67.5 3516.71,-67.5"/>
<text text-anchor="start" x="3524.71" y="-85.5" font-family="Helvetica,sans-Serif" font-size="10.00">src/vdp_set_sprite</text>
<text text-anchor="middle" x="3569.21" y="-74.5" font-family="Helvetica,sans-Serif" font-size="10.00">_attribute_table.c</text>
</a>
</g>
</g>
<!-- Node2&#45;&gt;Node28 -->
<g id="edge28" class="edge">
<title>Node2&#45;&gt;Node28</title>
<path fill="none" stroke="midnightblue" d="M3301.27,-134.93C3353.24,-126.51 3436.06,-112.54 3507.21,-98 3510.24,-97.38 3513.35,-96.72 3516.49,-96.04"/>
<polygon fill="midnightblue" stroke="midnightblue" points="3300.61,-131.49 3291.29,-136.54 3301.72,-138.4 3300.61,-131.49"/>
</g>
<!-- Node29 -->
<g id="node29" class="node">
<title>Node29</title>
<g id="a_node29"><a xlink:href="vdp__set__sprite__pattern__table_8c.html" target="_top" xlink:title=" ">
<polygon fill="none" stroke="black" points="3639.71,-67.5 3639.71,-97.5 3744.71,-97.5 3744.71,-67.5 3639.71,-67.5"/>
<text text-anchor="start" x="3647.71" y="-85.5" font-family="Helvetica,sans-Serif" font-size="10.00">src/vdp_set_sprite</text>
<text text-anchor="middle" x="3692.21" y="-74.5" font-family="Helvetica,sans-Serif" font-size="10.00">_pattern_table.c</text>
</a>
</g>
</g>
<!-- Node2&#45;&gt;Node29 -->
<g id="edge29" class="edge">
<title>Node2&#45;&gt;Node29</title>
<path fill="none" stroke="midnightblue" d="M3301.67,-138.83C3375.14,-132.44 3514.16,-118.75 3631.21,-98 3633.89,-97.52 3636.63,-97 3639.39,-96.45"/>
<polygon fill="midnightblue" stroke="midnightblue" points="3300.98,-135.37 3291.32,-139.72 3301.58,-142.35 3300.98,-135.37"/>
</g>
<!-- Node30 -->
<g id="node30" class="node">
<title>Node30</title>
<g id="a_node30"><a xlink:href="vdp__set__sprite__size_8c.html" target="_top" xlink:title=" ">
<polygon fill="none" stroke="black" points="3762.71,-67.5 3762.71,-97.5 3867.71,-97.5 3867.71,-67.5 3762.71,-67.5"/>
<text text-anchor="start" x="3770.71" y="-85.5" font-family="Helvetica,sans-Serif" font-size="10.00">src/vdp_set_sprite</text>
<text text-anchor="middle" x="3815.21" y="-74.5" font-family="Helvetica,sans-Serif" font-size="10.00">_size.c</text>
</a>
</g>
</g>
<!-- Node2&#45;&gt;Node30 -->
<g id="edge30" class="edge">
<title>Node2&#45;&gt;Node30</title>
<path fill="none" stroke="midnightblue" d="M3301.38,-140.87C3392.78,-136.53 3589.94,-124.71 3754.21,-98 3756.9,-97.56 3759.64,-97.07 3762.4,-96.55"/>
<polygon fill="midnightblue" stroke="midnightblue" points="3301.12,-137.38 3291.29,-141.34 3301.44,-144.37 3301.12,-137.38"/>
</g>
<!-- Node31 -->
<g id="node31" class="node">
<title>Node31</title>
<g id="a_node31"><a xlink:href="vdp__set__sprite__visible_8c.html" target="_top" xlink:title=" ">
<polygon fill="none" stroke="black" points="3885.71,-67.5 3885.71,-97.5 3990.71,-97.5 3990.71,-67.5 3885.71,-67.5"/>
<text text-anchor="start" x="3893.71" y="-85.5" font-family="Helvetica,sans-Serif" font-size="10.00">src/vdp_set_sprite</text>
<text text-anchor="middle" x="3938.21" y="-74.5" font-family="Helvetica,sans-Serif" font-size="10.00">_visible.c</text>
</a>
</g>
</g>
<!-- Node2&#45;&gt;Node31 -->
<g id="edge31" class="edge">
<title>Node2&#45;&gt;Node31</title>
<path fill="none" stroke="midnightblue" d="M3301.8,-142.12C3409.38,-139.65 3665.3,-130.57 3877.21,-98 3879.9,-97.59 3882.65,-97.12 3885.41,-96.6"/>
<polygon fill="midnightblue" stroke="midnightblue" points="3301.47,-138.62 3291.55,-142.34 3301.62,-145.62 3301.47,-138.62"/>
</g>
<!-- Node32 -->
<g id="node32" class="node">
<title>Node32</title>
<g id="a_node32"><a xlink:href="vdp__set__visible_8c.html" target="_top" xlink:title=" ">
<polygon fill="none" stroke="black" points="4009.21,-73 4009.21,-92 4127.21,-92 4127.21,-73 4009.21,-73"/>
<text text-anchor="middle" x="4068.21" y="-80" font-family="Helvetica,sans-Serif" font-size="10.00">src/vdp_set_visible.c</text>
</a>
</g>
</g>
<!-- Node2&#45;&gt;Node32 -->
<g id="edge32" class="edge">
<title>Node2&#45;&gt;Node32</title>
<path fill="none" stroke="midnightblue" d="M3301.63,-142.57C3423.51,-140.97 3739.29,-133.44 4000.21,-98 4010.97,-96.54 4022.57,-94.31 4033.09,-92.04"/>
<polygon fill="midnightblue" stroke="midnightblue" points="3301.43,-139.07 3291.48,-142.69 3301.52,-146.07 3301.43,-139.07"/>
</g>
<!-- Node33 -->
<g id="node33" class="node">
<title>Node33</title>
<g id="a_node33"><a xlink:href="vdp__set__vscroll_8c.html" target="_top" xlink:title=" ">
<polygon fill="none" stroke="black" points="4145.21,-73 4145.21,-92 4263.21,-92 4263.21,-73 4145.21,-73"/>
<text text-anchor="middle" x="4204.21" y="-80" font-family="Helvetica,sans-Serif" font-size="10.00">src/vdp_set_vscroll.c</text>
</a>
</g>
</g>
<!-- Node2&#45;&gt;Node33 -->
<g id="edge33" class="edge">
<title>Node2&#45;&gt;Node33</title>
<path fill="none" stroke="midnightblue" d="M3301.66,-143.24C3438.24,-143.27 3821.06,-139.34 4136.21,-98 4147.1,-96.57 4158.84,-94.33 4169.45,-92.03"/>
<polygon fill="midnightblue" stroke="midnightblue" points="3301.49,-139.74 3291.49,-143.23 3301.49,-146.74 3301.49,-139.74"/>
</g>
<!-- Node34 -->
<g id="node34" class="node">
<title>Node34</title>
<g id="a_node34"><a xlink:href="vdp__write__control_8c.html" target="_top" xlink:title=" ">
<polygon fill="none" stroke="black" points="4281.71,-73 4281.71,-92 4410.71,-92 4410.71,-73 4281.71,-73"/>
<text text-anchor="middle" x="4346.21" y="-80" font-family="Helvetica,sans-Serif" font-size="10.00">src/vdp_write_control.c</text>
</a>
</g>
</g>
<!-- Node2&#45;&gt;Node34 -->
<g id="edge34" class="edge">
<title>Node2&#45;&gt;Node34</title>
<path fill="none" stroke="midnightblue" d="M3301.56,-143.44C3451.57,-144.16 3901.94,-142.18 4272.21,-98 4284.04,-96.59 4296.81,-94.35 4308.36,-92.05"/>
<polygon fill="midnightblue" stroke="midnightblue" points="3301.3,-139.94 3291.28,-143.39 3301.26,-146.94 3301.3,-139.94"/>
</g>
<!-- Node35 -->
<g id="node35" class="node">
<title>Node35</title>
<g id="a_node35"><a xlink:href="vdp__write__palette_8c.html" target="_top" xlink:title=" ">
<polygon fill="none" stroke="black" points="4429.21,-73 4429.21,-92 4559.21,-92 4559.21,-73 4429.21,-73"/>
<text text-anchor="middle" x="4494.21" y="-80" font-family="Helvetica,sans-Serif" font-size="10.00">src/vdp_write_palette.c</text>
</a>
</g>
</g>
<!-- Node2&#45;&gt;Node35 -->
<g id="edge35" class="edge">
<title>Node2&#45;&gt;Node35</title>
<path fill="none" stroke="midnightblue" d="M3301.4,-142.09C3497.2,-138.44 4198.67,-123.81 4420.21,-98 4432.17,-96.61 4445.09,-94.34 4456.74,-92.01"/>
<polygon fill="midnightblue" stroke="midnightblue" points="3301.32,-138.59 3291.39,-142.27 3301.45,-145.59 3301.32,-138.59"/>
</g>
<!-- Node36 -->
<g id="node36" class="node">
<title>Node36</title>
<g id="a_node36"><a xlink:href="vmem__memset_8c.html" target="_top" xlink:title=" ">
<polygon fill="none" stroke="black" points="4577.71,-73 4577.71,-92 4696.71,-92 4696.71,-73 4577.71,-73"/>
<text text-anchor="middle" x="4637.21" y="-80" font-family="Helvetica,sans-Serif" font-size="10.00">src/vmem_memset.c</text>
</a>
</g>
</g>
<!-- Node2&#45;&gt;Node36 -->
<g id="edge36" class="edge">
<title>Node2&#45;&gt;Node36</title>
<path fill="none" stroke="midnightblue" d="M3301.47,-142.44C3512.7,-139.93 4316.34,-128.53 4568.21,-98 4579.39,-96.64 4591.44,-94.39 4602.3,-92.06"/>
<polygon fill="midnightblue" stroke="midnightblue" points="3301.24,-138.94 3291.29,-142.56 3301.33,-145.94 3301.24,-138.94"/>
</g>
<!-- Node37 -->
<g id="node37" class="node">
<title>Node37</title>
<g id="a_node37"><a xlink:href="vmem__read_8c.html" target="_top" xlink:title=" ">
<polygon fill="none" stroke="black" points="4714.71,-73 4714.71,-92 4815.71,-92 4815.71,-73 4714.71,-73"/>
<text text-anchor="middle" x="4765.21" y="-80" font-family="Helvetica,sans-Serif" font-size="10.00">src/vmem_read.c</text>
</a>
</g>
</g>
<!-- Node2&#45;&gt;Node37 -->
<g id="edge37" class="edge">
<title>Node2&#45;&gt;Node37</title>
<path fill="none" stroke="midnightblue" d="M3301.62,-142.86C3526.7,-142.02 4426.42,-136.27 4706.21,-98 4715.93,-96.67 4726.37,-94.39 4735.73,-92.03"/>
<polygon fill="midnightblue" stroke="midnightblue" points="3301.41,-139.36 3291.42,-142.89 3301.43,-146.36 3301.41,-139.36"/>
</g>
<!-- Node38 -->
<g id="node38" class="node">
<title>Node38</title>
<g id="a_node38"><a xlink:href="vmem__set__read__address_8c.html" target="_top" xlink:title=" ">
<polygon fill="none" stroke="black" points="4834.21,-73 4834.21,-92 4998.21,-92 4998.21,-73 4834.21,-73"/>
<text text-anchor="middle" x="4916.21" y="-80" font-family="Helvetica,sans-Serif" font-size="10.00">src/vmem_set_read_address.c</text>
</a>
</g>
</g>
<!-- Node2&#45;&gt;Node38 -->
<g id="edge38" class="edge">
<title>Node2&#45;&gt;Node38</title>
<path fill="none" stroke="midnightblue" d="M3301.49,-142.43C3537.32,-139.66 4519.27,-126.62 4825.21,-98 4839.86,-96.63 4855.74,-94.37 4870.06,-92.04"/>
<polygon fill="midnightblue" stroke="midnightblue" points="3301.43,-138.93 3291.47,-142.55 3301.51,-145.93 3301.43,-138.93"/>
</g>
<!-- Node39 -->
<g id="node39" class="node">
<title>Node39</title>
<g id="a_node39"><a xlink:href="vmem__set__sprite__color__s_8c.html" target="_top" xlink:title=" ">
<polygon fill="none" stroke="black" points="5222.71,-0.5 5222.71,-30.5 5341.71,-30.5 5341.71,-0.5 5222.71,-0.5"/>
<text text-anchor="start" x="5230.71" y="-18.5" font-family="Helvetica,sans-Serif" font-size="10.00">src/vmem_set_sprite</text>
<text text-anchor="middle" x="5282.21" y="-7.5" font-family="Helvetica,sans-Serif" font-size="10.00">_color_s.c</text>
</a>
</g>
</g>
<!-- Node2&#45;&gt;Node39 -->
<g id="edge39" class="edge">
<title>Node2&#45;&gt;Node39</title>
<path fill="none" stroke="midnightblue" d="M3301.43,-142.72C3611.34,-140.89 5223.97,-129.87 5263.21,-98 5283.06,-81.88 5284.6,-49.4 5283.62,-30.68"/>
<polygon fill="midnightblue" stroke="midnightblue" points="3301.35,-139.22 3291.37,-142.77 3301.39,-146.22 3301.35,-139.22"/>
</g>
<!-- Node40 -->
<g id="node40" class="node">
<title>Node40</title>
<g id="a_node40"><a xlink:href="vmem__set__write__address_8c.html" target="_top" xlink:title=" ">
<polygon fill="none" stroke="black" points="5016.21,-67.5 5016.21,-97.5 5132.21,-97.5 5132.21,-67.5 5016.21,-67.5"/>
<text text-anchor="start" x="5024.21" y="-85.5" font-family="Helvetica,sans-Serif" font-size="10.00">src/vmem_set_write</text>
<text text-anchor="middle" x="5074.21" y="-74.5" font-family="Helvetica,sans-Serif" font-size="10.00">_address.c</text>
</a>
</g>
</g>
<!-- Node2&#45;&gt;Node40 -->
<g id="edge40" class="edge">
<title>Node2&#45;&gt;Node40</title>
<path fill="none" stroke="midnightblue" d="M3301.58,-142.98C3553.98,-142.71 4664.3,-139.13 5007.21,-98 5010.05,-97.66 5012.94,-97.26 5015.85,-96.8"/>
<polygon fill="midnightblue" stroke="midnightblue" points="3301.24,-139.48 3291.24,-142.99 3301.24,-146.48 3301.24,-139.48"/>
</g>
<!-- Node41 -->
<g id="node41" class="node">
<title>Node41</title>
<g id="a_node41"><a xlink:href="vmem__write_8c.html" target="_top" xlink:title=" ">
<polygon fill="none" stroke="black" points="5150.21,-73 5150.21,-92 5254.21,-92 5254.21,-73 5150.21,-73"/>
<text text-anchor="middle" x="5202.21" y="-80" font-family="Helvetica,sans-Serif" font-size="10.00">src/vmem_write.c</text>
</a>
</g>
</g>
<!-- Node2&#45;&gt;Node41 -->
<g id="edge41" class="edge">
<title>Node2&#45;&gt;Node41</title>
<path fill="none" stroke="midnightblue" d="M3301.66,-143.23C3565.74,-144.2 4770.81,-145.89 5141.21,-98 5151.25,-96.7 5162.04,-94.43 5171.72,-92.07"/>
<polygon fill="midnightblue" stroke="midnightblue" points="3301.6,-139.73 3291.59,-143.19 3301.57,-146.73 3301.6,-139.73"/>
</g>
<!-- Node3&#45;&gt;Node4 -->
<g id="edge3" class="edge">
<title>Node3&#45;&gt;Node4</title>
<path fill="none" stroke="midnightblue" d="M821.92,-70.01C865.27,-57.15 934.51,-36.59 973.36,-25.06"/>
<polygon fill="midnightblue" stroke="midnightblue" points="820.88,-66.67 812.29,-72.87 822.87,-73.38 820.88,-66.67"/>
</g>
<!-- Node5 -->
<g id="node5" class="node">
<title>Node5</title>
<g id="a_node5"><a xlink:href="vmem__set__metasprite__a_8c.html" target="_top" xlink:title=" ">
<polygon fill="none" stroke="black" points="138.21,-6 138.21,-25 302.21,-25 302.21,-6 138.21,-6"/>
<text text-anchor="middle" x="220.21" y="-13" font-family="Helvetica,sans-Serif" font-size="10.00">src/vmem_set_metasprite_a.c</text>
</a>
</g>
</g>
<!-- Node3&#45;&gt;Node5 -->
<g id="edge4" class="edge">
<title>Node3&#45;&gt;Node5</title>
<path fill="none" stroke="midnightblue" d="M714.56,-71.94C701.82,-70.24 688.62,-68.53 676.21,-67 545.57,-50.92 393.58,-34.56 302.24,-24.98"/>
<polygon fill="midnightblue" stroke="midnightblue" points="714.28,-75.44 724.65,-73.3 715.21,-68.5 714.28,-75.44"/>
</g>
<!-- Node6 -->
<g id="node6" class="node">
<title>Node6</title>
<g id="a_node6"><a xlink:href="vmem__set__metasprite__m_8c.html" target="_top" xlink:title=" ">
<polygon fill="none" stroke="black" points="532.71,-6 532.71,-25 699.71,-25 699.71,-6 532.71,-6"/>
<text text-anchor="middle" x="616.21" y="-13" font-family="Helvetica,sans-Serif" font-size="10.00">src/vmem_set_metasprite_m.c</text>
</a>
</g>
</g>
<!-- Node3&#45;&gt;Node6 -->
<g id="edge5" class="edge">
<title>Node3&#45;&gt;Node6</title>
<path fill="none" stroke="midnightblue" d="M751.36,-69.1C718.2,-56.2 667.15,-36.33 638.21,-25.06"/>
<polygon fill="midnightblue" stroke="midnightblue" points="750.44,-72.5 761.03,-72.87 752.98,-65.98 750.44,-72.5"/>
</g>
<!-- Node7 -->
<g id="node7" class="node">
<title>Node7</title>
<g id="a_node7"><a xlink:href="vmem__set__metasprite__s_8c.html" target="_top" xlink:title=" ">
<polygon fill="none" stroke="black" points="717.71,-6 717.71,-25 880.71,-25 880.71,-6 717.71,-6"/>
<text text-anchor="middle" x="799.21" y="-13" font-family="Helvetica,sans-Serif" font-size="10.00">src/vmem_set_metasprite_s.c</text>
</a>
</g>
</g>
<!-- Node3&#45;&gt;Node7 -->
<g id="edge6" class="edge">
<title>Node3&#45;&gt;Node7</title>
<path fill="none" stroke="midnightblue" d="M787.78,-62.91C790.84,-50.49 794.73,-34.72 797.09,-25.13"/>
<polygon fill="midnightblue" stroke="midnightblue" points="784.36,-62.19 785.37,-72.73 791.16,-63.86 784.36,-62.19"/>
</g>
<!-- Node42&#45;&gt;Node2 -->
<g id="edge43" class="edge">
<title>Node42&#45;&gt;Node2</title>
<path fill="none" stroke="midnightblue" d="M1066.07,-193.11C1079.86,-191.9 1094.55,-190.76 1108.21,-190 1954.51,-143.08 2991.36,-144.04 3208.97,-144.81"/>
<polygon fill="midnightblue" stroke="midnightblue" points="1065.36,-189.66 1055.72,-194.05 1066,-196.63 1065.36,-189.66"/>
</g>
<!-- Node42&#45;&gt;Node3 -->
<g id="edge44" class="edge">
<title>Node42&#45;&gt;Node3</title>
<path fill="none" stroke="midnightblue" d="M982.14,-185.62C935.47,-161.66 838.93,-112.1 800.01,-92.12"/>
<polygon fill="midnightblue" stroke="midnightblue" points="980.8,-188.87 991.3,-190.32 984,-182.64 980.8,-188.87"/>
</g>
<!-- Node42&#45;&gt;Node4 -->
<g id="edge61" class="edge">
<title>Node42&#45;&gt;Node4</title>
<path fill="none" stroke="midnightblue" d="M1015.1,-180.72C1023.8,-155.07 1036.58,-107.04 1027.21,-67 1023.55,-51.38 1014.32,-35.05 1008.16,-25.33"/>
<polygon fill="midnightblue" stroke="midnightblue" points="1011.76,-179.66 1011.69,-190.25 1018.35,-182.01 1011.76,-179.66"/>
</g>
<!-- Node42&#45;&gt;Node39 -->
<g id="edge63" class="edge">
<title>Node42&#45;&gt;Node39</title>
<path fill="none" stroke="midnightblue" d="M1065.97,-194.45C1089.32,-192.78 1116.54,-191.04 1141.21,-190 2100.05,-149.59 2340.72,-173.39 3300.21,-154 3431.28,-151.35 5567.62,-191.79 5659.21,-98 5668.84,-88.14 5668.28,-77.37 5659.21,-67 5638.66,-43.52 5442.97,-27.18 5341.94,-20.24"/>
<polygon fill="midnightblue" stroke="midnightblue" points="1065.6,-190.97 1055.88,-195.18 1066.11,-197.95 1065.6,-190.97"/>
</g>
<!-- Node43 -->
<g id="node43" class="node">
<title>Node43</title>
<g id="a_node43"><a xlink:href="sprite_8h.html" target="_top" xlink:title=" ">
<polygon fill="none" stroke="black" points="509.21,-134.5 509.21,-153.5 601.21,-153.5 601.21,-134.5 509.21,-134.5"/>
<text text-anchor="middle" x="555.21" y="-141.5" font-family="Helvetica,sans-Serif" font-size="10.00">include/sprite.h</text>
</a>
</g>
</g>
<!-- Node42&#45;&gt;Node43 -->
<g id="edge45" class="edge">
<title>Node42&#45;&gt;Node43</title>
<path fill="none" stroke="midnightblue" d="M950.46,-192.12C859.52,-181.28 684.78,-160.45 601.52,-150.52"/>
<polygon fill="midnightblue" stroke="midnightblue" points="950.24,-195.61 960.59,-193.32 951.07,-188.66 950.24,-195.61"/>
</g>
<!-- Node44 -->
<g id="node44" class="node">
<title>Node44</title>
<g id="a_node44"><a xlink:href="sprite__color_8h.html" target="_top" xlink:title=" ">
<polygon fill="none" stroke="red" points="898.21,-73 898.21,-92 1018.21,-92 1018.21,-73 898.21,-73"/>
<text text-anchor="middle" x="958.21" y="-80" font-family="Helvetica,sans-Serif" font-size="10.00">include/sprite_color.h</text>
</a>
</g>
</g>
<!-- Node42&#45;&gt;Node44 -->
<g id="edge62" class="edge">
<title>Node42&#45;&gt;Node44</title>
<path fill="none" stroke="midnightblue" d="M1000.35,-180.84C989.45,-155.66 970.16,-111.1 962.01,-92.28"/>
<polygon fill="midnightblue" stroke="midnightblue" points="997.27,-182.53 1004.45,-190.32 1003.69,-179.75 997.27,-182.53"/>
</g>
<!-- Node43&#45;&gt;Node3 -->
<g id="edge46" class="edge">
<title>Node43&#45;&gt;Node3</title>
<path fill="none" stroke="midnightblue" d="M597.76,-131.9C642.04,-120.34 710.42,-102.5 750.6,-92.01"/>
<polygon fill="midnightblue" stroke="midnightblue" points="596.67,-128.56 587.88,-134.48 598.44,-135.34 596.67,-128.56"/>
</g>
<!-- Node43&#45;&gt;Node4 -->
<g id="edge47" class="edge">
<title>Node43&#45;&gt;Node4</title>
<path fill="none" stroke="midnightblue" d="M611.67,-142.92C672.87,-140.92 772.22,-132.04 850.21,-98 870.5,-89.14 870.29,-78.5 889.21,-67 918.41,-49.26 954.93,-34.08 978.41,-25.12"/>
<polygon fill="midnightblue" stroke="midnightblue" points="611.35,-139.43 601.45,-143.2 611.54,-146.42 611.35,-139.43"/>
</g>
<!-- Node43&#45;&gt;Node5 -->
<g id="edge58" class="edge">
<title>Node43&#45;&gt;Node5</title>
<path fill="none" stroke="midnightblue" d="M498.63,-142.56C366,-140.93 43.75,-133.34 11.21,-98 -31.33,-51.8 62.64,-31.47 138.03,-22.74"/>
<polygon fill="midnightblue" stroke="midnightblue" points="498.94,-146.06 508.98,-142.68 499.02,-139.06 498.94,-146.06"/>
</g>
<!-- Node43&#45;&gt;Node6 -->
<g id="edge59" class="edge">
<title>Node43&#45;&gt;Node6</title>
<path fill="none" stroke="midnightblue" d="M498.84,-141.6C429.35,-138.55 317.24,-128.84 291.21,-98 282.32,-87.47 282.25,-77.46 291.21,-67 321.72,-31.39 446.86,-20.68 532.65,-17.59"/>
<polygon fill="midnightblue" stroke="midnightblue" points="499.05,-145.11 509.19,-142.02 499.34,-138.12 499.05,-145.11"/>
</g>
<!-- Node43&#45;&gt;Node7 -->
<g id="edge60" class="edge">
<title>Node43&#45;&gt;Node7</title>
<path fill="none" stroke="midnightblue" d="M595.81,-131.45C619.99,-123.72 650.82,-112.33 676.21,-98 695.49,-87.12 697.02,-79.62 715.21,-67 738.28,-51 766.51,-34.64 783.66,-25.04"/>
<polygon fill="midnightblue" stroke="midnightblue" points="594.73,-128.12 586.22,-134.44 596.81,-134.8 594.73,-128.12"/>
</g>
<!-- Node43&#45;&gt;Node44 -->
<g id="edge48" class="edge">
<title>Node43&#45;&gt;Node44</title>
<path fill="none" stroke="midnightblue" d="M611.51,-136.3C677.14,-128.26 788.8,-113.86 884.21,-98 894.8,-96.24 906.2,-94.12 916.8,-92.05"/>
<polygon fill="midnightblue" stroke="midnightblue" points="610.88,-132.85 601.38,-137.54 611.73,-139.8 610.88,-132.85"/>
</g>
<!-- Node47 -->
<g id="node45" class="node">
<title>Node47</title>
<g id="a_node45"><a xlink:href="sprite__set__color_8c.html" target="_top" xlink:title=" ">
<polygon fill="none" stroke="black" points="300.71,-73 300.71,-92 419.71,-92 419.71,-73 300.71,-73"/>
<text text-anchor="middle" x="360.21" y="-80" font-family="Helvetica,sans-Serif" font-size="10.00">src/sprite_set_color.c</text>
</a>
</g>
</g>
<!-- Node43&#45;&gt;Node47 -->
<g id="edge53" class="edge">
<title>Node43&#45;&gt;Node47</title>
<path fill="none" stroke="midnightblue" d="M517.61,-131.53C479.72,-119.96 422.1,-102.38 388.1,-92.01"/>
<polygon fill="midnightblue" stroke="midnightblue" points="516.68,-134.9 527.27,-134.48 518.73,-128.21 516.68,-134.9"/>
</g>
<!-- Node48 -->
<g id="node46" class="node">
<title>Node48</title>
<g id="a_node46"><a xlink:href="sprite__set__pat_8c.html" target="_top" xlink:title=" ">
<polygon fill="none" stroke="black" points="437.71,-73 437.71,-92 548.71,-92 548.71,-73 437.71,-73"/>
<text text-anchor="middle" x="493.21" y="-80" font-family="Helvetica,sans-Serif" font-size="10.00">src/sprite_set_pat.c</text>
</a>
</g>
</g>
<!-- Node43&#45;&gt;Node48 -->
<g id="edge54" class="edge">
<title>Node43&#45;&gt;Node48</title>
<path fill="none" stroke="midnightblue" d="M538.88,-127.32C527.1,-116.02 511.65,-101.19 502.08,-92.01"/>
<polygon fill="midnightblue" stroke="midnightblue" points="536.69,-130.08 546.33,-134.48 541.53,-125.03 536.69,-130.08"/>
</g>
<!-- Node49 -->
<g id="node47" class="node">
<title>Node49</title>
<g id="a_node47"><a xlink:href="sprite__set__x_8c.html" target="_top" xlink:title=" ">
<polygon fill="none" stroke="black" points="566.71,-73 566.71,-92 667.71,-92 667.71,-73 566.71,-73"/>
<text text-anchor="middle" x="617.21" y="-80" font-family="Helvetica,sans-Serif" font-size="10.00">src/sprite_set_x.c</text>
</a>
</g>
</g>
<!-- Node43&#45;&gt;Node49 -->
<g id="edge55" class="edge">
<title>Node43&#45;&gt;Node49</title>
<path fill="none" stroke="midnightblue" d="M571.54,-127.32C583.32,-116.02 598.77,-101.19 608.34,-92.01"/>
<polygon fill="midnightblue" stroke="midnightblue" points="568.88,-125.03 564.09,-134.48 573.73,-130.08 568.88,-125.03"/>
</g>
<!-- Node50 -->
<g id="node48" class="node">
<title>Node50</title>
<g id="a_node48"><a xlink:href="sprite__set__xy_8c.html" target="_top" xlink:title=" ">
<polygon fill="none" stroke="black" points="20.21,-73 20.21,-92 126.21,-92 126.21,-73 20.21,-73"/>
<text text-anchor="middle" x="73.21" y="-80" font-family="Helvetica,sans-Serif" font-size="10.00">src/sprite_set_xy.c</text>
</a>
</g>
</g>
<!-- Node43&#45;&gt;Node50 -->
<g id="edge56" class="edge">
<title>Node43&#45;&gt;Node50</title>
<path fill="none" stroke="midnightblue" d="M498.5,-139.15C417.52,-133.15 264.25,-119.92 135.21,-98 125.73,-96.39 115.53,-94.2 106.2,-92.01"/>
<polygon fill="midnightblue" stroke="midnightblue" points="498.74,-142.68 508.96,-139.91 499.25,-135.69 498.74,-142.68"/>
</g>
<!-- Node51 -->
<g id="node49" class="node">
<title>Node51</title>
<g id="a_node49"><a xlink:href="sprite__set__y_8c.html" target="_top" xlink:title=" ">
<polygon fill="none" stroke="black" points="144.21,-73 144.21,-92 244.21,-92 244.21,-73 144.21,-73"/>
<text text-anchor="middle" x="194.21" y="-80" font-family="Helvetica,sans-Serif" font-size="10.00">src/sprite_set_y.c</text>
</a>
</g>
</g>
<!-- Node43&#45;&gt;Node51 -->
<g id="edge57" class="edge">
<title>Node43&#45;&gt;Node51</title>
<path fill="none" stroke="midnightblue" d="M498.98,-135.72C439.1,-127.67 341.65,-113.75 258.21,-98 248.92,-96.25 238.92,-94.1 229.66,-92.01"/>
<polygon fill="midnightblue" stroke="midnightblue" points="498.61,-139.2 508.99,-137.05 499.54,-132.26 498.61,-139.2"/>
</g>
<!-- Node44&#45;&gt;Node4 -->
<g id="edge49" class="edge">
<title>Node44&#45;&gt;Node4</title>
<path fill="none" stroke="midnightblue" d="M969.78,-64.4C978.33,-51.77 989.62,-35.1 996.37,-25.13"/>
<polygon fill="midnightblue" stroke="midnightblue" points="966.85,-62.49 964.14,-72.73 972.65,-66.41 966.85,-62.49"/>
</g>
<!-- Node44&#45;&gt;Node6 -->
<g id="edge50" class="edge">
<title>Node44&#45;&gt;Node6</title>
<path fill="none" stroke="midnightblue" d="M903.16,-71.04C835.89,-58.25 723.38,-36.87 661.1,-25.03"/>
<polygon fill="midnightblue" stroke="midnightblue" points="902.67,-74.51 913.15,-72.94 903.98,-67.63 902.67,-74.51"/>
</g>
<!-- Node44&#45;&gt;Node7 -->
<g id="edge51" class="edge">
<title>Node44&#45;&gt;Node7</title>
<path fill="none" stroke="midnightblue" d="M927.48,-68.94C895.9,-56.03 847.59,-36.28 820.16,-25.06"/>
<polygon fill="midnightblue" stroke="midnightblue" points="926.51,-72.32 937.1,-72.87 929.16,-65.84 926.51,-72.32"/>
</g>
<!-- Node44&#45;&gt;Node39 -->
<g id="edge52" class="edge">
<title>Node44&#45;&gt;Node39</title>
<path fill="none" stroke="midnightblue" d="M1028.61,-74.82C1062.6,-71.87 1103.99,-68.7 1141.21,-67 1986.47,-28.4 4778.04,-18.09 5222.36,-16.68"/>
<polygon fill="midnightblue" stroke="midnightblue" points="1027.97,-71.36 1018.31,-75.72 1028.58,-78.33 1027.97,-71.36"/>
</g>
</g>
</svg>
