<?xml version="1.0" encoding="UTF-8" standalone="no"?>
<!DOCTYPE svg PUBLIC "-//W3C//DTD SVG 1.1//EN"
 "http://www.w3.org/Graphics/SVG/1.1/DTD/svg11.dtd">
<!-- Generated by graphviz version 2.44.0 ()
 -->
<!-- Title: include/io.h Pages: 1 -->
<svg width="5321pt" height="274pt"
 viewBox="0.00 0.00 5320.50 274.00" xmlns="http://www.w3.org/2000/svg" xmlns:xlink="http://www.w3.org/1999/xlink">
<g id="graph0" class="graph" transform="scale(1 1) rotate(0) translate(4 270)">
<title>include/io.h</title>
<!-- Node1 -->
<g id="node1" class="node">
<title>Node1</title>
<g id="a_node1"><a xlink:title="Copyright (c) 2021 Daishi Mori (mori0091)">
<polygon fill="#bfbfbf" stroke="black" points="4943.5,-246.5 4943.5,-265.5 5008.5,-265.5 5008.5,-246.5 4943.5,-246.5"/>
<text text-anchor="middle" x="4976" y="-253.5" font-family="Helvetica,sans-Serif" font-size="10.00">include/io.h</text>
</a>
</g>
</g>
<!-- Node2 -->
<g id="node2" class="node">
<title>Node2</title>
<g id="a_node2"><a xlink:href="msx_8h.html" target="_top" xlink:title="Copyright (c) 2021 Daishi Mori (mori0091)">
<polygon fill="none" stroke="black" points="601,-6 601,-25 677,-25 677,-6 601,-6"/>
<text text-anchor="middle" x="639" y="-13" font-family="Helvetica,sans-Serif" font-size="10.00">include/msx.h</text>
</a>
</g>
</g>
<!-- Node1&#45;&gt;Node2 -->
<g id="edge1" class="edge">
<title>Node1&#45;&gt;Node2</title>
<path fill="none" stroke="midnightblue" d="M4947.21,-241.41C4934.09,-233.87 4919.41,-223.3 4910,-210 4872,-156.33 4923.89,-107.4 4872,-67 4828.21,-32.91 1096.12,-18.18 677.13,-16.64"/>
<polygon fill="midnightblue" stroke="midnightblue" points="4945.93,-244.7 4956.4,-246.37 4949.26,-238.54 4945.93,-244.7"/>
</g>
<!-- Node3 -->
<g id="node3" class="node">
<title>Node3</title>
<g id="a_node3"><a xlink:href="vdp_8h.html" target="_top" xlink:title="Copyright (c) 2021 Daishi Mori (mori0091)">
<polygon fill="none" stroke="black" points="2662,-134.5 2662,-153.5 2736,-153.5 2736,-134.5 2662,-134.5"/>
<text text-anchor="middle" x="2699" y="-141.5" font-family="Helvetica,sans-Serif" font-size="10.00">include/vdp.h</text>
</a>
</g>
</g>
<!-- Node1&#45;&gt;Node3 -->
<g id="edge2" class="edge">
<title>Node1&#45;&gt;Node3</title>
<path fill="none" stroke="midnightblue" d="M4933.38,-252.94C4646.9,-239.1 3005.08,-159.79 2736.24,-146.8"/>
<polygon fill="midnightblue" stroke="midnightblue" points="4933.22,-256.44 4943.37,-253.42 4933.55,-249.45 4933.22,-256.44"/>
</g>
<!-- Node42 -->
<g id="node42" class="node">
<title>Node42</title>
<g id="a_node42"><a xlink:href="vmem_8h.html" target="_top" xlink:title="Copyright (c) 2021 Daishi Mori (mori0091)">
<polygon fill="none" stroke="black" points="615.5,-190.5 615.5,-209.5 700.5,-209.5 700.5,-190.5 615.5,-190.5"/>
<text text-anchor="middle" x="658" y="-197.5" font-family="Helvetica,sans-Serif" font-size="10.00">include/vmem.h</text>
</a>
</g>
</g>
<!-- Node1&#45;&gt;Node42 -->
<g id="edge43" class="edge">
<title>Node1&#45;&gt;Node42</title>
<path fill="none" stroke="midnightblue" d="M4933.21,-254.46C4512.43,-249.2 1121.43,-206.8 700.77,-201.53"/>
<polygon fill="midnightblue" stroke="midnightblue" points="4933.38,-257.97 4943.42,-254.59 4933.46,-250.97 4933.38,-257.97"/>
</g>
<!-- Node52 -->
<g id="node47" class="node">
<title>Node52</title>
<g id="a_node47"><a xlink:href="joypad__get__state_8c.html" target="_top" xlink:title="Copyright (c) 2021 Daishi Mori (mori0091)">
<polygon fill="none" stroke="black" points="4919,-190.5 4919,-209.5 5033,-209.5 5033,-190.5 4919,-190.5"/>
<text text-anchor="middle" x="4976" y="-197.5" font-family="Helvetica,sans-Serif" font-size="10.00">src/joypad_get_state.c</text>
</a>
</g>
</g>
<!-- Node1&#45;&gt;Node52 -->
<g id="edge62" class="edge">
<title>Node1&#45;&gt;Node52</title>
<path fill="none" stroke="midnightblue" d="M4976,-235.8C4976,-226.91 4976,-216.78 4976,-209.75"/>
<polygon fill="midnightblue" stroke="midnightblue" points="4972.5,-236.08 4976,-246.08 4979.5,-236.08 4972.5,-236.08"/>
</g>
<!-- Node53 -->
<g id="node48" class="node">
<title>Node53</title>
<g id="a_node48"><a xlink:href="psg__get_8c.html" target="_top" xlink:title="Copyright (c) 2021 Daishi Mori (mori0091)">
<polygon fill="none" stroke="black" points="5051.5,-190.5 5051.5,-209.5 5126.5,-209.5 5126.5,-190.5 5051.5,-190.5"/>
<text text-anchor="middle" x="5089" y="-197.5" font-family="Helvetica,sans-Serif" font-size="10.00">src/psg_get.c</text>
</a>
</g>
</g>
<!-- Node1&#45;&gt;Node53 -->
<g id="edge63" class="edge">
<title>Node1&#45;&gt;Node53</title>
<path fill="none" stroke="midnightblue" d="M5003,-242.1C5024.11,-232.01 5052.86,-218.27 5071.18,-209.52"/>
<polygon fill="midnightblue" stroke="midnightblue" points="5001.42,-238.97 4993.91,-246.44 5004.44,-245.29 5001.42,-238.97"/>
</g>
<!-- Node54 -->
<g id="node49" class="node">
<title>Node54</title>
<g id="a_node49"><a xlink:href="psg__init_8c.html" target="_top" xlink:title="Copyright (c) 2021 Daishi Mori (mori0091)">
<polygon fill="none" stroke="black" points="5145,-190.5 5145,-209.5 5219,-209.5 5219,-190.5 5145,-190.5"/>
<text text-anchor="middle" x="5182" y="-197.5" font-family="Helvetica,sans-Serif" font-size="10.00">src/psg_init.c</text>
</a>
</g>
</g>
<!-- Node1&#45;&gt;Node54 -->
<g id="edge64" class="edge">
<title>Node1&#45;&gt;Node54</title>
<path fill="none" stroke="midnightblue" d="M5018.62,-243.83C5057.51,-233.63 5114.16,-218.78 5149.51,-209.52"/>
<polygon fill="midnightblue" stroke="midnightblue" points="5017.43,-240.52 5008.64,-246.44 5019.2,-247.29 5017.43,-240.52"/>
</g>
<!-- Node55 -->
<g id="node50" class="node">
<title>Node55</title>
<g id="a_node50"><a xlink:href="psg__set_8c.html" target="_top" xlink:title="Copyright (c) 2021 Daishi Mori (mori0091)">
<polygon fill="none" stroke="black" points="5237.5,-190.5 5237.5,-209.5 5312.5,-209.5 5312.5,-190.5 5237.5,-190.5"/>
<text text-anchor="middle" x="5275" y="-197.5" font-family="Helvetica,sans-Serif" font-size="10.00">src/psg_set.c</text>
</a>
</g>
</g>
<!-- Node1&#45;&gt;Node55 -->
<g id="edge65" class="edge">
<title>Node1&#45;&gt;Node55</title>
<path fill="none" stroke="midnightblue" d="M5018.79,-247.53C5068.95,-238.73 5154.56,-223.59 5228,-210 5231.02,-209.44 5234.15,-208.86 5237.3,-208.26"/>
<polygon fill="midnightblue" stroke="midnightblue" points="5017.89,-244.13 5008.64,-249.3 5019.1,-251.03 5017.89,-244.13"/>
</g>
<!-- Node3&#45;&gt;Node2 -->
<g id="edge8" class="edge">
<title>Node3&#45;&gt;Node2</title>
<path fill="none" stroke="midnightblue" d="M2651.46,-142.96C2358.33,-142.61 806.08,-138.84 715,-98 680.22,-82.41 653.96,-42.55 643.71,-25.01"/>
<polygon fill="midnightblue" stroke="midnightblue" points="2651.74,-146.46 2661.74,-142.98 2651.75,-139.46 2651.74,-146.46"/>
</g>
<!-- Node4 -->
<g id="node4" class="node">
<title>Node4</title>
<g id="a_node4"><a xlink:href="metasprite_8h.html" target="_top" xlink:title="Copyright (c) 2021 Daishi Mori (mori0091)">
<polygon fill="none" stroke="black" points="362,-73 362,-92 466,-92 466,-73 362,-73"/>
<text text-anchor="middle" x="414" y="-80" font-family="Helvetica,sans-Serif" font-size="10.00">include/metasprite.h</text>
</a>
</g>
</g>
<!-- Node3&#45;&gt;Node4 -->
<g id="edge3" class="edge">
<title>Node3&#45;&gt;Node4</title>
<path fill="none" stroke="midnightblue" d="M2651.82,-142.65C2350.21,-140.33 697.66,-126.39 475,-98 464.85,-96.71 453.93,-94.41 444.17,-92.02"/>
<polygon fill="midnightblue" stroke="midnightblue" points="2651.95,-146.15 2661.98,-142.73 2652,-139.15 2651.95,-146.15"/>
</g>
<!-- Node8 -->
<g id="node8" class="node">
<title>Node8</title>
<g id="a_node8"><a xlink:href="vdp_8c.html" target="_top" xlink:title="Copyright (c) 2021 Daishi Mori (mori0091)">
<polygon fill="none" stroke="black" points="3483,-73 3483,-92 3539,-92 3539,-73 3483,-73"/>
<text text-anchor="middle" x="3511" y="-80" font-family="Helvetica,sans-Serif" font-size="10.00">src/vdp.c</text>
</a>
</g>
</g>
<!-- Node3&#45;&gt;Node8 -->
<g id="edge9" class="edge">
<title>Node3&#45;&gt;Node8</title>
<path fill="none" stroke="midnightblue" d="M2746.55,-142.2C2892.74,-139.42 3334.16,-128.65 3474,-98 3480.2,-96.64 3486.72,-94.39 3492.53,-92.05"/>
<polygon fill="midnightblue" stroke="midnightblue" points="2746.07,-138.7 2736.13,-142.39 2746.2,-145.7 2746.07,-138.7"/>
</g>
<!-- Node9 -->
<g id="node9" class="node">
<title>Node9</title>
<g id="a_node9"><a xlink:href="vdp__cmd__execute__HMMM_8c.html" target="_top" xlink:title="Copyright (c) 2021 Daishi Mori (mori0091)">
<polygon fill="none" stroke="black" points="3557,-67.5 3557,-97.5 3669,-97.5 3669,-67.5 3557,-67.5"/>
<text text-anchor="start" x="3565" y="-85.5" font-family="Helvetica,sans-Serif" font-size="10.00">src/vdp_cmd_execute</text>
<text text-anchor="middle" x="3613" y="-74.5" font-family="Helvetica,sans-Serif" font-size="10.00">_HMMM.c</text>
</a>
</g>
</g>
<!-- Node3&#45;&gt;Node9 -->
<g id="edge10" class="edge">
<title>Node3&#45;&gt;Node9</title>
<path fill="none" stroke="midnightblue" d="M2746.35,-143.25C2875.53,-143.32 3244.68,-139.58 3548,-98 3550.86,-97.61 3553.79,-97.15 3556.73,-96.65"/>
<polygon fill="midnightblue" stroke="midnightblue" points="2746.04,-139.74 2736.03,-143.23 2746.03,-146.74 2746.04,-139.74"/>
</g>
<!-- Node10 -->
<g id="node10" class="node">
<title>Node10</title>
<g id="a_node10"><a xlink:href="vdp__cmd__execute__HMMV_8c.html" target="_top" xlink:title="Copyright (c) 2021 Daishi Mori (mori0091)">
<polygon fill="none" stroke="black" points="3687,-67.5 3687,-97.5 3799,-97.5 3799,-67.5 3687,-67.5"/>
<text text-anchor="start" x="3695" y="-85.5" font-family="Helvetica,sans-Serif" font-size="10.00">src/vdp_cmd_execute</text>
<text text-anchor="middle" x="3743" y="-74.5" font-family="Helvetica,sans-Serif" font-size="10.00">_HMMV.c</text>
</a>
</g>
</g>
<!-- Node3&#45;&gt;Node10 -->
<g id="edge11" class="edge">
<title>Node3&#45;&gt;Node10</title>
<path fill="none" stroke="midnightblue" d="M2746.16,-141.92C2915.79,-137.86 3494.54,-122.49 3678,-98 3680.87,-97.62 3683.79,-97.17 3686.74,-96.68"/>
<polygon fill="midnightblue" stroke="midnightblue" points="2745.96,-138.42 2736.05,-142.16 2746.13,-145.42 2745.96,-138.42"/>
</g>
<!-- Node11 -->
<g id="node11" class="node">
<title>Node11</title>
<g id="a_node11"><a xlink:href="vdp__cmd__execute__LMMM_8c.html" target="_top" xlink:title="Copyright (c) 2021 Daishi Mori (mori0091)">
<polygon fill="none" stroke="black" points="3817,-67.5 3817,-97.5 3929,-97.5 3929,-67.5 3817,-67.5"/>
<text text-anchor="start" x="3825" y="-85.5" font-family="Helvetica,sans-Serif" font-size="10.00">src/vdp_cmd_execute</text>
<text text-anchor="middle" x="3873" y="-74.5" font-family="Helvetica,sans-Serif" font-size="10.00">_LMMM.c</text>
</a>
</g>
</g>
<!-- Node3&#45;&gt;Node11 -->
<g id="edge12" class="edge">
<title>Node3&#45;&gt;Node11</title>
<path fill="none" stroke="midnightblue" d="M2746.21,-142.21C2929.99,-138.96 3597.85,-125.48 3808,-98 3810.87,-97.63 3813.79,-97.19 3816.74,-96.7"/>
<polygon fill="midnightblue" stroke="midnightblue" points="2746,-138.71 2736.06,-142.39 2746.12,-145.71 2746,-138.71"/>
</g>
<!-- Node12 -->
<g id="node12" class="node">
<title>Node12</title>
<g id="a_node12"><a xlink:href="vdp__cmd__execute__LMMV_8c.html" target="_top" xlink:title="Copyright (c) 2021 Daishi Mori (mori0091)">
<polygon fill="none" stroke="black" points="3947,-67.5 3947,-97.5 4059,-97.5 4059,-67.5 3947,-67.5"/>
<text text-anchor="start" x="3955" y="-85.5" font-family="Helvetica,sans-Serif" font-size="10.00">src/vdp_cmd_execute</text>
<text text-anchor="middle" x="4003" y="-74.5" font-family="Helvetica,sans-Serif" font-size="10.00">_LMMV.c</text>
</a>
</g>
</g>
<!-- Node3&#45;&gt;Node12 -->
<g id="edge13" class="edge">
<title>Node3&#45;&gt;Node12</title>
<path fill="none" stroke="midnightblue" d="M2746.15,-142.44C2943.12,-139.94 3701,-128.48 3938,-98 3940.87,-97.63 3943.79,-97.2 3946.74,-96.71"/>
<polygon fill="midnightblue" stroke="midnightblue" points="2746.07,-138.94 2736.12,-142.57 2746.16,-145.94 2746.07,-138.94"/>
</g>
<!-- Node13 -->
<g id="node13" class="node">
<title>Node13</title>
<g id="a_node13"><a xlink:href="vdp__cmd__set__unrestricted_8c.html" target="_top" xlink:title="Copyright (c) 2021 Daishi Mori (mori0091)">
<polygon fill="none" stroke="black" points="4077.5,-73 4077.5,-92 4232.5,-92 4232.5,-73 4077.5,-73"/>
<text text-anchor="middle" x="4155" y="-80" font-family="Helvetica,sans-Serif" font-size="10.00">src/vdp_cmd_set_unrestricted.c</text>
</a>
</g>
</g>
<!-- Node3&#45;&gt;Node13 -->
<g id="edge14" class="edge">
<title>Node3&#45;&gt;Node13</title>
<path fill="none" stroke="midnightblue" d="M2746.18,-142.29C2955.7,-139 3803.29,-124.29 4068,-98 4082.02,-96.61 4097.2,-94.34 4110.89,-92.01"/>
<polygon fill="midnightblue" stroke="midnightblue" points="2746.06,-138.79 2736.12,-142.45 2746.17,-145.79 2746.06,-138.79"/>
</g>
<!-- Node14 -->
<g id="node14" class="node">
<title>Node14</title>
<g id="a_node14"><a xlink:href="vdp__get__sprite__mode_8c.html" target="_top" xlink:title="Copyright (c) 2021 Daishi Mori (mori0091)">
<polygon fill="none" stroke="black" points="4250.5,-67.5 4250.5,-97.5 4347.5,-97.5 4347.5,-67.5 4250.5,-67.5"/>
<text text-anchor="start" x="4258.5" y="-85.5" font-family="Helvetica,sans-Serif" font-size="10.00">src/vdp_get_sprite</text>
<text text-anchor="middle" x="4299" y="-74.5" font-family="Helvetica,sans-Serif" font-size="10.00">_mode.c</text>
</a>
</g>
</g>
<!-- Node3&#45;&gt;Node14 -->
<g id="edge15" class="edge">
<title>Node3&#45;&gt;Node14</title>
<path fill="none" stroke="midnightblue" d="M2746.24,-143.02C2972.02,-142.91 3942.53,-139.94 4242,-98 4244.73,-97.62 4247.52,-97.15 4250.32,-96.63"/>
<polygon fill="midnightblue" stroke="midnightblue" points="2746.06,-139.52 2736.06,-143.02 2746.06,-146.52 2746.06,-139.52"/>
</g>
<!-- Node15 -->
<g id="node15" class="node">
<title>Node15</title>
<g id="a_node15"><a xlink:href="vdp__get__status_8c.html" target="_top" xlink:title="Copyright (c) 2021 Daishi Mori (mori0091)">
<polygon fill="none" stroke="black" points="4365.5,-73 4365.5,-92 4472.5,-92 4472.5,-73 4365.5,-73"/>
<text text-anchor="middle" x="4419" y="-80" font-family="Helvetica,sans-Serif" font-size="10.00">src/vdp_get_status.c</text>
</a>
</g>
</g>
<!-- Node3&#45;&gt;Node15 -->
<g id="edge16" class="edge">
<title>Node3&#45;&gt;Node15</title>
<path fill="none" stroke="midnightblue" d="M2746.65,-143.01C2983.25,-142.86 4033.38,-139.8 4357,-98 4367.2,-96.68 4378.17,-94.41 4388,-92.05"/>
<polygon fill="midnightblue" stroke="midnightblue" points="2746.32,-139.51 2736.32,-143.01 2746.32,-146.51 2746.32,-139.51"/>
</g>
<!-- Node16 -->
<g id="node16" class="node">
<title>Node16</title>
<g id="a_node16"><a xlink:href="vdp__set__adjust_8c.html" target="_top" xlink:title="Copyright (c) 2021 Daishi Mori (mori0091)">
<polygon fill="none" stroke="black" points="4490.5,-73 4490.5,-92 4597.5,-92 4597.5,-73 4490.5,-73"/>
<text text-anchor="middle" x="4544" y="-80" font-family="Helvetica,sans-Serif" font-size="10.00">src/vdp_set_adjust.c</text>
</a>
</g>
</g>
<!-- Node3&#45;&gt;Node16 -->
<g id="edge17" class="edge">
<title>Node3&#45;&gt;Node16</title>
<path fill="none" stroke="midnightblue" d="M2746.24,-143.11C2992.59,-143.51 4132.09,-142.85 4482,-98 4492.2,-96.69 4503.17,-94.42 4513,-92.06"/>
<polygon fill="midnightblue" stroke="midnightblue" points="2746.18,-139.61 2736.18,-143.1 2746.17,-146.61 2746.18,-139.61"/>
</g>
<!-- Node17 -->
<g id="node17" class="node">
<title>Node17</title>
<g id="a_node17"><a xlink:href="vdp__set__color_8c.html" target="_top" xlink:title="Copyright (c) 2021 Daishi Mori (mori0091)">
<polygon fill="none" stroke="black" points="4615.5,-73 4615.5,-92 4716.5,-92 4716.5,-73 4615.5,-73"/>
<text text-anchor="middle" x="4666" y="-80" font-family="Helvetica,sans-Serif" font-size="10.00">src/vdp_set_color.c</text>
</a>
</g>
</g>
<!-- Node3&#45;&gt;Node17 -->
<g id="edge18" class="edge">
<title>Node3&#45;&gt;Node17</title>
<path fill="none" stroke="midnightblue" d="M2746.22,-143.28C3002.76,-144.57 4231.21,-148 4607,-98 4616.72,-96.71 4627.17,-94.44 4636.53,-92.08"/>
<polygon fill="midnightblue" stroke="midnightblue" points="2746.14,-139.78 2736.12,-143.22 2746.1,-146.78 2746.14,-139.78"/>
</g>
<!-- Node18 -->
<g id="node18" class="node">
<title>Node18</title>
<g id="a_node18"><a xlink:href="vdp__set__color__table_8c.html" target="_top" xlink:title="Copyright (c) 2021 Daishi Mori (mori0091)">
<polygon fill="none" stroke="black" points="4735,-73 4735,-92 4863,-92 4863,-73 4735,-73"/>
<text text-anchor="middle" x="4799" y="-80" font-family="Helvetica,sans-Serif" font-size="10.00">src/vdp_set_color_table.c</text>
</a>
</g>
</g>
<!-- Node3&#45;&gt;Node18 -->
<g id="edge19" class="edge">
<title>Node3&#45;&gt;Node18</title>
<path fill="none" stroke="midnightblue" d="M2746.13,-143.07C3011.73,-143.28 4324.17,-142.03 4726,-98 4737.95,-96.69 4750.85,-94.42 4762.43,-92.06"/>
<polygon fill="midnightblue" stroke="midnightblue" points="2746.05,-139.57 2736.05,-143.06 2746.04,-146.57 2746.05,-139.57"/>
</g>
<!-- Node19 -->
<g id="node19" class="node">
<title>Node19</title>
<g id="a_node19"><a xlink:href="vdp__set__control_8c.html" target="_top" xlink:title="Copyright (c) 2021 Daishi Mori (mori0091)">
<polygon fill="none" stroke="black" points="724,-73 724,-92 834,-92 834,-73 724,-73"/>
<text text-anchor="middle" x="779" y="-80" font-family="Helvetica,sans-Serif" font-size="10.00">src/vdp_set_control.c</text>
</a>
</g>
</g>
<!-- Node3&#45;&gt;Node19 -->
<g id="edge20" class="edge">
<title>Node3&#45;&gt;Node19</title>
<path fill="none" stroke="midnightblue" d="M2651.49,-143.13C2398.57,-143.6 1208.19,-143.34 843,-98 832.49,-96.69 821.16,-94.42 811.01,-92.06"/>
<polygon fill="midnightblue" stroke="midnightblue" points="2651.81,-146.62 2661.8,-143.1 2651.79,-139.62 2651.81,-146.62"/>
</g>
<!-- Node20 -->
<g id="node20" class="node">
<title>Node20</title>
<g id="a_node20"><a xlink:href="vdp__set__hscroll_8c.html" target="_top" xlink:title="Copyright (c) 2021 Daishi Mori (mori0091)">
<polygon fill="none" stroke="black" points="852.5,-73 852.5,-92 961.5,-92 961.5,-73 852.5,-73"/>
<text text-anchor="middle" x="907" y="-80" font-family="Helvetica,sans-Serif" font-size="10.00">src/vdp_set_hscroll.c</text>
</a>
</g>
</g>
<!-- Node3&#45;&gt;Node20 -->
<g id="edge21" class="edge">
<title>Node3&#45;&gt;Node20</title>
<path fill="none" stroke="midnightblue" d="M2651.67,-143.05C2409.64,-143.1 1308.66,-140.94 970,-98 959.65,-96.69 948.5,-94.41 938.5,-92.05"/>
<polygon fill="midnightblue" stroke="midnightblue" points="2651.89,-146.55 2661.89,-143.04 2651.89,-139.55 2651.89,-146.55"/>
</g>
<!-- Node21 -->
<g id="node21" class="node">
<title>Node21</title>
<g id="a_node21"><a xlink:href="vdp__set__hscroll__dual__page_8c.html" target="_top" xlink:title="Copyright (c) 2021 Daishi Mori (mori0091)">
<polygon fill="none" stroke="black" points="979.5,-67.5 979.5,-97.5 1080.5,-97.5 1080.5,-67.5 979.5,-67.5"/>
<text text-anchor="start" x="987.5" y="-85.5" font-family="Helvetica,sans-Serif" font-size="10.00">src/vdp_set_hscroll</text>
<text text-anchor="middle" x="1030" y="-74.5" font-family="Helvetica,sans-Serif" font-size="10.00">_dual_page.c</text>
</a>
</g>
</g>
<!-- Node3&#45;&gt;Node21 -->
<g id="edge22" class="edge">
<title>Node3&#45;&gt;Node21</title>
<path fill="none" stroke="midnightblue" d="M2651.59,-143.04C2419.6,-143.01 1402.5,-140.41 1089,-98 1086.28,-97.63 1083.51,-97.19 1080.72,-96.69"/>
<polygon fill="midnightblue" stroke="midnightblue" points="2651.73,-146.54 2661.73,-143.04 2651.73,-139.54 2651.73,-146.54"/>
</g>
<!-- Node22 -->
<g id="node22" class="node">
<title>Node22</title>
<g id="a_node22"><a xlink:href="vdp__set__hscroll__mask_8c.html" target="_top" xlink:title="Copyright (c) 2021 Daishi Mori (mori0091)">
<polygon fill="none" stroke="black" points="1098.5,-67.5 1098.5,-97.5 1199.5,-97.5 1199.5,-67.5 1098.5,-67.5"/>
<text text-anchor="start" x="1106.5" y="-85.5" font-family="Helvetica,sans-Serif" font-size="10.00">src/vdp_set_hscroll</text>
<text text-anchor="middle" x="1149" y="-74.5" font-family="Helvetica,sans-Serif" font-size="10.00">_mask.c</text>
</a>
</g>
</g>
<!-- Node3&#45;&gt;Node22 -->
<g id="edge23" class="edge">
<title>Node3&#45;&gt;Node22</title>
<path fill="none" stroke="midnightblue" d="M2651.59,-142.91C2430.21,-142.3 1496.75,-137.39 1208,-98 1205.28,-97.63 1202.51,-97.18 1199.72,-96.68"/>
<polygon fill="midnightblue" stroke="midnightblue" points="2651.88,-146.41 2661.89,-142.94 2651.9,-139.41 2651.88,-146.41"/>
</g>
<!-- Node23 -->
<g id="node23" class="node">
<title>Node23</title>
<g id="a_node23"><a xlink:href="vdp__set__image__table_8c.html" target="_top" xlink:title="Copyright (c) 2021 Daishi Mori (mori0091)">
<polygon fill="none" stroke="black" points="1217.5,-73 1217.5,-92 1350.5,-92 1350.5,-73 1217.5,-73"/>
<text text-anchor="middle" x="1284" y="-80" font-family="Helvetica,sans-Serif" font-size="10.00">src/vdp_set_image_table.c</text>
</a>
</g>
</g>
<!-- Node3&#45;&gt;Node23 -->
<g id="edge24" class="edge">
<title>Node3&#45;&gt;Node23</title>
<path fill="none" stroke="midnightblue" d="M2651.52,-142.39C2444.29,-139.58 1618.03,-126.77 1360,-98 1347.72,-96.63 1334.45,-94.37 1322.49,-92.04"/>
<polygon fill="midnightblue" stroke="midnightblue" points="2651.71,-145.89 2661.76,-142.53 2651.8,-138.9 2651.71,-145.89"/>
</g>
<!-- Node24 -->
<g id="node24" class="node">
<title>Node24</title>
<g id="a_node24"><a xlink:href="vdp__set__palette_8c.html" target="_top" xlink:title="Copyright (c) 2021 Daishi Mori (mori0091)">
<polygon fill="none" stroke="black" points="1369,-73 1369,-92 1479,-92 1479,-73 1369,-73"/>
<text text-anchor="middle" x="1424" y="-80" font-family="Helvetica,sans-Serif" font-size="10.00">src/vdp_set_palette.c</text>
</a>
</g>
</g>
<!-- Node3&#45;&gt;Node24 -->
<g id="edge25" class="edge">
<title>Node3&#45;&gt;Node24</title>
<path fill="none" stroke="midnightblue" d="M2651.66,-142.42C2457.19,-139.83 1719.09,-128.21 1488,-98 1477.61,-96.64 1466.42,-94.39 1456.35,-92.06"/>
<polygon fill="midnightblue" stroke="midnightblue" points="2651.79,-145.92 2661.84,-142.55 2651.89,-138.92 2651.79,-145.92"/>
</g>
<!-- Node25 -->
<g id="node25" class="node">
<title>Node25</title>
<g id="a_node25"><a xlink:href="vdp__set__pattern__table_8c.html" target="_top" xlink:title="Copyright (c) 2021 Daishi Mori (mori0091)">
<polygon fill="none" stroke="black" points="1497.5,-67.5 1497.5,-97.5 1600.5,-97.5 1600.5,-67.5 1497.5,-67.5"/>
<text text-anchor="start" x="1505.5" y="-85.5" font-family="Helvetica,sans-Serif" font-size="10.00">src/vdp_set_pattern</text>
<text text-anchor="middle" x="1549" y="-74.5" font-family="Helvetica,sans-Serif" font-size="10.00">_table.c</text>
</a>
</g>
</g>
<!-- Node3&#45;&gt;Node25 -->
<g id="edge26" class="edge">
<title>Node3&#45;&gt;Node25</title>
<path fill="none" stroke="midnightblue" d="M2651.72,-142.26C2469.93,-139.2 1815.82,-126.45 1610,-98 1606.98,-97.58 1603.89,-97.08 1600.79,-96.52"/>
<polygon fill="midnightblue" stroke="midnightblue" points="2651.71,-145.76 2661.77,-142.42 2651.83,-138.76 2651.71,-145.76"/>
</g>
<!-- Node26 -->
<g id="node26" class="node">
<title>Node26</title>
<g id="a_node26"><a xlink:href="vdp__set__screen__lines_8c.html" target="_top" xlink:title="Copyright (c) 2021 Daishi Mori (mori0091)">
<polygon fill="none" stroke="black" points="1619,-67.5 1619,-97.5 1721,-97.5 1721,-67.5 1619,-67.5"/>
<text text-anchor="start" x="1627" y="-85.5" font-family="Helvetica,sans-Serif" font-size="10.00">src/vdp_set_screen</text>
<text text-anchor="middle" x="1670" y="-74.5" font-family="Helvetica,sans-Serif" font-size="10.00">_lines.c</text>
</a>
</g>
</g>
<!-- Node3&#45;&gt;Node26 -->
<g id="edge27" class="edge">
<title>Node3&#45;&gt;Node26</title>
<path fill="none" stroke="midnightblue" d="M2651.74,-142C2483.07,-138.24 1911.16,-123.86 1730,-98 1727.14,-97.59 1724.21,-97.11 1721.26,-96.57"/>
<polygon fill="midnightblue" stroke="midnightblue" points="2651.72,-145.5 2661.8,-142.22 2651.87,-138.5 2651.72,-145.5"/>
</g>
<!-- Node27 -->
<g id="node27" class="node">
<title>Node27</title>
<g id="a_node27"><a xlink:href="vdp__set__screen__mode_8c.html" target="_top" xlink:title="Copyright (c) 2021 Daishi Mori (mori0091)">
<polygon fill="none" stroke="black" points="1739,-67.5 1739,-97.5 1841,-97.5 1841,-67.5 1739,-67.5"/>
<text text-anchor="start" x="1747" y="-85.5" font-family="Helvetica,sans-Serif" font-size="10.00">src/vdp_set_screen</text>
<text text-anchor="middle" x="1790" y="-74.5" font-family="Helvetica,sans-Serif" font-size="10.00">_mode.c</text>
</a>
</g>
</g>
<!-- Node3&#45;&gt;Node27 -->
<g id="edge28" class="edge">
<title>Node3&#45;&gt;Node27</title>
<path fill="none" stroke="midnightblue" d="M2651.54,-143.6C2522.08,-144.57 2152.21,-142.88 1849,-98 1846.39,-97.61 1843.73,-97.16 1841.05,-96.67"/>
<polygon fill="midnightblue" stroke="midnightblue" points="2651.92,-147.1 2661.89,-143.51 2651.86,-140.1 2651.92,-147.1"/>
</g>
<!-- Node28 -->
<g id="node28" class="node">
<title>Node28</title>
<g id="a_node28"><a xlink:href="vdp__set__sprite__attribute__table_8c.html" target="_top" xlink:title="Copyright (c) 2021 Daishi Mori (mori0091)">
<polygon fill="none" stroke="black" points="1858.5,-67.5 1858.5,-97.5 1955.5,-97.5 1955.5,-67.5 1858.5,-67.5"/>
<text text-anchor="start" x="1866.5" y="-85.5" font-family="Helvetica,sans-Serif" font-size="10.00">src/vdp_set_sprite</text>
<text text-anchor="middle" x="1907" y="-74.5" font-family="Helvetica,sans-Serif" font-size="10.00">_attribute_table.c</text>
</a>
</g>
</g>
<!-- Node3&#45;&gt;Node28 -->
<g id="edge29" class="edge">
<title>Node3&#45;&gt;Node28</title>
<path fill="none" stroke="midnightblue" d="M2651.56,-143.17C2534.2,-142.93 2221.17,-138.22 1964,-98 1961.28,-97.57 1958.49,-97.08 1955.69,-96.53"/>
<polygon fill="midnightblue" stroke="midnightblue" points="2651.64,-146.67 2661.64,-143.18 2651.64,-139.67 2651.64,-146.67"/>
</g>
<!-- Node29 -->
<g id="node29" class="node">
<title>Node29</title>
<g id="a_node29"><a xlink:href="vdp__set__sprite__pattern__table_8c.html" target="_top" xlink:title="Copyright (c) 2021 Daishi Mori (mori0091)">
<polygon fill="none" stroke="black" points="1973.5,-67.5 1973.5,-97.5 2070.5,-97.5 2070.5,-67.5 1973.5,-67.5"/>
<text text-anchor="start" x="1981.5" y="-85.5" font-family="Helvetica,sans-Serif" font-size="10.00">src/vdp_set_sprite</text>
<text text-anchor="middle" x="2022" y="-74.5" font-family="Helvetica,sans-Serif" font-size="10.00">_pattern_table.c</text>
</a>
</g>
</g>
<!-- Node3&#45;&gt;Node29 -->
<g id="edge30" class="edge">
<title>Node3&#45;&gt;Node29</title>
<path fill="none" stroke="midnightblue" d="M2651.5,-142.4C2547.21,-140.48 2290.65,-132.33 2079,-98 2076.28,-97.56 2073.5,-97.05 2070.7,-96.49"/>
<polygon fill="midnightblue" stroke="midnightblue" points="2651.64,-145.91 2661.7,-142.58 2651.76,-138.91 2651.64,-145.91"/>
</g>
<!-- Node30 -->
<g id="node30" class="node">
<title>Node30</title>
<g id="a_node30"><a xlink:href="vdp__set__sprite__size_8c.html" target="_top" xlink:title="Copyright (c) 2021 Daishi Mori (mori0091)">
<polygon fill="none" stroke="black" points="2088.5,-67.5 2088.5,-97.5 2185.5,-97.5 2185.5,-67.5 2088.5,-67.5"/>
<text text-anchor="start" x="2096.5" y="-85.5" font-family="Helvetica,sans-Serif" font-size="10.00">src/vdp_set_sprite</text>
<text text-anchor="middle" x="2137" y="-74.5" font-family="Helvetica,sans-Serif" font-size="10.00">_size.c</text>
</a>
</g>
</g>
<!-- Node3&#45;&gt;Node30 -->
<g id="edge31" class="edge">
<title>Node3&#45;&gt;Node30</title>
<path fill="none" stroke="midnightblue" d="M2651.87,-141.32C2562.16,-137.57 2360.93,-126.48 2194,-98 2191.28,-97.54 2188.5,-97.01 2185.71,-96.44"/>
<polygon fill="midnightblue" stroke="midnightblue" points="2651.85,-144.82 2661.99,-141.73 2652.14,-137.83 2651.85,-144.82"/>
</g>
<!-- Node31 -->
<g id="node31" class="node">
<title>Node31</title>
<g id="a_node31"><a xlink:href="vdp__set__sprite__visible_8c.html" target="_top" xlink:title="Copyright (c) 2021 Daishi Mori (mori0091)">
<polygon fill="none" stroke="black" points="2203.5,-67.5 2203.5,-97.5 2300.5,-97.5 2300.5,-67.5 2203.5,-67.5"/>
<text text-anchor="start" x="2211.5" y="-85.5" font-family="Helvetica,sans-Serif" font-size="10.00">src/vdp_set_sprite</text>
<text text-anchor="middle" x="2252" y="-74.5" font-family="Helvetica,sans-Serif" font-size="10.00">_visible.c</text>
</a>
</g>
</g>
<!-- Node3&#45;&gt;Node31 -->
<g id="edge32" class="edge">
<title>Node3&#45;&gt;Node31</title>
<path fill="none" stroke="midnightblue" d="M2651.43,-139.5C2577.83,-133.63 2432.08,-120.22 2310,-98 2306.94,-97.44 2303.79,-96.82 2300.63,-96.15"/>
<polygon fill="midnightblue" stroke="midnightblue" points="2651.51,-143.02 2661.75,-140.31 2652.06,-136.04 2651.51,-143.02"/>
</g>
<!-- Node32 -->
<g id="node32" class="node">
<title>Node32</title>
<g id="a_node32"><a xlink:href="vdp__set__visible_8c.html" target="_top" xlink:title="Copyright (c) 2021 Daishi Mori (mori0091)">
<polygon fill="none" stroke="black" points="2319,-73 2319,-92 2427,-92 2427,-73 2319,-73"/>
<text text-anchor="middle" x="2373" y="-80" font-family="Helvetica,sans-Serif" font-size="10.00">src/vdp_set_visible.c</text>
</a>
</g>
</g>
<!-- Node3&#45;&gt;Node32 -->
<g id="edge33" class="edge">
<title>Node3&#45;&gt;Node32</title>
<path fill="none" stroke="midnightblue" d="M2651.79,-135.75C2599.03,-127.46 2511.16,-113.07 2436,-98 2427.09,-96.21 2417.51,-94.11 2408.57,-92.06"/>
<polygon fill="midnightblue" stroke="midnightblue" points="2651.43,-139.24 2661.86,-137.33 2652.52,-132.32 2651.43,-139.24"/>
</g>
<!-- Node33 -->
<g id="node33" class="node">
<title>Node33</title>
<g id="a_node33"><a xlink:href="vdp__set__vscroll_8c.html" target="_top" xlink:title="Copyright (c) 2021 Daishi Mori (mori0091)">
<polygon fill="none" stroke="black" points="2445.5,-73 2445.5,-92 2554.5,-92 2554.5,-73 2445.5,-73"/>
<text text-anchor="middle" x="2500" y="-80" font-family="Helvetica,sans-Serif" font-size="10.00">src/vdp_set_vscroll.c</text>
</a>
</g>
</g>
<!-- Node3&#45;&gt;Node33 -->
<g id="edge34" class="edge">
<title>Node3&#45;&gt;Node33</title>
<path fill="none" stroke="midnightblue" d="M2660.63,-131.53C2621.96,-119.96 2563.16,-102.38 2528.46,-92.01"/>
<polygon fill="midnightblue" stroke="midnightblue" points="2659.9,-134.96 2670.49,-134.48 2661.91,-128.26 2659.9,-134.96"/>
</g>
<!-- Node34 -->
<g id="node34" class="node">
<title>Node34</title>
<g id="a_node34"><a xlink:href="vdp__write__control_8c.html" target="_top" xlink:title="Copyright (c) 2021 Daishi Mori (mori0091)">
<polygon fill="none" stroke="black" points="2572.5,-73 2572.5,-92 2689.5,-92 2689.5,-73 2572.5,-73"/>
<text text-anchor="middle" x="2631" y="-80" font-family="Helvetica,sans-Serif" font-size="10.00">src/vdp_write_control.c</text>
</a>
</g>
</g>
<!-- Node3&#45;&gt;Node34 -->
<g id="edge35" class="edge">
<title>Node3&#45;&gt;Node34</title>
<path fill="none" stroke="midnightblue" d="M2681.46,-127.65C2668.49,-116.31 2651.32,-101.28 2640.72,-92.01"/>
<polygon fill="midnightblue" stroke="midnightblue" points="2679.43,-130.52 2689.26,-134.48 2684.04,-125.26 2679.43,-130.52"/>
</g>
<!-- Node35 -->
<g id="node35" class="node">
<title>Node35</title>
<g id="a_node35"><a xlink:href="vdp__write__palette_8c.html" target="_top" xlink:title="Copyright (c) 2021 Daishi Mori (mori0091)">
<polygon fill="none" stroke="black" points="2707.5,-73 2707.5,-92 2824.5,-92 2824.5,-73 2707.5,-73"/>
<text text-anchor="middle" x="2766" y="-80" font-family="Helvetica,sans-Serif" font-size="10.00">src/vdp_write_palette.c</text>
</a>
</g>
</g>
<!-- Node3&#45;&gt;Node35 -->
<g id="edge36" class="edge">
<title>Node3&#45;&gt;Node35</title>
<path fill="none" stroke="midnightblue" d="M2716.29,-127.65C2729.06,-116.31 2745.98,-101.28 2756.42,-92.01"/>
<polygon fill="midnightblue" stroke="midnightblue" points="2713.75,-125.22 2708.6,-134.48 2718.4,-130.45 2713.75,-125.22"/>
</g>
<!-- Node36 -->
<g id="node36" class="node">
<title>Node36</title>
<g id="a_node36"><a xlink:href="vmem__memset_8c.html" target="_top" xlink:title="Copyright (c) 2021 Daishi Mori (mori0091)">
<polygon fill="none" stroke="black" points="2843,-73 2843,-92 2951,-92 2951,-73 2843,-73"/>
<text text-anchor="middle" x="2897" y="-80" font-family="Helvetica,sans-Serif" font-size="10.00">src/vmem_memset.c</text>
</a>
</g>
</g>
<!-- Node3&#45;&gt;Node36 -->
<g id="edge37" class="edge">
<title>Node3&#45;&gt;Node36</title>
<path fill="none" stroke="midnightblue" d="M2737.17,-131.53C2775.66,-119.96 2834.16,-102.38 2868.68,-92.01"/>
<polygon fill="midnightblue" stroke="midnightblue" points="2735.94,-128.25 2727.37,-134.48 2737.95,-134.95 2735.94,-128.25"/>
</g>
<!-- Node37 -->
<g id="node37" class="node">
<title>Node37</title>
<g id="a_node37"><a xlink:href="vmem__read_8c.html" target="_top" xlink:title="Copyright (c) 2021 Daishi Mori (mori0091)">
<polygon fill="none" stroke="black" points="2969,-73 2969,-92 3061,-92 3061,-73 2969,-73"/>
<text text-anchor="middle" x="3015" y="-80" font-family="Helvetica,sans-Serif" font-size="10.00">src/vmem_read.c</text>
</a>
</g>
</g>
<!-- Node3&#45;&gt;Node37 -->
<g id="edge38" class="edge">
<title>Node3&#45;&gt;Node37</title>
<path fill="none" stroke="midnightblue" d="M2746.39,-136.1C2798.87,-128.16 2885.87,-114.13 2960,-98 2968.01,-96.26 2976.61,-94.12 2984.57,-92.03"/>
<polygon fill="midnightblue" stroke="midnightblue" points="2745.74,-132.66 2736.37,-137.6 2746.78,-139.58 2745.74,-132.66"/>
</g>
<!-- Node38 -->
<g id="node38" class="node">
<title>Node38</title>
<g id="a_node38"><a xlink:href="vmem__set__read__address_8c.html" target="_top" xlink:title="Copyright (c) 2021 Daishi Mori (mori0091)">
<polygon fill="none" stroke="black" points="3079,-73 3079,-92 3229,-92 3229,-73 3079,-73"/>
<text text-anchor="middle" x="3154" y="-80" font-family="Helvetica,sans-Serif" font-size="10.00">src/vmem_set_read_address.c</text>
</a>
</g>
</g>
<!-- Node3&#45;&gt;Node38 -->
<g id="edge39" class="edge">
<title>Node3&#45;&gt;Node38</title>
<path fill="none" stroke="midnightblue" d="M2746.56,-138C2817.24,-130.41 2954.14,-115.02 3070,-98 3082.01,-96.24 3094.94,-94.12 3106.97,-92.05"/>
<polygon fill="midnightblue" stroke="midnightblue" points="2745.78,-134.57 2736.21,-139.11 2746.52,-141.53 2745.78,-134.57"/>
</g>
<!-- Node39 -->
<g id="node39" class="node">
<title>Node39</title>
<g id="a_node39"><a xlink:href="vmem__set__sprite__color__s_8c.html" target="_top" xlink:title="Copyright (c) 2021 Daishi Mori (mori0091)">
<polygon fill="none" stroke="black" points="4875,-0.5 4875,-30.5 4983,-30.5 4983,-0.5 4875,-0.5"/>
<text text-anchor="start" x="4883" y="-18.5" font-family="Helvetica,sans-Serif" font-size="10.00">src/vmem_set_sprite</text>
<text text-anchor="middle" x="4929" y="-7.5" font-family="Helvetica,sans-Serif" font-size="10.00">_color_s.c</text>
</a>
</g>
</g>
<!-- Node3&#45;&gt;Node39 -->
<g id="edge40" class="edge">
<title>Node3&#45;&gt;Node39</title>
<path fill="none" stroke="midnightblue" d="M2746.38,-142.61C3059.79,-139.96 4823.48,-123.91 4872,-98 4899.11,-83.52 4916.08,-49.77 4923.9,-30.55"/>
<polygon fill="midnightblue" stroke="midnightblue" points="2746.24,-139.11 2736.27,-142.7 2746.3,-146.11 2746.24,-139.11"/>
</g>
<!-- Node40 -->
<g id="node40" class="node">
<title>Node40</title>
<g id="a_node40"><a xlink:href="vmem__set__write__address_8c.html" target="_top" xlink:title="Copyright (c) 2021 Daishi Mori (mori0091)">
<polygon fill="none" stroke="black" points="3247.5,-67.5 3247.5,-97.5 3352.5,-97.5 3352.5,-67.5 3247.5,-67.5"/>
<text text-anchor="start" x="3255.5" y="-85.5" font-family="Helvetica,sans-Serif" font-size="10.00">src/vmem_set_write</text>
<text text-anchor="middle" x="3300" y="-74.5" font-family="Helvetica,sans-Serif" font-size="10.00">_address.c</text>
</a>
</g>
</g>
<!-- Node3&#45;&gt;Node40 -->
<g id="edge41" class="edge">
<title>Node3&#45;&gt;Node40</title>
<path fill="none" stroke="midnightblue" d="M2746.2,-141.38C2840.27,-137.65 3057.63,-126.46 3238,-98 3241.06,-97.52 3244.19,-96.97 3247.34,-96.37"/>
<polygon fill="midnightblue" stroke="midnightblue" points="2746,-137.89 2736.15,-141.77 2746.27,-144.88 2746,-137.89"/>
</g>
<!-- Node41 -->
<g id="node41" class="node">
<title>Node41</title>
<g id="a_node41"><a xlink:href="vmem__write_8c.html" target="_top" xlink:title="Copyright (c) 2021 Daishi Mori (mori0091)">
<polygon fill="none" stroke="black" points="3371,-73 3371,-92 3465,-92 3465,-73 3371,-73"/>
<text text-anchor="middle" x="3418" y="-80" font-family="Helvetica,sans-Serif" font-size="10.00">src/vmem_write.c</text>
</a>
</g>
</g>
<!-- Node3&#45;&gt;Node41 -->
<g id="edge42" class="edge">
<title>Node3&#45;&gt;Node41</title>
<path fill="none" stroke="midnightblue" d="M2746.33,-142.79C2855.55,-141.66 3133.35,-135.03 3362,-98 3370.92,-96.55 3380.49,-94.33 3389.15,-92.06"/>
<polygon fill="midnightblue" stroke="midnightblue" points="2746.26,-139.29 2736.29,-142.88 2746.33,-146.29 2746.26,-139.29"/>
</g>
<!-- Node4&#45;&gt;Node2 -->
<g id="edge4" class="edge">
<title>Node4&#45;&gt;Node2</title>
<path fill="none" stroke="midnightblue" d="M453.49,-70.09C498,-57.23 569.36,-36.62 609.36,-25.06"/>
<polygon fill="midnightblue" stroke="midnightblue" points="452.51,-66.73 443.88,-72.87 454.46,-73.46 452.51,-66.73"/>
</g>
<!-- Node5 -->
<g id="node5" class="node">
<title>Node5</title>
<g id="a_node5"><a xlink:href="vmem__set__metasprite__a_8c.html" target="_top" xlink:title="Copyright (c) 2021 Daishi Mori (mori0091)">
<polygon fill="none" stroke="black" points="87,-6 87,-25 235,-25 235,-6 87,-6"/>
<text text-anchor="middle" x="161" y="-13" font-family="Helvetica,sans-Serif" font-size="10.00">src/vmem_set_metasprite_a.c</text>
</a>
</g>
</g>
<!-- Node4&#45;&gt;Node5 -->
<g id="edge5" class="edge">
<title>Node4&#45;&gt;Node5</title>
<path fill="none" stroke="midnightblue" d="M370.81,-70.4C320.88,-57.58 239.77,-36.74 194.41,-25.08"/>
<polygon fill="midnightblue" stroke="midnightblue" points="370.11,-73.84 380.66,-72.94 371.85,-67.06 370.11,-73.84"/>
</g>
<!-- Node6 -->
<g id="node6" class="node">
<title>Node6</title>
<g id="a_node6"><a xlink:href="vmem__set__metasprite__m_8c.html" target="_top" xlink:title="Copyright (c) 2021 Daishi Mori (mori0091)">
<polygon fill="none" stroke="black" points="427.5,-6 427.5,-25 578.5,-25 578.5,-6 427.5,-6"/>
<text text-anchor="middle" x="503" y="-13" font-family="Helvetica,sans-Serif" font-size="10.00">src/vmem_set_metasprite_m.c</text>
</a>
</g>
</g>
<!-- Node4&#45;&gt;Node6 -->
<g id="edge6" class="edge">
<title>Node4&#45;&gt;Node6</title>
<path fill="none" stroke="midnightblue" d="M434.45,-66.57C452.01,-53.74 476.73,-35.69 491.19,-25.13"/>
<polygon fill="midnightblue" stroke="midnightblue" points="432.01,-64.01 426,-72.73 436.14,-69.66 432.01,-64.01"/>
</g>
<!-- Node7 -->
<g id="node7" class="node">
<title>Node7</title>
<g id="a_node7"><a xlink:href="vmem__set__metasprite__s_8c.html" target="_top" xlink:title="Copyright (c) 2021 Daishi Mori (mori0091)">
<polygon fill="none" stroke="black" points="261,-6 261,-25 409,-25 409,-6 261,-6"/>
<text text-anchor="middle" x="335" y="-13" font-family="Helvetica,sans-Serif" font-size="10.00">src/vmem_set_metasprite_s.c</text>
</a>
</g>
</g>
<!-- Node4&#45;&gt;Node7 -->
<g id="edge7" class="edge">
<title>Node4&#45;&gt;Node7</title>
<path fill="none" stroke="midnightblue" d="M395.42,-66.21C379.86,-53.41 358.2,-35.59 345.49,-25.13"/>
<polygon fill="midnightblue" stroke="midnightblue" points="393.4,-69.08 403.35,-72.73 397.85,-63.68 393.4,-69.08"/>
</g>
<!-- Node42&#45;&gt;Node2 -->
<g id="edge45" class="edge">
<title>Node42&#45;&gt;Node2</title>
<path fill="none" stroke="midnightblue" d="M656.04,-180.22C651.99,-141.32 642.82,-53.21 639.91,-25.21"/>
<polygon fill="midnightblue" stroke="midnightblue" points="652.57,-180.61 657.08,-190.2 659.53,-179.89 652.57,-180.61"/>
</g>
<!-- Node42&#45;&gt;Node3 -->
<g id="edge60" class="edge">
<title>Node42&#45;&gt;Node3</title>
<path fill="none" stroke="midnightblue" d="M710.94,-197.6C1003,-189.87 2413.22,-152.56 2661.6,-145.99"/>
<polygon fill="midnightblue" stroke="midnightblue" points="710.53,-194.11 700.63,-197.87 710.72,-201.11 710.53,-194.11"/>
</g>
<!-- Node42&#45;&gt;Node4 -->
<g id="edge44" class="edge">
<title>Node42&#45;&gt;Node4</title>
<path fill="none" stroke="midnightblue" d="M630.36,-185.91C580,-162.08 474.6,-112.18 432.22,-92.12"/>
<polygon fill="midnightblue" stroke="midnightblue" points="629.12,-189.2 639.66,-190.32 632.12,-182.88 629.12,-189.2"/>
</g>
<!-- Node42&#45;&gt;Node39 -->
<g id="edge61" class="edge">
<title>Node42&#45;&gt;Node39</title>
<path fill="none" stroke="midnightblue" d="M710.93,-198.58C1193.31,-194.66 4812.28,-163.08 4901,-98 4922.35,-82.34 4927.56,-49.37 4928.75,-30.52"/>
<polygon fill="midnightblue" stroke="midnightblue" points="710.74,-195.08 700.77,-198.66 710.79,-202.08 710.74,-195.08"/>
</g>
<!-- Node43 -->
<g id="node43" class="node">
<title>Node43</title>
<g id="a_node43"><a xlink:href="sprite_8h.html" target="_top" xlink:title="Copyright (c) 2021 Daishi Mori (mori0091)">
<polygon fill="none" stroke="red" points="293,-134.5 293,-153.5 375,-153.5 375,-134.5 293,-134.5"/>
<text text-anchor="middle" x="334" y="-141.5" font-family="Helvetica,sans-Serif" font-size="10.00">include/sprite.h</text>
</a>
</g>
</g>
<!-- Node42&#45;&gt;Node43 -->
<g id="edge46" class="edge">
<title>Node42&#45;&gt;Node43</title>
<path fill="none" stroke="midnightblue" d="M605.38,-190.23C541.14,-179.52 433.83,-161.64 375.25,-151.87"/>
<polygon fill="midnightblue" stroke="midnightblue" points="604.87,-193.69 615.31,-191.88 606.02,-186.79 604.87,-193.69"/>
</g>
<!-- Node44 -->
<g id="node44" class="node">
<title>Node44</title>
<g id="a_node44"><a xlink:href="sprite__color_8h.html" target="_top" xlink:title="Copyright (c) 2021 Daishi Mori (mori0091)">
<polygon fill="none" stroke="red" points="484,-73 484,-92 592,-92 592,-73 484,-73"/>
<text text-anchor="middle" x="538" y="-80" font-family="Helvetica,sans-Serif" font-size="10.00">include/sprite_color.h</text>
</a>
</g>
</g>
<!-- Node42&#45;&gt;Node44 -->
<g id="edge59" class="edge">
<title>Node42&#45;&gt;Node44</title>
<path fill="none" stroke="midnightblue" d="M641.53,-183.15C615.89,-158.47 567.29,-111.69 547.12,-92.28"/>
<polygon fill="midnightblue" stroke="midnightblue" points="639.35,-185.91 648.98,-190.32 644.2,-180.86 639.35,-185.91"/>
</g>
<!-- Node43&#45;&gt;Node2 -->
<g id="edge48" class="edge">
<title>Node43&#45;&gt;Node2</title>
<path fill="none" stroke="midnightblue" d="M385.22,-139.98C453.04,-135.05 567.92,-123.19 601,-98 625.22,-79.56 634.59,-41.92 637.68,-25.04"/>
<polygon fill="midnightblue" stroke="midnightblue" points="384.9,-136.5 375.17,-140.69 385.39,-143.48 384.9,-136.5"/>
</g>
<!-- Node43&#45;&gt;Node4 -->
<g id="edge47" class="edge">
<title>Node43&#45;&gt;Node4</title>
<path fill="none" stroke="midnightblue" d="M353.77,-128.29C369.12,-116.88 389.86,-101.46 402.56,-92.01"/>
<polygon fill="midnightblue" stroke="midnightblue" points="351.4,-125.7 345.46,-134.48 355.57,-131.32 351.4,-125.7"/>
</g>
<!-- Node43&#45;&gt;Node5 -->
<g id="edge56" class="edge">
<title>Node43&#45;&gt;Node5</title>
<path fill="none" stroke="midnightblue" d="M282.73,-136.95C236.12,-130.27 172.37,-117.76 157,-98 140.3,-76.53 150.9,-41.42 157.24,-25.21"/>
<polygon fill="midnightblue" stroke="midnightblue" points="282.3,-140.42 292.68,-138.32 283.26,-133.49 282.3,-140.42"/>
</g>
<!-- Node43&#45;&gt;Node6 -->
<g id="edge57" class="edge">
<title>Node43&#45;&gt;Node6</title>
<path fill="none" stroke="midnightblue" d="M333.87,-123.87C334.78,-106.88 338.76,-82.43 353,-67 368.24,-50.5 425.2,-34.47 464.37,-25.05"/>
<polygon fill="midnightblue" stroke="midnightblue" points="330.36,-124.16 333.64,-134.24 337.36,-124.32 330.36,-124.16"/>
</g>
<!-- Node43&#45;&gt;Node7 -->
<g id="edge58" class="edge">
<title>Node43&#45;&gt;Node7</title>
<path fill="none" stroke="midnightblue" d="M326.95,-124.74C324.19,-116.67 321.37,-107 320,-98 317.93,-84.38 318.02,-80.63 320,-67 322.18,-51.98 327.84,-35.2 331.55,-25.27"/>
<polygon fill="midnightblue" stroke="midnightblue" points="323.69,-126.02 330.4,-134.22 330.27,-123.63 323.69,-126.02"/>
</g>
<!-- Node43&#45;&gt;Node44 -->
<g id="edge49" class="edge">
<title>Node43&#45;&gt;Node44</title>
<path fill="none" stroke="midnightblue" d="M373.08,-131.6C412.72,-120.04 473.18,-102.41 508.83,-92.01"/>
<polygon fill="midnightblue" stroke="midnightblue" points="371.85,-128.32 363.23,-134.48 373.81,-135.04 371.85,-128.32"/>
</g>
<!-- Node47 -->
<g id="node45" class="node">
<title>Node47</title>
<g id="a_node45"><a xlink:href="sprite__set__color_8c.html" target="_top" xlink:title="Copyright (c) 2021 Daishi Mori (mori0091)">
<polygon fill="none" stroke="black" points="0,-73 0,-92 110,-92 110,-73 0,-73"/>
<text text-anchor="middle" x="55" y="-80" font-family="Helvetica,sans-Serif" font-size="10.00">src/sprite_set_color.c</text>
</a>
</g>
</g>
<!-- Node43&#45;&gt;Node47 -->
<g id="edge54" class="edge">
<title>Node43&#45;&gt;Node47</title>
<path fill="none" stroke="midnightblue" d="M283.97,-132.33C229.86,-120.79 144.69,-102.63 94.9,-92.01"/>
<polygon fill="midnightblue" stroke="midnightblue" points="283.52,-135.81 294.03,-134.48 284.98,-128.97 283.52,-135.81"/>
</g>
<!-- Node48 -->
<g id="node46" class="node">
<title>Node48</title>
<g id="a_node46"><a xlink:href="sprite__set__pat_8c.html" target="_top" xlink:title="Copyright (c) 2021 Daishi Mori (mori0091)">
<polygon fill="none" stroke="black" points="166,-73 166,-92 268,-92 268,-73 166,-73"/>
<text text-anchor="middle" x="217" y="-80" font-family="Helvetica,sans-Serif" font-size="10.00">src/sprite_set_pat.c</text>
</a>
</g>
</g>
<!-- Node43&#45;&gt;Node48 -->
<g id="edge55" class="edge">
<title>Node43&#45;&gt;Node48</title>
<path fill="none" stroke="midnightblue" d="M308.17,-129.87C285.5,-118.33 253.18,-101.9 233.73,-92.01"/>
<polygon fill="midnightblue" stroke="midnightblue" points="306.74,-133.06 317.24,-134.48 309.91,-126.82 306.74,-133.06"/>
</g>
<!-- Node44&#45;&gt;Node2 -->
<g id="edge50" class="edge">
<title>Node44&#45;&gt;Node2</title>
<path fill="none" stroke="midnightblue" d="M560.11,-67.27C580.11,-54.4 608.89,-35.88 625.59,-25.13"/>
<polygon fill="midnightblue" stroke="midnightblue" points="558.14,-64.38 551.62,-72.73 561.92,-70.27 558.14,-64.38"/>
</g>
<!-- Node44&#45;&gt;Node6 -->
<g id="edge51" class="edge">
<title>Node44&#45;&gt;Node6</title>
<path fill="none" stroke="midnightblue" d="M528.4,-63.66C521.65,-51.13 512.91,-34.91 507.65,-25.13"/>
<polygon fill="midnightblue" stroke="midnightblue" points="525.46,-65.59 533.28,-72.73 531.62,-62.27 525.46,-65.59"/>
</g>
<!-- Node44&#45;&gt;Node7 -->
<g id="edge52" class="edge">
<title>Node44&#45;&gt;Node7</title>
<path fill="none" stroke="midnightblue" d="M501.35,-69.77C461.13,-56.89 397.53,-36.52 361.75,-25.06"/>
<polygon fill="midnightblue" stroke="midnightblue" points="500.45,-73.15 511.04,-72.87 502.59,-66.49 500.45,-73.15"/>
</g>
<!-- Node44&#45;&gt;Node39 -->
<g id="edge53" class="edge">
<title>Node44&#45;&gt;Node39</title>
<path fill="none" stroke="midnightblue" d="M602.3,-75.15C635.85,-72.11 677.6,-68.75 715,-67 1579.45,-26.46 4444.65,-17.72 4874.76,-16.63"/>
<polygon fill="midnightblue" stroke="midnightblue" points="601.8,-71.68 592.16,-76.08 602.44,-78.65 601.8,-71.68"/>
</g>
</g>
</svg>
