<?xml version="1.0" encoding="UTF-8" standalone="no"?>
<!DOCTYPE svg PUBLIC "-//W3C//DTD SVG 1.1//EN"
 "http://www.w3.org/Graphics/SVG/1.1/DTD/svg11.dtd">
<!-- Generated by graphviz version 2.43.0 (0)
 -->
<!-- Title: include/io.h Pages: 1 -->
<svg width="5346pt" height="274pt"
 viewBox="0.00 0.00 5346.25 274.00" xmlns="http://www.w3.org/2000/svg" xmlns:xlink="http://www.w3.org/1999/xlink">
<g id="graph0" class="graph" transform="scale(1 1) rotate(0) translate(4 270)">
<title>include/io.h</title>
<!-- Node1 -->
<g id="node1" class="node">
<title>Node1</title>
<g id="a_node1"><a xlink:title=" ">
<polygon fill="#bfbfbf" stroke="black" points="4712.75,-246.5 4712.75,-265.5 4785.75,-265.5 4785.75,-246.5 4712.75,-246.5"/>
<text text-anchor="middle" x="4749.25" y="-253.5" font-family="Helvetica,sans-Serif" font-size="10.00">include/io.h</text>
</a>
</g>
</g>
<!-- Node2 -->
<g id="node2" class="node">
<title>Node2</title>
<g id="a_node2"><a xlink:href="vdp_8h.html" target="_top" xlink:title=" ">
<polygon fill="none" stroke="black" points="2385.25,-134.5 2385.25,-153.5 2467.25,-153.5 2467.25,-134.5 2385.25,-134.5"/>
<text text-anchor="middle" x="2426.25" y="-141.5" font-family="Helvetica,sans-Serif" font-size="10.00">include/vdp.h</text>
</a>
</g>
</g>
<!-- Node1&#45;&gt;Node2 -->
<g id="edge1" class="edge">
<title>Node1&#45;&gt;Node2</title>
<path fill="none" stroke="midnightblue" d="M4702.16,-252.77C4401.18,-238.52 2750.44,-160.35 2467.52,-146.95"/>
<polygon fill="midnightblue" stroke="midnightblue" points="4702.14,-256.27 4712.3,-253.25 4702.47,-249.28 4702.14,-256.27"/>
</g>
<!-- Node4 -->
<g id="node4" class="node">
<title>Node4</title>
<g id="a_node4"><a xlink:href="msx_8h.html" target="_top" xlink:title=" ">
<polygon fill="none" stroke="black" points="4599.75,-6 4599.75,-25 4684.75,-25 4684.75,-6 4599.75,-6"/>
<text text-anchor="middle" x="4642.25" y="-13" font-family="Helvetica,sans-Serif" font-size="10.00">include/msx.h</text>
</a>
</g>
</g>
<!-- Node1&#45;&gt;Node4 -->
<g id="edge61" class="edge">
<title>Node1&#45;&gt;Node4</title>
<path fill="none" stroke="midnightblue" d="M4702.52,-250.23C4653.2,-244.11 4580.28,-231.63 4563.25,-210 4515.01,-148.69 4603.52,-53.88 4633.11,-25.08"/>
<polygon fill="midnightblue" stroke="midnightblue" points="4702.31,-253.73 4712.66,-251.44 4703.14,-246.78 4702.31,-253.73"/>
</g>
<!-- Node42 -->
<g id="node42" class="node">
<title>Node42</title>
<g id="a_node42"><a xlink:href="vmem_8h.html" target="_top" xlink:title=" ">
<polygon fill="none" stroke="black" points="4572.75,-190.5 4572.75,-209.5 4667.75,-209.5 4667.75,-190.5 4572.75,-190.5"/>
<text text-anchor="middle" x="4620.25" y="-197.5" font-family="Helvetica,sans-Serif" font-size="10.00">include/vmem.h</text>
</a>
</g>
</g>
<!-- Node1&#45;&gt;Node42 -->
<g id="edge42" class="edge">
<title>Node1&#45;&gt;Node42</title>
<path fill="none" stroke="midnightblue" d="M4719.4,-242.5C4695.22,-232.38 4661.79,-218.39 4640.6,-209.52"/>
<polygon fill="midnightblue" stroke="midnightblue" points="4718.24,-245.81 4728.81,-246.44 4720.94,-239.35 4718.24,-245.81"/>
</g>
<!-- Node52 -->
<g id="node47" class="node">
<title>Node52</title>
<g id="a_node47"><a xlink:href="joypad__get__state_8c.html" target="_top" xlink:title=" ">
<polygon fill="none" stroke="black" points="4686.25,-190.5 4686.25,-209.5 4812.25,-209.5 4812.25,-190.5 4686.25,-190.5"/>
<text text-anchor="middle" x="4749.25" y="-197.5" font-family="Helvetica,sans-Serif" font-size="10.00">src/joypad_get_state.c</text>
</a>
</g>
</g>
<!-- Node1&#45;&gt;Node52 -->
<g id="edge62" class="edge">
<title>Node1&#45;&gt;Node52</title>
<path fill="none" stroke="midnightblue" d="M4749.25,-235.8C4749.25,-226.91 4749.25,-216.78 4749.25,-209.75"/>
<polygon fill="midnightblue" stroke="midnightblue" points="4745.75,-236.08 4749.25,-246.08 4752.75,-236.08 4745.75,-236.08"/>
</g>
<!-- Node53 -->
<g id="node48" class="node">
<title>Node53</title>
<g id="a_node48"><a xlink:href="psg__get_8c.html" target="_top" xlink:title=" ">
<polygon fill="none" stroke="black" points="4830.25,-190.5 4830.25,-209.5 4910.25,-209.5 4910.25,-190.5 4830.25,-190.5"/>
<text text-anchor="middle" x="4870.25" y="-197.5" font-family="Helvetica,sans-Serif" font-size="10.00">src/psg_get.c</text>
</a>
</g>
</g>
<!-- Node1&#45;&gt;Node53 -->
<g id="edge63" class="edge">
<title>Node1&#45;&gt;Node53</title>
<path fill="none" stroke="midnightblue" d="M4777.56,-242.37C4800.22,-232.26 4831.38,-218.35 4851.17,-209.52"/>
<polygon fill="midnightblue" stroke="midnightblue" points="4776.13,-239.17 4768.43,-246.44 4778.99,-245.56 4776.13,-239.17"/>
</g>
<!-- Node54 -->
<g id="node49" class="node">
<title>Node54</title>
<g id="a_node49"><a xlink:href="psg__init_8c.html" target="_top" xlink:title=" ">
<polygon fill="none" stroke="black" points="4928.25,-190.5 4928.25,-209.5 5008.25,-209.5 5008.25,-190.5 4928.25,-190.5"/>
<text text-anchor="middle" x="4968.25" y="-197.5" font-family="Helvetica,sans-Serif" font-size="10.00">src/psg_init.c</text>
</a>
</g>
</g>
<!-- Node1&#45;&gt;Node54 -->
<g id="edge64" class="edge">
<title>Node1&#45;&gt;Node54</title>
<path fill="none" stroke="midnightblue" d="M4793.77,-244.02C4835.14,-233.82 4895.9,-218.84 4933.72,-209.52"/>
<polygon fill="midnightblue" stroke="midnightblue" points="4792.83,-240.65 4783.96,-246.44 4794.5,-247.45 4792.83,-240.65"/>
</g>
<!-- Node55 -->
<g id="node50" class="node">
<title>Node55</title>
<g id="a_node50"><a xlink:href="psg__set_8c.html" target="_top" xlink:title=" ">
<polygon fill="none" stroke="black" points="5026.25,-190.5 5026.25,-209.5 5106.25,-209.5 5106.25,-190.5 5026.25,-190.5"/>
<text text-anchor="middle" x="5066.25" y="-197.5" font-family="Helvetica,sans-Serif" font-size="10.00">src/psg_set.c</text>
</a>
</g>
</g>
<!-- Node1&#45;&gt;Node55 -->
<g id="edge65" class="edge">
<title>Node1&#45;&gt;Node55</title>
<path fill="none" stroke="midnightblue" d="M4796.01,-247.37C4849.52,-238.59 4939.77,-223.62 5017.25,-210 5020.15,-209.49 5023.14,-208.96 5026.15,-208.42"/>
<polygon fill="midnightblue" stroke="midnightblue" points="4795.43,-243.92 4786.13,-248.99 4796.57,-250.83 4795.43,-243.92"/>
</g>
<!-- Node3 -->
<g id="node3" class="node">
<title>Node3</title>
<g id="a_node3"><a xlink:href="metasprite_8h.html" target="_top" xlink:title=" ">
<polygon fill="none" stroke="black" points="4824.75,-73 4824.75,-92 4941.75,-92 4941.75,-73 4824.75,-73"/>
<text text-anchor="middle" x="4883.25" y="-80" font-family="Helvetica,sans-Serif" font-size="10.00">include/metasprite.h</text>
</a>
</g>
</g>
<!-- Node2&#45;&gt;Node3 -->
<g id="edge2" class="edge">
<title>Node2&#45;&gt;Node3</title>
<path fill="none" stroke="midnightblue" d="M2477.52,-142.62C2803.01,-140.15 4575.86,-125.52 4815.25,-98 4826.53,-96.7 4838.69,-94.4 4849.57,-92.01"/>
<polygon fill="midnightblue" stroke="midnightblue" points="2477.4,-139.12 2467.43,-142.7 2477.46,-146.12 2477.4,-139.12"/>
</g>
<!-- Node2&#45;&gt;Node4 -->
<g id="edge7" class="edge">
<title>Node2&#45;&gt;Node4</title>
<path fill="none" stroke="midnightblue" d="M2477.52,-142.55C2786.16,-139.73 4387.09,-123.89 4487.25,-98 4545.24,-83.01 4605.77,-42.83 4630.59,-25.1"/>
<polygon fill="midnightblue" stroke="midnightblue" points="2477.47,-139.05 2467.51,-142.64 2477.54,-146.05 2477.47,-139.05"/>
</g>
<!-- Node8 -->
<g id="node8" class="node">
<title>Node8</title>
<g id="a_node8"><a xlink:href="vdp_8c.html" target="_top" xlink:title=" ">
<polygon fill="none" stroke="black" points="3278.25,-73 3278.25,-92 3338.25,-92 3338.25,-73 3278.25,-73"/>
<text text-anchor="middle" x="3308.25" y="-80" font-family="Helvetica,sans-Serif" font-size="10.00">src/vdp.c</text>
</a>
</g>
</g>
<!-- Node2&#45;&gt;Node8 -->
<g id="edge8" class="edge">
<title>Node2&#45;&gt;Node8</title>
<path fill="none" stroke="midnightblue" d="M2477.81,-142.28C2636.62,-139.76 3116.79,-129.64 3269.25,-98 3275.76,-96.65 3282.63,-94.4 3288.76,-92.07"/>
<polygon fill="midnightblue" stroke="midnightblue" points="2477.33,-138.79 2467.38,-142.45 2477.44,-145.79 2477.33,-138.79"/>
</g>
<!-- Node9 -->
<g id="node9" class="node">
<title>Node9</title>
<g id="a_node9"><a xlink:href="vdp__cmd__execute__HMMM_8c.html" target="_top" xlink:title=" ">
<polygon fill="none" stroke="black" points="3356.25,-67.5 3356.25,-97.5 3478.25,-97.5 3478.25,-67.5 3356.25,-67.5"/>
<text text-anchor="start" x="3364.25" y="-85.5" font-family="Helvetica,sans-Serif" font-size="10.00">src/vdp_cmd_execute</text>
<text text-anchor="middle" x="3417.25" y="-74.5" font-family="Helvetica,sans-Serif" font-size="10.00">_HMMM.c</text>
</a>
</g>
</g>
<!-- Node2&#45;&gt;Node9 -->
<g id="edge9" class="edge">
<title>Node2&#45;&gt;Node9</title>
<path fill="none" stroke="midnightblue" d="M2477.73,-143.28C2617.9,-143.44 3017.97,-139.89 3347.25,-98 3350.09,-97.64 3352.97,-97.23 3355.89,-96.77"/>
<polygon fill="midnightblue" stroke="midnightblue" points="2477.31,-139.78 2467.3,-143.26 2477.3,-146.78 2477.31,-139.78"/>
</g>
<!-- Node10 -->
<g id="node10" class="node">
<title>Node10</title>
<g id="a_node10"><a xlink:href="vdp__cmd__execute__HMMV_8c.html" target="_top" xlink:title=" ">
<polygon fill="none" stroke="black" points="3496.25,-67.5 3496.25,-97.5 3618.25,-97.5 3618.25,-67.5 3496.25,-67.5"/>
<text text-anchor="start" x="3504.25" y="-85.5" font-family="Helvetica,sans-Serif" font-size="10.00">src/vdp_cmd_execute</text>
<text text-anchor="middle" x="3557.25" y="-74.5" font-family="Helvetica,sans-Serif" font-size="10.00">_HMMV.c</text>
</a>
</g>
</g>
<!-- Node2&#45;&gt;Node10 -->
<g id="edge10" class="edge">
<title>Node2&#45;&gt;Node10</title>
<path fill="none" stroke="midnightblue" d="M2477.77,-141.92C2662.09,-137.89 3288.37,-122.65 3487.25,-98 3490.09,-97.65 3492.98,-97.24 3495.89,-96.8"/>
<polygon fill="midnightblue" stroke="midnightblue" points="2477.46,-138.43 2467.54,-142.14 2477.61,-145.43 2477.46,-138.43"/>
</g>
<!-- Node11 -->
<g id="node11" class="node">
<title>Node11</title>
<g id="a_node11"><a xlink:href="vdp__cmd__execute__LMMM_8c.html" target="_top" xlink:title=" ">
<polygon fill="none" stroke="black" points="3636.25,-67.5 3636.25,-97.5 3758.25,-97.5 3758.25,-67.5 3636.25,-67.5"/>
<text text-anchor="start" x="3644.25" y="-85.5" font-family="Helvetica,sans-Serif" font-size="10.00">src/vdp_cmd_execute</text>
<text text-anchor="middle" x="3697.25" y="-74.5" font-family="Helvetica,sans-Serif" font-size="10.00">_LMMM.c</text>
</a>
</g>
</g>
<!-- Node2&#45;&gt;Node11 -->
<g id="edge11" class="edge">
<title>Node2&#45;&gt;Node11</title>
<path fill="none" stroke="midnightblue" d="M2477.47,-142.22C2676.6,-139.01 3399.47,-125.66 3627.25,-98 3630.09,-97.66 3632.98,-97.26 3635.89,-96.81"/>
<polygon fill="midnightblue" stroke="midnightblue" points="2477.23,-138.72 2467.29,-142.38 2477.35,-145.72 2477.23,-138.72"/>
</g>
<!-- Node12 -->
<g id="node12" class="node">
<title>Node12</title>
<g id="a_node12"><a xlink:href="vdp__cmd__execute__LMMV_8c.html" target="_top" xlink:title=" ">
<polygon fill="none" stroke="black" points="3776.25,-67.5 3776.25,-97.5 3898.25,-97.5 3898.25,-67.5 3776.25,-67.5"/>
<text text-anchor="start" x="3784.25" y="-85.5" font-family="Helvetica,sans-Serif" font-size="10.00">src/vdp_cmd_execute</text>
<text text-anchor="middle" x="3837.25" y="-74.5" font-family="Helvetica,sans-Serif" font-size="10.00">_LMMV.c</text>
</a>
</g>
</g>
<!-- Node2&#45;&gt;Node12 -->
<g id="edge12" class="edge">
<title>Node2&#45;&gt;Node12</title>
<path fill="none" stroke="midnightblue" d="M2477.7,-142.45C2691.5,-139.98 3510.65,-128.65 3767.25,-98 3770.09,-97.66 3772.98,-97.27 3775.89,-96.83"/>
<polygon fill="midnightblue" stroke="midnightblue" points="2477.35,-138.95 2467.39,-142.57 2477.43,-145.95 2477.35,-138.95"/>
</g>
<!-- Node13 -->
<g id="node13" class="node">
<title>Node13</title>
<g id="a_node13"><a xlink:href="vdp__cmd__set__unrestricted_8c.html" target="_top" xlink:title=" ">
<polygon fill="none" stroke="black" points="3916.25,-73 3916.25,-92 4086.25,-92 4086.25,-73 3916.25,-73"/>
<text text-anchor="middle" x="4001.25" y="-80" font-family="Helvetica,sans-Serif" font-size="10.00">src/vdp_cmd_set_unrestricted.c</text>
</a>
</g>
</g>
<!-- Node2&#45;&gt;Node13 -->
<g id="edge13" class="edge">
<title>Node2&#45;&gt;Node13</title>
<path fill="none" stroke="midnightblue" d="M2477.73,-142.28C2705.11,-138.99 3620.9,-124.34 3907.25,-98 3922.38,-96.61 3938.78,-94.34 3953.57,-92.01"/>
<polygon fill="midnightblue" stroke="midnightblue" points="2477.37,-138.79 2467.43,-142.43 2477.48,-145.79 2477.37,-138.79"/>
</g>
<!-- Node14 -->
<g id="node14" class="node">
<title>Node14</title>
<g id="a_node14"><a xlink:href="vdp__get__sprite__mode_8c.html" target="_top" xlink:title=" ">
<polygon fill="none" stroke="black" points="4104.25,-67.5 4104.25,-97.5 4210.25,-97.5 4210.25,-67.5 4104.25,-67.5"/>
<text text-anchor="start" x="4112.25" y="-85.5" font-family="Helvetica,sans-Serif" font-size="10.00">src/vdp_get_sprite</text>
<text text-anchor="middle" x="4157.25" y="-74.5" font-family="Helvetica,sans-Serif" font-size="10.00">_mode.c</text>
</a>
</g>
</g>
<!-- Node2&#45;&gt;Node14 -->
<g id="edge14" class="edge">
<title>Node2&#45;&gt;Node14</title>
<path fill="none" stroke="midnightblue" d="M2477.44,-143.02C2721.77,-142.89 3770.93,-139.86 4095.25,-98 4098.1,-97.63 4101.02,-97.19 4103.95,-96.69"/>
<polygon fill="midnightblue" stroke="midnightblue" points="2477.41,-139.52 2467.42,-143.02 2477.42,-146.52 2477.41,-139.52"/>
</g>
<!-- Node15 -->
<g id="node15" class="node">
<title>Node15</title>
<g id="a_node15"><a xlink:href="vdp__get__status_8c.html" target="_top" xlink:title=" ">
<polygon fill="none" stroke="black" points="4228.25,-73 4228.25,-92 4344.25,-92 4344.25,-73 4228.25,-73"/>
<text text-anchor="middle" x="4286.25" y="-80" font-family="Helvetica,sans-Serif" font-size="10.00">src/vdp_get_status.c</text>
</a>
</g>
</g>
<!-- Node2&#45;&gt;Node15 -->
<g id="edge15" class="edge">
<title>Node2&#45;&gt;Node15</title>
<path fill="none" stroke="midnightblue" d="M2477.46,-143.01C2732.65,-142.89 3868.75,-139.95 4219.25,-98 4230.24,-96.68 4242.09,-94.41 4252.72,-92.05"/>
<polygon fill="midnightblue" stroke="midnightblue" points="2477.36,-139.51 2467.36,-143.02 2477.36,-146.51 2477.36,-139.51"/>
</g>
<!-- Node16 -->
<g id="node16" class="node">
<title>Node16</title>
<g id="a_node16"><a xlink:href="vdp__set__adjust_8c.html" target="_top" xlink:title=" ">
<polygon fill="none" stroke="black" points="4362.25,-73 4362.25,-92 4478.25,-92 4478.25,-73 4362.25,-73"/>
<text text-anchor="middle" x="4420.25" y="-80" font-family="Helvetica,sans-Serif" font-size="10.00">src/vdp_set_adjust.c</text>
</a>
</g>
</g>
<!-- Node2&#45;&gt;Node16 -->
<g id="edge16" class="edge">
<title>Node2&#45;&gt;Node16</title>
<path fill="none" stroke="midnightblue" d="M2477.8,-143.12C2745.02,-143.54 3974.91,-142.94 4353.25,-98 4364.25,-96.69 4376.09,-94.42 4386.72,-92.06"/>
<polygon fill="midnightblue" stroke="midnightblue" points="2477.61,-139.62 2467.61,-143.1 2477.6,-146.62 2477.61,-139.62"/>
</g>
<!-- Node17 -->
<g id="node17" class="node">
<title>Node17</title>
<g id="a_node17"><a xlink:href="vdp__set__color_8c.html" target="_top" xlink:title=" ">
<polygon fill="none" stroke="black" points="16.75,-73 16.75,-92 125.75,-92 125.75,-73 16.75,-73"/>
<text text-anchor="middle" x="71.25" y="-80" font-family="Helvetica,sans-Serif" font-size="10.00">src/vdp_set_color.c</text>
</a>
</g>
</g>
<!-- Node2&#45;&gt;Node17 -->
<g id="edge17" class="edge">
<title>Node2&#45;&gt;Node17</title>
<path fill="none" stroke="midnightblue" d="M2374.61,-142.62C2056.02,-140.16 364.04,-125.87 135.25,-98 124.62,-96.71 113.17,-94.41 102.93,-92.01"/>
<polygon fill="midnightblue" stroke="midnightblue" points="2374.9,-146.12 2384.93,-142.69 2374.95,-139.12 2374.9,-146.12"/>
</g>
<!-- Node18 -->
<g id="node18" class="node">
<title>Node18</title>
<g id="a_node18"><a xlink:href="vdp__set__color__table_8c.html" target="_top" xlink:title=" ">
<polygon fill="none" stroke="black" points="144.25,-73 144.25,-92 284.25,-92 284.25,-73 144.25,-73"/>
<text text-anchor="middle" x="214.25" y="-80" font-family="Helvetica,sans-Serif" font-size="10.00">src/vdp_set_color_table.c</text>
</a>
</g>
</g>
<!-- Node2&#45;&gt;Node18 -->
<g id="edge18" class="edge">
<title>Node2&#45;&gt;Node18</title>
<path fill="none" stroke="midnightblue" d="M2374.82,-143.04C2091.19,-143.06 715.51,-140.93 293.25,-98 280.35,-96.69 266.4,-94.42 253.86,-92.05"/>
<polygon fill="midnightblue" stroke="midnightblue" points="2375.22,-146.54 2385.22,-143.03 2375.22,-139.54 2375.22,-146.54"/>
</g>
<!-- Node19 -->
<g id="node19" class="node">
<title>Node19</title>
<g id="a_node19"><a xlink:href="vdp__set__control_8c.html" target="_top" xlink:title=" ">
<polygon fill="none" stroke="black" points="302.75,-73 302.75,-92 421.75,-92 421.75,-73 302.75,-73"/>
<text text-anchor="middle" x="362.25" y="-80" font-family="Helvetica,sans-Serif" font-size="10.00">src/vdp_set_control.c</text>
</a>
</g>
</g>
<!-- Node2&#45;&gt;Node19 -->
<g id="edge19" class="edge">
<title>Node2&#45;&gt;Node19</title>
<path fill="none" stroke="midnightblue" d="M2374.68,-143.13C2101.79,-143.59 823.94,-143.3 431.25,-98 419.95,-96.7 407.75,-94.43 396.8,-92.06"/>
<polygon fill="midnightblue" stroke="midnightblue" points="2375.08,-146.63 2385.08,-143.11 2375.07,-139.63 2375.08,-146.63"/>
</g>
<!-- Node20 -->
<g id="node20" class="node">
<title>Node20</title>
<g id="a_node20"><a xlink:href="vdp__set__hscroll_8c.html" target="_top" xlink:title=" ">
<polygon fill="none" stroke="black" points="440.25,-73 440.25,-92 558.25,-92 558.25,-73 440.25,-73"/>
<text text-anchor="middle" x="499.25" y="-80" font-family="Helvetica,sans-Serif" font-size="10.00">src/vdp_set_hscroll.c</text>
</a>
</g>
</g>
<!-- Node2&#45;&gt;Node20 -->
<g id="edge20" class="edge">
<title>Node2&#45;&gt;Node20</title>
<path fill="none" stroke="midnightblue" d="M2374.88,-143.05C2113.72,-143.09 931.52,-140.87 567.25,-98 556.11,-96.69 544.08,-94.42 533.29,-92.05"/>
<polygon fill="midnightblue" stroke="midnightblue" points="2375.21,-146.55 2385.21,-143.04 2375.2,-139.55 2375.21,-146.55"/>
</g>
<!-- Node21 -->
<g id="node21" class="node">
<title>Node21</title>
<g id="a_node21"><a xlink:href="vdp__set__hscroll__dual__page_8c.html" target="_top" xlink:title=" ">
<polygon fill="none" stroke="black" points="576.25,-67.5 576.25,-97.5 686.25,-97.5 686.25,-67.5 576.25,-67.5"/>
<text text-anchor="start" x="584.25" y="-85.5" font-family="Helvetica,sans-Serif" font-size="10.00">src/vdp_set_hscroll</text>
<text text-anchor="middle" x="631.25" y="-74.5" font-family="Helvetica,sans-Serif" font-size="10.00">_dual_page.c</text>
</a>
</g>
</g>
<!-- Node2&#45;&gt;Node21 -->
<g id="edge21" class="edge">
<title>Node2&#45;&gt;Node21</title>
<path fill="none" stroke="midnightblue" d="M2374.82,-143.03C2124.55,-142.95 1032.52,-140.17 695.25,-98 692.32,-97.63 689.31,-97.19 686.29,-96.69"/>
<polygon fill="midnightblue" stroke="midnightblue" points="2375.08,-146.53 2385.08,-143.03 2375.08,-139.53 2375.08,-146.53"/>
</g>
<!-- Node22 -->
<g id="node22" class="node">
<title>Node22</title>
<g id="a_node22"><a xlink:href="vdp__set__hscroll__mask_8c.html" target="_top" xlink:title=" ">
<polygon fill="none" stroke="black" points="704.25,-67.5 704.25,-97.5 814.25,-97.5 814.25,-67.5 704.25,-67.5"/>
<text text-anchor="start" x="712.25" y="-85.5" font-family="Helvetica,sans-Serif" font-size="10.00">src/vdp_set_hscroll</text>
<text text-anchor="middle" x="759.25" y="-74.5" font-family="Helvetica,sans-Serif" font-size="10.00">_mask.c</text>
</a>
</g>
</g>
<!-- Node2&#45;&gt;Node22 -->
<g id="edge22" class="edge">
<title>Node2&#45;&gt;Node22</title>
<path fill="none" stroke="midnightblue" d="M2374.8,-142.9C2135.96,-142.25 1133.87,-137.17 823.25,-98 820.32,-97.63 817.31,-97.18 814.29,-96.68"/>
<polygon fill="midnightblue" stroke="midnightblue" points="2374.93,-146.4 2384.94,-142.93 2374.95,-139.4 2374.93,-146.4"/>
</g>
<!-- Node23 -->
<g id="node23" class="node">
<title>Node23</title>
<g id="a_node23"><a xlink:href="vdp__set__image__table_8c.html" target="_top" xlink:title=" ">
<polygon fill="none" stroke="black" points="832.25,-73 832.25,-92 978.25,-92 978.25,-73 832.25,-73"/>
<text text-anchor="middle" x="905.25" y="-80" font-family="Helvetica,sans-Serif" font-size="10.00">src/vdp_set_image_table.c</text>
</a>
</g>
</g>
<!-- Node2&#45;&gt;Node23 -->
<g id="edge23" class="edge">
<title>Node2&#45;&gt;Node23</title>
<path fill="none" stroke="midnightblue" d="M2375.13,-142.39C2152.29,-139.57 1264.72,-126.72 987.25,-98 974.02,-96.63 959.71,-94.37 946.81,-92.04"/>
<polygon fill="midnightblue" stroke="midnightblue" points="2375.19,-145.89 2385.23,-142.51 2375.27,-138.89 2375.19,-145.89"/>
</g>
<!-- Node24 -->
<g id="node24" class="node">
<title>Node24</title>
<g id="a_node24"><a xlink:href="vdp__set__palette_8c.html" target="_top" xlink:title=" ">
<polygon fill="none" stroke="black" points="996.25,-73 996.25,-92 1116.25,-92 1116.25,-73 996.25,-73"/>
<text text-anchor="middle" x="1056.25" y="-80" font-family="Helvetica,sans-Serif" font-size="10.00">src/vdp_set_palette.c</text>
</a>
</g>
</g>
<!-- Node2&#45;&gt;Node24 -->
<g id="edge24" class="edge">
<title>Node2&#45;&gt;Node24</title>
<path fill="none" stroke="midnightblue" d="M2374.96,-142.41C2165.39,-139.81 1373.6,-128.16 1125.25,-98 1114.07,-96.64 1102.02,-94.39 1091.16,-92.06"/>
<polygon fill="midnightblue" stroke="midnightblue" points="2375.03,-145.91 2385.07,-142.53 2375.11,-138.91 2375.03,-145.91"/>
</g>
<!-- Node25 -->
<g id="node25" class="node">
<title>Node25</title>
<g id="a_node25"><a xlink:href="vdp__set__pattern__table_8c.html" target="_top" xlink:title=" ">
<polygon fill="none" stroke="black" points="1134.75,-67.5 1134.75,-97.5 1247.75,-97.5 1247.75,-67.5 1134.75,-67.5"/>
<text text-anchor="start" x="1142.75" y="-85.5" font-family="Helvetica,sans-Serif" font-size="10.00">src/vdp_set_pattern</text>
<text text-anchor="middle" x="1191.25" y="-74.5" font-family="Helvetica,sans-Serif" font-size="10.00">_table.c</text>
</a>
</g>
</g>
<!-- Node2&#45;&gt;Node25 -->
<g id="edge25" class="edge">
<title>Node2&#45;&gt;Node25</title>
<path fill="none" stroke="midnightblue" d="M2375.08,-142.24C2179.39,-139.15 1478.3,-126.31 1257.25,-98 1254.23,-97.61 1251.14,-97.15 1248.02,-96.64"/>
<polygon fill="midnightblue" stroke="midnightblue" points="2375.04,-145.74 2385.1,-142.4 2375.15,-138.74 2375.04,-145.74"/>
</g>
<!-- Node26 -->
<g id="node26" class="node">
<title>Node26</title>
<g id="a_node26"><a xlink:href="vdp__set__screen__lines_8c.html" target="_top" xlink:title=" ">
<polygon fill="none" stroke="black" points="1266.25,-67.5 1266.25,-97.5 1376.25,-97.5 1376.25,-67.5 1266.25,-67.5"/>
<text text-anchor="start" x="1274.25" y="-85.5" font-family="Helvetica,sans-Serif" font-size="10.00">src/vdp_set_screen</text>
<text text-anchor="middle" x="1321.25" y="-74.5" font-family="Helvetica,sans-Serif" font-size="10.00">_lines.c</text>
</a>
</g>
</g>
<!-- Node2&#45;&gt;Node26 -->
<g id="edge26" class="edge">
<title>Node2&#45;&gt;Node26</title>
<path fill="none" stroke="midnightblue" d="M2375.08,-142.01C2193.41,-138.28 1579.94,-124.05 1385.25,-98 1382.32,-97.61 1379.32,-97.14 1376.3,-96.63"/>
<polygon fill="midnightblue" stroke="midnightblue" points="2375.1,-145.51 2385.17,-142.21 2375.24,-138.51 2375.1,-145.51"/>
</g>
<!-- Node27 -->
<g id="node27" class="node">
<title>Node27</title>
<g id="a_node27"><a xlink:href="vdp__set__screen__mode_8c.html" target="_top" xlink:title=" ">
<polygon fill="none" stroke="black" points="1394.25,-67.5 1394.25,-97.5 1504.25,-97.5 1504.25,-67.5 1394.25,-67.5"/>
<text text-anchor="start" x="1402.25" y="-85.5" font-family="Helvetica,sans-Serif" font-size="10.00">src/vdp_set_screen</text>
<text text-anchor="middle" x="1449.25" y="-74.5" font-family="Helvetica,sans-Serif" font-size="10.00">_mode.c</text>
</a>
</g>
</g>
<!-- Node2&#45;&gt;Node27 -->
<g id="edge27" class="edge">
<title>Node2&#45;&gt;Node27</title>
<path fill="none" stroke="midnightblue" d="M2374.7,-143.58C2235.19,-144.48 1838.89,-142.57 1513.25,-98 1510.32,-97.6 1507.32,-97.13 1504.3,-96.61"/>
<polygon fill="midnightblue" stroke="midnightblue" points="2375.1,-147.08 2385.07,-143.5 2375.05,-140.08 2375.1,-147.08"/>
</g>
<!-- Node28 -->
<g id="node28" class="node">
<title>Node28</title>
<g id="a_node28"><a xlink:href="vdp__set__sprite__attribute__table_8c.html" target="_top" xlink:title=" ">
<polygon fill="none" stroke="black" points="1522.75,-67.5 1522.75,-97.5 1627.75,-97.5 1627.75,-67.5 1522.75,-67.5"/>
<text text-anchor="start" x="1530.75" y="-85.5" font-family="Helvetica,sans-Serif" font-size="10.00">src/vdp_set_sprite</text>
<text text-anchor="middle" x="1575.25" y="-74.5" font-family="Helvetica,sans-Serif" font-size="10.00">_attribute_table.c</text>
</a>
</g>
</g>
<!-- Node2&#45;&gt;Node28 -->
<g id="edge28" class="edge">
<title>Node2&#45;&gt;Node28</title>
<path fill="none" stroke="midnightblue" d="M2374.71,-143.2C2248.2,-143.01 1912.58,-138.39 1636.25,-98 1633.56,-97.61 1630.81,-97.15 1628.05,-96.65"/>
<polygon fill="midnightblue" stroke="midnightblue" points="2374.87,-146.7 2384.87,-143.21 2374.88,-139.7 2374.87,-146.7"/>
</g>
<!-- Node29 -->
<g id="node29" class="node">
<title>Node29</title>
<g id="a_node29"><a xlink:href="vdp__set__sprite__pattern__table_8c.html" target="_top" xlink:title=" ">
<polygon fill="none" stroke="black" points="1645.75,-67.5 1645.75,-97.5 1750.75,-97.5 1750.75,-67.5 1645.75,-67.5"/>
<text text-anchor="start" x="1653.75" y="-85.5" font-family="Helvetica,sans-Serif" font-size="10.00">src/vdp_set_sprite</text>
<text text-anchor="middle" x="1698.25" y="-74.5" font-family="Helvetica,sans-Serif" font-size="10.00">_pattern_table.c</text>
</a>
</g>
</g>
<!-- Node2&#45;&gt;Node29 -->
<g id="edge29" class="edge">
<title>Node2&#45;&gt;Node29</title>
<path fill="none" stroke="midnightblue" d="M2374.98,-142.43C2262.74,-140.56 1987.1,-132.52 1759.25,-98 1756.56,-97.59 1753.82,-97.13 1751.05,-96.62"/>
<polygon fill="midnightblue" stroke="midnightblue" points="2374.96,-145.93 2385.01,-142.59 2375.07,-138.93 2374.96,-145.93"/>
</g>
<!-- Node30 -->
<g id="node30" class="node">
<title>Node30</title>
<g id="a_node30"><a xlink:href="vdp__set__sprite__size_8c.html" target="_top" xlink:title=" ">
<polygon fill="none" stroke="black" points="1768.75,-67.5 1768.75,-97.5 1873.75,-97.5 1873.75,-67.5 1768.75,-67.5"/>
<text text-anchor="start" x="1776.75" y="-85.5" font-family="Helvetica,sans-Serif" font-size="10.00">src/vdp_set_sprite</text>
<text text-anchor="middle" x="1821.25" y="-74.5" font-family="Helvetica,sans-Serif" font-size="10.00">_size.c</text>
</a>
</g>
</g>
<!-- Node2&#45;&gt;Node30 -->
<g id="edge30" class="edge">
<title>Node2&#45;&gt;Node30</title>
<path fill="none" stroke="midnightblue" d="M2374.95,-141.34C2278.11,-137.62 2061.95,-126.62 1882.25,-98 1879.57,-97.57 1876.82,-97.09 1874.06,-96.57"/>
<polygon fill="midnightblue" stroke="midnightblue" points="2374.93,-144.84 2385.06,-141.71 2375.19,-137.84 2374.93,-144.84"/>
</g>
<!-- Node31 -->
<g id="node31" class="node">
<title>Node31</title>
<g id="a_node31"><a xlink:href="vdp__set__sprite__visible_8c.html" target="_top" xlink:title=" ">
<polygon fill="none" stroke="black" points="1891.75,-67.5 1891.75,-97.5 1996.75,-97.5 1996.75,-67.5 1891.75,-67.5"/>
<text text-anchor="start" x="1899.75" y="-85.5" font-family="Helvetica,sans-Serif" font-size="10.00">src/vdp_set_sprite</text>
<text text-anchor="middle" x="1944.25" y="-74.5" font-family="Helvetica,sans-Serif" font-size="10.00">_visible.c</text>
</a>
</g>
</g>
<!-- Node2&#45;&gt;Node31 -->
<g id="edge31" class="edge">
<title>Node2&#45;&gt;Node31</title>
<path fill="none" stroke="midnightblue" d="M2374.97,-139.55C2295.56,-133.75 2138.24,-120.42 2006.25,-98 2003.2,-97.48 2000.08,-96.9 1996.93,-96.28"/>
<polygon fill="midnightblue" stroke="midnightblue" points="2374.96,-143.06 2385.19,-140.29 2375.46,-136.08 2374.96,-143.06"/>
</g>
<!-- Node32 -->
<g id="node32" class="node">
<title>Node32</title>
<g id="a_node32"><a xlink:href="vdp__set__visible_8c.html" target="_top" xlink:title=" ">
<polygon fill="none" stroke="black" points="2015.25,-73 2015.25,-92 2133.25,-92 2133.25,-73 2015.25,-73"/>
<text text-anchor="middle" x="2074.25" y="-80" font-family="Helvetica,sans-Serif" font-size="10.00">src/vdp_set_visible.c</text>
</a>
</g>
</g>
<!-- Node2&#45;&gt;Node32 -->
<g id="edge32" class="edge">
<title>Node2&#45;&gt;Node32</title>
<path fill="none" stroke="midnightblue" d="M2375.03,-135.72C2318.06,-127.42 2223.35,-113.06 2142.25,-98 2132.64,-96.21 2122.3,-94.11 2112.66,-92.06"/>
<polygon fill="midnightblue" stroke="midnightblue" points="2374.82,-139.22 2385.22,-137.19 2375.83,-132.3 2374.82,-139.22"/>
</g>
<!-- Node33 -->
<g id="node33" class="node">
<title>Node33</title>
<g id="a_node33"><a xlink:href="vdp__set__vscroll_8c.html" target="_top" xlink:title=" ">
<polygon fill="none" stroke="black" points="2151.25,-73 2151.25,-92 2269.25,-92 2269.25,-73 2151.25,-73"/>
<text text-anchor="middle" x="2210.25" y="-80" font-family="Helvetica,sans-Serif" font-size="10.00">src/vdp_set_vscroll.c</text>
</a>
</g>
</g>
<!-- Node2&#45;&gt;Node33 -->
<g id="edge33" class="edge">
<title>Node2&#45;&gt;Node33</title>
<path fill="none" stroke="midnightblue" d="M2385.41,-131.75C2343.45,-120.19 2279.05,-102.45 2241.14,-92.01"/>
<polygon fill="midnightblue" stroke="midnightblue" points="2384.74,-135.19 2395.31,-134.48 2386.6,-128.44 2384.74,-135.19"/>
</g>
<!-- Node34 -->
<g id="node34" class="node">
<title>Node34</title>
<g id="a_node34"><a xlink:href="vdp__write__control_8c.html" target="_top" xlink:title=" ">
<polygon fill="none" stroke="black" points="2287.75,-73 2287.75,-92 2416.75,-92 2416.75,-73 2287.75,-73"/>
<text text-anchor="middle" x="2352.25" y="-80" font-family="Helvetica,sans-Serif" font-size="10.00">src/vdp_write_control.c</text>
</a>
</g>
</g>
<!-- Node2&#45;&gt;Node34 -->
<g id="edge34" class="edge">
<title>Node2&#45;&gt;Node34</title>
<path fill="none" stroke="midnightblue" d="M2407.56,-127.97C2393.41,-116.59 2374.48,-101.37 2362.84,-92.01"/>
<polygon fill="midnightblue" stroke="midnightblue" points="2405.67,-130.94 2415.65,-134.48 2410.05,-125.48 2405.67,-130.94"/>
</g>
<!-- Node35 -->
<g id="node35" class="node">
<title>Node35</title>
<g id="a_node35"><a xlink:href="vdp__write__palette_8c.html" target="_top" xlink:title=" ">
<polygon fill="none" stroke="black" points="2435.25,-73 2435.25,-92 2565.25,-92 2565.25,-73 2435.25,-73"/>
<text text-anchor="middle" x="2500.25" y="-80" font-family="Helvetica,sans-Serif" font-size="10.00">src/vdp_write_palette.c</text>
</a>
</g>
</g>
<!-- Node2&#45;&gt;Node35 -->
<g id="edge35" class="edge">
<title>Node2&#45;&gt;Node35</title>
<path fill="none" stroke="midnightblue" d="M2444.94,-127.97C2459.1,-116.59 2478.03,-101.37 2489.67,-92.01"/>
<polygon fill="midnightblue" stroke="midnightblue" points="2442.46,-125.48 2436.86,-134.48 2446.84,-130.94 2442.46,-125.48"/>
</g>
<!-- Node36 -->
<g id="node36" class="node">
<title>Node36</title>
<g id="a_node36"><a xlink:href="vmem__memset_8c.html" target="_top" xlink:title=" ">
<polygon fill="none" stroke="black" points="2583.75,-73 2583.75,-92 2702.75,-92 2702.75,-73 2583.75,-73"/>
<text text-anchor="middle" x="2643.25" y="-80" font-family="Helvetica,sans-Serif" font-size="10.00">src/vmem_memset.c</text>
</a>
</g>
</g>
<!-- Node2&#45;&gt;Node36 -->
<g id="edge36" class="edge">
<title>Node2&#45;&gt;Node36</title>
<path fill="none" stroke="midnightblue" d="M2467.02,-131.82C2509.17,-120.26 2574.06,-102.47 2612.22,-92.01"/>
<polygon fill="midnightblue" stroke="midnightblue" points="2466.06,-128.46 2457.35,-134.48 2467.91,-135.21 2466.06,-128.46"/>
</g>
<!-- Node37 -->
<g id="node37" class="node">
<title>Node37</title>
<g id="a_node37"><a xlink:href="vmem__read_8c.html" target="_top" xlink:title=" ">
<polygon fill="none" stroke="black" points="2720.75,-73 2720.75,-92 2821.75,-92 2821.75,-73 2720.75,-73"/>
<text text-anchor="middle" x="2771.25" y="-80" font-family="Helvetica,sans-Serif" font-size="10.00">src/vmem_read.c</text>
</a>
</g>
</g>
<!-- Node2&#45;&gt;Node37 -->
<g id="edge37" class="edge">
<title>Node2&#45;&gt;Node37</title>
<path fill="none" stroke="midnightblue" d="M2477.74,-136.14C2534.98,-128.22 2630.09,-114.19 2711.25,-98 2719.98,-96.26 2729.35,-94.12 2738.04,-92.03"/>
<polygon fill="midnightblue" stroke="midnightblue" points="2476.93,-132.72 2467.5,-137.55 2477.88,-139.66 2476.93,-132.72"/>
</g>
<!-- Node38 -->
<g id="node38" class="node">
<title>Node38</title>
<g id="a_node38"><a xlink:href="vmem__set__read__address_8c.html" target="_top" xlink:title=" ">
<polygon fill="none" stroke="black" points="2840.25,-73 2840.25,-92 3004.25,-92 3004.25,-73 2840.25,-73"/>
<text text-anchor="middle" x="2922.25" y="-80" font-family="Helvetica,sans-Serif" font-size="10.00">src/vmem_set_read_address.c</text>
</a>
</g>
</g>
<!-- Node2&#45;&gt;Node38 -->
<g id="edge38" class="edge">
<title>Node2&#45;&gt;Node38</title>
<path fill="none" stroke="midnightblue" d="M2477.69,-138.03C2554.53,-130.42 2703.83,-114.99 2830.25,-98 2843.4,-96.23 2857.56,-94.11 2870.74,-92.04"/>
<polygon fill="midnightblue" stroke="midnightblue" points="2476.94,-134.58 2467.33,-139.05 2477.63,-141.55 2476.94,-134.58"/>
</g>
<!-- Node39 -->
<g id="node39" class="node">
<title>Node39</title>
<g id="a_node39"><a xlink:href="vmem__set__sprite__color__s_8c.html" target="_top" xlink:title=" ">
<polygon fill="none" stroke="black" points="4446.75,-0.5 4446.75,-30.5 4565.75,-30.5 4565.75,-0.5 4446.75,-0.5"/>
<text text-anchor="start" x="4454.75" y="-18.5" font-family="Helvetica,sans-Serif" font-size="10.00">src/vmem_set_sprite</text>
<text text-anchor="middle" x="4506.25" y="-7.5" font-family="Helvetica,sans-Serif" font-size="10.00">_color_s.c</text>
</a>
</g>
</g>
<!-- Node2&#45;&gt;Node39 -->
<g id="edge39" class="edge">
<title>Node2&#45;&gt;Node39</title>
<path fill="none" stroke="midnightblue" d="M2374.83,-143.03C2028.63,-143.13 50.21,-141.76 7.25,-98 -2.4,-88.17 -2.43,-76.8 7.25,-67 48.19,-25.6 3917.78,-17.51 4446.63,-16.6"/>
<polygon fill="midnightblue" stroke="midnightblue" points="2375.06,-146.53 2385.06,-143.03 2375.06,-139.53 2375.06,-146.53"/>
</g>
<!-- Node40 -->
<g id="node40" class="node">
<title>Node40</title>
<g id="a_node40"><a xlink:href="vmem__set__write__address_8c.html" target="_top" xlink:title=" ">
<polygon fill="none" stroke="black" points="3022.25,-67.5 3022.25,-97.5 3138.25,-97.5 3138.25,-67.5 3022.25,-67.5"/>
<text text-anchor="start" x="3030.25" y="-85.5" font-family="Helvetica,sans-Serif" font-size="10.00">src/vmem_set_write</text>
<text text-anchor="middle" x="3080.25" y="-74.5" font-family="Helvetica,sans-Serif" font-size="10.00">_address.c</text>
</a>
</g>
</g>
<!-- Node2&#45;&gt;Node40 -->
<g id="edge40" class="edge">
<title>Node2&#45;&gt;Node40</title>
<path fill="none" stroke="midnightblue" d="M2477.44,-141.43C2579.73,-137.77 2816.47,-126.7 3013.25,-98 3016.2,-97.57 3019.21,-97.09 3022.24,-96.56"/>
<polygon fill="midnightblue" stroke="midnightblue" points="2477.26,-137.93 2467.39,-141.78 2477.5,-144.93 2477.26,-137.93"/>
</g>
<!-- Node41 -->
<g id="node41" class="node">
<title>Node41</title>
<g id="a_node41"><a xlink:href="vmem__write_8c.html" target="_top" xlink:title=" ">
<polygon fill="none" stroke="black" points="3156.25,-73 3156.25,-92 3260.25,-92 3260.25,-73 3156.25,-73"/>
<text text-anchor="middle" x="3208.25" y="-80" font-family="Helvetica,sans-Serif" font-size="10.00">src/vmem_write.c</text>
</a>
</g>
</g>
<!-- Node2&#45;&gt;Node41 -->
<g id="edge41" class="edge">
<title>Node2&#45;&gt;Node41</title>
<path fill="none" stroke="midnightblue" d="M2477.81,-142.8C2596.57,-141.68 2898.3,-135.08 3147.25,-98 3156.94,-96.56 3167.36,-94.34 3176.79,-92.06"/>
<polygon fill="midnightblue" stroke="midnightblue" points="2477.53,-139.3 2467.57,-142.89 2477.59,-146.3 2477.53,-139.3"/>
</g>
<!-- Node3&#45;&gt;Node4 -->
<g id="edge3" class="edge">
<title>Node3&#45;&gt;Node4</title>
<path fill="none" stroke="midnightblue" d="M4841.55,-70.25C4793.92,-57.41 4717.03,-36.67 4674.01,-25.06"/>
<polygon fill="midnightblue" stroke="midnightblue" points="4840.68,-73.64 4851.25,-72.87 4842.51,-66.89 4840.68,-73.64"/>
</g>
<!-- Node5 -->
<g id="node5" class="node">
<title>Node5</title>
<g id="a_node5"><a xlink:href="vmem__set__metasprite__a_8c.html" target="_top" xlink:title=" ">
<polygon fill="none" stroke="black" points="5174.25,-6 5174.25,-25 5338.25,-25 5338.25,-6 5174.25,-6"/>
<text text-anchor="middle" x="5256.25" y="-13" font-family="Helvetica,sans-Serif" font-size="10.00">src/vmem_set_metasprite_a.c</text>
</a>
</g>
</g>
<!-- Node3&#45;&gt;Node5 -->
<g id="edge4" class="edge">
<title>Node3&#45;&gt;Node5</title>
<path fill="none" stroke="midnightblue" d="M4942.39,-71.19C5015.65,-58.43 5139.1,-36.92 5207.3,-25.03"/>
<polygon fill="midnightblue" stroke="midnightblue" points="4941.65,-67.77 4932.4,-72.94 4942.85,-74.67 4941.65,-67.77"/>
</g>
<!-- Node6 -->
<g id="node6" class="node">
<title>Node6</title>
<g id="a_node6"><a xlink:href="vmem__set__metasprite__m_8c.html" target="_top" xlink:title=" ">
<polygon fill="none" stroke="black" points="4932.75,-6 4932.75,-25 5099.75,-25 5099.75,-6 4932.75,-6"/>
<text text-anchor="middle" x="5016.25" y="-13" font-family="Helvetica,sans-Serif" font-size="10.00">src/vmem_set_metasprite_m.c</text>
</a>
</g>
</g>
<!-- Node3&#45;&gt;Node6 -->
<g id="edge5" class="edge">
<title>Node3&#45;&gt;Node6</title>
<path fill="none" stroke="midnightblue" d="M4909.97,-68.44C4936.31,-55.57 4975.83,-36.26 4998.52,-25.17"/>
<polygon fill="midnightblue" stroke="midnightblue" points="4908.36,-65.33 4900.92,-72.87 4911.44,-71.62 4908.36,-65.33"/>
</g>
<!-- Node7 -->
<g id="node7" class="node">
<title>Node7</title>
<g id="a_node7"><a xlink:href="vmem__set__metasprite__s_8c.html" target="_top" xlink:title=" ">
<polygon fill="none" stroke="black" points="4751.75,-6 4751.75,-25 4914.75,-25 4914.75,-6 4751.75,-6"/>
<text text-anchor="middle" x="4833.25" y="-13" font-family="Helvetica,sans-Serif" font-size="10.00">src/vmem_set_metasprite_s.c</text>
</a>
</g>
</g>
<!-- Node3&#45;&gt;Node7 -->
<g id="edge6" class="edge">
<title>Node3&#45;&gt;Node7</title>
<path fill="none" stroke="midnightblue" d="M4870.39,-64.77C4860.64,-52.1 4847.64,-35.2 4839.89,-25.13"/>
<polygon fill="midnightblue" stroke="midnightblue" points="4867.64,-66.94 4876.51,-72.73 4873.19,-62.67 4867.64,-66.94"/>
</g>
<!-- Node42&#45;&gt;Node2 -->
<g id="edge43" class="edge">
<title>Node42&#45;&gt;Node2</title>
<path fill="none" stroke="midnightblue" d="M4562.36,-197.57C4246.68,-189.81 2737.54,-152.66 2467.62,-146.02"/>
<polygon fill="midnightblue" stroke="midnightblue" points="4562.56,-201.08 4572.65,-197.83 4562.74,-194.08 4562.56,-201.08"/>
</g>
<!-- Node42&#45;&gt;Node3 -->
<g id="edge44" class="edge">
<title>Node42&#45;&gt;Node3</title>
<path fill="none" stroke="midnightblue" d="M4649.37,-186.21C4703.38,-162.49 4817.75,-112.27 4863.62,-92.12"/>
<polygon fill="midnightblue" stroke="midnightblue" points="4647.77,-183.09 4640.02,-190.32 4650.59,-189.5 4647.77,-183.09"/>
</g>
<!-- Node42&#45;&gt;Node4 -->
<g id="edge58" class="edge">
<title>Node42&#45;&gt;Node4</title>
<path fill="none" stroke="midnightblue" d="M4622.52,-180.22C4627.21,-141.32 4637.83,-53.21 4641.2,-25.21"/>
<polygon fill="midnightblue" stroke="midnightblue" points="4619.04,-179.85 4621.32,-190.2 4625.99,-180.69 4619.04,-179.85"/>
</g>
<!-- Node42&#45;&gt;Node39 -->
<g id="edge60" class="edge">
<title>Node42&#45;&gt;Node39</title>
<path fill="none" stroke="midnightblue" d="M4609.19,-181.29C4586.63,-145.17 4535.69,-63.63 4515.12,-30.69"/>
<polygon fill="midnightblue" stroke="midnightblue" points="4606.49,-183.57 4614.76,-190.2 4612.43,-179.86 4606.49,-183.57"/>
</g>
<!-- Node43 -->
<g id="node43" class="node">
<title>Node43</title>
<g id="a_node43"><a xlink:href="sprite_8h.html" target="_top" xlink:title=" ">
<polygon fill="none" stroke="red" points="4924.25,-134.5 4924.25,-153.5 5016.25,-153.5 5016.25,-134.5 4924.25,-134.5"/>
<text text-anchor="middle" x="4970.25" y="-141.5" font-family="Helvetica,sans-Serif" font-size="10.00">include/sprite.h</text>
</a>
</g>
</g>
<!-- Node42&#45;&gt;Node43 -->
<g id="edge45" class="edge">
<title>Node42&#45;&gt;Node43</title>
<path fill="none" stroke="midnightblue" d="M4677.76,-189.93C4771.38,-175.36 4868.3,-160.54 4924.07,-152.03"/>
<polygon fill="midnightblue" stroke="midnightblue" points="4677.18,-186.47 4667.84,-191.47 4678.26,-193.39 4677.18,-186.47"/>
</g>
<!-- Node44 -->
<g id="node44" class="node">
<title>Node44</title>
<g id="a_node44"><a xlink:href="sprite__color_8h.html" target="_top" xlink:title=" ">
<polygon fill="none" stroke="red" points="4686.25,-73 4686.25,-92 4806.25,-92 4806.25,-73 4686.25,-73"/>
<text text-anchor="middle" x="4746.25" y="-80" font-family="Helvetica,sans-Serif" font-size="10.00">include/sprite_color.h</text>
</a>
</g>
</g>
<!-- Node42&#45;&gt;Node44 -->
<g id="edge59" class="edge">
<title>Node42&#45;&gt;Node44</title>
<path fill="none" stroke="midnightblue" d="M4637.2,-183.47C4664.03,-158.87 4715.41,-111.78 4736.67,-92.28"/>
<polygon fill="midnightblue" stroke="midnightblue" points="4634.73,-180.98 4629.72,-190.32 4639.46,-186.14 4634.73,-180.98"/>
</g>
<!-- Node43&#45;&gt;Node3 -->
<g id="edge46" class="edge">
<title>Node43&#45;&gt;Node3</title>
<path fill="none" stroke="midnightblue" d="M4949.22,-128.61C4932.48,-117.17 4909.64,-101.55 4895.7,-92.01"/>
<polygon fill="midnightblue" stroke="midnightblue" points="4947.56,-131.72 4957.79,-134.48 4951.51,-125.94 4947.56,-131.72"/>
</g>
<!-- Node43&#45;&gt;Node4 -->
<g id="edge47" class="edge">
<title>Node43&#45;&gt;Node4</title>
<path fill="none" stroke="midnightblue" d="M4913.97,-140.75C4839.45,-136.71 4713.25,-125.87 4677.25,-98 4653.51,-79.62 4645.63,-41.95 4643.22,-25.05"/>
<polygon fill="midnightblue" stroke="midnightblue" points="4913.96,-144.25 4924.12,-141.27 4914.32,-137.26 4913.96,-144.25"/>
</g>
<!-- Node43&#45;&gt;Node5 -->
<g id="edge55" class="edge">
<title>Node43&#45;&gt;Node5</title>
<path fill="none" stroke="midnightblue" d="M5026.66,-143.03C5105.38,-141.74 5242.05,-134.18 5273.25,-98 5291.38,-76.98 5272.75,-41.65 5262.31,-25.29"/>
<polygon fill="midnightblue" stroke="midnightblue" points="5026.38,-139.54 5016.43,-143.17 5026.47,-146.54 5026.38,-139.54"/>
</g>
<!-- Node43&#45;&gt;Node6 -->
<g id="edge56" class="edge">
<title>Node43&#45;&gt;Node6</title>
<path fill="none" stroke="midnightblue" d="M5026.68,-142.45C5101.46,-140.4 5227.32,-131.84 5256.25,-98 5265.21,-87.53 5264.94,-77.7 5256.25,-67 5236.64,-42.82 5161.1,-29.79 5099.95,-23.06"/>
<polygon fill="midnightblue" stroke="midnightblue" points="5026.4,-138.96 5016.49,-142.7 5026.57,-145.96 5026.4,-138.96"/>
</g>
<!-- Node43&#45;&gt;Node7 -->
<g id="edge57" class="edge">
<title>Node43&#45;&gt;Node7</title>
<path fill="none" stroke="midnightblue" d="M4970.09,-124.13C4968.97,-107.32 4964.87,-82.98 4951.25,-67 4932.39,-44.87 4902.1,-32.17 4876.93,-25.05"/>
<polygon fill="midnightblue" stroke="midnightblue" points="4966.6,-124.51 4970.46,-134.37 4973.59,-124.25 4966.6,-124.51"/>
</g>
<!-- Node43&#45;&gt;Node44 -->
<g id="edge48" class="edge">
<title>Node43&#45;&gt;Node44</title>
<path fill="none" stroke="midnightblue" d="M4928.45,-131.9C4884.94,-120.34 4817.77,-102.5 4778.29,-92.01"/>
<polygon fill="midnightblue" stroke="midnightblue" points="4927.6,-135.29 4938.16,-134.48 4929.39,-128.53 4927.6,-135.29"/>
</g>
<!-- Node47 -->
<g id="node45" class="node">
<title>Node47</title>
<g id="a_node45"><a xlink:href="sprite__set__color_8c.html" target="_top" xlink:title=" ">
<polygon fill="none" stroke="black" points="4998.75,-73 4998.75,-92 5117.75,-92 5117.75,-73 4998.75,-73"/>
<text text-anchor="middle" x="5058.25" y="-80" font-family="Helvetica,sans-Serif" font-size="10.00">src/sprite_set_color.c</text>
</a>
</g>
</g>
<!-- Node43&#45;&gt;Node47 -->
<g id="edge53" class="edge">
<title>Node43&#45;&gt;Node47</title>
<path fill="none" stroke="midnightblue" d="M4991.53,-128.61C5008.46,-117.17 5031.56,-101.55 5045.67,-92.01"/>
<polygon fill="midnightblue" stroke="midnightblue" points="4989.19,-125.97 4982.86,-134.48 4993.11,-131.77 4989.19,-125.97"/>
</g>
<!-- Node48 -->
<g id="node46" class="node">
<title>Node48</title>
<g id="a_node46"><a xlink:href="sprite__set__pat_8c.html" target="_top" xlink:title=" ">
<polygon fill="none" stroke="black" points="5135.75,-73 5135.75,-92 5246.75,-92 5246.75,-73 5135.75,-73"/>
<text text-anchor="middle" x="5191.25" y="-80" font-family="Helvetica,sans-Serif" font-size="10.00">src/sprite_set_pat.c</text>
</a>
</g>
</g>
<!-- Node43&#45;&gt;Node48 -->
<g id="edge54" class="edge">
<title>Node43&#45;&gt;Node48</title>
<path fill="none" stroke="midnightblue" d="M5011.77,-131.82C5054.7,-120.26 5120.78,-102.47 5159.65,-92.01"/>
<polygon fill="midnightblue" stroke="midnightblue" points="5010.66,-128.5 5001.92,-134.48 5012.48,-135.25 5010.66,-128.5"/>
</g>
<!-- Node44&#45;&gt;Node4 -->
<g id="edge49" class="edge">
<title>Node44&#45;&gt;Node4</title>
<path fill="none" stroke="midnightblue" d="M4723.48,-67.27C4702.9,-54.4 4673.26,-35.88 4656.06,-25.13"/>
<polygon fill="midnightblue" stroke="midnightblue" points="4721.89,-70.4 4732.23,-72.73 4725.6,-64.47 4721.89,-70.4"/>
</g>
<!-- Node44&#45;&gt;Node6 -->
<g id="edge50" class="edge">
<title>Node44&#45;&gt;Node6</title>
<path fill="none" stroke="midnightblue" d="M4791.68,-70.56C4844.91,-57.75 4931.99,-36.78 4980.6,-25.08"/>
<polygon fill="midnightblue" stroke="midnightblue" points="4790.73,-67.19 4781.83,-72.94 4792.37,-74 4790.73,-67.19"/>
</g>
<!-- Node44&#45;&gt;Node7 -->
<g id="edge51" class="edge">
<title>Node44&#45;&gt;Node7</title>
<path fill="none" stroke="midnightblue" d="M4766.24,-66.57C4783.41,-53.74 4807.58,-35.69 4821.71,-25.13"/>
<polygon fill="midnightblue" stroke="midnightblue" points="4763.9,-63.94 4757.99,-72.73 4768.09,-69.55 4763.9,-63.94"/>
</g>
<!-- Node44&#45;&gt;Node39 -->
<g id="edge52" class="edge">
<title>Node44&#45;&gt;Node39</title>
<path fill="none" stroke="midnightblue" d="M4704.52,-70.2C4663.84,-59.18 4601.86,-42.39 4558.05,-30.53"/>
<polygon fill="midnightblue" stroke="midnightblue" points="4703.82,-73.63 4714.38,-72.87 4705.65,-66.88 4703.82,-73.63"/>
</g>
</g>
</svg>
