<?xml version="1.0" encoding="UTF-8" standalone="no"?>
<!DOCTYPE svg PUBLIC "-//W3C//DTD SVG 1.1//EN"
 "http://www.w3.org/Graphics/SVG/1.1/DTD/svg11.dtd">
<!-- Generated by graphviz version 7.0.5 (20221223.1930)
 -->
<!-- Title: include/io.h Pages: 1 -->
<svg width="1042pt" height="302pt"
 viewBox="0.00 0.00 1042.00 302.00" xmlns="http://www.w3.org/2000/svg" xmlns:xlink="http://www.w3.org/1999/xlink">
<g id="graph0" class="graph" transform="scale(1 1) rotate(0) translate(4 298)">
<title>include/io.h</title>
<!-- Node1 -->
<g id="node1" class="node">
<title>Node1</title>
<g id="a_node1"><a xlink:title="Definition of I/O ports.">
<polygon fill="#999999" stroke="#666666" points="258.5,-294 193.5,-294 193.5,-275 258.5,-275 258.5,-294"/>
<text text-anchor="middle" x="226" y="-282" font-family="Helvetica,sans-Serif" font-size="10.00">include/io.h</text>
</a>
</g>
</g>
<!-- Node2 -->
<g id="node2" class="node">
<title>Node2</title>
<g id="a_node2"><a xlink:href="msx_8h.html" target="_top" xlink:title="Using #include &lt;msx.h&gt; includes almost all C header files in libmsx, for ease to use.">
<polygon fill="white" stroke="#666666" points="336,-19 260,-19 260,0 336,0 336,-19"/>
<text text-anchor="middle" x="298" y="-7" font-family="Helvetica,sans-Serif" font-size="10.00">include/msx.h</text>
</a>
</g>
</g>
<!-- Node1&#45;&gt;Node2 -->
<g id="edge1" class="edge">
<title>Node1&#45;&gt;Node2</title>
<path fill="none" stroke="#63b8ff" d="M270.36,-282.28C439.42,-277.07 1034,-253.2 1034,-175.5 1034,-175.5 1034,-175.5 1034,-118.5 1034,-47.27 487.36,-18.6 336.28,-12.04"/>
<polygon fill="#63b8ff" stroke="#63b8ff" points="270.34,-278.78 260.45,-282.58 270.55,-285.78 270.34,-278.78"/>
</g>
<!-- Node3 -->
<g id="node3" class="node">
<title>Node3</title>
<g id="a_node3"><a xlink:href="psg_8h.html" target="_top" xlink:title="Device interface for PSG (AY&#45;3&#45;8910) an internal sound chip.">
<polygon fill="white" stroke="#666666" points="101,-239 27,-239 27,-220 101,-220 101,-239"/>
<text text-anchor="middle" x="64" y="-227" font-family="Helvetica,sans-Serif" font-size="10.00">include/psg.h</text>
</a>
</g>
</g>
<!-- Node1&#45;&gt;Node3 -->
<g id="edge2" class="edge">
<title>Node1&#45;&gt;Node3</title>
<path fill="none" stroke="#63b8ff" d="M187.74,-270.98C158.12,-261.29 117.8,-248.1 91.35,-239.45"/>
<polygon fill="#63b8ff" stroke="#63b8ff" points="186.49,-274.26 197.09,-274.04 188.67,-267.6 186.49,-274.26"/>
</g>
<!-- Node5 -->
<g id="node5" class="node">
<title>Node5</title>
<g id="a_node5"><a xlink:href="vdp_8h.html" target="_top" xlink:title="Data types and functions for VDP (Video Display Proccessor) access.">
<polygon fill="white" stroke="#666666" points="255,-129 181,-129 181,-110 255,-110 255,-129"/>
<text text-anchor="middle" x="218" y="-117" font-family="Helvetica,sans-Serif" font-size="10.00">include/vdp.h</text>
</a>
</g>
</g>
<!-- Node1&#45;&gt;Node5 -->
<g id="edge5" class="edge">
<title>Node1&#45;&gt;Node5</title>
<path fill="none" stroke="#63b8ff" d="M210.43,-265.9C194.95,-247.13 172.22,-215.77 163,-184 160.65,-175.89 159.37,-172.62 163,-165 170.62,-149.04 187.07,-136.95 200.01,-129.43"/>
<polygon fill="#63b8ff" stroke="#63b8ff" points="207.63,-268.01 216.78,-273.36 212.96,-263.47 207.63,-268.01"/>
</g>
<!-- Node7 -->
<g id="node7" class="node">
<title>Node7</title>
<g id="a_node7"><a xlink:href="vdp__unsafe_8h.html" target="_top" xlink:title="Unsafe primitive functions for VDP (Video Display Proccessor) access.">
<polygon fill="white" stroke="#666666" points="280,-184 172,-184 172,-165 280,-165 280,-184"/>
<text text-anchor="middle" x="226" y="-172" font-family="Helvetica,sans-Serif" font-size="10.00">include/vdp_unsafe.h</text>
</a>
</g>
</g>
<!-- Node1&#45;&gt;Node7 -->
<g id="edge9" class="edge">
<title>Node1&#45;&gt;Node7</title>
<path fill="none" stroke="#63b8ff" d="M226,-263.24C226,-239.63 226,-201.65 226,-184.46"/>
<polygon fill="#63b8ff" stroke="#63b8ff" points="222.51,-263.15 226,-273.15 229.51,-263.15 222.51,-263.15"/>
</g>
<!-- Node8 -->
<g id="node8" class="node">
<title>Node8</title>
<g id="a_node8"><a xlink:href="vmem_8h.html" target="_top" xlink:title="Data types and functions for VRAM access.">
<polygon fill="white" stroke="#666666" points="445.5,-239 360.5,-239 360.5,-220 445.5,-220 445.5,-239"/>
<text text-anchor="middle" x="403" y="-227" font-family="Helvetica,sans-Serif" font-size="10.00">include/vmem.h</text>
</a>
</g>
</g>
<!-- Node1&#45;&gt;Node8 -->
<g id="edge11" class="edge">
<title>Node1&#45;&gt;Node8</title>
<path fill="none" stroke="#63b8ff" d="M266.96,-271.24C299.4,-261.52 343.98,-248.18 373.13,-239.45"/>
<polygon fill="#63b8ff" stroke="#63b8ff" points="266.06,-267.85 257.48,-274.08 268.06,-274.56 266.06,-267.85"/>
</g>
<!-- Node3&#45;&gt;Node2 -->
<g id="edge4" class="edge">
<title>Node3&#45;&gt;Node2</title>
<path fill="none" stroke="#63b8ff" d="M33.81,-214.13C13.9,-202.48 -6.82,-184.79 3,-165 51.99,-66.36 191.43,-28.97 259.57,-16.29"/>
<polygon fill="#63b8ff" stroke="#63b8ff" points="31.89,-217.07 42.35,-218.78 35.24,-210.92 31.89,-217.07"/>
</g>
<!-- Node4 -->
<g id="node4" class="node">
<title>Node4</title>
<g id="a_node4"><a xlink:href="ay__3__8910_8h.html" target="_top" xlink:title="Buffer for PSG (AY&#45;3&#45;8910) registers.">
<polygon fill="white" stroke="#666666" points="116,-184 12,-184 12,-165 116,-165 116,-184"/>
<text text-anchor="middle" x="64" y="-172" font-family="Helvetica,sans-Serif" font-size="10.00">include/ay_3_8910.h</text>
</a>
</g>
</g>
<!-- Node3&#45;&gt;Node4 -->
<g id="edge3" class="edge">
<title>Node3&#45;&gt;Node4</title>
<path fill="none" stroke="#63b8ff" d="M64,-208.35C64,-200.1 64,-190.97 64,-184.44"/>
<polygon fill="#63b8ff" stroke="#63b8ff" points="60.51,-208.23 64,-218.23 67.51,-208.23 60.51,-208.23"/>
</g>
<!-- Node5&#45;&gt;Node2 -->
<g id="edge8" class="edge">
<title>Node5&#45;&gt;Node2</title>
<path fill="none" stroke="#63b8ff" d="M188.04,-104.21C166.52,-91.95 143.51,-73.41 157,-55 180.38,-23.12 226.65,-13.49 259.82,-10.88"/>
<polygon fill="#63b8ff" stroke="#63b8ff" points="186.19,-107.19 196.66,-108.82 189.49,-101.02 186.19,-107.19"/>
</g>
<!-- Node6 -->
<g id="node6" class="node">
<title>Node6</title>
<g id="a_node6"><a xlink:href="metasprite_8h.html" target="_top" xlink:title="Meta&#45;sprite ; an aggregate of sprites.">
<polygon fill="white" stroke="#666666" points="270,-74 166,-74 166,-55 270,-55 270,-74"/>
<text text-anchor="middle" x="218" y="-62" font-family="Helvetica,sans-Serif" font-size="10.00">include/metasprite.h</text>
</a>
</g>
</g>
<!-- Node5&#45;&gt;Node6 -->
<g id="edge6" class="edge">
<title>Node5&#45;&gt;Node6</title>
<path fill="none" stroke="#63b8ff" d="M218,-98.35C218,-90.1 218,-80.97 218,-74.44"/>
<polygon fill="#63b8ff" stroke="#63b8ff" points="214.51,-98.23 218,-108.23 221.51,-98.23 214.51,-98.23"/>
</g>
<!-- Node6&#45;&gt;Node2 -->
<g id="edge7" class="edge">
<title>Node6&#45;&gt;Node2</title>
<path fill="none" stroke="#63b8ff" d="M241.12,-48.19C255.23,-38.84 272.79,-27.21 284.63,-19.36"/>
<polygon fill="#63b8ff" stroke="#63b8ff" points="239.24,-45.23 232.84,-53.67 243.11,-51.07 239.24,-45.23"/>
</g>
<!-- Node7&#45;&gt;Node5 -->
<g id="edge10" class="edge">
<title>Node7&#45;&gt;Node5</title>
<path fill="none" stroke="#63b8ff" d="M223.01,-153.64C221.75,-145.31 220.35,-136.05 219.35,-129.44"/>
<polygon fill="#63b8ff" stroke="#63b8ff" points="219.5,-153.89 224.46,-163.25 226.43,-152.84 219.5,-153.89"/>
</g>
<!-- Node8&#45;&gt;Node2 -->
<g id="edge20" class="edge">
<title>Node8&#45;&gt;Node2</title>
<path fill="none" stroke="#63b8ff" d="M415.83,-210.41C438.09,-176.55 478.31,-102.76 443,-55 418.67,-22.07 370.4,-12.73 336.25,-10.47"/>
<polygon fill="#63b8ff" stroke="#63b8ff" points="413.18,-208.07 410.45,-218.31 418.97,-212.01 413.18,-208.07"/>
</g>
<!-- Node8&#45;&gt;Node5 -->
<g id="edge27" class="edge">
<title>Node8&#45;&gt;Node5</title>
<path fill="none" stroke="#63b8ff" d="M378.37,-214.12C339.58,-191.47 265.38,-148.16 233.35,-129.46"/>
<polygon fill="#63b8ff" stroke="#63b8ff" points="376.16,-216.88 386.56,-218.9 379.69,-210.83 376.16,-216.88"/>
</g>
<!-- Node8&#45;&gt;Node6 -->
<g id="edge19" class="edge">
<title>Node8&#45;&gt;Node6</title>
<path fill="none" stroke="#63b8ff" d="M384.51,-212.2C345.85,-178.15 257.64,-100.42 227.96,-74.27"/>
<polygon fill="#63b8ff" stroke="#63b8ff" points="381.84,-214.52 391.66,-218.5 386.47,-209.27 381.84,-214.52"/>
</g>
<!-- Node8&#45;&gt;Node7 -->
<g id="edge28" class="edge">
<title>Node8&#45;&gt;Node7</title>
<path fill="none" stroke="#63b8ff" d="M362.05,-216.24C329.61,-206.52 285.03,-193.18 255.88,-184.45"/>
<polygon fill="#63b8ff" stroke="#63b8ff" points="360.95,-219.56 371.53,-219.08 362.95,-212.85 360.95,-219.56"/>
</g>
<!-- Node9 -->
<g id="node9" class="node">
<title>Node9</title>
<g id="a_node9"><a xlink:href="ZX0__decompress_8h.html" target="_top" xlink:title="Decompressor of the ZX0 data compression format version 2.">
<polygon fill="white" stroke="#666666" points="660,-129 526,-129 526,-110 660,-110 660,-129"/>
<text text-anchor="middle" x="593" y="-117" font-family="Helvetica,sans-Serif" font-size="10.00">include/ZX0_decompress.h</text>
</a>
</g>
</g>
<!-- Node8&#45;&gt;Node9 -->
<g id="edge12" class="edge">
<title>Node8&#45;&gt;Node9</title>
<path fill="none" stroke="#63b8ff" d="M457.31,-223.66C509.04,-217.8 581.55,-205.87 599,-184 611.58,-168.25 603.24,-142.8 597.37,-129.4"/>
<polygon fill="#63b8ff" stroke="#63b8ff" points="457.04,-220.17 447.47,-224.73 457.79,-227.13 457.04,-220.17"/>
</g>
<!-- Node10 -->
<g id="node10" class="node">
<title>Node10</title>
<g id="a_node10"><a xlink:href="bmem_8h.html" target="_top" xlink:title="Data types and functions for accessing banked memory.">
<polygon fill="white" stroke="#666666" points="769.5,-184 684.5,-184 684.5,-165 769.5,-165 769.5,-184"/>
<text text-anchor="middle" x="727" y="-172" font-family="Helvetica,sans-Serif" font-size="10.00">include/bmem.h</text>
</a>
</g>
</g>
<!-- Node8&#45;&gt;Node10 -->
<g id="edge13" class="edge">
<title>Node8&#45;&gt;Node10</title>
<path fill="none" stroke="#63b8ff" d="M456.72,-219.71C520.52,-209.28 625.65,-192.08 684.22,-182.5"/>
<polygon fill="#63b8ff" stroke="#63b8ff" points="456.49,-216.2 447.19,-221.27 457.62,-223.11 456.49,-216.2"/>
</g>
<!-- Node15 -->
<g id="node15" class="node">
<title>Node15</title>
<g id="a_node15"><a xlink:href="sprite_8h.html" target="_top" xlink:title="Sprites.">
<polygon fill="white" stroke="#666666" points="394,-129 312,-129 312,-110 394,-110 394,-129"/>
<text text-anchor="middle" x="353" y="-117" font-family="Helvetica,sans-Serif" font-size="10.00">include/sprite.h</text>
</a>
</g>
</g>
<!-- Node8&#45;&gt;Node15 -->
<g id="edge21" class="edge">
<title>Node8&#45;&gt;Node15</title>
<path fill="none" stroke="#63b8ff" d="M394.08,-209.22C383.18,-185.69 365.22,-146.89 357.15,-129.46"/>
<polygon fill="#63b8ff" stroke="#63b8ff" points="390.9,-210.68 398.28,-218.29 397.25,-207.74 390.9,-210.68"/>
</g>
<!-- Node16 -->
<g id="node16" class="node">
<title>Node16</title>
<g id="a_node16"><a xlink:href="sprite__color_8h.html" target="_top" xlink:title="Sprite color table interface.">
<polygon fill="white" stroke="#666666" points="434,-74 326,-74 326,-55 434,-55 434,-74"/>
<text text-anchor="middle" x="380" y="-62" font-family="Helvetica,sans-Serif" font-size="10.00">include/sprite_color.h</text>
</a>
</g>
</g>
<!-- Node8&#45;&gt;Node16 -->
<g id="edge26" class="edge">
<title>Node8&#45;&gt;Node16</title>
<path fill="none" stroke="#63b8ff" d="M405.86,-208.34C408.6,-184.48 411.21,-143.73 403,-110 399.76,-96.65 391.76,-82.83 386.11,-74.2"/>
<polygon fill="#63b8ff" stroke="#63b8ff" points="402.4,-207.84 404.59,-218.21 409.34,-208.74 402.4,-207.84"/>
</g>
<!-- Node17 -->
<g id="node17" class="node">
<title>Node17</title>
<g id="a_node17"><a xlink:href="vmem__rw_8h.html" target="_top" xlink:title="Stream like access functions for VRAM.">
<polygon fill="white" stroke="#666666" points="589.5,-184 488.5,-184 488.5,-165 589.5,-165 589.5,-184"/>
<text text-anchor="middle" x="539" y="-172" font-family="Helvetica,sans-Serif" font-size="10.00">include/vmem_rw.h</text>
</a>
</g>
</g>
<!-- Node8&#45;&gt;Node17 -->
<g id="edge29" class="edge">
<title>Node8&#45;&gt;Node17</title>
<path fill="none" stroke="#63b8ff" d="M436.48,-215.45C461.3,-205.78 494.48,-192.85 516.28,-184.36"/>
<polygon fill="#63b8ff" stroke="#63b8ff" points="435.53,-212.07 427.49,-218.96 438.07,-218.59 435.53,-212.07"/>
</g>
<!-- Node10&#45;&gt;Node9 -->
<g id="edge14" class="edge">
<title>Node10&#45;&gt;Node9</title>
<path fill="none" stroke="#63b8ff" d="M693.69,-160.32C669.27,-150.67 636.78,-137.82 615.4,-129.36"/>
<polygon fill="#63b8ff" stroke="#63b8ff" points="692.28,-163.53 702.87,-163.95 694.85,-157.02 692.28,-163.53"/>
</g>
<!-- Node11 -->
<g id="node11" class="node">
<title>Node11</title>
<g id="a_node11"><a xlink:href="bmem__rd_8h.html" target="_top" xlink:title="Stream like access functions for Banked Memory.">
<polygon fill="white" stroke="#666666" points="776,-129 678,-129 678,-110 776,-110 776,-129"/>
<text text-anchor="middle" x="727" y="-117" font-family="Helvetica,sans-Serif" font-size="10.00">include/bmem_rd.h</text>
</a>
</g>
</g>
<!-- Node10&#45;&gt;Node11 -->
<g id="edge15" class="edge">
<title>Node10&#45;&gt;Node11</title>
<path fill="none" stroke="#63b8ff" d="M727,-153.35C727,-145.1 727,-135.97 727,-129.44"/>
<polygon fill="#63b8ff" stroke="#63b8ff" points="723.51,-153.23 727,-163.23 730.51,-153.23 723.51,-153.23"/>
</g>
<!-- Node13 -->
<g id="node13" class="node">
<title>Node13</title>
<g id="a_node13"><a xlink:href="memfile_8h.html" target="_top" xlink:title="Stream interface for ROM / RAM / MegaROM.">
<polygon fill="white" stroke="#666666" points="886,-129 794,-129 794,-110 886,-110 886,-129"/>
<text text-anchor="middle" x="840" y="-117" font-family="Helvetica,sans-Serif" font-size="10.00">include/memfile.h</text>
</a>
</g>
</g>
<!-- Node10&#45;&gt;Node13 -->
<g id="edge17" class="edge">
<title>Node10&#45;&gt;Node13</title>
<path fill="none" stroke="#63b8ff" d="M756.5,-159.67C776.92,-150.09 803.49,-137.62 821.12,-129.36"/>
<polygon fill="#63b8ff" stroke="#63b8ff" points="755.11,-156.45 747.54,-163.87 758.08,-162.79 755.11,-156.45"/>
</g>
<!-- Node14 -->
<g id="node14" class="node">
<title>Node14</title>
<g id="a_node14"><a xlink:href="resources_8h.html" target="_top" xlink:title="Data types and functions for accessing embedded resources.">
<polygon fill="white" stroke="#666666" points="1005.5,-129 904.5,-129 904.5,-110 1005.5,-110 1005.5,-129"/>
<text text-anchor="middle" x="955" y="-117" font-family="Helvetica,sans-Serif" font-size="10.00">include/resources.h</text>
</a>
</g>
</g>
<!-- Node10&#45;&gt;Node14 -->
<g id="edge18" class="edge">
<title>Node10&#45;&gt;Node14</title>
<path fill="none" stroke="#63b8ff" d="M776.77,-161.93C818.78,-152.17 878.07,-138.38 916.52,-129.45"/>
<polygon fill="#63b8ff" stroke="#63b8ff" points="776.1,-158.49 767.16,-164.17 777.69,-165.31 776.1,-158.49"/>
</g>
<!-- Node12 -->
<g id="node12" class="node">
<title>Node12</title>
<g id="a_node12"><a xlink:href="xmem_8h.html" target="_top" xlink:title="Inter&#45;memory transfer functions for ROM / RAM, VRAM, and Banked Memory (MegaROM).">
<polygon fill="white" stroke="#666666" points="672,-74 588,-74 588,-55 672,-55 672,-74"/>
<text text-anchor="middle" x="630" y="-62" font-family="Helvetica,sans-Serif" font-size="10.00">include/xmem.h</text>
</a>
</g>
</g>
<!-- Node11&#45;&gt;Node12 -->
<g id="edge16" class="edge">
<title>Node11&#45;&gt;Node12</title>
<path fill="none" stroke="#63b8ff" d="M700.47,-104C683.11,-94.52 661,-82.43 646.22,-74.36"/>
<polygon fill="#63b8ff" stroke="#63b8ff" points="698.77,-107.06 709.22,-108.78 702.12,-100.92 698.77,-107.06"/>
</g>
<!-- Node15&#45;&gt;Node2 -->
<g id="edge23" class="edge">
<title>Node15&#45;&gt;Node2</title>
<path fill="none" stroke="#63b8ff" d="M336.38,-101.21C329.59,-93.4 322.15,-83.75 317,-74 307.34,-55.68 301.87,-31.73 299.48,-19.12"/>
<polygon fill="#63b8ff" stroke="#63b8ff" points="333.78,-103.56 343.11,-108.59 338.95,-98.85 333.78,-103.56"/>
</g>
<!-- Node15&#45;&gt;Node6 -->
<g id="edge22" class="edge">
<title>Node15&#45;&gt;Node6</title>
<path fill="none" stroke="#63b8ff" d="M319.44,-105.32C294.84,-95.67 262.11,-82.82 240.57,-74.36"/>
<polygon fill="#63b8ff" stroke="#63b8ff" points="318.11,-108.56 328.7,-108.96 320.67,-102.04 318.11,-108.56"/>
</g>
<!-- Node15&#45;&gt;Node16 -->
<g id="edge24" class="edge">
<title>Node15&#45;&gt;Node16</title>
<path fill="none" stroke="#63b8ff" d="M362.68,-99.5C367.03,-90.96 371.96,-81.28 375.45,-74.44"/>
<polygon fill="#63b8ff" stroke="#63b8ff" points="359.57,-97.9 358.15,-108.4 365.81,-101.08 359.57,-97.9"/>
</g>
<!-- Node16&#45;&gt;Node2 -->
<g id="edge25" class="edge">
<title>Node16&#45;&gt;Node2</title>
<path fill="none" stroke="#63b8ff" d="M356.74,-48.46C342.19,-39.06 323.97,-27.28 311.71,-19.36"/>
<polygon fill="#63b8ff" stroke="#63b8ff" points="354.53,-51.2 364.82,-53.69 358.33,-45.32 354.53,-51.2"/>
</g>
<!-- Node17&#45;&gt;Node12 -->
<g id="edge30" class="edge">
<title>Node17&#45;&gt;Node12</title>
<path fill="none" stroke="#63b8ff" d="M524.52,-155.49C515.63,-142.1 507.59,-123.83 517,-110 532.79,-86.82 562.67,-75.72 587.74,-70.39"/>
<polygon fill="#63b8ff" stroke="#63b8ff" points="521.59,-157.4 530.32,-163.4 527.23,-153.27 521.59,-157.4"/>
</g>
</g>
</svg>
