<?xml version="1.0" encoding="UTF-8" standalone="no"?>
<!DOCTYPE svg PUBLIC "-//W3C//DTD SVG 1.1//EN"
 "http://www.w3.org/Graphics/SVG/1.1/DTD/svg11.dtd">
<!-- Generated by graphviz version 7.0.2 (20221119.0110)
 -->
<!-- Title: include/io.h Pages: 1 -->
<svg width="569pt" height="302pt"
 viewBox="0.00 0.00 568.82 302.00" xmlns="http://www.w3.org/2000/svg" xmlns:xlink="http://www.w3.org/1999/xlink">
<g id="graph0" class="graph" transform="scale(1 1) rotate(0) translate(4 298)">
<title>include/io.h</title>
<!-- Node1 -->
<g id="node1" class="node">
<title>Node1</title>
<g id="a_node1"><a xlink:title="Definition of I/O ports.">
<polygon fill="#999999" stroke="#666666" points="230.5,-294 165.5,-294 165.5,-275 230.5,-275 230.5,-294"/>
<text text-anchor="middle" x="198" y="-282" font-family="Helvetica,sans-Serif" font-size="10.00">include/io.h</text>
</a>
</g>
</g>
<!-- Node2 -->
<g id="node2" class="node">
<title>Node2</title>
<g id="a_node2"><a xlink:href="msx_8h.html" target="_top" xlink:title="Using #include &lt;msx.h&gt; includes almost all C header files in libmsx, for ease to use.">
<polygon fill="white" stroke="#666666" points="361,-19 285,-19 285,0 361,0 361,-19"/>
<text text-anchor="middle" x="323" y="-7" font-family="Helvetica,sans-Serif" font-size="10.00">include/msx.h</text>
</a>
</g>
</g>
<!-- Node1&#45;&gt;Node2 -->
<g id="edge1" class="edge">
<title>Node1&#45;&gt;Node2</title>
<path fill="none" stroke="#63b8ff" d="M154.18,-278.96C95.86,-270.22 0,-245.25 0,-175.5 0,-175.5 0,-175.5 0,-118.5 0,-59.08 199.12,-26.39 284.68,-15.08"/>
<polygon fill="#63b8ff" stroke="#63b8ff" points="153.42,-282.39 163.81,-280.29 154.38,-275.45 153.42,-282.39"/>
</g>
<!-- Node3 -->
<g id="node3" class="node">
<title>Node3</title>
<g id="a_node3"><a xlink:href="psg_8h.html" target="_top" xlink:title="Device interface for PSG (AY&#45;3&#45;8910) an internal sound chip.">
<polygon fill="white" stroke="#666666" points="155,-239 81,-239 81,-220 155,-220 155,-239"/>
<text text-anchor="middle" x="118" y="-227" font-family="Helvetica,sans-Serif" font-size="10.00">include/psg.h</text>
</a>
</g>
</g>
<!-- Node1&#45;&gt;Node3 -->
<g id="edge2" class="edge">
<title>Node1&#45;&gt;Node3</title>
<path fill="none" stroke="#63b8ff" d="M174.89,-268.19C160.77,-258.84 143.22,-247.21 131.37,-239.36"/>
<polygon fill="#63b8ff" stroke="#63b8ff" points="172.9,-271.07 183.17,-273.67 176.76,-265.23 172.9,-271.07"/>
</g>
<!-- Node5 -->
<g id="node5" class="node">
<title>Node5</title>
<g id="a_node5"><a xlink:href="vdp_8h.html" target="_top" xlink:title="Data types and functions for VDP (Video Display Proccessor) access.">
<polygon fill="white" stroke="#666666" points="317,-129 243,-129 243,-110 317,-110 317,-129"/>
<text text-anchor="middle" x="280" y="-117" font-family="Helvetica,sans-Serif" font-size="10.00">include/vdp.h</text>
</a>
</g>
</g>
<!-- Node1&#45;&gt;Node5 -->
<g id="edge5" class="edge">
<title>Node1&#45;&gt;Node5</title>
<path fill="none" stroke="#63b8ff" d="M196.67,-263.43C195.98,-238.46 198.04,-195.42 217,-165 227.13,-148.75 245.6,-136.77 259.93,-129.36"/>
<polygon fill="#63b8ff" stroke="#63b8ff" points="193.16,-263.34 197.14,-273.16 200.16,-263.01 193.16,-263.34"/>
</g>
<!-- Node7 -->
<g id="node7" class="node">
<title>Node7</title>
<g id="a_node7"><a xlink:href="vdp__unsafe_8h.html" target="_top" xlink:title="Unsafe primitive functions for VDP (Video Display Proccessor) access.">
<polygon fill="white" stroke="#666666" points="334,-184 226,-184 226,-165 334,-165 334,-184"/>
<text text-anchor="middle" x="280" y="-172" font-family="Helvetica,sans-Serif" font-size="10.00">include/vdp_unsafe.h</text>
</a>
</g>
</g>
<!-- Node1&#45;&gt;Node7 -->
<g id="edge9" class="edge">
<title>Node1&#45;&gt;Node7</title>
<path fill="none" stroke="#63b8ff" d="M211.67,-265.49C229.42,-242.11 259.72,-202.2 273.2,-184.46"/>
<polygon fill="#63b8ff" stroke="#63b8ff" points="208.89,-263.38 205.63,-273.46 214.46,-267.61 208.89,-263.38"/>
</g>
<!-- Node8 -->
<g id="node8" class="node">
<title>Node8</title>
<g id="a_node8"><a xlink:href="vmem_8h.html" target="_top" xlink:title="Data types and functions for VRAM access.">
<polygon fill="white" stroke="#666666" points="442.5,-239 357.5,-239 357.5,-220 442.5,-220 442.5,-239"/>
<text text-anchor="middle" x="400" y="-227" font-family="Helvetica,sans-Serif" font-size="10.00">include/vmem.h</text>
</a>
</g>
</g>
<!-- Node1&#45;&gt;Node8 -->
<g id="edge11" class="edge">
<title>Node1&#45;&gt;Node8</title>
<path fill="none" stroke="#63b8ff" d="M241.91,-271.98C279.09,-262.22 331.63,-248.44 365.76,-239.48"/>
<polygon fill="#63b8ff" stroke="#63b8ff" points="241.15,-268.56 232.37,-274.48 242.93,-275.33 241.15,-268.56"/>
</g>
<!-- Node3&#45;&gt;Node2 -->
<g id="edge4" class="edge">
<title>Node3&#45;&gt;Node2</title>
<path fill="none" stroke="#63b8ff" d="M87.84,-214.19C67.36,-202.35 45.84,-184.38 57,-165 106.69,-78.68 225.15,-36.13 285.82,-19.39"/>
<polygon fill="#63b8ff" stroke="#63b8ff" points="86.18,-217.27 96.65,-218.92 89.5,-211.1 86.18,-217.27"/>
</g>
<!-- Node4 -->
<g id="node4" class="node">
<title>Node4</title>
<g id="a_node4"><a xlink:href="ay__3__8910_8h.html" target="_top" xlink:title="Buffer for PSG (AY&#45;3&#45;8910) registers.">
<polygon fill="white" stroke="#666666" points="170,-184 66,-184 66,-165 170,-165 170,-184"/>
<text text-anchor="middle" x="118" y="-172" font-family="Helvetica,sans-Serif" font-size="10.00">include/ay_3_8910.h</text>
</a>
</g>
</g>
<!-- Node3&#45;&gt;Node4 -->
<g id="edge3" class="edge">
<title>Node3&#45;&gt;Node4</title>
<path fill="none" stroke="#63b8ff" d="M118,-208.35C118,-200.1 118,-190.97 118,-184.44"/>
<polygon fill="#63b8ff" stroke="#63b8ff" points="114.5,-208.23 118,-218.23 121.5,-208.23 114.5,-208.23"/>
</g>
<!-- Node5&#45;&gt;Node2 -->
<g id="edge8" class="edge">
<title>Node5&#45;&gt;Node2</title>
<path fill="none" stroke="#63b8ff" d="M267.88,-100.19C260.85,-87.11 254.7,-69.36 262,-55 270.38,-38.52 288.03,-26.7 302.2,-19.4"/>
<polygon fill="#63b8ff" stroke="#63b8ff" points="264.78,-101.83 272.93,-108.6 270.78,-98.22 264.78,-101.83"/>
</g>
<!-- Node6 -->
<g id="node6" class="node">
<title>Node6</title>
<g id="a_node6"><a xlink:href="metasprite_8h.html" target="_top" xlink:title="Meta&#45;sprite ; an aggregate of sprites.">
<polygon fill="white" stroke="#666666" points="375,-74 271,-74 271,-55 375,-55 375,-74"/>
<text text-anchor="middle" x="323" y="-62" font-family="Helvetica,sans-Serif" font-size="10.00">include/metasprite.h</text>
</a>
</g>
</g>
<!-- Node5&#45;&gt;Node6 -->
<g id="edge6" class="edge">
<title>Node5&#45;&gt;Node6</title>
<path fill="none" stroke="#63b8ff" d="M294.25,-100.93C301.45,-92.06 309.88,-81.67 315.75,-74.44"/>
<polygon fill="#63b8ff" stroke="#63b8ff" points="291.64,-98.6 288.05,-108.57 297.07,-103.01 291.64,-98.6"/>
</g>
<!-- Node6&#45;&gt;Node2 -->
<g id="edge7" class="edge">
<title>Node6&#45;&gt;Node2</title>
<path fill="none" stroke="#63b8ff" d="M323,-43.35C323,-35.1 323,-25.97 323,-19.44"/>
<polygon fill="#63b8ff" stroke="#63b8ff" points="319.5,-43.23 323,-53.23 326.5,-43.23 319.5,-43.23"/>
</g>
<!-- Node7&#45;&gt;Node5 -->
<g id="edge10" class="edge">
<title>Node7&#45;&gt;Node5</title>
<path fill="none" stroke="#63b8ff" d="M280,-153.35C280,-145.1 280,-135.97 280,-129.44"/>
<polygon fill="#63b8ff" stroke="#63b8ff" points="276.5,-153.23 280,-163.23 283.5,-153.23 276.5,-153.23"/>
</g>
<!-- Node8&#45;&gt;Node2 -->
<g id="edge13" class="edge">
<title>Node8&#45;&gt;Node2</title>
<path fill="none" stroke="#63b8ff" d="M428.4,-214.41C483.94,-185.05 597.35,-115.06 548,-55 524.81,-26.77 419.26,-16.15 361.34,-12.39"/>
<polygon fill="#63b8ff" stroke="#63b8ff" points="427.06,-211.17 419.79,-218.87 430.28,-217.38 427.06,-211.17"/>
</g>
<!-- Node8&#45;&gt;Node5 -->
<g id="edge20" class="edge">
<title>Node8&#45;&gt;Node5</title>
<path fill="none" stroke="#63b8ff" d="M386.16,-211.05C375.17,-197.71 359.03,-179.26 343,-165 327.49,-151.2 307.67,-137.8 294.44,-129.37"/>
<polygon fill="#63b8ff" stroke="#63b8ff" points="383.21,-212.97 392.23,-218.54 388.66,-208.57 383.21,-212.97"/>
</g>
<!-- Node8&#45;&gt;Node6 -->
<g id="edge12" class="edge">
<title>Node8&#45;&gt;Node6</title>
<path fill="none" stroke="#63b8ff" d="M390.96,-209.37C374.27,-174.03 339.2,-99.79 327.16,-74.31"/>
<polygon fill="#63b8ff" stroke="#63b8ff" points="387.78,-210.82 395.21,-218.37 394.11,-207.83 387.78,-210.82"/>
</g>
<!-- Node8&#45;&gt;Node7 -->
<g id="edge21" class="edge">
<title>Node8&#45;&gt;Node7</title>
<path fill="none" stroke="#63b8ff" d="M369.28,-214.93C347.51,-205.32 318.95,-192.7 300.06,-184.36"/>
<polygon fill="#63b8ff" stroke="#63b8ff" points="367.7,-218.06 378.26,-218.9 370.53,-211.66 367.7,-218.06"/>
</g>
<!-- Node9 -->
<g id="node9" class="node">
<title>Node9</title>
<g id="a_node9"><a xlink:href="sprite_8h.html" target="_top" xlink:title="Sprites.">
<polygon fill="white" stroke="#666666" points="479,-129 397,-129 397,-110 479,-110 479,-129"/>
<text text-anchor="middle" x="438" y="-117" font-family="Helvetica,sans-Serif" font-size="10.00">include/sprite.h</text>
</a>
</g>
</g>
<!-- Node8&#45;&gt;Node9 -->
<g id="edge14" class="edge">
<title>Node8&#45;&gt;Node9</title>
<path fill="none" stroke="#63b8ff" d="M406.9,-208.9C415.19,-185.33 428.74,-146.81 434.85,-129.46"/>
<polygon fill="#63b8ff" stroke="#63b8ff" points="403.63,-207.64 403.61,-218.23 410.23,-209.96 403.63,-207.64"/>
</g>
<!-- Node10 -->
<g id="node10" class="node">
<title>Node10</title>
<g id="a_node10"><a xlink:href="sprite__color_8h.html" target="_top" xlink:title="Sprite color table interface.">
<polygon fill="white" stroke="#666666" points="539,-74 431,-74 431,-55 539,-55 539,-74"/>
<text text-anchor="middle" x="485" y="-62" font-family="Helvetica,sans-Serif" font-size="10.00">include/sprite_color.h</text>
</a>
</g>
</g>
<!-- Node8&#45;&gt;Node10 -->
<g id="edge19" class="edge">
<title>Node8&#45;&gt;Node10</title>
<path fill="none" stroke="#63b8ff" d="M421.17,-212.53C442.69,-194.84 474.69,-164.13 488,-129 494.96,-110.63 490.79,-87.11 487.6,-74.48"/>
<polygon fill="#63b8ff" stroke="#63b8ff" points="419.24,-209.6 413.59,-218.56 423.59,-215.08 419.24,-209.6"/>
</g>
<!-- Node9&#45;&gt;Node2 -->
<g id="edge16" class="edge">
<title>Node9&#45;&gt;Node2</title>
<path fill="none" stroke="#63b8ff" d="M424.69,-100.66C414.33,-87.35 399.21,-69.12 384,-55 369.01,-41.09 349.64,-27.61 336.79,-19.2"/>
<polygon fill="#63b8ff" stroke="#63b8ff" points="421.83,-102.69 430.68,-108.52 427.4,-98.44 421.83,-102.69"/>
</g>
<!-- Node9&#45;&gt;Node6 -->
<g id="edge15" class="edge">
<title>Node9&#45;&gt;Node6</title>
<path fill="none" stroke="#63b8ff" d="M408.27,-104.8C387.45,-95.2 360.24,-82.66 342.22,-74.36"/>
<polygon fill="#63b8ff" stroke="#63b8ff" points="406.57,-107.87 417.12,-108.88 409.5,-101.51 406.57,-107.87"/>
</g>
<!-- Node9&#45;&gt;Node10 -->
<g id="edge17" class="edge">
<title>Node9&#45;&gt;Node10</title>
<path fill="none" stroke="#63b8ff" d="M453.33,-101.22C461.25,-92.28 470.6,-81.74 477.07,-74.44"/>
<polygon fill="#63b8ff" stroke="#63b8ff" points="450.78,-98.81 446.77,-108.62 456.02,-103.46 450.78,-98.81"/>
</g>
<!-- Node10&#45;&gt;Node2 -->
<g id="edge18" class="edge">
<title>Node10&#45;&gt;Node2</title>
<path fill="none" stroke="#63b8ff" d="M446.74,-50.98C417.11,-41.29 376.79,-28.1 350.35,-19.45"/>
<polygon fill="#63b8ff" stroke="#63b8ff" points="445.49,-54.26 456.08,-54.04 447.66,-47.6 445.49,-54.26"/>
</g>
</g>
</svg>
