<?xml version="1.0" encoding="UTF-8" standalone="no"?>
<!DOCTYPE svg PUBLIC "-//W3C//DTD SVG 1.1//EN"
 "http://www.w3.org/Graphics/SVG/1.1/DTD/svg11.dtd">
<!-- Generated by graphviz version 2.49.3 (20211027.1534)
 -->
<!-- Title: src/joypad_get_state.c Pages: 1 -->
<svg width="237pt" height="196pt"
 viewBox="0.00 0.00 236.50 196.00" xmlns="http://www.w3.org/2000/svg" xmlns:xlink="http://www.w3.org/1999/xlink">
<g id="graph0" class="graph" transform="scale(1 1) rotate(0) translate(4 192)">
<title>src/joypad_get_state.c</title>
<!-- Node1 -->
<g id="node1" class="node">
<title>Node1</title>
<g id="a_node1"><a xlink:title="Copyright (c) 2021 Daishi Mori (mori0091)">
<polygon fill="#bfbfbf" stroke="black" points="76.5,-168.5 76.5,-187.5 190.5,-187.5 190.5,-168.5 76.5,-168.5"/>
<text text-anchor="middle" x="133.5" y="-175.5" font-family="Helvetica,sans-Serif" font-size="10.00">src/joypad_get_state.c</text>
</a>
</g>
</g>
<!-- Node2 -->
<g id="node2" class="node">
<title>Node2</title>
<g id="a_node2"><a xlink:href="bios_8h.html" target="_top" xlink:title="Copyright (c) 2021 Daishi Mori (mori0091)">
<polygon fill="none" stroke="black" points="41,-112.5 41,-131.5 124,-131.5 124,-112.5 41,-112.5"/>
<text text-anchor="middle" x="82.5" y="-119.5" font-family="Helvetica,sans-Serif" font-size="10.00">../include/bios.h</text>
</a>
</g>
</g>
<!-- Node1&#45;&gt;Node2 -->
<g id="edge1" class="edge">
<title>Node1&#45;&gt;Node2</title>
<path fill="none" stroke="midnightblue" d="M125.08,-168.08C117.65,-160.22 106.65,-148.57 97.69,-139.08"/>
<polygon fill="midnightblue" stroke="midnightblue" points="100.18,-136.62 90.76,-131.75 95.09,-141.42 100.18,-136.62"/>
</g>
<!-- Node7 -->
<g id="node7" class="node">
<title>Node7</title>
<g id="a_node7"><a xlink:href="input_8h.html" target="_top" xlink:title="Copyright (c) 2021 Daishi Mori (mori0091)">
<polygon fill="none" stroke="black" points="142.5,-112.5 142.5,-131.5 228.5,-131.5 228.5,-112.5 142.5,-112.5"/>
<text text-anchor="middle" x="185.5" y="-119.5" font-family="Helvetica,sans-Serif" font-size="10.00">../include/input.h</text>
</a>
</g>
</g>
<!-- Node1&#45;&gt;Node7 -->
<g id="edge8" class="edge">
<title>Node1&#45;&gt;Node7</title>
<path fill="none" stroke="midnightblue" d="M142.09,-168.08C149.66,-160.22 160.88,-148.57 170.01,-139.08"/>
<polygon fill="midnightblue" stroke="midnightblue" points="172.66,-141.38 177.07,-131.75 167.62,-136.53 172.66,-141.38"/>
</g>
<!-- Node3 -->
<g id="node3" class="node">
<title>Node3</title>
<g id="a_node3"><a xlink:href="bios__const_8h.html" target="_top" xlink:title="Constant variables in the MSX BIOS ROM.">
<polygon fill="none" stroke="black" points="0,-56.5 0,-75.5 71,-75.5 71,-56.5 0,-56.5"/>
<text text-anchor="middle" x="35.5" y="-63.5" font-family="Helvetica,sans-Serif" font-size="10.00">bios_const.h</text>
</a>
</g>
</g>
<!-- Node2&#45;&gt;Node3 -->
<g id="edge2" class="edge">
<title>Node2&#45;&gt;Node3</title>
<path fill="none" stroke="midnightblue" d="M74.74,-112.08C67.96,-104.3 57.96,-92.8 49.74,-83.37"/>
<polygon fill="midnightblue" stroke="midnightblue" points="52.32,-81 43.12,-75.75 47.04,-85.59 52.32,-81"/>
</g>
<!-- Node6 -->
<g id="node6" class="node">
<title>Node6</title>
<g id="a_node6"><a xlink:href="bios__entry_8h.html" target="_top" xlink:title="Assembler entry points for MSX BIOS functions.">
<polygon fill="none" stroke="black" points="89.5,-56.5 89.5,-75.5 157.5,-75.5 157.5,-56.5 89.5,-56.5"/>
<text text-anchor="middle" x="123.5" y="-63.5" font-family="Helvetica,sans-Serif" font-size="10.00">bios_entry.h</text>
</a>
</g>
</g>
<!-- Node2&#45;&gt;Node6 -->
<g id="edge5" class="edge">
<title>Node2&#45;&gt;Node6</title>
<path fill="none" stroke="midnightblue" d="M89.27,-112.08C95.06,-104.46 103.56,-93.26 110.64,-83.94"/>
<polygon fill="midnightblue" stroke="midnightblue" points="113.6,-85.83 116.86,-75.75 108.02,-81.6 113.6,-85.83"/>
</g>
<!-- Node4 -->
<g id="node4" class="node">
<title>Node4</title>
<g id="a_node4"><a xlink:title=" ">
<polygon fill="none" stroke="#bfbfbf" points="99.5,-0.5 99.5,-19.5 147.5,-19.5 147.5,-0.5 99.5,-0.5"/>
<text text-anchor="middle" x="123.5" y="-7.5" font-family="Helvetica,sans-Serif" font-size="10.00">stdint.h</text>
</a>
</g>
</g>
<!-- Node3&#45;&gt;Node4 -->
<g id="edge3" class="edge">
<title>Node3&#45;&gt;Node4</title>
<path fill="none" stroke="midnightblue" d="M49.64,-56.32C63.37,-47.9 84.44,-34.97 100.56,-25.07"/>
<polygon fill="midnightblue" stroke="midnightblue" points="102.7,-27.87 109.4,-19.65 99.04,-21.9 102.7,-27.87"/>
</g>
<!-- Node5 -->
<g id="node5" class="node">
<title>Node5</title>
<g id="a_node5"><a xlink:href="config_8h.html" target="_top" xlink:title="Copyright (c) 2022 Daishi Mori (mori0091)">
<polygon fill="none" stroke="black" points="21.5,-0.5 21.5,-19.5 71.5,-19.5 71.5,-0.5 21.5,-0.5"/>
<text text-anchor="middle" x="46.5" y="-7.5" font-family="Helvetica,sans-Serif" font-size="10.00">config.h</text>
</a>
</g>
</g>
<!-- Node3&#45;&gt;Node5 -->
<g id="edge4" class="edge">
<title>Node3&#45;&gt;Node5</title>
<path fill="none" stroke="midnightblue" d="M37.32,-56.08C38.77,-48.93 40.87,-38.64 42.69,-29.69"/>
<polygon fill="midnightblue" stroke="midnightblue" points="46.15,-30.25 44.72,-19.75 39.29,-28.85 46.15,-30.25"/>
</g>
<!-- Node6&#45;&gt;Node4 -->
<g id="edge6" class="edge">
<title>Node6&#45;&gt;Node4</title>
<path fill="none" stroke="midnightblue" d="M123.5,-56.08C123.5,-49.01 123.5,-38.86 123.5,-29.99"/>
<polygon fill="midnightblue" stroke="midnightblue" points="127,-29.75 123.5,-19.75 120,-29.75 127,-29.75"/>
</g>
<!-- Node6&#45;&gt;Node5 -->
<g id="edge7" class="edge">
<title>Node6&#45;&gt;Node5</title>
<path fill="none" stroke="midnightblue" d="M111.13,-56.32C99.34,-48.06 81.37,-35.45 67.36,-25.63"/>
<polygon fill="midnightblue" stroke="midnightblue" points="69.04,-22.53 58.84,-19.65 65.02,-28.26 69.04,-22.53"/>
</g>
<!-- Node7&#45;&gt;Node4 -->
<g id="edge9" class="edge">
<title>Node7&#45;&gt;Node4</title>
<path fill="none" stroke="midnightblue" d="M184.34,-112.49C182.29,-99.57 177.2,-74.53 166.5,-56 160.11,-44.94 150.46,-34.49 141.91,-26.46"/>
<polygon fill="midnightblue" stroke="midnightblue" points="143.98,-23.62 134.2,-19.55 139.31,-28.83 143.98,-23.62"/>
</g>
</g>
</svg>
