<?xml version="1.0" encoding="UTF-8" standalone="no"?>
<!DOCTYPE svg PUBLIC "-//W3C//DTD SVG 1.1//EN"
 "http://www.w3.org/Graphics/SVG/1.1/DTD/svg11.dtd">
<!-- Generated by graphviz version 9.0.0 (20230911.1827)
 -->
<!-- Title: include/la0.h Pages: 1 -->
<svg width="496pt" height="370pt"
 viewBox="0.00 0.00 496.41 370.00" xmlns="http://www.w3.org/2000/svg" xmlns:xlink="http://www.w3.org/1999/xlink">
<g id="graph0" class="graph" transform="scale(1 1) rotate(0) translate(4 366)">
<title>include/la0.h</title>
<!-- Node1 -->
<g id="Node000001" class="node">
<title>Node1</title>
<g id="a_Node000001"><a xlink:title="The libmsx audio format 0 (LA0) decoder.">
<polygon fill="#999999" stroke="#666666" points="202.38,-362 132.38,-362 132.38,-342.75 202.38,-342.75 202.38,-362"/>
<text text-anchor="middle" x="167.38" y="-348.5" font-family="Helvetica,sans-Serif" font-size="10.00">include/la0.h</text>
</a>
</g>
</g>
<!-- Node2 -->
<g id="Node000002" class="node">
<title>Node2</title>
<g id="a_Node000002"><a xlink:href="audio_8h.html" target="_top" xlink:title="The libmsx audio replayer.">
<polygon fill="white" stroke="#666666" points="46.75,-306.75 0,-306.75 0,-287.5 46.75,-287.5 46.75,-306.75"/>
<text text-anchor="middle" x="23.38" y="-293.25" font-family="Helvetica,sans-Serif" font-size="10.00">audio.h</text>
</a>
</g>
</g>
<!-- Node1&#45;&gt;Node2 -->
<g id="edge1_Node000001_Node000002" class="edge">
<title>Node1&#45;&gt;Node2</title>
<g id="a_edge1_Node000001_Node000002"><a xlink:title=" ">
<path fill="none" stroke="#63b8ff" d="M142.95,-342.34C119.5,-333.67 83.86,-320.49 57.59,-310.78"/>
<polygon fill="#63b8ff" stroke="#63b8ff" points="58.98,-307.56 48.38,-307.37 56.55,-314.12 58.98,-307.56"/>
</a>
</g>
</g>
<!-- Node3 -->
<g id="Node000003" class="node">
<title>Node3</title>
<g id="a_Node000003"><a xlink:title=" ">
<polygon fill="#e0e0e0" stroke="#999999" points="149.88,-251.5 94.88,-251.5 94.88,-232.25 149.88,-232.25 149.88,-251.5"/>
<text text-anchor="middle" x="122.38" y="-238" font-family="Helvetica,sans-Serif" font-size="10.00">stdbool.h</text>
</a>
</g>
</g>
<!-- Node1&#45;&gt;Node3 -->
<g id="edge20_Node000001_Node000003" class="edge">
<title>Node1&#45;&gt;Node3</title>
<g id="a_edge20_Node000001_Node000003"><a xlink:title=" ">
<path fill="none" stroke="#63b8ff" d="M139.34,-342.4C122.78,-335.49 103.19,-324.12 93.38,-306.75 84.8,-291.56 94.9,-273.37 105.46,-260.3"/>
<polygon fill="#63b8ff" stroke="#63b8ff" points="107.97,-262.74 111.97,-252.93 102.72,-258.1 107.97,-262.74"/>
</a>
</g>
</g>
<!-- Node4 -->
<g id="Node000004" class="node">
<title>Node4</title>
<g id="a_Node000004"><a xlink:title=" ">
<polygon fill="#e0e0e0" stroke="#999999" points="300.12,-19.25 252.62,-19.25 252.62,0 300.12,0 300.12,-19.25"/>
<text text-anchor="middle" x="276.38" y="-5.75" font-family="Helvetica,sans-Serif" font-size="10.00">stdint.h</text>
</a>
</g>
</g>
<!-- Node1&#45;&gt;Node4 -->
<g id="edge21_Node000001_Node000004" class="edge">
<title>Node1&#45;&gt;Node4</title>
<g id="a_edge21_Node000001_Node000004"><a xlink:title=" ">
<path fill="none" stroke="#63b8ff" d="M171.82,-342.34C180.39,-324.03 198.38,-281.08 198.38,-242.88 198.38,-242.88 198.38,-242.88 198.38,-119.12 198.38,-80.18 231.92,-45.66 255.01,-26.5"/>
<polygon fill="#63b8ff" stroke="#63b8ff" points="257,-29.39 262.66,-20.43 252.65,-23.9 257,-29.39"/>
</a>
</g>
</g>
<!-- Node5 -->
<g id="Node000005" class="node">
<title>Node5</title>
<g id="a_Node000005"><a xlink:href="audio__dec_8h.html" target="_top" xlink:title="The audio decoder interface for the libmsx audio replayer.">
<polygon fill="white" stroke="#666666" points="170.25,-306.75 102.5,-306.75 102.5,-287.5 170.25,-287.5 170.25,-306.75"/>
<text text-anchor="middle" x="136.38" y="-293.25" font-family="Helvetica,sans-Serif" font-size="10.00">audio_dec.h</text>
</a>
</g>
</g>
<!-- Node1&#45;&gt;Node5 -->
<g id="edge4_Node000001_Node000005" class="edge">
<title>Node1&#45;&gt;Node5</title>
<g id="a_edge4_Node000001_Node000005"><a xlink:title=" ">
<path fill="none" stroke="#63b8ff" d="M162.26,-342.58C158.2,-335.61 152.38,-325.62 147.29,-316.87"/>
<polygon fill="#63b8ff" stroke="#63b8ff" points="150.42,-315.3 142.37,-308.42 144.37,-318.82 150.42,-315.3"/>
</a>
</g>
</g>
<!-- Node6 -->
<g id="Node000006" class="node">
<title>Node6</title>
<g id="a_Node000006"><a xlink:href="memfile_8h.html" target="_top" xlink:title="Stream interface for ROM / RAM / MegaROM.">
<polygon fill="white" stroke="#666666" points="284,-306.75 226.75,-306.75 226.75,-287.5 284,-287.5 284,-306.75"/>
<text text-anchor="middle" x="255.38" y="-293.25" font-family="Helvetica,sans-Serif" font-size="10.00">memfile.h</text>
</a>
</g>
</g>
<!-- Node1&#45;&gt;Node6 -->
<g id="edge6_Node000001_Node000006" class="edge">
<title>Node1&#45;&gt;Node6</title>
<g id="a_edge6_Node000001_Node000006"><a xlink:title=" ">
<path fill="none" stroke="#63b8ff" d="M182.3,-342.34C195.58,-334.31 215.24,-322.41 230.83,-312.98"/>
<polygon fill="#63b8ff" stroke="#63b8ff" points="232.34,-316.16 239.08,-307.99 228.71,-310.17 232.34,-316.16"/>
</a>
</g>
</g>
<!-- Node9 -->
<g id="Node000009" class="node">
<title>Node9</title>
<g id="a_Node000009"><a xlink:title=" ">
<polygon fill="#e0e0e0" stroke="#999999" points="354.62,-129.75 304.12,-129.75 304.12,-110.5 354.62,-110.5 354.62,-129.75"/>
<text text-anchor="middle" x="329.38" y="-116.25" font-family="Helvetica,sans-Serif" font-size="10.00">stddef.h</text>
</a>
</g>
</g>
<!-- Node1&#45;&gt;Node9 -->
<g id="edge22_Node000001_Node000009" class="edge">
<title>Node1&#45;&gt;Node9</title>
<g id="a_edge22_Node000001_Node000009"><a xlink:title=" ">
<path fill="none" stroke="#63b8ff" d="M202.78,-345.38C229.88,-339.34 266.98,-327.8 293.38,-306.75 338.83,-270.5 347.18,-252.08 363.38,-196.25 367.15,-183.23 367.71,-178.59 363.38,-165.75 359.96,-155.65 353.25,-146.02 346.69,-138.32"/>
<polygon fill="#63b8ff" stroke="#63b8ff" points="349.36,-136.05 340.01,-131.08 344.22,-140.8 349.36,-136.05"/>
</a>
</g>
</g>
<!-- Node2&#45;&gt;Node3 -->
<g id="edge2_Node000002_Node000003" class="edge">
<title>Node2&#45;&gt;Node3</title>
<g id="a_edge2_Node000002_Node000003"><a xlink:title=" ">
<path fill="none" stroke="#63b8ff" d="M40.17,-287.09C55.39,-278.91 78.07,-266.71 95.76,-257.19"/>
<polygon fill="#63b8ff" stroke="#63b8ff" points="97.02,-260.49 104.17,-252.67 93.7,-254.32 97.02,-260.49"/>
</a>
</g>
</g>
<!-- Node2&#45;&gt;Node4 -->
<g id="edge3_Node000002_Node000004" class="edge">
<title>Node2&#45;&gt;Node4</title>
<g id="a_edge3_Node000002_Node000004"><a xlink:title=" ">
<path fill="none" stroke="#63b8ff" d="M25.4,-287.01C29.49,-267.73 38.38,-221.37 38.38,-182 38.38,-182 38.38,-182 38.38,-119.12 38.38,-31.09 174.86,-14.17 241.11,-11.14"/>
<polygon fill="#63b8ff" stroke="#63b8ff" points="240.87,-14.65 250.73,-10.79 240.61,-7.66 240.87,-14.65"/>
</a>
</g>
</g>
<!-- Node5&#45;&gt;Node3 -->
<g id="edge5_Node000005_Node000003" class="edge">
<title>Node5&#45;&gt;Node3</title>
<g id="a_edge5_Node000005_Node000003"><a xlink:title=" ">
<path fill="none" stroke="#63b8ff" d="M134.06,-287.33C132.31,-280.67 129.83,-271.24 127.61,-262.78"/>
<polygon fill="#63b8ff" stroke="#63b8ff" points="131.05,-262.1 125.12,-253.32 124.28,-263.88 131.05,-262.1"/>
</a>
</g>
</g>
<!-- Node6&#45;&gt;Node3 -->
<g id="edge15_Node000006_Node000003" class="edge">
<title>Node6&#45;&gt;Node3</title>
<g id="a_edge15_Node000006_Node000003"><a xlink:title=" ">
<path fill="none" stroke="#63b8ff" d="M232.81,-287.09C211.6,-278.6 179.6,-265.79 155.5,-256.14"/>
<polygon fill="#63b8ff" stroke="#63b8ff" points="157.04,-252.98 146.45,-252.52 154.44,-259.48 157.04,-252.98"/>
</a>
</g>
</g>
<!-- Node6&#45;&gt;Node4 -->
<g id="edge16_Node000006_Node000004" class="edge">
<title>Node6&#45;&gt;Node4</title>
<g id="a_edge16_Node000006_Node000004"><a xlink:title=" ">
<path fill="none" stroke="#63b8ff" d="M252.81,-287.04C247.63,-267.82 236.38,-221.57 236.38,-182 236.38,-182 236.38,-182 236.38,-119.12 236.38,-85.94 253.05,-50.38 264.87,-29.34"/>
<polygon fill="#63b8ff" stroke="#63b8ff" points="267.83,-31.2 269.88,-20.81 261.8,-27.66 267.83,-31.2"/>
</a>
</g>
</g>
<!-- Node7 -->
<g id="Node000007" class="node">
<title>Node7</title>
<g id="a_Node000007"><a xlink:href="bmem_8h.html" target="_top" xlink:title="Data types and functions for accessing banked memory.">
<polygon fill="white" stroke="#666666" points="460.62,-251.5 410.12,-251.5 410.12,-232.25 460.62,-232.25 460.62,-251.5"/>
<text text-anchor="middle" x="435.38" y="-238" font-family="Helvetica,sans-Serif" font-size="10.00">bmem.h</text>
</a>
</g>
</g>
<!-- Node6&#45;&gt;Node7 -->
<g id="edge7_Node000006_Node000007" class="edge">
<title>Node6&#45;&gt;Node7</title>
<g id="a_edge7_Node000006_Node000007"><a xlink:title=" ">
<path fill="none" stroke="#63b8ff" d="M284.3,-287.57C315.46,-278.35 365.11,-263.66 398.92,-253.66"/>
<polygon fill="#63b8ff" stroke="#63b8ff" points="399.69,-257.08 408.28,-250.89 397.7,-250.37 399.69,-257.08"/>
</a>
</g>
</g>
<!-- Node12 -->
<g id="Node000012" class="node">
<title>Node12</title>
<g id="a_Node000012"><a xlink:href="memfile__types_8h.html" target="_top" xlink:title=" ">
<polygon fill="white" stroke="#666666" points="354.12,-196.25 264.62,-196.25 264.62,-165.75 354.12,-165.75 354.12,-196.25"/>
<text text-anchor="start" x="272.62" y="-182.75" font-family="Helvetica,sans-Serif" font-size="10.00">./internal/memfile</text>
<text text-anchor="middle" x="309.38" y="-171.5" font-family="Helvetica,sans-Serif" font-size="10.00">_types.h</text>
</a>
</g>
</g>
<!-- Node6&#45;&gt;Node12 -->
<g id="edge17_Node000006_Node000012" class="edge">
<title>Node6&#45;&gt;Node12</title>
<g id="a_edge17_Node000006_Node000012"><a xlink:title=" ">
<path fill="none" stroke="#63b8ff" d="M259.61,-287.17C267.71,-270.05 285.65,-232.14 297.63,-206.82"/>
<polygon fill="#63b8ff" stroke="#63b8ff" points="300.74,-208.42 301.86,-197.89 294.42,-205.43 300.74,-208.42"/>
</a>
</g>
</g>
<!-- Node7&#45;&gt;Node4 -->
<g id="edge8_Node000007_Node000004" class="edge">
<title>Node7&#45;&gt;Node4</title>
<g id="a_edge8_Node000007_Node000004"><a xlink:title=" ">
<path fill="none" stroke="#63b8ff" d="M444.98,-232.04C453.25,-223.72 464.58,-210.46 469.38,-196.25 480.27,-163.97 506.4,-102.68 468.38,-55.25 449.05,-31.15 361.5,-18.85 311.56,-13.69"/>
<polygon fill="#63b8ff" stroke="#63b8ff" points="312.13,-10.23 301.84,-12.73 311.44,-17.19 312.13,-10.23"/>
</a>
</g>
</g>
<!-- Node8 -->
<g id="Node000008" class="node">
<title>Node8</title>
<g id="a_Node000008"><a xlink:href="vmem_8h.html" target="_top" xlink:title="Data types and functions for VRAM access.">
<polygon fill="white" stroke="#666666" points="460.62,-190.62 410.12,-190.62 410.12,-171.38 460.62,-171.38 460.62,-190.62"/>
<text text-anchor="middle" x="435.38" y="-177.12" font-family="Helvetica,sans-Serif" font-size="10.00">vmem.h</text>
</a>
</g>
</g>
<!-- Node7&#45;&gt;Node8 -->
<g id="edge9_Node000007_Node000008" class="edge">
<title>Node7&#45;&gt;Node8</title>
<g id="a_edge9_Node000007_Node000008"><a xlink:title=" ">
<path fill="none" stroke="#63b8ff" d="M435.38,-231.93C435.38,-224.15 435.38,-212.58 435.38,-202.53"/>
<polygon fill="#63b8ff" stroke="#63b8ff" points="438.88,-202.54 435.38,-192.54 431.88,-202.54 438.88,-202.54"/>
</a>
</g>
</g>
<!-- Node8&#45;&gt;Node4 -->
<g id="edge10_Node000008_Node000004" class="edge">
<title>Node8&#45;&gt;Node4</title>
<g id="a_edge10_Node000008_Node000004"><a xlink:title=" ">
<path fill="none" stroke="#63b8ff" d="M426.83,-170.89C401.37,-143.77 325.74,-63.21 292.43,-27.73"/>
<polygon fill="#63b8ff" stroke="#63b8ff" points="295.01,-25.37 285.62,-20.47 289.91,-30.16 295.01,-25.37"/>
</a>
</g>
</g>
<!-- Node8&#45;&gt;Node9 -->
<g id="edge11_Node000008_Node000009" class="edge">
<title>Node8&#45;&gt;Node9</title>
<g id="a_edge11_Node000008_Node000009"><a xlink:title=" ">
<path fill="none" stroke="#63b8ff" d="M419.28,-171.06C402.39,-161.68 375.58,-146.79 355.62,-135.7"/>
<polygon fill="#63b8ff" stroke="#63b8ff" points="357.39,-132.68 346.95,-130.89 353.99,-138.8 357.39,-132.68"/>
</a>
</g>
</g>
<!-- Node10 -->
<g id="Node000010" class="node">
<title>Node10</title>
<g id="a_Node000010"><a xlink:href="io_8h.html" target="_top" xlink:title="Definition of I/O ports.">
<polygon fill="white" stroke="#666666" points="450.88,-129.75 419.88,-129.75 419.88,-110.5 450.88,-110.5 450.88,-129.75"/>
<text text-anchor="middle" x="435.38" y="-116.25" font-family="Helvetica,sans-Serif" font-size="10.00">io.h</text>
</a>
</g>
</g>
<!-- Node8&#45;&gt;Node10 -->
<g id="edge12_Node000008_Node000010" class="edge">
<title>Node8&#45;&gt;Node10</title>
<g id="a_edge12_Node000008_Node000010"><a xlink:title=" ">
<path fill="none" stroke="#63b8ff" d="M435.38,-171.06C435.38,-163.28 435.38,-151.7 435.38,-141.66"/>
<polygon fill="#63b8ff" stroke="#63b8ff" points="438.88,-141.66 435.38,-131.66 431.88,-141.66 438.88,-141.66"/>
</a>
</g>
</g>
<!-- Node11 -->
<g id="Node000011" class="node">
<title>Node11</title>
<g id="a_Node000011"><a xlink:href="config_8h.html" target="_top" xlink:title="Hack for C Compiler portability.">
<polygon fill="white" stroke="#666666" points="459.88,-74.5 410.88,-74.5 410.88,-55.25 459.88,-55.25 459.88,-74.5"/>
<text text-anchor="middle" x="435.38" y="-61" font-family="Helvetica,sans-Serif" font-size="10.00">config.h</text>
</a>
</g>
</g>
<!-- Node10&#45;&gt;Node11 -->
<g id="edge13_Node000010_Node000011" class="edge">
<title>Node10&#45;&gt;Node11</title>
<g id="a_edge13_Node000010_Node000011"><a xlink:title=" ">
<path fill="none" stroke="#63b8ff" d="M435.38,-110.33C435.38,-103.82 435.38,-94.67 435.38,-86.37"/>
<polygon fill="#63b8ff" stroke="#63b8ff" points="438.88,-86.37 435.38,-76.37 431.88,-86.37 438.88,-86.37"/>
</a>
</g>
</g>
<!-- Node11&#45;&gt;Node4 -->
<g id="edge14_Node000011_Node000004" class="edge">
<title>Node11&#45;&gt;Node4</title>
<g id="a_edge14_Node000011_Node000004"><a xlink:title=" ">
<path fill="none" stroke="#63b8ff" d="M410.53,-55.55C383.89,-46.63 341.38,-32.39 311.36,-22.34"/>
<polygon fill="#63b8ff" stroke="#63b8ff" points="312.55,-19.05 301.96,-19.19 310.33,-25.69 312.55,-19.05"/>
</a>
</g>
</g>
<!-- Node12&#45;&gt;Node4 -->
<g id="edge18_Node000012_Node000004" class="edge">
<title>Node12&#45;&gt;Node4</title>
<g id="a_edge18_Node000012_Node000004"><a xlink:title=" ">
<path fill="none" stroke="#63b8ff" d="M304.89,-165.6C301.9,-155.61 298.04,-141.96 295.38,-129.75 287.87,-95.39 282.04,-54.86 278.91,-31.03"/>
<polygon fill="#63b8ff" stroke="#63b8ff" points="282.39,-30.63 277.65,-21.16 275.45,-31.52 282.39,-30.63"/>
</a>
</g>
</g>
<!-- Node12&#45;&gt;Node9 -->
<g id="edge19_Node000012_Node000009" class="edge">
<title>Node12&#45;&gt;Node9</title>
<g id="a_edge19_Node000012_Node000009"><a xlink:title=" ">
<path fill="none" stroke="#63b8ff" d="M314.32,-165.45C316.84,-158.03 319.94,-148.91 322.67,-140.88"/>
<polygon fill="#63b8ff" stroke="#63b8ff" points="325.9,-142.23 325.8,-131.63 319.27,-139.98 325.9,-142.23"/>
</a>
</g>
</g>
</g>
</svg>
