<?xml version="1.0" encoding="UTF-8" standalone="no"?>
<!DOCTYPE svg PUBLIC "-//W3C//DTD SVG 1.1//EN"
 "http://www.w3.org/Graphics/SVG/1.1/DTD/svg11.dtd">
<!-- Generated by graphviz version 7.0.5 (20221223.1930)
 -->
<!-- Title: include/la0.h Pages: 1 -->
<svg width="502pt" height="368pt"
 viewBox="0.00 0.00 502.25 368.00" xmlns="http://www.w3.org/2000/svg" xmlns:xlink="http://www.w3.org/1999/xlink">
<g id="graph0" class="graph" transform="scale(1 1) rotate(0) translate(4 364)">
<title>include/la0.h</title>
<!-- Node1 -->
<g id="node1" class="node">
<title>Node1</title>
<g id="a_node1"><a xlink:title="The libmsx audio format 0 (LA0) decoder.">
<polygon fill="#999999" stroke="#666666" points="204,-360 133,-360 133,-341 204,-341 204,-360"/>
<text text-anchor="middle" x="168.5" y="-348" font-family="Helvetica,sans-Serif" font-size="10.00">include/la0.h</text>
</a>
</g>
</g>
<!-- Node2 -->
<g id="node2" class="node">
<title>Node2</title>
<g id="a_node2"><a xlink:href="audio_8h.html" target="_top" xlink:title="The libmsx audio replayer.">
<polygon fill="white" stroke="#666666" points="47,-305 0,-305 0,-286 47,-286 47,-305"/>
<text text-anchor="middle" x="23.5" y="-293" font-family="Helvetica,sans-Serif" font-size="10.00">audio.h</text>
</a>
</g>
</g>
<!-- Node1&#45;&gt;Node2 -->
<g id="edge1" class="edge">
<title>Node1&#45;&gt;Node2</title>
<path fill="none" stroke="#63b8ff" d="M143.9,-340.51C120.29,-331.88 84.4,-318.76 57.95,-309.09"/>
<polygon fill="#63b8ff" stroke="#63b8ff" points="59.27,-305.85 48.68,-305.7 56.87,-312.42 59.27,-305.85"/>
</g>
<!-- Node3 -->
<g id="node3" class="node">
<title>Node3</title>
<g id="a_node3"><a xlink:title=" ">
<polygon fill="#e0e0e0" stroke="#999999" points="151.5,-250 95.5,-250 95.5,-231 151.5,-231 151.5,-250"/>
<text text-anchor="middle" x="123.5" y="-238" font-family="Helvetica,sans-Serif" font-size="10.00">stdbool.h</text>
</a>
</g>
</g>
<!-- Node1&#45;&gt;Node3 -->
<g id="edge20" class="edge">
<title>Node1&#45;&gt;Node3</title>
<path fill="none" stroke="#63b8ff" d="M140.46,-340.57C123.91,-333.69 104.31,-322.36 94.5,-305 85.95,-289.89 96.05,-271.81 106.6,-258.81"/>
<polygon fill="#63b8ff" stroke="#63b8ff" points="109.08,-261.3 113.1,-251.49 103.84,-256.65 109.08,-261.3"/>
</g>
<!-- Node4 -->
<g id="node4" class="node">
<title>Node4</title>
<g id="a_node4"><a xlink:title=" ">
<polygon fill="#e0e0e0" stroke="#999999" points="300.5,-19 252.5,-19 252.5,0 300.5,0 300.5,-19"/>
<text text-anchor="middle" x="276.5" y="-7" font-family="Helvetica,sans-Serif" font-size="10.00">stdint.h</text>
</a>
</g>
</g>
<!-- Node1&#45;&gt;Node4 -->
<g id="edge21" class="edge">
<title>Node1&#45;&gt;Node4</title>
<path fill="none" stroke="#63b8ff" d="M172.94,-340.51C181.51,-322.29 199.5,-279.54 199.5,-241.5 199.5,-241.5 199.5,-241.5 199.5,-118.5 199.5,-79.84 232.61,-45.44 255.41,-26.34"/>
<polygon fill="#63b8ff" stroke="#63b8ff" points="257.34,-29.28 262.95,-20.29 252.96,-23.82 257.34,-29.28"/>
</g>
<!-- Node5 -->
<g id="node5" class="node">
<title>Node5</title>
<g id="a_node5"><a xlink:href="audio__dec_8h.html" target="_top" xlink:title="The audio decoder interface for the libmsx audio replayer.">
<polygon fill="white" stroke="#666666" points="171.5,-305 103.5,-305 103.5,-286 171.5,-286 171.5,-305"/>
<text text-anchor="middle" x="137.5" y="-293" font-family="Helvetica,sans-Serif" font-size="10.00">audio_dec.h</text>
</a>
</g>
</g>
<!-- Node1&#45;&gt;Node5 -->
<g id="edge4" class="edge">
<title>Node1&#45;&gt;Node5</title>
<path fill="none" stroke="#63b8ff" d="M163.38,-340.75C159.32,-333.81 153.51,-323.86 148.41,-315.16"/>
<polygon fill="#63b8ff" stroke="#63b8ff" points="151.56,-313.61 143.49,-306.75 145.52,-317.15 151.56,-313.61"/>
</g>
<!-- Node6 -->
<g id="node6" class="node">
<title>Node6</title>
<g id="a_node6"><a xlink:href="memfile_8h.html" target="_top" xlink:title="Stream interface for ROM / RAM / MegaROM.">
<polygon fill="white" stroke="#666666" points="285.5,-305 227.5,-305 227.5,-286 285.5,-286 285.5,-305"/>
<text text-anchor="middle" x="256.5" y="-293" font-family="Helvetica,sans-Serif" font-size="10.00">memfile.h</text>
</a>
</g>
</g>
<!-- Node1&#45;&gt;Node6 -->
<g id="edge6" class="edge">
<title>Node1&#45;&gt;Node6</title>
<path fill="none" stroke="#63b8ff" d="M183.43,-340.51C196.78,-332.47 216.61,-320.53 232.24,-311.11"/>
<polygon fill="#63b8ff" stroke="#63b8ff" points="233.74,-314.3 240.5,-306.14 230.12,-308.3 233.74,-314.3"/>
</g>
<!-- Node9 -->
<g id="node9" class="node">
<title>Node9</title>
<g id="a_node9"><a xlink:title=" ">
<polygon fill="#e0e0e0" stroke="#999999" points="356,-129 305,-129 305,-110 356,-110 356,-129"/>
<text text-anchor="middle" x="330.5" y="-117" font-family="Helvetica,sans-Serif" font-size="10.00">stddef.h</text>
</a>
</g>
</g>
<!-- Node1&#45;&gt;Node9 -->
<g id="edge22" class="edge">
<title>Node1&#45;&gt;Node9</title>
<path fill="none" stroke="#63b8ff" d="M204.45,-343.4C231.5,-337.35 268.26,-325.86 294.5,-305 339.86,-268.93 348.3,-250.64 364.5,-195 368.23,-182.2 368.77,-177.63 364.5,-165 361.09,-154.92 354.38,-145.32 347.81,-137.64"/>
<polygon fill="#63b8ff" stroke="#63b8ff" points="350.49,-135.38 341.13,-130.42 345.36,-140.14 350.49,-135.38"/>
</g>
<!-- Node2&#45;&gt;Node3 -->
<g id="edge2" class="edge">
<title>Node2&#45;&gt;Node3</title>
<path fill="none" stroke="#63b8ff" d="M40.46,-285.51C55.86,-277.35 78.81,-265.19 96.69,-255.71"/>
<polygon fill="#63b8ff" stroke="#63b8ff" points="98.25,-258.84 105.45,-251.07 94.97,-252.66 98.25,-258.84"/>
</g>
<!-- Node2&#45;&gt;Node4 -->
<g id="edge3" class="edge">
<title>Node2&#45;&gt;Node4</title>
<path fill="none" stroke="#63b8ff" d="M25.46,-285.72C29.53,-266.73 38.5,-220.35 38.5,-181 38.5,-181 38.5,-181 38.5,-118.5 38.5,-30.54 174.98,-13.86 241.24,-10.95"/>
<polygon fill="#63b8ff" stroke="#63b8ff" points="240.98,-14.46 250.86,-10.62 240.74,-7.47 240.98,-14.46"/>
</g>
<!-- Node5&#45;&gt;Node3 -->
<g id="edge5" class="edge">
<title>Node5&#45;&gt;Node3</title>
<path fill="none" stroke="#63b8ff" d="M135.19,-285.75C133.44,-279.11 130.96,-269.73 128.73,-261.31"/>
<polygon fill="#63b8ff" stroke="#63b8ff" points="132.19,-260.68 126.25,-251.91 125.42,-262.47 132.19,-260.68"/>
</g>
<!-- Node6&#45;&gt;Node3 -->
<g id="edge15" class="edge">
<title>Node6&#45;&gt;Node3</title>
<path fill="none" stroke="#63b8ff" d="M233.94,-285.51C212.6,-277.01 180.34,-264.15 156.19,-254.53"/>
<polygon fill="#63b8ff" stroke="#63b8ff" points="157.72,-251.37 147.13,-250.92 155.13,-257.87 157.72,-251.37"/>
</g>
<!-- Node6&#45;&gt;Node4 -->
<g id="edge16" class="edge">
<title>Node6&#45;&gt;Node4</title>
<path fill="none" stroke="#63b8ff" d="M254.02,-285.75C248.87,-266.82 237.5,-220.56 237.5,-181 237.5,-181 237.5,-181 237.5,-118.5 237.5,-85.55 253.76,-50.12 265.28,-29.16"/>
<polygon fill="#63b8ff" stroke="#63b8ff" points="268.21,-31.08 270.16,-20.66 262.14,-27.59 268.21,-31.08"/>
</g>
<!-- Node7 -->
<g id="node7" class="node">
<title>Node7</title>
<g id="a_node7"><a xlink:href="bmem_8h.html" target="_top" xlink:title="Data types and functions for accessing banked memory.">
<polygon fill="white" stroke="#666666" points="463,-250 412,-250 412,-231 463,-231 463,-250"/>
<text text-anchor="middle" x="437.5" y="-238" font-family="Helvetica,sans-Serif" font-size="10.00">bmem.h</text>
</a>
</g>
</g>
<!-- Node6&#45;&gt;Node7 -->
<g id="edge7" class="edge">
<title>Node6&#45;&gt;Node7</title>
<path fill="none" stroke="#63b8ff" d="M285.98,-285.87C317.3,-276.7 366.87,-262.18 400.72,-252.27"/>
<polygon fill="#63b8ff" stroke="#63b8ff" points="401.49,-255.69 410.1,-249.52 399.52,-248.97 401.49,-255.69"/>
</g>
<!-- Node12 -->
<g id="node12" class="node">
<title>Node12</title>
<g id="a_node12"><a xlink:href="memfile__types_8h.html" target="_top" xlink:title=" ">
<polygon fill="white" stroke="#666666" points="355.5,-195 265.5,-195 265.5,-165 355.5,-165 355.5,-195"/>
<text text-anchor="start" x="273.5" y="-183" font-family="Helvetica,sans-Serif" font-size="10.00">./internal/memfile</text>
<text text-anchor="middle" x="310.5" y="-172" font-family="Helvetica,sans-Serif" font-size="10.00">_types.h</text>
</a>
</g>
</g>
<!-- Node6&#45;&gt;Node12 -->
<g id="edge17" class="edge">
<title>Node6&#45;&gt;Node12</title>
<path fill="none" stroke="#63b8ff" d="M260.74,-285.59C268.84,-268.57 286.78,-230.86 298.76,-205.69"/>
<polygon fill="#63b8ff" stroke="#63b8ff" points="301.84,-207.34 302.98,-196.81 295.52,-204.33 301.84,-207.34"/>
</g>
<!-- Node7&#45;&gt;Node4 -->
<g id="edge8" class="edge">
<title>Node7&#45;&gt;Node4</title>
<path fill="none" stroke="#63b8ff" d="M447.11,-230.69C455.37,-222.41 466.7,-209.18 471.5,-195 491.44,-136.06 510.3,-103.65 471.5,-55 451.96,-30.49 363.01,-18.42 312.26,-13.43"/>
<polygon fill="#63b8ff" stroke="#63b8ff" points="312.63,-9.95 302.35,-12.51 311.98,-16.92 312.63,-9.95"/>
</g>
<!-- Node8 -->
<g id="node8" class="node">
<title>Node8</title>
<g id="a_node8"><a xlink:href="vmem_8h.html" target="_top" xlink:title="Data types and functions for VRAM access.">
<polygon fill="white" stroke="#666666" points="463,-189.5 412,-189.5 412,-170.5 463,-170.5 463,-189.5"/>
<text text-anchor="middle" x="437.5" y="-177.5" font-family="Helvetica,sans-Serif" font-size="10.00">vmem.h</text>
</a>
</g>
</g>
<!-- Node7&#45;&gt;Node8 -->
<g id="edge9" class="edge">
<title>Node7&#45;&gt;Node8</title>
<path fill="none" stroke="#63b8ff" d="M437.5,-230.87C437.5,-223 437.5,-211.1 437.5,-200.89"/>
<polygon fill="#63b8ff" stroke="#63b8ff" points="441,-201.18 437.5,-191.18 434,-201.18 441,-201.18"/>
</g>
<!-- Node8&#45;&gt;Node4 -->
<g id="edge10" class="edge">
<title>Node8&#45;&gt;Node4</title>
<path fill="none" stroke="#63b8ff" d="M429.29,-170.41C403.89,-143.83 326.23,-62.55 292.46,-27.21"/>
<polygon fill="#63b8ff" stroke="#63b8ff" points="295.37,-25.18 285.93,-20.37 290.31,-30.01 295.37,-25.18"/>
</g>
<!-- Node8&#45;&gt;Node9 -->
<g id="edge11" class="edge">
<title>Node8&#45;&gt;Node9</title>
<path fill="none" stroke="#63b8ff" d="M421.25,-170.12C404.2,-160.79 377.14,-146 356.99,-134.99"/>
<polygon fill="#63b8ff" stroke="#63b8ff" points="358.69,-131.92 348.23,-130.19 355.33,-138.06 358.69,-131.92"/>
</g>
<!-- Node10 -->
<g id="node10" class="node">
<title>Node10</title>
<g id="a_node10"><a xlink:href="io_8h.html" target="_top" xlink:title="Definition of I/O ports.">
<polygon fill="white" stroke="#666666" points="453.5,-129 421.5,-129 421.5,-110 453.5,-110 453.5,-129"/>
<text text-anchor="middle" x="437.5" y="-117" font-family="Helvetica,sans-Serif" font-size="10.00">io.h</text>
</a>
</g>
</g>
<!-- Node8&#45;&gt;Node10 -->
<g id="edge12" class="edge">
<title>Node8&#45;&gt;Node10</title>
<path fill="none" stroke="#63b8ff" d="M437.5,-170.37C437.5,-162.5 437.5,-150.6 437.5,-140.39"/>
<polygon fill="#63b8ff" stroke="#63b8ff" points="441,-140.68 437.5,-130.68 434,-140.68 441,-140.68"/>
</g>
<!-- Node11 -->
<g id="node11" class="node">
<title>Node11</title>
<g id="a_node11"><a xlink:href="config_8h.html" target="_top" xlink:title="Hack for C Compiler portability.">
<polygon fill="white" stroke="#666666" points="462.5,-74 412.5,-74 412.5,-55 462.5,-55 462.5,-74"/>
<text text-anchor="middle" x="437.5" y="-62" font-family="Helvetica,sans-Serif" font-size="10.00">config.h</text>
</a>
</g>
</g>
<!-- Node10&#45;&gt;Node11 -->
<g id="edge13" class="edge">
<title>Node10&#45;&gt;Node11</title>
<path fill="none" stroke="#63b8ff" d="M437.5,-109.75C437.5,-103.27 437.5,-94.16 437.5,-85.9"/>
<polygon fill="#63b8ff" stroke="#63b8ff" points="441,-85.96 437.5,-75.96 434,-85.96 441,-85.96"/>
</g>
<!-- Node11&#45;&gt;Node4 -->
<g id="edge14" class="edge">
<title>Node11&#45;&gt;Node4</title>
<path fill="none" stroke="#63b8ff" d="M412.34,-55.22C385.25,-46.3 341.94,-32.04 311.52,-22.03"/>
<polygon fill="#63b8ff" stroke="#63b8ff" points="312.98,-18.83 302.39,-19.02 310.79,-25.47 312.98,-18.83"/>
</g>
<!-- Node12&#45;&gt;Node4 -->
<g id="edge18" class="edge">
<title>Node12&#45;&gt;Node4</title>
<path fill="none" stroke="#63b8ff" d="M305.66,-164.69C302.43,-154.77 298.29,-141.19 295.5,-129 287.69,-94.9 281.95,-54.55 278.93,-30.83"/>
<polygon fill="#63b8ff" stroke="#63b8ff" points="282.41,-30.5 277.71,-21 275.46,-31.35 282.41,-30.5"/>
</g>
<!-- Node12&#45;&gt;Node9 -->
<g id="edge19" class="edge">
<title>Node12&#45;&gt;Node9</title>
<path fill="none" stroke="#63b8ff" d="M315.44,-164.54C317.99,-157.08 321.14,-147.89 323.89,-139.83"/>
<polygon fill="#63b8ff" stroke="#63b8ff" points="327.12,-141.2 327.04,-130.61 320.5,-138.94 327.12,-141.2"/>
</g>
</g>
</svg>
