<?xml version="1.0" encoding="UTF-8" standalone="no"?>
<!DOCTYPE svg PUBLIC "-//W3C//DTD SVG 1.1//EN"
 "http://www.w3.org/Graphics/SVG/1.1/DTD/svg11.dtd">
<!-- Generated by graphviz version 12.2.0 (20241103.1931)
 -->
<!-- Title: include/mem_rw.h Pages: 1 -->
<svg width="197pt" height="83pt"
 viewBox="0.00 0.00 197.25 82.50" xmlns="http://www.w3.org/2000/svg" xmlns:xlink="http://www.w3.org/1999/xlink">
<g id="graph0" class="graph" transform="scale(1 1) rotate(0) translate(4 78.5)">
<title>include/mem_rw.h</title>
<!-- Node1 -->
<g id="Node000001" class="node">
<title>Node1</title>
<g id="a_Node000001"><a xlink:title="Stream like access functions for ROM / RAM.">
<polygon fill="#999999" stroke="#666666" points="145.88,-74.5 51.12,-74.5 51.12,-55.25 145.88,-55.25 145.88,-74.5"/>
<text text-anchor="middle" x="98.5" y="-61" font-family="Helvetica,sans-Serif" font-size="10.00">include/mem_rw.h</text>
</a>
</g>
</g>
<!-- Node2 -->
<g id="Node000002" class="node">
<title>Node2</title>
<g id="a_Node000002"><a xlink:title=" ">
<polygon fill="#e0e0e0" stroke="#999999" points="55,-19.25 0,-19.25 0,0 55,0 55,-19.25"/>
<text text-anchor="middle" x="27.5" y="-5.75" font-family="Helvetica,sans-Serif" font-size="10.00">stdbool.h</text>
</a>
</g>
</g>
<!-- Node1&#45;&gt;Node2 -->
<g id="edge1_Node000001_Node000002" class="edge">
<title>Node1&#45;&gt;Node2</title>
<g id="a_edge1_Node000001_Node000002"><a xlink:title=" ">
<path fill="none" stroke="#63b8ff" d="M86.46,-54.84C76.09,-47.07 60.9,-35.67 48.53,-26.4"/>
<polygon fill="#63b8ff" stroke="#63b8ff" points="50.68,-23.63 40.58,-20.43 46.48,-29.23 50.68,-23.63"/>
</a>
</g>
</g>
<!-- Node3 -->
<g id="Node000003" class="node">
<title>Node3</title>
<g id="a_Node000003"><a xlink:title=" ">
<polygon fill="#e0e0e0" stroke="#999999" points="123.75,-19.25 73.25,-19.25 73.25,0 123.75,0 123.75,-19.25"/>
<text text-anchor="middle" x="98.5" y="-5.75" font-family="Helvetica,sans-Serif" font-size="10.00">stddef.h</text>
</a>
</g>
</g>
<!-- Node1&#45;&gt;Node3 -->
<g id="edge2_Node000001_Node000003" class="edge">
<title>Node1&#45;&gt;Node3</title>
<g id="a_edge2_Node000001_Node000003"><a xlink:title=" ">
<path fill="none" stroke="#63b8ff" d="M98.5,-55.08C98.5,-48.57 98.5,-39.42 98.5,-31.12"/>
<polygon fill="#63b8ff" stroke="#63b8ff" points="102,-31.12 98.5,-21.12 95,-31.12 102,-31.12"/>
</a>
</g>
</g>
<!-- Node4 -->
<g id="Node000004" class="node">
<title>Node4</title>
<g id="a_Node000004"><a xlink:title=" ">
<polygon fill="#e0e0e0" stroke="#999999" points="189.25,-19.25 141.75,-19.25 141.75,0 189.25,0 189.25,-19.25"/>
<text text-anchor="middle" x="165.5" y="-5.75" font-family="Helvetica,sans-Serif" font-size="10.00">stdint.h</text>
</a>
</g>
</g>
<!-- Node1&#45;&gt;Node4 -->
<g id="edge3_Node000001_Node000004" class="edge">
<title>Node1&#45;&gt;Node4</title>
<g id="a_edge3_Node000001_Node000004"><a xlink:title=" ">
<path fill="none" stroke="#63b8ff" d="M109.87,-54.84C119.55,-47.15 133.7,-35.9 145.31,-26.68"/>
<polygon fill="#63b8ff" stroke="#63b8ff" points="147.47,-29.43 153.12,-20.47 143.11,-23.95 147.47,-29.43"/>
</a>
</g>
</g>
</g>
</svg>
