<?xml version="1.0" encoding="UTF-8" standalone="no"?>
<!DOCTYPE svg PUBLIC "-//W3C//DTD SVG 1.1//EN"
 "http://www.w3.org/Graphics/SVG/1.1/DTD/svg11.dtd">
<!-- Generated by graphviz version 7.0.5 (20221223.1930)
 -->
<!-- Title: include/internal/memfile_types.h Pages: 1 -->
<svg width="127pt" height="93pt"
 viewBox="0.00 0.00 127.00 93.00" xmlns="http://www.w3.org/2000/svg" xmlns:xlink="http://www.w3.org/1999/xlink">
<g id="graph0" class="graph" transform="scale(1 1) rotate(0) translate(4 89)">
<title>include/internal/memfile_types.h</title>
<!-- Node1 -->
<g id="node1" class="node">
<title>Node1</title>
<g id="a_node1"><a xlink:title=" ">
<polygon fill="#999999" stroke="#666666" points="119,-85 0,-85 0,-55 119,-55 119,-85"/>
<text text-anchor="start" x="8" y="-73" font-family="Helvetica,sans-Serif" font-size="10.00">include/internal/memfile</text>
<text text-anchor="middle" x="59.5" y="-62" font-family="Helvetica,sans-Serif" font-size="10.00">_types.h</text>
</a>
</g>
</g>
<!-- Node2 -->
<g id="node2" class="node">
<title>Node2</title>
<g id="a_node2"><a xlink:title=" ">
<polygon fill="#e0e0e0" stroke="#999999" points="49.5,-19 1.5,-19 1.5,0 49.5,0 49.5,-19"/>
<text text-anchor="middle" x="25.5" y="-7" font-family="Helvetica,sans-Serif" font-size="10.00">stdint.h</text>
</a>
</g>
</g>
<!-- Node1&#45;&gt;Node2 -->
<g id="edge1" class="edge">
<title>Node1&#45;&gt;Node2</title>
<path fill="none" stroke="#63b8ff" d="M51.1,-54.54C46.61,-46.82 41.04,-37.24 36.25,-28.99"/>
<polygon fill="#63b8ff" stroke="#63b8ff" points="39.35,-27.37 31.3,-20.48 33.3,-30.89 39.35,-27.37"/>
</g>
<!-- Node3 -->
<g id="node3" class="node">
<title>Node3</title>
<g id="a_node3"><a xlink:title=" ">
<polygon fill="#e0e0e0" stroke="#999999" points="119,-19 68,-19 68,0 119,0 119,-19"/>
<text text-anchor="middle" x="93.5" y="-7" font-family="Helvetica,sans-Serif" font-size="10.00">stddef.h</text>
</a>
</g>
</g>
<!-- Node1&#45;&gt;Node3 -->
<g id="edge2" class="edge">
<title>Node1&#45;&gt;Node3</title>
<path fill="none" stroke="#63b8ff" d="M67.9,-54.54C72.39,-46.82 77.96,-37.24 82.75,-28.99"/>
<polygon fill="#63b8ff" stroke="#63b8ff" points="85.7,-30.89 87.7,-20.48 79.65,-27.37 85.7,-30.89"/>
</g>
</g>
</svg>
