<?xml version="1.0" encoding="UTF-8" standalone="no"?>
<!DOCTYPE svg PUBLIC "-//W3C//DTD SVG 1.1//EN"
 "http://www.w3.org/Graphics/SVG/1.1/DTD/svg11.dtd">
<!-- Generated by graphviz version 12.2.0 (20241103.1931)
 -->
<!-- Title: include/memfile.h Pages: 1 -->
<svg width="292pt" height="83pt"
 viewBox="0.00 0.00 292.12 82.50" xmlns="http://www.w3.org/2000/svg" xmlns:xlink="http://www.w3.org/1999/xlink">
<g id="graph0" class="graph" transform="scale(1 1) rotate(0) translate(4 78.5)">
<title>include/memfile.h</title>
<!-- Node1 -->
<g id="Node000001" class="node">
<title>Node1</title>
<g id="a_Node000001"><a xlink:title="Stream interface for ROM / RAM / MegaROM.">
<polygon fill="#999999" stroke="#666666" points="191.62,-74.5 100.62,-74.5 100.62,-55.25 191.62,-55.25 191.62,-74.5"/>
<text text-anchor="middle" x="146.12" y="-61" font-family="Helvetica,sans-Serif" font-size="10.00">include/memfile.h</text>
</a>
</g>
</g>
<!-- Node2 -->
<g id="Node000002" class="node">
<title>Node2</title>
<g id="a_Node000002"><a xlink:href="NDP_8h.html" target="_top" xlink:title="NDP &#45; NDP sound driver.">
<polygon fill="white" stroke="#666666" points="78.25,-19.25 0,-19.25 0,0 78.25,0 78.25,-19.25"/>
<text text-anchor="middle" x="39.12" y="-5.75" font-family="Helvetica,sans-Serif" font-size="10.00">include/NDP.h</text>
</a>
</g>
</g>
<!-- Node1&#45;&gt;Node2 -->
<g id="edge1_Node000001_Node000002" class="edge">
<title>Node1&#45;&gt;Node2</title>
<g id="a_edge1_Node000001_Node000002"><a xlink:title=" ">
<path fill="none" stroke="#63b8ff" d="M117.73,-49.74C98.59,-40.22 73.92,-27.94 57.37,-19.7"/>
<polygon fill="#63b8ff" stroke="#63b8ff" points="116.11,-52.85 126.62,-54.17 119.23,-46.58 116.11,-52.85"/>
</a>
</g>
</g>
<!-- Node3 -->
<g id="Node000003" class="node">
<title>Node3</title>
<g id="a_Node000003"><a xlink:href="audio__buf_8h.html" target="_top" xlink:title="Unified sound&#45;chip buffer of the libmsx audio replayer.">
<polygon fill="white" stroke="#666666" points="195.75,-19.25 96.5,-19.25 96.5,0 195.75,0 195.75,-19.25"/>
<text text-anchor="middle" x="146.12" y="-5.75" font-family="Helvetica,sans-Serif" font-size="10.00">include/audio_buf.h</text>
</a>
</g>
</g>
<!-- Node1&#45;&gt;Node3 -->
<g id="edge2_Node000001_Node000003" class="edge">
<title>Node1&#45;&gt;Node3</title>
<g id="a_edge2_Node000001_Node000003"><a xlink:title=" ">
<path fill="none" stroke="#63b8ff" d="M146.12,-43.63C146.12,-35.34 146.12,-26.17 146.12,-19.61"/>
<polygon fill="#63b8ff" stroke="#63b8ff" points="142.63,-43.57 146.13,-53.57 149.63,-43.57 142.63,-43.57"/>
</a>
</g>
</g>
<!-- Node4 -->
<g id="Node000004" class="node">
<title>Node4</title>
<g id="a_Node000004"><a xlink:href="la0_8h.html" target="_top" xlink:title="The libmsx audio format 0 (LA0) decoder.">
<polygon fill="white" stroke="#666666" points="284.12,-19.25 214.12,-19.25 214.12,0 284.12,0 284.12,-19.25"/>
<text text-anchor="middle" x="249.12" y="-5.75" font-family="Helvetica,sans-Serif" font-size="10.00">include/la0.h</text>
</a>
</g>
</g>
<!-- Node1&#45;&gt;Node4 -->
<g id="edge3_Node000001_Node000004" class="edge">
<title>Node1&#45;&gt;Node4</title>
<g id="a_edge3_Node000001_Node000004"><a xlink:title=" ">
<path fill="none" stroke="#63b8ff" d="M173.72,-49.61C192.1,-40.11 215.71,-27.9 231.57,-19.7"/>
<polygon fill="#63b8ff" stroke="#63b8ff" points="172.22,-46.45 164.94,-54.15 175.43,-52.66 172.22,-46.45"/>
</a>
</g>
</g>
</g>
</svg>
