<?xml version="1.0" encoding="UTF-8" standalone="no"?>
<!DOCTYPE svg PUBLIC "-//W3C//DTD SVG 1.1//EN"
 "http://www.w3.org/Graphics/SVG/1.1/DTD/svg11.dtd">
<!-- Generated by graphviz version 7.0.5 (20221223.1930)
 -->
<!-- Title: include/memfile.h Pages: 1 -->
<svg width="234pt" height="313pt"
 viewBox="0.00 0.00 234.00 313.00" xmlns="http://www.w3.org/2000/svg" xmlns:xlink="http://www.w3.org/1999/xlink">
<g id="graph0" class="graph" transform="scale(1 1) rotate(0) translate(4 309)">
<title>include/memfile.h</title>
<!-- Node1 -->
<g id="node1" class="node">
<title>Node1</title>
<g id="a_node1"><a xlink:title="Stream interface for ROM / RAM / MegaROM.">
<polygon fill="#999999" stroke="#666666" points="146,-305 54,-305 54,-286 146,-286 146,-305"/>
<text text-anchor="middle" x="100" y="-293" font-family="Helvetica,sans-Serif" font-size="10.00">include/memfile.h</text>
</a>
</g>
</g>
<!-- Node2 -->
<g id="node2" class="node">
<title>Node2</title>
<g id="a_node2"><a xlink:href="bmem_8h.html" target="_top" xlink:title="Data types and functions for accessing banked memory.">
<polygon fill="white" stroke="#666666" points="98.5,-250 47.5,-250 47.5,-231 98.5,-231 98.5,-250"/>
<text text-anchor="middle" x="73" y="-238" font-family="Helvetica,sans-Serif" font-size="10.00">bmem.h</text>
</a>
</g>
</g>
<!-- Node1&#45;&gt;Node2 -->
<g id="edge1" class="edge">
<title>Node1&#45;&gt;Node2</title>
<path fill="none" stroke="#63b8ff" d="M95.54,-285.75C92.05,-278.88 87.05,-269.08 82.65,-260.45"/>
<polygon fill="#63b8ff" stroke="#63b8ff" points="85.9,-259.11 78.24,-251.79 79.66,-262.29 85.9,-259.11"/>
</g>
<!-- Node3 -->
<g id="node3" class="node">
<title>Node3</title>
<g id="a_node3"><a xlink:title=" ">
<polygon fill="#e0e0e0" stroke="#999999" points="100,-19 52,-19 52,0 100,0 100,-19"/>
<text text-anchor="middle" x="76" y="-7" font-family="Helvetica,sans-Serif" font-size="10.00">stdint.h</text>
</a>
</g>
</g>
<!-- Node1&#45;&gt;Node3 -->
<g id="edge10" class="edge">
<title>Node1&#45;&gt;Node3</title>
<path fill="none" stroke="#63b8ff" d="M83.49,-285.71C55.08,-269.25 0,-230.9 0,-181 0,-181 0,-181 0,-118.5 0,-80.18 32.39,-45.87 54.88,-26.66"/>
<polygon fill="#63b8ff" stroke="#63b8ff" points="57.09,-29.38 62.62,-20.34 52.66,-23.95 57.09,-29.38"/>
</g>
<!-- Node8 -->
<g id="node8" class="node">
<title>Node8</title>
<g id="a_node8"><a xlink:title=" ">
<polygon fill="#e0e0e0" stroke="#999999" points="211,-250 155,-250 155,-231 211,-231 211,-250"/>
<text text-anchor="middle" x="183" y="-238" font-family="Helvetica,sans-Serif" font-size="10.00">stdbool.h</text>
</a>
</g>
</g>
<!-- Node1&#45;&gt;Node8 -->
<g id="edge9" class="edge">
<title>Node1&#45;&gt;Node8</title>
<path fill="none" stroke="#63b8ff" d="M114.08,-285.51C126.56,-277.54 145.02,-265.75 159.69,-256.38"/>
<polygon fill="#63b8ff" stroke="#63b8ff" points="161.31,-259.5 167.85,-251.17 157.54,-253.6 161.31,-259.5"/>
</g>
<!-- Node9 -->
<g id="node9" class="node">
<title>Node9</title>
<g id="a_node9"><a xlink:href="memfile__types_8h.html" target="_top" xlink:title=" ">
<polygon fill="white" stroke="#666666" points="226,-195 136,-195 136,-165 226,-165 226,-195"/>
<text text-anchor="start" x="144" y="-183" font-family="Helvetica,sans-Serif" font-size="10.00">./internal/memfile</text>
<text text-anchor="middle" x="181" y="-172" font-family="Helvetica,sans-Serif" font-size="10.00">_types.h</text>
</a>
</g>
</g>
<!-- Node1&#45;&gt;Node9 -->
<g id="edge11" class="edge">
<title>Node1&#45;&gt;Node9</title>
<path fill="none" stroke="#63b8ff" d="M106.36,-285.59C118.67,-268.34 146.14,-229.84 164.1,-204.68"/>
<polygon fill="#63b8ff" stroke="#63b8ff" points="166.86,-206.84 169.82,-196.67 161.16,-202.78 166.86,-206.84"/>
</g>
<!-- Node2&#45;&gt;Node3 -->
<g id="edge2" class="edge">
<title>Node2&#45;&gt;Node3</title>
<path fill="none" stroke="#63b8ff" d="M68.74,-230.55C64.8,-221.73 59.23,-207.78 57,-195 46.65,-135.65 61.58,-64.5 70.36,-30.5"/>
<polygon fill="#63b8ff" stroke="#63b8ff" points="73.74,-31.42 72.97,-20.86 66.98,-29.6 73.74,-31.42"/>
</g>
<!-- Node4 -->
<g id="node4" class="node">
<title>Node4</title>
<g id="a_node4"><a xlink:href="vmem_8h.html" target="_top" xlink:title="Data types and functions for VRAM access.">
<polygon fill="white" stroke="#666666" points="117.5,-189.5 66.5,-189.5 66.5,-170.5 117.5,-170.5 117.5,-189.5"/>
<text text-anchor="middle" x="92" y="-177.5" font-family="Helvetica,sans-Serif" font-size="10.00">vmem.h</text>
</a>
</g>
</g>
<!-- Node2&#45;&gt;Node4 -->
<g id="edge3" class="edge">
<title>Node2&#45;&gt;Node4</title>
<path fill="none" stroke="#63b8ff" d="M75.8,-230.87C78.39,-222.92 82.31,-210.83 85.65,-200.55"/>
<polygon fill="#63b8ff" stroke="#63b8ff" points="88.96,-201.7 88.72,-191.11 82.3,-199.54 88.96,-201.7"/>
</g>
<!-- Node4&#45;&gt;Node3 -->
<g id="edge4" class="edge">
<title>Node4&#45;&gt;Node3</title>
<path fill="none" stroke="#63b8ff" d="M91.18,-170.41C88.74,-144.62 81.4,-67.32 77.9,-30.47"/>
<polygon fill="#63b8ff" stroke="#63b8ff" points="81.41,-30.4 76.98,-20.78 74.44,-31.07 81.41,-30.4"/>
</g>
<!-- Node5 -->
<g id="node5" class="node">
<title>Node5</title>
<g id="a_node5"><a xlink:title=" ">
<polygon fill="#e0e0e0" stroke="#999999" points="205.5,-129 154.5,-129 154.5,-110 205.5,-110 205.5,-129"/>
<text text-anchor="middle" x="180" y="-117" font-family="Helvetica,sans-Serif" font-size="10.00">stddef.h</text>
</a>
</g>
</g>
<!-- Node4&#45;&gt;Node5 -->
<g id="edge5" class="edge">
<title>Node4&#45;&gt;Node5</title>
<path fill="none" stroke="#63b8ff" d="M105.37,-170.12C119.06,-161.01 140.62,-146.68 157.06,-135.75"/>
<polygon fill="#63b8ff" stroke="#63b8ff" points="158.86,-138.76 165.25,-130.31 154.98,-132.93 158.86,-138.76"/>
</g>
<!-- Node6 -->
<g id="node6" class="node">
<title>Node6</title>
<g id="a_node6"><a xlink:href="io_8h.html" target="_top" xlink:title="Definition of I/O ports.">
<polygon fill="white" stroke="#666666" points="136,-129 104,-129 104,-110 136,-110 136,-129"/>
<text text-anchor="middle" x="120" y="-117" font-family="Helvetica,sans-Serif" font-size="10.00">io.h</text>
</a>
</g>
</g>
<!-- Node4&#45;&gt;Node6 -->
<g id="edge6" class="edge">
<title>Node4&#45;&gt;Node6</title>
<path fill="none" stroke="#63b8ff" d="M96.13,-170.37C100.02,-162.25 105.97,-149.81 110.96,-139.39"/>
<polygon fill="#63b8ff" stroke="#63b8ff" points="114.04,-141.06 115.2,-130.53 107.72,-138.04 114.04,-141.06"/>
</g>
<!-- Node7 -->
<g id="node7" class="node">
<title>Node7</title>
<g id="a_node7"><a xlink:href="config_8h.html" target="_top" xlink:title="Hack for C Compiler portability.">
<polygon fill="white" stroke="#666666" points="154,-74 104,-74 104,-55 154,-55 154,-74"/>
<text text-anchor="middle" x="129" y="-62" font-family="Helvetica,sans-Serif" font-size="10.00">config.h</text>
</a>
</g>
</g>
<!-- Node6&#45;&gt;Node7 -->
<g id="edge7" class="edge">
<title>Node6&#45;&gt;Node7</title>
<path fill="none" stroke="#63b8ff" d="M121.49,-109.75C122.6,-103.19 124.17,-93.95 125.59,-85.6"/>
<polygon fill="#63b8ff" stroke="#63b8ff" points="129,-86.38 127.23,-75.93 122.1,-85.21 129,-86.38"/>
</g>
<!-- Node7&#45;&gt;Node3 -->
<g id="edge8" class="edge">
<title>Node7&#45;&gt;Node3</title>
<path fill="none" stroke="#63b8ff" d="M120.25,-54.75C112.85,-47.35 102.04,-36.54 92.95,-27.45"/>
<polygon fill="#63b8ff" stroke="#63b8ff" points="95.56,-25.11 86.01,-20.51 90.61,-30.06 95.56,-25.11"/>
</g>
<!-- Node9&#45;&gt;Node3 -->
<g id="edge12" class="edge">
<title>Node9&#45;&gt;Node3</title>
<path fill="none" stroke="#63b8ff" d="M196.04,-164.5C208.39,-150.75 222.7,-129.36 215,-110 197.1,-65.02 145.58,-36.96 110.54,-22.52"/>
<polygon fill="#63b8ff" stroke="#63b8ff" points="112.25,-19.44 101.67,-19.03 109.69,-25.95 112.25,-19.44"/>
</g>
<!-- Node9&#45;&gt;Node5 -->
<g id="edge13" class="edge">
<title>Node9&#45;&gt;Node5</title>
<path fill="none" stroke="#63b8ff" d="M180.75,-164.54C180.63,-157.34 180.48,-148.53 180.34,-140.68"/>
<polygon fill="#63b8ff" stroke="#63b8ff" points="183.84,-140.63 180.17,-130.69 176.85,-140.75 183.84,-140.63"/>
</g>
</g>
</svg>
