<?xml version="1.0" encoding="UTF-8" standalone="no"?>
<!DOCTYPE svg PUBLIC "-//W3C//DTD SVG 1.1//EN"
 "http://www.w3.org/Graphics/SVG/1.1/DTD/svg11.dtd">
<!-- Generated by graphviz version 3.0.0 (20221109.1736)
 -->
<!-- Title: include/metasprite.h Pages: 1 -->
<svg width="582pt" height="308pt"
 viewBox="0.00 0.00 582.00 308.00" xmlns="http://www.w3.org/2000/svg" xmlns:xlink="http://www.w3.org/1999/xlink">
<g id="graph0" class="graph" transform="scale(1 1) rotate(0) translate(4 304)">
<title>include/metasprite.h</title>
<!-- Node1 -->
<g id="node1" class="node">
<title>Node1</title>
<g id="a_node1"><a xlink:title="Meta&#45;sprite ; an aggregate of sprites.">
<polygon fill="#bfbfbf" stroke="black" points="33,-280.5 33,-299.5 137,-299.5 137,-280.5 33,-280.5"/>
<text text-anchor="middle" x="85" y="-287.5" font-family="Helvetica,sans-Serif" font-size="10.00">include/metasprite.h</text>
</a>
</g>
</g>
<!-- Node2 -->
<g id="node2" class="node">
<title>Node2</title>
<g id="a_node2"><a xlink:title=" ">
<polygon fill="none" stroke="#bfbfbf" points="194,-0.5 194,-19.5 242,-19.5 242,-0.5 194,-0.5"/>
<text text-anchor="middle" x="218" y="-7.5" font-family="Helvetica,sans-Serif" font-size="10.00">stdint.h</text>
</a>
</g>
</g>
<!-- Node1&#45;&gt;Node2 -->
<g id="edge1" class="edge">
<title>Node1&#45;&gt;Node2</title>
<path fill="none" stroke="midnightblue" d="M71.34,-280.24C47.32,-263.64 0,-225.1 0,-179 0,-179 0,-179 0,-121 0,-39.65 122.5,-18.45 183.84,-12.93"/>
<polygon fill="midnightblue" stroke="midnightblue" points="184.15,-16.42 193.84,-12.13 183.59,-9.44 184.15,-16.42"/>
</g>
<!-- Node3 -->
<g id="node3" class="node">
<title>Node3</title>
<g id="a_node3"><a xlink:href="vdp_8h.html" target="_top" xlink:title="Data types and functions for VDP (Video Display Proccessor) access.">
<polygon fill="none" stroke="black" points="286,-224.5 286,-243.5 326,-243.5 326,-224.5 286,-224.5"/>
<text text-anchor="middle" x="306" y="-231.5" font-family="Helvetica,sans-Serif" font-size="10.00">vdp.h</text>
</a>
</g>
</g>
<!-- Node1&#45;&gt;Node3 -->
<g id="edge2" class="edge">
<title>Node1&#45;&gt;Node3</title>
<path fill="none" stroke="midnightblue" d="M120.02,-280.44C163.12,-269.91 235.59,-252.21 276.17,-242.29"/>
<polygon fill="midnightblue" stroke="midnightblue" points="277.11,-245.66 286,-239.89 275.45,-238.86 277.11,-245.66"/>
</g>
<!-- Node8 -->
<g id="node8" class="node">
<title>Node8</title>
<g id="a_node8"><a xlink:href="vmem_8h.html" target="_top" xlink:title="Data types and functions for VRAM access.">
<polygon fill="none" stroke="black" points="100.5,-112.5 100.5,-131.5 151.5,-131.5 151.5,-112.5 100.5,-112.5"/>
<text text-anchor="middle" x="126" y="-119.5" font-family="Helvetica,sans-Serif" font-size="10.00">vmem.h</text>
</a>
</g>
</g>
<!-- Node1&#45;&gt;Node8 -->
<g id="edge27" class="edge">
<title>Node1&#45;&gt;Node8</title>
<path fill="none" stroke="midnightblue" d="M87.2,-280.08C93.66,-253.95 112.61,-177.21 121.41,-141.58"/>
<polygon fill="midnightblue" stroke="midnightblue" points="124.88,-142.12 123.88,-131.57 118.09,-140.44 124.88,-142.12"/>
</g>
<!-- Node14 -->
<g id="node14" class="node">
<title>Node14</title>
<g id="a_node14"><a xlink:href="sprite_8h.html" target="_top" xlink:title="Sprites.">
<polygon fill="none" stroke="black" points="28,-168.5 28,-187.5 76,-187.5 76,-168.5 28,-168.5"/>
<text text-anchor="middle" x="52" y="-175.5" font-family="Helvetica,sans-Serif" font-size="10.00">sprite.h</text>
</a>
</g>
</g>
<!-- Node1&#45;&gt;Node14 -->
<g id="edge28" class="edge">
<title>Node1&#45;&gt;Node14</title>
<path fill="none" stroke="midnightblue" d="M82.41,-280.37C77.06,-262.54 64.69,-221.3 57.48,-197.27"/>
<polygon fill="midnightblue" stroke="midnightblue" points="60.8,-196.16 54.58,-187.59 54.1,-198.18 60.8,-196.16"/>
</g>
<!-- Node3&#45;&gt;Node2 -->
<g id="edge5" class="edge">
<title>Node3&#45;&gt;Node2</title>
<path fill="none" stroke="midnightblue" d="M285.63,-231.03C260.37,-227.38 218.29,-217.04 199,-188 165.99,-138.31 193.56,-62.92 209.13,-28.84"/>
<polygon fill="midnightblue" stroke="midnightblue" points="212.36,-30.2 213.49,-19.66 206.03,-27.19 212.36,-30.2"/>
</g>
<!-- Node4 -->
<g id="node4" class="node">
<title>Node4</title>
<g id="a_node4"><a xlink:title=" ">
<polygon fill="none" stroke="#bfbfbf" points="208.5,-168.5 208.5,-187.5 259.5,-187.5 259.5,-168.5 208.5,-168.5"/>
<text text-anchor="middle" x="234" y="-175.5" font-family="Helvetica,sans-Serif" font-size="10.00">assert.h</text>
</a>
</g>
</g>
<!-- Node3&#45;&gt;Node4 -->
<g id="edge3" class="edge">
<title>Node3&#45;&gt;Node4</title>
<path fill="none" stroke="midnightblue" d="M294.43,-224.32C283.58,-216.18 267.12,-203.84 254.12,-194.09"/>
<polygon fill="midnightblue" stroke="midnightblue" points="255.88,-191.03 245.78,-187.83 251.68,-196.63 255.88,-191.03"/>
</g>
<!-- Node5 -->
<g id="node5" class="node">
<title>Node5</title>
<g id="a_node5"><a xlink:title=" ">
<polygon fill="none" stroke="#bfbfbf" points="278,-168.5 278,-187.5 334,-187.5 334,-168.5 278,-168.5"/>
<text text-anchor="middle" x="306" y="-175.5" font-family="Helvetica,sans-Serif" font-size="10.00">stdbool.h</text>
</a>
</g>
</g>
<!-- Node3&#45;&gt;Node5 -->
<g id="edge4" class="edge">
<title>Node3&#45;&gt;Node5</title>
<path fill="none" stroke="midnightblue" d="M306,-224.08C306,-217.01 306,-206.86 306,-197.99"/>
<polygon fill="midnightblue" stroke="midnightblue" points="309.5,-197.75 306,-187.75 302.5,-197.75 309.5,-197.75"/>
</g>
<!-- Node6 -->
<g id="node6" class="node">
<title>Node6</title>
<g id="a_node6"><a xlink:href="io_8h.html" target="_top" xlink:title="Definition of I/O ports.">
<polygon fill="none" stroke="black" points="460,-56.5 460,-75.5 492,-75.5 492,-56.5 460,-56.5"/>
<text text-anchor="middle" x="476" y="-63.5" font-family="Helvetica,sans-Serif" font-size="10.00">io.h</text>
</a>
</g>
</g>
<!-- Node3&#45;&gt;Node6 -->
<g id="edge6" class="edge">
<title>Node3&#45;&gt;Node6</title>
<path fill="none" stroke="midnightblue" d="M326.22,-232.85C357.76,-231.45 418.41,-223.92 451,-188 476.74,-159.63 478.73,-111.96 477.59,-85.72"/>
<polygon fill="midnightblue" stroke="midnightblue" points="481.07,-85.37 476.94,-75.62 474.08,-85.82 481.07,-85.37"/>
</g>
<!-- Node3&#45;&gt;Node8 -->
<g id="edge8" class="edge">
<title>Node3&#45;&gt;Node8</title>
<path fill="none" stroke="midnightblue" d="M285.87,-230.95C256.68,-227.09 202.16,-216.36 166,-188 150.39,-175.76 139.36,-155.62 132.89,-140.99"/>
<polygon fill="midnightblue" stroke="midnightblue" points="136.03,-139.42 128.99,-131.51 129.56,-142.09 136.03,-139.42"/>
</g>
<!-- Node9 -->
<g id="node9" class="node">
<title>Node9</title>
<g id="a_node9"><a xlink:href="vdp__unsafe_8h.html" target="_top" xlink:title="Unsafe primitive functions for VDP (Video Display Proccessor) access.">
<polygon fill="none" stroke="black" points="352,-168.5 352,-187.5 426,-187.5 426,-168.5 352,-168.5"/>
<text text-anchor="middle" x="389" y="-175.5" font-family="Helvetica,sans-Serif" font-size="10.00">vdp_unsafe.h</text>
</a>
</g>
</g>
<!-- Node3&#45;&gt;Node9 -->
<g id="edge11" class="edge">
<title>Node3&#45;&gt;Node9</title>
<path fill="none" stroke="midnightblue" d="M319.34,-224.32C332.16,-215.98 351.78,-203.21 366.94,-193.35"/>
<polygon fill="midnightblue" stroke="midnightblue" points="369.22,-196.04 375.7,-187.65 365.41,-190.17 369.22,-196.04"/>
</g>
<!-- Node10 -->
<g id="node10" class="node">
<title>Node10</title>
<g id="a_node10"><a xlink:href="bios_8h.html" target="_top" xlink:title="C language I/F for MSX BIOS routines.">
<polygon fill="none" stroke="black" points="368,-112.5 368,-131.5 410,-131.5 410,-112.5 368,-112.5"/>
<text text-anchor="middle" x="389" y="-119.5" font-family="Helvetica,sans-Serif" font-size="10.00">bios.h</text>
</a>
</g>
</g>
<!-- Node3&#45;&gt;Node10 -->
<g id="edge23" class="edge">
<title>Node3&#45;&gt;Node10</title>
<path fill="none" stroke="midnightblue" d="M326.33,-232.69C355.95,-231 410.14,-223 435,-188 447.31,-170.66 428.22,-150.69 411.02,-137.51"/>
<polygon fill="midnightblue" stroke="midnightblue" points="413.03,-134.65 402.87,-131.63 408.93,-140.32 413.03,-134.65"/>
</g>
<!-- Node13 -->
<g id="node13" class="node">
<title>Node13</title>
<g id="a_node13"><a xlink:href="workarea_8h.html" target="_top" xlink:title="Definitions of MSX SYSTEM Workarea.">
<polygon fill="none" stroke="black" points="510,-56.5 510,-75.5 574,-75.5 574,-56.5 510,-56.5"/>
<text text-anchor="middle" x="542" y="-63.5" font-family="Helvetica,sans-Serif" font-size="10.00">workarea.h</text>
</a>
</g>
</g>
<!-- Node3&#45;&gt;Node13 -->
<g id="edge24" class="edge">
<title>Node3&#45;&gt;Node13</title>
<path fill="none" stroke="midnightblue" d="M326.03,-232.37C359.56,-230.36 427.74,-222.04 472,-188 506.83,-161.22 527.41,-111.79 536.47,-85.15"/>
<polygon fill="midnightblue" stroke="midnightblue" points="539.83,-86.15 539.57,-75.56 533.17,-84 539.83,-86.15"/>
</g>
<!-- Node7 -->
<g id="node7" class="node">
<title>Node7</title>
<g id="a_node7"><a xlink:href="config_8h.html" target="_top" xlink:title="Hack for C Compiler portability.">
<polygon fill="none" stroke="black" points="416,-0.5 416,-19.5 466,-19.5 466,-0.5 416,-0.5"/>
<text text-anchor="middle" x="441" y="-7.5" font-family="Helvetica,sans-Serif" font-size="10.00">config.h</text>
</a>
</g>
</g>
<!-- Node6&#45;&gt;Node7 -->
<g id="edge7" class="edge">
<title>Node6&#45;&gt;Node7</title>
<path fill="none" stroke="midnightblue" d="M470.22,-56.08C465.33,-48.53 458.17,-37.49 452.17,-28.23"/>
<polygon fill="midnightblue" stroke="midnightblue" points="455.05,-26.24 446.67,-19.75 449.17,-30.05 455.05,-26.24"/>
</g>
<!-- Node8&#45;&gt;Node2 -->
<g id="edge9" class="edge">
<title>Node8&#45;&gt;Node2</title>
<path fill="none" stroke="midnightblue" d="M130.18,-112.45C136.75,-99.48 150.38,-74.37 166,-56 175.42,-44.91 187.66,-34.18 197.9,-25.98"/>
<polygon fill="midnightblue" stroke="midnightblue" points="200.18,-28.64 205.92,-19.74 195.88,-23.12 200.18,-28.64"/>
</g>
<!-- Node8&#45;&gt;Node6 -->
<g id="edge10" class="edge">
<title>Node8&#45;&gt;Node6</title>
<path fill="none" stroke="midnightblue" d="M151.52,-119.16C206.64,-114.81 340.66,-102.25 450,-76 450.1,-75.98 450.2,-75.95 450.31,-75.93"/>
<polygon fill="midnightblue" stroke="midnightblue" points="451.3,-79.28 459.92,-73.11 449.34,-72.56 451.3,-79.28"/>
</g>
<!-- Node9&#45;&gt;Node2 -->
<g id="edge12" class="edge">
<title>Node9&#45;&gt;Node2</title>
<path fill="none" stroke="midnightblue" d="M372.43,-168.49C344.16,-153.26 286.13,-118.89 250,-76 238.25,-62.05 229.54,-43.04 224.2,-29.19"/>
<polygon fill="midnightblue" stroke="midnightblue" points="227.48,-27.97 220.78,-19.76 220.9,-30.36 227.48,-27.97"/>
</g>
<!-- Node9&#45;&gt;Node6 -->
<g id="edge13" class="edge">
<title>Node9&#45;&gt;Node6</title>
<path fill="none" stroke="midnightblue" d="M395.83,-168.37C410.25,-150.14 444.03,-107.43 462.81,-83.68"/>
<polygon fill="midnightblue" stroke="midnightblue" points="465.75,-85.61 469.2,-75.59 460.26,-81.26 465.75,-85.61"/>
</g>
<!-- Node9&#45;&gt;Node8 -->
<g id="edge14" class="edge">
<title>Node9&#45;&gt;Node8</title>
<path fill="none" stroke="midnightblue" d="M351.88,-169.38C301.38,-159.01 211.64,-140.58 161.83,-130.36"/>
<polygon fill="midnightblue" stroke="midnightblue" points="162.33,-126.89 151.83,-128.3 160.92,-133.74 162.33,-126.89"/>
</g>
<!-- Node9&#45;&gt;Node10 -->
<g id="edge15" class="edge">
<title>Node9&#45;&gt;Node10</title>
<path fill="none" stroke="midnightblue" d="M389,-168.08C389,-161.01 389,-150.86 389,-141.99"/>
<polygon fill="midnightblue" stroke="midnightblue" points="392.5,-141.75 389,-131.75 385.5,-141.75 392.5,-141.75"/>
</g>
<!-- Node10&#45;&gt;Node2 -->
<g id="edge16" class="edge">
<title>Node10&#45;&gt;Node2</title>
<path fill="none" stroke="midnightblue" d="M367.78,-115.88C343.72,-109.37 304.06,-96.46 275,-76 256.48,-62.96 239.98,-42.7 229.56,-28.27"/>
<polygon fill="midnightblue" stroke="midnightblue" points="232.22,-25.96 223.63,-19.76 226.48,-29.97 232.22,-25.96"/>
</g>
<!-- Node11 -->
<g id="node11" class="node">
<title>Node11</title>
<g id="a_node11"><a xlink:href="bios__const_8h.html" target="_top" xlink:title="Constant variables in the MSX BIOS ROM.">
<polygon fill="none" stroke="black" points="370.5,-56.5 370.5,-75.5 441.5,-75.5 441.5,-56.5 370.5,-56.5"/>
<text text-anchor="middle" x="406" y="-63.5" font-family="Helvetica,sans-Serif" font-size="10.00">bios_const.h</text>
</a>
</g>
</g>
<!-- Node10&#45;&gt;Node11 -->
<g id="edge17" class="edge">
<title>Node10&#45;&gt;Node11</title>
<path fill="none" stroke="midnightblue" d="M391.81,-112.08C394.08,-104.85 397.37,-94.41 400.21,-85.4"/>
<polygon fill="midnightblue" stroke="midnightblue" points="403.58,-86.34 403.25,-75.75 396.9,-84.24 403.58,-86.34"/>
</g>
<!-- Node12 -->
<g id="node12" class="node">
<title>Node12</title>
<g id="a_node12"><a xlink:href="bios__entry_8h.html" target="_top" xlink:title="Assembler entry points for MSX BIOS functions.">
<polygon fill="none" stroke="black" points="284,-56.5 284,-75.5 352,-75.5 352,-56.5 284,-56.5"/>
<text text-anchor="middle" x="318" y="-63.5" font-family="Helvetica,sans-Serif" font-size="10.00">bios_entry.h</text>
</a>
</g>
</g>
<!-- Node10&#45;&gt;Node12 -->
<g id="edge20" class="edge">
<title>Node10&#45;&gt;Node12</title>
<path fill="none" stroke="midnightblue" d="M377.59,-112.32C366.89,-104.18 350.66,-91.84 337.84,-82.09"/>
<polygon fill="midnightblue" stroke="midnightblue" points="339.69,-79.1 329.61,-75.83 335.46,-84.67 339.69,-79.1"/>
</g>
<!-- Node11&#45;&gt;Node2 -->
<g id="edge18" class="edge">
<title>Node11&#45;&gt;Node2</title>
<path fill="none" stroke="midnightblue" d="M376.21,-56.44C342.47,-46.75 287.6,-30.99 252.16,-20.81"/>
<polygon fill="midnightblue" stroke="midnightblue" points="252.85,-17.37 242.27,-17.97 250.91,-24.1 252.85,-17.37"/>
</g>
<!-- Node11&#45;&gt;Node7 -->
<g id="edge19" class="edge">
<title>Node11&#45;&gt;Node7</title>
<path fill="none" stroke="midnightblue" d="M411.78,-56.08C416.67,-48.53 423.83,-37.49 429.83,-28.23"/>
<polygon fill="midnightblue" stroke="midnightblue" points="432.83,-30.05 435.33,-19.75 426.95,-26.24 432.83,-30.05"/>
</g>
<!-- Node12&#45;&gt;Node2 -->
<g id="edge21" class="edge">
<title>Node12&#45;&gt;Node2</title>
<path fill="none" stroke="midnightblue" d="M301.93,-56.32C286.04,-47.74 261.49,-34.49 243.04,-24.52"/>
<polygon fill="midnightblue" stroke="midnightblue" points="244.49,-21.33 234.03,-19.65 241.16,-27.49 244.49,-21.33"/>
</g>
<!-- Node12&#45;&gt;Node7 -->
<g id="edge22" class="edge">
<title>Node12&#45;&gt;Node7</title>
<path fill="none" stroke="midnightblue" d="M337.49,-56.44C357.64,-47.6 389.32,-33.69 412.33,-23.59"/>
<polygon fill="midnightblue" stroke="midnightblue" points="413.85,-26.74 421.6,-19.52 411.04,-20.33 413.85,-26.74"/>
</g>
<!-- Node13&#45;&gt;Node2 -->
<g id="edge25" class="edge">
<title>Node13&#45;&gt;Node2</title>
<path fill="none" stroke="midnightblue" d="M509.81,-57.75C506.83,-57.13 503.86,-56.54 501,-56 411.64,-39.1 305.59,-23.39 252.25,-15.79"/>
<polygon fill="midnightblue" stroke="midnightblue" points="252.7,-12.32 242.31,-14.38 251.72,-19.25 252.7,-12.32"/>
</g>
<!-- Node13&#45;&gt;Node7 -->
<g id="edge26" class="edge">
<title>Node13&#45;&gt;Node7</title>
<path fill="none" stroke="midnightblue" d="M525.77,-56.32C509.65,-47.7 484.7,-34.36 466.04,-24.39"/>
<polygon fill="midnightblue" stroke="midnightblue" points="467.66,-21.28 457.19,-19.65 464.36,-27.46 467.66,-21.28"/>
</g>
<!-- Node14&#45;&gt;Node2 -->
<g id="edge29" class="edge">
<title>Node14&#45;&gt;Node2</title>
<path fill="none" stroke="midnightblue" d="M56.37,-168.12C62.97,-155.14 76.26,-130.54 91,-112 113.3,-83.95 120.98,-78.33 149,-56 163.36,-44.56 180.67,-33.28 194.36,-24.87"/>
<polygon fill="midnightblue" stroke="midnightblue" points="196.43,-27.71 203.18,-19.54 192.81,-21.72 196.43,-27.71"/>
</g>
<!-- Node14&#45;&gt;Node8 -->
<g id="edge30" class="edge">
<title>Node14&#45;&gt;Node8</title>
<path fill="none" stroke="midnightblue" d="M63.89,-168.32C75.15,-160.11 92.29,-147.6 105.71,-137.81"/>
<polygon fill="midnightblue" stroke="midnightblue" points="107.88,-140.56 113.89,-131.83 103.75,-134.9 107.88,-140.56"/>
</g>
</g>
</svg>
