<?xml version="1.0" encoding="UTF-8" standalone="no"?>
<!DOCTYPE svg PUBLIC "-//W3C//DTD SVG 1.1//EN"
 "http://www.w3.org/Graphics/SVG/1.1/DTD/svg11.dtd">
<!-- Generated by graphviz version 3.0.0 (20221109.1736)
 -->
<!-- Title: include/metasprite.h Pages: 1 -->
<svg width="567pt" height="308pt"
 viewBox="0.00 0.00 567.00 308.00" xmlns="http://www.w3.org/2000/svg" xmlns:xlink="http://www.w3.org/1999/xlink">
<g id="graph0" class="graph" transform="scale(1 1) rotate(0) translate(4 304)">
<title>include/metasprite.h</title>
<!-- Node1 -->
<g id="node1" class="node">
<title>Node1</title>
<g id="a_node1"><a xlink:title="Meta&#45;sprite ; an aggregate of sprites.">
<polygon fill="#bfbfbf" stroke="black" points="67,-280.5 67,-299.5 171,-299.5 171,-280.5 67,-280.5"/>
<text text-anchor="middle" x="119" y="-287.5" font-family="Helvetica,sans-Serif" font-size="10.00">include/metasprite.h</text>
</a>
</g>
</g>
<!-- Node2 -->
<g id="node2" class="node">
<title>Node2</title>
<g id="a_node2"><a xlink:title=" ">
<polygon fill="none" stroke="#bfbfbf" points="215,-0.5 215,-19.5 263,-19.5 263,-0.5 215,-0.5"/>
<text text-anchor="middle" x="239" y="-7.5" font-family="Helvetica,sans-Serif" font-size="10.00">stdint.h</text>
</a>
</g>
</g>
<!-- Node1&#45;&gt;Node2 -->
<g id="edge1" class="edge">
<title>Node1&#45;&gt;Node2</title>
<path fill="none" stroke="midnightblue" d="M96.9,-280.44C62.48,-265.5 0,-231.19 0,-179 0,-179 0,-179 0,-121 0,-32.08 138.19,-14.79 204.41,-11.61"/>
<polygon fill="midnightblue" stroke="midnightblue" points="204.91,-15.09 214.77,-11.19 204.64,-8.09 204.91,-15.09"/>
</g>
<!-- Node3 -->
<g id="node3" class="node">
<title>Node3</title>
<g id="a_node3"><a xlink:href="vdp_8h.html" target="_top" xlink:title="Data types and functions for VDP (Video Display Proccessor) access.">
<polygon fill="none" stroke="black" points="299,-224.5 299,-243.5 339,-243.5 339,-224.5 299,-224.5"/>
<text text-anchor="middle" x="319" y="-231.5" font-family="Helvetica,sans-Serif" font-size="10.00">vdp.h</text>
</a>
</g>
</g>
<!-- Node1&#45;&gt;Node3 -->
<g id="edge2" class="edge">
<title>Node1&#45;&gt;Node3</title>
<path fill="none" stroke="midnightblue" d="M150.69,-280.44C188.65,-270.2 251.75,-253.16 288.96,-243.11"/>
<polygon fill="midnightblue" stroke="midnightblue" points="289.99,-246.46 298.73,-240.47 288.16,-239.7 289.99,-246.46"/>
</g>
<!-- Node8 -->
<g id="node8" class="node">
<title>Node8</title>
<g id="a_node8"><a xlink:href="vmem_8h.html" target="_top" xlink:title="Data types and functions for VRAM access.">
<polygon fill="none" stroke="black" points="159.5,-112.5 159.5,-131.5 210.5,-131.5 210.5,-112.5 159.5,-112.5"/>
<text text-anchor="middle" x="185" y="-119.5" font-family="Helvetica,sans-Serif" font-size="10.00">vmem.h</text>
</a>
</g>
</g>
<!-- Node1&#45;&gt;Node8 -->
<g id="edge28" class="edge">
<title>Node1&#45;&gt;Node8</title>
<path fill="none" stroke="midnightblue" d="M121.5,-280.32C127.42,-260.19 143.1,-208.95 161,-168 165.03,-158.77 170.22,-148.86 174.74,-140.69"/>
<polygon fill="midnightblue" stroke="midnightblue" points="177.92,-142.19 179.8,-131.76 171.83,-138.74 177.92,-142.19"/>
</g>
<!-- Node14 -->
<g id="node14" class="node">
<title>Node14</title>
<g id="a_node14"><a xlink:href="sprite_8h.html" target="_top" xlink:title="Sprites.">
<polygon fill="none" stroke="black" points="28,-168.5 28,-187.5 76,-187.5 76,-168.5 28,-168.5"/>
<text text-anchor="middle" x="52" y="-175.5" font-family="Helvetica,sans-Serif" font-size="10.00">sprite.h</text>
</a>
</g>
</g>
<!-- Node1&#45;&gt;Node14 -->
<g id="edge29" class="edge">
<title>Node1&#45;&gt;Node14</title>
<path fill="none" stroke="midnightblue" d="M113.74,-280.37C102.73,-262.3 77.08,-220.18 62.54,-196.31"/>
<polygon fill="midnightblue" stroke="midnightblue" points="65.42,-194.31 57.23,-187.59 59.45,-197.95 65.42,-194.31"/>
</g>
<!-- Node3&#45;&gt;Node2 -->
<g id="edge5" class="edge">
<title>Node3&#45;&gt;Node2</title>
<path fill="none" stroke="midnightblue" d="M298.82,-233.58C264.95,-233.37 196.86,-227.67 161,-188 138.15,-162.73 139.05,-143.9 151,-112 164.61,-75.66 197.86,-43.79 219.37,-25.99"/>
<polygon fill="midnightblue" stroke="midnightblue" points="221.63,-28.66 227.24,-19.67 217.25,-23.21 221.63,-28.66"/>
</g>
<!-- Node4 -->
<g id="node4" class="node">
<title>Node4</title>
<g id="a_node4"><a xlink:title=" ">
<polygon fill="none" stroke="#bfbfbf" points="488.5,-168.5 488.5,-187.5 539.5,-187.5 539.5,-168.5 488.5,-168.5"/>
<text text-anchor="middle" x="514" y="-175.5" font-family="Helvetica,sans-Serif" font-size="10.00">assert.h</text>
</a>
</g>
</g>
<!-- Node3&#45;&gt;Node4 -->
<g id="edge3" class="edge">
<title>Node3&#45;&gt;Node4</title>
<path fill="none" stroke="midnightblue" d="M339.13,-227.42C372.06,-218.31 437.82,-200.09 478.65,-188.79"/>
<polygon fill="midnightblue" stroke="midnightblue" points="479.76,-192.11 488.46,-186.07 477.89,-185.37 479.76,-192.11"/>
</g>
<!-- Node5 -->
<g id="node5" class="node">
<title>Node5</title>
<g id="a_node5"><a xlink:title=" ">
<polygon fill="none" stroke="#bfbfbf" points="170,-168.5 170,-187.5 226,-187.5 226,-168.5 170,-168.5"/>
<text text-anchor="middle" x="198" y="-175.5" font-family="Helvetica,sans-Serif" font-size="10.00">stdbool.h</text>
</a>
</g>
</g>
<!-- Node3&#45;&gt;Node5 -->
<g id="edge4" class="edge">
<title>Node3&#45;&gt;Node5</title>
<path fill="none" stroke="midnightblue" d="M299.83,-224.44C280.09,-215.64 249.11,-201.81 226.51,-191.72"/>
<polygon fill="midnightblue" stroke="midnightblue" points="227.64,-188.4 217.08,-187.52 224.79,-194.79 227.64,-188.4"/>
</g>
<!-- Node6 -->
<g id="node6" class="node">
<title>Node6</title>
<g id="a_node6"><a xlink:href="io_8h.html" target="_top" xlink:title="Definition of I/O ports.">
<polygon fill="none" stroke="black" points="267,-56.5 267,-75.5 299,-75.5 299,-56.5 267,-56.5"/>
<text text-anchor="middle" x="283" y="-63.5" font-family="Helvetica,sans-Serif" font-size="10.00">io.h</text>
</a>
</g>
</g>
<!-- Node3&#45;&gt;Node6 -->
<g id="edge6" class="edge">
<title>Node3&#45;&gt;Node6</title>
<path fill="none" stroke="midnightblue" d="M332.79,-224.19C343.83,-216.24 358.5,-203.45 365,-188 368.45,-179.81 367.97,-176.38 365,-168 352.39,-132.45 321.34,-100.31 301.27,-82.25"/>
<polygon fill="midnightblue" stroke="midnightblue" points="303.51,-79.56 293.68,-75.61 298.91,-84.83 303.51,-79.56"/>
</g>
<!-- Node3&#45;&gt;Node8 -->
<g id="edge8" class="edge">
<title>Node3&#45;&gt;Node8</title>
<path fill="none" stroke="midnightblue" d="M308.49,-224.37C285.78,-205.73 231.94,-161.53 203.44,-138.13"/>
<polygon fill="midnightblue" stroke="midnightblue" points="205.42,-135.23 195.47,-131.59 200.97,-140.64 205.42,-135.23"/>
</g>
<!-- Node9 -->
<g id="node9" class="node">
<title>Node9</title>
<g id="a_node9"><a xlink:href="vdp__unsafe_8h.html" target="_top" xlink:title="Unsafe primitive functions for VDP (Video Display Proccessor) access.">
<polygon fill="none" stroke="black" points="282,-168.5 282,-187.5 356,-187.5 356,-168.5 282,-168.5"/>
<text text-anchor="middle" x="319" y="-175.5" font-family="Helvetica,sans-Serif" font-size="10.00">vdp_unsafe.h</text>
</a>
</g>
</g>
<!-- Node3&#45;&gt;Node9 -->
<g id="edge11" class="edge">
<title>Node3&#45;&gt;Node9</title>
<path fill="none" stroke="midnightblue" d="M319,-224.08C319,-217.01 319,-206.86 319,-197.99"/>
<polygon fill="midnightblue" stroke="midnightblue" points="322.5,-197.75 319,-187.75 315.5,-197.75 322.5,-197.75"/>
</g>
<!-- Node10 -->
<g id="node10" class="node">
<title>Node10</title>
<g id="a_node10"><a xlink:href="bios_8h.html" target="_top" xlink:title="C language I/F for MSX BIOS routines.">
<polygon fill="none" stroke="black" points="404,-112.5 404,-131.5 446,-131.5 446,-112.5 404,-112.5"/>
<text text-anchor="middle" x="425" y="-119.5" font-family="Helvetica,sans-Serif" font-size="10.00">bios.h</text>
</a>
</g>
</g>
<!-- Node3&#45;&gt;Node10 -->
<g id="edge23" class="edge">
<title>Node3&#45;&gt;Node10</title>
<path fill="none" stroke="midnightblue" d="M339.31,-225.8C356.92,-218.64 382.02,-206.1 398,-188 409.74,-174.7 416.85,-155.58 420.8,-141.52"/>
<polygon fill="midnightblue" stroke="midnightblue" points="424.27,-142.09 423.33,-131.53 417.48,-140.37 424.27,-142.09"/>
</g>
<!-- Node13 -->
<g id="node13" class="node">
<title>Node13</title>
<g id="a_node13"><a xlink:href="workarea_8h.html" target="_top" xlink:title="Definitions of MSX SYSTEM Workarea.">
<polygon fill="none" stroke="black" points="472,-112.5 472,-131.5 536,-131.5 536,-112.5 472,-112.5"/>
<text text-anchor="middle" x="504" y="-119.5" font-family="Helvetica,sans-Serif" font-size="10.00">workarea.h</text>
</a>
</g>
</g>
<!-- Node3&#45;&gt;Node13 -->
<g id="edge24" class="edge">
<title>Node3&#45;&gt;Node13</title>
<path fill="none" stroke="midnightblue" d="M339.37,-225.28C359.86,-217.17 392.04,-203.45 418,-188 443.06,-173.08 469.48,-152.24 486.32,-138.21"/>
<polygon fill="midnightblue" stroke="midnightblue" points="488.8,-140.69 494.19,-131.57 484.29,-135.34 488.8,-140.69"/>
</g>
<!-- Node7 -->
<g id="node7" class="node">
<title>Node7</title>
<g id="a_node7"><a xlink:href="config_8h.html" target="_top" xlink:title="Hack for C Compiler portability.">
<polygon fill="none" stroke="black" points="408,-0.5 408,-19.5 458,-19.5 458,-0.5 408,-0.5"/>
<text text-anchor="middle" x="433" y="-7.5" font-family="Helvetica,sans-Serif" font-size="10.00">config.h</text>
</a>
</g>
</g>
<!-- Node6&#45;&gt;Node7 -->
<g id="edge7" class="edge">
<title>Node6&#45;&gt;Node7</title>
<path fill="none" stroke="midnightblue" d="M299.05,-59.22C322.92,-50.63 368.31,-34.29 399.59,-23.03"/>
<polygon fill="midnightblue" stroke="midnightblue" points="400.98,-26.25 409.2,-19.57 398.61,-19.66 400.98,-26.25"/>
</g>
<!-- Node8&#45;&gt;Node2 -->
<g id="edge9" class="edge">
<title>Node8&#45;&gt;Node2</title>
<path fill="none" stroke="midnightblue" d="M189.24,-112.37C198.07,-94.38 218.6,-52.55 230.35,-28.63"/>
<polygon fill="midnightblue" stroke="midnightblue" points="233.52,-30.11 234.78,-19.59 227.23,-27.03 233.52,-30.11"/>
</g>
<!-- Node8&#45;&gt;Node6 -->
<g id="edge10" class="edge">
<title>Node8&#45;&gt;Node6</title>
<path fill="none" stroke="midnightblue" d="M200.75,-112.32C216.32,-103.74 240.38,-90.49 258.46,-80.52"/>
<polygon fill="midnightblue" stroke="midnightblue" points="260.22,-83.55 267.29,-75.65 256.85,-77.42 260.22,-83.55"/>
</g>
<!-- Node9&#45;&gt;Node2 -->
<g id="edge12" class="edge">
<title>Node9&#45;&gt;Node2</title>
<path fill="none" stroke="midnightblue" d="M312.81,-168.5C300.77,-151.63 273.98,-112.39 258,-76 251.35,-60.86 246.27,-42.74 243.05,-29.48"/>
<polygon fill="midnightblue" stroke="midnightblue" points="246.44,-28.62 240.78,-19.66 239.62,-30.19 246.44,-28.62"/>
</g>
<!-- Node9&#45;&gt;Node6 -->
<g id="edge13" class="edge">
<title>Node9&#45;&gt;Node6</title>
<path fill="none" stroke="midnightblue" d="M316.18,-168.37C310.34,-150.54 296.84,-109.3 288.98,-85.27"/>
<polygon fill="midnightblue" stroke="midnightblue" points="292.25,-84.01 285.81,-75.59 285.6,-86.18 292.25,-84.01"/>
</g>
<!-- Node9&#45;&gt;Node8 -->
<g id="edge14" class="edge">
<title>Node9&#45;&gt;Node8</title>
<path fill="none" stroke="midnightblue" d="M297.77,-168.44C275.62,-159.52 240.68,-145.44 215.56,-135.32"/>
<polygon fill="midnightblue" stroke="midnightblue" points="216.72,-132.01 206.13,-131.52 214.1,-138.5 216.72,-132.01"/>
</g>
<!-- Node9&#45;&gt;Node10 -->
<g id="edge15" class="edge">
<title>Node9&#45;&gt;Node10</title>
<path fill="none" stroke="midnightblue" d="M336.03,-168.32C353.03,-159.66 379.38,-146.24 398.99,-136.25"/>
<polygon fill="midnightblue" stroke="midnightblue" points="400.69,-139.31 408.01,-131.65 397.51,-133.08 400.69,-139.31"/>
</g>
<!-- Node10&#45;&gt;Node2 -->
<g id="edge16" class="edge">
<title>Node10&#45;&gt;Node2</title>
<path fill="none" stroke="midnightblue" d="M409.78,-112.5C393.82,-103.54 368.04,-88.97 346,-76 316.63,-58.72 283.1,-38.22 261.52,-24.93"/>
<polygon fill="midnightblue" stroke="midnightblue" points="263.12,-21.81 252.78,-19.54 259.45,-27.77 263.12,-21.81"/>
</g>
<!-- Node11 -->
<g id="node11" class="node">
<title>Node11</title>
<g id="a_node11"><a xlink:href="bios__const_8h.html" target="_top" xlink:title="Constant variables in the MSX BIOS ROM.">
<polygon fill="none" stroke="black" points="441.5,-56.5 441.5,-75.5 512.5,-75.5 512.5,-56.5 441.5,-56.5"/>
<text text-anchor="middle" x="477" y="-63.5" font-family="Helvetica,sans-Serif" font-size="10.00">bios_const.h</text>
</a>
</g>
</g>
<!-- Node10&#45;&gt;Node11 -->
<g id="edge17" class="edge">
<title>Node10&#45;&gt;Node11</title>
<path fill="none" stroke="midnightblue" d="M433.59,-112.08C441.16,-104.22 452.38,-92.57 461.51,-83.08"/>
<polygon fill="midnightblue" stroke="midnightblue" points="464.16,-85.38 468.57,-75.75 459.12,-80.53 464.16,-85.38"/>
</g>
<!-- Node12 -->
<g id="node12" class="node">
<title>Node12</title>
<g id="a_node12"><a xlink:href="bios__entry_8h.html" target="_top" xlink:title="Assembler entry points for MSX BIOS functions.">
<polygon fill="none" stroke="black" points="355,-56.5 355,-75.5 423,-75.5 423,-56.5 355,-56.5"/>
<text text-anchor="middle" x="389" y="-63.5" font-family="Helvetica,sans-Serif" font-size="10.00">bios_entry.h</text>
</a>
</g>
</g>
<!-- Node10&#45;&gt;Node12 -->
<g id="edge20" class="edge">
<title>Node10&#45;&gt;Node12</title>
<path fill="none" stroke="midnightblue" d="M419.06,-112.08C414.02,-104.53 406.66,-93.49 400.49,-84.23"/>
<polygon fill="midnightblue" stroke="midnightblue" points="403.29,-82.13 394.83,-75.75 397.47,-86.01 403.29,-82.13"/>
</g>
<!-- Node11&#45;&gt;Node2 -->
<g id="edge18" class="edge">
<title>Node11&#45;&gt;Node2</title>
<path fill="none" stroke="midnightblue" d="M441.37,-56.92C395.89,-46.6 317.78,-28.87 273.07,-18.73"/>
<polygon fill="midnightblue" stroke="midnightblue" points="273.78,-15.3 263.26,-16.5 272.23,-22.13 273.78,-15.3"/>
</g>
<!-- Node11&#45;&gt;Node7 -->
<g id="edge19" class="edge">
<title>Node11&#45;&gt;Node7</title>
<path fill="none" stroke="midnightblue" d="M469.73,-56.08C463.46,-48.38 454.21,-37.03 446.57,-27.65"/>
<polygon fill="midnightblue" stroke="midnightblue" points="449.16,-25.29 440.13,-19.75 443.73,-29.71 449.16,-25.29"/>
</g>
<!-- Node12&#45;&gt;Node2 -->
<g id="edge21" class="edge">
<title>Node12&#45;&gt;Node2</title>
<path fill="none" stroke="midnightblue" d="M365.23,-56.44C340.11,-47.4 300.29,-33.06 272.1,-22.92"/>
<polygon fill="midnightblue" stroke="midnightblue" points="273.25,-19.61 262.66,-19.52 270.88,-26.2 273.25,-19.61"/>
</g>
<!-- Node12&#45;&gt;Node7 -->
<g id="edge22" class="edge">
<title>Node12&#45;&gt;Node7</title>
<path fill="none" stroke="midnightblue" d="M396.27,-56.08C402.54,-48.38 411.79,-37.03 419.43,-27.65"/>
<polygon fill="midnightblue" stroke="midnightblue" points="422.27,-29.71 425.87,-19.75 416.84,-25.29 422.27,-29.71"/>
</g>
<!-- Node13&#45;&gt;Node2 -->
<g id="edge25" class="edge">
<title>Node13&#45;&gt;Node2</title>
<path fill="none" stroke="midnightblue" d="M510.79,-112.36C520.57,-98.8 535.99,-72.39 522,-56 506.03,-37.28 345.72,-20.62 273.71,-14.01"/>
<polygon fill="midnightblue" stroke="midnightblue" points="273.62,-10.49 263.35,-13.08 272.99,-17.46 273.62,-10.49"/>
</g>
<!-- Node13&#45;&gt;Node7 -->
<g id="edge26" class="edge">
<title>Node13&#45;&gt;Node7</title>
<path fill="none" stroke="midnightblue" d="M519.38,-112.41C539.24,-100.19 569.6,-76.95 555,-56 535.57,-28.12 496.81,-17.47 468.17,-13.43"/>
<polygon fill="midnightblue" stroke="midnightblue" points="468.48,-9.94 458.13,-12.21 467.64,-16.89 468.48,-9.94"/>
</g>
<!-- Node13&#45;&gt;Node11 -->
<g id="edge27" class="edge">
<title>Node13&#45;&gt;Node11</title>
<path fill="none" stroke="midnightblue" d="M499.54,-112.08C495.85,-104.69 490.48,-93.95 485.91,-84.81"/>
<polygon fill="midnightblue" stroke="midnightblue" points="488.98,-83.13 481.38,-75.75 482.72,-86.26 488.98,-83.13"/>
</g>
<!-- Node14&#45;&gt;Node2 -->
<g id="edge30" class="edge">
<title>Node14&#45;&gt;Node2</title>
<path fill="none" stroke="midnightblue" d="M52.1,-168.29C52.85,-146.24 57.91,-87.74 90,-56 120.68,-25.65 171.08,-15.65 204.64,-12.43"/>
<polygon fill="midnightblue" stroke="midnightblue" points="205.22,-15.89 214.9,-11.6 204.66,-8.92 205.22,-15.89"/>
</g>
<!-- Node14&#45;&gt;Node8 -->
<g id="edge31" class="edge">
<title>Node14&#45;&gt;Node8</title>
<path fill="none" stroke="midnightblue" d="M73.07,-168.44C95.06,-159.52 129.73,-145.44 154.66,-135.32"/>
<polygon fill="midnightblue" stroke="midnightblue" points="156.08,-138.52 164.02,-131.52 153.44,-132.04 156.08,-138.52"/>
</g>
</g>
</svg>
