<?xml version="1.0" encoding="UTF-8" standalone="no"?>
<!DOCTYPE svg PUBLIC "-//W3C//DTD SVG 1.1//EN"
 "http://www.w3.org/Graphics/SVG/1.1/DTD/svg11.dtd">
<!-- Generated by graphviz version 2.43.0 (0)
 -->
<!-- Title: include/metasprite.h Pages: 1 -->
<svg width="501pt" height="196pt"
 viewBox="0.00 0.00 500.65 196.00" xmlns="http://www.w3.org/2000/svg" xmlns:xlink="http://www.w3.org/1999/xlink">
<g id="graph0" class="graph" transform="scale(1 1) rotate(0) translate(4 192)">
<title>include/metasprite.h</title>
<!-- Node1 -->
<g id="node1" class="node">
<title>Node1</title>
<g id="a_node1"><a xlink:title=" ">
<polygon fill="#bfbfbf" stroke="black" points="86,-168.5 86,-187.5 203,-187.5 203,-168.5 86,-168.5"/>
<text text-anchor="middle" x="144.5" y="-175.5" font-family="Helvetica,sans-Serif" font-size="10.00">include/metasprite.h</text>
</a>
</g>
</g>
<!-- Node2 -->
<g id="node2" class="node">
<title>Node2</title>
<g id="a_node2"><a xlink:title=" ">
<polygon fill="none" stroke="#bfbfbf" points="240,-0.5 240,-19.5 293,-19.5 293,-0.5 240,-0.5"/>
<text text-anchor="middle" x="266.5" y="-7.5" font-family="Helvetica,sans-Serif" font-size="10.00">stdint.h</text>
</a>
</g>
</g>
<!-- Node1&#45;&gt;Node2 -->
<g id="edge1" class="edge">
<title>Node1&#45;&gt;Node2</title>
<path fill="none" stroke="midnightblue" d="M202.32,-168.46C291.04,-154.05 454.14,-121.9 488.5,-76 493.83,-68.88 494.13,-62.88 488.5,-56 465.53,-27.91 360.35,-16.94 303.39,-13"/>
<polygon fill="midnightblue" stroke="midnightblue" points="303.56,-9.5 293.35,-12.34 303.1,-16.49 303.56,-9.5"/>
</g>
<!-- Node3 -->
<g id="node3" class="node">
<title>Node3</title>
<g id="a_node3"><a xlink:href="vdp_8h.html" target="_top" xlink:title=" ">
<polygon fill="none" stroke="black" points="200.5,-112.5 200.5,-131.5 244.5,-131.5 244.5,-112.5 200.5,-112.5"/>
<text text-anchor="middle" x="222.5" y="-119.5" font-family="Helvetica,sans-Serif" font-size="10.00">vdp.h</text>
</a>
</g>
</g>
<!-- Node1&#45;&gt;Node3 -->
<g id="edge2" class="edge">
<title>Node1&#45;&gt;Node3</title>
<path fill="none" stroke="midnightblue" d="M157.03,-168.32C169.09,-159.98 187.53,-147.21 201.77,-137.35"/>
<polygon fill="midnightblue" stroke="midnightblue" points="203.77,-140.22 210,-131.65 199.78,-134.47 203.77,-140.22"/>
</g>
<!-- Node7 -->
<g id="node7" class="node">
<title>Node7</title>
<g id="a_node7"><a xlink:href="vmem_8h.html" target="_top" xlink:title=" ">
<polygon fill="none" stroke="black" points="0,-56.5 0,-75.5 57,-75.5 57,-56.5 0,-56.5"/>
<text text-anchor="middle" x="28.5" y="-63.5" font-family="Helvetica,sans-Serif" font-size="10.00">vmem.h</text>
</a>
</g>
</g>
<!-- Node1&#45;&gt;Node7 -->
<g id="edge14" class="edge">
<title>Node1&#45;&gt;Node7</title>
<path fill="none" stroke="midnightblue" d="M110.87,-168.45C90.53,-161.67 65.51,-150.24 49.5,-132 38.14,-119.06 32.91,-99.89 30.51,-85.72"/>
<polygon fill="midnightblue" stroke="midnightblue" points="33.96,-85.07 29.13,-75.64 27.02,-86.02 33.96,-85.07"/>
</g>
<!-- Node10 -->
<g id="node10" class="node">
<title>Node10</title>
<g id="a_node10"><a xlink:href="sprite_8h.html" target="_top" xlink:title=" ">
<polygon fill="none" stroke="black" points="59,-112.5 59,-131.5 112,-131.5 112,-112.5 59,-112.5"/>
<text text-anchor="middle" x="85.5" y="-119.5" font-family="Helvetica,sans-Serif" font-size="10.00">sprite.h</text>
</a>
</g>
</g>
<!-- Node1&#45;&gt;Node10 -->
<g id="edge15" class="edge">
<title>Node1&#45;&gt;Node10</title>
<path fill="none" stroke="midnightblue" d="M135.02,-168.32C126.3,-160.34 113.16,-148.31 102.6,-138.65"/>
<polygon fill="midnightblue" stroke="midnightblue" points="104.89,-136 95.15,-131.83 100.17,-141.17 104.89,-136"/>
</g>
<!-- Node3&#45;&gt;Node2 -->
<g id="edge5" class="edge">
<title>Node3&#45;&gt;Node2</title>
<path fill="none" stroke="midnightblue" d="M225.95,-112.37C233.12,-94.46 249.73,-52.92 259.32,-28.95"/>
<polygon fill="midnightblue" stroke="midnightblue" points="262.6,-30.18 263.06,-19.59 256.1,-27.58 262.6,-30.18"/>
</g>
<!-- Node4 -->
<g id="node4" class="node">
<title>Node4</title>
<g id="a_node4"><a xlink:title=" ">
<polygon fill="none" stroke="#bfbfbf" points="423.5,-56.5 423.5,-75.5 479.5,-75.5 479.5,-56.5 423.5,-56.5"/>
<text text-anchor="middle" x="451.5" y="-63.5" font-family="Helvetica,sans-Serif" font-size="10.00">assert.h</text>
</a>
</g>
</g>
<!-- Node3&#45;&gt;Node4 -->
<g id="edge3" class="edge">
<title>Node3&#45;&gt;Node4</title>
<path fill="none" stroke="midnightblue" d="M244.69,-115.86C278.78,-107.96 346.33,-92.24 413.35,-76.26"/>
<polygon fill="midnightblue" stroke="midnightblue" points="414.31,-79.63 423.22,-73.9 412.68,-72.82 414.31,-79.63"/>
</g>
<!-- Node5 -->
<g id="node5" class="node">
<title>Node5</title>
<g id="a_node5"><a xlink:title=" ">
<polygon fill="none" stroke="#bfbfbf" points="113.5,-56.5 113.5,-75.5 175.5,-75.5 175.5,-56.5 113.5,-56.5"/>
<text text-anchor="middle" x="144.5" y="-63.5" font-family="Helvetica,sans-Serif" font-size="10.00">stdbool.h</text>
</a>
</g>
</g>
<!-- Node3&#45;&gt;Node5 -->
<g id="edge4" class="edge">
<title>Node3&#45;&gt;Node5</title>
<path fill="none" stroke="midnightblue" d="M209.97,-112.32C197.91,-103.98 179.47,-91.21 165.23,-81.35"/>
<polygon fill="midnightblue" stroke="midnightblue" points="167.22,-78.47 157,-75.65 163.23,-84.22 167.22,-78.47"/>
</g>
<!-- Node6 -->
<g id="node6" class="node">
<title>Node6</title>
<g id="a_node6"><a xlink:href="io_8h.html" target="_top" xlink:title=" ">
<polygon fill="none" stroke="black" points="112,-0.5 112,-19.5 147,-19.5 147,-0.5 112,-0.5"/>
<text text-anchor="middle" x="129.5" y="-7.5" font-family="Helvetica,sans-Serif" font-size="10.00">io.h</text>
</a>
</g>
</g>
<!-- Node3&#45;&gt;Node6 -->
<g id="edge6" class="edge">
<title>Node3&#45;&gt;Node6</title>
<path fill="none" stroke="midnightblue" d="M218.68,-112.38C212.64,-99.31 199.95,-74.09 184.5,-56 174.63,-44.45 161.54,-33.61 150.6,-25.46"/>
<polygon fill="midnightblue" stroke="midnightblue" points="152.55,-22.55 142.4,-19.54 148.46,-28.23 152.55,-22.55"/>
</g>
<!-- Node3&#45;&gt;Node7 -->
<g id="edge7" class="edge">
<title>Node3&#45;&gt;Node7</title>
<path fill="none" stroke="midnightblue" d="M200.25,-114.81C167.67,-105.74 106.57,-88.73 66.72,-77.64"/>
<polygon fill="midnightblue" stroke="midnightblue" points="67.65,-74.26 57.08,-74.95 65.77,-81.01 67.65,-74.26"/>
</g>
<!-- Node8 -->
<g id="node8" class="node">
<title>Node8</title>
<g id="a_node8"><a xlink:href="bios_8h.html" target="_top" xlink:title=" ">
<polygon fill="none" stroke="black" points="269.5,-56.5 269.5,-75.5 315.5,-75.5 315.5,-56.5 269.5,-56.5"/>
<text text-anchor="middle" x="292.5" y="-63.5" font-family="Helvetica,sans-Serif" font-size="10.00">bios.h</text>
</a>
</g>
</g>
<!-- Node3&#45;&gt;Node8 -->
<g id="edge10" class="edge">
<title>Node3&#45;&gt;Node8</title>
<path fill="none" stroke="midnightblue" d="M233.75,-112.32C244.3,-104.18 260.3,-91.84 272.94,-82.09"/>
<polygon fill="midnightblue" stroke="midnightblue" points="275.27,-84.71 281.05,-75.83 270.99,-79.17 275.27,-84.71"/>
</g>
<!-- Node9 -->
<g id="node9" class="node">
<title>Node9</title>
<g id="a_node9"><a xlink:href="workarea_8h.html" target="_top" xlink:title=" ">
<polygon fill="none" stroke="black" points="334,-56.5 334,-75.5 405,-75.5 405,-56.5 334,-56.5"/>
<text text-anchor="middle" x="369.5" y="-63.5" font-family="Helvetica,sans-Serif" font-size="10.00">workarea.h</text>
</a>
</g>
</g>
<!-- Node3&#45;&gt;Node9 -->
<g id="edge12" class="edge">
<title>Node3&#45;&gt;Node9</title>
<path fill="none" stroke="midnightblue" d="M244.51,-112.92C268.87,-103.97 308.39,-89.45 336.47,-79.13"/>
<polygon fill="midnightblue" stroke="midnightblue" points="337.7,-82.41 345.88,-75.68 335.29,-75.84 337.7,-82.41"/>
</g>
<!-- Node7&#45;&gt;Node2 -->
<g id="edge8" class="edge">
<title>Node7&#45;&gt;Node2</title>
<path fill="none" stroke="midnightblue" d="M57.21,-58.49C100.52,-48.66 182.53,-30.05 230.02,-19.28"/>
<polygon fill="midnightblue" stroke="midnightblue" points="230.91,-22.66 239.88,-17.04 229.36,-15.84 230.91,-22.66"/>
</g>
<!-- Node7&#45;&gt;Node6 -->
<g id="edge9" class="edge">
<title>Node7&#45;&gt;Node6</title>
<path fill="none" stroke="midnightblue" d="M44.73,-56.32C60.85,-47.7 85.8,-34.36 104.46,-24.39"/>
<polygon fill="midnightblue" stroke="midnightblue" points="106.14,-27.46 113.31,-19.65 102.84,-21.28 106.14,-27.46"/>
</g>
<!-- Node8&#45;&gt;Node2 -->
<g id="edge11" class="edge">
<title>Node8&#45;&gt;Node2</title>
<path fill="none" stroke="midnightblue" d="M288.21,-56.08C284.65,-48.69 279.48,-37.95 275.08,-28.81"/>
<polygon fill="midnightblue" stroke="midnightblue" points="278.21,-27.24 270.71,-19.75 271.9,-30.28 278.21,-27.24"/>
</g>
<!-- Node9&#45;&gt;Node2 -->
<g id="edge13" class="edge">
<title>Node9&#45;&gt;Node2</title>
<path fill="none" stroke="midnightblue" d="M352.95,-56.32C336.51,-47.7 311.07,-34.36 292.03,-24.39"/>
<polygon fill="midnightblue" stroke="midnightblue" points="293.49,-21.2 283.01,-19.65 290.24,-27.4 293.49,-21.2"/>
</g>
<!-- Node10&#45;&gt;Node2 -->
<g id="edge16" class="edge">
<title>Node10&#45;&gt;Node2</title>
<path fill="none" stroke="midnightblue" d="M85.51,-112.07C86.02,-98.13 89.1,-71.19 104.5,-56 137.88,-23.07 193.16,-13.75 229.71,-11.37"/>
<polygon fill="midnightblue" stroke="midnightblue" points="230.13,-14.85 239.94,-10.86 229.78,-7.86 230.13,-14.85"/>
</g>
<!-- Node10&#45;&gt;Node7 -->
<g id="edge17" class="edge">
<title>Node10&#45;&gt;Node7</title>
<path fill="none" stroke="midnightblue" d="M76.34,-112.32C68,-104.42 55.47,-92.55 45.32,-82.94"/>
<polygon fill="midnightblue" stroke="midnightblue" points="47.49,-80.17 37.82,-75.83 42.68,-85.25 47.49,-80.17"/>
</g>
</g>
</svg>
