<?xml version="1.0" encoding="UTF-8" standalone="no"?>
<!DOCTYPE svg PUBLIC "-//W3C//DTD SVG 1.1//EN"
 "http://www.w3.org/Graphics/SVG/1.1/DTD/svg11.dtd">
<!-- Generated by graphviz version 3.0.0 (20220413.0106)
 -->
<!-- Title: include/metasprite.h Pages: 1 -->
<svg width="455pt" height="252pt"
 viewBox="0.00 0.00 455.49 252.00" xmlns="http://www.w3.org/2000/svg" xmlns:xlink="http://www.w3.org/1999/xlink">
<g id="graph0" class="graph" transform="scale(1 1) rotate(0) translate(4 248)">
<title>include/metasprite.h</title>
<!-- Node1 -->
<g id="node1" class="node">
<title>Node1</title>
<g id="a_node1"><a xlink:title="Copyright (c) 2021 Daishi Mori (mori0091)">
<polygon fill="#bfbfbf" stroke="black" points="9.49,-224.5 9.49,-243.5 113.49,-243.5 113.49,-224.5 9.49,-224.5"/>
<text text-anchor="middle" x="61.49" y="-231.5" font-family="Helvetica,sans-Serif" font-size="10.00">include/metasprite.h</text>
</a>
</g>
</g>
<!-- Node2 -->
<g id="node2" class="node">
<title>Node2</title>
<g id="a_node2"><a xlink:title=" ">
<polygon fill="none" stroke="#bfbfbf" points="105.49,-0.5 105.49,-19.5 153.49,-19.5 153.49,-0.5 105.49,-0.5"/>
<text text-anchor="middle" x="129.49" y="-7.5" font-family="Helvetica,sans-Serif" font-size="10.00">stdint.h</text>
</a>
</g>
</g>
<!-- Node1&#45;&gt;Node2 -->
<g id="edge1" class="edge">
<title>Node1&#45;&gt;Node2</title>
<path fill="none" stroke="midnightblue" d="M42.51,-224.4C28.6,-216.95 10.78,-204.74 2.49,-188 -1.45,-180.03 0.42,-176.64 2.49,-168 15.52,-113.69 22.03,-97.43 59.49,-56 71.22,-43.03 87.51,-32.26 101.42,-24.51"/>
<polygon fill="midnightblue" stroke="midnightblue" points="103.4,-27.43 110.59,-19.64 100.12,-21.24 103.4,-27.43"/>
</g>
<!-- Node3 -->
<g id="node3" class="node">
<title>Node3</title>
<g id="a_node3"><a xlink:href="vdp_8h.html" target="_top" xlink:title="Data types and functions for VDP (Video Display Proccessor) access.">
<polygon fill="none" stroke="black" points="199.49,-168.5 199.49,-187.5 239.49,-187.5 239.49,-168.5 199.49,-168.5"/>
<text text-anchor="middle" x="219.49" y="-175.5" font-family="Helvetica,sans-Serif" font-size="10.00">vdp.h</text>
</a>
</g>
</g>
<!-- Node1&#45;&gt;Node3 -->
<g id="edge2" class="edge">
<title>Node1&#45;&gt;Node3</title>
<path fill="none" stroke="midnightblue" d="M86.53,-224.44C114.51,-214.88 159.81,-199.4 189.62,-189.21"/>
<polygon fill="midnightblue" stroke="midnightblue" points="190.76,-192.52 199.09,-185.97 188.5,-185.89 190.76,-192.52"/>
</g>
<!-- Node8 -->
<g id="node8" class="node">
<title>Node8</title>
<g id="a_node8"><a xlink:href="vmem_8h.html" target="_top" xlink:title="Data types and functions for VRAM access.">
<polygon fill="none" stroke="black" points="49.99,-112.5 49.99,-131.5 100.99,-131.5 100.99,-112.5 49.99,-112.5"/>
<text text-anchor="middle" x="75.49" y="-119.5" font-family="Helvetica,sans-Serif" font-size="10.00">vmem.h</text>
</a>
</g>
</g>
<!-- Node1&#45;&gt;Node8 -->
<g id="edge21" class="edge">
<title>Node1&#45;&gt;Node8</title>
<path fill="none" stroke="midnightblue" d="M62.95,-224.39C64.46,-215.35 66.82,-200.7 68.49,-188 70.53,-172.51 72.4,-154.88 73.69,-141.89"/>
<polygon fill="midnightblue" stroke="midnightblue" points="77.18,-142.14 74.67,-131.85 70.22,-141.46 77.18,-142.14"/>
</g>
<!-- Node13 -->
<g id="node13" class="node">
<title>Node13</title>
<g id="a_node13"><a xlink:href="sprite_8h.html" target="_top" xlink:title="Copyright (c) 2021 Daishi Mori (mori0091)">
<polygon fill="none" stroke="black" points="11.49,-168.5 11.49,-187.5 59.49,-187.5 59.49,-168.5 11.49,-168.5"/>
<text text-anchor="middle" x="35.49" y="-175.5" font-family="Helvetica,sans-Serif" font-size="10.00">sprite.h</text>
</a>
</g>
</g>
<!-- Node1&#45;&gt;Node13 -->
<g id="edge22" class="edge">
<title>Node1&#45;&gt;Node13</title>
<path fill="none" stroke="midnightblue" d="M57.2,-224.08C53.64,-216.69 48.47,-205.95 44.07,-196.81"/>
<polygon fill="midnightblue" stroke="midnightblue" points="47.19,-195.24 39.7,-187.75 40.89,-198.28 47.19,-195.24"/>
</g>
<!-- Node3&#45;&gt;Node2 -->
<g id="edge5" class="edge">
<title>Node3&#45;&gt;Node2</title>
<path fill="none" stroke="midnightblue" d="M199.22,-169.41C183.09,-162.28 161.32,-149.99 149.49,-132 128.9,-100.68 127.17,-55.22 128.1,-29.87"/>
<polygon fill="midnightblue" stroke="midnightblue" points="131.6,-29.94 128.65,-19.77 124.61,-29.56 131.6,-29.94"/>
</g>
<!-- Node4 -->
<g id="node4" class="node">
<title>Node4</title>
<g id="a_node4"><a xlink:title=" ">
<polygon fill="none" stroke="#bfbfbf" points="157.99,-112.5 157.99,-131.5 208.99,-131.5 208.99,-112.5 157.99,-112.5"/>
<text text-anchor="middle" x="183.49" y="-119.5" font-family="Helvetica,sans-Serif" font-size="10.00">assert.h</text>
</a>
</g>
</g>
<!-- Node3&#45;&gt;Node4 -->
<g id="edge3" class="edge">
<title>Node3&#45;&gt;Node4</title>
<path fill="none" stroke="midnightblue" d="M213.55,-168.08C208.51,-160.53 201.15,-149.49 194.98,-140.23"/>
<polygon fill="midnightblue" stroke="midnightblue" points="197.78,-138.13 189.32,-131.75 191.96,-142.01 197.78,-138.13"/>
</g>
<!-- Node5 -->
<g id="node5" class="node">
<title>Node5</title>
<g id="a_node5"><a xlink:title=" ">
<polygon fill="none" stroke="#bfbfbf" points="227.49,-112.5 227.49,-131.5 283.49,-131.5 283.49,-112.5 227.49,-112.5"/>
<text text-anchor="middle" x="255.49" y="-119.5" font-family="Helvetica,sans-Serif" font-size="10.00">stdbool.h</text>
</a>
</g>
</g>
<!-- Node3&#45;&gt;Node5 -->
<g id="edge4" class="edge">
<title>Node3&#45;&gt;Node5</title>
<path fill="none" stroke="midnightblue" d="M225.43,-168.08C230.47,-160.53 237.83,-149.49 244,-140.23"/>
<polygon fill="midnightblue" stroke="midnightblue" points="247.02,-142.01 249.66,-131.75 241.2,-138.13 247.02,-142.01"/>
</g>
<!-- Node6 -->
<g id="node6" class="node">
<title>Node6</title>
<g id="a_node6"><a xlink:href="io_8h.html" target="_top" xlink:title="Copyright (c) 2021 Daishi Mori (mori0091)">
<polygon fill="none" stroke="black" points="415.49,-56.5 415.49,-75.5 447.49,-75.5 447.49,-56.5 415.49,-56.5"/>
<text text-anchor="middle" x="431.49" y="-63.5" font-family="Helvetica,sans-Serif" font-size="10.00">io.h</text>
</a>
</g>
</g>
<!-- Node3&#45;&gt;Node6 -->
<g id="edge6" class="edge">
<title>Node3&#45;&gt;Node6</title>
<path fill="none" stroke="midnightblue" d="M239.68,-174.41C270,-169.81 328.25,-158.09 370.49,-132 390.77,-119.47 408.73,-98.49 419.82,-83.76"/>
<polygon fill="midnightblue" stroke="midnightblue" points="422.75,-85.68 425.79,-75.53 417.09,-81.56 422.75,-85.68"/>
</g>
<!-- Node3&#45;&gt;Node8 -->
<g id="edge8" class="edge">
<title>Node3&#45;&gt;Node8</title>
<path fill="none" stroke="midnightblue" d="M199.47,-169.49C175.69,-160.57 135.71,-145.58 107.59,-135.04"/>
<polygon fill="midnightblue" stroke="midnightblue" points="108.78,-131.75 98.19,-131.51 106.32,-138.3 108.78,-131.75"/>
</g>
<!-- Node9 -->
<g id="node9" class="node">
<title>Node9</title>
<g id="a_node9"><a xlink:href="bios_8h.html" target="_top" xlink:title="Copyright (c) 2021 Daishi Mori (mori0091)">
<polygon fill="none" stroke="black" points="301.49,-112.5 301.49,-131.5 343.49,-131.5 343.49,-112.5 301.49,-112.5"/>
<text text-anchor="middle" x="322.49" y="-119.5" font-family="Helvetica,sans-Serif" font-size="10.00">bios.h</text>
</a>
</g>
</g>
<!-- Node3&#45;&gt;Node9 -->
<g id="edge11" class="edge">
<title>Node3&#45;&gt;Node9</title>
<path fill="none" stroke="midnightblue" d="M236.04,-168.32C252.48,-159.7 277.92,-146.36 296.96,-136.39"/>
<polygon fill="midnightblue" stroke="midnightblue" points="298.75,-139.4 305.98,-131.65 295.5,-133.2 298.75,-139.4"/>
</g>
<!-- Node12 -->
<g id="node12" class="node">
<title>Node12</title>
<g id="a_node12"><a xlink:href="workarea_8h.html" target="_top" xlink:title="Copyright (c) 2021 Daishi Mori (mori0091)">
<polygon fill="none" stroke="black" points="333.49,-56.5 333.49,-75.5 397.49,-75.5 397.49,-56.5 333.49,-56.5"/>
<text text-anchor="middle" x="365.49" y="-63.5" font-family="Helvetica,sans-Serif" font-size="10.00">workarea.h</text>
</a>
</g>
</g>
<!-- Node3&#45;&gt;Node12 -->
<g id="edge18" class="edge">
<title>Node3&#45;&gt;Node12</title>
<path fill="none" stroke="midnightblue" d="M239.55,-176.21C268.94,-173.91 323.37,-165.14 352.49,-132 363.52,-119.45 366.22,-100.23 366.49,-85.94"/>
<polygon fill="midnightblue" stroke="midnightblue" points="369.99,-85.69 366.3,-75.76 362.99,-85.82 369.99,-85.69"/>
</g>
<!-- Node7 -->
<g id="node7" class="node">
<title>Node7</title>
<g id="a_node7"><a xlink:href="config_8h.html" target="_top" xlink:title="Copyright (c) 2022 Daishi Mori (mori0091)">
<polygon fill="none" stroke="black" points="297.49,-0.5 297.49,-19.5 347.49,-19.5 347.49,-0.5 297.49,-0.5"/>
<text text-anchor="middle" x="322.49" y="-7.5" font-family="Helvetica,sans-Serif" font-size="10.00">config.h</text>
</a>
</g>
</g>
<!-- Node6&#45;&gt;Node7 -->
<g id="edge7" class="edge">
<title>Node6&#45;&gt;Node7</title>
<path fill="none" stroke="midnightblue" d="M415.41,-57.03C397.92,-48.37 369.71,-34.39 348.95,-24.11"/>
<polygon fill="midnightblue" stroke="midnightblue" points="350.23,-20.84 339.72,-19.54 347.13,-27.11 350.23,-20.84"/>
</g>
<!-- Node8&#45;&gt;Node2 -->
<g id="edge9" class="edge">
<title>Node8&#45;&gt;Node2</title>
<path fill="none" stroke="midnightblue" d="M79.73,-112.37C88.56,-94.38 109.09,-52.55 120.84,-28.63"/>
<polygon fill="midnightblue" stroke="midnightblue" points="124.01,-30.11 125.27,-19.59 117.72,-27.03 124.01,-30.11"/>
</g>
<!-- Node8&#45;&gt;Node6 -->
<g id="edge10" class="edge">
<title>Node8&#45;&gt;Node6</title>
<path fill="none" stroke="midnightblue" d="M101.1,-117.83C168.66,-109.44 349.76,-86.66 405.16,-75.63"/>
<polygon fill="midnightblue" stroke="midnightblue" points="406.23,-78.98 415.23,-73.41 404.72,-72.15 406.23,-78.98"/>
</g>
<!-- Node10 -->
<g id="node10" class="node">
<title>Node10</title>
<g id="a_node10"><a xlink:href="bios__const_8h.html" target="_top" xlink:title="Constant variables in the MSX BIOS ROM.">
<polygon fill="none" stroke="black" points="243.99,-56.5 243.99,-75.5 314.99,-75.5 314.99,-56.5 243.99,-56.5"/>
<text text-anchor="middle" x="279.49" y="-63.5" font-family="Helvetica,sans-Serif" font-size="10.00">bios_const.h</text>
</a>
</g>
</g>
<!-- Node9&#45;&gt;Node10 -->
<g id="edge12" class="edge">
<title>Node9&#45;&gt;Node10</title>
<path fill="none" stroke="midnightblue" d="M315.39,-112.08C309.25,-104.38 300.22,-93.03 292.75,-83.65"/>
<polygon fill="midnightblue" stroke="midnightblue" points="295.43,-81.39 286.46,-75.75 289.95,-85.75 295.43,-81.39"/>
</g>
<!-- Node11 -->
<g id="node11" class="node">
<title>Node11</title>
<g id="a_node11"><a xlink:href="bios__entry_8h.html" target="_top" xlink:title="Assembler entry points for MSX BIOS functions.">
<polygon fill="none" stroke="black" points="157.49,-56.5 157.49,-75.5 225.49,-75.5 225.49,-56.5 157.49,-56.5"/>
<text text-anchor="middle" x="191.49" y="-63.5" font-family="Helvetica,sans-Serif" font-size="10.00">bios_entry.h</text>
</a>
</g>
</g>
<!-- Node9&#45;&gt;Node11 -->
<g id="edge15" class="edge">
<title>Node9&#45;&gt;Node11</title>
<path fill="none" stroke="midnightblue" d="M301.73,-112.44C280.17,-103.56 246.23,-89.56 221.7,-79.45"/>
<polygon fill="midnightblue" stroke="midnightblue" points="222.73,-76.09 212.15,-75.52 220.06,-82.56 222.73,-76.09"/>
</g>
<!-- Node10&#45;&gt;Node2 -->
<g id="edge13" class="edge">
<title>Node10&#45;&gt;Node2</title>
<path fill="none" stroke="midnightblue" d="M255.72,-56.44C230.6,-47.4 190.78,-33.06 162.59,-22.92"/>
<polygon fill="midnightblue" stroke="midnightblue" points="163.74,-19.61 153.15,-19.52 161.37,-26.2 163.74,-19.61"/>
</g>
<!-- Node10&#45;&gt;Node7 -->
<g id="edge14" class="edge">
<title>Node10&#45;&gt;Node7</title>
<path fill="none" stroke="midnightblue" d="M286.59,-56.08C292.73,-48.38 301.76,-37.03 309.23,-27.65"/>
<polygon fill="midnightblue" stroke="midnightblue" points="312.03,-29.75 315.52,-19.75 306.55,-25.39 312.03,-29.75"/>
</g>
<!-- Node11&#45;&gt;Node2 -->
<g id="edge16" class="edge">
<title>Node11&#45;&gt;Node2</title>
<path fill="none" stroke="midnightblue" d="M181.53,-56.32C172.36,-48.34 158.55,-36.31 147.46,-26.65"/>
<polygon fill="midnightblue" stroke="midnightblue" points="149.47,-23.76 139.63,-19.83 144.87,-29.04 149.47,-23.76"/>
</g>
<!-- Node11&#45;&gt;Node7 -->
<g id="edge17" class="edge">
<title>Node11&#45;&gt;Node7</title>
<path fill="none" stroke="midnightblue" d="M212.25,-56.44C233.81,-47.56 267.75,-33.56 292.28,-23.45"/>
<polygon fill="midnightblue" stroke="midnightblue" points="293.92,-26.56 301.83,-19.52 291.25,-20.09 293.92,-26.56"/>
</g>
<!-- Node12&#45;&gt;Node2 -->
<g id="edge19" class="edge">
<title>Node12&#45;&gt;Node2</title>
<path fill="none" stroke="midnightblue" d="M333.17,-57.6C288.67,-47.42 208.88,-29.17 163.5,-18.78"/>
<polygon fill="midnightblue" stroke="midnightblue" points="164.09,-15.33 153.56,-16.51 162.53,-22.15 164.09,-15.33"/>
</g>
<!-- Node12&#45;&gt;Node7 -->
<g id="edge20" class="edge">
<title>Node12&#45;&gt;Node7</title>
<path fill="none" stroke="midnightblue" d="M358.39,-56.08C352.25,-48.38 343.22,-37.03 335.75,-27.65"/>
<polygon fill="midnightblue" stroke="midnightblue" points="338.43,-25.39 329.46,-19.75 332.95,-29.75 338.43,-25.39"/>
</g>
<!-- Node13&#45;&gt;Node2 -->
<g id="edge23" class="edge">
<title>Node13&#45;&gt;Node2</title>
<path fill="none" stroke="midnightblue" d="M34.64,-168.17C33.76,-155.27 33.46,-130.75 41.49,-112 56.77,-76.3 89.56,-44.2 110.51,-26.19"/>
<polygon fill="midnightblue" stroke="midnightblue" points="113,-28.68 118.43,-19.58 108.51,-23.31 113,-28.68"/>
</g>
<!-- Node13&#45;&gt;Node8 -->
<g id="edge24" class="edge">
<title>Node13&#45;&gt;Node8</title>
<path fill="none" stroke="midnightblue" d="M42.09,-168.08C47.75,-160.46 56.03,-149.26 62.94,-139.94"/>
<polygon fill="midnightblue" stroke="midnightblue" points="65.87,-141.87 69.01,-131.75 60.24,-137.7 65.87,-141.87"/>
</g>
</g>
</svg>
