<?xml version="1.0" encoding="UTF-8" standalone="no"?>
<!DOCTYPE svg PUBLIC "-//W3C//DTD SVG 1.1//EN"
 "http://www.w3.org/Graphics/SVG/1.1/DTD/svg11.dtd">
<!-- Generated by graphviz version 12.2.0 (20241103.1931)
 -->
<!-- Title: include/metasprite.h Pages: 1 -->
<svg width="590pt" height="359pt"
 viewBox="0.00 0.00 589.75 358.75" xmlns="http://www.w3.org/2000/svg" xmlns:xlink="http://www.w3.org/1999/xlink">
<g id="graph0" class="graph" transform="scale(1 1) rotate(0) translate(4 354.75)">
<title>include/metasprite.h</title>
<!-- Node1 -->
<g id="Node000001" class="node">
<title>Node1</title>
<g id="a_Node000001"><a xlink:title="Meta&#45;sprite ; an aggregate of sprites.">
<polygon fill="#999999" stroke="#666666" points="454.5,-350.75 351.5,-350.75 351.5,-331.5 454.5,-331.5 454.5,-350.75"/>
<text text-anchor="middle" x="403" y="-337.25" font-family="Helvetica,sans-Serif" font-size="10.00">include/metasprite.h</text>
</a>
</g>
</g>
<!-- Node2 -->
<g id="Node000002" class="node">
<title>Node2</title>
<g id="a_Node000002"><a xlink:title=" ">
<polygon fill="#e0e0e0" stroke="#999999" points="269.75,-19.25 222.25,-19.25 222.25,0 269.75,0 269.75,-19.25"/>
<text text-anchor="middle" x="246" y="-5.75" font-family="Helvetica,sans-Serif" font-size="10.00">stdint.h</text>
</a>
</g>
</g>
<!-- Node1&#45;&gt;Node2 -->
<g id="edge1_Node000001_Node000002" class="edge">
<title>Node1&#45;&gt;Node2</title>
<g id="a_edge1_Node000001_Node000002"><a xlink:title=" ">
<path fill="none" stroke="#63b8ff" d="M351.14,-337.05C242.3,-329.16 0,-303.54 0,-231.62 0,-231.62 0,-231.62 0,-119.12 0,-28.19 142.45,-12.82 210.55,-10.67"/>
<polygon fill="#63b8ff" stroke="#63b8ff" points="210.53,-14.17 220.45,-10.45 210.37,-7.18 210.53,-14.17"/>
</a>
</g>
</g>
<!-- Node3 -->
<g id="Node000003" class="node">
<title>Node3</title>
<g id="a_Node000003"><a xlink:href="vdp_8h.html" target="_top" xlink:title="Data types and functions for VDP (Video Display Proccessor) access.">
<polygon fill="white" stroke="#666666" points="319.62,-295.5 280.38,-295.5 280.38,-276.25 319.62,-276.25 319.62,-295.5"/>
<text text-anchor="middle" x="300" y="-282" font-family="Helvetica,sans-Serif" font-size="10.00">vdp.h</text>
</a>
</g>
</g>
<!-- Node1&#45;&gt;Node3 -->
<g id="edge2_Node000001_Node000003" class="edge">
<title>Node1&#45;&gt;Node3</title>
<g id="a_edge2_Node000001_Node000003"><a xlink:title=" ">
<path fill="none" stroke="#63b8ff" d="M385.53,-331.09C369.69,-322.91 346.09,-310.71 327.69,-301.19"/>
<polygon fill="#63b8ff" stroke="#63b8ff" points="329.39,-298.13 318.9,-296.65 326.18,-304.35 329.39,-298.13"/>
</a>
</g>
</g>
<!-- Node8 -->
<g id="Node000008" class="node">
<title>Node8</title>
<g id="a_Node000008"><a xlink:href="vmem_8h.html" target="_top" xlink:title="Data types and functions for VRAM access.">
<polygon fill="white" stroke="#666666" points="508.25,-185 457.75,-185 457.75,-165.75 508.25,-165.75 508.25,-185"/>
<text text-anchor="middle" x="483" y="-171.5" font-family="Helvetica,sans-Serif" font-size="10.00">vmem.h</text>
</a>
</g>
</g>
<!-- Node1&#45;&gt;Node8 -->
<g id="edge30_Node000001_Node000008" class="edge">
<title>Node1&#45;&gt;Node8</title>
<g id="a_edge30_Node000001_Node000008"><a xlink:title=" ">
<path fill="none" stroke="#63b8ff" d="M410.09,-331.02C422.98,-314.07 450.34,-276.14 466,-240.25 472.13,-226.21 476.49,-209.44 479.26,-196.61"/>
<polygon fill="#63b8ff" stroke="#63b8ff" points="482.68,-197.31 481.21,-186.82 475.82,-195.94 482.68,-197.31"/>
</a>
</g>
</g>
<!-- Node15 -->
<g id="Node000015" class="node">
<title>Node15</title>
<g id="a_Node000015"><a xlink:href="sprite_8h.html" target="_top" xlink:title="Sprites.">
<polygon fill="white" stroke="#666666" points="581.75,-240.25 534.25,-240.25 534.25,-221 581.75,-221 581.75,-240.25"/>
<text text-anchor="middle" x="558" y="-226.75" font-family="Helvetica,sans-Serif" font-size="10.00">sprite.h</text>
</a>
</g>
</g>
<!-- Node1&#45;&gt;Node15 -->
<g id="edge31_Node000001_Node000015" class="edge">
<title>Node1&#45;&gt;Node15</title>
<g id="a_edge31_Node000001_Node000015"><a xlink:title=" ">
<path fill="none" stroke="#63b8ff" d="M446.37,-331.01C470.14,-324.3 498.95,-313.2 520,-295.5 534.2,-283.56 544.43,-264.89 550.68,-250.81"/>
<polygon fill="#63b8ff" stroke="#63b8ff" points="553.85,-252.29 554.41,-241.71 547.38,-249.64 553.85,-252.29"/>
</a>
</g>
</g>
<!-- Node3&#45;&gt;Node2 -->
<g id="edge5_Node000003_Node000002" class="edge">
<title>Node3&#45;&gt;Node2</title>
<g id="a_edge5_Node000003_Node000002"><a xlink:title=" ">
<path fill="none" stroke="#63b8ff" d="M279.88,-285.6C218.53,-286.69 38,-280.99 38,-176.38 38,-176.38 38,-176.38 38,-119.12 38,-42.16 151.35,-19.7 210.7,-13.21"/>
<polygon fill="#63b8ff" stroke="#63b8ff" points="211.02,-16.7 220.63,-12.24 210.34,-9.73 211.02,-16.7"/>
</a>
</g>
</g>
<!-- Node4 -->
<g id="Node000004" class="node">
<title>Node4</title>
<g id="a_Node000004"><a xlink:title=" ">
<polygon fill="#e0e0e0" stroke="#999999" points="198.25,-240.25 147.75,-240.25 147.75,-221 198.25,-221 198.25,-240.25"/>
<text text-anchor="middle" x="173" y="-226.75" font-family="Helvetica,sans-Serif" font-size="10.00">assert.h</text>
</a>
</g>
</g>
<!-- Node3&#45;&gt;Node4 -->
<g id="edge3_Node000003_Node000004" class="edge">
<title>Node3&#45;&gt;Node4</title>
<g id="a_edge3_Node000003_Node000004"><a xlink:title=" ">
<path fill="none" stroke="#63b8ff" d="M279.88,-276.44C259.83,-268.03 228.74,-254.99 205.25,-245.15"/>
<polygon fill="#63b8ff" stroke="#63b8ff" points="206.7,-241.96 196.13,-241.32 204,-248.42 206.7,-241.96"/>
</a>
</g>
</g>
<!-- Node5 -->
<g id="Node000005" class="node">
<title>Node5</title>
<g id="a_Node000005"><a xlink:title=" ">
<polygon fill="#e0e0e0" stroke="#999999" points="271.5,-240.25 216.5,-240.25 216.5,-221 271.5,-221 271.5,-240.25"/>
<text text-anchor="middle" x="244" y="-226.75" font-family="Helvetica,sans-Serif" font-size="10.00">stdbool.h</text>
</a>
</g>
</g>
<!-- Node3&#45;&gt;Node5 -->
<g id="edge4_Node000003_Node000005" class="edge">
<title>Node3&#45;&gt;Node5</title>
<g id="a_edge4_Node000003_Node000005"><a xlink:title=" ">
<path fill="none" stroke="#63b8ff" d="M290.5,-275.84C282.57,-268.3 271.05,-257.35 261.46,-248.23"/>
<polygon fill="#63b8ff" stroke="#63b8ff" points="264.11,-245.92 254.46,-241.57 259.29,-250.99 264.11,-245.92"/>
</a>
</g>
</g>
<!-- Node6 -->
<g id="Node000006" class="node">
<title>Node6</title>
<g id="a_Node000006"><a xlink:href="io_8h.html" target="_top" xlink:title="Definition of I/O ports.">
<polygon fill="white" stroke="#666666" points="423.5,-129.75 392.5,-129.75 392.5,-110.5 423.5,-110.5 423.5,-129.75"/>
<text text-anchor="middle" x="408" y="-116.25" font-family="Helvetica,sans-Serif" font-size="10.00">io.h</text>
</a>
</g>
</g>
<!-- Node3&#45;&gt;Node6 -->
<g id="edge6_Node000003_Node000006" class="edge">
<title>Node3&#45;&gt;Node6</title>
<g id="a_edge6_Node000003_Node000006"><a xlink:title=" ">
<path fill="none" stroke="#63b8ff" d="M319.75,-283.4C345.74,-280.27 390.53,-270.54 411,-240.25 431.11,-210.49 422.57,-166.32 414.98,-140.96"/>
<polygon fill="#63b8ff" stroke="#63b8ff" points="418.36,-140.03 411.94,-131.61 411.71,-142.2 418.36,-140.03"/>
</a>
</g>
</g>
<!-- Node3&#45;&gt;Node8 -->
<g id="edge9_Node000003_Node000008" class="edge">
<title>Node3&#45;&gt;Node8</title>
<g id="a_edge9_Node000003_Node000008"><a xlink:title=" ">
<path fill="none" stroke="#63b8ff" d="M319.72,-283.18C349.49,-279.72 406.42,-269.51 444,-240.25 458.74,-228.78 469.22,-210.05 475.58,-195.83"/>
<polygon fill="#63b8ff" stroke="#63b8ff" points="478.81,-197.18 479.38,-186.6 472.34,-194.52 478.81,-197.18"/>
</a>
</g>
</g>
<!-- Node10 -->
<g id="Node000010" class="node">
<title>Node10</title>
<g id="a_Node000010"><a xlink:href="vdp__unsafe_8h.html" target="_top" xlink:title="Unsafe primitive functions for VDP (Video Display Proccessor) access.">
<polygon fill="white" stroke="#666666" points="401.88,-240.25 328.12,-240.25 328.12,-221 401.88,-221 401.88,-240.25"/>
<text text-anchor="middle" x="365" y="-226.75" font-family="Helvetica,sans-Serif" font-size="10.00">vdp_unsafe.h</text>
</a>
</g>
</g>
<!-- Node3&#45;&gt;Node10 -->
<g id="edge13_Node000003_Node000010" class="edge">
<title>Node3&#45;&gt;Node10</title>
<g id="a_edge13_Node000003_Node000010"><a xlink:title=" ">
<path fill="none" stroke="#63b8ff" d="M311.03,-275.84C320.42,-268.15 334.15,-256.9 345.41,-247.68"/>
<polygon fill="#63b8ff" stroke="#63b8ff" points="347.45,-250.53 352.97,-241.48 343.01,-245.11 347.45,-250.53"/>
</a>
</g>
</g>
<!-- Node11 -->
<g id="Node000011" class="node">
<title>Node11</title>
<g id="a_Node000011"><a xlink:href="bios_8h.html" target="_top" xlink:title="C language I/F for MSX BIOS routines.">
<polygon fill="white" stroke="#666666" points="158.75,-185 117.25,-185 117.25,-165.75 158.75,-165.75 158.75,-185"/>
<text text-anchor="middle" x="138" y="-171.5" font-family="Helvetica,sans-Serif" font-size="10.00">bios.h</text>
</a>
</g>
</g>
<!-- Node3&#45;&gt;Node11 -->
<g id="edge25_Node000003_Node000011" class="edge">
<title>Node3&#45;&gt;Node11</title>
<g id="a_edge25_Node000003_Node000011"><a xlink:title=" ">
<path fill="none" stroke="#63b8ff" d="M279.88,-282.29C240.66,-276.81 156.29,-262.63 139,-240.25 129.55,-228.02 130.09,-210.18 132.55,-196.46"/>
<polygon fill="#63b8ff" stroke="#63b8ff" points="135.94,-197.3 134.77,-186.77 129.12,-195.74 135.94,-197.3"/>
</a>
</g>
</g>
<!-- Node14 -->
<g id="Node000014" class="node">
<title>Node14</title>
<g id="a_Node000014"><a xlink:href="workarea_8h.html" target="_top" xlink:title="Definitions of MSX SYSTEM Workarea.">
<polygon fill="white" stroke="#666666" points="322.62,-185 259.38,-185 259.38,-165.75 322.62,-165.75 322.62,-185"/>
<text text-anchor="middle" x="291" y="-171.5" font-family="Helvetica,sans-Serif" font-size="10.00">workarea.h</text>
</a>
</g>
</g>
<!-- Node3&#45;&gt;Node14 -->
<g id="edge26_Node000003_Node000014" class="edge">
<title>Node3&#45;&gt;Node14</title>
<g id="a_edge26_Node000003_Node000014"><a xlink:title=" ">
<path fill="none" stroke="#63b8ff" d="M299.26,-276C297.83,-258.75 294.65,-220.33 292.67,-196.56"/>
<polygon fill="#63b8ff" stroke="#63b8ff" points="296.19,-196.56 291.87,-186.89 289.21,-197.14 296.19,-196.56"/>
</a>
</g>
</g>
<!-- Node7 -->
<g id="Node000007" class="node">
<title>Node7</title>
<g id="a_Node000007"><a xlink:href="config_8h.html" target="_top" xlink:title="Hack for C Compiler portability.">
<polygon fill="white" stroke="#666666" points="297.5,-74.5 248.5,-74.5 248.5,-55.25 297.5,-55.25 297.5,-74.5"/>
<text text-anchor="middle" x="273" y="-61" font-family="Helvetica,sans-Serif" font-size="10.00">config.h</text>
</a>
</g>
</g>
<!-- Node6&#45;&gt;Node7 -->
<g id="edge7_Node000006_Node000007" class="edge">
<title>Node6&#45;&gt;Node7</title>
<g id="a_edge7_Node000006_Node000007"><a xlink:title=" ">
<path fill="none" stroke="#63b8ff" d="M392.25,-112.91C371.34,-104.67 333.88,-89.89 306.51,-79.09"/>
<polygon fill="#63b8ff" stroke="#63b8ff" points="307.84,-75.85 297.25,-75.44 305.27,-82.37 307.84,-75.85"/>
</a>
</g>
</g>
<!-- Node7&#45;&gt;Node2 -->
<g id="edge8_Node000007_Node000002" class="edge">
<title>Node7&#45;&gt;Node2</title>
<g id="a_edge8_Node000007_Node000002"><a xlink:title=" ">
<path fill="none" stroke="#63b8ff" d="M268.54,-55.08C265.05,-48.19 260.05,-38.34 255.65,-29.66"/>
<polygon fill="#63b8ff" stroke="#63b8ff" points="258.88,-28.3 251.24,-20.96 252.64,-31.46 258.88,-28.3"/>
</a>
</g>
</g>
<!-- Node8&#45;&gt;Node2 -->
<g id="edge10_Node000008_Node000002" class="edge">
<title>Node8&#45;&gt;Node2</title>
<g id="a_edge10_Node000008_Node000002"><a xlink:title=" ">
<path fill="none" stroke="#63b8ff" d="M489.8,-165.43C498.79,-152.42 512.27,-127.91 501,-110.5 452.77,-35.97 339.24,-17.03 281.32,-12.23"/>
<polygon fill="#63b8ff" stroke="#63b8ff" points="281.59,-8.74 271.36,-11.52 281.09,-15.73 281.59,-8.74"/>
</a>
</g>
</g>
<!-- Node8&#45;&gt;Node6 -->
<g id="edge12_Node000008_Node000006" class="edge">
<title>Node8&#45;&gt;Node6</title>
<g id="a_edge12_Node000008_Node000006"><a xlink:title=" ">
<path fill="none" stroke="#63b8ff" d="M470.28,-165.34C459.29,-157.54 443.16,-146.09 430.07,-136.79"/>
<polygon fill="#63b8ff" stroke="#63b8ff" points="432.2,-134.01 422.02,-131.08 428.15,-139.72 432.2,-134.01"/>
</a>
</g>
</g>
<!-- Node9 -->
<g id="Node000009" class="node">
<title>Node9</title>
<g id="a_Node000009"><a xlink:title=" ">
<polygon fill="#e0e0e0" stroke="#999999" points="492.25,-129.75 441.75,-129.75 441.75,-110.5 492.25,-110.5 492.25,-129.75"/>
<text text-anchor="middle" x="467" y="-116.25" font-family="Helvetica,sans-Serif" font-size="10.00">stddef.h</text>
</a>
</g>
</g>
<!-- Node8&#45;&gt;Node9 -->
<g id="edge11_Node000008_Node000009" class="edge">
<title>Node8&#45;&gt;Node9</title>
<g id="a_edge11_Node000008_Node000009"><a xlink:title=" ">
<path fill="none" stroke="#63b8ff" d="M480.36,-165.58C478.36,-158.92 475.52,-149.49 472.98,-141.03"/>
<polygon fill="#63b8ff" stroke="#63b8ff" points="476.36,-140.13 470.14,-131.56 469.66,-142.14 476.36,-140.13"/>
</a>
</g>
</g>
<!-- Node10&#45;&gt;Node2 -->
<g id="edge14_Node000010_Node000002" class="edge">
<title>Node10&#45;&gt;Node2</title>
<g id="a_edge14_Node000010_Node000002"><a xlink:title=" ">
<path fill="none" stroke="#63b8ff" d="M365.28,-220.63C365.67,-193 363.43,-108.09 324,-55.25 313.08,-40.62 295.85,-30.04 280.36,-22.87"/>
<polygon fill="#63b8ff" stroke="#63b8ff" points="281.97,-19.75 271.4,-19.03 279.22,-26.19 281.97,-19.75"/>
</a>
</g>
</g>
<!-- Node10&#45;&gt;Node6 -->
<g id="edge15_Node000010_Node000006" class="edge">
<title>Node10&#45;&gt;Node6</title>
<g id="a_edge15_Node000010_Node000006"><a xlink:title=" ">
<path fill="none" stroke="#63b8ff" d="M368.52,-220.75C375.42,-203.34 390.86,-164.37 400.26,-140.66"/>
<polygon fill="#63b8ff" stroke="#63b8ff" points="403.44,-142.12 403.87,-131.53 396.94,-139.54 403.44,-142.12"/>
</a>
</g>
</g>
<!-- Node10&#45;&gt;Node8 -->
<g id="edge16_Node000010_Node000008" class="edge">
<title>Node10&#45;&gt;Node8</title>
<g id="a_edge16_Node000010_Node000008"><a xlink:title=" ">
<path fill="none" stroke="#63b8ff" d="M385.02,-220.59C403.49,-212.25 431.21,-199.75 452.45,-190.16"/>
<polygon fill="#63b8ff" stroke="#63b8ff" points="453.83,-193.38 461.51,-186.08 450.95,-187 453.83,-193.38"/>
</a>
</g>
</g>
<!-- Node10&#45;&gt;Node11 -->
<g id="edge17_Node000010_Node000011" class="edge">
<title>Node10&#45;&gt;Node11</title>
<g id="a_edge17_Node000010_Node000011"><a xlink:title=" ">
<path fill="none" stroke="#63b8ff" d="M327.77,-220.89C283.94,-210.61 211.88,-193.71 170.31,-183.95"/>
<polygon fill="#63b8ff" stroke="#63b8ff" points="171.21,-180.57 160.67,-181.69 169.61,-187.38 171.21,-180.57"/>
</a>
</g>
</g>
<!-- Node11&#45;&gt;Node2 -->
<g id="edge18_Node000011_Node000002" class="edge">
<title>Node11&#45;&gt;Node2</title>
<g id="a_edge18_Node000011_Node000002"><a xlink:title=" ">
<path fill="none" stroke="#63b8ff" d="M124.48,-165.43C108.08,-153.39 83.92,-131.11 95,-110.5 119.48,-64.96 174.84,-36.71 211.29,-22.33"/>
<polygon fill="#63b8ff" stroke="#63b8ff" points="212.41,-25.65 220.52,-18.85 209.93,-19.1 212.41,-25.65"/>
</a>
</g>
</g>
<!-- Node12 -->
<g id="Node000012" class="node">
<title>Node12</title>
<g id="a_Node000012"><a xlink:href="bios__const_8h.html" target="_top" xlink:title="Constant variables in the MSX BIOS ROM.">
<polygon fill="white" stroke="#666666" points="260.38,-129.75 189.62,-129.75 189.62,-110.5 260.38,-110.5 260.38,-129.75"/>
<text text-anchor="middle" x="225" y="-116.25" font-family="Helvetica,sans-Serif" font-size="10.00">bios_const.h</text>
</a>
</g>
</g>
<!-- Node11&#45;&gt;Node12 -->
<g id="edge19_Node000011_Node000012" class="edge">
<title>Node11&#45;&gt;Node12</title>
<g id="a_edge19_Node000011_Node000012"><a xlink:title=" ">
<path fill="none" stroke="#63b8ff" d="M152.76,-165.34C165.88,-157.31 185.32,-145.41 200.73,-135.98"/>
<polygon fill="#63b8ff" stroke="#63b8ff" points="202.18,-139.2 208.88,-130.99 198.52,-133.23 202.18,-139.2"/>
</a>
</g>
</g>
<!-- Node13 -->
<g id="Node000013" class="node">
<title>Node13</title>
<g id="a_Node000013"><a xlink:href="bios__entry_8h.html" target="_top" xlink:title="Assembler entry points for MSX BIOS functions.">
<polygon fill="white" stroke="#666666" points="171.88,-129.75 104.12,-129.75 104.12,-110.5 171.88,-110.5 171.88,-129.75"/>
<text text-anchor="middle" x="138" y="-116.25" font-family="Helvetica,sans-Serif" font-size="10.00">bios_entry.h</text>
</a>
</g>
</g>
<!-- Node11&#45;&gt;Node13 -->
<g id="edge22_Node000011_Node000013" class="edge">
<title>Node11&#45;&gt;Node13</title>
<g id="a_edge22_Node000011_Node000013"><a xlink:title=" ">
<path fill="none" stroke="#63b8ff" d="M138,-165.58C138,-159.07 138,-149.92 138,-141.62"/>
<polygon fill="#63b8ff" stroke="#63b8ff" points="141.5,-141.62 138,-131.62 134.5,-141.62 141.5,-141.62"/>
</a>
</g>
</g>
<!-- Node12&#45;&gt;Node2 -->
<g id="edge20_Node000012_Node000002" class="edge">
<title>Node12&#45;&gt;Node2</title>
<g id="a_edge20_Node000012_Node000002"><a xlink:title=" ">
<path fill="none" stroke="#63b8ff" d="M226.72,-110.25C230.06,-93 237.49,-54.58 242.09,-30.81"/>
<polygon fill="#63b8ff" stroke="#63b8ff" points="245.51,-31.6 243.97,-21.11 238.63,-30.27 245.51,-31.6"/>
</a>
</g>
</g>
<!-- Node12&#45;&gt;Node7 -->
<g id="edge21_Node000012_Node000007" class="edge">
<title>Node12&#45;&gt;Node7</title>
<g id="a_edge21_Node000012_Node000007"><a xlink:title=" ">
<path fill="none" stroke="#63b8ff" d="M232.93,-110.33C239.56,-102.98 249.22,-92.26 257.39,-83.19"/>
<polygon fill="#63b8ff" stroke="#63b8ff" points="259.79,-85.75 263.89,-75.98 254.59,-81.07 259.79,-85.75"/>
</a>
</g>
</g>
<!-- Node13&#45;&gt;Node2 -->
<g id="edge23_Node000013_Node000002" class="edge">
<title>Node13&#45;&gt;Node2</title>
<g id="a_edge23_Node000013_Node000002"><a xlink:title=" ">
<path fill="none" stroke="#63b8ff" d="M146.84,-110.25C164.8,-92.21 205.81,-51 229.08,-27.63"/>
<polygon fill="#63b8ff" stroke="#63b8ff" points="231.4,-30.26 235.97,-20.7 226.44,-25.32 231.4,-30.26"/>
</a>
</g>
</g>
<!-- Node13&#45;&gt;Node7 -->
<g id="edge24_Node000013_Node000007" class="edge">
<title>Node13&#45;&gt;Node7</title>
<g id="a_edge24_Node000013_Node000007"><a xlink:title=" ">
<path fill="none" stroke="#63b8ff" d="M160.9,-110.09C182.43,-101.6 214.91,-88.79 239.38,-79.14"/>
<polygon fill="#63b8ff" stroke="#63b8ff" points="240.56,-82.43 248.58,-75.51 237.99,-75.92 240.56,-82.43"/>
</a>
</g>
</g>
<!-- Node14&#45;&gt;Node2 -->
<g id="edge27_Node000014_Node000002" class="edge">
<title>Node14&#45;&gt;Node2</title>
<g id="a_edge27_Node000014_Node000002"><a xlink:title=" ">
<path fill="none" stroke="#63b8ff" d="M295.53,-165.42C305.29,-144.76 325.98,-92.65 307,-55.25 300.57,-42.58 288.67,-32.64 277.07,-25.4"/>
<polygon fill="#63b8ff" stroke="#63b8ff" points="278.84,-22.38 268.42,-20.47 275.37,-28.46 278.84,-22.38"/>
</a>
</g>
</g>
<!-- Node14&#45;&gt;Node7 -->
<g id="edge28_Node000014_Node000007" class="edge">
<title>Node14&#45;&gt;Node7</title>
<g id="a_edge28_Node000014_Node000007"><a xlink:title=" ">
<path fill="none" stroke="#63b8ff" d="M289.53,-165.5C286.67,-148.25 280.29,-109.83 276.35,-86.06"/>
<polygon fill="#63b8ff" stroke="#63b8ff" points="279.83,-85.66 274.74,-76.37 272.92,-86.81 279.83,-85.66"/>
</a>
</g>
</g>
<!-- Node14&#45;&gt;Node12 -->
<g id="edge29_Node000014_Node000012" class="edge">
<title>Node14&#45;&gt;Node12</title>
<g id="a_edge29_Node000014_Node000012"><a xlink:title=" ">
<path fill="none" stroke="#63b8ff" d="M279.8,-165.34C270.26,-157.65 256.33,-146.4 244.89,-137.18"/>
<polygon fill="#63b8ff" stroke="#63b8ff" points="247.19,-134.53 237.21,-130.98 242.79,-139.98 247.19,-134.53"/>
</a>
</g>
</g>
<!-- Node15&#45;&gt;Node2 -->
<g id="edge32_Node000015_Node000002" class="edge">
<title>Node15&#45;&gt;Node2</title>
<g id="a_edge32_Node000015_Node000002"><a xlink:title=" ">
<path fill="none" stroke="#63b8ff" d="M556.72,-220.86C551.82,-190.79 531.11,-91.72 467,-55.25 407.82,-21.58 327.02,-13.06 281.31,-11.06"/>
<polygon fill="#63b8ff" stroke="#63b8ff" points="281.57,-7.57 271.45,-10.72 281.32,-14.57 281.57,-7.57"/>
</a>
</g>
</g>
<!-- Node15&#45;&gt;Node8 -->
<g id="edge33_Node000015_Node000008" class="edge">
<title>Node15&#45;&gt;Node8</title>
<g id="a_edge33_Node000015_Node000008"><a xlink:title=" ">
<path fill="none" stroke="#63b8ff" d="M545.28,-220.59C534.29,-212.79 518.16,-201.34 505.07,-192.04"/>
<polygon fill="#63b8ff" stroke="#63b8ff" points="507.2,-189.26 497.02,-186.33 503.15,-194.97 507.2,-189.26"/>
</a>
</g>
</g>
</g>
</svg>
