<?xml version="1.0" encoding="UTF-8" standalone="no"?>
<!DOCTYPE svg PUBLIC "-//W3C//DTD SVG 1.1//EN"
 "http://www.w3.org/Graphics/SVG/1.1/DTD/svg11.dtd">
<!-- Generated by graphviz version 7.0.5 (20221223.1930)
 -->
<!-- Title: include/metasprite.h Pages: 1 -->
<svg width="567pt" height="302pt"
 viewBox="0.00 0.00 566.92 302.00" xmlns="http://www.w3.org/2000/svg" xmlns:xlink="http://www.w3.org/1999/xlink">
<g id="graph0" class="graph" transform="scale(1 1) rotate(0) translate(4 298)">
<title>include/metasprite.h</title>
<!-- Node1 -->
<g id="node1" class="node">
<title>Node1</title>
<g id="a_node1"><a xlink:title="Meta&#45;sprite ; an aggregate of sprites.">
<polygon fill="#999999" stroke="#666666" points="171,-294 67,-294 67,-275 171,-275 171,-294"/>
<text text-anchor="middle" x="119" y="-282" font-family="Helvetica,sans-Serif" font-size="10.00">include/metasprite.h</text>
</a>
</g>
</g>
<!-- Node2 -->
<g id="node2" class="node">
<title>Node2</title>
<g id="a_node2"><a xlink:title=" ">
<polygon fill="#e0e0e0" stroke="#999999" points="263,-19 215,-19 215,0 263,0 263,-19"/>
<text text-anchor="middle" x="239" y="-7" font-family="Helvetica,sans-Serif" font-size="10.00">stdint.h</text>
</a>
</g>
</g>
<!-- Node1&#45;&gt;Node2 -->
<g id="edge1" class="edge">
<title>Node1&#45;&gt;Node2</title>
<path fill="none" stroke="#63b8ff" d="M95.49,-274.62C60.81,-259.81 0,-226.56 0,-175.5 0,-175.5 0,-175.5 0,-118.5 0,-30.23 137.06,-13.71 203.59,-10.9"/>
<polygon fill="#63b8ff" stroke="#63b8ff" points="203.38,-14.41 213.26,-10.58 203.14,-7.41 203.38,-14.41"/>
</g>
<!-- Node3 -->
<g id="node3" class="node">
<title>Node3</title>
<g id="a_node3"><a xlink:href="vdp_8h.html" target="_top" xlink:title="Data types and functions for VDP (Video Display Proccessor) access.">
<polygon fill="white" stroke="#666666" points="339,-239 299,-239 299,-220 339,-220 339,-239"/>
<text text-anchor="middle" x="319" y="-227" font-family="Helvetica,sans-Serif" font-size="10.00">vdp.h</text>
</a>
</g>
</g>
<!-- Node1&#45;&gt;Node3 -->
<g id="edge2" class="edge">
<title>Node1&#45;&gt;Node3</title>
<path fill="none" stroke="#63b8ff" d="M152.93,-274.51C190.64,-264.52 251.04,-248.51 287.67,-238.8"/>
<polygon fill="#63b8ff" stroke="#63b8ff" points="288.44,-242.22 297.21,-236.28 286.64,-235.45 288.44,-242.22"/>
</g>
<!-- Node8 -->
<g id="node8" class="node">
<title>Node8</title>
<g id="a_node8"><a xlink:href="vmem_8h.html" target="_top" xlink:title="Data types and functions for VRAM access.">
<polygon fill="white" stroke="#666666" points="210.5,-129 159.5,-129 159.5,-110 210.5,-110 210.5,-129"/>
<text text-anchor="middle" x="185" y="-117" font-family="Helvetica,sans-Serif" font-size="10.00">vmem.h</text>
</a>
</g>
</g>
<!-- Node1&#45;&gt;Node8 -->
<g id="edge28" class="edge">
<title>Node1&#45;&gt;Node8</title>
<path fill="none" stroke="#63b8ff" d="M121.61,-274.7C127.62,-254.78 143.29,-204.9 161,-165 164.82,-156.38 169.66,-147.17 173.99,-139.37"/>
<polygon fill="#63b8ff" stroke="#63b8ff" points="176.96,-141.23 178.87,-130.81 170.87,-137.77 176.96,-141.23"/>
</g>
<!-- Node14 -->
<g id="node14" class="node">
<title>Node14</title>
<g id="a_node14"><a xlink:href="sprite_8h.html" target="_top" xlink:title="Sprites.">
<polygon fill="white" stroke="#666666" points="76,-184 28,-184 28,-165 76,-165 76,-184"/>
<text text-anchor="middle" x="52" y="-172" font-family="Helvetica,sans-Serif" font-size="10.00">sprite.h</text>
</a>
</g>
</g>
<!-- Node1&#45;&gt;Node14 -->
<g id="edge29" class="edge">
<title>Node1&#45;&gt;Node14</title>
<path fill="none" stroke="#63b8ff" d="M113.52,-274.66C102.62,-257.1 78.04,-217.48 63.47,-193.98"/>
<polygon fill="#63b8ff" stroke="#63b8ff" points="66.6,-192.4 58.36,-185.75 60.65,-196.09 66.6,-192.4"/>
</g>
<!-- Node3&#45;&gt;Node2 -->
<g id="edge5" class="edge">
<title>Node3&#45;&gt;Node2</title>
<path fill="none" stroke="#63b8ff" d="M298.57,-229.14C264.64,-229 196.86,-223.42 161,-184 138.67,-159.45 139.24,-141.04 151,-110 164.31,-74.87 196.31,-44.16 217.83,-26.47"/>
<polygon fill="#63b8ff" stroke="#63b8ff" points="219.76,-29.4 225.41,-20.44 215.41,-23.92 219.76,-29.4"/>
</g>
<!-- Node4 -->
<g id="node4" class="node">
<title>Node4</title>
<g id="a_node4"><a xlink:title=" ">
<polygon fill="#e0e0e0" stroke="#999999" points="539.5,-184 488.5,-184 488.5,-165 539.5,-165 539.5,-184"/>
<text text-anchor="middle" x="514" y="-172" font-family="Helvetica,sans-Serif" font-size="10.00">assert.h</text>
</a>
</g>
</g>
<!-- Node3&#45;&gt;Node4 -->
<g id="edge3" class="edge">
<title>Node3&#45;&gt;Node4</title>
<path fill="none" stroke="#63b8ff" d="M339.5,-222.93C372.14,-214.06 436.4,-196.59 477.17,-185.51"/>
<polygon fill="#63b8ff" stroke="#63b8ff" points="478.06,-188.89 486.79,-182.89 476.23,-182.14 478.06,-188.89"/>
</g>
<!-- Node5 -->
<g id="node5" class="node">
<title>Node5</title>
<g id="a_node5"><a xlink:title=" ">
<polygon fill="#e0e0e0" stroke="#999999" points="226,-184 170,-184 170,-165 226,-165 226,-184"/>
<text text-anchor="middle" x="198" y="-172" font-family="Helvetica,sans-Serif" font-size="10.00">stdbool.h</text>
</a>
</g>
</g>
<!-- Node3&#45;&gt;Node5 -->
<g id="edge4" class="edge">
<title>Node3&#45;&gt;Node5</title>
<path fill="none" stroke="#63b8ff" d="M298.75,-219.63C279.64,-211.26 250.73,-198.6 228.77,-188.98"/>
<polygon fill="#63b8ff" stroke="#63b8ff" points="230.27,-185.81 219.71,-185.01 227.46,-192.23 230.27,-185.81"/>
</g>
<!-- Node6 -->
<g id="node6" class="node">
<title>Node6</title>
<g id="a_node6"><a xlink:href="io_8h.html" target="_top" xlink:title="Definition of I/O ports.">
<polygon fill="white" stroke="#666666" points="299,-74 267,-74 267,-55 299,-55 299,-74"/>
<text text-anchor="middle" x="283" y="-62" font-family="Helvetica,sans-Serif" font-size="10.00">io.h</text>
</a>
</g>
</g>
<!-- Node3&#45;&gt;Node6 -->
<g id="edge6" class="edge">
<title>Node3&#45;&gt;Node6</title>
<path fill="none" stroke="#63b8ff" d="M333.23,-219.51C344.21,-211.65 358.58,-199.14 365,-184 368.3,-176.23 367.85,-172.95 365,-165 352.67,-130.65 322.79,-99.7 302.71,-81.75"/>
<polygon fill="#63b8ff" stroke="#63b8ff" points="305.27,-79.33 295.42,-75.44 300.69,-84.63 305.27,-79.33"/>
</g>
<!-- Node3&#45;&gt;Node8 -->
<g id="edge8" class="edge">
<title>Node3&#45;&gt;Node8</title>
<path fill="none" stroke="#63b8ff" d="M308.03,-219.66C285.46,-201.47 233.51,-159.6 204.86,-136.51"/>
<polygon fill="#63b8ff" stroke="#63b8ff" points="207.28,-133.96 197.3,-130.41 202.89,-139.41 207.28,-133.96"/>
</g>
<!-- Node9 -->
<g id="node9" class="node">
<title>Node9</title>
<g id="a_node9"><a xlink:href="vdp__unsafe_8h.html" target="_top" xlink:title="Unsafe primitive functions for VDP (Video Display Proccessor) access.">
<polygon fill="white" stroke="#666666" points="356,-184 282,-184 282,-165 356,-165 356,-184"/>
<text text-anchor="middle" x="319" y="-172" font-family="Helvetica,sans-Serif" font-size="10.00">vdp_unsafe.h</text>
</a>
</g>
</g>
<!-- Node3&#45;&gt;Node9 -->
<g id="edge11" class="edge">
<title>Node3&#45;&gt;Node9</title>
<path fill="none" stroke="#63b8ff" d="M319,-219.75C319,-213.27 319,-204.16 319,-195.9"/>
<polygon fill="#63b8ff" stroke="#63b8ff" points="322.5,-195.96 319,-185.96 315.5,-195.96 322.5,-195.96"/>
</g>
<!-- Node10 -->
<g id="node10" class="node">
<title>Node10</title>
<g id="a_node10"><a xlink:href="bios_8h.html" target="_top" xlink:title="C language I/F for MSX BIOS routines.">
<polygon fill="white" stroke="#666666" points="446,-129 404,-129 404,-110 446,-110 446,-129"/>
<text text-anchor="middle" x="425" y="-117" font-family="Helvetica,sans-Serif" font-size="10.00">bios.h</text>
</a>
</g>
</g>
<!-- Node3&#45;&gt;Node10 -->
<g id="edge23" class="edge">
<title>Node3&#45;&gt;Node10</title>
<path fill="none" stroke="#63b8ff" d="M339.28,-221.4C356.86,-214.34 381.94,-201.95 398,-184 409.13,-171.56 416.14,-153.85 420.22,-140.29"/>
<polygon fill="#63b8ff" stroke="#63b8ff" points="423.58,-141.3 422.79,-130.74 416.82,-139.49 423.58,-141.3"/>
</g>
<!-- Node13 -->
<g id="node13" class="node">
<title>Node13</title>
<g id="a_node13"><a xlink:href="workarea_8h.html" target="_top" xlink:title="Definitions of MSX SYSTEM Workarea.">
<polygon fill="white" stroke="#666666" points="536,-129 472,-129 472,-110 536,-110 536,-129"/>
<text text-anchor="middle" x="504" y="-117" font-family="Helvetica,sans-Serif" font-size="10.00">workarea.h</text>
</a>
</g>
</g>
<!-- Node3&#45;&gt;Node13 -->
<g id="edge24" class="edge">
<title>Node3&#45;&gt;Node13</title>
<path fill="none" stroke="#63b8ff" d="M339.34,-220.84C359.81,-212.8 391.97,-199.22 418,-184 442.24,-169.82 467.87,-150.22 484.78,-136.56"/>
<polygon fill="#63b8ff" stroke="#63b8ff" points="486.96,-139.3 492.48,-130.25 482.52,-133.88 486.96,-139.3"/>
</g>
<!-- Node7 -->
<g id="node7" class="node">
<title>Node7</title>
<g id="a_node7"><a xlink:href="config_8h.html" target="_top" xlink:title="Hack for C Compiler portability.">
<polygon fill="white" stroke="#666666" points="458,-19 408,-19 408,0 458,0 458,-19"/>
<text text-anchor="middle" x="433" y="-7" font-family="Helvetica,sans-Serif" font-size="10.00">config.h</text>
</a>
</g>
</g>
<!-- Node6&#45;&gt;Node7 -->
<g id="edge7" class="edge">
<title>Node6&#45;&gt;Node7</title>
<path fill="none" stroke="#63b8ff" d="M299.34,-57.73C322.6,-49.51 365.88,-34.21 396.9,-23.26"/>
<polygon fill="#63b8ff" stroke="#63b8ff" points="398.02,-26.57 406.28,-19.94 395.69,-19.97 398.02,-26.57"/>
</g>
<!-- Node8&#45;&gt;Node2 -->
<g id="edge9" class="edge">
<title>Node8&#45;&gt;Node2</title>
<path fill="none" stroke="#63b8ff" d="M189.42,-109.66C198.12,-92.26 217.65,-53.19 229.44,-29.62"/>
<polygon fill="#63b8ff" stroke="#63b8ff" points="232.5,-31.32 233.84,-20.81 226.24,-28.19 232.5,-31.32"/>
</g>
<!-- Node8&#45;&gt;Node6 -->
<g id="edge10" class="edge">
<title>Node8&#45;&gt;Node6</title>
<path fill="none" stroke="#63b8ff" d="M201.62,-109.51C216.78,-101.31 239.42,-89.07 256.97,-79.58"/>
<polygon fill="#63b8ff" stroke="#63b8ff" points="258.16,-82.91 265.29,-75.08 254.83,-76.76 258.16,-82.91"/>
</g>
<!-- Node9&#45;&gt;Node2 -->
<g id="edge12" class="edge">
<title>Node9&#45;&gt;Node2</title>
<path fill="none" stroke="#63b8ff" d="M312.45,-164.61C300.25,-147.73 273.88,-109.52 258,-74 251.73,-59.98 246.83,-43.31 243.58,-30.57"/>
<polygon fill="#63b8ff" stroke="#63b8ff" points="246.99,-29.76 241.24,-20.86 240.18,-31.4 246.99,-29.76"/>
</g>
<!-- Node9&#45;&gt;Node6 -->
<g id="edge13" class="edge">
<title>Node9&#45;&gt;Node6</title>
<path fill="none" stroke="#63b8ff" d="M316.05,-164.66C310.31,-147.42 297.47,-108.9 289.59,-85.27"/>
<polygon fill="#63b8ff" stroke="#63b8ff" points="292.95,-84.28 286.47,-75.9 286.31,-86.49 292.95,-84.28"/>
</g>
<!-- Node9&#45;&gt;Node8 -->
<g id="edge14" class="edge">
<title>Node9&#45;&gt;Node8</title>
<path fill="none" stroke="#63b8ff" d="M296.27,-164.51C274.77,-156.01 242.27,-143.15 217.93,-133.53"/>
<polygon fill="#63b8ff" stroke="#63b8ff" points="219.39,-130.34 208.8,-129.91 216.81,-136.85 219.39,-130.34"/>
</g>
<!-- Node9&#45;&gt;Node10 -->
<g id="edge15" class="edge">
<title>Node9&#45;&gt;Node10</title>
<path fill="none" stroke="#63b8ff" d="M336.98,-164.51C353.45,-156.27 378.09,-143.96 397.11,-134.45"/>
<polygon fill="#63b8ff" stroke="#63b8ff" points="398.55,-137.64 405.93,-130.03 395.42,-131.38 398.55,-137.64"/>
</g>
<!-- Node10&#45;&gt;Node2 -->
<g id="edge16" class="edge">
<title>Node10&#45;&gt;Node2</title>
<path fill="none" stroke="#63b8ff" d="M408.9,-109.57C392.89,-100.66 367.67,-86.53 346,-74 317.56,-57.55 285.14,-38.23 263.51,-25.26"/>
<polygon fill="#63b8ff" stroke="#63b8ff" points="265.5,-22.37 255.12,-20.22 261.89,-28.37 265.5,-22.37"/>
</g>
<!-- Node11 -->
<g id="node11" class="node">
<title>Node11</title>
<g id="a_node11"><a xlink:href="bios__const_8h.html" target="_top" xlink:title="Constant variables in the MSX BIOS ROM.">
<polygon fill="white" stroke="#666666" points="512.5,-74 441.5,-74 441.5,-55 512.5,-55 512.5,-74"/>
<text text-anchor="middle" x="477" y="-62" font-family="Helvetica,sans-Serif" font-size="10.00">bios_const.h</text>
</a>
</g>
</g>
<!-- Node10&#45;&gt;Node11 -->
<g id="edge17" class="edge">
<title>Node10&#45;&gt;Node11</title>
<path fill="none" stroke="#63b8ff" d="M433.59,-109.75C440.84,-102.35 451.45,-91.54 460.37,-82.45"/>
<polygon fill="#63b8ff" stroke="#63b8ff" points="462.66,-85.11 467.17,-75.52 457.66,-80.21 462.66,-85.11"/>
</g>
<!-- Node12 -->
<g id="node12" class="node">
<title>Node12</title>
<g id="a_node12"><a xlink:href="bios__entry_8h.html" target="_top" xlink:title="Assembler entry points for MSX BIOS functions.">
<polygon fill="white" stroke="#666666" points="423,-74 355,-74 355,-55 423,-55 423,-74"/>
<text text-anchor="middle" x="389" y="-62" font-family="Helvetica,sans-Serif" font-size="10.00">bios_entry.h</text>
</a>
</g>
</g>
<!-- Node10&#45;&gt;Node12 -->
<g id="edge20" class="edge">
<title>Node10&#45;&gt;Node12</title>
<path fill="none" stroke="#63b8ff" d="M419.06,-109.75C414.29,-102.73 407.44,-92.64 401.48,-83.87"/>
<polygon fill="#63b8ff" stroke="#63b8ff" points="404.44,-82 395.92,-75.69 398.65,-85.93 404.44,-82"/>
</g>
<!-- Node11&#45;&gt;Node2 -->
<g id="edge18" class="edge">
<title>Node11&#45;&gt;Node2</title>
<path fill="none" stroke="#63b8ff" d="M441.11,-55.51C396.05,-45.47 319.24,-28.37 274.41,-18.38"/>
<polygon fill="#63b8ff" stroke="#63b8ff" points="275.2,-14.98 264.68,-16.22 273.68,-21.81 275.2,-14.98"/>
</g>
<!-- Node11&#45;&gt;Node7 -->
<g id="edge19" class="edge">
<title>Node11&#45;&gt;Node7</title>
<path fill="none" stroke="#63b8ff" d="M469.73,-54.75C463.72,-47.5 454.99,-36.98 447.54,-28.02"/>
<polygon fill="#63b8ff" stroke="#63b8ff" points="450.47,-26.07 441.39,-20.61 445.08,-30.54 450.47,-26.07"/>
</g>
<!-- Node12&#45;&gt;Node2 -->
<g id="edge21" class="edge">
<title>Node12&#45;&gt;Node2</title>
<path fill="none" stroke="#63b8ff" d="M363.55,-54.51C338.87,-45.79 301.22,-32.49 273.78,-22.79"/>
<polygon fill="#63b8ff" stroke="#63b8ff" points="275.1,-19.54 264.51,-19.51 272.77,-26.14 275.1,-19.54"/>
</g>
<!-- Node12&#45;&gt;Node7 -->
<g id="edge22" class="edge">
<title>Node12&#45;&gt;Node7</title>
<path fill="none" stroke="#63b8ff" d="M396.27,-54.75C402.28,-47.5 411.01,-36.98 418.46,-28.02"/>
<polygon fill="#63b8ff" stroke="#63b8ff" points="420.92,-30.54 424.61,-20.61 415.53,-26.07 420.92,-30.54"/>
</g>
<!-- Node13&#45;&gt;Node2 -->
<g id="edge25" class="edge">
<title>Node13&#45;&gt;Node2</title>
<path fill="none" stroke="#63b8ff" d="M511.04,-109.62C520.74,-96.26 535.55,-70.85 522,-55 506.08,-36.38 347.03,-20.06 274.6,-13.53"/>
<polygon fill="#63b8ff" stroke="#63b8ff" points="275.12,-10.06 264.85,-12.67 274.5,-17.04 275.12,-10.06"/>
</g>
<!-- Node13&#45;&gt;Node7 -->
<g id="edge26" class="edge">
<title>Node13&#45;&gt;Node7</title>
<path fill="none" stroke="#63b8ff" d="M520.35,-109.54C540.14,-97.5 569.19,-75.27 555,-55 535.86,-27.64 498.03,-17.05 469.55,-12.97"/>
<polygon fill="#63b8ff" stroke="#63b8ff" points="470.23,-9.53 459.88,-11.81 469.4,-16.48 470.23,-9.53"/>
</g>
<!-- Node13&#45;&gt;Node11 -->
<g id="edge27" class="edge">
<title>Node13&#45;&gt;Node11</title>
<path fill="none" stroke="#63b8ff" d="M499.54,-109.75C496.05,-102.88 491.05,-93.08 486.65,-84.45"/>
<polygon fill="#63b8ff" stroke="#63b8ff" points="489.9,-83.11 482.24,-75.79 483.66,-86.29 489.9,-83.11"/>
</g>
<!-- Node14&#45;&gt;Node2 -->
<g id="edge30" class="edge">
<title>Node14&#45;&gt;Node2</title>
<path fill="none" stroke="#63b8ff" d="M52.17,-164.64C53.08,-142.78 58.52,-85.85 90,-55 120.44,-25.16 170.01,-15.2 203.53,-11.95"/>
<polygon fill="#63b8ff" stroke="#63b8ff" points="203.46,-15.47 213.15,-11.18 202.91,-8.49 203.46,-15.47"/>
</g>
<!-- Node14&#45;&gt;Node8 -->
<g id="edge31" class="edge">
<title>Node14&#45;&gt;Node8</title>
<path fill="none" stroke="#63b8ff" d="M74.56,-164.51C95.9,-156.01 128.16,-143.15 152.31,-133.53"/>
<polygon fill="#63b8ff" stroke="#63b8ff" points="153.37,-136.87 161.37,-129.92 150.78,-130.37 153.37,-136.87"/>
</g>
</g>
</svg>
