<?xml version="1.0" encoding="UTF-8" standalone="no"?>
<!DOCTYPE svg PUBLIC "-//W3C//DTD SVG 1.1//EN"
 "http://www.w3.org/Graphics/SVG/1.1/DTD/svg11.dtd">
<!-- Generated by graphviz version 2.44.0 ()
 -->
<!-- Title: include/metasprite.h Pages: 1 -->
<svg width="477pt" height="196pt"
 viewBox="0.00 0.00 476.63 196.00" xmlns="http://www.w3.org/2000/svg" xmlns:xlink="http://www.w3.org/1999/xlink">
<g id="graph0" class="graph" transform="scale(1 1) rotate(0) translate(4 192)">
<title>include/metasprite.h</title>
<!-- Node1 -->
<g id="node1" class="node">
<title>Node1</title>
<g id="a_node1"><a xlink:title="Copyright (c) 2021 Daishi Mori (mori0091)">
<polygon fill="#bfbfbf" stroke="black" points="83.5,-168.5 83.5,-187.5 187.5,-187.5 187.5,-168.5 83.5,-168.5"/>
<text text-anchor="middle" x="135.5" y="-175.5" font-family="Helvetica,sans-Serif" font-size="10.00">include/metasprite.h</text>
</a>
</g>
</g>
<!-- Node2 -->
<g id="node2" class="node">
<title>Node2</title>
<g id="a_node2"><a xlink:title=" ">
<polygon fill="none" stroke="#bfbfbf" points="229.5,-0.5 229.5,-19.5 277.5,-19.5 277.5,-0.5 229.5,-0.5"/>
<text text-anchor="middle" x="253.5" y="-7.5" font-family="Helvetica,sans-Serif" font-size="10.00">stdint.h</text>
</a>
</g>
</g>
<!-- Node1&#45;&gt;Node2 -->
<g id="edge1" class="edge">
<title>Node1&#45;&gt;Node2</title>
<path fill="none" stroke="midnightblue" d="M187.47,-168.46C270.69,-153.6 427.87,-120.31 460.5,-76 504.69,-15.99 356.94,-9.91 287.54,-10.25"/>
<polygon fill="midnightblue" stroke="midnightblue" points="287.47,-6.75 277.5,-10.34 287.54,-13.75 287.47,-6.75"/>
</g>
<!-- Node3 -->
<g id="node3" class="node">
<title>Node3</title>
<g id="a_node3"><a xlink:href="vdp_8h.html" target="_top" xlink:title="Data types and functions for VDP (Video Display Proccessor) access.">
<polygon fill="none" stroke="black" points="190.5,-112.5 190.5,-131.5 230.5,-131.5 230.5,-112.5 190.5,-112.5"/>
<text text-anchor="middle" x="210.5" y="-119.5" font-family="Helvetica,sans-Serif" font-size="10.00">vdp.h</text>
</a>
</g>
</g>
<!-- Node1&#45;&gt;Node3 -->
<g id="edge2" class="edge">
<title>Node1&#45;&gt;Node3</title>
<path fill="none" stroke="midnightblue" d="M147.55,-168.32C158.96,-160.11 176.33,-147.6 189.93,-137.81"/>
<polygon fill="midnightblue" stroke="midnightblue" points="192.16,-140.52 198.23,-131.83 188.07,-134.84 192.16,-140.52"/>
</g>
<!-- Node7 -->
<g id="node7" class="node">
<title>Node7</title>
<g id="a_node7"><a xlink:href="vmem_8h.html" target="_top" xlink:title="Copyright (c) 2021 Daishi Mori (mori0091)">
<polygon fill="none" stroke="black" points="0,-56.5 0,-75.5 51,-75.5 51,-56.5 0,-56.5"/>
<text text-anchor="middle" x="25.5" y="-63.5" font-family="Helvetica,sans-Serif" font-size="10.00">vmem.h</text>
</a>
</g>
</g>
<!-- Node1&#45;&gt;Node7 -->
<g id="edge14" class="edge">
<title>Node1&#45;&gt;Node7</title>
<path fill="none" stroke="midnightblue" d="M105.26,-168.4C85.97,-161.48 61.81,-149.89 46.5,-132 35.31,-118.92 30.06,-99.77 27.61,-85.64"/>
<polygon fill="midnightblue" stroke="midnightblue" points="31.05,-85.01 26.18,-75.6 24.12,-85.99 31.05,-85.01"/>
</g>
<!-- Node10 -->
<g id="node10" class="node">
<title>Node10</title>
<g id="a_node10"><a xlink:href="sprite_8h.html" target="_top" xlink:title="Copyright (c) 2021 Daishi Mori (mori0091)">
<polygon fill="none" stroke="black" points="55.5,-112.5 55.5,-131.5 103.5,-131.5 103.5,-112.5 55.5,-112.5"/>
<text text-anchor="middle" x="79.5" y="-119.5" font-family="Helvetica,sans-Serif" font-size="10.00">sprite.h</text>
</a>
</g>
</g>
<!-- Node1&#45;&gt;Node10 -->
<g id="edge15" class="edge">
<title>Node1&#45;&gt;Node10</title>
<path fill="none" stroke="midnightblue" d="M126.5,-168.32C118.31,-160.42 105.99,-148.55 96.03,-138.94"/>
<polygon fill="midnightblue" stroke="midnightblue" points="98.29,-136.26 88.66,-131.83 93.43,-141.29 98.29,-136.26"/>
</g>
<!-- Node3&#45;&gt;Node2 -->
<g id="edge5" class="edge">
<title>Node3&#45;&gt;Node2</title>
<path fill="none" stroke="midnightblue" d="M213.87,-112.37C220.88,-94.46 237.11,-52.92 246.48,-28.95"/>
<polygon fill="midnightblue" stroke="midnightblue" points="249.76,-30.18 250.14,-19.59 243.24,-27.63 249.76,-30.18"/>
</g>
<!-- Node4 -->
<g id="node4" class="node">
<title>Node4</title>
<g id="a_node4"><a xlink:title=" ">
<polygon fill="none" stroke="#bfbfbf" points="400,-56.5 400,-75.5 451,-75.5 451,-56.5 400,-56.5"/>
<text text-anchor="middle" x="425.5" y="-63.5" font-family="Helvetica,sans-Serif" font-size="10.00">assert.h</text>
</a>
</g>
</g>
<!-- Node3&#45;&gt;Node4 -->
<g id="edge3" class="edge">
<title>Node3&#45;&gt;Node4</title>
<path fill="none" stroke="midnightblue" d="M230.76,-115.98C262.46,-108.12 325.98,-92.33 390.03,-76.11"/>
<polygon fill="midnightblue" stroke="midnightblue" points="391.06,-79.46 399.89,-73.61 389.34,-72.67 391.06,-79.46"/>
</g>
<!-- Node5 -->
<g id="node5" class="node">
<title>Node5</title>
<g id="a_node5"><a xlink:title=" ">
<polygon fill="none" stroke="#bfbfbf" points="107.5,-56.5 107.5,-75.5 163.5,-75.5 163.5,-56.5 107.5,-56.5"/>
<text text-anchor="middle" x="135.5" y="-63.5" font-family="Helvetica,sans-Serif" font-size="10.00">stdbool.h</text>
</a>
</g>
</g>
<!-- Node3&#45;&gt;Node5 -->
<g id="edge4" class="edge">
<title>Node3&#45;&gt;Node5</title>
<path fill="none" stroke="midnightblue" d="M198.45,-112.32C187.04,-104.11 169.67,-91.6 156.07,-81.81"/>
<polygon fill="midnightblue" stroke="midnightblue" points="157.93,-78.84 147.77,-75.83 153.84,-84.52 157.93,-78.84"/>
</g>
<!-- Node6 -->
<g id="node6" class="node">
<title>Node6</title>
<g id="a_node6"><a xlink:href="io_8h.html" target="_top" xlink:title="Copyright (c) 2021 Daishi Mori (mori0091)">
<polygon fill="none" stroke="black" points="106.5,-0.5 106.5,-19.5 138.5,-19.5 138.5,-0.5 106.5,-0.5"/>
<text text-anchor="middle" x="122.5" y="-7.5" font-family="Helvetica,sans-Serif" font-size="10.00">io.h</text>
</a>
</g>
</g>
<!-- Node3&#45;&gt;Node6 -->
<g id="edge6" class="edge">
<title>Node3&#45;&gt;Node6</title>
<path fill="none" stroke="midnightblue" d="M206.58,-112.47C200.39,-99.52 187.52,-74.45 172.5,-56 163.6,-45.07 151.98,-34.45 142.19,-26.27"/>
<polygon fill="midnightblue" stroke="midnightblue" points="144.13,-23.35 134.16,-19.77 139.73,-28.78 144.13,-23.35"/>
</g>
<!-- Node3&#45;&gt;Node7 -->
<g id="edge7" class="edge">
<title>Node3&#45;&gt;Node7</title>
<path fill="none" stroke="midnightblue" d="M190.35,-115.12C159.32,-106.06 99.4,-88.57 60.98,-77.36"/>
<polygon fill="midnightblue" stroke="midnightblue" points="61.82,-73.95 51.24,-74.51 59.86,-80.67 61.82,-73.95"/>
</g>
<!-- Node8 -->
<g id="node8" class="node">
<title>Node8</title>
<g id="a_node8"><a xlink:href="bios_8h.html" target="_top" xlink:title="Copyright (c) 2021 Daishi Mori (mori0091)">
<polygon fill="none" stroke="black" points="257.5,-56.5 257.5,-75.5 299.5,-75.5 299.5,-56.5 257.5,-56.5"/>
<text text-anchor="middle" x="278.5" y="-63.5" font-family="Helvetica,sans-Serif" font-size="10.00">bios.h</text>
</a>
</g>
</g>
<!-- Node3&#45;&gt;Node8 -->
<g id="edge10" class="edge">
<title>Node3&#45;&gt;Node8</title>
<path fill="none" stroke="midnightblue" d="M221.43,-112.32C231.67,-104.18 247.22,-91.84 259.5,-82.09"/>
<polygon fill="midnightblue" stroke="midnightblue" points="261.72,-84.79 267.38,-75.83 257.37,-79.31 261.72,-84.79"/>
</g>
<!-- Node9 -->
<g id="node9" class="node">
<title>Node9</title>
<g id="a_node9"><a xlink:href="workarea_8h.html" target="_top" xlink:title="Copyright (c) 2021 Daishi Mori (mori0091)">
<polygon fill="none" stroke="black" points="317.5,-56.5 317.5,-75.5 381.5,-75.5 381.5,-56.5 317.5,-56.5"/>
<text text-anchor="middle" x="349.5" y="-63.5" font-family="Helvetica,sans-Serif" font-size="10.00">workarea.h</text>
</a>
</g>
</g>
<!-- Node3&#45;&gt;Node9 -->
<g id="edge12" class="edge">
<title>Node3&#45;&gt;Node9</title>
<path fill="none" stroke="midnightblue" d="M230.71,-113.15C253.55,-104.28 291,-89.73 317.75,-79.33"/>
<polygon fill="midnightblue" stroke="midnightblue" points="319.37,-82.46 327.43,-75.58 316.84,-75.93 319.37,-82.46"/>
</g>
<!-- Node7&#45;&gt;Node2 -->
<g id="edge8" class="edge">
<title>Node7&#45;&gt;Node2</title>
<path fill="none" stroke="midnightblue" d="M51.21,-58.91C92.46,-49.14 173.46,-29.96 219.46,-19.06"/>
<polygon fill="midnightblue" stroke="midnightblue" points="220.34,-22.45 229.26,-16.74 218.73,-15.64 220.34,-22.45"/>
</g>
<!-- Node7&#45;&gt;Node6 -->
<g id="edge9" class="edge">
<title>Node7&#45;&gt;Node6</title>
<path fill="none" stroke="midnightblue" d="M41.08,-56.32C56.5,-47.74 80.31,-34.49 98.21,-24.52"/>
<polygon fill="midnightblue" stroke="midnightblue" points="99.92,-27.58 106.95,-19.65 96.51,-21.46 99.92,-27.58"/>
</g>
<!-- Node8&#45;&gt;Node2 -->
<g id="edge11" class="edge">
<title>Node8&#45;&gt;Node2</title>
<path fill="none" stroke="midnightblue" d="M274.37,-56.08C270.99,-48.77 266.08,-38.18 261.88,-29.1"/>
<polygon fill="midnightblue" stroke="midnightblue" points="264.93,-27.36 257.55,-19.75 258.58,-30.3 264.93,-27.36"/>
</g>
<!-- Node9&#45;&gt;Node2 -->
<g id="edge13" class="edge">
<title>Node9&#45;&gt;Node2</title>
<path fill="none" stroke="midnightblue" d="M334.08,-56.32C318.96,-47.82 295.68,-34.73 278.03,-24.8"/>
<polygon fill="midnightblue" stroke="midnightblue" points="279.32,-21.51 268.89,-19.65 275.89,-27.61 279.32,-21.51"/>
</g>
<!-- Node10&#45;&gt;Node2 -->
<g id="edge16" class="edge">
<title>Node10&#45;&gt;Node2</title>
<path fill="none" stroke="midnightblue" d="M79.53,-112.09C80.07,-98.18 83.19,-71.28 98.5,-56 130.58,-23.98 184.01,-14.46 219,-11.79"/>
<polygon fill="midnightblue" stroke="midnightblue" points="219.45,-15.27 229.22,-11.16 219.02,-8.28 219.45,-15.27"/>
</g>
<!-- Node10&#45;&gt;Node7 -->
<g id="edge17" class="edge">
<title>Node10&#45;&gt;Node7</title>
<path fill="none" stroke="midnightblue" d="M70.58,-112.08C62.72,-104.22 51.07,-92.57 41.58,-83.08"/>
<polygon fill="midnightblue" stroke="midnightblue" points="43.8,-80.35 34.25,-75.75 38.85,-85.3 43.8,-80.35"/>
</g>
</g>
</svg>
