<?xml version="1.0" encoding="UTF-8" standalone="no"?>
<!DOCTYPE svg PUBLIC "-//W3C//DTD SVG 1.1//EN"
 "http://www.w3.org/Graphics/SVG/1.1/DTD/svg11.dtd">
<!-- Generated by graphviz version 3.0.0 (20221109.1736)
 -->
<!-- Title: include/metasprite.h Pages: 1 -->
<svg width="461pt" height="252pt"
 viewBox="0.00 0.00 461.46 252.00" xmlns="http://www.w3.org/2000/svg" xmlns:xlink="http://www.w3.org/1999/xlink">
<g id="graph0" class="graph" transform="scale(1 1) rotate(0) translate(4 248)">
<title>include/metasprite.h</title>
<!-- Node1 -->
<g id="node1" class="node">
<title>Node1</title>
<g id="a_node1"><a xlink:title="Copyright (c) 2021 Daishi Mori (mori0091)">
<polygon fill="#bfbfbf" stroke="black" points="9.46,-224.5 9.46,-243.5 113.46,-243.5 113.46,-224.5 9.46,-224.5"/>
<text text-anchor="middle" x="61.46" y="-231.5" font-family="Helvetica,sans-Serif" font-size="10.00">include/metasprite.h</text>
</a>
</g>
</g>
<!-- Node2 -->
<g id="node2" class="node">
<title>Node2</title>
<g id="a_node2"><a xlink:title=" ">
<polygon fill="none" stroke="#bfbfbf" points="92.46,-0.5 92.46,-19.5 140.46,-19.5 140.46,-0.5 92.46,-0.5"/>
<text text-anchor="middle" x="116.46" y="-7.5" font-family="Helvetica,sans-Serif" font-size="10.00">stdint.h</text>
</a>
</g>
</g>
<!-- Node1&#45;&gt;Node2 -->
<g id="edge1" class="edge">
<title>Node1&#45;&gt;Node2</title>
<path fill="none" stroke="midnightblue" d="M42.47,-224.4C28.57,-216.95 10.74,-204.74 2.46,-188 -1.48,-180.03 0.51,-176.67 2.46,-168 14.53,-114.27 20.46,-98.52 55.46,-56 65.59,-43.69 79.79,-32.96 91.94,-25.06"/>
<polygon fill="midnightblue" stroke="midnightblue" points="94.08,-27.85 100.73,-19.6 90.39,-21.9 94.08,-27.85"/>
</g>
<!-- Node3 -->
<g id="node3" class="node">
<title>Node3</title>
<g id="a_node3"><a xlink:href="vdp_8h.html" target="_top" xlink:title="Data types and functions for VDP (Video Display Proccessor) access.">
<polygon fill="none" stroke="black" points="199.46,-168.5 199.46,-187.5 239.46,-187.5 239.46,-168.5 199.46,-168.5"/>
<text text-anchor="middle" x="219.46" y="-175.5" font-family="Helvetica,sans-Serif" font-size="10.00">vdp.h</text>
</a>
</g>
</g>
<!-- Node1&#45;&gt;Node3 -->
<g id="edge2" class="edge">
<title>Node1&#45;&gt;Node3</title>
<path fill="none" stroke="midnightblue" d="M86.49,-224.44C114.48,-214.88 159.78,-199.4 189.59,-189.21"/>
<polygon fill="midnightblue" stroke="midnightblue" points="190.73,-192.52 199.06,-185.97 188.47,-185.89 190.73,-192.52"/>
</g>
<!-- Node8 -->
<g id="node8" class="node">
<title>Node8</title>
<g id="a_node8"><a xlink:href="vmem_8h.html" target="_top" xlink:title="Data types and functions for VRAM access.">
<polygon fill="none" stroke="black" points="49.96,-112.5 49.96,-131.5 100.96,-131.5 100.96,-112.5 49.96,-112.5"/>
<text text-anchor="middle" x="75.46" y="-119.5" font-family="Helvetica,sans-Serif" font-size="10.00">vmem.h</text>
</a>
</g>
</g>
<!-- Node1&#45;&gt;Node8 -->
<g id="edge22" class="edge">
<title>Node1&#45;&gt;Node8</title>
<path fill="none" stroke="midnightblue" d="M62.92,-224.39C64.43,-215.35 66.79,-200.7 68.46,-188 70.5,-172.51 72.37,-154.88 73.66,-141.89"/>
<polygon fill="midnightblue" stroke="midnightblue" points="77.15,-142.14 74.64,-131.85 70.19,-141.46 77.15,-142.14"/>
</g>
<!-- Node13 -->
<g id="node13" class="node">
<title>Node13</title>
<g id="a_node13"><a xlink:href="sprite_8h.html" target="_top" xlink:title="Copyright (c) 2021 Daishi Mori (mori0091)">
<polygon fill="none" stroke="black" points="11.46,-168.5 11.46,-187.5 59.46,-187.5 59.46,-168.5 11.46,-168.5"/>
<text text-anchor="middle" x="35.46" y="-175.5" font-family="Helvetica,sans-Serif" font-size="10.00">sprite.h</text>
</a>
</g>
</g>
<!-- Node1&#45;&gt;Node13 -->
<g id="edge23" class="edge">
<title>Node1&#45;&gt;Node13</title>
<path fill="none" stroke="midnightblue" d="M57.17,-224.08C53.61,-216.69 48.44,-205.95 44.03,-196.81"/>
<polygon fill="midnightblue" stroke="midnightblue" points="47.16,-195.24 39.67,-187.75 40.86,-198.28 47.16,-195.24"/>
</g>
<!-- Node3&#45;&gt;Node2 -->
<g id="edge5" class="edge">
<title>Node3&#45;&gt;Node2</title>
<path fill="none" stroke="midnightblue" d="M202.52,-168.46C188.65,-160.67 169.42,-147.97 157.46,-132 134.05,-100.75 123.45,-55.26 119.11,-29.89"/>
<polygon fill="midnightblue" stroke="midnightblue" points="122.53,-29.12 117.53,-19.78 115.61,-30.2 122.53,-29.12"/>
</g>
<!-- Node4 -->
<g id="node4" class="node">
<title>Node4</title>
<g id="a_node4"><a xlink:title=" ">
<polygon fill="none" stroke="#bfbfbf" points="226.96,-112.5 226.96,-131.5 277.96,-131.5 277.96,-112.5 226.96,-112.5"/>
<text text-anchor="middle" x="252.46" y="-119.5" font-family="Helvetica,sans-Serif" font-size="10.00">assert.h</text>
</a>
</g>
</g>
<!-- Node3&#45;&gt;Node4 -->
<g id="edge3" class="edge">
<title>Node3&#45;&gt;Node4</title>
<path fill="none" stroke="midnightblue" d="M224.91,-168.08C229.47,-160.61 236.13,-149.72 241.75,-140.52"/>
<polygon fill="midnightblue" stroke="midnightblue" points="244.88,-142.11 247.11,-131.75 238.91,-138.46 244.88,-142.11"/>
</g>
<!-- Node5 -->
<g id="node5" class="node">
<title>Node5</title>
<g id="a_node5"><a xlink:title=" ">
<polygon fill="none" stroke="#bfbfbf" points="334.46,-112.5 334.46,-131.5 390.46,-131.5 390.46,-112.5 334.46,-112.5"/>
<text text-anchor="middle" x="362.46" y="-119.5" font-family="Helvetica,sans-Serif" font-size="10.00">stdbool.h</text>
</a>
</g>
</g>
<!-- Node3&#45;&gt;Node5 -->
<g id="edge4" class="edge">
<title>Node3&#45;&gt;Node5</title>
<path fill="none" stroke="midnightblue" d="M239.64,-169.38C263.09,-160.52 302.11,-145.79 329.87,-135.31"/>
<polygon fill="midnightblue" stroke="midnightblue" points="331.42,-138.46 339.54,-131.65 328.95,-131.91 331.42,-138.46"/>
</g>
<!-- Node6 -->
<g id="node6" class="node">
<title>Node6</title>
<g id="a_node6"><a xlink:href="io_8h.html" target="_top" xlink:title="Copyright (c) 2021 Daishi Mori (mori0091)">
<polygon fill="none" stroke="black" points="421.46,-56.5 421.46,-75.5 453.46,-75.5 453.46,-56.5 421.46,-56.5"/>
<text text-anchor="middle" x="437.46" y="-63.5" font-family="Helvetica,sans-Serif" font-size="10.00">io.h</text>
</a>
</g>
</g>
<!-- Node3&#45;&gt;Node6 -->
<g id="edge6" class="edge">
<title>Node3&#45;&gt;Node6</title>
<path fill="none" stroke="midnightblue" d="M239.7,-176.88C275.46,-175.68 350.62,-168.62 399.46,-132 415.11,-120.26 425.45,-100.03 431.34,-85.25"/>
<polygon fill="midnightblue" stroke="midnightblue" points="434.7,-86.24 434.85,-75.65 428.13,-83.84 434.7,-86.24"/>
</g>
<!-- Node3&#45;&gt;Node8 -->
<g id="edge8" class="edge">
<title>Node3&#45;&gt;Node8</title>
<path fill="none" stroke="midnightblue" d="M199.44,-169.49C175.66,-160.57 135.68,-145.58 107.56,-135.04"/>
<polygon fill="midnightblue" stroke="midnightblue" points="108.75,-131.75 98.16,-131.51 106.29,-138.3 108.75,-131.75"/>
</g>
<!-- Node9 -->
<g id="node9" class="node">
<title>Node9</title>
<g id="a_node9"><a xlink:href="bios_8h.html" target="_top" xlink:title="C language I/F for MSX BIOS routines.">
<polygon fill="none" stroke="black" points="166.46,-112.5 166.46,-131.5 208.46,-131.5 208.46,-112.5 166.46,-112.5"/>
<text text-anchor="middle" x="187.46" y="-119.5" font-family="Helvetica,sans-Serif" font-size="10.00">bios.h</text>
</a>
</g>
</g>
<!-- Node3&#45;&gt;Node9 -->
<g id="edge11" class="edge">
<title>Node3&#45;&gt;Node9</title>
<path fill="none" stroke="midnightblue" d="M214.17,-168.08C209.75,-160.61 203.3,-149.72 197.84,-140.52"/>
<polygon fill="midnightblue" stroke="midnightblue" points="200.75,-138.57 192.64,-131.75 194.73,-142.14 200.75,-138.57"/>
</g>
<!-- Node12 -->
<g id="node12" class="node">
<title>Node12</title>
<g id="a_node12"><a xlink:href="workarea_8h.html" target="_top" xlink:title="Copyright (c) 2021 Daishi Mori (mori0091)">
<polygon fill="none" stroke="black" points="339.46,-56.5 339.46,-75.5 403.46,-75.5 403.46,-56.5 339.46,-56.5"/>
<text text-anchor="middle" x="371.46" y="-63.5" font-family="Helvetica,sans-Serif" font-size="10.00">workarea.h</text>
</a>
</g>
</g>
<!-- Node3&#45;&gt;Node12 -->
<g id="edge19" class="edge">
<title>Node3&#45;&gt;Node12</title>
<path fill="none" stroke="midnightblue" d="M232.95,-168.49C246.81,-159.65 268.93,-145.27 287.46,-132 310.44,-115.54 336.01,-95.49 352.84,-82.05"/>
<polygon fill="midnightblue" stroke="midnightblue" points="355.17,-84.66 360.78,-75.67 350.79,-79.2 355.17,-84.66"/>
</g>
<!-- Node7 -->
<g id="node7" class="node">
<title>Node7</title>
<g id="a_node7"><a xlink:href="config_8h.html" target="_top" xlink:title="Copyright (c) 2022 Daishi Mori (mori0091)">
<polygon fill="none" stroke="black" points="303.46,-0.5 303.46,-19.5 353.46,-19.5 353.46,-0.5 303.46,-0.5"/>
<text text-anchor="middle" x="328.46" y="-7.5" font-family="Helvetica,sans-Serif" font-size="10.00">config.h</text>
</a>
</g>
</g>
<!-- Node6&#45;&gt;Node7 -->
<g id="edge7" class="edge">
<title>Node6&#45;&gt;Node7</title>
<path fill="none" stroke="midnightblue" d="M421.38,-57.03C403.89,-48.37 375.67,-34.39 354.92,-24.11"/>
<polygon fill="midnightblue" stroke="midnightblue" points="356.2,-20.84 345.69,-19.54 353.1,-27.11 356.2,-20.84"/>
</g>
<!-- Node8&#45;&gt;Node2 -->
<g id="edge9" class="edge">
<title>Node8&#45;&gt;Node2</title>
<path fill="none" stroke="midnightblue" d="M75.16,-112.25C75.02,-99.43 75.91,-75.02 83.46,-56 87.55,-45.68 94.59,-35.59 101.12,-27.58"/>
<polygon fill="midnightblue" stroke="midnightblue" points="103.95,-29.66 107.84,-19.8 98.65,-25.08 103.95,-29.66"/>
</g>
<!-- Node8&#45;&gt;Node6 -->
<g id="edge10" class="edge">
<title>Node8&#45;&gt;Node6</title>
<path fill="none" stroke="midnightblue" d="M101.01,-117.91C169.5,-109.57 355.29,-86.68 411.31,-75.59"/>
<polygon fill="midnightblue" stroke="midnightblue" points="412.19,-78.98 421.21,-73.41 410.69,-72.14 412.19,-78.98"/>
</g>
<!-- Node9&#45;&gt;Node2 -->
<g id="edge12" class="edge">
<title>Node9&#45;&gt;Node2</title>
<path fill="none" stroke="midnightblue" d="M180.61,-112.23C173.73,-103.3 162.97,-88.96 154.46,-76 144.17,-60.33 133.48,-41.81 126.07,-28.56"/>
<polygon fill="midnightblue" stroke="midnightblue" points="129.01,-26.64 121.1,-19.58 122.88,-30.03 129.01,-26.64"/>
</g>
<!-- Node10 -->
<g id="node10" class="node">
<title>Node10</title>
<g id="a_node10"><a xlink:href="bios__const_8h.html" target="_top" xlink:title="Constant variables in the MSX BIOS ROM.">
<polygon fill="none" stroke="black" points="249.96,-56.5 249.96,-75.5 320.96,-75.5 320.96,-56.5 249.96,-56.5"/>
<text text-anchor="middle" x="285.46" y="-63.5" font-family="Helvetica,sans-Serif" font-size="10.00">bios_const.h</text>
</a>
</g>
</g>
<!-- Node9&#45;&gt;Node10 -->
<g id="edge13" class="edge">
<title>Node9&#45;&gt;Node10</title>
<path fill="none" stroke="midnightblue" d="M203.2,-112.32C218.78,-103.74 242.84,-90.49 260.92,-80.52"/>
<polygon fill="midnightblue" stroke="midnightblue" points="262.68,-83.55 269.75,-75.65 259.3,-77.42 262.68,-83.55"/>
</g>
<!-- Node11 -->
<g id="node11" class="node">
<title>Node11</title>
<g id="a_node11"><a xlink:href="bios__entry_8h.html" target="_top" xlink:title="Assembler entry points for MSX BIOS functions.">
<polygon fill="none" stroke="black" points="163.46,-56.5 163.46,-75.5 231.46,-75.5 231.46,-56.5 163.46,-56.5"/>
<text text-anchor="middle" x="197.46" y="-63.5" font-family="Helvetica,sans-Serif" font-size="10.00">bios_entry.h</text>
</a>
</g>
</g>
<!-- Node9&#45;&gt;Node11 -->
<g id="edge16" class="edge">
<title>Node9&#45;&gt;Node11</title>
<path fill="none" stroke="midnightblue" d="M189.11,-112.08C190.44,-104.93 192.34,-94.64 194,-85.69"/>
<polygon fill="midnightblue" stroke="midnightblue" points="197.46,-86.22 195.84,-75.75 190.58,-84.95 197.46,-86.22"/>
</g>
<!-- Node10&#45;&gt;Node2 -->
<g id="edge14" class="edge">
<title>Node10&#45;&gt;Node2</title>
<path fill="none" stroke="midnightblue" d="M258.68,-56.44C229.37,-47.08 182.31,-32.04 150.43,-21.85"/>
<polygon fill="midnightblue" stroke="midnightblue" points="151.24,-18.44 140.65,-18.73 149.11,-25.11 151.24,-18.44"/>
</g>
<!-- Node10&#45;&gt;Node7 -->
<g id="edge15" class="edge">
<title>Node10&#45;&gt;Node7</title>
<path fill="none" stroke="midnightblue" d="M292.56,-56.08C298.7,-48.38 307.73,-37.03 315.2,-27.65"/>
<polygon fill="midnightblue" stroke="midnightblue" points="318,-29.75 321.49,-19.75 312.52,-25.39 318,-29.75"/>
</g>
<!-- Node11&#45;&gt;Node2 -->
<g id="edge17" class="edge">
<title>Node11&#45;&gt;Node2</title>
<path fill="none" stroke="midnightblue" d="M184.44,-56.32C171.93,-47.98 152.78,-35.21 137.99,-25.35"/>
<polygon fill="midnightblue" stroke="midnightblue" points="139.7,-22.29 129.44,-19.65 135.82,-28.11 139.7,-22.29"/>
</g>
<!-- Node11&#45;&gt;Node7 -->
<g id="edge18" class="edge">
<title>Node11&#45;&gt;Node7</title>
<path fill="none" stroke="midnightblue" d="M218.22,-56.44C239.78,-47.56 273.72,-33.56 298.25,-23.45"/>
<polygon fill="midnightblue" stroke="midnightblue" points="299.89,-26.56 307.8,-19.52 297.22,-20.09 299.89,-26.56"/>
</g>
<!-- Node12&#45;&gt;Node2 -->
<g id="edge20" class="edge">
<title>Node12&#45;&gt;Node2</title>
<path fill="none" stroke="midnightblue" d="M339.24,-57.9C336.27,-57.25 333.31,-56.61 330.46,-56 266.98,-42.36 192.82,-26.86 150.57,-18.08"/>
<polygon fill="midnightblue" stroke="midnightblue" points="151.05,-14.6 140.54,-15.99 149.62,-21.45 151.05,-14.6"/>
</g>
<!-- Node12&#45;&gt;Node7 -->
<g id="edge21" class="edge">
<title>Node12&#45;&gt;Node7</title>
<path fill="none" stroke="midnightblue" d="M364.36,-56.08C358.22,-48.38 349.19,-37.03 341.72,-27.65"/>
<polygon fill="midnightblue" stroke="midnightblue" points="344.39,-25.39 335.43,-19.75 338.92,-29.75 344.39,-25.39"/>
</g>
<!-- Node13&#45;&gt;Node2 -->
<g id="edge24" class="edge">
<title>Node13&#45;&gt;Node2</title>
<path fill="none" stroke="midnightblue" d="M35.11,-168.36C34.85,-155.69 35.32,-131.45 41.46,-112 52.44,-77.19 81.05,-44.79 99.59,-26.48"/>
<polygon fill="midnightblue" stroke="midnightblue" points="102.04,-28.98 106.84,-19.53 97.19,-23.93 102.04,-28.98"/>
</g>
<!-- Node13&#45;&gt;Node8 -->
<g id="edge25" class="edge">
<title>Node13&#45;&gt;Node8</title>
<path fill="none" stroke="midnightblue" d="M42.06,-168.08C47.71,-160.46 56,-149.26 62.91,-139.94"/>
<polygon fill="midnightblue" stroke="midnightblue" points="65.84,-141.87 68.98,-131.75 60.21,-137.7 65.84,-141.87"/>
</g>
</g>
</svg>
