<?xml version="1.0" encoding="UTF-8" standalone="no"?>
<!DOCTYPE svg PUBLIC "-//W3C//DTD SVG 1.1//EN"
 "http://www.w3.org/Graphics/SVG/1.1/DTD/svg11.dtd">
<!-- Generated by graphviz version 7.0.5 (20221223.1930)
 -->
<!-- Title: include/metasprite.h Pages: 1 -->
<svg width="558pt" height="357pt"
 viewBox="0.00 0.00 558.00 357.00" xmlns="http://www.w3.org/2000/svg" xmlns:xlink="http://www.w3.org/1999/xlink">
<g id="graph0" class="graph" transform="scale(1 1) rotate(0) translate(4 353)">
<title>include/metasprite.h</title>
<!-- Node1 -->
<g id="node1" class="node">
<title>Node1</title>
<g id="a_node1"><a xlink:title="Meta&#45;sprite ; an aggregate of sprites.">
<polygon fill="#999999" stroke="#666666" points="423,-349 319,-349 319,-330 423,-330 423,-349"/>
<text text-anchor="middle" x="371" y="-337" font-family="Helvetica,sans-Serif" font-size="10.00">include/metasprite.h</text>
</a>
</g>
</g>
<!-- Node2 -->
<g id="node2" class="node">
<title>Node2</title>
<g id="a_node2"><a xlink:title=" ">
<polygon fill="#e0e0e0" stroke="#999999" points="263,-19 215,-19 215,0 263,0 263,-19"/>
<text text-anchor="middle" x="239" y="-7" font-family="Helvetica,sans-Serif" font-size="10.00">stdint.h</text>
</a>
</g>
</g>
<!-- Node1&#45;&gt;Node2 -->
<g id="edge1" class="edge">
<title>Node1&#45;&gt;Node2</title>
<path fill="none" stroke="#63b8ff" d="M318.63,-334.24C216.37,-324.48 0,-296.07 0,-230.5 0,-230.5 0,-230.5 0,-118.5 0,-30.23 137.06,-13.71 203.59,-10.9"/>
<polygon fill="#63b8ff" stroke="#63b8ff" points="203.38,-14.41 213.26,-10.58 203.14,-7.41 203.38,-14.41"/>
</g>
<!-- Node3 -->
<g id="node3" class="node">
<title>Node3</title>
<g id="a_node3"><a xlink:href="vdp_8h.html" target="_top" xlink:title="Data types and functions for VDP (Video Display Proccessor) access.">
<polygon fill="white" stroke="#666666" points="288,-294 248,-294 248,-275 288,-275 288,-294"/>
<text text-anchor="middle" x="268" y="-282" font-family="Helvetica,sans-Serif" font-size="10.00">vdp.h</text>
</a>
</g>
</g>
<!-- Node1&#45;&gt;Node3 -->
<g id="edge2" class="edge">
<title>Node1&#45;&gt;Node3</title>
<path fill="none" stroke="#63b8ff" d="M353.53,-329.51C337.6,-321.31 313.81,-309.07 295.36,-299.58"/>
<polygon fill="#63b8ff" stroke="#63b8ff" points="297.05,-296.51 286.56,-295.05 293.85,-302.74 297.05,-296.51"/>
</g>
<!-- Node8 -->
<g id="node8" class="node">
<title>Node8</title>
<g id="a_node8"><a xlink:href="vmem_8h.html" target="_top" xlink:title="Data types and functions for VRAM access.">
<polygon fill="white" stroke="#666666" points="495.5,-184 444.5,-184 444.5,-165 495.5,-165 495.5,-184"/>
<text text-anchor="middle" x="470" y="-172" font-family="Helvetica,sans-Serif" font-size="10.00">vmem.h</text>
</a>
</g>
</g>
<!-- Node1&#45;&gt;Node8 -->
<g id="edge29" class="edge">
<title>Node1&#45;&gt;Node8</title>
<path fill="none" stroke="#63b8ff" d="M378.15,-329.55C391.54,-312.56 420.82,-274.18 441,-239 449.22,-224.67 456.9,-207.6 462.3,-194.77"/>
<polygon fill="#63b8ff" stroke="#63b8ff" points="465.43,-196.36 465.98,-185.78 458.95,-193.71 465.43,-196.36"/>
</g>
<!-- Node14 -->
<g id="node14" class="node">
<title>Node14</title>
<g id="a_node14"><a xlink:href="sprite_8h.html" target="_top" xlink:title="Sprites.">
<polygon fill="white" stroke="#666666" points="550,-239 502,-239 502,-220 550,-220 550,-239"/>
<text text-anchor="middle" x="526" y="-227" font-family="Helvetica,sans-Serif" font-size="10.00">sprite.h</text>
</a>
</g>
</g>
<!-- Node1&#45;&gt;Node14 -->
<g id="edge30" class="edge">
<title>Node1&#45;&gt;Node14</title>
<path fill="none" stroke="#63b8ff" d="M413.79,-329.57C437.66,-322.9 466.76,-311.8 488,-294 502.16,-282.14 512.4,-263.58 518.65,-249.58"/>
<polygon fill="#63b8ff" stroke="#63b8ff" points="521.8,-251.12 522.39,-240.54 515.34,-248.44 521.8,-251.12"/>
</g>
<!-- Node3&#45;&gt;Node2 -->
<g id="edge5" class="edge">
<title>Node3&#45;&gt;Node2</title>
<path fill="none" stroke="#63b8ff" d="M247.68,-281.31C202.37,-276.07 94.86,-261.53 67,-239 42.88,-219.49 38,-206.53 38,-175.5 38,-175.5 38,-175.5 38,-118.5 38,-44.19 145.91,-20.8 203.6,-13.6"/>
<polygon fill="#63b8ff" stroke="#63b8ff" points="203.71,-17.11 213.25,-12.5 202.92,-10.15 203.71,-17.11"/>
</g>
<!-- Node4 -->
<g id="node4" class="node">
<title>Node4</title>
<g id="a_node4"><a xlink:title=" ">
<polygon fill="#e0e0e0" stroke="#999999" points="127.5,-239 76.5,-239 76.5,-220 127.5,-220 127.5,-239"/>
<text text-anchor="middle" x="102" y="-227" font-family="Helvetica,sans-Serif" font-size="10.00">assert.h</text>
</a>
</g>
</g>
<!-- Node3&#45;&gt;Node4 -->
<g id="edge3" class="edge">
<title>Node3&#45;&gt;Node4</title>
<path fill="none" stroke="#63b8ff" d="M247.65,-277C220.58,-268.36 172.26,-252.93 138.73,-242.23"/>
<polygon fill="#63b8ff" stroke="#63b8ff" points="140.02,-238.96 129.42,-239.26 137.89,-245.63 140.02,-238.96"/>
</g>
<!-- Node5 -->
<g id="node5" class="node">
<title>Node5</title>
<g id="a_node5"><a xlink:title=" ">
<polygon fill="#e0e0e0" stroke="#999999" points="202,-239 146,-239 146,-220 202,-220 202,-239"/>
<text text-anchor="middle" x="174" y="-227" font-family="Helvetica,sans-Serif" font-size="10.00">stdbool.h</text>
</a>
</g>
</g>
<!-- Node3&#45;&gt;Node5 -->
<g id="edge4" class="edge">
<title>Node3&#45;&gt;Node5</title>
<path fill="none" stroke="#63b8ff" d="M252.05,-274.51C237.65,-266.39 216.21,-254.3 199.44,-244.85"/>
<polygon fill="#63b8ff" stroke="#63b8ff" points="201.46,-241.96 191.03,-240.1 198.02,-248.06 201.46,-241.96"/>
</g>
<!-- Node6 -->
<g id="node6" class="node">
<title>Node6</title>
<g id="a_node6"><a xlink:href="io_8h.html" target="_top" xlink:title="Definition of I/O ports.">
<polygon fill="white" stroke="#666666" points="388,-129 356,-129 356,-110 388,-110 388,-129"/>
<text text-anchor="middle" x="372" y="-117" font-family="Helvetica,sans-Serif" font-size="10.00">io.h</text>
</a>
</g>
</g>
<!-- Node3&#45;&gt;Node6 -->
<g id="edge6" class="edge">
<title>Node3&#45;&gt;Node6</title>
<path fill="none" stroke="#63b8ff" d="M273.59,-274.74C289.96,-249.09 338,-173.78 360.34,-138.78"/>
<polygon fill="#63b8ff" stroke="#63b8ff" points="363.14,-140.9 365.57,-130.58 357.24,-137.13 363.14,-140.9"/>
</g>
<!-- Node3&#45;&gt;Node8 -->
<g id="edge9" class="edge">
<title>Node3&#45;&gt;Node8</title>
<path fill="none" stroke="#63b8ff" d="M288.37,-281.2C318.61,-277 376.2,-265.89 417,-239 434.58,-227.41 449.41,-208.27 458.87,-194.02"/>
<polygon fill="#63b8ff" stroke="#63b8ff" points="461.83,-195.9 464.21,-185.57 455.91,-192.16 461.83,-195.9"/>
</g>
<!-- Node9 -->
<g id="node9" class="node">
<title>Node9</title>
<g id="a_node9"><a xlink:href="vdp__unsafe_8h.html" target="_top" xlink:title="Unsafe primitive functions for VDP (Video Display Proccessor) access.">
<polygon fill="white" stroke="#666666" points="408,-239 334,-239 334,-220 408,-220 408,-239"/>
<text text-anchor="middle" x="371" y="-227" font-family="Helvetica,sans-Serif" font-size="10.00">vdp_unsafe.h</text>
</a>
</g>
</g>
<!-- Node3&#45;&gt;Node9 -->
<g id="edge12" class="edge">
<title>Node3&#45;&gt;Node9</title>
<path fill="none" stroke="#63b8ff" d="M285.47,-274.51C301.4,-266.31 325.19,-254.07 343.64,-244.58"/>
<polygon fill="#63b8ff" stroke="#63b8ff" points="345.15,-247.74 352.44,-240.05 341.95,-241.51 345.15,-247.74"/>
</g>
<!-- Node10 -->
<g id="node10" class="node">
<title>Node10</title>
<g id="a_node10"><a xlink:href="bios_8h.html" target="_top" xlink:title="C language I/F for MSX BIOS routines.">
<polygon fill="white" stroke="#666666" points="282,-184 240,-184 240,-165 282,-165 282,-184"/>
<text text-anchor="middle" x="261" y="-172" font-family="Helvetica,sans-Serif" font-size="10.00">bios.h</text>
</a>
</g>
</g>
<!-- Node3&#45;&gt;Node10 -->
<g id="edge24" class="edge">
<title>Node3&#45;&gt;Node10</title>
<path fill="none" stroke="#63b8ff" d="M267.43,-274.66C266.32,-257.57 263.86,-219.61 262.32,-195.92"/>
<polygon fill="#63b8ff" stroke="#63b8ff" points="265.82,-195.72 261.68,-185.97 258.83,-196.18 265.82,-195.72"/>
</g>
<!-- Node13 -->
<g id="node13" class="node">
<title>Node13</title>
<g id="a_node13"><a xlink:href="workarea_8h.html" target="_top" xlink:title="Definitions of MSX SYSTEM Workarea.">
<polygon fill="white" stroke="#666666" points="197,-184 133,-184 133,-165 197,-165 197,-184"/>
<text text-anchor="middle" x="165" y="-172" font-family="Helvetica,sans-Serif" font-size="10.00">workarea.h</text>
</a>
</g>
</g>
<!-- Node3&#45;&gt;Node13 -->
<g id="edge25" class="edge">
<title>Node3&#45;&gt;Node13</title>
<path fill="none" stroke="#63b8ff" d="M260.45,-274.7C249.71,-262.27 229.29,-238.99 211,-220 201.85,-210.5 191.29,-200.24 182.59,-191.96"/>
<polygon fill="#63b8ff" stroke="#63b8ff" points="185.13,-189.54 175.45,-185.22 180.32,-194.63 185.13,-189.54"/>
</g>
<!-- Node7 -->
<g id="node7" class="node">
<title>Node7</title>
<g id="a_node7"><a xlink:href="config_8h.html" target="_top" xlink:title="Hack for C Compiler portability.">
<polygon fill="white" stroke="#666666" points="238,-74 188,-74 188,-55 238,-55 238,-74"/>
<text text-anchor="middle" x="213" y="-62" font-family="Helvetica,sans-Serif" font-size="10.00">config.h</text>
</a>
</g>
</g>
<!-- Node6&#45;&gt;Node7 -->
<g id="edge7" class="edge">
<title>Node6&#45;&gt;Node7</title>
<path fill="none" stroke="#63b8ff" d="M355.58,-113.03C330.63,-104.71 282.55,-88.68 249.16,-77.55"/>
<polygon fill="#63b8ff" stroke="#63b8ff" points="250.48,-74.3 239.89,-74.46 248.27,-80.94 250.48,-74.3"/>
</g>
<!-- Node7&#45;&gt;Node2 -->
<g id="edge8" class="edge">
<title>Node7&#45;&gt;Node2</title>
<path fill="none" stroke="#63b8ff" d="M217.29,-54.75C220.62,-47.96 225.36,-38.3 229.56,-29.73"/>
<polygon fill="#63b8ff" stroke="#63b8ff" points="232.68,-31.32 233.95,-20.8 226.4,-28.24 232.68,-31.32"/>
</g>
<!-- Node8&#45;&gt;Node2 -->
<g id="edge10" class="edge">
<title>Node8&#45;&gt;Node2</title>
<path fill="none" stroke="#63b8ff" d="M469.78,-164.5C468.72,-142.34 462.8,-84.77 430,-55 407.47,-34.55 323.27,-20.96 274.52,-14.62"/>
<polygon fill="#63b8ff" stroke="#63b8ff" points="275.09,-11.17 264.73,-13.39 274.22,-18.11 275.09,-11.17"/>
</g>
<!-- Node8&#45;&gt;Node6 -->
<g id="edge11" class="edge">
<title>Node8&#45;&gt;Node6</title>
<path fill="none" stroke="#63b8ff" d="M453.38,-164.51C438.22,-156.31 415.58,-144.07 398.03,-134.58"/>
<polygon fill="#63b8ff" stroke="#63b8ff" points="400.17,-131.76 389.71,-130.08 396.84,-137.91 400.17,-131.76"/>
</g>
<!-- Node9&#45;&gt;Node2 -->
<g id="edge13" class="edge">
<title>Node9&#45;&gt;Node2</title>
<path fill="none" stroke="#63b8ff" d="M376.92,-219.57C389.76,-198.98 417.46,-147.06 397,-110 370.91,-62.73 311.88,-34.85 273.83,-21.14"/>
<polygon fill="#63b8ff" stroke="#63b8ff" points="275.25,-17.93 264.65,-17.98 272.97,-24.55 275.25,-17.93"/>
</g>
<!-- Node9&#45;&gt;Node6 -->
<g id="edge14" class="edge">
<title>Node9&#45;&gt;Node6</title>
<path fill="none" stroke="#63b8ff" d="M371.08,-219.66C371.24,-202.57 371.59,-164.61 371.81,-140.92"/>
<polygon fill="#63b8ff" stroke="#63b8ff" points="375.31,-141.01 371.9,-130.97 368.31,-140.94 375.31,-141.01"/>
</g>
<!-- Node9&#45;&gt;Node8 -->
<g id="edge15" class="edge">
<title>Node9&#45;&gt;Node8</title>
<path fill="none" stroke="#63b8ff" d="M387.79,-219.51C403.1,-211.31 425.97,-199.07 443.7,-189.58"/>
<polygon fill="#63b8ff" stroke="#63b8ff" points="444.96,-192.88 452.12,-185.07 441.65,-186.71 444.96,-192.88"/>
</g>
<!-- Node9&#45;&gt;Node10 -->
<g id="edge16" class="edge">
<title>Node9&#45;&gt;Node10</title>
<path fill="none" stroke="#63b8ff" d="M352.34,-219.51C335.17,-211.24 309.45,-198.84 289.67,-189.31"/>
<polygon fill="#63b8ff" stroke="#63b8ff" points="291.28,-186.2 280.75,-185.01 288.24,-192.51 291.28,-186.2"/>
</g>
<!-- Node10&#45;&gt;Node2 -->
<g id="edge17" class="edge">
<title>Node10&#45;&gt;Node2</title>
<path fill="none" stroke="#63b8ff" d="M275.83,-164.65C287.28,-156.88 302.27,-144.41 309,-129 312.38,-121.26 311.55,-118.05 309,-110 298.64,-77.27 273.22,-45.99 256.04,-27.52"/>
<polygon fill="#63b8ff" stroke="#63b8ff" points="258.64,-25.18 249.19,-20.39 253.6,-30.03 258.64,-25.18"/>
</g>
<!-- Node11 -->
<g id="node11" class="node">
<title>Node11</title>
<g id="a_node11"><a xlink:href="bios__const_8h.html" target="_top" xlink:title="Constant variables in the MSX BIOS ROM.">
<polygon fill="white" stroke="#666666" points="175.5,-129 104.5,-129 104.5,-110 175.5,-110 175.5,-129"/>
<text text-anchor="middle" x="140" y="-117" font-family="Helvetica,sans-Serif" font-size="10.00">bios_const.h</text>
</a>
</g>
</g>
<!-- Node10&#45;&gt;Node11 -->
<g id="edge18" class="edge">
<title>Node10&#45;&gt;Node11</title>
<path fill="none" stroke="#63b8ff" d="M240.47,-164.51C221.32,-156.12 192.5,-143.5 170.63,-133.92"/>
<polygon fill="#63b8ff" stroke="#63b8ff" points="172.17,-130.77 161.61,-129.97 169.36,-137.18 172.17,-130.77"/>
</g>
<!-- Node12 -->
<g id="node12" class="node">
<title>Node12</title>
<g id="a_node12"><a xlink:href="bios__entry_8h.html" target="_top" xlink:title="Assembler entry points for MSX BIOS functions.">
<polygon fill="white" stroke="#666666" points="300,-129 232,-129 232,-110 300,-110 300,-129"/>
<text text-anchor="middle" x="266" y="-117" font-family="Helvetica,sans-Serif" font-size="10.00">bios_entry.h</text>
</a>
</g>
</g>
<!-- Node10&#45;&gt;Node12 -->
<g id="edge21" class="edge">
<title>Node10&#45;&gt;Node12</title>
<path fill="none" stroke="#63b8ff" d="M261.83,-164.75C262.44,-158.27 263.3,-149.16 264.08,-140.9"/>
<polygon fill="#63b8ff" stroke="#63b8ff" points="267.56,-141.23 265.01,-130.95 260.59,-140.58 267.56,-141.23"/>
</g>
<!-- Node11&#45;&gt;Node2 -->
<g id="edge19" class="edge">
<title>Node11&#45;&gt;Node2</title>
<path fill="none" stroke="#63b8ff" d="M144.11,-109.57C150.38,-96.59 163.27,-72.17 179,-55 189.3,-43.76 202.79,-33.46 214.37,-25.6"/>
<polygon fill="#63b8ff" stroke="#63b8ff" points="216.2,-28.59 222.66,-20.2 212.38,-22.73 216.2,-28.59"/>
</g>
<!-- Node11&#45;&gt;Node7 -->
<g id="edge20" class="edge">
<title>Node11&#45;&gt;Node7</title>
<path fill="none" stroke="#63b8ff" d="M152.38,-109.51C163.15,-101.7 178.97,-90.21 191.75,-80.93"/>
<polygon fill="#63b8ff" stroke="#63b8ff" points="193.54,-83.95 199.57,-75.25 189.43,-78.29 193.54,-83.95"/>
</g>
<!-- Node12&#45;&gt;Node2 -->
<g id="edge22" class="edge">
<title>Node12&#45;&gt;Node2</title>
<path fill="none" stroke="#63b8ff" d="M263.79,-109.66C259.5,-92.5 249.94,-54.26 244.02,-30.6"/>
<polygon fill="#63b8ff" stroke="#63b8ff" points="247.43,-29.78 241.61,-20.93 240.64,-31.48 247.43,-29.78"/>
</g>
<!-- Node12&#45;&gt;Node7 -->
<g id="edge23" class="edge">
<title>Node12&#45;&gt;Node7</title>
<path fill="none" stroke="#63b8ff" d="M257.25,-109.75C249.85,-102.35 239.04,-91.54 229.95,-82.45"/>
<polygon fill="#63b8ff" stroke="#63b8ff" points="232.56,-80.11 223.01,-75.51 227.61,-85.06 232.56,-80.11"/>
</g>
<!-- Node13&#45;&gt;Node2 -->
<g id="edge26" class="edge">
<title>Node13&#45;&gt;Node2</title>
<path fill="none" stroke="#63b8ff" d="M140.81,-164.6C116.25,-154.01 83.36,-134.62 95,-110 116.19,-65.19 168.84,-37.08 204.26,-22.59"/>
<polygon fill="#63b8ff" stroke="#63b8ff" points="205.2,-25.98 213.23,-19.08 202.65,-19.46 205.2,-25.98"/>
</g>
<!-- Node13&#45;&gt;Node7 -->
<g id="edge27" class="edge">
<title>Node13&#45;&gt;Node7</title>
<path fill="none" stroke="#63b8ff" d="M168.93,-164.66C176.63,-147.34 193.87,-108.55 204.36,-84.95"/>
<polygon fill="#63b8ff" stroke="#63b8ff" points="207.54,-86.4 208.4,-75.84 201.14,-83.56 207.54,-86.4"/>
</g>
<!-- Node13&#45;&gt;Node11 -->
<g id="edge28" class="edge">
<title>Node13&#45;&gt;Node11</title>
<path fill="none" stroke="#63b8ff" d="M160.87,-164.75C157.67,-157.96 153.11,-148.3 149.07,-139.73"/>
<polygon fill="#63b8ff" stroke="#63b8ff" points="152.3,-138.36 144.86,-130.81 145.96,-141.35 152.3,-138.36"/>
</g>
<!-- Node14&#45;&gt;Node2 -->
<g id="edge31" class="edge">
<title>Node14&#45;&gt;Node2</title>
<path fill="none" stroke="#63b8ff" d="M525.08,-219.5C521.6,-190.38 506.45,-98.09 451,-55 423.88,-33.92 327.51,-20.26 274.53,-14.17"/>
<polygon fill="#63b8ff" stroke="#63b8ff" points="275.14,-10.72 264.81,-13.09 274.36,-17.67 275.14,-10.72"/>
</g>
<!-- Node14&#45;&gt;Node8 -->
<g id="edge32" class="edge">
<title>Node14&#45;&gt;Node8</title>
<path fill="none" stroke="#63b8ff" d="M516.5,-219.51C508.57,-212 497.05,-201.1 487.46,-192.03"/>
<polygon fill="#63b8ff" stroke="#63b8ff" points="490.13,-189.73 480.46,-185.4 485.32,-194.81 490.13,-189.73"/>
</g>
</g>
</svg>
