<?xml version="1.0" encoding="UTF-8" standalone="no"?>
<!DOCTYPE svg PUBLIC "-//W3C//DTD SVG 1.1//EN"
 "http://www.w3.org/Graphics/SVG/1.1/DTD/svg11.dtd">
<!-- Generated by graphviz version 7.0.5 (20221223.1930)
 -->
<!-- Title: include/metasprite.h Pages: 1 -->
<svg width="594pt" height="357pt"
 viewBox="0.00 0.00 594.00 357.00" xmlns="http://www.w3.org/2000/svg" xmlns:xlink="http://www.w3.org/1999/xlink">
<g id="graph0" class="graph" transform="scale(1 1) rotate(0) translate(4 353)">
<title>include/metasprite.h</title>
<!-- Node1 -->
<g id="node1" class="node">
<title>Node1</title>
<g id="a_node1"><a xlink:title="Meta&#45;sprite ; an aggregate of sprites.">
<polygon fill="#999999" stroke="#666666" points="459,-349 355,-349 355,-330 459,-330 459,-349"/>
<text text-anchor="middle" x="407" y="-337" font-family="Helvetica,sans-Serif" font-size="10.00">include/metasprite.h</text>
</a>
</g>
</g>
<!-- Node2 -->
<g id="node2" class="node">
<title>Node2</title>
<g id="a_node2"><a xlink:title=" ">
<polygon fill="#e0e0e0" stroke="#999999" points="272,-19 224,-19 224,0 272,0 272,-19"/>
<text text-anchor="middle" x="248" y="-7" font-family="Helvetica,sans-Serif" font-size="10.00">stdint.h</text>
</a>
</g>
</g>
<!-- Node1&#45;&gt;Node2 -->
<g id="edge1" class="edge">
<title>Node1&#45;&gt;Node2</title>
<path fill="none" stroke="#63b8ff" d="M354.63,-335.58C244.7,-328.03 0,-303.06 0,-230.5 0,-230.5 0,-230.5 0,-118.5 0,-27.02 143.6,-12.23 212.26,-10.38"/>
<polygon fill="#63b8ff" stroke="#63b8ff" points="212.32,-13.88 222.26,-10.2 212.19,-6.88 212.32,-13.88"/>
</g>
<!-- Node3 -->
<g id="node3" class="node">
<title>Node3</title>
<g id="a_node3"><a xlink:href="vdp_8h.html" target="_top" xlink:title="Data types and functions for VDP (Video Display Proccessor) access.">
<polygon fill="white" stroke="#666666" points="324,-294 284,-294 284,-275 324,-275 324,-294"/>
<text text-anchor="middle" x="304" y="-282" font-family="Helvetica,sans-Serif" font-size="10.00">vdp.h</text>
</a>
</g>
</g>
<!-- Node1&#45;&gt;Node3 -->
<g id="edge2" class="edge">
<title>Node1&#45;&gt;Node3</title>
<path fill="none" stroke="#63b8ff" d="M389.53,-329.51C373.6,-321.31 349.81,-309.07 331.36,-299.58"/>
<polygon fill="#63b8ff" stroke="#63b8ff" points="333.05,-296.51 322.56,-295.05 329.85,-302.74 333.05,-296.51"/>
</g>
<!-- Node8 -->
<g id="node8" class="node">
<title>Node8</title>
<g id="a_node8"><a xlink:href="vmem_8h.html" target="_top" xlink:title="Data types and functions for VRAM access.">
<polygon fill="white" stroke="#666666" points="513.5,-184 462.5,-184 462.5,-165 513.5,-165 513.5,-184"/>
<text text-anchor="middle" x="488" y="-172" font-family="Helvetica,sans-Serif" font-size="10.00">vmem.h</text>
</a>
</g>
</g>
<!-- Node1&#45;&gt;Node8 -->
<g id="edge30" class="edge">
<title>Node1&#45;&gt;Node8</title>
<path fill="none" stroke="#63b8ff" d="M413.84,-329.67C426.55,-312.89 453.98,-274.84 470,-239 476.24,-225.03 480.87,-208.37 483.87,-195.61"/>
<polygon fill="#63b8ff" stroke="#63b8ff" points="487.28,-196.4 486,-185.89 480.44,-194.9 487.28,-196.4"/>
</g>
<!-- Node15 -->
<g id="node15" class="node">
<title>Node15</title>
<g id="a_node15"><a xlink:href="sprite_8h.html" target="_top" xlink:title="Sprites.">
<polygon fill="white" stroke="#666666" points="586,-239 538,-239 538,-220 586,-220 586,-239"/>
<text text-anchor="middle" x="562" y="-227" font-family="Helvetica,sans-Serif" font-size="10.00">sprite.h</text>
</a>
</g>
</g>
<!-- Node1&#45;&gt;Node15 -->
<g id="edge31" class="edge">
<title>Node1&#45;&gt;Node15</title>
<path fill="none" stroke="#63b8ff" d="M449.79,-329.57C473.66,-322.9 502.76,-311.8 524,-294 538.16,-282.14 548.4,-263.58 554.65,-249.58"/>
<polygon fill="#63b8ff" stroke="#63b8ff" points="557.8,-251.12 558.39,-240.54 551.34,-248.44 557.8,-251.12"/>
</g>
<!-- Node3&#45;&gt;Node2 -->
<g id="edge5" class="edge">
<title>Node3&#45;&gt;Node2</title>
<path fill="none" stroke="#63b8ff" d="M283.57,-279.79C221.28,-267.91 38,-228.46 38,-175.5 38,-175.5 38,-175.5 38,-118.5 38,-40.86 152.92,-18.99 212.73,-12.86"/>
<polygon fill="#63b8ff" stroke="#63b8ff" points="212.77,-16.37 222.4,-11.97 212.12,-9.4 212.77,-16.37"/>
</g>
<!-- Node4 -->
<g id="node4" class="node">
<title>Node4</title>
<g id="a_node4"><a xlink:title=" ">
<polygon fill="#e0e0e0" stroke="#999999" points="201.5,-239 150.5,-239 150.5,-220 201.5,-220 201.5,-239"/>
<text text-anchor="middle" x="176" y="-227" font-family="Helvetica,sans-Serif" font-size="10.00">assert.h</text>
</a>
</g>
</g>
<!-- Node3&#45;&gt;Node4 -->
<g id="edge3" class="edge">
<title>Node3&#45;&gt;Node4</title>
<path fill="none" stroke="#63b8ff" d="M283.72,-275.1C263.39,-266.69 231.8,-253.6 208.07,-243.78"/>
<polygon fill="#63b8ff" stroke="#63b8ff" points="209.44,-240.56 198.87,-239.97 206.77,-247.03 209.44,-240.56"/>
</g>
<!-- Node5 -->
<g id="node5" class="node">
<title>Node5</title>
<g id="a_node5"><a xlink:title=" ">
<polygon fill="#e0e0e0" stroke="#999999" points="276,-239 220,-239 220,-220 276,-220 276,-239"/>
<text text-anchor="middle" x="248" y="-227" font-family="Helvetica,sans-Serif" font-size="10.00">stdbool.h</text>
</a>
</g>
</g>
<!-- Node3&#45;&gt;Node5 -->
<g id="edge4" class="edge">
<title>Node3&#45;&gt;Node5</title>
<path fill="none" stroke="#63b8ff" d="M294.5,-274.51C286.57,-267 275.05,-256.1 265.46,-247.03"/>
<polygon fill="#63b8ff" stroke="#63b8ff" points="268.13,-244.73 258.46,-240.4 263.32,-249.81 268.13,-244.73"/>
</g>
<!-- Node6 -->
<g id="node6" class="node">
<title>Node6</title>
<g id="a_node6"><a xlink:href="io_8h.html" target="_top" xlink:title="Definition of I/O ports.">
<polygon fill="white" stroke="#666666" points="426,-129 394,-129 394,-110 426,-110 426,-129"/>
<text text-anchor="middle" x="410" y="-117" font-family="Helvetica,sans-Serif" font-size="10.00">io.h</text>
</a>
</g>
</g>
<!-- Node3&#45;&gt;Node6 -->
<g id="edge6" class="edge">
<title>Node3&#45;&gt;Node6</title>
<path fill="none" stroke="#63b8ff" d="M324.19,-281.99C350.25,-278.84 394.64,-269.09 415,-239 435.03,-209.39 425.6,-165.45 417.45,-140.23"/>
<polygon fill="#63b8ff" stroke="#63b8ff" points="420.8,-139.2 414.19,-130.92 414.19,-141.52 420.8,-139.2"/>
</g>
<!-- Node3&#45;&gt;Node8 -->
<g id="edge9" class="edge">
<title>Node3&#45;&gt;Node8</title>
<path fill="none" stroke="#63b8ff" d="M324.16,-281.7C353.99,-278.13 410.42,-267.82 448,-239 462.86,-227.6 473.65,-208.98 480.25,-194.85"/>
<polygon fill="#63b8ff" stroke="#63b8ff" points="483.46,-196.24 484.2,-185.67 477.03,-193.47 483.46,-196.24"/>
</g>
<!-- Node10 -->
<g id="node10" class="node">
<title>Node10</title>
<g id="a_node10"><a xlink:href="vdp__unsafe_8h.html" target="_top" xlink:title="Unsafe primitive functions for VDP (Video Display Proccessor) access.">
<polygon fill="white" stroke="#666666" points="406,-239 332,-239 332,-220 406,-220 406,-239"/>
<text text-anchor="middle" x="369" y="-227" font-family="Helvetica,sans-Serif" font-size="10.00">vdp_unsafe.h</text>
</a>
</g>
</g>
<!-- Node3&#45;&gt;Node10 -->
<g id="edge13" class="edge">
<title>Node3&#45;&gt;Node10</title>
<path fill="none" stroke="#63b8ff" d="M315.03,-274.51C324.42,-266.85 338.15,-255.66 349.41,-246.47"/>
<polygon fill="#63b8ff" stroke="#63b8ff" points="351.43,-249.35 356.96,-240.31 347,-243.92 351.43,-249.35"/>
</g>
<!-- Node11 -->
<g id="node11" class="node">
<title>Node11</title>
<g id="a_node11"><a xlink:href="bios_8h.html" target="_top" xlink:title="C language I/F for MSX BIOS routines.">
<polygon fill="white" stroke="#666666" points="159,-184 117,-184 117,-165 159,-165 159,-184"/>
<text text-anchor="middle" x="138" y="-172" font-family="Helvetica,sans-Serif" font-size="10.00">bios.h</text>
</a>
</g>
</g>
<!-- Node3&#45;&gt;Node11 -->
<g id="edge25" class="edge">
<title>Node3&#45;&gt;Node11</title>
<path fill="none" stroke="#63b8ff" d="M283.69,-280.93C244.1,-275.45 158.89,-261.32 141,-239 131.38,-227 131.34,-209.25 133.31,-195.57"/>
<polygon fill="#63b8ff" stroke="#63b8ff" points="136.71,-196.39 135.17,-185.91 129.84,-195.06 136.71,-196.39"/>
</g>
<!-- Node14 -->
<g id="node14" class="node">
<title>Node14</title>
<g id="a_node14"><a xlink:href="workarea_8h.html" target="_top" xlink:title="Definitions of MSX SYSTEM Workarea.">
<polygon fill="white" stroke="#666666" points="326,-184 262,-184 262,-165 326,-165 326,-184"/>
<text text-anchor="middle" x="294" y="-172" font-family="Helvetica,sans-Serif" font-size="10.00">workarea.h</text>
</a>
</g>
</g>
<!-- Node3&#45;&gt;Node14 -->
<g id="edge26" class="edge">
<title>Node3&#45;&gt;Node14</title>
<path fill="none" stroke="#63b8ff" d="M303.18,-274.66C301.6,-257.57 298.08,-219.61 295.89,-195.92"/>
<polygon fill="#63b8ff" stroke="#63b8ff" points="299.38,-195.6 294.97,-185.97 292.41,-196.25 299.38,-195.6"/>
</g>
<!-- Node7 -->
<g id="node7" class="node">
<title>Node7</title>
<g id="a_node7"><a xlink:href="config_8h.html" target="_top" xlink:title="Hack for C Compiler portability.">
<polygon fill="white" stroke="#666666" points="300,-74 250,-74 250,-55 300,-55 300,-74"/>
<text text-anchor="middle" x="275" y="-62" font-family="Helvetica,sans-Serif" font-size="10.00">config.h</text>
</a>
</g>
</g>
<!-- Node6&#45;&gt;Node7 -->
<g id="edge7" class="edge">
<title>Node6&#45;&gt;Node7</title>
<path fill="none" stroke="#63b8ff" d="M393.72,-112.11C372.64,-103.83 335.39,-89.21 308.23,-78.54"/>
<polygon fill="#63b8ff" stroke="#63b8ff" points="309.64,-75.34 299.05,-74.94 307.08,-81.85 309.64,-75.34"/>
</g>
<!-- Node7&#45;&gt;Node2 -->
<g id="edge8" class="edge">
<title>Node7&#45;&gt;Node2</title>
<path fill="none" stroke="#63b8ff" d="M270.54,-54.75C267.05,-47.88 262.05,-38.08 257.65,-29.45"/>
<polygon fill="#63b8ff" stroke="#63b8ff" points="260.9,-28.11 253.24,-20.79 254.66,-31.29 260.9,-28.11"/>
</g>
<!-- Node8&#45;&gt;Node2 -->
<g id="edge10" class="edge">
<title>Node8&#45;&gt;Node2</title>
<path fill="none" stroke="#63b8ff" d="M494.57,-164.58C503.26,-151.61 516.23,-127.2 505,-110 456.2,-35.21 341.95,-16.59 283.63,-11.98"/>
<polygon fill="#63b8ff" stroke="#63b8ff" points="284.13,-8.51 273.92,-11.32 283.66,-15.49 284.13,-8.51"/>
</g>
<!-- Node8&#45;&gt;Node6 -->
<g id="edge12" class="edge">
<title>Node8&#45;&gt;Node6</title>
<path fill="none" stroke="#63b8ff" d="M474.77,-164.51C463.16,-156.62 446.03,-144.98 432.3,-135.65"/>
<polygon fill="#63b8ff" stroke="#63b8ff" points="434.53,-132.93 424.29,-130.21 430.59,-138.72 434.53,-132.93"/>
</g>
<!-- Node9 -->
<g id="node9" class="node">
<title>Node9</title>
<g id="a_node9"><a xlink:title=" ">
<polygon fill="#e0e0e0" stroke="#999999" points="495.5,-129 444.5,-129 444.5,-110 495.5,-110 495.5,-129"/>
<text text-anchor="middle" x="470" y="-117" font-family="Helvetica,sans-Serif" font-size="10.00">stddef.h</text>
</a>
</g>
</g>
<!-- Node8&#45;&gt;Node9 -->
<g id="edge11" class="edge">
<title>Node8&#45;&gt;Node9</title>
<path fill="none" stroke="#63b8ff" d="M485.03,-164.75C482.77,-158.11 479.59,-148.73 476.73,-140.31"/>
<polygon fill="#63b8ff" stroke="#63b8ff" points="480.05,-139.22 473.52,-130.88 473.43,-141.47 480.05,-139.22"/>
</g>
<!-- Node10&#45;&gt;Node2 -->
<g id="edge14" class="edge">
<title>Node10&#45;&gt;Node2</title>
<path fill="none" stroke="#63b8ff" d="M369.14,-219.54C369.13,-192.02 365.69,-107.47 326,-55 315.07,-40.55 298,-30.05 282.6,-22.89"/>
<polygon fill="#63b8ff" stroke="#63b8ff" points="284.27,-19.8 273.7,-19.06 281.5,-26.23 284.27,-19.8"/>
</g>
<!-- Node10&#45;&gt;Node6 -->
<g id="edge15" class="edge">
<title>Node10&#45;&gt;Node6</title>
<path fill="none" stroke="#63b8ff" d="M372.36,-219.66C378.93,-202.34 393.66,-163.55 402.62,-139.95"/>
<polygon fill="#63b8ff" stroke="#63b8ff" points="405.78,-141.47 406.06,-130.88 399.24,-138.98 405.78,-141.47"/>
</g>
<!-- Node10&#45;&gt;Node8 -->
<g id="edge16" class="edge">
<title>Node10&#45;&gt;Node8</title>
<path fill="none" stroke="#63b8ff" d="M389.19,-219.51C408.02,-211.12 436.37,-198.5 457.87,-188.92"/>
<polygon fill="#63b8ff" stroke="#63b8ff" points="459.02,-192.24 466.73,-184.97 456.17,-185.85 459.02,-192.24"/>
</g>
<!-- Node10&#45;&gt;Node11 -->
<g id="edge17" class="edge">
<title>Node10&#45;&gt;Node11</title>
<path fill="none" stroke="#63b8ff" d="M331.63,-219.93C286.93,-209.67 212.83,-192.67 170.43,-182.94"/>
<polygon fill="#63b8ff" stroke="#63b8ff" points="171.37,-179.57 160.84,-180.74 169.81,-186.39 171.37,-179.57"/>
</g>
<!-- Node11&#45;&gt;Node2 -->
<g id="edge18" class="edge">
<title>Node11&#45;&gt;Node2</title>
<path fill="none" stroke="#63b8ff" d="M124.47,-164.6C108.06,-152.63 83.89,-130.48 95,-110 119.85,-64.19 175.93,-36.17 212.85,-21.99"/>
<polygon fill="#63b8ff" stroke="#63b8ff" points="214.03,-25.29 222.22,-18.55 211.62,-18.72 214.03,-25.29"/>
</g>
<!-- Node12 -->
<g id="node12" class="node">
<title>Node12</title>
<g id="a_node12"><a xlink:href="bios__const_8h.html" target="_top" xlink:title="Constant variables in the MSX BIOS ROM.">
<polygon fill="white" stroke="#666666" points="261.5,-129 190.5,-129 190.5,-110 261.5,-110 261.5,-129"/>
<text text-anchor="middle" x="226" y="-117" font-family="Helvetica,sans-Serif" font-size="10.00">bios_const.h</text>
</a>
</g>
</g>
<!-- Node11&#45;&gt;Node12 -->
<g id="edge19" class="edge">
<title>Node11&#45;&gt;Node12</title>
<path fill="none" stroke="#63b8ff" d="M152.93,-164.51C166.28,-156.47 186.11,-144.53 201.74,-135.11"/>
<polygon fill="#63b8ff" stroke="#63b8ff" points="203.24,-138.3 210,-130.14 199.62,-132.3 203.24,-138.3"/>
</g>
<!-- Node13 -->
<g id="node13" class="node">
<title>Node13</title>
<g id="a_node13"><a xlink:href="bios__entry_8h.html" target="_top" xlink:title="Assembler entry points for MSX BIOS functions.">
<polygon fill="white" stroke="#666666" points="172,-129 104,-129 104,-110 172,-110 172,-129"/>
<text text-anchor="middle" x="138" y="-117" font-family="Helvetica,sans-Serif" font-size="10.00">bios_entry.h</text>
</a>
</g>
</g>
<!-- Node11&#45;&gt;Node13 -->
<g id="edge22" class="edge">
<title>Node11&#45;&gt;Node13</title>
<path fill="none" stroke="#63b8ff" d="M138,-164.75C138,-158.27 138,-149.16 138,-140.9"/>
<polygon fill="#63b8ff" stroke="#63b8ff" points="141.5,-140.96 138,-130.96 134.5,-140.96 141.5,-140.96"/>
</g>
<!-- Node12&#45;&gt;Node2 -->
<g id="edge20" class="edge">
<title>Node12&#45;&gt;Node2</title>
<path fill="none" stroke="#63b8ff" d="M227.8,-109.66C231.3,-92.5 239.09,-54.26 243.91,-30.6"/>
<polygon fill="#63b8ff" stroke="#63b8ff" points="247.31,-31.44 245.87,-20.94 240.45,-30.04 247.31,-31.44"/>
</g>
<!-- Node12&#45;&gt;Node7 -->
<g id="edge21" class="edge">
<title>Node12&#45;&gt;Node7</title>
<path fill="none" stroke="#63b8ff" d="M234.09,-109.75C240.86,-102.43 250.72,-91.76 259.06,-82.74"/>
<polygon fill="#63b8ff" stroke="#63b8ff" points="261.49,-85.27 265.71,-75.55 256.35,-80.52 261.49,-85.27"/>
</g>
<!-- Node13&#45;&gt;Node2 -->
<g id="edge23" class="edge">
<title>Node13&#45;&gt;Node2</title>
<path fill="none" stroke="#63b8ff" d="M147,-109.66C165.29,-91.7 207.07,-50.69 230.76,-27.42"/>
<polygon fill="#63b8ff" stroke="#63b8ff" points="233.11,-30.02 237.79,-20.52 228.21,-25.03 233.11,-30.02"/>
</g>
<!-- Node13&#45;&gt;Node7 -->
<g id="edge24" class="edge">
<title>Node13&#45;&gt;Node7</title>
<path fill="none" stroke="#63b8ff" d="M161.24,-109.51C183.32,-100.97 216.75,-88.03 241.67,-78.4"/>
<polygon fill="#63b8ff" stroke="#63b8ff" points="242.63,-81.78 250.69,-74.9 240.1,-75.25 242.63,-81.78"/>
</g>
<!-- Node14&#45;&gt;Node2 -->
<g id="edge27" class="edge">
<title>Node14&#45;&gt;Node2</title>
<path fill="none" stroke="#63b8ff" d="M298.39,-164.59C307.87,-144.02 327.89,-92.16 309,-55 302.52,-42.26 290.49,-32.29 278.82,-25.06"/>
<polygon fill="#63b8ff" stroke="#63b8ff" points="280.55,-22.01 270.12,-20.14 277.1,-28.11 280.55,-22.01"/>
</g>
<!-- Node14&#45;&gt;Node7 -->
<g id="edge28" class="edge">
<title>Node14&#45;&gt;Node7</title>
<path fill="none" stroke="#63b8ff" d="M292.45,-164.66C289.43,-147.5 282.7,-109.26 278.54,-85.6"/>
<polygon fill="#63b8ff" stroke="#63b8ff" points="282.02,-85.19 276.84,-75.95 275.12,-86.41 282.02,-85.19"/>
</g>
<!-- Node14&#45;&gt;Node12 -->
<g id="edge29" class="edge">
<title>Node14&#45;&gt;Node12</title>
<path fill="none" stroke="#63b8ff" d="M282.46,-164.51C272.54,-156.77 257.99,-145.43 246.14,-136.2"/>
<polygon fill="#63b8ff" stroke="#63b8ff" points="248.6,-133.68 238.56,-130.29 244.29,-139.2 248.6,-133.68"/>
</g>
<!-- Node15&#45;&gt;Node2 -->
<g id="edge32" class="edge">
<title>Node15&#45;&gt;Node2</title>
<path fill="none" stroke="#63b8ff" d="M560.75,-219.78C555.95,-189.89 535.62,-91.39 472,-55 412,-20.68 329.85,-12.47 283.53,-10.72"/>
<polygon fill="#63b8ff" stroke="#63b8ff" points="283.9,-7.23 273.8,-10.44 283.7,-14.23 283.9,-7.23"/>
</g>
<!-- Node15&#45;&gt;Node8 -->
<g id="edge33" class="edge">
<title>Node15&#45;&gt;Node8</title>
<path fill="none" stroke="#63b8ff" d="M549.45,-219.51C538.54,-211.7 522.5,-200.21 509.54,-190.93"/>
<polygon fill="#63b8ff" stroke="#63b8ff" points="511.77,-188.22 501.6,-185.24 507.69,-193.91 511.77,-188.22"/>
</g>
</g>
</svg>
