<?xml version="1.0" encoding="UTF-8" standalone="no"?>
<!DOCTYPE svg PUBLIC "-//W3C//DTD SVG 1.1//EN"
 "http://www.w3.org/Graphics/SVG/1.1/DTD/svg11.dtd">
<!-- Generated by graphviz version 2.44.0 ()
 -->
<!-- Title: include/metasprite.h Pages: 1 -->
<svg width="393pt" height="252pt"
 viewBox="0.00 0.00 393.45 252.00" xmlns="http://www.w3.org/2000/svg" xmlns:xlink="http://www.w3.org/1999/xlink">
<g id="graph0" class="graph" transform="scale(1 1) rotate(0) translate(4 248)">
<title>include/metasprite.h</title>
<!-- Node1 -->
<g id="node1" class="node">
<title>Node1</title>
<g id="a_node1"><a xlink:title="Copyright (c) 2021 Daishi Mori (mori0091)">
<polygon fill="#bfbfbf" stroke="black" points="187.2,-224.5 187.2,-243.5 291.2,-243.5 291.2,-224.5 187.2,-224.5"/>
<text text-anchor="middle" x="239.2" y="-231.5" font-family="Helvetica,sans-Serif" font-size="10.00">include/metasprite.h</text>
</a>
</g>
</g>
<!-- Node2 -->
<g id="node2" class="node">
<title>Node2</title>
<g id="a_node2"><a xlink:title=" ">
<polygon fill="none" stroke="#bfbfbf" points="128.2,-0.5 128.2,-19.5 176.2,-19.5 176.2,-0.5 128.2,-0.5"/>
<text text-anchor="middle" x="152.2" y="-7.5" font-family="Helvetica,sans-Serif" font-size="10.00">stdint.h</text>
</a>
</g>
</g>
<!-- Node1&#45;&gt;Node2 -->
<g id="edge1" class="edge">
<title>Node1&#45;&gt;Node2</title>
<path fill="none" stroke="midnightblue" d="M187.11,-225C134.65,-213.94 56.08,-188.51 17.2,-132 -1.98,-104.14 -6.7,-83.35 13.2,-56 36.96,-23.33 84.95,-13.89 117.83,-11.43"/>
<polygon fill="midnightblue" stroke="midnightblue" points="118.14,-14.91 127.93,-10.85 117.74,-7.93 118.14,-14.91"/>
</g>
<!-- Node3 -->
<g id="node3" class="node">
<title>Node3</title>
<g id="a_node3"><a xlink:href="vdp_8h.html" target="_top" xlink:title="Data types and functions for VDP (Video Display Proccessor) access.">
<polygon fill="none" stroke="black" points="146.2,-168.5 146.2,-187.5 186.2,-187.5 186.2,-168.5 146.2,-168.5"/>
<text text-anchor="middle" x="166.2" y="-175.5" font-family="Helvetica,sans-Serif" font-size="10.00">vdp.h</text>
</a>
</g>
</g>
<!-- Node1&#45;&gt;Node3 -->
<g id="edge2" class="edge">
<title>Node1&#45;&gt;Node3</title>
<path fill="none" stroke="midnightblue" d="M227.47,-224.32C216.36,-216.11 199.45,-203.6 186.21,-193.81"/>
<polygon fill="midnightblue" stroke="midnightblue" points="188.26,-190.97 178.14,-187.83 184.1,-196.59 188.26,-190.97"/>
</g>
<!-- Node7 -->
<g id="node7" class="node">
<title>Node7</title>
<g id="a_node7"><a xlink:href="vmem_8h.html" target="_top" xlink:title="Data types and functions for VRAM access.">
<polygon fill="none" stroke="black" points="320.7,-112.5 320.7,-131.5 371.7,-131.5 371.7,-112.5 320.7,-112.5"/>
<text text-anchor="middle" x="346.2" y="-119.5" font-family="Helvetica,sans-Serif" font-size="10.00">vmem.h</text>
</a>
</g>
</g>
<!-- Node1&#45;&gt;Node7 -->
<g id="edge17" class="edge">
<title>Node1&#45;&gt;Node7</title>
<path fill="none" stroke="midnightblue" d="M247.59,-224.37C265.49,-205.97 307.61,-162.67 330.58,-139.05"/>
<polygon fill="midnightblue" stroke="midnightblue" points="333.38,-141.2 337.84,-131.59 328.36,-136.32 333.38,-141.2"/>
</g>
<!-- Node12 -->
<g id="node12" class="node">
<title>Node12</title>
<g id="a_node12"><a xlink:href="sprite_8h.html" target="_top" xlink:title="Copyright (c) 2021 Daishi Mori (mori0091)">
<polygon fill="none" stroke="black" points="322.2,-168.5 322.2,-187.5 370.2,-187.5 370.2,-168.5 322.2,-168.5"/>
<text text-anchor="middle" x="346.2" y="-175.5" font-family="Helvetica,sans-Serif" font-size="10.00">sprite.h</text>
</a>
</g>
</g>
<!-- Node1&#45;&gt;Node12 -->
<g id="edge18" class="edge">
<title>Node1&#45;&gt;Node12</title>
<path fill="none" stroke="midnightblue" d="M256.39,-224.32C273.55,-215.66 300.14,-202.24 319.94,-192.25"/>
<polygon fill="midnightblue" stroke="midnightblue" points="321.7,-195.28 329.05,-187.65 318.54,-189.04 321.7,-195.28"/>
</g>
<!-- Node3&#45;&gt;Node2 -->
<g id="edge5" class="edge">
<title>Node3&#45;&gt;Node2</title>
<path fill="none" stroke="midnightblue" d="M145.9,-176.26C116.16,-174.02 61.02,-165.32 31.2,-132 14.22,-113.03 21.88,-101.31 19.2,-76 18.26,-67.16 14.02,-63.22 19.2,-56 41.54,-24.86 86.6,-14.99 118.05,-12.02"/>
<polygon fill="midnightblue" stroke="midnightblue" points="118.44,-15.5 128.15,-11.25 117.91,-8.52 118.44,-15.5"/>
</g>
<!-- Node4 -->
<g id="node4" class="node">
<title>Node4</title>
<g id="a_node4"><a xlink:title=" ">
<polygon fill="none" stroke="#bfbfbf" points="176.7,-112.5 176.7,-131.5 227.7,-131.5 227.7,-112.5 176.7,-112.5"/>
<text text-anchor="middle" x="202.2" y="-119.5" font-family="Helvetica,sans-Serif" font-size="10.00">assert.h</text>
</a>
</g>
</g>
<!-- Node3&#45;&gt;Node4 -->
<g id="edge3" class="edge">
<title>Node3&#45;&gt;Node4</title>
<path fill="none" stroke="midnightblue" d="M172.14,-168.08C177.17,-160.53 184.53,-149.49 190.71,-140.23"/>
<polygon fill="midnightblue" stroke="midnightblue" points="193.73,-142.01 196.36,-131.75 187.9,-138.13 193.73,-142.01"/>
</g>
<!-- Node5 -->
<g id="node5" class="node">
<title>Node5</title>
<g id="a_node5"><a xlink:title=" ">
<polygon fill="none" stroke="#bfbfbf" points="246.2,-112.5 246.2,-131.5 302.2,-131.5 302.2,-112.5 246.2,-112.5"/>
<text text-anchor="middle" x="274.2" y="-119.5" font-family="Helvetica,sans-Serif" font-size="10.00">stdbool.h</text>
</a>
</g>
</g>
<!-- Node3&#45;&gt;Node5 -->
<g id="edge4" class="edge">
<title>Node3&#45;&gt;Node5</title>
<path fill="none" stroke="midnightblue" d="M183.55,-168.32C200.87,-159.66 227.71,-146.24 247.7,-136.25"/>
<polygon fill="midnightblue" stroke="midnightblue" points="249.51,-139.26 256.89,-131.65 246.38,-133 249.51,-139.26"/>
</g>
<!-- Node6 -->
<g id="node6" class="node">
<title>Node6</title>
<g id="a_node6"><a xlink:href="io_8h.html" target="_top" xlink:title="Copyright (c) 2021 Daishi Mori (mori0091)">
<polygon fill="none" stroke="black" points="286.2,-56.5 286.2,-75.5 318.2,-75.5 318.2,-56.5 286.2,-56.5"/>
<text text-anchor="middle" x="302.2" y="-63.5" font-family="Helvetica,sans-Serif" font-size="10.00">io.h</text>
</a>
</g>
</g>
<!-- Node3&#45;&gt;Node6 -->
<g id="edge6" class="edge">
<title>Node3&#45;&gt;Node6</title>
<path fill="none" stroke="midnightblue" d="M163.47,-168.43C159.75,-154.98 154.88,-128.72 167.2,-112 195.92,-73.01 224.93,-90.34 276.24,-75.95"/>
<polygon fill="midnightblue" stroke="midnightblue" points="277.58,-79.2 286.08,-72.88 275.49,-72.52 277.58,-79.2"/>
</g>
<!-- Node3&#45;&gt;Node7 -->
<g id="edge7" class="edge">
<title>Node3&#45;&gt;Node7</title>
<path fill="none" stroke="midnightblue" d="M186.5,-170.91C216.58,-161.88 273.45,-144.83 310.57,-133.69"/>
<polygon fill="midnightblue" stroke="midnightblue" points="311.9,-136.94 320.48,-130.72 309.89,-130.24 311.9,-136.94"/>
</g>
<!-- Node8 -->
<g id="node8" class="node">
<title>Node8</title>
<g id="a_node8"><a xlink:href="bios_8h.html" target="_top" xlink:title="Copyright (c) 2021 Daishi Mori (mori0091)">
<polygon fill="none" stroke="black" points="40.2,-112.5 40.2,-131.5 82.2,-131.5 82.2,-112.5 40.2,-112.5"/>
<text text-anchor="middle" x="61.2" y="-119.5" font-family="Helvetica,sans-Serif" font-size="10.00">bios.h</text>
</a>
</g>
</g>
<!-- Node3&#45;&gt;Node8 -->
<g id="edge10" class="edge">
<title>Node3&#45;&gt;Node8</title>
<path fill="none" stroke="midnightblue" d="M149.33,-168.32C132.49,-159.66 106.39,-146.24 86.96,-136.25"/>
<polygon fill="midnightblue" stroke="midnightblue" points="88.52,-133.12 78.02,-131.65 85.32,-139.34 88.52,-133.12"/>
</g>
<!-- Node11 -->
<g id="node11" class="node">
<title>Node11</title>
<g id="a_node11"><a xlink:href="workarea_8h.html" target="_top" xlink:title="Copyright (c) 2021 Daishi Mori (mori0091)">
<polygon fill="none" stroke="black" points="204.2,-56.5 204.2,-75.5 268.2,-75.5 268.2,-56.5 204.2,-56.5"/>
<text text-anchor="middle" x="236.2" y="-63.5" font-family="Helvetica,sans-Serif" font-size="10.00">workarea.h</text>
</a>
</g>
</g>
<!-- Node3&#45;&gt;Node11 -->
<g id="edge15" class="edge">
<title>Node3&#45;&gt;Node11</title>
<path fill="none" stroke="midnightblue" d="M156.14,-168.23C142.68,-155.4 121.83,-130.97 134.2,-112 141.76,-100.39 172.78,-87.69 198.65,-78.75"/>
<polygon fill="midnightblue" stroke="midnightblue" points="199.89,-82.02 208.25,-75.52 197.66,-75.39 199.89,-82.02"/>
</g>
<!-- Node7&#45;&gt;Node2 -->
<g id="edge8" class="edge">
<title>Node7&#45;&gt;Node2</title>
<path fill="none" stroke="midnightblue" d="M346.24,-112.49C345.82,-98.63 342.91,-71.21 327.2,-56 289.31,-19.33 225.73,-11.41 186.53,-10.3"/>
<polygon fill="midnightblue" stroke="midnightblue" points="186.45,-6.8 176.4,-10.15 186.35,-13.8 186.45,-6.8"/>
</g>
<!-- Node7&#45;&gt;Node6 -->
<g id="edge9" class="edge">
<title>Node7&#45;&gt;Node6</title>
<path fill="none" stroke="midnightblue" d="M338.93,-112.08C332.65,-104.38 323.41,-93.03 315.77,-83.65"/>
<polygon fill="midnightblue" stroke="midnightblue" points="318.36,-81.29 309.33,-75.75 312.93,-85.71 318.36,-81.29"/>
</g>
<!-- Node9 -->
<g id="node9" class="node">
<title>Node9</title>
<g id="a_node9"><a xlink:href="bios__const_8h.html" target="_top" xlink:title="Constant variables in the MSX BIOS ROM.">
<polygon fill="none" stroke="black" points="28.7,-56.5 28.7,-75.5 99.7,-75.5 99.7,-56.5 28.7,-56.5"/>
<text text-anchor="middle" x="64.2" y="-63.5" font-family="Helvetica,sans-Serif" font-size="10.00">bios_const.h</text>
</a>
</g>
</g>
<!-- Node8&#45;&gt;Node9 -->
<g id="edge11" class="edge">
<title>Node8&#45;&gt;Node9</title>
<path fill="none" stroke="midnightblue" d="M61.69,-112.08C62.09,-105.01 62.65,-94.86 63.14,-85.99"/>
<polygon fill="midnightblue" stroke="midnightblue" points="66.65,-85.93 63.71,-75.75 59.66,-85.54 66.65,-85.93"/>
</g>
<!-- Node10 -->
<g id="node10" class="node">
<title>Node10</title>
<g id="a_node10"><a xlink:href="bios__entry_8h.html" target="_top" xlink:title="Assembler entry points for MSX BIOS functions.">
<polygon fill="none" stroke="black" points="118.2,-56.5 118.2,-75.5 186.2,-75.5 186.2,-56.5 118.2,-56.5"/>
<text text-anchor="middle" x="152.2" y="-63.5" font-family="Helvetica,sans-Serif" font-size="10.00">bios_entry.h</text>
</a>
</g>
</g>
<!-- Node8&#45;&gt;Node10 -->
<g id="edge13" class="edge">
<title>Node8&#45;&gt;Node10</title>
<path fill="none" stroke="midnightblue" d="M75.82,-112.32C90.15,-103.82 112.21,-90.73 128.95,-80.8"/>
<polygon fill="midnightblue" stroke="midnightblue" points="130.8,-83.77 137.61,-75.65 127.23,-77.75 130.8,-83.77"/>
</g>
<!-- Node9&#45;&gt;Node2 -->
<g id="edge12" class="edge">
<title>Node9&#45;&gt;Node2</title>
<path fill="none" stroke="midnightblue" d="M78.34,-56.32C92.06,-47.9 113.13,-34.97 129.26,-25.07"/>
<polygon fill="midnightblue" stroke="midnightblue" points="131.4,-27.87 138.09,-19.65 127.74,-21.9 131.4,-27.87"/>
</g>
<!-- Node10&#45;&gt;Node2 -->
<g id="edge14" class="edge">
<title>Node10&#45;&gt;Node2</title>
<path fill="none" stroke="midnightblue" d="M152.2,-56.08C152.2,-49.01 152.2,-38.86 152.2,-29.99"/>
<polygon fill="midnightblue" stroke="midnightblue" points="155.7,-29.75 152.2,-19.75 148.7,-29.75 155.7,-29.75"/>
</g>
<!-- Node11&#45;&gt;Node2 -->
<g id="edge16" class="edge">
<title>Node11&#45;&gt;Node2</title>
<path fill="none" stroke="midnightblue" d="M222.7,-56.32C209.6,-47.9 189.48,-34.97 174.09,-25.07"/>
<polygon fill="midnightblue" stroke="midnightblue" points="175.96,-22.12 165.66,-19.65 172.18,-28.01 175.96,-22.12"/>
</g>
<!-- Node12&#45;&gt;Node2 -->
<g id="edge19" class="edge">
<title>Node12&#45;&gt;Node2</title>
<path fill="none" stroke="midnightblue" d="M355.75,-168.45C364.29,-160.12 376.19,-146.6 381.2,-132 393.21,-97 377.18,-77.68 347.2,-56 299.02,-21.17 228.13,-12.8 186.41,-11.07"/>
<polygon fill="midnightblue" stroke="midnightblue" points="186.32,-7.57 176.22,-10.76 186.1,-14.57 186.32,-7.57"/>
</g>
<!-- Node12&#45;&gt;Node7 -->
<g id="edge20" class="edge">
<title>Node12&#45;&gt;Node7</title>
<path fill="none" stroke="midnightblue" d="M346.2,-168.08C346.2,-161.01 346.2,-150.86 346.2,-141.99"/>
<polygon fill="midnightblue" stroke="midnightblue" points="349.7,-141.75 346.2,-131.75 342.7,-141.75 349.7,-141.75"/>
</g>
</g>
</svg>
