<?xml version="1.0" encoding="UTF-8" standalone="no"?>
<!DOCTYPE svg PUBLIC "-//W3C//DTD SVG 1.1//EN"
 "http://www.w3.org/Graphics/SVG/1.1/DTD/svg11.dtd">
<!-- Generated by graphviz version 3.0.0 (20221109.1736)
 -->
<!-- Title: include/msx.h Pages: 1 -->
<svg width="1070pt" height="364pt"
 viewBox="0.00 0.00 1070.00 364.00" xmlns="http://www.w3.org/2000/svg" xmlns:xlink="http://www.w3.org/1999/xlink">
<g id="graph0" class="graph" transform="scale(1 1) rotate(0) translate(4 360)">
<title>include/msx.h</title>
<!-- Node1 -->
<g id="node1" class="node">
<title>Node1</title>
<g id="a_node1"><a xlink:title="Using #include &lt;msx.h&gt; includes almost all C header files in libmsx, for ease to use.">
<polygon fill="#bfbfbf" stroke="black" points="507,-336.5 507,-355.5 583,-355.5 583,-336.5 507,-336.5"/>
<text text-anchor="middle" x="545" y="-343.5" font-family="Helvetica,sans-Serif" font-size="10.00">include/msx.h</text>
</a>
</g>
</g>
<!-- Node2 -->
<g id="node2" class="node">
<title>Node2</title>
<g id="a_node2"><a xlink:href="config_8h.html" target="_top" xlink:title="Hack for C Compiler portability.">
<polygon fill="none" stroke="black" points="149,-0.5 149,-19.5 199,-19.5 199,-0.5 149,-0.5"/>
<text text-anchor="middle" x="174" y="-7.5" font-family="Helvetica,sans-Serif" font-size="10.00">config.h</text>
</a>
</g>
</g>
<!-- Node1&#45;&gt;Node2 -->
<g id="edge1" class="edge">
<title>Node1&#45;&gt;Node2</title>
<path fill="none" stroke="midnightblue" d="M506.89,-344.56C408.28,-342.92 146.99,-335.29 69,-300 30.62,-282.63 0,-277.13 0,-235 0,-235 0,-235 0,-121 0,-55.97 87.91,-27.81 138.76,-16.96"/>
<polygon fill="midnightblue" stroke="midnightblue" points="139.59,-20.37 148.7,-14.96 138.2,-13.5 139.59,-20.37"/>
</g>
<!-- Node3 -->
<g id="node3" class="node">
<title>Node3</title>
<g id="a_node3"><a xlink:href="interrupt_8h.html" target="_top" xlink:title="Interrupts relevant functions and Pluggable interrupts handler interface.">
<polygon fill="none" stroke="black" points="798.5,-224.5 798.5,-243.5 857.5,-243.5 857.5,-224.5 798.5,-224.5"/>
<text text-anchor="middle" x="828" y="-231.5" font-family="Helvetica,sans-Serif" font-size="10.00">interrupt.h</text>
</a>
</g>
</g>
<!-- Node1&#45;&gt;Node3 -->
<g id="edge2" class="edge">
<title>Node1&#45;&gt;Node3</title>
<path fill="none" stroke="midnightblue" d="M572.49,-336.43C599.55,-327.83 641.94,-313.88 678,-300 721.31,-283.32 770.49,-261.43 800.37,-247.79"/>
<polygon fill="midnightblue" stroke="midnightblue" points="802.1,-250.85 809.73,-243.5 799.18,-244.49 802.1,-250.85"/>
</g>
<!-- Node6 -->
<g id="node6" class="node">
<title>Node6</title>
<g id="a_node6"><a xlink:href="io_8h.html" target="_top" xlink:title="Definition of I/O ports.">
<polygon fill="none" stroke="black" points="114,-56.5 114,-75.5 146,-75.5 146,-56.5 114,-56.5"/>
<text text-anchor="middle" x="130" y="-63.5" font-family="Helvetica,sans-Serif" font-size="10.00">io.h</text>
</a>
</g>
</g>
<!-- Node1&#45;&gt;Node6 -->
<g id="edge5" class="edge">
<title>Node1&#45;&gt;Node6</title>
<path fill="none" stroke="midnightblue" d="M506.89,-344.85C388.98,-343.37 38,-330.92 38,-235 38,-235 38,-235 38,-177 38,-146.9 38.75,-135.94 57,-112 69.18,-96.02 88.82,-84.38 104.65,-76.95"/>
<polygon fill="midnightblue" stroke="midnightblue" points="106.18,-80.1 113.92,-72.86 103.36,-73.69 106.18,-80.1"/>
</g>
<!-- Node7 -->
<g id="node7" class="node">
<title>Node7</title>
<g id="a_node7"><a xlink:href="bios_8h.html" target="_top" xlink:title="C language I/F for MSX BIOS routines.">
<polygon fill="none" stroke="black" points="316,-112.5 316,-131.5 358,-131.5 358,-112.5 316,-112.5"/>
<text text-anchor="middle" x="337" y="-119.5" font-family="Helvetica,sans-Serif" font-size="10.00">bios.h</text>
</a>
</g>
</g>
<!-- Node1&#45;&gt;Node7 -->
<g id="edge7" class="edge">
<title>Node1&#45;&gt;Node7</title>
<path fill="none" stroke="midnightblue" d="M512.71,-336.49C455.25,-319.39 336.73,-274.87 288,-188 277.58,-169.42 296.42,-150.19 313.67,-137.51"/>
<polygon fill="midnightblue" stroke="midnightblue" points="316.13,-140.07 322.39,-131.52 312.16,-134.3 316.13,-140.07"/>
</g>
<!-- Node10 -->
<g id="node10" class="node">
<title>Node10</title>
<g id="a_node10"><a xlink:href="workarea_8h.html" target="_top" xlink:title="Definitions of MSX SYSTEM Workarea.">
<polygon fill="none" stroke="black" points="206,-112.5 206,-131.5 270,-131.5 270,-112.5 206,-112.5"/>
<text text-anchor="middle" x="238" y="-119.5" font-family="Helvetica,sans-Serif" font-size="10.00">workarea.h</text>
</a>
</g>
</g>
<!-- Node1&#45;&gt;Node10 -->
<g id="edge15" class="edge">
<title>Node1&#45;&gt;Node10</title>
<path fill="none" stroke="midnightblue" d="M506.67,-339.2C472.13,-332.92 420.68,-320.87 380,-300 344.86,-281.97 336.92,-273.8 311,-244 282.4,-211.12 258.34,-165.62 246.29,-140.83"/>
<polygon fill="midnightblue" stroke="midnightblue" points="249.35,-139.1 241.89,-131.58 243.03,-142.11 249.35,-139.1"/>
</g>
<!-- Node11 -->
<g id="node11" class="node">
<title>Node11</title>
<g id="a_node11"><a xlink:href="vdp_8h.html" target="_top" xlink:title="Data types and functions for VDP (Video Display Proccessor) access.">
<polygon fill="none" stroke="black" points="407,-224.5 407,-243.5 447,-243.5 447,-224.5 407,-224.5"/>
<text text-anchor="middle" x="427" y="-231.5" font-family="Helvetica,sans-Serif" font-size="10.00">vdp.h</text>
</a>
</g>
</g>
<!-- Node1&#45;&gt;Node11 -->
<g id="edge19" class="edge">
<title>Node1&#45;&gt;Node11</title>
<path fill="none" stroke="midnightblue" d="M535.74,-336.37C515.84,-317.81 468.74,-273.91 443.56,-250.44"/>
<polygon fill="midnightblue" stroke="midnightblue" points="445.92,-247.85 436.22,-243.59 441.14,-252.97 445.92,-247.85"/>
</g>
<!-- Node13 -->
<g id="node13" class="node">
<title>Node13</title>
<g id="a_node13"><a xlink:href="vmem_8h.html" target="_top" xlink:title="Data types and functions for VRAM access.">
<polygon fill="none" stroke="black" points="530.5,-112.5 530.5,-131.5 581.5,-131.5 581.5,-112.5 530.5,-112.5"/>
<text text-anchor="middle" x="556" y="-119.5" font-family="Helvetica,sans-Serif" font-size="10.00">vmem.h</text>
</a>
</g>
</g>
<!-- Node1&#45;&gt;Node13 -->
<g id="edge34" class="edge">
<title>Node1&#45;&gt;Node13</title>
<path fill="none" stroke="midnightblue" d="M541.91,-336.17C538.95,-327.2 534.68,-312.83 533,-300 525.44,-242.28 541.36,-173.96 550.37,-141.68"/>
<polygon fill="midnightblue" stroke="midnightblue" points="553.8,-142.42 553.22,-131.84 547.08,-140.47 553.8,-142.42"/>
</g>
<!-- Node15 -->
<g id="node15" class="node">
<title>Node15</title>
<g id="a_node15"><a xlink:href="sprite_8h.html" target="_top" xlink:title="Sprites.">
<polygon fill="none" stroke="black" points="618,-168.5 618,-187.5 666,-187.5 666,-168.5 618,-168.5"/>
<text text-anchor="middle" x="642" y="-175.5" font-family="Helvetica,sans-Serif" font-size="10.00">sprite.h</text>
</a>
</g>
</g>
<!-- Node1&#45;&gt;Node15 -->
<g id="edge35" class="edge">
<title>Node1&#45;&gt;Node15</title>
<path fill="none" stroke="midnightblue" d="M570.53,-336.39C587.53,-329.3 608.89,-317.54 621,-300 642.42,-268.96 644.27,-223.04 643.36,-197.62"/>
<polygon fill="midnightblue" stroke="midnightblue" points="646.85,-197.31 642.81,-187.52 639.86,-197.69 646.85,-197.31"/>
</g>
<!-- Node16 -->
<g id="node16" class="node">
<title>Node16</title>
<g id="a_node16"><a xlink:href="sprite__color_8h.html" target="_top" xlink:title="Sprite color table interface.">
<polygon fill="none" stroke="black" points="668,-224.5 668,-243.5 742,-243.5 742,-224.5 668,-224.5"/>
<text text-anchor="middle" x="705" y="-231.5" font-family="Helvetica,sans-Serif" font-size="10.00">sprite_color.h</text>
</a>
</g>
</g>
<!-- Node1&#45;&gt;Node16 -->
<g id="edge38" class="edge">
<title>Node1&#45;&gt;Node16</title>
<path fill="none" stroke="midnightblue" d="M577.3,-336.47C600.26,-329.32 630.99,-317.44 654,-300 671.09,-287.05 685.61,-267.06 694.74,-252.66"/>
<polygon fill="midnightblue" stroke="midnightblue" points="697.95,-254.11 700.16,-243.75 691.97,-250.48 697.95,-254.11"/>
</g>
<!-- Node17 -->
<g id="node17" class="node">
<title>Node17</title>
<g id="a_node17"><a xlink:href="metasprite_8h.html" target="_top" xlink:title="Meta&#45;sprite ; an aggregate of sprites.">
<polygon fill="none" stroke="black" points="542,-280.5 542,-299.5 612,-299.5 612,-280.5 542,-280.5"/>
<text text-anchor="middle" x="577" y="-287.5" font-family="Helvetica,sans-Serif" font-size="10.00">metasprite.h</text>
</a>
</g>
</g>
<!-- Node1&#45;&gt;Node17 -->
<g id="edge42" class="edge">
<title>Node1&#45;&gt;Node17</title>
<path fill="none" stroke="midnightblue" d="M550.28,-336.08C554.71,-328.61 561.16,-317.72 566.62,-308.52"/>
<polygon fill="midnightblue" stroke="midnightblue" points="569.73,-310.14 571.81,-299.75 563.71,-306.57 569.73,-310.14"/>
</g>
<!-- Node18 -->
<g id="node18" class="node">
<title>Node18</title>
<g id="a_node18"><a xlink:href="input_8h.html" target="_top" xlink:title="Input devices such as Joypad, for example.">
<polygon fill="none" stroke="black" points="1004.5,-280.5 1004.5,-299.5 1049.5,-299.5 1049.5,-280.5 1004.5,-280.5"/>
<text text-anchor="middle" x="1027" y="-287.5" font-family="Helvetica,sans-Serif" font-size="10.00">input.h</text>
</a>
</g>
</g>
<!-- Node1&#45;&gt;Node18 -->
<g id="edge47" class="edge">
<title>Node1&#45;&gt;Node18</title>
<path fill="none" stroke="midnightblue" d="M583.27,-341.03C655.95,-333.44 818.95,-316.19 956,-300 968.5,-298.52 982.23,-296.81 994.25,-295.27"/>
<polygon fill="midnightblue" stroke="midnightblue" points="994.84,-298.72 1004.31,-293.98 993.94,-291.78 994.84,-298.72"/>
</g>
<!-- Node19 -->
<g id="node19" class="node">
<title>Node19</title>
<g id="a_node19"><a xlink:href="psg_8h.html" target="_top" xlink:title="Device interface for PSG (AY&#45;3&#45;8910) an internal sound chip.">
<polygon fill="none" stroke="black" points="66,-112.5 66,-131.5 106,-131.5 106,-112.5 66,-112.5"/>
<text text-anchor="middle" x="86" y="-119.5" font-family="Helvetica,sans-Serif" font-size="10.00">psg.h</text>
</a>
</g>
</g>
<!-- Node1&#45;&gt;Node19 -->
<g id="edge49" class="edge">
<title>Node1&#45;&gt;Node19</title>
<path fill="none" stroke="midnightblue" d="M506.79,-340.92C465.14,-335.47 397.18,-323.62 343,-300 243.74,-256.72 142.8,-173.12 103.32,-138.55"/>
<polygon fill="midnightblue" stroke="midnightblue" points="105.26,-135.59 95.45,-131.58 100.62,-140.83 105.26,-135.59"/>
</g>
<!-- Node20 -->
<g id="node20" class="node">
<title>Node20</title>
<g id="a_node20"><a xlink:href="sound_8h.html" target="_top" xlink:title="A PSG sound driver.">
<polygon fill="none" stroke="black" points="960,-224.5 960,-243.5 1010,-243.5 1010,-224.5 960,-224.5"/>
<text text-anchor="middle" x="985" y="-231.5" font-family="Helvetica,sans-Serif" font-size="10.00">sound.h</text>
</a>
</g>
</g>
<!-- Node1&#45;&gt;Node20 -->
<g id="edge52" class="edge">
<title>Node1&#45;&gt;Node20</title>
<path fill="none" stroke="midnightblue" d="M583.09,-337.73C625.67,-329.42 696.57,-315.01 757,-300 825.93,-282.88 905.53,-259.31 950.09,-245.76"/>
<polygon fill="midnightblue" stroke="midnightblue" points="951.3,-249.05 959.85,-242.78 949.26,-242.35 951.3,-249.05"/>
</g>
<!-- Node22 -->
<g id="node22" class="node">
<title>Node22</title>
<g id="a_node22"><a xlink:href="sound__eg_8h.html" target="_top" xlink:title="Software envelope genenator interface for sound.h.">
<polygon fill="none" stroke="black" points="876,-224.5 876,-243.5 942,-243.5 942,-224.5 876,-224.5"/>
<text text-anchor="middle" x="909" y="-231.5" font-family="Helvetica,sans-Serif" font-size="10.00">sound_eg.h</text>
</a>
</g>
</g>
<!-- Node1&#45;&gt;Node22 -->
<g id="edge56" class="edge">
<title>Node1&#45;&gt;Node22</title>
<path fill="none" stroke="midnightblue" d="M579.48,-336.48C613.76,-327.86 667.75,-313.85 714,-300 770.96,-282.94 836.37,-260.56 875.11,-247"/>
<polygon fill="midnightblue" stroke="midnightblue" points="876.56,-250.2 884.83,-243.59 874.24,-243.6 876.56,-250.2"/>
</g>
<!-- Node4 -->
<g id="node4" class="node">
<title>Node4</title>
<g id="a_node4"><a xlink:title=" ">
<polygon fill="none" stroke="#bfbfbf" points="836,-168.5 836,-187.5 892,-187.5 892,-168.5 836,-168.5"/>
<text text-anchor="middle" x="864" y="-175.5" font-family="Helvetica,sans-Serif" font-size="10.00">stdbool.h</text>
</a>
</g>
</g>
<!-- Node3&#45;&gt;Node4 -->
<g id="edge3" class="edge">
<title>Node3&#45;&gt;Node4</title>
<path fill="none" stroke="midnightblue" d="M833.94,-224.08C838.98,-216.53 846.34,-205.49 852.51,-196.23"/>
<polygon fill="midnightblue" stroke="midnightblue" points="855.53,-198.01 858.17,-187.75 849.71,-194.13 855.53,-198.01"/>
</g>
<!-- Node5 -->
<g id="node5" class="node">
<title>Node5</title>
<g id="a_node5"><a xlink:title=" ">
<polygon fill="none" stroke="#bfbfbf" points="532,-0.5 532,-19.5 580,-19.5 580,-0.5 532,-0.5"/>
<text text-anchor="middle" x="556" y="-7.5" font-family="Helvetica,sans-Serif" font-size="10.00">stdint.h</text>
</a>
</g>
</g>
<!-- Node3&#45;&gt;Node5 -->
<g id="edge4" class="edge">
<title>Node3&#45;&gt;Node5</title>
<path fill="none" stroke="midnightblue" d="M827.08,-224.48C823.46,-192.45 809.11,-79.91 784,-56 756.62,-29.92 647.13,-17.91 590.43,-13.34"/>
<polygon fill="midnightblue" stroke="midnightblue" points="590.4,-9.83 580.16,-12.55 589.86,-16.81 590.4,-9.83"/>
</g>
<!-- Node6&#45;&gt;Node2 -->
<g id="edge6" class="edge">
<title>Node6&#45;&gt;Node2</title>
<path fill="none" stroke="midnightblue" d="M137.27,-56.08C143.54,-48.38 152.79,-37.03 160.43,-27.65"/>
<polygon fill="midnightblue" stroke="midnightblue" points="163.27,-29.71 166.87,-19.75 157.84,-25.29 163.27,-29.71"/>
</g>
<!-- Node7&#45;&gt;Node5 -->
<g id="edge8" class="edge">
<title>Node7&#45;&gt;Node5</title>
<path fill="none" stroke="midnightblue" d="M350.62,-112.45C371.57,-99.46 413.12,-74.35 450,-56 474.41,-43.85 502.9,-31.87 524.2,-23.33"/>
<polygon fill="midnightblue" stroke="midnightblue" points="525.72,-26.49 533.72,-19.55 523.14,-19.99 525.72,-26.49"/>
</g>
<!-- Node8 -->
<g id="node8" class="node">
<title>Node8</title>
<g id="a_node8"><a xlink:href="bios__const_8h.html" target="_top" xlink:title="Constant variables in the MSX BIOS ROM.">
<polygon fill="none" stroke="black" points="202.5,-56.5 202.5,-75.5 273.5,-75.5 273.5,-56.5 202.5,-56.5"/>
<text text-anchor="middle" x="238" y="-63.5" font-family="Helvetica,sans-Serif" font-size="10.00">bios_const.h</text>
</a>
</g>
</g>
<!-- Node7&#45;&gt;Node8 -->
<g id="edge9" class="edge">
<title>Node7&#45;&gt;Node8</title>
<path fill="none" stroke="midnightblue" d="M321.09,-112.32C305.36,-103.74 281.06,-90.49 262.79,-80.52"/>
<polygon fill="midnightblue" stroke="midnightblue" points="264.32,-77.37 253.87,-75.65 260.97,-83.52 264.32,-77.37"/>
</g>
<!-- Node9 -->
<g id="node9" class="node">
<title>Node9</title>
<g id="a_node9"><a xlink:href="bios__entry_8h.html" target="_top" xlink:title="Assembler entry points for MSX BIOS functions.">
<polygon fill="none" stroke="black" points="330,-56.5 330,-75.5 398,-75.5 398,-56.5 330,-56.5"/>
<text text-anchor="middle" x="364" y="-63.5" font-family="Helvetica,sans-Serif" font-size="10.00">bios_entry.h</text>
</a>
</g>
</g>
<!-- Node7&#45;&gt;Node9 -->
<g id="edge12" class="edge">
<title>Node7&#45;&gt;Node9</title>
<path fill="none" stroke="midnightblue" d="M341.46,-112.08C345.15,-104.69 350.52,-93.95 355.09,-84.81"/>
<polygon fill="midnightblue" stroke="midnightblue" points="358.28,-86.26 359.62,-75.75 352.02,-83.13 358.28,-86.26"/>
</g>
<!-- Node8&#45;&gt;Node2 -->
<g id="edge11" class="edge">
<title>Node8&#45;&gt;Node2</title>
<path fill="none" stroke="midnightblue" d="M227.72,-56.32C218.16,-48.26 203.72,-36.08 192.22,-26.37"/>
<polygon fill="midnightblue" stroke="midnightblue" points="194.37,-23.61 184.47,-19.83 189.86,-28.96 194.37,-23.61"/>
</g>
<!-- Node8&#45;&gt;Node5 -->
<g id="edge10" class="edge">
<title>Node8&#45;&gt;Node5</title>
<path fill="none" stroke="midnightblue" d="M273.77,-58.51C278.55,-57.66 283.39,-56.8 288,-56 371.97,-41.39 470.88,-24.99 521.84,-16.6"/>
<polygon fill="midnightblue" stroke="midnightblue" points="522.66,-20.02 531.96,-14.94 521.52,-13.11 522.66,-20.02"/>
</g>
<!-- Node9&#45;&gt;Node2 -->
<g id="edge14" class="edge">
<title>Node9&#45;&gt;Node2</title>
<path fill="none" stroke="midnightblue" d="M333.89,-56.44C299.99,-46.81 244.96,-31.17 209.12,-20.98"/>
<polygon fill="midnightblue" stroke="midnightblue" points="209.69,-17.5 199.11,-18.14 207.77,-24.24 209.69,-17.5"/>
</g>
<!-- Node9&#45;&gt;Node5 -->
<g id="edge13" class="edge">
<title>Node9&#45;&gt;Node5</title>
<path fill="none" stroke="midnightblue" d="M394.42,-56.44C429.07,-46.7 485.54,-30.82 521.72,-20.64"/>
<polygon fill="midnightblue" stroke="midnightblue" points="523.12,-23.88 531.8,-17.81 521.22,-17.14 523.12,-23.88"/>
</g>
<!-- Node10&#45;&gt;Node2 -->
<g id="edge17" class="edge">
<title>Node10&#45;&gt;Node2</title>
<path fill="none" stroke="midnightblue" d="M226.39,-112.23C216.2,-103.95 201.67,-90.64 193,-76 184.48,-61.62 179.56,-43.16 176.87,-29.59"/>
<polygon fill="midnightblue" stroke="midnightblue" points="180.29,-28.78 175.11,-19.54 173.39,-29.99 180.29,-28.78"/>
</g>
<!-- Node10&#45;&gt;Node5 -->
<g id="edge16" class="edge">
<title>Node10&#45;&gt;Node5</title>
<path fill="none" stroke="midnightblue" d="M246.27,-112.24C260.24,-98.02 290.01,-70.09 321,-56 387.97,-25.55 474.75,-15.69 521.88,-12.51"/>
<polygon fill="midnightblue" stroke="midnightblue" points="522.1,-16 531.87,-11.9 521.67,-9.02 522.1,-16"/>
</g>
<!-- Node10&#45;&gt;Node8 -->
<g id="edge18" class="edge">
<title>Node10&#45;&gt;Node8</title>
<path fill="none" stroke="midnightblue" d="M238,-112.08C238,-105.01 238,-94.86 238,-85.99"/>
<polygon fill="midnightblue" stroke="midnightblue" points="241.5,-85.75 238,-75.75 234.5,-85.75 241.5,-85.75"/>
</g>
<!-- Node11&#45;&gt;Node4 -->
<g id="edge21" class="edge">
<title>Node11&#45;&gt;Node4</title>
<path fill="none" stroke="midnightblue" d="M447.2,-230.5C515.18,-222.1 736.37,-194.77 825.88,-183.71"/>
<polygon fill="midnightblue" stroke="midnightblue" points="826.38,-187.18 835.88,-182.48 825.52,-180.23 826.38,-187.18"/>
</g>
<!-- Node11&#45;&gt;Node5 -->
<g id="edge22" class="edge">
<title>Node11&#45;&gt;Node5</title>
<path fill="none" stroke="midnightblue" d="M433.18,-224.17C439.4,-215.19 449.16,-200.82 457,-188 491.98,-130.81 529.69,-60.79 546.72,-28.65"/>
<polygon fill="midnightblue" stroke="midnightblue" points="549.92,-30.09 551.49,-19.61 543.73,-26.82 549.92,-30.09"/>
</g>
<!-- Node11&#45;&gt;Node6 -->
<g id="edge23" class="edge">
<title>Node11&#45;&gt;Node6</title>
<path fill="none" stroke="midnightblue" d="M406.72,-230.74C358.51,-224.33 235.97,-201.71 167,-132 153.61,-118.47 143.42,-99.11 137.16,-85.05"/>
<polygon fill="midnightblue" stroke="midnightblue" points="140.25,-83.36 133.15,-75.5 133.79,-86.08 140.25,-83.36"/>
</g>
<!-- Node11&#45;&gt;Node7 -->
<g id="edge32" class="edge">
<title>Node11&#45;&gt;Node7</title>
<path fill="none" stroke="midnightblue" d="M406.72,-232.88C376.54,-231.46 320.64,-223.84 295,-188 283.02,-171.25 300.44,-151.26 316.35,-137.91"/>
<polygon fill="midnightblue" stroke="midnightblue" points="318.69,-140.52 324.37,-131.58 314.35,-135.03 318.69,-140.52"/>
</g>
<!-- Node11&#45;&gt;Node10 -->
<g id="edge33" class="edge">
<title>Node11&#45;&gt;Node10</title>
<path fill="none" stroke="midnightblue" d="M406.91,-230.34C378.28,-225.74 325.11,-214.16 288,-188 270.6,-175.74 256.47,-155.63 247.73,-141.02"/>
<polygon fill="midnightblue" stroke="midnightblue" points="250.55,-138.91 242.56,-131.95 244.47,-142.37 250.55,-138.91"/>
</g>
<!-- Node12 -->
<g id="node12" class="node">
<title>Node12</title>
<g id="a_node12"><a xlink:title=" ">
<polygon fill="none" stroke="#bfbfbf" points="304.5,-168.5 304.5,-187.5 355.5,-187.5 355.5,-168.5 304.5,-168.5"/>
<text text-anchor="middle" x="330" y="-175.5" font-family="Helvetica,sans-Serif" font-size="10.00">assert.h</text>
</a>
</g>
</g>
<!-- Node11&#45;&gt;Node12 -->
<g id="edge20" class="edge">
<title>Node11&#45;&gt;Node12</title>
<path fill="none" stroke="midnightblue" d="M411.42,-224.32C396,-215.74 372.19,-202.49 354.29,-192.52"/>
<polygon fill="midnightblue" stroke="midnightblue" points="355.99,-189.46 345.55,-187.65 352.58,-195.58 355.99,-189.46"/>
</g>
<!-- Node11&#45;&gt;Node13 -->
<g id="edge24" class="edge">
<title>Node11&#45;&gt;Node13</title>
<path fill="none" stroke="midnightblue" d="M440.48,-224.27C453.56,-215.6 473.74,-201.67 490,-188 508.35,-172.57 527.71,-153.08 540.68,-139.48"/>
<polygon fill="midnightblue" stroke="midnightblue" points="543.55,-141.54 547.86,-131.86 538.45,-136.73 543.55,-141.54"/>
</g>
<!-- Node14 -->
<g id="node14" class="node">
<title>Node14</title>
<g id="a_node14"><a xlink:href="vdp__unsafe_8h.html" target="_top" xlink:title="Unsafe primitive functions for VDP (Video Display Proccessor) access.">
<polygon fill="none" stroke="black" points="374,-168.5 374,-187.5 448,-187.5 448,-168.5 374,-168.5"/>
<text text-anchor="middle" x="411" y="-175.5" font-family="Helvetica,sans-Serif" font-size="10.00">vdp_unsafe.h</text>
</a>
</g>
</g>
<!-- Node11&#45;&gt;Node14 -->
<g id="edge27" class="edge">
<title>Node11&#45;&gt;Node14</title>
<path fill="none" stroke="midnightblue" d="M424.36,-224.08C422.21,-216.85 419.12,-206.41 416.45,-197.4"/>
<polygon fill="midnightblue" stroke="midnightblue" points="419.79,-196.34 413.59,-187.75 413.08,-198.33 419.79,-196.34"/>
</g>
<!-- Node13&#45;&gt;Node5 -->
<g id="edge25" class="edge">
<title>Node13&#45;&gt;Node5</title>
<path fill="none" stroke="midnightblue" d="M556,-112.37C556,-94.62 556,-53.67 556,-29.6"/>
<polygon fill="midnightblue" stroke="midnightblue" points="559.5,-29.59 556,-19.59 552.5,-29.59 559.5,-29.59"/>
</g>
<!-- Node13&#45;&gt;Node6 -->
<g id="edge26" class="edge">
<title>Node13&#45;&gt;Node6</title>
<path fill="none" stroke="midnightblue" d="M530.45,-118C471.14,-110.99 319.52,-92.88 193,-76 180.88,-74.38 167.47,-72.48 156.15,-70.85"/>
<polygon fill="midnightblue" stroke="midnightblue" points="156.44,-67.35 146.04,-69.38 155.43,-74.28 156.44,-67.35"/>
</g>
<!-- Node14&#45;&gt;Node5 -->
<g id="edge28" class="edge">
<title>Node14&#45;&gt;Node5</title>
<path fill="none" stroke="midnightblue" d="M414.98,-168.23C424.92,-147.02 452.58,-92.06 488,-56 500.25,-43.53 516.51,-32.62 530.05,-24.66"/>
<polygon fill="midnightblue" stroke="midnightblue" points="531.94,-27.62 538.92,-19.65 528.49,-21.53 531.94,-27.62"/>
</g>
<!-- Node14&#45;&gt;Node6 -->
<g id="edge29" class="edge">
<title>Node14&#45;&gt;Node6</title>
<path fill="none" stroke="midnightblue" d="M373.97,-169.77C314.82,-158.14 204.81,-136.16 197,-132 174.75,-120.17 154.81,-98.73 142.59,-83.72"/>
<polygon fill="midnightblue" stroke="midnightblue" points="145.25,-81.45 136.32,-75.75 139.75,-85.77 145.25,-81.45"/>
</g>
<!-- Node14&#45;&gt;Node7 -->
<g id="edge31" class="edge">
<title>Node14&#45;&gt;Node7</title>
<path fill="none" stroke="midnightblue" d="M399.11,-168.32C387.85,-160.11 370.71,-147.6 357.29,-137.81"/>
<polygon fill="midnightblue" stroke="midnightblue" points="359.25,-134.9 349.11,-131.83 355.12,-140.56 359.25,-134.9"/>
</g>
<!-- Node14&#45;&gt;Node13 -->
<g id="edge30" class="edge">
<title>Node14&#45;&gt;Node13</title>
<path fill="none" stroke="midnightblue" d="M433.98,-168.44C458.16,-159.44 496.42,-145.19 523.65,-135.05"/>
<polygon fill="midnightblue" stroke="midnightblue" points="524.98,-138.29 533.13,-131.52 522.54,-131.73 524.98,-138.29"/>
</g>
<!-- Node15&#45;&gt;Node5 -->
<g id="edge36" class="edge">
<title>Node15&#45;&gt;Node5</title>
<path fill="none" stroke="midnightblue" d="M637.38,-168.08C623.72,-141.72 583.39,-63.88 565.15,-28.66"/>
<polygon fill="midnightblue" stroke="midnightblue" points="568.15,-26.84 560.44,-19.57 561.93,-30.06 568.15,-26.84"/>
</g>
<!-- Node15&#45;&gt;Node13 -->
<g id="edge37" class="edge">
<title>Node15&#45;&gt;Node13</title>
<path fill="none" stroke="midnightblue" d="M628.18,-168.32C614.77,-159.9 594.18,-146.97 578.41,-137.07"/>
<polygon fill="midnightblue" stroke="midnightblue" points="580.11,-134.01 569.78,-131.65 576.39,-139.94 580.11,-134.01"/>
</g>
<!-- Node16&#45;&gt;Node5 -->
<g id="edge39" class="edge">
<title>Node16&#45;&gt;Node5</title>
<path fill="none" stroke="midnightblue" d="M705.34,-224.15C705.51,-211.21 704.52,-186.65 696,-168 667.86,-106.35 606.96,-51.59 575.58,-26.12"/>
<polygon fill="midnightblue" stroke="midnightblue" points="577.56,-23.22 567.56,-19.73 573.2,-28.7 577.56,-23.22"/>
</g>
<!-- Node16&#45;&gt;Node13 -->
<g id="edge41" class="edge">
<title>Node16&#45;&gt;Node13</title>
<path fill="none" stroke="midnightblue" d="M703.19,-224.17C699.91,-210.35 691.73,-183.59 675,-168 651.89,-146.47 617.46,-134.95 591.57,-128.98"/>
<polygon fill="midnightblue" stroke="midnightblue" points="592.27,-125.55 581.76,-126.88 590.81,-132.39 592.27,-125.55"/>
</g>
<!-- Node16&#45;&gt;Node15 -->
<g id="edge40" class="edge">
<title>Node16&#45;&gt;Node15</title>
<path fill="none" stroke="midnightblue" d="M694.88,-224.32C685.47,-216.26 671.26,-204.08 659.93,-194.37"/>
<polygon fill="midnightblue" stroke="midnightblue" points="662.18,-191.68 652.31,-187.83 657.62,-197 662.18,-191.68"/>
</g>
<!-- Node17&#45;&gt;Node5 -->
<g id="edge43" class="edge">
<title>Node17&#45;&gt;Node5</title>
<path fill="none" stroke="midnightblue" d="M612.35,-284.04C657.28,-277.05 731.39,-263 751,-244 772.61,-223.05 770,-209.1 770,-179 770,-179 770,-179 770,-121 770,-41.2 650.84,-19.24 590.35,-13.24"/>
<polygon fill="midnightblue" stroke="midnightblue" points="590.41,-9.73 580.13,-12.32 589.78,-16.7 590.41,-9.73"/>
</g>
<!-- Node17&#45;&gt;Node11 -->
<g id="edge44" class="edge">
<title>Node17&#45;&gt;Node11</title>
<path fill="none" stroke="midnightblue" d="M553.23,-280.44C527.19,-271.07 485.35,-256.01 457.05,-245.82"/>
<polygon fill="midnightblue" stroke="midnightblue" points="457.88,-242.4 447.29,-242.3 455.51,-248.98 457.88,-242.4"/>
</g>
<!-- Node17&#45;&gt;Node13 -->
<g id="edge45" class="edge">
<title>Node17&#45;&gt;Node13</title>
<path fill="none" stroke="midnightblue" d="M576.6,-280.45C575.59,-260.59 572.53,-209.89 566,-168 564.63,-159.19 562.56,-149.53 560.65,-141.43"/>
<polygon fill="midnightblue" stroke="midnightblue" points="564.02,-140.45 558.25,-131.56 557.22,-142.11 564.02,-140.45"/>
</g>
<!-- Node17&#45;&gt;Node15 -->
<g id="edge46" class="edge">
<title>Node17&#45;&gt;Node15</title>
<path fill="none" stroke="midnightblue" d="M582.1,-280.37C592.78,-262.3 617.67,-220.18 631.77,-196.31"/>
<polygon fill="midnightblue" stroke="midnightblue" points="634.85,-197.98 636.92,-187.59 628.82,-194.42 634.85,-197.98"/>
</g>
<!-- Node18&#45;&gt;Node5 -->
<g id="edge48" class="edge">
<title>Node18&#45;&gt;Node5</title>
<path fill="none" stroke="midnightblue" d="M1031.72,-280.46C1041.27,-262.34 1062,-218.48 1062,-179 1062,-179 1062,-179 1062,-121 1062,-24.22 704.09,-12.42 590.29,-11.12"/>
<polygon fill="midnightblue" stroke="midnightblue" points="590.1,-7.62 580.07,-11.02 590.03,-14.62 590.1,-7.62"/>
</g>
<!-- Node19&#45;&gt;Node5 -->
<g id="edge50" class="edge">
<title>Node19&#45;&gt;Node5</title>
<path fill="none" stroke="midnightblue" d="M85.71,-112.21C85.77,-97.95 88.18,-69.97 105,-56 136.91,-29.51 422.12,-16.13 521.8,-12.23"/>
<polygon fill="midnightblue" stroke="midnightblue" points="522.07,-15.73 531.93,-11.85 521.81,-8.73 522.07,-15.73"/>
</g>
<!-- Node19&#45;&gt;Node6 -->
<g id="edge51" class="edge">
<title>Node19&#45;&gt;Node6</title>
<path fill="none" stroke="midnightblue" d="M93.27,-112.08C99.54,-104.38 108.79,-93.03 116.43,-83.65"/>
<polygon fill="midnightblue" stroke="midnightblue" points="119.27,-85.71 122.87,-75.75 113.84,-81.29 119.27,-85.71"/>
</g>
<!-- Node20&#45;&gt;Node4 -->
<g id="edge53" class="edge">
<title>Node20&#45;&gt;Node4</title>
<path fill="none" stroke="midnightblue" d="M965.83,-224.44C946.09,-215.64 915.11,-201.81 892.51,-191.72"/>
<polygon fill="midnightblue" stroke="midnightblue" points="893.64,-188.4 883.08,-187.52 890.79,-194.79 893.64,-188.4"/>
</g>
<!-- Node20&#45;&gt;Node5 -->
<g id="edge54" class="edge">
<title>Node20&#45;&gt;Node5</title>
<path fill="none" stroke="midnightblue" d="M980.72,-224.24C965.48,-194.19 910.6,-94.99 832,-56 752.08,-16.36 644.7,-10.44 590.45,-10.26"/>
<polygon fill="midnightblue" stroke="midnightblue" points="590.32,-6.76 580.33,-10.29 590.34,-13.76 590.32,-6.76"/>
</g>
<!-- Node21 -->
<g id="node21" class="node">
<title>Node21</title>
<g id="a_node21"><a xlink:title=" ">
<polygon fill="none" stroke="#bfbfbf" points="986.5,-168.5 986.5,-187.5 1033.5,-187.5 1033.5,-168.5 986.5,-168.5"/>
<text text-anchor="middle" x="1010" y="-175.5" font-family="Helvetica,sans-Serif" font-size="10.00">stdlib.h</text>
</a>
</g>
</g>
<!-- Node20&#45;&gt;Node21 -->
<g id="edge55" class="edge">
<title>Node20&#45;&gt;Node21</title>
<path fill="none" stroke="midnightblue" d="M989.13,-224.08C992.51,-216.77 997.42,-206.18 1001.62,-197.1"/>
<polygon fill="midnightblue" stroke="midnightblue" points="1004.92,-198.3 1005.95,-187.75 998.57,-195.36 1004.92,-198.3"/>
</g>
<!-- Node22&#45;&gt;Node4 -->
<g id="edge57" class="edge">
<title>Node22&#45;&gt;Node4</title>
<path fill="none" stroke="midnightblue" d="M901.57,-224.08C895.15,-216.38 885.69,-205.03 877.88,-195.65"/>
<polygon fill="midnightblue" stroke="midnightblue" points="880.38,-193.19 871.29,-187.75 875.01,-197.67 880.38,-193.19"/>
</g>
<!-- Node22&#45;&gt;Node5 -->
<g id="edge58" class="edge">
<title>Node22&#45;&gt;Node5</title>
<path fill="none" stroke="midnightblue" d="M909.51,-224.15C909.92,-211.23 909.36,-186.68 901,-168 873.99,-107.62 860.53,-88.64 803,-56 734.83,-17.32 640.57,-10.78 590.5,-10.31"/>
<polygon fill="midnightblue" stroke="midnightblue" points="590.23,-6.81 580.22,-10.29 590.21,-13.81 590.23,-6.81"/>
</g>
</g>
</svg>
