<?xml version="1.0" encoding="UTF-8" standalone="no"?>
<!DOCTYPE svg PUBLIC "-//W3C//DTD SVG 1.1//EN"
 "http://www.w3.org/Graphics/SVG/1.1/DTD/svg11.dtd">
<!-- Generated by graphviz version 7.0.5 (20221223.1930)
 -->
<!-- Title: include/msx.h Pages: 1 -->
<svg width="1077pt" height="412pt"
 viewBox="0.00 0.00 1077.00 412.00" xmlns="http://www.w3.org/2000/svg" xmlns:xlink="http://www.w3.org/1999/xlink">
<g id="graph0" class="graph" transform="scale(1 1) rotate(0) translate(4 408)">
<title>include/msx.h</title>
<!-- Node1 -->
<g id="node1" class="node">
<title>Node1</title>
<g id="a_node1"><a xlink:title="Using #include &lt;msx.h&gt; includes almost all C header files in libmsx, for ease to use.">
<polygon fill="#999999" stroke="#666666" points="689,-404 613,-404 613,-385 689,-385 689,-404"/>
<text text-anchor="middle" x="651" y="-392" font-family="Helvetica,sans-Serif" font-size="10.00">include/msx.h</text>
</a>
</g>
</g>
<!-- Node2 -->
<g id="node2" class="node">
<title>Node2</title>
<g id="a_node2"><a xlink:href="config_8h.html" target="_top" xlink:title="Hack for C Compiler portability.">
<polygon fill="white" stroke="#666666" points="636,-74 586,-74 586,-55 636,-55 636,-74"/>
<text text-anchor="middle" x="611" y="-62" font-family="Helvetica,sans-Serif" font-size="10.00">config.h</text>
</a>
</g>
</g>
<!-- Node1&#45;&gt;Node2 -->
<g id="edge1" class="edge">
<title>Node1&#45;&gt;Node2</title>
<path fill="none" stroke="#63b8ff" d="M663.21,-384.62C684.69,-367.86 727,-329.29 727,-285.5 727,-285.5 727,-285.5 727,-228.5 727,-169.26 707.29,-152.47 666,-110 655.77,-99.48 643.12,-89.09 632.52,-81"/>
<polygon fill="#63b8ff" stroke="#63b8ff" points="634.83,-78.35 624.72,-75.18 630.65,-83.96 634.83,-78.35"/>
</g>
<!-- Node4 -->
<g id="node4" class="node">
<title>Node4</title>
<g id="a_node4"><a xlink:href="interrupt_8h.html" target="_top" xlink:title="Interrupts relevant functions and Pluggable interrupts handler interface.">
<polygon fill="white" stroke="#666666" points="852.5,-294 793.5,-294 793.5,-275 852.5,-275 852.5,-294"/>
<text text-anchor="middle" x="823" y="-282" font-family="Helvetica,sans-Serif" font-size="10.00">interrupt.h</text>
</a>
</g>
</g>
<!-- Node1&#45;&gt;Node4 -->
<g id="edge3" class="edge">
<title>Node1&#45;&gt;Node4</title>
<path fill="none" stroke="#63b8ff" d="M689.29,-386.78C716.44,-380.53 752.59,-369.07 779,-349 794.51,-337.22 806.58,-318.38 814.12,-304.27"/>
<polygon fill="#63b8ff" stroke="#63b8ff" points="817.14,-306.06 818.5,-295.55 810.88,-302.92 817.14,-306.06"/>
</g>
<!-- Node6 -->
<g id="node6" class="node">
<title>Node6</title>
<g id="a_node6"><a xlink:href="io_8h.html" target="_top" xlink:title="Definition of I/O ports.">
<polygon fill="white" stroke="#666666" points="638,-129 606,-129 606,-110 638,-110 638,-129"/>
<text text-anchor="middle" x="622" y="-117" font-family="Helvetica,sans-Serif" font-size="10.00">io.h</text>
</a>
</g>
</g>
<!-- Node1&#45;&gt;Node6 -->
<g id="edge6" class="edge">
<title>Node1&#45;&gt;Node6</title>
<path fill="none" stroke="#63b8ff" d="M649.78,-384.74C645.8,-356.01 633.11,-262.06 626,-184 624.68,-169.47 623.65,-153.02 622.97,-140.51"/>
<polygon fill="#63b8ff" stroke="#63b8ff" points="626.48,-140.46 622.47,-130.65 619.48,-140.82 626.48,-140.46"/>
</g>
<!-- Node7 -->
<g id="node7" class="node">
<title>Node7</title>
<g id="a_node7"><a xlink:href="bios_8h.html" target="_top" xlink:title="C language I/F for MSX BIOS routines.">
<polygon fill="white" stroke="#666666" points="489,-184 447,-184 447,-165 489,-165 489,-184"/>
<text text-anchor="middle" x="468" y="-172" font-family="Helvetica,sans-Serif" font-size="10.00">bios.h</text>
</a>
</g>
</g>
<!-- Node1&#45;&gt;Node7 -->
<g id="edge8" class="edge">
<title>Node1&#45;&gt;Node7</title>
<path fill="none" stroke="#63b8ff" d="M639.21,-384.61C628.23,-376.07 611.7,-362.5 599,-349 549.76,-296.66 501.3,-226.2 479.7,-193.53"/>
<polygon fill="#63b8ff" stroke="#63b8ff" points="482.9,-192.03 474.49,-185.59 477.05,-195.87 482.9,-192.03"/>
</g>
<!-- Node10 -->
<g id="node10" class="node">
<title>Node10</title>
<g id="a_node10"><a xlink:href="workarea_8h.html" target="_top" xlink:title="Definitions of MSX SYSTEM Workarea.">
<polygon fill="white" stroke="#666666" points="699,-184 635,-184 635,-165 699,-165 699,-184"/>
<text text-anchor="middle" x="667" y="-172" font-family="Helvetica,sans-Serif" font-size="10.00">workarea.h</text>
</a>
</g>
</g>
<!-- Node1&#45;&gt;Node10 -->
<g id="edge16" class="edge">
<title>Node1&#45;&gt;Node10</title>
<path fill="none" stroke="#63b8ff" d="M651.65,-384.68C654,-352.57 662.17,-241.33 665.53,-195.49"/>
<polygon fill="#63b8ff" stroke="#63b8ff" points="669.01,-195.93 666.25,-185.7 662.03,-195.41 669.01,-195.93"/>
</g>
<!-- Node11 -->
<g id="node11" class="node">
<title>Node11</title>
<g id="a_node11"><a xlink:href="vdp_8h.html" target="_top" xlink:title="Data types and functions for VDP (Video Display Proccessor) access.">
<polygon fill="white" stroke="#666666" points="487,-294 447,-294 447,-275 487,-275 487,-294"/>
<text text-anchor="middle" x="467" y="-282" font-family="Helvetica,sans-Serif" font-size="10.00">vdp.h</text>
</a>
</g>
</g>
<!-- Node1&#45;&gt;Node11 -->
<g id="edge20" class="edge">
<title>Node1&#45;&gt;Node11</title>
<path fill="none" stroke="#63b8ff" d="M612.53,-385.61C585.81,-378.87 550.25,-367.3 523,-349 504.93,-336.87 489.03,-317.53 478.83,-303.38"/>
<polygon fill="#63b8ff" stroke="#63b8ff" points="481.89,-301.65 473.33,-295.41 476.14,-305.63 481.89,-301.65"/>
</g>
<!-- Node13 -->
<g id="node13" class="node">
<title>Node13</title>
<g id="a_node13"><a xlink:href="vmem_8h.html" target="_top" xlink:title="Data types and functions for VRAM access.">
<polygon fill="white" stroke="#666666" points="259.5,-184 208.5,-184 208.5,-165 259.5,-165 259.5,-184"/>
<text text-anchor="middle" x="234" y="-172" font-family="Helvetica,sans-Serif" font-size="10.00">vmem.h</text>
</a>
</g>
</g>
<!-- Node1&#45;&gt;Node13 -->
<g id="edge35" class="edge">
<title>Node1&#45;&gt;Node13</title>
<path fill="none" stroke="#63b8ff" d="M612.76,-392.51C510.53,-389.48 236.8,-378.65 210,-349 170.8,-305.65 203.99,-229.6 222.97,-194.38"/>
<polygon fill="#63b8ff" stroke="#63b8ff" points="225.94,-196.23 227.78,-185.79 219.84,-192.81 225.94,-196.23"/>
</g>
<!-- Node15 -->
<g id="node15" class="node">
<title>Node15</title>
<g id="a_node15"><a xlink:href="sprite_8h.html" target="_top" xlink:title="Sprites.">
<polygon fill="white" stroke="#666666" points="119,-239 71,-239 71,-220 119,-220 119,-239"/>
<text text-anchor="middle" x="95" y="-227" font-family="Helvetica,sans-Serif" font-size="10.00">sprite.h</text>
</a>
</g>
</g>
<!-- Node1&#45;&gt;Node15 -->
<g id="edge36" class="edge">
<title>Node1&#45;&gt;Node15</title>
<path fill="none" stroke="#63b8ff" d="M612.69,-392.77C498,-390.23 163.04,-380.19 126,-349 97.34,-324.87 93.45,-277.83 93.8,-250.84"/>
<polygon fill="#63b8ff" stroke="#63b8ff" points="97.3,-251.03 94.17,-240.9 90.3,-250.77 97.3,-251.03"/>
</g>
<!-- Node16 -->
<g id="node16" class="node">
<title>Node16</title>
<g id="a_node16"><a xlink:href="sprite__color_8h.html" target="_top" xlink:title="Sprite color table interface.">
<polygon fill="white" stroke="#666666" points="74,-294 0,-294 0,-275 74,-275 74,-294"/>
<text text-anchor="middle" x="37" y="-282" font-family="Helvetica,sans-Serif" font-size="10.00">sprite_color.h</text>
</a>
</g>
</g>
<!-- Node1&#45;&gt;Node16 -->
<g id="edge39" class="edge">
<title>Node1&#45;&gt;Node16</title>
<path fill="none" stroke="#63b8ff" d="M612.59,-392.22C493.26,-388.01 134.15,-373.41 88,-349 69.29,-339.11 55.03,-319.07 46.4,-304.14"/>
<polygon fill="#63b8ff" stroke="#63b8ff" points="49.69,-302.86 41.86,-295.72 43.53,-306.18 49.69,-302.86"/>
</g>
<!-- Node17 -->
<g id="node17" class="node">
<title>Node17</title>
<g id="a_node17"><a xlink:href="metasprite_8h.html" target="_top" xlink:title="Meta&#45;sprite ; an aggregate of sprites.">
<polygon fill="white" stroke="#666666" points="289,-349 219,-349 219,-330 289,-330 289,-349"/>
<text text-anchor="middle" x="254" y="-337" font-family="Helvetica,sans-Serif" font-size="10.00">metasprite.h</text>
</a>
</g>
</g>
<!-- Node1&#45;&gt;Node17 -->
<g id="edge43" class="edge">
<title>Node1&#45;&gt;Node17</title>
<path fill="none" stroke="#63b8ff" d="M612.57,-388.37C539.22,-378.58 379.51,-357.26 300.36,-346.69"/>
<polygon fill="#63b8ff" stroke="#63b8ff" points="301.17,-343.27 290.79,-345.41 300.24,-350.2 301.17,-343.27"/>
</g>
<!-- Node18 -->
<g id="node18" class="node">
<title>Node18</title>
<g id="a_node18"><a xlink:href="input_8h.html" target="_top" xlink:title="Input devices such as Joypad, for example.">
<polygon fill="white" stroke="#666666" points="910.5,-74 865.5,-74 865.5,-55 910.5,-55 910.5,-74"/>
<text text-anchor="middle" x="888" y="-62" font-family="Helvetica,sans-Serif" font-size="10.00">input.h</text>
</a>
</g>
</g>
<!-- Node1&#45;&gt;Node18 -->
<g id="edge48" class="edge">
<title>Node1&#45;&gt;Node18</title>
<path fill="none" stroke="#63b8ff" d="M689.23,-387.32C720.98,-381.02 766.51,-369.25 802,-349 833.14,-331.24 838.08,-321.57 861,-294 879.52,-271.72 887.9,-266.82 896,-239 911.63,-185.33 900.43,-118.4 893.06,-85.57"/>
<polygon fill="#63b8ff" stroke="#63b8ff" points="896.47,-84.79 890.75,-75.88 889.66,-86.41 896.47,-84.79"/>
</g>
<!-- Node19 -->
<g id="node19" class="node">
<title>Node19</title>
<g id="a_node19"><a xlink:href="psg_8h.html" target="_top" xlink:title="Device interface for PSG (AY&#45;3&#45;8910) an internal sound chip.">
<polygon fill="white" stroke="#666666" points="795,-184 755,-184 755,-165 795,-165 795,-184"/>
<text text-anchor="middle" x="775" y="-172" font-family="Helvetica,sans-Serif" font-size="10.00">psg.h</text>
</a>
</g>
</g>
<!-- Node1&#45;&gt;Node19 -->
<g id="edge50" class="edge">
<title>Node1&#45;&gt;Node19</title>
<path fill="none" stroke="#63b8ff" d="M685.84,-384.55C704.95,-377.85 727.45,-366.73 741,-349 776.2,-302.94 777.97,-230.4 776.47,-195.53"/>
<polygon fill="#63b8ff" stroke="#63b8ff" points="779.97,-195.43 775.89,-185.65 772.99,-195.84 779.97,-195.43"/>
</g>
<!-- Node20 -->
<g id="node20" class="node">
<title>Node20</title>
<g id="a_node20"><a xlink:href="sound_8h.html" target="_top" xlink:title="A PSG sound driver.">
<polygon fill="white" stroke="#666666" points="985,-294 935,-294 935,-275 985,-275 985,-294"/>
<text text-anchor="middle" x="960" y="-282" font-family="Helvetica,sans-Serif" font-size="10.00">sound.h</text>
</a>
</g>
</g>
<!-- Node1&#45;&gt;Node20 -->
<g id="edge53" class="edge">
<title>Node1&#45;&gt;Node20</title>
<path fill="none" stroke="#63b8ff" d="M689.4,-391.08C754.67,-386.33 883.79,-374.01 921,-349 936.76,-338.41 947.27,-319.09 953.37,-304.53"/>
<polygon fill="#63b8ff" stroke="#63b8ff" points="956.5,-306.14 956.79,-295.55 949.96,-303.65 956.5,-306.14"/>
</g>
<!-- Node22 -->
<g id="node22" class="node">
<title>Node22</title>
<g id="a_node22"><a xlink:href="sound__eg_8h.html" target="_top" xlink:title="Software envelope genenator interface for sound.h.">
<polygon fill="white" stroke="#666666" points="1069,-294 1003,-294 1003,-275 1069,-275 1069,-294"/>
<text text-anchor="middle" x="1036" y="-282" font-family="Helvetica,sans-Serif" font-size="10.00">sound_eg.h</text>
</a>
</g>
</g>
<!-- Node1&#45;&gt;Node22 -->
<g id="edge57" class="edge">
<title>Node1&#45;&gt;Node22</title>
<path fill="none" stroke="#63b8ff" d="M689.1,-393.21C746.57,-391.58 857.98,-383.73 945,-349 973.08,-337.79 1000.93,-316.46 1018.28,-301.63"/>
<polygon fill="#63b8ff" stroke="#63b8ff" points="1020.44,-304.4 1025.64,-295.17 1015.82,-299.14 1020.44,-304.4"/>
</g>
<!-- Node3 -->
<g id="node3" class="node">
<title>Node3</title>
<g id="a_node3"><a xlink:title=" ">
<polygon fill="#e0e0e0" stroke="#999999" points="517,-19 469,-19 469,0 517,0 517,-19"/>
<text text-anchor="middle" x="493" y="-7" font-family="Helvetica,sans-Serif" font-size="10.00">stdint.h</text>
</a>
</g>
</g>
<!-- Node2&#45;&gt;Node3 -->
<g id="edge2" class="edge">
<title>Node2&#45;&gt;Node3</title>
<path fill="none" stroke="#63b8ff" d="M590.98,-54.51C572.39,-46.16 544.46,-33.61 523.17,-24.05"/>
<polygon fill="#63b8ff" stroke="#63b8ff" points="524.66,-20.88 514.1,-19.98 521.79,-27.27 524.66,-20.88"/>
</g>
<!-- Node4&#45;&gt;Node3 -->
<g id="edge5" class="edge">
<title>Node4&#45;&gt;Node3</title>
<path fill="none" stroke="#63b8ff" d="M822.27,-274.61C820.17,-250.5 813.68,-184.39 804,-165 772.98,-102.86 754.32,-87.62 693,-55 640.12,-26.87 570.28,-16.49 528.67,-12.68"/>
<polygon fill="#63b8ff" stroke="#63b8ff" points="528.97,-9.2 518.72,-11.86 528.4,-16.17 528.97,-9.2"/>
</g>
<!-- Node5 -->
<g id="node5" class="node">
<title>Node5</title>
<g id="a_node5"><a xlink:title=" ">
<polygon fill="#e0e0e0" stroke="#999999" points="887,-239 831,-239 831,-220 887,-220 887,-239"/>
<text text-anchor="middle" x="859" y="-227" font-family="Helvetica,sans-Serif" font-size="10.00">stdbool.h</text>
</a>
</g>
</g>
<!-- Node4&#45;&gt;Node5 -->
<g id="edge4" class="edge">
<title>Node4&#45;&gt;Node5</title>
<path fill="none" stroke="#63b8ff" d="M828.94,-274.75C833.71,-267.73 840.56,-257.64 846.52,-248.87"/>
<polygon fill="#63b8ff" stroke="#63b8ff" points="849.35,-250.93 852.08,-240.69 843.56,-247 849.35,-250.93"/>
</g>
<!-- Node6&#45;&gt;Node2 -->
<g id="edge7" class="edge">
<title>Node6&#45;&gt;Node2</title>
<path fill="none" stroke="#63b8ff" d="M620.18,-109.75C618.82,-103.19 616.9,-93.95 615.17,-85.6"/>
<polygon fill="#63b8ff" stroke="#63b8ff" points="618.62,-85 613.16,-75.92 611.77,-86.43 618.62,-85"/>
</g>
<!-- Node7&#45;&gt;Node3 -->
<g id="edge9" class="edge">
<title>Node7&#45;&gt;Node3</title>
<path fill="none" stroke="#63b8ff" d="M453.47,-164.58C442.26,-156.76 427.57,-144.28 421,-129 417.66,-121.24 418.4,-118.03 421,-110 431.73,-76.88 458.06,-45.53 475.73,-27.17"/>
<polygon fill="#63b8ff" stroke="#63b8ff" points="477.97,-29.88 482.53,-20.32 473,-24.95 477.97,-29.88"/>
</g>
<!-- Node8 -->
<g id="node8" class="node">
<title>Node8</title>
<g id="a_node8"><a xlink:href="bios__const_8h.html" target="_top" xlink:title="Constant variables in the MSX BIOS ROM.">
<polygon fill="white" stroke="#666666" points="587.5,-129 516.5,-129 516.5,-110 587.5,-110 587.5,-129"/>
<text text-anchor="middle" x="552" y="-117" font-family="Helvetica,sans-Serif" font-size="10.00">bios_const.h</text>
</a>
</g>
</g>
<!-- Node7&#45;&gt;Node8 -->
<g id="edge10" class="edge">
<title>Node7&#45;&gt;Node8</title>
<path fill="none" stroke="#63b8ff" d="M482.25,-164.51C494.88,-156.54 513.56,-144.75 528.41,-135.38"/>
<polygon fill="#63b8ff" stroke="#63b8ff" points="530.09,-138.46 536.68,-130.17 526.36,-132.54 530.09,-138.46"/>
</g>
<!-- Node9 -->
<g id="node9" class="node">
<title>Node9</title>
<g id="a_node9"><a xlink:href="bios__entry_8h.html" target="_top" xlink:title="Assembler entry points for MSX BIOS functions.">
<polygon fill="white" stroke="#666666" points="498,-129 430,-129 430,-110 498,-110 498,-129"/>
<text text-anchor="middle" x="464" y="-117" font-family="Helvetica,sans-Serif" font-size="10.00">bios_entry.h</text>
</a>
</g>
</g>
<!-- Node7&#45;&gt;Node9 -->
<g id="edge13" class="edge">
<title>Node7&#45;&gt;Node9</title>
<path fill="none" stroke="#63b8ff" d="M467.34,-164.75C466.85,-158.27 466.16,-149.16 465.54,-140.9"/>
<polygon fill="#63b8ff" stroke="#63b8ff" points="469.03,-140.66 464.79,-130.95 462.05,-141.19 469.03,-140.66"/>
</g>
<!-- Node8&#45;&gt;Node2 -->
<g id="edge12" class="edge">
<title>Node8&#45;&gt;Node2</title>
<path fill="none" stroke="#63b8ff" d="M562.01,-109.51C570.37,-102 582.5,-91.1 592.6,-82.03"/>
<polygon fill="#63b8ff" stroke="#63b8ff" points="594.91,-84.66 600.01,-75.37 590.24,-79.45 594.91,-84.66"/>
</g>
<!-- Node8&#45;&gt;Node3 -->
<g id="edge11" class="edge">
<title>Node8&#45;&gt;Node3</title>
<path fill="none" stroke="#63b8ff" d="M547.17,-109.66C537.62,-92.18 516.13,-52.84 503.27,-29.3"/>
<polygon fill="#63b8ff" stroke="#63b8ff" points="506.49,-27.89 498.62,-20.79 500.34,-31.24 506.49,-27.89"/>
</g>
<!-- Node9&#45;&gt;Node2 -->
<g id="edge15" class="edge">
<title>Node9&#45;&gt;Node2</title>
<path fill="none" stroke="#63b8ff" d="M488.94,-109.51C512.84,-100.89 549.14,-87.8 575.95,-78.14"/>
<polygon fill="#63b8ff" stroke="#63b8ff" points="576.79,-81.56 585.01,-74.87 574.41,-74.97 576.79,-81.56"/>
</g>
<!-- Node9&#45;&gt;Node3 -->
<g id="edge14" class="edge">
<title>Node9&#45;&gt;Node3</title>
<path fill="none" stroke="#63b8ff" d="M466.37,-109.66C471,-92.42 481.35,-53.9 487.69,-30.27"/>
<polygon fill="#63b8ff" stroke="#63b8ff" points="490.99,-31.49 490.2,-20.92 484.23,-29.67 490.99,-31.49"/>
</g>
<!-- Node10&#45;&gt;Node2 -->
<g id="edge18" class="edge">
<title>Node10&#45;&gt;Node2</title>
<path fill="none" stroke="#63b8ff" d="M665.36,-164.88C662.73,-152.28 656.84,-128.33 647,-110 641.79,-100.29 634.33,-90.64 627.56,-82.82"/>
<polygon fill="#63b8ff" stroke="#63b8ff" points="630.16,-80.48 620.85,-75.43 624.98,-85.19 630.16,-80.48"/>
</g>
<!-- Node10&#45;&gt;Node3 -->
<g id="edge17" class="edge">
<title>Node10&#45;&gt;Node3</title>
<path fill="none" stroke="#63b8ff" d="M668.48,-164.73C671.67,-142.58 676.52,-84.1 645,-55 613.01,-25.47 562.45,-15.45 528.52,-12.09"/>
<polygon fill="#63b8ff" stroke="#63b8ff" points="529.04,-8.63 518.78,-11.29 528.46,-15.6 529.04,-8.63"/>
</g>
<!-- Node10&#45;&gt;Node8 -->
<g id="edge19" class="edge">
<title>Node10&#45;&gt;Node8</title>
<path fill="none" stroke="#63b8ff" d="M647.49,-164.51C629.37,-156.16 602.15,-143.61 581.4,-134.05"/>
<polygon fill="#63b8ff" stroke="#63b8ff" points="583.14,-131 572.59,-129.99 580.21,-137.36 583.14,-131"/>
</g>
<!-- Node11&#45;&gt;Node3 -->
<g id="edge23" class="edge">
<title>Node11&#45;&gt;Node3</title>
<path fill="none" stroke="#63b8ff" d="M446.61,-283.25C414.74,-281.74 353.13,-274.12 318,-239 297.16,-218.18 299,-204.96 299,-175.5 299,-175.5 299,-175.5 299,-118.5 299,-46.7 401.69,-22.21 457.64,-14.19"/>
<polygon fill="#63b8ff" stroke="#63b8ff" points="457.86,-17.7 467.32,-12.92 456.95,-10.76 457.86,-17.7"/>
</g>
<!-- Node11&#45;&gt;Node5 -->
<g id="edge22" class="edge">
<title>Node11&#45;&gt;Node5</title>
<path fill="none" stroke="#63b8ff" d="M487.25,-280.76C549.19,-272.39 736.88,-247.01 819.38,-235.86"/>
<polygon fill="#63b8ff" stroke="#63b8ff" points="819.82,-239.33 829.26,-234.52 818.88,-232.39 819.82,-239.33"/>
</g>
<!-- Node11&#45;&gt;Node6 -->
<g id="edge24" class="edge">
<title>Node11&#45;&gt;Node6</title>
<path fill="none" stroke="#63b8ff" d="M475.33,-274.74C500.04,-248.76 573.19,-171.83 605.89,-137.44"/>
<polygon fill="#63b8ff" stroke="#63b8ff" points="608.23,-140.06 612.58,-130.4 603.15,-135.24 608.23,-140.06"/>
</g>
<!-- Node11&#45;&gt;Node7 -->
<g id="edge33" class="edge">
<title>Node11&#45;&gt;Node7</title>
<path fill="none" stroke="#63b8ff" d="M470.09,-274.77C473.05,-265.9 477.32,-251.69 479,-239 480.96,-224.19 477.89,-207.56 474.49,-195.03"/>
<polygon fill="#63b8ff" stroke="#63b8ff" points="477.87,-194.09 471.61,-185.54 471.17,-196.13 477.87,-194.09"/>
</g>
<!-- Node11&#45;&gt;Node10 -->
<g id="edge34" class="edge">
<title>Node11&#45;&gt;Node10</title>
<path fill="none" stroke="#63b8ff" d="M487.33,-278.34C512.3,-271.5 555.48,-258.04 589,-239 611.88,-226 634.86,-206.3 649.89,-192.29"/>
<polygon fill="#63b8ff" stroke="#63b8ff" points="652.23,-194.9 657.05,-185.46 647.4,-189.83 652.23,-194.9"/>
</g>
<!-- Node12 -->
<g id="node12" class="node">
<title>Node12</title>
<g id="a_node12"><a xlink:title=" ">
<polygon fill="#e0e0e0" stroke="#999999" points="470.5,-239 419.5,-239 419.5,-220 470.5,-220 470.5,-239"/>
<text text-anchor="middle" x="445" y="-227" font-family="Helvetica,sans-Serif" font-size="10.00">assert.h</text>
</a>
</g>
</g>
<!-- Node11&#45;&gt;Node12 -->
<g id="edge21" class="edge">
<title>Node11&#45;&gt;Node12</title>
<path fill="none" stroke="#63b8ff" d="M463.37,-274.75C460.58,-268.04 456.63,-258.52 453.1,-250.02"/>
<polygon fill="#63b8ff" stroke="#63b8ff" points="456.36,-248.73 449.29,-240.84 449.89,-251.42 456.36,-248.73"/>
</g>
<!-- Node11&#45;&gt;Node13 -->
<g id="edge25" class="edge">
<title>Node11&#45;&gt;Node13</title>
<path fill="none" stroke="#63b8ff" d="M446.5,-282.72C410.95,-280.49 336.72,-271.93 285,-239 267.51,-227.87 253.33,-208.65 244.4,-194.27"/>
<polygon fill="#63b8ff" stroke="#63b8ff" points="247.47,-192.59 239.39,-185.73 241.43,-196.13 247.47,-192.59"/>
</g>
<!-- Node14 -->
<g id="node14" class="node">
<title>Node14</title>
<g id="a_node14"><a xlink:href="vdp__unsafe_8h.html" target="_top" xlink:title="Unsafe primitive functions for VDP (Video Display Proccessor) access.">
<polygon fill="white" stroke="#666666" points="401,-239 327,-239 327,-220 401,-220 401,-239"/>
<text text-anchor="middle" x="364" y="-227" font-family="Helvetica,sans-Serif" font-size="10.00">vdp_unsafe.h</text>
</a>
</g>
</g>
<!-- Node11&#45;&gt;Node14 -->
<g id="edge28" class="edge">
<title>Node11&#45;&gt;Node14</title>
<path fill="none" stroke="#63b8ff" d="M449.53,-274.51C433.6,-266.31 409.81,-254.07 391.36,-244.58"/>
<polygon fill="#63b8ff" stroke="#63b8ff" points="393.05,-241.51 382.56,-240.05 389.85,-247.74 393.05,-241.51"/>
</g>
<!-- Node13&#45;&gt;Node3 -->
<g id="edge26" class="edge">
<title>Node13&#45;&gt;Node3</title>
<path fill="none" stroke="#63b8ff" d="M235.04,-164.73C238.16,-142.6 249.52,-84.14 285,-55 310.95,-33.69 404.97,-20.2 457.28,-14.18"/>
<polygon fill="#63b8ff" stroke="#63b8ff" points="457.63,-17.66 467.18,-13.07 456.86,-10.7 457.63,-17.66"/>
</g>
<!-- Node13&#45;&gt;Node6 -->
<g id="edge27" class="edge">
<title>Node13&#45;&gt;Node6</title>
<path fill="none" stroke="#63b8ff" d="M259.75,-172.05C317.82,-168.42 463.51,-157.3 594.61,-128.83"/>
<polygon fill="#63b8ff" stroke="#63b8ff" points="595.15,-132.29 604.15,-126.71 593.63,-125.46 595.15,-132.29"/>
</g>
<!-- Node14&#45;&gt;Node3 -->
<g id="edge29" class="edge">
<title>Node14&#45;&gt;Node3</title>
<path fill="none" stroke="#63b8ff" d="M365.86,-219.74C371.91,-192.83 393.11,-109.83 435,-55 443.88,-43.38 456.52,-33.2 467.73,-25.52"/>
<polygon fill="#63b8ff" stroke="#63b8ff" points="469.34,-28.65 475.82,-20.27 465.53,-22.78 469.34,-28.65"/>
</g>
<!-- Node14&#45;&gt;Node6 -->
<g id="edge30" class="edge">
<title>Node14&#45;&gt;Node6</title>
<path fill="none" stroke="#63b8ff" d="M395.36,-219.57C422.84,-211.39 463.64,-198.41 498,-184 533.17,-169.26 572.05,-148.59 596.74,-134.88"/>
<polygon fill="#63b8ff" stroke="#63b8ff" points="598.37,-137.98 605.38,-130.04 594.95,-131.87 598.37,-137.98"/>
</g>
<!-- Node14&#45;&gt;Node7 -->
<g id="edge32" class="edge">
<title>Node14&#45;&gt;Node7</title>
<path fill="none" stroke="#63b8ff" d="M381.64,-219.51C397.73,-211.31 421.75,-199.07 440.37,-189.58"/>
<polygon fill="#63b8ff" stroke="#63b8ff" points="441.95,-192.7 449.27,-185.05 438.77,-186.47 441.95,-192.7"/>
</g>
<!-- Node14&#45;&gt;Node13 -->
<g id="edge31" class="edge">
<title>Node14&#45;&gt;Node13</title>
<path fill="none" stroke="#63b8ff" d="M341.95,-219.51C321.19,-211.04 289.84,-198.27 266.27,-188.66"/>
<polygon fill="#63b8ff" stroke="#63b8ff" points="267.71,-185.46 257.13,-184.93 265.07,-191.95 267.71,-185.46"/>
</g>
<!-- Node15&#45;&gt;Node3 -->
<g id="edge37" class="edge">
<title>Node15&#45;&gt;Node3</title>
<path fill="none" stroke="#63b8ff" d="M93.79,-219.61C90.44,-190.83 84.23,-99.45 133,-55 179.87,-12.29 375.77,-9.24 457.23,-9.88"/>
<polygon fill="#63b8ff" stroke="#63b8ff" points="457.06,-13.38 467.1,-9.98 457.13,-6.38 457.06,-13.38"/>
</g>
<!-- Node15&#45;&gt;Node13 -->
<g id="edge38" class="edge">
<title>Node15&#45;&gt;Node13</title>
<path fill="none" stroke="#63b8ff" d="M118.58,-219.51C140.98,-210.97 174.9,-198.03 200.18,-188.4"/>
<polygon fill="#63b8ff" stroke="#63b8ff" points="201.26,-191.73 209.35,-184.9 198.76,-185.19 201.26,-191.73"/>
</g>
<!-- Node16&#45;&gt;Node3 -->
<g id="edge40" class="edge">
<title>Node16&#45;&gt;Node3</title>
<path fill="none" stroke="#63b8ff" d="M32.42,-274.52C23.57,-256.34 5,-213.63 5,-175.5 5,-175.5 5,-175.5 5,-118.5 5,-25.78 345.1,-12.6 457.45,-10.78"/>
<polygon fill="#63b8ff" stroke="#63b8ff" points="457.34,-14.28 467.29,-10.64 457.24,-7.28 457.34,-14.28"/>
</g>
<!-- Node16&#45;&gt;Node13 -->
<g id="edge42" class="edge">
<title>Node16&#45;&gt;Node13</title>
<path fill="none" stroke="#63b8ff" d="M37.95,-274.69C39.9,-260.93 45.67,-234.45 62,-220 99.57,-186.75 158.85,-177.79 197.07,-175.67"/>
<polygon fill="#63b8ff" stroke="#63b8ff" points="196.85,-179.18 206.7,-175.28 196.56,-172.19 196.85,-179.18"/>
</g>
<!-- Node16&#45;&gt;Node15 -->
<g id="edge41" class="edge">
<title>Node16&#45;&gt;Node15</title>
<path fill="none" stroke="#63b8ff" d="M46.84,-274.51C55.05,-267 66.98,-256.1 76.91,-247.03"/>
<polygon fill="#63b8ff" stroke="#63b8ff" points="79.17,-249.71 84.19,-240.38 74.45,-244.54 79.17,-249.71"/>
</g>
<!-- Node17&#45;&gt;Node3 -->
<g id="edge44" class="edge">
<title>Node17&#45;&gt;Node3</title>
<path fill="none" stroke="#63b8ff" d="M246.3,-329.7C221.77,-301.29 147,-211.72 147,-175.5 147,-175.5 147,-175.5 147,-118.5 147,-53.98 369.03,-23.52 457.37,-13.96"/>
<polygon fill="#63b8ff" stroke="#63b8ff" points="457.59,-17.46 467.16,-12.93 456.85,-10.5 457.59,-17.46"/>
</g>
<!-- Node17&#45;&gt;Node11 -->
<g id="edge45" class="edge">
<title>Node17&#45;&gt;Node11</title>
<path fill="none" stroke="#63b8ff" d="M289.17,-329.75C329.95,-319.6 396.55,-303.03 435.64,-293.3"/>
<polygon fill="#63b8ff" stroke="#63b8ff" points="436.26,-296.76 445.12,-290.94 434.57,-289.96 436.26,-296.76"/>
</g>
<!-- Node17&#45;&gt;Node13 -->
<g id="edge46" class="edge">
<title>Node17&#45;&gt;Node13</title>
<path fill="none" stroke="#63b8ff" d="M252.92,-329.74C249.83,-304.53 240.85,-231.36 236.47,-195.62"/>
<polygon fill="#63b8ff" stroke="#63b8ff" points="239.96,-195.31 235.26,-185.81 233.01,-196.16 239.96,-195.31"/>
</g>
<!-- Node17&#45;&gt;Node15 -->
<g id="edge47" class="edge">
<title>Node17&#45;&gt;Node15</title>
<path fill="none" stroke="#63b8ff" d="M240.99,-329.66C213.97,-311.31 151.49,-268.87 117.69,-245.91"/>
<polygon fill="#63b8ff" stroke="#63b8ff" points="119.68,-243.03 109.44,-240.31 115.75,-248.82 119.68,-243.03"/>
</g>
<!-- Node18&#45;&gt;Node3 -->
<g id="edge49" class="edge">
<title>Node18&#45;&gt;Node3</title>
<path fill="none" stroke="#63b8ff" d="M865.18,-59.51C856.38,-58.03 846.23,-56.37 837,-55 724.51,-38.36 590.81,-22.05 528.39,-14.65"/>
<polygon fill="#63b8ff" stroke="#63b8ff" points="529.08,-11.2 518.73,-13.5 528.25,-18.15 529.08,-11.2"/>
</g>
<!-- Node19&#45;&gt;Node3 -->
<g id="edge51" class="edge">
<title>Node19&#45;&gt;Node3</title>
<path fill="none" stroke="#63b8ff" d="M769.6,-164.77C755.49,-142.72 715.17,-84.43 666,-55 622.9,-29.2 565.09,-18.23 528.43,-13.66"/>
<polygon fill="#63b8ff" stroke="#63b8ff" points="529.15,-10.22 518.82,-12.56 528.36,-17.17 529.15,-10.22"/>
</g>
<!-- Node19&#45;&gt;Node6 -->
<g id="edge52" class="edge">
<title>Node19&#45;&gt;Node6</title>
<path fill="none" stroke="#63b8ff" d="M754.68,-166.46C727.44,-157.02 679,-140.25 648.8,-129.78"/>
<polygon fill="#63b8ff" stroke="#63b8ff" points="650.22,-126.57 639.62,-126.61 647.93,-133.19 650.22,-126.57"/>
</g>
<!-- Node20&#45;&gt;Node3 -->
<g id="edge55" class="edge">
<title>Node20&#45;&gt;Node3</title>
<path fill="none" stroke="#63b8ff" d="M959.03,-274.55C957.1,-256.07 953,-212.33 953,-175.5 953,-175.5 953,-175.5 953,-118.5 953,-86.49 945.57,-72.85 919,-55 855.57,-12.38 619.42,-9.51 528.76,-10.04"/>
<polygon fill="#63b8ff" stroke="#63b8ff" points="528.94,-6.54 518.97,-10.11 529,-13.54 528.94,-6.54"/>
</g>
<!-- Node20&#45;&gt;Node5 -->
<g id="edge54" class="edge">
<title>Node20&#45;&gt;Node5</title>
<path fill="none" stroke="#63b8ff" d="M942.87,-274.51C927.25,-266.31 903.92,-254.07 885.83,-244.58"/>
<polygon fill="#63b8ff" stroke="#63b8ff" points="887.7,-241.61 877.22,-240.06 884.45,-247.81 887.7,-241.61"/>
</g>
<!-- Node21 -->
<g id="node21" class="node">
<title>Node21</title>
<g id="a_node21"><a xlink:title=" ">
<polygon fill="#e0e0e0" stroke="#999999" points="1028.5,-239 981.5,-239 981.5,-220 1028.5,-220 1028.5,-239"/>
<text text-anchor="middle" x="1005" y="-227" font-family="Helvetica,sans-Serif" font-size="10.00">stdlib.h</text>
</a>
</g>
</g>
<!-- Node20&#45;&gt;Node21 -->
<g id="edge56" class="edge">
<title>Node20&#45;&gt;Node21</title>
<path fill="none" stroke="#63b8ff" d="M967.43,-274.75C973.58,-267.5 982.51,-256.98 990.13,-248.02"/>
<polygon fill="#63b8ff" stroke="#63b8ff" points="992.62,-250.48 996.43,-240.6 987.29,-245.95 992.62,-250.48"/>
</g>
<!-- Node22&#45;&gt;Node3 -->
<g id="edge59" class="edge">
<title>Node22&#45;&gt;Node3</title>
<path fill="none" stroke="#63b8ff" d="M1038.92,-274.65C1044.69,-256.36 1057,-212.94 1057,-175.5 1057,-175.5 1057,-175.5 1057,-118.5 1057,-60.89 998.95,-72.31 944,-55 866.54,-30.6 620.7,-16.61 528.44,-12.11"/>
<polygon fill="#63b8ff" stroke="#63b8ff" points="528.89,-8.63 518.73,-11.65 528.55,-15.62 528.89,-8.63"/>
</g>
<!-- Node22&#45;&gt;Node5 -->
<g id="edge58" class="edge">
<title>Node22&#45;&gt;Node5</title>
<path fill="none" stroke="#63b8ff" d="M1005.97,-274.51C976.33,-265.63 930.84,-252.01 898.33,-242.28"/>
<polygon fill="#63b8ff" stroke="#63b8ff" points="899.45,-238.96 888.86,-239.44 897.44,-245.66 899.45,-238.96"/>
</g>
</g>
</svg>
