<?xml version="1.0" encoding="UTF-8" standalone="no"?>
<!DOCTYPE svg PUBLIC "-//W3C//DTD SVG 1.1//EN"
 "http://www.w3.org/Graphics/SVG/1.1/DTD/svg11.dtd">
<!-- Generated by graphviz version 2.44.0 ()
 -->
<!-- Title: include/msx.h Pages: 1 -->
<svg width="878pt" height="252pt"
 viewBox="0.00 0.00 878.00 252.00" xmlns="http://www.w3.org/2000/svg" xmlns:xlink="http://www.w3.org/1999/xlink">
<g id="graph0" class="graph" transform="scale(1 1) rotate(0) translate(4 248)">
<title>include/msx.h</title>
<!-- Node1 -->
<g id="node1" class="node">
<title>Node1</title>
<g id="a_node1"><a xlink:title="Copyright (c) 2021 Daishi Mori (mori0091)">
<polygon fill="#bfbfbf" stroke="black" points="306.5,-224.5 306.5,-243.5 382.5,-243.5 382.5,-224.5 306.5,-224.5"/>
<text text-anchor="middle" x="344.5" y="-231.5" font-family="Helvetica,sans-Serif" font-size="10.00">include/msx.h</text>
</a>
</g>
</g>
<!-- Node2 -->
<g id="node2" class="node">
<title>Node2</title>
<g id="a_node2"><a xlink:href="interrupt_8h.html" target="_top" xlink:title="Copyright (c) 2021 Daishi Mori (mori0091)">
<polygon fill="none" stroke="black" points="0,-168.5 0,-187.5 59,-187.5 59,-168.5 0,-168.5"/>
<text text-anchor="middle" x="29.5" y="-175.5" font-family="Helvetica,sans-Serif" font-size="10.00">interrupt.h</text>
</a>
</g>
</g>
<!-- Node1&#45;&gt;Node2 -->
<g id="edge1" class="edge">
<title>Node1&#45;&gt;Node2</title>
<path fill="none" stroke="midnightblue" d="M306.27,-227.11C253.73,-218.91 156.27,-203.33 73.5,-188 72.06,-187.73 70.6,-187.46 69.12,-187.18"/>
<polygon fill="midnightblue" stroke="midnightblue" points="69.78,-183.74 59.29,-185.25 68.43,-190.61 69.78,-183.74"/>
</g>
<!-- Node3 -->
<g id="node3" class="node">
<title>Node3</title>
<g id="a_node3"><a xlink:href="io_8h.html" target="_top" xlink:title="Copyright (c) 2021 Daishi Mori (mori0091)">
<polygon fill="none" stroke="black" points="248.5,-0.5 248.5,-19.5 280.5,-19.5 280.5,-0.5 248.5,-0.5"/>
<text text-anchor="middle" x="264.5" y="-7.5" font-family="Helvetica,sans-Serif" font-size="10.00">io.h</text>
</a>
</g>
</g>
<!-- Node1&#45;&gt;Node3 -->
<g id="edge2" class="edge">
<title>Node1&#45;&gt;Node3</title>
<path fill="none" stroke="midnightblue" d="M306.44,-231.5C245.78,-228.22 131.45,-218.11 106.5,-188 53.46,-123.99 182.25,-50.89 239.14,-22.83"/>
<polygon fill="midnightblue" stroke="midnightblue" points="240.77,-25.93 248.24,-18.42 237.72,-19.63 240.77,-25.93"/>
</g>
<!-- Node4 -->
<g id="node4" class="node">
<title>Node4</title>
<g id="a_node4"><a xlink:href="bios_8h.html" target="_top" xlink:title="Copyright (c) 2021 Daishi Mori (mori0091)">
<polygon fill="none" stroke="black" points="568.5,-56.5 568.5,-75.5 610.5,-75.5 610.5,-56.5 568.5,-56.5"/>
<text text-anchor="middle" x="589.5" y="-63.5" font-family="Helvetica,sans-Serif" font-size="10.00">bios.h</text>
</a>
</g>
</g>
<!-- Node1&#45;&gt;Node4 -->
<g id="edge3" class="edge">
<title>Node1&#45;&gt;Node4</title>
<path fill="none" stroke="midnightblue" d="M376.99,-224.48C402.41,-217.01 438.1,-204.73 466.5,-188 499.36,-168.65 504.3,-158.73 531.5,-132 547.43,-116.35 564.28,-97.13 575.69,-83.66"/>
<polygon fill="midnightblue" stroke="midnightblue" points="578.59,-85.65 582.33,-75.74 573.22,-81.15 578.59,-85.65"/>
</g>
<!-- Node6 -->
<g id="node6" class="node">
<title>Node6</title>
<g id="a_node6"><a xlink:href="workarea_8h.html" target="_top" xlink:title="Copyright (c) 2021 Daishi Mori (mori0091)">
<polygon fill="none" stroke="black" points="628.5,-56.5 628.5,-75.5 692.5,-75.5 692.5,-56.5 628.5,-56.5"/>
<text text-anchor="middle" x="660.5" y="-63.5" font-family="Helvetica,sans-Serif" font-size="10.00">workarea.h</text>
</a>
</g>
</g>
<!-- Node1&#45;&gt;Node6 -->
<g id="edge5" class="edge">
<title>Node1&#45;&gt;Node6</title>
<path fill="none" stroke="midnightblue" d="M382.77,-225.42C414.14,-218.32 459.12,-206.08 495.5,-188 554.85,-158.5 615.34,-107.73 643.78,-82.36"/>
<polygon fill="midnightblue" stroke="midnightblue" points="646.15,-84.93 651.23,-75.63 641.46,-79.74 646.15,-84.93"/>
</g>
<!-- Node7 -->
<g id="node7" class="node">
<title>Node7</title>
<g id="a_node7"><a xlink:href="vdp_8h.html" target="_top" xlink:title="Copyright (c) 2021 Daishi Mori (mori0091)">
<polygon fill="none" stroke="black" points="482.5,-112.5 482.5,-131.5 522.5,-131.5 522.5,-112.5 482.5,-112.5"/>
<text text-anchor="middle" x="502.5" y="-119.5" font-family="Helvetica,sans-Serif" font-size="10.00">vdp.h</text>
</a>
</g>
</g>
<!-- Node1&#45;&gt;Node7 -->
<g id="edge7" class="edge">
<title>Node1&#45;&gt;Node7</title>
<path fill="none" stroke="midnightblue" d="M369.13,-224.38C389.37,-216.63 418.24,-204.02 440.5,-188 459.79,-174.12 478.08,-153.74 489.73,-139.51"/>
<polygon fill="midnightblue" stroke="midnightblue" points="492.57,-141.56 496.07,-131.56 487.1,-137.19 492.57,-141.56"/>
</g>
<!-- Node10 -->
<g id="node10" class="node">
<title>Node10</title>
<g id="a_node10"><a xlink:href="vmem_8h.html" target="_top" xlink:title="Copyright (c) 2021 Daishi Mori (mori0091)">
<polygon fill="none" stroke="black" points="239,-56.5 239,-75.5 290,-75.5 290,-56.5 239,-56.5"/>
<text text-anchor="middle" x="264.5" y="-63.5" font-family="Helvetica,sans-Serif" font-size="10.00">vmem.h</text>
</a>
</g>
</g>
<!-- Node1&#45;&gt;Node10 -->
<g id="edge17" class="edge">
<title>Node1&#45;&gt;Node10</title>
<path fill="none" stroke="midnightblue" d="M306.36,-232.59C272.94,-229.95 226.1,-220.24 202.5,-188 176.97,-153.13 219.66,-106.26 246.05,-82.38"/>
<polygon fill="midnightblue" stroke="midnightblue" points="248.41,-84.97 253.63,-75.74 243.8,-79.7 248.41,-84.97"/>
</g>
<!-- Node11 -->
<g id="node11" class="node">
<title>Node11</title>
<g id="a_node11"><a xlink:href="sprite_8h.html" target="_top" xlink:title="Copyright (c) 2021 Daishi Mori (mori0091)">
<polygon fill="none" stroke="black" points="276.5,-112.5 276.5,-131.5 324.5,-131.5 324.5,-112.5 276.5,-112.5"/>
<text text-anchor="middle" x="300.5" y="-119.5" font-family="Helvetica,sans-Serif" font-size="10.00">sprite.h</text>
</a>
</g>
</g>
<!-- Node1&#45;&gt;Node11 -->
<g id="edge18" class="edge">
<title>Node1&#45;&gt;Node11</title>
<path fill="none" stroke="midnightblue" d="M341.05,-224.37C333.88,-206.46 317.27,-164.92 307.68,-140.95"/>
<polygon fill="midnightblue" stroke="midnightblue" points="310.9,-139.58 303.94,-131.59 304.4,-142.18 310.9,-139.58"/>
</g>
<!-- Node12 -->
<g id="node12" class="node">
<title>Node12</title>
<g id="a_node12"><a xlink:href="sprite__color_8h.html" target="_top" xlink:title="Copyright (c) 2021 Daishi Mori (mori0091)">
<polygon fill="none" stroke="black" points="211.5,-168.5 211.5,-187.5 285.5,-187.5 285.5,-168.5 211.5,-168.5"/>
<text text-anchor="middle" x="248.5" y="-175.5" font-family="Helvetica,sans-Serif" font-size="10.00">sprite_color.h</text>
</a>
</g>
</g>
<!-- Node1&#45;&gt;Node12 -->
<g id="edge21" class="edge">
<title>Node1&#45;&gt;Node12</title>
<path fill="none" stroke="midnightblue" d="M329.08,-224.32C313.96,-215.82 290.68,-202.73 273.03,-192.8"/>
<polygon fill="midnightblue" stroke="midnightblue" points="274.32,-189.51 263.89,-187.65 270.89,-195.61 274.32,-189.51"/>
</g>
<!-- Node13 -->
<g id="node13" class="node">
<title>Node13</title>
<g id="a_node13"><a xlink:href="metasprite_8h.html" target="_top" xlink:title="Copyright (c) 2021 Daishi Mori (mori0091)">
<polygon fill="none" stroke="black" points="341.5,-168.5 341.5,-187.5 411.5,-187.5 411.5,-168.5 341.5,-168.5"/>
<text text-anchor="middle" x="376.5" y="-175.5" font-family="Helvetica,sans-Serif" font-size="10.00">metasprite.h</text>
</a>
</g>
</g>
<!-- Node1&#45;&gt;Node13 -->
<g id="edge25" class="edge">
<title>Node1&#45;&gt;Node13</title>
<path fill="none" stroke="midnightblue" d="M349.78,-224.08C354.21,-216.61 360.66,-205.72 366.12,-196.52"/>
<polygon fill="midnightblue" stroke="midnightblue" points="369.23,-198.14 371.31,-187.75 363.21,-194.57 369.23,-198.14"/>
</g>
<!-- Node14 -->
<g id="node14" class="node">
<title>Node14</title>
<g id="a_node14"><a xlink:href="input_8h.html" target="_top" xlink:title="Copyright (c) 2021 Daishi Mori (mori0091)">
<polygon fill="none" stroke="black" points="419,-112.5 419,-131.5 464,-131.5 464,-112.5 419,-112.5"/>
<text text-anchor="middle" x="441.5" y="-119.5" font-family="Helvetica,sans-Serif" font-size="10.00">input.h</text>
</a>
</g>
</g>
<!-- Node1&#45;&gt;Node14 -->
<g id="edge30" class="edge">
<title>Node1&#45;&gt;Node14</title>
<path fill="none" stroke="midnightblue" d="M367.85,-224.45C384.7,-217.16 406.81,-205.13 420.5,-188 431.13,-174.7 436.45,-155.86 439.06,-141.89"/>
<polygon fill="midnightblue" stroke="midnightblue" points="442.53,-142.35 440.63,-131.93 435.62,-141.26 442.53,-142.35"/>
</g>
<!-- Node15 -->
<g id="node15" class="node">
<title>Node15</title>
<g id="a_node15"><a xlink:href="psg_8h.html" target="_top" xlink:title="Copyright (c) 2021 Daishi Mori (mori0091)">
<polygon fill="none" stroke="black" points="115.5,-168.5 115.5,-187.5 155.5,-187.5 155.5,-168.5 115.5,-168.5"/>
<text text-anchor="middle" x="135.5" y="-175.5" font-family="Helvetica,sans-Serif" font-size="10.00">psg.h</text>
</a>
</g>
</g>
<!-- Node1&#45;&gt;Node15 -->
<g id="edge33" class="edge">
<title>Node1&#45;&gt;Node15</title>
<path fill="none" stroke="midnightblue" d="M310.93,-224.44C275.69,-215.44 218.67,-200.83 169.5,-188 168.24,-187.67 166.95,-187.33 165.65,-186.99"/>
<polygon fill="midnightblue" stroke="midnightblue" points="166.19,-183.52 155.63,-184.35 164.41,-190.29 166.19,-183.52"/>
</g>
<!-- Node16 -->
<g id="node16" class="node">
<title>Node16</title>
<g id="a_node16"><a xlink:href="sound_8h.html" target="_top" xlink:title="Copyright (c) 2021 Daishi Mori (mori0091)">
<polygon fill="none" stroke="black" points="741.5,-112.5 741.5,-131.5 791.5,-131.5 791.5,-112.5 741.5,-112.5"/>
<text text-anchor="middle" x="766.5" y="-119.5" font-family="Helvetica,sans-Serif" font-size="10.00">sound.h</text>
</a>
</g>
</g>
<!-- Node1&#45;&gt;Node16 -->
<g id="edge35" class="edge">
<title>Node1&#45;&gt;Node16</title>
<path fill="none" stroke="midnightblue" d="M382.95,-231.67C441.65,-228.68 556.49,-219.03 648.5,-188 684.93,-175.72 723.22,-152.41 745.96,-137.3"/>
<polygon fill="midnightblue" stroke="midnightblue" points="748.11,-140.08 754.44,-131.57 744.19,-134.28 748.11,-140.08"/>
</g>
<!-- Node5 -->
<g id="node5" class="node">
<title>Node5</title>
<g id="a_node5"><a xlink:title=" ">
<polygon fill="none" stroke="#bfbfbf" points="351.5,-0.5 351.5,-19.5 399.5,-19.5 399.5,-0.5 351.5,-0.5"/>
<text text-anchor="middle" x="375.5" y="-7.5" font-family="Helvetica,sans-Serif" font-size="10.00">stdint.h</text>
</a>
</g>
</g>
<!-- Node4&#45;&gt;Node5 -->
<g id="edge4" class="edge">
<title>Node4&#45;&gt;Node5</title>
<path fill="none" stroke="midnightblue" d="M568.41,-59.56C563.82,-58.38 559,-57.14 554.5,-56 504.05,-43.17 445.54,-28.5 409.52,-19.49"/>
<polygon fill="midnightblue" stroke="midnightblue" points="410.09,-16.03 399.54,-17 408.39,-22.82 410.09,-16.03"/>
</g>
<!-- Node6&#45;&gt;Node5 -->
<g id="edge6" class="edge">
<title>Node6&#45;&gt;Node5</title>
<path fill="none" stroke="midnightblue" d="M628.29,-57.82C625.32,-57.19 622.36,-56.58 619.5,-56 544.92,-40.94 457.09,-25.24 409.8,-16.95"/>
<polygon fill="midnightblue" stroke="midnightblue" points="410.25,-13.48 399.79,-15.2 409.04,-20.37 410.25,-13.48"/>
</g>
<!-- Node7&#45;&gt;Node3 -->
<g id="edge11" class="edge">
<title>Node7&#45;&gt;Node3</title>
<path fill="none" stroke="midnightblue" d="M502.48,-112.39C501.94,-98.39 498.75,-70.77 482.5,-56 468.33,-43.11 345.33,-23.19 290.59,-14.87"/>
<polygon fill="midnightblue" stroke="midnightblue" points="291.01,-11.39 280.6,-13.36 289.97,-18.31 291.01,-11.39"/>
</g>
<!-- Node7&#45;&gt;Node4 -->
<g id="edge15" class="edge">
<title>Node7&#45;&gt;Node4</title>
<path fill="none" stroke="midnightblue" d="M516.48,-112.32C530.05,-103.9 550.88,-90.97 566.82,-81.07"/>
<polygon fill="midnightblue" stroke="midnightblue" points="568.91,-83.9 575.56,-75.65 565.21,-77.95 568.91,-83.9"/>
</g>
<!-- Node7&#45;&gt;Node5 -->
<g id="edge10" class="edge">
<title>Node7&#45;&gt;Node5</title>
<path fill="none" stroke="midnightblue" d="M508.44,-112.1C516.59,-98.66 528.89,-72.96 516.5,-56 492.22,-22.77 443.13,-13.5 409.78,-11.23"/>
<polygon fill="midnightblue" stroke="midnightblue" points="409.72,-7.72 399.55,-10.71 409.36,-14.71 409.72,-7.72"/>
</g>
<!-- Node7&#45;&gt;Node6 -->
<g id="edge16" class="edge">
<title>Node7&#45;&gt;Node6</title>
<path fill="none" stroke="midnightblue" d="M522.51,-114.16C548.44,-105.3 594.05,-89.71 625.71,-78.89"/>
<polygon fill="midnightblue" stroke="midnightblue" points="627.12,-82.11 635.45,-75.56 624.86,-75.48 627.12,-82.11"/>
</g>
<!-- Node8 -->
<g id="node8" class="node">
<title>Node8</title>
<g id="a_node8"><a xlink:title=" ">
<polygon fill="none" stroke="#bfbfbf" points="423,-56.5 423,-75.5 474,-75.5 474,-56.5 423,-56.5"/>
<text text-anchor="middle" x="448.5" y="-63.5" font-family="Helvetica,sans-Serif" font-size="10.00">assert.h</text>
</a>
</g>
</g>
<!-- Node7&#45;&gt;Node8 -->
<g id="edge8" class="edge">
<title>Node7&#45;&gt;Node8</title>
<path fill="none" stroke="midnightblue" d="M493.58,-112.08C485.72,-104.22 474.07,-92.57 464.58,-83.08"/>
<polygon fill="midnightblue" stroke="midnightblue" points="466.8,-80.35 457.25,-75.75 461.85,-85.3 466.8,-80.35"/>
</g>
<!-- Node9 -->
<g id="node9" class="node">
<title>Node9</title>
<g id="a_node9"><a xlink:title=" ">
<polygon fill="none" stroke="#bfbfbf" points="710.5,-56.5 710.5,-75.5 766.5,-75.5 766.5,-56.5 710.5,-56.5"/>
<text text-anchor="middle" x="738.5" y="-63.5" font-family="Helvetica,sans-Serif" font-size="10.00">stdbool.h</text>
</a>
</g>
</g>
<!-- Node7&#45;&gt;Node9 -->
<g id="edge9" class="edge">
<title>Node7&#45;&gt;Node9</title>
<path fill="none" stroke="midnightblue" d="M522.58,-116.57C556.89,-108.98 629.26,-92.87 700.23,-76.27"/>
<polygon fill="midnightblue" stroke="midnightblue" points="701.29,-79.62 710.23,-73.93 699.69,-72.8 701.29,-79.62"/>
</g>
<!-- Node7&#45;&gt;Node10 -->
<g id="edge12" class="edge">
<title>Node7&#45;&gt;Node10</title>
<path fill="none" stroke="midnightblue" d="M482.23,-114.68C478.99,-113.74 475.66,-112.81 472.5,-112 412.47,-96.53 341.78,-82.01 300.19,-73.84"/>
<polygon fill="midnightblue" stroke="midnightblue" points="300.75,-70.38 290.27,-71.9 299.41,-77.25 300.75,-70.38"/>
</g>
<!-- Node10&#45;&gt;Node3 -->
<g id="edge14" class="edge">
<title>Node10&#45;&gt;Node3</title>
<path fill="none" stroke="midnightblue" d="M264.5,-56.08C264.5,-49.01 264.5,-38.86 264.5,-29.99"/>
<polygon fill="midnightblue" stroke="midnightblue" points="268,-29.75 264.5,-19.75 261,-29.75 268,-29.75"/>
</g>
<!-- Node10&#45;&gt;Node5 -->
<g id="edge13" class="edge">
<title>Node10&#45;&gt;Node5</title>
<path fill="none" stroke="midnightblue" d="M282.33,-56.32C300.22,-47.62 327.98,-34.12 348.55,-24.11"/>
<polygon fill="midnightblue" stroke="midnightblue" points="350.25,-27.18 357.71,-19.65 347.19,-20.88 350.25,-27.18"/>
</g>
<!-- Node11&#45;&gt;Node5 -->
<g id="edge19" class="edge">
<title>Node11&#45;&gt;Node5</title>
<path fill="none" stroke="midnightblue" d="M305.78,-112.48C313.59,-99.96 328.78,-75.92 342.5,-56 349.04,-46.51 356.63,-36.12 362.88,-27.72"/>
<polygon fill="midnightblue" stroke="midnightblue" points="365.83,-29.62 369.02,-19.52 360.22,-25.42 365.83,-29.62"/>
</g>
<!-- Node11&#45;&gt;Node10 -->
<g id="edge20" class="edge">
<title>Node11&#45;&gt;Node10</title>
<path fill="none" stroke="midnightblue" d="M294.56,-112.08C289.52,-104.53 282.16,-93.49 275.99,-84.23"/>
<polygon fill="midnightblue" stroke="midnightblue" points="278.79,-82.13 270.33,-75.75 272.97,-86.01 278.79,-82.13"/>
</g>
<!-- Node12&#45;&gt;Node5 -->
<g id="edge22" class="edge">
<title>Node12&#45;&gt;Node5</title>
<path fill="none" stroke="midnightblue" d="M243.28,-168.37C231.1,-147.01 203.74,-90.9 229.5,-56 242.88,-37.88 302.76,-24 341.55,-16.7"/>
<polygon fill="midnightblue" stroke="midnightblue" points="342.19,-20.15 351.4,-14.91 340.94,-13.26 342.19,-20.15"/>
</g>
<!-- Node12&#45;&gt;Node10 -->
<g id="edge24" class="edge">
<title>Node12&#45;&gt;Node10</title>
<path fill="none" stroke="midnightblue" d="M249.76,-168.37C252.34,-150.62 258.29,-109.67 261.79,-85.6"/>
<polygon fill="midnightblue" stroke="midnightblue" points="265.27,-85.99 263.25,-75.59 258.35,-84.98 265.27,-85.99"/>
</g>
<!-- Node12&#45;&gt;Node11 -->
<g id="edge23" class="edge">
<title>Node12&#45;&gt;Node11</title>
<path fill="none" stroke="midnightblue" d="M257.09,-168.08C264.66,-160.22 275.88,-148.57 285.01,-139.08"/>
<polygon fill="midnightblue" stroke="midnightblue" points="287.66,-141.38 292.07,-131.75 282.62,-136.53 287.66,-141.38"/>
</g>
<!-- Node13&#45;&gt;Node5 -->
<g id="edge26" class="edge">
<title>Node13&#45;&gt;Node5</title>
<path fill="none" stroke="midnightblue" d="M376.45,-168.08C376.29,-141.95 375.83,-65.21 375.61,-29.58"/>
<polygon fill="midnightblue" stroke="midnightblue" points="379.11,-29.55 375.55,-19.57 372.11,-29.59 379.11,-29.55"/>
</g>
<!-- Node13&#45;&gt;Node7 -->
<g id="edge27" class="edge">
<title>Node13&#45;&gt;Node7</title>
<path fill="none" stroke="midnightblue" d="M396.47,-168.44C417.11,-159.6 449.56,-145.69 473.13,-135.59"/>
<polygon fill="midnightblue" stroke="midnightblue" points="474.82,-138.67 482.63,-131.52 472.06,-132.24 474.82,-138.67"/>
</g>
<!-- Node13&#45;&gt;Node10 -->
<g id="edge28" class="edge">
<title>Node13&#45;&gt;Node10</title>
<path fill="none" stroke="midnightblue" d="M372.18,-168.2C365.33,-154.89 350.97,-129.36 333.5,-112 320.89,-99.47 304.25,-88.5 290.48,-80.53"/>
<polygon fill="midnightblue" stroke="midnightblue" points="291.92,-77.32 281.48,-75.5 288.51,-83.43 291.92,-77.32"/>
</g>
<!-- Node13&#45;&gt;Node11 -->
<g id="edge29" class="edge">
<title>Node13&#45;&gt;Node11</title>
<path fill="none" stroke="midnightblue" d="M364.29,-168.32C352.72,-160.11 335.12,-147.6 321.34,-137.81"/>
<polygon fill="midnightblue" stroke="midnightblue" points="323.11,-134.77 312.93,-131.83 319.06,-140.48 323.11,-134.77"/>
</g>
<!-- Node14&#45;&gt;Node5 -->
<g id="edge32" class="edge">
<title>Node14&#45;&gt;Node5</title>
<path fill="none" stroke="midnightblue" d="M436.06,-112.42C430.37,-103.39 421.2,-88.76 413.5,-76 403.92,-60.12 393.29,-41.89 385.72,-28.78"/>
<polygon fill="midnightblue" stroke="midnightblue" points="388.61,-26.79 380.59,-19.88 382.55,-30.29 388.61,-26.79"/>
</g>
<!-- Node14&#45;&gt;Node8 -->
<g id="edge31" class="edge">
<title>Node14&#45;&gt;Node8</title>
<path fill="none" stroke="midnightblue" d="M442.66,-112.08C443.58,-104.93 444.92,-94.64 446.08,-85.69"/>
<polygon fill="midnightblue" stroke="midnightblue" points="449.55,-86.12 447.37,-75.75 442.61,-85.22 449.55,-86.12"/>
</g>
<!-- Node15&#45;&gt;Node5 -->
<g id="edge34" class="edge">
<title>Node15&#45;&gt;Node5</title>
<path fill="none" stroke="midnightblue" d="M138.82,-168.46C147.86,-146.32 175.15,-86.64 217.5,-56 254.57,-29.18 307.21,-18.3 341.37,-13.92"/>
<polygon fill="midnightblue" stroke="midnightblue" points="341.81,-17.39 351.33,-12.76 340.99,-10.44 341.81,-17.39"/>
</g>
<!-- Node16&#45;&gt;Node5 -->
<g id="edge37" class="edge">
<title>Node16&#45;&gt;Node5</title>
<path fill="none" stroke="midnightblue" d="M771.55,-112.18C778.71,-98.37 789.47,-71.63 775.5,-56 751.28,-28.9 502.32,-16.13 409.84,-12.29"/>
<polygon fill="midnightblue" stroke="midnightblue" points="409.75,-8.79 399.62,-11.88 409.47,-15.78 409.75,-8.79"/>
</g>
<!-- Node16&#45;&gt;Node9 -->
<g id="edge36" class="edge">
<title>Node16&#45;&gt;Node9</title>
<path fill="none" stroke="midnightblue" d="M761.88,-112.08C758.04,-104.69 752.48,-93.95 747.74,-84.81"/>
<polygon fill="midnightblue" stroke="midnightblue" points="750.75,-83.02 743.04,-75.75 744.53,-86.24 750.75,-83.02"/>
</g>
<!-- Node17 -->
<g id="node17" class="node">
<title>Node17</title>
<g id="a_node17"><a xlink:title=" ">
<polygon fill="none" stroke="#bfbfbf" points="823,-56.5 823,-75.5 870,-75.5 870,-56.5 823,-56.5"/>
<text text-anchor="middle" x="846.5" y="-63.5" font-family="Helvetica,sans-Serif" font-size="10.00">stdlib.h</text>
</a>
</g>
</g>
<!-- Node16&#45;&gt;Node17 -->
<g id="edge38" class="edge">
<title>Node16&#45;&gt;Node17</title>
<path fill="none" stroke="midnightblue" d="M779.35,-112.32C791.72,-103.98 810.63,-91.21 825.24,-81.35"/>
<polygon fill="midnightblue" stroke="midnightblue" points="827.35,-84.15 833.68,-75.65 823.43,-78.35 827.35,-84.15"/>
</g>
</g>
</svg>
