<?xml version="1.0" encoding="UTF-8" standalone="no"?>
<!DOCTYPE svg PUBLIC "-//W3C//DTD SVG 1.1//EN"
 "http://www.w3.org/Graphics/SVG/1.1/DTD/svg11.dtd">
<!-- Generated by graphviz version 2.44.0 ()
 -->
<!-- Title: include/msx.h Pages: 1 -->
<svg width="797pt" height="252pt"
 viewBox="0.00 0.00 796.82 252.00" xmlns="http://www.w3.org/2000/svg" xmlns:xlink="http://www.w3.org/1999/xlink">
<g id="graph0" class="graph" transform="scale(1 1) rotate(0) translate(4 248)">
<title>include/msx.h</title>
<!-- Node1 -->
<g id="node1" class="node">
<title>Node1</title>
<g id="a_node1"><a xlink:title="Copyright (c) 2021 Daishi Mori (mori0091)">
<polygon fill="#bfbfbf" stroke="black" points="408,-224.5 408,-243.5 484,-243.5 484,-224.5 408,-224.5"/>
<text text-anchor="middle" x="446" y="-231.5" font-family="Helvetica,sans-Serif" font-size="10.00">include/msx.h</text>
</a>
</g>
</g>
<!-- Node2 -->
<g id="node2" class="node">
<title>Node2</title>
<g id="a_node2"><a xlink:href="interrupt_8h.html" target="_top" xlink:title="Copyright (c) 2021 Daishi Mori (mori0091)">
<polygon fill="none" stroke="black" points="64.5,-168.5 64.5,-187.5 123.5,-187.5 123.5,-168.5 64.5,-168.5"/>
<text text-anchor="middle" x="94" y="-175.5" font-family="Helvetica,sans-Serif" font-size="10.00">interrupt.h</text>
</a>
</g>
</g>
<!-- Node1&#45;&gt;Node2 -->
<g id="edge1" class="edge">
<title>Node1&#45;&gt;Node2</title>
<path fill="none" stroke="midnightblue" d="M407.88,-227.91C350.06,-220.07 236.78,-204.23 141,-188 138.53,-187.58 135.98,-187.14 133.42,-186.68"/>
<polygon fill="midnightblue" stroke="midnightblue" points="134.02,-183.23 123.55,-184.86 132.75,-190.11 134.02,-183.23"/>
</g>
<!-- Node4 -->
<g id="node4" class="node">
<title>Node4</title>
<g id="a_node4"><a xlink:href="io_8h.html" target="_top" xlink:title="Copyright (c) 2021 Daishi Mori (mori0091)">
<polygon fill="none" stroke="black" points="674,-0.5 674,-19.5 706,-19.5 706,-0.5 674,-0.5"/>
<text text-anchor="middle" x="690" y="-7.5" font-family="Helvetica,sans-Serif" font-size="10.00">io.h</text>
</a>
</g>
</g>
<!-- Node1&#45;&gt;Node4 -->
<g id="edge3" class="edge">
<title>Node1&#45;&gt;Node4</title>
<path fill="none" stroke="midnightblue" d="M484.1,-233.36C558.82,-233.17 720.38,-228.03 755,-188 772.84,-167.37 826.52,-213.81 743,-56 736.32,-43.37 724.48,-32.8 713.69,-25.09"/>
<polygon fill="midnightblue" stroke="midnightblue" points="715.64,-22.18 705.38,-19.53 711.74,-27.99 715.64,-22.18"/>
</g>
<!-- Node5 -->
<g id="node5" class="node">
<title>Node5</title>
<g id="a_node5"><a xlink:href="bios_8h.html" target="_top" xlink:title="Copyright (c) 2021 Daishi Mori (mori0091)">
<polygon fill="none" stroke="black" points="122,-56.5 122,-75.5 164,-75.5 164,-56.5 122,-56.5"/>
<text text-anchor="middle" x="143" y="-63.5" font-family="Helvetica,sans-Serif" font-size="10.00">bios.h</text>
</a>
</g>
</g>
<!-- Node1&#45;&gt;Node5 -->
<g id="edge4" class="edge">
<title>Node1&#45;&gt;Node5</title>
<path fill="none" stroke="midnightblue" d="M407.8,-227.52C369.72,-221.18 310.14,-208.84 262,-188 220.14,-169.88 206.47,-165.94 176,-132 163.74,-118.34 154.78,-99.3 149.31,-85.35"/>
<polygon fill="midnightblue" stroke="midnightblue" points="152.56,-84.03 145.82,-75.86 145.99,-86.45 152.56,-84.03"/>
</g>
<!-- Node6 -->
<g id="node6" class="node">
<title>Node6</title>
<g id="a_node6"><a xlink:href="workarea_8h.html" target="_top" xlink:title="Copyright (c) 2021 Daishi Mori (mori0091)">
<polygon fill="none" stroke="black" points="252,-56.5 252,-75.5 316,-75.5 316,-56.5 252,-56.5"/>
<text text-anchor="middle" x="284" y="-63.5" font-family="Helvetica,sans-Serif" font-size="10.00">workarea.h</text>
</a>
</g>
</g>
<!-- Node1&#45;&gt;Node6 -->
<g id="edge6" class="edge">
<title>Node1&#45;&gt;Node6</title>
<path fill="none" stroke="midnightblue" d="M437.29,-224.08C411.13,-197.27 332.98,-117.19 299.5,-82.89"/>
<polygon fill="midnightblue" stroke="midnightblue" points="301.85,-80.28 292.36,-75.57 296.84,-85.17 301.85,-80.28"/>
</g>
<!-- Node7 -->
<g id="node7" class="node">
<title>Node7</title>
<g id="a_node7"><a xlink:href="vdp_8h.html" target="_top" xlink:title="Copyright (c) 2021 Daishi Mori (mori0091)">
<polygon fill="none" stroke="black" points="362,-112.5 362,-131.5 402,-131.5 402,-112.5 362,-112.5"/>
<text text-anchor="middle" x="382" y="-119.5" font-family="Helvetica,sans-Serif" font-size="10.00">vdp.h</text>
</a>
</g>
</g>
<!-- Node1&#45;&gt;Node7 -->
<g id="edge8" class="edge">
<title>Node1&#45;&gt;Node7</title>
<path fill="none" stroke="midnightblue" d="M440.98,-224.37C430.46,-206.3 405.96,-164.18 392.07,-140.31"/>
<polygon fill="midnightblue" stroke="midnightblue" points="395.05,-138.47 387,-131.59 389,-142 395.05,-138.47"/>
</g>
<!-- Node10 -->
<g id="node10" class="node">
<title>Node10</title>
<g id="a_node10"><a xlink:href="vmem_8h.html" target="_top" xlink:title="Copyright (c) 2021 Daishi Mori (mori0091)">
<polygon fill="none" stroke="black" points="664.5,-56.5 664.5,-75.5 715.5,-75.5 715.5,-56.5 664.5,-56.5"/>
<text text-anchor="middle" x="690" y="-63.5" font-family="Helvetica,sans-Serif" font-size="10.00">vmem.h</text>
</a>
</g>
</g>
<!-- Node1&#45;&gt;Node10 -->
<g id="edge18" class="edge">
<title>Node1&#45;&gt;Node10</title>
<path fill="none" stroke="midnightblue" d="M484.09,-232.97C555.41,-232.03 704.85,-225.5 737,-188 763.88,-156.64 728.18,-108.16 705.73,-83.15"/>
<polygon fill="midnightblue" stroke="midnightblue" points="708.11,-80.57 698.73,-75.63 702.98,-85.34 708.11,-80.57"/>
</g>
<!-- Node11 -->
<g id="node11" class="node">
<title>Node11</title>
<g id="a_node11"><a xlink:href="sprite_8h.html" target="_top" xlink:title="Copyright (c) 2021 Daishi Mori (mori0091)">
<polygon fill="none" stroke="black" points="622,-112.5 622,-131.5 670,-131.5 670,-112.5 622,-112.5"/>
<text text-anchor="middle" x="646" y="-119.5" font-family="Helvetica,sans-Serif" font-size="10.00">sprite.h</text>
</a>
</g>
</g>
<!-- Node1&#45;&gt;Node11 -->
<g id="edge19" class="edge">
<title>Node1&#45;&gt;Node11</title>
<path fill="none" stroke="midnightblue" d="M484.21,-228.98C517.39,-223.91 565.42,-212.67 600,-188 617.01,-175.87 629.97,-155.41 637.73,-140.68"/>
<polygon fill="midnightblue" stroke="midnightblue" points="640.94,-142.08 642.26,-131.57 634.67,-138.97 640.94,-142.08"/>
</g>
<!-- Node12 -->
<g id="node12" class="node">
<title>Node12</title>
<g id="a_node12"><a xlink:href="sprite__color_8h.html" target="_top" xlink:title="Copyright (c) 2021 Daishi Mori (mori0091)">
<polygon fill="none" stroke="black" points="654,-168.5 654,-187.5 728,-187.5 728,-168.5 654,-168.5"/>
<text text-anchor="middle" x="691" y="-175.5" font-family="Helvetica,sans-Serif" font-size="10.00">sprite_color.h</text>
</a>
</g>
</g>
<!-- Node1&#45;&gt;Node12 -->
<g id="edge22" class="edge">
<title>Node1&#45;&gt;Node12</title>
<path fill="none" stroke="midnightblue" d="M484.01,-224.62C527.09,-215.13 597.34,-199.64 643.86,-189.39"/>
<polygon fill="midnightblue" stroke="midnightblue" points="644.69,-192.79 653.7,-187.22 643.18,-185.96 644.69,-192.79"/>
</g>
<!-- Node13 -->
<g id="node13" class="node">
<title>Node13</title>
<g id="a_node13"><a xlink:href="metasprite_8h.html" target="_top" xlink:title="Copyright (c) 2021 Daishi Mori (mori0091)">
<polygon fill="none" stroke="black" points="521,-168.5 521,-187.5 591,-187.5 591,-168.5 521,-168.5"/>
<text text-anchor="middle" x="556" y="-175.5" font-family="Helvetica,sans-Serif" font-size="10.00">metasprite.h</text>
</a>
</g>
</g>
<!-- Node1&#45;&gt;Node13 -->
<g id="edge26" class="edge">
<title>Node1&#45;&gt;Node13</title>
<path fill="none" stroke="midnightblue" d="M463.67,-224.32C481.39,-215.62 508.9,-202.12 529.29,-192.11"/>
<polygon fill="midnightblue" stroke="midnightblue" points="530.94,-195.2 538.37,-187.65 527.85,-188.92 530.94,-195.2"/>
</g>
<!-- Node14 -->
<g id="node14" class="node">
<title>Node14</title>
<g id="a_node14"><a xlink:href="input_8h.html" target="_top" xlink:title="Copyright (c) 2021 Daishi Mori (mori0091)">
<polygon fill="none" stroke="black" points="185.5,-112.5 185.5,-131.5 230.5,-131.5 230.5,-112.5 185.5,-112.5"/>
<text text-anchor="middle" x="208" y="-119.5" font-family="Helvetica,sans-Serif" font-size="10.00">input.h</text>
</a>
</g>
</g>
<!-- Node1&#45;&gt;Node14 -->
<g id="edge31" class="edge">
<title>Node1&#45;&gt;Node14</title>
<path fill="none" stroke="midnightblue" d="M407.9,-225.08C377.21,-217.86 333.49,-205.6 298,-188 270.7,-174.46 242.78,-152.85 225.43,-138.3"/>
<polygon fill="midnightblue" stroke="midnightblue" points="227.69,-135.63 217.81,-131.79 223.14,-140.95 227.69,-135.63"/>
</g>
<!-- Node15 -->
<g id="node15" class="node">
<title>Node15</title>
<g id="a_node15"><a xlink:href="psg_8h.html" target="_top" xlink:title="Copyright (c) 2021 Daishi Mori (mori0091)">
<polygon fill="none" stroke="black" points="0,-168.5 0,-187.5 40,-187.5 40,-168.5 0,-168.5"/>
<text text-anchor="middle" x="20" y="-175.5" font-family="Helvetica,sans-Serif" font-size="10.00">psg.h</text>
</a>
</g>
</g>
<!-- Node1&#45;&gt;Node15 -->
<g id="edge34" class="edge">
<title>Node1&#45;&gt;Node15</title>
<path fill="none" stroke="midnightblue" d="M408,-230.37C337.82,-225.12 183.33,-211.77 55,-188 53.5,-187.72 51.96,-187.41 50.42,-187.09"/>
<polygon fill="midnightblue" stroke="midnightblue" points="50.79,-183.58 40.25,-184.71 49.19,-190.4 50.79,-183.58"/>
</g>
<!-- Node16 -->
<g id="node16" class="node">
<title>Node16</title>
<g id="a_node16"><a xlink:href="sound_8h.html" target="_top" xlink:title="Copyright (c) 2021 Daishi Mori (mori0091)">
<polygon fill="none" stroke="black" points="452,-112.5 452,-131.5 502,-131.5 502,-112.5 452,-112.5"/>
<text text-anchor="middle" x="477" y="-119.5" font-family="Helvetica,sans-Serif" font-size="10.00">sound.h</text>
</a>
</g>
</g>
<!-- Node1&#45;&gt;Node16 -->
<g id="edge36" class="edge">
<title>Node1&#45;&gt;Node16</title>
<path fill="none" stroke="midnightblue" d="M448.43,-224.37C453.46,-206.54 465.08,-165.3 471.85,-141.27"/>
<polygon fill="midnightblue" stroke="midnightblue" points="475.23,-142.17 474.58,-131.59 468.5,-140.27 475.23,-142.17"/>
</g>
<!-- Node3 -->
<g id="node3" class="node">
<title>Node3</title>
<g id="a_node3"><a xlink:title=" ">
<polygon fill="none" stroke="#bfbfbf" points="320,-0.5 320,-19.5 368,-19.5 368,-0.5 320,-0.5"/>
<text text-anchor="middle" x="344" y="-7.5" font-family="Helvetica,sans-Serif" font-size="10.00">stdint.h</text>
</a>
</g>
</g>
<!-- Node2&#45;&gt;Node3 -->
<g id="edge2" class="edge">
<title>Node2&#45;&gt;Node3</title>
<path fill="none" stroke="midnightblue" d="M91.59,-168.33C86.06,-146.38 75.06,-88.09 104,-56 130.99,-26.08 250.22,-15.78 309.83,-12.46"/>
<polygon fill="midnightblue" stroke="midnightblue" points="310.09,-15.95 319.89,-11.94 309.72,-8.96 310.09,-15.95"/>
</g>
<!-- Node5&#45;&gt;Node3 -->
<g id="edge5" class="edge">
<title>Node5&#45;&gt;Node3</title>
<path fill="none" stroke="midnightblue" d="M164.28,-58.52C167.2,-57.66 170.17,-56.8 173,-56 220.27,-42.7 275.22,-28.45 309.81,-19.63"/>
<polygon fill="midnightblue" stroke="midnightblue" points="311.03,-22.93 319.86,-17.08 309.3,-16.15 311.03,-22.93"/>
</g>
<!-- Node6&#45;&gt;Node3 -->
<g id="edge7" class="edge">
<title>Node6&#45;&gt;Node3</title>
<path fill="none" stroke="midnightblue" d="M293.64,-56.32C302.51,-48.34 315.87,-36.31 326.61,-26.65"/>
<polygon fill="midnightblue" stroke="midnightblue" points="329.09,-29.13 334.18,-19.83 324.41,-23.92 329.09,-29.13"/>
</g>
<!-- Node7&#45;&gt;Node3 -->
<g id="edge11" class="edge">
<title>Node7&#45;&gt;Node3</title>
<path fill="none" stroke="midnightblue" d="M379.02,-112.37C372.86,-94.54 358.61,-53.3 350.31,-29.27"/>
<polygon fill="midnightblue" stroke="midnightblue" points="353.54,-27.9 346.97,-19.59 346.93,-30.19 353.54,-27.9"/>
</g>
<!-- Node7&#45;&gt;Node4 -->
<g id="edge12" class="edge">
<title>Node7&#45;&gt;Node4</title>
<path fill="none" stroke="midnightblue" d="M381.8,-112.31C381.98,-98.2 384.57,-70.43 401,-56 439.87,-21.88 599.88,-13.57 663.62,-11.59"/>
<polygon fill="midnightblue" stroke="midnightblue" points="663.78,-15.09 673.68,-11.31 663.58,-8.09 663.78,-15.09"/>
</g>
<!-- Node7&#45;&gt;Node5 -->
<g id="edge16" class="edge">
<title>Node7&#45;&gt;Node5</title>
<path fill="none" stroke="midnightblue" d="M361.99,-117.24C326.24,-110.41 248.87,-95.1 174.27,-76.17"/>
<polygon fill="midnightblue" stroke="midnightblue" points="174.8,-72.69 164.25,-73.6 173.06,-79.48 174.8,-72.69"/>
</g>
<!-- Node7&#45;&gt;Node6 -->
<g id="edge17" class="edge">
<title>Node7&#45;&gt;Node6</title>
<path fill="none" stroke="midnightblue" d="M366.25,-112.32C350.68,-103.74 326.62,-90.49 308.54,-80.52"/>
<polygon fill="midnightblue" stroke="midnightblue" points="310.15,-77.42 299.71,-75.65 306.78,-83.55 310.15,-77.42"/>
</g>
<!-- Node8 -->
<g id="node8" class="node">
<title>Node8</title>
<g id="a_node8"><a xlink:title=" ">
<polygon fill="none" stroke="#bfbfbf" points="182.5,-56.5 182.5,-75.5 233.5,-75.5 233.5,-56.5 182.5,-56.5"/>
<text text-anchor="middle" x="208" y="-63.5" font-family="Helvetica,sans-Serif" font-size="10.00">assert.h</text>
</a>
</g>
</g>
<!-- Node7&#45;&gt;Node8 -->
<g id="edge9" class="edge">
<title>Node7&#45;&gt;Node8</title>
<path fill="none" stroke="midnightblue" d="M361.7,-114.7C332.73,-105.71 279.12,-89.07 243.5,-78.02"/>
<polygon fill="midnightblue" stroke="midnightblue" points="244.1,-74.54 233.52,-74.92 242.03,-81.23 244.1,-74.54"/>
</g>
<!-- Node9 -->
<g id="node9" class="node">
<title>Node9</title>
<g id="a_node9"><a xlink:title=" ">
<polygon fill="none" stroke="#bfbfbf" points="410,-56.5 410,-75.5 466,-75.5 466,-56.5 410,-56.5"/>
<text text-anchor="middle" x="438" y="-63.5" font-family="Helvetica,sans-Serif" font-size="10.00">stdbool.h</text>
</a>
</g>
</g>
<!-- Node7&#45;&gt;Node9 -->
<g id="edge10" class="edge">
<title>Node7&#45;&gt;Node9</title>
<path fill="none" stroke="midnightblue" d="M391,-112.32C399.19,-104.42 411.51,-92.55 421.47,-82.94"/>
<polygon fill="midnightblue" stroke="midnightblue" points="424.07,-85.29 428.84,-75.83 419.21,-80.26 424.07,-85.29"/>
</g>
<!-- Node7&#45;&gt;Node10 -->
<g id="edge13" class="edge">
<title>Node7&#45;&gt;Node10</title>
<path fill="none" stroke="midnightblue" d="M402.21,-117.46C453.43,-108.48 588.86,-84.73 654,-73.31"/>
<polygon fill="midnightblue" stroke="midnightblue" points="654.96,-76.7 664.2,-71.52 653.75,-69.8 654.96,-76.7"/>
</g>
<!-- Node10&#45;&gt;Node3 -->
<g id="edge14" class="edge">
<title>Node10&#45;&gt;Node3</title>
<path fill="none" stroke="midnightblue" d="M664.24,-58.9C659.51,-57.87 654.62,-56.86 650,-56 552.05,-37.8 435.34,-22.35 378.52,-15.21"/>
<polygon fill="midnightblue" stroke="midnightblue" points="378.66,-11.71 368.3,-13.94 377.79,-18.65 378.66,-11.71"/>
</g>
<!-- Node10&#45;&gt;Node4 -->
<g id="edge15" class="edge">
<title>Node10&#45;&gt;Node4</title>
<path fill="none" stroke="midnightblue" d="M690,-56.08C690,-49.01 690,-38.86 690,-29.99"/>
<polygon fill="midnightblue" stroke="midnightblue" points="693.5,-29.75 690,-19.75 686.5,-29.75 693.5,-29.75"/>
</g>
<!-- Node11&#45;&gt;Node3 -->
<g id="edge20" class="edge">
<title>Node11&#45;&gt;Node3</title>
<path fill="none" stroke="midnightblue" d="M644.06,-112.2C640.43,-97.92 631.17,-69.91 612,-56 575.27,-29.35 442.41,-17.34 378.63,-13.02"/>
<polygon fill="midnightblue" stroke="midnightblue" points="378.49,-9.5 368.29,-12.34 378.04,-16.49 378.49,-9.5"/>
</g>
<!-- Node11&#45;&gt;Node10 -->
<g id="edge21" class="edge">
<title>Node11&#45;&gt;Node10</title>
<path fill="none" stroke="midnightblue" d="M653.27,-112.08C659.54,-104.38 668.79,-93.03 676.43,-83.65"/>
<polygon fill="midnightblue" stroke="midnightblue" points="679.27,-85.71 682.87,-75.75 673.84,-81.29 679.27,-85.71"/>
</g>
<!-- Node12&#45;&gt;Node3 -->
<g id="edge23" class="edge">
<title>Node12&#45;&gt;Node3</title>
<path fill="none" stroke="midnightblue" d="M698.05,-168.49C715.04,-146.91 754.72,-89.43 725,-56 702.12,-30.26 467.49,-16.74 378.22,-12.49"/>
<polygon fill="midnightblue" stroke="midnightblue" points="378.23,-8.99 368.08,-12.02 377.9,-15.98 378.23,-8.99"/>
</g>
<!-- Node12&#45;&gt;Node10 -->
<g id="edge25" class="edge">
<title>Node12&#45;&gt;Node10</title>
<path fill="none" stroke="midnightblue" d="M690.92,-168.37C690.76,-150.62 690.39,-109.67 690.17,-85.6"/>
<polygon fill="midnightblue" stroke="midnightblue" points="693.67,-85.56 690.08,-75.59 686.67,-85.62 693.67,-85.56"/>
</g>
<!-- Node12&#45;&gt;Node11 -->
<g id="edge24" class="edge">
<title>Node12&#45;&gt;Node11</title>
<path fill="none" stroke="midnightblue" d="M683.57,-168.08C677.15,-160.38 667.69,-149.03 659.88,-139.65"/>
<polygon fill="midnightblue" stroke="midnightblue" points="662.38,-137.19 653.29,-131.75 657.01,-141.67 662.38,-137.19"/>
</g>
<!-- Node13&#45;&gt;Node3 -->
<g id="edge27" class="edge">
<title>Node13&#45;&gt;Node3</title>
<path fill="none" stroke="midnightblue" d="M561.9,-168.21C575.69,-146.49 606.79,-89.62 579,-56 553.96,-25.71 437.55,-15.61 378.52,-12.41"/>
<polygon fill="midnightblue" stroke="midnightblue" points="378.36,-8.89 368.2,-11.88 378.01,-15.88 378.36,-8.89"/>
</g>
<!-- Node13&#45;&gt;Node7 -->
<g id="edge28" class="edge">
<title>Node13&#45;&gt;Node7</title>
<path fill="none" stroke="midnightblue" d="M528.43,-168.44C496.7,-158.6 444.75,-142.48 412.02,-132.32"/>
<polygon fill="midnightblue" stroke="midnightblue" points="412.71,-128.87 402.12,-129.24 410.63,-135.55 412.71,-128.87"/>
</g>
<!-- Node13&#45;&gt;Node10 -->
<g id="edge29" class="edge">
<title>Node13&#45;&gt;Node10</title>
<path fill="none" stroke="midnightblue" d="M562.25,-168.2C572.01,-154.9 591.93,-129.39 613,-112 628.23,-99.43 647.4,-88.22 662.8,-80.13"/>
<polygon fill="midnightblue" stroke="midnightblue" points="664.52,-83.18 671.83,-75.51 661.33,-76.95 664.52,-83.18"/>
</g>
<!-- Node13&#45;&gt;Node11 -->
<g id="edge30" class="edge">
<title>Node13&#45;&gt;Node11</title>
<path fill="none" stroke="midnightblue" d="M570.46,-168.32C584.5,-159.9 606.05,-146.97 622.54,-137.07"/>
<polygon fill="midnightblue" stroke="midnightblue" points="624.8,-139.8 631.58,-131.65 621.2,-133.8 624.8,-139.8"/>
</g>
<!-- Node14&#45;&gt;Node3 -->
<g id="edge33" class="edge">
<title>Node14&#45;&gt;Node3</title>
<path fill="none" stroke="midnightblue" d="M185.27,-115.51C150.22,-106 89.36,-84.69 113,-56 137.52,-26.24 251.46,-15.9 309.63,-12.52"/>
<polygon fill="midnightblue" stroke="midnightblue" points="310.01,-16.01 319.81,-11.97 309.63,-9.02 310.01,-16.01"/>
</g>
<!-- Node14&#45;&gt;Node8 -->
<g id="edge32" class="edge">
<title>Node14&#45;&gt;Node8</title>
<path fill="none" stroke="midnightblue" d="M208,-112.08C208,-105.01 208,-94.86 208,-85.99"/>
<polygon fill="midnightblue" stroke="midnightblue" points="211.5,-85.75 208,-75.75 204.5,-85.75 211.5,-85.75"/>
</g>
<!-- Node15&#45;&gt;Node3 -->
<g id="edge35" class="edge">
<title>Node15&#45;&gt;Node3</title>
<path fill="none" stroke="midnightblue" d="M22.21,-168.24C28.41,-145.56 48.27,-84.68 89,-56 124.02,-31.34 248.2,-18.46 309.39,-13.48"/>
<polygon fill="midnightblue" stroke="midnightblue" points="310.01,-16.95 319.7,-12.67 309.46,-9.97 310.01,-16.95"/>
</g>
<!-- Node16&#45;&gt;Node3 -->
<g id="edge38" class="edge">
<title>Node16&#45;&gt;Node3</title>
<path fill="none" stroke="midnightblue" d="M479.54,-112.44C482.97,-98.98 487.33,-72.72 475,-56 452.79,-25.87 409.16,-15.75 378.37,-12.44"/>
<polygon fill="midnightblue" stroke="midnightblue" points="378.34,-8.92 368.07,-11.53 377.72,-15.89 378.34,-8.92"/>
</g>
<!-- Node16&#45;&gt;Node9 -->
<g id="edge37" class="edge">
<title>Node16&#45;&gt;Node9</title>
<path fill="none" stroke="midnightblue" d="M470.56,-112.08C465.05,-104.46 456.97,-93.26 450.24,-83.94"/>
<polygon fill="midnightblue" stroke="midnightblue" points="453.01,-81.81 444.32,-75.75 447.34,-85.91 453.01,-81.81"/>
</g>
<!-- Node17 -->
<g id="node17" class="node">
<title>Node17</title>
<g id="a_node17"><a xlink:title=" ">
<polygon fill="none" stroke="#bfbfbf" points="522.5,-56.5 522.5,-75.5 569.5,-75.5 569.5,-56.5 522.5,-56.5"/>
<text text-anchor="middle" x="546" y="-63.5" font-family="Helvetica,sans-Serif" font-size="10.00">stdlib.h</text>
</a>
</g>
</g>
<!-- Node16&#45;&gt;Node17 -->
<g id="edge39" class="edge">
<title>Node16&#45;&gt;Node17</title>
<path fill="none" stroke="midnightblue" d="M488.09,-112.32C498.49,-104.18 514.26,-91.84 526.72,-82.09"/>
<polygon fill="midnightblue" stroke="midnightblue" points="528.99,-84.75 534.71,-75.83 524.68,-79.24 528.99,-84.75"/>
</g>
</g>
</svg>
