<?xml version="1.0" encoding="UTF-8" standalone="no"?>
<!DOCTYPE svg PUBLIC "-//W3C//DTD SVG 1.1//EN"
 "http://www.w3.org/Graphics/SVG/1.1/DTD/svg11.dtd">
<!-- Generated by graphviz version 2.43.0 (0)
 -->
<!-- Title: include/msx.h Pages: 1 -->
<svg width="534pt" height="252pt"
 viewBox="0.00 0.00 533.78 252.00" xmlns="http://www.w3.org/2000/svg" xmlns:xlink="http://www.w3.org/1999/xlink">
<g id="graph0" class="graph" transform="scale(1 1) rotate(0) translate(4 248)">
<title>include/msx.h</title>
<!-- Node1 -->
<g id="node1" class="node">
<title>Node1</title>
<g id="a_node1"><a xlink:title=" ">
<polygon fill="#bfbfbf" stroke="black" points="132.27,-224.5 132.27,-243.5 217.27,-243.5 217.27,-224.5 132.27,-224.5"/>
<text text-anchor="middle" x="174.77" y="-231.5" font-family="Helvetica,sans-Serif" font-size="10.00">include/msx.h</text>
</a>
</g>
</g>
<!-- Node2 -->
<g id="node2" class="node">
<title>Node2</title>
<g id="a_node2"><a xlink:href="io_8h.html" target="_top" xlink:title=" ">
<polygon fill="none" stroke="black" points="41.27,-0.5 41.27,-19.5 76.27,-19.5 76.27,-0.5 41.27,-0.5"/>
<text text-anchor="middle" x="58.77" y="-7.5" font-family="Helvetica,sans-Serif" font-size="10.00">io.h</text>
</a>
</g>
</g>
<!-- Node1&#45;&gt;Node2 -->
<g id="edge1" class="edge">
<title>Node1&#45;&gt;Node2</title>
<path fill="none" stroke="midnightblue" d="M132.12,-227.19C103.92,-221.42 67.69,-210.08 42.77,-188 -2.26,-148.1 -10.56,-111.46 12.77,-56 17.8,-44.05 27.72,-33.69 37.06,-25.93"/>
<polygon fill="midnightblue" stroke="midnightblue" points="39.21,-28.69 44.98,-19.81 34.93,-23.15 39.21,-28.69"/>
</g>
<!-- Node3 -->
<g id="node3" class="node">
<title>Node3</title>
<g id="a_node3"><a xlink:href="bios_8h.html" target="_top" xlink:title=" ">
<polygon fill="none" stroke="black" points="299.77,-56.5 299.77,-75.5 345.77,-75.5 345.77,-56.5 299.77,-56.5"/>
<text text-anchor="middle" x="322.77" y="-63.5" font-family="Helvetica,sans-Serif" font-size="10.00">bios.h</text>
</a>
</g>
</g>
<!-- Node1&#45;&gt;Node3 -->
<g id="edge2" class="edge">
<title>Node1&#45;&gt;Node3</title>
<path fill="none" stroke="midnightblue" d="M182.73,-224.08C206.53,-197.38 277.42,-117.87 308.22,-83.32"/>
<polygon fill="midnightblue" stroke="midnightblue" points="311.09,-85.36 315.13,-75.57 305.87,-80.7 311.09,-85.36"/>
</g>
<!-- Node5 -->
<g id="node5" class="node">
<title>Node5</title>
<g id="a_node5"><a xlink:href="workarea_8h.html" target="_top" xlink:title=" ">
<polygon fill="none" stroke="black" points="438.27,-56.5 438.27,-75.5 509.27,-75.5 509.27,-56.5 438.27,-56.5"/>
<text text-anchor="middle" x="473.77" y="-63.5" font-family="Helvetica,sans-Serif" font-size="10.00">workarea.h</text>
</a>
</g>
</g>
<!-- Node1&#45;&gt;Node5 -->
<g id="edge4" class="edge">
<title>Node1&#45;&gt;Node5</title>
<path fill="none" stroke="midnightblue" d="M217.43,-225.43C271.72,-213.84 365.63,-187 425.77,-132 441.08,-118 454.72,-98.49 463.51,-84.5"/>
<polygon fill="midnightblue" stroke="midnightblue" points="466.57,-86.2 468.78,-75.83 460.59,-82.56 466.57,-86.2"/>
</g>
<!-- Node6 -->
<g id="node6" class="node">
<title>Node6</title>
<g id="a_node6"><a xlink:href="vdp_8h.html" target="_top" xlink:title=" ">
<polygon fill="none" stroke="black" points="186.77,-112.5 186.77,-131.5 230.77,-131.5 230.77,-112.5 186.77,-112.5"/>
<text text-anchor="middle" x="208.77" y="-119.5" font-family="Helvetica,sans-Serif" font-size="10.00">vdp.h</text>
</a>
</g>
</g>
<!-- Node1&#45;&gt;Node6 -->
<g id="edge6" class="edge">
<title>Node1&#45;&gt;Node6</title>
<path fill="none" stroke="midnightblue" d="M177.46,-224.38C180.29,-215.32 184.85,-200.66 188.77,-188 193.62,-172.31 199.11,-154.49 203.1,-141.48"/>
<polygon fill="midnightblue" stroke="midnightblue" points="206.47,-142.42 206.06,-131.83 199.78,-140.37 206.47,-142.42"/>
</g>
<!-- Node9 -->
<g id="node9" class="node">
<title>Node9</title>
<g id="a_node9"><a xlink:href="vmem_8h.html" target="_top" xlink:title=" ">
<polygon fill="none" stroke="black" points="30.27,-56.5 30.27,-75.5 87.27,-75.5 87.27,-56.5 30.27,-56.5"/>
<text text-anchor="middle" x="58.77" y="-63.5" font-family="Helvetica,sans-Serif" font-size="10.00">vmem.h</text>
</a>
</g>
</g>
<!-- Node1&#45;&gt;Node9 -->
<g id="edge16" class="edge">
<title>Node1&#45;&gt;Node9</title>
<path fill="none" stroke="midnightblue" d="M143.83,-224.46C105.1,-211.77 41.35,-183.69 20.77,-132 13.72,-114.3 27.02,-95.68 39.78,-82.93"/>
<polygon fill="midnightblue" stroke="midnightblue" points="42.51,-85.18 47.46,-75.81 37.75,-80.04 42.51,-85.18"/>
</g>
<!-- Node10 -->
<g id="node10" class="node">
<title>Node10</title>
<g id="a_node10"><a xlink:href="sprite_8h.html" target="_top" xlink:title=" ">
<polygon fill="none" stroke="black" points="30.27,-112.5 30.27,-131.5 83.27,-131.5 83.27,-112.5 30.27,-112.5"/>
<text text-anchor="middle" x="56.77" y="-119.5" font-family="Helvetica,sans-Serif" font-size="10.00">sprite.h</text>
</a>
</g>
</g>
<!-- Node1&#45;&gt;Node10 -->
<g id="edge17" class="edge">
<title>Node1&#45;&gt;Node10</title>
<path fill="none" stroke="midnightblue" d="M150.96,-224.45C132.95,-217.03 108.55,-204.83 91.77,-188 78.5,-174.69 68.95,-155.31 63.21,-141.17"/>
<polygon fill="midnightblue" stroke="midnightblue" points="66.39,-139.68 59.57,-131.57 59.85,-142.16 66.39,-139.68"/>
</g>
<!-- Node11 -->
<g id="node11" class="node">
<title>Node11</title>
<g id="a_node11"><a xlink:href="metasprite_8h.html" target="_top" xlink:title=" ">
<polygon fill="none" stroke="black" points="101.27,-168.5 101.27,-187.5 180.27,-187.5 180.27,-168.5 101.27,-168.5"/>
<text text-anchor="middle" x="140.77" y="-175.5" font-family="Helvetica,sans-Serif" font-size="10.00">metasprite.h</text>
</a>
</g>
</g>
<!-- Node1&#45;&gt;Node11 -->
<g id="edge20" class="edge">
<title>Node1&#45;&gt;Node11</title>
<path fill="none" stroke="midnightblue" d="M169.16,-224.08C164.4,-216.53 157.45,-205.49 151.62,-196.23"/>
<polygon fill="midnightblue" stroke="midnightblue" points="154.57,-194.35 146.28,-187.75 148.65,-198.08 154.57,-194.35"/>
</g>
<!-- Node12 -->
<g id="node12" class="node">
<title>Node12</title>
<g id="a_node12"><a xlink:href="input_8h.html" target="_top" xlink:title=" ">
<polygon fill="none" stroke="black" points="366.77,-112.5 366.77,-131.5 416.77,-131.5 416.77,-112.5 366.77,-112.5"/>
<text text-anchor="middle" x="391.77" y="-119.5" font-family="Helvetica,sans-Serif" font-size="10.00">input.h</text>
</a>
</g>
</g>
<!-- Node1&#45;&gt;Node12 -->
<g id="edge25" class="edge">
<title>Node1&#45;&gt;Node12</title>
<path fill="none" stroke="midnightblue" d="M208.26,-224.49C235.23,-216.93 273.65,-204.5 304.77,-188 330.87,-174.16 357.61,-152.91 374.43,-138.51"/>
<polygon fill="midnightblue" stroke="midnightblue" points="377.03,-140.89 382.27,-131.68 372.43,-135.61 377.03,-140.89"/>
</g>
<!-- Node4 -->
<g id="node4" class="node">
<title>Node4</title>
<g id="a_node4"><a xlink:title=" ">
<polygon fill="none" stroke="#bfbfbf" points="165.27,-0.5 165.27,-19.5 218.27,-19.5 218.27,-0.5 165.27,-0.5"/>
<text text-anchor="middle" x="191.77" y="-7.5" font-family="Helvetica,sans-Serif" font-size="10.00">stdint.h</text>
</a>
</g>
</g>
<!-- Node3&#45;&gt;Node4 -->
<g id="edge3" class="edge">
<title>Node3&#45;&gt;Node4</title>
<path fill="none" stroke="midnightblue" d="M302.01,-56.44C280.45,-47.56 246.51,-33.56 221.98,-23.45"/>
<polygon fill="midnightblue" stroke="midnightblue" points="223.01,-20.09 212.43,-19.52 220.34,-26.56 223.01,-20.09"/>
</g>
<!-- Node5&#45;&gt;Node4 -->
<g id="edge5" class="edge">
<title>Node5&#45;&gt;Node4</title>
<path fill="none" stroke="midnightblue" d="M437.92,-57.8C434.82,-57.18 431.74,-56.58 428.77,-56 357.88,-42.18 274.95,-26.56 228.37,-17.83"/>
<polygon fill="midnightblue" stroke="midnightblue" points="228.92,-14.38 218.44,-15.98 227.63,-21.26 228.92,-14.38"/>
</g>
<!-- Node6&#45;&gt;Node2 -->
<g id="edge10" class="edge">
<title>Node6&#45;&gt;Node2</title>
<path fill="none" stroke="midnightblue" d="M197,-112.37C171.37,-93.57 110.27,-48.77 78.59,-25.53"/>
<polygon fill="midnightblue" stroke="midnightblue" points="80.62,-22.68 70.49,-19.59 76.48,-28.33 80.62,-22.68"/>
</g>
<!-- Node6&#45;&gt;Node3 -->
<g id="edge14" class="edge">
<title>Node6&#45;&gt;Node3</title>
<path fill="none" stroke="midnightblue" d="M226.83,-112.44C245.35,-103.68 274.35,-89.94 295.63,-79.86"/>
<polygon fill="midnightblue" stroke="midnightblue" points="297.25,-82.96 304.79,-75.52 294.26,-76.63 297.25,-82.96"/>
</g>
<!-- Node6&#45;&gt;Node4 -->
<g id="edge9" class="edge">
<title>Node6&#45;&gt;Node4</title>
<path fill="none" stroke="midnightblue" d="M207.44,-112.37C204.69,-94.62 198.37,-53.67 194.65,-29.6"/>
<polygon fill="midnightblue" stroke="midnightblue" points="198.09,-28.94 193.1,-19.59 191.17,-30.01 198.09,-28.94"/>
</g>
<!-- Node6&#45;&gt;Node5 -->
<g id="edge15" class="edge">
<title>Node6&#45;&gt;Node5</title>
<path fill="none" stroke="midnightblue" d="M230.91,-116.49C274.21,-107.67 370.89,-87.96 428.36,-76.25"/>
<polygon fill="midnightblue" stroke="midnightblue" points="429.16,-79.66 438.26,-74.24 427.76,-72.8 429.16,-79.66"/>
</g>
<!-- Node7 -->
<g id="node7" class="node">
<title>Node7</title>
<g id="a_node7"><a xlink:title=" ">
<polygon fill="none" stroke="#bfbfbf" points="363.77,-56.5 363.77,-75.5 419.77,-75.5 419.77,-56.5 363.77,-56.5"/>
<text text-anchor="middle" x="391.77" y="-63.5" font-family="Helvetica,sans-Serif" font-size="10.00">assert.h</text>
</a>
</g>
</g>
<!-- Node6&#45;&gt;Node7 -->
<g id="edge7" class="edge">
<title>Node6&#45;&gt;Node7</title>
<path fill="none" stroke="midnightblue" d="M230.85,-114.49C261.26,-105.51 316.5,-89.21 353.66,-78.25"/>
<polygon fill="midnightblue" stroke="midnightblue" points="355.03,-81.49 363.63,-75.3 353.05,-74.78 355.03,-81.49"/>
</g>
<!-- Node8 -->
<g id="node8" class="node">
<title>Node8</title>
<g id="a_node8"><a xlink:title=" ">
<polygon fill="none" stroke="#bfbfbf" points="219.77,-56.5 219.77,-75.5 281.77,-75.5 281.77,-56.5 219.77,-56.5"/>
<text text-anchor="middle" x="250.77" y="-63.5" font-family="Helvetica,sans-Serif" font-size="10.00">stdbool.h</text>
</a>
</g>
</g>
<!-- Node6&#45;&gt;Node8 -->
<g id="edge8" class="edge">
<title>Node6&#45;&gt;Node8</title>
<path fill="none" stroke="midnightblue" d="M215.71,-112.08C221.7,-104.38 230.52,-93.03 237.82,-83.65"/>
<polygon fill="midnightblue" stroke="midnightblue" points="240.59,-85.79 243.96,-75.75 235.06,-81.5 240.59,-85.79"/>
</g>
<!-- Node6&#45;&gt;Node9 -->
<g id="edge11" class="edge">
<title>Node6&#45;&gt;Node9</title>
<path fill="none" stroke="midnightblue" d="M186.64,-113.03C161.71,-104.06 120.92,-89.37 92.12,-79.01"/>
<polygon fill="midnightblue" stroke="midnightblue" points="93.08,-75.63 82.48,-75.54 90.71,-82.22 93.08,-75.63"/>
</g>
<!-- Node9&#45;&gt;Node2 -->
<g id="edge13" class="edge">
<title>Node9&#45;&gt;Node2</title>
<path fill="none" stroke="midnightblue" d="M58.77,-56.08C58.77,-49.01 58.77,-38.86 58.77,-29.99"/>
<polygon fill="midnightblue" stroke="midnightblue" points="62.27,-29.75 58.77,-19.75 55.27,-29.75 62.27,-29.75"/>
</g>
<!-- Node9&#45;&gt;Node4 -->
<g id="edge12" class="edge">
<title>Node9&#45;&gt;Node4</title>
<path fill="none" stroke="midnightblue" d="M79.85,-56.44C101.83,-47.52 136.51,-33.44 161.44,-23.32"/>
<polygon fill="midnightblue" stroke="midnightblue" points="162.85,-26.52 170.8,-19.52 160.21,-20.04 162.85,-26.52"/>
</g>
<!-- Node10&#45;&gt;Node4 -->
<g id="edge18" class="edge">
<title>Node10&#45;&gt;Node4</title>
<path fill="none" stroke="midnightblue" d="M45.64,-112.29C30.41,-99.33 6.52,-74.49 20.77,-56 37.03,-34.91 109.78,-21.74 155,-15.44"/>
<polygon fill="midnightblue" stroke="midnightblue" points="155.57,-18.89 165.02,-14.09 154.64,-11.95 155.57,-18.89"/>
</g>
<!-- Node10&#45;&gt;Node9 -->
<g id="edge19" class="edge">
<title>Node10&#45;&gt;Node9</title>
<path fill="none" stroke="midnightblue" d="M57.1,-112.08C57.36,-105.01 57.74,-94.86 58.07,-85.99"/>
<polygon fill="midnightblue" stroke="midnightblue" points="61.57,-85.87 58.45,-75.75 54.58,-85.61 61.57,-85.87"/>
</g>
<!-- Node11&#45;&gt;Node4 -->
<g id="edge21" class="edge">
<title>Node11&#45;&gt;Node4</title>
<path fill="none" stroke="midnightblue" d="M143.51,-168.08C151.54,-141.95 175.12,-65.21 186.06,-29.58"/>
<polygon fill="midnightblue" stroke="midnightblue" points="189.55,-30.16 189.14,-19.57 182.86,-28.1 189.55,-30.16"/>
</g>
<!-- Node11&#45;&gt;Node6 -->
<g id="edge22" class="edge">
<title>Node11&#45;&gt;Node6</title>
<path fill="none" stroke="midnightblue" d="M151.7,-168.32C161.95,-160.18 177.49,-147.84 189.77,-138.09"/>
<polygon fill="midnightblue" stroke="midnightblue" points="191.99,-140.79 197.65,-131.83 187.64,-135.31 191.99,-140.79"/>
</g>
<!-- Node11&#45;&gt;Node9 -->
<g id="edge23" class="edge">
<title>Node11&#45;&gt;Node9</title>
<path fill="none" stroke="midnightblue" d="M134.34,-168.37C120.74,-150.14 88.91,-107.43 71.2,-83.68"/>
<polygon fill="midnightblue" stroke="midnightblue" points="73.96,-81.52 65.18,-75.59 68.35,-85.7 73.96,-81.52"/>
</g>
<!-- Node11&#45;&gt;Node10 -->
<g id="edge24" class="edge">
<title>Node11&#45;&gt;Node10</title>
<path fill="none" stroke="midnightblue" d="M127.28,-168.32C114.17,-159.9 94.06,-146.97 78.66,-137.07"/>
<polygon fill="midnightblue" stroke="midnightblue" points="80.54,-134.12 70.23,-131.65 76.75,-140.01 80.54,-134.12"/>
</g>
<!-- Node12&#45;&gt;Node4 -->
<g id="edge27" class="edge">
<title>Node12&#45;&gt;Node4</title>
<path fill="none" stroke="midnightblue" d="M417.12,-117.62C462.51,-110.58 550.1,-91.94 518.77,-56 481.46,-13.2 305.95,-9.7 228.57,-10.3"/>
<polygon fill="midnightblue" stroke="midnightblue" points="228.29,-6.8 218.33,-10.41 228.36,-13.8 228.29,-6.8"/>
</g>
<!-- Node12&#45;&gt;Node7 -->
<g id="edge26" class="edge">
<title>Node12&#45;&gt;Node7</title>
<path fill="none" stroke="midnightblue" d="M391.77,-112.08C391.77,-105.01 391.77,-94.86 391.77,-85.99"/>
<polygon fill="midnightblue" stroke="midnightblue" points="395.27,-85.75 391.77,-75.75 388.27,-85.75 395.27,-85.75"/>
</g>
</g>
</svg>
