<?xml version="1.0" encoding="UTF-8" standalone="no"?>
<!DOCTYPE svg PUBLIC "-//W3C//DTD SVG 1.1//EN"
 "http://www.w3.org/Graphics/SVG/1.1/DTD/svg11.dtd">
<!-- Generated by graphviz version 7.0.5 (20221223.1930)
 -->
<!-- Title: include/msx.h Pages: 1 -->
<svg width="1072pt" height="412pt"
 viewBox="0.00 0.00 1072.00 412.00" xmlns="http://www.w3.org/2000/svg" xmlns:xlink="http://www.w3.org/1999/xlink">
<g id="graph0" class="graph" transform="scale(1 1) rotate(0) translate(4 408)">
<title>include/msx.h</title>
<!-- Node1 -->
<g id="node1" class="node">
<title>Node1</title>
<g id="a_node1"><a xlink:title="Using #include &lt;msx.h&gt; includes almost all C header files in libmsx, for ease to use.">
<polygon fill="#999999" stroke="#666666" points="703,-404 627,-404 627,-385 703,-385 703,-404"/>
<text text-anchor="middle" x="665" y="-392" font-family="Helvetica,sans-Serif" font-size="10.00">include/msx.h</text>
</a>
</g>
</g>
<!-- Node2 -->
<g id="node2" class="node">
<title>Node2</title>
<g id="a_node2"><a xlink:href="config_8h.html" target="_top" xlink:title="Hack for C Compiler portability.">
<polygon fill="white" stroke="#666666" points="609,-74 559,-74 559,-55 609,-55 609,-74"/>
<text text-anchor="middle" x="584" y="-62" font-family="Helvetica,sans-Serif" font-size="10.00">config.h</text>
</a>
</g>
</g>
<!-- Node1&#45;&gt;Node2 -->
<g id="edge1" class="edge">
<title>Node1&#45;&gt;Node2</title>
<path fill="none" stroke="#63b8ff" d="M673.66,-384.53C689.6,-367.02 722,-326.42 722,-285.5 722,-285.5 722,-285.5 722,-228.5 722,-166.41 695.63,-149.83 648,-110 635.35,-99.42 620.24,-88.83 607.88,-80.63"/>
<polygon fill="#63b8ff" stroke="#63b8ff" points="609.81,-77.72 599.52,-75.19 605.99,-83.58 609.81,-77.72"/>
</g>
<!-- Node4 -->
<g id="node4" class="node">
<title>Node4</title>
<g id="a_node4"><a xlink:href="interrupt_8h.html" target="_top" xlink:title="Interrupts relevant functions and Pluggable interrupts handler interface.">
<polygon fill="white" stroke="#666666" points="847.5,-294 788.5,-294 788.5,-275 847.5,-275 847.5,-294"/>
<text text-anchor="middle" x="818" y="-282" font-family="Helvetica,sans-Serif" font-size="10.00">interrupt.h</text>
</a>
</g>
</g>
<!-- Node1&#45;&gt;Node4 -->
<g id="edge3" class="edge">
<title>Node1&#45;&gt;Node4</title>
<path fill="none" stroke="#63b8ff" d="M700.86,-384.57C723.56,-377.62 752.56,-366.21 774,-349 789.19,-336.81 801.3,-318.02 808.94,-304.04"/>
<polygon fill="#63b8ff" stroke="#63b8ff" points="811.91,-305.91 813.39,-295.42 805.69,-302.7 811.91,-305.91"/>
</g>
<!-- Node6 -->
<g id="node6" class="node">
<title>Node6</title>
<g id="a_node6"><a xlink:href="io_8h.html" target="_top" xlink:title="Definition of I/O ports.">
<polygon fill="white" stroke="#666666" points="619,-129 587,-129 587,-110 619,-110 619,-129"/>
<text text-anchor="middle" x="603" y="-117" font-family="Helvetica,sans-Serif" font-size="10.00">io.h</text>
</a>
</g>
</g>
<!-- Node1&#45;&gt;Node6 -->
<g id="edge6" class="edge">
<title>Node1&#45;&gt;Node6</title>
<path fill="none" stroke="#63b8ff" d="M663.01,-384.73C654.35,-346.62 619.92,-194.98 607.5,-140.29"/>
<polygon fill="#63b8ff" stroke="#63b8ff" points="610.98,-139.83 605.35,-130.85 604.15,-141.38 610.98,-139.83"/>
</g>
<!-- Node7 -->
<g id="node7" class="node">
<title>Node7</title>
<g id="a_node7"><a xlink:href="bios_8h.html" target="_top" xlink:title="C language I/F for MSX BIOS routines.">
<polygon fill="white" stroke="#666666" points="466,-184 424,-184 424,-165 466,-165 466,-184"/>
<text text-anchor="middle" x="445" y="-172" font-family="Helvetica,sans-Serif" font-size="10.00">bios.h</text>
</a>
</g>
</g>
<!-- Node1&#45;&gt;Node7 -->
<g id="edge8" class="edge">
<title>Node1&#45;&gt;Node7</title>
<path fill="none" stroke="#63b8ff" d="M656.26,-384.83C630.7,-359.47 553.84,-283.21 490,-220 480.73,-210.82 470.38,-200.58 461.94,-192.24"/>
<polygon fill="#63b8ff" stroke="#63b8ff" points="464.62,-189.97 455.04,-185.43 459.7,-194.94 464.62,-189.97"/>
</g>
<!-- Node10 -->
<g id="node10" class="node">
<title>Node10</title>
<g id="a_node10"><a xlink:href="workarea_8h.html" target="_top" xlink:title="Definitions of MSX SYSTEM Workarea.">
<polygon fill="white" stroke="#666666" points="694,-184 630,-184 630,-165 694,-165 694,-184"/>
<text text-anchor="middle" x="662" y="-172" font-family="Helvetica,sans-Serif" font-size="10.00">workarea.h</text>
</a>
</g>
</g>
<!-- Node1&#45;&gt;Node10 -->
<g id="edge16" class="edge">
<title>Node1&#45;&gt;Node10</title>
<path fill="none" stroke="#63b8ff" d="M664.88,-384.68C664.44,-352.57 662.91,-241.33 662.28,-195.49"/>
<polygon fill="#63b8ff" stroke="#63b8ff" points="665.78,-195.65 662.14,-185.7 658.78,-195.75 665.78,-195.65"/>
</g>
<!-- Node11 -->
<g id="node11" class="node">
<title>Node11</title>
<g id="a_node11"><a xlink:href="vdp_8h.html" target="_top" xlink:title="Data types and functions for VDP (Video Display Proccessor) access.">
<polygon fill="white" stroke="#666666" points="482,-294 442,-294 442,-275 482,-275 482,-294"/>
<text text-anchor="middle" x="462" y="-282" font-family="Helvetica,sans-Serif" font-size="10.00">vdp.h</text>
</a>
</g>
</g>
<!-- Node1&#45;&gt;Node11 -->
<g id="edge20" class="edge">
<title>Node1&#45;&gt;Node11</title>
<path fill="none" stroke="#63b8ff" d="M638.77,-384.53C616.25,-376.42 583.22,-363.55 556,-349 529.35,-334.76 500.88,-314.78 482.35,-301.05"/>
<polygon fill="#63b8ff" stroke="#63b8ff" points="484.69,-298.44 474.59,-295.24 480.49,-304.04 484.69,-298.44"/>
</g>
<!-- Node13 -->
<g id="node13" class="node">
<title>Node13</title>
<g id="a_node13"><a xlink:href="vmem_8h.html" target="_top" xlink:title="Data types and functions for VRAM access.">
<polygon fill="white" stroke="#666666" points="189.5,-184 138.5,-184 138.5,-165 189.5,-165 189.5,-184"/>
<text text-anchor="middle" x="164" y="-172" font-family="Helvetica,sans-Serif" font-size="10.00">vmem.h</text>
</a>
</g>
</g>
<!-- Node1&#45;&gt;Node13 -->
<g id="edge36" class="edge">
<title>Node1&#45;&gt;Node13</title>
<path fill="none" stroke="#63b8ff" d="M626.55,-392.4C520.82,-389.02 231.52,-377.25 200,-349 156.15,-309.69 157.75,-232.16 161.35,-195.54"/>
<polygon fill="#63b8ff" stroke="#63b8ff" points="164.79,-196.27 162.46,-185.93 157.83,-195.47 164.79,-196.27"/>
</g>
<!-- Node16 -->
<g id="node16" class="node">
<title>Node16</title>
<g id="a_node16"><a xlink:href="sprite_8h.html" target="_top" xlink:title="Sprites.">
<polygon fill="white" stroke="#666666" points="76,-239 28,-239 28,-220 76,-220 76,-239"/>
<text text-anchor="middle" x="52" y="-227" font-family="Helvetica,sans-Serif" font-size="10.00">sprite.h</text>
</a>
</g>
</g>
<!-- Node1&#45;&gt;Node16 -->
<g id="edge37" class="edge">
<title>Node1&#45;&gt;Node16</title>
<path fill="none" stroke="#63b8ff" d="M626.68,-393.38C514.49,-392.58 188.44,-386.97 90,-349 52.76,-334.63 36.57,-329.84 19,-294 11.18,-278.05 22.39,-260.1 33.82,-247.37"/>
<polygon fill="#63b8ff" stroke="#63b8ff" points="35.98,-250.16 40.47,-240.56 30.98,-245.27 35.98,-250.16"/>
</g>
<!-- Node17 -->
<g id="node17" class="node">
<title>Node17</title>
<g id="a_node17"><a xlink:href="sprite__color_8h.html" target="_top" xlink:title="Sprite color table interface.">
<polygon fill="white" stroke="#666666" points="102,-294 28,-294 28,-275 102,-275 102,-294"/>
<text text-anchor="middle" x="65" y="-282" font-family="Helvetica,sans-Serif" font-size="10.00">sprite_color.h</text>
</a>
</g>
</g>
<!-- Node1&#45;&gt;Node17 -->
<g id="edge40" class="edge">
<title>Node1&#45;&gt;Node17</title>
<path fill="none" stroke="#63b8ff" d="M626.72,-392.14C509.53,-387.75 160.88,-372.8 116,-349 97.3,-339.09 83.04,-319.06 74.41,-304.13"/>
<polygon fill="#63b8ff" stroke="#63b8ff" points="77.69,-302.85 69.86,-295.72 71.54,-306.18 77.69,-302.85"/>
</g>
<!-- Node18 -->
<g id="node18" class="node">
<title>Node18</title>
<g id="a_node18"><a xlink:href="metasprite_8h.html" target="_top" xlink:title="Meta&#45;sprite ; an aggregate of sprites.">
<polygon fill="white" stroke="#666666" points="279,-349 209,-349 209,-330 279,-330 279,-349"/>
<text text-anchor="middle" x="244" y="-337" font-family="Helvetica,sans-Serif" font-size="10.00">metasprite.h</text>
</a>
</g>
</g>
<!-- Node1&#45;&gt;Node18 -->
<g id="edge44" class="edge">
<title>Node1&#45;&gt;Node18</title>
<path fill="none" stroke="#63b8ff" d="M626.52,-388.66C548.98,-378.89 374.18,-356.89 290.44,-346.35"/>
<polygon fill="#63b8ff" stroke="#63b8ff" points="291.11,-342.9 280.75,-345.13 290.24,-349.85 291.11,-342.9"/>
</g>
<!-- Node19 -->
<g id="node19" class="node">
<title>Node19</title>
<g id="a_node19"><a xlink:href="input_8h.html" target="_top" xlink:title="Input devices such as Joypad, for example.">
<polygon fill="white" stroke="#666666" points="905.5,-74 860.5,-74 860.5,-55 905.5,-55 905.5,-74"/>
<text text-anchor="middle" x="883" y="-62" font-family="Helvetica,sans-Serif" font-size="10.00">input.h</text>
</a>
</g>
</g>
<!-- Node1&#45;&gt;Node19 -->
<g id="edge49" class="edge">
<title>Node1&#45;&gt;Node19</title>
<path fill="none" stroke="#63b8ff" d="M703.25,-385.2C730.64,-378.19 767.71,-366.47 797,-349 827.79,-330.64 833.08,-321.57 856,-294 874.52,-271.72 882.9,-266.82 891,-239 906.63,-185.33 895.43,-118.4 888.06,-85.57"/>
<polygon fill="#63b8ff" stroke="#63b8ff" points="891.47,-84.79 885.75,-75.88 884.66,-86.41 891.47,-84.79"/>
</g>
<!-- Node20 -->
<g id="node20" class="node">
<title>Node20</title>
<g id="a_node20"><a xlink:href="psg_8h.html" target="_top" xlink:title="Device interface for PSG (AY&#45;3&#45;8910) an internal sound chip.">
<polygon fill="white" stroke="#666666" points="790,-184 750,-184 750,-165 790,-165 790,-184"/>
<text text-anchor="middle" x="770" y="-172" font-family="Helvetica,sans-Serif" font-size="10.00">psg.h</text>
</a>
</g>
</g>
<!-- Node1&#45;&gt;Node20 -->
<g id="edge51" class="edge">
<title>Node1&#45;&gt;Node20</title>
<path fill="none" stroke="#63b8ff" d="M688.76,-384.55C704.6,-377.35 724.55,-365.66 736,-349 768.69,-301.45 771.7,-230.18 771,-195.66"/>
<polygon fill="#63b8ff" stroke="#63b8ff" points="774.5,-195.75 770.65,-185.87 767.51,-195.99 774.5,-195.75"/>
</g>
<!-- Node21 -->
<g id="node21" class="node">
<title>Node21</title>
<g id="a_node21"><a xlink:href="sound_8h.html" target="_top" xlink:title="A PSG sound driver.">
<polygon fill="white" stroke="#666666" points="980,-294 930,-294 930,-275 980,-275 980,-294"/>
<text text-anchor="middle" x="955" y="-282" font-family="Helvetica,sans-Serif" font-size="10.00">sound.h</text>
</a>
</g>
</g>
<!-- Node1&#45;&gt;Node21 -->
<g id="edge54" class="edge">
<title>Node1&#45;&gt;Node21</title>
<path fill="none" stroke="#63b8ff" d="M703.41,-390.53C764.89,-385.16 881.98,-372.16 916,-349 931.7,-338.31 942.21,-319.01 948.33,-304.48"/>
<polygon fill="#63b8ff" stroke="#63b8ff" points="951.45,-306.11 951.77,-295.52 944.92,-303.61 951.45,-306.11"/>
</g>
<!-- Node23 -->
<g id="node23" class="node">
<title>Node23</title>
<g id="a_node23"><a xlink:href="sound__eg_8h.html" target="_top" xlink:title="Software envelope genenator interface for sound.h.">
<polygon fill="white" stroke="#666666" points="1064,-294 998,-294 998,-275 1064,-275 1064,-294"/>
<text text-anchor="middle" x="1031" y="-282" font-family="Helvetica,sans-Serif" font-size="10.00">sound_eg.h</text>
</a>
</g>
</g>
<!-- Node1&#45;&gt;Node23 -->
<g id="edge58" class="edge">
<title>Node1&#45;&gt;Node23</title>
<path fill="none" stroke="#63b8ff" d="M703.35,-392.64C757.85,-390.26 859.98,-381.41 940,-349 968.02,-337.65 995.89,-316.35 1013.25,-301.57"/>
<polygon fill="#63b8ff" stroke="#63b8ff" points="1015.4,-304.34 1020.62,-295.13 1010.79,-299.08 1015.4,-304.34"/>
</g>
<!-- Node3 -->
<g id="node3" class="node">
<title>Node3</title>
<g id="a_node3"><a xlink:title=" ">
<polygon fill="#e0e0e0" stroke="#999999" points="524,-19 476,-19 476,0 524,0 524,-19"/>
<text text-anchor="middle" x="500" y="-7" font-family="Helvetica,sans-Serif" font-size="10.00">stdint.h</text>
</a>
</g>
</g>
<!-- Node2&#45;&gt;Node3 -->
<g id="edge2" class="edge">
<title>Node2&#45;&gt;Node3</title>
<path fill="none" stroke="#63b8ff" d="M569.75,-54.51C557.12,-46.54 538.44,-34.75 523.59,-25.38"/>
<polygon fill="#63b8ff" stroke="#63b8ff" points="525.64,-22.54 515.32,-20.17 521.91,-28.46 525.64,-22.54"/>
</g>
<!-- Node4&#45;&gt;Node3 -->
<g id="edge5" class="edge">
<title>Node4&#45;&gt;Node3</title>
<path fill="none" stroke="#63b8ff" d="M817.97,-274.8C817.62,-254.67 815.07,-203.67 799,-165 787.4,-137.09 779.9,-131.84 759,-110 731.89,-81.66 725.29,-72.11 690,-55 639.58,-30.55 575.01,-19.12 535.61,-14.09"/>
<polygon fill="#63b8ff" stroke="#63b8ff" points="536.08,-10.62 525.74,-12.91 535.25,-17.57 536.08,-10.62"/>
</g>
<!-- Node5 -->
<g id="node5" class="node">
<title>Node5</title>
<g id="a_node5"><a xlink:title=" ">
<polygon fill="#e0e0e0" stroke="#999999" points="882,-239 826,-239 826,-220 882,-220 882,-239"/>
<text text-anchor="middle" x="854" y="-227" font-family="Helvetica,sans-Serif" font-size="10.00">stdbool.h</text>
</a>
</g>
</g>
<!-- Node4&#45;&gt;Node5 -->
<g id="edge4" class="edge">
<title>Node4&#45;&gt;Node5</title>
<path fill="none" stroke="#63b8ff" d="M823.94,-274.75C828.71,-267.73 835.56,-257.64 841.52,-248.87"/>
<polygon fill="#63b8ff" stroke="#63b8ff" points="844.35,-250.93 847.08,-240.69 838.56,-247 844.35,-250.93"/>
</g>
<!-- Node6&#45;&gt;Node2 -->
<g id="edge7" class="edge">
<title>Node6&#45;&gt;Node2</title>
<path fill="none" stroke="#63b8ff" d="M599.86,-109.75C597.46,-103.04 594.04,-93.52 591,-85.02"/>
<polygon fill="#63b8ff" stroke="#63b8ff" points="594.39,-84.1 587.72,-75.87 587.8,-86.46 594.39,-84.1"/>
</g>
<!-- Node7&#45;&gt;Node3 -->
<g id="edge9" class="edge">
<title>Node7&#45;&gt;Node3</title>
<path fill="none" stroke="#63b8ff" d="M431.62,-164.52C415.97,-152.82 393.27,-131.31 402,-110 416.96,-73.49 452.51,-43.18 476.42,-25.95"/>
<polygon fill="#63b8ff" stroke="#63b8ff" points="478.41,-28.84 484.62,-20.25 474.41,-23.09 478.41,-28.84"/>
</g>
<!-- Node8 -->
<g id="node8" class="node">
<title>Node8</title>
<g id="a_node8"><a xlink:href="bios__const_8h.html" target="_top" xlink:title="Constant variables in the MSX BIOS ROM.">
<polygon fill="white" stroke="#666666" points="568.5,-129 497.5,-129 497.5,-110 568.5,-110 568.5,-129"/>
<text text-anchor="middle" x="533" y="-117" font-family="Helvetica,sans-Serif" font-size="10.00">bios_const.h</text>
</a>
</g>
</g>
<!-- Node7&#45;&gt;Node8 -->
<g id="edge10" class="edge">
<title>Node7&#45;&gt;Node8</title>
<path fill="none" stroke="#63b8ff" d="M459.93,-164.51C473.28,-156.47 493.11,-144.53 508.74,-135.11"/>
<polygon fill="#63b8ff" stroke="#63b8ff" points="510.24,-138.3 517,-130.14 506.62,-132.3 510.24,-138.3"/>
</g>
<!-- Node9 -->
<g id="node9" class="node">
<title>Node9</title>
<g id="a_node9"><a xlink:href="bios__entry_8h.html" target="_top" xlink:title="Assembler entry points for MSX BIOS functions.">
<polygon fill="white" stroke="#666666" points="479,-129 411,-129 411,-110 479,-110 479,-129"/>
<text text-anchor="middle" x="445" y="-117" font-family="Helvetica,sans-Serif" font-size="10.00">bios_entry.h</text>
</a>
</g>
</g>
<!-- Node7&#45;&gt;Node9 -->
<g id="edge13" class="edge">
<title>Node7&#45;&gt;Node9</title>
<path fill="none" stroke="#63b8ff" d="M445,-164.75C445,-158.27 445,-149.16 445,-140.9"/>
<polygon fill="#63b8ff" stroke="#63b8ff" points="448.5,-140.96 445,-130.96 441.5,-140.96 448.5,-140.96"/>
</g>
<!-- Node8&#45;&gt;Node2 -->
<g id="edge12" class="edge">
<title>Node8&#45;&gt;Node2</title>
<path fill="none" stroke="#63b8ff" d="M541.42,-109.75C548.47,-102.43 558.73,-91.76 567.41,-82.74"/>
<polygon fill="#63b8ff" stroke="#63b8ff" points="569.93,-85.17 574.35,-75.53 564.89,-80.31 569.93,-85.17"/>
</g>
<!-- Node8&#45;&gt;Node3 -->
<g id="edge11" class="edge">
<title>Node8&#45;&gt;Node3</title>
<path fill="none" stroke="#63b8ff" d="M530.3,-109.66C525.03,-92.42 513.26,-53.9 506.04,-30.27"/>
<polygon fill="#63b8ff" stroke="#63b8ff" points="509.45,-29.45 503.18,-20.91 502.76,-31.49 509.45,-29.45"/>
</g>
<!-- Node9&#45;&gt;Node2 -->
<g id="edge15" class="edge">
<title>Node9&#45;&gt;Node2</title>
<path fill="none" stroke="#63b8ff" d="M468.58,-109.51C490.98,-100.97 524.9,-88.03 550.18,-78.4"/>
<polygon fill="#63b8ff" stroke="#63b8ff" points="551.26,-81.73 559.35,-74.9 548.76,-75.19 551.26,-81.73"/>
</g>
<!-- Node9&#45;&gt;Node3 -->
<g id="edge14" class="edge">
<title>Node9&#45;&gt;Node3</title>
<path fill="none" stroke="#63b8ff" d="M449.5,-109.66C458.36,-92.26 478.26,-53.19 490.26,-29.62"/>
<polygon fill="#63b8ff" stroke="#63b8ff" points="493.33,-31.31 494.75,-20.81 487.09,-28.13 493.33,-31.31"/>
</g>
<!-- Node10&#45;&gt;Node2 -->
<g id="edge18" class="edge">
<title>Node10&#45;&gt;Node2</title>
<path fill="none" stroke="#63b8ff" d="M658.32,-164.82C652.74,-152.15 641.36,-128.11 628,-110 620.61,-99.98 611.02,-90.02 602.68,-82.07"/>
<polygon fill="#63b8ff" stroke="#63b8ff" points="605.12,-79.56 595.4,-75.35 600.38,-84.7 605.12,-79.56"/>
</g>
<!-- Node10&#45;&gt;Node3 -->
<g id="edge17" class="edge">
<title>Node10&#45;&gt;Node3</title>
<path fill="none" stroke="#63b8ff" d="M661.5,-164.78C659.74,-142.75 651.94,-84.53 618,-55 594.51,-34.56 560.7,-23.1 535.29,-16.95"/>
<polygon fill="#63b8ff" stroke="#63b8ff" points="536.27,-13.58 525.75,-14.81 534.74,-20.41 536.27,-13.58"/>
</g>
<!-- Node10&#45;&gt;Node8 -->
<g id="edge19" class="edge">
<title>Node10&#45;&gt;Node8</title>
<path fill="none" stroke="#63b8ff" d="M640.12,-164.51C619.51,-156.04 588.41,-143.27 565.02,-133.66"/>
<polygon fill="#63b8ff" stroke="#63b8ff" points="566.54,-130.5 555.96,-129.93 563.88,-136.97 566.54,-130.5"/>
</g>
<!-- Node11&#45;&gt;Node3 -->
<g id="edge23" class="edge">
<title>Node11&#45;&gt;Node3</title>
<path fill="none" stroke="#63b8ff" d="M441.65,-278.37C422.7,-272.39 395.55,-260.47 383,-239 375.59,-226.32 361.64,-313.35 392,-110 395.69,-85.25 388.35,-74.52 404,-55 419.12,-36.13 444.07,-24.9 464.75,-18.45"/>
<polygon fill="#63b8ff" stroke="#63b8ff" points="465.59,-21.85 474.25,-15.74 463.67,-15.11 465.59,-21.85"/>
</g>
<!-- Node11&#45;&gt;Node5 -->
<g id="edge22" class="edge">
<title>Node11&#45;&gt;Node5</title>
<path fill="none" stroke="#63b8ff" d="M482.25,-280.76C544.19,-272.39 731.88,-247.01 814.38,-235.86"/>
<polygon fill="#63b8ff" stroke="#63b8ff" points="814.82,-239.33 824.26,-234.52 813.88,-232.39 814.82,-239.33"/>
</g>
<!-- Node11&#45;&gt;Node6 -->
<g id="edge24" class="edge">
<title>Node11&#45;&gt;Node6</title>
<path fill="none" stroke="#63b8ff" d="M469.58,-274.74C491.96,-248.87 558.04,-172.48 587.96,-137.88"/>
<polygon fill="#63b8ff" stroke="#63b8ff" points="590.5,-140.3 594.39,-130.45 585.2,-135.72 590.5,-140.3"/>
</g>
<!-- Node11&#45;&gt;Node7 -->
<g id="edge34" class="edge">
<title>Node11&#45;&gt;Node7</title>
<path fill="none" stroke="#63b8ff" d="M466.52,-274.74C472.28,-262.37 480.85,-239.16 475,-220 472.01,-210.23 466.08,-200.66 460.27,-192.91"/>
<polygon fill="#63b8ff" stroke="#63b8ff" points="463.18,-190.95 454.16,-185.38 457.74,-195.35 463.18,-190.95"/>
</g>
<!-- Node11&#45;&gt;Node10 -->
<g id="edge35" class="edge">
<title>Node11&#45;&gt;Node10</title>
<path fill="none" stroke="#63b8ff" d="M479.09,-274.53C496.09,-265.6 522.9,-251.44 546,-239 577.03,-222.29 612.55,-202.79 636.02,-189.85"/>
<polygon fill="#63b8ff" stroke="#63b8ff" points="637.51,-193.03 644.57,-185.14 634.13,-186.9 637.51,-193.03"/>
</g>
<!-- Node12 -->
<g id="node12" class="node">
<title>Node12</title>
<g id="a_node12"><a xlink:title=" ">
<polygon fill="#e0e0e0" stroke="#999999" points="335.5,-239 284.5,-239 284.5,-220 335.5,-220 335.5,-239"/>
<text text-anchor="middle" x="310" y="-227" font-family="Helvetica,sans-Serif" font-size="10.00">assert.h</text>
</a>
</g>
</g>
<!-- Node11&#45;&gt;Node12 -->
<g id="edge21" class="edge">
<title>Node11&#45;&gt;Node12</title>
<path fill="none" stroke="#63b8ff" d="M441.5,-276.35C417.21,-267.88 376.3,-253.62 346.55,-243.24"/>
<polygon fill="#63b8ff" stroke="#63b8ff" points="347.77,-239.96 337.18,-239.98 345.47,-246.57 347.77,-239.96"/>
</g>
<!-- Node11&#45;&gt;Node13 -->
<g id="edge25" class="edge">
<title>Node11&#45;&gt;Node13</title>
<path fill="none" stroke="#63b8ff" d="M441.78,-280.63C406.84,-275.26 333.34,-262.07 275,-239 242.38,-226.1 207.75,-204.94 186.01,-190.63"/>
<polygon fill="#63b8ff" stroke="#63b8ff" points="188.23,-187.9 177.97,-185.24 184.33,-193.71 188.23,-187.9"/>
</g>
<!-- Node15 -->
<g id="node15" class="node">
<title>Node15</title>
<g id="a_node15"><a xlink:href="vdp__unsafe_8h.html" target="_top" xlink:title="Unsafe primitive functions for VDP (Video Display Proccessor) access.">
<polygon fill="white" stroke="#666666" points="466,-239 392,-239 392,-220 466,-220 466,-239"/>
<text text-anchor="middle" x="429" y="-227" font-family="Helvetica,sans-Serif" font-size="10.00">vdp_unsafe.h</text>
</a>
</g>
</g>
<!-- Node11&#45;&gt;Node15 -->
<g id="edge29" class="edge">
<title>Node11&#45;&gt;Node15</title>
<path fill="none" stroke="#63b8ff" d="M456.55,-274.75C452.23,-267.81 446.04,-257.86 440.62,-249.16"/>
<polygon fill="#63b8ff" stroke="#63b8ff" points="443.62,-247.37 435.37,-240.73 437.68,-251.07 443.62,-247.37"/>
</g>
<!-- Node13&#45;&gt;Node3 -->
<g id="edge26" class="edge">
<title>Node13&#45;&gt;Node3</title>
<path fill="none" stroke="#63b8ff" d="M164.07,-164.67C164.75,-142.38 169.88,-83.58 204,-55 242.88,-22.43 394.58,-13.66 464.43,-11.33"/>
<polygon fill="#63b8ff" stroke="#63b8ff" points="464.29,-14.83 474.18,-11.03 464.08,-7.84 464.29,-14.83"/>
</g>
<!-- Node13&#45;&gt;Node6 -->
<g id="edge28" class="edge">
<title>Node13&#45;&gt;Node6</title>
<path fill="none" stroke="#63b8ff" d="M189.91,-172.58C253.91,-169.93 424.56,-160.44 575.78,-128.74"/>
<polygon fill="#63b8ff" stroke="#63b8ff" points="576.11,-132.25 585.16,-126.74 574.65,-125.41 576.11,-132.25"/>
</g>
<!-- Node14 -->
<g id="node14" class="node">
<title>Node14</title>
<g id="a_node14"><a xlink:title=" ">
<polygon fill="#e0e0e0" stroke="#999999" points="151.5,-129 100.5,-129 100.5,-110 151.5,-110 151.5,-129"/>
<text text-anchor="middle" x="126" y="-117" font-family="Helvetica,sans-Serif" font-size="10.00">stddef.h</text>
</a>
</g>
</g>
<!-- Node13&#45;&gt;Node14 -->
<g id="edge27" class="edge">
<title>Node13&#45;&gt;Node14</title>
<path fill="none" stroke="#63b8ff" d="M157.73,-164.75C152.64,-157.66 145.3,-147.42 138.97,-138.59"/>
<polygon fill="#63b8ff" stroke="#63b8ff" points="141.96,-136.76 133.29,-130.67 136.28,-140.84 141.96,-136.76"/>
</g>
<!-- Node15&#45;&gt;Node3 -->
<g id="edge30" class="edge">
<title>Node15&#45;&gt;Node3</title>
<path fill="none" stroke="#63b8ff" d="M423.66,-219.67C412.48,-200.09 388.34,-151.51 397,-110 402.45,-83.89 403.12,-74.79 421,-55 433.09,-41.62 450.18,-31.3 465.37,-23.99"/>
<polygon fill="#63b8ff" stroke="#63b8ff" points="466.46,-27.34 474.12,-20.02 463.57,-20.96 466.46,-27.34"/>
</g>
<!-- Node15&#45;&gt;Node6 -->
<g id="edge31" class="edge">
<title>Node15&#45;&gt;Node6</title>
<path fill="none" stroke="#63b8ff" d="M440.46,-219.55C457.07,-206.75 489.05,-182.79 518,-165 536.98,-153.34 559.32,-141.72 576.33,-133.28"/>
<polygon fill="#63b8ff" stroke="#63b8ff" points="577.86,-136.43 585.3,-128.89 574.78,-130.14 577.86,-136.43"/>
</g>
<!-- Node15&#45;&gt;Node7 -->
<g id="edge33" class="edge">
<title>Node15&#45;&gt;Node7</title>
<path fill="none" stroke="#63b8ff" d="M431.64,-219.75C433.64,-213.11 436.48,-203.73 439.02,-195.31"/>
<polygon fill="#63b8ff" stroke="#63b8ff" points="442.32,-196.48 441.86,-185.89 435.62,-194.45 442.32,-196.48"/>
</g>
<!-- Node15&#45;&gt;Node13 -->
<g id="edge32" class="edge">
<title>Node15&#45;&gt;Node13</title>
<path fill="none" stroke="#63b8ff" d="M391.59,-221.02C340.9,-210.88 250.95,-192.89 200.65,-182.83"/>
<polygon fill="#63b8ff" stroke="#63b8ff" points="201.63,-179.46 191.14,-180.93 200.26,-186.32 201.63,-179.46"/>
</g>
<!-- Node16&#45;&gt;Node3 -->
<g id="edge38" class="edge">
<title>Node16&#45;&gt;Node3</title>
<path fill="none" stroke="#63b8ff" d="M52.77,-219.76C55.03,-198.67 63.37,-144.2 91,-110 121.42,-72.35 139.29,-70.91 185,-55 282.11,-21.21 404.57,-13.03 464.15,-11.08"/>
<polygon fill="#63b8ff" stroke="#63b8ff" points="464.13,-14.59 474.03,-10.81 463.94,-7.59 464.13,-14.59"/>
</g>
<!-- Node16&#45;&gt;Node13 -->
<g id="edge39" class="edge">
<title>Node16&#45;&gt;Node13</title>
<path fill="none" stroke="#63b8ff" d="M71,-219.51C88.56,-211.2 114.92,-198.73 135.09,-189.18"/>
<polygon fill="#63b8ff" stroke="#63b8ff" points="136.37,-192.45 143.91,-185.01 133.38,-186.12 136.37,-192.45"/>
</g>
<!-- Node17&#45;&gt;Node3 -->
<g id="edge41" class="edge">
<title>Node17&#45;&gt;Node3</title>
<path fill="none" stroke="#63b8ff" d="M52.74,-274.58C42.35,-266.41 27.78,-253.43 19,-239 3.69,-213.83 0,-204.96 0,-175.5 0,-175.5 0,-175.5 0,-118.5 0,-23.4 349.95,-11.83 464.32,-10.59"/>
<polygon fill="#63b8ff" stroke="#63b8ff" points="464.06,-14.09 474.03,-10.51 464,-7.09 464.06,-14.09"/>
</g>
<!-- Node17&#45;&gt;Node13 -->
<g id="edge43" class="edge">
<title>Node17&#45;&gt;Node13</title>
<path fill="none" stroke="#63b8ff" d="M73.1,-274.66C89.49,-256.78 126.83,-216.05 148.21,-192.73"/>
<polygon fill="#63b8ff" stroke="#63b8ff" points="150.59,-195.31 154.76,-185.58 145.43,-190.58 150.59,-195.31"/>
</g>
<!-- Node17&#45;&gt;Node16 -->
<g id="edge42" class="edge">
<title>Node17&#45;&gt;Node16</title>
<path fill="none" stroke="#63b8ff" d="M62.85,-274.75C61.24,-268.19 58.98,-258.95 56.93,-250.6"/>
<polygon fill="#63b8ff" stroke="#63b8ff" points="60.34,-249.79 54.55,-240.91 53.54,-251.46 60.34,-249.79"/>
</g>
<!-- Node18&#45;&gt;Node3 -->
<g id="edge45" class="edge">
<title>Node18&#45;&gt;Node3</title>
<path fill="none" stroke="#63b8ff" d="M242.21,-329.67C236.34,-300.34 218,-206.31 218,-175.5 218,-175.5 218,-175.5 218,-118.5 218,-66.25 388.98,-29.89 464.67,-16.35"/>
<polygon fill="#63b8ff" stroke="#63b8ff" points="465.22,-19.81 474.47,-14.64 464.01,-12.91 465.22,-19.81"/>
</g>
<!-- Node18&#45;&gt;Node11 -->
<g id="edge46" class="edge">
<title>Node18&#45;&gt;Node11</title>
<path fill="none" stroke="#63b8ff" d="M279.03,-329.98C320.98,-319.78 390.62,-302.85 430.8,-293.08"/>
<polygon fill="#63b8ff" stroke="#63b8ff" points="431.43,-296.54 440.32,-290.77 429.77,-289.73 431.43,-296.54"/>
</g>
<!-- Node18&#45;&gt;Node13 -->
<g id="edge47" class="edge">
<title>Node18&#45;&gt;Node13</title>
<path fill="none" stroke="#63b8ff" d="M239.7,-329.74C227.16,-304.2 190.47,-229.43 173.19,-194.23"/>
<polygon fill="#63b8ff" stroke="#63b8ff" points="176.54,-193.1 168.99,-185.67 170.25,-196.18 176.54,-193.1"/>
</g>
<!-- Node18&#45;&gt;Node16 -->
<g id="edge48" class="edge">
<title>Node18&#45;&gt;Node16</title>
<path fill="none" stroke="#63b8ff" d="M228.29,-329.66C195.24,-311.07 118.25,-267.77 77.83,-245.03"/>
<polygon fill="#63b8ff" stroke="#63b8ff" points="79.68,-242.05 69.25,-240.2 76.25,-248.16 79.68,-242.05"/>
</g>
<!-- Node19&#45;&gt;Node3 -->
<g id="edge50" class="edge">
<title>Node19&#45;&gt;Node3</title>
<path fill="none" stroke="#63b8ff" d="M860.18,-59.54C851.38,-58.05 841.23,-56.39 832,-55 724.17,-38.79 596.2,-22.45 535.43,-14.87"/>
<polygon fill="#63b8ff" stroke="#63b8ff" points="536.06,-11.42 525.7,-13.66 535.19,-18.37 536.06,-11.42"/>
</g>
<!-- Node20&#45;&gt;Node3 -->
<g id="edge52" class="edge">
<title>Node20&#45;&gt;Node3</title>
<path fill="none" stroke="#63b8ff" d="M767.26,-164.73C762.75,-151.51 752.69,-126.28 737,-110 681.25,-52.18 586.75,-26.48 535.54,-16.32"/>
<polygon fill="#63b8ff" stroke="#63b8ff" points="536.36,-12.91 525.88,-14.5 535.06,-19.79 536.36,-12.91"/>
</g>
<!-- Node20&#45;&gt;Node6 -->
<g id="edge53" class="edge">
<title>Node20&#45;&gt;Node6</title>
<path fill="none" stroke="#63b8ff" d="M749.52,-167C719.45,-157.46 663.3,-139.64 629.92,-129.04"/>
<polygon fill="#63b8ff" stroke="#63b8ff" points="631.18,-125.77 620.59,-126.08 629.06,-132.44 631.18,-125.77"/>
</g>
<!-- Node21&#45;&gt;Node3 -->
<g id="edge56" class="edge">
<title>Node21&#45;&gt;Node3</title>
<path fill="none" stroke="#63b8ff" d="M954.03,-274.55C952.1,-256.07 948,-212.33 948,-175.5 948,-175.5 948,-175.5 948,-118.5 948,-86.49 940.54,-72.89 914,-55 852.61,-13.62 624.41,-9.97 535.65,-10.16"/>
<polygon fill="#63b8ff" stroke="#63b8ff" points="535.82,-6.66 525.83,-10.2 535.85,-13.66 535.82,-6.66"/>
</g>
<!-- Node21&#45;&gt;Node5 -->
<g id="edge55" class="edge">
<title>Node21&#45;&gt;Node5</title>
<path fill="none" stroke="#63b8ff" d="M937.87,-274.51C922.25,-266.31 898.92,-254.07 880.83,-244.58"/>
<polygon fill="#63b8ff" stroke="#63b8ff" points="882.7,-241.61 872.22,-240.06 879.45,-247.81 882.7,-241.61"/>
</g>
<!-- Node22 -->
<g id="node22" class="node">
<title>Node22</title>
<g id="a_node22"><a xlink:title=" ">
<polygon fill="#e0e0e0" stroke="#999999" points="1023.5,-239 976.5,-239 976.5,-220 1023.5,-220 1023.5,-239"/>
<text text-anchor="middle" x="1000" y="-227" font-family="Helvetica,sans-Serif" font-size="10.00">stdlib.h</text>
</a>
</g>
</g>
<!-- Node21&#45;&gt;Node22 -->
<g id="edge57" class="edge">
<title>Node21&#45;&gt;Node22</title>
<path fill="none" stroke="#63b8ff" d="M962.43,-274.75C968.58,-267.5 977.51,-256.98 985.13,-248.02"/>
<polygon fill="#63b8ff" stroke="#63b8ff" points="987.62,-250.48 991.43,-240.6 982.29,-245.95 987.62,-250.48"/>
</g>
<!-- Node23&#45;&gt;Node3 -->
<g id="edge60" class="edge">
<title>Node23&#45;&gt;Node3</title>
<path fill="none" stroke="#63b8ff" d="M1033.92,-274.65C1039.69,-256.36 1052,-212.94 1052,-175.5 1052,-175.5 1052,-175.5 1052,-118.5 1052,-12.89 657.94,-8.64 535.71,-9.87"/>
<polygon fill="#63b8ff" stroke="#63b8ff" points="535.9,-6.36 525.94,-9.99 535.99,-13.36 535.9,-6.36"/>
</g>
<!-- Node23&#45;&gt;Node5 -->
<g id="edge59" class="edge">
<title>Node23&#45;&gt;Node5</title>
<path fill="none" stroke="#63b8ff" d="M1000.97,-274.51C971.33,-265.63 925.84,-252.01 893.33,-242.28"/>
<polygon fill="#63b8ff" stroke="#63b8ff" points="894.45,-238.96 883.86,-239.44 892.44,-245.66 894.45,-238.96"/>
</g>
</g>
</svg>
