<?xml version="1.0" encoding="UTF-8" standalone="no"?>
<!DOCTYPE svg PUBLIC "-//W3C//DTD SVG 1.1//EN"
 "http://www.w3.org/Graphics/SVG/1.1/DTD/svg11.dtd">
<!-- Generated by graphviz version 2.44.0 ()
 -->
<!-- Title: include/msx.h Pages: 1 -->
<svg width="864pt" height="308pt"
 viewBox="0.00 0.00 863.50 308.00" xmlns="http://www.w3.org/2000/svg" xmlns:xlink="http://www.w3.org/1999/xlink">
<g id="graph0" class="graph" transform="scale(1 1) rotate(0) translate(4 304)">
<title>include/msx.h</title>
<!-- Node1 -->
<g id="node1" class="node">
<title>Node1</title>
<g id="a_node1"><a xlink:title="Copyright (c) 2021 Daishi Mori (mori0091)">
<polygon fill="#bfbfbf" stroke="black" points="466,-280.5 466,-299.5 542,-299.5 542,-280.5 466,-280.5"/>
<text text-anchor="middle" x="504" y="-287.5" font-family="Helvetica,sans-Serif" font-size="10.00">include/msx.h</text>
</a>
</g>
</g>
<!-- Node2 -->
<g id="node2" class="node">
<title>Node2</title>
<g id="a_node2"><a xlink:href="interrupt_8h.html" target="_top" xlink:title="Copyright (c) 2021 Daishi Mori (mori0091)">
<polygon fill="none" stroke="black" points="84.5,-168.5 84.5,-187.5 143.5,-187.5 143.5,-168.5 84.5,-168.5"/>
<text text-anchor="middle" x="114" y="-175.5" font-family="Helvetica,sans-Serif" font-size="10.00">interrupt.h</text>
</a>
</g>
</g>
<!-- Node1&#45;&gt;Node2 -->
<g id="edge1" class="edge">
<title>Node1&#45;&gt;Node2</title>
<path fill="none" stroke="midnightblue" d="M465.96,-283.72C420.26,-276.86 341.57,-263.44 276,-244 227.29,-229.56 172.9,-206.15 141.16,-191.72"/>
<polygon fill="midnightblue" stroke="midnightblue" points="142.62,-188.54 132.07,-187.55 139.7,-194.9 142.62,-188.54"/>
</g>
<!-- Node5 -->
<g id="node5" class="node">
<title>Node5</title>
<g id="a_node5"><a xlink:href="io_8h.html" target="_top" xlink:title="Copyright (c) 2021 Daishi Mori (mori0091)">
<polygon fill="none" stroke="black" points="641,-56.5 641,-75.5 673,-75.5 673,-56.5 641,-56.5"/>
<text text-anchor="middle" x="657" y="-63.5" font-family="Helvetica,sans-Serif" font-size="10.00">io.h</text>
</a>
</g>
</g>
<!-- Node1&#45;&gt;Node5 -->
<g id="edge4" class="edge">
<title>Node1&#45;&gt;Node5</title>
<path fill="none" stroke="midnightblue" d="M542.2,-286.67C598.11,-282.38 698.01,-271.05 720,-244 760.41,-194.31 701.76,-116.71 672.24,-83.25"/>
<polygon fill="midnightblue" stroke="midnightblue" points="674.75,-80.81 665.45,-75.74 669.56,-85.5 674.75,-80.81"/>
</g>
<!-- Node6 -->
<g id="node6" class="node">
<title>Node6</title>
<g id="a_node6"><a xlink:href="bios_8h.html" target="_top" xlink:title="Copyright (c) 2021 Daishi Mori (mori0091)">
<polygon fill="none" stroke="black" points="257,-112.5 257,-131.5 299,-131.5 299,-112.5 257,-112.5"/>
<text text-anchor="middle" x="278" y="-119.5" font-family="Helvetica,sans-Serif" font-size="10.00">bios.h</text>
</a>
</g>
</g>
<!-- Node1&#45;&gt;Node6 -->
<g id="edge5" class="edge">
<title>Node1&#45;&gt;Node6</title>
<path fill="none" stroke="midnightblue" d="M486.37,-280.43C469.57,-271.98 443.83,-258.29 423,-244 373.47,-210.03 320.59,-162.72 294.5,-138.56"/>
<polygon fill="midnightblue" stroke="midnightblue" points="296.71,-135.83 287.01,-131.57 291.94,-140.95 296.71,-135.83"/>
</g>
<!-- Node9 -->
<g id="node9" class="node">
<title>Node9</title>
<g id="a_node9"><a xlink:href="workarea_8h.html" target="_top" xlink:title="Copyright (c) 2021 Daishi Mori (mori0091)">
<polygon fill="none" stroke="black" points="317,-112.5 317,-131.5 381,-131.5 381,-112.5 317,-112.5"/>
<text text-anchor="middle" x="349" y="-119.5" font-family="Helvetica,sans-Serif" font-size="10.00">workarea.h</text>
</a>
</g>
</g>
<!-- Node1&#45;&gt;Node9 -->
<g id="edge10" class="edge">
<title>Node1&#45;&gt;Node9</title>
<path fill="none" stroke="midnightblue" d="M491.32,-280.48C479.08,-271.96 460.35,-258.13 446,-244 411.63,-210.17 377.87,-164.45 360.69,-140.03"/>
<polygon fill="midnightblue" stroke="midnightblue" points="363.54,-138 354.95,-131.79 357.79,-141.99 363.54,-138"/>
</g>
<!-- Node10 -->
<g id="node10" class="node">
<title>Node10</title>
<g id="a_node10"><a xlink:href="vdp_8h.html" target="_top" xlink:title="Data types and functions for VDP (Video Display Proccessor) access.">
<polygon fill="none" stroke="black" points="415,-168.5 415,-187.5 455,-187.5 455,-168.5 415,-168.5"/>
<text text-anchor="middle" x="435" y="-175.5" font-family="Helvetica,sans-Serif" font-size="10.00">vdp.h</text>
</a>
</g>
</g>
<!-- Node1&#45;&gt;Node10 -->
<g id="edge12" class="edge">
<title>Node1&#45;&gt;Node10</title>
<path fill="none" stroke="midnightblue" d="M493.32,-280.33C483.53,-271.92 469.21,-258.34 460,-244 450.62,-229.39 443.9,-210.72 439.8,-197.14"/>
<polygon fill="midnightblue" stroke="midnightblue" points="443.17,-196.18 437.08,-187.51 436.43,-198.09 443.17,-196.18"/>
</g>
<!-- Node12 -->
<g id="node12" class="node">
<title>Node12</title>
<g id="a_node12"><a xlink:href="vmem_8h.html" target="_top" xlink:title="Data types and functions for VRAM access.">
<polygon fill="none" stroke="black" points="621.5,-112.5 621.5,-131.5 672.5,-131.5 672.5,-112.5 621.5,-112.5"/>
<text text-anchor="middle" x="647" y="-119.5" font-family="Helvetica,sans-Serif" font-size="10.00">vmem.h</text>
</a>
</g>
</g>
<!-- Node1&#45;&gt;Node12 -->
<g id="edge22" class="edge">
<title>Node1&#45;&gt;Node12</title>
<path fill="none" stroke="midnightblue" d="M518.56,-280.35C531.81,-272.04 551.48,-258.63 566,-244 597.77,-211.99 624.6,-165.82 637.95,-140.78"/>
<polygon fill="midnightblue" stroke="midnightblue" points="641.15,-142.21 642.67,-131.73 634.94,-138.97 641.15,-142.21"/>
</g>
<!-- Node13 -->
<g id="node13" class="node">
<title>Node13</title>
<g id="a_node13"><a xlink:href="sprite_8h.html" target="_top" xlink:title="Copyright (c) 2021 Daishi Mori (mori0091)">
<polygon fill="none" stroke="black" points="549,-168.5 549,-187.5 597,-187.5 597,-168.5 549,-168.5"/>
<text text-anchor="middle" x="573" y="-175.5" font-family="Helvetica,sans-Serif" font-size="10.00">sprite.h</text>
</a>
</g>
</g>
<!-- Node1&#45;&gt;Node13 -->
<g id="edge23" class="edge">
<title>Node1&#45;&gt;Node13</title>
<path fill="none" stroke="midnightblue" d="M514.68,-280.33C524.47,-271.92 538.79,-258.34 548,-244 557.38,-229.39 564.1,-210.72 568.2,-197.14"/>
<polygon fill="midnightblue" stroke="midnightblue" points="571.57,-198.09 570.92,-187.51 564.83,-196.18 571.57,-198.09"/>
</g>
<!-- Node14 -->
<g id="node14" class="node">
<title>Node14</title>
<g id="a_node14"><a xlink:href="sprite__color_8h.html" target="_top" xlink:title="Copyright (c) 2021 Daishi Mori (mori0091)">
<polygon fill="none" stroke="black" points="637,-224.5 637,-243.5 711,-243.5 711,-224.5 637,-224.5"/>
<text text-anchor="middle" x="674" y="-231.5" font-family="Helvetica,sans-Serif" font-size="10.00">sprite_color.h</text>
</a>
</g>
</g>
<!-- Node1&#45;&gt;Node14 -->
<g id="edge26" class="edge">
<title>Node1&#45;&gt;Node14</title>
<path fill="none" stroke="midnightblue" d="M530.94,-280.44C559.66,-271.32 605.33,-256.81 637.32,-246.65"/>
<polygon fill="midnightblue" stroke="midnightblue" points="638.72,-249.88 647.19,-243.52 636.6,-243.21 638.72,-249.88"/>
</g>
<!-- Node15 -->
<g id="node15" class="node">
<title>Node15</title>
<g id="a_node15"><a xlink:href="metasprite_8h.html" target="_top" xlink:title="Copyright (c) 2021 Daishi Mori (mori0091)">
<polygon fill="none" stroke="black" points="469,-224.5 469,-243.5 539,-243.5 539,-224.5 469,-224.5"/>
<text text-anchor="middle" x="504" y="-231.5" font-family="Helvetica,sans-Serif" font-size="10.00">metasprite.h</text>
</a>
</g>
</g>
<!-- Node1&#45;&gt;Node15 -->
<g id="edge30" class="edge">
<title>Node1&#45;&gt;Node15</title>
<path fill="none" stroke="midnightblue" d="M504,-280.08C504,-273.01 504,-262.86 504,-253.99"/>
<polygon fill="midnightblue" stroke="midnightblue" points="507.5,-253.75 504,-243.75 500.5,-253.75 507.5,-253.75"/>
</g>
<!-- Node16 -->
<g id="node16" class="node">
<title>Node16</title>
<g id="a_node16"><a xlink:href="input_8h.html" target="_top" xlink:title="Copyright (c) 2021 Daishi Mori (mori0091)">
<polygon fill="none" stroke="black" points="810.5,-224.5 810.5,-243.5 855.5,-243.5 855.5,-224.5 810.5,-224.5"/>
<text text-anchor="middle" x="833" y="-231.5" font-family="Helvetica,sans-Serif" font-size="10.00">input.h</text>
</a>
</g>
</g>
<!-- Node1&#45;&gt;Node16 -->
<g id="edge35" class="edge">
<title>Node1&#45;&gt;Node16</title>
<path fill="none" stroke="midnightblue" d="M542.15,-283.98C597.75,-276.47 704.2,-261.31 794,-244 796.08,-243.6 798.22,-243.17 800.37,-242.72"/>
<polygon fill="midnightblue" stroke="midnightblue" points="801.36,-246.08 810.37,-240.52 799.86,-239.24 801.36,-246.08"/>
</g>
<!-- Node17 -->
<g id="node17" class="node">
<title>Node17</title>
<g id="a_node17"><a xlink:href="psg_8h.html" target="_top" xlink:title="Copyright (c) 2021 Daishi Mori (mori0091)">
<polygon fill="none" stroke="black" points="767,-112.5 767,-131.5 807,-131.5 807,-112.5 767,-112.5"/>
<text text-anchor="middle" x="787" y="-119.5" font-family="Helvetica,sans-Serif" font-size="10.00">psg.h</text>
</a>
</g>
</g>
<!-- Node1&#45;&gt;Node17 -->
<g id="edge37" class="edge">
<title>Node1&#45;&gt;Node17</title>
<path fill="none" stroke="midnightblue" d="M542.39,-286.94C604.39,-282.85 722.69,-271.56 753,-244 781.97,-217.66 787.03,-168.79 787.47,-141.92"/>
<polygon fill="midnightblue" stroke="midnightblue" points="790.97,-141.57 787.42,-131.58 783.97,-141.6 790.97,-141.57"/>
</g>
<!-- Node18 -->
<g id="node18" class="node">
<title>Node18</title>
<g id="a_node18"><a xlink:href="sound_8h.html" target="_top" xlink:title="Copyright (c) 2021 Daishi Mori (mori0091)">
<polygon fill="none" stroke="black" points="183,-168.5 183,-187.5 233,-187.5 233,-168.5 183,-168.5"/>
<text text-anchor="middle" x="208" y="-175.5" font-family="Helvetica,sans-Serif" font-size="10.00">sound.h</text>
</a>
</g>
</g>
<!-- Node1&#45;&gt;Node18 -->
<g id="edge40" class="edge">
<title>Node1&#45;&gt;Node18</title>
<path fill="none" stroke="midnightblue" d="M465.79,-283.06C427.66,-276.37 367.88,-263.76 319,-244 285.49,-230.45 249.97,-208.05 228.39,-193.4"/>
<polygon fill="midnightblue" stroke="midnightblue" points="230.26,-190.44 220.04,-187.65 226.29,-196.21 230.26,-190.44"/>
</g>
<!-- Node20 -->
<g id="node20" class="node">
<title>Node20</title>
<g id="a_node20"><a xlink:href="sound__eg_8h.html" target="_top" xlink:title="Copyright (c) 2021 Daishi Mori (mori0091)">
<polygon fill="none" stroke="black" points="0,-168.5 0,-187.5 66,-187.5 66,-168.5 0,-168.5"/>
<text text-anchor="middle" x="33" y="-175.5" font-family="Helvetica,sans-Serif" font-size="10.00">sound_eg.h</text>
</a>
</g>
</g>
<!-- Node1&#45;&gt;Node20 -->
<g id="edge44" class="edge">
<title>Node1&#45;&gt;Node20</title>
<path fill="none" stroke="midnightblue" d="M465.62,-285.21C410.31,-279.23 305.24,-266 218,-244 162.03,-229.89 99.04,-205.96 62.89,-191.4"/>
<polygon fill="midnightblue" stroke="midnightblue" points="64.01,-188.08 53.43,-187.56 61.38,-194.57 64.01,-188.08"/>
</g>
<!-- Node3 -->
<g id="node3" class="node">
<title>Node3</title>
<g id="a_node3"><a xlink:title=" ">
<polygon fill="none" stroke="#bfbfbf" points="79,-112.5 79,-131.5 135,-131.5 135,-112.5 79,-112.5"/>
<text text-anchor="middle" x="107" y="-119.5" font-family="Helvetica,sans-Serif" font-size="10.00">stdbool.h</text>
</a>
</g>
</g>
<!-- Node2&#45;&gt;Node3 -->
<g id="edge2" class="edge">
<title>Node2&#45;&gt;Node3</title>
<path fill="none" stroke="midnightblue" d="M112.84,-168.08C111.92,-160.93 110.58,-150.64 109.42,-141.69"/>
<polygon fill="midnightblue" stroke="midnightblue" points="112.89,-141.22 108.13,-131.75 105.95,-142.12 112.89,-141.22"/>
</g>
<!-- Node4 -->
<g id="node4" class="node">
<title>Node4</title>
<g id="a_node4"><a xlink:title=" ">
<polygon fill="none" stroke="#bfbfbf" points="455,-0.5 455,-19.5 503,-19.5 503,-0.5 455,-0.5"/>
<text text-anchor="middle" x="479" y="-7.5" font-family="Helvetica,sans-Serif" font-size="10.00">stdint.h</text>
</a>
</g>
</g>
<!-- Node2&#45;&gt;Node4 -->
<g id="edge3" class="edge">
<title>Node2&#45;&gt;Node4</title>
<path fill="none" stroke="midnightblue" d="M100.63,-168.3C83.04,-155.76 55.92,-131.92 70,-112 113.74,-50.09 354.82,-22.22 444.97,-13.85"/>
<polygon fill="midnightblue" stroke="midnightblue" points="445.3,-17.34 454.94,-12.95 444.67,-10.37 445.3,-17.34"/>
</g>
<!-- Node7 -->
<g id="node7" class="node">
<title>Node7</title>
<g id="a_node7"><a xlink:href="bios__const_8h.html" target="_top" xlink:title="Constant variables in the MSX BIOS ROM.">
<polygon fill="none" stroke="black" points="255.5,-56.5 255.5,-75.5 326.5,-75.5 326.5,-56.5 255.5,-56.5"/>
<text text-anchor="middle" x="291" y="-63.5" font-family="Helvetica,sans-Serif" font-size="10.00">bios_const.h</text>
</a>
</g>
</g>
<!-- Node6&#45;&gt;Node7 -->
<g id="edge6" class="edge">
<title>Node6&#45;&gt;Node7</title>
<path fill="none" stroke="midnightblue" d="M280.15,-112.08C281.87,-104.93 284.35,-94.64 286.5,-85.69"/>
<polygon fill="midnightblue" stroke="midnightblue" points="289.96,-86.29 288.89,-75.75 283.15,-84.65 289.96,-86.29"/>
</g>
<!-- Node8 -->
<g id="node8" class="node">
<title>Node8</title>
<g id="a_node8"><a xlink:href="bios__entry_8h.html" target="_top" xlink:title="Assembler entry points for MSX BIOS functions.">
<polygon fill="none" stroke="black" points="345,-56.5 345,-75.5 413,-75.5 413,-56.5 345,-56.5"/>
<text text-anchor="middle" x="379" y="-63.5" font-family="Helvetica,sans-Serif" font-size="10.00">bios_entry.h</text>
</a>
</g>
</g>
<!-- Node6&#45;&gt;Node8 -->
<g id="edge8" class="edge">
<title>Node6&#45;&gt;Node8</title>
<path fill="none" stroke="midnightblue" d="M294.23,-112.32C310.35,-103.7 335.3,-90.36 353.96,-80.39"/>
<polygon fill="midnightblue" stroke="midnightblue" points="355.64,-83.46 362.81,-75.65 352.34,-77.28 355.64,-83.46"/>
</g>
<!-- Node7&#45;&gt;Node4 -->
<g id="edge7" class="edge">
<title>Node7&#45;&gt;Node4</title>
<path fill="none" stroke="midnightblue" d="M320.79,-56.44C354.53,-46.75 409.4,-30.99 444.84,-20.81"/>
<polygon fill="midnightblue" stroke="midnightblue" points="446.09,-24.1 454.73,-17.97 444.15,-17.37 446.09,-24.1"/>
</g>
<!-- Node8&#45;&gt;Node4 -->
<g id="edge9" class="edge">
<title>Node8&#45;&gt;Node4</title>
<path fill="none" stroke="midnightblue" d="M395.07,-56.32C410.96,-47.74 435.51,-34.49 453.96,-24.52"/>
<polygon fill="midnightblue" stroke="midnightblue" points="455.84,-27.49 462.97,-19.65 452.51,-21.33 455.84,-27.49"/>
</g>
<!-- Node9&#45;&gt;Node4 -->
<g id="edge11" class="edge">
<title>Node9&#45;&gt;Node4</title>
<path fill="none" stroke="midnightblue" d="M365.89,-112.47C381.33,-104.25 404.37,-90.9 422,-76 439.11,-61.54 455.65,-41.84 466.47,-27.93"/>
<polygon fill="midnightblue" stroke="midnightblue" points="469.43,-29.81 472.7,-19.73 463.86,-25.58 469.43,-29.81"/>
</g>
<!-- Node10&#45;&gt;Node3 -->
<g id="edge14" class="edge">
<title>Node10&#45;&gt;Node3</title>
<path fill="none" stroke="midnightblue" d="M414.79,-174.48C368.74,-168.6 252.37,-153.04 145.23,-132.1"/>
<polygon fill="midnightblue" stroke="midnightblue" points="145.72,-128.63 135.23,-130.13 144.36,-135.5 145.72,-128.63"/>
</g>
<!-- Node10&#45;&gt;Node4 -->
<g id="edge15" class="edge">
<title>Node10&#45;&gt;Node4</title>
<path fill="none" stroke="midnightblue" d="M432.5,-168.47C429.21,-155.93 424.35,-131.86 429,-112 430.03,-107.59 455.75,-56.67 469.89,-28.87"/>
<polygon fill="midnightblue" stroke="midnightblue" points="473.09,-30.3 474.51,-19.8 466.85,-27.12 473.09,-30.3"/>
</g>
<!-- Node10&#45;&gt;Node5 -->
<g id="edge16" class="edge">
<title>Node10&#45;&gt;Node5</title>
<path fill="none" stroke="midnightblue" d="M452.42,-168.37C491.46,-149.02 586.12,-102.12 631.67,-79.55"/>
<polygon fill="midnightblue" stroke="midnightblue" points="633.46,-82.57 640.87,-74.99 630.35,-76.3 633.46,-82.57"/>
</g>
<!-- Node10&#45;&gt;Node6 -->
<g id="edge20" class="edge">
<title>Node10&#45;&gt;Node6</title>
<path fill="none" stroke="midnightblue" d="M414.8,-170.05C387.89,-160.8 340.06,-144.35 308.69,-133.56"/>
<polygon fill="midnightblue" stroke="midnightblue" points="309.72,-130.21 299.13,-130.27 307.45,-136.83 309.72,-130.21"/>
</g>
<!-- Node10&#45;&gt;Node9 -->
<g id="edge21" class="edge">
<title>Node10&#45;&gt;Node9</title>
<path fill="none" stroke="midnightblue" d="M421.18,-168.32C407.77,-159.9 387.18,-146.97 371.41,-137.07"/>
<polygon fill="midnightblue" stroke="midnightblue" points="373.11,-134.01 362.78,-131.65 369.39,-139.94 373.11,-134.01"/>
</g>
<!-- Node11 -->
<g id="node11" class="node">
<title>Node11</title>
<g id="a_node11"><a xlink:title=" ">
<polygon fill="none" stroke="#bfbfbf" points="437.5,-112.5 437.5,-131.5 488.5,-131.5 488.5,-112.5 437.5,-112.5"/>
<text text-anchor="middle" x="463" y="-119.5" font-family="Helvetica,sans-Serif" font-size="10.00">assert.h</text>
</a>
</g>
</g>
<!-- Node10&#45;&gt;Node11 -->
<g id="edge13" class="edge">
<title>Node10&#45;&gt;Node11</title>
<path fill="none" stroke="midnightblue" d="M439.62,-168.08C443.46,-160.69 449.02,-149.95 453.76,-140.81"/>
<polygon fill="midnightblue" stroke="midnightblue" points="456.97,-142.24 458.46,-131.75 450.75,-139.02 456.97,-142.24"/>
</g>
<!-- Node10&#45;&gt;Node12 -->
<g id="edge17" class="edge">
<title>Node10&#45;&gt;Node12</title>
<path fill="none" stroke="midnightblue" d="M455.33,-171.82C491.29,-162.66 566.53,-143.5 611.31,-132.09"/>
<polygon fill="midnightblue" stroke="midnightblue" points="612.35,-135.44 621.18,-129.58 610.63,-128.65 612.35,-135.44"/>
</g>
<!-- Node12&#45;&gt;Node4 -->
<g id="edge18" class="edge">
<title>Node12&#45;&gt;Node4</title>
<path fill="none" stroke="midnightblue" d="M641.21,-112.28C631.75,-98.61 611.72,-72.06 589,-56 565.81,-39.61 535.76,-27.84 512.93,-20.45"/>
<polygon fill="midnightblue" stroke="midnightblue" points="513.9,-17.09 503.31,-17.46 511.82,-23.77 513.9,-17.09"/>
</g>
<!-- Node12&#45;&gt;Node5 -->
<g id="edge19" class="edge">
<title>Node12&#45;&gt;Node5</title>
<path fill="none" stroke="midnightblue" d="M648.65,-112.08C649.98,-104.93 651.88,-94.64 653.54,-85.69"/>
<polygon fill="midnightblue" stroke="midnightblue" points="657,-86.22 655.38,-75.75 650.12,-84.95 657,-86.22"/>
</g>
<!-- Node13&#45;&gt;Node4 -->
<g id="edge24" class="edge">
<title>Node13&#45;&gt;Node4</title>
<path fill="none" stroke="midnightblue" d="M571.6,-168.39C567.9,-147.56 556.33,-93.36 531,-56 523.04,-44.27 511.28,-33.73 500.95,-25.82"/>
<polygon fill="midnightblue" stroke="midnightblue" points="502.87,-22.88 492.73,-19.81 498.74,-28.53 502.87,-22.88"/>
</g>
<!-- Node13&#45;&gt;Node12 -->
<g id="edge25" class="edge">
<title>Node13&#45;&gt;Node12</title>
<path fill="none" stroke="midnightblue" d="M584.89,-168.32C596.15,-160.11 613.29,-147.6 626.71,-137.81"/>
<polygon fill="midnightblue" stroke="midnightblue" points="628.88,-140.56 634.89,-131.83 624.75,-134.9 628.88,-140.56"/>
</g>
<!-- Node14&#45;&gt;Node4 -->
<g id="edge27" class="edge">
<title>Node14&#45;&gt;Node4</title>
<path fill="none" stroke="midnightblue" d="M677.9,-224.42C689.93,-196.53 723.2,-107.34 682,-56 661.23,-30.12 565.61,-18.21 513.35,-13.54"/>
<polygon fill="midnightblue" stroke="midnightblue" points="513.46,-10.04 503.2,-12.68 512.87,-17.01 513.46,-10.04"/>
</g>
<!-- Node14&#45;&gt;Node12 -->
<g id="edge29" class="edge">
<title>Node14&#45;&gt;Node12</title>
<path fill="none" stroke="midnightblue" d="M671.88,-224.37C667.52,-206.62 657.47,-165.67 651.56,-141.6"/>
<polygon fill="midnightblue" stroke="midnightblue" points="654.89,-140.47 649.11,-131.59 648.09,-142.14 654.89,-140.47"/>
</g>
<!-- Node14&#45;&gt;Node13 -->
<g id="edge28" class="edge">
<title>Node14&#45;&gt;Node13</title>
<path fill="none" stroke="midnightblue" d="M657.77,-224.32C641.65,-215.7 616.7,-202.36 598.04,-192.39"/>
<polygon fill="midnightblue" stroke="midnightblue" points="599.66,-189.28 589.19,-187.65 596.36,-195.46 599.66,-189.28"/>
</g>
<!-- Node15&#45;&gt;Node4 -->
<g id="edge31" class="edge">
<title>Node15&#45;&gt;Node4</title>
<path fill="none" stroke="midnightblue" d="M503.98,-224.46C503.83,-204.63 502.97,-153.98 498,-112 494.57,-82.98 487.75,-49.76 483.28,-29.58"/>
<polygon fill="midnightblue" stroke="midnightblue" points="486.64,-28.57 481.03,-19.59 479.82,-30.11 486.64,-28.57"/>
</g>
<!-- Node15&#45;&gt;Node10 -->
<g id="edge32" class="edge">
<title>Node15&#45;&gt;Node10</title>
<path fill="none" stroke="midnightblue" d="M492.91,-224.32C482.51,-216.18 466.74,-203.84 454.28,-194.09"/>
<polygon fill="midnightblue" stroke="midnightblue" points="456.32,-191.24 446.29,-187.83 452.01,-196.75 456.32,-191.24"/>
</g>
<!-- Node15&#45;&gt;Node12 -->
<g id="edge33" class="edge">
<title>Node15&#45;&gt;Node12</title>
<path fill="none" stroke="midnightblue" d="M506.75,-224.23C511.47,-210.5 522.34,-183.86 540,-168 560.29,-149.79 589.01,-138.26 611.59,-131.43"/>
<polygon fill="midnightblue" stroke="midnightblue" points="612.82,-134.72 621.48,-128.62 610.91,-127.99 612.82,-134.72"/>
</g>
<!-- Node15&#45;&gt;Node13 -->
<g id="edge34" class="edge">
<title>Node15&#45;&gt;Node13</title>
<path fill="none" stroke="midnightblue" d="M515.09,-224.32C525.49,-216.18 541.26,-203.84 553.72,-194.09"/>
<polygon fill="midnightblue" stroke="midnightblue" points="555.99,-196.75 561.71,-187.83 551.68,-191.24 555.99,-196.75"/>
</g>
<!-- Node16&#45;&gt;Node4 -->
<g id="edge36" class="edge">
<title>Node16&#45;&gt;Node4</title>
<path fill="none" stroke="midnightblue" d="M833.91,-224.37C835.67,-203.49 837.7,-149.2 816,-112 795.4,-76.68 780.48,-72.36 743,-56 665.62,-22.22 565.19,-13.72 513.34,-11.63"/>
<polygon fill="midnightblue" stroke="midnightblue" points="513.15,-8.13 503.04,-11.28 512.91,-15.12 513.15,-8.13"/>
</g>
<!-- Node17&#45;&gt;Node4 -->
<g id="edge38" class="edge">
<title>Node17&#45;&gt;Node4</title>
<path fill="none" stroke="midnightblue" d="M780.09,-112.21C768.35,-97.94 743.05,-69.94 715,-56 648.68,-23.03 560.82,-14.15 513.21,-11.8"/>
<polygon fill="midnightblue" stroke="midnightblue" points="513.26,-8.3 503.12,-11.37 512.96,-15.29 513.26,-8.3"/>
</g>
<!-- Node17&#45;&gt;Node5 -->
<g id="edge39" class="edge">
<title>Node17&#45;&gt;Node5</title>
<path fill="none" stroke="midnightblue" d="M766.97,-112.68C744.31,-103.27 707.35,-87.91 682.61,-77.64"/>
<polygon fill="midnightblue" stroke="midnightblue" points="683.73,-74.31 673.15,-73.71 681.04,-80.78 683.73,-74.31"/>
</g>
<!-- Node18&#45;&gt;Node3 -->
<g id="edge41" class="edge">
<title>Node18&#45;&gt;Node3</title>
<path fill="none" stroke="midnightblue" d="M191.77,-168.32C175.65,-159.7 150.7,-146.36 132.04,-136.39"/>
<polygon fill="midnightblue" stroke="midnightblue" points="133.66,-133.28 123.19,-131.65 130.36,-139.46 133.66,-133.28"/>
</g>
<!-- Node18&#45;&gt;Node4 -->
<g id="edge42" class="edge">
<title>Node18&#45;&gt;Node4</title>
<path fill="none" stroke="midnightblue" d="M207.99,-168.41C208.46,-146.13 212.98,-86.16 247,-56 275.9,-30.38 387.78,-18.1 444.95,-13.4"/>
<polygon fill="midnightblue" stroke="midnightblue" points="445.27,-16.89 454.96,-12.61 444.71,-9.91 445.27,-16.89"/>
</g>
<!-- Node19 -->
<g id="node19" class="node">
<title>Node19</title>
<g id="a_node19"><a xlink:title=" ">
<polygon fill="none" stroke="#bfbfbf" points="153.5,-112.5 153.5,-131.5 200.5,-131.5 200.5,-112.5 153.5,-112.5"/>
<text text-anchor="middle" x="177" y="-119.5" font-family="Helvetica,sans-Serif" font-size="10.00">stdlib.h</text>
</a>
</g>
</g>
<!-- Node18&#45;&gt;Node19 -->
<g id="edge43" class="edge">
<title>Node18&#45;&gt;Node19</title>
<path fill="none" stroke="midnightblue" d="M202.88,-168.08C198.59,-160.61 192.34,-149.72 187.06,-140.52"/>
<polygon fill="midnightblue" stroke="midnightblue" points="190.04,-138.68 182.02,-131.75 183.97,-142.17 190.04,-138.68"/>
</g>
<!-- Node20&#45;&gt;Node3 -->
<g id="edge45" class="edge">
<title>Node20&#45;&gt;Node3</title>
<path fill="none" stroke="midnightblue" d="M44.89,-168.32C56.15,-160.11 73.29,-147.6 86.71,-137.81"/>
<polygon fill="midnightblue" stroke="midnightblue" points="88.88,-140.56 94.89,-131.83 84.75,-134.9 88.88,-140.56"/>
</g>
<!-- Node20&#45;&gt;Node4 -->
<g id="edge46" class="edge">
<title>Node20&#45;&gt;Node4</title>
<path fill="none" stroke="midnightblue" d="M35.73,-168.43C40.13,-155.42 49.67,-130.27 63,-112 84.69,-82.27 90.61,-71.49 124,-56 180.65,-29.72 367.26,-16.96 444.78,-12.7"/>
<polygon fill="midnightblue" stroke="midnightblue" points="445.17,-16.18 454.96,-12.15 444.79,-9.19 445.17,-16.18"/>
</g>
</g>
</svg>
