<?xml version="1.0" encoding="UTF-8" standalone="no"?>
<!DOCTYPE svg PUBLIC "-//W3C//DTD SVG 1.1//EN"
 "http://www.w3.org/Graphics/SVG/1.1/DTD/svg11.dtd">
<!-- Generated by graphviz version 2.43.0 (0)
 -->
<!-- Title: include/msx.h Pages: 1 -->
<svg width="929pt" height="252pt"
 viewBox="0.00 0.00 928.50 252.00" xmlns="http://www.w3.org/2000/svg" xmlns:xlink="http://www.w3.org/1999/xlink">
<g id="graph0" class="graph" transform="scale(1 1) rotate(0) translate(4 248)">
<title>include/msx.h</title>
<!-- Node1 -->
<g id="node1" class="node">
<title>Node1</title>
<g id="a_node1"><a xlink:title=" ">
<polygon fill="#bfbfbf" stroke="black" points="325.5,-224.5 325.5,-243.5 410.5,-243.5 410.5,-224.5 325.5,-224.5"/>
<text text-anchor="middle" x="368" y="-231.5" font-family="Helvetica,sans-Serif" font-size="10.00">include/msx.h</text>
</a>
</g>
</g>
<!-- Node2 -->
<g id="node2" class="node">
<title>Node2</title>
<g id="a_node2"><a xlink:href="interrupt_8h.html" target="_top" xlink:title=" ">
<polygon fill="none" stroke="black" points="0,-168.5 0,-187.5 68,-187.5 68,-168.5 0,-168.5"/>
<text text-anchor="middle" x="34" y="-175.5" font-family="Helvetica,sans-Serif" font-size="10.00">interrupt.h</text>
</a>
</g>
</g>
<!-- Node1&#45;&gt;Node2 -->
<g id="edge1" class="edge">
<title>Node1&#45;&gt;Node2</title>
<path fill="none" stroke="midnightblue" d="M325.3,-226.68C269.34,-218.31 168.19,-202.86 82,-188 80.73,-187.78 79.44,-187.56 78.14,-187.33"/>
<polygon fill="midnightblue" stroke="midnightblue" points="78.53,-183.84 68.07,-185.51 77.29,-190.73 78.53,-183.84"/>
</g>
<!-- Node3 -->
<g id="node3" class="node">
<title>Node3</title>
<g id="a_node3"><a xlink:href="io_8h.html" target="_top" xlink:title=" ">
<polygon fill="none" stroke="black" points="266.5,-0.5 266.5,-19.5 301.5,-19.5 301.5,-0.5 266.5,-0.5"/>
<text text-anchor="middle" x="284" y="-7.5" font-family="Helvetica,sans-Serif" font-size="10.00">io.h</text>
</a>
</g>
</g>
<!-- Node1&#45;&gt;Node3 -->
<g id="edge2" class="edge">
<title>Node1&#45;&gt;Node3</title>
<path fill="none" stroke="midnightblue" d="M325.47,-231.79C260.53,-228.94 141.36,-219.46 115,-188 59.95,-122.29 196.65,-50.21 257.05,-22.62"/>
<polygon fill="midnightblue" stroke="midnightblue" points="258.69,-25.72 266.38,-18.43 255.82,-19.33 258.69,-25.72"/>
</g>
<!-- Node4 -->
<g id="node4" class="node">
<title>Node4</title>
<g id="a_node4"><a xlink:href="bios_8h.html" target="_top" xlink:title=" ">
<polygon fill="none" stroke="black" points="595,-56.5 595,-75.5 641,-75.5 641,-56.5 595,-56.5"/>
<text text-anchor="middle" x="618" y="-63.5" font-family="Helvetica,sans-Serif" font-size="10.00">bios.h</text>
</a>
</g>
</g>
<!-- Node1&#45;&gt;Node4 -->
<g id="edge3" class="edge">
<title>Node1&#45;&gt;Node4</title>
<path fill="none" stroke="midnightblue" d="M402.27,-224.5C428.88,-217.07 466.15,-204.84 496,-188 530.1,-168.77 536.26,-159.62 564,-132 579.35,-116.72 594.96,-97.44 605.42,-83.86"/>
<polygon fill="midnightblue" stroke="midnightblue" points="608.23,-85.94 611.5,-75.86 602.66,-81.7 608.23,-85.94"/>
</g>
<!-- Node6 -->
<g id="node6" class="node">
<title>Node6</title>
<g id="a_node6"><a xlink:href="workarea_8h.html" target="_top" xlink:title=" ">
<polygon fill="none" stroke="black" points="659.5,-56.5 659.5,-75.5 730.5,-75.5 730.5,-56.5 659.5,-56.5"/>
<text text-anchor="middle" x="695" y="-63.5" font-family="Helvetica,sans-Serif" font-size="10.00">workarea.h</text>
</a>
</g>
</g>
<!-- Node1&#45;&gt;Node6 -->
<g id="edge5" class="edge">
<title>Node1&#45;&gt;Node6</title>
<path fill="none" stroke="midnightblue" d="M410.73,-224.87C443.14,-217.74 488.21,-205.72 525,-188 585.9,-158.67 648.33,-107.82 677.71,-82.4"/>
<polygon fill="midnightblue" stroke="midnightblue" points="680.19,-84.88 685.41,-75.66 675.58,-79.61 680.19,-84.88"/>
</g>
<!-- Node7 -->
<g id="node7" class="node">
<title>Node7</title>
<g id="a_node7"><a xlink:href="vdp_8h.html" target="_top" xlink:title=" ">
<polygon fill="none" stroke="black" points="511,-112.5 511,-131.5 555,-131.5 555,-112.5 511,-112.5"/>
<text text-anchor="middle" x="533" y="-119.5" font-family="Helvetica,sans-Serif" font-size="10.00">vdp.h</text>
</a>
</g>
</g>
<!-- Node1&#45;&gt;Node7 -->
<g id="edge7" class="edge">
<title>Node1&#45;&gt;Node7</title>
<path fill="none" stroke="midnightblue" d="M394.59,-224.47C416.07,-216.85 446.49,-204.37 470,-188 489.65,-174.32 508.23,-153.89 520.05,-139.6"/>
<polygon fill="midnightblue" stroke="midnightblue" points="522.94,-141.6 526.48,-131.61 517.49,-137.2 522.94,-141.6"/>
</g>
<!-- Node10 -->
<g id="node10" class="node">
<title>Node10</title>
<g id="a_node10"><a xlink:href="vmem_8h.html" target="_top" xlink:title=" ">
<polygon fill="none" stroke="black" points="255.5,-56.5 255.5,-75.5 312.5,-75.5 312.5,-56.5 255.5,-56.5"/>
<text text-anchor="middle" x="284" y="-63.5" font-family="Helvetica,sans-Serif" font-size="10.00">vmem.h</text>
</a>
</g>
</g>
<!-- Node1&#45;&gt;Node10 -->
<g id="edge17" class="edge">
<title>Node1&#45;&gt;Node10</title>
<path fill="none" stroke="midnightblue" d="M325.19,-226.24C284.72,-218.88 228.27,-205.74 215,-188 188.36,-152.4 235.57,-105.53 264.3,-81.93"/>
<polygon fill="midnightblue" stroke="midnightblue" points="266.54,-84.63 272.18,-75.66 262.18,-79.15 266.54,-84.63"/>
</g>
<!-- Node11 -->
<g id="node11" class="node">
<title>Node11</title>
<g id="a_node11"><a xlink:href="sprite_8h.html" target="_top" xlink:title=" ">
<polygon fill="none" stroke="black" points="293.5,-112.5 293.5,-131.5 346.5,-131.5 346.5,-112.5 293.5,-112.5"/>
<text text-anchor="middle" x="320" y="-119.5" font-family="Helvetica,sans-Serif" font-size="10.00">sprite.h</text>
</a>
</g>
</g>
<!-- Node1&#45;&gt;Node11 -->
<g id="edge18" class="edge">
<title>Node1&#45;&gt;Node11</title>
<path fill="none" stroke="midnightblue" d="M364.23,-224.37C356.42,-206.46 338.29,-164.92 327.83,-140.95"/>
<polygon fill="midnightblue" stroke="midnightblue" points="330.96,-139.36 323.75,-131.59 324.54,-142.16 330.96,-139.36"/>
</g>
<!-- Node12 -->
<g id="node12" class="node">
<title>Node12</title>
<g id="a_node12"><a xlink:href="sprite__color_8h.html" target="_top" xlink:title=" ">
<polygon fill="none" stroke="black" points="224,-168.5 224,-187.5 306,-187.5 306,-168.5 224,-168.5"/>
<text text-anchor="middle" x="265" y="-175.5" font-family="Helvetica,sans-Serif" font-size="10.00">sprite_color.h</text>
</a>
</g>
</g>
<!-- Node1&#45;&gt;Node12 -->
<g id="edge21" class="edge">
<title>Node1&#45;&gt;Node12</title>
<path fill="none" stroke="midnightblue" d="M351.45,-224.32C335.01,-215.7 309.57,-202.36 290.53,-192.39"/>
<polygon fill="midnightblue" stroke="midnightblue" points="291.99,-189.2 281.51,-187.65 288.74,-195.4 291.99,-189.2"/>
</g>
<!-- Node13 -->
<g id="node13" class="node">
<title>Node13</title>
<g id="a_node13"><a xlink:href="metasprite_8h.html" target="_top" xlink:title=" ">
<polygon fill="none" stroke="black" points="362.5,-168.5 362.5,-187.5 441.5,-187.5 441.5,-168.5 362.5,-168.5"/>
<text text-anchor="middle" x="402" y="-175.5" font-family="Helvetica,sans-Serif" font-size="10.00">metasprite.h</text>
</a>
</g>
</g>
<!-- Node1&#45;&gt;Node13 -->
<g id="edge25" class="edge">
<title>Node1&#45;&gt;Node13</title>
<path fill="none" stroke="midnightblue" d="M373.61,-224.08C378.37,-216.53 385.32,-205.49 391.15,-196.23"/>
<polygon fill="midnightblue" stroke="midnightblue" points="394.12,-198.08 396.49,-187.75 388.2,-194.35 394.12,-198.08"/>
</g>
<!-- Node14 -->
<g id="node14" class="node">
<title>Node14</title>
<g id="a_node14"><a xlink:href="input_8h.html" target="_top" xlink:title=" ">
<polygon fill="none" stroke="black" points="443,-112.5 443,-131.5 493,-131.5 493,-112.5 443,-112.5"/>
<text text-anchor="middle" x="468" y="-119.5" font-family="Helvetica,sans-Serif" font-size="10.00">input.h</text>
</a>
</g>
</g>
<!-- Node1&#45;&gt;Node14 -->
<g id="edge30" class="edge">
<title>Node1&#45;&gt;Node14</title>
<path fill="none" stroke="midnightblue" d="M394.95,-224.48C413.02,-217.44 435.99,-205.7 450,-188 460.55,-174.67 464.92,-155.55 466.73,-141.5"/>
<polygon fill="midnightblue" stroke="midnightblue" points="470.22,-141.82 467.7,-131.52 463.25,-141.14 470.22,-141.82"/>
</g>
<!-- Node15 -->
<g id="node15" class="node">
<title>Node15</title>
<g id="a_node15"><a xlink:href="psg_8h.html" target="_top" xlink:title=" ">
<polygon fill="none" stroke="black" points="124.5,-168.5 124.5,-187.5 167.5,-187.5 167.5,-168.5 124.5,-168.5"/>
<text text-anchor="middle" x="146" y="-175.5" font-family="Helvetica,sans-Serif" font-size="10.00">psg.h</text>
</a>
</g>
</g>
<!-- Node1&#45;&gt;Node15 -->
<g id="edge33" class="edge">
<title>Node1&#45;&gt;Node15</title>
<path fill="none" stroke="midnightblue" d="M332.32,-224.45C294.87,-215.46 234.26,-200.86 182,-188 180.55,-187.64 179.07,-187.28 177.58,-186.91"/>
<polygon fill="midnightblue" stroke="midnightblue" points="178.24,-183.47 167.7,-184.45 176.56,-190.26 178.24,-183.47"/>
</g>
<!-- Node16 -->
<g id="node16" class="node">
<title>Node16</title>
<g id="a_node16"><a xlink:href="sound_8h.html" target="_top" xlink:title=" ">
<polygon fill="none" stroke="black" points="781.5,-112.5 781.5,-131.5 836.5,-131.5 836.5,-112.5 781.5,-112.5"/>
<text text-anchor="middle" x="809" y="-119.5" font-family="Helvetica,sans-Serif" font-size="10.00">sound.h</text>
</a>
</g>
</g>
<!-- Node1&#45;&gt;Node16 -->
<g id="edge35" class="edge">
<title>Node1&#45;&gt;Node16</title>
<path fill="none" stroke="midnightblue" d="M410.74,-231.26C471.93,-227.8 587.44,-217.59 681,-188 720.4,-175.54 762.46,-151.95 787.21,-136.88"/>
<polygon fill="midnightblue" stroke="midnightblue" points="789.14,-139.8 795.8,-131.56 785.46,-133.84 789.14,-139.8"/>
</g>
<!-- Node5 -->
<g id="node5" class="node">
<title>Node5</title>
<g id="a_node5"><a xlink:title=" ">
<polygon fill="none" stroke="#bfbfbf" points="371.5,-0.5 371.5,-19.5 424.5,-19.5 424.5,-0.5 371.5,-0.5"/>
<text text-anchor="middle" x="398" y="-7.5" font-family="Helvetica,sans-Serif" font-size="10.00">stdint.h</text>
</a>
</g>
</g>
<!-- Node4&#45;&gt;Node5 -->
<g id="edge4" class="edge">
<title>Node4&#45;&gt;Node5</title>
<path fill="none" stroke="midnightblue" d="M594.87,-59.32C556.62,-49.93 479.87,-31.1 434.32,-19.92"/>
<polygon fill="midnightblue" stroke="midnightblue" points="435.1,-16.5 424.55,-17.52 433.43,-23.3 435.1,-16.5"/>
</g>
<!-- Node6&#45;&gt;Node5 -->
<g id="edge6" class="edge">
<title>Node6&#45;&gt;Node5</title>
<path fill="none" stroke="midnightblue" d="M659.15,-57.76C656.06,-57.16 652.97,-56.56 650,-56 573.52,-41.52 483.73,-25.79 434.64,-17.3"/>
<polygon fill="midnightblue" stroke="midnightblue" points="434.97,-13.8 424.52,-15.55 433.78,-20.7 434.97,-13.8"/>
</g>
<!-- Node7&#45;&gt;Node3 -->
<g id="edge11" class="edge">
<title>Node7&#45;&gt;Node3</title>
<path fill="none" stroke="midnightblue" d="M532.56,-112.35C531.35,-98.28 526.83,-70.57 510,-56 495.08,-43.08 368.94,-23.35 311.86,-14.98"/>
<polygon fill="midnightblue" stroke="midnightblue" points="312.13,-11.48 301.73,-13.5 311.12,-18.41 312.13,-11.48"/>
</g>
<!-- Node7&#45;&gt;Node4 -->
<g id="edge15" class="edge">
<title>Node7&#45;&gt;Node4</title>
<path fill="none" stroke="midnightblue" d="M546.66,-112.32C559.92,-103.9 580.27,-90.97 595.85,-81.07"/>
<polygon fill="midnightblue" stroke="midnightblue" points="597.81,-83.97 604.38,-75.65 594.06,-78.06 597.81,-83.97"/>
</g>
<!-- Node7&#45;&gt;Node5 -->
<g id="edge10" class="edge">
<title>Node7&#45;&gt;Node5</title>
<path fill="none" stroke="midnightblue" d="M537.89,-112.48C544.84,-99.09 555.46,-72.91 543,-56 518.35,-22.54 469.05,-13.22 434.82,-11.01"/>
<polygon fill="midnightblue" stroke="midnightblue" points="434.88,-7.51 424.73,-10.53 434.55,-14.5 434.88,-7.51"/>
</g>
<!-- Node7&#45;&gt;Node6 -->
<g id="edge16" class="edge">
<title>Node7&#45;&gt;Node6</title>
<path fill="none" stroke="midnightblue" d="M555.19,-113.6C582.08,-104.64 627.76,-89.41 659.55,-78.82"/>
<polygon fill="midnightblue" stroke="midnightblue" points="660.97,-82.03 669.35,-75.55 658.75,-75.39 660.97,-82.03"/>
</g>
<!-- Node8 -->
<g id="node8" class="node">
<title>Node8</title>
<g id="a_node8"><a xlink:title=" ">
<polygon fill="none" stroke="#bfbfbf" points="445,-56.5 445,-75.5 501,-75.5 501,-56.5 445,-56.5"/>
<text text-anchor="middle" x="473" y="-63.5" font-family="Helvetica,sans-Serif" font-size="10.00">assert.h</text>
</a>
</g>
</g>
<!-- Node7&#45;&gt;Node8 -->
<g id="edge8" class="edge">
<title>Node7&#45;&gt;Node8</title>
<path fill="none" stroke="midnightblue" d="M523.36,-112.32C514.49,-104.34 501.13,-92.31 490.39,-82.65"/>
<polygon fill="midnightblue" stroke="midnightblue" points="492.59,-79.92 482.82,-75.83 487.91,-85.13 492.59,-79.92"/>
</g>
<!-- Node9 -->
<g id="node9" class="node">
<title>Node9</title>
<g id="a_node9"><a xlink:title=" ">
<polygon fill="none" stroke="#bfbfbf" points="749,-56.5 749,-75.5 811,-75.5 811,-56.5 749,-56.5"/>
<text text-anchor="middle" x="780" y="-63.5" font-family="Helvetica,sans-Serif" font-size="10.00">stdbool.h</text>
</a>
</g>
</g>
<!-- Node7&#45;&gt;Node9 -->
<g id="edge9" class="edge">
<title>Node7&#45;&gt;Node9</title>
<path fill="none" stroke="midnightblue" d="M555.07,-116.26C591.3,-108.46 665.89,-92.36 739.14,-76.18"/>
<polygon fill="midnightblue" stroke="midnightblue" points="739.99,-79.58 749,-74 738.48,-72.74 739.99,-79.58"/>
</g>
<!-- Node7&#45;&gt;Node10 -->
<g id="edge12" class="edge">
<title>Node7&#45;&gt;Node10</title>
<path fill="none" stroke="midnightblue" d="M510.71,-114.3C507.79,-113.49 504.83,-112.7 502,-112 439.67,-96.54 366.4,-82.19 322.66,-74.02"/>
<polygon fill="midnightblue" stroke="midnightblue" points="323.2,-70.56 312.73,-72.18 321.92,-77.45 323.2,-70.56"/>
</g>
<!-- Node10&#45;&gt;Node3 -->
<g id="edge14" class="edge">
<title>Node10&#45;&gt;Node3</title>
<path fill="none" stroke="midnightblue" d="M284,-56.08C284,-49.01 284,-38.86 284,-29.99"/>
<polygon fill="midnightblue" stroke="midnightblue" points="287.5,-29.75 284,-19.75 280.5,-29.75 287.5,-29.75"/>
</g>
<!-- Node10&#45;&gt;Node5 -->
<g id="edge13" class="edge">
<title>Node10&#45;&gt;Node5</title>
<path fill="none" stroke="midnightblue" d="M302.06,-56.44C320.57,-47.68 349.58,-33.94 370.86,-23.86"/>
<polygon fill="midnightblue" stroke="midnightblue" points="372.48,-26.96 380.02,-19.52 369.49,-20.63 372.48,-26.96"/>
</g>
<!-- Node11&#45;&gt;Node5 -->
<g id="edge19" class="edge">
<title>Node11&#45;&gt;Node5</title>
<path fill="none" stroke="midnightblue" d="M326.04,-112.12C334.6,-99.55 350.82,-75.9 365,-56 371.69,-46.61 379.29,-36.23 385.51,-27.81"/>
<polygon fill="midnightblue" stroke="midnightblue" points="388.46,-29.7 391.6,-19.58 382.84,-25.53 388.46,-29.7"/>
</g>
<!-- Node11&#45;&gt;Node10 -->
<g id="edge20" class="edge">
<title>Node11&#45;&gt;Node10</title>
<path fill="none" stroke="midnightblue" d="M314.06,-112.08C309.02,-104.53 301.66,-93.49 295.49,-84.23"/>
<polygon fill="midnightblue" stroke="midnightblue" points="298.29,-82.13 289.83,-75.75 292.47,-86.01 298.29,-82.13"/>
</g>
<!-- Node12&#45;&gt;Node5 -->
<g id="edge22" class="edge">
<title>Node12&#45;&gt;Node5</title>
<path fill="none" stroke="midnightblue" d="M259.75,-168.35C247.52,-146.96 220.04,-90.76 246,-56 259.82,-37.49 320.89,-23.9 361.29,-16.75"/>
<polygon fill="midnightblue" stroke="midnightblue" points="362.06,-20.16 371.32,-15.02 360.87,-13.26 362.06,-20.16"/>
</g>
<!-- Node12&#45;&gt;Node10 -->
<g id="edge24" class="edge">
<title>Node12&#45;&gt;Node10</title>
<path fill="none" stroke="midnightblue" d="M266.49,-168.37C269.56,-150.62 276.63,-109.67 280.79,-85.6"/>
<polygon fill="midnightblue" stroke="midnightblue" points="284.26,-86.04 282.52,-75.59 277.36,-84.85 284.26,-86.04"/>
</g>
<!-- Node12&#45;&gt;Node11 -->
<g id="edge23" class="edge">
<title>Node12&#45;&gt;Node11</title>
<path fill="none" stroke="midnightblue" d="M274.08,-168.08C282.17,-160.14 294.2,-148.34 303.91,-138.8"/>
<polygon fill="midnightblue" stroke="midnightblue" points="306.4,-141.25 311.09,-131.75 301.5,-136.26 306.4,-141.25"/>
</g>
<!-- Node13&#45;&gt;Node5 -->
<g id="edge26" class="edge">
<title>Node13&#45;&gt;Node5</title>
<path fill="none" stroke="midnightblue" d="M401.78,-168.08C401.16,-141.95 399.31,-65.21 398.45,-29.58"/>
<polygon fill="midnightblue" stroke="midnightblue" points="401.95,-29.48 398.21,-19.57 394.95,-29.65 401.95,-29.48"/>
</g>
<!-- Node13&#45;&gt;Node7 -->
<g id="edge27" class="edge">
<title>Node13&#45;&gt;Node7</title>
<path fill="none" stroke="midnightblue" d="M422.76,-168.44C444.32,-159.56 478.26,-145.56 502.79,-135.45"/>
<polygon fill="midnightblue" stroke="midnightblue" points="504.43,-138.56 512.34,-131.52 501.76,-132.09 504.43,-138.56"/>
</g>
<!-- Node13&#45;&gt;Node10 -->
<g id="edge28" class="edge">
<title>Node13&#45;&gt;Node10</title>
<path fill="none" stroke="midnightblue" d="M397.12,-168.2C389.43,-154.89 373.46,-129.37 355,-112 341.66,-99.45 324.33,-88.39 310.14,-80.37"/>
<polygon fill="midnightblue" stroke="midnightblue" points="311.79,-77.29 301.33,-75.56 308.43,-83.43 311.79,-77.29"/>
</g>
<!-- Node13&#45;&gt;Node11 -->
<g id="edge29" class="edge">
<title>Node13&#45;&gt;Node11</title>
<path fill="none" stroke="midnightblue" d="M388.83,-168.32C376.15,-159.98 356.77,-147.21 341.79,-137.35"/>
<polygon fill="midnightblue" stroke="midnightblue" points="343.42,-134.23 333.14,-131.65 339.57,-140.08 343.42,-134.23"/>
</g>
<!-- Node14&#45;&gt;Node5 -->
<g id="edge32" class="edge">
<title>Node14&#45;&gt;Node5</title>
<path fill="none" stroke="midnightblue" d="M461.39,-112.2C454.74,-103.24 444.32,-88.88 436,-76 425.83,-60.25 415.12,-41.74 407.68,-28.51"/>
<polygon fill="midnightblue" stroke="midnightblue" points="410.61,-26.59 402.68,-19.56 404.5,-30 410.61,-26.59"/>
</g>
<!-- Node14&#45;&gt;Node8 -->
<g id="edge31" class="edge">
<title>Node14&#45;&gt;Node8</title>
<path fill="none" stroke="midnightblue" d="M468.83,-112.08C469.48,-105.01 470.42,-94.86 471.24,-85.99"/>
<polygon fill="midnightblue" stroke="midnightblue" points="474.75,-86.03 472.19,-75.75 467.78,-85.39 474.75,-86.03"/>
</g>
<!-- Node15&#45;&gt;Node5 -->
<g id="edge34" class="edge">
<title>Node15&#45;&gt;Node5</title>
<path fill="none" stroke="midnightblue" d="M149.72,-168.44C159.83,-146.24 189.99,-86.43 234,-56 272.3,-29.52 325.64,-18.59 360.96,-14.1"/>
<polygon fill="midnightblue" stroke="midnightblue" points="361.78,-17.53 371.31,-12.9 360.97,-10.57 361.78,-17.53"/>
</g>
<!-- Node16&#45;&gt;Node5 -->
<g id="edge37" class="edge">
<title>Node16&#45;&gt;Node5</title>
<path fill="none" stroke="midnightblue" d="M814.46,-112.18C822.24,-98.39 834.08,-71.66 820,-56 794.42,-27.55 532.61,-15.64 434.69,-12.16"/>
<polygon fill="midnightblue" stroke="midnightblue" points="434.77,-8.66 424.66,-11.82 434.53,-15.66 434.77,-8.66"/>
</g>
<!-- Node16&#45;&gt;Node9 -->
<g id="edge36" class="edge">
<title>Node16&#45;&gt;Node9</title>
<path fill="none" stroke="midnightblue" d="M804.21,-112.08C800.24,-104.69 794.47,-93.95 789.57,-84.81"/>
<polygon fill="midnightblue" stroke="midnightblue" points="792.51,-82.91 784.7,-75.75 786.35,-86.22 792.51,-82.91"/>
</g>
<!-- Node17 -->
<g id="node17" class="node">
<title>Node17</title>
<g id="a_node17"><a xlink:title=" ">
<polygon fill="none" stroke="#bfbfbf" points="867.5,-56.5 867.5,-75.5 920.5,-75.5 920.5,-56.5 867.5,-56.5"/>
<text text-anchor="middle" x="894" y="-63.5" font-family="Helvetica,sans-Serif" font-size="10.00">stdlib.h</text>
</a>
</g>
</g>
<!-- Node16&#45;&gt;Node17 -->
<g id="edge38" class="edge">
<title>Node16&#45;&gt;Node17</title>
<path fill="none" stroke="midnightblue" d="M822.66,-112.32C835.92,-103.9 856.27,-90.97 871.85,-81.07"/>
<polygon fill="midnightblue" stroke="midnightblue" points="873.81,-83.97 880.38,-75.65 870.06,-78.06 873.81,-83.97"/>
</g>
</g>
</svg>
