<?xml version="1.0" encoding="UTF-8" standalone="no"?>
<!DOCTYPE svg PUBLIC "-//W3C//DTD SVG 1.1//EN"
 "http://www.w3.org/Graphics/SVG/1.1/DTD/svg11.dtd">
<!-- Generated by graphviz version 2.44.0 ()
 -->
<!-- Title: include/msx.h Pages: 1 -->
<svg width="831pt" height="252pt"
 viewBox="0.00 0.00 831.37 252.00" xmlns="http://www.w3.org/2000/svg" xmlns:xlink="http://www.w3.org/1999/xlink">
<g id="graph0" class="graph" transform="scale(1 1) rotate(0) translate(4 248)">
<title>include/msx.h</title>
<!-- Node1 -->
<g id="node1" class="node">
<title>Node1</title>
<g id="a_node1"><a xlink:title="Copyright (c) 2021 Daishi Mori (mori0091)">
<polygon fill="#bfbfbf" stroke="black" points="333.87,-224.5 333.87,-243.5 409.87,-243.5 409.87,-224.5 333.87,-224.5"/>
<text text-anchor="middle" x="371.87" y="-231.5" font-family="Helvetica,sans-Serif" font-size="10.00">include/msx.h</text>
</a>
</g>
</g>
<!-- Node2 -->
<g id="node2" class="node">
<title>Node2</title>
<g id="a_node2"><a xlink:href="interrupt_8h.html" target="_top" xlink:title="Copyright (c) 2021 Daishi Mori (mori0091)">
<polygon fill="none" stroke="black" points="629.37,-112.5 629.37,-131.5 688.37,-131.5 688.37,-112.5 629.37,-112.5"/>
<text text-anchor="middle" x="658.87" y="-119.5" font-family="Helvetica,sans-Serif" font-size="10.00">interrupt.h</text>
</a>
</g>
</g>
<!-- Node1&#45;&gt;Node2 -->
<g id="edge1" class="edge">
<title>Node1&#45;&gt;Node2</title>
<path fill="none" stroke="midnightblue" d="M410.05,-226.67C446.81,-219.82 503.49,-207.21 549.87,-188 582.83,-174.35 617.69,-151.97 638.87,-137.36"/>
<polygon fill="midnightblue" stroke="midnightblue" points="640.88,-140.23 647.06,-131.63 636.86,-134.5 640.88,-140.23"/>
</g>
<!-- Node5 -->
<g id="node5" class="node">
<title>Node5</title>
<g id="a_node5"><a xlink:href="io_8h.html" target="_top" xlink:title="Copyright (c) 2021 Daishi Mori (mori0091)">
<polygon fill="none" stroke="black" points="74.87,-0.5 74.87,-19.5 106.87,-19.5 106.87,-0.5 74.87,-0.5"/>
<text text-anchor="middle" x="90.87" y="-7.5" font-family="Helvetica,sans-Serif" font-size="10.00">io.h</text>
</a>
</g>
</g>
<!-- Node1&#45;&gt;Node5 -->
<g id="edge4" class="edge">
<title>Node1&#45;&gt;Node5</title>
<path fill="none" stroke="midnightblue" d="M333.62,-230.36C267.11,-225.21 133.5,-212.12 93.87,-188 34.68,-151.97 -24.11,-115.82 10.87,-56 22.48,-36.15 46.42,-24.38 65.1,-17.89"/>
<polygon fill="midnightblue" stroke="midnightblue" points="66.35,-21.17 74.82,-14.81 64.23,-14.49 66.35,-21.17"/>
</g>
<!-- Node6 -->
<g id="node6" class="node">
<title>Node6</title>
<g id="a_node6"><a xlink:href="bios_8h.html" target="_top" xlink:title="Copyright (c) 2021 Daishi Mori (mori0091)">
<polygon fill="none" stroke="black" points="445.87,-56.5 445.87,-75.5 487.87,-75.5 487.87,-56.5 445.87,-56.5"/>
<text text-anchor="middle" x="466.87" y="-63.5" font-family="Helvetica,sans-Serif" font-size="10.00">bios.h</text>
</a>
</g>
</g>
<!-- Node1&#45;&gt;Node6 -->
<g id="edge5" class="edge">
<title>Node1&#45;&gt;Node6</title>
<path fill="none" stroke="midnightblue" d="M378.68,-224.2C385.52,-215.24 396.26,-200.89 404.87,-188 421.05,-163.79 425.53,-157.88 438.87,-132 446.87,-116.49 454.62,-98.18 459.92,-84.96"/>
<polygon fill="midnightblue" stroke="midnightblue" points="463.2,-86.17 463.62,-75.59 456.69,-83.61 463.2,-86.17"/>
</g>
<!-- Node7 -->
<g id="node7" class="node">
<title>Node7</title>
<g id="a_node7"><a xlink:href="workarea_8h.html" target="_top" xlink:title="Copyright (c) 2021 Daishi Mori (mori0091)">
<polygon fill="none" stroke="black" points="505.87,-56.5 505.87,-75.5 569.87,-75.5 569.87,-56.5 505.87,-56.5"/>
<text text-anchor="middle" x="537.87" y="-63.5" font-family="Helvetica,sans-Serif" font-size="10.00">workarea.h</text>
</a>
</g>
</g>
<!-- Node1&#45;&gt;Node7 -->
<g id="edge7" class="edge">
<title>Node1&#45;&gt;Node7</title>
<path fill="none" stroke="midnightblue" d="M382.99,-224.43C394.16,-215.66 411.71,-201.44 425.87,-188 463.22,-152.55 503.39,-107.16 523.97,-83.32"/>
<polygon fill="midnightblue" stroke="midnightblue" points="526.77,-85.43 530.62,-75.57 521.46,-80.88 526.77,-85.43"/>
</g>
<!-- Node8 -->
<g id="node8" class="node">
<title>Node8</title>
<g id="a_node8"><a xlink:href="vdp_8h.html" target="_top" xlink:title="Copyright (c) 2021 Daishi Mori (mori0091)">
<polygon fill="none" stroke="black" points="389.87,-112.5 389.87,-131.5 429.87,-131.5 429.87,-112.5 389.87,-112.5"/>
<text text-anchor="middle" x="409.87" y="-119.5" font-family="Helvetica,sans-Serif" font-size="10.00">vdp.h</text>
</a>
</g>
</g>
<!-- Node1&#45;&gt;Node8 -->
<g id="edge9" class="edge">
<title>Node1&#45;&gt;Node8</title>
<path fill="none" stroke="midnightblue" d="M374.86,-224.37C381.02,-206.54 395.26,-165.3 403.56,-141.27"/>
<polygon fill="midnightblue" stroke="midnightblue" points="406.95,-142.19 406.91,-131.59 400.33,-139.9 406.95,-142.19"/>
</g>
<!-- Node10 -->
<g id="node10" class="node">
<title>Node10</title>
<g id="a_node10"><a xlink:href="vmem_8h.html" target="_top" xlink:title="Copyright (c) 2021 Daishi Mori (mori0091)">
<polygon fill="none" stroke="black" points="116.37,-56.5 116.37,-75.5 167.37,-75.5 167.37,-56.5 116.37,-56.5"/>
<text text-anchor="middle" x="141.87" y="-63.5" font-family="Helvetica,sans-Serif" font-size="10.00">vmem.h</text>
</a>
</g>
</g>
<!-- Node1&#45;&gt;Node10 -->
<g id="edge19" class="edge">
<title>Node1&#45;&gt;Node10</title>
<path fill="none" stroke="midnightblue" d="M333.49,-231.45C272.96,-228.11 159.65,-217.92 134.87,-188 110.69,-158.8 124.02,-110.76 134.03,-84.87"/>
<polygon fill="midnightblue" stroke="midnightblue" points="137.3,-86.12 137.88,-75.54 130.83,-83.45 137.3,-86.12"/>
</g>
<!-- Node11 -->
<g id="node11" class="node">
<title>Node11</title>
<g id="a_node11"><a xlink:href="sprite_8h.html" target="_top" xlink:title="Copyright (c) 2021 Daishi Mori (mori0091)">
<polygon fill="none" stroke="black" points="181.87,-112.5 181.87,-131.5 229.87,-131.5 229.87,-112.5 181.87,-112.5"/>
<text text-anchor="middle" x="205.87" y="-119.5" font-family="Helvetica,sans-Serif" font-size="10.00">sprite.h</text>
</a>
</g>
</g>
<!-- Node1&#45;&gt;Node11 -->
<g id="edge20" class="edge">
<title>Node1&#45;&gt;Node11</title>
<path fill="none" stroke="midnightblue" d="M342.42,-224.48C319.88,-217.08 288.73,-204.88 264.87,-188 246.1,-174.71 228.95,-154.5 218.04,-140.14"/>
<polygon fill="midnightblue" stroke="midnightblue" points="220.57,-137.67 211.82,-131.69 214.93,-141.82 220.57,-137.67"/>
</g>
<!-- Node12 -->
<g id="node12" class="node">
<title>Node12</title>
<g id="a_node12"><a xlink:href="sprite__color_8h.html" target="_top" xlink:title="Copyright (c) 2021 Daishi Mori (mori0091)">
<polygon fill="none" stroke="black" points="143.87,-168.5 143.87,-187.5 217.87,-187.5 217.87,-168.5 143.87,-168.5"/>
<text text-anchor="middle" x="180.87" y="-175.5" font-family="Helvetica,sans-Serif" font-size="10.00">sprite_color.h</text>
</a>
</g>
</g>
<!-- Node1&#45;&gt;Node12 -->
<g id="edge23" class="edge">
<title>Node1&#45;&gt;Node12</title>
<path fill="none" stroke="midnightblue" d="M341.61,-224.44C308.92,-215.2 256.69,-200.44 220.69,-190.26"/>
<polygon fill="midnightblue" stroke="midnightblue" points="221.57,-186.87 211,-187.52 219.67,-193.61 221.57,-186.87"/>
</g>
<!-- Node13 -->
<g id="node13" class="node">
<title>Node13</title>
<g id="a_node13"><a xlink:href="metasprite_8h.html" target="_top" xlink:title="Copyright (c) 2021 Daishi Mori (mori0091)">
<polygon fill="none" stroke="black" points="273.87,-168.5 273.87,-187.5 343.87,-187.5 343.87,-168.5 273.87,-168.5"/>
<text text-anchor="middle" x="308.87" y="-175.5" font-family="Helvetica,sans-Serif" font-size="10.00">metasprite.h</text>
</a>
</g>
</g>
<!-- Node1&#45;&gt;Node13 -->
<g id="edge27" class="edge">
<title>Node1&#45;&gt;Node13</title>
<path fill="none" stroke="midnightblue" d="M361.75,-224.32C352.35,-216.26 338.13,-204.08 326.8,-194.37"/>
<polygon fill="midnightblue" stroke="midnightblue" points="329.05,-191.68 319.18,-187.83 324.49,-197 329.05,-191.68"/>
</g>
<!-- Node14 -->
<g id="node14" class="node">
<title>Node14</title>
<g id="a_node14"><a xlink:href="input_8h.html" target="_top" xlink:title="Copyright (c) 2021 Daishi Mori (mori0091)">
<polygon fill="none" stroke="black" points="324.37,-112.5 324.37,-131.5 369.37,-131.5 369.37,-112.5 324.37,-112.5"/>
<text text-anchor="middle" x="346.87" y="-119.5" font-family="Helvetica,sans-Serif" font-size="10.00">input.h</text>
</a>
</g>
</g>
<!-- Node1&#45;&gt;Node14 -->
<g id="edge32" class="edge">
<title>Node1&#45;&gt;Node14</title>
<path fill="none" stroke="midnightblue" d="M369.91,-224.37C365.88,-206.62 356.57,-165.67 351.1,-141.6"/>
<polygon fill="midnightblue" stroke="midnightblue" points="354.46,-140.57 348.83,-131.59 347.63,-142.12 354.46,-140.57"/>
</g>
<!-- Node15 -->
<g id="node15" class="node">
<title>Node15</title>
<g id="a_node15"><a xlink:href="psg_8h.html" target="_top" xlink:title="Copyright (c) 2021 Daishi Mori (mori0091)">
<polygon fill="none" stroke="black" points="19.87,-56.5 19.87,-75.5 59.87,-75.5 59.87,-56.5 19.87,-56.5"/>
<text text-anchor="middle" x="39.87" y="-63.5" font-family="Helvetica,sans-Serif" font-size="10.00">psg.h</text>
</a>
</g>
</g>
<!-- Node1&#45;&gt;Node15 -->
<g id="edge35" class="edge">
<title>Node1&#45;&gt;Node15</title>
<path fill="none" stroke="midnightblue" d="M333.57,-229.8C272.22,-224.08 155.33,-210.53 120.87,-188 82.4,-162.84 57.71,-112.36 46.64,-85.24"/>
<polygon fill="midnightblue" stroke="midnightblue" points="49.85,-83.83 42.95,-75.78 43.32,-86.37 49.85,-83.83"/>
</g>
<!-- Node16 -->
<g id="node16" class="node">
<title>Node16</title>
<g id="a_node16"><a xlink:href="sound_8h.html" target="_top" xlink:title="Copyright (c) 2021 Daishi Mori (mori0091)">
<polygon fill="none" stroke="black" points="716.87,-112.5 716.87,-131.5 766.87,-131.5 766.87,-112.5 716.87,-112.5"/>
<text text-anchor="middle" x="741.87" y="-119.5" font-family="Helvetica,sans-Serif" font-size="10.00">sound.h</text>
</a>
</g>
</g>
<!-- Node1&#45;&gt;Node16 -->
<g id="edge38" class="edge">
<title>Node1&#45;&gt;Node16</title>
<path fill="none" stroke="midnightblue" d="M409.94,-226.91C452.41,-219.64 522.89,-206.15 581.87,-188 629.45,-173.36 682.62,-150.37 714.11,-136.02"/>
<polygon fill="midnightblue" stroke="midnightblue" points="715.91,-139.04 723.54,-131.68 712.99,-132.68 715.91,-139.04"/>
</g>
<!-- Node18 -->
<g id="node18" class="node">
<title>Node18</title>
<g id="a_node18"><a xlink:href="sound__eg_8h.html" target="_top" xlink:title="Copyright (c) 2021 Daishi Mori (mori0091)">
<polygon fill="none" stroke="black" points="544.87,-112.5 544.87,-131.5 610.87,-131.5 610.87,-112.5 544.87,-112.5"/>
<text text-anchor="middle" x="577.87" y="-119.5" font-family="Helvetica,sans-Serif" font-size="10.00">sound_eg.h</text>
</a>
</g>
</g>
<!-- Node1&#45;&gt;Node18 -->
<g id="edge42" class="edge">
<title>Node1&#45;&gt;Node18</title>
<path fill="none" stroke="midnightblue" d="M410.08,-228.23C442.77,-222.71 489.93,-211.21 524.87,-188 543.38,-175.71 558.65,-154.98 567.97,-140.23"/>
<polygon fill="midnightblue" stroke="midnightblue" points="571.04,-141.93 573.21,-131.56 565.05,-138.31 571.04,-141.93"/>
</g>
<!-- Node3 -->
<g id="node3" class="node">
<title>Node3</title>
<g id="a_node3"><a xlink:title=" ">
<polygon fill="none" stroke="#bfbfbf" points="625.87,-56.5 625.87,-75.5 681.87,-75.5 681.87,-56.5 625.87,-56.5"/>
<text text-anchor="middle" x="653.87" y="-63.5" font-family="Helvetica,sans-Serif" font-size="10.00">stdbool.h</text>
</a>
</g>
</g>
<!-- Node2&#45;&gt;Node3 -->
<g id="edge2" class="edge">
<title>Node2&#45;&gt;Node3</title>
<path fill="none" stroke="midnightblue" d="M658.05,-112.08C657.39,-105.01 656.45,-94.86 655.63,-85.99"/>
<polygon fill="midnightblue" stroke="midnightblue" points="659.09,-85.39 654.68,-75.75 652.12,-86.03 659.09,-85.39"/>
</g>
<!-- Node4 -->
<g id="node4" class="node">
<title>Node4</title>
<g id="a_node4"><a xlink:title=" ">
<polygon fill="none" stroke="#bfbfbf" points="320.87,-0.5 320.87,-19.5 368.87,-19.5 368.87,-0.5 320.87,-0.5"/>
<text text-anchor="middle" x="344.87" y="-7.5" font-family="Helvetica,sans-Serif" font-size="10.00">stdint.h</text>
</a>
</g>
</g>
<!-- Node2&#45;&gt;Node4 -->
<g id="edge3" class="edge">
<title>Node2&#45;&gt;Node4</title>
<path fill="none" stroke="midnightblue" d="M669.14,-112.16C683.43,-98.8 705.98,-73.2 690.87,-56 670.48,-32.78 462.76,-17.99 379.31,-12.94"/>
<polygon fill="midnightblue" stroke="midnightblue" points="379.27,-9.43 369.08,-12.33 378.85,-16.42 379.27,-9.43"/>
</g>
<!-- Node6&#45;&gt;Node4 -->
<g id="edge6" class="edge">
<title>Node6&#45;&gt;Node4</title>
<path fill="none" stroke="midnightblue" d="M447.54,-56.44C427.55,-47.6 396.13,-33.69 373.31,-23.59"/>
<polygon fill="midnightblue" stroke="midnightblue" points="374.68,-20.36 364.11,-19.52 371.84,-26.76 374.68,-20.36"/>
</g>
<!-- Node7&#45;&gt;Node4 -->
<g id="edge8" class="edge">
<title>Node7&#45;&gt;Node4</title>
<path fill="none" stroke="midnightblue" d="M507.29,-56.44C472.22,-46.63 414.89,-30.59 378.56,-20.43"/>
<polygon fill="midnightblue" stroke="midnightblue" points="379.48,-17.05 368.91,-17.73 377.6,-23.79 379.48,-17.05"/>
</g>
<!-- Node8&#45;&gt;Node3 -->
<g id="edge11" class="edge">
<title>Node8&#45;&gt;Node3</title>
<path fill="none" stroke="midnightblue" d="M430.26,-116.49C471.06,-107.46 563.34,-87.04 615.71,-75.45"/>
<polygon fill="midnightblue" stroke="midnightblue" points="616.62,-78.83 625.63,-73.25 615.11,-71.99 616.62,-78.83"/>
</g>
<!-- Node8&#45;&gt;Node4 -->
<g id="edge12" class="edge">
<title>Node8&#45;&gt;Node4</title>
<path fill="none" stroke="midnightblue" d="M409.34,-112.41C408.19,-99.37 404.65,-74.2 393.87,-56 386.96,-44.32 376.06,-33.87 366.29,-26"/>
<polygon fill="midnightblue" stroke="midnightblue" points="368.21,-23.05 358.14,-19.77 363.96,-28.62 368.21,-23.05"/>
</g>
<!-- Node8&#45;&gt;Node5 -->
<g id="edge13" class="edge">
<title>Node8&#45;&gt;Node5</title>
<path fill="none" stroke="midnightblue" d="M405.8,-112.13C398.69,-97.76 382.58,-69.62 359.87,-56 319.07,-31.52 176.52,-17.74 117.15,-12.95"/>
<polygon fill="midnightblue" stroke="midnightblue" points="117.31,-9.45 107.07,-12.16 116.77,-16.43 117.31,-9.45"/>
</g>
<!-- Node8&#45;&gt;Node6 -->
<g id="edge17" class="edge">
<title>Node8&#45;&gt;Node6</title>
<path fill="none" stroke="midnightblue" d="M419.03,-112.32C427.38,-104.42 439.91,-92.55 450.05,-82.94"/>
<polygon fill="midnightblue" stroke="midnightblue" points="452.7,-85.25 457.55,-75.83 447.88,-80.17 452.7,-85.25"/>
</g>
<!-- Node8&#45;&gt;Node7 -->
<g id="edge18" class="edge">
<title>Node8&#45;&gt;Node7</title>
<path fill="none" stroke="midnightblue" d="M430.16,-112.44C451.22,-103.56 484.39,-89.56 508.36,-79.45"/>
<polygon fill="midnightblue" stroke="midnightblue" points="509.83,-82.63 517.69,-75.52 507.11,-76.18 509.83,-82.63"/>
</g>
<!-- Node9 -->
<g id="node9" class="node">
<title>Node9</title>
<g id="a_node9"><a xlink:title=" ">
<polygon fill="none" stroke="#bfbfbf" points="300.37,-56.5 300.37,-75.5 351.37,-75.5 351.37,-56.5 300.37,-56.5"/>
<text text-anchor="middle" x="325.87" y="-63.5" font-family="Helvetica,sans-Serif" font-size="10.00">assert.h</text>
</a>
</g>
</g>
<!-- Node8&#45;&gt;Node9 -->
<g id="edge10" class="edge">
<title>Node8&#45;&gt;Node9</title>
<path fill="none" stroke="midnightblue" d="M396.38,-112.32C383.27,-103.9 363.16,-90.97 347.77,-81.07"/>
<polygon fill="midnightblue" stroke="midnightblue" points="349.64,-78.12 339.34,-75.65 345.86,-84.01 349.64,-78.12"/>
</g>
<!-- Node8&#45;&gt;Node10 -->
<g id="edge14" class="edge">
<title>Node8&#45;&gt;Node10</title>
<path fill="none" stroke="midnightblue" d="M389.63,-115.02C385.74,-113.96 381.69,-112.9 377.87,-112 307.44,-95.41 224.09,-80.64 177.67,-72.84"/>
<polygon fill="midnightblue" stroke="midnightblue" points="177.96,-69.34 167.52,-71.15 176.81,-76.25 177.96,-69.34"/>
</g>
<!-- Node10&#45;&gt;Node4 -->
<g id="edge15" class="edge">
<title>Node10&#45;&gt;Node4</title>
<path fill="none" stroke="midnightblue" d="M167.58,-58.16C203.97,-48.48 270.56,-30.77 310.96,-20.02"/>
<polygon fill="midnightblue" stroke="midnightblue" points="311.87,-23.4 320.64,-17.45 310.07,-16.64 311.87,-23.4"/>
</g>
<!-- Node10&#45;&gt;Node5 -->
<g id="edge16" class="edge">
<title>Node10&#45;&gt;Node5</title>
<path fill="none" stroke="midnightblue" d="M133.45,-56.08C126.03,-48.22 115.02,-36.57 106.06,-27.08"/>
<polygon fill="midnightblue" stroke="midnightblue" points="108.55,-24.62 99.14,-19.75 103.46,-29.42 108.55,-24.62"/>
</g>
<!-- Node11&#45;&gt;Node4 -->
<g id="edge21" class="edge">
<title>Node11&#45;&gt;Node4</title>
<path fill="none" stroke="midnightblue" d="M205.25,-112.26C204.78,-98.57 205.89,-71.99 219.87,-56 242.87,-29.72 282.39,-18.78 310.84,-14.23"/>
<polygon fill="midnightblue" stroke="midnightblue" points="311.36,-17.7 320.77,-12.83 310.38,-10.76 311.36,-17.7"/>
</g>
<!-- Node11&#45;&gt;Node10 -->
<g id="edge22" class="edge">
<title>Node11&#45;&gt;Node10</title>
<path fill="none" stroke="midnightblue" d="M195.59,-112.32C186.04,-104.26 171.59,-92.08 160.09,-82.37"/>
<polygon fill="midnightblue" stroke="midnightblue" points="162.24,-79.61 152.34,-75.83 157.73,-84.96 162.24,-79.61"/>
</g>
<!-- Node12&#45;&gt;Node4 -->
<g id="edge24" class="edge">
<title>Node12&#45;&gt;Node4</title>
<path fill="none" stroke="midnightblue" d="M168.15,-168.23C139.56,-147.49 75.14,-94.3 106.87,-56 132.38,-25.23 251.23,-15.34 310.74,-12.29"/>
<polygon fill="midnightblue" stroke="midnightblue" points="310.96,-15.79 320.78,-11.81 310.63,-8.79 310.96,-15.79"/>
</g>
<!-- Node12&#45;&gt;Node10 -->
<g id="edge26" class="edge">
<title>Node12&#45;&gt;Node10</title>
<path fill="none" stroke="midnightblue" d="M177.81,-168.37C171.49,-150.54 156.87,-109.3 148.35,-85.27"/>
<polygon fill="midnightblue" stroke="midnightblue" points="151.56,-83.85 144.92,-75.59 144.96,-86.19 151.56,-83.85"/>
</g>
<!-- Node12&#45;&gt;Node11 -->
<g id="edge25" class="edge">
<title>Node12&#45;&gt;Node11</title>
<path fill="none" stroke="midnightblue" d="M185,-168.08C188.39,-160.77 193.29,-150.18 197.49,-141.1"/>
<polygon fill="midnightblue" stroke="midnightblue" points="200.8,-142.3 201.82,-131.75 194.45,-139.36 200.8,-142.3"/>
</g>
<!-- Node13&#45;&gt;Node4 -->
<g id="edge28" class="edge">
<title>Node13&#45;&gt;Node4</title>
<path fill="none" stroke="midnightblue" d="M303.54,-168.28C291.65,-147.66 265.53,-94.69 284.87,-56 291.6,-42.54 304.48,-32.07 316.59,-24.62"/>
<polygon fill="midnightblue" stroke="midnightblue" points="318.61,-27.5 325.58,-19.52 315.15,-21.41 318.61,-27.5"/>
</g>
<!-- Node13&#45;&gt;Node8 -->
<g id="edge29" class="edge">
<title>Node13&#45;&gt;Node8</title>
<path fill="none" stroke="midnightblue" d="M325.1,-168.32C341.22,-159.7 366.17,-146.36 384.84,-136.39"/>
<polygon fill="midnightblue" stroke="midnightblue" points="386.52,-139.46 393.69,-131.65 383.22,-133.28 386.52,-139.46"/>
</g>
<!-- Node13&#45;&gt;Node10 -->
<g id="edge30" class="edge">
<title>Node13&#45;&gt;Node10</title>
<path fill="none" stroke="midnightblue" d="M300.99,-168.06C288.74,-154.58 263.93,-128.83 238.87,-112 218.97,-98.63 194.45,-87.3 175.05,-79.35"/>
<polygon fill="midnightblue" stroke="midnightblue" points="176.28,-76.07 165.7,-75.61 173.69,-82.57 176.28,-76.07"/>
</g>
<!-- Node13&#45;&gt;Node11 -->
<g id="edge31" class="edge">
<title>Node13&#45;&gt;Node11</title>
<path fill="none" stroke="midnightblue" d="M292.33,-168.32C275.88,-159.7 250.44,-146.36 231.41,-136.39"/>
<polygon fill="midnightblue" stroke="midnightblue" points="232.86,-133.2 222.38,-131.65 229.61,-139.4 232.86,-133.2"/>
</g>
<!-- Node14&#45;&gt;Node4 -->
<g id="edge34" class="edge">
<title>Node14&#45;&gt;Node4</title>
<path fill="none" stroke="midnightblue" d="M329.37,-112.46C316.09,-104.92 298.8,-92.53 290.87,-76 281.39,-56.22 301.41,-37.37 319.7,-25.11"/>
<polygon fill="midnightblue" stroke="midnightblue" points="321.8,-27.93 328.41,-19.65 318.08,-22 321.8,-27.93"/>
</g>
<!-- Node14&#45;&gt;Node9 -->
<g id="edge33" class="edge">
<title>Node14&#45;&gt;Node9</title>
<path fill="none" stroke="midnightblue" d="M343.41,-112.08C340.56,-104.77 336.44,-94.18 332.91,-85.1"/>
<polygon fill="midnightblue" stroke="midnightblue" points="336.16,-83.8 329.28,-75.75 329.64,-86.34 336.16,-83.8"/>
</g>
<!-- Node15&#45;&gt;Node4 -->
<g id="edge36" class="edge">
<title>Node15&#45;&gt;Node4</title>
<path fill="none" stroke="midnightblue" d="M59.93,-59.35C64.5,-58.16 69.34,-56.97 73.87,-56 158.5,-37.82 259.35,-22.8 310.88,-15.6"/>
<polygon fill="midnightblue" stroke="midnightblue" points="311.38,-19.06 320.8,-14.22 310.42,-12.13 311.38,-19.06"/>
</g>
<!-- Node15&#45;&gt;Node5 -->
<g id="edge37" class="edge">
<title>Node15&#45;&gt;Node5</title>
<path fill="none" stroke="midnightblue" d="M48.3,-56.08C55.72,-48.22 66.73,-36.57 75.69,-27.08"/>
<polygon fill="midnightblue" stroke="midnightblue" points="78.29,-29.42 82.61,-19.75 73.2,-24.62 78.29,-29.42"/>
</g>
<!-- Node16&#45;&gt;Node3 -->
<g id="edge39" class="edge">
<title>Node16&#45;&gt;Node3</title>
<path fill="none" stroke="midnightblue" d="M727.74,-112.32C714.01,-103.9 692.94,-90.97 676.81,-81.07"/>
<polygon fill="midnightblue" stroke="midnightblue" points="678.33,-77.9 667.98,-75.65 674.67,-83.87 678.33,-77.9"/>
</g>
<!-- Node16&#45;&gt;Node4 -->
<g id="edge40" class="edge">
<title>Node16&#45;&gt;Node4</title>
<path fill="none" stroke="midnightblue" d="M739.87,-112.1C736.11,-97.68 726.55,-69.47 706.87,-56 654.09,-19.87 459.22,-12.74 379.36,-11.34"/>
<polygon fill="midnightblue" stroke="midnightblue" points="378.93,-7.83 368.88,-11.18 378.82,-14.83 378.93,-7.83"/>
</g>
<!-- Node17 -->
<g id="node17" class="node">
<title>Node17</title>
<g id="a_node17"><a xlink:title=" ">
<polygon fill="none" stroke="#bfbfbf" points="776.37,-56.5 776.37,-75.5 823.37,-75.5 823.37,-56.5 776.37,-56.5"/>
<text text-anchor="middle" x="799.87" y="-63.5" font-family="Helvetica,sans-Serif" font-size="10.00">stdlib.h</text>
</a>
</g>
</g>
<!-- Node16&#45;&gt;Node17 -->
<g id="edge41" class="edge">
<title>Node16&#45;&gt;Node17</title>
<path fill="none" stroke="midnightblue" d="M751.19,-112.32C759.77,-104.34 772.69,-92.31 783.06,-82.65"/>
<polygon fill="midnightblue" stroke="midnightblue" points="785.45,-85.21 790.39,-75.83 780.68,-80.09 785.45,-85.21"/>
</g>
<!-- Node18&#45;&gt;Node3 -->
<g id="edge43" class="edge">
<title>Node18&#45;&gt;Node3</title>
<path fill="none" stroke="midnightblue" d="M590.08,-112.32C601.65,-104.11 619.25,-91.6 633.03,-81.81"/>
<polygon fill="midnightblue" stroke="midnightblue" points="635.32,-84.48 641.44,-75.83 631.26,-78.77 635.32,-84.48"/>
</g>
<!-- Node18&#45;&gt;Node4 -->
<g id="edge44" class="edge">
<title>Node18&#45;&gt;Node4</title>
<path fill="none" stroke="midnightblue" d="M581.21,-112.27C585.8,-98.59 592.1,-72.01 578.87,-56 553.95,-25.82 438.03,-15.67 379.24,-12.43"/>
<polygon fill="midnightblue" stroke="midnightblue" points="379.14,-8.92 368.97,-11.9 378.78,-15.91 379.14,-8.92"/>
</g>
</g>
</svg>
