<?xml version="1.0" encoding="UTF-8" standalone="no"?>
<!DOCTYPE svg PUBLIC "-//W3C//DTD SVG 1.1//EN"
 "http://www.w3.org/Graphics/SVG/1.1/DTD/svg11.dtd">
<!-- Generated by graphviz version 3.0.0 (20221109.1736)
 -->
<!-- Title: include/msx.h Pages: 1 -->
<svg width="872pt" height="308pt"
 viewBox="0.00 0.00 871.50 308.00" xmlns="http://www.w3.org/2000/svg" xmlns:xlink="http://www.w3.org/1999/xlink">
<g id="graph0" class="graph" transform="scale(1 1) rotate(0) translate(4 304)">
<title>include/msx.h</title>
<!-- Node1 -->
<g id="node1" class="node">
<title>Node1</title>
<g id="a_node1"><a xlink:title="Copyright (c) 2021 Daishi Mori (mori0091)">
<polygon fill="#bfbfbf" stroke="black" points="339,-280.5 339,-299.5 415,-299.5 415,-280.5 339,-280.5"/>
<text text-anchor="middle" x="377" y="-287.5" font-family="Helvetica,sans-Serif" font-size="10.00">include/msx.h</text>
</a>
</g>
</g>
<!-- Node2 -->
<g id="node2" class="node">
<title>Node2</title>
<g id="a_node2"><a xlink:href="config_8h.html" target="_top" xlink:title="Copyright (c) 2022 Daishi Mori (mori0091)">
<polygon fill="none" stroke="black" points="131,-0.5 131,-19.5 181,-19.5 181,-0.5 131,-0.5"/>
<text text-anchor="middle" x="156" y="-7.5" font-family="Helvetica,sans-Serif" font-size="10.00">config.h</text>
</a>
</g>
</g>
<!-- Node1&#45;&gt;Node2 -->
<g id="edge1" class="edge">
<title>Node1&#45;&gt;Node2</title>
<path fill="none" stroke="midnightblue" d="M338.78,-286.03C242.93,-277.52 0,-249.06 0,-179 0,-179 0,-179 0,-121 0,-62.15 75.06,-32.02 121.05,-19.08"/>
<polygon fill="midnightblue" stroke="midnightblue" points="122.18,-22.4 130.94,-16.43 120.37,-15.64 122.18,-22.4"/>
</g>
<!-- Node3 -->
<g id="node3" class="node">
<title>Node3</title>
<g id="a_node3"><a xlink:href="interrupt_8h.html" target="_top" xlink:title="Copyright (c) 2021 Daishi Mori (mori0091)">
<polygon fill="none" stroke="black" points="718.5,-168.5 718.5,-187.5 777.5,-187.5 777.5,-168.5 718.5,-168.5"/>
<text text-anchor="middle" x="748" y="-175.5" font-family="Helvetica,sans-Serif" font-size="10.00">interrupt.h</text>
</a>
</g>
</g>
<!-- Node1&#45;&gt;Node3 -->
<g id="edge2" class="edge">
<title>Node1&#45;&gt;Node3</title>
<path fill="none" stroke="midnightblue" d="M415.03,-287.8C491.22,-284.75 659.35,-274.66 707,-244 723.96,-233.09 735.18,-212.41 741.53,-197.29"/>
<polygon fill="midnightblue" stroke="midnightblue" points="744.82,-198.5 745.16,-187.91 738.29,-195.97 744.82,-198.5"/>
</g>
<!-- Node6 -->
<g id="node6" class="node">
<title>Node6</title>
<g id="a_node6"><a xlink:href="io_8h.html" target="_top" xlink:title="Copyright (c) 2021 Daishi Mori (mori0091)">
<polygon fill="none" stroke="black" points="70,-56.5 70,-75.5 102,-75.5 102,-56.5 70,-56.5"/>
<text text-anchor="middle" x="86" y="-63.5" font-family="Helvetica,sans-Serif" font-size="10.00">io.h</text>
</a>
</g>
</g>
<!-- Node1&#45;&gt;Node6 -->
<g id="edge5" class="edge">
<title>Node1&#45;&gt;Node6</title>
<path fill="none" stroke="midnightblue" d="M338.91,-287.09C295.62,-283.53 223.97,-273.31 170,-244 107.86,-210.25 84.21,-197.27 57,-132 50.06,-115.35 60.47,-96.54 70.7,-83.46"/>
<polygon fill="midnightblue" stroke="midnightblue" points="73.42,-85.67 77.21,-75.77 68.07,-81.14 73.42,-85.67"/>
</g>
<!-- Node7 -->
<g id="node7" class="node">
<title>Node7</title>
<g id="a_node7"><a xlink:href="bios_8h.html" target="_top" xlink:title="Copyright (c) 2021 Daishi Mori (mori0091)">
<polygon fill="none" stroke="black" points="162,-112.5 162,-131.5 204,-131.5 204,-112.5 162,-112.5"/>
<text text-anchor="middle" x="183" y="-119.5" font-family="Helvetica,sans-Serif" font-size="10.00">bios.h</text>
</a>
</g>
</g>
<!-- Node1&#45;&gt;Node7 -->
<g id="edge7" class="edge">
<title>Node1&#45;&gt;Node7</title>
<path fill="none" stroke="midnightblue" d="M338.73,-288.29C302.84,-285.55 250.04,-275.86 218,-244 190.31,-216.47 184.22,-168.47 183.07,-141.95"/>
<polygon fill="midnightblue" stroke="midnightblue" points="186.56,-141.65 182.83,-131.73 179.56,-141.81 186.56,-141.65"/>
</g>
<!-- Node10 -->
<g id="node10" class="node">
<title>Node10</title>
<g id="a_node10"><a xlink:href="workarea_8h.html" target="_top" xlink:title="Copyright (c) 2021 Daishi Mori (mori0091)">
<polygon fill="none" stroke="black" points="296,-56.5 296,-75.5 360,-75.5 360,-56.5 296,-56.5"/>
<text text-anchor="middle" x="328" y="-63.5" font-family="Helvetica,sans-Serif" font-size="10.00">workarea.h</text>
</a>
</g>
</g>
<!-- Node1&#45;&gt;Node10 -->
<g id="edge14" class="edge">
<title>Node1&#45;&gt;Node10</title>
<path fill="none" stroke="midnightblue" d="M360.49,-280.28C334.54,-265.45 285.48,-232.54 269,-188 260.9,-166.1 280.44,-116.52 283,-112 289.42,-100.66 299.47,-90.22 308.45,-82.26"/>
<polygon fill="midnightblue" stroke="midnightblue" points="310.86,-84.81 316.25,-75.69 306.35,-79.45 310.86,-84.81"/>
</g>
<!-- Node11 -->
<g id="node11" class="node">
<title>Node11</title>
<g id="a_node11"><a xlink:href="vdp_8h.html" target="_top" xlink:title="Data types and functions for VDP (Video Display Proccessor) access.">
<polygon fill="none" stroke="black" points="278,-168.5 278,-187.5 318,-187.5 318,-168.5 278,-168.5"/>
<text text-anchor="middle" x="298" y="-175.5" font-family="Helvetica,sans-Serif" font-size="10.00">vdp.h</text>
</a>
</g>
</g>
<!-- Node1&#45;&gt;Node11 -->
<g id="edge17" class="edge">
<title>Node1&#45;&gt;Node11</title>
<path fill="none" stroke="midnightblue" d="M366.81,-280.45C357.06,-271.91 342.34,-258.07 332,-244 321.18,-229.28 311.81,-210.65 305.67,-197.11"/>
<polygon fill="midnightblue" stroke="midnightblue" points="308.85,-195.65 301.62,-187.9 302.44,-198.46 308.85,-195.65"/>
</g>
<!-- Node13 -->
<g id="node13" class="node">
<title>Node13</title>
<g id="a_node13"><a xlink:href="vmem_8h.html" target="_top" xlink:title="Data types and functions for VRAM access.">
<polygon fill="none" stroke="black" points="406.5,-112.5 406.5,-131.5 457.5,-131.5 457.5,-112.5 406.5,-112.5"/>
<text text-anchor="middle" x="432" y="-119.5" font-family="Helvetica,sans-Serif" font-size="10.00">vmem.h</text>
</a>
</g>
</g>
<!-- Node1&#45;&gt;Node13 -->
<g id="edge27" class="edge">
<title>Node1&#45;&gt;Node13</title>
<path fill="none" stroke="midnightblue" d="M372.88,-280.45C367.4,-267.88 359.06,-243.78 365,-224 375.08,-190.45 400.39,-157.82 416.86,-139.1"/>
<polygon fill="midnightblue" stroke="midnightblue" points="419.6,-141.29 423.71,-131.53 414.41,-136.59 419.6,-141.29"/>
</g>
<!-- Node14 -->
<g id="node14" class="node">
<title>Node14</title>
<g id="a_node14"><a xlink:href="sprite_8h.html" target="_top" xlink:title="Copyright (c) 2021 Daishi Mori (mori0091)">
<polygon fill="none" stroke="black" points="450,-168.5 450,-187.5 498,-187.5 498,-168.5 450,-168.5"/>
<text text-anchor="middle" x="474" y="-175.5" font-family="Helvetica,sans-Serif" font-size="10.00">sprite.h</text>
</a>
</g>
</g>
<!-- Node1&#45;&gt;Node14 -->
<g id="edge28" class="edge">
<title>Node1&#45;&gt;Node14</title>
<path fill="none" stroke="midnightblue" d="M400.35,-280.45C417.2,-273.16 439.31,-261.13 453,-244 463.63,-230.7 468.95,-211.86 471.56,-197.89"/>
<polygon fill="midnightblue" stroke="midnightblue" points="475.03,-198.35 473.13,-187.93 468.12,-197.26 475.03,-198.35"/>
</g>
<!-- Node15 -->
<g id="node15" class="node">
<title>Node15</title>
<g id="a_node15"><a xlink:href="sprite__color_8h.html" target="_top" xlink:title="Copyright (c) 2021 Daishi Mori (mori0091)">
<polygon fill="none" stroke="black" points="500,-224.5 500,-243.5 574,-243.5 574,-224.5 500,-224.5"/>
<text text-anchor="middle" x="537" y="-231.5" font-family="Helvetica,sans-Serif" font-size="10.00">sprite_color.h</text>
</a>
</g>
</g>
<!-- Node1&#45;&gt;Node15 -->
<g id="edge31" class="edge">
<title>Node1&#45;&gt;Node15</title>
<path fill="none" stroke="midnightblue" d="M402.35,-280.44C429.27,-271.36 472,-256.94 502.09,-246.78"/>
<polygon fill="midnightblue" stroke="midnightblue" points="503.41,-250.03 511.77,-243.52 501.17,-243.4 503.41,-250.03"/>
</g>
<!-- Node16 -->
<g id="node16" class="node">
<title>Node16</title>
<g id="a_node16"><a xlink:href="metasprite_8h.html" target="_top" xlink:title="Copyright (c) 2021 Daishi Mori (mori0091)">
<polygon fill="none" stroke="black" points="374,-224.5 374,-243.5 444,-243.5 444,-224.5 374,-224.5"/>
<text text-anchor="middle" x="409" y="-231.5" font-family="Helvetica,sans-Serif" font-size="10.00">metasprite.h</text>
</a>
</g>
</g>
<!-- Node1&#45;&gt;Node16 -->
<g id="edge35" class="edge">
<title>Node1&#45;&gt;Node16</title>
<path fill="none" stroke="midnightblue" d="M382.28,-280.08C386.71,-272.61 393.16,-261.72 398.62,-252.52"/>
<polygon fill="midnightblue" stroke="midnightblue" points="401.73,-254.14 403.81,-243.75 395.71,-250.57 401.73,-254.14"/>
</g>
<!-- Node17 -->
<g id="node17" class="node">
<title>Node17</title>
<g id="a_node17"><a xlink:href="input_8h.html" target="_top" xlink:title="Copyright (c) 2021 Daishi Mori (mori0091)">
<polygon fill="none" stroke="black" points="652.5,-224.5 652.5,-243.5 697.5,-243.5 697.5,-224.5 652.5,-224.5"/>
<text text-anchor="middle" x="675" y="-231.5" font-family="Helvetica,sans-Serif" font-size="10.00">input.h</text>
</a>
</g>
</g>
<!-- Node1&#45;&gt;Node17 -->
<g id="edge40" class="edge">
<title>Node1&#45;&gt;Node17</title>
<path fill="none" stroke="midnightblue" d="M415.13,-282.22C464.17,-273.49 551.96,-257.79 627,-244 631.85,-243.11 636.98,-242.16 642,-241.22"/>
<polygon fill="midnightblue" stroke="midnightblue" points="642.87,-244.62 652.06,-239.34 641.58,-237.74 642.87,-244.62"/>
</g>
<!-- Node18 -->
<g id="node18" class="node">
<title>Node18</title>
<g id="a_node18"><a xlink:href="psg_8h.html" target="_top" xlink:title="Copyright (c) 2021 Daishi Mori (mori0091)">
<polygon fill="none" stroke="black" points="66,-112.5 66,-131.5 106,-131.5 106,-112.5 66,-112.5"/>
<text text-anchor="middle" x="86" y="-119.5" font-family="Helvetica,sans-Serif" font-size="10.00">psg.h</text>
</a>
</g>
</g>
<!-- Node1&#45;&gt;Node18 -->
<g id="edge42" class="edge">
<title>Node1&#45;&gt;Node18</title>
<path fill="none" stroke="midnightblue" d="M338.73,-285.53C301.2,-280.74 243.44,-269.58 200,-244 154.37,-217.14 115.59,-166.63 97.28,-140.17"/>
<polygon fill="midnightblue" stroke="midnightblue" points="99.98,-137.92 91.48,-131.59 94.18,-141.84 99.98,-137.92"/>
</g>
<!-- Node19 -->
<g id="node19" class="node">
<title>Node19</title>
<g id="a_node19"><a xlink:href="sound_8h.html" target="_top" xlink:title="Copyright (c) 2021 Daishi Mori (mori0091)">
<polygon fill="none" stroke="black" points="796,-168.5 796,-187.5 846,-187.5 846,-168.5 796,-168.5"/>
<text text-anchor="middle" x="821" y="-175.5" font-family="Helvetica,sans-Serif" font-size="10.00">sound.h</text>
</a>
</g>
</g>
<!-- Node1&#45;&gt;Node19 -->
<g id="edge45" class="edge">
<title>Node1&#45;&gt;Node19</title>
<path fill="none" stroke="midnightblue" d="M415.28,-286.49C494.39,-280.92 673.27,-266.23 730,-244 759.2,-232.55 787.79,-209.67 804.91,-194.34"/>
<polygon fill="midnightblue" stroke="midnightblue" points="807.35,-196.85 812.34,-187.5 802.61,-191.69 807.35,-196.85"/>
</g>
<!-- Node21 -->
<g id="node21" class="node">
<title>Node21</title>
<g id="a_node21"><a xlink:href="sound__eg_8h.html" target="_top" xlink:title="Copyright (c) 2021 Daishi Mori (mori0091)">
<polygon fill="none" stroke="black" points="592,-168.5 592,-187.5 658,-187.5 658,-168.5 592,-168.5"/>
<text text-anchor="middle" x="625" y="-175.5" font-family="Helvetica,sans-Serif" font-size="10.00">sound_eg.h</text>
</a>
</g>
</g>
<!-- Node1&#45;&gt;Node21 -->
<g id="edge49" class="edge">
<title>Node1&#45;&gt;Node21</title>
<path fill="none" stroke="midnightblue" d="M415.37,-289.12C459.53,-287.47 532.45,-279.03 583,-244 599.69,-232.43 611.31,-211.87 618.03,-196.96"/>
<polygon fill="midnightblue" stroke="midnightblue" points="621.26,-198.3 621.9,-187.73 614.81,-195.6 621.26,-198.3"/>
</g>
<!-- Node4 -->
<g id="node4" class="node">
<title>Node4</title>
<g id="a_node4"><a xlink:title=" ">
<polygon fill="none" stroke="#bfbfbf" points="628,-112.5 628,-131.5 684,-131.5 684,-112.5 628,-112.5"/>
<text text-anchor="middle" x="656" y="-119.5" font-family="Helvetica,sans-Serif" font-size="10.00">stdbool.h</text>
</a>
</g>
</g>
<!-- Node3&#45;&gt;Node4 -->
<g id="edge3" class="edge">
<title>Node3&#45;&gt;Node4</title>
<path fill="none" stroke="midnightblue" d="M733.22,-168.32C718.73,-159.82 696.43,-146.73 679.51,-136.8"/>
<polygon fill="midnightblue" stroke="midnightblue" points="681.14,-133.7 670.74,-131.65 677.6,-139.74 681.14,-133.7"/>
</g>
<!-- Node5 -->
<g id="node5" class="node">
<title>Node5</title>
<g id="a_node5"><a xlink:title=" ">
<polygon fill="none" stroke="#bfbfbf" points="462,-0.5 462,-19.5 510,-19.5 510,-0.5 462,-0.5"/>
<text text-anchor="middle" x="486" y="-7.5" font-family="Helvetica,sans-Serif" font-size="10.00">stdint.h</text>
</a>
</g>
</g>
<!-- Node3&#45;&gt;Node5 -->
<g id="edge4" class="edge">
<title>Node3&#45;&gt;Node5</title>
<path fill="none" stroke="midnightblue" d="M749.4,-168.2C752.41,-145.96 756.87,-87.04 726,-56 697.66,-27.5 579.63,-16.53 520.33,-12.76"/>
<polygon fill="midnightblue" stroke="midnightblue" points="520.51,-9.26 510.31,-12.16 520.08,-16.25 520.51,-9.26"/>
</g>
<!-- Node6&#45;&gt;Node2 -->
<g id="edge6" class="edge">
<title>Node6&#45;&gt;Node2</title>
<path fill="none" stroke="midnightblue" d="M97.25,-56.32C107.8,-48.18 123.8,-35.84 136.44,-26.09"/>
<polygon fill="midnightblue" stroke="midnightblue" points="138.77,-28.71 144.55,-19.83 134.49,-23.17 138.77,-28.71"/>
</g>
<!-- Node8 -->
<g id="node8" class="node">
<title>Node8</title>
<g id="a_node8"><a xlink:href="bios__const_8h.html" target="_top" xlink:title="Constant variables in the MSX BIOS ROM.">
<polygon fill="none" stroke="black" points="120.5,-56.5 120.5,-75.5 191.5,-75.5 191.5,-56.5 120.5,-56.5"/>
<text text-anchor="middle" x="156" y="-63.5" font-family="Helvetica,sans-Serif" font-size="10.00">bios_const.h</text>
</a>
</g>
</g>
<!-- Node7&#45;&gt;Node8 -->
<g id="edge8" class="edge">
<title>Node7&#45;&gt;Node8</title>
<path fill="none" stroke="midnightblue" d="M178.54,-112.08C174.85,-104.69 169.48,-93.95 164.91,-84.81"/>
<polygon fill="midnightblue" stroke="midnightblue" points="167.98,-83.13 160.38,-75.75 161.72,-86.26 167.98,-83.13"/>
</g>
<!-- Node9 -->
<g id="node9" class="node">
<title>Node9</title>
<g id="a_node9"><a xlink:href="bios__entry_8h.html" target="_top" xlink:title="Assembler entry points for MSX BIOS functions.">
<polygon fill="none" stroke="black" points="210,-56.5 210,-75.5 278,-75.5 278,-56.5 210,-56.5"/>
<text text-anchor="middle" x="244" y="-63.5" font-family="Helvetica,sans-Serif" font-size="10.00">bios_entry.h</text>
</a>
</g>
</g>
<!-- Node7&#45;&gt;Node9 -->
<g id="edge11" class="edge">
<title>Node7&#45;&gt;Node9</title>
<path fill="none" stroke="midnightblue" d="M192.8,-112.32C201.82,-104.34 215.41,-92.31 226.32,-82.65"/>
<polygon fill="midnightblue" stroke="midnightblue" points="228.85,-85.08 234.02,-75.83 224.21,-79.84 228.85,-85.08"/>
</g>
<!-- Node8&#45;&gt;Node2 -->
<g id="edge10" class="edge">
<title>Node8&#45;&gt;Node2</title>
<path fill="none" stroke="midnightblue" d="M156,-56.08C156,-49.01 156,-38.86 156,-29.99"/>
<polygon fill="midnightblue" stroke="midnightblue" points="159.5,-29.75 156,-19.75 152.5,-29.75 159.5,-29.75"/>
</g>
<!-- Node8&#45;&gt;Node5 -->
<g id="edge9" class="edge">
<title>Node8&#45;&gt;Node5</title>
<path fill="none" stroke="midnightblue" d="M191.84,-57.7C194.93,-57.11 198.02,-56.53 201,-56 291.38,-39.83 398.43,-23.75 451.95,-15.92"/>
<polygon fill="midnightblue" stroke="midnightblue" points="452.53,-19.37 461.92,-14.46 451.52,-12.44 452.53,-19.37"/>
</g>
<!-- Node9&#45;&gt;Node2 -->
<g id="edge13" class="edge">
<title>Node9&#45;&gt;Node2</title>
<path fill="none" stroke="midnightblue" d="M229.86,-56.32C216.13,-47.9 195.06,-34.97 178.94,-25.07"/>
<polygon fill="midnightblue" stroke="midnightblue" points="180.46,-21.9 170.1,-19.65 176.8,-27.87 180.46,-21.9"/>
</g>
<!-- Node9&#45;&gt;Node5 -->
<g id="edge12" class="edge">
<title>Node9&#45;&gt;Node5</title>
<path fill="none" stroke="midnightblue" d="M278.16,-57.38C324.31,-47.08 406.08,-28.83 452.1,-18.57"/>
<polygon fill="midnightblue" stroke="midnightblue" points="452.9,-21.97 461.89,-16.38 451.37,-15.14 452.9,-21.97"/>
</g>
<!-- Node10&#45;&gt;Node2 -->
<g id="edge16" class="edge">
<title>Node10&#45;&gt;Node2</title>
<path fill="none" stroke="midnightblue" d="M300.75,-56.44C271.09,-47.13 223.57,-32.21 191.13,-22.03"/>
<polygon fill="midnightblue" stroke="midnightblue" points="191.76,-18.56 181.17,-18.9 189.66,-25.24 191.76,-18.56"/>
</g>
<!-- Node10&#45;&gt;Node5 -->
<g id="edge15" class="edge">
<title>Node10&#45;&gt;Node5</title>
<path fill="none" stroke="midnightblue" d="M353.04,-56.44C379.85,-47.28 422.55,-32.68 452.31,-22.52"/>
<polygon fill="midnightblue" stroke="midnightblue" points="453.53,-25.8 461.86,-19.25 451.26,-19.17 453.53,-25.8"/>
</g>
<!-- Node11&#45;&gt;Node4 -->
<g id="edge19" class="edge">
<title>Node11&#45;&gt;Node4</title>
<path fill="none" stroke="midnightblue" d="M318.01,-173.98C375.54,-165.3 542.02,-140.19 617.72,-128.77"/>
<polygon fill="midnightblue" stroke="midnightblue" points="618.41,-132.21 627.78,-127.26 617.37,-125.29 618.41,-132.21"/>
</g>
<!-- Node11&#45;&gt;Node5 -->
<g id="edge20" class="edge">
<title>Node11&#45;&gt;Node5</title>
<path fill="none" stroke="midnightblue" d="M310.26,-168.43C322.62,-159.65 342.07,-145.43 358,-132 400.43,-96.23 447.03,-50.37 470.56,-26.7"/>
<polygon fill="midnightblue" stroke="midnightblue" points="473.07,-29.14 477.62,-19.57 468.1,-24.21 473.07,-29.14"/>
</g>
<!-- Node11&#45;&gt;Node6 -->
<g id="edge21" class="edge">
<title>Node11&#45;&gt;Node6</title>
<path fill="none" stroke="midnightblue" d="M277.55,-173.77C248.3,-168.49 193.57,-156.08 153,-132 131.56,-119.28 111.7,-98.38 99.26,-83.72"/>
<polygon fill="midnightblue" stroke="midnightblue" points="101.89,-81.42 92.83,-75.92 96.49,-85.87 101.89,-81.42"/>
</g>
<!-- Node11&#45;&gt;Node7 -->
<g id="edge25" class="edge">
<title>Node11&#45;&gt;Node7</title>
<path fill="none" stroke="midnightblue" d="M279.78,-168.44C261.1,-159.68 231.84,-145.94 210.38,-135.86"/>
<polygon fill="midnightblue" stroke="midnightblue" points="211.68,-132.6 201.14,-131.52 208.7,-138.93 211.68,-132.6"/>
</g>
<!-- Node11&#45;&gt;Node10 -->
<g id="edge26" class="edge">
<title>Node11&#45;&gt;Node10</title>
<path fill="none" stroke="midnightblue" d="M294.2,-168.3C289.19,-155.54 281.83,-131.21 289,-112 293.17,-100.81 301.52,-90.56 309.42,-82.68"/>
<polygon fill="midnightblue" stroke="midnightblue" points="312.06,-85 317.01,-75.63 307.3,-79.87 312.06,-85"/>
</g>
<!-- Node12 -->
<g id="node12" class="node">
<title>Node12</title>
<g id="a_node12"><a xlink:title=" ">
<polygon fill="none" stroke="#bfbfbf" points="298.5,-112.5 298.5,-131.5 349.5,-131.5 349.5,-112.5 298.5,-112.5"/>
<text text-anchor="middle" x="324" y="-119.5" font-family="Helvetica,sans-Serif" font-size="10.00">assert.h</text>
</a>
</g>
</g>
<!-- Node11&#45;&gt;Node12 -->
<g id="edge18" class="edge">
<title>Node11&#45;&gt;Node12</title>
<path fill="none" stroke="midnightblue" d="M302.29,-168.08C305.85,-160.69 311.02,-149.95 315.42,-140.81"/>
<polygon fill="midnightblue" stroke="midnightblue" points="318.6,-142.28 319.79,-131.75 312.29,-139.24 318.6,-142.28"/>
</g>
<!-- Node11&#45;&gt;Node13 -->
<g id="edge22" class="edge">
<title>Node11&#45;&gt;Node13</title>
<path fill="none" stroke="midnightblue" d="M318.06,-168.92C339.98,-160.08 375.35,-145.83 400.88,-135.54"/>
<polygon fill="midnightblue" stroke="midnightblue" points="402.5,-138.66 410.47,-131.68 399.88,-132.17 402.5,-138.66"/>
</g>
<!-- Node13&#45;&gt;Node5 -->
<g id="edge23" class="edge">
<title>Node13&#45;&gt;Node5</title>
<path fill="none" stroke="midnightblue" d="M436.24,-112.37C445.07,-94.38 465.6,-52.55 477.35,-28.63"/>
<polygon fill="midnightblue" stroke="midnightblue" points="480.52,-30.11 481.78,-19.59 474.23,-27.03 480.52,-30.11"/>
</g>
<!-- Node13&#45;&gt;Node6 -->
<g id="edge24" class="edge">
<title>Node13&#45;&gt;Node6</title>
<path fill="none" stroke="midnightblue" d="M406.4,-117.72C340.28,-109.21 165.74,-86.47 112.04,-75.59"/>
<polygon fill="midnightblue" stroke="midnightblue" points="112.78,-72.17 102.26,-73.4 111.25,-79 112.78,-72.17"/>
</g>
<!-- Node14&#45;&gt;Node5 -->
<g id="edge29" class="edge">
<title>Node14&#45;&gt;Node5</title>
<path fill="none" stroke="midnightblue" d="M480.89,-168.32C487.27,-159.68 496.31,-145.77 500,-132 508.75,-99.37 505.07,-89.39 500,-56 498.63,-47 495.81,-37.33 493.05,-29.26"/>
<polygon fill="midnightblue" stroke="midnightblue" points="496.31,-27.98 489.6,-19.78 489.73,-30.37 496.31,-27.98"/>
</g>
<!-- Node14&#45;&gt;Node13 -->
<g id="edge30" class="edge">
<title>Node14&#45;&gt;Node13</title>
<path fill="none" stroke="midnightblue" d="M467.06,-168.08C461.07,-160.38 452.25,-149.03 444.95,-139.65"/>
<polygon fill="midnightblue" stroke="midnightblue" points="447.71,-137.5 438.81,-131.75 442.18,-141.79 447.71,-137.5"/>
</g>
<!-- Node15&#45;&gt;Node5 -->
<g id="edge32" class="edge">
<title>Node15&#45;&gt;Node5</title>
<path fill="none" stroke="midnightblue" d="M537.37,-224.19C538.2,-197.78 538.58,-117.27 516,-56 512.27,-45.89 505.86,-35.79 499.91,-27.74"/>
<polygon fill="midnightblue" stroke="midnightblue" points="502.48,-25.34 493.57,-19.61 496.96,-29.65 502.48,-25.34"/>
</g>
<!-- Node15&#45;&gt;Node13 -->
<g id="edge34" class="edge">
<title>Node15&#45;&gt;Node13</title>
<path fill="none" stroke="midnightblue" d="M534.72,-224.07C530.9,-210.59 522.11,-184.83 507,-168 494.85,-154.47 477.66,-143.75 462.79,-136.17"/>
<polygon fill="midnightblue" stroke="midnightblue" points="463.97,-132.85 453.44,-131.65 460.92,-139.15 463.97,-132.85"/>
</g>
<!-- Node15&#45;&gt;Node14 -->
<g id="edge33" class="edge">
<title>Node15&#45;&gt;Node14</title>
<path fill="none" stroke="midnightblue" d="M526.88,-224.32C517.47,-216.26 503.26,-204.08 491.93,-194.37"/>
<polygon fill="midnightblue" stroke="midnightblue" points="494.18,-191.68 484.31,-187.83 489.62,-197 494.18,-191.68"/>
</g>
<!-- Node16&#45;&gt;Node5 -->
<g id="edge36" class="edge">
<title>Node16&#45;&gt;Node5</title>
<path fill="none" stroke="midnightblue" d="M412.75,-224.37C418.36,-211.72 429.51,-187.51 441,-168 450.89,-151.21 458.68,-150.05 466,-132 479.96,-97.59 484.18,-53.92 485.45,-29.56"/>
<polygon fill="midnightblue" stroke="midnightblue" points="488.95,-29.7 485.86,-19.56 481.96,-29.41 488.95,-29.7"/>
</g>
<!-- Node16&#45;&gt;Node11 -->
<g id="edge37" class="edge">
<title>Node16&#45;&gt;Node11</title>
<path fill="none" stroke="midnightblue" d="M391.17,-224.32C373.28,-215.62 345.52,-202.12 324.95,-192.11"/>
<polygon fill="midnightblue" stroke="midnightblue" points="326.31,-188.88 315.79,-187.65 323.25,-195.18 326.31,-188.88"/>
</g>
<!-- Node16&#45;&gt;Node13 -->
<g id="edge38" class="edge">
<title>Node16&#45;&gt;Node13</title>
<path fill="none" stroke="midnightblue" d="M407.49,-224.43C405.57,-211.84 403.07,-187.71 408,-168 410.44,-158.25 415.44,-148.29 420.24,-140.23"/>
<polygon fill="midnightblue" stroke="midnightblue" points="423.21,-142.08 425.63,-131.77 417.31,-138.32 423.21,-142.08"/>
</g>
<!-- Node16&#45;&gt;Node14 -->
<g id="edge39" class="edge">
<title>Node16&#45;&gt;Node14</title>
<path fill="none" stroke="midnightblue" d="M419.44,-224.32C429.15,-216.26 443.82,-204.08 455.5,-194.37"/>
<polygon fill="midnightblue" stroke="midnightblue" points="457.91,-196.92 463.37,-187.83 453.44,-191.53 457.91,-196.92"/>
</g>
<!-- Node17&#45;&gt;Node5 -->
<g id="edge41" class="edge">
<title>Node17&#45;&gt;Node5</title>
<path fill="none" stroke="midnightblue" d="M679.76,-224.4C690.57,-203.56 714.47,-149.39 693,-112 657.1,-49.49 569.11,-24.93 520.2,-15.88"/>
<polygon fill="midnightblue" stroke="midnightblue" points="520.55,-12.38 510.1,-14.12 519.35,-19.28 520.55,-12.38"/>
</g>
<!-- Node18&#45;&gt;Node5 -->
<g id="edge43" class="edge">
<title>Node18&#45;&gt;Node5</title>
<path fill="none" stroke="midnightblue" d="M77.65,-112.39C65.55,-98.88 46.12,-72.54 61,-56 87.01,-27.09 355.43,-15.35 451.8,-12.05"/>
<polygon fill="midnightblue" stroke="midnightblue" points="452.01,-15.54 461.89,-11.71 451.77,-8.55 452.01,-15.54"/>
</g>
<!-- Node18&#45;&gt;Node6 -->
<g id="edge44" class="edge">
<title>Node18&#45;&gt;Node6</title>
<path fill="none" stroke="midnightblue" d="M86,-112.08C86,-105.01 86,-94.86 86,-85.99"/>
<polygon fill="midnightblue" stroke="midnightblue" points="89.5,-85.75 86,-75.75 82.5,-85.75 89.5,-85.75"/>
</g>
<!-- Node19&#45;&gt;Node4 -->
<g id="edge46" class="edge">
<title>Node19&#45;&gt;Node4</title>
<path fill="none" stroke="midnightblue" d="M795.94,-168.8C768.2,-159.72 723.26,-145.01 691.81,-134.72"/>
<polygon fill="midnightblue" stroke="midnightblue" points="692.71,-131.33 682.11,-131.55 690.53,-137.98 692.71,-131.33"/>
</g>
<!-- Node19&#45;&gt;Node5 -->
<g id="edge47" class="edge">
<title>Node19&#45;&gt;Node5</title>
<path fill="none" stroke="midnightblue" d="M818.36,-168.21C811.05,-145.48 788.2,-84.48 746,-56 709.66,-31.47 582.29,-18.47 520.35,-13.46"/>
<polygon fill="midnightblue" stroke="midnightblue" points="520.53,-9.97 510.28,-12.68 519.98,-16.95 520.53,-9.97"/>
</g>
<!-- Node20 -->
<g id="node20" class="node">
<title>Node20</title>
<g id="a_node20"><a xlink:title=" ">
<polygon fill="none" stroke="#bfbfbf" points="816.5,-112.5 816.5,-131.5 863.5,-131.5 863.5,-112.5 816.5,-112.5"/>
<text text-anchor="middle" x="840" y="-119.5" font-family="Helvetica,sans-Serif" font-size="10.00">stdlib.h</text>
</a>
</g>
</g>
<!-- Node19&#45;&gt;Node20 -->
<g id="edge48" class="edge">
<title>Node19&#45;&gt;Node20</title>
<path fill="none" stroke="midnightblue" d="M824.14,-168.08C826.68,-160.85 830.36,-150.41 833.53,-141.4"/>
<polygon fill="midnightblue" stroke="midnightblue" points="836.9,-142.35 836.92,-131.75 830.3,-140.02 836.9,-142.35"/>
</g>
<!-- Node21&#45;&gt;Node4 -->
<g id="edge50" class="edge">
<title>Node21&#45;&gt;Node4</title>
<path fill="none" stroke="midnightblue" d="M630.12,-168.08C634.41,-160.61 640.66,-149.72 645.94,-140.52"/>
<polygon fill="midnightblue" stroke="midnightblue" points="649.03,-142.17 650.98,-131.75 642.96,-138.68 649.03,-142.17"/>
</g>
<!-- Node21&#45;&gt;Node5 -->
<g id="edge51" class="edge">
<title>Node21&#45;&gt;Node5</title>
<path fill="none" stroke="midnightblue" d="M623.64,-168.25C619.86,-146.63 607.38,-89.96 576,-56 560.93,-39.69 538.62,-28.48 519.99,-21.33"/>
<polygon fill="midnightblue" stroke="midnightblue" points="520.96,-17.95 510.37,-17.86 518.59,-24.54 520.96,-17.95"/>
</g>
</g>
</svg>
