<?xml version="1.0" encoding="UTF-8" standalone="no"?>
<!DOCTYPE svg PUBLIC "-//W3C//DTD SVG 1.1//EN"
 "http://www.w3.org/Graphics/SVG/1.1/DTD/svg11.dtd">
<!-- Generated by graphviz version 12.2.0 (20241103.1931)
 -->
<!-- Title: include/msx.h Pages: 1 -->
<svg width="1070pt" height="414pt"
 viewBox="0.00 0.00 1069.75 414.00" xmlns="http://www.w3.org/2000/svg" xmlns:xlink="http://www.w3.org/1999/xlink">
<g id="graph0" class="graph" transform="scale(1 1) rotate(0) translate(4 410)">
<title>include/msx.h</title>
<!-- Node1 -->
<g id="Node000001" class="node">
<title>Node1</title>
<g id="a_Node000001"><a xlink:title="Using #include &lt;msx.h&gt; includes almost all C header files in libmsx, for ease to use.">
<polygon fill="#999999" stroke="#666666" points="700.62,-406 625.38,-406 625.38,-386.75 700.62,-386.75 700.62,-406"/>
<text text-anchor="middle" x="663" y="-392.5" font-family="Helvetica,sans-Serif" font-size="10.00">include/msx.h</text>
</a>
</g>
</g>
<!-- Node2 -->
<g id="Node000002" class="node">
<title>Node2</title>
<g id="a_Node000002"><a xlink:href="config_8h.html" target="_top" xlink:title="Hack for C Compiler portability.">
<polygon fill="white" stroke="#666666" points="613.5,-74.5 564.5,-74.5 564.5,-55.25 613.5,-55.25 613.5,-74.5"/>
<text text-anchor="middle" x="589" y="-61" font-family="Helvetica,sans-Serif" font-size="10.00">config.h</text>
</a>
</g>
</g>
<!-- Node1&#45;&gt;Node2 -->
<g id="edge1_Node000001_Node000002" class="edge">
<title>Node1&#45;&gt;Node2</title>
<g id="a_edge1_Node000001_Node000002"><a xlink:title=" ">
<path fill="none" stroke="#63b8ff" d="M671.66,-386.36C687.6,-368.76 720,-327.94 720,-286.88 720,-286.88 720,-286.88 720,-174.38 720,-124.57 663.15,-93.3 624.35,-77.76"/>
<polygon fill="#63b8ff" stroke="#63b8ff" points="625.95,-74.62 615.36,-74.33 623.46,-81.16 625.95,-74.62"/>
</a>
</g>
</g>
<!-- Node4 -->
<g id="Node000004" class="node">
<title>Node4</title>
<g id="a_Node000004"><a xlink:href="interrupt_8h.html" target="_top" xlink:title="Interrupts relevant functions and Pluggable interrupts handler interface.">
<polygon fill="white" stroke="#666666" points="844.38,-295.5 785.62,-295.5 785.62,-276.25 844.38,-276.25 844.38,-295.5"/>
<text text-anchor="middle" x="815" y="-282" font-family="Helvetica,sans-Serif" font-size="10.00">interrupt.h</text>
</a>
</g>
</g>
<!-- Node1&#45;&gt;Node4 -->
<g id="edge3_Node000001_Node000004" class="edge">
<title>Node1&#45;&gt;Node4</title>
<g id="a_edge3_Node000001_Node000004"><a xlink:title=" ">
<path fill="none" stroke="#63b8ff" d="M699.7,-386.26C722.32,-379.3 750.91,-367.92 772,-350.75 786.89,-338.63 798.6,-320 806.02,-305.99"/>
<polygon fill="#63b8ff" stroke="#63b8ff" points="809.02,-307.82 810.35,-297.3 802.76,-304.69 809.02,-307.82"/>
</a>
</g>
</g>
<!-- Node6 -->
<g id="Node000006" class="node">
<title>Node6</title>
<g id="a_Node000006"><a xlink:href="io_8h.html" target="_top" xlink:title="Definition of I/O ports.">
<polygon fill="white" stroke="#666666" points="615.5,-129.75 584.5,-129.75 584.5,-110.5 615.5,-110.5 615.5,-129.75"/>
<text text-anchor="middle" x="600" y="-116.25" font-family="Helvetica,sans-Serif" font-size="10.00">io.h</text>
</a>
</g>
</g>
<!-- Node1&#45;&gt;Node6 -->
<g id="edge6_Node000001_Node000006" class="edge">
<title>Node1&#45;&gt;Node6</title>
<g id="a_edge6_Node000001_Node000006"><a xlink:title=" ">
<path fill="none" stroke="#63b8ff" d="M660.9,-386.25C651.99,-347.45 617.12,-195.65 604.55,-140.93"/>
<polygon fill="#63b8ff" stroke="#63b8ff" points="608.03,-140.44 602.38,-131.48 601.21,-142.01 608.03,-140.44"/>
</a>
</g>
</g>
<!-- Node7 -->
<g id="Node000007" class="node">
<title>Node7</title>
<g id="a_Node000007"><a xlink:href="bios_8h.html" target="_top" xlink:title="C language I/F for MSX BIOS routines.">
<polygon fill="white" stroke="#666666" points="463.75,-185 422.25,-185 422.25,-165.75 463.75,-165.75 463.75,-185"/>
<text text-anchor="middle" x="443" y="-171.5" font-family="Helvetica,sans-Serif" font-size="10.00">bios.h</text>
</a>
</g>
</g>
<!-- Node1&#45;&gt;Node7 -->
<g id="edge8_Node000001_Node000007" class="edge">
<title>Node1&#45;&gt;Node7</title>
<g id="a_edge8_Node000001_Node000007"><a xlink:title=" ">
<path fill="none" stroke="#63b8ff" d="M653.9,-386.29C627.98,-360.43 551.57,-284.2 488,-221 478.73,-211.79 468.38,-201.52 459.94,-193.16"/>
<polygon fill="#63b8ff" stroke="#63b8ff" points="462.61,-190.88 453.05,-186.32 457.69,-195.85 462.61,-190.88"/>
</a>
</g>
</g>
<!-- Node10 -->
<g id="Node000010" class="node">
<title>Node10</title>
<g id="a_Node000010"><a xlink:href="workarea_8h.html" target="_top" xlink:title="Definitions of MSX SYSTEM Workarea.">
<polygon fill="white" stroke="#666666" points="691.62,-185 628.38,-185 628.38,-165.75 691.62,-165.75 691.62,-185"/>
<text text-anchor="middle" x="660" y="-171.5" font-family="Helvetica,sans-Serif" font-size="10.00">workarea.h</text>
</a>
</g>
</g>
<!-- Node1&#45;&gt;Node10 -->
<g id="edge16_Node000001_Node000010" class="edge">
<title>Node1&#45;&gt;Node10</title>
<g id="a_edge16_Node000001_Node000010"><a xlink:title=" ">
<path fill="none" stroke="#63b8ff" d="M662.88,-386.52C662.44,-354.26 660.91,-242.51 660.28,-196.46"/>
<polygon fill="#63b8ff" stroke="#63b8ff" points="663.78,-196.57 660.14,-186.61 656.78,-196.66 663.78,-196.57"/>
</a>
</g>
</g>
<!-- Node11 -->
<g id="Node000011" class="node">
<title>Node11</title>
<g id="a_Node000011"><a xlink:href="vdp_8h.html" target="_top" xlink:title="Data types and functions for VDP (Video Display Proccessor) access.">
<polygon fill="white" stroke="#666666" points="479.62,-295.5 440.38,-295.5 440.38,-276.25 479.62,-276.25 479.62,-295.5"/>
<text text-anchor="middle" x="460" y="-282" font-family="Helvetica,sans-Serif" font-size="10.00">vdp.h</text>
</a>
</g>
</g>
<!-- Node1&#45;&gt;Node11 -->
<g id="edge20_Node000001_Node000011" class="edge">
<title>Node1&#45;&gt;Node11</title>
<g id="a_edge20_Node000001_Node000011"><a xlink:title=" ">
<path fill="none" stroke="#63b8ff" d="M636.76,-386.38C614.24,-378.26 581.2,-365.36 554,-350.75 527.48,-336.51 499.18,-316.55 480.64,-302.75"/>
<polygon fill="#63b8ff" stroke="#63b8ff" points="482.96,-300.12 472.87,-296.89 478.75,-305.71 482.96,-300.12"/>
</a>
</g>
</g>
<!-- Node13 -->
<g id="Node000013" class="node">
<title>Node13</title>
<g id="a_Node000013"><a xlink:href="vmem_8h.html" target="_top" xlink:title="Data types and functions for VRAM access.">
<polygon fill="white" stroke="#666666" points="190.25,-185 139.75,-185 139.75,-165.75 190.25,-165.75 190.25,-185"/>
<text text-anchor="middle" x="165" y="-171.5" font-family="Helvetica,sans-Serif" font-size="10.00">vmem.h</text>
</a>
</g>
</g>
<!-- Node1&#45;&gt;Node13 -->
<g id="edge36_Node000001_Node000013" class="edge">
<title>Node1&#45;&gt;Node13</title>
<g id="a_edge36_Node000001_Node000013"><a xlink:title=" ">
<path fill="none" stroke="#63b8ff" d="M625.08,-394.27C520.1,-390.88 231.32,-379.03 200,-350.75 156.13,-311.14 158.3,-233.26 162.18,-196.5"/>
<polygon fill="#63b8ff" stroke="#63b8ff" points="165.62,-197.19 163.37,-186.84 158.68,-196.34 165.62,-197.19"/>
</a>
</g>
</g>
<!-- Node16 -->
<g id="Node000016" class="node">
<title>Node16</title>
<g id="a_Node000016"><a xlink:href="sprite_8h.html" target="_top" xlink:title="Sprites.">
<polygon fill="white" stroke="#666666" points="75.75,-240.25 28.25,-240.25 28.25,-221 75.75,-221 75.75,-240.25"/>
<text text-anchor="middle" x="52" y="-226.75" font-family="Helvetica,sans-Serif" font-size="10.00">sprite.h</text>
</a>
</g>
</g>
<!-- Node1&#45;&gt;Node16 -->
<g id="edge37_Node000001_Node000016" class="edge">
<title>Node1&#45;&gt;Node16</title>
<g id="a_edge37_Node000001_Node000016"><a xlink:title=" ">
<path fill="none" stroke="#63b8ff" d="M625.21,-395.25C513.77,-394.43 188.16,-388.77 90,-350.75 52.71,-336.31 36.56,-331.42 19,-295.5 11.16,-279.46 22.38,-261.41 33.8,-248.6"/>
<polygon fill="#63b8ff" stroke="#63b8ff" points="36.01,-251.36 40.46,-241.74 30.99,-246.48 36.01,-251.36"/>
</a>
</g>
</g>
<!-- Node17 -->
<g id="Node000017" class="node">
<title>Node17</title>
<g id="a_Node000017"><a xlink:href="sprite__color_8h.html" target="_top" xlink:title="Sprite color table interface.">
<polygon fill="white" stroke="#666666" points="101.88,-295.5 28.12,-295.5 28.12,-276.25 101.88,-276.25 101.88,-295.5"/>
<text text-anchor="middle" x="65" y="-282" font-family="Helvetica,sans-Serif" font-size="10.00">sprite_color.h</text>
</a>
</g>
</g>
<!-- Node1&#45;&gt;Node17 -->
<g id="edge40_Node000001_Node000017" class="edge">
<title>Node1&#45;&gt;Node17</title>
<g id="a_edge40_Node000001_Node000017"><a xlink:title=" ">
<path fill="none" stroke="#63b8ff" d="M625.27,-394.02C508.9,-389.62 160.73,-374.56 116,-350.75 97.25,-340.77 82.99,-320.63 74.38,-305.61"/>
<polygon fill="#63b8ff" stroke="#63b8ff" points="77.65,-304.3 69.84,-297.14 71.48,-307.61 77.65,-304.3"/>
</a>
</g>
</g>
<!-- Node18 -->
<g id="Node000018" class="node">
<title>Node18</title>
<g id="a_Node000018"><a xlink:href="metasprite_8h.html" target="_top" xlink:title="Meta&#45;sprite ; an aggregate of sprites.">
<polygon fill="white" stroke="#666666" points="278.62,-350.75 209.38,-350.75 209.38,-331.5 278.62,-331.5 278.62,-350.75"/>
<text text-anchor="middle" x="244" y="-337.25" font-family="Helvetica,sans-Serif" font-size="10.00">metasprite.h</text>
</a>
</g>
</g>
<!-- Node1&#45;&gt;Node18 -->
<g id="edge44_Node000001_Node000018" class="edge">
<title>Node1&#45;&gt;Node18</title>
<g id="a_edge44_Node000001_Node000018"><a xlink:title=" ">
<path fill="none" stroke="#63b8ff" d="M625.08,-390.56C548.1,-380.77 373.76,-358.62 290.27,-348"/>
<polygon fill="#63b8ff" stroke="#63b8ff" points="290.73,-344.54 280.37,-346.75 289.85,-351.48 290.73,-344.54"/>
</a>
</g>
</g>
<!-- Node19 -->
<g id="Node000019" class="node">
<title>Node19</title>
<g id="a_Node000019"><a xlink:href="input_8h.html" target="_top" xlink:title="Input devices such as Joypad, for example.">
<polygon fill="white" stroke="#666666" points="903.25,-74.5 858.75,-74.5 858.75,-55.25 903.25,-55.25 903.25,-74.5"/>
<text text-anchor="middle" x="881" y="-61" font-family="Helvetica,sans-Serif" font-size="10.00">input.h</text>
</a>
</g>
</g>
<!-- Node1&#45;&gt;Node19 -->
<g id="edge49_Node000001_Node000019" class="edge">
<title>Node1&#45;&gt;Node19</title>
<g id="a_edge49_Node000001_Node000019"><a xlink:title=" ">
<path fill="none" stroke="#63b8ff" d="M701.02,-387.2C728.47,-380.22 765.7,-368.45 795,-350.75 850.18,-317.4 870.64,-302.06 889,-240.25 905.07,-186.15 893.53,-118.5 886.04,-85.63"/>
<polygon fill="#63b8ff" stroke="#63b8ff" points="889.54,-85.2 883.79,-76.3 882.74,-86.85 889.54,-85.2"/>
</a>
</g>
</g>
<!-- Node20 -->
<g id="Node000020" class="node">
<title>Node20</title>
<g id="a_Node000020"><a xlink:href="psg_8h.html" target="_top" xlink:title="Device interface for PSG (AY&#45;3&#45;8910) an internal sound chip.">
<polygon fill="white" stroke="#666666" points="787.62,-185 748.38,-185 748.38,-165.75 787.62,-165.75 787.62,-185"/>
<text text-anchor="middle" x="768" y="-171.5" font-family="Helvetica,sans-Serif" font-size="10.00">psg.h</text>
</a>
</g>
</g>
<!-- Node1&#45;&gt;Node20 -->
<g id="edge51_Node000001_Node000020" class="edge">
<title>Node1&#45;&gt;Node20</title>
<g id="a_edge51_Node000001_Node000020"><a xlink:title=" ">
<path fill="none" stroke="#63b8ff" d="M686.76,-386.39C702.61,-379.16 722.55,-367.44 734,-350.75 766.79,-302.93 769.76,-231.32 769.02,-196.64"/>
<polygon fill="#63b8ff" stroke="#63b8ff" points="772.52,-196.66 768.66,-186.79 765.53,-196.91 772.52,-196.66"/>
</a>
</g>
</g>
<!-- Node21 -->
<g id="Node000021" class="node">
<title>Node21</title>
<g id="a_Node000021"><a xlink:href="sound_8h.html" target="_top" xlink:title="A PSG sound driver.">
<polygon fill="white" stroke="#666666" points="977.88,-295.5 928.12,-295.5 928.12,-276.25 977.88,-276.25 977.88,-295.5"/>
<text text-anchor="middle" x="953" y="-282" font-family="Helvetica,sans-Serif" font-size="10.00">sound.h</text>
</a>
</g>
</g>
<!-- Node1&#45;&gt;Node21 -->
<g id="edge54_Node000001_Node000021" class="edge">
<title>Node1&#45;&gt;Node21</title>
<g id="a_edge54_Node000001_Node000021"><a xlink:title=" ">
<path fill="none" stroke="#63b8ff" d="M700.92,-392.44C762.28,-387.07 879.92,-374.03 914,-350.75 929.58,-340.11 940.03,-320.99 946.16,-306.44"/>
<polygon fill="#63b8ff" stroke="#63b8ff" points="949.31,-307.99 949.62,-297.4 942.78,-305.49 949.31,-307.99"/>
</a>
</g>
</g>
<!-- Node23 -->
<g id="Node000023" class="node">
<title>Node23</title>
<g id="a_Node000023"><a xlink:href="sound__eg_8h.html" target="_top" xlink:title="Software envelope genenator interface for sound.h.">
<polygon fill="white" stroke="#666666" points="1061.75,-295.5 996.25,-295.5 996.25,-276.25 1061.75,-276.25 1061.75,-295.5"/>
<text text-anchor="middle" x="1029" y="-282" font-family="Helvetica,sans-Serif" font-size="10.00">sound_eg.h</text>
</a>
</g>
</g>
<!-- Node1&#45;&gt;Node23 -->
<g id="edge58_Node000001_Node000023" class="edge">
<title>Node1&#45;&gt;Node23</title>
<g id="a_edge58_Node000001_Node000023"><a xlink:title=" ">
<path fill="none" stroke="#63b8ff" d="M700.75,-394.47C754.92,-392.02 857.02,-383.08 937,-350.75 965.14,-339.37 993.17,-318.12 1010.76,-303.27"/>
<polygon fill="#63b8ff" stroke="#63b8ff" points="1012.99,-305.97 1018.25,-296.77 1008.4,-300.68 1012.99,-305.97"/>
</a>
</g>
</g>
<!-- Node3 -->
<g id="Node000003" class="node">
<title>Node3</title>
<g id="a_Node000003"><a xlink:title=" ">
<polygon fill="#e0e0e0" stroke="#999999" points="496.75,-19.25 449.25,-19.25 449.25,0 496.75,0 496.75,-19.25"/>
<text text-anchor="middle" x="473" y="-5.75" font-family="Helvetica,sans-Serif" font-size="10.00">stdint.h</text>
</a>
</g>
</g>
<!-- Node2&#45;&gt;Node3 -->
<g id="edge2_Node000002_Node000003" class="edge">
<title>Node2&#45;&gt;Node3</title>
<g id="a_edge2_Node000002_Node000003"><a xlink:title=" ">
<path fill="none" stroke="#63b8ff" d="M569.32,-54.84C551.16,-46.5 523.92,-34 503.03,-24.41"/>
<polygon fill="#63b8ff" stroke="#63b8ff" points="504.7,-21.33 494.15,-20.33 501.78,-27.69 504.7,-21.33"/>
</a>
</g>
</g>
<!-- Node4&#45;&gt;Node3 -->
<g id="edge5_Node000004_Node000003" class="edge">
<title>Node4&#45;&gt;Node3</title>
<g id="a_edge5_Node000004_Node000003"><a xlink:title=" ">
<path fill="none" stroke="#63b8ff" d="M815.13,-275.8C815.11,-255.32 813.29,-204.28 797,-165.75 769.89,-101.63 748.96,-84.95 686,-55.25 627.59,-27.69 552.22,-17.04 508.58,-13"/>
<polygon fill="#63b8ff" stroke="#63b8ff" points="508.92,-9.52 498.66,-12.16 508.33,-16.5 508.92,-9.52"/>
</a>
</g>
</g>
<!-- Node5 -->
<g id="Node000005" class="node">
<title>Node5</title>
<g id="a_Node000005"><a xlink:title=" ">
<polygon fill="#e0e0e0" stroke="#999999" points="879.5,-240.25 824.5,-240.25 824.5,-221 879.5,-221 879.5,-240.25"/>
<text text-anchor="middle" x="852" y="-226.75" font-family="Helvetica,sans-Serif" font-size="10.00">stdbool.h</text>
</a>
</g>
</g>
<!-- Node4&#45;&gt;Node5 -->
<g id="edge4_Node000004_Node000005" class="edge">
<title>Node4&#45;&gt;Node5</title>
<g id="a_edge4_Node000004_Node000005"><a xlink:title=" ">
<path fill="none" stroke="#63b8ff" d="M821.11,-276.08C826.06,-268.96 833.2,-258.68 839.37,-249.8"/>
<polygon fill="#63b8ff" stroke="#63b8ff" points="842.06,-252.06 844.89,-241.85 836.31,-248.07 842.06,-252.06"/>
</a>
</g>
</g>
<!-- Node6&#45;&gt;Node2 -->
<g id="edge7_Node000006_Node000002" class="edge">
<title>Node6&#45;&gt;Node2</title>
<g id="a_edge7_Node000006_Node000002"><a xlink:title=" ">
<path fill="none" stroke="#63b8ff" d="M598.18,-110.33C596.82,-103.74 594.9,-94.46 593.17,-86.07"/>
<polygon fill="#63b8ff" stroke="#63b8ff" points="596.61,-85.43 591.16,-76.34 589.76,-86.84 596.61,-85.43"/>
</a>
</g>
</g>
<!-- Node7&#45;&gt;Node3 -->
<g id="edge9_Node000007_Node000003" class="edge">
<title>Node7&#45;&gt;Node3</title>
<g id="a_edge9_Node000007_Node000003"><a xlink:title=" ">
<path fill="none" stroke="#63b8ff" d="M430.39,-165.39C420.29,-157.36 406.88,-144.58 401,-129.75 397.85,-121.8 398.37,-118.64 401,-110.5 411.67,-77.46 437.78,-46.14 455.45,-27.66"/>
<polygon fill="#63b8ff" stroke="#63b8ff" points="457.74,-30.32 462.27,-20.74 452.76,-25.4 457.74,-30.32"/>
</a>
</g>
</g>
<!-- Node8 -->
<g id="Node000008" class="node">
<title>Node8</title>
<g id="a_Node000008"><a xlink:href="bios__const_8h.html" target="_top" xlink:title="Constant variables in the MSX BIOS ROM.">
<polygon fill="white" stroke="#666666" points="566.38,-129.75 495.62,-129.75 495.62,-110.5 566.38,-110.5 566.38,-129.75"/>
<text text-anchor="middle" x="531" y="-116.25" font-family="Helvetica,sans-Serif" font-size="10.00">bios_const.h</text>
</a>
</g>
</g>
<!-- Node7&#45;&gt;Node8 -->
<g id="edge10_Node000007_Node000008" class="edge">
<title>Node7&#45;&gt;Node8</title>
<g id="a_edge10_Node000007_Node000008"><a xlink:title=" ">
<path fill="none" stroke="#63b8ff" d="M457.93,-165.34C471.2,-157.31 490.87,-145.41 506.45,-135.98"/>
<polygon fill="#63b8ff" stroke="#63b8ff" points="507.96,-139.16 514.7,-130.99 504.34,-133.17 507.96,-139.16"/>
</a>
</g>
</g>
<!-- Node9 -->
<g id="Node000009" class="node">
<title>Node9</title>
<g id="a_Node000009"><a xlink:href="bios__entry_8h.html" target="_top" xlink:title="Assembler entry points for MSX BIOS functions.">
<polygon fill="white" stroke="#666666" points="477.88,-129.75 410.12,-129.75 410.12,-110.5 477.88,-110.5 477.88,-129.75"/>
<text text-anchor="middle" x="444" y="-116.25" font-family="Helvetica,sans-Serif" font-size="10.00">bios_entry.h</text>
</a>
</g>
</g>
<!-- Node7&#45;&gt;Node9 -->
<g id="edge13_Node000007_Node000009" class="edge">
<title>Node7&#45;&gt;Node9</title>
<g id="a_edge13_Node000007_Node000009"><a xlink:title=" ">
<path fill="none" stroke="#63b8ff" d="M443.17,-165.58C443.29,-159.07 443.46,-149.92 443.62,-141.62"/>
<polygon fill="#63b8ff" stroke="#63b8ff" points="447.11,-141.69 443.8,-131.62 440.12,-141.55 447.11,-141.69"/>
</a>
</g>
</g>
<!-- Node8&#45;&gt;Node2 -->
<g id="edge12_Node000008_Node000002" class="edge">
<title>Node8&#45;&gt;Node2</title>
<g id="a_edge12_Node000008_Node000002"><a xlink:title=" ">
<path fill="none" stroke="#63b8ff" d="M540.84,-110.09C549.05,-102.55 560.98,-91.6 570.91,-82.48"/>
<polygon fill="#63b8ff" stroke="#63b8ff" points="573.19,-85.14 578.19,-75.8 568.46,-79.98 573.19,-85.14"/>
</a>
</g>
</g>
<!-- Node8&#45;&gt;Node3 -->
<g id="edge11_Node000008_Node000003" class="edge">
<title>Node8&#45;&gt;Node3</title>
<g id="a_edge11_Node000008_Node000003"><a xlink:title=" ">
<path fill="none" stroke="#63b8ff" d="M526.25,-110.25C516.86,-92.68 495.74,-53.16 483.1,-29.52"/>
<polygon fill="#63b8ff" stroke="#63b8ff" points="486.33,-28.13 478.53,-20.96 480.15,-31.43 486.33,-28.13"/>
</a>
</g>
</g>
<!-- Node9&#45;&gt;Node2 -->
<g id="edge15_Node000009_Node000002" class="edge">
<title>Node9&#45;&gt;Node2</title>
<g id="a_edge15_Node000009_Node000002"><a xlink:title=" ">
<path fill="none" stroke="#63b8ff" d="M468.6,-110.09C491.93,-101.52 527.24,-88.56 553.6,-78.88"/>
<polygon fill="#63b8ff" stroke="#63b8ff" points="554.68,-82.21 562.86,-75.47 552.27,-75.64 554.68,-82.21"/>
</a>
</g>
</g>
<!-- Node9&#45;&gt;Node3 -->
<g id="edge14_Node000009_Node000003" class="edge">
<title>Node9&#45;&gt;Node3</title>
<g id="a_edge14_Node000009_Node000003"><a xlink:title=" ">
<path fill="none" stroke="#63b8ff" d="M446.37,-110.25C451,-92.92 461.35,-54.23 467.69,-30.49"/>
<polygon fill="#63b8ff" stroke="#63b8ff" points="471,-31.65 470.2,-21.09 464.24,-29.85 471,-31.65"/>
</a>
</g>
</g>
<!-- Node10&#45;&gt;Node2 -->
<g id="edge18_Node000010_Node000002" class="edge">
<title>Node10&#45;&gt;Node2</title>
<g id="a_edge18_Node000010_Node000002"><a xlink:title=" ">
<path fill="none" stroke="#63b8ff" d="M655.72,-165.41C649.55,-152.78 637.52,-129.2 625,-110.5 618.78,-101.21 611.09,-91.48 604.41,-83.49"/>
<polygon fill="#63b8ff" stroke="#63b8ff" points="607.08,-81.22 597.92,-75.89 601.76,-85.77 607.08,-81.22"/>
</a>
</g>
</g>
<!-- Node10&#45;&gt;Node3 -->
<g id="edge17_Node000010_Node000003" class="edge">
<title>Node10&#45;&gt;Node3</title>
<g id="a_edge17_Node000010_Node000003"><a xlink:title=" ">
<path fill="none" stroke="#63b8ff" d="M660.08,-165.32C659.74,-143 655.61,-85.06 623,-55.25 591.34,-26.31 541.67,-16.09 508.26,-12.51"/>
<polygon fill="#63b8ff" stroke="#63b8ff" points="508.96,-9.06 498.68,-11.64 508.32,-16.03 508.96,-9.06"/>
</a>
</g>
</g>
<!-- Node10&#45;&gt;Node8 -->
<g id="edge19_Node000010_Node000008" class="edge">
<title>Node10&#45;&gt;Node8</title>
<g id="a_edge19_Node000010_Node000008"><a xlink:title=" ">
<path fill="none" stroke="#63b8ff" d="M638.12,-165.34C617.64,-156.89 586.79,-144.15 563.44,-134.52"/>
<polygon fill="#63b8ff" stroke="#63b8ff" points="564.97,-131.36 554.39,-130.78 562.3,-137.83 564.97,-131.36"/>
</a>
</g>
</g>
<!-- Node11&#45;&gt;Node3 -->
<g id="edge23_Node000011_Node000003" class="edge">
<title>Node11&#45;&gt;Node3</title>
<g id="a_edge23_Node000011_Node000003"><a xlink:title=" ">
<path fill="none" stroke="#63b8ff" d="M440.01,-279.83C421.04,-273.86 393.62,-261.88 381,-240.25 376.69,-232.86 380.65,-229.55 381,-221 384.01,-146.96 357.48,-116.62 399,-55.25 408.54,-41.15 424.16,-30.78 438.59,-23.61"/>
<polygon fill="#63b8ff" stroke="#63b8ff" points="439.78,-26.92 447.42,-19.57 436.87,-20.55 439.78,-26.92"/>
</a>
</g>
</g>
<!-- Node11&#45;&gt;Node5 -->
<g id="edge22_Node000011_Node000005" class="edge">
<title>Node11&#45;&gt;Node5</title>
<g id="a_edge22_Node000011_Node000005"><a xlink:title=" ">
<path fill="none" stroke="#63b8ff" d="M479.98,-282.16C541.77,-273.77 730.54,-248.12 812.89,-236.94"/>
<polygon fill="#63b8ff" stroke="#63b8ff" points="813.31,-240.41 822.74,-235.6 812.36,-233.48 813.31,-240.41"/>
</a>
</g>
</g>
<!-- Node11&#45;&gt;Node6 -->
<g id="edge24_Node000011_Node000006" class="edge">
<title>Node11&#45;&gt;Node6</title>
<g id="a_edge24_Node000011_Node000006"><a xlink:title=" ">
<path fill="none" stroke="#63b8ff" d="M467.53,-276.07C489.75,-250.08 555.35,-173.34 585.07,-138.59"/>
<polygon fill="#63b8ff" stroke="#63b8ff" points="587.61,-141 591.45,-131.12 582.29,-136.45 587.61,-141"/>
</a>
</g>
</g>
<!-- Node11&#45;&gt;Node7 -->
<g id="edge34_Node000011_Node000007" class="edge">
<title>Node11&#45;&gt;Node7</title>
<g id="a_edge34_Node000011_Node000007"><a xlink:title=" ">
<path fill="none" stroke="#63b8ff" d="M464.52,-276.07C470.29,-263.62 478.87,-240.27 473,-221 470.08,-211.44 464.36,-202.07 458.69,-194.4"/>
<polygon fill="#63b8ff" stroke="#63b8ff" points="461.43,-192.23 452.44,-186.61 455.97,-196.61 461.43,-192.23"/>
</a>
</g>
</g>
<!-- Node11&#45;&gt;Node10 -->
<g id="edge35_Node000011_Node000010" class="edge">
<title>Node11&#45;&gt;Node10</title>
<g id="a_edge35_Node000011_Node000010"><a xlink:title=" ">
<path fill="none" stroke="#63b8ff" d="M477.09,-275.89C494.1,-266.93 520.91,-252.74 544,-240.25 575.04,-223.46 610.56,-203.84 634.03,-190.82"/>
<polygon fill="#63b8ff" stroke="#63b8ff" points="635.54,-193.99 642.58,-186.07 632.14,-187.87 635.54,-193.99"/>
</a>
</g>
</g>
<!-- Node12 -->
<g id="Node000012" class="node">
<title>Node12</title>
<g id="a_Node000012"><a xlink:title=" ">
<polygon fill="#e0e0e0" stroke="#999999" points="334.25,-240.25 283.75,-240.25 283.75,-221 334.25,-221 334.25,-240.25"/>
<text text-anchor="middle" x="309" y="-226.75" font-family="Helvetica,sans-Serif" font-size="10.00">assert.h</text>
</a>
</g>
</g>
<!-- Node11&#45;&gt;Node12 -->
<g id="edge21_Node000011_Node000012" class="edge">
<title>Node11&#45;&gt;Node12</title>
<g id="a_edge21_Node000011_Node000012"><a xlink:title=" ">
<path fill="none" stroke="#63b8ff" d="M439.95,-277.8C415.9,-269.32 375.14,-254.95 345.47,-244.49"/>
<polygon fill="#63b8ff" stroke="#63b8ff" points="346.72,-241.22 336.12,-241.19 344.39,-247.82 346.72,-241.22"/>
</a>
</g>
</g>
<!-- Node11&#45;&gt;Node13 -->
<g id="edge25_Node000011_Node000013" class="edge">
<title>Node11&#45;&gt;Node13</title>
<g id="a_edge25_Node000011_Node000013"><a xlink:title=" ">
<path fill="none" stroke="#63b8ff" d="M439.98,-282C405.4,-276.6 332.65,-263.37 275,-240.25 242.77,-227.32 208.62,-206.17 187.08,-191.78"/>
<polygon fill="#63b8ff" stroke="#63b8ff" points="189.07,-188.9 178.83,-186.18 185.14,-194.69 189.07,-188.9"/>
</a>
</g>
</g>
<!-- Node15 -->
<g id="Node000015" class="node">
<title>Node15</title>
<g id="a_Node000015"><a xlink:href="vdp__unsafe_8h.html" target="_top" xlink:title="Unsafe primitive functions for VDP (Video Display Proccessor) access.">
<polygon fill="white" stroke="#666666" points="463.88,-240.25 390.12,-240.25 390.12,-221 463.88,-221 463.88,-240.25"/>
<text text-anchor="middle" x="427" y="-226.75" font-family="Helvetica,sans-Serif" font-size="10.00">vdp_unsafe.h</text>
</a>
</g>
</g>
<!-- Node11&#45;&gt;Node15 -->
<g id="edge29_Node000011_Node000015" class="edge">
<title>Node11&#45;&gt;Node15</title>
<g id="a_edge29_Node000011_Node000015"><a xlink:title=" ">
<path fill="none" stroke="#63b8ff" d="M454.55,-276.08C450.23,-269.11 444.04,-259.12 438.62,-250.37"/>
<polygon fill="#63b8ff" stroke="#63b8ff" points="441.61,-248.55 433.36,-241.9 435.66,-252.24 441.61,-248.55"/>
</a>
</g>
</g>
<!-- Node13&#45;&gt;Node3 -->
<g id="edge26_Node000013_Node000003" class="edge">
<title>Node13&#45;&gt;Node3</title>
<g id="a_edge26_Node000013_Node000003"><a xlink:title=" ">
<path fill="none" stroke="#63b8ff" d="M165,-165.54C165.5,-143.22 170.15,-84.31 204,-55.25 238.58,-25.57 373.28,-15.29 437.96,-12.02"/>
<polygon fill="#63b8ff" stroke="#63b8ff" points="437.85,-15.53 447.67,-11.56 437.51,-8.54 437.85,-15.53"/>
</a>
</g>
</g>
<!-- Node13&#45;&gt;Node6 -->
<g id="edge28_Node000013_Node000006" class="edge">
<title>Node13&#45;&gt;Node6</title>
<g id="a_edge28_Node000013_Node000006"><a xlink:title=" ">
<path fill="none" stroke="#63b8ff" d="M190.28,-173.59C253.44,-171.21 423.2,-162.28 572.82,-129.72"/>
<polygon fill="#63b8ff" stroke="#63b8ff" points="573.54,-133.15 582.54,-127.56 572.02,-126.31 573.54,-133.15"/>
</a>
</g>
</g>
<!-- Node14 -->
<g id="Node000014" class="node">
<title>Node14</title>
<g id="a_Node000014"><a xlink:title=" ">
<polygon fill="#e0e0e0" stroke="#999999" points="152.25,-129.75 101.75,-129.75 101.75,-110.5 152.25,-110.5 152.25,-129.75"/>
<text text-anchor="middle" x="127" y="-116.25" font-family="Helvetica,sans-Serif" font-size="10.00">stddef.h</text>
</a>
</g>
</g>
<!-- Node13&#45;&gt;Node14 -->
<g id="edge27_Node000013_Node000014" class="edge">
<title>Node13&#45;&gt;Node14</title>
<g id="a_edge27_Node000013_Node000014"><a xlink:title=" ">
<path fill="none" stroke="#63b8ff" d="M158.73,-165.58C153.64,-158.46 146.3,-148.18 139.97,-139.3"/>
<polygon fill="#63b8ff" stroke="#63b8ff" points="142.95,-137.45 134.29,-131.34 137.25,-141.51 142.95,-137.45"/>
</a>
</g>
</g>
<!-- Node15&#45;&gt;Node3 -->
<g id="edge30_Node000015_Node000003" class="edge">
<title>Node15&#45;&gt;Node3</title>
<g id="a_edge30_Node000015_Node000003"><a xlink:title=" ">
<path fill="none" stroke="#63b8ff" d="M421.85,-220.78C411.06,-201.17 387.64,-152.47 395,-110.5 399.51,-84.78 399.59,-76.33 415,-55.25 423.58,-43.51 436.09,-33.35 447.29,-25.7"/>
<polygon fill="#63b8ff" stroke="#63b8ff" points="448.89,-28.83 455.39,-20.47 445.09,-22.95 448.89,-28.83"/>
</a>
</g>
</g>
<!-- Node15&#45;&gt;Node6 -->
<g id="edge31_Node000015_Node000006" class="edge">
<title>Node15&#45;&gt;Node6</title>
<g id="a_edge31_Node000015_Node000006"><a xlink:title=" ">
<path fill="none" stroke="#63b8ff" d="M438.46,-220.64C455.09,-207.78 487.07,-183.7 516,-165.75 534.88,-154.04 557.11,-142.31 573.96,-133.82"/>
<polygon fill="#63b8ff" stroke="#63b8ff" points="575.42,-137 582.81,-129.41 572.3,-130.74 575.42,-137"/>
</a>
</g>
</g>
<!-- Node15&#45;&gt;Node7 -->
<g id="edge33_Node000015_Node000007" class="edge">
<title>Node15&#45;&gt;Node7</title>
<g id="a_edge33_Node000015_Node000007"><a xlink:title=" ">
<path fill="none" stroke="#63b8ff" d="M429.64,-220.83C431.64,-214.17 434.48,-204.74 437.02,-196.28"/>
<polygon fill="#63b8ff" stroke="#63b8ff" points="440.34,-197.39 439.86,-186.81 433.64,-195.38 440.34,-197.39"/>
</a>
</g>
</g>
<!-- Node15&#45;&gt;Node13 -->
<g id="edge32_Node000015_Node000013" class="edge">
<title>Node15&#45;&gt;Node13</title>
<g id="a_edge32_Node000015_Node000013"><a xlink:title=" ">
<path fill="none" stroke="#63b8ff" d="M389.74,-222.05C339.78,-211.9 251.61,-193.98 201.86,-183.87"/>
<polygon fill="#63b8ff" stroke="#63b8ff" points="202.65,-180.46 192.15,-181.89 201.26,-187.32 202.65,-180.46"/>
</a>
</g>
</g>
<!-- Node16&#45;&gt;Node3 -->
<g id="edge38_Node000016_Node000003" class="edge">
<title>Node16&#45;&gt;Node3</title>
<g id="a_edge38_Node000016_Node000003"><a xlink:title=" ">
<path fill="none" stroke="#63b8ff" d="M52.99,-220.54C55.74,-199.15 65.19,-144.83 93,-110.5 123.02,-73.43 140.15,-71.48 185,-55.25 272.32,-23.65 382.46,-14.42 437.82,-11.73"/>
<polygon fill="#63b8ff" stroke="#63b8ff" points="437.74,-15.24 447.58,-11.3 437.44,-8.24 437.74,-15.24"/>
</a>
</g>
</g>
<!-- Node16&#45;&gt;Node13 -->
<g id="edge39_Node000016_Node000013" class="edge">
<title>Node16&#45;&gt;Node13</title>
<g id="a_edge39_Node000016_Node000013"><a xlink:title=" ">
<path fill="none" stroke="#63b8ff" d="M71.17,-220.59C88.78,-212.29 115.16,-199.86 135.46,-190.29"/>
<polygon fill="#63b8ff" stroke="#63b8ff" points="136.81,-193.53 144.37,-186.1 133.83,-187.19 136.81,-193.53"/>
</a>
</g>
</g>
<!-- Node17&#45;&gt;Node3 -->
<g id="edge41_Node000017_Node000003" class="edge">
<title>Node17&#45;&gt;Node3</title>
<g id="a_edge41_Node000017_Node000003"><a xlink:title=" ">
<path fill="none" stroke="#63b8ff" d="M52.73,-275.93C42.34,-267.73 27.77,-254.71 19,-240.25 3.65,-214.92 0,-205.99 0,-176.38 0,-176.38 0,-176.38 0,-119.12 0,-29.39 327.49,-13.87 437.47,-11.19"/>
<polygon fill="#63b8ff" stroke="#63b8ff" points="437.46,-14.69 447.38,-10.97 437.31,-7.69 437.46,-14.69"/>
</a>
</g>
</g>
<!-- Node17&#45;&gt;Node13 -->
<g id="edge43_Node000017_Node000013" class="edge">
<title>Node17&#45;&gt;Node13</title>
<g id="a_edge43_Node000017_Node000013"><a xlink:title=" ">
<path fill="none" stroke="#63b8ff" d="M73.18,-276C89.74,-258.03 127.46,-217.11 149.05,-193.69"/>
<polygon fill="#63b8ff" stroke="#63b8ff" points="151.47,-196.21 155.68,-186.49 146.33,-191.47 151.47,-196.21"/>
</a>
</g>
</g>
<!-- Node17&#45;&gt;Node16 -->
<g id="edge42_Node000017_Node000016" class="edge">
<title>Node17&#45;&gt;Node16</title>
<g id="a_edge42_Node000017_Node000016"><a xlink:title=" ">
<path fill="none" stroke="#63b8ff" d="M62.85,-276.08C61.23,-269.42 58.92,-259.99 56.86,-251.53"/>
<polygon fill="#63b8ff" stroke="#63b8ff" points="60.32,-250.96 54.55,-242.08 53.52,-252.62 60.32,-250.96"/>
</a>
</g>
</g>
<!-- Node18&#45;&gt;Node3 -->
<g id="edge45_Node000018_Node000003" class="edge">
<title>Node18&#45;&gt;Node3</title>
<g id="a_edge45_Node000018_Node000003"><a xlink:title=" ">
<path fill="none" stroke="#63b8ff" d="M242.21,-331.25C236.34,-301.79 218,-207.32 218,-176.38 218,-176.38 218,-176.38 218,-119.12 218,-24.75 367.71,-11.3 437.71,-10.17"/>
<polygon fill="#63b8ff" stroke="#63b8ff" points="437.52,-13.67 447.5,-10.09 437.47,-6.67 437.52,-13.67"/>
</a>
</g>
</g>
<!-- Node18&#45;&gt;Node11 -->
<g id="edge46_Node000018_Node000011" class="edge">
<title>Node18&#45;&gt;Node11</title>
<g id="a_edge46_Node000018_Node000011"><a xlink:title=" ">
<path fill="none" stroke="#63b8ff" d="M278.7,-331.57C320.19,-321.34 388.98,-304.38 428.83,-294.56"/>
<polygon fill="#63b8ff" stroke="#63b8ff" points="429.63,-297.97 438.5,-292.17 427.95,-291.17 429.63,-297.97"/>
</a>
</g>
</g>
<!-- Node18&#45;&gt;Node13 -->
<g id="edge47_Node000018_Node000013" class="edge">
<title>Node18&#45;&gt;Node13</title>
<g id="a_edge47_Node000018_Node000013"><a xlink:title=" ">
<path fill="none" stroke="#63b8ff" d="M239.75,-331.32C227.38,-305.67 191.14,-230.55 174.08,-195.19"/>
<polygon fill="#63b8ff" stroke="#63b8ff" points="177.42,-194.07 169.93,-186.59 171.12,-197.11 177.42,-194.07"/>
</a>
</g>
</g>
<!-- Node18&#45;&gt;Node16 -->
<g id="edge48_Node000018_Node000016" class="edge">
<title>Node18&#45;&gt;Node16</title>
<g id="a_edge48_Node000018_Node000016"><a xlink:title=" ">
<path fill="none" stroke="#63b8ff" d="M227.96,-331.06C194.78,-312.31 118.36,-269.12 78.02,-246.33"/>
<polygon fill="#63b8ff" stroke="#63b8ff" points="79.87,-243.36 69.45,-241.48 76.43,-249.45 79.87,-243.36"/>
</a>
</g>
</g>
<!-- Node19&#45;&gt;Node3 -->
<g id="edge50_Node000019_Node000003" class="edge">
<title>Node19&#45;&gt;Node3</title>
<g id="a_edge50_Node000019_Node000003"><a xlink:title=" ">
<path fill="none" stroke="#63b8ff" d="M858.44,-59.84C849.58,-58.32 839.33,-56.62 830,-55.25 712.44,-37.97 572.46,-21.73 508.3,-14.53"/>
<polygon fill="#63b8ff" stroke="#63b8ff" points="508.69,-11.05 498.37,-13.42 507.92,-18 508.69,-11.05"/>
</a>
</g>
</g>
<!-- Node20&#45;&gt;Node3 -->
<g id="edge52_Node000020_Node000003" class="edge">
<title>Node20&#45;&gt;Node3</title>
<g id="a_edge52_Node000020_Node000003"><a xlink:title=" ">
<path fill="none" stroke="#63b8ff" d="M765.05,-165.62C760.24,-152.41 749.66,-127.16 734,-110.5 672.69,-45.3 564.22,-22.21 508.39,-14.39"/>
<polygon fill="#63b8ff" stroke="#63b8ff" points="508.86,-10.92 498.49,-13.1 507.95,-17.86 508.86,-10.92"/>
</a>
</g>
</g>
<!-- Node20&#45;&gt;Node6 -->
<g id="edge53_Node000020_Node000006" class="edge">
<title>Node20&#45;&gt;Node6</title>
<g id="a_edge53_Node000020_Node000006"><a xlink:title=" ">
<path fill="none" stroke="#63b8ff" d="M748.07,-168.06C717.9,-158.5 660.59,-140.33 626.8,-129.62"/>
<polygon fill="#63b8ff" stroke="#63b8ff" points="627.95,-126.31 617.36,-126.63 625.83,-132.98 627.95,-126.31"/>
</a>
</g>
</g>
<!-- Node21&#45;&gt;Node3 -->
<g id="edge56_Node000021_Node000003" class="edge">
<title>Node21&#45;&gt;Node3</title>
<g id="a_edge56_Node000021_Node000003"><a xlink:title=" ">
<path fill="none" stroke="#63b8ff" d="M952.03,-275.89C950.1,-257.32 946,-213.37 946,-176.38 946,-176.38 946,-176.38 946,-119.12 946,-86.96 938.7,-73.18 912,-55.25 846.35,-11.15 601.01,-9.16 508.56,-10.04"/>
<polygon fill="#63b8ff" stroke="#63b8ff" points="508.53,-6.54 498.57,-10.15 508.61,-13.54 508.53,-6.54"/>
</a>
</g>
</g>
<!-- Node21&#45;&gt;Node5 -->
<g id="edge55_Node000021_Node000005" class="edge">
<title>Node21&#45;&gt;Node5</title>
<g id="a_edge55_Node000021_Node000005"><a xlink:title=" ">
<path fill="none" stroke="#63b8ff" d="M935.87,-275.84C920.34,-267.66 897.2,-255.46 879.16,-245.94"/>
<polygon fill="#63b8ff" stroke="#63b8ff" points="881.03,-242.98 870.56,-241.41 877.77,-249.17 881.03,-242.98"/>
</a>
</g>
</g>
<!-- Node22 -->
<g id="Node000022" class="node">
<title>Node22</title>
<g id="a_Node000022"><a xlink:title=" ">
<polygon fill="#e0e0e0" stroke="#999999" points="1020.38,-240.25 973.62,-240.25 973.62,-221 1020.38,-221 1020.38,-240.25"/>
<text text-anchor="middle" x="997" y="-226.75" font-family="Helvetica,sans-Serif" font-size="10.00">stdlib.h</text>
</a>
</g>
</g>
<!-- Node21&#45;&gt;Node22 -->
<g id="edge57_Node000021_Node000022" class="edge">
<title>Node21&#45;&gt;Node22</title>
<g id="a_edge57_Node000021_Node000022"><a xlink:title=" ">
<path fill="none" stroke="#63b8ff" d="M960.27,-276.08C966.28,-268.8 975.01,-258.23 982.46,-249.23"/>
<polygon fill="#63b8ff" stroke="#63b8ff" points="984.94,-251.71 988.61,-241.78 979.54,-247.26 984.94,-251.71"/>
</a>
</g>
</g>
<!-- Node23&#45;&gt;Node3 -->
<g id="edge60_Node000023_Node000003" class="edge">
<title>Node23&#45;&gt;Node3</title>
<g id="a_edge60_Node000023_Node000003"><a xlink:title=" ">
<path fill="none" stroke="#63b8ff" d="M1031.64,-275.97C1036.86,-257.55 1048,-213.86 1048,-176.38 1048,-176.38 1048,-176.38 1048,-119.12 1048,-62.21 991.22,-72.56 937,-55.25 857.14,-29.76 602.66,-16.3 508.49,-12.09"/>
<polygon fill="#63b8ff" stroke="#63b8ff" points="508.71,-8.6 498.57,-11.66 508.41,-15.59 508.71,-8.6"/>
</a>
</g>
</g>
<!-- Node23&#45;&gt;Node5 -->
<g id="edge59_Node000023_Node000005" class="edge">
<title>Node23&#45;&gt;Node5</title>
<g id="a_edge59_Node000023_Node000005"><a xlink:title=" ">
<path fill="none" stroke="#63b8ff" d="M998.97,-275.84C969.15,-266.87 923.3,-253.08 890.75,-243.28"/>
<polygon fill="#63b8ff" stroke="#63b8ff" points="891.87,-239.96 881.29,-240.44 889.85,-246.67 891.87,-239.96"/>
</a>
</g>
</g>
</g>
</svg>
