<?xml version="1.0" encoding="UTF-8" standalone="no"?>
<!DOCTYPE svg PUBLIC "-//W3C//DTD SVG 1.1//EN"
 "http://www.w3.org/Graphics/SVG/1.1/DTD/svg11.dtd">
<!-- Generated by graphviz version 7.0.2 (20221119.0110)
 -->
<!-- Title: include/msx.h Pages: 1 -->
<svg width="1070pt" height="357pt"
 viewBox="0.00 0.00 1070.00 357.00" xmlns="http://www.w3.org/2000/svg" xmlns:xlink="http://www.w3.org/1999/xlink">
<g id="graph0" class="graph" transform="scale(1 1) rotate(0) translate(4 353)">
<title>include/msx.h</title>
<!-- Node1 -->
<g id="node1" class="node">
<title>Node1</title>
<g id="a_node1"><a xlink:title="Using #include &lt;msx.h&gt; includes almost all C header files in libmsx, for ease to use.">
<polygon fill="#999999" stroke="#666666" points="583,-349 507,-349 507,-330 583,-330 583,-349"/>
<text text-anchor="middle" x="545" y="-337" font-family="Helvetica,sans-Serif" font-size="10.00">include/msx.h</text>
</a>
</g>
</g>
<!-- Node2 -->
<g id="node2" class="node">
<title>Node2</title>
<g id="a_node2"><a xlink:href="config_8h.html" target="_top" xlink:title="Hack for C Compiler portability.">
<polygon fill="white" stroke="#666666" points="199,-19 149,-19 149,0 199,0 199,-19"/>
<text text-anchor="middle" x="174" y="-7" font-family="Helvetica,sans-Serif" font-size="10.00">config.h</text>
</a>
</g>
</g>
<!-- Node1&#45;&gt;Node2 -->
<g id="edge1" class="edge">
<title>Node1&#45;&gt;Node2</title>
<path fill="none" stroke="#63b8ff" d="M506.68,-339.06C382.62,-339.86 0,-333.95 0,-230.5 0,-230.5 0,-230.5 0,-118.5 0,-54.34 86.45,-26.97 137.48,-16.4"/>
<polygon fill="#63b8ff" stroke="#63b8ff" points="138.06,-19.86 147.21,-14.52 136.73,-12.98 138.06,-19.86"/>
</g>
<!-- Node3 -->
<g id="node3" class="node">
<title>Node3</title>
<g id="a_node3"><a xlink:href="interrupt_8h.html" target="_top" xlink:title="Interrupts relevant functions and Pluggable interrupts handler interface.">
<polygon fill="white" stroke="#666666" points="857.5,-239 798.5,-239 798.5,-220 857.5,-220 857.5,-239"/>
<text text-anchor="middle" x="828" y="-227" font-family="Helvetica,sans-Serif" font-size="10.00">interrupt.h</text>
</a>
</g>
</g>
<!-- Node1&#45;&gt;Node3 -->
<g id="edge2" class="edge">
<title>Node1&#45;&gt;Node3</title>
<path fill="none" stroke="#63b8ff" d="M574.03,-329.5C601.12,-320.94 642.59,-307.4 678,-294 720.17,-278.05 767.99,-257.34 798.07,-243.98"/>
<polygon fill="#63b8ff" stroke="#63b8ff" points="799.21,-247.3 806.92,-240.03 796.36,-240.91 799.21,-247.3"/>
</g>
<!-- Node6 -->
<g id="node6" class="node">
<title>Node6</title>
<g id="a_node6"><a xlink:href="io_8h.html" target="_top" xlink:title="Definition of I/O ports.">
<polygon fill="white" stroke="#666666" points="146,-74 114,-74 114,-55 146,-55 146,-74"/>
<text text-anchor="middle" x="130" y="-62" font-family="Helvetica,sans-Serif" font-size="10.00">io.h</text>
</a>
</g>
</g>
<!-- Node1&#45;&gt;Node6 -->
<g id="edge5" class="edge">
<title>Node1&#45;&gt;Node6</title>
<path fill="none" stroke="#63b8ff" d="M506.89,-338.49C388.98,-337.46 38,-326.35 38,-230.5 38,-230.5 38,-230.5 38,-173.5 38,-144.04 39.01,-133.33 57,-110 68.93,-94.53 87.89,-83.2 103.5,-75.85"/>
<polygon fill="#63b8ff" stroke="#63b8ff" points="104.51,-79.23 112.26,-72 101.69,-72.82 104.51,-79.23"/>
</g>
<!-- Node7 -->
<g id="node7" class="node">
<title>Node7</title>
<g id="a_node7"><a xlink:href="bios_8h.html" target="_top" xlink:title="C language I/F for MSX BIOS routines.">
<polygon fill="white" stroke="#666666" points="358,-129 316,-129 316,-110 358,-110 358,-129"/>
<text text-anchor="middle" x="337" y="-117" font-family="Helvetica,sans-Serif" font-size="10.00">bios.h</text>
</a>
</g>
</g>
<!-- Node1&#45;&gt;Node7 -->
<g id="edge7" class="edge">
<title>Node1&#45;&gt;Node7</title>
<path fill="none" stroke="#63b8ff" d="M510.43,-329.62C452.2,-312.58 336.19,-269.19 288,-184 277.94,-166.21 295.53,-147.94 312.37,-135.59"/>
<polygon fill="#63b8ff" stroke="#63b8ff" points="313.93,-138.76 320.22,-130.23 309.98,-132.98 313.93,-138.76"/>
</g>
<!-- Node10 -->
<g id="node10" class="node">
<title>Node10</title>
<g id="a_node10"><a xlink:href="workarea_8h.html" target="_top" xlink:title="Definitions of MSX SYSTEM Workarea.">
<polygon fill="white" stroke="#666666" points="270,-129 206,-129 206,-110 270,-110 270,-129"/>
<text text-anchor="middle" x="238" y="-117" font-family="Helvetica,sans-Serif" font-size="10.00">workarea.h</text>
</a>
</g>
</g>
<!-- Node1&#45;&gt;Node10 -->
<g id="edge15" class="edge">
<title>Node1&#45;&gt;Node10</title>
<path fill="none" stroke="#63b8ff" d="M506.6,-332.97C472.02,-326.89 420.55,-315.06 380,-294 312.7,-259.04 265.59,-176.79 246.92,-139.49"/>
<polygon fill="#63b8ff" stroke="#63b8ff" points="250.22,-138.28 242.71,-130.82 243.93,-141.34 250.22,-138.28"/>
</g>
<!-- Node11 -->
<g id="node11" class="node">
<title>Node11</title>
<g id="a_node11"><a xlink:href="vdp_8h.html" target="_top" xlink:title="Data types and functions for VDP (Video Display Proccessor) access.">
<polygon fill="white" stroke="#666666" points="447,-239 407,-239 407,-220 447,-220 447,-239"/>
<text text-anchor="middle" x="427" y="-227" font-family="Helvetica,sans-Serif" font-size="10.00">vdp.h</text>
</a>
</g>
</g>
<!-- Node1&#45;&gt;Node11 -->
<g id="edge19" class="edge">
<title>Node1&#45;&gt;Node11</title>
<path fill="none" stroke="#63b8ff" d="M535.34,-329.66C515.64,-311.62 470.51,-270.32 445.15,-247.12"/>
<polygon fill="#63b8ff" stroke="#63b8ff" points="447.65,-244.65 437.91,-240.48 442.92,-249.82 447.65,-244.65"/>
</g>
<!-- Node13 -->
<g id="node13" class="node">
<title>Node13</title>
<g id="a_node13"><a xlink:href="vmem_8h.html" target="_top" xlink:title="Data types and functions for VRAM access.">
<polygon fill="white" stroke="#666666" points="581.5,-129 530.5,-129 530.5,-110 581.5,-110 581.5,-129"/>
<text text-anchor="middle" x="556" y="-117" font-family="Helvetica,sans-Serif" font-size="10.00">vmem.h</text>
</a>
</g>
</g>
<!-- Node1&#45;&gt;Node13 -->
<g id="edge34" class="edge">
<title>Node1&#45;&gt;Node13</title>
<path fill="none" stroke="#63b8ff" d="M541.91,-329.77C538.95,-320.9 534.68,-306.69 533,-294 525.6,-238.16 540.98,-172.2 550.03,-140.07"/>
<polygon fill="#63b8ff" stroke="#63b8ff" points="553.34,-141.2 552.8,-130.62 546.63,-139.23 553.34,-141.2"/>
</g>
<!-- Node15 -->
<g id="node15" class="node">
<title>Node15</title>
<g id="a_node15"><a xlink:href="sprite_8h.html" target="_top" xlink:title="Sprites.">
<polygon fill="white" stroke="#666666" points="666,-184 618,-184 618,-165 666,-165 666,-184"/>
<text text-anchor="middle" x="642" y="-172" font-family="Helvetica,sans-Serif" font-size="10.00">sprite.h</text>
</a>
</g>
</g>
<!-- Node1&#45;&gt;Node15 -->
<g id="edge35" class="edge">
<title>Node1&#45;&gt;Node15</title>
<path fill="none" stroke="#63b8ff" d="M571.61,-329.58C588.41,-322.56 609.12,-311.06 621,-294 641.54,-264.51 643.96,-221.15 643.33,-195.87"/>
<polygon fill="#63b8ff" stroke="#63b8ff" points="646.83,-195.81 642.88,-185.98 639.84,-196.13 646.83,-195.81"/>
</g>
<!-- Node16 -->
<g id="node16" class="node">
<title>Node16</title>
<g id="a_node16"><a xlink:href="sprite__color_8h.html" target="_top" xlink:title="Sprite color table interface.">
<polygon fill="white" stroke="#666666" points="742,-239 668,-239 668,-220 742,-220 742,-239"/>
<text text-anchor="middle" x="705" y="-227" font-family="Helvetica,sans-Serif" font-size="10.00">sprite_color.h</text>
</a>
</g>
</g>
<!-- Node1&#45;&gt;Node16 -->
<g id="edge38" class="edge">
<title>Node1&#45;&gt;Node16</title>
<path fill="none" stroke="#63b8ff" d="M578.71,-329.6C601.48,-322.48 631.39,-310.86 654,-294 670.44,-281.74 684.62,-262.99 693.83,-249.04"/>
<polygon fill="#63b8ff" stroke="#63b8ff" points="696.66,-251.1 699.04,-240.77 690.75,-247.36 696.66,-251.1"/>
</g>
<!-- Node17 -->
<g id="node17" class="node">
<title>Node17</title>
<g id="a_node17"><a xlink:href="metasprite_8h.html" target="_top" xlink:title="Meta&#45;sprite ; an aggregate of sprites.">
<polygon fill="white" stroke="#666666" points="612,-294 542,-294 542,-275 612,-275 612,-294"/>
<text text-anchor="middle" x="577" y="-282" font-family="Helvetica,sans-Serif" font-size="10.00">metasprite.h</text>
</a>
</g>
</g>
<!-- Node1&#45;&gt;Node17 -->
<g id="edge42" class="edge">
<title>Node1&#45;&gt;Node17</title>
<path fill="none" stroke="#63b8ff" d="M550.28,-329.75C554.47,-322.81 560.48,-312.86 565.73,-304.16"/>
<polygon fill="#63b8ff" stroke="#63b8ff" points="568.65,-306.11 570.82,-295.74 562.65,-302.49 568.65,-306.11"/>
</g>
<!-- Node18 -->
<g id="node18" class="node">
<title>Node18</title>
<g id="a_node18"><a xlink:href="input_8h.html" target="_top" xlink:title="Input devices such as Joypad, for example.">
<polygon fill="white" stroke="#666666" points="1049.5,-294 1004.5,-294 1004.5,-275 1049.5,-275 1049.5,-294"/>
<text text-anchor="middle" x="1027" y="-282" font-family="Helvetica,sans-Serif" font-size="10.00">input.h</text>
</a>
</g>
</g>
<!-- Node1&#45;&gt;Node18 -->
<g id="edge47" class="edge">
<title>Node1&#45;&gt;Node18</title>
<path fill="none" stroke="#63b8ff" d="M583.26,-334.5C655.93,-326.88 818.91,-309.63 956,-294 968.12,-292.62 981.39,-291.05 993.15,-289.63"/>
<polygon fill="#63b8ff" stroke="#63b8ff" points="993.29,-293.14 1002.8,-288.46 992.45,-286.19 993.29,-293.14"/>
</g>
<!-- Node19 -->
<g id="node19" class="node">
<title>Node19</title>
<g id="a_node19"><a xlink:href="psg_8h.html" target="_top" xlink:title="Device interface for PSG (AY&#45;3&#45;8910) an internal sound chip.">
<polygon fill="white" stroke="#666666" points="106,-129 66,-129 66,-110 106,-110 106,-129"/>
<text text-anchor="middle" x="86" y="-117" font-family="Helvetica,sans-Serif" font-size="10.00">psg.h</text>
</a>
</g>
</g>
<!-- Node1&#45;&gt;Node19 -->
<g id="edge49" class="edge">
<title>Node1&#45;&gt;Node19</title>
<path fill="none" stroke="#63b8ff" d="M506.7,-334.03C466.06,-328.35 400.56,-316.44 348,-294 248.6,-251.56 146.13,-170.9 104.88,-136.59"/>
<polygon fill="#63b8ff" stroke="#63b8ff" points="107.24,-134 97.33,-130.25 102.74,-139.36 107.24,-134"/>
</g>
<!-- Node20 -->
<g id="node20" class="node">
<title>Node20</title>
<g id="a_node20"><a xlink:href="sound_8h.html" target="_top" xlink:title="A PSG sound driver.">
<polygon fill="white" stroke="#666666" points="1010,-239 960,-239 960,-220 1010,-220 1010,-239"/>
<text text-anchor="middle" x="985" y="-227" font-family="Helvetica,sans-Serif" font-size="10.00">sound.h</text>
</a>
</g>
</g>
<!-- Node1&#45;&gt;Node20 -->
<g id="edge52" class="edge">
<title>Node1&#45;&gt;Node20</title>
<path fill="none" stroke="#63b8ff" d="M583.47,-331.2C626.07,-322.94 696.72,-308.71 757,-294 825.3,-277.34 904.16,-254.58 948.94,-241.32"/>
<polygon fill="#63b8ff" stroke="#63b8ff" points="949.8,-244.72 958.39,-238.52 947.8,-238.01 949.8,-244.72"/>
</g>
<!-- Node22 -->
<g id="node22" class="node">
<title>Node22</title>
<g id="a_node22"><a xlink:href="sound__eg_8h.html" target="_top" xlink:title="Software envelope genenator interface for sound.h.">
<polygon fill="white" stroke="#666666" points="942,-239 876,-239 876,-220 942,-220 942,-239"/>
<text text-anchor="middle" x="909" y="-227" font-family="Helvetica,sans-Serif" font-size="10.00">sound_eg.h</text>
</a>
</g>
</g>
<!-- Node1&#45;&gt;Node22 -->
<g id="edge56" class="edge">
<title>Node1&#45;&gt;Node22</title>
<path fill="none" stroke="#63b8ff" d="M581.43,-329.55C615.77,-320.96 668.59,-307.36 714,-294 769.65,-277.63 833.44,-256.38 872.48,-243.09"/>
<polygon fill="#63b8ff" stroke="#63b8ff" points="873.52,-246.43 881.85,-239.89 871.25,-239.81 873.52,-246.43"/>
</g>
<!-- Node4 -->
<g id="node4" class="node">
<title>Node4</title>
<g id="a_node4"><a xlink:title=" ">
<polygon fill="#e0e0e0" stroke="#999999" points="892,-184 836,-184 836,-165 892,-165 892,-184"/>
<text text-anchor="middle" x="864" y="-172" font-family="Helvetica,sans-Serif" font-size="10.00">stdbool.h</text>
</a>
</g>
</g>
<!-- Node3&#45;&gt;Node4 -->
<g id="edge3" class="edge">
<title>Node3&#45;&gt;Node4</title>
<path fill="none" stroke="#63b8ff" d="M833.94,-219.75C838.71,-212.73 845.56,-202.64 851.52,-193.87"/>
<polygon fill="#63b8ff" stroke="#63b8ff" points="854.35,-195.93 857.08,-185.69 848.56,-192 854.35,-195.93"/>
</g>
<!-- Node5 -->
<g id="node5" class="node">
<title>Node5</title>
<g id="a_node5"><a xlink:title=" ">
<polygon fill="#e0e0e0" stroke="#999999" points="580,-19 532,-19 532,0 580,0 580,-19"/>
<text text-anchor="middle" x="556" y="-7" font-family="Helvetica,sans-Serif" font-size="10.00">stdint.h</text>
</a>
</g>
</g>
<!-- Node3&#45;&gt;Node5 -->
<g id="edge4" class="edge">
<title>Node3&#45;&gt;Node5</title>
<path fill="none" stroke="#63b8ff" d="M827.01,-219.7C823.21,-187.73 808.61,-78.28 784,-55 756.71,-29.19 648.45,-17.38 591.48,-12.86"/>
<polygon fill="#63b8ff" stroke="#63b8ff" points="591.89,-9.38 581.65,-12.12 591.36,-16.36 591.89,-9.38"/>
</g>
<!-- Node6&#45;&gt;Node2 -->
<g id="edge6" class="edge">
<title>Node6&#45;&gt;Node2</title>
<path fill="none" stroke="#63b8ff" d="M137.27,-54.75C143.28,-47.5 152.01,-36.98 159.46,-28.02"/>
<polygon fill="#63b8ff" stroke="#63b8ff" points="161.92,-30.54 165.61,-20.61 156.53,-26.07 161.92,-30.54"/>
</g>
<!-- Node7&#45;&gt;Node5 -->
<g id="edge8" class="edge">
<title>Node7&#45;&gt;Node5</title>
<path fill="none" stroke="#63b8ff" d="M351.7,-109.52C372.98,-96.69 413.81,-72.69 450,-55 473.56,-43.48 500.86,-32.07 521.85,-23.68"/>
<polygon fill="#63b8ff" stroke="#63b8ff" points="523.08,-26.96 531.09,-20.03 520.5,-20.45 523.08,-26.96"/>
</g>
<!-- Node8 -->
<g id="node8" class="node">
<title>Node8</title>
<g id="a_node8"><a xlink:href="bios__const_8h.html" target="_top" xlink:title="Constant variables in the MSX BIOS ROM.">
<polygon fill="white" stroke="#666666" points="273.5,-74 202.5,-74 202.5,-55 273.5,-55 273.5,-74"/>
<text text-anchor="middle" x="238" y="-62" font-family="Helvetica,sans-Serif" font-size="10.00">bios_const.h</text>
</a>
</g>
</g>
<!-- Node7&#45;&gt;Node8 -->
<g id="edge9" class="edge">
<title>Node7&#45;&gt;Node8</title>
<path fill="none" stroke="#63b8ff" d="M320.21,-109.51C304.9,-101.31 282.03,-89.07 264.3,-79.58"/>
<polygon fill="#63b8ff" stroke="#63b8ff" points="266.35,-76.71 255.88,-75.07 263.04,-82.88 266.35,-76.71"/>
</g>
<!-- Node9 -->
<g id="node9" class="node">
<title>Node9</title>
<g id="a_node9"><a xlink:href="bios__entry_8h.html" target="_top" xlink:title="Assembler entry points for MSX BIOS functions.">
<polygon fill="white" stroke="#666666" points="398,-74 330,-74 330,-55 398,-55 398,-74"/>
<text text-anchor="middle" x="364" y="-62" font-family="Helvetica,sans-Serif" font-size="10.00">bios_entry.h</text>
</a>
</g>
</g>
<!-- Node7&#45;&gt;Node9 -->
<g id="edge12" class="edge">
<title>Node7&#45;&gt;Node9</title>
<path fill="none" stroke="#63b8ff" d="M341.46,-109.75C344.95,-102.88 349.95,-93.08 354.35,-84.45"/>
<polygon fill="#63b8ff" stroke="#63b8ff" points="357.34,-86.29 358.76,-75.79 351.1,-83.11 357.34,-86.29"/>
</g>
<!-- Node8&#45;&gt;Node2 -->
<g id="edge11" class="edge">
<title>Node8&#45;&gt;Node2</title>
<path fill="none" stroke="#63b8ff" d="M227.14,-54.51C217.89,-46.85 204.38,-35.66 193.29,-26.47"/>
<polygon fill="#63b8ff" stroke="#63b8ff" points="195.8,-24.01 185.86,-20.32 191.33,-29.4 195.8,-24.01"/>
</g>
<!-- Node8&#45;&gt;Node5 -->
<g id="edge10" class="edge">
<title>Node8&#45;&gt;Node5</title>
<path fill="none" stroke="#63b8ff" d="M273.78,-57.4C278.56,-56.59 283.4,-55.77 288,-55 371.28,-41.01 469.17,-24.82 520.49,-16.35"/>
<polygon fill="#63b8ff" stroke="#63b8ff" points="520.82,-19.85 530.11,-14.76 519.68,-12.94 520.82,-19.85"/>
</g>
<!-- Node9&#45;&gt;Node2 -->
<g id="edge14" class="edge">
<title>Node9&#45;&gt;Node2</title>
<path fill="none" stroke="#63b8ff" d="M331.77,-54.51C298.05,-45.1 245.22,-30.37 210.11,-20.57"/>
<polygon fill="#63b8ff" stroke="#63b8ff" points="211.41,-17.3 200.84,-17.99 209.53,-24.05 211.41,-17.3"/>
</g>
<!-- Node9&#45;&gt;Node5 -->
<g id="edge13" class="edge">
<title>Node9&#45;&gt;Node5</title>
<path fill="none" stroke="#63b8ff" d="M396.57,-54.51C431.04,-45 485.24,-30.03 520.71,-20.24"/>
<polygon fill="#63b8ff" stroke="#63b8ff" points="521.35,-23.7 530.06,-17.66 519.48,-16.95 521.35,-23.7"/>
</g>
<!-- Node10&#45;&gt;Node2 -->
<g id="edge17" class="edge">
<title>Node10&#45;&gt;Node2</title>
<path fill="none" stroke="#63b8ff" d="M226.01,-109.52C215.85,-101.32 201.6,-88.32 193,-74 184.92,-60.54 180.05,-43.4 177.27,-30.32"/>
<polygon fill="#63b8ff" stroke="#63b8ff" points="180.77,-29.95 175.49,-20.76 173.88,-31.23 180.77,-29.95"/>
</g>
<!-- Node10&#45;&gt;Node5 -->
<g id="edge16" class="edge">
<title>Node10&#45;&gt;Node5</title>
<path fill="none" stroke="#63b8ff" d="M246.31,-109.94C260.33,-96.05 290.19,-68.76 321,-55 387.41,-25.34 472.95,-15.43 520.36,-12.14"/>
<polygon fill="#63b8ff" stroke="#63b8ff" points="520.29,-15.65 530.05,-11.53 519.85,-8.66 520.29,-15.65"/>
</g>
<!-- Node10&#45;&gt;Node8 -->
<g id="edge18" class="edge">
<title>Node10&#45;&gt;Node8</title>
<path fill="none" stroke="#63b8ff" d="M238,-109.75C238,-103.27 238,-94.16 238,-85.9"/>
<polygon fill="#63b8ff" stroke="#63b8ff" points="241.5,-85.96 238,-75.96 234.5,-85.96 241.5,-85.96"/>
</g>
<!-- Node11&#45;&gt;Node4 -->
<g id="edge21" class="edge">
<title>Node11&#45;&gt;Node4</title>
<path fill="none" stroke="#63b8ff" d="M447.49,-226.01C515.4,-217.78 733.87,-191.28 824.27,-180.32"/>
<polygon fill="#63b8ff" stroke="#63b8ff" points="824.64,-183.8 834.14,-179.12 823.79,-176.85 824.64,-183.8"/>
</g>
<!-- Node11&#45;&gt;Node5 -->
<g id="edge22" class="edge">
<title>Node11&#45;&gt;Node5</title>
<path fill="none" stroke="#63b8ff" d="M433.17,-219.76C439.38,-210.88 449.13,-196.66 457,-184 491.38,-128.66 528.61,-61.11 546,-29.07"/>
<polygon fill="#63b8ff" stroke="#63b8ff" points="548.88,-31.09 550.56,-20.63 542.73,-27.76 548.88,-31.09"/>
</g>
<!-- Node11&#45;&gt;Node6 -->
<g id="edge23" class="edge">
<title>Node11&#45;&gt;Node6</title>
<path fill="none" stroke="#63b8ff" d="M406.82,-226.27C358.84,-219.95 236.76,-197.64 167,-129 154.07,-116.28 144.09,-98.1 137.77,-84.45"/>
<polygon fill="#63b8ff" stroke="#63b8ff" points="141.14,-83.43 133.94,-75.66 134.72,-86.22 141.14,-83.43"/>
</g>
<!-- Node11&#45;&gt;Node7 -->
<g id="edge32" class="edge">
<title>Node11&#45;&gt;Node7</title>
<path fill="none" stroke="#63b8ff" d="M406.72,-228.46C376.56,-227.16 320.67,-219.75 295,-184 283.59,-168.12 299.4,-149.38 314.78,-136.4"/>
<polygon fill="#63b8ff" stroke="#63b8ff" points="316.68,-139.35 322.38,-130.42 312.36,-133.85 316.68,-139.35"/>
</g>
<!-- Node11&#45;&gt;Node10 -->
<g id="edge33" class="edge">
<title>Node11&#45;&gt;Node10</title>
<path fill="none" stroke="#63b8ff" d="M406.95,-225.86C378.37,-221.32 325.26,-209.86 288,-184 271.1,-172.27 257.16,-153.14 248.33,-138.94"/>
<polygon fill="#63b8ff" stroke="#63b8ff" points="251.47,-137.39 243.38,-130.55 245.44,-140.94 251.47,-137.39"/>
</g>
<!-- Node12 -->
<g id="node12" class="node">
<title>Node12</title>
<g id="a_node12"><a xlink:title=" ">
<polygon fill="#e0e0e0" stroke="#999999" points="355.5,-184 304.5,-184 304.5,-165 355.5,-165 355.5,-184"/>
<text text-anchor="middle" x="330" y="-172" font-family="Helvetica,sans-Serif" font-size="10.00">assert.h</text>
</a>
</g>
</g>
<!-- Node11&#45;&gt;Node12 -->
<g id="edge20" class="edge">
<title>Node11&#45;&gt;Node12</title>
<path fill="none" stroke="#63b8ff" d="M410.55,-219.51C395.68,-211.39 373.56,-199.3 356.25,-189.85"/>
<polygon fill="#63b8ff" stroke="#63b8ff" points="357.99,-186.81 347.54,-185.08 354.64,-192.95 357.99,-186.81"/>
</g>
<!-- Node11&#45;&gt;Node13 -->
<g id="edge24" class="edge">
<title>Node11&#45;&gt;Node13</title>
<path fill="none" stroke="#63b8ff" d="M440.96,-219.53C454.02,-210.92 473.9,-197.31 490,-184 507.93,-169.19 526.91,-150.58 539.89,-137.34"/>
<polygon fill="#63b8ff" stroke="#63b8ff" points="542.34,-139.85 546.78,-130.23 537.31,-134.98 542.34,-139.85"/>
</g>
<!-- Node14 -->
<g id="node14" class="node">
<title>Node14</title>
<g id="a_node14"><a xlink:href="vdp__unsafe_8h.html" target="_top" xlink:title="Unsafe primitive functions for VDP (Video Display Proccessor) access.">
<polygon fill="white" stroke="#666666" points="448,-184 374,-184 374,-165 448,-165 448,-184"/>
<text text-anchor="middle" x="411" y="-172" font-family="Helvetica,sans-Serif" font-size="10.00">vdp_unsafe.h</text>
</a>
</g>
</g>
<!-- Node11&#45;&gt;Node14 -->
<g id="edge27" class="edge">
<title>Node11&#45;&gt;Node14</title>
<path fill="none" stroke="#63b8ff" d="M424.36,-219.75C422.36,-213.11 419.52,-203.73 416.98,-195.31"/>
<polygon fill="#63b8ff" stroke="#63b8ff" points="420.38,-194.45 414.14,-185.89 413.68,-196.48 420.38,-194.45"/>
</g>
<!-- Node13&#45;&gt;Node5 -->
<g id="edge25" class="edge">
<title>Node13&#45;&gt;Node5</title>
<path fill="none" stroke="#63b8ff" d="M556,-109.66C556,-92.57 556,-54.61 556,-30.92"/>
<polygon fill="#63b8ff" stroke="#63b8ff" points="559.5,-30.97 556,-20.97 552.5,-30.97 559.5,-30.97"/>
</g>
<!-- Node13&#45;&gt;Node6 -->
<g id="edge26" class="edge">
<title>Node13&#45;&gt;Node6</title>
<path fill="none" stroke="#63b8ff" d="M530.02,-115.42C470.41,-108.35 319.26,-90.26 193,-74 181.34,-72.5 168.48,-70.78 157.44,-69.28"/>
<polygon fill="#63b8ff" stroke="#63b8ff" points="158.19,-65.85 147.81,-67.96 157.24,-72.78 158.19,-65.85"/>
</g>
<!-- Node14&#45;&gt;Node5 -->
<g id="edge28" class="edge">
<title>Node14&#45;&gt;Node5</title>
<path fill="none" stroke="#63b8ff" d="M415.16,-164.59C425.3,-143.59 453.01,-90.1 488,-55 499.79,-43.17 515.21,-32.77 528.39,-25"/>
<polygon fill="#63b8ff" stroke="#63b8ff" points="530.07,-28.08 537.05,-20.11 526.62,-21.98 530.07,-28.08"/>
</g>
<!-- Node14&#45;&gt;Node6 -->
<g id="edge29" class="edge">
<title>Node14&#45;&gt;Node6</title>
<path fill="none" stroke="#63b8ff" d="M373.5,-166.26C314.24,-154.73 204.82,-133.09 197,-129 175.33,-117.67 155.69,-97.29 143.36,-82.67"/>
<polygon fill="#63b8ff" stroke="#63b8ff" points="146.34,-80.78 137.32,-75.22 140.9,-85.19 146.34,-80.78"/>
</g>
<!-- Node14&#45;&gt;Node7 -->
<g id="edge31" class="edge">
<title>Node14&#45;&gt;Node7</title>
<path fill="none" stroke="#63b8ff" d="M398.45,-164.51C387.54,-156.7 371.5,-145.21 358.54,-135.93"/>
<polygon fill="#63b8ff" stroke="#63b8ff" points="360.77,-133.22 350.6,-130.24 356.69,-138.91 360.77,-133.22"/>
</g>
<!-- Node14&#45;&gt;Node13 -->
<g id="edge30" class="edge">
<title>Node14&#45;&gt;Node13</title>
<path fill="none" stroke="#63b8ff" d="M435.6,-164.51C459.07,-155.93 494.67,-142.92 521.07,-133.27"/>
<polygon fill="#63b8ff" stroke="#63b8ff" points="522.15,-136.6 530.34,-129.88 519.75,-130.02 522.15,-136.6"/>
</g>
<!-- Node15&#45;&gt;Node5 -->
<g id="edge36" class="edge">
<title>Node15&#45;&gt;Node5</title>
<path fill="none" stroke="#63b8ff" d="M637.38,-164.74C623.9,-139.2 584.45,-64.43 565.88,-29.23"/>
<polygon fill="#63b8ff" stroke="#63b8ff" points="569.11,-27.86 561.35,-20.65 562.92,-31.12 569.11,-27.86"/>
</g>
<!-- Node15&#45;&gt;Node13 -->
<g id="edge37" class="edge">
<title>Node15&#45;&gt;Node13</title>
<path fill="none" stroke="#63b8ff" d="M627.41,-164.51C614.48,-156.54 595.36,-144.75 580.15,-135.38"/>
<polygon fill="#63b8ff" stroke="#63b8ff" points="582.01,-132.42 571.66,-130.15 578.34,-138.38 582.01,-132.42"/>
</g>
<!-- Node16&#45;&gt;Node5 -->
<g id="edge39" class="edge">
<title>Node16&#45;&gt;Node5</title>
<path fill="none" stroke="#63b8ff" d="M705.13,-219.85C704.99,-207.2 703.5,-183.2 695,-165 667.05,-105.15 608,-51.89 576.61,-26.4"/>
<polygon fill="#63b8ff" stroke="#63b8ff" points="579.02,-23.84 569.01,-20.35 574.66,-29.32 579.02,-23.84"/>
</g>
<!-- Node16&#45;&gt;Node13 -->
<g id="edge41" class="edge">
<title>Node16&#45;&gt;Node13</title>
<path fill="none" stroke="#63b8ff" d="M703.13,-219.86C699.79,-206.35 691.51,-180.19 675,-165 652.19,-144.02 618.58,-132.67 592.89,-126.69"/>
<polygon fill="#63b8ff" stroke="#63b8ff" points="593.7,-123.29 583.19,-124.62 592.24,-130.13 593.7,-123.29"/>
</g>
<!-- Node16&#45;&gt;Node15 -->
<g id="edge40" class="edge">
<title>Node16&#45;&gt;Node15</title>
<path fill="none" stroke="#63b8ff" d="M694.31,-219.51C685.3,-211.93 672.17,-200.88 661.32,-191.75"/>
<polygon fill="#63b8ff" stroke="#63b8ff" points="663.59,-189.09 653.69,-185.33 659.09,-194.45 663.59,-189.09"/>
</g>
<!-- Node17&#45;&gt;Node5 -->
<g id="edge43" class="edge">
<title>Node17&#45;&gt;Node5</title>
<path fill="none" stroke="#63b8ff" d="M612.33,-278.63C657.24,-271.75 731.32,-257.9 751,-239 772.25,-218.59 770,-204.96 770,-175.5 770,-175.5 770,-175.5 770,-118.5 770,-39.49 652.31,-18.27 591.49,-12.58"/>
<polygon fill="#63b8ff" stroke="#63b8ff" points="591.9,-9.1 581.64,-11.76 591.32,-16.08 591.9,-9.1"/>
</g>
<!-- Node17&#45;&gt;Node11 -->
<g id="edge44" class="edge">
<title>Node17&#45;&gt;Node11</title>
<path fill="none" stroke="#63b8ff" d="M551.55,-274.51C525.7,-265.37 485.61,-251.21 457.93,-241.43"/>
<polygon fill="#63b8ff" stroke="#63b8ff" points="459.29,-238.2 448.7,-238.17 456.96,-244.8 459.29,-238.2"/>
</g>
<!-- Node17&#45;&gt;Node13 -->
<g id="edge45" class="edge">
<title>Node17&#45;&gt;Node13</title>
<path fill="none" stroke="#63b8ff" d="M576.56,-274.53C575.51,-254.69 572.42,-205.61 566,-165 564.72,-156.89 562.83,-148.04 561.04,-140.39"/>
<polygon fill="#63b8ff" stroke="#63b8ff" points="564.47,-139.65 558.69,-130.77 557.67,-141.32 564.47,-139.65"/>
</g>
<!-- Node17&#45;&gt;Node15 -->
<g id="edge46" class="edge">
<title>Node17&#45;&gt;Node15</title>
<path fill="none" stroke="#63b8ff" d="M582.32,-274.66C592.84,-257.18 616.52,-217.84 630.68,-194.3"/>
<polygon fill="#63b8ff" stroke="#63b8ff" points="633.67,-196.13 635.83,-185.76 627.67,-192.52 633.67,-196.13"/>
</g>
<!-- Node18&#45;&gt;Node5 -->
<g id="edge48" class="edge">
<title>Node18&#45;&gt;Node5</title>
<path fill="none" stroke="#63b8ff" d="M1032.01,-274.57C1041.69,-256.48 1062,-213.93 1062,-175.5 1062,-175.5 1062,-175.5 1062,-118.5 1062,-22.2 707.05,-11.45 591.72,-10.5"/>
<polygon fill="#63b8ff" stroke="#63b8ff" points="591.94,-7 581.92,-10.44 591.9,-14 591.94,-7"/>
</g>
<!-- Node19&#45;&gt;Node5 -->
<g id="edge50" class="edge">
<title>Node19&#45;&gt;Node5</title>
<path fill="none" stroke="#63b8ff" d="M85.78,-109.91C85.94,-95.96 88.48,-68.61 105,-55 136.84,-28.77 419.2,-15.65 520.24,-11.76"/>
<polygon fill="#63b8ff" stroke="#63b8ff" points="520.26,-15.27 530.12,-11.39 520,-8.27 520.26,-15.27"/>
</g>
<!-- Node19&#45;&gt;Node6 -->
<g id="edge51" class="edge">
<title>Node19&#45;&gt;Node6</title>
<path fill="none" stroke="#63b8ff" d="M93.27,-109.75C99.28,-102.5 108.01,-91.98 115.46,-83.02"/>
<polygon fill="#63b8ff" stroke="#63b8ff" points="117.92,-85.54 121.61,-75.61 112.53,-81.07 117.92,-85.54"/>
</g>
<!-- Node20&#45;&gt;Node4 -->
<g id="edge53" class="edge">
<title>Node20&#45;&gt;Node4</title>
<path fill="none" stroke="#63b8ff" d="M964.47,-219.51C945.32,-211.12 916.5,-198.5 894.63,-188.92"/>
<polygon fill="#63b8ff" stroke="#63b8ff" points="896.17,-185.77 885.61,-184.97 893.36,-192.18 896.17,-185.77"/>
</g>
<!-- Node20&#45;&gt;Node5 -->
<g id="edge54" class="edge">
<title>Node20&#45;&gt;Node5</title>
<path fill="none" stroke="#63b8ff" d="M980.67,-219.91C965.27,-190.43 909.92,-93.13 832,-55 752.56,-16.13 646.38,-10.05 591.77,-9.77"/>
<polygon fill="#63b8ff" stroke="#63b8ff" points="591.8,-6.27 581.81,-9.79 591.82,-13.27 591.8,-6.27"/>
</g>
<!-- Node21 -->
<g id="node21" class="node">
<title>Node21</title>
<g id="a_node21"><a xlink:title=" ">
<polygon fill="#e0e0e0" stroke="#999999" points="1033.5,-184 986.5,-184 986.5,-165 1033.5,-165 1033.5,-184"/>
<text text-anchor="middle" x="1010" y="-172" font-family="Helvetica,sans-Serif" font-size="10.00">stdlib.h</text>
</a>
</g>
</g>
<!-- Node20&#45;&gt;Node21 -->
<g id="edge55" class="edge">
<title>Node20&#45;&gt;Node21</title>
<path fill="none" stroke="#63b8ff" d="M989.13,-219.75C992.33,-212.96 996.89,-203.3 1000.93,-194.73"/>
<polygon fill="#63b8ff" stroke="#63b8ff" points="1004.04,-196.35 1005.14,-185.81 997.7,-193.36 1004.04,-196.35"/>
</g>
<!-- Node22&#45;&gt;Node4 -->
<g id="edge57" class="edge">
<title>Node22&#45;&gt;Node4</title>
<path fill="none" stroke="#63b8ff" d="M901.57,-219.75C895.42,-212.5 886.49,-201.98 878.87,-193.02"/>
<polygon fill="#63b8ff" stroke="#63b8ff" points="881.71,-190.95 872.57,-185.6 876.38,-195.48 881.71,-190.95"/>
</g>
<!-- Node22&#45;&gt;Node5 -->
<g id="edge58" class="edge">
<title>Node22&#45;&gt;Node5</title>
<path fill="none" stroke="#63b8ff" d="M909.49,-219.85C909.87,-207.2 909.27,-183.21 901,-165 873.91,-105.39 860.12,-87 803,-55 735.08,-16.95 641.65,-10.34 591.4,-9.81"/>
<polygon fill="#63b8ff" stroke="#63b8ff" points="591.7,-6.31 581.7,-9.79 591.69,-13.31 591.7,-6.31"/>
</g>
</g>
</svg>
