<?xml version="1.0" encoding="UTF-8" standalone="no"?>
<!DOCTYPE svg PUBLIC "-//W3C//DTD SVG 1.1//EN"
 "http://www.w3.org/Graphics/SVG/1.1/DTD/svg11.dtd">
<!-- Generated by graphviz version 2.43.0 (0)
 -->
<!-- Title: include/msx.h Pages: 1 -->
<svg width="826pt" height="252pt"
 viewBox="0.00 0.00 825.50 252.00" xmlns="http://www.w3.org/2000/svg" xmlns:xlink="http://www.w3.org/1999/xlink">
<g id="graph0" class="graph" transform="scale(1 1) rotate(0) translate(4 248)">
<title>include/msx.h</title>
<!-- Node1 -->
<g id="node1" class="node">
<title>Node1</title>
<g id="a_node1"><a xlink:title=" ">
<polygon fill="#bfbfbf" stroke="black" points="292.5,-224.5 292.5,-243.5 377.5,-243.5 377.5,-224.5 292.5,-224.5"/>
<text text-anchor="middle" x="335" y="-231.5" font-family="Helvetica,sans-Serif" font-size="10.00">include/msx.h</text>
</a>
</g>
</g>
<!-- Node2 -->
<g id="node2" class="node">
<title>Node2</title>
<g id="a_node2"><a xlink:href="interrupt_8h.html" target="_top" xlink:title=" ">
<polygon fill="none" stroke="black" points="0,-168.5 0,-187.5 68,-187.5 68,-168.5 0,-168.5"/>
<text text-anchor="middle" x="34" y="-175.5" font-family="Helvetica,sans-Serif" font-size="10.00">interrupt.h</text>
</a>
</g>
</g>
<!-- Node1&#45;&gt;Node2 -->
<g id="edge1" class="edge">
<title>Node1&#45;&gt;Node2</title>
<path fill="none" stroke="midnightblue" d="M292.45,-225.56C242.16,-216.73 155.95,-201.51 82,-188 80.73,-187.77 79.45,-187.53 78.15,-187.29"/>
<polygon fill="midnightblue" stroke="midnightblue" points="78.55,-183.81 68.08,-185.43 77.28,-190.69 78.55,-183.81"/>
</g>
<!-- Node3 -->
<g id="node3" class="node">
<title>Node3</title>
<g id="a_node3"><a xlink:href="io_8h.html" target="_top" xlink:title=" ">
<polygon fill="none" stroke="black" points="273.5,-0.5 273.5,-19.5 308.5,-19.5 308.5,-0.5 273.5,-0.5"/>
<text text-anchor="middle" x="291" y="-7.5" font-family="Helvetica,sans-Serif" font-size="10.00">io.h</text>
</a>
</g>
</g>
<!-- Node1&#45;&gt;Node3 -->
<g id="edge2" class="edge">
<title>Node1&#45;&gt;Node3</title>
<path fill="none" stroke="midnightblue" d="M292.24,-230.09C235.65,-223.51 140.08,-202.03 115,-132 90.34,-63.13 208.21,-28.55 263.58,-16.31"/>
<polygon fill="midnightblue" stroke="midnightblue" points="264.39,-19.71 273.45,-14.22 262.94,-12.86 264.39,-19.71"/>
</g>
<!-- Node4 -->
<g id="node4" class="node">
<title>Node4</title>
<g id="a_node4"><a xlink:href="bios_8h.html" target="_top" xlink:title=" ">
<polygon fill="none" stroke="black" points="682,-56.5 682,-75.5 728,-75.5 728,-56.5 682,-56.5"/>
<text text-anchor="middle" x="705" y="-63.5" font-family="Helvetica,sans-Serif" font-size="10.00">bios.h</text>
</a>
</g>
</g>
<!-- Node1&#45;&gt;Node4 -->
<g id="edge3" class="edge">
<title>Node1&#45;&gt;Node4</title>
<path fill="none" stroke="midnightblue" d="M377.67,-224.77C411.84,-217.39 460.57,-205.09 501,-188 572.37,-157.82 649.05,-106.63 684.66,-81.62"/>
<polygon fill="midnightblue" stroke="midnightblue" points="687.06,-84.22 693.19,-75.58 683.01,-78.5 687.06,-84.22"/>
</g>
<!-- Node6 -->
<g id="node6" class="node">
<title>Node6</title>
<g id="a_node6"><a xlink:href="workarea_8h.html" target="_top" xlink:title=" ">
<polygon fill="none" stroke="black" points="746.5,-56.5 746.5,-75.5 817.5,-75.5 817.5,-56.5 746.5,-56.5"/>
<text text-anchor="middle" x="782" y="-63.5" font-family="Helvetica,sans-Serif" font-size="10.00">workarea.h</text>
</a>
</g>
</g>
<!-- Node1&#45;&gt;Node6 -->
<g id="edge5" class="edge">
<title>Node1&#45;&gt;Node6</title>
<path fill="none" stroke="midnightblue" d="M377.78,-226.45C419.04,-219.43 482.88,-206.71 536,-188 621.56,-157.86 716.07,-105.53 758.78,-80.76"/>
<polygon fill="midnightblue" stroke="midnightblue" points="760.69,-83.7 767.56,-75.63 757.16,-77.66 760.69,-83.7"/>
</g>
<!-- Node7 -->
<g id="node7" class="node">
<title>Node7</title>
<g id="a_node7"><a xlink:href="vdp_8h.html" target="_top" xlink:title=" ">
<polygon fill="none" stroke="black" points="535,-112.5 535,-131.5 579,-131.5 579,-112.5 535,-112.5"/>
<text text-anchor="middle" x="557" y="-119.5" font-family="Helvetica,sans-Serif" font-size="10.00">vdp.h</text>
</a>
</g>
</g>
<!-- Node1&#45;&gt;Node7 -->
<g id="edge7" class="edge">
<title>Node1&#45;&gt;Node7</title>
<path fill="none" stroke="midnightblue" d="M371.23,-224.49C399.41,-217.06 438.96,-204.82 471,-188 496.96,-174.37 523.36,-153.08 539.94,-138.6"/>
<polygon fill="midnightblue" stroke="midnightblue" points="542.51,-141 547.65,-131.73 537.86,-135.77 542.51,-141"/>
</g>
<!-- Node10 -->
<g id="node10" class="node">
<title>Node10</title>
<g id="a_node10"><a xlink:href="vmem_8h.html" target="_top" xlink:title=" ">
<polygon fill="none" stroke="black" points="262.5,-56.5 262.5,-75.5 319.5,-75.5 319.5,-56.5 262.5,-56.5"/>
<text text-anchor="middle" x="291" y="-63.5" font-family="Helvetica,sans-Serif" font-size="10.00">vmem.h</text>
</a>
</g>
</g>
<!-- Node1&#45;&gt;Node10 -->
<g id="edge17" class="edge">
<title>Node1&#45;&gt;Node10</title>
<path fill="none" stroke="midnightblue" d="M292.33,-228.9C265.59,-223.87 233.08,-212.71 216,-188 190.3,-150.8 239.63,-104.98 269.88,-81.85"/>
<polygon fill="midnightblue" stroke="midnightblue" points="272.24,-84.46 278.19,-75.7 268.07,-78.84 272.24,-84.46"/>
</g>
<!-- Node11 -->
<g id="node11" class="node">
<title>Node11</title>
<g id="a_node11"><a xlink:href="sprite_8h.html" target="_top" xlink:title=" ">
<polygon fill="none" stroke="black" points="300.5,-112.5 300.5,-131.5 353.5,-131.5 353.5,-112.5 300.5,-112.5"/>
<text text-anchor="middle" x="327" y="-119.5" font-family="Helvetica,sans-Serif" font-size="10.00">sprite.h</text>
</a>
</g>
</g>
<!-- Node1&#45;&gt;Node11 -->
<g id="edge18" class="edge">
<title>Node1&#45;&gt;Node11</title>
<path fill="none" stroke="midnightblue" d="M334.37,-224.37C333.08,-206.62 330.1,-165.67 328.35,-141.6"/>
<polygon fill="midnightblue" stroke="midnightblue" points="331.84,-141.31 327.62,-131.59 324.86,-141.82 331.84,-141.31"/>
</g>
<!-- Node12 -->
<g id="node12" class="node">
<title>Node12</title>
<g id="a_node12"><a xlink:href="sprite__color_8h.html" target="_top" xlink:title=" ">
<polygon fill="none" stroke="black" points="225,-168.5 225,-187.5 307,-187.5 307,-168.5 225,-168.5"/>
<text text-anchor="middle" x="266" y="-175.5" font-family="Helvetica,sans-Serif" font-size="10.00">sprite_color.h</text>
</a>
</g>
</g>
<!-- Node1&#45;&gt;Node12 -->
<g id="edge21" class="edge">
<title>Node1&#45;&gt;Node12</title>
<path fill="none" stroke="midnightblue" d="M323.91,-224.32C313.51,-216.18 297.74,-203.84 285.28,-194.09"/>
<polygon fill="midnightblue" stroke="midnightblue" points="287.32,-191.24 277.29,-187.83 283.01,-196.75 287.32,-191.24"/>
</g>
<!-- Node13 -->
<g id="node13" class="node">
<title>Node13</title>
<g id="a_node13"><a xlink:href="metasprite_8h.html" target="_top" xlink:title=" ">
<polygon fill="none" stroke="black" points="363.5,-168.5 363.5,-187.5 442.5,-187.5 442.5,-168.5 363.5,-168.5"/>
<text text-anchor="middle" x="403" y="-175.5" font-family="Helvetica,sans-Serif" font-size="10.00">metasprite.h</text>
</a>
</g>
</g>
<!-- Node1&#45;&gt;Node13 -->
<g id="edge25" class="edge">
<title>Node1&#45;&gt;Node13</title>
<path fill="none" stroke="midnightblue" d="M345.93,-224.32C356.17,-216.18 371.72,-203.84 384,-194.09"/>
<polygon fill="midnightblue" stroke="midnightblue" points="386.22,-196.79 391.88,-187.83 381.87,-191.31 386.22,-196.79"/>
</g>
<!-- Node14 -->
<g id="node14" class="node">
<title>Node14</title>
<g id="a_node14"><a xlink:href="input_8h.html" target="_top" xlink:title=" ">
<polygon fill="none" stroke="black" points="448,-112.5 448,-131.5 498,-131.5 498,-112.5 448,-112.5"/>
<text text-anchor="middle" x="473" y="-119.5" font-family="Helvetica,sans-Serif" font-size="10.00">input.h</text>
</a>
</g>
</g>
<!-- Node1&#45;&gt;Node14 -->
<g id="edge30" class="edge">
<title>Node1&#45;&gt;Node14</title>
<path fill="none" stroke="midnightblue" d="M377.53,-225.77C401.97,-219.57 431.58,-208.29 451,-188 462.96,-175.5 468.43,-156.28 470.93,-141.97"/>
<polygon fill="midnightblue" stroke="midnightblue" points="474.43,-142.16 472.36,-131.77 467.5,-141.19 474.43,-142.16"/>
</g>
<!-- Node15 -->
<g id="node15" class="node">
<title>Node15</title>
<g id="a_node15"><a xlink:href="psg_8h.html" target="_top" xlink:title=" ">
<polygon fill="none" stroke="black" points="124.5,-112.5 124.5,-131.5 167.5,-131.5 167.5,-112.5 124.5,-112.5"/>
<text text-anchor="middle" x="146" y="-119.5" font-family="Helvetica,sans-Serif" font-size="10.00">psg.h</text>
</a>
</g>
</g>
<!-- Node1&#45;&gt;Node15 -->
<g id="edge33" class="edge">
<title>Node1&#45;&gt;Node15</title>
<path fill="none" stroke="midnightblue" d="M292.34,-229.27C259.18,-224.44 213.65,-213.36 182,-188 166.93,-175.93 157.18,-155.75 151.67,-141.08"/>
<polygon fill="midnightblue" stroke="midnightblue" points="154.96,-139.88 148.4,-131.56 148.34,-142.15 154.96,-139.88"/>
</g>
<!-- Node5 -->
<g id="node5" class="node">
<title>Node5</title>
<g id="a_node5"><a xlink:title=" ">
<polygon fill="none" stroke="#bfbfbf" points="359.5,-0.5 359.5,-19.5 412.5,-19.5 412.5,-0.5 359.5,-0.5"/>
<text text-anchor="middle" x="386" y="-7.5" font-family="Helvetica,sans-Serif" font-size="10.00">stdint.h</text>
</a>
</g>
</g>
<!-- Node4&#45;&gt;Node5 -->
<g id="edge4" class="edge">
<title>Node4&#45;&gt;Node5</title>
<path fill="none" stroke="midnightblue" d="M681.97,-59.1C677.36,-58 672.54,-56.91 668,-56 580.51,-38.41 476.64,-23.31 422.67,-15.89"/>
<polygon fill="midnightblue" stroke="midnightblue" points="422.95,-12.4 412.56,-14.51 422,-19.33 422.95,-12.4"/>
</g>
<!-- Node6&#45;&gt;Node5 -->
<g id="edge6" class="edge">
<title>Node6&#45;&gt;Node5</title>
<path fill="none" stroke="midnightblue" d="M746.18,-57.6C743.08,-57.03 739.99,-56.49 737,-56 622.71,-37.27 486.42,-21.72 422.5,-14.83"/>
<polygon fill="midnightblue" stroke="midnightblue" points="422.83,-11.34 412.51,-13.76 422.08,-18.3 422.83,-11.34"/>
</g>
<!-- Node7&#45;&gt;Node3 -->
<g id="edge11" class="edge">
<title>Node7&#45;&gt;Node3</title>
<path fill="none" stroke="midnightblue" d="M569.05,-112.42C585.9,-99.4 612.77,-74.24 597,-56 560.72,-14.04 404.86,-28.18 350,-20 339.76,-18.47 328.54,-16.77 318.65,-15.26"/>
<polygon fill="midnightblue" stroke="midnightblue" points="318.97,-11.76 308.55,-13.71 317.9,-18.68 318.97,-11.76"/>
</g>
<!-- Node7&#45;&gt;Node4 -->
<g id="edge15" class="edge">
<title>Node7&#45;&gt;Node4</title>
<path fill="none" stroke="midnightblue" d="M579.16,-112.92C603.83,-103.91 643.94,-89.28 672.24,-78.95"/>
<polygon fill="midnightblue" stroke="midnightblue" points="673.52,-82.21 681.71,-75.5 671.12,-75.64 673.52,-82.21"/>
</g>
<!-- Node7&#45;&gt;Node5 -->
<g id="edge10" class="edge">
<title>Node7&#45;&gt;Node5</title>
<path fill="none" stroke="midnightblue" d="M579.05,-112.85C606.96,-101.32 649.22,-79.08 630,-56 604.08,-24.86 484.5,-15.19 422.9,-12.25"/>
<polygon fill="midnightblue" stroke="midnightblue" points="422.97,-8.75 412.82,-11.8 422.66,-15.74 422.97,-8.75"/>
</g>
<!-- Node7&#45;&gt;Node6 -->
<g id="edge16" class="edge">
<title>Node7&#45;&gt;Node6</title>
<path fill="none" stroke="midnightblue" d="M579.4,-115.62C615.92,-106.86 689.03,-89.31 736.71,-77.87"/>
<polygon fill="midnightblue" stroke="midnightblue" points="737.57,-81.26 746.47,-75.53 735.93,-74.46 737.57,-81.26"/>
</g>
<!-- Node8 -->
<g id="node8" class="node">
<title>Node8</title>
<g id="a_node8"><a xlink:title=" ">
<polygon fill="none" stroke="#bfbfbf" points="452,-56.5 452,-75.5 508,-75.5 508,-56.5 452,-56.5"/>
<text text-anchor="middle" x="480" y="-63.5" font-family="Helvetica,sans-Serif" font-size="10.00">assert.h</text>
</a>
</g>
</g>
<!-- Node7&#45;&gt;Node8 -->
<g id="edge8" class="edge">
<title>Node7&#45;&gt;Node8</title>
<path fill="none" stroke="midnightblue" d="M544.63,-112.32C532.84,-104.06 514.87,-91.45 500.86,-81.63"/>
<polygon fill="midnightblue" stroke="midnightblue" points="502.54,-78.53 492.34,-75.65 498.52,-84.26 502.54,-78.53"/>
</g>
<!-- Node9 -->
<g id="node9" class="node">
<title>Node9</title>
<g id="a_node9"><a xlink:title=" ">
<polygon fill="none" stroke="#bfbfbf" points="526,-56.5 526,-75.5 588,-75.5 588,-56.5 526,-56.5"/>
<text text-anchor="middle" x="557" y="-63.5" font-family="Helvetica,sans-Serif" font-size="10.00">stdbool.h</text>
</a>
</g>
</g>
<!-- Node7&#45;&gt;Node9 -->
<g id="edge9" class="edge">
<title>Node7&#45;&gt;Node9</title>
<path fill="none" stroke="midnightblue" d="M557,-112.08C557,-105.01 557,-94.86 557,-85.99"/>
<polygon fill="midnightblue" stroke="midnightblue" points="560.5,-85.75 557,-75.75 553.5,-85.75 560.5,-85.75"/>
</g>
<!-- Node7&#45;&gt;Node10 -->
<g id="edge12" class="edge">
<title>Node7&#45;&gt;Node10</title>
<path fill="none" stroke="midnightblue" d="M534.78,-116.49C489.52,-107.3 386.18,-86.32 329.67,-74.85"/>
<polygon fill="midnightblue" stroke="midnightblue" points="330.18,-71.38 319.68,-72.82 328.79,-78.24 330.18,-71.38"/>
</g>
<!-- Node10&#45;&gt;Node3 -->
<g id="edge14" class="edge">
<title>Node10&#45;&gt;Node3</title>
<path fill="none" stroke="midnightblue" d="M291,-56.08C291,-49.01 291,-38.86 291,-29.99"/>
<polygon fill="midnightblue" stroke="midnightblue" points="294.5,-29.75 291,-19.75 287.5,-29.75 294.5,-29.75"/>
</g>
<!-- Node10&#45;&gt;Node5 -->
<g id="edge13" class="edge">
<title>Node10&#45;&gt;Node5</title>
<path fill="none" stroke="midnightblue" d="M306.26,-56.32C321.22,-47.82 344.25,-34.73 361.73,-24.8"/>
<polygon fill="midnightblue" stroke="midnightblue" points="363.81,-27.64 370.77,-19.65 360.35,-21.55 363.81,-27.64"/>
</g>
<!-- Node11&#45;&gt;Node5 -->
<g id="edge19" class="edge">
<title>Node11&#45;&gt;Node5</title>
<path fill="none" stroke="midnightblue" d="M331.63,-112.37C341.28,-94.38 363.71,-52.55 376.55,-28.63"/>
<polygon fill="midnightblue" stroke="midnightblue" points="379.75,-30.06 381.39,-19.59 373.58,-26.75 379.75,-30.06"/>
</g>
<!-- Node11&#45;&gt;Node10 -->
<g id="edge20" class="edge">
<title>Node11&#45;&gt;Node10</title>
<path fill="none" stroke="midnightblue" d="M321.06,-112.08C316.02,-104.53 308.66,-93.49 302.49,-84.23"/>
<polygon fill="midnightblue" stroke="midnightblue" points="305.29,-82.13 296.83,-75.75 299.47,-86.01 305.29,-82.13"/>
</g>
<!-- Node12&#45;&gt;Node5 -->
<g id="edge22" class="edge">
<title>Node12&#45;&gt;Node5</title>
<path fill="none" stroke="midnightblue" d="M261.5,-168.39C251.05,-147.06 227.88,-91.02 253,-56 264.44,-40.05 314.15,-26.35 349.44,-18.39"/>
<polygon fill="midnightblue" stroke="midnightblue" points="350.39,-21.76 359.41,-16.2 348.9,-14.93 350.39,-21.76"/>
</g>
<!-- Node12&#45;&gt;Node10 -->
<g id="edge24" class="edge">
<title>Node12&#45;&gt;Node10</title>
<path fill="none" stroke="midnightblue" d="M267.96,-168.37C272,-150.62 281.3,-109.67 286.77,-85.6"/>
<polygon fill="midnightblue" stroke="midnightblue" points="290.24,-86.12 289.05,-75.59 283.42,-84.57 290.24,-86.12"/>
</g>
<!-- Node12&#45;&gt;Node11 -->
<g id="edge23" class="edge">
<title>Node12&#45;&gt;Node11</title>
<path fill="none" stroke="midnightblue" d="M275.8,-168.32C284.82,-160.34 298.41,-148.31 309.32,-138.65"/>
<polygon fill="midnightblue" stroke="midnightblue" points="311.85,-141.08 317.02,-131.83 307.21,-135.84 311.85,-141.08"/>
</g>
<!-- Node13&#45;&gt;Node5 -->
<g id="edge26" class="edge">
<title>Node13&#45;&gt;Node5</title>
<path fill="none" stroke="midnightblue" d="M402.09,-168.08C399.41,-141.95 391.55,-65.21 387.9,-29.58"/>
<polygon fill="midnightblue" stroke="midnightblue" points="391.38,-29.16 386.88,-19.57 384.41,-29.87 391.38,-29.16"/>
</g>
<!-- Node13&#45;&gt;Node7 -->
<g id="edge27" class="edge">
<title>Node13&#45;&gt;Node7</title>
<path fill="none" stroke="midnightblue" d="M427.4,-168.44C453.8,-159.19 496.01,-144.39 525.04,-134.21"/>
<polygon fill="midnightblue" stroke="midnightblue" points="526.43,-137.43 534.71,-130.82 524.12,-130.82 526.43,-137.43"/>
</g>
<!-- Node13&#45;&gt;Node10 -->
<g id="edge28" class="edge">
<title>Node13&#45;&gt;Node10</title>
<path fill="none" stroke="midnightblue" d="M399,-168.16C392.64,-154.79 379.15,-129.19 362,-112 349.23,-99.2 332.2,-88.26 318.01,-80.36"/>
<polygon fill="midnightblue" stroke="midnightblue" points="319.65,-77.27 309.18,-75.63 316.34,-83.44 319.65,-77.27"/>
</g>
<!-- Node13&#45;&gt;Node11 -->
<g id="edge29" class="edge">
<title>Node13&#45;&gt;Node11</title>
<path fill="none" stroke="midnightblue" d="M390.79,-168.32C379.22,-160.11 361.62,-147.6 347.84,-137.81"/>
<polygon fill="midnightblue" stroke="midnightblue" points="349.61,-134.77 339.43,-131.83 345.56,-140.48 349.61,-134.77"/>
</g>
<!-- Node14&#45;&gt;Node5 -->
<g id="edge32" class="edge">
<title>Node14&#45;&gt;Node5</title>
<path fill="none" stroke="midnightblue" d="M466.17,-112.37C451.75,-94.14 417.97,-51.43 399.19,-27.68"/>
<polygon fill="midnightblue" stroke="midnightblue" points="401.74,-25.26 392.8,-19.59 396.25,-29.61 401.74,-25.26"/>
</g>
<!-- Node14&#45;&gt;Node8 -->
<g id="edge31" class="edge">
<title>Node14&#45;&gt;Node8</title>
<path fill="none" stroke="midnightblue" d="M474.16,-112.08C475.08,-104.93 476.42,-94.64 477.58,-85.69"/>
<polygon fill="midnightblue" stroke="midnightblue" points="481.05,-86.12 478.87,-75.75 474.11,-85.22 481.05,-86.12"/>
</g>
<!-- Node15&#45;&gt;Node5 -->
<g id="edge34" class="edge">
<title>Node15&#45;&gt;Node5</title>
<path fill="none" stroke="midnightblue" d="M153.29,-112.45C165.61,-98.54 191.98,-71.04 220,-56 261.25,-33.86 314.23,-21.96 349.11,-16.06"/>
<polygon fill="midnightblue" stroke="midnightblue" points="350,-19.46 359.32,-14.42 348.89,-12.55 350,-19.46"/>
</g>
</g>
</svg>
