<?xml version="1.0" encoding="UTF-8" standalone="no"?>
<!DOCTYPE svg PUBLIC "-//W3C//DTD SVG 1.1//EN"
 "http://www.w3.org/Graphics/SVG/1.1/DTD/svg11.dtd">
<!-- Generated by graphviz version 3.0.0 (20221109.1736)
 -->
<!-- Title: include/msx.h Pages: 1 -->
<svg width="1086pt" height="364pt"
 viewBox="0.00 0.00 1086.00 364.00" xmlns="http://www.w3.org/2000/svg" xmlns:xlink="http://www.w3.org/1999/xlink">
<g id="graph0" class="graph" transform="scale(1 1) rotate(0) translate(4 360)">
<title>include/msx.h</title>
<!-- Node1 -->
<g id="node1" class="node">
<title>Node1</title>
<g id="a_node1"><a xlink:title="Using #include &lt;msx.h&gt; includes almost all C header files in libmsx, for ease to use.">
<polygon fill="#bfbfbf" stroke="black" points="568,-336.5 568,-355.5 644,-355.5 644,-336.5 568,-336.5"/>
<text text-anchor="middle" x="606" y="-343.5" font-family="Helvetica,sans-Serif" font-size="10.00">include/msx.h</text>
</a>
</g>
</g>
<!-- Node2 -->
<g id="node2" class="node">
<title>Node2</title>
<g id="a_node2"><a xlink:href="config_8h.html" target="_top" xlink:title="Hack for C Compiler portability.">
<polygon fill="none" stroke="black" points="177,-0.5 177,-19.5 227,-19.5 227,-0.5 177,-0.5"/>
<text text-anchor="middle" x="202" y="-7.5" font-family="Helvetica,sans-Serif" font-size="10.00">config.h</text>
</a>
</g>
</g>
<!-- Node1&#45;&gt;Node2 -->
<g id="edge1" class="edge">
<title>Node1&#45;&gt;Node2</title>
<path fill="none" stroke="midnightblue" d="M567.83,-344.36C463.58,-342.18 175.92,-333.24 88,-300 42.52,-282.81 0,-283.62 0,-235 0,-235 0,-235 0,-121 0,-46 108.72,-21.84 166.64,-14.29"/>
<polygon fill="midnightblue" stroke="midnightblue" points="167.31,-17.74 176.82,-13.07 166.48,-10.79 167.31,-17.74"/>
</g>
<!-- Node3 -->
<g id="node3" class="node">
<title>Node3</title>
<g id="a_node3"><a xlink:href="interrupt_8h.html" target="_top" xlink:title="Interrupts relevant functions and Pluggable interrupts handler interface.">
<polygon fill="none" stroke="black" points="802.5,-224.5 802.5,-243.5 861.5,-243.5 861.5,-224.5 802.5,-224.5"/>
<text text-anchor="middle" x="832" y="-231.5" font-family="Helvetica,sans-Serif" font-size="10.00">interrupt.h</text>
</a>
</g>
</g>
<!-- Node1&#45;&gt;Node3 -->
<g id="edge2" class="edge">
<title>Node1&#45;&gt;Node3</title>
<path fill="none" stroke="midnightblue" d="M630.24,-336.49C653.42,-328.09 689.15,-314.43 719,-300 751.45,-284.31 787.25,-262.99 809.68,-249.11"/>
<polygon fill="midnightblue" stroke="midnightblue" points="811.79,-251.92 818.43,-243.66 808.09,-245.98 811.79,-251.92"/>
</g>
<!-- Node6 -->
<g id="node6" class="node">
<title>Node6</title>
<g id="a_node6"><a xlink:href="io_8h.html" target="_top" xlink:title="Definition of I/O ports.">
<polygon fill="none" stroke="black" points="186,-56.5 186,-75.5 218,-75.5 218,-56.5 186,-56.5"/>
<text text-anchor="middle" x="202" y="-63.5" font-family="Helvetica,sans-Serif" font-size="10.00">io.h</text>
</a>
</g>
</g>
<!-- Node1&#45;&gt;Node6 -->
<g id="edge5" class="edge">
<title>Node1&#45;&gt;Node6</title>
<path fill="none" stroke="midnightblue" d="M567.86,-342.9C520.54,-339.12 438.26,-328.67 374,-300 280.12,-258.11 252.94,-227.55 215,-132 209.09,-117.11 205.76,-99.19 203.96,-85.94"/>
<polygon fill="midnightblue" stroke="midnightblue" points="207.39,-85.21 202.74,-75.69 200.44,-86.04 207.39,-85.21"/>
</g>
<!-- Node7 -->
<g id="node7" class="node">
<title>Node7</title>
<g id="a_node7"><a xlink:href="bios_8h.html" target="_top" xlink:title="C language I/F for MSX BIOS routines.">
<polygon fill="none" stroke="black" points="340,-112.5 340,-131.5 382,-131.5 382,-112.5 340,-112.5"/>
<text text-anchor="middle" x="361" y="-119.5" font-family="Helvetica,sans-Serif" font-size="10.00">bios.h</text>
</a>
</g>
</g>
<!-- Node1&#45;&gt;Node7 -->
<g id="edge7" class="edge">
<title>Node1&#45;&gt;Node7</title>
<path fill="none" stroke="midnightblue" d="M567.76,-340.32C494.95,-329.1 337.93,-293.26 273,-188 256.4,-161.09 298.61,-141.69 330.16,-131.41"/>
<polygon fill="midnightblue" stroke="midnightblue" points="331.41,-134.69 339.94,-128.4 329.35,-128 331.41,-134.69"/>
</g>
<!-- Node10 -->
<g id="node10" class="node">
<title>Node10</title>
<g id="a_node10"><a xlink:href="workarea_8h.html" target="_top" xlink:title="Definitions of MSX SYSTEM Workarea.">
<polygon fill="none" stroke="black" points="28,-112.5 28,-131.5 92,-131.5 92,-112.5 28,-112.5"/>
<text text-anchor="middle" x="60" y="-119.5" font-family="Helvetica,sans-Serif" font-size="10.00">workarea.h</text>
</a>
</g>
</g>
<!-- Node1&#45;&gt;Node10 -->
<g id="edge15" class="edge">
<title>Node1&#45;&gt;Node10</title>
<path fill="none" stroke="midnightblue" d="M567.88,-344C457.8,-340.76 145.01,-329.07 110,-300 62.34,-260.43 58.2,-179.18 58.99,-142.15"/>
<polygon fill="midnightblue" stroke="midnightblue" points="62.5,-141.91 59.37,-131.79 55.51,-141.66 62.5,-141.91"/>
</g>
<!-- Node11 -->
<g id="node11" class="node">
<title>Node11</title>
<g id="a_node11"><a xlink:href="vdp_8h.html" target="_top" xlink:title="Data types and functions for VDP (Video Display Proccessor) access.">
<polygon fill="none" stroke="black" points="426,-224.5 426,-243.5 466,-243.5 466,-224.5 426,-224.5"/>
<text text-anchor="middle" x="446" y="-231.5" font-family="Helvetica,sans-Serif" font-size="10.00">vdp.h</text>
</a>
</g>
</g>
<!-- Node1&#45;&gt;Node11 -->
<g id="edge18" class="edge">
<title>Node1&#45;&gt;Node11</title>
<path fill="none" stroke="midnightblue" d="M588.15,-336.46C571.13,-328.03 545.07,-314.36 524,-300 501.63,-284.75 478.03,-264.41 462.73,-250.57"/>
<polygon fill="midnightblue" stroke="midnightblue" points="464.88,-247.79 455.14,-243.62 460.15,-252.96 464.88,-247.79"/>
</g>
<!-- Node13 -->
<g id="node13" class="node">
<title>Node13</title>
<g id="a_node13"><a xlink:href="vmem_8h.html" target="_top" xlink:title="Data types and functions for VRAM access.">
<polygon fill="none" stroke="black" points="596.5,-112.5 596.5,-131.5 647.5,-131.5 647.5,-112.5 596.5,-112.5"/>
<text text-anchor="middle" x="622" y="-119.5" font-family="Helvetica,sans-Serif" font-size="10.00">vmem.h</text>
</a>
</g>
</g>
<!-- Node1&#45;&gt;Node13 -->
<g id="edge33" class="edge">
<title>Node1&#45;&gt;Node13</title>
<path fill="none" stroke="midnightblue" d="M607.33,-336.39C608.68,-327.35 610.76,-312.71 612,-300 617.6,-242.71 620.36,-174.65 621.43,-142.14"/>
<polygon fill="midnightblue" stroke="midnightblue" points="624.94,-141.97 621.76,-131.86 617.94,-141.75 624.94,-141.97"/>
</g>
<!-- Node15 -->
<g id="node15" class="node">
<title>Node15</title>
<g id="a_node15"><a xlink:href="sprite_8h.html" target="_top" xlink:title="Sprites.">
<polygon fill="none" stroke="black" points="672,-168.5 672,-187.5 720,-187.5 720,-168.5 672,-168.5"/>
<text text-anchor="middle" x="696" y="-175.5" font-family="Helvetica,sans-Serif" font-size="10.00">sprite.h</text>
</a>
</g>
</g>
<!-- Node1&#45;&gt;Node15 -->
<g id="edge34" class="edge">
<title>Node1&#45;&gt;Node15</title>
<path fill="none" stroke="midnightblue" d="M619.84,-336.27C631.58,-328.19 648.04,-315.17 658,-300 679.27,-267.6 689.26,-222.54 693.42,-197.56"/>
<polygon fill="midnightblue" stroke="midnightblue" points="696.89,-198.02 694.94,-187.61 689.97,-196.96 696.89,-198.02"/>
</g>
<!-- Node16 -->
<g id="node16" class="node">
<title>Node16</title>
<g id="a_node16"><a xlink:href="sprite__color_8h.html" target="_top" xlink:title="Sprite color table interface.">
<polygon fill="none" stroke="black" points="710,-224.5 710,-243.5 784,-243.5 784,-224.5 710,-224.5"/>
<text text-anchor="middle" x="747" y="-231.5" font-family="Helvetica,sans-Serif" font-size="10.00">sprite_color.h</text>
</a>
</g>
</g>
<!-- Node1&#45;&gt;Node16 -->
<g id="edge37" class="edge">
<title>Node1&#45;&gt;Node16</title>
<path fill="none" stroke="midnightblue" d="M629.84,-336.46C649.02,-328.83 675.97,-316.35 696,-300 712.61,-286.44 727.21,-266.55 736.49,-252.35"/>
<polygon fill="midnightblue" stroke="midnightblue" points="739.65,-253.9 742.02,-243.57 733.73,-250.17 739.65,-253.9"/>
</g>
<!-- Node17 -->
<g id="node17" class="node">
<title>Node17</title>
<g id="a_node17"><a xlink:href="metasprite_8h.html" target="_top" xlink:title="Meta&#45;sprite ; an aggregate of sprites.">
<polygon fill="none" stroke="black" points="533,-280.5 533,-299.5 603,-299.5 603,-280.5 533,-280.5"/>
<text text-anchor="middle" x="568" y="-287.5" font-family="Helvetica,sans-Serif" font-size="10.00">metasprite.h</text>
</a>
</g>
</g>
<!-- Node1&#45;&gt;Node17 -->
<g id="edge41" class="edge">
<title>Node1&#45;&gt;Node17</title>
<path fill="none" stroke="midnightblue" d="M599.73,-336.08C594.36,-328.46 586.48,-317.26 579.92,-307.94"/>
<polygon fill="midnightblue" stroke="midnightblue" points="582.78,-305.91 574.16,-299.75 577.05,-309.94 582.78,-305.91"/>
</g>
<!-- Node18 -->
<g id="node18" class="node">
<title>Node18</title>
<g id="a_node18"><a xlink:href="input_8h.html" target="_top" xlink:title="Input devices such as Joypad, for example.">
<polygon fill="none" stroke="black" points="1017.5,-280.5 1017.5,-299.5 1062.5,-299.5 1062.5,-280.5 1017.5,-280.5"/>
<text text-anchor="middle" x="1040" y="-287.5" font-family="Helvetica,sans-Serif" font-size="10.00">input.h</text>
</a>
</g>
</g>
<!-- Node1&#45;&gt;Node18 -->
<g id="edge46" class="edge">
<title>Node1&#45;&gt;Node18</title>
<path fill="none" stroke="midnightblue" d="M644.13,-340.26C728.09,-329.81 927.74,-304.97 1006.87,-295.12"/>
<polygon fill="midnightblue" stroke="midnightblue" points="1007.72,-298.54 1017.21,-293.84 1006.85,-291.6 1007.72,-298.54"/>
</g>
<!-- Node19 -->
<g id="node19" class="node">
<title>Node19</title>
<g id="a_node19"><a xlink:href="psg_8h.html" target="_top" xlink:title="Device interface for PSG (AY&#45;3&#45;8910) an internal sound chip.">
<polygon fill="none" stroke="black" points="110,-112.5 110,-131.5 150,-131.5 150,-112.5 110,-112.5"/>
<text text-anchor="middle" x="130" y="-119.5" font-family="Helvetica,sans-Serif" font-size="10.00">psg.h</text>
</a>
</g>
</g>
<!-- Node1&#45;&gt;Node19 -->
<g id="edge48" class="edge">
<title>Node1&#45;&gt;Node19</title>
<path fill="none" stroke="midnightblue" d="M567.94,-344.31C459.63,-341.96 155.59,-332.49 126,-300 85.86,-255.93 108.84,-177.05 122.33,-141.39"/>
<polygon fill="midnightblue" stroke="midnightblue" points="125.7,-142.39 126.14,-131.8 119.2,-139.81 125.7,-142.39"/>
</g>
<!-- Node20 -->
<g id="node20" class="node">
<title>Node20</title>
<g id="a_node20"><a xlink:href="sound_8h.html" target="_top" xlink:title="A PSG sound driver.">
<polygon fill="none" stroke="black" points="964,-224.5 964,-243.5 1014,-243.5 1014,-224.5 964,-224.5"/>
<text text-anchor="middle" x="989" y="-231.5" font-family="Helvetica,sans-Serif" font-size="10.00">sound.h</text>
</a>
</g>
</g>
<!-- Node1&#45;&gt;Node20 -->
<g id="edge51" class="edge">
<title>Node1&#45;&gt;Node20</title>
<path fill="none" stroke="midnightblue" d="M644.28,-336.53C681.65,-328.05 740.03,-314.25 790,-300 848.52,-283.31 915.61,-260.65 955.03,-246.97"/>
<polygon fill="midnightblue" stroke="midnightblue" points="956.38,-250.2 964.68,-243.61 954.08,-243.59 956.38,-250.2"/>
</g>
<!-- Node22 -->
<g id="node22" class="node">
<title>Node22</title>
<g id="a_node22"><a xlink:href="sound__eg_8h.html" target="_top" xlink:title="Software envelope genenator interface for sound.h.">
<polygon fill="none" stroke="black" points="880,-224.5 880,-243.5 946,-243.5 946,-224.5 880,-224.5"/>
<text text-anchor="middle" x="913" y="-231.5" font-family="Helvetica,sans-Serif" font-size="10.00">sound_eg.h</text>
</a>
</g>
</g>
<!-- Node1&#45;&gt;Node22 -->
<g id="edge55" class="edge">
<title>Node1&#45;&gt;Node22</title>
<path fill="none" stroke="midnightblue" d="M636.44,-336.43C666.15,-327.88 712.51,-314.03 752,-300 798.85,-283.36 852.16,-261.18 884.16,-247.5"/>
<polygon fill="midnightblue" stroke="midnightblue" points="885.57,-250.71 893.38,-243.55 882.81,-244.28 885.57,-250.71"/>
</g>
<!-- Node4 -->
<g id="node4" class="node">
<title>Node4</title>
<g id="a_node4"><a xlink:title=" ">
<polygon fill="none" stroke="#bfbfbf" points="852,-168.5 852,-187.5 908,-187.5 908,-168.5 852,-168.5"/>
<text text-anchor="middle" x="880" y="-175.5" font-family="Helvetica,sans-Serif" font-size="10.00">stdbool.h</text>
</a>
</g>
</g>
<!-- Node3&#45;&gt;Node4 -->
<g id="edge3" class="edge">
<title>Node3&#45;&gt;Node4</title>
<path fill="none" stroke="midnightblue" d="M839.93,-224.08C846.85,-216.3 857.07,-204.8 865.45,-195.37"/>
<polygon fill="midnightblue" stroke="midnightblue" points="868.19,-197.55 872.22,-187.75 862.96,-192.9 868.19,-197.55"/>
</g>
<!-- Node5 -->
<g id="node5" class="node">
<title>Node5</title>
<g id="a_node5"><a xlink:title=" ">
<polygon fill="none" stroke="#bfbfbf" points="544,-0.5 544,-19.5 592,-19.5 592,-0.5 544,-0.5"/>
<text text-anchor="middle" x="568" y="-7.5" font-family="Helvetica,sans-Serif" font-size="10.00">stdint.h</text>
</a>
</g>
</g>
<!-- Node3&#45;&gt;Node5 -->
<g id="edge4" class="edge">
<title>Node3&#45;&gt;Node5</title>
<path fill="none" stroke="midnightblue" d="M826.61,-224.15C808.66,-195.45 747.92,-104.03 674,-56 651.57,-41.42 623.63,-29.79 602.06,-22.01"/>
<polygon fill="midnightblue" stroke="midnightblue" points="602.94,-18.61 592.35,-18.6 600.63,-25.21 602.94,-18.61"/>
</g>
<!-- Node6&#45;&gt;Node2 -->
<g id="edge6" class="edge">
<title>Node6&#45;&gt;Node2</title>
<path fill="none" stroke="midnightblue" d="M202,-56.08C202,-49.01 202,-38.86 202,-29.99"/>
<polygon fill="midnightblue" stroke="midnightblue" points="205.5,-29.75 202,-19.75 198.5,-29.75 205.5,-29.75"/>
</g>
<!-- Node7&#45;&gt;Node5 -->
<g id="edge8" class="edge">
<title>Node7&#45;&gt;Node5</title>
<path fill="none" stroke="midnightblue" d="M370.28,-112.38C385.24,-98.85 416.05,-72.48 446,-56 474.16,-40.5 508.74,-28.32 533.88,-20.57"/>
<polygon fill="midnightblue" stroke="midnightblue" points="535.12,-23.85 543.69,-17.61 533.11,-17.14 535.12,-23.85"/>
</g>
<!-- Node8 -->
<g id="node8" class="node">
<title>Node8</title>
<g id="a_node8"><a xlink:href="bios__const_8h.html" target="_top" xlink:title="Constant variables in the MSX BIOS ROM.">
<polygon fill="none" stroke="black" points="236.5,-56.5 236.5,-75.5 307.5,-75.5 307.5,-56.5 236.5,-56.5"/>
<text text-anchor="middle" x="272" y="-63.5" font-family="Helvetica,sans-Serif" font-size="10.00">bios_const.h</text>
</a>
</g>
</g>
<!-- Node7&#45;&gt;Node8 -->
<g id="edge9" class="edge">
<title>Node7&#45;&gt;Node8</title>
<path fill="none" stroke="midnightblue" d="M346.7,-112.32C332.82,-103.9 311.51,-90.97 295.2,-81.07"/>
<polygon fill="midnightblue" stroke="midnightblue" points="296.63,-77.85 286.26,-75.65 293,-83.83 296.63,-77.85"/>
</g>
<!-- Node9 -->
<g id="node9" class="node">
<title>Node9</title>
<g id="a_node9"><a xlink:href="bios__entry_8h.html" target="_top" xlink:title="Assembler entry points for MSX BIOS functions.">
<polygon fill="none" stroke="black" points="326,-56.5 326,-75.5 394,-75.5 394,-56.5 326,-56.5"/>
<text text-anchor="middle" x="360" y="-63.5" font-family="Helvetica,sans-Serif" font-size="10.00">bios_entry.h</text>
</a>
</g>
</g>
<!-- Node7&#45;&gt;Node9 -->
<g id="edge12" class="edge">
<title>Node7&#45;&gt;Node9</title>
<path fill="none" stroke="midnightblue" d="M360.83,-112.08C360.7,-105.01 360.52,-94.86 360.35,-85.99"/>
<polygon fill="midnightblue" stroke="midnightblue" points="363.85,-85.68 360.16,-75.75 356.85,-85.81 363.85,-85.68"/>
</g>
<!-- Node8&#45;&gt;Node2 -->
<g id="edge11" class="edge">
<title>Node8&#45;&gt;Node2</title>
<path fill="none" stroke="midnightblue" d="M260.75,-56.32C250.2,-48.18 234.2,-35.84 221.56,-26.09"/>
<polygon fill="midnightblue" stroke="midnightblue" points="223.51,-23.17 213.45,-19.83 219.23,-28.71 223.51,-23.17"/>
</g>
<!-- Node8&#45;&gt;Node5 -->
<g id="edge10" class="edge">
<title>Node8&#45;&gt;Node5</title>
<path fill="none" stroke="midnightblue" d="M307.85,-57.76C310.94,-57.16 314.03,-56.56 317,-56 394.4,-41.32 485.47,-25.31 533.81,-16.91"/>
<polygon fill="midnightblue" stroke="midnightblue" points="534.49,-20.34 543.74,-15.18 533.29,-13.44 534.49,-20.34"/>
</g>
<!-- Node9&#45;&gt;Node2 -->
<g id="edge14" class="edge">
<title>Node9&#45;&gt;Node2</title>
<path fill="none" stroke="midnightblue" d="M334.96,-56.44C308.38,-47.36 266.19,-32.94 236.48,-22.78"/>
<polygon fill="midnightblue" stroke="midnightblue" points="237.51,-19.44 226.92,-19.52 235.25,-26.06 237.51,-19.44"/>
</g>
<!-- Node9&#45;&gt;Node5 -->
<g id="edge13" class="edge">
<title>Node9&#45;&gt;Node5</title>
<path fill="none" stroke="midnightblue" d="M392.96,-56.44C431.55,-46.42 495.14,-29.92 534.12,-19.79"/>
<polygon fill="midnightblue" stroke="midnightblue" points="535.15,-23.14 543.95,-17.24 533.39,-16.37 535.15,-23.14"/>
</g>
<!-- Node10&#45;&gt;Node2 -->
<g id="edge17" class="edge">
<title>Node10&#45;&gt;Node2</title>
<path fill="none" stroke="midnightblue" d="M62.91,-112.24C67.86,-98.53 79.18,-71.92 97,-56 116.88,-38.24 144.83,-26.72 166.9,-19.79"/>
<polygon fill="midnightblue" stroke="midnightblue" points="167.98,-23.12 176.57,-16.92 165.99,-16.41 167.98,-23.12"/>
</g>
<!-- Node10&#45;&gt;Node5 -->
<g id="edge16" class="edge">
<title>Node10&#45;&gt;Node5</title>
<path fill="none" stroke="midnightblue" d="M68.75,-112.43C84.11,-97.96 117.61,-69 152,-56 221.8,-29.62 447.46,-16.6 533.89,-12.49"/>
<polygon fill="midnightblue" stroke="midnightblue" points="534.13,-15.98 543.95,-12.02 533.8,-8.99 534.13,-15.98"/>
</g>
<!-- Node11&#45;&gt;Node4 -->
<g id="edge20" class="edge">
<title>Node11&#45;&gt;Node4</title>
<path fill="none" stroke="midnightblue" d="M466.06,-230.5C533.49,-222.11 752.73,-194.84 841.83,-183.75"/>
<polygon fill="midnightblue" stroke="midnightblue" points="842.29,-187.22 851.78,-182.51 841.43,-180.27 842.29,-187.22"/>
</g>
<!-- Node11&#45;&gt;Node5 -->
<g id="edge21" class="edge">
<title>Node11&#45;&gt;Node5</title>
<path fill="none" stroke="midnightblue" d="M451.3,-224.45C456.83,-215.45 465.71,-200.83 473,-188 505.79,-130.26 542.35,-60.5 558.94,-28.54"/>
<polygon fill="midnightblue" stroke="midnightblue" points="562.1,-30.04 563.59,-19.55 555.89,-26.82 562.1,-30.04"/>
</g>
<!-- Node11&#45;&gt;Node6 -->
<g id="edge22" class="edge">
<title>Node11&#45;&gt;Node6</title>
<path fill="none" stroke="midnightblue" d="M425.99,-232.62C391.41,-231 319.67,-223.28 273,-188 237.82,-161.41 216.89,-111.91 207.65,-85.2"/>
<polygon fill="midnightblue" stroke="midnightblue" points="210.93,-83.99 204.49,-75.58 204.28,-86.17 210.93,-83.99"/>
</g>
<!-- Node11&#45;&gt;Node7 -->
<g id="edge31" class="edge">
<title>Node11&#45;&gt;Node7</title>
<path fill="none" stroke="midnightblue" d="M427.46,-224.48C412.85,-216.87 393,-204.39 381,-188 371.08,-174.45 366.01,-155.9 363.46,-142.09"/>
<polygon fill="midnightblue" stroke="midnightblue" points="366.86,-141.15 361.87,-131.81 359.94,-142.23 366.86,-141.15"/>
</g>
<!-- Node11&#45;&gt;Node10 -->
<g id="edge32" class="edge">
<title>Node11&#45;&gt;Node10</title>
<path fill="none" stroke="midnightblue" d="M425.99,-231C383.79,-226.42 282.92,-213.55 202,-188 158.98,-174.42 111.9,-151.03 84.21,-136.33"/>
<polygon fill="midnightblue" stroke="midnightblue" points="85.72,-133.17 75.26,-131.52 82.41,-139.33 85.72,-133.17"/>
</g>
<!-- Node12 -->
<g id="node12" class="node">
<title>Node12</title>
<g id="a_node12"><a xlink:title=" ">
<polygon fill="none" stroke="#bfbfbf" points="282.5,-168.5 282.5,-187.5 333.5,-187.5 333.5,-168.5 282.5,-168.5"/>
<text text-anchor="middle" x="308" y="-175.5" font-family="Helvetica,sans-Serif" font-size="10.00">assert.h</text>
</a>
</g>
</g>
<!-- Node11&#45;&gt;Node12 -->
<g id="edge19" class="edge">
<title>Node11&#45;&gt;Node12</title>
<path fill="none" stroke="midnightblue" d="M425.93,-225.15C403.26,-216.28 366.08,-201.73 339.52,-191.33"/>
<polygon fill="midnightblue" stroke="midnightblue" points="340.5,-187.96 329.92,-187.58 337.95,-194.48 340.5,-187.96"/>
</g>
<!-- Node11&#45;&gt;Node13 -->
<g id="edge23" class="edge">
<title>Node11&#45;&gt;Node13</title>
<path fill="none" stroke="midnightblue" d="M459.81,-224.37C490.14,-205.41 562.8,-160 599.69,-136.94"/>
<polygon fill="midnightblue" stroke="midnightblue" points="601.63,-139.86 608.25,-131.59 597.92,-133.92 601.63,-139.86"/>
</g>
<!-- Node14 -->
<g id="node14" class="node">
<title>Node14</title>
<g id="a_node14"><a xlink:href="vdp__unsafe_8h.html" target="_top" xlink:title="Unsafe primitive functions for VDP (Video Display Proccessor) access.">
<polygon fill="none" stroke="black" points="390,-168.5 390,-187.5 464,-187.5 464,-168.5 390,-168.5"/>
<text text-anchor="middle" x="427" y="-175.5" font-family="Helvetica,sans-Serif" font-size="10.00">vdp_unsafe.h</text>
</a>
</g>
</g>
<!-- Node11&#45;&gt;Node14 -->
<g id="edge26" class="edge">
<title>Node11&#45;&gt;Node14</title>
<path fill="none" stroke="midnightblue" d="M442.86,-224.08C440.32,-216.85 436.64,-206.41 433.47,-197.4"/>
<polygon fill="midnightblue" stroke="midnightblue" points="436.7,-196.02 430.08,-187.75 430.1,-198.35 436.7,-196.02"/>
</g>
<!-- Node13&#45;&gt;Node5 -->
<g id="edge24" class="edge">
<title>Node13&#45;&gt;Node5</title>
<path fill="none" stroke="midnightblue" d="M617.76,-112.37C608.93,-94.38 588.4,-52.55 576.65,-28.63"/>
<polygon fill="midnightblue" stroke="midnightblue" points="579.77,-27.03 572.22,-19.59 573.48,-30.11 579.77,-27.03"/>
</g>
<!-- Node13&#45;&gt;Node6 -->
<g id="edge25" class="edge">
<title>Node13&#45;&gt;Node6</title>
<path fill="none" stroke="midnightblue" d="M596.23,-120.13C534.13,-117.6 371.31,-108.38 228.08,-75.75"/>
<polygon fill="midnightblue" stroke="midnightblue" points="228.78,-72.31 218.24,-73.46 227.19,-79.13 228.78,-72.31"/>
</g>
<!-- Node14&#45;&gt;Node5 -->
<g id="edge27" class="edge">
<title>Node14&#45;&gt;Node5</title>
<path fill="none" stroke="midnightblue" d="M429.06,-168.3C434.55,-146.79 451.38,-90.35 484,-56 497.81,-41.46 517.37,-30.6 534.15,-23.2"/>
<polygon fill="midnightblue" stroke="midnightblue" points="535.76,-26.32 543.64,-19.23 533.06,-19.86 535.76,-26.32"/>
</g>
<!-- Node14&#45;&gt;Node6 -->
<g id="edge28" class="edge">
<title>Node14&#45;&gt;Node6</title>
<path fill="none" stroke="midnightblue" d="M408.16,-168.36C388.75,-159.42 357.65,-144.96 331,-132 294.8,-114.4 253.29,-93.32 227.35,-80.04"/>
<polygon fill="midnightblue" stroke="midnightblue" points="228.71,-76.81 218.22,-75.36 225.52,-83.03 228.71,-76.81"/>
</g>
<!-- Node14&#45;&gt;Node7 -->
<g id="edge30" class="edge">
<title>Node14&#45;&gt;Node7</title>
<path fill="none" stroke="midnightblue" d="M416.4,-168.32C406.54,-160.26 391.65,-148.08 379.78,-138.37"/>
<polygon fill="midnightblue" stroke="midnightblue" points="381.75,-135.46 371.8,-131.83 377.32,-140.88 381.75,-135.46"/>
</g>
<!-- Node14&#45;&gt;Node13 -->
<g id="edge29" class="edge">
<title>Node14&#45;&gt;Node13</title>
<path fill="none" stroke="midnightblue" d="M457.9,-168.44C492.84,-158.77 549.66,-143.03 586.42,-132.85"/>
<polygon fill="midnightblue" stroke="midnightblue" points="587.52,-136.18 596.23,-130.14 585.66,-129.43 587.52,-136.18"/>
</g>
<!-- Node15&#45;&gt;Node5 -->
<g id="edge35" class="edge">
<title>Node15&#45;&gt;Node5</title>
<path fill="none" stroke="midnightblue" d="M691.21,-168.33C684.06,-155.62 669.95,-131.34 656,-112 636.99,-85.65 630.39,-80.46 609,-56 600.46,-46.23 590.68,-35.49 582.82,-26.94"/>
<polygon fill="midnightblue" stroke="midnightblue" points="585.32,-24.5 575.97,-19.53 580.18,-29.25 585.32,-24.5"/>
</g>
<!-- Node15&#45;&gt;Node13 -->
<g id="edge36" class="edge">
<title>Node15&#45;&gt;Node13</title>
<path fill="none" stroke="midnightblue" d="M684.11,-168.32C672.85,-160.11 655.71,-147.6 642.29,-137.81"/>
<polygon fill="midnightblue" stroke="midnightblue" points="644.25,-134.9 634.11,-131.83 640.12,-140.56 644.25,-134.9"/>
</g>
<!-- Node16&#45;&gt;Node5 -->
<g id="edge38" class="edge">
<title>Node16&#45;&gt;Node5</title>
<path fill="none" stroke="midnightblue" d="M749.31,-224.16C752.22,-211.24 755.94,-186.7 748,-168 718.02,-97.38 637.36,-46.84 594.93,-24.23"/>
<polygon fill="midnightblue" stroke="midnightblue" points="596.49,-21.1 586,-19.59 593.26,-27.31 596.49,-21.1"/>
</g>
<!-- Node16&#45;&gt;Node13 -->
<g id="edge40" class="edge">
<title>Node16&#45;&gt;Node13</title>
<path fill="none" stroke="midnightblue" d="M746.91,-224.31C746.3,-210.68 743.23,-184.18 729,-168 710.68,-147.17 681.13,-135.73 657.72,-129.61"/>
<polygon fill="midnightblue" stroke="midnightblue" points="658.33,-126.15 647.79,-127.22 656.7,-132.96 658.33,-126.15"/>
</g>
<!-- Node16&#45;&gt;Node15 -->
<g id="edge39" class="edge">
<title>Node16&#45;&gt;Node15</title>
<path fill="none" stroke="midnightblue" d="M738.58,-224.08C731.15,-216.22 720.15,-204.57 711.19,-195.08"/>
<polygon fill="midnightblue" stroke="midnightblue" points="713.68,-192.62 704.26,-187.75 708.59,-197.42 713.68,-192.62"/>
</g>
<!-- Node17&#45;&gt;Node5 -->
<g id="edge42" class="edge">
<title>Node17&#45;&gt;Node5</title>
<path fill="none" stroke="midnightblue" d="M568,-280.38C568,-241.78 568,-84.45 568,-29.81"/>
<polygon fill="midnightblue" stroke="midnightblue" points="571.5,-29.52 568,-19.52 564.5,-29.52 571.5,-29.52"/>
</g>
<!-- Node17&#45;&gt;Node11 -->
<g id="edge43" class="edge">
<title>Node17&#45;&gt;Node11</title>
<path fill="none" stroke="midnightblue" d="M548.67,-280.44C528.68,-271.6 497.26,-257.69 474.44,-247.59"/>
<polygon fill="midnightblue" stroke="midnightblue" points="475.8,-244.36 465.24,-243.52 472.97,-250.76 475.8,-244.36"/>
</g>
<!-- Node17&#45;&gt;Node13 -->
<g id="edge44" class="edge">
<title>Node17&#45;&gt;Node13</title>
<path fill="none" stroke="midnightblue" d="M570.9,-280.08C579.44,-253.83 604.58,-176.55 616.11,-141.12"/>
<polygon fill="midnightblue" stroke="midnightblue" points="619.45,-142.16 619.21,-131.57 612.79,-139.99 619.45,-142.16"/>
</g>
<!-- Node17&#45;&gt;Node15 -->
<g id="edge45" class="edge">
<title>Node17&#45;&gt;Node15</title>
<path fill="none" stroke="midnightblue" d="M578.04,-280.37C599.73,-261.73 651.16,-217.53 678.39,-194.13"/>
<polygon fill="midnightblue" stroke="midnightblue" points="680.7,-196.76 686,-187.59 676.14,-191.45 680.7,-196.76"/>
</g>
<!-- Node18&#45;&gt;Node5 -->
<g id="edge47" class="edge">
<title>Node18&#45;&gt;Node5</title>
<path fill="none" stroke="midnightblue" d="M1045.28,-280.23C1055.73,-262.04 1078,-218.6 1078,-179 1078,-179 1078,-179 1078,-121 1078,-23.49 717.26,-12.19 602.57,-11.06"/>
<polygon fill="midnightblue" stroke="midnightblue" points="602.28,-7.56 592.26,-10.98 602.23,-14.56 602.28,-7.56"/>
</g>
<!-- Node19&#45;&gt;Node5 -->
<g id="edge49" class="edge">
<title>Node19&#45;&gt;Node5</title>
<path fill="none" stroke="midnightblue" d="M133.4,-112.48C139.65,-98.08 154.41,-69.23 177,-56 237.22,-20.74 450.27,-13.1 533.93,-11.45"/>
<polygon fill="midnightblue" stroke="midnightblue" points="533.99,-14.95 543.93,-11.27 533.87,-7.95 533.99,-14.95"/>
</g>
<!-- Node19&#45;&gt;Node6 -->
<g id="edge50" class="edge">
<title>Node19&#45;&gt;Node6</title>
<path fill="none" stroke="midnightblue" d="M141.57,-112.32C152.42,-104.18 168.88,-91.84 181.88,-82.09"/>
<polygon fill="midnightblue" stroke="midnightblue" points="184.32,-84.63 190.22,-75.83 180.12,-79.03 184.32,-84.63"/>
</g>
<!-- Node20&#45;&gt;Node4 -->
<g id="edge52" class="edge">
<title>Node20&#45;&gt;Node4</title>
<path fill="none" stroke="midnightblue" d="M971.49,-224.32C953.93,-215.62 926.67,-202.12 906.47,-192.11"/>
<polygon fill="midnightblue" stroke="midnightblue" points="907.98,-188.96 897.47,-187.65 904.88,-195.23 907.98,-188.96"/>
</g>
<!-- Node20&#45;&gt;Node5 -->
<g id="edge53" class="edge">
<title>Node20&#45;&gt;Node5</title>
<path fill="none" stroke="midnightblue" d="M983.37,-224.33C969.46,-203.34 931.66,-148.85 891,-112 857.48,-81.62 847.93,-72.98 806,-56 736.97,-28.05 649.54,-17.24 602.21,-13.22"/>
<polygon fill="midnightblue" stroke="midnightblue" points="602.43,-9.73 592.19,-12.43 601.88,-16.71 602.43,-9.73"/>
</g>
<!-- Node21 -->
<g id="node21" class="node">
<title>Node21</title>
<g id="a_node21"><a xlink:title=" ">
<polygon fill="none" stroke="#bfbfbf" points="1002.5,-168.5 1002.5,-187.5 1049.5,-187.5 1049.5,-168.5 1002.5,-168.5"/>
<text text-anchor="middle" x="1026" y="-175.5" font-family="Helvetica,sans-Serif" font-size="10.00">stdlib.h</text>
</a>
</g>
</g>
<!-- Node20&#45;&gt;Node21 -->
<g id="edge54" class="edge">
<title>Node20&#45;&gt;Node21</title>
<path fill="none" stroke="midnightblue" d="M995.11,-224.08C1000.28,-216.53 1007.85,-205.49 1014.19,-196.23"/>
<polygon fill="midnightblue" stroke="midnightblue" points="1017.24,-197.98 1020,-187.75 1011.46,-194.02 1017.24,-197.98"/>
</g>
<!-- Node22&#45;&gt;Node4 -->
<g id="edge56" class="edge">
<title>Node22&#45;&gt;Node4</title>
<path fill="none" stroke="midnightblue" d="M907.55,-224.08C902.99,-216.61 896.33,-205.72 890.71,-196.52"/>
<polygon fill="midnightblue" stroke="midnightblue" points="893.55,-194.46 885.35,-187.75 887.58,-198.11 893.55,-194.46"/>
</g>
<!-- Node22&#45;&gt;Node5 -->
<g id="edge57" class="edge">
<title>Node22&#45;&gt;Node5</title>
<path fill="none" stroke="midnightblue" d="M916.49,-224.25C921.17,-211.01 927.71,-185.57 917,-168 848.31,-55.24 675.96,-22.94 602.27,-14.13"/>
<polygon fill="midnightblue" stroke="midnightblue" points="602.47,-10.63 592.14,-12.99 601.69,-17.58 602.47,-10.63"/>
</g>
</g>
</svg>
