<?xml version="1.0" encoding="UTF-8" standalone="no"?>
<!DOCTYPE svg PUBLIC "-//W3C//DTD SVG 1.1//EN"
 "http://www.w3.org/Graphics/SVG/1.1/DTD/svg11.dtd">
<!-- Generated by graphviz version 2.44.0 ()
 -->
<!-- Title: include/msx.h Pages: 1 -->
<svg width="799pt" height="252pt"
 viewBox="0.00 0.00 799.44 252.00" xmlns="http://www.w3.org/2000/svg" xmlns:xlink="http://www.w3.org/1999/xlink">
<g id="graph0" class="graph" transform="scale(1 1) rotate(0) translate(4 248)">
<title>include/msx.h</title>
<!-- Node1 -->
<g id="node1" class="node">
<title>Node1</title>
<g id="a_node1"><a xlink:title="Copyright (c) 2021 Daishi Mori (mori0091)">
<polygon fill="#bfbfbf" stroke="black" points="467.5,-224.5 467.5,-243.5 543.5,-243.5 543.5,-224.5 467.5,-224.5"/>
<text text-anchor="middle" x="505.5" y="-231.5" font-family="Helvetica,sans-Serif" font-size="10.00">include/msx.h</text>
</a>
</g>
</g>
<!-- Node2 -->
<g id="node2" class="node">
<title>Node2</title>
<g id="a_node2"><a xlink:href="interrupt_8h.html" target="_top" xlink:title="Copyright (c) 2021 Daishi Mori (mori0091)">
<polygon fill="none" stroke="black" points="140,-112.5 140,-131.5 199,-131.5 199,-112.5 140,-112.5"/>
<text text-anchor="middle" x="169.5" y="-119.5" font-family="Helvetica,sans-Serif" font-size="10.00">interrupt.h</text>
</a>
</g>
</g>
<!-- Node1&#45;&gt;Node2 -->
<g id="edge1" class="edge">
<title>Node1&#45;&gt;Node2</title>
<path fill="none" stroke="midnightblue" d="M467.35,-228.92C422.49,-223.28 346.3,-211.1 284.5,-188 249.38,-174.87 212.22,-152.01 189.94,-137.19"/>
<polygon fill="midnightblue" stroke="midnightblue" points="191.88,-134.27 181.63,-131.57 187.96,-140.07 191.88,-134.27"/>
</g>
<!-- Node5 -->
<g id="node5" class="node">
<title>Node5</title>
<g id="a_node5"><a xlink:href="io_8h.html" target="_top" xlink:title="Copyright (c) 2021 Daishi Mori (mori0091)">
<polygon fill="none" stroke="black" points="678.5,-0.5 678.5,-19.5 710.5,-19.5 710.5,-0.5 678.5,-0.5"/>
<text text-anchor="middle" x="694.5" y="-7.5" font-family="Helvetica,sans-Serif" font-size="10.00">io.h</text>
</a>
</g>
</g>
<!-- Node1&#45;&gt;Node5 -->
<g id="edge4" class="edge">
<title>Node1&#45;&gt;Node5</title>
<path fill="none" stroke="midnightblue" d="M543.65,-230.84C604.6,-226.62 720.07,-215.18 749.5,-188 793.36,-147.49 804.64,-107.54 774.5,-56 762.89,-36.15 738.96,-24.38 720.28,-17.89"/>
<polygon fill="midnightblue" stroke="midnightblue" points="721.14,-14.49 710.55,-14.81 719.03,-21.17 721.14,-14.49"/>
</g>
<!-- Node6 -->
<g id="node6" class="node">
<title>Node6</title>
<g id="a_node6"><a xlink:href="bios_8h.html" target="_top" xlink:title="Copyright (c) 2021 Daishi Mori (mori0091)">
<polygon fill="none" stroke="black" points="481.5,-56.5 481.5,-75.5 523.5,-75.5 523.5,-56.5 481.5,-56.5"/>
<text text-anchor="middle" x="502.5" y="-63.5" font-family="Helvetica,sans-Serif" font-size="10.00">bios.h</text>
</a>
</g>
</g>
<!-- Node1&#45;&gt;Node6 -->
<g id="edge5" class="edge">
<title>Node1&#45;&gt;Node6</title>
<path fill="none" stroke="midnightblue" d="M502.41,-224.17C499.45,-215.2 495.18,-200.83 493.5,-188 488.77,-151.92 494.52,-109.44 498.76,-85.63"/>
<polygon fill="midnightblue" stroke="midnightblue" points="502.25,-86.02 500.67,-75.54 495.37,-84.72 502.25,-86.02"/>
</g>
<!-- Node7 -->
<g id="node7" class="node">
<title>Node7</title>
<g id="a_node7"><a xlink:href="workarea_8h.html" target="_top" xlink:title="Copyright (c) 2021 Daishi Mori (mori0091)">
<polygon fill="none" stroke="black" points="253.5,-56.5 253.5,-75.5 317.5,-75.5 317.5,-56.5 253.5,-56.5"/>
<text text-anchor="middle" x="285.5" y="-63.5" font-family="Helvetica,sans-Serif" font-size="10.00">workarea.h</text>
</a>
</g>
</g>
<!-- Node1&#45;&gt;Node7 -->
<g id="edge7" class="edge">
<title>Node1&#45;&gt;Node7</title>
<path fill="none" stroke="midnightblue" d="M483.27,-224.5C447.57,-209.97 376.79,-177.48 330.5,-132 316.16,-117.91 303.5,-98.67 295.29,-84.78"/>
<polygon fill="midnightblue" stroke="midnightblue" points="298.14,-82.71 290.14,-75.77 292.06,-86.18 298.14,-82.71"/>
</g>
<!-- Node8 -->
<g id="node8" class="node">
<title>Node8</title>
<g id="a_node8"><a xlink:href="vdp_8h.html" target="_top" xlink:title="Copyright (c) 2021 Daishi Mori (mori0091)">
<polygon fill="none" stroke="black" points="406.5,-112.5 406.5,-131.5 446.5,-131.5 446.5,-112.5 406.5,-112.5"/>
<text text-anchor="middle" x="426.5" y="-119.5" font-family="Helvetica,sans-Serif" font-size="10.00">vdp.h</text>
</a>
</g>
</g>
<!-- Node1&#45;&gt;Node8 -->
<g id="edge9" class="edge">
<title>Node1&#45;&gt;Node8</title>
<path fill="none" stroke="midnightblue" d="M495.31,-224.45C485.56,-215.91 470.84,-202.07 460.5,-188 449.68,-173.28 440.31,-154.65 434.17,-141.11"/>
<polygon fill="midnightblue" stroke="midnightblue" points="437.35,-139.65 430.12,-131.9 430.94,-142.46 437.35,-139.65"/>
</g>
<!-- Node10 -->
<g id="node10" class="node">
<title>Node10</title>
<g id="a_node10"><a xlink:href="vmem_8h.html" target="_top" xlink:title="Copyright (c) 2021 Daishi Mori (mori0091)">
<polygon fill="none" stroke="black" points="618,-56.5 618,-75.5 669,-75.5 669,-56.5 618,-56.5"/>
<text text-anchor="middle" x="643.5" y="-63.5" font-family="Helvetica,sans-Serif" font-size="10.00">vmem.h</text>
</a>
</g>
</g>
<!-- Node1&#45;&gt;Node10 -->
<g id="edge19" class="edge">
<title>Node1&#45;&gt;Node10</title>
<path fill="none" stroke="midnightblue" d="M543.72,-230.24C597.39,-225.48 690.84,-213.66 711.5,-188 739.42,-153.32 691.62,-105.67 662.85,-81.84"/>
<polygon fill="midnightblue" stroke="midnightblue" points="664.97,-79.05 654.98,-75.51 660.58,-84.5 664.97,-79.05"/>
</g>
<!-- Node11 -->
<g id="node11" class="node">
<title>Node11</title>
<g id="a_node11"><a xlink:href="sprite_8h.html" target="_top" xlink:title="Copyright (c) 2021 Daishi Mori (mori0091)">
<polygon fill="none" stroke="black" points="583.5,-112.5 583.5,-131.5 631.5,-131.5 631.5,-112.5 583.5,-112.5"/>
<text text-anchor="middle" x="607.5" y="-119.5" font-family="Helvetica,sans-Serif" font-size="10.00">sprite.h</text>
</a>
</g>
</g>
<!-- Node1&#45;&gt;Node11 -->
<g id="edge20" class="edge">
<title>Node1&#45;&gt;Node11</title>
<path fill="none" stroke="midnightblue" d="M527.82,-224.48C544.57,-217.08 567.03,-204.89 581.5,-188 592.98,-174.6 599.8,-155.49 603.56,-141.46"/>
<polygon fill="midnightblue" stroke="midnightblue" points="607.02,-142.04 605.94,-131.5 600.21,-140.41 607.02,-142.04"/>
</g>
<!-- Node12 -->
<g id="node12" class="node">
<title>Node12</title>
<g id="a_node12"><a xlink:href="sprite__color_8h.html" target="_top" xlink:title="Copyright (c) 2021 Daishi Mori (mori0091)">
<polygon fill="none" stroke="black" points="628.5,-168.5 628.5,-187.5 702.5,-187.5 702.5,-168.5 628.5,-168.5"/>
<text text-anchor="middle" x="665.5" y="-175.5" font-family="Helvetica,sans-Serif" font-size="10.00">sprite_color.h</text>
</a>
</g>
</g>
<!-- Node1&#45;&gt;Node12 -->
<g id="edge23" class="edge">
<title>Node1&#45;&gt;Node12</title>
<path fill="none" stroke="midnightblue" d="M530.85,-224.44C557.77,-215.36 600.5,-200.94 630.59,-190.78"/>
<polygon fill="midnightblue" stroke="midnightblue" points="631.91,-194.03 640.27,-187.52 629.67,-187.4 631.91,-194.03"/>
</g>
<!-- Node13 -->
<g id="node13" class="node">
<title>Node13</title>
<g id="a_node13"><a xlink:href="metasprite_8h.html" target="_top" xlink:title="Copyright (c) 2021 Daishi Mori (mori0091)">
<polygon fill="none" stroke="black" points="502.5,-168.5 502.5,-187.5 572.5,-187.5 572.5,-168.5 502.5,-168.5"/>
<text text-anchor="middle" x="537.5" y="-175.5" font-family="Helvetica,sans-Serif" font-size="10.00">metasprite.h</text>
</a>
</g>
</g>
<!-- Node1&#45;&gt;Node13 -->
<g id="edge27" class="edge">
<title>Node1&#45;&gt;Node13</title>
<path fill="none" stroke="midnightblue" d="M510.78,-224.08C515.21,-216.61 521.66,-205.72 527.12,-196.52"/>
<polygon fill="midnightblue" stroke="midnightblue" points="530.23,-198.14 532.31,-187.75 524.21,-194.57 530.23,-198.14"/>
</g>
<!-- Node14 -->
<g id="node14" class="node">
<title>Node14</title>
<g id="a_node14"><a xlink:href="input_8h.html" target="_top" xlink:title="Copyright (c) 2021 Daishi Mori (mori0091)">
<polygon fill="none" stroke="black" points="339,-112.5 339,-131.5 384,-131.5 384,-112.5 339,-112.5"/>
<text text-anchor="middle" x="361.5" y="-119.5" font-family="Helvetica,sans-Serif" font-size="10.00">input.h</text>
</a>
</g>
</g>
<!-- Node1&#45;&gt;Node14 -->
<g id="edge32" class="edge">
<title>Node1&#45;&gt;Node14</title>
<path fill="none" stroke="midnightblue" d="M493.73,-224.47C481.39,-215.5 461.47,-200.9 444.5,-188 422.17,-171.02 396.82,-151.07 380.08,-137.8"/>
<polygon fill="midnightblue" stroke="midnightblue" points="382.17,-134.99 372.17,-131.51 377.82,-140.47 382.17,-134.99"/>
</g>
<!-- Node15 -->
<g id="node15" class="node">
<title>Node15</title>
<g id="a_node15"><a xlink:href="psg_8h.html" target="_top" xlink:title="Copyright (c) 2021 Daishi Mori (mori0091)">
<polygon fill="none" stroke="black" points="725.5,-56.5 725.5,-75.5 765.5,-75.5 765.5,-56.5 725.5,-56.5"/>
<text text-anchor="middle" x="745.5" y="-63.5" font-family="Helvetica,sans-Serif" font-size="10.00">psg.h</text>
</a>
</g>
</g>
<!-- Node1&#45;&gt;Node15 -->
<g id="edge35" class="edge">
<title>Node1&#45;&gt;Node15</title>
<path fill="none" stroke="midnightblue" d="M543.71,-230.58C600.9,-226.11 704.71,-214.51 729.5,-188 755.35,-160.37 752.92,-112.41 749.09,-85.93"/>
<polygon fill="midnightblue" stroke="midnightblue" points="752.48,-85 747.38,-75.72 745.58,-86.16 752.48,-85"/>
</g>
<!-- Node16 -->
<g id="node16" class="node">
<title>Node16</title>
<g id="a_node16"><a xlink:href="sound_8h.html" target="_top" xlink:title="Copyright (c) 2021 Daishi Mori (mori0091)">
<polygon fill="none" stroke="black" points="61.5,-112.5 61.5,-131.5 111.5,-131.5 111.5,-112.5 61.5,-112.5"/>
<text text-anchor="middle" x="86.5" y="-119.5" font-family="Helvetica,sans-Serif" font-size="10.00">sound.h</text>
</a>
</g>
</g>
<!-- Node1&#45;&gt;Node16 -->
<g id="edge38" class="edge">
<title>Node1&#45;&gt;Node16</title>
<path fill="none" stroke="midnightblue" d="M467.28,-229.44C414.86,-223.91 318.11,-211.37 238.5,-188 192.48,-174.49 141.77,-150.92 112.11,-136.18"/>
<polygon fill="midnightblue" stroke="midnightblue" points="113.4,-132.91 102.89,-131.55 110.25,-139.17 113.4,-132.91"/>
</g>
<!-- Node3 -->
<g id="node3" class="node">
<title>Node3</title>
<g id="a_node3"><a xlink:title=" ">
<polygon fill="none" stroke="#bfbfbf" points="141.5,-56.5 141.5,-75.5 197.5,-75.5 197.5,-56.5 141.5,-56.5"/>
<text text-anchor="middle" x="169.5" y="-63.5" font-family="Helvetica,sans-Serif" font-size="10.00">stdbool.h</text>
</a>
</g>
</g>
<!-- Node2&#45;&gt;Node3 -->
<g id="edge2" class="edge">
<title>Node2&#45;&gt;Node3</title>
<path fill="none" stroke="midnightblue" d="M169.5,-112.08C169.5,-105.01 169.5,-94.86 169.5,-85.99"/>
<polygon fill="midnightblue" stroke="midnightblue" points="173,-85.75 169.5,-75.75 166,-85.75 173,-85.75"/>
</g>
<!-- Node4 -->
<g id="node4" class="node">
<title>Node4</title>
<g id="a_node4"><a xlink:title=" ">
<polygon fill="none" stroke="#bfbfbf" points="478.5,-0.5 478.5,-19.5 526.5,-19.5 526.5,-0.5 478.5,-0.5"/>
<text text-anchor="middle" x="502.5" y="-7.5" font-family="Helvetica,sans-Serif" font-size="10.00">stdint.h</text>
</a>
</g>
</g>
<!-- Node2&#45;&gt;Node4 -->
<g id="edge3" class="edge">
<title>Node2&#45;&gt;Node4</title>
<path fill="none" stroke="midnightblue" d="M158.35,-112.5C142.42,-99.36 116.74,-73.79 132.5,-56 154.59,-31.06 380.52,-17.13 468.09,-12.63"/>
<polygon fill="midnightblue" stroke="midnightblue" points="468.48,-16.11 478.3,-12.12 468.13,-9.12 468.48,-16.11"/>
</g>
<!-- Node6&#45;&gt;Node4 -->
<g id="edge6" class="edge">
<title>Node6&#45;&gt;Node4</title>
<path fill="none" stroke="midnightblue" d="M502.5,-56.08C502.5,-49.01 502.5,-38.86 502.5,-29.99"/>
<polygon fill="midnightblue" stroke="midnightblue" points="506,-29.75 502.5,-19.75 499,-29.75 506,-29.75"/>
</g>
<!-- Node7&#45;&gt;Node4 -->
<g id="edge8" class="edge">
<title>Node7&#45;&gt;Node4</title>
<path fill="none" stroke="midnightblue" d="M317.52,-57.03C357.95,-46.97 427.21,-29.74 468.54,-19.45"/>
<polygon fill="midnightblue" stroke="midnightblue" points="469.55,-22.81 478.41,-17 467.86,-16.01 469.55,-22.81"/>
</g>
<!-- Node8&#45;&gt;Node3 -->
<g id="edge11" class="edge">
<title>Node8&#45;&gt;Node3</title>
<path fill="none" stroke="midnightblue" d="M406.31,-115.26C402.09,-114.13 397.66,-112.98 393.5,-112 328.5,-96.63 252.1,-82.01 207.41,-73.8"/>
<polygon fill="midnightblue" stroke="midnightblue" points="208.04,-70.36 197.57,-72 206.78,-77.24 208.04,-70.36"/>
</g>
<!-- Node8&#45;&gt;Node4 -->
<g id="edge12" class="edge">
<title>Node8&#45;&gt;Node4</title>
<path fill="none" stroke="midnightblue" d="M426.28,-112.26C426.35,-99.02 428.13,-73.59 439.5,-56 448.13,-42.65 462.24,-32.03 474.92,-24.46"/>
<polygon fill="midnightblue" stroke="midnightblue" points="476.77,-27.44 483.8,-19.5 473.36,-21.33 476.77,-27.44"/>
</g>
<!-- Node8&#45;&gt;Node5 -->
<g id="edge13" class="edge">
<title>Node8&#45;&gt;Node5</title>
<path fill="none" stroke="midnightblue" d="M430.1,-112.23C436.43,-97.99 450.96,-70.04 472.5,-56 534.16,-15.83 624.31,-10.34 668.34,-10.3"/>
<polygon fill="midnightblue" stroke="midnightblue" points="668.46,-13.8 678.49,-10.38 668.53,-6.8 668.46,-13.8"/>
</g>
<!-- Node8&#45;&gt;Node6 -->
<g id="edge17" class="edge">
<title>Node8&#45;&gt;Node6</title>
<path fill="none" stroke="midnightblue" d="M438.71,-112.32C450.28,-104.11 467.88,-91.6 481.66,-81.81"/>
<polygon fill="midnightblue" stroke="midnightblue" points="483.94,-84.48 490.07,-75.83 479.89,-78.77 483.94,-84.48"/>
</g>
<!-- Node8&#45;&gt;Node7 -->
<g id="edge18" class="edge">
<title>Node8&#45;&gt;Node7</title>
<path fill="none" stroke="midnightblue" d="M406.3,-113.26C383.1,-104.38 344.75,-89.69 317.49,-79.25"/>
<polygon fill="midnightblue" stroke="midnightblue" points="318.59,-75.92 308,-75.62 316.08,-82.46 318.59,-75.92"/>
</g>
<!-- Node9 -->
<g id="node9" class="node">
<title>Node9</title>
<g id="a_node9"><a xlink:title=" ">
<polygon fill="none" stroke="#bfbfbf" points="336,-56.5 336,-75.5 387,-75.5 387,-56.5 336,-56.5"/>
<text text-anchor="middle" x="361.5" y="-63.5" font-family="Helvetica,sans-Serif" font-size="10.00">assert.h</text>
</a>
</g>
</g>
<!-- Node8&#45;&gt;Node9 -->
<g id="edge10" class="edge">
<title>Node8&#45;&gt;Node9</title>
<path fill="none" stroke="midnightblue" d="M416.06,-112.32C406.35,-104.26 391.68,-92.08 380,-82.37"/>
<polygon fill="midnightblue" stroke="midnightblue" points="382.06,-79.53 372.13,-75.83 377.59,-84.92 382.06,-79.53"/>
</g>
<!-- Node8&#45;&gt;Node10 -->
<g id="edge14" class="edge">
<title>Node8&#45;&gt;Node10</title>
<path fill="none" stroke="midnightblue" d="M446.53,-116.02C483.3,-106.87 562.03,-87.27 608.04,-75.82"/>
<polygon fill="midnightblue" stroke="midnightblue" points="609.03,-79.18 617.89,-73.37 607.34,-72.39 609.03,-79.18"/>
</g>
<!-- Node10&#45;&gt;Node4 -->
<g id="edge15" class="edge">
<title>Node10&#45;&gt;Node4</title>
<path fill="none" stroke="midnightblue" d="M621.16,-56.44C597.75,-47.48 560.76,-33.31 534.31,-23.18"/>
<polygon fill="midnightblue" stroke="midnightblue" points="535.33,-19.82 524.74,-19.52 532.82,-26.36 535.33,-19.82"/>
</g>
<!-- Node10&#45;&gt;Node5 -->
<g id="edge16" class="edge">
<title>Node10&#45;&gt;Node5</title>
<path fill="none" stroke="midnightblue" d="M651.92,-56.08C659.35,-48.22 670.35,-36.57 679.31,-27.08"/>
<polygon fill="midnightblue" stroke="midnightblue" points="681.91,-29.42 686.24,-19.75 676.82,-24.62 681.91,-29.42"/>
</g>
<!-- Node11&#45;&gt;Node4 -->
<g id="edge21" class="edge">
<title>Node11&#45;&gt;Node4</title>
<path fill="none" stroke="midnightblue" d="M603.23,-112.28C596.49,-99.08 582.38,-73.69 565.5,-56 554,-43.95 538.87,-33.02 526.32,-24.95"/>
<polygon fill="midnightblue" stroke="midnightblue" points="528.07,-21.92 517.73,-19.61 524.37,-27.86 528.07,-21.92"/>
</g>
<!-- Node11&#45;&gt;Node10 -->
<g id="edge22" class="edge">
<title>Node11&#45;&gt;Node10</title>
<path fill="none" stroke="midnightblue" d="M613.44,-112.08C618.48,-104.53 625.84,-93.49 632.01,-84.23"/>
<polygon fill="midnightblue" stroke="midnightblue" points="635.03,-86.01 637.67,-75.75 629.21,-82.13 635.03,-86.01"/>
</g>
<!-- Node12&#45;&gt;Node4 -->
<g id="edge24" class="edge">
<title>Node12&#45;&gt;Node4</title>
<path fill="none" stroke="midnightblue" d="M670.16,-168.26C680.98,-146.67 704.93,-90.04 678.5,-56 661.27,-33.81 582.81,-20.72 536.67,-14.8"/>
<polygon fill="midnightblue" stroke="midnightblue" points="536.87,-11.3 526.52,-13.55 536.01,-18.25 536.87,-11.3"/>
</g>
<!-- Node12&#45;&gt;Node10 -->
<g id="edge26" class="edge">
<title>Node12&#45;&gt;Node10</title>
<path fill="none" stroke="midnightblue" d="M663.77,-168.37C660.22,-150.62 652.03,-109.67 647.22,-85.6"/>
<polygon fill="midnightblue" stroke="midnightblue" points="650.61,-84.71 645.22,-75.59 643.75,-86.08 650.61,-84.71"/>
</g>
<!-- Node12&#45;&gt;Node11 -->
<g id="edge25" class="edge">
<title>Node12&#45;&gt;Node11</title>
<path fill="none" stroke="midnightblue" d="M656.18,-168.32C647.61,-160.34 634.69,-148.31 624.31,-138.65"/>
<polygon fill="midnightblue" stroke="midnightblue" points="626.69,-136.09 616.99,-131.83 621.92,-141.21 626.69,-136.09"/>
</g>
<!-- Node13&#45;&gt;Node4 -->
<g id="edge28" class="edge">
<title>Node13&#45;&gt;Node4</title>
<path fill="none" stroke="midnightblue" d="M538.72,-168.21C541.2,-147.86 545.58,-96.19 532.5,-56 529.13,-45.64 522.65,-35.43 516.57,-27.36"/>
<polygon fill="midnightblue" stroke="midnightblue" points="519.29,-25.15 510.3,-19.53 513.83,-29.52 519.29,-25.15"/>
</g>
<!-- Node13&#45;&gt;Node8 -->
<g id="edge29" class="edge">
<title>Node13&#45;&gt;Node8</title>
<path fill="none" stroke="midnightblue" d="M519.67,-168.32C501.78,-159.62 474.02,-146.12 453.45,-136.11"/>
<polygon fill="midnightblue" stroke="midnightblue" points="454.81,-132.88 444.29,-131.65 451.75,-139.18 454.81,-132.88"/>
</g>
<!-- Node13&#45;&gt;Node10 -->
<g id="edge30" class="edge">
<title>Node13&#45;&gt;Node10</title>
<path fill="none" stroke="midnightblue" d="M540.93,-168.16C546.43,-154.8 558.3,-129.21 574.5,-112 586.53,-99.22 602.87,-88.36 616.64,-80.51"/>
<polygon fill="midnightblue" stroke="midnightblue" points="618.58,-83.44 625.67,-75.56 615.22,-77.29 618.58,-83.44"/>
</g>
<!-- Node13&#45;&gt;Node11 -->
<g id="edge31" class="edge">
<title>Node13&#45;&gt;Node11</title>
<path fill="none" stroke="midnightblue" d="M548.75,-168.32C559.3,-160.18 575.3,-147.84 587.94,-138.09"/>
<polygon fill="midnightblue" stroke="midnightblue" points="590.27,-140.71 596.05,-131.83 585.99,-135.17 590.27,-140.71"/>
</g>
<!-- Node14&#45;&gt;Node4 -->
<g id="edge34" class="edge">
<title>Node14&#45;&gt;Node4</title>
<path fill="none" stroke="midnightblue" d="M338.81,-117.42C297.22,-109.94 215.57,-90.42 244.5,-56 272.64,-22.52 404.18,-13.95 467.82,-11.75"/>
<polygon fill="midnightblue" stroke="midnightblue" points="468.27,-15.24 478.15,-11.43 468.05,-8.25 468.27,-15.24"/>
</g>
<!-- Node14&#45;&gt;Node9 -->
<g id="edge33" class="edge">
<title>Node14&#45;&gt;Node9</title>
<path fill="none" stroke="midnightblue" d="M361.5,-112.08C361.5,-105.01 361.5,-94.86 361.5,-85.99"/>
<polygon fill="midnightblue" stroke="midnightblue" points="365,-85.75 361.5,-75.75 358,-85.75 365,-85.75"/>
</g>
<!-- Node15&#45;&gt;Node4 -->
<g id="edge36" class="edge">
<title>Node15&#45;&gt;Node4</title>
<path fill="none" stroke="midnightblue" d="M725.4,-59.51C720.84,-58.32 716.01,-57.08 711.5,-56 650.11,-41.27 578.04,-26.25 536.58,-17.83"/>
<polygon fill="midnightblue" stroke="midnightblue" points="537.22,-14.39 526.72,-15.83 535.83,-21.25 537.22,-14.39"/>
</g>
<!-- Node15&#45;&gt;Node5 -->
<g id="edge37" class="edge">
<title>Node15&#45;&gt;Node5</title>
<path fill="none" stroke="midnightblue" d="M737.08,-56.08C729.65,-48.22 718.65,-36.57 709.69,-27.08"/>
<polygon fill="midnightblue" stroke="midnightblue" points="712.18,-24.62 702.76,-19.75 707.09,-29.42 712.18,-24.62"/>
</g>
<!-- Node16&#45;&gt;Node3 -->
<g id="edge39" class="edge">
<title>Node16&#45;&gt;Node3</title>
<path fill="none" stroke="midnightblue" d="M99.84,-112.32C112.66,-103.98 132.28,-91.21 147.44,-81.35"/>
<polygon fill="midnightblue" stroke="midnightblue" points="149.72,-84.04 156.2,-75.65 145.91,-78.17 149.72,-84.04"/>
</g>
<!-- Node16&#45;&gt;Node4 -->
<g id="edge40" class="edge">
<title>Node16&#45;&gt;Node4</title>
<path fill="none" stroke="midnightblue" d="M88.91,-112.07C93.32,-97.6 104.16,-69.33 124.5,-56 180.7,-19.17 386.1,-12.46 468.23,-11.25"/>
<polygon fill="midnightblue" stroke="midnightblue" points="468.34,-14.75 478.29,-11.13 468.25,-7.75 468.34,-14.75"/>
</g>
<!-- Node17 -->
<g id="node17" class="node">
<title>Node17</title>
<g id="a_node17"><a xlink:title=" ">
<polygon fill="none" stroke="#bfbfbf" points="0,-56.5 0,-75.5 47,-75.5 47,-56.5 0,-56.5"/>
<text text-anchor="middle" x="23.5" y="-63.5" font-family="Helvetica,sans-Serif" font-size="10.00">stdlib.h</text>
</a>
</g>
</g>
<!-- Node16&#45;&gt;Node17 -->
<g id="edge41" class="edge">
<title>Node16&#45;&gt;Node17</title>
<path fill="none" stroke="midnightblue" d="M76.38,-112.32C66.97,-104.26 52.76,-92.08 41.43,-82.37"/>
<polygon fill="midnightblue" stroke="midnightblue" points="43.68,-79.68 33.81,-75.83 39.12,-85 43.68,-79.68"/>
</g>
</g>
</svg>
