<?xml version="1.0" encoding="UTF-8" standalone="no"?>
<!DOCTYPE svg PUBLIC "-//W3C//DTD SVG 1.1//EN"
 "http://www.w3.org/Graphics/SVG/1.1/DTD/svg11.dtd">
<!-- Generated by graphviz version 2.44.0 ()
 -->
<!-- Title: include/msx.h Pages: 1 -->
<svg width="833pt" height="252pt"
 viewBox="0.00 0.00 833.24 252.00" xmlns="http://www.w3.org/2000/svg" xmlns:xlink="http://www.w3.org/1999/xlink">
<g id="graph0" class="graph" transform="scale(1 1) rotate(0) translate(4 248)">
<title>include/msx.h</title>
<!-- Node1 -->
<g id="node1" class="node">
<title>Node1</title>
<g id="a_node1"><a xlink:title="Copyright (c) 2021 Daishi Mori (mori0091)">
<polygon fill="#bfbfbf" stroke="black" points="274.74,-224.5 274.74,-243.5 350.74,-243.5 350.74,-224.5 274.74,-224.5"/>
<text text-anchor="middle" x="312.74" y="-231.5" font-family="Helvetica,sans-Serif" font-size="10.00">include/msx.h</text>
</a>
</g>
</g>
<!-- Node2 -->
<g id="node2" class="node">
<title>Node2</title>
<g id="a_node2"><a xlink:href="interrupt_8h.html" target="_top" xlink:title="Copyright (c) 2021 Daishi Mori (mori0091)">
<polygon fill="none" stroke="black" points="64.24,-168.5 64.24,-187.5 123.24,-187.5 123.24,-168.5 64.24,-168.5"/>
<text text-anchor="middle" x="93.74" y="-175.5" font-family="Helvetica,sans-Serif" font-size="10.00">interrupt.h</text>
</a>
</g>
</g>
<!-- Node1&#45;&gt;Node2 -->
<g id="edge1" class="edge">
<title>Node1&#45;&gt;Node2</title>
<path fill="none" stroke="midnightblue" d="M278.04,-224.44C238.6,-214.72 174.35,-198.88 133.08,-188.7"/>
<polygon fill="midnightblue" stroke="midnightblue" points="133.91,-185.3 123.36,-186.3 132.24,-192.1 133.91,-185.3"/>
</g>
<!-- Node4 -->
<g id="node4" class="node">
<title>Node4</title>
<g id="a_node4"><a xlink:href="io_8h.html" target="_top" xlink:title="Copyright (c) 2021 Daishi Mori (mori0091)">
<polygon fill="none" stroke="black" points="118.74,-0.5 118.74,-19.5 150.74,-19.5 150.74,-0.5 118.74,-0.5"/>
<text text-anchor="middle" x="134.74" y="-7.5" font-family="Helvetica,sans-Serif" font-size="10.00">io.h</text>
</a>
</g>
</g>
<!-- Node1&#45;&gt;Node4 -->
<g id="edge3" class="edge">
<title>Node1&#45;&gt;Node4</title>
<path fill="none" stroke="midnightblue" d="M274.67,-231.98C207.58,-229.36 72.31,-220.14 39.74,-188 -2.49,-146.32 -13.71,-105.01 19.74,-56 39.59,-26.92 81.29,-16.63 108.64,-12.99"/>
<polygon fill="midnightblue" stroke="midnightblue" points="109.14,-16.46 118.69,-11.87 108.36,-9.5 109.14,-16.46"/>
</g>
<!-- Node5 -->
<g id="node5" class="node">
<title>Node5</title>
<g id="a_node5"><a xlink:href="bios_8h.html" target="_top" xlink:title="Copyright (c) 2021 Daishi Mori (mori0091)">
<polygon fill="none" stroke="black" points="523.74,-56.5 523.74,-75.5 565.74,-75.5 565.74,-56.5 523.74,-56.5"/>
<text text-anchor="middle" x="544.74" y="-63.5" font-family="Helvetica,sans-Serif" font-size="10.00">bios.h</text>
</a>
</g>
</g>
<!-- Node1&#45;&gt;Node5 -->
<g id="edge4" class="edge">
<title>Node1&#45;&gt;Node5</title>
<path fill="none" stroke="midnightblue" d="M345.35,-224.48C370.4,-217.08 405.25,-204.88 432.74,-188 477.49,-160.52 515.63,-110.28 533.64,-84.02"/>
<polygon fill="midnightblue" stroke="midnightblue" points="536.68,-85.77 539.34,-75.51 530.87,-81.87 536.68,-85.77"/>
</g>
<!-- Node6 -->
<g id="node6" class="node">
<title>Node6</title>
<g id="a_node6"><a xlink:href="workarea_8h.html" target="_top" xlink:title="Copyright (c) 2021 Daishi Mori (mori0091)">
<polygon fill="none" stroke="black" points="583.74,-56.5 583.74,-75.5 647.74,-75.5 647.74,-56.5 583.74,-56.5"/>
<text text-anchor="middle" x="615.74" y="-63.5" font-family="Helvetica,sans-Serif" font-size="10.00">workarea.h</text>
</a>
</g>
</g>
<!-- Node1&#45;&gt;Node6 -->
<g id="edge6" class="edge">
<title>Node1&#45;&gt;Node6</title>
<path fill="none" stroke="midnightblue" d="M350.74,-225.37C381.32,-218.3 424.79,-206.12 459.74,-188 516.27,-158.69 572.91,-108.19 599.73,-82.7"/>
<polygon fill="midnightblue" stroke="midnightblue" points="602.28,-85.1 607.06,-75.64 597.43,-80.06 602.28,-85.1"/>
</g>
<!-- Node7 -->
<g id="node7" class="node">
<title>Node7</title>
<g id="a_node7"><a xlink:href="vdp_8h.html" target="_top" xlink:title="Copyright (c) 2021 Daishi Mori (mori0091)">
<polygon fill="none" stroke="black" points="444.74,-112.5 444.74,-131.5 484.74,-131.5 484.74,-112.5 444.74,-112.5"/>
<text text-anchor="middle" x="464.74" y="-119.5" font-family="Helvetica,sans-Serif" font-size="10.00">vdp.h</text>
</a>
</g>
</g>
<!-- Node1&#45;&gt;Node7 -->
<g id="edge8" class="edge">
<title>Node1&#45;&gt;Node7</title>
<path fill="none" stroke="midnightblue" d="M337.69,-224.42C357.8,-216.77 386.18,-204.27 407.74,-188 425.82,-174.35 442.4,-154.2 452.96,-139.96"/>
<polygon fill="midnightblue" stroke="midnightblue" points="455.98,-141.75 458.98,-131.58 450.3,-137.66 455.98,-141.75"/>
</g>
<!-- Node10 -->
<g id="node10" class="node">
<title>Node10</title>
<g id="a_node10"><a xlink:href="vmem_8h.html" target="_top" xlink:title="Copyright (c) 2021 Daishi Mori (mori0091)">
<polygon fill="none" stroke="black" points="194.24,-56.5 194.24,-75.5 245.24,-75.5 245.24,-56.5 194.24,-56.5"/>
<text text-anchor="middle" x="219.74" y="-63.5" font-family="Helvetica,sans-Serif" font-size="10.00">vmem.h</text>
</a>
</g>
</g>
<!-- Node1&#45;&gt;Node10 -->
<g id="edge18" class="edge">
<title>Node1&#45;&gt;Node10</title>
<path fill="none" stroke="midnightblue" d="M274.61,-232.59C241.18,-229.95 194.34,-220.24 170.74,-188 146.32,-154.65 181.57,-107.4 203.86,-82.99"/>
<polygon fill="midnightblue" stroke="midnightblue" points="206.48,-85.31 210.82,-75.64 201.4,-80.49 206.48,-85.31"/>
</g>
<!-- Node11 -->
<g id="node11" class="node">
<title>Node11</title>
<g id="a_node11"><a xlink:href="sprite_8h.html" target="_top" xlink:title="Copyright (c) 2021 Daishi Mori (mori0091)">
<polygon fill="none" stroke="black" points="238.74,-112.5 238.74,-131.5 286.74,-131.5 286.74,-112.5 238.74,-112.5"/>
<text text-anchor="middle" x="262.74" y="-119.5" font-family="Helvetica,sans-Serif" font-size="10.00">sprite.h</text>
</a>
</g>
</g>
<!-- Node1&#45;&gt;Node11 -->
<g id="edge19" class="edge">
<title>Node1&#45;&gt;Node11</title>
<path fill="none" stroke="midnightblue" d="M308.82,-224.37C300.68,-206.46 281.8,-164.92 270.9,-140.95"/>
<polygon fill="midnightblue" stroke="midnightblue" points="273.97,-139.25 266.65,-131.59 267.6,-142.14 273.97,-139.25"/>
</g>
<!-- Node12 -->
<g id="node12" class="node">
<title>Node12</title>
<g id="a_node12"><a xlink:href="sprite__color_8h.html" target="_top" xlink:title="Copyright (c) 2021 Daishi Mori (mori0091)">
<polygon fill="none" stroke="black" points="179.74,-168.5 179.74,-187.5 253.74,-187.5 253.74,-168.5 179.74,-168.5"/>
<text text-anchor="middle" x="216.74" y="-175.5" font-family="Helvetica,sans-Serif" font-size="10.00">sprite_color.h</text>
</a>
</g>
</g>
<!-- Node1&#45;&gt;Node12 -->
<g id="edge22" class="edge">
<title>Node1&#45;&gt;Node12</title>
<path fill="none" stroke="midnightblue" d="M297.32,-224.32C282.2,-215.82 258.93,-202.73 241.27,-192.8"/>
<polygon fill="midnightblue" stroke="midnightblue" points="242.56,-189.51 232.13,-187.65 239.13,-195.61 242.56,-189.51"/>
</g>
<!-- Node13 -->
<g id="node13" class="node">
<title>Node13</title>
<g id="a_node13"><a xlink:href="metasprite_8h.html" target="_top" xlink:title="Copyright (c) 2021 Daishi Mori (mori0091)">
<polygon fill="none" stroke="black" points="309.74,-168.5 309.74,-187.5 379.74,-187.5 379.74,-168.5 309.74,-168.5"/>
<text text-anchor="middle" x="344.74" y="-175.5" font-family="Helvetica,sans-Serif" font-size="10.00">metasprite.h</text>
</a>
</g>
</g>
<!-- Node1&#45;&gt;Node13 -->
<g id="edge26" class="edge">
<title>Node1&#45;&gt;Node13</title>
<path fill="none" stroke="midnightblue" d="M318.03,-224.08C322.45,-216.61 328.91,-205.72 334.36,-196.52"/>
<polygon fill="midnightblue" stroke="midnightblue" points="337.47,-198.14 339.56,-187.75 331.45,-194.57 337.47,-198.14"/>
</g>
<!-- Node14 -->
<g id="node14" class="node">
<title>Node14</title>
<g id="a_node14"><a xlink:href="input_8h.html" target="_top" xlink:title="Copyright (c) 2021 Daishi Mori (mori0091)">
<polygon fill="none" stroke="black" points="381.24,-112.5 381.24,-131.5 426.24,-131.5 426.24,-112.5 381.24,-112.5"/>
<text text-anchor="middle" x="403.74" y="-119.5" font-family="Helvetica,sans-Serif" font-size="10.00">input.h</text>
</a>
</g>
</g>
<!-- Node1&#45;&gt;Node14 -->
<g id="edge31" class="edge">
<title>Node1&#45;&gt;Node14</title>
<path fill="none" stroke="midnightblue" d="M337.25,-224.48C354.22,-217.33 375.98,-205.45 388.74,-188 398.46,-174.71 402.01,-156.13 403.25,-142.24"/>
<polygon fill="midnightblue" stroke="midnightblue" points="406.76,-142.07 403.83,-131.89 399.77,-141.68 406.76,-142.07"/>
</g>
<!-- Node15 -->
<g id="node15" class="node">
<title>Node15</title>
<g id="a_node15"><a xlink:href="psg_8h.html" target="_top" xlink:title="Copyright (c) 2021 Daishi Mori (mori0091)">
<polygon fill="none" stroke="black" points="28.74,-56.5 28.74,-75.5 68.74,-75.5 68.74,-56.5 28.74,-56.5"/>
<text text-anchor="middle" x="48.74" y="-63.5" font-family="Helvetica,sans-Serif" font-size="10.00">psg.h</text>
</a>
</g>
</g>
<!-- Node1&#45;&gt;Node15 -->
<g id="edge34" class="edge">
<title>Node1&#45;&gt;Node15</title>
<path fill="none" stroke="midnightblue" d="M274.57,-231.97C209.93,-229.35 83.16,-220.15 54.74,-188 29.76,-159.73 36.84,-111.67 43.32,-85.43"/>
<polygon fill="midnightblue" stroke="midnightblue" points="46.73,-86.21 45.96,-75.65 39.97,-84.39 46.73,-86.21"/>
</g>
<!-- Node16 -->
<g id="node16" class="node">
<title>Node16</title>
<g id="a_node16"><a xlink:href="sound_8h.html" target="_top" xlink:title="Copyright (c) 2021 Daishi Mori (mori0091)">
<polygon fill="none" stroke="black" points="696.74,-112.5 696.74,-131.5 746.74,-131.5 746.74,-112.5 696.74,-112.5"/>
<text text-anchor="middle" x="721.74" y="-119.5" font-family="Helvetica,sans-Serif" font-size="10.00">sound.h</text>
</a>
</g>
</g>
<!-- Node1&#45;&gt;Node16 -->
<g id="edge37" class="edge">
<title>Node1&#45;&gt;Node16</title>
<path fill="none" stroke="midnightblue" d="M351.01,-230.92C406.61,-227.01 512.38,-216.26 597.74,-188 635.83,-175.39 676.36,-152.01 700.35,-137"/>
<polygon fill="midnightblue" stroke="midnightblue" points="702.42,-139.83 708.98,-131.51 698.66,-133.92 702.42,-139.83"/>
</g>
<!-- Node3 -->
<g id="node3" class="node">
<title>Node3</title>
<g id="a_node3"><a xlink:title=" ">
<polygon fill="none" stroke="#bfbfbf" points="287.74,-0.5 287.74,-19.5 335.74,-19.5 335.74,-0.5 287.74,-0.5"/>
<text text-anchor="middle" x="311.74" y="-7.5" font-family="Helvetica,sans-Serif" font-size="10.00">stdint.h</text>
</a>
</g>
</g>
<!-- Node2&#45;&gt;Node3 -->
<g id="edge2" class="edge">
<title>Node2&#45;&gt;Node3</title>
<path fill="none" stroke="midnightblue" d="M97.11,-168.23C106.08,-146.05 132.67,-87.28 173.74,-56 204.41,-32.64 247.7,-21.13 277.57,-15.65"/>
<polygon fill="midnightblue" stroke="midnightblue" points="278.27,-19.08 287.54,-13.95 277.1,-12.18 278.27,-19.08"/>
</g>
<!-- Node5&#45;&gt;Node3 -->
<g id="edge5" class="edge">
<title>Node5&#45;&gt;Node3</title>
<path fill="none" stroke="midnightblue" d="M523.67,-59.48C519.08,-58.31 514.25,-57.09 509.74,-56 452.34,-42.1 385.28,-27.12 345.77,-18.43"/>
<polygon fill="midnightblue" stroke="midnightblue" points="346.39,-14.98 335.87,-16.25 344.89,-21.82 346.39,-14.98"/>
</g>
<!-- Node6&#45;&gt;Node3 -->
<g id="edge7" class="edge">
<title>Node6&#45;&gt;Node3</title>
<path fill="none" stroke="midnightblue" d="M583.54,-57.78C580.57,-57.16 577.6,-56.56 574.74,-56 492.82,-40.01 395.93,-24.24 345.73,-16.3"/>
<polygon fill="midnightblue" stroke="midnightblue" points="346.17,-12.82 335.74,-14.72 345.08,-19.74 346.17,-12.82"/>
</g>
<!-- Node7&#45;&gt;Node3 -->
<g id="edge11" class="edge">
<title>Node7&#45;&gt;Node3</title>
<path fill="none" stroke="midnightblue" d="M469.08,-112.42C475.22,-98.94 484.35,-72.65 471.74,-56 456.6,-36.02 388.29,-22.43 345.97,-15.76"/>
<polygon fill="midnightblue" stroke="midnightblue" points="346.23,-12.26 335.82,-14.21 345.18,-19.18 346.23,-12.26"/>
</g>
<!-- Node7&#45;&gt;Node4 -->
<g id="edge12" class="edge">
<title>Node7&#45;&gt;Node4</title>
<path fill="none" stroke="midnightblue" d="M463.81,-112.21C461.8,-97.96 455.67,-69.98 437.74,-56 416,-39.04 230.6,-20.03 161,-13.42"/>
<polygon fill="midnightblue" stroke="midnightblue" points="161.15,-9.91 150.87,-12.46 160.5,-16.88 161.15,-9.91"/>
</g>
<!-- Node7&#45;&gt;Node5 -->
<g id="edge16" class="edge">
<title>Node7&#45;&gt;Node5</title>
<path fill="none" stroke="midnightblue" d="M477.6,-112.32C489.96,-103.98 508.87,-91.21 523.48,-81.35"/>
<polygon fill="midnightblue" stroke="midnightblue" points="525.59,-84.15 531.92,-75.65 521.67,-78.35 525.59,-84.15"/>
</g>
<!-- Node7&#45;&gt;Node6 -->
<g id="edge17" class="edge">
<title>Node7&#45;&gt;Node6</title>
<path fill="none" stroke="midnightblue" d="M484.79,-113.83C509.66,-104.94 552.41,-89.65 582.28,-78.97"/>
<polygon fill="midnightblue" stroke="midnightblue" points="583.63,-82.2 591.87,-75.54 581.27,-75.61 583.63,-82.2"/>
</g>
<!-- Node8 -->
<g id="node8" class="node">
<title>Node8</title>
<g id="a_node8"><a xlink:title=" ">
<polygon fill="none" stroke="#bfbfbf" points="378.24,-56.5 378.24,-75.5 429.24,-75.5 429.24,-56.5 378.24,-56.5"/>
<text text-anchor="middle" x="403.74" y="-63.5" font-family="Helvetica,sans-Serif" font-size="10.00">assert.h</text>
</a>
</g>
</g>
<!-- Node7&#45;&gt;Node8 -->
<g id="edge9" class="edge">
<title>Node7&#45;&gt;Node8</title>
<path fill="none" stroke="midnightblue" d="M454.94,-112.32C445.92,-104.34 432.34,-92.31 421.42,-82.65"/>
<polygon fill="midnightblue" stroke="midnightblue" points="423.53,-79.84 413.72,-75.83 418.89,-85.08 423.53,-79.84"/>
</g>
<!-- Node9 -->
<g id="node9" class="node">
<title>Node9</title>
<g id="a_node9"><a xlink:title=" ">
<polygon fill="none" stroke="#bfbfbf" points="665.74,-56.5 665.74,-75.5 721.74,-75.5 721.74,-56.5 665.74,-56.5"/>
<text text-anchor="middle" x="693.74" y="-63.5" font-family="Helvetica,sans-Serif" font-size="10.00">stdbool.h</text>
</a>
</g>
</g>
<!-- Node7&#45;&gt;Node9 -->
<g id="edge10" class="edge">
<title>Node7&#45;&gt;Node9</title>
<path fill="none" stroke="midnightblue" d="M484.93,-116.33C518.3,-108.59 587.27,-92.55 655.42,-76.3"/>
<polygon fill="midnightblue" stroke="midnightblue" points="656.55,-79.63 665.47,-73.9 654.93,-72.82 656.55,-79.63"/>
</g>
<!-- Node7&#45;&gt;Node10 -->
<g id="edge13" class="edge">
<title>Node7&#45;&gt;Node10</title>
<path fill="none" stroke="midnightblue" d="M444.47,-114.66C441.23,-113.73 437.9,-112.8 434.74,-112 372.09,-96.08 298.13,-81.51 255.32,-73.48"/>
<polygon fill="midnightblue" stroke="midnightblue" points="255.86,-70.02 245.39,-71.64 254.58,-76.91 255.86,-70.02"/>
</g>
<!-- Node10&#45;&gt;Node3 -->
<g id="edge14" class="edge">
<title>Node10&#45;&gt;Node3</title>
<path fill="none" stroke="midnightblue" d="M234.52,-56.32C249.01,-47.82 271.31,-34.73 288.24,-24.8"/>
<polygon fill="midnightblue" stroke="midnightblue" points="290.14,-27.74 297,-19.65 286.6,-21.7 290.14,-27.74"/>
</g>
<!-- Node10&#45;&gt;Node4 -->
<g id="edge15" class="edge">
<title>Node10&#45;&gt;Node4</title>
<path fill="none" stroke="midnightblue" d="M206.09,-56.32C192.83,-47.9 172.47,-34.97 156.9,-25.07"/>
<polygon fill="midnightblue" stroke="midnightblue" points="158.68,-22.06 148.36,-19.65 154.93,-27.97 158.68,-22.06"/>
</g>
<!-- Node11&#45;&gt;Node3 -->
<g id="edge20" class="edge">
<title>Node11&#45;&gt;Node3</title>
<path fill="none" stroke="midnightblue" d="M266.59,-112.37C274.57,-94.46 293.07,-52.92 303.75,-28.95"/>
<polygon fill="midnightblue" stroke="midnightblue" points="307.04,-30.15 307.91,-19.59 300.65,-27.3 307.04,-30.15"/>
</g>
<!-- Node11&#45;&gt;Node10 -->
<g id="edge21" class="edge">
<title>Node11&#45;&gt;Node10</title>
<path fill="none" stroke="midnightblue" d="M255.64,-112.08C249.5,-104.38 240.47,-93.03 233,-83.65"/>
<polygon fill="midnightblue" stroke="midnightblue" points="235.68,-81.39 226.71,-75.75 230.2,-85.75 235.68,-81.39"/>
</g>
<!-- Node12&#45;&gt;Node3 -->
<g id="edge23" class="edge">
<title>Node12&#45;&gt;Node3</title>
<path fill="none" stroke="midnightblue" d="M209.92,-168.22C194.32,-147 159.29,-92.02 184.74,-56 205.63,-26.44 247.67,-16.17 277.66,-12.68"/>
<polygon fill="midnightblue" stroke="midnightblue" points="278.1,-16.15 287.71,-11.7 277.42,-9.18 278.1,-16.15"/>
</g>
<!-- Node12&#45;&gt;Node10 -->
<g id="edge25" class="edge">
<title>Node12&#45;&gt;Node10</title>
<path fill="none" stroke="midnightblue" d="M216.98,-168.37C217.46,-150.62 218.58,-109.67 219.23,-85.6"/>
<polygon fill="midnightblue" stroke="midnightblue" points="222.73,-85.68 219.51,-75.59 215.74,-85.49 222.73,-85.68"/>
</g>
<!-- Node12&#45;&gt;Node11 -->
<g id="edge24" class="edge">
<title>Node12&#45;&gt;Node11</title>
<path fill="none" stroke="midnightblue" d="M224.34,-168.08C230.97,-160.3 240.76,-148.8 248.8,-139.37"/>
<polygon fill="midnightblue" stroke="midnightblue" points="251.47,-141.63 255.29,-131.75 246.14,-137.09 251.47,-141.63"/>
</g>
<!-- Node13&#45;&gt;Node3 -->
<g id="edge27" class="edge">
<title>Node13&#45;&gt;Node3</title>
<path fill="none" stroke="midnightblue" d="M342.97,-168.08C337.77,-141.95 322.52,-65.21 315.43,-29.58"/>
<polygon fill="midnightblue" stroke="midnightblue" points="318.83,-28.69 313.45,-19.57 311.96,-30.06 318.83,-28.69"/>
</g>
<!-- Node13&#45;&gt;Node7 -->
<g id="edge28" class="edge">
<title>Node13&#45;&gt;Node7</title>
<path fill="none" stroke="midnightblue" d="M363.76,-168.44C383.33,-159.64 414.05,-145.81 436.47,-135.72"/>
<polygon fill="midnightblue" stroke="midnightblue" points="438.13,-138.81 445.82,-131.52 435.26,-132.43 438.13,-138.81"/>
</g>
<!-- Node13&#45;&gt;Node10 -->
<g id="edge29" class="edge">
<title>Node13&#45;&gt;Node10</title>
<path fill="none" stroke="midnightblue" d="M339.63,-168.14C331.59,-154.77 314.91,-129.15 295.74,-112 281.36,-99.13 262.74,-88.04 247.54,-80.09"/>
<polygon fill="midnightblue" stroke="midnightblue" points="249.08,-76.95 238.58,-75.55 245.92,-83.19 249.08,-76.95"/>
</g>
<!-- Node13&#45;&gt;Node11 -->
<g id="edge30" class="edge">
<title>Node13&#45;&gt;Node11</title>
<path fill="none" stroke="midnightblue" d="M331.57,-168.32C318.9,-159.98 299.51,-147.21 284.54,-137.35"/>
<polygon fill="midnightblue" stroke="midnightblue" points="286.16,-134.23 275.88,-131.65 282.31,-140.08 286.16,-134.23"/>
</g>
<!-- Node14&#45;&gt;Node3 -->
<g id="edge33" class="edge">
<title>Node14&#45;&gt;Node3</title>
<path fill="none" stroke="midnightblue" d="M396.52,-112.37C381.21,-94.05 345.24,-51.05 325.43,-27.36"/>
<polygon fill="midnightblue" stroke="midnightblue" points="328.03,-25.02 318.93,-19.59 322.66,-29.51 328.03,-25.02"/>
</g>
<!-- Node14&#45;&gt;Node8 -->
<g id="edge32" class="edge">
<title>Node14&#45;&gt;Node8</title>
<path fill="none" stroke="midnightblue" d="M403.74,-112.08C403.74,-105.01 403.74,-94.86 403.74,-85.99"/>
<polygon fill="midnightblue" stroke="midnightblue" points="407.24,-85.75 403.74,-75.75 400.24,-85.75 407.24,-85.75"/>
</g>
<!-- Node15&#45;&gt;Node3 -->
<g id="edge35" class="edge">
<title>Node15&#45;&gt;Node3</title>
<path fill="none" stroke="midnightblue" d="M68.82,-59.45C73.39,-58.26 78.22,-57.04 82.74,-56 151.46,-40.17 232.59,-25.06 277.49,-17.02"/>
<polygon fill="midnightblue" stroke="midnightblue" points="278.33,-20.42 287.57,-15.22 277.11,-13.53 278.33,-20.42"/>
</g>
<!-- Node15&#45;&gt;Node4 -->
<g id="edge36" class="edge">
<title>Node15&#45;&gt;Node4</title>
<path fill="none" stroke="midnightblue" d="M62.56,-56.32C75.97,-47.9 96.57,-34.97 112.33,-25.07"/>
<polygon fill="midnightblue" stroke="midnightblue" points="114.35,-27.94 120.96,-19.65 110.63,-22.01 114.35,-27.94"/>
</g>
<!-- Node16&#45;&gt;Node3 -->
<g id="edge39" class="edge">
<title>Node16&#45;&gt;Node3</title>
<path fill="none" stroke="midnightblue" d="M726.8,-112.17C733.97,-98.35 744.75,-71.59 730.74,-56 705.17,-27.54 441.62,-15.54 346.08,-12.11"/>
<polygon fill="midnightblue" stroke="midnightblue" points="345.93,-8.6 335.81,-11.75 345.68,-15.6 345.93,-8.6"/>
</g>
<!-- Node16&#45;&gt;Node9 -->
<g id="edge38" class="edge">
<title>Node16&#45;&gt;Node9</title>
<path fill="none" stroke="midnightblue" d="M717.12,-112.08C713.29,-104.69 707.72,-93.95 702.98,-84.81"/>
<polygon fill="midnightblue" stroke="midnightblue" points="705.99,-83.02 698.28,-75.75 699.78,-86.24 705.99,-83.02"/>
</g>
<!-- Node17 -->
<g id="node17" class="node">
<title>Node17</title>
<g id="a_node17"><a xlink:title=" ">
<polygon fill="none" stroke="#bfbfbf" points="778.24,-56.5 778.24,-75.5 825.24,-75.5 825.24,-56.5 778.24,-56.5"/>
<text text-anchor="middle" x="801.74" y="-63.5" font-family="Helvetica,sans-Serif" font-size="10.00">stdlib.h</text>
</a>
</g>
</g>
<!-- Node16&#45;&gt;Node17 -->
<g id="edge40" class="edge">
<title>Node16&#45;&gt;Node17</title>
<path fill="none" stroke="midnightblue" d="M734.6,-112.32C746.96,-103.98 765.87,-91.21 780.48,-81.35"/>
<polygon fill="midnightblue" stroke="midnightblue" points="782.59,-84.15 788.92,-75.65 778.67,-78.35 782.59,-84.15"/>
</g>
</g>
</svg>
