<?xml version="1.0" encoding="UTF-8" standalone="no"?>
<!DOCTYPE svg PUBLIC "-//W3C//DTD SVG 1.1//EN"
 "http://www.w3.org/Graphics/SVG/1.1/DTD/svg11.dtd">
<!-- Generated by graphviz version 3.0.0 (20220413.0106)
 -->
<!-- Title: src/msx_GTSTCK.c Pages: 1 -->
<svg width="166pt" height="196pt"
 viewBox="0.00 0.00 165.50 196.00" xmlns="http://www.w3.org/2000/svg" xmlns:xlink="http://www.w3.org/1999/xlink">
<g id="graph0" class="graph" transform="scale(1 1) rotate(0) translate(4 192)">
<title>src/msx_GTSTCK.c</title>
<!-- Node1 -->
<g id="node1" class="node">
<title>Node1</title>
<g id="a_node1"><a xlink:title="Copyright (c) 2022 Daishi Mori (mori0091)">
<polygon fill="#bfbfbf" stroke="black" points="27.5,-168.5 27.5,-187.5 131.5,-187.5 131.5,-168.5 27.5,-168.5"/>
<text text-anchor="middle" x="79.5" y="-175.5" font-family="Helvetica,sans-Serif" font-size="10.00">src/msx_GTSTCK.c</text>
</a>
</g>
</g>
<!-- Node2 -->
<g id="node2" class="node">
<title>Node2</title>
<g id="a_node2"><a xlink:href="bios_8h.html" target="_top" xlink:title="Copyright (c) 2021 Daishi Mori (mori0091)">
<polygon fill="none" stroke="black" points="38,-112.5 38,-131.5 121,-131.5 121,-112.5 38,-112.5"/>
<text text-anchor="middle" x="79.5" y="-119.5" font-family="Helvetica,sans-Serif" font-size="10.00">../include/bios.h</text>
</a>
</g>
</g>
<!-- Node1&#45;&gt;Node2 -->
<g id="edge1" class="edge">
<title>Node1&#45;&gt;Node2</title>
<path fill="none" stroke="midnightblue" d="M79.5,-168.08C79.5,-161.01 79.5,-150.86 79.5,-141.99"/>
<polygon fill="midnightblue" stroke="midnightblue" points="83,-141.75 79.5,-131.75 76,-141.75 83,-141.75"/>
</g>
<!-- Node3 -->
<g id="node3" class="node">
<title>Node3</title>
<g id="a_node3"><a xlink:href="bios__const_8h.html" target="_top" xlink:title="Constant variables in the MSX BIOS ROM.">
<polygon fill="none" stroke="black" points="0,-56.5 0,-75.5 71,-75.5 71,-56.5 0,-56.5"/>
<text text-anchor="middle" x="35.5" y="-63.5" font-family="Helvetica,sans-Serif" font-size="10.00">bios_const.h</text>
</a>
</g>
</g>
<!-- Node2&#45;&gt;Node3 -->
<g id="edge2" class="edge">
<title>Node2&#45;&gt;Node3</title>
<path fill="none" stroke="midnightblue" d="M72.23,-112.08C65.96,-104.38 56.71,-93.03 49.07,-83.65"/>
<polygon fill="midnightblue" stroke="midnightblue" points="51.66,-81.29 42.63,-75.75 46.23,-85.71 51.66,-81.29"/>
</g>
<!-- Node5 -->
<g id="node5" class="node">
<title>Node5</title>
<g id="a_node5"><a xlink:href="bios__entry_8h.html" target="_top" xlink:title="Assembler entry points for MSX BIOS functions.">
<polygon fill="none" stroke="black" points="89.5,-56.5 89.5,-75.5 157.5,-75.5 157.5,-56.5 89.5,-56.5"/>
<text text-anchor="middle" x="123.5" y="-63.5" font-family="Helvetica,sans-Serif" font-size="10.00">bios_entry.h</text>
</a>
</g>
</g>
<!-- Node2&#45;&gt;Node5 -->
<g id="edge4" class="edge">
<title>Node2&#45;&gt;Node5</title>
<path fill="none" stroke="midnightblue" d="M86.77,-112.08C93.04,-104.38 102.29,-93.03 109.93,-83.65"/>
<polygon fill="midnightblue" stroke="midnightblue" points="112.77,-85.71 116.37,-75.75 107.34,-81.29 112.77,-85.71"/>
</g>
<!-- Node4 -->
<g id="node4" class="node">
<title>Node4</title>
<g id="a_node4"><a xlink:title=" ">
<polygon fill="none" stroke="#bfbfbf" points="55.5,-0.5 55.5,-19.5 103.5,-19.5 103.5,-0.5 55.5,-0.5"/>
<text text-anchor="middle" x="79.5" y="-7.5" font-family="Helvetica,sans-Serif" font-size="10.00">stdint.h</text>
</a>
</g>
</g>
<!-- Node3&#45;&gt;Node4 -->
<g id="edge3" class="edge">
<title>Node3&#45;&gt;Node4</title>
<path fill="none" stroke="midnightblue" d="M42.77,-56.08C49.04,-48.38 58.29,-37.03 65.93,-27.65"/>
<polygon fill="midnightblue" stroke="midnightblue" points="68.77,-29.71 72.37,-19.75 63.34,-25.29 68.77,-29.71"/>
</g>
<!-- Node5&#45;&gt;Node4 -->
<g id="edge5" class="edge">
<title>Node5&#45;&gt;Node4</title>
<path fill="none" stroke="midnightblue" d="M116.23,-56.08C109.96,-48.38 100.71,-37.03 93.07,-27.65"/>
<polygon fill="midnightblue" stroke="midnightblue" points="95.66,-25.29 86.63,-19.75 90.23,-29.71 95.66,-25.29"/>
</g>
</g>
</svg>
