<?xml version="1.0" encoding="UTF-8" standalone="no"?>
<!DOCTYPE svg PUBLIC "-//W3C//DTD SVG 1.1//EN"
 "http://www.w3.org/Graphics/SVG/1.1/DTD/svg11.dtd">
<!-- Generated by graphviz version 2.43.0 (0)
 -->
<!-- Title: include/msx.h Pages: 1 -->
<svg width="610pt" height="252pt"
 viewBox="0.00 0.00 609.64 252.00" xmlns="http://www.w3.org/2000/svg" xmlns:xlink="http://www.w3.org/1999/xlink">
<g id="graph0" class="graph" transform="scale(1 1) rotate(0) translate(4 248)">
<title>include/msx.h</title>
<!-- Node1 -->
<g id="node1" class="node">
<title>Node1</title>
<g id="a_node1"><a xlink:title=" ">
<polygon fill="#bfbfbf" stroke="black" points="172.91,-224.5 172.91,-243.5 257.91,-243.5 257.91,-224.5 172.91,-224.5"/>
<text text-anchor="middle" x="215.41" y="-231.5" font-family="Helvetica,sans-Serif" font-size="10.00">include/msx.h</text>
</a>
</g>
</g>
<!-- Node2 -->
<g id="node2" class="node">
<title>Node2</title>
<g id="a_node2"><a xlink:href="io_8h.html" target="_top" xlink:title=" ">
<polygon fill="none" stroke="black" points="79.91,-0.5 79.91,-19.5 114.91,-19.5 114.91,-0.5 79.91,-0.5"/>
<text text-anchor="middle" x="97.41" y="-7.5" font-family="Helvetica,sans-Serif" font-size="10.00">io.h</text>
</a>
</g>
</g>
<!-- Node1&#45;&gt;Node2 -->
<g id="edge1" class="edge">
<title>Node1&#45;&gt;Node2</title>
<path fill="none" stroke="midnightblue" d="M172.71,-229.47C120.18,-224.14 35.6,-212 16.41,-188 -21.21,-140.92 14.26,-106.32 47.41,-56 55.07,-44.38 66.42,-33.84 76.38,-25.88"/>
<polygon fill="midnightblue" stroke="midnightblue" points="78.8,-28.43 84.64,-19.59 74.56,-22.86 78.8,-28.43"/>
</g>
<!-- Node3 -->
<g id="node3" class="node">
<title>Node3</title>
<g id="a_node3"><a xlink:href="bios_8h.html" target="_top" xlink:title=" ">
<polygon fill="none" stroke="black" points="540.41,-56.5 540.41,-75.5 586.41,-75.5 586.41,-56.5 540.41,-56.5"/>
<text text-anchor="middle" x="563.41" y="-63.5" font-family="Helvetica,sans-Serif" font-size="10.00">bios.h</text>
</a>
</g>
</g>
<!-- Node1&#45;&gt;Node3 -->
<g id="edge2" class="edge">
<title>Node1&#45;&gt;Node3</title>
<path fill="none" stroke="midnightblue" d="M257.96,-230.98C324.53,-225.56 453.41,-205.57 528.41,-132 541.83,-118.84 551.36,-99.43 557.05,-85.25"/>
<polygon fill="midnightblue" stroke="midnightblue" points="560.43,-86.21 560.66,-75.61 553.88,-83.75 560.43,-86.21"/>
</g>
<!-- Node5 -->
<g id="node5" class="node">
<title>Node5</title>
<g id="a_node5"><a xlink:href="workarea_8h.html" target="_top" xlink:title=" ">
<polygon fill="none" stroke="black" points="376.91,-56.5 376.91,-75.5 447.91,-75.5 447.91,-56.5 376.91,-56.5"/>
<text text-anchor="middle" x="412.41" y="-63.5" font-family="Helvetica,sans-Serif" font-size="10.00">workarea.h</text>
</a>
</g>
</g>
<!-- Node1&#45;&gt;Node5 -->
<g id="edge4" class="edge">
<title>Node1&#45;&gt;Node5</title>
<path fill="none" stroke="midnightblue" d="M229.46,-224.48C243.34,-215.85 264.96,-201.84 282.41,-188 326.26,-153.23 373.27,-106.95 396.93,-82.95"/>
<polygon fill="midnightblue" stroke="midnightblue" points="399.52,-85.31 404.01,-75.71 394.52,-80.41 399.52,-85.31"/>
</g>
<!-- Node6 -->
<g id="node6" class="node">
<title>Node6</title>
<g id="a_node6"><a xlink:href="vdp_8h.html" target="_top" xlink:title=" ">
<polygon fill="none" stroke="black" points="261.41,-112.5 261.41,-131.5 305.41,-131.5 305.41,-112.5 261.41,-112.5"/>
<text text-anchor="middle" x="283.41" y="-119.5" font-family="Helvetica,sans-Serif" font-size="10.00">vdp.h</text>
</a>
</g>
</g>
<!-- Node1&#45;&gt;Node6 -->
<g id="edge6" class="edge">
<title>Node1&#45;&gt;Node6</title>
<path fill="none" stroke="midnightblue" d="M227.76,-224.37C238.62,-216.18 254.1,-202.92 263.41,-188 272.3,-173.76 277.49,-155.29 280.34,-141.67"/>
<polygon fill="midnightblue" stroke="midnightblue" points="283.83,-142.06 282.22,-131.58 276.95,-140.78 283.83,-142.06"/>
</g>
<!-- Node9 -->
<g id="node9" class="node">
<title>Node9</title>
<g id="a_node9"><a xlink:href="vmem_8h.html" target="_top" xlink:title=" ">
<polygon fill="none" stroke="black" points="68.91,-56.5 68.91,-75.5 125.91,-75.5 125.91,-56.5 68.91,-56.5"/>
<text text-anchor="middle" x="97.41" y="-63.5" font-family="Helvetica,sans-Serif" font-size="10.00">vmem.h</text>
</a>
</g>
</g>
<!-- Node1&#45;&gt;Node9 -->
<g id="edge16" class="edge">
<title>Node1&#45;&gt;Node9</title>
<path fill="none" stroke="midnightblue" d="M172.66,-228.78C123.13,-222.9 46.03,-210.36 28.41,-188 0.9,-153.08 48.49,-105.91 77.5,-82.09"/>
<polygon fill="midnightblue" stroke="midnightblue" points="79.82,-84.72 85.46,-75.76 75.46,-79.25 79.82,-84.72"/>
</g>
<!-- Node10 -->
<g id="node10" class="node">
<title>Node10</title>
<g id="a_node10"><a xlink:href="sprite_8h.html" target="_top" xlink:title=" ">
<polygon fill="none" stroke="black" points="106.91,-112.5 106.91,-131.5 159.91,-131.5 159.91,-112.5 106.91,-112.5"/>
<text text-anchor="middle" x="133.41" y="-119.5" font-family="Helvetica,sans-Serif" font-size="10.00">sprite.h</text>
</a>
</g>
</g>
<!-- Node1&#45;&gt;Node10 -->
<g id="edge17" class="edge">
<title>Node1&#45;&gt;Node10</title>
<path fill="none" stroke="midnightblue" d="M203.81,-224.34C193.11,-215.93 177.3,-202.36 166.41,-188 155.43,-173.52 146.39,-154.83 140.56,-141.21"/>
<polygon fill="midnightblue" stroke="midnightblue" points="143.63,-139.48 136.6,-131.55 137.16,-142.13 143.63,-139.48"/>
</g>
<!-- Node11 -->
<g id="node11" class="node">
<title>Node11</title>
<g id="a_node11"><a xlink:href="sprite__color_8h.html" target="_top" xlink:title=" ">
<polygon fill="none" stroke="black" points="37.41,-168.5 37.41,-187.5 119.41,-187.5 119.41,-168.5 37.41,-168.5"/>
<text text-anchor="middle" x="78.41" y="-175.5" font-family="Helvetica,sans-Serif" font-size="10.00">sprite_color.h</text>
</a>
</g>
</g>
<!-- Node1&#45;&gt;Node11 -->
<g id="edge20" class="edge">
<title>Node1&#45;&gt;Node11</title>
<path fill="none" stroke="midnightblue" d="M193.71,-224.44C171.06,-215.52 135.34,-201.44 109.66,-191.32"/>
<polygon fill="midnightblue" stroke="midnightblue" points="110.61,-187.93 100.02,-187.52 108.04,-194.44 110.61,-187.93"/>
</g>
<!-- Node12 -->
<g id="node12" class="node">
<title>Node12</title>
<g id="a_node12"><a xlink:href="metasprite_8h.html" target="_top" xlink:title=" ">
<polygon fill="none" stroke="black" points="175.91,-168.5 175.91,-187.5 254.91,-187.5 254.91,-168.5 175.91,-168.5"/>
<text text-anchor="middle" x="215.41" y="-175.5" font-family="Helvetica,sans-Serif" font-size="10.00">metasprite.h</text>
</a>
</g>
</g>
<!-- Node1&#45;&gt;Node12 -->
<g id="edge24" class="edge">
<title>Node1&#45;&gt;Node12</title>
<path fill="none" stroke="midnightblue" d="M215.41,-224.08C215.41,-217.01 215.41,-206.86 215.41,-197.99"/>
<polygon fill="midnightblue" stroke="midnightblue" points="218.91,-197.75 215.41,-187.75 211.91,-197.75 218.91,-197.75"/>
</g>
<!-- Node13 -->
<g id="node13" class="node">
<title>Node13</title>
<g id="a_node13"><a xlink:href="input_8h.html" target="_top" xlink:title=" ">
<polygon fill="none" stroke="black" points="469.41,-112.5 469.41,-131.5 519.41,-131.5 519.41,-112.5 469.41,-112.5"/>
<text text-anchor="middle" x="494.41" y="-119.5" font-family="Helvetica,sans-Serif" font-size="10.00">input.h</text>
</a>
</g>
</g>
<!-- Node1&#45;&gt;Node13 -->
<g id="edge29" class="edge">
<title>Node1&#45;&gt;Node13</title>
<path fill="none" stroke="midnightblue" d="M258.25,-225.39C293.75,-218.25 345.07,-205.95 387.41,-188 419.66,-174.33 453.71,-152.11 474.51,-137.53"/>
<polygon fill="midnightblue" stroke="midnightblue" points="476.71,-140.26 482.83,-131.6 472.65,-134.55 476.71,-140.26"/>
</g>
<!-- Node4 -->
<g id="node4" class="node">
<title>Node4</title>
<g id="a_node4"><a xlink:title=" ">
<polygon fill="none" stroke="#bfbfbf" points="203.91,-0.5 203.91,-19.5 256.91,-19.5 256.91,-0.5 203.91,-0.5"/>
<text text-anchor="middle" x="230.41" y="-7.5" font-family="Helvetica,sans-Serif" font-size="10.00">stdint.h</text>
</a>
</g>
</g>
<!-- Node3&#45;&gt;Node4 -->
<g id="edge3" class="edge">
<title>Node3&#45;&gt;Node4</title>
<path fill="none" stroke="midnightblue" d="M540.08,-58.07C537.17,-57.32 534.23,-56.61 531.41,-56 437.06,-35.76 324.14,-21.5 267.16,-14.98"/>
<polygon fill="midnightblue" stroke="midnightblue" points="267.52,-11.5 257.19,-13.86 266.73,-18.46 267.52,-11.5"/>
</g>
<!-- Node5&#45;&gt;Node4 -->
<g id="edge5" class="edge">
<title>Node5&#45;&gt;Node4</title>
<path fill="none" stroke="midnightblue" d="M383.57,-56.44C351.92,-47.05 301.04,-31.95 266.7,-21.77"/>
<polygon fill="midnightblue" stroke="midnightblue" points="267.63,-18.39 257.04,-18.9 265.64,-25.1 267.63,-18.39"/>
</g>
<!-- Node6&#45;&gt;Node2 -->
<g id="edge10" class="edge">
<title>Node6&#45;&gt;Node2</title>
<path fill="none" stroke="midnightblue" d="M268.82,-112.37C236.76,-93.41 159.98,-48 120.99,-24.94"/>
<polygon fill="midnightblue" stroke="midnightblue" points="122.33,-21.67 111.94,-19.59 118.77,-27.69 122.33,-21.67"/>
</g>
<!-- Node6&#45;&gt;Node3 -->
<g id="edge14" class="edge">
<title>Node6&#45;&gt;Node3</title>
<path fill="none" stroke="midnightblue" d="M305.45,-117.72C347.35,-111.33 441.56,-96.24 530.44,-76.04"/>
<polygon fill="midnightblue" stroke="midnightblue" points="531.45,-79.4 540.41,-73.75 529.88,-72.58 531.45,-79.4"/>
</g>
<!-- Node6&#45;&gt;Node4 -->
<g id="edge9" class="edge">
<title>Node6&#45;&gt;Node4</title>
<path fill="none" stroke="midnightblue" d="M279.25,-112.37C270.59,-94.38 250.43,-52.55 238.91,-28.63"/>
<polygon fill="midnightblue" stroke="midnightblue" points="242.05,-27.08 234.55,-19.59 235.74,-30.12 242.05,-27.08"/>
</g>
<!-- Node6&#45;&gt;Node5 -->
<g id="edge15" class="edge">
<title>Node6&#45;&gt;Node5</title>
<path fill="none" stroke="midnightblue" d="M303.85,-112.44C325.08,-103.56 358.51,-89.56 382.67,-79.45"/>
<polygon fill="midnightblue" stroke="midnightblue" points="384.2,-82.61 392.07,-75.52 381.49,-76.15 384.2,-82.61"/>
</g>
<!-- Node7 -->
<g id="node7" class="node">
<title>Node7</title>
<g id="a_node7"><a xlink:title=" ">
<polygon fill="none" stroke="#bfbfbf" points="466.41,-56.5 466.41,-75.5 522.41,-75.5 522.41,-56.5 466.41,-56.5"/>
<text text-anchor="middle" x="494.41" y="-63.5" font-family="Helvetica,sans-Serif" font-size="10.00">assert.h</text>
</a>
</g>
</g>
<!-- Node6&#45;&gt;Node7 -->
<g id="edge7" class="edge">
<title>Node6&#45;&gt;Node7</title>
<path fill="none" stroke="midnightblue" d="M305.6,-115.32C341.42,-106.15 412.45,-87.98 456.45,-76.72"/>
<polygon fill="midnightblue" stroke="midnightblue" points="457.39,-80.09 466.21,-74.22 455.65,-73.31 457.39,-80.09"/>
</g>
<!-- Node8 -->
<g id="node8" class="node">
<title>Node8</title>
<g id="a_node8"><a xlink:title=" ">
<polygon fill="none" stroke="#bfbfbf" points="296.41,-56.5 296.41,-75.5 358.41,-75.5 358.41,-56.5 296.41,-56.5"/>
<text text-anchor="middle" x="327.41" y="-63.5" font-family="Helvetica,sans-Serif" font-size="10.00">stdbool.h</text>
</a>
</g>
</g>
<!-- Node6&#45;&gt;Node8 -->
<g id="edge8" class="edge">
<title>Node6&#45;&gt;Node8</title>
<path fill="none" stroke="midnightblue" d="M290.68,-112.08C296.96,-104.38 306.2,-93.03 313.84,-83.65"/>
<polygon fill="midnightblue" stroke="midnightblue" points="316.68,-85.71 320.28,-75.75 311.25,-81.29 316.68,-85.71"/>
</g>
<!-- Node6&#45;&gt;Node9 -->
<g id="edge11" class="edge">
<title>Node6&#45;&gt;Node9</title>
<path fill="none" stroke="midnightblue" d="M261.35,-114.59C230.43,-105.62 173.76,-89.17 135.83,-78.15"/>
<polygon fill="midnightblue" stroke="midnightblue" points="136.73,-74.77 126.15,-75.34 134.78,-81.49 136.73,-74.77"/>
</g>
<!-- Node9&#45;&gt;Node2 -->
<g id="edge13" class="edge">
<title>Node9&#45;&gt;Node2</title>
<path fill="none" stroke="midnightblue" d="M97.41,-56.08C97.41,-49.01 97.41,-38.86 97.41,-29.99"/>
<polygon fill="midnightblue" stroke="midnightblue" points="100.91,-29.75 97.41,-19.75 93.91,-29.75 100.91,-29.75"/>
</g>
<!-- Node9&#45;&gt;Node4 -->
<g id="edge12" class="edge">
<title>Node9&#45;&gt;Node4</title>
<path fill="none" stroke="midnightblue" d="M118.49,-56.44C140.47,-47.52 175.15,-33.44 200.08,-23.32"/>
<polygon fill="midnightblue" stroke="midnightblue" points="201.49,-26.52 209.44,-19.52 198.86,-20.04 201.49,-26.52"/>
</g>
<!-- Node10&#45;&gt;Node4 -->
<g id="edge18" class="edge">
<title>Node10&#45;&gt;Node4</title>
<path fill="none" stroke="midnightblue" d="M138.59,-112.08C146.37,-99.05 161.91,-74.39 178.41,-56 188.26,-45.03 200.7,-34.18 210.94,-25.88"/>
<polygon fill="midnightblue" stroke="midnightblue" points="213.26,-28.51 218.93,-19.56 208.91,-23.02 213.26,-28.51"/>
</g>
<!-- Node10&#45;&gt;Node9 -->
<g id="edge19" class="edge">
<title>Node10&#45;&gt;Node9</title>
<path fill="none" stroke="midnightblue" d="M127.47,-112.08C122.44,-104.53 115.08,-93.49 108.9,-84.23"/>
<polygon fill="midnightblue" stroke="midnightblue" points="111.71,-82.13 103.25,-75.75 105.88,-86.01 111.71,-82.13"/>
</g>
<!-- Node11&#45;&gt;Node4 -->
<g id="edge21" class="edge">
<title>Node11&#45;&gt;Node4</title>
<path fill="none" stroke="midnightblue" d="M73.1,-168.3C60.72,-146.79 32.93,-90.36 59.41,-56 75.67,-34.91 148.43,-21.74 193.64,-15.44"/>
<polygon fill="midnightblue" stroke="midnightblue" points="194.22,-18.89 203.66,-14.09 193.28,-11.95 194.22,-18.89"/>
</g>
<!-- Node11&#45;&gt;Node9 -->
<g id="edge23" class="edge">
<title>Node11&#45;&gt;Node9</title>
<path fill="none" stroke="midnightblue" d="M79.9,-168.37C82.97,-150.62 90.04,-109.67 94.2,-85.6"/>
<polygon fill="midnightblue" stroke="midnightblue" points="97.68,-86.04 95.93,-75.59 90.78,-84.85 97.68,-86.04"/>
</g>
<!-- Node11&#45;&gt;Node10 -->
<g id="edge22" class="edge">
<title>Node11&#45;&gt;Node10</title>
<path fill="none" stroke="midnightblue" d="M87.5,-168.08C95.58,-160.14 107.61,-148.34 117.32,-138.8"/>
<polygon fill="midnightblue" stroke="midnightblue" points="119.82,-141.25 124.5,-131.75 114.91,-136.26 119.82,-141.25"/>
</g>
<!-- Node12&#45;&gt;Node4 -->
<g id="edge25" class="edge">
<title>Node12&#45;&gt;Node4</title>
<path fill="none" stroke="midnightblue" d="M216.22,-168.08C218.58,-141.95 225.51,-65.21 228.73,-29.58"/>
<polygon fill="midnightblue" stroke="midnightblue" points="232.22,-29.84 229.64,-19.57 225.25,-29.21 232.22,-29.84"/>
</g>
<!-- Node12&#45;&gt;Node6 -->
<g id="edge26" class="edge">
<title>Node12&#45;&gt;Node6</title>
<path fill="none" stroke="midnightblue" d="M226.34,-168.32C236.59,-160.18 252.13,-147.84 264.41,-138.09"/>
<polygon fill="midnightblue" stroke="midnightblue" points="266.63,-140.79 272.29,-131.83 262.28,-135.31 266.63,-140.79"/>
</g>
<!-- Node12&#45;&gt;Node9 -->
<g id="edge27" class="edge">
<title>Node12&#45;&gt;Node9</title>
<path fill="none" stroke="midnightblue" d="M210.53,-168.2C202.84,-154.89 186.87,-129.37 168.41,-112 155.07,-99.45 137.75,-88.39 123.55,-80.37"/>
<polygon fill="midnightblue" stroke="midnightblue" points="125.2,-77.29 114.75,-75.56 121.84,-83.43 125.2,-77.29"/>
</g>
<!-- Node12&#45;&gt;Node10 -->
<g id="edge28" class="edge">
<title>Node12&#45;&gt;Node10</title>
<path fill="none" stroke="midnightblue" d="M202.24,-168.32C189.57,-159.98 170.18,-147.21 155.21,-137.35"/>
<polygon fill="midnightblue" stroke="midnightblue" points="156.83,-134.23 146.56,-131.65 152.98,-140.08 156.83,-134.23"/>
</g>
<!-- Node13&#45;&gt;Node4 -->
<g id="edge31" class="edge">
<title>Node13&#45;&gt;Node4</title>
<path fill="none" stroke="midnightblue" d="M519.61,-115.37C557.19,-105.86 620.9,-84.82 595.41,-56 573.87,-31.64 355.48,-17.55 267.17,-12.82"/>
<polygon fill="midnightblue" stroke="midnightblue" points="267.24,-9.31 257.07,-12.28 266.87,-16.31 267.24,-9.31"/>
</g>
<!-- Node13&#45;&gt;Node7 -->
<g id="edge30" class="edge">
<title>Node13&#45;&gt;Node7</title>
<path fill="none" stroke="midnightblue" d="M494.41,-112.08C494.41,-105.01 494.41,-94.86 494.41,-85.99"/>
<polygon fill="midnightblue" stroke="midnightblue" points="497.91,-85.75 494.41,-75.75 490.91,-85.75 497.91,-85.75"/>
</g>
</g>
</svg>
