<?xml version="1.0" encoding="UTF-8" standalone="no"?>
<!DOCTYPE svg PUBLIC "-//W3C//DTD SVG 1.1//EN"
 "http://www.w3.org/Graphics/SVG/1.1/DTD/svg11.dtd">
<!-- Generated by graphviz version 3.0.0 (20221109.1736)
 -->
<!-- Title: include/msx.h Pages: 1 -->
<svg width="884pt" height="308pt"
 viewBox="0.00 0.00 883.59 308.00" xmlns="http://www.w3.org/2000/svg" xmlns:xlink="http://www.w3.org/1999/xlink">
<g id="graph0" class="graph" transform="scale(1 1) rotate(0) translate(4 304)">
<title>include/msx.h</title>
<!-- Node1 -->
<g id="node1" class="node">
<title>Node1</title>
<g id="a_node1"><a xlink:title="Copyright (c) 2021 Daishi Mori (mori0091)">
<polygon fill="#bfbfbf" stroke="black" points="340.09,-280.5 340.09,-299.5 416.09,-299.5 416.09,-280.5 340.09,-280.5"/>
<text text-anchor="middle" x="378.09" y="-287.5" font-family="Helvetica,sans-Serif" font-size="10.00">include/msx.h</text>
</a>
</g>
</g>
<!-- Node2 -->
<g id="node2" class="node">
<title>Node2</title>
<g id="a_node2"><a xlink:href="config_8h.html" target="_top" xlink:title="Copyright (c) 2022 Daishi Mori (mori0091)">
<polygon fill="none" stroke="black" points="85.09,-0.5 85.09,-19.5 135.09,-19.5 135.09,-0.5 85.09,-0.5"/>
<text text-anchor="middle" x="110.09" y="-7.5" font-family="Helvetica,sans-Serif" font-size="10.00">config.h</text>
</a>
</g>
</g>
<!-- Node1&#45;&gt;Node2 -->
<g id="edge1" class="edge">
<title>Node1&#45;&gt;Node2</title>
<path fill="none" stroke="midnightblue" d="M339.76,-286.05C243.66,-277.59 0.09,-249.23 0.09,-179 0.09,-179 0.09,-179 0.09,-121 0.09,-90.9 -0.26,-79.06 19.09,-56 33.55,-38.75 56.24,-27.51 75.34,-20.58"/>
<polygon fill="midnightblue" stroke="midnightblue" points="76.58,-23.85 84.94,-17.34 74.35,-17.22 76.58,-23.85"/>
</g>
<!-- Node3 -->
<g id="node3" class="node">
<title>Node3</title>
<g id="a_node3"><a xlink:href="interrupt_8h.html" target="_top" xlink:title="Copyright (c) 2021 Daishi Mori (mori0091)">
<polygon fill="none" stroke="black" points="640.59,-168.5 640.59,-187.5 699.59,-187.5 699.59,-168.5 640.59,-168.5"/>
<text text-anchor="middle" x="670.09" y="-175.5" font-family="Helvetica,sans-Serif" font-size="10.00">interrupt.h</text>
</a>
</g>
</g>
<!-- Node1&#45;&gt;Node3 -->
<g id="edge2" class="edge">
<title>Node1&#45;&gt;Node3</title>
<path fill="none" stroke="midnightblue" d="M416.15,-287.31C481.83,-283.64 612.72,-272.84 647.09,-244 660.68,-232.59 666.24,-212.61 668.51,-197.8"/>
<polygon fill="midnightblue" stroke="midnightblue" points="672.01,-198.05 669.69,-187.71 665.06,-197.24 672.01,-198.05"/>
</g>
<!-- Node6 -->
<g id="node6" class="node">
<title>Node6</title>
<g id="a_node6"><a xlink:href="io_8h.html" target="_top" xlink:title="Copyright (c) 2021 Daishi Mori (mori0091)">
<polygon fill="none" stroke="black" points="28.09,-56.5 28.09,-75.5 60.09,-75.5 60.09,-56.5 28.09,-56.5"/>
<text text-anchor="middle" x="44.09" y="-63.5" font-family="Helvetica,sans-Serif" font-size="10.00">io.h</text>
</a>
</g>
</g>
<!-- Node1&#45;&gt;Node6 -->
<g id="edge5" class="edge">
<title>Node1&#45;&gt;Node6</title>
<path fill="none" stroke="midnightblue" d="M339.9,-281.03C310.78,-273.95 270.33,-261.92 238.09,-244 159.1,-200.1 86.13,-118.08 57.21,-83.28"/>
<polygon fill="midnightblue" stroke="midnightblue" points="59.88,-81.01 50.83,-75.5 54.46,-85.45 59.88,-81.01"/>
</g>
<!-- Node7 -->
<g id="node7" class="node">
<title>Node7</title>
<g id="a_node7"><a xlink:href="bios_8h.html" target="_top" xlink:title="C language I/F for MSX BIOS routines.">
<polygon fill="none" stroke="black" points="250.09,-112.5 250.09,-131.5 292.09,-131.5 292.09,-112.5 250.09,-112.5"/>
<text text-anchor="middle" x="271.09" y="-119.5" font-family="Helvetica,sans-Serif" font-size="10.00">bios.h</text>
</a>
</g>
</g>
<!-- Node1&#45;&gt;Node7 -->
<g id="edge7" class="edge">
<title>Node1&#45;&gt;Node7</title>
<path fill="none" stroke="midnightblue" d="M364.44,-280.49C341.51,-265.27 296.09,-230.92 279.09,-188 273.26,-173.28 271.4,-155.35 270.92,-142.05"/>
<polygon fill="midnightblue" stroke="midnightblue" points="274.42,-141.71 270.79,-131.75 267.42,-141.8 274.42,-141.71"/>
</g>
<!-- Node10 -->
<g id="node10" class="node">
<title>Node10</title>
<g id="a_node10"><a xlink:href="workarea_8h.html" target="_top" xlink:title="Copyright (c) 2021 Daishi Mori (mori0091)">
<polygon fill="none" stroke="black" points="78.09,-56.5 78.09,-75.5 142.09,-75.5 142.09,-56.5 78.09,-56.5"/>
<text text-anchor="middle" x="110.09" y="-63.5" font-family="Helvetica,sans-Serif" font-size="10.00">workarea.h</text>
</a>
</g>
</g>
<!-- Node1&#45;&gt;Node10 -->
<g id="edge15" class="edge">
<title>Node1&#45;&gt;Node10</title>
<path fill="none" stroke="midnightblue" d="M350.95,-280.38C328.57,-272.63 296.49,-260.01 271.09,-244 207.7,-204.05 191.56,-190.77 145.09,-132 133.56,-117.42 123.86,-98.5 117.61,-84.83"/>
<polygon fill="midnightblue" stroke="midnightblue" points="120.77,-83.31 113.54,-75.57 114.36,-86.13 120.77,-83.31"/>
</g>
<!-- Node11 -->
<g id="node11" class="node">
<title>Node11</title>
<g id="a_node11"><a xlink:href="vdp_8h.html" target="_top" xlink:title="Data types and functions for VDP (Video Display Proccessor) access.">
<polygon fill="none" stroke="black" points="288.09,-168.5 288.09,-187.5 328.09,-187.5 328.09,-168.5 288.09,-168.5"/>
<text text-anchor="middle" x="308.09" y="-175.5" font-family="Helvetica,sans-Serif" font-size="10.00">vdp.h</text>
</a>
</g>
</g>
<!-- Node1&#45;&gt;Node11 -->
<g id="edge18" class="edge">
<title>Node1&#45;&gt;Node11</title>
<path fill="none" stroke="midnightblue" d="M367.15,-280.38C357.13,-272 342.48,-258.45 333.09,-244 323.62,-229.44 316.91,-210.76 312.84,-197.17"/>
<polygon fill="midnightblue" stroke="midnightblue" points="316.21,-196.21 310.14,-187.53 309.47,-198.1 316.21,-196.21"/>
</g>
<!-- Node13 -->
<g id="node13" class="node">
<title>Node13</title>
<g id="a_node13"><a xlink:href="vmem_8h.html" target="_top" xlink:title="Data types and functions for VRAM access.">
<polygon fill="none" stroke="black" points="418.59,-112.5 418.59,-131.5 469.59,-131.5 469.59,-112.5 418.59,-112.5"/>
<text text-anchor="middle" x="444.09" y="-119.5" font-family="Helvetica,sans-Serif" font-size="10.00">vmem.h</text>
</a>
</g>
</g>
<!-- Node1&#45;&gt;Node13 -->
<g id="edge28" class="edge">
<title>Node1&#45;&gt;Node13</title>
<path fill="none" stroke="midnightblue" d="M373.78,-280.38C368.06,-267.74 359.42,-243.55 366.09,-224 377.98,-189.14 407.32,-156.96 426.43,-138.68"/>
<polygon fill="midnightblue" stroke="midnightblue" points="428.97,-141.1 433.92,-131.73 424.21,-135.97 428.97,-141.1"/>
</g>
<!-- Node14 -->
<g id="node14" class="node">
<title>Node14</title>
<g id="a_node14"><a xlink:href="sprite_8h.html" target="_top" xlink:title="Copyright (c) 2021 Daishi Mori (mori0091)">
<polygon fill="none" stroke="black" points="460.09,-168.5 460.09,-187.5 508.09,-187.5 508.09,-168.5 460.09,-168.5"/>
<text text-anchor="middle" x="484.09" y="-175.5" font-family="Helvetica,sans-Serif" font-size="10.00">sprite.h</text>
</a>
</g>
</g>
<!-- Node1&#45;&gt;Node14 -->
<g id="edge29" class="edge">
<title>Node1&#45;&gt;Node14</title>
<path fill="none" stroke="midnightblue" d="M399.81,-280.42C416.47,-272.92 439.08,-260.62 454.09,-244 466.18,-230.61 474.2,-211.5 478.89,-197.46"/>
<polygon fill="midnightblue" stroke="midnightblue" points="482.35,-198.09 481.94,-187.5 475.66,-196.04 482.35,-198.09"/>
</g>
<!-- Node15 -->
<g id="node15" class="node">
<title>Node15</title>
<g id="a_node15"><a xlink:href="sprite__color_8h.html" target="_top" xlink:title="Copyright (c) 2021 Daishi Mori (mori0091)">
<polygon fill="none" stroke="black" points="501.09,-224.5 501.09,-243.5 575.09,-243.5 575.09,-224.5 501.09,-224.5"/>
<text text-anchor="middle" x="538.09" y="-231.5" font-family="Helvetica,sans-Serif" font-size="10.00">sprite_color.h</text>
</a>
</g>
</g>
<!-- Node1&#45;&gt;Node15 -->
<g id="edge32" class="edge">
<title>Node1&#45;&gt;Node15</title>
<path fill="none" stroke="midnightblue" d="M403.44,-280.44C430.36,-271.36 473.08,-256.94 503.17,-246.78"/>
<polygon fill="midnightblue" stroke="midnightblue" points="504.5,-250.03 512.85,-243.52 502.26,-243.4 504.5,-250.03"/>
</g>
<!-- Node16 -->
<g id="node16" class="node">
<title>Node16</title>
<g id="a_node16"><a xlink:href="metasprite_8h.html" target="_top" xlink:title="Copyright (c) 2021 Daishi Mori (mori0091)">
<polygon fill="none" stroke="black" points="375.09,-224.5 375.09,-243.5 445.09,-243.5 445.09,-224.5 375.09,-224.5"/>
<text text-anchor="middle" x="410.09" y="-231.5" font-family="Helvetica,sans-Serif" font-size="10.00">metasprite.h</text>
</a>
</g>
</g>
<!-- Node1&#45;&gt;Node16 -->
<g id="edge36" class="edge">
<title>Node1&#45;&gt;Node16</title>
<path fill="none" stroke="midnightblue" d="M383.37,-280.08C387.8,-272.61 394.25,-261.72 399.7,-252.52"/>
<polygon fill="midnightblue" stroke="midnightblue" points="402.81,-254.14 404.9,-243.75 396.79,-250.57 402.81,-254.14"/>
</g>
<!-- Node17 -->
<g id="node17" class="node">
<title>Node17</title>
<g id="a_node17"><a xlink:href="input_8h.html" target="_top" xlink:title="Copyright (c) 2021 Daishi Mori (mori0091)">
<polygon fill="none" stroke="black" points="593.59,-224.5 593.59,-243.5 638.59,-243.5 638.59,-224.5 593.59,-224.5"/>
<text text-anchor="middle" x="616.09" y="-231.5" font-family="Helvetica,sans-Serif" font-size="10.00">input.h</text>
</a>
</g>
</g>
<!-- Node1&#45;&gt;Node17 -->
<g id="edge41" class="edge">
<title>Node1&#45;&gt;Node17</title>
<path fill="none" stroke="midnightblue" d="M416.21,-281.38C455.65,-273.33 519.24,-259.93 583.51,-244.03"/>
<polygon fill="midnightblue" stroke="midnightblue" points="584.55,-247.37 593.4,-241.56 582.85,-240.58 584.55,-247.37"/>
</g>
<!-- Node18 -->
<g id="node18" class="node">
<title>Node18</title>
<g id="a_node18"><a xlink:href="psg_8h.html" target="_top" xlink:title="Copyright (c) 2021 Daishi Mori (mori0091)">
<polygon fill="none" stroke="black" points="154.09,-112.5 154.09,-131.5 194.09,-131.5 194.09,-112.5 154.09,-112.5"/>
<text text-anchor="middle" x="174.09" y="-119.5" font-family="Helvetica,sans-Serif" font-size="10.00">psg.h</text>
</a>
</g>
</g>
<!-- Node1&#45;&gt;Node18 -->
<g id="edge43" class="edge">
<title>Node1&#45;&gt;Node18</title>
<path fill="none" stroke="midnightblue" d="M359.79,-280.43C343.01,-272.18 317.86,-258.81 298.09,-244 254.37,-211.26 210.28,-164.09 188.34,-139.43"/>
<polygon fill="midnightblue" stroke="midnightblue" points="190.78,-136.9 181.55,-131.71 185.53,-141.52 190.78,-136.9"/>
</g>
<!-- Node19 -->
<g id="node19" class="node">
<title>Node19</title>
<g id="a_node19"><a xlink:href="sound_8h.html" target="_top" xlink:title="Copyright (c) 2021 Daishi Mori (mori0091)">
<polygon fill="none" stroke="black" points="802.09,-168.5 802.09,-187.5 852.09,-187.5 852.09,-168.5 802.09,-168.5"/>
<text text-anchor="middle" x="827.09" y="-175.5" font-family="Helvetica,sans-Serif" font-size="10.00">sound.h</text>
</a>
</g>
</g>
<!-- Node1&#45;&gt;Node19 -->
<g id="edge46" class="edge">
<title>Node1&#45;&gt;Node19</title>
<path fill="none" stroke="midnightblue" d="M416.41,-287.64C477.36,-284.59 599.57,-274.82 698.09,-244 737.77,-231.58 780.17,-207.98 805.11,-192.89"/>
<polygon fill="midnightblue" stroke="midnightblue" points="807.09,-195.79 813.78,-187.57 803.43,-189.82 807.09,-195.79"/>
</g>
<!-- Node21 -->
<g id="node21" class="node">
<title>Node21</title>
<g id="a_node21"><a xlink:href="sound__eg_8h.html" target="_top" xlink:title="Copyright (c) 2021 Daishi Mori (mori0091)">
<polygon fill="none" stroke="black" points="718.09,-168.5 718.09,-187.5 784.09,-187.5 784.09,-168.5 718.09,-168.5"/>
<text text-anchor="middle" x="751.09" y="-175.5" font-family="Helvetica,sans-Serif" font-size="10.00">sound_eg.h</text>
</a>
</g>
</g>
<!-- Node1&#45;&gt;Node21 -->
<g id="edge50" class="edge">
<title>Node1&#45;&gt;Node21</title>
<path fill="none" stroke="midnightblue" d="M416.39,-289.12C473.54,-287.99 583.48,-280.69 668.09,-244 694.68,-232.47 720.14,-210.32 735.69,-195.11"/>
<polygon fill="midnightblue" stroke="midnightblue" points="738.3,-197.45 742.87,-187.88 733.34,-192.51 738.3,-197.45"/>
</g>
<!-- Node4 -->
<g id="node4" class="node">
<title>Node4</title>
<g id="a_node4"><a xlink:title=" ">
<polygon fill="none" stroke="#bfbfbf" points="678.09,-112.5 678.09,-131.5 734.09,-131.5 734.09,-112.5 678.09,-112.5"/>
<text text-anchor="middle" x="706.09" y="-119.5" font-family="Helvetica,sans-Serif" font-size="10.00">stdbool.h</text>
</a>
</g>
</g>
<!-- Node3&#45;&gt;Node4 -->
<g id="edge3" class="edge">
<title>Node3&#45;&gt;Node4</title>
<path fill="none" stroke="midnightblue" d="M676.03,-168.08C681.06,-160.53 688.42,-149.49 694.6,-140.23"/>
<polygon fill="midnightblue" stroke="midnightblue" points="697.62,-142.01 700.25,-131.75 691.79,-138.13 697.62,-142.01"/>
</g>
<!-- Node5 -->
<g id="node5" class="node">
<title>Node5</title>
<g id="a_node5"><a xlink:title=" ">
<polygon fill="none" stroke="#bfbfbf" points="455.09,-0.5 455.09,-19.5 503.09,-19.5 503.09,-0.5 455.09,-0.5"/>
<text text-anchor="middle" x="479.09" y="-7.5" font-family="Helvetica,sans-Serif" font-size="10.00">stdint.h</text>
</a>
</g>
</g>
<!-- Node3&#45;&gt;Node5 -->
<g id="edge4" class="edge">
<title>Node3&#45;&gt;Node5</title>
<path fill="none" stroke="midnightblue" d="M669.5,-168.26C667.54,-146.16 659.31,-87.55 626.09,-56 595.35,-26.81 546.18,-16.52 513.27,-12.91"/>
<polygon fill="midnightblue" stroke="midnightblue" points="513.49,-9.42 503.2,-11.96 512.83,-16.39 513.49,-9.42"/>
</g>
<!-- Node6&#45;&gt;Node2 -->
<g id="edge6" class="edge">
<title>Node6&#45;&gt;Node2</title>
<path fill="none" stroke="midnightblue" d="M54.69,-56.32C64.54,-48.26 79.44,-36.08 91.3,-26.37"/>
<polygon fill="midnightblue" stroke="midnightblue" points="93.77,-28.88 99.29,-19.83 89.33,-23.46 93.77,-28.88"/>
</g>
<!-- Node7&#45;&gt;Node5 -->
<g id="edge8" class="edge">
<title>Node7&#45;&gt;Node5</title>
<path fill="none" stroke="midnightblue" d="M290.01,-112.43C309.13,-103.65 339.44,-89.43 365.09,-76 397.19,-59.19 433.42,-38.17 456.25,-24.67"/>
<polygon fill="midnightblue" stroke="midnightblue" points="458.06,-27.66 464.87,-19.54 454.49,-21.64 458.06,-27.66"/>
</g>
<!-- Node8 -->
<g id="node8" class="node">
<title>Node8</title>
<g id="a_node8"><a xlink:href="bios__const_8h.html" target="_top" xlink:title="Constant variables in the MSX BIOS ROM.">
<polygon fill="none" stroke="black" points="160.59,-56.5 160.59,-75.5 231.59,-75.5 231.59,-56.5 160.59,-56.5"/>
<text text-anchor="middle" x="196.09" y="-63.5" font-family="Helvetica,sans-Serif" font-size="10.00">bios_const.h</text>
</a>
</g>
</g>
<!-- Node7&#45;&gt;Node8 -->
<g id="edge9" class="edge">
<title>Node7&#45;&gt;Node8</title>
<path fill="none" stroke="midnightblue" d="M259.04,-112.32C247.62,-104.11 230.25,-91.6 216.65,-81.81"/>
<polygon fill="midnightblue" stroke="midnightblue" points="218.52,-78.84 208.35,-75.83 214.43,-84.52 218.52,-78.84"/>
</g>
<!-- Node9 -->
<g id="node9" class="node">
<title>Node9</title>
<g id="a_node9"><a xlink:href="bios__entry_8h.html" target="_top" xlink:title="Assembler entry points for MSX BIOS functions.">
<polygon fill="none" stroke="black" points="288.09,-56.5 288.09,-75.5 356.09,-75.5 356.09,-56.5 288.09,-56.5"/>
<text text-anchor="middle" x="322.09" y="-63.5" font-family="Helvetica,sans-Serif" font-size="10.00">bios_entry.h</text>
</a>
</g>
</g>
<!-- Node7&#45;&gt;Node9 -->
<g id="edge12" class="edge">
<title>Node7&#45;&gt;Node9</title>
<path fill="none" stroke="midnightblue" d="M279.51,-112.08C286.93,-104.22 297.94,-92.57 306.9,-83.08"/>
<polygon fill="midnightblue" stroke="midnightblue" points="309.5,-85.42 313.82,-75.75 304.41,-80.62 309.5,-85.42"/>
</g>
<!-- Node8&#45;&gt;Node2 -->
<g id="edge11" class="edge">
<title>Node8&#45;&gt;Node2</title>
<path fill="none" stroke="midnightblue" d="M182.27,-56.32C168.85,-47.9 148.26,-34.97 132.5,-25.07"/>
<polygon fill="midnightblue" stroke="midnightblue" points="134.2,-22.01 123.87,-19.65 130.48,-27.94 134.2,-22.01"/>
</g>
<!-- Node8&#45;&gt;Node5 -->
<g id="edge10" class="edge">
<title>Node8&#45;&gt;Node5</title>
<path fill="none" stroke="midnightblue" d="M231.64,-58.22C286.48,-47.75 390.98,-27.81 444.94,-17.51"/>
<polygon fill="midnightblue" stroke="midnightblue" points="445.87,-20.9 455.03,-15.59 444.56,-14.03 445.87,-20.9"/>
</g>
<!-- Node9&#45;&gt;Node2 -->
<g id="edge14" class="edge">
<title>Node9&#45;&gt;Node2</title>
<path fill="none" stroke="midnightblue" d="M288.49,-56.44C249.29,-46.46 184.78,-30.03 145.01,-19.9"/>
<polygon fill="midnightblue" stroke="midnightblue" points="145.78,-16.48 135.22,-17.4 144.05,-23.26 145.78,-16.48"/>
</g>
<!-- Node9&#45;&gt;Node5 -->
<g id="edge13" class="edge">
<title>Node9&#45;&gt;Node5</title>
<path fill="none" stroke="midnightblue" d="M346.96,-56.44C373.53,-47.31 415.79,-32.77 445.35,-22.6"/>
<polygon fill="midnightblue" stroke="midnightblue" points="446.52,-25.9 454.84,-19.34 444.25,-19.28 446.52,-25.9"/>
</g>
<!-- Node10&#45;&gt;Node2 -->
<g id="edge17" class="edge">
<title>Node10&#45;&gt;Node2</title>
<path fill="none" stroke="midnightblue" d="M110.09,-56.08C110.09,-49.01 110.09,-38.86 110.09,-29.99"/>
<polygon fill="midnightblue" stroke="midnightblue" points="113.59,-29.75 110.09,-19.75 106.59,-29.75 113.59,-29.75"/>
</g>
<!-- Node10&#45;&gt;Node5 -->
<g id="edge16" class="edge">
<title>Node10&#45;&gt;Node5</title>
<path fill="none" stroke="midnightblue" d="M142.27,-57.68C145.24,-57.08 148.22,-56.51 151.09,-56 257.58,-37.04 384.77,-21.63 444.66,-14.81"/>
<polygon fill="midnightblue" stroke="midnightblue" points="445.16,-18.27 454.7,-13.67 444.37,-11.32 445.16,-18.27"/>
</g>
<!-- Node11&#45;&gt;Node4 -->
<g id="edge20" class="edge">
<title>Node11&#45;&gt;Node4</title>
<path fill="none" stroke="midnightblue" d="M328.1,-174.29C390.91,-165.76 584.88,-139.44 667.83,-128.19"/>
<polygon fill="midnightblue" stroke="midnightblue" points="668.41,-131.64 677.84,-126.83 667.46,-124.71 668.41,-131.64"/>
</g>
<!-- Node11&#45;&gt;Node5 -->
<g id="edge21" class="edge">
<title>Node11&#45;&gt;Node5</title>
<path fill="none" stroke="midnightblue" d="M321.52,-168.44C334.51,-159.9 354.46,-146.06 370.09,-132 407.9,-97.98 446.4,-52.02 465.94,-27.7"/>
<polygon fill="midnightblue" stroke="midnightblue" points="468.76,-29.78 472.25,-19.78 463.28,-25.42 468.76,-29.78"/>
</g>
<!-- Node11&#45;&gt;Node6 -->
<g id="edge22" class="edge">
<title>Node11&#45;&gt;Node6</title>
<path fill="none" stroke="midnightblue" d="M287.85,-173.46C256.35,-167.51 194.13,-153.94 145.09,-132 114.55,-118.34 82.62,-96.27 63.04,-81.7"/>
<polygon fill="midnightblue" stroke="midnightblue" points="65.04,-78.83 54.96,-75.59 60.82,-84.42 65.04,-78.83"/>
</g>
<!-- Node11&#45;&gt;Node7 -->
<g id="edge26" class="edge">
<title>Node11&#45;&gt;Node7</title>
<path fill="none" stroke="midnightblue" d="M301.98,-168.08C296.8,-160.53 289.24,-149.49 282.89,-140.23"/>
<polygon fill="midnightblue" stroke="midnightblue" points="285.62,-138.02 277.08,-131.75 279.85,-141.98 285.62,-138.02"/>
</g>
<!-- Node11&#45;&gt;Node10 -->
<g id="edge27" class="edge">
<title>Node11&#45;&gt;Node10</title>
<path fill="none" stroke="midnightblue" d="M295.09,-168.34C275.5,-155.44 237.09,-130.69 203.09,-112 181.8,-100.3 157.02,-88.39 138.39,-79.76"/>
<polygon fill="midnightblue" stroke="midnightblue" points="139.81,-76.56 129.26,-75.57 136.88,-82.93 139.81,-76.56"/>
</g>
<!-- Node12 -->
<g id="node12" class="node">
<title>Node12</title>
<g id="a_node12"><a xlink:title=" ">
<polygon fill="none" stroke="#bfbfbf" points="310.59,-112.5 310.59,-131.5 361.59,-131.5 361.59,-112.5 310.59,-112.5"/>
<text text-anchor="middle" x="336.09" y="-119.5" font-family="Helvetica,sans-Serif" font-size="10.00">assert.h</text>
</a>
</g>
</g>
<!-- Node11&#45;&gt;Node12 -->
<g id="edge19" class="edge">
<title>Node11&#45;&gt;Node12</title>
<path fill="none" stroke="midnightblue" d="M312.71,-168.08C316.54,-160.69 322.11,-149.95 326.85,-140.81"/>
<polygon fill="midnightblue" stroke="midnightblue" points="330.05,-142.24 331.55,-131.75 323.84,-139.02 330.05,-142.24"/>
</g>
<!-- Node11&#45;&gt;Node13 -->
<g id="edge23" class="edge">
<title>Node11&#45;&gt;Node13</title>
<path fill="none" stroke="midnightblue" d="M328.15,-169.03C350.56,-160.14 387.1,-145.63 413.16,-135.28"/>
<polygon fill="midnightblue" stroke="midnightblue" points="414.59,-138.48 422.59,-131.54 412,-131.97 414.59,-138.48"/>
</g>
<!-- Node13&#45;&gt;Node5 -->
<g id="edge24" class="edge">
<title>Node13&#45;&gt;Node5</title>
<path fill="none" stroke="midnightblue" d="M446.83,-112.37C452.51,-94.54 465.63,-53.3 473.27,-29.27"/>
<polygon fill="midnightblue" stroke="midnightblue" points="476.66,-30.18 476.35,-19.59 469.98,-28.06 476.66,-30.18"/>
</g>
<!-- Node13&#45;&gt;Node6 -->
<g id="edge25" class="edge">
<title>Node13&#45;&gt;Node6</title>
<path fill="none" stroke="midnightblue" d="M418.4,-117.86C404.17,-116.13 386.15,-113.94 370.09,-112 239.59,-96.26 202.02,-106.49 70.39,-75.83"/>
<polygon fill="midnightblue" stroke="midnightblue" points="70.87,-72.34 60.33,-73.45 69.26,-79.15 70.87,-72.34"/>
</g>
<!-- Node14&#45;&gt;Node5 -->
<g id="edge30" class="edge">
<title>Node14&#45;&gt;Node5</title>
<path fill="none" stroke="midnightblue" d="M491.5,-168.41C498.36,-159.84 508.09,-145.98 512.09,-132 521.37,-99.52 522.59,-88.1 512.09,-56 508.6,-45.34 501.51,-35.12 494.8,-27.12"/>
<polygon fill="midnightblue" stroke="midnightblue" points="497.39,-24.76 488.11,-19.66 492.18,-29.44 497.39,-24.76"/>
</g>
<!-- Node14&#45;&gt;Node13 -->
<g id="edge31" class="edge">
<title>Node14&#45;&gt;Node13</title>
<path fill="none" stroke="midnightblue" d="M477.48,-168.08C471.83,-160.46 463.54,-149.26 456.63,-139.94"/>
<polygon fill="midnightblue" stroke="midnightblue" points="459.33,-137.7 450.57,-131.75 453.71,-141.87 459.33,-137.7"/>
</g>
<!-- Node15&#45;&gt;Node5 -->
<g id="edge33" class="edge">
<title>Node15&#45;&gt;Node5</title>
<path fill="none" stroke="midnightblue" d="M539.92,-224.3C545.1,-197.53 557.73,-114.6 529.09,-56 523.08,-43.7 512.09,-33.24 501.94,-25.5"/>
<polygon fill="midnightblue" stroke="midnightblue" points="503.92,-22.61 493.75,-19.66 499.86,-28.31 503.92,-22.61"/>
</g>
<!-- Node15&#45;&gt;Node13 -->
<g id="edge35" class="edge">
<title>Node15&#45;&gt;Node13</title>
<path fill="none" stroke="midnightblue" d="M537.18,-224.1C535.4,-210.67 530.41,-184.98 517.09,-168 506.23,-154.17 489.85,-143.52 475.35,-136.06"/>
<polygon fill="midnightblue" stroke="midnightblue" points="476.7,-132.83 466.18,-131.62 473.65,-139.13 476.7,-132.83"/>
</g>
<!-- Node15&#45;&gt;Node14 -->
<g id="edge34" class="edge">
<title>Node15&#45;&gt;Node14</title>
<path fill="none" stroke="midnightblue" d="M529.17,-224.08C521.31,-216.22 509.65,-204.57 500.17,-195.08"/>
<polygon fill="midnightblue" stroke="midnightblue" points="502.38,-192.35 492.84,-187.75 497.43,-197.3 502.38,-192.35"/>
</g>
<!-- Node16&#45;&gt;Node5 -->
<g id="edge37" class="edge">
<title>Node16&#45;&gt;Node5</title>
<path fill="none" stroke="midnightblue" d="M415.18,-224.44C422.73,-211.88 437.46,-187.78 451.09,-168 462.43,-151.53 471.68,-150.95 478.09,-132 489.81,-97.29 486.03,-53.73 482.42,-29.47"/>
<polygon fill="midnightblue" stroke="midnightblue" points="485.86,-28.81 480.78,-19.51 478.95,-29.95 485.86,-28.81"/>
</g>
<!-- Node16&#45;&gt;Node11 -->
<g id="edge38" class="edge">
<title>Node16&#45;&gt;Node11</title>
<path fill="none" stroke="midnightblue" d="M393.7,-224.32C377.41,-215.7 352.22,-202.36 333.37,-192.39"/>
<polygon fill="midnightblue" stroke="midnightblue" points="334.91,-189.24 324.43,-187.65 331.63,-195.43 334.91,-189.24"/>
</g>
<!-- Node16&#45;&gt;Node13 -->
<g id="edge39" class="edge">
<title>Node16&#45;&gt;Node13</title>
<path fill="none" stroke="midnightblue" d="M410.06,-224.35C410.27,-211.66 411.59,-187.41 418.09,-168 421.34,-158.28 426.82,-148.33 431.92,-140.27"/>
<polygon fill="midnightblue" stroke="midnightblue" points="434.93,-142.05 437.56,-131.79 429.11,-138.17 434.93,-142.05"/>
</g>
<!-- Node16&#45;&gt;Node14 -->
<g id="edge40" class="edge">
<title>Node16&#45;&gt;Node14</title>
<path fill="none" stroke="midnightblue" d="M421.98,-224.32C433.24,-216.11 450.37,-203.6 463.79,-193.81"/>
<polygon fill="midnightblue" stroke="midnightblue" points="465.97,-196.56 471.98,-187.83 461.84,-190.9 465.97,-196.56"/>
</g>
<!-- Node17&#45;&gt;Node5 -->
<g id="edge42" class="edge">
<title>Node17&#45;&gt;Node5</title>
<path fill="none" stroke="midnightblue" d="M614.63,-224.32C609.67,-196.9 591.2,-110.67 547.09,-56 536.4,-42.75 520.74,-32.02 507.15,-24.37"/>
<polygon fill="midnightblue" stroke="midnightblue" points="508.63,-21.19 498.16,-19.56 505.33,-27.36 508.63,-21.19"/>
</g>
<!-- Node18&#45;&gt;Node5 -->
<g id="edge44" class="edge">
<title>Node18&#45;&gt;Node5</title>
<path fill="none" stroke="midnightblue" d="M186.92,-112.3C210.5,-96.45 260.03,-63.78 279.09,-56 334.85,-33.22 404.31,-20.89 444.97,-15.15"/>
<polygon fill="midnightblue" stroke="midnightblue" points="445.47,-18.62 454.91,-13.8 444.53,-11.68 445.47,-18.62"/>
</g>
<!-- Node18&#45;&gt;Node6 -->
<g id="edge45" class="edge">
<title>Node18&#45;&gt;Node6</title>
<path fill="none" stroke="midnightblue" d="M154.06,-112.68C131.4,-103.27 94.43,-87.91 69.69,-77.64"/>
<polygon fill="midnightblue" stroke="midnightblue" points="70.81,-74.31 60.23,-73.71 68.13,-80.78 70.81,-74.31"/>
</g>
<!-- Node19&#45;&gt;Node4 -->
<g id="edge47" class="edge">
<title>Node19&#45;&gt;Node4</title>
<path fill="none" stroke="midnightblue" d="M807.91,-168.44C788.18,-159.64 757.2,-145.81 734.59,-135.72"/>
<polygon fill="midnightblue" stroke="midnightblue" points="735.73,-132.4 725.17,-131.52 732.87,-138.79 735.73,-132.4"/>
</g>
<!-- Node19&#45;&gt;Node5 -->
<g id="edge48" class="edge">
<title>Node19&#45;&gt;Node5</title>
<path fill="none" stroke="midnightblue" d="M821.43,-168.25C806.26,-145.58 762.26,-84.74 709.09,-56 645.83,-21.8 560.29,-13.38 513.39,-11.44"/>
<polygon fill="midnightblue" stroke="midnightblue" points="513.27,-7.93 503.16,-11.09 513.04,-14.93 513.27,-7.93"/>
</g>
<!-- Node20 -->
<g id="node20" class="node">
<title>Node20</title>
<g id="a_node20"><a xlink:title=" ">
<polygon fill="none" stroke="#bfbfbf" points="828.59,-112.5 828.59,-131.5 875.59,-131.5 875.59,-112.5 828.59,-112.5"/>
<text text-anchor="middle" x="852.09" y="-119.5" font-family="Helvetica,sans-Serif" font-size="10.00">stdlib.h</text>
</a>
</g>
</g>
<!-- Node19&#45;&gt;Node20 -->
<g id="edge49" class="edge">
<title>Node19&#45;&gt;Node20</title>
<path fill="none" stroke="midnightblue" d="M831.21,-168.08C834.6,-160.77 839.5,-150.18 843.7,-141.1"/>
<polygon fill="midnightblue" stroke="midnightblue" points="847.01,-142.3 848.03,-131.75 840.66,-139.36 847.01,-142.3"/>
</g>
<!-- Node21&#45;&gt;Node4 -->
<g id="edge51" class="edge">
<title>Node21&#45;&gt;Node4</title>
<path fill="none" stroke="midnightblue" d="M743.65,-168.08C737.23,-160.38 727.78,-149.03 719.96,-139.65"/>
<polygon fill="midnightblue" stroke="midnightblue" points="722.47,-137.19 713.38,-131.75 717.09,-141.67 722.47,-137.19"/>
</g>
<!-- Node21&#45;&gt;Node5 -->
<g id="edge52" class="edge">
<title>Node21&#45;&gt;Node5</title>
<path fill="none" stroke="midnightblue" d="M752.31,-168.18C753.69,-154.86 754.43,-129.31 743.09,-112 692.3,-34.54 572.89,-16.4 513.65,-12.21"/>
<polygon fill="midnightblue" stroke="midnightblue" points="513.52,-8.7 503.32,-11.58 513.09,-15.68 513.52,-8.7"/>
</g>
</g>
</svg>
