<?xml version="1.0" encoding="UTF-8" standalone="no"?>
<!DOCTYPE svg PUBLIC "-//W3C//DTD SVG 1.1//EN"
 "http://www.w3.org/Graphics/SVG/1.1/DTD/svg11.dtd">
<!-- Generated by graphviz version 12.2.0 (20241103.1931)
 -->
<!-- Title: include/NDP.h Pages: 1 -->
<svg width="232pt" height="370pt"
 viewBox="0.00 0.00 231.75 370.00" xmlns="http://www.w3.org/2000/svg" xmlns:xlink="http://www.w3.org/1999/xlink">
<g id="graph0" class="graph" transform="scale(1 1) rotate(0) translate(4 366)">
<title>include/NDP.h</title>
<!-- Node1 -->
<g id="Node000001" class="node">
<title>Node1</title>
<g id="a_Node000001"><a xlink:title="NDP &#45; NDP sound driver.">
<polygon fill="#999999" stroke="#666666" points="137.12,-362 58.88,-362 58.88,-342.75 137.12,-342.75 137.12,-362"/>
<text text-anchor="middle" x="98" y="-348.5" font-family="Helvetica,sans-Serif" font-size="10.00">include/NDP.h</text>
</a>
</g>
</g>
<!-- Node2 -->
<g id="Node000002" class="node">
<title>Node2</title>
<g id="a_Node000002"><a xlink:href="memfile_8h.html" target="_top" xlink:title="Stream interface for ROM / RAM / MegaROM.">
<polygon fill="white" stroke="#666666" points="126.62,-306.75 69.38,-306.75 69.38,-287.5 126.62,-287.5 126.62,-306.75"/>
<text text-anchor="middle" x="98" y="-293.25" font-family="Helvetica,sans-Serif" font-size="10.00">memfile.h</text>
</a>
</g>
</g>
<!-- Node1&#45;&gt;Node2 -->
<g id="edge1_Node000001_Node000002" class="edge">
<title>Node1&#45;&gt;Node2</title>
<g id="a_edge1_Node000001_Node000002"><a xlink:title=" ">
<path fill="none" stroke="#63b8ff" d="M98,-342.58C98,-336.07 98,-326.92 98,-318.62"/>
<polygon fill="#63b8ff" stroke="#63b8ff" points="101.5,-318.62 98,-308.62 94.5,-318.62 101.5,-318.62"/>
</a>
</g>
</g>
<!-- Node3 -->
<g id="Node000003" class="node">
<title>Node3</title>
<g id="a_Node000003"><a xlink:href="bmem_8h.html" target="_top" xlink:title="Data types and functions for accessing banked memory.">
<polygon fill="white" stroke="#666666" points="97.25,-251.5 46.75,-251.5 46.75,-232.25 97.25,-232.25 97.25,-251.5"/>
<text text-anchor="middle" x="72" y="-238" font-family="Helvetica,sans-Serif" font-size="10.00">bmem.h</text>
</a>
</g>
</g>
<!-- Node2&#45;&gt;Node3 -->
<g id="edge2_Node000002_Node000003" class="edge">
<title>Node2&#45;&gt;Node3</title>
<g id="a_edge2_Node000002_Node000003"><a xlink:title=" ">
<path fill="none" stroke="#63b8ff" d="M93.71,-287.33C90.38,-280.51 85.64,-270.81 81.44,-262.2"/>
<polygon fill="#63b8ff" stroke="#63b8ff" points="84.58,-260.67 77.05,-253.22 78.29,-263.74 84.58,-260.67"/>
</a>
</g>
</g>
<!-- Node4 -->
<g id="Node000004" class="node">
<title>Node4</title>
<g id="a_Node000004"><a xlink:title=" ">
<polygon fill="#e0e0e0" stroke="#999999" points="99.75,-19.25 52.25,-19.25 52.25,0 99.75,0 99.75,-19.25"/>
<text text-anchor="middle" x="76" y="-5.75" font-family="Helvetica,sans-Serif" font-size="10.00">stdint.h</text>
</a>
</g>
</g>
<!-- Node2&#45;&gt;Node4 -->
<g id="edge11_Node000002_Node000004" class="edge">
<title>Node2&#45;&gt;Node4</title>
<g id="a_edge11_Node000002_Node000004"><a xlink:title=" ">
<path fill="none" stroke="#63b8ff" d="M81.82,-287.17C53.98,-270.45 0,-231.62 0,-182 0,-182 0,-182 0,-119.12 0,-80.52 32.68,-45.89 55.18,-26.62"/>
<polygon fill="#63b8ff" stroke="#63b8ff" points="57.11,-29.57 62.62,-20.52 52.67,-24.16 57.11,-29.57"/>
</a>
</g>
</g>
<!-- Node9 -->
<g id="Node000009" class="node">
<title>Node9</title>
<g id="a_Node000009"><a xlink:title=" ">
<polygon fill="#e0e0e0" stroke="#999999" points="208.5,-251.5 153.5,-251.5 153.5,-232.25 208.5,-232.25 208.5,-251.5"/>
<text text-anchor="middle" x="181" y="-238" font-family="Helvetica,sans-Serif" font-size="10.00">stdbool.h</text>
</a>
</g>
</g>
<!-- Node2&#45;&gt;Node9 -->
<g id="edge10_Node000002_Node000009" class="edge">
<title>Node2&#45;&gt;Node9</title>
<g id="a_edge10_Node000002_Node000009"><a xlink:title=" ">
<path fill="none" stroke="#63b8ff" d="M112.08,-287.09C124.48,-279.14 142.79,-267.39 157.43,-258"/>
<polygon fill="#63b8ff" stroke="#63b8ff" points="159.05,-261.12 165.58,-252.77 155.27,-255.22 159.05,-261.12"/>
</a>
</g>
</g>
<!-- Node10 -->
<g id="Node000010" class="node">
<title>Node10</title>
<g id="a_Node000010"><a xlink:href="memfile__types_8h.html" target="_top" xlink:title=" ">
<polygon fill="white" stroke="#666666" points="223.75,-196.25 134.25,-196.25 134.25,-165.75 223.75,-165.75 223.75,-196.25"/>
<text text-anchor="start" x="142.25" y="-182.75" font-family="Helvetica,sans-Serif" font-size="10.00">./internal/memfile</text>
<text text-anchor="middle" x="179" y="-171.5" font-family="Helvetica,sans-Serif" font-size="10.00">_types.h</text>
</a>
</g>
</g>
<!-- Node2&#45;&gt;Node10 -->
<g id="edge12_Node000002_Node000010" class="edge">
<title>Node2&#45;&gt;Node10</title>
<g id="a_edge12_Node000002_Node000010"><a xlink:title=" ">
<path fill="none" stroke="#63b8ff" d="M104.36,-287.17C116.67,-269.82 144.14,-231.11 162.1,-205.81"/>
<polygon fill="#63b8ff" stroke="#63b8ff" points="164.89,-207.93 167.82,-197.75 159.18,-203.88 164.89,-207.93"/>
</a>
</g>
</g>
<!-- Node3&#45;&gt;Node4 -->
<g id="edge3_Node000003_Node000004" class="edge">
<title>Node3&#45;&gt;Node4</title>
<g id="a_edge3_Node000003_Node000004"><a xlink:title=" ">
<path fill="none" stroke="#63b8ff" d="M68,-231.87C64.31,-223.01 59.08,-208.99 57,-196.25 47.17,-136.17 62.01,-64.27 70.6,-30.28"/>
<polygon fill="#63b8ff" stroke="#63b8ff" points="73.87,-31.59 73.04,-21.03 67.1,-29.8 73.87,-31.59"/>
</a>
</g>
</g>
<!-- Node5 -->
<g id="Node000005" class="node">
<title>Node5</title>
<g id="a_Node000005"><a xlink:href="vmem_8h.html" target="_top" xlink:title="Data types and functions for VRAM access.">
<polygon fill="white" stroke="#666666" points="116.25,-190.62 65.75,-190.62 65.75,-171.38 116.25,-171.38 116.25,-190.62"/>
<text text-anchor="middle" x="91" y="-177.12" font-family="Helvetica,sans-Serif" font-size="10.00">vmem.h</text>
</a>
</g>
</g>
<!-- Node3&#45;&gt;Node5 -->
<g id="edge4_Node000003_Node000005" class="edge">
<title>Node3&#45;&gt;Node5</title>
<g id="a_edge4_Node000003_Node000005"><a xlink:title=" ">
<path fill="none" stroke="#63b8ff" d="M74.89,-231.93C77.45,-223.98 81.3,-212.06 84.59,-201.87"/>
<polygon fill="#63b8ff" stroke="#63b8ff" points="87.88,-203.06 87.62,-192.47 81.22,-200.91 87.88,-203.06"/>
</a>
</g>
</g>
<!-- Node5&#45;&gt;Node4 -->
<g id="edge5_Node000005_Node000004" class="edge">
<title>Node5&#45;&gt;Node4</title>
<g id="a_edge5_Node000005_Node000004"><a xlink:title=" ">
<path fill="none" stroke="#63b8ff" d="M90.19,-170.89C87.85,-144.46 81.02,-67.29 77.76,-30.53"/>
<polygon fill="#63b8ff" stroke="#63b8ff" points="81.28,-30.53 76.91,-20.87 74.3,-31.14 81.28,-30.53"/>
</a>
</g>
</g>
<!-- Node6 -->
<g id="Node000006" class="node">
<title>Node6</title>
<g id="a_Node000006"><a xlink:title=" ">
<polygon fill="#e0e0e0" stroke="#999999" points="204.25,-129.75 153.75,-129.75 153.75,-110.5 204.25,-110.5 204.25,-129.75"/>
<text text-anchor="middle" x="179" y="-116.25" font-family="Helvetica,sans-Serif" font-size="10.00">stddef.h</text>
</a>
</g>
</g>
<!-- Node5&#45;&gt;Node6 -->
<g id="edge6_Node000005_Node000006" class="edge">
<title>Node5&#45;&gt;Node6</title>
<g id="a_edge6_Node000005_Node000006"><a xlink:title=" ">
<path fill="none" stroke="#63b8ff" d="M104.37,-171.06C118.06,-161.89 139.62,-147.47 156.06,-136.48"/>
<polygon fill="#63b8ff" stroke="#63b8ff" points="157.89,-139.46 164.25,-130.99 153.99,-133.64 157.89,-139.46"/>
</a>
</g>
</g>
<!-- Node7 -->
<g id="Node000007" class="node">
<title>Node7</title>
<g id="a_Node000007"><a xlink:href="io_8h.html" target="_top" xlink:title="Definition of I/O ports.">
<polygon fill="white" stroke="#666666" points="135.5,-129.75 104.5,-129.75 104.5,-110.5 135.5,-110.5 135.5,-129.75"/>
<text text-anchor="middle" x="120" y="-116.25" font-family="Helvetica,sans-Serif" font-size="10.00">io.h</text>
</a>
</g>
</g>
<!-- Node5&#45;&gt;Node7 -->
<g id="edge7_Node000005_Node000007" class="edge">
<title>Node5&#45;&gt;Node7</title>
<g id="a_edge7_Node000005_Node000007"><a xlink:title=" ">
<path fill="none" stroke="#63b8ff" d="M95.4,-171.06C99.41,-162.93 105.45,-150.67 110.54,-140.33"/>
<polygon fill="#63b8ff" stroke="#63b8ff" points="113.61,-142.03 114.89,-131.51 107.33,-138.93 113.61,-142.03"/>
</a>
</g>
</g>
<!-- Node8 -->
<g id="Node000008" class="node">
<title>Node8</title>
<g id="a_Node000008"><a xlink:href="config_8h.html" target="_top" xlink:title="Hack for C Compiler portability.">
<polygon fill="white" stroke="#666666" points="153.5,-74.5 104.5,-74.5 104.5,-55.25 153.5,-55.25 153.5,-74.5"/>
<text text-anchor="middle" x="129" y="-61" font-family="Helvetica,sans-Serif" font-size="10.00">config.h</text>
</a>
</g>
</g>
<!-- Node7&#45;&gt;Node8 -->
<g id="edge8_Node000007_Node000008" class="edge">
<title>Node7&#45;&gt;Node8</title>
<g id="a_edge8_Node000007_Node000008"><a xlink:title=" ">
<path fill="none" stroke="#63b8ff" d="M121.49,-110.33C122.6,-103.74 124.17,-94.46 125.59,-86.07"/>
<polygon fill="#63b8ff" stroke="#63b8ff" points="129.01,-86.8 127.23,-76.35 122.11,-85.63 129.01,-86.8"/>
</a>
</g>
</g>
<!-- Node8&#45;&gt;Node4 -->
<g id="edge9_Node000008_Node000004" class="edge">
<title>Node8&#45;&gt;Node4</title>
<g id="a_edge9_Node000008_Node000004"><a xlink:title=" ">
<path fill="none" stroke="#63b8ff" d="M120.25,-55.08C112.85,-47.65 102.04,-36.79 92.95,-27.66"/>
<polygon fill="#63b8ff" stroke="#63b8ff" points="95.54,-25.3 86.01,-20.68 90.58,-30.24 95.54,-25.3"/>
</a>
</g>
</g>
<!-- Node10&#45;&gt;Node4 -->
<g id="edge13_Node000010_Node000004" class="edge">
<title>Node10&#45;&gt;Node4</title>
<g id="a_edge13_Node000010_Node000004"><a xlink:title=" ">
<path fill="none" stroke="#63b8ff" d="M193.96,-165.42C206.26,-151.58 220.53,-130.05 213,-110.5 195.81,-65.89 145.29,-37.68 110.64,-23.02"/>
<polygon fill="#63b8ff" stroke="#63b8ff" points="112,-19.8 101.42,-19.3 109.39,-26.29 112,-19.8"/>
</a>
</g>
</g>
<!-- Node10&#45;&gt;Node6 -->
<g id="edge14_Node000010_Node000006" class="edge">
<title>Node10&#45;&gt;Node6</title>
<g id="a_edge14_Node000010_Node000006"><a xlink:title=" ">
<path fill="none" stroke="#63b8ff" d="M179,-165.45C179,-158.21 179,-149.34 179,-141.44"/>
<polygon fill="#63b8ff" stroke="#63b8ff" points="182.5,-141.71 179,-131.71 175.5,-141.71 182.5,-141.71"/>
</a>
</g>
</g>
</g>
</svg>
