<?xml version="1.0" encoding="UTF-8" standalone="no"?>
<!DOCTYPE svg PUBLIC "-//W3C//DTD SVG 1.1//EN"
 "http://www.w3.org/Graphics/SVG/1.1/DTD/svg11.dtd">
<!-- Generated by graphviz version 7.0.5 (20221223.1930)
 -->
<!-- Title: include/opll_buf.h Pages: 1 -->
<svg width="126pt" height="137pt"
 viewBox="0.00 0.00 126.00 137.00" xmlns="http://www.w3.org/2000/svg" xmlns:xlink="http://www.w3.org/1999/xlink">
<g id="graph0" class="graph" transform="scale(1 1) rotate(0) translate(4 133)">
<title>include/opll_buf.h</title>
<!-- Node1 -->
<g id="node1" class="node">
<title>Node1</title>
<g id="a_node1"><a xlink:title="Buffered access to OPLL registers.">
<polygon fill="#999999" stroke="#666666" points="103,-129 11,-129 11,-110 103,-110 103,-129"/>
<text text-anchor="middle" x="57" y="-117" font-family="Helvetica,sans-Serif" font-size="10.00">include/opll_buf.h</text>
</a>
</g>
</g>
<!-- Node2 -->
<g id="node2" class="node">
<title>Node2</title>
<g id="a_node2"><a xlink:href="opll_8h.html" target="_top" xlink:title="Device interface for MSX&#45;MUSIC (OPLL).">
<polygon fill="white" stroke="#666666" points="43.5,-74 4.5,-74 4.5,-55 43.5,-55 43.5,-74"/>
<text text-anchor="middle" x="24" y="-62" font-family="Helvetica,sans-Serif" font-size="10.00">opll.h</text>
</a>
</g>
</g>
<!-- Node1&#45;&gt;Node2 -->
<g id="edge1" class="edge">
<title>Node1&#45;&gt;Node2</title>
<path fill="none" stroke="#63b8ff" d="M51.55,-109.75C47.23,-102.81 41.04,-92.86 35.62,-84.16"/>
<polygon fill="#63b8ff" stroke="#63b8ff" points="38.62,-82.37 30.37,-75.73 32.68,-86.07 38.62,-82.37"/>
</g>
<!-- Node4 -->
<g id="node4" class="node">
<title>Node4</title>
<g id="a_node4"><a xlink:title=" ">
<polygon fill="#e0e0e0" stroke="#999999" points="118,-74 62,-74 62,-55 118,-55 118,-74"/>
<text text-anchor="middle" x="90" y="-62" font-family="Helvetica,sans-Serif" font-size="10.00">stdbool.h</text>
</a>
</g>
</g>
<!-- Node1&#45;&gt;Node4 -->
<g id="edge3" class="edge">
<title>Node1&#45;&gt;Node4</title>
<path fill="none" stroke="#63b8ff" d="M62.45,-109.75C66.77,-102.81 72.96,-92.86 78.38,-84.16"/>
<polygon fill="#63b8ff" stroke="#63b8ff" points="81.32,-86.07 83.63,-75.73 75.38,-82.37 81.32,-86.07"/>
</g>
<!-- Node3 -->
<g id="node3" class="node">
<title>Node3</title>
<g id="a_node3"><a xlink:title=" ">
<polygon fill="#e0e0e0" stroke="#999999" points="48,-19 0,-19 0,0 48,0 48,-19"/>
<text text-anchor="middle" x="24" y="-7" font-family="Helvetica,sans-Serif" font-size="10.00">stdint.h</text>
</a>
</g>
</g>
<!-- Node2&#45;&gt;Node3 -->
<g id="edge2" class="edge">
<title>Node2&#45;&gt;Node3</title>
<path fill="none" stroke="#63b8ff" d="M24,-54.75C24,-48.27 24,-39.16 24,-30.9"/>
<polygon fill="#63b8ff" stroke="#63b8ff" points="27.5,-30.96 24,-20.96 20.5,-30.96 27.5,-30.96"/>
</g>
</g>
</svg>
