<?xml version="1.0" encoding="UTF-8" standalone="no"?>
<!DOCTYPE svg PUBLIC "-//W3C//DTD SVG 1.1//EN"
 "http://www.w3.org/Graphics/SVG/1.1/DTD/svg11.dtd">
<!-- Generated by graphviz version 12.2.0 (20241103.1931)
 -->
<!-- Title: include/opll_buf.h Pages: 1 -->
<svg width="124pt" height="138pt"
 viewBox="0.00 0.00 124.25 137.75" xmlns="http://www.w3.org/2000/svg" xmlns:xlink="http://www.w3.org/1999/xlink">
<g id="graph0" class="graph" transform="scale(1 1) rotate(0) translate(4 133.75)">
<title>include/opll_buf.h</title>
<!-- Node1 -->
<g id="Node000001" class="node">
<title>Node1</title>
<g id="a_Node000001"><a xlink:title="Buffered access to OPLL registers.">
<polygon fill="#999999" stroke="#666666" points="101.25,-129.75 10.25,-129.75 10.25,-110.5 101.25,-110.5 101.25,-129.75"/>
<text text-anchor="middle" x="55.75" y="-116.25" font-family="Helvetica,sans-Serif" font-size="10.00">include/opll_buf.h</text>
</a>
</g>
</g>
<!-- Node2 -->
<g id="Node000002" class="node">
<title>Node2</title>
<g id="a_Node000002"><a xlink:href="opll_8h.html" target="_top" xlink:title="Device interface for MSX&#45;MUSIC (OPLL).">
<polygon fill="white" stroke="#666666" points="43,-74.5 4.5,-74.5 4.5,-55.25 43,-55.25 43,-74.5"/>
<text text-anchor="middle" x="23.75" y="-61" font-family="Helvetica,sans-Serif" font-size="10.00">opll.h</text>
</a>
</g>
</g>
<!-- Node1&#45;&gt;Node2 -->
<g id="edge1_Node000001_Node000002" class="edge">
<title>Node1&#45;&gt;Node2</title>
<g id="a_edge1_Node000001_Node000002"><a xlink:title=" ">
<path fill="none" stroke="#63b8ff" d="M50.47,-110.33C46.28,-103.36 40.27,-93.37 35.02,-84.62"/>
<polygon fill="#63b8ff" stroke="#63b8ff" points="38.08,-82.93 29.93,-76.16 32.08,-86.53 38.08,-82.93"/>
</a>
</g>
</g>
<!-- Node4 -->
<g id="Node000004" class="node">
<title>Node4</title>
<g id="a_Node000004"><a xlink:title=" ">
<polygon fill="#e0e0e0" stroke="#999999" points="116.25,-74.5 61.25,-74.5 61.25,-55.25 116.25,-55.25 116.25,-74.5"/>
<text text-anchor="middle" x="88.75" y="-61" font-family="Helvetica,sans-Serif" font-size="10.00">stdbool.h</text>
</a>
</g>
</g>
<!-- Node1&#45;&gt;Node4 -->
<g id="edge3_Node000001_Node000004" class="edge">
<title>Node1&#45;&gt;Node4</title>
<g id="a_edge3_Node000001_Node000004"><a xlink:title=" ">
<path fill="none" stroke="#63b8ff" d="M61.2,-110.33C65.52,-103.36 71.71,-93.37 77.13,-84.62"/>
<polygon fill="#63b8ff" stroke="#63b8ff" points="80.09,-86.49 82.39,-76.15 74.14,-82.8 80.09,-86.49"/>
</a>
</g>
</g>
<!-- Node3 -->
<g id="Node000003" class="node">
<title>Node3</title>
<g id="a_Node000003"><a xlink:title=" ">
<polygon fill="#e0e0e0" stroke="#999999" points="47.5,-19.25 0,-19.25 0,0 47.5,0 47.5,-19.25"/>
<text text-anchor="middle" x="23.75" y="-5.75" font-family="Helvetica,sans-Serif" font-size="10.00">stdint.h</text>
</a>
</g>
</g>
<!-- Node2&#45;&gt;Node3 -->
<g id="edge2_Node000002_Node000003" class="edge">
<title>Node2&#45;&gt;Node3</title>
<g id="a_edge2_Node000002_Node000003"><a xlink:title=" ">
<path fill="none" stroke="#63b8ff" d="M23.75,-55.08C23.75,-48.57 23.75,-39.42 23.75,-31.12"/>
<polygon fill="#63b8ff" stroke="#63b8ff" points="27.25,-31.12 23.75,-21.12 20.25,-31.12 27.25,-31.12"/>
</a>
</g>
</g>
</g>
</svg>
