<?xml version="1.0" encoding="UTF-8" standalone="no"?>
<!DOCTYPE svg PUBLIC "-//W3C//DTD SVG 1.1//EN"
 "http://www.w3.org/Graphics/SVG/1.1/DTD/svg11.dtd">
<!-- Generated by graphviz version 7.0.5 (20221223.1930)
 -->
<!-- Title: include/opll_buf.h Pages: 1 -->
<svg width="100pt" height="137pt"
 viewBox="0.00 0.00 100.00 137.00" xmlns="http://www.w3.org/2000/svg" xmlns:xlink="http://www.w3.org/1999/xlink">
<g id="graph0" class="graph" transform="scale(1 1) rotate(0) translate(4 133)">
<title>include/opll_buf.h</title>
<!-- Node1 -->
<g id="node1" class="node">
<title>Node1</title>
<g id="a_node1"><a xlink:title="Buffered access to OPLL registers.">
<polygon fill="#999999" stroke="#666666" points="92,-129 0,-129 0,-110 92,-110 92,-129"/>
<text text-anchor="middle" x="46" y="-117" font-family="Helvetica,sans-Serif" font-size="10.00">include/opll_buf.h</text>
</a>
</g>
</g>
<!-- Node2 -->
<g id="node2" class="node">
<title>Node2</title>
<g id="a_node2"><a xlink:href="opll_8h.html" target="_top" xlink:title="Device interface for MSX&#45;MUSIC (OPLL).">
<polygon fill="white" stroke="#666666" points="65.5,-74 26.5,-74 26.5,-55 65.5,-55 65.5,-74"/>
<text text-anchor="middle" x="46" y="-62" font-family="Helvetica,sans-Serif" font-size="10.00">opll.h</text>
</a>
</g>
</g>
<!-- Node1&#45;&gt;Node2 -->
<g id="edge1" class="edge">
<title>Node1&#45;&gt;Node2</title>
<path fill="none" stroke="#63b8ff" d="M46,-109.75C46,-103.27 46,-94.16 46,-85.9"/>
<polygon fill="#63b8ff" stroke="#63b8ff" points="49.5,-85.96 46,-75.96 42.5,-85.96 49.5,-85.96"/>
</g>
<!-- Node3 -->
<g id="node3" class="node">
<title>Node3</title>
<g id="a_node3"><a xlink:title=" ">
<polygon fill="#e0e0e0" stroke="#999999" points="70,-19 22,-19 22,0 70,0 70,-19"/>
<text text-anchor="middle" x="46" y="-7" font-family="Helvetica,sans-Serif" font-size="10.00">stdint.h</text>
</a>
</g>
</g>
<!-- Node2&#45;&gt;Node3 -->
<g id="edge2" class="edge">
<title>Node2&#45;&gt;Node3</title>
<path fill="none" stroke="#63b8ff" d="M46,-54.75C46,-48.27 46,-39.16 46,-30.9"/>
<polygon fill="#63b8ff" stroke="#63b8ff" points="49.5,-30.96 46,-20.96 42.5,-30.96 49.5,-30.96"/>
</g>
</g>
</svg>
