<?xml version="1.0" encoding="UTF-8" standalone="no"?>
<!DOCTYPE svg PUBLIC "-//W3C//DTD SVG 1.1//EN"
 "http://www.w3.org/Graphics/SVG/1.1/DTD/svg11.dtd">
<!-- Generated by graphviz version 7.0.5 (20221223.1930)
 -->
<!-- Title: include/psg.h Pages: 1 -->
<svg width="99pt" height="192pt"
 viewBox="0.00 0.00 99.00 192.00" xmlns="http://www.w3.org/2000/svg" xmlns:xlink="http://www.w3.org/1999/xlink">
<g id="graph0" class="graph" transform="scale(1 1) rotate(0) translate(4 188)">
<title>include/psg.h</title>
<!-- Node1 -->
<g id="node1" class="node">
<title>Node1</title>
<g id="a_node1"><a xlink:title="Device interface for PSG (AY&#45;3&#45;8910) an internal sound chip.">
<polygon fill="#999999" stroke="#666666" points="74,-184 0,-184 0,-165 74,-165 74,-184"/>
<text text-anchor="middle" x="37" y="-172" font-family="Helvetica,sans-Serif" font-size="10.00">include/psg.h</text>
</a>
</g>
</g>
<!-- Node2 -->
<g id="node2" class="node">
<title>Node2</title>
<g id="a_node2"><a xlink:title=" ">
<polygon fill="#e0e0e0" stroke="#999999" points="63,-19 15,-19 15,0 63,0 63,-19"/>
<text text-anchor="middle" x="39" y="-7" font-family="Helvetica,sans-Serif" font-size="10.00">stdint.h</text>
</a>
</g>
</g>
<!-- Node1&#45;&gt;Node2 -->
<g id="edge1" class="edge">
<title>Node1&#45;&gt;Node2</title>
<path fill="none" stroke="#63b8ff" d="M35.89,-164.57C33.6,-144.8 28.81,-95.85 32,-55 32.63,-46.91 33.9,-38.07 35.19,-30.41"/>
<polygon fill="#63b8ff" stroke="#63b8ff" points="38.59,-31.27 36.93,-20.81 31.7,-30.02 38.59,-31.27"/>
</g>
<!-- Node3 -->
<g id="node3" class="node">
<title>Node3</title>
<g id="a_node3"><a xlink:href="io_8h.html" target="_top" xlink:title="Definition of I/O ports.">
<polygon fill="white" stroke="#666666" points="77,-129 45,-129 45,-110 77,-110 77,-129"/>
<text text-anchor="middle" x="61" y="-117" font-family="Helvetica,sans-Serif" font-size="10.00">io.h</text>
</a>
</g>
</g>
<!-- Node1&#45;&gt;Node3 -->
<g id="edge2" class="edge">
<title>Node1&#45;&gt;Node3</title>
<path fill="none" stroke="#63b8ff" d="M40.96,-164.75C44.04,-157.96 48.41,-148.3 52.29,-139.73"/>
<polygon fill="#63b8ff" stroke="#63b8ff" points="55.39,-141.37 56.33,-130.82 49.01,-138.49 55.39,-141.37"/>
</g>
<!-- Node4 -->
<g id="node4" class="node">
<title>Node4</title>
<g id="a_node4"><a xlink:href="config_8h.html" target="_top" xlink:title="Hack for C Compiler portability.">
<polygon fill="white" stroke="#666666" points="91,-74 41,-74 41,-55 91,-55 91,-74"/>
<text text-anchor="middle" x="66" y="-62" font-family="Helvetica,sans-Serif" font-size="10.00">config.h</text>
</a>
</g>
</g>
<!-- Node3&#45;&gt;Node4 -->
<g id="edge3" class="edge">
<title>Node3&#45;&gt;Node4</title>
<path fill="none" stroke="#63b8ff" d="M61.83,-109.75C62.44,-103.27 63.3,-94.16 64.08,-85.9"/>
<polygon fill="#63b8ff" stroke="#63b8ff" points="67.56,-86.23 65.01,-75.95 60.59,-85.58 67.56,-86.23"/>
</g>
<!-- Node4&#45;&gt;Node2 -->
<g id="edge4" class="edge">
<title>Node4&#45;&gt;Node2</title>
<path fill="none" stroke="#63b8ff" d="M61.54,-54.75C58.05,-47.88 53.05,-38.08 48.65,-29.45"/>
<polygon fill="#63b8ff" stroke="#63b8ff" points="51.9,-28.11 44.24,-20.79 45.66,-31.29 51.9,-28.11"/>
</g>
</g>
</svg>
