<?xml version="1.0" encoding="UTF-8" standalone="no"?>
<!DOCTYPE svg PUBLIC "-//W3C//DTD SVG 1.1//EN"
 "http://www.w3.org/Graphics/SVG/1.1/DTD/svg11.dtd">
<!-- Generated by graphviz version 3.0.0 (20220413.0106)
 -->
<!-- Title: include/psg.h Pages: 1 -->
<svg width="530pt" height="140pt"
 viewBox="0.00 0.00 530.00 140.00" xmlns="http://www.w3.org/2000/svg" xmlns:xlink="http://www.w3.org/1999/xlink">
<g id="graph0" class="graph" transform="scale(1 1) rotate(0) translate(4 136)">
<title>include/psg.h</title>
<!-- Node1 -->
<g id="node1" class="node">
<title>Node1</title>
<g id="a_node1"><a xlink:title="Copyright (c) 2021 Daishi Mori (mori0091)">
<polygon fill="#bfbfbf" stroke="black" points="214.5,-112.5 214.5,-131.5 288.5,-131.5 288.5,-112.5 214.5,-112.5"/>
<text text-anchor="middle" x="251.5" y="-119.5" font-family="Helvetica,sans-Serif" font-size="10.00">include/psg.h</text>
</a>
</g>
</g>
<!-- Node2 -->
<g id="node2" class="node">
<title>Node2</title>
<g id="a_node2"><a xlink:href="ay__3__8910_8h.html" target="_top" xlink:title="Copyright (c) 2022 Daishi Mori (mori0091)">
<polygon fill="none" stroke="black" points="6.5,-56.5 6.5,-75.5 110.5,-75.5 110.5,-56.5 6.5,-56.5"/>
<text text-anchor="middle" x="58.5" y="-63.5" font-family="Helvetica,sans-Serif" font-size="10.00">include/ay_3_8910.h</text>
</a>
</g>
</g>
<!-- Node1&#45;&gt;Node2 -->
<g id="edge1" class="edge">
<title>Node1&#45;&gt;Node2</title>
<path fill="none" stroke="midnightblue" d="M211.11,-109.7C174.68,-99.51 121.91,-84.74 88.94,-75.52"/>
<polygon fill="midnightblue" stroke="midnightblue" points="210.35,-113.12 220.92,-112.44 212.23,-106.38 210.35,-113.12"/>
</g>
<!-- Node4 -->
<g id="node4" class="node">
<title>Node4</title>
<g id="a_node4"><a xlink:href="sound_8c.html" target="_top" xlink:title="Copyright (c) 2021 Daishi Mori (mori0091)">
<polygon fill="none" stroke="black" points="105,-0.5 105,-19.5 172,-19.5 172,-0.5 105,-0.5"/>
<text text-anchor="middle" x="138.5" y="-7.5" font-family="Helvetica,sans-Serif" font-size="10.00">src/sound.c</text>
</a>
</g>
</g>
<!-- Node1&#45;&gt;Node4 -->
<g id="edge8" class="edge">
<title>Node1&#45;&gt;Node4</title>
<path fill="none" stroke="midnightblue" d="M207.89,-108.84C190.04,-101.87 170.55,-91.36 157.5,-76 143.49,-59.52 139.81,-33.15 138.84,-19.62"/>
<polygon fill="midnightblue" stroke="midnightblue" points="206.99,-112.24 217.59,-112.36 209.38,-105.66 206.99,-112.24"/>
</g>
<!-- Node5 -->
<g id="node5" class="node">
<title>Node5</title>
<g id="a_node5"><a xlink:href="msx_8h.html" target="_top" xlink:title="Copyright (c) 2021 Daishi Mori (mori0091)">
<polygon fill="none" stroke="black" points="166.5,-56.5 166.5,-75.5 242.5,-75.5 242.5,-56.5 166.5,-56.5"/>
<text text-anchor="middle" x="204.5" y="-63.5" font-family="Helvetica,sans-Serif" font-size="10.00">include/msx.h</text>
</a>
</g>
</g>
<!-- Node1&#45;&gt;Node5 -->
<g id="edge4" class="edge">
<title>Node1&#45;&gt;Node5</title>
<path fill="none" stroke="midnightblue" d="M237.08,-104.43C228.84,-94.97 218.85,-83.48 212.12,-75.75"/>
<polygon fill="midnightblue" stroke="midnightblue" points="234.53,-106.84 243.74,-112.08 239.81,-102.24 234.53,-106.84"/>
</g>
<!-- Node6 -->
<g id="node6" class="node">
<title>Node6</title>
<g id="a_node6"><a xlink:href="psg__get_8c.html" target="_top" xlink:title="Copyright (c) 2021 Daishi Mori (mori0091)">
<polygon fill="none" stroke="black" points="261,-56.5 261,-75.5 336,-75.5 336,-56.5 261,-56.5"/>
<text text-anchor="middle" x="298.5" y="-63.5" font-family="Helvetica,sans-Serif" font-size="10.00">src/psg_get.c</text>
</a>
</g>
</g>
<!-- Node1&#45;&gt;Node6 -->
<g id="edge5" class="edge">
<title>Node1&#45;&gt;Node6</title>
<path fill="none" stroke="midnightblue" d="M265.92,-104.43C274.16,-94.97 284.15,-83.48 290.88,-75.75"/>
<polygon fill="midnightblue" stroke="midnightblue" points="263.19,-102.24 259.26,-112.08 268.47,-106.84 263.19,-102.24"/>
</g>
<!-- Node7 -->
<g id="node7" class="node">
<title>Node7</title>
<g id="a_node7"><a xlink:href="psg__init_8c.html" target="_top" xlink:title="Copyright (c) 2021 Daishi Mori (mori0091)">
<polygon fill="none" stroke="black" points="354.5,-56.5 354.5,-75.5 428.5,-75.5 428.5,-56.5 354.5,-56.5"/>
<text text-anchor="middle" x="391.5" y="-63.5" font-family="Helvetica,sans-Serif" font-size="10.00">src/psg_init.c</text>
</a>
</g>
</g>
<!-- Node1&#45;&gt;Node7 -->
<g id="edge6" class="edge">
<title>Node1&#45;&gt;Node7</title>
<path fill="none" stroke="midnightblue" d="M283.2,-108.77C309.5,-98.63 346.22,-84.47 369.42,-75.52"/>
<polygon fill="midnightblue" stroke="midnightblue" points="281.75,-105.58 273.68,-112.44 284.27,-112.11 281.75,-105.58"/>
</g>
<!-- Node8 -->
<g id="node8" class="node">
<title>Node8</title>
<g id="a_node8"><a xlink:href="psg__set_8c.html" target="_top" xlink:title="Copyright (c) 2021 Daishi Mori (mori0091)">
<polygon fill="none" stroke="black" points="447,-56.5 447,-75.5 522,-75.5 522,-56.5 447,-56.5"/>
<text text-anchor="middle" x="484.5" y="-63.5" font-family="Helvetica,sans-Serif" font-size="10.00">src/psg_set.c</text>
</a>
</g>
</g>
<!-- Node1&#45;&gt;Node8 -->
<g id="edge7" class="edge">
<title>Node1&#45;&gt;Node8</title>
<path fill="none" stroke="midnightblue" d="M298.3,-110.15C342.33,-99.95 407.35,-84.88 447.75,-75.52"/>
<polygon fill="midnightblue" stroke="midnightblue" points="297.37,-106.78 288.42,-112.44 298.95,-113.6 297.37,-106.78"/>
</g>
<!-- Node3 -->
<g id="node3" class="node">
<title>Node3</title>
<g id="a_node3"><a xlink:href="ay__3__8910_8c.html" target="_top" xlink:title="Copyright (c) 2022 Daishi Mori (mori0091)">
<polygon fill="none" stroke="black" points="0,-0.5 0,-19.5 87,-19.5 87,-0.5 0,-0.5"/>
<text text-anchor="middle" x="43.5" y="-7.5" font-family="Helvetica,sans-Serif" font-size="10.00">src/ay_3_8910.c</text>
</a>
</g>
</g>
<!-- Node2&#45;&gt;Node3 -->
<g id="edge2" class="edge">
<title>Node2&#45;&gt;Node3</title>
<path fill="none" stroke="midnightblue" d="M53.33,-46.4C50.82,-37.36 47.93,-26.94 45.93,-19.75"/>
<polygon fill="midnightblue" stroke="midnightblue" points="49.97,-47.38 56.02,-56.08 56.72,-45.51 49.97,-47.38"/>
</g>
<!-- Node2&#45;&gt;Node4 -->
<g id="edge3" class="edge">
<title>Node2&#45;&gt;Node4</title>
<path fill="none" stroke="midnightblue" d="M79.8,-50.62C94.42,-40.76 113.33,-27.99 125.68,-19.65"/>
<polygon fill="midnightblue" stroke="midnightblue" points="77.68,-47.83 71.35,-56.32 81.6,-53.63 77.68,-47.83"/>
</g>
</g>
</svg>
