<?xml version="1.0" encoding="UTF-8" standalone="no"?>
<!DOCTYPE svg PUBLIC "-//W3C//DTD SVG 1.1//EN"
 "http://www.w3.org/Graphics/SVG/1.1/DTD/svg11.dtd">
<!-- Generated by graphviz version 2.43.0 (0)
 -->
<!-- Title: include/psg.h Pages: 1 -->
<svg width="477pt" height="84pt"
 viewBox="0.00 0.00 477.00 84.00" xmlns="http://www.w3.org/2000/svg" xmlns:xlink="http://www.w3.org/1999/xlink">
<g id="graph0" class="graph" transform="scale(1 1) rotate(0) translate(4 80)">
<title>include/psg.h</title>
<!-- Node1 -->
<g id="node1" class="node">
<title>Node1</title>
<g id="a_node1"><a xlink:title=" ">
<polygon fill="#bfbfbf" stroke="black" points="201,-56.5 201,-75.5 282,-75.5 282,-56.5 201,-56.5"/>
<text text-anchor="middle" x="241.5" y="-63.5" font-family="Helvetica,sans-Serif" font-size="10.00">include/psg.h</text>
</a>
</g>
</g>
<!-- Node2 -->
<g id="node2" class="node">
<title>Node2</title>
<g id="a_node2"><a xlink:href="msx_8h.html" target="_top" xlink:title=" ">
<polygon fill="none" stroke="black" points="0,-0.5 0,-19.5 85,-19.5 85,-0.5 0,-0.5"/>
<text text-anchor="middle" x="42.5" y="-7.5" font-family="Helvetica,sans-Serif" font-size="10.00">include/msx.h</text>
</a>
</g>
</g>
<!-- Node1&#45;&gt;Node2 -->
<g id="edge1" class="edge">
<title>Node1&#45;&gt;Node2</title>
<path fill="none" stroke="midnightblue" d="M199.85,-53.7C162.29,-43.51 107.89,-28.74 73.88,-19.52"/>
<polygon fill="midnightblue" stroke="midnightblue" points="199.4,-57.2 209.97,-56.44 201.23,-50.45 199.4,-57.2"/>
</g>
<!-- Node3 -->
<g id="node3" class="node">
<title>Node3</title>
<g id="a_node3"><a xlink:href="psg__get_8c.html" target="_top" xlink:title=" ">
<polygon fill="none" stroke="black" points="103.5,-0.5 103.5,-19.5 183.5,-19.5 183.5,-0.5 103.5,-0.5"/>
<text text-anchor="middle" x="143.5" y="-7.5" font-family="Helvetica,sans-Serif" font-size="10.00">src/psg_get.c</text>
</a>
</g>
</g>
<!-- Node1&#45;&gt;Node3 -->
<g id="edge2" class="edge">
<title>Node1&#45;&gt;Node3</title>
<path fill="none" stroke="midnightblue" d="M216.91,-51.45C198.82,-41.48 174.77,-28.23 159.21,-19.65"/>
<polygon fill="midnightblue" stroke="midnightblue" points="215.31,-54.56 225.75,-56.32 218.69,-48.43 215.31,-54.56"/>
</g>
<!-- Node4 -->
<g id="node4" class="node">
<title>Node4</title>
<g id="a_node4"><a xlink:href="psg__init_8c.html" target="_top" xlink:title=" ">
<polygon fill="none" stroke="black" points="201.5,-0.5 201.5,-19.5 281.5,-19.5 281.5,-0.5 201.5,-0.5"/>
<text text-anchor="middle" x="241.5" y="-7.5" font-family="Helvetica,sans-Serif" font-size="10.00">src/psg_init.c</text>
</a>
</g>
</g>
<!-- Node1&#45;&gt;Node4 -->
<g id="edge3" class="edge">
<title>Node1&#45;&gt;Node4</title>
<path fill="none" stroke="midnightblue" d="M241.5,-45.8C241.5,-36.91 241.5,-26.78 241.5,-19.75"/>
<polygon fill="midnightblue" stroke="midnightblue" points="238,-46.08 241.5,-56.08 245,-46.08 238,-46.08"/>
</g>
<!-- Node5 -->
<g id="node5" class="node">
<title>Node5</title>
<g id="a_node5"><a xlink:href="psg__set_8c.html" target="_top" xlink:title=" ">
<polygon fill="none" stroke="black" points="299.5,-0.5 299.5,-19.5 379.5,-19.5 379.5,-0.5 299.5,-0.5"/>
<text text-anchor="middle" x="339.5" y="-7.5" font-family="Helvetica,sans-Serif" font-size="10.00">src/psg_set.c</text>
</a>
</g>
</g>
<!-- Node1&#45;&gt;Node5 -->
<g id="edge4" class="edge">
<title>Node1&#45;&gt;Node5</title>
<path fill="none" stroke="midnightblue" d="M266.09,-51.45C284.18,-41.48 308.23,-28.23 323.79,-19.65"/>
<polygon fill="midnightblue" stroke="midnightblue" points="264.31,-48.43 257.25,-56.32 267.69,-54.56 264.31,-48.43"/>
</g>
<!-- Node6 -->
<g id="node6" class="node">
<title>Node6</title>
<g id="a_node6"><a xlink:href="sound_8c.html" target="_top" xlink:title=" ">
<polygon fill="none" stroke="black" points="398,-0.5 398,-19.5 469,-19.5 469,-0.5 398,-0.5"/>
<text text-anchor="middle" x="433.5" y="-7.5" font-family="Helvetica,sans-Serif" font-size="10.00">src/sound.c</text>
</a>
</g>
</g>
<!-- Node1&#45;&gt;Node6 -->
<g id="edge5" class="edge">
<title>Node1&#45;&gt;Node6</title>
<path fill="none" stroke="midnightblue" d="M281.68,-53.7C317.92,-43.51 370.41,-28.74 403.22,-19.52"/>
<polygon fill="midnightblue" stroke="midnightblue" points="280.6,-50.37 271.92,-56.44 282.5,-57.11 280.6,-50.37"/>
</g>
</g>
</svg>
