<?xml version="1.0" encoding="UTF-8" standalone="no"?>
<!DOCTYPE svg PUBLIC "-//W3C//DTD SVG 1.1//EN"
 "http://www.w3.org/Graphics/SVG/1.1/DTD/svg11.dtd">
<!-- Generated by graphviz version 9.0.0 (20230911.1827)
 -->
<!-- Title: include/psg.h Pages: 1 -->
<svg width="100pt" height="193pt"
 viewBox="0.00 0.00 100.00 193.00" xmlns="http://www.w3.org/2000/svg" xmlns:xlink="http://www.w3.org/1999/xlink">
<g id="graph0" class="graph" transform="scale(1 1) rotate(0) translate(4 189)">
<title>include/psg.h</title>
<!-- Node1 -->
<g id="Node000001" class="node">
<title>Node1</title>
<g id="a_Node000001"><a xlink:title="Device interface for PSG (AY&#45;3&#45;8910) an internal sound chip.">
<polygon fill="#999999" stroke="#666666" points="73,-185 0,-185 0,-165.75 73,-165.75 73,-185"/>
<text text-anchor="middle" x="36.5" y="-171.5" font-family="Helvetica,sans-Serif" font-size="10.00">include/psg.h</text>
</a>
</g>
</g>
<!-- Node2 -->
<g id="Node000002" class="node">
<title>Node2</title>
<g id="a_Node000002"><a xlink:title=" ">
<polygon fill="#e0e0e0" stroke="#999999" points="64.25,-19.25 16.75,-19.25 16.75,0 64.25,0 64.25,-19.25"/>
<text text-anchor="middle" x="40.5" y="-5.75" font-family="Helvetica,sans-Serif" font-size="10.00">stdint.h</text>
</a>
</g>
</g>
<!-- Node1&#45;&gt;Node2 -->
<g id="edge1_Node000001_Node000002" class="edge">
<title>Node1&#45;&gt;Node2</title>
<g id="a_edge1_Node000001_Node000002"><a xlink:title=" ">
<path fill="none" stroke="#63b8ff" d="M35.84,-165.4C34.48,-145.52 31.75,-96.32 34.5,-55.25 35.04,-47.16 36.13,-38.3 37.23,-30.62"/>
<polygon fill="#63b8ff" stroke="#63b8ff" points="40.65,-31.39 38.72,-20.98 33.74,-30.32 40.65,-31.39"/>
</a>
</g>
</g>
<!-- Node3 -->
<g id="Node000003" class="node">
<title>Node3</title>
<g id="a_Node000003"><a xlink:href="io_8h.html" target="_top" xlink:title="Definition of I/O ports.">
<polygon fill="white" stroke="#666666" points="78,-129.75 47,-129.75 47,-110.5 78,-110.5 78,-129.75"/>
<text text-anchor="middle" x="62.5" y="-116.25" font-family="Helvetica,sans-Serif" font-size="10.00">io.h</text>
</a>
</g>
</g>
<!-- Node1&#45;&gt;Node3 -->
<g id="edge2_Node000001_Node000003" class="edge">
<title>Node1&#45;&gt;Node3</title>
<g id="a_edge2_Node000001_Node000003"><a xlink:title=" ">
<path fill="none" stroke="#63b8ff" d="M40.79,-165.58C44.12,-158.76 48.86,-149.06 53.06,-140.45"/>
<polygon fill="#63b8ff" stroke="#63b8ff" points="56.21,-141.99 57.45,-131.47 49.92,-138.92 56.21,-141.99"/>
</a>
</g>
</g>
<!-- Node4 -->
<g id="Node000004" class="node">
<title>Node4</title>
<g id="a_Node000004"><a xlink:href="config_8h.html" target="_top" xlink:title="Hack for C Compiler portability.">
<polygon fill="white" stroke="#666666" points="92,-74.5 43,-74.5 43,-55.25 92,-55.25 92,-74.5"/>
<text text-anchor="middle" x="67.5" y="-61" font-family="Helvetica,sans-Serif" font-size="10.00">config.h</text>
</a>
</g>
</g>
<!-- Node3&#45;&gt;Node4 -->
<g id="edge3_Node000003_Node000004" class="edge">
<title>Node3&#45;&gt;Node4</title>
<g id="a_edge3_Node000003_Node000004"><a xlink:title=" ">
<path fill="none" stroke="#63b8ff" d="M63.33,-110.33C63.94,-103.74 64.82,-94.46 65.6,-86.07"/>
<polygon fill="#63b8ff" stroke="#63b8ff" points="69.06,-86.65 66.51,-76.37 62.1,-86 69.06,-86.65"/>
</a>
</g>
</g>
<!-- Node4&#45;&gt;Node2 -->
<g id="edge4_Node000004_Node000002" class="edge">
<title>Node4&#45;&gt;Node2</title>
<g id="a_edge4_Node000004_Node000002"><a xlink:title=" ">
<path fill="none" stroke="#63b8ff" d="M63.04,-55.08C59.55,-48.19 54.55,-38.34 50.15,-29.66"/>
<polygon fill="#63b8ff" stroke="#63b8ff" points="53.38,-28.3 45.74,-20.96 47.14,-31.46 53.38,-28.3"/>
</a>
</g>
</g>
</g>
</svg>
