<?xml version="1.0" encoding="UTF-8" standalone="no"?>
<!DOCTYPE svg PUBLIC "-//W3C//DTD SVG 1.1//EN"
 "http://www.w3.org/Graphics/SVG/1.1/DTD/svg11.dtd">
<!-- Generated by graphviz version 7.0.5 (20221223.1930)
 -->
<!-- Title: include/resources.h Pages: 1 -->
<svg width="200pt" height="302pt"
 viewBox="0.00 0.00 199.50 302.00" xmlns="http://www.w3.org/2000/svg" xmlns:xlink="http://www.w3.org/1999/xlink">
<g id="graph0" class="graph" transform="scale(1 1) rotate(0) translate(4 298)">
<title>include/resources.h</title>
<!-- Node1 -->
<g id="node1" class="node">
<title>Node1</title>
<g id="a_node1"><a xlink:title="Data types and functions for accessing embedded resources.">
<polygon fill="#999999" stroke="#666666" points="101,-294 0,-294 0,-275 101,-275 101,-294"/>
<text text-anchor="middle" x="50.5" y="-282" font-family="Helvetica,sans-Serif" font-size="10.00">include/resources.h</text>
</a>
</g>
</g>
<!-- Node2 -->
<g id="node2" class="node">
<title>Node2</title>
<g id="a_node2"><a xlink:href="bmem_8h.html" target="_top" xlink:title="Data types and functions for accessing banked memory.">
<polygon fill="white" stroke="#666666" points="76,-239 25,-239 25,-220 76,-220 76,-239"/>
<text text-anchor="middle" x="50.5" y="-227" font-family="Helvetica,sans-Serif" font-size="10.00">bmem.h</text>
</a>
</g>
</g>
<!-- Node1&#45;&gt;Node2 -->
<g id="edge1" class="edge">
<title>Node1&#45;&gt;Node2</title>
<path fill="none" stroke="#63b8ff" d="M50.5,-274.75C50.5,-268.27 50.5,-259.16 50.5,-250.9"/>
<polygon fill="#63b8ff" stroke="#63b8ff" points="54,-250.96 50.5,-240.96 47,-250.96 54,-250.96"/>
</g>
<!-- Node3 -->
<g id="node3" class="node">
<title>Node3</title>
<g id="a_node3"><a xlink:title=" ">
<polygon fill="#e0e0e0" stroke="#999999" points="85.5,-19 37.5,-19 37.5,0 85.5,0 85.5,-19"/>
<text text-anchor="middle" x="61.5" y="-7" font-family="Helvetica,sans-Serif" font-size="10.00">stdint.h</text>
</a>
</g>
</g>
<!-- Node2&#45;&gt;Node3 -->
<g id="edge2" class="edge">
<title>Node2&#45;&gt;Node3</title>
<path fill="none" stroke="#63b8ff" d="M50.94,-219.68C52.57,-187.57 58.18,-76.33 60.49,-30.49"/>
<polygon fill="#63b8ff" stroke="#63b8ff" points="63.98,-30.86 60.99,-20.7 56.99,-30.51 63.98,-30.86"/>
</g>
<!-- Node4 -->
<g id="node4" class="node">
<title>Node4</title>
<g id="a_node4"><a xlink:href="vmem_8h.html" target="_top" xlink:title="Data types and functions for VRAM access.">
<polygon fill="white" stroke="#666666" points="122,-184 71,-184 71,-165 122,-165 122,-184"/>
<text text-anchor="middle" x="96.5" y="-172" font-family="Helvetica,sans-Serif" font-size="10.00">vmem.h</text>
</a>
</g>
</g>
<!-- Node2&#45;&gt;Node4 -->
<g id="edge3" class="edge">
<title>Node2&#45;&gt;Node4</title>
<path fill="none" stroke="#63b8ff" d="M58.1,-219.75C64.38,-212.5 73.51,-201.98 81.3,-193.02"/>
<polygon fill="#63b8ff" stroke="#63b8ff" points="83.84,-195.43 87.75,-185.59 78.55,-190.84 83.84,-195.43"/>
</g>
<!-- Node4&#45;&gt;Node3 -->
<g id="edge4" class="edge">
<title>Node4&#45;&gt;Node3</title>
<path fill="none" stroke="#63b8ff" d="M92.82,-164.79C89.21,-155.92 83.78,-141.72 80.5,-129 71.73,-94.95 66.27,-54.3 63.56,-30.55"/>
<polygon fill="#63b8ff" stroke="#63b8ff" points="67.06,-30.31 62.5,-20.74 60.1,-31.06 67.06,-30.31"/>
</g>
<!-- Node5 -->
<g id="node5" class="node">
<title>Node5</title>
<g id="a_node5"><a xlink:title=" ">
<polygon fill="#e0e0e0" stroke="#999999" points="141,-129 90,-129 90,-110 141,-110 141,-129"/>
<text text-anchor="middle" x="115.5" y="-117" font-family="Helvetica,sans-Serif" font-size="10.00">stddef.h</text>
</a>
</g>
</g>
<!-- Node4&#45;&gt;Node5 -->
<g id="edge5" class="edge">
<title>Node4&#45;&gt;Node5</title>
<path fill="none" stroke="#63b8ff" d="M99.64,-164.75C102.04,-158.04 105.46,-148.52 108.5,-140.02"/>
<polygon fill="#63b8ff" stroke="#63b8ff" points="111.7,-141.46 111.78,-130.87 105.11,-139.1 111.7,-141.46"/>
</g>
<!-- Node6 -->
<g id="node6" class="node">
<title>Node6</title>
<g id="a_node6"><a xlink:href="io_8h.html" target="_top" xlink:title="Definition of I/O ports.">
<polygon fill="white" stroke="#666666" points="191.5,-129 159.5,-129 159.5,-110 191.5,-110 191.5,-129"/>
<text text-anchor="middle" x="175.5" y="-117" font-family="Helvetica,sans-Serif" font-size="10.00">io.h</text>
</a>
</g>
</g>
<!-- Node4&#45;&gt;Node6 -->
<g id="edge6" class="edge">
<title>Node4&#45;&gt;Node6</title>
<path fill="none" stroke="#63b8ff" d="M109.9,-164.51C121.66,-156.62 139.01,-144.98 152.91,-135.65"/>
<polygon fill="#63b8ff" stroke="#63b8ff" points="154.69,-138.68 161.04,-130.2 150.79,-132.87 154.69,-138.68"/>
</g>
<!-- Node7 -->
<g id="node7" class="node">
<title>Node7</title>
<g id="a_node7"><a xlink:href="config_8h.html" target="_top" xlink:title="Hack for C Compiler portability.">
<polygon fill="white" stroke="#666666" points="169.5,-74 119.5,-74 119.5,-55 169.5,-55 169.5,-74"/>
<text text-anchor="middle" x="144.5" y="-62" font-family="Helvetica,sans-Serif" font-size="10.00">config.h</text>
</a>
</g>
</g>
<!-- Node6&#45;&gt;Node7 -->
<g id="edge7" class="edge">
<title>Node6&#45;&gt;Node7</title>
<path fill="none" stroke="#63b8ff" d="M170.38,-109.75C166.32,-102.81 160.51,-92.86 155.41,-84.16"/>
<polygon fill="#63b8ff" stroke="#63b8ff" points="158.56,-82.61 150.49,-75.75 152.52,-86.15 158.56,-82.61"/>
</g>
<!-- Node7&#45;&gt;Node3 -->
<g id="edge8" class="edge">
<title>Node7&#45;&gt;Node3</title>
<path fill="none" stroke="#63b8ff" d="M130.42,-54.51C117.94,-46.54 99.48,-34.75 84.81,-25.38"/>
<polygon fill="#63b8ff" stroke="#63b8ff" points="86.96,-22.6 76.65,-20.17 83.19,-28.5 86.96,-22.6"/>
</g>
</g>
</svg>
