<?xml version="1.0" encoding="UTF-8" standalone="no"?>
<!DOCTYPE svg PUBLIC "-//W3C//DTD SVG 1.1//EN"
 "http://www.w3.org/Graphics/SVG/1.1/DTD/svg11.dtd">
<!-- Generated by graphviz version 9.0.0 (20230911.1827)
 -->
<!-- Title: include/resources.h Pages: 1 -->
<svg width="198pt" height="304pt"
 viewBox="0.00 0.00 197.50 303.50" xmlns="http://www.w3.org/2000/svg" xmlns:xlink="http://www.w3.org/1999/xlink">
<g id="graph0" class="graph" transform="scale(1 1) rotate(0) translate(4 299.5)">
<title>include/resources.h</title>
<!-- Node1 -->
<g id="Node000001" class="node">
<title>Node1</title>
<g id="a_Node000001"><a xlink:title="Data types and functions for accessing embedded resources.">
<polygon fill="#999999" stroke="#666666" points="100,-295.5 0,-295.5 0,-276.25 100,-276.25 100,-295.5"/>
<text text-anchor="middle" x="50" y="-282" font-family="Helvetica,sans-Serif" font-size="10.00">include/resources.h</text>
</a>
</g>
</g>
<!-- Node2 -->
<g id="Node000002" class="node">
<title>Node2</title>
<g id="a_Node000002"><a xlink:href="bmem_8h.html" target="_top" xlink:title="Data types and functions for accessing banked memory.">
<polygon fill="white" stroke="#666666" points="75.25,-240.25 24.75,-240.25 24.75,-221 75.25,-221 75.25,-240.25"/>
<text text-anchor="middle" x="50" y="-226.75" font-family="Helvetica,sans-Serif" font-size="10.00">bmem.h</text>
</a>
</g>
</g>
<!-- Node1&#45;&gt;Node2 -->
<g id="edge1_Node000001_Node000002" class="edge">
<title>Node1&#45;&gt;Node2</title>
<g id="a_edge1_Node000001_Node000002"><a xlink:title=" ">
<path fill="none" stroke="#63b8ff" d="M50,-276.08C50,-269.57 50,-260.42 50,-252.12"/>
<polygon fill="#63b8ff" stroke="#63b8ff" points="53.5,-252.12 50,-242.12 46.5,-252.12 53.5,-252.12"/>
</a>
</g>
</g>
<!-- Node3 -->
<g id="Node000003" class="node">
<title>Node3</title>
<g id="a_Node000003"><a xlink:title=" ">
<polygon fill="#e0e0e0" stroke="#999999" points="85.75,-19.25 38.25,-19.25 38.25,0 85.75,0 85.75,-19.25"/>
<text text-anchor="middle" x="62" y="-5.75" font-family="Helvetica,sans-Serif" font-size="10.00">stdint.h</text>
</a>
</g>
</g>
<!-- Node2&#45;&gt;Node3 -->
<g id="edge2_Node000002_Node000003" class="edge">
<title>Node2&#45;&gt;Node3</title>
<g id="a_edge2_Node000002_Node000003"><a xlink:title=" ">
<path fill="none" stroke="#63b8ff" d="M50.49,-220.77C52.25,-188.51 58.38,-76.76 60.9,-30.71"/>
<polygon fill="#63b8ff" stroke="#63b8ff" points="64.39,-31.04 61.44,-20.86 57.4,-30.66 64.39,-31.04"/>
</a>
</g>
</g>
<!-- Node4 -->
<g id="Node000004" class="node">
<title>Node4</title>
<g id="a_Node000004"><a xlink:href="vmem_8h.html" target="_top" xlink:title="Data types and functions for VRAM access.">
<polygon fill="white" stroke="#666666" points="121.25,-185 70.75,-185 70.75,-165.75 121.25,-165.75 121.25,-185"/>
<text text-anchor="middle" x="96" y="-171.5" font-family="Helvetica,sans-Serif" font-size="10.00">vmem.h</text>
</a>
</g>
</g>
<!-- Node2&#45;&gt;Node4 -->
<g id="edge3_Node000002_Node000004" class="edge">
<title>Node2&#45;&gt;Node4</title>
<g id="a_edge3_Node000002_Node000004"><a xlink:title=" ">
<path fill="none" stroke="#63b8ff" d="M57.6,-220.83C63.88,-213.55 73.01,-202.98 80.8,-193.98"/>
<polygon fill="#63b8ff" stroke="#63b8ff" points="83.36,-196.36 87.25,-186.5 78.06,-191.78 83.36,-196.36"/>
</a>
</g>
</g>
<!-- Node4&#45;&gt;Node3 -->
<g id="edge4_Node000004_Node000003" class="edge">
<title>Node4&#45;&gt;Node3</title>
<g id="a_edge4_Node000004_Node000003"><a xlink:title=" ">
<path fill="none" stroke="#63b8ff" d="M92.44,-165.28C89.08,-156.35 84.08,-142.29 81,-129.75 72.6,-95.6 67.05,-55 64.22,-31.11"/>
<polygon fill="#63b8ff" stroke="#63b8ff" points="67.7,-30.74 63.1,-21.2 60.74,-31.53 67.7,-30.74"/>
</a>
</g>
</g>
<!-- Node5 -->
<g id="Node000005" class="node">
<title>Node5</title>
<g id="a_Node000005"><a xlink:title=" ">
<polygon fill="#e0e0e0" stroke="#999999" points="140.25,-129.75 89.75,-129.75 89.75,-110.5 140.25,-110.5 140.25,-129.75"/>
<text text-anchor="middle" x="115" y="-116.25" font-family="Helvetica,sans-Serif" font-size="10.00">stddef.h</text>
</a>
</g>
</g>
<!-- Node4&#45;&gt;Node5 -->
<g id="edge5_Node000004_Node000005" class="edge">
<title>Node4&#45;&gt;Node5</title>
<g id="a_edge5_Node000004_Node000005"><a xlink:title=" ">
<path fill="none" stroke="#63b8ff" d="M99.14,-165.58C101.54,-158.84 104.96,-149.27 108,-140.74"/>
<polygon fill="#63b8ff" stroke="#63b8ff" points="111.22,-142.13 111.29,-131.53 104.63,-139.78 111.22,-142.13"/>
</a>
</g>
</g>
<!-- Node6 -->
<g id="Node000006" class="node">
<title>Node6</title>
<g id="a_Node000006"><a xlink:href="io_8h.html" target="_top" xlink:title="Definition of I/O ports.">
<polygon fill="white" stroke="#666666" points="189.5,-129.75 158.5,-129.75 158.5,-110.5 189.5,-110.5 189.5,-129.75"/>
<text text-anchor="middle" x="174" y="-116.25" font-family="Helvetica,sans-Serif" font-size="10.00">io.h</text>
</a>
</g>
</g>
<!-- Node4&#45;&gt;Node6 -->
<g id="edge6_Node000004_Node000006" class="edge">
<title>Node4&#45;&gt;Node6</title>
<g id="a_edge6_Node000004_Node000006"><a xlink:title=" ">
<path fill="none" stroke="#63b8ff" d="M109.23,-165.34C120.77,-157.46 137.77,-145.86 151.45,-136.52"/>
<polygon fill="#63b8ff" stroke="#63b8ff" points="153.17,-139.58 159.45,-131.06 149.22,-133.8 153.17,-139.58"/>
</a>
</g>
</g>
<!-- Node7 -->
<g id="Node000007" class="node">
<title>Node7</title>
<g id="a_Node000007"><a xlink:href="config_8h.html" target="_top" xlink:title="Hack for C Compiler portability.">
<polygon fill="white" stroke="#666666" points="168.5,-74.5 119.5,-74.5 119.5,-55.25 168.5,-55.25 168.5,-74.5"/>
<text text-anchor="middle" x="144" y="-61" font-family="Helvetica,sans-Serif" font-size="10.00">config.h</text>
</a>
</g>
</g>
<!-- Node6&#45;&gt;Node7 -->
<g id="edge7_Node000006_Node000007" class="edge">
<title>Node6&#45;&gt;Node7</title>
<g id="a_edge7_Node000006_Node000007"><a xlink:title=" ">
<path fill="none" stroke="#63b8ff" d="M169.05,-110.33C165.12,-103.36 159.49,-93.37 154.56,-84.62"/>
<polygon fill="#63b8ff" stroke="#63b8ff" points="157.76,-83.17 149.8,-76.18 151.66,-86.61 157.76,-83.17"/>
</a>
</g>
</g>
<!-- Node7&#45;&gt;Node3 -->
<g id="edge8_Node000007_Node000003" class="edge">
<title>Node7&#45;&gt;Node3</title>
<g id="a_edge8_Node000007_Node000003"><a xlink:title=" ">
<path fill="none" stroke="#63b8ff" d="M130.09,-54.84C117.84,-46.89 99.75,-35.14 85.29,-25.75"/>
<polygon fill="#63b8ff" stroke="#63b8ff" points="87.54,-23.04 77.25,-20.53 83.73,-28.91 87.54,-23.04"/>
</a>
</g>
</g>
</g>
</svg>
