<?xml version="1.0" encoding="UTF-8" standalone="no"?>
<!DOCTYPE svg PUBLIC "-//W3C//DTD SVG 1.1//EN"
 "http://www.w3.org/Graphics/SVG/1.1/DTD/svg11.dtd">
<!-- Generated by graphviz version 9.0.0 (20230911.1827)
 -->
<!-- Title: include/scc_buf.h Pages: 1 -->
<svg width="100pt" height="138pt"
 viewBox="0.00 0.00 99.75 137.75" xmlns="http://www.w3.org/2000/svg" xmlns:xlink="http://www.w3.org/1999/xlink">
<g id="graph0" class="graph" transform="scale(1 1) rotate(0) translate(4 133.75)">
<title>include/scc_buf.h</title>
<!-- Node1 -->
<g id="Node000001" class="node">
<title>Node1</title>
<g id="a_Node000001"><a xlink:title="Buffered access to SCC/SCC+ registers.">
<polygon fill="#999999" stroke="#666666" points="91.75,-129.75 0,-129.75 0,-110.5 91.75,-110.5 91.75,-129.75"/>
<text text-anchor="middle" x="45.88" y="-116.25" font-family="Helvetica,sans-Serif" font-size="10.00">include/scc_buf.h</text>
</a>
</g>
</g>
<!-- Node2 -->
<g id="Node000002" class="node">
<title>Node2</title>
<g id="a_Node000002"><a xlink:href="scc_8h.html" target="_top" xlink:title="Device interface for Konami SCC/SCC+ sound cartridge.">
<polygon fill="white" stroke="#666666" points="65.5,-74.5 26.25,-74.5 26.25,-55.25 65.5,-55.25 65.5,-74.5"/>
<text text-anchor="middle" x="45.88" y="-61" font-family="Helvetica,sans-Serif" font-size="10.00">scc.h</text>
</a>
</g>
</g>
<!-- Node1&#45;&gt;Node2 -->
<g id="edge1_Node000001_Node000002" class="edge">
<title>Node1&#45;&gt;Node2</title>
<g id="a_edge1_Node000001_Node000002"><a xlink:title=" ">
<path fill="none" stroke="#63b8ff" d="M45.88,-110.33C45.88,-103.82 45.88,-94.67 45.88,-86.37"/>
<polygon fill="#63b8ff" stroke="#63b8ff" points="49.38,-86.37 45.88,-76.37 42.38,-86.37 49.38,-86.37"/>
</a>
</g>
</g>
<!-- Node3 -->
<g id="Node000003" class="node">
<title>Node3</title>
<g id="a_Node000003"><a xlink:title=" ">
<polygon fill="#e0e0e0" stroke="#999999" points="69.62,-19.25 22.12,-19.25 22.12,0 69.62,0 69.62,-19.25"/>
<text text-anchor="middle" x="45.88" y="-5.75" font-family="Helvetica,sans-Serif" font-size="10.00">stdint.h</text>
</a>
</g>
</g>
<!-- Node2&#45;&gt;Node3 -->
<g id="edge2_Node000002_Node000003" class="edge">
<title>Node2&#45;&gt;Node3</title>
<g id="a_edge2_Node000002_Node000003"><a xlink:title=" ">
<path fill="none" stroke="#63b8ff" d="M45.88,-55.08C45.88,-48.57 45.88,-39.42 45.88,-31.12"/>
<polygon fill="#63b8ff" stroke="#63b8ff" points="49.38,-31.12 45.88,-21.12 42.38,-31.12 49.38,-31.12"/>
</a>
</g>
</g>
</g>
</svg>
