<?xml version="1.0" encoding="UTF-8" standalone="no"?>
<!DOCTYPE svg PUBLIC "-//W3C//DTD SVG 1.1//EN"
 "http://www.w3.org/Graphics/SVG/1.1/DTD/svg11.dtd">
<!-- Generated by graphviz version 12.2.0 (20241103.1931)
 -->
<!-- Title: include/sm2_cfg.h Pages: 1 -->
<svg width="116pt" height="138pt"
 viewBox="0.00 0.00 116.25 137.75" xmlns="http://www.w3.org/2000/svg" xmlns:xlink="http://www.w3.org/1999/xlink">
<g id="graph0" class="graph" transform="scale(1 1) rotate(0) translate(4 133.75)">
<title>include/sm2_cfg.h</title>
<!-- Node1 -->
<g id="Node000001" class="node">
<title>Node1</title>
<g id="a_Node000001"><a xlink:title="SM2 (Sprite Mode 2) Runtime configuration.">
<polygon fill="#999999" stroke="#666666" points="101.5,-129.75 6.75,-129.75 6.75,-110.5 101.5,-110.5 101.5,-129.75"/>
<text text-anchor="middle" x="54.12" y="-116.25" font-family="Helvetica,sans-Serif" font-size="10.00">include/sm2_cfg.h</text>
</a>
</g>
</g>
<!-- Node2 -->
<g id="Node000002" class="node">
<title>Node2</title>
<g id="a_Node000002"><a xlink:href="sm2_8h.html" target="_top" xlink:title="SM2 (Sprite Mode 2) Animated Color Sprites.">
<polygon fill="white" stroke="#666666" points="92.12,-74.5 16.12,-74.5 16.12,-55.25 92.12,-55.25 92.12,-74.5"/>
<text text-anchor="middle" x="54.12" y="-61" font-family="Helvetica,sans-Serif" font-size="10.00">include/sm2.h</text>
</a>
</g>
</g>
<!-- Node1&#45;&gt;Node2 -->
<g id="edge1_Node000001_Node000002" class="edge">
<title>Node1&#45;&gt;Node2</title>
<g id="a_edge1_Node000001_Node000002"><a xlink:title=" ">
<path fill="none" stroke="#63b8ff" d="M54.12,-98.88C54.12,-90.59 54.12,-81.42 54.12,-74.86"/>
<polygon fill="#63b8ff" stroke="#63b8ff" points="50.63,-98.82 54.13,-108.82 57.63,-98.82 50.63,-98.82"/>
</a>
</g>
</g>
<!-- Node3 -->
<g id="Node000003" class="node">
<title>Node3</title>
<g id="a_Node000003"><a xlink:href="sm2__bmem_8h.html" target="_top" xlink:title="SM2 (Sprite Mode 2) internal APIs for BMEM / Resources.">
<polygon fill="white" stroke="#666666" points="108.25,-19.25 0,-19.25 0,0 108.25,0 108.25,-19.25"/>
<text text-anchor="middle" x="54.12" y="-5.75" font-family="Helvetica,sans-Serif" font-size="10.00">include/sm2_bmem.h</text>
</a>
</g>
</g>
<!-- Node2&#45;&gt;Node3 -->
<g id="edge2_Node000002_Node000003" class="edge">
<title>Node2&#45;&gt;Node3</title>
<g id="a_edge2_Node000002_Node000003"><a xlink:title=" ">
<path fill="none" stroke="#63b8ff" d="M54.12,-43.63C54.12,-35.34 54.12,-26.17 54.12,-19.61"/>
<polygon fill="#63b8ff" stroke="#63b8ff" points="50.63,-43.57 54.13,-53.57 57.63,-43.57 50.63,-43.57"/>
</a>
</g>
</g>
</g>
</svg>
