<?xml version="1.0" encoding="UTF-8" standalone="no"?>
<!DOCTYPE svg PUBLIC "-//W3C//DTD SVG 1.1//EN"
 "http://www.w3.org/Graphics/SVG/1.1/DTD/svg11.dtd">
<!-- Generated by graphviz version 12.2.0 (20241103.1931)
 -->
<!-- Title: include/sm2_cfg.h Pages: 1 -->
<svg width="133pt" height="248pt"
 viewBox="0.00 0.00 133.25 248.25" xmlns="http://www.w3.org/2000/svg" xmlns:xlink="http://www.w3.org/1999/xlink">
<g id="graph0" class="graph" transform="scale(1 1) rotate(0) translate(4 244.25)">
<title>include/sm2_cfg.h</title>
<!-- Node1 -->
<g id="Node000001" class="node">
<title>Node1</title>
<g id="a_Node000001"><a xlink:title="SM2 (Sprite Mode 2) Runtime configuration.">
<polygon fill="#999999" stroke="#666666" points="98.12,-240.25 3.38,-240.25 3.38,-221 98.12,-221 98.12,-240.25"/>
<text text-anchor="middle" x="50.75" y="-226.75" font-family="Helvetica,sans-Serif" font-size="10.00">include/sm2_cfg.h</text>
</a>
</g>
</g>
<!-- Node2 -->
<g id="Node000002" class="node">
<title>Node2</title>
<g id="a_Node000002"><a xlink:href="vmem_8h.html" target="_top" xlink:title="Data types and functions for VRAM access.">
<polygon fill="white" stroke="#666666" points="76,-185 25.5,-185 25.5,-165.75 76,-165.75 76,-185"/>
<text text-anchor="middle" x="50.75" y="-171.5" font-family="Helvetica,sans-Serif" font-size="10.00">vmem.h</text>
</a>
</g>
</g>
<!-- Node1&#45;&gt;Node2 -->
<g id="edge1_Node000001_Node000002" class="edge">
<title>Node1&#45;&gt;Node2</title>
<g id="a_edge1_Node000001_Node000002"><a xlink:title=" ">
<path fill="none" stroke="#63b8ff" d="M50.75,-220.83C50.75,-214.32 50.75,-205.17 50.75,-196.87"/>
<polygon fill="#63b8ff" stroke="#63b8ff" points="54.25,-196.87 50.75,-186.87 47.25,-196.87 54.25,-196.87"/>
</a>
</g>
</g>
<!-- Node3 -->
<g id="Node000003" class="node">
<title>Node3</title>
<g id="a_Node000003"><a xlink:title=" ">
<polygon fill="#e0e0e0" stroke="#999999" points="47.5,-19.25 0,-19.25 0,0 47.5,0 47.5,-19.25"/>
<text text-anchor="middle" x="23.75" y="-5.75" font-family="Helvetica,sans-Serif" font-size="10.00">stdint.h</text>
</a>
</g>
</g>
<!-- Node2&#45;&gt;Node3 -->
<g id="edge2_Node000002_Node000003" class="edge">
<title>Node2&#45;&gt;Node3</title>
<g id="a_edge2_Node000002_Node000003"><a xlink:title=" ">
<path fill="none" stroke="#63b8ff" d="M41.14,-165.54C32.88,-157.22 21.55,-143.96 16.75,-129.75 5.47,-96.32 12.29,-54.65 18.13,-30.49"/>
<polygon fill="#63b8ff" stroke="#63b8ff" points="21.45,-31.62 20.61,-21.06 14.68,-29.84 21.45,-31.62"/>
</a>
</g>
</g>
<!-- Node4 -->
<g id="Node000004" class="node">
<title>Node4</title>
<g id="a_Node000004"><a xlink:title=" ">
<polygon fill="#e0e0e0" stroke="#999999" points="76,-129.75 25.5,-129.75 25.5,-110.5 76,-110.5 76,-129.75"/>
<text text-anchor="middle" x="50.75" y="-116.25" font-family="Helvetica,sans-Serif" font-size="10.00">stddef.h</text>
</a>
</g>
</g>
<!-- Node2&#45;&gt;Node4 -->
<g id="edge3_Node000002_Node000004" class="edge">
<title>Node2&#45;&gt;Node4</title>
<g id="a_edge3_Node000002_Node000004"><a xlink:title=" ">
<path fill="none" stroke="#63b8ff" d="M50.75,-165.58C50.75,-159.07 50.75,-149.92 50.75,-141.62"/>
<polygon fill="#63b8ff" stroke="#63b8ff" points="54.25,-141.62 50.75,-131.62 47.25,-141.62 54.25,-141.62"/>
</a>
</g>
</g>
<!-- Node5 -->
<g id="Node000005" class="node">
<title>Node5</title>
<g id="a_Node000005"><a xlink:href="io_8h.html" target="_top" xlink:title="Definition of I/O ports.">
<polygon fill="white" stroke="#666666" points="125.25,-129.75 94.25,-129.75 94.25,-110.5 125.25,-110.5 125.25,-129.75"/>
<text text-anchor="middle" x="109.75" y="-116.25" font-family="Helvetica,sans-Serif" font-size="10.00">io.h</text>
</a>
</g>
</g>
<!-- Node2&#45;&gt;Node5 -->
<g id="edge4_Node000002_Node000005" class="edge">
<title>Node2&#45;&gt;Node5</title>
<g id="a_edge4_Node000002_Node000005"><a xlink:title=" ">
<path fill="none" stroke="#63b8ff" d="M60.76,-165.34C69.12,-157.8 81.25,-146.85 91.35,-137.73"/>
<polygon fill="#63b8ff" stroke="#63b8ff" points="93.69,-140.34 98.77,-131.04 89,-135.14 93.69,-140.34"/>
</a>
</g>
</g>
<!-- Node6 -->
<g id="Node000006" class="node">
<title>Node6</title>
<g id="a_Node000006"><a xlink:href="config_8h.html" target="_top" xlink:title="Hack for C Compiler portability.">
<polygon fill="white" stroke="#666666" points="104.25,-74.5 55.25,-74.5 55.25,-55.25 104.25,-55.25 104.25,-74.5"/>
<text text-anchor="middle" x="79.75" y="-61" font-family="Helvetica,sans-Serif" font-size="10.00">config.h</text>
</a>
</g>
</g>
<!-- Node5&#45;&gt;Node6 -->
<g id="edge5_Node000005_Node000006" class="edge">
<title>Node5&#45;&gt;Node6</title>
<g id="a_edge5_Node000005_Node000006"><a xlink:title=" ">
<path fill="none" stroke="#63b8ff" d="M104.8,-110.33C100.87,-103.36 95.24,-93.37 90.31,-84.62"/>
<polygon fill="#63b8ff" stroke="#63b8ff" points="93.51,-83.17 85.55,-76.18 87.41,-86.61 93.51,-83.17"/>
</a>
</g>
</g>
<!-- Node6&#45;&gt;Node3 -->
<g id="edge6_Node000006_Node000003" class="edge">
<title>Node6&#45;&gt;Node3</title>
<g id="a_edge6_Node000006_Node000003"><a xlink:title=" ">
<path fill="none" stroke="#63b8ff" d="M70.25,-54.84C62.32,-47.3 50.8,-36.35 41.21,-27.23"/>
<polygon fill="#63b8ff" stroke="#63b8ff" points="43.86,-24.92 34.21,-20.57 39.04,-29.99 43.86,-24.92"/>
</a>
</g>
</g>
</g>
</svg>
