<?xml version="1.0" encoding="UTF-8" standalone="no"?>
<!DOCTYPE svg PUBLIC "-//W3C//DTD SVG 1.1//EN"
 "http://www.w3.org/Graphics/SVG/1.1/DTD/svg11.dtd">
<!-- Generated by graphviz version 12.2.0 (20241103.1931)
 -->
<!-- Title: include/sm2_bmem.h Pages: 1 -->
<svg width="216pt" height="414pt"
 viewBox="0.00 0.00 215.75 414.00" xmlns="http://www.w3.org/2000/svg" xmlns:xlink="http://www.w3.org/1999/xlink">
<g id="graph0" class="graph" transform="scale(1 1) rotate(0) translate(4 410)">
<title>include/sm2_bmem.h</title>
<!-- Node1 -->
<g id="Node000001" class="node">
<title>Node1</title>
<g id="a_Node000001"><a xlink:title="SM2 (Sprite Mode 2) internal APIs for BMEM / Resources.">
<polygon fill="#999999" stroke="#666666" points="143.88,-406 35.62,-406 35.62,-386.75 143.88,-386.75 143.88,-406"/>
<text text-anchor="middle" x="89.75" y="-392.5" font-family="Helvetica,sans-Serif" font-size="10.00">include/sm2_bmem.h</text>
</a>
</g>
</g>
<!-- Node2 -->
<g id="Node000002" class="node">
<title>Node2</title>
<g id="a_Node000002"><a xlink:href="sm2_8h.html" target="_top" xlink:title="SM2 (Sprite Mode 2) Animated Color Sprites.">
<polygon fill="white" stroke="#666666" points="110.88,-350.75 68.62,-350.75 68.62,-331.5 110.88,-331.5 110.88,-350.75"/>
<text text-anchor="middle" x="89.75" y="-337.25" font-family="Helvetica,sans-Serif" font-size="10.00">sm2.h</text>
</a>
</g>
</g>
<!-- Node1&#45;&gt;Node2 -->
<g id="edge1_Node000001_Node000002" class="edge">
<title>Node1&#45;&gt;Node2</title>
<g id="a_edge1_Node000001_Node000002"><a xlink:title=" ">
<path fill="none" stroke="#63b8ff" d="M89.75,-386.58C89.75,-380.07 89.75,-370.92 89.75,-362.62"/>
<polygon fill="#63b8ff" stroke="#63b8ff" points="93.25,-362.62 89.75,-352.62 86.25,-362.62 93.25,-362.62"/>
</a>
</g>
</g>
<!-- Node3 -->
<g id="Node000003" class="node">
<title>Node3</title>
<g id="a_Node000003"><a xlink:href="sm2__cfg_8h.html" target="_top" xlink:title="SM2 (Sprite Mode 2) Runtime configuration.">
<polygon fill="white" stroke="#666666" points="126.25,-240.25 65.25,-240.25 65.25,-221 126.25,-221 126.25,-240.25"/>
<text text-anchor="middle" x="95.75" y="-226.75" font-family="Helvetica,sans-Serif" font-size="10.00">sm2_cfg.h</text>
</a>
</g>
</g>
<!-- Node2&#45;&gt;Node3 -->
<g id="edge2_Node000002_Node000003" class="edge">
<title>Node2&#45;&gt;Node3</title>
<g id="a_edge2_Node000002_Node000003"><a xlink:title=" ">
<path fill="none" stroke="#63b8ff" d="M90.24,-331.25C91.19,-314 93.32,-275.58 94.63,-251.81"/>
<polygon fill="#63b8ff" stroke="#63b8ff" points="98.11,-252.32 95.17,-242.14 91.12,-251.93 98.11,-252.32"/>
</a>
</g>
</g>
<!-- Node9 -->
<g id="Node000009" class="node">
<title>Node9</title>
<g id="a_Node000009"><a xlink:href="sprite_8h.html" target="_top" xlink:title="Sprites.">
<polygon fill="white" stroke="#666666" points="47.5,-240.25 0,-240.25 0,-221 47.5,-221 47.5,-240.25"/>
<text text-anchor="middle" x="23.75" y="-226.75" font-family="Helvetica,sans-Serif" font-size="10.00">sprite.h</text>
</a>
</g>
</g>
<!-- Node2&#45;&gt;Node9 -->
<g id="edge9_Node000002_Node000009" class="edge">
<title>Node2&#45;&gt;Node9</title>
<g id="a_edge9_Node000002_Node000009"><a xlink:title=" ">
<path fill="none" stroke="#63b8ff" d="M84.35,-331.25C73.62,-313.6 49.41,-273.8 35.05,-250.2"/>
<polygon fill="#63b8ff" stroke="#63b8ff" points="38.2,-248.64 30.01,-241.92 32.22,-252.28 38.2,-248.64"/>
</a>
</g>
</g>
<!-- Node10 -->
<g id="Node000010" class="node">
<title>Node10</title>
<g id="a_Node000010"><a xlink:href="sprite__color_8h.html" target="_top" xlink:title="Sprite color table interface.">
<polygon fill="white" stroke="#666666" points="191.62,-295.5 117.88,-295.5 117.88,-276.25 191.62,-276.25 191.62,-295.5"/>
<text text-anchor="middle" x="154.75" y="-282" font-family="Helvetica,sans-Serif" font-size="10.00">sprite_color.h</text>
</a>
</g>
</g>
<!-- Node2&#45;&gt;Node10 -->
<g id="edge12_Node000002_Node000010" class="edge">
<title>Node2&#45;&gt;Node10</title>
<g id="a_edge12_Node000002_Node000010"><a xlink:title=" ">
<path fill="none" stroke="#63b8ff" d="M100.78,-331.09C110.17,-323.4 123.9,-312.15 135.16,-302.93"/>
<polygon fill="#63b8ff" stroke="#63b8ff" points="137.2,-305.78 142.72,-296.73 132.76,-300.36 137.2,-305.78"/>
</a>
</g>
</g>
<!-- Node4 -->
<g id="Node000004" class="node">
<title>Node4</title>
<g id="a_Node000004"><a xlink:href="vmem_8h.html" target="_top" xlink:title="Data types and functions for VRAM access.">
<polygon fill="white" stroke="#666666" points="121,-185 70.5,-185 70.5,-165.75 121,-165.75 121,-185"/>
<text text-anchor="middle" x="95.75" y="-171.5" font-family="Helvetica,sans-Serif" font-size="10.00">vmem.h</text>
</a>
</g>
</g>
<!-- Node3&#45;&gt;Node4 -->
<g id="edge3_Node000003_Node000004" class="edge">
<title>Node3&#45;&gt;Node4</title>
<g id="a_edge3_Node000003_Node000004"><a xlink:title=" ">
<path fill="none" stroke="#63b8ff" d="M95.75,-220.83C95.75,-214.32 95.75,-205.17 95.75,-196.87"/>
<polygon fill="#63b8ff" stroke="#63b8ff" points="99.25,-196.87 95.75,-186.87 92.25,-196.87 99.25,-196.87"/>
</a>
</g>
</g>
<!-- Node5 -->
<g id="Node000005" class="node">
<title>Node5</title>
<g id="a_Node000005"><a xlink:title=" ">
<polygon fill="#e0e0e0" stroke="#999999" points="101.5,-19.25 54,-19.25 54,0 101.5,0 101.5,-19.25"/>
<text text-anchor="middle" x="77.75" y="-5.75" font-family="Helvetica,sans-Serif" font-size="10.00">stdint.h</text>
</a>
</g>
</g>
<!-- Node4&#45;&gt;Node5 -->
<g id="edge4_Node000004_Node000005" class="edge">
<title>Node4&#45;&gt;Node5</title>
<g id="a_edge4_Node000004_Node000005"><a xlink:title=" ">
<path fill="none" stroke="#63b8ff" d="M88.89,-165.4C82.77,-156.79 74.25,-143.15 70.75,-129.75 61.88,-95.77 67.83,-54.55 72.86,-30.58"/>
<polygon fill="#63b8ff" stroke="#63b8ff" points="76.24,-31.48 75.05,-20.95 69.42,-29.92 76.24,-31.48"/>
</a>
</g>
</g>
<!-- Node6 -->
<g id="Node000006" class="node">
<title>Node6</title>
<g id="a_Node000006"><a xlink:title=" ">
<polygon fill="#e0e0e0" stroke="#999999" points="180,-129.75 129.5,-129.75 129.5,-110.5 180,-110.5 180,-129.75"/>
<text text-anchor="middle" x="154.75" y="-116.25" font-family="Helvetica,sans-Serif" font-size="10.00">stddef.h</text>
</a>
</g>
</g>
<!-- Node4&#45;&gt;Node6 -->
<g id="edge5_Node000004_Node000006" class="edge">
<title>Node4&#45;&gt;Node6</title>
<g id="a_edge5_Node000004_Node000006"><a xlink:title=" ">
<path fill="none" stroke="#63b8ff" d="M105.76,-165.34C114.12,-157.8 126.25,-146.85 136.35,-137.73"/>
<polygon fill="#63b8ff" stroke="#63b8ff" points="138.69,-140.34 143.77,-131.04 134,-135.14 138.69,-140.34"/>
</a>
</g>
</g>
<!-- Node7 -->
<g id="Node000007" class="node">
<title>Node7</title>
<g id="a_Node000007"><a xlink:href="io_8h.html" target="_top" xlink:title="Definition of I/O ports.">
<polygon fill="white" stroke="#666666" points="111.25,-129.75 80.25,-129.75 80.25,-110.5 111.25,-110.5 111.25,-129.75"/>
<text text-anchor="middle" x="95.75" y="-116.25" font-family="Helvetica,sans-Serif" font-size="10.00">io.h</text>
</a>
</g>
</g>
<!-- Node4&#45;&gt;Node7 -->
<g id="edge6_Node000004_Node000007" class="edge">
<title>Node4&#45;&gt;Node7</title>
<g id="a_edge6_Node000004_Node000007"><a xlink:title=" ">
<path fill="none" stroke="#63b8ff" d="M95.75,-165.58C95.75,-159.07 95.75,-149.92 95.75,-141.62"/>
<polygon fill="#63b8ff" stroke="#63b8ff" points="99.25,-141.62 95.75,-131.62 92.25,-141.62 99.25,-141.62"/>
</a>
</g>
</g>
<!-- Node8 -->
<g id="Node000008" class="node">
<title>Node8</title>
<g id="a_Node000008"><a xlink:href="config_8h.html" target="_top" xlink:title="Hack for C Compiler portability.">
<polygon fill="white" stroke="#666666" points="129.25,-74.5 80.25,-74.5 80.25,-55.25 129.25,-55.25 129.25,-74.5"/>
<text text-anchor="middle" x="104.75" y="-61" font-family="Helvetica,sans-Serif" font-size="10.00">config.h</text>
</a>
</g>
</g>
<!-- Node7&#45;&gt;Node8 -->
<g id="edge7_Node000007_Node000008" class="edge">
<title>Node7&#45;&gt;Node8</title>
<g id="a_edge7_Node000007_Node000008"><a xlink:title=" ">
<path fill="none" stroke="#63b8ff" d="M97.24,-110.33C98.35,-103.74 99.92,-94.46 101.34,-86.07"/>
<polygon fill="#63b8ff" stroke="#63b8ff" points="104.76,-86.8 102.98,-76.35 97.86,-85.63 104.76,-86.8"/>
</a>
</g>
</g>
<!-- Node8&#45;&gt;Node5 -->
<g id="edge8_Node000008_Node000005" class="edge">
<title>Node8&#45;&gt;Node5</title>
<g id="a_edge8_Node000008_Node000005"><a xlink:title=" ">
<path fill="none" stroke="#63b8ff" d="M100.29,-55.08C96.8,-48.19 91.8,-38.34 87.4,-29.66"/>
<polygon fill="#63b8ff" stroke="#63b8ff" points="90.63,-28.3 82.99,-20.96 84.39,-31.46 90.63,-28.3"/>
</a>
</g>
</g>
<!-- Node9&#45;&gt;Node4 -->
<g id="edge11_Node000009_Node000004" class="edge">
<title>Node9&#45;&gt;Node4</title>
<g id="a_edge11_Node000009_Node000004"><a xlink:title=" ">
<path fill="none" stroke="#63b8ff" d="M35.96,-220.59C46.58,-212.74 62.19,-201.2 74.79,-191.87"/>
<polygon fill="#63b8ff" stroke="#63b8ff" points="76.54,-194.94 82.5,-186.17 72.38,-189.31 76.54,-194.94"/>
</a>
</g>
</g>
<!-- Node9&#45;&gt;Node5 -->
<g id="edge10_Node000009_Node000005" class="edge">
<title>Node9&#45;&gt;Node5</title>
<g id="a_edge10_Node000009_Node000005"><a xlink:title=" ">
<path fill="none" stroke="#63b8ff" d="M25.38,-220.84C30.21,-195.14 45.24,-118 62.75,-55.25 65.06,-46.98 67.99,-37.99 70.66,-30.26"/>
<polygon fill="#63b8ff" stroke="#63b8ff" points="73.95,-31.45 73.98,-20.86 67.35,-29.12 73.95,-31.45"/>
</a>
</g>
</g>
<!-- Node10&#45;&gt;Node4 -->
<g id="edge15_Node000010_Node000004" class="edge">
<title>Node10&#45;&gt;Node4</title>
<g id="a_edge15_Node000010_Node000004"><a xlink:title=" ">
<path fill="none" stroke="#63b8ff" d="M153.41,-276.13C151.18,-263.37 145.92,-239.18 135.75,-221 130.07,-210.84 121.71,-201.04 114.1,-193.22"/>
<polygon fill="#63b8ff" stroke="#63b8ff" points="116.7,-190.86 107.1,-186.38 111.81,-195.87 116.7,-190.86"/>
</a>
</g>
</g>
<!-- Node10&#45;&gt;Node5 -->
<g id="edge13_Node000010_Node000005" class="edge">
<title>Node10&#45;&gt;Node5</title>
<g id="a_edge13_Node000010_Node000005"><a xlink:title=" ">
<path fill="none" stroke="#63b8ff" d="M162.57,-276.02C177.31,-258.38 207.75,-217.05 207.75,-176.38 207.75,-176.38 207.75,-176.38 207.75,-119.12 207.75,-69.28 150.72,-37.86 112.21,-22.33"/>
<polygon fill="#63b8ff" stroke="#63b8ff" points="113.9,-19.23 103.31,-18.91 111.39,-25.77 113.9,-19.23"/>
</a>
</g>
</g>
<!-- Node10&#45;&gt;Node9 -->
<g id="edge14_Node000010_Node000009" class="edge">
<title>Node10&#45;&gt;Node9</title>
<g id="a_edge14_Node000010_Node000009"><a xlink:title=" ">
<path fill="none" stroke="#63b8ff" d="M132.53,-275.84C111.73,-267.39 80.4,-254.65 56.7,-245.02"/>
<polygon fill="#63b8ff" stroke="#63b8ff" points="58.07,-241.8 47.48,-241.27 55.43,-248.28 58.07,-241.8"/>
</a>
</g>
</g>
</g>
</svg>
