<?xml version="1.0" encoding="UTF-8" standalone="no"?>
<!DOCTYPE svg PUBLIC "-//W3C//DTD SVG 1.1//EN"
 "http://www.w3.org/Graphics/SVG/1.1/DTD/svg11.dtd">
<!-- Generated by graphviz version 9.0.0 (20230911.1827)
 -->
<!-- Title: include/snd_i_table.h Pages: 1 -->
<svg width="115pt" height="138pt"
 viewBox="0.00 0.00 114.75 137.75" xmlns="http://www.w3.org/2000/svg" xmlns:xlink="http://www.w3.org/1999/xlink">
<g id="graph0" class="graph" transform="scale(1 1) rotate(0) translate(4 133.75)">
<title>include/snd_i_table.h</title>
<!-- Node1 -->
<g id="Node000001" class="node">
<title>Node1</title>
<g id="a_Node000001"><a xlink:title="Instrument data type for SNDDRV.">
<polygon fill="#999999" stroke="#666666" points="106.75,-129.75 0,-129.75 0,-110.5 106.75,-110.5 106.75,-129.75"/>
<text text-anchor="middle" x="53.38" y="-116.25" font-family="Helvetica,sans-Serif" font-size="10.00">include/snd_i_table.h</text>
</a>
</g>
</g>
<!-- Node2 -->
<g id="Node000002" class="node">
<title>Node2</title>
<g id="a_Node000002"><a xlink:href="snd__sound_8h.html" target="_top" xlink:title="Sound / Music data structure for snddrv.">
<polygon fill="white" stroke="#666666" points="105.62,-74.5 1.12,-74.5 1.12,-55.25 105.62,-55.25 105.62,-74.5"/>
<text text-anchor="middle" x="53.38" y="-61" font-family="Helvetica,sans-Serif" font-size="10.00">include/snd_sound.h</text>
</a>
</g>
</g>
<!-- Node1&#45;&gt;Node2 -->
<g id="edge1_Node000001_Node000002" class="edge">
<title>Node1&#45;&gt;Node2</title>
<g id="a_edge1_Node000001_Node000002"><a xlink:title=" ">
<path fill="none" stroke="#63b8ff" d="M53.38,-98.88C53.38,-90.59 53.38,-81.42 53.38,-74.86"/>
<polygon fill="#63b8ff" stroke="#63b8ff" points="49.88,-98.82 53.38,-108.82 56.88,-98.82 49.88,-98.82"/>
</a>
</g>
</g>
<!-- Node3 -->
<g id="Node000003" class="node">
<title>Node3</title>
<g id="a_Node000003"><a xlink:href="snddrv_8h.html" target="_top" xlink:title="SNDDRV a PSG sound driver.">
<polygon fill="white" stroke="#666666" points="96.62,-19.25 10.12,-19.25 10.12,0 96.62,0 96.62,-19.25"/>
<text text-anchor="middle" x="53.38" y="-5.75" font-family="Helvetica,sans-Serif" font-size="10.00">include/snddrv.h</text>
</a>
</g>
</g>
<!-- Node2&#45;&gt;Node3 -->
<g id="edge2_Node000002_Node000003" class="edge">
<title>Node2&#45;&gt;Node3</title>
<g id="a_edge2_Node000002_Node000003"><a xlink:title=" ">
<path fill="none" stroke="#63b8ff" d="M53.38,-43.63C53.38,-35.34 53.38,-26.17 53.38,-19.61"/>
<polygon fill="#63b8ff" stroke="#63b8ff" points="49.88,-43.57 53.38,-53.57 56.88,-43.57 49.88,-43.57"/>
</a>
</g>
</g>
</g>
</svg>
