<?xml version="1.0" encoding="UTF-8" standalone="no"?>
<!DOCTYPE svg PUBLIC "-//W3C//DTD SVG 1.1//EN"
 "http://www.w3.org/Graphics/SVG/1.1/DTD/svg11.dtd">
<!-- Generated by graphviz version 9.0.0 (20230911.1827)
 -->
<!-- Title: include/snd_p_table.h Pages: 1 -->
<svg width="118pt" height="138pt"
 viewBox="0.00 0.00 117.75 137.75" xmlns="http://www.w3.org/2000/svg" xmlns:xlink="http://www.w3.org/1999/xlink">
<g id="graph0" class="graph" transform="scale(1 1) rotate(0) translate(4 133.75)">
<title>include/snd_p_table.h</title>
<!-- Node1 -->
<g id="Node000001" class="node">
<title>Node1</title>
<g id="a_Node000001"><a xlink:title="Pitch&#45;bend table data type for SNDDRV.">
<polygon fill="#999999" stroke="#666666" points="109.75,-129.75 0,-129.75 0,-110.5 109.75,-110.5 109.75,-129.75"/>
<text text-anchor="middle" x="54.88" y="-116.25" font-family="Helvetica,sans-Serif" font-size="10.00">include/snd_p_table.h</text>
</a>
</g>
</g>
<!-- Node2 -->
<g id="Node000002" class="node">
<title>Node2</title>
<g id="a_Node000002"><a xlink:href="snd__sound_8h.html" target="_top" xlink:title="Sound / Music data structure for snddrv.">
<polygon fill="white" stroke="#666666" points="107.12,-74.5 2.62,-74.5 2.62,-55.25 107.12,-55.25 107.12,-74.5"/>
<text text-anchor="middle" x="54.88" y="-61" font-family="Helvetica,sans-Serif" font-size="10.00">include/snd_sound.h</text>
</a>
</g>
</g>
<!-- Node1&#45;&gt;Node2 -->
<g id="edge1_Node000001_Node000002" class="edge">
<title>Node1&#45;&gt;Node2</title>
<g id="a_edge1_Node000001_Node000002"><a xlink:title=" ">
<path fill="none" stroke="#63b8ff" d="M54.88,-98.88C54.88,-90.59 54.88,-81.42 54.88,-74.86"/>
<polygon fill="#63b8ff" stroke="#63b8ff" points="51.38,-98.82 54.88,-108.82 58.38,-98.82 51.38,-98.82"/>
</a>
</g>
</g>
<!-- Node3 -->
<g id="Node000003" class="node">
<title>Node3</title>
<g id="a_Node000003"><a xlink:href="snddrv_8h.html" target="_top" xlink:title="SNDDRV a PSG sound driver.">
<polygon fill="white" stroke="#666666" points="98.12,-19.25 11.62,-19.25 11.62,0 98.12,0 98.12,-19.25"/>
<text text-anchor="middle" x="54.88" y="-5.75" font-family="Helvetica,sans-Serif" font-size="10.00">include/snddrv.h</text>
</a>
</g>
</g>
<!-- Node2&#45;&gt;Node3 -->
<g id="edge2_Node000002_Node000003" class="edge">
<title>Node2&#45;&gt;Node3</title>
<g id="a_edge2_Node000002_Node000003"><a xlink:title=" ">
<path fill="none" stroke="#63b8ff" d="M54.88,-43.63C54.88,-35.34 54.88,-26.17 54.88,-19.61"/>
<polygon fill="#63b8ff" stroke="#63b8ff" points="51.38,-43.57 54.88,-53.57 58.38,-43.57 51.38,-43.57"/>
</a>
</g>
</g>
</g>
</svg>
