<?xml version="1.0" encoding="UTF-8" standalone="no"?>
<!DOCTYPE svg PUBLIC "-//W3C//DTD SVG 1.1//EN"
 "http://www.w3.org/Graphics/SVG/1.1/DTD/svg11.dtd">
<!-- Generated by graphviz version 3.0.0 (20221109.1736)
 -->
<!-- Title: include/snd_sound.h Pages: 1 -->
<svg width="360pt" height="140pt"
 viewBox="0.00 0.00 359.50 140.00" xmlns="http://www.w3.org/2000/svg" xmlns:xlink="http://www.w3.org/1999/xlink">
<g id="graph0" class="graph" transform="scale(1 1) rotate(0) translate(4 136)">
<title>include/snd_sound.h</title>
<!-- Node1 -->
<g id="node1" class="node">
<title>Node1</title>
<g id="a_node1"><a xlink:title="Sound / Music data structure for snddrv.">
<polygon fill="#bfbfbf" stroke="black" points="85.5,-112.5 85.5,-131.5 190.5,-131.5 190.5,-112.5 85.5,-112.5"/>
<text text-anchor="middle" x="138" y="-119.5" font-family="Helvetica,sans-Serif" font-size="10.00">include/snd_sound.h</text>
</a>
</g>
</g>
<!-- Node2 -->
<g id="node2" class="node">
<title>Node2</title>
<g id="a_node2"><a xlink:title=" ">
<polygon fill="none" stroke="#bfbfbf" points="0,-56.5 0,-75.5 56,-75.5 56,-56.5 0,-56.5"/>
<text text-anchor="middle" x="28" y="-63.5" font-family="Helvetica,sans-Serif" font-size="10.00">stdbool.h</text>
</a>
</g>
</g>
<!-- Node1&#45;&gt;Node2 -->
<g id="edge1" class="edge">
<title>Node1&#45;&gt;Node2</title>
<path fill="none" stroke="midnightblue" d="M120.33,-112.32C102.61,-103.62 75.1,-90.12 54.71,-80.11"/>
<polygon fill="midnightblue" stroke="midnightblue" points="56.15,-76.92 45.63,-75.65 53.06,-83.2 56.15,-76.92"/>
</g>
<!-- Node3 -->
<g id="node3" class="node">
<title>Node3</title>
<g id="a_node3"><a xlink:title=" ">
<polygon fill="none" stroke="#bfbfbf" points="195,-0.5 195,-19.5 243,-19.5 243,-0.5 195,-0.5"/>
<text text-anchor="middle" x="219" y="-7.5" font-family="Helvetica,sans-Serif" font-size="10.00">stdint.h</text>
</a>
</g>
</g>
<!-- Node1&#45;&gt;Node3 -->
<g id="edge2" class="edge">
<title>Node1&#45;&gt;Node3</title>
<path fill="none" stroke="midnightblue" d="M127.13,-112.25C112.56,-99.44 89.97,-75.04 103,-56 121.18,-29.45 157.48,-18.56 184.66,-14.1"/>
<polygon fill="midnightblue" stroke="midnightblue" points="185.17,-17.56 194.57,-12.68 184.18,-10.63 185.17,-17.56"/>
</g>
<!-- Node4 -->
<g id="node4" class="node">
<title>Node4</title>
<g id="a_node4"><a xlink:title=" ">
<polygon fill="none" stroke="#bfbfbf" points="112.5,-56.5 112.5,-75.5 163.5,-75.5 163.5,-56.5 112.5,-56.5"/>
<text text-anchor="middle" x="138" y="-63.5" font-family="Helvetica,sans-Serif" font-size="10.00">stddef.h</text>
</a>
</g>
</g>
<!-- Node1&#45;&gt;Node4 -->
<g id="edge3" class="edge">
<title>Node1&#45;&gt;Node4</title>
<path fill="none" stroke="midnightblue" d="M138,-112.08C138,-105.01 138,-94.86 138,-85.99"/>
<polygon fill="midnightblue" stroke="midnightblue" points="141.5,-85.75 138,-75.75 134.5,-85.75 141.5,-85.75"/>
</g>
<!-- Node5 -->
<g id="node5" class="node">
<title>Node5</title>
<g id="a_node5"><a xlink:href="snd__i__table_8h.html" target="_top" xlink:title="Instrument data type for SNDDRV.">
<polygon fill="none" stroke="black" points="182,-56.5 182,-75.5 256,-75.5 256,-56.5 182,-56.5"/>
<text text-anchor="middle" x="219" y="-63.5" font-family="Helvetica,sans-Serif" font-size="10.00">snd_i_table.h</text>
</a>
</g>
</g>
<!-- Node1&#45;&gt;Node5 -->
<g id="edge4" class="edge">
<title>Node1&#45;&gt;Node5</title>
<path fill="none" stroke="midnightblue" d="M151.01,-112.32C163.53,-103.98 182.68,-91.21 197.47,-81.35"/>
<polygon fill="midnightblue" stroke="midnightblue" points="199.64,-84.11 206.02,-75.65 195.76,-78.29 199.64,-84.11"/>
</g>
<!-- Node6 -->
<g id="node6" class="node">
<title>Node6</title>
<g id="a_node6"><a xlink:href="snd__p__table_8h.html" target="_top" xlink:title="Pitch&#45;bend table data type for SNDDRV.">
<polygon fill="none" stroke="black" points="274.5,-56.5 274.5,-75.5 351.5,-75.5 351.5,-56.5 274.5,-56.5"/>
<text text-anchor="middle" x="313" y="-63.5" font-family="Helvetica,sans-Serif" font-size="10.00">snd_p_table.h</text>
</a>
</g>
</g>
<!-- Node1&#45;&gt;Node6 -->
<g id="edge6" class="edge">
<title>Node1&#45;&gt;Node6</title>
<path fill="none" stroke="midnightblue" d="M165.73,-112.44C195.43,-103.28 242.72,-88.69 275.67,-78.52"/>
<polygon fill="midnightblue" stroke="midnightblue" points="276.88,-81.81 285.4,-75.52 274.81,-75.12 276.88,-81.81"/>
</g>
<!-- Node5&#45;&gt;Node3 -->
<g id="edge5" class="edge">
<title>Node5&#45;&gt;Node3</title>
<path fill="none" stroke="midnightblue" d="M219,-56.08C219,-49.01 219,-38.86 219,-29.99"/>
<polygon fill="midnightblue" stroke="midnightblue" points="222.5,-29.75 219,-19.75 215.5,-29.75 222.5,-29.75"/>
</g>
<!-- Node6&#45;&gt;Node3 -->
<g id="edge7" class="edge">
<title>Node6&#45;&gt;Node3</title>
<path fill="none" stroke="midnightblue" d="M297.9,-56.32C283.1,-47.82 260.31,-34.73 243.02,-24.8"/>
<polygon fill="midnightblue" stroke="midnightblue" points="244.48,-21.6 234.07,-19.65 240.99,-27.67 244.48,-21.6"/>
</g>
</g>
</svg>
