<?xml version="1.0" encoding="UTF-8" standalone="no"?>
<!DOCTYPE svg PUBLIC "-//W3C//DTD SVG 1.1//EN"
 "http://www.w3.org/Graphics/SVG/1.1/DTD/svg11.dtd">
<!-- Generated by graphviz version 12.2.0 (20241103.1931)
 -->
<!-- Title: include/snd_sound.h Pages: 1 -->
<svg width="356pt" height="138pt"
 viewBox="0.00 0.00 355.50 137.75" xmlns="http://www.w3.org/2000/svg" xmlns:xlink="http://www.w3.org/1999/xlink">
<g id="graph0" class="graph" transform="scale(1 1) rotate(0) translate(4 133.75)">
<title>include/snd_sound.h</title>
<!-- Node1 -->
<g id="Node000001" class="node">
<title>Node1</title>
<g id="a_Node000001"><a xlink:title="Sound / Music data structure for snddrv.">
<polygon fill="#999999" stroke="#666666" points="188.75,-129.75 84.25,-129.75 84.25,-110.5 188.75,-110.5 188.75,-129.75"/>
<text text-anchor="middle" x="136.5" y="-116.25" font-family="Helvetica,sans-Serif" font-size="10.00">include/snd_sound.h</text>
</a>
</g>
</g>
<!-- Node2 -->
<g id="Node000002" class="node">
<title>Node2</title>
<g id="a_Node000002"><a xlink:title=" ">
<polygon fill="#e0e0e0" stroke="#999999" points="55,-74.5 0,-74.5 0,-55.25 55,-55.25 55,-74.5"/>
<text text-anchor="middle" x="27.5" y="-61" font-family="Helvetica,sans-Serif" font-size="10.00">stdbool.h</text>
</a>
</g>
</g>
<!-- Node1&#45;&gt;Node2 -->
<g id="edge1_Node000001_Node000002" class="edge">
<title>Node1&#45;&gt;Node2</title>
<g id="a_edge1_Node000001_Node000002"><a xlink:title=" ">
<path fill="none" stroke="#63b8ff" d="M118.01,-110.09C101.1,-101.83 75.81,-89.48 56.26,-79.93"/>
<polygon fill="#63b8ff" stroke="#63b8ff" points="57.96,-76.86 47.44,-75.62 54.89,-83.15 57.96,-76.86"/>
</a>
</g>
</g>
<!-- Node3 -->
<g id="Node000003" class="node">
<title>Node3</title>
<g id="a_Node000003"><a xlink:title=" ">
<polygon fill="#e0e0e0" stroke="#999999" points="240.25,-19.25 192.75,-19.25 192.75,0 240.25,0 240.25,-19.25"/>
<text text-anchor="middle" x="216.5" y="-5.75" font-family="Helvetica,sans-Serif" font-size="10.00">stdint.h</text>
</a>
</g>
</g>
<!-- Node1&#45;&gt;Node3 -->
<g id="edge2_Node000001_Node000003" class="edge">
<title>Node1&#45;&gt;Node3</title>
<g id="a_edge2_Node000001_Node000003"><a xlink:title=" ">
<path fill="none" stroke="#63b8ff" d="M125.44,-110.09C111.26,-97.39 89.9,-73.72 102.5,-55.25 120.03,-29.56 154.77,-18.66 181.32,-14.03"/>
<polygon fill="#63b8ff" stroke="#63b8ff" points="181.61,-17.53 190.99,-12.59 180.58,-10.6 181.61,-17.53"/>
</a>
</g>
</g>
<!-- Node4 -->
<g id="Node000004" class="node">
<title>Node4</title>
<g id="a_Node000004"><a xlink:title=" ">
<polygon fill="#e0e0e0" stroke="#999999" points="161.75,-74.5 111.25,-74.5 111.25,-55.25 161.75,-55.25 161.75,-74.5"/>
<text text-anchor="middle" x="136.5" y="-61" font-family="Helvetica,sans-Serif" font-size="10.00">stddef.h</text>
</a>
</g>
</g>
<!-- Node1&#45;&gt;Node4 -->
<g id="edge3_Node000001_Node000004" class="edge">
<title>Node1&#45;&gt;Node4</title>
<g id="a_edge3_Node000001_Node000004"><a xlink:title=" ">
<path fill="none" stroke="#63b8ff" d="M136.5,-110.33C136.5,-103.82 136.5,-94.67 136.5,-86.37"/>
<polygon fill="#63b8ff" stroke="#63b8ff" points="140,-86.37 136.5,-76.37 133,-86.37 140,-86.37"/>
</a>
</g>
</g>
<!-- Node5 -->
<g id="Node000005" class="node">
<title>Node5</title>
<g id="a_Node000005"><a xlink:href="snd__i__table_8h.html" target="_top" xlink:title="Instrument data type for SNDDRV.">
<polygon fill="white" stroke="#666666" points="253,-74.5 180,-74.5 180,-55.25 253,-55.25 253,-74.5"/>
<text text-anchor="middle" x="216.5" y="-61" font-family="Helvetica,sans-Serif" font-size="10.00">snd_i_table.h</text>
</a>
</g>
</g>
<!-- Node1&#45;&gt;Node5 -->
<g id="edge4_Node000001_Node000005" class="edge">
<title>Node1&#45;&gt;Node5</title>
<g id="a_edge4_Node000001_Node000005"><a xlink:title=" ">
<path fill="none" stroke="#63b8ff" d="M150.07,-110.09C161.91,-102.21 179.34,-90.61 193.37,-81.27"/>
<polygon fill="#63b8ff" stroke="#63b8ff" points="195.22,-84.25 201.6,-75.79 191.34,-78.42 195.22,-84.25"/>
</a>
</g>
</g>
<!-- Node6 -->
<g id="Node000006" class="node">
<title>Node6</title>
<g id="a_Node000006"><a xlink:href="snd__p__table_8h.html" target="_top" xlink:title="Pitch&#45;bend table data type for SNDDRV.">
<polygon fill="white" stroke="#666666" points="347.5,-74.5 271.5,-74.5 271.5,-55.25 347.5,-55.25 347.5,-74.5"/>
<text text-anchor="middle" x="309.5" y="-61" font-family="Helvetica,sans-Serif" font-size="10.00">snd_p_table.h</text>
</a>
</g>
</g>
<!-- Node1&#45;&gt;Node6 -->
<g id="edge6_Node000001_Node000006" class="edge">
<title>Node1&#45;&gt;Node6</title>
<g id="a_edge6_Node000001_Node000006"><a xlink:title=" ">
<path fill="none" stroke="#63b8ff" d="M165.85,-110.09C194.3,-101.33 237.7,-87.98 269.35,-78.23"/>
<polygon fill="#63b8ff" stroke="#63b8ff" points="270.03,-81.68 278.56,-75.4 267.98,-74.99 270.03,-81.68"/>
</a>
</g>
</g>
<!-- Node5&#45;&gt;Node3 -->
<g id="edge5_Node000005_Node000003" class="edge">
<title>Node5&#45;&gt;Node3</title>
<g id="a_edge5_Node000005_Node000003"><a xlink:title=" ">
<path fill="none" stroke="#63b8ff" d="M216.5,-55.08C216.5,-48.57 216.5,-39.42 216.5,-31.12"/>
<polygon fill="#63b8ff" stroke="#63b8ff" points="220,-31.12 216.5,-21.12 213,-31.12 220,-31.12"/>
</a>
</g>
</g>
<!-- Node6&#45;&gt;Node3 -->
<g id="edge7_Node000006_Node000003" class="edge">
<title>Node6&#45;&gt;Node3</title>
<g id="a_edge7_Node000006_Node000003"><a xlink:title=" ">
<path fill="none" stroke="#63b8ff" d="M293.72,-54.84C279.56,-46.73 258.52,-34.68 241.97,-25.21"/>
<polygon fill="#63b8ff" stroke="#63b8ff" points="244.08,-22.39 233.67,-20.45 240.61,-28.46 244.08,-22.39"/>
</a>
</g>
</g>
</g>
</svg>
