<?xml version="1.0" encoding="UTF-8" standalone="no"?>
<!DOCTYPE svg PUBLIC "-//W3C//DTD SVG 1.1//EN"
 "http://www.w3.org/Graphics/SVG/1.1/DTD/svg11.dtd">
<!-- Generated by graphviz version 7.0.2 (20221119.0110)
 -->
<!-- Title: include/snd_sound.h Pages: 1 -->
<svg width="360pt" height="137pt"
 viewBox="0.00 0.00 359.50 137.00" xmlns="http://www.w3.org/2000/svg" xmlns:xlink="http://www.w3.org/1999/xlink">
<g id="graph0" class="graph" transform="scale(1 1) rotate(0) translate(4 133)">
<title>include/snd_sound.h</title>
<!-- Node1 -->
<g id="node1" class="node">
<title>Node1</title>
<g id="a_node1"><a xlink:title="Sound / Music data structure for snddrv.">
<polygon fill="#999999" stroke="#666666" points="190.5,-129 85.5,-129 85.5,-110 190.5,-110 190.5,-129"/>
<text text-anchor="middle" x="138" y="-117" font-family="Helvetica,sans-Serif" font-size="10.00">include/snd_sound.h</text>
</a>
</g>
</g>
<!-- Node2 -->
<g id="node2" class="node">
<title>Node2</title>
<g id="a_node2"><a xlink:title=" ">
<polygon fill="#e0e0e0" stroke="#999999" points="56,-74 0,-74 0,-55 56,-55 56,-74"/>
<text text-anchor="middle" x="28" y="-62" font-family="Helvetica,sans-Serif" font-size="10.00">stdbool.h</text>
</a>
</g>
</g>
<!-- Node1&#45;&gt;Node2 -->
<g id="edge1" class="edge">
<title>Node1&#45;&gt;Node2</title>
<path fill="none" stroke="#63b8ff" d="M119.34,-109.51C102.17,-101.24 76.45,-88.84 56.67,-79.31"/>
<polygon fill="#63b8ff" stroke="#63b8ff" points="58.28,-76.2 47.75,-75.01 55.24,-82.51 58.28,-76.2"/>
</g>
<!-- Node3 -->
<g id="node3" class="node">
<title>Node3</title>
<g id="a_node3"><a xlink:title=" ">
<polygon fill="#e0e0e0" stroke="#999999" points="243,-19 195,-19 195,0 243,0 243,-19"/>
<text text-anchor="middle" x="219" y="-7" font-family="Helvetica,sans-Serif" font-size="10.00">stdint.h</text>
</a>
</g>
</g>
<!-- Node1&#45;&gt;Node3 -->
<g id="edge2" class="edge">
<title>Node1&#45;&gt;Node3</title>
<path fill="none" stroke="#63b8ff" d="M126.7,-109.55C112.19,-96.95 90.31,-73.46 103,-55 120.88,-28.99 156.23,-18.17 183.23,-13.68"/>
<polygon fill="#63b8ff" stroke="#63b8ff" points="183.67,-17.15 193.08,-12.29 182.69,-10.22 183.67,-17.15"/>
</g>
<!-- Node4 -->
<g id="node4" class="node">
<title>Node4</title>
<g id="a_node4"><a xlink:title=" ">
<polygon fill="#e0e0e0" stroke="#999999" points="163.5,-74 112.5,-74 112.5,-55 163.5,-55 163.5,-74"/>
<text text-anchor="middle" x="138" y="-62" font-family="Helvetica,sans-Serif" font-size="10.00">stddef.h</text>
</a>
</g>
</g>
<!-- Node1&#45;&gt;Node4 -->
<g id="edge3" class="edge">
<title>Node1&#45;&gt;Node4</title>
<path fill="none" stroke="#63b8ff" d="M138,-109.75C138,-103.27 138,-94.16 138,-85.9"/>
<polygon fill="#63b8ff" stroke="#63b8ff" points="141.5,-85.96 138,-75.96 134.5,-85.96 141.5,-85.96"/>
</g>
<!-- Node5 -->
<g id="node5" class="node">
<title>Node5</title>
<g id="a_node5"><a xlink:href="snd__i__table_8h.html" target="_top" xlink:title="Instrument data type for SNDDRV.">
<polygon fill="white" stroke="#666666" points="256,-74 182,-74 182,-55 256,-55 256,-74"/>
<text text-anchor="middle" x="219" y="-62" font-family="Helvetica,sans-Serif" font-size="10.00">snd_i_table.h</text>
</a>
</g>
</g>
<!-- Node1&#45;&gt;Node5 -->
<g id="edge4" class="edge">
<title>Node1&#45;&gt;Node5</title>
<path fill="none" stroke="#63b8ff" d="M151.74,-109.51C163.8,-101.62 181.59,-89.98 195.84,-80.65"/>
<polygon fill="#63b8ff" stroke="#63b8ff" points="197.74,-83.59 204.2,-75.19 193.91,-77.73 197.74,-83.59"/>
</g>
<!-- Node6 -->
<g id="node6" class="node">
<title>Node6</title>
<g id="a_node6"><a xlink:href="snd__p__table_8h.html" target="_top" xlink:title="Pitch&#45;bend table data type for SNDDRV.">
<polygon fill="white" stroke="#666666" points="351.5,-74 274.5,-74 274.5,-55 351.5,-55 351.5,-74"/>
<text text-anchor="middle" x="313" y="-62" font-family="Helvetica,sans-Serif" font-size="10.00">snd_p_table.h</text>
</a>
</g>
</g>
<!-- Node1&#45;&gt;Node6 -->
<g id="edge6" class="edge">
<title>Node1&#45;&gt;Node6</title>
<path fill="none" stroke="#63b8ff" d="M167.69,-109.51C196.56,-100.76 240.64,-87.42 272.67,-77.71"/>
<polygon fill="#63b8ff" stroke="#63b8ff" points="273.46,-81.13 282.01,-74.88 271.43,-74.43 273.46,-81.13"/>
</g>
<!-- Node5&#45;&gt;Node3 -->
<g id="edge5" class="edge">
<title>Node5&#45;&gt;Node3</title>
<path fill="none" stroke="#63b8ff" d="M219,-54.75C219,-48.27 219,-39.16 219,-30.9"/>
<polygon fill="#63b8ff" stroke="#63b8ff" points="222.5,-30.96 219,-20.96 215.5,-30.96 222.5,-30.96"/>
</g>
<!-- Node6&#45;&gt;Node3 -->
<g id="edge7" class="edge">
<title>Node6&#45;&gt;Node3</title>
<path fill="none" stroke="#63b8ff" d="M297.05,-54.51C282.65,-46.39 261.21,-34.3 244.44,-24.85"/>
<polygon fill="#63b8ff" stroke="#63b8ff" points="246.46,-21.96 236.03,-20.1 243.02,-28.06 246.46,-21.96"/>
</g>
</g>
</svg>
