<?xml version="1.0" encoding="UTF-8" standalone="no"?>
<!DOCTYPE svg PUBLIC "-//W3C//DTD SVG 1.1//EN"
 "http://www.w3.org/Graphics/SVG/1.1/DTD/svg11.dtd">
<!-- Generated by graphviz version 7.0.5 (20221223.1930)
 -->
<!-- Title: include/snd_i_table.h Pages: 1 -->
<svg width="115pt" height="137pt"
 viewBox="0.00 0.00 115.00 137.00" xmlns="http://www.w3.org/2000/svg" xmlns:xlink="http://www.w3.org/1999/xlink">
<g id="graph0" class="graph" transform="scale(1 1) rotate(0) translate(4 133)">
<title>include/snd_i_table.h</title>
<!-- Node1 -->
<g id="node1" class="node">
<title>Node1</title>
<g id="a_node1"><a xlink:title="Instrument data type for SNDDRV.">
<polygon fill="#999999" stroke="#666666" points="107,-129 0,-129 0,-110 107,-110 107,-129"/>
<text text-anchor="middle" x="53.5" y="-117" font-family="Helvetica,sans-Serif" font-size="10.00">include/snd_i_table.h</text>
</a>
</g>
</g>
<!-- Node2 -->
<g id="node2" class="node">
<title>Node2</title>
<g id="a_node2"><a xlink:href="snd__sound_8h.html" target="_top" xlink:title="Sound / Music data structure for snddrv.">
<polygon fill="white" stroke="#666666" points="106,-74 1,-74 1,-55 106,-55 106,-74"/>
<text text-anchor="middle" x="53.5" y="-62" font-family="Helvetica,sans-Serif" font-size="10.00">include/snd_sound.h</text>
</a>
</g>
</g>
<!-- Node1&#45;&gt;Node2 -->
<g id="edge1" class="edge">
<title>Node1&#45;&gt;Node2</title>
<path fill="none" stroke="#63b8ff" d="M53.5,-98.35C53.5,-90.1 53.5,-80.97 53.5,-74.44"/>
<polygon fill="#63b8ff" stroke="#63b8ff" points="50,-98.23 53.5,-108.23 57,-98.23 50,-98.23"/>
</g>
<!-- Node3 -->
<g id="node3" class="node">
<title>Node3</title>
<g id="a_node3"><a xlink:href="snddrv_8h.html" target="_top" xlink:title="SNDDRV a PSG sound driver.">
<polygon fill="white" stroke="#666666" points="97,-19 10,-19 10,0 97,0 97,-19"/>
<text text-anchor="middle" x="53.5" y="-7" font-family="Helvetica,sans-Serif" font-size="10.00">include/snddrv.h</text>
</a>
</g>
</g>
<!-- Node2&#45;&gt;Node3 -->
<g id="edge2" class="edge">
<title>Node2&#45;&gt;Node3</title>
<path fill="none" stroke="#63b8ff" d="M53.5,-43.35C53.5,-35.1 53.5,-25.97 53.5,-19.44"/>
<polygon fill="#63b8ff" stroke="#63b8ff" points="50,-43.23 53.5,-53.23 57,-43.23 50,-43.23"/>
</g>
</g>
</svg>
