<?xml version="1.0" encoding="UTF-8" standalone="no"?>
<!DOCTYPE svg PUBLIC "-//W3C//DTD SVG 1.1//EN"
 "http://www.w3.org/Graphics/SVG/1.1/DTD/svg11.dtd">
<!-- Generated by graphviz version 7.0.4 (20221203.1631)
 -->
<!-- Title: include/snddrv.h Pages: 1 -->
<svg width="371pt" height="192pt"
 viewBox="0.00 0.00 371.30 192.00" xmlns="http://www.w3.org/2000/svg" xmlns:xlink="http://www.w3.org/1999/xlink">
<g id="graph0" class="graph" transform="scale(1 1) rotate(0) translate(4 188)">
<title>include/snddrv.h</title>
<!-- Node1 -->
<g id="node1" class="node">
<title>Node1</title>
<g id="a_node1"><a xlink:title="SNDDRV a PSG sound driver.">
<polygon fill="#999999" stroke="#666666" points="302.5,-184 215.5,-184 215.5,-165 302.5,-165 302.5,-184"/>
<text text-anchor="middle" x="259" y="-172" font-family="Helvetica,sans-Serif" font-size="10.00">include/snddrv.h</text>
</a>
</g>
</g>
<!-- Node2 -->
<g id="node2" class="node">
<title>Node2</title>
<g id="a_node2"><a xlink:href="snd__sound_8h.html" target="_top" xlink:title="Sound / Music data structure for snddrv.">
<polygon fill="white" stroke="#666666" points="217.5,-129 140.5,-129 140.5,-110 217.5,-110 217.5,-129"/>
<text text-anchor="middle" x="179" y="-117" font-family="Helvetica,sans-Serif" font-size="10.00">./snd_sound.h</text>
</a>
</g>
</g>
<!-- Node1&#45;&gt;Node2 -->
<g id="edge1" class="edge">
<title>Node1&#45;&gt;Node2</title>
<path fill="none" stroke="#63b8ff" d="M245.43,-164.51C233.52,-156.62 215.95,-144.98 201.87,-135.65"/>
<polygon fill="#63b8ff" stroke="#63b8ff" points="203.9,-132.8 193.63,-130.19 200.04,-138.63 203.9,-132.8"/>
</g>
<!-- Node4 -->
<g id="node4" class="node">
<title>Node4</title>
<g id="a_node4"><a xlink:title=" ">
<polygon fill="#e0e0e0" stroke="#999999" points="290,-19 242,-19 242,0 290,0 290,-19"/>
<text text-anchor="middle" x="266" y="-7" font-family="Helvetica,sans-Serif" font-size="10.00">stdint.h</text>
</a>
</g>
</g>
<!-- Node1&#45;&gt;Node4 -->
<g id="edge9" class="edge">
<title>Node1&#45;&gt;Node4</title>
<path fill="none" stroke="#63b8ff" d="M274.08,-164.52C297.87,-149.35 343.22,-116.17 361,-74 373.34,-44.73 333.08,-27.23 301.19,-18.23"/>
<polygon fill="#63b8ff" stroke="#63b8ff" points="302.38,-14.93 291.82,-15.78 300.61,-21.7 302.38,-14.93"/>
</g>
<!-- Node3 -->
<g id="node3" class="node">
<title>Node3</title>
<g id="a_node3"><a xlink:title=" ">
<polygon fill="#e0e0e0" stroke="#999999" points="56,-74 0,-74 0,-55 56,-55 56,-74"/>
<text text-anchor="middle" x="28" y="-62" font-family="Helvetica,sans-Serif" font-size="10.00">stdbool.h</text>
</a>
</g>
</g>
<!-- Node2&#45;&gt;Node3 -->
<g id="edge2" class="edge">
<title>Node2&#45;&gt;Node3</title>
<path fill="none" stroke="#63b8ff" d="M153.38,-109.51C128.91,-100.92 91.76,-87.88 64.25,-78.22"/>
<polygon fill="#63b8ff" stroke="#63b8ff" points="65.51,-74.96 54.92,-74.95 63.19,-81.56 65.51,-74.96"/>
</g>
<!-- Node2&#45;&gt;Node4 -->
<g id="edge3" class="edge">
<title>Node2&#45;&gt;Node4</title>
<path fill="none" stroke="#63b8ff" d="M152.77,-109.58C124.37,-98.49 85.31,-78.16 103,-55 118.41,-34.82 187.53,-21.58 230.66,-15.13"/>
<polygon fill="#63b8ff" stroke="#63b8ff" points="230.91,-18.63 240.31,-13.74 229.91,-11.7 230.91,-18.63"/>
</g>
<!-- Node5 -->
<g id="node5" class="node">
<title>Node5</title>
<g id="a_node5"><a xlink:title=" ">
<polygon fill="#e0e0e0" stroke="#999999" points="163.5,-74 112.5,-74 112.5,-55 163.5,-55 163.5,-74"/>
<text text-anchor="middle" x="138" y="-62" font-family="Helvetica,sans-Serif" font-size="10.00">stddef.h</text>
</a>
</g>
</g>
<!-- Node2&#45;&gt;Node5 -->
<g id="edge4" class="edge">
<title>Node2&#45;&gt;Node5</title>
<path fill="none" stroke="#63b8ff" d="M172.23,-109.75C166.68,-102.58 158.66,-92.2 151.77,-83.3"/>
<polygon fill="#63b8ff" stroke="#63b8ff" points="154.73,-81.41 145.84,-75.64 149.19,-85.69 154.73,-81.41"/>
</g>
<!-- Node6 -->
<g id="node6" class="node">
<title>Node6</title>
<g id="a_node6"><a xlink:href="snd__i__table_8h.html" target="_top" xlink:title="Instrument data type for SNDDRV.">
<polygon fill="white" stroke="#666666" points="256,-74 182,-74 182,-55 256,-55 256,-74"/>
<text text-anchor="middle" x="219" y="-62" font-family="Helvetica,sans-Serif" font-size="10.00">snd_i_table.h</text>
</a>
</g>
</g>
<!-- Node2&#45;&gt;Node6 -->
<g id="edge5" class="edge">
<title>Node2&#45;&gt;Node6</title>
<path fill="none" stroke="#63b8ff" d="M185.61,-109.75C190.96,-102.66 198.68,-92.42 205.35,-83.59"/>
<polygon fill="#63b8ff" stroke="#63b8ff" points="208.11,-85.74 211.34,-75.65 202.52,-81.52 208.11,-85.74"/>
</g>
<!-- Node7 -->
<g id="node7" class="node">
<title>Node7</title>
<g id="a_node7"><a xlink:href="snd__p__table_8h.html" target="_top" xlink:title="Pitch&#45;bend table data type for SNDDRV.">
<polygon fill="white" stroke="#666666" points="351.5,-74 274.5,-74 274.5,-55 351.5,-55 351.5,-74"/>
<text text-anchor="middle" x="313" y="-62" font-family="Helvetica,sans-Serif" font-size="10.00">snd_p_table.h</text>
</a>
</g>
</g>
<!-- Node2&#45;&gt;Node7 -->
<g id="edge7" class="edge">
<title>Node2&#45;&gt;Node7</title>
<path fill="none" stroke="#63b8ff" d="M201.73,-109.51C223.23,-101.01 255.73,-88.15 280.07,-78.53"/>
<polygon fill="#63b8ff" stroke="#63b8ff" points="281.19,-81.85 289.2,-74.91 278.61,-75.34 281.19,-81.85"/>
</g>
<!-- Node6&#45;&gt;Node4 -->
<g id="edge6" class="edge">
<title>Node6&#45;&gt;Node4</title>
<path fill="none" stroke="#63b8ff" d="M226.76,-54.75C233.19,-47.5 242.51,-36.98 250.46,-28.02"/>
<polygon fill="#63b8ff" stroke="#63b8ff" points="253.05,-30.38 257.07,-20.57 247.81,-25.73 253.05,-30.38"/>
</g>
<!-- Node7&#45;&gt;Node4 -->
<g id="edge8" class="edge">
<title>Node7&#45;&gt;Node4</title>
<path fill="none" stroke="#63b8ff" d="M305.24,-54.75C298.81,-47.5 289.49,-36.98 281.54,-28.02"/>
<polygon fill="#63b8ff" stroke="#63b8ff" points="284.19,-25.73 274.93,-20.57 278.95,-30.38 284.19,-25.73"/>
</g>
</g>
</svg>
