<?xml version="1.0" encoding="UTF-8" standalone="no"?>
<!DOCTYPE svg PUBLIC "-//W3C//DTD SVG 1.1//EN"
 "http://www.w3.org/Graphics/SVG/1.1/DTD/svg11.dtd">
<!-- Generated by graphviz version 12.2.0 (20241103.1931)
 -->
<!-- Title: include/snddrv.h Pages: 1 -->
<svg width="385pt" height="193pt"
 viewBox="0.00 0.00 384.54 193.00" xmlns="http://www.w3.org/2000/svg" xmlns:xlink="http://www.w3.org/1999/xlink">
<g id="graph0" class="graph" transform="scale(1 1) rotate(0) translate(4 189)">
<title>include/snddrv.h</title>
<!-- Node1 -->
<g id="Node000001" class="node">
<title>Node1</title>
<g id="a_Node000001"><a xlink:title="SNDDRV a PSG sound driver.">
<polygon fill="#999999" stroke="#666666" points="346.25,-185 259.75,-185 259.75,-165.75 346.25,-165.75 346.25,-185"/>
<text text-anchor="middle" x="303" y="-171.5" font-family="Helvetica,sans-Serif" font-size="10.00">include/snddrv.h</text>
</a>
</g>
</g>
<!-- Node2 -->
<g id="Node000002" class="node">
<title>Node2</title>
<g id="a_Node000002"><a xlink:href="audio_8h.html" target="_top" xlink:title="The libmsx audio replayer.">
<polygon fill="white" stroke="#666666" points="364.38,-129.75 317.63,-129.75 317.63,-110.5 364.38,-110.5 364.38,-129.75"/>
<text text-anchor="middle" x="341" y="-116.25" font-family="Helvetica,sans-Serif" font-size="10.00">audio.h</text>
</a>
</g>
</g>
<!-- Node1&#45;&gt;Node2 -->
<g id="edge1_Node000001_Node000002" class="edge">
<title>Node1&#45;&gt;Node2</title>
<g id="a_edge1_Node000001_Node000002"><a xlink:title=" ">
<path fill="none" stroke="#63b8ff" d="M309.28,-165.58C314.36,-158.46 321.7,-148.18 328.04,-139.3"/>
<polygon fill="#63b8ff" stroke="#63b8ff" points="330.75,-141.51 333.71,-131.34 325.06,-137.45 330.75,-141.51"/>
</a>
</g>
</g>
<!-- Node4 -->
<g id="Node000004" class="node">
<title>Node4</title>
<g id="a_Node000004"><a xlink:title=" ">
<polygon fill="#e0e0e0" stroke="#999999" points="237.75,-19.25 190.25,-19.25 190.25,0 237.75,0 237.75,-19.25"/>
<text text-anchor="middle" x="214" y="-5.75" font-family="Helvetica,sans-Serif" font-size="10.00">stdint.h</text>
</a>
</g>
</g>
<!-- Node1&#45;&gt;Node4 -->
<g id="edge14_Node000001_Node000004" class="edge">
<title>Node1&#45;&gt;Node4</title>
<g id="a_edge14_Node000001_Node000004"><a xlink:title=" ">
<path fill="none" stroke="#63b8ff" d="M328.86,-165.32C344.69,-158.29 363.65,-146.81 373,-129.75 385.33,-107.28 361.04,-63 353,-55.25 324.93,-28.19 280.4,-17.54 249.33,-13.34"/>
<polygon fill="#63b8ff" stroke="#63b8ff" points="249.99,-9.9 239.65,-12.21 249.17,-16.85 249.99,-9.9"/>
</a>
</g>
</g>
<!-- Node5 -->
<g id="Node000005" class="node">
<title>Node5</title>
<g id="a_Node000005"><a xlink:href="audio__dec_8h.html" target="_top" xlink:title="The audio decoder interface for the libmsx audio replayer.">
<polygon fill="white" stroke="#666666" points="299.88,-129.75 232.13,-129.75 232.13,-110.5 299.88,-110.5 299.88,-129.75"/>
<text text-anchor="middle" x="266" y="-116.25" font-family="Helvetica,sans-Serif" font-size="10.00">audio_dec.h</text>
</a>
</g>
</g>
<!-- Node1&#45;&gt;Node5 -->
<g id="edge4_Node000001_Node000005" class="edge">
<title>Node1&#45;&gt;Node5</title>
<g id="a_edge4_Node000001_Node000005"><a xlink:title=" ">
<path fill="none" stroke="#63b8ff" d="M296.89,-165.58C291.94,-158.46 284.8,-148.18 278.63,-139.3"/>
<polygon fill="#63b8ff" stroke="#63b8ff" points="281.69,-137.57 273.11,-131.35 275.94,-141.56 281.69,-137.57"/>
</a>
</g>
</g>
<!-- Node6 -->
<g id="Node000006" class="node">
<title>Node6</title>
<g id="a_Node000006"><a xlink:href="snd__sound_8h.html" target="_top" xlink:title="Sound / Music data structure for snddrv.">
<polygon fill="white" stroke="#666666" points="187,-129.75 111,-129.75 111,-110.5 187,-110.5 187,-129.75"/>
<text text-anchor="middle" x="149" y="-116.25" font-family="Helvetica,sans-Serif" font-size="10.00">./snd_sound.h</text>
</a>
</g>
</g>
<!-- Node1&#45;&gt;Node6 -->
<g id="edge6_Node000001_Node000006" class="edge">
<title>Node1&#45;&gt;Node6</title>
<g id="a_edge6_Node000001_Node000006"><a xlink:title=" ">
<path fill="none" stroke="#63b8ff" d="M276.88,-165.34C251.88,-156.7 213.93,-143.57 185.86,-133.87"/>
<polygon fill="#63b8ff" stroke="#63b8ff" points="187.28,-130.66 176.69,-130.7 184.99,-137.27 187.28,-130.66"/>
</a>
</g>
</g>
<!-- Node3 -->
<g id="Node000003" class="node">
<title>Node3</title>
<g id="a_Node000003"><a xlink:title=" ">
<polygon fill="#e0e0e0" stroke="#999999" points="325.5,-74.5 270.5,-74.5 270.5,-55.25 325.5,-55.25 325.5,-74.5"/>
<text text-anchor="middle" x="298" y="-61" font-family="Helvetica,sans-Serif" font-size="10.00">stdbool.h</text>
</a>
</g>
</g>
<!-- Node2&#45;&gt;Node3 -->
<g id="edge2_Node000002_Node000003" class="edge">
<title>Node2&#45;&gt;Node3</title>
<g id="a_edge2_Node000002_Node000003"><a xlink:title=" ">
<path fill="none" stroke="#63b8ff" d="M333.9,-110.33C328.09,-103.13 319.67,-92.71 312.45,-83.76"/>
<polygon fill="#63b8ff" stroke="#63b8ff" points="315.21,-81.62 306.21,-76.04 309.77,-86.02 315.21,-81.62"/>
</a>
</g>
</g>
<!-- Node2&#45;&gt;Node4 -->
<g id="edge3_Node000002_Node000004" class="edge">
<title>Node2&#45;&gt;Node4</title>
<g id="a_edge3_Node000002_Node000004"><a xlink:title=" ">
<path fill="none" stroke="#63b8ff" d="M342.89,-110.23C345.18,-96.82 347.36,-71.32 335,-55.25 314.7,-28.85 277.14,-18.06 249.23,-13.66"/>
<polygon fill="#63b8ff" stroke="#63b8ff" points="249.82,-10.21 239.44,-12.34 248.88,-17.14 249.82,-10.21"/>
</a>
</g>
</g>
<!-- Node5&#45;&gt;Node3 -->
<g id="edge5_Node000005_Node000003" class="edge">
<title>Node5&#45;&gt;Node3</title>
<g id="a_edge5_Node000005_Node000003"><a xlink:title=" ">
<path fill="none" stroke="#63b8ff" d="M271.29,-110.33C275.48,-103.36 281.48,-93.37 286.74,-84.62"/>
<polygon fill="#63b8ff" stroke="#63b8ff" points="289.67,-86.53 291.82,-76.16 283.67,-82.93 289.67,-86.53"/>
</a>
</g>
</g>
<!-- Node6&#45;&gt;Node3 -->
<g id="edge7_Node000006_Node000003" class="edge">
<title>Node6&#45;&gt;Node3</title>
<g id="a_edge7_Node000006_Node000003"><a xlink:title=" ">
<path fill="none" stroke="#63b8ff" d="M174.28,-110.09C198.36,-101.49 234.86,-88.44 261.98,-78.75"/>
<polygon fill="#63b8ff" stroke="#63b8ff" points="262.94,-82.12 271.18,-75.46 260.58,-75.53 262.94,-82.12"/>
</a>
</g>
</g>
<!-- Node6&#45;&gt;Node4 -->
<g id="edge8_Node000006_Node000004" class="edge">
<title>Node6&#45;&gt;Node4</title>
<g id="a_edge8_Node000006_Node000004"><a xlink:title=" ">
<path fill="none" stroke="#63b8ff" d="M110.81,-115.59C59.06,-109.31 -23.56,-93.11 7,-55.25 28.21,-28.99 125.48,-17.44 178.8,-13.01"/>
<polygon fill="#63b8ff" stroke="#63b8ff" points="178.88,-16.52 188.58,-12.24 178.34,-9.54 178.88,-16.52"/>
</a>
</g>
</g>
<!-- Node7 -->
<g id="Node000007" class="node">
<title>Node7</title>
<g id="a_Node000007"><a xlink:title=" ">
<polygon fill="#e0e0e0" stroke="#999999" points="66.25,-74.5 15.75,-74.5 15.75,-55.25 66.25,-55.25 66.25,-74.5"/>
<text text-anchor="middle" x="41" y="-61" font-family="Helvetica,sans-Serif" font-size="10.00">stddef.h</text>
</a>
</g>
</g>
<!-- Node6&#45;&gt;Node7 -->
<g id="edge9_Node000006_Node000007" class="edge">
<title>Node6&#45;&gt;Node7</title>
<g id="a_edge9_Node000006_Node000007"><a xlink:title=" ">
<path fill="none" stroke="#63b8ff" d="M130.68,-110.09C113.93,-101.83 88.87,-89.48 69.5,-79.93"/>
<polygon fill="#63b8ff" stroke="#63b8ff" points="71.29,-76.9 60.77,-75.62 68.19,-83.18 71.29,-76.9"/>
</a>
</g>
</g>
<!-- Node8 -->
<g id="Node000008" class="node">
<title>Node8</title>
<g id="a_Node000008"><a xlink:href="snd__i__table_8h.html" target="_top" xlink:title="Instrument data type for SNDDRV.">
<polygon fill="white" stroke="#666666" points="157.5,-74.5 84.5,-74.5 84.5,-55.25 157.5,-55.25 157.5,-74.5"/>
<text text-anchor="middle" x="121" y="-61" font-family="Helvetica,sans-Serif" font-size="10.00">snd_i_table.h</text>
</a>
</g>
</g>
<!-- Node6&#45;&gt;Node8 -->
<g id="edge10_Node000006_Node000008" class="edge">
<title>Node6&#45;&gt;Node8</title>
<g id="a_edge10_Node000006_Node000008"><a xlink:title=" ">
<path fill="none" stroke="#63b8ff" d="M144.38,-110.33C140.75,-103.44 135.57,-93.59 131.01,-84.91"/>
<polygon fill="#63b8ff" stroke="#63b8ff" points="134.18,-83.42 126.43,-76.2 127.99,-86.68 134.18,-83.42"/>
</a>
</g>
</g>
<!-- Node9 -->
<g id="Node000009" class="node">
<title>Node9</title>
<g id="a_Node000009"><a xlink:href="snd__p__table_8h.html" target="_top" xlink:title="Pitch&#45;bend table data type for SNDDRV.">
<polygon fill="white" stroke="#666666" points="252,-74.5 176,-74.5 176,-55.25 252,-55.25 252,-74.5"/>
<text text-anchor="middle" x="214" y="-61" font-family="Helvetica,sans-Serif" font-size="10.00">snd_p_table.h</text>
</a>
</g>
</g>
<!-- Node6&#45;&gt;Node9 -->
<g id="edge12_Node000006_Node000009" class="edge">
<title>Node6&#45;&gt;Node9</title>
<g id="a_edge12_Node000006_Node000009"><a xlink:title=" ">
<path fill="none" stroke="#63b8ff" d="M160.03,-110.09C169.42,-102.4 183.15,-91.15 194.41,-81.93"/>
<polygon fill="#63b8ff" stroke="#63b8ff" points="196.45,-84.78 201.97,-75.73 192.02,-79.36 196.45,-84.78"/>
</a>
</g>
</g>
<!-- Node8&#45;&gt;Node4 -->
<g id="edge11_Node000008_Node000004" class="edge">
<title>Node8&#45;&gt;Node4</title>
<g id="a_edge11_Node000008_Node000004"><a xlink:title=" ">
<path fill="none" stroke="#63b8ff" d="M136.78,-54.84C150.94,-46.73 171.99,-34.68 188.53,-25.21"/>
<polygon fill="#63b8ff" stroke="#63b8ff" points="189.9,-28.46 196.84,-20.45 186.42,-22.39 189.9,-28.46"/>
</a>
</g>
</g>
<!-- Node9&#45;&gt;Node4 -->
<g id="edge13_Node000009_Node000004" class="edge">
<title>Node9&#45;&gt;Node4</title>
<g id="a_edge13_Node000009_Node000004"><a xlink:title=" ">
<path fill="none" stroke="#63b8ff" d="M214,-55.08C214,-48.57 214,-39.42 214,-31.12"/>
<polygon fill="#63b8ff" stroke="#63b8ff" points="217.5,-31.12 214,-21.12 210.5,-31.12 217.5,-31.12"/>
</a>
</g>
</g>
</g>
</svg>
