<?xml version="1.0" encoding="UTF-8" standalone="no"?>
<!DOCTYPE svg PUBLIC "-//W3C//DTD SVG 1.1//EN"
 "http://www.w3.org/Graphics/SVG/1.1/DTD/svg11.dtd">
<!-- Generated by graphviz version 7.0.5 (20221223.1930)
 -->
<!-- Title: include/snddrv.h Pages: 1 -->
<svg width="388pt" height="192pt"
 viewBox="0.00 0.00 387.65 192.00" xmlns="http://www.w3.org/2000/svg" xmlns:xlink="http://www.w3.org/1999/xlink">
<g id="graph0" class="graph" transform="scale(1 1) rotate(0) translate(4 188)">
<title>include/snddrv.h</title>
<!-- Node1 -->
<g id="node1" class="node">
<title>Node1</title>
<g id="a_node1"><a xlink:title="SNDDRV a PSG sound driver.">
<polygon fill="#999999" stroke="#666666" points="349.55,-184 262.55,-184 262.55,-165 349.55,-165 349.55,-184"/>
<text text-anchor="middle" x="306.05" y="-172" font-family="Helvetica,sans-Serif" font-size="10.00">include/snddrv.h</text>
</a>
</g>
</g>
<!-- Node2 -->
<g id="node2" class="node">
<title>Node2</title>
<g id="a_node2"><a xlink:href="audio_8h.html" target="_top" xlink:title="The libmsx audio replayer.">
<polygon fill="white" stroke="#666666" points="367.55,-129 320.55,-129 320.55,-110 367.55,-110 367.55,-129"/>
<text text-anchor="middle" x="344.05" y="-117" font-family="Helvetica,sans-Serif" font-size="10.00">audio.h</text>
</a>
</g>
</g>
<!-- Node1&#45;&gt;Node2 -->
<g id="edge1" class="edge">
<title>Node1&#45;&gt;Node2</title>
<path fill="none" stroke="#63b8ff" d="M312.33,-164.75C317.41,-157.66 324.75,-147.42 331.09,-138.59"/>
<polygon fill="#63b8ff" stroke="#63b8ff" points="333.78,-140.84 336.76,-130.67 328.09,-136.76 333.78,-140.84"/>
</g>
<!-- Node4 -->
<g id="node4" class="node">
<title>Node4</title>
<g id="a_node4"><a xlink:title=" ">
<polygon fill="#e0e0e0" stroke="#999999" points="241.05,-19 193.05,-19 193.05,0 241.05,0 241.05,-19"/>
<text text-anchor="middle" x="217.05" y="-7" font-family="Helvetica,sans-Serif" font-size="10.00">stdint.h</text>
</a>
</g>
</g>
<!-- Node1&#45;&gt;Node4 -->
<g id="edge14" class="edge">
<title>Node1&#45;&gt;Node4</title>
<path fill="none" stroke="#63b8ff" d="M331.56,-164.65C347.46,-157.65 366.63,-146.17 376.05,-129 388.07,-107.13 365.76,-63.49 357.05,-55 328.97,-27.6 284.08,-17.06 252.72,-13.01"/>
<polygon fill="#63b8ff" stroke="#63b8ff" points="253.26,-9.55 242.94,-11.93 252.49,-16.51 253.26,-9.55"/>
</g>
<!-- Node5 -->
<g id="node5" class="node">
<title>Node5</title>
<g id="a_node5"><a xlink:href="audio__dec_8h.html" target="_top" xlink:title="The audio decoder interface for the libmsx audio replayer.">
<polygon fill="white" stroke="#666666" points="302.05,-129 234.05,-129 234.05,-110 302.05,-110 302.05,-129"/>
<text text-anchor="middle" x="268.05" y="-117" font-family="Helvetica,sans-Serif" font-size="10.00">audio_dec.h</text>
</a>
</g>
</g>
<!-- Node1&#45;&gt;Node5 -->
<g id="edge4" class="edge">
<title>Node1&#45;&gt;Node5</title>
<path fill="none" stroke="#63b8ff" d="M299.78,-164.75C294.69,-157.66 287.36,-147.42 281.02,-138.59"/>
<polygon fill="#63b8ff" stroke="#63b8ff" points="284.02,-136.76 275.35,-130.67 278.33,-140.84 284.02,-136.76"/>
</g>
<!-- Node6 -->
<g id="node6" class="node">
<title>Node6</title>
<g id="a_node6"><a xlink:href="snd__sound_8h.html" target="_top" xlink:title="Sound / Music data structure for snddrv.">
<polygon fill="white" stroke="#666666" points="188.55,-129 111.55,-129 111.55,-110 188.55,-110 188.55,-129"/>
<text text-anchor="middle" x="150.05" y="-117" font-family="Helvetica,sans-Serif" font-size="10.00">./snd_sound.h</text>
</a>
</g>
</g>
<!-- Node1&#45;&gt;Node6 -->
<g id="edge6" class="edge">
<title>Node1&#45;&gt;Node6</title>
<path fill="none" stroke="#63b8ff" d="M279.59,-164.51C254.19,-155.88 215.59,-142.76 187.13,-133.1"/>
<polygon fill="#63b8ff" stroke="#63b8ff" points="188.41,-129.84 177.82,-129.93 186.16,-136.46 188.41,-129.84"/>
</g>
<!-- Node3 -->
<g id="node3" class="node">
<title>Node3</title>
<g id="a_node3"><a xlink:title=" ">
<polygon fill="#e0e0e0" stroke="#999999" points="330.05,-74 274.05,-74 274.05,-55 330.05,-55 330.05,-74"/>
<text text-anchor="middle" x="302.05" y="-62" font-family="Helvetica,sans-Serif" font-size="10.00">stdbool.h</text>
</a>
</g>
</g>
<!-- Node2&#45;&gt;Node3 -->
<g id="edge2" class="edge">
<title>Node2&#45;&gt;Node3</title>
<path fill="none" stroke="#63b8ff" d="M337.12,-109.75C331.44,-102.58 323.22,-92.2 316.16,-83.3"/>
<polygon fill="#63b8ff" stroke="#63b8ff" points="319.03,-81.29 310.08,-75.63 313.55,-85.64 319.03,-81.29"/>
</g>
<!-- Node2&#45;&gt;Node4 -->
<g id="edge3" class="edge">
<title>Node2&#45;&gt;Node4</title>
<path fill="none" stroke="#63b8ff" d="M346.1,-109.67C348.62,-96.36 351.23,-71.02 339.05,-55 318.82,-28.38 281.09,-17.67 252.92,-13.37"/>
<polygon fill="#63b8ff" stroke="#63b8ff" points="253.38,-9.9 243.01,-12.08 252.48,-16.84 253.38,-9.9"/>
</g>
<!-- Node5&#45;&gt;Node3 -->
<g id="edge5" class="edge">
<title>Node5&#45;&gt;Node3</title>
<path fill="none" stroke="#63b8ff" d="M273.67,-109.75C278.17,-102.73 284.64,-92.64 290.27,-83.87"/>
<polygon fill="#63b8ff" stroke="#63b8ff" points="293.05,-86.02 295.5,-75.72 287.16,-82.24 293.05,-86.02"/>
</g>
<!-- Node6&#45;&gt;Node3 -->
<g id="edge7" class="edge">
<title>Node6&#45;&gt;Node3</title>
<path fill="none" stroke="#63b8ff" d="M175.84,-109.51C200.48,-100.92 237.87,-87.88 265.56,-78.22"/>
<polygon fill="#63b8ff" stroke="#63b8ff" points="266.68,-81.54 274.97,-74.94 264.37,-74.93 266.68,-81.54"/>
</g>
<!-- Node6&#45;&gt;Node4 -->
<g id="edge8" class="edge">
<title>Node6&#45;&gt;Node4</title>
<path fill="none" stroke="#63b8ff" d="M111.15,-115.03C59.01,-108.86 -23.64,-92.88 7.05,-55 28.59,-28.42 127.27,-17.07 181.35,-12.79"/>
<polygon fill="#63b8ff" stroke="#63b8ff" points="181.58,-16.28 191.29,-12.04 181.06,-9.3 181.58,-16.28"/>
</g>
<!-- Node7 -->
<g id="node7" class="node">
<title>Node7</title>
<g id="a_node7"><a xlink:title=" ">
<polygon fill="#e0e0e0" stroke="#999999" points="67.55,-74 16.55,-74 16.55,-55 67.55,-55 67.55,-74"/>
<text text-anchor="middle" x="42.05" y="-62" font-family="Helvetica,sans-Serif" font-size="10.00">stddef.h</text>
</a>
</g>
</g>
<!-- Node6&#45;&gt;Node7 -->
<g id="edge9" class="edge">
<title>Node6&#45;&gt;Node7</title>
<path fill="none" stroke="#63b8ff" d="M131.73,-109.51C114.88,-101.24 89.62,-88.84 70.2,-79.31"/>
<polygon fill="#63b8ff" stroke="#63b8ff" points="71.98,-76.29 61.46,-75.02 68.9,-82.57 71.98,-76.29"/>
</g>
<!-- Node8 -->
<g id="node8" class="node">
<title>Node8</title>
<g id="a_node8"><a xlink:href="snd__i__table_8h.html" target="_top" xlink:title="Instrument data type for SNDDRV.">
<polygon fill="white" stroke="#666666" points="160.05,-74 86.05,-74 86.05,-55 160.05,-55 160.05,-74"/>
<text text-anchor="middle" x="123.05" y="-62" font-family="Helvetica,sans-Serif" font-size="10.00">snd_i_table.h</text>
</a>
</g>
</g>
<!-- Node6&#45;&gt;Node8 -->
<g id="edge10" class="edge">
<title>Node6&#45;&gt;Node8</title>
<path fill="none" stroke="#63b8ff" d="M145.6,-109.75C142.1,-102.88 137.11,-93.08 132.71,-84.45"/>
<polygon fill="#63b8ff" stroke="#63b8ff" points="135.96,-83.11 128.3,-75.79 129.72,-86.29 135.96,-83.11"/>
</g>
<!-- Node9 -->
<g id="node9" class="node">
<title>Node9</title>
<g id="a_node9"><a xlink:href="snd__p__table_8h.html" target="_top" xlink:title="Pitch&#45;bend table data type for SNDDRV.">
<polygon fill="white" stroke="#666666" points="255.55,-74 178.55,-74 178.55,-55 255.55,-55 255.55,-74"/>
<text text-anchor="middle" x="217.05" y="-62" font-family="Helvetica,sans-Serif" font-size="10.00">snd_p_table.h</text>
</a>
</g>
</g>
<!-- Node6&#45;&gt;Node9 -->
<g id="edge12" class="edge">
<title>Node6&#45;&gt;Node9</title>
<path fill="none" stroke="#63b8ff" d="M161.42,-109.51C171.1,-101.85 185.25,-90.66 196.86,-81.47"/>
<polygon fill="#63b8ff" stroke="#63b8ff" points="199,-84.25 204.67,-75.3 194.66,-78.76 199,-84.25"/>
</g>
<!-- Node8&#45;&gt;Node4 -->
<g id="edge11" class="edge">
<title>Node8&#45;&gt;Node4</title>
<path fill="none" stroke="#63b8ff" d="M139,-54.51C153.4,-46.39 174.84,-34.3 191.61,-24.85"/>
<polygon fill="#63b8ff" stroke="#63b8ff" points="193.03,-28.06 200.03,-20.1 189.6,-21.96 193.03,-28.06"/>
</g>
<!-- Node9&#45;&gt;Node4 -->
<g id="edge13" class="edge">
<title>Node9&#45;&gt;Node4</title>
<path fill="none" stroke="#63b8ff" d="M217.05,-54.75C217.05,-48.27 217.05,-39.16 217.05,-30.9"/>
<polygon fill="#63b8ff" stroke="#63b8ff" points="220.55,-30.96 217.05,-20.96 213.55,-30.96 220.55,-30.96"/>
</g>
</g>
</svg>
