<?xml version="1.0" encoding="UTF-8" standalone="no"?>
<!DOCTYPE svg PUBLIC "-//W3C//DTD SVG 1.1//EN"
 "http://www.w3.org/Graphics/SVG/1.1/DTD/svg11.dtd">
<!-- Generated by graphviz version 3.0.0 (20221109.1736)
 -->
<!-- Title: include/snddrv.h Pages: 1 -->
<svg width="371pt" height="196pt"
 viewBox="0.00 0.00 371.27 196.00" xmlns="http://www.w3.org/2000/svg" xmlns:xlink="http://www.w3.org/1999/xlink">
<g id="graph0" class="graph" transform="scale(1 1) rotate(0) translate(4 192)">
<title>include/snddrv.h</title>
<!-- Node1 -->
<g id="node1" class="node">
<title>Node1</title>
<g id="a_node1"><a xlink:title="SNDDRV a PSG sound driver.">
<polygon fill="#bfbfbf" stroke="black" points="215.5,-168.5 215.5,-187.5 302.5,-187.5 302.5,-168.5 215.5,-168.5"/>
<text text-anchor="middle" x="259" y="-175.5" font-family="Helvetica,sans-Serif" font-size="10.00">include/snddrv.h</text>
</a>
</g>
</g>
<!-- Node2 -->
<g id="node2" class="node">
<title>Node2</title>
<g id="a_node2"><a xlink:href="snd__sound_8h.html" target="_top" xlink:title="Sound / Music data structure for snddrv.">
<polygon fill="none" stroke="black" points="140.5,-112.5 140.5,-131.5 217.5,-131.5 217.5,-112.5 140.5,-112.5"/>
<text text-anchor="middle" x="179" y="-119.5" font-family="Helvetica,sans-Serif" font-size="10.00">./snd_sound.h</text>
</a>
</g>
</g>
<!-- Node1&#45;&gt;Node2 -->
<g id="edge1" class="edge">
<title>Node1&#45;&gt;Node2</title>
<path fill="none" stroke="midnightblue" d="M246.15,-168.32C233.78,-159.98 214.87,-147.21 200.26,-137.35"/>
<polygon fill="midnightblue" stroke="midnightblue" points="202.07,-134.35 191.82,-131.65 198.15,-140.15 202.07,-134.35"/>
</g>
<!-- Node4 -->
<g id="node4" class="node">
<title>Node4</title>
<g id="a_node4"><a xlink:title=" ">
<polygon fill="none" stroke="#bfbfbf" points="242,-0.5 242,-19.5 290,-19.5 290,-0.5 242,-0.5"/>
<text text-anchor="middle" x="266" y="-7.5" font-family="Helvetica,sans-Serif" font-size="10.00">stdint.h</text>
</a>
</g>
</g>
<!-- Node1&#45;&gt;Node4 -->
<g id="edge9" class="edge">
<title>Node1&#45;&gt;Node4</title>
<path fill="none" stroke="midnightblue" d="M273.33,-168.32C296.9,-153.08 343.06,-119.01 361,-76 373.46,-46.13 332.12,-28.03 300.08,-18.77"/>
<polygon fill="midnightblue" stroke="midnightblue" points="300.65,-15.3 290.08,-16.07 298.82,-22.06 300.65,-15.3"/>
</g>
<!-- Node3 -->
<g id="node3" class="node">
<title>Node3</title>
<g id="a_node3"><a xlink:title=" ">
<polygon fill="none" stroke="#bfbfbf" points="0,-56.5 0,-75.5 56,-75.5 56,-56.5 0,-56.5"/>
<text text-anchor="middle" x="28" y="-63.5" font-family="Helvetica,sans-Serif" font-size="10.00">stdbool.h</text>
</a>
</g>
</g>
<!-- Node2&#45;&gt;Node3 -->
<g id="edge2" class="edge">
<title>Node2&#45;&gt;Node3</title>
<path fill="none" stroke="midnightblue" d="M155.07,-112.44C129.78,-103.4 89.7,-89.06 61.32,-78.92"/>
<polygon fill="midnightblue" stroke="midnightblue" points="62.41,-75.59 51.81,-75.52 60.05,-82.18 62.41,-75.59"/>
</g>
<!-- Node2&#45;&gt;Node4 -->
<g id="edge3" class="edge">
<title>Node2&#45;&gt;Node4</title>
<path fill="none" stroke="midnightblue" d="M154.48,-112.47C125.91,-101.18 84.81,-79.9 103,-56 118.53,-35.61 188.7,-22.1 231.75,-15.57"/>
<polygon fill="midnightblue" stroke="midnightblue" points="232.42,-19.01 241.8,-14.1 231.4,-12.08 232.42,-19.01"/>
</g>
<!-- Node5 -->
<g id="node5" class="node">
<title>Node5</title>
<g id="a_node5"><a xlink:title=" ">
<polygon fill="none" stroke="#bfbfbf" points="112.5,-56.5 112.5,-75.5 163.5,-75.5 163.5,-56.5 112.5,-56.5"/>
<text text-anchor="middle" x="138" y="-63.5" font-family="Helvetica,sans-Serif" font-size="10.00">stddef.h</text>
</a>
</g>
</g>
<!-- Node2&#45;&gt;Node5 -->
<g id="edge4" class="edge">
<title>Node2&#45;&gt;Node5</title>
<path fill="none" stroke="midnightblue" d="M172.23,-112.08C166.44,-104.46 157.94,-93.26 150.86,-83.94"/>
<polygon fill="midnightblue" stroke="midnightblue" points="153.48,-81.6 144.64,-75.75 147.9,-85.83 153.48,-81.6"/>
</g>
<!-- Node6 -->
<g id="node6" class="node">
<title>Node6</title>
<g id="a_node6"><a xlink:href="snd__i__table_8h.html" target="_top" xlink:title="Instrument data type for SNDDRV.">
<polygon fill="none" stroke="black" points="182,-56.5 182,-75.5 256,-75.5 256,-56.5 182,-56.5"/>
<text text-anchor="middle" x="219" y="-63.5" font-family="Helvetica,sans-Serif" font-size="10.00">snd_i_table.h</text>
</a>
</g>
</g>
<!-- Node2&#45;&gt;Node6 -->
<g id="edge5" class="edge">
<title>Node2&#45;&gt;Node6</title>
<path fill="none" stroke="midnightblue" d="M185.61,-112.08C191.26,-104.46 199.54,-93.26 206.45,-83.94"/>
<polygon fill="midnightblue" stroke="midnightblue" points="209.38,-85.87 212.52,-75.75 203.75,-81.7 209.38,-85.87"/>
</g>
<!-- Node7 -->
<g id="node7" class="node">
<title>Node7</title>
<g id="a_node7"><a xlink:href="snd__p__table_8h.html" target="_top" xlink:title="Pitch&#45;bend table data type for SNDDRV.">
<polygon fill="none" stroke="black" points="274.5,-56.5 274.5,-75.5 351.5,-75.5 351.5,-56.5 274.5,-56.5"/>
<text text-anchor="middle" x="313" y="-63.5" font-family="Helvetica,sans-Serif" font-size="10.00">snd_p_table.h</text>
</a>
</g>
</g>
<!-- Node2&#45;&gt;Node7 -->
<g id="edge7" class="edge">
<title>Node2&#45;&gt;Node7</title>
<path fill="none" stroke="midnightblue" d="M200.23,-112.44C222.38,-103.52 257.32,-89.44 282.44,-79.32"/>
<polygon fill="midnightblue" stroke="midnightblue" points="283.9,-82.5 291.87,-75.52 281.28,-76.01 283.9,-82.5"/>
</g>
<!-- Node6&#45;&gt;Node4 -->
<g id="edge6" class="edge">
<title>Node6&#45;&gt;Node4</title>
<path fill="none" stroke="midnightblue" d="M226.76,-56.08C233.54,-48.3 243.54,-36.8 251.76,-27.37"/>
<polygon fill="midnightblue" stroke="midnightblue" points="254.46,-29.59 258.38,-19.75 249.18,-25 254.46,-29.59"/>
</g>
<!-- Node7&#45;&gt;Node4 -->
<g id="edge8" class="edge">
<title>Node7&#45;&gt;Node4</title>
<path fill="none" stroke="midnightblue" d="M305.24,-56.08C298.46,-48.3 288.46,-36.8 280.24,-27.37"/>
<polygon fill="midnightblue" stroke="midnightblue" points="282.82,-25 273.62,-19.75 277.54,-29.59 282.82,-25"/>
</g>
</g>
</svg>
