<?xml version="1.0" encoding="UTF-8" standalone="no"?>
<!DOCTYPE svg PUBLIC "-//W3C//DTD SVG 1.1//EN"
 "http://www.w3.org/Graphics/SVG/1.1/DTD/svg11.dtd">
<!-- Generated by graphviz version 2.44.0 ()
 -->
<!-- Title: src/sound.c Pages: 1 -->
<svg width="531pt" height="196pt"
 viewBox="0.00 0.00 531.00 196.00" xmlns="http://www.w3.org/2000/svg" xmlns:xlink="http://www.w3.org/1999/xlink">
<g id="graph0" class="graph" transform="scale(1 1) rotate(0) translate(4 192)">
<title>src/sound.c</title>
<!-- Node1 -->
<g id="node1" class="node">
<title>Node1</title>
<g id="a_node1"><a xlink:title="Copyright (c) 2021 Daishi Mori (mori0091)">
<polygon fill="#bfbfbf" stroke="black" points="296,-168.5 296,-187.5 363,-187.5 363,-168.5 296,-168.5"/>
<text text-anchor="middle" x="329.5" y="-175.5" font-family="Helvetica,sans-Serif" font-size="10.00">src/sound.c</text>
</a>
</g>
</g>
<!-- Node2 -->
<g id="node2" class="node">
<title>Node2</title>
<g id="a_node2"><a xlink:href="bios_8h.html" target="_top" xlink:title="Copyright (c) 2021 Daishi Mori (mori0091)">
<polygon fill="none" stroke="black" points="82,-112.5 82,-131.5 165,-131.5 165,-112.5 82,-112.5"/>
<text text-anchor="middle" x="123.5" y="-119.5" font-family="Helvetica,sans-Serif" font-size="10.00">../include/bios.h</text>
</a>
</g>
</g>
<!-- Node1&#45;&gt;Node2 -->
<g id="edge1" class="edge">
<title>Node1&#45;&gt;Node2</title>
<path fill="none" stroke="midnightblue" d="M296.86,-168.44C261.45,-159.16 204.79,-144.31 165.95,-134.13"/>
<polygon fill="midnightblue" stroke="midnightblue" points="166.55,-130.67 155.99,-131.52 164.77,-137.44 166.55,-130.67"/>
</g>
<!-- Node6 -->
<g id="node6" class="node">
<title>Node6</title>
<g id="a_node6"><a xlink:href="psg_8h.html" target="_top" xlink:title="Copyright (c) 2021 Daishi Mori (mori0091)">
<polygon fill="none" stroke="black" points="210,-112.5 210,-131.5 291,-131.5 291,-112.5 210,-112.5"/>
<text text-anchor="middle" x="250.5" y="-119.5" font-family="Helvetica,sans-Serif" font-size="10.00">../include/psg.h</text>
</a>
</g>
</g>
<!-- Node1&#45;&gt;Node6 -->
<g id="edge6" class="edge">
<title>Node1&#45;&gt;Node6</title>
<path fill="none" stroke="midnightblue" d="M316.81,-168.32C304.6,-159.98 285.92,-147.21 271.5,-137.35"/>
<polygon fill="midnightblue" stroke="midnightblue" points="273.39,-134.41 263.16,-131.65 269.44,-140.19 273.39,-134.41"/>
</g>
<!-- Node8 -->
<g id="node8" class="node">
<title>Node8</title>
<g id="a_node8"><a xlink:href="sound_8h.html" target="_top" xlink:title="Copyright (c) 2021 Daishi Mori (mori0091)">
<polygon fill="none" stroke="black" points="305.5,-56.5 305.5,-75.5 397.5,-75.5 397.5,-56.5 305.5,-56.5"/>
<text text-anchor="middle" x="351.5" y="-63.5" font-family="Helvetica,sans-Serif" font-size="10.00">../include/sound.h</text>
</a>
</g>
</g>
<!-- Node1&#45;&gt;Node8 -->
<g id="edge9" class="edge">
<title>Node1&#45;&gt;Node8</title>
<path fill="none" stroke="midnightblue" d="M331.23,-168.37C334.78,-150.62 342.97,-109.67 347.78,-85.6"/>
<polygon fill="midnightblue" stroke="midnightblue" points="351.25,-86.08 349.78,-75.59 344.39,-84.71 351.25,-86.08"/>
</g>
<!-- Node11 -->
<g id="node11" class="node">
<title>Node11</title>
<g id="a_node11"><a xlink:href="sound__eg_8h.html" target="_top" xlink:title="Copyright (c) 2021 Daishi Mori (mori0091)">
<polygon fill="none" stroke="black" points="416,-56.5 416,-75.5 523,-75.5 523,-56.5 416,-56.5"/>
<text text-anchor="middle" x="469.5" y="-63.5" font-family="Helvetica,sans-Serif" font-size="10.00">../include/sound_eg.h</text>
</a>
</g>
</g>
<!-- Node1&#45;&gt;Node11 -->
<g id="edge13" class="edge">
<title>Node1&#45;&gt;Node11</title>
<path fill="none" stroke="midnightblue" d="M363.05,-172.85C390.24,-167.75 427.67,-156.53 450.5,-132 462.13,-119.51 466.68,-100.28 468.44,-85.97"/>
<polygon fill="midnightblue" stroke="midnightblue" points="471.95,-86.04 469.33,-75.77 464.97,-85.43 471.95,-86.04"/>
</g>
<!-- Node12 -->
<g id="node12" class="node">
<title>Node12</title>
<g id="a_node12"><a xlink:href="sound__eg__spi_8h.html" target="_top" xlink:title="Copyright (c) 2021 Daishi Mori (mori0091)">
<polygon fill="none" stroke="black" points="357.5,-112.5 357.5,-131.5 441.5,-131.5 441.5,-112.5 357.5,-112.5"/>
<text text-anchor="middle" x="399.5" y="-119.5" font-family="Helvetica,sans-Serif" font-size="10.00">sound_eg_spi.h</text>
</a>
</g>
</g>
<!-- Node1&#45;&gt;Node12 -->
<g id="edge16" class="edge">
<title>Node1&#45;&gt;Node12</title>
<path fill="none" stroke="midnightblue" d="M340.75,-168.32C351.3,-160.18 367.3,-147.84 379.94,-138.09"/>
<polygon fill="midnightblue" stroke="midnightblue" points="382.27,-140.71 388.05,-131.83 377.99,-135.17 382.27,-140.71"/>
</g>
<!-- Node3 -->
<g id="node3" class="node">
<title>Node3</title>
<g id="a_node3"><a xlink:href="bios__const_8h.html" target="_top" xlink:title="Constant variables in the MSX BIOS ROM.">
<polygon fill="none" stroke="black" points="0,-56.5 0,-75.5 71,-75.5 71,-56.5 0,-56.5"/>
<text text-anchor="middle" x="35.5" y="-63.5" font-family="Helvetica,sans-Serif" font-size="10.00">bios_const.h</text>
</a>
</g>
</g>
<!-- Node2&#45;&gt;Node3 -->
<g id="edge2" class="edge">
<title>Node2&#45;&gt;Node3</title>
<path fill="none" stroke="midnightblue" d="M109.36,-112.32C95.63,-103.9 74.56,-90.97 58.44,-81.07"/>
<polygon fill="midnightblue" stroke="midnightblue" points="59.96,-77.9 49.6,-75.65 56.3,-83.87 59.96,-77.9"/>
</g>
<!-- Node5 -->
<g id="node5" class="node">
<title>Node5</title>
<g id="a_node5"><a xlink:href="bios__entry_8h.html" target="_top" xlink:title="Assembler entry points for MSX BIOS functions.">
<polygon fill="none" stroke="black" points="89.5,-56.5 89.5,-75.5 157.5,-75.5 157.5,-56.5 89.5,-56.5"/>
<text text-anchor="middle" x="123.5" y="-63.5" font-family="Helvetica,sans-Serif" font-size="10.00">bios_entry.h</text>
</a>
</g>
</g>
<!-- Node2&#45;&gt;Node5 -->
<g id="edge4" class="edge">
<title>Node2&#45;&gt;Node5</title>
<path fill="none" stroke="midnightblue" d="M123.5,-112.08C123.5,-105.01 123.5,-94.86 123.5,-85.99"/>
<polygon fill="midnightblue" stroke="midnightblue" points="127,-85.75 123.5,-75.75 120,-85.75 127,-85.75"/>
</g>
<!-- Node4 -->
<g id="node4" class="node">
<title>Node4</title>
<g id="a_node4"><a xlink:title=" ">
<polygon fill="none" stroke="#bfbfbf" points="161.5,-0.5 161.5,-19.5 209.5,-19.5 209.5,-0.5 161.5,-0.5"/>
<text text-anchor="middle" x="185.5" y="-7.5" font-family="Helvetica,sans-Serif" font-size="10.00">stdint.h</text>
</a>
</g>
</g>
<!-- Node3&#45;&gt;Node4 -->
<g id="edge3" class="edge">
<title>Node3&#45;&gt;Node4</title>
<path fill="none" stroke="midnightblue" d="M59.27,-56.44C84.39,-47.4 124.21,-33.06 152.4,-22.92"/>
<polygon fill="midnightblue" stroke="midnightblue" points="153.62,-26.2 161.84,-19.52 151.25,-19.61 153.62,-26.2"/>
</g>
<!-- Node5&#45;&gt;Node4 -->
<g id="edge5" class="edge">
<title>Node5&#45;&gt;Node4</title>
<path fill="none" stroke="midnightblue" d="M133.46,-56.32C142.63,-48.34 156.44,-36.31 167.53,-26.65"/>
<polygon fill="midnightblue" stroke="midnightblue" points="170.12,-29.04 175.36,-19.83 165.52,-23.76 170.12,-29.04"/>
</g>
<!-- Node6&#45;&gt;Node4 -->
<g id="edge7" class="edge">
<title>Node6&#45;&gt;Node4</title>
<path fill="none" stroke="midnightblue" d="M238.63,-112.29C228.2,-104.04 213.35,-90.75 204.5,-76 195.9,-61.67 190.99,-43.2 188.33,-29.62"/>
<polygon fill="midnightblue" stroke="midnightblue" points="191.74,-28.81 186.59,-19.55 184.84,-30 191.74,-28.81"/>
</g>
<!-- Node7 -->
<g id="node7" class="node">
<title>Node7</title>
<g id="a_node7"><a xlink:href="io_8h.html" target="_top" xlink:title="Copyright (c) 2021 Daishi Mori (mori0091)">
<polygon fill="none" stroke="black" points="214,-56.5 214,-75.5 287,-75.5 287,-56.5 214,-56.5"/>
<text text-anchor="middle" x="250.5" y="-63.5" font-family="Helvetica,sans-Serif" font-size="10.00">../include/io.h</text>
</a>
</g>
</g>
<!-- Node6&#45;&gt;Node7 -->
<g id="edge8" class="edge">
<title>Node6&#45;&gt;Node7</title>
<path fill="none" stroke="midnightblue" d="M250.5,-112.08C250.5,-105.01 250.5,-94.86 250.5,-85.99"/>
<polygon fill="midnightblue" stroke="midnightblue" points="254,-85.75 250.5,-75.75 247,-85.75 254,-85.75"/>
</g>
<!-- Node8&#45;&gt;Node4 -->
<g id="edge11" class="edge">
<title>Node8&#45;&gt;Node4</title>
<path fill="none" stroke="midnightblue" d="M325.2,-56.44C296.49,-47.1 250.45,-32.13 219.13,-21.94"/>
<polygon fill="midnightblue" stroke="midnightblue" points="220.12,-18.58 209.52,-18.82 217.95,-25.24 220.12,-18.58"/>
</g>
<!-- Node9 -->
<g id="node9" class="node">
<title>Node9</title>
<g id="a_node9"><a xlink:title=" ">
<polygon fill="none" stroke="#bfbfbf" points="417.5,-0.5 417.5,-19.5 473.5,-19.5 473.5,-0.5 417.5,-0.5"/>
<text text-anchor="middle" x="445.5" y="-7.5" font-family="Helvetica,sans-Serif" font-size="10.00">stdbool.h</text>
</a>
</g>
</g>
<!-- Node8&#45;&gt;Node9 -->
<g id="edge10" class="edge">
<title>Node8&#45;&gt;Node9</title>
<path fill="none" stroke="midnightblue" d="M366.6,-56.32C381.4,-47.82 404.19,-34.73 421.48,-24.8"/>
<polygon fill="midnightblue" stroke="midnightblue" points="423.51,-27.67 430.43,-19.65 420.02,-21.6 423.51,-27.67"/>
</g>
<!-- Node10 -->
<g id="node10" class="node">
<title>Node10</title>
<g id="a_node10"><a xlink:title=" ">
<polygon fill="none" stroke="#bfbfbf" points="328,-0.5 328,-19.5 375,-19.5 375,-0.5 328,-0.5"/>
<text text-anchor="middle" x="351.5" y="-7.5" font-family="Helvetica,sans-Serif" font-size="10.00">stdlib.h</text>
</a>
</g>
</g>
<!-- Node8&#45;&gt;Node10 -->
<g id="edge12" class="edge">
<title>Node8&#45;&gt;Node10</title>
<path fill="none" stroke="midnightblue" d="M351.5,-56.08C351.5,-49.01 351.5,-38.86 351.5,-29.99"/>
<polygon fill="midnightblue" stroke="midnightblue" points="355,-29.75 351.5,-19.75 348,-29.75 355,-29.75"/>
</g>
<!-- Node11&#45;&gt;Node4 -->
<g id="edge15" class="edge">
<title>Node11&#45;&gt;Node4</title>
<path fill="none" stroke="midnightblue" d="M424.5,-56.44C367.58,-45.62 270.83,-27.22 219.62,-17.49"/>
<polygon fill="midnightblue" stroke="midnightblue" points="220.2,-14.03 209.72,-15.6 218.89,-20.91 220.2,-14.03"/>
</g>
<!-- Node11&#45;&gt;Node9 -->
<g id="edge14" class="edge">
<title>Node11&#45;&gt;Node9</title>
<path fill="none" stroke="midnightblue" d="M465.54,-56.08C462.29,-48.77 457.58,-38.18 453.55,-29.1"/>
<polygon fill="midnightblue" stroke="midnightblue" points="456.65,-27.47 449.39,-19.75 450.25,-30.31 456.65,-27.47"/>
</g>
<!-- Node12&#45;&gt;Node11 -->
<g id="edge17" class="edge">
<title>Node12&#45;&gt;Node11</title>
<path fill="none" stroke="midnightblue" d="M410.75,-112.32C421.3,-104.18 437.3,-91.84 449.94,-82.09"/>
<polygon fill="midnightblue" stroke="midnightblue" points="452.27,-84.71 458.05,-75.83 447.99,-79.17 452.27,-84.71"/>
</g>
</g>
</svg>
