<?xml version="1.0" encoding="UTF-8" standalone="no"?>
<!DOCTYPE svg PUBLIC "-//W3C//DTD SVG 1.1//EN"
 "http://www.w3.org/Graphics/SVG/1.1/DTD/svg11.dtd">
<!-- Generated by graphviz version 2.49.3 (20211027.1534)
 -->
<!-- Title: src/sound.c Pages: 1 -->
<svg width="500pt" height="252pt"
 viewBox="0.00 0.00 500.00 252.00" xmlns="http://www.w3.org/2000/svg" xmlns:xlink="http://www.w3.org/1999/xlink">
<g id="graph0" class="graph" transform="scale(1 1) rotate(0) translate(4 248)">
<title>src/sound.c</title>
<!-- Node1 -->
<g id="node1" class="node">
<title>Node1</title>
<g id="a_node1"><a xlink:title="Copyright (c) 2021 Daishi Mori (mori0091)">
<polygon fill="#bfbfbf" stroke="black" points="240.5,-224.5 240.5,-243.5 307.5,-243.5 307.5,-224.5 240.5,-224.5"/>
<text text-anchor="middle" x="274" y="-231.5" font-family="Helvetica,sans-Serif" font-size="10.00">src/sound.c</text>
</a>
</g>
</g>
<!-- Node2 -->
<g id="node2" class="node">
<title>Node2</title>
<g id="a_node2"><a xlink:href="bios_8h.html" target="_top" xlink:title="Copyright (c) 2021 Daishi Mori (mori0091)">
<polygon fill="none" stroke="black" points="20.5,-168.5 20.5,-187.5 103.5,-187.5 103.5,-168.5 20.5,-168.5"/>
<text text-anchor="middle" x="62" y="-175.5" font-family="Helvetica,sans-Serif" font-size="10.00">../include/bios.h</text>
</a>
</g>
</g>
<!-- Node1&#45;&gt;Node2 -->
<g id="edge1" class="edge">
<title>Node1&#45;&gt;Node2</title>
<path fill="none" stroke="midnightblue" d="M240.41,-224.44C203.81,-215.12 145.16,-200.18 105.17,-190"/>
<polygon fill="midnightblue" stroke="midnightblue" points="105.99,-186.59 95.43,-187.52 104.26,-193.38 105.99,-186.59"/>
</g>
<!-- Node7 -->
<g id="node7" class="node">
<title>Node7</title>
<g id="a_node7"><a xlink:href="psg_8h.html" target="_top" xlink:title="Copyright (c) 2021 Daishi Mori (mori0091)">
<polygon fill="none" stroke="black" points="175.5,-112.5 175.5,-131.5 256.5,-131.5 256.5,-112.5 175.5,-112.5"/>
<text text-anchor="middle" x="216" y="-119.5" font-family="Helvetica,sans-Serif" font-size="10.00">../include/psg.h</text>
</a>
</g>
</g>
<!-- Node1&#45;&gt;Node7 -->
<g id="edge8" class="edge">
<title>Node1&#45;&gt;Node7</title>
<path fill="none" stroke="midnightblue" d="M240.25,-230.89C211.23,-227.09 171,-216.61 151,-188 136.88,-167.79 163.47,-148.3 186.78,-136.02"/>
<polygon fill="midnightblue" stroke="midnightblue" points="188.4,-139.13 195.79,-131.53 185.28,-132.86 188.4,-139.13"/>
</g>
<!-- Node9 -->
<g id="node9" class="node">
<title>Node9</title>
<g id="a_node9"><a xlink:href="sound_8h.html" target="_top" xlink:title="Copyright (c) 2021 Daishi Mori (mori0091)">
<polygon fill="none" stroke="black" points="400,-112.5 400,-131.5 492,-131.5 492,-112.5 400,-112.5"/>
<text text-anchor="middle" x="446" y="-119.5" font-family="Helvetica,sans-Serif" font-size="10.00">../include/sound.h</text>
</a>
</g>
</g>
<!-- Node1&#45;&gt;Node9 -->
<g id="edge12" class="edge">
<title>Node1&#45;&gt;Node9</title>
<path fill="none" stroke="midnightblue" d="M307.63,-226.43C334.14,-219.99 371.03,-208.14 398,-188 414.8,-175.45 428.35,-155.39 436.71,-140.87"/>
<polygon fill="midnightblue" stroke="midnightblue" points="439.91,-142.32 441.65,-131.87 433.78,-138.95 439.91,-142.32"/>
</g>
<!-- Node12 -->
<g id="node12" class="node">
<title>Node12</title>
<g id="a_node12"><a xlink:href="sound__eg_8h.html" target="_top" xlink:title="Copyright (c) 2021 Daishi Mori (mori0091)">
<polygon fill="none" stroke="black" points="274.5,-112.5 274.5,-131.5 381.5,-131.5 381.5,-112.5 274.5,-112.5"/>
<text text-anchor="middle" x="328" y="-119.5" font-family="Helvetica,sans-Serif" font-size="10.00">../include/sound_eg.h</text>
</a>
</g>
</g>
<!-- Node1&#45;&gt;Node12 -->
<g id="edge16" class="edge">
<title>Node1&#45;&gt;Node12</title>
<path fill="none" stroke="midnightblue" d="M307.61,-229.03C333.04,-224.06 366.32,-212.93 383,-188 395.62,-169.14 373.33,-149.53 353.46,-136.85"/>
<polygon fill="midnightblue" stroke="midnightblue" points="355.01,-133.69 344.64,-131.54 351.4,-139.69 355.01,-133.69"/>
</g>
<!-- Node13 -->
<g id="node13" class="node">
<title>Node13</title>
<g id="a_node13"><a xlink:href="sound__eg__spi_8h.html" target="_top" xlink:title="Copyright (c) 2021 Daishi Mori (mori0091)">
<polygon fill="none" stroke="black" points="290,-168.5 290,-187.5 374,-187.5 374,-168.5 290,-168.5"/>
<text text-anchor="middle" x="332" y="-175.5" font-family="Helvetica,sans-Serif" font-size="10.00">sound_eg_spi.h</text>
</a>
</g>
</g>
<!-- Node1&#45;&gt;Node13 -->
<g id="edge19" class="edge">
<title>Node1&#45;&gt;Node13</title>
<path fill="none" stroke="midnightblue" d="M283.32,-224.32C291.89,-216.34 304.81,-204.31 315.19,-194.65"/>
<polygon fill="midnightblue" stroke="midnightblue" points="317.58,-197.21 322.51,-187.83 312.81,-192.09 317.58,-197.21"/>
</g>
<!-- Node14 -->
<g id="node14" class="node">
<title>Node14</title>
<g id="a_node14"><a xlink:href="ay__3__8910_8h.html" target="_top" xlink:title="Copyright (c) 2022 Daishi Mori (mori0091)">
<polygon fill="none" stroke="black" points="160,-168.5 160,-187.5 272,-187.5 272,-168.5 160,-168.5"/>
<text text-anchor="middle" x="216" y="-175.5" font-family="Helvetica,sans-Serif" font-size="10.00">../include/ay_3_8910.h</text>
</a>
</g>
</g>
<!-- Node1&#45;&gt;Node14 -->
<g id="edge21" class="edge">
<title>Node1&#45;&gt;Node14</title>
<path fill="none" stroke="midnightblue" d="M264.68,-224.32C256.11,-216.34 243.19,-204.31 232.81,-194.65"/>
<polygon fill="midnightblue" stroke="midnightblue" points="235.19,-192.09 225.49,-187.83 230.42,-197.21 235.19,-192.09"/>
</g>
<!-- Node3 -->
<g id="node3" class="node">
<title>Node3</title>
<g id="a_node3"><a xlink:href="bios__const_8h.html" target="_top" xlink:title="Constant variables in the MSX BIOS ROM.">
<polygon fill="none" stroke="black" points="86.5,-112.5 86.5,-131.5 157.5,-131.5 157.5,-112.5 86.5,-112.5"/>
<text text-anchor="middle" x="122" y="-119.5" font-family="Helvetica,sans-Serif" font-size="10.00">bios_const.h</text>
</a>
</g>
</g>
<!-- Node2&#45;&gt;Node3 -->
<g id="edge2" class="edge">
<title>Node2&#45;&gt;Node3</title>
<path fill="none" stroke="midnightblue" d="M71.64,-168.32C80.51,-160.34 93.87,-148.31 104.61,-138.65"/>
<polygon fill="midnightblue" stroke="midnightblue" points="107.09,-141.13 112.18,-131.83 102.41,-135.92 107.09,-141.13"/>
</g>
<!-- Node6 -->
<g id="node6" class="node">
<title>Node6</title>
<g id="a_node6"><a xlink:href="bios__entry_8h.html" target="_top" xlink:title="Assembler entry points for MSX BIOS functions.">
<polygon fill="none" stroke="black" points="0,-112.5 0,-131.5 68,-131.5 68,-112.5 0,-112.5"/>
<text text-anchor="middle" x="34" y="-119.5" font-family="Helvetica,sans-Serif" font-size="10.00">bios_entry.h</text>
</a>
</g>
</g>
<!-- Node2&#45;&gt;Node6 -->
<g id="edge5" class="edge">
<title>Node2&#45;&gt;Node6</title>
<path fill="none" stroke="midnightblue" d="M57.38,-168.08C53.54,-160.69 47.98,-149.95 43.24,-140.81"/>
<polygon fill="midnightblue" stroke="midnightblue" points="46.25,-139.02 38.54,-131.75 40.03,-142.24 46.25,-139.02"/>
</g>
<!-- Node4 -->
<g id="node4" class="node">
<title>Node4</title>
<g id="a_node4"><a xlink:title=" ">
<polygon fill="none" stroke="#bfbfbf" points="142,-56.5 142,-75.5 190,-75.5 190,-56.5 142,-56.5"/>
<text text-anchor="middle" x="166" y="-63.5" font-family="Helvetica,sans-Serif" font-size="10.00">stdint.h</text>
</a>
</g>
</g>
<!-- Node3&#45;&gt;Node4 -->
<g id="edge3" class="edge">
<title>Node3&#45;&gt;Node4</title>
<path fill="none" stroke="midnightblue" d="M129.27,-112.08C135.54,-104.38 144.79,-93.03 152.43,-83.65"/>
<polygon fill="midnightblue" stroke="midnightblue" points="155.27,-85.71 158.87,-75.75 149.84,-81.29 155.27,-85.71"/>
</g>
<!-- Node5 -->
<g id="node5" class="node">
<title>Node5</title>
<g id="a_node5"><a xlink:href="config_8h.html" target="_top" xlink:title="Copyright (c) 2022 Daishi Mori (mori0091)">
<polygon fill="none" stroke="black" points="89,-0.5 89,-19.5 139,-19.5 139,-0.5 89,-0.5"/>
<text text-anchor="middle" x="114" y="-7.5" font-family="Helvetica,sans-Serif" font-size="10.00">config.h</text>
</a>
</g>
</g>
<!-- Node3&#45;&gt;Node5 -->
<g id="edge4" class="edge">
<title>Node3&#45;&gt;Node5</title>
<path fill="none" stroke="midnightblue" d="M121.37,-112.37C120.08,-94.62 117.1,-53.67 115.35,-29.6"/>
<polygon fill="midnightblue" stroke="midnightblue" points="118.84,-29.31 114.62,-19.59 111.86,-29.82 118.84,-29.31"/>
</g>
<!-- Node6&#45;&gt;Node4 -->
<g id="edge6" class="edge">
<title>Node6&#45;&gt;Node4</title>
<path fill="none" stroke="midnightblue" d="M54.92,-112.44C76.74,-103.52 111.15,-89.44 135.89,-79.32"/>
<polygon fill="midnightblue" stroke="midnightblue" points="137.25,-82.54 145.18,-75.52 134.6,-76.06 137.25,-82.54"/>
</g>
<!-- Node6&#45;&gt;Node5 -->
<g id="edge7" class="edge">
<title>Node6&#45;&gt;Node5</title>
<path fill="none" stroke="midnightblue" d="M40.28,-112.37C53.48,-94.22 84.33,-51.8 101.64,-27.99"/>
<polygon fill="midnightblue" stroke="midnightblue" points="104.7,-29.74 107.75,-19.59 99.04,-25.62 104.7,-29.74"/>
</g>
<!-- Node7&#45;&gt;Node4 -->
<g id="edge9" class="edge">
<title>Node7&#45;&gt;Node4</title>
<path fill="none" stroke="midnightblue" d="M207.74,-112.08C200.54,-104.3 189.89,-92.8 181.15,-83.37"/>
<polygon fill="midnightblue" stroke="midnightblue" points="183.47,-80.71 174.1,-75.75 178.33,-85.47 183.47,-80.71"/>
</g>
<!-- Node8 -->
<g id="node8" class="node">
<title>Node8</title>
<g id="a_node8"><a xlink:href="io_8h.html" target="_top" xlink:title="Copyright (c) 2021 Daishi Mori (mori0091)">
<polygon fill="none" stroke="black" points="208,-56.5 208,-75.5 240,-75.5 240,-56.5 208,-56.5"/>
<text text-anchor="middle" x="224" y="-63.5" font-family="Helvetica,sans-Serif" font-size="10.00">io.h</text>
</a>
</g>
</g>
<!-- Node7&#45;&gt;Node8 -->
<g id="edge10" class="edge">
<title>Node7&#45;&gt;Node8</title>
<path fill="none" stroke="midnightblue" d="M217.32,-112.08C218.38,-104.93 219.91,-94.64 221.23,-85.69"/>
<polygon fill="midnightblue" stroke="midnightblue" points="224.7,-86.16 222.7,-75.75 217.78,-85.13 224.7,-86.16"/>
</g>
<!-- Node8&#45;&gt;Node5 -->
<g id="edge11" class="edge">
<title>Node8&#45;&gt;Node5</title>
<path fill="none" stroke="midnightblue" d="M207.77,-57.03C190.04,-48.33 161.39,-34.26 140.42,-23.97"/>
<polygon fill="midnightblue" stroke="midnightblue" points="141.91,-20.8 131.39,-19.54 138.82,-27.08 141.91,-20.8"/>
</g>
<!-- Node9&#45;&gt;Node4 -->
<g id="edge14" class="edge">
<title>Node9&#45;&gt;Node4</title>
<path fill="none" stroke="midnightblue" d="M399.93,-113.1C343.43,-103.32 249.95,-86.88 200.05,-76.05"/>
<polygon fill="midnightblue" stroke="midnightblue" points="200.61,-72.59 190.09,-73.83 199.09,-79.42 200.61,-72.59"/>
</g>
<!-- Node10 -->
<g id="node10" class="node">
<title>Node10</title>
<g id="a_node10"><a xlink:title=" ">
<polygon fill="none" stroke="#bfbfbf" points="324,-56.5 324,-75.5 380,-75.5 380,-56.5 324,-56.5"/>
<text text-anchor="middle" x="352" y="-63.5" font-family="Helvetica,sans-Serif" font-size="10.00">stdbool.h</text>
</a>
</g>
</g>
<!-- Node9&#45;&gt;Node10 -->
<g id="edge13" class="edge">
<title>Node9&#45;&gt;Node10</title>
<path fill="none" stroke="midnightblue" d="M430.9,-112.32C416.1,-103.82 393.31,-90.73 376.02,-80.8"/>
<polygon fill="midnightblue" stroke="midnightblue" points="377.48,-77.6 367.07,-75.65 373.99,-83.67 377.48,-77.6"/>
</g>
<!-- Node11 -->
<g id="node11" class="node">
<title>Node11</title>
<g id="a_node11"><a xlink:title=" ">
<polygon fill="none" stroke="#bfbfbf" points="422.5,-56.5 422.5,-75.5 469.5,-75.5 469.5,-56.5 422.5,-56.5"/>
<text text-anchor="middle" x="446" y="-63.5" font-family="Helvetica,sans-Serif" font-size="10.00">stdlib.h</text>
</a>
</g>
</g>
<!-- Node9&#45;&gt;Node11 -->
<g id="edge15" class="edge">
<title>Node9&#45;&gt;Node11</title>
<path fill="none" stroke="midnightblue" d="M446,-112.08C446,-105.01 446,-94.86 446,-85.99"/>
<polygon fill="midnightblue" stroke="midnightblue" points="449.5,-85.75 446,-75.75 442.5,-85.75 449.5,-85.75"/>
</g>
<!-- Node12&#45;&gt;Node4 -->
<g id="edge18" class="edge">
<title>Node12&#45;&gt;Node4</title>
<path fill="none" stroke="midnightblue" d="M302.33,-112.44C274.68,-103.23 230.54,-88.51 200.01,-78.34"/>
<polygon fill="midnightblue" stroke="midnightblue" points="200.82,-74.92 190.23,-75.08 198.61,-81.56 200.82,-74.92"/>
</g>
<!-- Node12&#45;&gt;Node10 -->
<g id="edge17" class="edge">
<title>Node12&#45;&gt;Node10</title>
<path fill="none" stroke="midnightblue" d="M331.96,-112.08C335.21,-104.77 339.92,-94.18 343.95,-85.1"/>
<polygon fill="midnightblue" stroke="midnightblue" points="347.25,-86.31 348.11,-75.75 340.85,-83.47 347.25,-86.31"/>
</g>
<!-- Node13&#45;&gt;Node12 -->
<g id="edge20" class="edge">
<title>Node13&#45;&gt;Node12</title>
<path fill="none" stroke="midnightblue" d="M331.34,-168.08C330.82,-161.01 330.06,-150.86 329.41,-141.99"/>
<polygon fill="midnightblue" stroke="midnightblue" points="332.88,-141.47 328.65,-131.75 325.9,-141.98 332.88,-141.47"/>
</g>
<!-- Node14&#45;&gt;Node7 -->
<g id="edge22" class="edge">
<title>Node14&#45;&gt;Node7</title>
<path fill="none" stroke="midnightblue" d="M216,-168.08C216,-161.01 216,-150.86 216,-141.99"/>
<polygon fill="midnightblue" stroke="midnightblue" points="219.5,-141.75 216,-131.75 212.5,-141.75 219.5,-141.75"/>
</g>
</g>
</svg>
