<?xml version="1.0" encoding="UTF-8" standalone="no"?>
<!DOCTYPE svg PUBLIC "-//W3C//DTD SVG 1.1//EN"
 "http://www.w3.org/Graphics/SVG/1.1/DTD/svg11.dtd">
<!-- Generated by graphviz version 2.44.0 ()
 -->
<!-- Title: src/sound.c Pages: 1 -->
<svg width="457pt" height="207pt"
 viewBox="0.00 0.00 456.50 207.00" xmlns="http://www.w3.org/2000/svg" xmlns:xlink="http://www.w3.org/1999/xlink">
<g id="graph0" class="graph" transform="scale(1 1) rotate(0) translate(4 203)">
<title>src/sound.c</title>
<!-- Node1 -->
<g id="node1" class="node">
<title>Node1</title>
<g id="a_node1"><a xlink:title="Copyright (c) 2021 Daishi Mori (mori0091)">
<polygon fill="#bfbfbf" stroke="black" points="177,-179.5 177,-198.5 244,-198.5 244,-179.5 177,-179.5"/>
<text text-anchor="middle" x="210.5" y="-186.5" font-family="Helvetica,sans-Serif" font-size="10.00">src/sound.c</text>
</a>
</g>
</g>
<!-- Node2 -->
<g id="node2" class="node">
<title>Node2</title>
<g id="a_node2"><a xlink:title=" ">
<polygon fill="none" stroke="#bfbfbf" points="11.5,-118 11.5,-137 59.5,-137 59.5,-118 11.5,-118"/>
<text text-anchor="middle" x="35.5" y="-125" font-family="Helvetica,sans-Serif" font-size="10.00">string.h</text>
</a>
</g>
</g>
<!-- Node1&#45;&gt;Node2 -->
<g id="edge1" class="edge">
<title>Node1&#45;&gt;Node2</title>
<path fill="none" stroke="midnightblue" d="M183.34,-179.49C155.6,-170.71 111.37,-156.44 73.5,-143 71.39,-142.25 69.22,-141.47 67.04,-140.67"/>
<polygon fill="midnightblue" stroke="midnightblue" points="68.13,-137.34 57.54,-137.11 65.68,-143.89 68.13,-137.34"/>
</g>
<!-- Node3 -->
<g id="node3" class="node">
<title>Node3</title>
<g id="a_node3"><a xlink:href="bios_8h.html" target="_top" xlink:title="Copyright (c) 2021 Daishi Mori (mori0091)">
<polygon fill="none" stroke="black" points="0,-56.5 0,-75.5 83,-75.5 83,-56.5 0,-56.5"/>
<text text-anchor="middle" x="41.5" y="-63.5" font-family="Helvetica,sans-Serif" font-size="10.00">../include/bios.h</text>
</a>
</g>
</g>
<!-- Node1&#45;&gt;Node3 -->
<g id="edge2" class="edge">
<title>Node1&#45;&gt;Node3</title>
<path fill="none" stroke="midnightblue" d="M181.29,-179.36C159.35,-171.96 129.29,-159.82 106.5,-143 84.11,-126.47 64.27,-100.84 52.57,-83.99"/>
<polygon fill="midnightblue" stroke="midnightblue" points="55.43,-81.98 46.94,-75.64 49.63,-85.89 55.43,-81.98"/>
</g>
<!-- Node5 -->
<g id="node5" class="node">
<title>Node5</title>
<g id="a_node5"><a xlink:href="psg_8h.html" target="_top" xlink:title="Copyright (c) 2021 Daishi Mori (mori0091)">
<polygon fill="none" stroke="black" points="116,-118 116,-137 197,-137 197,-118 116,-118"/>
<text text-anchor="middle" x="156.5" y="-125" font-family="Helvetica,sans-Serif" font-size="10.00">../include/psg.h</text>
</a>
</g>
</g>
<!-- Node1&#45;&gt;Node5 -->
<g id="edge4" class="edge">
<title>Node1&#45;&gt;Node5</title>
<path fill="none" stroke="midnightblue" d="M202.76,-179.48C194.5,-170.37 181.22,-155.74 171.01,-144.48"/>
<polygon fill="midnightblue" stroke="midnightblue" points="173.53,-142.06 164.22,-137.01 168.35,-146.77 173.53,-142.06"/>
</g>
<!-- Node7 -->
<g id="node7" class="node">
<title>Node7</title>
<g id="a_node7"><a xlink:href="sound_8h.html" target="_top" xlink:title="Copyright (c) 2021 Daishi Mori (mori0091)">
<polygon fill="none" stroke="black" points="356.5,-56.5 356.5,-75.5 448.5,-75.5 448.5,-56.5 356.5,-56.5"/>
<text text-anchor="middle" x="402.5" y="-63.5" font-family="Helvetica,sans-Serif" font-size="10.00">../include/sound.h</text>
</a>
</g>
</g>
<!-- Node1&#45;&gt;Node7 -->
<g id="edge7" class="edge">
<title>Node1&#45;&gt;Node7</title>
<path fill="none" stroke="midnightblue" d="M244.08,-181.73C271.81,-175.36 311.23,-163.45 340.5,-143 362.79,-127.43 381.39,-101.72 392.24,-84.57"/>
<polygon fill="midnightblue" stroke="midnightblue" points="395.48,-85.97 397.69,-75.61 389.5,-82.33 395.48,-85.97"/>
</g>
<!-- Node10 -->
<g id="node10" class="node">
<title>Node10</title>
<g id="a_node10"><a xlink:href="sound__eg_8h.html" target="_top" xlink:title="Copyright (c) 2021 Daishi Mori (mori0091)">
<polygon fill="none" stroke="black" points="231,-56.5 231,-75.5 338,-75.5 338,-56.5 231,-56.5"/>
<text text-anchor="middle" x="284.5" y="-63.5" font-family="Helvetica,sans-Serif" font-size="10.00">../include/sound_eg.h</text>
</a>
</g>
</g>
<!-- Node1&#45;&gt;Node10 -->
<g id="edge11" class="edge">
<title>Node1&#45;&gt;Node10</title>
<path fill="none" stroke="midnightblue" d="M244.25,-184.73C270.97,-180.16 306.67,-169.21 324.5,-143 337.98,-123.19 318.77,-98.3 302.61,-82.52"/>
<polygon fill="midnightblue" stroke="midnightblue" points="304.79,-79.77 295.07,-75.56 300.04,-84.92 304.79,-79.77"/>
</g>
<!-- Node11 -->
<g id="node11" class="node">
<title>Node11</title>
<g id="a_node11"><a xlink:href="sound__eg__spi_8h.html" target="_top" xlink:title="Copyright (c) 2021 Daishi Mori (mori0091)">
<polygon fill="none" stroke="black" points="215.5,-112.5 215.5,-142.5 315.5,-142.5 315.5,-112.5 215.5,-112.5"/>
<text text-anchor="start" x="223.5" y="-130.5" font-family="Helvetica,sans-Serif" font-size="10.00">../include/sound_eg</text>
<text text-anchor="middle" x="265.5" y="-119.5" font-family="Helvetica,sans-Serif" font-size="10.00">_spi.h</text>
</a>
</g>
</g>
<!-- Node1&#45;&gt;Node11 -->
<g id="edge14" class="edge">
<title>Node1&#45;&gt;Node11</title>
<path fill="none" stroke="midnightblue" d="M218.38,-179.48C225.48,-171.79 236.22,-160.17 245.66,-149.96"/>
<polygon fill="midnightblue" stroke="midnightblue" points="248.32,-152.24 252.54,-142.52 243.18,-147.49 248.32,-152.24"/>
</g>
<!-- Node4 -->
<g id="node4" class="node">
<title>Node4</title>
<g id="a_node4"><a xlink:title=" ">
<polygon fill="none" stroke="#bfbfbf" points="208.5,-0.5 208.5,-19.5 256.5,-19.5 256.5,-0.5 208.5,-0.5"/>
<text text-anchor="middle" x="232.5" y="-7.5" font-family="Helvetica,sans-Serif" font-size="10.00">stdint.h</text>
</a>
</g>
</g>
<!-- Node3&#45;&gt;Node4 -->
<g id="edge3" class="edge">
<title>Node3&#45;&gt;Node4</title>
<path fill="none" stroke="midnightblue" d="M71.76,-56.44C106.23,-46.7 162.41,-30.82 198.4,-20.64"/>
<polygon fill="midnightblue" stroke="midnightblue" points="199.75,-23.9 208.42,-17.81 197.85,-17.16 199.75,-23.9"/>
</g>
<!-- Node5&#45;&gt;Node4 -->
<g id="edge5" class="edge">
<title>Node5&#45;&gt;Node4</title>
<path fill="none" stroke="midnightblue" d="M162.21,-117.82C174.7,-98.84 204.63,-53.35 221.12,-28.29"/>
<polygon fill="midnightblue" stroke="midnightblue" points="224.15,-30.06 226.72,-19.78 218.3,-26.21 224.15,-30.06"/>
</g>
<!-- Node6 -->
<g id="node6" class="node">
<title>Node6</title>
<g id="a_node6"><a xlink:href="io_8h.html" target="_top" xlink:title="Copyright (c) 2021 Daishi Mori (mori0091)">
<polygon fill="none" stroke="black" points="101,-56.5 101,-75.5 174,-75.5 174,-56.5 101,-56.5"/>
<text text-anchor="middle" x="137.5" y="-63.5" font-family="Helvetica,sans-Serif" font-size="10.00">../include/io.h</text>
</a>
</g>
</g>
<!-- Node5&#45;&gt;Node6 -->
<g id="edge6" class="edge">
<title>Node5&#45;&gt;Node6</title>
<path fill="none" stroke="midnightblue" d="M153.78,-117.98C151.07,-109.49 146.83,-96.2 143.35,-85.32"/>
<polygon fill="midnightblue" stroke="midnightblue" points="146.59,-83.97 140.22,-75.51 139.93,-86.1 146.59,-83.97"/>
</g>
<!-- Node7&#45;&gt;Node4 -->
<g id="edge9" class="edge">
<title>Node7&#45;&gt;Node4</title>
<path fill="none" stroke="midnightblue" d="M375.56,-56.44C345.99,-47.05 298.47,-31.96 266.39,-21.77"/>
<polygon fill="midnightblue" stroke="midnightblue" points="267.15,-18.34 256.56,-18.64 265.03,-25.01 267.15,-18.34"/>
</g>
<!-- Node8 -->
<g id="node8" class="node">
<title>Node8</title>
<g id="a_node8"><a xlink:title=" ">
<polygon fill="none" stroke="#bfbfbf" points="280.5,-0.5 280.5,-19.5 336.5,-19.5 336.5,-0.5 280.5,-0.5"/>
<text text-anchor="middle" x="308.5" y="-7.5" font-family="Helvetica,sans-Serif" font-size="10.00">stdbool.h</text>
</a>
</g>
</g>
<!-- Node7&#45;&gt;Node8 -->
<g id="edge8" class="edge">
<title>Node7&#45;&gt;Node8</title>
<path fill="none" stroke="midnightblue" d="M387.4,-56.32C372.6,-47.82 349.81,-34.73 332.52,-24.8"/>
<polygon fill="midnightblue" stroke="midnightblue" points="333.98,-21.6 323.57,-19.65 330.49,-27.67 333.98,-21.6"/>
</g>
<!-- Node9 -->
<g id="node9" class="node">
<title>Node9</title>
<g id="a_node9"><a xlink:title=" ">
<polygon fill="none" stroke="#bfbfbf" points="379,-0.5 379,-19.5 426,-19.5 426,-0.5 379,-0.5"/>
<text text-anchor="middle" x="402.5" y="-7.5" font-family="Helvetica,sans-Serif" font-size="10.00">stdlib.h</text>
</a>
</g>
</g>
<!-- Node7&#45;&gt;Node9 -->
<g id="edge10" class="edge">
<title>Node7&#45;&gt;Node9</title>
<path fill="none" stroke="midnightblue" d="M402.5,-56.08C402.5,-49.01 402.5,-38.86 402.5,-29.99"/>
<polygon fill="midnightblue" stroke="midnightblue" points="406,-29.75 402.5,-19.75 399,-29.75 406,-29.75"/>
</g>
<!-- Node10&#45;&gt;Node4 -->
<g id="edge13" class="edge">
<title>Node10&#45;&gt;Node4</title>
<path fill="none" stroke="midnightblue" d="M275.91,-56.08C268.34,-48.22 257.12,-36.57 247.99,-27.08"/>
<polygon fill="midnightblue" stroke="midnightblue" points="250.38,-24.53 240.93,-19.75 245.34,-29.38 250.38,-24.53"/>
</g>
<!-- Node10&#45;&gt;Node8 -->
<g id="edge12" class="edge">
<title>Node10&#45;&gt;Node8</title>
<path fill="none" stroke="midnightblue" d="M288.46,-56.08C291.71,-48.77 296.42,-38.18 300.45,-29.1"/>
<polygon fill="midnightblue" stroke="midnightblue" points="303.75,-30.31 304.61,-19.75 297.35,-27.47 303.75,-30.31"/>
</g>
<!-- Node11&#45;&gt;Node10 -->
<g id="edge15" class="edge">
<title>Node11&#45;&gt;Node10</title>
<path fill="none" stroke="midnightblue" d="M270,-112.4C272.59,-104.29 275.88,-94.01 278.66,-85.28"/>
<polygon fill="midnightblue" stroke="midnightblue" points="282.03,-86.25 281.74,-75.66 275.36,-84.12 282.03,-86.25"/>
</g>
</g>
</svg>
