<?xml version="1.0" encoding="UTF-8" standalone="no"?>
<!DOCTYPE svg PUBLIC "-//W3C//DTD SVG 1.1//EN"
 "http://www.w3.org/Graphics/SVG/1.1/DTD/svg11.dtd">
<!-- Generated by graphviz version 2.44.0 ()
 -->
<!-- Title: src/sound.c Pages: 1 -->
<svg width="305pt" height="140pt"
 viewBox="0.00 0.00 304.50 140.00" xmlns="http://www.w3.org/2000/svg" xmlns:xlink="http://www.w3.org/1999/xlink">
<g id="graph0" class="graph" transform="scale(1 1) rotate(0) translate(4 136)">
<title>src/sound.c</title>
<!-- Node1 -->
<g id="node1" class="node">
<title>Node1</title>
<g id="a_node1"><a xlink:title="Copyright (c) 2021 Daishi Mori (mori0091)">
<polygon fill="#bfbfbf" stroke="black" points="73.5,-112.5 73.5,-131.5 140.5,-131.5 140.5,-112.5 73.5,-112.5"/>
<text text-anchor="middle" x="107" y="-119.5" font-family="Helvetica,sans-Serif" font-size="10.00">src/sound.c</text>
</a>
</g>
</g>
<!-- Node2 -->
<g id="node2" class="node">
<title>Node2</title>
<g id="a_node2"><a xlink:title=" ">
<polygon fill="none" stroke="#bfbfbf" points="0,-56.5 0,-75.5 48,-75.5 48,-56.5 0,-56.5"/>
<text text-anchor="middle" x="24" y="-63.5" font-family="Helvetica,sans-Serif" font-size="10.00">string.h</text>
</a>
</g>
</g>
<!-- Node1&#45;&gt;Node2 -->
<g id="edge1" class="edge">
<title>Node1&#45;&gt;Node2</title>
<path fill="none" stroke="midnightblue" d="M93.66,-112.32C80.84,-103.98 61.22,-91.21 46.06,-81.35"/>
<polygon fill="midnightblue" stroke="midnightblue" points="47.59,-78.17 37.3,-75.65 43.78,-84.04 47.59,-78.17"/>
</g>
<!-- Node3 -->
<g id="node3" class="node">
<title>Node3</title>
<g id="a_node3"><a xlink:href="psg_8h.html" target="_top" xlink:title="Copyright (c) 2021 Daishi Mori (mori0091)">
<polygon fill="none" stroke="black" points="66.5,-56.5 66.5,-75.5 147.5,-75.5 147.5,-56.5 66.5,-56.5"/>
<text text-anchor="middle" x="107" y="-63.5" font-family="Helvetica,sans-Serif" font-size="10.00">../include/psg.h</text>
</a>
</g>
</g>
<!-- Node1&#45;&gt;Node3 -->
<g id="edge2" class="edge">
<title>Node1&#45;&gt;Node3</title>
<path fill="none" stroke="midnightblue" d="M107,-112.08C107,-105.01 107,-94.86 107,-85.99"/>
<polygon fill="midnightblue" stroke="midnightblue" points="110.5,-85.75 107,-75.75 103.5,-85.75 110.5,-85.75"/>
</g>
<!-- Node5 -->
<g id="node5" class="node">
<title>Node5</title>
<g id="a_node5"><a xlink:href="sound_8h.html" target="_top" xlink:title="Copyright (c) 2021 Daishi Mori (mori0091)">
<polygon fill="none" stroke="black" points="166,-56.5 166,-75.5 258,-75.5 258,-56.5 166,-56.5"/>
<text text-anchor="middle" x="212" y="-63.5" font-family="Helvetica,sans-Serif" font-size="10.00">../include/sound.h</text>
</a>
</g>
</g>
<!-- Node1&#45;&gt;Node5 -->
<g id="edge4" class="edge">
<title>Node1&#45;&gt;Node5</title>
<path fill="none" stroke="midnightblue" d="M123.87,-112.32C140.71,-103.66 166.81,-90.24 186.24,-80.25"/>
<polygon fill="midnightblue" stroke="midnightblue" points="187.88,-83.34 195.17,-75.65 184.68,-77.12 187.88,-83.34"/>
</g>
<!-- Node4 -->
<g id="node4" class="node">
<title>Node4</title>
<g id="a_node4"><a xlink:title=" ">
<polygon fill="none" stroke="#bfbfbf" points="100,-0.5 100,-19.5 148,-19.5 148,-0.5 100,-0.5"/>
<text text-anchor="middle" x="124" y="-7.5" font-family="Helvetica,sans-Serif" font-size="10.00">stdint.h</text>
</a>
</g>
</g>
<!-- Node3&#45;&gt;Node4 -->
<g id="edge3" class="edge">
<title>Node3&#45;&gt;Node4</title>
<path fill="none" stroke="midnightblue" d="M109.81,-56.08C112.08,-48.85 115.37,-38.41 118.21,-29.4"/>
<polygon fill="midnightblue" stroke="midnightblue" points="121.58,-30.34 121.25,-19.75 114.9,-28.24 121.58,-30.34"/>
</g>
<!-- Node5&#45;&gt;Node4 -->
<g id="edge6" class="edge">
<title>Node5&#45;&gt;Node4</title>
<path fill="none" stroke="midnightblue" d="M197.86,-56.32C184.13,-47.9 163.06,-34.97 146.94,-25.07"/>
<polygon fill="midnightblue" stroke="midnightblue" points="148.46,-21.9 138.1,-19.65 144.8,-27.87 148.46,-21.9"/>
</g>
<!-- Node6 -->
<g id="node6" class="node">
<title>Node6</title>
<g id="a_node6"><a xlink:title=" ">
<polygon fill="none" stroke="#bfbfbf" points="175,-0.5 175,-19.5 231,-19.5 231,-0.5 175,-0.5"/>
<text text-anchor="middle" x="203" y="-7.5" font-family="Helvetica,sans-Serif" font-size="10.00">stdbool.h</text>
</a>
</g>
</g>
<!-- Node5&#45;&gt;Node6 -->
<g id="edge5" class="edge">
<title>Node5&#45;&gt;Node6</title>
<path fill="none" stroke="midnightblue" d="M210.51,-56.08C209.32,-48.93 207.61,-38.64 206.12,-29.69"/>
<polygon fill="midnightblue" stroke="midnightblue" points="209.55,-29.04 204.46,-19.75 202.65,-30.19 209.55,-29.04"/>
</g>
<!-- Node7 -->
<g id="node7" class="node">
<title>Node7</title>
<g id="a_node7"><a xlink:title=" ">
<polygon fill="none" stroke="#bfbfbf" points="249.5,-0.5 249.5,-19.5 296.5,-19.5 296.5,-0.5 249.5,-0.5"/>
<text text-anchor="middle" x="273" y="-7.5" font-family="Helvetica,sans-Serif" font-size="10.00">stdlib.h</text>
</a>
</g>
</g>
<!-- Node5&#45;&gt;Node7 -->
<g id="edge7" class="edge">
<title>Node5&#45;&gt;Node7</title>
<path fill="none" stroke="midnightblue" d="M221.8,-56.32C230.82,-48.34 244.41,-36.31 255.32,-26.65"/>
<polygon fill="midnightblue" stroke="midnightblue" points="257.85,-29.08 263.02,-19.83 253.21,-23.84 257.85,-29.08"/>
</g>
</g>
</svg>
