<?xml version="1.0" encoding="UTF-8" standalone="no"?>
<!DOCTYPE svg PUBLIC "-//W3C//DTD SVG 1.1//EN"
 "http://www.w3.org/Graphics/SVG/1.1/DTD/svg11.dtd">
<!-- Generated by graphviz version 2.50.0 (20220203.2022)
 -->
<!-- Title: src/sound.c Pages: 1 -->
<svg width="501pt" height="196pt"
 viewBox="0.00 0.00 500.50 196.00" xmlns="http://www.w3.org/2000/svg" xmlns:xlink="http://www.w3.org/1999/xlink">
<g id="graph0" class="graph" transform="scale(1 1) rotate(0) translate(4 192)">
<title>src/sound.c</title>
<!-- Node1 -->
<g id="node1" class="node">
<title>Node1</title>
<g id="a_node1"><a xlink:title="Copyright (c) 2021 Daishi Mori (mori0091)">
<polygon fill="#bfbfbf" stroke="black" points="240,-168.5 240,-187.5 307,-187.5 307,-168.5 240,-168.5"/>
<text text-anchor="middle" x="273.5" y="-175.5" font-family="Helvetica,sans-Serif" font-size="10.00">src/sound.c</text>
</a>
</g>
</g>
<!-- Node2 -->
<g id="node2" class="node">
<title>Node2</title>
<g id="a_node2"><a xlink:href="bios_8h.html" target="_top" xlink:title="Copyright (c) 2021 Daishi Mori (mori0091)">
<polygon fill="none" stroke="black" points="181,-112.5 181,-131.5 264,-131.5 264,-112.5 181,-112.5"/>
<text text-anchor="middle" x="222.5" y="-119.5" font-family="Helvetica,sans-Serif" font-size="10.00">../include/bios.h</text>
</a>
</g>
</g>
<!-- Node1&#45;&gt;Node2 -->
<g id="edge1" class="edge">
<title>Node1&#45;&gt;Node2</title>
<path fill="none" stroke="midnightblue" d="M265.08,-168.08C257.65,-160.22 246.65,-148.57 237.69,-139.08"/>
<polygon fill="midnightblue" stroke="midnightblue" points="240.18,-136.62 230.76,-131.75 235.09,-141.42 240.18,-136.62"/>
</g>
<!-- Node6 -->
<g id="node6" class="node">
<title>Node6</title>
<g id="a_node6"><a xlink:href="psg_8h.html" target="_top" xlink:title="Copyright (c) 2021 Daishi Mori (mori0091)">
<polygon fill="none" stroke="black" points="0,-56.5 0,-75.5 81,-75.5 81,-56.5 0,-56.5"/>
<text text-anchor="middle" x="40.5" y="-63.5" font-family="Helvetica,sans-Serif" font-size="10.00">../include/psg.h</text>
</a>
</g>
</g>
<!-- Node1&#45;&gt;Node6 -->
<g id="edge6" class="edge">
<title>Node1&#45;&gt;Node6</title>
<path fill="none" stroke="midnightblue" d="M239.72,-175.5C181.59,-172.14 66.46,-161.8 41.5,-132 30.87,-119.31 32.09,-99.84 35.07,-85.51"/>
<polygon fill="midnightblue" stroke="midnightblue" points="38.48,-86.31 37.53,-75.75 31.69,-84.6 38.48,-86.31"/>
</g>
<!-- Node8 -->
<g id="node8" class="node">
<title>Node8</title>
<g id="a_node8"><a xlink:href="sound_8h.html" target="_top" xlink:title="Copyright (c) 2021 Daishi Mori (mori0091)">
<polygon fill="none" stroke="black" points="400.5,-56.5 400.5,-75.5 492.5,-75.5 492.5,-56.5 400.5,-56.5"/>
<text text-anchor="middle" x="446.5" y="-63.5" font-family="Helvetica,sans-Serif" font-size="10.00">../include/sound.h</text>
</a>
</g>
</g>
<!-- Node1&#45;&gt;Node8 -->
<g id="edge9" class="edge">
<title>Node1&#45;&gt;Node8</title>
<path fill="none" stroke="midnightblue" d="M307.15,-168.83C331.76,-161.77 365.14,-149.85 390.5,-132 408.88,-119.06 425.06,-98.78 435.23,-84.32"/>
<polygon fill="midnightblue" stroke="midnightblue" points="438.3,-86.03 441.02,-75.79 432.51,-82.1 438.3,-86.03"/>
</g>
<!-- Node11 -->
<g id="node11" class="node">
<title>Node11</title>
<g id="a_node11"><a xlink:href="sound__eg_8h.html" target="_top" xlink:title="Copyright (c) 2021 Daishi Mori (mori0091)">
<polygon fill="none" stroke="black" points="275,-56.5 275,-75.5 382,-75.5 382,-56.5 275,-56.5"/>
<text text-anchor="middle" x="328.5" y="-63.5" font-family="Helvetica,sans-Serif" font-size="10.00">../include/sound_eg.h</text>
</a>
</g>
</g>
<!-- Node1&#45;&gt;Node11 -->
<g id="edge13" class="edge">
<title>Node1&#45;&gt;Node11</title>
<path fill="none" stroke="midnightblue" d="M307.24,-171.87C330.75,-166.35 360.49,-155.02 375.5,-132 387.13,-114.15 368.08,-94.43 350.86,-81.44"/>
<polygon fill="midnightblue" stroke="midnightblue" points="352.88,-78.58 342.7,-75.64 348.83,-84.29 352.88,-78.58"/>
</g>
<!-- Node12 -->
<g id="node12" class="node">
<title>Node12</title>
<g id="a_node12"><a xlink:href="sound__eg__spi_8h.html" target="_top" xlink:title="Copyright (c) 2021 Daishi Mori (mori0091)">
<polygon fill="none" stroke="black" points="282.5,-112.5 282.5,-131.5 366.5,-131.5 366.5,-112.5 282.5,-112.5"/>
<text text-anchor="middle" x="324.5" y="-119.5" font-family="Helvetica,sans-Serif" font-size="10.00">sound_eg_spi.h</text>
</a>
</g>
</g>
<!-- Node1&#45;&gt;Node12 -->
<g id="edge16" class="edge">
<title>Node1&#45;&gt;Node12</title>
<path fill="none" stroke="midnightblue" d="M281.92,-168.08C289.35,-160.22 300.35,-148.57 309.31,-139.08"/>
<polygon fill="midnightblue" stroke="midnightblue" points="311.91,-141.42 316.24,-131.75 306.82,-136.62 311.91,-141.42"/>
</g>
<!-- Node13 -->
<g id="node13" class="node">
<title>Node13</title>
<g id="a_node13"><a xlink:href="ay__3__8910_8h.html" target="_top" xlink:title="Copyright (c) 2022 Daishi Mori (mori0091)">
<polygon fill="none" stroke="black" points="50.5,-112.5 50.5,-131.5 162.5,-131.5 162.5,-112.5 50.5,-112.5"/>
<text text-anchor="middle" x="106.5" y="-119.5" font-family="Helvetica,sans-Serif" font-size="10.00">../include/ay_3_8910.h</text>
</a>
</g>
</g>
<!-- Node1&#45;&gt;Node13 -->
<g id="edge18" class="edge">
<title>Node1&#45;&gt;Node13</title>
<path fill="none" stroke="midnightblue" d="M247.04,-168.44C218.82,-159.32 173.96,-144.81 142.53,-134.65"/>
<polygon fill="midnightblue" stroke="midnightblue" points="143.43,-131.26 132.84,-131.52 141.28,-137.92 143.43,-131.26"/>
</g>
<!-- Node3 -->
<g id="node3" class="node">
<title>Node3</title>
<g id="a_node3"><a xlink:href="bios__const_8h.html" target="_top" xlink:title="Constant variables in the MSX BIOS ROM.">
<polygon fill="none" stroke="black" points="99,-56.5 99,-75.5 170,-75.5 170,-56.5 99,-56.5"/>
<text text-anchor="middle" x="134.5" y="-63.5" font-family="Helvetica,sans-Serif" font-size="10.00">bios_const.h</text>
</a>
</g>
</g>
<!-- Node2&#45;&gt;Node3 -->
<g id="edge2" class="edge">
<title>Node2&#45;&gt;Node3</title>
<path fill="none" stroke="midnightblue" d="M208.36,-112.32C194.63,-103.9 173.56,-90.97 157.44,-81.07"/>
<polygon fill="midnightblue" stroke="midnightblue" points="158.96,-77.9 148.6,-75.65 155.3,-83.87 158.96,-77.9"/>
</g>
<!-- Node5 -->
<g id="node5" class="node">
<title>Node5</title>
<g id="a_node5"><a xlink:href="bios__entry_8h.html" target="_top" xlink:title="Assembler entry points for MSX BIOS functions.">
<polygon fill="none" stroke="black" points="188.5,-56.5 188.5,-75.5 256.5,-75.5 256.5,-56.5 188.5,-56.5"/>
<text text-anchor="middle" x="222.5" y="-63.5" font-family="Helvetica,sans-Serif" font-size="10.00">bios_entry.h</text>
</a>
</g>
</g>
<!-- Node2&#45;&gt;Node5 -->
<g id="edge4" class="edge">
<title>Node2&#45;&gt;Node5</title>
<path fill="none" stroke="midnightblue" d="M222.5,-112.08C222.5,-105.01 222.5,-94.86 222.5,-85.99"/>
<polygon fill="midnightblue" stroke="midnightblue" points="226,-85.75 222.5,-75.75 219,-85.75 226,-85.75"/>
</g>
<!-- Node4 -->
<g id="node4" class="node">
<title>Node4</title>
<g id="a_node4"><a xlink:title=" ">
<polygon fill="none" stroke="#bfbfbf" points="198.5,-0.5 198.5,-19.5 246.5,-19.5 246.5,-0.5 198.5,-0.5"/>
<text text-anchor="middle" x="222.5" y="-7.5" font-family="Helvetica,sans-Serif" font-size="10.00">stdint.h</text>
</a>
</g>
</g>
<!-- Node3&#45;&gt;Node4 -->
<g id="edge3" class="edge">
<title>Node3&#45;&gt;Node4</title>
<path fill="none" stroke="midnightblue" d="M148.64,-56.32C162.37,-47.9 183.44,-34.97 199.56,-25.07"/>
<polygon fill="midnightblue" stroke="midnightblue" points="201.7,-27.87 208.4,-19.65 198.04,-21.9 201.7,-27.87"/>
</g>
<!-- Node5&#45;&gt;Node4 -->
<g id="edge5" class="edge">
<title>Node5&#45;&gt;Node4</title>
<path fill="none" stroke="midnightblue" d="M222.5,-56.08C222.5,-49.01 222.5,-38.86 222.5,-29.99"/>
<polygon fill="midnightblue" stroke="midnightblue" points="226,-29.75 222.5,-19.75 219,-29.75 226,-29.75"/>
</g>
<!-- Node6&#45;&gt;Node4 -->
<g id="edge7" class="edge">
<title>Node6&#45;&gt;Node4</title>
<path fill="none" stroke="midnightblue" d="M69.34,-56.44C101.82,-46.81 154.53,-31.17 188.85,-20.98"/>
<polygon fill="midnightblue" stroke="midnightblue" points="189.85,-24.34 198.45,-18.14 187.86,-17.63 189.85,-24.34"/>
</g>
<!-- Node7 -->
<g id="node7" class="node">
<title>Node7</title>
<g id="a_node7"><a xlink:href="io_8h.html" target="_top" xlink:title="Copyright (c) 2021 Daishi Mori (mori0091)">
<polygon fill="none" stroke="black" points="4,-0.5 4,-19.5 77,-19.5 77,-0.5 4,-0.5"/>
<text text-anchor="middle" x="40.5" y="-7.5" font-family="Helvetica,sans-Serif" font-size="10.00">../include/io.h</text>
</a>
</g>
</g>
<!-- Node6&#45;&gt;Node7 -->
<g id="edge8" class="edge">
<title>Node6&#45;&gt;Node7</title>
<path fill="none" stroke="midnightblue" d="M40.5,-56.08C40.5,-49.01 40.5,-38.86 40.5,-29.99"/>
<polygon fill="midnightblue" stroke="midnightblue" points="44,-29.75 40.5,-19.75 37,-29.75 44,-29.75"/>
</g>
<!-- Node8&#45;&gt;Node4 -->
<g id="edge11" class="edge">
<title>Node8&#45;&gt;Node4</title>
<path fill="none" stroke="midnightblue" d="M411.01,-56.44C368.7,-46.24 298.5,-29.32 256.75,-19.26"/>
<polygon fill="midnightblue" stroke="midnightblue" points="257.32,-15.79 246.78,-16.85 255.68,-22.6 257.32,-15.79"/>
</g>
<!-- Node9 -->
<g id="node9" class="node">
<title>Node9</title>
<g id="a_node9"><a xlink:title=" ">
<polygon fill="none" stroke="#bfbfbf" points="324.5,-0.5 324.5,-19.5 380.5,-19.5 380.5,-0.5 324.5,-0.5"/>
<text text-anchor="middle" x="352.5" y="-7.5" font-family="Helvetica,sans-Serif" font-size="10.00">stdbool.h</text>
</a>
</g>
</g>
<!-- Node8&#45;&gt;Node9 -->
<g id="edge10" class="edge">
<title>Node8&#45;&gt;Node9</title>
<path fill="none" stroke="midnightblue" d="M431.4,-56.32C416.6,-47.82 393.81,-34.73 376.52,-24.8"/>
<polygon fill="midnightblue" stroke="midnightblue" points="377.98,-21.6 367.57,-19.65 374.49,-27.67 377.98,-21.6"/>
</g>
<!-- Node10 -->
<g id="node10" class="node">
<title>Node10</title>
<g id="a_node10"><a xlink:title=" ">
<polygon fill="none" stroke="#bfbfbf" points="423,-0.5 423,-19.5 470,-19.5 470,-0.5 423,-0.5"/>
<text text-anchor="middle" x="446.5" y="-7.5" font-family="Helvetica,sans-Serif" font-size="10.00">stdlib.h</text>
</a>
</g>
</g>
<!-- Node8&#45;&gt;Node10 -->
<g id="edge12" class="edge">
<title>Node8&#45;&gt;Node10</title>
<path fill="none" stroke="midnightblue" d="M446.5,-56.08C446.5,-49.01 446.5,-38.86 446.5,-29.99"/>
<polygon fill="midnightblue" stroke="midnightblue" points="450,-29.75 446.5,-19.75 443,-29.75 450,-29.75"/>
</g>
<!-- Node11&#45;&gt;Node4 -->
<g id="edge15" class="edge">
<title>Node11&#45;&gt;Node4</title>
<path fill="none" stroke="midnightblue" d="M311.47,-56.32C294.47,-47.66 268.12,-34.24 248.51,-24.25"/>
<polygon fill="midnightblue" stroke="midnightblue" points="249.99,-21.08 239.49,-19.65 246.81,-27.31 249.99,-21.08"/>
</g>
<!-- Node11&#45;&gt;Node9 -->
<g id="edge14" class="edge">
<title>Node11&#45;&gt;Node9</title>
<path fill="none" stroke="midnightblue" d="M332.46,-56.08C335.71,-48.77 340.42,-38.18 344.45,-29.1"/>
<polygon fill="midnightblue" stroke="midnightblue" points="347.75,-30.31 348.61,-19.75 341.35,-27.47 347.75,-30.31"/>
</g>
<!-- Node12&#45;&gt;Node11 -->
<g id="edge17" class="edge">
<title>Node12&#45;&gt;Node11</title>
<path fill="none" stroke="midnightblue" d="M325.16,-112.08C325.68,-105.01 326.44,-94.86 327.09,-85.99"/>
<polygon fill="midnightblue" stroke="midnightblue" points="330.6,-85.98 327.85,-75.75 323.62,-85.47 330.6,-85.98"/>
</g>
<!-- Node13&#45;&gt;Node6 -->
<g id="edge19" class="edge">
<title>Node13&#45;&gt;Node6</title>
<path fill="none" stroke="midnightblue" d="M95.9,-112.32C86.04,-104.26 71.15,-92.08 59.28,-82.37"/>
<polygon fill="midnightblue" stroke="midnightblue" points="61.25,-79.46 51.3,-75.83 56.82,-84.88 61.25,-79.46"/>
</g>
</g>
</svg>
