<?xml version="1.0" encoding="UTF-8" standalone="no"?>
<!DOCTYPE svg PUBLIC "-//W3C//DTD SVG 1.1//EN"
 "http://www.w3.org/Graphics/SVG/1.1/DTD/svg11.dtd">
<!-- Generated by graphviz version 2.44.0 ()
 -->
<!-- Title: include/sound_eg.h Pages: 1 -->
<svg width="414pt" height="140pt"
 viewBox="0.00 0.00 414.00 140.00" xmlns="http://www.w3.org/2000/svg" xmlns:xlink="http://www.w3.org/1999/xlink">
<g id="graph0" class="graph" transform="scale(1 1) rotate(0) translate(4 136)">
<title>include/sound_eg.h</title>
<!-- Node1 -->
<g id="node1" class="node">
<title>Node1</title>
<g id="a_node1"><a xlink:title="Copyright (c) 2021 Daishi Mori (mori0091)">
<polygon fill="#bfbfbf" stroke="black" points="54,-112.5 54,-131.5 154,-131.5 154,-112.5 54,-112.5"/>
<text text-anchor="middle" x="104" y="-119.5" font-family="Helvetica,sans-Serif" font-size="10.00">include/sound_eg.h</text>
</a>
</g>
</g>
<!-- Node2 -->
<g id="node2" class="node">
<title>Node2</title>
<g id="a_node2"><a xlink:href="msx_8h.html" target="_top" xlink:title="Copyright (c) 2021 Daishi Mori (mori0091)">
<polygon fill="none" stroke="black" points="0,-56.5 0,-75.5 76,-75.5 76,-56.5 0,-56.5"/>
<text text-anchor="middle" x="38" y="-63.5" font-family="Helvetica,sans-Serif" font-size="10.00">include/msx.h</text>
</a>
</g>
</g>
<!-- Node1&#45;&gt;Node2 -->
<g id="edge1" class="edge">
<title>Node1&#45;&gt;Node2</title>
<path fill="none" stroke="midnightblue" d="M85.45,-105.82C73.62,-96.15 58.71,-83.95 48.8,-75.83"/>
<polygon fill="midnightblue" stroke="midnightblue" points="83.44,-108.7 93.4,-112.32 87.87,-103.28 83.44,-108.7"/>
</g>
<!-- Node3 -->
<g id="node3" class="node">
<title>Node3</title>
<g id="a_node3"><a xlink:href="sound__eg__spi_8h.html" target="_top" xlink:title="Copyright (c) 2021 Daishi Mori (mori0091)">
<polygon fill="none" stroke="black" points="145,-56.5 145,-75.5 263,-75.5 263,-56.5 145,-56.5"/>
<text text-anchor="middle" x="204" y="-63.5" font-family="Helvetica,sans-Serif" font-size="10.00">include/sound_eg_spi.h</text>
</a>
</g>
</g>
<!-- Node1&#45;&gt;Node3 -->
<g id="edge2" class="edge">
<title>Node1&#45;&gt;Node3</title>
<path fill="none" stroke="midnightblue" d="M129.09,-107.45C147.55,-97.48 172.1,-84.23 187.97,-75.65"/>
<polygon fill="midnightblue" stroke="midnightblue" points="127.2,-104.49 120.07,-112.32 130.53,-110.65 127.2,-104.49"/>
</g>
<!-- Node4 -->
<g id="node4" class="node">
<title>Node4</title>
<g id="a_node4"><a xlink:href="sound_8c.html" target="_top" xlink:title="Copyright (c) 2021 Daishi Mori (mori0091)">
<polygon fill="none" stroke="black" points="64.5,-0.5 64.5,-19.5 131.5,-19.5 131.5,-0.5 64.5,-0.5"/>
<text text-anchor="middle" x="98" y="-7.5" font-family="Helvetica,sans-Serif" font-size="10.00">src/sound.c</text>
</a>
</g>
</g>
<!-- Node1&#45;&gt;Node4 -->
<g id="edge6" class="edge">
<title>Node1&#45;&gt;Node4</title>
<path fill="none" stroke="midnightblue" d="M102.98,-102.35C101.67,-78.25 99.43,-37.31 98.47,-19.59"/>
<polygon fill="midnightblue" stroke="midnightblue" points="99.49,-102.57 103.53,-112.37 106.48,-102.19 99.49,-102.57"/>
</g>
<!-- Node3&#45;&gt;Node4 -->
<g id="edge3" class="edge">
<title>Node3&#45;&gt;Node4</title>
<path fill="none" stroke="midnightblue" d="M177.94,-51.73C158.32,-41.73 131.97,-28.31 114.99,-19.65"/>
<polygon fill="midnightblue" stroke="midnightblue" points="176.47,-54.9 186.97,-56.32 179.65,-48.67 176.47,-54.9"/>
</g>
<!-- Node5 -->
<g id="node5" class="node">
<title>Node5</title>
<g id="a_node5"><a xlink:href="sound__eg__AHDSR_8c.html" target="_top" xlink:title="Copyright (c) 2021 Daishi Mori (mori0091)">
<polygon fill="none" stroke="black" points="150,-0.5 150,-19.5 272,-19.5 272,-0.5 150,-0.5"/>
<text text-anchor="middle" x="211" y="-7.5" font-family="Helvetica,sans-Serif" font-size="10.00">src/sound_eg_AHDSR.c</text>
</a>
</g>
</g>
<!-- Node3&#45;&gt;Node5 -->
<g id="edge4" class="edge">
<title>Node3&#45;&gt;Node5</title>
<path fill="none" stroke="midnightblue" d="M206.45,-46.1C207.61,-37.14 208.94,-26.86 209.87,-19.75"/>
<polygon fill="midnightblue" stroke="midnightblue" points="202.97,-45.72 205.16,-56.08 209.91,-46.62 202.97,-45.72"/>
</g>
<!-- Node6 -->
<g id="node6" class="node">
<title>Node6</title>
<g id="a_node6"><a xlink:href="sound__eg__LPCM_8c.html" target="_top" xlink:title="Copyright (c) 2021 Daishi Mori (mori0091)">
<polygon fill="none" stroke="black" points="290,-0.5 290,-19.5 406,-19.5 406,-0.5 290,-0.5"/>
<text text-anchor="middle" x="348" y="-7.5" font-family="Helvetica,sans-Serif" font-size="10.00">src/sound_eg_LPCM.c</text>
</a>
</g>
</g>
<!-- Node3&#45;&gt;Node6 -->
<g id="edge5" class="edge">
<title>Node3&#45;&gt;Node6</title>
<path fill="none" stroke="midnightblue" d="M236.25,-52.91C263.32,-42.75 301.32,-28.51 325.29,-19.52"/>
<polygon fill="midnightblue" stroke="midnightblue" points="234.95,-49.66 226.82,-56.44 237.41,-56.21 234.95,-49.66"/>
</g>
</g>
</svg>
