<?xml version="1.0" encoding="UTF-8" standalone="no"?>
<!DOCTYPE svg PUBLIC "-//W3C//DTD SVG 1.1//EN"
 "http://www.w3.org/Graphics/SVG/1.1/DTD/svg11.dtd">
<!-- Generated by graphviz version 2.44.0 ()
 -->
<!-- Title: src/sound.c Pages: 1 -->
<svg width="408pt" height="207pt"
 viewBox="0.00 0.00 407.50 207.00" xmlns="http://www.w3.org/2000/svg" xmlns:xlink="http://www.w3.org/1999/xlink">
<g id="graph0" class="graph" transform="scale(1 1) rotate(0) translate(4 203)">
<title>src/sound.c</title>
<!-- Node1 -->
<g id="node1" class="node">
<title>Node1</title>
<g id="a_node1"><a xlink:title="Copyright (c) 2021 Daishi Mori (mori0091)">
<polygon fill="#bfbfbf" stroke="black" points="177,-179.5 177,-198.5 244,-198.5 244,-179.5 177,-179.5"/>
<text text-anchor="middle" x="210.5" y="-186.5" font-family="Helvetica,sans-Serif" font-size="10.00">src/sound.c</text>
</a>
</g>
</g>
<!-- Node2 -->
<g id="node2" class="node">
<title>Node2</title>
<g id="a_node2"><a xlink:href="bios_8h.html" target="_top" xlink:title="Copyright (c) 2021 Daishi Mori (mori0091)">
<polygon fill="none" stroke="black" points="99,-118 99,-137 182,-137 182,-118 99,-118"/>
<text text-anchor="middle" x="140.5" y="-125" font-family="Helvetica,sans-Serif" font-size="10.00">../include/bios.h</text>
</a>
</g>
</g>
<!-- Node1&#45;&gt;Node2 -->
<g id="edge1" class="edge">
<title>Node1&#45;&gt;Node2</title>
<path fill="none" stroke="midnightblue" d="M200.47,-179.48C189.45,-170.11 171.54,-154.88 158.16,-143.51"/>
<polygon fill="midnightblue" stroke="midnightblue" points="160.4,-140.82 150.51,-137.01 155.86,-146.15 160.4,-140.82"/>
</g>
<!-- Node4 -->
<g id="node4" class="node">
<title>Node4</title>
<g id="a_node4"><a xlink:href="psg_8h.html" target="_top" xlink:title="Copyright (c) 2021 Daishi Mori (mori0091)">
<polygon fill="none" stroke="black" points="0,-118 0,-137 81,-137 81,-118 0,-118"/>
<text text-anchor="middle" x="40.5" y="-125" font-family="Helvetica,sans-Serif" font-size="10.00">../include/psg.h</text>
</a>
</g>
</g>
<!-- Node1&#45;&gt;Node4 -->
<g id="edge3" class="edge">
<title>Node1&#45;&gt;Node4</title>
<path fill="none" stroke="midnightblue" d="M186.14,-179.48C156.86,-169.22 107.53,-151.96 74.5,-140.4"/>
<polygon fill="midnightblue" stroke="midnightblue" points="75.41,-137.01 64.81,-137.01 73.09,-143.62 75.41,-137.01"/>
</g>
<!-- Node6 -->
<g id="node6" class="node">
<title>Node6</title>
<g id="a_node6"><a xlink:href="sound_8h.html" target="_top" xlink:title="Copyright (c) 2021 Daishi Mori (mori0091)">
<polygon fill="none" stroke="black" points="307.5,-56.5 307.5,-75.5 399.5,-75.5 399.5,-56.5 307.5,-56.5"/>
<text text-anchor="middle" x="353.5" y="-63.5" font-family="Helvetica,sans-Serif" font-size="10.00">../include/sound.h</text>
</a>
</g>
</g>
<!-- Node1&#45;&gt;Node6 -->
<g id="edge6" class="edge">
<title>Node1&#45;&gt;Node6</title>
<path fill="none" stroke="midnightblue" d="M244.01,-186.99C276.01,-184.08 322.9,-174.3 347.5,-143 360.13,-126.94 359.71,-102.61 357.38,-85.83"/>
<polygon fill="midnightblue" stroke="midnightblue" points="360.77,-84.86 355.61,-75.61 353.87,-86.06 360.77,-84.86"/>
</g>
<!-- Node9 -->
<g id="node9" class="node">
<title>Node9</title>
<g id="a_node9"><a xlink:href="sound__eg_8h.html" target="_top" xlink:title="Copyright (c) 2021 Daishi Mori (mori0091)">
<polygon fill="none" stroke="black" points="182,-56.5 182,-75.5 289,-75.5 289,-56.5 182,-56.5"/>
<text text-anchor="middle" x="235.5" y="-63.5" font-family="Helvetica,sans-Serif" font-size="10.00">../include/sound_eg.h</text>
</a>
</g>
</g>
<!-- Node1&#45;&gt;Node9 -->
<g id="edge10" class="edge">
<title>Node1&#45;&gt;Node9</title>
<path fill="none" stroke="midnightblue" d="M212.3,-179.3C216.33,-159.76 226.19,-112.06 231.67,-85.55"/>
<polygon fill="midnightblue" stroke="midnightblue" points="235.12,-86.12 233.72,-75.62 228.27,-84.71 235.12,-86.12"/>
</g>
<!-- Node10 -->
<g id="node10" class="node">
<title>Node10</title>
<g id="a_node10"><a xlink:href="sound__eg__spi_8h.html" target="_top" xlink:title="Copyright (c) 2021 Daishi Mori (mori0091)">
<polygon fill="none" stroke="black" points="238.5,-112.5 238.5,-142.5 338.5,-142.5 338.5,-112.5 238.5,-112.5"/>
<text text-anchor="start" x="246.5" y="-130.5" font-family="Helvetica,sans-Serif" font-size="10.00">../include/sound_eg</text>
<text text-anchor="middle" x="288.5" y="-119.5" font-family="Helvetica,sans-Serif" font-size="10.00">_spi.h</text>
</a>
</g>
</g>
<!-- Node1&#45;&gt;Node10 -->
<g id="edge13" class="edge">
<title>Node1&#45;&gt;Node10</title>
<path fill="none" stroke="midnightblue" d="M221.68,-179.48C232.14,-171.49 248.18,-159.25 261.93,-148.77"/>
<polygon fill="midnightblue" stroke="midnightblue" points="264.29,-151.37 270.12,-142.52 260.04,-145.81 264.29,-151.37"/>
</g>
<!-- Node3 -->
<g id="node3" class="node">
<title>Node3</title>
<g id="a_node3"><a xlink:title=" ">
<polygon fill="none" stroke="#bfbfbf" points="159.5,-0.5 159.5,-19.5 207.5,-19.5 207.5,-0.5 159.5,-0.5"/>
<text text-anchor="middle" x="183.5" y="-7.5" font-family="Helvetica,sans-Serif" font-size="10.00">stdint.h</text>
</a>
</g>
</g>
<!-- Node2&#45;&gt;Node3 -->
<g id="edge2" class="edge">
<title>Node2&#45;&gt;Node3</title>
<path fill="none" stroke="midnightblue" d="M143.73,-117.82C150.7,-99.09 167.29,-54.55 176.69,-29.29"/>
<polygon fill="midnightblue" stroke="midnightblue" points="180.02,-30.37 180.23,-19.78 173.46,-27.93 180.02,-30.37"/>
</g>
<!-- Node4&#45;&gt;Node3 -->
<g id="edge4" class="edge">
<title>Node4&#45;&gt;Node3</title>
<path fill="none" stroke="midnightblue" d="M37.8,-117.65C33.96,-103.17 28.81,-74.2 42.5,-56 67.18,-23.21 115.94,-13.82 149.14,-11.39"/>
<polygon fill="midnightblue" stroke="midnightblue" points="149.53,-14.88 159.32,-10.83 149.14,-7.89 149.53,-14.88"/>
</g>
<!-- Node5 -->
<g id="node5" class="node">
<title>Node5</title>
<g id="a_node5"><a xlink:href="io_8h.html" target="_top" xlink:title="Copyright (c) 2021 Daishi Mori (mori0091)">
<polygon fill="none" stroke="black" points="52,-56.5 52,-75.5 125,-75.5 125,-56.5 52,-56.5"/>
<text text-anchor="middle" x="88.5" y="-63.5" font-family="Helvetica,sans-Serif" font-size="10.00">../include/io.h</text>
</a>
</g>
</g>
<!-- Node4&#45;&gt;Node5 -->
<g id="edge5" class="edge">
<title>Node4&#45;&gt;Node5</title>
<path fill="none" stroke="midnightblue" d="M47.38,-117.98C54.65,-108.96 66.3,-94.52 75.34,-83.31"/>
<polygon fill="midnightblue" stroke="midnightblue" points="78.08,-85.49 81.64,-75.51 72.63,-81.09 78.08,-85.49"/>
</g>
<!-- Node6&#45;&gt;Node3 -->
<g id="edge8" class="edge">
<title>Node6&#45;&gt;Node3</title>
<path fill="none" stroke="midnightblue" d="M326.56,-56.44C296.99,-47.05 249.47,-31.96 217.39,-21.77"/>
<polygon fill="midnightblue" stroke="midnightblue" points="218.15,-18.34 207.56,-18.64 216.03,-25.01 218.15,-18.34"/>
</g>
<!-- Node7 -->
<g id="node7" class="node">
<title>Node7</title>
<g id="a_node7"><a xlink:title=" ">
<polygon fill="none" stroke="#bfbfbf" points="231.5,-0.5 231.5,-19.5 287.5,-19.5 287.5,-0.5 231.5,-0.5"/>
<text text-anchor="middle" x="259.5" y="-7.5" font-family="Helvetica,sans-Serif" font-size="10.00">stdbool.h</text>
</a>
</g>
</g>
<!-- Node6&#45;&gt;Node7 -->
<g id="edge7" class="edge">
<title>Node6&#45;&gt;Node7</title>
<path fill="none" stroke="midnightblue" d="M338.4,-56.32C323.6,-47.82 300.81,-34.73 283.52,-24.8"/>
<polygon fill="midnightblue" stroke="midnightblue" points="284.98,-21.6 274.57,-19.65 281.49,-27.67 284.98,-21.6"/>
</g>
<!-- Node8 -->
<g id="node8" class="node">
<title>Node8</title>
<g id="a_node8"><a xlink:title=" ">
<polygon fill="none" stroke="#bfbfbf" points="330,-0.5 330,-19.5 377,-19.5 377,-0.5 330,-0.5"/>
<text text-anchor="middle" x="353.5" y="-7.5" font-family="Helvetica,sans-Serif" font-size="10.00">stdlib.h</text>
</a>
</g>
</g>
<!-- Node6&#45;&gt;Node8 -->
<g id="edge9" class="edge">
<title>Node6&#45;&gt;Node8</title>
<path fill="none" stroke="midnightblue" d="M353.5,-56.08C353.5,-49.01 353.5,-38.86 353.5,-29.99"/>
<polygon fill="midnightblue" stroke="midnightblue" points="357,-29.75 353.5,-19.75 350,-29.75 357,-29.75"/>
</g>
<!-- Node9&#45;&gt;Node3 -->
<g id="edge12" class="edge">
<title>Node9&#45;&gt;Node3</title>
<path fill="none" stroke="midnightblue" d="M226.91,-56.08C219.34,-48.22 208.12,-36.57 198.99,-27.08"/>
<polygon fill="midnightblue" stroke="midnightblue" points="201.38,-24.53 191.93,-19.75 196.34,-29.38 201.38,-24.53"/>
</g>
<!-- Node9&#45;&gt;Node7 -->
<g id="edge11" class="edge">
<title>Node9&#45;&gt;Node7</title>
<path fill="none" stroke="midnightblue" d="M239.46,-56.08C242.71,-48.77 247.42,-38.18 251.45,-29.1"/>
<polygon fill="midnightblue" stroke="midnightblue" points="254.75,-30.31 255.61,-19.75 248.35,-27.47 254.75,-30.31"/>
</g>
<!-- Node10&#45;&gt;Node9 -->
<g id="edge14" class="edge">
<title>Node10&#45;&gt;Node9</title>
<path fill="none" stroke="midnightblue" d="M275.94,-112.4C268.16,-103.66 258.14,-92.41 250.02,-83.3"/>
<polygon fill="midnightblue" stroke="midnightblue" points="252.48,-80.8 243.21,-75.66 247.25,-85.45 252.48,-80.8"/>
</g>
</g>
</svg>
