<?xml version="1.0" encoding="UTF-8" standalone="no"?>
<!DOCTYPE svg PUBLIC "-//W3C//DTD SVG 1.1//EN"
 "http://www.w3.org/Graphics/SVG/1.1/DTD/svg11.dtd">
<!-- Generated by graphviz version 2.44.0 ()
 -->
<!-- Title: include/sound_eg.h Pages: 1 -->
<svg width="350pt" height="140pt"
 viewBox="0.00 0.00 349.50 140.00" xmlns="http://www.w3.org/2000/svg" xmlns:xlink="http://www.w3.org/1999/xlink">
<g id="graph0" class="graph" transform="scale(1 1) rotate(0) translate(4 136)">
<title>include/sound_eg.h</title>
<!-- Node1 -->
<g id="node1" class="node">
<title>Node1</title>
<g id="a_node1"><a xlink:title="Copyright (c) 2021 Daishi Mori (mori0091)">
<polygon fill="#bfbfbf" stroke="black" points="39.5,-112.5 39.5,-131.5 139.5,-131.5 139.5,-112.5 39.5,-112.5"/>
<text text-anchor="middle" x="89.5" y="-119.5" font-family="Helvetica,sans-Serif" font-size="10.00">include/sound_eg.h</text>
</a>
</g>
</g>
<!-- Node2 -->
<g id="node2" class="node">
<title>Node2</title>
<g id="a_node2"><a xlink:href="sound__eg__spi_8h.html" target="_top" xlink:title="Copyright (c) 2021 Daishi Mori (mori0091)">
<polygon fill="none" stroke="black" points="80.5,-56.5 80.5,-75.5 198.5,-75.5 198.5,-56.5 80.5,-56.5"/>
<text text-anchor="middle" x="139.5" y="-63.5" font-family="Helvetica,sans-Serif" font-size="10.00">include/sound_eg_spi.h</text>
</a>
</g>
</g>
<!-- Node1&#45;&gt;Node2 -->
<g id="edge1" class="edge">
<title>Node1&#45;&gt;Node2</title>
<path fill="none" stroke="midnightblue" d="M104.58,-104.72C113.39,-95.2 124.17,-83.56 131.4,-75.75"/>
<polygon fill="midnightblue" stroke="midnightblue" points="101.98,-102.37 97.76,-112.08 107.12,-107.12 101.98,-102.37"/>
</g>
<!-- Node3 -->
<g id="node3" class="node">
<title>Node3</title>
<g id="a_node3"><a xlink:href="sound_8c.html" target="_top" xlink:title="Copyright (c) 2021 Daishi Mori (mori0091)">
<polygon fill="none" stroke="black" points="0,-0.5 0,-19.5 67,-19.5 67,-0.5 0,-0.5"/>
<text text-anchor="middle" x="33.5" y="-7.5" font-family="Helvetica,sans-Serif" font-size="10.00">src/sound.c</text>
</a>
</g>
</g>
<!-- Node1&#45;&gt;Node3 -->
<g id="edge5" class="edge">
<title>Node1&#45;&gt;Node3</title>
<path fill="none" stroke="midnightblue" d="M80.5,-103.32C68.31,-79.37 47.02,-37.55 37.87,-19.59"/>
<polygon fill="midnightblue" stroke="midnightblue" points="77.45,-105.04 85.11,-112.37 83.69,-101.87 77.45,-105.04"/>
</g>
<!-- Node2&#45;&gt;Node3 -->
<g id="edge2" class="edge">
<title>Node2&#45;&gt;Node3</title>
<path fill="none" stroke="midnightblue" d="M113.44,-51.73C93.82,-41.73 67.47,-28.31 50.49,-19.65"/>
<polygon fill="midnightblue" stroke="midnightblue" points="111.97,-54.9 122.47,-56.32 115.15,-48.67 111.97,-54.9"/>
</g>
<!-- Node4 -->
<g id="node4" class="node">
<title>Node4</title>
<g id="a_node4"><a xlink:href="sound__eg__AHDSR_8c.html" target="_top" xlink:title="Copyright (c) 2021 Daishi Mori (mori0091)">
<polygon fill="none" stroke="black" points="85.5,-0.5 85.5,-19.5 207.5,-19.5 207.5,-0.5 85.5,-0.5"/>
<text text-anchor="middle" x="146.5" y="-7.5" font-family="Helvetica,sans-Serif" font-size="10.00">src/sound_eg_AHDSR.c</text>
</a>
</g>
</g>
<!-- Node2&#45;&gt;Node4 -->
<g id="edge3" class="edge">
<title>Node2&#45;&gt;Node4</title>
<path fill="none" stroke="midnightblue" d="M141.95,-46.1C143.11,-37.14 144.44,-26.86 145.37,-19.75"/>
<polygon fill="midnightblue" stroke="midnightblue" points="138.47,-45.72 140.66,-56.08 145.41,-46.62 138.47,-45.72"/>
</g>
<!-- Node5 -->
<g id="node5" class="node">
<title>Node5</title>
<g id="a_node5"><a xlink:href="sound__eg__LPCM_8c.html" target="_top" xlink:title="Copyright (c) 2021 Daishi Mori (mori0091)">
<polygon fill="none" stroke="black" points="225.5,-0.5 225.5,-19.5 341.5,-19.5 341.5,-0.5 225.5,-0.5"/>
<text text-anchor="middle" x="283.5" y="-7.5" font-family="Helvetica,sans-Serif" font-size="10.00">src/sound_eg_LPCM.c</text>
</a>
</g>
</g>
<!-- Node2&#45;&gt;Node5 -->
<g id="edge4" class="edge">
<title>Node2&#45;&gt;Node5</title>
<path fill="none" stroke="midnightblue" d="M171.75,-52.91C198.82,-42.75 236.82,-28.51 260.79,-19.52"/>
<polygon fill="midnightblue" stroke="midnightblue" points="170.45,-49.66 162.32,-56.44 172.91,-56.21 170.45,-49.66"/>
</g>
</g>
</svg>
