<?xml version="1.0" encoding="UTF-8" standalone="no"?>
<!DOCTYPE svg PUBLIC "-//W3C//DTD SVG 1.1//EN"
 "http://www.w3.org/Graphics/SVG/1.1/DTD/svg11.dtd">
<!-- Generated by graphviz version 2.44.0 ()
 -->
<!-- Title: src/sound.c Pages: 1 -->
<svg width="397pt" height="140pt"
 viewBox="0.00 0.00 396.50 140.00" xmlns="http://www.w3.org/2000/svg" xmlns:xlink="http://www.w3.org/1999/xlink">
<g id="graph0" class="graph" transform="scale(1 1) rotate(0) translate(4 136)">
<title>src/sound.c</title>
<!-- Node1 -->
<g id="node1" class="node">
<title>Node1</title>
<g id="a_node1"><a xlink:title="Copyright (c) 2021 Daishi Mori (mori0091)">
<polygon fill="#bfbfbf" stroke="black" points="124.5,-112.5 124.5,-131.5 191.5,-131.5 191.5,-112.5 124.5,-112.5"/>
<text text-anchor="middle" x="158" y="-119.5" font-family="Helvetica,sans-Serif" font-size="10.00">src/sound.c</text>
</a>
</g>
</g>
<!-- Node2 -->
<g id="node2" class="node">
<title>Node2</title>
<g id="a_node2"><a xlink:title=" ">
<polygon fill="none" stroke="#bfbfbf" points="0,-56.5 0,-75.5 48,-75.5 48,-56.5 0,-56.5"/>
<text text-anchor="middle" x="24" y="-63.5" font-family="Helvetica,sans-Serif" font-size="10.00">string.h</text>
</a>
</g>
</g>
<!-- Node1&#45;&gt;Node2 -->
<g id="edge1" class="edge">
<title>Node1&#45;&gt;Node2</title>
<path fill="none" stroke="midnightblue" d="M136.77,-112.44C114.62,-103.52 79.68,-89.44 54.56,-79.32"/>
<polygon fill="midnightblue" stroke="midnightblue" points="55.72,-76.01 45.13,-75.52 53.1,-82.5 55.72,-76.01"/>
</g>
<!-- Node3 -->
<g id="node3" class="node">
<title>Node3</title>
<g id="a_node3"><a xlink:href="bios_8h.html" target="_top" xlink:title="Copyright (c) 2021 Daishi Mori (mori0091)">
<polygon fill="none" stroke="black" points="66.5,-56.5 66.5,-75.5 149.5,-75.5 149.5,-56.5 66.5,-56.5"/>
<text text-anchor="middle" x="108" y="-63.5" font-family="Helvetica,sans-Serif" font-size="10.00">../include/bios.h</text>
</a>
</g>
</g>
<!-- Node1&#45;&gt;Node3 -->
<g id="edge2" class="edge">
<title>Node1&#45;&gt;Node3</title>
<path fill="none" stroke="midnightblue" d="M149.74,-112.08C142.54,-104.3 131.89,-92.8 123.15,-83.37"/>
<polygon fill="midnightblue" stroke="midnightblue" points="125.47,-80.71 116.1,-75.75 120.33,-85.47 125.47,-80.71"/>
</g>
<!-- Node5 -->
<g id="node5" class="node">
<title>Node5</title>
<g id="a_node5"><a xlink:href="psg_8h.html" target="_top" xlink:title="Copyright (c) 2021 Daishi Mori (mori0091)">
<polygon fill="none" stroke="black" points="167.5,-56.5 167.5,-75.5 248.5,-75.5 248.5,-56.5 167.5,-56.5"/>
<text text-anchor="middle" x="208" y="-63.5" font-family="Helvetica,sans-Serif" font-size="10.00">../include/psg.h</text>
</a>
</g>
</g>
<!-- Node1&#45;&gt;Node5 -->
<g id="edge4" class="edge">
<title>Node1&#45;&gt;Node5</title>
<path fill="none" stroke="midnightblue" d="M166.26,-112.08C173.46,-104.3 184.11,-92.8 192.85,-83.37"/>
<polygon fill="midnightblue" stroke="midnightblue" points="195.67,-85.47 199.9,-75.75 190.53,-80.71 195.67,-85.47"/>
</g>
<!-- Node6 -->
<g id="node6" class="node">
<title>Node6</title>
<g id="a_node6"><a xlink:href="sound_8h.html" target="_top" xlink:title="Copyright (c) 2021 Daishi Mori (mori0091)">
<polygon fill="none" stroke="black" points="267,-56.5 267,-75.5 359,-75.5 359,-56.5 267,-56.5"/>
<text text-anchor="middle" x="313" y="-63.5" font-family="Helvetica,sans-Serif" font-size="10.00">../include/sound.h</text>
</a>
</g>
</g>
<!-- Node1&#45;&gt;Node6 -->
<g id="edge6" class="edge">
<title>Node1&#45;&gt;Node6</title>
<path fill="none" stroke="midnightblue" d="M182.56,-112.44C208.52,-103.4 249.67,-89.06 278.8,-78.92"/>
<polygon fill="midnightblue" stroke="midnightblue" points="280.26,-82.11 288.55,-75.52 277.96,-75.5 280.26,-82.11"/>
</g>
<!-- Node4 -->
<g id="node4" class="node">
<title>Node4</title>
<g id="a_node4"><a xlink:title=" ">
<polygon fill="none" stroke="#bfbfbf" points="184,-0.5 184,-19.5 232,-19.5 232,-0.5 184,-0.5"/>
<text text-anchor="middle" x="208" y="-7.5" font-family="Helvetica,sans-Serif" font-size="10.00">stdint.h</text>
</a>
</g>
</g>
<!-- Node3&#45;&gt;Node4 -->
<g id="edge3" class="edge">
<title>Node3&#45;&gt;Node4</title>
<path fill="none" stroke="midnightblue" d="M124.07,-56.32C139.96,-47.74 164.51,-34.49 182.96,-24.52"/>
<polygon fill="midnightblue" stroke="midnightblue" points="184.84,-27.49 191.97,-19.65 181.51,-21.33 184.84,-27.49"/>
</g>
<!-- Node5&#45;&gt;Node4 -->
<g id="edge5" class="edge">
<title>Node5&#45;&gt;Node4</title>
<path fill="none" stroke="midnightblue" d="M208,-56.08C208,-49.01 208,-38.86 208,-29.99"/>
<polygon fill="midnightblue" stroke="midnightblue" points="211.5,-29.75 208,-19.75 204.5,-29.75 211.5,-29.75"/>
</g>
<!-- Node6&#45;&gt;Node4 -->
<g id="edge8" class="edge">
<title>Node6&#45;&gt;Node4</title>
<path fill="none" stroke="midnightblue" d="M296.13,-56.32C279.29,-47.66 253.19,-34.24 233.76,-24.25"/>
<polygon fill="midnightblue" stroke="midnightblue" points="235.32,-21.12 224.83,-19.65 232.12,-27.34 235.32,-21.12"/>
</g>
<!-- Node7 -->
<g id="node7" class="node">
<title>Node7</title>
<g id="a_node7"><a xlink:title=" ">
<polygon fill="none" stroke="#bfbfbf" points="267,-0.5 267,-19.5 323,-19.5 323,-0.5 267,-0.5"/>
<text text-anchor="middle" x="295" y="-7.5" font-family="Helvetica,sans-Serif" font-size="10.00">stdbool.h</text>
</a>
</g>
</g>
<!-- Node6&#45;&gt;Node7 -->
<g id="edge7" class="edge">
<title>Node6&#45;&gt;Node7</title>
<path fill="none" stroke="midnightblue" d="M310.03,-56.08C307.62,-48.85 304.14,-38.41 301.13,-29.4"/>
<polygon fill="midnightblue" stroke="midnightblue" points="304.4,-28.13 297.92,-19.75 297.76,-30.34 304.4,-28.13"/>
</g>
<!-- Node8 -->
<g id="node8" class="node">
<title>Node8</title>
<g id="a_node8"><a xlink:title=" ">
<polygon fill="none" stroke="#bfbfbf" points="341.5,-0.5 341.5,-19.5 388.5,-19.5 388.5,-0.5 341.5,-0.5"/>
<text text-anchor="middle" x="365" y="-7.5" font-family="Helvetica,sans-Serif" font-size="10.00">stdlib.h</text>
</a>
</g>
</g>
<!-- Node6&#45;&gt;Node8 -->
<g id="edge9" class="edge">
<title>Node6&#45;&gt;Node8</title>
<path fill="none" stroke="midnightblue" d="M321.59,-56.08C329.16,-48.22 340.38,-36.57 349.51,-27.08"/>
<polygon fill="midnightblue" stroke="midnightblue" points="352.16,-29.38 356.57,-19.75 347.12,-24.53 352.16,-29.38"/>
</g>
</g>
</svg>
