<?xml version="1.0" encoding="UTF-8" standalone="no"?>
<!DOCTYPE svg PUBLIC "-//W3C//DTD SVG 1.1//EN"
 "http://www.w3.org/Graphics/SVG/1.1/DTD/svg11.dtd">
<!-- Generated by graphviz version 2.44.0 ()
 -->
<!-- Title: src/sound.c Pages: 1 -->
<svg width="400pt" height="196pt"
 viewBox="0.00 0.00 399.50 196.00" xmlns="http://www.w3.org/2000/svg" xmlns:xlink="http://www.w3.org/1999/xlink">
<g id="graph0" class="graph" transform="scale(1 1) rotate(0) translate(4 192)">
<title>src/sound.c</title>
<!-- Node1 -->
<g id="node1" class="node">
<title>Node1</title>
<g id="a_node1"><a xlink:title="Copyright (c) 2021 Daishi Mori (mori0091)">
<polygon fill="#bfbfbf" stroke="black" points="177,-168.5 177,-187.5 244,-187.5 244,-168.5 177,-168.5"/>
<text text-anchor="middle" x="210.5" y="-175.5" font-family="Helvetica,sans-Serif" font-size="10.00">src/sound.c</text>
</a>
</g>
</g>
<!-- Node2 -->
<g id="node2" class="node">
<title>Node2</title>
<g id="a_node2"><a xlink:href="bios_8h.html" target="_top" xlink:title="Copyright (c) 2021 Daishi Mori (mori0091)">
<polygon fill="none" stroke="black" points="99,-112.5 99,-131.5 182,-131.5 182,-112.5 99,-112.5"/>
<text text-anchor="middle" x="140.5" y="-119.5" font-family="Helvetica,sans-Serif" font-size="10.00">../include/bios.h</text>
</a>
</g>
</g>
<!-- Node1&#45;&gt;Node2 -->
<g id="edge1" class="edge">
<title>Node1&#45;&gt;Node2</title>
<path fill="none" stroke="midnightblue" d="M199.25,-168.32C188.7,-160.18 172.7,-147.84 160.06,-138.09"/>
<polygon fill="midnightblue" stroke="midnightblue" points="162.01,-135.17 151.95,-131.83 157.73,-140.71 162.01,-135.17"/>
</g>
<!-- Node4 -->
<g id="node4" class="node">
<title>Node4</title>
<g id="a_node4"><a xlink:href="psg_8h.html" target="_top" xlink:title="Copyright (c) 2021 Daishi Mori (mori0091)">
<polygon fill="none" stroke="black" points="0,-112.5 0,-131.5 81,-131.5 81,-112.5 0,-112.5"/>
<text text-anchor="middle" x="40.5" y="-119.5" font-family="Helvetica,sans-Serif" font-size="10.00">../include/psg.h</text>
</a>
</g>
</g>
<!-- Node1&#45;&gt;Node4 -->
<g id="edge3" class="edge">
<title>Node1&#45;&gt;Node4</title>
<path fill="none" stroke="midnightblue" d="M183.56,-168.44C154.84,-159.32 109.17,-144.81 77.18,-134.65"/>
<polygon fill="midnightblue" stroke="midnightblue" points="77.9,-131.21 67.31,-131.52 75.78,-137.88 77.9,-131.21"/>
</g>
<!-- Node6 -->
<g id="node6" class="node">
<title>Node6</title>
<g id="a_node6"><a xlink:href="sound_8h.html" target="_top" xlink:title="Copyright (c) 2021 Daishi Mori (mori0091)">
<polygon fill="none" stroke="black" points="299.5,-56.5 299.5,-75.5 391.5,-75.5 391.5,-56.5 299.5,-56.5"/>
<text text-anchor="middle" x="345.5" y="-63.5" font-family="Helvetica,sans-Serif" font-size="10.00">../include/sound.h</text>
</a>
</g>
</g>
<!-- Node1&#45;&gt;Node6 -->
<g id="edge6" class="edge">
<title>Node1&#45;&gt;Node6</title>
<path fill="none" stroke="midnightblue" d="M244.24,-173.32C271.74,-168.5 309.5,-157.42 331.5,-132 342.47,-119.33 345.5,-100.12 346.07,-85.87"/>
<polygon fill="midnightblue" stroke="midnightblue" points="349.57,-85.73 346.1,-75.72 342.57,-85.71 349.57,-85.73"/>
</g>
<!-- Node9 -->
<g id="node9" class="node">
<title>Node9</title>
<g id="a_node9"><a xlink:href="sound__eg_8h.html" target="_top" xlink:title="Copyright (c) 2021 Daishi Mori (mori0091)">
<polygon fill="none" stroke="black" points="174,-56.5 174,-75.5 281,-75.5 281,-56.5 174,-56.5"/>
<text text-anchor="middle" x="227.5" y="-63.5" font-family="Helvetica,sans-Serif" font-size="10.00">../include/sound_eg.h</text>
</a>
</g>
</g>
<!-- Node1&#45;&gt;Node9 -->
<g id="edge10" class="edge">
<title>Node1&#45;&gt;Node9</title>
<path fill="none" stroke="midnightblue" d="M211.83,-168.37C214.58,-150.62 220.91,-109.67 224.63,-85.6"/>
<polygon fill="midnightblue" stroke="midnightblue" points="228.1,-86.01 226.17,-75.59 221.19,-84.94 228.1,-86.01"/>
</g>
<!-- Node10 -->
<g id="node10" class="node">
<title>Node10</title>
<g id="a_node10"><a xlink:href="sound__eg__spi_8h.html" target="_top" xlink:title="Copyright (c) 2021 Daishi Mori (mori0091)">
<polygon fill="none" stroke="black" points="238.5,-112.5 238.5,-131.5 322.5,-131.5 322.5,-112.5 238.5,-112.5"/>
<text text-anchor="middle" x="280.5" y="-119.5" font-family="Helvetica,sans-Serif" font-size="10.00">sound_eg_spi.h</text>
</a>
</g>
</g>
<!-- Node1&#45;&gt;Node10 -->
<g id="edge13" class="edge">
<title>Node1&#45;&gt;Node10</title>
<path fill="none" stroke="midnightblue" d="M221.75,-168.32C232.3,-160.18 248.3,-147.84 260.94,-138.09"/>
<polygon fill="midnightblue" stroke="midnightblue" points="263.27,-140.71 269.05,-131.83 258.99,-135.17 263.27,-140.71"/>
</g>
<!-- Node3 -->
<g id="node3" class="node">
<title>Node3</title>
<g id="a_node3"><a xlink:title=" ">
<polygon fill="none" stroke="#bfbfbf" points="151.5,-0.5 151.5,-19.5 199.5,-19.5 199.5,-0.5 151.5,-0.5"/>
<text text-anchor="middle" x="175.5" y="-7.5" font-family="Helvetica,sans-Serif" font-size="10.00">stdint.h</text>
</a>
</g>
</g>
<!-- Node2&#45;&gt;Node3 -->
<g id="edge2" class="edge">
<title>Node2&#45;&gt;Node3</title>
<path fill="none" stroke="midnightblue" d="M143.25,-112.37C148.92,-94.54 162.04,-53.3 169.69,-29.27"/>
<polygon fill="midnightblue" stroke="midnightblue" points="173.07,-30.18 172.77,-19.59 166.4,-28.06 173.07,-30.18"/>
</g>
<!-- Node4&#45;&gt;Node3 -->
<g id="edge4" class="edge">
<title>Node4&#45;&gt;Node3</title>
<path fill="none" stroke="midnightblue" d="M36.42,-112.46C30.68,-99.05 22.2,-72.84 34.5,-56 58.78,-22.77 107.87,-13.5 141.22,-11.23"/>
<polygon fill="midnightblue" stroke="midnightblue" points="141.64,-14.71 151.45,-10.71 141.28,-7.72 141.64,-14.71"/>
</g>
<!-- Node5 -->
<g id="node5" class="node">
<title>Node5</title>
<g id="a_node5"><a xlink:href="io_8h.html" target="_top" xlink:title="Copyright (c) 2021 Daishi Mori (mori0091)">
<polygon fill="none" stroke="black" points="44,-56.5 44,-75.5 117,-75.5 117,-56.5 44,-56.5"/>
<text text-anchor="middle" x="80.5" y="-63.5" font-family="Helvetica,sans-Serif" font-size="10.00">../include/io.h</text>
</a>
</g>
</g>
<!-- Node4&#45;&gt;Node5 -->
<g id="edge5" class="edge">
<title>Node4&#45;&gt;Node5</title>
<path fill="none" stroke="midnightblue" d="M47.11,-112.08C52.76,-104.46 61.04,-93.26 67.95,-83.94"/>
<polygon fill="midnightblue" stroke="midnightblue" points="70.88,-85.87 74.02,-75.75 65.25,-81.7 70.88,-85.87"/>
</g>
<!-- Node6&#45;&gt;Node3 -->
<g id="edge8" class="edge">
<title>Node6&#45;&gt;Node3</title>
<path fill="none" stroke="midnightblue" d="M318.56,-56.44C288.99,-47.05 241.47,-31.96 209.39,-21.77"/>
<polygon fill="midnightblue" stroke="midnightblue" points="210.15,-18.34 199.56,-18.64 208.03,-25.01 210.15,-18.34"/>
</g>
<!-- Node7 -->
<g id="node7" class="node">
<title>Node7</title>
<g id="a_node7"><a xlink:title=" ">
<polygon fill="none" stroke="#bfbfbf" points="223.5,-0.5 223.5,-19.5 279.5,-19.5 279.5,-0.5 223.5,-0.5"/>
<text text-anchor="middle" x="251.5" y="-7.5" font-family="Helvetica,sans-Serif" font-size="10.00">stdbool.h</text>
</a>
</g>
</g>
<!-- Node6&#45;&gt;Node7 -->
<g id="edge7" class="edge">
<title>Node6&#45;&gt;Node7</title>
<path fill="none" stroke="midnightblue" d="M330.4,-56.32C315.6,-47.82 292.81,-34.73 275.52,-24.8"/>
<polygon fill="midnightblue" stroke="midnightblue" points="276.98,-21.6 266.57,-19.65 273.49,-27.67 276.98,-21.6"/>
</g>
<!-- Node8 -->
<g id="node8" class="node">
<title>Node8</title>
<g id="a_node8"><a xlink:title=" ">
<polygon fill="none" stroke="#bfbfbf" points="322,-0.5 322,-19.5 369,-19.5 369,-0.5 322,-0.5"/>
<text text-anchor="middle" x="345.5" y="-7.5" font-family="Helvetica,sans-Serif" font-size="10.00">stdlib.h</text>
</a>
</g>
</g>
<!-- Node6&#45;&gt;Node8 -->
<g id="edge9" class="edge">
<title>Node6&#45;&gt;Node8</title>
<path fill="none" stroke="midnightblue" d="M345.5,-56.08C345.5,-49.01 345.5,-38.86 345.5,-29.99"/>
<polygon fill="midnightblue" stroke="midnightblue" points="349,-29.75 345.5,-19.75 342,-29.75 349,-29.75"/>
</g>
<!-- Node9&#45;&gt;Node3 -->
<g id="edge12" class="edge">
<title>Node9&#45;&gt;Node3</title>
<path fill="none" stroke="midnightblue" d="M218.91,-56.08C211.34,-48.22 200.12,-36.57 190.99,-27.08"/>
<polygon fill="midnightblue" stroke="midnightblue" points="193.38,-24.53 183.93,-19.75 188.34,-29.38 193.38,-24.53"/>
</g>
<!-- Node9&#45;&gt;Node7 -->
<g id="edge11" class="edge">
<title>Node9&#45;&gt;Node7</title>
<path fill="none" stroke="midnightblue" d="M231.46,-56.08C234.71,-48.77 239.42,-38.18 243.45,-29.1"/>
<polygon fill="midnightblue" stroke="midnightblue" points="246.75,-30.31 247.61,-19.75 240.35,-27.47 246.75,-30.31"/>
</g>
<!-- Node10&#45;&gt;Node9 -->
<g id="edge14" class="edge">
<title>Node10&#45;&gt;Node9</title>
<path fill="none" stroke="midnightblue" d="M271.75,-112.08C264.03,-104.22 252.6,-92.57 243.28,-83.08"/>
<polygon fill="midnightblue" stroke="midnightblue" points="245.59,-80.44 236.09,-75.75 240.6,-85.34 245.59,-80.44"/>
</g>
</g>
</svg>
