<?xml version="1.0" encoding="UTF-8" standalone="no"?>
<!DOCTYPE svg PUBLIC "-//W3C//DTD SVG 1.1//EN"
 "http://www.w3.org/Graphics/SVG/1.1/DTD/svg11.dtd">
<!-- Generated by graphviz version 7.0.5 (20221223.1930)
 -->
<!-- Title: include/sprite_color.h Pages: 1 -->
<svg width="136pt" height="247pt"
 viewBox="0.00 0.00 136.00 247.00" xmlns="http://www.w3.org/2000/svg" xmlns:xlink="http://www.w3.org/1999/xlink">
<g id="graph0" class="graph" transform="scale(1 1) rotate(0) translate(4 243)">
<title>include/sprite_color.h</title>
<!-- Node1 -->
<g id="node1" class="node">
<title>Node1</title>
<g id="a_node1"><a xlink:title="Sprite color table interface.">
<polygon fill="#999999" stroke="#666666" points="108,-239 0,-239 0,-220 108,-220 108,-239"/>
<text text-anchor="middle" x="54" y="-227" font-family="Helvetica,sans-Serif" font-size="10.00">include/sprite_color.h</text>
</a>
</g>
</g>
<!-- Node2 -->
<g id="node2" class="node">
<title>Node2</title>
<g id="a_node2"><a xlink:title=" ">
<polygon fill="#e0e0e0" stroke="#999999" points="69,-74 21,-74 21,-55 69,-55 69,-74"/>
<text text-anchor="middle" x="45" y="-62" font-family="Helvetica,sans-Serif" font-size="10.00">stdint.h</text>
</a>
</g>
</g>
<!-- Node1&#45;&gt;Node2 -->
<g id="edge1" class="edge">
<title>Node1&#45;&gt;Node2</title>
<path fill="none" stroke="#63b8ff" d="M44.67,-219.63C36.64,-211.31 25.65,-198.06 21,-184 9.68,-149.74 24.38,-108.07 35.26,-84.38"/>
<polygon fill="#63b8ff" stroke="#63b8ff" points="38.27,-86.19 39.5,-75.67 31.98,-83.13 38.27,-86.19"/>
</g>
<!-- Node3 -->
<g id="node3" class="node">
<title>Node3</title>
<g id="a_node3"><a xlink:href="sprite_8h.html" target="_top" xlink:title="Sprites.">
<polygon fill="white" stroke="#666666" points="78,-184 30,-184 30,-165 78,-165 78,-184"/>
<text text-anchor="middle" x="54" y="-172" font-family="Helvetica,sans-Serif" font-size="10.00">sprite.h</text>
</a>
</g>
</g>
<!-- Node1&#45;&gt;Node3 -->
<g id="edge2" class="edge">
<title>Node1&#45;&gt;Node3</title>
<path fill="none" stroke="#63b8ff" d="M54,-219.75C54,-213.27 54,-204.16 54,-195.9"/>
<polygon fill="#63b8ff" stroke="#63b8ff" points="57.5,-195.96 54,-185.96 50.5,-195.96 57.5,-195.96"/>
</g>
<!-- Node4 -->
<g id="node4" class="node">
<title>Node4</title>
<g id="a_node4"><a xlink:href="vmem_8h.html" target="_top" xlink:title="Data types and functions for VRAM access.">
<polygon fill="white" stroke="#666666" points="127.5,-129 76.5,-129 76.5,-110 127.5,-110 127.5,-129"/>
<text text-anchor="middle" x="102" y="-117" font-family="Helvetica,sans-Serif" font-size="10.00">vmem.h</text>
</a>
</g>
</g>
<!-- Node1&#45;&gt;Node4 -->
<g id="edge8" class="edge">
<title>Node1&#45;&gt;Node4</title>
<path fill="none" stroke="#63b8ff" d="M62.28,-219.66C69.81,-211.15 80.68,-197.61 87,-184 93.44,-170.13 97.26,-153.23 99.43,-140.35"/>
<polygon fill="#63b8ff" stroke="#63b8ff" points="102.88,-140.98 100.87,-130.58 95.95,-139.96 102.88,-140.98"/>
</g>
<!-- Node3&#45;&gt;Node2 -->
<g id="edge3" class="edge">
<title>Node3&#45;&gt;Node2</title>
<path fill="none" stroke="#63b8ff" d="M53.26,-164.66C51.84,-147.57 48.68,-109.61 46.7,-85.92"/>
<polygon fill="#63b8ff" stroke="#63b8ff" points="50.19,-85.64 45.87,-75.97 43.22,-86.22 50.19,-85.64"/>
</g>
<!-- Node3&#45;&gt;Node4 -->
<g id="edge4" class="edge">
<title>Node3&#45;&gt;Node4</title>
<path fill="none" stroke="#63b8ff" d="M61.93,-164.75C68.56,-157.43 78.22,-146.76 86.39,-137.74"/>
<polygon fill="#63b8ff" stroke="#63b8ff" points="88.77,-140.33 92.89,-130.56 83.58,-135.63 88.77,-140.33"/>
</g>
<!-- Node4&#45;&gt;Node2 -->
<g id="edge5" class="edge">
<title>Node4&#45;&gt;Node2</title>
<path fill="none" stroke="#63b8ff" d="M92.33,-109.51C84.26,-102 72.53,-91.1 62.78,-82.03"/>
<polygon fill="#63b8ff" stroke="#63b8ff" points="65.34,-79.63 55.63,-75.39 60.57,-84.76 65.34,-79.63"/>
</g>
<!-- Node5 -->
<g id="node5" class="node">
<title>Node5</title>
<g id="a_node5"><a xlink:href="io_8h.html" target="_top" xlink:title="Definition of I/O ports.">
<polygon fill="white" stroke="#666666" points="119,-74 87,-74 87,-55 119,-55 119,-74"/>
<text text-anchor="middle" x="103" y="-62" font-family="Helvetica,sans-Serif" font-size="10.00">io.h</text>
</a>
</g>
</g>
<!-- Node4&#45;&gt;Node5 -->
<g id="edge6" class="edge">
<title>Node4&#45;&gt;Node5</title>
<path fill="none" stroke="#63b8ff" d="M102.17,-109.75C102.29,-103.27 102.46,-94.16 102.62,-85.9"/>
<polygon fill="#63b8ff" stroke="#63b8ff" points="106.11,-86.02 102.8,-75.96 99.11,-85.89 106.11,-86.02"/>
</g>
<!-- Node6 -->
<g id="node6" class="node">
<title>Node6</title>
<g id="a_node6"><a xlink:href="config_8h.html" target="_top" xlink:title="Hack for C Compiler portability.">
<polygon fill="white" stroke="#666666" points="128,-19 78,-19 78,0 128,0 128,-19"/>
<text text-anchor="middle" x="103" y="-7" font-family="Helvetica,sans-Serif" font-size="10.00">config.h</text>
</a>
</g>
</g>
<!-- Node5&#45;&gt;Node6 -->
<g id="edge7" class="edge">
<title>Node5&#45;&gt;Node6</title>
<path fill="none" stroke="#63b8ff" d="M103,-54.75C103,-48.27 103,-39.16 103,-30.9"/>
<polygon fill="#63b8ff" stroke="#63b8ff" points="106.5,-30.96 103,-20.96 99.5,-30.96 106.5,-30.96"/>
</g>
</g>
</svg>
