<?xml version="1.0" encoding="UTF-8" standalone="no"?>
<!DOCTYPE svg PUBLIC "-//W3C//DTD SVG 1.1//EN"
 "http://www.w3.org/Graphics/SVG/1.1/DTD/svg11.dtd">
<!-- Generated by graphviz version 12.2.0 (20241103.1931)
 -->
<!-- Title: include/sprite.h Pages: 1 -->
<svg width="323pt" height="193pt"
 viewBox="0.00 0.00 322.62 193.00" xmlns="http://www.w3.org/2000/svg" xmlns:xlink="http://www.w3.org/1999/xlink">
<g id="graph0" class="graph" transform="scale(1 1) rotate(0) translate(4 189)">
<title>include/sprite.h</title>
<!-- Node1 -->
<g id="Node000001" class="node">
<title>Node1</title>
<g id="a_Node000001"><a xlink:title="Sprites.">
<polygon fill="#999999" stroke="#666666" points="213.12,-185 131.88,-185 131.88,-165.75 213.12,-165.75 213.12,-185"/>
<text text-anchor="middle" x="172.5" y="-171.5" font-family="Helvetica,sans-Serif" font-size="10.00">include/sprite.h</text>
</a>
</g>
</g>
<!-- Node2 -->
<g id="Node000002" class="node">
<title>Node2</title>
<g id="a_Node000002"><a xlink:href="metasprite_8h.html" target="_top" xlink:title="Meta&#45;sprite ; an aggregate of sprites.">
<polygon fill="white" stroke="#666666" points="103,-129.75 0,-129.75 0,-110.5 103,-110.5 103,-129.75"/>
<text text-anchor="middle" x="51.5" y="-116.25" font-family="Helvetica,sans-Serif" font-size="10.00">include/metasprite.h</text>
</a>
</g>
</g>
<!-- Node1&#45;&gt;Node2 -->
<g id="edge1_Node000001_Node000002" class="edge">
<title>Node1&#45;&gt;Node2</title>
<g id="a_edge1_Node000001_Node000002"><a xlink:title=" ">
<path fill="none" stroke="#63b8ff" d="M141.59,-160.77C119.79,-151.18 91.19,-138.59 72.13,-130.2"/>
<polygon fill="#63b8ff" stroke="#63b8ff" points="140.03,-163.91 150.59,-164.73 142.85,-157.5 140.03,-163.91"/>
</a>
</g>
</g>
<!-- Node3 -->
<g id="Node000003" class="node">
<title>Node3</title>
<g id="a_Node000003"><a xlink:href="msx_8h.html" target="_top" xlink:title="Using #include &lt;msx.h&gt; includes almost all C header files in libmsx, for ease to use.">
<polygon fill="white" stroke="#666666" points="169.12,-74.5 93.88,-74.5 93.88,-55.25 169.12,-55.25 169.12,-74.5"/>
<text text-anchor="middle" x="131.5" y="-61" font-family="Helvetica,sans-Serif" font-size="10.00">include/msx.h</text>
</a>
</g>
</g>
<!-- Node1&#45;&gt;Node3 -->
<g id="edge3_Node000001_Node000003" class="edge">
<title>Node1&#45;&gt;Node3</title>
<g id="a_edge3_Node000001_Node000003"><a xlink:title=" ">
<path fill="none" stroke="#63b8ff" d="M162.15,-155.18C158.2,-147.42 153.85,-138.29 150.5,-129.75 142.98,-110.58 136.73,-87.19 133.62,-74.71"/>
<polygon fill="#63b8ff" stroke="#63b8ff" points="159.04,-156.78 166.78,-164.01 165.24,-153.53 159.04,-156.78"/>
</a>
</g>
</g>
<!-- Node4 -->
<g id="Node000004" class="node">
<title>Node4</title>
<g id="a_Node000004"><a xlink:href="sm2_8h.html" target="_top" xlink:title="SM2 (Sprite Mode 2) Animated Color Sprites.">
<polygon fill="white" stroke="#666666" points="298.5,-74.5 222.5,-74.5 222.5,-55.25 298.5,-55.25 298.5,-74.5"/>
<text text-anchor="middle" x="260.5" y="-61" font-family="Helvetica,sans-Serif" font-size="10.00">include/sm2.h</text>
</a>
</g>
</g>
<!-- Node1&#45;&gt;Node4 -->
<g id="edge4_Node000001_Node000004" class="edge">
<title>Node1&#45;&gt;Node4</title>
<g id="a_edge4_Node000001_Node000004"><a xlink:title=" ">
<path fill="none" stroke="#63b8ff" d="M224.42,-164.79C244.17,-158.34 264.73,-147.61 276.5,-129.75 287.82,-112.57 275.31,-87.97 266.89,-74.88"/>
<polygon fill="#63b8ff" stroke="#63b8ff" points="223.67,-161.37 215.05,-167.52 225.63,-168.09 223.67,-161.37"/>
</a>
</g>
</g>
<!-- Node6 -->
<g id="Node000006" class="node">
<title>Node6</title>
<g id="a_Node000006"><a xlink:href="sprite__color_8h.html" target="_top" xlink:title="Sprite color table interface.">
<polygon fill="white" stroke="#666666" points="267.25,-129.75 159.75,-129.75 159.75,-110.5 267.25,-110.5 267.25,-129.75"/>
<text text-anchor="middle" x="213.5" y="-116.25" font-family="Helvetica,sans-Serif" font-size="10.00">include/sprite_color.h</text>
</a>
</g>
</g>
<!-- Node1&#45;&gt;Node6 -->
<g id="edge6_Node000001_Node000006" class="edge">
<title>Node1&#45;&gt;Node6</title>
<g id="a_edge6_Node000001_Node000006"><a xlink:title=" ">
<path fill="none" stroke="#63b8ff" d="M186.09,-156.72C192.96,-147.81 200.99,-137.37 206.58,-130.11"/>
<polygon fill="#63b8ff" stroke="#63b8ff" points="183.52,-154.32 180.19,-164.38 189.07,-158.59 183.52,-154.32"/>
</a>
</g>
</g>
<!-- Node2&#45;&gt;Node3 -->
<g id="edge2_Node000002_Node000003" class="edge">
<title>Node2&#45;&gt;Node3</title>
<g id="a_edge2_Node000002_Node000003"><a xlink:title=" ">
<path fill="none" stroke="#63b8ff" d="M74.55,-103.78C88.57,-94.45 106,-82.85 117.86,-74.95"/>
<polygon fill="#63b8ff" stroke="#63b8ff" points="72.72,-100.8 66.33,-109.25 76.59,-106.63 72.72,-100.8"/>
</a>
</g>
</g>
<!-- Node5 -->
<g id="Node000005" class="node">
<title>Node5</title>
<g id="a_Node000005"><a xlink:href="sm2__bmem_8h.html" target="_top" xlink:title="SM2 (Sprite Mode 2) internal APIs for BMEM / Resources.">
<polygon fill="white" stroke="#666666" points="314.62,-19.25 206.38,-19.25 206.38,0 314.62,0 314.62,-19.25"/>
<text text-anchor="middle" x="260.5" y="-5.75" font-family="Helvetica,sans-Serif" font-size="10.00">include/sm2_bmem.h</text>
</a>
</g>
</g>
<!-- Node4&#45;&gt;Node5 -->
<g id="edge5_Node000004_Node000005" class="edge">
<title>Node4&#45;&gt;Node5</title>
<g id="a_edge5_Node000004_Node000005"><a xlink:title=" ">
<path fill="none" stroke="#63b8ff" d="M260.5,-43.63C260.5,-35.34 260.5,-26.17 260.5,-19.61"/>
<polygon fill="#63b8ff" stroke="#63b8ff" points="257,-43.57 260.5,-53.57 264,-43.57 257,-43.57"/>
</a>
</g>
</g>
<!-- Node6&#45;&gt;Node3 -->
<g id="edge7_Node000006_Node000003" class="edge">
<title>Node6&#45;&gt;Node3</title>
<g id="a_edge7_Node000006_Node000003"><a xlink:title=" ">
<path fill="none" stroke="#63b8ff" d="M190.29,-104.05C175.85,-94.67 157.75,-82.92 145.48,-74.95"/>
<polygon fill="#63b8ff" stroke="#63b8ff" points="188.03,-106.76 198.32,-109.27 191.84,-100.89 188.03,-106.76"/>
</a>
</g>
</g>
<!-- Node6&#45;&gt;Node4 -->
<g id="edge8_Node000006_Node000004" class="edge">
<title>Node6&#45;&gt;Node4</title>
<g id="a_edge8_Node000006_Node000004"><a xlink:title=" ">
<path fill="none" stroke="#63b8ff" d="M228.83,-101.76C236.75,-92.78 246.1,-82.2 252.57,-74.86"/>
<polygon fill="#63b8ff" stroke="#63b8ff" points="226.26,-99.38 222.26,-109.2 231.5,-104.02 226.26,-99.38"/>
</a>
</g>
</g>
</g>
</svg>
