<?xml version="1.0" encoding="UTF-8" standalone="no"?>
<!DOCTYPE svg PUBLIC "-//W3C//DTD SVG 1.1//EN"
 "http://www.w3.org/Graphics/SVG/1.1/DTD/svg11.dtd">
<!-- Generated by graphviz version 2.43.0 (0)
 -->
<!-- Title: include/sprite.h Pages: 1 -->
<svg width="1241pt" height="151pt"
 viewBox="0.00 0.00 1241.00 151.00" xmlns="http://www.w3.org/2000/svg" xmlns:xlink="http://www.w3.org/1999/xlink">
<g id="graph0" class="graph" transform="scale(1 1) rotate(0) translate(4 147)">
<title>include/sprite.h</title>
<!-- Node1 -->
<g id="node1" class="node">
<title>Node1</title>
<g id="a_node1"><a xlink:title=" ">
<polygon fill="#bfbfbf" stroke="black" points="499,-123.5 499,-142.5 591,-142.5 591,-123.5 499,-123.5"/>
<text text-anchor="middle" x="545" y="-130.5" font-family="Helvetica,sans-Serif" font-size="10.00">include/sprite.h</text>
</a>
</g>
</g>
<!-- Node2 -->
<g id="node2" class="node">
<title>Node2</title>
<g id="a_node2"><a xlink:href="metasprite_8h.html" target="_top" xlink:title=" ">
<polygon fill="none" stroke="black" points="273.5,-67.5 273.5,-86.5 390.5,-86.5 390.5,-67.5 273.5,-67.5"/>
<text text-anchor="middle" x="332" y="-74.5" font-family="Helvetica,sans-Serif" font-size="10.00">include/metasprite.h</text>
</a>
</g>
</g>
<!-- Node1&#45;&gt;Node2 -->
<g id="edge1" class="edge">
<title>Node1&#45;&gt;Node2</title>
<path fill="none" stroke="midnightblue" d="M501.45,-120.96C461.22,-110.76 402.3,-95.82 365.59,-86.52"/>
<polygon fill="midnightblue" stroke="midnightblue" points="500.7,-124.38 511.25,-123.44 502.42,-117.59 500.7,-124.38"/>
</g>
<!-- Node3 -->
<g id="node3" class="node">
<title>Node3</title>
<g id="a_node3"><a xlink:href="msx_8h.html" target="_top" xlink:title=" ">
<polygon fill="none" stroke="black" points="182.5,-6 182.5,-25 267.5,-25 267.5,-6 182.5,-6"/>
<text text-anchor="middle" x="225" y="-13" font-family="Helvetica,sans-Serif" font-size="10.00">include/msx.h</text>
</a>
</g>
</g>
<!-- Node1&#45;&gt;Node3 -->
<g id="edge6" class="edge">
<title>Node1&#45;&gt;Node3</title>
<path fill="none" stroke="midnightblue" d="M488.62,-128.77C417.24,-123.7 299.31,-111.79 264,-87 242.25,-71.73 231.3,-40.29 227.1,-25.1"/>
<polygon fill="midnightblue" stroke="midnightblue" points="488.58,-132.27 498.79,-129.47 489.06,-125.29 488.58,-132.27"/>
</g>
<!-- Node4 -->
<g id="node4" class="node">
<title>Node4</title>
<g id="a_node4"><a xlink:href="vmem__set__metasprite__a_8c.html" target="_top" xlink:title=" ">
<polygon fill="none" stroke="black" points="0,-6 0,-25 164,-25 164,-6 0,-6"/>
<text text-anchor="middle" x="82" y="-13" font-family="Helvetica,sans-Serif" font-size="10.00">src/vmem_set_metasprite_a.c</text>
</a>
</g>
</g>
<!-- Node1&#45;&gt;Node4 -->
<g id="edge19" class="edge">
<title>Node1&#45;&gt;Node4</title>
<path fill="none" stroke="midnightblue" d="M488.67,-128.09C427.29,-122.79 326.67,-111.09 243,-87 187.58,-71.04 126.24,-40.22 97.92,-25.18"/>
<polygon fill="midnightblue" stroke="midnightblue" points="488.66,-131.6 498.92,-128.94 489.24,-124.62 488.66,-131.6"/>
</g>
<!-- Node5 -->
<g id="node5" class="node">
<title>Node5</title>
<g id="a_node5"><a xlink:href="vmem__set__metasprite__m_8c.html" target="_top" xlink:title=" ">
<polygon fill="none" stroke="black" points="285.5,-6 285.5,-25 452.5,-25 452.5,-6 285.5,-6"/>
<text text-anchor="middle" x="369" y="-13" font-family="Helvetica,sans-Serif" font-size="10.00">src/vmem_set_metasprite_m.c</text>
</a>
</g>
</g>
<!-- Node1&#45;&gt;Node5 -->
<g id="edge20" class="edge">
<title>Node1&#45;&gt;Node5</title>
<path fill="none" stroke="midnightblue" d="M520.91,-118.39C505.82,-109.7 486.06,-98.04 469,-87 436.19,-65.77 398.88,-38.64 380.49,-25.05"/>
<polygon fill="midnightblue" stroke="midnightblue" points="519.22,-121.46 529.64,-123.38 522.7,-115.38 519.22,-121.46"/>
</g>
<!-- Node6 -->
<g id="node6" class="node">
<title>Node6</title>
<g id="a_node6"><a xlink:href="vmem__set__metasprite__s_8c.html" target="_top" xlink:title=" ">
<polygon fill="none" stroke="black" points="470.5,-6 470.5,-25 633.5,-25 633.5,-6 470.5,-6"/>
<text text-anchor="middle" x="552" y="-13" font-family="Helvetica,sans-Serif" font-size="10.00">src/vmem_set_metasprite_s.c</text>
</a>
</g>
</g>
<!-- Node1&#45;&gt;Node6 -->
<g id="edge21" class="edge">
<title>Node1&#45;&gt;Node6</title>
<path fill="none" stroke="midnightblue" d="M513.75,-119.21C490.36,-107.57 464.26,-88.9 476,-67 487,-46.48 510.43,-32.87 528.38,-25.01"/>
<polygon fill="midnightblue" stroke="midnightblue" points="512.29,-122.39 522.83,-123.46 515.26,-116.05 512.29,-122.39"/>
</g>
<!-- Node7 -->
<g id="node7" class="node">
<title>Node7</title>
<g id="a_node7"><a xlink:href="sprite__color_8h.html" target="_top" xlink:title=" ">
<polygon fill="none" stroke="black" points="485,-67.5 485,-86.5 605,-86.5 605,-67.5 485,-67.5"/>
<text text-anchor="middle" x="545" y="-74.5" font-family="Helvetica,sans-Serif" font-size="10.00">include/sprite_color.h</text>
</a>
</g>
</g>
<!-- Node1&#45;&gt;Node7 -->
<g id="edge7" class="edge">
<title>Node1&#45;&gt;Node7</title>
<path fill="none" stroke="midnightblue" d="M545,-112.8C545,-103.91 545,-93.78 545,-86.75"/>
<polygon fill="midnightblue" stroke="midnightblue" points="541.5,-113.08 545,-123.08 548.5,-113.08 541.5,-113.08"/>
</g>
<!-- Node11 -->
<g id="node11" class="node">
<title>Node11</title>
<g id="a_node11"><a xlink:href="sprite__set__color_8c.html" target="_top" xlink:title=" ">
<polygon fill="none" stroke="black" points="623.5,-67.5 623.5,-86.5 742.5,-86.5 742.5,-67.5 623.5,-67.5"/>
<text text-anchor="middle" x="683" y="-74.5" font-family="Helvetica,sans-Serif" font-size="10.00">src/sprite_set_color.c</text>
</a>
</g>
</g>
<!-- Node1&#45;&gt;Node11 -->
<g id="edge14" class="edge">
<title>Node1&#45;&gt;Node11</title>
<path fill="none" stroke="midnightblue" d="M576.25,-119.77C602.17,-109.63 638.36,-95.47 661.24,-86.52"/>
<polygon fill="midnightblue" stroke="midnightblue" points="574.9,-116.54 566.87,-123.44 577.45,-123.06 574.9,-116.54"/>
</g>
<!-- Node12 -->
<g id="node12" class="node">
<title>Node12</title>
<g id="a_node12"><a xlink:href="sprite__set__pat_8c.html" target="_top" xlink:title=" ">
<polygon fill="none" stroke="black" points="760.5,-67.5 760.5,-86.5 871.5,-86.5 871.5,-67.5 760.5,-67.5"/>
<text text-anchor="middle" x="816" y="-74.5" font-family="Helvetica,sans-Serif" font-size="10.00">src/sprite_set_pat.c</text>
</a>
</g>
</g>
<!-- Node1&#45;&gt;Node12 -->
<g id="edge15" class="edge">
<title>Node1&#45;&gt;Node12</title>
<path fill="none" stroke="midnightblue" d="M597.83,-121.47C649.04,-111.27 725.77,-95.98 773.26,-86.52"/>
<polygon fill="midnightblue" stroke="midnightblue" points="597.06,-118.06 587.94,-123.44 598.43,-124.92 597.06,-118.06"/>
</g>
<!-- Node13 -->
<g id="node13" class="node">
<title>Node13</title>
<g id="a_node13"><a xlink:href="sprite__set__x_8c.html" target="_top" xlink:title=" ">
<polygon fill="none" stroke="black" points="889.5,-67.5 889.5,-86.5 990.5,-86.5 990.5,-67.5 889.5,-67.5"/>
<text text-anchor="middle" x="940" y="-74.5" font-family="Helvetica,sans-Serif" font-size="10.00">src/sprite_set_x.c</text>
</a>
</g>
</g>
<!-- Node1&#45;&gt;Node13 -->
<g id="edge16" class="edge">
<title>Node1&#45;&gt;Node13</title>
<path fill="none" stroke="midnightblue" d="M601.54,-124.75C668.35,-116.1 782.84,-101.06 881,-87 883.77,-86.6 886.61,-86.19 889.48,-85.77"/>
<polygon fill="midnightblue" stroke="midnightblue" points="600.7,-121.33 591.23,-126.08 601.6,-128.27 600.7,-121.33"/>
</g>
<!-- Node14 -->
<g id="node14" class="node">
<title>Node14</title>
<g id="a_node14"><a xlink:href="sprite__set__xy_8c.html" target="_top" xlink:title=" ">
<polygon fill="none" stroke="black" points="1009,-67.5 1009,-86.5 1115,-86.5 1115,-67.5 1009,-67.5"/>
<text text-anchor="middle" x="1062" y="-74.5" font-family="Helvetica,sans-Serif" font-size="10.00">src/sprite_set_xy.c</text>
</a>
</g>
</g>
<!-- Node1&#45;&gt;Node14 -->
<g id="edge17" class="edge">
<title>Node1&#45;&gt;Node14</title>
<path fill="none" stroke="midnightblue" d="M601.33,-127.26C687.39,-119.83 856.71,-104.48 1000,-87 1002.92,-86.64 1005.9,-86.26 1008.92,-85.87"/>
<polygon fill="midnightblue" stroke="midnightblue" points="600.92,-123.78 591.26,-128.13 601.52,-130.76 600.92,-123.78"/>
</g>
<!-- Node15 -->
<g id="node15" class="node">
<title>Node15</title>
<g id="a_node15"><a xlink:href="sprite__set__y_8c.html" target="_top" xlink:title=" ">
<polygon fill="none" stroke="black" points="1133,-67.5 1133,-86.5 1233,-86.5 1233,-67.5 1133,-67.5"/>
<text text-anchor="middle" x="1183" y="-74.5" font-family="Helvetica,sans-Serif" font-size="10.00">src/sprite_set_y.c</text>
</a>
</g>
</g>
<!-- Node1&#45;&gt;Node15 -->
<g id="edge18" class="edge">
<title>Node1&#45;&gt;Node15</title>
<path fill="none" stroke="midnightblue" d="M601.51,-129C705.26,-123.17 932.99,-108.96 1124,-87 1126.88,-86.67 1129.84,-86.3 1132.82,-85.91"/>
<polygon fill="midnightblue" stroke="midnightblue" points="601.06,-125.52 591.27,-129.57 601.45,-132.51 601.06,-125.52"/>
</g>
<!-- Node2&#45;&gt;Node3 -->
<g id="edge2" class="edge">
<title>Node2&#45;&gt;Node3</title>
<path fill="none" stroke="midnightblue" d="M307.82,-62.56C287.12,-51.04 257.93,-34.81 240.3,-25.01"/>
<polygon fill="midnightblue" stroke="midnightblue" points="306.23,-65.67 316.67,-67.48 309.63,-59.56 306.23,-65.67"/>
</g>
<!-- Node2&#45;&gt;Node4 -->
<g id="edge3" class="edge">
<title>Node2&#45;&gt;Node4</title>
<path fill="none" stroke="midnightblue" d="M286.26,-65.11C237.74,-53.57 162.09,-35.56 117.75,-25.01"/>
<polygon fill="midnightblue" stroke="midnightblue" points="285.64,-68.56 296.18,-67.48 287.26,-61.75 285.64,-68.56"/>
</g>
<!-- Node2&#45;&gt;Node5 -->
<g id="edge4" class="edge">
<title>Node2&#45;&gt;Node5</title>
<path fill="none" stroke="midnightblue" d="M342.78,-58.67C349.66,-47.61 358.27,-33.75 363.71,-25.01"/>
<polygon fill="midnightblue" stroke="midnightblue" points="339.61,-57.13 337.3,-67.48 345.55,-60.83 339.61,-57.13"/>
</g>
<!-- Node2&#45;&gt;Node6 -->
<g id="edge5" class="edge">
<title>Node2&#45;&gt;Node6</title>
<path fill="none" stroke="midnightblue" d="M373.33,-64.82C416.06,-53.26 481.85,-35.47 520.54,-25.01"/>
<polygon fill="midnightblue" stroke="midnightblue" points="372.26,-61.49 363.52,-67.48 374.09,-68.24 372.26,-61.49"/>
</g>
<!-- Node7&#45;&gt;Node3 -->
<g id="edge8" class="edge">
<title>Node7&#45;&gt;Node3</title>
<path fill="none" stroke="midnightblue" d="M474.57,-66.25C420.29,-58.24 343.52,-45.81 277,-31 269.32,-29.29 261.08,-27.14 253.47,-25.02"/>
<polygon fill="midnightblue" stroke="midnightblue" points="474.37,-69.76 484.78,-67.75 475.39,-62.83 474.37,-69.76"/>
</g>
<!-- Node7&#45;&gt;Node5 -->
<g id="edge9" class="edge">
<title>Node7&#45;&gt;Node5</title>
<path fill="none" stroke="midnightblue" d="M510.19,-64.23C475.98,-52.67 424.6,-35.3 394.17,-25.01"/>
<polygon fill="midnightblue" stroke="midnightblue" points="509.19,-67.59 519.78,-67.48 511.43,-60.96 509.19,-67.59"/>
</g>
<!-- Node7&#45;&gt;Node6 -->
<g id="edge10" class="edge">
<title>Node7&#45;&gt;Node6</title>
<path fill="none" stroke="midnightblue" d="M547.2,-57.32C548.47,-46.5 550.01,-33.4 551,-25.01"/>
<polygon fill="midnightblue" stroke="midnightblue" points="543.7,-57.13 546,-67.48 550.65,-57.95 543.7,-57.13"/>
</g>
<!-- Node8 -->
<g id="node8" class="node">
<title>Node8</title>
<g id="a_node8"><a xlink:href="vmem__set__sprite__color_8c.html" target="_top" xlink:title=" ">
<polygon fill="none" stroke="black" points="651.5,-0.5 651.5,-30.5 770.5,-30.5 770.5,-0.5 651.5,-0.5"/>
<text text-anchor="start" x="659.5" y="-18.5" font-family="Helvetica,sans-Serif" font-size="10.00">src/vmem_set_sprite</text>
<text text-anchor="middle" x="711" y="-7.5" font-family="Helvetica,sans-Serif" font-size="10.00">_color.c</text>
</a>
</g>
</g>
<!-- Node7&#45;&gt;Node8 -->
<g id="edge11" class="edge">
<title>Node7&#45;&gt;Node8</title>
<path fill="none" stroke="midnightblue" d="M578.55,-63.98C605.54,-54.3 643.51,-40.69 671.88,-30.52"/>
<polygon fill="midnightblue" stroke="midnightblue" points="577.02,-60.81 568.78,-67.48 579.38,-67.4 577.02,-60.81"/>
</g>
<!-- Node9 -->
<g id="node9" class="node">
<title>Node9</title>
<g id="a_node9"><a xlink:href="vmem__set__sprite__color__m_8c.html" target="_top" xlink:title=" ">
<polygon fill="none" stroke="black" points="788.5,-0.5 788.5,-30.5 907.5,-30.5 907.5,-0.5 788.5,-0.5"/>
<text text-anchor="start" x="796.5" y="-18.5" font-family="Helvetica,sans-Serif" font-size="10.00">src/vmem_set_sprite</text>
<text text-anchor="middle" x="848" y="-7.5" font-family="Helvetica,sans-Serif" font-size="10.00">_color_m.c</text>
</a>
</g>
</g>
<!-- Node7&#45;&gt;Node9 -->
<g id="edge12" class="edge">
<title>Node7&#45;&gt;Node9</title>
<path fill="none" stroke="midnightblue" d="M601.1,-65.6C648.75,-56.68 718.93,-43.36 780,-31 782.72,-30.45 785.5,-29.88 788.31,-29.3"/>
<polygon fill="midnightblue" stroke="midnightblue" points="600.17,-62.21 590.99,-67.49 601.46,-69.09 600.17,-62.21"/>
</g>
<!-- Node10 -->
<g id="node10" class="node">
<title>Node10</title>
<g id="a_node10"><a xlink:href="vmem__set__sprite__color__s_8c.html" target="_top" xlink:title=" ">
<polygon fill="none" stroke="black" points="925.5,-0.5 925.5,-30.5 1044.5,-30.5 1044.5,-0.5 925.5,-0.5"/>
<text text-anchor="start" x="933.5" y="-18.5" font-family="Helvetica,sans-Serif" font-size="10.00">src/vmem_set_sprite</text>
<text text-anchor="middle" x="985" y="-7.5" font-family="Helvetica,sans-Serif" font-size="10.00">_color_s.c</text>
</a>
</g>
</g>
<!-- Node7&#45;&gt;Node10 -->
<g id="edge13" class="edge">
<title>Node7&#45;&gt;Node10</title>
<path fill="none" stroke="midnightblue" d="M615.26,-66.99C750.82,-50.5 786.77,-52.6 917,-31 919.74,-30.55 922.53,-30.06 925.35,-29.54"/>
<polygon fill="midnightblue" stroke="midnightblue" points="614.82,-63.52 605.32,-68.21 615.68,-70.46 614.82,-63.52"/>
</g>
</g>
</svg>
