<?xml version="1.0" encoding="UTF-8" standalone="no"?>
<!DOCTYPE svg PUBLIC "-//W3C//DTD SVG 1.1//EN"
 "http://www.w3.org/Graphics/SVG/1.1/DTD/svg11.dtd">
<!-- Generated by graphviz version 12.2.0 (20241103.1931)
 -->
<!-- Title: include/sprite.h Pages: 1 -->
<svg width="188pt" height="248pt"
 viewBox="0.00 0.00 188.12 248.25" xmlns="http://www.w3.org/2000/svg" xmlns:xlink="http://www.w3.org/1999/xlink">
<g id="graph0" class="graph" transform="scale(1 1) rotate(0) translate(4 244.25)">
<title>include/sprite.h</title>
<!-- Node1 -->
<g id="Node000001" class="node">
<title>Node1</title>
<g id="a_Node000001"><a xlink:title="Sprites.">
<polygon fill="#999999" stroke="#666666" points="81.25,-240.25 0,-240.25 0,-221 81.25,-221 81.25,-240.25"/>
<text text-anchor="middle" x="40.62" y="-226.75" font-family="Helvetica,sans-Serif" font-size="10.00">include/sprite.h</text>
</a>
</g>
</g>
<!-- Node2 -->
<g id="Node000002" class="node">
<title>Node2</title>
<g id="a_Node000002"><a xlink:title=" ">
<polygon fill="#e0e0e0" stroke="#999999" points="76.38,-19.25 28.88,-19.25 28.88,0 76.38,0 76.38,-19.25"/>
<text text-anchor="middle" x="52.62" y="-5.75" font-family="Helvetica,sans-Serif" font-size="10.00">stdint.h</text>
</a>
</g>
</g>
<!-- Node1&#45;&gt;Node2 -->
<g id="edge1_Node000001_Node000002" class="edge">
<title>Node1&#45;&gt;Node2</title>
<g id="a_edge1_Node000001_Node000002"><a xlink:title=" ">
<path fill="none" stroke="#63b8ff" d="M41.11,-220.77C42.88,-188.51 49,-76.76 51.52,-30.71"/>
<polygon fill="#63b8ff" stroke="#63b8ff" points="55.01,-31.04 52.06,-20.86 48.02,-30.66 55.01,-31.04"/>
</a>
</g>
</g>
<!-- Node3 -->
<g id="Node000003" class="node">
<title>Node3</title>
<g id="a_Node000003"><a xlink:href="vmem_8h.html" target="_top" xlink:title="Data types and functions for VRAM access.">
<polygon fill="white" stroke="#666666" points="111.88,-185 61.38,-185 61.38,-165.75 111.88,-165.75 111.88,-185"/>
<text text-anchor="middle" x="86.62" y="-171.5" font-family="Helvetica,sans-Serif" font-size="10.00">vmem.h</text>
</a>
</g>
</g>
<!-- Node1&#45;&gt;Node3 -->
<g id="edge2_Node000001_Node000003" class="edge">
<title>Node1&#45;&gt;Node3</title>
<g id="a_edge2_Node000001_Node000003"><a xlink:title=" ">
<path fill="none" stroke="#63b8ff" d="M48.22,-220.83C54.51,-213.55 63.64,-202.98 71.42,-193.98"/>
<polygon fill="#63b8ff" stroke="#63b8ff" points="73.99,-196.36 77.87,-186.5 68.69,-191.78 73.99,-196.36"/>
</a>
</g>
</g>
<!-- Node3&#45;&gt;Node2 -->
<g id="edge3_Node000003_Node000002" class="edge">
<title>Node3&#45;&gt;Node2</title>
<g id="a_edge3_Node000003_Node000002"><a xlink:title=" ">
<path fill="none" stroke="#63b8ff" d="M83.07,-165.28C79.7,-156.35 74.71,-142.29 71.62,-129.75 63.22,-95.6 57.67,-55 54.84,-31.11"/>
<polygon fill="#63b8ff" stroke="#63b8ff" points="58.32,-30.74 53.72,-21.2 51.37,-31.53 58.32,-30.74"/>
</a>
</g>
</g>
<!-- Node4 -->
<g id="Node000004" class="node">
<title>Node4</title>
<g id="a_Node000004"><a xlink:title=" ">
<polygon fill="#e0e0e0" stroke="#999999" points="130.88,-129.75 80.38,-129.75 80.38,-110.5 130.88,-110.5 130.88,-129.75"/>
<text text-anchor="middle" x="105.62" y="-116.25" font-family="Helvetica,sans-Serif" font-size="10.00">stddef.h</text>
</a>
</g>
</g>
<!-- Node3&#45;&gt;Node4 -->
<g id="edge4_Node000003_Node000004" class="edge">
<title>Node3&#45;&gt;Node4</title>
<g id="a_edge4_Node000003_Node000004"><a xlink:title=" ">
<path fill="none" stroke="#63b8ff" d="M89.76,-165.58C92.17,-158.84 95.58,-149.27 98.63,-140.74"/>
<polygon fill="#63b8ff" stroke="#63b8ff" points="101.85,-142.13 101.91,-131.53 95.25,-139.78 101.85,-142.13"/>
</a>
</g>
</g>
<!-- Node5 -->
<g id="Node000005" class="node">
<title>Node5</title>
<g id="a_Node000005"><a xlink:href="io_8h.html" target="_top" xlink:title="Definition of I/O ports.">
<polygon fill="white" stroke="#666666" points="180.12,-129.75 149.12,-129.75 149.12,-110.5 180.12,-110.5 180.12,-129.75"/>
<text text-anchor="middle" x="164.62" y="-116.25" font-family="Helvetica,sans-Serif" font-size="10.00">io.h</text>
</a>
</g>
</g>
<!-- Node3&#45;&gt;Node5 -->
<g id="edge5_Node000003_Node000005" class="edge">
<title>Node3&#45;&gt;Node5</title>
<g id="a_edge5_Node000003_Node000005"><a xlink:title=" ">
<path fill="none" stroke="#63b8ff" d="M99.86,-165.34C111.4,-157.46 128.39,-145.86 142.07,-136.52"/>
<polygon fill="#63b8ff" stroke="#63b8ff" points="143.79,-139.58 150.08,-131.06 139.85,-133.8 143.79,-139.58"/>
</a>
</g>
</g>
<!-- Node6 -->
<g id="Node000006" class="node">
<title>Node6</title>
<g id="a_Node000006"><a xlink:href="config_8h.html" target="_top" xlink:title="Hack for C Compiler portability.">
<polygon fill="white" stroke="#666666" points="159.12,-74.5 110.12,-74.5 110.12,-55.25 159.12,-55.25 159.12,-74.5"/>
<text text-anchor="middle" x="134.62" y="-61" font-family="Helvetica,sans-Serif" font-size="10.00">config.h</text>
</a>
</g>
</g>
<!-- Node5&#45;&gt;Node6 -->
<g id="edge6_Node000005_Node000006" class="edge">
<title>Node5&#45;&gt;Node6</title>
<g id="a_edge6_Node000005_Node000006"><a xlink:title=" ">
<path fill="none" stroke="#63b8ff" d="M159.67,-110.33C155.74,-103.36 150.11,-93.37 145.19,-84.62"/>
<polygon fill="#63b8ff" stroke="#63b8ff" points="148.39,-83.17 140.43,-76.18 142.29,-86.61 148.39,-83.17"/>
</a>
</g>
</g>
<!-- Node6&#45;&gt;Node2 -->
<g id="edge7_Node000006_Node000002" class="edge">
<title>Node6&#45;&gt;Node2</title>
<g id="a_edge7_Node000006_Node000002"><a xlink:title=" ">
<path fill="none" stroke="#63b8ff" d="M120.71,-54.84C108.46,-46.89 90.37,-35.14 75.91,-25.75"/>
<polygon fill="#63b8ff" stroke="#63b8ff" points="78.17,-23.04 67.87,-20.53 74.35,-28.91 78.17,-23.04"/>
</a>
</g>
</g>
</g>
</svg>
