<?xml version="1.0" encoding="UTF-8" standalone="no"?>
<!DOCTYPE svg PUBLIC "-//W3C//DTD SVG 1.1//EN"
 "http://www.w3.org/Graphics/SVG/1.1/DTD/svg11.dtd">
<!-- Generated by graphviz version 2.43.0 (0)
 -->
<!-- Title: include/sprite.h Pages: 1 -->
<svg width="1051pt" height="140pt"
 viewBox="0.00 0.00 1050.50 140.00" xmlns="http://www.w3.org/2000/svg" xmlns:xlink="http://www.w3.org/1999/xlink">
<g id="graph0" class="graph" transform="scale(1 1) rotate(0) translate(4 136)">
<title>include/sprite.h</title>
<!-- Node1 -->
<g id="node1" class="node">
<title>Node1</title>
<g id="a_node1"><a xlink:title=" ">
<polygon fill="#bfbfbf" stroke="black" points="402.5,-112.5 402.5,-131.5 494.5,-131.5 494.5,-112.5 402.5,-112.5"/>
<text text-anchor="middle" x="448.5" y="-119.5" font-family="Helvetica,sans-Serif" font-size="10.00">include/sprite.h</text>
</a>
</g>
</g>
<!-- Node2 -->
<g id="node2" class="node">
<title>Node2</title>
<g id="a_node2"><a xlink:href="metasprite_8h.html" target="_top" xlink:title=" ">
<polygon fill="none" stroke="black" points="221,-56.5 221,-75.5 338,-75.5 338,-56.5 221,-56.5"/>
<text text-anchor="middle" x="279.5" y="-63.5" font-family="Helvetica,sans-Serif" font-size="10.00">include/metasprite.h</text>
</a>
</g>
</g>
<!-- Node1&#45;&gt;Node2 -->
<g id="edge1" class="edge">
<title>Node1&#45;&gt;Node2</title>
<path fill="none" stroke="midnightblue" d="M411.9,-109.3C380.05,-99.13 334.66,-84.62 306.15,-75.52"/>
<polygon fill="midnightblue" stroke="midnightblue" points="411.13,-112.73 421.72,-112.44 413.26,-106.07 411.13,-112.73"/>
</g>
<!-- Node3 -->
<g id="node3" class="node">
<title>Node3</title>
<g id="a_node3"><a xlink:href="msx_8h.html" target="_top" xlink:title=" ">
<polygon fill="none" stroke="black" points="0,-0.5 0,-19.5 85,-19.5 85,-0.5 0,-0.5"/>
<text text-anchor="middle" x="42.5" y="-7.5" font-family="Helvetica,sans-Serif" font-size="10.00">include/msx.h</text>
</a>
</g>
</g>
<!-- Node1&#45;&gt;Node3 -->
<g id="edge6" class="edge">
<title>Node1&#45;&gt;Node3</title>
<path fill="none" stroke="midnightblue" d="M392.08,-114.86C339.82,-108.27 260.33,-95.98 193.5,-76 142.64,-60.79 85.97,-33.37 58.79,-19.51"/>
<polygon fill="midnightblue" stroke="midnightblue" points="391.8,-118.35 402.15,-116.1 392.65,-111.4 391.8,-118.35"/>
</g>
<!-- Node4 -->
<g id="node4" class="node">
<title>Node4</title>
<g id="a_node4"><a xlink:href="vmem__set__metasprite__a_8c.html" target="_top" xlink:title=" ">
<polygon fill="none" stroke="black" points="103.5,-0.5 103.5,-19.5 267.5,-19.5 267.5,-0.5 103.5,-0.5"/>
<text text-anchor="middle" x="185.5" y="-7.5" font-family="Helvetica,sans-Serif" font-size="10.00">src/vmem_set_metasprite_a.c</text>
</a>
</g>
</g>
<!-- Node1&#45;&gt;Node4 -->
<g id="edge12" class="edge">
<title>Node1&#45;&gt;Node4</title>
<path fill="none" stroke="midnightblue" d="M392.1,-116.51C330.96,-110.59 238.47,-98.21 211.5,-76 194.05,-61.63 188.23,-33.83 186.35,-19.7"/>
<polygon fill="midnightblue" stroke="midnightblue" points="392.1,-120.02 402.38,-117.47 392.75,-113.06 392.1,-120.02"/>
</g>
<!-- Node5 -->
<g id="node5" class="node">
<title>Node5</title>
<g id="a_node5"><a xlink:href="vmem__set__metasprite__m_8c.html" target="_top" xlink:title=" ">
<polygon fill="none" stroke="black" points="286,-0.5 286,-19.5 453,-19.5 453,-0.5 286,-0.5"/>
<text text-anchor="middle" x="369.5" y="-7.5" font-family="Helvetica,sans-Serif" font-size="10.00">src/vmem_set_metasprite_m.c</text>
</a>
</g>
</g>
<!-- Node1&#45;&gt;Node5 -->
<g id="edge13" class="edge">
<title>Node1&#45;&gt;Node5</title>
<path fill="none" stroke="midnightblue" d="M424.32,-107.06C412.65,-99.25 399.31,-88.55 390.5,-76 378.11,-58.33 372.72,-32.93 370.64,-19.72"/>
<polygon fill="midnightblue" stroke="midnightblue" points="422.49,-110.05 432.81,-112.45 426.24,-104.14 422.49,-110.05"/>
</g>
<!-- Node6 -->
<g id="node6" class="node">
<title>Node6</title>
<g id="a_node6"><a xlink:href="vmem__set__metasprite__s_8c.html" target="_top" xlink:title=" ">
<polygon fill="none" stroke="black" points="471,-0.5 471,-19.5 634,-19.5 634,-0.5 471,-0.5"/>
<text text-anchor="middle" x="552.5" y="-7.5" font-family="Helvetica,sans-Serif" font-size="10.00">src/vmem_set_metasprite_s.c</text>
</a>
</g>
</g>
<!-- Node1&#45;&gt;Node6 -->
<g id="edge14" class="edge">
<title>Node1&#45;&gt;Node6</title>
<path fill="none" stroke="midnightblue" d="M434.06,-104.17C424.01,-90.32 414.12,-70.65 424.5,-56 437.98,-36.97 460.18,-25.93 482.33,-19.54"/>
<polygon fill="midnightblue" stroke="midnightblue" points="431.54,-106.63 440.47,-112.32 437.04,-102.3 431.54,-106.63"/>
</g>
<!-- Node7 -->
<g id="node7" class="node">
<title>Node7</title>
<g id="a_node7"><a xlink:href="sprite__set__color_8c.html" target="_top" xlink:title=" ">
<polygon fill="none" stroke="black" points="433,-56.5 433,-75.5 552,-75.5 552,-56.5 433,-56.5"/>
<text text-anchor="middle" x="492.5" y="-63.5" font-family="Helvetica,sans-Serif" font-size="10.00">src/sprite_set_color.c</text>
</a>
</g>
</g>
<!-- Node1&#45;&gt;Node7 -->
<g id="edge7" class="edge">
<title>Node1&#45;&gt;Node7</title>
<path fill="none" stroke="midnightblue" d="M462.23,-104.14C469.9,-94.74 479.13,-83.4 485.37,-75.75"/>
<polygon fill="midnightblue" stroke="midnightblue" points="459.37,-102.12 455.77,-112.08 464.8,-106.54 459.37,-102.12"/>
</g>
<!-- Node8 -->
<g id="node8" class="node">
<title>Node8</title>
<g id="a_node8"><a xlink:href="sprite__set__pat_8c.html" target="_top" xlink:title=" ">
<polygon fill="none" stroke="black" points="570,-56.5 570,-75.5 681,-75.5 681,-56.5 570,-56.5"/>
<text text-anchor="middle" x="625.5" y="-63.5" font-family="Helvetica,sans-Serif" font-size="10.00">src/sprite_set_pat.c</text>
</a>
</g>
</g>
<!-- Node1&#45;&gt;Node8 -->
<g id="edge8" class="edge">
<title>Node1&#45;&gt;Node8</title>
<path fill="none" stroke="midnightblue" d="M486.4,-109.44C519.78,-99.26 567.6,-84.66 597.59,-75.52"/>
<polygon fill="midnightblue" stroke="midnightblue" points="485.09,-106.18 476.55,-112.44 487.13,-112.87 485.09,-106.18"/>
</g>
<!-- Node9 -->
<g id="node9" class="node">
<title>Node9</title>
<g id="a_node9"><a xlink:href="sprite__set__x_8c.html" target="_top" xlink:title=" ">
<polygon fill="none" stroke="black" points="699,-56.5 699,-75.5 800,-75.5 800,-56.5 699,-56.5"/>
<text text-anchor="middle" x="749.5" y="-63.5" font-family="Helvetica,sans-Serif" font-size="10.00">src/sprite_set_x.c</text>
</a>
</g>
</g>
<!-- Node1&#45;&gt;Node9 -->
<g id="edge9" class="edge">
<title>Node1&#45;&gt;Node9</title>
<path fill="none" stroke="midnightblue" d="M504.44,-110.96C561.28,-100.77 648.37,-85.14 701.97,-75.53"/>
<polygon fill="midnightblue" stroke="midnightblue" points="503.77,-107.53 494.54,-112.74 505,-114.42 503.77,-107.53"/>
</g>
<!-- Node10 -->
<g id="node10" class="node">
<title>Node10</title>
<g id="a_node10"><a xlink:href="sprite__set__xy_8c.html" target="_top" xlink:title=" ">
<polygon fill="none" stroke="black" points="818.5,-56.5 818.5,-75.5 924.5,-75.5 924.5,-56.5 818.5,-56.5"/>
<text text-anchor="middle" x="871.5" y="-63.5" font-family="Helvetica,sans-Serif" font-size="10.00">src/sprite_set_xy.c</text>
</a>
</g>
</g>
<!-- Node1&#45;&gt;Node10 -->
<g id="edge10" class="edge">
<title>Node1&#45;&gt;Node10</title>
<path fill="none" stroke="midnightblue" d="M504.77,-114.34C575.83,-105.85 701.82,-90.53 809.5,-76 812.41,-75.61 815.4,-75.2 818.41,-74.78"/>
<polygon fill="midnightblue" stroke="midnightblue" points="504.21,-110.88 494.7,-115.54 505.04,-117.83 504.21,-110.88"/>
</g>
<!-- Node11 -->
<g id="node11" class="node">
<title>Node11</title>
<g id="a_node11"><a xlink:href="sprite__set__y_8c.html" target="_top" xlink:title=" ">
<polygon fill="none" stroke="black" points="942.5,-56.5 942.5,-75.5 1042.5,-75.5 1042.5,-56.5 942.5,-56.5"/>
<text text-anchor="middle" x="992.5" y="-63.5" font-family="Helvetica,sans-Serif" font-size="10.00">src/sprite_set_y.c</text>
</a>
</g>
</g>
<!-- Node1&#45;&gt;Node11 -->
<g id="edge11" class="edge">
<title>Node1&#45;&gt;Node11</title>
<path fill="none" stroke="midnightblue" d="M504.78,-116.86C595.29,-109.96 778.73,-94.97 933.5,-76 936.38,-75.65 939.34,-75.26 942.32,-74.86"/>
<polygon fill="midnightblue" stroke="midnightblue" points="504.45,-113.37 494.74,-117.62 504.98,-120.35 504.45,-113.37"/>
</g>
<!-- Node2&#45;&gt;Node3 -->
<g id="edge2" class="edge">
<title>Node2&#45;&gt;Node3</title>
<path fill="none" stroke="midnightblue" d="M232.18,-54.22C187.39,-44.01 121.06,-28.9 79.88,-19.52"/>
<polygon fill="midnightblue" stroke="midnightblue" points="231.42,-57.63 241.95,-56.44 232.97,-50.81 231.42,-57.63"/>
</g>
<!-- Node2&#45;&gt;Node4 -->
<g id="edge3" class="edge">
<title>Node2&#45;&gt;Node4</title>
<path fill="none" stroke="midnightblue" d="M255.44,-51.18C238.14,-41.24 215.35,-28.15 200.57,-19.65"/>
<polygon fill="midnightblue" stroke="midnightblue" points="253.98,-54.38 264.4,-56.32 257.47,-48.31 253.98,-54.38"/>
</g>
<!-- Node2&#45;&gt;Node5 -->
<g id="edge4" class="edge">
<title>Node2&#45;&gt;Node5</title>
<path fill="none" stroke="midnightblue" d="M302.54,-51.18C319.1,-41.24 340.92,-28.15 355.08,-19.65"/>
<polygon fill="midnightblue" stroke="midnightblue" points="300.73,-48.18 293.96,-56.32 304.34,-54.18 300.73,-48.18"/>
</g>
<!-- Node2&#45;&gt;Node6 -->
<g id="edge5" class="edge">
<title>Node2&#45;&gt;Node6</title>
<path fill="none" stroke="midnightblue" d="M332.72,-54.47C384.31,-44.27 461.6,-28.98 509.44,-19.52"/>
<polygon fill="midnightblue" stroke="midnightblue" points="331.89,-51.07 322.76,-56.44 333.25,-57.94 331.89,-51.07"/>
</g>
</g>
</svg>
