<?xml version="1.0" encoding="UTF-8" standalone="no"?>
<!DOCTYPE svg PUBLIC "-//W3C//DTD SVG 1.1//EN"
 "http://www.w3.org/Graphics/SVG/1.1/DTD/svg11.dtd">
<!-- Generated by graphviz version 7.0.4 (20221203.1631)
 -->
<!-- Title: include/sprite.h Pages: 1 -->
<svg width="276pt" height="137pt"
 viewBox="0.00 0.00 276.00 137.00" xmlns="http://www.w3.org/2000/svg" xmlns:xlink="http://www.w3.org/1999/xlink">
<g id="graph0" class="graph" transform="scale(1 1) rotate(0) translate(4 133)">
<title>include/sprite.h</title>
<!-- Node1 -->
<g id="node1" class="node">
<title>Node1</title>
<g id="a_node1"><a xlink:title="Sprites.">
<polygon fill="#999999" stroke="#666666" points="173,-129 91,-129 91,-110 173,-110 173,-129"/>
<text text-anchor="middle" x="132" y="-117" font-family="Helvetica,sans-Serif" font-size="10.00">include/sprite.h</text>
</a>
</g>
</g>
<!-- Node2 -->
<g id="node2" class="node">
<title>Node2</title>
<g id="a_node2"><a xlink:href="metasprite_8h.html" target="_top" xlink:title="Meta&#45;sprite ; an aggregate of sprites.">
<polygon fill="white" stroke="#666666" points="104,-74 0,-74 0,-55 104,-55 104,-74"/>
<text text-anchor="middle" x="52" y="-62" font-family="Helvetica,sans-Serif" font-size="10.00">include/metasprite.h</text>
</a>
</g>
</g>
<!-- Node1&#45;&gt;Node2 -->
<g id="edge1" class="edge">
<title>Node1&#45;&gt;Node2</title>
<path fill="none" stroke="#63b8ff" d="M108.89,-103.19C94.77,-93.84 77.22,-82.21 65.37,-74.36"/>
<polygon fill="#63b8ff" stroke="#63b8ff" points="106.9,-106.07 117.17,-108.67 110.76,-100.23 106.9,-106.07"/>
</g>
<!-- Node3 -->
<g id="node3" class="node">
<title>Node3</title>
<g id="a_node3"><a xlink:href="msx_8h.html" target="_top" xlink:title="Using #include &lt;msx.h&gt; includes almost all C header files in libmsx, for ease to use.">
<polygon fill="white" stroke="#666666" points="170,-19 94,-19 94,0 170,0 170,-19"/>
<text text-anchor="middle" x="132" y="-7" font-family="Helvetica,sans-Serif" font-size="10.00">include/msx.h</text>
</a>
</g>
</g>
<!-- Node1&#45;&gt;Node3 -->
<g id="edge3" class="edge">
<title>Node1&#45;&gt;Node3</title>
<path fill="none" stroke="#63b8ff" d="M132,-98.24C132,-74.63 132,-36.65 132,-19.46"/>
<polygon fill="#63b8ff" stroke="#63b8ff" points="128.5,-98.15 132,-108.15 135.5,-98.15 128.5,-98.15"/>
</g>
<!-- Node4 -->
<g id="node4" class="node">
<title>Node4</title>
<g id="a_node4"><a xlink:href="sprite__color_8h.html" target="_top" xlink:title="Sprite color table interface.">
<polygon fill="white" stroke="#666666" points="268,-74 160,-74 160,-55 268,-55 268,-74"/>
<text text-anchor="middle" x="214" y="-62" font-family="Helvetica,sans-Serif" font-size="10.00">include/sprite_color.h</text>
</a>
</g>
</g>
<!-- Node1&#45;&gt;Node4 -->
<g id="edge4" class="edge">
<title>Node1&#45;&gt;Node4</title>
<path fill="none" stroke="#63b8ff" d="M155.27,-103.46C169.81,-94.06 188.04,-82.28 200.3,-74.36"/>
<polygon fill="#63b8ff" stroke="#63b8ff" points="153.68,-100.32 147.18,-108.69 157.48,-106.2 153.68,-100.32"/>
</g>
<!-- Node2&#45;&gt;Node3 -->
<g id="edge2" class="edge">
<title>Node2&#45;&gt;Node3</title>
<path fill="none" stroke="#63b8ff" d="M75.11,-48.19C89.23,-38.84 106.78,-27.21 118.63,-19.36"/>
<polygon fill="#63b8ff" stroke="#63b8ff" points="73.24,-45.23 66.83,-53.67 77.1,-51.07 73.24,-45.23"/>
</g>
<!-- Node4&#45;&gt;Node3 -->
<g id="edge5" class="edge">
<title>Node4&#45;&gt;Node3</title>
<path fill="none" stroke="#63b8ff" d="M190.73,-48.46C176.19,-39.06 157.96,-27.28 145.7,-19.36"/>
<polygon fill="#63b8ff" stroke="#63b8ff" points="188.52,-51.2 198.82,-53.69 192.32,-45.32 188.52,-51.2"/>
</g>
</g>
</svg>
