<?xml version="1.0" encoding="UTF-8" standalone="no"?>
<!DOCTYPE svg PUBLIC "-//W3C//DTD SVG 1.1//EN"
 "http://www.w3.org/Graphics/SVG/1.1/DTD/svg11.dtd">
<!-- Generated by graphviz version 9.0.0 (20230911.1827)
 -->
<!-- Title: include/sprite_color.h Pages: 1 -->
<svg width="213pt" height="304pt"
 viewBox="0.00 0.00 213.25 303.50" xmlns="http://www.w3.org/2000/svg" xmlns:xlink="http://www.w3.org/1999/xlink">
<g id="graph0" class="graph" transform="scale(1 1) rotate(0) translate(4 299.5)">
<title>include/sprite_color.h</title>
<!-- Node1 -->
<g id="Node000001" class="node">
<title>Node1</title>
<g id="a_Node000001"><a xlink:title="Sprite color table interface.">
<polygon fill="#999999" stroke="#666666" points="107.5,-295.5 0,-295.5 0,-276.25 107.5,-276.25 107.5,-295.5"/>
<text text-anchor="middle" x="53.75" y="-282" font-family="Helvetica,sans-Serif" font-size="10.00">include/sprite_color.h</text>
</a>
</g>
</g>
<!-- Node2 -->
<g id="Node000002" class="node">
<title>Node2</title>
<g id="a_Node000002"><a xlink:title=" ">
<polygon fill="#e0e0e0" stroke="#999999" points="82.5,-19.25 35,-19.25 35,0 82.5,0 82.5,-19.25"/>
<text text-anchor="middle" x="58.75" y="-5.75" font-family="Helvetica,sans-Serif" font-size="10.00">stdint.h</text>
</a>
</g>
</g>
<!-- Node1&#45;&gt;Node2 -->
<g id="edge1_Node000001_Node000002" class="edge">
<title>Node1&#45;&gt;Node2</title>
<g id="a_edge1_Node000001_Node000002"><a xlink:title=" ">
<path fill="none" stroke="#63b8ff" d="M45.65,-275.92C38.25,-267.33 27.46,-253.7 20.75,-240.25 7.52,-213.75 1.75,-205.99 1.75,-176.38 1.75,-176.38 1.75,-176.38 1.75,-119.12 1.75,-83.67 25.89,-48.41 42.76,-28.1"/>
<polygon fill="#63b8ff" stroke="#63b8ff" points="45.19,-30.63 49.1,-20.79 39.91,-26.05 45.19,-30.63"/>
</a>
</g>
</g>
<!-- Node3 -->
<g id="Node000003" class="node">
<title>Node3</title>
<g id="a_Node000003"><a xlink:href="sprite_8h.html" target="_top" xlink:title="Sprites.">
<polygon fill="white" stroke="#666666" points="77.5,-240.25 30,-240.25 30,-221 77.5,-221 77.5,-240.25"/>
<text text-anchor="middle" x="53.75" y="-226.75" font-family="Helvetica,sans-Serif" font-size="10.00">sprite.h</text>
</a>
</g>
</g>
<!-- Node1&#45;&gt;Node3 -->
<g id="edge2_Node000001_Node000003" class="edge">
<title>Node1&#45;&gt;Node3</title>
<g id="a_edge2_Node000001_Node000003"><a xlink:title=" ">
<path fill="none" stroke="#63b8ff" d="M53.75,-276.08C53.75,-269.57 53.75,-260.42 53.75,-252.12"/>
<polygon fill="#63b8ff" stroke="#63b8ff" points="57.25,-252.12 53.75,-242.12 50.25,-252.12 57.25,-252.12"/>
</a>
</g>
</g>
<!-- Node4 -->
<g id="Node000004" class="node">
<title>Node4</title>
<g id="a_Node000004"><a xlink:href="vmem_8h.html" target="_top" xlink:title="Data types and functions for VRAM access.">
<polygon fill="white" stroke="#666666" points="131,-185 80.5,-185 80.5,-165.75 131,-165.75 131,-185"/>
<text text-anchor="middle" x="105.75" y="-171.5" font-family="Helvetica,sans-Serif" font-size="10.00">vmem.h</text>
</a>
</g>
</g>
<!-- Node1&#45;&gt;Node4 -->
<g id="edge10_Node000001_Node000004" class="edge">
<title>Node1&#45;&gt;Node4</title>
<g id="a_edge10_Node000001_Node000004"><a xlink:title=" ">
<path fill="none" stroke="#63b8ff" d="M61.85,-275.92C69.25,-267.33 80.04,-253.7 86.75,-240.25 93.72,-226.29 98.62,-209.3 101.7,-196.36"/>
<polygon fill="#63b8ff" stroke="#63b8ff" points="105.05,-197.42 103.77,-186.9 98.21,-195.92 105.05,-197.42"/>
</a>
</g>
</g>
<!-- Node3&#45;&gt;Node2 -->
<g id="edge3_Node000003_Node000002" class="edge">
<title>Node3&#45;&gt;Node2</title>
<g id="a_edge3_Node000003_Node000002"><a xlink:title=" ">
<path fill="none" stroke="#63b8ff" d="M53.95,-220.77C54.69,-188.51 57.24,-76.76 58.29,-30.71"/>
<polygon fill="#63b8ff" stroke="#63b8ff" points="61.79,-30.94 58.52,-20.86 54.79,-30.78 61.79,-30.94"/>
</a>
</g>
</g>
<!-- Node3&#45;&gt;Node4 -->
<g id="edge4_Node000003_Node000004" class="edge">
<title>Node3&#45;&gt;Node4</title>
<g id="a_edge4_Node000003_Node000004"><a xlink:title=" ">
<path fill="none" stroke="#63b8ff" d="M62.34,-220.83C69.59,-213.4 80.2,-202.54 89.12,-193.41"/>
<polygon fill="#63b8ff" stroke="#63b8ff" points="91.44,-196.04 95.92,-186.44 86.43,-191.15 91.44,-196.04"/>
</a>
</g>
</g>
<!-- Node4&#45;&gt;Node2 -->
<g id="edge5_Node000004_Node000002" class="edge">
<title>Node4&#45;&gt;Node2</title>
<g id="a_edge5_Node000004_Node000002"><a xlink:title=" ">
<path fill="none" stroke="#63b8ff" d="M103.22,-165.57C95.92,-140.14 74.67,-66.1 64.42,-30.37"/>
<polygon fill="#63b8ff" stroke="#63b8ff" points="67.83,-29.57 61.71,-20.93 61.1,-31.5 67.83,-29.57"/>
</a>
</g>
</g>
<!-- Node5 -->
<g id="Node000005" class="node">
<title>Node5</title>
<g id="a_Node000005"><a xlink:title=" ">
<polygon fill="#e0e0e0" stroke="#999999" points="156,-129.75 105.5,-129.75 105.5,-110.5 156,-110.5 156,-129.75"/>
<text text-anchor="middle" x="130.75" y="-116.25" font-family="Helvetica,sans-Serif" font-size="10.00">stddef.h</text>
</a>
</g>
</g>
<!-- Node4&#45;&gt;Node5 -->
<g id="edge6_Node000004_Node000005" class="edge">
<title>Node4&#45;&gt;Node5</title>
<g id="a_edge6_Node000004_Node000005"><a xlink:title=" ">
<path fill="none" stroke="#63b8ff" d="M109.88,-165.58C113.08,-158.76 117.64,-149.06 121.68,-140.45"/>
<polygon fill="#63b8ff" stroke="#63b8ff" points="124.81,-142.02 125.89,-131.48 118.47,-139.04 124.81,-142.02"/>
</a>
</g>
</g>
<!-- Node6 -->
<g id="Node000006" class="node">
<title>Node6</title>
<g id="a_Node000006"><a xlink:href="io_8h.html" target="_top" xlink:title="Definition of I/O ports.">
<polygon fill="white" stroke="#666666" points="205.25,-129.75 174.25,-129.75 174.25,-110.5 205.25,-110.5 205.25,-129.75"/>
<text text-anchor="middle" x="189.75" y="-116.25" font-family="Helvetica,sans-Serif" font-size="10.00">io.h</text>
</a>
</g>
</g>
<!-- Node4&#45;&gt;Node6 -->
<g id="edge7_Node000004_Node000006" class="edge">
<title>Node4&#45;&gt;Node6</title>
<g id="a_edge7_Node000004_Node000006"><a xlink:title=" ">
<path fill="none" stroke="#63b8ff" d="M120,-165.34C132.55,-157.39 151.08,-145.64 165.89,-136.25"/>
<polygon fill="#63b8ff" stroke="#63b8ff" points="167.58,-139.32 174.15,-131.01 163.83,-133.41 167.58,-139.32"/>
</a>
</g>
</g>
<!-- Node7 -->
<g id="Node000007" class="node">
<title>Node7</title>
<g id="a_Node000007"><a xlink:href="config_8h.html" target="_top" xlink:title="Hack for C Compiler portability.">
<polygon fill="white" stroke="#666666" points="184.25,-74.5 135.25,-74.5 135.25,-55.25 184.25,-55.25 184.25,-74.5"/>
<text text-anchor="middle" x="159.75" y="-61" font-family="Helvetica,sans-Serif" font-size="10.00">config.h</text>
</a>
</g>
</g>
<!-- Node6&#45;&gt;Node7 -->
<g id="edge8_Node000006_Node000007" class="edge">
<title>Node6&#45;&gt;Node7</title>
<g id="a_edge8_Node000006_Node000007"><a xlink:title=" ">
<path fill="none" stroke="#63b8ff" d="M184.8,-110.33C180.87,-103.36 175.24,-93.37 170.31,-84.62"/>
<polygon fill="#63b8ff" stroke="#63b8ff" points="173.51,-83.17 165.55,-76.18 167.41,-86.61 173.51,-83.17"/>
</a>
</g>
</g>
<!-- Node7&#45;&gt;Node2 -->
<g id="edge9_Node000007_Node000002" class="edge">
<title>Node7&#45;&gt;Node2</title>
<g id="a_edge9_Node000007_Node000002"><a xlink:title=" ">
<path fill="none" stroke="#63b8ff" d="M142.62,-54.84C127.09,-46.66 103.95,-34.46 85.91,-24.94"/>
<polygon fill="#63b8ff" stroke="#63b8ff" points="87.78,-21.98 77.31,-20.41 84.52,-28.17 87.78,-21.98"/>
</a>
</g>
</g>
</g>
</svg>
