<?xml version="1.0" encoding="UTF-8" standalone="no"?>
<!DOCTYPE svg PUBLIC "-//W3C//DTD SVG 1.1//EN"
 "http://www.w3.org/Graphics/SVG/1.1/DTD/svg11.dtd">
<!-- Generated by graphviz version 3.0.0 (20220413.0106)
 -->
<!-- Title: include/sprite.h Pages: 1 -->
<svg width="1146pt" height="151pt"
 viewBox="0.00 0.00 1145.50 151.00" xmlns="http://www.w3.org/2000/svg" xmlns:xlink="http://www.w3.org/1999/xlink">
<g id="graph0" class="graph" transform="scale(1 1) rotate(0) translate(4 147)">
<title>include/sprite.h</title>
<!-- Node1 -->
<g id="node1" class="node">
<title>Node1</title>
<g id="a_node1"><a xlink:title="Copyright (c) 2021 Daishi Mori (mori0091)">
<polygon fill="#bfbfbf" stroke="black" points="458,-123.5 458,-142.5 540,-142.5 540,-123.5 458,-123.5"/>
<text text-anchor="middle" x="499" y="-130.5" font-family="Helvetica,sans-Serif" font-size="10.00">include/sprite.h</text>
</a>
</g>
</g>
<!-- Node2 -->
<g id="node2" class="node">
<title>Node2</title>
<g id="a_node2"><a xlink:href="metasprite_8h.html" target="_top" xlink:title="Copyright (c) 2021 Daishi Mori (mori0091)">
<polygon fill="none" stroke="black" points="247,-67.5 247,-86.5 351,-86.5 351,-67.5 247,-67.5"/>
<text text-anchor="middle" x="299" y="-74.5" font-family="Helvetica,sans-Serif" font-size="10.00">include/metasprite.h</text>
</a>
</g>
</g>
<!-- Node1&#45;&gt;Node2 -->
<g id="edge1" class="edge">
<title>Node1&#45;&gt;Node2</title>
<path fill="none" stroke="midnightblue" d="M457.63,-120.83C419.86,-110.63 364.86,-95.78 330.54,-86.52"/>
<polygon fill="midnightblue" stroke="midnightblue" points="456.74,-124.22 467.31,-123.44 458.57,-117.46 456.74,-124.22"/>
</g>
<!-- Node3 -->
<g id="node3" class="node">
<title>Node3</title>
<g id="a_node3"><a xlink:href="msx_8h.html" target="_top" xlink:title="Copyright (c) 2021 Daishi Mori (mori0091)">
<polygon fill="none" stroke="black" points="166,-6 166,-25 242,-25 242,-6 166,-6"/>
<text text-anchor="middle" x="204" y="-13" font-family="Helvetica,sans-Serif" font-size="10.00">include/msx.h</text>
</a>
</g>
</g>
<!-- Node1&#45;&gt;Node3 -->
<g id="edge6" class="edge">
<title>Node1&#45;&gt;Node3</title>
<path fill="none" stroke="midnightblue" d="M447.48,-128.67C381.06,-123.44 270.24,-111.31 238,-87 217.39,-71.46 208.64,-40.15 205.5,-25.04"/>
<polygon fill="midnightblue" stroke="midnightblue" points="447.51,-132.18 457.74,-129.44 448.04,-125.2 447.51,-132.18"/>
</g>
<!-- Node4 -->
<g id="node4" class="node">
<title>Node4</title>
<g id="a_node4"><a xlink:href="vmem__set__metasprite__a_8c.html" target="_top" xlink:title="Copyright (c) 2021 Daishi Mori (mori0091)">
<polygon fill="none" stroke="black" points="0,-6 0,-25 148,-25 148,-6 0,-6"/>
<text text-anchor="middle" x="74" y="-13" font-family="Helvetica,sans-Serif" font-size="10.00">src/vmem_set_metasprite_a.c</text>
</a>
</g>
</g>
<!-- Node1&#45;&gt;Node4 -->
<g id="edge19" class="edge">
<title>Node1&#45;&gt;Node4</title>
<path fill="none" stroke="midnightblue" d="M447.41,-128.34C390.23,-123.24 295.81,-111.67 218,-87 167.85,-71.1 113.26,-40.25 88.12,-25.19"/>
<polygon fill="midnightblue" stroke="midnightblue" points="447.37,-131.85 457.64,-129.22 447.97,-124.88 447.37,-131.85"/>
</g>
<!-- Node5 -->
<g id="node5" class="node">
<title>Node5</title>
<g id="a_node5"><a xlink:href="vmem__set__metasprite__m_8c.html" target="_top" xlink:title="Copyright (c) 2021 Daishi Mori (mori0091)">
<polygon fill="none" stroke="black" points="260.5,-6 260.5,-25 411.5,-25 411.5,-6 260.5,-6"/>
<text text-anchor="middle" x="336" y="-13" font-family="Helvetica,sans-Serif" font-size="10.00">src/vmem_set_metasprite_m.c</text>
</a>
</g>
</g>
<!-- Node1&#45;&gt;Node5 -->
<g id="edge20" class="edge">
<title>Node1&#45;&gt;Node5</title>
<path fill="none" stroke="midnightblue" d="M476.01,-117.85C462.2,-109.2 444.39,-97.76 429,-87 398.44,-65.64 363.77,-38.57 346.68,-25.03"/>
<polygon fill="midnightblue" stroke="midnightblue" points="474.51,-121.03 484.84,-123.35 478.21,-115.09 474.51,-121.03"/>
</g>
<!-- Node6 -->
<g id="node6" class="node">
<title>Node6</title>
<g id="a_node6"><a xlink:href="vmem__set__metasprite__s_8c.html" target="_top" xlink:title="Copyright (c) 2021 Daishi Mori (mori0091)">
<polygon fill="none" stroke="black" points="430,-6 430,-25 578,-25 578,-6 430,-6"/>
<text text-anchor="middle" x="504" y="-13" font-family="Helvetica,sans-Serif" font-size="10.00">src/vmem_set_metasprite_s.c</text>
</a>
</g>
</g>
<!-- Node1&#45;&gt;Node6 -->
<g id="edge21" class="edge">
<title>Node1&#45;&gt;Node6</title>
<path fill="none" stroke="midnightblue" d="M470.31,-118.75C449.01,-106.88 425.37,-88.13 436,-67 445.98,-47.16 467.84,-33.16 484.1,-25.01"/>
<polygon fill="midnightblue" stroke="midnightblue" points="468.7,-121.86 479.18,-123.4 471.95,-115.66 468.7,-121.86"/>
</g>
<!-- Node7 -->
<g id="node7" class="node">
<title>Node7</title>
<g id="a_node7"><a xlink:href="sprite__color_8h.html" target="_top" xlink:title="Copyright (c) 2021 Daishi Mori (mori0091)">
<polygon fill="none" stroke="black" points="445,-67.5 445,-86.5 553,-86.5 553,-67.5 445,-67.5"/>
<text text-anchor="middle" x="499" y="-74.5" font-family="Helvetica,sans-Serif" font-size="10.00">include/sprite_color.h</text>
</a>
</g>
</g>
<!-- Node1&#45;&gt;Node7 -->
<g id="edge7" class="edge">
<title>Node1&#45;&gt;Node7</title>
<path fill="none" stroke="midnightblue" d="M499,-112.8C499,-103.91 499,-93.78 499,-86.75"/>
<polygon fill="midnightblue" stroke="midnightblue" points="495.5,-113.08 499,-123.08 502.5,-113.08 495.5,-113.08"/>
</g>
<!-- Node11 -->
<g id="node11" class="node">
<title>Node11</title>
<g id="a_node11"><a xlink:href="sprite__set__color_8c.html" target="_top" xlink:title="Copyright (c) 2021 Daishi Mori (mori0091)">
<polygon fill="none" stroke="black" points="571,-67.5 571,-86.5 681,-86.5 681,-67.5 571,-67.5"/>
<text text-anchor="middle" x="626" y="-74.5" font-family="Helvetica,sans-Serif" font-size="10.00">src/sprite_set_color.c</text>
</a>
</g>
</g>
<!-- Node1&#45;&gt;Node11 -->
<g id="edge14" class="edge">
<title>Node1&#45;&gt;Node11</title>
<path fill="none" stroke="midnightblue" d="M528.39,-119.5C552.2,-109.38 585.11,-95.39 605.97,-86.52"/>
<polygon fill="midnightblue" stroke="midnightblue" points="526.96,-116.31 519.12,-123.44 529.7,-122.75 526.96,-116.31"/>
</g>
<!-- Node12 -->
<g id="node12" class="node">
<title>Node12</title>
<g id="a_node12"><a xlink:href="sprite__set__pat_8c.html" target="_top" xlink:title="Copyright (c) 2021 Daishi Mori (mori0091)">
<polygon fill="none" stroke="black" points="699,-67.5 699,-86.5 801,-86.5 801,-67.5 699,-67.5"/>
<text text-anchor="middle" x="750" y="-74.5" font-family="Helvetica,sans-Serif" font-size="10.00">src/sprite_set_pat.c</text>
</a>
</g>
</g>
<!-- Node1&#45;&gt;Node12 -->
<g id="edge15" class="edge">
<title>Node1&#45;&gt;Node12</title>
<path fill="none" stroke="midnightblue" d="M548.82,-121.28C596.25,-111.08 666.7,-95.92 710.41,-86.52"/>
<polygon fill="midnightblue" stroke="midnightblue" points="547.81,-117.92 538.77,-123.44 549.28,-124.76 547.81,-117.92"/>
</g>
<!-- Node13 -->
<g id="node13" class="node">
<title>Node13</title>
<g id="a_node13"><a xlink:href="sprite__set__x_8c.html" target="_top" xlink:title="Copyright (c) 2021 Daishi Mori (mori0091)">
<polygon fill="none" stroke="black" points="818.5,-67.5 818.5,-86.5 911.5,-86.5 911.5,-67.5 818.5,-67.5"/>
<text text-anchor="middle" x="865" y="-74.5" font-family="Helvetica,sans-Serif" font-size="10.00">src/sprite_set_x.c</text>
</a>
</g>
</g>
<!-- Node1&#45;&gt;Node13 -->
<g id="edge16" class="edge">
<title>Node1&#45;&gt;Node13</title>
<path fill="none" stroke="midnightblue" d="M550.54,-124.84C612.26,-116.2 718.76,-101.06 810,-87 812.77,-86.57 815.62,-86.13 818.5,-85.67"/>
<polygon fill="midnightblue" stroke="midnightblue" points="549.71,-121.42 540.29,-126.27 550.68,-128.35 549.71,-121.42"/>
</g>
<!-- Node14 -->
<g id="node14" class="node">
<title>Node14</title>
<g id="a_node14"><a xlink:href="sprite__set__xy_8c.html" target="_top" xlink:title="Copyright (c) 2021 Daishi Mori (mori0091)">
<polygon fill="none" stroke="black" points="929,-67.5 929,-86.5 1027,-86.5 1027,-67.5 929,-67.5"/>
<text text-anchor="middle" x="978" y="-74.5" font-family="Helvetica,sans-Serif" font-size="10.00">src/sprite_set_xy.c</text>
</a>
</g>
</g>
<!-- Node1&#45;&gt;Node14 -->
<g id="edge17" class="edge">
<title>Node1&#45;&gt;Node14</title>
<path fill="none" stroke="midnightblue" d="M550.35,-127.37C629.89,-120 787.66,-104.63 921,-87 923.58,-86.66 926.23,-86.29 928.9,-85.91"/>
<polygon fill="midnightblue" stroke="midnightblue" points="549.75,-123.91 540.12,-128.31 550.39,-130.88 549.75,-123.91"/>
</g>
<!-- Node15 -->
<g id="node15" class="node">
<title>Node15</title>
<g id="a_node15"><a xlink:href="sprite__set__y_8c.html" target="_top" xlink:title="Copyright (c) 2021 Daishi Mori (mori0091)">
<polygon fill="none" stroke="black" points="1044.5,-67.5 1044.5,-86.5 1137.5,-86.5 1137.5,-67.5 1044.5,-67.5"/>
<text text-anchor="middle" x="1091" y="-74.5" font-family="Helvetica,sans-Serif" font-size="10.00">src/sprite_set_y.c</text>
</a>
</g>
</g>
<!-- Node1&#45;&gt;Node15 -->
<g id="edge18" class="edge">
<title>Node1&#45;&gt;Node15</title>
<path fill="none" stroke="midnightblue" d="M550.2,-129.05C645.86,-123.25 858.17,-108.97 1036,-87 1038.69,-86.67 1041.45,-86.3 1044.23,-85.91"/>
<polygon fill="midnightblue" stroke="midnightblue" points="549.98,-125.56 540.21,-129.65 550.4,-132.55 549.98,-125.56"/>
</g>
<!-- Node2&#45;&gt;Node3 -->
<g id="edge2" class="edge">
<title>Node2&#45;&gt;Node3</title>
<path fill="none" stroke="midnightblue" d="M276.79,-62.09C258.45,-50.6 233.02,-34.68 217.59,-25.01"/>
<polygon fill="midnightblue" stroke="midnightblue" points="275.06,-65.13 285.39,-67.48 278.77,-59.2 275.06,-65.13"/>
</g>
<!-- Node2&#45;&gt;Node4 -->
<g id="edge3" class="edge">
<title>Node2&#45;&gt;Node4</title>
<path fill="none" stroke="midnightblue" d="M257.01,-64.9C213.31,-53.34 145.83,-35.5 106.18,-25.01"/>
<polygon fill="midnightblue" stroke="midnightblue" points="256.2,-68.3 266.76,-67.48 257.99,-61.53 256.2,-68.3"/>
</g>
<!-- Node2&#45;&gt;Node5 -->
<g id="edge4" class="edge">
<title>Node2&#45;&gt;Node5</title>
<path fill="none" stroke="midnightblue" d="M309.78,-58.67C316.66,-47.61 325.27,-33.75 330.71,-25.01"/>
<polygon fill="midnightblue" stroke="midnightblue" points="306.61,-57.13 304.3,-67.48 312.55,-60.83 306.61,-57.13"/>
</g>
<!-- Node2&#45;&gt;Node6 -->
<g id="edge5" class="edge">
<title>Node2&#45;&gt;Node6</title>
<path fill="none" stroke="midnightblue" d="M338.02,-64.68C377.85,-53.11 438.78,-35.43 474.68,-25.01"/>
<polygon fill="midnightblue" stroke="midnightblue" points="337,-61.33 328.37,-67.48 338.95,-68.05 337,-61.33"/>
</g>
<!-- Node7&#45;&gt;Node3 -->
<g id="edge8" class="edge">
<title>Node7&#45;&gt;Node3</title>
<path fill="none" stroke="midnightblue" d="M434.82,-66.52C384.49,-58.56 312.84,-46.09 251,-31 244.03,-29.3 236.58,-27.15 229.7,-25.04"/>
<polygon fill="midnightblue" stroke="midnightblue" points="434.49,-70.01 444.91,-68.1 435.57,-63.09 434.49,-70.01"/>
</g>
<!-- Node7&#45;&gt;Node5 -->
<g id="edge9" class="edge">
<title>Node7&#45;&gt;Node5</title>
<path fill="none" stroke="midnightblue" d="M465.94,-63.93C434.26,-52.37 387.25,-35.21 359.31,-25.01"/>
<polygon fill="midnightblue" stroke="midnightblue" points="465.05,-67.33 475.65,-67.48 467.45,-60.76 465.05,-67.33"/>
</g>
<!-- Node7&#45;&gt;Node6 -->
<g id="edge10" class="edge">
<title>Node7&#45;&gt;Node6</title>
<path fill="none" stroke="midnightblue" d="M500.57,-57.32C501.48,-46.5 502.58,-33.4 503.28,-25.01"/>
<polygon fill="midnightblue" stroke="midnightblue" points="497.07,-57.22 499.72,-67.48 504.04,-57.8 497.07,-57.22"/>
</g>
<!-- Node8 -->
<g id="node8" class="node">
<title>Node8</title>
<g id="a_node8"><a xlink:href="vmem__set__sprite__color_8c.html" target="_top" xlink:title="Copyright (c) 2021 Daishi Mori (mori0091)">
<polygon fill="none" stroke="black" points="596,-0.5 596,-30.5 704,-30.5 704,-0.5 596,-0.5"/>
<text text-anchor="start" x="604" y="-18.5" font-family="Helvetica,sans-Serif" font-size="10.00">src/vmem_set_sprite</text>
<text text-anchor="middle" x="650" y="-7.5" font-family="Helvetica,sans-Serif" font-size="10.00">_color.c</text>
</a>
</g>
</g>
<!-- Node7&#45;&gt;Node8 -->
<g id="edge11" class="edge">
<title>Node7&#45;&gt;Node8</title>
<path fill="none" stroke="midnightblue" d="M530.17,-63.72C554.67,-54.06 588.83,-40.6 614.41,-30.52"/>
<polygon fill="midnightblue" stroke="midnightblue" points="528.66,-60.55 520.63,-67.48 531.22,-67.07 528.66,-60.55"/>
</g>
<!-- Node9 -->
<g id="node9" class="node">
<title>Node9</title>
<g id="a_node9"><a xlink:href="vmem__set__sprite__color__m_8c.html" target="_top" xlink:title="Copyright (c) 2021 Daishi Mori (mori0091)">
<polygon fill="none" stroke="black" points="722,-0.5 722,-30.5 830,-30.5 830,-0.5 722,-0.5"/>
<text text-anchor="start" x="730" y="-18.5" font-family="Helvetica,sans-Serif" font-size="10.00">src/vmem_set_sprite</text>
<text text-anchor="middle" x="776" y="-7.5" font-family="Helvetica,sans-Serif" font-size="10.00">_color_m.c</text>
</a>
</g>
</g>
<!-- Node7&#45;&gt;Node9 -->
<g id="edge12" class="edge">
<title>Node7&#45;&gt;Node9</title>
<path fill="none" stroke="midnightblue" d="M550.91,-65.37C594.28,-56.42 657.74,-43.17 713,-31 715.85,-30.37 718.77,-29.72 721.72,-29.06"/>
<polygon fill="midnightblue" stroke="midnightblue" points="549.96,-61.99 540.88,-67.44 551.38,-68.85 549.96,-61.99"/>
</g>
<!-- Node10 -->
<g id="node10" class="node">
<title>Node10</title>
<g id="a_node10"><a xlink:href="vmem__set__sprite__color__s_8c.html" target="_top" xlink:title="Copyright (c) 2021 Daishi Mori (mori0091)">
<polygon fill="none" stroke="black" points="848,-0.5 848,-30.5 956,-30.5 956,-0.5 848,-0.5"/>
<text text-anchor="start" x="856" y="-18.5" font-family="Helvetica,sans-Serif" font-size="10.00">src/vmem_set_sprite</text>
<text text-anchor="middle" x="902" y="-7.5" font-family="Helvetica,sans-Serif" font-size="10.00">_color_s.c</text>
</a>
</g>
</g>
<!-- Node7&#45;&gt;Node10 -->
<g id="edge13" class="edge">
<title>Node7&#45;&gt;Node10</title>
<path fill="none" stroke="midnightblue" d="M563.5,-66.82C686.75,-50.35 720.03,-52.37 839,-31 841.87,-30.48 844.81,-29.92 847.77,-29.33"/>
<polygon fill="midnightblue" stroke="midnightblue" points="562.73,-63.39 553.29,-68.2 563.67,-70.33 562.73,-63.39"/>
</g>
</g>
</svg>
