<?xml version="1.0" encoding="UTF-8" standalone="no"?>
<!DOCTYPE svg PUBLIC "-//W3C//DTD SVG 1.1//EN"
 "http://www.w3.org/Graphics/SVG/1.1/DTD/svg11.dtd">
<!-- Generated by graphviz version 2.43.0 (0)
 -->
<!-- Title: include/sprite_color.h Pages: 1 -->
<svg width="146pt" height="196pt"
 viewBox="0.00 0.00 145.50 196.00" xmlns="http://www.w3.org/2000/svg" xmlns:xlink="http://www.w3.org/1999/xlink">
<g id="graph0" class="graph" transform="scale(1 1) rotate(0) translate(4 192)">
<title>include/sprite_color.h</title>
<!-- Node1 -->
<g id="node1" class="node">
<title>Node1</title>
<g id="a_node1"><a xlink:title=" ">
<polygon fill="#bfbfbf" stroke="black" points="0,-168.5 0,-187.5 120,-187.5 120,-168.5 0,-168.5"/>
<text text-anchor="middle" x="60" y="-175.5" font-family="Helvetica,sans-Serif" font-size="10.00">include/sprite_color.h</text>
</a>
</g>
</g>
<!-- Node2 -->
<g id="node2" class="node">
<title>Node2</title>
<g id="a_node2"><a xlink:title=" ">
<polygon fill="none" stroke="#bfbfbf" points="21.5,-0.5 21.5,-19.5 74.5,-19.5 74.5,-0.5 21.5,-0.5"/>
<text text-anchor="middle" x="48" y="-7.5" font-family="Helvetica,sans-Serif" font-size="10.00">stdint.h</text>
</a>
</g>
</g>
<!-- Node1&#45;&gt;Node2 -->
<g id="edge1" class="edge">
<title>Node1&#45;&gt;Node2</title>
<path fill="none" stroke="midnightblue" d="M49.84,-168.19C41.09,-159.87 29.1,-146.54 24,-132 11.59,-96.62 27.38,-53.03 38.6,-29.02"/>
<polygon fill="midnightblue" stroke="midnightblue" points="41.9,-30.25 43.18,-19.73 35.62,-27.15 41.9,-30.25"/>
</g>
<!-- Node3 -->
<g id="node3" class="node">
<title>Node3</title>
<g id="a_node3"><a xlink:href="sprite_8h.html" target="_top" xlink:title=" ">
<polygon fill="none" stroke="black" points="33.5,-112.5 33.5,-131.5 86.5,-131.5 86.5,-112.5 33.5,-112.5"/>
<text text-anchor="middle" x="60" y="-119.5" font-family="Helvetica,sans-Serif" font-size="10.00">sprite.h</text>
</a>
</g>
</g>
<!-- Node1&#45;&gt;Node3 -->
<g id="edge2" class="edge">
<title>Node1&#45;&gt;Node3</title>
<path fill="none" stroke="midnightblue" d="M60,-168.08C60,-161.01 60,-150.86 60,-141.99"/>
<polygon fill="midnightblue" stroke="midnightblue" points="63.5,-141.75 60,-131.75 56.5,-141.75 63.5,-141.75"/>
</g>
<!-- Node4 -->
<g id="node4" class="node">
<title>Node4</title>
<g id="a_node4"><a xlink:href="vmem_8h.html" target="_top" xlink:title=" ">
<polygon fill="none" stroke="black" points="80.5,-56.5 80.5,-75.5 137.5,-75.5 137.5,-56.5 80.5,-56.5"/>
<text text-anchor="middle" x="109" y="-63.5" font-family="Helvetica,sans-Serif" font-size="10.00">vmem.h</text>
</a>
</g>
</g>
<!-- Node1&#45;&gt;Node4 -->
<g id="edge7" class="edge">
<title>Node1&#45;&gt;Node4</title>
<path fill="none" stroke="midnightblue" d="M68.55,-168.5C76.61,-159.99 88.39,-146.17 95,-132 101.86,-117.29 105.41,-99.13 107.21,-85.74"/>
<polygon fill="midnightblue" stroke="midnightblue" points="110.69,-86.14 108.35,-75.81 103.74,-85.34 110.69,-86.14"/>
</g>
<!-- Node3&#45;&gt;Node2 -->
<g id="edge3" class="edge">
<title>Node3&#45;&gt;Node2</title>
<path fill="none" stroke="midnightblue" d="M59.06,-112.37C57.12,-94.62 52.65,-53.67 50.03,-29.6"/>
<polygon fill="midnightblue" stroke="midnightblue" points="53.5,-29.15 48.94,-19.59 46.54,-29.91 53.5,-29.15"/>
</g>
<!-- Node3&#45;&gt;Node4 -->
<g id="edge4" class="edge">
<title>Node3&#45;&gt;Node4</title>
<path fill="none" stroke="midnightblue" d="M68.09,-112.08C75.16,-104.3 85.59,-92.8 94.15,-83.37"/>
<polygon fill="midnightblue" stroke="midnightblue" points="96.93,-85.51 101.06,-75.75 91.75,-80.8 96.93,-85.51"/>
</g>
<!-- Node4&#45;&gt;Node2 -->
<g id="edge5" class="edge">
<title>Node4&#45;&gt;Node2</title>
<path fill="none" stroke="midnightblue" d="M99.2,-56.32C90.18,-48.34 76.59,-36.31 65.68,-26.65"/>
<polygon fill="midnightblue" stroke="midnightblue" points="67.79,-23.84 57.98,-19.83 63.15,-29.08 67.79,-23.84"/>
</g>
<!-- Node5 -->
<g id="node5" class="node">
<title>Node5</title>
<g id="a_node5"><a xlink:href="io_8h.html" target="_top" xlink:title=" ">
<polygon fill="none" stroke="black" points="92.5,-0.5 92.5,-19.5 127.5,-19.5 127.5,-0.5 92.5,-0.5"/>
<text text-anchor="middle" x="110" y="-7.5" font-family="Helvetica,sans-Serif" font-size="10.00">io.h</text>
</a>
</g>
</g>
<!-- Node4&#45;&gt;Node5 -->
<g id="edge6" class="edge">
<title>Node4&#45;&gt;Node5</title>
<path fill="none" stroke="midnightblue" d="M109.17,-56.08C109.3,-49.01 109.48,-38.86 109.65,-29.99"/>
<polygon fill="midnightblue" stroke="midnightblue" points="113.15,-29.81 109.84,-19.75 106.15,-29.68 113.15,-29.81"/>
</g>
</g>
</svg>
