<?xml version="1.0" encoding="UTF-8" standalone="no"?>
<!DOCTYPE svg PUBLIC "-//W3C//DTD SVG 1.1//EN"
 "http://www.w3.org/Graphics/SVG/1.1/DTD/svg11.dtd">
<!-- Generated by graphviz version 7.0.5 (20221223.1930)
 -->
<!-- Title: include/sprite.h Pages: 1 -->
<svg width="190pt" height="247pt"
 viewBox="0.00 0.00 190.00 247.00" xmlns="http://www.w3.org/2000/svg" xmlns:xlink="http://www.w3.org/1999/xlink">
<g id="graph0" class="graph" transform="scale(1 1) rotate(0) translate(4 243)">
<title>include/sprite.h</title>
<!-- Node1 -->
<g id="node1" class="node">
<title>Node1</title>
<g id="a_node1"><a xlink:title="Sprites.">
<polygon fill="#999999" stroke="#666666" points="82,-239 0,-239 0,-220 82,-220 82,-239"/>
<text text-anchor="middle" x="41" y="-227" font-family="Helvetica,sans-Serif" font-size="10.00">include/sprite.h</text>
</a>
</g>
</g>
<!-- Node2 -->
<g id="node2" class="node">
<title>Node2</title>
<g id="a_node2"><a xlink:title=" ">
<polygon fill="#e0e0e0" stroke="#999999" points="76,-19 28,-19 28,0 76,0 76,-19"/>
<text text-anchor="middle" x="52" y="-7" font-family="Helvetica,sans-Serif" font-size="10.00">stdint.h</text>
</a>
</g>
</g>
<!-- Node1&#45;&gt;Node2 -->
<g id="edge1" class="edge">
<title>Node1&#45;&gt;Node2</title>
<path fill="none" stroke="#63b8ff" d="M41.44,-219.68C43.07,-187.57 48.68,-76.33 50.99,-30.49"/>
<polygon fill="#63b8ff" stroke="#63b8ff" points="54.48,-30.86 51.49,-20.7 47.49,-30.51 54.48,-30.86"/>
</g>
<!-- Node3 -->
<g id="node3" class="node">
<title>Node3</title>
<g id="a_node3"><a xlink:href="vmem_8h.html" target="_top" xlink:title="Data types and functions for VRAM access.">
<polygon fill="white" stroke="#666666" points="112.5,-184 61.5,-184 61.5,-165 112.5,-165 112.5,-184"/>
<text text-anchor="middle" x="87" y="-172" font-family="Helvetica,sans-Serif" font-size="10.00">vmem.h</text>
</a>
</g>
</g>
<!-- Node1&#45;&gt;Node3 -->
<g id="edge2" class="edge">
<title>Node1&#45;&gt;Node3</title>
<path fill="none" stroke="#63b8ff" d="M48.6,-219.75C54.88,-212.5 64.01,-201.98 71.8,-193.02"/>
<polygon fill="#63b8ff" stroke="#63b8ff" points="74.34,-195.43 78.25,-185.59 69.05,-190.84 74.34,-195.43"/>
</g>
<!-- Node3&#45;&gt;Node2 -->
<g id="edge3" class="edge">
<title>Node3&#45;&gt;Node2</title>
<path fill="none" stroke="#63b8ff" d="M83.32,-164.79C79.71,-155.92 74.28,-141.72 71,-129 62.23,-94.95 56.77,-54.3 54.06,-30.55"/>
<polygon fill="#63b8ff" stroke="#63b8ff" points="57.56,-30.31 53,-20.74 50.6,-31.06 57.56,-30.31"/>
</g>
<!-- Node4 -->
<g id="node4" class="node">
<title>Node4</title>
<g id="a_node4"><a xlink:title=" ">
<polygon fill="#e0e0e0" stroke="#999999" points="131.5,-129 80.5,-129 80.5,-110 131.5,-110 131.5,-129"/>
<text text-anchor="middle" x="106" y="-117" font-family="Helvetica,sans-Serif" font-size="10.00">stddef.h</text>
</a>
</g>
</g>
<!-- Node3&#45;&gt;Node4 -->
<g id="edge4" class="edge">
<title>Node3&#45;&gt;Node4</title>
<path fill="none" stroke="#63b8ff" d="M90.14,-164.75C92.54,-158.04 95.96,-148.52 99,-140.02"/>
<polygon fill="#63b8ff" stroke="#63b8ff" points="102.2,-141.46 102.28,-130.87 95.61,-139.1 102.2,-141.46"/>
</g>
<!-- Node5 -->
<g id="node5" class="node">
<title>Node5</title>
<g id="a_node5"><a xlink:href="io_8h.html" target="_top" xlink:title="Definition of I/O ports.">
<polygon fill="white" stroke="#666666" points="182,-129 150,-129 150,-110 182,-110 182,-129"/>
<text text-anchor="middle" x="166" y="-117" font-family="Helvetica,sans-Serif" font-size="10.00">io.h</text>
</a>
</g>
</g>
<!-- Node3&#45;&gt;Node5 -->
<g id="edge5" class="edge">
<title>Node3&#45;&gt;Node5</title>
<path fill="none" stroke="#63b8ff" d="M100.4,-164.51C112.16,-156.62 129.51,-144.98 143.41,-135.65"/>
<polygon fill="#63b8ff" stroke="#63b8ff" points="145.19,-138.68 151.54,-130.2 141.29,-132.87 145.19,-138.68"/>
</g>
<!-- Node6 -->
<g id="node6" class="node">
<title>Node6</title>
<g id="a_node6"><a xlink:href="config_8h.html" target="_top" xlink:title="Hack for C Compiler portability.">
<polygon fill="white" stroke="#666666" points="160,-74 110,-74 110,-55 160,-55 160,-74"/>
<text text-anchor="middle" x="135" y="-62" font-family="Helvetica,sans-Serif" font-size="10.00">config.h</text>
</a>
</g>
</g>
<!-- Node5&#45;&gt;Node6 -->
<g id="edge6" class="edge">
<title>Node5&#45;&gt;Node6</title>
<path fill="none" stroke="#63b8ff" d="M160.88,-109.75C156.82,-102.81 151.01,-92.86 145.91,-84.16"/>
<polygon fill="#63b8ff" stroke="#63b8ff" points="149.06,-82.61 140.99,-75.75 143.02,-86.15 149.06,-82.61"/>
</g>
<!-- Node6&#45;&gt;Node2 -->
<g id="edge7" class="edge">
<title>Node6&#45;&gt;Node2</title>
<path fill="none" stroke="#63b8ff" d="M120.92,-54.51C108.44,-46.54 89.98,-34.75 75.31,-25.38"/>
<polygon fill="#63b8ff" stroke="#63b8ff" points="77.46,-22.6 67.15,-20.17 73.69,-28.5 77.46,-22.6"/>
</g>
</g>
</svg>
