<?xml version="1.0" encoding="UTF-8" standalone="no"?>
<!DOCTYPE svg PUBLIC "-//W3C//DTD SVG 1.1//EN"
 "http://www.w3.org/Graphics/SVG/1.1/DTD/svg11.dtd">
<!-- Generated by graphviz version 12.2.0 (20241103.1931)
 -->
<!-- Title: include/sprite.h Pages: 1 -->
<svg width="275pt" height="138pt"
 viewBox="0.00 0.00 275.25 137.75" xmlns="http://www.w3.org/2000/svg" xmlns:xlink="http://www.w3.org/1999/xlink">
<g id="graph0" class="graph" transform="scale(1 1) rotate(0) translate(4 133.75)">
<title>include/sprite.h</title>
<!-- Node1 -->
<g id="Node000001" class="node">
<title>Node1</title>
<g id="a_Node000001"><a xlink:title="Sprites.">
<polygon fill="#999999" stroke="#666666" points="172.12,-129.75 90.88,-129.75 90.88,-110.5 172.12,-110.5 172.12,-129.75"/>
<text text-anchor="middle" x="131.5" y="-116.25" font-family="Helvetica,sans-Serif" font-size="10.00">include/sprite.h</text>
</a>
</g>
</g>
<!-- Node2 -->
<g id="Node000002" class="node">
<title>Node2</title>
<g id="a_Node000002"><a xlink:href="metasprite_8h.html" target="_top" xlink:title="Meta&#45;sprite ; an aggregate of sprites.">
<polygon fill="white" stroke="#666666" points="103,-74.5 0,-74.5 0,-55.25 103,-55.25 103,-74.5"/>
<text text-anchor="middle" x="51.5" y="-61" font-family="Helvetica,sans-Serif" font-size="10.00">include/metasprite.h</text>
</a>
</g>
</g>
<!-- Node1&#45;&gt;Node2 -->
<g id="edge1_Node000001_Node000002" class="edge">
<title>Node1&#45;&gt;Node2</title>
<g id="a_edge1_Node000001_Node000002"><a xlink:title=" ">
<path fill="none" stroke="#63b8ff" d="M108.45,-103.78C94.43,-94.45 77,-82.85 65.14,-74.95"/>
<polygon fill="#63b8ff" stroke="#63b8ff" points="106.41,-106.63 116.67,-109.25 110.28,-100.8 106.41,-106.63"/>
</a>
</g>
</g>
<!-- Node3 -->
<g id="Node000003" class="node">
<title>Node3</title>
<g id="a_Node000003"><a xlink:href="msx_8h.html" target="_top" xlink:title="Using #include &lt;msx.h&gt; includes almost all C header files in libmsx, for ease to use.">
<polygon fill="white" stroke="#666666" points="169.12,-19.25 93.88,-19.25 93.88,0 169.12,0 169.12,-19.25"/>
<text text-anchor="middle" x="131.5" y="-5.75" font-family="Helvetica,sans-Serif" font-size="10.00">include/msx.h</text>
</a>
</g>
</g>
<!-- Node1&#45;&gt;Node3 -->
<g id="edge3_Node000001_Node000003" class="edge">
<title>Node1&#45;&gt;Node3</title>
<g id="a_edge3_Node000001_Node000003"><a xlink:title=" ">
<path fill="none" stroke="#63b8ff" d="M131.5,-98.78C131.5,-75.05 131.5,-36.89 131.5,-19.63"/>
<polygon fill="#63b8ff" stroke="#63b8ff" points="128,-98.73 131.5,-108.73 135,-98.73 128,-98.73"/>
</a>
</g>
</g>
<!-- Node4 -->
<g id="Node000004" class="node">
<title>Node4</title>
<g id="a_Node000004"><a xlink:href="sprite__color_8h.html" target="_top" xlink:title="Sprite color table interface.">
<polygon fill="white" stroke="#666666" points="267.25,-74.5 159.75,-74.5 159.75,-55.25 267.25,-55.25 267.25,-74.5"/>
<text text-anchor="middle" x="213.5" y="-61" font-family="Helvetica,sans-Serif" font-size="10.00">include/sprite_color.h</text>
</a>
</g>
</g>
<!-- Node1&#45;&gt;Node4 -->
<g id="edge4_Node000001_Node000004" class="edge">
<title>Node1&#45;&gt;Node4</title>
<g id="a_edge4_Node000001_Node000004"><a xlink:title=" ">
<path fill="none" stroke="#63b8ff" d="M154.71,-104.05C169.15,-94.67 187.25,-82.92 199.52,-74.95"/>
<polygon fill="#63b8ff" stroke="#63b8ff" points="153.16,-100.89 146.68,-109.27 156.97,-106.76 153.16,-100.89"/>
</a>
</g>
</g>
<!-- Node2&#45;&gt;Node3 -->
<g id="edge2_Node000002_Node000003" class="edge">
<title>Node2&#45;&gt;Node3</title>
<g id="a_edge2_Node000002_Node000003"><a xlink:title=" ">
<path fill="none" stroke="#63b8ff" d="M74.55,-48.53C88.57,-39.2 106,-27.6 117.86,-19.7"/>
<polygon fill="#63b8ff" stroke="#63b8ff" points="72.72,-45.55 66.33,-54 76.59,-51.38 72.72,-45.55"/>
</a>
</g>
</g>
<!-- Node4&#45;&gt;Node3 -->
<g id="edge5_Node000004_Node000003" class="edge">
<title>Node4&#45;&gt;Node3</title>
<g id="a_edge5_Node000004_Node000003"><a xlink:title=" ">
<path fill="none" stroke="#63b8ff" d="M190.29,-48.8C175.85,-39.42 157.75,-27.67 145.48,-19.7"/>
<polygon fill="#63b8ff" stroke="#63b8ff" points="188.03,-51.51 198.32,-54.02 191.84,-45.64 188.03,-51.51"/>
</a>
</g>
</g>
</g>
</svg>
