<?xml version="1.0" encoding="UTF-8" standalone="no"?>
<!DOCTYPE svg PUBLIC "-//W3C//DTD SVG 1.1//EN"
 "http://www.w3.org/Graphics/SVG/1.1/DTD/svg11.dtd">
<!-- Generated by graphviz version 2.50.0 (20220203.2022)
 -->
<!-- Title: include/sprite_color.h Pages: 1 -->
<svg width="136pt" height="196pt"
 viewBox="0.00 0.00 135.50 196.00" xmlns="http://www.w3.org/2000/svg" xmlns:xlink="http://www.w3.org/1999/xlink">
<g id="graph0" class="graph" transform="scale(1 1) rotate(0) translate(4 192)">
<title>include/sprite_color.h</title>
<!-- Node1 -->
<g id="node1" class="node">
<title>Node1</title>
<g id="a_node1"><a xlink:title="Copyright (c) 2021 Daishi Mori (mori0091)">
<polygon fill="#bfbfbf" stroke="black" points="0,-168.5 0,-187.5 108,-187.5 108,-168.5 0,-168.5"/>
<text text-anchor="middle" x="54" y="-175.5" font-family="Helvetica,sans-Serif" font-size="10.00">include/sprite_color.h</text>
</a>
</g>
</g>
<!-- Node2 -->
<g id="node2" class="node">
<title>Node2</title>
<g id="a_node2"><a xlink:title=" ">
<polygon fill="none" stroke="#bfbfbf" points="21,-0.5 21,-19.5 69,-19.5 69,-0.5 21,-0.5"/>
<text text-anchor="middle" x="45" y="-7.5" font-family="Helvetica,sans-Serif" font-size="10.00">stdint.h</text>
</a>
</g>
</g>
<!-- Node1&#45;&gt;Node2 -->
<g id="edge1" class="edge">
<title>Node1&#45;&gt;Node2</title>
<path fill="none" stroke="midnightblue" d="M44.98,-168.34C36.93,-159.93 25.7,-146.36 21,-132 9.33,-96.36 24.85,-52.87 35.83,-28.94"/>
<polygon fill="midnightblue" stroke="midnightblue" points="39.1,-30.22 40.3,-19.69 32.8,-27.17 39.1,-30.22"/>
</g>
<!-- Node3 -->
<g id="node3" class="node">
<title>Node3</title>
<g id="a_node3"><a xlink:href="sprite_8h.html" target="_top" xlink:title="Copyright (c) 2021 Daishi Mori (mori0091)">
<polygon fill="none" stroke="black" points="30,-112.5 30,-131.5 78,-131.5 78,-112.5 30,-112.5"/>
<text text-anchor="middle" x="54" y="-119.5" font-family="Helvetica,sans-Serif" font-size="10.00">sprite.h</text>
</a>
</g>
</g>
<!-- Node1&#45;&gt;Node3 -->
<g id="edge2" class="edge">
<title>Node1&#45;&gt;Node3</title>
<path fill="none" stroke="midnightblue" d="M54,-168.08C54,-161.01 54,-150.86 54,-141.99"/>
<polygon fill="midnightblue" stroke="midnightblue" points="57.5,-141.75 54,-131.75 50.5,-141.75 57.5,-141.75"/>
</g>
<!-- Node4 -->
<g id="node4" class="node">
<title>Node4</title>
<g id="a_node4"><a xlink:href="vmem_8h.html" target="_top" xlink:title="Data types and functions for VRAM access.">
<polygon fill="none" stroke="black" points="76.5,-56.5 76.5,-75.5 127.5,-75.5 127.5,-56.5 76.5,-56.5"/>
<text text-anchor="middle" x="102" y="-63.5" font-family="Helvetica,sans-Serif" font-size="10.00">vmem.h</text>
</a>
</g>
</g>
<!-- Node1&#45;&gt;Node4 -->
<g id="edge7" class="edge">
<title>Node1&#45;&gt;Node4</title>
<path fill="none" stroke="midnightblue" d="M62,-168.38C69.55,-159.8 80.62,-145.92 87,-132 93.79,-117.19 97.64,-99.04 99.74,-85.69"/>
<polygon fill="midnightblue" stroke="midnightblue" points="103.21,-86.16 101.12,-75.77 96.27,-85.2 103.21,-86.16"/>
</g>
<!-- Node3&#45;&gt;Node2 -->
<g id="edge3" class="edge">
<title>Node3&#45;&gt;Node2</title>
<path fill="none" stroke="midnightblue" d="M53.29,-112.37C51.84,-94.62 48.49,-53.67 46.52,-29.6"/>
<polygon fill="midnightblue" stroke="midnightblue" points="50.01,-29.27 45.7,-19.59 43.03,-29.84 50.01,-29.27"/>
</g>
<!-- Node3&#45;&gt;Node4 -->
<g id="edge4" class="edge">
<title>Node3&#45;&gt;Node4</title>
<path fill="none" stroke="midnightblue" d="M61.93,-112.08C68.85,-104.3 79.07,-92.8 87.45,-83.37"/>
<polygon fill="midnightblue" stroke="midnightblue" points="90.19,-85.55 94.22,-75.75 84.96,-80.9 90.19,-85.55"/>
</g>
<!-- Node4&#45;&gt;Node2 -->
<g id="edge5" class="edge">
<title>Node4&#45;&gt;Node2</title>
<path fill="none" stroke="midnightblue" d="M92.84,-56.32C84.5,-48.42 71.97,-36.55 61.82,-26.94"/>
<polygon fill="midnightblue" stroke="midnightblue" points="63.99,-24.17 54.32,-19.83 59.18,-29.25 63.99,-24.17"/>
</g>
<!-- Node5 -->
<g id="node5" class="node">
<title>Node5</title>
<g id="a_node5"><a xlink:href="io_8h.html" target="_top" xlink:title="Copyright (c) 2021 Daishi Mori (mori0091)">
<polygon fill="none" stroke="black" points="87,-0.5 87,-19.5 119,-19.5 119,-0.5 87,-0.5"/>
<text text-anchor="middle" x="103" y="-7.5" font-family="Helvetica,sans-Serif" font-size="10.00">io.h</text>
</a>
</g>
</g>
<!-- Node4&#45;&gt;Node5 -->
<g id="edge6" class="edge">
<title>Node4&#45;&gt;Node5</title>
<path fill="none" stroke="midnightblue" d="M102.17,-56.08C102.3,-49.01 102.48,-38.86 102.65,-29.99"/>
<polygon fill="midnightblue" stroke="midnightblue" points="106.15,-29.81 102.84,-19.75 99.15,-29.68 106.15,-29.81"/>
</g>
</g>
</svg>
