<?xml version="1.0" encoding="UTF-8" standalone="no"?>
<!DOCTYPE svg PUBLIC "-//W3C//DTD SVG 1.1//EN"
 "http://www.w3.org/Graphics/SVG/1.1/DTD/svg11.dtd">
<!-- Generated by graphviz version 7.0.5 (20221223.1930)
 -->
<!-- Title: include/sprite_color.h Pages: 1 -->
<svg width="167pt" height="302pt"
 viewBox="0.00 0.00 167.00 302.00" xmlns="http://www.w3.org/2000/svg" xmlns:xlink="http://www.w3.org/1999/xlink">
<g id="graph0" class="graph" transform="scale(1 1) rotate(0) translate(4 298)">
<title>include/sprite_color.h</title>
<!-- Node1 -->
<g id="node1" class="node">
<title>Node1</title>
<g id="a_node1"><a xlink:title="Sprite color table interface.">
<polygon fill="#999999" stroke="#666666" points="108,-294 0,-294 0,-275 108,-275 108,-294"/>
<text text-anchor="middle" x="54" y="-282" font-family="Helvetica,sans-Serif" font-size="10.00">include/sprite_color.h</text>
</a>
</g>
</g>
<!-- Node2 -->
<g id="node2" class="node">
<title>Node2</title>
<g id="a_node2"><a xlink:title=" ">
<polygon fill="#e0e0e0" stroke="#999999" points="86,-19 38,-19 38,0 86,0 86,-19"/>
<text text-anchor="middle" x="62" y="-7" font-family="Helvetica,sans-Serif" font-size="10.00">stdint.h</text>
</a>
</g>
</g>
<!-- Node1&#45;&gt;Node2 -->
<g id="edge1" class="edge">
<title>Node1&#45;&gt;Node2</title>
<path fill="none" stroke="#63b8ff" d="M45.9,-274.58C38.5,-266.01 27.72,-252.42 21,-239 7.81,-212.66 2,-204.96 2,-175.5 2,-175.5 2,-175.5 2,-118.5 2,-82.76 27.42,-47.8 45.16,-27.74"/>
<polygon fill="#63b8ff" stroke="#63b8ff" points="47.64,-30.21 51.86,-20.49 42.5,-25.46 47.64,-30.21"/>
</g>
<!-- Node3 -->
<g id="node3" class="node">
<title>Node3</title>
<g id="a_node3"><a xlink:href="sprite_8h.html" target="_top" xlink:title="Sprites.">
<polygon fill="white" stroke="#666666" points="78,-239 30,-239 30,-220 78,-220 78,-239"/>
<text text-anchor="middle" x="54" y="-227" font-family="Helvetica,sans-Serif" font-size="10.00">sprite.h</text>
</a>
</g>
</g>
<!-- Node1&#45;&gt;Node3 -->
<g id="edge2" class="edge">
<title>Node1&#45;&gt;Node3</title>
<path fill="none" stroke="#63b8ff" d="M54,-274.75C54,-268.27 54,-259.16 54,-250.9"/>
<polygon fill="#63b8ff" stroke="#63b8ff" points="57.5,-250.96 54,-240.96 50.5,-250.96 57.5,-250.96"/>
</g>
<!-- Node4 -->
<g id="node4" class="node">
<title>Node4</title>
<g id="a_node4"><a xlink:href="vmem_8h.html" target="_top" xlink:title="Data types and functions for VRAM access.">
<polygon fill="white" stroke="#666666" points="128.5,-184 77.5,-184 77.5,-165 128.5,-165 128.5,-184"/>
<text text-anchor="middle" x="103" y="-172" font-family="Helvetica,sans-Serif" font-size="10.00">vmem.h</text>
</a>
</g>
</g>
<!-- Node1&#45;&gt;Node4 -->
<g id="edge9" class="edge">
<title>Node1&#45;&gt;Node4</title>
<path fill="none" stroke="#63b8ff" d="M62.23,-274.64C69.73,-266.12 80.58,-252.56 87,-239 93.5,-225.28 97.57,-208.6 99.98,-195.78"/>
<polygon fill="#63b8ff" stroke="#63b8ff" points="103.42,-196.43 101.61,-185.99 96.51,-195.28 103.42,-196.43"/>
</g>
<!-- Node3&#45;&gt;Node2 -->
<g id="edge3" class="edge">
<title>Node3&#45;&gt;Node2</title>
<path fill="none" stroke="#63b8ff" d="M54.32,-219.68C55.5,-187.57 59.58,-76.33 61.27,-30.49"/>
<polygon fill="#63b8ff" stroke="#63b8ff" points="64.76,-30.82 61.63,-20.7 57.76,-30.56 64.76,-30.82"/>
</g>
<!-- Node3&#45;&gt;Node4 -->
<g id="edge4" class="edge">
<title>Node3&#45;&gt;Node4</title>
<path fill="none" stroke="#63b8ff" d="M62.09,-219.75C68.86,-212.43 78.72,-201.76 87.06,-192.74"/>
<polygon fill="#63b8ff" stroke="#63b8ff" points="89.49,-195.27 93.71,-185.55 84.35,-190.52 89.49,-195.27"/>
</g>
<!-- Node4&#45;&gt;Node2 -->
<g id="edge5" class="edge">
<title>Node4&#45;&gt;Node2</title>
<path fill="none" stroke="#63b8ff" d="M100.8,-164.74C94.43,-139.42 75.89,-65.72 66.94,-30.16"/>
<polygon fill="#63b8ff" stroke="#63b8ff" points="70.42,-29.62 64.58,-20.77 63.63,-31.33 70.42,-29.62"/>
</g>
<!-- Node5 -->
<g id="node5" class="node">
<title>Node5</title>
<g id="a_node5"><a xlink:href="io_8h.html" target="_top" xlink:title="Definition of I/O ports.">
<polygon fill="white" stroke="#666666" points="145,-129 113,-129 113,-110 145,-110 145,-129"/>
<text text-anchor="middle" x="129" y="-117" font-family="Helvetica,sans-Serif" font-size="10.00">io.h</text>
</a>
</g>
</g>
<!-- Node4&#45;&gt;Node5 -->
<g id="edge6" class="edge">
<title>Node4&#45;&gt;Node5</title>
<path fill="none" stroke="#63b8ff" d="M107.29,-164.75C110.62,-157.96 115.36,-148.3 119.56,-139.73"/>
<polygon fill="#63b8ff" stroke="#63b8ff" points="122.68,-141.32 123.95,-130.8 116.4,-138.24 122.68,-141.32"/>
</g>
<!-- Node6 -->
<g id="node6" class="node">
<title>Node6</title>
<g id="a_node6"><a xlink:href="config_8h.html" target="_top" xlink:title="Hack for C Compiler portability.">
<polygon fill="white" stroke="#666666" points="159,-74 109,-74 109,-55 159,-55 159,-74"/>
<text text-anchor="middle" x="134" y="-62" font-family="Helvetica,sans-Serif" font-size="10.00">config.h</text>
</a>
</g>
</g>
<!-- Node5&#45;&gt;Node6 -->
<g id="edge7" class="edge">
<title>Node5&#45;&gt;Node6</title>
<path fill="none" stroke="#63b8ff" d="M129.83,-109.75C130.44,-103.27 131.3,-94.16 132.08,-85.9"/>
<polygon fill="#63b8ff" stroke="#63b8ff" points="135.56,-86.23 133.01,-75.95 128.59,-85.58 135.56,-86.23"/>
</g>
<!-- Node6&#45;&gt;Node2 -->
<g id="edge8" class="edge">
<title>Node6&#45;&gt;Node2</title>
<path fill="none" stroke="#63b8ff" d="M121.79,-54.51C111.17,-46.7 95.56,-35.21 82.96,-25.93"/>
<polygon fill="#63b8ff" stroke="#63b8ff" points="85.38,-23.36 75.25,-20.26 81.23,-29 85.38,-23.36"/>
</g>
</g>
</svg>
