<?xml version="1.0" encoding="UTF-8" standalone="no"?>
<!DOCTYPE svg PUBLIC "-//W3C//DTD SVG 1.1//EN"
 "http://www.w3.org/Graphics/SVG/1.1/DTD/svg11.dtd">
<!-- Generated by graphviz version 7.0.5 (20221223.1930)
 -->
<!-- Title: include/sprite.h Pages: 1 -->
<svg width="138pt" height="247pt"
 viewBox="0.00 0.00 138.00 247.00" xmlns="http://www.w3.org/2000/svg" xmlns:xlink="http://www.w3.org/1999/xlink">
<g id="graph0" class="graph" transform="scale(1 1) rotate(0) translate(4 243)">
<title>include/sprite.h</title>
<!-- Node1 -->
<g id="node1" class="node">
<title>Node1</title>
<g id="a_node1"><a xlink:title="Sprites.">
<polygon fill="#999999" stroke="#666666" points="82,-239 0,-239 0,-220 82,-220 82,-239"/>
<text text-anchor="middle" x="41" y="-227" font-family="Helvetica,sans-Serif" font-size="10.00">include/sprite.h</text>
</a>
</g>
</g>
<!-- Node2 -->
<g id="node2" class="node">
<title>Node2</title>
<g id="a_node2"><a xlink:title=" ">
<polygon fill="#e0e0e0" stroke="#999999" points="76,-19 28,-19 28,0 76,0 76,-19"/>
<text text-anchor="middle" x="52" y="-7" font-family="Helvetica,sans-Serif" font-size="10.00">stdint.h</text>
</a>
</g>
</g>
<!-- Node1&#45;&gt;Node2 -->
<g id="edge1" class="edge">
<title>Node1&#45;&gt;Node2</title>
<path fill="none" stroke="#63b8ff" d="M38.94,-219.7C36.96,-210.77 34.12,-196.51 33,-184 28.01,-128.05 40.21,-62.14 47.32,-30.05"/>
<polygon fill="#63b8ff" stroke="#63b8ff" points="50.66,-31.16 49.49,-20.63 43.84,-29.59 50.66,-31.16"/>
</g>
<!-- Node3 -->
<g id="node3" class="node">
<title>Node3</title>
<g id="a_node3"><a xlink:href="vmem_8h.html" target="_top" xlink:title="Data types and functions for VRAM access.">
<polygon fill="white" stroke="#666666" points="93.5,-184 42.5,-184 42.5,-165 93.5,-165 93.5,-184"/>
<text text-anchor="middle" x="68" y="-172" font-family="Helvetica,sans-Serif" font-size="10.00">vmem.h</text>
</a>
</g>
</g>
<!-- Node1&#45;&gt;Node3 -->
<g id="edge2" class="edge">
<title>Node1&#45;&gt;Node3</title>
<path fill="none" stroke="#63b8ff" d="M45.46,-219.75C48.95,-212.88 53.95,-203.08 58.35,-194.45"/>
<polygon fill="#63b8ff" stroke="#63b8ff" points="61.34,-196.29 62.76,-185.79 55.1,-193.11 61.34,-196.29"/>
</g>
<!-- Node3&#45;&gt;Node2 -->
<g id="edge3" class="edge">
<title>Node3&#45;&gt;Node2</title>
<path fill="none" stroke="#63b8ff" d="M67.14,-164.74C64.67,-139.53 57.48,-66.36 53.98,-30.62"/>
<polygon fill="#63b8ff" stroke="#63b8ff" points="57.47,-30.42 53.01,-20.81 50.51,-31.11 57.47,-30.42"/>
</g>
<!-- Node4 -->
<g id="node4" class="node">
<title>Node4</title>
<g id="a_node4"><a xlink:href="io_8h.html" target="_top" xlink:title="Definition of I/O ports.">
<polygon fill="white" stroke="#666666" points="116,-129 84,-129 84,-110 116,-110 116,-129"/>
<text text-anchor="middle" x="100" y="-117" font-family="Helvetica,sans-Serif" font-size="10.00">io.h</text>
</a>
</g>
</g>
<!-- Node3&#45;&gt;Node4 -->
<g id="edge4" class="edge">
<title>Node3&#45;&gt;Node4</title>
<path fill="none" stroke="#63b8ff" d="M73.28,-164.75C77.47,-157.81 83.48,-147.86 88.73,-139.16"/>
<polygon fill="#63b8ff" stroke="#63b8ff" points="91.65,-141.11 93.82,-130.74 85.65,-137.49 91.65,-141.11"/>
</g>
<!-- Node5 -->
<g id="node5" class="node">
<title>Node5</title>
<g id="a_node5"><a xlink:href="config_8h.html" target="_top" xlink:title="Hack for C Compiler portability.">
<polygon fill="white" stroke="#666666" points="130,-74 80,-74 80,-55 130,-55 130,-74"/>
<text text-anchor="middle" x="105" y="-62" font-family="Helvetica,sans-Serif" font-size="10.00">config.h</text>
</a>
</g>
</g>
<!-- Node4&#45;&gt;Node5 -->
<g id="edge5" class="edge">
<title>Node4&#45;&gt;Node5</title>
<path fill="none" stroke="#63b8ff" d="M100.83,-109.75C101.44,-103.27 102.3,-94.16 103.08,-85.9"/>
<polygon fill="#63b8ff" stroke="#63b8ff" points="106.56,-86.23 104.01,-75.95 99.59,-85.58 106.56,-86.23"/>
</g>
<!-- Node5&#45;&gt;Node2 -->
<g id="edge6" class="edge">
<title>Node5&#45;&gt;Node2</title>
<path fill="none" stroke="#63b8ff" d="M96.25,-54.75C88.85,-47.35 78.04,-36.54 68.95,-27.45"/>
<polygon fill="#63b8ff" stroke="#63b8ff" points="71.56,-25.11 62.01,-20.51 66.61,-30.06 71.56,-25.11"/>
</g>
</g>
</svg>
