<?xml version="1.0" encoding="UTF-8" standalone="no"?>
<!DOCTYPE svg PUBLIC "-//W3C//DTD SVG 1.1//EN"
 "http://www.w3.org/Graphics/SVG/1.1/DTD/svg11.dtd">
<!-- Generated by graphviz version 2.43.0 (0)
 -->
<!-- Title: include/sprite_color.h Pages: 1 -->
<svg width="870pt" height="95pt"
 viewBox="0.00 0.00 870.00 95.00" xmlns="http://www.w3.org/2000/svg" xmlns:xlink="http://www.w3.org/1999/xlink">
<g id="graph0" class="graph" transform="scale(1 1) rotate(0) translate(4 91)">
<title>include/sprite_color.h</title>
<!-- Node1 -->
<g id="node1" class="node">
<title>Node1</title>
<g id="a_node1"><a xlink:title=" ">
<polygon fill="#bfbfbf" stroke="black" points="388.5,-67.5 388.5,-86.5 508.5,-86.5 508.5,-67.5 388.5,-67.5"/>
<text text-anchor="middle" x="448.5" y="-74.5" font-family="Helvetica,sans-Serif" font-size="10.00">include/sprite_color.h</text>
</a>
</g>
</g>
<!-- Node2 -->
<g id="node2" class="node">
<title>Node2</title>
<g id="a_node2"><a xlink:href="msx_8h.html" target="_top" xlink:title=" ">
<polygon fill="none" stroke="black" points="0,-6 0,-25 85,-25 85,-6 0,-6"/>
<text text-anchor="middle" x="42.5" y="-13" font-family="Helvetica,sans-Serif" font-size="10.00">include/msx.h</text>
</a>
</g>
</g>
<!-- Node1&#45;&gt;Node2 -->
<g id="edge1" class="edge">
<title>Node1&#45;&gt;Node2</title>
<path fill="none" stroke="midnightblue" d="M378.07,-70.23C306.07,-63.6 191.25,-50.97 93.5,-31 85.65,-29.4 77.25,-27.21 69.57,-25.02"/>
<polygon fill="midnightblue" stroke="midnightblue" points="378.1,-73.75 388.38,-71.17 378.73,-66.78 378.1,-73.75"/>
</g>
<!-- Node3 -->
<g id="node3" class="node">
<title>Node3</title>
<g id="a_node3"><a xlink:href="vmem__set__metasprite__m_8c.html" target="_top" xlink:title=" ">
<polygon fill="none" stroke="black" points="103,-6 103,-25 270,-25 270,-6 103,-6"/>
<text text-anchor="middle" x="186.5" y="-13" font-family="Helvetica,sans-Serif" font-size="10.00">src/vmem_set_metasprite_m.c</text>
</a>
</g>
</g>
<!-- Node1&#45;&gt;Node3 -->
<g id="edge2" class="edge">
<title>Node1&#45;&gt;Node3</title>
<path fill="none" stroke="midnightblue" d="M401.2,-65.26C350.38,-53.72 270.63,-35.61 223.97,-25.01"/>
<polygon fill="midnightblue" stroke="midnightblue" points="400.43,-68.67 410.96,-67.48 401.99,-61.85 400.43,-68.67"/>
</g>
<!-- Node4 -->
<g id="node4" class="node">
<title>Node4</title>
<g id="a_node4"><a xlink:href="vmem__set__metasprite__s_8c.html" target="_top" xlink:title=" ">
<polygon fill="none" stroke="black" points="288,-6 288,-25 451,-25 451,-6 288,-6"/>
<text text-anchor="middle" x="369.5" y="-13" font-family="Helvetica,sans-Serif" font-size="10.00">src/vmem_set_metasprite_s.c</text>
</a>
</g>
</g>
<!-- Node1&#45;&gt;Node4 -->
<g id="edge3" class="edge">
<title>Node1&#45;&gt;Node4</title>
<path fill="none" stroke="midnightblue" d="M428.97,-61.29C413.82,-49.88 393.34,-34.46 380.8,-25.01"/>
<polygon fill="midnightblue" stroke="midnightblue" points="427.09,-64.25 437.18,-67.48 431.3,-58.66 427.09,-64.25"/>
</g>
<!-- Node5 -->
<g id="node5" class="node">
<title>Node5</title>
<g id="a_node5"><a xlink:href="vmem__set__sprite__color_8c.html" target="_top" xlink:title=" ">
<polygon fill="none" stroke="black" points="469,-0.5 469,-30.5 588,-30.5 588,-0.5 469,-0.5"/>
<text text-anchor="start" x="477" y="-18.5" font-family="Helvetica,sans-Serif" font-size="10.00">src/vmem_set_sprite</text>
<text text-anchor="middle" x="528.5" y="-7.5" font-family="Helvetica,sans-Serif" font-size="10.00">_color.c</text>
</a>
</g>
</g>
<!-- Node1&#45;&gt;Node5 -->
<g id="edge4" class="edge">
<title>Node1&#45;&gt;Node5</title>
<path fill="none" stroke="midnightblue" d="M468.04,-61.47C480.71,-52.05 497.12,-39.84 509.65,-30.52"/>
<polygon fill="midnightblue" stroke="midnightblue" points="465.9,-58.7 459.96,-67.48 470.07,-64.32 465.9,-58.7"/>
</g>
<!-- Node6 -->
<g id="node6" class="node">
<title>Node6</title>
<g id="a_node6"><a xlink:href="vmem__set__sprite__color__m_8c.html" target="_top" xlink:title=" ">
<polygon fill="none" stroke="black" points="606,-0.5 606,-30.5 725,-30.5 725,-0.5 606,-0.5"/>
<text text-anchor="start" x="614" y="-18.5" font-family="Helvetica,sans-Serif" font-size="10.00">src/vmem_set_sprite</text>
<text text-anchor="middle" x="665.5" y="-7.5" font-family="Helvetica,sans-Serif" font-size="10.00">_color_m.c</text>
</a>
</g>
</g>
<!-- Node1&#45;&gt;Node6 -->
<g id="edge5" class="edge">
<title>Node1&#45;&gt;Node6</title>
<path fill="none" stroke="midnightblue" d="M489.59,-64.73C525,-55.02 576.29,-40.96 614.36,-30.52"/>
<polygon fill="midnightblue" stroke="midnightblue" points="488.31,-61.46 479.59,-67.48 490.16,-68.21 488.31,-61.46"/>
</g>
<!-- Node7 -->
<g id="node7" class="node">
<title>Node7</title>
<g id="a_node7"><a xlink:href="vmem__set__sprite__color__s_8c.html" target="_top" xlink:title=" ">
<polygon fill="none" stroke="black" points="743,-0.5 743,-30.5 862,-30.5 862,-0.5 743,-0.5"/>
<text text-anchor="start" x="751" y="-18.5" font-family="Helvetica,sans-Serif" font-size="10.00">src/vmem_set_sprite</text>
<text text-anchor="middle" x="802.5" y="-7.5" font-family="Helvetica,sans-Serif" font-size="10.00">_color_s.c</text>
</a>
</g>
</g>
<!-- Node1&#45;&gt;Node7 -->
<g id="edge6" class="edge">
<title>Node1&#45;&gt;Node7</title>
<path fill="none" stroke="midnightblue" d="M518.8,-66.02C576.8,-57.53 661.18,-44.57 734.5,-31 737.23,-30.49 740.02,-29.96 742.83,-29.41"/>
<polygon fill="midnightblue" stroke="midnightblue" points="518.03,-62.6 508.64,-67.5 519.04,-69.52 518.03,-62.6"/>
</g>
</g>
</svg>
