<?xml version="1.0" encoding="UTF-8" standalone="no"?>
<!DOCTYPE svg PUBLIC "-//W3C//DTD SVG 1.1//EN"
 "http://www.w3.org/Graphics/SVG/1.1/DTD/svg11.dtd">
<!-- Generated by graphviz version 7.0.5 (20221223.1930)
 -->
<!-- Title: include/sprite_color.h Pages: 1 -->
<svg width="216pt" height="302pt"
 viewBox="0.00 0.00 216.00 302.00" xmlns="http://www.w3.org/2000/svg" xmlns:xlink="http://www.w3.org/1999/xlink">
<g id="graph0" class="graph" transform="scale(1 1) rotate(0) translate(4 298)">
<title>include/sprite_color.h</title>
<!-- Node1 -->
<g id="node1" class="node">
<title>Node1</title>
<g id="a_node1"><a xlink:title="Sprite color table interface.">
<polygon fill="#999999" stroke="#666666" points="108,-294 0,-294 0,-275 108,-275 108,-294"/>
<text text-anchor="middle" x="54" y="-282" font-family="Helvetica,sans-Serif" font-size="10.00">include/sprite_color.h</text>
</a>
</g>
</g>
<!-- Node2 -->
<g id="node2" class="node">
<title>Node2</title>
<g id="a_node2"><a xlink:title=" ">
<polygon fill="#e0e0e0" stroke="#999999" points="83,-19 35,-19 35,0 83,0 83,-19"/>
<text text-anchor="middle" x="59" y="-7" font-family="Helvetica,sans-Serif" font-size="10.00">stdint.h</text>
</a>
</g>
</g>
<!-- Node1&#45;&gt;Node2 -->
<g id="edge1" class="edge">
<title>Node1&#45;&gt;Node2</title>
<path fill="none" stroke="#63b8ff" d="M45.9,-274.58C38.5,-266.01 27.72,-252.42 21,-239 7.81,-212.66 2,-204.96 2,-175.5 2,-175.5 2,-175.5 2,-118.5 2,-83.18 26.14,-48.09 43.01,-27.89"/>
<polygon fill="#63b8ff" stroke="#63b8ff" points="45.42,-30.45 49.35,-20.61 40.14,-25.85 45.42,-30.45"/>
</g>
<!-- Node3 -->
<g id="node3" class="node">
<title>Node3</title>
<g id="a_node3"><a xlink:href="sprite_8h.html" target="_top" xlink:title="Sprites.">
<polygon fill="white" stroke="#666666" points="78,-239 30,-239 30,-220 78,-220 78,-239"/>
<text text-anchor="middle" x="54" y="-227" font-family="Helvetica,sans-Serif" font-size="10.00">sprite.h</text>
</a>
</g>
</g>
<!-- Node1&#45;&gt;Node3 -->
<g id="edge2" class="edge">
<title>Node1&#45;&gt;Node3</title>
<path fill="none" stroke="#63b8ff" d="M54,-274.75C54,-268.27 54,-259.16 54,-250.9"/>
<polygon fill="#63b8ff" stroke="#63b8ff" points="57.5,-250.96 54,-240.96 50.5,-250.96 57.5,-250.96"/>
</g>
<!-- Node4 -->
<g id="node4" class="node">
<title>Node4</title>
<g id="a_node4"><a xlink:href="vmem_8h.html" target="_top" xlink:title="Data types and functions for VRAM access.">
<polygon fill="white" stroke="#666666" points="131.5,-184 80.5,-184 80.5,-165 131.5,-165 131.5,-184"/>
<text text-anchor="middle" x="106" y="-172" font-family="Helvetica,sans-Serif" font-size="10.00">vmem.h</text>
</a>
</g>
</g>
<!-- Node1&#45;&gt;Node4 -->
<g id="edge10" class="edge">
<title>Node1&#45;&gt;Node4</title>
<path fill="none" stroke="#63b8ff" d="M62.1,-274.58C69.5,-266.01 80.28,-252.42 87,-239 93.95,-225.12 98.85,-208.24 101.93,-195.37"/>
<polygon fill="#63b8ff" stroke="#63b8ff" points="105.27,-196.49 104.01,-185.97 98.44,-194.98 105.27,-196.49"/>
</g>
<!-- Node3&#45;&gt;Node2 -->
<g id="edge3" class="edge">
<title>Node3&#45;&gt;Node2</title>
<path fill="none" stroke="#63b8ff" d="M54.2,-219.68C54.94,-187.57 57.49,-76.33 58.54,-30.49"/>
<polygon fill="#63b8ff" stroke="#63b8ff" points="62.04,-30.78 58.77,-20.7 55.04,-30.62 62.04,-30.78"/>
</g>
<!-- Node3&#45;&gt;Node4 -->
<g id="edge4" class="edge">
<title>Node3&#45;&gt;Node4</title>
<path fill="none" stroke="#63b8ff" d="M62.59,-219.75C69.84,-212.35 80.45,-201.54 89.37,-192.45"/>
<polygon fill="#63b8ff" stroke="#63b8ff" points="91.66,-195.11 96.17,-185.52 86.66,-190.21 91.66,-195.11"/>
</g>
<!-- Node4&#45;&gt;Node2 -->
<g id="edge5" class="edge">
<title>Node4&#45;&gt;Node2</title>
<path fill="none" stroke="#63b8ff" d="M103.47,-164.74C96.17,-139.42 74.92,-65.72 64.67,-30.16"/>
<polygon fill="#63b8ff" stroke="#63b8ff" points="68.09,-29.4 61.96,-20.76 61.37,-31.34 68.09,-29.4"/>
</g>
<!-- Node5 -->
<g id="node5" class="node">
<title>Node5</title>
<g id="a_node5"><a xlink:title=" ">
<polygon fill="#e0e0e0" stroke="#999999" points="157.5,-129 106.5,-129 106.5,-110 157.5,-110 157.5,-129"/>
<text text-anchor="middle" x="132" y="-117" font-family="Helvetica,sans-Serif" font-size="10.00">stddef.h</text>
</a>
</g>
</g>
<!-- Node4&#45;&gt;Node5 -->
<g id="edge6" class="edge">
<title>Node4&#45;&gt;Node5</title>
<path fill="none" stroke="#63b8ff" d="M110.29,-164.75C113.62,-157.96 118.36,-148.3 122.56,-139.73"/>
<polygon fill="#63b8ff" stroke="#63b8ff" points="125.68,-141.32 126.95,-130.8 119.4,-138.24 125.68,-141.32"/>
</g>
<!-- Node6 -->
<g id="node6" class="node">
<title>Node6</title>
<g id="a_node6"><a xlink:href="io_8h.html" target="_top" xlink:title="Definition of I/O ports.">
<polygon fill="white" stroke="#666666" points="208,-129 176,-129 176,-110 208,-110 208,-129"/>
<text text-anchor="middle" x="192" y="-117" font-family="Helvetica,sans-Serif" font-size="10.00">io.h</text>
</a>
</g>
</g>
<!-- Node4&#45;&gt;Node6 -->
<g id="edge7" class="edge">
<title>Node4&#45;&gt;Node6</title>
<path fill="none" stroke="#63b8ff" d="M120.59,-164.51C133.52,-156.54 152.64,-144.75 167.85,-135.38"/>
<polygon fill="#63b8ff" stroke="#63b8ff" points="169.66,-138.38 176.34,-130.15 165.99,-132.42 169.66,-138.38"/>
</g>
<!-- Node7 -->
<g id="node7" class="node">
<title>Node7</title>
<g id="a_node7"><a xlink:href="config_8h.html" target="_top" xlink:title="Hack for C Compiler portability.">
<polygon fill="white" stroke="#666666" points="186,-74 136,-74 136,-55 186,-55 186,-74"/>
<text text-anchor="middle" x="161" y="-62" font-family="Helvetica,sans-Serif" font-size="10.00">config.h</text>
</a>
</g>
</g>
<!-- Node6&#45;&gt;Node7 -->
<g id="edge8" class="edge">
<title>Node6&#45;&gt;Node7</title>
<path fill="none" stroke="#63b8ff" d="M186.88,-109.75C182.82,-102.81 177.01,-92.86 171.91,-84.16"/>
<polygon fill="#63b8ff" stroke="#63b8ff" points="175.06,-82.61 166.99,-75.75 169.02,-86.15 175.06,-82.61"/>
</g>
<!-- Node7&#45;&gt;Node2 -->
<g id="edge9" class="edge">
<title>Node7&#45;&gt;Node2</title>
<path fill="none" stroke="#63b8ff" d="M143.7,-54.51C127.92,-46.31 104.36,-34.07 86.09,-24.58"/>
<polygon fill="#63b8ff" stroke="#63b8ff" points="87.88,-21.56 77.39,-20.06 84.65,-27.77 87.88,-21.56"/>
</g>
</g>
</svg>
