<?xml version="1.0" encoding="UTF-8" standalone="no"?>
<!DOCTYPE svg PUBLIC "-//W3C//DTD SVG 1.1//EN"
 "http://www.w3.org/Graphics/SVG/1.1/DTD/svg11.dtd">
<!-- Generated by graphviz version 12.2.0 (20241103.1931)
 -->
<!-- Title: include/sprite_color.h Pages: 1 -->
<svg width="194pt" height="138pt"
 viewBox="0.00 0.00 193.75 137.75" xmlns="http://www.w3.org/2000/svg" xmlns:xlink="http://www.w3.org/1999/xlink">
<g id="graph0" class="graph" transform="scale(1 1) rotate(0) translate(4 133.75)">
<title>include/sprite_color.h</title>
<!-- Node1 -->
<g id="Node000001" class="node">
<title>Node1</title>
<g id="a_Node000001"><a xlink:title="Sprite color table interface.">
<polygon fill="#999999" stroke="#666666" points="138.38,-129.75 30.88,-129.75 30.88,-110.5 138.38,-110.5 138.38,-129.75"/>
<text text-anchor="middle" x="84.62" y="-116.25" font-family="Helvetica,sans-Serif" font-size="10.00">include/sprite_color.h</text>
</a>
</g>
</g>
<!-- Node2 -->
<g id="Node000002" class="node">
<title>Node2</title>
<g id="a_Node000002"><a xlink:href="msx_8h.html" target="_top" xlink:title="Using #include &lt;msx.h&gt; includes almost all C header files in libmsx, for ease to use.">
<polygon fill="white" stroke="#666666" points="75.25,-74.5 0,-74.5 0,-55.25 75.25,-55.25 75.25,-74.5"/>
<text text-anchor="middle" x="37.62" y="-61" font-family="Helvetica,sans-Serif" font-size="10.00">include/msx.h</text>
</a>
</g>
</g>
<!-- Node1&#45;&gt;Node2 -->
<g id="edge1_Node000001_Node000002" class="edge">
<title>Node1&#45;&gt;Node2</title>
<g id="a_edge1_Node000001_Node000002"><a xlink:title=" ">
<path fill="none" stroke="#63b8ff" d="M69.3,-101.76C61.37,-92.78 52.03,-82.2 45.55,-74.86"/>
<polygon fill="#63b8ff" stroke="#63b8ff" points="66.62,-104.02 75.86,-109.2 71.87,-99.38 66.62,-104.02"/>
</a>
</g>
</g>
<!-- Node3 -->
<g id="Node000003" class="node">
<title>Node3</title>
<g id="a_Node000003"><a xlink:href="sm2_8h.html" target="_top" xlink:title="SM2 (Sprite Mode 2) Animated Color Sprites.">
<polygon fill="white" stroke="#666666" points="169.62,-74.5 93.62,-74.5 93.62,-55.25 169.62,-55.25 169.62,-74.5"/>
<text text-anchor="middle" x="131.62" y="-61" font-family="Helvetica,sans-Serif" font-size="10.00">include/sm2.h</text>
</a>
</g>
</g>
<!-- Node1&#45;&gt;Node3 -->
<g id="edge2_Node000001_Node000003" class="edge">
<title>Node1&#45;&gt;Node3</title>
<g id="a_edge2_Node000001_Node000003"><a xlink:title=" ">
<path fill="none" stroke="#63b8ff" d="M99.95,-101.76C107.88,-92.78 117.22,-82.2 123.7,-74.86"/>
<polygon fill="#63b8ff" stroke="#63b8ff" points="97.38,-99.38 93.39,-109.2 102.63,-104.02 97.38,-99.38"/>
</a>
</g>
</g>
<!-- Node4 -->
<g id="Node000004" class="node">
<title>Node4</title>
<g id="a_Node000004"><a xlink:href="sm2__bmem_8h.html" target="_top" xlink:title="SM2 (Sprite Mode 2) internal APIs for BMEM / Resources.">
<polygon fill="white" stroke="#666666" points="185.75,-19.25 77.5,-19.25 77.5,0 185.75,0 185.75,-19.25"/>
<text text-anchor="middle" x="131.62" y="-5.75" font-family="Helvetica,sans-Serif" font-size="10.00">include/sm2_bmem.h</text>
</a>
</g>
</g>
<!-- Node3&#45;&gt;Node4 -->
<g id="edge3_Node000003_Node000004" class="edge">
<title>Node3&#45;&gt;Node4</title>
<g id="a_edge3_Node000003_Node000004"><a xlink:title=" ">
<path fill="none" stroke="#63b8ff" d="M131.62,-43.63C131.62,-35.34 131.62,-26.17 131.62,-19.61"/>
<polygon fill="#63b8ff" stroke="#63b8ff" points="128.13,-43.57 131.63,-53.57 135.13,-43.57 128.13,-43.57"/>
</a>
</g>
</g>
</g>
</svg>
