<?xml version="1.0" encoding="UTF-8" standalone="no"?>
<!DOCTYPE svg PUBLIC "-//W3C//DTD SVG 1.1//EN"
 "http://www.w3.org/Graphics/SVG/1.1/DTD/svg11.dtd">
<!-- Generated by graphviz version 3.0.0 (20221109.1736)
 -->
<!-- Title: include/sprite.h Pages: 1 -->
<svg width="115pt" height="196pt"
 viewBox="0.00 0.00 115.00 196.00" xmlns="http://www.w3.org/2000/svg" xmlns:xlink="http://www.w3.org/1999/xlink">
<g id="graph0" class="graph" transform="scale(1 1) rotate(0) translate(4 192)">
<title>include/sprite.h</title>
<!-- Node1 -->
<g id="node1" class="node">
<title>Node1</title>
<g id="a_node1"><a xlink:title="Sprites.">
<polygon fill="#bfbfbf" stroke="black" points="10,-168.5 10,-187.5 92,-187.5 92,-168.5 10,-168.5"/>
<text text-anchor="middle" x="51" y="-175.5" font-family="Helvetica,sans-Serif" font-size="10.00">include/sprite.h</text>
</a>
</g>
</g>
<!-- Node2 -->
<g id="node2" class="node">
<title>Node2</title>
<g id="a_node2"><a xlink:title=" ">
<polygon fill="none" stroke="#bfbfbf" points="0,-56.5 0,-75.5 48,-75.5 48,-56.5 0,-56.5"/>
<text text-anchor="middle" x="24" y="-63.5" font-family="Helvetica,sans-Serif" font-size="10.00">stdint.h</text>
</a>
</g>
</g>
<!-- Node1&#45;&gt;Node2 -->
<g id="edge1" class="edge">
<title>Node1&#45;&gt;Node2</title>
<path fill="none" stroke="midnightblue" d="M48.88,-168.37C44.52,-150.62 34.47,-109.67 28.56,-85.6"/>
<polygon fill="midnightblue" stroke="midnightblue" points="31.89,-84.47 26.11,-75.59 25.09,-86.14 31.89,-84.47"/>
</g>
<!-- Node3 -->
<g id="node3" class="node">
<title>Node3</title>
<g id="a_node3"><a xlink:href="vmem_8h.html" target="_top" xlink:title="Data types and functions for VRAM access.">
<polygon fill="none" stroke="black" points="52.5,-112.5 52.5,-131.5 103.5,-131.5 103.5,-112.5 52.5,-112.5"/>
<text text-anchor="middle" x="78" y="-119.5" font-family="Helvetica,sans-Serif" font-size="10.00">vmem.h</text>
</a>
</g>
</g>
<!-- Node1&#45;&gt;Node3 -->
<g id="edge2" class="edge">
<title>Node1&#45;&gt;Node3</title>
<path fill="none" stroke="midnightblue" d="M55.46,-168.08C59.15,-160.69 64.52,-149.95 69.09,-140.81"/>
<polygon fill="midnightblue" stroke="midnightblue" points="72.28,-142.26 73.62,-131.75 66.02,-139.13 72.28,-142.26"/>
</g>
<!-- Node3&#45;&gt;Node2 -->
<g id="edge3" class="edge">
<title>Node3&#45;&gt;Node2</title>
<path fill="none" stroke="midnightblue" d="M69.08,-112.08C61.22,-104.22 49.57,-92.57 40.08,-83.08"/>
<polygon fill="midnightblue" stroke="midnightblue" points="42.3,-80.35 32.75,-75.75 37.35,-85.3 42.3,-80.35"/>
</g>
<!-- Node4 -->
<g id="node4" class="node">
<title>Node4</title>
<g id="a_node4"><a xlink:href="io_8h.html" target="_top" xlink:title="Definition of I/O ports.">
<polygon fill="none" stroke="black" points="66,-56.5 66,-75.5 98,-75.5 98,-56.5 66,-56.5"/>
<text text-anchor="middle" x="82" y="-63.5" font-family="Helvetica,sans-Serif" font-size="10.00">io.h</text>
</a>
</g>
</g>
<!-- Node3&#45;&gt;Node4 -->
<g id="edge4" class="edge">
<title>Node3&#45;&gt;Node4</title>
<path fill="none" stroke="midnightblue" d="M78.66,-112.08C79.18,-105.01 79.94,-94.86 80.59,-85.99"/>
<polygon fill="midnightblue" stroke="midnightblue" points="84.1,-85.98 81.35,-75.75 77.12,-85.47 84.1,-85.98"/>
</g>
<!-- Node5 -->
<g id="node5" class="node">
<title>Node5</title>
<g id="a_node5"><a xlink:href="config_8h.html" target="_top" xlink:title="Hack for C Compiler portability.">
<polygon fill="none" stroke="black" points="57,-0.5 57,-19.5 107,-19.5 107,-0.5 57,-0.5"/>
<text text-anchor="middle" x="82" y="-7.5" font-family="Helvetica,sans-Serif" font-size="10.00">config.h</text>
</a>
</g>
</g>
<!-- Node4&#45;&gt;Node5 -->
<g id="edge5" class="edge">
<title>Node4&#45;&gt;Node5</title>
<path fill="none" stroke="midnightblue" d="M82,-56.08C82,-49.01 82,-38.86 82,-29.99"/>
<polygon fill="midnightblue" stroke="midnightblue" points="85.5,-29.75 82,-19.75 78.5,-29.75 85.5,-29.75"/>
</g>
</g>
</svg>
