<?xml version="1.0" encoding="UTF-8" standalone="no"?>
<!DOCTYPE svg PUBLIC "-//W3C//DTD SVG 1.1//EN"
 "http://www.w3.org/Graphics/SVG/1.1/DTD/svg11.dtd">
<!-- Generated by graphviz version 12.2.0 (20241103.1931)
 -->
<!-- Title: MemFile Pages: 1 -->
<svg width="172pt" height="116pt"
 viewBox="0.00 0.00 172.00 116.25" xmlns="http://www.w3.org/2000/svg" xmlns:xlink="http://www.w3.org/1999/xlink">
<g id="graph0" class="graph" transform="scale(1 1) rotate(0) translate(4 112.25)">
<title>MemFile</title>
<!-- Node1 -->
<g id="Node000001" class="node">
<title>Node1</title>
<g id="a_Node000001"><a xlink:title="Internal structure of MemFile type.">
<polygon fill="#999999" stroke="#666666" points="99.25,-19.25 45.75,-19.25 45.75,0 99.25,0 99.25,-19.25"/>
<text text-anchor="middle" x="72.5" y="-5.75" font-family="Helvetica,sans-Serif" font-size="10.00">MemFile</text>
</a>
</g>
</g>
<!-- Node2 -->
<g id="Node000002" class="node">
<title>Node2</title>
<g id="a_Node000002"><a xlink:href="memfile__types_8h.html#structMemPos" target="_top" xlink:title="Internal structure of mempos_t type.">
<polygon fill="white" stroke="#666666" points="55,-108.25 0,-108.25 0,-89 55,-89 55,-108.25"/>
<text text-anchor="middle" x="27.5" y="-94.75" font-family="Helvetica,sans-Serif" font-size="10.00">MemPos</text>
</a>
</g>
</g>
<!-- Node2&#45;&gt;Node1 -->
<g id="edge1_Node000001_Node000002" class="edge">
<title>Node2&#45;&gt;Node1</title>
<g id="a_edge1_Node000001_Node000002"><a xlink:title=" ">
<path fill="none" stroke="#9a32cd" stroke-dasharray="5,2" d="M37.36,-78.56C46.8,-60.31 60.64,-33.55 67.81,-19.69"/>
<polygon fill="#9a32cd" stroke="#9a32cd" points="34.33,-76.81 32.84,-87.3 40.54,-80.02 34.33,-76.81"/>
</a>
</g>
<text text-anchor="middle" x="69.57" y="-61.5" font-family="Helvetica,sans-Serif" font-size="10.00" fill="grey"> base</text>
<text text-anchor="middle" x="69.57" y="-50.25" font-family="Helvetica,sans-Serif" font-size="10.00" fill="grey">curr</text>
<text text-anchor="middle" x="69.57" y="-39" font-family="Helvetica,sans-Serif" font-size="10.00" fill="grey">end</text>
</g>
<!-- Node3 -->
<g id="Node000003" class="node">
<title>Node3</title>
<g id="a_Node000003"><a xlink:href="memfile__types_8h.html#structMemFileMethods" target="_top" xlink:title=" ">
<polygon fill="white" stroke="#666666" points="164,-108.25 73,-108.25 73,-89 164,-89 164,-108.25"/>
<text text-anchor="middle" x="118.5" y="-94.75" font-family="Helvetica,sans-Serif" font-size="10.00">MemFileMethods</text>
</a>
</g>
</g>
<!-- Node3&#45;&gt;Node1 -->
<g id="edge2_Node000001_Node000003" class="edge">
<title>Node3&#45;&gt;Node1</title>
<g id="a_edge2_Node000001_Node000003"><a xlink:title=" ">
<path fill="none" stroke="#9a32cd" stroke-dasharray="5,2" d="M108.42,-78.56C98.77,-60.31 84.62,-33.55 77.29,-19.69"/>
<polygon fill="#9a32cd" stroke="#9a32cd" points="105.27,-80.1 113.04,-87.3 111.46,-76.83 105.27,-80.1"/>
</a>
</g>
<text text-anchor="middle" x="123.5" y="-50.25" font-family="Helvetica,sans-Serif" font-size="10.00" fill="grey"> methods</text>
</g>
</g>
</svg>
