<?xml version="1.0" encoding="UTF-8" standalone="no"?>
<!DOCTYPE svg PUBLIC "-//W3C//DTD SVG 1.1//EN"
 "http://www.w3.org/Graphics/SVG/1.1/DTD/svg11.dtd">
<!-- Generated by graphviz version 2.44.0 ()
 -->
<!-- Title: sound_state Pages: 1 -->
<svg width="248pt" height="296pt"
 viewBox="0.00 0.00 248.00 296.00" xmlns="http://www.w3.org/2000/svg" xmlns:xlink="http://www.w3.org/1999/xlink">
<g id="graph0" class="graph" transform="scale(1 1) rotate(0) translate(4 292)">
<title>sound_state</title>
<!-- Node1 -->
<g id="node1" class="node">
<title>Node1</title>
<g id="a_node1"><a xlink:title=" ">
<polygon fill="#bfbfbf" stroke="black" points="53,-0.5 53,-19.5 123,-19.5 123,-0.5 53,-0.5"/>
<text text-anchor="middle" x="88" y="-7.5" font-family="Helvetica,sans-Serif" font-size="10.00">sound_state</text>
</a>
</g>
</g>
<!-- Node2 -->
<g id="node2" class="node">
<title>Node2</title>
<g id="a_node2"><a xlink:href="structsound__clip.html" target="_top" xlink:title="The sound clip structure.">
<polygon fill="none" stroke="black" points="11.5,-67.5 11.5,-86.5 74.5,-86.5 74.5,-67.5 11.5,-67.5"/>
<text text-anchor="middle" x="43" y="-74.5" font-family="Helvetica,sans-Serif" font-size="10.00">sound_clip</text>
</a>
</g>
</g>
<!-- Node2&#45;&gt;Node1 -->
<g id="edge1" class="edge">
<title>Node2&#45;&gt;Node1</title>
<path fill="none" stroke="#9a32cd" stroke-dasharray="5,2" d="M54.84,-58.9C63.58,-46.27 75.12,-29.6 82.03,-19.63"/>
<polygon fill="#9a32cd" stroke="#9a32cd" points="51.88,-57.02 49.07,-67.23 57.64,-61 51.88,-57.02"/>
<text text-anchor="middle" x="78" y="-41" font-family="Helvetica,sans-Serif" font-size="10.00"> clip</text>
</g>
<!-- Node3 -->
<g id="node3" class="node">
<title>Node3</title>
<g id="a_node3"><a xlink:href="structsound__fragment.html" target="_top" xlink:title="The sound fragment structure.">
<polygon fill="none" stroke="black" points="0,-134.5 0,-153.5 86,-153.5 86,-134.5 0,-134.5"/>
<text text-anchor="middle" x="43" y="-141.5" font-family="Helvetica,sans-Serif" font-size="10.00">sound_fragment</text>
</a>
</g>
</g>
<!-- Node3&#45;&gt;Node2 -->
<g id="edge2" class="edge">
<title>Node3&#45;&gt;Node2</title>
<path fill="none" stroke="#9a32cd" stroke-dasharray="5,2" d="M43,-124.04C43,-111.67 43,-96.12 43,-86.63"/>
<polygon fill="#9a32cd" stroke="#9a32cd" points="39.5,-124.23 43,-134.23 46.5,-124.23 39.5,-124.23"/>
<text text-anchor="middle" x="66" y="-108" font-family="Helvetica,sans-Serif" font-size="10.00"> fragments</text>
</g>
<!-- Node4 -->
<g id="node4" class="node">
<title>Node4</title>
<g id="a_node4"><a xlink:href="structsound__channel.html" target="_top" xlink:title=" ">
<polygon fill="none" stroke="black" points="93,-67.5 93,-86.5 175,-86.5 175,-67.5 93,-67.5"/>
<text text-anchor="middle" x="134" y="-74.5" font-family="Helvetica,sans-Serif" font-size="10.00">sound_channel</text>
</a>
</g>
</g>
<!-- Node4&#45;&gt;Node1 -->
<g id="edge3" class="edge">
<title>Node4&#45;&gt;Node1</title>
<path fill="none" stroke="#9a32cd" stroke-dasharray="5,2" d="M121.9,-58.9C112.96,-46.27 101.17,-29.6 94.11,-19.63"/>
<polygon fill="#9a32cd" stroke="#9a32cd" points="119.16,-61.09 127.8,-67.23 124.88,-57.05 119.16,-61.09"/>
<text text-anchor="middle" x="135" y="-41" font-family="Helvetica,sans-Serif" font-size="10.00"> channels</text>
</g>
<!-- Node5 -->
<g id="node5" class="node">
<title>Node5</title>
<g id="a_node5"><a xlink:href="structsound__eg.html" target="_top" xlink:title="Software envelope generator object.">
<polygon fill="none" stroke="black" points="104.5,-134.5 104.5,-153.5 163.5,-153.5 163.5,-134.5 104.5,-134.5"/>
<text text-anchor="middle" x="134" y="-141.5" font-family="Helvetica,sans-Serif" font-size="10.00">sound_eg</text>
</a>
</g>
</g>
<!-- Node5&#45;&gt;Node4 -->
<g id="edge4" class="edge">
<title>Node5&#45;&gt;Node4</title>
<path fill="none" stroke="#9a32cd" stroke-dasharray="5,2" d="M134,-124.04C134,-111.67 134,-96.12 134,-86.63"/>
<polygon fill="#9a32cd" stroke="#9a32cd" points="130.5,-124.23 134,-134.23 137.5,-124.23 130.5,-124.23"/>
<text text-anchor="middle" x="140.5" y="-108" font-family="Helvetica,sans-Serif" font-size="10.00"> eg</text>
</g>
<!-- Node6 -->
<g id="node6" class="node">
<title>Node6</title>
<g id="a_node6"><a xlink:href="structsound__eg__attribute.html" target="_top" xlink:title="Attributes of a software envelope generator object.">
<polygon fill="none" stroke="black" points="84.5,-201.5 84.5,-220.5 183.5,-220.5 183.5,-201.5 84.5,-201.5"/>
<text text-anchor="middle" x="134" y="-208.5" font-family="Helvetica,sans-Serif" font-size="10.00">sound_eg_attribute</text>
</a>
</g>
</g>
<!-- Node6&#45;&gt;Node5 -->
<g id="edge5" class="edge">
<title>Node6&#45;&gt;Node5</title>
<path fill="none" stroke="#9a32cd" stroke-dasharray="5,2" d="M134,-191.04C134,-178.67 134,-163.12 134,-153.63"/>
<polygon fill="#9a32cd" stroke="#9a32cd" points="130.5,-191.23 134,-201.23 137.5,-191.23 130.5,-191.23"/>
<text text-anchor="middle" x="142.5" y="-175" font-family="Helvetica,sans-Serif" font-size="10.00"> attr</text>
</g>
<!-- Node7 -->
<g id="node7" class="node">
<title>Node7</title>
<g id="a_node7"><a xlink:href="structsound__eg__LPCM.html" target="_top" xlink:title="Parameters for linear PCM (8&#45;bit, 60Hz) envelope generator.">
<polygon fill="none" stroke="black" points="32,-268.5 32,-287.5 124,-287.5 124,-268.5 32,-268.5"/>
<text text-anchor="middle" x="78" y="-275.5" font-family="Helvetica,sans-Serif" font-size="10.00">sound_eg_LPCM</text>
</a>
</g>
</g>
<!-- Node7&#45;&gt;Node6 -->
<g id="edge6" class="edge">
<title>Node7&#45;&gt;Node6</title>
<path fill="none" stroke="#9a32cd" stroke-dasharray="5,2" d="M92.1,-260.63C103.05,-247.92 117.8,-230.8 126.57,-220.63"/>
<polygon fill="#9a32cd" stroke="#9a32cd" points="89.43,-258.37 85.55,-268.23 94.73,-262.94 89.43,-258.37"/>
<text text-anchor="middle" x="122" y="-242" font-family="Helvetica,sans-Serif" font-size="10.00"> lpcm</text>
</g>
<!-- Node8 -->
<g id="node8" class="node">
<title>Node8</title>
<g id="a_node8"><a xlink:href="structsound__eg__AHDSR.html" target="_top" xlink:title="Parameters for AHDSR envelope generator.">
<polygon fill="none" stroke="black" points="142,-268.5 142,-287.5 240,-287.5 240,-268.5 142,-268.5"/>
<text text-anchor="middle" x="191" y="-275.5" font-family="Helvetica,sans-Serif" font-size="10.00">sound_eg_AHDSR</text>
</a>
</g>
</g>
<!-- Node8&#45;&gt;Node6 -->
<g id="edge7" class="edge">
<title>Node8&#45;&gt;Node6</title>
<path fill="none" stroke="#9a32cd" stroke-dasharray="5,2" d="M176.65,-260.63C165.5,-247.92 150.48,-230.8 141.57,-220.63"/>
<polygon fill="#9a32cd" stroke="#9a32cd" points="174.09,-263.02 183.31,-268.23 179.35,-258.41 174.09,-263.02"/>
<text text-anchor="middle" x="178.5" y="-242" font-family="Helvetica,sans-Serif" font-size="10.00"> ahdsr</text>
</g>
</g>
</svg>
