<?xml version="1.0" encoding="UTF-8" standalone="no"?>
<!DOCTYPE svg PUBLIC "-//W3C//DTD SVG 1.1//EN"
 "http://www.w3.org/Graphics/SVG/1.1/DTD/svg11.dtd">
<!-- Generated by graphviz version 2.44.0 ()
 -->
<!-- Title: sound_eg_attribute Pages: 1 -->
<svg width="216pt" height="95pt"
 viewBox="0.00 0.00 216.00 95.00" xmlns="http://www.w3.org/2000/svg" xmlns:xlink="http://www.w3.org/1999/xlink">
<g id="graph0" class="graph" transform="scale(1 1) rotate(0) translate(4 91)">
<title>sound_eg_attribute</title>
<!-- Node1 -->
<g id="node1" class="node">
<title>Node1</title>
<g id="a_node1"><a xlink:title="Attributes of a software envelope generator object.">
<polygon fill="#bfbfbf" stroke="black" points="52.5,-0.5 52.5,-19.5 151.5,-19.5 151.5,-0.5 52.5,-0.5"/>
<text text-anchor="middle" x="102" y="-7.5" font-family="Helvetica,sans-Serif" font-size="10.00">sound_eg_attribute</text>
</a>
</g>
</g>
<!-- Node2 -->
<g id="node2" class="node">
<title>Node2</title>
<g id="a_node2"><a xlink:href="structsound__eg__LPCM.html" target="_top" xlink:title="Parameters for linear PCM (8&#45;bit, 60Hz) envelope generator.">
<polygon fill="none" stroke="black" points="0,-67.5 0,-86.5 92,-86.5 92,-67.5 0,-67.5"/>
<text text-anchor="middle" x="46" y="-74.5" font-family="Helvetica,sans-Serif" font-size="10.00">sound_eg_LPCM</text>
</a>
</g>
</g>
<!-- Node2&#45;&gt;Node1 -->
<g id="edge1" class="edge">
<title>Node2&#45;&gt;Node1</title>
<path fill="none" stroke="#9a32cd" stroke-dasharray="5,2" d="M60.1,-59.63C71.05,-46.92 85.8,-29.8 94.57,-19.63"/>
<polygon fill="#9a32cd" stroke="#9a32cd" points="57.43,-57.37 53.55,-67.23 62.73,-61.94 57.43,-57.37"/>
<text text-anchor="middle" x="90" y="-41" font-family="Helvetica,sans-Serif" font-size="10.00"> lpcm</text>
</g>
<!-- Node3 -->
<g id="node3" class="node">
<title>Node3</title>
<g id="a_node3"><a xlink:href="structsound__eg__AHDSR.html" target="_top" xlink:title="Parameters for AHDSR envelope generator.">
<polygon fill="none" stroke="black" points="110,-67.5 110,-86.5 208,-86.5 208,-67.5 110,-67.5"/>
<text text-anchor="middle" x="159" y="-74.5" font-family="Helvetica,sans-Serif" font-size="10.00">sound_eg_AHDSR</text>
</a>
</g>
</g>
<!-- Node3&#45;&gt;Node1 -->
<g id="edge2" class="edge">
<title>Node3&#45;&gt;Node1</title>
<path fill="none" stroke="#9a32cd" stroke-dasharray="5,2" d="M144.65,-59.63C133.5,-46.92 118.48,-29.8 109.57,-19.63"/>
<polygon fill="#9a32cd" stroke="#9a32cd" points="142.09,-62.02 151.31,-67.23 147.35,-57.41 142.09,-62.02"/>
<text text-anchor="middle" x="146.5" y="-41" font-family="Helvetica,sans-Serif" font-size="10.00"> ahdsr</text>
</g>
</g>
</svg>
