<?xml version="1.0" encoding="UTF-8" standalone="no"?>
<!DOCTYPE svg PUBLIC "-//W3C//DTD SVG 1.1//EN"
 "http://www.w3.org/Graphics/SVG/1.1/DTD/svg11.dtd">
<!-- Generated by graphviz version 3.0.0 (20221109.1736)
 -->
<!-- Title: SCC Pages: 1 -->
<svg width="89pt" height="162pt"
 viewBox="0.00 0.00 88.50 162.00" xmlns="http://www.w3.org/2000/svg" xmlns:xlink="http://www.w3.org/1999/xlink">
<g id="graph0" class="graph" transform="scale(1 1) rotate(0) translate(4 158)">
<title>SCC</title>
<!-- Node1 -->
<g id="node1" class="node">
<title>Node1</title>
<g id="a_node1"><a xlink:title="SCC Handle.">
<polygon fill="#bfbfbf" stroke="black" points="20,-0.5 20,-19.5 57,-19.5 57,-0.5 20,-0.5"/>
<text text-anchor="middle" x="38.5" y="-7.5" font-family="Helvetica,sans-Serif" font-size="10.00">SCC</text>
</a>
</g>
</g>
<!-- Node2 -->
<g id="node2" class="node">
<title>Node2</title>
<g id="a_node2"><a xlink:href="scc_8h.html#structSCC__Device" target="_top" xlink:title="Device interface for SCC/SCC+ sound chip.">
<polygon fill="none" stroke="black" points="2.5,-67.5 2.5,-86.5 74.5,-86.5 74.5,-67.5 2.5,-67.5"/>
<text text-anchor="middle" x="38.5" y="-74.5" font-family="Helvetica,sans-Serif" font-size="10.00">SCC_Device</text>
</a>
</g>
</g>
<!-- Node2&#45;&gt;Node1 -->
<g id="edge1" class="edge">
<title>Node2&#45;&gt;Node1</title>
<path fill="none" stroke="#9a32cd" stroke-dasharray="5,2" d="M38.5,-57.04C38.5,-44.67 38.5,-29.12 38.5,-19.63"/>
<polygon fill="#9a32cd" stroke="#9a32cd" points="35,-57.23 38.5,-67.23 42,-57.23 35,-57.23"/>
<text text-anchor="middle" x="54" y="-41" font-family="Helvetica,sans-Serif" font-size="10.00"> device</text>
</g>
<!-- Node3 -->
<g id="node3" class="node">
<title>Node3</title>
<g id="a_node3"><a xlink:href="scc_8h.html#structSCC__Channel" target="_top" xlink:title="Device interface for a sound channel of SCC/SCC+ sound chip.">
<polygon fill="none" stroke="black" points="0,-134.5 0,-153.5 77,-153.5 77,-134.5 0,-134.5"/>
<text text-anchor="middle" x="38.5" y="-141.5" font-family="Helvetica,sans-Serif" font-size="10.00">SCC_Channel</text>
</a>
</g>
</g>
<!-- Node3&#45;&gt;Node2 -->
<g id="edge2" class="edge">
<title>Node3&#45;&gt;Node2</title>
<path fill="none" stroke="#9a32cd" stroke-dasharray="5,2" d="M38.5,-124.04C38.5,-111.67 38.5,-96.12 38.5,-86.63"/>
<polygon fill="#9a32cd" stroke="#9a32cd" points="35,-124.23 38.5,-134.23 42,-124.23 35,-124.23"/>
<text text-anchor="middle" x="59.5" y="-108" font-family="Helvetica,sans-Serif" font-size="10.00"> channels</text>
</g>
</g>
</svg>
