<?xml version="1.0" encoding="UTF-8" standalone="no"?>
<!DOCTYPE svg PUBLIC "-//W3C//DTD SVG 1.1//EN"
 "http://www.w3.org/Graphics/SVG/1.1/DTD/svg11.dtd">
<!-- Generated by graphviz version 9.0.0 (20230911.1827)
 -->
<!-- Title: snd_Music Pages: 1 -->
<svg width="270pt" height="186pt"
 viewBox="0.00 0.00 270.25 185.50" xmlns="http://www.w3.org/2000/svg" xmlns:xlink="http://www.w3.org/1999/xlink">
<g id="graph0" class="graph" transform="scale(1 1) rotate(0) translate(4 181.5)">
<title>snd_Music</title>
<!-- Node1 -->
<g id="Node000001" class="node">
<title>Node1</title>
<g id="a_Node000001"><a xlink:title="Container of a music data.">
<polygon fill="#999999" stroke="#666666" points="262.25,-97.88 199,-97.88 199,-78.62 262.25,-78.62 262.25,-97.88"/>
<text text-anchor="middle" x="230.62" y="-84.38" font-family="Helvetica,sans-Serif" font-size="10.00">snd_Music</text>
</a>
</g>
</g>
<!-- Node2 -->
<g id="Node000002" class="node">
<title>Node2</title>
<g id="a_Node000002"><a xlink:href="structsnd__Music_1_1vec__snd__SpeedTrack.html" target="_top" xlink:title="[optional] list of all speed tracks refered in items.">
<polygon fill="white" stroke="#666666" points="104.5,-177.5 0,-177.5 0,-147 104.5,-147 104.5,-177.5"/>
<text text-anchor="start" x="8" y="-164" font-family="Helvetica,sans-Serif" font-size="10.00">snd_Music::vec_snd</text>
<text text-anchor="middle" x="52.25" y="-152.75" font-family="Helvetica,sans-Serif" font-size="10.00">_SpeedTrack</text>
</a>
</g>
</g>
<!-- Node2&#45;&gt;Node1 -->
<g id="edge1_Node000001_Node000002" class="edge">
<title>Node2&#45;&gt;Node1</title>
<g id="a_edge1_Node000001_Node000002"><a xlink:title=" ">
<path fill="none" stroke="#9a32cd" stroke-dasharray="5,2" d="M115.65,-143.05C136.76,-135.82 160.24,-126.98 181,-117.25 192.75,-111.74 205.31,-104.21 214.72,-98.2"/>
<polygon fill="#9a32cd" stroke="#9a32cd" points="114.65,-139.69 106.28,-146.19 116.88,-146.33 114.65,-139.69"/>
</a>
</g>
<text text-anchor="middle" x="151.75" y="-142" font-family="Helvetica,sans-Serif" font-size="10.00" fill="grey"> speedTracks</text>
</g>
<!-- Node3 -->
<g id="Node000003" class="node">
<title>Node3</title>
<g id="a_Node000003"><a xlink:href="structsnd__Music_1_1vec__snd__EventTrack.html" target="_top" xlink:title="[optional] list of all event tracks refered in items.">
<polygon fill="white" stroke="#666666" points="104.5,-128.5 0,-128.5 0,-98 104.5,-98 104.5,-128.5"/>
<text text-anchor="start" x="8" y="-115" font-family="Helvetica,sans-Serif" font-size="10.00">snd_Music::vec_snd</text>
<text text-anchor="middle" x="52.25" y="-103.75" font-family="Helvetica,sans-Serif" font-size="10.00">_EventTrack</text>
</a>
</g>
</g>
<!-- Node3&#45;&gt;Node1 -->
<g id="edge2_Node000001_Node000003" class="edge">
<title>Node3&#45;&gt;Node1</title>
<g id="a_edge2_Node000001_Node000003"><a xlink:title=" ">
<path fill="none" stroke="#9a32cd" stroke-dasharray="5,2" d="M116.06,-104.35C144.05,-100.38 175.76,-95.88 198.55,-92.65"/>
<polygon fill="#9a32cd" stroke="#9a32cd" points="115.65,-100.87 106.24,-105.74 116.63,-107.8 115.65,-100.87"/>
</a>
</g>
<text text-anchor="middle" x="151.75" y="-104" font-family="Helvetica,sans-Serif" font-size="10.00" fill="grey"> eventTracks</text>
</g>
<!-- Node4 -->
<g id="Node000004" class="node">
<title>Node4</title>
<g id="a_Node000004"><a xlink:href="structsnd__Music_1_1vec__snd__Track.html" target="_top" xlink:title="list of all tracks refered in items.">
<polygon fill="white" stroke="#666666" points="104.5,-79.5 0,-79.5 0,-49 104.5,-49 104.5,-79.5"/>
<text text-anchor="start" x="8" y="-66" font-family="Helvetica,sans-Serif" font-size="10.00">snd_Music::vec_snd</text>
<text text-anchor="middle" x="52.25" y="-54.75" font-family="Helvetica,sans-Serif" font-size="10.00">_Track</text>
</a>
</g>
</g>
<!-- Node4&#45;&gt;Node1 -->
<g id="edge3_Node000001_Node000004" class="edge">
<title>Node4&#45;&gt;Node1</title>
<g id="a_edge3_Node000001_Node000004"><a xlink:title=" ">
<path fill="none" stroke="#9a32cd" stroke-dasharray="5,2" d="M116.13,-71.43C136.82,-73.94 159.92,-76.91 181,-80 186.68,-80.83 192.71,-81.79 198.53,-82.76"/>
<polygon fill="#9a32cd" stroke="#9a32cd" points="116.76,-67.98 106.42,-70.26 115.93,-74.93 116.76,-67.98"/>
</a>
</g>
<text text-anchor="middle" x="151.75" y="-81" font-family="Helvetica,sans-Serif" font-size="10.00" fill="grey"> tracks</text>
</g>
<!-- Node5 -->
<g id="Node000005" class="node">
<title>Node5</title>
<g id="a_Node000005"><a xlink:href="structsnd__Music_1_1vec__snd__Pattern.html" target="_top" xlink:title="list of patterns (pattern sequence).">
<polygon fill="white" stroke="#666666" points="104.5,-30.5 0,-30.5 0,0 104.5,0 104.5,-30.5"/>
<text text-anchor="start" x="8" y="-17" font-family="Helvetica,sans-Serif" font-size="10.00">snd_Music::vec_snd</text>
<text text-anchor="middle" x="52.25" y="-5.75" font-family="Helvetica,sans-Serif" font-size="10.00">_Pattern</text>
</a>
</g>
</g>
<!-- Node5&#45;&gt;Node1 -->
<g id="edge4_Node000001_Node000005" class="edge">
<title>Node5&#45;&gt;Node1</title>
<g id="a_edge4_Node000001_Node000005"><a xlink:title=" ">
<path fill="none" stroke="#9a32cd" stroke-dasharray="5,2" d="M115.61,-32.13C136.82,-38.78 160.36,-47.19 181,-57 193.51,-62.94 206.66,-71.56 216.13,-78.24"/>
<polygon fill="#9a32cd" stroke="#9a32cd" points="116.8,-28.83 106.21,-29.26 114.75,-35.53 116.8,-28.83"/>
</a>
</g>
<text text-anchor="middle" x="151.75" y="-58" font-family="Helvetica,sans-Serif" font-size="10.00" fill="grey"> patterns</text>
</g>
</g>
</svg>
