<?xml version="1.0" encoding="UTF-8" standalone="no"?>
<!DOCTYPE svg PUBLIC "-//W3C//DTD SVG 1.1//EN"
 "http://www.w3.org/Graphics/SVG/1.1/DTD/svg11.dtd">
<!-- Generated by graphviz version 2.44.0 ()
 -->
<!-- Title: sound_channel Pages: 1 -->
<svg width="216pt" height="229pt"
 viewBox="0.00 0.00 216.00 229.00" xmlns="http://www.w3.org/2000/svg" xmlns:xlink="http://www.w3.org/1999/xlink">
<g id="graph0" class="graph" transform="scale(1 1) rotate(0) translate(4 225)">
<title>sound_channel</title>
<!-- Node1 -->
<g id="node1" class="node">
<title>Node1</title>
<g id="a_node1"><a xlink:title=" ">
<polygon fill="#bfbfbf" stroke="black" points="61,-0.5 61,-19.5 143,-19.5 143,-0.5 61,-0.5"/>
<text text-anchor="middle" x="102" y="-7.5" font-family="Helvetica,sans-Serif" font-size="10.00">sound_channel</text>
</a>
</g>
</g>
<!-- Node2 -->
<g id="node2" class="node">
<title>Node2</title>
<g id="a_node2"><a xlink:href="structsound__eg.html" target="_top" xlink:title="Software envelope generator object.">
<polygon fill="none" stroke="black" points="72.5,-67.5 72.5,-86.5 131.5,-86.5 131.5,-67.5 72.5,-67.5"/>
<text text-anchor="middle" x="102" y="-74.5" font-family="Helvetica,sans-Serif" font-size="10.00">sound_eg</text>
</a>
</g>
</g>
<!-- Node2&#45;&gt;Node1 -->
<g id="edge1" class="edge">
<title>Node2&#45;&gt;Node1</title>
<path fill="none" stroke="#9a32cd" stroke-dasharray="5,2" d="M102,-57.04C102,-44.67 102,-29.12 102,-19.63"/>
<polygon fill="#9a32cd" stroke="#9a32cd" points="98.5,-57.23 102,-67.23 105.5,-57.23 98.5,-57.23"/>
<text text-anchor="middle" x="108.5" y="-41" font-family="Helvetica,sans-Serif" font-size="10.00"> eg</text>
</g>
<!-- Node3 -->
<g id="node3" class="node">
<title>Node3</title>
<g id="a_node3"><a xlink:href="structsound__eg__attribute.html" target="_top" xlink:title="Attributes of a software envelope generator object.">
<polygon fill="none" stroke="black" points="52.5,-134.5 52.5,-153.5 151.5,-153.5 151.5,-134.5 52.5,-134.5"/>
<text text-anchor="middle" x="102" y="-141.5" font-family="Helvetica,sans-Serif" font-size="10.00">sound_eg_attribute</text>
</a>
</g>
</g>
<!-- Node3&#45;&gt;Node2 -->
<g id="edge2" class="edge">
<title>Node3&#45;&gt;Node2</title>
<path fill="none" stroke="#9a32cd" stroke-dasharray="5,2" d="M102,-124.04C102,-111.67 102,-96.12 102,-86.63"/>
<polygon fill="#9a32cd" stroke="#9a32cd" points="98.5,-124.23 102,-134.23 105.5,-124.23 98.5,-124.23"/>
<text text-anchor="middle" x="110.5" y="-108" font-family="Helvetica,sans-Serif" font-size="10.00"> attr</text>
</g>
<!-- Node4 -->
<g id="node4" class="node">
<title>Node4</title>
<g id="a_node4"><a xlink:href="structsound__eg__LPCM.html" target="_top" xlink:title="Parameters for linear PCM (8&#45;bit, 60Hz) envelope generator.">
<polygon fill="none" stroke="black" points="0,-201.5 0,-220.5 92,-220.5 92,-201.5 0,-201.5"/>
<text text-anchor="middle" x="46" y="-208.5" font-family="Helvetica,sans-Serif" font-size="10.00">sound_eg_LPCM</text>
</a>
</g>
</g>
<!-- Node4&#45;&gt;Node3 -->
<g id="edge3" class="edge">
<title>Node4&#45;&gt;Node3</title>
<path fill="none" stroke="#9a32cd" stroke-dasharray="5,2" d="M60.1,-193.63C71.05,-180.92 85.8,-163.8 94.57,-153.63"/>
<polygon fill="#9a32cd" stroke="#9a32cd" points="57.43,-191.37 53.55,-201.23 62.73,-195.94 57.43,-191.37"/>
<text text-anchor="middle" x="90" y="-175" font-family="Helvetica,sans-Serif" font-size="10.00"> lpcm</text>
</g>
<!-- Node5 -->
<g id="node5" class="node">
<title>Node5</title>
<g id="a_node5"><a xlink:href="structsound__eg__AHDSR.html" target="_top" xlink:title="Parameters for AHDSR envelope generator.">
<polygon fill="none" stroke="black" points="110,-201.5 110,-220.5 208,-220.5 208,-201.5 110,-201.5"/>
<text text-anchor="middle" x="159" y="-208.5" font-family="Helvetica,sans-Serif" font-size="10.00">sound_eg_AHDSR</text>
</a>
</g>
</g>
<!-- Node5&#45;&gt;Node3 -->
<g id="edge4" class="edge">
<title>Node5&#45;&gt;Node3</title>
<path fill="none" stroke="#9a32cd" stroke-dasharray="5,2" d="M144.65,-193.63C133.5,-180.92 118.48,-163.8 109.57,-153.63"/>
<polygon fill="#9a32cd" stroke="#9a32cd" points="142.09,-196.02 151.31,-201.23 147.35,-191.41 142.09,-196.02"/>
<text text-anchor="middle" x="146.5" y="-175" font-family="Helvetica,sans-Serif" font-size="10.00"> ahdsr</text>
</g>
</g>
</svg>
