<?xml version="1.0" encoding="UTF-8" standalone="no"?>
<!DOCTYPE svg PUBLIC "-//W3C//DTD SVG 1.1//EN"
 "http://www.w3.org/Graphics/SVG/1.1/DTD/svg11.dtd">
<!-- Generated by graphviz version 3.0.0 (20221109.1736)
 -->
<!-- Title: SCC Pages: 1 -->
<svg width="112pt" height="240pt"
 viewBox="0.00 0.00 112.00 240.00" xmlns="http://www.w3.org/2000/svg" xmlns:xlink="http://www.w3.org/1999/xlink">
<g id="graph0" class="graph" transform="scale(1 1) rotate(0) translate(4 236)">
<title>SCC</title>
<!-- Node1 -->
<g id="node1" class="node">
<title>Node1</title>
<g id="a_node1"><a xlink:title="SCC Handle.">
<polygon fill="#bfbfbf" stroke="black" points="24.5,-0.5 24.5,-19.5 61.5,-19.5 61.5,-0.5 24.5,-0.5"/>
<text text-anchor="middle" x="43" y="-7.5" font-family="Helvetica,sans-Serif" font-size="10.00">SCC</text>
</a>
</g>
</g>
<!-- Node2 -->
<g id="node2" class="node">
<title>Node2</title>
<g id="a_node2"><a xlink:href="scc_8h.html#structSCC__Device" target="_top" xlink:title="Device interface for SCC/SCC+ sound chip.">
<polygon fill="none" stroke="black" points="7,-67.5 7,-86.5 79,-86.5 79,-67.5 7,-67.5"/>
<text text-anchor="middle" x="43" y="-74.5" font-family="Helvetica,sans-Serif" font-size="10.00">SCC_Device</text>
</a>
</g>
</g>
<!-- Node2&#45;&gt;Node1 -->
<g id="edge1" class="edge">
<title>Node2&#45;&gt;Node1</title>
<path fill="none" stroke="#9a32cd" stroke-dasharray="5,2" d="M43,-57.04C43,-44.67 43,-29.12 43,-19.63"/>
<polygon fill="#9a32cd" stroke="#9a32cd" points="39.5,-57.23 43,-67.23 46.5,-57.23 39.5,-57.23"/>
<text text-anchor="middle" x="58.5" y="-41" font-family="Helvetica,sans-Serif" font-size="10.00"> device</text>
</g>
<!-- Node3 -->
<g id="node3" class="node">
<title>Node3</title>
<g id="a_node3"><a xlink:href="scc_8h.html#structSCC__Channel" target="_top" xlink:title="Device interface for a sound channel of SCC/SCC+ sound chip.">
<polygon fill="none" stroke="black" points="4.5,-134.5 4.5,-153.5 81.5,-153.5 81.5,-134.5 4.5,-134.5"/>
<text text-anchor="middle" x="43" y="-141.5" font-family="Helvetica,sans-Serif" font-size="10.00">SCC_Channel</text>
</a>
</g>
</g>
<!-- Node3&#45;&gt;Node2 -->
<g id="edge2" class="edge">
<title>Node3&#45;&gt;Node2</title>
<path fill="none" stroke="#9a32cd" stroke-dasharray="5,2" d="M43,-124.04C43,-111.67 43,-96.12 43,-86.63"/>
<polygon fill="#9a32cd" stroke="#9a32cd" points="39.5,-124.23 43,-134.23 46.5,-124.23 39.5,-124.23"/>
<text text-anchor="middle" x="64" y="-108" font-family="Helvetica,sans-Serif" font-size="10.00"> channels</text>
</g>
<!-- Node4 -->
<g id="node4" class="node">
<title>Node4</title>
<g id="a_node4"><a xlink:href="scc_8h.html#structSCC__Waveform" target="_top" xlink:title="The structure of the SCC/SCC+ 32&#45;byte waveform data register.">
<polygon fill="none" stroke="black" points="0,-212.5 0,-231.5 86,-231.5 86,-212.5 0,-212.5"/>
<text text-anchor="middle" x="43" y="-219.5" font-family="Helvetica,sans-Serif" font-size="10.00">SCC_Waveform</text>
</a>
</g>
</g>
<!-- Node4&#45;&gt;Node3 -->
<g id="edge3" class="edge">
<title>Node4&#45;&gt;Node3</title>
<path fill="none" stroke="#9a32cd" stroke-dasharray="5,2" d="M43,-202.22C43,-186.7 43,-165.36 43,-153.62"/>
<polygon fill="#9a32cd" stroke="#9a32cd" points="39.5,-202.28 43,-212.28 46.5,-202.28 39.5,-202.28"/>
<text text-anchor="middle" x="73.5" y="-186" font-family="Helvetica,sans-Serif" font-size="10.00"> ro_waveform</text>
<text text-anchor="middle" x="73.5" y="-175" font-family="Helvetica,sans-Serif" font-size="10.00">wo_waveform</text>
</g>
</g>
</svg>
