<?xml version="1.0" encoding="UTF-8" standalone="no"?>
<!DOCTYPE svg PUBLIC "-//W3C//DTD SVG 1.1//EN"
 "http://www.w3.org/Graphics/SVG/1.1/DTD/svg11.dtd">
<!-- Generated by graphviz version 3.0.0 (20220413.0242)
 -->
<!-- Title: snd_SoundAssets Pages: 1 -->
<svg width="827pt" height="259pt"
 viewBox="0.00 0.00 827.00 259.00" xmlns="http://www.w3.org/2000/svg" xmlns:xlink="http://www.w3.org/1999/xlink">
<g id="graph0" class="graph" transform="scale(1 1) rotate(0) translate(4 255)">
<title>snd_SoundAssets</title>
<!-- Node1 -->
<g id="node1" class="node">
<title>Node1</title>
<g id="a_node1"><a xlink:title="Container of list of musics, instruments, arpeggio tables, and period tables.">
<polygon fill="#bfbfbf" stroke="black" points="723,-152 723,-171 819,-171 819,-152 723,-152"/>
<text text-anchor="middle" x="771" y="-159" font-family="Helvetica,sans-Serif" font-size="10.00">snd_SoundAssets</text>
</a>
</g>
</g>
<!-- Node2 -->
<g id="node2" class="node">
<title>Node2</title>
<g id="a_node2"><a xlink:href="snd__sound_8h.html#structsnd__SoundAssets_1_1vec__snd__PitchBend" target="_top" xlink:title=" ">
<polygon fill="none" stroke="black" points="490,-220.5 490,-250.5 606,-250.5 606,-220.5 490,-220.5"/>
<text text-anchor="start" x="498" y="-238.5" font-family="Helvetica,sans-Serif" font-size="10.00">snd_SoundAssets::vec</text>
<text text-anchor="middle" x="548" y="-227.5" font-family="Helvetica,sans-Serif" font-size="10.00">_snd_PitchBend</text>
</a>
</g>
</g>
<!-- Node2&#45;&gt;Node1 -->
<g id="edge1" class="edge">
<title>Node2&#45;&gt;Node1</title>
<path fill="none" stroke="#9a32cd" stroke-dasharray="5,2" d="M616.12,-219.76C643.97,-212.53 676.4,-203.17 705,-192.5 721.4,-186.38 739.3,-177.69 752.16,-171.06"/>
<polygon fill="#9a32cd" stroke="#9a32cd" points="614.9,-216.46 606.08,-222.33 616.64,-223.24 614.9,-216.46"/>
<text text-anchor="middle" x="664.5" y="-219.5" font-family="Helvetica,sans-Serif" font-size="10.00"> pitchBendTables</text>
</g>
<!-- Node3 -->
<g id="node3" class="node">
<title>Node3</title>
<g id="a_node3"><a xlink:href="snd__p__table_8h.html#structsnd__p__table" target="_top" xlink:title="Pitch bend table.">
<polygon fill="none" stroke="black" points="355.5,-201 355.5,-220 424.5,-220 424.5,-201 355.5,-201"/>
<text text-anchor="middle" x="390" y="-208" font-family="Helvetica,sans-Serif" font-size="10.00">snd_p_table</text>
</a>
</g>
</g>
<!-- Node3&#45;&gt;Node2 -->
<g id="edge2" class="edge">
<title>Node3&#45;&gt;Node2</title>
<path fill="none" stroke="#9a32cd" stroke-dasharray="5,2" d="M435.07,-217.56C452.1,-220.29 471.81,-223.45 489.9,-226.35"/>
<polygon fill="#9a32cd" stroke="#9a32cd" points="435.28,-214.05 424.85,-215.92 434.17,-220.96 435.28,-214.05"/>
<text text-anchor="middle" x="461" y="-225.5" font-family="Helvetica,sans-Serif" font-size="10.00"> data</text>
</g>
<!-- Node4 -->
<g id="node4" class="node">
<title>Node4</title>
<g id="a_node4"><a xlink:href="snd__sound_8h.html#structsnd__SoundAssets_1_1vec__snd__PeriodBend" target="_top" xlink:title=" ">
<polygon fill="none" stroke="black" points="490,-171.5 490,-201.5 606,-201.5 606,-171.5 490,-171.5"/>
<text text-anchor="start" x="498" y="-189.5" font-family="Helvetica,sans-Serif" font-size="10.00">snd_SoundAssets::vec</text>
<text text-anchor="middle" x="548" y="-178.5" font-family="Helvetica,sans-Serif" font-size="10.00">_snd_PeriodBend</text>
</a>
</g>
</g>
<!-- Node3&#45;&gt;Node4 -->
<g id="edge4" class="edge">
<title>Node3&#45;&gt;Node4</title>
<path fill="none" stroke="#9a32cd" stroke-dasharray="5,2" d="M434.51,-201.25C439.72,-200.26 444.97,-199.32 450,-198.5 462.9,-196.39 476.81,-194.47 489.96,-192.81"/>
<polygon fill="#9a32cd" stroke="#9a32cd" points="433.75,-197.84 424.61,-203.19 435.1,-204.7 433.75,-197.84"/>
<text text-anchor="middle" x="461" y="-201.5" font-family="Helvetica,sans-Serif" font-size="10.00"> data</text>
</g>
<!-- Node4&#45;&gt;Node1 -->
<g id="edge3" class="edge">
<title>Node4&#45;&gt;Node1</title>
<path fill="none" stroke="#9a32cd" stroke-dasharray="5,2" d="M616.18,-178.9C650.6,-175.01 691.68,-170.36 722.73,-166.85"/>
<polygon fill="#9a32cd" stroke="#9a32cd" points="615.74,-175.43 606.2,-180.03 616.53,-182.38 615.74,-175.43"/>
<text text-anchor="middle" x="664.5" y="-180.5" font-family="Helvetica,sans-Serif" font-size="10.00"> periodBendTables</text>
</g>
<!-- Node5 -->
<g id="node5" class="node">
<title>Node5</title>
<g id="a_node5"><a xlink:href="snd__sound_8h.html#structsnd__SoundAssets_1_1vec__snd__Instrument" target="_top" xlink:title=" ">
<polygon fill="none" stroke="black" points="490,-122.5 490,-152.5 606,-152.5 606,-122.5 490,-122.5"/>
<text text-anchor="start" x="498" y="-140.5" font-family="Helvetica,sans-Serif" font-size="10.00">snd_SoundAssets::vec</text>
<text text-anchor="middle" x="548" y="-129.5" font-family="Helvetica,sans-Serif" font-size="10.00">_snd_Instrument</text>
</a>
</g>
</g>
<!-- Node5&#45;&gt;Node1 -->
<g id="edge5" class="edge">
<title>Node5&#45;&gt;Node1</title>
<path fill="none" stroke="#9a32cd" stroke-dasharray="5,2" d="M616.51,-141.13C644.02,-143.01 676.1,-145.73 705,-149.5 710.8,-150.26 716.87,-151.19 722.88,-152.19"/>
<polygon fill="#9a32cd" stroke="#9a32cd" points="616.41,-137.61 606.2,-140.45 615.95,-144.6 616.41,-137.61"/>
<text text-anchor="middle" x="664.5" y="-152.5" font-family="Helvetica,sans-Serif" font-size="10.00"> instruments</text>
</g>
<!-- Node6 -->
<g id="node6" class="node">
<title>Node6</title>
<g id="a_node6"><a xlink:href="snd__i__table_8h.html#structsnd__Instrument" target="_top" xlink:title="Instrument (timbre) table.">
<polygon fill="none" stroke="black" points="348,-128 348,-147 432,-147 432,-128 348,-128"/>
<text text-anchor="middle" x="390" y="-135" font-family="Helvetica,sans-Serif" font-size="10.00">snd_Instrument</text>
</a>
</g>
</g>
<!-- Node6&#45;&gt;Node5 -->
<g id="edge6" class="edge">
<title>Node6&#45;&gt;Node5</title>
<path fill="none" stroke="#9a32cd" stroke-dasharray="5,2" d="M442.6,-137.5C457.74,-137.5 474.38,-137.5 489.85,-137.5"/>
<polygon fill="#9a32cd" stroke="#9a32cd" points="442.4,-134 432.4,-137.5 442.4,-141 442.4,-134"/>
<text text-anchor="middle" x="461" y="-140.5" font-family="Helvetica,sans-Serif" font-size="10.00"> data</text>
</g>
<!-- Node7 -->
<g id="node7" class="node">
<title>Node7</title>
<g id="a_node7"><a xlink:href="snd__sound_8h.html#structsnd__SoundAssets_1_1vec__snd__Music" target="_top" xlink:title=" ">
<polygon fill="none" stroke="black" points="490,-73.5 490,-103.5 606,-103.5 606,-73.5 490,-73.5"/>
<text text-anchor="start" x="498" y="-91.5" font-family="Helvetica,sans-Serif" font-size="10.00">snd_SoundAssets::vec</text>
<text text-anchor="middle" x="548" y="-80.5" font-family="Helvetica,sans-Serif" font-size="10.00">_snd_Music</text>
</a>
</g>
</g>
<!-- Node7&#45;&gt;Node1 -->
<g id="edge7" class="edge">
<title>Node7&#45;&gt;Node1</title>
<path fill="none" stroke="#9a32cd" stroke-dasharray="5,2" d="M616.1,-100.91C644.08,-107.09 676.61,-115.6 705,-126.5 722.83,-133.34 741.92,-144.08 754.77,-151.85"/>
<polygon fill="#9a32cd" stroke="#9a32cd" points="616.53,-97.43 606.02,-98.74 615.05,-104.27 616.53,-97.43"/>
<text text-anchor="middle" x="664.5" y="-129.5" font-family="Helvetica,sans-Serif" font-size="10.00"> musics</text>
</g>
<!-- Node8 -->
<g id="node8" class="node">
<title>Node8</title>
<g id="a_node8"><a xlink:href="snd__sound_8h.html#structsnd__Music" target="_top" xlink:title="Container of a music data.">
<polygon fill="none" stroke="black" points="358,-79 358,-98 422,-98 422,-79 358,-79"/>
<text text-anchor="middle" x="390" y="-86" font-family="Helvetica,sans-Serif" font-size="10.00">snd_Music</text>
</a>
</g>
</g>
<!-- Node8&#45;&gt;Node7 -->
<g id="edge8" class="edge">
<title>Node8&#45;&gt;Node7</title>
<path fill="none" stroke="#9a32cd" stroke-dasharray="5,2" d="M432.69,-88.5C450.27,-88.5 471.02,-88.5 489.98,-88.5"/>
<polygon fill="#9a32cd" stroke="#9a32cd" points="432.19,-85 422.19,-88.5 432.19,-92 432.19,-85"/>
<text text-anchor="middle" x="461" y="-91.5" font-family="Helvetica,sans-Serif" font-size="10.00"> data</text>
</g>
<!-- Node9 -->
<g id="node9" class="node">
<title>Node9</title>
<g id="a_node9"><a xlink:href="snd__sound_8h.html#structsnd__Music_1_1vec__snd__SpeedTrack" target="_top" xlink:title="[optional] list of all speed tracks refered in items.">
<polygon fill="none" stroke="black" points="148,-147.5 148,-177.5 253,-177.5 253,-147.5 148,-147.5"/>
<text text-anchor="start" x="156" y="-165.5" font-family="Helvetica,sans-Serif" font-size="10.00">snd_Music::vec_snd</text>
<text text-anchor="middle" x="200.5" y="-154.5" font-family="Helvetica,sans-Serif" font-size="10.00">_SpeedTrack</text>
</a>
</g>
</g>
<!-- Node9&#45;&gt;Node8 -->
<g id="edge9" class="edge">
<title>Node9&#45;&gt;Node8</title>
<path fill="none" stroke="#9a32cd" stroke-dasharray="5,2" d="M260.22,-144.32C282.35,-136.97 307.58,-127.98 330,-118.5 344.39,-112.41 360.15,-104.33 371.75,-98.08"/>
<polygon fill="#9a32cd" stroke="#9a32cd" points="259.03,-141.03 250.62,-147.48 261.21,-147.68 259.03,-141.03"/>
<text text-anchor="middle" x="300.5" y="-142.5" font-family="Helvetica,sans-Serif" font-size="10.00"> speedTracks</text>
</g>
<!-- Node10 -->
<g id="node10" class="node">
<title>Node10</title>
<g id="a_node10"><a xlink:href="structsnd__SpeedTrack.html" target="_top" xlink:title="A special track to control speed of tracks.">
<polygon fill="none" stroke="black" points="0,-153 0,-172 90,-172 90,-153 0,-153"/>
<text text-anchor="middle" x="45" y="-160" font-family="Helvetica,sans-Serif" font-size="10.00">snd_SpeedTrack</text>
</a>
</g>
</g>
<!-- Node10&#45;&gt;Node9 -->
<g id="edge10" class="edge">
<title>Node10&#45;&gt;Node9</title>
<path fill="none" stroke="#9a32cd" stroke-dasharray="5,2" d="M100.78,-162.5C116.12,-162.5 132.74,-162.5 147.89,-162.5"/>
<polygon fill="#9a32cd" stroke="#9a32cd" points="100.4,-159 90.4,-162.5 100.4,-166 100.4,-159"/>
<text text-anchor="middle" x="119" y="-165.5" font-family="Helvetica,sans-Serif" font-size="10.00"> data</text>
</g>
<!-- Node11 -->
<g id="node11" class="node">
<title>Node11</title>
<g id="a_node11"><a xlink:href="snd__sound_8h.html#structsnd__Music_1_1vec__snd__EventTrack" target="_top" xlink:title="[optional] list of all event tracks refered in items.">
<polygon fill="none" stroke="black" points="148,-98.5 148,-128.5 253,-128.5 253,-98.5 148,-98.5"/>
<text text-anchor="start" x="156" y="-116.5" font-family="Helvetica,sans-Serif" font-size="10.00">snd_Music::vec_snd</text>
<text text-anchor="middle" x="200.5" y="-105.5" font-family="Helvetica,sans-Serif" font-size="10.00">_EventTrack</text>
</a>
</g>
</g>
<!-- Node11&#45;&gt;Node8 -->
<g id="edge11" class="edge">
<title>Node11&#45;&gt;Node8</title>
<path fill="none" stroke="#9a32cd" stroke-dasharray="5,2" d="M263.31,-105.26C295.04,-101.03 332.3,-96.06 357.97,-92.64"/>
<polygon fill="#9a32cd" stroke="#9a32cd" points="262.68,-101.81 253.23,-106.6 263.61,-108.75 262.68,-101.81"/>
<text text-anchor="middle" x="300.5" y="-106.5" font-family="Helvetica,sans-Serif" font-size="10.00"> eventTracks</text>
</g>
<!-- Node12 -->
<g id="node12" class="node">
<title>Node12</title>
<g id="a_node12"><a xlink:href="structsnd__EventTrack.html" target="_top" xlink:title="A special track to control event trigger of tracks.">
<polygon fill="none" stroke="black" points="1.5,-104 1.5,-123 88.5,-123 88.5,-104 1.5,-104"/>
<text text-anchor="middle" x="45" y="-111" font-family="Helvetica,sans-Serif" font-size="10.00">snd_EventTrack</text>
</a>
</g>
</g>
<!-- Node12&#45;&gt;Node11 -->
<g id="edge12" class="edge">
<title>Node12&#45;&gt;Node11</title>
<path fill="none" stroke="#9a32cd" stroke-dasharray="5,2" d="M98.94,-113.5C114.81,-113.5 132.19,-113.5 147.97,-113.5"/>
<polygon fill="#9a32cd" stroke="#9a32cd" points="98.76,-110 88.76,-113.5 98.76,-117 98.76,-110"/>
<text text-anchor="middle" x="119" y="-116.5" font-family="Helvetica,sans-Serif" font-size="10.00"> data</text>
</g>
<!-- Node13 -->
<g id="node13" class="node">
<title>Node13</title>
<g id="a_node13"><a xlink:href="snd__sound_8h.html#structsnd__Music_1_1vec__snd__Track" target="_top" xlink:title="list of all tracks refered in items.">
<polygon fill="none" stroke="black" points="148,-49.5 148,-79.5 253,-79.5 253,-49.5 148,-49.5"/>
<text text-anchor="start" x="156" y="-67.5" font-family="Helvetica,sans-Serif" font-size="10.00">snd_Music::vec_snd</text>
<text text-anchor="middle" x="200.5" y="-56.5" font-family="Helvetica,sans-Serif" font-size="10.00">_Track</text>
</a>
</g>
</g>
<!-- Node13&#45;&gt;Node8 -->
<g id="edge13" class="edge">
<title>Node13&#45;&gt;Node8</title>
<path fill="none" stroke="#9a32cd" stroke-dasharray="5,2" d="M263.4,-68.92C284.58,-70.8 308.38,-73.3 330,-76.5 339.1,-77.85 348.91,-79.68 357.88,-81.52"/>
<polygon fill="#9a32cd" stroke="#9a32cd" points="263.5,-65.42 253.24,-68.06 262.9,-72.39 263.5,-65.42"/>
<text text-anchor="middle" x="300.5" y="-79.5" font-family="Helvetica,sans-Serif" font-size="10.00"> tracks</text>
</g>
<!-- Node14 -->
<g id="node14" class="node">
<title>Node14</title>
<g id="a_node14"><a xlink:href="structsnd__Track.html" target="_top" xlink:title="A fragment of single channel music score.">
<polygon fill="none" stroke="black" points="14,-55 14,-74 76,-74 76,-55 14,-55"/>
<text text-anchor="middle" x="45" y="-62" font-family="Helvetica,sans-Serif" font-size="10.00">snd_Track</text>
</a>
</g>
</g>
<!-- Node14&#45;&gt;Node13 -->
<g id="edge14" class="edge">
<title>Node14&#45;&gt;Node13</title>
<path fill="none" stroke="#9a32cd" stroke-dasharray="5,2" d="M86.34,-64.5C105.14,-64.5 127.73,-64.5 147.77,-64.5"/>
<polygon fill="#9a32cd" stroke="#9a32cd" points="86.33,-61 76.33,-64.5 86.33,-68 86.33,-61"/>
<text text-anchor="middle" x="119" y="-67.5" font-family="Helvetica,sans-Serif" font-size="10.00"> data</text>
</g>
<!-- Node15 -->
<g id="node15" class="node">
<title>Node15</title>
<g id="a_node15"><a xlink:href="snd__sound_8h.html#structsnd__Music_1_1vec__snd__Pattern" target="_top" xlink:title="list of patterns (pattern sequence).">
<polygon fill="none" stroke="black" points="148,-0.5 148,-30.5 253,-30.5 253,-0.5 148,-0.5"/>
<text text-anchor="start" x="156" y="-18.5" font-family="Helvetica,sans-Serif" font-size="10.00">snd_Music::vec_snd</text>
<text text-anchor="middle" x="200.5" y="-7.5" font-family="Helvetica,sans-Serif" font-size="10.00">_Pattern</text>
</a>
</g>
</g>
<!-- Node15&#45;&gt;Node8 -->
<g id="edge15" class="edge">
<title>Node15&#45;&gt;Node8</title>
<path fill="none" stroke="#9a32cd" stroke-dasharray="5,2" d="M262.84,-31.03C284.45,-37.3 308.67,-45.26 330,-54.5 345.84,-61.36 362.8,-71.45 374.45,-78.86"/>
<polygon fill="#9a32cd" stroke="#9a32cd" points="263.69,-27.63 253.11,-28.26 261.78,-34.36 263.69,-27.63"/>
<text text-anchor="middle" x="300.5" y="-57.5" font-family="Helvetica,sans-Serif" font-size="10.00"> patterns</text>
</g>
<!-- Node16 -->
<g id="node16" class="node">
<title>Node16</title>
<g id="a_node16"><a xlink:href="snd__sound_8h.html#structsnd__Pattern" target="_top" xlink:title="A track pattern, that corresponds to a sub&#45;score of a music.">
<polygon fill="none" stroke="black" points="10.5,-6 10.5,-25 79.5,-25 79.5,-6 10.5,-6"/>
<text text-anchor="middle" x="45" y="-13" font-family="Helvetica,sans-Serif" font-size="10.00">snd_Pattern</text>
</a>
</g>
</g>
<!-- Node16&#45;&gt;Node15 -->
<g id="edge16" class="edge">
<title>Node16&#45;&gt;Node15</title>
<path fill="none" stroke="#9a32cd" stroke-dasharray="5,2" d="M89.93,-15.5C107.97,-15.5 129,-15.5 147.78,-15.5"/>
<polygon fill="#9a32cd" stroke="#9a32cd" points="89.69,-12 79.69,-15.5 89.69,-19 89.69,-12"/>
<text text-anchor="middle" x="119" y="-18.5" font-family="Helvetica,sans-Serif" font-size="10.00"> data</text>
</g>
</g>
</svg>
