<?xml version="1.0" encoding="UTF-8" standalone="no"?>
<!DOCTYPE svg PUBLIC "-//W3C//DTD SVG 1.1//EN"
 "http://www.w3.org/Graphics/SVG/1.1/DTD/svg11.dtd">
<!-- Generated by graphviz version 12.2.0 (20241103.1931)
 -->
<!-- Title: SCC_Device Pages: 1 -->
<svg width="112pt" height="172pt"
 viewBox="0.00 0.00 111.62 171.50" xmlns="http://www.w3.org/2000/svg" xmlns:xlink="http://www.w3.org/1999/xlink">
<g id="graph0" class="graph" transform="scale(1 1) rotate(0) translate(4 167.5)">
<title>SCC_Device</title>
<!-- Node1 -->
<g id="Node000001" class="node">
<title>Node1</title>
<g id="a_Node000001"><a xlink:title="Device interface for SCC/SCC+ sound chip.">
<polygon fill="#999999" stroke="#666666" points="78.62,-19.25 7.12,-19.25 7.12,0 78.62,0 78.62,-19.25"/>
<text text-anchor="middle" x="42.88" y="-5.75" font-family="Helvetica,sans-Serif" font-size="10.00">SCC_Device</text>
</a>
</g>
</g>
<!-- Node2 -->
<g id="Node000002" class="node">
<title>Node2</title>
<g id="a_Node000002"><a xlink:href="group__SCC__DEVICE.html#structSCC__Channel" target="_top" xlink:title="Device interface for a sound channel of SCC/SCC+ sound chip.">
<polygon fill="white" stroke="#666666" points="81.25,-85.75 4.5,-85.75 4.5,-66.5 81.25,-66.5 81.25,-85.75"/>
<text text-anchor="middle" x="42.88" y="-72.25" font-family="Helvetica,sans-Serif" font-size="10.00">SCC_Channel</text>
</a>
</g>
</g>
<!-- Node2&#45;&gt;Node1 -->
<g id="edge1_Node000001_Node000002" class="edge">
<title>Node2&#45;&gt;Node1</title>
<g id="a_edge1_Node000001_Node000002"><a xlink:title=" ">
<path fill="none" stroke="#9a32cd" stroke-dasharray="5,2" d="M42.88,-54.65C42.88,-42.82 42.88,-28.54 42.88,-19.52"/>
<polygon fill="#9a32cd" stroke="#9a32cd" points="39.38,-54.64 42.88,-64.64 46.38,-54.64 39.38,-54.64"/>
</a>
</g>
<text text-anchor="middle" x="63.5" y="-39" font-family="Helvetica,sans-Serif" font-size="10.00" fill="grey"> channels</text>
</g>
<!-- Node3 -->
<g id="Node000003" class="node">
<title>Node3</title>
<g id="a_Node000003"><a xlink:href="group__SCC__DEVICE.html#structSCC__Waveform" target="_top" xlink:title="The structure of the SCC/SCC+ 32&#45;byte waveform data register.">
<polygon fill="white" stroke="#666666" points="85.75,-163.5 0,-163.5 0,-144.25 85.75,-144.25 85.75,-163.5"/>
<text text-anchor="middle" x="42.88" y="-150" font-family="Helvetica,sans-Serif" font-size="10.00">SCC_Waveform</text>
</a>
</g>
</g>
<!-- Node3&#45;&gt;Node2 -->
<g id="edge2_Node000002_Node000003" class="edge">
<title>Node3&#45;&gt;Node2</title>
<g id="a_edge2_Node000002_Node000003"><a xlink:title=" ">
<path fill="none" stroke="#9a32cd" stroke-dasharray="5,2" d="M42.88,-132.6C42.88,-117.45 42.88,-97.48 42.88,-86.1"/>
<polygon fill="#9a32cd" stroke="#9a32cd" points="39.38,-132.37 42.88,-142.37 46.38,-132.37 39.38,-132.37"/>
</a>
</g>
<text text-anchor="middle" x="73.25" y="-116.75" font-family="Helvetica,sans-Serif" font-size="10.00" fill="grey"> ro_waveform</text>
<text text-anchor="middle" x="73.25" y="-105.5" font-family="Helvetica,sans-Serif" font-size="10.00" fill="grey">wo_waveform</text>
</g>
</g>
</svg>
