<?xml version="1.0" encoding="UTF-8" standalone="no"?>
<!DOCTYPE svg PUBLIC "-//W3C//DTD SVG 1.1//EN"
 "http://www.w3.org/Graphics/SVG/1.1/DTD/svg11.dtd">
<!-- Generated by graphviz version 3.0.0 (20220413.0242)
 -->
<!-- Title: snd_Music Pages: 1 -->
<svg width="420pt" height="186pt"
 viewBox="0.00 0.00 420.00 186.00" xmlns="http://www.w3.org/2000/svg" xmlns:xlink="http://www.w3.org/1999/xlink">
<g id="graph0" class="graph" transform="scale(1 1) rotate(0) translate(4 182)">
<title>snd_Music</title>
<!-- Node1 -->
<g id="node1" class="node">
<title>Node1</title>
<g id="a_node1"><a xlink:title="Container of a music data.">
<polygon fill="#bfbfbf" stroke="black" points="348,-79 348,-98 412,-98 412,-79 348,-79"/>
<text text-anchor="middle" x="380" y="-86" font-family="Helvetica,sans-Serif" font-size="10.00">snd_Music</text>
</a>
</g>
</g>
<!-- Node2 -->
<g id="node2" class="node">
<title>Node2</title>
<g id="a_node2"><a xlink:href="snd__sound_8h.html#structsnd__Music_1_1vec__snd__SpeedTrack" target="_top" xlink:title="[optional] list of all speed tracks refered in items.">
<polygon fill="none" stroke="black" points="148,-147.5 148,-177.5 253,-177.5 253,-147.5 148,-147.5"/>
<text text-anchor="start" x="156" y="-165.5" font-family="Helvetica,sans-Serif" font-size="10.00">snd_Music::vec_snd</text>
<text text-anchor="middle" x="200.5" y="-154.5" font-family="Helvetica,sans-Serif" font-size="10.00">_SpeedTrack</text>
</a>
</g>
</g>
<!-- Node2&#45;&gt;Node1 -->
<g id="edge1" class="edge">
<title>Node2&#45;&gt;Node1</title>
<path fill="none" stroke="#9a32cd" stroke-dasharray="5,2" d="M261.38,-144.27C283.34,-136.87 308.16,-127.67 330,-117.5 342.01,-111.91 354.87,-104.23 364.4,-98.17"/>
<polygon fill="#9a32cd" stroke="#9a32cd" points="260.23,-140.96 251.84,-147.43 262.43,-147.61 260.23,-140.96"/>
<text text-anchor="middle" x="300.5" y="-143.5" font-family="Helvetica,sans-Serif" font-size="10.00"> speedTracks</text>
</g>
<!-- Node3 -->
<g id="node3" class="node">
<title>Node3</title>
<g id="a_node3"><a xlink:href="structsnd__SpeedTrack.html" target="_top" xlink:title="A special track to control speed of tracks.">
<polygon fill="none" stroke="black" points="0,-153 0,-172 90,-172 90,-153 0,-153"/>
<text text-anchor="middle" x="45" y="-160" font-family="Helvetica,sans-Serif" font-size="10.00">snd_SpeedTrack</text>
</a>
</g>
</g>
<!-- Node3&#45;&gt;Node2 -->
<g id="edge2" class="edge">
<title>Node3&#45;&gt;Node2</title>
<path fill="none" stroke="#9a32cd" stroke-dasharray="5,2" d="M100.78,-162.5C116.12,-162.5 132.74,-162.5 147.89,-162.5"/>
<polygon fill="#9a32cd" stroke="#9a32cd" points="100.4,-159 90.4,-162.5 100.4,-166 100.4,-159"/>
<text text-anchor="middle" x="119" y="-165.5" font-family="Helvetica,sans-Serif" font-size="10.00"> data</text>
</g>
<!-- Node4 -->
<g id="node4" class="node">
<title>Node4</title>
<g id="a_node4"><a xlink:href="snd__sound_8h.html#structsnd__Music_1_1vec__snd__EventTrack" target="_top" xlink:title="[optional] list of all event tracks refered in items.">
<polygon fill="none" stroke="black" points="148,-98.5 148,-128.5 253,-128.5 253,-98.5 148,-98.5"/>
<text text-anchor="start" x="156" y="-116.5" font-family="Helvetica,sans-Serif" font-size="10.00">snd_Music::vec_snd</text>
<text text-anchor="middle" x="200.5" y="-105.5" font-family="Helvetica,sans-Serif" font-size="10.00">_EventTrack</text>
</a>
</g>
</g>
<!-- Node4&#45;&gt;Node1 -->
<g id="edge3" class="edge">
<title>Node4&#45;&gt;Node1</title>
<path fill="none" stroke="#9a32cd" stroke-dasharray="5,2" d="M263.25,-104.8C291.87,-100.77 324.64,-96.16 347.99,-92.87"/>
<polygon fill="#9a32cd" stroke="#9a32cd" points="262.73,-101.34 253.32,-106.2 263.71,-108.27 262.73,-101.34"/>
<text text-anchor="middle" x="300.5" y="-105.5" font-family="Helvetica,sans-Serif" font-size="10.00"> eventTracks</text>
</g>
<!-- Node5 -->
<g id="node5" class="node">
<title>Node5</title>
<g id="a_node5"><a xlink:href="structsnd__EventTrack.html" target="_top" xlink:title="A special track to control event trigger of tracks.">
<polygon fill="none" stroke="black" points="1.5,-104 1.5,-123 88.5,-123 88.5,-104 1.5,-104"/>
<text text-anchor="middle" x="45" y="-111" font-family="Helvetica,sans-Serif" font-size="10.00">snd_EventTrack</text>
</a>
</g>
</g>
<!-- Node5&#45;&gt;Node4 -->
<g id="edge4" class="edge">
<title>Node5&#45;&gt;Node4</title>
<path fill="none" stroke="#9a32cd" stroke-dasharray="5,2" d="M98.94,-113.5C114.81,-113.5 132.19,-113.5 147.97,-113.5"/>
<polygon fill="#9a32cd" stroke="#9a32cd" points="98.76,-110 88.76,-113.5 98.76,-117 98.76,-110"/>
<text text-anchor="middle" x="119" y="-116.5" font-family="Helvetica,sans-Serif" font-size="10.00"> data</text>
</g>
<!-- Node6 -->
<g id="node6" class="node">
<title>Node6</title>
<g id="a_node6"><a xlink:href="snd__sound_8h.html#structsnd__Music_1_1vec__snd__Track" target="_top" xlink:title="list of all tracks refered in items.">
<polygon fill="none" stroke="black" points="148,-49.5 148,-79.5 253,-79.5 253,-49.5 148,-49.5"/>
<text text-anchor="start" x="156" y="-67.5" font-family="Helvetica,sans-Serif" font-size="10.00">snd_Music::vec_snd</text>
<text text-anchor="middle" x="200.5" y="-56.5" font-family="Helvetica,sans-Serif" font-size="10.00">_Track</text>
</a>
</g>
</g>
<!-- Node6&#45;&gt;Node1 -->
<g id="edge5" class="edge">
<title>Node6&#45;&gt;Node1</title>
<path fill="none" stroke="#9a32cd" stroke-dasharray="5,2" d="M263.48,-68.43C284.66,-70.27 308.45,-72.87 330,-76.5 335.79,-77.47 341.9,-78.76 347.77,-80.13"/>
<polygon fill="#9a32cd" stroke="#9a32cd" points="263.56,-64.93 253.31,-67.59 262.99,-71.91 263.56,-64.93"/>
<text text-anchor="middle" x="300.5" y="-79.5" font-family="Helvetica,sans-Serif" font-size="10.00"> tracks</text>
</g>
<!-- Node7 -->
<g id="node7" class="node">
<title>Node7</title>
<g id="a_node7"><a xlink:href="structsnd__Track.html" target="_top" xlink:title="A fragment of single channel music score.">
<polygon fill="none" stroke="black" points="14,-55 14,-74 76,-74 76,-55 14,-55"/>
<text text-anchor="middle" x="45" y="-62" font-family="Helvetica,sans-Serif" font-size="10.00">snd_Track</text>
</a>
</g>
</g>
<!-- Node7&#45;&gt;Node6 -->
<g id="edge6" class="edge">
<title>Node7&#45;&gt;Node6</title>
<path fill="none" stroke="#9a32cd" stroke-dasharray="5,2" d="M86.34,-64.5C105.14,-64.5 127.73,-64.5 147.77,-64.5"/>
<polygon fill="#9a32cd" stroke="#9a32cd" points="86.33,-61 76.33,-64.5 86.33,-68 86.33,-61"/>
<text text-anchor="middle" x="119" y="-67.5" font-family="Helvetica,sans-Serif" font-size="10.00"> data</text>
</g>
<!-- Node8 -->
<g id="node8" class="node">
<title>Node8</title>
<g id="a_node8"><a xlink:href="snd__sound_8h.html#structsnd__Music_1_1vec__snd__Pattern" target="_top" xlink:title="list of patterns (pattern sequence).">
<polygon fill="none" stroke="black" points="148,-0.5 148,-30.5 253,-30.5 253,-0.5 148,-0.5"/>
<text text-anchor="start" x="156" y="-18.5" font-family="Helvetica,sans-Serif" font-size="10.00">snd_Music::vec_snd</text>
<text text-anchor="middle" x="200.5" y="-7.5" font-family="Helvetica,sans-Serif" font-size="10.00">_Pattern</text>
</a>
</g>
</g>
<!-- Node8&#45;&gt;Node1 -->
<g id="edge7" class="edge">
<title>Node8&#45;&gt;Node1</title>
<path fill="none" stroke="#9a32cd" stroke-dasharray="5,2" d="M263.1,-29.24C284.83,-35.24 309.06,-43.28 330,-53.5 343.91,-60.28 358.11,-70.92 367.62,-78.69"/>
<polygon fill="#9a32cd" stroke="#9a32cd" points="263.87,-25.83 253.31,-26.63 262.07,-32.59 263.87,-25.83"/>
<text text-anchor="middle" x="300.5" y="-56.5" font-family="Helvetica,sans-Serif" font-size="10.00"> patterns</text>
</g>
<!-- Node9 -->
<g id="node9" class="node">
<title>Node9</title>
<g id="a_node9"><a xlink:href="snd__sound_8h.html#structsnd__Pattern" target="_top" xlink:title="A track pattern, that corresponds to a sub&#45;score of a music.">
<polygon fill="none" stroke="black" points="10.5,-6 10.5,-25 79.5,-25 79.5,-6 10.5,-6"/>
<text text-anchor="middle" x="45" y="-13" font-family="Helvetica,sans-Serif" font-size="10.00">snd_Pattern</text>
</a>
</g>
</g>
<!-- Node9&#45;&gt;Node8 -->
<g id="edge8" class="edge">
<title>Node9&#45;&gt;Node8</title>
<path fill="none" stroke="#9a32cd" stroke-dasharray="5,2" d="M89.93,-15.5C107.97,-15.5 129,-15.5 147.78,-15.5"/>
<polygon fill="#9a32cd" stroke="#9a32cd" points="89.69,-12 79.69,-15.5 89.69,-19 89.69,-12"/>
<text text-anchor="middle" x="119" y="-18.5" font-family="Helvetica,sans-Serif" font-size="10.00"> data</text>
</g>
</g>
</svg>
