<?xml version="1.0" encoding="UTF-8" standalone="no"?>
<!DOCTYPE svg PUBLIC "-//W3C//DTD SVG 1.1//EN"
 "http://www.w3.org/Graphics/SVG/1.1/DTD/svg11.dtd">
<!-- Generated by graphviz version 3.0.0 (20220413.0106)
 -->
<!-- Title: sound_eg Pages: 1 -->
<svg width="216pt" height="162pt"
 viewBox="0.00 0.00 216.00 162.00" xmlns="http://www.w3.org/2000/svg" xmlns:xlink="http://www.w3.org/1999/xlink">
<g id="graph0" class="graph" transform="scale(1 1) rotate(0) translate(4 158)">
<title>sound_eg</title>
<!-- Node1 -->
<g id="node1" class="node">
<title>Node1</title>
<g id="a_node1"><a xlink:title="Software envelope generator object.">
<polygon fill="#bfbfbf" stroke="black" points="75.5,-0.5 75.5,-19.5 134.5,-19.5 134.5,-0.5 75.5,-0.5"/>
<text text-anchor="middle" x="105" y="-7.5" font-family="Helvetica,sans-Serif" font-size="10.00">sound_eg</text>
</a>
</g>
</g>
<!-- Node2 -->
<g id="node2" class="node">
<title>Node2</title>
<g id="a_node2"><a xlink:href="structsound__eg__attribute.html" target="_top" xlink:title="Attributes of a software envelope generator object.">
<polygon fill="none" stroke="black" points="55.5,-67.5 55.5,-86.5 154.5,-86.5 154.5,-67.5 55.5,-67.5"/>
<text text-anchor="middle" x="105" y="-74.5" font-family="Helvetica,sans-Serif" font-size="10.00">sound_eg_attribute</text>
</a>
</g>
</g>
<!-- Node2&#45;&gt;Node1 -->
<g id="edge1" class="edge">
<title>Node2&#45;&gt;Node1</title>
<path fill="none" stroke="#9a32cd" stroke-dasharray="5,2" d="M105,-57.04C105,-44.67 105,-29.12 105,-19.63"/>
<polygon fill="#9a32cd" stroke="#9a32cd" points="101.5,-57.23 105,-67.23 108.5,-57.23 101.5,-57.23"/>
<text text-anchor="middle" x="113.5" y="-41" font-family="Helvetica,sans-Serif" font-size="10.00"> attr</text>
</g>
<!-- Node3 -->
<g id="node3" class="node">
<title>Node3</title>
<g id="a_node3"><a xlink:href="structsound__eg__AHDSR.html" target="_top" xlink:title="Parameters for AHDSR envelope generator.">
<polygon fill="none" stroke="black" points="0,-134.5 0,-153.5 98,-153.5 98,-134.5 0,-134.5"/>
<text text-anchor="middle" x="49" y="-141.5" font-family="Helvetica,sans-Serif" font-size="10.00">sound_eg_AHDSR</text>
</a>
</g>
</g>
<!-- Node3&#45;&gt;Node2 -->
<g id="edge2" class="edge">
<title>Node3&#45;&gt;Node2</title>
<path fill="none" stroke="#9a32cd" stroke-dasharray="5,2" d="M63.1,-126.63C74.05,-113.92 88.8,-96.8 97.57,-86.63"/>
<polygon fill="#9a32cd" stroke="#9a32cd" points="60.43,-124.37 56.55,-134.23 65.73,-128.94 60.43,-124.37"/>
<text text-anchor="middle" x="94.5" y="-108" font-family="Helvetica,sans-Serif" font-size="10.00"> ahdsr</text>
</g>
<!-- Node4 -->
<g id="node4" class="node">
<title>Node4</title>
<g id="a_node4"><a xlink:href="structsound__eg__LPCM.html" target="_top" xlink:title="Parameters for linear PCM (8&#45;bit, 60Hz) envelope generator.">
<polygon fill="none" stroke="black" points="116,-134.5 116,-153.5 208,-153.5 208,-134.5 116,-134.5"/>
<text text-anchor="middle" x="162" y="-141.5" font-family="Helvetica,sans-Serif" font-size="10.00">sound_eg_LPCM</text>
</a>
</g>
</g>
<!-- Node4&#45;&gt;Node2 -->
<g id="edge3" class="edge">
<title>Node4&#45;&gt;Node2</title>
<path fill="none" stroke="#9a32cd" stroke-dasharray="5,2" d="M147.65,-126.63C136.5,-113.92 121.48,-96.8 112.57,-86.63"/>
<polygon fill="#9a32cd" stroke="#9a32cd" points="145.09,-129.02 154.31,-134.23 150.35,-124.41 145.09,-129.02"/>
<text text-anchor="middle" x="148" y="-108" font-family="Helvetica,sans-Serif" font-size="10.00"> lpcm</text>
</g>
</g>
</svg>
