<?xml version="1.0" encoding="UTF-8" standalone="no"?>
<!DOCTYPE svg PUBLIC "-//W3C//DTD SVG 1.1//EN"
 "http://www.w3.org/Graphics/SVG/1.1/DTD/svg11.dtd">
<!-- Generated by graphviz version 12.2.0 (20241103.1931)
 -->
<!-- Title: sm2_Sprite Pages: 1 -->
<svg width="202pt" height="94pt"
 viewBox="0.00 0.00 201.62 93.75" xmlns="http://www.w3.org/2000/svg" xmlns:xlink="http://www.w3.org/1999/xlink">
<g id="graph0" class="graph" transform="scale(1 1) rotate(0) translate(4 89.75)">
<title>sm2_Sprite</title>
<!-- Node1 -->
<g id="Node000001" class="node">
<title>Node1</title>
<g id="a_Node000001"><a xlink:title="Sprite &#45; Animation state of a sprite.">
<polygon fill="#999999" stroke="#666666" points="131.25,-19.25 65.75,-19.25 65.75,0 131.25,0 131.25,-19.25"/>
<text text-anchor="middle" x="98.5" y="-5.75" font-family="Helvetica,sans-Serif" font-size="10.00">sm2_Sprite</text>
</a>
</g>
</g>
<!-- Node2 -->
<g id="Node000002" class="node">
<title>Node2</title>
<g id="a_Node000002"><a xlink:href="structsm2__SpriteSheet.html" target="_top" xlink:title="SpriteSheet &#45; Whole animation frames and cels of a sprite sheet.">
<polygon fill="white" stroke="#666666" points="91,-85.75 0,-85.75 0,-66.5 91,-66.5 91,-85.75"/>
<text text-anchor="middle" x="45.5" y="-72.25" font-family="Helvetica,sans-Serif" font-size="10.00">sm2_SpriteSheet</text>
</a>
</g>
</g>
<!-- Node2&#45;&gt;Node1 -->
<g id="edge1_Node000001_Node000002" class="edge">
<title>Node2&#45;&gt;Node1</title>
<g id="a_edge1_Node000001_Node000002"><a xlink:title=" ">
<path fill="none" stroke="#9a32cd" stroke-dasharray="5,2" d="M59.89,-57.61C70.02,-45.28 83.15,-29.31 91.19,-19.52"/>
<polygon fill="#9a32cd" stroke="#9a32cd" points="57.47,-55.04 53.83,-64.99 62.88,-59.48 57.47,-55.04"/>
</a>
</g>
<text text-anchor="middle" x="88.3" y="-39" font-family="Helvetica,sans-Serif" font-size="10.00" fill="grey"> sheet</text>
</g>
<!-- Node3 -->
<g id="Node000003" class="node">
<title>Node3</title>
<g id="a_Node000003"><a xlink:href="group__SM2__DATATYPES.html#structsm2__FrameTag" target="_top" xlink:title="FrameTag &#45; Definition of a range of animation frames.">
<polygon fill="white" stroke="#666666" points="193.62,-85.75 109.38,-85.75 109.38,-66.5 193.62,-66.5 193.62,-85.75"/>
<text text-anchor="middle" x="151.5" y="-72.25" font-family="Helvetica,sans-Serif" font-size="10.00">sm2_FrameTag</text>
</a>
</g>
</g>
<!-- Node3&#45;&gt;Node1 -->
<g id="edge2_Node000001_Node000003" class="edge">
<title>Node3&#45;&gt;Node1</title>
<g id="a_edge2_Node000001_Node000003"><a xlink:title=" ">
<path fill="none" stroke="#9a32cd" stroke-dasharray="5,2" d="M137.11,-57.61C126.98,-45.28 113.85,-29.31 105.81,-19.52"/>
<polygon fill="#9a32cd" stroke="#9a32cd" points="134.12,-59.48 143.17,-64.99 139.53,-55.04 134.12,-59.48"/>
</a>
</g>
<text text-anchor="middle" x="136.05" y="-39" font-family="Helvetica,sans-Serif" font-size="10.00" fill="grey"> tag</text>
</g>
</g>
</svg>
