<?xml version="1.0" encoding="UTF-8" standalone="no"?>
<!DOCTYPE svg PUBLIC "-//W3C//DTD SVG 1.1//EN"
 "http://www.w3.org/Graphics/SVG/1.1/DTD/svg11.dtd">
<!-- Generated by graphviz version 12.2.0 (20241103.1931)
 -->
<!-- Title: SCC Pages: 1 -->
<svg width="112pt" height="238pt"
 viewBox="0.00 0.00 111.62 238.00" xmlns="http://www.w3.org/2000/svg" xmlns:xlink="http://www.w3.org/1999/xlink">
<g id="graph0" class="graph" transform="scale(1 1) rotate(0) translate(4 234)">
<title>SCC</title>
<!-- Node1 -->
<g id="Node000001" class="node">
<title>Node1</title>
<g id="a_Node000001"><a xlink:title="SCC Handle.">
<polygon fill="#999999" stroke="#666666" points="61,-19.25 24.75,-19.25 24.75,0 61,0 61,-19.25"/>
<text text-anchor="middle" x="42.88" y="-5.75" font-family="Helvetica,sans-Serif" font-size="10.00">SCC</text>
</a>
</g>
</g>
<!-- Node2 -->
<g id="Node000002" class="node">
<title>Node2</title>
<g id="a_Node000002"><a xlink:href="group__SCC__DEVICE.html#structSCC__Device" target="_top" xlink:title="Device interface for SCC/SCC+ sound chip.">
<polygon fill="white" stroke="#666666" points="78.62,-85.75 7.12,-85.75 7.12,-66.5 78.62,-66.5 78.62,-85.75"/>
<text text-anchor="middle" x="42.88" y="-72.25" font-family="Helvetica,sans-Serif" font-size="10.00">SCC_Device</text>
</a>
</g>
</g>
<!-- Node2&#45;&gt;Node1 -->
<g id="edge1_Node000001_Node000002" class="edge">
<title>Node2&#45;&gt;Node1</title>
<g id="a_edge1_Node000001_Node000002"><a xlink:title=" ">
<path fill="none" stroke="#9a32cd" stroke-dasharray="5,2" d="M42.88,-54.65C42.88,-42.82 42.88,-28.54 42.88,-19.52"/>
<polygon fill="#9a32cd" stroke="#9a32cd" points="39.38,-54.64 42.88,-64.64 46.38,-54.64 39.38,-54.64"/>
</a>
</g>
<text text-anchor="middle" x="58.25" y="-39" font-family="Helvetica,sans-Serif" font-size="10.00" fill="grey"> device</text>
</g>
<!-- Node3 -->
<g id="Node000003" class="node">
<title>Node3</title>
<g id="a_Node000003"><a xlink:href="group__SCC__DEVICE.html#structSCC__Channel" target="_top" xlink:title="Device interface for a sound channel of SCC/SCC+ sound chip.">
<polygon fill="white" stroke="#666666" points="81.25,-152.25 4.5,-152.25 4.5,-133 81.25,-133 81.25,-152.25"/>
<text text-anchor="middle" x="42.88" y="-138.75" font-family="Helvetica,sans-Serif" font-size="10.00">SCC_Channel</text>
</a>
</g>
</g>
<!-- Node3&#45;&gt;Node2 -->
<g id="edge2_Node000002_Node000003" class="edge">
<title>Node3&#45;&gt;Node2</title>
<g id="a_edge2_Node000002_Node000003"><a xlink:title=" ">
<path fill="none" stroke="#9a32cd" stroke-dasharray="5,2" d="M42.88,-121.15C42.88,-109.32 42.88,-95.04 42.88,-86.02"/>
<polygon fill="#9a32cd" stroke="#9a32cd" points="39.38,-121.14 42.88,-131.14 46.38,-121.14 39.38,-121.14"/>
</a>
</g>
<text text-anchor="middle" x="63.5" y="-105.5" font-family="Helvetica,sans-Serif" font-size="10.00" fill="grey"> channels</text>
</g>
<!-- Node4 -->
<g id="Node000004" class="node">
<title>Node4</title>
<g id="a_Node000004"><a xlink:href="group__SCC__DEVICE.html#structSCC__Waveform" target="_top" xlink:title="The structure of the SCC/SCC+ 32&#45;byte waveform data register.">
<polygon fill="white" stroke="#666666" points="85.75,-230 0,-230 0,-210.75 85.75,-210.75 85.75,-230"/>
<text text-anchor="middle" x="42.88" y="-216.5" font-family="Helvetica,sans-Serif" font-size="10.00">SCC_Waveform</text>
</a>
</g>
</g>
<!-- Node4&#45;&gt;Node3 -->
<g id="edge3_Node000003_Node000004" class="edge">
<title>Node4&#45;&gt;Node3</title>
<g id="a_edge3_Node000003_Node000004"><a xlink:title=" ">
<path fill="none" stroke="#9a32cd" stroke-dasharray="5,2" d="M42.88,-199.1C42.88,-183.95 42.88,-163.98 42.88,-152.6"/>
<polygon fill="#9a32cd" stroke="#9a32cd" points="39.38,-198.87 42.88,-208.87 46.38,-198.87 39.38,-198.87"/>
</a>
</g>
<text text-anchor="middle" x="73.25" y="-183.25" font-family="Helvetica,sans-Serif" font-size="10.00" fill="grey"> ro_waveform</text>
<text text-anchor="middle" x="73.25" y="-172" font-family="Helvetica,sans-Serif" font-size="10.00" fill="grey">wo_waveform</text>
</g>
</g>
</svg>
