<?xml version="1.0" encoding="UTF-8" standalone="no"?>
<!DOCTYPE svg PUBLIC "-//W3C//DTD SVG 1.1//EN"
 "http://www.w3.org/Graphics/SVG/1.1/DTD/svg11.dtd">
<!-- Generated by graphviz version 7.0.4 (20221203.1631)
 -->
<!-- Title: snd_SoundAssets Pages: 1 -->
<svg width="337pt" height="182pt"
 viewBox="0.00 0.00 337.00 182.00" xmlns="http://www.w3.org/2000/svg" xmlns:xlink="http://www.w3.org/1999/xlink">
<g id="graph0" class="graph" transform="scale(1 1) rotate(0) translate(4 178)">
<title>snd_SoundAssets</title>
<!-- Node1 -->
<g id="node1" class="node">
<title>Node1</title>
<g id="a_node1"><a xlink:title="Container of list of musics, instruments, arpeggio tables, and period tables.">
<polygon fill="#999999" stroke="#666666" points="329,-96.5 233,-96.5 233,-77.5 329,-77.5 329,-96.5"/>
<text text-anchor="middle" x="281" y="-84.5" font-family="Helvetica,sans-Serif" font-size="10.00">snd_SoundAssets</text>
</a>
</g>
</g>
<!-- Node2 -->
<g id="node2" class="node">
<title>Node2</title>
<g id="a_node2"><a xlink:href="structsnd__SoundAssets_1_1vec__snd__PitchBend.html" target="_top" xlink:title=" ">
<polygon fill="white" stroke="#666666" points="116,-174 0,-174 0,-144 116,-144 116,-174"/>
<text text-anchor="start" x="8" y="-162" font-family="Helvetica,sans-Serif" font-size="10.00">snd_SoundAssets::vec</text>
<text text-anchor="middle" x="58" y="-151" font-family="Helvetica,sans-Serif" font-size="10.00">_snd_PitchBend</text>
</a>
</g>
</g>
<!-- Node2&#45;&gt;Node1 -->
<g id="edge1" class="edge">
<title>Node2&#45;&gt;Node1</title>
<path fill="none" stroke="#9a32cd" stroke-dasharray="5,2" d="M127.51,-143.23C155.03,-136.21 186.84,-127.21 215,-117 230.77,-111.28 247.99,-103.25 260.74,-96.94"/>
<polygon fill="#9a32cd" stroke="#9a32cd" points="126.72,-139.82 117.87,-145.65 128.42,-146.61 126.72,-139.82"/>
<text text-anchor="middle" x="174.5" y="-144" font-family="Helvetica,sans-Serif" font-size="10.00"> pitchBendTables</text>
</g>
<!-- Node3 -->
<g id="node3" class="node">
<title>Node3</title>
<g id="a_node3"><a xlink:href="structsnd__SoundAssets_1_1vec__snd__PeriodBend.html" target="_top" xlink:title=" ">
<polygon fill="white" stroke="#666666" points="116,-126 0,-126 0,-96 116,-96 116,-126"/>
<text text-anchor="start" x="8" y="-114" font-family="Helvetica,sans-Serif" font-size="10.00">snd_SoundAssets::vec</text>
<text text-anchor="middle" x="58" y="-103" font-family="Helvetica,sans-Serif" font-size="10.00">_snd_PeriodBend</text>
</a>
</g>
</g>
<!-- Node3&#45;&gt;Node1 -->
<g id="edge2" class="edge">
<title>Node3&#45;&gt;Node1</title>
<path fill="none" stroke="#9a32cd" stroke-dasharray="5,2" d="M127.8,-103.53C161.93,-99.82 202.28,-95.44 232.85,-92.12"/>
<polygon fill="#9a32cd" stroke="#9a32cd" points="127.56,-100.03 117.99,-104.59 128.31,-106.99 127.56,-100.03"/>
<text text-anchor="middle" x="174.5" y="-105" font-family="Helvetica,sans-Serif" font-size="10.00"> periodBendTables</text>
</g>
<!-- Node4 -->
<g id="node4" class="node">
<title>Node4</title>
<g id="a_node4"><a xlink:href="structsnd__SoundAssets_1_1vec__snd__Instrument.html" target="_top" xlink:title=" ">
<polygon fill="white" stroke="#666666" points="116,-78 0,-78 0,-48 116,-48 116,-78"/>
<text text-anchor="start" x="8" y="-66" font-family="Helvetica,sans-Serif" font-size="10.00">snd_SoundAssets::vec</text>
<text text-anchor="middle" x="58" y="-55" font-family="Helvetica,sans-Serif" font-size="10.00">_snd_Instrument</text>
</a>
</g>
</g>
<!-- Node4&#45;&gt;Node1 -->
<g id="edge3" class="edge">
<title>Node4&#45;&gt;Node1</title>
<path fill="none" stroke="#9a32cd" stroke-dasharray="5,2" d="M127.81,-69.75C154.98,-72.5 186.48,-75.78 215,-79 220.76,-79.65 226.81,-80.36 232.8,-81.08"/>
<polygon fill="#9a32cd" stroke="#9a32cd" points="128.25,-66.28 117.95,-68.76 127.55,-73.25 128.25,-66.28"/>
<text text-anchor="middle" x="174.5" y="-82" font-family="Helvetica,sans-Serif" font-size="10.00"> instruments</text>
</g>
<!-- Node5 -->
<g id="node5" class="node">
<title>Node5</title>
<g id="a_node5"><a xlink:href="structsnd__SoundAssets_1_1vec__snd__Music.html" target="_top" xlink:title=" ">
<polygon fill="white" stroke="#666666" points="116,-30 0,-30 0,0 116,0 116,-30"/>
<text text-anchor="start" x="8" y="-18" font-family="Helvetica,sans-Serif" font-size="10.00">snd_SoundAssets::vec</text>
<text text-anchor="middle" x="58" y="-7" font-family="Helvetica,sans-Serif" font-size="10.00">_snd_Music</text>
</a>
</g>
</g>
<!-- Node5&#45;&gt;Node1 -->
<g id="edge4" class="edge">
<title>Node5&#45;&gt;Node1</title>
<path fill="none" stroke="#9a32cd" stroke-dasharray="5,2" d="M127.33,-29.29C154.95,-35.9 186.88,-44.6 215,-55 231.52,-61.11 249.41,-70.11 262.23,-77.01"/>
<polygon fill="#9a32cd" stroke="#9a32cd" points="128.19,-25.9 117.66,-27.02 126.6,-32.71 128.19,-25.9"/>
<text text-anchor="middle" x="174.5" y="-58" font-family="Helvetica,sans-Serif" font-size="10.00"> musics</text>
</g>
</g>
</svg>
