<?xml version="1.0" encoding="UTF-8" standalone="no"?>
<!DOCTYPE svg PUBLIC "-//W3C//DTD SVG 1.1//EN"
 "http://www.w3.org/Graphics/SVG/1.1/DTD/svg11.dtd">
<!-- Generated by graphviz version 9.0.0 (20230911.1827)
 -->
<!-- Title: snd_SoundAssets Pages: 1 -->
<svg width="336pt" height="186pt"
 viewBox="0.00 0.00 335.50 185.50" xmlns="http://www.w3.org/2000/svg" xmlns:xlink="http://www.w3.org/1999/xlink">
<g id="graph0" class="graph" transform="scale(1 1) rotate(0) translate(4 181.5)">
<title>snd_SoundAssets</title>
<!-- Node1 -->
<g id="Node000001" class="node">
<title>Node1</title>
<g id="a_Node000001"><a xlink:title="Container of list of musics, instruments, arpeggio tables, and period tables.">
<polygon fill="#999999" stroke="#666666" points="327.5,-97.88 232,-97.88 232,-78.62 327.5,-78.62 327.5,-97.88"/>
<text text-anchor="middle" x="279.75" y="-84.38" font-family="Helvetica,sans-Serif" font-size="10.00">snd_SoundAssets</text>
</a>
</g>
</g>
<!-- Node2 -->
<g id="Node000002" class="node">
<title>Node2</title>
<g id="a_Node000002"><a xlink:href="structsnd__SoundAssets_1_1vec__snd__PitchBend.html" target="_top" xlink:title=" ">
<polygon fill="white" stroke="#666666" points="115.75,-177.5 0,-177.5 0,-147 115.75,-147 115.75,-177.5"/>
<text text-anchor="start" x="8" y="-164" font-family="Helvetica,sans-Serif" font-size="10.00">snd_SoundAssets::vec</text>
<text text-anchor="middle" x="57.88" y="-152.75" font-family="Helvetica,sans-Serif" font-size="10.00">_snd_PitchBend</text>
</a>
</g>
</g>
<!-- Node2&#45;&gt;Node1 -->
<g id="edge1_Node000001_Node000002" class="edge">
<title>Node2&#45;&gt;Node1</title>
<g id="a_edge1_Node000001_Node000002"><a xlink:title=" ">
<path fill="none" stroke="#9a32cd" stroke-dasharray="5,2" d="M127.06,-146.13C154.43,-138.94 186.05,-129.72 214,-119.25 229.99,-113.26 247.41,-104.8 260.15,-98.23"/>
<polygon fill="#9a32cd" stroke="#9a32cd" points="126.28,-142.71 117.47,-148.6 128.03,-149.49 126.28,-142.71"/>
</a>
</g>
<text text-anchor="middle" x="173.88" y="-145" font-family="Helvetica,sans-Serif" font-size="10.00" fill="grey"> pitchBendTables</text>
</g>
<!-- Node3 -->
<g id="Node000003" class="node">
<title>Node3</title>
<g id="a_Node000003"><a xlink:href="structsnd__SoundAssets_1_1vec__snd__PeriodBend.html" target="_top" xlink:title=" ">
<polygon fill="white" stroke="#666666" points="115.75,-128.5 0,-128.5 0,-98 115.75,-98 115.75,-128.5"/>
<text text-anchor="start" x="8" y="-115" font-family="Helvetica,sans-Serif" font-size="10.00">snd_SoundAssets::vec</text>
<text text-anchor="middle" x="57.88" y="-103.75" font-family="Helvetica,sans-Serif" font-size="10.00">_snd_PeriodBend</text>
</a>
</g>
</g>
<!-- Node3&#45;&gt;Node1 -->
<g id="edge2_Node000001_Node000003" class="edge">
<title>Node3&#45;&gt;Node1</title>
<g id="a_edge2_Node000001_Node000003"><a xlink:title=" ">
<path fill="none" stroke="#9a32cd" stroke-dasharray="5,2" d="M127.33,-105.47C161.28,-101.61 201.42,-97.04 231.84,-93.58"/>
<polygon fill="#9a32cd" stroke="#9a32cd" points="127.11,-101.97 117.57,-106.58 127.91,-108.92 127.11,-101.97"/>
</a>
</g>
<text text-anchor="middle" x="173.88" y="-106" font-family="Helvetica,sans-Serif" font-size="10.00" fill="grey"> periodBendTables</text>
</g>
<!-- Node4 -->
<g id="Node000004" class="node">
<title>Node4</title>
<g id="a_Node000004"><a xlink:href="structsnd__SoundAssets_1_1vec__snd__Instrument.html" target="_top" xlink:title=" ">
<polygon fill="white" stroke="#666666" points="115.75,-79.5 0,-79.5 0,-49 115.75,-49 115.75,-79.5"/>
<text text-anchor="start" x="8" y="-66" font-family="Helvetica,sans-Serif" font-size="10.00">snd_SoundAssets::vec</text>
<text text-anchor="middle" x="57.88" y="-54.75" font-family="Helvetica,sans-Serif" font-size="10.00">_snd_Instrument</text>
</a>
</g>
</g>
<!-- Node4&#45;&gt;Node1 -->
<g id="edge3_Node000001_Node000004" class="edge">
<title>Node4&#45;&gt;Node1</title>
<g id="a_edge3_Node000001_Node000004"><a xlink:title=" ">
<path fill="none" stroke="#9a32cd" stroke-dasharray="5,2" d="M127.31,-70.82C154.33,-73.51 185.64,-76.75 214,-80 219.74,-80.66 225.77,-81.38 231.73,-82.12"/>
<polygon fill="#9a32cd" stroke="#9a32cd" points="127.81,-67.35 117.52,-69.85 127.12,-74.32 127.81,-67.35"/>
</a>
</g>
<text text-anchor="middle" x="173.88" y="-81" font-family="Helvetica,sans-Serif" font-size="10.00" fill="grey"> instruments</text>
</g>
<!-- Node5 -->
<g id="Node000005" class="node">
<title>Node5</title>
<g id="a_Node000005"><a xlink:href="structsnd__SoundAssets_1_1vec__snd__Music.html" target="_top" xlink:title=" ">
<polygon fill="white" stroke="#666666" points="115.75,-30.5 0,-30.5 0,0 115.75,0 115.75,-30.5"/>
<text text-anchor="start" x="8" y="-17" font-family="Helvetica,sans-Serif" font-size="10.00">snd_SoundAssets::vec</text>
<text text-anchor="middle" x="57.88" y="-5.75" font-family="Helvetica,sans-Serif" font-size="10.00">_snd_Music</text>
</a>
</g>
</g>
<!-- Node5&#45;&gt;Node1 -->
<g id="edge4_Node000001_Node000005" class="edge">
<title>Node5&#45;&gt;Node1</title>
<g id="a_edge4_Node000001_Node000005"><a xlink:title=" ">
<path fill="none" stroke="#9a32cd" stroke-dasharray="5,2" d="M127.17,-29.98C154.56,-36.71 186.17,-45.54 214,-56 230.46,-62.19 248.28,-71.25 261.05,-78.2"/>
<polygon fill="#9a32cd" stroke="#9a32cd" points="128.13,-26.61 117.59,-27.67 126.49,-33.42 128.13,-26.61"/>
</a>
</g>
<text text-anchor="middle" x="173.88" y="-57" font-family="Helvetica,sans-Serif" font-size="10.00" fill="grey"> musics</text>
</g>
</g>
</svg>
