<?xml version="1.0" encoding="UTF-8" standalone="no"?>
<!DOCTYPE svg PUBLIC "-//W3C//DTD SVG 1.1//EN"
 "http://www.w3.org/Graphics/SVG/1.1/DTD/svg11.dtd">
<!-- Generated by graphviz version 7.0.5 (20221223.1930)
 -->
<!-- Title: snd_Music Pages: 1 -->
<svg width="272pt" height="182pt"
 viewBox="0.00 0.00 272.00 182.00" xmlns="http://www.w3.org/2000/svg" xmlns:xlink="http://www.w3.org/1999/xlink">
<g id="graph0" class="graph" transform="scale(1 1) rotate(0) translate(4 178)">
<title>snd_Music</title>
<!-- Node1 -->
<g id="node1" class="node">
<title>Node1</title>
<g id="a_node1"><a xlink:title="Container of a music data.">
<polygon fill="#999999" stroke="#666666" points="264,-96.5 200,-96.5 200,-77.5 264,-77.5 264,-96.5"/>
<text text-anchor="middle" x="232" y="-84.5" font-family="Helvetica,sans-Serif" font-size="10.00">snd_Music</text>
</a>
</g>
</g>
<!-- Node2 -->
<g id="node2" class="node">
<title>Node2</title>
<g id="a_node2"><a xlink:href="structsnd__Music_1_1vec__snd__SpeedTrack.html" target="_top" xlink:title="[optional] list of all speed tracks refered in items.">
<polygon fill="white" stroke="#666666" points="105,-174 0,-174 0,-144 105,-144 105,-174"/>
<text text-anchor="start" x="8" y="-162" font-family="Helvetica,sans-Serif" font-size="10.00">snd_Music::vec_snd</text>
<text text-anchor="middle" x="52.5" y="-151" font-family="Helvetica,sans-Serif" font-size="10.00">_SpeedTrack</text>
</a>
</g>
</g>
<!-- Node2&#45;&gt;Node1 -->
<g id="edge1" class="edge">
<title>Node2&#45;&gt;Node1</title>
<path fill="none" stroke="#9a32cd" stroke-dasharray="5,2" d="M116.29,-140.93C137.53,-134.04 161.14,-125.53 182,-116 194.05,-110.49 206.91,-102.81 216.43,-96.73"/>
<polygon fill="#9a32cd" stroke="#9a32cd" points="115.34,-137.55 106.87,-143.92 117.46,-144.23 115.34,-137.55"/>
<text text-anchor="middle" x="152.5" y="-141" font-family="Helvetica,sans-Serif" font-size="10.00"> speedTracks</text>
</g>
<!-- Node3 -->
<g id="node3" class="node">
<title>Node3</title>
<g id="a_node3"><a xlink:href="structsnd__Music_1_1vec__snd__EventTrack.html" target="_top" xlink:title="[optional] list of all event tracks refered in items.">
<polygon fill="white" stroke="#666666" points="105,-126 0,-126 0,-96 105,-96 105,-126"/>
<text text-anchor="start" x="8" y="-114" font-family="Helvetica,sans-Serif" font-size="10.00">snd_Music::vec_snd</text>
<text text-anchor="middle" x="52.5" y="-103" font-family="Helvetica,sans-Serif" font-size="10.00">_EventTrack</text>
</a>
</g>
</g>
<!-- Node3&#45;&gt;Node1 -->
<g id="edge2" class="edge">
<title>Node3&#45;&gt;Node1</title>
<path fill="none" stroke="#9a32cd" stroke-dasharray="5,2" d="M116.71,-102.45C144.88,-98.64 176.8,-94.33 199.73,-91.23"/>
<polygon fill="#9a32cd" stroke="#9a32cd" points="116.26,-98.98 106.82,-103.79 117.2,-105.92 116.26,-98.98"/>
<text text-anchor="middle" x="152.5" y="-104" font-family="Helvetica,sans-Serif" font-size="10.00"> eventTracks</text>
</g>
<!-- Node4 -->
<g id="node4" class="node">
<title>Node4</title>
<g id="a_node4"><a xlink:href="structsnd__Music_1_1vec__snd__Track.html" target="_top" xlink:title="list of all tracks refered in items.">
<polygon fill="white" stroke="#666666" points="105,-78 0,-78 0,-48 105,-48 105,-78"/>
<text text-anchor="start" x="8" y="-66" font-family="Helvetica,sans-Serif" font-size="10.00">snd_Music::vec_snd</text>
<text text-anchor="middle" x="52.5" y="-55" font-family="Helvetica,sans-Serif" font-size="10.00">_Track</text>
</a>
</g>
</g>
<!-- Node4&#45;&gt;Node1 -->
<g id="edge3" class="edge">
<title>Node4&#45;&gt;Node1</title>
<path fill="none" stroke="#9a32cd" stroke-dasharray="5,2" d="M116.74,-70.39C137.55,-72.95 160.78,-75.95 182,-79 187.72,-79.82 193.8,-80.76 199.66,-81.7"/>
<polygon fill="#9a32cd" stroke="#9a32cd" points="117.31,-66.93 106.96,-69.2 116.46,-73.88 117.31,-66.93"/>
<text text-anchor="middle" x="152.5" y="-82" font-family="Helvetica,sans-Serif" font-size="10.00"> tracks</text>
</g>
<!-- Node5 -->
<g id="node5" class="node">
<title>Node5</title>
<g id="a_node5"><a xlink:href="structsnd__Music_1_1vec__snd__Pattern.html" target="_top" xlink:title="list of patterns (pattern sequence).">
<polygon fill="white" stroke="#666666" points="105,-30 0,-30 0,0 105,0 105,-30"/>
<text text-anchor="start" x="8" y="-18" font-family="Helvetica,sans-Serif" font-size="10.00">snd_Music::vec_snd</text>
<text text-anchor="middle" x="52.5" y="-7" font-family="Helvetica,sans-Serif" font-size="10.00">_Pattern</text>
</a>
</g>
</g>
<!-- Node5&#45;&gt;Node1 -->
<g id="edge4" class="edge">
<title>Node5&#45;&gt;Node1</title>
<path fill="none" stroke="#9a32cd" stroke-dasharray="5,2" d="M116.2,-31.5C137.53,-38.03 161.22,-46.31 182,-56 194.59,-61.87 207.84,-70.42 217.39,-77.06"/>
<polygon fill="#9a32cd" stroke="#9a32cd" points="117.33,-28.19 106.74,-28.68 115.33,-34.89 117.33,-28.19"/>
<text text-anchor="middle" x="152.5" y="-59" font-family="Helvetica,sans-Serif" font-size="10.00"> patterns</text>
</g>
</g>
</svg>
