<?xml version="1.0" encoding="UTF-8" standalone="no"?>
<!DOCTYPE svg PUBLIC "-//W3C//DTD SVG 1.1//EN"
 "http://www.w3.org/Graphics/SVG/1.1/DTD/svg11.dtd">
<!-- Generated by graphviz version 7.0.2 (20221119.0110)
 -->
<!-- Title: SCC Pages: 1 -->
<svg width="112pt" height="236pt"
 viewBox="0.00 0.00 112.00 236.00" xmlns="http://www.w3.org/2000/svg" xmlns:xlink="http://www.w3.org/1999/xlink">
<g id="graph0" class="graph" transform="scale(1 1) rotate(0) translate(4 232)">
<title>SCC</title>
<!-- Node1 -->
<g id="node1" class="node">
<title>Node1</title>
<g id="a_node1"><a xlink:title="SCC Handle.">
<polygon fill="#999999" stroke="#666666" points="61.5,-19 24.5,-19 24.5,0 61.5,0 61.5,-19"/>
<text text-anchor="middle" x="43" y="-7" font-family="Helvetica,sans-Serif" font-size="10.00">SCC</text>
</a>
</g>
</g>
<!-- Node2 -->
<g id="node2" class="node">
<title>Node2</title>
<g id="a_node2"><a xlink:href="group__SCC__DEVICE.html#structSCC__Device" target="_top" xlink:title="Device interface for SCC/SCC+ sound chip.">
<polygon fill="white" stroke="#666666" points="79,-85 7,-85 7,-66 79,-66 79,-85"/>
<text text-anchor="middle" x="43" y="-73" font-family="Helvetica,sans-Serif" font-size="10.00">SCC_Device</text>
</a>
</g>
</g>
<!-- Node2&#45;&gt;Node1 -->
<g id="edge1" class="edge">
<title>Node2&#45;&gt;Node1</title>
<path fill="none" stroke="#9a32cd" stroke-dasharray="5,2" d="M43,-54.18C43,-42.44 43,-28.27 43,-19.32"/>
<polygon fill="#9a32cd" stroke="#9a32cd" points="39.5,-54.09 43,-64.09 46.5,-54.09 39.5,-54.09"/>
<text text-anchor="middle" x="58.5" y="-40" font-family="Helvetica,sans-Serif" font-size="10.00"> device</text>
</g>
<!-- Node3 -->
<g id="node3" class="node">
<title>Node3</title>
<g id="a_node3"><a xlink:href="group__SCC__DEVICE.html#structSCC__Channel" target="_top" xlink:title="Device interface for a sound channel of SCC/SCC+ sound chip.">
<polygon fill="white" stroke="#666666" points="81.5,-151 4.5,-151 4.5,-132 81.5,-132 81.5,-151"/>
<text text-anchor="middle" x="43" y="-139" font-family="Helvetica,sans-Serif" font-size="10.00">SCC_Channel</text>
</a>
</g>
</g>
<!-- Node3&#45;&gt;Node2 -->
<g id="edge2" class="edge">
<title>Node3&#45;&gt;Node2</title>
<path fill="none" stroke="#9a32cd" stroke-dasharray="5,2" d="M43,-120.18C43,-108.44 43,-94.27 43,-85.32"/>
<polygon fill="#9a32cd" stroke="#9a32cd" points="39.5,-120.09 43,-130.09 46.5,-120.09 39.5,-120.09"/>
<text text-anchor="middle" x="64" y="-106" font-family="Helvetica,sans-Serif" font-size="10.00"> channels</text>
</g>
<!-- Node4 -->
<g id="node4" class="node">
<title>Node4</title>
<g id="a_node4"><a xlink:href="group__SCC__DEVICE.html#structSCC__Waveform" target="_top" xlink:title="The structure of the SCC/SCC+ 32&#45;byte waveform data register.">
<polygon fill="white" stroke="#666666" points="86,-228 0,-228 0,-209 86,-209 86,-228"/>
<text text-anchor="middle" x="43" y="-216" font-family="Helvetica,sans-Serif" font-size="10.00">SCC_Waveform</text>
</a>
</g>
</g>
<!-- Node4&#45;&gt;Node3 -->
<g id="edge3" class="edge">
<title>Node4&#45;&gt;Node3</title>
<path fill="none" stroke="#9a32cd" stroke-dasharray="5,2" d="M43,-197.42C43,-182.43 43,-162.66 43,-151.39"/>
<polygon fill="#9a32cd" stroke="#9a32cd" points="39.5,-197.09 43,-207.09 46.5,-197.09 39.5,-197.09"/>
<text text-anchor="middle" x="73.5" y="-183" font-family="Helvetica,sans-Serif" font-size="10.00"> ro_waveform</text>
<text text-anchor="middle" x="73.5" y="-172" font-family="Helvetica,sans-Serif" font-size="10.00">wo_waveform</text>
</g>
</g>
</svg>
