<?xml version="1.0" encoding="UTF-8" standalone="no"?>
<!DOCTYPE svg PUBLIC "-//W3C//DTD SVG 1.1//EN"
 "http://www.w3.org/Graphics/SVG/1.1/DTD/svg11.dtd">
<!-- Generated by graphviz version 2.44.0 ()
 -->
<!-- Title: sound_state Pages: 1 -->
<svg width="154pt" height="162pt"
 viewBox="0.00 0.00 154.00 162.00" xmlns="http://www.w3.org/2000/svg" xmlns:xlink="http://www.w3.org/1999/xlink">
<g id="graph0" class="graph" transform="scale(1 1) rotate(0) translate(4 158)">
<title>sound_state</title>
<!-- Node1 -->
<g id="node1" class="node">
<title>Node1</title>
<g id="a_node1"><a xlink:title=" ">
<polygon fill="#bfbfbf" stroke="black" points="22,-0.5 22,-19.5 92,-19.5 92,-0.5 22,-0.5"/>
<text text-anchor="middle" x="57" y="-7.5" font-family="Helvetica,sans-Serif" font-size="10.00">sound_state</text>
</a>
</g>
</g>
<!-- Node2 -->
<g id="node2" class="node">
<title>Node2</title>
<g id="a_node2"><a xlink:href="structchannel.html" target="_top" xlink:title=" ">
<polygon fill="none" stroke="black" points="0,-67.5 0,-86.5 50,-86.5 50,-67.5 0,-67.5"/>
<text text-anchor="middle" x="25" y="-74.5" font-family="Helvetica,sans-Serif" font-size="10.00">channel</text>
</a>
</g>
</g>
<!-- Node2&#45;&gt;Node1 -->
<g id="edge1" class="edge">
<title>Node2&#45;&gt;Node1</title>
<path fill="none" stroke="#9a32cd" stroke-dasharray="5,2" d="M25.72,-57.04C26.54,-50.73 28.1,-43.83 31,-38 34.54,-30.89 40.61,-24.43 45.99,-19.61"/>
<polygon fill="#9a32cd" stroke="#9a32cd" points="22.2,-57.16 24.91,-67.41 29.18,-57.71 22.2,-57.16"/>
<text text-anchor="middle" x="52" y="-41" font-family="Helvetica,sans-Serif" font-size="10.00"> channels</text>
</g>
<!-- Node3 -->
<g id="node3" class="node">
<title>Node3</title>
<g id="a_node3"><a xlink:href="structsound__clip.html" target="_top" xlink:title="The sound clip structure.">
<polygon fill="none" stroke="black" points="68.5,-67.5 68.5,-86.5 131.5,-86.5 131.5,-67.5 68.5,-67.5"/>
<text text-anchor="middle" x="100" y="-74.5" font-family="Helvetica,sans-Serif" font-size="10.00">sound_clip</text>
</a>
</g>
</g>
<!-- Node3&#45;&gt;Node1 -->
<g id="edge2" class="edge">
<title>Node3&#45;&gt;Node1</title>
<path fill="none" stroke="#9a32cd" stroke-dasharray="5,2" d="M88.45,-58.53C80.12,-45.95 69.24,-29.51 62.71,-19.63"/>
<polygon fill="#9a32cd" stroke="#9a32cd" points="85.76,-60.82 94.2,-67.23 91.6,-56.96 85.76,-60.82"/>
<text text-anchor="middle" x="91" y="-41" font-family="Helvetica,sans-Serif" font-size="10.00"> clip</text>
</g>
<!-- Node4 -->
<g id="node4" class="node">
<title>Node4</title>
<g id="a_node4"><a xlink:href="structsound__fragment.html" target="_top" xlink:title="The sound fragment structure.">
<polygon fill="none" stroke="black" points="57,-134.5 57,-153.5 143,-153.5 143,-134.5 57,-134.5"/>
<text text-anchor="middle" x="100" y="-141.5" font-family="Helvetica,sans-Serif" font-size="10.00">sound_fragment</text>
</a>
</g>
</g>
<!-- Node4&#45;&gt;Node3 -->
<g id="edge3" class="edge">
<title>Node4&#45;&gt;Node3</title>
<path fill="none" stroke="#9a32cd" stroke-dasharray="5,2" d="M100,-124.04C100,-111.67 100,-96.12 100,-86.63"/>
<polygon fill="#9a32cd" stroke="#9a32cd" points="96.5,-124.23 100,-134.23 103.5,-124.23 96.5,-124.23"/>
<text text-anchor="middle" x="123" y="-108" font-family="Helvetica,sans-Serif" font-size="10.00"> fragments</text>
</g>
</g>
</svg>
