<?xml version="1.0" encoding="UTF-8" standalone="no"?>
<!DOCTYPE svg PUBLIC "-//W3C//DTD SVG 1.1//EN"
 "http://www.w3.org/Graphics/SVG/1.1/DTD/svg11.dtd">
<!-- Generated by graphviz version 2.44.0 ()
 -->
<!-- Title: sound_state Pages: 1 -->
<svg width="97pt" height="162pt"
 viewBox="0.00 0.00 97.00 162.00" xmlns="http://www.w3.org/2000/svg" xmlns:xlink="http://www.w3.org/1999/xlink">
<g id="graph0" class="graph" transform="scale(1 1) rotate(0) translate(4 158)">
<title>sound_state</title>
<!-- Node1 -->
<g id="node1" class="node">
<title>Node1</title>
<g id="a_node1"><a xlink:title=" ">
<polygon fill="#bfbfbf" stroke="black" points="8,-0.5 8,-19.5 78,-19.5 78,-0.5 8,-0.5"/>
<text text-anchor="middle" x="43" y="-7.5" font-family="Helvetica,sans-Serif" font-size="10.00">sound_state</text>
</a>
</g>
</g>
<!-- Node2 -->
<g id="node2" class="node">
<title>Node2</title>
<g id="a_node2"><a xlink:href="structsound__clip.html" target="_top" xlink:title="The sound clip structure.">
<polygon fill="none" stroke="black" points="11.5,-67.5 11.5,-86.5 74.5,-86.5 74.5,-67.5 11.5,-67.5"/>
<text text-anchor="middle" x="43" y="-74.5" font-family="Helvetica,sans-Serif" font-size="10.00">sound_clip</text>
</a>
</g>
</g>
<!-- Node2&#45;&gt;Node1 -->
<g id="edge1" class="edge">
<title>Node2&#45;&gt;Node1</title>
<path fill="none" stroke="#9a32cd" stroke-dasharray="5,2" d="M43,-57.04C43,-44.67 43,-29.12 43,-19.63"/>
<polygon fill="#9a32cd" stroke="#9a32cd" points="39.5,-57.23 43,-67.23 46.5,-57.23 39.5,-57.23"/>
<text text-anchor="middle" x="52" y="-41" font-family="Helvetica,sans-Serif" font-size="10.00"> clip</text>
</g>
<!-- Node3 -->
<g id="node3" class="node">
<title>Node3</title>
<g id="a_node3"><a xlink:href="structsound__fragment.html" target="_top" xlink:title="The sound fragment structure.">
<polygon fill="none" stroke="black" points="0,-134.5 0,-153.5 86,-153.5 86,-134.5 0,-134.5"/>
<text text-anchor="middle" x="43" y="-141.5" font-family="Helvetica,sans-Serif" font-size="10.00">sound_fragment</text>
</a>
</g>
</g>
<!-- Node3&#45;&gt;Node2 -->
<g id="edge2" class="edge">
<title>Node3&#45;&gt;Node2</title>
<path fill="none" stroke="#9a32cd" stroke-dasharray="5,2" d="M43,-124.04C43,-111.67 43,-96.12 43,-86.63"/>
<polygon fill="#9a32cd" stroke="#9a32cd" points="39.5,-124.23 43,-134.23 46.5,-124.23 39.5,-124.23"/>
<text text-anchor="middle" x="66" y="-108" font-family="Helvetica,sans-Serif" font-size="10.00"> fragments</text>
</g>
</g>
</svg>
