<?xml version="1.0" encoding="UTF-8" standalone="no"?>
<!DOCTYPE svg PUBLIC "-//W3C//DTD SVG 1.1//EN"
 "http://www.w3.org/Graphics/SVG/1.1/DTD/svg11.dtd">
<!-- Generated by graphviz version 2.49.3 (20211027.1534)
 -->
<!-- Title: sound_channel Pages: 1 -->
<svg width="216pt" height="229pt"
 viewBox="0.00 0.00 216.00 229.00" xmlns="http://www.w3.org/2000/svg" xmlns:xlink="http://www.w3.org/1999/xlink">
<g id="graph0" class="graph" transform="scale(1 1) rotate(0) translate(4 225)">
<title>sound_channel</title>
<!-- Node1 -->
<g id="node1" class="node">
<title>Node1</title>
<g id="a_node1"><a xlink:title=" ">
<polygon fill="#bfbfbf" stroke="black" points="64,-0.5 64,-19.5 146,-19.5 146,-0.5 64,-0.5"/>
<text text-anchor="middle" x="105" y="-7.5" font-family="Helvetica,sans-Serif" font-size="10.00">sound_channel</text>
</a>
</g>
</g>
<!-- Node2 -->
<g id="node2" class="node">
<title>Node2</title>
<g id="a_node2"><a xlink:href="structsound__eg.html" target="_top" xlink:title="Software envelope generator object.">
<polygon fill="none" stroke="black" points="75.5,-67.5 75.5,-86.5 134.5,-86.5 134.5,-67.5 75.5,-67.5"/>
<text text-anchor="middle" x="105" y="-74.5" font-family="Helvetica,sans-Serif" font-size="10.00">sound_eg</text>
</a>
</g>
</g>
<!-- Node2&#45;&gt;Node1 -->
<g id="edge1" class="edge">
<title>Node2&#45;&gt;Node1</title>
<path fill="none" stroke="#9a32cd" stroke-dasharray="5,2" d="M105,-57.04C105,-44.67 105,-29.12 105,-19.63"/>
<polygon fill="#9a32cd" stroke="#9a32cd" points="101.5,-57.23 105,-67.23 108.5,-57.23 101.5,-57.23"/>
<text text-anchor="middle" x="111.5" y="-41" font-family="Helvetica,sans-Serif" font-size="10.00"> eg</text>
</g>
<!-- Node3 -->
<g id="node3" class="node">
<title>Node3</title>
<g id="a_node3"><a xlink:href="structsound__eg__attribute.html" target="_top" xlink:title="Attributes of a software envelope generator object.">
<polygon fill="none" stroke="black" points="55.5,-134.5 55.5,-153.5 154.5,-153.5 154.5,-134.5 55.5,-134.5"/>
<text text-anchor="middle" x="105" y="-141.5" font-family="Helvetica,sans-Serif" font-size="10.00">sound_eg_attribute</text>
</a>
</g>
</g>
<!-- Node3&#45;&gt;Node2 -->
<g id="edge2" class="edge">
<title>Node3&#45;&gt;Node2</title>
<path fill="none" stroke="#9a32cd" stroke-dasharray="5,2" d="M105,-124.04C105,-111.67 105,-96.12 105,-86.63"/>
<polygon fill="#9a32cd" stroke="#9a32cd" points="101.5,-124.23 105,-134.23 108.5,-124.23 101.5,-124.23"/>
<text text-anchor="middle" x="113.5" y="-108" font-family="Helvetica,sans-Serif" font-size="10.00"> attr</text>
</g>
<!-- Node4 -->
<g id="node4" class="node">
<title>Node4</title>
<g id="a_node4"><a xlink:href="structsound__eg__AHDSR.html" target="_top" xlink:title="Parameters for AHDSR envelope generator.">
<polygon fill="none" stroke="black" points="0,-201.5 0,-220.5 98,-220.5 98,-201.5 0,-201.5"/>
<text text-anchor="middle" x="49" y="-208.5" font-family="Helvetica,sans-Serif" font-size="10.00">sound_eg_AHDSR</text>
</a>
</g>
</g>
<!-- Node4&#45;&gt;Node3 -->
<g id="edge3" class="edge">
<title>Node4&#45;&gt;Node3</title>
<path fill="none" stroke="#9a32cd" stroke-dasharray="5,2" d="M63.1,-193.63C74.05,-180.92 88.8,-163.8 97.57,-153.63"/>
<polygon fill="#9a32cd" stroke="#9a32cd" points="60.43,-191.37 56.55,-201.23 65.73,-195.94 60.43,-191.37"/>
<text text-anchor="middle" x="94.5" y="-175" font-family="Helvetica,sans-Serif" font-size="10.00"> ahdsr</text>
</g>
<!-- Node5 -->
<g id="node5" class="node">
<title>Node5</title>
<g id="a_node5"><a xlink:href="structsound__eg__LPCM.html" target="_top" xlink:title="Parameters for linear PCM (8&#45;bit, 60Hz) envelope generator.">
<polygon fill="none" stroke="black" points="116,-201.5 116,-220.5 208,-220.5 208,-201.5 116,-201.5"/>
<text text-anchor="middle" x="162" y="-208.5" font-family="Helvetica,sans-Serif" font-size="10.00">sound_eg_LPCM</text>
</a>
</g>
</g>
<!-- Node5&#45;&gt;Node3 -->
<g id="edge4" class="edge">
<title>Node5&#45;&gt;Node3</title>
<path fill="none" stroke="#9a32cd" stroke-dasharray="5,2" d="M147.65,-193.63C136.5,-180.92 121.48,-163.8 112.57,-153.63"/>
<polygon fill="#9a32cd" stroke="#9a32cd" points="145.09,-196.02 154.31,-201.23 150.35,-191.41 145.09,-196.02"/>
<text text-anchor="middle" x="148" y="-175" font-family="Helvetica,sans-Serif" font-size="10.00"> lpcm</text>
</g>
</g>
</svg>
