<?xml version="1.0" encoding="UTF-8" standalone="no"?>
<!DOCTYPE svg PUBLIC "-//W3C//DTD SVG 1.1//EN"
 "http://www.w3.org/Graphics/SVG/1.1/DTD/svg11.dtd">
<!-- Generated by graphviz version 12.2.0 (20241103.1931)
 -->
<!-- Title: include/text.h Pages: 1 -->
<svg width="84pt" height="138pt"
 viewBox="0.00 0.00 83.50 137.75" xmlns="http://www.w3.org/2000/svg" xmlns:xlink="http://www.w3.org/1999/xlink">
<g id="graph0" class="graph" transform="scale(1 1) rotate(0) translate(4 133.75)">
<title>include/text.h</title>
<!-- Node1 -->
<g id="Node000001" class="node">
<title>Node1</title>
<g id="a_Node000001"><a xlink:title="Utility functions for text ouput.">
<polygon fill="#999999" stroke="#666666" points="75.5,-129.75 2.5,-129.75 2.5,-110.5 75.5,-110.5 75.5,-129.75"/>
<text text-anchor="middle" x="39" y="-116.25" font-family="Helvetica,sans-Serif" font-size="10.00">include/text.h</text>
</a>
</g>
</g>
<!-- Node2 -->
<g id="Node000002" class="node">
<title>Node2</title>
<g id="a_Node000002"><a xlink:href="tty_8h.html" target="_top" xlink:title="Teletype/console device interface.">
<polygon fill="white" stroke="#666666" points="34,-74.5 0,-74.5 0,-55.25 34,-55.25 34,-74.5"/>
<text text-anchor="middle" x="17" y="-61" font-family="Helvetica,sans-Serif" font-size="10.00">tty.h</text>
</a>
</g>
</g>
<!-- Node1&#45;&gt;Node2 -->
<g id="edge1_Node000001_Node000002" class="edge">
<title>Node1&#45;&gt;Node2</title>
<g id="a_edge1_Node000001_Node000002"><a xlink:title=" ">
<path fill="none" stroke="#63b8ff" d="M35.37,-110.33C32.58,-103.59 28.63,-94.02 25.1,-85.49"/>
<polygon fill="#63b8ff" stroke="#63b8ff" points="28.34,-84.16 21.29,-76.26 21.87,-86.84 28.34,-84.16"/>
</a>
</g>
</g>
<!-- Node3 -->
<g id="Node000003" class="node">
<title>Node3</title>
<g id="a_Node000003"><a xlink:title=" ">
<polygon fill="#e0e0e0" stroke="#999999" points="62.75,-19.25 15.25,-19.25 15.25,0 62.75,0 62.75,-19.25"/>
<text text-anchor="middle" x="39" y="-5.75" font-family="Helvetica,sans-Serif" font-size="10.00">stdint.h</text>
</a>
</g>
</g>
<!-- Node1&#45;&gt;Node3 -->
<g id="edge3_Node000001_Node000003" class="edge">
<title>Node1&#45;&gt;Node3</title>
<g id="a_edge3_Node000001_Node000003"><a xlink:title=" ">
<path fill="none" stroke="#63b8ff" d="M40.18,-110.03C41.66,-97.65 43.87,-74.79 43,-55.25 42.64,-47.29 41.93,-38.54 41.21,-30.93"/>
<polygon fill="#63b8ff" stroke="#63b8ff" points="44.69,-30.59 40.19,-21.01 37.73,-31.31 44.69,-30.59"/>
</a>
</g>
</g>
<!-- Node2&#45;&gt;Node3 -->
<g id="edge2_Node000002_Node000003" class="edge">
<title>Node2&#45;&gt;Node3</title>
<g id="a_edge2_Node000002_Node000003"><a xlink:title=" ">
<path fill="none" stroke="#63b8ff" d="M20.63,-55.08C23.42,-48.34 27.37,-38.77 30.9,-30.24"/>
<polygon fill="#63b8ff" stroke="#63b8ff" points="34.13,-31.59 34.71,-21.01 27.66,-28.91 34.13,-31.59"/>
</a>
</g>
</g>
</g>
</svg>
