<?xml version="1.0" encoding="UTF-8" standalone="no"?>
<!DOCTYPE svg PUBLIC "-//W3C//DTD SVG 1.1//EN"
 "http://www.w3.org/Graphics/SVG/1.1/DTD/svg11.dtd">
<!-- Generated by graphviz version 7.0.4 (20221203.1631)
 -->
<!-- Title: include/text.h Pages: 1 -->
<svg width="86pt" height="137pt"
 viewBox="0.00 0.00 85.50 137.00" xmlns="http://www.w3.org/2000/svg" xmlns:xlink="http://www.w3.org/1999/xlink">
<g id="graph0" class="graph" transform="scale(1 1) rotate(0) translate(4 133)">
<title>include/text.h</title>
<!-- Node1 -->
<g id="node1" class="node">
<title>Node1</title>
<g id="a_node1"><a xlink:title="Utility functions for text ouput.">
<polygon fill="#999999" stroke="#666666" points="77.5,-129 3.5,-129 3.5,-110 77.5,-110 77.5,-129"/>
<text text-anchor="middle" x="40.5" y="-117" font-family="Helvetica,sans-Serif" font-size="10.00">include/text.h</text>
</a>
</g>
</g>
<!-- Node2 -->
<g id="node2" class="node">
<title>Node2</title>
<g id="a_node2"><a xlink:href="tty_8h.html" target="_top" xlink:title="Teletype/console device interface.">
<polygon fill="white" stroke="#666666" points="35,-74 0,-74 0,-55 35,-55 35,-74"/>
<text text-anchor="middle" x="17.5" y="-62" font-family="Helvetica,sans-Serif" font-size="10.00">tty.h</text>
</a>
</g>
</g>
<!-- Node1&#45;&gt;Node2 -->
<g id="edge1" class="edge">
<title>Node1&#45;&gt;Node2</title>
<path fill="none" stroke="#63b8ff" d="M36.7,-109.75C33.76,-102.96 29.56,-93.3 25.85,-84.73"/>
<polygon fill="#63b8ff" stroke="#63b8ff" points="29.17,-83.61 21.98,-75.83 22.75,-86.4 29.17,-83.61"/>
</g>
<!-- Node3 -->
<g id="node3" class="node">
<title>Node3</title>
<g id="a_node3"><a xlink:title=" ">
<polygon fill="#e0e0e0" stroke="#999999" points="64.5,-19 16.5,-19 16.5,0 64.5,0 64.5,-19"/>
<text text-anchor="middle" x="40.5" y="-7" font-family="Helvetica,sans-Serif" font-size="10.00">stdint.h</text>
</a>
</g>
</g>
<!-- Node1&#45;&gt;Node3 -->
<g id="edge3" class="edge">
<title>Node1&#45;&gt;Node3</title>
<path fill="none" stroke="#63b8ff" d="M41.53,-109.65C42.52,-100.68 43.94,-86.4 44.5,-74 45.15,-59.42 44.07,-42.98 42.86,-30.48"/>
<polygon fill="#63b8ff" stroke="#63b8ff" points="46.35,-30.19 41.8,-20.63 39.39,-30.95 46.35,-30.19"/>
</g>
<!-- Node2&#45;&gt;Node3 -->
<g id="edge2" class="edge">
<title>Node2&#45;&gt;Node3</title>
<path fill="none" stroke="#63b8ff" d="M21.3,-54.75C24.24,-47.96 28.44,-38.3 32.15,-29.73"/>
<polygon fill="#63b8ff" stroke="#63b8ff" points="35.25,-31.4 36.02,-20.83 28.83,-28.61 35.25,-31.4"/>
</g>
</g>
</svg>
