<?xml version="1.0" encoding="UTF-8" standalone="no"?>
<!DOCTYPE svg PUBLIC "-//W3C//DTD SVG 1.1//EN"
 "http://www.w3.org/Graphics/SVG/1.1/DTD/svg11.dtd">
<!-- Generated by graphviz version 3.0.0 (20221109.1736)
 -->
<!-- Title: include/text.h Pages: 1 -->
<svg width="86pt" height="140pt"
 viewBox="0.00 0.00 85.50 140.00" xmlns="http://www.w3.org/2000/svg" xmlns:xlink="http://www.w3.org/1999/xlink">
<g id="graph0" class="graph" transform="scale(1 1) rotate(0) translate(4 136)">
<title>include/text.h</title>
<!-- Node1 -->
<g id="node1" class="node">
<title>Node1</title>
<g id="a_node1"><a xlink:title="Utility functions for text ouput.">
<polygon fill="#bfbfbf" stroke="black" points="3.5,-112.5 3.5,-131.5 77.5,-131.5 77.5,-112.5 3.5,-112.5"/>
<text text-anchor="middle" x="40.5" y="-119.5" font-family="Helvetica,sans-Serif" font-size="10.00">include/text.h</text>
</a>
</g>
</g>
<!-- Node2 -->
<g id="node2" class="node">
<title>Node2</title>
<g id="a_node2"><a xlink:href="tty_8h.html" target="_top" xlink:title="Teletype/console device interface.">
<polygon fill="none" stroke="black" points="0,-56.5 0,-75.5 35,-75.5 35,-56.5 0,-56.5"/>
<text text-anchor="middle" x="17.5" y="-63.5" font-family="Helvetica,sans-Serif" font-size="10.00">tty.h</text>
</a>
</g>
</g>
<!-- Node1&#45;&gt;Node2 -->
<g id="edge1" class="edge">
<title>Node1&#45;&gt;Node2</title>
<path fill="none" stroke="midnightblue" d="M36.7,-112.08C33.59,-104.77 29.08,-94.18 25.21,-85.1"/>
<polygon fill="midnightblue" stroke="midnightblue" points="28.37,-83.58 21.23,-75.75 21.93,-86.32 28.37,-83.58"/>
</g>
<!-- Node3 -->
<g id="node3" class="node">
<title>Node3</title>
<g id="a_node3"><a xlink:title=" ">
<polygon fill="none" stroke="#bfbfbf" points="16.5,-0.5 16.5,-19.5 64.5,-19.5 64.5,-0.5 16.5,-0.5"/>
<text text-anchor="middle" x="40.5" y="-7.5" font-family="Helvetica,sans-Serif" font-size="10.00">stdint.h</text>
</a>
</g>
</g>
<!-- Node1&#45;&gt;Node3 -->
<g id="edge3" class="edge">
<title>Node1&#45;&gt;Node3</title>
<path fill="none" stroke="midnightblue" d="M41.49,-112.39C42.48,-103.34 43.94,-88.69 44.5,-76 45.19,-60.45 43.98,-42.83 42.72,-29.86"/>
<polygon fill="midnightblue" stroke="midnightblue" points="46.19,-29.39 41.64,-19.83 39.23,-30.14 46.19,-29.39"/>
</g>
<!-- Node2&#45;&gt;Node3 -->
<g id="edge2" class="edge">
<title>Node2&#45;&gt;Node3</title>
<path fill="none" stroke="midnightblue" d="M21.3,-56.08C24.41,-48.77 28.92,-38.18 32.79,-29.1"/>
<polygon fill="midnightblue" stroke="midnightblue" points="36.07,-30.32 36.77,-19.75 29.63,-27.58 36.07,-30.32"/>
</g>
</g>
</svg>
