<?xml version="1.0" encoding="UTF-8" standalone="no"?>
<!DOCTYPE svg PUBLIC "-//W3C//DTD SVG 1.1//EN"
 "http://www.w3.org/Graphics/SVG/1.1/DTD/svg11.dtd">
<!-- Generated by graphviz version 2.43.0 (0)
 -->
<!-- Title: include/vdp.h Pages: 1 -->
<svg width="4733pt" height="151pt"
 viewBox="0.00 0.00 4732.50 151.00" xmlns="http://www.w3.org/2000/svg" xmlns:xlink="http://www.w3.org/1999/xlink">
<g id="graph0" class="graph" transform="scale(1 1) rotate(0) translate(4 147)">
<title>include/vdp.h</title>
<!-- Node1 -->
<g id="node1" class="node">
<title>Node1</title>
<g id="a_node1"><a xlink:title=" ">
<polygon fill="#bfbfbf" stroke="black" points="2328.5,-123.5 2328.5,-142.5 2410.5,-142.5 2410.5,-123.5 2328.5,-123.5"/>
<text text-anchor="middle" x="2369.5" y="-130.5" font-family="Helvetica,sans-Serif" font-size="10.00">include/vdp.h</text>
</a>
</g>
</g>
<!-- Node2 -->
<g id="node2" class="node">
<title>Node2</title>
<g id="a_node2"><a xlink:href="metasprite_8h.html" target="_top" xlink:title=" ">
<polygon fill="none" stroke="black" points="127,-62 127,-81 244,-81 244,-62 127,-62"/>
<text text-anchor="middle" x="185.5" y="-69" font-family="Helvetica,sans-Serif" font-size="10.00">include/metasprite.h</text>
</a>
</g>
</g>
<!-- Node1&#45;&gt;Node2 -->
<g id="edge1" class="edge">
<title>Node1&#45;&gt;Node2</title>
<path fill="none" stroke="midnightblue" d="M2318,-132.22C2035.5,-133.25 671.51,-135.57 253.5,-87 242.35,-85.7 230.33,-83.44 219.54,-81.07"/>
<polygon fill="midnightblue" stroke="midnightblue" points="2318.37,-135.72 2328.36,-132.18 2318.34,-128.72 2318.37,-135.72"/>
</g>
<!-- Node3 -->
<g id="node3" class="node">
<title>Node3</title>
<g id="a_node3"><a xlink:href="msx_8h.html" target="_top" xlink:title=" ">
<polygon fill="none" stroke="black" points="0,-0.5 0,-19.5 85,-19.5 85,-0.5 0,-0.5"/>
<text text-anchor="middle" x="42.5" y="-7.5" font-family="Helvetica,sans-Serif" font-size="10.00">include/msx.h</text>
</a>
</g>
</g>
<!-- Node1&#45;&gt;Node3 -->
<g id="edge6" class="edge">
<title>Node1&#45;&gt;Node3</title>
<path fill="none" stroke="midnightblue" d="M2318.07,-132.07C1991.94,-132.36 221.84,-131.86 117.5,-87 84.46,-72.8 58.43,-36.48 47.75,-19.71"/>
<polygon fill="midnightblue" stroke="midnightblue" points="2318.18,-135.57 2328.18,-132.06 2318.18,-128.57 2318.18,-135.57"/>
</g>
<!-- Node7 -->
<g id="node7" class="node">
<title>Node7</title>
<g id="a_node7"><a xlink:href="vdp_8c.html" target="_top" xlink:title=" ">
<polygon fill="none" stroke="black" points="262.5,-62 262.5,-81 322.5,-81 322.5,-62 262.5,-62"/>
<text text-anchor="middle" x="292.5" y="-69" font-family="Helvetica,sans-Serif" font-size="10.00">src/vdp.c</text>
</a>
</g>
</g>
<!-- Node1&#45;&gt;Node7 -->
<g id="edge7" class="edge">
<title>Node1&#45;&gt;Node7</title>
<path fill="none" stroke="midnightblue" d="M2318.42,-131.89C2022.23,-131.11 531.71,-125.3 331.5,-87 324.83,-85.72 317.8,-83.43 311.57,-81.04"/>
<polygon fill="midnightblue" stroke="midnightblue" points="2318.44,-135.39 2328.44,-131.91 2318.45,-128.39 2318.44,-135.39"/>
</g>
<!-- Node8 -->
<g id="node8" class="node">
<title>Node8</title>
<g id="a_node8"><a xlink:href="vdp__cmd__execute__HMMM_8c.html" target="_top" xlink:title=" ">
<polygon fill="none" stroke="black" points="340.5,-56.5 340.5,-86.5 462.5,-86.5 462.5,-56.5 340.5,-56.5"/>
<text text-anchor="start" x="348.5" y="-74.5" font-family="Helvetica,sans-Serif" font-size="10.00">src/vdp_cmd_execute</text>
<text text-anchor="middle" x="401.5" y="-63.5" font-family="Helvetica,sans-Serif" font-size="10.00">_HMMM.c</text>
</a>
</g>
</g>
<!-- Node1&#45;&gt;Node8 -->
<g id="edge8" class="edge">
<title>Node1&#45;&gt;Node8</title>
<path fill="none" stroke="midnightblue" d="M2318.31,-132.04C2054.26,-132.03 844.13,-129.66 471.5,-87 468.66,-86.68 465.77,-86.29 462.86,-85.86"/>
<polygon fill="midnightblue" stroke="midnightblue" points="2318.38,-135.54 2328.38,-132.04 2318.38,-128.54 2318.38,-135.54"/>
</g>
<!-- Node9 -->
<g id="node9" class="node">
<title>Node9</title>
<g id="a_node9"><a xlink:href="vdp__cmd__execute__HMMV_8c.html" target="_top" xlink:title=" ">
<polygon fill="none" stroke="black" points="480.5,-56.5 480.5,-86.5 602.5,-86.5 602.5,-56.5 480.5,-56.5"/>
<text text-anchor="start" x="488.5" y="-74.5" font-family="Helvetica,sans-Serif" font-size="10.00">src/vdp_cmd_execute</text>
<text text-anchor="middle" x="541.5" y="-63.5" font-family="Helvetica,sans-Serif" font-size="10.00">_HMMV.c</text>
</a>
</g>
</g>
<!-- Node1&#45;&gt;Node9 -->
<g id="edge9" class="edge">
<title>Node1&#45;&gt;Node9</title>
<path fill="none" stroke="midnightblue" d="M2318.11,-131.92C2065.6,-131.36 954.79,-126.63 611.5,-87 608.66,-86.67 605.77,-86.29 602.86,-85.86"/>
<polygon fill="midnightblue" stroke="midnightblue" points="2318.44,-135.42 2328.45,-131.95 2318.46,-128.42 2318.44,-135.42"/>
</g>
<!-- Node10 -->
<g id="node10" class="node">
<title>Node10</title>
<g id="a_node10"><a xlink:href="vdp__cmd__execute__LMMM_8c.html" target="_top" xlink:title=" ">
<polygon fill="none" stroke="black" points="620.5,-56.5 620.5,-86.5 742.5,-86.5 742.5,-56.5 620.5,-56.5"/>
<text text-anchor="start" x="628.5" y="-74.5" font-family="Helvetica,sans-Serif" font-size="10.00">src/vdp_cmd_execute</text>
<text text-anchor="middle" x="681.5" y="-63.5" font-family="Helvetica,sans-Serif" font-size="10.00">_LMMM.c</text>
</a>
</g>
</g>
<!-- Node1&#45;&gt;Node10 -->
<g id="edge10" class="edge">
<title>Node1&#45;&gt;Node10</title>
<path fill="none" stroke="midnightblue" d="M2317.98,-131.79C2077.68,-130.63 1065.55,-123.6 751.5,-87 748.66,-86.67 745.77,-86.28 742.86,-85.85"/>
<polygon fill="midnightblue" stroke="midnightblue" points="2318.16,-135.29 2328.18,-131.84 2318.19,-128.29 2318.16,-135.29"/>
</g>
<!-- Node11 -->
<g id="node11" class="node">
<title>Node11</title>
<g id="a_node11"><a xlink:href="vdp__cmd__execute__LMMV_8c.html" target="_top" xlink:title=" ">
<polygon fill="none" stroke="black" points="760.5,-56.5 760.5,-86.5 882.5,-86.5 882.5,-56.5 760.5,-56.5"/>
<text text-anchor="start" x="768.5" y="-74.5" font-family="Helvetica,sans-Serif" font-size="10.00">src/vdp_cmd_execute</text>
<text text-anchor="middle" x="821.5" y="-63.5" font-family="Helvetica,sans-Serif" font-size="10.00">_LMMV.c</text>
</a>
</g>
</g>
<!-- Node1&#45;&gt;Node11 -->
<g id="edge11" class="edge">
<title>Node1&#45;&gt;Node11</title>
<path fill="none" stroke="midnightblue" d="M2318.09,-131.63C2091.01,-129.83 1176.5,-120.6 891.5,-87 888.67,-86.67 885.77,-86.27 882.86,-85.84"/>
<polygon fill="midnightblue" stroke="midnightblue" points="2318.35,-135.14 2328.38,-131.71 2318.41,-128.14 2318.35,-135.14"/>
</g>
<!-- Node12 -->
<g id="node12" class="node">
<title>Node12</title>
<g id="a_node12"><a xlink:href="vdp__cmd__set__unrestricted_8c.html" target="_top" xlink:title=" ">
<polygon fill="none" stroke="black" points="900.5,-62 900.5,-81 1070.5,-81 1070.5,-62 900.5,-62"/>
<text text-anchor="middle" x="985.5" y="-69" font-family="Helvetica,sans-Serif" font-size="10.00">src/vdp_cmd_set_unrestricted.c</text>
</a>
</g>
</g>
<!-- Node1&#45;&gt;Node12 -->
<g id="edge12" class="edge">
<title>Node1&#45;&gt;Node12</title>
<path fill="none" stroke="midnightblue" d="M2318.3,-132.38C2144.27,-133.22 1559.69,-132.25 1079.5,-87 1064.54,-85.59 1048.34,-83.35 1033.67,-81.05"/>
<polygon fill="midnightblue" stroke="midnightblue" points="2318.46,-135.88 2328.45,-132.33 2318.43,-128.88 2318.46,-135.88"/>
</g>
<!-- Node13 -->
<g id="node13" class="node">
<title>Node13</title>
<g id="a_node13"><a xlink:href="vdp__get__sprite__mode_8c.html" target="_top" xlink:title=" ">
<polygon fill="none" stroke="black" points="1088.5,-56.5 1088.5,-86.5 1194.5,-86.5 1194.5,-56.5 1088.5,-56.5"/>
<text text-anchor="start" x="1096.5" y="-74.5" font-family="Helvetica,sans-Serif" font-size="10.00">src/vdp_get_sprite</text>
<text text-anchor="middle" x="1141.5" y="-63.5" font-family="Helvetica,sans-Serif" font-size="10.00">_mode.c</text>
</a>
</g>
</g>
<!-- Node1&#45;&gt;Node13 -->
<g id="edge13" class="edge">
<title>Node1&#45;&gt;Node13</title>
<path fill="none" stroke="midnightblue" d="M2318.16,-131.32C2122.52,-128.55 1423.67,-116.72 1203.5,-87 1200.65,-86.62 1197.74,-86.16 1194.81,-85.65"/>
<polygon fill="midnightblue" stroke="midnightblue" points="2318.39,-134.83 2328.44,-131.47 2318.49,-127.83 2318.39,-134.83"/>
</g>
<!-- Node14 -->
<g id="node14" class="node">
<title>Node14</title>
<g id="a_node14"><a xlink:href="vdp__get__status_8c.html" target="_top" xlink:title=" ">
<polygon fill="none" stroke="black" points="1212.5,-62 1212.5,-81 1328.5,-81 1328.5,-62 1212.5,-62"/>
<text text-anchor="middle" x="1270.5" y="-69" font-family="Helvetica,sans-Serif" font-size="10.00">src/vdp_get_status.c</text>
</a>
</g>
</g>
<!-- Node1&#45;&gt;Node14 -->
<g id="edge14" class="edge">
<title>Node1&#45;&gt;Node14</title>
<path fill="none" stroke="midnightblue" d="M2318.47,-130.92C2138.02,-126.93 1530.51,-111.91 1337.5,-87 1326.64,-85.6 1314.93,-83.33 1304.39,-81"/>
<polygon fill="midnightblue" stroke="midnightblue" points="2318.42,-134.42 2328.49,-131.14 2318.57,-127.42 2318.42,-134.42"/>
</g>
<!-- Node15 -->
<g id="node15" class="node">
<title>Node15</title>
<g id="a_node15"><a xlink:href="vdp__set__adjust_8c.html" target="_top" xlink:title=" ">
<polygon fill="none" stroke="black" points="1346.5,-62 1346.5,-81 1462.5,-81 1462.5,-62 1346.5,-62"/>
<text text-anchor="middle" x="1404.5" y="-69" font-family="Helvetica,sans-Serif" font-size="10.00">src/vdp_set_adjust.c</text>
</a>
</g>
</g>
<!-- Node1&#45;&gt;Node15 -->
<g id="edge15" class="edge">
<title>Node1&#45;&gt;Node15</title>
<path fill="none" stroke="midnightblue" d="M2317.9,-132.29C2180.06,-132.44 1791.94,-128.8 1472.5,-87 1461.61,-85.57 1449.87,-83.33 1439.26,-81.03"/>
<polygon fill="midnightblue" stroke="midnightblue" points="2318.17,-135.79 2328.16,-132.27 2318.16,-128.79 2318.17,-135.79"/>
</g>
<!-- Node16 -->
<g id="node16" class="node">
<title>Node16</title>
<g id="a_node16"><a xlink:href="vdp__set__color_8c.html" target="_top" xlink:title=" ">
<polygon fill="none" stroke="black" points="1481,-62 1481,-81 1590,-81 1590,-62 1481,-62"/>
<text text-anchor="middle" x="1535.5" y="-69" font-family="Helvetica,sans-Serif" font-size="10.00">src/vdp_set_color.c</text>
</a>
</g>
</g>
<!-- Node1&#45;&gt;Node16 -->
<g id="edge16" class="edge">
<title>Node1&#45;&gt;Node16</title>
<path fill="none" stroke="midnightblue" d="M2318.02,-131.91C2193.82,-131.04 1868.12,-125.01 1599.5,-87 1589.35,-85.56 1578.42,-83.34 1568.53,-81.07"/>
<polygon fill="midnightblue" stroke="midnightblue" points="2318.34,-135.41 2328.36,-131.97 2318.38,-128.41 2318.34,-135.41"/>
</g>
<!-- Node17 -->
<g id="node17" class="node">
<title>Node17</title>
<g id="a_node17"><a xlink:href="vdp__set__color__table_8c.html" target="_top" xlink:title=" ">
<polygon fill="none" stroke="black" points="1608.5,-62 1608.5,-81 1748.5,-81 1748.5,-62 1608.5,-62"/>
<text text-anchor="middle" x="1678.5" y="-69" font-family="Helvetica,sans-Serif" font-size="10.00">src/vdp_set_color_table.c</text>
</a>
</g>
</g>
<!-- Node1&#45;&gt;Node17 -->
<g id="edge17" class="edge">
<title>Node1&#45;&gt;Node17</title>
<path fill="none" stroke="midnightblue" d="M2318.19,-130.06C2212.92,-125.66 1965.03,-113.25 1758.5,-87 1746.18,-85.43 1732.87,-83.23 1720.72,-81.01"/>
<polygon fill="midnightblue" stroke="midnightblue" points="2318.09,-133.56 2328.23,-130.47 2318.38,-126.56 2318.09,-133.56"/>
</g>
<!-- Node18 -->
<g id="node18" class="node">
<title>Node18</title>
<g id="a_node18"><a xlink:href="vdp__set__control_8c.html" target="_top" xlink:title=" ">
<polygon fill="none" stroke="black" points="1767,-62 1767,-81 1886,-81 1886,-62 1767,-62"/>
<text text-anchor="middle" x="1826.5" y="-69" font-family="Helvetica,sans-Serif" font-size="10.00">src/vdp_set_control.c</text>
</a>
</g>
</g>
<!-- Node1&#45;&gt;Node18 -->
<g id="edge18" class="edge">
<title>Node1&#45;&gt;Node18</title>
<path fill="none" stroke="midnightblue" d="M2318.26,-129.03C2231.08,-123.56 2048.44,-110.25 1895.5,-87 1884.97,-85.4 1873.63,-83.21 1863.24,-81.02"/>
<polygon fill="midnightblue" stroke="midnightblue" points="2318.22,-132.54 2328.41,-129.66 2318.65,-125.55 2318.22,-132.54"/>
</g>
<!-- Node19 -->
<g id="node19" class="node">
<title>Node19</title>
<g id="a_node19"><a xlink:href="vdp__set__hscroll_8c.html" target="_top" xlink:title=" ">
<polygon fill="none" stroke="black" points="1904.5,-62 1904.5,-81 2022.5,-81 2022.5,-62 1904.5,-62"/>
<text text-anchor="middle" x="1963.5" y="-69" font-family="Helvetica,sans-Serif" font-size="10.00">src/vdp_set_hscroll.c</text>
</a>
</g>
</g>
<!-- Node1&#45;&gt;Node19 -->
<g id="edge19" class="edge">
<title>Node1&#45;&gt;Node19</title>
<path fill="none" stroke="midnightblue" d="M2318.04,-126.41C2251.61,-118.9 2132.55,-104.47 2031.5,-87 2021.51,-85.27 2010.75,-83.12 2000.81,-81"/>
<polygon fill="midnightblue" stroke="midnightblue" points="2317.91,-129.92 2328.24,-127.55 2318.69,-122.96 2317.91,-129.92"/>
</g>
<!-- Node20 -->
<g id="node20" class="node">
<title>Node20</title>
<g id="a_node20"><a xlink:href="vdp__set__hscroll__dual__page_8c.html" target="_top" xlink:title=" ">
<polygon fill="none" stroke="black" points="2040.5,-56.5 2040.5,-86.5 2150.5,-86.5 2150.5,-56.5 2040.5,-56.5"/>
<text text-anchor="start" x="2048.5" y="-74.5" font-family="Helvetica,sans-Serif" font-size="10.00">src/vdp_set_hscroll</text>
<text text-anchor="middle" x="2095.5" y="-63.5" font-family="Helvetica,sans-Serif" font-size="10.00">_dual_page.c</text>
</a>
</g>
</g>
<!-- Node1&#45;&gt;Node20 -->
<g id="edge20" class="edge">
<title>Node1&#45;&gt;Node20</title>
<path fill="none" stroke="midnightblue" d="M2318.98,-121.35C2276.42,-112.33 2213.94,-99 2159.5,-87 2156.61,-86.36 2153.64,-85.7 2150.65,-85.04"/>
<polygon fill="midnightblue" stroke="midnightblue" points="2318.31,-124.78 2328.82,-123.43 2319.76,-117.94 2318.31,-124.78"/>
</g>
<!-- Node21 -->
<g id="node21" class="node">
<title>Node21</title>
<g id="a_node21"><a xlink:href="vdp__set__hscroll__mask_8c.html" target="_top" xlink:title=" ">
<polygon fill="none" stroke="black" points="2168.5,-56.5 2168.5,-86.5 2278.5,-86.5 2278.5,-56.5 2168.5,-56.5"/>
<text text-anchor="start" x="2176.5" y="-74.5" font-family="Helvetica,sans-Serif" font-size="10.00">src/vdp_set_hscroll</text>
<text text-anchor="middle" x="2223.5" y="-63.5" font-family="Helvetica,sans-Serif" font-size="10.00">_mask.c</text>
</a>
</g>
</g>
<!-- Node1&#45;&gt;Node21 -->
<g id="edge21" class="edge">
<title>Node1&#45;&gt;Node21</title>
<path fill="none" stroke="midnightblue" d="M2339.05,-119.59C2315.38,-109.94 2282.53,-96.56 2257.91,-86.52"/>
<polygon fill="midnightblue" stroke="midnightblue" points="2338,-122.94 2348.58,-123.48 2340.64,-116.46 2338,-122.94"/>
</g>
<!-- Node22 -->
<g id="node22" class="node">
<title>Node22</title>
<g id="a_node22"><a xlink:href="vdp__set__image__table_8c.html" target="_top" xlink:title=" ">
<polygon fill="none" stroke="black" points="2296.5,-62 2296.5,-81 2442.5,-81 2442.5,-62 2296.5,-62"/>
<text text-anchor="middle" x="2369.5" y="-69" font-family="Helvetica,sans-Serif" font-size="10.00">src/vdp_set_image_table.c</text>
</a>
</g>
</g>
<!-- Node1&#45;&gt;Node22 -->
<g id="edge22" class="edge">
<title>Node1&#45;&gt;Node22</title>
<path fill="none" stroke="midnightblue" d="M2369.5,-113.32C2369.5,-102.5 2369.5,-89.4 2369.5,-81.01"/>
<polygon fill="midnightblue" stroke="midnightblue" points="2366,-113.48 2369.5,-123.48 2373,-113.48 2366,-113.48"/>
</g>
<!-- Node23 -->
<g id="node23" class="node">
<title>Node23</title>
<g id="a_node23"><a xlink:href="vdp__set__palette_8c.html" target="_top" xlink:title=" ">
<polygon fill="none" stroke="black" points="2460.5,-62 2460.5,-81 2580.5,-81 2580.5,-62 2460.5,-62"/>
<text text-anchor="middle" x="2520.5" y="-69" font-family="Helvetica,sans-Serif" font-size="10.00">src/vdp_set_palette.c</text>
</a>
</g>
</g>
<!-- Node1&#45;&gt;Node23 -->
<g id="edge23" class="edge">
<title>Node1&#45;&gt;Node23</title>
<path fill="none" stroke="midnightblue" d="M2400.51,-119.78C2429.85,-108.22 2473.13,-91.16 2498.91,-81.01"/>
<polygon fill="midnightblue" stroke="midnightblue" points="2399.16,-116.55 2391.13,-123.48 2401.72,-123.07 2399.16,-116.55"/>
</g>
<!-- Node24 -->
<g id="node24" class="node">
<title>Node24</title>
<g id="a_node24"><a xlink:href="vdp__set__pattern__table_8c.html" target="_top" xlink:title=" ">
<polygon fill="none" stroke="black" points="2599,-56.5 2599,-86.5 2712,-86.5 2712,-56.5 2599,-56.5"/>
<text text-anchor="start" x="2607" y="-74.5" font-family="Helvetica,sans-Serif" font-size="10.00">src/vdp_set_pattern</text>
<text text-anchor="middle" x="2655.5" y="-63.5" font-family="Helvetica,sans-Serif" font-size="10.00">_table.c</text>
</a>
</g>
</g>
<!-- Node1&#45;&gt;Node24 -->
<g id="edge24" class="edge">
<title>Node1&#45;&gt;Node24</title>
<path fill="none" stroke="midnightblue" d="M2420.91,-121.7C2465.53,-112.72 2531.83,-99.23 2589.5,-87 2592.6,-86.34 2595.78,-85.66 2598.99,-84.97"/>
<polygon fill="midnightblue" stroke="midnightblue" points="2420.01,-118.31 2410.9,-123.72 2421.39,-125.18 2420.01,-118.31"/>
</g>
<!-- Node25 -->
<g id="node25" class="node">
<title>Node25</title>
<g id="a_node25"><a xlink:href="vdp__set__screen__lines_8c.html" target="_top" xlink:title=" ">
<polygon fill="none" stroke="black" points="2730.5,-56.5 2730.5,-86.5 2840.5,-86.5 2840.5,-56.5 2730.5,-56.5"/>
<text text-anchor="start" x="2738.5" y="-74.5" font-family="Helvetica,sans-Serif" font-size="10.00">src/vdp_set_screen</text>
<text text-anchor="middle" x="2785.5" y="-63.5" font-family="Helvetica,sans-Serif" font-size="10.00">_lines.c</text>
</a>
</g>
</g>
<!-- Node1&#45;&gt;Node25 -->
<g id="edge25" class="edge">
<title>Node1&#45;&gt;Node25</title>
<path fill="none" stroke="midnightblue" d="M2420.73,-127C2489.46,-119.95 2615.18,-105.8 2721.5,-87 2724.42,-86.48 2727.4,-85.92 2730.41,-85.33"/>
<polygon fill="midnightblue" stroke="midnightblue" points="2420.2,-123.54 2410.61,-128.03 2420.91,-130.5 2420.2,-123.54"/>
</g>
<!-- Node26 -->
<g id="node26" class="node">
<title>Node26</title>
<g id="a_node26"><a xlink:href="vdp__set__screen__mode_8c.html" target="_top" xlink:title=" ">
<polygon fill="none" stroke="black" points="2858.5,-56.5 2858.5,-86.5 2968.5,-86.5 2968.5,-56.5 2858.5,-56.5"/>
<text text-anchor="start" x="2866.5" y="-74.5" font-family="Helvetica,sans-Serif" font-size="10.00">src/vdp_set_screen</text>
<text text-anchor="middle" x="2913.5" y="-63.5" font-family="Helvetica,sans-Serif" font-size="10.00">_mode.c</text>
</a>
</g>
</g>
<!-- Node1&#45;&gt;Node26 -->
<g id="edge26" class="edge">
<title>Node1&#45;&gt;Node26</title>
<path fill="none" stroke="midnightblue" d="M2420.82,-129.37C2508.93,-124.38 2694.46,-111.72 2849.5,-87 2852.43,-86.53 2855.42,-86.01 2858.43,-85.45"/>
<polygon fill="midnightblue" stroke="midnightblue" points="2420.61,-125.88 2410.82,-129.93 2421,-132.87 2420.61,-125.88"/>
</g>
<!-- Node27 -->
<g id="node27" class="node">
<title>Node27</title>
<g id="a_node27"><a xlink:href="vdp__set__sprite__attribute__table_8c.html" target="_top" xlink:title=" ">
<polygon fill="none" stroke="black" points="2987,-56.5 2987,-86.5 3092,-86.5 3092,-56.5 2987,-56.5"/>
<text text-anchor="start" x="2995" y="-74.5" font-family="Helvetica,sans-Serif" font-size="10.00">src/vdp_set_sprite</text>
<text text-anchor="middle" x="3039.5" y="-63.5" font-family="Helvetica,sans-Serif" font-size="10.00">_attribute_table.c</text>
</a>
</g>
</g>
<!-- Node1&#45;&gt;Node27 -->
<g id="edge27" class="edge">
<title>Node1&#45;&gt;Node27</title>
<path fill="none" stroke="midnightblue" d="M2420.68,-130.9C2525.65,-128.06 2772.71,-118.33 2977.5,-87 2980.56,-86.53 2983.69,-85.99 2986.84,-85.4"/>
<polygon fill="midnightblue" stroke="midnightblue" points="2420.57,-127.4 2410.67,-131.16 2420.76,-134.4 2420.57,-127.4"/>
</g>
<!-- Node28 -->
<g id="node28" class="node">
<title>Node28</title>
<g id="a_node28"><a xlink:href="vdp__set__sprite__pattern__table_8c.html" target="_top" xlink:title=" ">
<polygon fill="none" stroke="black" points="3110,-56.5 3110,-86.5 3215,-86.5 3215,-56.5 3110,-56.5"/>
<text text-anchor="start" x="3118" y="-74.5" font-family="Helvetica,sans-Serif" font-size="10.00">src/vdp_set_sprite</text>
<text text-anchor="middle" x="3162.5" y="-63.5" font-family="Helvetica,sans-Serif" font-size="10.00">_pattern_table.c</text>
</a>
</g>
</g>
<!-- Node1&#45;&gt;Node28 -->
<g id="edge28" class="edge">
<title>Node1&#45;&gt;Node28</title>
<path fill="none" stroke="midnightblue" d="M2420.97,-131.87C2540.93,-130.9 2848.13,-124.62 3101.5,-87 3104.19,-86.6 3106.94,-86.14 3109.71,-85.64"/>
<polygon fill="midnightblue" stroke="midnightblue" points="2420.6,-128.37 2410.63,-131.94 2420.65,-135.37 2420.6,-128.37"/>
</g>
<!-- Node29 -->
<g id="node29" class="node">
<title>Node29</title>
<g id="a_node29"><a xlink:href="vdp__set__sprite__size_8c.html" target="_top" xlink:title=" ">
<polygon fill="none" stroke="black" points="3233,-56.5 3233,-86.5 3338,-86.5 3338,-56.5 3233,-56.5"/>
<text text-anchor="start" x="3241" y="-74.5" font-family="Helvetica,sans-Serif" font-size="10.00">src/vdp_set_sprite</text>
<text text-anchor="middle" x="3285.5" y="-63.5" font-family="Helvetica,sans-Serif" font-size="10.00">_size.c</text>
</a>
</g>
</g>
<!-- Node1&#45;&gt;Node29 -->
<g id="edge29" class="edge">
<title>Node1&#45;&gt;Node29</title>
<path fill="none" stroke="midnightblue" d="M2421.01,-132.52C2554.5,-133.17 2922.25,-130.51 3224.5,-87 3227.19,-86.61 3229.94,-86.16 3232.71,-85.66"/>
<polygon fill="midnightblue" stroke="midnightblue" points="2420.71,-129.02 2410.69,-132.46 2420.67,-136.02 2420.71,-129.02"/>
</g>
<!-- Node30 -->
<g id="node30" class="node">
<title>Node30</title>
<g id="a_node30"><a xlink:href="vdp__set__sprite__visible_8c.html" target="_top" xlink:title=" ">
<polygon fill="none" stroke="black" points="3356,-56.5 3356,-86.5 3461,-86.5 3461,-56.5 3356,-56.5"/>
<text text-anchor="start" x="3364" y="-74.5" font-family="Helvetica,sans-Serif" font-size="10.00">src/vdp_set_sprite</text>
<text text-anchor="middle" x="3408.5" y="-63.5" font-family="Helvetica,sans-Serif" font-size="10.00">_visible.c</text>
</a>
</g>
</g>
<!-- Node1&#45;&gt;Node30 -->
<g id="edge30" class="edge">
<title>Node1&#45;&gt;Node30</title>
<path fill="none" stroke="midnightblue" d="M2420.74,-130.91C2595.28,-127 3165.85,-112.54 3347.5,-87 3350.19,-86.62 3352.95,-86.18 3355.71,-85.69"/>
<polygon fill="midnightblue" stroke="midnightblue" points="2420.47,-127.42 2410.55,-131.14 2420.62,-134.41 2420.47,-127.42"/>
</g>
<!-- Node31 -->
<g id="node31" class="node">
<title>Node31</title>
<g id="a_node31"><a xlink:href="vdp__set__visible_8c.html" target="_top" xlink:title=" ">
<polygon fill="none" stroke="black" points="3479.5,-62 3479.5,-81 3597.5,-81 3597.5,-62 3479.5,-62"/>
<text text-anchor="middle" x="3538.5" y="-69" font-family="Helvetica,sans-Serif" font-size="10.00">src/vdp_set_visible.c</text>
</a>
</g>
</g>
<!-- Node1&#45;&gt;Node31 -->
<g id="edge31" class="edge">
<title>Node1&#45;&gt;Node31</title>
<path fill="none" stroke="midnightblue" d="M2420.75,-131.06C2609.19,-127.41 3263.38,-113.12 3470.5,-87 3481.52,-85.61 3493.4,-83.35 3504.1,-81.02"/>
<polygon fill="midnightblue" stroke="midnightblue" points="2420.5,-127.56 2410.57,-131.25 2420.64,-134.56 2420.5,-127.56"/>
</g>
<!-- Node32 -->
<g id="node32" class="node">
<title>Node32</title>
<g id="a_node32"><a xlink:href="vdp__set__vscroll_8c.html" target="_top" xlink:title=" ">
<polygon fill="none" stroke="black" points="3615.5,-62 3615.5,-81 3733.5,-81 3733.5,-62 3615.5,-62"/>
<text text-anchor="middle" x="3674.5" y="-69" font-family="Helvetica,sans-Serif" font-size="10.00">src/vdp_set_vscroll.c</text>
</a>
</g>
</g>
<!-- Node1&#45;&gt;Node32 -->
<g id="edge32" class="edge">
<title>Node1&#45;&gt;Node32</title>
<path fill="none" stroke="midnightblue" d="M2420.59,-131.33C2623.3,-128.47 3371.33,-116.13 3606.5,-87 3617.52,-85.64 3629.4,-83.38 3640.1,-81.05"/>
<polygon fill="midnightblue" stroke="midnightblue" points="2420.47,-127.83 2410.52,-131.47 2420.56,-134.83 2420.47,-127.83"/>
</g>
<!-- Node33 -->
<g id="node33" class="node">
<title>Node33</title>
<g id="a_node33"><a xlink:href="vdp__write__control_8c.html" target="_top" xlink:title=" ">
<polygon fill="none" stroke="black" points="3752,-62 3752,-81 3881,-81 3881,-62 3752,-62"/>
<text text-anchor="middle" x="3816.5" y="-69" font-family="Helvetica,sans-Serif" font-size="10.00">src/vdp_write_control.c</text>
</a>
</g>
</g>
<!-- Node1&#45;&gt;Node33 -->
<g id="edge33" class="edge">
<title>Node1&#45;&gt;Node33</title>
<path fill="none" stroke="midnightblue" d="M2420.75,-131.42C2637.4,-128.82 3479.04,-116.93 3742.5,-87 3754.47,-85.64 3767.39,-83.39 3779.04,-81.05"/>
<polygon fill="midnightblue" stroke="midnightblue" points="2420.57,-127.93 2410.61,-131.54 2420.66,-134.92 2420.57,-127.93"/>
</g>
<!-- Node34 -->
<g id="node34" class="node">
<title>Node34</title>
<g id="a_node34"><a xlink:href="vdp__write__palette_8c.html" target="_top" xlink:title=" ">
<polygon fill="none" stroke="black" points="3899.5,-62 3899.5,-81 4029.5,-81 4029.5,-62 3899.5,-62"/>
<text text-anchor="middle" x="3964.5" y="-69" font-family="Helvetica,sans-Serif" font-size="10.00">src/vdp_write_palette.c</text>
</a>
</g>
</g>
<!-- Node1&#45;&gt;Node34 -->
<g id="edge34" class="edge">
<title>Node1&#45;&gt;Node34</title>
<path fill="none" stroke="midnightblue" d="M2420.9,-131.61C2652,-129.69 3596.39,-119.94 3890.5,-87 3902.6,-85.64 3915.67,-83.36 3927.42,-81"/>
<polygon fill="midnightblue" stroke="midnightblue" points="2420.72,-128.11 2410.75,-131.69 2420.78,-135.11 2420.72,-128.11"/>
</g>
<!-- Node35 -->
<g id="node35" class="node">
<title>Node35</title>
<g id="a_node35"><a xlink:href="vmem__memset_8c.html" target="_top" xlink:title=" ">
<polygon fill="none" stroke="black" points="4048,-62 4048,-81 4167,-81 4167,-62 4048,-62"/>
<text text-anchor="middle" x="4107.5" y="-69" font-family="Helvetica,sans-Serif" font-size="10.00">src/vmem_memset.c</text>
</a>
</g>
</g>
<!-- Node1&#45;&gt;Node35 -->
<g id="edge35" class="edge">
<title>Node1&#45;&gt;Node35</title>
<path fill="none" stroke="midnightblue" d="M2420.67,-131.86C2664.91,-131.02 3713.72,-125.19 4038.5,-87 4049.81,-85.67 4062,-83.39 4072.95,-81.03"/>
<polygon fill="midnightblue" stroke="midnightblue" points="2420.63,-128.36 2410.65,-131.9 2420.66,-135.36 2420.63,-128.36"/>
</g>
<!-- Node36 -->
<g id="node36" class="node">
<title>Node36</title>
<g id="a_node36"><a xlink:href="vmem__read_8c.html" target="_top" xlink:title=" ">
<polygon fill="none" stroke="black" points="4185,-62 4185,-81 4286,-81 4286,-62 4185,-62"/>
<text text-anchor="middle" x="4235.5" y="-69" font-family="Helvetica,sans-Serif" font-size="10.00">src/vmem_read.c</text>
</a>
</g>
</g>
<!-- Node1&#45;&gt;Node36 -->
<g id="edge36" class="edge">
<title>Node1&#45;&gt;Node36</title>
<path fill="none" stroke="midnightblue" d="M2420.71,-132.22C2677.19,-133.08 3823.69,-134.18 4176.5,-87 4186.22,-85.7 4196.67,-83.43 4206.03,-81.07"/>
<polygon fill="midnightblue" stroke="midnightblue" points="2420.57,-128.72 2410.56,-132.18 2420.55,-135.72 2420.57,-128.72"/>
</g>
<!-- Node37 -->
<g id="node37" class="node">
<title>Node37</title>
<g id="a_node37"><a xlink:href="vmem__set__read__address_8c.html" target="_top" xlink:title=" ">
<polygon fill="none" stroke="black" points="4304.5,-62 4304.5,-81 4468.5,-81 4468.5,-62 4304.5,-62"/>
<text text-anchor="middle" x="4386.5" y="-69" font-family="Helvetica,sans-Serif" font-size="10.00">src/vmem_set_read_address.c</text>
</a>
</g>
</g>
<!-- Node1&#45;&gt;Node37 -->
<g id="edge37" class="edge">
<title>Node1&#45;&gt;Node37</title>
<path fill="none" stroke="midnightblue" d="M2420.98,-131.74C2687.86,-130.23 3916.26,-121.49 4295.5,-87 4310.32,-85.65 4326.38,-83.37 4340.82,-81.01"/>
<polygon fill="midnightblue" stroke="midnightblue" points="2420.78,-128.24 2410.8,-131.79 2420.82,-135.24 2420.78,-128.24"/>
</g>
<!-- Node38 -->
<g id="node38" class="node">
<title>Node38</title>
<g id="a_node38"><a xlink:href="vmem__set__write__address_8c.html" target="_top" xlink:title=" ">
<polygon fill="none" stroke="black" points="4486.5,-56.5 4486.5,-86.5 4602.5,-86.5 4602.5,-56.5 4486.5,-56.5"/>
<text text-anchor="start" x="4494.5" y="-74.5" font-family="Helvetica,sans-Serif" font-size="10.00">src/vmem_set_write</text>
<text text-anchor="middle" x="4544.5" y="-63.5" font-family="Helvetica,sans-Serif" font-size="10.00">_address.c</text>
</a>
</g>
</g>
<!-- Node1&#45;&gt;Node38 -->
<g id="edge38" class="edge">
<title>Node1&#45;&gt;Node38</title>
<path fill="none" stroke="midnightblue" d="M2421.26,-132.24C2703.72,-133.35 4061.37,-136.01 4477.5,-87 4480.34,-86.67 4483.23,-86.27 4486.15,-85.82"/>
<polygon fill="midnightblue" stroke="midnightblue" points="2420.92,-128.74 2410.9,-132.2 2420.89,-135.74 2420.92,-128.74"/>
</g>
<!-- Node39 -->
<g id="node39" class="node">
<title>Node39</title>
<g id="a_node39"><a xlink:href="vmem__write_8c.html" target="_top" xlink:title=" ">
<polygon fill="none" stroke="black" points="4620.5,-62 4620.5,-81 4724.5,-81 4724.5,-62 4620.5,-62"/>
<text text-anchor="middle" x="4672.5" y="-69" font-family="Helvetica,sans-Serif" font-size="10.00">src/vmem_write.c</text>
</a>
</g>
</g>
<!-- Node1&#45;&gt;Node39 -->
<g id="edge39" class="edge">
<title>Node1&#45;&gt;Node39</title>
<path fill="none" stroke="midnightblue" d="M2421.05,-131.62C2735.38,-129.25 4388,-115.48 4611.5,-87 4621.65,-85.71 4632.57,-83.41 4642.33,-81.02"/>
<polygon fill="midnightblue" stroke="midnightblue" points="2420.83,-128.13 2410.86,-131.7 2420.89,-135.13 2420.83,-128.13"/>
</g>
<!-- Node2&#45;&gt;Node3 -->
<g id="edge2" class="edge">
<title>Node2&#45;&gt;Node3</title>
<path fill="none" stroke="midnightblue" d="M155.77,-58.13C127.99,-46.57 87.25,-29.62 62.95,-19.51"/>
<polygon fill="midnightblue" stroke="midnightblue" points="154.43,-61.36 165.01,-61.98 157.12,-54.9 154.43,-61.36"/>
</g>
<!-- Node4 -->
<g id="node4" class="node">
<title>Node4</title>
<g id="a_node4"><a xlink:href="vmem__set__metasprite__a_8c.html" target="_top" xlink:title=" ">
<polygon fill="none" stroke="black" points="103.5,-0.5 103.5,-19.5 267.5,-19.5 267.5,-0.5 103.5,-0.5"/>
<text text-anchor="middle" x="185.5" y="-7.5" font-family="Helvetica,sans-Serif" font-size="10.00">src/vmem_set_metasprite_a.c</text>
</a>
</g>
</g>
<!-- Node2&#45;&gt;Node4 -->
<g id="edge3" class="edge">
<title>Node2&#45;&gt;Node4</title>
<path fill="none" stroke="midnightblue" d="M185.5,-51.82C185.5,-41 185.5,-27.9 185.5,-19.51"/>
<polygon fill="midnightblue" stroke="midnightblue" points="182,-51.98 185.5,-61.98 189,-51.98 182,-51.98"/>
</g>
<!-- Node5 -->
<g id="node5" class="node">
<title>Node5</title>
<g id="a_node5"><a xlink:href="vmem__set__metasprite__m_8c.html" target="_top" xlink:title=" ">
<polygon fill="none" stroke="black" points="286,-0.5 286,-19.5 453,-19.5 453,-0.5 286,-0.5"/>
<text text-anchor="middle" x="369.5" y="-7.5" font-family="Helvetica,sans-Serif" font-size="10.00">src/vmem_set_metasprite_m.c</text>
</a>
</g>
</g>
<!-- Node2&#45;&gt;Node5 -->
<g id="edge4" class="edge">
<title>Node2&#45;&gt;Node5</title>
<path fill="none" stroke="midnightblue" d="M221.43,-58.88C257.2,-47.32 311.24,-29.84 343.19,-19.51"/>
<polygon fill="midnightblue" stroke="midnightblue" points="220.3,-55.57 211.86,-61.98 222.45,-62.23 220.3,-55.57"/>
</g>
<!-- Node6 -->
<g id="node6" class="node">
<title>Node6</title>
<g id="a_node6"><a xlink:href="vmem__set__metasprite__s_8c.html" target="_top" xlink:title=" ">
<polygon fill="none" stroke="black" points="471,-0.5 471,-19.5 634,-19.5 634,-0.5 471,-0.5"/>
<text text-anchor="middle" x="552.5" y="-7.5" font-family="Helvetica,sans-Serif" font-size="10.00">src/vmem_set_metasprite_s.c</text>
</a>
</g>
</g>
<!-- Node2&#45;&gt;Node6 -->
<g id="edge5" class="edge">
<title>Node2&#45;&gt;Node6</title>
<path fill="none" stroke="midnightblue" d="M233.79,-59.83C240.4,-58.47 247.11,-57.16 253.5,-56 334.07,-41.36 427.48,-27.85 488.16,-19.53"/>
<polygon fill="midnightblue" stroke="midnightblue" points="232.62,-56.49 223.54,-61.96 234.05,-63.35 232.62,-56.49"/>
</g>
</g>
</svg>
