<?xml version="1.0" encoding="UTF-8" standalone="no"?>
<!DOCTYPE svg PUBLIC "-//W3C//DTD SVG 1.1//EN"
 "http://www.w3.org/Graphics/SVG/1.1/DTD/svg11.dtd">
<!-- Generated by graphviz version 9.0.0 (20230911.1827)
 -->
<!-- Title: include/vdp_unsafe.h Pages: 1 -->
<svg width="314pt" height="248pt"
 viewBox="0.00 0.00 314.44 248.25" xmlns="http://www.w3.org/2000/svg" xmlns:xlink="http://www.w3.org/1999/xlink">
<g id="graph0" class="graph" transform="scale(1 1) rotate(0) translate(4 244.25)">
<title>include/vdp_unsafe.h</title>
<!-- Node1 -->
<g id="Node000001" class="node">
<title>Node1</title>
<g id="a_Node000001"><a xlink:title="Unsafe primitive functions for VDP (Video Display Proccessor) access.">
<polygon fill="#999999" stroke="#666666" points="186.36,-240.25 78.86,-240.25 78.86,-221 186.36,-221 186.36,-240.25"/>
<text text-anchor="middle" x="132.61" y="-226.75" font-family="Helvetica,sans-Serif" font-size="10.00">include/vdp_unsafe.h</text>
</a>
</g>
</g>
<!-- Node2 -->
<g id="Node000002" class="node">
<title>Node2</title>
<g id="a_Node000002"><a xlink:title=" ">
<polygon fill="#e0e0e0" stroke="#999999" points="95.36,-19.25 47.86,-19.25 47.86,0 95.36,0 95.36,-19.25"/>
<text text-anchor="middle" x="71.61" y="-5.75" font-family="Helvetica,sans-Serif" font-size="10.00">stdint.h</text>
</a>
</g>
</g>
<!-- Node1&#45;&gt;Node2 -->
<g id="edge1_Node000001_Node000002" class="edge">
<title>Node1&#45;&gt;Node2</title>
<g id="a_edge1_Node000001_Node000002"><a xlink:title=" ">
<path fill="none" stroke="#63b8ff" d="M108.56,-220.51C76.25,-206.67 20.77,-176.89 2.61,-129.75 -4.44,-111.46 4.49,-66.95 11.61,-55.25 19.12,-42.9 31.45,-32.85 42.99,-25.43"/>
<polygon fill="#63b8ff" stroke="#63b8ff" points="44.68,-28.5 51.48,-20.38 41.1,-22.49 44.68,-28.5"/>
</a>
</g>
</g>
<!-- Node3 -->
<g id="Node000003" class="node">
<title>Node3</title>
<g id="a_Node000003"><a xlink:href="io_8h.html" target="_top" xlink:title="Definition of I/O ports.">
<polygon fill="white" stroke="#666666" points="225.11,-129.75 194.11,-129.75 194.11,-110.5 225.11,-110.5 225.11,-129.75"/>
<text text-anchor="middle" x="209.61" y="-116.25" font-family="Helvetica,sans-Serif" font-size="10.00">io.h</text>
</a>
</g>
</g>
<!-- Node1&#45;&gt;Node3 -->
<g id="edge2_Node000001_Node000003" class="edge">
<title>Node1&#45;&gt;Node3</title>
<g id="a_edge2_Node000001_Node000003"><a xlink:title=" ">
<path fill="none" stroke="#63b8ff" d="M138.91,-220.75C151.49,-203.02 179.93,-162.94 196.66,-139.38"/>
<polygon fill="#63b8ff" stroke="#63b8ff" points="199.41,-141.54 202.34,-131.36 193.7,-137.49 199.41,-141.54"/>
</a>
</g>
</g>
<!-- Node5 -->
<g id="Node000005" class="node">
<title>Node5</title>
<g id="a_Node000005"><a xlink:href="vmem_8h.html" target="_top" xlink:title="Data types and functions for VRAM access.">
<polygon fill="white" stroke="#666666" points="263.86,-185 213.36,-185 213.36,-165.75 263.86,-165.75 263.86,-185"/>
<text text-anchor="middle" x="238.61" y="-171.5" font-family="Helvetica,sans-Serif" font-size="10.00">vmem.h</text>
</a>
</g>
</g>
<!-- Node1&#45;&gt;Node5 -->
<g id="edge5_Node000001_Node000005" class="edge">
<title>Node1&#45;&gt;Node5</title>
<g id="a_edge5_Node000001_Node000005"><a xlink:title=" ">
<path fill="none" stroke="#63b8ff" d="M150.59,-220.59C166.96,-212.37 191.4,-200.09 210.37,-190.56"/>
<polygon fill="#63b8ff" stroke="#63b8ff" points="211.82,-193.75 219.19,-186.13 208.68,-187.49 211.82,-193.75"/>
</a>
</g>
</g>
<!-- Node7 -->
<g id="Node000007" class="node">
<title>Node7</title>
<g id="a_Node000007"><a xlink:href="bios_8h.html" target="_top" xlink:title="C language I/F for MSX BIOS routines.">
<polygon fill="white" stroke="#666666" points="103.36,-185 61.86,-185 61.86,-165.75 103.36,-165.75 103.36,-185"/>
<text text-anchor="middle" x="82.61" y="-171.5" font-family="Helvetica,sans-Serif" font-size="10.00">bios.h</text>
</a>
</g>
</g>
<!-- Node1&#45;&gt;Node7 -->
<g id="edge9_Node000001_Node000007" class="edge">
<title>Node1&#45;&gt;Node7</title>
<g id="a_edge9_Node000001_Node000007"><a xlink:title=" ">
<path fill="none" stroke="#63b8ff" d="M124.35,-220.83C117.45,-213.48 107.38,-202.76 98.87,-193.69"/>
<polygon fill="#63b8ff" stroke="#63b8ff" points="101.48,-191.36 92.08,-186.46 96.37,-196.15 101.48,-191.36"/>
</a>
</g>
</g>
<!-- Node4 -->
<g id="Node000004" class="node">
<title>Node4</title>
<g id="a_Node000004"><a xlink:href="config_8h.html" target="_top" xlink:title="Hack for C Compiler portability.">
<polygon fill="white" stroke="#666666" points="123.11,-74.5 74.11,-74.5 74.11,-55.25 123.11,-55.25 123.11,-74.5"/>
<text text-anchor="middle" x="98.61" y="-61" font-family="Helvetica,sans-Serif" font-size="10.00">config.h</text>
</a>
</g>
</g>
<!-- Node3&#45;&gt;Node4 -->
<g id="edge3_Node000003_Node000004" class="edge">
<title>Node3&#45;&gt;Node4</title>
<g id="a_edge3_Node000003_Node000004"><a xlink:title=" ">
<path fill="none" stroke="#63b8ff" d="M193.71,-111.5C176.55,-103.27 148.87,-89.99 127.79,-79.87"/>
<polygon fill="#63b8ff" stroke="#63b8ff" points="129.35,-76.74 118.82,-75.57 126.32,-83.05 129.35,-76.74"/>
</a>
</g>
</g>
<!-- Node4&#45;&gt;Node2 -->
<g id="edge4_Node000004_Node000002" class="edge">
<title>Node4&#45;&gt;Node2</title>
<g id="a_edge4_Node000004_Node000002"><a xlink:title=" ">
<path fill="none" stroke="#63b8ff" d="M94.15,-55.08C90.65,-48.19 85.66,-38.34 81.26,-29.66"/>
<polygon fill="#63b8ff" stroke="#63b8ff" points="84.49,-28.3 76.85,-20.96 78.25,-31.46 84.49,-28.3"/>
</a>
</g>
</g>
<!-- Node5&#45;&gt;Node2 -->
<g id="edge6_Node000005_Node000002" class="edge">
<title>Node5&#45;&gt;Node2</title>
<g id="a_edge6_Node000005_Node000002"><a xlink:title=" ">
<path fill="none" stroke="#63b8ff" d="M259.97,-165.35C283.84,-153.9 317.35,-132.93 302.61,-110.5 258.78,-43.79 159.87,-21.43 106.81,-14.09"/>
<polygon fill="#63b8ff" stroke="#63b8ff" points="107.47,-10.65 97.11,-12.87 106.59,-17.59 107.47,-10.65"/>
</a>
</g>
</g>
<!-- Node5&#45;&gt;Node3 -->
<g id="edge8_Node000005_Node000003" class="edge">
<title>Node5&#45;&gt;Node3</title>
<g id="a_edge8_Node000005_Node000003"><a xlink:title=" ">
<path fill="none" stroke="#63b8ff" d="M233.82,-165.58C230.06,-158.69 224.7,-148.84 219.98,-140.16"/>
<polygon fill="#63b8ff" stroke="#63b8ff" points="223.08,-138.55 215.23,-131.44 216.93,-141.89 223.08,-138.55"/>
</a>
</g>
</g>
<!-- Node6 -->
<g id="Node000006" class="node">
<title>Node6</title>
<g id="a_Node000006"><a xlink:title=" ">
<polygon fill="#e0e0e0" stroke="#999999" points="293.86,-129.75 243.36,-129.75 243.36,-110.5 293.86,-110.5 293.86,-129.75"/>
<text text-anchor="middle" x="268.61" y="-116.25" font-family="Helvetica,sans-Serif" font-size="10.00">stddef.h</text>
</a>
</g>
</g>
<!-- Node5&#45;&gt;Node6 -->
<g id="edge7_Node000005_Node000006" class="edge">
<title>Node5&#45;&gt;Node6</title>
<g id="a_edge7_Node000005_Node000006"><a xlink:title=" ">
<path fill="none" stroke="#63b8ff" d="M243.56,-165.58C247.49,-158.61 253.12,-148.62 258.05,-139.87"/>
<polygon fill="#63b8ff" stroke="#63b8ff" points="260.95,-141.86 262.8,-131.43 254.85,-138.42 260.95,-141.86"/>
</a>
</g>
</g>
<!-- Node7&#45;&gt;Node2 -->
<g id="edge10_Node000007_Node000002" class="edge">
<title>Node7&#45;&gt;Node2</title>
<g id="a_edge10_Node000007_Node000002"><a xlink:title=" ">
<path fill="none" stroke="#63b8ff" d="M61.6,-167.59C44.73,-160.9 22.17,-148.86 11.61,-129.75 -8.24,-93.83 28.15,-50.55 52.43,-27.32"/>
<polygon fill="#63b8ff" stroke="#63b8ff" points="54.59,-30.08 59.58,-20.74 49.85,-24.93 54.59,-30.08"/>
</a>
</g>
</g>
<!-- Node8 -->
<g id="Node000008" class="node">
<title>Node8</title>
<g id="a_Node000008"><a xlink:href="bios__const_8h.html" target="_top" xlink:title="Constant variables in the MSX BIOS ROM.">
<polygon fill="white" stroke="#666666" points="90.98,-129.75 20.23,-129.75 20.23,-110.5 90.98,-110.5 90.98,-129.75"/>
<text text-anchor="middle" x="55.61" y="-116.25" font-family="Helvetica,sans-Serif" font-size="10.00">bios_const.h</text>
</a>
</g>
</g>
<!-- Node7&#45;&gt;Node8 -->
<g id="edge11_Node000007_Node000008" class="edge">
<title>Node7&#45;&gt;Node8</title>
<g id="a_edge11_Node000007_Node000008"><a xlink:title=" ">
<path fill="none" stroke="#63b8ff" d="M78.15,-165.58C74.65,-158.69 69.66,-148.84 65.26,-140.16"/>
<polygon fill="#63b8ff" stroke="#63b8ff" points="68.49,-138.8 60.85,-131.46 62.25,-141.96 68.49,-138.8"/>
</a>
</g>
</g>
<!-- Node9 -->
<g id="Node000009" class="node">
<title>Node9</title>
<g id="a_Node000009"><a xlink:href="bios__entry_8h.html" target="_top" xlink:title="Assembler entry points for MSX BIOS functions.">
<polygon fill="white" stroke="#666666" points="176.48,-129.75 108.73,-129.75 108.73,-110.5 176.48,-110.5 176.48,-129.75"/>
<text text-anchor="middle" x="142.61" y="-116.25" font-family="Helvetica,sans-Serif" font-size="10.00">bios_entry.h</text>
</a>
</g>
</g>
<!-- Node7&#45;&gt;Node9 -->
<g id="edge14_Node000007_Node000009" class="edge">
<title>Node7&#45;&gt;Node9</title>
<g id="a_edge14_Node000007_Node000009"><a xlink:title=" ">
<path fill="none" stroke="#63b8ff" d="M92.79,-165.34C101.37,-157.72 113.88,-146.62 124.21,-137.45"/>
<polygon fill="#63b8ff" stroke="#63b8ff" points="126.29,-140.29 131.45,-131.03 121.65,-135.05 126.29,-140.29"/>
</a>
</g>
</g>
<!-- Node8&#45;&gt;Node2 -->
<g id="edge12_Node000008_Node000002" class="edge">
<title>Node8&#45;&gt;Node2</title>
<g id="a_edge12_Node000008_Node000002"><a xlink:title=" ">
<path fill="none" stroke="#63b8ff" d="M56.85,-110.02C58.54,-97.63 61.71,-74.75 64.61,-55.25 65.81,-47.2 67.18,-38.35 68.4,-30.66"/>
<polygon fill="#63b8ff" stroke="#63b8ff" points="71.82,-31.43 69.94,-21 64.91,-30.33 71.82,-31.43"/>
</a>
</g>
</g>
<!-- Node8&#45;&gt;Node4 -->
<g id="edge13_Node000008_Node000004" class="edge">
<title>Node8&#45;&gt;Node4</title>
<g id="a_edge13_Node000008_Node000004"><a xlink:title=" ">
<path fill="none" stroke="#63b8ff" d="M62.71,-110.33C68.53,-103.13 76.94,-92.71 84.17,-83.76"/>
<polygon fill="#63b8ff" stroke="#63b8ff" points="86.84,-86.02 90.4,-76.04 81.4,-81.62 86.84,-86.02"/>
</a>
</g>
</g>
<!-- Node9&#45;&gt;Node2 -->
<g id="edge15_Node000009_Node000002" class="edge">
<title>Node9&#45;&gt;Node2</title>
<g id="a_edge15_Node000009_Node000002"><a xlink:title=" ">
<path fill="none" stroke="#63b8ff" d="M143.08,-110.14C143.34,-97.08 142.21,-72.51 131.61,-55.25 124.04,-42.93 111.7,-32.88 100.17,-25.46"/>
<polygon fill="#63b8ff" stroke="#63b8ff" points="102.07,-22.52 91.69,-20.41 98.49,-28.53 102.07,-22.52"/>
</a>
</g>
</g>
<!-- Node9&#45;&gt;Node4 -->
<g id="edge16_Node000009_Node000004" class="edge">
<title>Node9&#45;&gt;Node4</title>
<g id="a_edge16_Node000009_Node000004"><a xlink:title=" ">
<path fill="none" stroke="#63b8ff" d="M135.34,-110.33C129.33,-103.05 120.6,-92.48 113.15,-83.48"/>
<polygon fill="#63b8ff" stroke="#63b8ff" points="116.06,-81.51 107,-76.03 110.67,-85.96 116.06,-81.51"/>
</a>
</g>
</g>
</g>
</svg>
