<?xml version="1.0" encoding="UTF-8" standalone="no"?>
<!DOCTYPE svg PUBLIC "-//W3C//DTD SVG 1.1//EN"
 "http://www.w3.org/Graphics/SVG/1.1/DTD/svg11.dtd">
<!-- Generated by graphviz version 9.0.0 (20230911.1827)
 -->
<!-- Title: include/vdp.h Pages: 1 -->
<svg width="137pt" height="138pt"
 viewBox="0.00 0.00 137.12 137.75" xmlns="http://www.w3.org/2000/svg" xmlns:xlink="http://www.w3.org/1999/xlink">
<g id="graph0" class="graph" transform="scale(1 1) rotate(0) translate(4 133.75)">
<title>include/vdp.h</title>
<!-- Node1 -->
<g id="Node000001" class="node">
<title>Node1</title>
<g id="a_Node000001"><a xlink:title="Data types and functions for VDP (Video Display Proccessor) access.">
<polygon fill="#999999" stroke="#666666" points="128,-129.75 55,-129.75 55,-110.5 128,-110.5 128,-129.75"/>
<text text-anchor="middle" x="91.5" y="-116.25" font-family="Helvetica,sans-Serif" font-size="10.00">include/vdp.h</text>
</a>
</g>
</g>
<!-- Node2 -->
<g id="Node000002" class="node">
<title>Node2</title>
<g id="a_Node000002"><a xlink:href="metasprite_8h.html" target="_top" xlink:title="Meta&#45;sprite ; an aggregate of sprites.">
<polygon fill="white" stroke="#666666" points="103,-74.5 0,-74.5 0,-55.25 103,-55.25 103,-74.5"/>
<text text-anchor="middle" x="51.5" y="-61" font-family="Helvetica,sans-Serif" font-size="10.00">include/metasprite.h</text>
</a>
</g>
</g>
<!-- Node1&#45;&gt;Node2 -->
<g id="edge1_Node000001_Node000002" class="edge">
<title>Node1&#45;&gt;Node2</title>
<g id="a_edge1_Node000001_Node000002"><a xlink:title=" ">
<path fill="none" stroke="#63b8ff" d="M78.03,-101.19C71.38,-92.34 63.64,-82.04 58.25,-74.86"/>
<polygon fill="#63b8ff" stroke="#63b8ff" points="75.18,-103.23 83.99,-109.12 80.78,-99.02 75.18,-103.23"/>
</a>
</g>
</g>
<!-- Node3 -->
<g id="Node000003" class="node">
<title>Node3</title>
<g id="a_Node000003"><a xlink:href="msx_8h.html" target="_top" xlink:title="Using #include &lt;msx.h&gt; includes almost all C header files in libmsx, for ease to use.">
<polygon fill="white" stroke="#666666" points="129.12,-19.25 53.88,-19.25 53.88,0 129.12,0 129.12,-19.25"/>
<text text-anchor="middle" x="91.5" y="-5.75" font-family="Helvetica,sans-Serif" font-size="10.00">include/msx.h</text>
</a>
</g>
</g>
<!-- Node1&#45;&gt;Node3 -->
<g id="edge3_Node000001_Node000003" class="edge">
<title>Node1&#45;&gt;Node3</title>
<g id="a_edge3_Node000001_Node000003"><a xlink:title=" ">
<path fill="none" stroke="#63b8ff" d="M102.62,-100.27C106.57,-92.56 110.52,-83.37 112.5,-74.5 116.98,-54.45 105.38,-31.78 97.68,-19.57"/>
<polygon fill="#63b8ff" stroke="#63b8ff" points="99.58,-98.55 97.81,-108.99 105.71,-101.93 99.58,-98.55"/>
</a>
</g>
</g>
<!-- Node2&#45;&gt;Node3 -->
<g id="edge2_Node000002_Node000003" class="edge">
<title>Node2&#45;&gt;Node3</title>
<g id="a_edge2_Node000002_Node000003"><a xlink:title=" ">
<path fill="none" stroke="#63b8ff" d="M64.97,-45.94C71.62,-37.09 79.36,-26.79 84.75,-19.61"/>
<polygon fill="#63b8ff" stroke="#63b8ff" points="62.22,-43.77 59.01,-53.87 67.82,-47.98 62.22,-43.77"/>
</a>
</g>
</g>
</g>
</svg>
