<?xml version="1.0" encoding="UTF-8" standalone="no"?>
<!DOCTYPE svg PUBLIC "-//W3C//DTD SVG 1.1//EN"
 "http://www.w3.org/Graphics/SVG/1.1/DTD/svg11.dtd">
<!-- Generated by graphviz version 12.2.0 (20241103.1931)
 -->
<!-- Title: include/vdp_unsafe.h Pages: 1 -->
<svg width="315pt" height="248pt"
 viewBox="0.00 0.00 315.38 248.25" xmlns="http://www.w3.org/2000/svg" xmlns:xlink="http://www.w3.org/1999/xlink">
<g id="graph0" class="graph" transform="scale(1 1) rotate(0) translate(4 244.25)">
<title>include/vdp_unsafe.h</title>
<!-- Node1 -->
<g id="Node000001" class="node">
<title>Node1</title>
<g id="a_Node000001"><a xlink:title="Unsafe primitive functions for VDP (Video Display Proccessor) access.">
<polygon fill="#999999" stroke="#666666" points="187.3,-240.25 79.8,-240.25 79.8,-221 187.3,-221 187.3,-240.25"/>
<text text-anchor="middle" x="133.55" y="-226.75" font-family="Helvetica,sans-Serif" font-size="10.00">include/vdp_unsafe.h</text>
</a>
</g>
</g>
<!-- Node2 -->
<g id="Node000002" class="node">
<title>Node2</title>
<g id="a_Node000002"><a xlink:title=" ">
<polygon fill="#e0e0e0" stroke="#999999" points="96.3,-19.25 48.8,-19.25 48.8,0 96.3,0 96.3,-19.25"/>
<text text-anchor="middle" x="72.55" y="-5.75" font-family="Helvetica,sans-Serif" font-size="10.00">stdint.h</text>
</a>
</g>
</g>
<!-- Node1&#45;&gt;Node2 -->
<g id="edge1_Node000001_Node000002" class="edge">
<title>Node1&#45;&gt;Node2</title>
<g id="a_edge1_Node000001_Node000002"><a xlink:title=" ">
<path fill="none" stroke="#63b8ff" d="M109.36,-220.55C76.86,-206.76 21.03,-177.03 2.55,-129.75 -4.81,-110.93 5.94,-65.91 12.55,-55.25 20.17,-42.96 32.52,-32.92 44.03,-25.5"/>
<polygon fill="#63b8ff" stroke="#63b8ff" points="45.72,-28.57 52.5,-20.43 42.12,-22.56 45.72,-28.57"/>
</a>
</g>
</g>
<!-- Node3 -->
<g id="Node000003" class="node">
<title>Node3</title>
<g id="a_Node000003"><a xlink:href="io_8h.html" target="_top" xlink:title="Definition of I/O ports.">
<polygon fill="white" stroke="#666666" points="226.05,-129.75 195.05,-129.75 195.05,-110.5 226.05,-110.5 226.05,-129.75"/>
<text text-anchor="middle" x="210.55" y="-116.25" font-family="Helvetica,sans-Serif" font-size="10.00">io.h</text>
</a>
</g>
</g>
<!-- Node1&#45;&gt;Node3 -->
<g id="edge2_Node000001_Node000003" class="edge">
<title>Node1&#45;&gt;Node3</title>
<g id="a_edge2_Node000001_Node000003"><a xlink:title=" ">
<path fill="none" stroke="#63b8ff" d="M139.85,-220.75C152.43,-203.02 180.87,-162.94 197.59,-139.38"/>
<polygon fill="#63b8ff" stroke="#63b8ff" points="200.35,-141.54 203.28,-131.36 194.64,-137.49 200.35,-141.54"/>
</a>
</g>
</g>
<!-- Node5 -->
<g id="Node000005" class="node">
<title>Node5</title>
<g id="a_Node000005"><a xlink:href="vmem_8h.html" target="_top" xlink:title="Data types and functions for VRAM access.">
<polygon fill="white" stroke="#666666" points="264.8,-185 214.3,-185 214.3,-165.75 264.8,-165.75 264.8,-185"/>
<text text-anchor="middle" x="239.55" y="-171.5" font-family="Helvetica,sans-Serif" font-size="10.00">vmem.h</text>
</a>
</g>
</g>
<!-- Node1&#45;&gt;Node5 -->
<g id="edge5_Node000001_Node000005" class="edge">
<title>Node1&#45;&gt;Node5</title>
<g id="a_edge5_Node000001_Node000005"><a xlink:title=" ">
<path fill="none" stroke="#63b8ff" d="M151.53,-220.59C167.9,-212.37 192.34,-200.09 211.31,-190.56"/>
<polygon fill="#63b8ff" stroke="#63b8ff" points="212.76,-193.75 220.13,-186.13 209.62,-187.49 212.76,-193.75"/>
</a>
</g>
</g>
<!-- Node7 -->
<g id="Node000007" class="node">
<title>Node7</title>
<g id="a_Node000007"><a xlink:href="bios_8h.html" target="_top" xlink:title="C language I/F for MSX BIOS routines.">
<polygon fill="white" stroke="#666666" points="104.3,-185 62.8,-185 62.8,-165.75 104.3,-165.75 104.3,-185"/>
<text text-anchor="middle" x="83.55" y="-171.5" font-family="Helvetica,sans-Serif" font-size="10.00">bios.h</text>
</a>
</g>
</g>
<!-- Node1&#45;&gt;Node7 -->
<g id="edge9_Node000001_Node000007" class="edge">
<title>Node1&#45;&gt;Node7</title>
<g id="a_edge9_Node000001_Node000007"><a xlink:title=" ">
<path fill="none" stroke="#63b8ff" d="M125.29,-220.83C118.39,-213.48 108.32,-202.76 99.81,-193.69"/>
<polygon fill="#63b8ff" stroke="#63b8ff" points="102.42,-191.36 93.02,-186.46 97.31,-196.15 102.42,-191.36"/>
</a>
</g>
</g>
<!-- Node4 -->
<g id="Node000004" class="node">
<title>Node4</title>
<g id="a_Node000004"><a xlink:href="config_8h.html" target="_top" xlink:title="Hack for C Compiler portability.">
<polygon fill="white" stroke="#666666" points="124.05,-74.5 75.05,-74.5 75.05,-55.25 124.05,-55.25 124.05,-74.5"/>
<text text-anchor="middle" x="99.55" y="-61" font-family="Helvetica,sans-Serif" font-size="10.00">config.h</text>
</a>
</g>
</g>
<!-- Node3&#45;&gt;Node4 -->
<g id="edge3_Node000003_Node000004" class="edge">
<title>Node3&#45;&gt;Node4</title>
<g id="a_edge3_Node000003_Node000004"><a xlink:title=" ">
<path fill="none" stroke="#63b8ff" d="M194.64,-111.5C177.49,-103.27 149.81,-89.99 128.73,-79.87"/>
<polygon fill="#63b8ff" stroke="#63b8ff" points="130.29,-76.74 119.76,-75.57 127.26,-83.05 130.29,-76.74"/>
</a>
</g>
</g>
<!-- Node4&#45;&gt;Node2 -->
<g id="edge4_Node000004_Node000002" class="edge">
<title>Node4&#45;&gt;Node2</title>
<g id="a_edge4_Node000004_Node000002"><a xlink:title=" ">
<path fill="none" stroke="#63b8ff" d="M95.09,-55.08C91.59,-48.19 86.6,-38.34 82.2,-29.66"/>
<polygon fill="#63b8ff" stroke="#63b8ff" points="85.43,-28.3 77.79,-20.96 79.19,-31.46 85.43,-28.3"/>
</a>
</g>
</g>
<!-- Node5&#45;&gt;Node2 -->
<g id="edge6_Node000005_Node000002" class="edge">
<title>Node5&#45;&gt;Node2</title>
<g id="a_edge6_Node000005_Node000002"><a xlink:title=" ">
<path fill="none" stroke="#63b8ff" d="M260.91,-165.35C284.78,-153.9 318.29,-132.93 303.55,-110.5 259.72,-43.79 160.81,-21.43 107.75,-14.09"/>
<polygon fill="#63b8ff" stroke="#63b8ff" points="108.4,-10.65 98.04,-12.87 107.53,-17.59 108.4,-10.65"/>
</a>
</g>
</g>
<!-- Node5&#45;&gt;Node3 -->
<g id="edge8_Node000005_Node000003" class="edge">
<title>Node5&#45;&gt;Node3</title>
<g id="a_edge8_Node000005_Node000003"><a xlink:title=" ">
<path fill="none" stroke="#63b8ff" d="M234.76,-165.58C231,-158.69 225.64,-148.84 220.92,-140.16"/>
<polygon fill="#63b8ff" stroke="#63b8ff" points="224.02,-138.55 216.16,-131.44 217.87,-141.89 224.02,-138.55"/>
</a>
</g>
</g>
<!-- Node6 -->
<g id="Node000006" class="node">
<title>Node6</title>
<g id="a_Node000006"><a xlink:title=" ">
<polygon fill="#e0e0e0" stroke="#999999" points="294.8,-129.75 244.3,-129.75 244.3,-110.5 294.8,-110.5 294.8,-129.75"/>
<text text-anchor="middle" x="269.55" y="-116.25" font-family="Helvetica,sans-Serif" font-size="10.00">stddef.h</text>
</a>
</g>
</g>
<!-- Node5&#45;&gt;Node6 -->
<g id="edge7_Node000005_Node000006" class="edge">
<title>Node5&#45;&gt;Node6</title>
<g id="a_edge7_Node000005_Node000006"><a xlink:title=" ">
<path fill="none" stroke="#63b8ff" d="M244.5,-165.58C248.43,-158.61 254.06,-148.62 258.99,-139.87"/>
<polygon fill="#63b8ff" stroke="#63b8ff" points="261.88,-141.86 263.74,-131.43 255.79,-138.42 261.88,-141.86"/>
</a>
</g>
</g>
<!-- Node7&#45;&gt;Node2 -->
<g id="edge10_Node000007_Node000002" class="edge">
<title>Node7&#45;&gt;Node2</title>
<g id="a_edge10_Node000007_Node000002"><a xlink:title=" ">
<path fill="none" stroke="#63b8ff" d="M62.54,-167.59C45.67,-160.9 23.11,-148.86 12.55,-129.75 -7.3,-93.83 29.09,-50.55 53.37,-27.32"/>
<polygon fill="#63b8ff" stroke="#63b8ff" points="55.53,-30.08 60.52,-20.74 50.79,-24.93 55.53,-30.08"/>
</a>
</g>
</g>
<!-- Node8 -->
<g id="Node000008" class="node">
<title>Node8</title>
<g id="a_Node000008"><a xlink:href="bios__const_8h.html" target="_top" xlink:title="Constant variables in the MSX BIOS ROM.">
<polygon fill="white" stroke="#666666" points="91.92,-129.75 21.17,-129.75 21.17,-110.5 91.92,-110.5 91.92,-129.75"/>
<text text-anchor="middle" x="56.55" y="-116.25" font-family="Helvetica,sans-Serif" font-size="10.00">bios_const.h</text>
</a>
</g>
</g>
<!-- Node7&#45;&gt;Node8 -->
<g id="edge11_Node000007_Node000008" class="edge">
<title>Node7&#45;&gt;Node8</title>
<g id="a_edge11_Node000007_Node000008"><a xlink:title=" ">
<path fill="none" stroke="#63b8ff" d="M79.09,-165.58C75.59,-158.69 70.6,-148.84 66.2,-140.16"/>
<polygon fill="#63b8ff" stroke="#63b8ff" points="69.43,-138.8 61.79,-131.46 63.19,-141.96 69.43,-138.8"/>
</a>
</g>
</g>
<!-- Node9 -->
<g id="Node000009" class="node">
<title>Node9</title>
<g id="a_Node000009"><a xlink:href="bios__entry_8h.html" target="_top" xlink:title="Assembler entry points for MSX BIOS functions.">
<polygon fill="white" stroke="#666666" points="177.42,-129.75 109.67,-129.75 109.67,-110.5 177.42,-110.5 177.42,-129.75"/>
<text text-anchor="middle" x="143.55" y="-116.25" font-family="Helvetica,sans-Serif" font-size="10.00">bios_entry.h</text>
</a>
</g>
</g>
<!-- Node7&#45;&gt;Node9 -->
<g id="edge14_Node000007_Node000009" class="edge">
<title>Node7&#45;&gt;Node9</title>
<g id="a_edge14_Node000007_Node000009"><a xlink:title=" ">
<path fill="none" stroke="#63b8ff" d="M93.73,-165.34C102.31,-157.72 114.82,-146.62 125.15,-137.45"/>
<polygon fill="#63b8ff" stroke="#63b8ff" points="127.23,-140.29 132.39,-131.03 122.59,-135.05 127.23,-140.29"/>
</a>
</g>
</g>
<!-- Node8&#45;&gt;Node2 -->
<g id="edge12_Node000008_Node000002" class="edge">
<title>Node8&#45;&gt;Node2</title>
<g id="a_edge12_Node000008_Node000002"><a xlink:title=" ">
<path fill="none" stroke="#63b8ff" d="M57.79,-110.02C59.48,-97.63 62.65,-74.75 65.55,-55.25 66.75,-47.2 68.12,-38.35 69.34,-30.66"/>
<polygon fill="#63b8ff" stroke="#63b8ff" points="72.76,-31.43 70.87,-21 65.85,-30.33 72.76,-31.43"/>
</a>
</g>
</g>
<!-- Node8&#45;&gt;Node4 -->
<g id="edge13_Node000008_Node000004" class="edge">
<title>Node8&#45;&gt;Node4</title>
<g id="a_edge13_Node000008_Node000004"><a xlink:title=" ">
<path fill="none" stroke="#63b8ff" d="M63.65,-110.33C69.46,-103.13 77.88,-92.71 85.1,-83.76"/>
<polygon fill="#63b8ff" stroke="#63b8ff" points="87.78,-86.02 91.34,-76.04 82.34,-81.62 87.78,-86.02"/>
</a>
</g>
</g>
<!-- Node9&#45;&gt;Node2 -->
<g id="edge15_Node000009_Node000002" class="edge">
<title>Node9&#45;&gt;Node2</title>
<g id="a_edge15_Node000009_Node000002"><a xlink:title=" ">
<path fill="none" stroke="#63b8ff" d="M144.21,-110.14C144.73,-97.07 144.06,-72.5 133.55,-55.25 126,-42.86 113.58,-32.84 101.92,-25.47"/>
<polygon fill="#63b8ff" stroke="#63b8ff" points="103.71,-22.46 93.31,-20.43 100.18,-28.5 103.71,-22.46"/>
</a>
</g>
</g>
<!-- Node9&#45;&gt;Node4 -->
<g id="edge16_Node000009_Node000004" class="edge">
<title>Node9&#45;&gt;Node4</title>
<g id="a_edge16_Node000009_Node000004"><a xlink:title=" ">
<path fill="none" stroke="#63b8ff" d="M136.28,-110.33C130.27,-103.05 121.53,-92.48 114.09,-83.48"/>
<polygon fill="#63b8ff" stroke="#63b8ff" points="117,-81.51 107.94,-76.03 111.61,-85.96 117,-81.51"/>
</a>
</g>
</g>
</g>
</svg>
