<?xml version="1.0" encoding="UTF-8" standalone="no"?>
<!DOCTYPE svg PUBLIC "-//W3C//DTD SVG 1.1//EN"
 "http://www.w3.org/Graphics/SVG/1.1/DTD/svg11.dtd">
<!-- Generated by graphviz version 7.0.5 (20221223.1930)
 -->
<!-- Title: include/vdp.h Pages: 1 -->
<svg width="588pt" height="302pt"
 viewBox="0.00 0.00 587.63 302.00" xmlns="http://www.w3.org/2000/svg" xmlns:xlink="http://www.w3.org/1999/xlink">
<g id="graph0" class="graph" transform="scale(1 1) rotate(0) translate(4 298)">
<title>include/vdp.h</title>
<!-- Node1 -->
<g id="node1" class="node">
<title>Node1</title>
<g id="a_node1"><a xlink:title="Data types and functions for VDP (Video Display Proccessor) access.">
<polygon fill="#999999" stroke="#666666" points="276.5,-294 202.5,-294 202.5,-275 276.5,-275 276.5,-294"/>
<text text-anchor="middle" x="239.5" y="-282" font-family="Helvetica,sans-Serif" font-size="10.00">include/vdp.h</text>
</a>
</g>
</g>
<!-- Node2 -->
<g id="node2" class="node">
<title>Node2</title>
<g id="a_node2"><a xlink:title=" ">
<polygon fill="#e0e0e0" stroke="#999999" points="51,-239 0,-239 0,-220 51,-220 51,-239"/>
<text text-anchor="middle" x="25.5" y="-227" font-family="Helvetica,sans-Serif" font-size="10.00">assert.h</text>
</a>
</g>
</g>
<!-- Node1&#45;&gt;Node2 -->
<g id="edge1" class="edge">
<title>Node1&#45;&gt;Node2</title>
<path fill="none" stroke="#63b8ff" d="M203.2,-274.51C163.91,-264.78 101.6,-249.35 62.17,-239.58"/>
<polygon fill="#63b8ff" stroke="#63b8ff" points="63.22,-236.24 52.67,-237.23 61.54,-243.03 63.22,-236.24"/>
</g>
<!-- Node3 -->
<g id="node3" class="node">
<title>Node3</title>
<g id="a_node3"><a xlink:title=" ">
<polygon fill="#e0e0e0" stroke="#999999" points="125.5,-239 69.5,-239 69.5,-220 125.5,-220 125.5,-239"/>
<text text-anchor="middle" x="97.5" y="-227" font-family="Helvetica,sans-Serif" font-size="10.00">stdbool.h</text>
</a>
</g>
</g>
<!-- Node1&#45;&gt;Node3 -->
<g id="edge2" class="edge">
<title>Node1&#45;&gt;Node3</title>
<path fill="none" stroke="#63b8ff" d="M215.41,-274.51C192.43,-265.93 157.56,-252.92 131.7,-243.27"/>
<polygon fill="#63b8ff" stroke="#63b8ff" points="133.24,-240.1 122.65,-239.89 130.8,-246.66 133.24,-240.1"/>
</g>
<!-- Node4 -->
<g id="node4" class="node">
<title>Node4</title>
<g id="a_node4"><a xlink:title=" ">
<polygon fill="#e0e0e0" stroke="#999999" points="386.5,-19 338.5,-19 338.5,0 386.5,0 386.5,-19"/>
<text text-anchor="middle" x="362.5" y="-7" font-family="Helvetica,sans-Serif" font-size="10.00">stdint.h</text>
</a>
</g>
</g>
<!-- Node1&#45;&gt;Node4 -->
<g id="edge3" class="edge">
<title>Node1&#45;&gt;Node4</title>
<path fill="none" stroke="#63b8ff" d="M225.3,-274.75C200.87,-258.47 153.5,-221.04 153.5,-175.5 153.5,-175.5 153.5,-175.5 153.5,-118.5 153.5,-41.35 267.3,-19.25 326.96,-12.97"/>
<polygon fill="#63b8ff" stroke="#63b8ff" points="326.98,-16.48 336.61,-12.05 326.32,-9.51 326.98,-16.48"/>
</g>
<!-- Node5 -->
<g id="node5" class="node">
<title>Node5</title>
<g id="a_node5"><a xlink:href="io_8h.html" target="_top" xlink:title="Definition of I/O ports.">
<polygon fill="white" stroke="#666666" points="315.5,-129 283.5,-129 283.5,-110 315.5,-110 315.5,-129"/>
<text text-anchor="middle" x="299.5" y="-117" font-family="Helvetica,sans-Serif" font-size="10.00">io.h</text>
</a>
</g>
</g>
<!-- Node1&#45;&gt;Node5 -->
<g id="edge4" class="edge">
<title>Node1&#45;&gt;Node5</title>
<path fill="none" stroke="#63b8ff" d="M270.57,-274.61C287.96,-267.87 308.17,-256.67 318.5,-239 336.83,-207.63 321.37,-164.01 309.65,-139.39"/>
<polygon fill="#63b8ff" stroke="#63b8ff" points="312.84,-137.93 305.2,-130.59 306.59,-141.1 312.84,-137.93"/>
</g>
<!-- Node7 -->
<g id="node7" class="node">
<title>Node7</title>
<g id="a_node7"><a xlink:href="vmem_8h.html" target="_top" xlink:title="Data types and functions for VRAM access.">
<polygon fill="white" stroke="#666666" points="233,-184 182,-184 182,-165 233,-165 233,-184"/>
<text text-anchor="middle" x="207.5" y="-172" font-family="Helvetica,sans-Serif" font-size="10.00">vmem.h</text>
</a>
</g>
</g>
<!-- Node1&#45;&gt;Node7 -->
<g id="edge7" class="edge">
<title>Node1&#45;&gt;Node7</title>
<path fill="none" stroke="#63b8ff" d="M236.88,-274.66C231.77,-257.42 220.36,-218.9 213.36,-195.27"/>
<polygon fill="#63b8ff" stroke="#63b8ff" points="216.78,-194.51 210.58,-185.91 210.07,-196.49 216.78,-194.51"/>
</g>
<!-- Node8 -->
<g id="node8" class="node">
<title>Node8</title>
<g id="a_node8"><a xlink:href="vdp__unsafe_8h.html" target="_top" xlink:title="Unsafe primitive functions for VDP (Video Display Proccessor) access.">
<polygon fill="white" stroke="#666666" points="309.5,-239 235.5,-239 235.5,-220 309.5,-220 309.5,-239"/>
<text text-anchor="middle" x="272.5" y="-227" font-family="Helvetica,sans-Serif" font-size="10.00">vdp_unsafe.h</text>
</a>
</g>
</g>
<!-- Node1&#45;&gt;Node8 -->
<g id="edge10" class="edge">
<title>Node1&#45;&gt;Node8</title>
<path fill="none" stroke="#63b8ff" d="M244.95,-274.75C249.27,-267.81 255.46,-257.86 260.88,-249.16"/>
<polygon fill="#63b8ff" stroke="#63b8ff" points="263.82,-251.07 266.13,-240.73 257.88,-247.37 263.82,-251.07"/>
</g>
<!-- Node9 -->
<g id="node9" class="node">
<title>Node9</title>
<g id="a_node9"><a xlink:href="bios_8h.html" target="_top" xlink:title="C language I/F for MSX BIOS routines.">
<polygon fill="white" stroke="#666666" points="407.5,-184 365.5,-184 365.5,-165 407.5,-165 407.5,-184"/>
<text text-anchor="middle" x="386.5" y="-172" font-family="Helvetica,sans-Serif" font-size="10.00">bios.h</text>
</a>
</g>
</g>
<!-- Node1&#45;&gt;Node9 -->
<g id="edge22" class="edge">
<title>Node1&#45;&gt;Node9</title>
<path fill="none" stroke="#63b8ff" d="M276.97,-275.52C300.55,-268.95 330.39,-257.61 351.5,-239 365.07,-227.03 374.44,-208.48 380.04,-194.52"/>
<polygon fill="#63b8ff" stroke="#63b8ff" points="383.18,-196.12 383.35,-185.53 376.61,-193.7 383.18,-196.12"/>
</g>
<!-- Node12 -->
<g id="node12" class="node">
<title>Node12</title>
<g id="a_node12"><a xlink:href="workarea_8h.html" target="_top" xlink:title="Definitions of MSX SYSTEM Workarea.">
<polygon fill="white" stroke="#666666" points="531.5,-184 467.5,-184 467.5,-165 531.5,-165 531.5,-184"/>
<text text-anchor="middle" x="499.5" y="-172" font-family="Helvetica,sans-Serif" font-size="10.00">workarea.h</text>
</a>
</g>
</g>
<!-- Node1&#45;&gt;Node12 -->
<g id="edge23" class="edge">
<title>Node1&#45;&gt;Node12</title>
<path fill="none" stroke="#63b8ff" d="M270.32,-274.54C297.57,-266.3 338.2,-253.23 372.5,-239 408.36,-224.12 448.17,-203.52 473.49,-189.86"/>
<polygon fill="#63b8ff" stroke="#63b8ff" points="474.96,-193.05 482.07,-185.19 471.62,-186.9 474.96,-193.05"/>
</g>
<!-- Node6 -->
<g id="node6" class="node">
<title>Node6</title>
<g id="a_node6"><a xlink:href="config_8h.html" target="_top" xlink:title="Hack for C Compiler portability.">
<polygon fill="white" stroke="#666666" points="459.5,-74 409.5,-74 409.5,-55 459.5,-55 459.5,-74"/>
<text text-anchor="middle" x="434.5" y="-62" font-family="Helvetica,sans-Serif" font-size="10.00">config.h</text>
</a>
</g>
</g>
<!-- Node5&#45;&gt;Node6 -->
<g id="edge5" class="edge">
<title>Node5&#45;&gt;Node6</title>
<path fill="none" stroke="#63b8ff" d="M315.78,-112.11C336.86,-103.83 374.11,-89.21 401.27,-78.54"/>
<polygon fill="#63b8ff" stroke="#63b8ff" points="402.42,-81.85 410.45,-74.94 399.86,-75.34 402.42,-81.85"/>
</g>
<!-- Node6&#45;&gt;Node4 -->
<g id="edge6" class="edge">
<title>Node6&#45;&gt;Node4</title>
<path fill="none" stroke="#63b8ff" d="M422.29,-54.51C411.67,-46.7 396.06,-35.21 383.46,-25.93"/>
<polygon fill="#63b8ff" stroke="#63b8ff" points="385.88,-23.36 375.75,-20.26 381.73,-29 385.88,-23.36"/>
</g>
<!-- Node7&#45;&gt;Node4 -->
<g id="edge8" class="edge">
<title>Node7&#45;&gt;Node4</title>
<path fill="none" stroke="#63b8ff" d="M207.46,-164.78C207.83,-143.24 211.77,-86.98 241.5,-55 263.67,-31.15 299.71,-20.04 326.71,-14.89"/>
<polygon fill="#63b8ff" stroke="#63b8ff" points="327.26,-18.34 336.53,-13.22 326.09,-11.44 327.26,-18.34"/>
</g>
<!-- Node7&#45;&gt;Node5 -->
<g id="edge9" class="edge">
<title>Node7&#45;&gt;Node5</title>
<path fill="none" stroke="#63b8ff" d="M223.11,-164.51C237.2,-156.39 258.19,-144.3 274.6,-134.85"/>
<polygon fill="#63b8ff" stroke="#63b8ff" points="275.89,-138.14 282.81,-130.11 272.4,-132.07 275.89,-138.14"/>
</g>
<!-- Node8&#45;&gt;Node4 -->
<g id="edge11" class="edge">
<title>Node8&#45;&gt;Node4</title>
<path fill="none" stroke="#63b8ff" d="M270.66,-219.78C266.83,-199.62 259.52,-148.55 274.5,-110 288.17,-74.8 320.37,-43.91 341.79,-26.23"/>
<polygon fill="#63b8ff" stroke="#63b8ff" points="343.68,-29.2 349.31,-20.22 339.31,-23.73 343.68,-29.2"/>
</g>
<!-- Node8&#45;&gt;Node5 -->
<g id="edge12" class="edge">
<title>Node8&#45;&gt;Node5</title>
<path fill="none" stroke="#63b8ff" d="M274.71,-219.66C279,-202.5 288.56,-164.26 294.48,-140.6"/>
<polygon fill="#63b8ff" stroke="#63b8ff" points="297.86,-141.48 296.89,-130.93 291.07,-139.78 297.86,-141.48"/>
</g>
<!-- Node8&#45;&gt;Node7 -->
<g id="edge13" class="edge">
<title>Node8&#45;&gt;Node7</title>
<path fill="none" stroke="#63b8ff" d="M261.47,-219.51C252.08,-211.85 238.35,-200.66 227.09,-191.47"/>
<polygon fill="#63b8ff" stroke="#63b8ff" points="229.5,-188.92 219.54,-185.31 225.07,-194.35 229.5,-188.92"/>
</g>
<!-- Node8&#45;&gt;Node9 -->
<g id="edge14" class="edge">
<title>Node8&#45;&gt;Node9</title>
<path fill="none" stroke="#63b8ff" d="M291.84,-219.51C309.72,-211.2 336.54,-198.73 357.07,-189.18"/>
<polygon fill="#63b8ff" stroke="#63b8ff" points="358.48,-192.39 366.07,-185 355.53,-186.04 358.48,-192.39"/>
</g>
<!-- Node9&#45;&gt;Node4 -->
<g id="edge15" class="edge">
<title>Node9&#45;&gt;Node4</title>
<path fill="none" stroke="#63b8ff" d="M379.91,-164.51C374.03,-155.9 365.85,-142.28 362.5,-129 354,-95.34 356.71,-54.57 359.54,-30.68"/>
<polygon fill="#63b8ff" stroke="#63b8ff" points="363,-31.18 360.85,-20.8 356.06,-30.25 363,-31.18"/>
</g>
<!-- Node10 -->
<g id="node10" class="node">
<title>Node10</title>
<g id="a_node10"><a xlink:href="bios__const_8h.html" target="_top" xlink:title="Constant variables in the MSX BIOS ROM.">
<polygon fill="white" stroke="#666666" points="567,-129 496,-129 496,-110 567,-110 567,-129"/>
<text text-anchor="middle" x="531.5" y="-117" font-family="Helvetica,sans-Serif" font-size="10.00">bios_const.h</text>
</a>
</g>
</g>
<!-- Node9&#45;&gt;Node10 -->
<g id="edge16" class="edge">
<title>Node9&#45;&gt;Node10</title>
<path fill="none" stroke="#63b8ff" d="M407.9,-165.68C431.16,-157.18 468.71,-143.45 496.32,-133.36"/>
<polygon fill="#63b8ff" stroke="#63b8ff" points="497.5,-136.66 505.69,-129.94 495.09,-130.08 497.5,-136.66"/>
</g>
<!-- Node11 -->
<g id="node11" class="node">
<title>Node11</title>
<g id="a_node11"><a xlink:href="bios__entry_8h.html" target="_top" xlink:title="Assembler entry points for MSX BIOS functions.">
<polygon fill="white" stroke="#666666" points="439.5,-129 371.5,-129 371.5,-110 439.5,-110 439.5,-129"/>
<text text-anchor="middle" x="405.5" y="-117" font-family="Helvetica,sans-Serif" font-size="10.00">bios_entry.h</text>
</a>
</g>
</g>
<!-- Node9&#45;&gt;Node11 -->
<g id="edge19" class="edge">
<title>Node9&#45;&gt;Node11</title>
<path fill="none" stroke="#63b8ff" d="M389.64,-164.75C392.04,-158.04 395.46,-148.52 398.5,-140.02"/>
<polygon fill="#63b8ff" stroke="#63b8ff" points="401.7,-141.46 401.78,-130.87 395.11,-139.1 401.7,-141.46"/>
</g>
<!-- Node10&#45;&gt;Node4 -->
<g id="edge17" class="edge">
<title>Node10&#45;&gt;Node4</title>
<path fill="none" stroke="#63b8ff" d="M524.62,-109.61C513.89,-96.23 491.93,-70.8 468.5,-55 446.52,-40.17 418.81,-28.75 397.23,-21.19"/>
<polygon fill="#63b8ff" stroke="#63b8ff" points="398.6,-17.96 388,-18.08 396.36,-24.59 398.6,-17.96"/>
</g>
<!-- Node10&#45;&gt;Node6 -->
<g id="edge18" class="edge">
<title>Node10&#45;&gt;Node6</title>
<path fill="none" stroke="#63b8ff" d="M515.05,-109.51C500.18,-101.39 478.06,-89.3 460.75,-79.85"/>
<polygon fill="#63b8ff" stroke="#63b8ff" points="462.49,-76.81 452.04,-75.08 459.14,-82.95 462.49,-76.81"/>
</g>
<!-- Node11&#45;&gt;Node4 -->
<g id="edge20" class="edge">
<title>Node11&#45;&gt;Node4</title>
<path fill="none" stroke="#63b8ff" d="M401.98,-109.66C395.08,-92.34 379.64,-53.55 370.24,-29.95"/>
<polygon fill="#63b8ff" stroke="#63b8ff" points="373.58,-28.86 366.63,-20.87 367.07,-31.45 373.58,-28.86"/>
</g>
<!-- Node11&#45;&gt;Node6 -->
<g id="edge21" class="edge">
<title>Node11&#45;&gt;Node6</title>
<path fill="none" stroke="#63b8ff" d="M410.29,-109.75C414.04,-102.88 419.41,-93.08 424.13,-84.45"/>
<polygon fill="#63b8ff" stroke="#63b8ff" points="427.15,-86.22 428.88,-75.77 421.01,-82.86 427.15,-86.22"/>
</g>
<!-- Node12&#45;&gt;Node4 -->
<g id="edge24" class="edge">
<title>Node12&#45;&gt;Node4</title>
<path fill="none" stroke="#63b8ff" d="M526.9,-164.68C554.13,-154.29 590.03,-135.19 576.5,-110 541.43,-44.7 449.06,-22 397.88,-14.3"/>
<polygon fill="#63b8ff" stroke="#63b8ff" points="398.61,-10.87 388.22,-12.97 397.65,-17.81 398.61,-10.87"/>
</g>
<!-- Node12&#45;&gt;Node6 -->
<g id="edge25" class="edge">
<title>Node12&#45;&gt;Node6</title>
<path fill="none" stroke="#63b8ff" d="M494.18,-164.66C483.66,-147.18 459.98,-107.84 445.82,-84.3"/>
<polygon fill="#63b8ff" stroke="#63b8ff" points="448.83,-82.52 440.67,-75.76 442.83,-86.13 448.83,-82.52"/>
</g>
<!-- Node12&#45;&gt;Node10 -->
<g id="edge26" class="edge">
<title>Node12&#45;&gt;Node10</title>
<path fill="none" stroke="#63b8ff" d="M504.78,-164.75C508.97,-157.81 514.98,-147.86 520.23,-139.16"/>
<polygon fill="#63b8ff" stroke="#63b8ff" points="523.15,-141.11 525.32,-130.74 517.15,-137.49 523.15,-141.11"/>
</g>
</g>
</svg>
