<?xml version="1.0" encoding="UTF-8" standalone="no"?>
<!DOCTYPE svg PUBLIC "-//W3C//DTD SVG 1.1//EN"
 "http://www.w3.org/Graphics/SVG/1.1/DTD/svg11.dtd">
<!-- Generated by graphviz version 3.0.0 (20221109.1736)
 -->
<!-- Title: include/vdp.h Pages: 1 -->
<svg width="556pt" height="196pt"
 viewBox="0.00 0.00 555.50 196.00" xmlns="http://www.w3.org/2000/svg" xmlns:xlink="http://www.w3.org/1999/xlink">
<g id="graph0" class="graph" transform="scale(1 1) rotate(0) translate(4 192)">
<title>include/vdp.h</title>
<!-- Node1 -->
<g id="node1" class="node">
<title>Node1</title>
<g id="a_node1"><a xlink:title="Data types and functions for VDP (Video Display Proccessor) access.">
<polygon fill="#bfbfbf" stroke="black" points="218.5,-168.5 218.5,-187.5 292.5,-187.5 292.5,-168.5 218.5,-168.5"/>
<text text-anchor="middle" x="255.5" y="-175.5" font-family="Helvetica,sans-Serif" font-size="10.00">include/vdp.h</text>
</a>
</g>
</g>
<!-- Node2 -->
<g id="node2" class="node">
<title>Node2</title>
<g id="a_node2"><a xlink:title=" ">
<polygon fill="none" stroke="#bfbfbf" points="0,-112.5 0,-131.5 51,-131.5 51,-112.5 0,-112.5"/>
<text text-anchor="middle" x="25.5" y="-119.5" font-family="Helvetica,sans-Serif" font-size="10.00">assert.h</text>
</a>
</g>
</g>
<!-- Node1&#45;&gt;Node2 -->
<g id="edge1" class="edge">
<title>Node1&#45;&gt;Node2</title>
<path fill="none" stroke="midnightblue" d="M218.42,-168.73C181.13,-160.35 121.77,-146.84 60.88,-132.04"/>
<polygon fill="midnightblue" stroke="midnightblue" points="61.64,-128.63 51.1,-129.66 59.98,-135.43 61.64,-128.63"/>
</g>
<!-- Node3 -->
<g id="node3" class="node">
<title>Node3</title>
<g id="a_node3"><a xlink:title=" ">
<polygon fill="none" stroke="#bfbfbf" points="69.5,-112.5 69.5,-131.5 125.5,-131.5 125.5,-112.5 69.5,-112.5"/>
<text text-anchor="middle" x="97.5" y="-119.5" font-family="Helvetica,sans-Serif" font-size="10.00">stdbool.h</text>
</a>
</g>
</g>
<!-- Node1&#45;&gt;Node3 -->
<g id="edge2" class="edge">
<title>Node1&#45;&gt;Node3</title>
<path fill="none" stroke="midnightblue" d="M230.46,-168.44C203.88,-159.36 161.69,-144.94 131.98,-134.78"/>
<polygon fill="midnightblue" stroke="midnightblue" points="133.01,-131.44 122.42,-131.52 130.75,-138.06 133.01,-131.44"/>
</g>
<!-- Node4 -->
<g id="node4" class="node">
<title>Node4</title>
<g id="a_node4"><a xlink:title=" ">
<polygon fill="none" stroke="#bfbfbf" points="280.5,-0.5 280.5,-19.5 328.5,-19.5 328.5,-0.5 280.5,-0.5"/>
<text text-anchor="middle" x="304.5" y="-7.5" font-family="Helvetica,sans-Serif" font-size="10.00">stdint.h</text>
</a>
</g>
</g>
<!-- Node1&#45;&gt;Node4 -->
<g id="edge3" class="edge">
<title>Node1&#45;&gt;Node4</title>
<path fill="none" stroke="midnightblue" d="M246.18,-168.29C225.27,-147.68 178.35,-94.74 203.5,-56 218.25,-33.28 247.43,-21.93 270.65,-16.33"/>
<polygon fill="midnightblue" stroke="midnightblue" points="271.46,-19.73 280.5,-14.2 269.98,-12.89 271.46,-19.73"/>
</g>
<!-- Node5 -->
<g id="node5" class="node">
<title>Node5</title>
<g id="a_node5"><a xlink:href="io_8h.html" target="_top" xlink:title="Definition of I/O ports.">
<polygon fill="none" stroke="black" points="515.5,-56.5 515.5,-75.5 547.5,-75.5 547.5,-56.5 515.5,-56.5"/>
<text text-anchor="middle" x="531.5" y="-63.5" font-family="Helvetica,sans-Serif" font-size="10.00">io.h</text>
</a>
</g>
</g>
<!-- Node1&#45;&gt;Node5 -->
<g id="edge4" class="edge">
<title>Node1&#45;&gt;Node5</title>
<path fill="none" stroke="midnightblue" d="M292.54,-175.23C355.72,-171.47 480.6,-160.54 512.5,-132 525.49,-120.38 529.8,-100.43 531.14,-85.68"/>
<polygon fill="midnightblue" stroke="midnightblue" points="534.64,-85.82 531.67,-75.65 527.65,-85.45 534.64,-85.82"/>
</g>
<!-- Node7 -->
<g id="node7" class="node">
<title>Node7</title>
<g id="a_node7"><a xlink:href="vmem_8h.html" target="_top" xlink:title="Data types and functions for VRAM access.">
<polygon fill="none" stroke="black" points="452,-112.5 452,-131.5 503,-131.5 503,-112.5 452,-112.5"/>
<text text-anchor="middle" x="477.5" y="-119.5" font-family="Helvetica,sans-Serif" font-size="10.00">vmem.h</text>
</a>
</g>
</g>
<!-- Node1&#45;&gt;Node7 -->
<g id="edge6" class="edge">
<title>Node1&#45;&gt;Node7</title>
<path fill="none" stroke="midnightblue" d="M290.68,-168.44C332.04,-158.38 400.32,-141.77 441.87,-131.67"/>
<polygon fill="midnightblue" stroke="midnightblue" points="442.94,-135.01 451.83,-129.24 441.29,-128.21 442.94,-135.01"/>
</g>
<!-- Node8 -->
<g id="node8" class="node">
<title>Node8</title>
<g id="a_node8"><a xlink:href="bios_8h.html" target="_top" xlink:title="C language I/F for MSX BIOS routines.">
<polygon fill="none" stroke="black" points="234.5,-112.5 234.5,-131.5 276.5,-131.5 276.5,-112.5 234.5,-112.5"/>
<text text-anchor="middle" x="255.5" y="-119.5" font-family="Helvetica,sans-Serif" font-size="10.00">bios.h</text>
</a>
</g>
</g>
<!-- Node1&#45;&gt;Node8 -->
<g id="edge9" class="edge">
<title>Node1&#45;&gt;Node8</title>
<path fill="none" stroke="midnightblue" d="M255.5,-168.08C255.5,-161.01 255.5,-150.86 255.5,-141.99"/>
<polygon fill="midnightblue" stroke="midnightblue" points="259,-141.75 255.5,-131.75 252,-141.75 259,-141.75"/>
</g>
<!-- Node11 -->
<g id="node11" class="node">
<title>Node11</title>
<g id="a_node11"><a xlink:href="workarea_8h.html" target="_top" xlink:title="Definitions of MSX SYSTEM Workarea.">
<polygon fill="none" stroke="black" points="395.5,-56.5 395.5,-75.5 459.5,-75.5 459.5,-56.5 395.5,-56.5"/>
<text text-anchor="middle" x="427.5" y="-63.5" font-family="Helvetica,sans-Serif" font-size="10.00">workarea.h</text>
</a>
</g>
</g>
<!-- Node1&#45;&gt;Node11 -->
<g id="edge17" class="edge">
<title>Node1&#45;&gt;Node11</title>
<path fill="none" stroke="midnightblue" d="M269,-168.37C298.51,-149.49 369.04,-104.38 405.24,-81.24"/>
<polygon fill="midnightblue" stroke="midnightblue" points="407.53,-83.93 414.07,-75.59 403.76,-78.03 407.53,-83.93"/>
</g>
<!-- Node6 -->
<g id="node6" class="node">
<title>Node6</title>
<g id="a_node6"><a xlink:href="config_8h.html" target="_top" xlink:title="Hack for C Compiler portability.">
<polygon fill="none" stroke="black" points="356.5,-0.5 356.5,-19.5 406.5,-19.5 406.5,-0.5 356.5,-0.5"/>
<text text-anchor="middle" x="381.5" y="-7.5" font-family="Helvetica,sans-Serif" font-size="10.00">config.h</text>
</a>
</g>
</g>
<!-- Node5&#45;&gt;Node6 -->
<g id="edge5" class="edge">
<title>Node5&#45;&gt;Node6</title>
<path fill="none" stroke="midnightblue" d="M515.45,-59.22C491.58,-50.63 446.19,-34.29 414.91,-23.03"/>
<polygon fill="midnightblue" stroke="midnightblue" points="415.89,-19.66 405.3,-19.57 413.52,-26.25 415.89,-19.66"/>
</g>
<!-- Node7&#45;&gt;Node4 -->
<g id="edge7" class="edge">
<title>Node7&#45;&gt;Node4</title>
<path fill="none" stroke="midnightblue" d="M479.05,-112.21C480.93,-98.44 482.33,-71.76 468.5,-56 459.85,-46.14 384.22,-28.29 338.74,-18.29"/>
<polygon fill="midnightblue" stroke="midnightblue" points="339.23,-14.82 328.71,-16.11 337.74,-21.66 339.23,-14.82"/>
</g>
<!-- Node7&#45;&gt;Node5 -->
<g id="edge8" class="edge">
<title>Node7&#45;&gt;Node5</title>
<path fill="none" stroke="midnightblue" d="M486.42,-112.08C494.28,-104.22 505.93,-92.57 515.42,-83.08"/>
<polygon fill="midnightblue" stroke="midnightblue" points="518.15,-85.3 522.75,-75.75 513.2,-80.35 518.15,-85.3"/>
</g>
<!-- Node8&#45;&gt;Node4 -->
<g id="edge10" class="edge">
<title>Node8&#45;&gt;Node4</title>
<path fill="none" stroke="midnightblue" d="M241.89,-112.33C224.32,-100.02 197.48,-76.67 210.5,-56 223.65,-35.12 249.48,-23.71 270.73,-17.62"/>
<polygon fill="midnightblue" stroke="midnightblue" points="271.62,-21 280.42,-15.1 269.86,-14.23 271.62,-21"/>
</g>
<!-- Node9 -->
<g id="node9" class="node">
<title>Node9</title>
<g id="a_node9"><a xlink:href="bios__const_8h.html" target="_top" xlink:title="Constant variables in the MSX BIOS ROM.">
<polygon fill="none" stroke="black" points="220,-56.5 220,-75.5 291,-75.5 291,-56.5 220,-56.5"/>
<text text-anchor="middle" x="255.5" y="-63.5" font-family="Helvetica,sans-Serif" font-size="10.00">bios_const.h</text>
</a>
</g>
</g>
<!-- Node8&#45;&gt;Node9 -->
<g id="edge11" class="edge">
<title>Node8&#45;&gt;Node9</title>
<path fill="none" stroke="midnightblue" d="M255.5,-112.08C255.5,-105.01 255.5,-94.86 255.5,-85.99"/>
<polygon fill="midnightblue" stroke="midnightblue" points="259,-85.75 255.5,-75.75 252,-85.75 259,-85.75"/>
</g>
<!-- Node10 -->
<g id="node10" class="node">
<title>Node10</title>
<g id="a_node10"><a xlink:href="bios__entry_8h.html" target="_top" xlink:title="Assembler entry points for MSX BIOS functions.">
<polygon fill="none" stroke="black" points="309.5,-56.5 309.5,-75.5 377.5,-75.5 377.5,-56.5 309.5,-56.5"/>
<text text-anchor="middle" x="343.5" y="-63.5" font-family="Helvetica,sans-Serif" font-size="10.00">bios_entry.h</text>
</a>
</g>
</g>
<!-- Node8&#45;&gt;Node10 -->
<g id="edge14" class="edge">
<title>Node8&#45;&gt;Node10</title>
<path fill="none" stroke="midnightblue" d="M269.64,-112.32C283.37,-103.9 304.44,-90.97 320.56,-81.07"/>
<polygon fill="midnightblue" stroke="midnightblue" points="322.7,-83.87 329.4,-75.65 319.04,-77.9 322.7,-83.87"/>
</g>
<!-- Node9&#45;&gt;Node4 -->
<g id="edge12" class="edge">
<title>Node9&#45;&gt;Node4</title>
<path fill="none" stroke="midnightblue" d="M263.59,-56.08C270.66,-48.3 281.09,-36.8 289.65,-27.37"/>
<polygon fill="midnightblue" stroke="midnightblue" points="292.43,-29.51 296.56,-19.75 287.25,-24.8 292.43,-29.51"/>
</g>
<!-- Node9&#45;&gt;Node6 -->
<g id="edge13" class="edge">
<title>Node9&#45;&gt;Node6</title>
<path fill="none" stroke="midnightblue" d="M275.47,-56.44C296.11,-47.6 328.56,-33.69 352.13,-23.59"/>
<polygon fill="midnightblue" stroke="midnightblue" points="353.82,-26.67 361.63,-19.52 351.06,-20.24 353.82,-26.67"/>
</g>
<!-- Node10&#45;&gt;Node4 -->
<g id="edge15" class="edge">
<title>Node10&#45;&gt;Node4</title>
<path fill="none" stroke="midnightblue" d="M337.06,-56.08C331.55,-48.46 323.47,-37.26 316.74,-27.94"/>
<polygon fill="midnightblue" stroke="midnightblue" points="319.51,-25.81 310.82,-19.75 313.84,-29.91 319.51,-25.81"/>
</g>
<!-- Node10&#45;&gt;Node6 -->
<g id="edge16" class="edge">
<title>Node10&#45;&gt;Node6</title>
<path fill="none" stroke="midnightblue" d="M349.77,-56.08C355.14,-48.46 363.02,-37.26 369.58,-27.94"/>
<polygon fill="midnightblue" stroke="midnightblue" points="372.45,-29.94 375.34,-19.75 366.72,-25.91 372.45,-29.94"/>
</g>
<!-- Node11&#45;&gt;Node4 -->
<g id="edge18" class="edge">
<title>Node11&#45;&gt;Node4</title>
<path fill="none" stroke="midnightblue" d="M408.01,-56.44C387.86,-47.6 356.18,-33.69 333.17,-23.59"/>
<polygon fill="midnightblue" stroke="midnightblue" points="334.46,-20.33 323.9,-19.52 331.65,-26.74 334.46,-20.33"/>
</g>
<!-- Node11&#45;&gt;Node6 -->
<g id="edge19" class="edge">
<title>Node11&#45;&gt;Node6</title>
<path fill="none" stroke="midnightblue" d="M419.9,-56.08C413.27,-48.3 403.48,-36.8 395.44,-27.37"/>
<polygon fill="midnightblue" stroke="midnightblue" points="398.1,-25.09 388.95,-19.75 392.77,-29.63 398.1,-25.09"/>
</g>
</g>
</svg>
