<?xml version="1.0" encoding="UTF-8" standalone="no"?>
<!DOCTYPE svg PUBLIC "-//W3C//DTD SVG 1.1//EN"
 "http://www.w3.org/Graphics/SVG/1.1/DTD/svg11.dtd">
<!-- Generated by graphviz version 2.44.0 ()
 -->
<!-- Title: src/vdp_set_color.c Pages: 1 -->
<svg width="410pt" height="196pt"
 viewBox="0.00 0.00 410.05 196.00" xmlns="http://www.w3.org/2000/svg" xmlns:xlink="http://www.w3.org/1999/xlink">
<g id="graph0" class="graph" transform="scale(1 1) rotate(0) translate(4 192)">
<title>src/vdp_set_color.c</title>
<!-- Node1 -->
<g id="node1" class="node">
<title>Node1</title>
<g id="a_node1"><a xlink:title="Copyright (c) 2021 Daishi Mori (mori0091)">
<polygon fill="#bfbfbf" stroke="black" points="62.04,-168.5 62.04,-187.5 163.04,-187.5 163.04,-168.5 62.04,-168.5"/>
<text text-anchor="middle" x="112.54" y="-175.5" font-family="Helvetica,sans-Serif" font-size="10.00">src/vdp_set_color.c</text>
</a>
</g>
</g>
<!-- Node2 -->
<g id="node2" class="node">
<title>Node2</title>
<g id="a_node2"><a xlink:href="vdp_8h.html" target="_top" xlink:title="Copyright (c) 2021 Daishi Mori (mori0091)">
<polygon fill="none" stroke="black" points="169.04,-112.5 169.04,-131.5 250.04,-131.5 250.04,-112.5 169.04,-112.5"/>
<text text-anchor="middle" x="209.54" y="-119.5" font-family="Helvetica,sans-Serif" font-size="10.00">../include/vdp.h</text>
</a>
</g>
</g>
<!-- Node1&#45;&gt;Node2 -->
<g id="edge1" class="edge">
<title>Node1&#45;&gt;Node2</title>
<path fill="none" stroke="midnightblue" d="M128.12,-168.32C143.54,-159.74 167.35,-146.49 185.25,-136.52"/>
<polygon fill="midnightblue" stroke="midnightblue" points="186.96,-139.58 193.99,-131.65 183.55,-133.46 186.96,-139.58"/>
</g>
<!-- Node10 -->
<g id="node10" class="node">
<title>Node10</title>
<g id="a_node10"><a xlink:href="vdp__internal_8h.html" target="_top" xlink:title="Copyright (c) 2021 Daishi Mori (mori0091)">
<polygon fill="none" stroke="black" points="26.04,-112.5 26.04,-131.5 103.04,-131.5 103.04,-112.5 26.04,-112.5"/>
<text text-anchor="middle" x="64.54" y="-119.5" font-family="Helvetica,sans-Serif" font-size="10.00">vdp_internal.h</text>
</a>
</g>
</g>
<!-- Node1&#45;&gt;Node10 -->
<g id="edge13" class="edge">
<title>Node1&#45;&gt;Node10</title>
<path fill="none" stroke="midnightblue" d="M104.61,-168.08C97.69,-160.3 87.47,-148.8 79.08,-139.37"/>
<polygon fill="midnightblue" stroke="midnightblue" points="81.57,-136.9 72.31,-131.75 76.34,-141.55 81.57,-136.9"/>
</g>
<!-- Node3 -->
<g id="node3" class="node">
<title>Node3</title>
<g id="a_node3"><a xlink:title=" ">
<polygon fill="none" stroke="#bfbfbf" points="337.04,-56.5 337.04,-75.5 388.04,-75.5 388.04,-56.5 337.04,-56.5"/>
<text text-anchor="middle" x="362.54" y="-63.5" font-family="Helvetica,sans-Serif" font-size="10.00">assert.h</text>
</a>
</g>
</g>
<!-- Node2&#45;&gt;Node3 -->
<g id="edge2" class="edge">
<title>Node2&#45;&gt;Node3</title>
<path fill="none" stroke="midnightblue" d="M233.78,-112.44C259.41,-103.4 300.02,-89.06 328.77,-78.92"/>
<polygon fill="midnightblue" stroke="midnightblue" points="330.14,-82.15 338.41,-75.52 327.81,-75.54 330.14,-82.15"/>
</g>
<!-- Node4 -->
<g id="node4" class="node">
<title>Node4</title>
<g id="a_node4"><a xlink:title=" ">
<polygon fill="none" stroke="#bfbfbf" points="13.54,-56.5 13.54,-75.5 69.54,-75.5 69.54,-56.5 13.54,-56.5"/>
<text text-anchor="middle" x="41.54" y="-63.5" font-family="Helvetica,sans-Serif" font-size="10.00">stdbool.h</text>
</a>
</g>
</g>
<!-- Node2&#45;&gt;Node4 -->
<g id="edge3" class="edge">
<title>Node2&#45;&gt;Node4</title>
<path fill="none" stroke="midnightblue" d="M182.92,-112.44C154.53,-103.32 109.4,-88.81 77.78,-78.65"/>
<polygon fill="midnightblue" stroke="midnightblue" points="78.62,-75.24 68.03,-75.52 76.48,-81.91 78.62,-75.24"/>
</g>
<!-- Node5 -->
<g id="node5" class="node">
<title>Node5</title>
<g id="a_node5"><a xlink:title=" ">
<polygon fill="none" stroke="#bfbfbf" points="155.54,-0.5 155.54,-19.5 203.54,-19.5 203.54,-0.5 155.54,-0.5"/>
<text text-anchor="middle" x="179.54" y="-7.5" font-family="Helvetica,sans-Serif" font-size="10.00">stdint.h</text>
</a>
</g>
</g>
<!-- Node2&#45;&gt;Node5 -->
<g id="edge4" class="edge">
<title>Node2&#45;&gt;Node5</title>
<path fill="none" stroke="midnightblue" d="M213.84,-112.29C219.52,-99.54 227.98,-75.21 220.54,-56 216.08,-44.5 207.17,-34.13 198.79,-26.25"/>
<polygon fill="midnightblue" stroke="midnightblue" points="200.91,-23.46 191.08,-19.51 196.3,-28.73 200.91,-23.46"/>
</g>
<!-- Node6 -->
<g id="node6" class="node">
<title>Node6</title>
<g id="a_node6"><a xlink:href="io_8h.html" target="_top" xlink:title="Copyright (c) 2021 Daishi Mori (mori0091)">
<polygon fill="none" stroke="black" points="338.54,-0.5 338.54,-19.5 370.54,-19.5 370.54,-0.5 338.54,-0.5"/>
<text text-anchor="middle" x="354.54" y="-7.5" font-family="Helvetica,sans-Serif" font-size="10.00">io.h</text>
</a>
</g>
</g>
<!-- Node2&#45;&gt;Node6 -->
<g id="edge5" class="edge">
<title>Node2&#45;&gt;Node6</title>
<path fill="none" stroke="midnightblue" d="M250.34,-117.06C300.02,-111.33 379.56,-98.79 397.54,-76 410.45,-59.63 392.23,-39.41 375.68,-25.91"/>
<polygon fill="midnightblue" stroke="midnightblue" points="377.42,-22.83 367.35,-19.52 373.15,-28.38 377.42,-22.83"/>
</g>
<!-- Node7 -->
<g id="node7" class="node">
<title>Node7</title>
<g id="a_node7"><a xlink:href="vmem_8h.html" target="_top" xlink:title="Copyright (c) 2021 Daishi Mori (mori0091)">
<polygon fill="none" stroke="black" points="268.04,-56.5 268.04,-75.5 319.04,-75.5 319.04,-56.5 268.04,-56.5"/>
<text text-anchor="middle" x="293.54" y="-63.5" font-family="Helvetica,sans-Serif" font-size="10.00">vmem.h</text>
</a>
</g>
</g>
<!-- Node2&#45;&gt;Node7 -->
<g id="edge6" class="edge">
<title>Node2&#45;&gt;Node7</title>
<path fill="none" stroke="midnightblue" d="M223.03,-112.32C236.14,-103.9 256.25,-90.97 271.64,-81.07"/>
<polygon fill="midnightblue" stroke="midnightblue" points="273.55,-84.01 280.07,-75.65 269.77,-78.12 273.55,-84.01"/>
</g>
<!-- Node8 -->
<g id="node8" class="node">
<title>Node8</title>
<g id="a_node8"><a xlink:href="bios_8h.html" target="_top" xlink:title="Copyright (c) 2021 Daishi Mori (mori0091)">
<polygon fill="none" stroke="black" points="87.54,-56.5 87.54,-75.5 129.54,-75.5 129.54,-56.5 87.54,-56.5"/>
<text text-anchor="middle" x="108.54" y="-63.5" font-family="Helvetica,sans-Serif" font-size="10.00">bios.h</text>
</a>
</g>
</g>
<!-- Node2&#45;&gt;Node8 -->
<g id="edge9" class="edge">
<title>Node2&#45;&gt;Node8</title>
<path fill="none" stroke="midnightblue" d="M193.31,-112.32C177.19,-103.7 152.24,-90.36 133.57,-80.39"/>
<polygon fill="midnightblue" stroke="midnightblue" points="135.19,-77.28 124.72,-75.65 131.89,-83.46 135.19,-77.28"/>
</g>
<!-- Node9 -->
<g id="node9" class="node">
<title>Node9</title>
<g id="a_node9"><a xlink:href="workarea_8h.html" target="_top" xlink:title="Copyright (c) 2021 Daishi Mori (mori0091)">
<polygon fill="none" stroke="black" points="147.54,-56.5 147.54,-75.5 211.54,-75.5 211.54,-56.5 147.54,-56.5"/>
<text text-anchor="middle" x="179.54" y="-63.5" font-family="Helvetica,sans-Serif" font-size="10.00">workarea.h</text>
</a>
</g>
</g>
<!-- Node2&#45;&gt;Node9 -->
<g id="edge11" class="edge">
<title>Node2&#45;&gt;Node9</title>
<path fill="none" stroke="midnightblue" d="M204.58,-112.08C200.43,-104.61 194.38,-93.72 189.27,-84.52"/>
<polygon fill="midnightblue" stroke="midnightblue" points="192.31,-82.79 184.4,-75.75 186.19,-86.19 192.31,-82.79"/>
</g>
<!-- Node7&#45;&gt;Node5 -->
<g id="edge7" class="edge">
<title>Node7&#45;&gt;Node5</title>
<path fill="none" stroke="midnightblue" d="M275.47,-56.44C256.96,-47.68 227.96,-33.94 206.68,-23.86"/>
<polygon fill="midnightblue" stroke="midnightblue" points="208.05,-20.63 197.52,-19.52 205.05,-26.96 208.05,-20.63"/>
</g>
<!-- Node7&#45;&gt;Node6 -->
<g id="edge8" class="edge">
<title>Node7&#45;&gt;Node6</title>
<path fill="none" stroke="midnightblue" d="M303.34,-56.32C312.35,-48.34 325.94,-36.31 336.85,-26.65"/>
<polygon fill="midnightblue" stroke="midnightblue" points="339.39,-29.08 344.56,-19.83 334.75,-23.84 339.39,-29.08"/>
</g>
<!-- Node8&#45;&gt;Node5 -->
<g id="edge10" class="edge">
<title>Node8&#45;&gt;Node5</title>
<path fill="none" stroke="midnightblue" d="M119.94,-56.32C130.65,-48.18 146.88,-35.84 159.7,-26.09"/>
<polygon fill="midnightblue" stroke="midnightblue" points="162.08,-28.67 167.92,-19.83 157.84,-23.1 162.08,-28.67"/>
</g>
<!-- Node9&#45;&gt;Node5 -->
<g id="edge12" class="edge">
<title>Node9&#45;&gt;Node5</title>
<path fill="none" stroke="midnightblue" d="M179.54,-56.08C179.54,-49.01 179.54,-38.86 179.54,-29.99"/>
<polygon fill="midnightblue" stroke="midnightblue" points="183.04,-29.75 179.54,-19.75 176.04,-29.75 183.04,-29.75"/>
</g>
<!-- Node10&#45;&gt;Node5 -->
<g id="edge14" class="edge">
<title>Node10&#45;&gt;Node5</title>
<path fill="none" stroke="midnightblue" d="M46.16,-112.39C22.94,-100.33 -12.12,-77.48 4.54,-56 21.61,-33.98 99.27,-20.85 145.2,-14.88"/>
<polygon fill="midnightblue" stroke="midnightblue" points="145.82,-18.33 155.31,-13.61 144.95,-11.38 145.82,-18.33"/>
</g>
</g>
</svg>
