<?xml version="1.0" encoding="UTF-8" standalone="no"?>
<!DOCTYPE svg PUBLIC "-//W3C//DTD SVG 1.1//EN"
 "http://www.w3.org/Graphics/SVG/1.1/DTD/svg11.dtd">
<!-- Generated by graphviz version 9.0.0 (20230911.1827)
 -->
<!-- Title: include/vdp.h Pages: 1 -->
<svg width="626pt" height="304pt"
 viewBox="0.00 0.00 626.31 303.50" xmlns="http://www.w3.org/2000/svg" xmlns:xlink="http://www.w3.org/1999/xlink">
<g id="graph0" class="graph" transform="scale(1 1) rotate(0) translate(4 299.5)">
<title>include/vdp.h</title>
<!-- Node1 -->
<g id="Node000001" class="node">
<title>Node1</title>
<g id="a_Node000001"><a xlink:title="Data types and functions for VDP (Video Display Proccessor) access.">
<polygon fill="#999999" stroke="#666666" points="310.75,-295.5 237.75,-295.5 237.75,-276.25 310.75,-276.25 310.75,-295.5"/>
<text text-anchor="middle" x="274.25" y="-282" font-family="Helvetica,sans-Serif" font-size="10.00">include/vdp.h</text>
</a>
</g>
</g>
<!-- Node2 -->
<g id="Node000002" class="node">
<title>Node2</title>
<g id="a_Node000002"><a xlink:title=" ">
<polygon fill="#e0e0e0" stroke="#999999" points="50.5,-240.25 0,-240.25 0,-221 50.5,-221 50.5,-240.25"/>
<text text-anchor="middle" x="25.25" y="-226.75" font-family="Helvetica,sans-Serif" font-size="10.00">assert.h</text>
</a>
</g>
</g>
<!-- Node1&#45;&gt;Node2 -->
<g id="edge1_Node000001_Node000002" class="edge">
<title>Node1&#45;&gt;Node2</title>
<g id="a_edge1_Node000001_Node000002"><a xlink:title=" ">
<path fill="none" stroke="#63b8ff" d="M237.62,-277.78C197.01,-269.8 129.28,-256.17 62.06,-240.82"/>
<polygon fill="#63b8ff" stroke="#63b8ff" points="62.85,-237.41 52.32,-238.58 61.28,-244.23 62.85,-237.41"/>
</a>
</g>
</g>
<!-- Node3 -->
<g id="Node000003" class="node">
<title>Node3</title>
<g id="a_Node000003"><a xlink:title=" ">
<polygon fill="#e0e0e0" stroke="#999999" points="123.75,-240.25 68.75,-240.25 68.75,-221 123.75,-221 123.75,-240.25"/>
<text text-anchor="middle" x="96.25" y="-226.75" font-family="Helvetica,sans-Serif" font-size="10.00">stdbool.h</text>
</a>
</g>
</g>
<!-- Node1&#45;&gt;Node3 -->
<g id="edge2_Node000001_Node000003" class="edge">
<title>Node1&#45;&gt;Node3</title>
<g id="a_edge2_Node000001_Node000003"><a xlink:title=" ">
<path fill="none" stroke="#63b8ff" d="M244.05,-275.84C214.07,-266.87 167.95,-253.08 135.22,-243.28"/>
<polygon fill="#63b8ff" stroke="#63b8ff" points="136.28,-239.95 125.69,-240.43 134.27,-246.65 136.28,-239.95"/>
</a>
</g>
</g>
<!-- Node4 -->
<g id="Node000004" class="node">
<title>Node4</title>
<g id="a_Node000004"><a xlink:title=" ">
<polygon fill="#e0e0e0" stroke="#999999" points="427,-19.25 379.5,-19.25 379.5,0 427,0 427,-19.25"/>
<text text-anchor="middle" x="403.25" y="-5.75" font-family="Helvetica,sans-Serif" font-size="10.00">stdint.h</text>
</a>
</g>
</g>
<!-- Node1&#45;&gt;Node4 -->
<g id="edge3_Node000001_Node000004" class="edge">
<title>Node1&#45;&gt;Node4</title>
<g id="a_edge3_Node000001_Node000004"><a xlink:title=" ">
<path fill="none" stroke="#63b8ff" d="M249.56,-275.85C213.91,-261.04 152.25,-227.96 152.25,-176.38 152.25,-176.38 152.25,-176.38 152.25,-119.12 152.25,-26.23 298.9,-11.95 368.01,-10.39"/>
<polygon fill="#63b8ff" stroke="#63b8ff" points="367.72,-13.89 377.67,-10.25 367.62,-6.89 367.72,-13.89"/>
</a>
</g>
</g>
<!-- Node5 -->
<g id="Node000005" class="node">
<title>Node5</title>
<g id="a_Node000005"><a xlink:href="io_8h.html" target="_top" xlink:title="Definition of I/O ports.">
<polygon fill="white" stroke="#666666" points="355.75,-129.75 324.75,-129.75 324.75,-110.5 355.75,-110.5 355.75,-129.75"/>
<text text-anchor="middle" x="340.25" y="-116.25" font-family="Helvetica,sans-Serif" font-size="10.00">io.h</text>
</a>
</g>
</g>
<!-- Node1&#45;&gt;Node5 -->
<g id="edge4_Node000001_Node000005" class="edge">
<title>Node1&#45;&gt;Node5</title>
<g id="a_edge4_Node000001_Node000005"><a xlink:title=" ">
<path fill="none" stroke="#63b8ff" d="M305.72,-275.78C323.03,-268.99 343.01,-257.8 353.25,-240.25 371.45,-209.06 358.99,-165.39 349.08,-140.51"/>
<polygon fill="#63b8ff" stroke="#63b8ff" points="352.31,-139.16 345.16,-131.34 345.87,-141.91 352.31,-139.16"/>
</a>
</g>
</g>
<!-- Node7 -->
<g id="Node000007" class="node">
<title>Node7</title>
<g id="a_Node000007"><a xlink:href="vmem_8h.html" target="_top" xlink:title="Data types and functions for VRAM access.">
<polygon fill="white" stroke="#666666" points="268.5,-185 218,-185 218,-165.75 268.5,-165.75 268.5,-185"/>
<text text-anchor="middle" x="243.25" y="-171.5" font-family="Helvetica,sans-Serif" font-size="10.00">vmem.h</text>
</a>
</g>
</g>
<!-- Node1&#45;&gt;Node7 -->
<g id="edge7_Node000001_Node000007" class="edge">
<title>Node1&#45;&gt;Node7</title>
<g id="a_edge7_Node000001_Node000007"><a xlink:title=" ">
<path fill="none" stroke="#63b8ff" d="M271.64,-275.99C269,-266.99 264.81,-252.66 261.25,-240.25 257.06,-225.63 252.41,-209.1 248.88,-196.53"/>
<polygon fill="#63b8ff" stroke="#63b8ff" points="252.26,-195.62 246.2,-186.94 245.52,-197.51 252.26,-195.62"/>
</a>
</g>
</g>
<!-- Node9 -->
<g id="Node000009" class="node">
<title>Node9</title>
<g id="a_Node000009"><a xlink:href="vdp__unsafe_8h.html" target="_top" xlink:title="Unsafe primitive functions for VDP (Video Display Proccessor) access.">
<polygon fill="white" stroke="#666666" points="344.12,-240.25 270.38,-240.25 270.38,-221 344.12,-221 344.12,-240.25"/>
<text text-anchor="middle" x="307.25" y="-226.75" font-family="Helvetica,sans-Serif" font-size="10.00">vdp_unsafe.h</text>
</a>
</g>
</g>
<!-- Node1&#45;&gt;Node9 -->
<g id="edge11_Node000001_Node000009" class="edge">
<title>Node1&#45;&gt;Node9</title>
<g id="a_edge11_Node000001_Node000009"><a xlink:title=" ">
<path fill="none" stroke="#63b8ff" d="M279.7,-276.08C284.02,-269.11 290.21,-259.12 295.63,-250.37"/>
<polygon fill="#63b8ff" stroke="#63b8ff" points="298.59,-252.24 300.89,-241.9 292.64,-248.55 298.59,-252.24"/>
</a>
</g>
</g>
<!-- Node10 -->
<g id="Node000010" class="node">
<title>Node10</title>
<g id="a_Node000010"><a xlink:href="bios_8h.html" target="_top" xlink:title="C language I/F for MSX BIOS routines.">
<polygon fill="white" stroke="#666666" points="442,-185 400.5,-185 400.5,-165.75 442,-165.75 442,-185"/>
<text text-anchor="middle" x="421.25" y="-171.5" font-family="Helvetica,sans-Serif" font-size="10.00">bios.h</text>
</a>
</g>
</g>
<!-- Node1&#45;&gt;Node10 -->
<g id="edge23_Node000001_Node000010" class="edge">
<title>Node1&#45;&gt;Node10</title>
<g id="a_edge23_Node000001_Node000010"><a xlink:title=" ">
<path fill="none" stroke="#63b8ff" d="M311.22,-277.01C334.88,-270.44 365.01,-259.04 386.25,-240.25 399.72,-228.34 409.02,-209.95 414.63,-195.96"/>
<polygon fill="#63b8ff" stroke="#63b8ff" points="417.8,-197.49 417.97,-186.9 411.23,-195.08 417.8,-197.49"/>
</a>
</g>
</g>
<!-- Node13 -->
<g id="Node000013" class="node">
<title>Node13</title>
<g id="a_Node000013"><a xlink:href="workarea_8h.html" target="_top" xlink:title="Definitions of MSX SYSTEM Workarea.">
<polygon fill="white" stroke="#666666" points="570.88,-185 507.62,-185 507.62,-165.75 570.88,-165.75 570.88,-185"/>
<text text-anchor="middle" x="539.25" y="-171.5" font-family="Helvetica,sans-Serif" font-size="10.00">workarea.h</text>
</a>
</g>
</g>
<!-- Node1&#45;&gt;Node13 -->
<g id="edge24_Node000001_Node000013" class="edge">
<title>Node1&#45;&gt;Node13</title>
<g id="a_edge24_Node000001_Node000013"><a xlink:title=" ">
<path fill="none" stroke="#63b8ff" d="M305.03,-275.77C332.24,-267.43 372.86,-254.27 407.25,-240.25 444.54,-225.04 486.16,-204.24 512.5,-190.56"/>
<polygon fill="#63b8ff" stroke="#63b8ff" points="513.89,-193.78 521.13,-186.05 510.65,-187.58 513.89,-193.78"/>
</a>
</g>
</g>
<!-- Node6 -->
<g id="Node000006" class="node">
<title>Node6</title>
<g id="a_Node000006"><a xlink:href="config_8h.html" target="_top" xlink:title="Hack for C Compiler portability.">
<polygon fill="white" stroke="#666666" points="499.75,-74.5 450.75,-74.5 450.75,-55.25 499.75,-55.25 499.75,-74.5"/>
<text text-anchor="middle" x="475.25" y="-61" font-family="Helvetica,sans-Serif" font-size="10.00">config.h</text>
</a>
</g>
</g>
<!-- Node5&#45;&gt;Node6 -->
<g id="edge5_Node000005_Node000006" class="edge">
<title>Node5&#45;&gt;Node6</title>
<g id="a_edge5_Node000005_Node000006"><a xlink:title=" ">
<path fill="none" stroke="#63b8ff" d="M356,-112.91C376.91,-104.67 414.37,-89.89 441.74,-79.09"/>
<polygon fill="#63b8ff" stroke="#63b8ff" points="442.98,-82.37 451,-75.44 440.41,-75.85 442.98,-82.37"/>
</a>
</g>
</g>
<!-- Node6&#45;&gt;Node4 -->
<g id="edge6_Node000006_Node000004" class="edge">
<title>Node6&#45;&gt;Node4</title>
<g id="a_edge6_Node000006_Node000004"><a xlink:title=" ">
<path fill="none" stroke="#63b8ff" d="M463.04,-54.84C452.42,-46.99 436.81,-35.45 424.21,-26.12"/>
<polygon fill="#63b8ff" stroke="#63b8ff" points="426.62,-23.56 416.5,-20.42 422.46,-29.19 426.62,-23.56"/>
</a>
</g>
</g>
<!-- Node7&#45;&gt;Node4 -->
<g id="edge8_Node000007_Node000004" class="edge">
<title>Node7&#45;&gt;Node4</title>
<g id="a_edge8_Node000007_Node000004"><a xlink:title=" ">
<path fill="none" stroke="#63b8ff" d="M232.48,-165.36C219.17,-153.06 199.41,-130.3 209.25,-110.5 239.1,-50.46 320.42,-25.7 367.76,-16.14"/>
<polygon fill="#63b8ff" stroke="#63b8ff" points="368.34,-19.59 377.52,-14.3 367.05,-12.71 368.34,-19.59"/>
</a>
</g>
</g>
<!-- Node7&#45;&gt;Node5 -->
<g id="edge10_Node000007_Node000005" class="edge">
<title>Node7&#45;&gt;Node5</title>
<g id="a_edge10_Node000007_Node000005"><a xlink:title=" ">
<path fill="none" stroke="#63b8ff" d="M259.7,-165.34C274.66,-157.13 296.96,-144.89 314.31,-135.37"/>
<polygon fill="#63b8ff" stroke="#63b8ff" points="315.95,-138.46 323.03,-130.58 312.58,-132.32 315.95,-138.46"/>
</a>
</g>
</g>
<!-- Node8 -->
<g id="Node000008" class="node">
<title>Node8</title>
<g id="a_Node000008"><a xlink:title=" ">
<polygon fill="#e0e0e0" stroke="#999999" points="268.5,-129.75 218,-129.75 218,-110.5 268.5,-110.5 268.5,-129.75"/>
<text text-anchor="middle" x="243.25" y="-116.25" font-family="Helvetica,sans-Serif" font-size="10.00">stddef.h</text>
</a>
</g>
</g>
<!-- Node7&#45;&gt;Node8 -->
<g id="edge9_Node000007_Node000008" class="edge">
<title>Node7&#45;&gt;Node8</title>
<g id="a_edge9_Node000007_Node000008"><a xlink:title=" ">
<path fill="none" stroke="#63b8ff" d="M243.25,-165.58C243.25,-159.07 243.25,-149.92 243.25,-141.62"/>
<polygon fill="#63b8ff" stroke="#63b8ff" points="246.75,-141.62 243.25,-131.62 239.75,-141.62 246.75,-141.62"/>
</a>
</g>
</g>
<!-- Node9&#45;&gt;Node4 -->
<g id="edge12_Node000009_Node000004" class="edge">
<title>Node9&#45;&gt;Node4</title>
<g id="a_edge12_Node000009_Node000004"><a xlink:title=" ">
<path fill="none" stroke="#63b8ff" d="M306.06,-220.51C303.76,-199.95 300.25,-148.77 316.25,-110.5 330.71,-75.91 362.04,-44.87 382.88,-26.89"/>
<polygon fill="#63b8ff" stroke="#63b8ff" points="385.04,-29.65 390.46,-20.55 380.55,-24.28 385.04,-29.65"/>
</a>
</g>
</g>
<!-- Node9&#45;&gt;Node5 -->
<g id="edge13_Node000009_Node000005" class="edge">
<title>Node9&#45;&gt;Node5</title>
<g id="a_edge13_Node000009_Node000005"><a xlink:title=" ">
<path fill="none" stroke="#63b8ff" d="M309.95,-220.75C315.22,-203.42 326.99,-164.73 334.21,-140.99"/>
<polygon fill="#63b8ff" stroke="#63b8ff" points="337.51,-142.16 337.07,-131.57 330.81,-140.12 337.51,-142.16"/>
</a>
</g>
</g>
<!-- Node9&#45;&gt;Node7 -->
<g id="edge14_Node000009_Node000007" class="edge">
<title>Node9&#45;&gt;Node7</title>
<g id="a_edge14_Node000009_Node000007"><a xlink:title=" ">
<path fill="none" stroke="#63b8ff" d="M296.39,-220.59C287.14,-212.9 273.63,-201.65 262.54,-192.43"/>
<polygon fill="#63b8ff" stroke="#63b8ff" points="265.04,-189.95 255.11,-186.24 260.56,-195.33 265.04,-189.95"/>
</a>
</g>
</g>
<!-- Node9&#45;&gt;Node10 -->
<g id="edge15_Node000009_Node000010" class="edge">
<title>Node9&#45;&gt;Node10</title>
<g id="a_edge15_Node000009_Node000010"><a xlink:title=" ">
<path fill="none" stroke="#63b8ff" d="M326.59,-220.59C344.36,-212.29 370.97,-199.86 391.45,-190.29"/>
<polygon fill="#63b8ff" stroke="#63b8ff" points="392.87,-193.5 400.45,-186.09 389.9,-187.15 392.87,-193.5"/>
</a>
</g>
</g>
<!-- Node10&#45;&gt;Node4 -->
<g id="edge16_Node000010_Node000004" class="edge">
<title>Node10&#45;&gt;Node4</title>
<g id="a_edge16_Node000010_Node000004"><a xlink:title=" ">
<path fill="none" stroke="#63b8ff" d="M416.46,-165.46C412.03,-156.67 405.76,-142.71 403.25,-129.75 396.63,-95.66 398.7,-55.04 400.9,-31.13"/>
<polygon fill="#63b8ff" stroke="#63b8ff" points="404.38,-31.52 401.93,-21.21 397.42,-30.79 404.38,-31.52"/>
</a>
</g>
</g>
<!-- Node11 -->
<g id="Node000011" class="node">
<title>Node11</title>
<g id="a_Node000011"><a xlink:href="bios__const_8h.html" target="_top" xlink:title="Constant variables in the MSX BIOS ROM.">
<polygon fill="white" stroke="#666666" points="606.62,-129.75 535.88,-129.75 535.88,-110.5 606.62,-110.5 606.62,-129.75"/>
<text text-anchor="middle" x="571.25" y="-116.25" font-family="Helvetica,sans-Serif" font-size="10.00">bios_const.h</text>
</a>
</g>
</g>
<!-- Node10&#45;&gt;Node11 -->
<g id="edge17_Node000010_Node000011" class="edge">
<title>Node10&#45;&gt;Node11</title>
<g id="a_edge17_Node000010_Node000011"><a xlink:title=" ">
<path fill="none" stroke="#63b8ff" d="M442.42,-166.86C466.48,-158.32 506.17,-144.23 535.14,-133.94"/>
<polygon fill="#63b8ff" stroke="#63b8ff" points="535.99,-137.36 544.24,-130.71 533.65,-130.76 535.99,-137.36"/>
</a>
</g>
</g>
<!-- Node12 -->
<g id="Node000012" class="node">
<title>Node12</title>
<g id="a_Node000012"><a xlink:href="bios__entry_8h.html" target="_top" xlink:title="Assembler entry points for MSX BIOS functions.">
<polygon fill="white" stroke="#666666" points="480.12,-129.75 412.38,-129.75 412.38,-110.5 480.12,-110.5 480.12,-129.75"/>
<text text-anchor="middle" x="446.25" y="-116.25" font-family="Helvetica,sans-Serif" font-size="10.00">bios_entry.h</text>
</a>
</g>
</g>
<!-- Node10&#45;&gt;Node12 -->
<g id="edge20_Node000010_Node000012" class="edge">
<title>Node10&#45;&gt;Node12</title>
<g id="a_edge20_Node000010_Node000012"><a xlink:title=" ">
<path fill="none" stroke="#63b8ff" d="M425.38,-165.58C428.58,-158.76 433.14,-149.06 437.18,-140.45"/>
<polygon fill="#63b8ff" stroke="#63b8ff" points="440.31,-142.02 441.39,-131.48 433.97,-139.04 440.31,-142.02"/>
</a>
</g>
</g>
<!-- Node11&#45;&gt;Node4 -->
<g id="edge18_Node000011_Node000004" class="edge">
<title>Node11&#45;&gt;Node4</title>
<g id="a_edge18_Node000011_Node000004"><a xlink:title=" ">
<path fill="none" stroke="#63b8ff" d="M564.52,-110.18C554.01,-96.71 532.47,-71.12 509.25,-55.25 487.35,-40.29 459.63,-28.84 438.04,-21.28"/>
<polygon fill="#63b8ff" stroke="#63b8ff" points="439.39,-18.05 428.8,-18.17 437.16,-24.68 439.39,-18.05"/>
</a>
</g>
</g>
<!-- Node11&#45;&gt;Node6 -->
<g id="edge19_Node000011_Node000006" class="edge">
<title>Node11&#45;&gt;Node6</title>
<g id="a_edge19_Node000011_Node000006"><a xlink:title=" ">
<path fill="none" stroke="#63b8ff" d="M554.96,-110.09C540.35,-101.98 518.62,-89.93 501.54,-80.46"/>
<polygon fill="#63b8ff" stroke="#63b8ff" points="503.38,-77.48 492.94,-75.69 499.99,-83.6 503.38,-77.48"/>
</a>
</g>
</g>
<!-- Node12&#45;&gt;Node4 -->
<g id="edge21_Node000012_Node000004" class="edge">
<title>Node12&#45;&gt;Node4</title>
<g id="a_edge21_Node000012_Node000004"><a xlink:title=" ">
<path fill="none" stroke="#63b8ff" d="M442.73,-110.25C435.83,-92.84 420.39,-53.87 410.99,-30.16"/>
<polygon fill="#63b8ff" stroke="#63b8ff" points="414.31,-29.04 407.38,-21.03 407.81,-31.62 414.31,-29.04"/>
</a>
</g>
</g>
<!-- Node12&#45;&gt;Node6 -->
<g id="edge22_Node000012_Node000006" class="edge">
<title>Node12&#45;&gt;Node6</title>
<g id="a_edge22_Node000012_Node000006"><a xlink:title=" ">
<path fill="none" stroke="#63b8ff" d="M451.04,-110.33C454.79,-103.44 460.16,-93.59 464.88,-84.91"/>
<polygon fill="#63b8ff" stroke="#63b8ff" points="467.92,-86.64 469.63,-76.19 461.78,-83.3 467.92,-86.64"/>
</a>
</g>
</g>
<!-- Node13&#45;&gt;Node4 -->
<g id="edge25_Node000013_Node000004" class="edge">
<title>Node13&#45;&gt;Node4</title>
<g id="a_edge25_Node000013_Node000004"><a xlink:title=" ">
<path fill="none" stroke="#63b8ff" d="M566.27,-165.43C593.12,-154.91 628.54,-135.64 615.25,-110.5 580.86,-45.42 489.21,-22.45 438.4,-14.57"/>
<polygon fill="#63b8ff" stroke="#63b8ff" points="439.2,-11.15 428.81,-13.2 438.22,-18.08 439.2,-11.15"/>
</a>
</g>
</g>
<!-- Node13&#45;&gt;Node6 -->
<g id="edge26_Node000013_Node000006" class="edge">
<title>Node13&#45;&gt;Node6</title>
<g id="a_edge26_Node000013_Node000006"><a xlink:title=" ">
<path fill="none" stroke="#63b8ff" d="M534.01,-165.5C523.65,-147.93 500.34,-108.41 486.39,-84.77"/>
<polygon fill="#63b8ff" stroke="#63b8ff" points="489.42,-83.02 481.33,-76.18 483.39,-86.57 489.42,-83.02"/>
</a>
</g>
</g>
<!-- Node13&#45;&gt;Node11 -->
<g id="edge27_Node000013_Node000011" class="edge">
<title>Node13&#45;&gt;Node11</title>
<g id="a_edge27_Node000013_Node000011"><a xlink:title=" ">
<path fill="none" stroke="#63b8ff" d="M544.53,-165.58C548.72,-158.61 554.73,-148.62 559.98,-139.87"/>
<polygon fill="#63b8ff" stroke="#63b8ff" points="562.92,-141.78 565.07,-131.41 556.92,-138.18 562.92,-141.78"/>
</a>
</g>
</g>
</g>
</svg>
