<?xml version="1.0" encoding="UTF-8" standalone="no"?>
<!DOCTYPE svg PUBLIC "-//W3C//DTD SVG 1.1//EN"
 "http://www.w3.org/Graphics/SVG/1.1/DTD/svg11.dtd">
<!-- Generated by graphviz version 2.43.0 (0)
 -->
<!-- Title: src/vdp_set_sprite_attribute_table.c Pages: 1 -->
<svg width="428pt" height="207pt"
 viewBox="0.00 0.00 427.50 207.00" xmlns="http://www.w3.org/2000/svg" xmlns:xlink="http://www.w3.org/1999/xlink">
<g id="graph0" class="graph" transform="scale(1 1) rotate(0) translate(4 203)">
<title>src/vdp_set_sprite_attribute_table.c</title>
<!-- Node1 -->
<g id="node1" class="node">
<title>Node1</title>
<g id="a_node1"><a xlink:title=" ">
<polygon fill="#bfbfbf" stroke="black" points="215.5,-168.5 215.5,-198.5 320.5,-198.5 320.5,-168.5 215.5,-168.5"/>
<text text-anchor="start" x="223.5" y="-186.5" font-family="Helvetica,sans-Serif" font-size="10.00">src/vdp_set_sprite</text>
<text text-anchor="middle" x="268" y="-175.5" font-family="Helvetica,sans-Serif" font-size="10.00">_attribute_table.c</text>
</a>
</g>
</g>
<!-- Node2 -->
<g id="node2" class="node">
<title>Node2</title>
<g id="a_node2"><a xlink:href="vdp_8h.html" target="_top" xlink:title=" ">
<polygon fill="none" stroke="black" points="169.5,-112.5 169.5,-131.5 260.5,-131.5 260.5,-112.5 169.5,-112.5"/>
<text text-anchor="middle" x="215" y="-119.5" font-family="Helvetica,sans-Serif" font-size="10.00">../include/vdp.h</text>
</a>
</g>
</g>
<!-- Node1&#45;&gt;Node2 -->
<g id="edge1" class="edge">
<title>Node1&#45;&gt;Node2</title>
<path fill="none" stroke="midnightblue" d="M255.44,-168.4C247.66,-159.66 237.64,-148.41 229.52,-139.3"/>
<polygon fill="midnightblue" stroke="midnightblue" points="231.98,-136.8 222.71,-131.66 226.75,-141.45 231.98,-136.8"/>
</g>
<!-- Node10 -->
<g id="node10" class="node">
<title>Node10</title>
<g id="a_node10"><a xlink:href="vdp__internal_8h.html" target="_top" xlink:title=" ">
<polygon fill="none" stroke="black" points="279,-112.5 279,-131.5 365,-131.5 365,-112.5 279,-112.5"/>
<text text-anchor="middle" x="322" y="-119.5" font-family="Helvetica,sans-Serif" font-size="10.00">vdp_internal.h</text>
</a>
</g>
</g>
<!-- Node1&#45;&gt;Node10 -->
<g id="edge13" class="edge">
<title>Node1&#45;&gt;Node10</title>
<path fill="none" stroke="midnightblue" d="M280.8,-168.4C288.72,-159.66 298.94,-148.41 307.21,-139.3"/>
<polygon fill="midnightblue" stroke="midnightblue" points="310.01,-141.42 314.14,-131.66 304.83,-136.71 310.01,-141.42"/>
</g>
<!-- Node3 -->
<g id="node3" class="node">
<title>Node3</title>
<g id="a_node3"><a xlink:title=" ">
<polygon fill="none" stroke="#bfbfbf" points="0,-56.5 0,-75.5 56,-75.5 56,-56.5 0,-56.5"/>
<text text-anchor="middle" x="28" y="-63.5" font-family="Helvetica,sans-Serif" font-size="10.00">assert.h</text>
</a>
</g>
</g>
<!-- Node2&#45;&gt;Node3 -->
<g id="edge2" class="edge">
<title>Node2&#45;&gt;Node3</title>
<path fill="none" stroke="midnightblue" d="M185.37,-112.44C153.12,-103.13 101.47,-88.22 66.2,-78.03"/>
<polygon fill="midnightblue" stroke="midnightblue" points="66.85,-74.57 56.27,-75.16 64.9,-81.3 66.85,-74.57"/>
</g>
<!-- Node4 -->
<g id="node4" class="node">
<title>Node4</title>
<g id="a_node4"><a xlink:title=" ">
<polygon fill="none" stroke="#bfbfbf" points="74,-56.5 74,-75.5 136,-75.5 136,-56.5 74,-56.5"/>
<text text-anchor="middle" x="105" y="-63.5" font-family="Helvetica,sans-Serif" font-size="10.00">stdbool.h</text>
</a>
</g>
</g>
<!-- Node2&#45;&gt;Node4 -->
<g id="edge3" class="edge">
<title>Node2&#45;&gt;Node4</title>
<path fill="none" stroke="midnightblue" d="M197.33,-112.32C179.61,-103.62 152.1,-90.12 131.71,-80.11"/>
<polygon fill="midnightblue" stroke="midnightblue" points="133.15,-76.92 122.63,-75.65 130.06,-83.2 133.15,-76.92"/>
</g>
<!-- Node5 -->
<g id="node5" class="node">
<title>Node5</title>
<g id="a_node5"><a xlink:title=" ">
<polygon fill="none" stroke="#bfbfbf" points="227.5,-0.5 227.5,-19.5 280.5,-19.5 280.5,-0.5 227.5,-0.5"/>
<text text-anchor="middle" x="254" y="-7.5" font-family="Helvetica,sans-Serif" font-size="10.00">stdint.h</text>
</a>
</g>
</g>
<!-- Node2&#45;&gt;Node5 -->
<g id="edge4" class="edge">
<title>Node2&#45;&gt;Node5</title>
<path fill="none" stroke="midnightblue" d="M205.33,-112.46C192.34,-99.91 172.09,-75.84 183,-56 190.89,-41.66 205.49,-31.25 219.4,-24.08"/>
<polygon fill="midnightblue" stroke="midnightblue" points="221.29,-27.06 228.84,-19.62 218.3,-20.73 221.29,-27.06"/>
</g>
<!-- Node6 -->
<g id="node6" class="node">
<title>Node6</title>
<g id="a_node6"><a xlink:href="io_8h.html" target="_top" xlink:title=" ">
<polygon fill="none" stroke="black" points="384.5,-0.5 384.5,-19.5 419.5,-19.5 419.5,-0.5 384.5,-0.5"/>
<text text-anchor="middle" x="402" y="-7.5" font-family="Helvetica,sans-Serif" font-size="10.00">io.h</text>
</a>
</g>
</g>
<!-- Node2&#45;&gt;Node6 -->
<g id="edge5" class="edge">
<title>Node2&#45;&gt;Node6</title>
<path fill="none" stroke="midnightblue" d="M258.8,-112.43C315.36,-101.15 407.17,-82.05 412,-76 422.54,-62.78 417.54,-43.11 411.45,-28.87"/>
<polygon fill="midnightblue" stroke="midnightblue" points="414.51,-27.15 407.04,-19.63 408.19,-30.17 414.51,-27.15"/>
</g>
<!-- Node7 -->
<g id="node7" class="node">
<title>Node7</title>
<g id="a_node7"><a xlink:href="vmem_8h.html" target="_top" xlink:title=" ">
<polygon fill="none" stroke="black" points="345.5,-56.5 345.5,-75.5 402.5,-75.5 402.5,-56.5 345.5,-56.5"/>
<text text-anchor="middle" x="374" y="-63.5" font-family="Helvetica,sans-Serif" font-size="10.00">vmem.h</text>
</a>
</g>
</g>
<!-- Node2&#45;&gt;Node7 -->
<g id="edge6" class="edge">
<title>Node2&#45;&gt;Node7</title>
<path fill="none" stroke="midnightblue" d="M240.19,-112.44C266.94,-103.36 309.4,-88.94 339.31,-78.78"/>
<polygon fill="midnightblue" stroke="midnightblue" points="340.58,-82.05 348.92,-75.52 338.33,-75.42 340.58,-82.05"/>
</g>
<!-- Node8 -->
<g id="node8" class="node">
<title>Node8</title>
<g id="a_node8"><a xlink:href="bios_8h.html" target="_top" xlink:title=" ">
<polygon fill="none" stroke="black" points="192,-56.5 192,-75.5 238,-75.5 238,-56.5 192,-56.5"/>
<text text-anchor="middle" x="215" y="-63.5" font-family="Helvetica,sans-Serif" font-size="10.00">bios.h</text>
</a>
</g>
</g>
<!-- Node2&#45;&gt;Node8 -->
<g id="edge9" class="edge">
<title>Node2&#45;&gt;Node8</title>
<path fill="none" stroke="midnightblue" d="M215,-112.08C215,-105.01 215,-94.86 215,-85.99"/>
<polygon fill="midnightblue" stroke="midnightblue" points="218.5,-85.75 215,-75.75 211.5,-85.75 218.5,-85.75"/>
</g>
<!-- Node9 -->
<g id="node9" class="node">
<title>Node9</title>
<g id="a_node9"><a xlink:href="workarea_8h.html" target="_top" xlink:title=" ">
<polygon fill="none" stroke="black" points="256.5,-56.5 256.5,-75.5 327.5,-75.5 327.5,-56.5 256.5,-56.5"/>
<text text-anchor="middle" x="292" y="-63.5" font-family="Helvetica,sans-Serif" font-size="10.00">workarea.h</text>
</a>
</g>
</g>
<!-- Node2&#45;&gt;Node9 -->
<g id="edge11" class="edge">
<title>Node2&#45;&gt;Node9</title>
<path fill="none" stroke="midnightblue" d="M227.37,-112.32C239.16,-104.06 257.13,-91.45 271.14,-81.63"/>
<polygon fill="midnightblue" stroke="midnightblue" points="273.48,-84.26 279.66,-75.65 269.46,-78.53 273.48,-84.26"/>
</g>
<!-- Node7&#45;&gt;Node5 -->
<g id="edge7" class="edge">
<title>Node7&#45;&gt;Node5</title>
<path fill="none" stroke="midnightblue" d="M354.99,-56.44C335.41,-47.64 304.69,-33.81 282.27,-23.72"/>
<polygon fill="midnightblue" stroke="midnightblue" points="283.48,-20.43 272.93,-19.52 280.61,-26.81 283.48,-20.43"/>
</g>
<!-- Node7&#45;&gt;Node6 -->
<g id="edge8" class="edge">
<title>Node7&#45;&gt;Node6</title>
<path fill="none" stroke="midnightblue" d="M378.62,-56.08C382.46,-48.69 388.02,-37.95 392.76,-28.81"/>
<polygon fill="midnightblue" stroke="midnightblue" points="395.97,-30.24 397.46,-19.75 389.75,-27.02 395.97,-30.24"/>
</g>
<!-- Node8&#45;&gt;Node5 -->
<g id="edge10" class="edge">
<title>Node8&#45;&gt;Node5</title>
<path fill="none" stroke="midnightblue" d="M221.44,-56.08C226.95,-48.46 235.03,-37.26 241.76,-27.94"/>
<polygon fill="midnightblue" stroke="midnightblue" points="244.66,-29.91 247.68,-19.75 238.99,-25.81 244.66,-29.91"/>
</g>
<!-- Node9&#45;&gt;Node5 -->
<g id="edge12" class="edge">
<title>Node9&#45;&gt;Node5</title>
<path fill="none" stroke="midnightblue" d="M285.73,-56.08C280.36,-48.46 272.48,-37.26 265.92,-27.94"/>
<polygon fill="midnightblue" stroke="midnightblue" points="268.78,-25.91 260.16,-19.75 263.05,-29.94 268.78,-25.91"/>
</g>
</g>
</svg>
