<?xml version="1.0" encoding="UTF-8" standalone="no"?>
<!DOCTYPE svg PUBLIC "-//W3C//DTD SVG 1.1//EN"
 "http://www.w3.org/Graphics/SVG/1.1/DTD/svg11.dtd">
<!-- Generated by graphviz version 2.50.0 (20220203.2022)
 -->
<!-- Title: src/vdp_cmd_execute.c Pages: 1 -->
<svg width="518pt" height="252pt"
 viewBox="0.00 0.00 517.50 252.00" xmlns="http://www.w3.org/2000/svg" xmlns:xlink="http://www.w3.org/1999/xlink">
<g id="graph0" class="graph" transform="scale(1 1) rotate(0) translate(4 248)">
<title>src/vdp_cmd_execute.c</title>
<!-- Node1 -->
<g id="node1" class="node">
<title>Node1</title>
<g id="a_node1"><a xlink:title="Copyright (c) 2021 Daishi Mori (mori0091)">
<polygon fill="#bfbfbf" stroke="black" points="132,-224.5 132,-243.5 251,-243.5 251,-224.5 132,-224.5"/>
<text text-anchor="middle" x="191.5" y="-231.5" font-family="Helvetica,sans-Serif" font-size="10.00">src/vdp_cmd_execute.c</text>
</a>
</g>
</g>
<!-- Node2 -->
<g id="node2" class="node">
<title>Node2</title>
<g id="a_node2"><a xlink:href="vdp_8h.html" target="_top" xlink:title="Data types and functions for VDP (Video Display Proccessor) access.">
<polygon fill="none" stroke="black" points="151,-168.5 151,-187.5 232,-187.5 232,-168.5 151,-168.5"/>
<text text-anchor="middle" x="191.5" y="-175.5" font-family="Helvetica,sans-Serif" font-size="10.00">../include/vdp.h</text>
</a>
</g>
</g>
<!-- Node1&#45;&gt;Node2 -->
<g id="edge1" class="edge">
<title>Node1&#45;&gt;Node2</title>
<path fill="none" stroke="midnightblue" d="M191.5,-224.08C191.5,-217.01 191.5,-206.86 191.5,-197.99"/>
<polygon fill="midnightblue" stroke="midnightblue" points="195,-197.75 191.5,-187.75 188,-197.75 195,-197.75"/>
</g>
<!-- Node3 -->
<g id="node3" class="node">
<title>Node3</title>
<g id="a_node3"><a xlink:title=" ">
<polygon fill="none" stroke="#bfbfbf" points="0,-112.5 0,-131.5 51,-131.5 51,-112.5 0,-112.5"/>
<text text-anchor="middle" x="25.5" y="-119.5" font-family="Helvetica,sans-Serif" font-size="10.00">assert.h</text>
</a>
</g>
</g>
<!-- Node2&#45;&gt;Node3 -->
<g id="edge2" class="edge">
<title>Node2&#45;&gt;Node3</title>
<path fill="none" stroke="midnightblue" d="M165.2,-168.44C136.98,-159.27 92.03,-144.64 60.77,-134.47"/>
<polygon fill="midnightblue" stroke="midnightblue" points="61.73,-131.1 51.13,-131.34 59.56,-137.76 61.73,-131.1"/>
</g>
<!-- Node4 -->
<g id="node4" class="node">
<title>Node4</title>
<g id="a_node4"><a xlink:title=" ">
<polygon fill="none" stroke="#bfbfbf" points="69.5,-112.5 69.5,-131.5 125.5,-131.5 125.5,-112.5 69.5,-112.5"/>
<text text-anchor="middle" x="97.5" y="-119.5" font-family="Helvetica,sans-Serif" font-size="10.00">stdbool.h</text>
</a>
</g>
</g>
<!-- Node2&#45;&gt;Node4 -->
<g id="edge3" class="edge">
<title>Node2&#45;&gt;Node4</title>
<path fill="none" stroke="midnightblue" d="M176.4,-168.32C161.6,-159.82 138.81,-146.73 121.52,-136.8"/>
<polygon fill="midnightblue" stroke="midnightblue" points="122.98,-133.6 112.57,-131.65 119.49,-139.67 122.98,-133.6"/>
</g>
<!-- Node5 -->
<g id="node5" class="node">
<title>Node5</title>
<g id="a_node5"><a xlink:title=" ">
<polygon fill="none" stroke="#bfbfbf" points="281.5,-0.5 281.5,-19.5 329.5,-19.5 329.5,-0.5 281.5,-0.5"/>
<text text-anchor="middle" x="305.5" y="-7.5" font-family="Helvetica,sans-Serif" font-size="10.00">stdint.h</text>
</a>
</g>
</g>
<!-- Node2&#45;&gt;Node5 -->
<g id="edge4" class="edge">
<title>Node2&#45;&gt;Node5</title>
<path fill="none" stroke="midnightblue" d="M186.34,-168.41C174.29,-147.16 147.22,-91.25 172.5,-56 194.84,-24.86 239.91,-14.99 271.36,-12.02"/>
<polygon fill="midnightblue" stroke="midnightblue" points="271.74,-15.5 281.45,-11.25 271.21,-8.52 271.74,-15.5"/>
</g>
<!-- Node6 -->
<g id="node6" class="node">
<title>Node6</title>
<g id="a_node6"><a xlink:href="io_8h.html" target="_top" xlink:title="Copyright (c) 2021 Daishi Mori (mori0091)">
<polygon fill="none" stroke="black" points="181.5,-56.5 181.5,-75.5 213.5,-75.5 213.5,-56.5 181.5,-56.5"/>
<text text-anchor="middle" x="197.5" y="-63.5" font-family="Helvetica,sans-Serif" font-size="10.00">io.h</text>
</a>
</g>
</g>
<!-- Node2&#45;&gt;Node6 -->
<g id="edge5" class="edge">
<title>Node2&#45;&gt;Node6</title>
<path fill="none" stroke="midnightblue" d="M191.97,-168.37C192.94,-150.62 195.17,-109.67 196.49,-85.6"/>
<polygon fill="midnightblue" stroke="midnightblue" points="199.98,-85.77 197.03,-75.59 192.99,-85.39 199.98,-85.77"/>
</g>
<!-- Node7 -->
<g id="node7" class="node">
<title>Node7</title>
<g id="a_node7"><a xlink:href="vmem_8h.html" target="_top" xlink:title="Data types and functions for VRAM access.">
<polygon fill="none" stroke="black" points="220,-112.5 220,-131.5 271,-131.5 271,-112.5 220,-112.5"/>
<text text-anchor="middle" x="245.5" y="-119.5" font-family="Helvetica,sans-Serif" font-size="10.00">vmem.h</text>
</a>
</g>
</g>
<!-- Node2&#45;&gt;Node7 -->
<g id="edge6" class="edge">
<title>Node2&#45;&gt;Node7</title>
<path fill="none" stroke="midnightblue" d="M200.42,-168.08C208.28,-160.22 219.93,-148.57 229.42,-139.08"/>
<polygon fill="midnightblue" stroke="midnightblue" points="232.15,-141.3 236.75,-131.75 227.2,-136.35 232.15,-141.3"/>
</g>
<!-- Node8 -->
<g id="node8" class="node">
<title>Node8</title>
<g id="a_node8"><a xlink:href="bios_8h.html" target="_top" xlink:title="Copyright (c) 2021 Daishi Mori (mori0091)">
<polygon fill="none" stroke="black" points="289.5,-112.5 289.5,-131.5 331.5,-131.5 331.5,-112.5 289.5,-112.5"/>
<text text-anchor="middle" x="310.5" y="-119.5" font-family="Helvetica,sans-Serif" font-size="10.00">bios.h</text>
</a>
</g>
</g>
<!-- Node2&#45;&gt;Node8 -->
<g id="edge9" class="edge">
<title>Node2&#45;&gt;Node8</title>
<path fill="none" stroke="midnightblue" d="M210.36,-168.44C229.77,-159.64 260.23,-145.81 282.46,-135.72"/>
<polygon fill="midnightblue" stroke="midnightblue" points="284.07,-138.84 291.73,-131.52 281.18,-132.46 284.07,-138.84"/>
</g>
<!-- Node11 -->
<g id="node11" class="node">
<title>Node11</title>
<g id="a_node11"><a xlink:href="workarea_8h.html" target="_top" xlink:title="Copyright (c) 2021 Daishi Mori (mori0091)">
<polygon fill="none" stroke="black" points="445.5,-56.5 445.5,-75.5 509.5,-75.5 509.5,-56.5 445.5,-56.5"/>
<text text-anchor="middle" x="477.5" y="-63.5" font-family="Helvetica,sans-Serif" font-size="10.00">workarea.h</text>
</a>
</g>
</g>
<!-- Node2&#45;&gt;Node11 -->
<g id="edge14" class="edge">
<title>Node2&#45;&gt;Node11</title>
<path fill="none" stroke="midnightblue" d="M224.83,-168.47C255.34,-160.3 301.55,-147.03 340.5,-132 380.53,-116.56 425.12,-94.43 452.24,-80.39"/>
<polygon fill="midnightblue" stroke="midnightblue" points="454.15,-83.34 461.4,-75.61 450.91,-77.14 454.15,-83.34"/>
</g>
<!-- Node7&#45;&gt;Node5 -->
<g id="edge7" class="edge">
<title>Node7&#45;&gt;Node5</title>
<path fill="none" stroke="midnightblue" d="M246.16,-112.48C247.47,-99.54 251.22,-74.48 261.5,-56 267.76,-44.74 277.59,-34.31 286.37,-26.33"/>
<polygon fill="midnightblue" stroke="midnightblue" points="288.73,-28.92 294.01,-19.74 284.15,-23.62 288.73,-28.92"/>
</g>
<!-- Node7&#45;&gt;Node6 -->
<g id="edge8" class="edge">
<title>Node7&#45;&gt;Node6</title>
<path fill="none" stroke="midnightblue" d="M237.57,-112.08C230.65,-104.3 220.43,-92.8 212.05,-83.37"/>
<polygon fill="midnightblue" stroke="midnightblue" points="214.54,-80.9 205.28,-75.75 209.31,-85.55 214.54,-80.9"/>
</g>
<!-- Node9 -->
<g id="node9" class="node">
<title>Node9</title>
<g id="a_node9"><a xlink:href="bios__const_8h.html" target="_top" xlink:title="Constant variables in the MSX BIOS ROM.">
<polygon fill="none" stroke="black" points="270,-56.5 270,-75.5 341,-75.5 341,-56.5 270,-56.5"/>
<text text-anchor="middle" x="305.5" y="-63.5" font-family="Helvetica,sans-Serif" font-size="10.00">bios_const.h</text>
</a>
</g>
</g>
<!-- Node8&#45;&gt;Node9 -->
<g id="edge10" class="edge">
<title>Node8&#45;&gt;Node9</title>
<path fill="none" stroke="midnightblue" d="M309.67,-112.08C309.02,-105.01 308.08,-94.86 307.26,-85.99"/>
<polygon fill="midnightblue" stroke="midnightblue" points="310.72,-85.39 306.31,-75.75 303.75,-86.03 310.72,-85.39"/>
</g>
<!-- Node10 -->
<g id="node10" class="node">
<title>Node10</title>
<g id="a_node10"><a xlink:href="bios__entry_8h.html" target="_top" xlink:title="Assembler entry points for MSX BIOS functions.">
<polygon fill="none" stroke="black" points="359.5,-56.5 359.5,-75.5 427.5,-75.5 427.5,-56.5 359.5,-56.5"/>
<text text-anchor="middle" x="393.5" y="-63.5" font-family="Helvetica,sans-Serif" font-size="10.00">bios_entry.h</text>
</a>
</g>
</g>
<!-- Node8&#45;&gt;Node10 -->
<g id="edge12" class="edge">
<title>Node8&#45;&gt;Node10</title>
<path fill="none" stroke="midnightblue" d="M323.84,-112.32C336.66,-103.98 356.28,-91.21 371.44,-81.35"/>
<polygon fill="midnightblue" stroke="midnightblue" points="373.72,-84.04 380.2,-75.65 369.91,-78.17 373.72,-84.04"/>
</g>
<!-- Node9&#45;&gt;Node5 -->
<g id="edge11" class="edge">
<title>Node9&#45;&gt;Node5</title>
<path fill="none" stroke="midnightblue" d="M305.5,-56.08C305.5,-49.01 305.5,-38.86 305.5,-29.99"/>
<polygon fill="midnightblue" stroke="midnightblue" points="309,-29.75 305.5,-19.75 302,-29.75 309,-29.75"/>
</g>
<!-- Node10&#45;&gt;Node5 -->
<g id="edge13" class="edge">
<title>Node10&#45;&gt;Node5</title>
<path fill="none" stroke="midnightblue" d="M379.36,-56.32C365.63,-47.9 344.56,-34.97 328.44,-25.07"/>
<polygon fill="midnightblue" stroke="midnightblue" points="329.96,-21.9 319.6,-19.65 326.3,-27.87 329.96,-21.9"/>
</g>
<!-- Node11&#45;&gt;Node5 -->
<g id="edge15" class="edge">
<title>Node11&#45;&gt;Node5</title>
<path fill="none" stroke="midnightblue" d="M450.25,-56.44C420.24,-47.02 371.97,-31.87 339.51,-21.68"/>
<polygon fill="midnightblue" stroke="midnightblue" points="340.16,-18.21 329.57,-18.56 338.07,-24.89 340.16,-18.21"/>
</g>
</g>
</svg>
