<?xml version="1.0" encoding="UTF-8" standalone="no"?>
<!DOCTYPE svg PUBLIC "-//W3C//DTD SVG 1.1//EN"
 "http://www.w3.org/Graphics/SVG/1.1/DTD/svg11.dtd">
<!-- Generated by graphviz version 2.43.0 (0)
 -->
<!-- Title: src/vdp_internal.h Pages: 1 -->
<svg width="4470pt" height="95pt"
 viewBox="0.00 0.00 4470.00 95.00" xmlns="http://www.w3.org/2000/svg" xmlns:xlink="http://www.w3.org/1999/xlink">
<g id="graph0" class="graph" transform="scale(1 1) rotate(0) translate(4 91)">
<title>src/vdp_internal.h</title>
<!-- Node1 -->
<g id="node1" class="node">
<title>Node1</title>
<g id="a_node1"><a xlink:title=" ">
<polygon fill="#bfbfbf" stroke="black" points="2206,-67.5 2206,-86.5 2310,-86.5 2310,-67.5 2206,-67.5"/>
<text text-anchor="middle" x="2258" y="-74.5" font-family="Helvetica,sans-Serif" font-size="10.00">src/vdp_internal.h</text>
</a>
</g>
</g>
<!-- Node2 -->
<g id="node2" class="node">
<title>Node2</title>
<g id="a_node2"><a xlink:href="vdp_8c.html" target="_top" xlink:title=" ">
<polygon fill="none" stroke="black" points="0,-6 0,-25 60,-25 60,-6 0,-6"/>
<text text-anchor="middle" x="30" y="-13" font-family="Helvetica,sans-Serif" font-size="10.00">src/vdp.c</text>
</a>
</g>
</g>
<!-- Node1&#45;&gt;Node2 -->
<g id="edge1" class="edge">
<title>Node1&#45;&gt;Node2</title>
<path fill="none" stroke="midnightblue" d="M2195.39,-75.96C1859.9,-75.58 282.38,-71.65 69,-31 62.33,-29.73 55.3,-27.44 49.07,-25.04"/>
<polygon fill="midnightblue" stroke="midnightblue" points="2195.87,-79.46 2205.87,-75.97 2195.88,-72.46 2195.87,-79.46"/>
</g>
<!-- Node3 -->
<g id="node3" class="node">
<title>Node3</title>
<g id="a_node3"><a xlink:href="vdp__cmd__execute__HMMM_8c.html" target="_top" xlink:title=" ">
<polygon fill="none" stroke="black" points="78,-0.5 78,-30.5 200,-30.5 200,-0.5 78,-0.5"/>
<text text-anchor="start" x="86" y="-18.5" font-family="Helvetica,sans-Serif" font-size="10.00">src/vdp_cmd_execute</text>
<text text-anchor="middle" x="139" y="-7.5" font-family="Helvetica,sans-Serif" font-size="10.00">_HMMM.c</text>
</a>
</g>
</g>
<!-- Node1&#45;&gt;Node3 -->
<g id="edge2" class="edge">
<title>Node1&#45;&gt;Node3</title>
<path fill="none" stroke="midnightblue" d="M2195.44,-76.16C1896.1,-76.71 607.97,-76.32 209,-31 206.16,-30.68 203.27,-30.3 200.36,-29.87"/>
<polygon fill="midnightblue" stroke="midnightblue" points="2195.68,-79.66 2205.67,-76.14 2195.67,-72.66 2195.68,-79.66"/>
</g>
<!-- Node4 -->
<g id="node4" class="node">
<title>Node4</title>
<g id="a_node4"><a xlink:href="vdp__cmd__execute__HMMV_8c.html" target="_top" xlink:title=" ">
<polygon fill="none" stroke="black" points="218,-0.5 218,-30.5 340,-30.5 340,-0.5 218,-0.5"/>
<text text-anchor="start" x="226" y="-18.5" font-family="Helvetica,sans-Serif" font-size="10.00">src/vdp_cmd_execute</text>
<text text-anchor="middle" x="279" y="-7.5" font-family="Helvetica,sans-Serif" font-size="10.00">_HMMV.c</text>
</a>
</g>
</g>
<!-- Node1&#45;&gt;Node4 -->
<g id="edge3" class="edge">
<title>Node1&#45;&gt;Node4</title>
<path fill="none" stroke="midnightblue" d="M2195.58,-76.04C1909.15,-76.02 718.88,-73.32 349,-31 346.16,-30.68 343.27,-30.29 340.36,-29.86"/>
<polygon fill="midnightblue" stroke="midnightblue" points="2195.78,-79.55 2205.78,-76.04 2195.78,-72.55 2195.78,-79.55"/>
</g>
<!-- Node5 -->
<g id="node5" class="node">
<title>Node5</title>
<g id="a_node5"><a xlink:href="vdp__cmd__execute__LMMM_8c.html" target="_top" xlink:title=" ">
<polygon fill="none" stroke="black" points="358,-0.5 358,-30.5 480,-30.5 480,-0.5 358,-0.5"/>
<text text-anchor="start" x="366" y="-18.5" font-family="Helvetica,sans-Serif" font-size="10.00">src/vdp_cmd_execute</text>
<text text-anchor="middle" x="419" y="-7.5" font-family="Helvetica,sans-Serif" font-size="10.00">_LMMM.c</text>
</a>
</g>
</g>
<!-- Node1&#45;&gt;Node5 -->
<g id="edge4" class="edge">
<title>Node1&#45;&gt;Node5</title>
<path fill="none" stroke="midnightblue" d="M2195.75,-75.91C1922.75,-75.28 829.87,-70.32 489,-31 486.16,-30.67 483.27,-30.29 480.36,-29.86"/>
<polygon fill="midnightblue" stroke="midnightblue" points="2195.86,-79.41 2205.87,-75.93 2195.88,-72.41 2195.86,-79.41"/>
</g>
<!-- Node6 -->
<g id="node6" class="node">
<title>Node6</title>
<g id="a_node6"><a xlink:href="vdp__cmd__execute__LMMV_8c.html" target="_top" xlink:title=" ">
<polygon fill="none" stroke="black" points="498,-0.5 498,-30.5 620,-30.5 620,-0.5 498,-0.5"/>
<text text-anchor="start" x="506" y="-18.5" font-family="Helvetica,sans-Serif" font-size="10.00">src/vdp_cmd_execute</text>
<text text-anchor="middle" x="559" y="-7.5" font-family="Helvetica,sans-Serif" font-size="10.00">_LMMV.c</text>
</a>
</g>
</g>
<!-- Node1&#45;&gt;Node6 -->
<g id="edge5" class="edge">
<title>Node1&#45;&gt;Node6</title>
<path fill="none" stroke="midnightblue" d="M2195.62,-75.75C1936.08,-74.48 940.81,-67.31 629,-31 626.16,-30.67 623.27,-30.28 620.36,-29.85"/>
<polygon fill="midnightblue" stroke="midnightblue" points="2195.61,-79.25 2205.63,-75.8 2195.64,-72.25 2195.61,-79.25"/>
</g>
<!-- Node7 -->
<g id="node7" class="node">
<title>Node7</title>
<g id="a_node7"><a xlink:href="vdp__cmd__set__unrestricted_8c.html" target="_top" xlink:title=" ">
<polygon fill="none" stroke="black" points="638,-6 638,-25 808,-25 808,-6 638,-6"/>
<text text-anchor="middle" x="723" y="-13" font-family="Helvetica,sans-Serif" font-size="10.00">src/vdp_cmd_set_unrestricted.c</text>
</a>
</g>
</g>
<!-- Node1&#45;&gt;Node7 -->
<g id="edge6" class="edge">
<title>Node1&#45;&gt;Node7</title>
<path fill="none" stroke="midnightblue" d="M2195.52,-75.06C1955.25,-71.3 1090.67,-56.29 817,-31 801.87,-29.6 785.48,-27.34 770.68,-25.01"/>
<polygon fill="midnightblue" stroke="midnightblue" points="2195.76,-78.57 2205.81,-75.22 2195.87,-71.57 2195.76,-78.57"/>
</g>
<!-- Node8 -->
<g id="node8" class="node">
<title>Node8</title>
<g id="a_node8"><a xlink:href="vdp__get__sprite__mode_8c.html" target="_top" xlink:title=" ">
<polygon fill="none" stroke="black" points="826,-0.5 826,-30.5 932,-30.5 932,-0.5 826,-0.5"/>
<text text-anchor="start" x="834" y="-18.5" font-family="Helvetica,sans-Serif" font-size="10.00">src/vdp_get_sprite</text>
<text text-anchor="middle" x="879" y="-7.5" font-family="Helvetica,sans-Serif" font-size="10.00">_mode.c</text>
</a>
</g>
</g>
<!-- Node1&#45;&gt;Node8 -->
<g id="edge7" class="edge">
<title>Node1&#45;&gt;Node8</title>
<path fill="none" stroke="midnightblue" d="M2195.59,-75.49C1968.71,-73.36 1188.09,-63.79 941,-31 938.15,-30.62 935.24,-30.17 932.31,-29.67"/>
<polygon fill="midnightblue" stroke="midnightblue" points="2195.62,-78.99 2205.66,-75.58 2195.69,-71.99 2195.62,-78.99"/>
</g>
<!-- Node9 -->
<g id="node9" class="node">
<title>Node9</title>
<g id="a_node9"><a xlink:href="vdp__get__status_8c.html" target="_top" xlink:title=" ">
<polygon fill="none" stroke="black" points="950,-6 950,-25 1066,-25 1066,-6 950,-6"/>
<text text-anchor="middle" x="1008" y="-13" font-family="Helvetica,sans-Serif" font-size="10.00">src/vdp_get_status.c</text>
</a>
</g>
</g>
<!-- Node1&#45;&gt;Node9 -->
<g id="edge8" class="edge">
<title>Node1&#45;&gt;Node9</title>
<path fill="none" stroke="midnightblue" d="M2195.68,-75.07C1984.21,-71.69 1294.94,-58.76 1075,-31 1064.14,-29.63 1052.43,-27.37 1041.89,-25.04"/>
<polygon fill="midnightblue" stroke="midnightblue" points="2195.63,-78.57 2205.68,-75.23 2195.74,-71.57 2195.63,-78.57"/>
</g>
<!-- Node10 -->
<g id="node10" class="node">
<title>Node10</title>
<g id="a_node10"><a xlink:href="vdp__set__adjust_8c.html" target="_top" xlink:title=" ">
<polygon fill="none" stroke="black" points="1084,-6 1084,-25 1200,-25 1200,-6 1084,-6"/>
<text text-anchor="middle" x="1142" y="-13" font-family="Helvetica,sans-Serif" font-size="10.00">src/vdp_set_adjust.c</text>
</a>
</g>
</g>
<!-- Node1&#45;&gt;Node10 -->
<g id="edge9" class="edge">
<title>Node1&#45;&gt;Node10</title>
<path fill="none" stroke="midnightblue" d="M2195.62,-74.72C2000.23,-70.49 1401.6,-55.79 1209,-31 1198.14,-29.6 1186.43,-27.34 1175.89,-25.01"/>
<polygon fill="midnightblue" stroke="midnightblue" points="2195.65,-78.22 2205.72,-74.94 2195.8,-71.22 2195.65,-78.22"/>
</g>
<!-- Node11 -->
<g id="node11" class="node">
<title>Node11</title>
<g id="a_node11"><a xlink:href="vdp__set__color_8c.html" target="_top" xlink:title=" ">
<polygon fill="none" stroke="black" points="1218.5,-6 1218.5,-25 1327.5,-25 1327.5,-6 1218.5,-6"/>
<text text-anchor="middle" x="1273" y="-13" font-family="Helvetica,sans-Serif" font-size="10.00">src/vdp_set_color.c</text>
</a>
</g>
</g>
<!-- Node1&#45;&gt;Node11 -->
<g id="edge10" class="edge">
<title>Node1&#45;&gt;Node11</title>
<path fill="none" stroke="midnightblue" d="M2195.45,-76.68C2046.17,-77.49 1657.63,-74.82 1337,-31 1326.73,-29.6 1315.67,-27.36 1305.69,-25.06"/>
<polygon fill="midnightblue" stroke="midnightblue" points="2195.8,-80.18 2205.78,-76.62 2195.76,-73.18 2195.8,-80.18"/>
</g>
<!-- Node12 -->
<g id="node12" class="node">
<title>Node12</title>
<g id="a_node12"><a xlink:href="vdp__set__color__table_8c.html" target="_top" xlink:title=" ">
<polygon fill="none" stroke="black" points="1346,-6 1346,-25 1486,-25 1486,-6 1346,-6"/>
<text text-anchor="middle" x="1416" y="-13" font-family="Helvetica,sans-Serif" font-size="10.00">src/vdp_set_color_table.c</text>
</a>
</g>
</g>
<!-- Node1&#45;&gt;Node12 -->
<g id="edge11" class="edge">
<title>Node1&#45;&gt;Node12</title>
<path fill="none" stroke="midnightblue" d="M2195.81,-74.91C2065.42,-72.07 1754.09,-62.3 1495,-31 1482.68,-29.51 1469.38,-27.31 1457.26,-25.06"/>
<polygon fill="midnightblue" stroke="midnightblue" points="2195.92,-78.42 2206,-75.13 2196.07,-71.42 2195.92,-78.42"/>
</g>
<!-- Node13 -->
<g id="node13" class="node">
<title>Node13</title>
<g id="a_node13"><a xlink:href="vdp__set__control_8c.html" target="_top" xlink:title=" ">
<polygon fill="none" stroke="black" points="1504.5,-6 1504.5,-25 1623.5,-25 1623.5,-6 1504.5,-6"/>
<text text-anchor="middle" x="1564" y="-13" font-family="Helvetica,sans-Serif" font-size="10.00">src/vdp_set_control.c</text>
</a>
</g>
</g>
<!-- Node1&#45;&gt;Node13 -->
<g id="edge12" class="edge">
<title>Node1&#45;&gt;Node13</title>
<path fill="none" stroke="midnightblue" d="M2195.73,-74.3C2082.99,-70.62 1837.76,-59.75 1633,-31 1622.21,-29.49 1610.58,-27.27 1600.01,-25.03"/>
<polygon fill="midnightblue" stroke="midnightblue" points="2195.79,-77.81 2205.89,-74.63 2196.01,-70.81 2195.79,-77.81"/>
</g>
<!-- Node14 -->
<g id="node14" class="node">
<title>Node14</title>
<g id="a_node14"><a xlink:href="vdp__set__hscroll_8c.html" target="_top" xlink:title=" ">
<polygon fill="none" stroke="black" points="1642,-6 1642,-25 1760,-25 1760,-6 1642,-6"/>
<text text-anchor="middle" x="1701" y="-13" font-family="Helvetica,sans-Serif" font-size="10.00">src/vdp_set_hscroll.c</text>
</a>
</g>
</g>
<!-- Node1&#45;&gt;Node14 -->
<g id="edge13" class="edge">
<title>Node1&#45;&gt;Node14</title>
<path fill="none" stroke="midnightblue" d="M2195.54,-72.62C2102.29,-67.05 1921.32,-54.17 1769,-31 1758.62,-29.42 1747.44,-27.24 1737.2,-25.05"/>
<polygon fill="midnightblue" stroke="midnightblue" points="2195.46,-76.13 2205.65,-73.22 2195.87,-69.14 2195.46,-76.13"/>
</g>
<!-- Node15 -->
<g id="node15" class="node">
<title>Node15</title>
<g id="a_node15"><a xlink:href="vdp__set__hscroll__dual__page_8c.html" target="_top" xlink:title=" ">
<polygon fill="none" stroke="black" points="1778,-0.5 1778,-30.5 1888,-30.5 1888,-0.5 1778,-0.5"/>
<text text-anchor="start" x="1786" y="-18.5" font-family="Helvetica,sans-Serif" font-size="10.00">src/vdp_set_hscroll</text>
<text text-anchor="middle" x="1833" y="-7.5" font-family="Helvetica,sans-Serif" font-size="10.00">_dual_page.c</text>
</a>
</g>
</g>
<!-- Node1&#45;&gt;Node15 -->
<g id="edge14" class="edge">
<title>Node1&#45;&gt;Node15</title>
<path fill="none" stroke="midnightblue" d="M2195.47,-70.1C2123.26,-62.85 2001.06,-49.23 1897,-31 1894.08,-30.49 1891.1,-29.93 1888.09,-29.34"/>
<polygon fill="midnightblue" stroke="midnightblue" points="2195.45,-73.62 2205.75,-71.12 2196.15,-66.65 2195.45,-73.62"/>
</g>
<!-- Node16 -->
<g id="node16" class="node">
<title>Node16</title>
<g id="a_node16"><a xlink:href="vdp__set__hscroll__mask_8c.html" target="_top" xlink:title=" ">
<polygon fill="none" stroke="black" points="1906,-0.5 1906,-30.5 2016,-30.5 2016,-0.5 1906,-0.5"/>
<text text-anchor="start" x="1914" y="-18.5" font-family="Helvetica,sans-Serif" font-size="10.00">src/vdp_set_hscroll</text>
<text text-anchor="middle" x="1961" y="-7.5" font-family="Helvetica,sans-Serif" font-size="10.00">_mask.c</text>
</a>
</g>
</g>
<!-- Node1&#45;&gt;Node16 -->
<g id="edge15" class="edge">
<title>Node1&#45;&gt;Node16</title>
<path fill="none" stroke="midnightblue" d="M2201.46,-65.6C2154.21,-56.79 2085.1,-43.61 2025,-31 2022.1,-30.39 2019.13,-29.76 2016.13,-29.11"/>
<polygon fill="midnightblue" stroke="midnightblue" points="2201.02,-69.08 2211.49,-67.47 2202.3,-62.2 2201.02,-69.08"/>
</g>
<!-- Node17 -->
<g id="node17" class="node">
<title>Node17</title>
<g id="a_node17"><a xlink:href="vdp__set__image__table_8c.html" target="_top" xlink:title=" ">
<polygon fill="none" stroke="black" points="2034,-6 2034,-25 2180,-25 2180,-6 2034,-6"/>
<text text-anchor="middle" x="2107" y="-13" font-family="Helvetica,sans-Serif" font-size="10.00">src/vdp_set_image_table.c</text>
</a>
</g>
</g>
<!-- Node1&#45;&gt;Node17 -->
<g id="edge16" class="edge">
<title>Node1&#45;&gt;Node17</title>
<path fill="none" stroke="midnightblue" d="M2226.99,-63.78C2197.65,-52.22 2154.37,-35.16 2128.59,-25.01"/>
<polygon fill="midnightblue" stroke="midnightblue" points="2225.78,-67.07 2236.37,-67.48 2228.34,-60.55 2225.78,-67.07"/>
</g>
<!-- Node18 -->
<g id="node18" class="node">
<title>Node18</title>
<g id="a_node18"><a xlink:href="vdp__set__palette_8c.html" target="_top" xlink:title=" ">
<polygon fill="none" stroke="black" points="2198,-6 2198,-25 2318,-25 2318,-6 2198,-6"/>
<text text-anchor="middle" x="2258" y="-13" font-family="Helvetica,sans-Serif" font-size="10.00">src/vdp_set_palette.c</text>
</a>
</g>
</g>
<!-- Node1&#45;&gt;Node18 -->
<g id="edge17" class="edge">
<title>Node1&#45;&gt;Node18</title>
<path fill="none" stroke="midnightblue" d="M2258,-57.32C2258,-46.5 2258,-33.4 2258,-25.01"/>
<polygon fill="midnightblue" stroke="midnightblue" points="2254.5,-57.48 2258,-67.48 2261.5,-57.48 2254.5,-57.48"/>
</g>
<!-- Node19 -->
<g id="node19" class="node">
<title>Node19</title>
<g id="a_node19"><a xlink:href="vdp__set__pattern__table_8c.html" target="_top" xlink:title=" ">
<polygon fill="none" stroke="black" points="2336.5,-0.5 2336.5,-30.5 2449.5,-30.5 2449.5,-0.5 2336.5,-0.5"/>
<text text-anchor="start" x="2344.5" y="-18.5" font-family="Helvetica,sans-Serif" font-size="10.00">src/vdp_set_pattern</text>
<text text-anchor="middle" x="2393" y="-7.5" font-family="Helvetica,sans-Serif" font-size="10.00">_table.c</text>
</a>
</g>
</g>
<!-- Node1&#45;&gt;Node19 -->
<g id="edge18" class="edge">
<title>Node1&#45;&gt;Node19</title>
<path fill="none" stroke="midnightblue" d="M2286.75,-63.33C2308.59,-53.7 2338.62,-40.47 2361.18,-30.52"/>
<polygon fill="midnightblue" stroke="midnightblue" points="2285.08,-60.24 2277.34,-67.48 2287.9,-66.64 2285.08,-60.24"/>
</g>
<!-- Node20 -->
<g id="node20" class="node">
<title>Node20</title>
<g id="a_node20"><a xlink:href="vdp__set__screen__lines_8c.html" target="_top" xlink:title=" ">
<polygon fill="none" stroke="black" points="2468,-0.5 2468,-30.5 2578,-30.5 2578,-0.5 2468,-0.5"/>
<text text-anchor="start" x="2476" y="-18.5" font-family="Helvetica,sans-Serif" font-size="10.00">src/vdp_set_screen</text>
<text text-anchor="middle" x="2523" y="-7.5" font-family="Helvetica,sans-Serif" font-size="10.00">_lines.c</text>
</a>
</g>
</g>
<!-- Node1&#45;&gt;Node20 -->
<g id="edge19" class="edge">
<title>Node1&#45;&gt;Node20</title>
<path fill="none" stroke="midnightblue" d="M2306.09,-65.27C2346.81,-56.17 2406.74,-42.77 2459,-31 2461.89,-30.35 2464.85,-29.68 2467.84,-29.01"/>
<polygon fill="midnightblue" stroke="midnightblue" points="2305.16,-61.89 2296.17,-67.49 2306.69,-68.72 2305.16,-61.89"/>
</g>
<!-- Node21 -->
<g id="node21" class="node">
<title>Node21</title>
<g id="a_node21"><a xlink:href="vdp__set__screen__mode_8c.html" target="_top" xlink:title=" ">
<polygon fill="none" stroke="black" points="2596,-0.5 2596,-30.5 2706,-30.5 2706,-0.5 2596,-0.5"/>
<text text-anchor="start" x="2604" y="-18.5" font-family="Helvetica,sans-Serif" font-size="10.00">src/vdp_set_screen</text>
<text text-anchor="middle" x="2651" y="-7.5" font-family="Helvetica,sans-Serif" font-size="10.00">_mode.c</text>
</a>
</g>
</g>
<!-- Node1&#45;&gt;Node21 -->
<g id="edge20" class="edge">
<title>Node1&#45;&gt;Node21</title>
<path fill="none" stroke="midnightblue" d="M2320.36,-69.11C2386.72,-61.39 2494.66,-47.74 2587,-31 2589.91,-30.47 2592.9,-29.9 2595.9,-29.3"/>
<polygon fill="midnightblue" stroke="midnightblue" points="2319.61,-65.67 2310.07,-70.29 2320.41,-72.62 2319.61,-65.67"/>
</g>
<!-- Node22 -->
<g id="node22" class="node">
<title>Node22</title>
<g id="a_node22"><a xlink:href="vdp__set__sprite__attribute__table_8c.html" target="_top" xlink:title=" ">
<polygon fill="none" stroke="black" points="2724.5,-0.5 2724.5,-30.5 2829.5,-30.5 2829.5,-0.5 2724.5,-0.5"/>
<text text-anchor="start" x="2732.5" y="-18.5" font-family="Helvetica,sans-Serif" font-size="10.00">src/vdp_set_sprite</text>
<text text-anchor="middle" x="2777" y="-7.5" font-family="Helvetica,sans-Serif" font-size="10.00">_attribute_table.c</text>
</a>
</g>
</g>
<!-- Node1&#45;&gt;Node22 -->
<g id="edge21" class="edge">
<title>Node1&#45;&gt;Node22</title>
<path fill="none" stroke="midnightblue" d="M2320.14,-72.48C2408.38,-66.9 2574.84,-54.19 2715,-31 2718.05,-30.49 2721.18,-29.93 2724.33,-29.32"/>
<polygon fill="midnightblue" stroke="midnightblue" points="2319.8,-69 2310.04,-73.11 2320.23,-75.98 2319.8,-69"/>
</g>
<!-- Node23 -->
<g id="node23" class="node">
<title>Node23</title>
<g id="a_node23"><a xlink:href="vdp__set__sprite__pattern__table_8c.html" target="_top" xlink:title=" ">
<polygon fill="none" stroke="black" points="2847.5,-0.5 2847.5,-30.5 2952.5,-30.5 2952.5,-0.5 2847.5,-0.5"/>
<text text-anchor="start" x="2855.5" y="-18.5" font-family="Helvetica,sans-Serif" font-size="10.00">src/vdp_set_sprite</text>
<text text-anchor="middle" x="2900" y="-7.5" font-family="Helvetica,sans-Serif" font-size="10.00">_pattern_table.c</text>
</a>
</g>
</g>
<!-- Node1&#45;&gt;Node23 -->
<g id="edge22" class="edge">
<title>Node1&#45;&gt;Node23</title>
<path fill="none" stroke="midnightblue" d="M2320.27,-74.36C2427.02,-70.85 2651.58,-60.35 2839,-31 2841.69,-30.58 2844.43,-30.1 2847.2,-29.58"/>
<polygon fill="midnightblue" stroke="midnightblue" points="2319.89,-70.87 2310,-74.69 2320.11,-77.87 2319.89,-70.87"/>
</g>
<!-- Node24 -->
<g id="node24" class="node">
<title>Node24</title>
<g id="a_node24"><a xlink:href="vdp__set__sprite__size_8c.html" target="_top" xlink:title=" ">
<polygon fill="none" stroke="black" points="2970.5,-0.5 2970.5,-30.5 3075.5,-30.5 3075.5,-0.5 2970.5,-0.5"/>
<text text-anchor="start" x="2978.5" y="-18.5" font-family="Helvetica,sans-Serif" font-size="10.00">src/vdp_set_sprite</text>
<text text-anchor="middle" x="3023" y="-7.5" font-family="Helvetica,sans-Serif" font-size="10.00">_size.c</text>
</a>
</g>
</g>
<!-- Node1&#45;&gt;Node24 -->
<g id="edge23" class="edge">
<title>Node1&#45;&gt;Node24</title>
<path fill="none" stroke="midnightblue" d="M2320.44,-75.55C2443.76,-73.89 2726.97,-66.19 2962,-31 2964.69,-30.6 2967.44,-30.13 2970.21,-29.63"/>
<polygon fill="midnightblue" stroke="midnightblue" points="2320.38,-72.05 2310.43,-75.68 2320.47,-79.05 2320.38,-72.05"/>
</g>
<!-- Node25 -->
<g id="node25" class="node">
<title>Node25</title>
<g id="a_node25"><a xlink:href="vdp__set__sprite__visible_8c.html" target="_top" xlink:title=" ">
<polygon fill="none" stroke="black" points="3093.5,-0.5 3093.5,-30.5 3198.5,-30.5 3198.5,-0.5 3093.5,-0.5"/>
<text text-anchor="start" x="3101.5" y="-18.5" font-family="Helvetica,sans-Serif" font-size="10.00">src/vdp_set_sprite</text>
<text text-anchor="middle" x="3146" y="-7.5" font-family="Helvetica,sans-Serif" font-size="10.00">_visible.c</text>
</a>
</g>
</g>
<!-- Node1&#45;&gt;Node25 -->
<g id="edge24" class="edge">
<title>Node1&#45;&gt;Node25</title>
<path fill="none" stroke="midnightblue" d="M2320.49,-76.4C2458.95,-76.46 2801.73,-72.04 3085,-31 3087.69,-30.61 3090.44,-30.16 3093.21,-29.66"/>
<polygon fill="midnightblue" stroke="midnightblue" points="2320.09,-72.9 2310.09,-76.39 2320.08,-79.9 2320.09,-72.9"/>
</g>
<!-- Node26 -->
<g id="node26" class="node">
<title>Node26</title>
<g id="a_node26"><a xlink:href="vdp__set__visible_8c.html" target="_top" xlink:title=" ">
<polygon fill="none" stroke="black" points="3217,-6 3217,-25 3335,-25 3335,-6 3217,-6"/>
<text text-anchor="middle" x="3276" y="-13" font-family="Helvetica,sans-Serif" font-size="10.00">src/vdp_set_visible.c</text>
</a>
</g>
</g>
<!-- Node1&#45;&gt;Node26 -->
<g id="edge25" class="edge">
<title>Node1&#45;&gt;Node26</title>
<path fill="none" stroke="midnightblue" d="M2320.09,-76.54C2472.18,-77.12 2875.25,-74.07 3208,-31 3218.89,-29.59 3230.64,-27.35 3241.24,-25.05"/>
<polygon fill="midnightblue" stroke="midnightblue" points="2320.02,-73.04 2310.01,-76.5 2319.99,-80.04 2320.02,-73.04"/>
</g>
<!-- Node27 -->
<g id="node27" class="node">
<title>Node27</title>
<g id="a_node27"><a xlink:href="vdp__set__vscroll_8c.html" target="_top" xlink:title=" ">
<polygon fill="none" stroke="black" points="3353,-6 3353,-25 3471,-25 3471,-6 3353,-6"/>
<text text-anchor="middle" x="3412" y="-13" font-family="Helvetica,sans-Serif" font-size="10.00">src/vdp_set_vscroll.c</text>
</a>
</g>
</g>
<!-- Node1&#45;&gt;Node27 -->
<g id="edge26" class="edge">
<title>Node1&#45;&gt;Node27</title>
<path fill="none" stroke="midnightblue" d="M2320.19,-74.8C2519.93,-70.74 3143.77,-56.31 3344,-31 3355.02,-29.61 3366.9,-27.34 3377.6,-25.01"/>
<polygon fill="midnightblue" stroke="midnightblue" points="2320.09,-71.3 2310.16,-75.01 2320.23,-78.3 2320.09,-71.3"/>
</g>
<!-- Node28 -->
<g id="node28" class="node">
<title>Node28</title>
<g id="a_node28"><a xlink:href="vdp__write__control_8c.html" target="_top" xlink:title=" ">
<polygon fill="none" stroke="black" points="3489.5,-6 3489.5,-25 3618.5,-25 3618.5,-6 3489.5,-6"/>
<text text-anchor="middle" x="3554" y="-13" font-family="Helvetica,sans-Serif" font-size="10.00">src/vdp_write_control.c</text>
</a>
</g>
</g>
<!-- Node1&#45;&gt;Node28 -->
<g id="edge27" class="edge">
<title>Node1&#45;&gt;Node28</title>
<path fill="none" stroke="midnightblue" d="M2320.5,-74.99C2536.67,-71.31 3251.89,-57.38 3480,-31 3491.96,-29.62 3504.89,-27.35 3516.53,-25.02"/>
<polygon fill="midnightblue" stroke="midnightblue" points="2320.22,-71.5 2310.28,-75.17 2320.34,-78.5 2320.22,-71.5"/>
</g>
<!-- Node29 -->
<g id="node29" class="node">
<title>Node29</title>
<g id="a_node29"><a xlink:href="vdp__write__palette_8c.html" target="_top" xlink:title=" ">
<polygon fill="none" stroke="black" points="3637,-6 3637,-25 3767,-25 3767,-6 3637,-6"/>
<text text-anchor="middle" x="3702" y="-13" font-family="Helvetica,sans-Serif" font-size="10.00">src/vdp_write_palette.c</text>
</a>
</g>
</g>
<!-- Node1&#45;&gt;Node29 -->
<g id="edge28" class="edge">
<title>Node1&#45;&gt;Node29</title>
<path fill="none" stroke="midnightblue" d="M2320.5,-75.28C2553.25,-72.4 3369.51,-60.38 3628,-31 3639.97,-29.64 3652.89,-27.38 3664.54,-25.05"/>
<polygon fill="midnightblue" stroke="midnightblue" points="2320.15,-71.79 2310.19,-75.41 2320.23,-78.79 2320.15,-71.79"/>
</g>
<!-- Node30 -->
<g id="node30" class="node">
<title>Node30</title>
<g id="a_node30"><a xlink:href="vmem__memset_8c.html" target="_top" xlink:title=" ">
<polygon fill="none" stroke="black" points="3785.5,-6 3785.5,-25 3904.5,-25 3904.5,-6 3785.5,-6"/>
<text text-anchor="middle" x="3845" y="-13" font-family="Helvetica,sans-Serif" font-size="10.00">src/vmem_memset.c</text>
</a>
</g>
</g>
<!-- Node1&#45;&gt;Node30 -->
<g id="edge29" class="edge">
<title>Node1&#45;&gt;Node30</title>
<path fill="none" stroke="midnightblue" d="M2320.55,-75.63C2569.08,-73.91 3487.25,-65.34 3776,-31 3787.3,-29.66 3799.5,-27.37 3810.45,-25.01"/>
<polygon fill="midnightblue" stroke="midnightblue" points="2320.23,-72.13 2310.26,-75.7 2320.28,-79.13 2320.23,-72.13"/>
</g>
<!-- Node31 -->
<g id="node31" class="node">
<title>Node31</title>
<g id="a_node31"><a xlink:href="vmem__read_8c.html" target="_top" xlink:title=" ">
<polygon fill="none" stroke="black" points="3922.5,-6 3922.5,-25 4023.5,-25 4023.5,-6 3922.5,-6"/>
<text text-anchor="middle" x="3973" y="-13" font-family="Helvetica,sans-Serif" font-size="10.00">src/vmem_read.c</text>
</a>
</g>
</g>
<!-- Node1&#45;&gt;Node31 -->
<g id="edge30" class="edge">
<title>Node1&#45;&gt;Node31</title>
<path fill="none" stroke="midnightblue" d="M2320.14,-76.09C2582.07,-76.18 3597.22,-73.73 3914,-31 3923.72,-29.69 3934.17,-27.42 3943.53,-25.05"/>
<polygon fill="midnightblue" stroke="midnightblue" points="2320.05,-72.59 2310.04,-76.08 2320.04,-79.59 2320.05,-72.59"/>
</g>
<!-- Node32 -->
<g id="node32" class="node">
<title>Node32</title>
<g id="a_node32"><a xlink:href="vmem__set__read__address_8c.html" target="_top" xlink:title=" ">
<polygon fill="none" stroke="black" points="4042,-6 4042,-25 4206,-25 4206,-6 4042,-6"/>
<text text-anchor="middle" x="4124" y="-13" font-family="Helvetica,sans-Serif" font-size="10.00">src/vmem_set_read_address.c</text>
</a>
</g>
</g>
<!-- Node1&#45;&gt;Node32 -->
<g id="edge31" class="edge">
<title>Node1&#45;&gt;Node32</title>
<path fill="none" stroke="midnightblue" d="M2320.42,-75.53C2594.18,-73.3 3690.16,-62.52 4033,-31 4047.66,-29.65 4063.53,-27.4 4077.86,-25.07"/>
<polygon fill="midnightblue" stroke="midnightblue" points="2320.24,-72.03 2310.27,-75.61 2320.3,-79.03 2320.24,-72.03"/>
</g>
<!-- Node33 -->
<g id="node33" class="node">
<title>Node33</title>
<g id="a_node33"><a xlink:href="vmem__set__write__address_8c.html" target="_top" xlink:title=" ">
<polygon fill="none" stroke="black" points="4224,-0.5 4224,-30.5 4340,-30.5 4340,-0.5 4224,-0.5"/>
<text text-anchor="start" x="4232" y="-18.5" font-family="Helvetica,sans-Serif" font-size="10.00">src/vmem_set_write</text>
<text text-anchor="middle" x="4282" y="-7.5" font-family="Helvetica,sans-Serif" font-size="10.00">_address.c</text>
</a>
</g>
</g>
<!-- Node1&#45;&gt;Node33 -->
<g id="edge32" class="edge">
<title>Node1&#45;&gt;Node33</title>
<path fill="none" stroke="midnightblue" d="M2320.56,-76.16C2611.64,-76.67 3835.38,-76.03 4215,-31 4217.84,-30.66 4220.73,-30.26 4223.64,-29.81"/>
<polygon fill="midnightblue" stroke="midnightblue" points="2320.2,-72.66 2310.19,-76.14 2320.19,-79.66 2320.2,-72.66"/>
</g>
<!-- Node34 -->
<g id="node34" class="node">
<title>Node34</title>
<g id="a_node34"><a xlink:href="vmem__write_8c.html" target="_top" xlink:title=" ">
<polygon fill="none" stroke="black" points="4358,-6 4358,-25 4462,-25 4462,-6 4358,-6"/>
<text text-anchor="middle" x="4410" y="-13" font-family="Helvetica,sans-Serif" font-size="10.00">src/vmem_write.c</text>
</a>
</g>
</g>
<!-- Node1&#45;&gt;Node34 -->
<g id="edge33" class="edge">
<title>Node1&#45;&gt;Node34</title>
<path fill="none" stroke="midnightblue" d="M2320.63,-75.44C2646.79,-72.44 4143.8,-57.29 4349,-31 4359.15,-29.7 4370.07,-27.4 4379.83,-25.01"/>
<polygon fill="midnightblue" stroke="midnightblue" points="2320.39,-71.94 2310.42,-75.54 2320.45,-78.94 2320.39,-71.94"/>
</g>
</g>
</svg>
