<?xml version="1.0" encoding="UTF-8" standalone="no"?>
<!DOCTYPE svg PUBLIC "-//W3C//DTD SVG 1.1//EN"
 "http://www.w3.org/Graphics/SVG/1.1/DTD/svg11.dtd">
<!-- Generated by graphviz version 7.0.5 (20221223.1930)
 -->
<!-- Title: include/vdp.h Pages: 1 -->
<svg width="632pt" height="302pt"
 viewBox="0.00 0.00 631.63 302.00" xmlns="http://www.w3.org/2000/svg" xmlns:xlink="http://www.w3.org/1999/xlink">
<g id="graph0" class="graph" transform="scale(1 1) rotate(0) translate(4 298)">
<title>include/vdp.h</title>
<!-- Node1 -->
<g id="node1" class="node">
<title>Node1</title>
<g id="a_node1"><a xlink:title="Data types and functions for VDP (Video Display Proccessor) access.">
<polygon fill="#999999" stroke="#666666" points="314.5,-294 240.5,-294 240.5,-275 314.5,-275 314.5,-294"/>
<text text-anchor="middle" x="277.5" y="-282" font-family="Helvetica,sans-Serif" font-size="10.00">include/vdp.h</text>
</a>
</g>
</g>
<!-- Node2 -->
<g id="node2" class="node">
<title>Node2</title>
<g id="a_node2"><a xlink:title=" ">
<polygon fill="#e0e0e0" stroke="#999999" points="51,-239 0,-239 0,-220 51,-220 51,-239"/>
<text text-anchor="middle" x="25.5" y="-227" font-family="Helvetica,sans-Serif" font-size="10.00">assert.h</text>
</a>
</g>
</g>
<!-- Node1&#45;&gt;Node2 -->
<g id="edge1" class="edge">
<title>Node1&#45;&gt;Node2</title>
<path fill="none" stroke="#63b8ff" d="M240.17,-276.27C199.06,-268.21 130.75,-254.55 62.43,-239.37"/>
<polygon fill="#63b8ff" stroke="#63b8ff" points="63.47,-236.01 52.95,-237.25 61.94,-242.84 63.47,-236.01"/>
</g>
<!-- Node3 -->
<g id="node3" class="node">
<title>Node3</title>
<g id="a_node3"><a xlink:title=" ">
<polygon fill="#e0e0e0" stroke="#999999" points="125.5,-239 69.5,-239 69.5,-220 125.5,-220 125.5,-239"/>
<text text-anchor="middle" x="97.5" y="-227" font-family="Helvetica,sans-Serif" font-size="10.00">stdbool.h</text>
</a>
</g>
</g>
<!-- Node1&#45;&gt;Node3 -->
<g id="edge2" class="edge">
<title>Node1&#45;&gt;Node3</title>
<path fill="none" stroke="#63b8ff" d="M246.97,-274.51C216.51,-265.54 169.6,-251.73 136.47,-241.97"/>
<polygon fill="#63b8ff" stroke="#63b8ff" points="137.84,-238.73 127.26,-239.26 135.86,-245.44 137.84,-238.73"/>
</g>
<!-- Node4 -->
<g id="node4" class="node">
<title>Node4</title>
<g id="a_node4"><a xlink:title=" ">
<polygon fill="#e0e0e0" stroke="#999999" points="430.5,-19 382.5,-19 382.5,0 430.5,0 430.5,-19"/>
<text text-anchor="middle" x="406.5" y="-7" font-family="Helvetica,sans-Serif" font-size="10.00">stdint.h</text>
</a>
</g>
</g>
<!-- Node1&#45;&gt;Node4 -->
<g id="edge3" class="edge">
<title>Node1&#45;&gt;Node4</title>
<path fill="none" stroke="#63b8ff" d="M252.11,-274.55C215.83,-259.95 153.5,-227.32 153.5,-175.5 153.5,-175.5 153.5,-175.5 153.5,-118.5 153.5,-25.05 301.32,-11.36 370.98,-10.1"/>
<polygon fill="#63b8ff" stroke="#63b8ff" points="370.76,-13.6 380.73,-10 370.69,-6.6 370.76,-13.6"/>
</g>
<!-- Node5 -->
<g id="node5" class="node">
<title>Node5</title>
<g id="a_node5"><a xlink:href="io_8h.html" target="_top" xlink:title="Definition of I/O ports.">
<polygon fill="white" stroke="#666666" points="359.5,-129 327.5,-129 327.5,-110 359.5,-110 359.5,-129"/>
<text text-anchor="middle" x="343.5" y="-117" font-family="Helvetica,sans-Serif" font-size="10.00">io.h</text>
</a>
</g>
</g>
<!-- Node1&#45;&gt;Node5 -->
<g id="edge4" class="edge">
<title>Node1&#45;&gt;Node5</title>
<path fill="none" stroke="#63b8ff" d="M308.57,-274.61C325.96,-267.87 346.17,-256.67 356.5,-239 374.63,-207.98 362.19,-164.54 352.31,-139.79"/>
<polygon fill="#63b8ff" stroke="#63b8ff" points="355.56,-138.48 348.4,-130.67 349.12,-141.24 355.56,-138.48"/>
</g>
<!-- Node7 -->
<g id="node7" class="node">
<title>Node7</title>
<g id="a_node7"><a xlink:href="vmem_8h.html" target="_top" xlink:title="Data types and functions for VRAM access.">
<polygon fill="white" stroke="#666666" points="271,-184 220,-184 220,-165 271,-165 271,-184"/>
<text text-anchor="middle" x="245.5" y="-172" font-family="Helvetica,sans-Serif" font-size="10.00">vmem.h</text>
</a>
</g>
</g>
<!-- Node1&#45;&gt;Node7 -->
<g id="edge7" class="edge">
<title>Node1&#45;&gt;Node7</title>
<path fill="none" stroke="#63b8ff" d="M274.88,-274.66C269.77,-257.42 258.36,-218.9 251.36,-195.27"/>
<polygon fill="#63b8ff" stroke="#63b8ff" points="254.78,-194.51 248.58,-185.91 248.07,-196.49 254.78,-194.51"/>
</g>
<!-- Node9 -->
<g id="node9" class="node">
<title>Node9</title>
<g id="a_node9"><a xlink:href="vdp__unsafe_8h.html" target="_top" xlink:title="Unsafe primitive functions for VDP (Video Display Proccessor) access.">
<polygon fill="white" stroke="#666666" points="347.5,-239 273.5,-239 273.5,-220 347.5,-220 347.5,-239"/>
<text text-anchor="middle" x="310.5" y="-227" font-family="Helvetica,sans-Serif" font-size="10.00">vdp_unsafe.h</text>
</a>
</g>
</g>
<!-- Node1&#45;&gt;Node9 -->
<g id="edge11" class="edge">
<title>Node1&#45;&gt;Node9</title>
<path fill="none" stroke="#63b8ff" d="M282.95,-274.75C287.27,-267.81 293.46,-257.86 298.88,-249.16"/>
<polygon fill="#63b8ff" stroke="#63b8ff" points="301.82,-251.07 304.13,-240.73 295.88,-247.37 301.82,-251.07"/>
</g>
<!-- Node10 -->
<g id="node10" class="node">
<title>Node10</title>
<g id="a_node10"><a xlink:href="bios_8h.html" target="_top" xlink:title="C language I/F for MSX BIOS routines.">
<polygon fill="white" stroke="#666666" points="445.5,-184 403.5,-184 403.5,-165 445.5,-165 445.5,-184"/>
<text text-anchor="middle" x="424.5" y="-172" font-family="Helvetica,sans-Serif" font-size="10.00">bios.h</text>
</a>
</g>
</g>
<!-- Node1&#45;&gt;Node10 -->
<g id="edge23" class="edge">
<title>Node1&#45;&gt;Node10</title>
<path fill="none" stroke="#63b8ff" d="M314.97,-275.52C338.55,-268.95 368.39,-257.61 389.5,-239 403.07,-227.03 412.44,-208.48 418.04,-194.52"/>
<polygon fill="#63b8ff" stroke="#63b8ff" points="421.18,-196.12 421.35,-185.53 414.61,-193.7 421.18,-196.12"/>
</g>
<!-- Node13 -->
<g id="node13" class="node">
<title>Node13</title>
<g id="a_node13"><a xlink:href="workarea_8h.html" target="_top" xlink:title="Definitions of MSX SYSTEM Workarea.">
<polygon fill="white" stroke="#666666" points="575.5,-184 511.5,-184 511.5,-165 575.5,-165 575.5,-184"/>
<text text-anchor="middle" x="543.5" y="-172" font-family="Helvetica,sans-Serif" font-size="10.00">workarea.h</text>
</a>
</g>
</g>
<!-- Node1&#45;&gt;Node13 -->
<g id="edge24" class="edge">
<title>Node1&#45;&gt;Node13</title>
<path fill="none" stroke="#63b8ff" d="M307.73,-274.55C334.93,-266.22 375.85,-253.01 410.5,-239 448.03,-223.83 489.97,-203.16 516.53,-189.58"/>
<polygon fill="#63b8ff" stroke="#63b8ff" points="517.95,-192.79 525.24,-185.1 514.75,-186.56 517.95,-192.79"/>
</g>
<!-- Node6 -->
<g id="node6" class="node">
<title>Node6</title>
<g id="a_node6"><a xlink:href="config_8h.html" target="_top" xlink:title="Hack for C Compiler portability.">
<polygon fill="white" stroke="#666666" points="503.5,-74 453.5,-74 453.5,-55 503.5,-55 503.5,-74"/>
<text text-anchor="middle" x="478.5" y="-62" font-family="Helvetica,sans-Serif" font-size="10.00">config.h</text>
</a>
</g>
</g>
<!-- Node5&#45;&gt;Node6 -->
<g id="edge5" class="edge">
<title>Node5&#45;&gt;Node6</title>
<path fill="none" stroke="#63b8ff" d="M359.78,-112.11C380.86,-103.83 418.11,-89.21 445.27,-78.54"/>
<polygon fill="#63b8ff" stroke="#63b8ff" points="446.42,-81.85 454.45,-74.94 443.86,-75.34 446.42,-81.85"/>
</g>
<!-- Node6&#45;&gt;Node4 -->
<g id="edge6" class="edge">
<title>Node6&#45;&gt;Node4</title>
<path fill="none" stroke="#63b8ff" d="M466.29,-54.51C455.67,-46.7 440.06,-35.21 427.46,-25.93"/>
<polygon fill="#63b8ff" stroke="#63b8ff" points="429.88,-23.36 419.75,-20.26 425.73,-29 429.88,-23.36"/>
</g>
<!-- Node7&#45;&gt;Node4 -->
<g id="edge8" class="edge">
<title>Node7&#45;&gt;Node4</title>
<path fill="none" stroke="#63b8ff" d="M234.72,-164.53C221.39,-152.3 201.61,-129.66 211.5,-110 241.72,-49.9 323.37,-25.34 370.88,-15.91"/>
<polygon fill="#63b8ff" stroke="#63b8ff" points="371.49,-19.35 380.69,-14.1 370.22,-12.47 371.49,-19.35"/>
</g>
<!-- Node7&#45;&gt;Node5 -->
<g id="edge10" class="edge">
<title>Node7&#45;&gt;Node5</title>
<path fill="none" stroke="#63b8ff" d="M262.12,-164.51C277.28,-156.31 299.92,-144.07 317.47,-134.58"/>
<polygon fill="#63b8ff" stroke="#63b8ff" points="318.66,-137.91 325.79,-130.08 315.33,-131.76 318.66,-137.91"/>
</g>
<!-- Node8 -->
<g id="node8" class="node">
<title>Node8</title>
<g id="a_node8"><a xlink:title=" ">
<polygon fill="#e0e0e0" stroke="#999999" points="271,-129 220,-129 220,-110 271,-110 271,-129"/>
<text text-anchor="middle" x="245.5" y="-117" font-family="Helvetica,sans-Serif" font-size="10.00">stddef.h</text>
</a>
</g>
</g>
<!-- Node7&#45;&gt;Node8 -->
<g id="edge9" class="edge">
<title>Node7&#45;&gt;Node8</title>
<path fill="none" stroke="#63b8ff" d="M245.5,-164.75C245.5,-158.27 245.5,-149.16 245.5,-140.9"/>
<polygon fill="#63b8ff" stroke="#63b8ff" points="249,-140.96 245.5,-130.96 242,-140.96 249,-140.96"/>
</g>
<!-- Node9&#45;&gt;Node4 -->
<g id="edge12" class="edge">
<title>Node9&#45;&gt;Node4</title>
<path fill="none" stroke="#63b8ff" d="M309.24,-219.74C306.7,-199.48 302.52,-148.24 318.5,-110 332.99,-75.31 364.72,-44.45 385.85,-26.61"/>
<polygon fill="#63b8ff" stroke="#63b8ff" points="388.01,-29.36 393.54,-20.32 383.58,-23.94 388.01,-29.36"/>
</g>
<!-- Node9&#45;&gt;Node5 -->
<g id="edge13" class="edge">
<title>Node9&#45;&gt;Node5</title>
<path fill="none" stroke="#63b8ff" d="M313.2,-219.66C318.47,-202.42 330.24,-163.9 337.46,-140.27"/>
<polygon fill="#63b8ff" stroke="#63b8ff" points="340.74,-141.49 340.32,-130.91 334.05,-139.45 340.74,-141.49"/>
</g>
<!-- Node9&#45;&gt;Node7 -->
<g id="edge14" class="edge">
<title>Node9&#45;&gt;Node7</title>
<path fill="none" stroke="#63b8ff" d="M299.47,-219.51C290.08,-211.85 276.35,-200.66 265.09,-191.47"/>
<polygon fill="#63b8ff" stroke="#63b8ff" points="267.5,-188.92 257.54,-185.31 263.07,-194.35 267.5,-188.92"/>
</g>
<!-- Node9&#45;&gt;Node10 -->
<g id="edge15" class="edge">
<title>Node9&#45;&gt;Node10</title>
<path fill="none" stroke="#63b8ff" d="M329.84,-219.51C347.72,-211.2 374.54,-198.73 395.07,-189.18"/>
<polygon fill="#63b8ff" stroke="#63b8ff" points="396.48,-192.39 404.07,-185 393.53,-186.04 396.48,-192.39"/>
</g>
<!-- Node10&#45;&gt;Node4 -->
<g id="edge16" class="edge">
<title>Node10&#45;&gt;Node4</title>
<path fill="none" stroke="#63b8ff" d="M419.71,-164.61C415.28,-155.85 409.02,-141.92 406.5,-129 399.87,-94.92 401.98,-54.28 404.19,-30.54"/>
<polygon fill="#63b8ff" stroke="#63b8ff" points="407.65,-31.05 405.21,-20.74 400.69,-30.32 407.65,-31.05"/>
</g>
<!-- Node11 -->
<g id="node11" class="node">
<title>Node11</title>
<g id="a_node11"><a xlink:href="bios__const_8h.html" target="_top" xlink:title="Constant variables in the MSX BIOS ROM.">
<polygon fill="white" stroke="#666666" points="611,-129 540,-129 540,-110 611,-110 611,-129"/>
<text text-anchor="middle" x="575.5" y="-117" font-family="Helvetica,sans-Serif" font-size="10.00">bios_const.h</text>
</a>
</g>
</g>
<!-- Node10&#45;&gt;Node11 -->
<g id="edge17" class="edge">
<title>Node10&#45;&gt;Node11</title>
<path fill="none" stroke="#63b8ff" d="M445.81,-166.02C470.11,-157.49 510.22,-143.41 539.41,-133.17"/>
<polygon fill="#63b8ff" stroke="#63b8ff" points="540.3,-136.56 548.58,-129.95 537.98,-129.96 540.3,-136.56"/>
</g>
<!-- Node12 -->
<g id="node12" class="node">
<title>Node12</title>
<g id="a_node12"><a xlink:href="bios__entry_8h.html" target="_top" xlink:title="Assembler entry points for MSX BIOS functions.">
<polygon fill="white" stroke="#666666" points="483.5,-129 415.5,-129 415.5,-110 483.5,-110 483.5,-129"/>
<text text-anchor="middle" x="449.5" y="-117" font-family="Helvetica,sans-Serif" font-size="10.00">bios_entry.h</text>
</a>
</g>
</g>
<!-- Node10&#45;&gt;Node12 -->
<g id="edge20" class="edge">
<title>Node10&#45;&gt;Node12</title>
<path fill="none" stroke="#63b8ff" d="M428.63,-164.75C431.83,-157.96 436.39,-148.3 440.43,-139.73"/>
<polygon fill="#63b8ff" stroke="#63b8ff" points="443.54,-141.35 444.64,-130.81 437.2,-138.36 443.54,-141.35"/>
</g>
<!-- Node11&#45;&gt;Node4 -->
<g id="edge18" class="edge">
<title>Node11&#45;&gt;Node4</title>
<path fill="none" stroke="#63b8ff" d="M568.62,-109.61C557.89,-96.23 535.93,-70.8 512.5,-55 490.52,-40.17 462.81,-28.75 441.23,-21.19"/>
<polygon fill="#63b8ff" stroke="#63b8ff" points="442.6,-17.96 432,-18.08 440.36,-24.59 442.6,-17.96"/>
</g>
<!-- Node11&#45;&gt;Node6 -->
<g id="edge19" class="edge">
<title>Node11&#45;&gt;Node6</title>
<path fill="none" stroke="#63b8ff" d="M559.05,-109.51C544.18,-101.39 522.06,-89.3 504.75,-79.85"/>
<polygon fill="#63b8ff" stroke="#63b8ff" points="506.49,-76.81 496.04,-75.08 503.14,-82.95 506.49,-76.81"/>
</g>
<!-- Node12&#45;&gt;Node4 -->
<g id="edge21" class="edge">
<title>Node12&#45;&gt;Node4</title>
<path fill="none" stroke="#63b8ff" d="M445.98,-109.66C439.08,-92.34 423.64,-53.55 414.24,-29.95"/>
<polygon fill="#63b8ff" stroke="#63b8ff" points="417.58,-28.86 410.63,-20.87 411.07,-31.45 417.58,-28.86"/>
</g>
<!-- Node12&#45;&gt;Node6 -->
<g id="edge22" class="edge">
<title>Node12&#45;&gt;Node6</title>
<path fill="none" stroke="#63b8ff" d="M454.29,-109.75C458.04,-102.88 463.41,-93.08 468.13,-84.45"/>
<polygon fill="#63b8ff" stroke="#63b8ff" points="471.15,-86.22 472.88,-75.77 465.01,-82.86 471.15,-86.22"/>
</g>
<!-- Node13&#45;&gt;Node4 -->
<g id="edge25" class="edge">
<title>Node13&#45;&gt;Node4</title>
<path fill="none" stroke="#63b8ff" d="M570.9,-164.68C598.13,-154.29 634.03,-135.19 620.5,-110 585.43,-44.7 493.06,-22 441.88,-14.3"/>
<polygon fill="#63b8ff" stroke="#63b8ff" points="442.61,-10.87 432.22,-12.97 441.65,-17.81 442.61,-10.87"/>
</g>
<!-- Node13&#45;&gt;Node6 -->
<g id="edge26" class="edge">
<title>Node13&#45;&gt;Node6</title>
<path fill="none" stroke="#63b8ff" d="M538.18,-164.66C527.66,-147.18 503.98,-107.84 489.82,-84.3"/>
<polygon fill="#63b8ff" stroke="#63b8ff" points="492.83,-82.52 484.67,-75.76 486.83,-86.13 492.83,-82.52"/>
</g>
<!-- Node13&#45;&gt;Node11 -->
<g id="edge27" class="edge">
<title>Node13&#45;&gt;Node11</title>
<path fill="none" stroke="#63b8ff" d="M548.78,-164.75C552.97,-157.81 558.98,-147.86 564.23,-139.16"/>
<polygon fill="#63b8ff" stroke="#63b8ff" points="567.15,-141.11 569.32,-130.74 561.15,-137.49 567.15,-141.11"/>
</g>
</g>
</svg>
