<?xml version="1.0" encoding="UTF-8" standalone="no"?>
<!DOCTYPE svg PUBLIC "-//W3C//DTD SVG 1.1//EN"
 "http://www.w3.org/Graphics/SVG/1.1/DTD/svg11.dtd">
<!-- Generated by graphviz version 2.49.3 (20211027.1534)
 -->
<!-- Title: include/vdp.h Pages: 1 -->
<svg width="4649pt" height="151pt"
 viewBox="0.00 0.00 4649.00 151.00" xmlns="http://www.w3.org/2000/svg" xmlns:xlink="http://www.w3.org/1999/xlink">
<g id="graph0" class="graph" transform="scale(1 1) rotate(0) translate(4 147)">
<title>include/vdp.h</title>
<!-- Node1 -->
<g id="node1" class="node">
<title>Node1</title>
<g id="a_node1"><a xlink:title="Data types and functions for VDP (Video Display Proccessor) access.">
<polygon fill="#bfbfbf" stroke="black" points="2297,-123.5 2297,-142.5 2371,-142.5 2371,-123.5 2297,-123.5"/>
<text text-anchor="middle" x="2334" y="-130.5" font-family="Helvetica,sans-Serif" font-size="10.00">include/vdp.h</text>
</a>
</g>
</g>
<!-- Node2 -->
<g id="node2" class="node">
<title>Node2</title>
<g id="a_node2"><a xlink:href="metasprite_8h.html" target="_top" xlink:title="Copyright (c) 2021 Daishi Mori (mori0091)">
<polygon fill="none" stroke="black" points="116,-62 116,-81 220,-81 220,-62 116,-62"/>
<text text-anchor="middle" x="168" y="-69" font-family="Helvetica,sans-Serif" font-size="10.00">include/metasprite.h</text>
</a>
</g>
</g>
<!-- Node1&#45;&gt;Node2 -->
<g id="edge1" class="edge">
<title>Node1&#45;&gt;Node2</title>
<path fill="none" stroke="midnightblue" d="M2286.61,-131.59C1994.03,-128.98 439.08,-113.9 229,-87 218.85,-85.7 207.93,-83.4 198.17,-81.01"/>
<polygon fill="midnightblue" stroke="midnightblue" points="2286.84,-135.09 2296.87,-131.68 2286.9,-128.09 2286.84,-135.09"/>
</g>
<!-- Node3 -->
<g id="node3" class="node">
<title>Node3</title>
<g id="a_node3"><a xlink:href="msx_8h.html" target="_top" xlink:title="Copyright (c) 2021 Daishi Mori (mori0091)">
<polygon fill="none" stroke="black" points="0,-0.5 0,-19.5 76,-19.5 76,-0.5 0,-0.5"/>
<text text-anchor="middle" x="38" y="-7.5" font-family="Helvetica,sans-Serif" font-size="10.00">include/msx.h</text>
</a>
</g>
</g>
<!-- Node1&#45;&gt;Node3 -->
<g id="edge6" class="edge">
<title>Node1&#45;&gt;Node3</title>
<path fill="none" stroke="midnightblue" d="M2286.7,-132.1C1973.65,-132.66 209.62,-133.68 107,-87 75.53,-72.68 52.13,-36.42 42.64,-19.7"/>
<polygon fill="midnightblue" stroke="midnightblue" points="2286.81,-135.6 2296.8,-132.08 2286.79,-128.6 2286.81,-135.6"/>
</g>
<!-- Node7 -->
<g id="node7" class="node">
<title>Node7</title>
<g id="a_node7"><a xlink:href="vdp_8c.html" target="_top" xlink:title="Copyright (c) 2021 Daishi Mori (mori0091)">
<polygon fill="none" stroke="black" points="238,-62 238,-81 294,-81 294,-62 238,-62"/>
<text text-anchor="middle" x="266" y="-69" font-family="Helvetica,sans-Serif" font-size="10.00">src/vdp.c</text>
</a>
</g>
</g>
<!-- Node1&#45;&gt;Node7 -->
<g id="edge7" class="edge">
<title>Node1&#45;&gt;Node7</title>
<path fill="none" stroke="midnightblue" d="M2286.88,-131.92C2000.94,-131.3 504.12,-126.18 304,-87 297.49,-85.72 290.63,-83.43 284.57,-81.04"/>
<polygon fill="midnightblue" stroke="midnightblue" points="2286.91,-135.42 2296.92,-131.94 2286.92,-128.42 2286.91,-135.42"/>
</g>
<!-- Node8 -->
<g id="node8" class="node">
<title>Node8</title>
<g id="a_node8"><a xlink:href="vdp__cmd__execute_8c.html" target="_top" xlink:title="Copyright (c) 2021 Daishi Mori (mori0091)">
<polygon fill="none" stroke="black" points="312.5,-62 312.5,-81 431.5,-81 431.5,-62 312.5,-62"/>
<text text-anchor="middle" x="372" y="-69" font-family="Helvetica,sans-Serif" font-size="10.00">src/vdp_cmd_execute.c</text>
</a>
</g>
</g>
<!-- Node1&#45;&gt;Node8 -->
<g id="edge8" class="edge">
<title>Node1&#45;&gt;Node8</title>
<path fill="none" stroke="midnightblue" d="M2286.76,-132.05C2031.48,-132.15 814.42,-130.3 441,-87 429.69,-85.69 417.49,-83.42 406.54,-81.05"/>
<polygon fill="midnightblue" stroke="midnightblue" points="2286.82,-135.55 2296.82,-132.05 2286.82,-128.55 2286.82,-135.55"/>
</g>
<!-- Node9 -->
<g id="node9" class="node">
<title>Node9</title>
<g id="a_node9"><a xlink:href="vdp__cmd__execute__HMMM_8c.html" target="_top" xlink:title="Copyright (c) 2021 Daishi Mori (mori0091)">
<polygon fill="none" stroke="black" points="450,-56.5 450,-86.5 562,-86.5 562,-56.5 450,-56.5"/>
<text text-anchor="start" x="458" y="-74.5" font-family="Helvetica,sans-Serif" font-size="10.00">src/vdp_cmd_execute</text>
<text text-anchor="middle" x="506" y="-63.5" font-family="Helvetica,sans-Serif" font-size="10.00">_HMMM.c</text>
</a>
</g>
</g>
<!-- Node1&#45;&gt;Node9 -->
<g id="edge9" class="edge">
<title>Node1&#45;&gt;Node9</title>
<path fill="none" stroke="midnightblue" d="M2286.54,-132.03C2041.42,-132.02 916.84,-129.58 571,-87 568.13,-86.65 565.2,-86.22 562.25,-85.75"/>
<polygon fill="midnightblue" stroke="midnightblue" points="2286.89,-135.53 2296.89,-132.03 2286.89,-128.53 2286.89,-135.53"/>
</g>
<!-- Node10 -->
<g id="node10" class="node">
<title>Node10</title>
<g id="a_node10"><a xlink:href="vdp__cmd__execute__HMMV_8c.html" target="_top" xlink:title="Copyright (c) 2021 Daishi Mori (mori0091)">
<polygon fill="none" stroke="black" points="580,-56.5 580,-86.5 692,-86.5 692,-56.5 580,-56.5"/>
<text text-anchor="start" x="588" y="-74.5" font-family="Helvetica,sans-Serif" font-size="10.00">src/vdp_cmd_execute</text>
<text text-anchor="middle" x="636" y="-63.5" font-family="Helvetica,sans-Serif" font-size="10.00">_HMMV.c</text>
</a>
</g>
</g>
<!-- Node1&#45;&gt;Node10 -->
<g id="edge10" class="edge">
<title>Node1&#45;&gt;Node10</title>
<path fill="none" stroke="midnightblue" d="M2286.7,-131.92C2052.96,-131.35 1019.77,-126.58 701,-87 698.13,-86.64 695.2,-86.22 692.25,-85.74"/>
<polygon fill="midnightblue" stroke="midnightblue" points="2286.9,-135.42 2296.9,-131.95 2286.91,-128.42 2286.9,-135.42"/>
</g>
<!-- Node11 -->
<g id="node11" class="node">
<title>Node11</title>
<g id="a_node11"><a xlink:href="vdp__cmd__execute__LMMM_8c.html" target="_top" xlink:title="Copyright (c) 2021 Daishi Mori (mori0091)">
<polygon fill="none" stroke="black" points="710,-56.5 710,-86.5 822,-86.5 822,-56.5 710,-56.5"/>
<text text-anchor="start" x="718" y="-74.5" font-family="Helvetica,sans-Serif" font-size="10.00">src/vdp_cmd_execute</text>
<text text-anchor="middle" x="766" y="-63.5" font-family="Helvetica,sans-Serif" font-size="10.00">_LMMM.c</text>
</a>
</g>
</g>
<!-- Node1&#45;&gt;Node11 -->
<g id="edge11" class="edge">
<title>Node1&#45;&gt;Node11</title>
<path fill="none" stroke="midnightblue" d="M2286.92,-131.79C2065.11,-130.63 1122.79,-123.58 831,-87 828.13,-86.64 825.2,-86.21 822.26,-85.73"/>
<polygon fill="midnightblue" stroke="midnightblue" points="2286.92,-135.29 2296.94,-131.84 2286.96,-128.29 2286.92,-135.29"/>
</g>
<!-- Node12 -->
<g id="node12" class="node">
<title>Node12</title>
<g id="a_node12"><a xlink:href="vdp__cmd__execute__LMMV_8c.html" target="_top" xlink:title="Copyright (c) 2021 Daishi Mori (mori0091)">
<polygon fill="none" stroke="black" points="840,-56.5 840,-86.5 952,-86.5 952,-56.5 840,-56.5"/>
<text text-anchor="start" x="848" y="-74.5" font-family="Helvetica,sans-Serif" font-size="10.00">src/vdp_cmd_execute</text>
<text text-anchor="middle" x="896" y="-63.5" font-family="Helvetica,sans-Serif" font-size="10.00">_LMMV.c</text>
</a>
</g>
</g>
<!-- Node1&#45;&gt;Node12 -->
<g id="edge12" class="edge">
<title>Node1&#45;&gt;Node12</title>
<path fill="none" stroke="midnightblue" d="M2286.68,-131.61C2076.55,-129.72 1226.53,-120.11 962,-87 958.74,-86.59 955.4,-86.1 952.05,-85.55"/>
<polygon fill="midnightblue" stroke="midnightblue" points="2286.74,-135.11 2296.77,-131.7 2286.81,-128.11 2286.74,-135.11"/>
</g>
<!-- Node13 -->
<g id="node13" class="node">
<title>Node13</title>
<g id="a_node13"><a xlink:href="vdp__cmd__set__unrestricted_8c.html" target="_top" xlink:title="Copyright (c) 2021 Daishi Mori (mori0091)">
<polygon fill="none" stroke="black" points="970.5,-62 970.5,-81 1125.5,-81 1125.5,-62 970.5,-62"/>
<text text-anchor="middle" x="1048" y="-69" font-family="Helvetica,sans-Serif" font-size="10.00">src/vdp_cmd_set_unrestricted.c</text>
</a>
</g>
</g>
<!-- Node1&#45;&gt;Node13 -->
<g id="edge13" class="edge">
<title>Node1&#45;&gt;Node13</title>
<path fill="none" stroke="midnightblue" d="M2286.49,-132.39C2124.8,-133.25 1581.13,-132.36 1135,-87 1121.14,-85.59 1106.14,-83.35 1092.56,-81.05"/>
<polygon fill="midnightblue" stroke="midnightblue" points="2286.61,-135.89 2296.58,-132.33 2286.56,-128.89 2286.61,-135.89"/>
</g>
<!-- Node14 -->
<g id="node14" class="node">
<title>Node14</title>
<g id="a_node14"><a xlink:href="vdp__get__sprite__mode_8c.html" target="_top" xlink:title="Copyright (c) 2021 Daishi Mori (mori0091)">
<polygon fill="none" stroke="black" points="1143.5,-56.5 1143.5,-86.5 1240.5,-86.5 1240.5,-56.5 1143.5,-56.5"/>
<text text-anchor="start" x="1151.5" y="-74.5" font-family="Helvetica,sans-Serif" font-size="10.00">src/vdp_get_sprite</text>
<text text-anchor="middle" x="1192" y="-63.5" font-family="Helvetica,sans-Serif" font-size="10.00">_mode.c</text>
</a>
</g>
</g>
<!-- Node1&#45;&gt;Node14 -->
<g id="edge14" class="edge">
<title>Node1&#45;&gt;Node14</title>
<path fill="none" stroke="midnightblue" d="M2286.93,-131.32C2105.93,-128.51 1454.71,-116.52 1250,-87 1246.92,-86.56 1243.76,-86.02 1240.59,-85.41"/>
<polygon fill="midnightblue" stroke="midnightblue" points="2286.88,-134.82 2296.93,-131.47 2286.99,-127.82 2286.88,-134.82"/>
</g>
<!-- Node15 -->
<g id="node15" class="node">
<title>Node15</title>
<g id="a_node15"><a xlink:href="vdp__get__status_8c.html" target="_top" xlink:title="Copyright (c) 2021 Daishi Mori (mori0091)">
<polygon fill="none" stroke="black" points="1258.5,-62 1258.5,-81 1365.5,-81 1365.5,-62 1258.5,-62"/>
<text text-anchor="middle" x="1312" y="-69" font-family="Helvetica,sans-Serif" font-size="10.00">src/vdp_get_status.c</text>
</a>
</g>
</g>
<!-- Node1&#45;&gt;Node15 -->
<g id="edge15" class="edge">
<title>Node1&#45;&gt;Node15</title>
<path fill="none" stroke="midnightblue" d="M2286.7,-130.9C2119.14,-126.85 1554.24,-111.63 1375,-87 1364.88,-85.61 1354,-83.38 1344.17,-81.07"/>
<polygon fill="midnightblue" stroke="midnightblue" points="2286.85,-134.41 2296.93,-131.15 2287.01,-127.41 2286.85,-134.41"/>
</g>
<!-- Node16 -->
<g id="node16" class="node">
<title>Node16</title>
<g id="a_node16"><a xlink:href="vdp__set__adjust_8c.html" target="_top" xlink:title="Copyright (c) 2021 Daishi Mori (mori0091)">
<polygon fill="none" stroke="black" points="1383.5,-62 1383.5,-81 1490.5,-81 1490.5,-62 1383.5,-62"/>
<text text-anchor="middle" x="1437" y="-69" font-family="Helvetica,sans-Serif" font-size="10.00">src/vdp_set_adjust.c</text>
</a>
</g>
</g>
<!-- Node1&#45;&gt;Node16 -->
<g id="edge16" class="edge">
<title>Node1&#45;&gt;Node16</title>
<path fill="none" stroke="midnightblue" d="M2286.57,-132.29C2158.83,-132.46 1797.12,-128.89 1500,-87 1489.89,-85.57 1479,-83.33 1469.17,-81.03"/>
<polygon fill="midnightblue" stroke="midnightblue" points="2286.79,-135.79 2296.79,-132.27 2286.78,-128.79 2286.79,-135.79"/>
</g>
<!-- Node17 -->
<g id="node17" class="node">
<title>Node17</title>
<g id="a_node17"><a xlink:href="vdp__set__color_8c.html" target="_top" xlink:title="Copyright (c) 2021 Daishi Mori (mori0091)">
<polygon fill="none" stroke="black" points="1508.5,-62 1508.5,-81 1609.5,-81 1609.5,-62 1508.5,-62"/>
<text text-anchor="middle" x="1559" y="-69" font-family="Helvetica,sans-Serif" font-size="10.00">src/vdp_set_color.c</text>
</a>
</g>
</g>
<!-- Node1&#45;&gt;Node17 -->
<g id="edge17" class="edge">
<title>Node1&#45;&gt;Node17</title>
<path fill="none" stroke="midnightblue" d="M2286.71,-131.86C2171.71,-130.91 1868.55,-124.71 1619,-87 1609.46,-85.56 1599.22,-83.34 1589.94,-81.07"/>
<polygon fill="midnightblue" stroke="midnightblue" points="2286.9,-135.36 2296.92,-131.94 2286.95,-128.36 2286.9,-135.36"/>
</g>
<!-- Node18 -->
<g id="node18" class="node">
<title>Node18</title>
<g id="a_node18"><a xlink:href="vdp__set__color__table_8c.html" target="_top" xlink:title="Copyright (c) 2021 Daishi Mori (mori0091)">
<polygon fill="none" stroke="black" points="1628,-62 1628,-81 1756,-81 1756,-62 1628,-62"/>
<text text-anchor="middle" x="1692" y="-69" font-family="Helvetica,sans-Serif" font-size="10.00">src/vdp_set_color_table.c</text>
</a>
</g>
</g>
<!-- Node1&#45;&gt;Node18 -->
<g id="edge18" class="edge">
<title>Node1&#45;&gt;Node18</title>
<path fill="none" stroke="midnightblue" d="M2286.74,-130.14C2188.97,-125.87 1957.49,-113.64 1765,-87 1753.74,-85.44 1741.59,-83.24 1730.5,-81.02"/>
<polygon fill="midnightblue" stroke="midnightblue" points="2286.75,-133.64 2296.89,-130.57 2287.05,-126.65 2286.75,-133.64"/>
</g>
<!-- Node19 -->
<g id="node19" class="node">
<title>Node19</title>
<g id="a_node19"><a xlink:href="vdp__set__control_8c.html" target="_top" xlink:title="Copyright (c) 2021 Daishi Mori (mori0091)">
<polygon fill="none" stroke="black" points="1774,-62 1774,-81 1884,-81 1884,-62 1774,-62"/>
<text text-anchor="middle" x="1829" y="-69" font-family="Helvetica,sans-Serif" font-size="10.00">src/vdp_set_control.c</text>
</a>
</g>
</g>
<!-- Node1&#45;&gt;Node19 -->
<g id="edge19" class="edge">
<title>Node1&#45;&gt;Node19</title>
<path fill="none" stroke="midnightblue" d="M2286.36,-128.97C2205.37,-123.41 2035.82,-109.99 1894,-87 1884.07,-85.39 1873.38,-83.2 1863.6,-81.01"/>
<polygon fill="midnightblue" stroke="midnightblue" points="2286.51,-132.49 2296.72,-129.67 2286.98,-125.51 2286.51,-132.49"/>
</g>
<!-- Node20 -->
<g id="node20" class="node">
<title>Node20</title>
<g id="a_node20"><a xlink:href="vdp__set__hscroll_8c.html" target="_top" xlink:title="Copyright (c) 2021 Daishi Mori (mori0091)">
<polygon fill="none" stroke="black" points="1902.5,-62 1902.5,-81 2011.5,-81 2011.5,-62 1902.5,-62"/>
<text text-anchor="middle" x="1957" y="-69" font-family="Helvetica,sans-Serif" font-size="10.00">src/vdp_set_hscroll.c</text>
</a>
</g>
</g>
<!-- Node1&#45;&gt;Node20 -->
<g id="edge20" class="edge">
<title>Node1&#45;&gt;Node20</title>
<path fill="none" stroke="midnightblue" d="M2286.58,-126.38C2225.09,-118.82 2114.64,-104.31 2021,-87 2011.7,-85.28 2001.71,-83.15 1992.44,-81.06"/>
<polygon fill="midnightblue" stroke="midnightblue" points="2286.39,-129.89 2296.74,-127.62 2287.24,-122.94 2286.39,-129.89"/>
</g>
<!-- Node21 -->
<g id="node21" class="node">
<title>Node21</title>
<g id="a_node21"><a xlink:href="vdp__set__hscroll__dual__page_8c.html" target="_top" xlink:title="Copyright (c) 2021 Daishi Mori (mori0091)">
<polygon fill="none" stroke="black" points="2029.5,-56.5 2029.5,-86.5 2130.5,-86.5 2130.5,-56.5 2029.5,-56.5"/>
<text text-anchor="start" x="2037.5" y="-74.5" font-family="Helvetica,sans-Serif" font-size="10.00">src/vdp_set_hscroll</text>
<text text-anchor="middle" x="2080" y="-63.5" font-family="Helvetica,sans-Serif" font-size="10.00">_dual_page.c</text>
</a>
</g>
</g>
<!-- Node1&#45;&gt;Node21 -->
<g id="edge21" class="edge">
<title>Node1&#45;&gt;Node21</title>
<path fill="none" stroke="midnightblue" d="M2286.95,-121.21C2247.65,-112.17 2190.14,-98.87 2140,-87 2136.98,-86.28 2133.87,-85.54 2130.73,-84.79"/>
<polygon fill="midnightblue" stroke="midnightblue" points="2286.26,-124.65 2296.79,-123.47 2287.82,-117.82 2286.26,-124.65"/>
</g>
<!-- Node22 -->
<g id="node22" class="node">
<title>Node22</title>
<g id="a_node22"><a xlink:href="vdp__set__hscroll__mask_8c.html" target="_top" xlink:title="Copyright (c) 2021 Daishi Mori (mori0091)">
<polygon fill="none" stroke="black" points="2148.5,-56.5 2148.5,-86.5 2249.5,-86.5 2249.5,-56.5 2148.5,-56.5"/>
<text text-anchor="start" x="2156.5" y="-74.5" font-family="Helvetica,sans-Serif" font-size="10.00">src/vdp_set_hscroll</text>
<text text-anchor="middle" x="2199" y="-63.5" font-family="Helvetica,sans-Serif" font-size="10.00">_mask.c</text>
</a>
</g>
</g>
<!-- Node1&#45;&gt;Node22 -->
<g id="edge22" class="edge">
<title>Node1&#45;&gt;Node22</title>
<path fill="none" stroke="midnightblue" d="M2305.25,-119.33C2283.41,-109.7 2253.38,-96.47 2230.82,-86.52"/>
<polygon fill="midnightblue" stroke="midnightblue" points="2304.1,-122.64 2314.66,-123.48 2306.92,-116.24 2304.1,-122.64"/>
</g>
<!-- Node23 -->
<g id="node23" class="node">
<title>Node23</title>
<g id="a_node23"><a xlink:href="vdp__set__image__table_8c.html" target="_top" xlink:title="Copyright (c) 2021 Daishi Mori (mori0091)">
<polygon fill="none" stroke="black" points="2267.5,-62 2267.5,-81 2400.5,-81 2400.5,-62 2267.5,-62"/>
<text text-anchor="middle" x="2334" y="-69" font-family="Helvetica,sans-Serif" font-size="10.00">src/vdp_set_image_table.c</text>
</a>
</g>
</g>
<!-- Node1&#45;&gt;Node23 -->
<g id="edge23" class="edge">
<title>Node1&#45;&gt;Node23</title>
<path fill="none" stroke="midnightblue" d="M2334,-113.32C2334,-102.5 2334,-89.4 2334,-81.01"/>
<polygon fill="midnightblue" stroke="midnightblue" points="2330.5,-113.48 2334,-123.48 2337.5,-113.48 2330.5,-113.48"/>
</g>
<!-- Node24 -->
<g id="node24" class="node">
<title>Node24</title>
<g id="a_node24"><a xlink:href="vdp__set__palette_8c.html" target="_top" xlink:title="Copyright (c) 2021 Daishi Mori (mori0091)">
<polygon fill="none" stroke="black" points="2419,-62 2419,-81 2529,-81 2529,-62 2419,-62"/>
<text text-anchor="middle" x="2474" y="-69" font-family="Helvetica,sans-Serif" font-size="10.00">src/vdp_set_palette.c</text>
</a>
</g>
</g>
<!-- Node1&#45;&gt;Node24 -->
<g id="edge24" class="edge">
<title>Node1&#45;&gt;Node24</title>
<path fill="none" stroke="midnightblue" d="M2363.46,-119.48C2390.65,-107.92 2430.29,-91.08 2453.98,-81.01"/>
<polygon fill="midnightblue" stroke="midnightblue" points="2361.89,-116.34 2354.06,-123.48 2364.63,-122.78 2361.89,-116.34"/>
</g>
<!-- Node25 -->
<g id="node25" class="node">
<title>Node25</title>
<g id="a_node25"><a xlink:href="vdp__set__pattern__table_8c.html" target="_top" xlink:title="Copyright (c) 2021 Daishi Mori (mori0091)">
<polygon fill="none" stroke="black" points="2547.5,-56.5 2547.5,-86.5 2650.5,-86.5 2650.5,-56.5 2547.5,-56.5"/>
<text text-anchor="start" x="2555.5" y="-74.5" font-family="Helvetica,sans-Serif" font-size="10.00">src/vdp_set_pattern</text>
<text text-anchor="middle" x="2599" y="-63.5" font-family="Helvetica,sans-Serif" font-size="10.00">_table.c</text>
</a>
</g>
</g>
<!-- Node1&#45;&gt;Node25 -->
<g id="edge25" class="edge">
<title>Node1&#45;&gt;Node25</title>
<path fill="none" stroke="midnightblue" d="M2381.07,-121.84C2422.45,-112.86 2484.28,-99.31 2538,-87 2541.08,-86.29 2544.24,-85.56 2547.43,-84.82"/>
<polygon fill="midnightblue" stroke="midnightblue" points="2380.3,-118.43 2371.27,-123.97 2381.78,-125.27 2380.3,-118.43"/>
</g>
<!-- Node26 -->
<g id="node26" class="node">
<title>Node26</title>
<g id="a_node26"><a xlink:href="vdp__set__screen__lines_8c.html" target="_top" xlink:title="Copyright (c) 2021 Daishi Mori (mori0091)">
<polygon fill="none" stroke="black" points="2669,-56.5 2669,-86.5 2771,-86.5 2771,-56.5 2669,-56.5"/>
<text text-anchor="start" x="2677" y="-74.5" font-family="Helvetica,sans-Serif" font-size="10.00">src/vdp_set_screen</text>
<text text-anchor="middle" x="2720" y="-63.5" font-family="Helvetica,sans-Serif" font-size="10.00">_lines.c</text>
</a>
</g>
</g>
<!-- Node1&#45;&gt;Node26 -->
<g id="edge26" class="edge">
<title>Node1&#45;&gt;Node26</title>
<path fill="none" stroke="midnightblue" d="M2381.49,-126.95C2445.17,-119.84 2561.62,-105.63 2660,-87 2662.84,-86.46 2665.75,-85.88 2668.69,-85.26"/>
<polygon fill="midnightblue" stroke="midnightblue" points="2380.91,-123.5 2371.35,-128.07 2381.68,-130.45 2380.91,-123.5"/>
</g>
<!-- Node27 -->
<g id="node27" class="node">
<title>Node27</title>
<g id="a_node27"><a xlink:href="vdp__set__screen__mode_8c.html" target="_top" xlink:title="Copyright (c) 2021 Daishi Mori (mori0091)">
<polygon fill="none" stroke="black" points="2789,-56.5 2789,-86.5 2891,-86.5 2891,-56.5 2789,-56.5"/>
<text text-anchor="start" x="2797" y="-74.5" font-family="Helvetica,sans-Serif" font-size="10.00">src/vdp_set_screen</text>
<text text-anchor="middle" x="2840" y="-63.5" font-family="Helvetica,sans-Serif" font-size="10.00">_mode.c</text>
</a>
</g>
</g>
<!-- Node1&#45;&gt;Node27 -->
<g id="edge27" class="edge">
<title>Node1&#45;&gt;Node27</title>
<path fill="none" stroke="midnightblue" d="M2381.46,-129.35C2463.27,-124.3 2635.95,-111.56 2780,-87 2782.85,-86.51 2785.77,-85.97 2788.71,-85.38"/>
<polygon fill="midnightblue" stroke="midnightblue" points="2381,-125.87 2371.23,-129.97 2381.43,-132.86 2381,-125.87"/>
</g>
<!-- Node28 -->
<g id="node28" class="node">
<title>Node28</title>
<g id="a_node28"><a xlink:href="vdp__set__sprite__attribute__table_8c.html" target="_top" xlink:title="Copyright (c) 2021 Daishi Mori (mori0091)">
<polygon fill="none" stroke="black" points="2908.5,-56.5 2908.5,-86.5 3005.5,-86.5 3005.5,-56.5 2908.5,-56.5"/>
<text text-anchor="start" x="2916.5" y="-74.5" font-family="Helvetica,sans-Serif" font-size="10.00">src/vdp_set_sprite</text>
<text text-anchor="middle" x="2957" y="-63.5" font-family="Helvetica,sans-Serif" font-size="10.00">_attribute_table.c</text>
</a>
</g>
</g>
<!-- Node1&#45;&gt;Node28 -->
<g id="edge28" class="edge">
<title>Node1&#45;&gt;Node28</title>
<path fill="none" stroke="midnightblue" d="M2381.13,-130.95C2478.63,-128.19 2709.29,-118.6 2900,-87 2902.72,-86.55 2905.5,-86.03 2908.3,-85.47"/>
<polygon fill="midnightblue" stroke="midnightblue" points="2380.92,-127.46 2371.01,-131.23 2381.11,-134.45 2380.92,-127.46"/>
</g>
<!-- Node29 -->
<g id="node29" class="node">
<title>Node29</title>
<g id="a_node29"><a xlink:href="vdp__set__sprite__pattern__table_8c.html" target="_top" xlink:title="Copyright (c) 2021 Daishi Mori (mori0091)">
<polygon fill="none" stroke="black" points="3023.5,-56.5 3023.5,-86.5 3120.5,-86.5 3120.5,-56.5 3023.5,-56.5"/>
<text text-anchor="start" x="3031.5" y="-74.5" font-family="Helvetica,sans-Serif" font-size="10.00">src/vdp_set_sprite</text>
<text text-anchor="middle" x="3072" y="-63.5" font-family="Helvetica,sans-Serif" font-size="10.00">_pattern_table.c</text>
</a>
</g>
</g>
<!-- Node1&#45;&gt;Node29 -->
<g id="edge29" class="edge">
<title>Node1&#45;&gt;Node29</title>
<path fill="none" stroke="midnightblue" d="M2381.39,-131.84C2492.7,-130.83 2779.21,-124.46 3015,-87 3017.72,-86.57 3020.51,-86.06 3023.3,-85.51"/>
<polygon fill="midnightblue" stroke="midnightblue" points="2381.15,-128.34 2371.18,-131.93 2381.2,-135.34 2381.15,-128.34"/>
</g>
<!-- Node30 -->
<g id="node30" class="node">
<title>Node30</title>
<g id="a_node30"><a xlink:href="vdp__set__sprite__size_8c.html" target="_top" xlink:title="Copyright (c) 2021 Daishi Mori (mori0091)">
<polygon fill="none" stroke="black" points="3138.5,-56.5 3138.5,-86.5 3235.5,-86.5 3235.5,-56.5 3138.5,-56.5"/>
<text text-anchor="start" x="3146.5" y="-74.5" font-family="Helvetica,sans-Serif" font-size="10.00">src/vdp_set_sprite</text>
<text text-anchor="middle" x="3187" y="-63.5" font-family="Helvetica,sans-Serif" font-size="10.00">_size.c</text>
</a>
</g>
</g>
<!-- Node1&#45;&gt;Node30 -->
<g id="edge30" class="edge">
<title>Node1&#45;&gt;Node30</title>
<path fill="none" stroke="midnightblue" d="M2381.43,-132.49C2505.31,-133.08 2848.52,-130.34 3130,-87 3132.72,-86.58 3135.51,-86.09 3138.31,-85.54"/>
<polygon fill="midnightblue" stroke="midnightblue" points="2381.18,-128.99 2371.16,-132.43 2381.14,-135.99 2381.18,-128.99"/>
</g>
<!-- Node31 -->
<g id="node31" class="node">
<title>Node31</title>
<g id="a_node31"><a xlink:href="vdp__set__sprite__visible_8c.html" target="_top" xlink:title="Copyright (c) 2021 Daishi Mori (mori0091)">
<polygon fill="none" stroke="black" points="3253.5,-56.5 3253.5,-86.5 3350.5,-86.5 3350.5,-56.5 3253.5,-56.5"/>
<text text-anchor="start" x="3261.5" y="-74.5" font-family="Helvetica,sans-Serif" font-size="10.00">src/vdp_set_sprite</text>
<text text-anchor="middle" x="3302" y="-63.5" font-family="Helvetica,sans-Serif" font-size="10.00">_visible.c</text>
</a>
</g>
</g>
<!-- Node1&#45;&gt;Node31 -->
<g id="edge31" class="edge">
<title>Node1&#45;&gt;Node31</title>
<path fill="none" stroke="midnightblue" d="M2381.37,-130.91C2543.56,-126.98 3075.87,-112.43 3245,-87 3247.73,-86.59 3250.51,-86.11 3253.31,-85.57"/>
<polygon fill="midnightblue" stroke="midnightblue" points="2381.14,-127.41 2371.23,-131.15 2381.31,-134.41 2381.14,-127.41"/>
</g>
<!-- Node32 -->
<g id="node32" class="node">
<title>Node32</title>
<g id="a_node32"><a xlink:href="vdp__set__visible_8c.html" target="_top" xlink:title="Copyright (c) 2021 Daishi Mori (mori0091)">
<polygon fill="none" stroke="black" points="3369,-62 3369,-81 3477,-81 3477,-62 3369,-62"/>
<text text-anchor="middle" x="3423" y="-69" font-family="Helvetica,sans-Serif" font-size="10.00">src/vdp_set_visible.c</text>
</a>
</g>
</g>
<!-- Node1&#45;&gt;Node32 -->
<g id="edge32" class="edge">
<title>Node1&#45;&gt;Node32</title>
<path fill="none" stroke="midnightblue" d="M2381.38,-131.07C2556.51,-127.45 3167.06,-113.21 3360,-87 3370.23,-85.61 3381.25,-83.35 3391.16,-81.02"/>
<polygon fill="midnightblue" stroke="midnightblue" points="2381.13,-127.57 2371.2,-131.28 2381.27,-134.57 2381.13,-127.57"/>
</g>
<!-- Node33 -->
<g id="node33" class="node">
<title>Node33</title>
<g id="a_node33"><a xlink:href="vdp__set__vscroll_8c.html" target="_top" xlink:title="Copyright (c) 2021 Daishi Mori (mori0091)">
<polygon fill="none" stroke="black" points="3495.5,-62 3495.5,-81 3604.5,-81 3604.5,-62 3495.5,-62"/>
<text text-anchor="middle" x="3550" y="-69" font-family="Helvetica,sans-Serif" font-size="10.00">src/vdp_set_vscroll.c</text>
</a>
</g>
</g>
<!-- Node1&#45;&gt;Node33 -->
<g id="edge33" class="edge">
<title>Node1&#45;&gt;Node33</title>
<path fill="none" stroke="midnightblue" d="M2381.17,-131.31C2569.39,-128.4 3267.02,-115.83 3486,-87 3496.39,-85.63 3507.58,-83.37 3517.65,-81.04"/>
<polygon fill="midnightblue" stroke="midnightblue" points="2381,-127.82 2371.05,-131.47 2381.1,-134.82 2381,-127.82"/>
</g>
<!-- Node34 -->
<g id="node34" class="node">
<title>Node34</title>
<g id="a_node34"><a xlink:href="vdp__write__control_8c.html" target="_top" xlink:title="Copyright (c) 2021 Daishi Mori (mori0091)">
<polygon fill="none" stroke="black" points="3622.5,-62 3622.5,-81 3739.5,-81 3739.5,-62 3622.5,-62"/>
<text text-anchor="middle" x="3681" y="-69" font-family="Helvetica,sans-Serif" font-size="10.00">src/vdp_write_control.c</text>
</a>
</g>
</g>
<!-- Node1&#45;&gt;Node34 -->
<g id="edge34" class="edge">
<title>Node1&#45;&gt;Node34</title>
<path fill="none" stroke="midnightblue" d="M2381.36,-131.46C2582.71,-129.01 3368.51,-117.63 3614,-87 3624.86,-85.64 3636.57,-83.39 3647.12,-81.06"/>
<polygon fill="midnightblue" stroke="midnightblue" points="2381.08,-127.97 2371.12,-131.59 2381.16,-134.97 2381.08,-127.97"/>
</g>
<!-- Node35 -->
<g id="node35" class="node">
<title>Node35</title>
<g id="a_node35"><a xlink:href="vdp__write__palette_8c.html" target="_top" xlink:title="Copyright (c) 2021 Daishi Mori (mori0091)">
<polygon fill="none" stroke="black" points="3757.5,-62 3757.5,-81 3874.5,-81 3874.5,-62 3757.5,-62"/>
<text text-anchor="middle" x="3816" y="-69" font-family="Helvetica,sans-Serif" font-size="10.00">src/vdp_write_palette.c</text>
</a>
</g>
</g>
<!-- Node1&#45;&gt;Node35 -->
<g id="edge35" class="edge">
<title>Node1&#45;&gt;Node35</title>
<path fill="none" stroke="midnightblue" d="M2381.38,-131.65C2595.65,-129.88 3475.52,-120.66 3749,-87 3759.99,-85.65 3771.83,-83.36 3782.46,-81.01"/>
<polygon fill="midnightblue" stroke="midnightblue" points="2381.07,-128.15 2371.1,-131.73 2381.13,-135.15 2381.07,-128.15"/>
</g>
<!-- Node36 -->
<g id="node36" class="node">
<title>Node36</title>
<g id="a_node36"><a xlink:href="vmem__memset_8c.html" target="_top" xlink:title="Copyright (c) 2021 Daishi Mori (mori0091)">
<polygon fill="none" stroke="black" points="3893,-62 3893,-81 4001,-81 4001,-62 3893,-62"/>
<text text-anchor="middle" x="3947" y="-69" font-family="Helvetica,sans-Serif" font-size="10.00">src/vmem_memset.c</text>
</a>
</g>
</g>
<!-- Node1&#45;&gt;Node36 -->
<g id="edge36" class="edge">
<title>Node1&#45;&gt;Node36</title>
<path fill="none" stroke="midnightblue" d="M2381.43,-131.88C2608.15,-131.13 3582.71,-125.66 3884,-87 3894.35,-85.67 3905.5,-83.39 3915.49,-81.03"/>
<polygon fill="midnightblue" stroke="midnightblue" points="2381.2,-128.38 2371.21,-131.92 2381.22,-135.38 2381.2,-128.38"/>
</g>
<!-- Node37 -->
<g id="node37" class="node">
<title>Node37</title>
<g id="a_node37"><a xlink:href="vmem__read_8c.html" target="_top" xlink:title="Copyright (c) 2021 Daishi Mori (mori0091)">
<polygon fill="none" stroke="black" points="4019,-62 4019,-81 4111,-81 4111,-62 4019,-62"/>
<text text-anchor="middle" x="4065" y="-69" font-family="Helvetica,sans-Serif" font-size="10.00">src/vmem_read.c</text>
</a>
</g>
</g>
<!-- Node1&#45;&gt;Node37 -->
<g id="edge37" class="edge">
<title>Node1&#45;&gt;Node37</title>
<path fill="none" stroke="midnightblue" d="M2381.06,-132.2C2618.11,-133 3682.97,-133.86 4010,-87 4019.09,-85.7 4028.84,-83.43 4037.56,-81.07"/>
<polygon fill="midnightblue" stroke="midnightblue" points="2381.05,-128.7 2371.04,-132.17 2381.03,-135.7 2381.05,-128.7"/>
</g>
<!-- Node38 -->
<g id="node38" class="node">
<title>Node38</title>
<g id="a_node38"><a xlink:href="vmem__set__read__address_8c.html" target="_top" xlink:title="Copyright (c) 2021 Daishi Mori (mori0091)">
<polygon fill="none" stroke="black" points="4129,-62 4129,-81 4279,-81 4279,-62 4129,-62"/>
<text text-anchor="middle" x="4204" y="-69" font-family="Helvetica,sans-Serif" font-size="10.00">src/vmem_set_read_address.c</text>
</a>
</g>
</g>
<!-- Node1&#45;&gt;Node38 -->
<g id="edge38" class="edge">
<title>Node1&#45;&gt;Node38</title>
<path fill="none" stroke="midnightblue" d="M2381.27,-131.74C2627.82,-130.26 3768.34,-121.6 4120,-87 4133.7,-85.65 4148.53,-83.37 4161.86,-81.01"/>
<polygon fill="midnightblue" stroke="midnightblue" points="2381.19,-128.24 2371.21,-131.8 2381.23,-135.24 2381.19,-128.24"/>
</g>
<!-- Node39 -->
<g id="node39" class="node">
<title>Node39</title>
<g id="a_node39"><a xlink:href="vmem__set__sprite__color__s_8c.html" target="_top" xlink:title="Copyright (c) 2021 Daishi Mori (mori0091)">
<polygon fill="none" stroke="black" points="4297,-56.5 4297,-86.5 4405,-86.5 4405,-56.5 4297,-56.5"/>
<text text-anchor="start" x="4305" y="-74.5" font-family="Helvetica,sans-Serif" font-size="10.00">src/vmem_set_sprite</text>
<text text-anchor="middle" x="4351" y="-63.5" font-family="Helvetica,sans-Serif" font-size="10.00">_color_s.c</text>
</a>
</g>
</g>
<!-- Node1&#45;&gt;Node39 -->
<g id="edge39" class="edge">
<title>Node1&#45;&gt;Node39</title>
<path fill="none" stroke="midnightblue" d="M2381.5,-132.21C2642.29,-133.19 3902.36,-135.31 4288,-87 4290.9,-86.64 4293.85,-86.2 4296.83,-85.7"/>
<polygon fill="midnightblue" stroke="midnightblue" points="2381.25,-128.71 2371.24,-132.17 2381.22,-135.71 2381.25,-128.71"/>
</g>
<!-- Node40 -->
<g id="node40" class="node">
<title>Node40</title>
<g id="a_node40"><a xlink:href="vmem__set__write__address_8c.html" target="_top" xlink:title="Copyright (c) 2021 Daishi Mori (mori0091)">
<polygon fill="none" stroke="black" points="4423.5,-56.5 4423.5,-86.5 4528.5,-86.5 4528.5,-56.5 4423.5,-56.5"/>
<text text-anchor="start" x="4431.5" y="-74.5" font-family="Helvetica,sans-Serif" font-size="10.00">src/vmem_set_write</text>
<text text-anchor="middle" x="4476" y="-63.5" font-family="Helvetica,sans-Serif" font-size="10.00">_address.c</text>
</a>
</g>
</g>
<!-- Node1&#45;&gt;Node40 -->
<g id="edge40" class="edge">
<title>Node1&#45;&gt;Node40</title>
<path fill="none" stroke="midnightblue" d="M2381.29,-131.57C2671.56,-128.83 4206.48,-113.22 4414,-87 4417.07,-86.61 4420.21,-86.14 4423.37,-85.59"/>
<polygon fill="midnightblue" stroke="midnightblue" points="2381.07,-128.07 2371.1,-131.66 2381.14,-135.07 2381.07,-128.07"/>
</g>
<!-- Node41 -->
<g id="node41" class="node">
<title>Node41</title>
<g id="a_node41"><a xlink:href="vmem__write_8c.html" target="_top" xlink:title="Copyright (c) 2021 Daishi Mori (mori0091)">
<polygon fill="none" stroke="black" points="4547,-62 4547,-81 4641,-81 4641,-62 4547,-62"/>
<text text-anchor="middle" x="4594" y="-69" font-family="Helvetica,sans-Serif" font-size="10.00">src/vmem_write.c</text>
</a>
</g>
</g>
<!-- Node1&#45;&gt;Node41 -->
<g id="edge41" class="edge">
<title>Node1&#45;&gt;Node41</title>
<path fill="none" stroke="midnightblue" d="M2381.24,-131.7C2681.45,-129.68 4317.75,-117.34 4538,-87 4547.35,-85.71 4557.39,-83.41 4566.34,-81.02"/>
<polygon fill="midnightblue" stroke="midnightblue" points="2381.11,-128.2 2371.13,-131.76 2381.15,-135.2 2381.11,-128.2"/>
</g>
<!-- Node2&#45;&gt;Node3 -->
<g id="edge2" class="edge">
<title>Node2&#45;&gt;Node3</title>
<path fill="none" stroke="midnightblue" d="M139.98,-57.67C114.75,-46.13 78.39,-29.49 56.59,-19.51"/>
<polygon fill="midnightblue" stroke="midnightblue" points="138.82,-61 149.37,-61.98 141.74,-54.63 138.82,-61"/>
</g>
<!-- Node4 -->
<g id="node4" class="node">
<title>Node4</title>
<g id="a_node4"><a xlink:href="vmem__set__metasprite__a_8c.html" target="_top" xlink:title="Copyright (c) 2021 Daishi Mori (mori0091)">
<polygon fill="none" stroke="black" points="94,-0.5 94,-19.5 242,-19.5 242,-0.5 94,-0.5"/>
<text text-anchor="middle" x="168" y="-7.5" font-family="Helvetica,sans-Serif" font-size="10.00">src/vmem_set_metasprite_a.c</text>
</a>
</g>
</g>
<!-- Node2&#45;&gt;Node4 -->
<g id="edge3" class="edge">
<title>Node2&#45;&gt;Node4</title>
<path fill="none" stroke="midnightblue" d="M168,-51.82C168,-41 168,-27.9 168,-19.51"/>
<polygon fill="midnightblue" stroke="midnightblue" points="164.5,-51.98 168,-61.98 171.5,-51.98 164.5,-51.98"/>
</g>
<!-- Node5 -->
<g id="node5" class="node">
<title>Node5</title>
<g id="a_node5"><a xlink:href="vmem__set__metasprite__m_8c.html" target="_top" xlink:title="Copyright (c) 2021 Daishi Mori (mori0091)">
<polygon fill="none" stroke="black" points="260.5,-0.5 260.5,-19.5 411.5,-19.5 411.5,-0.5 260.5,-0.5"/>
<text text-anchor="middle" x="336" y="-7.5" font-family="Helvetica,sans-Serif" font-size="10.00">src/vmem_set_metasprite_m.c</text>
</a>
</g>
</g>
<!-- Node2&#45;&gt;Node5 -->
<g id="edge4" class="edge">
<title>Node2&#45;&gt;Node5</title>
<path fill="none" stroke="midnightblue" d="M201.65,-58.58C234.3,-47.02 283.05,-29.75 311.97,-19.51"/>
<polygon fill="midnightblue" stroke="midnightblue" points="200.33,-55.34 192.07,-61.98 202.67,-61.94 200.33,-55.34"/>
</g>
<!-- Node6 -->
<g id="node6" class="node">
<title>Node6</title>
<g id="a_node6"><a xlink:href="vmem__set__metasprite__s_8c.html" target="_top" xlink:title="Copyright (c) 2021 Daishi Mori (mori0091)">
<polygon fill="none" stroke="black" points="430,-0.5 430,-19.5 578,-19.5 578,-0.5 430,-0.5"/>
<text text-anchor="middle" x="504" y="-7.5" font-family="Helvetica,sans-Serif" font-size="10.00">src/vmem_set_metasprite_s.c</text>
</a>
</g>
</g>
<!-- Node2&#45;&gt;Node6 -->
<g id="edge5" class="edge">
<title>Node2&#45;&gt;Node6</title>
<path fill="none" stroke="midnightblue" d="M212.15,-59.61C217.81,-58.33 223.53,-57.1 229,-56 302.76,-41.22 388.38,-27.79 444.23,-19.53"/>
<polygon fill="midnightblue" stroke="midnightblue" points="211.06,-56.27 202.1,-61.94 212.64,-63.09 211.06,-56.27"/>
</g>
</g>
</svg>
