<?xml version="1.0" encoding="UTF-8" standalone="no"?>
<!DOCTYPE svg PUBLIC "-//W3C//DTD SVG 1.1//EN"
 "http://www.w3.org/Graphics/SVG/1.1/DTD/svg11.dtd">
<!-- Generated by graphviz version 3.0.0 (20221109.1736)
 -->
<!-- Title: include/vdp.h Pages: 1 -->
<svg width="594pt" height="252pt"
 viewBox="0.00 0.00 593.50 252.00" xmlns="http://www.w3.org/2000/svg" xmlns:xlink="http://www.w3.org/1999/xlink">
<g id="graph0" class="graph" transform="scale(1 1) rotate(0) translate(4 248)">
<title>include/vdp.h</title>
<!-- Node1 -->
<g id="node1" class="node">
<title>Node1</title>
<g id="a_node1"><a xlink:title="Data types and functions for VDP (Video Display Proccessor) access.">
<polygon fill="#bfbfbf" stroke="black" points="193.5,-224.5 193.5,-243.5 267.5,-243.5 267.5,-224.5 193.5,-224.5"/>
<text text-anchor="middle" x="230.5" y="-231.5" font-family="Helvetica,sans-Serif" font-size="10.00">include/vdp.h</text>
</a>
</g>
</g>
<!-- Node2 -->
<g id="node2" class="node">
<title>Node2</title>
<g id="a_node2"><a xlink:title=" ">
<polygon fill="none" stroke="#bfbfbf" points="0,-168.5 0,-187.5 51,-187.5 51,-168.5 0,-168.5"/>
<text text-anchor="middle" x="25.5" y="-175.5" font-family="Helvetica,sans-Serif" font-size="10.00">assert.h</text>
</a>
</g>
</g>
<!-- Node1&#45;&gt;Node2 -->
<g id="edge1" class="edge">
<title>Node1&#45;&gt;Node2</title>
<path fill="none" stroke="midnightblue" d="M198.02,-224.44C160.6,-214.59 99.35,-198.45 60.79,-188.3"/>
<polygon fill="midnightblue" stroke="midnightblue" points="61.59,-184.89 51.03,-185.73 59.81,-191.66 61.59,-184.89"/>
</g>
<!-- Node3 -->
<g id="node3" class="node">
<title>Node3</title>
<g id="a_node3"><a xlink:title=" ">
<polygon fill="none" stroke="#bfbfbf" points="69.5,-168.5 69.5,-187.5 125.5,-187.5 125.5,-168.5 69.5,-168.5"/>
<text text-anchor="middle" x="97.5" y="-175.5" font-family="Helvetica,sans-Serif" font-size="10.00">stdbool.h</text>
</a>
</g>
</g>
<!-- Node1&#45;&gt;Node3 -->
<g id="edge2" class="edge">
<title>Node1&#45;&gt;Node3</title>
<path fill="none" stroke="midnightblue" d="M209.43,-224.44C187.44,-215.52 152.77,-201.44 127.84,-191.32"/>
<polygon fill="midnightblue" stroke="midnightblue" points="129.06,-188.04 118.48,-187.52 126.42,-194.52 129.06,-188.04"/>
</g>
<!-- Node4 -->
<g id="node4" class="node">
<title>Node4</title>
<g id="a_node4"><a xlink:title=" ">
<polygon fill="none" stroke="#bfbfbf" points="243.5,-0.5 243.5,-19.5 291.5,-19.5 291.5,-0.5 243.5,-0.5"/>
<text text-anchor="middle" x="267.5" y="-7.5" font-family="Helvetica,sans-Serif" font-size="10.00">stdint.h</text>
</a>
</g>
</g>
<!-- Node1&#45;&gt;Node4 -->
<g id="edge3" class="edge">
<title>Node1&#45;&gt;Node4</title>
<path fill="none" stroke="midnightblue" d="M225.37,-224.41C220.44,-215.61 213.34,-201.38 210.5,-188 208.65,-179.3 209.64,-176.85 210.5,-168 215.41,-117.51 211.47,-102.16 232.5,-56 237.25,-45.57 244.86,-35.37 251.78,-27.33"/>
<polygon fill="midnightblue" stroke="midnightblue" points="254.47,-29.57 258.58,-19.8 249.28,-24.87 254.47,-29.57"/>
</g>
<!-- Node5 -->
<g id="node5" class="node">
<title>Node5</title>
<g id="a_node5"><a xlink:href="io_8h.html" target="_top" xlink:title="Definition of I/O ports.">
<polygon fill="none" stroke="black" points="553.5,-56.5 553.5,-75.5 585.5,-75.5 585.5,-56.5 553.5,-56.5"/>
<text text-anchor="middle" x="569.5" y="-63.5" font-family="Helvetica,sans-Serif" font-size="10.00">io.h</text>
</a>
</g>
</g>
<!-- Node1&#45;&gt;Node5 -->
<g id="edge4" class="edge">
<title>Node1&#45;&gt;Node5</title>
<path fill="none" stroke="midnightblue" d="M260.06,-224.42C286.61,-216.31 326.39,-203.15 359.5,-188 431.45,-155.07 511.02,-105.22 548.18,-81.08"/>
<polygon fill="midnightblue" stroke="midnightblue" points="550.23,-83.93 556.69,-75.53 546.4,-78.07 550.23,-83.93"/>
</g>
<!-- Node7 -->
<g id="node7" class="node">
<title>Node7</title>
<g id="a_node7"><a xlink:href="vmem_8h.html" target="_top" xlink:title="Data types and functions for VRAM access.">
<polygon fill="none" stroke="black" points="303,-112.5 303,-131.5 354,-131.5 354,-112.5 303,-112.5"/>
<text text-anchor="middle" x="328.5" y="-119.5" font-family="Helvetica,sans-Serif" font-size="10.00">vmem.h</text>
</a>
</g>
</g>
<!-- Node1&#45;&gt;Node7 -->
<g id="edge6" class="edge">
<title>Node1&#45;&gt;Node7</title>
<path fill="none" stroke="midnightblue" d="M255.65,-224.49C273.14,-217.34 295.7,-205.46 309.5,-188 320.08,-174.61 324.77,-155.5 326.85,-141.46"/>
<polygon fill="midnightblue" stroke="midnightblue" points="330.33,-141.84 328.02,-131.5 323.38,-141.03 330.33,-141.84"/>
</g>
<!-- Node8 -->
<g id="node8" class="node">
<title>Node8</title>
<g id="a_node8"><a xlink:href="vdp__unsafe_8h.html" target="_top" xlink:title="Unsafe primitive functions for VDP (Video Display Proccessor) access.">
<polygon fill="none" stroke="black" points="226.5,-168.5 226.5,-187.5 300.5,-187.5 300.5,-168.5 226.5,-168.5"/>
<text text-anchor="middle" x="263.5" y="-175.5" font-family="Helvetica,sans-Serif" font-size="10.00">vdp_unsafe.h</text>
</a>
</g>
</g>
<!-- Node1&#45;&gt;Node8 -->
<g id="edge9" class="edge">
<title>Node1&#45;&gt;Node8</title>
<path fill="none" stroke="midnightblue" d="M235.95,-224.08C240.51,-216.61 247.17,-205.72 252.79,-196.52"/>
<polygon fill="midnightblue" stroke="midnightblue" points="255.92,-198.11 258.15,-187.75 249.95,-194.46 255.92,-198.11"/>
</g>
<!-- Node9 -->
<g id="node9" class="node">
<title>Node9</title>
<g id="a_node9"><a xlink:href="bios_8h.html" target="_top" xlink:title="C language I/F for MSX BIOS routines.">
<polygon fill="none" stroke="black" points="242.5,-112.5 242.5,-131.5 284.5,-131.5 284.5,-112.5 242.5,-112.5"/>
<text text-anchor="middle" x="263.5" y="-119.5" font-family="Helvetica,sans-Serif" font-size="10.00">bios.h</text>
</a>
</g>
</g>
<!-- Node1&#45;&gt;Node9 -->
<g id="edge21" class="edge">
<title>Node1&#45;&gt;Node9</title>
<path fill="none" stroke="midnightblue" d="M225.62,-224.26C219.16,-211.47 209.47,-187.09 217.5,-168 222.53,-156.05 232.44,-145.69 241.79,-137.93"/>
<polygon fill="midnightblue" stroke="midnightblue" points="243.94,-140.69 249.71,-131.81 239.66,-135.15 243.94,-140.69"/>
</g>
<!-- Node12 -->
<g id="node12" class="node">
<title>Node12</title>
<g id="a_node12"><a xlink:href="workarea_8h.html" target="_top" xlink:title="Definitions of MSX SYSTEM Workarea.">
<polygon fill="none" stroke="black" points="471.5,-56.5 471.5,-75.5 535.5,-75.5 535.5,-56.5 471.5,-56.5"/>
<text text-anchor="middle" x="503.5" y="-63.5" font-family="Helvetica,sans-Serif" font-size="10.00">workarea.h</text>
</a>
</g>
</g>
<!-- Node1&#45;&gt;Node12 -->
<g id="edge22" class="edge">
<title>Node1&#45;&gt;Node12</title>
<path fill="none" stroke="midnightblue" d="M252.3,-224.43C272.74,-216.09 303.9,-202.56 329.5,-188 388.59,-154.39 453.02,-106.27 484.3,-82.09"/>
<polygon fill="midnightblue" stroke="midnightblue" points="486.82,-84.57 492.56,-75.66 482.52,-79.04 486.82,-84.57"/>
</g>
<!-- Node6 -->
<g id="node6" class="node">
<title>Node6</title>
<g id="a_node6"><a xlink:href="config_8h.html" target="_top" xlink:title="Hack for C Compiler portability.">
<polygon fill="none" stroke="black" points="436.5,-0.5 436.5,-19.5 486.5,-19.5 486.5,-0.5 436.5,-0.5"/>
<text text-anchor="middle" x="461.5" y="-7.5" font-family="Helvetica,sans-Serif" font-size="10.00">config.h</text>
</a>
</g>
</g>
<!-- Node5&#45;&gt;Node6 -->
<g id="edge5" class="edge">
<title>Node5&#45;&gt;Node6</title>
<path fill="none" stroke="midnightblue" d="M553.1,-56.8C535.78,-48.14 508.21,-34.36 487.84,-24.17"/>
<polygon fill="midnightblue" stroke="midnightblue" points="489.28,-20.98 478.77,-19.64 486.15,-27.24 489.28,-20.98"/>
</g>
<!-- Node7&#45;&gt;Node4 -->
<g id="edge7" class="edge">
<title>Node7&#45;&gt;Node4</title>
<path fill="none" stroke="midnightblue" d="M318.06,-112.4C308.54,-104.03 294.75,-90.49 286.5,-76 278.32,-61.63 273.39,-43.44 270.61,-29.95"/>
<polygon fill="midnightblue" stroke="midnightblue" points="274.02,-29.12 268.76,-19.92 267.14,-30.39 274.02,-29.12"/>
</g>
<!-- Node7&#45;&gt;Node5 -->
<g id="edge8" class="edge">
<title>Node7&#45;&gt;Node5</title>
<path fill="none" stroke="midnightblue" d="M354.05,-116.87C393.01,-110.32 469.71,-96.43 543.55,-75.94"/>
<polygon fill="midnightblue" stroke="midnightblue" points="544.8,-79.23 553.47,-73.15 542.9,-72.49 544.8,-79.23"/>
</g>
<!-- Node8&#45;&gt;Node4 -->
<g id="edge10" class="edge">
<title>Node8&#45;&gt;Node4</title>
<path fill="none" stroke="midnightblue" d="M255.29,-168.18C247.96,-159.66 237.74,-146.02 233.5,-132 222.38,-95.27 242.59,-51.9 256.32,-28.35"/>
<polygon fill="midnightblue" stroke="midnightblue" points="259.48,-29.9 261.71,-19.54 253.5,-26.25 259.48,-29.9"/>
</g>
<!-- Node8&#45;&gt;Node5 -->
<g id="edge11" class="edge">
<title>Node8&#45;&gt;Node5</title>
<path fill="none" stroke="midnightblue" d="M287.19,-168.49C334.08,-151.64 442.32,-112.75 543.87,-76.22"/>
<polygon fill="midnightblue" stroke="midnightblue" points="545.14,-79.49 553.36,-72.81 542.77,-72.9 545.14,-79.49"/>
</g>
<!-- Node8&#45;&gt;Node7 -->
<g id="edge12" class="edge">
<title>Node8&#45;&gt;Node7</title>
<path fill="none" stroke="midnightblue" d="M273.94,-168.32C283.65,-160.26 298.32,-148.08 310,-138.37"/>
<polygon fill="midnightblue" stroke="midnightblue" points="312.41,-140.92 317.87,-131.83 307.94,-135.53 312.41,-140.92"/>
</g>
<!-- Node8&#45;&gt;Node9 -->
<g id="edge13" class="edge">
<title>Node8&#45;&gt;Node9</title>
<path fill="none" stroke="midnightblue" d="M263.5,-168.08C263.5,-161.01 263.5,-150.86 263.5,-141.99"/>
<polygon fill="midnightblue" stroke="midnightblue" points="267,-141.75 263.5,-131.75 260,-141.75 267,-141.75"/>
</g>
<!-- Node9&#45;&gt;Node4 -->
<g id="edge14" class="edge">
<title>Node9&#45;&gt;Node4</title>
<path fill="none" stroke="midnightblue" d="M260.43,-112.17C256.47,-99.67 250.45,-76.09 253.5,-56 254.87,-47 257.69,-37.33 260.45,-29.26"/>
<polygon fill="midnightblue" stroke="midnightblue" points="263.77,-30.37 263.9,-19.78 257.19,-27.98 263.77,-30.37"/>
</g>
<!-- Node10 -->
<g id="node10" class="node">
<title>Node10</title>
<g id="a_node10"><a xlink:href="bios__const_8h.html" target="_top" xlink:title="Constant variables in the MSX BIOS ROM.">
<polygon fill="none" stroke="black" points="296,-56.5 296,-75.5 367,-75.5 367,-56.5 296,-56.5"/>
<text text-anchor="middle" x="331.5" y="-63.5" font-family="Helvetica,sans-Serif" font-size="10.00">bios_const.h</text>
</a>
</g>
</g>
<!-- Node9&#45;&gt;Node10 -->
<g id="edge15" class="edge">
<title>Node9&#45;&gt;Node10</title>
<path fill="none" stroke="midnightblue" d="M274.43,-112.32C284.67,-104.18 300.22,-91.84 312.5,-82.09"/>
<polygon fill="midnightblue" stroke="midnightblue" points="314.72,-84.79 320.38,-75.83 310.37,-79.31 314.72,-84.79"/>
</g>
<!-- Node11 -->
<g id="node11" class="node">
<title>Node11</title>
<g id="a_node11"><a xlink:href="bios__entry_8h.html" target="_top" xlink:title="Assembler entry points for MSX BIOS functions.">
<polygon fill="none" stroke="black" points="385.5,-56.5 385.5,-75.5 453.5,-75.5 453.5,-56.5 385.5,-56.5"/>
<text text-anchor="middle" x="419.5" y="-63.5" font-family="Helvetica,sans-Serif" font-size="10.00">bios_entry.h</text>
</a>
</g>
</g>
<!-- Node9&#45;&gt;Node11 -->
<g id="edge18" class="edge">
<title>Node9&#45;&gt;Node11</title>
<path fill="none" stroke="midnightblue" d="M284.54,-113.72C310.35,-104.78 354.47,-89.51 385.21,-78.87"/>
<polygon fill="midnightblue" stroke="midnightblue" points="386.38,-82.17 394.68,-75.59 384.09,-75.55 386.38,-82.17"/>
</g>
<!-- Node10&#45;&gt;Node4 -->
<g id="edge16" class="edge">
<title>Node10&#45;&gt;Node4</title>
<path fill="none" stroke="midnightblue" d="M321.22,-56.32C311.66,-48.26 297.22,-36.08 285.72,-26.37"/>
<polygon fill="midnightblue" stroke="midnightblue" points="287.87,-23.61 277.97,-19.83 283.36,-28.96 287.87,-23.61"/>
</g>
<!-- Node10&#45;&gt;Node6 -->
<g id="edge17" class="edge">
<title>Node10&#45;&gt;Node6</title>
<path fill="none" stroke="midnightblue" d="M352.1,-56.44C373.49,-47.56 407.18,-33.56 431.52,-23.45"/>
<polygon fill="midnightblue" stroke="midnightblue" points="433.11,-26.58 441,-19.52 430.42,-20.12 433.11,-26.58"/>
</g>
<!-- Node11&#45;&gt;Node4 -->
<g id="edge19" class="edge">
<title>Node11&#45;&gt;Node4</title>
<path fill="none" stroke="midnightblue" d="M395.42,-56.44C369.96,-47.4 329.61,-33.06 301.04,-22.92"/>
<polygon fill="midnightblue" stroke="midnightblue" points="302.07,-19.57 291.47,-19.52 299.72,-26.16 302.07,-19.57"/>
</g>
<!-- Node11&#45;&gt;Node6 -->
<g id="edge20" class="edge">
<title>Node11&#45;&gt;Node6</title>
<path fill="none" stroke="midnightblue" d="M426.44,-56.08C432.43,-48.38 441.25,-37.03 448.55,-27.65"/>
<polygon fill="midnightblue" stroke="midnightblue" points="451.32,-29.79 454.69,-19.75 445.79,-25.5 451.32,-29.79"/>
</g>
<!-- Node12&#45;&gt;Node4 -->
<g id="edge23" class="edge">
<title>Node12&#45;&gt;Node4</title>
<path fill="none" stroke="midnightblue" d="M471.18,-57.6C426.68,-47.42 346.89,-29.17 301.51,-18.78"/>
<polygon fill="midnightblue" stroke="midnightblue" points="302.1,-15.33 291.57,-16.51 300.54,-22.15 302.1,-15.33"/>
</g>
<!-- Node12&#45;&gt;Node6 -->
<g id="edge24" class="edge">
<title>Node12&#45;&gt;Node6</title>
<path fill="none" stroke="midnightblue" d="M496.56,-56.08C490.57,-48.38 481.75,-37.03 474.45,-27.65"/>
<polygon fill="midnightblue" stroke="midnightblue" points="477.21,-25.5 468.31,-19.75 471.68,-29.79 477.21,-25.5"/>
</g>
</g>
</svg>
