<?xml version="1.0" encoding="UTF-8" standalone="no"?>
<!DOCTYPE svg PUBLIC "-//W3C//DTD SVG 1.1//EN"
 "http://www.w3.org/Graphics/SVG/1.1/DTD/svg11.dtd">
<!-- Generated by graphviz version 7.0.5 (20221223.1930)
 -->
<!-- Title: include/vdp.h Pages: 1 -->
<svg width="611pt" height="247pt"
 viewBox="0.00 0.00 611.37 247.00" xmlns="http://www.w3.org/2000/svg" xmlns:xlink="http://www.w3.org/1999/xlink">
<g id="graph0" class="graph" transform="scale(1 1) rotate(0) translate(4 243)">
<title>include/vdp.h</title>
<!-- Node1 -->
<g id="node1" class="node">
<title>Node1</title>
<g id="a_node1"><a xlink:title="Data types and functions for VDP (Video Display Proccessor) access.">
<polygon fill="#999999" stroke="#666666" points="248.5,-239 174.5,-239 174.5,-220 248.5,-220 248.5,-239"/>
<text text-anchor="middle" x="211.5" y="-227" font-family="Helvetica,sans-Serif" font-size="10.00">include/vdp.h</text>
</a>
</g>
</g>
<!-- Node2 -->
<g id="node2" class="node">
<title>Node2</title>
<g id="a_node2"><a xlink:title=" ">
<polygon fill="#e0e0e0" stroke="#999999" points="51,-184 0,-184 0,-165 51,-165 51,-184"/>
<text text-anchor="middle" x="25.5" y="-172" font-family="Helvetica,sans-Serif" font-size="10.00">assert.h</text>
</a>
</g>
</g>
<!-- Node1&#45;&gt;Node2 -->
<g id="edge1" class="edge">
<title>Node1&#45;&gt;Node2</title>
<path fill="none" stroke="#63b8ff" d="M179.95,-219.51C147.45,-210.25 96.83,-195.83 62.47,-186.04"/>
<polygon fill="#63b8ff" stroke="#63b8ff" points="63.53,-182.7 52.95,-183.32 61.61,-189.43 63.53,-182.7"/>
</g>
<!-- Node3 -->
<g id="node3" class="node">
<title>Node3</title>
<g id="a_node3"><a xlink:title=" ">
<polygon fill="#e0e0e0" stroke="#999999" points="125.5,-184 69.5,-184 69.5,-165 125.5,-165 125.5,-184"/>
<text text-anchor="middle" x="97.5" y="-172" font-family="Helvetica,sans-Serif" font-size="10.00">stdbool.h</text>
</a>
</g>
</g>
<!-- Node1&#45;&gt;Node3 -->
<g id="edge2" class="edge">
<title>Node1&#45;&gt;Node3</title>
<path fill="none" stroke="#63b8ff" d="M192.16,-219.51C174.28,-211.2 147.46,-198.73 126.93,-189.18"/>
<polygon fill="#63b8ff" stroke="#63b8ff" points="128.47,-186.04 117.93,-185 125.52,-192.39 128.47,-186.04"/>
</g>
<!-- Node4 -->
<g id="node4" class="node">
<title>Node4</title>
<g id="a_node4"><a xlink:title=" ">
<polygon fill="#e0e0e0" stroke="#999999" points="395.5,-19 347.5,-19 347.5,0 395.5,0 395.5,-19"/>
<text text-anchor="middle" x="371.5" y="-7" font-family="Helvetica,sans-Serif" font-size="10.00">stdint.h</text>
</a>
</g>
</g>
<!-- Node1&#45;&gt;Node4 -->
<g id="edge3" class="edge">
<title>Node1&#45;&gt;Node4</title>
<path fill="none" stroke="#63b8ff" d="M207.24,-219.55C203.3,-210.73 197.73,-196.78 195.5,-184 192.22,-165.19 195.93,-118.32 199.5,-110 222.98,-55.26 293.04,-29.1 336.15,-17.86"/>
<polygon fill="#63b8ff" stroke="#63b8ff" points="336.93,-21.28 345.81,-15.5 335.26,-14.48 336.93,-21.28"/>
</g>
<!-- Node5 -->
<g id="node5" class="node">
<title>Node5</title>
<g id="a_node5"><a xlink:href="io_8h.html" target="_top" xlink:title="Definition of I/O ports.">
<polygon fill="white" stroke="#666666" points="305.5,-74 273.5,-74 273.5,-55 305.5,-55 305.5,-74"/>
<text text-anchor="middle" x="289.5" y="-62" font-family="Helvetica,sans-Serif" font-size="10.00">io.h</text>
</a>
</g>
</g>
<!-- Node1&#45;&gt;Node5 -->
<g id="edge4" class="edge">
<title>Node1&#45;&gt;Node5</title>
<path fill="none" stroke="#63b8ff" d="M208.71,-219.7C202.69,-198.94 190.63,-145.94 211.5,-110 222.41,-91.22 244.54,-79.7 262.45,-73.1"/>
<polygon fill="#63b8ff" stroke="#63b8ff" points="263.36,-76.49 271.75,-70.01 261.15,-69.85 263.36,-76.49"/>
</g>
<!-- Node7 -->
<g id="node7" class="node">
<title>Node7</title>
<g id="a_node7"><a xlink:href="vmem_8h.html" target="_top" xlink:title="Data types and functions for VRAM access.">
<polygon fill="white" stroke="#666666" points="271,-129 220,-129 220,-110 271,-110 271,-129"/>
<text text-anchor="middle" x="245.5" y="-117" font-family="Helvetica,sans-Serif" font-size="10.00">vmem.h</text>
</a>
</g>
</g>
<!-- Node1&#45;&gt;Node7 -->
<g id="edge6" class="edge">
<title>Node1&#45;&gt;Node7</title>
<path fill="none" stroke="#63b8ff" d="M214.28,-219.66C219.71,-202.42 231.84,-163.9 239.28,-140.27"/>
<polygon fill="#63b8ff" stroke="#63b8ff" points="242.56,-141.49 242.22,-130.9 235.88,-139.39 242.56,-141.49"/>
</g>
<!-- Node8 -->
<g id="node8" class="node">
<title>Node8</title>
<g id="a_node8"><a xlink:href="vdp__unsafe_8h.html" target="_top" xlink:title="Unsafe primitive functions for VDP (Video Display Proccessor) access.">
<polygon fill="white" stroke="#666666" points="336.5,-184 262.5,-184 262.5,-165 336.5,-165 336.5,-184"/>
<text text-anchor="middle" x="299.5" y="-172" font-family="Helvetica,sans-Serif" font-size="10.00">vdp_unsafe.h</text>
</a>
</g>
</g>
<!-- Node1&#45;&gt;Node8 -->
<g id="edge9" class="edge">
<title>Node1&#45;&gt;Node8</title>
<path fill="none" stroke="#63b8ff" d="M226.43,-219.51C239.78,-211.47 259.61,-199.53 275.24,-190.11"/>
<polygon fill="#63b8ff" stroke="#63b8ff" points="276.74,-193.3 283.5,-185.14 273.12,-187.3 276.74,-193.3"/>
</g>
<!-- Node9 -->
<g id="node9" class="node">
<title>Node9</title>
<g id="a_node9"><a xlink:href="bios_8h.html" target="_top" xlink:title="C language I/F for MSX BIOS routines.">
<polygon fill="white" stroke="#666666" points="407.5,-129 365.5,-129 365.5,-110 407.5,-110 407.5,-129"/>
<text text-anchor="middle" x="386.5" y="-117" font-family="Helvetica,sans-Serif" font-size="10.00">bios.h</text>
</a>
</g>
</g>
<!-- Node1&#45;&gt;Node9 -->
<g id="edge21" class="edge">
<title>Node1&#45;&gt;Node9</title>
<path fill="none" stroke="#63b8ff" d="M248.79,-223.05C277.6,-217.31 317.21,-205.92 345.5,-184 360.56,-172.33 371.73,-153.48 378.57,-139.34"/>
<polygon fill="#63b8ff" stroke="#63b8ff" points="381.58,-141.17 382.5,-130.61 375.2,-138.29 381.58,-141.17"/>
</g>
<!-- Node12 -->
<g id="node12" class="node">
<title>Node12</title>
<g id="a_node12"><a xlink:href="workarea_8h.html" target="_top" xlink:title="Definitions of MSX SYSTEM Workarea.">
<polygon fill="white" stroke="#666666" points="585.5,-129 521.5,-129 521.5,-110 585.5,-110 585.5,-129"/>
<text text-anchor="middle" x="553.5" y="-117" font-family="Helvetica,sans-Serif" font-size="10.00">workarea.h</text>
</a>
</g>
</g>
<!-- Node1&#45;&gt;Node12 -->
<g id="edge22" class="edge">
<title>Node1&#45;&gt;Node12</title>
<path fill="none" stroke="#63b8ff" d="M244.82,-219.53C276.5,-210.87 325.44,-197.17 367.5,-184 420.18,-167.51 480.55,-146.5 517.86,-133.27"/>
<polygon fill="#63b8ff" stroke="#63b8ff" points="518.99,-136.59 527.24,-129.94 516.64,-129.99 518.99,-136.59"/>
</g>
<!-- Node6 -->
<g id="node6" class="node">
<title>Node6</title>
<g id="a_node6"><a xlink:href="config_8h.html" target="_top" xlink:title="Hack for C Compiler portability.">
<polygon fill="white" stroke="#666666" points="504.5,-19 454.5,-19 454.5,0 504.5,0 504.5,-19"/>
<text text-anchor="middle" x="479.5" y="-7" font-family="Helvetica,sans-Serif" font-size="10.00">config.h</text>
</a>
</g>
</g>
<!-- Node5&#45;&gt;Node6 -->
<g id="edge5" class="edge">
<title>Node5&#45;&gt;Node6</title>
<path fill="none" stroke="#63b8ff" d="M305.7,-58.98C335.97,-50.54 401.78,-32.18 443.17,-20.63"/>
<polygon fill="#63b8ff" stroke="#63b8ff" points="444,-24.04 452.69,-17.98 442.12,-17.29 444,-24.04"/>
</g>
<!-- Node7&#45;&gt;Node4 -->
<g id="edge7" class="edge">
<title>Node7&#45;&gt;Node4</title>
<path fill="none" stroke="#63b8ff" d="M245.83,-109.55C246.79,-96.09 250.48,-70.55 264.5,-55 283.14,-34.33 312.89,-23 336.29,-16.96"/>
<polygon fill="#63b8ff" stroke="#63b8ff" points="336.78,-20.44 345.72,-14.74 335.18,-13.62 336.78,-20.44"/>
</g>
<!-- Node7&#45;&gt;Node5 -->
<g id="edge8" class="edge">
<title>Node7&#45;&gt;Node5</title>
<path fill="none" stroke="#63b8ff" d="M252.77,-109.75C258.78,-102.5 267.51,-91.98 274.96,-83.02"/>
<polygon fill="#63b8ff" stroke="#63b8ff" points="277.42,-85.54 281.11,-75.61 272.03,-81.07 277.42,-85.54"/>
</g>
<!-- Node8&#45;&gt;Node4 -->
<g id="edge10" class="edge">
<title>Node8&#45;&gt;Node4</title>
<path fill="none" stroke="#63b8ff" d="M303.37,-164.74C314.6,-139.31 347.39,-65.08 363.02,-29.69"/>
<polygon fill="#63b8ff" stroke="#63b8ff" points="366.16,-31.25 367,-20.69 359.76,-28.42 366.16,-31.25"/>
</g>
<!-- Node8&#45;&gt;Node5 -->
<g id="edge11" class="edge">
<title>Node8&#45;&gt;Node5</title>
<path fill="none" stroke="#63b8ff" d="M298.68,-164.66C297.1,-147.57 293.58,-109.61 291.39,-85.92"/>
<polygon fill="#63b8ff" stroke="#63b8ff" points="294.88,-85.6 290.47,-75.97 287.91,-86.25 294.88,-85.6"/>
</g>
<!-- Node8&#45;&gt;Node7 -->
<g id="edge12" class="edge">
<title>Node8&#45;&gt;Node7</title>
<path fill="none" stroke="#63b8ff" d="M290.58,-164.75C283.05,-157.35 272.03,-146.54 262.77,-137.45"/>
<polygon fill="#63b8ff" stroke="#63b8ff" points="265.28,-135.01 255.69,-130.5 260.38,-140 265.28,-135.01"/>
</g>
<!-- Node8&#45;&gt;Node9 -->
<g id="edge13" class="edge">
<title>Node8&#45;&gt;Node9</title>
<path fill="none" stroke="#63b8ff" d="M314.26,-164.51C327.46,-156.47 347.06,-144.53 362.51,-135.11"/>
<polygon fill="#63b8ff" stroke="#63b8ff" points="363.95,-138.34 370.67,-130.15 360.31,-132.36 363.95,-138.34"/>
</g>
<!-- Node9&#45;&gt;Node4 -->
<g id="edge14" class="edge">
<title>Node9&#45;&gt;Node4</title>
<path fill="none" stroke="#63b8ff" d="M385.27,-109.66C382.89,-92.5 377.58,-54.26 374.29,-30.6"/>
<polygon fill="#63b8ff" stroke="#63b8ff" points="377.8,-30.38 372.95,-20.96 370.86,-31.35 377.8,-30.38"/>
</g>
<!-- Node10 -->
<g id="node10" class="node">
<title>Node10</title>
<g id="a_node10"><a xlink:href="bios__const_8h.html" target="_top" xlink:title="Constant variables in the MSX BIOS ROM.">
<polygon fill="white" stroke="#666666" points="557,-74 486,-74 486,-55 557,-55 557,-74"/>
<text text-anchor="middle" x="521.5" y="-62" font-family="Helvetica,sans-Serif" font-size="10.00">bios_const.h</text>
</a>
</g>
</g>
<!-- Node9&#45;&gt;Node10 -->
<g id="edge15" class="edge">
<title>Node9&#45;&gt;Node10</title>
<path fill="none" stroke="#63b8ff" d="M407.89,-110.1C429.52,-101.61 463.26,-88.37 488.35,-78.51"/>
<polygon fill="#63b8ff" stroke="#63b8ff" points="489.42,-81.85 497.45,-74.94 486.86,-75.34 489.42,-81.85"/>
</g>
<!-- Node11 -->
<g id="node11" class="node">
<title>Node11</title>
<g id="a_node11"><a xlink:href="bios__entry_8h.html" target="_top" xlink:title="Assembler entry points for MSX BIOS functions.">
<polygon fill="white" stroke="#666666" points="467.5,-74 399.5,-74 399.5,-55 467.5,-55 467.5,-74"/>
<text text-anchor="middle" x="433.5" y="-62" font-family="Helvetica,sans-Serif" font-size="10.00">bios_entry.h</text>
</a>
</g>
</g>
<!-- Node9&#45;&gt;Node11 -->
<g id="edge18" class="edge">
<title>Node9&#45;&gt;Node11</title>
<path fill="none" stroke="#63b8ff" d="M394.26,-109.75C400.69,-102.5 410.01,-91.98 417.96,-83.02"/>
<polygon fill="#63b8ff" stroke="#63b8ff" points="420.55,-85.38 424.57,-75.57 415.31,-80.73 420.55,-85.38"/>
</g>
<!-- Node10&#45;&gt;Node4 -->
<g id="edge16" class="edge">
<title>Node10&#45;&gt;Node4</title>
<path fill="none" stroke="#63b8ff" d="M496.05,-54.51C471.37,-45.79 433.72,-32.49 406.28,-22.79"/>
<polygon fill="#63b8ff" stroke="#63b8ff" points="407.6,-19.54 397.01,-19.51 405.27,-26.14 407.6,-19.54"/>
</g>
<!-- Node10&#45;&gt;Node6 -->
<g id="edge17" class="edge">
<title>Node10&#45;&gt;Node6</title>
<path fill="none" stroke="#63b8ff" d="M514.56,-54.75C508.88,-47.58 500.66,-37.2 493.61,-28.3"/>
<polygon fill="#63b8ff" stroke="#63b8ff" points="496.48,-26.29 487.53,-20.63 490.99,-30.64 496.48,-26.29"/>
</g>
<!-- Node11&#45;&gt;Node4 -->
<g id="edge19" class="edge">
<title>Node11&#45;&gt;Node4</title>
<path fill="none" stroke="#63b8ff" d="M422.98,-54.51C414.11,-46.93 401.19,-35.88 390.51,-26.75"/>
<polygon fill="#63b8ff" stroke="#63b8ff" points="392.89,-24.18 383.01,-20.34 388.34,-29.5 392.89,-24.18"/>
</g>
<!-- Node11&#45;&gt;Node6 -->
<g id="edge20" class="edge">
<title>Node11&#45;&gt;Node6</title>
<path fill="none" stroke="#63b8ff" d="M441.1,-54.75C447.38,-47.5 456.51,-36.98 464.3,-28.02"/>
<polygon fill="#63b8ff" stroke="#63b8ff" points="466.84,-30.43 470.75,-20.59 461.55,-25.84 466.84,-30.43"/>
</g>
<!-- Node12&#45;&gt;Node4 -->
<g id="edge23" class="edge">
<title>Node12&#45;&gt;Node4</title>
<path fill="none" stroke="#63b8ff" d="M559.33,-109.66C567.31,-96.35 579.27,-71.01 566.5,-55 556.56,-42.54 460.57,-25.06 407.07,-16.17"/>
<polygon fill="#63b8ff" stroke="#63b8ff" points="407.65,-12.72 397.21,-14.55 406.51,-19.63 407.65,-12.72"/>
</g>
<!-- Node12&#45;&gt;Node6 -->
<g id="edge24" class="edge">
<title>Node12&#45;&gt;Node6</title>
<path fill="none" stroke="#63b8ff" d="M568.18,-109.53C586.31,-97.31 613.18,-74.67 599.5,-55 580.9,-28.27 544.27,-17.56 516.34,-13.29"/>
<polygon fill="#63b8ff" stroke="#63b8ff" points="516.85,-9.82 506.49,-12.02 515.96,-16.77 516.85,-9.82"/>
</g>
<!-- Node12&#45;&gt;Node10 -->
<g id="edge25" class="edge">
<title>Node12&#45;&gt;Node10</title>
<path fill="none" stroke="#63b8ff" d="M548.22,-109.75C544.03,-102.81 538.02,-92.86 532.77,-84.16"/>
<polygon fill="#63b8ff" stroke="#63b8ff" points="535.85,-82.49 527.68,-75.74 529.85,-86.11 535.85,-82.49"/>
</g>
</g>
</svg>
