<?xml version="1.0" encoding="UTF-8" standalone="no"?>
<!DOCTYPE svg PUBLIC "-//W3C//DTD SVG 1.1//EN"
 "http://www.w3.org/Graphics/SVG/1.1/DTD/svg11.dtd">
<!-- Generated by graphviz version 7.0.4 (20221203.1631)
 -->
<!-- Title: include/vdp_unsafe.h Pages: 1 -->
<svg width="272pt" height="192pt"
 viewBox="0.00 0.00 272.33 192.00" xmlns="http://www.w3.org/2000/svg" xmlns:xlink="http://www.w3.org/1999/xlink">
<g id="graph0" class="graph" transform="scale(1 1) rotate(0) translate(4 188)">
<title>include/vdp_unsafe.h</title>
<!-- Node1 -->
<g id="node1" class="node">
<title>Node1</title>
<g id="a_node1"><a xlink:title="Unsafe primitive functions for VDP (Video Display Proccessor) access.">
<polygon fill="#999999" stroke="#666666" points="212.33,-184 104.33,-184 104.33,-165 212.33,-165 212.33,-184"/>
<text text-anchor="middle" x="158.33" y="-172" font-family="Helvetica,sans-Serif" font-size="10.00">include/vdp_unsafe.h</text>
</a>
</g>
</g>
<!-- Node2 -->
<g id="node2" class="node">
<title>Node2</title>
<g id="a_node2"><a xlink:title=" ">
<polygon fill="#e0e0e0" stroke="#999999" points="76.33,-19 28.33,-19 28.33,0 76.33,0 76.33,-19"/>
<text text-anchor="middle" x="52.33" y="-7" font-family="Helvetica,sans-Serif" font-size="10.00">stdint.h</text>
</a>
</g>
</g>
<!-- Node1&#45;&gt;Node2 -->
<g id="edge1" class="edge">
<title>Node1&#45;&gt;Node2</title>
<path fill="none" stroke="#63b8ff" d="M124.77,-164.55C85.53,-151.94 23.29,-124.6 2.33,-74 -5.39,-55.36 11.34,-37.63 27.48,-25.66"/>
<polygon fill="#63b8ff" stroke="#63b8ff" points="29.21,-28.72 35.48,-20.18 25.26,-22.95 29.21,-28.72"/>
</g>
<!-- Node3 -->
<g id="node3" class="node">
<title>Node3</title>
<g id="a_node3"><a xlink:href="io_8h.html" target="_top" xlink:title="Definition of I/O ports.">
<polygon fill="white" stroke="#666666" points="264.33,-74 232.33,-74 232.33,-55 264.33,-55 264.33,-74"/>
<text text-anchor="middle" x="248.33" y="-62" font-family="Helvetica,sans-Serif" font-size="10.00">io.h</text>
</a>
</g>
</g>
<!-- Node1&#45;&gt;Node3 -->
<g id="edge2" class="edge">
<title>Node1&#45;&gt;Node3</title>
<path fill="none" stroke="#63b8ff" d="M180.92,-164.51C196.63,-157.16 216.91,-145.32 229.33,-129 238.95,-116.37 243.72,-98.92 246.07,-85.51"/>
<polygon fill="#63b8ff" stroke="#63b8ff" points="249.53,-86.06 247.46,-75.67 242.6,-85.09 249.53,-86.06"/>
</g>
<!-- Node5 -->
<g id="node5" class="node">
<title>Node5</title>
<g id="a_node5"><a xlink:href="vmem_8h.html" target="_top" xlink:title="Data types and functions for VRAM access.">
<polygon fill="white" stroke="#666666" points="219.83,-129 168.83,-129 168.83,-110 219.83,-110 219.83,-129"/>
<text text-anchor="middle" x="194.33" y="-117" font-family="Helvetica,sans-Serif" font-size="10.00">vmem.h</text>
</a>
</g>
</g>
<!-- Node1&#45;&gt;Node5 -->
<g id="edge4" class="edge">
<title>Node1&#45;&gt;Node5</title>
<path fill="none" stroke="#63b8ff" d="M164.28,-164.75C169.04,-157.73 175.89,-147.64 181.85,-138.87"/>
<polygon fill="#63b8ff" stroke="#63b8ff" points="184.68,-140.93 187.41,-130.69 178.89,-137 184.68,-140.93"/>
</g>
<!-- Node6 -->
<g id="node6" class="node">
<title>Node6</title>
<g id="a_node6"><a xlink:href="bios_8h.html" target="_top" xlink:title="C language I/F for MSX BIOS routines.">
<polygon fill="white" stroke="#666666" points="108.33,-129 66.33,-129 66.33,-110 108.33,-110 108.33,-129"/>
<text text-anchor="middle" x="87.33" y="-117" font-family="Helvetica,sans-Serif" font-size="10.00">bios.h</text>
</a>
</g>
</g>
<!-- Node1&#45;&gt;Node6 -->
<g id="edge7" class="edge">
<title>Node1&#45;&gt;Node6</title>
<path fill="none" stroke="#63b8ff" d="M146.29,-164.51C135.92,-156.77 120.73,-145.43 108.36,-136.2"/>
<polygon fill="#63b8ff" stroke="#63b8ff" points="110.52,-133.44 100.41,-130.26 106.33,-139.05 110.52,-133.44"/>
</g>
<!-- Node4 -->
<g id="node4" class="node">
<title>Node4</title>
<g id="a_node4"><a xlink:href="config_8h.html" target="_top" xlink:title="Hack for C Compiler portability.">
<polygon fill="white" stroke="#666666" points="165.33,-19 115.33,-19 115.33,0 165.33,0 165.33,-19"/>
<text text-anchor="middle" x="140.33" y="-7" font-family="Helvetica,sans-Serif" font-size="10.00">config.h</text>
</a>
</g>
</g>
<!-- Node3&#45;&gt;Node4 -->
<g id="edge3" class="edge">
<title>Node3&#45;&gt;Node4</title>
<path fill="none" stroke="#63b8ff" d="M231.93,-55.45C215.12,-47.2 188.67,-34.22 168.5,-24.33"/>
<polygon fill="#63b8ff" stroke="#63b8ff" points="170.21,-21.26 159.69,-20 167.13,-27.55 170.21,-21.26"/>
</g>
<!-- Node5&#45;&gt;Node2 -->
<g id="edge5" class="edge">
<title>Node5&#45;&gt;Node2</title>
<path fill="none" stroke="#63b8ff" d="M195.76,-109.55C197.38,-96.1 198.3,-70.57 185.33,-55 172.73,-39.87 122.98,-26.1 88.04,-18.01"/>
<polygon fill="#63b8ff" stroke="#63b8ff" points="88.83,-14.6 78.31,-15.82 87.3,-21.43 88.83,-14.6"/>
</g>
<!-- Node5&#45;&gt;Node3 -->
<g id="edge6" class="edge">
<title>Node5&#45;&gt;Node3</title>
<path fill="none" stroke="#63b8ff" d="M203.25,-109.75C210.79,-102.35 221.8,-91.54 231.06,-82.45"/>
<polygon fill="#63b8ff" stroke="#63b8ff" points="233.46,-85 238.14,-75.5 228.55,-80.01 233.46,-85"/>
</g>
<!-- Node6&#45;&gt;Node2 -->
<g id="edge8" class="edge">
<title>Node6&#45;&gt;Node2</title>
<path fill="none" stroke="#63b8ff" d="M66.16,-112.94C47.5,-106.8 21.47,-94.9 9.33,-74 -0.36,-57.31 14.7,-39.17 29.6,-26.57"/>
<polygon fill="#63b8ff" stroke="#63b8ff" points="31.72,-29.35 37.44,-20.43 27.4,-23.84 31.72,-29.35"/>
</g>
<!-- Node7 -->
<g id="node7" class="node">
<title>Node7</title>
<g id="a_node7"><a xlink:href="bios__const_8h.html" target="_top" xlink:title="Constant variables in the MSX BIOS ROM.">
<polygon fill="white" stroke="#666666" points="175.83,-74 104.83,-74 104.83,-55 175.83,-55 175.83,-74"/>
<text text-anchor="middle" x="140.33" y="-62" font-family="Helvetica,sans-Serif" font-size="10.00">bios_const.h</text>
</a>
</g>
</g>
<!-- Node6&#45;&gt;Node7 -->
<g id="edge9" class="edge">
<title>Node6&#45;&gt;Node7</title>
<path fill="none" stroke="#63b8ff" d="M96.08,-109.75C103.48,-102.35 114.29,-91.54 123.38,-82.45"/>
<polygon fill="#63b8ff" stroke="#63b8ff" points="125.72,-85.06 130.32,-75.51 120.77,-80.11 125.72,-85.06"/>
</g>
<!-- Node8 -->
<g id="node8" class="node">
<title>Node8</title>
<g id="a_node8"><a xlink:href="bios__entry_8h.html" target="_top" xlink:title="Assembler entry points for MSX BIOS functions.">
<polygon fill="white" stroke="#666666" points="86.33,-74 18.33,-74 18.33,-55 86.33,-55 86.33,-74"/>
<text text-anchor="middle" x="52.33" y="-62" font-family="Helvetica,sans-Serif" font-size="10.00">bios_entry.h</text>
</a>
</g>
</g>
<!-- Node6&#45;&gt;Node8 -->
<g id="edge12" class="edge">
<title>Node6&#45;&gt;Node8</title>
<path fill="none" stroke="#63b8ff" d="M81.55,-109.75C76.92,-102.73 70.26,-92.64 64.47,-83.87"/>
<polygon fill="#63b8ff" stroke="#63b8ff" points="67.5,-82.12 59.07,-75.71 61.66,-85.98 67.5,-82.12"/>
</g>
<!-- Node7&#45;&gt;Node2 -->
<g id="edge10" class="edge">
<title>Node7&#45;&gt;Node2</title>
<path fill="none" stroke="#63b8ff" d="M125.4,-54.51C112.05,-46.47 92.23,-34.53 76.6,-25.11"/>
<polygon fill="#63b8ff" stroke="#63b8ff" points="78.71,-22.3 68.34,-20.14 75.1,-28.3 78.71,-22.3"/>
</g>
<!-- Node7&#45;&gt;Node4 -->
<g id="edge11" class="edge">
<title>Node7&#45;&gt;Node4</title>
<path fill="none" stroke="#63b8ff" d="M140.33,-54.75C140.33,-48.27 140.33,-39.16 140.33,-30.9"/>
<polygon fill="#63b8ff" stroke="#63b8ff" points="143.83,-30.96 140.33,-20.96 136.83,-30.96 143.83,-30.96"/>
</g>
<!-- Node8&#45;&gt;Node2 -->
<g id="edge13" class="edge">
<title>Node8&#45;&gt;Node2</title>
<path fill="none" stroke="#63b8ff" d="M52.33,-54.75C52.33,-48.27 52.33,-39.16 52.33,-30.9"/>
<polygon fill="#63b8ff" stroke="#63b8ff" points="55.83,-30.96 52.33,-20.96 48.83,-30.96 55.83,-30.96"/>
</g>
<!-- Node8&#45;&gt;Node4 -->
<g id="edge14" class="edge">
<title>Node8&#45;&gt;Node4</title>
<path fill="none" stroke="#63b8ff" d="M67.26,-54.51C80.62,-46.47 100.44,-34.53 116.07,-25.11"/>
<polygon fill="#63b8ff" stroke="#63b8ff" points="117.57,-28.3 124.33,-20.14 113.96,-22.3 117.57,-28.3"/>
</g>
</g>
</svg>
