<?xml version="1.0" encoding="UTF-8" standalone="no"?>
<!DOCTYPE svg PUBLIC "-//W3C//DTD SVG 1.1//EN"
 "http://www.w3.org/Graphics/SVG/1.1/DTD/svg11.dtd">
<!-- Generated by graphviz version 3.0.0 (20221109.1736)
 -->
<!-- Title: include/vdp.h Pages: 1 -->
<svg width="611pt" height="252pt"
 viewBox="0.00 0.00 611.45 252.00" xmlns="http://www.w3.org/2000/svg" xmlns:xlink="http://www.w3.org/1999/xlink">
<g id="graph0" class="graph" transform="scale(1 1) rotate(0) translate(4 248)">
<title>include/vdp.h</title>
<!-- Node1 -->
<g id="node1" class="node">
<title>Node1</title>
<g id="a_node1"><a xlink:title="Data types and functions for VDP (Video Display Proccessor) access.">
<polygon fill="#bfbfbf" stroke="black" points="174.5,-224.5 174.5,-243.5 248.5,-243.5 248.5,-224.5 174.5,-224.5"/>
<text text-anchor="middle" x="211.5" y="-231.5" font-family="Helvetica,sans-Serif" font-size="10.00">include/vdp.h</text>
</a>
</g>
</g>
<!-- Node2 -->
<g id="node2" class="node">
<title>Node2</title>
<g id="a_node2"><a xlink:title=" ">
<polygon fill="none" stroke="#bfbfbf" points="0,-168.5 0,-187.5 51,-187.5 51,-168.5 0,-168.5"/>
<text text-anchor="middle" x="25.5" y="-175.5" font-family="Helvetica,sans-Serif" font-size="10.00">assert.h</text>
</a>
</g>
</g>
<!-- Node1&#45;&gt;Node2 -->
<g id="edge1" class="edge">
<title>Node1&#45;&gt;Node2</title>
<path fill="none" stroke="midnightblue" d="M182.03,-224.44C149.21,-214.92 96.18,-199.52 61.07,-189.33"/>
<polygon fill="midnightblue" stroke="midnightblue" points="61.82,-185.9 51.24,-186.47 59.87,-192.62 61.82,-185.9"/>
</g>
<!-- Node3 -->
<g id="node3" class="node">
<title>Node3</title>
<g id="a_node3"><a xlink:title=" ">
<polygon fill="none" stroke="#bfbfbf" points="69.5,-168.5 69.5,-187.5 125.5,-187.5 125.5,-168.5 69.5,-168.5"/>
<text text-anchor="middle" x="97.5" y="-175.5" font-family="Helvetica,sans-Serif" font-size="10.00">stdbool.h</text>
</a>
</g>
</g>
<!-- Node1&#45;&gt;Node3 -->
<g id="edge2" class="edge">
<title>Node1&#45;&gt;Node3</title>
<path fill="none" stroke="midnightblue" d="M193.44,-224.44C174.93,-215.68 145.92,-201.94 124.64,-191.86"/>
<polygon fill="midnightblue" stroke="midnightblue" points="126.01,-188.63 115.48,-187.52 123.02,-194.96 126.01,-188.63"/>
</g>
<!-- Node4 -->
<g id="node4" class="node">
<title>Node4</title>
<g id="a_node4"><a xlink:title=" ">
<polygon fill="none" stroke="#bfbfbf" points="347.5,-0.5 347.5,-19.5 395.5,-19.5 395.5,-0.5 347.5,-0.5"/>
<text text-anchor="middle" x="371.5" y="-7.5" font-family="Helvetica,sans-Serif" font-size="10.00">stdint.h</text>
</a>
</g>
</g>
<!-- Node1&#45;&gt;Node4 -->
<g id="edge3" class="edge">
<title>Node1&#45;&gt;Node4</title>
<path fill="none" stroke="midnightblue" d="M207.39,-224.28C203.44,-215.38 197.76,-201.07 195.5,-188 192.21,-168.93 196.23,-119.84 199.5,-112 212.23,-81.48 221.23,-74.71 248.5,-56 275.65,-37.37 311.43,-25.42 337.4,-18.55"/>
<polygon fill="midnightblue" stroke="midnightblue" points="338.34,-21.93 347.18,-16.08 336.62,-15.14 338.34,-21.93"/>
</g>
<!-- Node5 -->
<g id="node5" class="node">
<title>Node5</title>
<g id="a_node5"><a xlink:href="io_8h.html" target="_top" xlink:title="Definition of I/O ports.">
<polygon fill="none" stroke="black" points="273.5,-56.5 273.5,-75.5 305.5,-75.5 305.5,-56.5 273.5,-56.5"/>
<text text-anchor="middle" x="289.5" y="-63.5" font-family="Helvetica,sans-Serif" font-size="10.00">io.h</text>
</a>
</g>
</g>
<!-- Node1&#45;&gt;Node5 -->
<g id="edge4" class="edge">
<title>Node1&#45;&gt;Node5</title>
<path fill="none" stroke="midnightblue" d="M208.76,-224.34C202.67,-203.38 190.17,-148.93 211.5,-112 222.6,-92.79 245.37,-81.04 263.45,-74.4"/>
<polygon fill="midnightblue" stroke="midnightblue" points="264.81,-77.63 273.18,-71.13 262.58,-71 264.81,-77.63"/>
</g>
<!-- Node7 -->
<g id="node7" class="node">
<title>Node7</title>
<g id="a_node7"><a xlink:href="vmem_8h.html" target="_top" xlink:title="Data types and functions for VRAM access.">
<polygon fill="none" stroke="black" points="220,-112.5 220,-131.5 271,-131.5 271,-112.5 220,-112.5"/>
<text text-anchor="middle" x="245.5" y="-119.5" font-family="Helvetica,sans-Serif" font-size="10.00">vmem.h</text>
</a>
</g>
</g>
<!-- Node1&#45;&gt;Node7 -->
<g id="edge6" class="edge">
<title>Node1&#45;&gt;Node7</title>
<path fill="none" stroke="midnightblue" d="M214.17,-224.37C219.68,-206.54 232.43,-165.3 239.85,-141.27"/>
<polygon fill="midnightblue" stroke="midnightblue" points="243.24,-142.18 242.84,-131.59 236.55,-140.11 243.24,-142.18"/>
</g>
<!-- Node8 -->
<g id="node8" class="node">
<title>Node8</title>
<g id="a_node8"><a xlink:href="vdp__unsafe_8h.html" target="_top" xlink:title="Unsafe primitive functions for VDP (Video Display Proccessor) access.">
<polygon fill="none" stroke="black" points="262.5,-168.5 262.5,-187.5 336.5,-187.5 336.5,-168.5 262.5,-168.5"/>
<text text-anchor="middle" x="299.5" y="-175.5" font-family="Helvetica,sans-Serif" font-size="10.00">vdp_unsafe.h</text>
</a>
</g>
</g>
<!-- Node1&#45;&gt;Node8 -->
<g id="edge9" class="edge">
<title>Node1&#45;&gt;Node8</title>
<path fill="none" stroke="midnightblue" d="M225.64,-224.32C239.37,-215.9 260.44,-202.97 276.56,-193.07"/>
<polygon fill="midnightblue" stroke="midnightblue" points="278.7,-195.87 285.4,-187.65 275.04,-189.9 278.7,-195.87"/>
</g>
<!-- Node9 -->
<g id="node9" class="node">
<title>Node9</title>
<g id="a_node9"><a xlink:href="bios_8h.html" target="_top" xlink:title="C language I/F for MSX BIOS routines.">
<polygon fill="none" stroke="black" points="365.5,-112.5 365.5,-131.5 407.5,-131.5 407.5,-112.5 365.5,-112.5"/>
<text text-anchor="middle" x="386.5" y="-119.5" font-family="Helvetica,sans-Serif" font-size="10.00">bios.h</text>
</a>
</g>
</g>
<!-- Node1&#45;&gt;Node9 -->
<g id="edge21" class="edge">
<title>Node1&#45;&gt;Node9</title>
<path fill="none" stroke="midnightblue" d="M248.56,-227.54C277.43,-221.74 317.23,-210.21 345.5,-188 361.03,-175.79 372.31,-155.96 379.06,-141.41"/>
<polygon fill="midnightblue" stroke="midnightblue" points="382.41,-142.5 383.18,-131.93 375.99,-139.71 382.41,-142.5"/>
</g>
<!-- Node12 -->
<g id="node12" class="node">
<title>Node12</title>
<g id="a_node12"><a xlink:href="workarea_8h.html" target="_top" xlink:title="Definitions of MSX SYSTEM Workarea.">
<polygon fill="none" stroke="black" points="521.5,-112.5 521.5,-131.5 585.5,-131.5 585.5,-112.5 521.5,-112.5"/>
<text text-anchor="middle" x="553.5" y="-119.5" font-family="Helvetica,sans-Serif" font-size="10.00">workarea.h</text>
</a>
</g>
</g>
<!-- Node1&#45;&gt;Node12 -->
<g id="edge22" class="edge">
<title>Node1&#45;&gt;Node12</title>
<path fill="none" stroke="midnightblue" d="M243.24,-224.49C275.07,-215.82 325.41,-201.73 368.5,-188 422.31,-170.85 484.07,-148.63 520.88,-135.11"/>
<polygon fill="midnightblue" stroke="midnightblue" points="522.4,-138.28 530.57,-131.54 519.98,-131.72 522.4,-138.28"/>
</g>
<!-- Node6 -->
<g id="node6" class="node">
<title>Node6</title>
<g id="a_node6"><a xlink:href="config_8h.html" target="_top" xlink:title="Hack for C Compiler portability.">
<polygon fill="none" stroke="black" points="454.5,-0.5 454.5,-19.5 504.5,-19.5 504.5,-0.5 454.5,-0.5"/>
<text text-anchor="middle" x="479.5" y="-7.5" font-family="Helvetica,sans-Serif" font-size="10.00">config.h</text>
</a>
</g>
</g>
<!-- Node5&#45;&gt;Node6 -->
<g id="edge5" class="edge">
<title>Node5&#45;&gt;Node6</title>
<path fill="none" stroke="midnightblue" d="M305.7,-60.4C336.37,-51.68 403.55,-32.58 444.83,-20.85"/>
<polygon fill="midnightblue" stroke="midnightblue" points="445.81,-24.21 454.47,-18.11 443.9,-17.48 445.81,-24.21"/>
</g>
<!-- Node7&#45;&gt;Node4 -->
<g id="edge7" class="edge">
<title>Node7&#45;&gt;Node4</title>
<path fill="none" stroke="midnightblue" d="M245.75,-112.3C246.58,-98.66 250.1,-72.14 264.5,-56 283.32,-34.91 313.63,-23.42 337.2,-17.35"/>
<polygon fill="midnightblue" stroke="midnightblue" points="338.23,-20.7 347.16,-14.99 336.62,-13.89 338.23,-20.7"/>
</g>
<!-- Node7&#45;&gt;Node5 -->
<g id="edge8" class="edge">
<title>Node7&#45;&gt;Node5</title>
<path fill="none" stroke="midnightblue" d="M252.77,-112.08C259.04,-104.38 268.29,-93.03 275.93,-83.65"/>
<polygon fill="midnightblue" stroke="midnightblue" points="278.77,-85.71 282.37,-75.75 273.34,-81.29 278.77,-85.71"/>
</g>
<!-- Node8&#45;&gt;Node4 -->
<g id="edge10" class="edge">
<title>Node8&#45;&gt;Node4</title>
<path fill="none" stroke="midnightblue" d="M303.37,-168.08C314.75,-141.83 348.28,-64.55 363.64,-29.12"/>
<polygon fill="midnightblue" stroke="midnightblue" points="367.02,-30.14 367.78,-19.57 360.59,-27.35 367.02,-30.14"/>
</g>
<!-- Node8&#45;&gt;Node5 -->
<g id="edge11" class="edge">
<title>Node8&#45;&gt;Node5</title>
<path fill="none" stroke="midnightblue" d="M298.72,-168.37C297.1,-150.62 293.38,-109.67 291.19,-85.6"/>
<polygon fill="midnightblue" stroke="midnightblue" points="294.67,-85.23 290.28,-75.59 287.7,-85.87 294.67,-85.23"/>
</g>
<!-- Node8&#45;&gt;Node7 -->
<g id="edge12" class="edge">
<title>Node8&#45;&gt;Node7</title>
<path fill="none" stroke="midnightblue" d="M290.58,-168.08C282.72,-160.22 271.07,-148.57 261.58,-139.08"/>
<polygon fill="midnightblue" stroke="midnightblue" points="263.8,-136.35 254.25,-131.75 258.85,-141.3 263.8,-136.35"/>
</g>
<!-- Node8&#45;&gt;Node9 -->
<g id="edge13" class="edge">
<title>Node8&#45;&gt;Node9</title>
<path fill="none" stroke="midnightblue" d="M313.48,-168.32C327.05,-159.9 347.88,-146.97 363.82,-137.07"/>
<polygon fill="midnightblue" stroke="midnightblue" points="365.91,-139.9 372.56,-131.65 362.21,-133.95 365.91,-139.9"/>
</g>
<!-- Node9&#45;&gt;Node4 -->
<g id="edge14" class="edge">
<title>Node9&#45;&gt;Node4</title>
<path fill="none" stroke="midnightblue" d="M385.32,-112.37C382.9,-94.62 377.32,-53.67 374.04,-29.6"/>
<polygon fill="midnightblue" stroke="midnightblue" points="377.49,-29.03 372.67,-19.59 370.55,-29.97 377.49,-29.03"/>
</g>
<!-- Node10 -->
<g id="node10" class="node">
<title>Node10</title>
<g id="a_node10"><a xlink:href="bios__const_8h.html" target="_top" xlink:title="Constant variables in the MSX BIOS ROM.">
<polygon fill="none" stroke="black" points="486,-56.5 486,-75.5 557,-75.5 557,-56.5 486,-56.5"/>
<text text-anchor="middle" x="521.5" y="-63.5" font-family="Helvetica,sans-Serif" font-size="10.00">bios_const.h</text>
</a>
</g>
</g>
<!-- Node9&#45;&gt;Node10 -->
<g id="edge15" class="edge">
<title>Node9&#45;&gt;Node10</title>
<path fill="none" stroke="midnightblue" d="M407.59,-112.56C429.85,-103.66 465.16,-89.54 490.57,-79.37"/>
<polygon fill="midnightblue" stroke="midnightblue" points="492.12,-82.52 500.11,-75.56 489.52,-76.02 492.12,-82.52"/>
</g>
<!-- Node11 -->
<g id="node11" class="node">
<title>Node11</title>
<g id="a_node11"><a xlink:href="bios__entry_8h.html" target="_top" xlink:title="Assembler entry points for MSX BIOS functions.">
<polygon fill="none" stroke="black" points="399.5,-56.5 399.5,-75.5 467.5,-75.5 467.5,-56.5 399.5,-56.5"/>
<text text-anchor="middle" x="433.5" y="-63.5" font-family="Helvetica,sans-Serif" font-size="10.00">bios_entry.h</text>
</a>
</g>
</g>
<!-- Node9&#45;&gt;Node11 -->
<g id="edge18" class="edge">
<title>Node9&#45;&gt;Node11</title>
<path fill="none" stroke="midnightblue" d="M394.26,-112.08C401.04,-104.3 411.04,-92.8 419.26,-83.37"/>
<polygon fill="midnightblue" stroke="midnightblue" points="421.96,-85.59 425.88,-75.75 416.68,-81 421.96,-85.59"/>
</g>
<!-- Node10&#45;&gt;Node4 -->
<g id="edge16" class="edge">
<title>Node10&#45;&gt;Node4</title>
<path fill="none" stroke="midnightblue" d="M497.73,-56.44C472.61,-47.4 432.79,-33.06 404.6,-22.92"/>
<polygon fill="midnightblue" stroke="midnightblue" points="405.75,-19.61 395.16,-19.52 403.38,-26.2 405.75,-19.61"/>
</g>
<!-- Node10&#45;&gt;Node6 -->
<g id="edge17" class="edge">
<title>Node10&#45;&gt;Node6</title>
<path fill="none" stroke="midnightblue" d="M514.56,-56.08C508.57,-48.38 499.75,-37.03 492.45,-27.65"/>
<polygon fill="midnightblue" stroke="midnightblue" points="495.21,-25.5 486.31,-19.75 489.68,-29.79 495.21,-25.5"/>
</g>
<!-- Node11&#45;&gt;Node4 -->
<g id="edge19" class="edge">
<title>Node11&#45;&gt;Node4</title>
<path fill="none" stroke="midnightblue" d="M423.54,-56.32C414.37,-48.34 400.56,-36.31 389.47,-26.65"/>
<polygon fill="midnightblue" stroke="midnightblue" points="391.48,-23.76 381.64,-19.83 386.88,-29.04 391.48,-23.76"/>
</g>
<!-- Node11&#45;&gt;Node6 -->
<g id="edge20" class="edge">
<title>Node11&#45;&gt;Node6</title>
<path fill="none" stroke="midnightblue" d="M441.1,-56.08C447.73,-48.3 457.52,-36.8 465.56,-27.37"/>
<polygon fill="midnightblue" stroke="midnightblue" points="468.23,-29.63 472.05,-19.75 462.9,-25.09 468.23,-29.63"/>
</g>
<!-- Node12&#45;&gt;Node4 -->
<g id="edge23" class="edge">
<title>Node12&#45;&gt;Node4</title>
<path fill="none" stroke="midnightblue" d="M559.13,-112.4C567.2,-98.9 579.68,-72.57 566.5,-56 556.49,-43.41 458.95,-25.49 405.73,-16.54"/>
<polygon fill="midnightblue" stroke="midnightblue" points="406.16,-13.06 395.72,-14.87 405.01,-19.97 406.16,-13.06"/>
</g>
<!-- Node12&#45;&gt;Node6 -->
<g id="edge24" class="edge">
<title>Node12&#45;&gt;Node6</title>
<path fill="none" stroke="midnightblue" d="M567.31,-112.42C585.49,-100.01 613.6,-76.34 599.5,-56 580.62,-28.76 543.08,-17.98 514.99,-13.73"/>
<polygon fill="midnightblue" stroke="midnightblue" points="515.11,-10.22 504.74,-12.41 514.21,-17.16 515.11,-10.22"/>
</g>
<!-- Node12&#45;&gt;Node10 -->
<g id="edge25" class="edge">
<title>Node12&#45;&gt;Node10</title>
<path fill="none" stroke="midnightblue" d="M548.22,-112.08C543.79,-104.61 537.34,-93.72 531.88,-84.52"/>
<polygon fill="midnightblue" stroke="midnightblue" points="534.79,-82.57 526.69,-75.75 528.77,-86.14 534.79,-82.57"/>
</g>
</g>
</svg>
