<?xml version="1.0" encoding="UTF-8" standalone="no"?>
<!DOCTYPE svg PUBLIC "-//W3C//DTD SVG 1.1//EN"
 "http://www.w3.org/Graphics/SVG/1.1/DTD/svg11.dtd">
<!-- Generated by graphviz version 7.0.5 (20221223.1930)
 -->
<!-- Title: include/vdp_unsafe.h Pages: 1 -->
<svg width="320pt" height="247pt"
 viewBox="0.00 0.00 319.65 247.00" xmlns="http://www.w3.org/2000/svg" xmlns:xlink="http://www.w3.org/1999/xlink">
<g id="graph0" class="graph" transform="scale(1 1) rotate(0) translate(4 243)">
<title>include/vdp_unsafe.h</title>
<!-- Node1 -->
<g id="node1" class="node">
<title>Node1</title>
<g id="a_node1"><a xlink:title="Unsafe primitive functions for VDP (Video Display Proccessor) access.">
<polygon fill="#999999" stroke="#666666" points="189.8,-239 81.8,-239 81.8,-220 189.8,-220 189.8,-239"/>
<text text-anchor="middle" x="135.8" y="-227" font-family="Helvetica,sans-Serif" font-size="10.00">include/vdp_unsafe.h</text>
</a>
</g>
</g>
<!-- Node2 -->
<g id="node2" class="node">
<title>Node2</title>
<g id="a_node2"><a xlink:title=" ">
<polygon fill="#e0e0e0" stroke="#999999" points="97.8,-19 49.8,-19 49.8,0 97.8,0 97.8,-19"/>
<text text-anchor="middle" x="73.8" y="-7" font-family="Helvetica,sans-Serif" font-size="10.00">stdint.h</text>
</a>
</g>
</g>
<!-- Node1&#45;&gt;Node2 -->
<g id="edge1" class="edge">
<title>Node1&#45;&gt;Node2</title>
<path fill="none" stroke="#63b8ff" d="M111.29,-219.59C78.34,-206 21.72,-176.56 2.8,-129 -4.38,-110.96 4.11,-67.39 11.8,-55 19.6,-42.42 32.4,-32.35 44.35,-24.99"/>
<polygon fill="#63b8ff" stroke="#63b8ff" points="45.79,-28.19 52.74,-20.2 42.32,-22.11 45.79,-28.19"/>
</g>
<!-- Node3 -->
<g id="node3" class="node">
<title>Node3</title>
<g id="a_node3"><a xlink:href="io_8h.html" target="_top" xlink:title="Definition of I/O ports.">
<polygon fill="white" stroke="#666666" points="228.8,-129 196.8,-129 196.8,-110 228.8,-110 228.8,-129"/>
<text text-anchor="middle" x="212.8" y="-117" font-family="Helvetica,sans-Serif" font-size="10.00">io.h</text>
</a>
</g>
</g>
<!-- Node1&#45;&gt;Node3 -->
<g id="edge2" class="edge">
<title>Node1&#45;&gt;Node3</title>
<path fill="none" stroke="#63b8ff" d="M142.1,-219.66C154.67,-202.02 183.12,-162.12 199.84,-138.67"/>
<polygon fill="#63b8ff" stroke="#63b8ff" points="202.57,-140.87 205.53,-130.69 196.87,-136.8 202.57,-140.87"/>
</g>
<!-- Node5 -->
<g id="node5" class="node">
<title>Node5</title>
<g id="a_node5"><a xlink:href="vmem_8h.html" target="_top" xlink:title="Data types and functions for VRAM access.">
<polygon fill="white" stroke="#666666" points="268.3,-184 217.3,-184 217.3,-165 268.3,-165 268.3,-184"/>
<text text-anchor="middle" x="242.8" y="-172" font-family="Helvetica,sans-Serif" font-size="10.00">vmem.h</text>
</a>
</g>
</g>
<!-- Node1&#45;&gt;Node5 -->
<g id="edge5" class="edge">
<title>Node1&#45;&gt;Node5</title>
<path fill="none" stroke="#63b8ff" d="M153.95,-219.51C170.57,-211.27 195.44,-198.96 214.64,-189.45"/>
<polygon fill="#63b8ff" stroke="#63b8ff" points="216.15,-192.6 223.56,-185.03 213.04,-186.33 216.15,-192.6"/>
</g>
<!-- Node7 -->
<g id="node7" class="node">
<title>Node7</title>
<g id="a_node7"><a xlink:href="bios_8h.html" target="_top" xlink:title="C language I/F for MSX BIOS routines.">
<polygon fill="white" stroke="#666666" points="105.8,-184 63.8,-184 63.8,-165 105.8,-165 105.8,-184"/>
<text text-anchor="middle" x="84.8" y="-172" font-family="Helvetica,sans-Serif" font-size="10.00">bios.h</text>
</a>
</g>
</g>
<!-- Node1&#45;&gt;Node7 -->
<g id="edge9" class="edge">
<title>Node1&#45;&gt;Node7</title>
<path fill="none" stroke="#63b8ff" d="M127.37,-219.75C120.33,-212.43 110.07,-201.76 101.38,-192.74"/>
<polygon fill="#63b8ff" stroke="#63b8ff" points="103.91,-190.31 94.45,-185.53 98.86,-195.17 103.91,-190.31"/>
</g>
<!-- Node4 -->
<g id="node4" class="node">
<title>Node4</title>
<g id="a_node4"><a xlink:href="config_8h.html" target="_top" xlink:title="Hack for C Compiler portability.">
<polygon fill="white" stroke="#666666" points="125.8,-74 75.8,-74 75.8,-55 125.8,-55 125.8,-74"/>
<text text-anchor="middle" x="100.8" y="-62" font-family="Helvetica,sans-Serif" font-size="10.00">config.h</text>
</a>
</g>
</g>
<!-- Node3&#45;&gt;Node4 -->
<g id="edge3" class="edge">
<title>Node3&#45;&gt;Node4</title>
<path fill="none" stroke="#63b8ff" d="M196.75,-110.91C179.36,-102.68 151.26,-89.38 129.95,-79.29"/>
<polygon fill="#63b8ff" stroke="#63b8ff" points="131.71,-76.26 121.18,-75.15 128.72,-82.59 131.71,-76.26"/>
</g>
<!-- Node4&#45;&gt;Node2 -->
<g id="edge4" class="edge">
<title>Node4&#45;&gt;Node2</title>
<path fill="none" stroke="#63b8ff" d="M96.34,-54.75C92.84,-47.88 87.85,-38.08 83.45,-29.45"/>
<polygon fill="#63b8ff" stroke="#63b8ff" points="86.7,-28.11 79.04,-20.79 80.46,-31.29 86.7,-28.11"/>
</g>
<!-- Node5&#45;&gt;Node2 -->
<g id="edge6" class="edge">
<title>Node5&#45;&gt;Node2</title>
<path fill="none" stroke="#63b8ff" d="M264.46,-164.59C288.68,-153.27 322.68,-132.5 307.8,-110 263.31,-42.74 163.15,-20.8 109.43,-13.76"/>
<polygon fill="#63b8ff" stroke="#63b8ff" points="109.93,-10.29 99.59,-12.58 109.1,-17.24 109.93,-10.29"/>
</g>
<!-- Node5&#45;&gt;Node3 -->
<g id="edge8" class="edge">
<title>Node5&#45;&gt;Node3</title>
<path fill="none" stroke="#63b8ff" d="M237.84,-164.75C233.96,-157.88 228.41,-148.08 223.52,-139.45"/>
<polygon fill="#63b8ff" stroke="#63b8ff" points="226.57,-137.74 218.6,-130.76 220.48,-141.19 226.57,-137.74"/>
</g>
<!-- Node6 -->
<g id="node6" class="node">
<title>Node6</title>
<g id="a_node6"><a xlink:title=" ">
<polygon fill="#e0e0e0" stroke="#999999" points="298.3,-129 247.3,-129 247.3,-110 298.3,-110 298.3,-129"/>
<text text-anchor="middle" x="272.8" y="-117" font-family="Helvetica,sans-Serif" font-size="10.00">stddef.h</text>
</a>
</g>
</g>
<!-- Node5&#45;&gt;Node6 -->
<g id="edge7" class="edge">
<title>Node5&#45;&gt;Node6</title>
<path fill="none" stroke="#63b8ff" d="M247.75,-164.75C251.63,-157.88 257.18,-148.08 262.07,-139.45"/>
<polygon fill="#63b8ff" stroke="#63b8ff" points="265.11,-141.19 266.99,-130.76 259.02,-137.74 265.11,-141.19"/>
</g>
<!-- Node7&#45;&gt;Node2 -->
<g id="edge10" class="edge">
<title>Node7&#45;&gt;Node2</title>
<path fill="none" stroke="#63b8ff" d="M63.57,-167.05C46.2,-160.51 22.77,-148.54 11.8,-129 -8.46,-92.94 29.49,-49.69 54.45,-26.71"/>
<polygon fill="#63b8ff" stroke="#63b8ff" points="56.62,-29.47 61.8,-20.22 51.99,-24.22 56.62,-29.47"/>
</g>
<!-- Node8 -->
<g id="node8" class="node">
<title>Node8</title>
<g id="a_node8"><a xlink:href="bios__const_8h.html" target="_top" xlink:title="Constant variables in the MSX BIOS ROM.">
<polygon fill="white" stroke="#666666" points="92.3,-129 21.3,-129 21.3,-110 92.3,-110 92.3,-129"/>
<text text-anchor="middle" x="56.8" y="-117" font-family="Helvetica,sans-Serif" font-size="10.00">bios_const.h</text>
</a>
</g>
</g>
<!-- Node7&#45;&gt;Node8 -->
<g id="edge11" class="edge">
<title>Node7&#45;&gt;Node8</title>
<path fill="none" stroke="#63b8ff" d="M80.17,-164.75C76.55,-157.88 71.37,-148.08 66.8,-139.45"/>
<polygon fill="#63b8ff" stroke="#63b8ff" points="69.99,-137.99 62.23,-130.78 63.8,-141.26 69.99,-137.99"/>
</g>
<!-- Node9 -->
<g id="node9" class="node">
<title>Node9</title>
<g id="a_node9"><a xlink:href="bios__entry_8h.html" target="_top" xlink:title="Assembler entry points for MSX BIOS functions.">
<polygon fill="white" stroke="#666666" points="178.8,-129 110.8,-129 110.8,-110 178.8,-110 178.8,-129"/>
<text text-anchor="middle" x="144.8" y="-117" font-family="Helvetica,sans-Serif" font-size="10.00">bios_entry.h</text>
</a>
</g>
</g>
<!-- Node7&#45;&gt;Node9 -->
<g id="edge14" class="edge">
<title>Node7&#45;&gt;Node9</title>
<path fill="none" stroke="#63b8ff" d="M94.97,-164.51C103.56,-156.93 116.06,-145.88 126.4,-136.75"/>
<polygon fill="#63b8ff" stroke="#63b8ff" points="128.46,-139.6 133.63,-130.36 123.82,-134.36 128.46,-139.6"/>
</g>
<!-- Node8&#45;&gt;Node2 -->
<g id="edge12" class="edge">
<title>Node8&#45;&gt;Node2</title>
<path fill="none" stroke="#63b8ff" d="M58.19,-109.66C60.89,-92.5 66.91,-54.26 70.63,-30.6"/>
<polygon fill="#63b8ff" stroke="#63b8ff" points="74.05,-31.38 72.15,-20.96 67.14,-30.29 74.05,-31.38"/>
</g>
<!-- Node8&#45;&gt;Node4 -->
<g id="edge13" class="edge">
<title>Node8&#45;&gt;Node4</title>
<path fill="none" stroke="#63b8ff" d="M64.06,-109.75C70.08,-102.5 78.81,-91.98 86.25,-83.02"/>
<polygon fill="#63b8ff" stroke="#63b8ff" points="88.71,-85.54 92.41,-75.61 83.32,-81.07 88.71,-85.54"/>
</g>
<!-- Node9&#45;&gt;Node2 -->
<g id="edge15" class="edge">
<title>Node9&#45;&gt;Node2</title>
<path fill="none" stroke="#63b8ff" d="M145.44,-109.57C145.96,-96.57 145.27,-72.14 134.8,-55 127.11,-42.41 114.4,-32.3 102.56,-24.91"/>
<polygon fill="#63b8ff" stroke="#63b8ff" points="104.67,-22.09 94.27,-20.11 101.17,-28.15 104.67,-22.09"/>
</g>
<!-- Node9&#45;&gt;Node4 -->
<g id="edge16" class="edge">
<title>Node9&#45;&gt;Node4</title>
<path fill="none" stroke="#63b8ff" d="M137.53,-109.75C131.52,-102.5 122.78,-91.98 115.34,-83.02"/>
<polygon fill="#63b8ff" stroke="#63b8ff" points="118.27,-81.07 109.19,-75.61 112.88,-85.54 118.27,-81.07"/>
</g>
</g>
</svg>
