<?xml version="1.0" encoding="UTF-8" standalone="no"?>
<!DOCTYPE svg PUBLIC "-//W3C//DTD SVG 1.1//EN"
 "http://www.w3.org/Graphics/SVG/1.1/DTD/svg11.dtd">
<!-- Generated by graphviz version 3.0.0 (20221109.1736)
 -->
<!-- Title: include/vdp_unsafe.h Pages: 1 -->
<svg width="272pt" height="196pt"
 viewBox="0.00 0.00 272.37 196.00" xmlns="http://www.w3.org/2000/svg" xmlns:xlink="http://www.w3.org/1999/xlink">
<g id="graph0" class="graph" transform="scale(1 1) rotate(0) translate(4 192)">
<title>include/vdp_unsafe.h</title>
<!-- Node1 -->
<g id="node1" class="node">
<title>Node1</title>
<g id="a_node1"><a xlink:title="Unsafe primitive functions for VDP (Video Display Proccessor) access.">
<polygon fill="#bfbfbf" stroke="black" points="104.37,-168.5 104.37,-187.5 212.37,-187.5 212.37,-168.5 104.37,-168.5"/>
<text text-anchor="middle" x="158.37" y="-175.5" font-family="Helvetica,sans-Serif" font-size="10.00">include/vdp_unsafe.h</text>
</a>
</g>
</g>
<!-- Node2 -->
<g id="node2" class="node">
<title>Node2</title>
<g id="a_node2"><a xlink:title=" ">
<polygon fill="none" stroke="#bfbfbf" points="28.37,-0.5 28.37,-19.5 76.37,-19.5 76.37,-0.5 28.37,-0.5"/>
<text text-anchor="middle" x="52.37" y="-7.5" font-family="Helvetica,sans-Serif" font-size="10.00">stdint.h</text>
</a>
</g>
</g>
<!-- Node1&#45;&gt;Node2 -->
<g id="edge1" class="edge">
<title>Node1&#45;&gt;Node2</title>
<path fill="none" stroke="midnightblue" d="M126.81,-168.44C87.68,-155.79 23.56,-127.81 2.37,-76 -5.62,-56.47 12.39,-37.78 28.98,-25.49"/>
<polygon fill="midnightblue" stroke="midnightblue" points="31.15,-28.25 37.38,-19.68 27.16,-22.49 31.15,-28.25"/>
</g>
<!-- Node3 -->
<g id="node3" class="node">
<title>Node3</title>
<g id="a_node3"><a xlink:href="io_8h.html" target="_top" xlink:title="Definition of I/O ports.">
<polygon fill="none" stroke="black" points="232.37,-56.5 232.37,-75.5 264.37,-75.5 264.37,-56.5 232.37,-56.5"/>
<text text-anchor="middle" x="248.37" y="-63.5" font-family="Helvetica,sans-Serif" font-size="10.00">io.h</text>
</a>
</g>
</g>
<!-- Node1&#45;&gt;Node3 -->
<g id="edge2" class="edge">
<title>Node1&#45;&gt;Node3</title>
<path fill="none" stroke="midnightblue" d="M179.66,-168.49C195.56,-161.1 216.64,-148.91 229.37,-132 239.42,-118.64 244.17,-100.07 246.4,-86.2"/>
<polygon fill="midnightblue" stroke="midnightblue" points="249.93,-86.24 247.75,-75.87 242.98,-85.33 249.93,-86.24"/>
</g>
<!-- Node5 -->
<g id="node5" class="node">
<title>Node5</title>
<g id="a_node5"><a xlink:href="vmem_8h.html" target="_top" xlink:title="Data types and functions for VRAM access.">
<polygon fill="none" stroke="black" points="168.87,-112.5 168.87,-131.5 219.87,-131.5 219.87,-112.5 168.87,-112.5"/>
<text text-anchor="middle" x="194.37" y="-119.5" font-family="Helvetica,sans-Serif" font-size="10.00">vmem.h</text>
</a>
</g>
</g>
<!-- Node1&#45;&gt;Node5 -->
<g id="edge4" class="edge">
<title>Node1&#45;&gt;Node5</title>
<path fill="none" stroke="midnightblue" d="M164.31,-168.08C169.35,-160.53 176.7,-149.49 182.88,-140.23"/>
<polygon fill="midnightblue" stroke="midnightblue" points="185.9,-142.01 188.53,-131.75 180.07,-138.13 185.9,-142.01"/>
</g>
<!-- Node6 -->
<g id="node6" class="node">
<title>Node6</title>
<g id="a_node6"><a xlink:href="bios_8h.html" target="_top" xlink:title="C language I/F for MSX BIOS routines.">
<polygon fill="none" stroke="black" points="66.37,-112.5 66.37,-131.5 108.37,-131.5 108.37,-112.5 66.37,-112.5"/>
<text text-anchor="middle" x="87.37" y="-119.5" font-family="Helvetica,sans-Serif" font-size="10.00">bios.h</text>
</a>
</g>
</g>
<!-- Node1&#45;&gt;Node6 -->
<g id="edge7" class="edge">
<title>Node1&#45;&gt;Node6</title>
<path fill="none" stroke="midnightblue" d="M146.96,-168.32C136.26,-160.18 120.03,-147.84 107.21,-138.09"/>
<polygon fill="midnightblue" stroke="midnightblue" points="109.06,-135.1 98.98,-131.83 104.82,-140.67 109.06,-135.1"/>
</g>
<!-- Node4 -->
<g id="node4" class="node">
<title>Node4</title>
<g id="a_node4"><a xlink:href="config_8h.html" target="_top" xlink:title="Hack for C Compiler portability.">
<polygon fill="none" stroke="black" points="115.37,-0.5 115.37,-19.5 165.37,-19.5 165.37,-0.5 115.37,-0.5"/>
<text text-anchor="middle" x="140.37" y="-7.5" font-family="Helvetica,sans-Serif" font-size="10.00">config.h</text>
</a>
</g>
</g>
<!-- Node3&#45;&gt;Node4 -->
<g id="edge3" class="edge">
<title>Node3&#45;&gt;Node4</title>
<path fill="none" stroke="midnightblue" d="M231.97,-56.8C214.64,-48.14 187.08,-34.36 166.71,-24.17"/>
<polygon fill="midnightblue" stroke="midnightblue" points="168.15,-20.98 157.64,-19.64 165.02,-27.24 168.15,-20.98"/>
</g>
<!-- Node5&#45;&gt;Node2 -->
<g id="edge5" class="edge">
<title>Node5&#45;&gt;Node2</title>
<path fill="none" stroke="midnightblue" d="M195.8,-112.3C197.53,-98.66 198.73,-72.15 185.37,-56 172.61,-40.57 121.45,-26.41 86.44,-18.25"/>
<polygon fill="midnightblue" stroke="midnightblue" points="87.12,-14.81 76.59,-16.01 85.57,-21.64 87.12,-14.81"/>
</g>
<!-- Node5&#45;&gt;Node3 -->
<g id="edge6" class="edge">
<title>Node5&#45;&gt;Node3</title>
<path fill="none" stroke="midnightblue" d="M203.28,-112.08C211.15,-104.22 222.8,-92.57 232.29,-83.08"/>
<polygon fill="midnightblue" stroke="midnightblue" points="235.02,-85.3 239.62,-75.75 230.07,-80.35 235.02,-85.3"/>
</g>
<!-- Node6&#45;&gt;Node2 -->
<g id="edge8" class="edge">
<title>Node6&#45;&gt;Node2</title>
<path fill="none" stroke="midnightblue" d="M66.18,-115.31C47.53,-109.05 21.49,-96.98 9.37,-76 -0.8,-58.4 15.77,-39.08 31.19,-26.12"/>
<polygon fill="midnightblue" stroke="midnightblue" points="33.77,-28.55 39.47,-19.62 29.44,-23.04 33.77,-28.55"/>
</g>
<!-- Node7 -->
<g id="node7" class="node">
<title>Node7</title>
<g id="a_node7"><a xlink:href="bios__const_8h.html" target="_top" xlink:title="Constant variables in the MSX BIOS ROM.">
<polygon fill="none" stroke="black" points="104.87,-56.5 104.87,-75.5 175.87,-75.5 175.87,-56.5 104.87,-56.5"/>
<text text-anchor="middle" x="140.37" y="-63.5" font-family="Helvetica,sans-Serif" font-size="10.00">bios_const.h</text>
</a>
</g>
</g>
<!-- Node6&#45;&gt;Node7 -->
<g id="edge9" class="edge">
<title>Node6&#45;&gt;Node7</title>
<path fill="none" stroke="midnightblue" d="M96.12,-112.08C103.84,-104.22 115.27,-92.57 124.58,-83.08"/>
<polygon fill="midnightblue" stroke="midnightblue" points="127.27,-85.34 131.78,-75.75 122.28,-80.44 127.27,-85.34"/>
</g>
<!-- Node8 -->
<g id="node8" class="node">
<title>Node8</title>
<g id="a_node8"><a xlink:href="bios__entry_8h.html" target="_top" xlink:title="Assembler entry points for MSX BIOS functions.">
<polygon fill="none" stroke="black" points="18.37,-56.5 18.37,-75.5 86.37,-75.5 86.37,-56.5 18.37,-56.5"/>
<text text-anchor="middle" x="52.37" y="-63.5" font-family="Helvetica,sans-Serif" font-size="10.00">bios_entry.h</text>
</a>
</g>
</g>
<!-- Node6&#45;&gt;Node8 -->
<g id="edge12" class="edge">
<title>Node6&#45;&gt;Node8</title>
<path fill="none" stroke="midnightblue" d="M81.59,-112.08C76.7,-104.53 69.54,-93.49 63.54,-84.23"/>
<polygon fill="midnightblue" stroke="midnightblue" points="66.42,-82.24 58.04,-75.75 60.54,-86.05 66.42,-82.24"/>
</g>
<!-- Node7&#45;&gt;Node2 -->
<g id="edge10" class="edge">
<title>Node7&#45;&gt;Node2</title>
<path fill="none" stroke="midnightblue" d="M126.23,-56.32C112.5,-47.9 91.43,-34.97 75.3,-25.07"/>
<polygon fill="midnightblue" stroke="midnightblue" points="76.83,-21.9 66.47,-19.65 73.16,-27.87 76.83,-21.9"/>
</g>
<!-- Node7&#45;&gt;Node4 -->
<g id="edge11" class="edge">
<title>Node7&#45;&gt;Node4</title>
<path fill="none" stroke="midnightblue" d="M140.37,-56.08C140.37,-49.01 140.37,-38.86 140.37,-29.99"/>
<polygon fill="midnightblue" stroke="midnightblue" points="143.87,-29.75 140.37,-19.75 136.87,-29.75 143.87,-29.75"/>
</g>
<!-- Node8&#45;&gt;Node2 -->
<g id="edge13" class="edge">
<title>Node8&#45;&gt;Node2</title>
<path fill="none" stroke="midnightblue" d="M52.37,-56.08C52.37,-49.01 52.37,-38.86 52.37,-29.99"/>
<polygon fill="midnightblue" stroke="midnightblue" points="55.87,-29.75 52.37,-19.75 48.87,-29.75 55.87,-29.75"/>
</g>
<!-- Node8&#45;&gt;Node4 -->
<g id="edge14" class="edge">
<title>Node8&#45;&gt;Node4</title>
<path fill="none" stroke="midnightblue" d="M66.51,-56.32C80.23,-47.9 101.3,-34.97 117.43,-25.07"/>
<polygon fill="midnightblue" stroke="midnightblue" points="119.57,-27.87 126.26,-19.65 115.91,-21.9 119.57,-27.87"/>
</g>
</g>
</svg>
