<?xml version="1.0" encoding="UTF-8" standalone="no"?>
<!DOCTYPE svg PUBLIC "-//W3C//DTD SVG 1.1//EN"
 "http://www.w3.org/Graphics/SVG/1.1/DTD/svg11.dtd">
<!-- Generated by graphviz version 3.0.0 (20220413.0106)
 -->
<!-- Title: src/vdp_set_color_table.c Pages: 1 -->
<svg width="411pt" height="252pt"
 viewBox="0.00 0.00 411.15 252.00" xmlns="http://www.w3.org/2000/svg" xmlns:xlink="http://www.w3.org/1999/xlink">
<g id="graph0" class="graph" transform="scale(1 1) rotate(0) translate(4 248)">
<title>src/vdp_set_color_table.c</title>
<!-- Node1 -->
<g id="node1" class="node">
<title>Node1</title>
<g id="a_node1"><a xlink:title="Copyright (c) 2021 Daishi Mori (mori0091)">
<polygon fill="#bfbfbf" stroke="black" points="61.36,-224.5 61.36,-243.5 189.36,-243.5 189.36,-224.5 61.36,-224.5"/>
<text text-anchor="middle" x="125.36" y="-231.5" font-family="Helvetica,sans-Serif" font-size="10.00">src/vdp_set_color_table.c</text>
</a>
</g>
</g>
<!-- Node2 -->
<g id="node2" class="node">
<title>Node2</title>
<g id="a_node2"><a xlink:href="vdp_8h.html" target="_top" xlink:title="Data types and functions for VDP (Video Display Proccessor) access.">
<polygon fill="none" stroke="black" points="167.86,-168.5 167.86,-187.5 248.86,-187.5 248.86,-168.5 167.86,-168.5"/>
<text text-anchor="middle" x="208.36" y="-175.5" font-family="Helvetica,sans-Serif" font-size="10.00">../include/vdp.h</text>
</a>
</g>
</g>
<!-- Node1&#45;&gt;Node2 -->
<g id="edge1" class="edge">
<title>Node1&#45;&gt;Node2</title>
<path fill="none" stroke="midnightblue" d="M138.7,-224.32C151.52,-215.98 171.15,-203.21 186.3,-193.35"/>
<polygon fill="midnightblue" stroke="midnightblue" points="188.59,-196.04 195.06,-187.65 184.77,-190.17 188.59,-196.04"/>
</g>
<!-- Node13 -->
<g id="node13" class="node">
<title>Node13</title>
<g id="a_node13"><a xlink:href="vdp__internal_8h.html" target="_top" xlink:title="Copyright (c) 2021 Daishi Mori (mori0091)">
<polygon fill="none" stroke="black" points="38.86,-168.5 38.86,-187.5 115.86,-187.5 115.86,-168.5 38.86,-168.5"/>
<text text-anchor="middle" x="77.36" y="-175.5" font-family="Helvetica,sans-Serif" font-size="10.00">vdp_internal.h</text>
</a>
</g>
</g>
<!-- Node1&#45;&gt;Node13 -->
<g id="edge20" class="edge">
<title>Node1&#45;&gt;Node13</title>
<path fill="none" stroke="midnightblue" d="M117.44,-224.08C110.52,-216.3 100.3,-204.8 91.91,-195.37"/>
<polygon fill="midnightblue" stroke="midnightblue" points="94.4,-192.9 85.14,-187.75 89.17,-197.55 94.4,-192.9"/>
</g>
<!-- Node3 -->
<g id="node3" class="node">
<title>Node3</title>
<g id="a_node3"><a xlink:title=" ">
<polygon fill="none" stroke="#bfbfbf" points="155.86,-112.5 155.86,-131.5 206.86,-131.5 206.86,-112.5 155.86,-112.5"/>
<text text-anchor="middle" x="181.36" y="-119.5" font-family="Helvetica,sans-Serif" font-size="10.00">assert.h</text>
</a>
</g>
</g>
<!-- Node2&#45;&gt;Node3 -->
<g id="edge2" class="edge">
<title>Node2&#45;&gt;Node3</title>
<path fill="none" stroke="midnightblue" d="M203.9,-168.08C200.21,-160.69 194.84,-149.95 190.27,-140.81"/>
<polygon fill="midnightblue" stroke="midnightblue" points="193.34,-139.13 185.74,-131.75 187.08,-142.26 193.34,-139.13"/>
</g>
<!-- Node4 -->
<g id="node4" class="node">
<title>Node4</title>
<g id="a_node4"><a xlink:title=" ">
<polygon fill="none" stroke="#bfbfbf" points="333.36,-112.5 333.36,-131.5 389.36,-131.5 389.36,-112.5 333.36,-112.5"/>
<text text-anchor="middle" x="361.36" y="-119.5" font-family="Helvetica,sans-Serif" font-size="10.00">stdbool.h</text>
</a>
</g>
</g>
<!-- Node2&#45;&gt;Node4 -->
<g id="edge3" class="edge">
<title>Node2&#45;&gt;Node4</title>
<path fill="none" stroke="midnightblue" d="M232.61,-168.44C258.23,-159.4 298.85,-145.06 327.6,-134.92"/>
<polygon fill="midnightblue" stroke="midnightblue" points="328.97,-138.15 337.23,-131.52 326.64,-131.54 328.97,-138.15"/>
</g>
<!-- Node5 -->
<g id="node5" class="node">
<title>Node5</title>
<g id="a_node5"><a xlink:title=" ">
<polygon fill="none" stroke="#bfbfbf" points="114.36,-0.5 114.36,-19.5 162.36,-19.5 162.36,-0.5 114.36,-0.5"/>
<text text-anchor="middle" x="138.36" y="-7.5" font-family="Helvetica,sans-Serif" font-size="10.00">stdint.h</text>
</a>
</g>
</g>
<!-- Node2&#45;&gt;Node5 -->
<g id="edge4" class="edge">
<title>Node2&#45;&gt;Node5</title>
<path fill="none" stroke="midnightblue" d="M167.75,-168.51C142.47,-161.74 110.32,-150.29 86.36,-132 62.05,-113.44 55.7,-105.13 46.36,-76 43.65,-67.54 41.66,-63.54 46.36,-56 59.06,-35.65 83.93,-24.25 104.61,-18.02"/>
<polygon fill="midnightblue" stroke="midnightblue" points="105.63,-21.37 114.36,-15.36 103.79,-14.62 105.63,-21.37"/>
</g>
<!-- Node6 -->
<g id="node6" class="node">
<title>Node6</title>
<g id="a_node6"><a xlink:href="io_8h.html" target="_top" xlink:title="Copyright (c) 2021 Daishi Mori (mori0091)">
<polygon fill="none" stroke="black" points="351.36,-56.5 351.36,-75.5 383.36,-75.5 383.36,-56.5 351.36,-56.5"/>
<text text-anchor="middle" x="367.36" y="-63.5" font-family="Helvetica,sans-Serif" font-size="10.00">io.h</text>
</a>
</g>
</g>
<!-- Node2&#45;&gt;Node6 -->
<g id="edge5" class="edge">
<title>Node2&#45;&gt;Node6</title>
<path fill="none" stroke="midnightblue" d="M249.16,-173.18C299.33,-167.54 380.12,-155.07 398.36,-132 410.16,-117.08 396.99,-96.94 384.36,-83.05"/>
<polygon fill="midnightblue" stroke="midnightblue" points="386.66,-80.4 377.17,-75.68 381.65,-85.28 386.66,-80.4"/>
</g>
<!-- Node8 -->
<g id="node8" class="node">
<title>Node8</title>
<g id="a_node8"><a xlink:href="vmem_8h.html" target="_top" xlink:title="Data types and functions for VRAM access.">
<polygon fill="none" stroke="black" points="263.86,-112.5 263.86,-131.5 314.86,-131.5 314.86,-112.5 263.86,-112.5"/>
<text text-anchor="middle" x="289.36" y="-119.5" font-family="Helvetica,sans-Serif" font-size="10.00">vmem.h</text>
</a>
</g>
</g>
<!-- Node2&#45;&gt;Node8 -->
<g id="edge7" class="edge">
<title>Node2&#45;&gt;Node8</title>
<path fill="none" stroke="midnightblue" d="M221.38,-168.32C233.89,-159.98 253.04,-147.21 267.83,-137.35"/>
<polygon fill="midnightblue" stroke="midnightblue" points="270,-140.11 276.38,-131.65 266.12,-134.29 270,-140.11"/>
</g>
<!-- Node9 -->
<g id="node9" class="node">
<title>Node9</title>
<g id="a_node9"><a xlink:href="bios_8h.html" target="_top" xlink:title="Copyright (c) 2021 Daishi Mori (mori0091)">
<polygon fill="none" stroke="black" points="95.36,-112.5 95.36,-131.5 137.36,-131.5 137.36,-112.5 95.36,-112.5"/>
<text text-anchor="middle" x="116.36" y="-119.5" font-family="Helvetica,sans-Serif" font-size="10.00">bios.h</text>
</a>
</g>
</g>
<!-- Node2&#45;&gt;Node9 -->
<g id="edge10" class="edge">
<title>Node2&#45;&gt;Node9</title>
<path fill="none" stroke="midnightblue" d="M193.58,-168.32C179.1,-159.82 156.79,-146.73 139.87,-136.8"/>
<polygon fill="midnightblue" stroke="midnightblue" points="141.5,-133.7 131.11,-131.65 137.96,-139.74 141.5,-133.7"/>
</g>
<!-- Node12 -->
<g id="node12" class="node">
<title>Node12</title>
<g id="a_node12"><a xlink:href="workarea_8h.html" target="_top" xlink:title="Copyright (c) 2021 Daishi Mori (mori0091)">
<polygon fill="none" stroke="black" points="231.36,-56.5 231.36,-75.5 295.36,-75.5 295.36,-56.5 231.36,-56.5"/>
<text text-anchor="middle" x="263.36" y="-63.5" font-family="Helvetica,sans-Serif" font-size="10.00">workarea.h</text>
</a>
</g>
</g>
<!-- Node2&#45;&gt;Node12 -->
<g id="edge17" class="edge">
<title>Node2&#45;&gt;Node12</title>
<path fill="none" stroke="midnightblue" d="M212.68,-168.37C221.67,-150.38 242.59,-108.55 254.55,-84.63"/>
<polygon fill="midnightblue" stroke="midnightblue" points="257.72,-86.1 259.07,-75.59 251.46,-82.97 257.72,-86.1"/>
</g>
<!-- Node7 -->
<g id="node7" class="node">
<title>Node7</title>
<g id="a_node7"><a xlink:href="config_8h.html" target="_top" xlink:title="Copyright (c) 2022 Daishi Mori (mori0091)">
<polygon fill="none" stroke="black" points="190.36,-0.5 190.36,-19.5 240.36,-19.5 240.36,-0.5 190.36,-0.5"/>
<text text-anchor="middle" x="215.36" y="-7.5" font-family="Helvetica,sans-Serif" font-size="10.00">config.h</text>
</a>
</g>
</g>
<!-- Node6&#45;&gt;Node7 -->
<g id="edge6" class="edge">
<title>Node6&#45;&gt;Node7</title>
<path fill="none" stroke="midnightblue" d="M351.1,-59.22C326.91,-50.63 280.92,-34.29 249.22,-23.03"/>
<polygon fill="midnightblue" stroke="midnightblue" points="250.07,-19.62 239.48,-19.57 247.73,-26.21 250.07,-19.62"/>
</g>
<!-- Node8&#45;&gt;Node5 -->
<g id="edge8" class="edge">
<title>Node8&#45;&gt;Node5</title>
<path fill="none" stroke="midnightblue" d="M295.33,-112.48C303.9,-99.1 317.31,-72.92 304.36,-56 300.27,-50.66 219.63,-30.52 172.27,-19.08"/>
<polygon fill="midnightblue" stroke="midnightblue" points="172.97,-15.65 162.43,-16.71 171.33,-22.45 172.97,-15.65"/>
</g>
<!-- Node8&#45;&gt;Node6 -->
<g id="edge9" class="edge">
<title>Node8&#45;&gt;Node6</title>
<path fill="none" stroke="midnightblue" d="M301.89,-112.32C313.95,-103.98 332.39,-91.21 346.63,-81.35"/>
<polygon fill="midnightblue" stroke="midnightblue" points="348.63,-84.22 354.86,-75.65 344.65,-78.47 348.63,-84.22"/>
</g>
<!-- Node10 -->
<g id="node10" class="node">
<title>Node10</title>
<g id="a_node10"><a xlink:href="bios__const_8h.html" target="_top" xlink:title="Constant variables in the MSX BIOS ROM.">
<polygon fill="none" stroke="black" points="141.86,-56.5 141.86,-75.5 212.86,-75.5 212.86,-56.5 141.86,-56.5"/>
<text text-anchor="middle" x="177.36" y="-63.5" font-family="Helvetica,sans-Serif" font-size="10.00">bios_const.h</text>
</a>
</g>
</g>
<!-- Node9&#45;&gt;Node10 -->
<g id="edge11" class="edge">
<title>Node9&#45;&gt;Node10</title>
<path fill="none" stroke="midnightblue" d="M126.16,-112.32C135.18,-104.34 148.77,-92.31 159.68,-82.65"/>
<polygon fill="midnightblue" stroke="midnightblue" points="162.22,-85.08 167.38,-75.83 157.58,-79.84 162.22,-85.08"/>
</g>
<!-- Node11 -->
<g id="node11" class="node">
<title>Node11</title>
<g id="a_node11"><a xlink:href="bios__entry_8h.html" target="_top" xlink:title="Assembler entry points for MSX BIOS functions.">
<polygon fill="none" stroke="black" points="55.36,-56.5 55.36,-75.5 123.36,-75.5 123.36,-56.5 55.36,-56.5"/>
<text text-anchor="middle" x="89.36" y="-63.5" font-family="Helvetica,sans-Serif" font-size="10.00">bios_entry.h</text>
</a>
</g>
</g>
<!-- Node9&#45;&gt;Node11 -->
<g id="edge14" class="edge">
<title>Node9&#45;&gt;Node11</title>
<path fill="none" stroke="midnightblue" d="M111.9,-112.08C108.21,-104.69 102.84,-93.95 98.27,-84.81"/>
<polygon fill="midnightblue" stroke="midnightblue" points="101.34,-83.13 93.74,-75.75 95.08,-86.26 101.34,-83.13"/>
</g>
<!-- Node10&#45;&gt;Node5 -->
<g id="edge12" class="edge">
<title>Node10&#45;&gt;Node5</title>
<path fill="none" stroke="midnightblue" d="M170.92,-56.08C165.41,-48.46 157.33,-37.26 150.6,-27.94"/>
<polygon fill="midnightblue" stroke="midnightblue" points="153.37,-25.81 144.68,-19.75 147.7,-29.91 153.37,-25.81"/>
</g>
<!-- Node10&#45;&gt;Node7 -->
<g id="edge13" class="edge">
<title>Node10&#45;&gt;Node7</title>
<path fill="none" stroke="midnightblue" d="M183.64,-56.08C189,-48.46 196.88,-37.26 203.44,-27.94"/>
<polygon fill="midnightblue" stroke="midnightblue" points="206.31,-29.94 209.2,-19.75 200.59,-25.91 206.31,-29.94"/>
</g>
<!-- Node11&#45;&gt;Node5 -->
<g id="edge15" class="edge">
<title>Node11&#45;&gt;Node5</title>
<path fill="none" stroke="midnightblue" d="M97.45,-56.08C104.52,-48.3 114.95,-36.8 123.51,-27.37"/>
<polygon fill="midnightblue" stroke="midnightblue" points="126.29,-29.51 130.42,-19.75 121.11,-24.8 126.29,-29.51"/>
</g>
<!-- Node11&#45;&gt;Node7 -->
<g id="edge16" class="edge">
<title>Node11&#45;&gt;Node7</title>
<path fill="none" stroke="midnightblue" d="M109.33,-56.44C129.97,-47.6 162.42,-33.69 185.99,-23.59"/>
<polygon fill="midnightblue" stroke="midnightblue" points="187.68,-26.67 195.49,-19.52 184.92,-20.24 187.68,-26.67"/>
</g>
<!-- Node12&#45;&gt;Node5 -->
<g id="edge18" class="edge">
<title>Node12&#45;&gt;Node5</title>
<path fill="none" stroke="midnightblue" d="M243.56,-56.44C223.08,-47.6 190.88,-33.69 167.5,-23.59"/>
<polygon fill="midnightblue" stroke="midnightblue" points="168.64,-20.27 158.08,-19.52 165.87,-26.7 168.64,-20.27"/>
</g>
<!-- Node12&#45;&gt;Node7 -->
<g id="edge19" class="edge">
<title>Node12&#45;&gt;Node7</title>
<path fill="none" stroke="midnightblue" d="M255.44,-56.08C248.52,-48.3 238.3,-36.8 229.91,-27.37"/>
<polygon fill="midnightblue" stroke="midnightblue" points="232.4,-24.9 223.14,-19.75 227.17,-29.55 232.4,-24.9"/>
</g>
<!-- Node13&#45;&gt;Node5 -->
<g id="edge21" class="edge">
<title>Node13&#45;&gt;Node5</title>
<path fill="none" stroke="midnightblue" d="M55.88,-168.36C40.97,-161.09 22.25,-149.12 13.36,-132 -2.21,-102.02 -6.06,-83.64 13.36,-56 33.68,-27.09 74.44,-16.67 103.9,-12.96"/>
<polygon fill="midnightblue" stroke="midnightblue" points="104.61,-16.4 114.19,-11.87 103.88,-9.44 104.61,-16.4"/>
</g>
</g>
</svg>
