<?xml version="1.0" encoding="UTF-8" standalone="no"?>
<!DOCTYPE svg PUBLIC "-//W3C//DTD SVG 1.1//EN"
 "http://www.w3.org/Graphics/SVG/1.1/DTD/svg11.dtd">
<!-- Generated by graphviz version 7.0.5 (20221223.1930)
 -->
<!-- Title: include/vdp_unsafe.h Pages: 1 -->
<svg width="277pt" height="247pt"
 viewBox="0.00 0.00 276.96 247.00" xmlns="http://www.w3.org/2000/svg" xmlns:xlink="http://www.w3.org/1999/xlink">
<g id="graph0" class="graph" transform="scale(1 1) rotate(0) translate(4 243)">
<title>include/vdp_unsafe.h</title>
<!-- Node1 -->
<g id="node1" class="node">
<title>Node1</title>
<g id="a_node1"><a xlink:title="Unsafe primitive functions for VDP (Video Display Proccessor) access.">
<polygon fill="#999999" stroke="#666666" points="118.41,-239 10.41,-239 10.41,-220 118.41,-220 118.41,-239"/>
<text text-anchor="middle" x="64.41" y="-227" font-family="Helvetica,sans-Serif" font-size="10.00">include/vdp_unsafe.h</text>
</a>
</g>
</g>
<!-- Node2 -->
<g id="node2" class="node">
<title>Node2</title>
<g id="a_node2"><a xlink:title=" ">
<polygon fill="#e0e0e0" stroke="#999999" points="141.41,-19 93.41,-19 93.41,0 141.41,0 141.41,-19"/>
<text text-anchor="middle" x="117.41" y="-7" font-family="Helvetica,sans-Serif" font-size="10.00">stdint.h</text>
</a>
</g>
</g>
<!-- Node1&#45;&gt;Node2 -->
<g id="edge1" class="edge">
<title>Node1&#45;&gt;Node2</title>
<path fill="none" stroke="#63b8ff" d="M42.97,-219.54C28.62,-212.26 10.87,-200.5 2.41,-184 -1.45,-176.49 0.5,-173.23 2.41,-165 14.72,-111.95 21.38,-96.71 56.41,-55 66.12,-43.43 79.45,-33.26 91.17,-25.57"/>
<polygon fill="#63b8ff" stroke="#63b8ff" points="93.01,-28.55 99.64,-20.29 89.31,-22.61 93.01,-28.55"/>
</g>
<!-- Node3 -->
<g id="node3" class="node">
<title>Node3</title>
<g id="a_node3"><a xlink:href="io_8h.html" target="_top" xlink:title="Definition of I/O ports.">
<polygon fill="white" stroke="#666666" points="81.41,-129 49.41,-129 49.41,-110 81.41,-110 81.41,-129"/>
<text text-anchor="middle" x="65.41" y="-117" font-family="Helvetica,sans-Serif" font-size="10.00">io.h</text>
</a>
</g>
</g>
<!-- Node1&#45;&gt;Node3 -->
<g id="edge2" class="edge">
<title>Node1&#45;&gt;Node3</title>
<path fill="none" stroke="#63b8ff" d="M66.21,-219.68C67.94,-210.74 70.43,-196.48 71.41,-184 72.55,-169.42 70.91,-152.97 69.06,-140.47"/>
<polygon fill="#63b8ff" stroke="#63b8ff" points="72.51,-139.9 67.41,-130.61 65.61,-141.05 72.51,-139.9"/>
</g>
<!-- Node5 -->
<g id="node5" class="node">
<title>Node5</title>
<g id="a_node5"><a xlink:href="vmem_8h.html" target="_top" xlink:title="Data types and functions for VRAM access.">
<polygon fill="white" stroke="#666666" points="62.91,-184 11.91,-184 11.91,-165 62.91,-165 62.91,-184"/>
<text text-anchor="middle" x="37.41" y="-172" font-family="Helvetica,sans-Serif" font-size="10.00">vmem.h</text>
</a>
</g>
</g>
<!-- Node1&#45;&gt;Node5 -->
<g id="edge5" class="edge">
<title>Node1&#45;&gt;Node5</title>
<path fill="none" stroke="#63b8ff" d="M59.95,-219.75C56.45,-212.88 51.46,-203.08 47.06,-194.45"/>
<polygon fill="#63b8ff" stroke="#63b8ff" points="50.31,-193.11 42.65,-185.79 44.07,-196.29 50.31,-193.11"/>
</g>
<!-- Node6 -->
<g id="node6" class="node">
<title>Node6</title>
<g id="a_node6"><a xlink:href="bios_8h.html" target="_top" xlink:title="C language I/F for MSX BIOS routines.">
<polygon fill="white" stroke="#666666" points="202.41,-184 160.41,-184 160.41,-165 202.41,-165 202.41,-184"/>
<text text-anchor="middle" x="181.41" y="-172" font-family="Helvetica,sans-Serif" font-size="10.00">bios.h</text>
</a>
</g>
</g>
<!-- Node1&#45;&gt;Node6 -->
<g id="edge8" class="edge">
<title>Node1&#45;&gt;Node6</title>
<path fill="none" stroke="#63b8ff" d="M84.25,-219.51C102.68,-211.16 130.38,-198.61 151.5,-189.05"/>
<polygon fill="#63b8ff" stroke="#63b8ff" points="152.81,-192.3 160.47,-184.98 149.92,-185.92 152.81,-192.3"/>
</g>
<!-- Node4 -->
<g id="node4" class="node">
<title>Node4</title>
<g id="a_node4"><a xlink:href="config_8h.html" target="_top" xlink:title="Hack for C Compiler portability.">
<polygon fill="white" stroke="#666666" points="169.41,-74 119.41,-74 119.41,-55 169.41,-55 169.41,-74"/>
<text text-anchor="middle" x="144.41" y="-62" font-family="Helvetica,sans-Serif" font-size="10.00">config.h</text>
</a>
</g>
</g>
<!-- Node3&#45;&gt;Node4 -->
<g id="edge3" class="edge">
<title>Node3&#45;&gt;Node4</title>
<path fill="none" stroke="#63b8ff" d="M78.81,-109.51C90.57,-101.62 107.91,-89.98 121.82,-80.65"/>
<polygon fill="#63b8ff" stroke="#63b8ff" points="123.59,-83.68 129.95,-75.2 119.69,-77.87 123.59,-83.68"/>
</g>
<!-- Node4&#45;&gt;Node2 -->
<g id="edge4" class="edge">
<title>Node4&#45;&gt;Node2</title>
<path fill="none" stroke="#63b8ff" d="M139.95,-54.75C136.45,-47.88 131.46,-38.08 127.06,-29.45"/>
<polygon fill="#63b8ff" stroke="#63b8ff" points="130.31,-28.11 122.65,-20.79 124.07,-31.29 130.31,-28.11"/>
</g>
<!-- Node5&#45;&gt;Node2 -->
<g id="edge6" class="edge">
<title>Node5&#45;&gt;Node2</title>
<path fill="none" stroke="#63b8ff" d="M36.18,-164.54C34.82,-151.93 33.62,-128.43 40.41,-110 52.67,-76.71 80.37,-45.61 98.98,-27.32"/>
<polygon fill="#63b8ff" stroke="#63b8ff" points="101.35,-29.89 106.18,-20.46 96.52,-24.82 101.35,-29.89"/>
</g>
<!-- Node5&#45;&gt;Node3 -->
<g id="edge7" class="edge">
<title>Node5&#45;&gt;Node3</title>
<path fill="none" stroke="#63b8ff" d="M42.03,-164.75C45.65,-157.88 50.83,-148.08 55.4,-139.45"/>
<polygon fill="#63b8ff" stroke="#63b8ff" points="58.4,-141.26 59.97,-130.78 52.21,-137.99 58.4,-141.26"/>
</g>
<!-- Node6&#45;&gt;Node2 -->
<g id="edge9" class="edge">
<title>Node6&#45;&gt;Node2</title>
<path fill="none" stroke="#63b8ff" d="M202.66,-168.12C232.2,-159.43 280.55,-140.19 266.41,-110 244.7,-63.67 189.38,-35.8 152.6,-21.79"/>
<polygon fill="#63b8ff" stroke="#63b8ff" points="153.85,-18.52 143.26,-18.4 151.46,-25.1 153.85,-18.52"/>
</g>
<!-- Node7 -->
<g id="node7" class="node">
<title>Node7</title>
<g id="a_node7"><a xlink:href="bios__const_8h.html" target="_top" xlink:title="Constant variables in the MSX BIOS ROM.">
<polygon fill="white" stroke="#666666" points="170.91,-129 99.91,-129 99.91,-110 170.91,-110 170.91,-129"/>
<text text-anchor="middle" x="135.41" y="-117" font-family="Helvetica,sans-Serif" font-size="10.00">bios_const.h</text>
</a>
</g>
</g>
<!-- Node6&#45;&gt;Node7 -->
<g id="edge10" class="edge">
<title>Node6&#45;&gt;Node7</title>
<path fill="none" stroke="#63b8ff" d="M173.81,-164.75C167.52,-157.5 158.39,-146.98 150.61,-138.02"/>
<polygon fill="#63b8ff" stroke="#63b8ff" points="153.36,-135.84 144.16,-130.59 148.07,-140.43 153.36,-135.84"/>
</g>
<!-- Node8 -->
<g id="node8" class="node">
<title>Node8</title>
<g id="a_node8"><a xlink:href="bios__entry_8h.html" target="_top" xlink:title="Assembler entry points for MSX BIOS functions.">
<polygon fill="white" stroke="#666666" points="257.41,-129 189.41,-129 189.41,-110 257.41,-110 257.41,-129"/>
<text text-anchor="middle" x="223.41" y="-117" font-family="Helvetica,sans-Serif" font-size="10.00">bios_entry.h</text>
</a>
</g>
</g>
<!-- Node6&#45;&gt;Node8 -->
<g id="edge13" class="edge">
<title>Node6&#45;&gt;Node8</title>
<path fill="none" stroke="#63b8ff" d="M188.34,-164.75C194.02,-157.58 202.24,-147.2 209.3,-138.3"/>
<polygon fill="#63b8ff" stroke="#63b8ff" points="211.91,-140.64 215.38,-130.63 206.43,-136.29 211.91,-140.64"/>
</g>
<!-- Node7&#45;&gt;Node2 -->
<g id="edge11" class="edge">
<title>Node7&#45;&gt;Node2</title>
<path fill="none" stroke="#63b8ff" d="M128.54,-109.56C122.42,-100.97 113.9,-87.37 110.41,-74 106.66,-59.68 108.72,-43.02 111.56,-30.37"/>
<polygon fill="#63b8ff" stroke="#63b8ff" points="114.93,-31.3 114.08,-20.74 108.16,-29.53 114.93,-31.3"/>
</g>
<!-- Node7&#45;&gt;Node4 -->
<g id="edge12" class="edge">
<title>Node7&#45;&gt;Node4</title>
<path fill="none" stroke="#63b8ff" d="M136.89,-109.75C138.01,-103.19 139.57,-93.95 140.99,-85.6"/>
<polygon fill="#63b8ff" stroke="#63b8ff" points="144.41,-86.38 142.63,-75.93 137.51,-85.21 144.41,-86.38"/>
</g>
<!-- Node8&#45;&gt;Node2 -->
<g id="edge14" class="edge">
<title>Node8&#45;&gt;Node2</title>
<path fill="none" stroke="#63b8ff" d="M218.38,-109.61C210.79,-96.67 195.48,-72.32 178.41,-55 167.4,-43.84 153.38,-33.4 141.55,-25.44"/>
<polygon fill="#63b8ff" stroke="#63b8ff" points="143.8,-22.74 133.51,-20.21 139.98,-28.6 143.8,-22.74"/>
</g>
<!-- Node8&#45;&gt;Node4 -->
<g id="edge15" class="edge">
<title>Node8&#45;&gt;Node4</title>
<path fill="none" stroke="#63b8ff" d="M210,-109.51C198.24,-101.62 180.9,-89.98 166.99,-80.65"/>
<polygon fill="#63b8ff" stroke="#63b8ff" points="169.12,-77.87 158.87,-75.2 165.22,-83.68 169.12,-77.87"/>
</g>
</g>
</svg>
