<?xml version="1.0" encoding="UTF-8" standalone="no"?>
<!DOCTYPE svg PUBLIC "-//W3C//DTD SVG 1.1//EN"
 "http://www.w3.org/Graphics/SVG/1.1/DTD/svg11.dtd">
<!-- Generated by graphviz version 2.43.0 (0)
 -->
<!-- Title: include/vdp.h Pages: 1 -->
<svg width="4871pt" height="151pt"
 viewBox="0.00 0.00 4870.50 151.00" xmlns="http://www.w3.org/2000/svg" xmlns:xlink="http://www.w3.org/1999/xlink">
<g id="graph0" class="graph" transform="scale(1 1) rotate(0) translate(4 147)">
<title>include/vdp.h</title>
<!-- Node1 -->
<g id="node1" class="node">
<title>Node1</title>
<g id="a_node1"><a xlink:title=" ">
<polygon fill="#bfbfbf" stroke="black" points="2403.5,-123.5 2403.5,-142.5 2485.5,-142.5 2485.5,-123.5 2403.5,-123.5"/>
<text text-anchor="middle" x="2444.5" y="-130.5" font-family="Helvetica,sans-Serif" font-size="10.00">include/vdp.h</text>
</a>
</g>
</g>
<!-- Node2 -->
<g id="node2" class="node">
<title>Node2</title>
<g id="a_node2"><a xlink:href="metasprite_8h.html" target="_top" xlink:title=" ">
<polygon fill="none" stroke="black" points="127,-62 127,-81 244,-81 244,-62 127,-62"/>
<text text-anchor="middle" x="185.5" y="-69" font-family="Helvetica,sans-Serif" font-size="10.00">include/metasprite.h</text>
</a>
</g>
</g>
<!-- Node1&#45;&gt;Node2 -->
<g id="edge1" class="edge">
<title>Node1&#45;&gt;Node2</title>
<path fill="none" stroke="midnightblue" d="M2393.01,-132.27C2104.63,-133.56 687.25,-137.24 253.5,-87 242.23,-85.69 230.07,-83.39 219.19,-81"/>
<polygon fill="midnightblue" stroke="midnightblue" points="2393.2,-135.77 2403.18,-132.22 2393.17,-128.77 2393.2,-135.77"/>
</g>
<!-- Node3 -->
<g id="node3" class="node">
<title>Node3</title>
<g id="a_node3"><a xlink:href="msx_8h.html" target="_top" xlink:title=" ">
<polygon fill="none" stroke="black" points="0,-0.5 0,-19.5 85,-19.5 85,-0.5 0,-0.5"/>
<text text-anchor="middle" x="42.5" y="-7.5" font-family="Helvetica,sans-Serif" font-size="10.00">include/msx.h</text>
</a>
</g>
</g>
<!-- Node1&#45;&gt;Node3 -->
<g id="edge6" class="edge">
<title>Node1&#45;&gt;Node3</title>
<path fill="none" stroke="midnightblue" d="M2392.96,-132.1C2060.21,-132.62 225.5,-133.39 117.5,-87 84.46,-72.81 58.42,-36.48 47.75,-19.72"/>
<polygon fill="midnightblue" stroke="midnightblue" points="2393.27,-135.6 2403.27,-132.09 2393.26,-128.6 2393.27,-135.6"/>
</g>
<!-- Node7 -->
<g id="node7" class="node">
<title>Node7</title>
<g id="a_node7"><a xlink:href="vdp_8c.html" target="_top" xlink:title=" ">
<polygon fill="none" stroke="black" points="262.5,-62 262.5,-81 322.5,-81 322.5,-62 262.5,-62"/>
<text text-anchor="middle" x="292.5" y="-69" font-family="Helvetica,sans-Serif" font-size="10.00">src/vdp.c</text>
</a>
</g>
</g>
<!-- Node1&#45;&gt;Node7 -->
<g id="edge7" class="edge">
<title>Node1&#45;&gt;Node7</title>
<path fill="none" stroke="midnightblue" d="M2393.01,-131.93C2089.43,-131.39 539.43,-126.69 331.5,-87 324.83,-85.73 317.8,-83.43 311.57,-81.04"/>
<polygon fill="midnightblue" stroke="midnightblue" points="2393.27,-135.43 2403.28,-131.95 2393.28,-128.43 2393.27,-135.43"/>
</g>
<!-- Node8 -->
<g id="node8" class="node">
<title>Node8</title>
<g id="a_node8"><a xlink:href="vdp__cmd__execute__HMMM_8c.html" target="_top" xlink:title=" ">
<polygon fill="none" stroke="black" points="340.5,-56.5 340.5,-86.5 462.5,-86.5 462.5,-56.5 340.5,-56.5"/>
<text text-anchor="start" x="348.5" y="-74.5" font-family="Helvetica,sans-Serif" font-size="10.00">src/vdp_cmd_execute</text>
<text text-anchor="middle" x="401.5" y="-63.5" font-family="Helvetica,sans-Serif" font-size="10.00">_HMMM.c</text>
</a>
</g>
</g>
<!-- Node1&#45;&gt;Node8 -->
<g id="edge8" class="edge">
<title>Node1&#45;&gt;Node8</title>
<path fill="none" stroke="midnightblue" d="M2393.06,-132.09C2122.26,-132.37 859.71,-131.26 471.5,-87 468.66,-86.68 465.77,-86.29 462.86,-85.87"/>
<polygon fill="midnightblue" stroke="midnightblue" points="2393.38,-135.59 2403.38,-132.08 2393.37,-128.59 2393.38,-135.59"/>
</g>
<!-- Node9 -->
<g id="node9" class="node">
<title>Node9</title>
<g id="a_node9"><a xlink:href="vdp__cmd__execute__HMMV_8c.html" target="_top" xlink:title=" ">
<polygon fill="none" stroke="black" points="480.5,-56.5 480.5,-86.5 602.5,-86.5 602.5,-56.5 480.5,-56.5"/>
<text text-anchor="start" x="488.5" y="-74.5" font-family="Helvetica,sans-Serif" font-size="10.00">src/vdp_cmd_execute</text>
<text text-anchor="middle" x="541.5" y="-63.5" font-family="Helvetica,sans-Serif" font-size="10.00">_HMMV.c</text>
</a>
</g>
</g>
<!-- Node1&#45;&gt;Node9 -->
<g id="edge9" class="edge">
<title>Node1&#45;&gt;Node9</title>
<path fill="none" stroke="midnightblue" d="M2393.01,-131.99C2133.84,-131.73 970.4,-128.24 611.5,-87 608.66,-86.67 605.77,-86.29 602.86,-85.86"/>
<polygon fill="midnightblue" stroke="midnightblue" points="2393.26,-135.49 2403.26,-132 2393.26,-128.49 2393.26,-135.49"/>
</g>
<!-- Node10 -->
<g id="node10" class="node">
<title>Node10</title>
<g id="a_node10"><a xlink:href="vdp__cmd__execute__LMMM_8c.html" target="_top" xlink:title=" ">
<polygon fill="none" stroke="black" points="620.5,-56.5 620.5,-86.5 742.5,-86.5 742.5,-56.5 620.5,-56.5"/>
<text text-anchor="start" x="628.5" y="-74.5" font-family="Helvetica,sans-Serif" font-size="10.00">src/vdp_cmd_execute</text>
<text text-anchor="middle" x="681.5" y="-63.5" font-family="Helvetica,sans-Serif" font-size="10.00">_LMMM.c</text>
</a>
</g>
</g>
<!-- Node1&#45;&gt;Node10 -->
<g id="edge10" class="edge">
<title>Node1&#45;&gt;Node10</title>
<path fill="none" stroke="midnightblue" d="M2393,-131.86C2146.02,-131.03 1081.19,-125.22 751.5,-87 748.66,-86.67 745.77,-86.28 742.86,-85.85"/>
<polygon fill="midnightblue" stroke="midnightblue" points="2393.12,-135.36 2403.14,-131.9 2393.15,-128.36 2393.12,-135.36"/>
</g>
<!-- Node11 -->
<g id="node11" class="node">
<title>Node11</title>
<g id="a_node11"><a xlink:href="vdp__cmd__execute__LMMV_8c.html" target="_top" xlink:title=" ">
<polygon fill="none" stroke="black" points="760.5,-56.5 760.5,-86.5 882.5,-86.5 882.5,-56.5 760.5,-56.5"/>
<text text-anchor="start" x="768.5" y="-74.5" font-family="Helvetica,sans-Serif" font-size="10.00">src/vdp_cmd_execute</text>
<text text-anchor="middle" x="821.5" y="-63.5" font-family="Helvetica,sans-Serif" font-size="10.00">_LMMV.c</text>
</a>
</g>
</g>
<!-- Node1&#45;&gt;Node11 -->
<g id="edge11" class="edge">
<title>Node1&#45;&gt;Node11</title>
<path fill="none" stroke="midnightblue" d="M2393.17,-131.72C2159.19,-130.27 1192.12,-122.22 891.5,-87 888.66,-86.67 885.77,-86.28 882.86,-85.84"/>
<polygon fill="midnightblue" stroke="midnightblue" points="2393.42,-135.22 2403.44,-131.78 2393.46,-128.22 2393.42,-135.22"/>
</g>
<!-- Node12 -->
<g id="node12" class="node">
<title>Node12</title>
<g id="a_node12"><a xlink:href="vdp__cmd__set__unrestricted_8c.html" target="_top" xlink:title=" ">
<polygon fill="none" stroke="black" points="900.5,-62 900.5,-81 1070.5,-81 1070.5,-62 900.5,-62"/>
<text text-anchor="middle" x="985.5" y="-69" font-family="Helvetica,sans-Serif" font-size="10.00">src/vdp_cmd_set_unrestricted.c</text>
</a>
</g>
</g>
<!-- Node1&#45;&gt;Node12 -->
<g id="edge12" class="edge">
<title>Node1&#45;&gt;Node12</title>
<path fill="none" stroke="midnightblue" d="M2393.08,-132.53C2212.44,-133.9 1590.19,-134.63 1079.5,-87 1064.54,-85.6 1048.34,-83.37 1033.67,-81.07"/>
<polygon fill="midnightblue" stroke="midnightblue" points="2393.38,-136.02 2403.35,-132.44 2393.32,-129.02 2393.38,-136.02"/>
</g>
<!-- Node13 -->
<g id="node13" class="node">
<title>Node13</title>
<g id="a_node13"><a xlink:href="vdp__get__sprite__mode_8c.html" target="_top" xlink:title=" ">
<polygon fill="none" stroke="black" points="1088.5,-56.5 1088.5,-86.5 1194.5,-86.5 1194.5,-56.5 1088.5,-56.5"/>
<text text-anchor="start" x="1096.5" y="-74.5" font-family="Helvetica,sans-Serif" font-size="10.00">src/vdp_get_sprite</text>
<text text-anchor="middle" x="1141.5" y="-63.5" font-family="Helvetica,sans-Serif" font-size="10.00">_mode.c</text>
</a>
</g>
</g>
<!-- Node1&#45;&gt;Node13 -->
<g id="edge13" class="edge">
<title>Node1&#45;&gt;Node13</title>
<path fill="none" stroke="midnightblue" d="M2393.23,-131.46C2189.8,-129.13 1439.14,-118.52 1203.5,-87 1200.65,-86.62 1197.74,-86.17 1194.81,-85.66"/>
<polygon fill="midnightblue" stroke="midnightblue" points="2393.3,-134.96 2403.34,-131.58 2393.38,-127.96 2393.3,-134.96"/>
</g>
<!-- Node14 -->
<g id="node14" class="node">
<title>Node14</title>
<g id="a_node14"><a xlink:href="vdp__get__status_8c.html" target="_top" xlink:title=" ">
<polygon fill="none" stroke="black" points="1212.5,-62 1212.5,-81 1328.5,-81 1328.5,-62 1212.5,-62"/>
<text text-anchor="middle" x="1270.5" y="-69" font-family="Helvetica,sans-Serif" font-size="10.00">src/vdp_get_status.c</text>
</a>
</g>
</g>
<!-- Node1&#45;&gt;Node14 -->
<g id="edge14" class="edge">
<title>Node1&#45;&gt;Node14</title>
<path fill="none" stroke="midnightblue" d="M2393.28,-131.09C2204.23,-127.56 1545.83,-113.58 1337.5,-87 1326.64,-85.61 1314.93,-83.35 1304.39,-81.02"/>
<polygon fill="midnightblue" stroke="midnightblue" points="2393.43,-134.59 2403.5,-131.28 2393.56,-127.6 2393.43,-134.59"/>
</g>
<!-- Node15 -->
<g id="node15" class="node">
<title>Node15</title>
<g id="a_node15"><a xlink:href="vdp__set__adjust_8c.html" target="_top" xlink:title=" ">
<polygon fill="none" stroke="black" points="1346.5,-62 1346.5,-81 1462.5,-81 1462.5,-62 1346.5,-62"/>
<text text-anchor="middle" x="1404.5" y="-69" font-family="Helvetica,sans-Serif" font-size="10.00">src/vdp_set_adjust.c</text>
</a>
</g>
</g>
<!-- Node1&#45;&gt;Node15 -->
<g id="edge15" class="edge">
<title>Node1&#45;&gt;Node15</title>
<path fill="none" stroke="midnightblue" d="M2392.67,-132.58C2247.02,-133.56 1821.88,-132.03 1472.5,-87 1461.61,-85.6 1449.86,-83.36 1439.25,-81.06"/>
<polygon fill="midnightblue" stroke="midnightblue" points="2393.1,-136.07 2403.08,-132.5 2393.05,-129.07 2393.1,-136.07"/>
</g>
<!-- Node16 -->
<g id="node16" class="node">
<title>Node16</title>
<g id="a_node16"><a xlink:href="vdp__set__color_8c.html" target="_top" xlink:title=" ">
<polygon fill="none" stroke="black" points="1481,-62 1481,-81 1590,-81 1590,-62 1481,-62"/>
<text text-anchor="middle" x="1535.5" y="-69" font-family="Helvetica,sans-Serif" font-size="10.00">src/vdp_set_color.c</text>
</a>
</g>
</g>
<!-- Node1&#45;&gt;Node16 -->
<g id="edge16" class="edge">
<title>Node1&#45;&gt;Node16</title>
<path fill="none" stroke="midnightblue" d="M2393.14,-132.29C2260.89,-132.37 1898.08,-128.47 1599.5,-87 1589.23,-85.57 1578.18,-83.33 1568.19,-81.03"/>
<polygon fill="midnightblue" stroke="midnightblue" points="2393.38,-135.79 2403.38,-132.27 2393.37,-128.79 2393.38,-135.79"/>
</g>
<!-- Node17 -->
<g id="node17" class="node">
<title>Node17</title>
<g id="a_node17"><a xlink:href="vdp__set__color__table_8c.html" target="_top" xlink:title=" ">
<polygon fill="none" stroke="black" points="1608.5,-62 1608.5,-81 1748.5,-81 1748.5,-62 1608.5,-62"/>
<text text-anchor="middle" x="1678.5" y="-69" font-family="Helvetica,sans-Serif" font-size="10.00">src/vdp_set_color_table.c</text>
</a>
</g>
</g>
<!-- Node1&#45;&gt;Node17 -->
<g id="edge17" class="edge">
<title>Node1&#45;&gt;Node17</title>
<path fill="none" stroke="midnightblue" d="M2393.16,-130.63C2278.8,-127.14 1994.57,-116.04 1758.5,-87 1746.03,-85.47 1732.56,-83.25 1720.3,-81"/>
<polygon fill="midnightblue" stroke="midnightblue" points="2393.27,-134.13 2403.37,-130.93 2393.48,-127.14 2393.27,-134.13"/>
</g>
<!-- Node18 -->
<g id="node18" class="node">
<title>Node18</title>
<g id="a_node18"><a xlink:href="vdp__set__control_8c.html" target="_top" xlink:title=" ">
<polygon fill="none" stroke="black" points="1767,-62 1767,-81 1886,-81 1886,-62 1767,-62"/>
<text text-anchor="middle" x="1826.5" y="-69" font-family="Helvetica,sans-Serif" font-size="10.00">src/vdp_set_control.c</text>
</a>
</g>
</g>
<!-- Node1&#45;&gt;Node18 -->
<g id="edge18" class="edge">
<title>Node1&#45;&gt;Node18</title>
<path fill="none" stroke="midnightblue" d="M2393.16,-129.94C2295.72,-125.56 2077.43,-113.47 1895.5,-87 1884.84,-85.45 1873.36,-83.25 1862.87,-81.03"/>
<polygon fill="midnightblue" stroke="midnightblue" points="2393.18,-133.45 2403.32,-130.39 2393.49,-126.45 2393.18,-133.45"/>
</g>
<!-- Node19 -->
<g id="node19" class="node">
<title>Node19</title>
<g id="a_node19"><a xlink:href="vdp__set__hscroll_8c.html" target="_top" xlink:title=" ">
<polygon fill="none" stroke="black" points="1904.5,-62 1904.5,-81 2022.5,-81 2022.5,-62 1904.5,-62"/>
<text text-anchor="middle" x="1963.5" y="-69" font-family="Helvetica,sans-Serif" font-size="10.00">src/vdp_set_hscroll.c</text>
</a>
</g>
</g>
<!-- Node1&#45;&gt;Node19 -->
<g id="edge19" class="edge">
<title>Node1&#45;&gt;Node19</title>
<path fill="none" stroke="midnightblue" d="M2393.2,-128.1C2314.89,-121.76 2160.99,-107.81 2031.5,-87 2021.25,-85.35 2010.21,-83.18 2000.07,-81.01"/>
<polygon fill="midnightblue" stroke="midnightblue" points="2393.03,-131.59 2403.28,-128.9 2393.59,-124.62 2393.03,-131.59"/>
</g>
<!-- Node20 -->
<g id="node20" class="node">
<title>Node20</title>
<g id="a_node20"><a xlink:href="vdp__set__hscroll__dual__page_8c.html" target="_top" xlink:title=" ">
<polygon fill="none" stroke="black" points="2040.5,-56.5 2040.5,-86.5 2150.5,-86.5 2150.5,-56.5 2040.5,-56.5"/>
<text text-anchor="start" x="2048.5" y="-74.5" font-family="Helvetica,sans-Serif" font-size="10.00">src/vdp_set_hscroll</text>
<text text-anchor="middle" x="2095.5" y="-63.5" font-family="Helvetica,sans-Serif" font-size="10.00">_dual_page.c</text>
</a>
</g>
</g>
<!-- Node1&#45;&gt;Node20 -->
<g id="edge20" class="edge">
<title>Node1&#45;&gt;Node20</title>
<path fill="none" stroke="midnightblue" d="M2393.06,-124.92C2335.85,-116.81 2240.78,-102.61 2159.5,-87 2156.59,-86.44 2153.61,-85.85 2150.61,-85.23"/>
<polygon fill="midnightblue" stroke="midnightblue" points="2392.9,-128.44 2403.29,-126.37 2393.88,-121.5 2392.9,-128.44"/>
</g>
<!-- Node21 -->
<g id="node21" class="node">
<title>Node21</title>
<g id="a_node21"><a xlink:href="vdp__set__hscroll__mask_8c.html" target="_top" xlink:title=" ">
<polygon fill="none" stroke="black" points="2168.5,-56.5 2168.5,-86.5 2278.5,-86.5 2278.5,-56.5 2168.5,-56.5"/>
<text text-anchor="start" x="2176.5" y="-74.5" font-family="Helvetica,sans-Serif" font-size="10.00">src/vdp_set_hscroll</text>
<text text-anchor="middle" x="2223.5" y="-63.5" font-family="Helvetica,sans-Serif" font-size="10.00">_mask.c</text>
</a>
</g>
</g>
<!-- Node1&#45;&gt;Node21 -->
<g id="edge21" class="edge">
<title>Node1&#45;&gt;Node21</title>
<path fill="none" stroke="midnightblue" d="M2403.12,-120.86C2367.04,-111.14 2314.52,-97.01 2275.59,-86.52"/>
<polygon fill="midnightblue" stroke="midnightblue" points="2402.27,-124.25 2412.84,-123.48 2404.09,-117.5 2402.27,-124.25"/>
</g>
<!-- Node22 -->
<g id="node22" class="node">
<title>Node22</title>
<g id="a_node22"><a xlink:href="vdp__set__image__table_8c.html" target="_top" xlink:title=" ">
<polygon fill="none" stroke="black" points="2296.5,-62 2296.5,-81 2442.5,-81 2442.5,-62 2296.5,-62"/>
<text text-anchor="middle" x="2369.5" y="-69" font-family="Helvetica,sans-Serif" font-size="10.00">src/vdp_set_image_table.c</text>
</a>
</g>
</g>
<!-- Node1&#45;&gt;Node22 -->
<g id="edge22" class="edge">
<title>Node1&#45;&gt;Node22</title>
<path fill="none" stroke="midnightblue" d="M2425.56,-116.97C2411.21,-105.59 2392.02,-90.37 2380.23,-81.01"/>
<polygon fill="midnightblue" stroke="midnightblue" points="2423.74,-120 2433.75,-123.48 2428.1,-114.52 2423.74,-120"/>
</g>
<!-- Node23 -->
<g id="node23" class="node">
<title>Node23</title>
<g id="a_node23"><a xlink:href="vdp__set__palette_8c.html" target="_top" xlink:title=" ">
<polygon fill="none" stroke="black" points="2460.5,-62 2460.5,-81 2580.5,-81 2580.5,-62 2460.5,-62"/>
<text text-anchor="middle" x="2520.5" y="-69" font-family="Helvetica,sans-Serif" font-size="10.00">src/vdp_set_palette.c</text>
</a>
</g>
</g>
<!-- Node1&#45;&gt;Node23 -->
<g id="edge23" class="edge">
<title>Node1&#45;&gt;Node23</title>
<path fill="none" stroke="midnightblue" d="M2463.28,-117.29C2477.86,-105.88 2497.56,-90.46 2509.63,-81.01"/>
<polygon fill="midnightblue" stroke="midnightblue" points="2461.11,-114.55 2455.39,-123.48 2465.42,-120.07 2461.11,-114.55"/>
</g>
<!-- Node24 -->
<g id="node24" class="node">
<title>Node24</title>
<g id="a_node24"><a xlink:href="vdp__set__pattern__table_8c.html" target="_top" xlink:title=" ">
<polygon fill="none" stroke="black" points="2599,-56.5 2599,-86.5 2712,-86.5 2712,-56.5 2599,-56.5"/>
<text text-anchor="start" x="2607" y="-74.5" font-family="Helvetica,sans-Serif" font-size="10.00">src/vdp_set_pattern</text>
<text text-anchor="middle" x="2655.5" y="-63.5" font-family="Helvetica,sans-Serif" font-size="10.00">_table.c</text>
</a>
</g>
</g>
<!-- Node1&#45;&gt;Node24 -->
<g id="edge24" class="edge">
<title>Node1&#45;&gt;Node24</title>
<path fill="none" stroke="midnightblue" d="M2484.45,-120.73C2518.89,-111.02 2568.76,-96.96 2605.77,-86.52"/>
<polygon fill="midnightblue" stroke="midnightblue" points="2483.41,-117.39 2474.73,-123.48 2485.31,-124.13 2483.41,-117.39"/>
</g>
<!-- Node25 -->
<g id="node25" class="node">
<title>Node25</title>
<g id="a_node25"><a xlink:href="vdp__set__screen__lines_8c.html" target="_top" xlink:title=" ">
<polygon fill="none" stroke="black" points="2730.5,-56.5 2730.5,-86.5 2840.5,-86.5 2840.5,-56.5 2730.5,-56.5"/>
<text text-anchor="start" x="2738.5" y="-74.5" font-family="Helvetica,sans-Serif" font-size="10.00">src/vdp_set_screen</text>
<text text-anchor="middle" x="2785.5" y="-63.5" font-family="Helvetica,sans-Serif" font-size="10.00">_lines.c</text>
</a>
</g>
</g>
<!-- Node1&#45;&gt;Node25 -->
<g id="edge25" class="edge">
<title>Node1&#45;&gt;Node25</title>
<path fill="none" stroke="midnightblue" d="M2495.92,-124.62C2551.66,-116.39 2643.16,-102.22 2721.5,-87 2724.41,-86.43 2727.38,-85.84 2730.39,-85.21"/>
<polygon fill="midnightblue" stroke="midnightblue" points="2495.32,-121.17 2485.94,-126.08 2496.34,-128.09 2495.32,-121.17"/>
</g>
<!-- Node26 -->
<g id="node26" class="node">
<title>Node26</title>
<g id="a_node26"><a xlink:href="vdp__set__screen__mode_8c.html" target="_top" xlink:title=" ">
<polygon fill="none" stroke="black" points="2858.5,-56.5 2858.5,-86.5 2968.5,-86.5 2968.5,-56.5 2858.5,-56.5"/>
<text text-anchor="start" x="2866.5" y="-74.5" font-family="Helvetica,sans-Serif" font-size="10.00">src/vdp_set_screen</text>
<text text-anchor="middle" x="2913.5" y="-63.5" font-family="Helvetica,sans-Serif" font-size="10.00">_mode.c</text>
</a>
</g>
</g>
<!-- Node1&#45;&gt;Node26 -->
<g id="edge26" class="edge">
<title>Node1&#45;&gt;Node26</title>
<path fill="none" stroke="midnightblue" d="M2495.92,-128.15C2573.08,-121.94 2723.24,-108.25 2849.5,-87 2852.42,-86.51 2855.41,-85.97 2858.42,-85.39"/>
<polygon fill="midnightblue" stroke="midnightblue" points="2495.22,-124.69 2485.53,-128.97 2495.77,-131.67 2495.22,-124.69"/>
</g>
<!-- Node27 -->
<g id="node27" class="node">
<title>Node27</title>
<g id="a_node27"><a xlink:href="vdp__set__sprite__attribute__table_8c.html" target="_top" xlink:title=" ">
<polygon fill="none" stroke="black" points="2987,-56.5 2987,-86.5 3092,-86.5 3092,-56.5 2987,-56.5"/>
<text text-anchor="start" x="2995" y="-74.5" font-family="Helvetica,sans-Serif" font-size="10.00">src/vdp_set_sprite</text>
<text text-anchor="middle" x="3039.5" y="-63.5" font-family="Helvetica,sans-Serif" font-size="10.00">_attribute_table.c</text>
</a>
</g>
</g>
<!-- Node1&#45;&gt;Node27 -->
<g id="edge27" class="edge">
<title>Node1&#45;&gt;Node27</title>
<path fill="none" stroke="midnightblue" d="M2495.76,-130.15C2591.12,-126.17 2802.01,-114.78 2977.5,-87 2980.56,-86.52 2983.69,-85.96 2986.84,-85.37"/>
<polygon fill="midnightblue" stroke="midnightblue" points="2495.38,-126.67 2485.53,-130.57 2495.67,-133.66 2495.38,-126.67"/>
</g>
<!-- Node28 -->
<g id="node28" class="node">
<title>Node28</title>
<g id="a_node28"><a xlink:href="vdp__set__sprite__pattern__table_8c.html" target="_top" xlink:title=" ">
<polygon fill="none" stroke="black" points="3110,-56.5 3110,-86.5 3215,-86.5 3215,-56.5 3110,-56.5"/>
<text text-anchor="start" x="3118" y="-74.5" font-family="Helvetica,sans-Serif" font-size="10.00">src/vdp_set_sprite</text>
<text text-anchor="middle" x="3162.5" y="-63.5" font-family="Helvetica,sans-Serif" font-size="10.00">_pattern_table.c</text>
</a>
</g>
</g>
<!-- Node1&#45;&gt;Node28 -->
<g id="edge28" class="edge">
<title>Node1&#45;&gt;Node28</title>
<path fill="none" stroke="midnightblue" d="M2495.74,-131.36C2606.77,-129.35 2877.58,-121.04 3101.5,-87 3104.19,-86.59 3106.94,-86.12 3109.7,-85.61"/>
<polygon fill="midnightblue" stroke="midnightblue" points="2495.44,-127.86 2485.5,-131.54 2495.56,-134.86 2495.44,-127.86"/>
</g>
<!-- Node29 -->
<g id="node29" class="node">
<title>Node29</title>
<g id="a_node29"><a xlink:href="vdp__set__sprite__size_8c.html" target="_top" xlink:title=" ">
<polygon fill="none" stroke="black" points="3233,-56.5 3233,-86.5 3338,-86.5 3338,-56.5 3233,-56.5"/>
<text text-anchor="start" x="3241" y="-74.5" font-family="Helvetica,sans-Serif" font-size="10.00">src/vdp_set_sprite</text>
<text text-anchor="middle" x="3285.5" y="-63.5" font-family="Helvetica,sans-Serif" font-size="10.00">_size.c</text>
</a>
</g>
</g>
<!-- Node1&#45;&gt;Node29 -->
<g id="edge29" class="edge">
<title>Node1&#45;&gt;Node29</title>
<path fill="none" stroke="midnightblue" d="M2495.84,-132.15C2621.09,-131.83 2952,-126.93 3224.5,-87 3227.19,-86.61 3229.94,-86.15 3232.71,-85.65"/>
<polygon fill="midnightblue" stroke="midnightblue" points="2495.77,-128.65 2485.77,-132.16 2495.78,-135.65 2495.77,-128.65"/>
</g>
<!-- Node30 -->
<g id="node30" class="node">
<title>Node30</title>
<g id="a_node30"><a xlink:href="vdp__set__sprite__visible_8c.html" target="_top" xlink:title=" ">
<polygon fill="none" stroke="black" points="3356,-56.5 3356,-86.5 3461,-86.5 3461,-56.5 3356,-56.5"/>
<text text-anchor="start" x="3364" y="-74.5" font-family="Helvetica,sans-Serif" font-size="10.00">src/vdp_set_sprite</text>
<text text-anchor="middle" x="3408.5" y="-63.5" font-family="Helvetica,sans-Serif" font-size="10.00">_visible.c</text>
</a>
</g>
</g>
<!-- Node1&#45;&gt;Node30 -->
<g id="edge30" class="edge">
<title>Node1&#45;&gt;Node30</title>
<path fill="none" stroke="midnightblue" d="M2496.01,-132.73C2634.49,-133.97 3026.05,-132.82 3347.5,-87 3350.19,-86.62 3352.94,-86.17 3355.71,-85.67"/>
<polygon fill="midnightblue" stroke="midnightblue" points="2495.74,-129.22 2485.71,-132.63 2495.67,-136.22 2495.74,-129.22"/>
</g>
<!-- Node31 -->
<g id="node31" class="node">
<title>Node31</title>
<g id="a_node31"><a xlink:href="vdp__set__visible_8c.html" target="_top" xlink:title=" ">
<polygon fill="none" stroke="black" points="3479.5,-62 3479.5,-81 3597.5,-81 3597.5,-62 3479.5,-62"/>
<text text-anchor="middle" x="3538.5" y="-69" font-family="Helvetica,sans-Serif" font-size="10.00">src/vdp_set_visible.c</text>
</a>
</g>
</g>
<!-- Node1&#45;&gt;Node31 -->
<g id="edge31" class="edge">
<title>Node1&#45;&gt;Node31</title>
<path fill="none" stroke="midnightblue" d="M2495.8,-130.88C2675.91,-126.77 3278.78,-111.47 3470.5,-87 3481.4,-85.61 3493.14,-83.37 3503.75,-81.07"/>
<polygon fill="midnightblue" stroke="midnightblue" points="2495.47,-127.39 2485.55,-131.11 2495.63,-134.38 2495.47,-127.39"/>
</g>
<!-- Node32 -->
<g id="node32" class="node">
<title>Node32</title>
<g id="a_node32"><a xlink:href="vdp__set__vscroll_8c.html" target="_top" xlink:title=" ">
<polygon fill="none" stroke="black" points="3615.5,-62 3615.5,-81 3733.5,-81 3733.5,-62 3615.5,-62"/>
<text text-anchor="middle" x="3674.5" y="-69" font-family="Helvetica,sans-Serif" font-size="10.00">src/vdp_set_vscroll.c</text>
</a>
</g>
</g>
<!-- Node1&#45;&gt;Node32 -->
<g id="edge32" class="edge">
<title>Node1&#45;&gt;Node32</title>
<path fill="none" stroke="midnightblue" d="M2495.98,-131.18C2691.33,-127.89 3386.92,-114.46 3606.5,-87 3617.52,-85.62 3629.4,-83.36 3640.1,-81.03"/>
<polygon fill="midnightblue" stroke="midnightblue" points="2495.65,-127.69 2485.71,-131.35 2495.76,-134.68 2495.65,-127.69"/>
</g>
<!-- Node33 -->
<g id="node33" class="node">
<title>Node33</title>
<g id="a_node33"><a xlink:href="vdp__write__control_8c.html" target="_top" xlink:title=" ">
<polygon fill="none" stroke="black" points="3752,-62 3752,-81 3881,-81 3881,-62 3752,-62"/>
<text text-anchor="middle" x="3816.5" y="-69" font-family="Helvetica,sans-Serif" font-size="10.00">src/vdp_write_control.c</text>
</a>
</g>
</g>
<!-- Node1&#45;&gt;Node33 -->
<g id="edge33" class="edge">
<title>Node1&#45;&gt;Node33</title>
<path fill="none" stroke="midnightblue" d="M2495.67,-131.31C2704.71,-128.34 3494.53,-115.41 3742.5,-87 3754.47,-85.63 3767.39,-83.37 3779.03,-81.04"/>
<polygon fill="midnightblue" stroke="midnightblue" points="2495.53,-127.81 2485.58,-131.45 2495.63,-134.81 2495.53,-127.81"/>
</g>
<!-- Node34 -->
<g id="node34" class="node">
<title>Node34</title>
<g id="a_node34"><a xlink:href="vdp__write__palette_8c.html" target="_top" xlink:title=" ">
<polygon fill="none" stroke="black" points="3899.5,-62 3899.5,-81 4029.5,-81 4029.5,-62 3899.5,-62"/>
<text text-anchor="middle" x="3964.5" y="-69" font-family="Helvetica,sans-Serif" font-size="10.00">src/vdp_write_palette.c</text>
</a>
</g>
</g>
<!-- Node1&#45;&gt;Node34 -->
<g id="edge34" class="edge">
<title>Node1&#45;&gt;Node34</title>
<path fill="none" stroke="midnightblue" d="M2495.89,-131.52C2719.87,-129.26 3611.96,-118.41 3890.5,-87 3902.47,-85.65 3915.39,-83.4 3927.04,-81.07"/>
<polygon fill="midnightblue" stroke="midnightblue" points="2495.7,-128.02 2485.74,-131.62 2495.77,-135.02 2495.7,-128.02"/>
</g>
<!-- Node35 -->
<g id="node35" class="node">
<title>Node35</title>
<g id="a_node35"><a xlink:href="vmem__memset_8c.html" target="_top" xlink:title=" ">
<polygon fill="none" stroke="black" points="4048,-62 4048,-81 4167,-81 4167,-62 4048,-62"/>
<text text-anchor="middle" x="4107.5" y="-69" font-family="Helvetica,sans-Serif" font-size="10.00">src/vmem_memset.c</text>
</a>
</g>
</g>
<!-- Node1&#45;&gt;Node35 -->
<g id="edge35" class="edge">
<title>Node1&#45;&gt;Node35</title>
<path fill="none" stroke="midnightblue" d="M2495.65,-131.79C2733.09,-130.61 3729.33,-123.55 4038.5,-87 4049.81,-85.66 4062,-83.38 4072.95,-81.02"/>
<polygon fill="midnightblue" stroke="midnightblue" points="2495.55,-128.29 2485.57,-131.84 2495.59,-135.29 2495.55,-128.29"/>
</g>
<!-- Node36 -->
<g id="node36" class="node">
<title>Node36</title>
<g id="a_node36"><a xlink:href="vmem__read_8c.html" target="_top" xlink:title=" ">
<polygon fill="none" stroke="black" points="4185,-62 4185,-81 4286,-81 4286,-62 4185,-62"/>
<text text-anchor="middle" x="4235.5" y="-69" font-family="Helvetica,sans-Serif" font-size="10.00">src/vmem_read.c</text>
</a>
</g>
</g>
<!-- Node1&#45;&gt;Node36 -->
<g id="edge36" class="edge">
<title>Node1&#45;&gt;Node36</title>
<path fill="none" stroke="midnightblue" d="M2495.98,-132.15C2746.47,-132.67 3839.43,-132.26 4176.5,-87 4186.22,-85.69 4196.67,-83.42 4206.03,-81.06"/>
<polygon fill="midnightblue" stroke="midnightblue" points="2495.72,-128.65 2485.71,-132.13 2495.7,-135.65 2495.72,-128.65"/>
</g>
<!-- Node37 -->
<g id="node37" class="node">
<title>Node37</title>
<g id="a_node37"><a xlink:href="vmem__set__read__address_8c.html" target="_top" xlink:title=" ">
<polygon fill="none" stroke="black" points="4304.5,-62 4304.5,-81 4468.5,-81 4468.5,-62 4304.5,-62"/>
<text text-anchor="middle" x="4386.5" y="-69" font-family="Helvetica,sans-Serif" font-size="10.00">src/vmem_set_read_address.c</text>
</a>
</g>
</g>
<!-- Node1&#45;&gt;Node37 -->
<g id="edge37" class="edge">
<title>Node1&#45;&gt;Node37</title>
<path fill="none" stroke="midnightblue" d="M2496.04,-131.68C2756.74,-129.92 3932.01,-120.23 4295.5,-87 4310.32,-85.65 4326.38,-83.36 4340.82,-81"/>
<polygon fill="midnightblue" stroke="midnightblue" points="2495.71,-128.18 2485.73,-131.75 2495.75,-135.18 2495.71,-128.18"/>
</g>
<!-- Node38 -->
<g id="node38" class="node">
<title>Node38</title>
<g id="a_node38"><a xlink:href="vmem__set__sprite__color__s_8c.html" target="_top" xlink:title=" ">
<polygon fill="none" stroke="black" points="4487,-56.5 4487,-86.5 4606,-86.5 4606,-56.5 4487,-56.5"/>
<text text-anchor="start" x="4495" y="-74.5" font-family="Helvetica,sans-Serif" font-size="10.00">src/vmem_set_sprite</text>
<text text-anchor="middle" x="4546.5" y="-63.5" font-family="Helvetica,sans-Serif" font-size="10.00">_color_s.c</text>
</a>
</g>
</g>
<!-- Node1&#45;&gt;Node38 -->
<g id="edge38" class="edge">
<title>Node1&#45;&gt;Node38</title>
<path fill="none" stroke="midnightblue" d="M2495.75,-132.15C2771.03,-132.76 4076.69,-133.15 4477.5,-87 4480.54,-86.65 4483.64,-86.23 4486.77,-85.76"/>
<polygon fill="midnightblue" stroke="midnightblue" points="2495.65,-128.65 2485.64,-132.13 2495.63,-135.65 2495.65,-128.65"/>
</g>
<!-- Node39 -->
<g id="node39" class="node">
<title>Node39</title>
<g id="a_node39"><a xlink:href="vmem__set__write__address_8c.html" target="_top" xlink:title=" ">
<polygon fill="none" stroke="black" points="4624.5,-56.5 4624.5,-86.5 4740.5,-86.5 4740.5,-56.5 4624.5,-56.5"/>
<text text-anchor="start" x="4632.5" y="-74.5" font-family="Helvetica,sans-Serif" font-size="10.00">src/vmem_set_write</text>
<text text-anchor="middle" x="4682.5" y="-63.5" font-family="Helvetica,sans-Serif" font-size="10.00">_address.c</text>
</a>
</g>
</g>
<!-- Node1&#45;&gt;Node39 -->
<g id="edge39" class="edge">
<title>Node1&#45;&gt;Node39</title>
<path fill="none" stroke="midnightblue" d="M2495.98,-132.28C2782.79,-133.62 4186.02,-137.45 4615.5,-87 4618.34,-86.67 4621.23,-86.27 4624.15,-85.82"/>
<polygon fill="midnightblue" stroke="midnightblue" points="2495.88,-128.78 2485.86,-132.23 2495.85,-135.78 2495.88,-128.78"/>
</g>
<!-- Node40 -->
<g id="node40" class="node">
<title>Node40</title>
<g id="a_node40"><a xlink:href="vmem__write_8c.html" target="_top" xlink:title=" ">
<polygon fill="none" stroke="black" points="4758.5,-62 4758.5,-81 4862.5,-81 4862.5,-62 4758.5,-62"/>
<text text-anchor="middle" x="4810.5" y="-69" font-family="Helvetica,sans-Serif" font-size="10.00">src/vmem_write.c</text>
</a>
</g>
</g>
<!-- Node1&#45;&gt;Node40 -->
<g id="edge40" class="edge">
<title>Node1&#45;&gt;Node40</title>
<path fill="none" stroke="midnightblue" d="M2495.96,-131.66C2815.21,-129.43 4519.34,-116.26 4749.5,-87 4759.65,-85.71 4770.57,-83.41 4780.33,-81.02"/>
<polygon fill="midnightblue" stroke="midnightblue" points="2495.59,-128.16 2485.62,-131.73 2495.64,-135.16 2495.59,-128.16"/>
</g>
<!-- Node2&#45;&gt;Node3 -->
<g id="edge2" class="edge">
<title>Node2&#45;&gt;Node3</title>
<path fill="none" stroke="midnightblue" d="M155.77,-58.13C127.99,-46.57 87.25,-29.62 62.95,-19.51"/>
<polygon fill="midnightblue" stroke="midnightblue" points="154.43,-61.36 165.01,-61.98 157.12,-54.9 154.43,-61.36"/>
</g>
<!-- Node4 -->
<g id="node4" class="node">
<title>Node4</title>
<g id="a_node4"><a xlink:href="vmem__set__metasprite__a_8c.html" target="_top" xlink:title=" ">
<polygon fill="none" stroke="black" points="103.5,-0.5 103.5,-19.5 267.5,-19.5 267.5,-0.5 103.5,-0.5"/>
<text text-anchor="middle" x="185.5" y="-7.5" font-family="Helvetica,sans-Serif" font-size="10.00">src/vmem_set_metasprite_a.c</text>
</a>
</g>
</g>
<!-- Node2&#45;&gt;Node4 -->
<g id="edge3" class="edge">
<title>Node2&#45;&gt;Node4</title>
<path fill="none" stroke="midnightblue" d="M185.5,-51.82C185.5,-41 185.5,-27.9 185.5,-19.51"/>
<polygon fill="midnightblue" stroke="midnightblue" points="182,-51.98 185.5,-61.98 189,-51.98 182,-51.98"/>
</g>
<!-- Node5 -->
<g id="node5" class="node">
<title>Node5</title>
<g id="a_node5"><a xlink:href="vmem__set__metasprite__m_8c.html" target="_top" xlink:title=" ">
<polygon fill="none" stroke="black" points="286,-0.5 286,-19.5 453,-19.5 453,-0.5 286,-0.5"/>
<text text-anchor="middle" x="369.5" y="-7.5" font-family="Helvetica,sans-Serif" font-size="10.00">src/vmem_set_metasprite_m.c</text>
</a>
</g>
</g>
<!-- Node2&#45;&gt;Node5 -->
<g id="edge4" class="edge">
<title>Node2&#45;&gt;Node5</title>
<path fill="none" stroke="midnightblue" d="M221.43,-58.88C257.2,-47.32 311.24,-29.84 343.19,-19.51"/>
<polygon fill="midnightblue" stroke="midnightblue" points="220.3,-55.57 211.86,-61.98 222.45,-62.23 220.3,-55.57"/>
</g>
<!-- Node6 -->
<g id="node6" class="node">
<title>Node6</title>
<g id="a_node6"><a xlink:href="vmem__set__metasprite__s_8c.html" target="_top" xlink:title=" ">
<polygon fill="none" stroke="black" points="471,-0.5 471,-19.5 634,-19.5 634,-0.5 471,-0.5"/>
<text text-anchor="middle" x="552.5" y="-7.5" font-family="Helvetica,sans-Serif" font-size="10.00">src/vmem_set_metasprite_s.c</text>
</a>
</g>
</g>
<!-- Node2&#45;&gt;Node6 -->
<g id="edge5" class="edge">
<title>Node2&#45;&gt;Node6</title>
<path fill="none" stroke="midnightblue" d="M233.79,-59.83C240.4,-58.47 247.11,-57.16 253.5,-56 334.07,-41.36 427.48,-27.85 488.16,-19.53"/>
<polygon fill="midnightblue" stroke="midnightblue" points="232.62,-56.49 223.54,-61.96 234.05,-63.35 232.62,-56.49"/>
</g>
</g>
</svg>
