<?xml version="1.0" encoding="UTF-8" standalone="no"?>
<!DOCTYPE svg PUBLIC "-//W3C//DTD SVG 1.1//EN"
 "http://www.w3.org/Graphics/SVG/1.1/DTD/svg11.dtd">
<!-- Generated by graphviz version 2.44.0 ()
 -->
<!-- Title: include/vdp.h Pages: 1 -->
<svg width="4511pt" height="151pt"
 viewBox="0.00 0.00 4511.00 151.00" xmlns="http://www.w3.org/2000/svg" xmlns:xlink="http://www.w3.org/1999/xlink">
<g id="graph0" class="graph" transform="scale(1 1) rotate(0) translate(4 147)">
<title>include/vdp.h</title>
<!-- Node1 -->
<g id="node1" class="node">
<title>Node1</title>
<g id="a_node1"><a xlink:title="Copyright (c) 2021 Daishi Mori (mori0091)">
<polygon fill="#bfbfbf" stroke="black" points="2229,-123.5 2229,-142.5 2303,-142.5 2303,-123.5 2229,-123.5"/>
<text text-anchor="middle" x="2266" y="-130.5" font-family="Helvetica,sans-Serif" font-size="10.00">include/vdp.h</text>
</a>
</g>
</g>
<!-- Node2 -->
<g id="node2" class="node">
<title>Node2</title>
<g id="a_node2"><a xlink:href="metasprite_8h.html" target="_top" xlink:title="Copyright (c) 2021 Daishi Mori (mori0091)">
<polygon fill="none" stroke="black" points="116,-62 116,-81 220,-81 220,-62 116,-62"/>
<text text-anchor="middle" x="168" y="-69" font-family="Helvetica,sans-Serif" font-size="10.00">include/metasprite.h</text>
</a>
</g>
</g>
<!-- Node1&#45;&gt;Node2 -->
<g id="edge1" class="edge">
<title>Node1&#45;&gt;Node2</title>
<path fill="none" stroke="midnightblue" d="M2218.77,-131.56C1932.21,-128.78 431.96,-113.07 229,-87 218.85,-85.7 207.93,-83.4 198.17,-81"/>
<polygon fill="midnightblue" stroke="midnightblue" points="2218.8,-135.06 2228.84,-131.65 2218.87,-128.06 2218.8,-135.06"/>
</g>
<!-- Node3 -->
<g id="node3" class="node">
<title>Node3</title>
<g id="a_node3"><a xlink:href="msx_8h.html" target="_top" xlink:title="Copyright (c) 2021 Daishi Mori (mori0091)">
<polygon fill="none" stroke="black" points="0,-0.5 0,-19.5 76,-19.5 76,-0.5 0,-0.5"/>
<text text-anchor="middle" x="38" y="-7.5" font-family="Helvetica,sans-Serif" font-size="10.00">include/msx.h</text>
</a>
</g>
</g>
<!-- Node1&#45;&gt;Node3 -->
<g id="edge6" class="edge">
<title>Node1&#45;&gt;Node3</title>
<path fill="none" stroke="midnightblue" d="M2218.23,-132.07C1909.53,-132.41 206.27,-132.19 107,-87 75.53,-72.67 52.13,-36.42 42.64,-19.69"/>
<polygon fill="midnightblue" stroke="midnightblue" points="2218.62,-135.57 2228.62,-132.06 2218.61,-128.57 2218.62,-135.57"/>
</g>
<!-- Node7 -->
<g id="node7" class="node">
<title>Node7</title>
<g id="a_node7"><a xlink:href="vdp_8c.html" target="_top" xlink:title="Copyright (c) 2021 Daishi Mori (mori0091)">
<polygon fill="none" stroke="black" points="238,-62 238,-81 294,-81 294,-62 238,-62"/>
<text text-anchor="middle" x="266" y="-69" font-family="Helvetica,sans-Serif" font-size="10.00">src/vdp.c</text>
</a>
</g>
</g>
<!-- Node1&#45;&gt;Node7 -->
<g id="edge7" class="edge">
<title>Node1&#45;&gt;Node7</title>
<path fill="none" stroke="midnightblue" d="M2218.67,-131.9C1937.84,-131.21 495.93,-125.75 303,-87 296.64,-85.72 289.96,-83.43 284.06,-81.04"/>
<polygon fill="midnightblue" stroke="midnightblue" points="2218.92,-135.41 2228.93,-131.93 2218.93,-128.41 2218.92,-135.41"/>
</g>
<!-- Node8 -->
<g id="node8" class="node">
<title>Node8</title>
<g id="a_node8"><a xlink:href="vdp__cmd__execute__HMMM_8c.html" target="_top" xlink:title="Copyright (c) 2021 Daishi Mori (mori0091)">
<polygon fill="none" stroke="black" points="312,-56.5 312,-86.5 424,-86.5 424,-56.5 312,-56.5"/>
<text text-anchor="start" x="320" y="-74.5" font-family="Helvetica,sans-Serif" font-size="10.00">src/vdp_cmd_execute</text>
<text text-anchor="middle" x="368" y="-63.5" font-family="Helvetica,sans-Serif" font-size="10.00">_HMMM.c</text>
</a>
</g>
</g>
<!-- Node1&#45;&gt;Node8 -->
<g id="edge8" class="edge">
<title>Node1&#45;&gt;Node8</title>
<path fill="none" stroke="midnightblue" d="M2218.67,-132.09C1968.03,-132.36 793.54,-131.21 433,-87 430.13,-86.65 427.2,-86.23 424.25,-85.75"/>
<polygon fill="midnightblue" stroke="midnightblue" points="2218.9,-135.59 2228.9,-132.07 2218.89,-128.59 2218.9,-135.59"/>
</g>
<!-- Node9 -->
<g id="node9" class="node">
<title>Node9</title>
<g id="a_node9"><a xlink:href="vdp__cmd__execute__HMMV_8c.html" target="_top" xlink:title="Copyright (c) 2021 Daishi Mori (mori0091)">
<polygon fill="none" stroke="black" points="442,-56.5 442,-86.5 554,-86.5 554,-56.5 442,-56.5"/>
<text text-anchor="start" x="450" y="-74.5" font-family="Helvetica,sans-Serif" font-size="10.00">src/vdp_cmd_execute</text>
<text text-anchor="middle" x="498" y="-63.5" font-family="Helvetica,sans-Serif" font-size="10.00">_HMMV.c</text>
</a>
</g>
</g>
<!-- Node1&#45;&gt;Node9 -->
<g id="edge9" class="edge">
<title>Node1&#45;&gt;Node9</title>
<path fill="none" stroke="midnightblue" d="M2218.61,-131.98C1978.68,-131.71 896.34,-128.19 563,-87 560.13,-86.65 557.2,-86.22 554.25,-85.75"/>
<polygon fill="midnightblue" stroke="midnightblue" points="2218.74,-135.48 2228.74,-131.99 2218.75,-128.48 2218.74,-135.48"/>
</g>
<!-- Node10 -->
<g id="node10" class="node">
<title>Node10</title>
<g id="a_node10"><a xlink:href="vdp__cmd__execute__LMMM_8c.html" target="_top" xlink:title="Copyright (c) 2021 Daishi Mori (mori0091)">
<polygon fill="none" stroke="black" points="572,-56.5 572,-86.5 684,-86.5 684,-56.5 572,-56.5"/>
<text text-anchor="start" x="580" y="-74.5" font-family="Helvetica,sans-Serif" font-size="10.00">src/vdp_cmd_execute</text>
<text text-anchor="middle" x="628" y="-63.5" font-family="Helvetica,sans-Serif" font-size="10.00">_LMMM.c</text>
</a>
</g>
</g>
<!-- Node1&#45;&gt;Node10 -->
<g id="edge10" class="edge">
<title>Node1&#45;&gt;Node10</title>
<path fill="none" stroke="midnightblue" d="M2218.62,-131.86C1989.98,-131.02 999.23,-125.18 693,-87 690.13,-86.64 687.2,-86.22 684.26,-85.74"/>
<polygon fill="midnightblue" stroke="midnightblue" points="2218.91,-135.36 2228.92,-131.9 2218.94,-128.36 2218.91,-135.36"/>
</g>
<!-- Node11 -->
<g id="node11" class="node">
<title>Node11</title>
<g id="a_node11"><a xlink:href="vdp__cmd__execute__LMMV_8c.html" target="_top" xlink:title="Copyright (c) 2021 Daishi Mori (mori0091)">
<polygon fill="none" stroke="black" points="702,-56.5 702,-86.5 814,-86.5 814,-56.5 702,-56.5"/>
<text text-anchor="start" x="710" y="-74.5" font-family="Helvetica,sans-Serif" font-size="10.00">src/vdp_cmd_execute</text>
<text text-anchor="middle" x="758" y="-63.5" font-family="Helvetica,sans-Serif" font-size="10.00">_LMMV.c</text>
</a>
</g>
</g>
<!-- Node1&#45;&gt;Node11 -->
<g id="edge11" class="edge">
<title>Node1&#45;&gt;Node11</title>
<path fill="none" stroke="midnightblue" d="M2218.76,-131.7C2002.2,-130.15 1103.09,-121.71 824,-87 820.74,-86.59 817.4,-86.1 814.05,-85.55"/>
<polygon fill="midnightblue" stroke="midnightblue" points="2218.82,-135.2 2228.84,-131.77 2218.87,-128.2 2218.82,-135.2"/>
</g>
<!-- Node12 -->
<g id="node12" class="node">
<title>Node12</title>
<g id="a_node12"><a xlink:href="vdp__cmd__set__unrestricted_8c.html" target="_top" xlink:title="Copyright (c) 2021 Daishi Mori (mori0091)">
<polygon fill="none" stroke="black" points="832.5,-62 832.5,-81 987.5,-81 987.5,-62 832.5,-62"/>
<text text-anchor="middle" x="910" y="-69" font-family="Helvetica,sans-Serif" font-size="10.00">src/vdp_cmd_set_unrestricted.c</text>
</a>
</g>
</g>
<!-- Node1&#45;&gt;Node12 -->
<g id="edge12" class="edge">
<title>Node1&#45;&gt;Node12</title>
<path fill="none" stroke="midnightblue" d="M2218.56,-132.53C2051.06,-133.93 1471.84,-134.79 997,-87 983.14,-85.6 968.13,-83.37 954.56,-81.07"/>
<polygon fill="midnightblue" stroke="midnightblue" points="2218.8,-136.03 2228.77,-132.44 2218.74,-129.03 2218.8,-136.03"/>
</g>
<!-- Node13 -->
<g id="node13" class="node">
<title>Node13</title>
<g id="a_node13"><a xlink:href="vdp__get__sprite__mode_8c.html" target="_top" xlink:title="Copyright (c) 2021 Daishi Mori (mori0091)">
<polygon fill="none" stroke="black" points="1005.5,-56.5 1005.5,-86.5 1102.5,-86.5 1102.5,-56.5 1005.5,-56.5"/>
<text text-anchor="start" x="1013.5" y="-74.5" font-family="Helvetica,sans-Serif" font-size="10.00">src/vdp_get_sprite</text>
<text text-anchor="middle" x="1054" y="-63.5" font-family="Helvetica,sans-Serif" font-size="10.00">_mode.c</text>
</a>
</g>
</g>
<!-- Node1&#45;&gt;Node13 -->
<g id="edge13" class="edge">
<title>Node1&#45;&gt;Node13</title>
<path fill="none" stroke="midnightblue" d="M2218.73,-131.45C2030.11,-129.08 1331.03,-118.31 1112,-87 1108.92,-86.56 1105.76,-86.02 1102.59,-85.42"/>
<polygon fill="midnightblue" stroke="midnightblue" points="2218.83,-134.96 2228.87,-131.58 2218.91,-127.96 2218.83,-134.96"/>
</g>
<!-- Node14 -->
<g id="node14" class="node">
<title>Node14</title>
<g id="a_node14"><a xlink:href="vdp__get__status_8c.html" target="_top" xlink:title="Copyright (c) 2021 Daishi Mori (mori0091)">
<polygon fill="none" stroke="black" points="1120.5,-62 1120.5,-81 1227.5,-81 1227.5,-62 1120.5,-62"/>
<text text-anchor="middle" x="1174" y="-69" font-family="Helvetica,sans-Serif" font-size="10.00">src/vdp_get_status.c</text>
</a>
</g>
</g>
<!-- Node1&#45;&gt;Node14 -->
<g id="edge14" class="edge">
<title>Node1&#45;&gt;Node14</title>
<path fill="none" stroke="midnightblue" d="M2218.78,-131.08C2043.53,-127.49 1430.61,-113.29 1237,-87 1226.77,-85.61 1215.75,-83.35 1205.84,-81.02"/>
<polygon fill="midnightblue" stroke="midnightblue" points="2218.89,-134.58 2228.96,-131.29 2219.03,-127.58 2218.89,-134.58"/>
</g>
<!-- Node15 -->
<g id="node15" class="node">
<title>Node15</title>
<g id="a_node15"><a xlink:href="vdp__set__adjust_8c.html" target="_top" xlink:title="Copyright (c) 2021 Daishi Mori (mori0091)">
<polygon fill="none" stroke="black" points="1245.5,-62 1245.5,-81 1352.5,-81 1352.5,-62 1245.5,-62"/>
<text text-anchor="middle" x="1299" y="-69" font-family="Helvetica,sans-Serif" font-size="10.00">src/vdp_set_adjust.c</text>
</a>
</g>
</g>
<!-- Node1&#45;&gt;Node15 -->
<g id="edge15" class="edge">
<title>Node1&#45;&gt;Node15</title>
<path fill="none" stroke="midnightblue" d="M2218.37,-132.58C2083.39,-133.58 1687.06,-132.14 1362,-87 1351.88,-85.6 1341,-83.36 1331.17,-81.06"/>
<polygon fill="midnightblue" stroke="midnightblue" points="2218.78,-136.07 2228.75,-132.49 2218.72,-129.07 2218.78,-136.07"/>
</g>
<!-- Node16 -->
<g id="node16" class="node">
<title>Node16</title>
<g id="a_node16"><a xlink:href="vdp__set__color_8c.html" target="_top" xlink:title="Copyright (c) 2021 Daishi Mori (mori0091)">
<polygon fill="none" stroke="black" points="1370.5,-62 1370.5,-81 1471.5,-81 1471.5,-62 1370.5,-62"/>
<text text-anchor="middle" x="1421" y="-69" font-family="Helvetica,sans-Serif" font-size="10.00">src/vdp_set_color.c</text>
</a>
</g>
</g>
<!-- Node1&#45;&gt;Node16 -->
<g id="edge16" class="edge">
<title>Node1&#45;&gt;Node16</title>
<path fill="none" stroke="midnightblue" d="M2218.82,-132.24C2096.35,-132.23 1758.51,-128.14 1481,-87 1471.35,-85.57 1460.98,-83.32 1451.62,-81.02"/>
<polygon fill="midnightblue" stroke="midnightblue" points="2218.98,-135.74 2228.98,-132.23 2218.97,-128.74 2218.98,-135.74"/>
</g>
<!-- Node17 -->
<g id="node17" class="node">
<title>Node17</title>
<g id="a_node17"><a xlink:href="vdp__set__color__table_8c.html" target="_top" xlink:title="Copyright (c) 2021 Daishi Mori (mori0091)">
<polygon fill="none" stroke="black" points="1490,-62 1490,-81 1618,-81 1618,-62 1490,-62"/>
<text text-anchor="middle" x="1554" y="-69" font-family="Helvetica,sans-Serif" font-size="10.00">src/vdp_set_color_table.c</text>
</a>
</g>
</g>
<!-- Node1&#45;&gt;Node17 -->
<g id="edge17" class="edge">
<title>Node1&#45;&gt;Node17</title>
<path fill="none" stroke="midnightblue" d="M2218.66,-130.7C2112.41,-127.35 1847.02,-116.48 1627,-87 1615.6,-85.47 1603.31,-83.25 1592.11,-81.01"/>
<polygon fill="midnightblue" stroke="midnightblue" points="2218.64,-134.2 2228.74,-131.01 2218.85,-127.21 2218.64,-134.2"/>
</g>
<!-- Node18 -->
<g id="node18" class="node">
<title>Node18</title>
<g id="a_node18"><a xlink:href="vdp__set__control_8c.html" target="_top" xlink:title="Copyright (c) 2021 Daishi Mori (mori0091)">
<polygon fill="none" stroke="black" points="1636,-62 1636,-81 1746,-81 1746,-62 1636,-62"/>
<text text-anchor="middle" x="1691" y="-69" font-family="Helvetica,sans-Serif" font-size="10.00">src/vdp_set_control.c</text>
</a>
</g>
</g>
<!-- Node1&#45;&gt;Node18 -->
<g id="edge18" class="edge">
<title>Node1&#45;&gt;Node18</title>
<path fill="none" stroke="midnightblue" d="M2218.81,-129.91C2128.51,-125.46 1925.19,-113.22 1756,-87 1745.95,-85.44 1735.12,-83.24 1725.25,-81.02"/>
<polygon fill="midnightblue" stroke="midnightblue" points="2218.84,-133.42 2229,-130.41 2219.18,-126.43 2218.84,-133.42"/>
</g>
<!-- Node19 -->
<g id="node19" class="node">
<title>Node19</title>
<g id="a_node19"><a xlink:href="vdp__set__hscroll_8c.html" target="_top" xlink:title="Copyright (c) 2021 Daishi Mori (mori0091)">
<polygon fill="none" stroke="black" points="1764.5,-62 1764.5,-81 1873.5,-81 1873.5,-62 1764.5,-62"/>
<text text-anchor="middle" x="1819" y="-69" font-family="Helvetica,sans-Serif" font-size="10.00">src/vdp_set_hscroll.c</text>
</a>
</g>
</g>
<!-- Node1&#45;&gt;Node19 -->
<g id="edge19" class="edge">
<title>Node1&#45;&gt;Node19</title>
<path fill="none" stroke="midnightblue" d="M2218.65,-128.06C2146.08,-121.66 2003.13,-107.61 1883,-87 1873.46,-85.36 1863.19,-83.21 1853.74,-81.07"/>
<polygon fill="midnightblue" stroke="midnightblue" points="2218.57,-131.57 2228.84,-128.95 2219.18,-124.6 2218.57,-131.57"/>
</g>
<!-- Node20 -->
<g id="node20" class="node">
<title>Node20</title>
<g id="a_node20"><a xlink:href="vdp__set__hscroll__dual__page_8c.html" target="_top" xlink:title="Copyright (c) 2021 Daishi Mori (mori0091)">
<polygon fill="none" stroke="black" points="1891.5,-56.5 1891.5,-86.5 1992.5,-86.5 1992.5,-56.5 1891.5,-56.5"/>
<text text-anchor="start" x="1899.5" y="-74.5" font-family="Helvetica,sans-Serif" font-size="10.00">src/vdp_set_hscroll</text>
<text text-anchor="middle" x="1942" y="-63.5" font-family="Helvetica,sans-Serif" font-size="10.00">_dual_page.c</text>
</a>
</g>
</g>
<!-- Node1&#45;&gt;Node20 -->
<g id="edge20" class="edge">
<title>Node1&#45;&gt;Node20</title>
<path fill="none" stroke="midnightblue" d="M2218.58,-124.92C2165.59,-116.77 2077.35,-102.51 2002,-87 1998.96,-86.37 1995.83,-85.7 1992.68,-85.01"/>
<polygon fill="midnightblue" stroke="midnightblue" points="2218.27,-128.41 2228.69,-126.46 2219.33,-121.49 2218.27,-128.41"/>
</g>
<!-- Node21 -->
<g id="node21" class="node">
<title>Node21</title>
<g id="a_node21"><a xlink:href="vdp__set__hscroll__mask_8c.html" target="_top" xlink:title="Copyright (c) 2021 Daishi Mori (mori0091)">
<polygon fill="none" stroke="black" points="2010.5,-56.5 2010.5,-86.5 2111.5,-86.5 2111.5,-56.5 2010.5,-56.5"/>
<text text-anchor="start" x="2018.5" y="-74.5" font-family="Helvetica,sans-Serif" font-size="10.00">src/vdp_set_hscroll</text>
<text text-anchor="middle" x="2061" y="-63.5" font-family="Helvetica,sans-Serif" font-size="10.00">_mask.c</text>
</a>
</g>
</g>
<!-- Node1&#45;&gt;Node21 -->
<g id="edge21" class="edge">
<title>Node1&#45;&gt;Node21</title>
<path fill="none" stroke="midnightblue" d="M2226.75,-120.61C2193.31,-110.9 2145.12,-96.92 2109.31,-86.52"/>
<polygon fill="midnightblue" stroke="midnightblue" points="2226.05,-124.05 2236.63,-123.48 2228,-117.33 2226.05,-124.05"/>
</g>
<!-- Node22 -->
<g id="node22" class="node">
<title>Node22</title>
<g id="a_node22"><a xlink:href="vdp__set__image__table_8c.html" target="_top" xlink:title="Copyright (c) 2021 Daishi Mori (mori0091)">
<polygon fill="none" stroke="black" points="2129.5,-62 2129.5,-81 2262.5,-81 2262.5,-62 2129.5,-62"/>
<text text-anchor="middle" x="2196" y="-69" font-family="Helvetica,sans-Serif" font-size="10.00">src/vdp_set_image_table.c</text>
</a>
</g>
</g>
<!-- Node1&#45;&gt;Node22 -->
<g id="edge22" class="edge">
<title>Node1&#45;&gt;Node22</title>
<path fill="none" stroke="midnightblue" d="M2248.32,-116.97C2234.93,-105.59 2217.02,-90.37 2206.01,-81.01"/>
<polygon fill="midnightblue" stroke="midnightblue" points="2246.08,-119.67 2255.97,-123.48 2250.62,-114.33 2246.08,-119.67"/>
</g>
<!-- Node23 -->
<g id="node23" class="node">
<title>Node23</title>
<g id="a_node23"><a xlink:href="vdp__set__palette_8c.html" target="_top" xlink:title="Copyright (c) 2021 Daishi Mori (mori0091)">
<polygon fill="none" stroke="black" points="2281,-62 2281,-81 2391,-81 2391,-62 2281,-62"/>
<text text-anchor="middle" x="2336" y="-69" font-family="Helvetica,sans-Serif" font-size="10.00">src/vdp_set_palette.c</text>
</a>
</g>
</g>
<!-- Node1&#45;&gt;Node23 -->
<g id="edge23" class="edge">
<title>Node1&#45;&gt;Node23</title>
<path fill="none" stroke="midnightblue" d="M2283.68,-116.97C2297.07,-105.59 2314.98,-90.37 2325.99,-81.01"/>
<polygon fill="midnightblue" stroke="midnightblue" points="2281.38,-114.33 2276.03,-123.48 2285.92,-119.67 2281.38,-114.33"/>
</g>
<!-- Node24 -->
<g id="node24" class="node">
<title>Node24</title>
<g id="a_node24"><a xlink:href="vdp__set__pattern__table_8c.html" target="_top" xlink:title="Copyright (c) 2021 Daishi Mori (mori0091)">
<polygon fill="none" stroke="black" points="2409.5,-56.5 2409.5,-86.5 2512.5,-86.5 2512.5,-56.5 2409.5,-56.5"/>
<text text-anchor="start" x="2417.5" y="-74.5" font-family="Helvetica,sans-Serif" font-size="10.00">src/vdp_set_pattern</text>
<text text-anchor="middle" x="2461" y="-63.5" font-family="Helvetica,sans-Serif" font-size="10.00">_table.c</text>
</a>
</g>
</g>
<!-- Node1&#45;&gt;Node24 -->
<g id="edge24" class="edge">
<title>Node1&#45;&gt;Node24</title>
<path fill="none" stroke="midnightblue" d="M2303.74,-120.48C2335.54,-110.78 2381.13,-96.87 2415.04,-86.52"/>
<polygon fill="midnightblue" stroke="midnightblue" points="2302.48,-117.21 2293.94,-123.48 2304.52,-123.9 2302.48,-117.21"/>
</g>
<!-- Node25 -->
<g id="node25" class="node">
<title>Node25</title>
<g id="a_node25"><a xlink:href="vdp__set__screen__lines_8c.html" target="_top" xlink:title="Copyright (c) 2021 Daishi Mori (mori0091)">
<polygon fill="none" stroke="black" points="2531,-56.5 2531,-86.5 2633,-86.5 2633,-56.5 2531,-56.5"/>
<text text-anchor="start" x="2539" y="-74.5" font-family="Helvetica,sans-Serif" font-size="10.00">src/vdp_set_screen</text>
<text text-anchor="middle" x="2582" y="-63.5" font-family="Helvetica,sans-Serif" font-size="10.00">_lines.c</text>
</a>
</g>
</g>
<!-- Node1&#45;&gt;Node25 -->
<g id="edge25" class="edge">
<title>Node1&#45;&gt;Node25</title>
<path fill="none" stroke="midnightblue" d="M2313.18,-124.62C2364.67,-116.36 2449.47,-102.12 2522,-87 2524.94,-86.39 2527.95,-85.74 2530.99,-85.06"/>
<polygon fill="midnightblue" stroke="midnightblue" points="2312.35,-121.21 2303.02,-126.24 2313.45,-128.12 2312.35,-121.21"/>
</g>
<!-- Node26 -->
<g id="node26" class="node">
<title>Node26</title>
<g id="a_node26"><a xlink:href="vdp__set__screen__mode_8c.html" target="_top" xlink:title="Copyright (c) 2021 Daishi Mori (mori0091)">
<polygon fill="none" stroke="black" points="2651,-56.5 2651,-86.5 2753,-86.5 2753,-56.5 2651,-56.5"/>
<text text-anchor="start" x="2659" y="-74.5" font-family="Helvetica,sans-Serif" font-size="10.00">src/vdp_set_screen</text>
<text text-anchor="middle" x="2702" y="-63.5" font-family="Helvetica,sans-Serif" font-size="10.00">_mode.c</text>
</a>
</g>
</g>
<!-- Node1&#45;&gt;Node26 -->
<g id="edge26" class="edge">
<title>Node1&#45;&gt;Node26</title>
<path fill="none" stroke="midnightblue" d="M2313.08,-128.16C2384.54,-121.94 2524.52,-108.15 2642,-87 2644.85,-86.49 2647.76,-85.92 2650.7,-85.32"/>
<polygon fill="midnightblue" stroke="midnightblue" points="2312.7,-124.68 2303.04,-129.03 2313.3,-131.66 2312.7,-124.68"/>
</g>
<!-- Node27 -->
<g id="node27" class="node">
<title>Node27</title>
<g id="a_node27"><a xlink:href="vdp__set__sprite__attribute__table_8c.html" target="_top" xlink:title="Copyright (c) 2021 Daishi Mori (mori0091)">
<polygon fill="none" stroke="black" points="2770.5,-56.5 2770.5,-86.5 2867.5,-86.5 2867.5,-56.5 2770.5,-56.5"/>
<text text-anchor="start" x="2778.5" y="-74.5" font-family="Helvetica,sans-Serif" font-size="10.00">src/vdp_set_sprite</text>
<text text-anchor="middle" x="2819" y="-63.5" font-family="Helvetica,sans-Serif" font-size="10.00">_attribute_table.c</text>
</a>
</g>
</g>
<!-- Node1&#45;&gt;Node27 -->
<g id="edge27" class="edge">
<title>Node1&#45;&gt;Node27</title>
<path fill="none" stroke="midnightblue" d="M2313.29,-130.21C2401.88,-126.3 2598.66,-115 2762,-87 2764.72,-86.53 2767.5,-86.01 2770.29,-85.43"/>
<polygon fill="midnightblue" stroke="midnightblue" points="2313.12,-126.71 2303.28,-130.64 2313.42,-133.71 2313.12,-126.71"/>
</g>
<!-- Node28 -->
<g id="node28" class="node">
<title>Node28</title>
<g id="a_node28"><a xlink:href="vdp__set__sprite__pattern__table_8c.html" target="_top" xlink:title="Copyright (c) 2021 Daishi Mori (mori0091)">
<polygon fill="none" stroke="black" points="2885.5,-56.5 2885.5,-86.5 2982.5,-86.5 2982.5,-56.5 2885.5,-56.5"/>
<text text-anchor="start" x="2893.5" y="-74.5" font-family="Helvetica,sans-Serif" font-size="10.00">src/vdp_set_sprite</text>
<text text-anchor="middle" x="2934" y="-63.5" font-family="Helvetica,sans-Serif" font-size="10.00">_pattern_table.c</text>
</a>
</g>
</g>
<!-- Node1&#45;&gt;Node28 -->
<g id="edge28" class="edge">
<title>Node1&#45;&gt;Node28</title>
<path fill="none" stroke="midnightblue" d="M2313.19,-131.34C2416.2,-129.28 2668.68,-120.9 2877,-87 2879.72,-86.56 2882.5,-86.05 2885.3,-85.49"/>
<polygon fill="midnightblue" stroke="midnightblue" points="2313.04,-127.84 2303.11,-131.53 2313.18,-134.84 2313.04,-127.84"/>
</g>
<!-- Node29 -->
<g id="node29" class="node">
<title>Node29</title>
<g id="a_node29"><a xlink:href="vdp__set__sprite__size_8c.html" target="_top" xlink:title="Copyright (c) 2021 Daishi Mori (mori0091)">
<polygon fill="none" stroke="black" points="3000.5,-56.5 3000.5,-86.5 3097.5,-86.5 3097.5,-56.5 3000.5,-56.5"/>
<text text-anchor="start" x="3008.5" y="-74.5" font-family="Helvetica,sans-Serif" font-size="10.00">src/vdp_set_sprite</text>
<text text-anchor="middle" x="3049" y="-63.5" font-family="Helvetica,sans-Serif" font-size="10.00">_size.c</text>
</a>
</g>
</g>
<!-- Node1&#45;&gt;Node29 -->
<g id="edge29" class="edge">
<title>Node1&#45;&gt;Node29</title>
<path fill="none" stroke="midnightblue" d="M2313.63,-132.12C2430.15,-131.74 2738.54,-126.73 2992,-87 2994.72,-86.57 2997.51,-86.07 3000.31,-85.53"/>
<polygon fill="midnightblue" stroke="midnightblue" points="2313.28,-128.62 2303.29,-132.14 2313.29,-135.62 2313.28,-128.62"/>
</g>
<!-- Node30 -->
<g id="node30" class="node">
<title>Node30</title>
<g id="a_node30"><a xlink:href="vdp__set__sprite__visible_8c.html" target="_top" xlink:title="Copyright (c) 2021 Daishi Mori (mori0091)">
<polygon fill="none" stroke="black" points="3115.5,-56.5 3115.5,-86.5 3212.5,-86.5 3212.5,-56.5 3115.5,-56.5"/>
<text text-anchor="start" x="3123.5" y="-74.5" font-family="Helvetica,sans-Serif" font-size="10.00">src/vdp_set_sprite</text>
<text text-anchor="middle" x="3164" y="-63.5" font-family="Helvetica,sans-Serif" font-size="10.00">_visible.c</text>
</a>
</g>
</g>
<!-- Node1&#45;&gt;Node30 -->
<g id="edge30" class="edge">
<title>Node1&#45;&gt;Node30</title>
<path fill="none" stroke="midnightblue" d="M2313.43,-132.7C2441.97,-133.89 2807.54,-132.65 3107,-87 3109.73,-86.58 3112.51,-86.1 3115.31,-85.55"/>
<polygon fill="midnightblue" stroke="midnightblue" points="2313.19,-129.19 2303.15,-132.59 2313.12,-136.19 2313.19,-129.19"/>
</g>
<!-- Node31 -->
<g id="node31" class="node">
<title>Node31</title>
<g id="a_node31"><a xlink:href="vdp__set__visible_8c.html" target="_top" xlink:title="Copyright (c) 2021 Daishi Mori (mori0091)">
<polygon fill="none" stroke="black" points="3231,-62 3231,-81 3339,-81 3339,-62 3231,-62"/>
<text text-anchor="middle" x="3285" y="-69" font-family="Helvetica,sans-Serif" font-size="10.00">src/vdp_set_visible.c</text>
</a>
</g>
</g>
<!-- Node1&#45;&gt;Node31 -->
<g id="edge31" class="edge">
<title>Node1&#45;&gt;Node31</title>
<path fill="none" stroke="midnightblue" d="M2313.43,-130.89C2480.82,-126.81 3043.42,-111.55 3222,-87 3232.12,-85.61 3243,-83.37 3252.83,-81.07"/>
<polygon fill="midnightblue" stroke="midnightblue" points="2313.13,-127.4 2303.22,-131.14 2313.3,-134.4 2313.13,-127.4"/>
</g>
<!-- Node32 -->
<g id="node32" class="node">
<title>Node32</title>
<g id="a_node32"><a xlink:href="vdp__set__vscroll_8c.html" target="_top" xlink:title="Copyright (c) 2021 Daishi Mori (mori0091)">
<polygon fill="none" stroke="black" points="3357.5,-62 3357.5,-81 3466.5,-81 3466.5,-62 3357.5,-62"/>
<text text-anchor="middle" x="3412" y="-69" font-family="Helvetica,sans-Serif" font-size="10.00">src/vdp_set_vscroll.c</text>
</a>
</g>
</g>
<!-- Node1&#45;&gt;Node32 -->
<g id="edge32" class="edge">
<title>Node1&#45;&gt;Node32</title>
<path fill="none" stroke="midnightblue" d="M2313.27,-131.17C2494.28,-127.84 3143.47,-114.19 3348,-87 3358.39,-85.62 3369.58,-83.36 3379.65,-81.03"/>
<polygon fill="midnightblue" stroke="midnightblue" points="2313.2,-127.68 2303.26,-131.36 2313.32,-134.67 2313.2,-127.68"/>
</g>
<!-- Node33 -->
<g id="node33" class="node">
<title>Node33</title>
<g id="a_node33"><a xlink:href="vdp__write__control_8c.html" target="_top" xlink:title="Copyright (c) 2021 Daishi Mori (mori0091)">
<polygon fill="none" stroke="black" points="3484.5,-62 3484.5,-81 3601.5,-81 3601.5,-62 3484.5,-62"/>
<text text-anchor="middle" x="3543" y="-69" font-family="Helvetica,sans-Serif" font-size="10.00">src/vdp_write_control.c</text>
</a>
</g>
</g>
<!-- Node1&#45;&gt;Node33 -->
<g id="edge33" class="edge">
<title>Node1&#45;&gt;Node33</title>
<path fill="none" stroke="midnightblue" d="M2313.29,-131.35C2507.57,-128.53 3244.96,-116.07 3476,-87 3486.86,-85.63 3498.57,-83.38 3509.11,-81.05"/>
<polygon fill="midnightblue" stroke="midnightblue" points="2313.07,-127.86 2303.12,-131.5 2313.17,-134.86 2313.07,-127.86"/>
</g>
<!-- Node34 -->
<g id="node34" class="node">
<title>Node34</title>
<g id="a_node34"><a xlink:href="vdp__write__palette_8c.html" target="_top" xlink:title="Copyright (c) 2021 Daishi Mori (mori0091)">
<polygon fill="none" stroke="black" points="3619.5,-62 3619.5,-81 3736.5,-81 3736.5,-62 3619.5,-62"/>
<text text-anchor="middle" x="3678" y="-69" font-family="Helvetica,sans-Serif" font-size="10.00">src/vdp_write_palette.c</text>
</a>
</g>
</g>
<!-- Node1&#45;&gt;Node34 -->
<g id="edge34" class="edge">
<title>Node1&#45;&gt;Node34</title>
<path fill="none" stroke="midnightblue" d="M2313.37,-131.56C2521.03,-129.44 3352.05,-119.09 3611,-87 3621.87,-85.65 3633.58,-83.4 3644.12,-81.07"/>
<polygon fill="midnightblue" stroke="midnightblue" points="2313.08,-128.06 2303.11,-131.66 2313.15,-135.06 2313.08,-128.06"/>
</g>
<!-- Node35 -->
<g id="node35" class="node">
<title>Node35</title>
<g id="a_node35"><a xlink:href="vmem__memset_8c.html" target="_top" xlink:title="Copyright (c) 2021 Daishi Mori (mori0091)">
<polygon fill="none" stroke="black" points="3755,-62 3755,-81 3863,-81 3863,-62 3755,-62"/>
<text text-anchor="middle" x="3809" y="-69" font-family="Helvetica,sans-Serif" font-size="10.00">src/vmem_memset.c</text>
</a>
</g>
</g>
<!-- Node1&#45;&gt;Node35 -->
<g id="edge35" class="edge">
<title>Node1&#45;&gt;Node35</title>
<path fill="none" stroke="midnightblue" d="M2313.41,-131.81C2533.76,-130.72 3459.26,-123.99 3746,-87 3756.35,-85.66 3767.5,-83.39 3777.49,-81.03"/>
<polygon fill="midnightblue" stroke="midnightblue" points="2313.14,-128.31 2303.15,-131.86 2313.17,-135.31 2313.14,-128.31"/>
</g>
<!-- Node36 -->
<g id="node36" class="node">
<title>Node36</title>
<g id="a_node36"><a xlink:href="vmem__read_8c.html" target="_top" xlink:title="Copyright (c) 2021 Daishi Mori (mori0091)">
<polygon fill="none" stroke="black" points="3881,-62 3881,-81 3973,-81 3973,-62 3881,-62"/>
<text text-anchor="middle" x="3927" y="-69" font-family="Helvetica,sans-Serif" font-size="10.00">src/vmem_read.c</text>
</a>
</g>
</g>
<!-- Node1&#45;&gt;Node36 -->
<g id="edge36" class="edge">
<title>Node1&#45;&gt;Node36</title>
<path fill="none" stroke="midnightblue" d="M2313.3,-132.14C2544.79,-132.59 3559.65,-131.94 3872,-87 3881.09,-85.69 3890.83,-83.42 3899.56,-81.06"/>
<polygon fill="midnightblue" stroke="midnightblue" points="2313.2,-128.64 2303.19,-132.12 2313.18,-135.64 2313.2,-128.64"/>
</g>
<!-- Node37 -->
<g id="node37" class="node">
<title>Node37</title>
<g id="a_node37"><a xlink:href="vmem__set__read__address_8c.html" target="_top" xlink:title="Copyright (c) 2021 Daishi Mori (mori0091)">
<polygon fill="none" stroke="black" points="3991,-62 3991,-81 4141,-81 4141,-62 3991,-62"/>
<text text-anchor="middle" x="4066" y="-69" font-family="Helvetica,sans-Serif" font-size="10.00">src/vmem_set_read_address.c</text>
</a>
</g>
</g>
<!-- Node1&#45;&gt;Node37 -->
<g id="edge37" class="edge">
<title>Node1&#45;&gt;Node37</title>
<path fill="none" stroke="midnightblue" d="M2313.33,-131.69C2554.13,-129.95 3645.02,-120.33 3982,-87 3995.7,-85.65 4010.53,-83.36 4023.86,-81"/>
<polygon fill="midnightblue" stroke="midnightblue" points="2313.13,-128.19 2303.16,-131.76 2313.18,-135.19 2313.13,-128.19"/>
</g>
<!-- Node38 -->
<g id="node38" class="node">
<title>Node38</title>
<g id="a_node38"><a xlink:href="vmem__set__sprite__color__s_8c.html" target="_top" xlink:title="Copyright (c) 2021 Daishi Mori (mori0091)">
<polygon fill="none" stroke="black" points="4159,-56.5 4159,-86.5 4267,-86.5 4267,-56.5 4159,-56.5"/>
<text text-anchor="start" x="4167" y="-74.5" font-family="Helvetica,sans-Serif" font-size="10.00">src/vmem_set_sprite</text>
<text text-anchor="middle" x="4213" y="-63.5" font-family="Helvetica,sans-Serif" font-size="10.00">_color_s.c</text>
</a>
</g>
</g>
<!-- Node1&#45;&gt;Node38 -->
<g id="edge38" class="edge">
<title>Node1&#45;&gt;Node38</title>
<path fill="none" stroke="midnightblue" d="M2313.03,-132.17C2567.17,-132.87 3778.79,-133.66 4150,-87 4152.9,-86.64 4155.85,-86.2 4158.83,-85.7"/>
<polygon fill="midnightblue" stroke="midnightblue" points="2313.02,-128.67 2303.01,-132.14 2313,-135.67 2313.02,-128.67"/>
</g>
<!-- Node39 -->
<g id="node39" class="node">
<title>Node39</title>
<g id="a_node39"><a xlink:href="vmem__set__write__address_8c.html" target="_top" xlink:title="Copyright (c) 2021 Daishi Mori (mori0091)">
<polygon fill="none" stroke="black" points="4285.5,-56.5 4285.5,-86.5 4390.5,-86.5 4390.5,-56.5 4285.5,-56.5"/>
<text text-anchor="start" x="4293.5" y="-74.5" font-family="Helvetica,sans-Serif" font-size="10.00">src/vmem_set_write</text>
<text text-anchor="middle" x="4338" y="-63.5" font-family="Helvetica,sans-Serif" font-size="10.00">_address.c</text>
</a>
</g>
</g>
<!-- Node1&#45;&gt;Node39 -->
<g id="edge39" class="edge">
<title>Node1&#45;&gt;Node39</title>
<path fill="none" stroke="midnightblue" d="M2313.18,-132.27C2577.67,-133.59 3878.55,-137.37 4276,-87 4279.07,-86.61 4282.21,-86.13 4285.37,-85.59"/>
<polygon fill="midnightblue" stroke="midnightblue" points="2313.16,-128.77 2303.14,-132.22 2313.12,-135.77 2313.16,-128.77"/>
</g>
<!-- Node40 -->
<g id="node40" class="node">
<title>Node40</title>
<g id="a_node40"><a xlink:href="vmem__write_8c.html" target="_top" xlink:title="Copyright (c) 2021 Daishi Mori (mori0091)">
<polygon fill="none" stroke="black" points="4409,-62 4409,-81 4503,-81 4503,-62 4409,-62"/>
<text text-anchor="middle" x="4456" y="-69" font-family="Helvetica,sans-Serif" font-size="10.00">src/vmem_write.c</text>
</a>
</g>
</g>
<!-- Node1&#45;&gt;Node40 -->
<g id="edge40" class="edge">
<title>Node1&#45;&gt;Node40</title>
<path fill="none" stroke="midnightblue" d="M2313.58,-131.66C2609.02,-129.46 4187.2,-116.39 4400,-87 4409.35,-85.71 4419.39,-83.41 4428.34,-81.02"/>
<polygon fill="midnightblue" stroke="midnightblue" points="2313.19,-128.16 2303.22,-131.74 2313.24,-135.16 2313.19,-128.16"/>
</g>
<!-- Node2&#45;&gt;Node3 -->
<g id="edge2" class="edge">
<title>Node2&#45;&gt;Node3</title>
<path fill="none" stroke="midnightblue" d="M139.98,-57.67C114.75,-46.13 78.39,-29.49 56.59,-19.51"/>
<polygon fill="midnightblue" stroke="midnightblue" points="138.82,-61 149.37,-61.98 141.74,-54.63 138.82,-61"/>
</g>
<!-- Node4 -->
<g id="node4" class="node">
<title>Node4</title>
<g id="a_node4"><a xlink:href="vmem__set__metasprite__a_8c.html" target="_top" xlink:title="Copyright (c) 2021 Daishi Mori (mori0091)">
<polygon fill="none" stroke="black" points="94,-0.5 94,-19.5 242,-19.5 242,-0.5 94,-0.5"/>
<text text-anchor="middle" x="168" y="-7.5" font-family="Helvetica,sans-Serif" font-size="10.00">src/vmem_set_metasprite_a.c</text>
</a>
</g>
</g>
<!-- Node2&#45;&gt;Node4 -->
<g id="edge3" class="edge">
<title>Node2&#45;&gt;Node4</title>
<path fill="none" stroke="midnightblue" d="M168,-51.82C168,-41 168,-27.9 168,-19.51"/>
<polygon fill="midnightblue" stroke="midnightblue" points="164.5,-51.98 168,-61.98 171.5,-51.98 164.5,-51.98"/>
</g>
<!-- Node5 -->
<g id="node5" class="node">
<title>Node5</title>
<g id="a_node5"><a xlink:href="vmem__set__metasprite__m_8c.html" target="_top" xlink:title="Copyright (c) 2021 Daishi Mori (mori0091)">
<polygon fill="none" stroke="black" points="260.5,-0.5 260.5,-19.5 411.5,-19.5 411.5,-0.5 260.5,-0.5"/>
<text text-anchor="middle" x="336" y="-7.5" font-family="Helvetica,sans-Serif" font-size="10.00">src/vmem_set_metasprite_m.c</text>
</a>
</g>
</g>
<!-- Node2&#45;&gt;Node5 -->
<g id="edge4" class="edge">
<title>Node2&#45;&gt;Node5</title>
<path fill="none" stroke="midnightblue" d="M201.65,-58.58C234.3,-47.02 283.05,-29.75 311.97,-19.51"/>
<polygon fill="midnightblue" stroke="midnightblue" points="200.33,-55.34 192.07,-61.98 202.67,-61.94 200.33,-55.34"/>
</g>
<!-- Node6 -->
<g id="node6" class="node">
<title>Node6</title>
<g id="a_node6"><a xlink:href="vmem__set__metasprite__s_8c.html" target="_top" xlink:title="Copyright (c) 2021 Daishi Mori (mori0091)">
<polygon fill="none" stroke="black" points="430,-0.5 430,-19.5 578,-19.5 578,-0.5 430,-0.5"/>
<text text-anchor="middle" x="504" y="-7.5" font-family="Helvetica,sans-Serif" font-size="10.00">src/vmem_set_metasprite_s.c</text>
</a>
</g>
</g>
<!-- Node2&#45;&gt;Node6 -->
<g id="edge5" class="edge">
<title>Node2&#45;&gt;Node6</title>
<path fill="none" stroke="midnightblue" d="M212.15,-59.61C217.81,-58.33 223.53,-57.1 229,-56 302.76,-41.22 388.38,-27.79 444.23,-19.53"/>
<polygon fill="midnightblue" stroke="midnightblue" points="211.06,-56.27 202.1,-61.94 212.64,-63.09 211.06,-56.27"/>
</g>
</g>
</svg>
