<?xml version="1.0" encoding="UTF-8" standalone="no"?>
<!DOCTYPE svg PUBLIC "-//W3C//DTD SVG 1.1//EN"
 "http://www.w3.org/Graphics/SVG/1.1/DTD/svg11.dtd">
<!-- Generated by graphviz version 2.50.0 (20220203.2022)
 -->
<!-- Title: src/vdp_set_color.c Pages: 1 -->
<svg width="535pt" height="252pt"
 viewBox="0.00 0.00 534.85 252.00" xmlns="http://www.w3.org/2000/svg" xmlns:xlink="http://www.w3.org/1999/xlink">
<g id="graph0" class="graph" transform="scale(1 1) rotate(0) translate(4 248)">
<title>src/vdp_set_color.c</title>
<!-- Node1 -->
<g id="node1" class="node">
<title>Node1</title>
<g id="a_node1"><a xlink:title="Copyright (c) 2021 Daishi Mori (mori0091)">
<polygon fill="#bfbfbf" stroke="black" points="216,-224.5 216,-243.5 317,-243.5 317,-224.5 216,-224.5"/>
<text text-anchor="middle" x="266.5" y="-231.5" font-family="Helvetica,sans-Serif" font-size="10.00">src/vdp_set_color.c</text>
</a>
</g>
</g>
<!-- Node2 -->
<g id="node2" class="node">
<title>Node2</title>
<g id="a_node2"><a xlink:href="vdp_8h.html" target="_top" xlink:title="Data types and functions for VDP (Video Display Proccessor) access.">
<polygon fill="none" stroke="black" points="178,-168.5 178,-187.5 259,-187.5 259,-168.5 178,-168.5"/>
<text text-anchor="middle" x="218.5" y="-175.5" font-family="Helvetica,sans-Serif" font-size="10.00">../include/vdp.h</text>
</a>
</g>
</g>
<!-- Node1&#45;&gt;Node2 -->
<g id="edge1" class="edge">
<title>Node1&#45;&gt;Node2</title>
<path fill="none" stroke="midnightblue" d="M258.57,-224.08C251.65,-216.3 241.43,-204.8 233.05,-195.37"/>
<polygon fill="midnightblue" stroke="midnightblue" points="235.54,-192.9 226.28,-187.75 230.31,-197.55 235.54,-192.9"/>
</g>
<!-- Node12 -->
<g id="node12" class="node">
<title>Node12</title>
<g id="a_node12"><a xlink:href="vdp__internal_8h.html" target="_top" xlink:title="Copyright (c) 2021 Daishi Mori (mori0091)">
<polygon fill="none" stroke="black" points="388,-168.5 388,-187.5 465,-187.5 465,-168.5 388,-168.5"/>
<text text-anchor="middle" x="426.5" y="-175.5" font-family="Helvetica,sans-Serif" font-size="10.00">vdp_internal.h</text>
</a>
</g>
</g>
<!-- Node1&#45;&gt;Node12 -->
<g id="edge16" class="edge">
<title>Node1&#45;&gt;Node12</title>
<path fill="none" stroke="midnightblue" d="M291.85,-224.44C318.77,-215.36 361.5,-200.94 391.59,-190.78"/>
<polygon fill="midnightblue" stroke="midnightblue" points="392.91,-194.03 401.27,-187.52 390.67,-187.4 392.91,-194.03"/>
</g>
<!-- Node3 -->
<g id="node3" class="node">
<title>Node3</title>
<g id="a_node3"><a xlink:title=" ">
<polygon fill="none" stroke="#bfbfbf" points="0,-112.5 0,-131.5 51,-131.5 51,-112.5 0,-112.5"/>
<text text-anchor="middle" x="25.5" y="-119.5" font-family="Helvetica,sans-Serif" font-size="10.00">assert.h</text>
</a>
</g>
</g>
<!-- Node2&#45;&gt;Node3 -->
<g id="edge2" class="edge">
<title>Node2&#45;&gt;Node3</title>
<path fill="none" stroke="midnightblue" d="M187.92,-168.44C153.33,-158.77 97.1,-143.03 60.71,-132.85"/>
<polygon fill="midnightblue" stroke="midnightblue" points="61.58,-129.46 51.01,-130.14 59.69,-136.2 61.58,-129.46"/>
</g>
<!-- Node4 -->
<g id="node4" class="node">
<title>Node4</title>
<g id="a_node4"><a xlink:title=" ">
<polygon fill="none" stroke="#bfbfbf" points="69.5,-112.5 69.5,-131.5 125.5,-131.5 125.5,-112.5 69.5,-112.5"/>
<text text-anchor="middle" x="97.5" y="-119.5" font-family="Helvetica,sans-Serif" font-size="10.00">stdbool.h</text>
</a>
</g>
</g>
<!-- Node2&#45;&gt;Node4 -->
<g id="edge3" class="edge">
<title>Node2&#45;&gt;Node4</title>
<path fill="none" stroke="midnightblue" d="M199.33,-168.44C179.59,-159.64 148.61,-145.81 126.01,-135.72"/>
<polygon fill="midnightblue" stroke="midnightblue" points="127.14,-132.4 116.58,-131.52 124.29,-138.79 127.14,-132.4"/>
</g>
<!-- Node5 -->
<g id="node5" class="node">
<title>Node5</title>
<g id="a_node5"><a xlink:title=" ">
<polygon fill="none" stroke="#bfbfbf" points="325.5,-0.5 325.5,-19.5 373.5,-19.5 373.5,-0.5 325.5,-0.5"/>
<text text-anchor="middle" x="349.5" y="-7.5" font-family="Helvetica,sans-Serif" font-size="10.00">stdint.h</text>
</a>
</g>
</g>
<!-- Node2&#45;&gt;Node5 -->
<g id="edge4" class="edge">
<title>Node2&#45;&gt;Node5</title>
<path fill="none" stroke="midnightblue" d="M209.8,-168.22C189.83,-147 144.5,-92.02 172.5,-56 189.83,-33.71 268.74,-20.65 315.14,-14.77"/>
<polygon fill="midnightblue" stroke="midnightblue" points="315.84,-18.21 325.35,-13.53 315,-11.26 315.84,-18.21"/>
</g>
<!-- Node6 -->
<g id="node6" class="node">
<title>Node6</title>
<g id="a_node6"><a xlink:href="io_8h.html" target="_top" xlink:title="Copyright (c) 2021 Daishi Mori (mori0091)">
<polygon fill="none" stroke="black" points="181.5,-56.5 181.5,-75.5 213.5,-75.5 213.5,-56.5 181.5,-56.5"/>
<text text-anchor="middle" x="197.5" y="-63.5" font-family="Helvetica,sans-Serif" font-size="10.00">io.h</text>
</a>
</g>
</g>
<!-- Node2&#45;&gt;Node6 -->
<g id="edge5" class="edge">
<title>Node2&#45;&gt;Node6</title>
<path fill="none" stroke="midnightblue" d="M216.85,-168.37C213.46,-150.62 205.65,-109.67 201.05,-85.6"/>
<polygon fill="midnightblue" stroke="midnightblue" points="204.45,-84.76 199.14,-75.59 197.58,-86.07 204.45,-84.76"/>
</g>
<!-- Node7 -->
<g id="node7" class="node">
<title>Node7</title>
<g id="a_node7"><a xlink:href="vmem_8h.html" target="_top" xlink:title="Data types and functions for VRAM access.">
<polygon fill="none" stroke="black" points="220,-112.5 220,-131.5 271,-131.5 271,-112.5 220,-112.5"/>
<text text-anchor="middle" x="245.5" y="-119.5" font-family="Helvetica,sans-Serif" font-size="10.00">vmem.h</text>
</a>
</g>
</g>
<!-- Node2&#45;&gt;Node7 -->
<g id="edge6" class="edge">
<title>Node2&#45;&gt;Node7</title>
<path fill="none" stroke="midnightblue" d="M222.96,-168.08C226.65,-160.69 232.02,-149.95 236.59,-140.81"/>
<polygon fill="midnightblue" stroke="midnightblue" points="239.78,-142.26 241.12,-131.75 233.52,-139.13 239.78,-142.26"/>
</g>
<!-- Node8 -->
<g id="node8" class="node">
<title>Node8</title>
<g id="a_node8"><a xlink:href="bios_8h.html" target="_top" xlink:title="Copyright (c) 2021 Daishi Mori (mori0091)">
<polygon fill="none" stroke="black" points="289.5,-112.5 289.5,-131.5 331.5,-131.5 331.5,-112.5 289.5,-112.5"/>
<text text-anchor="middle" x="310.5" y="-119.5" font-family="Helvetica,sans-Serif" font-size="10.00">bios.h</text>
</a>
</g>
</g>
<!-- Node2&#45;&gt;Node8 -->
<g id="edge9" class="edge">
<title>Node2&#45;&gt;Node8</title>
<path fill="none" stroke="midnightblue" d="M233.28,-168.32C247.77,-159.82 270.07,-146.73 286.99,-136.8"/>
<polygon fill="midnightblue" stroke="midnightblue" points="288.9,-139.74 295.76,-131.65 285.36,-133.7 288.9,-139.74"/>
</g>
<!-- Node11 -->
<g id="node11" class="node">
<title>Node11</title>
<g id="a_node11"><a xlink:href="workarea_8h.html" target="_top" xlink:title="Copyright (c) 2021 Daishi Mori (mori0091)">
<polygon fill="none" stroke="black" points="445.5,-56.5 445.5,-75.5 509.5,-75.5 509.5,-56.5 445.5,-56.5"/>
<text text-anchor="middle" x="477.5" y="-63.5" font-family="Helvetica,sans-Serif" font-size="10.00">workarea.h</text>
</a>
</g>
</g>
<!-- Node2&#45;&gt;Node11 -->
<g id="edge14" class="edge">
<title>Node2&#45;&gt;Node11</title>
<path fill="none" stroke="midnightblue" d="M243.99,-168.35C268.85,-159.73 307.62,-145.83 340.5,-132 379.62,-115.54 423.79,-94.04 451.15,-80.37"/>
<polygon fill="midnightblue" stroke="midnightblue" points="453.06,-83.33 460.42,-75.71 449.92,-77.07 453.06,-83.33"/>
</g>
<!-- Node7&#45;&gt;Node5 -->
<g id="edge7" class="edge">
<title>Node7&#45;&gt;Node5</title>
<path fill="none" stroke="midnightblue" d="M245.27,-112.45C245.36,-99.01 247.36,-72.77 260.5,-56 274.32,-38.36 296.92,-27.05 315.89,-20.19"/>
<polygon fill="midnightblue" stroke="midnightblue" points="317.04,-23.49 325.41,-16.99 314.81,-16.86 317.04,-23.49"/>
</g>
<!-- Node7&#45;&gt;Node6 -->
<g id="edge8" class="edge">
<title>Node7&#45;&gt;Node6</title>
<path fill="none" stroke="midnightblue" d="M237.57,-112.08C230.65,-104.3 220.43,-92.8 212.05,-83.37"/>
<polygon fill="midnightblue" stroke="midnightblue" points="214.54,-80.9 205.28,-75.75 209.31,-85.55 214.54,-80.9"/>
</g>
<!-- Node9 -->
<g id="node9" class="node">
<title>Node9</title>
<g id="a_node9"><a xlink:href="bios__const_8h.html" target="_top" xlink:title="Constant variables in the MSX BIOS ROM.">
<polygon fill="none" stroke="black" points="270,-56.5 270,-75.5 341,-75.5 341,-56.5 270,-56.5"/>
<text text-anchor="middle" x="305.5" y="-63.5" font-family="Helvetica,sans-Serif" font-size="10.00">bios_const.h</text>
</a>
</g>
</g>
<!-- Node8&#45;&gt;Node9 -->
<g id="edge10" class="edge">
<title>Node8&#45;&gt;Node9</title>
<path fill="none" stroke="midnightblue" d="M309.67,-112.08C309.02,-105.01 308.08,-94.86 307.26,-85.99"/>
<polygon fill="midnightblue" stroke="midnightblue" points="310.72,-85.39 306.31,-75.75 303.75,-86.03 310.72,-85.39"/>
</g>
<!-- Node10 -->
<g id="node10" class="node">
<title>Node10</title>
<g id="a_node10"><a xlink:href="bios__entry_8h.html" target="_top" xlink:title="Assembler entry points for MSX BIOS functions.">
<polygon fill="none" stroke="black" points="359.5,-56.5 359.5,-75.5 427.5,-75.5 427.5,-56.5 359.5,-56.5"/>
<text text-anchor="middle" x="393.5" y="-63.5" font-family="Helvetica,sans-Serif" font-size="10.00">bios_entry.h</text>
</a>
</g>
</g>
<!-- Node8&#45;&gt;Node10 -->
<g id="edge12" class="edge">
<title>Node8&#45;&gt;Node10</title>
<path fill="none" stroke="midnightblue" d="M323.84,-112.32C336.66,-103.98 356.28,-91.21 371.44,-81.35"/>
<polygon fill="midnightblue" stroke="midnightblue" points="373.72,-84.04 380.2,-75.65 369.91,-78.17 373.72,-84.04"/>
</g>
<!-- Node9&#45;&gt;Node5 -->
<g id="edge11" class="edge">
<title>Node9&#45;&gt;Node5</title>
<path fill="none" stroke="midnightblue" d="M312.77,-56.08C319.04,-48.38 328.29,-37.03 335.93,-27.65"/>
<polygon fill="midnightblue" stroke="midnightblue" points="338.77,-29.71 342.37,-19.75 333.34,-25.29 338.77,-29.71"/>
</g>
<!-- Node10&#45;&gt;Node5 -->
<g id="edge13" class="edge">
<title>Node10&#45;&gt;Node5</title>
<path fill="none" stroke="midnightblue" d="M386.23,-56.08C379.96,-48.38 370.71,-37.03 363.07,-27.65"/>
<polygon fill="midnightblue" stroke="midnightblue" points="365.66,-25.29 356.63,-19.75 360.23,-29.71 365.66,-25.29"/>
</g>
<!-- Node11&#45;&gt;Node5 -->
<g id="edge15" class="edge">
<title>Node11&#45;&gt;Node5</title>
<path fill="none" stroke="midnightblue" d="M457.22,-56.44C436.15,-47.56 402.98,-33.56 379.01,-23.45"/>
<polygon fill="midnightblue" stroke="midnightblue" points="380.26,-20.18 369.69,-19.52 377.54,-26.63 380.26,-20.18"/>
</g>
<!-- Node12&#45;&gt;Node5 -->
<g id="edge17" class="edge">
<title>Node12&#45;&gt;Node5</title>
<path fill="none" stroke="midnightblue" d="M441.89,-168.47C475.67,-148.66 550.82,-98.06 518.5,-56 502.18,-34.77 428.14,-21.44 383.65,-15.19"/>
<polygon fill="midnightblue" stroke="midnightblue" points="383.95,-11.7 373.57,-13.83 383.01,-18.64 383.95,-11.7"/>
</g>
</g>
</svg>
