<?xml version="1.0" encoding="UTF-8" standalone="no"?>
<!DOCTYPE svg PUBLIC "-//W3C//DTD SVG 1.1//EN"
 "http://www.w3.org/Graphics/SVG/1.1/DTD/svg11.dtd">
<!-- Generated by graphviz version 3.0.0 (20220413.0106)
 -->
<!-- Title: src/vdp_cmd_execute_HMMV.c Pages: 1 -->
<svg width="518pt" height="263pt"
 viewBox="0.00 0.00 517.50 263.00" xmlns="http://www.w3.org/2000/svg" xmlns:xlink="http://www.w3.org/1999/xlink">
<g id="graph0" class="graph" transform="scale(1 1) rotate(0) translate(4 259)">
<title>src/vdp_cmd_execute_HMMV.c</title>
<!-- Node1 -->
<g id="node1" class="node">
<title>Node1</title>
<g id="a_node1"><a xlink:title="Copyright (c) 2021 Daishi Mori (mori0091)">
<polygon fill="#bfbfbf" stroke="black" points="151.5,-224.5 151.5,-254.5 263.5,-254.5 263.5,-224.5 151.5,-224.5"/>
<text text-anchor="start" x="159.5" y="-242.5" font-family="Helvetica,sans-Serif" font-size="10.00">src/vdp_cmd_execute</text>
<text text-anchor="middle" x="207.5" y="-231.5" font-family="Helvetica,sans-Serif" font-size="10.00">_HMMV.c</text>
</a>
</g>
</g>
<!-- Node2 -->
<g id="node2" class="node">
<title>Node2</title>
<g id="a_node2"><a xlink:href="vdp_8h.html" target="_top" xlink:title="Data types and functions for VDP (Video Display Proccessor) access.">
<polygon fill="none" stroke="black" points="167,-168.5 167,-187.5 248,-187.5 248,-168.5 167,-168.5"/>
<text text-anchor="middle" x="207.5" y="-175.5" font-family="Helvetica,sans-Serif" font-size="10.00">../include/vdp.h</text>
</a>
</g>
</g>
<!-- Node1&#45;&gt;Node2 -->
<g id="edge1" class="edge">
<title>Node1&#45;&gt;Node2</title>
<path fill="none" stroke="midnightblue" d="M207.5,-224.4C207.5,-216.47 207.5,-206.46 207.5,-197.86"/>
<polygon fill="midnightblue" stroke="midnightblue" points="211,-197.66 207.5,-187.66 204,-197.66 211,-197.66"/>
</g>
<!-- Node3 -->
<g id="node3" class="node">
<title>Node3</title>
<g id="a_node3"><a xlink:title=" ">
<polygon fill="none" stroke="#bfbfbf" points="0,-112.5 0,-131.5 51,-131.5 51,-112.5 0,-112.5"/>
<text text-anchor="middle" x="25.5" y="-119.5" font-family="Helvetica,sans-Serif" font-size="10.00">assert.h</text>
</a>
</g>
</g>
<!-- Node2&#45;&gt;Node3 -->
<g id="edge2" class="edge">
<title>Node2&#45;&gt;Node3</title>
<path fill="none" stroke="midnightblue" d="M178.66,-168.44C146.73,-158.97 95.24,-143.69 60.9,-133.5"/>
<polygon fill="midnightblue" stroke="midnightblue" points="61.84,-130.13 51.26,-130.64 59.85,-136.84 61.84,-130.13"/>
</g>
<!-- Node4 -->
<g id="node4" class="node">
<title>Node4</title>
<g id="a_node4"><a xlink:title=" ">
<polygon fill="none" stroke="#bfbfbf" points="69.5,-112.5 69.5,-131.5 125.5,-131.5 125.5,-112.5 69.5,-112.5"/>
<text text-anchor="middle" x="97.5" y="-119.5" font-family="Helvetica,sans-Serif" font-size="10.00">stdbool.h</text>
</a>
</g>
</g>
<!-- Node2&#45;&gt;Node4 -->
<g id="edge3" class="edge">
<title>Node2&#45;&gt;Node4</title>
<path fill="none" stroke="midnightblue" d="M189.83,-168.32C172.11,-159.62 144.6,-146.12 124.21,-136.11"/>
<polygon fill="midnightblue" stroke="midnightblue" points="125.65,-132.92 115.13,-131.65 122.56,-139.2 125.65,-132.92"/>
</g>
<!-- Node5 -->
<g id="node5" class="node">
<title>Node5</title>
<g id="a_node5"><a xlink:title=" ">
<polygon fill="none" stroke="#bfbfbf" points="227.5,-0.5 227.5,-19.5 275.5,-19.5 275.5,-0.5 227.5,-0.5"/>
<text text-anchor="middle" x="251.5" y="-7.5" font-family="Helvetica,sans-Serif" font-size="10.00">stdint.h</text>
</a>
</g>
</g>
<!-- Node2&#45;&gt;Node5 -->
<g id="edge4" class="edge">
<title>Node2&#45;&gt;Node5</title>
<path fill="none" stroke="midnightblue" d="M198.21,-168.39C189.92,-160.02 178.36,-146.48 173.5,-132 170.67,-123.57 171.46,-120.65 173.5,-112 179.89,-84.92 184.64,-78.14 201.5,-56 210.04,-44.79 221.63,-34.15 231.51,-26.03"/>
<polygon fill="midnightblue" stroke="midnightblue" points="233.96,-28.56 239.62,-19.6 229.61,-23.07 233.96,-28.56"/>
</g>
<!-- Node6 -->
<g id="node6" class="node">
<title>Node6</title>
<g id="a_node6"><a xlink:href="io_8h.html" target="_top" xlink:title="Copyright (c) 2021 Daishi Mori (mori0091)">
<polygon fill="none" stroke="black" points="477.5,-56.5 477.5,-75.5 509.5,-75.5 509.5,-56.5 477.5,-56.5"/>
<text text-anchor="middle" x="493.5" y="-63.5" font-family="Helvetica,sans-Serif" font-size="10.00">io.h</text>
</a>
</g>
</g>
<!-- Node2&#45;&gt;Node6 -->
<g id="edge5" class="edge">
<title>Node2&#45;&gt;Node6</title>
<path fill="none" stroke="midnightblue" d="M245.2,-168.43C277.64,-160.55 325.4,-147.72 365.5,-132 403.36,-117.16 444.95,-94.83 470.14,-80.59"/>
<polygon fill="midnightblue" stroke="midnightblue" points="472,-83.56 478.95,-75.56 468.53,-77.48 472,-83.56"/>
</g>
<!-- Node8 -->
<g id="node8" class="node">
<title>Node8</title>
<g id="a_node8"><a xlink:href="vmem_8h.html" target="_top" xlink:title="Data types and functions for VRAM access.">
<polygon fill="none" stroke="black" points="182,-112.5 182,-131.5 233,-131.5 233,-112.5 182,-112.5"/>
<text text-anchor="middle" x="207.5" y="-119.5" font-family="Helvetica,sans-Serif" font-size="10.00">vmem.h</text>
</a>
</g>
</g>
<!-- Node2&#45;&gt;Node8 -->
<g id="edge7" class="edge">
<title>Node2&#45;&gt;Node8</title>
<path fill="none" stroke="midnightblue" d="M207.5,-168.08C207.5,-161.01 207.5,-150.86 207.5,-141.99"/>
<polygon fill="midnightblue" stroke="midnightblue" points="211,-141.75 207.5,-131.75 204,-141.75 211,-141.75"/>
</g>
<!-- Node9 -->
<g id="node9" class="node">
<title>Node9</title>
<g id="a_node9"><a xlink:href="bios_8h.html" target="_top" xlink:title="Copyright (c) 2021 Daishi Mori (mori0091)">
<polygon fill="none" stroke="black" points="314.5,-112.5 314.5,-131.5 356.5,-131.5 356.5,-112.5 314.5,-112.5"/>
<text text-anchor="middle" x="335.5" y="-119.5" font-family="Helvetica,sans-Serif" font-size="10.00">bios.h</text>
</a>
</g>
</g>
<!-- Node2&#45;&gt;Node9 -->
<g id="edge10" class="edge">
<title>Node2&#45;&gt;Node9</title>
<path fill="none" stroke="midnightblue" d="M227.78,-168.44C248.85,-159.56 282.02,-145.56 305.99,-135.45"/>
<polygon fill="midnightblue" stroke="midnightblue" points="307.46,-138.63 315.31,-131.52 304.74,-132.18 307.46,-138.63"/>
</g>
<!-- Node12 -->
<g id="node12" class="node">
<title>Node12</title>
<g id="a_node12"><a xlink:href="workarea_8h.html" target="_top" xlink:title="Copyright (c) 2021 Daishi Mori (mori0091)">
<polygon fill="none" stroke="black" points="219.5,-56.5 219.5,-75.5 283.5,-75.5 283.5,-56.5 219.5,-56.5"/>
<text text-anchor="middle" x="251.5" y="-63.5" font-family="Helvetica,sans-Serif" font-size="10.00">workarea.h</text>
</a>
</g>
</g>
<!-- Node2&#45;&gt;Node12 -->
<g id="edge17" class="edge">
<title>Node2&#45;&gt;Node12</title>
<path fill="none" stroke="midnightblue" d="M216.6,-168.28C224.81,-159.82 236.5,-146.23 242.5,-132 248.67,-117.39 250.79,-99.44 251.44,-86.12"/>
<polygon fill="midnightblue" stroke="midnightblue" points="254.95,-85.87 251.7,-75.79 247.95,-85.7 254.95,-85.87"/>
</g>
<!-- Node7 -->
<g id="node7" class="node">
<title>Node7</title>
<g id="a_node7"><a xlink:href="config_8h.html" target="_top" xlink:title="Copyright (c) 2022 Daishi Mori (mori0091)">
<polygon fill="none" stroke="black" points="354.5,-0.5 354.5,-19.5 404.5,-19.5 404.5,-0.5 354.5,-0.5"/>
<text text-anchor="middle" x="379.5" y="-7.5" font-family="Helvetica,sans-Serif" font-size="10.00">config.h</text>
</a>
</g>
</g>
<!-- Node6&#45;&gt;Node7 -->
<g id="edge6" class="edge">
<title>Node6&#45;&gt;Node7</title>
<path fill="none" stroke="midnightblue" d="M477.17,-57.26C458.83,-48.58 428.76,-34.33 406.83,-23.94"/>
<polygon fill="midnightblue" stroke="midnightblue" points="408.22,-20.73 397.69,-19.62 405.23,-27.06 408.22,-20.73"/>
</g>
<!-- Node8&#45;&gt;Node5 -->
<g id="edge8" class="edge">
<title>Node8&#45;&gt;Node5</title>
<path fill="none" stroke="midnightblue" d="M206.08,-112.18C204.4,-99.29 202.72,-74.79 210.5,-56 215.22,-44.6 224.16,-34.25 232.48,-26.35"/>
<polygon fill="midnightblue" stroke="midnightblue" points="234.96,-28.83 240.13,-19.58 230.32,-23.59 234.96,-28.83"/>
</g>
<!-- Node8&#45;&gt;Node6 -->
<g id="edge9" class="edge">
<title>Node8&#45;&gt;Node6</title>
<path fill="none" stroke="midnightblue" d="M233.01,-118.11C278.44,-112.63 376.38,-99.4 467.56,-75.84"/>
<polygon fill="midnightblue" stroke="midnightblue" points="468.71,-79.16 477.49,-73.23 466.93,-72.39 468.71,-79.16"/>
</g>
<!-- Node10 -->
<g id="node10" class="node">
<title>Node10</title>
<g id="a_node10"><a xlink:href="bios__const_8h.html" target="_top" xlink:title="Constant variables in the MSX BIOS ROM.">
<polygon fill="none" stroke="black" points="388,-56.5 388,-75.5 459,-75.5 459,-56.5 388,-56.5"/>
<text text-anchor="middle" x="423.5" y="-63.5" font-family="Helvetica,sans-Serif" font-size="10.00">bios_const.h</text>
</a>
</g>
</g>
<!-- Node9&#45;&gt;Node10 -->
<g id="edge11" class="edge">
<title>Node9&#45;&gt;Node10</title>
<path fill="none" stroke="midnightblue" d="M349.64,-112.32C363.37,-103.9 384.44,-90.97 400.56,-81.07"/>
<polygon fill="midnightblue" stroke="midnightblue" points="402.7,-83.87 409.4,-75.65 399.04,-77.9 402.7,-83.87"/>
</g>
<!-- Node11 -->
<g id="node11" class="node">
<title>Node11</title>
<g id="a_node11"><a xlink:href="bios__entry_8h.html" target="_top" xlink:title="Assembler entry points for MSX BIOS functions.">
<polygon fill="none" stroke="black" points="301.5,-56.5 301.5,-75.5 369.5,-75.5 369.5,-56.5 301.5,-56.5"/>
<text text-anchor="middle" x="335.5" y="-63.5" font-family="Helvetica,sans-Serif" font-size="10.00">bios_entry.h</text>
</a>
</g>
</g>
<!-- Node9&#45;&gt;Node11 -->
<g id="edge14" class="edge">
<title>Node9&#45;&gt;Node11</title>
<path fill="none" stroke="midnightblue" d="M335.5,-112.08C335.5,-105.01 335.5,-94.86 335.5,-85.99"/>
<polygon fill="midnightblue" stroke="midnightblue" points="339,-85.75 335.5,-75.75 332,-85.75 339,-85.75"/>
</g>
<!-- Node10&#45;&gt;Node5 -->
<g id="edge12" class="edge">
<title>Node10&#45;&gt;Node5</title>
<path fill="none" stroke="midnightblue" d="M396.25,-56.44C366.24,-47.02 317.97,-31.87 285.51,-21.68"/>
<polygon fill="midnightblue" stroke="midnightblue" points="286.16,-18.21 275.57,-18.56 284.07,-24.89 286.16,-18.21"/>
</g>
<!-- Node10&#45;&gt;Node7 -->
<g id="edge13" class="edge">
<title>Node10&#45;&gt;Node7</title>
<path fill="none" stroke="midnightblue" d="M416.23,-56.08C409.96,-48.38 400.71,-37.03 393.07,-27.65"/>
<polygon fill="midnightblue" stroke="midnightblue" points="395.66,-25.29 386.63,-19.75 390.23,-29.71 395.66,-25.29"/>
</g>
<!-- Node11&#45;&gt;Node5 -->
<g id="edge15" class="edge">
<title>Node11&#45;&gt;Node5</title>
<path fill="none" stroke="midnightblue" d="M322,-56.32C308.9,-47.9 288.79,-34.97 273.39,-25.07"/>
<polygon fill="midnightblue" stroke="midnightblue" points="275.27,-22.12 264.96,-19.65 271.48,-28.01 275.27,-22.12"/>
</g>
<!-- Node11&#45;&gt;Node7 -->
<g id="edge16" class="edge">
<title>Node11&#45;&gt;Node7</title>
<path fill="none" stroke="midnightblue" d="M342.77,-56.08C349.04,-48.38 358.29,-37.03 365.93,-27.65"/>
<polygon fill="midnightblue" stroke="midnightblue" points="368.77,-29.71 372.37,-19.75 363.34,-25.29 368.77,-29.71"/>
</g>
<!-- Node12&#45;&gt;Node5 -->
<g id="edge18" class="edge">
<title>Node12&#45;&gt;Node5</title>
<path fill="none" stroke="midnightblue" d="M251.5,-56.08C251.5,-49.01 251.5,-38.86 251.5,-29.99"/>
<polygon fill="midnightblue" stroke="midnightblue" points="255,-29.75 251.5,-19.75 248,-29.75 255,-29.75"/>
</g>
<!-- Node12&#45;&gt;Node7 -->
<g id="edge19" class="edge">
<title>Node12&#45;&gt;Node7</title>
<path fill="none" stroke="midnightblue" d="M271.78,-56.44C292.85,-47.56 326.02,-33.56 349.99,-23.45"/>
<polygon fill="midnightblue" stroke="midnightblue" points="351.46,-26.63 359.31,-19.52 348.74,-20.18 351.46,-26.63"/>
</g>
</g>
</svg>
