<?xml version="1.0" encoding="UTF-8" standalone="no"?>
<!DOCTYPE svg PUBLIC "-//W3C//DTD SVG 1.1//EN"
 "http://www.w3.org/Graphics/SVG/1.1/DTD/svg11.dtd">
<!-- Generated by graphviz version 2.49.3 (20211027.1534)
 -->
<!-- Title: src/vdp_internal.h Pages: 1 -->
<svg width="3627pt" height="95pt"
 viewBox="0.00 0.00 3627.00 95.00" xmlns="http://www.w3.org/2000/svg" xmlns:xlink="http://www.w3.org/1999/xlink">
<g id="graph0" class="graph" transform="scale(1 1) rotate(0) translate(4 91)">
<title>src/vdp_internal.h</title>
<!-- Node1 -->
<g id="node1" class="node">
<title>Node1</title>
<g id="a_node1"><a xlink:title="Copyright (c) 2021 Daishi Mori (mori0091)">
<polygon fill="#bfbfbf" stroke="black" points="1777.5,-67.5 1777.5,-86.5 1870.5,-86.5 1870.5,-67.5 1777.5,-67.5"/>
<text text-anchor="middle" x="1824" y="-74.5" font-family="Helvetica,sans-Serif" font-size="10.00">src/vdp_internal.h</text>
</a>
</g>
</g>
<!-- Node2 -->
<g id="node2" class="node">
<title>Node2</title>
<g id="a_node2"><a xlink:href="vdp_8c.html" target="_top" xlink:title="Copyright (c) 2021 Daishi Mori (mori0091)">
<polygon fill="none" stroke="black" points="0,-6 0,-25 56,-25 56,-6 0,-6"/>
<text text-anchor="middle" x="28" y="-13" font-family="Helvetica,sans-Serif" font-size="10.00">src/vdp.c</text>
</a>
</g>
</g>
<!-- Node1&#45;&gt;Node2 -->
<g id="edge1" class="edge">
<title>Node1&#45;&gt;Node2</title>
<path fill="none" stroke="midnightblue" d="M1767.27,-75.72C1484.58,-74.15 234.79,-65.34 65,-31 58.64,-29.71 51.97,-27.42 46.06,-25.03"/>
<polygon fill="midnightblue" stroke="midnightblue" points="1767.29,-79.22 1777.31,-75.77 1767.33,-72.22 1767.29,-79.22"/>
</g>
<!-- Node3 -->
<g id="node3" class="node">
<title>Node3</title>
<g id="a_node3"><a xlink:href="vdp__cmd__set__unrestricted_8c.html" target="_top" xlink:title="Copyright (c) 2021 Daishi Mori (mori0091)">
<polygon fill="none" stroke="black" points="74.5,-6 74.5,-25 229.5,-25 229.5,-6 74.5,-6"/>
<text text-anchor="middle" x="152" y="-13" font-family="Helvetica,sans-Serif" font-size="10.00">src/vdp_cmd_set_unrestricted.c</text>
</a>
</g>
</g>
<!-- Node1&#45;&gt;Node3 -->
<g id="edge2" class="edge">
<title>Node1&#45;&gt;Node3</title>
<path fill="none" stroke="midnightblue" d="M1767.12,-75.44C1520.67,-72.88 543.73,-60.97 238,-31 224.14,-29.64 209.13,-27.39 195.59,-25.06"/>
<polygon fill="midnightblue" stroke="midnightblue" points="1767.25,-78.95 1777.29,-75.55 1767.32,-71.95 1767.25,-78.95"/>
</g>
<!-- Node4 -->
<g id="node4" class="node">
<title>Node4</title>
<g id="a_node4"><a xlink:href="vdp__get__sprite__mode_8c.html" target="_top" xlink:title="Copyright (c) 2021 Daishi Mori (mori0091)">
<polygon fill="none" stroke="black" points="247.5,-0.5 247.5,-30.5 344.5,-30.5 344.5,-0.5 247.5,-0.5"/>
<text text-anchor="start" x="255.5" y="-18.5" font-family="Helvetica,sans-Serif" font-size="10.00">src/vdp_get_sprite</text>
<text text-anchor="middle" x="296" y="-7.5" font-family="Helvetica,sans-Serif" font-size="10.00">_mode.c</text>
</a>
</g>
</g>
<!-- Node1&#45;&gt;Node4 -->
<g id="edge3" class="edge">
<title>Node1&#45;&gt;Node4</title>
<path fill="none" stroke="midnightblue" d="M1767.36,-75.92C1532.41,-75.33 633.62,-70.5 353,-31 350.27,-30.62 347.48,-30.15 344.68,-29.63"/>
<polygon fill="midnightblue" stroke="midnightblue" points="1767.39,-79.42 1777.4,-75.94 1767.41,-72.42 1767.39,-79.42"/>
</g>
<!-- Node5 -->
<g id="node5" class="node">
<title>Node5</title>
<g id="a_node5"><a xlink:href="vdp__get__status_8c.html" target="_top" xlink:title="Copyright (c) 2021 Daishi Mori (mori0091)">
<polygon fill="none" stroke="black" points="362.5,-6 362.5,-25 469.5,-25 469.5,-6 362.5,-6"/>
<text text-anchor="middle" x="416" y="-13" font-family="Helvetica,sans-Serif" font-size="10.00">src/vdp_get_status.c</text>
</a>
</g>
</g>
<!-- Node1&#45;&gt;Node5 -->
<g id="edge4" class="edge">
<title>Node1&#45;&gt;Node5</title>
<path fill="none" stroke="midnightblue" d="M1767.16,-75.59C1544.73,-73.73 733.12,-64.76 478,-31 467.81,-29.65 456.84,-27.37 447,-25.01"/>
<polygon fill="midnightblue" stroke="midnightblue" points="1767.27,-79.09 1777.3,-75.67 1767.33,-72.09 1767.27,-79.09"/>
</g>
<!-- Node6 -->
<g id="node6" class="node">
<title>Node6</title>
<g id="a_node6"><a xlink:href="vdp__set__adjust_8c.html" target="_top" xlink:title="Copyright (c) 2021 Daishi Mori (mori0091)">
<polygon fill="none" stroke="black" points="487.5,-6 487.5,-25 594.5,-25 594.5,-6 487.5,-6"/>
<text text-anchor="middle" x="541" y="-13" font-family="Helvetica,sans-Serif" font-size="10.00">src/vdp_set_adjust.c</text>
</a>
</g>
</g>
<!-- Node1&#45;&gt;Node6 -->
<g id="edge5" class="edge">
<title>Node1&#45;&gt;Node6</title>
<path fill="none" stroke="midnightblue" d="M1767.33,-75.36C1558.54,-72.79 832.49,-61.77 603,-31 592.92,-29.65 582.08,-27.4 572.32,-25.06"/>
<polygon fill="midnightblue" stroke="midnightblue" points="1767.42,-78.86 1777.46,-75.49 1767.5,-71.86 1767.42,-78.86"/>
</g>
<!-- Node7 -->
<g id="node7" class="node">
<title>Node7</title>
<g id="a_node7"><a xlink:href="vdp__set__color_8c.html" target="_top" xlink:title="Copyright (c) 2021 Daishi Mori (mori0091)">
<polygon fill="none" stroke="black" points="612.5,-6 612.5,-25 713.5,-25 713.5,-6 612.5,-6"/>
<text text-anchor="middle" x="663" y="-13" font-family="Helvetica,sans-Serif" font-size="10.00">src/vdp_set_color.c</text>
</a>
</g>
</g>
<!-- Node1&#45;&gt;Node7 -->
<g id="edge6" class="edge">
<title>Node1&#45;&gt;Node7</title>
<path fill="none" stroke="midnightblue" d="M1767.44,-75.16C1572.28,-72.01 927.86,-59.66 723,-31 713.24,-29.63 702.74,-27.38 693.3,-25.05"/>
<polygon fill="midnightblue" stroke="midnightblue" points="1767.43,-78.66 1777.48,-75.32 1767.54,-71.66 1767.43,-78.66"/>
</g>
<!-- Node8 -->
<g id="node8" class="node">
<title>Node8</title>
<g id="a_node8"><a xlink:href="vdp__set__color__table_8c.html" target="_top" xlink:title="Copyright (c) 2021 Daishi Mori (mori0091)">
<polygon fill="none" stroke="black" points="732,-6 732,-25 860,-25 860,-6 732,-6"/>
<text text-anchor="middle" x="796" y="-13" font-family="Helvetica,sans-Serif" font-size="10.00">src/vdp_set_color_table.c</text>
</a>
</g>
</g>
<!-- Node1&#45;&gt;Node8 -->
<g id="edge7" class="edge">
<title>Node1&#45;&gt;Node8</title>
<path fill="none" stroke="midnightblue" d="M1766.84,-76.27C1618.23,-76.32 1207.69,-72.38 869,-31 857.33,-29.57 844.73,-27.33 833.34,-25.03"/>
<polygon fill="midnightblue" stroke="midnightblue" points="1767.09,-79.77 1777.09,-76.26 1767.08,-72.77 1767.09,-79.77"/>
</g>
<!-- Node9 -->
<g id="node9" class="node">
<title>Node9</title>
<g id="a_node9"><a xlink:href="vdp__set__control_8c.html" target="_top" xlink:title="Copyright (c) 2021 Daishi Mori (mori0091)">
<polygon fill="none" stroke="black" points="878,-6 878,-25 988,-25 988,-6 878,-6"/>
<text text-anchor="middle" x="933" y="-13" font-family="Helvetica,sans-Serif" font-size="10.00">src/vdp_set_control.c</text>
</a>
</g>
</g>
<!-- Node1&#45;&gt;Node9 -->
<g id="edge8" class="edge">
<title>Node1&#45;&gt;Node9</title>
<path fill="none" stroke="midnightblue" d="M1767.02,-76.19C1632.38,-75.93 1284.3,-71.07 997,-31 986.73,-29.57 975.68,-27.32 965.69,-25.02"/>
<polygon fill="midnightblue" stroke="midnightblue" points="1767.1,-79.69 1777.1,-76.2 1767.11,-72.69 1767.1,-79.69"/>
</g>
<!-- Node10 -->
<g id="node10" class="node">
<title>Node10</title>
<g id="a_node10"><a xlink:href="vdp__set__hscroll_8c.html" target="_top" xlink:title="Copyright (c) 2021 Daishi Mori (mori0091)">
<polygon fill="none" stroke="black" points="1006.5,-6 1006.5,-25 1115.5,-25 1115.5,-6 1006.5,-6"/>
<text text-anchor="middle" x="1061" y="-13" font-family="Helvetica,sans-Serif" font-size="10.00">src/vdp_set_hscroll.c</text>
</a>
</g>
</g>
<!-- Node1&#45;&gt;Node10 -->
<g id="edge9" class="edge">
<title>Node1&#45;&gt;Node10</title>
<path fill="none" stroke="midnightblue" d="M1767.44,-75.46C1647.97,-73.65 1361.39,-65.72 1124,-31 1114.01,-29.54 1103.25,-27.31 1093.51,-25.04"/>
<polygon fill="midnightblue" stroke="midnightblue" points="1767.4,-78.96 1777.45,-75.61 1767.5,-71.96 1767.4,-78.96"/>
</g>
<!-- Node11 -->
<g id="node11" class="node">
<title>Node11</title>
<g id="a_node11"><a xlink:href="vdp__set__hscroll__dual__page_8c.html" target="_top" xlink:title="Copyright (c) 2021 Daishi Mori (mori0091)">
<polygon fill="none" stroke="black" points="1133.5,-0.5 1133.5,-30.5 1234.5,-30.5 1234.5,-0.5 1133.5,-0.5"/>
<text text-anchor="start" x="1141.5" y="-18.5" font-family="Helvetica,sans-Serif" font-size="10.00">src/vdp_set_hscroll</text>
<text text-anchor="middle" x="1184" y="-7.5" font-family="Helvetica,sans-Serif" font-size="10.00">_dual_page.c</text>
</a>
</g>
</g>
<!-- Node1&#45;&gt;Node11 -->
<g id="edge10" class="edge">
<title>Node1&#45;&gt;Node11</title>
<path fill="none" stroke="midnightblue" d="M1767.38,-74.69C1663.05,-71.59 1433.69,-61.61 1243,-31 1240.29,-30.57 1237.53,-30.07 1234.74,-29.53"/>
<polygon fill="midnightblue" stroke="midnightblue" points="1767.28,-78.19 1777.38,-74.97 1767.48,-71.19 1767.28,-78.19"/>
</g>
<!-- Node12 -->
<g id="node12" class="node">
<title>Node12</title>
<g id="a_node12"><a xlink:href="vdp__set__hscroll__mask_8c.html" target="_top" xlink:title="Copyright (c) 2021 Daishi Mori (mori0091)">
<polygon fill="none" stroke="black" points="1252.5,-0.5 1252.5,-30.5 1353.5,-30.5 1353.5,-0.5 1252.5,-0.5"/>
<text text-anchor="start" x="1260.5" y="-18.5" font-family="Helvetica,sans-Serif" font-size="10.00">src/vdp_set_hscroll</text>
<text text-anchor="middle" x="1303" y="-7.5" font-family="Helvetica,sans-Serif" font-size="10.00">_mask.c</text>
</a>
</g>
</g>
<!-- Node1&#45;&gt;Node12 -->
<g id="edge11" class="edge">
<title>Node1&#45;&gt;Node12</title>
<path fill="none" stroke="midnightblue" d="M1767.24,-73.11C1679.74,-68.06 1506.85,-55.72 1362,-31 1359.3,-30.54 1356.53,-30.02 1353.75,-29.46"/>
<polygon fill="midnightblue" stroke="midnightblue" points="1767.29,-76.62 1777.48,-73.69 1767.69,-69.63 1767.29,-76.62"/>
</g>
<!-- Node13 -->
<g id="node13" class="node">
<title>Node13</title>
<g id="a_node13"><a xlink:href="vdp__set__image__table_8c.html" target="_top" xlink:title="Copyright (c) 2021 Daishi Mori (mori0091)">
<polygon fill="none" stroke="black" points="1371.5,-6 1371.5,-25 1504.5,-25 1504.5,-6 1371.5,-6"/>
<text text-anchor="middle" x="1438" y="-13" font-family="Helvetica,sans-Serif" font-size="10.00">src/vdp_set_image_table.c</text>
</a>
</g>
</g>
<!-- Node1&#45;&gt;Node13 -->
<g id="edge12" class="edge">
<title>Node1&#45;&gt;Node13</title>
<path fill="none" stroke="midnightblue" d="M1767.41,-68.55C1705.18,-60.18 1602.27,-45.82 1514,-31 1503.27,-29.2 1491.72,-27.09 1480.95,-25.04"/>
<polygon fill="midnightblue" stroke="midnightblue" points="1767.04,-72.03 1777.42,-69.89 1767.97,-65.1 1767.04,-72.03"/>
</g>
<!-- Node14 -->
<g id="node14" class="node">
<title>Node14</title>
<g id="a_node14"><a xlink:href="vdp__set__palette_8c.html" target="_top" xlink:title="Copyright (c) 2021 Daishi Mori (mori0091)">
<polygon fill="none" stroke="black" points="1523,-6 1523,-25 1633,-25 1633,-6 1523,-6"/>
<text text-anchor="middle" x="1578" y="-13" font-family="Helvetica,sans-Serif" font-size="10.00">src/vdp_set_palette.c</text>
</a>
</g>
</g>
<!-- Node1&#45;&gt;Node14 -->
<g id="edge13" class="edge">
<title>Node1&#45;&gt;Node14</title>
<path fill="none" stroke="midnightblue" d="M1778.99,-65.11C1731.24,-53.57 1656.81,-35.56 1613.18,-25.01"/>
<polygon fill="midnightblue" stroke="midnightblue" points="1778.21,-68.53 1788.75,-67.48 1779.86,-61.72 1778.21,-68.53"/>
</g>
<!-- Node15 -->
<g id="node15" class="node">
<title>Node15</title>
<g id="a_node15"><a xlink:href="vdp__set__pattern__table_8c.html" target="_top" xlink:title="Copyright (c) 2021 Daishi Mori (mori0091)">
<polygon fill="none" stroke="black" points="1651.5,-0.5 1651.5,-30.5 1754.5,-30.5 1754.5,-0.5 1651.5,-0.5"/>
<text text-anchor="start" x="1659.5" y="-18.5" font-family="Helvetica,sans-Serif" font-size="10.00">src/vdp_set_pattern</text>
<text text-anchor="middle" x="1703" y="-7.5" font-family="Helvetica,sans-Serif" font-size="10.00">_table.c</text>
</a>
</g>
</g>
<!-- Node1&#45;&gt;Node15 -->
<g id="edge14" class="edge">
<title>Node1&#45;&gt;Node15</title>
<path fill="none" stroke="midnightblue" d="M1797.44,-62.94C1777.93,-53.35 1751.47,-40.33 1731.52,-30.52"/>
<polygon fill="midnightblue" stroke="midnightblue" points="1796.15,-66.2 1806.66,-67.48 1799.23,-59.92 1796.15,-66.2"/>
</g>
<!-- Node16 -->
<g id="node16" class="node">
<title>Node16</title>
<g id="a_node16"><a xlink:href="vdp__set__screen__lines_8c.html" target="_top" xlink:title="Copyright (c) 2021 Daishi Mori (mori0091)">
<polygon fill="none" stroke="black" points="1773,-0.5 1773,-30.5 1875,-30.5 1875,-0.5 1773,-0.5"/>
<text text-anchor="start" x="1781" y="-18.5" font-family="Helvetica,sans-Serif" font-size="10.00">src/vdp_set_screen</text>
<text text-anchor="middle" x="1824" y="-7.5" font-family="Helvetica,sans-Serif" font-size="10.00">_lines.c</text>
</a>
</g>
</g>
<!-- Node1&#45;&gt;Node16 -->
<g id="edge15" class="edge">
<title>Node1&#45;&gt;Node16</title>
<path fill="none" stroke="midnightblue" d="M1824,-57.23C1824,-48.59 1824,-38.5 1824,-30.52"/>
<polygon fill="midnightblue" stroke="midnightblue" points="1820.5,-57.48 1824,-67.48 1827.5,-57.48 1820.5,-57.48"/>
</g>
<!-- Node17 -->
<g id="node17" class="node">
<title>Node17</title>
<g id="a_node17"><a xlink:href="vdp__set__screen__mode_8c.html" target="_top" xlink:title="Copyright (c) 2021 Daishi Mori (mori0091)">
<polygon fill="none" stroke="black" points="1893,-0.5 1893,-30.5 1995,-30.5 1995,-0.5 1893,-0.5"/>
<text text-anchor="start" x="1901" y="-18.5" font-family="Helvetica,sans-Serif" font-size="10.00">src/vdp_set_screen</text>
<text text-anchor="middle" x="1944" y="-7.5" font-family="Helvetica,sans-Serif" font-size="10.00">_mode.c</text>
</a>
</g>
</g>
<!-- Node1&#45;&gt;Node17 -->
<g id="edge16" class="edge">
<title>Node1&#45;&gt;Node17</title>
<path fill="none" stroke="midnightblue" d="M1850.34,-62.94C1869.69,-53.35 1895.93,-40.33 1915.72,-30.52"/>
<polygon fill="midnightblue" stroke="midnightblue" points="1848.6,-59.9 1841.19,-67.48 1851.71,-66.17 1848.6,-59.9"/>
</g>
<!-- Node18 -->
<g id="node18" class="node">
<title>Node18</title>
<g id="a_node18"><a xlink:href="vdp__set__sprite__attribute__table_8c.html" target="_top" xlink:title="Copyright (c) 2021 Daishi Mori (mori0091)">
<polygon fill="none" stroke="black" points="2012.5,-0.5 2012.5,-30.5 2109.5,-30.5 2109.5,-0.5 2012.5,-0.5"/>
<text text-anchor="start" x="2020.5" y="-18.5" font-family="Helvetica,sans-Serif" font-size="10.00">src/vdp_set_sprite</text>
<text text-anchor="middle" x="2061" y="-7.5" font-family="Helvetica,sans-Serif" font-size="10.00">_attribute_table.c</text>
</a>
</g>
</g>
<!-- Node1&#45;&gt;Node18 -->
<g id="edge17" class="edge">
<title>Node1&#45;&gt;Node18</title>
<path fill="none" stroke="midnightblue" d="M1868,-65.05C1904.45,-55.97 1957.61,-42.7 2004,-31 2006.77,-30.3 2009.62,-29.58 2012.49,-28.85"/>
<polygon fill="midnightblue" stroke="midnightblue" points="1867.04,-61.69 1858.18,-67.5 1868.73,-68.48 1867.04,-61.69"/>
</g>
<!-- Node19 -->
<g id="node19" class="node">
<title>Node19</title>
<g id="a_node19"><a xlink:href="vdp__set__sprite__pattern__table_8c.html" target="_top" xlink:title="Copyright (c) 2021 Daishi Mori (mori0091)">
<polygon fill="none" stroke="black" points="2127.5,-0.5 2127.5,-30.5 2224.5,-30.5 2224.5,-0.5 2127.5,-0.5"/>
<text text-anchor="start" x="2135.5" y="-18.5" font-family="Helvetica,sans-Serif" font-size="10.00">src/vdp_set_sprite</text>
<text text-anchor="middle" x="2176" y="-7.5" font-family="Helvetica,sans-Serif" font-size="10.00">_pattern_table.c</text>
</a>
</g>
</g>
<!-- Node1&#45;&gt;Node19 -->
<g id="edge18" class="edge">
<title>Node1&#45;&gt;Node19</title>
<path fill="none" stroke="midnightblue" d="M1880.71,-69.02C1940.32,-61.3 2036.69,-47.71 2119,-31 2121.7,-30.45 2124.47,-29.86 2127.25,-29.23"/>
<polygon fill="midnightblue" stroke="midnightblue" points="1880.22,-65.56 1870.74,-70.3 1881.11,-72.5 1880.22,-65.56"/>
</g>
<!-- Node20 -->
<g id="node20" class="node">
<title>Node20</title>
<g id="a_node20"><a xlink:href="vdp__set__sprite__size_8c.html" target="_top" xlink:title="Copyright (c) 2021 Daishi Mori (mori0091)">
<polygon fill="none" stroke="black" points="2242.5,-0.5 2242.5,-30.5 2339.5,-30.5 2339.5,-0.5 2242.5,-0.5"/>
<text text-anchor="start" x="2250.5" y="-18.5" font-family="Helvetica,sans-Serif" font-size="10.00">src/vdp_set_sprite</text>
<text text-anchor="middle" x="2291" y="-7.5" font-family="Helvetica,sans-Serif" font-size="10.00">_size.c</text>
</a>
</g>
</g>
<!-- Node1&#45;&gt;Node20 -->
<g id="edge19" class="edge">
<title>Node1&#45;&gt;Node20</title>
<path fill="none" stroke="midnightblue" d="M1881.01,-72.27C1960.54,-66.5 2109.08,-53.63 2234,-31 2236.71,-30.51 2239.49,-29.96 2242.28,-29.37"/>
<polygon fill="midnightblue" stroke="midnightblue" points="1880.45,-68.8 1870.73,-73.01 1880.95,-75.79 1880.45,-68.8"/>
</g>
<!-- Node21 -->
<g id="node21" class="node">
<title>Node21</title>
<g id="a_node21"><a xlink:href="vdp__set__sprite__visible_8c.html" target="_top" xlink:title="Copyright (c) 2021 Daishi Mori (mori0091)">
<polygon fill="none" stroke="black" points="2357.5,-0.5 2357.5,-30.5 2454.5,-30.5 2454.5,-0.5 2357.5,-0.5"/>
<text text-anchor="start" x="2365.5" y="-18.5" font-family="Helvetica,sans-Serif" font-size="10.00">src/vdp_set_sprite</text>
<text text-anchor="middle" x="2406" y="-7.5" font-family="Helvetica,sans-Serif" font-size="10.00">_visible.c</text>
</a>
</g>
</g>
<!-- Node1&#45;&gt;Node21 -->
<g id="edge20" class="edge">
<title>Node1&#45;&gt;Node21</title>
<path fill="none" stroke="midnightblue" d="M1880.82,-74.17C1977.55,-70.39 2180.16,-59.51 2349,-31 2351.72,-30.54 2354.5,-30.02 2357.29,-29.45"/>
<polygon fill="midnightblue" stroke="midnightblue" points="1880.53,-70.68 1870.67,-74.56 1880.8,-77.68 1880.53,-70.68"/>
</g>
<!-- Node22 -->
<g id="node22" class="node">
<title>Node22</title>
<g id="a_node22"><a xlink:href="vdp__set__visible_8c.html" target="_top" xlink:title="Copyright (c) 2021 Daishi Mori (mori0091)">
<polygon fill="none" stroke="black" points="2473,-6 2473,-25 2581,-25 2581,-6 2473,-6"/>
<text text-anchor="middle" x="2527" y="-13" font-family="Helvetica,sans-Serif" font-size="10.00">src/vdp_set_visible.c</text>
</a>
</g>
</g>
<!-- Node1&#45;&gt;Node22 -->
<g id="edge21" class="edge">
<title>Node1&#45;&gt;Node22</title>
<path fill="none" stroke="midnightblue" d="M1880.92,-74.97C1993.09,-72.29 2250.34,-62.9 2464,-31 2473.99,-29.51 2484.74,-27.27 2494.49,-25"/>
<polygon fill="midnightblue" stroke="midnightblue" points="1880.76,-71.48 1870.85,-75.2 1880.93,-78.47 1880.76,-71.48"/>
</g>
<!-- Node23 -->
<g id="node23" class="node">
<title>Node23</title>
<g id="a_node23"><a xlink:href="vdp__set__vscroll_8c.html" target="_top" xlink:title="Copyright (c) 2021 Daishi Mori (mori0091)">
<polygon fill="none" stroke="black" points="2599.5,-6 2599.5,-25 2708.5,-25 2708.5,-6 2599.5,-6"/>
<text text-anchor="middle" x="2654" y="-13" font-family="Helvetica,sans-Serif" font-size="10.00">src/vdp_set_vscroll.c</text>
</a>
</g>
</g>
<!-- Node1&#45;&gt;Node23 -->
<g id="edge22" class="edge">
<title>Node1&#45;&gt;Node23</title>
<path fill="none" stroke="midnightblue" d="M1881.22,-75.84C2008.99,-74.78 2327,-68.26 2590,-31 2600.15,-29.56 2611.08,-27.34 2620.97,-25.07"/>
<polygon fill="midnightblue" stroke="midnightblue" points="1880.87,-72.34 1870.9,-75.91 1880.92,-79.34 1880.87,-72.34"/>
</g>
<!-- Node24 -->
<g id="node24" class="node">
<title>Node24</title>
<g id="a_node24"><a xlink:href="vdp__write__control_8c.html" target="_top" xlink:title="Copyright (c) 2021 Daishi Mori (mori0091)">
<polygon fill="none" stroke="black" points="2726.5,-6 2726.5,-25 2843.5,-25 2843.5,-6 2726.5,-6"/>
<text text-anchor="middle" x="2785" y="-13" font-family="Helvetica,sans-Serif" font-size="10.00">src/vdp_write_control.c</text>
</a>
</g>
</g>
<!-- Node1&#45;&gt;Node24 -->
<g id="edge23" class="edge">
<title>Node1&#45;&gt;Node24</title>
<path fill="none" stroke="midnightblue" d="M1880.99,-76.34C2023.01,-76.49 2403.88,-72.61 2718,-31 2728.74,-29.58 2740.31,-27.33 2750.76,-25.03"/>
<polygon fill="midnightblue" stroke="midnightblue" points="1880.78,-72.84 1870.78,-76.32 1880.77,-79.84 1880.78,-72.84"/>
</g>
<!-- Node25 -->
<g id="node25" class="node">
<title>Node25</title>
<g id="a_node25"><a xlink:href="vdp__write__palette_8c.html" target="_top" xlink:title="Copyright (c) 2021 Daishi Mori (mori0091)">
<polygon fill="none" stroke="black" points="2861.5,-6 2861.5,-25 2978.5,-25 2978.5,-6 2861.5,-6"/>
<text text-anchor="middle" x="2920" y="-13" font-family="Helvetica,sans-Serif" font-size="10.00">src/vdp_write_palette.c</text>
</a>
</g>
</g>
<!-- Node1&#45;&gt;Node25 -->
<g id="edge24" class="edge">
<title>Node1&#45;&gt;Node25</title>
<path fill="none" stroke="midnightblue" d="M1880.86,-74.78C2067.85,-70.58 2662.63,-55.58 2853,-31 2863.86,-29.6 2875.57,-27.33 2886.11,-25"/>
<polygon fill="midnightblue" stroke="midnightblue" points="1880.62,-71.29 1870.7,-75.01 1880.77,-78.29 1880.62,-71.29"/>
</g>
<!-- Node26 -->
<g id="node26" class="node">
<title>Node26</title>
<g id="a_node26"><a xlink:href="vmem__memset_8c.html" target="_top" xlink:title="Copyright (c) 2021 Daishi Mori (mori0091)">
<polygon fill="none" stroke="black" points="2997,-6 2997,-25 3105,-25 3105,-6 2997,-6"/>
<text text-anchor="middle" x="3051" y="-13" font-family="Helvetica,sans-Serif" font-size="10.00">src/vmem_memset.c</text>
</a>
</g>
</g>
<!-- Node1&#45;&gt;Node26 -->
<g id="edge25" class="edge">
<title>Node1&#45;&gt;Node26</title>
<path fill="none" stroke="midnightblue" d="M1880.7,-75.22C2083.18,-72.2 2770.15,-60.02 2988,-31 2998.24,-29.64 3009.25,-27.38 3019.16,-25.05"/>
<polygon fill="midnightblue" stroke="midnightblue" points="1880.53,-71.72 1870.58,-75.37 1880.63,-78.72 1880.53,-71.72"/>
</g>
<!-- Node27 -->
<g id="node27" class="node">
<title>Node27</title>
<g id="a_node27"><a xlink:href="vmem__read_8c.html" target="_top" xlink:title="Copyright (c) 2021 Daishi Mori (mori0091)">
<polygon fill="none" stroke="black" points="3123,-6 3123,-25 3215,-25 3215,-6 3123,-6"/>
<text text-anchor="middle" x="3169" y="-13" font-family="Helvetica,sans-Serif" font-size="10.00">src/vmem_read.c</text>
</a>
</g>
</g>
<!-- Node1&#45;&gt;Node27 -->
<g id="edge26" class="edge">
<title>Node1&#45;&gt;Node27</title>
<path fill="none" stroke="midnightblue" d="M1880.99,-75.7C2097.77,-74.29 2870.92,-66.82 3114,-31 3123.09,-29.66 3132.83,-27.38 3141.55,-25.02"/>
<polygon fill="midnightblue" stroke="midnightblue" points="1880.77,-72.2 1870.8,-75.76 1880.82,-79.2 1880.77,-72.2"/>
</g>
<!-- Node28 -->
<g id="node28" class="node">
<title>Node28</title>
<g id="a_node28"><a xlink:href="vmem__set__read__address_8c.html" target="_top" xlink:title="Copyright (c) 2021 Daishi Mori (mori0091)">
<polygon fill="none" stroke="black" points="3233,-6 3233,-25 3383,-25 3383,-6 3233,-6"/>
<text text-anchor="middle" x="3308" y="-13" font-family="Helvetica,sans-Serif" font-size="10.00">src/vmem_set_read_address.c</text>
</a>
</g>
</g>
<!-- Node1&#45;&gt;Node28 -->
<g id="edge27" class="edge">
<title>Node1&#45;&gt;Node28</title>
<path fill="none" stroke="midnightblue" d="M1880.81,-75.23C2108.65,-71.97 2956.84,-58.22 3224,-31 3237.54,-29.62 3252.2,-27.36 3265.43,-25.03"/>
<polygon fill="midnightblue" stroke="midnightblue" points="1880.69,-71.73 1870.74,-75.37 1880.79,-78.73 1880.69,-71.73"/>
</g>
<!-- Node29 -->
<g id="node29" class="node">
<title>Node29</title>
<g id="a_node29"><a xlink:href="vmem__set__write__address_8c.html" target="_top" xlink:title="Copyright (c) 2021 Daishi Mori (mori0091)">
<polygon fill="none" stroke="black" points="3401.5,-0.5 3401.5,-30.5 3506.5,-30.5 3506.5,-0.5 3401.5,-0.5"/>
<text text-anchor="start" x="3409.5" y="-18.5" font-family="Helvetica,sans-Serif" font-size="10.00">src/vmem_set_write</text>
<text text-anchor="middle" x="3454" y="-7.5" font-family="Helvetica,sans-Serif" font-size="10.00">_address.c</text>
</a>
</g>
</g>
<!-- Node1&#45;&gt;Node29 -->
<g id="edge28" class="edge">
<title>Node1&#45;&gt;Node29</title>
<path fill="none" stroke="midnightblue" d="M1880.69,-75.9C2125.23,-75.23 3090.98,-70.11 3392,-31 3395.07,-30.6 3398.21,-30.12 3401.37,-29.57"/>
<polygon fill="midnightblue" stroke="midnightblue" points="1880.59,-72.4 1870.6,-75.93 1880.61,-79.4 1880.59,-72.4"/>
</g>
<!-- Node30 -->
<g id="node30" class="node">
<title>Node30</title>
<g id="a_node30"><a xlink:href="vmem__write_8c.html" target="_top" xlink:title="Copyright (c) 2021 Daishi Mori (mori0091)">
<polygon fill="none" stroke="black" points="3525,-6 3525,-25 3619,-25 3619,-6 3525,-6"/>
<text text-anchor="middle" x="3572" y="-13" font-family="Helvetica,sans-Serif" font-size="10.00">src/vmem_write.c</text>
</a>
</g>
</g>
<!-- Node1&#45;&gt;Node30 -->
<g id="edge29" class="edge">
<title>Node1&#45;&gt;Node30</title>
<path fill="none" stroke="midnightblue" d="M1880.93,-76.22C2137.75,-76.93 3189.89,-76.95 3516,-31 3525.25,-29.7 3535.17,-27.43 3544.05,-25.06"/>
<polygon fill="midnightblue" stroke="midnightblue" points="1880.73,-72.72 1870.72,-76.19 1880.71,-79.72 1880.73,-72.72"/>
</g>
</g>
</svg>
