<?xml version="1.0" encoding="UTF-8" standalone="no"?>
<!DOCTYPE svg PUBLIC "-//W3C//DTD SVG 1.1//EN"
 "http://www.w3.org/Graphics/SVG/1.1/DTD/svg11.dtd">
<!-- Generated by graphviz version 7.0.5 (20221223.1930)
 -->
<!-- Title: include/vdp_unsafe.h Pages: 1 -->
<svg width="154pt" height="192pt"
 viewBox="0.00 0.00 154.00 192.00" xmlns="http://www.w3.org/2000/svg" xmlns:xlink="http://www.w3.org/1999/xlink">
<g id="graph0" class="graph" transform="scale(1 1) rotate(0) translate(4 188)">
<title>include/vdp_unsafe.h</title>
<!-- Node1 -->
<g id="node1" class="node">
<title>Node1</title>
<g id="a_node1"><a xlink:title="Unsafe primitive functions for VDP (Video Display Proccessor) access.">
<polygon fill="#999999" stroke="#666666" points="146,-184 38,-184 38,-165 146,-165 146,-184"/>
<text text-anchor="middle" x="92" y="-172" font-family="Helvetica,sans-Serif" font-size="10.00">include/vdp_unsafe.h</text>
</a>
</g>
</g>
<!-- Node2 -->
<g id="node2" class="node">
<title>Node2</title>
<g id="a_node2"><a xlink:href="vdp_8h.html" target="_top" xlink:title="Data types and functions for VDP (Video Display Proccessor) access.">
<polygon fill="white" stroke="#666666" points="129,-129 55,-129 55,-110 129,-110 129,-129"/>
<text text-anchor="middle" x="92" y="-117" font-family="Helvetica,sans-Serif" font-size="10.00">include/vdp.h</text>
</a>
</g>
</g>
<!-- Node1&#45;&gt;Node2 -->
<g id="edge1" class="edge">
<title>Node1&#45;&gt;Node2</title>
<path fill="none" stroke="#63b8ff" d="M92,-153.35C92,-145.1 92,-135.97 92,-129.44"/>
<polygon fill="#63b8ff" stroke="#63b8ff" points="88.5,-153.23 92,-163.23 95.5,-153.23 88.5,-153.23"/>
</g>
<!-- Node3 -->
<g id="node3" class="node">
<title>Node3</title>
<g id="a_node3"><a xlink:href="metasprite_8h.html" target="_top" xlink:title="Meta&#45;sprite ; an aggregate of sprites.">
<polygon fill="white" stroke="#666666" points="104,-74 0,-74 0,-55 104,-55 104,-74"/>
<text text-anchor="middle" x="52" y="-62" font-family="Helvetica,sans-Serif" font-size="10.00">include/metasprite.h</text>
</a>
</g>
</g>
<!-- Node2&#45;&gt;Node3 -->
<g id="edge2" class="edge">
<title>Node2&#45;&gt;Node3</title>
<path fill="none" stroke="#63b8ff" d="M78.53,-100.65C71.88,-91.84 64.14,-81.59 58.75,-74.44"/>
<polygon fill="#63b8ff" stroke="#63b8ff" points="75.67,-102.67 84.48,-108.54 81.25,-98.45 75.67,-102.67"/>
</g>
<!-- Node4 -->
<g id="node4" class="node">
<title>Node4</title>
<g id="a_node4"><a xlink:href="msx_8h.html" target="_top" xlink:title="Using #include &lt;msx.h&gt; includes almost all C header files in libmsx, for ease to use.">
<polygon fill="white" stroke="#666666" points="130,-19 54,-19 54,0 130,0 130,-19"/>
<text text-anchor="middle" x="92" y="-7" font-family="Helvetica,sans-Serif" font-size="10.00">include/msx.h</text>
</a>
</g>
</g>
<!-- Node2&#45;&gt;Node4 -->
<g id="edge4" class="edge">
<title>Node2&#45;&gt;Node4</title>
<path fill="none" stroke="#63b8ff" d="M103.78,-99.91C110.3,-87.4 116.46,-70.42 113,-55 110.05,-41.83 102.74,-27.97 97.58,-19.28"/>
<polygon fill="#63b8ff" stroke="#63b8ff" points="100.9,-97.89 98.94,-108.3 106.96,-101.39 100.9,-97.89"/>
</g>
<!-- Node3&#45;&gt;Node4 -->
<g id="edge3" class="edge">
<title>Node3&#45;&gt;Node4</title>
<path fill="none" stroke="#63b8ff" d="M65.47,-45.65C72.12,-36.84 79.86,-26.59 85.25,-19.44"/>
<polygon fill="#63b8ff" stroke="#63b8ff" points="62.75,-43.45 59.52,-53.54 68.33,-47.67 62.75,-43.45"/>
</g>
</g>
</svg>
