<?xml version="1.0" encoding="UTF-8" standalone="no"?>
<!DOCTYPE svg PUBLIC "-//W3C//DTD SVG 1.1//EN"
 "http://www.w3.org/Graphics/SVG/1.1/DTD/svg11.dtd">
<!-- Generated by graphviz version 12.2.0 (20241103.1931)
 -->
<!-- Title: include/vmem.h Pages: 1 -->
<svg width="1057pt" height="248pt"
 viewBox="0.00 0.00 1057.25 248.25" xmlns="http://www.w3.org/2000/svg" xmlns:xlink="http://www.w3.org/1999/xlink">
<g id="graph0" class="graph" transform="scale(1 1) rotate(0) translate(4 244.25)">
<title>include/vmem.h</title>
<!-- Node1 -->
<g id="Node000001" class="node">
<title>Node1</title>
<g id="a_Node000001"><a xlink:title="Data types and functions for VRAM access.">
<polygon fill="#999999" stroke="#666666" points="708,-240.25 623.75,-240.25 623.75,-221 708,-221 708,-240.25"/>
<text text-anchor="middle" x="665.88" y="-226.75" font-family="Helvetica,sans-Serif" font-size="10.00">include/vmem.h</text>
</a>
</g>
</g>
<!-- Node2 -->
<g id="Node000002" class="node">
<title>Node2</title>
<g id="a_Node000002"><a xlink:href="ZX0__decompress_8h.html" target="_top" xlink:title="Decompressor of the ZX0 data compression format version 2.">
<polygon fill="white" stroke="#666666" points="133.75,-129.75 0,-129.75 0,-110.5 133.75,-110.5 133.75,-129.75"/>
<text text-anchor="middle" x="66.88" y="-116.25" font-family="Helvetica,sans-Serif" font-size="10.00">include/ZX0_decompress.h</text>
</a>
</g>
</g>
<!-- Node1&#45;&gt;Node2 -->
<g id="edge1_Node000001_Node000002" class="edge">
<title>Node1&#45;&gt;Node2</title>
<g id="a_edge1_Node000001_Node000002"><a xlink:title=" ">
<path fill="none" stroke="#63b8ff" d="M611.9,-227.07C534.38,-222.62 387.35,-211.29 264.88,-185 200.07,-171.09 126.44,-144.3 89.93,-130.25"/>
<polygon fill="#63b8ff" stroke="#63b8ff" points="611.59,-230.56 621.77,-227.62 611.98,-223.57 611.59,-230.56"/>
</a>
</g>
</g>
<!-- Node3 -->
<g id="Node000003" class="node">
<title>Node3</title>
<g id="a_Node000003"><a xlink:href="bmem_8h.html" target="_top" xlink:title="Data types and functions for accessing banked memory.">
<polygon fill="white" stroke="#666666" points="358,-185 273.75,-185 273.75,-165.75 358,-165.75 358,-185"/>
<text text-anchor="middle" x="315.88" y="-171.5" font-family="Helvetica,sans-Serif" font-size="10.00">include/bmem.h</text>
</a>
</g>
</g>
<!-- Node1&#45;&gt;Node3 -->
<g id="edge2_Node000001_Node000003" class="edge">
<title>Node1&#45;&gt;Node3</title>
<g id="a_edge2_Node000001_Node000003"><a xlink:title=" ">
<path fill="none" stroke="#63b8ff" d="M612.15,-221.45C542.43,-210.84 422.17,-192.55 358.42,-182.85"/>
<polygon fill="#63b8ff" stroke="#63b8ff" points="611.4,-224.88 621.81,-222.92 612.45,-217.96 611.4,-224.88"/>
</a>
</g>
</g>
<!-- Node10 -->
<g id="Node000010" class="node">
<title>Node10</title>
<g id="a_Node000010"><a xlink:href="metasprite_8h.html" target="_top" xlink:title="Meta&#45;sprite ; an aggregate of sprites.">
<polygon fill="white" stroke="#666666" points="788.38,-74.5 685.38,-74.5 685.38,-55.25 788.38,-55.25 788.38,-74.5"/>
<text text-anchor="middle" x="736.88" y="-61" font-family="Helvetica,sans-Serif" font-size="10.00">include/metasprite.h</text>
</a>
</g>
</g>
<!-- Node1&#45;&gt;Node10 -->
<g id="edge10_Node000001_Node000010" class="edge">
<title>Node1&#45;&gt;Node10</title>
<g id="a_edge10_Node000001_Node000010"><a xlink:title=" ">
<path fill="none" stroke="#63b8ff" d="M683.08,-212.34C690.06,-204.53 697.68,-194.85 702.88,-185 723.03,-146.76 732.5,-95.13 735.63,-74.71"/>
<polygon fill="#63b8ff" stroke="#63b8ff" points="680.71,-209.76 676.41,-219.44 685.81,-214.55 680.71,-209.76"/>
</a>
</g>
</g>
<!-- Node11 -->
<g id="Node000011" class="node">
<title>Node11</title>
<g id="a_Node000011"><a xlink:href="msx_8h.html" target="_top" xlink:title="Using #include &lt;msx.h&gt; includes almost all C header files in libmsx, for ease to use.">
<polygon fill="white" stroke="#666666" points="774.5,-19.25 699.25,-19.25 699.25,0 774.5,0 774.5,-19.25"/>
<text text-anchor="middle" x="736.88" y="-5.75" font-family="Helvetica,sans-Serif" font-size="10.00">include/msx.h</text>
</a>
</g>
</g>
<!-- Node1&#45;&gt;Node11 -->
<g id="edge12_Node000001_Node000011" class="edge">
<title>Node1&#45;&gt;Node11</title>
<g id="a_edge12_Node000001_Node000011"><a xlink:title=" ">
<path fill="none" stroke="#63b8ff" d="M612.62,-218.61C581.85,-209.2 551.15,-192.8 561.88,-165.75 591.36,-91.4 679.1,-39.62 717.97,-19.7"/>
<polygon fill="#63b8ff" stroke="#63b8ff" points="611.41,-221.9 621.98,-221.24 613.3,-215.16 611.41,-221.9"/>
</a>
</g>
</g>
<!-- Node12 -->
<g id="Node000012" class="node">
<title>Node12</title>
<g id="a_Node000012"><a xlink:href="sm2__cfg_8h.html" target="_top" xlink:title="SM2 (Sprite Mode 2) Runtime configuration.">
<polygon fill="white" stroke="#666666" points="1049.25,-185 954.5,-185 954.5,-165.75 1049.25,-165.75 1049.25,-185"/>
<text text-anchor="middle" x="1001.88" y="-171.5" font-family="Helvetica,sans-Serif" font-size="10.00">include/sm2_cfg.h</text>
</a>
</g>
</g>
<!-- Node1&#45;&gt;Node12 -->
<g id="edge13_Node000001_Node000012" class="edge">
<title>Node1&#45;&gt;Node12</title>
<g id="a_edge13_Node000001_Node000012"><a xlink:title=" ">
<path fill="none" stroke="#63b8ff" d="M719.62,-221.11C784.42,-210.84 892.33,-193.74 954.26,-183.92"/>
<polygon fill="#63b8ff" stroke="#63b8ff" points="719.25,-217.62 709.92,-222.64 720.35,-224.54 719.25,-217.62"/>
</a>
</g>
</g>
<!-- Node15 -->
<g id="Node000015" class="node">
<title>Node15</title>
<g id="a_Node000015"><a xlink:href="sprite_8h.html" target="_top" xlink:title="Sprites.">
<polygon fill="white" stroke="#666666" points="857.5,-185 776.25,-185 776.25,-165.75 857.5,-165.75 857.5,-185"/>
<text text-anchor="middle" x="816.88" y="-171.5" font-family="Helvetica,sans-Serif" font-size="10.00">include/sprite.h</text>
</a>
</g>
</g>
<!-- Node1&#45;&gt;Node15 -->
<g id="edge16_Node000001_Node000015" class="edge">
<title>Node1&#45;&gt;Node15</title>
<g id="a_edge16_Node000001_Node000015"><a xlink:title=" ">
<path fill="none" stroke="#63b8ff" d="M702.24,-216.8C729.69,-207.12 766.69,-194.07 791.13,-185.45"/>
<polygon fill="#63b8ff" stroke="#63b8ff" points="701.18,-213.46 692.92,-220.09 703.51,-220.06 701.18,-213.46"/>
</a>
</g>
</g>
<!-- Node16 -->
<g id="Node000016" class="node">
<title>Node16</title>
<g id="a_Node000016"><a xlink:href="sprite__color_8h.html" target="_top" xlink:title="Sprite color table interface.">
<polygon fill="white" stroke="#666666" points="990.62,-129.75 883.12,-129.75 883.12,-110.5 990.62,-110.5 990.62,-129.75"/>
<text text-anchor="middle" x="936.88" y="-116.25" font-family="Helvetica,sans-Serif" font-size="10.00">include/sprite_color.h</text>
</a>
</g>
</g>
<!-- Node1&#45;&gt;Node16 -->
<g id="edge23_Node000001_Node000016" class="edge">
<title>Node1&#45;&gt;Node16</title>
<g id="a_edge23_Node000001_Node000016"><a xlink:title=" ">
<path fill="none" stroke="#63b8ff" d="M719.84,-225.29C761.87,-220.16 820.63,-209.02 866.88,-185 893.74,-171.05 918.15,-144.15 929.75,-130.13"/>
<polygon fill="#63b8ff" stroke="#63b8ff" points="719.5,-221.81 709.96,-226.41 720.29,-228.76 719.5,-221.81"/>
</a>
</g>
</g>
<!-- Node17 -->
<g id="Node000017" class="node">
<title>Node17</title>
<g id="a_Node000017"><a xlink:href="vdp_8h.html" target="_top" xlink:title="Data types and functions for VDP (Video Display Proccessor) access.">
<polygon fill="white" stroke="#666666" points="703.38,-129.75 630.38,-129.75 630.38,-110.5 703.38,-110.5 703.38,-129.75"/>
<text text-anchor="middle" x="666.88" y="-116.25" font-family="Helvetica,sans-Serif" font-size="10.00">include/vdp.h</text>
</a>
</g>
</g>
<!-- Node1&#45;&gt;Node17 -->
<g id="edge24_Node000001_Node000017" class="edge">
<title>Node1&#45;&gt;Node17</title>
<g id="a_edge24_Node000001_Node000017"><a xlink:title=" ">
<path fill="none" stroke="#63b8ff" d="M677.54,-210.81C681.66,-203.11 685.8,-193.92 687.88,-185 692.54,-164.99 680.86,-142.3 673.11,-130.08"/>
<polygon fill="#63b8ff" stroke="#63b8ff" points="674.65,-208.8 672.68,-219.21 680.71,-212.31 674.65,-208.8"/>
</a>
</g>
</g>
<!-- Node18 -->
<g id="Node000018" class="node">
<title>Node18</title>
<g id="a_Node000018"><a xlink:href="vdp__unsafe_8h.html" target="_top" xlink:title="Unsafe primitive functions for VDP (Video Display Proccessor) access.">
<polygon fill="white" stroke="#666666" points="678.62,-185 571.12,-185 571.12,-165.75 678.62,-165.75 678.62,-185"/>
<text text-anchor="middle" x="624.88" y="-171.5" font-family="Helvetica,sans-Serif" font-size="10.00">include/vdp_unsafe.h</text>
</a>
</g>
</g>
<!-- Node1&#45;&gt;Node18 -->
<g id="edge27_Node000001_Node000018" class="edge">
<title>Node1&#45;&gt;Node18</title>
<g id="a_edge27_Node000001_Node000018"><a xlink:title=" ">
<path fill="none" stroke="#63b8ff" d="M652.29,-211.97C645.42,-203.06 637.38,-192.62 631.79,-185.36"/>
<polygon fill="#63b8ff" stroke="#63b8ff" points="649.31,-213.84 658.18,-219.63 654.85,-209.57 649.31,-213.84"/>
</a>
</g>
</g>
<!-- Node19 -->
<g id="Node000019" class="node">
<title>Node19</title>
<g id="a_Node000019"><a xlink:href="vmem__rw_8h.html" target="_top" xlink:title="Stream like access functions for VRAM.">
<polygon fill="white" stroke="#666666" points="514.88,-185 414.88,-185 414.88,-165.75 514.88,-165.75 514.88,-185"/>
<text text-anchor="middle" x="464.88" y="-171.5" font-family="Helvetica,sans-Serif" font-size="10.00">include/vmem_rw.h</text>
</a>
</g>
</g>
<!-- Node1&#45;&gt;Node19 -->
<g id="edge29_Node000001_Node000019" class="edge">
<title>Node1&#45;&gt;Node19</title>
<g id="a_edge29_Node000001_Node000019"><a xlink:title=" ">
<path fill="none" stroke="#63b8ff" d="M620.85,-217.7C584.01,-207.94 532.69,-194.34 499.14,-185.45"/>
<polygon fill="#63b8ff" stroke="#63b8ff" points="619.75,-221.03 630.32,-220.2 621.54,-214.26 619.75,-221.03"/>
</a>
</g>
</g>
<!-- Node3&#45;&gt;Node2 -->
<g id="edge3_Node000003_Node000002" class="edge">
<title>Node3&#45;&gt;Node2</title>
<g id="a_edge3_Node000003_Node000002"><a xlink:title=" ">
<path fill="none" stroke="#63b8ff" d="M262.15,-162.88C216.35,-153.09 151.41,-139.2 109.22,-130.18"/>
<polygon fill="#63b8ff" stroke="#63b8ff" points="261.36,-166.3 271.87,-164.96 262.83,-159.45 261.36,-166.3"/>
</a>
</g>
</g>
<!-- Node4 -->
<g id="Node000004" class="node">
<title>Node4</title>
<g id="a_Node000004"><a xlink:href="bmem__rd_8h.html" target="_top" xlink:title="Stream like access functions for Banked Memory.">
<polygon fill="white" stroke="#666666" points="476.75,-129.75 379,-129.75 379,-110.5 476.75,-110.5 476.75,-129.75"/>
<text text-anchor="middle" x="427.88" y="-116.25" font-family="Helvetica,sans-Serif" font-size="10.00">include/bmem_rd.h</text>
</a>
</g>
</g>
<!-- Node3&#45;&gt;Node4 -->
<g id="edge4_Node000003_Node000004" class="edge">
<title>Node3&#45;&gt;Node4</title>
<g id="a_edge4_Node000003_Node000004"><a xlink:title=" ">
<path fill="none" stroke="#63b8ff" d="M345.04,-160.51C365.15,-150.95 391.29,-138.52 408.78,-130.2"/>
<polygon fill="#63b8ff" stroke="#63b8ff" points="343.77,-157.24 336.24,-164.69 346.78,-163.56 343.77,-157.24"/>
</a>
</g>
</g>
<!-- Node6 -->
<g id="Node000006" class="node">
<title>Node6</title>
<g id="a_Node000006"><a xlink:href="memfile_8h.html" target="_top" xlink:title="Stream interface for ROM / RAM / MegaROM.">
<polygon fill="white" stroke="#666666" points="361.38,-129.75 270.38,-129.75 270.38,-110.5 361.38,-110.5 361.38,-129.75"/>
<text text-anchor="middle" x="315.88" y="-116.25" font-family="Helvetica,sans-Serif" font-size="10.00">include/memfile.h</text>
</a>
</g>
</g>
<!-- Node3&#45;&gt;Node6 -->
<g id="edge6_Node000003_Node000006" class="edge">
<title>Node3&#45;&gt;Node6</title>
<g id="a_edge6_Node000003_Node000006"><a xlink:title=" ">
<path fill="none" stroke="#63b8ff" d="M315.88,-154.13C315.88,-145.84 315.88,-136.67 315.88,-130.11"/>
<polygon fill="#63b8ff" stroke="#63b8ff" points="312.38,-154.07 315.88,-164.07 319.38,-154.07 312.38,-154.07"/>
</a>
</g>
</g>
<!-- Node9 -->
<g id="Node000009" class="node">
<title>Node9</title>
<g id="a_Node000009"><a xlink:href="resources_8h.html" target="_top" xlink:title="Data types and functions for accessing embedded resources.">
<polygon fill="white" stroke="#666666" points="251.88,-129.75 151.88,-129.75 151.88,-110.5 251.88,-110.5 251.88,-129.75"/>
<text text-anchor="middle" x="201.88" y="-116.25" font-family="Helvetica,sans-Serif" font-size="10.00">include/resources.h</text>
</a>
</g>
</g>
<!-- Node3&#45;&gt;Node9 -->
<g id="edge9_Node000003_Node000009" class="edge">
<title>Node3&#45;&gt;Node9</title>
<g id="a_edge9_Node000003_Node000009"><a xlink:title=" ">
<path fill="none" stroke="#63b8ff" d="M286.19,-160.51C265.72,-150.95 239.11,-138.52 221.31,-130.2"/>
<polygon fill="#63b8ff" stroke="#63b8ff" points="284.62,-163.64 295.17,-164.7 287.59,-157.3 284.62,-163.64"/>
</a>
</g>
</g>
<!-- Node5 -->
<g id="Node000005" class="node">
<title>Node5</title>
<g id="a_Node000005"><a xlink:href="xmem_8h.html" target="_top" xlink:title="Inter&#45;memory transfer functions for ROM / RAM, VRAM, and Banked Memory (MegaROM).">
<polygon fill="white" stroke="#666666" points="491.62,-74.5 408.12,-74.5 408.12,-55.25 491.62,-55.25 491.62,-74.5"/>
<text text-anchor="middle" x="449.88" y="-61" font-family="Helvetica,sans-Serif" font-size="10.00">include/xmem.h</text>
</a>
</g>
</g>
<!-- Node4&#45;&gt;Node5 -->
<g id="edge5_Node000004_Node000005" class="edge">
<title>Node4&#45;&gt;Node5</title>
<g id="a_edge5_Node000004_Node000005"><a xlink:title=" ">
<path fill="none" stroke="#63b8ff" d="M435.88,-99.75C439.4,-91.24 443.36,-81.65 446.16,-74.86"/>
<polygon fill="#63b8ff" stroke="#63b8ff" points="432.67,-98.35 432.09,-108.93 439.14,-101.03 432.67,-98.35"/>
</a>
</g>
</g>
<!-- Node7 -->
<g id="Node000007" class="node">
<title>Node7</title>
<g id="a_Node000007"><a xlink:href="audio__buf_8h.html" target="_top" xlink:title="Unified sound&#45;chip buffer of the libmsx audio replayer.">
<polygon fill="white" stroke="#666666" points="377.5,-74.5 278.25,-74.5 278.25,-55.25 377.5,-55.25 377.5,-74.5"/>
<text text-anchor="middle" x="327.88" y="-61" font-family="Helvetica,sans-Serif" font-size="10.00">include/audio_buf.h</text>
</a>
</g>
</g>
<!-- Node6&#45;&gt;Node7 -->
<g id="edge7_Node000006_Node000007" class="edge">
<title>Node6&#45;&gt;Node7</title>
<g id="a_edge7_Node000006_Node000007"><a xlink:title=" ">
<path fill="none" stroke="#63b8ff" d="M320.37,-99.17C322.26,-90.8 324.35,-81.5 325.85,-74.86"/>
<polygon fill="#63b8ff" stroke="#63b8ff" points="316.97,-98.33 318.19,-108.86 323.8,-99.87 316.97,-98.33"/>
</a>
</g>
</g>
<!-- Node8 -->
<g id="Node000008" class="node">
<title>Node8</title>
<g id="a_Node000008"><a xlink:href="la0_8h.html" target="_top" xlink:title="The libmsx audio format 0 (LA0) decoder.">
<polygon fill="white" stroke="#666666" points="259.88,-74.5 189.88,-74.5 189.88,-55.25 259.88,-55.25 259.88,-74.5"/>
<text text-anchor="middle" x="224.88" y="-61" font-family="Helvetica,sans-Serif" font-size="10.00">include/la0.h</text>
</a>
</g>
</g>
<!-- Node6&#45;&gt;Node8 -->
<g id="edge8_Node000006_Node000008" class="edge">
<title>Node6&#45;&gt;Node8</title>
<g id="a_edge8_Node000006_Node000008"><a xlink:title=" ">
<path fill="none" stroke="#63b8ff" d="M290.58,-104.32C274.48,-94.9 254.14,-83 240.39,-74.95"/>
<polygon fill="#63b8ff" stroke="#63b8ff" points="288.73,-107.3 299.13,-109.33 292.27,-101.26 288.73,-107.3"/>
</a>
</g>
</g>
<!-- Node10&#45;&gt;Node11 -->
<g id="edge11_Node000010_Node000011" class="edge">
<title>Node10&#45;&gt;Node11</title>
<g id="a_edge11_Node000010_Node000011"><a xlink:title=" ">
<path fill="none" stroke="#63b8ff" d="M736.88,-43.63C736.88,-35.34 736.88,-26.17 736.88,-19.61"/>
<polygon fill="#63b8ff" stroke="#63b8ff" points="733.38,-43.57 736.88,-53.57 740.38,-43.57 733.38,-43.57"/>
</a>
</g>
</g>
<!-- Node13 -->
<g id="Node000013" class="node">
<title>Node13</title>
<g id="a_Node000013"><a xlink:href="sm2_8h.html" target="_top" xlink:title="SM2 (Sprite Mode 2) Animated Color Sprites.">
<polygon fill="white" stroke="#666666" points="974.88,-74.5 898.88,-74.5 898.88,-55.25 974.88,-55.25 974.88,-74.5"/>
<text text-anchor="middle" x="936.88" y="-61" font-family="Helvetica,sans-Serif" font-size="10.00">include/sm2.h</text>
</a>
</g>
</g>
<!-- Node12&#45;&gt;Node13 -->
<g id="edge14_Node000012_Node000013" class="edge">
<title>Node12&#45;&gt;Node13</title>
<g id="a_edge14_Node000012_Node000013"><a xlink:title=" ">
<path fill="none" stroke="#63b8ff" d="M1005.66,-154.31C1007.13,-141.09 1007.04,-123.83 999.88,-110.5 991,-93.97 972.99,-82.17 958.49,-74.88"/>
<polygon fill="#63b8ff" stroke="#63b8ff" points="1002.23,-153.57 1004.18,-163.98 1009.15,-154.63 1002.23,-153.57"/>
</a>
</g>
</g>
<!-- Node14 -->
<g id="Node000014" class="node">
<title>Node14</title>
<g id="a_Node000014"><a xlink:href="sm2__bmem_8h.html" target="_top" xlink:title="SM2 (Sprite Mode 2) internal APIs for BMEM / Resources.">
<polygon fill="white" stroke="#666666" points="991,-19.25 882.75,-19.25 882.75,0 991,0 991,-19.25"/>
<text text-anchor="middle" x="936.88" y="-5.75" font-family="Helvetica,sans-Serif" font-size="10.00">include/sm2_bmem.h</text>
</a>
</g>
</g>
<!-- Node13&#45;&gt;Node14 -->
<g id="edge15_Node000013_Node000014" class="edge">
<title>Node13&#45;&gt;Node14</title>
<g id="a_edge15_Node000013_Node000014"><a xlink:title=" ">
<path fill="none" stroke="#63b8ff" d="M936.88,-43.63C936.88,-35.34 936.88,-26.17 936.88,-19.61"/>
<polygon fill="#63b8ff" stroke="#63b8ff" points="933.38,-43.57 936.88,-53.57 940.38,-43.57 933.38,-43.57"/>
</a>
</g>
</g>
<!-- Node15&#45;&gt;Node10 -->
<g id="edge17_Node000015_Node000010" class="edge">
<title>Node15&#45;&gt;Node10</title>
<g id="a_edge17_Node000015_Node000010"><a xlink:title=" ">
<path fill="none" stroke="#63b8ff" d="M803.54,-156.29C786.22,-132.8 756.66,-92.7 743.51,-74.88"/>
<polygon fill="#63b8ff" stroke="#63b8ff" points="800.68,-158.31 809.43,-164.28 806.31,-154.15 800.68,-158.31"/>
</a>
</g>
</g>
<!-- Node15&#45;&gt;Node11 -->
<g id="edge18_Node000015_Node000011" class="edge">
<title>Node15&#45;&gt;Node11</title>
<g id="a_edge18_Node000015_Node000011"><a xlink:title=" ">
<path fill="none" stroke="#63b8ff" d="M818.15,-154.25C818.78,-129.2 816.66,-85.99 797.88,-55.25 788.09,-39.24 770.2,-27.19 756.32,-19.68"/>
<polygon fill="#63b8ff" stroke="#63b8ff" points="814.66,-153.87 817.71,-164.02 821.66,-154.18 814.66,-153.87"/>
</a>
</g>
</g>
<!-- Node15&#45;&gt;Node13 -->
<g id="edge19_Node000015_Node000013" class="edge">
<title>Node15&#45;&gt;Node13</title>
<g id="a_edge19_Node000015_Node000013"><a xlink:title=" ">
<path fill="none" stroke="#63b8ff" d="M830.7,-156.82C841.69,-143.4 857.82,-124.84 873.88,-110.5 889.27,-96.75 908.94,-83.39 922.17,-74.93"/>
<polygon fill="#63b8ff" stroke="#63b8ff" points="828.18,-154.38 824.64,-164.36 833.63,-158.76 828.18,-154.38"/>
</a>
</g>
</g>
<!-- Node15&#45;&gt;Node16 -->
<g id="edge20_Node000015_Node000016" class="edge">
<title>Node15&#45;&gt;Node16</title>
<g id="a_edge20_Node000015_Node000016"><a xlink:title=" ">
<path fill="none" stroke="#63b8ff" d="M847.53,-160.77C869.15,-151.18 897.51,-138.59 916.42,-130.2"/>
<polygon fill="#63b8ff" stroke="#63b8ff" points="846.34,-157.47 838.61,-164.73 849.17,-163.87 846.34,-157.47"/>
</a>
</g>
</g>
<!-- Node16&#45;&gt;Node11 -->
<g id="edge21_Node000016_Node000011" class="edge">
<title>Node16&#45;&gt;Node11</title>
<g id="a_edge21_Node000016_Node000011"><a xlink:title=" ">
<path fill="none" stroke="#63b8ff" d="M913.61,-104.19C892.39,-90.79 859.99,-70.89 830.88,-55.25 806.05,-41.92 776.57,-28.26 757.33,-19.63"/>
<polygon fill="#63b8ff" stroke="#63b8ff" points="911.48,-106.98 921.79,-109.39 915.23,-101.07 911.48,-106.98"/>
</a>
</g>
</g>
<!-- Node16&#45;&gt;Node13 -->
<g id="edge22_Node000016_Node000013" class="edge">
<title>Node16&#45;&gt;Node13</title>
<g id="a_edge22_Node000016_Node000013"><a xlink:title=" ">
<path fill="none" stroke="#63b8ff" d="M936.88,-98.88C936.88,-90.59 936.88,-81.42 936.88,-74.86"/>
<polygon fill="#63b8ff" stroke="#63b8ff" points="933.38,-98.82 936.88,-108.82 940.38,-98.82 933.38,-98.82"/>
</a>
</g>
</g>
<!-- Node17&#45;&gt;Node10 -->
<g id="edge25_Node000017_Node000010" class="edge">
<title>Node17&#45;&gt;Node10</title>
<g id="a_edge25_Node000017_Node000010"><a xlink:title=" ">
<path fill="none" stroke="#63b8ff" d="M687.82,-103.19C700.05,-93.89 715.01,-82.51 725.18,-74.77"/>
<polygon fill="#63b8ff" stroke="#63b8ff" points="685.79,-100.34 679.95,-109.18 690.03,-105.91 685.79,-100.34"/>
</a>
</g>
</g>
<!-- Node17&#45;&gt;Node11 -->
<g id="edge26_Node000017_Node000011" class="edge">
<title>Node17&#45;&gt;Node11</title>
<g id="a_edge26_Node000017_Node000011"><a xlink:title=" ">
<path fill="none" stroke="#63b8ff" d="M666.2,-98.91C666.64,-85.63 668.96,-68.36 676.88,-55.25 686.47,-39.36 704.07,-27.3 717.73,-19.74"/>
<polygon fill="#63b8ff" stroke="#63b8ff" points="662.7,-98.65 666.23,-108.64 669.7,-98.63 662.7,-98.65"/>
</a>
</g>
</g>
<!-- Node18&#45;&gt;Node17 -->
<g id="edge28_Node000018_Node000017" class="edge">
<title>Node18&#45;&gt;Node17</title>
<g id="a_edge28_Node000018_Node000017"><a xlink:title=" ">
<path fill="none" stroke="#63b8ff" d="M638.8,-156.72C645.83,-147.81 654.06,-137.37 659.79,-130.11"/>
<polygon fill="#63b8ff" stroke="#63b8ff" points="636.19,-154.37 632.75,-164.39 641.69,-158.71 636.19,-154.37"/>
</a>
</g>
</g>
<!-- Node19&#45;&gt;Node5 -->
<g id="edge30_Node000019_Node000005" class="edge">
<title>Node19&#45;&gt;Node5</title>
<g id="a_edge30_Node000019_Node000005"><a xlink:title=" ">
<path fill="none" stroke="#63b8ff" d="M477.4,-156.15C484.62,-143.33 491.28,-125.81 485.88,-110.5 480.84,-96.23 469.09,-83.18 460.38,-74.92"/>
<polygon fill="#63b8ff" stroke="#63b8ff" points="474.59,-154.04 472.26,-164.37 480.53,-157.74 474.59,-154.04"/>
</a>
</g>
</g>
</g>
</svg>
