<?xml version="1.0" encoding="UTF-8" standalone="no"?>
<!DOCTYPE svg PUBLIC "-//W3C//DTD SVG 1.1//EN"
 "http://www.w3.org/Graphics/SVG/1.1/DTD/svg11.dtd">
<!-- Generated by graphviz version 7.0.5 (20221223.1930)
 -->
<!-- Title: include/vmem_rw.h Pages: 1 -->
<svg width="160pt" height="247pt"
 viewBox="0.00 0.00 160.00 247.00" xmlns="http://www.w3.org/2000/svg" xmlns:xlink="http://www.w3.org/1999/xlink">
<g id="graph0" class="graph" transform="scale(1 1) rotate(0) translate(4 243)">
<title>include/vmem_rw.h</title>
<!-- Node1 -->
<g id="node1" class="node">
<title>Node1</title>
<g id="a_node1"><a xlink:title="Stream like access functions for VRAM.">
<polygon fill="#999999" stroke="#666666" points="138.5,-239 37.5,-239 37.5,-220 138.5,-220 138.5,-239"/>
<text text-anchor="middle" x="88" y="-227" font-family="Helvetica,sans-Serif" font-size="10.00">include/vmem_rw.h</text>
</a>
</g>
</g>
<!-- Node2 -->
<g id="node2" class="node">
<title>Node2</title>
<g id="a_node2"><a xlink:href="vmem_8h.html" target="_top" xlink:title="Data types and functions for VRAM access.">
<polygon fill="white" stroke="#666666" points="77.5,-184 26.5,-184 26.5,-165 77.5,-165 77.5,-184"/>
<text text-anchor="middle" x="52" y="-172" font-family="Helvetica,sans-Serif" font-size="10.00">vmem.h</text>
</a>
</g>
</g>
<!-- Node1&#45;&gt;Node2 -->
<g id="edge1" class="edge">
<title>Node1&#45;&gt;Node2</title>
<path fill="none" stroke="#63b8ff" d="M82.06,-219.75C77.29,-212.73 70.44,-202.64 64.48,-193.87"/>
<polygon fill="#63b8ff" stroke="#63b8ff" points="67.44,-192 58.92,-185.69 61.65,-195.93 67.44,-192"/>
</g>
<!-- Node7 -->
<g id="node7" class="node">
<title>Node7</title>
<g id="a_node7"><a xlink:title=" ">
<polygon fill="#e0e0e0" stroke="#999999" points="152,-184 96,-184 96,-165 152,-165 152,-184"/>
<text text-anchor="middle" x="124" y="-172" font-family="Helvetica,sans-Serif" font-size="10.00">stdbool.h</text>
</a>
</g>
</g>
<!-- Node1&#45;&gt;Node7 -->
<g id="edge7" class="edge">
<title>Node1&#45;&gt;Node7</title>
<path fill="none" stroke="#63b8ff" d="M93.94,-219.75C98.71,-212.73 105.56,-202.64 111.52,-193.87"/>
<polygon fill="#63b8ff" stroke="#63b8ff" points="114.35,-195.93 117.08,-185.69 108.56,-192 114.35,-195.93"/>
</g>
<!-- Node3 -->
<g id="node3" class="node">
<title>Node3</title>
<g id="a_node3"><a xlink:title=" ">
<polygon fill="#e0e0e0" stroke="#999999" points="48,-19 0,-19 0,0 48,0 48,-19"/>
<text text-anchor="middle" x="24" y="-7" font-family="Helvetica,sans-Serif" font-size="10.00">stdint.h</text>
</a>
</g>
</g>
<!-- Node2&#45;&gt;Node3 -->
<g id="edge2" class="edge">
<title>Node2&#45;&gt;Node3</title>
<path fill="none" stroke="#63b8ff" d="M42.12,-164.75C33.61,-156.5 21.95,-143.3 17,-129 5.52,-95.83 12.41,-54.35 18.31,-30.29"/>
<polygon fill="#63b8ff" stroke="#63b8ff" points="21.62,-31.47 20.82,-20.9 14.86,-29.66 21.62,-31.47"/>
</g>
<!-- Node4 -->
<g id="node4" class="node">
<title>Node4</title>
<g id="a_node4"><a xlink:title=" ">
<polygon fill="#e0e0e0" stroke="#999999" points="77.5,-129 26.5,-129 26.5,-110 77.5,-110 77.5,-129"/>
<text text-anchor="middle" x="52" y="-117" font-family="Helvetica,sans-Serif" font-size="10.00">stddef.h</text>
</a>
</g>
</g>
<!-- Node2&#45;&gt;Node4 -->
<g id="edge3" class="edge">
<title>Node2&#45;&gt;Node4</title>
<path fill="none" stroke="#63b8ff" d="M52,-164.75C52,-158.27 52,-149.16 52,-140.9"/>
<polygon fill="#63b8ff" stroke="#63b8ff" points="55.5,-140.96 52,-130.96 48.5,-140.96 55.5,-140.96"/>
</g>
<!-- Node5 -->
<g id="node5" class="node">
<title>Node5</title>
<g id="a_node5"><a xlink:href="io_8h.html" target="_top" xlink:title="Definition of I/O ports.">
<polygon fill="white" stroke="#666666" points="128,-129 96,-129 96,-110 128,-110 128,-129"/>
<text text-anchor="middle" x="112" y="-117" font-family="Helvetica,sans-Serif" font-size="10.00">io.h</text>
</a>
</g>
</g>
<!-- Node2&#45;&gt;Node5 -->
<g id="edge4" class="edge">
<title>Node2&#45;&gt;Node5</title>
<path fill="none" stroke="#63b8ff" d="M62.18,-164.51C70.76,-156.93 83.27,-145.88 93.6,-136.75"/>
<polygon fill="#63b8ff" stroke="#63b8ff" points="95.66,-139.6 100.84,-130.36 91.03,-134.36 95.66,-139.6"/>
</g>
<!-- Node6 -->
<g id="node6" class="node">
<title>Node6</title>
<g id="a_node6"><a xlink:href="config_8h.html" target="_top" xlink:title="Hack for C Compiler portability.">
<polygon fill="white" stroke="#666666" points="106,-74 56,-74 56,-55 106,-55 106,-74"/>
<text text-anchor="middle" x="81" y="-62" font-family="Helvetica,sans-Serif" font-size="10.00">config.h</text>
</a>
</g>
</g>
<!-- Node5&#45;&gt;Node6 -->
<g id="edge5" class="edge">
<title>Node5&#45;&gt;Node6</title>
<path fill="none" stroke="#63b8ff" d="M106.88,-109.75C102.82,-102.81 97.01,-92.86 91.91,-84.16"/>
<polygon fill="#63b8ff" stroke="#63b8ff" points="95.06,-82.61 86.99,-75.75 89.02,-86.15 95.06,-82.61"/>
</g>
<!-- Node6&#45;&gt;Node3 -->
<g id="edge6" class="edge">
<title>Node6&#45;&gt;Node3</title>
<path fill="none" stroke="#63b8ff" d="M71.33,-54.51C63.26,-47 51.53,-36.1 41.78,-27.03"/>
<polygon fill="#63b8ff" stroke="#63b8ff" points="44.34,-24.63 34.63,-20.39 39.57,-29.76 44.34,-24.63"/>
</g>
</g>
</svg>
