<?xml version="1.0" encoding="UTF-8" standalone="no"?>
<!DOCTYPE svg PUBLIC "-//W3C//DTD SVG 1.1//EN"
 "http://www.w3.org/Graphics/SVG/1.1/DTD/svg11.dtd">
<!-- Generated by graphviz version 7.0.5 (20221223.1930)
 -->
<!-- Title: include/vmem.h Pages: 1 -->
<svg width="882pt" height="247pt"
 viewBox="0.00 0.00 882.00 247.00" xmlns="http://www.w3.org/2000/svg" xmlns:xlink="http://www.w3.org/1999/xlink">
<g id="graph0" class="graph" transform="scale(1 1) rotate(0) translate(4 243)">
<title>include/vmem.h</title>
<!-- Node1 -->
<g id="node1" class="node">
<title>Node1</title>
<g id="a_node1"><a xlink:title="Data types and functions for VRAM access.">
<polygon fill="#999999" stroke="#666666" points="626.5,-239 541.5,-239 541.5,-220 626.5,-220 626.5,-239"/>
<text text-anchor="middle" x="584" y="-227" font-family="Helvetica,sans-Serif" font-size="10.00">include/vmem.h</text>
</a>
</g>
</g>
<!-- Node2 -->
<g id="node2" class="node">
<title>Node2</title>
<g id="a_node2"><a xlink:href="ZX0__decompress_8h.html" target="_top" xlink:title="Decompressor of the ZX0 data compression format version 2.">
<polygon fill="white" stroke="#666666" points="134,-129 0,-129 0,-110 134,-110 134,-129"/>
<text text-anchor="middle" x="67" y="-117" font-family="Helvetica,sans-Serif" font-size="10.00">include/ZX0_decompress.h</text>
</a>
</g>
</g>
<!-- Node1&#45;&gt;Node2 -->
<g id="edge1" class="edge">
<title>Node1&#45;&gt;Node2</title>
<path fill="none" stroke="#63b8ff" d="M530.03,-223.99C465.63,-217.94 355,-205.39 262,-184 198.5,-169.4 126.14,-143.22 90.04,-129.48"/>
<polygon fill="#63b8ff" stroke="#63b8ff" points="529.32,-227.44 539.6,-224.87 529.97,-220.47 529.32,-227.44"/>
</g>
<!-- Node3 -->
<g id="node3" class="node">
<title>Node3</title>
<g id="a_node3"><a xlink:href="bmem_8h.html" target="_top" xlink:title="Data types and functions for accessing banked memory.">
<polygon fill="white" stroke="#666666" points="356.5,-184 271.5,-184 271.5,-165 356.5,-165 356.5,-184"/>
<text text-anchor="middle" x="314" y="-172" font-family="Helvetica,sans-Serif" font-size="10.00">include/bmem.h</text>
</a>
</g>
</g>
<!-- Node1&#45;&gt;Node3 -->
<g id="edge2" class="edge">
<title>Node1&#45;&gt;Node3</title>
<path fill="none" stroke="#63b8ff" d="M530.09,-217.92C479.07,-207.9 403.5,-193.07 356.58,-183.86"/>
<polygon fill="#63b8ff" stroke="#63b8ff" points="529.25,-221.32 539.73,-219.81 530.59,-214.45 529.25,-221.32"/>
</g>
<!-- Node8 -->
<g id="node8" class="node">
<title>Node8</title>
<g id="a_node8"><a xlink:href="metasprite_8h.html" target="_top" xlink:title="Meta&#45;sprite ; an aggregate of sprites.">
<polygon fill="white" stroke="#666666" points="842,-74 738,-74 738,-55 842,-55 842,-74"/>
<text text-anchor="middle" x="790" y="-62" font-family="Helvetica,sans-Serif" font-size="10.00">include/metasprite.h</text>
</a>
</g>
</g>
<!-- Node1&#45;&gt;Node8 -->
<g id="edge8" class="edge">
<title>Node1&#45;&gt;Node8</title>
<path fill="none" stroke="#63b8ff" d="M604.3,-212.44C647.08,-178.59 745.3,-100.87 778.67,-74.47"/>
<polygon fill="#63b8ff" stroke="#63b8ff" points="602.23,-209.62 596.56,-218.57 606.57,-215.1 602.23,-209.62"/>
</g>
<!-- Node9 -->
<g id="node9" class="node">
<title>Node9</title>
<g id="a_node9"><a xlink:href="msx_8h.html" target="_top" xlink:title="Using #include &lt;msx.h&gt; includes almost all C header files in libmsx, for ease to use.">
<polygon fill="white" stroke="#666666" points="748,-19 672,-19 672,0 748,0 748,-19"/>
<text text-anchor="middle" x="710" y="-7" font-family="Helvetica,sans-Serif" font-size="10.00">include/msx.h</text>
</a>
</g>
</g>
<!-- Node1&#45;&gt;Node9 -->
<g id="edge10" class="edge">
<title>Node1&#45;&gt;Node9</title>
<path fill="none" stroke="#63b8ff" d="M574.39,-209.82C558.21,-175.5 530.53,-101.63 565,-55 589.34,-22.07 637.61,-12.73 671.76,-10.47"/>
<polygon fill="#63b8ff" stroke="#63b8ff" points="571.1,-211.07 578.66,-218.49 577.38,-207.98 571.1,-211.07"/>
</g>
<!-- Node10 -->
<g id="node10" class="node">
<title>Node10</title>
<g id="a_node10"><a xlink:href="sprite_8h.html" target="_top" xlink:title="Sprites.">
<polygon fill="white" stroke="#666666" points="694,-129 612,-129 612,-110 694,-110 694,-129"/>
<text text-anchor="middle" x="653" y="-117" font-family="Helvetica,sans-Serif" font-size="10.00">include/sprite.h</text>
</a>
</g>
</g>
<!-- Node1&#45;&gt;Node10 -->
<g id="edge11" class="edge">
<title>Node1&#45;&gt;Node10</title>
<path fill="none" stroke="#63b8ff" d="M595.71,-210.18C610.67,-186.76 635.99,-147.12 647.28,-129.46"/>
<polygon fill="#63b8ff" stroke="#63b8ff" points="592.9,-208.08 590.46,-218.39 598.79,-211.84 592.9,-208.08"/>
</g>
<!-- Node11 -->
<g id="node11" class="node">
<title>Node11</title>
<g id="a_node11"><a xlink:href="sprite__color_8h.html" target="_top" xlink:title="Sprite color table interface.">
<polygon fill="white" stroke="#666666" points="682,-74 574,-74 574,-55 682,-55 682,-74"/>
<text text-anchor="middle" x="628" y="-62" font-family="Helvetica,sans-Serif" font-size="10.00">include/sprite_color.h</text>
</a>
</g>
</g>
<!-- Node1&#45;&gt;Node11 -->
<g id="edge16" class="edge">
<title>Node1&#45;&gt;Node11</title>
<path fill="none" stroke="#63b8ff" d="M585.08,-208.16C586.86,-184.12 591.43,-143.2 603,-110 607.61,-96.78 616.05,-82.93 621.84,-74.26"/>
<polygon fill="#63b8ff" stroke="#63b8ff" points="581.59,-207.91 584.46,-218.11 588.58,-208.35 581.59,-207.91"/>
</g>
<!-- Node12 -->
<g id="node12" class="node">
<title>Node12</title>
<g id="a_node12"><a xlink:href="vdp_8h.html" target="_top" xlink:title="Data types and functions for VDP (Video Display Proccessor) access.">
<polygon fill="white" stroke="#666666" points="874,-129 800,-129 800,-110 874,-110 874,-129"/>
<text text-anchor="middle" x="837" y="-117" font-family="Helvetica,sans-Serif" font-size="10.00">include/vdp.h</text>
</a>
</g>
</g>
<!-- Node1&#45;&gt;Node12 -->
<g id="edge17" class="edge">
<title>Node1&#45;&gt;Node12</title>
<path fill="none" stroke="#63b8ff" d="M638.23,-228.01C712.01,-226.06 838.16,-217.73 867,-184 881.42,-167.13 860.17,-142.15 846.69,-129.12"/>
<polygon fill="#63b8ff" stroke="#63b8ff" points="638.29,-224.51 628.38,-228.24 638.45,-231.5 638.29,-224.51"/>
</g>
<!-- Node13 -->
<g id="node13" class="node">
<title>Node13</title>
<g id="a_node13"><a xlink:href="vdp__unsafe_8h.html" target="_top" xlink:title="Unsafe primitive functions for VDP (Video Display Proccessor) access.">
<polygon fill="white" stroke="#666666" points="858,-184 750,-184 750,-165 858,-165 858,-184"/>
<text text-anchor="middle" x="804" y="-172" font-family="Helvetica,sans-Serif" font-size="10.00">include/vdp_unsafe.h</text>
</a>
</g>
</g>
<!-- Node1&#45;&gt;Node13 -->
<g id="edge20" class="edge">
<title>Node1&#45;&gt;Node13</title>
<path fill="none" stroke="#63b8ff" d="M632.28,-216.87C672.8,-207.11 729.84,-193.37 766.86,-184.45"/>
<polygon fill="#63b8ff" stroke="#63b8ff" points="631.69,-213.41 622.79,-219.15 633.33,-220.22 631.69,-213.41"/>
</g>
<!-- Node14 -->
<g id="node14" class="node">
<title>Node14</title>
<g id="a_node14"><a xlink:href="vmem__rw_8h.html" target="_top" xlink:title="Stream like access functions for VRAM.">
<polygon fill="white" stroke="#666666" points="517.5,-184 416.5,-184 416.5,-165 517.5,-165 517.5,-184"/>
<text text-anchor="middle" x="467" y="-172" font-family="Helvetica,sans-Serif" font-size="10.00">include/vmem_rw.h</text>
</a>
</g>
</g>
<!-- Node1&#45;&gt;Node14 -->
<g id="edge22" class="edge">
<title>Node1&#45;&gt;Node14</title>
<path fill="none" stroke="#63b8ff" d="M553.75,-214.8C532.57,-205.2 504.89,-192.66 486.55,-184.36"/>
<polygon fill="#63b8ff" stroke="#63b8ff" points="552.22,-217.95 562.77,-218.88 555.11,-211.57 552.22,-217.95"/>
</g>
<!-- Node3&#45;&gt;Node2 -->
<g id="edge3" class="edge">
<title>Node3&#45;&gt;Node2</title>
<path fill="none" stroke="#63b8ff" d="M260.96,-162.12C215.4,-152.34 150.62,-138.44 108.69,-129.45"/>
<polygon fill="#63b8ff" stroke="#63b8ff" points="260.11,-165.52 270.62,-164.19 261.58,-158.67 260.11,-165.52"/>
</g>
<!-- Node4 -->
<g id="node4" class="node">
<title>Node4</title>
<g id="a_node4"><a xlink:href="bmem__rd_8h.html" target="_top" xlink:title="Stream like access functions for Banked Memory.">
<polygon fill="white" stroke="#666666" points="250,-129 152,-129 152,-110 250,-110 250,-129"/>
<text text-anchor="middle" x="201" y="-117" font-family="Helvetica,sans-Serif" font-size="10.00">include/bmem_rd.h</text>
</a>
</g>
</g>
<!-- Node3&#45;&gt;Node4 -->
<g id="edge4" class="edge">
<title>Node3&#45;&gt;Node4</title>
<path fill="none" stroke="#63b8ff" d="M284.51,-159.67C264.08,-150.09 237.51,-137.62 219.89,-129.36"/>
<polygon fill="#63b8ff" stroke="#63b8ff" points="282.92,-162.79 293.46,-163.87 285.89,-156.45 282.92,-162.79"/>
</g>
<!-- Node6 -->
<g id="node6" class="node">
<title>Node6</title>
<g id="a_node6"><a xlink:href="memfile_8h.html" target="_top" xlink:title="Stream interface for ROM / RAM / MegaROM.">
<polygon fill="white" stroke="#666666" points="360,-129 268,-129 268,-110 360,-110 360,-129"/>
<text text-anchor="middle" x="314" y="-117" font-family="Helvetica,sans-Serif" font-size="10.00">include/memfile.h</text>
</a>
</g>
</g>
<!-- Node3&#45;&gt;Node6 -->
<g id="edge6" class="edge">
<title>Node3&#45;&gt;Node6</title>
<path fill="none" stroke="#63b8ff" d="M314,-153.35C314,-145.1 314,-135.97 314,-129.44"/>
<polygon fill="#63b8ff" stroke="#63b8ff" points="310.5,-153.23 314,-163.23 317.5,-153.23 310.5,-153.23"/>
</g>
<!-- Node7 -->
<g id="node7" class="node">
<title>Node7</title>
<g id="a_node7"><a xlink:href="resources_8h.html" target="_top" xlink:title="Data types and functions for accessing embedded resources.">
<polygon fill="white" stroke="#666666" points="479.5,-129 378.5,-129 378.5,-110 479.5,-110 479.5,-129"/>
<text text-anchor="middle" x="429" y="-117" font-family="Helvetica,sans-Serif" font-size="10.00">include/resources.h</text>
</a>
</g>
</g>
<!-- Node3&#45;&gt;Node7 -->
<g id="edge7" class="edge">
<title>Node3&#45;&gt;Node7</title>
<path fill="none" stroke="#63b8ff" d="M343.73,-159.8C364.55,-150.2 391.76,-137.66 409.78,-129.36"/>
<polygon fill="#63b8ff" stroke="#63b8ff" points="342.5,-156.51 334.88,-163.88 345.43,-162.87 342.5,-156.51"/>
</g>
<!-- Node5 -->
<g id="node5" class="node">
<title>Node5</title>
<g id="a_node5"><a xlink:href="xmem_8h.html" target="_top" xlink:title="Inter&#45;memory transfer functions for ROM / RAM, VRAM, and Banked Memory (MegaROM).">
<polygon fill="white" stroke="#666666" points="381,-74 297,-74 297,-55 381,-55 381,-74"/>
<text text-anchor="middle" x="339" y="-62" font-family="Helvetica,sans-Serif" font-size="10.00">include/xmem.h</text>
</a>
</g>
</g>
<!-- Node4&#45;&gt;Node5 -->
<g id="edge5" class="edge">
<title>Node4&#45;&gt;Node5</title>
<path fill="none" stroke="#63b8ff" d="M234.97,-105.45C260.16,-95.78 293.82,-82.85 315.94,-74.36"/>
<polygon fill="#63b8ff" stroke="#63b8ff" points="233.9,-102.11 225.82,-108.97 236.41,-108.65 233.9,-102.11"/>
</g>
<!-- Node8&#45;&gt;Node9 -->
<g id="edge9" class="edge">
<title>Node8&#45;&gt;Node9</title>
<path fill="none" stroke="#63b8ff" d="M766.89,-48.19C752.77,-38.84 735.22,-27.21 723.37,-19.36"/>
<polygon fill="#63b8ff" stroke="#63b8ff" points="764.9,-51.07 775.17,-53.67 768.76,-45.23 764.9,-51.07"/>
</g>
<!-- Node10&#45;&gt;Node8 -->
<g id="edge12" class="edge">
<title>Node10&#45;&gt;Node8</title>
<path fill="none" stroke="#63b8ff" d="M686.72,-105.45C711.73,-95.78 745.14,-82.85 767.1,-74.36"/>
<polygon fill="#63b8ff" stroke="#63b8ff" points="685.72,-102.09 677.65,-108.96 688.24,-108.62 685.72,-102.09"/>
</g>
<!-- Node10&#45;&gt;Node9 -->
<g id="edge13" class="edge">
<title>Node10&#45;&gt;Node9</title>
<path fill="none" stroke="#63b8ff" d="M670.35,-101.61C677.59,-93.78 685.55,-84 691,-74 700.91,-55.81 706.28,-31.81 708.59,-19.16"/>
<polygon fill="#63b8ff" stroke="#63b8ff" points="667.91,-99.11 663.45,-108.72 672.93,-103.98 667.91,-99.11"/>
</g>
<!-- Node10&#45;&gt;Node11 -->
<g id="edge14" class="edge">
<title>Node10&#45;&gt;Node11</title>
<path fill="none" stroke="#63b8ff" d="M644.04,-99.5C640.01,-90.96 635.44,-81.28 632.22,-74.44"/>
<polygon fill="#63b8ff" stroke="#63b8ff" points="640.79,-100.83 648.23,-108.38 647.13,-97.84 640.79,-100.83"/>
</g>
<!-- Node11&#45;&gt;Node9 -->
<g id="edge15" class="edge">
<title>Node11&#45;&gt;Node9</title>
<path fill="none" stroke="#63b8ff" d="M651.27,-48.46C665.81,-39.06 684.04,-27.28 696.3,-19.36"/>
<polygon fill="#63b8ff" stroke="#63b8ff" points="649.68,-45.32 643.18,-53.69 653.48,-51.2 649.68,-45.32"/>
</g>
<!-- Node12&#45;&gt;Node8 -->
<g id="edge18" class="edge">
<title>Node12&#45;&gt;Node8</title>
<path fill="none" stroke="#63b8ff" d="M821.67,-101.22C813.75,-92.28 804.4,-81.74 797.93,-74.44"/>
<polygon fill="#63b8ff" stroke="#63b8ff" points="818.98,-103.46 828.23,-108.62 824.22,-98.81 818.98,-103.46"/>
</g>
<!-- Node12&#45;&gt;Node9 -->
<g id="edge19" class="edge">
<title>Node12&#45;&gt;Node9</title>
<path fill="none" stroke="#63b8ff" d="M848.27,-100.09C855.01,-86.46 860.58,-68.08 851,-55 827.63,-23.12 781.35,-13.49 748.18,-10.88"/>
<polygon fill="#63b8ff" stroke="#63b8ff" points="845.4,-98.04 843.61,-108.48 851.52,-101.43 845.4,-98.04"/>
</g>
<!-- Node13&#45;&gt;Node12 -->
<g id="edge21" class="edge">
<title>Node13&#45;&gt;Node12</title>
<path fill="none" stroke="#63b8ff" d="M815.47,-155.08C820.88,-146.4 827.08,-136.44 831.43,-129.44"/>
<polygon fill="#63b8ff" stroke="#63b8ff" points="812.56,-153.12 810.25,-163.46 818.51,-156.82 812.56,-153.12"/>
</g>
<!-- Node14&#45;&gt;Node5 -->
<g id="edge23" class="edge">
<title>Node14&#45;&gt;Node5</title>
<path fill="none" stroke="#63b8ff" d="M481.09,-155.66C489.98,-142.09 498.06,-123.5 488,-110 463.65,-77.31 416.18,-67.7 381.34,-65.32"/>
<polygon fill="#63b8ff" stroke="#63b8ff" points="478.32,-153.52 475.3,-163.67 483.99,-157.62 478.32,-153.52"/>
</g>
</g>
</svg>
