<?xml version="1.0" encoding="UTF-8" standalone="no"?>
<!DOCTYPE svg PUBLIC "-//W3C//DTD SVG 1.1//EN"
 "http://www.w3.org/Graphics/SVG/1.1/DTD/svg11.dtd">
<!-- Generated by graphviz version 2.43.0 (0)
 -->
<!-- Title: src/vmem_set_metasprite_s.c Pages: 1 -->
<svg width="485pt" height="252pt"
 viewBox="0.00 0.00 484.64 252.00" xmlns="http://www.w3.org/2000/svg" xmlns:xlink="http://www.w3.org/1999/xlink">
<g id="graph0" class="graph" transform="scale(1 1) rotate(0) translate(4 248)">
<title>src/vmem_set_metasprite_s.c</title>
<!-- Node1 -->
<g id="node1" class="node">
<title>Node1</title>
<g id="a_node1"><a xlink:title=" ">
<polygon fill="#bfbfbf" stroke="black" points="298.64,-224.5 298.64,-243.5 461.64,-243.5 461.64,-224.5 298.64,-224.5"/>
<text text-anchor="middle" x="380.14" y="-231.5" font-family="Helvetica,sans-Serif" font-size="10.00">src/vmem_set_metasprite_s.c</text>
</a>
</g>
</g>
<!-- Node2 -->
<g id="node2" class="node">
<title>Node2</title>
<g id="a_node2"><a xlink:href="sprite_8h.html" target="_top" xlink:title=" ">
<polygon fill="none" stroke="black" points="375.64,-112.5 375.64,-131.5 476.64,-131.5 476.64,-112.5 375.64,-112.5"/>
<text text-anchor="middle" x="426.14" y="-119.5" font-family="Helvetica,sans-Serif" font-size="10.00">../include/sprite.h</text>
</a>
</g>
</g>
<!-- Node1&#45;&gt;Node2 -->
<g id="edge1" class="edge">
<title>Node1&#45;&gt;Node2</title>
<path fill="none" stroke="midnightblue" d="M386.22,-224.4C392.21,-215.59 401.3,-201.36 407.14,-188 413.77,-172.85 418.84,-154.73 422.08,-141.48"/>
<polygon fill="midnightblue" stroke="midnightblue" points="425.5,-142.19 424.35,-131.66 418.69,-140.61 425.5,-142.19"/>
</g>
<!-- Node6 -->
<g id="node6" class="node">
<title>Node6</title>
<g id="a_node6"><a xlink:href="metasprite_8h.html" target="_top" xlink:title=" ">
<polygon fill="none" stroke="black" points="272.14,-168.5 272.14,-187.5 398.14,-187.5 398.14,-168.5 272.14,-168.5"/>
<text text-anchor="middle" x="335.14" y="-175.5" font-family="Helvetica,sans-Serif" font-size="10.00">../include/metasprite.h</text>
</a>
</g>
</g>
<!-- Node1&#45;&gt;Node6 -->
<g id="edge6" class="edge">
<title>Node1&#45;&gt;Node6</title>
<path fill="none" stroke="midnightblue" d="M372.71,-224.08C366.29,-216.38 356.83,-205.03 349.02,-195.65"/>
<polygon fill="midnightblue" stroke="midnightblue" points="351.52,-193.19 342.43,-187.75 346.14,-197.67 351.52,-193.19"/>
</g>
<!-- Node3 -->
<g id="node3" class="node">
<title>Node3</title>
<g id="a_node3"><a xlink:title=" ">
<polygon fill="none" stroke="#bfbfbf" points="201.64,-0.5 201.64,-19.5 254.64,-19.5 254.64,-0.5 201.64,-0.5"/>
<text text-anchor="middle" x="228.14" y="-7.5" font-family="Helvetica,sans-Serif" font-size="10.00">stdint.h</text>
</a>
</g>
</g>
<!-- Node2&#45;&gt;Node3 -->
<g id="edge2" class="edge">
<title>Node2&#45;&gt;Node3</title>
<path fill="none" stroke="midnightblue" d="M437.63,-112.44C453.7,-99.45 479.3,-74.33 464.14,-56 460.95,-52.15 330.15,-28.82 264.68,-17.35"/>
<polygon fill="midnightblue" stroke="midnightblue" points="265.22,-13.9 254.76,-15.62 264.01,-20.79 265.22,-13.9"/>
</g>
<!-- Node4 -->
<g id="node4" class="node">
<title>Node4</title>
<g id="a_node4"><a xlink:href="vmem_8h.html" target="_top" xlink:title=" ">
<polygon fill="none" stroke="black" points="397.64,-56.5 397.64,-75.5 454.64,-75.5 454.64,-56.5 397.64,-56.5"/>
<text text-anchor="middle" x="426.14" y="-63.5" font-family="Helvetica,sans-Serif" font-size="10.00">vmem.h</text>
</a>
</g>
</g>
<!-- Node2&#45;&gt;Node4 -->
<g id="edge3" class="edge">
<title>Node2&#45;&gt;Node4</title>
<path fill="none" stroke="midnightblue" d="M426.14,-112.08C426.14,-105.01 426.14,-94.86 426.14,-85.99"/>
<polygon fill="midnightblue" stroke="midnightblue" points="429.64,-85.75 426.14,-75.75 422.64,-85.75 429.64,-85.75"/>
</g>
<!-- Node4&#45;&gt;Node3 -->
<g id="edge4" class="edge">
<title>Node4&#45;&gt;Node3</title>
<path fill="none" stroke="midnightblue" d="M397.35,-57.15C362.2,-47.56 302.72,-31.34 264.46,-20.91"/>
<polygon fill="midnightblue" stroke="midnightblue" points="265.31,-17.51 254.74,-18.26 263.47,-24.26 265.31,-17.51"/>
</g>
<!-- Node5 -->
<g id="node5" class="node">
<title>Node5</title>
<g id="a_node5"><a xlink:href="io_8h.html" target="_top" xlink:title=" ">
<polygon fill="none" stroke="black" points="292.64,-0.5 292.64,-19.5 327.64,-19.5 327.64,-0.5 292.64,-0.5"/>
<text text-anchor="middle" x="310.14" y="-7.5" font-family="Helvetica,sans-Serif" font-size="10.00">io.h</text>
</a>
</g>
</g>
<!-- Node4&#45;&gt;Node5 -->
<g id="edge5" class="edge">
<title>Node4&#45;&gt;Node5</title>
<path fill="none" stroke="midnightblue" d="M407.76,-56.44C388.7,-47.57 358.71,-33.61 337,-23.5"/>
<polygon fill="midnightblue" stroke="midnightblue" points="338.22,-20.21 327.67,-19.16 335.26,-26.56 338.22,-20.21"/>
</g>
<!-- Node6&#45;&gt;Node2 -->
<g id="edge19" class="edge">
<title>Node6&#45;&gt;Node2</title>
<path fill="none" stroke="midnightblue" d="M349.76,-168.32C364.09,-159.82 386.15,-146.73 402.89,-136.8"/>
<polygon fill="midnightblue" stroke="midnightblue" points="404.74,-139.77 411.55,-131.65 401.17,-133.75 404.74,-139.77"/>
</g>
<!-- Node6&#45;&gt;Node3 -->
<g id="edge7" class="edge">
<title>Node6&#45;&gt;Node3</title>
<path fill="none" stroke="midnightblue" d="M281.54,-168.49C196.62,-153.79 37.34,-120.85 4.14,-76 -1.15,-68.86 -1.49,-62.88 4.14,-56 27.39,-27.62 134,-16.76 191.36,-12.92"/>
<polygon fill="midnightblue" stroke="midnightblue" points="191.7,-16.4 201.46,-12.28 191.26,-9.41 191.7,-16.4"/>
</g>
<!-- Node6&#45;&gt;Node4 -->
<g id="edge18" class="edge">
<title>Node6&#45;&gt;Node4</title>
<path fill="none" stroke="midnightblue" d="M337.97,-168.28C342.56,-155.07 352.6,-129.68 367.14,-112 377.12,-99.87 390.97,-89.09 402.75,-81.12"/>
<polygon fill="midnightblue" stroke="midnightblue" points="404.77,-83.98 411.25,-75.6 400.96,-78.11 404.77,-83.98"/>
</g>
<!-- Node7 -->
<g id="node7" class="node">
<title>Node7</title>
<g id="a_node7"><a xlink:href="vdp_8h.html" target="_top" xlink:title=" ">
<polygon fill="none" stroke="black" points="245.14,-112.5 245.14,-131.5 289.14,-131.5 289.14,-112.5 245.14,-112.5"/>
<text text-anchor="middle" x="267.14" y="-119.5" font-family="Helvetica,sans-Serif" font-size="10.00">vdp.h</text>
</a>
</g>
</g>
<!-- Node6&#45;&gt;Node7 -->
<g id="edge8" class="edge">
<title>Node6&#45;&gt;Node7</title>
<path fill="none" stroke="midnightblue" d="M324.21,-168.32C313.96,-160.18 298.42,-147.84 286.14,-138.09"/>
<polygon fill="midnightblue" stroke="midnightblue" points="288.27,-135.31 278.26,-131.83 283.92,-140.79 288.27,-135.31"/>
</g>
<!-- Node7&#45;&gt;Node3 -->
<g id="edge11" class="edge">
<title>Node7&#45;&gt;Node3</title>
<path fill="none" stroke="midnightblue" d="M249.94,-112.39C236.89,-104.79 219.9,-92.39 212.14,-76 205,-60.94 210.88,-42.35 217.44,-28.91"/>
<polygon fill="midnightblue" stroke="midnightblue" points="220.7,-30.25 222.38,-19.79 214.54,-26.92 220.7,-30.25"/>
</g>
<!-- Node7&#45;&gt;Node4 -->
<g id="edge13" class="edge">
<title>Node7&#45;&gt;Node4</title>
<path fill="none" stroke="midnightblue" d="M289.25,-113.49C315.73,-104.5 360.42,-89.32 391.5,-78.76"/>
<polygon fill="midnightblue" stroke="midnightblue" points="392.73,-82.04 401.08,-75.51 390.48,-75.41 392.73,-82.04"/>
</g>
<!-- Node7&#45;&gt;Node5 -->
<g id="edge12" class="edge">
<title>Node7&#45;&gt;Node5</title>
<path fill="none" stroke="midnightblue" d="M270.51,-112.37C277.51,-94.46 293.75,-52.92 303.12,-28.95"/>
<polygon fill="midnightblue" stroke="midnightblue" points="306.4,-30.18 306.78,-19.59 299.88,-27.63 306.4,-30.18"/>
</g>
<!-- Node8 -->
<g id="node8" class="node">
<title>Node8</title>
<g id="a_node8"><a xlink:title=" ">
<polygon fill="none" stroke="#bfbfbf" points="323.14,-56.5 323.14,-75.5 379.14,-75.5 379.14,-56.5 323.14,-56.5"/>
<text text-anchor="middle" x="351.14" y="-63.5" font-family="Helvetica,sans-Serif" font-size="10.00">assert.h</text>
</a>
</g>
</g>
<!-- Node7&#45;&gt;Node8 -->
<g id="edge9" class="edge">
<title>Node7&#45;&gt;Node8</title>
<path fill="none" stroke="midnightblue" d="M280.63,-112.32C293.74,-103.9 313.85,-90.97 329.25,-81.07"/>
<polygon fill="midnightblue" stroke="midnightblue" points="331.16,-84.01 337.68,-75.65 327.37,-78.12 331.16,-84.01"/>
</g>
<!-- Node9 -->
<g id="node9" class="node">
<title>Node9</title>
<g id="a_node9"><a xlink:title=" ">
<polygon fill="none" stroke="#bfbfbf" points="13.14,-56.5 13.14,-75.5 75.14,-75.5 75.14,-56.5 13.14,-56.5"/>
<text text-anchor="middle" x="44.14" y="-63.5" font-family="Helvetica,sans-Serif" font-size="10.00">stdbool.h</text>
</a>
</g>
</g>
<!-- Node7&#45;&gt;Node9 -->
<g id="edge10" class="edge">
<title>Node7&#45;&gt;Node9</title>
<path fill="none" stroke="midnightblue" d="M244.94,-115.62C207.79,-106.63 132.45,-88.39 85.36,-76.98"/>
<polygon fill="midnightblue" stroke="midnightblue" points="86.02,-73.54 75.48,-74.59 84.37,-80.34 86.02,-73.54"/>
</g>
<!-- Node10 -->
<g id="node10" class="node">
<title>Node10</title>
<g id="a_node10"><a xlink:href="bios_8h.html" target="_top" xlink:title=" ">
<polygon fill="none" stroke="black" points="221.14,-56.5 221.14,-75.5 267.14,-75.5 267.14,-56.5 221.14,-56.5"/>
<text text-anchor="middle" x="244.14" y="-63.5" font-family="Helvetica,sans-Serif" font-size="10.00">bios.h</text>
</a>
</g>
</g>
<!-- Node7&#45;&gt;Node10 -->
<g id="edge14" class="edge">
<title>Node7&#45;&gt;Node10</title>
<path fill="none" stroke="midnightblue" d="M263.34,-112.08C260.23,-104.77 255.72,-94.18 251.85,-85.1"/>
<polygon fill="midnightblue" stroke="midnightblue" points="255,-83.58 247.87,-75.75 248.56,-86.32 255,-83.58"/>
</g>
<!-- Node11 -->
<g id="node11" class="node">
<title>Node11</title>
<g id="a_node11"><a xlink:href="workarea_8h.html" target="_top" xlink:title=" ">
<polygon fill="none" stroke="black" points="93.64,-56.5 93.64,-75.5 164.64,-75.5 164.64,-56.5 93.64,-56.5"/>
<text text-anchor="middle" x="129.14" y="-63.5" font-family="Helvetica,sans-Serif" font-size="10.00">workarea.h</text>
</a>
</g>
</g>
<!-- Node7&#45;&gt;Node11 -->
<g id="edge16" class="edge">
<title>Node7&#45;&gt;Node11</title>
<path fill="none" stroke="midnightblue" d="M245.27,-112.44C222.36,-103.48 186.16,-89.31 160.27,-79.18"/>
<polygon fill="midnightblue" stroke="midnightblue" points="161.49,-75.9 150.9,-75.52 158.94,-82.42 161.49,-75.9"/>
</g>
<!-- Node10&#45;&gt;Node3 -->
<g id="edge15" class="edge">
<title>Node10&#45;&gt;Node3</title>
<path fill="none" stroke="midnightblue" d="M241.5,-56.08C239.35,-48.85 236.26,-38.41 233.59,-29.4"/>
<polygon fill="midnightblue" stroke="midnightblue" points="236.93,-28.34 230.73,-19.75 230.22,-30.33 236.93,-28.34"/>
</g>
<!-- Node11&#45;&gt;Node3 -->
<g id="edge17" class="edge">
<title>Node11&#45;&gt;Node3</title>
<path fill="none" stroke="midnightblue" d="M145.04,-56.32C160.78,-47.74 185.08,-34.49 203.35,-24.52"/>
<polygon fill="midnightblue" stroke="midnightblue" points="205.17,-27.52 212.27,-19.65 201.82,-21.37 205.17,-27.52"/>
</g>
</g>
</svg>
