<?xml version="1.0" encoding="UTF-8" standalone="no"?>
<!DOCTYPE svg PUBLIC "-//W3C//DTD SVG 1.1//EN"
 "http://www.w3.org/Graphics/SVG/1.1/DTD/svg11.dtd">
<!-- Generated by graphviz version 7.0.4 (20221203.1631)
 -->
<!-- Title: include/vmem.h Pages: 1 -->
<svg width="431pt" height="247pt"
 viewBox="0.00 0.00 431.33 247.00" xmlns="http://www.w3.org/2000/svg" xmlns:xlink="http://www.w3.org/1999/xlink">
<g id="graph0" class="graph" transform="scale(1 1) rotate(0) translate(4 243)">
<title>include/vmem.h</title>
<!-- Node1 -->
<g id="node1" class="node">
<title>Node1</title>
<g id="a_node1"><a xlink:title="Data types and functions for VRAM access.">
<polygon fill="#999999" stroke="#666666" points="232,-239 147,-239 147,-220 232,-220 232,-239"/>
<text text-anchor="middle" x="189.5" y="-227" font-family="Helvetica,sans-Serif" font-size="10.00">include/vmem.h</text>
</a>
</g>
</g>
<!-- Node2 -->
<g id="node2" class="node">
<title>Node2</title>
<g id="a_node2"><a xlink:href="bmem_8h.html" target="_top" xlink:title="Data types and functions for accessing banked memory.">
<polygon fill="white" stroke="#666666" points="85,-184 0,-184 0,-165 85,-165 85,-184"/>
<text text-anchor="middle" x="42.5" y="-172" font-family="Helvetica,sans-Serif" font-size="10.00">include/bmem.h</text>
</a>
</g>
</g>
<!-- Node1&#45;&gt;Node2 -->
<g id="edge1" class="edge">
<title>Node1&#45;&gt;Node2</title>
<path fill="none" stroke="#63b8ff" d="M154.03,-215.71C127.13,-206.01 90.84,-192.93 67.07,-184.36"/>
<polygon fill="#63b8ff" stroke="#63b8ff" points="152.55,-218.9 163.14,-219 154.92,-212.31 152.55,-218.9"/>
</g>
<!-- Node3 -->
<g id="node3" class="node">
<title>Node3</title>
<g id="a_node3"><a xlink:href="metasprite_8h.html" target="_top" xlink:title="Meta&#45;sprite ; an aggregate of sprites.">
<polygon fill="white" stroke="#666666" points="245.5,-74 141.5,-74 141.5,-55 245.5,-55 245.5,-74"/>
<text text-anchor="middle" x="193.5" y="-62" font-family="Helvetica,sans-Serif" font-size="10.00">include/metasprite.h</text>
</a>
</g>
</g>
<!-- Node1&#45;&gt;Node3 -->
<g id="edge2" class="edge">
<title>Node1&#45;&gt;Node3</title>
<path fill="none" stroke="#63b8ff" d="M182.73,-208.85C175.53,-185.21 166.12,-144.41 173.5,-110 176.31,-96.91 183.27,-83.03 188.18,-74.32"/>
<polygon fill="#63b8ff" stroke="#63b8ff" points="179.4,-209.93 185.82,-218.36 186.06,-207.77 179.4,-209.93"/>
</g>
<!-- Node4 -->
<g id="node4" class="node">
<title>Node4</title>
<g id="a_node4"><a xlink:href="msx_8h.html" target="_top" xlink:title="Using #include &lt;msx.h&gt; includes almost all C header files in libmsx, for ease to use.">
<polygon fill="white" stroke="#666666" points="311.5,-19 235.5,-19 235.5,0 311.5,0 311.5,-19"/>
<text text-anchor="middle" x="273.5" y="-7" font-family="Helvetica,sans-Serif" font-size="10.00">include/msx.h</text>
</a>
</g>
</g>
<!-- Node1&#45;&gt;Node4 -->
<g id="edge4" class="edge">
<title>Node1&#45;&gt;Node4</title>
<path fill="none" stroke="#63b8ff" d="M174.25,-211.09C147.07,-177.87 96.33,-104.34 132.5,-55 155.87,-23.12 202.15,-13.49 235.32,-10.88"/>
<polygon fill="#63b8ff" stroke="#63b8ff" points="171.41,-213.15 180.53,-218.53 176.76,-208.63 171.41,-213.15"/>
</g>
<!-- Node5 -->
<g id="node5" class="node">
<title>Node5</title>
<g id="a_node5"><a xlink:href="sprite_8h.html" target="_top" xlink:title="Sprites.">
<polygon fill="white" stroke="#666666" points="264.5,-129 182.5,-129 182.5,-110 264.5,-110 264.5,-129"/>
<text text-anchor="middle" x="223.5" y="-117" font-family="Helvetica,sans-Serif" font-size="10.00">include/sprite.h</text>
</a>
</g>
</g>
<!-- Node1&#45;&gt;Node5 -->
<g id="edge5" class="edge">
<title>Node1&#45;&gt;Node5</title>
<path fill="none" stroke="#63b8ff" d="M195.19,-208.85C198.88,-196.28 203.84,-179.64 208.5,-165 212.45,-152.57 217.32,-138.29 220.42,-129.34"/>
<polygon fill="#63b8ff" stroke="#63b8ff" points="191.85,-207.81 192.41,-218.39 198.57,-209.77 191.85,-207.81"/>
</g>
<!-- Node6 -->
<g id="node6" class="node">
<title>Node6</title>
<g id="a_node6"><a xlink:href="sprite__color_8h.html" target="_top" xlink:title="Sprite color table interface.">
<polygon fill="white" stroke="#666666" points="409.5,-74 301.5,-74 301.5,-55 409.5,-55 409.5,-74"/>
<text text-anchor="middle" x="355.5" y="-62" font-family="Helvetica,sans-Serif" font-size="10.00">include/sprite_color.h</text>
</a>
</g>
</g>
<!-- Node1&#45;&gt;Node6 -->
<g id="edge10" class="edge">
<title>Node1&#45;&gt;Node6</title>
<path fill="none" stroke="#63b8ff" d="M243.62,-225.94C278.12,-221.6 321.6,-210.7 350.5,-184 375.52,-160.88 376.01,-143.62 370.5,-110 368.42,-97.29 363.19,-83.32 359.5,-74.48"/>
<polygon fill="#63b8ff" stroke="#63b8ff" points="243.37,-222.45 233.81,-227.01 244.13,-229.41 243.37,-222.45"/>
</g>
<!-- Node7 -->
<g id="node7" class="node">
<title>Node7</title>
<g id="a_node7"><a xlink:href="vdp_8h.html" target="_top" xlink:title="Data types and functions for VDP (Video Display Proccessor) access.">
<polygon fill="white" stroke="#666666" points="361.5,-129 287.5,-129 287.5,-110 361.5,-110 361.5,-129"/>
<text text-anchor="middle" x="324.5" y="-117" font-family="Helvetica,sans-Serif" font-size="10.00">include/vdp.h</text>
</a>
</g>
</g>
<!-- Node1&#45;&gt;Node7 -->
<g id="edge11" class="edge">
<title>Node1&#45;&gt;Node7</title>
<path fill="none" stroke="#63b8ff" d="M243.87,-226.99C275.79,-222.95 313.8,-212.01 334.5,-184 346.57,-167.67 336.43,-142.46 329.55,-129.26"/>
<polygon fill="#63b8ff" stroke="#63b8ff" points="243.52,-223.51 233.94,-228.03 244.25,-230.47 243.52,-223.51"/>
</g>
<!-- Node8 -->
<g id="node8" class="node">
<title>Node8</title>
<g id="a_node8"><a xlink:href="vdp__unsafe_8h.html" target="_top" xlink:title="Unsafe primitive functions for VDP (Video Display Proccessor) access.">
<polygon fill="white" stroke="#666666" points="325.5,-184 217.5,-184 217.5,-165 325.5,-165 325.5,-184"/>
<text text-anchor="middle" x="271.5" y="-172" font-family="Helvetica,sans-Serif" font-size="10.00">include/vdp_unsafe.h</text>
</a>
</g>
</g>
<!-- Node1&#45;&gt;Node8 -->
<g id="edge14" class="edge">
<title>Node1&#45;&gt;Node8</title>
<path fill="none" stroke="#63b8ff" d="M212.77,-213.46C227.31,-204.06 245.54,-192.28 257.8,-184.36"/>
<polygon fill="#63b8ff" stroke="#63b8ff" points="211.18,-210.32 204.68,-218.69 214.98,-216.2 211.18,-210.32"/>
</g>
<!-- Node3&#45;&gt;Node4 -->
<g id="edge3" class="edge">
<title>Node3&#45;&gt;Node4</title>
<path fill="none" stroke="#63b8ff" d="M216.61,-48.19C230.73,-38.84 248.28,-27.21 260.13,-19.36"/>
<polygon fill="#63b8ff" stroke="#63b8ff" points="214.74,-45.23 208.33,-53.67 218.6,-51.07 214.74,-45.23"/>
</g>
<!-- Node5&#45;&gt;Node3 -->
<g id="edge6" class="edge">
<title>Node5&#45;&gt;Node3</title>
<path fill="none" stroke="#63b8ff" d="M212.91,-99.79C208.03,-91.18 202.48,-81.36 198.56,-74.44"/>
<polygon fill="#63b8ff" stroke="#63b8ff" points="209.83,-101.45 217.8,-108.43 215.92,-98 209.83,-101.45"/>
</g>
<!-- Node5&#45;&gt;Node4 -->
<g id="edge7" class="edge">
<title>Node5&#45;&gt;Node4</title>
<path fill="none" stroke="#63b8ff" d="M237.68,-100.92C243.52,-93.05 249.95,-83.42 254.5,-74 263.4,-55.55 269.11,-32.06 271.76,-19.46"/>
<polygon fill="#63b8ff" stroke="#63b8ff" points="235.08,-98.57 231.73,-108.62 240.62,-102.85 235.08,-98.57"/>
</g>
<!-- Node5&#45;&gt;Node6 -->
<g id="edge8" class="edge">
<title>Node5&#45;&gt;Node6</title>
<path fill="none" stroke="#63b8ff" d="M256.32,-105.32C280.37,-95.67 312.38,-82.82 333.44,-74.36"/>
<polygon fill="#63b8ff" stroke="#63b8ff" points="255.27,-101.97 247.3,-108.95 257.88,-108.47 255.27,-101.97"/>
</g>
<!-- Node6&#45;&gt;Node4 -->
<g id="edge9" class="edge">
<title>Node6&#45;&gt;Node4</title>
<path fill="none" stroke="#63b8ff" d="M332.23,-48.46C317.69,-39.06 299.46,-27.28 287.2,-19.36"/>
<polygon fill="#63b8ff" stroke="#63b8ff" points="330.02,-51.2 340.32,-53.69 333.82,-45.32 330.02,-51.2"/>
</g>
<!-- Node7&#45;&gt;Node3 -->
<g id="edge12" class="edge">
<title>Node7&#45;&gt;Node3</title>
<path fill="none" stroke="#63b8ff" d="M291.61,-105.19C267.77,-95.55 236.2,-82.78 215.39,-74.36"/>
<polygon fill="#63b8ff" stroke="#63b8ff" points="290.29,-108.44 300.87,-108.94 292.92,-101.95 290.29,-108.44"/>
</g>
<!-- Node7&#45;&gt;Node4 -->
<g id="edge13" class="edge">
<title>Node7&#45;&gt;Node4</title>
<path fill="none" stroke="#63b8ff" d="M371.53,-106.07C402.9,-95.37 435.52,-78.02 418.5,-55 394.16,-22.07 345.89,-12.73 311.74,-10.47"/>
<polygon fill="#63b8ff" stroke="#63b8ff" points="370.47,-102.73 362.01,-109.11 372.6,-109.4 370.47,-102.73"/>
</g>
<!-- Node8&#45;&gt;Node7 -->
<g id="edge15" class="edge">
<title>Node8&#45;&gt;Node7</title>
<path fill="none" stroke="#63b8ff" d="M288.22,-156.78C297.28,-147.72 308.1,-136.9 315.56,-129.44"/>
<polygon fill="#63b8ff" stroke="#63b8ff" points="285.92,-154.13 281.32,-163.68 290.87,-159.08 285.92,-154.13"/>
</g>
</g>
</svg>
