<?xml version="1.0" encoding="UTF-8" standalone="no"?>
<!DOCTYPE svg PUBLIC "-//W3C//DTD SVG 1.1//EN"
 "http://www.w3.org/Graphics/SVG/1.1/DTD/svg11.dtd">
<!-- Generated by graphviz version 2.44.0 ()
 -->
<!-- Title: src/vmem_read.c Pages: 1 -->
<svg width="401pt" height="196pt"
 viewBox="0.00 0.00 400.50 196.00" xmlns="http://www.w3.org/2000/svg" xmlns:xlink="http://www.w3.org/1999/xlink">
<g id="graph0" class="graph" transform="scale(1 1) rotate(0) translate(4 192)">
<title>src/vmem_read.c</title>
<!-- Node1 -->
<g id="node1" class="node">
<title>Node1</title>
<g id="a_node1"><a xlink:title="Copyright (c) 2021 Daishi Mori (mori0091)">
<polygon fill="#bfbfbf" stroke="black" points="204.5,-168.5 204.5,-187.5 296.5,-187.5 296.5,-168.5 204.5,-168.5"/>
<text text-anchor="middle" x="250.5" y="-175.5" font-family="Helvetica,sans-Serif" font-size="10.00">src/vmem_read.c</text>
</a>
</g>
</g>
<!-- Node2 -->
<g id="node2" class="node">
<title>Node2</title>
<g id="a_node2"><a xlink:href="vdp_8h.html" target="_top" xlink:title="Copyright (c) 2021 Daishi Mori (mori0091)">
<polygon fill="none" stroke="black" points="162,-112.5 162,-131.5 243,-131.5 243,-112.5 162,-112.5"/>
<text text-anchor="middle" x="202.5" y="-119.5" font-family="Helvetica,sans-Serif" font-size="10.00">../include/vdp.h</text>
</a>
</g>
</g>
<!-- Node1&#45;&gt;Node2 -->
<g id="edge1" class="edge">
<title>Node1&#45;&gt;Node2</title>
<path fill="none" stroke="midnightblue" d="M242.57,-168.08C235.65,-160.3 225.43,-148.8 217.05,-139.37"/>
<polygon fill="midnightblue" stroke="midnightblue" points="219.54,-136.9 210.28,-131.75 214.31,-141.55 219.54,-136.9"/>
</g>
<!-- Node10 -->
<g id="node10" class="node">
<title>Node10</title>
<g id="a_node10"><a xlink:href="vdp__internal_8h.html" target="_top" xlink:title="Copyright (c) 2021 Daishi Mori (mori0091)">
<polygon fill="none" stroke="black" points="261,-112.5 261,-131.5 338,-131.5 338,-112.5 261,-112.5"/>
<text text-anchor="middle" x="299.5" y="-119.5" font-family="Helvetica,sans-Serif" font-size="10.00">vdp_internal.h</text>
</a>
</g>
</g>
<!-- Node1&#45;&gt;Node10 -->
<g id="edge13" class="edge">
<title>Node1&#45;&gt;Node10</title>
<path fill="none" stroke="midnightblue" d="M258.59,-168.08C265.66,-160.3 276.09,-148.8 284.65,-139.37"/>
<polygon fill="midnightblue" stroke="midnightblue" points="287.43,-141.51 291.56,-131.75 282.25,-136.8 287.43,-141.51"/>
</g>
<!-- Node3 -->
<g id="node3" class="node">
<title>Node3</title>
<g id="a_node3"><a xlink:title=" ">
<polygon fill="none" stroke="#bfbfbf" points="0,-56.5 0,-75.5 51,-75.5 51,-56.5 0,-56.5"/>
<text text-anchor="middle" x="25.5" y="-63.5" font-family="Helvetica,sans-Serif" font-size="10.00">assert.h</text>
</a>
</g>
</g>
<!-- Node2&#45;&gt;Node3 -->
<g id="edge2" class="edge">
<title>Node2&#45;&gt;Node3</title>
<path fill="none" stroke="midnightblue" d="M174.45,-112.44C143.71,-103.06 94.33,-88 60.93,-77.81"/>
<polygon fill="midnightblue" stroke="midnightblue" points="61.7,-74.39 51.12,-74.82 59.66,-81.08 61.7,-74.39"/>
</g>
<!-- Node4 -->
<g id="node4" class="node">
<title>Node4</title>
<g id="a_node4"><a xlink:title=" ">
<polygon fill="none" stroke="#bfbfbf" points="69.5,-56.5 69.5,-75.5 125.5,-75.5 125.5,-56.5 69.5,-56.5"/>
<text text-anchor="middle" x="97.5" y="-63.5" font-family="Helvetica,sans-Serif" font-size="10.00">stdbool.h</text>
</a>
</g>
</g>
<!-- Node2&#45;&gt;Node4 -->
<g id="edge3" class="edge">
<title>Node2&#45;&gt;Node4</title>
<path fill="none" stroke="midnightblue" d="M185.63,-112.32C168.79,-103.66 142.69,-90.24 123.26,-80.25"/>
<polygon fill="midnightblue" stroke="midnightblue" points="124.82,-77.12 114.33,-75.65 121.62,-83.34 124.82,-77.12"/>
</g>
<!-- Node5 -->
<g id="node5" class="node">
<title>Node5</title>
<g id="a_node5"><a xlink:title=" ">
<polygon fill="none" stroke="#bfbfbf" points="214.5,-0.5 214.5,-19.5 262.5,-19.5 262.5,-0.5 214.5,-0.5"/>
<text text-anchor="middle" x="238.5" y="-7.5" font-family="Helvetica,sans-Serif" font-size="10.00">stdint.h</text>
</a>
</g>
</g>
<!-- Node2&#45;&gt;Node5 -->
<g id="edge4" class="edge">
<title>Node2&#45;&gt;Node5</title>
<path fill="none" stroke="midnightblue" d="M193.37,-112.44C181.12,-99.88 162.05,-75.78 172.5,-56 179.92,-41.95 193.92,-31.47 207.12,-24.17"/>
<polygon fill="midnightblue" stroke="midnightblue" points="208.72,-27.28 216.04,-19.62 205.54,-21.04 208.72,-27.28"/>
</g>
<!-- Node6 -->
<g id="node6" class="node">
<title>Node6</title>
<g id="a_node6"><a xlink:href="io_8h.html" target="_top" xlink:title="Copyright (c) 2021 Daishi Mori (mori0091)">
<polygon fill="none" stroke="black" points="360.5,-0.5 360.5,-19.5 392.5,-19.5 392.5,-0.5 360.5,-0.5"/>
<text text-anchor="middle" x="376.5" y="-7.5" font-family="Helvetica,sans-Serif" font-size="10.00">io.h</text>
</a>
</g>
</g>
<!-- Node2&#45;&gt;Node6 -->
<g id="edge5" class="edge">
<title>Node2&#45;&gt;Node6</title>
<path fill="none" stroke="midnightblue" d="M242.53,-112.41C294.76,-101.01 380.06,-81.67 384.5,-76 394.88,-62.74 390.57,-43.08 385.1,-28.85"/>
<polygon fill="midnightblue" stroke="midnightblue" points="388.29,-27.41 381.1,-19.62 381.87,-30.19 388.29,-27.41"/>
</g>
<!-- Node7 -->
<g id="node7" class="node">
<title>Node7</title>
<g id="a_node7"><a xlink:href="vmem_8h.html" target="_top" xlink:title="Copyright (c) 2021 Daishi Mori (mori0091)">
<polygon fill="none" stroke="black" points="324,-56.5 324,-75.5 375,-75.5 375,-56.5 324,-56.5"/>
<text text-anchor="middle" x="349.5" y="-63.5" font-family="Helvetica,sans-Serif" font-size="10.00">vmem.h</text>
</a>
</g>
</g>
<!-- Node2&#45;&gt;Node7 -->
<g id="edge6" class="edge">
<title>Node2&#45;&gt;Node7</title>
<path fill="none" stroke="midnightblue" d="M225.79,-112.44C250.31,-103.44 289.1,-89.19 316.7,-79.05"/>
<polygon fill="midnightblue" stroke="midnightblue" points="318.14,-82.25 326.32,-75.52 315.72,-75.68 318.14,-82.25"/>
</g>
<!-- Node8 -->
<g id="node8" class="node">
<title>Node8</title>
<g id="a_node8"><a xlink:href="bios_8h.html" target="_top" xlink:title="Copyright (c) 2021 Daishi Mori (mori0091)">
<polygon fill="none" stroke="black" points="181.5,-56.5 181.5,-75.5 223.5,-75.5 223.5,-56.5 181.5,-56.5"/>
<text text-anchor="middle" x="202.5" y="-63.5" font-family="Helvetica,sans-Serif" font-size="10.00">bios.h</text>
</a>
</g>
</g>
<!-- Node2&#45;&gt;Node8 -->
<g id="edge9" class="edge">
<title>Node2&#45;&gt;Node8</title>
<path fill="none" stroke="midnightblue" d="M202.5,-112.08C202.5,-105.01 202.5,-94.86 202.5,-85.99"/>
<polygon fill="midnightblue" stroke="midnightblue" points="206,-85.75 202.5,-75.75 199,-85.75 206,-85.75"/>
</g>
<!-- Node9 -->
<g id="node9" class="node">
<title>Node9</title>
<g id="a_node9"><a xlink:href="workarea_8h.html" target="_top" xlink:title="Copyright (c) 2021 Daishi Mori (mori0091)">
<polygon fill="none" stroke="black" points="241.5,-56.5 241.5,-75.5 305.5,-75.5 305.5,-56.5 241.5,-56.5"/>
<text text-anchor="middle" x="273.5" y="-63.5" font-family="Helvetica,sans-Serif" font-size="10.00">workarea.h</text>
</a>
</g>
</g>
<!-- Node2&#45;&gt;Node9 -->
<g id="edge11" class="edge">
<title>Node2&#45;&gt;Node9</title>
<path fill="none" stroke="midnightblue" d="M213.91,-112.32C224.61,-104.18 240.84,-91.84 253.66,-82.09"/>
<polygon fill="midnightblue" stroke="midnightblue" points="256.04,-84.67 261.89,-75.83 251.81,-79.1 256.04,-84.67"/>
</g>
<!-- Node7&#45;&gt;Node5 -->
<g id="edge7" class="edge">
<title>Node7&#45;&gt;Node5</title>
<path fill="none" stroke="midnightblue" d="M331.67,-56.32C313.78,-47.62 286.02,-34.12 265.45,-24.11"/>
<polygon fill="midnightblue" stroke="midnightblue" points="266.81,-20.88 256.29,-19.65 263.75,-27.18 266.81,-20.88"/>
</g>
<!-- Node7&#45;&gt;Node6 -->
<g id="edge8" class="edge">
<title>Node7&#45;&gt;Node6</title>
<path fill="none" stroke="midnightblue" d="M353.96,-56.08C357.65,-48.69 363.02,-37.95 367.59,-28.81"/>
<polygon fill="midnightblue" stroke="midnightblue" points="370.78,-30.26 372.12,-19.75 364.52,-27.13 370.78,-30.26"/>
</g>
<!-- Node8&#45;&gt;Node5 -->
<g id="edge10" class="edge">
<title>Node8&#45;&gt;Node5</title>
<path fill="none" stroke="midnightblue" d="M208.44,-56.08C213.48,-48.53 220.84,-37.49 227.01,-28.23"/>
<polygon fill="midnightblue" stroke="midnightblue" points="230.03,-30.01 232.67,-19.75 224.21,-26.13 230.03,-30.01"/>
</g>
<!-- Node9&#45;&gt;Node5 -->
<g id="edge12" class="edge">
<title>Node9&#45;&gt;Node5</title>
<path fill="none" stroke="midnightblue" d="M267.72,-56.08C262.83,-48.53 255.67,-37.49 249.67,-28.23"/>
<polygon fill="midnightblue" stroke="midnightblue" points="252.55,-26.24 244.17,-19.75 246.67,-30.05 252.55,-26.24"/>
</g>
</g>
</svg>
