<?xml version="1.0" encoding="UTF-8" standalone="no"?>
<!DOCTYPE svg PUBLIC "-//W3C//DTD SVG 1.1//EN"
 "http://www.w3.org/Graphics/SVG/1.1/DTD/svg11.dtd">
<!-- Generated by graphviz version 7.0.2 (20221119.0110)
 -->
<!-- Title: include/vmem.h Pages: 1 -->
<svg width="310pt" height="247pt"
 viewBox="0.00 0.00 309.94 247.00" xmlns="http://www.w3.org/2000/svg" xmlns:xlink="http://www.w3.org/1999/xlink">
<g id="graph0" class="graph" transform="scale(1 1) rotate(0) translate(4 243)">
<title>include/vmem.h</title>
<!-- Node1 -->
<g id="node1" class="node">
<title>Node1</title>
<g id="a_node1"><a xlink:title="Data types and functions for VRAM access.">
<polygon fill="#999999" stroke="#666666" points="153.9,-239 68.9,-239 68.9,-220 153.9,-220 153.9,-239"/>
<text text-anchor="middle" x="111.4" y="-227" font-family="Helvetica,sans-Serif" font-size="10.00">include/vmem.h</text>
</a>
</g>
</g>
<!-- Node2 -->
<g id="node2" class="node">
<title>Node2</title>
<g id="a_node2"><a xlink:href="metasprite_8h.html" target="_top" xlink:title="Meta&#45;sprite ; an aggregate of sprites.">
<polygon fill="white" stroke="#666666" points="124.4,-74 20.4,-74 20.4,-55 124.4,-55 124.4,-74"/>
<text text-anchor="middle" x="72.4" y="-62" font-family="Helvetica,sans-Serif" font-size="10.00">include/metasprite.h</text>
</a>
</g>
</g>
<!-- Node1&#45;&gt;Node2 -->
<g id="edge1" class="edge">
<title>Node1&#45;&gt;Node2</title>
<path fill="none" stroke="#63b8ff" d="M100.97,-209.57C90.86,-190.06 76.23,-158.42 70.4,-129 68.76,-120.72 70.21,-118.44 70.4,-110 70.68,-97.63 71.39,-83.34 71.89,-74.36"/>
<polygon fill="#63b8ff" stroke="#63b8ff" points="97.79,-211.04 105.59,-218.22 103.97,-207.75 97.79,-211.04"/>
</g>
<!-- Node3 -->
<g id="node3" class="node">
<title>Node3</title>
<g id="a_node3"><a xlink:href="msx_8h.html" target="_top" xlink:title="Using #include &lt;msx.h&gt; includes almost all C header files in libmsx, for ease to use.">
<polygon fill="white" stroke="#666666" points="190.4,-19 114.4,-19 114.4,0 190.4,0 190.4,-19"/>
<text text-anchor="middle" x="152.4" y="-7" font-family="Helvetica,sans-Serif" font-size="10.00">include/msx.h</text>
</a>
</g>
</g>
<!-- Node1&#45;&gt;Node3 -->
<g id="edge3" class="edge">
<title>Node1&#45;&gt;Node3</title>
<path fill="none" stroke="#63b8ff" d="M89.92,-212.7C49.89,-181.33 -28.57,-109.53 11.4,-55 34.77,-23.12 81.05,-13.49 114.22,-10.88"/>
<polygon fill="#63b8ff" stroke="#63b8ff" points="87.68,-215.39 97.75,-218.68 91.93,-209.83 87.68,-215.39"/>
</g>
<!-- Node4 -->
<g id="node4" class="node">
<title>Node4</title>
<g id="a_node4"><a xlink:href="sprite_8h.html" target="_top" xlink:title="Sprites.">
<polygon fill="white" stroke="#666666" points="161.4,-129 79.4,-129 79.4,-110 161.4,-110 161.4,-129"/>
<text text-anchor="middle" x="120.4" y="-117" font-family="Helvetica,sans-Serif" font-size="10.00">include/sprite.h</text>
</a>
</g>
</g>
<!-- Node1&#45;&gt;Node4 -->
<g id="edge4" class="edge">
<title>Node1&#45;&gt;Node4</title>
<path fill="none" stroke="#63b8ff" d="M112.92,-208.51C113.88,-196 115.18,-179.56 116.4,-165 117.45,-152.63 118.75,-138.34 119.58,-129.36"/>
<polygon fill="#63b8ff" stroke="#63b8ff" points="109.44,-208.12 112.17,-218.36 116.42,-208.66 109.44,-208.12"/>
</g>
<!-- Node5 -->
<g id="node5" class="node">
<title>Node5</title>
<g id="a_node5"><a xlink:href="sprite__color_8h.html" target="_top" xlink:title="Sprite color table interface.">
<polygon fill="white" stroke="#666666" points="288.4,-74 180.4,-74 180.4,-55 288.4,-55 288.4,-74"/>
<text text-anchor="middle" x="234.4" y="-62" font-family="Helvetica,sans-Serif" font-size="10.00">include/sprite_color.h</text>
</a>
</g>
</g>
<!-- Node1&#45;&gt;Node5 -->
<g id="edge9" class="edge">
<title>Node1&#45;&gt;Node5</title>
<path fill="none" stroke="#63b8ff" d="M165.36,-221C207.8,-213.87 261.94,-201.6 275.4,-184 302.12,-149.07 261.15,-95.48 242.67,-74.43"/>
<polygon fill="#63b8ff" stroke="#63b8ff" points="164.84,-217.54 155.52,-222.59 165.95,-224.45 164.84,-217.54"/>
</g>
<!-- Node6 -->
<g id="node6" class="node">
<title>Node6</title>
<g id="a_node6"><a xlink:href="vdp_8h.html" target="_top" xlink:title="Data types and functions for VDP (Video Display Proccessor) access.">
<polygon fill="white" stroke="#666666" points="253.4,-129 179.4,-129 179.4,-110 253.4,-110 253.4,-129"/>
<text text-anchor="middle" x="216.4" y="-117" font-family="Helvetica,sans-Serif" font-size="10.00">include/vdp.h</text>
</a>
</g>
</g>
<!-- Node1&#45;&gt;Node6 -->
<g id="edge10" class="edge">
<title>Node1&#45;&gt;Node6</title>
<path fill="none" stroke="#63b8ff" d="M119.78,-209.84C126.47,-196.34 136.79,-178.22 149.4,-165 163.77,-149.95 184.11,-137.34 198.6,-129.43"/>
<polygon fill="#63b8ff" stroke="#63b8ff" points="116.79,-207.98 115.69,-218.52 123.12,-210.97 116.79,-207.98"/>
</g>
<!-- Node7 -->
<g id="node7" class="node">
<title>Node7</title>
<g id="a_node7"><a xlink:href="vdp__unsafe_8h.html" target="_top" xlink:title="Unsafe primitive functions for VDP (Video Display Proccessor) access.">
<polygon fill="white" stroke="#666666" points="266.4,-184 158.4,-184 158.4,-165 266.4,-165 266.4,-184"/>
<text text-anchor="middle" x="212.4" y="-172" font-family="Helvetica,sans-Serif" font-size="10.00">include/vdp_unsafe.h</text>
</a>
</g>
</g>
<!-- Node1&#45;&gt;Node7 -->
<g id="edge13" class="edge">
<title>Node1&#45;&gt;Node7</title>
<path fill="none" stroke="#63b8ff" d="M138.53,-214.27C156.67,-204.74 179.99,-192.51 195.52,-184.36"/>
<polygon fill="#63b8ff" stroke="#63b8ff" points="137.11,-211.06 129.88,-218.81 140.36,-217.26 137.11,-211.06"/>
</g>
<!-- Node2&#45;&gt;Node3 -->
<g id="edge2" class="edge">
<title>Node2&#45;&gt;Node3</title>
<path fill="none" stroke="#63b8ff" d="M95.52,-48.19C109.63,-38.84 127.19,-27.21 139.03,-19.36"/>
<polygon fill="#63b8ff" stroke="#63b8ff" points="93.64,-45.23 87.24,-53.67 97.51,-51.07 93.64,-45.23"/>
</g>
<!-- Node4&#45;&gt;Node2 -->
<g id="edge5" class="edge">
<title>Node4&#45;&gt;Node2</title>
<path fill="none" stroke="#63b8ff" d="M104.75,-101.22C96.66,-92.28 87.11,-81.74 80.5,-74.44"/>
<polygon fill="#63b8ff" stroke="#63b8ff" points="102.15,-103.56 111.46,-108.63 107.34,-98.86 102.15,-103.56"/>
</g>
<!-- Node4&#45;&gt;Node3 -->
<g id="edge6" class="edge">
<title>Node4&#45;&gt;Node3</title>
<path fill="none" stroke="#63b8ff" d="M126.21,-98.9C133.19,-75.33 144.61,-36.81 149.75,-19.46"/>
<polygon fill="#63b8ff" stroke="#63b8ff" points="122.94,-97.63 123.45,-108.21 129.65,-99.62 122.94,-97.63"/>
</g>
<!-- Node4&#45;&gt;Node5 -->
<g id="edge7" class="edge">
<title>Node4&#45;&gt;Node5</title>
<path fill="none" stroke="#63b8ff" d="M150.16,-104.67C170.76,-95.09 197.57,-82.62 215.35,-74.36"/>
<polygon fill="#63b8ff" stroke="#63b8ff" points="148.71,-101.48 141.11,-108.87 151.66,-107.83 148.71,-101.48"/>
</g>
<!-- Node5&#45;&gt;Node3 -->
<g id="edge8" class="edge">
<title>Node5&#45;&gt;Node3</title>
<path fill="none" stroke="#63b8ff" d="M211.13,-48.46C196.59,-39.06 178.37,-27.28 166.11,-19.36"/>
<polygon fill="#63b8ff" stroke="#63b8ff" points="208.92,-51.2 219.22,-53.69 212.72,-45.32 208.92,-51.2"/>
</g>
<!-- Node6&#45;&gt;Node2 -->
<g id="edge11" class="edge">
<title>Node6&#45;&gt;Node2</title>
<path fill="none" stroke="#63b8ff" d="M181.31,-105.58C154.99,-95.9 119.66,-82.89 96.47,-74.36"/>
<polygon fill="#63b8ff" stroke="#63b8ff" points="179.96,-108.82 190.56,-108.99 182.38,-102.25 179.96,-108.82"/>
</g>
<!-- Node6&#45;&gt;Node3 -->
<g id="edge12" class="edge">
<title>Node6&#45;&gt;Node3</title>
<path fill="none" stroke="#63b8ff" d="M255.84,-105.5C283.56,-94.19 313.13,-76.28 297.4,-55 273.06,-22.07 224.79,-12.73 190.65,-10.47"/>
<polygon fill="#63b8ff" stroke="#63b8ff" points="254.89,-102.12 246.81,-108.97 257.4,-108.65 254.89,-102.12"/>
</g>
<!-- Node7&#45;&gt;Node6 -->
<g id="edge14" class="edge">
<title>Node7&#45;&gt;Node6</title>
<path fill="none" stroke="#63b8ff" d="M213.92,-153.35C214.55,-145.1 215.24,-135.97 215.73,-129.44"/>
<polygon fill="#63b8ff" stroke="#63b8ff" points="210.44,-153 213.18,-163.24 217.42,-153.53 210.44,-153"/>
</g>
</g>
</svg>
