<?xml version="1.0" encoding="UTF-8" standalone="no"?>
<!DOCTYPE svg PUBLIC "-//W3C//DTD SVG 1.1//EN"
 "http://www.w3.org/Graphics/SVG/1.1/DTD/svg11.dtd">
<!-- Generated by graphviz version 2.43.0 (0)
 -->
<!-- Title: include/vmem.h Pages: 1 -->
<svg width="5426pt" height="207pt"
 viewBox="0.00 0.00 5425.50 207.00" xmlns="http://www.w3.org/2000/svg" xmlns:xlink="http://www.w3.org/1999/xlink">
<g id="graph0" class="graph" transform="scale(1 1) rotate(0) translate(4 203)">
<title>include/vmem.h</title>
<!-- Node1 -->
<g id="node1" class="node">
<title>Node1</title>
<g id="a_node1"><a xlink:title=" ">
<polygon fill="#bfbfbf" stroke="black" points="810,-179.5 810,-198.5 905,-198.5 905,-179.5 810,-179.5"/>
<text text-anchor="middle" x="857.5" y="-186.5" font-family="Helvetica,sans-Serif" font-size="10.00">include/vmem.h</text>
</a>
</g>
</g>
<!-- Node2 -->
<g id="node2" class="node">
<title>Node2</title>
<g id="a_node2"><a xlink:href="vdp_8h.html" target="_top" xlink:title=" ">
<polygon fill="none" stroke="black" points="2937.5,-123.5 2937.5,-142.5 3019.5,-142.5 3019.5,-123.5 2937.5,-123.5"/>
<text text-anchor="middle" x="2978.5" y="-130.5" font-family="Helvetica,sans-Serif" font-size="10.00">include/vdp.h</text>
</a>
</g>
</g>
<!-- Node1&#45;&gt;Node2 -->
<g id="edge1" class="edge">
<title>Node1&#45;&gt;Node2</title>
<path fill="none" stroke="midnightblue" d="M915.08,-186.53C1223.28,-178.69 2673.77,-141.76 2937.35,-135.05"/>
<polygon fill="midnightblue" stroke="midnightblue" points="914.93,-183.04 905.03,-186.79 915.11,-190.03 914.93,-183.04"/>
</g>
<!-- Node3 -->
<g id="node3" class="node">
<title>Node3</title>
<g id="a_node3"><a xlink:href="metasprite_8h.html" target="_top" xlink:title=" ">
<polygon fill="none" stroke="black" points="706,-62 706,-81 823,-81 823,-62 706,-62"/>
<text text-anchor="middle" x="764.5" y="-69" font-family="Helvetica,sans-Serif" font-size="10.00">include/metasprite.h</text>
</a>
</g>
</g>
<!-- Node1&#45;&gt;Node3 -->
<g id="edge41" class="edge">
<title>Node1&#45;&gt;Node3</title>
<path fill="none" stroke="midnightblue" d="M844.21,-171.5C824.21,-146.66 787.06,-100.52 771.57,-81.28"/>
<polygon fill="midnightblue" stroke="midnightblue" points="841.51,-173.72 850.51,-179.32 846.96,-169.33 841.51,-173.72"/>
</g>
<!-- Node4 -->
<g id="node4" class="node">
<title>Node4</title>
<g id="a_node4"><a xlink:href="msx_8h.html" target="_top" xlink:title=" ">
<polygon fill="none" stroke="black" points="828,-0.5 828,-19.5 913,-19.5 913,-0.5 828,-0.5"/>
<text text-anchor="middle" x="870.5" y="-7.5" font-family="Helvetica,sans-Serif" font-size="10.00">include/msx.h</text>
</a>
</g>
</g>
<!-- Node1&#45;&gt;Node4 -->
<g id="edge53" class="edge">
<title>Node1&#45;&gt;Node4</title>
<path fill="none" stroke="midnightblue" d="M858.87,-169.35C861.64,-131.6 867.83,-47.36 869.85,-19.87"/>
<polygon fill="midnightblue" stroke="midnightblue" points="855.37,-169.23 858.13,-179.46 862.35,-169.75 855.37,-169.23"/>
</g>
<!-- Node41 -->
<g id="node41" class="node">
<title>Node41</title>
<g id="a_node41"><a xlink:href="sprite_8h.html" target="_top" xlink:title=" ">
<polygon fill="none" stroke="black" points="432.5,-123.5 432.5,-142.5 524.5,-142.5 524.5,-123.5 432.5,-123.5"/>
<text text-anchor="middle" x="478.5" y="-130.5" font-family="Helvetica,sans-Serif" font-size="10.00">include/sprite.h</text>
</a>
</g>
</g>
<!-- Node1&#45;&gt;Node41 -->
<g id="edge42" class="edge">
<title>Node1&#45;&gt;Node41</title>
<path fill="none" stroke="midnightblue" d="M799.62,-179.75C724.23,-169.01 593.9,-150.44 524.74,-140.59"/>
<polygon fill="midnightblue" stroke="midnightblue" points="799.49,-183.27 809.88,-181.22 800.48,-176.34 799.49,-183.27"/>
</g>
<!-- Node2&#45;&gt;Node3 -->
<g id="edge2" class="edge">
<title>Node2&#45;&gt;Node3</title>
<path fill="none" stroke="midnightblue" d="M2927.02,-132.37C2693.68,-133.74 1711.95,-136.11 908.5,-87 880.41,-85.28 849.34,-82.29 823.27,-79.47"/>
<polygon fill="midnightblue" stroke="midnightblue" points="2927.27,-135.87 2937.24,-132.31 2927.22,-128.87 2927.27,-135.87"/>
</g>
<!-- Node2&#45;&gt;Node4 -->
<g id="edge7" class="edge">
<title>Node2&#45;&gt;Node4</title>
<path fill="none" stroke="midnightblue" d="M2927.45,-130.3C2828.81,-126.43 2615.85,-115.02 2548.5,-87 2528.38,-78.63 2530.93,-63.59 2510.5,-56 2433.53,-27.39 1164.25,-13.81 913.38,-11.4"/>
<polygon fill="midnightblue" stroke="midnightblue" points="2927.35,-133.8 2937.48,-130.69 2927.62,-126.81 2927.35,-133.8"/>
</g>
<!-- Node8 -->
<g id="node8" class="node">
<title>Node8</title>
<g id="a_node8"><a xlink:href="vdp_8c.html" target="_top" xlink:title=" ">
<polygon fill="none" stroke="black" points="1173.5,-62 1173.5,-81 1233.5,-81 1233.5,-62 1173.5,-62"/>
<text text-anchor="middle" x="1203.5" y="-69" font-family="Helvetica,sans-Serif" font-size="10.00">src/vdp.c</text>
</a>
</g>
</g>
<!-- Node2&#45;&gt;Node8 -->
<g id="edge8" class="edge">
<title>Node2&#45;&gt;Node8</title>
<path fill="none" stroke="midnightblue" d="M2927.07,-131.68C2657.28,-129.84 1411.28,-119.62 1242.5,-87 1235.83,-85.71 1228.8,-83.41 1222.58,-81.02"/>
<polygon fill="midnightblue" stroke="midnightblue" points="2927.33,-135.18 2937.36,-131.74 2927.38,-128.18 2927.33,-135.18"/>
</g>
<!-- Node9 -->
<g id="node9" class="node">
<title>Node9</title>
<g id="a_node9"><a xlink:href="vdp__cmd__execute__HMMM_8c.html" target="_top" xlink:title=" ">
<polygon fill="none" stroke="black" points="1251.5,-56.5 1251.5,-86.5 1373.5,-86.5 1373.5,-56.5 1251.5,-56.5"/>
<text text-anchor="start" x="1259.5" y="-74.5" font-family="Helvetica,sans-Serif" font-size="10.00">src/vdp_cmd_execute</text>
<text text-anchor="middle" x="1312.5" y="-63.5" font-family="Helvetica,sans-Serif" font-size="10.00">_HMMM.c</text>
</a>
</g>
</g>
<!-- Node2&#45;&gt;Node9 -->
<g id="edge9" class="edge">
<title>Node2&#45;&gt;Node9</title>
<path fill="none" stroke="midnightblue" d="M2927.29,-131.77C2689.56,-130.51 1692.11,-123.15 1382.5,-87 1379.66,-86.67 1376.77,-86.28 1373.86,-85.85"/>
<polygon fill="midnightblue" stroke="midnightblue" points="2927.36,-135.27 2937.38,-131.82 2927.4,-128.27 2927.36,-135.27"/>
</g>
<!-- Node10 -->
<g id="node10" class="node">
<title>Node10</title>
<g id="a_node10"><a xlink:href="vdp__cmd__execute__HMMV_8c.html" target="_top" xlink:title=" ">
<polygon fill="none" stroke="black" points="1391.5,-56.5 1391.5,-86.5 1513.5,-86.5 1513.5,-56.5 1391.5,-56.5"/>
<text text-anchor="start" x="1399.5" y="-74.5" font-family="Helvetica,sans-Serif" font-size="10.00">src/vdp_cmd_execute</text>
<text text-anchor="middle" x="1452.5" y="-63.5" font-family="Helvetica,sans-Serif" font-size="10.00">_HMMV.c</text>
</a>
</g>
</g>
<!-- Node2&#45;&gt;Node10 -->
<g id="edge10" class="edge">
<title>Node2&#45;&gt;Node10</title>
<path fill="none" stroke="midnightblue" d="M2927.12,-131.61C2702.17,-129.7 1802.95,-120.13 1522.5,-87 1519.67,-86.67 1516.77,-86.27 1513.86,-85.84"/>
<polygon fill="midnightblue" stroke="midnightblue" points="2927.28,-135.11 2937.31,-131.69 2927.34,-128.11 2927.28,-135.11"/>
</g>
<!-- Node11 -->
<g id="node11" class="node">
<title>Node11</title>
<g id="a_node11"><a xlink:href="vdp__cmd__execute__LMMM_8c.html" target="_top" xlink:title=" ">
<polygon fill="none" stroke="black" points="1531.5,-56.5 1531.5,-86.5 1653.5,-86.5 1653.5,-56.5 1531.5,-56.5"/>
<text text-anchor="start" x="1539.5" y="-74.5" font-family="Helvetica,sans-Serif" font-size="10.00">src/vdp_cmd_execute</text>
<text text-anchor="middle" x="1592.5" y="-63.5" font-family="Helvetica,sans-Serif" font-size="10.00">_LMMM.c</text>
</a>
</g>
</g>
<!-- Node2&#45;&gt;Node11 -->
<g id="edge11" class="edge">
<title>Node2&#45;&gt;Node11</title>
<path fill="none" stroke="midnightblue" d="M2927.32,-131.41C2716.42,-128.82 1914.04,-117.13 1662.5,-87 1659.67,-86.66 1656.78,-86.26 1653.86,-85.83"/>
<polygon fill="midnightblue" stroke="midnightblue" points="2927.45,-134.92 2937.49,-131.54 2927.53,-127.92 2927.45,-134.92"/>
</g>
<!-- Node12 -->
<g id="node12" class="node">
<title>Node12</title>
<g id="a_node12"><a xlink:href="vdp__cmd__execute__LMMV_8c.html" target="_top" xlink:title=" ">
<polygon fill="none" stroke="black" points="1671.5,-56.5 1671.5,-86.5 1793.5,-86.5 1793.5,-56.5 1671.5,-56.5"/>
<text text-anchor="start" x="1679.5" y="-74.5" font-family="Helvetica,sans-Serif" font-size="10.00">src/vdp_cmd_execute</text>
<text text-anchor="middle" x="1732.5" y="-63.5" font-family="Helvetica,sans-Serif" font-size="10.00">_LMMV.c</text>
</a>
</g>
</g>
<!-- Node2&#45;&gt;Node12 -->
<g id="edge12" class="edge">
<title>Node2&#45;&gt;Node12</title>
<path fill="none" stroke="midnightblue" d="M2927.36,-131.17C2730.99,-127.83 2025.16,-114.13 1802.5,-87 1799.67,-86.65 1796.78,-86.25 1793.86,-85.81"/>
<polygon fill="midnightblue" stroke="midnightblue" points="2927.35,-134.67 2937.41,-131.34 2927.47,-127.68 2927.35,-134.67"/>
</g>
<!-- Node13 -->
<g id="node13" class="node">
<title>Node13</title>
<g id="a_node13"><a xlink:href="vdp__cmd__set__unrestricted_8c.html" target="_top" xlink:title=" ">
<polygon fill="none" stroke="black" points="1811.5,-62 1811.5,-81 1981.5,-81 1981.5,-62 1811.5,-62"/>
<text text-anchor="middle" x="1896.5" y="-69" font-family="Helvetica,sans-Serif" font-size="10.00">src/vdp_cmd_set_unrestricted.c</text>
</a>
</g>
</g>
<!-- Node2&#45;&gt;Node13 -->
<g id="edge13" class="edge">
<title>Node2&#45;&gt;Node13</title>
<path fill="none" stroke="midnightblue" d="M2927.41,-131.61C2781.09,-130.07 2347.99,-122.61 1990.5,-87 1975.71,-85.53 1959.7,-83.3 1945.16,-81.03"/>
<polygon fill="midnightblue" stroke="midnightblue" points="2927.41,-135.11 2937.45,-131.71 2927.48,-128.11 2927.41,-135.11"/>
</g>
<!-- Node14 -->
<g id="node14" class="node">
<title>Node14</title>
<g id="a_node14"><a xlink:href="vdp__get__sprite__mode_8c.html" target="_top" xlink:title=" ">
<polygon fill="none" stroke="black" points="1999.5,-56.5 1999.5,-86.5 2105.5,-86.5 2105.5,-56.5 1999.5,-56.5"/>
<text text-anchor="start" x="2007.5" y="-74.5" font-family="Helvetica,sans-Serif" font-size="10.00">src/vdp_get_sprite</text>
<text text-anchor="middle" x="2052.5" y="-63.5" font-family="Helvetica,sans-Serif" font-size="10.00">_mode.c</text>
</a>
</g>
</g>
<!-- Node2&#45;&gt;Node14 -->
<g id="edge14" class="edge">
<title>Node2&#45;&gt;Node14</title>
<path fill="none" stroke="midnightblue" d="M2926.93,-132.5C2792.47,-133.1 2420.38,-130.38 2114.5,-87 2111.65,-86.6 2108.75,-86.13 2105.82,-85.6"/>
<polygon fill="midnightblue" stroke="midnightblue" points="2927.35,-135.99 2937.33,-132.44 2927.31,-128.99 2927.35,-135.99"/>
</g>
<!-- Node15 -->
<g id="node15" class="node">
<title>Node15</title>
<g id="a_node15"><a xlink:href="vdp__get__status_8c.html" target="_top" xlink:title=" ">
<polygon fill="none" stroke="black" points="2123.5,-62 2123.5,-81 2239.5,-81 2239.5,-62 2123.5,-62"/>
<text text-anchor="middle" x="2181.5" y="-69" font-family="Helvetica,sans-Serif" font-size="10.00">src/vdp_get_status.c</text>
</a>
</g>
</g>
<!-- Node2&#45;&gt;Node15 -->
<g id="edge15" class="edge">
<title>Node2&#45;&gt;Node15</title>
<path fill="none" stroke="midnightblue" d="M2926.79,-131.5C2806.96,-129.75 2501.24,-121.93 2248.5,-87 2237.89,-85.53 2226.46,-83.31 2216.1,-81.03"/>
<polygon fill="midnightblue" stroke="midnightblue" points="2927.07,-135 2937.12,-131.64 2927.17,-128 2927.07,-135"/>
</g>
<!-- Node16 -->
<g id="node16" class="node">
<title>Node16</title>
<g id="a_node16"><a xlink:href="vdp__set__adjust_8c.html" target="_top" xlink:title=" ">
<polygon fill="none" stroke="black" points="2257.5,-62 2257.5,-81 2373.5,-81 2373.5,-62 2257.5,-62"/>
<text text-anchor="middle" x="2315.5" y="-69" font-family="Helvetica,sans-Serif" font-size="10.00">src/vdp_set_adjust.c</text>
</a>
</g>
</g>
<!-- Node2&#45;&gt;Node16 -->
<g id="edge16" class="edge">
<title>Node2&#45;&gt;Node16</title>
<path fill="none" stroke="midnightblue" d="M2927.01,-130.44C2823.55,-126.79 2583.26,-115.72 2383.5,-87 2372.87,-85.47 2361.41,-83.25 2350.98,-81.01"/>
<polygon fill="midnightblue" stroke="midnightblue" points="2927.06,-133.94 2937.17,-130.79 2927.3,-126.95 2927.06,-133.94"/>
</g>
<!-- Node17 -->
<g id="node17" class="node">
<title>Node17</title>
<g id="a_node17"><a xlink:href="vdp__set__color_8c.html" target="_top" xlink:title=" ">
<polygon fill="none" stroke="black" points="2392,-62 2392,-81 2501,-81 2501,-62 2392,-62"/>
<text text-anchor="middle" x="2446.5" y="-69" font-family="Helvetica,sans-Serif" font-size="10.00">src/vdp_set_color.c</text>
</a>
</g>
</g>
<!-- Node2&#45;&gt;Node17 -->
<g id="edge17" class="edge">
<title>Node2&#45;&gt;Node17</title>
<path fill="none" stroke="midnightblue" d="M2927.21,-128.87C2841.56,-123.23 2664.17,-109.77 2515.5,-87 2504.97,-85.39 2493.63,-83.2 2483.25,-81.01"/>
<polygon fill="midnightblue" stroke="midnightblue" points="2927.23,-132.38 2937.43,-129.53 2927.68,-125.39 2927.23,-132.38"/>
</g>
<!-- Node18 -->
<g id="node18" class="node">
<title>Node18</title>
<g id="a_node18"><a xlink:href="vdp__set__color__table_8c.html" target="_top" xlink:title=" ">
<polygon fill="none" stroke="black" points="2557.5,-62 2557.5,-81 2697.5,-81 2697.5,-62 2557.5,-62"/>
<text text-anchor="middle" x="2627.5" y="-69" font-family="Helvetica,sans-Serif" font-size="10.00">src/vdp_set_color_table.c</text>
</a>
</g>
</g>
<!-- Node2&#45;&gt;Node18 -->
<g id="edge18" class="edge">
<title>Node2&#45;&gt;Node18</title>
<path fill="none" stroke="midnightblue" d="M2927.04,-123.69C2872.5,-114.82 2783.87,-100.26 2707.5,-87 2696.65,-85.12 2684.99,-83.03 2674.01,-81.05"/>
<polygon fill="midnightblue" stroke="midnightblue" points="2926.72,-127.18 2937.15,-125.33 2927.84,-120.27 2926.72,-127.18"/>
</g>
<!-- Node19 -->
<g id="node19" class="node">
<title>Node19</title>
<g id="a_node19"><a xlink:href="vdp__set__control_8c.html" target="_top" xlink:title=" ">
<polygon fill="none" stroke="black" points="2716,-62 2716,-81 2835,-81 2835,-62 2716,-62"/>
<text text-anchor="middle" x="2775.5" y="-69" font-family="Helvetica,sans-Serif" font-size="10.00">src/vdp_set_control.c</text>
</a>
</g>
</g>
<!-- Node2&#45;&gt;Node19 -->
<g id="edge19" class="edge">
<title>Node2&#45;&gt;Node19</title>
<path fill="none" stroke="midnightblue" d="M2939.61,-120.6C2900.16,-109.04 2840.01,-91.41 2804.53,-81.01"/>
<polygon fill="midnightblue" stroke="midnightblue" points="2938.83,-124.02 2949.42,-123.48 2940.8,-117.3 2938.83,-124.02"/>
</g>
<!-- Node20 -->
<g id="node20" class="node">
<title>Node20</title>
<g id="a_node20"><a xlink:href="vdp__set__hscroll_8c.html" target="_top" xlink:title=" ">
<polygon fill="none" stroke="black" points="2853.5,-62 2853.5,-81 2971.5,-81 2971.5,-62 2853.5,-62"/>
<text text-anchor="middle" x="2912.5" y="-69" font-family="Helvetica,sans-Serif" font-size="10.00">src/vdp_set_hscroll.c</text>
</a>
</g>
</g>
<!-- Node2&#45;&gt;Node20 -->
<g id="edge20" class="edge">
<title>Node2&#45;&gt;Node20</title>
<path fill="none" stroke="midnightblue" d="M2961.47,-116.65C2948.89,-105.31 2932.22,-90.28 2921.94,-81.01"/>
<polygon fill="midnightblue" stroke="midnightblue" points="2959.27,-119.38 2969.04,-123.48 2963.96,-114.18 2959.27,-119.38"/>
</g>
<!-- Node21 -->
<g id="node21" class="node">
<title>Node21</title>
<g id="a_node21"><a xlink:href="vdp__set__hscroll__dual__page_8c.html" target="_top" xlink:title=" ">
<polygon fill="none" stroke="black" points="2989.5,-56.5 2989.5,-86.5 3099.5,-86.5 3099.5,-56.5 2989.5,-56.5"/>
<text text-anchor="start" x="2997.5" y="-74.5" font-family="Helvetica,sans-Serif" font-size="10.00">src/vdp_set_hscroll</text>
<text text-anchor="middle" x="3044.5" y="-63.5" font-family="Helvetica,sans-Serif" font-size="10.00">_dual_page.c</text>
</a>
</g>
</g>
<!-- Node2&#45;&gt;Node21 -->
<g id="edge21" class="edge">
<title>Node2&#45;&gt;Node21</title>
<path fill="none" stroke="midnightblue" d="M2995.53,-116.65C3005.85,-107.35 3018.91,-95.57 3028.95,-86.52"/>
<polygon fill="midnightblue" stroke="midnightblue" points="2993.04,-114.18 2987.96,-123.48 2997.73,-119.38 2993.04,-114.18"/>
</g>
<!-- Node22 -->
<g id="node22" class="node">
<title>Node22</title>
<g id="a_node22"><a xlink:href="vdp__set__hscroll__mask_8c.html" target="_top" xlink:title=" ">
<polygon fill="none" stroke="black" points="3117.5,-56.5 3117.5,-86.5 3227.5,-86.5 3227.5,-56.5 3117.5,-56.5"/>
<text text-anchor="start" x="3125.5" y="-74.5" font-family="Helvetica,sans-Serif" font-size="10.00">src/vdp_set_hscroll</text>
<text text-anchor="middle" x="3172.5" y="-63.5" font-family="Helvetica,sans-Serif" font-size="10.00">_mask.c</text>
</a>
</g>
</g>
<!-- Node2&#45;&gt;Node22 -->
<g id="edge22" class="edge">
<title>Node2&#45;&gt;Node22</title>
<path fill="none" stroke="midnightblue" d="M3016.05,-120.48C3047.68,-110.78 3093.04,-96.87 3126.78,-86.52"/>
<polygon fill="midnightblue" stroke="midnightblue" points="3014.83,-117.2 3006.3,-123.48 3016.88,-123.89 3014.83,-117.2"/>
</g>
<!-- Node23 -->
<g id="node23" class="node">
<title>Node23</title>
<g id="a_node23"><a xlink:href="vdp__set__image__table_8c.html" target="_top" xlink:title=" ">
<polygon fill="none" stroke="black" points="3245.5,-62 3245.5,-81 3391.5,-81 3391.5,-62 3245.5,-62"/>
<text text-anchor="middle" x="3318.5" y="-69" font-family="Helvetica,sans-Serif" font-size="10.00">src/vdp_set_image_table.c</text>
</a>
</g>
</g>
<!-- Node2&#45;&gt;Node23 -->
<g id="edge23" class="edge">
<title>Node2&#45;&gt;Node23</title>
<path fill="none" stroke="midnightblue" d="M3029.6,-123.12C3081.66,-114.07 3164.71,-99.61 3236.5,-87 3247.46,-85.07 3259.25,-83 3270.37,-81.03"/>
<polygon fill="midnightblue" stroke="midnightblue" points="3028.87,-119.7 3019.61,-124.86 3030.07,-126.59 3028.87,-119.7"/>
</g>
<!-- Node24 -->
<g id="node24" class="node">
<title>Node24</title>
<g id="a_node24"><a xlink:href="vdp__set__palette_8c.html" target="_top" xlink:title=" ">
<polygon fill="none" stroke="black" points="3409.5,-62 3409.5,-81 3529.5,-81 3529.5,-62 3409.5,-62"/>
<text text-anchor="middle" x="3469.5" y="-69" font-family="Helvetica,sans-Serif" font-size="10.00">src/vdp_set_palette.c</text>
</a>
</g>
</g>
<!-- Node2&#45;&gt;Node24 -->
<g id="edge24" class="edge">
<title>Node2&#45;&gt;Node24</title>
<path fill="none" stroke="midnightblue" d="M3029.97,-128.2C3109.67,-121.93 3267.64,-107.99 3400.5,-87 3410.9,-85.36 3422.1,-83.18 3432.39,-81.02"/>
<polygon fill="midnightblue" stroke="midnightblue" points="3029.41,-124.73 3019.71,-128.99 3029.96,-131.71 3029.41,-124.73"/>
</g>
<!-- Node25 -->
<g id="node25" class="node">
<title>Node25</title>
<g id="a_node25"><a xlink:href="vdp__set__pattern__table_8c.html" target="_top" xlink:title=" ">
<polygon fill="none" stroke="black" points="3548,-56.5 3548,-86.5 3661,-86.5 3661,-56.5 3548,-56.5"/>
<text text-anchor="start" x="3556" y="-74.5" font-family="Helvetica,sans-Serif" font-size="10.00">src/vdp_set_pattern</text>
<text text-anchor="middle" x="3604.5" y="-63.5" font-family="Helvetica,sans-Serif" font-size="10.00">_table.c</text>
</a>
</g>
</g>
<!-- Node2&#45;&gt;Node25 -->
<g id="edge25" class="edge">
<title>Node2&#45;&gt;Node25</title>
<path fill="none" stroke="midnightblue" d="M3029.84,-130.21C3128.75,-126.25 3352.4,-114.79 3538.5,-87 3541.52,-86.55 3544.6,-86.04 3547.71,-85.49"/>
<polygon fill="midnightblue" stroke="midnightblue" points="3029.67,-126.72 3019.82,-130.6 3029.95,-133.71 3029.67,-126.72"/>
</g>
<!-- Node26 -->
<g id="node26" class="node">
<title>Node26</title>
<g id="a_node26"><a xlink:href="vdp__set__screen__lines_8c.html" target="_top" xlink:title=" ">
<polygon fill="none" stroke="black" points="3679.5,-56.5 3679.5,-86.5 3789.5,-86.5 3789.5,-56.5 3679.5,-56.5"/>
<text text-anchor="start" x="3687.5" y="-74.5" font-family="Helvetica,sans-Serif" font-size="10.00">src/vdp_set_screen</text>
<text text-anchor="middle" x="3734.5" y="-63.5" font-family="Helvetica,sans-Serif" font-size="10.00">_lines.c</text>
</a>
</g>
</g>
<!-- Node2&#45;&gt;Node26 -->
<g id="edge26" class="edge">
<title>Node2&#45;&gt;Node26</title>
<path fill="none" stroke="midnightblue" d="M3029.97,-131.42C3145.26,-129.53 3432.77,-121.44 3670.5,-87 3673.43,-86.58 3676.43,-86.09 3679.45,-85.55"/>
<polygon fill="midnightblue" stroke="midnightblue" points="3029.63,-127.93 3019.68,-131.58 3029.74,-134.93 3029.63,-127.93"/>
</g>
<!-- Node27 -->
<g id="node27" class="node">
<title>Node27</title>
<g id="a_node27"><a xlink:href="vdp__set__screen__mode_8c.html" target="_top" xlink:title=" ">
<polygon fill="none" stroke="black" points="3807.5,-56.5 3807.5,-86.5 3917.5,-86.5 3917.5,-56.5 3807.5,-56.5"/>
<text text-anchor="start" x="3815.5" y="-74.5" font-family="Helvetica,sans-Serif" font-size="10.00">src/vdp_set_screen</text>
<text text-anchor="middle" x="3862.5" y="-63.5" font-family="Helvetica,sans-Serif" font-size="10.00">_mode.c</text>
</a>
</g>
</g>
<!-- Node2&#45;&gt;Node27 -->
<g id="edge27" class="edge">
<title>Node2&#45;&gt;Node27</title>
<path fill="none" stroke="midnightblue" d="M3029.72,-132.17C3159.18,-131.95 3509.79,-127.34 3798.5,-87 3801.43,-86.59 3804.43,-86.11 3807.45,-85.59"/>
<polygon fill="midnightblue" stroke="midnightblue" points="3029.69,-128.67 3019.69,-132.18 3029.69,-135.67 3029.69,-128.67"/>
</g>
<!-- Node28 -->
<g id="node28" class="node">
<title>Node28</title>
<g id="a_node28"><a xlink:href="vdp__set__sprite__attribute__table_8c.html" target="_top" xlink:title=" ">
<polygon fill="none" stroke="black" points="3936,-56.5 3936,-86.5 4041,-86.5 4041,-56.5 3936,-56.5"/>
<text text-anchor="start" x="3944" y="-74.5" font-family="Helvetica,sans-Serif" font-size="10.00">src/vdp_set_sprite</text>
<text text-anchor="middle" x="3988.5" y="-63.5" font-family="Helvetica,sans-Serif" font-size="10.00">_attribute_table.c</text>
</a>
</g>
</g>
<!-- Node2&#45;&gt;Node28 -->
<g id="edge28" class="edge">
<title>Node2&#45;&gt;Node28</title>
<path fill="none" stroke="midnightblue" d="M3029.87,-130.8C3201.03,-126.59 3750.97,-111.48 3926.5,-87 3929.57,-86.57 3932.7,-86.06 3935.86,-85.5"/>
<polygon fill="midnightblue" stroke="midnightblue" points="3029.54,-127.3 3019.63,-131.05 3029.71,-134.3 3029.54,-127.3"/>
</g>
<!-- Node29 -->
<g id="node29" class="node">
<title>Node29</title>
<g id="a_node29"><a xlink:href="vdp__set__sprite__pattern__table_8c.html" target="_top" xlink:title=" ">
<polygon fill="none" stroke="black" points="4059,-56.5 4059,-86.5 4164,-86.5 4164,-56.5 4059,-56.5"/>
<text text-anchor="start" x="4067" y="-74.5" font-family="Helvetica,sans-Serif" font-size="10.00">src/vdp_set_sprite</text>
<text text-anchor="middle" x="4111.5" y="-63.5" font-family="Helvetica,sans-Serif" font-size="10.00">_pattern_table.c</text>
</a>
</g>
</g>
<!-- Node2&#45;&gt;Node29 -->
<g id="edge29" class="edge">
<title>Node2&#45;&gt;Node29</title>
<path fill="none" stroke="midnightblue" d="M3029.67,-131.15C3214.83,-127.88 3849.6,-114.83 4050.5,-87 4053.2,-86.63 4055.95,-86.19 4058.72,-85.7"/>
<polygon fill="midnightblue" stroke="midnightblue" points="3029.59,-127.65 3019.66,-131.33 3029.72,-134.65 3029.59,-127.65"/>
</g>
<!-- Node30 -->
<g id="node30" class="node">
<title>Node30</title>
<g id="a_node30"><a xlink:href="vdp__set__sprite__size_8c.html" target="_top" xlink:title=" ">
<polygon fill="none" stroke="black" points="4182,-56.5 4182,-86.5 4287,-86.5 4287,-56.5 4182,-56.5"/>
<text text-anchor="start" x="4190" y="-74.5" font-family="Helvetica,sans-Serif" font-size="10.00">src/vdp_set_sprite</text>
<text text-anchor="middle" x="4234.5" y="-63.5" font-family="Helvetica,sans-Serif" font-size="10.00">_size.c</text>
</a>
</g>
</g>
<!-- Node2&#45;&gt;Node30 -->
<g id="edge30" class="edge">
<title>Node2&#45;&gt;Node30</title>
<path fill="none" stroke="midnightblue" d="M3029.82,-131.4C3228.52,-128.89 3947.41,-117.83 4173.5,-87 4176.2,-86.63 4178.95,-86.2 4181.72,-85.71"/>
<polygon fill="midnightblue" stroke="midnightblue" points="3029.61,-127.91 3019.66,-131.53 3029.7,-134.91 3029.61,-127.91"/>
</g>
<!-- Node31 -->
<g id="node31" class="node">
<title>Node31</title>
<g id="a_node31"><a xlink:href="vdp__set__sprite__visible_8c.html" target="_top" xlink:title=" ">
<polygon fill="none" stroke="black" points="4305,-56.5 4305,-86.5 4410,-86.5 4410,-56.5 4305,-56.5"/>
<text text-anchor="start" x="4313" y="-74.5" font-family="Helvetica,sans-Serif" font-size="10.00">src/vdp_set_sprite</text>
<text text-anchor="middle" x="4357.5" y="-63.5" font-family="Helvetica,sans-Serif" font-size="10.00">_visible.c</text>
</a>
</g>
</g>
<!-- Node2&#45;&gt;Node31 -->
<g id="edge31" class="edge">
<title>Node2&#45;&gt;Node31</title>
<path fill="none" stroke="midnightblue" d="M3029.79,-131.61C3241.1,-129.81 4045.05,-120.83 4296.5,-87 4299.2,-86.64 4301.95,-86.21 4304.72,-85.73"/>
<polygon fill="midnightblue" stroke="midnightblue" points="3029.57,-128.12 3019.6,-131.7 3029.62,-135.12 3029.57,-128.12"/>
</g>
<!-- Node32 -->
<g id="node32" class="node">
<title>Node32</title>
<g id="a_node32"><a xlink:href="vdp__set__visible_8c.html" target="_top" xlink:title=" ">
<polygon fill="none" stroke="black" points="4428.5,-62 4428.5,-81 4546.5,-81 4546.5,-62 4428.5,-62"/>
<text text-anchor="middle" x="4487.5" y="-69" font-family="Helvetica,sans-Serif" font-size="10.00">src/vdp_set_visible.c</text>
</a>
</g>
</g>
<!-- Node2&#45;&gt;Node32 -->
<g id="edge32" class="edge">
<title>Node2&#45;&gt;Node32</title>
<path fill="none" stroke="midnightblue" d="M3029.73,-131.63C3252.99,-129.82 4142.19,-120.62 4419.5,-87 4430.64,-85.65 4442.67,-83.37 4453.46,-81.01"/>
<polygon fill="midnightblue" stroke="midnightblue" points="3029.58,-128.13 3019.6,-131.71 3029.63,-135.13 3029.58,-128.13"/>
</g>
<!-- Node33 -->
<g id="node33" class="node">
<title>Node33</title>
<g id="a_node33"><a xlink:href="vdp__set__vscroll_8c.html" target="_top" xlink:title=" ">
<polygon fill="none" stroke="black" points="4564.5,-62 4564.5,-81 4682.5,-81 4682.5,-62 4564.5,-62"/>
<text text-anchor="middle" x="4623.5" y="-69" font-family="Helvetica,sans-Serif" font-size="10.00">src/vdp_set_vscroll.c</text>
</a>
</g>
</g>
<!-- Node2&#45;&gt;Node33 -->
<g id="edge33" class="edge">
<title>Node2&#45;&gt;Node33</title>
<path fill="none" stroke="midnightblue" d="M3029.88,-131.79C3266.19,-130.62 4250.02,-123.62 4555.5,-87 4566.65,-85.66 4578.67,-83.38 4589.46,-81.02"/>
<polygon fill="midnightblue" stroke="midnightblue" points="3029.83,-128.29 3019.84,-131.84 3029.86,-135.29 3029.83,-128.29"/>
</g>
<!-- Node34 -->
<g id="node34" class="node">
<title>Node34</title>
<g id="a_node34"><a xlink:href="vdp__write__control_8c.html" target="_top" xlink:title=" ">
<polygon fill="none" stroke="black" points="4701,-62 4701,-81 4830,-81 4830,-62 4701,-62"/>
<text text-anchor="middle" x="4765.5" y="-69" font-family="Helvetica,sans-Serif" font-size="10.00">src/vdp_write_control.c</text>
</a>
</g>
</g>
<!-- Node2&#45;&gt;Node34 -->
<g id="edge34" class="edge">
<title>Node2&#45;&gt;Node34</title>
<path fill="none" stroke="midnightblue" d="M3029.78,-131.81C3278.11,-130.71 4357.35,-123.86 4691.5,-87 4703.6,-85.66 4716.68,-83.39 4728.42,-81.03"/>
<polygon fill="midnightblue" stroke="midnightblue" points="3029.58,-128.31 3019.6,-131.85 3029.61,-135.31 3029.58,-128.31"/>
</g>
<!-- Node35 -->
<g id="node35" class="node">
<title>Node35</title>
<g id="a_node35"><a xlink:href="vdp__write__palette_8c.html" target="_top" xlink:title=" ">
<polygon fill="none" stroke="black" points="4848.5,-62 4848.5,-81 4978.5,-81 4978.5,-62 4848.5,-62"/>
<text text-anchor="middle" x="4913.5" y="-69" font-family="Helvetica,sans-Serif" font-size="10.00">src/vdp_write_palette.c</text>
</a>
</g>
</g>
<!-- Node2&#45;&gt;Node35 -->
<g id="edge35" class="edge">
<title>Node2&#45;&gt;Node35</title>
<path fill="none" stroke="midnightblue" d="M3029.92,-131.93C3291.29,-131.42 4474.49,-126.88 4839.5,-87 4851.6,-85.68 4864.68,-83.4 4876.42,-81.04"/>
<polygon fill="midnightblue" stroke="midnightblue" points="3029.58,-128.43 3019.58,-131.95 3029.59,-135.43 3029.58,-128.43"/>
</g>
<!-- Node36 -->
<g id="node36" class="node">
<title>Node36</title>
<g id="a_node36"><a xlink:href="vmem__memset_8c.html" target="_top" xlink:title=" ">
<polygon fill="none" stroke="black" points="4997,-62 4997,-81 5116,-81 5116,-62 4997,-62"/>
<text text-anchor="middle" x="5056.5" y="-69" font-family="Helvetica,sans-Serif" font-size="10.00">src/vmem_memset.c</text>
</a>
</g>
</g>
<!-- Node2&#45;&gt;Node36 -->
<g id="edge36" class="edge">
<title>Node2&#45;&gt;Node36</title>
<path fill="none" stroke="midnightblue" d="M3029.58,-132.13C3302.57,-132.66 4591.64,-132.63 4987.5,-87 4998.81,-85.7 5011.01,-83.43 5021.96,-81.06"/>
<polygon fill="midnightblue" stroke="midnightblue" points="3029.57,-128.63 3019.56,-132.11 3029.55,-135.63 3029.57,-128.63"/>
</g>
<!-- Node37 -->
<g id="node37" class="node">
<title>Node37</title>
<g id="a_node37"><a xlink:href="vmem__read_8c.html" target="_top" xlink:title=" ">
<polygon fill="none" stroke="black" points="5134,-62 5134,-81 5235,-81 5235,-62 5134,-62"/>
<text text-anchor="middle" x="5184.5" y="-69" font-family="Helvetica,sans-Serif" font-size="10.00">src/vmem_read.c</text>
</a>
</g>
</g>
<!-- Node2&#45;&gt;Node37 -->
<g id="edge37" class="edge">
<title>Node2&#45;&gt;Node37</title>
<path fill="none" stroke="midnightblue" d="M3030.27,-131.6C3337.21,-129.12 4912.14,-115.1 5125.5,-87 5135.33,-85.71 5145.9,-83.41 5155.33,-81.02"/>
<polygon fill="midnightblue" stroke="midnightblue" points="3029.86,-128.1 3019.89,-131.68 3029.92,-135.1 3029.86,-128.1"/>
</g>
<!-- Node38 -->
<g id="node38" class="node">
<title>Node38</title>
<g id="a_node38"><a xlink:href="vmem__set__read__address_8c.html" target="_top" xlink:title=" ">
<polygon fill="none" stroke="black" points="5253.5,-62 5253.5,-81 5417.5,-81 5417.5,-62 5253.5,-62"/>
<text text-anchor="middle" x="5335.5" y="-69" font-family="Helvetica,sans-Serif" font-size="10.00">src/vmem_set_read_address.c</text>
</a>
</g>
</g>
<!-- Node2&#45;&gt;Node38 -->
<g id="edge38" class="edge">
<title>Node2&#45;&gt;Node38</title>
<path fill="none" stroke="midnightblue" d="M3030.28,-131.94C3325.02,-131.48 4793.96,-127.17 5244.5,-87 5259.32,-85.68 5275.38,-83.4 5289.83,-81.04"/>
<polygon fill="midnightblue" stroke="midnightblue" points="3029.89,-128.45 3019.89,-131.96 3029.9,-135.45 3029.89,-128.45"/>
</g>
<!-- Node39 -->
<g id="node39" class="node">
<title>Node39</title>
<g id="a_node39"><a xlink:href="vmem__set__write__address_8c.html" target="_top" xlink:title=" ">
<polygon fill="none" stroke="black" points="917.5,-56.5 917.5,-86.5 1033.5,-86.5 1033.5,-56.5 917.5,-56.5"/>
<text text-anchor="start" x="925.5" y="-74.5" font-family="Helvetica,sans-Serif" font-size="10.00">src/vmem_set_write</text>
<text text-anchor="middle" x="975.5" y="-63.5" font-family="Helvetica,sans-Serif" font-size="10.00">_address.c</text>
</a>
</g>
</g>
<!-- Node2&#45;&gt;Node39 -->
<g id="edge39" class="edge">
<title>Node2&#45;&gt;Node39</title>
<path fill="none" stroke="midnightblue" d="M2927.15,-132.13C2659.58,-132.58 1422.81,-132.16 1042.5,-87 1039.66,-86.66 1036.77,-86.26 1033.86,-85.81"/>
<polygon fill="midnightblue" stroke="midnightblue" points="2927.36,-135.63 2937.35,-132.11 2927.35,-128.63 2927.36,-135.63"/>
</g>
<!-- Node40 -->
<g id="node40" class="node">
<title>Node40</title>
<g id="a_node40"><a xlink:href="vmem__write_8c.html" target="_top" xlink:title=" ">
<polygon fill="none" stroke="black" points="1051.5,-62 1051.5,-81 1155.5,-81 1155.5,-62 1051.5,-62"/>
<text text-anchor="middle" x="1103.5" y="-69" font-family="Helvetica,sans-Serif" font-size="10.00">src/vmem_write.c</text>
</a>
</g>
</g>
<!-- Node2&#45;&gt;Node40 -->
<g id="edge40" class="edge">
<title>Node2&#45;&gt;Node40</title>
<path fill="none" stroke="midnightblue" d="M2927.1,-132.17C2669.66,-132.81 1518.86,-133 1164.5,-87 1154.46,-85.7 1143.67,-83.43 1133.99,-81.06"/>
<polygon fill="midnightblue" stroke="midnightblue" points="2927.29,-135.67 2937.28,-132.14 2927.28,-128.67 2927.29,-135.67"/>
</g>
<!-- Node3&#45;&gt;Node4 -->
<g id="edge3" class="edge">
<title>Node3&#45;&gt;Node4</title>
<path fill="none" stroke="midnightblue" d="M788.45,-57.06C808.96,-45.54 837.88,-29.31 855.34,-19.51"/>
<polygon fill="midnightblue" stroke="midnightblue" points="786.69,-54.03 779.69,-61.98 790.12,-60.13 786.69,-54.03"/>
</g>
<!-- Node5 -->
<g id="node5" class="node">
<title>Node5</title>
<g id="a_node5"><a xlink:href="vmem__set__metasprite__a_8c.html" target="_top" xlink:title=" ">
<polygon fill="none" stroke="black" points="620.5,-0.5 620.5,-19.5 784.5,-19.5 784.5,-0.5 620.5,-0.5"/>
<text text-anchor="middle" x="702.5" y="-7.5" font-family="Helvetica,sans-Serif" font-size="10.00">src/vmem_set_metasprite_a.c</text>
</a>
</g>
</g>
<!-- Node3&#45;&gt;Node5 -->
<g id="edge4" class="edge">
<title>Node3&#45;&gt;Node5</title>
<path fill="none" stroke="midnightblue" d="M748.17,-54.82C736.39,-43.52 720.94,-28.69 711.37,-19.51"/>
<polygon fill="midnightblue" stroke="midnightblue" points="745.98,-57.58 755.62,-61.98 750.83,-52.53 745.98,-57.58"/>
</g>
<!-- Node6 -->
<g id="node6" class="node">
<title>Node6</title>
<g id="a_node6"><a xlink:href="vmem__set__metasprite__m_8c.html" target="_top" xlink:title=" ">
<polygon fill="none" stroke="black" points="0,-0.5 0,-19.5 167,-19.5 167,-0.5 0,-0.5"/>
<text text-anchor="middle" x="83.5" y="-7.5" font-family="Helvetica,sans-Serif" font-size="10.00">src/vmem_set_metasprite_m.c</text>
</a>
</g>
</g>
<!-- Node3&#45;&gt;Node6 -->
<g id="edge5" class="edge">
<title>Node3&#45;&gt;Node6</title>
<path fill="none" stroke="midnightblue" d="M696.75,-60.64C684.06,-58.96 670.89,-57.33 658.5,-56 484.27,-37.28 279.55,-23.13 167.44,-16.04"/>
<polygon fill="midnightblue" stroke="midnightblue" points="696.43,-64.13 706.81,-61.99 697.37,-57.19 696.43,-64.13"/>
</g>
<!-- Node7 -->
<g id="node7" class="node">
<title>Node7</title>
<g id="a_node7"><a xlink:href="vmem__set__metasprite__s_8c.html" target="_top" xlink:title=" ">
<polygon fill="none" stroke="black" points="354,-0.5 354,-19.5 517,-19.5 517,-0.5 354,-0.5"/>
<text text-anchor="middle" x="435.5" y="-7.5" font-family="Helvetica,sans-Serif" font-size="10.00">src/vmem_set_metasprite_s.c</text>
</a>
</g>
</g>
<!-- Node3&#45;&gt;Node7 -->
<g id="edge6" class="edge">
<title>Node3&#45;&gt;Node7</title>
<path fill="none" stroke="midnightblue" d="M707.48,-60.19C643.79,-48.67 541.88,-30.24 482.55,-19.51"/>
<polygon fill="midnightblue" stroke="midnightblue" points="706.9,-63.64 717.36,-61.98 708.14,-56.75 706.9,-63.64"/>
</g>
<!-- Node41&#45;&gt;Node3 -->
<g id="edge43" class="edge">
<title>Node41&#45;&gt;Node3</title>
<path fill="none" stroke="midnightblue" d="M529.44,-121.4C584.89,-109.87 672.45,-91.65 723.6,-81.01"/>
<polygon fill="midnightblue" stroke="midnightblue" points="528.55,-118.01 519.48,-123.48 529.98,-124.86 528.55,-118.01"/>
</g>
<!-- Node41&#45;&gt;Node4 -->
<g id="edge44" class="edge">
<title>Node41&#45;&gt;Node4</title>
<path fill="none" stroke="midnightblue" d="M534.74,-131.17C622.25,-128.86 785.83,-120.09 832.5,-87 855.6,-70.62 865.43,-36.06 868.89,-19.8"/>
<polygon fill="midnightblue" stroke="midnightblue" points="534.63,-127.67 524.72,-131.42 534.8,-134.67 534.63,-127.67"/>
</g>
<!-- Node41&#45;&gt;Node5 -->
<g id="edge50" class="edge">
<title>Node41&#45;&gt;Node5</title>
<path fill="none" stroke="midnightblue" d="M534.46,-129.28C572.69,-124.9 622.72,-113.95 658.5,-87 681.88,-69.39 694.94,-35.44 700.01,-19.57"/>
<polygon fill="midnightblue" stroke="midnightblue" points="534.1,-125.8 524.51,-130.3 534.81,-132.76 534.1,-125.8"/>
</g>
<!-- Node41&#45;&gt;Node6 -->
<g id="edge51" class="edge">
<title>Node41&#45;&gt;Node6</title>
<path fill="none" stroke="midnightblue" d="M422.33,-130.62C305.94,-127.17 47.03,-116.27 20.5,-87 11.25,-76.79 14.2,-68.25 20.5,-56 29.3,-38.91 47.92,-26.87 62.65,-19.57"/>
<polygon fill="midnightblue" stroke="midnightblue" points="422.37,-134.12 432.47,-130.91 422.57,-127.12 422.37,-134.12"/>
</g>
<!-- Node41&#45;&gt;Node7 -->
<g id="edge52" class="edge">
<title>Node41&#45;&gt;Node7</title>
<path fill="none" stroke="midnightblue" d="M421.94,-130.47C307.33,-126.79 56.31,-115.53 30.5,-87 21.26,-76.78 21.31,-66.27 30.5,-56 51.64,-32.38 241.74,-19.77 353.82,-14.34"/>
<polygon fill="midnightblue" stroke="midnightblue" points="422.16,-133.98 432.27,-130.8 422.38,-126.98 422.16,-133.98"/>
</g>
<!-- Node42 -->
<g id="node42" class="node">
<title>Node42</title>
<g id="a_node42"><a xlink:href="sprite__set__color_8c.html" target="_top" xlink:title=" ">
<polygon fill="none" stroke="black" points="40,-62 40,-81 159,-81 159,-62 40,-62"/>
<text text-anchor="middle" x="99.5" y="-69" font-family="Helvetica,sans-Serif" font-size="10.00">src/sprite_set_color.c</text>
</a>
</g>
</g>
<!-- Node41&#45;&gt;Node42 -->
<g id="edge45" class="edge">
<title>Node41&#45;&gt;Node42</title>
<path fill="none" stroke="midnightblue" d="M422.21,-125C359.77,-116.97 256.14,-102.85 167.5,-87 157.64,-85.24 147.02,-83.09 137.18,-81"/>
<polygon fill="midnightblue" stroke="midnightblue" points="421.88,-128.48 432.24,-126.28 422.77,-121.54 421.88,-128.48"/>
</g>
<!-- Node43 -->
<g id="node43" class="node">
<title>Node43</title>
<g id="a_node43"><a xlink:href="sprite__set__pat_8c.html" target="_top" xlink:title=" ">
<polygon fill="none" stroke="black" points="177,-62 177,-81 288,-81 288,-62 177,-62"/>
<text text-anchor="middle" x="232.5" y="-69" font-family="Helvetica,sans-Serif" font-size="10.00">src/sprite_set_pat.c</text>
</a>
</g>
</g>
<!-- Node41&#45;&gt;Node43 -->
<g id="edge46" class="edge">
<title>Node41&#45;&gt;Node43</title>
<path fill="none" stroke="midnightblue" d="M433.49,-121.11C385.74,-109.57 311.31,-91.56 267.68,-81.01"/>
<polygon fill="midnightblue" stroke="midnightblue" points="432.71,-124.53 443.25,-123.48 434.36,-117.72 432.71,-124.53"/>
</g>
<!-- Node44 -->
<g id="node44" class="node">
<title>Node44</title>
<g id="a_node44"><a xlink:href="sprite__set__x_8c.html" target="_top" xlink:title=" ">
<polygon fill="none" stroke="black" points="306,-62 306,-81 407,-81 407,-62 306,-62"/>
<text text-anchor="middle" x="356.5" y="-69" font-family="Helvetica,sans-Serif" font-size="10.00">src/sprite_set_x.c</text>
</a>
</g>
</g>
<!-- Node41&#45;&gt;Node44 -->
<g id="edge47" class="edge">
<title>Node41&#45;&gt;Node44</title>
<path fill="none" stroke="midnightblue" d="M451.89,-119.02C428.23,-107.48 394.32,-90.94 373.95,-81.01"/>
<polygon fill="midnightblue" stroke="midnightblue" points="450.5,-122.24 461.02,-123.48 453.57,-115.95 450.5,-122.24"/>
</g>
<!-- Node45 -->
<g id="node45" class="node">
<title>Node45</title>
<g id="a_node45"><a xlink:href="sprite__set__xy_8c.html" target="_top" xlink:title=" ">
<polygon fill="none" stroke="black" points="425.5,-62 425.5,-81 531.5,-81 531.5,-62 425.5,-62"/>
<text text-anchor="middle" x="478.5" y="-69" font-family="Helvetica,sans-Serif" font-size="10.00">src/sprite_set_xy.c</text>
</a>
</g>
</g>
<!-- Node41&#45;&gt;Node45 -->
<g id="edge48" class="edge">
<title>Node41&#45;&gt;Node45</title>
<path fill="none" stroke="midnightblue" d="M478.5,-113.32C478.5,-102.5 478.5,-89.4 478.5,-81.01"/>
<polygon fill="midnightblue" stroke="midnightblue" points="475,-113.48 478.5,-123.48 482,-113.48 475,-113.48"/>
</g>
<!-- Node46 -->
<g id="node46" class="node">
<title>Node46</title>
<g id="a_node46"><a xlink:href="sprite__set__y_8c.html" target="_top" xlink:title=" ">
<polygon fill="none" stroke="black" points="549.5,-62 549.5,-81 649.5,-81 649.5,-62 549.5,-62"/>
<text text-anchor="middle" x="599.5" y="-69" font-family="Helvetica,sans-Serif" font-size="10.00">src/sprite_set_y.c</text>
</a>
</g>
</g>
<!-- Node41&#45;&gt;Node46 -->
<g id="edge49" class="edge">
<title>Node41&#45;&gt;Node46</title>
<path fill="none" stroke="midnightblue" d="M504.89,-119.02C528.36,-107.48 561.99,-90.94 582.2,-81.01"/>
<polygon fill="midnightblue" stroke="midnightblue" points="503.27,-115.92 495.84,-123.48 506.35,-122.2 503.27,-115.92"/>
</g>
</g>
</svg>
