<?xml version="1.0" encoding="UTF-8" standalone="no"?>
<!DOCTYPE svg PUBLIC "-//W3C//DTD SVG 1.1//EN"
 "http://www.w3.org/Graphics/SVG/1.1/DTD/svg11.dtd">
<!-- Generated by graphviz version 2.43.0 (0)
 -->
<!-- Title: include/vmem.h Pages: 1 -->
<svg width="5600pt" height="218pt"
 viewBox="0.00 0.00 5599.55 218.00" xmlns="http://www.w3.org/2000/svg" xmlns:xlink="http://www.w3.org/1999/xlink">
<g id="graph0" class="graph" transform="scale(1 1) rotate(0) translate(4 214)">
<title>include/vmem.h</title>
<!-- Node1 -->
<g id="node1" class="node">
<title>Node1</title>
<g id="a_node1"><a xlink:title=" ">
<polygon fill="#bfbfbf" stroke="black" points="894.84,-190.5 894.84,-209.5 989.84,-209.5 989.84,-190.5 894.84,-190.5"/>
<text text-anchor="middle" x="942.34" y="-197.5" font-family="Helvetica,sans-Serif" font-size="10.00">include/vmem.h</text>
</a>
</g>
</g>
<!-- Node2 -->
<g id="node2" class="node">
<title>Node2</title>
<g id="a_node2"><a xlink:href="vdp_8h.html" target="_top" xlink:title=" ">
<polygon fill="none" stroke="black" points="3208.34,-134.5 3208.34,-153.5 3290.34,-153.5 3290.34,-134.5 3208.34,-134.5"/>
<text text-anchor="middle" x="3249.34" y="-141.5" font-family="Helvetica,sans-Serif" font-size="10.00">include/vdp.h</text>
</a>
</g>
</g>
<!-- Node1&#45;&gt;Node2 -->
<g id="edge1" class="edge">
<title>Node1&#45;&gt;Node2</title>
<path fill="none" stroke="midnightblue" d="M1000.16,-197.65C1326.07,-190.02 2929.04,-152.5 3207.93,-145.97"/>
<polygon fill="midnightblue" stroke="midnightblue" points="999.91,-194.15 990,-197.88 1000.08,-201.15 999.91,-194.15"/>
</g>
<!-- Node3 -->
<g id="node3" class="node">
<title>Node3</title>
<g id="a_node3"><a xlink:href="metasprite_8h.html" target="_top" xlink:title=" ">
<polygon fill="none" stroke="black" points="724.84,-73 724.84,-92 841.84,-92 841.84,-73 724.84,-73"/>
<text text-anchor="middle" x="783.34" y="-80" font-family="Helvetica,sans-Serif" font-size="10.00">include/metasprite.h</text>
</a>
</g>
</g>
<!-- Node1&#45;&gt;Node3 -->
<g id="edge42" class="edge">
<title>Node1&#45;&gt;Node3</title>
<path fill="none" stroke="midnightblue" d="M922.25,-184.41C888.79,-160.1 822.61,-112.03 795.43,-92.28"/>
<polygon fill="midnightblue" stroke="midnightblue" points="920.24,-187.27 930.39,-190.32 924.36,-181.61 920.24,-187.27"/>
</g>
<!-- Node4 -->
<g id="node4" class="node">
<title>Node4</title>
<g id="a_node4"><a xlink:href="msx_8h.html" target="_top" xlink:title=" ">
<polygon fill="none" stroke="black" points="509.84,-6 509.84,-25 594.84,-25 594.84,-6 509.84,-6"/>
<text text-anchor="middle" x="552.34" y="-13" font-family="Helvetica,sans-Serif" font-size="10.00">include/msx.h</text>
</a>
</g>
</g>
<!-- Node1&#45;&gt;Node4 -->
<g id="edge61" class="edge">
<title>Node1&#45;&gt;Node4</title>
<path fill="none" stroke="midnightblue" d="M884.84,-197.16C690.74,-190.36 68.7,-163.58 10.34,-98 1.18,-87.71 1.06,-77.18 10.34,-67 27.13,-48.58 384.44,-26.22 509.54,-18.92"/>
<polygon fill="midnightblue" stroke="midnightblue" points="884.72,-200.66 894.84,-197.51 884.96,-193.66 884.72,-200.66"/>
</g>
<!-- Node39 -->
<g id="node39" class="node">
<title>Node39</title>
<g id="a_node39"><a xlink:href="vmem__set__sprite__color__s_8c.html" target="_top" xlink:title=" ">
<polygon fill="none" stroke="black" points="3900.84,-0.5 3900.84,-30.5 4019.84,-30.5 4019.84,-0.5 3900.84,-0.5"/>
<text text-anchor="start" x="3908.84" y="-18.5" font-family="Helvetica,sans-Serif" font-size="10.00">src/vmem_set_sprite</text>
<text text-anchor="middle" x="3960.34" y="-7.5" font-family="Helvetica,sans-Serif" font-size="10.00">_color_s.c</text>
</a>
</g>
</g>
<!-- Node1&#45;&gt;Node39 -->
<g id="edge63" class="edge">
<title>Node1&#45;&gt;Node39</title>
<path fill="none" stroke="midnightblue" d="M1000.07,-198.86C1527.99,-197.47 5500.26,-184.17 5584.34,-98 5593.96,-88.14 5593.93,-76.89 5584.34,-67 5556.58,-38.36 4309.41,-20.9 4019.92,-17.23"/>
<polygon fill="midnightblue" stroke="midnightblue" points="1000.01,-195.36 990.02,-198.89 1000.03,-202.36 1000.01,-195.36"/>
</g>
<!-- Node42 -->
<g id="node42" class="node">
<title>Node42</title>
<g id="a_node42"><a xlink:href="sprite_8h.html" target="_top" xlink:title=" ">
<polygon fill="none" stroke="black" points="498.34,-134.5 498.34,-153.5 590.34,-153.5 590.34,-134.5 498.34,-134.5"/>
<text text-anchor="middle" x="544.34" y="-141.5" font-family="Helvetica,sans-Serif" font-size="10.00">include/sprite.h</text>
</a>
</g>
</g>
<!-- Node1&#45;&gt;Node42 -->
<g id="edge43" class="edge">
<title>Node1&#45;&gt;Node42</title>
<path fill="none" stroke="midnightblue" d="M884.4,-191.14C804.82,-180.34 663.3,-161.14 590.47,-151.26"/>
<polygon fill="midnightblue" stroke="midnightblue" points="884.35,-194.66 894.73,-192.54 885.29,-187.73 884.35,-194.66"/>
</g>
<!-- Node43 -->
<g id="node43" class="node">
<title>Node43</title>
<g id="a_node43"><a xlink:href="sprite__color_8h.html" target="_top" xlink:title=" ">
<polygon fill="none" stroke="black" points="936.34,-73 936.34,-92 1056.34,-92 1056.34,-73 936.34,-73"/>
<text text-anchor="middle" x="996.34" y="-80" font-family="Helvetica,sans-Serif" font-size="10.00">include/sprite_color.h</text>
</a>
</g>
</g>
<!-- Node1&#45;&gt;Node43 -->
<g id="edge62" class="edge">
<title>Node1&#45;&gt;Node43</title>
<path fill="none" stroke="midnightblue" d="M950.67,-181.18C962.42,-156.06 983.4,-111.19 992.24,-92.28"/>
<polygon fill="midnightblue" stroke="midnightblue" points="947.47,-179.78 946.4,-190.32 953.81,-182.74 947.47,-179.78"/>
</g>
<!-- Node2&#45;&gt;Node3 -->
<g id="edge2" class="edge">
<title>Node2&#45;&gt;Node3</title>
<path fill="none" stroke="midnightblue" d="M3197.95,-142.79C2897.4,-141.47 1364.36,-133.08 894.34,-98 876.32,-96.65 856.74,-94.37 839.12,-92.01"/>
<polygon fill="midnightblue" stroke="midnightblue" points="3198.1,-146.29 3208.12,-142.84 3198.14,-139.29 3198.1,-146.29"/>
</g>
<!-- Node2&#45;&gt;Node4 -->
<g id="edge7" class="edge">
<title>Node2&#45;&gt;Node4</title>
<path fill="none" stroke="midnightblue" d="M3197.94,-143.13C2877.17,-143.81 1156.37,-145.22 927.34,-98 891.61,-90.63 886.54,-76.58 851.34,-67 743.87,-37.75 712.26,-54.28 603.34,-31 595.6,-29.35 587.3,-27.17 579.7,-25"/>
<polygon fill="midnightblue" stroke="midnightblue" points="3198.33,-146.63 3208.33,-143.11 3198.32,-139.63 3198.33,-146.63"/>
</g>
<!-- Node8 -->
<g id="node8" class="node">
<title>Node8</title>
<g id="a_node8"><a xlink:href="vdp_8c.html" target="_top" xlink:title=" ">
<polygon fill="none" stroke="black" points="5375.34,-73 5375.34,-92 5435.34,-92 5435.34,-73 5375.34,-73"/>
<text text-anchor="middle" x="5405.34" y="-80" font-family="Helvetica,sans-Serif" font-size="10.00">src/vdp.c</text>
</a>
</g>
</g>
<!-- Node2&#45;&gt;Node8 -->
<g id="edge8" class="edge">
<title>Node2&#45;&gt;Node8</title>
<path fill="none" stroke="midnightblue" d="M3300.93,-142.93C3605.08,-142.4 5158.02,-137.76 5366.34,-98 5373.01,-96.73 5380.04,-94.43 5386.27,-92.04"/>
<polygon fill="midnightblue" stroke="midnightblue" points="3300.64,-139.43 3290.64,-142.95 3300.65,-146.43 3300.64,-139.43"/>
</g>
<!-- Node9 -->
<g id="node9" class="node">
<title>Node9</title>
<g id="a_node9"><a xlink:href="vdp__cmd__execute__HMMM_8c.html" target="_top" xlink:title=" ">
<polygon fill="none" stroke="black" points="5453.34,-67.5 5453.34,-97.5 5575.34,-97.5 5575.34,-67.5 5453.34,-67.5"/>
<text text-anchor="start" x="5461.34" y="-85.5" font-family="Helvetica,sans-Serif" font-size="10.00">src/vdp_cmd_execute</text>
<text text-anchor="middle" x="5514.34" y="-74.5" font-family="Helvetica,sans-Serif" font-size="10.00">_HMMM.c</text>
</a>
</g>
</g>
<!-- Node2&#45;&gt;Node9 -->
<g id="edge9" class="edge">
<title>Node2&#45;&gt;Node9</title>
<path fill="none" stroke="midnightblue" d="M3300.92,-143.23C3589.8,-144.32 5009.65,-147.06 5444.34,-98 5447.18,-97.68 5450.07,-97.3 5452.98,-96.87"/>
<polygon fill="midnightblue" stroke="midnightblue" points="3300.74,-139.73 3290.73,-143.19 3300.72,-146.73 3300.74,-139.73"/>
</g>
<!-- Node10 -->
<g id="node10" class="node">
<title>Node10</title>
<g id="a_node10"><a xlink:href="vdp__cmd__execute__HMMV_8c.html" target="_top" xlink:title=" ">
<polygon fill="none" stroke="black" points="1074.34,-67.5 1074.34,-97.5 1196.34,-97.5 1196.34,-67.5 1074.34,-67.5"/>
<text text-anchor="start" x="1082.34" y="-85.5" font-family="Helvetica,sans-Serif" font-size="10.00">src/vdp_cmd_execute</text>
<text text-anchor="middle" x="1135.34" y="-74.5" font-family="Helvetica,sans-Serif" font-size="10.00">_HMMV.c</text>
</a>
</g>
</g>
<!-- Node2&#45;&gt;Node10 -->
<g id="edge10" class="edge">
<title>Node2&#45;&gt;Node10</title>
<path fill="none" stroke="midnightblue" d="M3197.82,-143.14C2921.06,-143.69 1608.38,-143.79 1205.34,-98 1202.51,-97.68 1199.61,-97.3 1196.7,-96.87"/>
<polygon fill="midnightblue" stroke="midnightblue" points="3197.99,-146.64 3207.98,-143.12 3197.97,-139.64 3197.99,-146.64"/>
</g>
<!-- Node11 -->
<g id="node11" class="node">
<title>Node11</title>
<g id="a_node11"><a xlink:href="vdp__cmd__execute__LMMM_8c.html" target="_top" xlink:title=" ">
<polygon fill="none" stroke="black" points="1214.34,-67.5 1214.34,-97.5 1336.34,-97.5 1336.34,-67.5 1214.34,-67.5"/>
<text text-anchor="start" x="1222.34" y="-85.5" font-family="Helvetica,sans-Serif" font-size="10.00">src/vdp_cmd_execute</text>
<text text-anchor="middle" x="1275.34" y="-74.5" font-family="Helvetica,sans-Serif" font-size="10.00">_LMMM.c</text>
</a>
</g>
</g>
<!-- Node2&#45;&gt;Node11 -->
<g id="edge11" class="edge">
<title>Node2&#45;&gt;Node11</title>
<path fill="none" stroke="midnightblue" d="M3197.99,-143.04C2933.1,-143.06 1719.15,-140.78 1345.34,-98 1342.51,-97.68 1339.61,-97.29 1336.7,-96.86"/>
<polygon fill="midnightblue" stroke="midnightblue" points="3198.1,-146.54 3208.09,-143.04 3198.09,-139.54 3198.1,-146.54"/>
</g>
<!-- Node12 -->
<g id="node12" class="node">
<title>Node12</title>
<g id="a_node12"><a xlink:href="vdp__cmd__execute__LMMV_8c.html" target="_top" xlink:title=" ">
<polygon fill="none" stroke="black" points="1354.34,-67.5 1354.34,-97.5 1476.34,-97.5 1476.34,-67.5 1354.34,-67.5"/>
<text text-anchor="start" x="1362.34" y="-85.5" font-family="Helvetica,sans-Serif" font-size="10.00">src/vdp_cmd_execute</text>
<text text-anchor="middle" x="1415.34" y="-74.5" font-family="Helvetica,sans-Serif" font-size="10.00">_LMMV.c</text>
</a>
</g>
</g>
<!-- Node2&#45;&gt;Node12 -->
<g id="edge12" class="edge">
<title>Node2&#45;&gt;Node12</title>
<path fill="none" stroke="midnightblue" d="M3198.15,-142.93C2945.51,-142.39 1829.97,-137.77 1485.34,-98 1482.51,-97.67 1479.61,-97.29 1476.7,-96.86"/>
<polygon fill="midnightblue" stroke="midnightblue" points="3198.15,-146.43 3208.15,-142.95 3198.16,-139.43 3198.15,-146.43"/>
</g>
<!-- Node13 -->
<g id="node13" class="node">
<title>Node13</title>
<g id="a_node13"><a xlink:href="vdp__cmd__set__unrestricted_8c.html" target="_top" xlink:title=" ">
<polygon fill="none" stroke="black" points="1494.34,-73 1494.34,-92 1664.34,-92 1664.34,-73 1494.34,-73"/>
<text text-anchor="middle" x="1579.34" y="-80" font-family="Helvetica,sans-Serif" font-size="10.00">src/vdp_cmd_set_unrestricted.c</text>
</a>
</g>
</g>
<!-- Node2&#45;&gt;Node13 -->
<g id="edge13" class="edge">
<title>Node2&#45;&gt;Node13</title>
<path fill="none" stroke="midnightblue" d="M3198.03,-142.4C2962.06,-139.48 1979.55,-125.88 1673.34,-98 1658.21,-96.62 1641.82,-94.36 1627.02,-92.03"/>
<polygon fill="midnightblue" stroke="midnightblue" points="3198.02,-145.9 3208.06,-142.52 3198.1,-138.9 3198.02,-145.9"/>
</g>
<!-- Node14 -->
<g id="node14" class="node">
<title>Node14</title>
<g id="a_node14"><a xlink:href="vdp__get__sprite__mode_8c.html" target="_top" xlink:title=" ">
<polygon fill="none" stroke="black" points="1682.34,-67.5 1682.34,-97.5 1788.34,-97.5 1788.34,-67.5 1682.34,-67.5"/>
<text text-anchor="start" x="1690.34" y="-85.5" font-family="Helvetica,sans-Serif" font-size="10.00">src/vdp_get_sprite</text>
<text text-anchor="middle" x="1735.34" y="-74.5" font-family="Helvetica,sans-Serif" font-size="10.00">_mode.c</text>
</a>
</g>
</g>
<!-- Node2&#45;&gt;Node14 -->
<g id="edge14" class="edge">
<title>Node2&#45;&gt;Node14</title>
<path fill="none" stroke="midnightblue" d="M3198.08,-142.78C2973.66,-141.59 2076.58,-134.61 1797.34,-98 1794.49,-97.63 1791.58,-97.18 1788.65,-96.68"/>
<polygon fill="midnightblue" stroke="midnightblue" points="3198.23,-146.28 3208.25,-142.83 3198.27,-139.28 3198.23,-146.28"/>
</g>
<!-- Node15 -->
<g id="node15" class="node">
<title>Node15</title>
<g id="a_node15"><a xlink:href="vdp__get__status_8c.html" target="_top" xlink:title=" ">
<polygon fill="none" stroke="black" points="1806.34,-73 1806.34,-92 1922.34,-92 1922.34,-73 1806.34,-73"/>
<text text-anchor="middle" x="1864.34" y="-80" font-family="Helvetica,sans-Serif" font-size="10.00">src/vdp_get_status.c</text>
</a>
</g>
</g>
<!-- Node2&#45;&gt;Node15 -->
<g id="edge15" class="edge">
<title>Node2&#45;&gt;Node15</title>
<path fill="none" stroke="midnightblue" d="M3198.07,-142.48C2986.83,-140.13 2183.12,-129.29 1931.34,-98 1920.48,-96.65 1908.77,-94.4 1898.22,-92.07"/>
<polygon fill="midnightblue" stroke="midnightblue" points="3198.22,-145.98 3208.26,-142.59 3198.3,-138.98 3198.22,-145.98"/>
</g>
<!-- Node16 -->
<g id="node16" class="node">
<title>Node16</title>
<g id="a_node16"><a xlink:href="vdp__set__adjust_8c.html" target="_top" xlink:title=" ">
<polygon fill="none" stroke="black" points="1940.34,-73 1940.34,-92 2056.34,-92 2056.34,-73 1940.34,-73"/>
<text text-anchor="middle" x="1998.34" y="-80" font-family="Helvetica,sans-Serif" font-size="10.00">src/vdp_set_adjust.c</text>
</a>
</g>
</g>
<!-- Node2&#45;&gt;Node16 -->
<g id="edge16" class="edge">
<title>Node2&#45;&gt;Node16</title>
<path fill="none" stroke="midnightblue" d="M3198.23,-142.23C3001.13,-139.07 2290.38,-125.94 2066.34,-98 2055.32,-96.63 2043.44,-94.37 2032.74,-92.04"/>
<polygon fill="midnightblue" stroke="midnightblue" points="3198.25,-145.73 3208.31,-142.39 3198.36,-138.73 3198.25,-145.73"/>
</g>
<!-- Node17 -->
<g id="node17" class="node">
<title>Node17</title>
<g id="a_node17"><a xlink:href="vdp__set__color_8c.html" target="_top" xlink:title=" ">
<polygon fill="none" stroke="black" points="2074.84,-73 2074.84,-92 2183.84,-92 2183.84,-73 2074.84,-73"/>
<text text-anchor="middle" x="2129.34" y="-80" font-family="Helvetica,sans-Serif" font-size="10.00">src/vdp_set_color.c</text>
</a>
</g>
</g>
<!-- Node2&#45;&gt;Node17 -->
<g id="edge17" class="edge">
<title>Node2&#45;&gt;Node17</title>
<path fill="none" stroke="midnightblue" d="M3198.05,-142.04C3014.55,-138.41 2391.06,-124.39 2193.34,-98 2182.95,-96.61 2171.76,-94.35 2161.69,-92.02"/>
<polygon fill="midnightblue" stroke="midnightblue" points="3198.17,-145.54 3208.24,-142.24 3198.31,-138.54 3198.17,-145.54"/>
</g>
<!-- Node18 -->
<g id="node18" class="node">
<title>Node18</title>
<g id="a_node18"><a xlink:href="vdp__set__color__table_8c.html" target="_top" xlink:title=" ">
<polygon fill="none" stroke="black" points="2202.34,-73 2202.34,-92 2342.34,-92 2342.34,-73 2202.34,-73"/>
<text text-anchor="middle" x="2272.34" y="-80" font-family="Helvetica,sans-Serif" font-size="10.00">src/vdp_set_color_table.c</text>
</a>
</g>
</g>
<!-- Node2&#45;&gt;Node18 -->
<g id="edge18" class="edge">
<title>Node2&#45;&gt;Node18</title>
<path fill="none" stroke="midnightblue" d="M3197.81,-142.74C3060.13,-141.54 2672.39,-134.88 2352.34,-98 2339.72,-96.55 2326.09,-94.32 2313.71,-92.05"/>
<polygon fill="midnightblue" stroke="midnightblue" points="3198.03,-146.24 3208.06,-142.82 3198.09,-139.24 3198.03,-146.24"/>
</g>
<!-- Node19 -->
<g id="node19" class="node">
<title>Node19</title>
<g id="a_node19"><a xlink:href="vdp__set__control_8c.html" target="_top" xlink:title=" ">
<polygon fill="none" stroke="black" points="2360.84,-73 2360.84,-92 2479.84,-92 2479.84,-73 2360.84,-73"/>
<text text-anchor="middle" x="2420.34" y="-80" font-family="Helvetica,sans-Serif" font-size="10.00">src/vdp_set_control.c</text>
</a>
</g>
</g>
<!-- Node2&#45;&gt;Node19 -->
<g id="edge19" class="edge">
<title>Node2&#45;&gt;Node19</title>
<path fill="none" stroke="midnightblue" d="M3197.68,-142.57C3074.52,-140.98 2754.12,-133.46 2489.34,-98 2478.42,-96.54 2466.65,-94.31 2455.98,-92.04"/>
<polygon fill="midnightblue" stroke="midnightblue" points="3197.9,-146.07 3207.94,-142.7 3197.99,-139.07 3197.9,-146.07"/>
</g>
<!-- Node20 -->
<g id="node20" class="node">
<title>Node20</title>
<g id="a_node20"><a xlink:href="vdp__set__hscroll_8c.html" target="_top" xlink:title=" ">
<polygon fill="none" stroke="black" points="2498.34,-73 2498.34,-92 2616.34,-92 2616.34,-73 2498.34,-73"/>
<text text-anchor="middle" x="2557.34" y="-80" font-family="Helvetica,sans-Serif" font-size="10.00">src/vdp_set_hscroll.c</text>
</a>
</g>
</g>
<!-- Node2&#45;&gt;Node20 -->
<g id="edge20" class="edge">
<title>Node2&#45;&gt;Node20</title>
<path fill="none" stroke="midnightblue" d="M3198.06,-141.7C3091.1,-138.45 2836.6,-128 2625.34,-98 2614.71,-96.49 2603.25,-94.28 2592.82,-92.03"/>
<polygon fill="midnightblue" stroke="midnightblue" points="3198.15,-145.2 3208.25,-142 3198.36,-138.2 3198.15,-145.2"/>
</g>
<!-- Node21 -->
<g id="node21" class="node">
<title>Node21</title>
<g id="a_node21"><a xlink:href="vdp__set__hscroll__dual__page_8c.html" target="_top" xlink:title=" ">
<polygon fill="none" stroke="black" points="2634.34,-67.5 2634.34,-97.5 2744.34,-97.5 2744.34,-67.5 2634.34,-67.5"/>
<text text-anchor="start" x="2642.34" y="-85.5" font-family="Helvetica,sans-Serif" font-size="10.00">src/vdp_set_hscroll</text>
<text text-anchor="middle" x="2689.34" y="-74.5" font-family="Helvetica,sans-Serif" font-size="10.00">_dual_page.c</text>
</a>
</g>
</g>
<!-- Node2&#45;&gt;Node21 -->
<g id="edge21" class="edge">
<title>Node2&#45;&gt;Node21</title>
<path fill="none" stroke="midnightblue" d="M3198.05,-140.59C3107.72,-135.84 2914.57,-123.46 2753.34,-98 2750.42,-97.54 2747.42,-97.02 2744.41,-96.46"/>
<polygon fill="midnightblue" stroke="midnightblue" points="3198.12,-144.1 3208.29,-141.12 3198.48,-137.11 3198.12,-144.1"/>
</g>
<!-- Node22 -->
<g id="node22" class="node">
<title>Node22</title>
<g id="a_node22"><a xlink:href="vdp__set__hscroll__mask_8c.html" target="_top" xlink:title=" ">
<polygon fill="none" stroke="black" points="2762.34,-67.5 2762.34,-97.5 2872.34,-97.5 2872.34,-67.5 2762.34,-67.5"/>
<text text-anchor="start" x="2770.34" y="-85.5" font-family="Helvetica,sans-Serif" font-size="10.00">src/vdp_set_hscroll</text>
<text text-anchor="middle" x="2817.34" y="-74.5" font-family="Helvetica,sans-Serif" font-size="10.00">_mask.c</text>
</a>
</g>
</g>
<!-- Node2&#45;&gt;Node22 -->
<g id="edge22" class="edge">
<title>Node2&#45;&gt;Node22</title>
<path fill="none" stroke="midnightblue" d="M3198.24,-138.4C3126.96,-131.61 2993.76,-117.56 2881.34,-98 2878.42,-97.49 2875.44,-96.94 2872.43,-96.35"/>
<polygon fill="midnightblue" stroke="midnightblue" points="3198.02,-141.89 3208.3,-139.35 3198.67,-134.92 3198.02,-141.89"/>
</g>
<!-- Node23 -->
<g id="node23" class="node">
<title>Node23</title>
<g id="a_node23"><a xlink:href="vdp__set__image__table_8c.html" target="_top" xlink:title=" ">
<polygon fill="none" stroke="black" points="2890.34,-73 2890.34,-92 3036.34,-92 3036.34,-73 2890.34,-73"/>
<text text-anchor="middle" x="2963.34" y="-80" font-family="Helvetica,sans-Serif" font-size="10.00">src/vdp_set_image_table.c</text>
</a>
</g>
</g>
<!-- Node2&#45;&gt;Node23 -->
<g id="edge23" class="edge">
<title>Node2&#45;&gt;Node23</title>
<path fill="none" stroke="midnightblue" d="M3198.4,-132.4C3142.95,-120.87 3055.39,-102.65 3004.24,-92.01"/>
<polygon fill="midnightblue" stroke="midnightblue" points="3197.86,-135.86 3208.36,-134.48 3199.29,-129.01 3197.86,-135.86"/>
</g>
<!-- Node24 -->
<g id="node24" class="node">
<title>Node24</title>
<g id="a_node24"><a xlink:href="vdp__set__palette_8c.html" target="_top" xlink:title=" ">
<polygon fill="none" stroke="black" points="3054.34,-73 3054.34,-92 3174.34,-92 3174.34,-73 3054.34,-73"/>
<text text-anchor="middle" x="3114.34" y="-80" font-family="Helvetica,sans-Serif" font-size="10.00">src/vdp_set_palette.c</text>
</a>
</g>
</g>
<!-- Node2&#45;&gt;Node24 -->
<g id="edge24" class="edge">
<title>Node2&#45;&gt;Node24</title>
<path fill="none" stroke="midnightblue" d="M3220.59,-130.33C3194.38,-118.78 3156.39,-102.03 3133.65,-92.01"/>
<polygon fill="midnightblue" stroke="midnightblue" points="3219.44,-133.64 3230,-134.48 3222.26,-127.24 3219.44,-133.64"/>
</g>
<!-- Node25 -->
<g id="node25" class="node">
<title>Node25</title>
<g id="a_node25"><a xlink:href="vdp__set__pattern__table_8c.html" target="_top" xlink:title=" ">
<polygon fill="none" stroke="black" points="3192.84,-67.5 3192.84,-97.5 3305.84,-97.5 3305.84,-67.5 3192.84,-67.5"/>
<text text-anchor="start" x="3200.84" y="-85.5" font-family="Helvetica,sans-Serif" font-size="10.00">src/vdp_set_pattern</text>
<text text-anchor="middle" x="3249.34" y="-74.5" font-family="Helvetica,sans-Serif" font-size="10.00">_table.c</text>
</a>
</g>
</g>
<!-- Node2&#45;&gt;Node25 -->
<g id="edge25" class="edge">
<title>Node2&#45;&gt;Node25</title>
<path fill="none" stroke="midnightblue" d="M3249.34,-124.23C3249.34,-115.59 3249.34,-105.5 3249.34,-97.52"/>
<polygon fill="midnightblue" stroke="midnightblue" points="3245.84,-124.48 3249.34,-134.48 3252.84,-124.48 3245.84,-124.48"/>
</g>
<!-- Node26 -->
<g id="node26" class="node">
<title>Node26</title>
<g id="a_node26"><a xlink:href="vdp__set__screen__lines_8c.html" target="_top" xlink:title=" ">
<polygon fill="none" stroke="black" points="3324.34,-67.5 3324.34,-97.5 3434.34,-97.5 3434.34,-67.5 3324.34,-67.5"/>
<text text-anchor="start" x="3332.34" y="-85.5" font-family="Helvetica,sans-Serif" font-size="10.00">src/vdp_set_screen</text>
<text text-anchor="middle" x="3379.34" y="-74.5" font-family="Helvetica,sans-Serif" font-size="10.00">_lines.c</text>
</a>
</g>
</g>
<!-- Node2&#45;&gt;Node26 -->
<g id="edge26" class="edge">
<title>Node2&#45;&gt;Node26</title>
<path fill="none" stroke="midnightblue" d="M3277.31,-130.2C3298.32,-120.58 3327.07,-107.42 3348.7,-97.52"/>
<polygon fill="midnightblue" stroke="midnightblue" points="3275.6,-127.13 3267.97,-134.48 3278.52,-133.5 3275.6,-127.13"/>
</g>
<!-- Node27 -->
<g id="node27" class="node">
<title>Node27</title>
<g id="a_node27"><a xlink:href="vdp__set__screen__mode_8c.html" target="_top" xlink:title=" ">
<polygon fill="none" stroke="black" points="3452.34,-67.5 3452.34,-97.5 3562.34,-97.5 3562.34,-67.5 3452.34,-67.5"/>
<text text-anchor="start" x="3460.34" y="-85.5" font-family="Helvetica,sans-Serif" font-size="10.00">src/vdp_set_screen</text>
<text text-anchor="middle" x="3507.34" y="-74.5" font-family="Helvetica,sans-Serif" font-size="10.00">_mode.c</text>
</a>
</g>
</g>
<!-- Node2&#45;&gt;Node27 -->
<g id="edge27" class="edge">
<title>Node2&#45;&gt;Node27</title>
<path fill="none" stroke="midnightblue" d="M3296.13,-132.21C3339.97,-122.1 3405.5,-106.99 3451.93,-96.28"/>
<polygon fill="midnightblue" stroke="midnightblue" points="3295.26,-128.82 3286.31,-134.48 3296.84,-135.64 3295.26,-128.82"/>
</g>
<!-- Node28 -->
<g id="node28" class="node">
<title>Node28</title>
<g id="a_node28"><a xlink:href="vdp__set__sprite__attribute__table_8c.html" target="_top" xlink:title=" ">
<polygon fill="none" stroke="black" points="3580.84,-67.5 3580.84,-97.5 3685.84,-97.5 3685.84,-67.5 3580.84,-67.5"/>
<text text-anchor="start" x="3588.84" y="-85.5" font-family="Helvetica,sans-Serif" font-size="10.00">src/vdp_set_sprite</text>
<text text-anchor="middle" x="3633.34" y="-74.5" font-family="Helvetica,sans-Serif" font-size="10.00">_attribute_table.c</text>
</a>
</g>
</g>
<!-- Node2&#45;&gt;Node28 -->
<g id="edge28" class="edge">
<title>Node2&#45;&gt;Node28</title>
<path fill="none" stroke="midnightblue" d="M3300.64,-137.29C3364.37,-129.86 3476.33,-115.71 3571.34,-98 3574.38,-97.43 3577.5,-96.82 3580.65,-96.17"/>
<polygon fill="midnightblue" stroke="midnightblue" points="3299.98,-133.84 3290.45,-138.47 3300.79,-140.8 3299.98,-133.84"/>
</g>
<!-- Node29 -->
<g id="node29" class="node">
<title>Node29</title>
<g id="a_node29"><a xlink:href="vdp__set__sprite__pattern__table_8c.html" target="_top" xlink:title=" ">
<polygon fill="none" stroke="black" points="3703.84,-67.5 3703.84,-97.5 3808.84,-97.5 3808.84,-67.5 3703.84,-67.5"/>
<text text-anchor="start" x="3711.84" y="-85.5" font-family="Helvetica,sans-Serif" font-size="10.00">src/vdp_set_sprite</text>
<text text-anchor="middle" x="3756.34" y="-74.5" font-family="Helvetica,sans-Serif" font-size="10.00">_pattern_table.c</text>
</a>
</g>
</g>
<!-- Node2&#45;&gt;Node29 -->
<g id="edge29" class="edge">
<title>Node2&#45;&gt;Node29</title>
<path fill="none" stroke="midnightblue" d="M3300.68,-140.04C3383.96,-134.75 3553.49,-121.91 3695.34,-98 3698.03,-97.55 3700.77,-97.05 3703.53,-96.51"/>
<polygon fill="midnightblue" stroke="midnightblue" points="3300.24,-136.56 3290.48,-140.68 3300.68,-143.55 3300.24,-136.56"/>
</g>
<!-- Node30 -->
<g id="node30" class="node">
<title>Node30</title>
<g id="a_node30"><a xlink:href="vdp__set__sprite__size_8c.html" target="_top" xlink:title=" ">
<polygon fill="none" stroke="black" points="3826.84,-67.5 3826.84,-97.5 3931.84,-97.5 3931.84,-67.5 3826.84,-67.5"/>
<text text-anchor="start" x="3834.84" y="-85.5" font-family="Helvetica,sans-Serif" font-size="10.00">src/vdp_set_sprite</text>
<text text-anchor="middle" x="3879.34" y="-74.5" font-family="Helvetica,sans-Serif" font-size="10.00">_size.c</text>
</a>
</g>
</g>
<!-- Node2&#45;&gt;Node30 -->
<g id="edge30" class="edge">
<title>Node2&#45;&gt;Node30</title>
<path fill="none" stroke="midnightblue" d="M3300.8,-141.59C3400.99,-138.26 3629.02,-127.8 3818.34,-98 3821.03,-97.58 3823.77,-97.1 3826.54,-96.58"/>
<polygon fill="midnightblue" stroke="midnightblue" points="3300.54,-138.1 3290.65,-141.92 3300.76,-145.09 3300.54,-138.1"/>
</g>
<!-- Node31 -->
<g id="node31" class="node">
<title>Node31</title>
<g id="a_node31"><a xlink:href="vdp__set__sprite__visible_8c.html" target="_top" xlink:title=" ">
<polygon fill="none" stroke="black" points="3988.84,-67.5 3988.84,-97.5 4093.84,-97.5 4093.84,-67.5 3988.84,-67.5"/>
<text text-anchor="start" x="3996.84" y="-85.5" font-family="Helvetica,sans-Serif" font-size="10.00">src/vdp_set_sprite</text>
<text text-anchor="middle" x="4041.34" y="-74.5" font-family="Helvetica,sans-Serif" font-size="10.00">_visible.c</text>
</a>
</g>
</g>
<!-- Node2&#45;&gt;Node31 -->
<g id="edge31" class="edge">
<title>Node2&#45;&gt;Node31</title>
<path fill="none" stroke="midnightblue" d="M3300.7,-142.47C3419.71,-140.67 3723.33,-132.75 3974.34,-98 3979.06,-97.35 3983.93,-96.54 3988.81,-95.65"/>
<polygon fill="midnightblue" stroke="midnightblue" points="3300.39,-138.98 3290.44,-142.62 3300.49,-145.98 3300.39,-138.98"/>
</g>
<!-- Node32 -->
<g id="node32" class="node">
<title>Node32</title>
<g id="a_node32"><a xlink:href="vdp__set__visible_8c.html" target="_top" xlink:title=" ">
<polygon fill="none" stroke="black" points="4112.34,-73 4112.34,-92 4230.34,-92 4230.34,-73 4112.34,-73"/>
<text text-anchor="middle" x="4171.34" y="-80" font-family="Helvetica,sans-Serif" font-size="10.00">src/vdp_set_visible.c</text>
</a>
</g>
</g>
<!-- Node2&#45;&gt;Node32 -->
<g id="edge32" class="edge">
<title>Node2&#45;&gt;Node32</title>
<path fill="none" stroke="midnightblue" d="M3300.74,-143.1C3433.93,-142.76 3800.96,-137.95 4103.34,-98 4114.23,-96.56 4125.97,-94.31 4136.58,-92.01"/>
<polygon fill="midnightblue" stroke="midnightblue" points="3300.43,-139.6 3290.44,-143.12 3300.45,-146.6 3300.43,-139.6"/>
</g>
<!-- Node33 -->
<g id="node33" class="node">
<title>Node33</title>
<g id="a_node33"><a xlink:href="vdp__set__vscroll_8c.html" target="_top" xlink:title=" ">
<polygon fill="none" stroke="black" points="4248.34,-73 4248.34,-92 4366.34,-92 4366.34,-73 4248.34,-73"/>
<text text-anchor="middle" x="4307.34" y="-80" font-family="Helvetica,sans-Serif" font-size="10.00">src/vdp_set_vscroll.c</text>
</a>
</g>
</g>
<!-- Node2&#45;&gt;Node33 -->
<g id="edge33" class="edge">
<title>Node2&#45;&gt;Node33</title>
<path fill="none" stroke="midnightblue" d="M3300.65,-143.64C3447.58,-144.82 3882.29,-143.86 4239.34,-98 4250.24,-96.6 4261.98,-94.36 4272.59,-92.06"/>
<polygon fill="midnightblue" stroke="midnightblue" points="3300.6,-140.14 3290.57,-143.55 3300.54,-147.13 3300.6,-140.14"/>
</g>
<!-- Node34 -->
<g id="node34" class="node">
<title>Node34</title>
<g id="a_node34"><a xlink:href="vdp__write__control_8c.html" target="_top" xlink:title=" ">
<polygon fill="none" stroke="black" points="4384.84,-73 4384.84,-92 4513.84,-92 4513.84,-73 4384.84,-73"/>
<text text-anchor="middle" x="4449.34" y="-80" font-family="Helvetica,sans-Serif" font-size="10.00">src/vdp_write_control.c</text>
</a>
</g>
</g>
<!-- Node2&#45;&gt;Node34 -->
<g id="edge34" class="edge">
<title>Node2&#45;&gt;Node34</title>
<path fill="none" stroke="midnightblue" d="M3300.49,-142C3491.49,-138.11 4162.84,-122.92 4375.34,-98 4387.3,-96.6 4400.23,-94.33 4411.87,-92"/>
<polygon fill="midnightblue" stroke="midnightblue" points="3300.37,-138.5 3290.44,-142.2 3300.51,-145.5 3300.37,-138.5"/>
</g>
<!-- Node35 -->
<g id="node35" class="node">
<title>Node35</title>
<g id="a_node35"><a xlink:href="vdp__write__palette_8c.html" target="_top" xlink:title=" ">
<polygon fill="none" stroke="black" points="4532.34,-73 4532.34,-92 4662.34,-92 4662.34,-73 4532.34,-73"/>
<text text-anchor="middle" x="4597.34" y="-80" font-family="Helvetica,sans-Serif" font-size="10.00">src/vdp_write_palette.c</text>
</a>
</g>
</g>
<!-- Node2&#45;&gt;Node35 -->
<g id="edge35" class="edge">
<title>Node2&#45;&gt;Node35</title>
<path fill="none" stroke="midnightblue" d="M3300.9,-142.27C3508.09,-139.16 4280.48,-125.91 4523.34,-98 4535.31,-96.63 4548.23,-94.37 4559.88,-92.04"/>
<polygon fill="midnightblue" stroke="midnightblue" points="3300.56,-138.77 3290.61,-142.42 3300.66,-145.77 3300.56,-138.77"/>
</g>
<!-- Node36 -->
<g id="node36" class="node">
<title>Node36</title>
<g id="a_node36"><a xlink:href="vmem__memset_8c.html" target="_top" xlink:title=" ">
<polygon fill="none" stroke="black" points="4680.84,-73 4680.84,-92 4799.84,-92 4799.84,-73 4680.84,-73"/>
<text text-anchor="middle" x="4740.34" y="-80" font-family="Helvetica,sans-Serif" font-size="10.00">src/vmem_memset.c</text>
</a>
</g>
</g>
<!-- Node2&#45;&gt;Node36 -->
<g id="edge36" class="edge">
<title>Node2&#45;&gt;Node36</title>
<path fill="none" stroke="midnightblue" d="M3300.62,-142.58C3522.13,-140.6 4397.95,-130.79 4671.34,-98 4682.64,-96.64 4694.84,-94.36 4705.79,-92"/>
<polygon fill="midnightblue" stroke="midnightblue" points="3300.54,-139.08 3290.57,-142.67 3300.6,-146.08 3300.54,-139.08"/>
</g>
<!-- Node37 -->
<g id="node37" class="node">
<title>Node37</title>
<g id="a_node37"><a xlink:href="vmem__read_8c.html" target="_top" xlink:title=" ">
<polygon fill="none" stroke="black" points="4817.84,-73 4817.84,-92 4918.84,-92 4918.84,-73 4817.84,-73"/>
<text text-anchor="middle" x="4868.34" y="-80" font-family="Helvetica,sans-Serif" font-size="10.00">src/vmem_read.c</text>
</a>
</g>
</g>
<!-- Node2&#45;&gt;Node37 -->
<g id="edge37" class="edge">
<title>Node2&#45;&gt;Node37</title>
<path fill="none" stroke="midnightblue" d="M3300.93,-142.98C3536.11,-142.67 4508.07,-138.89 4809.34,-98 4819.06,-96.68 4829.51,-94.41 4838.87,-92.04"/>
<polygon fill="midnightblue" stroke="midnightblue" points="3300.61,-139.48 3290.61,-142.99 3300.62,-146.48 3300.61,-139.48"/>
</g>
<!-- Node38 -->
<g id="node38" class="node">
<title>Node38</title>
<g id="a_node38"><a xlink:href="vmem__set__read__address_8c.html" target="_top" xlink:title=" ">
<polygon fill="none" stroke="black" points="4937.34,-73 4937.34,-92 5101.34,-92 5101.34,-73 4937.34,-73"/>
<text text-anchor="middle" x="5019.34" y="-80" font-family="Helvetica,sans-Serif" font-size="10.00">src/vmem_set_read_address.c</text>
</a>
</g>
</g>
<!-- Node2&#45;&gt;Node38 -->
<g id="edge38" class="edge">
<title>Node2&#45;&gt;Node38</title>
<path fill="none" stroke="midnightblue" d="M3300.78,-142.53C3546.32,-140.16 4600.77,-128.36 4928.34,-98 4943,-96.64 4958.87,-94.39 4973.2,-92.06"/>
<polygon fill="midnightblue" stroke="midnightblue" points="3300.67,-139.03 3290.71,-142.63 3300.74,-146.03 3300.67,-139.03"/>
</g>
<!-- Node2&#45;&gt;Node39 -->
<g id="edge39" class="edge">
<title>Node2&#45;&gt;Node39</title>
<path fill="none" stroke="midnightblue" d="M3300.63,-143.13C3452.58,-143.03 3892.82,-139.15 3941.34,-98 3960.84,-81.46 3962.51,-49.14 3961.65,-30.56"/>
<polygon fill="midnightblue" stroke="midnightblue" points="3300.62,-139.63 3290.62,-143.13 3300.62,-146.63 3300.62,-139.63"/>
</g>
<!-- Node40 -->
<g id="node40" class="node">
<title>Node40</title>
<g id="a_node40"><a xlink:href="vmem__set__write__address_8c.html" target="_top" xlink:title=" ">
<polygon fill="none" stroke="black" points="5119.34,-67.5 5119.34,-97.5 5235.34,-97.5 5235.34,-67.5 5119.34,-67.5"/>
<text text-anchor="start" x="5127.34" y="-85.5" font-family="Helvetica,sans-Serif" font-size="10.00">src/vmem_set_write</text>
<text text-anchor="middle" x="5177.34" y="-74.5" font-family="Helvetica,sans-Serif" font-size="10.00">_address.c</text>
</a>
</g>
</g>
<!-- Node2&#45;&gt;Node40 -->
<g id="edge40" class="edge">
<title>Node2&#45;&gt;Node40</title>
<path fill="none" stroke="midnightblue" d="M3300.77,-143.07C3562.22,-143.22 4745.74,-141.46 5110.34,-98 5113.18,-97.66 5116.07,-97.26 5118.99,-96.81"/>
<polygon fill="midnightblue" stroke="midnightblue" points="3300.44,-139.57 3290.44,-143.06 3300.43,-146.57 3300.44,-139.57"/>
</g>
<!-- Node41 -->
<g id="node41" class="node">
<title>Node41</title>
<g id="a_node41"><a xlink:href="vmem__write_8c.html" target="_top" xlink:title=" ">
<polygon fill="none" stroke="black" points="5253.34,-73 5253.34,-92 5357.34,-92 5357.34,-73 5253.34,-73"/>
<text text-anchor="middle" x="5305.34" y="-80" font-family="Helvetica,sans-Serif" font-size="10.00">src/vmem_write.c</text>
</a>
</g>
</g>
<!-- Node2&#45;&gt;Node41 -->
<g id="edge41" class="edge">
<title>Node2&#45;&gt;Node41</title>
<path fill="none" stroke="midnightblue" d="M3300.94,-143.31C3573.94,-144.71 4852.28,-148.44 5244.34,-98 5254.49,-96.69 5265.41,-94.39 5275.17,-92"/>
<polygon fill="midnightblue" stroke="midnightblue" points="3300.56,-139.81 3290.54,-143.25 3300.52,-146.81 3300.56,-139.81"/>
</g>
<!-- Node3&#45;&gt;Node4 -->
<g id="edge3" class="edge">
<title>Node3&#45;&gt;Node4</title>
<path fill="none" stroke="midnightblue" d="M742.98,-70.22C706.5,-60.01 651.31,-44.55 603.34,-31 596.52,-29.07 589.19,-26.99 582.27,-25.03"/>
<polygon fill="midnightblue" stroke="midnightblue" points="742.18,-73.63 752.76,-72.95 744.07,-66.89 742.18,-73.63"/>
</g>
<!-- Node5 -->
<g id="node5" class="node">
<title>Node5</title>
<g id="a_node5"><a xlink:href="vmem__set__metasprite__a_8c.html" target="_top" xlink:title=" ">
<polygon fill="none" stroke="black" points="118.34,-6 118.34,-25 282.34,-25 282.34,-6 118.34,-6"/>
<text text-anchor="middle" x="200.34" y="-13" font-family="Helvetica,sans-Serif" font-size="10.00">src/vmem_set_metasprite_a.c</text>
</a>
</g>
</g>
<!-- Node3&#45;&gt;Node5 -->
<g id="edge4" class="edge">
<title>Node3&#45;&gt;Node5</title>
<path fill="none" stroke="midnightblue" d="M714.7,-71.9C701.95,-70.2 688.75,-68.5 676.34,-67 538.36,-50.33 377.5,-33.89 282.55,-24.49"/>
<polygon fill="midnightblue" stroke="midnightblue" points="714.42,-75.39 724.79,-73.25 715.35,-68.45 714.42,-75.39"/>
</g>
<!-- Node6 -->
<g id="node6" class="node">
<title>Node6</title>
<g id="a_node6"><a xlink:href="vmem__set__metasprite__m_8c.html" target="_top" xlink:title=" ">
<polygon fill="none" stroke="black" points="612.84,-6 612.84,-25 779.84,-25 779.84,-6 612.84,-6"/>
<text text-anchor="middle" x="696.34" y="-13" font-family="Helvetica,sans-Serif" font-size="10.00">src/vmem_set_metasprite_m.c</text>
</a>
</g>
</g>
<!-- Node3&#45;&gt;Node6 -->
<g id="edge5" class="edge">
<title>Node3&#45;&gt;Node6</title>
<path fill="none" stroke="midnightblue" d="M763.36,-66.57C746.18,-53.74 722.02,-35.69 707.89,-25.13"/>
<polygon fill="midnightblue" stroke="midnightblue" points="761.5,-69.55 771.61,-72.73 765.69,-63.94 761.5,-69.55"/>
</g>
<!-- Node7 -->
<g id="node7" class="node">
<title>Node7</title>
<g id="a_node7"><a xlink:href="vmem__set__metasprite__s_8c.html" target="_top" xlink:title=" ">
<polygon fill="none" stroke="black" points="797.84,-6 797.84,-25 960.84,-25 960.84,-6 797.84,-6"/>
<text text-anchor="middle" x="879.34" y="-13" font-family="Helvetica,sans-Serif" font-size="10.00">src/vmem_set_metasprite_s.c</text>
</a>
</g>
</g>
<!-- Node3&#45;&gt;Node7 -->
<g id="edge6" class="edge">
<title>Node3&#45;&gt;Node7</title>
<path fill="none" stroke="midnightblue" d="M804.62,-67.09C823.61,-54.24 850.79,-35.83 866.6,-25.13"/>
<polygon fill="midnightblue" stroke="midnightblue" points="802.61,-64.23 796.29,-72.73 806.53,-70.03 802.61,-64.23"/>
</g>
<!-- Node42&#45;&gt;Node3 -->
<g id="edge44" class="edge">
<title>Node42&#45;&gt;Node3</title>
<path fill="none" stroke="midnightblue" d="M588.36,-132.04C634.76,-120.49 706.86,-102.54 749.16,-92.01"/>
<polygon fill="midnightblue" stroke="midnightblue" points="587.44,-128.66 578.58,-134.48 589.13,-135.46 587.44,-128.66"/>
</g>
<!-- Node42&#45;&gt;Node4 -->
<g id="edge45" class="edge">
<title>Node42&#45;&gt;Node4</title>
<path fill="none" stroke="midnightblue" d="M488.07,-136.81C463.33,-130.97 436.51,-119.7 421.34,-98 413.45,-86.71 413.55,-78.36 421.34,-67 441.06,-38.26 479.63,-25.87 509.83,-20.53"/>
<polygon fill="midnightblue" stroke="midnightblue" points="487.63,-140.3 498.13,-138.93 489.07,-133.44 487.63,-140.3"/>
</g>
<!-- Node42&#45;&gt;Node5 -->
<g id="edge58" class="edge">
<title>Node42&#45;&gt;Node5</title>
<path fill="none" stroke="midnightblue" d="M487.86,-142.46C357.08,-140.63 42.18,-132.64 10.34,-98 -27.8,-56.51 52.31,-35.26 119.96,-25.03"/>
<polygon fill="midnightblue" stroke="midnightblue" points="488.02,-145.96 498.07,-142.6 488.12,-138.97 488.02,-145.96"/>
</g>
<!-- Node42&#45;&gt;Node6 -->
<g id="edge59" class="edge">
<title>Node42&#45;&gt;Node6</title>
<path fill="none" stroke="midnightblue" d="M600.4,-136.43C626.86,-130.52 656.84,-119.3 676.34,-98 695.23,-77.37 697.04,-41.84 696.76,-25.37"/>
<polygon fill="midnightblue" stroke="midnightblue" points="599.56,-133.02 590.46,-138.44 600.95,-139.89 599.56,-133.02"/>
</g>
<!-- Node42&#45;&gt;Node7 -->
<g id="edge60" class="edge">
<title>Node42&#45;&gt;Node7</title>
<path fill="none" stroke="midnightblue" d="M600.62,-141.6C678.62,-138.54 814.2,-128.82 851.34,-98 873.79,-79.37 878.29,-41.83 879.15,-25"/>
<polygon fill="midnightblue" stroke="midnightblue" points="600.34,-138.11 590.48,-141.98 600.6,-145.11 600.34,-138.11"/>
</g>
<!-- Node42&#45;&gt;Node43 -->
<g id="edge46" class="edge">
<title>Node42&#45;&gt;Node43</title>
<path fill="none" stroke="midnightblue" d="M600.64,-135.59C686.25,-124.32 848.46,-102.97 936.27,-91.41"/>
<polygon fill="midnightblue" stroke="midnightblue" points="600.05,-132.14 590.59,-136.91 600.96,-139.08 600.05,-132.14"/>
</g>
<!-- Node46 -->
<g id="node46" class="node">
<title>Node46</title>
<g id="a_node46"><a xlink:href="sprite__set__color_8c.html" target="_top" xlink:title=" ">
<polygon fill="none" stroke="black" points="548.84,-73 548.84,-92 667.84,-92 667.84,-73 548.84,-73"/>
<text text-anchor="middle" x="608.34" y="-80" font-family="Helvetica,sans-Serif" font-size="10.00">src/sprite_set_color.c</text>
</a>
</g>
</g>
<!-- Node42&#45;&gt;Node46 -->
<g id="edge53" class="edge">
<title>Node42&#45;&gt;Node46</title>
<path fill="none" stroke="midnightblue" d="M560.85,-127.65C573.05,-116.31 589.22,-101.28 599.19,-92.01"/>
<polygon fill="midnightblue" stroke="midnightblue" points="558.45,-125.1 553.51,-134.48 563.22,-130.23 558.45,-125.1"/>
</g>
<!-- Node47 -->
<g id="node47" class="node">
<title>Node47</title>
<g id="a_node47"><a xlink:href="sprite__set__pat_8c.html" target="_top" xlink:title=" ">
<polygon fill="none" stroke="black" points="19.84,-73 19.84,-92 130.84,-92 130.84,-73 19.84,-73"/>
<text text-anchor="middle" x="75.34" y="-80" font-family="Helvetica,sans-Serif" font-size="10.00">src/sprite_set_pat.c</text>
</a>
</g>
</g>
<!-- Node42&#45;&gt;Node47 -->
<g id="edge54" class="edge">
<title>Node42&#45;&gt;Node47</title>
<path fill="none" stroke="midnightblue" d="M488.1,-138.76C409.64,-132.38 263.03,-118.82 139.34,-98 129.68,-96.37 119.29,-94.2 109.74,-92.04"/>
<polygon fill="midnightblue" stroke="midnightblue" points="488,-142.26 498.25,-139.57 488.56,-135.28 488,-142.26"/>
</g>
<!-- Node48 -->
<g id="node48" class="node">
<title>Node48</title>
<g id="a_node48"><a xlink:href="sprite__set__x_8c.html" target="_top" xlink:title=" ">
<polygon fill="none" stroke="black" points="148.84,-73 148.84,-92 249.84,-92 249.84,-73 148.84,-73"/>
<text text-anchor="middle" x="199.34" y="-80" font-family="Helvetica,sans-Serif" font-size="10.00">src/sprite_set_x.c</text>
</a>
</g>
</g>
<!-- Node42&#45;&gt;Node48 -->
<g id="edge55" class="edge">
<title>Node42&#45;&gt;Node48</title>
<path fill="none" stroke="midnightblue" d="M488.23,-135.5C430.59,-127.48 338.35,-113.76 259.34,-98 250.62,-96.26 241.24,-94.12 232.56,-92.03"/>
<polygon fill="midnightblue" stroke="midnightblue" points="487.85,-138.98 498.23,-136.88 488.81,-132.05 487.85,-138.98"/>
</g>
<!-- Node49 -->
<g id="node49" class="node">
<title>Node49</title>
<g id="a_node49"><a xlink:href="sprite__set__xy_8c.html" target="_top" xlink:title=" ">
<polygon fill="none" stroke="black" points="268.34,-73 268.34,-92 374.34,-92 374.34,-73 268.34,-73"/>
<text text-anchor="middle" x="321.34" y="-80" font-family="Helvetica,sans-Serif" font-size="10.00">src/sprite_set_xy.c</text>
</a>
</g>
</g>
<!-- Node42&#45;&gt;Node49 -->
<g id="edge56" class="edge">
<title>Node42&#45;&gt;Node49</title>
<path fill="none" stroke="midnightblue" d="M502.72,-131.9C459.41,-120.34 392.53,-102.5 353.23,-92.01"/>
<polygon fill="midnightblue" stroke="midnightblue" points="501.83,-135.28 512.39,-134.48 503.63,-128.52 501.83,-135.28"/>
</g>
<!-- Node50 -->
<g id="node50" class="node">
<title>Node50</title>
<g id="a_node50"><a xlink:href="sprite__set__y_8c.html" target="_top" xlink:title=" ">
<polygon fill="none" stroke="black" points="430.34,-73 430.34,-92 530.34,-92 530.34,-73 430.34,-73"/>
<text text-anchor="middle" x="480.34" y="-80" font-family="Helvetica,sans-Serif" font-size="10.00">src/sprite_set_y.c</text>
</a>
</g>
</g>
<!-- Node42&#45;&gt;Node50 -->
<g id="edge57" class="edge">
<title>Node42&#45;&gt;Node50</title>
<path fill="none" stroke="midnightblue" d="M527.83,-127.65C515.63,-116.31 499.47,-101.28 489.49,-92.01"/>
<polygon fill="midnightblue" stroke="midnightblue" points="525.46,-130.23 535.17,-134.48 530.23,-125.1 525.46,-130.23"/>
</g>
<!-- Node43&#45;&gt;Node4 -->
<g id="edge47" class="edge">
<title>Node43&#45;&gt;Node4</title>
<path fill="none" stroke="midnightblue" d="M945.91,-71.05C938.04,-69.58 929.98,-68.18 922.34,-67 781.33,-45.26 743.32,-58.6 603.34,-31 595.39,-29.43 586.88,-27.23 579.14,-25.01"/>
<polygon fill="midnightblue" stroke="midnightblue" points="945.25,-74.49 955.73,-72.93 946.57,-67.61 945.25,-74.49"/>
</g>
<!-- Node43&#45;&gt;Node6 -->
<g id="edge48" class="edge">
<title>Node43&#45;&gt;Node6</title>
<path fill="none" stroke="midnightblue" d="M946.97,-70.8C887.93,-58.01 790.3,-36.86 735.96,-25.08"/>
<polygon fill="midnightblue" stroke="midnightblue" points="946.3,-74.24 956.81,-72.94 947.78,-67.4 946.3,-74.24"/>
</g>
<!-- Node43&#45;&gt;Node7 -->
<g id="edge49" class="edge">
<title>Node43&#45;&gt;Node7</title>
<path fill="none" stroke="midnightblue" d="M971.66,-67.79C948.47,-54.9 914.49,-36.02 894.87,-25.13"/>
<polygon fill="midnightblue" stroke="midnightblue" points="970.12,-70.94 980.56,-72.73 973.52,-64.82 970.12,-70.94"/>
</g>
<!-- Node43&#45;&gt;Node39 -->
<g id="edge52" class="edge">
<title>Node43&#45;&gt;Node39</title>
<path fill="none" stroke="midnightblue" d="M1040.37,-70.95C1048.63,-69.34 1057.21,-67.92 1065.34,-67 1356.07,-34.22 3512.32,-19.3 3900.55,-16.86"/>
<polygon fill="midnightblue" stroke="midnightblue" points="1039.62,-67.53 1030.53,-72.98 1041.03,-74.39 1039.62,-67.53"/>
</g>
<!-- Node44 -->
<g id="node44" class="node">
<title>Node44</title>
<g id="a_node44"><a xlink:href="vmem__set__sprite__color_8c.html" target="_top" xlink:title=" ">
<polygon fill="none" stroke="black" points="1115.84,-0.5 1115.84,-30.5 1234.84,-30.5 1234.84,-0.5 1115.84,-0.5"/>
<text text-anchor="start" x="1123.84" y="-18.5" font-family="Helvetica,sans-Serif" font-size="10.00">src/vmem_set_sprite</text>
<text text-anchor="middle" x="1175.34" y="-7.5" font-family="Helvetica,sans-Serif" font-size="10.00">_color.c</text>
</a>
</g>
</g>
<!-- Node43&#45;&gt;Node44 -->
<g id="edge50" class="edge">
<title>Node43&#45;&gt;Node44</title>
<path fill="none" stroke="midnightblue" d="M1029.81,-69.35C1060.15,-58.33 1104.86,-42.09 1136.71,-30.53"/>
<polygon fill="midnightblue" stroke="midnightblue" points="1028.32,-66.17 1020.11,-72.87 1030.71,-72.75 1028.32,-66.17"/>
</g>
<!-- Node45 -->
<g id="node45" class="node">
<title>Node45</title>
<g id="a_node45"><a xlink:href="vmem__set__sprite__color__m_8c.html" target="_top" xlink:title=" ">
<polygon fill="none" stroke="black" points="978.84,-0.5 978.84,-30.5 1097.84,-30.5 1097.84,-0.5 978.84,-0.5"/>
<text text-anchor="start" x="986.84" y="-18.5" font-family="Helvetica,sans-Serif" font-size="10.00">src/vmem_set_sprite</text>
<text text-anchor="middle" x="1038.34" y="-7.5" font-family="Helvetica,sans-Serif" font-size="10.00">_color_m.c</text>
</a>
</g>
</g>
<!-- Node43&#45;&gt;Node45 -->
<g id="edge51" class="edge">
<title>Node43&#45;&gt;Node45</title>
<path fill="none" stroke="midnightblue" d="M1007.63,-64.03C1014.4,-53.56 1022.9,-40.4 1029.24,-30.59"/>
<polygon fill="midnightblue" stroke="midnightblue" points="1004.49,-62.44 1002.01,-72.73 1010.37,-66.23 1004.49,-62.44"/>
</g>
</g>
</svg>
