<?xml version="1.0" encoding="UTF-8" standalone="no"?>
<!DOCTYPE svg PUBLIC "-//W3C//DTD SVG 1.1//EN"
 "http://www.w3.org/Graphics/SVG/1.1/DTD/svg11.dtd">
<!-- Generated by graphviz version 7.0.5 (20221223.1930)
 -->
<!-- Title: include/vmem.h Pages: 1 -->
<svg width="105pt" height="192pt"
 viewBox="0.00 0.00 104.50 192.00" xmlns="http://www.w3.org/2000/svg" xmlns:xlink="http://www.w3.org/1999/xlink">
<g id="graph0" class="graph" transform="scale(1 1) rotate(0) translate(4 188)">
<title>include/vmem.h</title>
<!-- Node1 -->
<g id="node1" class="node">
<title>Node1</title>
<g id="a_node1"><a xlink:title="Data types and functions for VRAM access.">
<polygon fill="#999999" stroke="#666666" points="85,-184 0,-184 0,-165 85,-165 85,-184"/>
<text text-anchor="middle" x="42.5" y="-172" font-family="Helvetica,sans-Serif" font-size="10.00">include/vmem.h</text>
</a>
</g>
</g>
<!-- Node2 -->
<g id="node2" class="node">
<title>Node2</title>
<g id="a_node2"><a xlink:title=" ">
<polygon fill="#e0e0e0" stroke="#999999" points="68.5,-19 20.5,-19 20.5,0 68.5,0 68.5,-19"/>
<text text-anchor="middle" x="44.5" y="-7" font-family="Helvetica,sans-Serif" font-size="10.00">stdint.h</text>
</a>
</g>
</g>
<!-- Node1&#45;&gt;Node2 -->
<g id="edge1" class="edge">
<title>Node1&#45;&gt;Node2</title>
<path fill="none" stroke="#63b8ff" d="M41.39,-164.57C39.1,-144.8 34.31,-95.85 37.5,-55 38.13,-46.91 39.4,-38.07 40.69,-30.41"/>
<polygon fill="#63b8ff" stroke="#63b8ff" points="44.09,-31.27 42.43,-20.81 37.2,-30.02 44.09,-31.27"/>
</g>
<!-- Node3 -->
<g id="node3" class="node">
<title>Node3</title>
<g id="a_node3"><a xlink:href="io_8h.html" target="_top" xlink:title="Definition of I/O ports.">
<polygon fill="white" stroke="#666666" points="82.5,-129 50.5,-129 50.5,-110 82.5,-110 82.5,-129"/>
<text text-anchor="middle" x="66.5" y="-117" font-family="Helvetica,sans-Serif" font-size="10.00">io.h</text>
</a>
</g>
</g>
<!-- Node1&#45;&gt;Node3 -->
<g id="edge2" class="edge">
<title>Node1&#45;&gt;Node3</title>
<path fill="none" stroke="#63b8ff" d="M46.46,-164.75C49.54,-157.96 53.91,-148.3 57.79,-139.73"/>
<polygon fill="#63b8ff" stroke="#63b8ff" points="60.89,-141.37 61.83,-130.82 54.51,-138.49 60.89,-141.37"/>
</g>
<!-- Node4 -->
<g id="node4" class="node">
<title>Node4</title>
<g id="a_node4"><a xlink:href="config_8h.html" target="_top" xlink:title="Hack for C Compiler portability.">
<polygon fill="white" stroke="#666666" points="96.5,-74 46.5,-74 46.5,-55 96.5,-55 96.5,-74"/>
<text text-anchor="middle" x="71.5" y="-62" font-family="Helvetica,sans-Serif" font-size="10.00">config.h</text>
</a>
</g>
</g>
<!-- Node3&#45;&gt;Node4 -->
<g id="edge3" class="edge">
<title>Node3&#45;&gt;Node4</title>
<path fill="none" stroke="#63b8ff" d="M67.33,-109.75C67.94,-103.27 68.8,-94.16 69.58,-85.9"/>
<polygon fill="#63b8ff" stroke="#63b8ff" points="73.06,-86.23 70.51,-75.95 66.09,-85.58 73.06,-86.23"/>
</g>
<!-- Node4&#45;&gt;Node2 -->
<g id="edge4" class="edge">
<title>Node4&#45;&gt;Node2</title>
<path fill="none" stroke="#63b8ff" d="M67.04,-54.75C63.55,-47.88 58.55,-38.08 54.15,-29.45"/>
<polygon fill="#63b8ff" stroke="#63b8ff" points="57.4,-28.11 49.74,-20.79 51.16,-31.29 57.4,-28.11"/>
</g>
</g>
</svg>
