<?xml version="1.0" encoding="UTF-8" standalone="no"?>
<!DOCTYPE svg PUBLIC "-//W3C//DTD SVG 1.1//EN"
 "http://www.w3.org/Graphics/SVG/1.1/DTD/svg11.dtd">
<!-- Generated by graphviz version 7.0.5 (20221223.1930)
 -->
<!-- Title: include/vmem.h Pages: 1 -->
<svg width="472pt" height="247pt"
 viewBox="0.00 0.00 471.50 247.00" xmlns="http://www.w3.org/2000/svg" xmlns:xlink="http://www.w3.org/1999/xlink">
<g id="graph0" class="graph" transform="scale(1 1) rotate(0) translate(4 243)">
<title>include/vmem.h</title>
<!-- Node1 -->
<g id="node1" class="node">
<title>Node1</title>
<g id="a_node1"><a xlink:title="Data types and functions for VRAM access.">
<polygon fill="#999999" stroke="#666666" points="248,-239 163,-239 163,-220 248,-220 248,-239"/>
<text text-anchor="middle" x="205.5" y="-227" font-family="Helvetica,sans-Serif" font-size="10.00">include/vmem.h</text>
</a>
</g>
</g>
<!-- Node2 -->
<g id="node2" class="node">
<title>Node2</title>
<g id="a_node2"><a xlink:href="bmem_8h.html" target="_top" xlink:title="Data types and functions for accessing banked memory.">
<polygon fill="white" stroke="#666666" points="97,-184 12,-184 12,-165 97,-165 97,-184"/>
<text text-anchor="middle" x="54.5" y="-172" font-family="Helvetica,sans-Serif" font-size="10.00">include/bmem.h</text>
</a>
</g>
</g>
<!-- Node1&#45;&gt;Node2 -->
<g id="edge1" class="edge">
<title>Node1&#45;&gt;Node2</title>
<path fill="none" stroke="#63b8ff" d="M169.1,-215.73C141.56,-206.06 104.42,-193.02 79.99,-184.45"/>
<polygon fill="#63b8ff" stroke="#63b8ff" points="167.86,-219 178.46,-219.01 170.18,-212.39 167.86,-219"/>
</g>
<!-- Node4 -->
<g id="node4" class="node">
<title>Node4</title>
<g id="a_node4"><a xlink:href="metasprite_8h.html" target="_top" xlink:title="Meta&#45;sprite ; an aggregate of sprites.">
<polygon fill="white" stroke="#666666" points="299.5,-74 195.5,-74 195.5,-55 299.5,-55 299.5,-74"/>
<text text-anchor="middle" x="247.5" y="-62" font-family="Helvetica,sans-Serif" font-size="10.00">include/metasprite.h</text>
</a>
</g>
</g>
<!-- Node1&#45;&gt;Node4 -->
<g id="edge3" class="edge">
<title>Node1&#45;&gt;Node4</title>
<path fill="none" stroke="#63b8ff" d="M195.75,-209.56C184.67,-185.21 170.12,-142.23 186.5,-110 194.88,-93.52 212.53,-81.7 226.7,-74.4"/>
<polygon fill="#63b8ff" stroke="#63b8ff" points="192.45,-210.77 199.96,-218.25 198.75,-207.72 192.45,-210.77"/>
</g>
<!-- Node5 -->
<g id="node5" class="node">
<title>Node5</title>
<g id="a_node5"><a xlink:href="msx_8h.html" target="_top" xlink:title="Using #include &lt;msx.h&gt; includes almost all C header files in libmsx, for ease to use.">
<polygon fill="white" stroke="#666666" points="285.5,-19 209.5,-19 209.5,0 285.5,0 285.5,-19"/>
<text text-anchor="middle" x="247.5" y="-7" font-family="Helvetica,sans-Serif" font-size="10.00">include/msx.h</text>
</a>
</g>
</g>
<!-- Node1&#45;&gt;Node5 -->
<g id="edge5" class="edge">
<title>Node1&#45;&gt;Node5</title>
<path fill="none" stroke="#63b8ff" d="M191.05,-210.68C185.69,-202.95 180.24,-193.51 177.5,-184 161.61,-128.9 152.03,-104.78 180.5,-55 190.07,-38.27 208.79,-26.65 224.02,-19.49"/>
<polygon fill="#63b8ff" stroke="#63b8ff" points="188.12,-212.59 196.92,-218.49 193.71,-208.39 188.12,-212.59"/>
</g>
<!-- Node6 -->
<g id="node6" class="node">
<title>Node6</title>
<g id="a_node6"><a xlink:href="sprite_8h.html" target="_top" xlink:title="Sprites.">
<polygon fill="white" stroke="#666666" points="277.5,-129 195.5,-129 195.5,-110 277.5,-110 277.5,-129"/>
<text text-anchor="middle" x="236.5" y="-117" font-family="Helvetica,sans-Serif" font-size="10.00">include/sprite.h</text>
</a>
</g>
</g>
<!-- Node1&#45;&gt;Node6 -->
<g id="edge6" class="edge">
<title>Node1&#45;&gt;Node6</title>
<path fill="none" stroke="#63b8ff" d="M211.13,-208.9C217.89,-185.33 228.95,-146.81 233.93,-129.46"/>
<polygon fill="#63b8ff" stroke="#63b8ff" points="207.85,-207.63 208.45,-218.21 214.58,-209.56 207.85,-207.63"/>
</g>
<!-- Node7 -->
<g id="node7" class="node">
<title>Node7</title>
<g id="a_node7"><a xlink:href="sprite__color_8h.html" target="_top" xlink:title="Sprite color table interface.">
<polygon fill="white" stroke="#666666" points="463.5,-74 355.5,-74 355.5,-55 463.5,-55 463.5,-74"/>
<text text-anchor="middle" x="409.5" y="-62" font-family="Helvetica,sans-Serif" font-size="10.00">include/sprite_color.h</text>
</a>
</g>
</g>
<!-- Node1&#45;&gt;Node7 -->
<g id="edge11" class="edge">
<title>Node1&#45;&gt;Node7</title>
<path fill="none" stroke="#63b8ff" d="M259.63,-225.95C294.13,-221.6 337.61,-210.71 366.5,-184 399.28,-153.69 407.12,-96.44 408.96,-74.43"/>
<polygon fill="#63b8ff" stroke="#63b8ff" points="259.37,-222.46 249.81,-227.02 260.13,-229.41 259.37,-222.46"/>
</g>
<!-- Node8 -->
<g id="node8" class="node">
<title>Node8</title>
<g id="a_node8"><a xlink:href="vdp_8h.html" target="_top" xlink:title="Data types and functions for VDP (Video Display Proccessor) access.">
<polygon fill="white" stroke="#666666" points="369.5,-129 295.5,-129 295.5,-110 369.5,-110 369.5,-129"/>
<text text-anchor="middle" x="332.5" y="-117" font-family="Helvetica,sans-Serif" font-size="10.00">include/vdp.h</text>
</a>
</g>
</g>
<!-- Node1&#45;&gt;Node8 -->
<g id="edge12" class="edge">
<title>Node1&#45;&gt;Node8</title>
<path fill="none" stroke="#63b8ff" d="M259.87,-226.99C291.79,-222.95 329.8,-212.01 350.5,-184 362.9,-167.23 348.57,-142.21 339.25,-129.15"/>
<polygon fill="#63b8ff" stroke="#63b8ff" points="259.52,-223.51 249.94,-228.03 260.25,-230.47 259.52,-223.51"/>
</g>
<!-- Node9 -->
<g id="node9" class="node">
<title>Node9</title>
<g id="a_node9"><a xlink:href="vdp__unsafe_8h.html" target="_top" xlink:title="Unsafe primitive functions for VDP (Video Display Proccessor) access.">
<polygon fill="white" stroke="#666666" points="341.5,-184 233.5,-184 233.5,-165 341.5,-165 341.5,-184"/>
<text text-anchor="middle" x="287.5" y="-172" font-family="Helvetica,sans-Serif" font-size="10.00">include/vdp_unsafe.h</text>
</a>
</g>
</g>
<!-- Node1&#45;&gt;Node9 -->
<g id="edge15" class="edge">
<title>Node1&#45;&gt;Node9</title>
<path fill="none" stroke="#63b8ff" d="M228.77,-213.46C243.31,-204.06 261.54,-192.28 273.8,-184.36"/>
<polygon fill="#63b8ff" stroke="#63b8ff" points="227.18,-210.32 220.68,-218.69 230.98,-216.2 227.18,-210.32"/>
</g>
<!-- Node3 -->
<g id="node3" class="node">
<title>Node3</title>
<g id="a_node3"><a xlink:href="resources_8h.html" target="_top" xlink:title="Data types and functions for accessing embedded resources.">
<polygon fill="white" stroke="#666666" points="101,-129 0,-129 0,-110 101,-110 101,-129"/>
<text text-anchor="middle" x="50.5" y="-117" font-family="Helvetica,sans-Serif" font-size="10.00">include/resources.h</text>
</a>
</g>
</g>
<!-- Node2&#45;&gt;Node3 -->
<g id="edge2" class="edge">
<title>Node2&#45;&gt;Node3</title>
<path fill="none" stroke="#63b8ff" d="M52.98,-153.35C52.36,-145.1 51.67,-135.97 51.17,-129.44"/>
<polygon fill="#63b8ff" stroke="#63b8ff" points="49.48,-153.53 53.73,-163.24 56.46,-153 49.48,-153.53"/>
</g>
<!-- Node4&#45;&gt;Node5 -->
<g id="edge4" class="edge">
<title>Node4&#45;&gt;Node5</title>
<path fill="none" stroke="#63b8ff" d="M247.5,-43.35C247.5,-35.1 247.5,-25.97 247.5,-19.44"/>
<polygon fill="#63b8ff" stroke="#63b8ff" points="244,-43.23 247.5,-53.23 251,-43.23 244,-43.23"/>
</g>
<!-- Node6&#45;&gt;Node4 -->
<g id="edge7" class="edge">
<title>Node6&#45;&gt;Node4</title>
<path fill="none" stroke="#63b8ff" d="M240.62,-98.64C242.35,-90.31 244.27,-81.05 245.64,-74.44"/>
<polygon fill="#63b8ff" stroke="#63b8ff" points="237.23,-97.76 238.62,-108.27 244.08,-99.19 237.23,-97.76"/>
</g>
<!-- Node6&#45;&gt;Node5 -->
<g id="edge8" class="edge">
<title>Node6&#45;&gt;Node5</title>
<path fill="none" stroke="#63b8ff" d="M211.59,-103.51C194.78,-91.34 177.22,-73.26 186.5,-55 194.88,-38.52 212.53,-26.7 226.7,-19.4"/>
<polygon fill="#63b8ff" stroke="#63b8ff" points="209.17,-106.1 219.42,-108.78 213.08,-100.29 209.17,-106.1"/>
</g>
<!-- Node6&#45;&gt;Node7 -->
<g id="edge9" class="edge">
<title>Node6&#45;&gt;Node7</title>
<path fill="none" stroke="#63b8ff" d="M276.53,-106.24C308.24,-96.52 351.81,-83.18 380.3,-74.45"/>
<polygon fill="#63b8ff" stroke="#63b8ff" points="275.83,-102.79 267.29,-109.07 277.88,-109.48 275.83,-102.79"/>
</g>
<!-- Node7&#45;&gt;Node5 -->
<g id="edge10" class="edge">
<title>Node7&#45;&gt;Node5</title>
<path fill="none" stroke="#63b8ff" d="M371.24,-50.98C341.61,-41.29 301.29,-28.1 274.85,-19.45"/>
<polygon fill="#63b8ff" stroke="#63b8ff" points="369.99,-54.26 380.58,-54.04 372.16,-47.6 369.99,-54.26"/>
</g>
<!-- Node8&#45;&gt;Node4 -->
<g id="edge13" class="edge">
<title>Node8&#45;&gt;Node4</title>
<path fill="none" stroke="#63b8ff" d="M308.38,-103.46C293.31,-94.06 274.41,-82.28 261.71,-74.36"/>
<polygon fill="#63b8ff" stroke="#63b8ff" points="306.46,-106.39 316.8,-108.71 310.16,-100.45 306.46,-106.39"/>
</g>
<!-- Node8&#45;&gt;Node5 -->
<g id="edge14" class="edge">
<title>Node8&#45;&gt;Node5</title>
<path fill="none" stroke="#63b8ff" d="M328.29,-99.1C324.68,-85.72 318.45,-68.06 308.5,-55 296.82,-39.67 278.44,-27.27 264.91,-19.5"/>
<polygon fill="#63b8ff" stroke="#63b8ff" points="324.8,-99.55 330.55,-108.46 331.6,-97.91 324.8,-99.55"/>
</g>
<!-- Node9&#45;&gt;Node8 -->
<g id="edge16" class="edge">
<title>Node9&#45;&gt;Node8</title>
<path fill="none" stroke="#63b8ff" d="M302.18,-156.22C309.76,-147.28 318.71,-136.74 324.91,-129.44"/>
<polygon fill="#63b8ff" stroke="#63b8ff" points="299.71,-153.71 295.91,-163.59 305.05,-158.24 299.71,-153.71"/>
</g>
</g>
</svg>
