<?xml version="1.0" encoding="UTF-8" standalone="no"?>
<!DOCTYPE svg PUBLIC "-//W3C//DTD SVG 1.1//EN"
 "http://www.w3.org/Graphics/SVG/1.1/DTD/svg11.dtd">
<!-- Generated by graphviz version 2.50.0 (20220203.2022)
 -->
<!-- Title: src/vmem_set_sprite_color_s.c Pages: 1 -->
<svg width="594pt" height="263pt"
 viewBox="0.00 0.00 594.00 263.00" xmlns="http://www.w3.org/2000/svg" xmlns:xlink="http://www.w3.org/1999/xlink">
<g id="graph0" class="graph" transform="scale(1 1) rotate(0) translate(4 259)">
<title>src/vmem_set_sprite_color_s.c</title>
<!-- Node1 -->
<g id="node1" class="node">
<title>Node1</title>
<g id="a_node1"><a xlink:title="Copyright (c) 2021 Daishi Mori (mori0091)">
<polygon fill="#bfbfbf" stroke="black" points="380,-224.5 380,-254.5 488,-254.5 488,-224.5 380,-224.5"/>
<text text-anchor="start" x="388" y="-242.5" font-family="Helvetica,sans-Serif" font-size="10.00">src/vmem_set_sprite</text>
<text text-anchor="middle" x="434" y="-231.5" font-family="Helvetica,sans-Serif" font-size="10.00">_color_s.c</text>
</a>
</g>
</g>
<!-- Node2 -->
<g id="node2" class="node">
<title>Node2</title>
<g id="a_node2"><a xlink:href="vdp_8h.html" target="_top" xlink:title="Data types and functions for VDP (Video Display Proccessor) access.">
<polygon fill="none" stroke="black" points="228.5,-168.5 228.5,-187.5 309.5,-187.5 309.5,-168.5 228.5,-168.5"/>
<text text-anchor="middle" x="269" y="-175.5" font-family="Helvetica,sans-Serif" font-size="10.00">../include/vdp.h</text>
</a>
</g>
</g>
<!-- Node1&#45;&gt;Node2 -->
<g id="edge1" class="edge">
<title>Node1&#45;&gt;Node2</title>
<path fill="none" stroke="midnightblue" d="M394.9,-224.4C366.84,-214.28 329.43,-200.79 302.69,-191.15"/>
<polygon fill="midnightblue" stroke="midnightblue" points="303.6,-187.76 293.01,-187.66 301.23,-194.34 303.6,-187.76"/>
</g>
<!-- Node7 -->
<g id="node7" class="node">
<title>Node7</title>
<g id="a_node7"><a xlink:href="vmem_8h.html" target="_top" xlink:title="Data types and functions for VRAM access.">
<polygon fill="none" stroke="black" points="408.5,-56.5 408.5,-75.5 459.5,-75.5 459.5,-56.5 408.5,-56.5"/>
<text text-anchor="middle" x="434" y="-63.5" font-family="Helvetica,sans-Serif" font-size="10.00">vmem.h</text>
</a>
</g>
</g>
<!-- Node1&#45;&gt;Node7 -->
<g id="edge16" class="edge">
<title>Node1&#45;&gt;Node7</title>
<path fill="none" stroke="midnightblue" d="M434,-224.47C434,-193.7 434,-120.33 434,-85.7"/>
<polygon fill="midnightblue" stroke="midnightblue" points="437.5,-85.56 434,-75.56 430.5,-85.56 437.5,-85.56"/>
</g>
<!-- Node12 -->
<g id="node12" class="node">
<title>Node12</title>
<g id="a_node12"><a xlink:href="sprite__color_8h.html" target="_top" xlink:title="Copyright (c) 2021 Daishi Mori (mori0091)">
<polygon fill="none" stroke="black" points="462,-168.5 462,-187.5 578,-187.5 578,-168.5 462,-168.5"/>
<text text-anchor="middle" x="520" y="-175.5" font-family="Helvetica,sans-Serif" font-size="10.00">../include/sprite_color.h</text>
</a>
</g>
</g>
<!-- Node1&#45;&gt;Node12 -->
<g id="edge17" class="edge">
<title>Node1&#45;&gt;Node12</title>
<path fill="none" stroke="midnightblue" d="M454.38,-224.4C467.91,-215.04 485.61,-202.79 499.22,-193.38"/>
<polygon fill="midnightblue" stroke="midnightblue" points="501.25,-196.23 507.49,-187.66 497.27,-190.47 501.25,-196.23"/>
</g>
<!-- Node3 -->
<g id="node3" class="node">
<title>Node3</title>
<g id="a_node3"><a xlink:title=" ">
<polygon fill="none" stroke="#bfbfbf" points="354.5,-112.5 354.5,-131.5 405.5,-131.5 405.5,-112.5 354.5,-112.5"/>
<text text-anchor="middle" x="380" y="-119.5" font-family="Helvetica,sans-Serif" font-size="10.00">assert.h</text>
</a>
</g>
</g>
<!-- Node2&#45;&gt;Node3 -->
<g id="edge2" class="edge">
<title>Node2&#45;&gt;Node3</title>
<path fill="none" stroke="midnightblue" d="M286.83,-168.32C304.72,-159.62 332.48,-146.12 353.05,-136.11"/>
<polygon fill="midnightblue" stroke="midnightblue" points="354.75,-139.18 362.21,-131.65 351.69,-132.88 354.75,-139.18"/>
</g>
<!-- Node4 -->
<g id="node4" class="node">
<title>Node4</title>
<g id="a_node4"><a xlink:title=" ">
<polygon fill="none" stroke="#bfbfbf" points="0,-112.5 0,-131.5 56,-131.5 56,-112.5 0,-112.5"/>
<text text-anchor="middle" x="28" y="-119.5" font-family="Helvetica,sans-Serif" font-size="10.00">stdbool.h</text>
</a>
</g>
</g>
<!-- Node2&#45;&gt;Node4 -->
<g id="edge3" class="edge">
<title>Node2&#45;&gt;Node4</title>
<path fill="none" stroke="midnightblue" d="M230.81,-168.44C185.75,-158.35 111.25,-141.65 66.19,-131.56"/>
<polygon fill="midnightblue" stroke="midnightblue" points="66.74,-128.09 56.22,-129.32 65.21,-134.92 66.74,-128.09"/>
</g>
<!-- Node5 -->
<g id="node5" class="node">
<title>Node5</title>
<g id="a_node5"><a xlink:title=" ">
<polygon fill="none" stroke="#bfbfbf" points="356,-0.5 356,-19.5 404,-19.5 404,-0.5 356,-0.5"/>
<text text-anchor="middle" x="380" y="-7.5" font-family="Helvetica,sans-Serif" font-size="10.00">stdint.h</text>
</a>
</g>
</g>
<!-- Node2&#45;&gt;Node5 -->
<g id="edge4" class="edge">
<title>Node2&#45;&gt;Node5</title>
<path fill="none" stroke="midnightblue" d="M273.96,-168.41C281.72,-155.38 297.64,-130.21 315,-112 332.91,-93.21 346.44,-97.49 361,-76 370.38,-62.16 375.2,-43.64 377.63,-29.91"/>
<polygon fill="midnightblue" stroke="midnightblue" points="381.14,-30.12 379.16,-19.71 374.22,-29.08 381.14,-30.12"/>
</g>
<!-- Node6 -->
<g id="node6" class="node">
<title>Node6</title>
<g id="a_node6"><a xlink:href="io_8h.html" target="_top" xlink:title="Copyright (c) 2021 Daishi Mori (mori0091)">
<polygon fill="none" stroke="black" points="187,-0.5 187,-19.5 219,-19.5 219,-0.5 187,-0.5"/>
<text text-anchor="middle" x="203" y="-7.5" font-family="Helvetica,sans-Serif" font-size="10.00">io.h</text>
</a>
</g>
</g>
<!-- Node2&#45;&gt;Node6 -->
<g id="edge5" class="edge">
<title>Node2&#45;&gt;Node6</title>
<path fill="none" stroke="midnightblue" d="M235.11,-168.46C194.19,-156.03 127.76,-128.47 103,-76 87.22,-42.57 142.09,-24.15 176.74,-16.07"/>
<polygon fill="midnightblue" stroke="midnightblue" points="177.72,-19.44 186.74,-13.89 176.22,-12.6 177.72,-19.44"/>
</g>
<!-- Node2&#45;&gt;Node7 -->
<g id="edge6" class="edge">
<title>Node2&#45;&gt;Node7</title>
<path fill="none" stroke="midnightblue" d="M277.94,-168.27C291.75,-155.05 319.49,-129.63 346,-112 364.69,-99.57 387.25,-88.1 404.85,-79.85"/>
<polygon fill="midnightblue" stroke="midnightblue" points="406.44,-82.97 414.06,-75.61 403.51,-76.61 406.44,-82.97"/>
</g>
<!-- Node8 -->
<g id="node8" class="node">
<title>Node8</title>
<g id="a_node8"><a xlink:href="bios_8h.html" target="_top" xlink:title="Copyright (c) 2021 Daishi Mori (mori0091)">
<polygon fill="none" stroke="black" points="180,-112.5 180,-131.5 222,-131.5 222,-112.5 180,-112.5"/>
<text text-anchor="middle" x="201" y="-119.5" font-family="Helvetica,sans-Serif" font-size="10.00">bios.h</text>
</a>
</g>
</g>
<!-- Node2&#45;&gt;Node8 -->
<g id="edge9" class="edge">
<title>Node2&#45;&gt;Node8</title>
<path fill="none" stroke="midnightblue" d="M258.07,-168.32C247.83,-160.18 232.28,-147.84 220,-138.09"/>
<polygon fill="midnightblue" stroke="midnightblue" points="222.13,-135.31 212.12,-131.83 217.78,-140.79 222.13,-135.31"/>
</g>
<!-- Node11 -->
<g id="node11" class="node">
<title>Node11</title>
<g id="a_node11"><a xlink:href="workarea_8h.html" target="_top" xlink:title="Copyright (c) 2021 Daishi Mori (mori0091)">
<polygon fill="none" stroke="black" points="288,-56.5 288,-75.5 352,-75.5 352,-56.5 288,-56.5"/>
<text text-anchor="middle" x="320" y="-63.5" font-family="Helvetica,sans-Serif" font-size="10.00">workarea.h</text>
</a>
</g>
</g>
<!-- Node2&#45;&gt;Node11 -->
<g id="edge14" class="edge">
<title>Node2&#45;&gt;Node11</title>
<path fill="none" stroke="midnightblue" d="M267.78,-168.1C266.41,-155.1 265.39,-130.46 274,-112 279.55,-100.1 289.71,-89.64 299.07,-81.8"/>
<polygon fill="midnightblue" stroke="midnightblue" points="301.24,-84.55 306.95,-75.63 296.92,-79.04 301.24,-84.55"/>
</g>
<!-- Node7&#45;&gt;Node5 -->
<g id="edge7" class="edge">
<title>Node7&#45;&gt;Node5</title>
<path fill="none" stroke="midnightblue" d="M425.08,-56.08C417.22,-48.22 405.57,-36.57 396.08,-27.08"/>
<polygon fill="midnightblue" stroke="midnightblue" points="398.3,-24.35 388.75,-19.75 393.35,-29.3 398.3,-24.35"/>
</g>
<!-- Node7&#45;&gt;Node6 -->
<g id="edge8" class="edge">
<title>Node7&#45;&gt;Node6</title>
<path fill="none" stroke="midnightblue" d="M408.4,-59.01C364.03,-48.64 273.34,-27.44 228.82,-17.04"/>
<polygon fill="midnightblue" stroke="midnightblue" points="229.58,-13.62 219.05,-14.75 227.99,-20.44 229.58,-13.62"/>
</g>
<!-- Node9 -->
<g id="node9" class="node">
<title>Node9</title>
<g id="a_node9"><a xlink:href="bios__const_8h.html" target="_top" xlink:title="Constant variables in the MSX BIOS ROM.">
<polygon fill="none" stroke="black" points="198.5,-56.5 198.5,-75.5 269.5,-75.5 269.5,-56.5 198.5,-56.5"/>
<text text-anchor="middle" x="234" y="-63.5" font-family="Helvetica,sans-Serif" font-size="10.00">bios_const.h</text>
</a>
</g>
</g>
<!-- Node8&#45;&gt;Node9 -->
<g id="edge10" class="edge">
<title>Node8&#45;&gt;Node9</title>
<path fill="none" stroke="midnightblue" d="M206.45,-112.08C211.01,-104.61 217.67,-93.72 223.29,-84.52"/>
<polygon fill="midnightblue" stroke="midnightblue" points="226.42,-86.11 228.65,-75.75 220.45,-82.46 226.42,-86.11"/>
</g>
<!-- Node10 -->
<g id="node10" class="node">
<title>Node10</title>
<g id="a_node10"><a xlink:href="bios__entry_8h.html" target="_top" xlink:title="Assembler entry points for MSX BIOS functions.">
<polygon fill="none" stroke="black" points="112,-56.5 112,-75.5 180,-75.5 180,-56.5 112,-56.5"/>
<text text-anchor="middle" x="146" y="-63.5" font-family="Helvetica,sans-Serif" font-size="10.00">bios_entry.h</text>
</a>
</g>
</g>
<!-- Node8&#45;&gt;Node10 -->
<g id="edge12" class="edge">
<title>Node8&#45;&gt;Node10</title>
<path fill="none" stroke="midnightblue" d="M191.92,-112.08C183.83,-104.14 171.8,-92.34 162.09,-82.8"/>
<polygon fill="midnightblue" stroke="midnightblue" points="164.5,-80.26 154.91,-75.75 159.6,-85.25 164.5,-80.26"/>
</g>
<!-- Node9&#45;&gt;Node5 -->
<g id="edge11" class="edge">
<title>Node9&#45;&gt;Node5</title>
<path fill="none" stroke="midnightblue" d="M257.13,-56.44C281.48,-47.44 320.01,-33.19 347.42,-23.05"/>
<polygon fill="midnightblue" stroke="midnightblue" points="348.81,-26.27 356.97,-19.52 346.38,-19.7 348.81,-26.27"/>
</g>
<!-- Node10&#45;&gt;Node5 -->
<g id="edge13" class="edge">
<title>Node10&#45;&gt;Node5</title>
<path fill="none" stroke="midnightblue" d="M180.03,-57.15C224.38,-46.91 301.52,-29.11 345.91,-18.87"/>
<polygon fill="midnightblue" stroke="midnightblue" points="346.97,-22.22 355.92,-16.56 345.39,-15.39 346.97,-22.22"/>
</g>
<!-- Node11&#45;&gt;Node5 -->
<g id="edge15" class="edge">
<title>Node11&#45;&gt;Node5</title>
<path fill="none" stroke="midnightblue" d="M329.64,-56.32C338.51,-48.34 351.87,-36.31 362.61,-26.65"/>
<polygon fill="midnightblue" stroke="midnightblue" points="365.09,-29.13 370.18,-19.83 360.41,-23.92 365.09,-29.13"/>
</g>
<!-- Node12&#45;&gt;Node5 -->
<g id="edge18" class="edge">
<title>Node12&#45;&gt;Node5</title>
<path fill="none" stroke="midnightblue" d="M518.47,-168.26C514.27,-146.65 500.73,-90 469,-56 453.98,-39.9 431.93,-28.7 413.53,-21.49"/>
<polygon fill="midnightblue" stroke="midnightblue" points="414.62,-18.16 404.03,-17.99 412.2,-24.73 414.62,-18.16"/>
</g>
<!-- Node12&#45;&gt;Node7 -->
<g id="edge22" class="edge">
<title>Node12&#45;&gt;Node7</title>
<path fill="none" stroke="midnightblue" d="M513.25,-168.37C499,-150.14 465.61,-107.43 447.04,-83.68"/>
<polygon fill="midnightblue" stroke="midnightblue" points="449.63,-81.31 440.72,-75.59 444.12,-85.63 449.63,-81.31"/>
</g>
<!-- Node13 -->
<g id="node13" class="node">
<title>Node13</title>
<g id="a_node13"><a xlink:href="sprite_8h.html" target="_top" xlink:title="Copyright (c) 2021 Daishi Mori (mori0091)">
<polygon fill="none" stroke="black" points="538,-112.5 538,-131.5 586,-131.5 586,-112.5 538,-112.5"/>
<text text-anchor="middle" x="562" y="-119.5" font-family="Helvetica,sans-Serif" font-size="10.00">sprite.h</text>
</a>
</g>
</g>
<!-- Node12&#45;&gt;Node13 -->
<g id="edge19" class="edge">
<title>Node12&#45;&gt;Node13</title>
<path fill="none" stroke="midnightblue" d="M526.94,-168.08C532.93,-160.38 541.75,-149.03 549.05,-139.65"/>
<polygon fill="midnightblue" stroke="midnightblue" points="551.82,-141.79 555.19,-131.75 546.29,-137.5 551.82,-141.79"/>
</g>
<!-- Node13&#45;&gt;Node5 -->
<g id="edge20" class="edge">
<title>Node13&#45;&gt;Node5</title>
<path fill="none" stroke="midnightblue" d="M559.3,-112.47C554.46,-98.59 543.02,-71.14 524,-56 492.06,-30.57 445.62,-19.43 414.19,-14.6"/>
<polygon fill="midnightblue" stroke="midnightblue" points="414.54,-11.11 404.15,-13.19 413.57,-18.04 414.54,-11.11"/>
</g>
<!-- Node13&#45;&gt;Node7 -->
<g id="edge21" class="edge">
<title>Node13&#45;&gt;Node7</title>
<path fill="none" stroke="midnightblue" d="M541.72,-112.44C520.65,-103.56 487.48,-89.56 463.51,-79.45"/>
<polygon fill="midnightblue" stroke="midnightblue" points="464.76,-76.18 454.19,-75.52 462.04,-82.63 464.76,-76.18"/>
</g>
</g>
</svg>
