<?xml version="1.0" encoding="UTF-8" standalone="no"?>
<!DOCTYPE svg PUBLIC "-//W3C//DTD SVG 1.1//EN"
 "http://www.w3.org/Graphics/SVG/1.1/DTD/svg11.dtd">
<!-- Generated by graphviz version 3.0.0 (20221109.1736)
 -->
<!-- Title: include/vmem.h Pages: 1 -->
<svg width="307pt" height="196pt"
 viewBox="0.00 0.00 306.61 196.00" xmlns="http://www.w3.org/2000/svg" xmlns:xlink="http://www.w3.org/1999/xlink">
<g id="graph0" class="graph" transform="scale(1 1) rotate(0) translate(4 192)">
<title>include/vmem.h</title>
<!-- Node1 -->
<g id="node1" class="node">
<title>Node1</title>
<g id="a_node1"><a xlink:title="Data types and functions for VRAM access.">
<polygon fill="#bfbfbf" stroke="black" points="74.5,-168.5 74.5,-187.5 159.5,-187.5 159.5,-168.5 74.5,-168.5"/>
<text text-anchor="middle" x="117" y="-175.5" font-family="Helvetica,sans-Serif" font-size="10.00">include/vmem.h</text>
</a>
</g>
</g>
<!-- Node2 -->
<g id="node2" class="node">
<title>Node2</title>
<g id="a_node2"><a xlink:href="metasprite_8h.html" target="_top" xlink:title="Meta&#45;sprite ; an aggregate of sprites.">
<polygon fill="none" stroke="black" points="17,-56.5 17,-75.5 121,-75.5 121,-56.5 17,-56.5"/>
<text text-anchor="middle" x="69" y="-63.5" font-family="Helvetica,sans-Serif" font-size="10.00">include/metasprite.h</text>
</a>
</g>
</g>
<!-- Node1&#45;&gt;Node2 -->
<g id="edge1" class="edge">
<title>Node1&#45;&gt;Node2</title>
<path fill="none" stroke="midnightblue" d="M93.76,-162.68C83.52,-154.99 72.57,-144.5 67,-132 58.74,-113.44 63.08,-88.84 66.39,-75.88"/>
<polygon fill="midnightblue" stroke="midnightblue" points="91.85,-165.62 102.05,-168.47 95.86,-159.88 91.85,-165.62"/>
</g>
<!-- Node3 -->
<g id="node3" class="node">
<title>Node3</title>
<g id="a_node3"><a xlink:href="msx_8h.html" target="_top" xlink:title="Using #include &lt;msx.h&gt; includes almost all C header files in libmsx, for ease to use.">
<polygon fill="none" stroke="black" points="111,-0.5 111,-19.5 187,-19.5 187,-0.5 111,-0.5"/>
<text text-anchor="middle" x="149" y="-7.5" font-family="Helvetica,sans-Serif" font-size="10.00">include/msx.h</text>
</a>
</g>
</g>
<!-- Node1&#45;&gt;Node3 -->
<g id="edge3" class="edge">
<title>Node1&#45;&gt;Node3</title>
<path fill="none" stroke="midnightblue" d="M89.13,-163.85C47.52,-142.44 -22.79,-98.15 8,-56 31.35,-24.05 77.63,-14.25 110.81,-11.52"/>
<polygon fill="midnightblue" stroke="midnightblue" points="87.75,-167.08 98.26,-168.43 90.89,-160.82 87.75,-167.08"/>
</g>
<!-- Node4 -->
<g id="node4" class="node">
<title>Node4</title>
<g id="a_node4"><a xlink:href="sprite_8h.html" target="_top" xlink:title="Sprites.">
<polygon fill="none" stroke="black" points="76,-112.5 76,-131.5 158,-131.5 158,-112.5 76,-112.5"/>
<text text-anchor="middle" x="117" y="-119.5" font-family="Helvetica,sans-Serif" font-size="10.00">include/sprite.h</text>
</a>
</g>
</g>
<!-- Node1&#45;&gt;Node4 -->
<g id="edge4" class="edge">
<title>Node1&#45;&gt;Node4</title>
<path fill="none" stroke="midnightblue" d="M117,-157.8C117,-148.91 117,-138.78 117,-131.75"/>
<polygon fill="midnightblue" stroke="midnightblue" points="113.5,-158.08 117,-168.08 120.5,-158.08 113.5,-158.08"/>
</g>
<!-- Node5 -->
<g id="node5" class="node">
<title>Node5</title>
<g id="a_node5"><a xlink:href="sprite__color_8h.html" target="_top" xlink:title="Sprite color table interface.">
<polygon fill="none" stroke="black" points="177,-56.5 177,-75.5 285,-75.5 285,-56.5 177,-56.5"/>
<text text-anchor="middle" x="231" y="-63.5" font-family="Helvetica,sans-Serif" font-size="10.00">include/sprite_color.h</text>
</a>
</g>
</g>
<!-- Node1&#45;&gt;Node5 -->
<g id="edge9" class="edge">
<title>Node1&#45;&gt;Node5</title>
<path fill="none" stroke="midnightblue" d="M169.71,-175.05C201.1,-170.83 238.67,-159.77 259,-132 272.21,-113.96 252.49,-88.72 239.98,-75.63"/>
<polygon fill="midnightblue" stroke="midnightblue" points="169.3,-171.57 159.76,-176.19 170.1,-178.53 169.3,-171.57"/>
</g>
<!-- Node6 -->
<g id="node6" class="node">
<title>Node6</title>
<g id="a_node6"><a xlink:href="vdp_8h.html" target="_top" xlink:title="Data types and functions for VDP (Video Display Proccessor) access.">
<polygon fill="none" stroke="black" points="176,-112.5 176,-131.5 250,-131.5 250,-112.5 176,-112.5"/>
<text text-anchor="middle" x="213" y="-119.5" font-family="Helvetica,sans-Serif" font-size="10.00">include/vdp.h</text>
</a>
</g>
</g>
<!-- Node1&#45;&gt;Node6 -->
<g id="edge10" class="edge">
<title>Node1&#45;&gt;Node6</title>
<path fill="none" stroke="midnightblue" d="M141.58,-163.18C159.24,-153.24 182.52,-140.15 197.62,-131.65"/>
<polygon fill="midnightblue" stroke="midnightblue" points="139.43,-160.37 132.43,-168.32 142.86,-166.47 139.43,-160.37"/>
</g>
<!-- Node2&#45;&gt;Node3 -->
<g id="edge2" class="edge">
<title>Node2&#45;&gt;Node3</title>
<path fill="none" stroke="midnightblue" d="M90.3,-50.62C104.92,-40.76 123.83,-27.99 136.18,-19.65"/>
<polygon fill="midnightblue" stroke="midnightblue" points="88.19,-47.83 81.86,-56.32 92.1,-53.63 88.19,-47.83"/>
</g>
<!-- Node4&#45;&gt;Node2 -->
<g id="edge5" class="edge">
<title>Node4&#45;&gt;Node2</title>
<path fill="none" stroke="midnightblue" d="M102.28,-104.43C93.86,-94.97 83.66,-83.48 76.78,-75.75"/>
<polygon fill="midnightblue" stroke="midnightblue" points="99.82,-106.93 109.08,-112.08 105.05,-102.28 99.82,-106.93"/>
</g>
<!-- Node4&#45;&gt;Node3 -->
<g id="edge6" class="edge">
<title>Node4&#45;&gt;Node3</title>
<path fill="none" stroke="midnightblue" d="M122.34,-102.67C129.33,-78.62 141.33,-37.39 146.51,-19.59"/>
<polygon fill="midnightblue" stroke="midnightblue" points="118.95,-101.79 119.52,-112.37 125.67,-103.74 118.95,-101.79"/>
</g>
<!-- Node4&#45;&gt;Node5 -->
<g id="edge7" class="edge">
<title>Node4&#45;&gt;Node5</title>
<path fill="none" stroke="midnightblue" d="M144.25,-108.1C165.54,-98.01 194.55,-84.27 213.03,-75.52"/>
<polygon fill="midnightblue" stroke="midnightblue" points="142.61,-105 135.07,-112.44 145.6,-111.33 142.61,-105"/>
</g>
<!-- Node5&#45;&gt;Node3 -->
<g id="edge8" class="edge">
<title>Node5&#45;&gt;Node3</title>
<path fill="none" stroke="midnightblue" d="M209.17,-50.62C194.19,-40.76 174.81,-27.99 162.15,-19.65"/>
<polygon fill="midnightblue" stroke="midnightblue" points="207.55,-53.75 217.83,-56.32 211.4,-47.9 207.55,-53.75"/>
</g>
<!-- Node6&#45;&gt;Node2 -->
<g id="edge11" class="edge">
<title>Node6&#45;&gt;Node2</title>
<path fill="none" stroke="midnightblue" d="M180.75,-108.91C153.68,-98.75 115.69,-84.51 91.71,-75.52"/>
<polygon fill="midnightblue" stroke="midnightblue" points="179.59,-112.21 190.19,-112.44 182.05,-105.66 179.59,-112.21"/>
</g>
<!-- Node6&#45;&gt;Node3 -->
<g id="edge12" class="edge">
<title>Node6&#45;&gt;Node3</title>
<path fill="none" stroke="midnightblue" d="M249.38,-108.83C277.97,-97.25 310.43,-78.3 294,-56 269.69,-23 221.42,-13.49 187.26,-11.1"/>
<polygon fill="midnightblue" stroke="midnightblue" points="247.99,-105.62 239.91,-112.47 250.5,-112.15 247.99,-105.62"/>
</g>
</g>
</svg>
