<?xml version="1.0" encoding="UTF-8" standalone="no"?>
<!DOCTYPE svg PUBLIC "-//W3C//DTD SVG 1.1//EN"
 "http://www.w3.org/Graphics/SVG/1.1/DTD/svg11.dtd">
<!-- Generated by graphviz version 2.44.0 ()
 -->
<!-- Title: src/vmem_set_sprite_color_s.c Pages: 1 -->
<svg width="498pt" height="263pt"
 viewBox="0.00 0.00 498.00 263.00" xmlns="http://www.w3.org/2000/svg" xmlns:xlink="http://www.w3.org/1999/xlink">
<g id="graph0" class="graph" transform="scale(1 1) rotate(0) translate(4 259)">
<title>src/vmem_set_sprite_color_s.c</title>
<!-- Node1 -->
<g id="node1" class="node">
<title>Node1</title>
<g id="a_node1"><a xlink:title="Copyright (c) 2021 Daishi Mori (mori0091)">
<polygon fill="#bfbfbf" stroke="black" points="92,-224.5 92,-254.5 200,-254.5 200,-224.5 92,-224.5"/>
<text text-anchor="start" x="100" y="-242.5" font-family="Helvetica,sans-Serif" font-size="10.00">src/vmem_set_sprite</text>
<text text-anchor="middle" x="146" y="-231.5" font-family="Helvetica,sans-Serif" font-size="10.00">_color_s.c</text>
</a>
</g>
</g>
<!-- Node2 -->
<g id="node2" class="node">
<title>Node2</title>
<g id="a_node2"><a xlink:href="vdp_8h.html" target="_top" xlink:title="Data types and functions for VDP (Video Display Proccessor) access.">
<polygon fill="none" stroke="black" points="201.5,-112.5 201.5,-131.5 282.5,-131.5 282.5,-112.5 201.5,-112.5"/>
<text text-anchor="middle" x="242" y="-119.5" font-family="Helvetica,sans-Serif" font-size="10.00">../include/vdp.h</text>
</a>
</g>
</g>
<!-- Node1&#45;&gt;Node2 -->
<g id="edge1" class="edge">
<title>Node1&#45;&gt;Node2</title>
<path fill="none" stroke="midnightblue" d="M157.77,-224.34C175.62,-202.86 209.44,-162.17 228.34,-139.43"/>
<polygon fill="midnightblue" stroke="midnightblue" points="231.09,-141.6 234.79,-131.67 225.71,-137.12 231.09,-141.6"/>
</g>
<!-- Node7 -->
<g id="node7" class="node">
<title>Node7</title>
<g id="a_node7"><a xlink:href="vmem_8h.html" target="_top" xlink:title="Data types and functions for VRAM access.">
<polygon fill="none" stroke="black" points="76.5,-56.5 76.5,-75.5 127.5,-75.5 127.5,-56.5 76.5,-56.5"/>
<text text-anchor="middle" x="102" y="-63.5" font-family="Helvetica,sans-Serif" font-size="10.00">vmem.h</text>
</a>
</g>
</g>
<!-- Node1&#45;&gt;Node7 -->
<g id="edge13" class="edge">
<title>Node1&#45;&gt;Node7</title>
<path fill="none" stroke="midnightblue" d="M142.4,-224.47C134.47,-193.57 115.52,-119.69 106.68,-85.25"/>
<polygon fill="midnightblue" stroke="midnightblue" points="110.07,-84.38 104.2,-75.56 103.29,-86.12 110.07,-84.38"/>
</g>
<!-- Node10 -->
<g id="node10" class="node">
<title>Node10</title>
<g id="a_node10"><a xlink:href="sprite__color_8h.html" target="_top" xlink:title="Copyright (c) 2021 Daishi Mori (mori0091)">
<polygon fill="none" stroke="black" points="0,-168.5 0,-187.5 116,-187.5 116,-168.5 0,-168.5"/>
<text text-anchor="middle" x="58" y="-175.5" font-family="Helvetica,sans-Serif" font-size="10.00">../include/sprite_color.h</text>
</a>
</g>
</g>
<!-- Node1&#45;&gt;Node10 -->
<g id="edge14" class="edge">
<title>Node1&#45;&gt;Node10</title>
<path fill="none" stroke="midnightblue" d="M125.15,-224.4C111.3,-215.04 93.19,-202.79 79.26,-193.38"/>
<polygon fill="midnightblue" stroke="midnightblue" points="81.05,-190.36 70.8,-187.66 77.13,-196.16 81.05,-190.36"/>
</g>
<!-- Node3 -->
<g id="node3" class="node">
<title>Node3</title>
<g id="a_node3"><a xlink:title=" ">
<polygon fill="none" stroke="#bfbfbf" points="364.5,-56.5 364.5,-75.5 415.5,-75.5 415.5,-56.5 364.5,-56.5"/>
<text text-anchor="middle" x="390" y="-63.5" font-family="Helvetica,sans-Serif" font-size="10.00">assert.h</text>
</a>
</g>
</g>
<!-- Node2&#45;&gt;Node3 -->
<g id="edge2" class="edge">
<title>Node2&#45;&gt;Node3</title>
<path fill="none" stroke="midnightblue" d="M265.45,-112.44C290.13,-103.44 329.19,-89.19 356.98,-79.05"/>
<polygon fill="midnightblue" stroke="midnightblue" points="358.46,-82.23 366.66,-75.52 356.06,-75.66 358.46,-82.23"/>
</g>
<!-- Node4 -->
<g id="node4" class="node">
<title>Node4</title>
<g id="a_node4"><a xlink:title=" ">
<polygon fill="none" stroke="#bfbfbf" points="434,-56.5 434,-75.5 490,-75.5 490,-56.5 434,-56.5"/>
<text text-anchor="middle" x="462" y="-63.5" font-family="Helvetica,sans-Serif" font-size="10.00">stdbool.h</text>
</a>
</g>
</g>
<!-- Node2&#45;&gt;Node4 -->
<g id="edge3" class="edge">
<title>Node2&#45;&gt;Node4</title>
<path fill="none" stroke="midnightblue" d="M276.86,-112.44C316.96,-102.6 382.57,-86.5 423.96,-76.34"/>
<polygon fill="midnightblue" stroke="midnightblue" points="425.06,-79.67 433.94,-73.89 423.39,-72.87 425.06,-79.67"/>
</g>
<!-- Node5 -->
<g id="node5" class="node">
<title>Node5</title>
<g id="a_node5"><a xlink:title=" ">
<polygon fill="none" stroke="#bfbfbf" points="105,-0.5 105,-19.5 153,-19.5 153,-0.5 105,-0.5"/>
<text text-anchor="middle" x="129" y="-7.5" font-family="Helvetica,sans-Serif" font-size="10.00">stdint.h</text>
</a>
</g>
</g>
<!-- Node2&#45;&gt;Node5 -->
<g id="edge4" class="edge">
<title>Node2&#45;&gt;Node5</title>
<path fill="none" stroke="midnightblue" d="M225.92,-112.44C211.55,-104.29 190.44,-91.07 175,-76 160.51,-61.86 147.54,-42.62 139.1,-28.75"/>
<polygon fill="midnightblue" stroke="midnightblue" points="141.89,-26.59 133.79,-19.75 135.86,-30.14 141.89,-26.59"/>
</g>
<!-- Node6 -->
<g id="node6" class="node">
<title>Node6</title>
<g id="a_node6"><a xlink:href="io_8h.html" target="_top" xlink:title="Copyright (c) 2021 Daishi Mori (mori0091)">
<polygon fill="none" stroke="black" points="245,-0.5 245,-19.5 277,-19.5 277,-0.5 245,-0.5"/>
<text text-anchor="middle" x="261" y="-7.5" font-family="Helvetica,sans-Serif" font-size="10.00">io.h</text>
</a>
</g>
</g>
<!-- Node2&#45;&gt;Node6 -->
<g id="edge5" class="edge">
<title>Node2&#45;&gt;Node6</title>
<path fill="none" stroke="midnightblue" d="M269.28,-112.45C286.29,-105.55 306.83,-93.97 317,-76 328.33,-55.99 305.64,-36.48 285.83,-24.14"/>
<polygon fill="midnightblue" stroke="midnightblue" points="287.46,-21.04 277.07,-19 283.92,-27.08 287.46,-21.04"/>
</g>
<!-- Node2&#45;&gt;Node7 -->
<g id="edge6" class="edge">
<title>Node2&#45;&gt;Node7</title>
<path fill="none" stroke="midnightblue" d="M219.82,-112.44C196.57,-103.48 159.85,-89.31 133.58,-79.18"/>
<polygon fill="midnightblue" stroke="midnightblue" points="134.67,-75.85 124.08,-75.52 132.15,-82.38 134.67,-75.85"/>
</g>
<!-- Node8 -->
<g id="node8" class="node">
<title>Node8</title>
<g id="a_node8"><a xlink:href="bios_8h.html" target="_top" xlink:title="Copyright (c) 2021 Daishi Mori (mori0091)">
<polygon fill="none" stroke="black" points="184,-56.5 184,-75.5 226,-75.5 226,-56.5 184,-56.5"/>
<text text-anchor="middle" x="205" y="-63.5" font-family="Helvetica,sans-Serif" font-size="10.00">bios.h</text>
</a>
</g>
</g>
<!-- Node2&#45;&gt;Node8 -->
<g id="edge9" class="edge">
<title>Node2&#45;&gt;Node8</title>
<path fill="none" stroke="midnightblue" d="M235.89,-112.08C230.72,-104.53 223.15,-93.49 216.81,-84.23"/>
<polygon fill="midnightblue" stroke="midnightblue" points="219.54,-82.02 211,-75.75 213.76,-85.98 219.54,-82.02"/>
</g>
<!-- Node9 -->
<g id="node9" class="node">
<title>Node9</title>
<g id="a_node9"><a xlink:href="workarea_8h.html" target="_top" xlink:title="Copyright (c) 2021 Daishi Mori (mori0091)">
<polygon fill="none" stroke="black" points="244,-56.5 244,-75.5 308,-75.5 308,-56.5 244,-56.5"/>
<text text-anchor="middle" x="276" y="-63.5" font-family="Helvetica,sans-Serif" font-size="10.00">workarea.h</text>
</a>
</g>
</g>
<!-- Node2&#45;&gt;Node9 -->
<g id="edge11" class="edge">
<title>Node2&#45;&gt;Node9</title>
<path fill="none" stroke="midnightblue" d="M247.61,-112.08C252.37,-104.53 259.32,-93.49 265.15,-84.23"/>
<polygon fill="midnightblue" stroke="midnightblue" points="268.12,-86.08 270.49,-75.75 262.2,-82.35 268.12,-86.08"/>
</g>
<!-- Node7&#45;&gt;Node5 -->
<g id="edge7" class="edge">
<title>Node7&#45;&gt;Node5</title>
<path fill="none" stroke="midnightblue" d="M106.46,-56.08C110.15,-48.69 115.52,-37.95 120.09,-28.81"/>
<polygon fill="midnightblue" stroke="midnightblue" points="123.28,-30.26 124.62,-19.75 117.02,-27.13 123.28,-30.26"/>
</g>
<!-- Node7&#45;&gt;Node6 -->
<g id="edge8" class="edge">
<title>Node7&#45;&gt;Node6</title>
<path fill="none" stroke="midnightblue" d="M127.19,-56.44C156.65,-46.44 205.15,-29.97 234.96,-19.84"/>
<polygon fill="midnightblue" stroke="midnightblue" points="236.32,-23.08 244.66,-16.55 234.07,-16.45 236.32,-23.08"/>
</g>
<!-- Node8&#45;&gt;Node5 -->
<g id="edge10" class="edge">
<title>Node8&#45;&gt;Node5</title>
<path fill="none" stroke="midnightblue" d="M192.79,-56.32C181.22,-48.11 163.62,-35.6 149.84,-25.81"/>
<polygon fill="midnightblue" stroke="midnightblue" points="151.61,-22.77 141.43,-19.83 147.56,-28.48 151.61,-22.77"/>
</g>
<!-- Node9&#45;&gt;Node5 -->
<g id="edge12" class="edge">
<title>Node9&#45;&gt;Node5</title>
<path fill="none" stroke="midnightblue" d="M252.71,-56.44C228.19,-47.44 189.4,-33.19 161.8,-23.05"/>
<polygon fill="midnightblue" stroke="midnightblue" points="162.78,-19.68 152.18,-19.52 160.36,-26.25 162.78,-19.68"/>
</g>
<!-- Node10&#45;&gt;Node5 -->
<g id="edge15" class="edge">
<title>Node10&#45;&gt;Node5</title>
<path fill="none" stroke="midnightblue" d="M48.44,-168.45C39.91,-160.12 28.01,-146.6 23,-132 20.12,-123.59 20.72,-120.59 23,-112 30.36,-84.29 35.01,-76.54 55,-56 67.82,-42.83 85.26,-31.98 100,-24.23"/>
<polygon fill="midnightblue" stroke="midnightblue" points="101.85,-27.22 109.21,-19.6 98.71,-20.96 101.85,-27.22"/>
</g>
<!-- Node10&#45;&gt;Node7 -->
<g id="edge19" class="edge">
<title>Node10&#45;&gt;Node7</title>
<path fill="none" stroke="midnightblue" d="M65.58,-168.33C72.72,-159.71 83.16,-145.8 89,-132 95.24,-117.25 98.54,-99.31 100.25,-86.03"/>
<polygon fill="midnightblue" stroke="midnightblue" points="103.77,-86.06 101.38,-75.74 96.81,-85.3 103.77,-86.06"/>
</g>
<!-- Node11 -->
<g id="node11" class="node">
<title>Node11</title>
<g id="a_node11"><a xlink:href="sprite_8h.html" target="_top" xlink:title="Copyright (c) 2021 Daishi Mori (mori0091)">
<polygon fill="none" stroke="black" points="32,-112.5 32,-131.5 80,-131.5 80,-112.5 32,-112.5"/>
<text text-anchor="middle" x="56" y="-119.5" font-family="Helvetica,sans-Serif" font-size="10.00">sprite.h</text>
</a>
</g>
</g>
<!-- Node10&#45;&gt;Node11 -->
<g id="edge16" class="edge">
<title>Node10&#45;&gt;Node11</title>
<path fill="none" stroke="midnightblue" d="M57.67,-168.08C57.41,-161.01 57.03,-150.86 56.7,-141.99"/>
<polygon fill="midnightblue" stroke="midnightblue" points="60.19,-141.61 56.32,-131.75 53.2,-141.87 60.19,-141.61"/>
</g>
<!-- Node11&#45;&gt;Node5 -->
<g id="edge17" class="edge">
<title>Node11&#45;&gt;Node5</title>
<path fill="none" stroke="midnightblue" d="M55.47,-112.28C55.09,-99.09 56.02,-73.7 67,-56 75.24,-42.72 88.97,-32.15 101.42,-24.6"/>
<polygon fill="midnightblue" stroke="midnightblue" points="103.2,-27.62 110.17,-19.65 99.74,-21.54 103.2,-27.62"/>
</g>
<!-- Node11&#45;&gt;Node7 -->
<g id="edge18" class="edge">
<title>Node11&#45;&gt;Node7</title>
<path fill="none" stroke="midnightblue" d="M63.6,-112.08C70.23,-104.3 80.02,-92.8 88.06,-83.37"/>
<polygon fill="midnightblue" stroke="midnightblue" points="90.73,-85.63 94.55,-75.75 85.4,-81.09 90.73,-85.63"/>
</g>
</g>
</svg>
