<?xml version="1.0" encoding="UTF-8" standalone="no"?>
<!DOCTYPE svg PUBLIC "-//W3C//DTD SVG 1.1//EN"
 "http://www.w3.org/Graphics/SVG/1.1/DTD/svg11.dtd">
<!-- Generated by graphviz version 2.50.0 (20220203.2022)
 -->
<!-- Title: src/vmem_set_sprite_color_m.c Pages: 1 -->
<svg width="140pt" height="263pt"
 viewBox="0.00 0.00 139.50 263.00" xmlns="http://www.w3.org/2000/svg" xmlns:xlink="http://www.w3.org/1999/xlink">
<g id="graph0" class="graph" transform="scale(1 1) rotate(0) translate(4 259)">
<title>src/vmem_set_sprite_color_m.c</title>
<!-- Node1 -->
<g id="node1" class="node">
<title>Node1</title>
<g id="a_node1"><a xlink:title="Copyright (c) 2021 Daishi Mori (mori0091)">
<polygon fill="#bfbfbf" stroke="black" points="4,-224.5 4,-254.5 112,-254.5 112,-224.5 4,-224.5"/>
<text text-anchor="start" x="12" y="-242.5" font-family="Helvetica,sans-Serif" font-size="10.00">src/vmem_set_sprite</text>
<text text-anchor="middle" x="58" y="-231.5" font-family="Helvetica,sans-Serif" font-size="10.00">_color_m.c</text>
</a>
</g>
</g>
<!-- Node2 -->
<g id="node2" class="node">
<title>Node2</title>
<g id="a_node2"><a xlink:href="sprite__color_8h.html" target="_top" xlink:title="Copyright (c) 2021 Daishi Mori (mori0091)">
<polygon fill="none" stroke="black" points="0,-168.5 0,-187.5 116,-187.5 116,-168.5 0,-168.5"/>
<text text-anchor="middle" x="58" y="-175.5" font-family="Helvetica,sans-Serif" font-size="10.00">../include/sprite_color.h</text>
</a>
</g>
</g>
<!-- Node1&#45;&gt;Node2 -->
<g id="edge1" class="edge">
<title>Node1&#45;&gt;Node2</title>
<path fill="none" stroke="midnightblue" d="M58,-224.4C58,-216.47 58,-206.46 58,-197.86"/>
<polygon fill="midnightblue" stroke="midnightblue" points="61.5,-197.66 58,-187.66 54.5,-197.66 61.5,-197.66"/>
</g>
<!-- Node3 -->
<g id="node3" class="node">
<title>Node3</title>
<g id="a_node3"><a xlink:title=" ">
<polygon fill="none" stroke="#bfbfbf" points="25,-0.5 25,-19.5 73,-19.5 73,-0.5 25,-0.5"/>
<text text-anchor="middle" x="49" y="-7.5" font-family="Helvetica,sans-Serif" font-size="10.00">stdint.h</text>
</a>
</g>
</g>
<!-- Node2&#45;&gt;Node3 -->
<g id="edge2" class="edge">
<title>Node2&#45;&gt;Node3</title>
<path fill="none" stroke="midnightblue" d="M48.98,-168.34C40.93,-159.93 29.7,-146.36 25,-132 13.33,-96.36 28.85,-52.87 39.83,-28.94"/>
<polygon fill="midnightblue" stroke="midnightblue" points="43.1,-30.22 44.3,-19.69 36.8,-27.17 43.1,-30.22"/>
</g>
<!-- Node4 -->
<g id="node4" class="node">
<title>Node4</title>
<g id="a_node4"><a xlink:href="sprite_8h.html" target="_top" xlink:title="Copyright (c) 2021 Daishi Mori (mori0091)">
<polygon fill="none" stroke="black" points="34,-112.5 34,-131.5 82,-131.5 82,-112.5 34,-112.5"/>
<text text-anchor="middle" x="58" y="-119.5" font-family="Helvetica,sans-Serif" font-size="10.00">sprite.h</text>
</a>
</g>
</g>
<!-- Node2&#45;&gt;Node4 -->
<g id="edge3" class="edge">
<title>Node2&#45;&gt;Node4</title>
<path fill="none" stroke="midnightblue" d="M58,-168.08C58,-161.01 58,-150.86 58,-141.99"/>
<polygon fill="midnightblue" stroke="midnightblue" points="61.5,-141.75 58,-131.75 54.5,-141.75 61.5,-141.75"/>
</g>
<!-- Node5 -->
<g id="node5" class="node">
<title>Node5</title>
<g id="a_node5"><a xlink:href="vmem_8h.html" target="_top" xlink:title="Data types and functions for VRAM access.">
<polygon fill="none" stroke="black" points="80.5,-56.5 80.5,-75.5 131.5,-75.5 131.5,-56.5 80.5,-56.5"/>
<text text-anchor="middle" x="106" y="-63.5" font-family="Helvetica,sans-Serif" font-size="10.00">vmem.h</text>
</a>
</g>
</g>
<!-- Node2&#45;&gt;Node5 -->
<g id="edge8" class="edge">
<title>Node2&#45;&gt;Node5</title>
<path fill="none" stroke="midnightblue" d="M66,-168.38C73.55,-159.8 84.62,-145.92 91,-132 97.79,-117.19 101.64,-99.04 103.74,-85.69"/>
<polygon fill="midnightblue" stroke="midnightblue" points="107.21,-86.16 105.12,-75.77 100.27,-85.2 107.21,-86.16"/>
</g>
<!-- Node4&#45;&gt;Node3 -->
<g id="edge4" class="edge">
<title>Node4&#45;&gt;Node3</title>
<path fill="none" stroke="midnightblue" d="M57.29,-112.37C55.84,-94.62 52.49,-53.67 50.52,-29.6"/>
<polygon fill="midnightblue" stroke="midnightblue" points="54.01,-29.27 49.7,-19.59 47.03,-29.84 54.01,-29.27"/>
</g>
<!-- Node4&#45;&gt;Node5 -->
<g id="edge5" class="edge">
<title>Node4&#45;&gt;Node5</title>
<path fill="none" stroke="midnightblue" d="M65.93,-112.08C72.85,-104.3 83.07,-92.8 91.45,-83.37"/>
<polygon fill="midnightblue" stroke="midnightblue" points="94.19,-85.55 98.22,-75.75 88.96,-80.9 94.19,-85.55"/>
</g>
<!-- Node5&#45;&gt;Node3 -->
<g id="edge6" class="edge">
<title>Node5&#45;&gt;Node3</title>
<path fill="none" stroke="midnightblue" d="M96.84,-56.32C88.5,-48.42 75.97,-36.55 65.82,-26.94"/>
<polygon fill="midnightblue" stroke="midnightblue" points="67.99,-24.17 58.32,-19.83 63.18,-29.25 67.99,-24.17"/>
</g>
<!-- Node6 -->
<g id="node6" class="node">
<title>Node6</title>
<g id="a_node6"><a xlink:href="io_8h.html" target="_top" xlink:title="Copyright (c) 2021 Daishi Mori (mori0091)">
<polygon fill="none" stroke="black" points="91,-0.5 91,-19.5 123,-19.5 123,-0.5 91,-0.5"/>
<text text-anchor="middle" x="107" y="-7.5" font-family="Helvetica,sans-Serif" font-size="10.00">io.h</text>
</a>
</g>
</g>
<!-- Node5&#45;&gt;Node6 -->
<g id="edge7" class="edge">
<title>Node5&#45;&gt;Node6</title>
<path fill="none" stroke="midnightblue" d="M106.17,-56.08C106.3,-49.01 106.48,-38.86 106.65,-29.99"/>
<polygon fill="midnightblue" stroke="midnightblue" points="110.15,-29.81 106.84,-19.75 103.15,-29.68 110.15,-29.81"/>
</g>
</g>
</svg>
