<?xml version="1.0" encoding="UTF-8" standalone="no"?>
<!DOCTYPE svg PUBLIC "-//W3C//DTD SVG 1.1//EN"
 "http://www.w3.org/Graphics/SVG/1.1/DTD/svg11.dtd">
<!-- Generated by graphviz version 2.44.0 ()
 -->
<!-- Title: src/vmem_set_metasprite_a.c Pages: 1 -->
<svg width="457pt" height="252pt"
 viewBox="0.00 0.00 456.57 252.00" xmlns="http://www.w3.org/2000/svg" xmlns:xlink="http://www.w3.org/1999/xlink">
<g id="graph0" class="graph" transform="scale(1 1) rotate(0) translate(4 248)">
<title>src/vmem_set_metasprite_a.c</title>
<!-- Node1 -->
<g id="node1" class="node">
<title>Node1</title>
<g id="a_node1"><a xlink:title="Copyright (c) 2021 Daishi Mori (mori0091)">
<polygon fill="#bfbfbf" stroke="black" points="288.07,-224.5 288.07,-243.5 436.07,-243.5 436.07,-224.5 288.07,-224.5"/>
<text text-anchor="middle" x="362.07" y="-231.5" font-family="Helvetica,sans-Serif" font-size="10.00">src/vmem_set_metasprite_a.c</text>
</a>
</g>
</g>
<!-- Node2 -->
<g id="node2" class="node">
<title>Node2</title>
<g id="a_node2"><a xlink:href="sprite_8h.html" target="_top" xlink:title="Copyright (c) 2021 Daishi Mori (mori0091)">
<polygon fill="none" stroke="black" points="359.57,-112.5 359.57,-131.5 448.57,-131.5 448.57,-112.5 359.57,-112.5"/>
<text text-anchor="middle" x="404.07" y="-119.5" font-family="Helvetica,sans-Serif" font-size="10.00">../include/sprite.h</text>
</a>
</g>
</g>
<!-- Node1&#45;&gt;Node2 -->
<g id="edge1" class="edge">
<title>Node1&#45;&gt;Node2</title>
<path fill="none" stroke="midnightblue" d="M367.16,-224.26C372.2,-215.36 379.88,-201.04 385.07,-188 391.18,-172.64 396.31,-154.54 399.69,-141.35"/>
<polygon fill="midnightblue" stroke="midnightblue" points="403.1,-142.13 402.11,-131.59 396.31,-140.45 403.1,-142.13"/>
</g>
<!-- Node6 -->
<g id="node6" class="node">
<title>Node6</title>
<g id="a_node6"><a xlink:href="metasprite_8h.html" target="_top" xlink:title="Copyright (c) 2021 Daishi Mori (mori0091)">
<polygon fill="none" stroke="black" points="264.57,-168.5 264.57,-187.5 375.57,-187.5 375.57,-168.5 264.57,-168.5"/>
<text text-anchor="middle" x="320.07" y="-175.5" font-family="Helvetica,sans-Serif" font-size="10.00">../include/metasprite.h</text>
</a>
</g>
</g>
<!-- Node1&#45;&gt;Node6 -->
<g id="edge6" class="edge">
<title>Node1&#45;&gt;Node6</title>
<path fill="none" stroke="midnightblue" d="M355.14,-224.08C349.14,-216.38 340.32,-205.03 333.02,-195.65"/>
<polygon fill="midnightblue" stroke="midnightblue" points="335.78,-193.5 326.88,-187.75 330.25,-197.79 335.78,-193.5"/>
</g>
<!-- Node3 -->
<g id="node3" class="node">
<title>Node3</title>
<g id="a_node3"><a xlink:title=" ">
<polygon fill="none" stroke="#bfbfbf" points="193.07,-0.5 193.07,-19.5 241.07,-19.5 241.07,-0.5 193.07,-0.5"/>
<text text-anchor="middle" x="217.07" y="-7.5" font-family="Helvetica,sans-Serif" font-size="10.00">stdint.h</text>
</a>
</g>
</g>
<!-- Node2&#45;&gt;Node3 -->
<g id="edge2" class="edge">
<title>Node2&#45;&gt;Node3</title>
<path fill="none" stroke="midnightblue" d="M414.85,-112.37C429.92,-99.29 453.84,-74.06 439.07,-56 433.11,-48.72 311.94,-27.16 251.18,-16.75"/>
<polygon fill="midnightblue" stroke="midnightblue" points="251.73,-13.3 241.28,-15.06 250.55,-20.2 251.73,-13.3"/>
</g>
<!-- Node4 -->
<g id="node4" class="node">
<title>Node4</title>
<g id="a_node4"><a xlink:href="vmem_8h.html" target="_top" xlink:title="Data types and functions for VRAM access.">
<polygon fill="none" stroke="black" points="378.57,-56.5 378.57,-75.5 429.57,-75.5 429.57,-56.5 378.57,-56.5"/>
<text text-anchor="middle" x="404.07" y="-63.5" font-family="Helvetica,sans-Serif" font-size="10.00">vmem.h</text>
</a>
</g>
</g>
<!-- Node2&#45;&gt;Node4 -->
<g id="edge3" class="edge">
<title>Node2&#45;&gt;Node4</title>
<path fill="none" stroke="midnightblue" d="M404.07,-112.08C404.07,-105.01 404.07,-94.86 404.07,-85.99"/>
<polygon fill="midnightblue" stroke="midnightblue" points="407.57,-85.75 404.07,-75.75 400.57,-85.75 407.57,-85.75"/>
</g>
<!-- Node4&#45;&gt;Node3 -->
<g id="edge4" class="edge">
<title>Node4&#45;&gt;Node3</title>
<path fill="none" stroke="midnightblue" d="M378.46,-57.6C345.36,-48.05 287.64,-31.38 250.94,-20.78"/>
<polygon fill="midnightblue" stroke="midnightblue" points="251.77,-17.38 241.19,-17.96 249.82,-24.1 251.77,-17.38"/>
</g>
<!-- Node5 -->
<g id="node5" class="node">
<title>Node5</title>
<g id="a_node5"><a xlink:href="io_8h.html" target="_top" xlink:title="Copyright (c) 2021 Daishi Mori (mori0091)">
<polygon fill="none" stroke="black" points="279.07,-0.5 279.07,-19.5 311.07,-19.5 311.07,-0.5 279.07,-0.5"/>
<text text-anchor="middle" x="295.07" y="-7.5" font-family="Helvetica,sans-Serif" font-size="10.00">io.h</text>
</a>
</g>
</g>
<!-- Node4&#45;&gt;Node5 -->
<g id="edge5" class="edge">
<title>Node4&#45;&gt;Node5</title>
<path fill="none" stroke="midnightblue" d="M386.56,-56.32C368.58,-47.42 340.44,-33.48 320.12,-23.41"/>
<polygon fill="midnightblue" stroke="midnightblue" points="321.63,-20.25 311.12,-18.95 318.53,-26.53 321.63,-20.25"/>
</g>
<!-- Node6&#45;&gt;Node2 -->
<g id="edge19" class="edge">
<title>Node6&#45;&gt;Node2</title>
<path fill="none" stroke="midnightblue" d="M333.57,-168.32C346.67,-159.9 366.78,-146.97 382.18,-137.07"/>
<polygon fill="midnightblue" stroke="midnightblue" points="384.09,-140.01 390.61,-131.65 380.3,-134.12 384.09,-140.01"/>
</g>
<!-- Node6&#45;&gt;Node3 -->
<g id="edge7" class="edge">
<title>Node6&#45;&gt;Node3</title>
<path fill="none" stroke="midnightblue" d="M264.36,-177.29C191.67,-174.29 66.85,-156.8 8.07,-76 -36.15,-15.2 112.81,-9.56 182.77,-10.13"/>
<polygon fill="midnightblue" stroke="midnightblue" points="182.84,-13.63 192.88,-10.26 182.93,-6.63 182.84,-13.63"/>
</g>
<!-- Node6&#45;&gt;Node4 -->
<g id="edge18" class="edge">
<title>Node6&#45;&gt;Node4</title>
<path fill="none" stroke="midnightblue" d="M322.87,-168.37C327.38,-155.28 337.19,-130.03 351.07,-112 359.93,-100.49 372.17,-89.86 382.65,-81.83"/>
<polygon fill="midnightblue" stroke="midnightblue" points="384.96,-84.47 390.93,-75.72 380.81,-78.84 384.96,-84.47"/>
</g>
<!-- Node7 -->
<g id="node7" class="node">
<title>Node7</title>
<g id="a_node7"><a xlink:href="vdp_8h.html" target="_top" xlink:title="Data types and functions for VDP (Video Display Proccessor) access.">
<polygon fill="none" stroke="black" points="235.07,-112.5 235.07,-131.5 275.07,-131.5 275.07,-112.5 235.07,-112.5"/>
<text text-anchor="middle" x="255.07" y="-119.5" font-family="Helvetica,sans-Serif" font-size="10.00">vdp.h</text>
</a>
</g>
</g>
<!-- Node6&#45;&gt;Node7 -->
<g id="edge8" class="edge">
<title>Node6&#45;&gt;Node7</title>
<path fill="none" stroke="midnightblue" d="M309.63,-168.32C299.92,-160.26 285.26,-148.08 273.57,-138.37"/>
<polygon fill="midnightblue" stroke="midnightblue" points="275.63,-135.53 265.7,-131.83 271.16,-140.92 275.63,-135.53"/>
</g>
<!-- Node7&#45;&gt;Node3 -->
<g id="edge11" class="edge">
<title>Node7&#45;&gt;Node3</title>
<path fill="none" stroke="midnightblue" d="M238.74,-112.39C226.12,-104.72 209.57,-92.21 202.07,-76 195.09,-60.92 200.64,-42.34 206.87,-28.9"/>
<polygon fill="midnightblue" stroke="midnightblue" points="210.11,-30.28 211.57,-19.78 203.88,-27.07 210.11,-30.28"/>
</g>
<!-- Node7&#45;&gt;Node4 -->
<g id="edge13" class="edge">
<title>Node7&#45;&gt;Node4</title>
<path fill="none" stroke="midnightblue" d="M275.17,-113.72C299.72,-104.82 341.6,-89.64 370.94,-79.01"/>
<polygon fill="midnightblue" stroke="midnightblue" points="372.16,-82.29 380.37,-75.59 369.77,-75.71 372.16,-82.29"/>
</g>
<!-- Node7&#45;&gt;Node5 -->
<g id="edge12" class="edge">
<title>Node7&#45;&gt;Node5</title>
<path fill="none" stroke="midnightblue" d="M258.21,-112.37C264.69,-94.54 279.69,-53.3 288.43,-29.27"/>
<polygon fill="midnightblue" stroke="midnightblue" points="291.82,-30.19 291.95,-19.59 285.24,-27.79 291.82,-30.19"/>
</g>
<!-- Node8 -->
<g id="node8" class="node">
<title>Node8</title>
<g id="a_node8"><a xlink:title=" ">
<polygon fill="none" stroke="#bfbfbf" points="309.57,-56.5 309.57,-75.5 360.57,-75.5 360.57,-56.5 309.57,-56.5"/>
<text text-anchor="middle" x="335.07" y="-63.5" font-family="Helvetica,sans-Serif" font-size="10.00">assert.h</text>
</a>
</g>
</g>
<!-- Node7&#45;&gt;Node8 -->
<g id="edge9" class="edge">
<title>Node7&#45;&gt;Node8</title>
<path fill="none" stroke="midnightblue" d="M267.92,-112.32C280.29,-103.98 299.2,-91.21 313.81,-81.35"/>
<polygon fill="midnightblue" stroke="midnightblue" points="315.92,-84.15 322.25,-75.65 312,-78.35 315.92,-84.15"/>
</g>
<!-- Node9 -->
<g id="node9" class="node">
<title>Node9</title>
<g id="a_node9"><a xlink:title=" ">
<polygon fill="none" stroke="#bfbfbf" points="17.07,-56.5 17.07,-75.5 73.07,-75.5 73.07,-56.5 17.07,-56.5"/>
<text text-anchor="middle" x="45.07" y="-63.5" font-family="Helvetica,sans-Serif" font-size="10.00">stdbool.h</text>
</a>
</g>
</g>
<!-- Node7&#45;&gt;Node9 -->
<g id="edge10" class="edge">
<title>Node7&#45;&gt;Node9</title>
<path fill="none" stroke="midnightblue" d="M234.94,-115.82C200.08,-106.86 127.95,-88.31 83.32,-76.83"/>
<polygon fill="midnightblue" stroke="midnightblue" points="83.97,-73.39 73.42,-74.29 82.23,-80.17 83.97,-73.39"/>
</g>
<!-- Node10 -->
<g id="node10" class="node">
<title>Node10</title>
<g id="a_node10"><a xlink:href="bios_8h.html" target="_top" xlink:title="Copyright (c) 2021 Daishi Mori (mori0091)">
<polygon fill="none" stroke="black" points="211.07,-56.5 211.07,-75.5 253.07,-75.5 253.07,-56.5 211.07,-56.5"/>
<text text-anchor="middle" x="232.07" y="-63.5" font-family="Helvetica,sans-Serif" font-size="10.00">bios.h</text>
</a>
</g>
</g>
<!-- Node7&#45;&gt;Node10 -->
<g id="edge14" class="edge">
<title>Node7&#45;&gt;Node10</title>
<path fill="none" stroke="midnightblue" d="M251.27,-112.08C248.16,-104.77 243.65,-94.18 239.78,-85.1"/>
<polygon fill="midnightblue" stroke="midnightblue" points="242.94,-83.58 235.8,-75.75 236.5,-86.32 242.94,-83.58"/>
</g>
<!-- Node11 -->
<g id="node11" class="node">
<title>Node11</title>
<g id="a_node11"><a xlink:href="workarea_8h.html" target="_top" xlink:title="Copyright (c) 2021 Daishi Mori (mori0091)">
<polygon fill="none" stroke="black" points="91.07,-56.5 91.07,-75.5 155.07,-75.5 155.07,-56.5 91.07,-56.5"/>
<text text-anchor="middle" x="123.07" y="-63.5" font-family="Helvetica,sans-Serif" font-size="10.00">workarea.h</text>
</a>
</g>
</g>
<!-- Node7&#45;&gt;Node11 -->
<g id="edge16" class="edge">
<title>Node7&#45;&gt;Node11</title>
<path fill="none" stroke="midnightblue" d="M235.02,-112.8C213.37,-103.94 178.63,-89.73 153.59,-79.49"/>
<polygon fill="midnightblue" stroke="midnightblue" points="154.76,-76.18 144.18,-75.64 152.11,-82.66 154.76,-76.18"/>
</g>
<!-- Node10&#45;&gt;Node3 -->
<g id="edge15" class="edge">
<title>Node10&#45;&gt;Node3</title>
<path fill="none" stroke="midnightblue" d="M229.59,-56.08C227.58,-48.85 224.68,-38.41 222.18,-29.4"/>
<polygon fill="midnightblue" stroke="midnightblue" points="225.55,-28.45 219.5,-19.75 218.81,-30.32 225.55,-28.45"/>
</g>
<!-- Node11&#45;&gt;Node3 -->
<g id="edge17" class="edge">
<title>Node11&#45;&gt;Node3</title>
<path fill="none" stroke="midnightblue" d="M138.17,-56.32C152.97,-47.82 175.77,-34.73 193.05,-24.8"/>
<polygon fill="midnightblue" stroke="midnightblue" points="195.08,-27.67 202.01,-19.65 191.59,-21.6 195.08,-27.67"/>
</g>
</g>
</svg>
