<?xml version="1.0" encoding="UTF-8" standalone="no"?>
<!DOCTYPE svg PUBLIC "-//W3C//DTD SVG 1.1//EN"
 "http://www.w3.org/Graphics/SVG/1.1/DTD/svg11.dtd">
<!-- Generated by graphviz version 2.43.0 (0)
 -->
<!-- Title: src/vmem_set_sprite_color_s.c Pages: 1 -->
<svg width="533pt" height="263pt"
 viewBox="0.00 0.00 532.50 263.00" xmlns="http://www.w3.org/2000/svg" xmlns:xlink="http://www.w3.org/1999/xlink">
<g id="graph0" class="graph" transform="scale(1 1) rotate(0) translate(4 259)">
<title>src/vmem_set_sprite_color_s.c</title>
<!-- Node1 -->
<g id="node1" class="node">
<title>Node1</title>
<g id="a_node1"><a xlink:title=" ">
<polygon fill="#bfbfbf" stroke="black" points="98,-224.5 98,-254.5 217,-254.5 217,-224.5 98,-224.5"/>
<text text-anchor="start" x="106" y="-242.5" font-family="Helvetica,sans-Serif" font-size="10.00">src/vmem_set_sprite</text>
<text text-anchor="middle" x="157.5" y="-231.5" font-family="Helvetica,sans-Serif" font-size="10.00">_color_s.c</text>
</a>
</g>
</g>
<!-- Node2 -->
<g id="node2" class="node">
<title>Node2</title>
<g id="a_node2"><a xlink:href="vdp_8h.html" target="_top" xlink:title=" ">
<polygon fill="none" stroke="black" points="215,-112.5 215,-131.5 306,-131.5 306,-112.5 215,-112.5"/>
<text text-anchor="middle" x="260.5" y="-119.5" font-family="Helvetica,sans-Serif" font-size="10.00">../include/vdp.h</text>
</a>
</g>
</g>
<!-- Node1&#45;&gt;Node2 -->
<g id="edge1" class="edge">
<title>Node1&#45;&gt;Node2</title>
<path fill="none" stroke="midnightblue" d="M170.13,-224.34C189.28,-202.86 225.57,-162.17 245.85,-139.43"/>
<polygon fill="midnightblue" stroke="midnightblue" points="248.73,-141.46 252.77,-131.67 243.5,-136.8 248.73,-141.46"/>
</g>
<!-- Node7 -->
<g id="node7" class="node">
<title>Node7</title>
<g id="a_node7"><a xlink:href="vmem_8h.html" target="_top" xlink:title=" ">
<polygon fill="none" stroke="black" points="83,-56.5 83,-75.5 140,-75.5 140,-56.5 83,-56.5"/>
<text text-anchor="middle" x="111.5" y="-63.5" font-family="Helvetica,sans-Serif" font-size="10.00">vmem.h</text>
</a>
</g>
</g>
<!-- Node1&#45;&gt;Node7 -->
<g id="edge13" class="edge">
<title>Node1&#45;&gt;Node7</title>
<path fill="none" stroke="midnightblue" d="M153.74,-224.47C145.45,-193.57 125.63,-119.69 116.4,-85.25"/>
<polygon fill="midnightblue" stroke="midnightblue" points="119.77,-84.31 113.8,-75.56 113.01,-86.13 119.77,-84.31"/>
</g>
<!-- Node10 -->
<g id="node10" class="node">
<title>Node10</title>
<g id="a_node10"><a xlink:href="sprite__color_8h.html" target="_top" xlink:title=" ">
<polygon fill="none" stroke="black" points="0,-168.5 0,-187.5 129,-187.5 129,-168.5 0,-168.5"/>
<text text-anchor="middle" x="64.5" y="-175.5" font-family="Helvetica,sans-Serif" font-size="10.00">../include/sprite_color.h</text>
</a>
</g>
</g>
<!-- Node1&#45;&gt;Node10 -->
<g id="edge14" class="edge">
<title>Node1&#45;&gt;Node10</title>
<path fill="none" stroke="midnightblue" d="M135.46,-224.4C120.69,-214.95 101.32,-202.56 86.55,-193.11"/>
<polygon fill="midnightblue" stroke="midnightblue" points="88.34,-190.1 78.03,-187.66 84.57,-196 88.34,-190.1"/>
</g>
<!-- Node3 -->
<g id="node3" class="node">
<title>Node3</title>
<g id="a_node3"><a xlink:title=" ">
<polygon fill="none" stroke="#bfbfbf" points="388.5,-56.5 388.5,-75.5 444.5,-75.5 444.5,-56.5 388.5,-56.5"/>
<text text-anchor="middle" x="416.5" y="-63.5" font-family="Helvetica,sans-Serif" font-size="10.00">assert.h</text>
</a>
</g>
</g>
<!-- Node2&#45;&gt;Node3 -->
<g id="edge2" class="edge">
<title>Node2&#45;&gt;Node3</title>
<path fill="none" stroke="midnightblue" d="M285.22,-112.44C311.35,-103.4 352.76,-89.06 382.08,-78.92"/>
<polygon fill="midnightblue" stroke="midnightblue" points="383.59,-82.1 391.9,-75.52 381.3,-75.48 383.59,-82.1"/>
</g>
<!-- Node4 -->
<g id="node4" class="node">
<title>Node4</title>
<g id="a_node4"><a xlink:title=" ">
<polygon fill="none" stroke="#bfbfbf" points="462.5,-56.5 462.5,-75.5 524.5,-75.5 524.5,-56.5 462.5,-56.5"/>
<text text-anchor="middle" x="493.5" y="-63.5" font-family="Helvetica,sans-Serif" font-size="10.00">stdbool.h</text>
</a>
</g>
</g>
<!-- Node2&#45;&gt;Node4 -->
<g id="edge3" class="edge">
<title>Node2&#45;&gt;Node4</title>
<path fill="none" stroke="midnightblue" d="M297.42,-112.44C339.68,-102.65 408.71,-86.65 452.58,-76.48"/>
<polygon fill="midnightblue" stroke="midnightblue" points="453.39,-79.89 462.35,-74.22 451.81,-73.07 453.39,-79.89"/>
</g>
<!-- Node5 -->
<g id="node5" class="node">
<title>Node5</title>
<g id="a_node5"><a xlink:title=" ">
<polygon fill="none" stroke="#bfbfbf" points="113,-0.5 113,-19.5 166,-19.5 166,-0.5 113,-0.5"/>
<text text-anchor="middle" x="139.5" y="-7.5" font-family="Helvetica,sans-Serif" font-size="10.00">stdint.h</text>
</a>
</g>
</g>
<!-- Node2&#45;&gt;Node5 -->
<g id="edge4" class="edge">
<title>Node2&#45;&gt;Node5</title>
<path fill="none" stroke="midnightblue" d="M242.7,-112.5C227.07,-104.48 204.27,-91.42 187.5,-76 172.23,-61.96 158.59,-42.45 149.78,-28.48"/>
<polygon fill="midnightblue" stroke="midnightblue" points="152.7,-26.53 144.5,-19.82 146.72,-30.18 152.7,-26.53"/>
</g>
<!-- Node6 -->
<g id="node6" class="node">
<title>Node6</title>
<g id="a_node6"><a xlink:href="io_8h.html" target="_top" xlink:title=" ">
<polygon fill="none" stroke="black" points="263,-0.5 263,-19.5 298,-19.5 298,-0.5 263,-0.5"/>
<text text-anchor="middle" x="280.5" y="-7.5" font-family="Helvetica,sans-Serif" font-size="10.00">io.h</text>
</a>
</g>
</g>
<!-- Node2&#45;&gt;Node6 -->
<g id="edge5" class="edge">
<title>Node2&#45;&gt;Node6</title>
<path fill="none" stroke="midnightblue" d="M291.52,-112.44C309.53,-105.69 330.73,-94.3 341.5,-76 353.65,-55.34 328.78,-35.89 307.23,-23.74"/>
<polygon fill="midnightblue" stroke="midnightblue" points="308.78,-20.61 298.31,-19 305.5,-26.79 308.78,-20.61"/>
</g>
<!-- Node2&#45;&gt;Node7 -->
<g id="edge6" class="edge">
<title>Node2&#45;&gt;Node7</title>
<path fill="none" stroke="midnightblue" d="M236.89,-112.44C212.04,-103.44 172.73,-89.19 144.75,-79.05"/>
<polygon fill="midnightblue" stroke="midnightblue" points="145.59,-75.63 135,-75.52 143.21,-82.21 145.59,-75.63"/>
</g>
<!-- Node8 -->
<g id="node8" class="node">
<title>Node8</title>
<g id="a_node8"><a xlink:href="bios_8h.html" target="_top" xlink:title=" ">
<polygon fill="none" stroke="black" points="196.5,-56.5 196.5,-75.5 242.5,-75.5 242.5,-56.5 196.5,-56.5"/>
<text text-anchor="middle" x="219.5" y="-63.5" font-family="Helvetica,sans-Serif" font-size="10.00">bios.h</text>
</a>
</g>
</g>
<!-- Node2&#45;&gt;Node8 -->
<g id="edge9" class="edge">
<title>Node2&#45;&gt;Node8</title>
<path fill="none" stroke="midnightblue" d="M253.73,-112.08C247.94,-104.46 239.44,-93.26 232.36,-83.94"/>
<polygon fill="midnightblue" stroke="midnightblue" points="234.98,-81.6 226.14,-75.75 229.4,-85.83 234.98,-81.6"/>
</g>
<!-- Node9 -->
<g id="node9" class="node">
<title>Node9</title>
<g id="a_node9"><a xlink:href="workarea_8h.html" target="_top" xlink:title=" ">
<polygon fill="none" stroke="black" points="261,-56.5 261,-75.5 332,-75.5 332,-56.5 261,-56.5"/>
<text text-anchor="middle" x="296.5" y="-63.5" font-family="Helvetica,sans-Serif" font-size="10.00">workarea.h</text>
</a>
</g>
</g>
<!-- Node2&#45;&gt;Node9 -->
<g id="edge11" class="edge">
<title>Node2&#45;&gt;Node9</title>
<path fill="none" stroke="midnightblue" d="M266.44,-112.08C271.48,-104.53 278.84,-93.49 285.01,-84.23"/>
<polygon fill="midnightblue" stroke="midnightblue" points="288.03,-86.01 290.67,-75.75 282.21,-82.13 288.03,-86.01"/>
</g>
<!-- Node7&#45;&gt;Node5 -->
<g id="edge7" class="edge">
<title>Node7&#45;&gt;Node5</title>
<path fill="none" stroke="midnightblue" d="M116.12,-56.08C119.96,-48.69 125.52,-37.95 130.26,-28.81"/>
<polygon fill="midnightblue" stroke="midnightblue" points="133.47,-30.24 134.96,-19.75 127.25,-27.02 133.47,-30.24"/>
</g>
<!-- Node7&#45;&gt;Node6 -->
<g id="edge8" class="edge">
<title>Node7&#45;&gt;Node6</title>
<path fill="none" stroke="midnightblue" d="M138.28,-56.44C169.55,-46.45 221.03,-30 252.73,-19.87"/>
<polygon fill="midnightblue" stroke="midnightblue" points="254.2,-23.08 262.66,-16.7 252.07,-16.41 254.2,-23.08"/>
</g>
<!-- Node8&#45;&gt;Node5 -->
<g id="edge10" class="edge">
<title>Node8&#45;&gt;Node5</title>
<path fill="none" stroke="midnightblue" d="M206.65,-56.32C194.28,-47.98 175.37,-35.21 160.76,-25.35"/>
<polygon fill="midnightblue" stroke="midnightblue" points="162.57,-22.35 152.32,-19.65 158.65,-28.15 162.57,-22.35"/>
</g>
<!-- Node9&#45;&gt;Node5 -->
<g id="edge12" class="edge">
<title>Node9&#45;&gt;Node5</title>
<path fill="none" stroke="midnightblue" d="M271.62,-56.44C245.21,-47.36 203.28,-32.94 173.76,-22.78"/>
<polygon fill="midnightblue" stroke="midnightblue" points="174.86,-19.46 164.26,-19.52 172.58,-26.08 174.86,-19.46"/>
</g>
<!-- Node10&#45;&gt;Node5 -->
<g id="edge15" class="edge">
<title>Node10&#45;&gt;Node5</title>
<path fill="none" stroke="midnightblue" d="M54.34,-168.19C45.59,-159.87 33.6,-146.54 28.5,-132 25.56,-123.61 26.1,-120.56 28.5,-112 36.35,-83.96 41.74,-76.42 62.5,-56 76.12,-42.6 94.5,-31.67 109.89,-23.93"/>
<polygon fill="midnightblue" stroke="midnightblue" points="111.52,-27.03 119.01,-19.53 108.48,-20.72 111.52,-27.03"/>
</g>
<!-- Node10&#45;&gt;Node7 -->
<g id="edge19" class="edge">
<title>Node10&#45;&gt;Node7</title>
<path fill="none" stroke="midnightblue" d="M73.46,-168.21C81.56,-159.72 93.18,-146.09 99.5,-132 106.04,-117.42 109.02,-99.48 110.37,-86.14"/>
<polygon fill="midnightblue" stroke="midnightblue" points="113.89,-86.05 111.19,-75.8 106.91,-85.49 113.89,-86.05"/>
</g>
<!-- Node11 -->
<g id="node11" class="node">
<title>Node11</title>
<g id="a_node11"><a xlink:href="sprite_8h.html" target="_top" xlink:title=" ">
<polygon fill="none" stroke="black" points="38,-112.5 38,-131.5 91,-131.5 91,-112.5 38,-112.5"/>
<text text-anchor="middle" x="64.5" y="-119.5" font-family="Helvetica,sans-Serif" font-size="10.00">sprite.h</text>
</a>
</g>
</g>
<!-- Node10&#45;&gt;Node11 -->
<g id="edge16" class="edge">
<title>Node10&#45;&gt;Node11</title>
<path fill="none" stroke="midnightblue" d="M64.5,-168.08C64.5,-161.01 64.5,-150.86 64.5,-141.99"/>
<polygon fill="midnightblue" stroke="midnightblue" points="68,-141.75 64.5,-131.75 61,-141.75 68,-141.75"/>
</g>
<!-- Node11&#45;&gt;Node5 -->
<g id="edge17" class="edge">
<title>Node11&#45;&gt;Node5</title>
<path fill="none" stroke="midnightblue" d="M63.58,-112.26C62.63,-99.04 62.57,-73.62 73.5,-56 82.05,-42.21 96.57,-31.62 109.82,-24.2"/>
<polygon fill="midnightblue" stroke="midnightblue" points="111.46,-27.29 118.7,-19.56 108.21,-21.09 111.46,-27.29"/>
</g>
<!-- Node11&#45;&gt;Node7 -->
<g id="edge18" class="edge">
<title>Node11&#45;&gt;Node7</title>
<path fill="none" stroke="midnightblue" d="M72.26,-112.08C79.04,-104.3 89.04,-92.8 97.26,-83.37"/>
<polygon fill="midnightblue" stroke="midnightblue" points="99.96,-85.59 103.88,-75.75 94.68,-81 99.96,-85.59"/>
</g>
</g>
</svg>
