<?xml version="1.0" encoding="UTF-8" standalone="no"?>
<!DOCTYPE svg PUBLIC "-//W3C//DTD SVG 1.1//EN"
 "http://www.w3.org/Graphics/SVG/1.1/DTD/svg11.dtd">
<!-- Generated by graphviz version 2.43.0 (0)
 -->
<!-- Title: src/vmem_set_sprite_color.c Pages: 1 -->
<svg width="150pt" height="263pt"
 viewBox="0.00 0.00 150.00 263.00" xmlns="http://www.w3.org/2000/svg" xmlns:xlink="http://www.w3.org/1999/xlink">
<g id="graph0" class="graph" transform="scale(1 1) rotate(0) translate(4 259)">
<title>src/vmem_set_sprite_color.c</title>
<!-- Node1 -->
<g id="node1" class="node">
<title>Node1</title>
<g id="a_node1"><a xlink:title=" ">
<polygon fill="#bfbfbf" stroke="black" points="5,-224.5 5,-254.5 124,-254.5 124,-224.5 5,-224.5"/>
<text text-anchor="start" x="13" y="-242.5" font-family="Helvetica,sans-Serif" font-size="10.00">src/vmem_set_sprite</text>
<text text-anchor="middle" x="64.5" y="-231.5" font-family="Helvetica,sans-Serif" font-size="10.00">_color.c</text>
</a>
</g>
</g>
<!-- Node2 -->
<g id="node2" class="node">
<title>Node2</title>
<g id="a_node2"><a xlink:href="sprite__color_8h.html" target="_top" xlink:title=" ">
<polygon fill="none" stroke="black" points="0,-168.5 0,-187.5 129,-187.5 129,-168.5 0,-168.5"/>
<text text-anchor="middle" x="64.5" y="-175.5" font-family="Helvetica,sans-Serif" font-size="10.00">../include/sprite_color.h</text>
</a>
</g>
</g>
<!-- Node1&#45;&gt;Node2 -->
<g id="edge1" class="edge">
<title>Node1&#45;&gt;Node2</title>
<path fill="none" stroke="midnightblue" d="M64.5,-224.4C64.5,-216.47 64.5,-206.46 64.5,-197.86"/>
<polygon fill="midnightblue" stroke="midnightblue" points="68,-197.66 64.5,-187.66 61,-197.66 68,-197.66"/>
</g>
<!-- Node3 -->
<g id="node3" class="node">
<title>Node3</title>
<g id="a_node3"><a xlink:title=" ">
<polygon fill="none" stroke="#bfbfbf" points="26,-0.5 26,-19.5 79,-19.5 79,-0.5 26,-0.5"/>
<text text-anchor="middle" x="52.5" y="-7.5" font-family="Helvetica,sans-Serif" font-size="10.00">stdint.h</text>
</a>
</g>
</g>
<!-- Node2&#45;&gt;Node3 -->
<g id="edge2" class="edge">
<title>Node2&#45;&gt;Node3</title>
<path fill="none" stroke="midnightblue" d="M54.34,-168.19C45.59,-159.87 33.6,-146.54 28.5,-132 16.09,-96.62 31.88,-53.03 43.1,-29.02"/>
<polygon fill="midnightblue" stroke="midnightblue" points="46.4,-30.25 47.68,-19.73 40.12,-27.15 46.4,-30.25"/>
</g>
<!-- Node4 -->
<g id="node4" class="node">
<title>Node4</title>
<g id="a_node4"><a xlink:href="sprite_8h.html" target="_top" xlink:title=" ">
<polygon fill="none" stroke="black" points="38,-112.5 38,-131.5 91,-131.5 91,-112.5 38,-112.5"/>
<text text-anchor="middle" x="64.5" y="-119.5" font-family="Helvetica,sans-Serif" font-size="10.00">sprite.h</text>
</a>
</g>
</g>
<!-- Node2&#45;&gt;Node4 -->
<g id="edge3" class="edge">
<title>Node2&#45;&gt;Node4</title>
<path fill="none" stroke="midnightblue" d="M64.5,-168.08C64.5,-161.01 64.5,-150.86 64.5,-141.99"/>
<polygon fill="midnightblue" stroke="midnightblue" points="68,-141.75 64.5,-131.75 61,-141.75 68,-141.75"/>
</g>
<!-- Node5 -->
<g id="node5" class="node">
<title>Node5</title>
<g id="a_node5"><a xlink:href="vmem_8h.html" target="_top" xlink:title=" ">
<polygon fill="none" stroke="black" points="85,-56.5 85,-75.5 142,-75.5 142,-56.5 85,-56.5"/>
<text text-anchor="middle" x="113.5" y="-63.5" font-family="Helvetica,sans-Serif" font-size="10.00">vmem.h</text>
</a>
</g>
</g>
<!-- Node2&#45;&gt;Node5 -->
<g id="edge8" class="edge">
<title>Node2&#45;&gt;Node5</title>
<path fill="none" stroke="midnightblue" d="M73.05,-168.5C81.11,-159.99 92.89,-146.17 99.5,-132 106.36,-117.29 109.91,-99.13 111.71,-85.74"/>
<polygon fill="midnightblue" stroke="midnightblue" points="115.19,-86.14 112.85,-75.81 108.24,-85.34 115.19,-86.14"/>
</g>
<!-- Node4&#45;&gt;Node3 -->
<g id="edge4" class="edge">
<title>Node4&#45;&gt;Node3</title>
<path fill="none" stroke="midnightblue" d="M63.56,-112.37C61.62,-94.62 57.15,-53.67 54.53,-29.6"/>
<polygon fill="midnightblue" stroke="midnightblue" points="58,-29.15 53.44,-19.59 51.04,-29.91 58,-29.15"/>
</g>
<!-- Node4&#45;&gt;Node5 -->
<g id="edge5" class="edge">
<title>Node4&#45;&gt;Node5</title>
<path fill="none" stroke="midnightblue" d="M72.59,-112.08C79.66,-104.3 90.09,-92.8 98.65,-83.37"/>
<polygon fill="midnightblue" stroke="midnightblue" points="101.43,-85.51 105.56,-75.75 96.25,-80.8 101.43,-85.51"/>
</g>
<!-- Node5&#45;&gt;Node3 -->
<g id="edge6" class="edge">
<title>Node5&#45;&gt;Node3</title>
<path fill="none" stroke="midnightblue" d="M103.7,-56.32C94.68,-48.34 81.09,-36.31 70.18,-26.65"/>
<polygon fill="midnightblue" stroke="midnightblue" points="72.29,-23.84 62.48,-19.83 67.65,-29.08 72.29,-23.84"/>
</g>
<!-- Node6 -->
<g id="node6" class="node">
<title>Node6</title>
<g id="a_node6"><a xlink:href="io_8h.html" target="_top" xlink:title=" ">
<polygon fill="none" stroke="black" points="97,-0.5 97,-19.5 132,-19.5 132,-0.5 97,-0.5"/>
<text text-anchor="middle" x="114.5" y="-7.5" font-family="Helvetica,sans-Serif" font-size="10.00">io.h</text>
</a>
</g>
</g>
<!-- Node5&#45;&gt;Node6 -->
<g id="edge7" class="edge">
<title>Node5&#45;&gt;Node6</title>
<path fill="none" stroke="midnightblue" d="M113.67,-56.08C113.8,-49.01 113.98,-38.86 114.15,-29.99"/>
<polygon fill="midnightblue" stroke="midnightblue" points="117.65,-29.81 114.34,-19.75 110.65,-29.68 117.65,-29.81"/>
</g>
</g>
</svg>
