<?xml version="1.0" encoding="UTF-8" standalone="no"?>
<!DOCTYPE svg PUBLIC "-//W3C//DTD SVG 1.1//EN"
 "http://www.w3.org/Graphics/SVG/1.1/DTD/svg11.dtd">
<!-- Generated by graphviz version 3.0.0 (20221109.1736)
 -->
<!-- Title: include/vmem.h Pages: 1 -->
<svg width="310pt" height="252pt"
 viewBox="0.00 0.00 310.22 252.00" xmlns="http://www.w3.org/2000/svg" xmlns:xlink="http://www.w3.org/1999/xlink">
<g id="graph0" class="graph" transform="scale(1 1) rotate(0) translate(4 248)">
<title>include/vmem.h</title>
<!-- Node1 -->
<g id="node1" class="node">
<title>Node1</title>
<g id="a_node1"><a xlink:title="Data types and functions for VRAM access.">
<polygon fill="#bfbfbf" stroke="black" points="69.12,-224.5 69.12,-243.5 154.12,-243.5 154.12,-224.5 69.12,-224.5"/>
<text text-anchor="middle" x="111.62" y="-231.5" font-family="Helvetica,sans-Serif" font-size="10.00">include/vmem.h</text>
</a>
</g>
</g>
<!-- Node2 -->
<g id="node2" class="node">
<title>Node2</title>
<g id="a_node2"><a xlink:href="metasprite_8h.html" target="_top" xlink:title="Meta&#45;sprite ; an aggregate of sprites.">
<polygon fill="none" stroke="black" points="20.62,-56.5 20.62,-75.5 124.62,-75.5 124.62,-56.5 20.62,-56.5"/>
<text text-anchor="middle" x="72.62" y="-63.5" font-family="Helvetica,sans-Serif" font-size="10.00">include/metasprite.h</text>
</a>
</g>
</g>
<!-- Node1&#45;&gt;Node2 -->
<g id="edge1" class="edge">
<title>Node1&#45;&gt;Node2</title>
<path fill="none" stroke="midnightblue" d="M102.07,-215.48C91.95,-195.83 76.61,-162.68 70.62,-132 68.92,-123.28 70.43,-120.89 70.62,-112 70.9,-99.33 71.63,-84.68 72.13,-75.62"/>
<polygon fill="midnightblue" stroke="midnightblue" points="99.04,-217.24 106.81,-224.44 105.23,-213.96 99.04,-217.24"/>
</g>
<!-- Node3 -->
<g id="node3" class="node">
<title>Node3</title>
<g id="a_node3"><a xlink:href="msx_8h.html" target="_top" xlink:title="Using #include &lt;msx.h&gt; includes almost all C header files in libmsx, for ease to use.">
<polygon fill="none" stroke="black" points="114.62,-0.5 114.62,-19.5 190.62,-19.5 190.62,-0.5 114.62,-0.5"/>
<text text-anchor="middle" x="152.62" y="-7.5" font-family="Helvetica,sans-Serif" font-size="10.00">include/msx.h</text>
</a>
</g>
</g>
<!-- Node1&#45;&gt;Node3 -->
<g id="edge3" class="edge">
<title>Node1&#45;&gt;Node3</title>
<path fill="none" stroke="midnightblue" d="M91.66,-218.12C52.01,-186.77 -29.41,-112.17 11.62,-56 34.97,-24.05 81.25,-14.25 114.42,-11.52"/>
<polygon fill="midnightblue" stroke="midnightblue" points="89.81,-221.12 99.86,-224.47 94.09,-215.58 89.81,-221.12"/>
</g>
<!-- Node4 -->
<g id="node4" class="node">
<title>Node4</title>
<g id="a_node4"><a xlink:href="sprite_8h.html" target="_top" xlink:title="Sprites.">
<polygon fill="none" stroke="black" points="79.62,-112.5 79.62,-131.5 161.62,-131.5 161.62,-112.5 79.62,-112.5"/>
<text text-anchor="middle" x="120.62" y="-119.5" font-family="Helvetica,sans-Serif" font-size="10.00">include/sprite.h</text>
</a>
</g>
</g>
<!-- Node1&#45;&gt;Node4 -->
<g id="edge4" class="edge">
<title>Node1&#45;&gt;Node4</title>
<path fill="none" stroke="midnightblue" d="M113.01,-214.13C113.99,-201.15 115.34,-183.53 116.62,-168 117.67,-155.34 119,-140.68 119.83,-131.62"/>
<polygon fill="midnightblue" stroke="midnightblue" points="109.52,-213.93 112.27,-224.17 116.5,-214.45 109.52,-213.93"/>
</g>
<!-- Node5 -->
<g id="node5" class="node">
<title>Node5</title>
<g id="a_node5"><a xlink:href="sprite__color_8h.html" target="_top" xlink:title="Sprite color table interface.">
<polygon fill="none" stroke="black" points="180.62,-56.5 180.62,-75.5 288.62,-75.5 288.62,-56.5 180.62,-56.5"/>
<text text-anchor="middle" x="234.62" y="-63.5" font-family="Helvetica,sans-Serif" font-size="10.00">include/sprite_color.h</text>
</a>
</g>
</g>
<!-- Node1&#45;&gt;Node5 -->
<g id="edge9" class="edge">
<title>Node1&#45;&gt;Node5</title>
<path fill="none" stroke="midnightblue" d="M164.24,-225.56C206.88,-218.33 262.03,-205.82 275.62,-188 302.93,-152.2 261.15,-97.09 242.68,-75.81"/>
<polygon fill="midnightblue" stroke="midnightblue" points="163.55,-222.13 154.25,-227.2 164.69,-229.04 163.55,-222.13"/>
</g>
<!-- Node6 -->
<g id="node6" class="node">
<title>Node6</title>
<g id="a_node6"><a xlink:href="vdp_8h.html" target="_top" xlink:title="Data types and functions for VDP (Video Display Proccessor) access.">
<polygon fill="none" stroke="black" points="179.62,-112.5 179.62,-131.5 253.62,-131.5 253.62,-112.5 179.62,-112.5"/>
<text text-anchor="middle" x="216.62" y="-119.5" font-family="Helvetica,sans-Serif" font-size="10.00">include/vdp.h</text>
</a>
</g>
</g>
<!-- Node1&#45;&gt;Node6 -->
<g id="edge10" class="edge">
<title>Node1&#45;&gt;Node6</title>
<path fill="none" stroke="midnightblue" d="M119.54,-214.74C126.17,-200.84 136.64,-181.82 149.62,-168 164.21,-152.48 185.09,-139.52 199.65,-131.56"/>
<polygon fill="midnightblue" stroke="midnightblue" points="116.19,-213.64 115.23,-224.19 122.56,-216.54 116.19,-213.64"/>
</g>
<!-- Node7 -->
<g id="node7" class="node">
<title>Node7</title>
<g id="a_node7"><a xlink:href="vdp__unsafe_8h.html" target="_top" xlink:title="Unsafe primitive functions for VDP (Video Display Proccessor) access.">
<polygon fill="none" stroke="black" points="158.62,-168.5 158.62,-187.5 266.62,-187.5 266.62,-168.5 158.62,-168.5"/>
<text text-anchor="middle" x="212.62" y="-175.5" font-family="Helvetica,sans-Serif" font-size="10.00">include/vdp_unsafe.h</text>
</a>
</g>
</g>
<!-- Node1&#45;&gt;Node7 -->
<g id="edge13" class="edge">
<title>Node1&#45;&gt;Node7</title>
<path fill="none" stroke="midnightblue" d="M136.71,-219.59C155.38,-209.61 180.33,-196.27 196.44,-187.65"/>
<polygon fill="midnightblue" stroke="midnightblue" points="135.02,-216.52 127.85,-224.32 138.32,-222.7 135.02,-216.52"/>
</g>
<!-- Node2&#45;&gt;Node3 -->
<g id="edge2" class="edge">
<title>Node2&#45;&gt;Node3</title>
<path fill="none" stroke="midnightblue" d="M93.92,-50.62C108.54,-40.76 127.45,-27.99 139.8,-19.65"/>
<polygon fill="midnightblue" stroke="midnightblue" points="91.81,-47.83 85.48,-56.32 95.72,-53.63 91.81,-47.83"/>
</g>
<!-- Node4&#45;&gt;Node2 -->
<g id="edge5" class="edge">
<title>Node4&#45;&gt;Node2</title>
<path fill="none" stroke="midnightblue" d="M105.89,-104.43C97.48,-94.97 87.27,-83.48 80.4,-75.75"/>
<polygon fill="midnightblue" stroke="midnightblue" points="103.44,-106.93 112.7,-112.08 108.67,-102.28 103.44,-106.93"/>
</g>
<!-- Node4&#45;&gt;Node3 -->
<g id="edge6" class="edge">
<title>Node4&#45;&gt;Node3</title>
<path fill="none" stroke="midnightblue" d="M125.95,-102.67C132.95,-78.62 144.95,-37.39 150.12,-19.59"/>
<polygon fill="midnightblue" stroke="midnightblue" points="122.57,-101.79 123.13,-112.37 129.29,-103.74 122.57,-101.79"/>
</g>
<!-- Node4&#45;&gt;Node5 -->
<g id="edge7" class="edge">
<title>Node4&#45;&gt;Node5</title>
<path fill="none" stroke="midnightblue" d="M147.86,-108.1C169.16,-98.01 198.16,-84.27 216.64,-75.52"/>
<polygon fill="midnightblue" stroke="midnightblue" points="146.23,-105 138.69,-112.44 149.22,-111.33 146.23,-105"/>
</g>
<!-- Node5&#45;&gt;Node3 -->
<g id="edge8" class="edge">
<title>Node5&#45;&gt;Node3</title>
<path fill="none" stroke="midnightblue" d="M212.79,-50.62C197.81,-40.76 178.43,-27.99 165.76,-19.65"/>
<polygon fill="midnightblue" stroke="midnightblue" points="211.17,-53.75 221.45,-56.32 215.02,-47.9 211.17,-53.75"/>
</g>
<!-- Node6&#45;&gt;Node2 -->
<g id="edge11" class="edge">
<title>Node6&#45;&gt;Node2</title>
<path fill="none" stroke="midnightblue" d="M184.37,-108.91C157.3,-98.75 119.31,-84.51 95.33,-75.52"/>
<polygon fill="midnightblue" stroke="midnightblue" points="183.21,-112.21 193.81,-112.44 185.67,-105.66 183.21,-112.21"/>
</g>
<!-- Node6&#45;&gt;Node3 -->
<g id="edge12" class="edge">
<title>Node6&#45;&gt;Node3</title>
<path fill="none" stroke="midnightblue" d="M253,-108.83C281.59,-97.25 314.05,-78.3 297.62,-56 273.31,-23 225.04,-13.49 190.88,-11.1"/>
<polygon fill="midnightblue" stroke="midnightblue" points="251.61,-105.62 243.53,-112.47 254.12,-112.15 251.61,-105.62"/>
</g>
<!-- Node7&#45;&gt;Node6 -->
<g id="edge14" class="edge">
<title>Node7&#45;&gt;Node6</title>
<path fill="none" stroke="midnightblue" d="M214.02,-158.1C214.69,-149.14 215.45,-138.86 215.97,-131.75"/>
<polygon fill="midnightblue" stroke="midnightblue" points="210.53,-157.85 213.28,-168.08 217.51,-158.37 210.53,-157.85"/>
</g>
</g>
</svg>
