<?xml version="1.0" encoding="UTF-8" standalone="no"?>
<!DOCTYPE svg PUBLIC "-//W3C//DTD SVG 1.1//EN"
 "http://www.w3.org/Graphics/SVG/1.1/DTD/svg11.dtd">
<!-- Generated by graphviz version 2.49.3 (20211027.1534)
 -->
<!-- Title: src/vmem_set_sprite_color_m.c Pages: 1 -->
<svg width="140pt" height="319pt"
 viewBox="0.00 0.00 140.00 319.00" xmlns="http://www.w3.org/2000/svg" xmlns:xlink="http://www.w3.org/1999/xlink">
<g id="graph0" class="graph" transform="scale(1 1) rotate(0) translate(4 315)">
<title>src/vmem_set_sprite_color_m.c</title>
<!-- Node1 -->
<g id="node1" class="node">
<title>Node1</title>
<g id="a_node1"><a xlink:title="Copyright (c) 2021 Daishi Mori (mori0091)">
<polygon fill="#bfbfbf" stroke="black" points="4,-280.5 4,-310.5 112,-310.5 112,-280.5 4,-280.5"/>
<text text-anchor="start" x="12" y="-298.5" font-family="Helvetica,sans-Serif" font-size="10.00">src/vmem_set_sprite</text>
<text text-anchor="middle" x="58" y="-287.5" font-family="Helvetica,sans-Serif" font-size="10.00">_color_m.c</text>
</a>
</g>
</g>
<!-- Node2 -->
<g id="node2" class="node">
<title>Node2</title>
<g id="a_node2"><a xlink:href="sprite__color_8h.html" target="_top" xlink:title="Copyright (c) 2021 Daishi Mori (mori0091)">
<polygon fill="none" stroke="black" points="0,-224.5 0,-243.5 116,-243.5 116,-224.5 0,-224.5"/>
<text text-anchor="middle" x="58" y="-231.5" font-family="Helvetica,sans-Serif" font-size="10.00">../include/sprite_color.h</text>
</a>
</g>
</g>
<!-- Node1&#45;&gt;Node2 -->
<g id="edge1" class="edge">
<title>Node1&#45;&gt;Node2</title>
<path fill="none" stroke="midnightblue" d="M58,-280.4C58,-272.47 58,-262.46 58,-253.86"/>
<polygon fill="midnightblue" stroke="midnightblue" points="61.5,-253.66 58,-243.66 54.5,-253.66 61.5,-253.66"/>
</g>
<!-- Node3 -->
<g id="node3" class="node">
<title>Node3</title>
<g id="a_node3"><a xlink:title=" ">
<polygon fill="none" stroke="#bfbfbf" points="25,-56.5 25,-75.5 73,-75.5 73,-56.5 25,-56.5"/>
<text text-anchor="middle" x="49" y="-63.5" font-family="Helvetica,sans-Serif" font-size="10.00">stdint.h</text>
</a>
</g>
</g>
<!-- Node2&#45;&gt;Node3 -->
<g id="edge2" class="edge">
<title>Node2&#45;&gt;Node3</title>
<path fill="none" stroke="midnightblue" d="M48.98,-224.34C40.93,-215.93 29.7,-202.36 25,-188 13.33,-152.36 28.85,-108.87 39.83,-84.94"/>
<polygon fill="midnightblue" stroke="midnightblue" points="43.1,-86.22 44.3,-75.69 36.8,-83.17 43.1,-86.22"/>
</g>
<!-- Node4 -->
<g id="node4" class="node">
<title>Node4</title>
<g id="a_node4"><a xlink:href="sprite_8h.html" target="_top" xlink:title="Copyright (c) 2021 Daishi Mori (mori0091)">
<polygon fill="none" stroke="black" points="34,-168.5 34,-187.5 82,-187.5 82,-168.5 34,-168.5"/>
<text text-anchor="middle" x="58" y="-175.5" font-family="Helvetica,sans-Serif" font-size="10.00">sprite.h</text>
</a>
</g>
</g>
<!-- Node2&#45;&gt;Node4 -->
<g id="edge3" class="edge">
<title>Node2&#45;&gt;Node4</title>
<path fill="none" stroke="midnightblue" d="M58,-224.08C58,-217.01 58,-206.86 58,-197.99"/>
<polygon fill="midnightblue" stroke="midnightblue" points="61.5,-197.75 58,-187.75 54.5,-197.75 61.5,-197.75"/>
</g>
<!-- Node5 -->
<g id="node5" class="node">
<title>Node5</title>
<g id="a_node5"><a xlink:href="vmem_8h.html" target="_top" xlink:title="Data types and functions for VRAM access.">
<polygon fill="none" stroke="black" points="80.5,-112.5 80.5,-131.5 131.5,-131.5 131.5,-112.5 80.5,-112.5"/>
<text text-anchor="middle" x="106" y="-119.5" font-family="Helvetica,sans-Serif" font-size="10.00">vmem.h</text>
</a>
</g>
</g>
<!-- Node2&#45;&gt;Node5 -->
<g id="edge9" class="edge">
<title>Node2&#45;&gt;Node5</title>
<path fill="none" stroke="midnightblue" d="M66,-224.38C73.55,-215.8 84.62,-201.92 91,-188 97.79,-173.19 101.64,-155.04 103.74,-141.69"/>
<polygon fill="midnightblue" stroke="midnightblue" points="107.21,-142.16 105.12,-131.77 100.27,-141.2 107.21,-142.16"/>
</g>
<!-- Node4&#45;&gt;Node3 -->
<g id="edge4" class="edge">
<title>Node4&#45;&gt;Node3</title>
<path fill="none" stroke="midnightblue" d="M57.29,-168.37C55.84,-150.62 52.49,-109.67 50.52,-85.6"/>
<polygon fill="midnightblue" stroke="midnightblue" points="54.01,-85.27 49.7,-75.59 47.03,-85.84 54.01,-85.27"/>
</g>
<!-- Node4&#45;&gt;Node5 -->
<g id="edge5" class="edge">
<title>Node4&#45;&gt;Node5</title>
<path fill="none" stroke="midnightblue" d="M65.93,-168.08C72.85,-160.3 83.07,-148.8 91.45,-139.37"/>
<polygon fill="midnightblue" stroke="midnightblue" points="94.19,-141.55 98.22,-131.75 88.96,-136.9 94.19,-141.55"/>
</g>
<!-- Node5&#45;&gt;Node3 -->
<g id="edge6" class="edge">
<title>Node5&#45;&gt;Node3</title>
<path fill="none" stroke="midnightblue" d="M96.84,-112.32C88.5,-104.42 75.97,-92.55 65.82,-82.94"/>
<polygon fill="midnightblue" stroke="midnightblue" points="67.99,-80.17 58.32,-75.83 63.18,-85.25 67.99,-80.17"/>
</g>
<!-- Node6 -->
<g id="node6" class="node">
<title>Node6</title>
<g id="a_node6"><a xlink:href="io_8h.html" target="_top" xlink:title="Copyright (c) 2021 Daishi Mori (mori0091)">
<polygon fill="none" stroke="black" points="91,-56.5 91,-75.5 123,-75.5 123,-56.5 91,-56.5"/>
<text text-anchor="middle" x="107" y="-63.5" font-family="Helvetica,sans-Serif" font-size="10.00">io.h</text>
</a>
</g>
</g>
<!-- Node5&#45;&gt;Node6 -->
<g id="edge7" class="edge">
<title>Node5&#45;&gt;Node6</title>
<path fill="none" stroke="midnightblue" d="M106.17,-112.08C106.3,-105.01 106.48,-94.86 106.65,-85.99"/>
<polygon fill="midnightblue" stroke="midnightblue" points="110.15,-85.81 106.84,-75.75 103.15,-85.68 110.15,-85.81"/>
</g>
<!-- Node7 -->
<g id="node7" class="node">
<title>Node7</title>
<g id="a_node7"><a xlink:href="config_8h.html" target="_top" xlink:title="Copyright (c) 2022 Daishi Mori (mori0091)">
<polygon fill="none" stroke="black" points="82,-0.5 82,-19.5 132,-19.5 132,-0.5 82,-0.5"/>
<text text-anchor="middle" x="107" y="-7.5" font-family="Helvetica,sans-Serif" font-size="10.00">config.h</text>
</a>
</g>
</g>
<!-- Node6&#45;&gt;Node7 -->
<g id="edge8" class="edge">
<title>Node6&#45;&gt;Node7</title>
<path fill="none" stroke="midnightblue" d="M107,-56.08C107,-49.01 107,-38.86 107,-29.99"/>
<polygon fill="midnightblue" stroke="midnightblue" points="110.5,-29.75 107,-19.75 103.5,-29.75 110.5,-29.75"/>
</g>
</g>
</svg>
