<?xml version="1.0" encoding="UTF-8" standalone="no"?>
<!DOCTYPE svg PUBLIC "-//W3C//DTD SVG 1.1//EN"
 "http://www.w3.org/Graphics/SVG/1.1/DTD/svg11.dtd">
<!-- Generated by graphviz version 3.0.0 (20220413.0106)
 -->
<!-- Title: src/vmem_set_metasprite_m.c Pages: 1 -->
<svg width="484pt" height="308pt"
 viewBox="0.00 0.00 484.22 308.00" xmlns="http://www.w3.org/2000/svg" xmlns:xlink="http://www.w3.org/1999/xlink">
<g id="graph0" class="graph" transform="scale(1 1) rotate(0) translate(4 304)">
<title>src/vmem_set_metasprite_m.c</title>
<!-- Node1 -->
<g id="node1" class="node">
<title>Node1</title>
<g id="a_node1"><a xlink:title="Copyright (c) 2021 Daishi Mori (mori0091)">
<polygon fill="#bfbfbf" stroke="black" points="256.72,-280.5 256.72,-299.5 407.72,-299.5 407.72,-280.5 256.72,-280.5"/>
<text text-anchor="middle" x="332.22" y="-287.5" font-family="Helvetica,sans-Serif" font-size="10.00">src/vmem_set_metasprite_m.c</text>
</a>
</g>
</g>
<!-- Node2 -->
<g id="node2" class="node">
<title>Node2</title>
<g id="a_node2"><a xlink:href="sprite_8h.html" target="_top" xlink:title="Copyright (c) 2021 Daishi Mori (mori0091)">
<polygon fill="none" stroke="black" points="294.72,-168.5 294.72,-187.5 383.72,-187.5 383.72,-168.5 294.72,-168.5"/>
<text text-anchor="middle" x="339.22" y="-175.5" font-family="Helvetica,sans-Serif" font-size="10.00">../include/sprite.h</text>
</a>
</g>
</g>
<!-- Node1&#45;&gt;Node2 -->
<g id="edge1" class="edge">
<title>Node1&#45;&gt;Node2</title>
<path fill="none" stroke="midnightblue" d="M332.77,-280.37C333.89,-262.62 336.5,-221.67 338.03,-197.6"/>
<polygon fill="midnightblue" stroke="midnightblue" points="341.53,-197.79 338.67,-187.59 334.54,-197.35 341.53,-197.79"/>
</g>
<!-- Node6 -->
<g id="node6" class="node">
<title>Node6</title>
<g id="a_node6"><a xlink:href="sprite__color_8h.html" target="_top" xlink:title="Copyright (c) 2021 Daishi Mori (mori0091)">
<polygon fill="none" stroke="black" points="360.22,-224.5 360.22,-243.5 476.22,-243.5 476.22,-224.5 360.22,-224.5"/>
<text text-anchor="middle" x="418.22" y="-231.5" font-family="Helvetica,sans-Serif" font-size="10.00">../include/sprite_color.h</text>
</a>
</g>
</g>
<!-- Node1&#45;&gt;Node6 -->
<g id="edge6" class="edge">
<title>Node1&#45;&gt;Node6</title>
<path fill="none" stroke="midnightblue" d="M346.03,-280.32C359.45,-271.9 380.04,-258.97 395.8,-249.07"/>
<polygon fill="midnightblue" stroke="midnightblue" points="397.83,-251.94 404.43,-243.65 394.1,-246.01 397.83,-251.94"/>
</g>
<!-- Node7 -->
<g id="node7" class="node">
<title>Node7</title>
<g id="a_node7"><a xlink:href="metasprite_8h.html" target="_top" xlink:title="Copyright (c) 2021 Daishi Mori (mori0091)">
<polygon fill="none" stroke="black" points="192.72,-224.5 192.72,-243.5 303.72,-243.5 303.72,-224.5 192.72,-224.5"/>
<text text-anchor="middle" x="248.22" y="-231.5" font-family="Helvetica,sans-Serif" font-size="10.00">../include/metasprite.h</text>
</a>
</g>
</g>
<!-- Node1&#45;&gt;Node7 -->
<g id="edge10" class="edge">
<title>Node1&#45;&gt;Node7</title>
<path fill="none" stroke="midnightblue" d="M318.72,-280.32C305.62,-271.9 285.5,-258.97 270.11,-249.07"/>
<polygon fill="midnightblue" stroke="midnightblue" points="271.98,-246.12 261.68,-243.65 268.2,-252.01 271.98,-246.12"/>
</g>
<!-- Node3 -->
<g id="node3" class="node">
<title>Node3</title>
<g id="a_node3"><a xlink:title=" ">
<polygon fill="none" stroke="#bfbfbf" points="194.22,-0.5 194.22,-19.5 242.22,-19.5 242.22,-0.5 194.22,-0.5"/>
<text text-anchor="middle" x="218.22" y="-7.5" font-family="Helvetica,sans-Serif" font-size="10.00">stdint.h</text>
</a>
</g>
</g>
<!-- Node2&#45;&gt;Node3 -->
<g id="edge2" class="edge">
<title>Node2&#45;&gt;Node3</title>
<path fill="none" stroke="midnightblue" d="M352,-168.37C362.61,-160.36 376.95,-147.38 383.22,-132 391.19,-112.43 381.01,-64.67 373.22,-56 342.73,-22.11 288.41,-13.12 252.84,-11.07"/>
<polygon fill="midnightblue" stroke="midnightblue" points="252.59,-7.56 242.46,-10.64 252.3,-14.55 252.59,-7.56"/>
</g>
<!-- Node4 -->
<g id="node4" class="node">
<title>Node4</title>
<g id="a_node4"><a xlink:href="vmem_8h.html" target="_top" xlink:title="Data types and functions for VRAM access.">
<polygon fill="none" stroke="black" points="323.72,-112.5 323.72,-131.5 374.72,-131.5 374.72,-112.5 323.72,-112.5"/>
<text text-anchor="middle" x="349.22" y="-119.5" font-family="Helvetica,sans-Serif" font-size="10.00">vmem.h</text>
</a>
</g>
</g>
<!-- Node2&#45;&gt;Node4 -->
<g id="edge3" class="edge">
<title>Node2&#45;&gt;Node4</title>
<path fill="none" stroke="midnightblue" d="M340.87,-168.08C342.19,-160.93 344.1,-150.64 345.75,-141.69"/>
<polygon fill="midnightblue" stroke="midnightblue" points="349.22,-142.22 347.6,-131.75 342.33,-140.95 349.22,-142.22"/>
</g>
<!-- Node4&#45;&gt;Node3 -->
<g id="edge4" class="edge">
<title>Node4&#45;&gt;Node3</title>
<path fill="none" stroke="midnightblue" d="M353.27,-112.48C359,-99.08 367.45,-72.89 355.22,-56 332,-23.94 285.19,-14.31 252.8,-11.64"/>
<polygon fill="midnightblue" stroke="midnightblue" points="252.62,-8.12 242.42,-10.98 252.18,-15.11 252.62,-8.12"/>
</g>
<!-- Node5 -->
<g id="node5" class="node">
<title>Node5</title>
<g id="a_node5"><a xlink:href="io_8h.html" target="_top" xlink:title="Copyright (c) 2021 Daishi Mori (mori0091)">
<polygon fill="none" stroke="black" points="314.22,-56.5 314.22,-75.5 346.22,-75.5 346.22,-56.5 314.22,-56.5"/>
<text text-anchor="middle" x="330.22" y="-63.5" font-family="Helvetica,sans-Serif" font-size="10.00">io.h</text>
</a>
</g>
</g>
<!-- Node4&#45;&gt;Node5 -->
<g id="edge5" class="edge">
<title>Node4&#45;&gt;Node5</title>
<path fill="none" stroke="midnightblue" d="M346.08,-112.08C343.53,-104.85 339.86,-94.41 336.69,-85.4"/>
<polygon fill="midnightblue" stroke="midnightblue" points="339.92,-84.02 333.29,-75.75 333.31,-86.35 339.92,-84.02"/>
</g>
<!-- Node6&#45;&gt;Node2 -->
<g id="edge8" class="edge">
<title>Node6&#45;&gt;Node2</title>
<path fill="none" stroke="midnightblue" d="M405.52,-224.32C393.31,-215.98 374.64,-203.21 360.21,-193.35"/>
<polygon fill="midnightblue" stroke="midnightblue" points="362.11,-190.41 351.88,-187.65 358.16,-196.19 362.11,-190.41"/>
</g>
<!-- Node6&#45;&gt;Node3 -->
<g id="edge7" class="edge">
<title>Node6&#45;&gt;Node3</title>
<path fill="none" stroke="midnightblue" d="M419.98,-224.22C425.14,-195.75 437.17,-104.95 392.22,-56 373.52,-35.64 297.34,-21.9 252.21,-15.38"/>
<polygon fill="midnightblue" stroke="midnightblue" points="252.66,-11.91 242.27,-13.99 251.69,-18.84 252.66,-11.91"/>
</g>
<!-- Node6&#45;&gt;Node4 -->
<g id="edge9" class="edge">
<title>Node6&#45;&gt;Node4</title>
<path fill="none" stroke="midnightblue" d="M415.83,-224.08C412.1,-211.06 404.05,-186.4 392.22,-168 385.31,-157.26 375.61,-146.84 367.17,-138.74"/>
<polygon fill="midnightblue" stroke="midnightblue" points="369.32,-135.96 359.6,-131.75 364.57,-141.1 369.32,-135.96"/>
</g>
<!-- Node7&#45;&gt;Node2 -->
<g id="edge26" class="edge">
<title>Node7&#45;&gt;Node2</title>
<path fill="none" stroke="midnightblue" d="M262.84,-224.32C277.16,-215.82 299.23,-202.73 315.96,-192.8"/>
<polygon fill="midnightblue" stroke="midnightblue" points="317.82,-195.77 324.63,-187.65 314.25,-189.75 317.82,-195.77"/>
</g>
<!-- Node7&#45;&gt;Node3 -->
<g id="edge11" class="edge">
<title>Node7&#45;&gt;Node3</title>
<path fill="none" stroke="midnightblue" d="M207.35,-224.41C157.96,-212.05 75.28,-184.68 25.22,-132 6.8,-112.62 8.19,-102.27 3.22,-76 1.56,-67.27 -2.39,-62.9 3.22,-56 25.59,-28.46 129.05,-17.18 183.88,-13.07"/>
<polygon fill="midnightblue" stroke="midnightblue" points="184.43,-16.54 194.16,-12.34 183.94,-9.56 184.43,-16.54"/>
</g>
<!-- Node7&#45;&gt;Node4 -->
<g id="edge25" class="edge">
<title>Node7&#45;&gt;Node4</title>
<path fill="none" stroke="midnightblue" d="M251.72,-224.23C257.33,-210.96 269.32,-185.49 285.22,-168 296.46,-155.63 311.7,-144.75 324.48,-136.78"/>
<polygon fill="midnightblue" stroke="midnightblue" points="326.48,-139.66 333.26,-131.52 322.88,-133.66 326.48,-139.66"/>
</g>
<!-- Node8 -->
<g id="node8" class="node">
<title>Node8</title>
<g id="a_node8"><a xlink:href="vdp_8h.html" target="_top" xlink:title="Data types and functions for VDP (Video Display Proccessor) access.">
<polygon fill="none" stroke="black" points="189.22,-168.5 189.22,-187.5 229.22,-187.5 229.22,-168.5 189.22,-168.5"/>
<text text-anchor="middle" x="209.22" y="-175.5" font-family="Helvetica,sans-Serif" font-size="10.00">vdp.h</text>
</a>
</g>
</g>
<!-- Node7&#45;&gt;Node8 -->
<g id="edge12" class="edge">
<title>Node7&#45;&gt;Node8</title>
<path fill="none" stroke="midnightblue" d="M241.78,-224.08C236.27,-216.46 228.18,-205.26 221.45,-195.94"/>
<polygon fill="midnightblue" stroke="midnightblue" points="224.23,-193.81 215.54,-187.75 218.55,-197.91 224.23,-193.81"/>
</g>
<!-- Node8&#45;&gt;Node3 -->
<g id="edge15" class="edge">
<title>Node8&#45;&gt;Node3</title>
<path fill="none" stroke="midnightblue" d="M206.58,-168.24C202.27,-154.99 192.72,-129.53 178.22,-112 157.14,-86.52 111.89,-84.17 129.22,-56 141.24,-36.44 164.69,-25.07 184.5,-18.66"/>
<polygon fill="midnightblue" stroke="midnightblue" points="185.55,-21.99 194.15,-15.81 183.57,-15.28 185.55,-21.99"/>
</g>
<!-- Node8&#45;&gt;Node4 -->
<g id="edge17" class="edge">
<title>Node8&#45;&gt;Node4</title>
<path fill="none" stroke="midnightblue" d="M229.27,-169.26C252.3,-160.38 290.38,-145.69 317.45,-135.25"/>
<polygon fill="midnightblue" stroke="midnightblue" points="318.81,-138.48 326.88,-131.62 316.29,-131.95 318.81,-138.48"/>
</g>
<!-- Node8&#45;&gt;Node5 -->
<g id="edge16" class="edge">
<title>Node8&#45;&gt;Node5</title>
<path fill="none" stroke="midnightblue" d="M224.47,-168.47C238.66,-160.16 259.99,-146.65 276.22,-132 292.47,-117.32 308.13,-97.66 318.36,-83.81"/>
<polygon fill="midnightblue" stroke="midnightblue" points="321.23,-85.82 324.26,-75.67 315.56,-81.72 321.23,-85.82"/>
</g>
<!-- Node9 -->
<g id="node9" class="node">
<title>Node9</title>
<g id="a_node9"><a xlink:title=" ">
<polygon fill="none" stroke="#bfbfbf" points="43.72,-112.5 43.72,-131.5 94.72,-131.5 94.72,-112.5 43.72,-112.5"/>
<text text-anchor="middle" x="69.22" y="-119.5" font-family="Helvetica,sans-Serif" font-size="10.00">assert.h</text>
</a>
</g>
</g>
<!-- Node8&#45;&gt;Node9 -->
<g id="edge13" class="edge">
<title>Node8&#45;&gt;Node9</title>
<path fill="none" stroke="midnightblue" d="M189.16,-169.26C166.13,-160.38 128.05,-145.69 100.98,-135.25"/>
<polygon fill="midnightblue" stroke="midnightblue" points="102.14,-131.95 91.55,-131.62 99.62,-138.48 102.14,-131.95"/>
</g>
<!-- Node10 -->
<g id="node10" class="node">
<title>Node10</title>
<g id="a_node10"><a xlink:title=" ">
<polygon fill="none" stroke="#bfbfbf" points="113.22,-112.5 113.22,-131.5 169.22,-131.5 169.22,-112.5 113.22,-112.5"/>
<text text-anchor="middle" x="141.22" y="-119.5" font-family="Helvetica,sans-Serif" font-size="10.00">stdbool.h</text>
</a>
</g>
</g>
<!-- Node8&#45;&gt;Node10 -->
<g id="edge14" class="edge">
<title>Node8&#45;&gt;Node10</title>
<path fill="none" stroke="midnightblue" d="M198.29,-168.32C188.04,-160.18 172.5,-147.84 160.21,-138.09"/>
<polygon fill="midnightblue" stroke="midnightblue" points="162.35,-135.31 152.34,-131.83 157.99,-140.79 162.35,-135.31"/>
</g>
<!-- Node11 -->
<g id="node11" class="node">
<title>Node11</title>
<g id="a_node11"><a xlink:href="bios_8h.html" target="_top" xlink:title="Copyright (c) 2021 Daishi Mori (mori0091)">
<polygon fill="none" stroke="black" points="225.22,-112.5 225.22,-131.5 267.22,-131.5 267.22,-112.5 225.22,-112.5"/>
<text text-anchor="middle" x="246.22" y="-119.5" font-family="Helvetica,sans-Serif" font-size="10.00">bios.h</text>
</a>
</g>
</g>
<!-- Node8&#45;&gt;Node11 -->
<g id="edge18" class="edge">
<title>Node8&#45;&gt;Node11</title>
<path fill="none" stroke="midnightblue" d="M215.33,-168.08C220.5,-160.53 228.06,-149.49 234.41,-140.23"/>
<polygon fill="midnightblue" stroke="midnightblue" points="237.45,-141.98 240.22,-131.75 231.68,-138.02 237.45,-141.98"/>
</g>
<!-- Node14 -->
<g id="node14" class="node">
<title>Node14</title>
<g id="a_node14"><a xlink:href="workarea_8h.html" target="_top" xlink:title="Copyright (c) 2021 Daishi Mori (mori0091)">
<polygon fill="none" stroke="black" points="12.22,-56.5 12.22,-75.5 76.22,-75.5 76.22,-56.5 12.22,-56.5"/>
<text text-anchor="middle" x="44.22" y="-63.5" font-family="Helvetica,sans-Serif" font-size="10.00">workarea.h</text>
</a>
</g>
</g>
<!-- Node8&#45;&gt;Node14 -->
<g id="edge23" class="edge">
<title>Node8&#45;&gt;Node14</title>
<path fill="none" stroke="midnightblue" d="M188.95,-174.86C147.05,-169.97 53.2,-156.48 34.22,-132 23.86,-118.64 28.83,-98.99 34.86,-84.8"/>
<polygon fill="midnightblue" stroke="midnightblue" points="38.1,-86.13 39.23,-75.59 31.78,-83.12 38.1,-86.13"/>
</g>
<!-- Node12 -->
<g id="node12" class="node">
<title>Node12</title>
<g id="a_node12"><a xlink:href="bios__const_8h.html" target="_top" xlink:title="Constant variables in the MSX BIOS ROM.">
<polygon fill="none" stroke="black" points="138.72,-56.5 138.72,-75.5 209.72,-75.5 209.72,-56.5 138.72,-56.5"/>
<text text-anchor="middle" x="174.22" y="-63.5" font-family="Helvetica,sans-Serif" font-size="10.00">bios_const.h</text>
</a>
</g>
</g>
<!-- Node11&#45;&gt;Node12 -->
<g id="edge19" class="edge">
<title>Node11&#45;&gt;Node12</title>
<path fill="none" stroke="midnightblue" d="M234.65,-112.32C223.8,-104.18 207.34,-91.84 194.33,-82.09"/>
<polygon fill="midnightblue" stroke="midnightblue" points="196.09,-79.03 185.99,-75.83 191.89,-84.63 196.09,-79.03"/>
</g>
<!-- Node13 -->
<g id="node13" class="node">
<title>Node13</title>
<g id="a_node13"><a xlink:href="bios__entry_8h.html" target="_top" xlink:title="Assembler entry points for MSX BIOS functions.">
<polygon fill="none" stroke="black" points="228.22,-56.5 228.22,-75.5 296.22,-75.5 296.22,-56.5 228.22,-56.5"/>
<text text-anchor="middle" x="262.22" y="-63.5" font-family="Helvetica,sans-Serif" font-size="10.00">bios_entry.h</text>
</a>
</g>
</g>
<!-- Node11&#45;&gt;Node13 -->
<g id="edge21" class="edge">
<title>Node11&#45;&gt;Node13</title>
<path fill="none" stroke="midnightblue" d="M248.86,-112.08C251,-104.85 254.09,-94.41 256.76,-85.4"/>
<polygon fill="midnightblue" stroke="midnightblue" points="260.14,-86.33 259.62,-75.75 253.43,-84.34 260.14,-86.33"/>
</g>
<!-- Node12&#45;&gt;Node3 -->
<g id="edge20" class="edge">
<title>Node12&#45;&gt;Node3</title>
<path fill="none" stroke="midnightblue" d="M181.48,-56.08C187.76,-48.38 197,-37.03 204.65,-27.65"/>
<polygon fill="midnightblue" stroke="midnightblue" points="207.48,-29.71 211.09,-19.75 202.06,-25.29 207.48,-29.71"/>
</g>
<!-- Node13&#45;&gt;Node3 -->
<g id="edge22" class="edge">
<title>Node13&#45;&gt;Node3</title>
<path fill="none" stroke="midnightblue" d="M254.95,-56.08C248.67,-48.38 239.43,-37.03 231.79,-27.65"/>
<polygon fill="midnightblue" stroke="midnightblue" points="234.38,-25.29 225.35,-19.75 228.95,-29.71 234.38,-25.29"/>
</g>
<!-- Node14&#45;&gt;Node3 -->
<g id="edge24" class="edge">
<title>Node14&#45;&gt;Node3</title>
<path fill="none" stroke="midnightblue" d="M71.79,-56.44C102.36,-46.96 151.67,-31.65 184.51,-21.46"/>
<polygon fill="midnightblue" stroke="midnightblue" points="185.62,-24.78 194.14,-18.47 183.55,-18.09 185.62,-24.78"/>
</g>
</g>
</svg>
