<?xml version="1.0" encoding="UTF-8" standalone="no"?>
<!DOCTYPE svg PUBLIC "-//W3C//DTD SVG 1.1//EN"
 "http://www.w3.org/Graphics/SVG/1.1/DTD/svg11.dtd">
<!-- Generated by graphviz version 2.43.0 (0)
 -->
<!-- Title: src/vmem_set_metasprite_s.c Pages: 1 -->
<svg width="683pt" height="252pt"
 viewBox="0.00 0.00 682.50 252.00" xmlns="http://www.w3.org/2000/svg" xmlns:xlink="http://www.w3.org/1999/xlink">
<g id="graph0" class="graph" transform="scale(1 1) rotate(0) translate(4 248)">
<title>src/vmem_set_metasprite_s.c</title>
<!-- Node1 -->
<g id="node1" class="node">
<title>Node1</title>
<g id="a_node1"><a xlink:title=" ">
<polygon fill="#bfbfbf" stroke="black" points="76,-224.5 76,-243.5 239,-243.5 239,-224.5 76,-224.5"/>
<text text-anchor="middle" x="157.5" y="-231.5" font-family="Helvetica,sans-Serif" font-size="10.00">src/vmem_set_metasprite_s.c</text>
</a>
</g>
</g>
<!-- Node2 -->
<g id="node2" class="node">
<title>Node2</title>
<g id="a_node2"><a xlink:href="sprite_8h.html" target="_top" xlink:title=" ">
<polygon fill="none" stroke="black" points="100,-112.5 100,-131.5 201,-131.5 201,-112.5 100,-112.5"/>
<text text-anchor="middle" x="150.5" y="-119.5" font-family="Helvetica,sans-Serif" font-size="10.00">../include/sprite.h</text>
</a>
</g>
</g>
<!-- Node1&#45;&gt;Node2 -->
<g id="edge1" class="edge">
<title>Node1&#45;&gt;Node2</title>
<path fill="none" stroke="midnightblue" d="M156.95,-224.37C155.82,-206.62 153.22,-165.67 151.68,-141.6"/>
<polygon fill="midnightblue" stroke="midnightblue" points="155.17,-141.35 151.05,-131.59 148.19,-141.79 155.17,-141.35"/>
</g>
<!-- Node6 -->
<g id="node6" class="node">
<title>Node6</title>
<g id="a_node6"><a xlink:href="sprite__color_8h.html" target="_top" xlink:title=" ">
<polygon fill="none" stroke="black" points="0,-168.5 0,-187.5 129,-187.5 129,-168.5 0,-168.5"/>
<text text-anchor="middle" x="64.5" y="-175.5" font-family="Helvetica,sans-Serif" font-size="10.00">../include/sprite_color.h</text>
</a>
</g>
</g>
<!-- Node1&#45;&gt;Node6 -->
<g id="edge6" class="edge">
<title>Node1&#45;&gt;Node6</title>
<path fill="none" stroke="midnightblue" d="M142.56,-224.32C127.91,-215.82 105.37,-202.73 88.26,-192.8"/>
<polygon fill="midnightblue" stroke="midnightblue" points="89.81,-189.65 79.4,-187.65 86.3,-195.7 89.81,-189.65"/>
</g>
<!-- Node7 -->
<g id="node7" class="node">
<title>Node7</title>
<g id="a_node7"><a xlink:href="metasprite_8h.html" target="_top" xlink:title=" ">
<polygon fill="none" stroke="black" points="185.5,-168.5 185.5,-187.5 311.5,-187.5 311.5,-168.5 185.5,-168.5"/>
<text text-anchor="middle" x="248.5" y="-175.5" font-family="Helvetica,sans-Serif" font-size="10.00">../include/metasprite.h</text>
</a>
</g>
</g>
<!-- Node1&#45;&gt;Node7 -->
<g id="edge10" class="edge">
<title>Node1&#45;&gt;Node7</title>
<path fill="none" stroke="midnightblue" d="M172.12,-224.32C186.45,-215.82 208.51,-202.73 225.25,-192.8"/>
<polygon fill="midnightblue" stroke="midnightblue" points="227.1,-195.77 233.92,-187.65 223.53,-189.75 227.1,-195.77"/>
</g>
<!-- Node3 -->
<g id="node3" class="node">
<title>Node3</title>
<g id="a_node3"><a xlink:title=" ">
<polygon fill="none" stroke="#bfbfbf" points="235,-0.5 235,-19.5 288,-19.5 288,-0.5 235,-0.5"/>
<text text-anchor="middle" x="261.5" y="-7.5" font-family="Helvetica,sans-Serif" font-size="10.00">stdint.h</text>
</a>
</g>
</g>
<!-- Node2&#45;&gt;Node3 -->
<g id="edge2" class="edge">
<title>Node2&#45;&gt;Node3</title>
<path fill="none" stroke="midnightblue" d="M154.35,-112.15C160.49,-98.78 173.56,-73.16 190.5,-56 203.2,-43.13 220.23,-32.18 234.43,-24.31"/>
<polygon fill="midnightblue" stroke="midnightblue" points="236.1,-27.38 243.28,-19.58 232.81,-21.2 236.1,-27.38"/>
</g>
<!-- Node4 -->
<g id="node4" class="node">
<title>Node4</title>
<g id="a_node4"><a xlink:href="vmem_8h.html" target="_top" xlink:title=" ">
<polygon fill="none" stroke="black" points="233,-56.5 233,-75.5 290,-75.5 290,-56.5 233,-56.5"/>
<text text-anchor="middle" x="261.5" y="-63.5" font-family="Helvetica,sans-Serif" font-size="10.00">vmem.h</text>
</a>
</g>
</g>
<!-- Node2&#45;&gt;Node4 -->
<g id="edge3" class="edge">
<title>Node2&#45;&gt;Node4</title>
<path fill="none" stroke="midnightblue" d="M168.33,-112.32C186.22,-103.62 213.98,-90.12 234.55,-80.11"/>
<polygon fill="midnightblue" stroke="midnightblue" points="236.25,-83.18 243.71,-75.65 233.19,-76.88 236.25,-83.18"/>
</g>
<!-- Node4&#45;&gt;Node3 -->
<g id="edge4" class="edge">
<title>Node4&#45;&gt;Node3</title>
<path fill="none" stroke="midnightblue" d="M261.5,-56.08C261.5,-49.01 261.5,-38.86 261.5,-29.99"/>
<polygon fill="midnightblue" stroke="midnightblue" points="265,-29.75 261.5,-19.75 258,-29.75 265,-29.75"/>
</g>
<!-- Node5 -->
<g id="node5" class="node">
<title>Node5</title>
<g id="a_node5"><a xlink:href="io_8h.html" target="_top" xlink:title=" ">
<polygon fill="none" stroke="black" points="439,-0.5 439,-19.5 474,-19.5 474,-0.5 439,-0.5"/>
<text text-anchor="middle" x="456.5" y="-7.5" font-family="Helvetica,sans-Serif" font-size="10.00">io.h</text>
</a>
</g>
</g>
<!-- Node4&#45;&gt;Node5 -->
<g id="edge5" class="edge">
<title>Node4&#45;&gt;Node5</title>
<path fill="none" stroke="midnightblue" d="M290.27,-57.03C327.59,-46.7 392.23,-28.8 428.94,-18.63"/>
<polygon fill="midnightblue" stroke="midnightblue" points="430.24,-21.9 438.95,-15.86 428.37,-15.16 430.24,-21.9"/>
</g>
<!-- Node6&#45;&gt;Node2 -->
<g id="edge8" class="edge">
<title>Node6&#45;&gt;Node2</title>
<path fill="none" stroke="midnightblue" d="M78.32,-168.32C91.73,-159.9 112.32,-146.97 128.09,-137.07"/>
<polygon fill="midnightblue" stroke="midnightblue" points="130.11,-139.94 136.72,-131.65 126.39,-134.01 130.11,-139.94"/>
</g>
<!-- Node6&#45;&gt;Node3 -->
<g id="edge7" class="edge">
<title>Node6&#45;&gt;Node3</title>
<path fill="none" stroke="midnightblue" d="M63.25,-168.17C61.83,-154.81 61.04,-129.23 72.5,-112 107.87,-58.84 180.76,-31.56 224.97,-19.36"/>
<polygon fill="midnightblue" stroke="midnightblue" points="225.97,-22.71 234.75,-16.77 224.19,-15.94 225.97,-22.71"/>
</g>
<!-- Node6&#45;&gt;Node4 -->
<g id="edge9" class="edge">
<title>Node6&#45;&gt;Node4</title>
<path fill="none" stroke="midnightblue" d="M65.61,-168.43C67.89,-154.49 74.38,-126.95 91.5,-112 128.18,-79.97 185.15,-70.38 222.88,-67.71"/>
<polygon fill="midnightblue" stroke="midnightblue" points="223.2,-71.19 232.98,-67.12 222.8,-64.21 223.2,-71.19"/>
</g>
<!-- Node7&#45;&gt;Node2 -->
<g id="edge23" class="edge">
<title>Node7&#45;&gt;Node2</title>
<path fill="none" stroke="midnightblue" d="M232.75,-168.32C217.18,-159.74 193.12,-146.49 175.04,-136.52"/>
<polygon fill="midnightblue" stroke="midnightblue" points="176.65,-133.42 166.21,-131.65 173.28,-139.55 176.65,-133.42"/>
</g>
<!-- Node7&#45;&gt;Node3 -->
<g id="edge11" class="edge">
<title>Node7&#45;&gt;Node3</title>
<path fill="none" stroke="midnightblue" d="M243.64,-168.26C233.06,-148.01 209.98,-96.52 224.5,-56 228.44,-45 236.36,-34.77 243.86,-26.85"/>
<polygon fill="midnightblue" stroke="midnightblue" points="246.39,-29.27 251.06,-19.76 241.48,-24.28 246.39,-29.27"/>
</g>
<!-- Node7&#45;&gt;Node4 -->
<g id="edge22" class="edge">
<title>Node7&#45;&gt;Node4</title>
<path fill="none" stroke="midnightblue" d="M249.52,-168.37C251.62,-150.62 256.46,-109.67 259.3,-85.6"/>
<polygon fill="midnightblue" stroke="midnightblue" points="262.79,-85.93 260.48,-75.59 255.84,-85.11 262.79,-85.93"/>
</g>
<!-- Node8 -->
<g id="node8" class="node">
<title>Node8</title>
<g id="a_node8"><a xlink:href="vdp_8h.html" target="_top" xlink:title=" ">
<polygon fill="none" stroke="black" points="434.5,-112.5 434.5,-131.5 478.5,-131.5 478.5,-112.5 434.5,-112.5"/>
<text text-anchor="middle" x="456.5" y="-119.5" font-family="Helvetica,sans-Serif" font-size="10.00">vdp.h</text>
</a>
</g>
</g>
<!-- Node7&#45;&gt;Node8 -->
<g id="edge12" class="edge">
<title>Node7&#45;&gt;Node8</title>
<path fill="none" stroke="midnightblue" d="M281.46,-168.44C320.68,-158.26 385.73,-141.37 424.52,-131.3"/>
<polygon fill="midnightblue" stroke="midnightblue" points="425.45,-134.68 434.25,-128.78 423.69,-127.9 425.45,-134.68"/>
</g>
<!-- Node8&#45;&gt;Node3 -->
<g id="edge15" class="edge">
<title>Node8&#45;&gt;Node3</title>
<path fill="none" stroke="midnightblue" d="M462.16,-112.38C470.26,-98.85 482.8,-72.48 469.5,-56 448.4,-29.85 352.3,-18.14 298.41,-13.56"/>
<polygon fill="midnightblue" stroke="midnightblue" points="298.48,-10.05 288.23,-12.73 297.92,-17.03 298.48,-10.05"/>
</g>
<!-- Node8&#45;&gt;Node4 -->
<g id="edge17" class="edge">
<title>Node8&#45;&gt;Node4</title>
<path fill="none" stroke="midnightblue" d="M434.13,-114.81C401.39,-105.74 339.97,-88.73 299.92,-77.64"/>
<polygon fill="midnightblue" stroke="midnightblue" points="300.8,-74.25 290.22,-74.95 298.93,-81 300.8,-74.25"/>
</g>
<!-- Node8&#45;&gt;Node5 -->
<g id="edge16" class="edge">
<title>Node8&#45;&gt;Node5</title>
<path fill="none" stroke="midnightblue" d="M478.8,-119.48C505.94,-116.3 550.71,-106.46 571.5,-76 595.35,-41.06 525.13,-22.73 484.02,-15.21"/>
<polygon fill="midnightblue" stroke="midnightblue" points="484.48,-11.73 474.03,-13.49 483.29,-18.63 484.48,-11.73"/>
</g>
<!-- Node9 -->
<g id="node9" class="node">
<title>Node9</title>
<g id="a_node9"><a xlink:title=" ">
<polygon fill="none" stroke="#bfbfbf" points="618.5,-56.5 618.5,-75.5 674.5,-75.5 674.5,-56.5 618.5,-56.5"/>
<text text-anchor="middle" x="646.5" y="-63.5" font-family="Helvetica,sans-Serif" font-size="10.00">assert.h</text>
</a>
</g>
</g>
<!-- Node8&#45;&gt;Node9 -->
<g id="edge13" class="edge">
<title>Node8&#45;&gt;Node9</title>
<path fill="none" stroke="midnightblue" d="M478.67,-114.7C510.48,-105.66 569.52,-88.88 608.41,-77.83"/>
<polygon fill="midnightblue" stroke="midnightblue" points="609.65,-81.11 618.32,-75.01 607.74,-74.38 609.65,-81.11"/>
</g>
<!-- Node10 -->
<g id="node10" class="node">
<title>Node10</title>
<g id="a_node10"><a xlink:title=" ">
<polygon fill="none" stroke="#bfbfbf" points="308.5,-56.5 308.5,-75.5 370.5,-75.5 370.5,-56.5 308.5,-56.5"/>
<text text-anchor="middle" x="339.5" y="-63.5" font-family="Helvetica,sans-Serif" font-size="10.00">stdbool.h</text>
</a>
</g>
</g>
<!-- Node8&#45;&gt;Node10 -->
<g id="edge14" class="edge">
<title>Node8&#45;&gt;Node10</title>
<path fill="none" stroke="midnightblue" d="M437.96,-112.44C418.88,-103.64 388.93,-89.81 367.06,-79.72"/>
<polygon fill="midnightblue" stroke="midnightblue" points="368.5,-76.53 357.95,-75.52 365.57,-82.88 368.5,-76.53"/>
</g>
<!-- Node11 -->
<g id="node11" class="node">
<title>Node11</title>
<g id="a_node11"><a xlink:href="bios_8h.html" target="_top" xlink:title=" ">
<polygon fill="none" stroke="black" points="516.5,-56.5 516.5,-75.5 562.5,-75.5 562.5,-56.5 516.5,-56.5"/>
<text text-anchor="middle" x="539.5" y="-63.5" font-family="Helvetica,sans-Serif" font-size="10.00">bios.h</text>
</a>
</g>
</g>
<!-- Node8&#45;&gt;Node11 -->
<g id="edge18" class="edge">
<title>Node8&#45;&gt;Node11</title>
<path fill="none" stroke="midnightblue" d="M469.84,-112.32C482.66,-103.98 502.28,-91.21 517.44,-81.35"/>
<polygon fill="midnightblue" stroke="midnightblue" points="519.72,-84.04 526.2,-75.65 515.91,-78.17 519.72,-84.04"/>
</g>
<!-- Node12 -->
<g id="node12" class="node">
<title>Node12</title>
<g id="a_node12"><a xlink:href="workarea_8h.html" target="_top" xlink:title=" ">
<polygon fill="none" stroke="black" points="389,-56.5 389,-75.5 460,-75.5 460,-56.5 389,-56.5"/>
<text text-anchor="middle" x="424.5" y="-63.5" font-family="Helvetica,sans-Serif" font-size="10.00">workarea.h</text>
</a>
</g>
</g>
<!-- Node8&#45;&gt;Node12 -->
<g id="edge20" class="edge">
<title>Node8&#45;&gt;Node12</title>
<path fill="none" stroke="midnightblue" d="M451.22,-112.08C446.79,-104.61 440.34,-93.72 434.88,-84.52"/>
<polygon fill="midnightblue" stroke="midnightblue" points="437.79,-82.57 429.69,-75.75 431.77,-86.14 437.79,-82.57"/>
</g>
<!-- Node11&#45;&gt;Node3 -->
<g id="edge19" class="edge">
<title>Node11&#45;&gt;Node3</title>
<path fill="none" stroke="midnightblue" d="M516.45,-59.19C511.84,-58.09 507.02,-56.97 502.5,-56 430.54,-40.54 345.83,-25.43 298.43,-17.26"/>
<polygon fill="midnightblue" stroke="midnightblue" points="298.79,-13.77 288.34,-15.52 297.6,-20.67 298.79,-13.77"/>
</g>
<!-- Node12&#45;&gt;Node3 -->
<g id="edge21" class="edge">
<title>Node12&#45;&gt;Node3</title>
<path fill="none" stroke="midnightblue" d="M398.67,-56.44C371.25,-47.36 327.72,-32.94 297.07,-22.78"/>
<polygon fill="midnightblue" stroke="midnightblue" points="297.8,-19.34 287.21,-19.52 295.6,-25.98 297.8,-19.34"/>
</g>
</g>
</svg>
