<?xml version="1.0" encoding="UTF-8" standalone="no"?>
<!DOCTYPE svg PUBLIC "-//W3C//DTD SVG 1.1//EN"
 "http://www.w3.org/Graphics/SVG/1.1/DTD/svg11.dtd">
<!-- Generated by graphviz version 3.0.0 (20220413.0106)
 -->
<!-- Title: src/vmem_set_metasprite_a.c Pages: 1 -->
<svg width="548pt" height="308pt"
 viewBox="0.00 0.00 547.50 308.00" xmlns="http://www.w3.org/2000/svg" xmlns:xlink="http://www.w3.org/1999/xlink">
<g id="graph0" class="graph" transform="scale(1 1) rotate(0) translate(4 304)">
<title>src/vmem_set_metasprite_a.c</title>
<!-- Node1 -->
<g id="node1" class="node">
<title>Node1</title>
<g id="a_node1"><a xlink:title="Copyright (c) 2021 Daishi Mori (mori0091)">
<polygon fill="#bfbfbf" stroke="black" points="12.5,-280.5 12.5,-299.5 160.5,-299.5 160.5,-280.5 12.5,-280.5"/>
<text text-anchor="middle" x="86.5" y="-287.5" font-family="Helvetica,sans-Serif" font-size="10.00">src/vmem_set_metasprite_a.c</text>
</a>
</g>
</g>
<!-- Node2 -->
<g id="node2" class="node">
<title>Node2</title>
<g id="a_node2"><a xlink:href="sprite_8h.html" target="_top" xlink:title="Copyright (c) 2021 Daishi Mori (mori0091)">
<polygon fill="none" stroke="black" points="0,-168.5 0,-187.5 89,-187.5 89,-168.5 0,-168.5"/>
<text text-anchor="middle" x="44.5" y="-175.5" font-family="Helvetica,sans-Serif" font-size="10.00">../include/sprite.h</text>
</a>
</g>
</g>
<!-- Node1&#45;&gt;Node2 -->
<g id="edge1" class="edge">
<title>Node1&#45;&gt;Node2</title>
<path fill="none" stroke="midnightblue" d="M81.7,-280.22C76.93,-271.28 69.62,-256.94 64.5,-244 58.39,-228.56 52.96,-210.47 49.3,-197.3"/>
<polygon fill="midnightblue" stroke="midnightblue" points="52.66,-196.3 46.67,-187.56 45.9,-198.13 52.66,-196.3"/>
</g>
<!-- Node7 -->
<g id="node7" class="node">
<title>Node7</title>
<g id="a_node7"><a xlink:href="metasprite_8h.html" target="_top" xlink:title="Copyright (c) 2021 Daishi Mori (mori0091)">
<polygon fill="none" stroke="black" points="73,-224.5 73,-243.5 184,-243.5 184,-224.5 73,-224.5"/>
<text text-anchor="middle" x="128.5" y="-231.5" font-family="Helvetica,sans-Serif" font-size="10.00">../include/metasprite.h</text>
</a>
</g>
</g>
<!-- Node1&#45;&gt;Node7 -->
<g id="edge7" class="edge">
<title>Node1&#45;&gt;Node7</title>
<path fill="none" stroke="midnightblue" d="M93.44,-280.08C99.43,-272.38 108.25,-261.03 115.55,-251.65"/>
<polygon fill="midnightblue" stroke="midnightblue" points="118.32,-253.79 121.69,-243.75 112.79,-249.5 118.32,-253.79"/>
</g>
<!-- Node3 -->
<g id="node3" class="node">
<title>Node3</title>
<g id="a_node3"><a xlink:title=" ">
<polygon fill="none" stroke="#bfbfbf" points="197.5,-0.5 197.5,-19.5 245.5,-19.5 245.5,-0.5 197.5,-0.5"/>
<text text-anchor="middle" x="221.5" y="-7.5" font-family="Helvetica,sans-Serif" font-size="10.00">stdint.h</text>
</a>
</g>
</g>
<!-- Node2&#45;&gt;Node3 -->
<g id="edge2" class="edge">
<title>Node2&#45;&gt;Node3</title>
<path fill="none" stroke="midnightblue" d="M46.05,-168.34C50.42,-146.42 64.85,-88.2 99.5,-56 123.73,-33.48 160.2,-22 186.96,-16.29"/>
<polygon fill="midnightblue" stroke="midnightblue" points="187.9,-19.67 197.04,-14.32 186.56,-12.8 187.9,-19.67"/>
</g>
<!-- Node4 -->
<g id="node4" class="node">
<title>Node4</title>
<g id="a_node4"><a xlink:href="vmem_8h.html" target="_top" xlink:title="Data types and functions for VRAM access.">
<polygon fill="none" stroke="black" points="142,-112.5 142,-131.5 193,-131.5 193,-112.5 142,-112.5"/>
<text text-anchor="middle" x="167.5" y="-119.5" font-family="Helvetica,sans-Serif" font-size="10.00">vmem.h</text>
</a>
</g>
</g>
<!-- Node2&#45;&gt;Node4 -->
<g id="edge3" class="edge">
<title>Node2&#45;&gt;Node4</title>
<path fill="none" stroke="midnightblue" d="M63.99,-168.44C84.14,-159.6 115.82,-145.69 138.83,-135.59"/>
<polygon fill="midnightblue" stroke="midnightblue" points="140.35,-138.74 148.1,-131.52 137.54,-132.33 140.35,-138.74"/>
</g>
<!-- Node4&#45;&gt;Node3 -->
<g id="edge4" class="edge">
<title>Node4&#45;&gt;Node3</title>
<path fill="none" stroke="midnightblue" d="M171.74,-112.37C180.57,-94.38 201.1,-52.55 212.85,-28.63"/>
<polygon fill="midnightblue" stroke="midnightblue" points="216.02,-30.11 217.28,-19.59 209.73,-27.03 216.02,-30.11"/>
</g>
<!-- Node5 -->
<g id="node5" class="node">
<title>Node5</title>
<g id="a_node5"><a xlink:href="io_8h.html" target="_top" xlink:title="Copyright (c) 2021 Daishi Mori (mori0091)">
<polygon fill="none" stroke="black" points="507.5,-56.5 507.5,-75.5 539.5,-75.5 539.5,-56.5 507.5,-56.5"/>
<text text-anchor="middle" x="523.5" y="-63.5" font-family="Helvetica,sans-Serif" font-size="10.00">io.h</text>
</a>
</g>
</g>
<!-- Node4&#45;&gt;Node5 -->
<g id="edge5" class="edge">
<title>Node4&#45;&gt;Node5</title>
<path fill="none" stroke="midnightblue" d="M193.12,-117.83C260.67,-109.44 441.77,-86.66 497.17,-75.63"/>
<polygon fill="midnightblue" stroke="midnightblue" points="498.24,-78.98 507.25,-73.41 496.73,-72.15 498.24,-78.98"/>
</g>
<!-- Node6 -->
<g id="node6" class="node">
<title>Node6</title>
<g id="a_node6"><a xlink:href="config_8h.html" target="_top" xlink:title="Copyright (c) 2022 Daishi Mori (mori0091)">
<polygon fill="none" stroke="black" points="389.5,-0.5 389.5,-19.5 439.5,-19.5 439.5,-0.5 389.5,-0.5"/>
<text text-anchor="middle" x="414.5" y="-7.5" font-family="Helvetica,sans-Serif" font-size="10.00">config.h</text>
</a>
</g>
</g>
<!-- Node5&#45;&gt;Node6 -->
<g id="edge6" class="edge">
<title>Node5&#45;&gt;Node6</title>
<path fill="none" stroke="midnightblue" d="M507.42,-57.03C489.93,-48.37 461.72,-34.39 440.96,-24.11"/>
<polygon fill="midnightblue" stroke="midnightblue" points="442.24,-20.84 431.73,-19.54 439.14,-27.11 442.24,-20.84"/>
</g>
<!-- Node7&#45;&gt;Node2 -->
<g id="edge26" class="edge">
<title>Node7&#45;&gt;Node2</title>
<path fill="none" stroke="midnightblue" d="M115,-224.32C101.9,-215.9 81.79,-202.97 66.39,-193.07"/>
<polygon fill="midnightblue" stroke="midnightblue" points="68.27,-190.12 57.96,-187.65 64.48,-196.01 68.27,-190.12"/>
</g>
<!-- Node7&#45;&gt;Node3 -->
<g id="edge8" class="edge">
<title>Node7&#45;&gt;Node3</title>
<path fill="none" stroke="midnightblue" d="M126.98,-224.39C123.76,-203.98 117.79,-151.46 133.5,-112 147.86,-75.95 180.88,-43.99 202.14,-26.1"/>
<polygon fill="midnightblue" stroke="midnightblue" points="204.39,-28.78 209.91,-19.74 199.96,-23.36 204.39,-28.78"/>
</g>
<!-- Node7&#45;&gt;Node4 -->
<g id="edge25" class="edge">
<title>Node7&#45;&gt;Node4</title>
<path fill="none" stroke="midnightblue" d="M131.56,-224.37C137.88,-206.54 152.5,-165.3 161.02,-141.27"/>
<polygon fill="midnightblue" stroke="midnightblue" points="164.41,-142.19 164.45,-131.59 157.81,-139.85 164.41,-142.19"/>
</g>
<!-- Node8 -->
<g id="node8" class="node">
<title>Node8</title>
<g id="a_node8"><a xlink:href="vdp_8h.html" target="_top" xlink:title="Data types and functions for VDP (Video Display Proccessor) access.">
<polygon fill="none" stroke="black" points="291.5,-168.5 291.5,-187.5 331.5,-187.5 331.5,-168.5 291.5,-168.5"/>
<text text-anchor="middle" x="311.5" y="-175.5" font-family="Helvetica,sans-Serif" font-size="10.00">vdp.h</text>
</a>
</g>
</g>
<!-- Node7&#45;&gt;Node8 -->
<g id="edge9" class="edge">
<title>Node7&#45;&gt;Node8</title>
<path fill="none" stroke="midnightblue" d="M157.5,-224.44C191.38,-214.44 247.17,-197.98 281.49,-187.86"/>
<polygon fill="midnightblue" stroke="midnightblue" points="282.8,-191.12 291.4,-184.93 280.82,-184.4 282.8,-191.12"/>
</g>
<!-- Node8&#45;&gt;Node3 -->
<g id="edge12" class="edge">
<title>Node8&#45;&gt;Node3</title>
<path fill="none" stroke="midnightblue" d="M291.23,-169.41C275.1,-162.28 253.33,-149.99 241.5,-132 220.91,-100.68 219.18,-55.22 220.11,-29.87"/>
<polygon fill="midnightblue" stroke="midnightblue" points="223.61,-29.94 220.66,-19.77 216.62,-29.56 223.61,-29.94"/>
</g>
<!-- Node8&#45;&gt;Node4 -->
<g id="edge14" class="edge">
<title>Node8&#45;&gt;Node4</title>
<path fill="none" stroke="midnightblue" d="M291.48,-169.49C267.7,-160.57 227.72,-145.58 199.6,-135.04"/>
<polygon fill="midnightblue" stroke="midnightblue" points="200.79,-131.75 190.2,-131.51 198.33,-138.3 200.79,-131.75"/>
</g>
<!-- Node8&#45;&gt;Node5 -->
<g id="edge13" class="edge">
<title>Node8&#45;&gt;Node5</title>
<path fill="none" stroke="midnightblue" d="M331.69,-174.41C362.01,-169.81 420.26,-158.09 462.5,-132 482.78,-119.47 500.74,-98.49 511.83,-83.76"/>
<polygon fill="midnightblue" stroke="midnightblue" points="514.76,-85.68 517.8,-75.53 509.1,-81.56 514.76,-85.68"/>
</g>
<!-- Node9 -->
<g id="node9" class="node">
<title>Node9</title>
<g id="a_node9"><a xlink:title=" ">
<polygon fill="none" stroke="#bfbfbf" points="250,-112.5 250,-131.5 301,-131.5 301,-112.5 250,-112.5"/>
<text text-anchor="middle" x="275.5" y="-119.5" font-family="Helvetica,sans-Serif" font-size="10.00">assert.h</text>
</a>
</g>
</g>
<!-- Node8&#45;&gt;Node9 -->
<g id="edge10" class="edge">
<title>Node8&#45;&gt;Node9</title>
<path fill="none" stroke="midnightblue" d="M305.56,-168.08C300.52,-160.53 293.16,-149.49 286.99,-140.23"/>
<polygon fill="midnightblue" stroke="midnightblue" points="289.79,-138.13 281.33,-131.75 283.97,-142.01 289.79,-138.13"/>
</g>
<!-- Node10 -->
<g id="node10" class="node">
<title>Node10</title>
<g id="a_node10"><a xlink:title=" ">
<polygon fill="none" stroke="#bfbfbf" points="319.5,-112.5 319.5,-131.5 375.5,-131.5 375.5,-112.5 319.5,-112.5"/>
<text text-anchor="middle" x="347.5" y="-119.5" font-family="Helvetica,sans-Serif" font-size="10.00">stdbool.h</text>
</a>
</g>
</g>
<!-- Node8&#45;&gt;Node10 -->
<g id="edge11" class="edge">
<title>Node8&#45;&gt;Node10</title>
<path fill="none" stroke="midnightblue" d="M317.44,-168.08C322.48,-160.53 329.84,-149.49 336.01,-140.23"/>
<polygon fill="midnightblue" stroke="midnightblue" points="339.03,-142.01 341.67,-131.75 333.21,-138.13 339.03,-142.01"/>
</g>
<!-- Node11 -->
<g id="node11" class="node">
<title>Node11</title>
<g id="a_node11"><a xlink:href="bios_8h.html" target="_top" xlink:title="Copyright (c) 2021 Daishi Mori (mori0091)">
<polygon fill="none" stroke="black" points="393.5,-112.5 393.5,-131.5 435.5,-131.5 435.5,-112.5 393.5,-112.5"/>
<text text-anchor="middle" x="414.5" y="-119.5" font-family="Helvetica,sans-Serif" font-size="10.00">bios.h</text>
</a>
</g>
</g>
<!-- Node8&#45;&gt;Node11 -->
<g id="edge15" class="edge">
<title>Node8&#45;&gt;Node11</title>
<path fill="none" stroke="midnightblue" d="M328.05,-168.32C344.49,-159.7 369.93,-146.36 388.97,-136.39"/>
<polygon fill="midnightblue" stroke="midnightblue" points="390.76,-139.4 397.99,-131.65 387.51,-133.2 390.76,-139.4"/>
</g>
<!-- Node14 -->
<g id="node14" class="node">
<title>Node14</title>
<g id="a_node14"><a xlink:href="workarea_8h.html" target="_top" xlink:title="Copyright (c) 2021 Daishi Mori (mori0091)">
<polygon fill="none" stroke="black" points="425.5,-56.5 425.5,-75.5 489.5,-75.5 489.5,-56.5 425.5,-56.5"/>
<text text-anchor="middle" x="457.5" y="-63.5" font-family="Helvetica,sans-Serif" font-size="10.00">workarea.h</text>
</a>
</g>
</g>
<!-- Node8&#45;&gt;Node14 -->
<g id="edge22" class="edge">
<title>Node8&#45;&gt;Node14</title>
<path fill="none" stroke="midnightblue" d="M331.56,-176.21C360.95,-173.91 415.38,-165.14 444.5,-132 455.53,-119.45 458.23,-100.23 458.5,-85.94"/>
<polygon fill="midnightblue" stroke="midnightblue" points="462,-85.69 458.31,-75.76 455,-85.82 462,-85.69"/>
</g>
<!-- Node12 -->
<g id="node12" class="node">
<title>Node12</title>
<g id="a_node12"><a xlink:href="bios__const_8h.html" target="_top" xlink:title="Constant variables in the MSX BIOS ROM.">
<polygon fill="none" stroke="black" points="336,-56.5 336,-75.5 407,-75.5 407,-56.5 336,-56.5"/>
<text text-anchor="middle" x="371.5" y="-63.5" font-family="Helvetica,sans-Serif" font-size="10.00">bios_const.h</text>
</a>
</g>
</g>
<!-- Node11&#45;&gt;Node12 -->
<g id="edge16" class="edge">
<title>Node11&#45;&gt;Node12</title>
<path fill="none" stroke="midnightblue" d="M407.4,-112.08C401.26,-104.38 392.23,-93.03 384.76,-83.65"/>
<polygon fill="midnightblue" stroke="midnightblue" points="387.44,-81.39 378.47,-75.75 381.96,-85.75 387.44,-81.39"/>
</g>
<!-- Node13 -->
<g id="node13" class="node">
<title>Node13</title>
<g id="a_node13"><a xlink:href="bios__entry_8h.html" target="_top" xlink:title="Assembler entry points for MSX BIOS functions.">
<polygon fill="none" stroke="black" points="249.5,-56.5 249.5,-75.5 317.5,-75.5 317.5,-56.5 249.5,-56.5"/>
<text text-anchor="middle" x="283.5" y="-63.5" font-family="Helvetica,sans-Serif" font-size="10.00">bios_entry.h</text>
</a>
</g>
</g>
<!-- Node11&#45;&gt;Node13 -->
<g id="edge19" class="edge">
<title>Node11&#45;&gt;Node13</title>
<path fill="none" stroke="midnightblue" d="M393.74,-112.44C372.18,-103.56 338.24,-89.56 313.71,-79.45"/>
<polygon fill="midnightblue" stroke="midnightblue" points="314.74,-76.09 304.16,-75.52 312.07,-82.56 314.74,-76.09"/>
</g>
<!-- Node12&#45;&gt;Node3 -->
<g id="edge17" class="edge">
<title>Node12&#45;&gt;Node3</title>
<path fill="none" stroke="midnightblue" d="M347.73,-56.44C322.61,-47.4 282.79,-33.06 254.6,-22.92"/>
<polygon fill="midnightblue" stroke="midnightblue" points="255.75,-19.61 245.16,-19.52 253.38,-26.2 255.75,-19.61"/>
</g>
<!-- Node12&#45;&gt;Node6 -->
<g id="edge18" class="edge">
<title>Node12&#45;&gt;Node6</title>
<path fill="none" stroke="midnightblue" d="M378.6,-56.08C384.74,-48.38 393.77,-37.03 401.24,-27.65"/>
<polygon fill="midnightblue" stroke="midnightblue" points="404.04,-29.75 407.53,-19.75 398.56,-25.39 404.04,-29.75"/>
</g>
<!-- Node13&#45;&gt;Node3 -->
<g id="edge20" class="edge">
<title>Node13&#45;&gt;Node3</title>
<path fill="none" stroke="midnightblue" d="M273.54,-56.32C264.37,-48.34 250.56,-36.31 239.47,-26.65"/>
<polygon fill="midnightblue" stroke="midnightblue" points="241.48,-23.76 231.64,-19.83 236.88,-29.04 241.48,-23.76"/>
</g>
<!-- Node13&#45;&gt;Node6 -->
<g id="edge21" class="edge">
<title>Node13&#45;&gt;Node6</title>
<path fill="none" stroke="midnightblue" d="M304.26,-56.44C325.82,-47.56 359.76,-33.56 384.29,-23.45"/>
<polygon fill="midnightblue" stroke="midnightblue" points="385.93,-26.56 393.84,-19.52 383.26,-20.09 385.93,-26.56"/>
</g>
<!-- Node14&#45;&gt;Node3 -->
<g id="edge23" class="edge">
<title>Node14&#45;&gt;Node3</title>
<path fill="none" stroke="midnightblue" d="M425.18,-57.6C380.68,-47.42 300.89,-29.17 255.51,-18.78"/>
<polygon fill="midnightblue" stroke="midnightblue" points="256.1,-15.33 245.57,-16.51 254.54,-22.15 256.1,-15.33"/>
</g>
<!-- Node14&#45;&gt;Node6 -->
<g id="edge24" class="edge">
<title>Node14&#45;&gt;Node6</title>
<path fill="none" stroke="midnightblue" d="M450.4,-56.08C444.26,-48.38 435.23,-37.03 427.76,-27.65"/>
<polygon fill="midnightblue" stroke="midnightblue" points="430.44,-25.39 421.47,-19.75 424.96,-29.75 430.44,-25.39"/>
</g>
</g>
</svg>
