<?xml version="1.0" encoding="UTF-8" standalone="no"?>
<!DOCTYPE svg PUBLIC "-//W3C//DTD SVG 1.1//EN"
 "http://www.w3.org/Graphics/SVG/1.1/DTD/svg11.dtd">
<!-- Generated by graphviz version 7.0.5 (20221223.1930)
 -->
<!-- Title: include/vmem.h Pages: 1 -->
<svg width="710pt" height="247pt"
 viewBox="0.00 0.00 710.00 247.00" xmlns="http://www.w3.org/2000/svg" xmlns:xlink="http://www.w3.org/1999/xlink">
<g id="graph0" class="graph" transform="scale(1 1) rotate(0) translate(4 243)">
<title>include/vmem.h</title>
<!-- Node1 -->
<g id="node1" class="node">
<title>Node1</title>
<g id="a_node1"><a xlink:title="Data types and functions for VRAM access.">
<polygon fill="#999999" stroke="#666666" points="466.5,-239 381.5,-239 381.5,-220 466.5,-220 466.5,-239"/>
<text text-anchor="middle" x="424" y="-227" font-family="Helvetica,sans-Serif" font-size="10.00">include/vmem.h</text>
</a>
</g>
</g>
<!-- Node2 -->
<g id="node2" class="node">
<title>Node2</title>
<g id="a_node2"><a xlink:href="bmem_8h.html" target="_top" xlink:title="Data types and functions for accessing banked memory.">
<polygon fill="white" stroke="#666666" points="177.5,-184 92.5,-184 92.5,-165 177.5,-165 177.5,-184"/>
<text text-anchor="middle" x="135" y="-172" font-family="Helvetica,sans-Serif" font-size="10.00">include/bmem.h</text>
</a>
</g>
</g>
<!-- Node1&#45;&gt;Node2 -->
<g id="edge1" class="edge">
<title>Node1&#45;&gt;Node2</title>
<path fill="none" stroke="#63b8ff" d="M370,-218.6C314.37,-208.4 228.8,-192.7 177.72,-183.33"/>
<polygon fill="#63b8ff" stroke="#63b8ff" points="369.09,-221.99 379.56,-220.35 370.35,-215.1 369.09,-221.99"/>
</g>
<!-- Node6 -->
<g id="node6" class="node">
<title>Node6</title>
<g id="a_node6"><a xlink:href="metasprite_8h.html" target="_top" xlink:title="Meta&#45;sprite ; an aggregate of sprites.">
<polygon fill="white" stroke="#666666" points="621,-74 517,-74 517,-55 621,-55 621,-74"/>
<text text-anchor="middle" x="569" y="-62" font-family="Helvetica,sans-Serif" font-size="10.00">include/metasprite.h</text>
</a>
</g>
</g>
<!-- Node1&#45;&gt;Node6 -->
<g id="edge5" class="edge">
<title>Node1&#45;&gt;Node6</title>
<path fill="none" stroke="#63b8ff" d="M439.41,-211.18C470.15,-176.62 538.1,-100.23 561.17,-74.31"/>
<polygon fill="#63b8ff" stroke="#63b8ff" points="436.83,-208.81 432.8,-218.61 442.06,-213.46 436.83,-208.81"/>
</g>
<!-- Node7 -->
<g id="node7" class="node">
<title>Node7</title>
<g id="a_node7"><a xlink:href="msx_8h.html" target="_top" xlink:title="Using #include &lt;msx.h&gt; includes almost all C header files in libmsx, for ease to use.">
<polygon fill="white" stroke="#666666" points="527,-19 451,-19 451,0 527,0 527,-19"/>
<text text-anchor="middle" x="489" y="-7" font-family="Helvetica,sans-Serif" font-size="10.00">include/msx.h</text>
</a>
</g>
</g>
<!-- Node1&#45;&gt;Node7 -->
<g id="edge7" class="edge">
<title>Node1&#45;&gt;Node7</title>
<path fill="none" stroke="#63b8ff" d="M405.3,-211.85C371.21,-179.47 305.81,-106.67 344,-55 368.34,-22.07 416.61,-12.73 450.76,-10.47"/>
<polygon fill="#63b8ff" stroke="#63b8ff" points="402.77,-214.27 412.49,-218.49 407.52,-209.13 402.77,-214.27"/>
</g>
<!-- Node8 -->
<g id="node8" class="node">
<title>Node8</title>
<g id="a_node8"><a xlink:href="sprite_8h.html" target="_top" xlink:title="Sprites.">
<polygon fill="white" stroke="#666666" points="500,-129 418,-129 418,-110 500,-110 500,-129"/>
<text text-anchor="middle" x="459" y="-117" font-family="Helvetica,sans-Serif" font-size="10.00">include/sprite.h</text>
</a>
</g>
</g>
<!-- Node1&#45;&gt;Node8 -->
<g id="edge8" class="edge">
<title>Node1&#45;&gt;Node8</title>
<path fill="none" stroke="#63b8ff" d="M430.35,-208.9C437.99,-185.33 450.47,-146.81 456.1,-129.46"/>
<polygon fill="#63b8ff" stroke="#63b8ff" points="427.08,-207.63 427.33,-218.22 433.74,-209.79 427.08,-207.63"/>
</g>
<!-- Node9 -->
<g id="node9" class="node">
<title>Node9</title>
<g id="a_node9"><a xlink:href="sprite__color_8h.html" target="_top" xlink:title="Sprite color table interface.">
<polygon fill="white" stroke="#666666" points="461,-74 353,-74 353,-55 461,-55 461,-74"/>
<text text-anchor="middle" x="407" y="-62" font-family="Helvetica,sans-Serif" font-size="10.00">include/sprite_color.h</text>
</a>
</g>
</g>
<!-- Node1&#45;&gt;Node9 -->
<g id="edge13" class="edge">
<title>Node1&#45;&gt;Node9</title>
<path fill="none" stroke="#63b8ff" d="M420.26,-208.44C416.7,-188.4 411.51,-156.69 409,-129 407.22,-109.45 406.95,-86.39 406.95,-74.15"/>
<polygon fill="#63b8ff" stroke="#63b8ff" points="416.82,-209.06 422.05,-218.27 423.7,-207.8 416.82,-209.06"/>
</g>
<!-- Node10 -->
<g id="node10" class="node">
<title>Node10</title>
<g id="a_node10"><a xlink:href="vdp_8h.html" target="_top" xlink:title="Data types and functions for VDP (Video Display Proccessor) access.">
<polygon fill="white" stroke="#666666" points="667,-129 593,-129 593,-110 667,-110 667,-129"/>
<text text-anchor="middle" x="630" y="-117" font-family="Helvetica,sans-Serif" font-size="10.00">include/vdp.h</text>
</a>
</g>
</g>
<!-- Node1&#45;&gt;Node10 -->
<g id="edge14" class="edge">
<title>Node1&#45;&gt;Node10</title>
<path fill="none" stroke="#63b8ff" d="M464.93,-216.05C488.18,-208.24 517.47,-197.18 542,-184 572.21,-167.78 603.94,-142.53 619.76,-129.28"/>
<polygon fill="#63b8ff" stroke="#63b8ff" points="463.9,-212.7 455.48,-219.14 466.07,-219.35 463.9,-212.7"/>
</g>
<!-- Node11 -->
<g id="node11" class="node">
<title>Node11</title>
<g id="a_node11"><a xlink:href="vdp__unsafe_8h.html" target="_top" xlink:title="Unsafe primitive functions for VDP (Video Display Proccessor) access.">
<polygon fill="white" stroke="#666666" points="702,-184 594,-184 594,-165 702,-165 702,-184"/>
<text text-anchor="middle" x="648" y="-172" font-family="Helvetica,sans-Serif" font-size="10.00">include/vdp_unsafe.h</text>
</a>
</g>
</g>
<!-- Node1&#45;&gt;Node11 -->
<g id="edge17" class="edge">
<title>Node1&#45;&gt;Node11</title>
<path fill="none" stroke="#63b8ff" d="M473.16,-216.87C514.41,-207.11 572.49,-193.37 610.19,-184.45"/>
<polygon fill="#63b8ff" stroke="#63b8ff" points="472.4,-213.45 463.47,-219.16 474.01,-220.26 472.4,-213.45"/>
</g>
<!-- Node12 -->
<g id="node12" class="node">
<title>Node12</title>
<g id="a_node12"><a xlink:href="vmem__rw_8h.html" target="_top" xlink:title="Stream like access functions for VRAM.">
<polygon fill="white" stroke="#666666" points="296.5,-184 195.5,-184 195.5,-165 296.5,-165 296.5,-184"/>
<text text-anchor="middle" x="246" y="-172" font-family="Helvetica,sans-Serif" font-size="10.00">include/vmem_rw.h</text>
</a>
</g>
</g>
<!-- Node1&#45;&gt;Node12 -->
<g id="edge19" class="edge">
<title>Node1&#45;&gt;Node12</title>
<path fill="none" stroke="#63b8ff" d="M382.82,-216.24C350.19,-206.52 305.36,-193.18 276.05,-184.45"/>
<polygon fill="#63b8ff" stroke="#63b8ff" points="381.77,-219.58 392.35,-219.08 383.77,-212.87 381.77,-219.58"/>
</g>
<!-- Node3 -->
<g id="node3" class="node">
<title>Node3</title>
<g id="a_node3"><a xlink:href="bmem__rd_8h.html" target="_top" xlink:title="Stream like access functions for Banked Memory.">
<polygon fill="white" stroke="#666666" points="98,-129 0,-129 0,-110 98,-110 98,-129"/>
<text text-anchor="middle" x="49" y="-117" font-family="Helvetica,sans-Serif" font-size="10.00">include/bmem_rd.h</text>
</a>
</g>
</g>
<!-- Node2&#45;&gt;Node3 -->
<g id="edge2" class="edge">
<title>Node2&#45;&gt;Node3</title>
<path fill="none" stroke="#63b8ff" d="M111.03,-158.73C95.71,-149.29 76.35,-137.36 63.37,-129.36"/>
<polygon fill="#63b8ff" stroke="#63b8ff" points="108.77,-161.45 119.12,-163.72 112.45,-155.49 108.77,-161.45"/>
</g>
<!-- Node5 -->
<g id="node5" class="node">
<title>Node5</title>
<g id="a_node5"><a xlink:href="resources_8h.html" target="_top" xlink:title="Data types and functions for accessing embedded resources.">
<polygon fill="white" stroke="#666666" points="217.5,-129 116.5,-129 116.5,-110 217.5,-110 217.5,-129"/>
<text text-anchor="middle" x="167" y="-117" font-family="Helvetica,sans-Serif" font-size="10.00">include/resources.h</text>
</a>
</g>
</g>
<!-- Node2&#45;&gt;Node5 -->
<g id="edge4" class="edge">
<title>Node2&#45;&gt;Node5</title>
<path fill="none" stroke="#63b8ff" d="M146.12,-155.08C151.36,-146.4 157.38,-136.44 161.6,-129.44"/>
<polygon fill="#63b8ff" stroke="#63b8ff" points="143.24,-153.08 141.07,-163.45 149.23,-156.7 143.24,-153.08"/>
</g>
<!-- Node4 -->
<g id="node4" class="node">
<title>Node4</title>
<g id="a_node4"><a xlink:href="xmem_8h.html" target="_top" xlink:title="Inter&#45;memory transfer functions for ROM / RAM, VRAM, and Banked Memory (MegaROM).">
<polygon fill="white" stroke="#666666" points="190,-74 106,-74 106,-55 190,-55 190,-74"/>
<text text-anchor="middle" x="148" y="-62" font-family="Helvetica,sans-Serif" font-size="10.00">include/xmem.h</text>
</a>
</g>
</g>
<!-- Node3&#45;&gt;Node4 -->
<g id="edge3" class="edge">
<title>Node3&#45;&gt;Node4</title>
<path fill="none" stroke="#63b8ff" d="M75.84,-104.13C93.59,-94.63 116.3,-82.47 131.45,-74.36"/>
<polygon fill="#63b8ff" stroke="#63b8ff" points="74.29,-100.99 67.13,-108.79 77.6,-107.16 74.29,-100.99"/>
</g>
<!-- Node6&#45;&gt;Node7 -->
<g id="edge6" class="edge">
<title>Node6&#45;&gt;Node7</title>
<path fill="none" stroke="#63b8ff" d="M545.89,-48.19C531.77,-38.84 514.22,-27.21 502.37,-19.36"/>
<polygon fill="#63b8ff" stroke="#63b8ff" points="543.9,-51.07 554.17,-53.67 547.76,-45.23 543.9,-51.07"/>
</g>
<!-- Node8&#45;&gt;Node6 -->
<g id="edge9" class="edge">
<title>Node8&#45;&gt;Node6</title>
<path fill="none" stroke="#63b8ff" d="M487.99,-104.53C507.83,-94.97 533.54,-82.59 550.62,-74.36"/>
<polygon fill="#63b8ff" stroke="#63b8ff" points="486.51,-101.36 479.02,-108.85 489.55,-107.66 486.51,-101.36"/>
</g>
<!-- Node8&#45;&gt;Node7 -->
<g id="edge10" class="edge">
<title>Node8&#45;&gt;Node7</title>
<path fill="none" stroke="#63b8ff" d="M464.54,-98.57C471.09,-74.98 481.71,-36.73 486.51,-19.46"/>
<polygon fill="#63b8ff" stroke="#63b8ff" points="461.16,-97.63 461.86,-108.2 467.91,-99.51 461.16,-97.63"/>
</g>
<!-- Node8&#45;&gt;Node9 -->
<g id="edge11" class="edge">
<title>Node8&#45;&gt;Node9</title>
<path fill="none" stroke="#63b8ff" d="M442.59,-101.78C433.71,-92.72 423.09,-81.9 415.77,-74.44"/>
<polygon fill="#63b8ff" stroke="#63b8ff" points="439.85,-103.98 449.35,-108.67 444.85,-99.08 439.85,-103.98"/>
</g>
<!-- Node9&#45;&gt;Node7 -->
<g id="edge12" class="edge">
<title>Node9&#45;&gt;Node7</title>
<path fill="none" stroke="#63b8ff" d="M430.27,-48.46C444.81,-39.06 463.04,-27.28 475.3,-19.36"/>
<polygon fill="#63b8ff" stroke="#63b8ff" points="428.68,-45.32 422.18,-53.69 432.48,-51.2 428.68,-45.32"/>
</g>
<!-- Node10&#45;&gt;Node6 -->
<g id="edge15" class="edge">
<title>Node10&#45;&gt;Node6</title>
<path fill="none" stroke="#63b8ff" d="M611.11,-102.09C600.58,-92.94 587.88,-81.9 579.19,-74.36"/>
<polygon fill="#63b8ff" stroke="#63b8ff" points="608.67,-104.6 618.51,-108.52 613.26,-99.32 608.67,-104.6"/>
</g>
<!-- Node10&#45;&gt;Node7 -->
<g id="edge16" class="edge">
<title>Node10&#45;&gt;Node7</title>
<path fill="none" stroke="#63b8ff" d="M635.66,-98.68C638.28,-85.11 639.08,-67.39 630,-55 606.63,-23.12 560.35,-13.49 527.18,-10.88"/>
<polygon fill="#63b8ff" stroke="#63b8ff" points="632.3,-97.69 633.33,-108.24 639.1,-99.35 632.3,-97.69"/>
</g>
<!-- Node11&#45;&gt;Node10 -->
<g id="edge18" class="edge">
<title>Node11&#45;&gt;Node10</title>
<path fill="none" stroke="#63b8ff" d="M641.35,-153.93C638.5,-145.53 635.31,-136.13 633.04,-129.44"/>
<polygon fill="#63b8ff" stroke="#63b8ff" points="638.01,-154.97 644.54,-163.31 644.64,-152.72 638.01,-154.97"/>
</g>
<!-- Node12&#45;&gt;Node4 -->
<g id="edge20" class="edge">
<title>Node12&#45;&gt;Node4</title>
<path fill="none" stroke="#63b8ff" d="M243.62,-153.77C241.14,-140.24 236.11,-122.54 226,-110 212.49,-93.25 190.88,-81.63 173.83,-74.47"/>
<polygon fill="#63b8ff" stroke="#63b8ff" points="240.1,-153.88 245.04,-163.26 247.03,-152.85 240.1,-153.88"/>
</g>
</g>
</svg>
