<?xml version="1.0" encoding="UTF-8" standalone="no"?>
<!DOCTYPE svg PUBLIC "-//W3C//DTD SVG 1.1//EN"
 "http://www.w3.org/Graphics/SVG/1.1/DTD/svg11.dtd">
<!-- Generated by graphviz version 2.49.3 (20211027.1534)
 -->
<!-- Title: src/vmem_set_metasprite_s.c Pages: 1 -->
<svg width="602pt" height="308pt"
 viewBox="0.00 0.00 602.00 308.00" xmlns="http://www.w3.org/2000/svg" xmlns:xlink="http://www.w3.org/1999/xlink">
<g id="graph0" class="graph" transform="scale(1 1) rotate(0) translate(4 304)">
<title>src/vmem_set_metasprite_s.c</title>
<!-- Node1 -->
<g id="node1" class="node">
<title>Node1</title>
<g id="a_node1"><a xlink:title="Copyright (c) 2021 Daishi Mori (mori0091)">
<polygon fill="#bfbfbf" stroke="black" points="70,-280.5 70,-299.5 218,-299.5 218,-280.5 70,-280.5"/>
<text text-anchor="middle" x="144" y="-287.5" font-family="Helvetica,sans-Serif" font-size="10.00">src/vmem_set_metasprite_s.c</text>
</a>
</g>
</g>
<!-- Node2 -->
<g id="node2" class="node">
<title>Node2</title>
<g id="a_node2"><a xlink:href="sprite_8h.html" target="_top" xlink:title="Copyright (c) 2021 Daishi Mori (mori0091)">
<polygon fill="none" stroke="black" points="93.5,-168.5 93.5,-187.5 182.5,-187.5 182.5,-168.5 93.5,-168.5"/>
<text text-anchor="middle" x="138" y="-175.5" font-family="Helvetica,sans-Serif" font-size="10.00">../include/sprite.h</text>
</a>
</g>
</g>
<!-- Node1&#45;&gt;Node2 -->
<g id="edge1" class="edge">
<title>Node1&#45;&gt;Node2</title>
<path fill="none" stroke="midnightblue" d="M143.53,-280.37C142.56,-262.62 140.33,-221.67 139.01,-197.6"/>
<polygon fill="midnightblue" stroke="midnightblue" points="142.51,-197.39 138.47,-187.59 135.52,-197.77 142.51,-197.39"/>
</g>
<!-- Node7 -->
<g id="node7" class="node">
<title>Node7</title>
<g id="a_node7"><a xlink:href="sprite__color_8h.html" target="_top" xlink:title="Copyright (c) 2021 Daishi Mori (mori0091)">
<polygon fill="none" stroke="black" points="0,-224.5 0,-243.5 116,-243.5 116,-224.5 0,-224.5"/>
<text text-anchor="middle" x="58" y="-231.5" font-family="Helvetica,sans-Serif" font-size="10.00">../include/sprite_color.h</text>
</a>
</g>
</g>
<!-- Node1&#45;&gt;Node7 -->
<g id="edge7" class="edge">
<title>Node1&#45;&gt;Node7</title>
<path fill="none" stroke="midnightblue" d="M130.18,-280.32C116.77,-271.9 96.18,-258.97 80.41,-249.07"/>
<polygon fill="midnightblue" stroke="midnightblue" points="82.11,-246.01 71.78,-243.65 78.39,-251.94 82.11,-246.01"/>
</g>
<!-- Node8 -->
<g id="node8" class="node">
<title>Node8</title>
<g id="a_node8"><a xlink:href="metasprite_8h.html" target="_top" xlink:title="Copyright (c) 2021 Daishi Mori (mori0091)">
<polygon fill="none" stroke="black" points="172.5,-224.5 172.5,-243.5 283.5,-243.5 283.5,-224.5 172.5,-224.5"/>
<text text-anchor="middle" x="228" y="-231.5" font-family="Helvetica,sans-Serif" font-size="10.00">../include/metasprite.h</text>
</a>
</g>
</g>
<!-- Node1&#45;&gt;Node8 -->
<g id="edge11" class="edge">
<title>Node1&#45;&gt;Node8</title>
<path fill="none" stroke="midnightblue" d="M157.5,-280.32C170.6,-271.9 190.71,-258.97 206.11,-249.07"/>
<polygon fill="midnightblue" stroke="midnightblue" points="208.02,-252.01 214.54,-243.65 204.23,-246.12 208.02,-252.01"/>
</g>
<!-- Node3 -->
<g id="node3" class="node">
<title>Node3</title>
<g id="a_node3"><a xlink:title=" ">
<polygon fill="none" stroke="#bfbfbf" points="233,-0.5 233,-19.5 281,-19.5 281,-0.5 233,-0.5"/>
<text text-anchor="middle" x="257" y="-7.5" font-family="Helvetica,sans-Serif" font-size="10.00">stdint.h</text>
</a>
</g>
</g>
<!-- Node2&#45;&gt;Node3 -->
<g id="edge2" class="edge">
<title>Node2&#45;&gt;Node3</title>
<path fill="none" stroke="midnightblue" d="M138.55,-168.36C140.34,-146.98 147.62,-90.81 176,-56 188.32,-40.89 207.13,-30 223.53,-22.72"/>
<polygon fill="midnightblue" stroke="midnightblue" points="224.95,-25.92 232.83,-18.85 222.26,-19.46 224.95,-25.92"/>
</g>
<!-- Node4 -->
<g id="node4" class="node">
<title>Node4</title>
<g id="a_node4"><a xlink:href="vmem_8h.html" target="_top" xlink:title="Data types and functions for VRAM access.">
<polygon fill="none" stroke="black" points="218.5,-112.5 218.5,-131.5 269.5,-131.5 269.5,-112.5 218.5,-112.5"/>
<text text-anchor="middle" x="244" y="-119.5" font-family="Helvetica,sans-Serif" font-size="10.00">vmem.h</text>
</a>
</g>
</g>
<!-- Node2&#45;&gt;Node4 -->
<g id="edge3" class="edge">
<title>Node2&#45;&gt;Node4</title>
<path fill="none" stroke="midnightblue" d="M155.03,-168.32C172.03,-159.66 198.38,-146.24 217.99,-136.25"/>
<polygon fill="midnightblue" stroke="midnightblue" points="219.69,-139.31 227.01,-131.65 216.51,-133.08 219.69,-139.31"/>
</g>
<!-- Node4&#45;&gt;Node3 -->
<g id="edge4" class="edge">
<title>Node4&#45;&gt;Node3</title>
<path fill="none" stroke="midnightblue" d="M245.02,-112.37C247.12,-94.62 251.96,-53.67 254.8,-29.6"/>
<polygon fill="midnightblue" stroke="midnightblue" points="258.29,-29.93 255.98,-19.59 251.34,-29.11 258.29,-29.93"/>
</g>
<!-- Node5 -->
<g id="node5" class="node">
<title>Node5</title>
<g id="a_node5"><a xlink:href="io_8h.html" target="_top" xlink:title="Copyright (c) 2021 Daishi Mori (mori0091)">
<polygon fill="none" stroke="black" points="562,-56.5 562,-75.5 594,-75.5 594,-56.5 562,-56.5"/>
<text text-anchor="middle" x="578" y="-63.5" font-family="Helvetica,sans-Serif" font-size="10.00">io.h</text>
</a>
</g>
</g>
<!-- Node4&#45;&gt;Node5 -->
<g id="edge5" class="edge">
<title>Node4&#45;&gt;Node5</title>
<path fill="none" stroke="midnightblue" d="M269.57,-119.03C321.34,-114.66 442.29,-102.58 551.85,-75.85"/>
<polygon fill="midnightblue" stroke="midnightblue" points="552.88,-79.2 561.74,-73.38 551.19,-72.4 552.88,-79.2"/>
</g>
<!-- Node6 -->
<g id="node6" class="node">
<title>Node6</title>
<g id="a_node6"><a xlink:href="config_8h.html" target="_top" xlink:title="Copyright (c) 2022 Daishi Mori (mori0091)">
<polygon fill="none" stroke="black" points="441,-0.5 441,-19.5 491,-19.5 491,-0.5 441,-0.5"/>
<text text-anchor="middle" x="466" y="-7.5" font-family="Helvetica,sans-Serif" font-size="10.00">config.h</text>
</a>
</g>
</g>
<!-- Node5&#45;&gt;Node6 -->
<g id="edge6" class="edge">
<title>Node5&#45;&gt;Node6</title>
<path fill="none" stroke="midnightblue" d="M561.95,-57.26C544.01,-48.61 514.66,-34.46 493.14,-24.08"/>
<polygon fill="midnightblue" stroke="midnightblue" points="494.4,-20.81 483.87,-19.62 491.36,-27.11 494.4,-20.81"/>
</g>
<!-- Node7&#45;&gt;Node2 -->
<g id="edge9" class="edge">
<title>Node7&#45;&gt;Node2</title>
<path fill="none" stroke="midnightblue" d="M70.85,-224.32C83.22,-215.98 102.13,-203.21 116.74,-193.35"/>
<polygon fill="midnightblue" stroke="midnightblue" points="118.85,-196.15 125.18,-187.65 114.93,-190.35 118.85,-196.15"/>
</g>
<!-- Node7&#45;&gt;Node3 -->
<g id="edge8" class="edge">
<title>Node7&#45;&gt;Node3</title>
<path fill="none" stroke="midnightblue" d="M57.55,-224.18C57.23,-211.29 57.88,-186.79 66,-168 91.66,-108.6 107.65,-95.37 159,-56 178.32,-41.19 203.3,-29.81 223.2,-22.2"/>
<polygon fill="midnightblue" stroke="midnightblue" points="224.62,-25.41 232.8,-18.67 222.21,-18.84 224.62,-25.41"/>
</g>
<!-- Node7&#45;&gt;Node4 -->
<g id="edge10" class="edge">
<title>Node7&#45;&gt;Node4</title>
<path fill="none" stroke="midnightblue" d="M59.14,-224.46C61.46,-210.57 68.01,-183.1 85,-168 119.3,-137.52 172.81,-127.56 208.14,-124.38"/>
<polygon fill="midnightblue" stroke="midnightblue" points="208.77,-127.84 218.47,-123.59 208.24,-120.86 208.77,-127.84"/>
</g>
<!-- Node8&#45;&gt;Node2 -->
<g id="edge30" class="edge">
<title>Node8&#45;&gt;Node2</title>
<path fill="none" stroke="midnightblue" d="M213.54,-224.32C199.5,-215.9 177.95,-202.97 161.46,-193.07"/>
<polygon fill="midnightblue" stroke="midnightblue" points="162.8,-189.8 152.42,-187.65 159.2,-195.8 162.8,-189.8"/>
</g>
<!-- Node8&#45;&gt;Node3 -->
<g id="edge12" class="edge">
<title>Node8&#45;&gt;Node3</title>
<path fill="none" stroke="midnightblue" d="M224.59,-224.42C217.13,-204.5 200.78,-153.68 210,-112 216.9,-80.82 234.45,-47.85 246.04,-28.36"/>
<polygon fill="midnightblue" stroke="midnightblue" points="249.1,-30.08 251.33,-19.72 243.13,-26.42 249.1,-30.08"/>
</g>
<!-- Node8&#45;&gt;Node4 -->
<g id="edge29" class="edge">
<title>Node8&#45;&gt;Node4</title>
<path fill="none" stroke="midnightblue" d="M229.26,-224.37C231.84,-206.62 237.79,-165.67 241.29,-141.6"/>
<polygon fill="midnightblue" stroke="midnightblue" points="244.77,-141.99 242.75,-131.59 237.85,-140.98 244.77,-141.99"/>
</g>
<!-- Node9 -->
<g id="node9" class="node">
<title>Node9</title>
<g id="a_node9"><a xlink:href="vdp_8h.html" target="_top" xlink:title="Data types and functions for VDP (Video Display Proccessor) access.">
<polygon fill="none" stroke="black" points="344,-168.5 344,-187.5 384,-187.5 384,-168.5 344,-168.5"/>
<text text-anchor="middle" x="364" y="-175.5" font-family="Helvetica,sans-Serif" font-size="10.00">vdp.h</text>
</a>
</g>
</g>
<!-- Node8&#45;&gt;Node9 -->
<g id="edge13" class="edge">
<title>Node8&#45;&gt;Node9</title>
<path fill="none" stroke="midnightblue" d="M249.55,-224.44C272.43,-215.36 308.74,-200.94 334.32,-190.78"/>
<polygon fill="midnightblue" stroke="midnightblue" points="335.88,-193.93 343.88,-186.99 333.3,-187.43 335.88,-193.93"/>
</g>
<!-- Node9&#45;&gt;Node3 -->
<g id="edge16" class="edge">
<title>Node9&#45;&gt;Node3</title>
<path fill="none" stroke="midnightblue" d="M357.89,-168.49C345.59,-151.28 317.14,-110.99 295,-76 284.97,-60.16 274.25,-41.66 266.76,-28.46"/>
<polygon fill="midnightblue" stroke="midnightblue" points="269.69,-26.52 261.73,-19.53 263.59,-29.96 269.69,-26.52"/>
</g>
<!-- Node9&#45;&gt;Node4 -->
<g id="edge18" class="edge">
<title>Node9&#45;&gt;Node4</title>
<path fill="none" stroke="midnightblue" d="M344.99,-168.44C325.41,-159.64 294.69,-145.81 272.27,-135.72"/>
<polygon fill="midnightblue" stroke="midnightblue" points="273.48,-132.43 262.93,-131.52 270.61,-138.81 273.48,-132.43"/>
</g>
<!-- Node9&#45;&gt;Node5 -->
<g id="edge17" class="edge">
<title>Node9&#45;&gt;Node5</title>
<path fill="none" stroke="midnightblue" d="M384.23,-171.65C409.58,-164.52 453.96,-150.61 489,-132 515.48,-117.94 542.88,-96.74 560.16,-82.41"/>
<polygon fill="midnightblue" stroke="midnightblue" points="562.83,-84.74 568.22,-75.61 558.32,-79.39 562.83,-84.74"/>
</g>
<!-- Node10 -->
<g id="node10" class="node">
<title>Node10</title>
<g id="a_node10"><a xlink:title=" ">
<polygon fill="none" stroke="#bfbfbf" points="536.5,-112.5 536.5,-131.5 587.5,-131.5 587.5,-112.5 536.5,-112.5"/>
<text text-anchor="middle" x="562" y="-119.5" font-family="Helvetica,sans-Serif" font-size="10.00">assert.h</text>
</a>
</g>
</g>
<!-- Node9&#45;&gt;Node10 -->
<g id="edge14" class="edge">
<title>Node9&#45;&gt;Node10</title>
<path fill="none" stroke="midnightblue" d="M384.07,-171.53C417.5,-162.41 484.98,-144 526.56,-132.67"/>
<polygon fill="midnightblue" stroke="midnightblue" points="527.55,-136.02 536.28,-130.01 525.71,-129.27 527.55,-136.02"/>
</g>
<!-- Node11 -->
<g id="node11" class="node">
<title>Node11</title>
<g id="a_node11"><a xlink:title=" ">
<polygon fill="none" stroke="#bfbfbf" points="364,-112.5 364,-131.5 420,-131.5 420,-112.5 364,-112.5"/>
<text text-anchor="middle" x="392" y="-119.5" font-family="Helvetica,sans-Serif" font-size="10.00">stdbool.h</text>
</a>
</g>
</g>
<!-- Node9&#45;&gt;Node11 -->
<g id="edge15" class="edge">
<title>Node9&#45;&gt;Node11</title>
<path fill="none" stroke="midnightblue" d="M368.62,-168.08C372.46,-160.69 378.02,-149.95 382.76,-140.81"/>
<polygon fill="midnightblue" stroke="midnightblue" points="385.97,-142.24 387.46,-131.75 379.75,-139.02 385.97,-142.24"/>
</g>
<!-- Node12 -->
<g id="node12" class="node">
<title>Node12</title>
<g id="a_node12"><a xlink:href="bios_8h.html" target="_top" xlink:title="Copyright (c) 2021 Daishi Mori (mori0091)">
<polygon fill="none" stroke="black" points="438,-112.5 438,-131.5 480,-131.5 480,-112.5 438,-112.5"/>
<text text-anchor="middle" x="459" y="-119.5" font-family="Helvetica,sans-Serif" font-size="10.00">bios.h</text>
</a>
</g>
</g>
<!-- Node9&#45;&gt;Node12 -->
<g id="edge19" class="edge">
<title>Node9&#45;&gt;Node12</title>
<path fill="none" stroke="midnightblue" d="M379.26,-168.32C394.22,-159.82 417.25,-146.73 434.73,-136.8"/>
<polygon fill="midnightblue" stroke="midnightblue" points="436.81,-139.64 443.77,-131.65 433.35,-133.55 436.81,-139.64"/>
</g>
<!-- Node15 -->
<g id="node15" class="node">
<title>Node15</title>
<g id="a_node15"><a xlink:href="workarea_8h.html" target="_top" xlink:title="Copyright (c) 2021 Daishi Mori (mori0091)">
<polygon fill="none" stroke="black" points="304,-56.5 304,-75.5 368,-75.5 368,-56.5 304,-56.5"/>
<text text-anchor="middle" x="336" y="-63.5" font-family="Helvetica,sans-Serif" font-size="10.00">workarea.h</text>
</a>
</g>
</g>
<!-- Node9&#45;&gt;Node15 -->
<g id="edge26" class="edge">
<title>Node9&#45;&gt;Node15</title>
<path fill="none" stroke="midnightblue" d="M361.8,-168.37C357.28,-150.62 346.86,-109.67 340.73,-85.6"/>
<polygon fill="midnightblue" stroke="midnightblue" points="344.05,-84.42 338.19,-75.59 337.26,-86.15 344.05,-84.42"/>
</g>
<!-- Node13 -->
<g id="node13" class="node">
<title>Node13</title>
<g id="a_node13"><a xlink:href="bios__const_8h.html" target="_top" xlink:title="Constant variables in the MSX BIOS ROM.">
<polygon fill="none" stroke="black" points="386.5,-56.5 386.5,-75.5 457.5,-75.5 457.5,-56.5 386.5,-56.5"/>
<text text-anchor="middle" x="422" y="-63.5" font-family="Helvetica,sans-Serif" font-size="10.00">bios_const.h</text>
</a>
</g>
</g>
<!-- Node12&#45;&gt;Node13 -->
<g id="edge20" class="edge">
<title>Node12&#45;&gt;Node13</title>
<path fill="none" stroke="midnightblue" d="M452.89,-112.08C447.72,-104.53 440.15,-93.49 433.81,-84.23"/>
<polygon fill="midnightblue" stroke="midnightblue" points="436.54,-82.02 428,-75.75 430.76,-85.98 436.54,-82.02"/>
</g>
<!-- Node14 -->
<g id="node14" class="node">
<title>Node14</title>
<g id="a_node14"><a xlink:href="bios__entry_8h.html" target="_top" xlink:title="Assembler entry points for MSX BIOS functions.">
<polygon fill="none" stroke="black" points="476,-56.5 476,-75.5 544,-75.5 544,-56.5 476,-56.5"/>
<text text-anchor="middle" x="510" y="-63.5" font-family="Helvetica,sans-Serif" font-size="10.00">bios_entry.h</text>
</a>
</g>
</g>
<!-- Node12&#45;&gt;Node14 -->
<g id="edge23" class="edge">
<title>Node12&#45;&gt;Node14</title>
<path fill="none" stroke="midnightblue" d="M467.42,-112.08C474.85,-104.22 485.85,-92.57 494.81,-83.08"/>
<polygon fill="midnightblue" stroke="midnightblue" points="497.41,-85.42 501.74,-75.75 492.32,-80.62 497.41,-85.42"/>
</g>
<!-- Node13&#45;&gt;Node3 -->
<g id="edge21" class="edge">
<title>Node13&#45;&gt;Node3</title>
<path fill="none" stroke="midnightblue" d="M395.86,-56.44C367.4,-47.13 321.82,-32.21 290.7,-22.03"/>
<polygon fill="midnightblue" stroke="midnightblue" points="291.74,-18.69 281.14,-18.9 289.56,-25.34 291.74,-18.69"/>
</g>
<!-- Node13&#45;&gt;Node6 -->
<g id="edge22" class="edge">
<title>Node13&#45;&gt;Node6</title>
<path fill="none" stroke="midnightblue" d="M429.27,-56.08C435.54,-48.38 444.79,-37.03 452.43,-27.65"/>
<polygon fill="midnightblue" stroke="midnightblue" points="455.27,-29.71 458.87,-19.75 449.84,-25.29 455.27,-29.71"/>
</g>
<!-- Node14&#45;&gt;Node3 -->
<g id="edge24" class="edge">
<title>Node14&#45;&gt;Node3</title>
<path fill="none" stroke="midnightblue" d="M475.88,-57.72C427.5,-47.39 339.49,-28.61 291.11,-18.28"/>
<polygon fill="midnightblue" stroke="midnightblue" points="291.65,-14.82 281.14,-16.15 290.18,-21.66 291.65,-14.82"/>
</g>
<!-- Node14&#45;&gt;Node6 -->
<g id="edge25" class="edge">
<title>Node14&#45;&gt;Node6</title>
<path fill="none" stroke="midnightblue" d="M502.73,-56.08C496.46,-48.38 487.21,-37.03 479.57,-27.65"/>
<polygon fill="midnightblue" stroke="midnightblue" points="482.16,-25.29 473.13,-19.75 476.73,-29.71 482.16,-25.29"/>
</g>
<!-- Node15&#45;&gt;Node3 -->
<g id="edge27" class="edge">
<title>Node15&#45;&gt;Node3</title>
<path fill="none" stroke="midnightblue" d="M323.31,-56.32C311.1,-47.98 292.42,-35.21 278,-25.35"/>
<polygon fill="midnightblue" stroke="midnightblue" points="279.89,-22.41 269.66,-19.65 275.94,-28.19 279.89,-22.41"/>
</g>
<!-- Node15&#45;&gt;Node6 -->
<g id="edge28" class="edge">
<title>Node15&#45;&gt;Node6</title>
<path fill="none" stroke="midnightblue" d="M356.6,-56.44C377.99,-47.56 411.68,-33.56 436.02,-23.45"/>
<polygon fill="midnightblue" stroke="midnightblue" points="437.61,-26.58 445.5,-19.52 434.92,-20.12 437.61,-26.58"/>
</g>
</g>
</svg>
