<?xml version="1.0" encoding="UTF-8" standalone="no"?>
<!DOCTYPE svg PUBLIC "-//W3C//DTD SVG 1.1//EN"
 "http://www.w3.org/Graphics/SVG/1.1/DTD/svg11.dtd">
<!-- Generated by graphviz version 12.2.0 (20241103.1931)
 -->
<!-- Title: include/vmem.h Pages: 1 -->
<svg width="878pt" height="248pt"
 viewBox="0.00 0.00 878.38 248.25" xmlns="http://www.w3.org/2000/svg" xmlns:xlink="http://www.w3.org/1999/xlink">
<g id="graph0" class="graph" transform="scale(1 1) rotate(0) translate(4 244.25)">
<title>include/vmem.h</title>
<!-- Node1 -->
<g id="Node000001" class="node">
<title>Node1</title>
<g id="a_Node000001"><a xlink:title="Data types and functions for VRAM access.">
<polygon fill="#999999" stroke="#666666" points="623,-240.25 538.75,-240.25 538.75,-221 623,-221 623,-240.25"/>
<text text-anchor="middle" x="580.88" y="-226.75" font-family="Helvetica,sans-Serif" font-size="10.00">include/vmem.h</text>
</a>
</g>
</g>
<!-- Node2 -->
<g id="Node000002" class="node">
<title>Node2</title>
<g id="a_Node000002"><a xlink:href="ZX0__decompress_8h.html" target="_top" xlink:title="Decompressor of the ZX0 data compression format version 2.">
<polygon fill="white" stroke="#666666" points="133.75,-129.75 0,-129.75 0,-110.5 133.75,-110.5 133.75,-129.75"/>
<text text-anchor="middle" x="66.88" y="-116.25" font-family="Helvetica,sans-Serif" font-size="10.00">include/ZX0_decompress.h</text>
</a>
</g>
</g>
<!-- Node1&#45;&gt;Node2 -->
<g id="edge1_Node000001_Node000002" class="edge">
<title>Node1&#45;&gt;Node2</title>
<g id="a_edge1_Node000001_Node000002"><a xlink:title=" ">
<path fill="none" stroke="#63b8ff" d="M527,-224.86C463.68,-218.61 355.73,-205.91 264.88,-185 200.64,-170.22 127.36,-144.05 90.58,-130.24"/>
<polygon fill="#63b8ff" stroke="#63b8ff" points="526.49,-228.33 536.78,-225.81 527.16,-221.36 526.49,-228.33"/>
</a>
</g>
</g>
<!-- Node3 -->
<g id="Node000003" class="node">
<title>Node3</title>
<g id="a_Node000003"><a xlink:href="bmem_8h.html" target="_top" xlink:title="Data types and functions for accessing banked memory.">
<polygon fill="white" stroke="#666666" points="358,-185 273.75,-185 273.75,-165.75 358,-165.75 358,-185"/>
<text text-anchor="middle" x="315.88" y="-171.5" font-family="Helvetica,sans-Serif" font-size="10.00">include/bmem.h</text>
</a>
</g>
</g>
<!-- Node1&#45;&gt;Node3 -->
<g id="edge2_Node000001_Node000003" class="edge">
<title>Node1&#45;&gt;Node3</title>
<g id="a_edge2_Node000001_Node000003"><a xlink:title=" ">
<path fill="none" stroke="#63b8ff" d="M527.11,-218.82C477.29,-208.81 404.18,-194.12 358.35,-184.91"/>
<polygon fill="#63b8ff" stroke="#63b8ff" points="526.32,-222.23 536.81,-220.77 527.7,-215.37 526.32,-222.23"/>
</a>
</g>
</g>
<!-- Node10 -->
<g id="Node000010" class="node">
<title>Node10</title>
<g id="a_Node000010"><a xlink:href="metasprite_8h.html" target="_top" xlink:title="Meta&#45;sprite ; an aggregate of sprites.">
<polygon fill="white" stroke="#666666" points="838.38,-74.5 735.38,-74.5 735.38,-55.25 838.38,-55.25 838.38,-74.5"/>
<text text-anchor="middle" x="786.88" y="-61" font-family="Helvetica,sans-Serif" font-size="10.00">include/metasprite.h</text>
</a>
</g>
</g>
<!-- Node1&#45;&gt;Node10 -->
<g id="edge10_Node000001_Node000010" class="edge">
<title>Node1&#45;&gt;Node10</title>
<g id="a_edge10_Node000001_Node000010"><a xlink:title=" ">
<path fill="none" stroke="#63b8ff" d="M601.17,-213.49C643.95,-179.48 742.17,-101.41 775.54,-74.88"/>
<polygon fill="#63b8ff" stroke="#63b8ff" points="599.08,-210.68 593.43,-219.65 603.43,-216.16 599.08,-210.68"/>
</a>
</g>
</g>
<!-- Node11 -->
<g id="Node000011" class="node">
<title>Node11</title>
<g id="a_Node000011"><a xlink:href="msx_8h.html" target="_top" xlink:title="Using #include &lt;msx.h&gt; includes almost all C header files in libmsx, for ease to use.">
<polygon fill="white" stroke="#666666" points="744.5,-19.25 669.25,-19.25 669.25,0 744.5,0 744.5,-19.25"/>
<text text-anchor="middle" x="706.88" y="-5.75" font-family="Helvetica,sans-Serif" font-size="10.00">include/msx.h</text>
</a>
</g>
</g>
<!-- Node1&#45;&gt;Node11 -->
<g id="edge12_Node000001_Node000011" class="edge">
<title>Node1&#45;&gt;Node11</title>
<g id="a_edge12_Node000001_Node000011"><a xlink:title=" ">
<path fill="none" stroke="#63b8ff" d="M571,-210.37C554.75,-175.66 527.42,-101.91 561.88,-55.25 586.28,-22.2 634.79,-12.86 668.96,-10.6"/>
<polygon fill="#63b8ff" stroke="#63b8ff" points="567.78,-211.74 575.32,-219.19 574.07,-208.66 567.78,-211.74"/>
</a>
</g>
</g>
<!-- Node12 -->
<g id="Node000012" class="node">
<title>Node12</title>
<g id="a_Node000012"><a xlink:href="sprite_8h.html" target="_top" xlink:title="Sprites.">
<polygon fill="white" stroke="#666666" points="690.5,-129.75 609.25,-129.75 609.25,-110.5 690.5,-110.5 690.5,-129.75"/>
<text text-anchor="middle" x="649.88" y="-116.25" font-family="Helvetica,sans-Serif" font-size="10.00">include/sprite.h</text>
</a>
</g>
</g>
<!-- Node1&#45;&gt;Node12 -->
<g id="edge13_Node000001_Node000012" class="edge">
<title>Node1&#45;&gt;Node12</title>
<g id="a_edge13_Node000001_Node000012"><a xlink:title=" ">
<path fill="none" stroke="#63b8ff" d="M592.58,-211.22C607.55,-187.69 632.87,-147.87 644.15,-130.13"/>
<polygon fill="#63b8ff" stroke="#63b8ff" points="589.75,-209.15 587.33,-219.47 595.65,-212.91 589.75,-209.15"/>
</a>
</g>
</g>
<!-- Node13 -->
<g id="Node000013" class="node">
<title>Node13</title>
<g id="a_Node000013"><a xlink:href="sprite__color_8h.html" target="_top" xlink:title="Sprite color table interface.">
<polygon fill="white" stroke="#666666" points="678.62,-74.5 571.12,-74.5 571.12,-55.25 678.62,-55.25 678.62,-74.5"/>
<text text-anchor="middle" x="624.88" y="-61" font-family="Helvetica,sans-Serif" font-size="10.00">include/sprite_color.h</text>
</a>
</g>
</g>
<!-- Node1&#45;&gt;Node13 -->
<g id="edge18_Node000001_Node000013" class="edge">
<title>Node1&#45;&gt;Node13</title>
<g id="a_edge18_Node000001_Node000013"><a xlink:title=" ">
<path fill="none" stroke="#63b8ff" d="M581.93,-209.51C583.67,-185.4 588.22,-144.04 599.88,-110.5 604.42,-97.41 612.71,-83.71 618.49,-74.99"/>
<polygon fill="#63b8ff" stroke="#63b8ff" points="578.45,-208.99 581.33,-219.19 585.44,-209.42 578.45,-208.99"/>
</a>
</g>
</g>
<!-- Node14 -->
<g id="Node000014" class="node">
<title>Node14</title>
<g id="a_Node000014"><a xlink:href="vdp_8h.html" target="_top" xlink:title="Data types and functions for VDP (Video Display Proccessor) access.">
<polygon fill="white" stroke="#666666" points="870.38,-129.75 797.38,-129.75 797.38,-110.5 870.38,-110.5 870.38,-129.75"/>
<text text-anchor="middle" x="833.88" y="-116.25" font-family="Helvetica,sans-Serif" font-size="10.00">include/vdp.h</text>
</a>
</g>
</g>
<!-- Node1&#45;&gt;Node14 -->
<g id="edge19_Node000001_Node000014" class="edge">
<title>Node1&#45;&gt;Node14</title>
<g id="a_edge19_Node000001_Node000014"><a xlink:title=" ">
<path fill="none" stroke="#63b8ff" d="M634.81,-229.12C708.55,-227.15 835,-218.78 863.88,-185 878.2,-168.24 857.55,-143.47 844.03,-130.24"/>
<polygon fill="#63b8ff" stroke="#63b8ff" points="634.88,-225.61 624.97,-229.35 635.05,-232.61 634.88,-225.61"/>
</a>
</g>
</g>
<!-- Node15 -->
<g id="Node000015" class="node">
<title>Node15</title>
<g id="a_Node000015"><a xlink:href="vdp__unsafe_8h.html" target="_top" xlink:title="Unsafe primitive functions for VDP (Video Display Proccessor) access.">
<polygon fill="white" stroke="#666666" points="854.62,-185 747.12,-185 747.12,-165.75 854.62,-165.75 854.62,-185"/>
<text text-anchor="middle" x="800.88" y="-171.5" font-family="Helvetica,sans-Serif" font-size="10.00">include/vdp_unsafe.h</text>
</a>
</g>
</g>
<!-- Node1&#45;&gt;Node15 -->
<g id="edge22_Node000001_Node000015" class="edge">
<title>Node1&#45;&gt;Node15</title>
<g id="a_edge22_Node000001_Node000015"><a xlink:title=" ">
<path fill="none" stroke="#63b8ff" d="M629.38,-217.88C669.75,-208.11 726.41,-194.4 763.37,-185.45"/>
<polygon fill="#63b8ff" stroke="#63b8ff" points="628.56,-214.48 619.67,-220.24 630.21,-221.28 628.56,-214.48"/>
</a>
</g>
</g>
<!-- Node16 -->
<g id="Node000016" class="node">
<title>Node16</title>
<g id="a_Node000016"><a xlink:href="vmem__rw_8h.html" target="_top" xlink:title="Stream like access functions for VRAM.">
<polygon fill="white" stroke="#666666" points="514.88,-185 414.88,-185 414.88,-165.75 514.88,-165.75 514.88,-185"/>
<text text-anchor="middle" x="464.88" y="-171.5" font-family="Helvetica,sans-Serif" font-size="10.00">include/vmem_rw.h</text>
</a>
</g>
</g>
<!-- Node1&#45;&gt;Node16 -->
<g id="edge24_Node000001_Node000016" class="edge">
<title>Node1&#45;&gt;Node16</title>
<g id="a_edge24_Node000001_Node000016"><a xlink:title=" ">
<path fill="none" stroke="#63b8ff" d="M550.95,-215.89C530.09,-206.31 502.85,-193.81 484.65,-185.45"/>
<polygon fill="#63b8ff" stroke="#63b8ff" points="549.27,-218.97 559.82,-219.96 552.19,-212.61 549.27,-218.97"/>
</a>
</g>
</g>
<!-- Node3&#45;&gt;Node2 -->
<g id="edge3_Node000003_Node000002" class="edge">
<title>Node3&#45;&gt;Node2</title>
<g id="a_edge3_Node000003_Node000002"><a xlink:title=" ">
<path fill="none" stroke="#63b8ff" d="M262.15,-162.88C216.35,-153.09 151.41,-139.2 109.22,-130.18"/>
<polygon fill="#63b8ff" stroke="#63b8ff" points="261.36,-166.3 271.87,-164.96 262.83,-159.45 261.36,-166.3"/>
</a>
</g>
</g>
<!-- Node4 -->
<g id="Node000004" class="node">
<title>Node4</title>
<g id="a_Node000004"><a xlink:href="bmem__rd_8h.html" target="_top" xlink:title="Stream like access functions for Banked Memory.">
<polygon fill="white" stroke="#666666" points="476.75,-129.75 379,-129.75 379,-110.5 476.75,-110.5 476.75,-129.75"/>
<text text-anchor="middle" x="427.88" y="-116.25" font-family="Helvetica,sans-Serif" font-size="10.00">include/bmem_rd.h</text>
</a>
</g>
</g>
<!-- Node3&#45;&gt;Node4 -->
<g id="edge4_Node000003_Node000004" class="edge">
<title>Node3&#45;&gt;Node4</title>
<g id="a_edge4_Node000003_Node000004"><a xlink:title=" ">
<path fill="none" stroke="#63b8ff" d="M345.04,-160.51C365.15,-150.95 391.29,-138.52 408.78,-130.2"/>
<polygon fill="#63b8ff" stroke="#63b8ff" points="343.77,-157.24 336.24,-164.69 346.78,-163.56 343.77,-157.24"/>
</a>
</g>
</g>
<!-- Node6 -->
<g id="Node000006" class="node">
<title>Node6</title>
<g id="a_Node000006"><a xlink:href="memfile_8h.html" target="_top" xlink:title="Stream interface for ROM / RAM / MegaROM.">
<polygon fill="white" stroke="#666666" points="361.38,-129.75 270.38,-129.75 270.38,-110.5 361.38,-110.5 361.38,-129.75"/>
<text text-anchor="middle" x="315.88" y="-116.25" font-family="Helvetica,sans-Serif" font-size="10.00">include/memfile.h</text>
</a>
</g>
</g>
<!-- Node3&#45;&gt;Node6 -->
<g id="edge6_Node000003_Node000006" class="edge">
<title>Node3&#45;&gt;Node6</title>
<g id="a_edge6_Node000003_Node000006"><a xlink:title=" ">
<path fill="none" stroke="#63b8ff" d="M315.88,-154.13C315.88,-145.84 315.88,-136.67 315.88,-130.11"/>
<polygon fill="#63b8ff" stroke="#63b8ff" points="312.38,-154.07 315.88,-164.07 319.38,-154.07 312.38,-154.07"/>
</a>
</g>
</g>
<!-- Node9 -->
<g id="Node000009" class="node">
<title>Node9</title>
<g id="a_Node000009"><a xlink:href="resources_8h.html" target="_top" xlink:title="Data types and functions for accessing embedded resources.">
<polygon fill="white" stroke="#666666" points="251.88,-129.75 151.88,-129.75 151.88,-110.5 251.88,-110.5 251.88,-129.75"/>
<text text-anchor="middle" x="201.88" y="-116.25" font-family="Helvetica,sans-Serif" font-size="10.00">include/resources.h</text>
</a>
</g>
</g>
<!-- Node3&#45;&gt;Node9 -->
<g id="edge9_Node000003_Node000009" class="edge">
<title>Node3&#45;&gt;Node9</title>
<g id="a_edge9_Node000003_Node000009"><a xlink:title=" ">
<path fill="none" stroke="#63b8ff" d="M286.19,-160.51C265.72,-150.95 239.11,-138.52 221.31,-130.2"/>
<polygon fill="#63b8ff" stroke="#63b8ff" points="284.62,-163.64 295.17,-164.7 287.59,-157.3 284.62,-163.64"/>
</a>
</g>
</g>
<!-- Node5 -->
<g id="Node000005" class="node">
<title>Node5</title>
<g id="a_Node000005"><a xlink:href="xmem_8h.html" target="_top" xlink:title="Inter&#45;memory transfer functions for ROM / RAM, VRAM, and Banked Memory (MegaROM).">
<polygon fill="white" stroke="#666666" points="491.62,-74.5 408.12,-74.5 408.12,-55.25 491.62,-55.25 491.62,-74.5"/>
<text text-anchor="middle" x="449.88" y="-61" font-family="Helvetica,sans-Serif" font-size="10.00">include/xmem.h</text>
</a>
</g>
</g>
<!-- Node4&#45;&gt;Node5 -->
<g id="edge5_Node000004_Node000005" class="edge">
<title>Node4&#45;&gt;Node5</title>
<g id="a_edge5_Node000004_Node000005"><a xlink:title=" ">
<path fill="none" stroke="#63b8ff" d="M435.88,-99.75C439.4,-91.24 443.36,-81.65 446.16,-74.86"/>
<polygon fill="#63b8ff" stroke="#63b8ff" points="432.67,-98.35 432.09,-108.93 439.14,-101.03 432.67,-98.35"/>
</a>
</g>
</g>
<!-- Node7 -->
<g id="Node000007" class="node">
<title>Node7</title>
<g id="a_Node000007"><a xlink:href="audio__buf_8h.html" target="_top" xlink:title="Unified sound&#45;chip buffer of the libmsx audio replayer.">
<polygon fill="white" stroke="#666666" points="270.5,-74.5 171.25,-74.5 171.25,-55.25 270.5,-55.25 270.5,-74.5"/>
<text text-anchor="middle" x="220.88" y="-61" font-family="Helvetica,sans-Serif" font-size="10.00">include/audio_buf.h</text>
</a>
</g>
</g>
<!-- Node6&#45;&gt;Node7 -->
<g id="edge7_Node000006_Node000007" class="edge">
<title>Node6&#45;&gt;Node7</title>
<g id="a_edge7_Node000006_Node000007"><a xlink:title=" ">
<path fill="none" stroke="#63b8ff" d="M289.95,-104.59C273.06,-95.13 251.56,-83.08 237.07,-74.95"/>
<polygon fill="#63b8ff" stroke="#63b8ff" points="288,-107.52 298.44,-109.35 291.43,-101.41 288,-107.52"/>
</a>
</g>
</g>
<!-- Node8 -->
<g id="Node000008" class="node">
<title>Node8</title>
<g id="a_Node000008"><a xlink:href="la0_8h.html" target="_top" xlink:title="The libmsx audio format 0 (LA0) decoder.">
<polygon fill="white" stroke="#666666" points="358.88,-74.5 288.88,-74.5 288.88,-55.25 358.88,-55.25 358.88,-74.5"/>
<text text-anchor="middle" x="323.88" y="-61" font-family="Helvetica,sans-Serif" font-size="10.00">include/la0.h</text>
</a>
</g>
</g>
<!-- Node6&#45;&gt;Node8 -->
<g id="edge8_Node000006_Node000008" class="edge">
<title>Node6&#45;&gt;Node8</title>
<g id="a_edge8_Node000006_Node000008"><a xlink:title=" ">
<path fill="none" stroke="#63b8ff" d="M318.87,-99.17C320.13,-90.8 321.53,-81.5 322.53,-74.86"/>
<polygon fill="#63b8ff" stroke="#63b8ff" points="315.45,-98.43 317.42,-108.84 322.37,-99.47 315.45,-98.43"/>
</a>
</g>
</g>
<!-- Node10&#45;&gt;Node11 -->
<g id="edge11_Node000010_Node000011" class="edge">
<title>Node10&#45;&gt;Node11</title>
<g id="a_edge11_Node000010_Node000011"><a xlink:title=" ">
<path fill="none" stroke="#63b8ff" d="M763.82,-48.53C749.8,-39.2 732.37,-27.6 720.51,-19.7"/>
<polygon fill="#63b8ff" stroke="#63b8ff" points="761.78,-51.38 772.04,-54 765.66,-45.55 761.78,-51.38"/>
</a>
</g>
</g>
<!-- Node12&#45;&gt;Node10 -->
<g id="edge14_Node000012_Node000010" class="edge">
<title>Node12&#45;&gt;Node10</title>
<g id="a_edge14_Node000012_Node000010"><a xlink:title=" ">
<path fill="none" stroke="#63b8ff" d="M683.53,-106.04C708.37,-96.39 741.54,-83.5 763.52,-74.95"/>
<polygon fill="#63b8ff" stroke="#63b8ff" points="682.58,-102.66 674.53,-109.54 685.11,-109.18 682.58,-102.66"/>
</a>
</g>
</g>
<!-- Node12&#45;&gt;Node11 -->
<g id="edge15_Node000012_Node000011" class="edge">
<title>Node12&#45;&gt;Node11</title>
<g id="a_edge15_Node000012_Node000011"><a xlink:title=" ">
<path fill="none" stroke="#63b8ff" d="M667.51,-101.88C674.67,-94.08 682.5,-84.4 687.88,-74.5 697.81,-56.2 703.17,-32.05 705.47,-19.33"/>
<polygon fill="#63b8ff" stroke="#63b8ff" points="665.08,-99.36 660.66,-108.99 670.12,-104.22 665.08,-99.36"/>
</a>
</g>
</g>
<!-- Node12&#45;&gt;Node13 -->
<g id="edge16_Node000012_Node000013" class="edge">
<title>Node12&#45;&gt;Node13</title>
<g id="a_edge16_Node000012_Node000013"><a xlink:title=" ">
<path fill="none" stroke="#63b8ff" d="M640.91,-100.04C636.88,-91.46 632.32,-81.73 629.09,-74.86"/>
<polygon fill="#63b8ff" stroke="#63b8ff" points="637.69,-101.4 645.1,-108.96 644.02,-98.42 637.69,-101.4"/>
</a>
</g>
</g>
<!-- Node13&#45;&gt;Node11 -->
<g id="edge17_Node000013_Node000011" class="edge">
<title>Node13&#45;&gt;Node11</title>
<g id="a_edge17_Node000013_Node000011"><a xlink:title=" ">
<path fill="none" stroke="#63b8ff" d="M648.08,-48.8C662.53,-39.42 680.62,-27.67 692.9,-19.7"/>
<polygon fill="#63b8ff" stroke="#63b8ff" points="646.54,-45.64 640.05,-54.02 650.35,-51.51 646.54,-45.64"/>
</a>
</g>
</g>
<!-- Node14&#45;&gt;Node10 -->
<g id="edge20_Node000014_Node000010" class="edge">
<title>Node14&#45;&gt;Node10</title>
<g id="a_edge20_Node000014_Node000010"><a xlink:title=" ">
<path fill="none" stroke="#63b8ff" d="M818.55,-101.76C810.62,-92.78 801.28,-82.2 794.8,-74.86"/>
<polygon fill="#63b8ff" stroke="#63b8ff" points="815.87,-104.02 825.11,-109.2 821.12,-99.38 815.87,-104.02"/>
</a>
</g>
</g>
<!-- Node14&#45;&gt;Node11 -->
<g id="edge21_Node000014_Node000011" class="edge">
<title>Node14&#45;&gt;Node11</title>
<g id="a_edge21_Node000014_Node000011"><a xlink:title=" ">
<path fill="none" stroke="#63b8ff" d="M845.17,-100.61C851.93,-86.9 857.51,-68.4 847.88,-55.25 824.44,-23.25 777.93,-13.62 744.74,-11.01"/>
<polygon fill="#63b8ff" stroke="#63b8ff" points="842.28,-98.61 840.5,-109.05 848.4,-102 842.28,-98.61"/>
</a>
</g>
</g>
<!-- Node15&#45;&gt;Node14 -->
<g id="edge23_Node000015_Node000014" class="edge">
<title>Node15&#45;&gt;Node14</title>
<g id="a_edge23_Node000015_Node000014"><a xlink:title=" ">
<path fill="none" stroke="#63b8ff" d="M812.35,-155.87C817.75,-147.14 823.95,-137.14 828.31,-130.11"/>
<polygon fill="#63b8ff" stroke="#63b8ff" points="809.41,-153.95 807.12,-164.3 815.36,-157.64 809.41,-153.95"/>
</a>
</g>
</g>
<!-- Node16&#45;&gt;Node5 -->
<g id="edge25_Node000016_Node000005" class="edge">
<title>Node16&#45;&gt;Node5</title>
<g id="a_edge25_Node000016_Node000005"><a xlink:title=" ">
<path fill="none" stroke="#63b8ff" d="M477.4,-156.15C484.62,-143.33 491.28,-125.81 485.88,-110.5 480.84,-96.23 469.09,-83.18 460.38,-74.92"/>
<polygon fill="#63b8ff" stroke="#63b8ff" points="474.59,-154.04 472.26,-164.37 480.53,-157.74 474.59,-154.04"/>
</a>
</g>
</g>
</g>
</svg>
