<?xml version="1.0" encoding="UTF-8" standalone="no"?>
<!DOCTYPE svg PUBLIC "-//W3C//DTD SVG 1.1//EN"
 "http://www.w3.org/Graphics/SVG/1.1/DTD/svg11.dtd">
<!-- Generated by graphviz version 12.2.0 (20241103.1931)
 -->
<!-- Title: include/vmem.h Pages: 1 -->
<svg width="1022pt" height="248pt"
 viewBox="0.00 0.00 1022.38 248.25" xmlns="http://www.w3.org/2000/svg" xmlns:xlink="http://www.w3.org/1999/xlink">
<g id="graph0" class="graph" transform="scale(1 1) rotate(0) translate(4 244.25)">
<title>include/vmem.h</title>
<!-- Node1 -->
<g id="Node000001" class="node">
<title>Node1</title>
<g id="a_Node000001"><a xlink:title="Data types and functions for VRAM access.">
<polygon fill="#999999" stroke="#666666" points="629.12,-240.25 544.88,-240.25 544.88,-221 629.12,-221 629.12,-240.25"/>
<text text-anchor="middle" x="587" y="-226.75" font-family="Helvetica,sans-Serif" font-size="10.00">include/vmem.h</text>
</a>
</g>
</g>
<!-- Node2 -->
<g id="Node000002" class="node">
<title>Node2</title>
<g id="a_Node000002"><a xlink:href="ZX0__decompress_8h.html" target="_top" xlink:title="Decompressor of the ZX0 data compression format version 2.">
<polygon fill="white" stroke="#666666" points="161.88,-129.75 28.12,-129.75 28.12,-110.5 161.88,-110.5 161.88,-129.75"/>
<text text-anchor="middle" x="95" y="-116.25" font-family="Helvetica,sans-Serif" font-size="10.00">include/ZX0_decompress.h</text>
</a>
</g>
</g>
<!-- Node1&#45;&gt;Node2 -->
<g id="edge1_Node000001_Node000002" class="edge">
<title>Node1&#45;&gt;Node2</title>
<g id="a_edge1_Node000001_Node000002"><a xlink:title=" ">
<path fill="none" stroke="#63b8ff" d="M533.46,-223.95C474.71,-217.13 377.88,-204.17 296,-185 231.11,-169.81 156.9,-143.94 119.41,-130.24"/>
<polygon fill="#63b8ff" stroke="#63b8ff" points="532.85,-227.4 543.18,-225.06 533.64,-220.44 532.85,-227.4"/>
</a>
</g>
</g>
<!-- Node3 -->
<g id="Node000003" class="node">
<title>Node3</title>
<g id="a_Node000003"><a xlink:href="bmem_8h.html" target="_top" xlink:title="Data types and functions for accessing banked memory.">
<polygon fill="white" stroke="#666666" points="389.12,-185 304.88,-185 304.88,-165.75 389.12,-165.75 389.12,-185"/>
<text text-anchor="middle" x="347" y="-171.5" font-family="Helvetica,sans-Serif" font-size="10.00">include/bmem.h</text>
</a>
</g>
</g>
<!-- Node1&#45;&gt;Node3 -->
<g id="edge2_Node000001_Node000003" class="edge">
<title>Node1&#45;&gt;Node3</title>
<g id="a_edge2_Node000001_Node000003"><a xlink:title=" ">
<path fill="none" stroke="#63b8ff" d="M534.93,-218.07C490.8,-208.28 428.4,-194.44 387.82,-185.43"/>
<polygon fill="#63b8ff" stroke="#63b8ff" points="534.02,-221.45 544.54,-220.2 535.53,-214.62 534.02,-221.45"/>
</a>
</g>
</g>
<!-- Node11 -->
<g id="Node000011" class="node">
<title>Node11</title>
<g id="a_Node000011"><a xlink:href="metasprite_8h.html" target="_top" xlink:title="Meta&#45;sprite ; an aggregate of sprites.">
<polygon fill="white" stroke="#666666" points="753.5,-74.5 650.5,-74.5 650.5,-55.25 753.5,-55.25 753.5,-74.5"/>
<text text-anchor="middle" x="702" y="-61" font-family="Helvetica,sans-Serif" font-size="10.00">include/metasprite.h</text>
</a>
</g>
</g>
<!-- Node1&#45;&gt;Node11 -->
<g id="edge11_Node000001_Node000011" class="edge">
<title>Node1&#45;&gt;Node11</title>
<g id="a_edge11_Node000001_Node000011"><a xlink:title=" ">
<path fill="none" stroke="#63b8ff" d="M640.21,-218.77C659.2,-212.19 678.87,-201.68 691,-185 715.8,-150.9 708.18,-95.98 703.97,-74.69"/>
<polygon fill="#63b8ff" stroke="#63b8ff" points="639.42,-215.35 630.92,-221.68 641.51,-222.03 639.42,-215.35"/>
</a>
</g>
</g>
<!-- Node12 -->
<g id="Node000012" class="node">
<title>Node12</title>
<g id="a_Node000012"><a xlink:href="msx_8h.html" target="_top" xlink:title="Using #include &lt;msx.h&gt; includes almost all C header files in libmsx, for ease to use.">
<polygon fill="white" stroke="#666666" points="739.62,-19.25 664.38,-19.25 664.38,0 739.62,0 739.62,-19.25"/>
<text text-anchor="middle" x="702" y="-5.75" font-family="Helvetica,sans-Serif" font-size="10.00">include/msx.h</text>
</a>
</g>
</g>
<!-- Node1&#45;&gt;Node12 -->
<g id="edge13_Node000001_Node000012" class="edge">
<title>Node1&#45;&gt;Node12</title>
<g id="a_edge13_Node000001_Node000012"><a xlink:title=" ">
<path fill="none" stroke="#63b8ff" d="M571.83,-211.52C566.34,-203.84 560.81,-194.49 558,-185 548.19,-151.9 561.89,-139.89 580,-110.5 597.22,-82.56 603.83,-76.32 629,-55.25 646.2,-40.85 668.51,-27.91 683.91,-19.72"/>
<polygon fill="#63b8ff" stroke="#63b8ff" points="568.97,-213.55 577.86,-219.32 574.51,-209.26 568.97,-213.55"/>
</a>
</g>
</g>
<!-- Node13 -->
<g id="Node000013" class="node">
<title>Node13</title>
<g id="a_Node000013"><a xlink:href="sm2__cfg_8h.html" target="_top" xlink:title="SM2 (Sprite Mode 2) Runtime configuration.">
<polygon fill="white" stroke="#666666" points="1014.38,-185 919.62,-185 919.62,-165.75 1014.38,-165.75 1014.38,-185"/>
<text text-anchor="middle" x="967" y="-171.5" font-family="Helvetica,sans-Serif" font-size="10.00">include/sm2_cfg.h</text>
</a>
</g>
</g>
<!-- Node1&#45;&gt;Node13 -->
<g id="edge14_Node000001_Node000013" class="edge">
<title>Node1&#45;&gt;Node13</title>
<g id="a_edge14_Node000001_Node000013"><a xlink:title=" ">
<path fill="none" stroke="#63b8ff" d="M640.44,-222.14C714.7,-211.73 847.98,-193.05 919.14,-183.08"/>
<polygon fill="#63b8ff" stroke="#63b8ff" points="640.4,-218.61 630.98,-223.46 641.37,-225.54 640.4,-218.61"/>
</a>
</g>
</g>
<!-- Node16 -->
<g id="Node000016" class="node">
<title>Node16</title>
<g id="a_Node000016"><a xlink:href="sprite_8h.html" target="_top" xlink:title="Sprites.">
<polygon fill="white" stroke="#666666" points="822.62,-185 741.38,-185 741.38,-165.75 822.62,-165.75 822.62,-185"/>
<text text-anchor="middle" x="782" y="-171.5" font-family="Helvetica,sans-Serif" font-size="10.00">include/sprite.h</text>
</a>
</g>
</g>
<!-- Node1&#45;&gt;Node16 -->
<g id="edge17_Node000001_Node000016" class="edge">
<title>Node1&#45;&gt;Node16</title>
<g id="a_edge17_Node000001_Node000016"><a xlink:title=" ">
<path fill="none" stroke="#63b8ff" d="M631.15,-217.57C666.85,-207.82 716.35,-194.3 748.76,-185.45"/>
<polygon fill="#63b8ff" stroke="#63b8ff" points="630.26,-214.18 621.54,-220.19 632.11,-220.94 630.26,-214.18"/>
</a>
</g>
</g>
<!-- Node17 -->
<g id="Node000017" class="node">
<title>Node17</title>
<g id="a_Node000017"><a xlink:href="sprite__color_8h.html" target="_top" xlink:title="Sprite color table interface.">
<polygon fill="white" stroke="#666666" points="955.75,-129.75 848.25,-129.75 848.25,-110.5 955.75,-110.5 955.75,-129.75"/>
<text text-anchor="middle" x="902" y="-116.25" font-family="Helvetica,sans-Serif" font-size="10.00">include/sprite_color.h</text>
</a>
</g>
</g>
<!-- Node1&#45;&gt;Node17 -->
<g id="edge24_Node000001_Node000017" class="edge">
<title>Node1&#45;&gt;Node17</title>
<g id="a_edge24_Node000001_Node000017"><a xlink:title=" ">
<path fill="none" stroke="#63b8ff" d="M640.72,-228.32C692.23,-225.16 770.95,-215.24 832,-185 859.42,-171.42 883.95,-143.85 895.31,-129.79"/>
<polygon fill="#63b8ff" stroke="#63b8ff" points="640.83,-224.81 631.03,-228.84 641.21,-231.8 640.83,-224.81"/>
</a>
</g>
</g>
<!-- Node18 -->
<g id="Node000018" class="node">
<title>Node18</title>
<g id="a_Node000018"><a xlink:href="vdp_8h.html" target="_top" xlink:title="Data types and functions for VDP (Video Display Proccessor) access.">
<polygon fill="white" stroke="#666666" points="661.5,-129.75 588.5,-129.75 588.5,-110.5 661.5,-110.5 661.5,-129.75"/>
<text text-anchor="middle" x="625" y="-116.25" font-family="Helvetica,sans-Serif" font-size="10.00">include/vdp.h</text>
</a>
</g>
</g>
<!-- Node1&#45;&gt;Node18 -->
<g id="edge25_Node000001_Node000018" class="edge">
<title>Node1&#45;&gt;Node18</title>
<g id="a_edge25_Node000001_Node000018"><a xlink:title=" ">
<path fill="none" stroke="#63b8ff" d="M573.08,-211.33C564.95,-198.26 557.6,-180.47 565,-165.75 573.22,-149.39 590.59,-137.52 604.53,-130.15"/>
<polygon fill="#63b8ff" stroke="#63b8ff" points="570.09,-213.16 578.65,-219.4 575.85,-209.18 570.09,-213.16"/>
</a>
</g>
</g>
<!-- Node19 -->
<g id="Node000019" class="node">
<title>Node19</title>
<g id="a_Node000019"><a xlink:href="vdp__unsafe_8h.html" target="_top" xlink:title="Unsafe primitive functions for VDP (Video Display Proccessor) access.">
<polygon fill="white" stroke="#666666" points="681.75,-185 574.25,-185 574.25,-165.75 681.75,-165.75 681.75,-185"/>
<text text-anchor="middle" x="628" y="-171.5" font-family="Helvetica,sans-Serif" font-size="10.00">include/vdp_unsafe.h</text>
</a>
</g>
</g>
<!-- Node1&#45;&gt;Node19 -->
<g id="edge28_Node000001_Node000019" class="edge">
<title>Node1&#45;&gt;Node19</title>
<g id="a_edge28_Node000001_Node000019"><a xlink:title=" ">
<path fill="none" stroke="#63b8ff" d="M600.59,-211.97C607.46,-203.06 615.49,-192.62 621.08,-185.36"/>
<polygon fill="#63b8ff" stroke="#63b8ff" points="598.02,-209.57 594.69,-219.63 603.57,-213.84 598.02,-209.57"/>
</a>
</g>
</g>
<!-- Node20 -->
<g id="Node000020" class="node">
<title>Node20</title>
<g id="a_Node000020"><a xlink:href="vmem__rw_8h.html" target="_top" xlink:title="Stream like access functions for VRAM.">
<polygon fill="white" stroke="#666666" points="100,-185 0,-185 0,-165.75 100,-165.75 100,-185"/>
<text text-anchor="middle" x="50" y="-171.5" font-family="Helvetica,sans-Serif" font-size="10.00">include/vmem_rw.h</text>
</a>
</g>
</g>
<!-- Node1&#45;&gt;Node20 -->
<g id="edge30_Node000001_Node000020" class="edge">
<title>Node1&#45;&gt;Node20</title>
<g id="a_edge30_Node000001_Node000020"><a xlink:title=" ">
<path fill="none" stroke="#63b8ff" d="M533.24,-224.29C429.18,-213.98 201.57,-191.4 100.3,-181.36"/>
<polygon fill="#63b8ff" stroke="#63b8ff" points="532.61,-227.75 542.91,-225.25 533.3,-220.78 532.61,-227.75"/>
</a>
</g>
</g>
<!-- Node3&#45;&gt;Node2 -->
<g id="edge3_Node000003_Node000002" class="edge">
<title>Node3&#45;&gt;Node2</title>
<g id="a_edge3_Node000003_Node000002"><a xlink:title=" ">
<path fill="none" stroke="#63b8ff" d="M293.51,-163.07C247.18,-153.28 181.04,-139.31 138.06,-130.22"/>
<polygon fill="#63b8ff" stroke="#63b8ff" points="292.55,-166.45 303.06,-165.09 294,-159.6 292.55,-166.45"/>
</a>
</g>
</g>
<!-- Node4 -->
<g id="Node000004" class="node">
<title>Node4</title>
<g id="a_Node000004"><a xlink:href="bmem__rd_8h.html" target="_top" xlink:title="Stream like access functions for Banked Memory.">
<polygon fill="white" stroke="#666666" points="395.88,-129.75 298.12,-129.75 298.12,-110.5 395.88,-110.5 395.88,-129.75"/>
<text text-anchor="middle" x="347" y="-116.25" font-family="Helvetica,sans-Serif" font-size="10.00">include/bmem_rd.h</text>
</a>
</g>
</g>
<!-- Node3&#45;&gt;Node4 -->
<g id="edge4_Node000003_Node000004" class="edge">
<title>Node3&#45;&gt;Node4</title>
<g id="a_edge4_Node000003_Node000004"><a xlink:title=" ">
<path fill="none" stroke="#63b8ff" d="M347,-154.13C347,-145.84 347,-136.67 347,-130.11"/>
<polygon fill="#63b8ff" stroke="#63b8ff" points="343.5,-154.07 347,-164.07 350.5,-154.07 343.5,-154.07"/>
</a>
</g>
</g>
<!-- Node6 -->
<g id="Node000006" class="node">
<title>Node6</title>
<g id="a_Node000006"><a xlink:href="memfile_8h.html" target="_top" xlink:title="Stream interface for ROM / RAM / MegaROM.">
<polygon fill="white" stroke="#666666" points="504.5,-129.75 413.5,-129.75 413.5,-110.5 504.5,-110.5 504.5,-129.75"/>
<text text-anchor="middle" x="459" y="-116.25" font-family="Helvetica,sans-Serif" font-size="10.00">include/memfile.h</text>
</a>
</g>
</g>
<!-- Node3&#45;&gt;Node6 -->
<g id="edge6_Node000003_Node000006" class="edge">
<title>Node3&#45;&gt;Node6</title>
<g id="a_edge6_Node000003_Node000006"><a xlink:title=" ">
<path fill="none" stroke="#63b8ff" d="M376.17,-160.51C396.27,-150.95 422.42,-138.52 439.91,-130.2"/>
<polygon fill="#63b8ff" stroke="#63b8ff" points="374.89,-157.24 367.37,-164.69 377.9,-163.56 374.89,-157.24"/>
</a>
</g>
</g>
<!-- Node10 -->
<g id="Node000010" class="node">
<title>Node10</title>
<g id="a_Node000010"><a xlink:href="resources_8h.html" target="_top" xlink:title="Data types and functions for accessing embedded resources.">
<polygon fill="white" stroke="#666666" points="280,-129.75 180,-129.75 180,-110.5 280,-110.5 280,-129.75"/>
<text text-anchor="middle" x="230" y="-116.25" font-family="Helvetica,sans-Serif" font-size="10.00">include/resources.h</text>
</a>
</g>
</g>
<!-- Node3&#45;&gt;Node10 -->
<g id="edge10_Node000003_Node000010" class="edge">
<title>Node3&#45;&gt;Node10</title>
<g id="a_edge10_Node000003_Node000010"><a xlink:title=" ">
<path fill="none" stroke="#63b8ff" d="M316.82,-160.64C295.78,-151.06 268.3,-138.56 249.94,-130.2"/>
<polygon fill="#63b8ff" stroke="#63b8ff" points="315.22,-163.76 325.77,-164.71 318.12,-157.39 315.22,-163.76"/>
</a>
</g>
</g>
<!-- Node5 -->
<g id="Node000005" class="node">
<title>Node5</title>
<g id="a_Node000005"><a xlink:href="xmem_8h.html" target="_top" xlink:title="Inter&#45;memory transfer functions for ROM / RAM, VRAM, and Banked Memory (MegaROM).">
<polygon fill="white" stroke="#666666" points="122.75,-74.5 39.25,-74.5 39.25,-55.25 122.75,-55.25 122.75,-74.5"/>
<text text-anchor="middle" x="81" y="-61" font-family="Helvetica,sans-Serif" font-size="10.00">include/xmem.h</text>
</a>
</g>
</g>
<!-- Node4&#45;&gt;Node5 -->
<g id="edge5_Node000004_Node000005" class="edge">
<title>Node4&#45;&gt;Node5</title>
<g id="a_edge5_Node000004_Node000005"><a xlink:title=" ">
<path fill="none" stroke="#63b8ff" d="M290.29,-107.77C240.21,-97.75 168.31,-83.35 123.17,-74.32"/>
<polygon fill="#63b8ff" stroke="#63b8ff" points="289.6,-111.2 300.09,-109.73 290.97,-104.34 289.6,-111.2"/>
</a>
</g>
</g>
<!-- Node7 -->
<g id="Node000007" class="node">
<title>Node7</title>
<g id="a_Node000007"><a xlink:href="NDP_8h.html" target="_top" xlink:title="NDP &#45; NDP sound driver.">
<polygon fill="white" stroke="#666666" points="299.12,-74.5 220.88,-74.5 220.88,-55.25 299.12,-55.25 299.12,-74.5"/>
<text text-anchor="middle" x="260" y="-61" font-family="Helvetica,sans-Serif" font-size="10.00">include/NDP.h</text>
</a>
</g>
</g>
<!-- Node6&#45;&gt;Node7 -->
<g id="edge7_Node000006_Node000007" class="edge">
<title>Node6&#45;&gt;Node7</title>
<g id="a_edge7_Node000006_Node000007"><a xlink:title=" ">
<path fill="none" stroke="#63b8ff" d="M414.42,-107.2C377.95,-97.44 327.14,-83.84 293.92,-74.95"/>
<polygon fill="#63b8ff" stroke="#63b8ff" points="413.22,-110.5 423.78,-109.7 415.02,-103.73 413.22,-110.5"/>
</a>
</g>
</g>
<!-- Node8 -->
<g id="Node000008" class="node">
<title>Node8</title>
<g id="a_Node000008"><a xlink:href="audio__buf_8h.html" target="_top" xlink:title="Unified sound&#45;chip buffer of the libmsx audio replayer.">
<polygon fill="white" stroke="#666666" points="416.62,-74.5 317.38,-74.5 317.38,-55.25 416.62,-55.25 416.62,-74.5"/>
<text text-anchor="middle" x="367" y="-61" font-family="Helvetica,sans-Serif" font-size="10.00">include/audio_buf.h</text>
</a>
</g>
</g>
<!-- Node6&#45;&gt;Node8 -->
<g id="edge8_Node000006_Node000008" class="edge">
<title>Node6&#45;&gt;Node8</title>
<g id="a_edge8_Node000006_Node000008"><a xlink:title=" ">
<path fill="none" stroke="#63b8ff" d="M433.89,-104.59C417.54,-95.13 396.72,-83.08 382.68,-74.95"/>
<polygon fill="#63b8ff" stroke="#63b8ff" points="431.68,-107.35 442.08,-109.33 435.18,-101.29 431.68,-107.35"/>
</a>
</g>
</g>
<!-- Node9 -->
<g id="Node000009" class="node">
<title>Node9</title>
<g id="a_Node000009"><a xlink:href="la0_8h.html" target="_top" xlink:title="The libmsx audio format 0 (LA0) decoder.">
<polygon fill="white" stroke="#666666" points="505,-74.5 435,-74.5 435,-55.25 505,-55.25 505,-74.5"/>
<text text-anchor="middle" x="470" y="-61" font-family="Helvetica,sans-Serif" font-size="10.00">include/la0.h</text>
</a>
</g>
</g>
<!-- Node6&#45;&gt;Node9 -->
<g id="edge9_Node000006_Node000009" class="edge">
<title>Node6&#45;&gt;Node9</title>
<g id="a_edge9_Node000006_Node000009"><a xlink:title=" ">
<path fill="none" stroke="#63b8ff" d="M463.12,-99.17C464.85,-90.8 466.77,-81.5 468.14,-74.86"/>
<polygon fill="#63b8ff" stroke="#63b8ff" points="459.72,-98.35 461.12,-108.85 466.57,-99.76 459.72,-98.35"/>
</a>
</g>
</g>
<!-- Node11&#45;&gt;Node12 -->
<g id="edge12_Node000011_Node000012" class="edge">
<title>Node11&#45;&gt;Node12</title>
<g id="a_edge12_Node000011_Node000012"><a xlink:title=" ">
<path fill="none" stroke="#63b8ff" d="M702,-43.63C702,-35.34 702,-26.17 702,-19.61"/>
<polygon fill="#63b8ff" stroke="#63b8ff" points="698.5,-43.57 702,-53.57 705.5,-43.57 698.5,-43.57"/>
</a>
</g>
</g>
<!-- Node14 -->
<g id="Node000014" class="node">
<title>Node14</title>
<g id="a_Node000014"><a xlink:href="sm2_8h.html" target="_top" xlink:title="SM2 (Sprite Mode 2) Animated Color Sprites.">
<polygon fill="white" stroke="#666666" points="940,-74.5 864,-74.5 864,-55.25 940,-55.25 940,-74.5"/>
<text text-anchor="middle" x="902" y="-61" font-family="Helvetica,sans-Serif" font-size="10.00">include/sm2.h</text>
</a>
</g>
</g>
<!-- Node13&#45;&gt;Node14 -->
<g id="edge15_Node000013_Node000014" class="edge">
<title>Node13&#45;&gt;Node14</title>
<g id="a_edge15_Node000013_Node000014"><a xlink:title=" ">
<path fill="none" stroke="#63b8ff" d="M970.79,-154.31C972.26,-141.09 972.16,-123.83 965,-110.5 956.12,-93.97 938.11,-82.17 923.61,-74.88"/>
<polygon fill="#63b8ff" stroke="#63b8ff" points="967.36,-153.57 969.3,-163.98 974.28,-154.63 967.36,-153.57"/>
</a>
</g>
</g>
<!-- Node15 -->
<g id="Node000015" class="node">
<title>Node15</title>
<g id="a_Node000015"><a xlink:href="sm2__bmem_8h.html" target="_top" xlink:title="SM2 (Sprite Mode 2) internal APIs for BMEM / Resources.">
<polygon fill="white" stroke="#666666" points="956.12,-19.25 847.88,-19.25 847.88,0 956.12,0 956.12,-19.25"/>
<text text-anchor="middle" x="902" y="-5.75" font-family="Helvetica,sans-Serif" font-size="10.00">include/sm2_bmem.h</text>
</a>
</g>
</g>
<!-- Node14&#45;&gt;Node15 -->
<g id="edge16_Node000014_Node000015" class="edge">
<title>Node14&#45;&gt;Node15</title>
<g id="a_edge16_Node000014_Node000015"><a xlink:title=" ">
<path fill="none" stroke="#63b8ff" d="M902,-43.63C902,-35.34 902,-26.17 902,-19.61"/>
<polygon fill="#63b8ff" stroke="#63b8ff" points="898.5,-43.57 902,-53.57 905.5,-43.57 898.5,-43.57"/>
</a>
</g>
</g>
<!-- Node16&#45;&gt;Node11 -->
<g id="edge18_Node000016_Node000011" class="edge">
<title>Node16&#45;&gt;Node11</title>
<g id="a_edge18_Node000016_Node000011"><a xlink:title=" ">
<path fill="none" stroke="#63b8ff" d="M768.66,-156.29C751.34,-132.8 721.78,-92.7 708.64,-74.88"/>
<polygon fill="#63b8ff" stroke="#63b8ff" points="765.8,-158.31 774.56,-164.28 771.44,-154.15 765.8,-158.31"/>
</a>
</g>
</g>
<!-- Node16&#45;&gt;Node12 -->
<g id="edge19_Node000016_Node000012" class="edge">
<title>Node16&#45;&gt;Node12</title>
<g id="a_edge19_Node000016_Node000012"><a xlink:title=" ">
<path fill="none" stroke="#63b8ff" d="M783.27,-154.25C783.91,-129.2 781.79,-85.99 763,-55.25 753.21,-39.24 735.33,-27.19 721.44,-19.68"/>
<polygon fill="#63b8ff" stroke="#63b8ff" points="779.79,-153.87 782.83,-164.02 786.78,-154.18 779.79,-153.87"/>
</a>
</g>
</g>
<!-- Node16&#45;&gt;Node14 -->
<g id="edge20_Node000016_Node000014" class="edge">
<title>Node16&#45;&gt;Node14</title>
<g id="a_edge20_Node000016_Node000014"><a xlink:title=" ">
<path fill="none" stroke="#63b8ff" d="M795.83,-156.82C806.81,-143.4 822.95,-124.84 839,-110.5 854.39,-96.75 874.06,-83.39 887.3,-74.93"/>
<polygon fill="#63b8ff" stroke="#63b8ff" points="793.3,-154.38 789.76,-164.36 798.76,-158.76 793.3,-154.38"/>
</a>
</g>
</g>
<!-- Node16&#45;&gt;Node17 -->
<g id="edge21_Node000016_Node000017" class="edge">
<title>Node16&#45;&gt;Node17</title>
<g id="a_edge21_Node000016_Node000017"><a xlink:title=" ">
<path fill="none" stroke="#63b8ff" d="M812.66,-160.77C834.27,-151.18 862.63,-138.59 881.54,-130.2"/>
<polygon fill="#63b8ff" stroke="#63b8ff" points="811.46,-157.47 803.74,-164.73 814.3,-163.87 811.46,-157.47"/>
</a>
</g>
</g>
<!-- Node17&#45;&gt;Node12 -->
<g id="edge22_Node000017_Node000012" class="edge">
<title>Node17&#45;&gt;Node12</title>
<g id="a_edge22_Node000017_Node000012"><a xlink:title=" ">
<path fill="none" stroke="#63b8ff" d="M878.74,-104.19C857.52,-90.79 825.12,-70.89 796,-55.25 771.17,-41.92 741.7,-28.26 722.46,-19.63"/>
<polygon fill="#63b8ff" stroke="#63b8ff" points="876.6,-106.98 886.92,-109.39 880.35,-101.07 876.6,-106.98"/>
</a>
</g>
</g>
<!-- Node17&#45;&gt;Node14 -->
<g id="edge23_Node000017_Node000014" class="edge">
<title>Node17&#45;&gt;Node14</title>
<g id="a_edge23_Node000017_Node000014"><a xlink:title=" ">
<path fill="none" stroke="#63b8ff" d="M902,-98.88C902,-90.59 902,-81.42 902,-74.86"/>
<polygon fill="#63b8ff" stroke="#63b8ff" points="898.5,-98.82 902,-108.82 905.5,-98.82 898.5,-98.82"/>
</a>
</g>
</g>
<!-- Node18&#45;&gt;Node11 -->
<g id="edge26_Node000018_Node000011" class="edge">
<title>Node18&#45;&gt;Node11</title>
<g id="a_edge26_Node000018_Node000011"><a xlink:title=" ">
<path fill="none" stroke="#63b8ff" d="M647.19,-103.78C660.68,-94.45 677.46,-82.85 688.87,-74.95"/>
<polygon fill="#63b8ff" stroke="#63b8ff" points="645.54,-100.66 639.31,-109.23 649.52,-106.42 645.54,-100.66"/>
</a>
</g>
</g>
<!-- Node18&#45;&gt;Node12 -->
<g id="edge27_Node000018_Node000012" class="edge">
<title>Node18&#45;&gt;Node12</title>
<g id="a_edge27_Node000018_Node000012"><a xlink:title=" ">
<path fill="none" stroke="#63b8ff" d="M626.91,-98.81C628.97,-85.49 633.22,-68.21 642,-55.25 652.56,-39.67 670.41,-27.42 683.9,-19.73"/>
<polygon fill="#63b8ff" stroke="#63b8ff" points="623.46,-98.25 625.72,-108.6 630.41,-99.09 623.46,-98.25"/>
</a>
</g>
</g>
<!-- Node19&#45;&gt;Node18 -->
<g id="edge29_Node000019_Node000018" class="edge">
<title>Node19&#45;&gt;Node18</title>
<g id="a_edge29_Node000019_Node000018"><a xlink:title=" ">
<path fill="none" stroke="#63b8ff" d="M626.86,-154.13C626.39,-145.84 625.88,-136.67 625.51,-130.11"/>
<polygon fill="#63b8ff" stroke="#63b8ff" points="623.36,-154.28 627.42,-164.07 630.35,-153.89 623.36,-154.28"/>
</a>
</g>
</g>
<!-- Node20&#45;&gt;Node5 -->
<g id="edge31_Node000020_Node000005" class="edge">
<title>Node20&#45;&gt;Node5</title>
<g id="a_edge31_Node000020_Node000005"><a xlink:title=" ">
<path fill="none" stroke="#63b8ff" d="M32.57,-157.26C21.61,-144.34 10.95,-126.21 19,-110.5 27.47,-93.98 45.21,-82.18 59.56,-74.88"/>
<polygon fill="#63b8ff" stroke="#63b8ff" points="29.94,-159.57 39.3,-164.53 35.07,-154.81 29.94,-159.57"/>
</a>
</g>
</g>
</g>
</svg>
