<?xml version="1.0" encoding="UTF-8" standalone="no"?>
<!DOCTYPE svg PUBLIC "-//W3C//DTD SVG 1.1//EN"
 "http://www.w3.org/Graphics/SVG/1.1/DTD/svg11.dtd">
<!-- Generated by graphviz version 2.44.0 ()
 -->
<!-- Title: include/vmem.h Pages: 1 -->
<svg width="5233pt" height="218pt"
 viewBox="0.00 0.00 5233.16 218.00" xmlns="http://www.w3.org/2000/svg" xmlns:xlink="http://www.w3.org/1999/xlink">
<g id="graph0" class="graph" transform="scale(1 1) rotate(0) translate(4 214)">
<title>include/vmem.h</title>
<!-- Node1 -->
<g id="node1" class="node">
<title>Node1</title>
<g id="a_node1"><a xlink:title="Copyright (c) 2021 Daishi Mori (mori0091)">
<polygon fill="#bfbfbf" stroke="black" points="840.47,-190.5 840.47,-209.5 925.47,-209.5 925.47,-190.5 840.47,-190.5"/>
<text text-anchor="middle" x="882.97" y="-197.5" font-family="Helvetica,sans-Serif" font-size="10.00">include/vmem.h</text>
</a>
</g>
</g>
<!-- Node2 -->
<g id="node2" class="node">
<title>Node2</title>
<g id="a_node2"><a xlink:href="metasprite_8h.html" target="_top" xlink:title="Copyright (c) 2021 Daishi Mori (mori0091)">
<polygon fill="none" stroke="black" points="680.97,-73 680.97,-92 784.97,-92 784.97,-73 680.97,-73"/>
<text text-anchor="middle" x="732.97" y="-80" font-family="Helvetica,sans-Serif" font-size="10.00">include/metasprite.h</text>
</a>
</g>
</g>
<!-- Node1&#45;&gt;Node2 -->
<g id="edge1" class="edge">
<title>Node1&#45;&gt;Node2</title>
<path fill="none" stroke="midnightblue" d="M863.61,-184.1C831.91,-159.69 769.9,-111.94 744.37,-92.28"/>
<polygon fill="midnightblue" stroke="midnightblue" points="861.63,-186.99 871.69,-190.32 865.9,-181.44 861.63,-186.99"/>
</g>
<!-- Node3 -->
<g id="node3" class="node">
<title>Node3</title>
<g id="a_node3"><a xlink:href="msx_8h.html" target="_top" xlink:title="Copyright (c) 2021 Daishi Mori (mori0091)">
<polygon fill="none" stroke="black" points="482.97,-6 482.97,-25 558.97,-25 558.97,-6 482.97,-6"/>
<text text-anchor="middle" x="520.97" y="-13" font-family="Helvetica,sans-Serif" font-size="10.00">include/msx.h</text>
</a>
</g>
</g>
<!-- Node1&#45;&gt;Node3 -->
<g id="edge6" class="edge">
<title>Node1&#45;&gt;Node3</title>
<path fill="none" stroke="midnightblue" d="M830.13,-196.91C649.48,-189.25 64.55,-159.8 9.97,-98 0.84,-87.67 0.71,-77.21 9.97,-67 25.85,-49.47 366.66,-26.29 482.68,-18.88"/>
<polygon fill="midnightblue" stroke="midnightblue" points="830.05,-200.41 840.18,-197.34 830.34,-193.42 830.05,-200.41"/>
</g>
<!-- Node7 -->
<g id="node7" class="node">
<title>Node7</title>
<g id="a_node7"><a xlink:href="sprite_8h.html" target="_top" xlink:title="Copyright (c) 2021 Daishi Mori (mori0091)">
<polygon fill="none" stroke="black" points="468.97,-134.5 468.97,-153.5 550.97,-153.5 550.97,-134.5 468.97,-134.5"/>
<text text-anchor="middle" x="509.97" y="-141.5" font-family="Helvetica,sans-Serif" font-size="10.00">include/sprite.h</text>
</a>
</g>
</g>
<!-- Node1&#45;&gt;Node7 -->
<g id="edge7" class="edge">
<title>Node1&#45;&gt;Node7</title>
<path fill="none" stroke="midnightblue" d="M830,-191.33C754.92,-180.46 619.13,-160.8 551.12,-150.96"/>
<polygon fill="midnightblue" stroke="midnightblue" points="829.78,-194.84 840.18,-192.81 830.78,-187.91 829.78,-194.84"/>
</g>
<!-- Node8 -->
<g id="node8" class="node">
<title>Node8</title>
<g id="a_node8"><a xlink:href="sprite__color_8h.html" target="_top" xlink:title="Copyright (c) 2021 Daishi Mori (mori0091)">
<polygon fill="none" stroke="black" points="878.97,-73 878.97,-92 986.97,-92 986.97,-73 878.97,-73"/>
<text text-anchor="middle" x="932.97" y="-80" font-family="Helvetica,sans-Serif" font-size="10.00">include/sprite_color.h</text>
</a>
</g>
</g>
<!-- Node1&#45;&gt;Node8 -->
<g id="edge25" class="edge">
<title>Node1&#45;&gt;Node8</title>
<path fill="none" stroke="midnightblue" d="M890.83,-180.84C901.73,-155.66 921.02,-111.1 929.16,-92.28"/>
<polygon fill="midnightblue" stroke="midnightblue" points="887.48,-179.75 886.72,-190.32 893.91,-182.53 887.48,-179.75"/>
</g>
<!-- Node11 -->
<g id="node11" class="node">
<title>Node11</title>
<g id="a_node11"><a xlink:href="vmem__set__sprite__color__s_8c.html" target="_top" xlink:title="Copyright (c) 2021 Daishi Mori (mori0091)">
<polygon fill="none" stroke="black" points="3649.97,-0.5 3649.97,-30.5 3757.97,-30.5 3757.97,-0.5 3649.97,-0.5"/>
<text text-anchor="start" x="3657.97" y="-18.5" font-family="Helvetica,sans-Serif" font-size="10.00">src/vmem_set_sprite</text>
<text text-anchor="middle" x="3703.97" y="-7.5" font-family="Helvetica,sans-Serif" font-size="10.00">_color_s.c</text>
</a>
</g>
</g>
<!-- Node1&#45;&gt;Node11 -->
<g id="edge63" class="edge">
<title>Node1&#45;&gt;Node11</title>
<path fill="none" stroke="midnightblue" d="M936.05,-198.79C1425.73,-196.75 5139.46,-178.58 5217.97,-98 5227.58,-88.13 5227.54,-76.9 5217.97,-67 5166.23,-13.51 4022.12,-15.13 3758.02,-16.22"/>
<polygon fill="midnightblue" stroke="midnightblue" points="935.73,-195.29 925.75,-198.83 935.76,-202.29 935.73,-195.29"/>
</g>
<!-- Node17 -->
<g id="node17" class="node">
<title>Node17</title>
<g id="a_node17"><a xlink:href="vdp_8h.html" target="_top" xlink:title="Data types and functions for VDP (Video Display Proccessor) access.">
<polygon fill="none" stroke="red" points="2991.97,-134.5 2991.97,-153.5 3065.97,-153.5 3065.97,-134.5 2991.97,-134.5"/>
<text text-anchor="middle" x="3028.97" y="-141.5" font-family="Helvetica,sans-Serif" font-size="10.00">include/vdp.h</text>
</a>
</g>
</g>
<!-- Node1&#45;&gt;Node17 -->
<g id="edge26" class="edge">
<title>Node1&#45;&gt;Node17</title>
<path fill="none" stroke="midnightblue" d="M936.07,-197.66C1238.12,-190.06 2735.21,-152.39 2991.58,-145.94"/>
<polygon fill="midnightblue" stroke="midnightblue" points="935.74,-194.17 925.83,-197.92 935.92,-201.17 935.74,-194.17"/>
</g>
<!-- Node2&#45;&gt;Node3 -->
<g id="edge2" class="edge">
<title>Node2&#45;&gt;Node3</title>
<path fill="none" stroke="midnightblue" d="M695.11,-69.94C661.66,-59.72 611.56,-44.4 567.97,-31 561.76,-29.09 555.1,-27.04 548.8,-25.1"/>
<polygon fill="midnightblue" stroke="midnightblue" points="694.35,-73.37 704.93,-72.94 696.39,-66.67 694.35,-73.37"/>
</g>
<!-- Node4 -->
<g id="node4" class="node">
<title>Node4</title>
<g id="a_node4"><a xlink:href="vmem__set__metasprite__a_8c.html" target="_top" xlink:title="Copyright (c) 2021 Daishi Mori (mori0091)">
<polygon fill="none" stroke="black" points="116.97,-6 116.97,-25 264.97,-25 264.97,-6 116.97,-6"/>
<text text-anchor="middle" x="190.97" y="-13" font-family="Helvetica,sans-Serif" font-size="10.00">src/vmem_set_metasprite_a.c</text>
</a>
</g>
</g>
<!-- Node2&#45;&gt;Node4 -->
<g id="edge3" class="edge">
<title>Node2&#45;&gt;Node4</title>
<path fill="none" stroke="midnightblue" d="M670.76,-72.08C658.57,-70.32 645.87,-68.55 633.97,-67 504.43,-50.14 353.18,-33.56 265.12,-24.22"/>
<polygon fill="midnightblue" stroke="midnightblue" points="670.46,-75.57 680.86,-73.55 671.47,-68.65 670.46,-75.57"/>
</g>
<!-- Node5 -->
<g id="node5" class="node">
<title>Node5</title>
<g id="a_node5"><a xlink:href="vmem__set__metasprite__m_8c.html" target="_top" xlink:title="Copyright (c) 2021 Daishi Mori (mori0091)">
<polygon fill="none" stroke="black" points="577.47,-6 577.47,-25 728.47,-25 728.47,-6 577.47,-6"/>
<text text-anchor="middle" x="652.97" y="-13" font-family="Helvetica,sans-Serif" font-size="10.00">src/vmem_set_metasprite_m.c</text>
</a>
</g>
</g>
<!-- Node2&#45;&gt;Node5 -->
<g id="edge4" class="edge">
<title>Node2&#45;&gt;Node5</title>
<path fill="none" stroke="midnightblue" d="M714.15,-66.21C698.39,-53.41 676.46,-35.59 663.58,-25.13"/>
<polygon fill="midnightblue" stroke="midnightblue" points="712.21,-69.14 722.18,-72.73 716.62,-63.71 712.21,-69.14"/>
</g>
<!-- Node6 -->
<g id="node6" class="node">
<title>Node6</title>
<g id="a_node6"><a xlink:href="vmem__set__metasprite__s_8c.html" target="_top" xlink:title="Copyright (c) 2021 Daishi Mori (mori0091)">
<polygon fill="none" stroke="black" points="746.97,-6 746.97,-25 894.97,-25 894.97,-6 746.97,-6"/>
<text text-anchor="middle" x="820.97" y="-13" font-family="Helvetica,sans-Serif" font-size="10.00">src/vmem_set_metasprite_s.c</text>
</a>
</g>
</g>
<!-- Node2&#45;&gt;Node6 -->
<g id="edge5" class="edge">
<title>Node2&#45;&gt;Node6</title>
<path fill="none" stroke="midnightblue" d="M753.18,-66.57C770.55,-53.74 794.99,-35.69 809.29,-25.13"/>
<polygon fill="midnightblue" stroke="midnightblue" points="750.8,-63.98 744.83,-72.73 754.96,-69.61 750.8,-63.98"/>
</g>
<!-- Node7&#45;&gt;Node2 -->
<g id="edge8" class="edge">
<title>Node7&#45;&gt;Node2</title>
<path fill="none" stroke="midnightblue" d="M551.58,-131.9C594.89,-120.34 661.77,-102.5 701.07,-92.01"/>
<polygon fill="midnightblue" stroke="midnightblue" points="550.68,-128.52 541.92,-134.48 552.48,-135.28 550.68,-128.52"/>
</g>
<!-- Node7&#45;&gt;Node3 -->
<g id="edge9" class="edge">
<title>Node7&#45;&gt;Node3</title>
<path fill="none" stroke="midnightblue" d="M458.86,-136.48C434.96,-130.59 408.59,-119.37 393.97,-98 386.18,-86.63 386.23,-78.4 393.97,-67 413.68,-37.94 453.05,-25.6 482.75,-20.36"/>
<polygon fill="midnightblue" stroke="midnightblue" points="458.39,-139.96 468.91,-138.7 459.9,-133.13 458.39,-139.96"/>
</g>
<!-- Node7&#45;&gt;Node4 -->
<g id="edge22" class="edge">
<title>Node7&#45;&gt;Node4</title>
<path fill="none" stroke="midnightblue" d="M458.53,-142.21C336.96,-139.82 39.82,-130.66 9.97,-98 -27.35,-57.17 53.27,-35.5 118.61,-25.02"/>
<polygon fill="midnightblue" stroke="midnightblue" points="458.64,-145.72 468.7,-142.41 458.77,-138.72 458.64,-145.72"/>
</g>
<!-- Node7&#45;&gt;Node5 -->
<g id="edge23" class="edge">
<title>Node7&#45;&gt;Node5</title>
<path fill="none" stroke="midnightblue" d="M560.91,-136.14C586.26,-130.15 615.38,-118.94 633.97,-98 652.48,-77.14 653.91,-41.72 653.47,-25.32"/>
<polygon fill="midnightblue" stroke="midnightblue" points="560.09,-132.73 551.05,-138.26 561.56,-139.58 560.09,-132.73"/>
</g>
<!-- Node7&#45;&gt;Node6 -->
<g id="edge24" class="edge">
<title>Node7&#45;&gt;Node6</title>
<path fill="none" stroke="midnightblue" d="M561.26,-141.14C633.36,-137.5 759.74,-127.07 793.97,-98 816.01,-79.28 820.15,-42.13 820.86,-25.23"/>
<polygon fill="midnightblue" stroke="midnightblue" points="560.85,-137.66 551.03,-141.63 561.18,-144.65 560.85,-137.66"/>
</g>
<!-- Node7&#45;&gt;Node8 -->
<g id="edge10" class="edge">
<title>Node7&#45;&gt;Node8</title>
<path fill="none" stroke="midnightblue" d="M561.68,-135.73C642.25,-124.39 796.96,-102.63 878.93,-91.1"/>
<polygon fill="midnightblue" stroke="midnightblue" points="560.71,-132.33 551.29,-137.19 561.68,-139.26 560.71,-132.33"/>
</g>
<!-- Node12 -->
<g id="node12" class="node">
<title>Node12</title>
<g id="a_node12"><a xlink:href="sprite__set__color_8c.html" target="_top" xlink:title="Copyright (c) 2021 Daishi Mori (mori0091)">
<polygon fill="none" stroke="black" points="514.97,-73 514.97,-92 624.97,-92 624.97,-73 514.97,-73"/>
<text text-anchor="middle" x="569.97" y="-80" font-family="Helvetica,sans-Serif" font-size="10.00">src/sprite_set_color.c</text>
</a>
</g>
</g>
<!-- Node7&#45;&gt;Node12 -->
<g id="edge17" class="edge">
<title>Node7&#45;&gt;Node12</title>
<path fill="none" stroke="midnightblue" d="M525.77,-127.32C537.17,-116.02 552.12,-101.19 561.38,-92.01"/>
<polygon fill="midnightblue" stroke="midnightblue" points="523.2,-124.95 518.56,-134.48 528.13,-129.92 523.2,-124.95"/>
</g>
<!-- Node13 -->
<g id="node13" class="node">
<title>Node13</title>
<g id="a_node13"><a xlink:href="sprite__set__pat_8c.html" target="_top" xlink:title="Copyright (c) 2021 Daishi Mori (mori0091)">
<polygon fill="none" stroke="black" points="18.97,-73 18.97,-92 120.97,-92 120.97,-73 18.97,-73"/>
<text text-anchor="middle" x="69.97" y="-80" font-family="Helvetica,sans-Serif" font-size="10.00">src/sprite_set_pat.c</text>
</a>
</g>
</g>
<!-- Node7&#45;&gt;Node13 -->
<g id="edge18" class="edge">
<title>Node7&#45;&gt;Node13</title>
<path fill="none" stroke="midnightblue" d="M458.48,-138.95C384.99,-132.71 245.93,-119.2 128.97,-98 120.04,-96.38 110.45,-94.22 101.66,-92.05"/>
<polygon fill="midnightblue" stroke="midnightblue" points="458.58,-142.47 468.84,-139.82 459.17,-135.5 458.58,-142.47"/>
</g>
<!-- Node14 -->
<g id="node14" class="node">
<title>Node14</title>
<g id="a_node14"><a xlink:href="sprite__set__x_8c.html" target="_top" xlink:title="Copyright (c) 2021 Daishi Mori (mori0091)">
<polygon fill="none" stroke="black" points="138.47,-73 138.47,-92 231.47,-92 231.47,-73 138.47,-73"/>
<text text-anchor="middle" x="184.97" y="-80" font-family="Helvetica,sans-Serif" font-size="10.00">src/sprite_set_x.c</text>
</a>
</g>
</g>
<!-- Node7&#45;&gt;Node14 -->
<g id="edge19" class="edge">
<title>Node7&#45;&gt;Node14</title>
<path fill="none" stroke="midnightblue" d="M458.46,-135.87C403.94,-127.98 315.48,-114.21 239.97,-98 231.95,-96.28 223.35,-94.15 215.39,-92.06"/>
<polygon fill="midnightblue" stroke="midnightblue" points="458.18,-139.36 468.57,-137.32 459.17,-132.43 458.18,-139.36"/>
</g>
<!-- Node15 -->
<g id="node15" class="node">
<title>Node15</title>
<g id="a_node15"><a xlink:href="sprite__set__xy_8c.html" target="_top" xlink:title="Copyright (c) 2021 Daishi Mori (mori0091)">
<polygon fill="none" stroke="black" points="248.97,-73 248.97,-92 346.97,-92 346.97,-73 248.97,-73"/>
<text text-anchor="middle" x="297.97" y="-80" font-family="Helvetica,sans-Serif" font-size="10.00">src/sprite_set_xy.c</text>
</a>
</g>
</g>
<!-- Node7&#45;&gt;Node15 -->
<g id="edge20" class="edge">
<title>Node7&#45;&gt;Node15</title>
<path fill="none" stroke="midnightblue" d="M469.88,-131.75C428.69,-120.19 365.49,-102.45 328.28,-92.01"/>
<polygon fill="midnightblue" stroke="midnightblue" points="469.02,-135.14 479.59,-134.48 470.91,-128.4 469.02,-135.14"/>
</g>
<!-- Node16 -->
<g id="node16" class="node">
<title>Node16</title>
<g id="a_node16"><a xlink:href="sprite__set__y_8c.html" target="_top" xlink:title="Copyright (c) 2021 Daishi Mori (mori0091)">
<polygon fill="none" stroke="black" points="403.47,-73 403.47,-92 496.47,-92 496.47,-73 403.47,-73"/>
<text text-anchor="middle" x="449.97" y="-80" font-family="Helvetica,sans-Serif" font-size="10.00">src/sprite_set_y.c</text>
</a>
</g>
</g>
<!-- Node7&#45;&gt;Node16 -->
<g id="edge21" class="edge">
<title>Node7&#45;&gt;Node16</title>
<path fill="none" stroke="midnightblue" d="M494.16,-127.32C482.76,-116.02 467.81,-101.19 458.55,-92.01"/>
<polygon fill="midnightblue" stroke="midnightblue" points="491.8,-129.92 501.37,-134.48 496.73,-124.95 491.8,-129.92"/>
</g>
<!-- Node8&#45;&gt;Node3 -->
<g id="edge11" class="edge">
<title>Node8&#45;&gt;Node3</title>
<path fill="none" stroke="midnightblue" d="M885.92,-70.9C878.91,-69.48 871.76,-68.13 864.97,-67 733.81,-45.11 698.01,-58.71 567.97,-31 560.62,-29.43 552.77,-27.23 545.63,-25.01"/>
<polygon fill="midnightblue" stroke="midnightblue" points="885.52,-74.39 896.02,-72.99 886.94,-67.54 885.52,-74.39"/>
</g>
<!-- Node8&#45;&gt;Node5 -->
<g id="edge12" class="edge">
<title>Node8&#45;&gt;Node5</title>
<path fill="none" stroke="midnightblue" d="M886.2,-70.64C831.03,-57.84 740.45,-36.81 689.94,-25.08"/>
<polygon fill="midnightblue" stroke="midnightblue" points="885.54,-74.08 896.07,-72.94 887.12,-67.26 885.54,-74.08"/>
</g>
<!-- Node8&#45;&gt;Node6 -->
<g id="edge13" class="edge">
<title>Node8&#45;&gt;Node6</title>
<path fill="none" stroke="midnightblue" d="M909.04,-67.62C886.85,-54.74 854.52,-35.98 835.83,-25.13"/>
<polygon fill="midnightblue" stroke="midnightblue" points="907.45,-70.74 917.86,-72.73 910.97,-64.69 907.45,-70.74"/>
</g>
<!-- Node9 -->
<g id="node9" class="node">
<title>Node9</title>
<g id="a_node9"><a xlink:href="vmem__set__sprite__color_8c.html" target="_top" xlink:title="Copyright (c) 2021 Daishi Mori (mori0091)">
<polygon fill="none" stroke="black" points="1038.97,-0.5 1038.97,-30.5 1146.97,-30.5 1146.97,-0.5 1038.97,-0.5"/>
<text text-anchor="start" x="1046.97" y="-18.5" font-family="Helvetica,sans-Serif" font-size="10.00">src/vmem_set_sprite</text>
<text text-anchor="middle" x="1092.97" y="-7.5" font-family="Helvetica,sans-Serif" font-size="10.00">_color.c</text>
</a>
</g>
</g>
<!-- Node8&#45;&gt;Node9 -->
<g id="edge14" class="edge">
<title>Node8&#45;&gt;Node9</title>
<path fill="none" stroke="midnightblue" d="M963.59,-69.06C990.7,-58.05 1030.22,-41.99 1058.43,-30.53"/>
<polygon fill="midnightblue" stroke="midnightblue" points="962.16,-65.86 954.21,-72.87 964.79,-72.35 962.16,-65.86"/>
</g>
<!-- Node10 -->
<g id="node10" class="node">
<title>Node10</title>
<g id="a_node10"><a xlink:href="vmem__set__sprite__color__m_8c.html" target="_top" xlink:title="Copyright (c) 2021 Daishi Mori (mori0091)">
<polygon fill="none" stroke="black" points="912.97,-0.5 912.97,-30.5 1020.97,-30.5 1020.97,-0.5 912.97,-0.5"/>
<text text-anchor="start" x="920.97" y="-18.5" font-family="Helvetica,sans-Serif" font-size="10.00">src/vmem_set_sprite</text>
<text text-anchor="middle" x="966.97" y="-7.5" font-family="Helvetica,sans-Serif" font-size="10.00">_color_m.c</text>
</a>
</g>
</g>
<!-- Node8&#45;&gt;Node10 -->
<g id="edge15" class="edge">
<title>Node8&#45;&gt;Node10</title>
<path fill="none" stroke="midnightblue" d="M942.27,-63.71C947.72,-53.29 954.52,-40.3 959.6,-30.59"/>
<polygon fill="midnightblue" stroke="midnightblue" points="939.08,-62.25 937.55,-72.73 945.29,-65.5 939.08,-62.25"/>
</g>
<!-- Node8&#45;&gt;Node11 -->
<g id="edge16" class="edge">
<title>Node8&#45;&gt;Node11</title>
<path fill="none" stroke="midnightblue" d="M974.38,-70.69C981.53,-69.19 988.93,-67.87 995.97,-67 1268.04,-33.52 3291.33,-19.13 3649.77,-16.83"/>
<polygon fill="midnightblue" stroke="midnightblue" points="973.14,-67.38 964.14,-72.98 974.66,-74.21 973.14,-67.38"/>
</g>
<!-- Node17&#45;&gt;Node2 -->
<g id="edge27" class="edge">
<title>Node17&#45;&gt;Node2</title>
<path fill="none" stroke="midnightblue" d="M2981.65,-142.79C2703.11,-141.44 1274.56,-132.87 836.97,-98 820.06,-96.65 801.72,-94.37 785.21,-92.01"/>
<polygon fill="midnightblue" stroke="midnightblue" points="2981.8,-146.29 2991.81,-142.84 2981.83,-139.29 2981.8,-146.29"/>
</g>
<!-- Node17&#45;&gt;Node3 -->
<g id="edge28" class="edge">
<title>Node17&#45;&gt;Node3</title>
<path fill="none" stroke="midnightblue" d="M2981.68,-143.05C2684.74,-143.22 1083.01,-142.09 869.97,-98 834.24,-90.61 829.1,-76.82 793.97,-67 696.01,-39.61 667.03,-54.05 567.97,-31 560.98,-29.37 553.52,-27.25 546.64,-25.14"/>
<polygon fill="midnightblue" stroke="midnightblue" points="2981.69,-146.55 2991.69,-143.04 2981.69,-139.55 2981.69,-146.55"/>
</g>
<!-- Node17&#45;&gt;Node11 -->
<g id="edge61" class="edge">
<title>Node17&#45;&gt;Node11</title>
<path fill="none" stroke="midnightblue" d="M3076.47,-142.94C3219.46,-142.34 3638.9,-137.2 3684.97,-98 3704.44,-81.43 3706.12,-49.12 3705.26,-30.55"/>
<polygon fill="midnightblue" stroke="midnightblue" points="3076.25,-139.44 3066.26,-142.98 3076.27,-146.44 3076.25,-139.44"/>
</g>
<!-- Node18 -->
<g id="node18" class="node">
<title>Node18</title>
<g id="a_node18"><a xlink:href="vdp_8c.html" target="_top" xlink:title="Copyright (c) 2021 Daishi Mori (mori0091)">
<polygon fill="none" stroke="black" points="5014.97,-73 5014.97,-92 5070.97,-92 5070.97,-73 5014.97,-73"/>
<text text-anchor="middle" x="5042.97" y="-80" font-family="Helvetica,sans-Serif" font-size="10.00">src/vdp.c</text>
</a>
</g>
</g>
<!-- Node17&#45;&gt;Node18 -->
<g id="edge29" class="edge">
<title>Node17&#45;&gt;Node18</title>
<path fill="none" stroke="midnightblue" d="M3076.63,-142.91C3359.46,-142.26 4811.66,-137.01 5005.97,-98 5012.32,-96.72 5019,-94.43 5024.91,-92.04"/>
<polygon fill="midnightblue" stroke="midnightblue" points="3076.3,-139.41 3066.3,-142.94 3076.31,-146.41 3076.3,-139.41"/>
</g>
<!-- Node19 -->
<g id="node19" class="node">
<title>Node19</title>
<g id="a_node19"><a xlink:href="vdp__cmd__execute_8c.html" target="_top" xlink:title="Copyright (c) 2021 Daishi Mori (mori0091)">
<polygon fill="none" stroke="black" points="5089.47,-73 5089.47,-92 5208.47,-92 5208.47,-73 5089.47,-73"/>
<text text-anchor="middle" x="5148.97" y="-80" font-family="Helvetica,sans-Serif" font-size="10.00">src/vdp_cmd_execute.c</text>
</a>
</g>
</g>
<!-- Node17&#45;&gt;Node19 -->
<g id="edge30" class="edge">
<title>Node17&#45;&gt;Node19</title>
<path fill="none" stroke="midnightblue" d="M3076.22,-143.15C3344.02,-143.83 4673.41,-144.77 5079.97,-98 5091.27,-96.7 5103.47,-94.43 5114.42,-92.07"/>
<polygon fill="midnightblue" stroke="midnightblue" points="3076.07,-139.65 3066.06,-143.12 3076.05,-146.65 3076.07,-139.65"/>
</g>
<!-- Node20 -->
<g id="node20" class="node">
<title>Node20</title>
<g id="a_node20"><a xlink:href="vdp__cmd__execute__HMMM_8c.html" target="_top" xlink:title="Copyright (c) 2021 Daishi Mori (mori0091)">
<polygon fill="none" stroke="black" points="1004.97,-67.5 1004.97,-97.5 1116.97,-97.5 1116.97,-67.5 1004.97,-67.5"/>
<text text-anchor="start" x="1012.97" y="-85.5" font-family="Helvetica,sans-Serif" font-size="10.00">src/vdp_cmd_execute</text>
<text text-anchor="middle" x="1060.97" y="-74.5" font-family="Helvetica,sans-Serif" font-size="10.00">_HMMM.c</text>
</a>
</g>
</g>
<!-- Node17&#45;&gt;Node20 -->
<g id="edge31" class="edge">
<title>Node17&#45;&gt;Node20</title>
<path fill="none" stroke="midnightblue" d="M2981.88,-143.14C2726.11,-143.69 1501.28,-143.85 1125.97,-98 1123.1,-97.65 1120.17,-97.23 1117.22,-96.76"/>
<polygon fill="midnightblue" stroke="midnightblue" points="2981.97,-146.64 2991.96,-143.11 2981.95,-139.64 2981.97,-146.64"/>
</g>
<!-- Node21 -->
<g id="node21" class="node">
<title>Node21</title>
<g id="a_node21"><a xlink:href="vdp__cmd__execute__HMMV_8c.html" target="_top" xlink:title="Copyright (c) 2021 Daishi Mori (mori0091)">
<polygon fill="none" stroke="black" points="1134.97,-67.5 1134.97,-97.5 1246.97,-97.5 1246.97,-67.5 1134.97,-67.5"/>
<text text-anchor="start" x="1142.97" y="-85.5" font-family="Helvetica,sans-Serif" font-size="10.00">src/vdp_cmd_execute</text>
<text text-anchor="middle" x="1190.97" y="-74.5" font-family="Helvetica,sans-Serif" font-size="10.00">_HMMV.c</text>
</a>
</g>
</g>
<!-- Node17&#45;&gt;Node21 -->
<g id="edge32" class="edge">
<title>Node17&#45;&gt;Node21</title>
<path fill="none" stroke="midnightblue" d="M2981.6,-143.04C2735.85,-143.07 1603.94,-140.82 1255.97,-98 1253.1,-97.65 1250.17,-97.22 1247.22,-96.75"/>
<polygon fill="midnightblue" stroke="midnightblue" points="2981.64,-146.54 2991.64,-143.04 2981.64,-139.54 2981.64,-146.54"/>
</g>
<!-- Node22 -->
<g id="node22" class="node">
<title>Node22</title>
<g id="a_node22"><a xlink:href="vdp__cmd__execute__LMMM_8c.html" target="_top" xlink:title="Copyright (c) 2021 Daishi Mori (mori0091)">
<polygon fill="none" stroke="black" points="1264.97,-67.5 1264.97,-97.5 1376.97,-97.5 1376.97,-67.5 1264.97,-67.5"/>
<text text-anchor="start" x="1272.97" y="-85.5" font-family="Helvetica,sans-Serif" font-size="10.00">src/vdp_cmd_execute</text>
<text text-anchor="middle" x="1320.97" y="-74.5" font-family="Helvetica,sans-Serif" font-size="10.00">_LMMM.c</text>
</a>
</g>
</g>
<!-- Node17&#45;&gt;Node22 -->
<g id="edge33" class="edge">
<title>Node17&#45;&gt;Node22</title>
<path fill="none" stroke="midnightblue" d="M2981.37,-142.93C2746.2,-142.4 1706.69,-137.79 1385.97,-98 1383.1,-97.64 1380.17,-97.22 1377.22,-96.74"/>
<polygon fill="midnightblue" stroke="midnightblue" points="2981.64,-146.43 2991.64,-142.95 2981.65,-139.43 2981.64,-146.43"/>
</g>
<!-- Node23 -->
<g id="node23" class="node">
<title>Node23</title>
<g id="a_node23"><a xlink:href="vdp__cmd__execute__LMMV_8c.html" target="_top" xlink:title="Copyright (c) 2021 Daishi Mori (mori0091)">
<polygon fill="none" stroke="black" points="1394.97,-67.5 1394.97,-97.5 1506.97,-97.5 1506.97,-67.5 1394.97,-67.5"/>
<text text-anchor="start" x="1402.97" y="-85.5" font-family="Helvetica,sans-Serif" font-size="10.00">src/vdp_cmd_execute</text>
<text text-anchor="middle" x="1450.97" y="-74.5" font-family="Helvetica,sans-Serif" font-size="10.00">_LMMV.c</text>
</a>
</g>
</g>
<!-- Node17&#45;&gt;Node23 -->
<g id="edge34" class="edge">
<title>Node17&#45;&gt;Node23</title>
<path fill="none" stroke="midnightblue" d="M2981.61,-142.78C2758.47,-141.56 1810.57,-134.3 1516.97,-98 1513.71,-97.6 1510.37,-97.11 1507.01,-96.56"/>
<polygon fill="midnightblue" stroke="midnightblue" points="2981.66,-146.28 2991.68,-142.83 2981.7,-139.28 2981.66,-146.28"/>
</g>
<!-- Node24 -->
<g id="node24" class="node">
<title>Node24</title>
<g id="a_node24"><a xlink:href="vdp__cmd__set__unrestricted_8c.html" target="_top" xlink:title="Copyright (c) 2021 Daishi Mori (mori0091)">
<polygon fill="none" stroke="black" points="1525.47,-73 1525.47,-92 1680.47,-92 1680.47,-73 1525.47,-73"/>
<text text-anchor="middle" x="1602.97" y="-80" font-family="Helvetica,sans-Serif" font-size="10.00">src/vdp_cmd_set_unrestricted.c</text>
</a>
</g>
</g>
<!-- Node17&#45;&gt;Node24 -->
<g id="edge35" class="edge">
<title>Node17&#45;&gt;Node24</title>
<path fill="none" stroke="midnightblue" d="M2981.5,-142.24C2774.34,-138.81 1948.31,-123.76 1689.97,-98 1675.95,-96.6 1660.77,-94.34 1647.07,-92.01"/>
<polygon fill="midnightblue" stroke="midnightblue" points="2981.68,-145.75 2991.73,-142.41 2981.79,-138.75 2981.68,-145.75"/>
</g>
<!-- Node25 -->
<g id="node25" class="node">
<title>Node25</title>
<g id="a_node25"><a xlink:href="vdp__get__sprite__mode_8c.html" target="_top" xlink:title="Copyright (c) 2021 Daishi Mori (mori0091)">
<polygon fill="none" stroke="black" points="1698.47,-67.5 1698.47,-97.5 1795.47,-97.5 1795.47,-67.5 1698.47,-67.5"/>
<text text-anchor="start" x="1706.47" y="-85.5" font-family="Helvetica,sans-Serif" font-size="10.00">src/vdp_get_sprite</text>
<text text-anchor="middle" x="1746.97" y="-74.5" font-family="Helvetica,sans-Serif" font-size="10.00">_mode.c</text>
</a>
</g>
</g>
<!-- Node17&#45;&gt;Node25 -->
<g id="edge36" class="edge">
<title>Node17&#45;&gt;Node25</title>
<path fill="none" stroke="midnightblue" d="M2981.43,-142.57C2785.29,-140.61 2038.32,-131.09 1804.97,-98 1801.88,-97.56 1798.73,-97.03 1795.55,-96.43"/>
<polygon fill="midnightblue" stroke="midnightblue" points="2981.65,-146.08 2991.69,-142.68 2981.72,-139.08 2981.65,-146.08"/>
</g>
<!-- Node26 -->
<g id="node26" class="node">
<title>Node26</title>
<g id="a_node26"><a xlink:href="vdp__get__status_8c.html" target="_top" xlink:title="Copyright (c) 2021 Daishi Mori (mori0091)">
<polygon fill="none" stroke="black" points="1813.47,-73 1813.47,-92 1920.47,-92 1920.47,-73 1813.47,-73"/>
<text text-anchor="middle" x="1866.97" y="-80" font-family="Helvetica,sans-Serif" font-size="10.00">src/vdp_get_status.c</text>
</a>
</g>
</g>
<!-- Node17&#45;&gt;Node26 -->
<g id="edge37" class="edge">
<title>Node17&#45;&gt;Node26</title>
<path fill="none" stroke="midnightblue" d="M2981.87,-142.23C2799.3,-139.08 2138.01,-125.96 1929.97,-98 1919.73,-96.62 1908.72,-94.37 1898.8,-92.03"/>
<polygon fill="midnightblue" stroke="midnightblue" points="2981.9,-145.73 2991.96,-142.41 2982.02,-138.74 2981.9,-145.73"/>
</g>
<!-- Node27 -->
<g id="node27" class="node">
<title>Node27</title>
<g id="a_node27"><a xlink:href="vdp__set__adjust_8c.html" target="_top" xlink:title="Copyright (c) 2021 Daishi Mori (mori0091)">
<polygon fill="none" stroke="black" points="1938.47,-73 1938.47,-92 2045.47,-92 2045.47,-73 1938.47,-73"/>
<text text-anchor="middle" x="1991.97" y="-80" font-family="Helvetica,sans-Serif" font-size="10.00">src/vdp_set_adjust.c</text>
</a>
</g>
</g>
<!-- Node17&#45;&gt;Node27 -->
<g id="edge38" class="edge">
<title>Node17&#45;&gt;Node27</title>
<path fill="none" stroke="midnightblue" d="M2981.76,-141.95C2812.61,-137.99 2237.31,-122.99 2054.97,-98 2044.74,-96.6 2033.72,-94.33 2023.81,-92"/>
<polygon fill="midnightblue" stroke="midnightblue" points="2981.76,-145.45 2991.84,-142.18 2981.92,-138.45 2981.76,-145.45"/>
</g>
<!-- Node28 -->
<g id="node28" class="node">
<title>Node28</title>
<g id="a_node28"><a xlink:href="vdp__set__color_8c.html" target="_top" xlink:title="Copyright (c) 2021 Daishi Mori (mori0091)">
<polygon fill="none" stroke="black" points="2063.47,-73 2063.47,-92 2164.47,-92 2164.47,-73 2063.47,-73"/>
<text text-anchor="middle" x="2113.97" y="-80" font-family="Helvetica,sans-Serif" font-size="10.00">src/vdp_set_color.c</text>
</a>
</g>
</g>
<!-- Node17&#45;&gt;Node28 -->
<g id="edge39" class="edge">
<title>Node17&#45;&gt;Node28</title>
<path fill="none" stroke="midnightblue" d="M2981.63,-143.56C2851.79,-144.44 2479.36,-142.55 2173.97,-98 2164.32,-96.59 2153.94,-94.35 2144.58,-92.05"/>
<polygon fill="midnightblue" stroke="midnightblue" points="2981.67,-147.06 2991.64,-143.48 2981.61,-140.06 2981.67,-147.06"/>
</g>
<!-- Node29 -->
<g id="node29" class="node">
<title>Node29</title>
<g id="a_node29"><a xlink:href="vdp__set__color__table_8c.html" target="_top" xlink:title="Copyright (c) 2021 Daishi Mori (mori0091)">
<polygon fill="none" stroke="black" points="2182.97,-73 2182.97,-92 2310.97,-92 2310.97,-73 2182.97,-73"/>
<text text-anchor="middle" x="2246.97" y="-80" font-family="Helvetica,sans-Serif" font-size="10.00">src/vdp_set_color_table.c</text>
</a>
</g>
</g>
<!-- Node17&#45;&gt;Node29 -->
<g id="edge40" class="edge">
<title>Node17&#45;&gt;Node29</title>
<path fill="none" stroke="midnightblue" d="M2981.75,-142.17C2867.62,-139.68 2567.84,-130.34 2319.97,-98 2308.56,-96.51 2296.26,-94.31 2285.07,-92.06"/>
<polygon fill="midnightblue" stroke="midnightblue" points="2981.82,-145.67 2991.89,-142.38 2981.97,-138.67 2981.82,-145.67"/>
</g>
<!-- Node30 -->
<g id="node30" class="node">
<title>Node30</title>
<g id="a_node30"><a xlink:href="vdp__set__control_8c.html" target="_top" xlink:title="Copyright (c) 2021 Daishi Mori (mori0091)">
<polygon fill="none" stroke="black" points="2328.97,-73 2328.97,-92 2438.97,-92 2438.97,-73 2328.97,-73"/>
<text text-anchor="middle" x="2383.97" y="-80" font-family="Helvetica,sans-Serif" font-size="10.00">src/vdp_set_control.c</text>
</a>
</g>
</g>
<!-- Node17&#45;&gt;Node30 -->
<g id="edge41" class="edge">
<title>Node17&#45;&gt;Node30</title>
<path fill="none" stroke="midnightblue" d="M2981.78,-141.61C2882.61,-138.19 2645.53,-127.4 2448.97,-98 2438.79,-96.48 2427.83,-94.26 2417.87,-92.02"/>
<polygon fill="midnightblue" stroke="midnightblue" points="2981.67,-145.11 2991.78,-141.95 2981.9,-138.11 2981.67,-145.11"/>
</g>
<!-- Node31 -->
<g id="node31" class="node">
<title>Node31</title>
<g id="a_node31"><a xlink:href="vdp__set__hscroll_8c.html" target="_top" xlink:title="Copyright (c) 2021 Daishi Mori (mori0091)">
<polygon fill="none" stroke="black" points="2457.47,-73 2457.47,-92 2566.47,-92 2566.47,-73 2457.47,-73"/>
<text text-anchor="middle" x="2511.97" y="-80" font-family="Helvetica,sans-Serif" font-size="10.00">src/vdp_set_hscroll.c</text>
</a>
</g>
</g>
<!-- Node17&#45;&gt;Node31 -->
<g id="edge42" class="edge">
<title>Node17&#45;&gt;Node31</title>
<path fill="none" stroke="midnightblue" d="M2981.68,-140.24C2899.01,-134.98 2722.97,-121.86 2575.97,-98 2566.18,-96.41 2555.66,-94.23 2546.02,-92.04"/>
<polygon fill="midnightblue" stroke="midnightblue" points="2981.57,-143.74 2991.77,-140.87 2982.01,-136.75 2981.57,-143.74"/>
</g>
<!-- Node32 -->
<g id="node32" class="node">
<title>Node32</title>
<g id="a_node32"><a xlink:href="vdp__set__hscroll__dual__page_8c.html" target="_top" xlink:title="Copyright (c) 2021 Daishi Mori (mori0091)">
<polygon fill="none" stroke="black" points="2584.47,-67.5 2584.47,-97.5 2685.47,-97.5 2685.47,-67.5 2584.47,-67.5"/>
<text text-anchor="start" x="2592.47" y="-85.5" font-family="Helvetica,sans-Serif" font-size="10.00">src/vdp_set_hscroll</text>
<text text-anchor="middle" x="2634.97" y="-74.5" font-family="Helvetica,sans-Serif" font-size="10.00">_dual_page.c</text>
</a>
</g>
</g>
<!-- Node17&#45;&gt;Node32 -->
<g id="edge43" class="edge">
<title>Node17&#45;&gt;Node32</title>
<path fill="none" stroke="midnightblue" d="M2981.36,-138.15C2916.35,-131.17 2796.29,-117.02 2694.97,-98 2691.91,-97.43 2688.78,-96.8 2685.62,-96.13"/>
<polygon fill="midnightblue" stroke="midnightblue" points="2981.38,-141.67 2991.7,-139.25 2982.12,-134.71 2981.38,-141.67"/>
</g>
<!-- Node33 -->
<g id="node33" class="node">
<title>Node33</title>
<g id="a_node33"><a xlink:href="vdp__set__hscroll__mask_8c.html" target="_top" xlink:title="Copyright (c) 2021 Daishi Mori (mori0091)">
<polygon fill="none" stroke="black" points="2703.47,-67.5 2703.47,-97.5 2804.47,-97.5 2804.47,-67.5 2703.47,-67.5"/>
<text text-anchor="start" x="2711.47" y="-85.5" font-family="Helvetica,sans-Serif" font-size="10.00">src/vdp_set_hscroll</text>
<text text-anchor="middle" x="2753.97" y="-74.5" font-family="Helvetica,sans-Serif" font-size="10.00">_mask.c</text>
</a>
</g>
</g>
<!-- Node17&#45;&gt;Node33 -->
<g id="edge44" class="edge">
<title>Node17&#45;&gt;Node33</title>
<path fill="none" stroke="midnightblue" d="M2981.57,-133.52C2937.94,-124.68 2871.48,-110.97 2813.97,-98 2810.93,-97.32 2807.82,-96.6 2804.68,-95.87"/>
<polygon fill="midnightblue" stroke="midnightblue" points="2981.11,-136.99 2991.6,-135.54 2982.49,-130.13 2981.11,-136.99"/>
</g>
<!-- Node34 -->
<g id="node34" class="node">
<title>Node34</title>
<g id="a_node34"><a xlink:href="vdp__set__image__table_8c.html" target="_top" xlink:title="Copyright (c) 2021 Daishi Mori (mori0091)">
<polygon fill="none" stroke="black" points="2822.47,-73 2822.47,-92 2955.47,-92 2955.47,-73 2822.47,-73"/>
<text text-anchor="middle" x="2888.97" y="-80" font-family="Helvetica,sans-Serif" font-size="10.00">src/vdp_set_image_table.c</text>
</a>
</g>
</g>
<!-- Node17&#45;&gt;Node34 -->
<g id="edge45" class="edge">
<title>Node17&#45;&gt;Node34</title>
<path fill="none" stroke="midnightblue" d="M2999.51,-130.48C2972.32,-118.92 2932.67,-102.08 2908.99,-92.01"/>
<polygon fill="midnightblue" stroke="midnightblue" points="2998.33,-133.78 3008.91,-134.48 3001.07,-127.34 2998.33,-133.78"/>
</g>
<!-- Node35 -->
<g id="node35" class="node">
<title>Node35</title>
<g id="a_node35"><a xlink:href="vdp__set__palette_8c.html" target="_top" xlink:title="Copyright (c) 2021 Daishi Mori (mori0091)">
<polygon fill="none" stroke="black" points="2973.97,-73 2973.97,-92 3083.97,-92 3083.97,-73 2973.97,-73"/>
<text text-anchor="middle" x="3028.97" y="-80" font-family="Helvetica,sans-Serif" font-size="10.00">src/vdp_set_palette.c</text>
</a>
</g>
</g>
<!-- Node17&#45;&gt;Node35 -->
<g id="edge46" class="edge">
<title>Node17&#45;&gt;Node35</title>
<path fill="none" stroke="midnightblue" d="M3028.97,-124.32C3028.97,-113.5 3028.97,-100.4 3028.97,-92.01"/>
<polygon fill="midnightblue" stroke="midnightblue" points="3025.47,-124.48 3028.97,-134.48 3032.47,-124.48 3025.47,-124.48"/>
</g>
<!-- Node36 -->
<g id="node36" class="node">
<title>Node36</title>
<g id="a_node36"><a xlink:href="vdp__set__pattern__table_8c.html" target="_top" xlink:title="Copyright (c) 2021 Daishi Mori (mori0091)">
<polygon fill="none" stroke="black" points="3102.47,-67.5 3102.47,-97.5 3205.47,-97.5 3205.47,-67.5 3102.47,-67.5"/>
<text text-anchor="start" x="3110.47" y="-85.5" font-family="Helvetica,sans-Serif" font-size="10.00">src/vdp_set_pattern</text>
<text text-anchor="middle" x="3153.97" y="-74.5" font-family="Helvetica,sans-Serif" font-size="10.00">_table.c</text>
</a>
</g>
</g>
<!-- Node17&#45;&gt;Node36 -->
<g id="edge47" class="edge">
<title>Node17&#45;&gt;Node36</title>
<path fill="none" stroke="midnightblue" d="M3056.13,-130.07C3076.31,-120.47 3103.8,-107.38 3124.51,-97.52"/>
<polygon fill="midnightblue" stroke="midnightblue" points="3054.4,-127.02 3046.87,-134.48 3057.41,-133.34 3054.4,-127.02"/>
</g>
<!-- Node37 -->
<g id="node37" class="node">
<title>Node37</title>
<g id="a_node37"><a xlink:href="vdp__set__screen__lines_8c.html" target="_top" xlink:title="Copyright (c) 2021 Daishi Mori (mori0091)">
<polygon fill="none" stroke="black" points="3223.97,-67.5 3223.97,-97.5 3325.97,-97.5 3325.97,-67.5 3223.97,-67.5"/>
<text text-anchor="start" x="3231.97" y="-85.5" font-family="Helvetica,sans-Serif" font-size="10.00">src/vdp_set_screen</text>
<text text-anchor="middle" x="3274.97" y="-74.5" font-family="Helvetica,sans-Serif" font-size="10.00">_lines.c</text>
</a>
</g>
</g>
<!-- Node17&#45;&gt;Node37 -->
<g id="edge48" class="edge">
<title>Node17&#45;&gt;Node37</title>
<path fill="none" stroke="midnightblue" d="M3073.98,-132.11C3116.35,-121.87 3179.73,-106.53 3223.96,-95.84"/>
<polygon fill="midnightblue" stroke="midnightblue" points="3073.11,-128.72 3064.21,-134.48 3074.75,-135.53 3073.11,-128.72"/>
</g>
<!-- Node38 -->
<g id="node38" class="node">
<title>Node38</title>
<g id="a_node38"><a xlink:href="vdp__set__screen__mode_8c.html" target="_top" xlink:title="Copyright (c) 2021 Daishi Mori (mori0091)">
<polygon fill="none" stroke="black" points="3343.97,-67.5 3343.97,-97.5 3445.97,-97.5 3445.97,-67.5 3343.97,-67.5"/>
<text text-anchor="start" x="3351.97" y="-85.5" font-family="Helvetica,sans-Serif" font-size="10.00">src/vdp_set_screen</text>
<text text-anchor="middle" x="3394.97" y="-74.5" font-family="Helvetica,sans-Serif" font-size="10.00">_mode.c</text>
</a>
</g>
</g>
<!-- Node17&#45;&gt;Node38 -->
<g id="edge49" class="edge">
<title>Node17&#45;&gt;Node38</title>
<path fill="none" stroke="midnightblue" d="M3076.35,-137.39C3136.68,-129.94 3244.02,-115.64 3334.97,-98 3337.81,-97.45 3340.71,-96.85 3343.65,-96.23"/>
<polygon fill="midnightblue" stroke="midnightblue" points="3075.86,-133.93 3066.36,-138.62 3076.71,-140.87 3075.86,-133.93"/>
</g>
<!-- Node39 -->
<g id="node39" class="node">
<title>Node39</title>
<g id="a_node39"><a xlink:href="vdp__set__sprite__attribute__table_8c.html" target="_top" xlink:title="Copyright (c) 2021 Daishi Mori (mori0091)">
<polygon fill="none" stroke="black" points="3463.47,-67.5 3463.47,-97.5 3560.47,-97.5 3560.47,-67.5 3463.47,-67.5"/>
<text text-anchor="start" x="3471.47" y="-85.5" font-family="Helvetica,sans-Serif" font-size="10.00">src/vdp_set_sprite</text>
<text text-anchor="middle" x="3511.97" y="-74.5" font-family="Helvetica,sans-Serif" font-size="10.00">_attribute_table.c</text>
</a>
</g>
</g>
<!-- Node17&#45;&gt;Node39 -->
<g id="edge50" class="edge">
<title>Node17&#45;&gt;Node39</title>
<path fill="none" stroke="midnightblue" d="M3076.07,-140.25C3154.95,-135.14 3318.52,-122.43 3454.97,-98 3457.68,-97.51 3460.45,-96.97 3463.25,-96.38"/>
<polygon fill="midnightblue" stroke="midnightblue" points="3075.73,-136.76 3065.97,-140.89 3076.17,-143.75 3075.73,-136.76"/>
</g>
<!-- Node40 -->
<g id="node40" class="node">
<title>Node40</title>
<g id="a_node40"><a xlink:href="vdp__set__sprite__pattern__table_8c.html" target="_top" xlink:title="Copyright (c) 2021 Daishi Mori (mori0091)">
<polygon fill="none" stroke="black" points="3578.47,-67.5 3578.47,-97.5 3675.47,-97.5 3675.47,-67.5 3578.47,-67.5"/>
<text text-anchor="start" x="3586.47" y="-85.5" font-family="Helvetica,sans-Serif" font-size="10.00">src/vdp_set_sprite</text>
<text text-anchor="middle" x="3626.97" y="-74.5" font-family="Helvetica,sans-Serif" font-size="10.00">_pattern_table.c</text>
</a>
</g>
</g>
<!-- Node17&#45;&gt;Node40 -->
<g id="edge51" class="edge">
<title>Node17&#45;&gt;Node40</title>
<path fill="none" stroke="midnightblue" d="M3076.39,-141.7C3170.9,-138.53 3389.21,-128.29 3569.97,-98 3572.68,-97.54 3575.46,-97.02 3578.26,-96.46"/>
<polygon fill="midnightblue" stroke="midnightblue" points="3076.17,-138.21 3066.29,-142.03 3076.4,-145.2 3076.17,-138.21"/>
</g>
<!-- Node41 -->
<g id="node41" class="node">
<title>Node41</title>
<g id="a_node41"><a xlink:href="vdp__set__sprite__size_8c.html" target="_top" xlink:title="Copyright (c) 2021 Daishi Mori (mori0091)">
<polygon fill="none" stroke="black" points="3732.47,-67.5 3732.47,-97.5 3829.47,-97.5 3829.47,-67.5 3732.47,-67.5"/>
<text text-anchor="start" x="3740.47" y="-85.5" font-family="Helvetica,sans-Serif" font-size="10.00">src/vdp_set_sprite</text>
<text text-anchor="middle" x="3780.97" y="-74.5" font-family="Helvetica,sans-Serif" font-size="10.00">_size.c</text>
</a>
</g>
</g>
<!-- Node17&#45;&gt;Node41 -->
<g id="edge52" class="edge">
<title>Node17&#45;&gt;Node41</title>
<path fill="none" stroke="midnightblue" d="M3076.45,-142.52C3188.65,-140.83 3478.69,-133.12 3717.97,-98 3722.63,-97.32 3727.46,-96.47 3732.27,-95.52"/>
<polygon fill="midnightblue" stroke="midnightblue" points="3076.11,-139.03 3066.16,-142.67 3076.21,-146.03 3076.11,-139.03"/>
</g>
<!-- Node42 -->
<g id="node42" class="node">
<title>Node42</title>
<g id="a_node42"><a xlink:href="vdp__set__sprite__visible_8c.html" target="_top" xlink:title="Copyright (c) 2021 Daishi Mori (mori0091)">
<polygon fill="none" stroke="black" points="3847.47,-67.5 3847.47,-97.5 3944.47,-97.5 3944.47,-67.5 3847.47,-67.5"/>
<text text-anchor="start" x="3855.47" y="-85.5" font-family="Helvetica,sans-Serif" font-size="10.00">src/vdp_set_sprite</text>
<text text-anchor="middle" x="3895.97" y="-74.5" font-family="Helvetica,sans-Serif" font-size="10.00">_visible.c</text>
</a>
</g>
</g>
<!-- Node17&#45;&gt;Node42 -->
<g id="edge53" class="edge">
<title>Node17&#45;&gt;Node42</title>
<path fill="none" stroke="midnightblue" d="M3076.4,-143.56C3201.76,-144.34 3551.91,-142.06 3838.97,-98 3841.69,-97.58 3844.47,-97.09 3847.28,-96.55"/>
<polygon fill="midnightblue" stroke="midnightblue" points="3076.39,-140.06 3066.37,-143.48 3076.34,-147.06 3076.39,-140.06"/>
</g>
<!-- Node43 -->
<g id="node43" class="node">
<title>Node43</title>
<g id="a_node43"><a xlink:href="vdp__set__visible_8c.html" target="_top" xlink:title="Copyright (c) 2021 Daishi Mori (mori0091)">
<polygon fill="none" stroke="black" points="3962.97,-73 3962.97,-92 4070.97,-92 4070.97,-73 3962.97,-73"/>
<text text-anchor="middle" x="4016.97" y="-80" font-family="Helvetica,sans-Serif" font-size="10.00">src/vdp_set_visible.c</text>
</a>
</g>
</g>
<!-- Node17&#45;&gt;Node43 -->
<g id="edge54" class="edge">
<title>Node17&#45;&gt;Node43</title>
<path fill="none" stroke="midnightblue" d="M3076.33,-143.65C3213.11,-144.9 3620.24,-144.15 3953.97,-98 3964.08,-96.6 3974.97,-94.36 3984.8,-92.06"/>
<polygon fill="midnightblue" stroke="midnightblue" points="3076.23,-140.15 3066.19,-143.55 3076.16,-147.15 3076.23,-140.15"/>
</g>
<!-- Node44 -->
<g id="node44" class="node">
<title>Node44</title>
<g id="a_node44"><a xlink:href="vdp__set__vscroll_8c.html" target="_top" xlink:title="Copyright (c) 2021 Daishi Mori (mori0091)">
<polygon fill="none" stroke="black" points="4089.47,-73 4089.47,-92 4198.47,-92 4198.47,-73 4089.47,-73"/>
<text text-anchor="middle" x="4143.97" y="-80" font-family="Helvetica,sans-Serif" font-size="10.00">src/vdp_set_vscroll.c</text>
</a>
</g>
</g>
<!-- Node17&#45;&gt;Node44 -->
<g id="edge55" class="edge">
<title>Node17&#45;&gt;Node44</title>
<path fill="none" stroke="midnightblue" d="M3076.03,-142.11C3253.45,-138.59 3881.73,-124.48 4079.97,-98 4090.35,-96.61 4101.54,-94.35 4111.61,-92.02"/>
<polygon fill="midnightblue" stroke="midnightblue" points="3075.9,-138.61 3065.97,-142.31 3076.04,-145.61 3075.9,-138.61"/>
</g>
<!-- Node45 -->
<g id="node45" class="node">
<title>Node45</title>
<g id="a_node45"><a xlink:href="vdp__write__control_8c.html" target="_top" xlink:title="Copyright (c) 2021 Daishi Mori (mori0091)">
<polygon fill="none" stroke="black" points="4216.47,-73 4216.47,-92 4333.47,-92 4333.47,-73 4216.47,-73"/>
<text text-anchor="middle" x="4274.97" y="-80" font-family="Helvetica,sans-Serif" font-size="10.00">src/vdp_write_control.c</text>
</a>
</g>
</g>
<!-- Node17&#45;&gt;Node45 -->
<g id="edge56" class="edge">
<title>Node17&#45;&gt;Node45</title>
<path fill="none" stroke="midnightblue" d="M3076.28,-142.3C3267.45,-139.3 3983.33,-126.37 4207.97,-98 4218.83,-96.63 4230.54,-94.37 4241.08,-92.04"/>
<polygon fill="midnightblue" stroke="midnightblue" points="3075.95,-138.8 3066,-142.46 3076.06,-145.8 3075.95,-138.8"/>
</g>
<!-- Node46 -->
<g id="node46" class="node">
<title>Node46</title>
<g id="a_node46"><a xlink:href="vdp__write__palette_8c.html" target="_top" xlink:title="Copyright (c) 2021 Daishi Mori (mori0091)">
<polygon fill="none" stroke="black" points="4351.47,-73 4351.47,-92 4468.47,-92 4468.47,-73 4351.47,-73"/>
<text text-anchor="middle" x="4409.97" y="-80" font-family="Helvetica,sans-Serif" font-size="10.00">src/vdp_write_palette.c</text>
</a>
</g>
</g>
<!-- Node17&#45;&gt;Node46 -->
<g id="edge57" class="edge">
<title>Node17&#45;&gt;Node46</title>
<path fill="none" stroke="midnightblue" d="M3076.26,-142.51C3280.8,-140.24 4090.4,-129.4 4342.97,-98 4353.83,-96.65 4365.54,-94.4 4376.08,-92.06"/>
<polygon fill="midnightblue" stroke="midnightblue" points="3076.1,-139.02 3066.14,-142.63 3076.18,-146.02 3076.1,-139.02"/>
</g>
<!-- Node47 -->
<g id="node47" class="node">
<title>Node47</title>
<g id="a_node47"><a xlink:href="vmem__memset_8c.html" target="_top" xlink:title="Copyright (c) 2021 Daishi Mori (mori0091)">
<polygon fill="none" stroke="black" points="4486.97,-73 4486.97,-92 4594.97,-92 4594.97,-73 4486.97,-73"/>
<text text-anchor="middle" x="4540.97" y="-80" font-family="Helvetica,sans-Serif" font-size="10.00">src/vmem_memset.c</text>
</a>
</g>
</g>
<!-- Node17&#45;&gt;Node47 -->
<g id="edge58" class="edge">
<title>Node17&#45;&gt;Node47</title>
<path fill="none" stroke="midnightblue" d="M3076.09,-142.77C3293.1,-141.54 4197.54,-134.27 4477.97,-98 4488.32,-96.66 4499.46,-94.38 4509.46,-92.02"/>
<polygon fill="midnightblue" stroke="midnightblue" points="3075.97,-139.27 3065.99,-142.83 3076.01,-146.27 3075.97,-139.27"/>
</g>
<!-- Node48 -->
<g id="node48" class="node">
<title>Node48</title>
<g id="a_node48"><a xlink:href="vmem__read_8c.html" target="_top" xlink:title="Copyright (c) 2021 Daishi Mori (mori0091)">
<polygon fill="none" stroke="black" points="4612.97,-73 4612.97,-92 4704.97,-92 4704.97,-73 4612.97,-73"/>
<text text-anchor="middle" x="4658.97" y="-80" font-family="Helvetica,sans-Serif" font-size="10.00">src/vmem_read.c</text>
</a>
</g>
</g>
<!-- Node17&#45;&gt;Node48 -->
<g id="edge59" class="edge">
<title>Node17&#45;&gt;Node48</title>
<path fill="none" stroke="midnightblue" d="M3076.44,-143.11C3305.53,-143.41 4298.13,-142.09 4603.97,-98 4613.05,-96.69 4622.8,-94.42 4631.52,-92.06"/>
<polygon fill="midnightblue" stroke="midnightblue" points="3076.12,-139.61 3066.11,-143.09 3076.11,-146.61 3076.12,-139.61"/>
</g>
<!-- Node49 -->
<g id="node49" class="node">
<title>Node49</title>
<g id="a_node49"><a xlink:href="vmem__set__read__address_8c.html" target="_top" xlink:title="Copyright (c) 2021 Daishi Mori (mori0091)">
<polygon fill="none" stroke="black" points="4722.97,-73 4722.97,-92 4872.97,-92 4872.97,-73 4722.97,-73"/>
<text text-anchor="middle" x="4797.97" y="-80" font-family="Helvetica,sans-Serif" font-size="10.00">src/vmem_set_read_address.c</text>
</a>
</g>
</g>
<!-- Node17&#45;&gt;Node49 -->
<g id="edge60" class="edge">
<title>Node17&#45;&gt;Node49</title>
<path fill="none" stroke="midnightblue" d="M3076.21,-142.66C3314.21,-140.81 4383.44,-130.77 4713.97,-98 4727.51,-96.66 4742.17,-94.41 4755.39,-92.07"/>
<polygon fill="midnightblue" stroke="midnightblue" points="3076.12,-139.16 3066.15,-142.74 3076.18,-146.16 3076.12,-139.16"/>
</g>
<!-- Node50 -->
<g id="node50" class="node">
<title>Node50</title>
<g id="a_node50"><a xlink:href="vmem__set__write__address_8c.html" target="_top" xlink:title="Copyright (c) 2021 Daishi Mori (mori0091)">
<polygon fill="none" stroke="black" points="4891.47,-67.5 4891.47,-97.5 4996.47,-97.5 4996.47,-67.5 4891.47,-67.5"/>
<text text-anchor="start" x="4899.47" y="-85.5" font-family="Helvetica,sans-Serif" font-size="10.00">src/vmem_set_write</text>
<text text-anchor="middle" x="4943.97" y="-74.5" font-family="Helvetica,sans-Serif" font-size="10.00">_address.c</text>
</a>
</g>
</g>
<!-- Node17&#45;&gt;Node50 -->
<g id="edge62" class="edge">
<title>Node17&#45;&gt;Node50</title>
<path fill="none" stroke="midnightblue" d="M3076.41,-143.17C3328.95,-143.86 4517.52,-144.54 4881.97,-98 4885.04,-97.61 4888.18,-97.13 4891.33,-96.58"/>
<polygon fill="midnightblue" stroke="midnightblue" points="3076.12,-139.67 3066.11,-143.14 3076.1,-146.67 3076.12,-139.67"/>
</g>
</g>
</svg>
