<?xml version="1.0" encoding="UTF-8" standalone="no"?>
<!DOCTYPE svg PUBLIC "-//W3C//DTD SVG 1.1//EN"
 "http://www.w3.org/Graphics/SVG/1.1/DTD/svg11.dtd">
<!-- Generated by graphviz version 7.0.5 (20221223.1930)
 -->
<!-- Title: include/vmem.h Pages: 1 -->
<svg width="779pt" height="247pt"
 viewBox="0.00 0.00 778.64 247.00" xmlns="http://www.w3.org/2000/svg" xmlns:xlink="http://www.w3.org/1999/xlink">
<g id="graph0" class="graph" transform="scale(1 1) rotate(0) translate(4 243)">
<title>include/vmem.h</title>
<!-- Node1 -->
<g id="node1" class="node">
<title>Node1</title>
<g id="a_node1"><a xlink:title="Data types and functions for VRAM access.">
<polygon fill="#999999" stroke="#666666" points="517.5,-239 432.5,-239 432.5,-220 517.5,-220 517.5,-239"/>
<text text-anchor="middle" x="475" y="-227" font-family="Helvetica,sans-Serif" font-size="10.00">include/vmem.h</text>
</a>
</g>
</g>
<!-- Node2 -->
<g id="node2" class="node">
<title>Node2</title>
<g id="a_node2"><a xlink:href="ZX0__decompress_8h.html" target="_top" xlink:title="Decompressor of the ZX0 data compression format version 2.">
<polygon fill="white" stroke="#666666" points="134,-129 0,-129 0,-110 134,-110 134,-129"/>
<text text-anchor="middle" x="67" y="-117" font-family="Helvetica,sans-Serif" font-size="10.00">include/ZX0_decompress.h</text>
</a>
</g>
</g>
<!-- Node1&#45;&gt;Node2 -->
<g id="edge1" class="edge">
<title>Node1&#45;&gt;Node2</title>
<path fill="none" stroke="#63b8ff" d="M420.67,-229.3C354.5,-228.44 240.47,-220.98 151,-184 119.57,-171.01 89.47,-143.38 75.36,-129.23"/>
<polygon fill="#63b8ff" stroke="#63b8ff" points="420.52,-232.8 430.55,-229.37 420.57,-225.8 420.52,-232.8"/>
</g>
<!-- Node3 -->
<g id="node3" class="node">
<title>Node3</title>
<g id="a_node3"><a xlink:href="bmem_8h.html" target="_top" xlink:title="Data types and functions for accessing banked memory.">
<polygon fill="white" stroke="#666666" points="245.5,-184 160.5,-184 160.5,-165 245.5,-165 245.5,-184"/>
<text text-anchor="middle" x="203" y="-172" font-family="Helvetica,sans-Serif" font-size="10.00">include/bmem.h</text>
</a>
</g>
</g>
<!-- Node1&#45;&gt;Node3 -->
<g id="edge2" class="edge">
<title>Node1&#45;&gt;Node3</title>
<path fill="none" stroke="#63b8ff" d="M421,-217.98C369.63,-207.97 293.37,-193.11 246,-183.88"/>
<polygon fill="#63b8ff" stroke="#63b8ff" points="420.23,-221.39 430.72,-219.87 421.57,-214.52 420.23,-221.39"/>
</g>
<!-- Node7 -->
<g id="node7" class="node">
<title>Node7</title>
<g id="a_node7"><a xlink:href="metasprite_8h.html" target="_top" xlink:title="Meta&#45;sprite ; an aggregate of sprites.">
<polygon fill="white" stroke="#666666" points="594,-74 490,-74 490,-55 594,-55 594,-74"/>
<text text-anchor="middle" x="542" y="-62" font-family="Helvetica,sans-Serif" font-size="10.00">include/metasprite.h</text>
</a>
</g>
</g>
<!-- Node1&#45;&gt;Node7 -->
<g id="edge7" class="edge">
<title>Node1&#45;&gt;Node7</title>
<path fill="none" stroke="#63b8ff" d="M506.48,-214.11C518.53,-206.89 531.05,-196.89 538,-184 557.74,-147.41 548.82,-94.78 544.18,-74.21"/>
<polygon fill="#63b8ff" stroke="#63b8ff" points="505.01,-210.93 497.93,-218.8 508.38,-217.07 505.01,-210.93"/>
</g>
<!-- Node8 -->
<g id="node8" class="node">
<title>Node8</title>
<g id="a_node8"><a xlink:href="msx_8h.html" target="_top" xlink:title="Using #include &lt;msx.h&gt; includes almost all C header files in libmsx, for ease to use.">
<polygon fill="white" stroke="#666666" points="660,-19 584,-19 584,0 660,0 660,-19"/>
<text text-anchor="middle" x="622" y="-7" font-family="Helvetica,sans-Serif" font-size="10.00">include/msx.h</text>
</a>
</g>
</g>
<!-- Node1&#45;&gt;Node8 -->
<g id="edge9" class="edge">
<title>Node1&#45;&gt;Node8</title>
<path fill="none" stroke="#63b8ff" d="M528.92,-219.71C600.8,-204.61 723.93,-165.95 767,-74 787.69,-29.83 709.98,-16.38 660.38,-12.29"/>
<polygon fill="#63b8ff" stroke="#63b8ff" points="528.45,-216.24 519.33,-221.64 529.82,-223.1 528.45,-216.24"/>
</g>
<!-- Node9 -->
<g id="node9" class="node">
<title>Node9</title>
<g id="a_node9"><a xlink:href="sprite_8h.html" target="_top" xlink:title="Sprites.">
<polygon fill="white" stroke="#666666" points="667,-129 585,-129 585,-110 667,-110 667,-129"/>
<text text-anchor="middle" x="626" y="-117" font-family="Helvetica,sans-Serif" font-size="10.00">include/sprite.h</text>
</a>
</g>
</g>
<!-- Node1&#45;&gt;Node9 -->
<g id="edge10" class="edge">
<title>Node1&#45;&gt;Node9</title>
<path fill="none" stroke="#63b8ff" d="M512.41,-215.47C531.06,-207.94 553.34,-197.3 571,-184 592.2,-168.03 611.06,-142.67 620.18,-129.35"/>
<polygon fill="#63b8ff" stroke="#63b8ff" points="511.38,-212.11 503.32,-218.99 513.91,-218.64 511.38,-212.11"/>
</g>
<!-- Node10 -->
<g id="node10" class="node">
<title>Node10</title>
<g id="a_node10"><a xlink:href="sprite__color_8h.html" target="_top" xlink:title="Sprite color table interface.">
<polygon fill="white" stroke="#666666" points="758,-74 650,-74 650,-55 758,-55 758,-74"/>
<text text-anchor="middle" x="704" y="-62" font-family="Helvetica,sans-Serif" font-size="10.00">include/sprite_color.h</text>
</a>
</g>
</g>
<!-- Node1&#45;&gt;Node10 -->
<g id="edge15" class="edge">
<title>Node1&#45;&gt;Node10</title>
<path fill="none" stroke="#63b8ff" d="M524.33,-216.45C570.09,-202.76 636.85,-175.98 676,-129 690.04,-112.16 698.27,-87.17 701.85,-74.13"/>
<polygon fill="#63b8ff" stroke="#63b8ff" points="523.56,-213.03 514.92,-219.15 525.49,-219.76 523.56,-213.03"/>
</g>
<!-- Node11 -->
<g id="node11" class="node">
<title>Node11</title>
<g id="a_node11"><a xlink:href="vdp_8h.html" target="_top" xlink:title="Data types and functions for VDP (Video Display Proccessor) access.">
<polygon fill="white" stroke="#666666" points="506,-129 432,-129 432,-110 506,-110 506,-129"/>
<text text-anchor="middle" x="469" y="-117" font-family="Helvetica,sans-Serif" font-size="10.00">include/vdp.h</text>
</a>
</g>
</g>
<!-- Node1&#45;&gt;Node11 -->
<g id="edge16" class="edge">
<title>Node1&#45;&gt;Node11</title>
<path fill="none" stroke="#63b8ff" d="M443.3,-214.23C431.22,-207.02 418.74,-197.01 412,-184 400.35,-161.51 429.7,-140.73 450.47,-129.41"/>
<polygon fill="#63b8ff" stroke="#63b8ff" points="441.44,-217.2 451.9,-218.9 444.78,-211.05 441.44,-217.2"/>
</g>
<!-- Node12 -->
<g id="node12" class="node">
<title>Node12</title>
<g id="a_node12"><a xlink:href="vdp__unsafe_8h.html" target="_top" xlink:title="Unsafe primitive functions for VDP (Video Display Proccessor) access.">
<polygon fill="white" stroke="#666666" points="529,-184 421,-184 421,-165 529,-165 529,-184"/>
<text text-anchor="middle" x="475" y="-172" font-family="Helvetica,sans-Serif" font-size="10.00">include/vdp_unsafe.h</text>
</a>
</g>
</g>
<!-- Node1&#45;&gt;Node12 -->
<g id="edge19" class="edge">
<title>Node1&#45;&gt;Node12</title>
<path fill="none" stroke="#63b8ff" d="M475,-208.35C475,-200.1 475,-190.97 475,-184.44"/>
<polygon fill="#63b8ff" stroke="#63b8ff" points="471.5,-208.23 475,-218.23 478.5,-208.23 471.5,-208.23"/>
</g>
<!-- Node13 -->
<g id="node13" class="node">
<title>Node13</title>
<g id="a_node13"><a xlink:href="vmem__rw_8h.html" target="_top" xlink:title="Stream like access functions for VRAM.">
<polygon fill="white" stroke="#666666" points="364.5,-184 263.5,-184 263.5,-165 364.5,-165 364.5,-184"/>
<text text-anchor="middle" x="314" y="-172" font-family="Helvetica,sans-Serif" font-size="10.00">include/vmem_rw.h</text>
</a>
</g>
</g>
<!-- Node1&#45;&gt;Node13 -->
<g id="edge21" class="edge">
<title>Node1&#45;&gt;Node13</title>
<path fill="none" stroke="#63b8ff" d="M436.97,-215.98C407.53,-206.29 367.46,-193.1 341.18,-184.45"/>
<polygon fill="#63b8ff" stroke="#63b8ff" points="435.66,-219.23 446.25,-219.04 437.85,-212.58 435.66,-219.23"/>
</g>
<!-- Node3&#45;&gt;Node2 -->
<g id="edge3" class="edge">
<title>Node3&#45;&gt;Node2</title>
<path fill="none" stroke="#63b8ff" d="M169.52,-160.45C144.7,-150.78 111.53,-137.85 89.73,-129.36"/>
<polygon fill="#63b8ff" stroke="#63b8ff" points="167.93,-163.59 178.52,-163.96 170.47,-157.07 167.93,-163.59"/>
</g>
<!-- Node4 -->
<g id="node4" class="node">
<title>Node4</title>
<g id="a_node4"><a xlink:href="bmem__rd_8h.html" target="_top" xlink:title="Stream like access functions for Banked Memory.">
<polygon fill="white" stroke="#666666" points="370,-129 272,-129 272,-110 370,-110 370,-129"/>
<text text-anchor="middle" x="321" y="-117" font-family="Helvetica,sans-Serif" font-size="10.00">include/bmem_rd.h</text>
</a>
</g>
</g>
<!-- Node3&#45;&gt;Node4 -->
<g id="edge4" class="edge">
<title>Node3&#45;&gt;Node4</title>
<path fill="none" stroke="#63b8ff" d="M233.51,-159.8C254.87,-150.2 282.79,-137.66 301.28,-129.36"/>
<polygon fill="#63b8ff" stroke="#63b8ff" points="232.09,-156.6 224.4,-163.89 234.95,-162.98 232.09,-156.6"/>
</g>
<!-- Node6 -->
<g id="node6" class="node">
<title>Node6</title>
<g id="a_node6"><a xlink:href="resources_8h.html" target="_top" xlink:title="Data types and functions for accessing embedded resources.">
<polygon fill="white" stroke="#666666" points="253.5,-129 152.5,-129 152.5,-110 253.5,-110 253.5,-129"/>
<text text-anchor="middle" x="203" y="-117" font-family="Helvetica,sans-Serif" font-size="10.00">include/resources.h</text>
</a>
</g>
</g>
<!-- Node3&#45;&gt;Node6 -->
<g id="edge6" class="edge">
<title>Node3&#45;&gt;Node6</title>
<path fill="none" stroke="#63b8ff" d="M203,-153.35C203,-145.1 203,-135.97 203,-129.44"/>
<polygon fill="#63b8ff" stroke="#63b8ff" points="199.5,-153.23 203,-163.23 206.5,-153.23 199.5,-153.23"/>
</g>
<!-- Node5 -->
<g id="node5" class="node">
<title>Node5</title>
<g id="a_node5"><a xlink:href="xmem_8h.html" target="_top" xlink:title="Inter&#45;memory transfer functions for ROM / RAM, VRAM, and Banked Memory (MegaROM).">
<polygon fill="white" stroke="#666666" points="403,-74 319,-74 319,-55 403,-55 403,-74"/>
<text text-anchor="middle" x="361" y="-62" font-family="Helvetica,sans-Serif" font-size="10.00">include/xmem.h</text>
</a>
</g>
</g>
<!-- Node4&#45;&gt;Node5 -->
<g id="edge5" class="edge">
<title>Node4&#45;&gt;Node5</title>
<path fill="none" stroke="#63b8ff" d="M334.47,-100.65C341.12,-91.84 348.86,-81.59 354.25,-74.44"/>
<polygon fill="#63b8ff" stroke="#63b8ff" points="331.75,-98.45 328.52,-108.54 337.33,-102.67 331.75,-98.45"/>
</g>
<!-- Node7&#45;&gt;Node8 -->
<g id="edge8" class="edge">
<title>Node7&#45;&gt;Node8</title>
<path fill="none" stroke="#63b8ff" d="M565.11,-48.19C579.23,-38.84 596.78,-27.21 608.63,-19.36"/>
<polygon fill="#63b8ff" stroke="#63b8ff" points="563.24,-45.23 556.83,-53.67 567.1,-51.07 563.24,-45.23"/>
</g>
<!-- Node9&#45;&gt;Node7 -->
<g id="edge11" class="edge">
<title>Node9&#45;&gt;Node7</title>
<path fill="none" stroke="#63b8ff" d="M602.16,-103.46C587.27,-94.06 568.6,-82.28 556.04,-74.36"/>
<polygon fill="#63b8ff" stroke="#63b8ff" points="600.15,-106.33 610.47,-108.7 603.88,-100.41 600.15,-106.33"/>
</g>
<!-- Node9&#45;&gt;Node8 -->
<g id="edge12" class="edge">
<title>Node9&#45;&gt;Node8</title>
<path fill="none" stroke="#63b8ff" d="M625.25,-98.24C624.38,-74.63 622.97,-36.65 622.33,-19.46"/>
<polygon fill="#63b8ff" stroke="#63b8ff" points="621.75,-98.29 625.62,-108.15 628.74,-98.03 621.75,-98.29"/>
</g>
<!-- Node9&#45;&gt;Node10 -->
<g id="edge13" class="edge">
<title>Node9&#45;&gt;Node10</title>
<path fill="none" stroke="#63b8ff" d="M648.53,-103.19C662.3,-93.84 679.41,-82.21 690.96,-74.36"/>
<polygon fill="#63b8ff" stroke="#63b8ff" points="646.79,-100.14 640.48,-108.66 650.72,-105.93 646.79,-100.14"/>
</g>
<!-- Node10&#45;&gt;Node8 -->
<g id="edge14" class="edge">
<title>Node10&#45;&gt;Node8</title>
<path fill="none" stroke="#63b8ff" d="M680.73,-48.46C666.19,-39.06 647.96,-27.28 635.7,-19.36"/>
<polygon fill="#63b8ff" stroke="#63b8ff" points="678.52,-51.2 688.82,-53.69 682.32,-45.32 678.52,-51.2"/>
</g>
<!-- Node11&#45;&gt;Node7 -->
<g id="edge17" class="edge">
<title>Node11&#45;&gt;Node7</title>
<path fill="none" stroke="#63b8ff" d="M490.47,-102.92C503.28,-93.61 519.1,-82.13 529.8,-74.36"/>
<polygon fill="#63b8ff" stroke="#63b8ff" points="488.64,-99.91 482.61,-108.62 492.76,-105.58 488.64,-99.91"/>
</g>
<!-- Node11&#45;&gt;Node8 -->
<g id="edge18" class="edge">
<title>Node11&#45;&gt;Node8</title>
<path fill="none" stroke="#63b8ff" d="M467.73,-98.7C467.93,-84.86 470.51,-66.82 481,-55 506.82,-25.92 551.46,-15.67 583.6,-12.15"/>
<polygon fill="#63b8ff" stroke="#63b8ff" points="464.23,-98.51 468.02,-108.41 471.22,-98.31 464.23,-98.51"/>
</g>
<!-- Node12&#45;&gt;Node11 -->
<g id="edge20" class="edge">
<title>Node12&#45;&gt;Node11</title>
<path fill="none" stroke="#63b8ff" d="M472.72,-153.35C471.78,-145.1 470.75,-135.97 470.01,-129.44"/>
<polygon fill="#63b8ff" stroke="#63b8ff" points="469.24,-153.7 473.84,-163.24 476.19,-152.91 469.24,-153.7"/>
</g>
<!-- Node13&#45;&gt;Node5 -->
<g id="edge22" class="edge">
<title>Node13&#45;&gt;Node5</title>
<path fill="none" stroke="#63b8ff" d="M346.94,-159.3C359.33,-152.14 372.07,-142.14 379,-129 388.62,-110.76 375.81,-86.77 367.36,-74.14"/>
<polygon fill="#63b8ff" stroke="#63b8ff" points="345.33,-156.19 338.1,-163.94 348.58,-162.39 345.33,-156.19"/>
</g>
</g>
</svg>
