<?xml version="1.0" encoding="UTF-8" standalone="no"?>
<!DOCTYPE svg PUBLIC "-//W3C//DTD SVG 1.1//EN"
 "http://www.w3.org/Graphics/SVG/1.1/DTD/svg11.dtd">
<!-- Generated by graphviz version 2.49.3 (20211027.1534)
 -->
<!-- Title: src/vmem_set_sprite_color_s.c Pages: 1 -->
<svg width="463pt" height="319pt"
 viewBox="0.00 0.00 463.00 319.00" xmlns="http://www.w3.org/2000/svg" xmlns:xlink="http://www.w3.org/1999/xlink">
<g id="graph0" class="graph" transform="scale(1 1) rotate(0) translate(4 315)">
<title>src/vmem_set_sprite_color_s.c</title>
<!-- Node1 -->
<g id="node1" class="node">
<title>Node1</title>
<g id="a_node1"><a xlink:title="Copyright (c) 2021 Daishi Mori (mori0091)">
<polygon fill="#bfbfbf" stroke="black" points="255,-280.5 255,-310.5 363,-310.5 363,-280.5 255,-280.5"/>
<text text-anchor="start" x="263" y="-298.5" font-family="Helvetica,sans-Serif" font-size="10.00">src/vmem_set_sprite</text>
<text text-anchor="middle" x="309" y="-287.5" font-family="Helvetica,sans-Serif" font-size="10.00">_color_s.c</text>
</a>
</g>
</g>
<!-- Node2 -->
<g id="node2" class="node">
<title>Node2</title>
<g id="a_node2"><a xlink:href="vdp_8h.html" target="_top" xlink:title="Data types and functions for VDP (Video Display Proccessor) access.">
<polygon fill="none" stroke="black" points="182.5,-168.5 182.5,-187.5 263.5,-187.5 263.5,-168.5 182.5,-168.5"/>
<text text-anchor="middle" x="223" y="-175.5" font-family="Helvetica,sans-Serif" font-size="10.00">../include/vdp.h</text>
</a>
</g>
</g>
<!-- Node1&#45;&gt;Node2 -->
<g id="edge1" class="edge">
<title>Node1&#45;&gt;Node2</title>
<path fill="none" stroke="midnightblue" d="M298.45,-280.34C282.54,-258.96 252.43,-218.53 235.46,-195.73"/>
<polygon fill="midnightblue" stroke="midnightblue" points="238.23,-193.6 229.46,-187.67 232.62,-197.78 238.23,-193.6"/>
</g>
<!-- Node8 -->
<g id="node8" class="node">
<title>Node8</title>
<g id="a_node8"><a xlink:href="vmem_8h.html" target="_top" xlink:title="Data types and functions for VRAM access.">
<polygon fill="none" stroke="black" points="327.5,-112.5 327.5,-131.5 378.5,-131.5 378.5,-112.5 327.5,-112.5"/>
<text text-anchor="middle" x="353" y="-119.5" font-family="Helvetica,sans-Serif" font-size="10.00">vmem.h</text>
</a>
</g>
</g>
<!-- Node1&#45;&gt;Node8 -->
<g id="edge20" class="edge">
<title>Node1&#45;&gt;Node8</title>
<path fill="none" stroke="midnightblue" d="M312.6,-280.47C320.53,-249.57 339.48,-175.69 348.32,-141.25"/>
<polygon fill="midnightblue" stroke="midnightblue" points="351.71,-142.12 350.8,-131.56 344.93,-140.38 351.71,-142.12"/>
</g>
<!-- Node13 -->
<g id="node13" class="node">
<title>Node13</title>
<g id="a_node13"><a xlink:href="sprite__color_8h.html" target="_top" xlink:title="Copyright (c) 2021 Daishi Mori (mori0091)">
<polygon fill="none" stroke="black" points="339,-224.5 339,-243.5 455,-243.5 455,-224.5 339,-224.5"/>
<text text-anchor="middle" x="397" y="-231.5" font-family="Helvetica,sans-Serif" font-size="10.00">../include/sprite_color.h</text>
</a>
</g>
</g>
<!-- Node1&#45;&gt;Node13 -->
<g id="edge21" class="edge">
<title>Node1&#45;&gt;Node13</title>
<path fill="none" stroke="midnightblue" d="M329.85,-280.4C343.7,-271.04 361.81,-258.79 375.74,-249.38"/>
<polygon fill="midnightblue" stroke="midnightblue" points="377.87,-252.16 384.2,-243.66 373.95,-246.36 377.87,-252.16"/>
</g>
<!-- Node3 -->
<g id="node3" class="node">
<title>Node3</title>
<g id="a_node3"><a xlink:title=" ">
<polygon fill="none" stroke="#bfbfbf" points="9.5,-112.5 9.5,-131.5 60.5,-131.5 60.5,-112.5 9.5,-112.5"/>
<text text-anchor="middle" x="35" y="-119.5" font-family="Helvetica,sans-Serif" font-size="10.00">assert.h</text>
</a>
</g>
</g>
<!-- Node2&#45;&gt;Node3 -->
<g id="edge2" class="edge">
<title>Node2&#45;&gt;Node3</title>
<path fill="none" stroke="midnightblue" d="M193.21,-168.44C159.95,-158.89 106.13,-143.43 70.65,-133.24"/>
<polygon fill="midnightblue" stroke="midnightblue" points="71.3,-129.79 60.72,-130.39 69.37,-136.51 71.3,-129.79"/>
</g>
<!-- Node4 -->
<g id="node4" class="node">
<title>Node4</title>
<g id="a_node4"><a xlink:title=" ">
<polygon fill="none" stroke="#bfbfbf" points="177,-112.5 177,-131.5 233,-131.5 233,-112.5 177,-112.5"/>
<text text-anchor="middle" x="205" y="-119.5" font-family="Helvetica,sans-Serif" font-size="10.00">stdbool.h</text>
</a>
</g>
</g>
<!-- Node2&#45;&gt;Node4 -->
<g id="edge3" class="edge">
<title>Node2&#45;&gt;Node4</title>
<path fill="none" stroke="midnightblue" d="M220.03,-168.08C217.62,-160.85 214.14,-150.41 211.13,-141.4"/>
<polygon fill="midnightblue" stroke="midnightblue" points="214.4,-140.13 207.92,-131.75 207.76,-142.34 214.4,-140.13"/>
</g>
<!-- Node5 -->
<g id="node5" class="node">
<title>Node5</title>
<g id="a_node5"><a xlink:title=" ">
<polygon fill="none" stroke="#bfbfbf" points="294,-0.5 294,-19.5 342,-19.5 342,-0.5 294,-0.5"/>
<text text-anchor="middle" x="318" y="-7.5" font-family="Helvetica,sans-Serif" font-size="10.00">stdint.h</text>
</a>
</g>
</g>
<!-- Node2&#45;&gt;Node5 -->
<g id="edge4" class="edge">
<title>Node2&#45;&gt;Node5</title>
<path fill="none" stroke="midnightblue" d="M231.42,-168.32C247.04,-151.76 280.59,-113.9 299,-76 306.23,-61.13 311.25,-42.98 314.3,-29.65"/>
<polygon fill="midnightblue" stroke="midnightblue" points="317.75,-30.26 316.42,-19.75 310.91,-28.8 317.75,-30.26"/>
</g>
<!-- Node6 -->
<g id="node6" class="node">
<title>Node6</title>
<g id="a_node6"><a xlink:href="io_8h.html" target="_top" xlink:title="Copyright (c) 2021 Daishi Mori (mori0091)">
<polygon fill="none" stroke="black" points="0,-56.5 0,-75.5 32,-75.5 32,-56.5 0,-56.5"/>
<text text-anchor="middle" x="16" y="-63.5" font-family="Helvetica,sans-Serif" font-size="10.00">io.h</text>
</a>
</g>
</g>
<!-- Node2&#45;&gt;Node6 -->
<g id="edge5" class="edge">
<title>Node2&#45;&gt;Node6</title>
<path fill="none" stroke="midnightblue" d="M195.69,-168.4C171.85,-160.42 136.69,-147.45 108,-132 80.92,-117.42 52.39,-96.22 34.42,-82.04"/>
<polygon fill="midnightblue" stroke="midnightblue" points="36.49,-79.21 26.49,-75.7 32.11,-84.68 36.49,-79.21"/>
</g>
<!-- Node2&#45;&gt;Node8 -->
<g id="edge7" class="edge">
<title>Node2&#45;&gt;Node8</title>
<path fill="none" stroke="midnightblue" d="M243.6,-168.44C264.99,-159.56 298.68,-145.56 323.02,-135.45"/>
<polygon fill="midnightblue" stroke="midnightblue" points="324.61,-138.58 332.5,-131.52 321.92,-132.12 324.61,-138.58"/>
</g>
<!-- Node9 -->
<g id="node9" class="node">
<title>Node9</title>
<g id="a_node9"><a xlink:href="bios_8h.html" target="_top" xlink:title="Copyright (c) 2021 Daishi Mori (mori0091)">
<polygon fill="none" stroke="black" points="117,-112.5 117,-131.5 159,-131.5 159,-112.5 117,-112.5"/>
<text text-anchor="middle" x="138" y="-119.5" font-family="Helvetica,sans-Serif" font-size="10.00">bios.h</text>
</a>
</g>
</g>
<!-- Node2&#45;&gt;Node9 -->
<g id="edge10" class="edge">
<title>Node2&#45;&gt;Node9</title>
<path fill="none" stroke="midnightblue" d="M209.34,-168.32C196.08,-159.9 175.73,-146.97 160.15,-137.07"/>
<polygon fill="midnightblue" stroke="midnightblue" points="161.94,-134.06 151.62,-131.65 158.19,-139.97 161.94,-134.06"/>
</g>
<!-- Node12 -->
<g id="node12" class="node">
<title>Node12</title>
<g id="a_node12"><a xlink:href="workarea_8h.html" target="_top" xlink:title="Copyright (c) 2021 Daishi Mori (mori0091)">
<polygon fill="none" stroke="black" points="226,-56.5 226,-75.5 290,-75.5 290,-56.5 226,-56.5"/>
<text text-anchor="middle" x="258" y="-63.5" font-family="Helvetica,sans-Serif" font-size="10.00">workarea.h</text>
</a>
</g>
</g>
<!-- Node2&#45;&gt;Node12 -->
<g id="edge17" class="edge">
<title>Node2&#45;&gt;Node12</title>
<path fill="none" stroke="midnightblue" d="M227.21,-168.19C231.37,-159.24 237.73,-144.88 242,-132 247.1,-116.64 251.38,-98.77 254.23,-85.65"/>
<polygon fill="midnightblue" stroke="midnightblue" points="257.73,-86.04 256.35,-75.54 250.87,-84.61 257.73,-86.04"/>
</g>
<!-- Node7 -->
<g id="node7" class="node">
<title>Node7</title>
<g id="a_node7"><a xlink:href="config_8h.html" target="_top" xlink:title="Copyright (c) 2022 Daishi Mori (mori0091)">
<polygon fill="none" stroke="black" points="103,-0.5 103,-19.5 153,-19.5 153,-0.5 103,-0.5"/>
<text text-anchor="middle" x="128" y="-7.5" font-family="Helvetica,sans-Serif" font-size="10.00">config.h</text>
</a>
</g>
</g>
<!-- Node6&#45;&gt;Node7 -->
<g id="edge6" class="edge">
<title>Node6&#45;&gt;Node7</title>
<path fill="none" stroke="midnightblue" d="M32.05,-57.26C49.99,-48.61 79.34,-34.46 100.86,-24.08"/>
<polygon fill="midnightblue" stroke="midnightblue" points="102.64,-27.11 110.13,-19.62 99.6,-20.81 102.64,-27.11"/>
</g>
<!-- Node8&#45;&gt;Node5 -->
<g id="edge8" class="edge">
<title>Node8&#45;&gt;Node5</title>
<path fill="none" stroke="midnightblue" d="M350.25,-112.37C344.58,-94.54 331.46,-53.3 323.81,-29.27"/>
<polygon fill="midnightblue" stroke="midnightblue" points="327.1,-28.06 320.73,-19.59 320.43,-30.18 327.1,-28.06"/>
</g>
<!-- Node8&#45;&gt;Node6 -->
<g id="edge9" class="edge">
<title>Node8&#45;&gt;Node6</title>
<path fill="none" stroke="midnightblue" d="M327.18,-119.05C274.9,-114.74 152.78,-102.75 42.23,-75.86"/>
<polygon fill="midnightblue" stroke="midnightblue" points="42.81,-72.4 32.26,-73.39 41.12,-79.19 42.81,-72.4"/>
</g>
<!-- Node10 -->
<g id="node10" class="node">
<title>Node10</title>
<g id="a_node10"><a xlink:href="bios__const_8h.html" target="_top" xlink:title="Constant variables in the MSX BIOS ROM.">
<polygon fill="none" stroke="black" points="136.5,-56.5 136.5,-75.5 207.5,-75.5 207.5,-56.5 136.5,-56.5"/>
<text text-anchor="middle" x="172" y="-63.5" font-family="Helvetica,sans-Serif" font-size="10.00">bios_const.h</text>
</a>
</g>
</g>
<!-- Node9&#45;&gt;Node10 -->
<g id="edge11" class="edge">
<title>Node9&#45;&gt;Node10</title>
<path fill="none" stroke="midnightblue" d="M143.61,-112.08C148.37,-104.53 155.32,-93.49 161.15,-84.23"/>
<polygon fill="midnightblue" stroke="midnightblue" points="164.12,-86.08 166.49,-75.75 158.2,-82.35 164.12,-86.08"/>
</g>
<!-- Node11 -->
<g id="node11" class="node">
<title>Node11</title>
<g id="a_node11"><a xlink:href="bios__entry_8h.html" target="_top" xlink:title="Assembler entry points for MSX BIOS functions.">
<polygon fill="none" stroke="black" points="50,-56.5 50,-75.5 118,-75.5 118,-56.5 50,-56.5"/>
<text text-anchor="middle" x="84" y="-63.5" font-family="Helvetica,sans-Serif" font-size="10.00">bios_entry.h</text>
</a>
</g>
</g>
<!-- Node9&#45;&gt;Node11 -->
<g id="edge14" class="edge">
<title>Node9&#45;&gt;Node11</title>
<path fill="none" stroke="midnightblue" d="M129.08,-112.08C121.22,-104.22 109.57,-92.57 100.08,-83.08"/>
<polygon fill="midnightblue" stroke="midnightblue" points="102.3,-80.35 92.75,-75.75 97.35,-85.3 102.3,-80.35"/>
</g>
<!-- Node10&#45;&gt;Node5 -->
<g id="edge12" class="edge">
<title>Node10&#45;&gt;Node5</title>
<path fill="none" stroke="midnightblue" d="M195.13,-56.44C219.48,-47.44 258.01,-33.19 285.42,-23.05"/>
<polygon fill="midnightblue" stroke="midnightblue" points="286.81,-26.27 294.97,-19.52 284.38,-19.7 286.81,-26.27"/>
</g>
<!-- Node10&#45;&gt;Node7 -->
<g id="edge13" class="edge">
<title>Node10&#45;&gt;Node7</title>
<path fill="none" stroke="midnightblue" d="M164.73,-56.08C158.46,-48.38 149.21,-37.03 141.57,-27.65"/>
<polygon fill="midnightblue" stroke="midnightblue" points="144.16,-25.29 135.13,-19.75 138.73,-29.71 144.16,-25.29"/>
</g>
<!-- Node11&#45;&gt;Node5 -->
<g id="edge15" class="edge">
<title>Node11&#45;&gt;Node5</title>
<path fill="none" stroke="midnightblue" d="M118.03,-57.15C162.38,-46.91 239.52,-29.11 283.91,-18.87"/>
<polygon fill="midnightblue" stroke="midnightblue" points="284.97,-22.22 293.92,-16.56 283.39,-15.39 284.97,-22.22"/>
</g>
<!-- Node11&#45;&gt;Node7 -->
<g id="edge16" class="edge">
<title>Node11&#45;&gt;Node7</title>
<path fill="none" stroke="midnightblue" d="M91.27,-56.08C97.54,-48.38 106.79,-37.03 114.43,-27.65"/>
<polygon fill="midnightblue" stroke="midnightblue" points="117.27,-29.71 120.87,-19.75 111.84,-25.29 117.27,-29.71"/>
</g>
<!-- Node12&#45;&gt;Node5 -->
<g id="edge18" class="edge">
<title>Node12&#45;&gt;Node5</title>
<path fill="none" stroke="midnightblue" d="M267.64,-56.32C276.51,-48.34 289.87,-36.31 300.61,-26.65"/>
<polygon fill="midnightblue" stroke="midnightblue" points="303.09,-29.13 308.18,-19.83 298.41,-23.92 303.09,-29.13"/>
</g>
<!-- Node12&#45;&gt;Node7 -->
<g id="edge19" class="edge">
<title>Node12&#45;&gt;Node7</title>
<path fill="none" stroke="midnightblue" d="M237.4,-56.44C216.01,-47.56 182.32,-33.56 157.98,-23.45"/>
<polygon fill="midnightblue" stroke="midnightblue" points="159.08,-20.12 148.5,-19.52 156.39,-26.58 159.08,-20.12"/>
</g>
<!-- Node13&#45;&gt;Node5 -->
<g id="edge22" class="edge">
<title>Node13&#45;&gt;Node5</title>
<path fill="none" stroke="midnightblue" d="M406.56,-224.45C415.09,-216.12 426.99,-202.6 432,-188 434.88,-179.59 433.98,-176.67 432,-168 419.6,-113.74 411.61,-98.77 376,-56 365.99,-43.98 352.25,-33.14 340.66,-25.12"/>
<polygon fill="midnightblue" stroke="midnightblue" points="342.57,-22.19 332.3,-19.56 338.69,-28.01 342.57,-22.19"/>
</g>
<!-- Node13&#45;&gt;Node8 -->
<g id="edge26" class="edge">
<title>Node13&#45;&gt;Node8</title>
<path fill="none" stroke="midnightblue" d="M389.42,-224.33C382.28,-215.71 371.84,-201.8 366,-188 359.76,-173.25 356.46,-155.31 354.75,-142.03"/>
<polygon fill="midnightblue" stroke="midnightblue" points="358.19,-141.3 353.62,-131.74 351.23,-142.06 358.19,-141.3"/>
</g>
<!-- Node14 -->
<g id="node14" class="node">
<title>Node14</title>
<g id="a_node14"><a xlink:href="sprite_8h.html" target="_top" xlink:title="Copyright (c) 2021 Daishi Mori (mori0091)">
<polygon fill="none" stroke="black" points="375,-168.5 375,-187.5 423,-187.5 423,-168.5 375,-168.5"/>
<text text-anchor="middle" x="399" y="-175.5" font-family="Helvetica,sans-Serif" font-size="10.00">sprite.h</text>
</a>
</g>
</g>
<!-- Node13&#45;&gt;Node14 -->
<g id="edge23" class="edge">
<title>Node13&#45;&gt;Node14</title>
<path fill="none" stroke="midnightblue" d="M397.33,-224.08C397.59,-217.01 397.97,-206.86 398.3,-197.99"/>
<polygon fill="midnightblue" stroke="midnightblue" points="401.8,-197.87 398.68,-187.75 394.81,-197.61 401.8,-197.87"/>
</g>
<!-- Node14&#45;&gt;Node5 -->
<g id="edge24" class="edge">
<title>Node14&#45;&gt;Node5</title>
<path fill="none" stroke="midnightblue" d="M398.5,-168.28C397.52,-155.51 394.72,-131.16 387,-112 373.78,-79.21 348.57,-46.35 332.56,-27.38"/>
<polygon fill="midnightblue" stroke="midnightblue" points="335.11,-24.98 325.92,-19.69 329.81,-29.55 335.11,-24.98"/>
</g>
<!-- Node14&#45;&gt;Node8 -->
<g id="edge25" class="edge">
<title>Node14&#45;&gt;Node8</title>
<path fill="none" stroke="midnightblue" d="M391.4,-168.08C384.77,-160.3 374.98,-148.8 366.94,-139.37"/>
<polygon fill="midnightblue" stroke="midnightblue" points="369.6,-137.09 360.45,-131.75 364.27,-141.63 369.6,-137.09"/>
</g>
</g>
</svg>
