<?xml version="1.0" encoding="UTF-8" standalone="no"?>
<!DOCTYPE svg PUBLIC "-//W3C//DTD SVG 1.1//EN"
 "http://www.w3.org/Graphics/SVG/1.1/DTD/svg11.dtd">
<!-- Generated by graphviz version 2.44.0 ()
 -->
<!-- Title: src/vmem_set_metasprite_s.c Pages: 1 -->
<svg width="640pt" height="252pt"
 viewBox="0.00 0.00 639.50 252.00" xmlns="http://www.w3.org/2000/svg" xmlns:xlink="http://www.w3.org/1999/xlink">
<g id="graph0" class="graph" transform="scale(1 1) rotate(0) translate(4 248)">
<title>src/vmem_set_metasprite_s.c</title>
<!-- Node1 -->
<g id="node1" class="node">
<title>Node1</title>
<g id="a_node1"><a xlink:title="Copyright (c) 2021 Daishi Mori (mori0091)">
<polygon fill="#bfbfbf" stroke="black" points="70,-224.5 70,-243.5 218,-243.5 218,-224.5 70,-224.5"/>
<text text-anchor="middle" x="144" y="-231.5" font-family="Helvetica,sans-Serif" font-size="10.00">src/vmem_set_metasprite_s.c</text>
</a>
</g>
</g>
<!-- Node2 -->
<g id="node2" class="node">
<title>Node2</title>
<g id="a_node2"><a xlink:href="sprite_8h.html" target="_top" xlink:title="Copyright (c) 2021 Daishi Mori (mori0091)">
<polygon fill="none" stroke="black" points="93.5,-112.5 93.5,-131.5 182.5,-131.5 182.5,-112.5 93.5,-112.5"/>
<text text-anchor="middle" x="138" y="-119.5" font-family="Helvetica,sans-Serif" font-size="10.00">../include/sprite.h</text>
</a>
</g>
</g>
<!-- Node1&#45;&gt;Node2 -->
<g id="edge1" class="edge">
<title>Node1&#45;&gt;Node2</title>
<path fill="none" stroke="midnightblue" d="M143.53,-224.37C142.56,-206.62 140.33,-165.67 139.01,-141.6"/>
<polygon fill="midnightblue" stroke="midnightblue" points="142.51,-141.39 138.47,-131.59 135.52,-141.77 142.51,-141.39"/>
</g>
<!-- Node6 -->
<g id="node6" class="node">
<title>Node6</title>
<g id="a_node6"><a xlink:href="sprite__color_8h.html" target="_top" xlink:title="Copyright (c) 2021 Daishi Mori (mori0091)">
<polygon fill="none" stroke="black" points="0,-168.5 0,-187.5 116,-187.5 116,-168.5 0,-168.5"/>
<text text-anchor="middle" x="58" y="-175.5" font-family="Helvetica,sans-Serif" font-size="10.00">../include/sprite_color.h</text>
</a>
</g>
</g>
<!-- Node1&#45;&gt;Node6 -->
<g id="edge6" class="edge">
<title>Node1&#45;&gt;Node6</title>
<path fill="none" stroke="midnightblue" d="M130.18,-224.32C116.77,-215.9 96.18,-202.97 80.41,-193.07"/>
<polygon fill="midnightblue" stroke="midnightblue" points="82.11,-190.01 71.78,-187.65 78.39,-195.94 82.11,-190.01"/>
</g>
<!-- Node7 -->
<g id="node7" class="node">
<title>Node7</title>
<g id="a_node7"><a xlink:href="metasprite_8h.html" target="_top" xlink:title="Copyright (c) 2021 Daishi Mori (mori0091)">
<polygon fill="none" stroke="black" points="172.5,-168.5 172.5,-187.5 283.5,-187.5 283.5,-168.5 172.5,-168.5"/>
<text text-anchor="middle" x="228" y="-175.5" font-family="Helvetica,sans-Serif" font-size="10.00">../include/metasprite.h</text>
</a>
</g>
</g>
<!-- Node1&#45;&gt;Node7 -->
<g id="edge10" class="edge">
<title>Node1&#45;&gt;Node7</title>
<path fill="none" stroke="midnightblue" d="M157.5,-224.32C170.6,-215.9 190.71,-202.97 206.11,-193.07"/>
<polygon fill="midnightblue" stroke="midnightblue" points="208.02,-196.01 214.54,-187.65 204.23,-190.12 208.02,-196.01"/>
</g>
<!-- Node3 -->
<g id="node3" class="node">
<title>Node3</title>
<g id="a_node3"><a xlink:title=" ">
<polygon fill="none" stroke="#bfbfbf" points="220,-0.5 220,-19.5 268,-19.5 268,-0.5 220,-0.5"/>
<text text-anchor="middle" x="244" y="-7.5" font-family="Helvetica,sans-Serif" font-size="10.00">stdint.h</text>
</a>
</g>
</g>
<!-- Node2&#45;&gt;Node3 -->
<g id="edge2" class="edge">
<title>Node2&#45;&gt;Node3</title>
<path fill="none" stroke="midnightblue" d="M141.59,-112.18C147.34,-98.84 159.65,-73.28 176,-56 188.01,-43.3 204.26,-32.38 217.86,-24.48"/>
<polygon fill="midnightblue" stroke="midnightblue" points="219.75,-27.44 226.77,-19.51 216.33,-21.32 219.75,-27.44"/>
</g>
<!-- Node4 -->
<g id="node4" class="node">
<title>Node4</title>
<g id="a_node4"><a xlink:href="vmem_8h.html" target="_top" xlink:title="Data types and functions for VRAM access.">
<polygon fill="none" stroke="black" points="218.5,-56.5 218.5,-75.5 269.5,-75.5 269.5,-56.5 218.5,-56.5"/>
<text text-anchor="middle" x="244" y="-63.5" font-family="Helvetica,sans-Serif" font-size="10.00">vmem.h</text>
</a>
</g>
</g>
<!-- Node2&#45;&gt;Node4 -->
<g id="edge3" class="edge">
<title>Node2&#45;&gt;Node4</title>
<path fill="none" stroke="midnightblue" d="M155.03,-112.32C172.03,-103.66 198.38,-90.24 217.99,-80.25"/>
<polygon fill="midnightblue" stroke="midnightblue" points="219.69,-83.31 227.01,-75.65 216.51,-77.08 219.69,-83.31"/>
</g>
<!-- Node4&#45;&gt;Node3 -->
<g id="edge4" class="edge">
<title>Node4&#45;&gt;Node3</title>
<path fill="none" stroke="midnightblue" d="M244,-56.08C244,-49.01 244,-38.86 244,-29.99"/>
<polygon fill="midnightblue" stroke="midnightblue" points="247.5,-29.75 244,-19.75 240.5,-29.75 247.5,-29.75"/>
</g>
<!-- Node5 -->
<g id="node5" class="node">
<title>Node5</title>
<g id="a_node5"><a xlink:href="io_8h.html" target="_top" xlink:title="Copyright (c) 2021 Daishi Mori (mori0091)">
<polygon fill="none" stroke="black" points="411,-0.5 411,-19.5 443,-19.5 443,-0.5 411,-0.5"/>
<text text-anchor="middle" x="427" y="-7.5" font-family="Helvetica,sans-Serif" font-size="10.00">io.h</text>
</a>
</g>
</g>
<!-- Node4&#45;&gt;Node5 -->
<g id="edge5" class="edge">
<title>Node4&#45;&gt;Node5</title>
<path fill="none" stroke="midnightblue" d="M269.83,-57.38C304.47,-47.16 365.66,-29.1 400.6,-18.79"/>
<polygon fill="midnightblue" stroke="midnightblue" points="401.94,-22.05 410.54,-15.86 399.95,-15.33 401.94,-22.05"/>
</g>
<!-- Node6&#45;&gt;Node2 -->
<g id="edge8" class="edge">
<title>Node6&#45;&gt;Node2</title>
<path fill="none" stroke="midnightblue" d="M70.85,-168.32C83.22,-159.98 102.13,-147.21 116.74,-137.35"/>
<polygon fill="midnightblue" stroke="midnightblue" points="118.85,-140.15 125.18,-131.65 114.93,-134.35 118.85,-140.15"/>
</g>
<!-- Node6&#45;&gt;Node3 -->
<g id="edge7" class="edge">
<title>Node6&#45;&gt;Node3</title>
<path fill="none" stroke="midnightblue" d="M56.83,-168.22C55.52,-154.94 54.86,-129.44 66,-112 99.04,-60.27 168.55,-32.36 210.26,-19.68"/>
<polygon fill="midnightblue" stroke="midnightblue" points="211.35,-23.01 219.97,-16.85 209.39,-16.29 211.35,-23.01"/>
</g>
<!-- Node6&#45;&gt;Node4 -->
<g id="edge9" class="edge">
<title>Node6&#45;&gt;Node4</title>
<path fill="none" stroke="midnightblue" d="M59.14,-168.46C61.46,-154.57 68.01,-127.1 85,-112 119.3,-81.52 172.81,-71.56 208.14,-68.38"/>
<polygon fill="midnightblue" stroke="midnightblue" points="208.77,-71.84 218.47,-67.59 208.24,-64.86 208.77,-71.84"/>
</g>
<!-- Node7&#45;&gt;Node2 -->
<g id="edge23" class="edge">
<title>Node7&#45;&gt;Node2</title>
<path fill="none" stroke="midnightblue" d="M213.54,-168.32C199.5,-159.9 177.95,-146.97 161.46,-137.07"/>
<polygon fill="midnightblue" stroke="midnightblue" points="162.8,-133.8 152.42,-131.65 159.2,-139.8 162.8,-133.8"/>
</g>
<!-- Node7&#45;&gt;Node3 -->
<g id="edge11" class="edge">
<title>Node7&#45;&gt;Node3</title>
<path fill="none" stroke="midnightblue" d="M223.99,-168.25C215.27,-147.98 196.43,-96.47 210,-56 213.6,-45.25 220.9,-35.02 227.82,-27.04"/>
<polygon fill="midnightblue" stroke="midnightblue" points="230.48,-29.32 234.71,-19.61 225.35,-24.56 230.48,-29.32"/>
</g>
<!-- Node7&#45;&gt;Node4 -->
<g id="edge22" class="edge">
<title>Node7&#45;&gt;Node4</title>
<path fill="none" stroke="midnightblue" d="M229.26,-168.37C231.84,-150.62 237.79,-109.67 241.29,-85.6"/>
<polygon fill="midnightblue" stroke="midnightblue" points="244.77,-85.99 242.75,-75.59 237.85,-84.98 244.77,-85.99"/>
</g>
<!-- Node8 -->
<g id="node8" class="node">
<title>Node8</title>
<g id="a_node8"><a xlink:href="vdp_8h.html" target="_top" xlink:title="Data types and functions for VDP (Video Display Proccessor) access.">
<polygon fill="none" stroke="black" points="404,-112.5 404,-131.5 444,-131.5 444,-112.5 404,-112.5"/>
<text text-anchor="middle" x="424" y="-119.5" font-family="Helvetica,sans-Serif" font-size="10.00">vdp.h</text>
</a>
</g>
</g>
<!-- Node7&#45;&gt;Node8 -->
<g id="edge12" class="edge">
<title>Node7&#45;&gt;Node8</title>
<path fill="none" stroke="midnightblue" d="M259.06,-168.44C296,-158.27 357.24,-141.39 393.8,-131.32"/>
<polygon fill="midnightblue" stroke="midnightblue" points="395.15,-134.58 403.86,-128.55 393.29,-127.83 395.15,-134.58"/>
</g>
<!-- Node8&#45;&gt;Node3 -->
<g id="edge15" class="edge">
<title>Node8&#45;&gt;Node3</title>
<path fill="none" stroke="midnightblue" d="M429.22,-112.39C436.67,-98.87 448.07,-72.51 435,-56 415.8,-31.75 327.74,-19.26 278.17,-14.05"/>
<polygon fill="midnightblue" stroke="midnightblue" points="278.51,-10.57 268.21,-13.05 277.81,-17.53 278.51,-10.57"/>
</g>
<!-- Node8&#45;&gt;Node4 -->
<g id="edge17" class="edge">
<title>Node8&#45;&gt;Node4</title>
<path fill="none" stroke="midnightblue" d="M403.7,-114.91C373.61,-105.88 316.75,-88.83 279.63,-77.69"/>
<polygon fill="midnightblue" stroke="midnightblue" points="280.3,-74.24 269.72,-74.72 278.29,-80.94 280.3,-74.24"/>
</g>
<!-- Node8&#45;&gt;Node5 -->
<g id="edge16" class="edge">
<title>Node8&#45;&gt;Node5</title>
<path fill="none" stroke="midnightblue" d="M444.29,-119.22C469.96,-115.76 513.19,-105.61 533,-76 555,-43.12 491.17,-24 453.13,-15.8"/>
<polygon fill="midnightblue" stroke="midnightblue" points="453.68,-12.34 443.18,-13.77 452.28,-19.19 453.68,-12.34"/>
</g>
<!-- Node9 -->
<g id="node9" class="node">
<title>Node9</title>
<g id="a_node9"><a xlink:title=" ">
<polygon fill="none" stroke="#bfbfbf" points="580.5,-56.5 580.5,-75.5 631.5,-75.5 631.5,-56.5 580.5,-56.5"/>
<text text-anchor="middle" x="606" y="-63.5" font-family="Helvetica,sans-Serif" font-size="10.00">assert.h</text>
</a>
</g>
</g>
<!-- Node8&#45;&gt;Node9 -->
<g id="edge13" class="edge">
<title>Node8&#45;&gt;Node9</title>
<path fill="none" stroke="midnightblue" d="M444.17,-115.01C474.63,-105.98 532.78,-88.72 570.45,-77.55"/>
<polygon fill="midnightblue" stroke="midnightblue" points="571.9,-80.77 580.49,-74.57 569.91,-74.06 571.9,-80.77"/>
</g>
<!-- Node10 -->
<g id="node10" class="node">
<title>Node10</title>
<g id="a_node10"><a xlink:title=" ">
<polygon fill="none" stroke="#bfbfbf" points="288,-56.5 288,-75.5 344,-75.5 344,-56.5 288,-56.5"/>
<text text-anchor="middle" x="316" y="-63.5" font-family="Helvetica,sans-Serif" font-size="10.00">stdbool.h</text>
</a>
</g>
</g>
<!-- Node8&#45;&gt;Node10 -->
<g id="edge14" class="edge">
<title>Node8&#45;&gt;Node10</title>
<path fill="none" stroke="midnightblue" d="M406.65,-112.32C389.33,-103.66 362.48,-90.24 342.5,-80.25"/>
<polygon fill="midnightblue" stroke="midnightblue" points="343.82,-77 333.31,-75.65 340.69,-83.26 343.82,-77"/>
</g>
<!-- Node11 -->
<g id="node11" class="node">
<title>Node11</title>
<g id="a_node11"><a xlink:href="bios_8h.html" target="_top" xlink:title="Copyright (c) 2021 Daishi Mori (mori0091)">
<polygon fill="none" stroke="black" points="482,-56.5 482,-75.5 524,-75.5 524,-56.5 482,-56.5"/>
<text text-anchor="middle" x="503" y="-63.5" font-family="Helvetica,sans-Serif" font-size="10.00">bios.h</text>
</a>
</g>
</g>
<!-- Node8&#45;&gt;Node11 -->
<g id="edge18" class="edge">
<title>Node8&#45;&gt;Node11</title>
<path fill="none" stroke="midnightblue" d="M436.69,-112.32C448.9,-103.98 467.58,-91.21 482,-81.35"/>
<polygon fill="midnightblue" stroke="midnightblue" points="484.06,-84.19 490.34,-75.65 480.11,-78.41 484.06,-84.19"/>
</g>
<!-- Node12 -->
<g id="node12" class="node">
<title>Node12</title>
<g id="a_node12"><a xlink:href="workarea_8h.html" target="_top" xlink:title="Copyright (c) 2021 Daishi Mori (mori0091)">
<polygon fill="none" stroke="black" points="362,-56.5 362,-75.5 426,-75.5 426,-56.5 362,-56.5"/>
<text text-anchor="middle" x="394" y="-63.5" font-family="Helvetica,sans-Serif" font-size="10.00">workarea.h</text>
</a>
</g>
</g>
<!-- Node8&#45;&gt;Node12 -->
<g id="edge20" class="edge">
<title>Node8&#45;&gt;Node12</title>
<path fill="none" stroke="midnightblue" d="M419.05,-112.08C414.9,-104.61 408.85,-93.72 403.73,-84.52"/>
<polygon fill="midnightblue" stroke="midnightblue" points="406.78,-82.79 398.86,-75.75 400.66,-86.19 406.78,-82.79"/>
</g>
<!-- Node11&#45;&gt;Node3 -->
<g id="edge19" class="edge">
<title>Node11&#45;&gt;Node3</title>
<path fill="none" stroke="midnightblue" d="M481.95,-59.39C477.36,-58.22 472.53,-57.04 468,-56 401.06,-40.68 322.22,-25.5 278.18,-17.28"/>
<polygon fill="midnightblue" stroke="midnightblue" points="278.76,-13.83 268.29,-15.44 277.48,-20.71 278.76,-13.83"/>
</g>
<!-- Node12&#45;&gt;Node3 -->
<g id="edge21" class="edge">
<title>Node12&#45;&gt;Node3</title>
<path fill="none" stroke="midnightblue" d="M370.23,-56.44C345.11,-47.4 305.29,-33.06 277.1,-22.92"/>
<polygon fill="midnightblue" stroke="midnightblue" points="278.25,-19.61 267.66,-19.52 275.88,-26.2 278.25,-19.61"/>
</g>
</g>
</svg>
