<?xml version="1.0" encoding="UTF-8" standalone="no"?>
<!DOCTYPE svg PUBLIC "-//W3C//DTD SVG 1.1//EN"
 "http://www.w3.org/Graphics/SVG/1.1/DTD/svg11.dtd">
<!-- Generated by graphviz version 7.0.5 (20221223.1930)
 -->
<!-- Title: include/vmem.h Pages: 1 -->
<svg width="830pt" height="247pt"
 viewBox="0.00 0.00 829.66 247.00" xmlns="http://www.w3.org/2000/svg" xmlns:xlink="http://www.w3.org/1999/xlink">
<g id="graph0" class="graph" transform="scale(1 1) rotate(0) translate(4 243)">
<title>include/vmem.h</title>
<!-- Node1 -->
<g id="node1" class="node">
<title>Node1</title>
<g id="a_node1"><a xlink:title="Data types and functions for VRAM access.">
<polygon fill="#999999" stroke="#666666" points="640.5,-239 555.5,-239 555.5,-220 640.5,-220 640.5,-239"/>
<text text-anchor="middle" x="598" y="-227" font-family="Helvetica,sans-Serif" font-size="10.00">include/vmem.h</text>
</a>
</g>
</g>
<!-- Node2 -->
<g id="node2" class="node">
<title>Node2</title>
<g id="a_node2"><a xlink:href="ZX0__decompress_8h.html" target="_top" xlink:title="Decompressor of the ZX0 data compression format version 2.">
<polygon fill="white" stroke="#666666" points="134,-129 0,-129 0,-110 134,-110 134,-129"/>
<text text-anchor="middle" x="67" y="-117" font-family="Helvetica,sans-Serif" font-size="10.00">include/ZX0_decompress.h</text>
</a>
</g>
</g>
<!-- Node1&#45;&gt;Node2 -->
<g id="edge1" class="edge">
<title>Node1&#45;&gt;Node2</title>
<path fill="none" stroke="#63b8ff" d="M544.15,-224.48C477.17,-218.78 359.59,-206.44 261,-184 197.59,-169.57 125.41,-143.2 89.61,-129.42"/>
<polygon fill="#63b8ff" stroke="#63b8ff" points="543.49,-227.94 553.75,-225.28 544.08,-220.96 543.49,-227.94"/>
</g>
<!-- Node3 -->
<g id="node3" class="node">
<title>Node3</title>
<g id="a_node3"><a xlink:href="bmem_8h.html" target="_top" xlink:title="Data types and functions for accessing banked memory.">
<polygon fill="white" stroke="#666666" points="355.5,-184 270.5,-184 270.5,-165 355.5,-165 355.5,-184"/>
<text text-anchor="middle" x="313" y="-172" font-family="Helvetica,sans-Serif" font-size="10.00">include/bmem.h</text>
</a>
</g>
</g>
<!-- Node1&#45;&gt;Node3 -->
<g id="edge2" class="edge">
<title>Node1&#45;&gt;Node3</title>
<path fill="none" stroke="#63b8ff" d="M543.83,-218.43C489.22,-208.27 406.04,-192.8 355.86,-183.47"/>
<polygon fill="#63b8ff" stroke="#63b8ff" points="543.06,-221.84 553.54,-220.23 544.34,-214.96 543.06,-221.84"/>
</g>
<!-- Node9 -->
<g id="node9" class="node">
<title>Node9</title>
<g id="a_node9"><a xlink:href="metasprite_8h.html" target="_top" xlink:title="Meta&#45;sprite ; an aggregate of sprites.">
<polygon fill="white" stroke="#666666" points="759,-74 655,-74 655,-55 759,-55 759,-74"/>
<text text-anchor="middle" x="707" y="-62" font-family="Helvetica,sans-Serif" font-size="10.00">include/metasprite.h</text>
</a>
</g>
</g>
<!-- Node1&#45;&gt;Node9 -->
<g id="edge9" class="edge">
<title>Node1&#45;&gt;Node9</title>
<path fill="none" stroke="#63b8ff" d="M610.28,-210.35C623.76,-190.43 645.99,-157.49 665,-129 678.06,-109.43 693.26,-86.38 701.32,-74.14"/>
<polygon fill="#63b8ff" stroke="#63b8ff" points="607.49,-208.23 604.79,-218.48 613.29,-212.16 607.49,-208.23"/>
</g>
<!-- Node10 -->
<g id="node10" class="node">
<title>Node10</title>
<g id="a_node10"><a xlink:href="msx_8h.html" target="_top" xlink:title="Using #include &lt;msx.h&gt; includes almost all C header files in libmsx, for ease to use.">
<polygon fill="white" stroke="#666666" points="745,-19 669,-19 669,0 745,0 745,-19"/>
<text text-anchor="middle" x="707" y="-7" font-family="Helvetica,sans-Serif" font-size="10.00">include/msx.h</text>
</a>
</g>
</g>
<!-- Node1&#45;&gt;Node10 -->
<g id="edge11" class="edge">
<title>Node1&#45;&gt;Node10</title>
<path fill="none" stroke="#63b8ff" d="M651.89,-223.28C704.14,-217.08 778.31,-204.84 798,-184 837.57,-142.11 822.84,-98.46 785,-55 770.67,-38.54 748.68,-26.77 731.7,-19.49"/>
<polygon fill="#63b8ff" stroke="#63b8ff" points="651.82,-219.77 642.28,-224.38 652.61,-226.72 651.82,-219.77"/>
</g>
<!-- Node11 -->
<g id="node11" class="node">
<title>Node11</title>
<g id="a_node11"><a xlink:href="sprite_8h.html" target="_top" xlink:title="Sprites.">
<polygon fill="white" stroke="#666666" points="656,-129 574,-129 574,-110 656,-110 656,-129"/>
<text text-anchor="middle" x="615" y="-117" font-family="Helvetica,sans-Serif" font-size="10.00">include/sprite.h</text>
</a>
</g>
</g>
<!-- Node1&#45;&gt;Node11 -->
<g id="edge12" class="edge">
<title>Node1&#45;&gt;Node11</title>
<path fill="none" stroke="#63b8ff" d="M601.14,-208.57C604.85,-184.98 610.87,-146.73 613.59,-129.46"/>
<polygon fill="#63b8ff" stroke="#63b8ff" points="597.72,-207.74 599.63,-218.17 604.64,-208.83 597.72,-207.74"/>
</g>
<!-- Node12 -->
<g id="node12" class="node">
<title>Node12</title>
<g id="a_node12"><a xlink:href="sprite__color_8h.html" target="_top" xlink:title="Sprite color table interface.">
<polygon fill="white" stroke="#666666" points="599,-74 491,-74 491,-55 599,-55 599,-74"/>
<text text-anchor="middle" x="545" y="-62" font-family="Helvetica,sans-Serif" font-size="10.00">include/sprite_color.h</text>
</a>
</g>
</g>
<!-- Node1&#45;&gt;Node12 -->
<g id="edge17" class="edge">
<title>Node1&#45;&gt;Node12</title>
<path fill="none" stroke="#63b8ff" d="M591.42,-208.95C584.7,-188.91 573.99,-156.82 565,-129 558.67,-109.42 551.47,-86.37 547.68,-74.14"/>
<polygon fill="#63b8ff" stroke="#63b8ff" points="588.06,-209.93 594.56,-218.3 594.69,-207.7 588.06,-209.93"/>
</g>
<!-- Node13 -->
<g id="node13" class="node">
<title>Node13</title>
<g id="a_node13"><a xlink:href="vdp_8h.html" target="_top" xlink:title="Data types and functions for VDP (Video Display Proccessor) access.">
<polygon fill="white" stroke="#666666" points="798,-129 724,-129 724,-110 798,-110 798,-129"/>
<text text-anchor="middle" x="761" y="-117" font-family="Helvetica,sans-Serif" font-size="10.00">include/vdp.h</text>
</a>
</g>
</g>
<!-- Node1&#45;&gt;Node13 -->
<g id="edge18" class="edge">
<title>Node1&#45;&gt;Node13</title>
<path fill="none" stroke="#63b8ff" d="M651.89,-222.73C699.97,-216.33 765.15,-204.17 781,-184 794,-167.46 778.41,-142.34 768.31,-129.2"/>
<polygon fill="#63b8ff" stroke="#63b8ff" points="651.67,-219.23 642.2,-223.96 652.56,-226.17 651.67,-219.23"/>
</g>
<!-- Node14 -->
<g id="node14" class="node">
<title>Node14</title>
<g id="a_node14"><a xlink:href="vdp__unsafe_8h.html" target="_top" xlink:title="Unsafe primitive functions for VDP (Video Display Proccessor) access.">
<polygon fill="white" stroke="#666666" points="772,-184 664,-184 664,-165 772,-165 772,-184"/>
<text text-anchor="middle" x="718" y="-172" font-family="Helvetica,sans-Serif" font-size="10.00">include/vdp_unsafe.h</text>
</a>
</g>
</g>
<!-- Node1&#45;&gt;Node14 -->
<g id="edge21" class="edge">
<title>Node1&#45;&gt;Node14</title>
<path fill="none" stroke="#63b8ff" d="M628.72,-214.93C650.49,-205.32 679.05,-192.7 697.94,-184.36"/>
<polygon fill="#63b8ff" stroke="#63b8ff" points="627.47,-211.66 619.74,-218.9 630.3,-218.06 627.47,-211.66"/>
</g>
<!-- Node15 -->
<g id="node15" class="node">
<title>Node15</title>
<g id="a_node15"><a xlink:href="vmem__rw_8h.html" target="_top" xlink:title="Stream like access functions for VRAM.">
<polygon fill="white" stroke="#666666" points="517.5,-184 416.5,-184 416.5,-165 517.5,-165 517.5,-184"/>
<text text-anchor="middle" x="467" y="-172" font-family="Helvetica,sans-Serif" font-size="10.00">include/vmem_rw.h</text>
</a>
</g>
</g>
<!-- Node1&#45;&gt;Node15 -->
<g id="edge23" class="edge">
<title>Node1&#45;&gt;Node15</title>
<path fill="none" stroke="#63b8ff" d="M565.11,-215.19C541.27,-205.55 509.7,-192.78 488.89,-184.36"/>
<polygon fill="#63b8ff" stroke="#63b8ff" points="563.79,-218.44 574.37,-218.94 566.42,-211.95 563.79,-218.44"/>
</g>
<!-- Node3&#45;&gt;Node2 -->
<g id="edge3" class="edge">
<title>Node3&#45;&gt;Node2</title>
<path fill="none" stroke="#63b8ff" d="M260.17,-162.12C214.8,-152.34 150.28,-138.44 108.52,-129.45"/>
<polygon fill="#63b8ff" stroke="#63b8ff" points="259.28,-165.51 269.79,-164.19 260.75,-158.66 259.28,-165.51"/>
</g>
<!-- Node4 -->
<g id="node4" class="node">
<title>Node4</title>
<g id="a_node4"><a xlink:href="bmem__rd_8h.html" target="_top" xlink:title="Stream like access functions for Banked Memory.">
<polygon fill="white" stroke="#666666" points="480,-129 382,-129 382,-110 480,-110 480,-129"/>
<text text-anchor="middle" x="431" y="-117" font-family="Helvetica,sans-Serif" font-size="10.00">include/bmem_rd.h</text>
</a>
</g>
</g>
<!-- Node3&#45;&gt;Node4 -->
<g id="edge4" class="edge">
<title>Node3&#45;&gt;Node4</title>
<path fill="none" stroke="#63b8ff" d="M343.51,-159.8C364.87,-150.2 392.79,-137.66 411.28,-129.36"/>
<polygon fill="#63b8ff" stroke="#63b8ff" points="342.09,-156.6 334.4,-163.89 344.95,-162.98 342.09,-156.6"/>
</g>
<!-- Node6 -->
<g id="node6" class="node">
<title>Node6</title>
<g id="a_node6"><a xlink:href="memfile_8h.html" target="_top" xlink:title="Stream interface for ROM / RAM / MegaROM.">
<polygon fill="white" stroke="#666666" points="244,-129 152,-129 152,-110 244,-110 244,-129"/>
<text text-anchor="middle" x="198" y="-117" font-family="Helvetica,sans-Serif" font-size="10.00">include/memfile.h</text>
</a>
</g>
</g>
<!-- Node3&#45;&gt;Node6 -->
<g id="edge6" class="edge">
<title>Node3&#45;&gt;Node6</title>
<path fill="none" stroke="#63b8ff" d="M283.27,-159.8C262.45,-150.2 235.24,-137.66 217.22,-129.36"/>
<polygon fill="#63b8ff" stroke="#63b8ff" points="281.57,-162.87 292.12,-163.88 284.5,-156.51 281.57,-162.87"/>
</g>
<!-- Node8 -->
<g id="node8" class="node">
<title>Node8</title>
<g id="a_node8"><a xlink:href="resources_8h.html" target="_top" xlink:title="Data types and functions for accessing embedded resources.">
<polygon fill="white" stroke="#666666" points="363.5,-129 262.5,-129 262.5,-110 363.5,-110 363.5,-129"/>
<text text-anchor="middle" x="313" y="-117" font-family="Helvetica,sans-Serif" font-size="10.00">include/resources.h</text>
</a>
</g>
</g>
<!-- Node3&#45;&gt;Node8 -->
<g id="edge8" class="edge">
<title>Node3&#45;&gt;Node8</title>
<path fill="none" stroke="#63b8ff" d="M313,-153.35C313,-145.1 313,-135.97 313,-129.44"/>
<polygon fill="#63b8ff" stroke="#63b8ff" points="309.5,-153.23 313,-163.23 316.5,-153.23 309.5,-153.23"/>
</g>
<!-- Node5 -->
<g id="node5" class="node">
<title>Node5</title>
<g id="a_node5"><a xlink:href="xmem_8h.html" target="_top" xlink:title="Inter&#45;memory transfer functions for ROM / RAM, VRAM, and Banked Memory (MegaROM).">
<polygon fill="white" stroke="#666666" points="473,-74 389,-74 389,-55 473,-55 473,-74"/>
<text text-anchor="middle" x="431" y="-62" font-family="Helvetica,sans-Serif" font-size="10.00">include/xmem.h</text>
</a>
</g>
</g>
<!-- Node4&#45;&gt;Node5 -->
<g id="edge5" class="edge">
<title>Node4&#45;&gt;Node5</title>
<path fill="none" stroke="#63b8ff" d="M431,-98.35C431,-90.1 431,-80.97 431,-74.44"/>
<polygon fill="#63b8ff" stroke="#63b8ff" points="427.5,-98.23 431,-108.23 434.5,-98.23 427.5,-98.23"/>
</g>
<!-- Node7 -->
<g id="node7" class="node">
<title>Node7</title>
<g id="a_node7"><a xlink:href="audio__buf_8h.html" target="_top" xlink:title="Unified sound&#45;chip buffer of the libmsx audio replayer.">
<polygon fill="white" stroke="#666666" points="248,-74 148,-74 148,-55 248,-55 248,-74"/>
<text text-anchor="middle" x="198" y="-62" font-family="Helvetica,sans-Serif" font-size="10.00">include/audio_buf.h</text>
</a>
</g>
</g>
<!-- Node6&#45;&gt;Node7 -->
<g id="edge7" class="edge">
<title>Node6&#45;&gt;Node7</title>
<path fill="none" stroke="#63b8ff" d="M198,-98.35C198,-90.1 198,-80.97 198,-74.44"/>
<polygon fill="#63b8ff" stroke="#63b8ff" points="194.5,-98.23 198,-108.23 201.5,-98.23 194.5,-98.23"/>
</g>
<!-- Node9&#45;&gt;Node10 -->
<g id="edge10" class="edge">
<title>Node9&#45;&gt;Node10</title>
<path fill="none" stroke="#63b8ff" d="M707,-43.35C707,-35.1 707,-25.97 707,-19.44"/>
<polygon fill="#63b8ff" stroke="#63b8ff" points="703.5,-43.23 707,-53.23 710.5,-43.23 703.5,-43.23"/>
</g>
<!-- Node11&#45;&gt;Node9 -->
<g id="edge13" class="edge">
<title>Node11&#45;&gt;Node9</title>
<path fill="none" stroke="#63b8ff" d="M640.17,-104C656.63,-94.52 677.6,-82.43 691.62,-74.36"/>
<polygon fill="#63b8ff" stroke="#63b8ff" points="638.84,-100.73 631.92,-108.75 642.33,-106.79 638.84,-100.73"/>
</g>
<!-- Node11&#45;&gt;Node10 -->
<g id="edge14" class="edge">
<title>Node11&#45;&gt;Node10</title>
<path fill="none" stroke="#63b8ff" d="M621.62,-99.09C626.83,-85.72 635.03,-68.09 646,-55 658.54,-40.03 677.15,-27.41 690.51,-19.48"/>
<polygon fill="#63b8ff" stroke="#63b8ff" points="618.48,-97.49 618.34,-108.09 625.05,-99.89 618.48,-97.49"/>
</g>
<!-- Node11&#45;&gt;Node12 -->
<g id="edge15" class="edge">
<title>Node11&#45;&gt;Node12</title>
<path fill="none" stroke="#63b8ff" d="M594.05,-102.64C581.83,-93.39 566.86,-82.05 556.7,-74.36"/>
<polygon fill="#63b8ff" stroke="#63b8ff" points="591.83,-105.35 601.92,-108.6 596.06,-99.77 591.83,-105.35"/>
</g>
<!-- Node12&#45;&gt;Node10 -->
<g id="edge16" class="edge">
<title>Node12&#45;&gt;Node10</title>
<path fill="none" stroke="#63b8ff" d="M583.26,-50.98C612.89,-41.29 653.21,-28.1 679.65,-19.45"/>
<polygon fill="#63b8ff" stroke="#63b8ff" points="582.34,-47.6 573.92,-54.04 584.51,-54.26 582.34,-47.6"/>
</g>
<!-- Node13&#45;&gt;Node9 -->
<g id="edge19" class="edge">
<title>Node13&#45;&gt;Node9</title>
<path fill="none" stroke="#63b8ff" d="M743.96,-101.78C734.74,-92.72 723.71,-81.9 716.11,-74.44"/>
<polygon fill="#63b8ff" stroke="#63b8ff" points="741.41,-104.18 751,-108.69 746.32,-99.19 741.41,-104.18"/>
</g>
<!-- Node13&#45;&gt;Node10 -->
<g id="edge20" class="edge">
<title>Node13&#45;&gt;Node10</title>
<path fill="none" stroke="#63b8ff" d="M768.53,-99.11C772.37,-85.98 774.93,-68.63 768,-55 759.62,-38.52 741.97,-26.7 727.8,-19.4"/>
<polygon fill="#63b8ff" stroke="#63b8ff" points="765.3,-97.71 765.37,-108.31 771.93,-99.99 765.3,-97.71"/>
</g>
<!-- Node14&#45;&gt;Node13 -->
<g id="edge22" class="edge">
<title>Node14&#45;&gt;Node13</title>
<path fill="none" stroke="#63b8ff" d="M732.25,-155.93C739.45,-147.06 747.88,-136.67 753.75,-129.44"/>
<polygon fill="#63b8ff" stroke="#63b8ff" points="729.64,-153.6 726.05,-163.57 735.07,-158.01 729.64,-153.6"/>
</g>
<!-- Node15&#45;&gt;Node5 -->
<g id="edge24" class="edge">
<title>Node15&#45;&gt;Node5</title>
<path fill="none" stroke="#63b8ff" d="M480.83,-155.35C488.92,-142.38 496.25,-124.7 489,-110 481.03,-93.84 464.06,-81.91 450.52,-74.5"/>
<polygon fill="#63b8ff" stroke="#63b8ff" points="478.11,-153.13 475.3,-163.35 483.87,-157.11 478.11,-153.13"/>
</g>
</g>
</svg>
