<?xml version="1.0" encoding="UTF-8" standalone="no"?>
<!DOCTYPE svg PUBLIC "-//W3C//DTD SVG 1.1//EN"
 "http://www.w3.org/Graphics/SVG/1.1/DTD/svg11.dtd">
<!-- Generated by graphviz version 2.44.0 ()
 -->
<!-- Title: include/vmem.h Pages: 1 -->
<svg width="5207pt" height="218pt"
 viewBox="0.00 0.00 5207.16 218.00" xmlns="http://www.w3.org/2000/svg" xmlns:xlink="http://www.w3.org/1999/xlink">
<g id="graph0" class="graph" transform="scale(1 1) rotate(0) translate(4 214)">
<title>include/vmem.h</title>
<!-- Node1 -->
<g id="node1" class="node">
<title>Node1</title>
<g id="a_node1"><a xlink:title="Copyright (c) 2021 Daishi Mori (mori0091)">
<polygon fill="#bfbfbf" stroke="black" points="840.47,-190.5 840.47,-209.5 925.47,-209.5 925.47,-190.5 840.47,-190.5"/>
<text text-anchor="middle" x="882.97" y="-197.5" font-family="Helvetica,sans-Serif" font-size="10.00">include/vmem.h</text>
</a>
</g>
</g>
<!-- Node2 -->
<g id="node2" class="node">
<title>Node2</title>
<g id="a_node2"><a xlink:href="metasprite_8h.html" target="_top" xlink:title="Copyright (c) 2021 Daishi Mori (mori0091)">
<polygon fill="none" stroke="black" points="680.97,-73 680.97,-92 784.97,-92 784.97,-73 680.97,-73"/>
<text text-anchor="middle" x="732.97" y="-80" font-family="Helvetica,sans-Serif" font-size="10.00">include/metasprite.h</text>
</a>
</g>
</g>
<!-- Node1&#45;&gt;Node2 -->
<g id="edge1" class="edge">
<title>Node1&#45;&gt;Node2</title>
<path fill="none" stroke="midnightblue" d="M863.61,-184.1C831.91,-159.69 769.9,-111.94 744.37,-92.28"/>
<polygon fill="midnightblue" stroke="midnightblue" points="861.63,-186.99 871.69,-190.32 865.9,-181.44 861.63,-186.99"/>
</g>
<!-- Node3 -->
<g id="node3" class="node">
<title>Node3</title>
<g id="a_node3"><a xlink:href="msx_8h.html" target="_top" xlink:title="Copyright (c) 2021 Daishi Mori (mori0091)">
<polygon fill="none" stroke="black" points="482.97,-6 482.97,-25 558.97,-25 558.97,-6 482.97,-6"/>
<text text-anchor="middle" x="520.97" y="-13" font-family="Helvetica,sans-Serif" font-size="10.00">include/msx.h</text>
</a>
</g>
</g>
<!-- Node1&#45;&gt;Node3 -->
<g id="edge6" class="edge">
<title>Node1&#45;&gt;Node3</title>
<path fill="none" stroke="midnightblue" d="M830.13,-196.91C649.48,-189.25 64.55,-159.8 9.97,-98 0.84,-87.67 0.71,-77.21 9.97,-67 25.85,-49.47 366.66,-26.29 482.68,-18.88"/>
<polygon fill="midnightblue" stroke="midnightblue" points="830.05,-200.41 840.18,-197.34 830.34,-193.42 830.05,-200.41"/>
</g>
<!-- Node7 -->
<g id="node7" class="node">
<title>Node7</title>
<g id="a_node7"><a xlink:href="sprite_8h.html" target="_top" xlink:title="Copyright (c) 2021 Daishi Mori (mori0091)">
<polygon fill="none" stroke="black" points="468.97,-134.5 468.97,-153.5 550.97,-153.5 550.97,-134.5 468.97,-134.5"/>
<text text-anchor="middle" x="509.97" y="-141.5" font-family="Helvetica,sans-Serif" font-size="10.00">include/sprite.h</text>
</a>
</g>
</g>
<!-- Node1&#45;&gt;Node7 -->
<g id="edge7" class="edge">
<title>Node1&#45;&gt;Node7</title>
<path fill="none" stroke="midnightblue" d="M830,-191.33C754.92,-180.46 619.13,-160.8 551.12,-150.96"/>
<polygon fill="midnightblue" stroke="midnightblue" points="829.78,-194.84 840.18,-192.81 830.78,-187.91 829.78,-194.84"/>
</g>
<!-- Node8 -->
<g id="node8" class="node">
<title>Node8</title>
<g id="a_node8"><a xlink:href="sprite__color_8h.html" target="_top" xlink:title="Copyright (c) 2021 Daishi Mori (mori0091)">
<polygon fill="none" stroke="black" points="878.97,-73 878.97,-92 986.97,-92 986.97,-73 878.97,-73"/>
<text text-anchor="middle" x="932.97" y="-80" font-family="Helvetica,sans-Serif" font-size="10.00">include/sprite_color.h</text>
</a>
</g>
</g>
<!-- Node1&#45;&gt;Node8 -->
<g id="edge25" class="edge">
<title>Node1&#45;&gt;Node8</title>
<path fill="none" stroke="midnightblue" d="M890.83,-180.84C901.73,-155.66 921.02,-111.1 929.16,-92.28"/>
<polygon fill="midnightblue" stroke="midnightblue" points="887.48,-179.75 886.72,-190.32 893.91,-182.53 887.48,-179.75"/>
</g>
<!-- Node11 -->
<g id="node11" class="node">
<title>Node11</title>
<g id="a_node11"><a xlink:href="vmem__set__sprite__color__s_8c.html" target="_top" xlink:title="Copyright (c) 2021 Daishi Mori (mori0091)">
<polygon fill="none" stroke="black" points="3634.97,-0.5 3634.97,-30.5 3742.97,-30.5 3742.97,-0.5 3634.97,-0.5"/>
<text text-anchor="start" x="3642.97" y="-18.5" font-family="Helvetica,sans-Serif" font-size="10.00">src/vmem_set_sprite</text>
<text text-anchor="middle" x="3688.97" y="-7.5" font-family="Helvetica,sans-Serif" font-size="10.00">_color_s.c</text>
</a>
</g>
</g>
<!-- Node1&#45;&gt;Node11 -->
<g id="edge63" class="edge">
<title>Node1&#45;&gt;Node11</title>
<path fill="none" stroke="midnightblue" d="M935.74,-198.79C1422.47,-196.68 5113.94,-178.11 5191.97,-98 5201.58,-88.13 5201.54,-76.9 5191.97,-67 5140.64,-13.92 4006.07,-15.22 3743.06,-16.24"/>
<polygon fill="midnightblue" stroke="midnightblue" points="935.47,-195.29 925.49,-198.83 935.5,-202.29 935.47,-195.29"/>
</g>
<!-- Node17 -->
<g id="node17" class="node">
<title>Node17</title>
<g id="a_node17"><a xlink:href="vdp_8h.html" target="_top" xlink:title="Copyright (c) 2021 Daishi Mori (mori0091)">
<polygon fill="none" stroke="black" points="2986.97,-134.5 2986.97,-153.5 3060.97,-153.5 3060.97,-134.5 2986.97,-134.5"/>
<text text-anchor="middle" x="3023.97" y="-141.5" font-family="Helvetica,sans-Serif" font-size="10.00">include/vdp.h</text>
</a>
</g>
</g>
<!-- Node1&#45;&gt;Node17 -->
<g id="edge26" class="edge">
<title>Node1&#45;&gt;Node17</title>
<path fill="none" stroke="midnightblue" d="M935.95,-197.66C1237.3,-190.06 2730.9,-152.39 2986.67,-145.94"/>
<polygon fill="midnightblue" stroke="midnightblue" points="935.64,-194.17 925.73,-197.92 935.82,-201.17 935.64,-194.17"/>
</g>
<!-- Node2&#45;&gt;Node3 -->
<g id="edge2" class="edge">
<title>Node2&#45;&gt;Node3</title>
<path fill="none" stroke="midnightblue" d="M695.11,-69.94C661.66,-59.72 611.56,-44.4 567.97,-31 561.76,-29.09 555.1,-27.04 548.8,-25.1"/>
<polygon fill="midnightblue" stroke="midnightblue" points="694.35,-73.37 704.93,-72.94 696.39,-66.67 694.35,-73.37"/>
</g>
<!-- Node4 -->
<g id="node4" class="node">
<title>Node4</title>
<g id="a_node4"><a xlink:href="vmem__set__metasprite__a_8c.html" target="_top" xlink:title="Copyright (c) 2021 Daishi Mori (mori0091)">
<polygon fill="none" stroke="black" points="116.97,-6 116.97,-25 264.97,-25 264.97,-6 116.97,-6"/>
<text text-anchor="middle" x="190.97" y="-13" font-family="Helvetica,sans-Serif" font-size="10.00">src/vmem_set_metasprite_a.c</text>
</a>
</g>
</g>
<!-- Node2&#45;&gt;Node4 -->
<g id="edge3" class="edge">
<title>Node2&#45;&gt;Node4</title>
<path fill="none" stroke="midnightblue" d="M670.76,-72.08C658.57,-70.32 645.87,-68.55 633.97,-67 504.43,-50.14 353.18,-33.56 265.12,-24.22"/>
<polygon fill="midnightblue" stroke="midnightblue" points="670.46,-75.57 680.86,-73.55 671.47,-68.65 670.46,-75.57"/>
</g>
<!-- Node5 -->
<g id="node5" class="node">
<title>Node5</title>
<g id="a_node5"><a xlink:href="vmem__set__metasprite__m_8c.html" target="_top" xlink:title="Copyright (c) 2021 Daishi Mori (mori0091)">
<polygon fill="none" stroke="black" points="577.47,-6 577.47,-25 728.47,-25 728.47,-6 577.47,-6"/>
<text text-anchor="middle" x="652.97" y="-13" font-family="Helvetica,sans-Serif" font-size="10.00">src/vmem_set_metasprite_m.c</text>
</a>
</g>
</g>
<!-- Node2&#45;&gt;Node5 -->
<g id="edge4" class="edge">
<title>Node2&#45;&gt;Node5</title>
<path fill="none" stroke="midnightblue" d="M714.15,-66.21C698.39,-53.41 676.46,-35.59 663.58,-25.13"/>
<polygon fill="midnightblue" stroke="midnightblue" points="712.21,-69.14 722.18,-72.73 716.62,-63.71 712.21,-69.14"/>
</g>
<!-- Node6 -->
<g id="node6" class="node">
<title>Node6</title>
<g id="a_node6"><a xlink:href="vmem__set__metasprite__s_8c.html" target="_top" xlink:title="Copyright (c) 2021 Daishi Mori (mori0091)">
<polygon fill="none" stroke="black" points="746.97,-6 746.97,-25 894.97,-25 894.97,-6 746.97,-6"/>
<text text-anchor="middle" x="820.97" y="-13" font-family="Helvetica,sans-Serif" font-size="10.00">src/vmem_set_metasprite_s.c</text>
</a>
</g>
</g>
<!-- Node2&#45;&gt;Node6 -->
<g id="edge5" class="edge">
<title>Node2&#45;&gt;Node6</title>
<path fill="none" stroke="midnightblue" d="M753.18,-66.57C770.55,-53.74 794.99,-35.69 809.29,-25.13"/>
<polygon fill="midnightblue" stroke="midnightblue" points="750.8,-63.98 744.83,-72.73 754.96,-69.61 750.8,-63.98"/>
</g>
<!-- Node7&#45;&gt;Node2 -->
<g id="edge8" class="edge">
<title>Node7&#45;&gt;Node2</title>
<path fill="none" stroke="midnightblue" d="M551.58,-131.9C594.89,-120.34 661.77,-102.5 701.07,-92.01"/>
<polygon fill="midnightblue" stroke="midnightblue" points="550.68,-128.52 541.92,-134.48 552.48,-135.28 550.68,-128.52"/>
</g>
<!-- Node7&#45;&gt;Node3 -->
<g id="edge9" class="edge">
<title>Node7&#45;&gt;Node3</title>
<path fill="none" stroke="midnightblue" d="M458.86,-136.48C434.96,-130.59 408.59,-119.37 393.97,-98 386.18,-86.63 386.23,-78.4 393.97,-67 413.68,-37.94 453.05,-25.6 482.75,-20.36"/>
<polygon fill="midnightblue" stroke="midnightblue" points="458.39,-139.96 468.91,-138.7 459.9,-133.13 458.39,-139.96"/>
</g>
<!-- Node7&#45;&gt;Node4 -->
<g id="edge22" class="edge">
<title>Node7&#45;&gt;Node4</title>
<path fill="none" stroke="midnightblue" d="M458.53,-142.21C336.96,-139.82 39.82,-130.66 9.97,-98 -27.35,-57.17 53.27,-35.5 118.61,-25.02"/>
<polygon fill="midnightblue" stroke="midnightblue" points="458.64,-145.72 468.7,-142.41 458.77,-138.72 458.64,-145.72"/>
</g>
<!-- Node7&#45;&gt;Node5 -->
<g id="edge23" class="edge">
<title>Node7&#45;&gt;Node5</title>
<path fill="none" stroke="midnightblue" d="M560.91,-136.14C586.26,-130.15 615.38,-118.94 633.97,-98 652.48,-77.14 653.91,-41.72 653.47,-25.32"/>
<polygon fill="midnightblue" stroke="midnightblue" points="560.09,-132.73 551.05,-138.26 561.56,-139.58 560.09,-132.73"/>
</g>
<!-- Node7&#45;&gt;Node6 -->
<g id="edge24" class="edge">
<title>Node7&#45;&gt;Node6</title>
<path fill="none" stroke="midnightblue" d="M561.26,-141.14C633.36,-137.5 759.74,-127.07 793.97,-98 816.01,-79.28 820.15,-42.13 820.86,-25.23"/>
<polygon fill="midnightblue" stroke="midnightblue" points="560.85,-137.66 551.03,-141.63 561.18,-144.65 560.85,-137.66"/>
</g>
<!-- Node7&#45;&gt;Node8 -->
<g id="edge10" class="edge">
<title>Node7&#45;&gt;Node8</title>
<path fill="none" stroke="midnightblue" d="M561.68,-135.73C642.25,-124.39 796.96,-102.63 878.93,-91.1"/>
<polygon fill="midnightblue" stroke="midnightblue" points="560.71,-132.33 551.29,-137.19 561.68,-139.26 560.71,-132.33"/>
</g>
<!-- Node12 -->
<g id="node12" class="node">
<title>Node12</title>
<g id="a_node12"><a xlink:href="sprite__set__color_8c.html" target="_top" xlink:title="Copyright (c) 2021 Daishi Mori (mori0091)">
<polygon fill="none" stroke="black" points="514.97,-73 514.97,-92 624.97,-92 624.97,-73 514.97,-73"/>
<text text-anchor="middle" x="569.97" y="-80" font-family="Helvetica,sans-Serif" font-size="10.00">src/sprite_set_color.c</text>
</a>
</g>
</g>
<!-- Node7&#45;&gt;Node12 -->
<g id="edge17" class="edge">
<title>Node7&#45;&gt;Node12</title>
<path fill="none" stroke="midnightblue" d="M525.77,-127.32C537.17,-116.02 552.12,-101.19 561.38,-92.01"/>
<polygon fill="midnightblue" stroke="midnightblue" points="523.2,-124.95 518.56,-134.48 528.13,-129.92 523.2,-124.95"/>
</g>
<!-- Node13 -->
<g id="node13" class="node">
<title>Node13</title>
<g id="a_node13"><a xlink:href="sprite__set__pat_8c.html" target="_top" xlink:title="Copyright (c) 2021 Daishi Mori (mori0091)">
<polygon fill="none" stroke="black" points="18.97,-73 18.97,-92 120.97,-92 120.97,-73 18.97,-73"/>
<text text-anchor="middle" x="69.97" y="-80" font-family="Helvetica,sans-Serif" font-size="10.00">src/sprite_set_pat.c</text>
</a>
</g>
</g>
<!-- Node7&#45;&gt;Node13 -->
<g id="edge18" class="edge">
<title>Node7&#45;&gt;Node13</title>
<path fill="none" stroke="midnightblue" d="M458.48,-138.95C384.99,-132.71 245.93,-119.2 128.97,-98 120.04,-96.38 110.45,-94.22 101.66,-92.05"/>
<polygon fill="midnightblue" stroke="midnightblue" points="458.58,-142.47 468.84,-139.82 459.17,-135.5 458.58,-142.47"/>
</g>
<!-- Node14 -->
<g id="node14" class="node">
<title>Node14</title>
<g id="a_node14"><a xlink:href="sprite__set__x_8c.html" target="_top" xlink:title="Copyright (c) 2021 Daishi Mori (mori0091)">
<polygon fill="none" stroke="black" points="138.47,-73 138.47,-92 231.47,-92 231.47,-73 138.47,-73"/>
<text text-anchor="middle" x="184.97" y="-80" font-family="Helvetica,sans-Serif" font-size="10.00">src/sprite_set_x.c</text>
</a>
</g>
</g>
<!-- Node7&#45;&gt;Node14 -->
<g id="edge19" class="edge">
<title>Node7&#45;&gt;Node14</title>
<path fill="none" stroke="midnightblue" d="M458.46,-135.87C403.94,-127.98 315.48,-114.21 239.97,-98 231.95,-96.28 223.35,-94.15 215.39,-92.06"/>
<polygon fill="midnightblue" stroke="midnightblue" points="458.18,-139.36 468.57,-137.32 459.17,-132.43 458.18,-139.36"/>
</g>
<!-- Node15 -->
<g id="node15" class="node">
<title>Node15</title>
<g id="a_node15"><a xlink:href="sprite__set__xy_8c.html" target="_top" xlink:title="Copyright (c) 2021 Daishi Mori (mori0091)">
<polygon fill="none" stroke="black" points="248.97,-73 248.97,-92 346.97,-92 346.97,-73 248.97,-73"/>
<text text-anchor="middle" x="297.97" y="-80" font-family="Helvetica,sans-Serif" font-size="10.00">src/sprite_set_xy.c</text>
</a>
</g>
</g>
<!-- Node7&#45;&gt;Node15 -->
<g id="edge20" class="edge">
<title>Node7&#45;&gt;Node15</title>
<path fill="none" stroke="midnightblue" d="M469.88,-131.75C428.69,-120.19 365.49,-102.45 328.28,-92.01"/>
<polygon fill="midnightblue" stroke="midnightblue" points="469.02,-135.14 479.59,-134.48 470.91,-128.4 469.02,-135.14"/>
</g>
<!-- Node16 -->
<g id="node16" class="node">
<title>Node16</title>
<g id="a_node16"><a xlink:href="sprite__set__y_8c.html" target="_top" xlink:title="Copyright (c) 2021 Daishi Mori (mori0091)">
<polygon fill="none" stroke="black" points="403.47,-73 403.47,-92 496.47,-92 496.47,-73 403.47,-73"/>
<text text-anchor="middle" x="449.97" y="-80" font-family="Helvetica,sans-Serif" font-size="10.00">src/sprite_set_y.c</text>
</a>
</g>
</g>
<!-- Node7&#45;&gt;Node16 -->
<g id="edge21" class="edge">
<title>Node7&#45;&gt;Node16</title>
<path fill="none" stroke="midnightblue" d="M494.16,-127.32C482.76,-116.02 467.81,-101.19 458.55,-92.01"/>
<polygon fill="midnightblue" stroke="midnightblue" points="491.8,-129.92 501.37,-134.48 496.73,-124.95 491.8,-129.92"/>
</g>
<!-- Node8&#45;&gt;Node3 -->
<g id="edge11" class="edge">
<title>Node8&#45;&gt;Node3</title>
<path fill="none" stroke="midnightblue" d="M885.92,-70.9C878.91,-69.48 871.76,-68.13 864.97,-67 733.81,-45.11 698.01,-58.71 567.97,-31 560.62,-29.43 552.77,-27.23 545.63,-25.01"/>
<polygon fill="midnightblue" stroke="midnightblue" points="885.52,-74.39 896.02,-72.99 886.94,-67.54 885.52,-74.39"/>
</g>
<!-- Node8&#45;&gt;Node5 -->
<g id="edge12" class="edge">
<title>Node8&#45;&gt;Node5</title>
<path fill="none" stroke="midnightblue" d="M886.2,-70.64C831.03,-57.84 740.45,-36.81 689.94,-25.08"/>
<polygon fill="midnightblue" stroke="midnightblue" points="885.54,-74.08 896.07,-72.94 887.12,-67.26 885.54,-74.08"/>
</g>
<!-- Node8&#45;&gt;Node6 -->
<g id="edge13" class="edge">
<title>Node8&#45;&gt;Node6</title>
<path fill="none" stroke="midnightblue" d="M909.04,-67.62C886.85,-54.74 854.52,-35.98 835.83,-25.13"/>
<polygon fill="midnightblue" stroke="midnightblue" points="907.45,-70.74 917.86,-72.73 910.97,-64.69 907.45,-70.74"/>
</g>
<!-- Node9 -->
<g id="node9" class="node">
<title>Node9</title>
<g id="a_node9"><a xlink:href="vmem__set__sprite__color_8c.html" target="_top" xlink:title="Copyright (c) 2021 Daishi Mori (mori0091)">
<polygon fill="none" stroke="black" points="1038.97,-0.5 1038.97,-30.5 1146.97,-30.5 1146.97,-0.5 1038.97,-0.5"/>
<text text-anchor="start" x="1046.97" y="-18.5" font-family="Helvetica,sans-Serif" font-size="10.00">src/vmem_set_sprite</text>
<text text-anchor="middle" x="1092.97" y="-7.5" font-family="Helvetica,sans-Serif" font-size="10.00">_color.c</text>
</a>
</g>
</g>
<!-- Node8&#45;&gt;Node9 -->
<g id="edge14" class="edge">
<title>Node8&#45;&gt;Node9</title>
<path fill="none" stroke="midnightblue" d="M963.59,-69.06C990.7,-58.05 1030.22,-41.99 1058.43,-30.53"/>
<polygon fill="midnightblue" stroke="midnightblue" points="962.16,-65.86 954.21,-72.87 964.79,-72.35 962.16,-65.86"/>
</g>
<!-- Node10 -->
<g id="node10" class="node">
<title>Node10</title>
<g id="a_node10"><a xlink:href="vmem__set__sprite__color__m_8c.html" target="_top" xlink:title="Copyright (c) 2021 Daishi Mori (mori0091)">
<polygon fill="none" stroke="black" points="912.97,-0.5 912.97,-30.5 1020.97,-30.5 1020.97,-0.5 912.97,-0.5"/>
<text text-anchor="start" x="920.97" y="-18.5" font-family="Helvetica,sans-Serif" font-size="10.00">src/vmem_set_sprite</text>
<text text-anchor="middle" x="966.97" y="-7.5" font-family="Helvetica,sans-Serif" font-size="10.00">_color_m.c</text>
</a>
</g>
</g>
<!-- Node8&#45;&gt;Node10 -->
<g id="edge15" class="edge">
<title>Node8&#45;&gt;Node10</title>
<path fill="none" stroke="midnightblue" d="M942.27,-63.71C947.72,-53.29 954.52,-40.3 959.6,-30.59"/>
<polygon fill="midnightblue" stroke="midnightblue" points="939.08,-62.25 937.55,-72.73 945.29,-65.5 939.08,-62.25"/>
</g>
<!-- Node8&#45;&gt;Node11 -->
<g id="edge16" class="edge">
<title>Node8&#45;&gt;Node11</title>
<path fill="none" stroke="midnightblue" d="M974.38,-70.69C981.53,-69.19 988.93,-67.87 995.97,-67 1266.46,-33.7 3277.54,-19.17 3634.78,-16.84"/>
<polygon fill="midnightblue" stroke="midnightblue" points="973.14,-67.38 964.14,-72.98 974.66,-74.21 973.14,-67.38"/>
</g>
<!-- Node17&#45;&gt;Node2 -->
<g id="edge27" class="edge">
<title>Node17&#45;&gt;Node2</title>
<path fill="none" stroke="midnightblue" d="M2976.75,-142.79C2698.86,-141.42 1273.56,-132.81 836.97,-98 820.06,-96.65 801.72,-94.37 785.21,-92.01"/>
<polygon fill="midnightblue" stroke="midnightblue" points="2976.88,-146.29 2986.9,-142.84 2976.92,-139.29 2976.88,-146.29"/>
</g>
<!-- Node17&#45;&gt;Node3 -->
<g id="edge28" class="edge">
<title>Node17&#45;&gt;Node3</title>
<path fill="none" stroke="midnightblue" d="M2976.35,-143.05C2678.96,-143.2 1082.41,-141.97 869.97,-98 834.24,-90.61 829.1,-76.82 793.97,-67 696.01,-39.61 667.03,-54.05 567.97,-31 560.98,-29.37 553.52,-27.25 546.64,-25.14"/>
<polygon fill="midnightblue" stroke="midnightblue" points="2976.78,-146.55 2986.78,-143.04 2976.77,-139.55 2976.78,-146.55"/>
</g>
<!-- Node17&#45;&gt;Node11 -->
<g id="edge60" class="edge">
<title>Node17&#45;&gt;Node11</title>
<path fill="none" stroke="midnightblue" d="M3071.23,-142.89C3212.51,-142.13 3624.67,-136.59 3669.97,-98 3689.43,-81.42 3691.11,-49.11 3690.26,-30.54"/>
<polygon fill="midnightblue" stroke="midnightblue" points="3071.13,-139.39 3061.14,-142.94 3071.16,-146.39 3071.13,-139.39"/>
</g>
<!-- Node18 -->
<g id="node18" class="node">
<title>Node18</title>
<g id="a_node18"><a xlink:href="vdp_8c.html" target="_top" xlink:title="Copyright (c) 2021 Daishi Mori (mori0091)">
<polygon fill="none" stroke="black" points="4996.97,-73 4996.97,-92 5052.97,-92 5052.97,-73 4996.97,-73"/>
<text text-anchor="middle" x="5024.97" y="-80" font-family="Helvetica,sans-Serif" font-size="10.00">src/vdp.c</text>
</a>
</g>
</g>
<!-- Node17&#45;&gt;Node18 -->
<g id="edge29" class="edge">
<title>Node17&#45;&gt;Node18</title>
<path fill="none" stroke="midnightblue" d="M3071.32,-142.91C3352.29,-142.21 4794.94,-136.77 4987.97,-98 4994.32,-96.72 5001,-94.43 5006.91,-92.04"/>
<polygon fill="midnightblue" stroke="midnightblue" points="3071.05,-139.41 3061.06,-142.93 3071.07,-146.41 3071.05,-139.41"/>
</g>
<!-- Node19 -->
<g id="node19" class="node">
<title>Node19</title>
<g id="a_node19"><a xlink:href="vdp__cmd__execute__HMMM_8c.html" target="_top" xlink:title="Copyright (c) 2021 Daishi Mori (mori0091)">
<polygon fill="none" stroke="black" points="5070.97,-67.5 5070.97,-97.5 5182.97,-97.5 5182.97,-67.5 5070.97,-67.5"/>
<text text-anchor="start" x="5078.97" y="-85.5" font-family="Helvetica,sans-Serif" font-size="10.00">src/vdp_cmd_execute</text>
<text text-anchor="middle" x="5126.97" y="-74.5" font-family="Helvetica,sans-Serif" font-size="10.00">_HMMM.c</text>
</a>
</g>
</g>
<!-- Node17&#45;&gt;Node19 -->
<g id="edge30" class="edge">
<title>Node17&#45;&gt;Node19</title>
<path fill="none" stroke="midnightblue" d="M3071.36,-143.22C3338.51,-144.29 4658.5,-146.97 5061.97,-98 5064.83,-97.65 5067.76,-97.23 5070.71,-96.76"/>
<polygon fill="midnightblue" stroke="midnightblue" points="3071.24,-139.72 3061.22,-143.18 3071.21,-146.72 3071.24,-139.72"/>
</g>
<!-- Node20 -->
<g id="node20" class="node">
<title>Node20</title>
<g id="a_node20"><a xlink:href="vdp__cmd__execute__HMMV_8c.html" target="_top" xlink:title="Copyright (c) 2021 Daishi Mori (mori0091)">
<polygon fill="none" stroke="black" points="1004.97,-67.5 1004.97,-97.5 1116.97,-97.5 1116.97,-67.5 1004.97,-67.5"/>
<text text-anchor="start" x="1012.97" y="-85.5" font-family="Helvetica,sans-Serif" font-size="10.00">src/vdp_cmd_execute</text>
<text text-anchor="middle" x="1060.97" y="-74.5" font-family="Helvetica,sans-Serif" font-size="10.00">_HMMV.c</text>
</a>
</g>
</g>
<!-- Node17&#45;&gt;Node20 -->
<g id="edge31" class="edge">
<title>Node17&#45;&gt;Node20</title>
<path fill="none" stroke="midnightblue" d="M2976.6,-143.13C2720.59,-143.66 1500.1,-143.72 1125.97,-98 1123.1,-97.65 1120.17,-97.23 1117.22,-96.76"/>
<polygon fill="midnightblue" stroke="midnightblue" points="2976.69,-146.63 2986.68,-143.11 2976.67,-139.63 2976.69,-146.63"/>
</g>
<!-- Node21 -->
<g id="node21" class="node">
<title>Node21</title>
<g id="a_node21"><a xlink:href="vdp__cmd__execute__LMMM_8c.html" target="_top" xlink:title="Copyright (c) 2021 Daishi Mori (mori0091)">
<polygon fill="none" stroke="black" points="1134.97,-67.5 1134.97,-97.5 1246.97,-97.5 1246.97,-67.5 1134.97,-67.5"/>
<text text-anchor="start" x="1142.97" y="-85.5" font-family="Helvetica,sans-Serif" font-size="10.00">src/vdp_cmd_execute</text>
<text text-anchor="middle" x="1190.97" y="-74.5" font-family="Helvetica,sans-Serif" font-size="10.00">_LMMM.c</text>
</a>
</g>
</g>
<!-- Node17&#45;&gt;Node21 -->
<g id="edge32" class="edge">
<title>Node17&#45;&gt;Node21</title>
<path fill="none" stroke="midnightblue" d="M2976.74,-143.04C2731.67,-143.04 1602.96,-140.71 1255.97,-98 1253.1,-97.65 1250.17,-97.22 1247.22,-96.75"/>
<polygon fill="midnightblue" stroke="midnightblue" points="2976.75,-146.54 2986.75,-143.04 2976.75,-139.54 2976.75,-146.54"/>
</g>
<!-- Node22 -->
<g id="node22" class="node">
<title>Node22</title>
<g id="a_node22"><a xlink:href="vdp__cmd__execute__LMMV_8c.html" target="_top" xlink:title="Copyright (c) 2021 Daishi Mori (mori0091)">
<polygon fill="none" stroke="black" points="1264.97,-67.5 1264.97,-97.5 1376.97,-97.5 1376.97,-67.5 1264.97,-67.5"/>
<text text-anchor="start" x="1272.97" y="-85.5" font-family="Helvetica,sans-Serif" font-size="10.00">src/vdp_cmd_execute</text>
<text text-anchor="middle" x="1320.97" y="-74.5" font-family="Helvetica,sans-Serif" font-size="10.00">_LMMV.c</text>
</a>
</g>
</g>
<!-- Node17&#45;&gt;Node22 -->
<g id="edge33" class="edge">
<title>Node17&#45;&gt;Node22</title>
<path fill="none" stroke="midnightblue" d="M2976.55,-142.9C2742.25,-142.25 1706.58,-137.15 1386.97,-98 1383.7,-97.6 1380.37,-97.12 1377.01,-96.57"/>
<polygon fill="midnightblue" stroke="midnightblue" points="2976.77,-146.41 2986.78,-142.93 2976.79,-139.41 2976.77,-146.41"/>
</g>
<!-- Node23 -->
<g id="node23" class="node">
<title>Node23</title>
<g id="a_node23"><a xlink:href="vdp__cmd__set__unrestricted_8c.html" target="_top" xlink:title="Copyright (c) 2021 Daishi Mori (mori0091)">
<polygon fill="none" stroke="black" points="1395.47,-73 1395.47,-92 1550.47,-92 1550.47,-73 1395.47,-73"/>
<text text-anchor="middle" x="1472.97" y="-80" font-family="Helvetica,sans-Serif" font-size="10.00">src/vdp_cmd_set_unrestricted.c</text>
</a>
</g>
</g>
<!-- Node17&#45;&gt;Node23 -->
<g id="edge34" class="edge">
<title>Node17&#45;&gt;Node23</title>
<path fill="none" stroke="midnightblue" d="M2976.76,-142.4C2758.34,-139.51 1844.44,-125.95 1559.97,-98 1545.95,-96.62 1530.77,-94.36 1517.07,-92.03"/>
<polygon fill="midnightblue" stroke="midnightblue" points="2976.88,-145.91 2986.92,-142.54 2976.97,-138.91 2976.88,-145.91"/>
</g>
<!-- Node24 -->
<g id="node24" class="node">
<title>Node24</title>
<g id="a_node24"><a xlink:href="vdp__get__sprite__mode_8c.html" target="_top" xlink:title="Copyright (c) 2021 Daishi Mori (mori0091)">
<polygon fill="none" stroke="black" points="1568.47,-67.5 1568.47,-97.5 1665.47,-97.5 1665.47,-67.5 1568.47,-67.5"/>
<text text-anchor="start" x="1576.47" y="-85.5" font-family="Helvetica,sans-Serif" font-size="10.00">src/vdp_get_sprite</text>
<text text-anchor="middle" x="1616.97" y="-74.5" font-family="Helvetica,sans-Serif" font-size="10.00">_mode.c</text>
</a>
</g>
</g>
<!-- Node17&#45;&gt;Node24 -->
<g id="edge35" class="edge">
<title>Node17&#45;&gt;Node24</title>
<path fill="none" stroke="midnightblue" d="M2976.43,-142.76C2768.04,-141.51 1934.14,-134.3 1674.97,-98 1671.88,-97.57 1668.72,-97.04 1665.55,-96.44"/>
<polygon fill="midnightblue" stroke="midnightblue" points="2976.7,-146.26 2986.72,-142.82 2976.74,-139.26 2976.7,-146.26"/>
</g>
<!-- Node25 -->
<g id="node25" class="node">
<title>Node25</title>
<g id="a_node25"><a xlink:href="vdp__get__status_8c.html" target="_top" xlink:title="Copyright (c) 2021 Daishi Mori (mori0091)">
<polygon fill="none" stroke="black" points="1683.47,-73 1683.47,-92 1790.47,-92 1790.47,-73 1683.47,-73"/>
<text text-anchor="middle" x="1736.97" y="-80" font-family="Helvetica,sans-Serif" font-size="10.00">src/vdp_get_status.c</text>
</a>
</g>
</g>
<!-- Node17&#45;&gt;Node25 -->
<g id="edge36" class="edge">
<title>Node17&#45;&gt;Node25</title>
<path fill="none" stroke="midnightblue" d="M2976.44,-142.46C2780.37,-140.03 2033.62,-128.9 1799.97,-98 1789.73,-96.65 1778.71,-94.39 1768.8,-92.06"/>
<polygon fill="midnightblue" stroke="midnightblue" points="2976.66,-145.96 2986.7,-142.58 2976.74,-138.96 2976.66,-145.96"/>
</g>
<!-- Node26 -->
<g id="node26" class="node">
<title>Node26</title>
<g id="a_node26"><a xlink:href="vdp__set__adjust_8c.html" target="_top" xlink:title="Copyright (c) 2021 Daishi Mori (mori0091)">
<polygon fill="none" stroke="black" points="1808.47,-73 1808.47,-92 1915.47,-92 1915.47,-73 1808.47,-73"/>
<text text-anchor="middle" x="1861.97" y="-80" font-family="Helvetica,sans-Serif" font-size="10.00">src/vdp_set_adjust.c</text>
</a>
</g>
</g>
<!-- Node17&#45;&gt;Node26 -->
<g id="edge37" class="edge">
<title>Node17&#45;&gt;Node26</title>
<path fill="none" stroke="midnightblue" d="M2976.87,-142.23C2794.3,-139.08 2133.01,-125.96 1924.97,-98 1914.73,-96.62 1903.72,-94.37 1893.8,-92.03"/>
<polygon fill="midnightblue" stroke="midnightblue" points="2976.9,-145.73 2986.96,-142.41 2977.02,-138.74 2976.9,-145.73"/>
</g>
<!-- Node27 -->
<g id="node27" class="node">
<title>Node27</title>
<g id="a_node27"><a xlink:href="vdp__set__color_8c.html" target="_top" xlink:title="Copyright (c) 2021 Daishi Mori (mori0091)">
<polygon fill="none" stroke="black" points="1933.47,-73 1933.47,-92 2034.47,-92 2034.47,-73 1933.47,-73"/>
<text text-anchor="middle" x="1983.97" y="-80" font-family="Helvetica,sans-Serif" font-size="10.00">src/vdp_set_color.c</text>
</a>
</g>
</g>
<!-- Node17&#45;&gt;Node27 -->
<g id="edge38" class="edge">
<title>Node17&#45;&gt;Node27</title>
<path fill="none" stroke="midnightblue" d="M2976.74,-142.03C2806.89,-138.35 2227.39,-124.13 2043.97,-98 2034.2,-96.61 2023.71,-94.35 2014.27,-92.02"/>
<polygon fill="midnightblue" stroke="midnightblue" points="2976.79,-145.53 2986.86,-142.25 2976.94,-138.53 2976.79,-145.53"/>
</g>
<!-- Node28 -->
<g id="node28" class="node">
<title>Node28</title>
<g id="a_node28"><a xlink:href="vdp__set__color__table_8c.html" target="_top" xlink:title="Copyright (c) 2021 Daishi Mori (mori0091)">
<polygon fill="none" stroke="black" points="2052.97,-73 2052.97,-92 2180.97,-92 2180.97,-73 2052.97,-73"/>
<text text-anchor="middle" x="2116.97" y="-80" font-family="Helvetica,sans-Serif" font-size="10.00">src/vdp_set_color_table.c</text>
</a>
</g>
</g>
<!-- Node17&#45;&gt;Node28 -->
<g id="edge39" class="edge">
<title>Node17&#45;&gt;Node28</title>
<path fill="none" stroke="midnightblue" d="M2976.61,-142.8C2849.03,-141.74 2487.68,-135.41 2189.97,-98 2178.43,-96.55 2165.98,-94.33 2154.69,-92.05"/>
<polygon fill="midnightblue" stroke="midnightblue" points="2976.78,-146.3 2986.8,-142.87 2976.83,-139.3 2976.78,-146.3"/>
</g>
<!-- Node29 -->
<g id="node29" class="node">
<title>Node29</title>
<g id="a_node29"><a xlink:href="vdp__set__control_8c.html" target="_top" xlink:title="Copyright (c) 2021 Daishi Mori (mori0091)">
<polygon fill="none" stroke="black" points="2198.97,-73 2198.97,-92 2308.97,-92 2308.97,-73 2198.97,-73"/>
<text text-anchor="middle" x="2253.97" y="-80" font-family="Helvetica,sans-Serif" font-size="10.00">src/vdp_set_control.c</text>
</a>
</g>
</g>
<!-- Node17&#45;&gt;Node29 -->
<g id="edge40" class="edge">
<title>Node17&#45;&gt;Node29</title>
<path fill="none" stroke="midnightblue" d="M2976.56,-142.52C2862.65,-140.8 2564.75,-133.04 2318.97,-98 2308.66,-96.53 2297.57,-94.3 2287.52,-92.03"/>
<polygon fill="midnightblue" stroke="midnightblue" points="2976.64,-146.02 2986.68,-142.66 2976.73,-139.02 2976.64,-146.02"/>
</g>
<!-- Node30 -->
<g id="node30" class="node">
<title>Node30</title>
<g id="a_node30"><a xlink:href="vdp__set__hscroll_8c.html" target="_top" xlink:title="Copyright (c) 2021 Daishi Mori (mori0091)">
<polygon fill="none" stroke="black" points="2327.47,-73 2327.47,-92 2436.47,-92 2436.47,-73 2327.47,-73"/>
<text text-anchor="middle" x="2381.97" y="-80" font-family="Helvetica,sans-Serif" font-size="10.00">src/vdp_set_hscroll.c</text>
</a>
</g>
</g>
<!-- Node17&#45;&gt;Node30 -->
<g id="edge41" class="edge">
<title>Node17&#45;&gt;Node30</title>
<path fill="none" stroke="midnightblue" d="M2976.63,-141.64C2877.62,-138.28 2641.6,-127.62 2445.97,-98 2435.94,-96.48 2425.15,-94.27 2415.34,-92.02"/>
<polygon fill="midnightblue" stroke="midnightblue" points="2976.79,-145.15 2986.9,-141.98 2977.02,-138.15 2976.79,-145.15"/>
</g>
<!-- Node31 -->
<g id="node31" class="node">
<title>Node31</title>
<g id="a_node31"><a xlink:href="vdp__set__hscroll__dual__page_8c.html" target="_top" xlink:title="Copyright (c) 2021 Daishi Mori (mori0091)">
<polygon fill="none" stroke="black" points="2454.47,-67.5 2454.47,-97.5 2555.47,-97.5 2555.47,-67.5 2454.47,-67.5"/>
<text text-anchor="start" x="2462.47" y="-85.5" font-family="Helvetica,sans-Serif" font-size="10.00">src/vdp_set_hscroll</text>
<text text-anchor="middle" x="2504.97" y="-74.5" font-family="Helvetica,sans-Serif" font-size="10.00">_dual_page.c</text>
</a>
</g>
</g>
<!-- Node17&#45;&gt;Node31 -->
<g id="edge42" class="edge">
<title>Node17&#45;&gt;Node31</title>
<path fill="none" stroke="midnightblue" d="M2976.66,-140.54C2893.1,-135.72 2714.12,-123.21 2564.97,-98 2561.9,-97.48 2558.76,-96.9 2555.6,-96.26"/>
<polygon fill="midnightblue" stroke="midnightblue" points="2976.66,-144.05 2986.85,-141.12 2977.06,-137.06 2976.66,-144.05"/>
</g>
<!-- Node32 -->
<g id="node32" class="node">
<title>Node32</title>
<g id="a_node32"><a xlink:href="vdp__set__hscroll__mask_8c.html" target="_top" xlink:title="Copyright (c) 2021 Daishi Mori (mori0091)">
<polygon fill="none" stroke="black" points="2573.47,-67.5 2573.47,-97.5 2674.47,-97.5 2674.47,-67.5 2573.47,-67.5"/>
<text text-anchor="start" x="2581.47" y="-85.5" font-family="Helvetica,sans-Serif" font-size="10.00">src/vdp_set_hscroll</text>
<text text-anchor="middle" x="2623.97" y="-74.5" font-family="Helvetica,sans-Serif" font-size="10.00">_mask.c</text>
</a>
</g>
</g>
<!-- Node17&#45;&gt;Node32 -->
<g id="edge43" class="edge">
<title>Node17&#45;&gt;Node32</title>
<path fill="none" stroke="midnightblue" d="M2976.71,-138.34C2910.81,-131.48 2787.73,-117.35 2683.97,-98 2680.91,-97.43 2677.78,-96.8 2674.62,-96.14"/>
<polygon fill="midnightblue" stroke="midnightblue" points="2976.48,-141.83 2986.78,-139.38 2977.2,-134.87 2976.48,-141.83"/>
</g>
<!-- Node33 -->
<g id="node33" class="node">
<title>Node33</title>
<g id="a_node33"><a xlink:href="vdp__set__image__table_8c.html" target="_top" xlink:title="Copyright (c) 2021 Daishi Mori (mori0091)">
<polygon fill="none" stroke="black" points="2692.47,-73 2692.47,-92 2825.47,-92 2825.47,-73 2692.47,-73"/>
<text text-anchor="middle" x="2758.97" y="-80" font-family="Helvetica,sans-Serif" font-size="10.00">src/vdp_set_image_table.c</text>
</a>
</g>
</g>
<!-- Node17&#45;&gt;Node33 -->
<g id="edge44" class="edge">
<title>Node17&#45;&gt;Node33</title>
<path fill="none" stroke="midnightblue" d="M2977,-132.46C2925.73,-120.94 2844.63,-102.73 2797.13,-92.07"/>
<polygon fill="midnightblue" stroke="midnightblue" points="2976.32,-135.89 2986.84,-134.66 2977.85,-129.06 2976.32,-135.89"/>
</g>
<!-- Node34 -->
<g id="node34" class="node">
<title>Node34</title>
<g id="a_node34"><a xlink:href="vdp__set__palette_8c.html" target="_top" xlink:title="Copyright (c) 2021 Daishi Mori (mori0091)">
<polygon fill="none" stroke="black" points="2843.97,-73 2843.97,-92 2953.97,-92 2953.97,-73 2843.97,-73"/>
<text text-anchor="middle" x="2898.97" y="-80" font-family="Helvetica,sans-Serif" font-size="10.00">src/vdp_set_palette.c</text>
</a>
</g>
</g>
<!-- Node17&#45;&gt;Node34 -->
<g id="edge45" class="edge">
<title>Node17&#45;&gt;Node34</title>
<path fill="none" stroke="midnightblue" d="M2997.02,-130.17C2972.76,-118.63 2937.8,-101.99 2916.84,-92.01"/>
<polygon fill="midnightblue" stroke="midnightblue" points="2995.52,-133.34 3006.06,-134.48 2998.53,-127.02 2995.52,-133.34"/>
</g>
<!-- Node35 -->
<g id="node35" class="node">
<title>Node35</title>
<g id="a_node35"><a xlink:href="vdp__set__pattern__table_8c.html" target="_top" xlink:title="Copyright (c) 2021 Daishi Mori (mori0091)">
<polygon fill="none" stroke="black" points="2972.47,-67.5 2972.47,-97.5 3075.47,-97.5 3075.47,-67.5 2972.47,-67.5"/>
<text text-anchor="start" x="2980.47" y="-85.5" font-family="Helvetica,sans-Serif" font-size="10.00">src/vdp_set_pattern</text>
<text text-anchor="middle" x="3023.97" y="-74.5" font-family="Helvetica,sans-Serif" font-size="10.00">_table.c</text>
</a>
</g>
</g>
<!-- Node17&#45;&gt;Node35 -->
<g id="edge46" class="edge">
<title>Node17&#45;&gt;Node35</title>
<path fill="none" stroke="midnightblue" d="M3023.97,-124.23C3023.97,-115.59 3023.97,-105.5 3023.97,-97.52"/>
<polygon fill="midnightblue" stroke="midnightblue" points="3020.47,-124.48 3023.97,-134.48 3027.47,-124.48 3020.47,-124.48"/>
</g>
<!-- Node36 -->
<g id="node36" class="node">
<title>Node36</title>
<g id="a_node36"><a xlink:href="vdp__set__screen__lines_8c.html" target="_top" xlink:title="Copyright (c) 2021 Daishi Mori (mori0091)">
<polygon fill="none" stroke="black" points="3093.97,-67.5 3093.97,-97.5 3195.97,-97.5 3195.97,-67.5 3093.97,-67.5"/>
<text text-anchor="start" x="3101.97" y="-85.5" font-family="Helvetica,sans-Serif" font-size="10.00">src/vdp_set_screen</text>
<text text-anchor="middle" x="3144.97" y="-74.5" font-family="Helvetica,sans-Serif" font-size="10.00">_lines.c</text>
</a>
</g>
</g>
<!-- Node17&#45;&gt;Node36 -->
<g id="edge47" class="edge">
<title>Node17&#45;&gt;Node36</title>
<path fill="none" stroke="midnightblue" d="M3050.53,-129.94C3070.03,-120.35 3096.5,-107.33 3116.45,-97.52"/>
<polygon fill="midnightblue" stroke="midnightblue" points="3048.73,-126.92 3041.3,-134.48 3051.82,-133.2 3048.73,-126.92"/>
</g>
<!-- Node37 -->
<g id="node37" class="node">
<title>Node37</title>
<g id="a_node37"><a xlink:href="vdp__set__screen__mode_8c.html" target="_top" xlink:title="Copyright (c) 2021 Daishi Mori (mori0091)">
<polygon fill="none" stroke="black" points="3213.97,-67.5 3213.97,-97.5 3315.97,-97.5 3315.97,-67.5 3213.97,-67.5"/>
<text text-anchor="start" x="3221.97" y="-85.5" font-family="Helvetica,sans-Serif" font-size="10.00">src/vdp_set_screen</text>
<text text-anchor="middle" x="3264.97" y="-74.5" font-family="Helvetica,sans-Serif" font-size="10.00">_mode.c</text>
</a>
</g>
</g>
<!-- Node17&#45;&gt;Node37 -->
<g id="edge48" class="edge">
<title>Node17&#45;&gt;Node37</title>
<path fill="none" stroke="midnightblue" d="M3068.23,-132.07C3109.31,-121.93 3170.45,-106.83 3213.65,-96.17"/>
<polygon fill="midnightblue" stroke="midnightblue" points="3067.36,-128.68 3058.49,-134.48 3069.04,-135.48 3067.36,-128.68"/>
</g>
<!-- Node38 -->
<g id="node38" class="node">
<title>Node38</title>
<g id="a_node38"><a xlink:href="vdp__set__sprite__attribute__table_8c.html" target="_top" xlink:title="Copyright (c) 2021 Daishi Mori (mori0091)">
<polygon fill="none" stroke="black" points="3333.47,-67.5 3333.47,-97.5 3430.47,-97.5 3430.47,-67.5 3333.47,-67.5"/>
<text text-anchor="start" x="3341.47" y="-85.5" font-family="Helvetica,sans-Serif" font-size="10.00">src/vdp_set_sprite</text>
<text text-anchor="middle" x="3381.97" y="-74.5" font-family="Helvetica,sans-Serif" font-size="10.00">_attribute_table.c</text>
</a>
</g>
</g>
<!-- Node17&#45;&gt;Node38 -->
<g id="edge49" class="edge">
<title>Node17&#45;&gt;Node38</title>
<path fill="none" stroke="midnightblue" d="M3071.46,-137.4C3131,-130.04 3236.03,-115.91 3324.97,-98 3327.67,-97.46 3330.43,-96.86 3333.22,-96.24"/>
<polygon fill="midnightblue" stroke="midnightblue" points="3070.75,-133.96 3061.25,-138.65 3071.6,-140.91 3070.75,-133.96"/>
</g>
<!-- Node39 -->
<g id="node39" class="node">
<title>Node39</title>
<g id="a_node39"><a xlink:href="vdp__set__sprite__pattern__table_8c.html" target="_top" xlink:title="Copyright (c) 2021 Daishi Mori (mori0091)">
<polygon fill="none" stroke="black" points="3448.47,-67.5 3448.47,-97.5 3545.47,-97.5 3545.47,-67.5 3448.47,-67.5"/>
<text text-anchor="start" x="3456.47" y="-85.5" font-family="Helvetica,sans-Serif" font-size="10.00">src/vdp_set_sprite</text>
<text text-anchor="middle" x="3496.97" y="-74.5" font-family="Helvetica,sans-Serif" font-size="10.00">_pattern_table.c</text>
</a>
</g>
</g>
<!-- Node17&#45;&gt;Node39 -->
<g id="edge50" class="edge">
<title>Node17&#45;&gt;Node39</title>
<path fill="none" stroke="midnightblue" d="M3071.63,-140.04C3149.28,-134.74 3307.68,-121.86 3439.97,-98 3442.68,-97.51 3445.45,-96.96 3448.25,-96.38"/>
<polygon fill="midnightblue" stroke="midnightblue" points="3070.97,-136.58 3061.23,-140.74 3071.44,-143.56 3070.97,-136.58"/>
</g>
<!-- Node40 -->
<g id="node40" class="node">
<title>Node40</title>
<g id="a_node40"><a xlink:href="vdp__set__sprite__size_8c.html" target="_top" xlink:title="Copyright (c) 2021 Daishi Mori (mori0091)">
<polygon fill="none" stroke="black" points="3563.47,-67.5 3563.47,-97.5 3660.47,-97.5 3660.47,-67.5 3563.47,-67.5"/>
<text text-anchor="start" x="3571.47" y="-85.5" font-family="Helvetica,sans-Serif" font-size="10.00">src/vdp_set_sprite</text>
<text text-anchor="middle" x="3611.97" y="-74.5" font-family="Helvetica,sans-Serif" font-size="10.00">_size.c</text>
</a>
</g>
</g>
<!-- Node17&#45;&gt;Node40 -->
<g id="edge51" class="edge">
<title>Node17&#45;&gt;Node40</title>
<path fill="none" stroke="midnightblue" d="M3071.49,-141.59C3164.77,-138.26 3378.17,-127.77 3554.97,-98 3557.68,-97.54 3560.46,-97.02 3563.26,-96.45"/>
<polygon fill="midnightblue" stroke="midnightblue" points="3071.12,-138.1 3061.24,-141.95 3071.36,-145.1 3071.12,-138.1"/>
</g>
<!-- Node41 -->
<g id="node41" class="node">
<title>Node41</title>
<g id="a_node41"><a xlink:href="vdp__set__sprite__visible_8c.html" target="_top" xlink:title="Copyright (c) 2021 Daishi Mori (mori0091)">
<polygon fill="none" stroke="black" points="3717.47,-67.5 3717.47,-97.5 3814.47,-97.5 3814.47,-67.5 3717.47,-67.5"/>
<text text-anchor="start" x="3725.47" y="-85.5" font-family="Helvetica,sans-Serif" font-size="10.00">src/vdp_set_sprite</text>
<text text-anchor="middle" x="3765.97" y="-74.5" font-family="Helvetica,sans-Serif" font-size="10.00">_visible.c</text>
</a>
</g>
</g>
<!-- Node17&#45;&gt;Node41 -->
<g id="edge52" class="edge">
<title>Node17&#45;&gt;Node41</title>
<path fill="none" stroke="midnightblue" d="M3071.16,-142.47C3182.02,-140.65 3467.45,-132.68 3702.97,-98 3707.63,-97.31 3712.46,-96.46 3717.27,-95.52"/>
<polygon fill="midnightblue" stroke="midnightblue" points="3070.93,-138.97 3060.99,-142.62 3071.04,-145.97 3070.93,-138.97"/>
</g>
<!-- Node42 -->
<g id="node42" class="node">
<title>Node42</title>
<g id="a_node42"><a xlink:href="vdp__set__visible_8c.html" target="_top" xlink:title="Copyright (c) 2021 Daishi Mori (mori0091)">
<polygon fill="none" stroke="black" points="3832.97,-73 3832.97,-92 3940.97,-92 3940.97,-73 3832.97,-73"/>
<text text-anchor="middle" x="3886.97" y="-80" font-family="Helvetica,sans-Serif" font-size="10.00">src/vdp_set_visible.c</text>
</a>
</g>
</g>
<!-- Node17&#45;&gt;Node42 -->
<g id="edge53" class="edge">
<title>Node17&#45;&gt;Node42</title>
<path fill="none" stroke="midnightblue" d="M3071.58,-143.14C3195.95,-142.88 3540.59,-138.28 3823.97,-98 3834.08,-96.56 3844.96,-94.31 3854.79,-92.01"/>
<polygon fill="midnightblue" stroke="midnightblue" points="3071.26,-139.64 3061.27,-143.15 3071.27,-146.64 3071.26,-139.64"/>
</g>
<!-- Node43 -->
<g id="node43" class="node">
<title>Node43</title>
<g id="a_node43"><a xlink:href="vdp__set__vscroll_8c.html" target="_top" xlink:title="Copyright (c) 2021 Daishi Mori (mori0091)">
<polygon fill="none" stroke="black" points="3959.47,-73 3959.47,-92 4068.47,-92 4068.47,-73 3959.47,-73"/>
<text text-anchor="middle" x="4013.97" y="-80" font-family="Helvetica,sans-Serif" font-size="10.00">src/vdp_set_vscroll.c</text>
</a>
</g>
</g>
<!-- Node17&#45;&gt;Node43 -->
<g id="edge54" class="edge">
<title>Node17&#45;&gt;Node43</title>
<path fill="none" stroke="midnightblue" d="M3071.37,-143.6C3208.28,-144.71 3615.8,-143.62 3949.97,-98 3960.24,-96.6 3971.29,-94.36 3981.28,-92.06"/>
<polygon fill="midnightblue" stroke="midnightblue" points="3071.26,-140.1 3061.23,-143.51 3071.2,-147.1 3071.26,-140.1"/>
</g>
<!-- Node44 -->
<g id="node44" class="node">
<title>Node44</title>
<g id="a_node44"><a xlink:href="vdp__write__control_8c.html" target="_top" xlink:title="Copyright (c) 2021 Daishi Mori (mori0091)">
<polygon fill="none" stroke="black" points="4086.47,-73 4086.47,-92 4203.47,-92 4203.47,-73 4086.47,-73"/>
<text text-anchor="middle" x="4144.97" y="-80" font-family="Helvetica,sans-Serif" font-size="10.00">src/vdp_write_control.c</text>
</a>
</g>
</g>
<!-- Node17&#45;&gt;Node44 -->
<g id="edge55" class="edge">
<title>Node17&#45;&gt;Node44</title>
<path fill="none" stroke="midnightblue" d="M3071.16,-142.06C3249.05,-138.33 3879.04,-123.58 4077.97,-98 4088.82,-96.6 4100.53,-94.34 4111.08,-92.01"/>
<polygon fill="midnightblue" stroke="midnightblue" points="3071,-138.56 3061.07,-142.26 3071.14,-145.56 3071,-138.56"/>
</g>
<!-- Node45 -->
<g id="node45" class="node">
<title>Node45</title>
<g id="a_node45"><a xlink:href="vdp__write__palette_8c.html" target="_top" xlink:title="Copyright (c) 2021 Daishi Mori (mori0091)">
<polygon fill="none" stroke="black" points="4221.47,-73 4221.47,-92 4338.47,-92 4338.47,-73 4221.47,-73"/>
<text text-anchor="middle" x="4279.97" y="-80" font-family="Helvetica,sans-Serif" font-size="10.00">src/vdp_write_palette.c</text>
</a>
</g>
</g>
<!-- Node17&#45;&gt;Node45 -->
<g id="edge56" class="edge">
<title>Node17&#45;&gt;Node45</title>
<path fill="none" stroke="midnightblue" d="M3071.07,-142.32C3262.95,-139.38 3986.19,-126.61 4212.97,-98 4223.83,-96.63 4235.54,-94.37 4246.08,-92.04"/>
<polygon fill="midnightblue" stroke="midnightblue" points="3070.97,-138.82 3061.03,-142.47 3071.08,-145.82 3070.97,-138.82"/>
</g>
<!-- Node46 -->
<g id="node46" class="node">
<title>Node46</title>
<g id="a_node46"><a xlink:href="vmem__memset_8c.html" target="_top" xlink:title="Copyright (c) 2021 Daishi Mori (mori0091)">
<polygon fill="none" stroke="black" points="4356.97,-73 4356.97,-92 4464.97,-92 4464.97,-73 4356.97,-73"/>
<text text-anchor="middle" x="4410.97" y="-80" font-family="Helvetica,sans-Serif" font-size="10.00">src/vmem_memset.c</text>
</a>
</g>
</g>
<!-- Node17&#45;&gt;Node46 -->
<g id="edge57" class="edge">
<title>Node17&#45;&gt;Node46</title>
<path fill="none" stroke="midnightblue" d="M3071.29,-142.61C3276.87,-140.73 4093.55,-131.29 4347.97,-98 4358.31,-96.65 4369.46,-94.36 4379.45,-92"/>
<polygon fill="midnightblue" stroke="midnightblue" points="3071.09,-139.11 3061.12,-142.7 3071.15,-146.11 3071.09,-139.11"/>
</g>
<!-- Node47 -->
<g id="node47" class="node">
<title>Node47</title>
<g id="a_node47"><a xlink:href="vmem__read_8c.html" target="_top" xlink:title="Copyright (c) 2021 Daishi Mori (mori0091)">
<polygon fill="none" stroke="black" points="4482.97,-73 4482.97,-92 4574.97,-92 4574.97,-73 4482.97,-73"/>
<text text-anchor="middle" x="4528.97" y="-80" font-family="Helvetica,sans-Serif" font-size="10.00">src/vmem_read.c</text>
</a>
</g>
</g>
<!-- Node17&#45;&gt;Node47 -->
<g id="edge58" class="edge">
<title>Node17&#45;&gt;Node47</title>
<path fill="none" stroke="midnightblue" d="M3071.15,-142.97C3288.43,-142.63 4193.95,-138.72 4473.97,-98 4483.05,-96.68 4492.8,-94.4 4501.52,-92.04"/>
<polygon fill="midnightblue" stroke="midnightblue" points="3071.03,-139.47 3061.03,-142.99 3071.04,-146.47 3071.03,-139.47"/>
</g>
<!-- Node48 -->
<g id="node48" class="node">
<title>Node48</title>
<g id="a_node48"><a xlink:href="vmem__set__read__address_8c.html" target="_top" xlink:title="Copyright (c) 2021 Daishi Mori (mori0091)">
<polygon fill="none" stroke="black" points="4592.97,-73 4592.97,-92 4742.97,-92 4742.97,-73 4592.97,-73"/>
<text text-anchor="middle" x="4667.97" y="-80" font-family="Helvetica,sans-Serif" font-size="10.00">src/vmem_set_read_address.c</text>
</a>
</g>
</g>
<!-- Node17&#45;&gt;Node48 -->
<g id="edge59" class="edge">
<title>Node17&#45;&gt;Node48</title>
<path fill="none" stroke="midnightblue" d="M3071.29,-142.54C3298.58,-140.21 4279.6,-128.5 4583.97,-98 4597.51,-96.64 4612.17,-94.39 4625.39,-92.06"/>
<polygon fill="midnightblue" stroke="midnightblue" points="3071.01,-139.04 3061.04,-142.65 3071.08,-146.04 3071.01,-139.04"/>
</g>
<!-- Node49 -->
<g id="node49" class="node">
<title>Node49</title>
<g id="a_node49"><a xlink:href="vmem__set__write__address_8c.html" target="_top" xlink:title="Copyright (c) 2021 Daishi Mori (mori0091)">
<polygon fill="none" stroke="black" points="4761.47,-67.5 4761.47,-97.5 4866.47,-97.5 4866.47,-67.5 4761.47,-67.5"/>
<text text-anchor="start" x="4769.47" y="-85.5" font-family="Helvetica,sans-Serif" font-size="10.00">src/vmem_set_write</text>
<text text-anchor="middle" x="4813.97" y="-74.5" font-family="Helvetica,sans-Serif" font-size="10.00">_address.c</text>
</a>
</g>
</g>
<!-- Node17&#45;&gt;Node49 -->
<g id="edge61" class="edge">
<title>Node17&#45;&gt;Node49</title>
<path fill="none" stroke="midnightblue" d="M3071.27,-143.07C3313.17,-143.23 4413.58,-141.51 4751.97,-98 4755.04,-97.61 4758.18,-97.12 4761.33,-96.58"/>
<polygon fill="midnightblue" stroke="midnightblue" points="3071.06,-139.57 3061.06,-143.06 3071.06,-146.57 3071.06,-139.57"/>
</g>
<!-- Node50 -->
<g id="node50" class="node">
<title>Node50</title>
<g id="a_node50"><a xlink:href="vmem__write_8c.html" target="_top" xlink:title="Copyright (c) 2021 Daishi Mori (mori0091)">
<polygon fill="none" stroke="black" points="4884.97,-73 4884.97,-92 4978.97,-92 4978.97,-73 4884.97,-73"/>
<text text-anchor="middle" x="4931.97" y="-80" font-family="Helvetica,sans-Serif" font-size="10.00">src/vmem_write.c</text>
</a>
</g>
</g>
<!-- Node17&#45;&gt;Node50 -->
<g id="edge62" class="edge">
<title>Node17&#45;&gt;Node50</title>
<path fill="none" stroke="midnightblue" d="M3071.54,-142.5C3343.24,-139.53 4692.77,-123.6 4875.97,-98 4885.31,-96.69 4895.35,-94.39 4904.3,-92"/>
<polygon fill="midnightblue" stroke="midnightblue" points="3071.2,-139 3061.24,-142.61 3071.27,-146 3071.2,-139"/>
</g>
</g>
</svg>
