<?xml version="1.0" encoding="UTF-8" standalone="no"?>
<!DOCTYPE svg PUBLIC "-//W3C//DTD SVG 1.1//EN"
 "http://www.w3.org/Graphics/SVG/1.1/DTD/svg11.dtd">
<!-- Generated by graphviz version 2.44.0 ()
 -->
<!-- Title: src/vmem_set_metasprite_a.c Pages: 1 -->
<svg width="397pt" height="308pt"
 viewBox="0.00 0.00 397.18 308.00" xmlns="http://www.w3.org/2000/svg" xmlns:xlink="http://www.w3.org/1999/xlink">
<g id="graph0" class="graph" transform="scale(1 1) rotate(0) translate(4 304)">
<title>src/vmem_set_metasprite_a.c</title>
<!-- Node1 -->
<g id="node1" class="node">
<title>Node1</title>
<g id="a_node1"><a xlink:title="Copyright (c) 2021 Daishi Mori (mori0091)">
<polygon fill="#bfbfbf" stroke="black" points="228.68,-280.5 228.68,-299.5 376.68,-299.5 376.68,-280.5 228.68,-280.5"/>
<text text-anchor="middle" x="302.68" y="-287.5" font-family="Helvetica,sans-Serif" font-size="10.00">src/vmem_set_metasprite_a.c</text>
</a>
</g>
</g>
<!-- Node2 -->
<g id="node2" class="node">
<title>Node2</title>
<g id="a_node2"><a xlink:href="sprite_8h.html" target="_top" xlink:title="Copyright (c) 2021 Daishi Mori (mori0091)">
<polygon fill="none" stroke="black" points="300.18,-168.5 300.18,-187.5 389.18,-187.5 389.18,-168.5 300.18,-168.5"/>
<text text-anchor="middle" x="344.68" y="-175.5" font-family="Helvetica,sans-Serif" font-size="10.00">../include/sprite.h</text>
</a>
</g>
</g>
<!-- Node1&#45;&gt;Node2 -->
<g id="edge1" class="edge">
<title>Node1&#45;&gt;Node2</title>
<path fill="none" stroke="midnightblue" d="M307.77,-280.26C312.8,-271.36 320.49,-257.04 325.68,-244 331.79,-228.64 336.92,-210.54 340.3,-197.35"/>
<polygon fill="midnightblue" stroke="midnightblue" points="343.71,-198.13 342.72,-187.59 336.92,-196.45 343.71,-198.13"/>
</g>
<!-- Node6 -->
<g id="node6" class="node">
<title>Node6</title>
<g id="a_node6"><a xlink:href="metasprite_8h.html" target="_top" xlink:title="Copyright (c) 2021 Daishi Mori (mori0091)">
<polygon fill="none" stroke="black" points="205.18,-224.5 205.18,-243.5 316.18,-243.5 316.18,-224.5 205.18,-224.5"/>
<text text-anchor="middle" x="260.68" y="-231.5" font-family="Helvetica,sans-Serif" font-size="10.00">../include/metasprite.h</text>
</a>
</g>
</g>
<!-- Node1&#45;&gt;Node6 -->
<g id="edge6" class="edge">
<title>Node1&#45;&gt;Node6</title>
<path fill="none" stroke="midnightblue" d="M295.74,-280.08C289.75,-272.38 280.93,-261.03 273.63,-251.65"/>
<polygon fill="midnightblue" stroke="midnightblue" points="276.39,-249.5 267.48,-243.75 270.86,-253.79 276.39,-249.5"/>
</g>
<!-- Node3 -->
<g id="node3" class="node">
<title>Node3</title>
<g id="a_node3"><a xlink:title=" ">
<polygon fill="none" stroke="#bfbfbf" points="138.68,-0.5 138.68,-19.5 186.68,-19.5 186.68,-0.5 138.68,-0.5"/>
<text text-anchor="middle" x="162.68" y="-7.5" font-family="Helvetica,sans-Serif" font-size="10.00">stdint.h</text>
</a>
</g>
</g>
<!-- Node2&#45;&gt;Node3 -->
<g id="edge2" class="edge">
<title>Node2&#45;&gt;Node3</title>
<path fill="none" stroke="midnightblue" d="M354.23,-168.45C362.77,-160.12 374.67,-146.6 379.68,-132 391.17,-98.5 382.83,-78.75 355.68,-56 310.34,-18.01 238.85,-10.75 196.78,-10.08"/>
<polygon fill="midnightblue" stroke="midnightblue" points="196.77,-6.58 186.75,-10.04 196.74,-13.58 196.77,-6.58"/>
</g>
<!-- Node4 -->
<g id="node4" class="node">
<title>Node4</title>
<g id="a_node4"><a xlink:href="vmem_8h.html" target="_top" xlink:title="Data types and functions for VRAM access.">
<polygon fill="none" stroke="black" points="319.18,-112.5 319.18,-131.5 370.18,-131.5 370.18,-112.5 319.18,-112.5"/>
<text text-anchor="middle" x="344.68" y="-119.5" font-family="Helvetica,sans-Serif" font-size="10.00">vmem.h</text>
</a>
</g>
</g>
<!-- Node2&#45;&gt;Node4 -->
<g id="edge3" class="edge">
<title>Node2&#45;&gt;Node4</title>
<path fill="none" stroke="midnightblue" d="M344.68,-168.08C344.68,-161.01 344.68,-150.86 344.68,-141.99"/>
<polygon fill="midnightblue" stroke="midnightblue" points="348.18,-141.75 344.68,-131.75 341.18,-141.75 348.18,-141.75"/>
</g>
<!-- Node4&#45;&gt;Node3 -->
<g id="edge4" class="edge">
<title>Node4&#45;&gt;Node3</title>
<path fill="none" stroke="midnightblue" d="M346.57,-112.22C348.98,-98.46 351.34,-71.79 337.68,-56 319.49,-34.98 242.64,-21.5 197.05,-15.19"/>
<polygon fill="midnightblue" stroke="midnightblue" points="197.38,-11.71 187,-13.85 196.45,-18.64 197.38,-11.71"/>
</g>
<!-- Node5 -->
<g id="node5" class="node">
<title>Node5</title>
<g id="a_node5"><a xlink:href="io_8h.html" target="_top" xlink:title="Copyright (c) 2021 Daishi Mori (mori0091)">
<polygon fill="none" stroke="black" points="296.68,-56.5 296.68,-75.5 328.68,-75.5 328.68,-56.5 296.68,-56.5"/>
<text text-anchor="middle" x="312.68" y="-63.5" font-family="Helvetica,sans-Serif" font-size="10.00">io.h</text>
</a>
</g>
</g>
<!-- Node4&#45;&gt;Node5 -->
<g id="edge5" class="edge">
<title>Node4&#45;&gt;Node5</title>
<path fill="none" stroke="midnightblue" d="M339.39,-112.08C334.97,-104.61 328.51,-93.72 323.06,-84.52"/>
<polygon fill="midnightblue" stroke="midnightblue" points="325.97,-82.57 317.86,-75.75 319.95,-86.14 325.97,-82.57"/>
</g>
<!-- Node6&#45;&gt;Node2 -->
<g id="edge22" class="edge">
<title>Node6&#45;&gt;Node2</title>
<path fill="none" stroke="midnightblue" d="M274.17,-224.32C287.28,-215.9 307.39,-202.97 322.78,-193.07"/>
<polygon fill="midnightblue" stroke="midnightblue" points="324.7,-196.01 331.21,-187.65 320.91,-190.12 324.7,-196.01"/>
</g>
<!-- Node6&#45;&gt;Node3 -->
<g id="edge7" class="edge">
<title>Node6&#45;&gt;Node3</title>
<path fill="none" stroke="midnightblue" d="M205.07,-227.69C146.48,-218.8 56.97,-195.08 14.68,-132 -4.13,-103.94 -5.44,-83.14 14.68,-56 40.69,-20.9 93.4,-12.24 128.38,-10.59"/>
<polygon fill="midnightblue" stroke="midnightblue" points="128.73,-14.08 138.62,-10.28 128.52,-7.08 128.73,-14.08"/>
</g>
<!-- Node6&#45;&gt;Node4 -->
<g id="edge21" class="edge">
<title>Node6&#45;&gt;Node4</title>
<path fill="none" stroke="midnightblue" d="M263.47,-224.37C267.99,-211.28 277.8,-186.03 291.68,-168 300.53,-156.49 312.77,-145.86 323.26,-137.83"/>
<polygon fill="midnightblue" stroke="midnightblue" points="325.57,-140.47 331.54,-131.72 321.41,-134.84 325.57,-140.47"/>
</g>
<!-- Node7 -->
<g id="node7" class="node">
<title>Node7</title>
<g id="a_node7"><a xlink:href="vdp_8h.html" target="_top" xlink:title="Data types and functions for VDP (Video Display Proccessor) access.">
<polygon fill="none" stroke="black" points="187.68,-168.5 187.68,-187.5 227.68,-187.5 227.68,-168.5 187.68,-168.5"/>
<text text-anchor="middle" x="207.68" y="-175.5" font-family="Helvetica,sans-Serif" font-size="10.00">vdp.h</text>
</a>
</g>
</g>
<!-- Node6&#45;&gt;Node7 -->
<g id="edge8" class="edge">
<title>Node6&#45;&gt;Node7</title>
<path fill="none" stroke="midnightblue" d="M251.93,-224.08C244.21,-216.22 232.77,-204.57 223.46,-195.08"/>
<polygon fill="midnightblue" stroke="midnightblue" points="225.77,-192.44 216.27,-187.75 220.77,-197.34 225.77,-192.44"/>
</g>
<!-- Node7&#45;&gt;Node3 -->
<g id="edge11" class="edge">
<title>Node7&#45;&gt;Node3</title>
<path fill="none" stroke="midnightblue" d="M187.39,-174.95C144.94,-170.2 49.06,-156.9 29.68,-132 8.93,-105.35 9.99,-83.45 29.68,-56 52.02,-24.86 97.08,-14.99 128.53,-12.02"/>
<polygon fill="midnightblue" stroke="midnightblue" points="128.92,-15.5 138.63,-11.25 128.39,-8.52 128.92,-15.5"/>
</g>
<!-- Node7&#45;&gt;Node4 -->
<g id="edge13" class="edge">
<title>Node7&#45;&gt;Node4</title>
<path fill="none" stroke="midnightblue" d="M227.89,-169.03C250.46,-160.14 287.27,-145.63 313.53,-135.28"/>
<polygon fill="midnightblue" stroke="midnightblue" points="315,-138.46 323.02,-131.54 312.43,-131.95 315,-138.46"/>
</g>
<!-- Node7&#45;&gt;Node5 -->
<g id="edge12" class="edge">
<title>Node7&#45;&gt;Node5</title>
<path fill="none" stroke="midnightblue" d="M215.92,-168.37C233.47,-149.97 274.81,-106.67 297.36,-83.05"/>
<polygon fill="midnightblue" stroke="midnightblue" points="300.1,-85.24 304.48,-75.59 295.04,-80.41 300.1,-85.24"/>
</g>
<!-- Node8 -->
<g id="node8" class="node">
<title>Node8</title>
<g id="a_node8"><a xlink:title=" ">
<polygon fill="none" stroke="#bfbfbf" points="99.18,-112.5 99.18,-131.5 150.18,-131.5 150.18,-112.5 99.18,-112.5"/>
<text text-anchor="middle" x="124.68" y="-119.5" font-family="Helvetica,sans-Serif" font-size="10.00">assert.h</text>
</a>
</g>
</g>
<!-- Node7&#45;&gt;Node8 -->
<g id="edge9" class="edge">
<title>Node7&#45;&gt;Node8</title>
<path fill="none" stroke="midnightblue" d="M194.34,-168.32C181.52,-159.98 161.89,-147.21 146.74,-137.35"/>
<polygon fill="midnightblue" stroke="midnightblue" points="148.27,-134.17 137.98,-131.65 144.45,-140.04 148.27,-134.17"/>
</g>
<!-- Node9 -->
<g id="node9" class="node">
<title>Node9</title>
<g id="a_node9"><a xlink:title=" ">
<polygon fill="none" stroke="#bfbfbf" points="168.68,-112.5 168.68,-131.5 224.68,-131.5 224.68,-112.5 168.68,-112.5"/>
<text text-anchor="middle" x="196.68" y="-119.5" font-family="Helvetica,sans-Serif" font-size="10.00">stdbool.h</text>
</a>
</g>
</g>
<!-- Node7&#45;&gt;Node9 -->
<g id="edge10" class="edge">
<title>Node7&#45;&gt;Node9</title>
<path fill="none" stroke="midnightblue" d="M205.86,-168.08C204.4,-160.93 202.31,-150.64 200.48,-141.69"/>
<polygon fill="midnightblue" stroke="midnightblue" points="203.89,-140.85 198.46,-131.75 197.03,-142.25 203.89,-140.85"/>
</g>
<!-- Node10 -->
<g id="node10" class="node">
<title>Node10</title>
<g id="a_node10"><a xlink:href="bios_8h.html" target="_top" xlink:title="Copyright (c) 2021 Daishi Mori (mori0091)">
<polygon fill="none" stroke="black" points="38.68,-112.5 38.68,-131.5 80.68,-131.5 80.68,-112.5 38.68,-112.5"/>
<text text-anchor="middle" x="59.68" y="-119.5" font-family="Helvetica,sans-Serif" font-size="10.00">bios.h</text>
</a>
</g>
</g>
<!-- Node7&#45;&gt;Node10 -->
<g id="edge14" class="edge">
<title>Node7&#45;&gt;Node10</title>
<path fill="none" stroke="midnightblue" d="M187.41,-169.6C162.48,-160.51 119.9,-144.97 90.81,-134.36"/>
<polygon fill="midnightblue" stroke="midnightblue" points="91.73,-130.97 81.14,-130.83 89.33,-137.55 91.73,-130.97"/>
</g>
<!-- Node13 -->
<g id="node13" class="node">
<title>Node13</title>
<g id="a_node13"><a xlink:href="workarea_8h.html" target="_top" xlink:title="Copyright (c) 2021 Daishi Mori (mori0091)">
<polygon fill="none" stroke="black" points="214.68,-56.5 214.68,-75.5 278.68,-75.5 278.68,-56.5 214.68,-56.5"/>
<text text-anchor="middle" x="246.68" y="-63.5" font-family="Helvetica,sans-Serif" font-size="10.00">workarea.h</text>
</a>
</g>
</g>
<!-- Node7&#45;&gt;Node13 -->
<g id="edge19" class="edge">
<title>Node7&#45;&gt;Node13</title>
<path fill="none" stroke="midnightblue" d="M213.75,-168.46C219.7,-159.71 228.58,-145.51 233.68,-132 239.33,-117.01 242.68,-99.1 244.56,-85.88"/>
<polygon fill="midnightblue" stroke="midnightblue" points="248.07,-86.02 245.85,-75.66 241.12,-85.14 248.07,-86.02"/>
</g>
<!-- Node11 -->
<g id="node11" class="node">
<title>Node11</title>
<g id="a_node11"><a xlink:href="bios__const_8h.html" target="_top" xlink:title="Constant variables in the MSX BIOS ROM.">
<polygon fill="none" stroke="black" points="39.18,-56.5 39.18,-75.5 110.18,-75.5 110.18,-56.5 39.18,-56.5"/>
<text text-anchor="middle" x="74.68" y="-63.5" font-family="Helvetica,sans-Serif" font-size="10.00">bios_const.h</text>
</a>
</g>
</g>
<!-- Node10&#45;&gt;Node11 -->
<g id="edge15" class="edge">
<title>Node10&#45;&gt;Node11</title>
<path fill="none" stroke="midnightblue" d="M62.15,-112.08C64.16,-104.85 67.06,-94.41 69.57,-85.4"/>
<polygon fill="midnightblue" stroke="midnightblue" points="72.94,-86.32 72.25,-75.75 66.2,-84.45 72.94,-86.32"/>
</g>
<!-- Node12 -->
<g id="node12" class="node">
<title>Node12</title>
<g id="a_node12"><a xlink:href="bios__entry_8h.html" target="_top" xlink:title="Assembler entry points for MSX BIOS functions.">
<polygon fill="none" stroke="black" points="128.68,-56.5 128.68,-75.5 196.68,-75.5 196.68,-56.5 128.68,-56.5"/>
<text text-anchor="middle" x="162.68" y="-63.5" font-family="Helvetica,sans-Serif" font-size="10.00">bios_entry.h</text>
</a>
</g>
</g>
<!-- Node10&#45;&gt;Node12 -->
<g id="edge17" class="edge">
<title>Node10&#45;&gt;Node12</title>
<path fill="none" stroke="midnightblue" d="M76.23,-112.32C92.67,-103.7 118.11,-90.36 137.15,-80.39"/>
<polygon fill="midnightblue" stroke="midnightblue" points="138.94,-83.4 146.17,-75.65 135.69,-77.2 138.94,-83.4"/>
</g>
<!-- Node11&#45;&gt;Node3 -->
<g id="edge16" class="edge">
<title>Node11&#45;&gt;Node3</title>
<path fill="none" stroke="midnightblue" d="M88.82,-56.32C102.54,-47.9 123.61,-34.97 139.74,-25.07"/>
<polygon fill="midnightblue" stroke="midnightblue" points="141.88,-27.87 148.57,-19.65 138.22,-21.9 141.88,-27.87"/>
</g>
<!-- Node12&#45;&gt;Node3 -->
<g id="edge18" class="edge">
<title>Node12&#45;&gt;Node3</title>
<path fill="none" stroke="midnightblue" d="M162.68,-56.08C162.68,-49.01 162.68,-38.86 162.68,-29.99"/>
<polygon fill="midnightblue" stroke="midnightblue" points="166.18,-29.75 162.68,-19.75 159.18,-29.75 166.18,-29.75"/>
</g>
<!-- Node13&#45;&gt;Node3 -->
<g id="edge20" class="edge">
<title>Node13&#45;&gt;Node3</title>
<path fill="none" stroke="midnightblue" d="M233.18,-56.32C220.08,-47.9 199.97,-34.97 184.57,-25.07"/>
<polygon fill="midnightblue" stroke="midnightblue" points="186.44,-22.12 176.14,-19.65 182.66,-28.01 186.44,-22.12"/>
</g>
</g>
</svg>
