<?xml version="1.0" encoding="UTF-8" standalone="no"?>
<!DOCTYPE svg PUBLIC "-//W3C//DTD SVG 1.1//EN"
 "http://www.w3.org/Graphics/SVG/1.1/DTD/svg11.dtd">
<!-- Generated by graphviz version 9.0.0 (20230911.1827)
 -->
<!-- Title: include/workarea.h Pages: 1 -->
<svg width="155pt" height="193pt"
 viewBox="0.00 0.00 154.88 193.00" xmlns="http://www.w3.org/2000/svg" xmlns:xlink="http://www.w3.org/1999/xlink">
<g id="graph0" class="graph" transform="scale(1 1) rotate(0) translate(4 189)">
<title>include/workarea.h</title>
<!-- Node1 -->
<g id="Node000001" class="node">
<title>Node1</title>
<g id="a_Node000001"><a xlink:title="Definitions of MSX SYSTEM Workarea.">
<polygon fill="#999999" stroke="#666666" points="97,-185 0,-185 0,-165.75 97,-165.75 97,-185"/>
<text text-anchor="middle" x="48.5" y="-171.5" font-family="Helvetica,sans-Serif" font-size="10.00">include/workarea.h</text>
</a>
</g>
</g>
<!-- Node2 -->
<g id="Node000002" class="node">
<title>Node2</title>
<g id="a_Node000002"><a xlink:title=" ">
<polygon fill="#e0e0e0" stroke="#999999" points="85.25,-19.25 37.75,-19.25 37.75,0 85.25,0 85.25,-19.25"/>
<text text-anchor="middle" x="61.5" y="-5.75" font-family="Helvetica,sans-Serif" font-size="10.00">stdint.h</text>
</a>
</g>
</g>
<!-- Node1&#45;&gt;Node2 -->
<g id="edge1_Node000001_Node000002" class="edge">
<title>Node1&#45;&gt;Node2</title>
<g id="a_edge1_Node000001_Node000002"><a xlink:title=" ">
<path fill="none" stroke="#63b8ff" d="M44,-165.48C34.44,-145.37 14.07,-95.04 27.5,-55.25 30.91,-45.15 37.62,-35.52 44.19,-27.82"/>
<polygon fill="#63b8ff" stroke="#63b8ff" points="46.66,-30.3 50.87,-20.58 41.51,-25.55 46.66,-30.3"/>
</a>
</g>
</g>
<!-- Node3 -->
<g id="Node000003" class="node">
<title>Node3</title>
<g id="a_Node000003"><a xlink:href="config_8h.html" target="_top" xlink:title="Hack for C Compiler portability.">
<polygon fill="white" stroke="#666666" points="86,-74.5 37,-74.5 37,-55.25 86,-55.25 86,-74.5"/>
<text text-anchor="middle" x="61.5" y="-61" font-family="Helvetica,sans-Serif" font-size="10.00">config.h</text>
</a>
</g>
</g>
<!-- Node1&#45;&gt;Node3 -->
<g id="edge2_Node000001_Node000003" class="edge">
<title>Node1&#45;&gt;Node3</title>
<g id="a_edge2_Node000001_Node000003"><a xlink:title=" ">
<path fill="none" stroke="#63b8ff" d="M49.56,-165.5C51.63,-148.25 56.23,-109.83 59.08,-86.06"/>
<polygon fill="#63b8ff" stroke="#63b8ff" points="62.53,-86.72 60.24,-76.38 55.58,-85.89 62.53,-86.72"/>
</a>
</g>
</g>
<!-- Node4 -->
<g id="Node000004" class="node">
<title>Node4</title>
<g id="a_Node000004"><a xlink:href="bios__const_8h.html" target="_top" xlink:title="Constant variables in the MSX BIOS ROM.">
<polygon fill="white" stroke="#666666" points="146.88,-129.75 76.12,-129.75 76.12,-110.5 146.88,-110.5 146.88,-129.75"/>
<text text-anchor="middle" x="111.5" y="-116.25" font-family="Helvetica,sans-Serif" font-size="10.00">bios_const.h</text>
</a>
</g>
</g>
<!-- Node1&#45;&gt;Node4 -->
<g id="edge4_Node000001_Node000004" class="edge">
<title>Node1&#45;&gt;Node4</title>
<g id="a_edge4_Node000001_Node000004"><a xlink:title=" ">
<path fill="none" stroke="#63b8ff" d="M59.19,-165.34C68.2,-157.72 81.33,-146.62 92.18,-137.45"/>
<polygon fill="#63b8ff" stroke="#63b8ff" points="94.44,-140.13 99.81,-131 89.92,-134.78 94.44,-140.13"/>
</a>
</g>
</g>
<!-- Node3&#45;&gt;Node2 -->
<g id="edge3_Node000003_Node000002" class="edge">
<title>Node3&#45;&gt;Node2</title>
<g id="a_edge3_Node000003_Node000002"><a xlink:title=" ">
<path fill="none" stroke="#63b8ff" d="M61.5,-55.08C61.5,-48.57 61.5,-39.42 61.5,-31.12"/>
<polygon fill="#63b8ff" stroke="#63b8ff" points="65,-31.12 61.5,-21.12 58,-31.12 65,-31.12"/>
</a>
</g>
</g>
<!-- Node4&#45;&gt;Node2 -->
<g id="edge5_Node000004_Node000002" class="edge">
<title>Node4&#45;&gt;Node2</title>
<g id="a_edge5_Node000004_Node000002"><a xlink:title=" ">
<path fill="none" stroke="#63b8ff" d="M110.19,-110.08C108.12,-97.35 103.36,-73.66 94.5,-55.25 89.92,-45.73 83.2,-36.17 77.03,-28.36"/>
<polygon fill="#63b8ff" stroke="#63b8ff" points="79.74,-26.15 70.66,-20.7 74.36,-30.62 79.74,-26.15"/>
</a>
</g>
</g>
<!-- Node4&#45;&gt;Node3 -->
<g id="edge6_Node000004_Node000003" class="edge">
<title>Node4&#45;&gt;Node3</title>
<g id="a_edge6_Node000004_Node000003"><a xlink:title=" ">
<path fill="none" stroke="#63b8ff" d="M103.24,-110.33C96.34,-102.98 86.28,-92.26 77.76,-83.19"/>
<polygon fill="#63b8ff" stroke="#63b8ff" points="80.37,-80.86 70.97,-75.96 75.27,-85.65 80.37,-80.86"/>
</a>
</g>
</g>
</g>
</svg>
