<?xml version="1.0" encoding="UTF-8" standalone="no"?>
<!DOCTYPE svg PUBLIC "-//W3C//DTD SVG 1.1//EN"
 "http://www.w3.org/Graphics/SVG/1.1/DTD/svg11.dtd">
<!-- Generated by graphviz version 7.0.4 (20221203.1631)
 -->
<!-- Title: include/workarea.h Pages: 1 -->
<svg width="195pt" height="192pt"
 viewBox="0.00 0.00 195.00 192.00" xmlns="http://www.w3.org/2000/svg" xmlns:xlink="http://www.w3.org/1999/xlink">
<g id="graph0" class="graph" transform="scale(1 1) rotate(0) translate(4 188)">
<title>include/workarea.h</title>
<!-- Node1 -->
<g id="node1" class="node">
<title>Node1</title>
<g id="a_node1"><a xlink:title="Definitions of MSX SYSTEM Workarea.">
<polygon fill="#999999" stroke="#666666" points="98,-184 0,-184 0,-165 98,-165 98,-184"/>
<text text-anchor="middle" x="49" y="-172" font-family="Helvetica,sans-Serif" font-size="10.00">include/workarea.h</text>
</a>
</g>
</g>
<!-- Node2 -->
<g id="node2" class="node">
<title>Node2</title>
<g id="a_node2"><a xlink:href="msx_8h.html" target="_top" xlink:title="Using #include &lt;msx.h&gt; includes almost all C header files in libmsx, for ease to use.">
<polygon fill="white" stroke="#666666" points="93,-19 17,-19 17,0 93,0 93,-19"/>
<text text-anchor="middle" x="55" y="-7" font-family="Helvetica,sans-Serif" font-size="10.00">include/msx.h</text>
</a>
</g>
</g>
<!-- Node1&#45;&gt;Node2 -->
<g id="edge1" class="edge">
<title>Node1&#45;&gt;Node2</title>
<path fill="none" stroke="#63b8ff" d="M42.02,-154.05C39.6,-146.36 37.2,-137.37 36,-129 30.13,-87.95 44.87,-39.12 51.72,-19.4"/>
<polygon fill="#63b8ff" stroke="#63b8ff" points="38.65,-155.02 45.17,-163.36 45.28,-152.77 38.65,-155.02"/>
</g>
<!-- Node3 -->
<g id="node3" class="node">
<title>Node3</title>
<g id="a_node3"><a xlink:href="vdp_8h.html" target="_top" xlink:title="Data types and functions for VDP (Video Display Proccessor) access.">
<polygon fill="white" stroke="#666666" points="119,-129 45,-129 45,-110 119,-110 119,-129"/>
<text text-anchor="middle" x="82" y="-117" font-family="Helvetica,sans-Serif" font-size="10.00">include/vdp.h</text>
</a>
</g>
</g>
<!-- Node1&#45;&gt;Node3 -->
<g id="edge2" class="edge">
<title>Node1&#45;&gt;Node3</title>
<path fill="none" stroke="#63b8ff" d="M60.47,-155.08C65.88,-146.4 72.08,-136.44 76.43,-129.44"/>
<polygon fill="#63b8ff" stroke="#63b8ff" points="57.56,-153.12 55.25,-163.46 63.51,-156.82 57.56,-153.12"/>
</g>
<!-- Node3&#45;&gt;Node2 -->
<g id="edge5" class="edge">
<title>Node3&#45;&gt;Node2</title>
<path fill="none" stroke="#63b8ff" d="M77.02,-98.57C71.12,-74.98 61.56,-36.73 57.24,-19.46"/>
<polygon fill="#63b8ff" stroke="#63b8ff" points="73.6,-99.34 79.42,-108.19 80.39,-97.64 73.6,-99.34"/>
</g>
<!-- Node4 -->
<g id="node4" class="node">
<title>Node4</title>
<g id="a_node4"><a xlink:href="metasprite_8h.html" target="_top" xlink:title="Meta&#45;sprite ; an aggregate of sprites.">
<polygon fill="white" stroke="#666666" points="187,-74 83,-74 83,-55 187,-55 187,-74"/>
<text text-anchor="middle" x="135" y="-62" font-family="Helvetica,sans-Serif" font-size="10.00">include/metasprite.h</text>
</a>
</g>
</g>
<!-- Node3&#45;&gt;Node4 -->
<g id="edge3" class="edge">
<title>Node3&#45;&gt;Node4</title>
<path fill="none" stroke="#63b8ff" d="M98.72,-101.78C107.78,-92.72 118.6,-81.9 126.06,-74.44"/>
<polygon fill="#63b8ff" stroke="#63b8ff" points="96.42,-99.13 91.82,-108.68 101.37,-104.08 96.42,-99.13"/>
</g>
<!-- Node4&#45;&gt;Node2 -->
<g id="edge4" class="edge">
<title>Node4&#45;&gt;Node2</title>
<path fill="none" stroke="#63b8ff" d="M111.89,-48.19C97.77,-38.84 80.22,-27.21 68.37,-19.36"/>
<polygon fill="#63b8ff" stroke="#63b8ff" points="109.9,-51.07 120.17,-53.67 113.76,-45.23 109.9,-51.07"/>
</g>
</g>
</svg>
