<?xml version="1.0" encoding="UTF-8" standalone="no"?>
<!DOCTYPE svg PUBLIC "-//W3C//DTD SVG 1.1//EN"
 "http://www.w3.org/Graphics/SVG/1.1/DTD/svg11.dtd">
<!-- Generated by graphviz version 7.0.5 (20221223.1930)
 -->
<!-- Title: include/workarea.h Pages: 1 -->
<svg width="139pt" height="137pt"
 viewBox="0.00 0.00 139.00 137.00" xmlns="http://www.w3.org/2000/svg" xmlns:xlink="http://www.w3.org/1999/xlink">
<g id="graph0" class="graph" transform="scale(1 1) rotate(0) translate(4 133)">
<title>include/workarea.h</title>
<!-- Node1 -->
<g id="node1" class="node">
<title>Node1</title>
<g id="a_node1"><a xlink:title="Definitions of MSX SYSTEM Workarea.">
<polygon fill="#999999" stroke="#666666" points="107,-129 9,-129 9,-110 107,-110 107,-129"/>
<text text-anchor="middle" x="58" y="-117" font-family="Helvetica,sans-Serif" font-size="10.00">include/workarea.h</text>
</a>
</g>
</g>
<!-- Node2 -->
<g id="node2" class="node">
<title>Node2</title>
<g id="a_node2"><a xlink:title=" ">
<polygon fill="#e0e0e0" stroke="#999999" points="48,-19 0,-19 0,0 48,0 48,-19"/>
<text text-anchor="middle" x="24" y="-7" font-family="Helvetica,sans-Serif" font-size="10.00">stdint.h</text>
</a>
</g>
</g>
<!-- Node1&#45;&gt;Node2 -->
<g id="edge1" class="edge">
<title>Node1&#45;&gt;Node2</title>
<path fill="none" stroke="#63b8ff" d="M44.51,-109.75C33.71,-101.87 19.35,-89.21 13,-74 7.13,-59.93 10.62,-42.84 15.18,-29.94"/>
<polygon fill="#63b8ff" stroke="#63b8ff" points="18.34,-31.46 18.85,-20.88 11.85,-28.83 18.34,-31.46"/>
</g>
<!-- Node3 -->
<g id="node3" class="node">
<title>Node3</title>
<g id="a_node3"><a xlink:href="config_8h.html" target="_top" xlink:title="Hack for C Compiler portability.">
<polygon fill="white" stroke="#666666" points="131,-19 81,-19 81,0 131,0 131,-19"/>
<text text-anchor="middle" x="106" y="-7" font-family="Helvetica,sans-Serif" font-size="10.00">config.h</text>
</a>
</g>
</g>
<!-- Node1&#45;&gt;Node3 -->
<g id="edge2" class="edge">
<title>Node1&#45;&gt;Node3</title>
<path fill="none" stroke="#63b8ff" d="M71.31,-109.67C82,-101.75 96.29,-89.05 103,-74 109.06,-60.39 109.57,-43.48 108.69,-30.53"/>
<polygon fill="#63b8ff" stroke="#63b8ff" points="112.18,-30.26 107.66,-20.67 105.22,-30.98 112.18,-30.26"/>
</g>
<!-- Node4 -->
<g id="node4" class="node">
<title>Node4</title>
<g id="a_node4"><a xlink:href="bios__const_8h.html" target="_top" xlink:title="Constant variables in the MSX BIOS ROM.">
<polygon fill="white" stroke="#666666" points="93.5,-74 22.5,-74 22.5,-55 93.5,-55 93.5,-74"/>
<text text-anchor="middle" x="58" y="-62" font-family="Helvetica,sans-Serif" font-size="10.00">bios_const.h</text>
</a>
</g>
</g>
<!-- Node1&#45;&gt;Node4 -->
<g id="edge3" class="edge">
<title>Node1&#45;&gt;Node4</title>
<path fill="none" stroke="#63b8ff" d="M58,-109.75C58,-103.27 58,-94.16 58,-85.9"/>
<polygon fill="#63b8ff" stroke="#63b8ff" points="61.5,-85.96 58,-75.96 54.5,-85.96 61.5,-85.96"/>
</g>
<!-- Node4&#45;&gt;Node2 -->
<g id="edge4" class="edge">
<title>Node4&#45;&gt;Node2</title>
<path fill="none" stroke="#63b8ff" d="M52.39,-54.75C47.88,-47.73 41.41,-37.64 35.79,-28.87"/>
<polygon fill="#63b8ff" stroke="#63b8ff" points="38.9,-27.24 30.55,-20.72 33.01,-31.02 38.9,-27.24"/>
</g>
<!-- Node4&#45;&gt;Node3 -->
<g id="edge5" class="edge">
<title>Node4&#45;&gt;Node3</title>
<path fill="none" stroke="#63b8ff" d="M65.93,-54.75C72.56,-47.43 82.22,-36.76 90.39,-27.74"/>
<polygon fill="#63b8ff" stroke="#63b8ff" points="92.77,-30.33 96.89,-20.56 87.58,-25.63 92.77,-30.33"/>
</g>
</g>
</svg>
