<?xml version="1.0" encoding="UTF-8" standalone="no"?>
<!DOCTYPE svg PUBLIC "-//W3C//DTD SVG 1.1//EN"
 "http://www.w3.org/Graphics/SVG/1.1/DTD/svg11.dtd">
<!-- Generated by graphviz version 3.0.0 (20220413.0242)
 -->
<!-- Title: include/workarea.h Pages: 1 -->
<svg width="195pt" height="196pt"
 viewBox="0.00 0.00 195.00 196.00" xmlns="http://www.w3.org/2000/svg" xmlns:xlink="http://www.w3.org/1999/xlink">
<g id="graph0" class="graph" transform="scale(1 1) rotate(0) translate(4 192)">
<title>include/workarea.h</title>
<!-- Node1 -->
<g id="node1" class="node">
<title>Node1</title>
<g id="a_node1"><a xlink:title="Copyright (c) 2021 Daishi Mori (mori0091)">
<polygon fill="#bfbfbf" stroke="black" points="0,-168.5 0,-187.5 98,-187.5 98,-168.5 0,-168.5"/>
<text text-anchor="middle" x="49" y="-175.5" font-family="Helvetica,sans-Serif" font-size="10.00">include/workarea.h</text>
</a>
</g>
</g>
<!-- Node2 -->
<g id="node2" class="node">
<title>Node2</title>
<g id="a_node2"><a xlink:href="msx_8h.html" target="_top" xlink:title="Copyright (c) 2021 Daishi Mori (mori0091)">
<polygon fill="none" stroke="black" points="17,-0.5 17,-19.5 93,-19.5 93,-0.5 17,-0.5"/>
<text text-anchor="middle" x="55" y="-7.5" font-family="Helvetica,sans-Serif" font-size="10.00">include/msx.h</text>
</a>
</g>
</g>
<!-- Node1&#45;&gt;Node2 -->
<g id="edge1" class="edge">
<title>Node1&#45;&gt;Node2</title>
<path fill="none" stroke="midnightblue" d="M42.45,-158.7C39.89,-150.63 37.27,-140.96 36,-132 30.04,-89.89 44.99,-39.72 51.81,-19.79"/>
<polygon fill="midnightblue" stroke="midnightblue" points="39.14,-159.84 45.66,-168.2 45.77,-157.6 39.14,-159.84"/>
</g>
<!-- Node3 -->
<g id="node3" class="node">
<title>Node3</title>
<g id="a_node3"><a xlink:href="vdp_8h.html" target="_top" xlink:title="Data types and functions for VDP (Video Display Proccessor) access.">
<polygon fill="none" stroke="black" points="45,-112.5 45,-131.5 119,-131.5 119,-112.5 45,-112.5"/>
<text text-anchor="middle" x="82" y="-119.5" font-family="Helvetica,sans-Serif" font-size="10.00">include/vdp.h</text>
</a>
</g>
</g>
<!-- Node1&#45;&gt;Node3 -->
<g id="edge2" class="edge">
<title>Node1&#45;&gt;Node3</title>
<path fill="none" stroke="midnightblue" d="M59.83,-159.27C65.47,-150.05 72.12,-139.17 76.65,-131.75"/>
<polygon fill="midnightblue" stroke="midnightblue" points="56.68,-157.73 54.45,-168.08 62.65,-161.38 56.68,-157.73"/>
</g>
<!-- Node3&#45;&gt;Node2 -->
<g id="edge5" class="edge">
<title>Node3&#45;&gt;Node2</title>
<path fill="none" stroke="midnightblue" d="M77.42,-102.35C71.51,-78.25 61.46,-37.31 57.11,-19.59"/>
<polygon fill="midnightblue" stroke="midnightblue" points="74.1,-103.49 79.88,-112.37 80.9,-101.82 74.1,-103.49"/>
</g>
<!-- Node4 -->
<g id="node4" class="node">
<title>Node4</title>
<g id="a_node4"><a xlink:href="metasprite_8h.html" target="_top" xlink:title="Copyright (c) 2021 Daishi Mori (mori0091)">
<polygon fill="none" stroke="black" points="83,-56.5 83,-75.5 187,-75.5 187,-56.5 83,-56.5"/>
<text text-anchor="middle" x="135" y="-63.5" font-family="Helvetica,sans-Serif" font-size="10.00">include/metasprite.h</text>
</a>
</g>
</g>
<!-- Node3&#45;&gt;Node4 -->
<g id="edge3" class="edge">
<title>Node3&#45;&gt;Node4</title>
<path fill="none" stroke="midnightblue" d="M97.98,-104.72C107.32,-95.2 118.75,-83.56 126.41,-75.75"/>
<polygon fill="midnightblue" stroke="midnightblue" points="95.26,-102.49 90.75,-112.08 100.25,-107.4 95.26,-102.49"/>
</g>
<!-- Node4&#45;&gt;Node2 -->
<g id="edge4" class="edge">
<title>Node4&#45;&gt;Node2</title>
<path fill="none" stroke="midnightblue" d="M113.7,-50.62C99.08,-40.76 80.17,-27.99 67.82,-19.65"/>
<polygon fill="midnightblue" stroke="midnightblue" points="111.9,-53.63 122.15,-56.32 115.82,-47.83 111.9,-53.63"/>
</g>
</g>
</svg>
