<?xml version="1.0" encoding="UTF-8" standalone="no"?>
<!DOCTYPE svg PUBLIC "-//W3C//DTD SVG 1.1//EN"
 "http://www.w3.org/Graphics/SVG/1.1/DTD/svg11.dtd">
<!-- Generated by graphviz version 2.43.0 (0)
 -->
<!-- Title: include/workarea.h Pages: 1 -->
<svg width="4884pt" height="207pt"
 viewBox="0.00 0.00 4883.50 207.00" xmlns="http://www.w3.org/2000/svg" xmlns:xlink="http://www.w3.org/1999/xlink">
<g id="graph0" class="graph" transform="scale(1 1) rotate(0) translate(4 203)">
<title>include/workarea.h</title>
<!-- Node1 -->
<g id="node1" class="node">
<title>Node1</title>
<g id="a_node1"><a xlink:title=" ">
<polygon fill="#bfbfbf" stroke="black" points="3681.5,-179.5 3681.5,-198.5 3790.5,-198.5 3790.5,-179.5 3681.5,-179.5"/>
<text text-anchor="middle" x="3736" y="-186.5" font-family="Helvetica,sans-Serif" font-size="10.00">include/workarea.h</text>
</a>
</g>
</g>
<!-- Node2 -->
<g id="node2" class="node">
<title>Node2</title>
<g id="a_node2"><a xlink:href="vdp_8h.html" target="_top" xlink:title=" ">
<polygon fill="none" stroke="black" points="2628,-123.5 2628,-142.5 2710,-142.5 2710,-123.5 2628,-123.5"/>
<text text-anchor="middle" x="2669" y="-130.5" font-family="Helvetica,sans-Serif" font-size="10.00">include/vdp.h</text>
</a>
</g>
</g>
<!-- Node1&#45;&gt;Node2 -->
<g id="edge1" class="edge">
<title>Node1&#45;&gt;Node2</title>
<path fill="none" stroke="midnightblue" d="M3671.23,-184.72C3472.11,-174.64 2872.59,-144.3 2710.04,-136.08"/>
<polygon fill="midnightblue" stroke="midnightblue" points="3671.09,-188.22 3681.25,-185.23 3671.44,-181.23 3671.09,-188.22"/>
</g>
<!-- Node4 -->
<g id="node4" class="node">
<title>Node4</title>
<g id="a_node4"><a xlink:href="msx_8h.html" target="_top" xlink:title=" ">
<polygon fill="none" stroke="black" points="4790.5,-0.5 4790.5,-19.5 4875.5,-19.5 4875.5,-0.5 4790.5,-0.5"/>
<text text-anchor="middle" x="4833" y="-7.5" font-family="Helvetica,sans-Serif" font-size="10.00">include/msx.h</text>
</a>
</g>
</g>
<!-- Node1&#45;&gt;Node4 -->
<g id="edge41" class="edge">
<title>Node1&#45;&gt;Node4</title>
<path fill="none" stroke="midnightblue" d="M3800.57,-187.02C4025.68,-182.95 4765.94,-163.78 4836,-87 4853,-68.37 4842.96,-35.23 4836.77,-19.61"/>
<polygon fill="midnightblue" stroke="midnightblue" points="3800.5,-183.52 3790.56,-187.2 3800.62,-190.52 3800.5,-183.52"/>
</g>
<!-- Node3 -->
<g id="node3" class="node">
<title>Node3</title>
<g id="a_node3"><a xlink:href="metasprite_8h.html" target="_top" xlink:title=" ">
<polygon fill="none" stroke="black" points="207.5,-62 207.5,-81 324.5,-81 324.5,-62 207.5,-62"/>
<text text-anchor="middle" x="266" y="-69" font-family="Helvetica,sans-Serif" font-size="10.00">include/metasprite.h</text>
</a>
</g>
</g>
<!-- Node2&#45;&gt;Node3 -->
<g id="edge2" class="edge">
<title>Node2&#45;&gt;Node3</title>
<path fill="none" stroke="midnightblue" d="M2617.4,-131.6C2295.37,-129 567.61,-113.91 334,-87 322.73,-85.7 310.57,-83.4 299.69,-81.01"/>
<polygon fill="midnightblue" stroke="midnightblue" points="2617.8,-135.1 2627.82,-131.68 2617.85,-128.1 2617.8,-135.1"/>
</g>
<!-- Node2&#45;&gt;Node4 -->
<g id="edge7" class="edge">
<title>Node2&#45;&gt;Node4</title>
<path fill="none" stroke="midnightblue" d="M2720.44,-131.78C3042.73,-130.28 4771.76,-120.7 4814,-87 4834.41,-70.71 4834.89,-36.11 4833.86,-19.82"/>
<polygon fill="midnightblue" stroke="midnightblue" points="2719.99,-128.28 2710,-131.83 2720.02,-135.28 2719.99,-128.28"/>
</g>
<!-- Node8 -->
<g id="node8" class="node">
<title>Node8</title>
<g id="a_node8"><a xlink:href="vdp_8c.html" target="_top" xlink:title=" ">
<polygon fill="none" stroke="black" points="343,-62 343,-81 403,-81 403,-62 343,-62"/>
<text text-anchor="middle" x="373" y="-69" font-family="Helvetica,sans-Serif" font-size="10.00">src/vdp.c</text>
</a>
</g>
</g>
<!-- Node2&#45;&gt;Node8 -->
<g id="edge8" class="edge">
<title>Node2&#45;&gt;Node8</title>
<path fill="none" stroke="midnightblue" d="M2617.55,-132.01C2302.04,-131.91 634.94,-129.4 412,-87 405.33,-85.73 398.3,-83.44 392.07,-81.05"/>
<polygon fill="midnightblue" stroke="midnightblue" points="2617.77,-135.51 2627.78,-132.01 2617.78,-128.51 2617.77,-135.51"/>
</g>
<!-- Node9 -->
<g id="node9" class="node">
<title>Node9</title>
<g id="a_node9"><a xlink:href="vdp__cmd__execute__HMMM_8c.html" target="_top" xlink:title=" ">
<polygon fill="none" stroke="black" points="421,-56.5 421,-86.5 543,-86.5 543,-56.5 421,-56.5"/>
<text text-anchor="start" x="429" y="-74.5" font-family="Helvetica,sans-Serif" font-size="10.00">src/vdp_cmd_execute</text>
<text text-anchor="middle" x="482" y="-63.5" font-family="Helvetica,sans-Serif" font-size="10.00">_HMMM.c</text>
</a>
</g>
</g>
<!-- Node2&#45;&gt;Node9 -->
<g id="edge9" class="edge">
<title>Node2&#45;&gt;Node9</title>
<path fill="none" stroke="midnightblue" d="M2617.48,-132.18C2334.87,-133 970.35,-134.37 552,-87 549.16,-86.68 546.27,-86.3 543.36,-85.87"/>
<polygon fill="midnightblue" stroke="midnightblue" points="2617.85,-135.68 2627.84,-132.15 2617.83,-128.68 2617.85,-135.68"/>
</g>
<!-- Node10 -->
<g id="node10" class="node">
<title>Node10</title>
<g id="a_node10"><a xlink:href="vdp__cmd__execute__HMMV_8c.html" target="_top" xlink:title=" ">
<polygon fill="none" stroke="black" points="561,-56.5 561,-86.5 683,-86.5 683,-56.5 561,-56.5"/>
<text text-anchor="start" x="569" y="-74.5" font-family="Helvetica,sans-Serif" font-size="10.00">src/vdp_cmd_execute</text>
<text text-anchor="middle" x="622" y="-63.5" font-family="Helvetica,sans-Serif" font-size="10.00">_HMMV.c</text>
</a>
</g>
</g>
<!-- Node2&#45;&gt;Node10 -->
<g id="edge10" class="edge">
<title>Node2&#45;&gt;Node10</title>
<path fill="none" stroke="midnightblue" d="M2617.46,-132.09C2346.11,-132.39 1081,-131.34 692,-87 689.16,-86.68 686.27,-86.29 683.36,-85.87"/>
<polygon fill="midnightblue" stroke="midnightblue" points="2617.8,-135.59 2627.79,-132.08 2617.79,-128.59 2617.8,-135.59"/>
</g>
<!-- Node11 -->
<g id="node11" class="node">
<title>Node11</title>
<g id="a_node11"><a xlink:href="vdp__cmd__execute__LMMM_8c.html" target="_top" xlink:title=" ">
<polygon fill="none" stroke="black" points="701,-56.5 701,-86.5 823,-86.5 823,-56.5 701,-56.5"/>
<text text-anchor="start" x="709" y="-74.5" font-family="Helvetica,sans-Serif" font-size="10.00">src/vdp_cmd_execute</text>
<text text-anchor="middle" x="762" y="-63.5" font-family="Helvetica,sans-Serif" font-size="10.00">_LMMM.c</text>
</a>
</g>
</g>
<!-- Node2&#45;&gt;Node11 -->
<g id="edge11" class="edge">
<title>Node2&#45;&gt;Node11</title>
<path fill="none" stroke="midnightblue" d="M2617.4,-131.99C2357.66,-131.74 1191.69,-128.32 832,-87 829.16,-86.67 826.27,-86.29 823.36,-85.86"/>
<polygon fill="midnightblue" stroke="midnightblue" points="2617.67,-135.49 2627.67,-132 2617.67,-128.49 2617.67,-135.49"/>
</g>
<!-- Node12 -->
<g id="node12" class="node">
<title>Node12</title>
<g id="a_node12"><a xlink:href="vdp__cmd__execute__LMMV_8c.html" target="_top" xlink:title=" ">
<polygon fill="none" stroke="black" points="841,-56.5 841,-86.5 963,-86.5 963,-56.5 841,-56.5"/>
<text text-anchor="start" x="849" y="-74.5" font-family="Helvetica,sans-Serif" font-size="10.00">src/vdp_cmd_execute</text>
<text text-anchor="middle" x="902" y="-63.5" font-family="Helvetica,sans-Serif" font-size="10.00">_LMMV.c</text>
</a>
</g>
</g>
<!-- Node2&#45;&gt;Node12 -->
<g id="edge12" class="edge">
<title>Node2&#45;&gt;Node12</title>
<path fill="none" stroke="midnightblue" d="M2617.79,-131.87C2370.98,-131.05 1302.65,-125.32 972,-87 969.16,-86.67 966.27,-86.28 963.36,-85.85"/>
<polygon fill="midnightblue" stroke="midnightblue" points="2617.9,-135.37 2627.91,-131.9 2617.92,-128.37 2617.9,-135.37"/>
</g>
<!-- Node13 -->
<g id="node13" class="node">
<title>Node13</title>
<g id="a_node13"><a xlink:href="vdp__cmd__set__unrestricted_8c.html" target="_top" xlink:title=" ">
<polygon fill="none" stroke="black" points="981,-62 981,-81 1151,-81 1151,-62 981,-62"/>
<text text-anchor="middle" x="1066" y="-69" font-family="Helvetica,sans-Serif" font-size="10.00">src/vdp_cmd_set_unrestricted.c</text>
</a>
</g>
</g>
<!-- Node2&#45;&gt;Node13 -->
<g id="edge13" class="edge">
<title>Node2&#45;&gt;Node13</title>
<path fill="none" stroke="midnightblue" d="M2617.66,-131.32C2387.85,-128.15 1452.23,-113.79 1160,-87 1144.87,-85.61 1128.48,-83.35 1113.68,-81.02"/>
<polygon fill="midnightblue" stroke="midnightblue" points="2617.7,-134.82 2627.75,-131.46 2617.8,-127.82 2617.7,-134.82"/>
</g>
<!-- Node14 -->
<g id="node14" class="node">
<title>Node14</title>
<g id="a_node14"><a xlink:href="vdp__get__sprite__mode_8c.html" target="_top" xlink:title=" ">
<polygon fill="none" stroke="black" points="1169,-56.5 1169,-86.5 1275,-86.5 1275,-56.5 1169,-56.5"/>
<text text-anchor="start" x="1177" y="-74.5" font-family="Helvetica,sans-Serif" font-size="10.00">src/vdp_get_sprite</text>
<text text-anchor="middle" x="1222" y="-63.5" font-family="Helvetica,sans-Serif" font-size="10.00">_mode.c</text>
</a>
</g>
</g>
<!-- Node2&#45;&gt;Node14 -->
<g id="edge14" class="edge">
<title>Node2&#45;&gt;Node14</title>
<path fill="none" stroke="midnightblue" d="M2617.63,-131.69C2399.54,-130.15 1549.32,-121.99 1284,-87 1281.15,-86.62 1278.24,-86.18 1275.31,-85.67"/>
<polygon fill="midnightblue" stroke="midnightblue" points="2617.81,-135.19 2627.83,-131.76 2617.86,-128.19 2617.81,-135.19"/>
</g>
<!-- Node15 -->
<g id="node15" class="node">
<title>Node15</title>
<g id="a_node15"><a xlink:href="vdp__get__status_8c.html" target="_top" xlink:title=" ">
<polygon fill="none" stroke="black" points="1293,-62 1293,-81 1409,-81 1409,-62 1293,-62"/>
<text text-anchor="middle" x="1351" y="-69" font-family="Helvetica,sans-Serif" font-size="10.00">src/vdp_get_status.c</text>
</a>
</g>
</g>
<!-- Node2&#45;&gt;Node15 -->
<g id="edge15" class="edge">
<title>Node2&#45;&gt;Node15</title>
<path fill="none" stroke="midnightblue" d="M2617.67,-131.37C2413.16,-128.66 1655.92,-116.79 1418,-87 1407.14,-85.64 1395.43,-83.38 1384.88,-81.05"/>
<polygon fill="midnightblue" stroke="midnightblue" points="2617.79,-134.87 2627.83,-131.5 2617.88,-127.87 2617.79,-134.87"/>
</g>
<!-- Node16 -->
<g id="node16" class="node">
<title>Node16</title>
<g id="a_node16"><a xlink:href="vdp__set__adjust_8c.html" target="_top" xlink:title=" ">
<polygon fill="none" stroke="black" points="1427,-62 1427,-81 1543,-81 1543,-62 1427,-62"/>
<text text-anchor="middle" x="1485" y="-69" font-family="Helvetica,sans-Serif" font-size="10.00">src/vdp_set_adjust.c</text>
</a>
</g>
</g>
<!-- Node2&#45;&gt;Node16 -->
<g id="edge16" class="edge">
<title>Node2&#45;&gt;Node16</title>
<path fill="none" stroke="midnightblue" d="M2617.64,-131.11C2427.31,-127.63 1762.33,-113.79 1552,-87 1541.14,-85.62 1529.43,-83.35 1518.89,-81.02"/>
<polygon fill="midnightblue" stroke="midnightblue" points="2617.86,-134.61 2627.92,-131.3 2617.99,-127.62 2617.86,-134.61"/>
</g>
<!-- Node17 -->
<g id="node17" class="node">
<title>Node17</title>
<g id="a_node17"><a xlink:href="vdp__set__color_8c.html" target="_top" xlink:title=" ">
<polygon fill="none" stroke="black" points="1561.5,-62 1561.5,-81 1670.5,-81 1670.5,-62 1561.5,-62"/>
<text text-anchor="middle" x="1616" y="-69" font-family="Helvetica,sans-Serif" font-size="10.00">src/vdp_set_color.c</text>
</a>
</g>
</g>
<!-- Node2&#45;&gt;Node17 -->
<g id="edge17" class="edge">
<title>Node2&#45;&gt;Node17</title>
<path fill="none" stroke="midnightblue" d="M2617.76,-130.87C2441.95,-126.8 1864.02,-111.83 1680,-87 1669.61,-85.6 1658.43,-83.33 1648.36,-81"/>
<polygon fill="midnightblue" stroke="midnightblue" points="2617.7,-134.37 2627.78,-131.1 2617.86,-127.37 2617.7,-134.37"/>
</g>
<!-- Node18 -->
<g id="node18" class="node">
<title>Node18</title>
<g id="a_node18"><a xlink:href="vdp__set__color__table_8c.html" target="_top" xlink:title=" ">
<polygon fill="none" stroke="black" points="1689,-62 1689,-81 1829,-81 1829,-62 1689,-62"/>
<text text-anchor="middle" x="1759" y="-69" font-family="Helvetica,sans-Serif" font-size="10.00">src/vdp_set_color_table.c</text>
</a>
</g>
</g>
<!-- Node2&#45;&gt;Node18 -->
<g id="edge18" class="edge">
<title>Node2&#45;&gt;Node18</title>
<path fill="none" stroke="midnightblue" d="M2617.66,-131.49C2487.05,-129.7 2131.71,-121.76 1838,-87 1825.54,-85.52 1812.07,-83.29 1799.85,-81.02"/>
<polygon fill="midnightblue" stroke="midnightblue" points="2617.72,-134.99 2627.77,-131.62 2617.82,-127.99 2617.72,-134.99"/>
</g>
<!-- Node19 -->
<g id="node19" class="node">
<title>Node19</title>
<g id="a_node19"><a xlink:href="vdp__set__control_8c.html" target="_top" xlink:title=" ">
<polygon fill="none" stroke="black" points="1847.5,-62 1847.5,-81 1966.5,-81 1966.5,-62 1847.5,-62"/>
<text text-anchor="middle" x="1907" y="-69" font-family="Helvetica,sans-Serif" font-size="10.00">src/vdp_set_control.c</text>
</a>
</g>
</g>
<!-- Node2&#45;&gt;Node19 -->
<g id="edge19" class="edge">
<title>Node2&#45;&gt;Node19</title>
<path fill="none" stroke="midnightblue" d="M2617.49,-131.16C2502.11,-128.72 2214.33,-119.61 1976,-87 1965.21,-85.52 1953.58,-83.32 1943,-81.08"/>
<polygon fill="midnightblue" stroke="midnightblue" points="2617.72,-134.66 2627.79,-131.37 2617.86,-127.66 2617.72,-134.66"/>
</g>
<!-- Node20 -->
<g id="node20" class="node">
<title>Node20</title>
<g id="a_node20"><a xlink:href="vdp__set__hscroll_8c.html" target="_top" xlink:title=" ">
<polygon fill="none" stroke="black" points="1985,-62 1985,-81 2103,-81 2103,-62 1985,-62"/>
<text text-anchor="middle" x="2044" y="-69" font-family="Helvetica,sans-Serif" font-size="10.00">src/vdp_set_hscroll.c</text>
</a>
</g>
</g>
<!-- Node2&#45;&gt;Node20 -->
<g id="edge20" class="edge">
<title>Node2&#45;&gt;Node20</title>
<path fill="none" stroke="midnightblue" d="M2617.65,-130.08C2519.14,-125.89 2297.01,-114.08 2112,-87 2101.49,-85.46 2090.17,-83.27 2079.84,-81.05"/>
<polygon fill="midnightblue" stroke="midnightblue" points="2617.78,-133.58 2627.91,-130.5 2618.07,-126.59 2617.78,-133.58"/>
</g>
<!-- Node21 -->
<g id="node21" class="node">
<title>Node21</title>
<g id="a_node21"><a xlink:href="vdp__set__hscroll__dual__page_8c.html" target="_top" xlink:title=" ">
<polygon fill="none" stroke="black" points="2121,-56.5 2121,-86.5 2231,-86.5 2231,-56.5 2121,-56.5"/>
<text text-anchor="start" x="2129" y="-74.5" font-family="Helvetica,sans-Serif" font-size="10.00">src/vdp_set_hscroll</text>
<text text-anchor="middle" x="2176" y="-63.5" font-family="Helvetica,sans-Serif" font-size="10.00">_dual_page.c</text>
</a>
</g>
</g>
<!-- Node2&#45;&gt;Node21 -->
<g id="edge21" class="edge">
<title>Node2&#45;&gt;Node21</title>
<path fill="none" stroke="midnightblue" d="M2617.59,-128.58C2536.81,-122.77 2375.41,-109.36 2240,-87 2237.08,-86.52 2234.09,-85.98 2231.08,-85.41"/>
<polygon fill="midnightblue" stroke="midnightblue" points="2617.75,-132.1 2627.97,-129.32 2618.24,-125.12 2617.75,-132.1"/>
</g>
<!-- Node22 -->
<g id="node22" class="node">
<title>Node22</title>
<g id="a_node22"><a xlink:href="vdp__set__hscroll__mask_8c.html" target="_top" xlink:title=" ">
<polygon fill="none" stroke="black" points="2249,-56.5 2249,-86.5 2359,-86.5 2359,-56.5 2249,-56.5"/>
<text text-anchor="start" x="2257" y="-74.5" font-family="Helvetica,sans-Serif" font-size="10.00">src/vdp_set_hscroll</text>
<text text-anchor="middle" x="2304" y="-63.5" font-family="Helvetica,sans-Serif" font-size="10.00">_mask.c</text>
</a>
</g>
</g>
<!-- Node2&#45;&gt;Node22 -->
<g id="edge22" class="edge">
<title>Node2&#45;&gt;Node22</title>
<path fill="none" stroke="midnightblue" d="M2617.96,-125.55C2557.93,-117.69 2455.38,-103.41 2368,-87 2365.09,-86.45 2362.11,-85.87 2359.1,-85.26"/>
<polygon fill="midnightblue" stroke="midnightblue" points="2617.57,-129.03 2627.94,-126.85 2618.48,-122.09 2617.57,-129.03"/>
</g>
<!-- Node23 -->
<g id="node23" class="node">
<title>Node23</title>
<g id="a_node23"><a xlink:href="vdp__set__image__table_8c.html" target="_top" xlink:title=" ">
<polygon fill="none" stroke="black" points="2377,-62 2377,-81 2523,-81 2523,-62 2377,-62"/>
<text text-anchor="middle" x="2450" y="-69" font-family="Helvetica,sans-Serif" font-size="10.00">src/vdp_set_image_table.c</text>
</a>
</g>
</g>
<!-- Node2&#45;&gt;Node23 -->
<g id="edge23" class="edge">
<title>Node2&#45;&gt;Node23</title>
<path fill="none" stroke="midnightblue" d="M2627.86,-120.82C2585.32,-109.26 2519.83,-91.47 2481.32,-81.01"/>
<polygon fill="midnightblue" stroke="midnightblue" points="2627.05,-124.23 2637.62,-123.48 2628.89,-117.48 2627.05,-124.23"/>
</g>
<!-- Node24 -->
<g id="node24" class="node">
<title>Node24</title>
<g id="a_node24"><a xlink:href="vdp__set__palette_8c.html" target="_top" xlink:title=" ">
<polygon fill="none" stroke="black" points="2541,-62 2541,-81 2661,-81 2661,-62 2541,-62"/>
<text text-anchor="middle" x="2601" y="-69" font-family="Helvetica,sans-Serif" font-size="10.00">src/vdp_set_palette.c</text>
</a>
</g>
</g>
<!-- Node2&#45;&gt;Node24 -->
<g id="edge24" class="edge">
<title>Node2&#45;&gt;Node24</title>
<path fill="none" stroke="midnightblue" d="M2651.46,-116.65C2638.49,-105.31 2621.32,-90.28 2610.72,-81.01"/>
<polygon fill="midnightblue" stroke="midnightblue" points="2649.43,-119.52 2659.26,-123.48 2654.04,-114.26 2649.43,-119.52"/>
</g>
<!-- Node25 -->
<g id="node25" class="node">
<title>Node25</title>
<g id="a_node25"><a xlink:href="vdp__set__pattern__table_8c.html" target="_top" xlink:title=" ">
<polygon fill="none" stroke="black" points="2679.5,-56.5 2679.5,-86.5 2792.5,-86.5 2792.5,-56.5 2679.5,-56.5"/>
<text text-anchor="start" x="2687.5" y="-74.5" font-family="Helvetica,sans-Serif" font-size="10.00">src/vdp_set_pattern</text>
<text text-anchor="middle" x="2736" y="-63.5" font-family="Helvetica,sans-Serif" font-size="10.00">_table.c</text>
</a>
</g>
</g>
<!-- Node2&#45;&gt;Node25 -->
<g id="edge25" class="edge">
<title>Node2&#45;&gt;Node25</title>
<path fill="none" stroke="midnightblue" d="M2686.29,-116.65C2696.76,-107.35 2710.02,-95.57 2720.21,-86.52"/>
<polygon fill="midnightblue" stroke="midnightblue" points="2683.75,-114.22 2678.6,-123.48 2688.4,-119.45 2683.75,-114.22"/>
</g>
<!-- Node26 -->
<g id="node26" class="node">
<title>Node26</title>
<g id="a_node26"><a xlink:href="vdp__set__screen__lines_8c.html" target="_top" xlink:title=" ">
<polygon fill="none" stroke="black" points="2811,-56.5 2811,-86.5 2921,-86.5 2921,-56.5 2811,-56.5"/>
<text text-anchor="start" x="2819" y="-74.5" font-family="Helvetica,sans-Serif" font-size="10.00">src/vdp_set_screen</text>
<text text-anchor="middle" x="2866" y="-63.5" font-family="Helvetica,sans-Serif" font-size="10.00">_lines.c</text>
</a>
</g>
</g>
<!-- Node2&#45;&gt;Node26 -->
<g id="edge26" class="edge">
<title>Node2&#45;&gt;Node26</title>
<path fill="none" stroke="midnightblue" d="M2707.13,-120.48C2739.25,-110.78 2785.31,-96.87 2819.57,-86.52"/>
<polygon fill="midnightblue" stroke="midnightblue" points="2705.79,-117.23 2697.23,-123.48 2707.81,-123.93 2705.79,-117.23"/>
</g>
<!-- Node27 -->
<g id="node27" class="node">
<title>Node27</title>
<g id="a_node27"><a xlink:href="vdp__set__screen__mode_8c.html" target="_top" xlink:title=" ">
<polygon fill="none" stroke="black" points="2939,-56.5 2939,-86.5 3049,-86.5 3049,-56.5 2939,-56.5"/>
<text text-anchor="start" x="2947" y="-74.5" font-family="Helvetica,sans-Serif" font-size="10.00">src/vdp_set_screen</text>
<text text-anchor="middle" x="2994" y="-63.5" font-family="Helvetica,sans-Serif" font-size="10.00">_mode.c</text>
</a>
</g>
</g>
<!-- Node2&#45;&gt;Node27 -->
<g id="edge27" class="edge">
<title>Node2&#45;&gt;Node27</title>
<path fill="none" stroke="midnightblue" d="M2720.37,-123.95C2773.11,-115.5 2857.5,-101.45 2930,-87 2932.9,-86.42 2935.88,-85.81 2938.88,-85.18"/>
<polygon fill="midnightblue" stroke="midnightblue" points="2719.58,-120.53 2710.26,-125.57 2720.69,-127.45 2719.58,-120.53"/>
</g>
<!-- Node28 -->
<g id="node28" class="node">
<title>Node28</title>
<g id="a_node28"><a xlink:href="vdp__set__sprite__attribute__table_8c.html" target="_top" xlink:title=" ">
<polygon fill="none" stroke="black" points="3067.5,-56.5 3067.5,-86.5 3172.5,-86.5 3172.5,-56.5 3067.5,-56.5"/>
<text text-anchor="start" x="3075.5" y="-74.5" font-family="Helvetica,sans-Serif" font-size="10.00">src/vdp_set_sprite</text>
<text text-anchor="middle" x="3120" y="-63.5" font-family="Helvetica,sans-Serif" font-size="10.00">_attribute_table.c</text>
</a>
</g>
</g>
<!-- Node2&#45;&gt;Node28 -->
<g id="edge28" class="edge">
<title>Node2&#45;&gt;Node28</title>
<path fill="none" stroke="midnightblue" d="M2720.17,-127.96C2794.81,-121.65 2937.74,-107.95 3058,-87 3061.05,-86.47 3064.17,-85.88 3067.32,-85.25"/>
<polygon fill="midnightblue" stroke="midnightblue" points="2719.78,-124.48 2710.11,-128.8 2720.36,-131.46 2719.78,-124.48"/>
</g>
<!-- Node29 -->
<g id="node29" class="node">
<title>Node29</title>
<g id="a_node29"><a xlink:href="vdp__set__sprite__pattern__table_8c.html" target="_top" xlink:title=" ">
<polygon fill="none" stroke="black" points="3190.5,-56.5 3190.5,-86.5 3295.5,-86.5 3295.5,-56.5 3190.5,-56.5"/>
<text text-anchor="start" x="3198.5" y="-74.5" font-family="Helvetica,sans-Serif" font-size="10.00">src/vdp_set_sprite</text>
<text text-anchor="middle" x="3243" y="-63.5" font-family="Helvetica,sans-Serif" font-size="10.00">_pattern_table.c</text>
</a>
</g>
</g>
<!-- Node2&#45;&gt;Node29 -->
<g id="edge29" class="edge">
<title>Node2&#45;&gt;Node29</title>
<path fill="none" stroke="midnightblue" d="M2720.27,-129.91C2812.8,-125.59 3013.65,-113.78 3181,-87 3184.06,-86.51 3187.19,-85.96 3190.34,-85.35"/>
<polygon fill="midnightblue" stroke="midnightblue" points="2719.89,-126.42 2710.06,-130.37 2720.21,-133.41 2719.89,-126.42"/>
</g>
<!-- Node30 -->
<g id="node30" class="node">
<title>Node30</title>
<g id="a_node30"><a xlink:href="vdp__set__sprite__size_8c.html" target="_top" xlink:title=" ">
<polygon fill="none" stroke="black" points="3313.5,-56.5 3313.5,-86.5 3418.5,-86.5 3418.5,-56.5 3313.5,-56.5"/>
<text text-anchor="start" x="3321.5" y="-74.5" font-family="Helvetica,sans-Serif" font-size="10.00">src/vdp_set_sprite</text>
<text text-anchor="middle" x="3366" y="-63.5" font-family="Helvetica,sans-Serif" font-size="10.00">_size.c</text>
</a>
</g>
</g>
<!-- Node2&#45;&gt;Node30 -->
<g id="edge30" class="edge">
<title>Node2&#45;&gt;Node30</title>
<path fill="none" stroke="midnightblue" d="M2720.43,-131.12C2828.89,-128.66 3088.79,-119.58 3304,-87 3307.06,-86.54 3310.19,-86 3313.35,-85.42"/>
<polygon fill="midnightblue" stroke="midnightblue" points="2720.03,-127.63 2710.11,-131.35 2720.18,-134.63 2720.03,-127.63"/>
</g>
<!-- Node31 -->
<g id="node31" class="node">
<title>Node31</title>
<g id="a_node31"><a xlink:href="vdp__set__sprite__visible_8c.html" target="_top" xlink:title=" ">
<polygon fill="none" stroke="black" points="3436.5,-56.5 3436.5,-86.5 3541.5,-86.5 3541.5,-56.5 3436.5,-56.5"/>
<text text-anchor="start" x="3444.5" y="-74.5" font-family="Helvetica,sans-Serif" font-size="10.00">src/vdp_set_sprite</text>
<text text-anchor="middle" x="3489" y="-63.5" font-family="Helvetica,sans-Serif" font-size="10.00">_visible.c</text>
</a>
</g>
</g>
<!-- Node2&#45;&gt;Node31 -->
<g id="edge31" class="edge">
<title>Node2&#45;&gt;Node31</title>
<path fill="none" stroke="midnightblue" d="M2720.58,-131.96C2843.54,-131.2 3163.34,-125.37 3427,-87 3430.06,-86.55 3433.2,-86.03 3436.35,-85.46"/>
<polygon fill="midnightblue" stroke="midnightblue" points="2720.32,-128.46 2710.33,-132.01 2720.35,-135.46 2720.32,-128.46"/>
</g>
<!-- Node32 -->
<g id="node32" class="node">
<title>Node32</title>
<g id="a_node32"><a xlink:href="vdp__set__visible_8c.html" target="_top" xlink:title=" ">
<polygon fill="none" stroke="black" points="3560,-62 3560,-81 3678,-81 3678,-62 3560,-62"/>
<text text-anchor="middle" x="3619" y="-69" font-family="Helvetica,sans-Serif" font-size="10.00">src/vdp_set_visible.c</text>
</a>
</g>
</g>
<!-- Node2&#45;&gt;Node32 -->
<g id="edge32" class="edge">
<title>Node2&#45;&gt;Node32</title>
<path fill="none" stroke="midnightblue" d="M2720.15,-132.17C2855.94,-132.02 3236.57,-127.68 3550,-87 3561.05,-85.57 3572.96,-83.32 3583.72,-81.02"/>
<polygon fill="midnightblue" stroke="midnightblue" points="2720.04,-128.67 2710.04,-132.17 2720.04,-135.67 2720.04,-128.67"/>
</g>
<!-- Node33 -->
<g id="node33" class="node">
<title>Node33</title>
<g id="a_node33"><a xlink:href="vdp__set__vscroll_8c.html" target="_top" xlink:title=" ">
<polygon fill="none" stroke="black" points="3696,-62 3696,-81 3814,-81 3814,-62 3696,-62"/>
<text text-anchor="middle" x="3755" y="-69" font-family="Helvetica,sans-Serif" font-size="10.00">src/vdp_set_vscroll.c</text>
</a>
</g>
</g>
<!-- Node2&#45;&gt;Node33 -->
<g id="edge33" class="edge">
<title>Node2&#45;&gt;Node33</title>
<path fill="none" stroke="midnightblue" d="M2720.21,-130.86C2899.28,-126.7 3496.88,-111.3 3687,-87 3697.9,-85.61 3709.64,-83.37 3720.25,-81.07"/>
<polygon fill="midnightblue" stroke="midnightblue" points="2719.93,-127.37 2710.01,-131.1 2720.09,-134.36 2719.93,-127.37"/>
</g>
<!-- Node34 -->
<g id="node34" class="node">
<title>Node34</title>
<g id="a_node34"><a xlink:href="vdp__write__control_8c.html" target="_top" xlink:title=" ">
<polygon fill="none" stroke="black" points="3832.5,-62 3832.5,-81 3961.5,-81 3961.5,-62 3832.5,-62"/>
<text text-anchor="middle" x="3897" y="-69" font-family="Helvetica,sans-Serif" font-size="10.00">src/vdp_write_control.c</text>
</a>
</g>
</g>
<!-- Node2&#45;&gt;Node34 -->
<g id="edge34" class="edge">
<title>Node2&#45;&gt;Node34</title>
<path fill="none" stroke="midnightblue" d="M2720.43,-131.05C2914.85,-127.3 3604.84,-112.47 3823,-87 3834.96,-85.6 3847.88,-83.34 3859.53,-81.01"/>
<polygon fill="midnightblue" stroke="midnightblue" points="2720.14,-127.56 2710.21,-131.25 2720.28,-134.56 2720.14,-127.56"/>
</g>
<!-- Node35 -->
<g id="node35" class="node">
<title>Node35</title>
<g id="a_node35"><a xlink:href="vdp__write__palette_8c.html" target="_top" xlink:title=" ">
<polygon fill="none" stroke="black" points="3980,-62 3980,-81 4110,-81 4110,-62 3980,-62"/>
<text text-anchor="middle" x="4045" y="-69" font-family="Helvetica,sans-Serif" font-size="10.00">src/vdp_write_palette.c</text>
</a>
</g>
</g>
<!-- Node2&#45;&gt;Node35 -->
<g id="edge35" class="edge">
<title>Node2&#45;&gt;Node35</title>
<path fill="none" stroke="midnightblue" d="M2720.28,-131.3C2929.8,-128.27 3721.42,-115.15 3970,-87 3982.12,-85.63 3995.22,-83.37 4007.02,-81.04"/>
<polygon fill="midnightblue" stroke="midnightblue" points="2720.13,-127.8 2710.18,-131.44 2720.23,-134.8 2720.13,-127.8"/>
</g>
<!-- Node36 -->
<g id="node36" class="node">
<title>Node36</title>
<g id="a_node36"><a xlink:href="vmem__memset_8c.html" target="_top" xlink:title=" ">
<polygon fill="none" stroke="black" points="4128.5,-62 4128.5,-81 4247.5,-81 4247.5,-62 4128.5,-62"/>
<text text-anchor="middle" x="4188" y="-69" font-family="Helvetica,sans-Serif" font-size="10.00">src/vmem_memset.c</text>
</a>
</g>
</g>
<!-- Node2&#45;&gt;Node36 -->
<g id="edge36" class="edge">
<title>Node2&#45;&gt;Node36</title>
<path fill="none" stroke="midnightblue" d="M2720.17,-131.62C2944.2,-129.77 3839.75,-120.41 4119,-87 4130.3,-85.65 4142.5,-83.36 4153.45,-81"/>
<polygon fill="midnightblue" stroke="midnightblue" points="2719.99,-128.12 2710.02,-131.7 2720.05,-135.12 2719.99,-128.12"/>
</g>
<!-- Node37 -->
<g id="node37" class="node">
<title>Node37</title>
<g id="a_node37"><a xlink:href="vmem__read_8c.html" target="_top" xlink:title=" ">
<polygon fill="none" stroke="black" points="4265.5,-62 4265.5,-81 4366.5,-81 4366.5,-62 4265.5,-62"/>
<text text-anchor="middle" x="4316" y="-69" font-family="Helvetica,sans-Serif" font-size="10.00">src/vmem_read.c</text>
</a>
</g>
</g>
<!-- Node2&#45;&gt;Node37 -->
<g id="edge37" class="edge">
<title>Node2&#45;&gt;Node37</title>
<path fill="none" stroke="midnightblue" d="M2720.34,-131.98C2957.55,-131.69 3948.94,-128 4256,-87 4265.88,-85.68 4276.5,-83.41 4286.02,-81.05"/>
<polygon fill="midnightblue" stroke="midnightblue" points="2720.26,-128.48 2710.27,-132 2720.27,-135.48 2720.26,-128.48"/>
</g>
<!-- Node38 -->
<g id="node38" class="node">
<title>Node38</title>
<g id="a_node38"><a xlink:href="vmem__set__read__address_8c.html" target="_top" xlink:title=" ">
<polygon fill="none" stroke="black" points="4385,-62 4385,-81 4549,-81 4549,-62 4385,-62"/>
<text text-anchor="middle" x="4467" y="-69" font-family="Helvetica,sans-Serif" font-size="10.00">src/vmem_set_read_address.c</text>
</a>
</g>
</g>
<!-- Node2&#45;&gt;Node38 -->
<g id="edge38" class="edge">
<title>Node2&#45;&gt;Node38</title>
<path fill="none" stroke="midnightblue" d="M2720.45,-131.55C2968.41,-129.22 4041.77,-117.52 4375,-87 4389.81,-85.64 4405.86,-83.39 4420.34,-81.06"/>
<polygon fill="midnightblue" stroke="midnightblue" points="2720.25,-128.05 2710.28,-131.64 2720.31,-135.05 2720.25,-128.05"/>
</g>
<!-- Node39 -->
<g id="node39" class="node">
<title>Node39</title>
<g id="a_node39"><a xlink:href="vmem__set__write__address_8c.html" target="_top" xlink:title=" ">
<polygon fill="none" stroke="black" points="4567,-56.5 4567,-86.5 4683,-86.5 4683,-56.5 4567,-56.5"/>
<text text-anchor="start" x="4575" y="-74.5" font-family="Helvetica,sans-Serif" font-size="10.00">src/vmem_set_write</text>
<text text-anchor="middle" x="4625" y="-63.5" font-family="Helvetica,sans-Serif" font-size="10.00">_address.c</text>
</a>
</g>
</g>
<!-- Node2&#45;&gt;Node39 -->
<g id="edge39" class="edge">
<title>Node2&#45;&gt;Node39</title>
<path fill="none" stroke="midnightblue" d="M2720.38,-132.09C2984.09,-132.36 4187.53,-131.1 4558,-87 4560.84,-86.66 4563.73,-86.26 4566.64,-85.81"/>
<polygon fill="midnightblue" stroke="midnightblue" points="2720.32,-128.59 2710.32,-132.08 2720.32,-135.59 2720.32,-128.59"/>
</g>
<!-- Node40 -->
<g id="node40" class="node">
<title>Node40</title>
<g id="a_node40"><a xlink:href="vmem__write_8c.html" target="_top" xlink:title=" ">
<polygon fill="none" stroke="black" points="4701,-62 4701,-81 4805,-81 4805,-62 4701,-62"/>
<text text-anchor="middle" x="4753" y="-69" font-family="Helvetica,sans-Serif" font-size="10.00">src/vmem_write.c</text>
</a>
</g>
</g>
<!-- Node2&#45;&gt;Node40 -->
<g id="edge40" class="edge">
<title>Node2&#45;&gt;Node40</title>
<path fill="none" stroke="midnightblue" d="M2720.56,-131.5C3016.36,-128.57 4491.51,-112.76 4692,-87 4702.15,-85.7 4713.07,-83.39 4722.83,-81"/>
<polygon fill="midnightblue" stroke="midnightblue" points="2720.1,-128.01 2710.14,-131.61 2720.17,-135.01 2720.1,-128.01"/>
</g>
<!-- Node3&#45;&gt;Node4 -->
<g id="edge3" class="edge">
<title>Node3&#45;&gt;Node4</title>
<path fill="none" stroke="midnightblue" d="M309.65,-59.85C317.7,-58.27 326.07,-56.88 334,-56 800.68,-4.44 4359.37,-10.04 4790.32,-10.91"/>
<polygon fill="midnightblue" stroke="midnightblue" points="308.75,-56.46 299.68,-61.93 310.18,-63.31 308.75,-56.46"/>
</g>
<!-- Node5 -->
<g id="node5" class="node">
<title>Node5</title>
<g id="a_node5"><a xlink:href="vmem__set__metasprite__a_8c.html" target="_top" xlink:title=" ">
<polygon fill="none" stroke="black" points="0,-0.5 0,-19.5 164,-19.5 164,-0.5 0,-0.5"/>
<text text-anchor="middle" x="82" y="-7.5" font-family="Helvetica,sans-Serif" font-size="10.00">src/vmem_set_metasprite_a.c</text>
</a>
</g>
</g>
<!-- Node3&#45;&gt;Node5 -->
<g id="edge4" class="edge">
<title>Node3&#45;&gt;Node5</title>
<path fill="none" stroke="midnightblue" d="M230.07,-58.88C194.3,-47.32 140.26,-29.84 108.31,-19.51"/>
<polygon fill="midnightblue" stroke="midnightblue" points="229.05,-62.23 239.64,-61.98 231.2,-55.57 229.05,-62.23"/>
</g>
<!-- Node6 -->
<g id="node6" class="node">
<title>Node6</title>
<g id="a_node6"><a xlink:href="vmem__set__metasprite__m_8c.html" target="_top" xlink:title=" ">
<polygon fill="none" stroke="black" points="182.5,-0.5 182.5,-19.5 349.5,-19.5 349.5,-0.5 182.5,-0.5"/>
<text text-anchor="middle" x="266" y="-7.5" font-family="Helvetica,sans-Serif" font-size="10.00">src/vmem_set_metasprite_m.c</text>
</a>
</g>
</g>
<!-- Node3&#45;&gt;Node6 -->
<g id="edge5" class="edge">
<title>Node3&#45;&gt;Node6</title>
<path fill="none" stroke="midnightblue" d="M266,-51.82C266,-41 266,-27.9 266,-19.51"/>
<polygon fill="midnightblue" stroke="midnightblue" points="262.5,-51.98 266,-61.98 269.5,-51.98 262.5,-51.98"/>
</g>
<!-- Node7 -->
<g id="node7" class="node">
<title>Node7</title>
<g id="a_node7"><a xlink:href="vmem__set__metasprite__s_8c.html" target="_top" xlink:title=" ">
<polygon fill="none" stroke="black" points="367.5,-0.5 367.5,-19.5 530.5,-19.5 530.5,-0.5 367.5,-0.5"/>
<text text-anchor="middle" x="449" y="-7.5" font-family="Helvetica,sans-Serif" font-size="10.00">src/vmem_set_metasprite_s.c</text>
</a>
</g>
</g>
<!-- Node3&#45;&gt;Node7 -->
<g id="edge6" class="edge">
<title>Node3&#45;&gt;Node7</title>
<path fill="none" stroke="midnightblue" d="M301.74,-58.88C337.31,-47.32 391.05,-29.84 422.83,-19.51"/>
<polygon fill="midnightblue" stroke="midnightblue" points="300.65,-55.55 292.22,-61.98 302.81,-62.21 300.65,-55.55"/>
</g>
</g>
</svg>
