<?xml version="1.0" encoding="UTF-8" standalone="no"?>
<!DOCTYPE svg PUBLIC "-//W3C//DTD SVG 1.1//EN"
 "http://www.w3.org/Graphics/SVG/1.1/DTD/svg11.dtd">
<!-- Generated by graphviz version 9.0.0 (20230911.1827)
 -->
<!-- Title: include/workarea.h Pages: 1 -->
<svg width="194pt" height="193pt"
 viewBox="0.00 0.00 194.00 193.00" xmlns="http://www.w3.org/2000/svg" xmlns:xlink="http://www.w3.org/1999/xlink">
<g id="graph0" class="graph" transform="scale(1 1) rotate(0) translate(4 189)">
<title>include/workarea.h</title>
<!-- Node1 -->
<g id="Node000001" class="node">
<title>Node1</title>
<g id="a_Node000001"><a xlink:title="Definitions of MSX SYSTEM Workarea.">
<polygon fill="#999999" stroke="#666666" points="97,-185 0,-185 0,-165.75 97,-165.75 97,-185"/>
<text text-anchor="middle" x="48.5" y="-171.5" font-family="Helvetica,sans-Serif" font-size="10.00">include/workarea.h</text>
</a>
</g>
</g>
<!-- Node2 -->
<g id="Node000002" class="node">
<title>Node2</title>
<g id="a_Node000002"><a xlink:href="msx_8h.html" target="_top" xlink:title="Using #include &lt;msx.h&gt; includes almost all C header files in libmsx, for ease to use.">
<polygon fill="white" stroke="#666666" points="92.12,-19.25 16.88,-19.25 16.88,0 92.12,0 92.12,-19.25"/>
<text text-anchor="middle" x="54.5" y="-5.75" font-family="Helvetica,sans-Serif" font-size="10.00">include/msx.h</text>
</a>
</g>
</g>
<!-- Node1&#45;&gt;Node2 -->
<g id="edge1_Node000001_Node000002" class="edge">
<title>Node1&#45;&gt;Node2</title>
<g id="a_edge1_Node000001_Node000002"><a xlink:title=" ">
<path fill="none" stroke="#63b8ff" d="M41.43,-154.58C39.04,-146.93 36.68,-138.03 35.5,-129.75 29.61,-88.49 44.36,-39.39 51.22,-19.58"/>
<polygon fill="#63b8ff" stroke="#63b8ff" points="38.05,-155.51 44.55,-163.88 44.68,-153.28 38.05,-155.51"/>
</a>
</g>
</g>
<!-- Node3 -->
<g id="Node000003" class="node">
<title>Node3</title>
<g id="a_Node000003"><a xlink:href="vdp_8h.html" target="_top" xlink:title="Data types and functions for VDP (Video Display Proccessor) access.">
<polygon fill="white" stroke="#666666" points="118,-129.75 45,-129.75 45,-110.5 118,-110.5 118,-129.75"/>
<text text-anchor="middle" x="81.5" y="-116.25" font-family="Helvetica,sans-Serif" font-size="10.00">include/vdp.h</text>
</a>
</g>
</g>
<!-- Node1&#45;&gt;Node3 -->
<g id="edge2_Node000001_Node000003" class="edge">
<title>Node1&#45;&gt;Node3</title>
<g id="a_edge2_Node000001_Node000003"><a xlink:title=" ">
<path fill="none" stroke="#63b8ff" d="M59.97,-155.87C65.38,-147.14 71.58,-137.14 75.93,-130.11"/>
<polygon fill="#63b8ff" stroke="#63b8ff" points="57.04,-153.95 54.75,-164.3 62.99,-157.64 57.04,-153.95"/>
</a>
</g>
</g>
<!-- Node3&#45;&gt;Node2 -->
<g id="edge5_Node000003_Node000002" class="edge">
<title>Node3&#45;&gt;Node2</title>
<g id="a_edge5_Node000003_Node000002"><a xlink:title=" ">
<path fill="none" stroke="#63b8ff" d="M76.52,-99.1C70.62,-75.4 61.06,-36.97 56.74,-19.63"/>
<polygon fill="#63b8ff" stroke="#63b8ff" points="73.11,-99.92 78.92,-108.78 79.91,-98.23 73.11,-99.92"/>
</a>
</g>
</g>
<!-- Node4 -->
<g id="Node000004" class="node">
<title>Node4</title>
<g id="a_Node000004"><a xlink:href="metasprite_8h.html" target="_top" xlink:title="Meta&#45;sprite ; an aggregate of sprites.">
<polygon fill="white" stroke="#666666" points="186,-74.5 83,-74.5 83,-55.25 186,-55.25 186,-74.5"/>
<text text-anchor="middle" x="134.5" y="-61" font-family="Helvetica,sans-Serif" font-size="10.00">include/metasprite.h</text>
</a>
</g>
</g>
<!-- Node3&#45;&gt;Node4 -->
<g id="edge3_Node000003_Node000004" class="edge">
<title>Node3&#45;&gt;Node4</title>
<g id="a_edge3_Node000003_Node000004"><a xlink:title=" ">
<path fill="none" stroke="#63b8ff" d="M98.22,-102.32C107.28,-93.23 118.1,-82.35 125.56,-74.86"/>
<polygon fill="#63b8ff" stroke="#63b8ff" points="95.89,-99.7 91.32,-109.26 100.85,-104.64 95.89,-99.7"/>
</a>
</g>
</g>
<!-- Node4&#45;&gt;Node2 -->
<g id="edge4_Node000004_Node000002" class="edge">
<title>Node4&#45;&gt;Node2</title>
<g id="a_edge4_Node000004_Node000002"><a xlink:title=" ">
<path fill="none" stroke="#63b8ff" d="M111.45,-48.53C97.43,-39.2 80,-27.6 68.14,-19.7"/>
<polygon fill="#63b8ff" stroke="#63b8ff" points="109.41,-51.38 119.67,-54 113.28,-45.55 109.41,-51.38"/>
</a>
</g>
</g>
</g>
</svg>
