<?xml version="1.0" encoding="UTF-8" standalone="no"?>
<!DOCTYPE svg PUBLIC "-//W3C//DTD SVG 1.1//EN"
 "http://www.w3.org/Graphics/SVG/1.1/DTD/svg11.dtd">
<!-- Generated by graphviz version 2.50.0 (20220203.2022)
 -->
<!-- Title: include/workarea.h Pages: 1 -->
<svg width="4647pt" height="207pt"
 viewBox="0.00 0.00 4647.00 207.00" xmlns="http://www.w3.org/2000/svg" xmlns:xlink="http://www.w3.org/1999/xlink">
<g id="graph0" class="graph" transform="scale(1 1) rotate(0) translate(4 203)">
<title>include/workarea.h</title>
<!-- Node1 -->
<g id="node1" class="node">
<title>Node1</title>
<g id="a_node1"><a xlink:title="Copyright (c) 2021 Daishi Mori (mori0091)">
<polygon fill="#bfbfbf" stroke="black" points="1069,-179.5 1069,-198.5 1167,-198.5 1167,-179.5 1069,-179.5"/>
<text text-anchor="middle" x="1118" y="-186.5" font-family="Helvetica,sans-Serif" font-size="10.00">include/workarea.h</text>
</a>
</g>
</g>
<!-- Node2 -->
<g id="node2" class="node">
<title>Node2</title>
<g id="a_node2"><a xlink:href="msx_8h.html" target="_top" xlink:title="Copyright (c) 2021 Daishi Mori (mori0091)">
<polygon fill="none" stroke="black" points="0,-0.5 0,-19.5 76,-19.5 76,-0.5 0,-0.5"/>
<text text-anchor="middle" x="38" y="-7.5" font-family="Helvetica,sans-Serif" font-size="10.00">include/msx.h</text>
</a>
</g>
</g>
<!-- Node1&#45;&gt;Node2 -->
<g id="edge1" class="edge">
<title>Node1&#45;&gt;Node2</title>
<path fill="none" stroke="midnightblue" d="M1058.49,-186.02C847.31,-178.49 142.39,-148.89 64,-87 42.99,-70.41 38.87,-35.95 38.12,-19.76"/>
<polygon fill="midnightblue" stroke="midnightblue" points="1058.64,-189.53 1068.75,-186.38 1058.88,-182.53 1058.64,-189.53"/>
</g>
<!-- Node3 -->
<g id="node3" class="node">
<title>Node3</title>
<g id="a_node3"><a xlink:href="vdp_8h.html" target="_top" xlink:title="Data types and functions for VDP (Video Display Proccessor) access.">
<polygon fill="none" stroke="black" points="2227,-123.5 2227,-142.5 2301,-142.5 2301,-123.5 2227,-123.5"/>
<text text-anchor="middle" x="2264" y="-130.5" font-family="Helvetica,sans-Serif" font-size="10.00">include/vdp.h</text>
</a>
</g>
</g>
<!-- Node1&#45;&gt;Node3 -->
<g id="edge2" class="edge">
<title>Node1&#45;&gt;Node3</title>
<path fill="none" stroke="midnightblue" d="M1177.54,-185.19C1383.19,-175.5 2060.16,-143.61 2226.72,-135.76"/>
<polygon fill="midnightblue" stroke="midnightblue" points="1177.07,-181.71 1167.24,-185.68 1177.4,-188.71 1177.07,-181.71"/>
</g>
<!-- Node3&#45;&gt;Node2 -->
<g id="edge8" class="edge">
<title>Node3&#45;&gt;Node2</title>
<path fill="none" stroke="midnightblue" d="M2216.22,-132.09C1907.47,-132.54 203.93,-132.92 105,-87 74.05,-72.63 51.53,-36.4 42.44,-19.69"/>
<polygon fill="midnightblue" stroke="midnightblue" points="2216.61,-135.59 2226.61,-132.07 2216.6,-128.59 2216.61,-135.59"/>
</g>
<!-- Node4 -->
<g id="node4" class="node">
<title>Node4</title>
<g id="a_node4"><a xlink:href="metasprite_8h.html" target="_top" xlink:title="Copyright (c) 2021 Daishi Mori (mori0091)">
<polygon fill="none" stroke="black" points="114,-62 114,-81 218,-81 218,-62 114,-62"/>
<text text-anchor="middle" x="166" y="-69" font-family="Helvetica,sans-Serif" font-size="10.00">include/metasprite.h</text>
</a>
</g>
</g>
<!-- Node3&#45;&gt;Node4 -->
<g id="edge3" class="edge">
<title>Node3&#45;&gt;Node4</title>
<path fill="none" stroke="midnightblue" d="M2216.77,-131.56C1930.21,-128.78 429.96,-113.07 227,-87 216.85,-85.7 205.93,-83.4 196.17,-81"/>
<polygon fill="midnightblue" stroke="midnightblue" points="2216.8,-135.06 2226.84,-131.65 2216.87,-128.06 2216.8,-135.06"/>
</g>
<!-- Node8 -->
<g id="node8" class="node">
<title>Node8</title>
<g id="a_node8"><a xlink:href="vdp_8c.html" target="_top" xlink:title="Copyright (c) 2021 Daishi Mori (mori0091)">
<polygon fill="none" stroke="black" points="236,-62 236,-81 292,-81 292,-62 236,-62"/>
<text text-anchor="middle" x="264" y="-69" font-family="Helvetica,sans-Serif" font-size="10.00">src/vdp.c</text>
</a>
</g>
</g>
<!-- Node3&#45;&gt;Node8 -->
<g id="edge9" class="edge">
<title>Node3&#45;&gt;Node8</title>
<path fill="none" stroke="midnightblue" d="M2216.7,-131.88C1936.04,-131.03 495,-124.87 302,-87 295.49,-85.72 288.63,-83.43 282.57,-81.04"/>
<polygon fill="midnightblue" stroke="midnightblue" points="2216.94,-135.38 2226.95,-131.91 2216.96,-128.38 2216.94,-135.38"/>
</g>
<!-- Node9 -->
<g id="node9" class="node">
<title>Node9</title>
<g id="a_node9"><a xlink:href="vdp__cmd__execute_8c.html" target="_top" xlink:title="Copyright (c) 2021 Daishi Mori (mori0091)">
<polygon fill="none" stroke="black" points="310.5,-62 310.5,-81 429.5,-81 429.5,-62 310.5,-62"/>
<text text-anchor="middle" x="370" y="-69" font-family="Helvetica,sans-Serif" font-size="10.00">src/vdp_cmd_execute.c</text>
</a>
</g>
</g>
<!-- Node3&#45;&gt;Node9 -->
<g id="edge10" class="edge">
<title>Node3&#45;&gt;Node9</title>
<path fill="none" stroke="midnightblue" d="M2216.48,-132C1966.13,-131.84 798.04,-128.8 439,-87 427.69,-85.68 415.49,-83.41 404.55,-81.05"/>
<polygon fill="midnightblue" stroke="midnightblue" points="2216.7,-135.5 2226.7,-132.01 2216.7,-128.5 2216.7,-135.5"/>
</g>
<!-- Node10 -->
<g id="node10" class="node">
<title>Node10</title>
<g id="a_node10"><a xlink:href="vdp__cmd__execute__HMMM_8c.html" target="_top" xlink:title="Copyright (c) 2021 Daishi Mori (mori0091)">
<polygon fill="none" stroke="black" points="448,-56.5 448,-86.5 560,-86.5 560,-56.5 448,-56.5"/>
<text text-anchor="start" x="456" y="-74.5" font-family="Helvetica,sans-Serif" font-size="10.00">src/vdp_cmd_execute</text>
<text text-anchor="middle" x="504" y="-63.5" font-family="Helvetica,sans-Serif" font-size="10.00">_HMMM.c</text>
</a>
</g>
</g>
<!-- Node3&#45;&gt;Node10 -->
<g id="edge11" class="edge">
<title>Node3&#45;&gt;Node10</title>
<path fill="none" stroke="midnightblue" d="M2216.83,-131.98C1978.03,-131.67 900.77,-128.02 569,-87 566.13,-86.65 563.2,-86.22 560.25,-85.75"/>
<polygon fill="midnightblue" stroke="midnightblue" points="2216.92,-135.48 2226.92,-131.99 2216.92,-128.48 2216.92,-135.48"/>
</g>
<!-- Node11 -->
<g id="node11" class="node">
<title>Node11</title>
<g id="a_node11"><a xlink:href="vdp__cmd__execute__HMMV_8c.html" target="_top" xlink:title="Copyright (c) 2021 Daishi Mori (mori0091)">
<polygon fill="none" stroke="black" points="578,-56.5 578,-86.5 690,-86.5 690,-56.5 578,-56.5"/>
<text text-anchor="start" x="586" y="-74.5" font-family="Helvetica,sans-Serif" font-size="10.00">src/vdp_cmd_execute</text>
<text text-anchor="middle" x="634" y="-63.5" font-family="Helvetica,sans-Serif" font-size="10.00">_HMMV.c</text>
</a>
</g>
</g>
<!-- Node3&#45;&gt;Node11 -->
<g id="edge12" class="edge">
<title>Node3&#45;&gt;Node11</title>
<path fill="none" stroke="midnightblue" d="M2216.49,-131.85C1988.31,-130.97 1003.5,-124.99 699,-87 696.13,-86.64 693.2,-86.22 690.26,-85.74"/>
<polygon fill="midnightblue" stroke="midnightblue" points="2216.76,-135.36 2226.77,-131.89 2216.79,-128.36 2216.76,-135.36"/>
</g>
<!-- Node12 -->
<g id="node12" class="node">
<title>Node12</title>
<g id="a_node12"><a xlink:href="vdp__cmd__execute__LMMM_8c.html" target="_top" xlink:title="Copyright (c) 2021 Daishi Mori (mori0091)">
<polygon fill="none" stroke="black" points="708,-56.5 708,-86.5 820,-86.5 820,-56.5 708,-56.5"/>
<text text-anchor="start" x="716" y="-74.5" font-family="Helvetica,sans-Serif" font-size="10.00">src/vdp_cmd_execute</text>
<text text-anchor="middle" x="764" y="-63.5" font-family="Helvetica,sans-Serif" font-size="10.00">_LMMM.c</text>
</a>
</g>
</g>
<!-- Node3&#45;&gt;Node12 -->
<g id="edge13" class="edge">
<title>Node3&#45;&gt;Node12</title>
<path fill="none" stroke="midnightblue" d="M2216.63,-131.71C2000.49,-130.22 1106.53,-121.99 829,-87 826.13,-86.64 823.2,-86.21 820.26,-85.73"/>
<polygon fill="midnightblue" stroke="midnightblue" points="2216.67,-135.21 2226.7,-131.78 2216.72,-128.21 2216.67,-135.21"/>
</g>
<!-- Node13 -->
<g id="node13" class="node">
<title>Node13</title>
<g id="a_node13"><a xlink:href="vdp__cmd__execute__LMMV_8c.html" target="_top" xlink:title="Copyright (c) 2021 Daishi Mori (mori0091)">
<polygon fill="none" stroke="black" points="838,-56.5 838,-86.5 950,-86.5 950,-56.5 838,-56.5"/>
<text text-anchor="start" x="846" y="-74.5" font-family="Helvetica,sans-Serif" font-size="10.00">src/vdp_cmd_execute</text>
<text text-anchor="middle" x="894" y="-63.5" font-family="Helvetica,sans-Serif" font-size="10.00">_LMMV.c</text>
</a>
</g>
</g>
<!-- Node3&#45;&gt;Node13 -->
<g id="edge14" class="edge">
<title>Node3&#45;&gt;Node13</title>
<path fill="none" stroke="midnightblue" d="M2216.73,-131.52C2013.18,-129.28 1210.45,-118.57 960,-87 956.74,-86.59 953.41,-86.09 950.05,-85.54"/>
<polygon fill="midnightblue" stroke="midnightblue" points="2216.76,-135.02 2226.8,-131.63 2216.84,-128.02 2216.76,-135.02"/>
</g>
<!-- Node14 -->
<g id="node14" class="node">
<title>Node14</title>
<g id="a_node14"><a xlink:href="vdp__cmd__set__unrestricted_8c.html" target="_top" xlink:title="Copyright (c) 2021 Daishi Mori (mori0091)">
<polygon fill="none" stroke="black" points="968.5,-62 968.5,-81 1123.5,-81 1123.5,-62 968.5,-62"/>
<text text-anchor="middle" x="1046" y="-69" font-family="Helvetica,sans-Serif" font-size="10.00">src/vdp_cmd_set_unrestricted.c</text>
</a>
</g>
</g>
<!-- Node3&#45;&gt;Node14 -->
<g id="edge15" class="edge">
<title>Node3&#45;&gt;Node14</title>
<path fill="none" stroke="midnightblue" d="M2216.62,-132.24C2060.98,-132.56 1551.48,-130.03 1133,-87 1119.14,-85.57 1104.14,-83.33 1090.56,-81.03"/>
<polygon fill="midnightblue" stroke="midnightblue" points="2216.79,-135.74 2226.78,-132.21 2216.77,-128.74 2216.79,-135.74"/>
</g>
<!-- Node15 -->
<g id="node15" class="node">
<title>Node15</title>
<g id="a_node15"><a xlink:href="vdp__get__sprite__mode_8c.html" target="_top" xlink:title="Copyright (c) 2021 Daishi Mori (mori0091)">
<polygon fill="none" stroke="black" points="1141.5,-56.5 1141.5,-86.5 1238.5,-86.5 1238.5,-56.5 1141.5,-56.5"/>
<text text-anchor="start" x="1149.5" y="-74.5" font-family="Helvetica,sans-Serif" font-size="10.00">src/vdp_get_sprite</text>
<text text-anchor="middle" x="1190" y="-63.5" font-family="Helvetica,sans-Serif" font-size="10.00">_mode.c</text>
</a>
</g>
</g>
<!-- Node3&#45;&gt;Node15 -->
<g id="edge16" class="edge">
<title>Node3&#45;&gt;Node15</title>
<path fill="none" stroke="midnightblue" d="M2216.77,-131.17C2042.91,-127.9 1438.7,-114.77 1248,-87 1244.92,-86.55 1241.76,-86.01 1238.59,-85.4"/>
<polygon fill="midnightblue" stroke="midnightblue" points="2216.82,-134.67 2226.88,-131.35 2216.95,-127.67 2216.82,-134.67"/>
</g>
<!-- Node16 -->
<g id="node16" class="node">
<title>Node16</title>
<g id="a_node16"><a xlink:href="vdp__get__status_8c.html" target="_top" xlink:title="Copyright (c) 2021 Daishi Mori (mori0091)">
<polygon fill="none" stroke="black" points="1256.5,-62 1256.5,-81 1363.5,-81 1363.5,-62 1256.5,-62"/>
<text text-anchor="middle" x="1310" y="-69" font-family="Helvetica,sans-Serif" font-size="10.00">src/vdp_get_status.c</text>
</a>
</g>
</g>
<!-- Node3&#45;&gt;Node16 -->
<g id="edge17" class="edge">
<title>Node3&#45;&gt;Node16</title>
<path fill="none" stroke="midnightblue" d="M2216.59,-132.53C2083.1,-133.38 1693,-131.55 1373,-87 1362.88,-85.59 1352,-83.35 1342.17,-81.05"/>
<polygon fill="midnightblue" stroke="midnightblue" points="2216.89,-136.02 2226.86,-132.45 2216.84,-129.02 2216.89,-136.02"/>
</g>
<!-- Node17 -->
<g id="node17" class="node">
<title>Node17</title>
<g id="a_node17"><a xlink:href="vdp__set__adjust_8c.html" target="_top" xlink:title="Copyright (c) 2021 Daishi Mori (mori0091)">
<polygon fill="none" stroke="black" points="1381.5,-62 1381.5,-81 1488.5,-81 1488.5,-62 1381.5,-62"/>
<text text-anchor="middle" x="1435" y="-69" font-family="Helvetica,sans-Serif" font-size="10.00">src/vdp_set_adjust.c</text>
</a>
</g>
</g>
<!-- Node3&#45;&gt;Node17 -->
<g id="edge18" class="edge">
<title>Node3&#45;&gt;Node17</title>
<path fill="none" stroke="midnightblue" d="M2216.71,-131.97C2096.21,-131.29 1768.04,-125.73 1498,-87 1488,-85.57 1477.25,-83.35 1467.5,-81.07"/>
<polygon fill="midnightblue" stroke="midnightblue" points="2216.7,-135.47 2226.71,-132.02 2216.73,-128.47 2216.7,-135.47"/>
</g>
<!-- Node18 -->
<g id="node18" class="node">
<title>Node18</title>
<g id="a_node18"><a xlink:href="vdp__set__color_8c.html" target="_top" xlink:title="Copyright (c) 2021 Daishi Mori (mori0091)">
<polygon fill="none" stroke="black" points="1506.5,-62 1506.5,-81 1607.5,-81 1607.5,-62 1506.5,-62"/>
<text text-anchor="middle" x="1557" y="-69" font-family="Helvetica,sans-Serif" font-size="10.00">src/vdp_set_color.c</text>
</a>
</g>
</g>
<!-- Node3&#45;&gt;Node18 -->
<g id="edge19" class="edge">
<title>Node3&#45;&gt;Node18</title>
<path fill="none" stroke="midnightblue" d="M2216.75,-131.42C2109.5,-129.52 1839.65,-121.4 1617,-87 1607.47,-85.53 1597.22,-83.3 1587.94,-81.03"/>
<polygon fill="midnightblue" stroke="midnightblue" points="2216.86,-134.92 2226.92,-131.59 2216.98,-127.92 2216.86,-134.92"/>
</g>
<!-- Node19 -->
<g id="node19" class="node">
<title>Node19</title>
<g id="a_node19"><a xlink:href="vdp__set__color__table_8c.html" target="_top" xlink:title="Copyright (c) 2021 Daishi Mori (mori0091)">
<polygon fill="none" stroke="black" points="1626,-62 1626,-81 1754,-81 1754,-62 1626,-62"/>
<text text-anchor="middle" x="1690" y="-69" font-family="Helvetica,sans-Serif" font-size="10.00">src/vdp_set_color_table.c</text>
</a>
</g>
</g>
<!-- Node3&#45;&gt;Node19 -->
<g id="edge20" class="edge">
<title>Node3&#45;&gt;Node19</title>
<path fill="none" stroke="midnightblue" d="M2216.7,-129.44C2127.59,-124.23 1928.88,-110.85 1763,-87 1751.87,-85.4 1739.88,-83.21 1728.89,-81.02"/>
<polygon fill="midnightblue" stroke="midnightblue" points="2216.58,-132.93 2226.76,-130.02 2216.98,-125.95 2216.58,-132.93"/>
</g>
<!-- Node20 -->
<g id="node20" class="node">
<title>Node20</title>
<g id="a_node20"><a xlink:href="vdp__set__control_8c.html" target="_top" xlink:title="Copyright (c) 2021 Daishi Mori (mori0091)">
<polygon fill="none" stroke="black" points="1772,-62 1772,-81 1882,-81 1882,-62 1772,-62"/>
<text text-anchor="middle" x="1827" y="-69" font-family="Helvetica,sans-Serif" font-size="10.00">src/vdp_set_control.c</text>
</a>
</g>
</g>
<!-- Node3&#45;&gt;Node20 -->
<g id="edge21" class="edge">
<title>Node3&#45;&gt;Node20</title>
<path fill="none" stroke="midnightblue" d="M2216.48,-127.77C2145.54,-121.12 2007.87,-106.88 1892,-87 1882.31,-85.34 1871.89,-83.18 1862.3,-81.04"/>
<polygon fill="midnightblue" stroke="midnightblue" points="2216.58,-131.3 2226.86,-128.74 2217.23,-124.33 2216.58,-131.3"/>
</g>
<!-- Node21 -->
<g id="node21" class="node">
<title>Node21</title>
<g id="a_node21"><a xlink:href="vdp__set__hscroll_8c.html" target="_top" xlink:title="Copyright (c) 2021 Daishi Mori (mori0091)">
<polygon fill="none" stroke="black" points="1900.5,-62 1900.5,-81 2009.5,-81 2009.5,-62 1900.5,-62"/>
<text text-anchor="middle" x="1955" y="-69" font-family="Helvetica,sans-Serif" font-size="10.00">src/vdp_set_hscroll.c</text>
</a>
</g>
</g>
<!-- Node3&#45;&gt;Node21 -->
<g id="edge22" class="edge">
<title>Node3&#45;&gt;Node21</title>
<path fill="none" stroke="midnightblue" d="M2216.9,-123.94C2167.49,-115.35 2087.62,-101.07 2019,-87 2010.07,-85.17 2000.47,-83.07 1991.5,-81.04"/>
<polygon fill="midnightblue" stroke="midnightblue" points="2216.52,-127.43 2226.97,-125.69 2217.71,-120.53 2216.52,-127.43"/>
</g>
<!-- Node22 -->
<g id="node22" class="node">
<title>Node22</title>
<g id="a_node22"><a xlink:href="vdp__set__hscroll__dual__page_8c.html" target="_top" xlink:title="Copyright (c) 2021 Daishi Mori (mori0091)">
<polygon fill="none" stroke="black" points="2027.5,-56.5 2027.5,-86.5 2128.5,-86.5 2128.5,-56.5 2027.5,-56.5"/>
<text text-anchor="start" x="2035.5" y="-74.5" font-family="Helvetica,sans-Serif" font-size="10.00">src/vdp_set_hscroll</text>
<text text-anchor="middle" x="2078" y="-63.5" font-family="Helvetica,sans-Serif" font-size="10.00">_dual_page.c</text>
</a>
</g>
</g>
<!-- Node3&#45;&gt;Node22 -->
<g id="edge23" class="edge">
<title>Node3&#45;&gt;Node22</title>
<path fill="none" stroke="midnightblue" d="M2227.6,-120.36C2197.3,-110.66 2154.05,-96.83 2121.84,-86.52"/>
<polygon fill="midnightblue" stroke="midnightblue" points="2226.76,-123.76 2237.35,-123.48 2228.89,-117.09 2226.76,-123.76"/>
</g>
<!-- Node23 -->
<g id="node23" class="node">
<title>Node23</title>
<g id="a_node23"><a xlink:href="vdp__set__hscroll__mask_8c.html" target="_top" xlink:title="Copyright (c) 2021 Daishi Mori (mori0091)">
<polygon fill="none" stroke="black" points="2146.5,-56.5 2146.5,-86.5 2247.5,-86.5 2247.5,-56.5 2146.5,-56.5"/>
<text text-anchor="start" x="2154.5" y="-74.5" font-family="Helvetica,sans-Serif" font-size="10.00">src/vdp_set_hscroll</text>
<text text-anchor="middle" x="2197" y="-63.5" font-family="Helvetica,sans-Serif" font-size="10.00">_mask.c</text>
</a>
</g>
</g>
<!-- Node3&#45;&gt;Node23 -->
<g id="edge24" class="edge">
<title>Node3&#45;&gt;Node23</title>
<path fill="none" stroke="midnightblue" d="M2246.71,-116.65C2236.24,-107.35 2222.98,-95.57 2212.79,-86.52"/>
<polygon fill="midnightblue" stroke="midnightblue" points="2244.6,-119.45 2254.4,-123.48 2249.25,-114.22 2244.6,-119.45"/>
</g>
<!-- Node24 -->
<g id="node24" class="node">
<title>Node24</title>
<g id="a_node24"><a xlink:href="vdp__set__image__table_8c.html" target="_top" xlink:title="Copyright (c) 2021 Daishi Mori (mori0091)">
<polygon fill="none" stroke="black" points="2265.5,-62 2265.5,-81 2398.5,-81 2398.5,-62 2265.5,-62"/>
<text text-anchor="middle" x="2332" y="-69" font-family="Helvetica,sans-Serif" font-size="10.00">src/vdp_set_image_table.c</text>
</a>
</g>
</g>
<!-- Node3&#45;&gt;Node24 -->
<g id="edge25" class="edge">
<title>Node3&#45;&gt;Node24</title>
<path fill="none" stroke="midnightblue" d="M2281.54,-116.65C2294.51,-105.31 2311.68,-90.28 2322.28,-81.01"/>
<polygon fill="midnightblue" stroke="midnightblue" points="2278.96,-114.26 2273.74,-123.48 2283.57,-119.52 2278.96,-114.26"/>
</g>
<!-- Node25 -->
<g id="node25" class="node">
<title>Node25</title>
<g id="a_node25"><a xlink:href="vdp__set__palette_8c.html" target="_top" xlink:title="Copyright (c) 2021 Daishi Mori (mori0091)">
<polygon fill="none" stroke="black" points="2417,-62 2417,-81 2527,-81 2527,-62 2417,-62"/>
<text text-anchor="middle" x="2472" y="-69" font-family="Helvetica,sans-Serif" font-size="10.00">src/vdp_set_palette.c</text>
</a>
</g>
</g>
<!-- Node3&#45;&gt;Node25 -->
<g id="edge26" class="edge">
<title>Node3&#45;&gt;Node25</title>
<path fill="none" stroke="midnightblue" d="M2303.59,-120.68C2344,-109.11 2405.83,-91.43 2442.25,-81.01"/>
<polygon fill="midnightblue" stroke="midnightblue" points="2302.45,-117.36 2293.8,-123.48 2304.38,-124.09 2302.45,-117.36"/>
</g>
<!-- Node26 -->
<g id="node26" class="node">
<title>Node26</title>
<g id="a_node26"><a xlink:href="vdp__set__pattern__table_8c.html" target="_top" xlink:title="Copyright (c) 2021 Daishi Mori (mori0091)">
<polygon fill="none" stroke="black" points="2545.5,-56.5 2545.5,-86.5 2648.5,-86.5 2648.5,-56.5 2545.5,-56.5"/>
<text text-anchor="start" x="2553.5" y="-74.5" font-family="Helvetica,sans-Serif" font-size="10.00">src/vdp_set_pattern</text>
<text text-anchor="middle" x="2597" y="-63.5" font-family="Helvetica,sans-Serif" font-size="10.00">_table.c</text>
</a>
</g>
</g>
<!-- Node3&#45;&gt;Node26 -->
<g id="edge27" class="edge">
<title>Node3&#45;&gt;Node26</title>
<path fill="none" stroke="midnightblue" d="M2311.14,-125.22C2365.52,-117.16 2457.53,-102.8 2536,-87 2539.09,-86.38 2542.27,-85.71 2545.47,-85.01"/>
<polygon fill="midnightblue" stroke="midnightblue" points="2310.49,-121.78 2301.1,-126.7 2311.51,-128.7 2310.49,-121.78"/>
</g>
<!-- Node27 -->
<g id="node27" class="node">
<title>Node27</title>
<g id="a_node27"><a xlink:href="vdp__set__screen__lines_8c.html" target="_top" xlink:title="Copyright (c) 2021 Daishi Mori (mori0091)">
<polygon fill="none" stroke="black" points="2667,-56.5 2667,-86.5 2769,-86.5 2769,-56.5 2667,-56.5"/>
<text text-anchor="start" x="2675" y="-74.5" font-family="Helvetica,sans-Serif" font-size="10.00">src/vdp_set_screen</text>
<text text-anchor="middle" x="2718" y="-63.5" font-family="Helvetica,sans-Serif" font-size="10.00">_lines.c</text>
</a>
</g>
</g>
<!-- Node3&#45;&gt;Node27 -->
<g id="edge28" class="edge">
<title>Node3&#45;&gt;Node27</title>
<path fill="none" stroke="midnightblue" d="M2311.58,-128.47C2385.91,-122.54 2533.94,-108.99 2658,-87 2660.85,-86.5 2663.76,-85.94 2666.7,-85.34"/>
<polygon fill="midnightblue" stroke="midnightblue" points="2310.85,-125.02 2301.16,-129.29 2311.4,-132 2310.85,-125.02"/>
</g>
<!-- Node28 -->
<g id="node28" class="node">
<title>Node28</title>
<g id="a_node28"><a xlink:href="vdp__set__screen__mode_8c.html" target="_top" xlink:title="Copyright (c) 2021 Daishi Mori (mori0091)">
<polygon fill="none" stroke="black" points="2787,-56.5 2787,-86.5 2889,-86.5 2889,-56.5 2787,-56.5"/>
<text text-anchor="start" x="2795" y="-74.5" font-family="Helvetica,sans-Serif" font-size="10.00">src/vdp_set_screen</text>
<text text-anchor="middle" x="2838" y="-63.5" font-family="Helvetica,sans-Serif" font-size="10.00">_mode.c</text>
</a>
</g>
</g>
<!-- Node3&#45;&gt;Node28 -->
<g id="edge29" class="edge">
<title>Node3&#45;&gt;Node28</title>
<path fill="none" stroke="midnightblue" d="M2311.26,-130.23C2402.17,-126.3 2607.51,-114.9 2778,-87 2780.86,-86.53 2783.78,-86 2786.72,-85.43"/>
<polygon fill="midnightblue" stroke="midnightblue" points="2310.85,-126.74 2301.01,-130.66 2311.15,-133.74 2310.85,-126.74"/>
</g>
<!-- Node29 -->
<g id="node29" class="node">
<title>Node29</title>
<g id="a_node29"><a xlink:href="vdp__set__sprite__attribute__table_8c.html" target="_top" xlink:title="Copyright (c) 2021 Daishi Mori (mori0091)">
<polygon fill="none" stroke="black" points="2906.5,-56.5 2906.5,-86.5 3003.5,-86.5 3003.5,-56.5 2906.5,-56.5"/>
<text text-anchor="start" x="2914.5" y="-74.5" font-family="Helvetica,sans-Serif" font-size="10.00">src/vdp_set_sprite</text>
<text text-anchor="middle" x="2955" y="-63.5" font-family="Helvetica,sans-Serif" font-size="10.00">_attribute_table.c</text>
</a>
</g>
</g>
<!-- Node3&#45;&gt;Node29 -->
<g id="edge30" class="edge">
<title>Node3&#45;&gt;Node29</title>
<path fill="none" stroke="midnightblue" d="M2311.09,-131.52C2416.77,-129.82 2680.56,-122.09 2898,-87 2900.72,-86.56 2903.5,-86.05 2906.3,-85.5"/>
<polygon fill="midnightblue" stroke="midnightblue" points="2311.02,-128.02 2301.07,-131.67 2311.12,-135.02 2311.02,-128.02"/>
</g>
<!-- Node30 -->
<g id="node30" class="node">
<title>Node30</title>
<g id="a_node30"><a xlink:href="vdp__set__sprite__pattern__table_8c.html" target="_top" xlink:title="Copyright (c) 2021 Daishi Mori (mori0091)">
<polygon fill="none" stroke="black" points="3021.5,-56.5 3021.5,-86.5 3118.5,-86.5 3118.5,-56.5 3021.5,-56.5"/>
<text text-anchor="start" x="3029.5" y="-74.5" font-family="Helvetica,sans-Serif" font-size="10.00">src/vdp_set_sprite</text>
<text text-anchor="middle" x="3070" y="-63.5" font-family="Helvetica,sans-Serif" font-size="10.00">_pattern_table.c</text>
</a>
</g>
</g>
<!-- Node3&#45;&gt;Node30 -->
<g id="edge31" class="edge">
<title>Node3&#45;&gt;Node30</title>
<path fill="none" stroke="midnightblue" d="M2311.5,-132.25C2430.42,-132.2 2750.3,-127.93 3013,-87 3015.72,-86.58 3018.51,-86.08 3021.31,-85.53"/>
<polygon fill="midnightblue" stroke="midnightblue" points="2311.29,-128.75 2301.28,-132.24 2311.28,-135.75 2311.29,-128.75"/>
</g>
<!-- Node31 -->
<g id="node31" class="node">
<title>Node31</title>
<g id="a_node31"><a xlink:href="vdp__set__sprite__size_8c.html" target="_top" xlink:title="Copyright (c) 2021 Daishi Mori (mori0091)">
<polygon fill="none" stroke="black" points="3136.5,-56.5 3136.5,-86.5 3233.5,-86.5 3233.5,-56.5 3136.5,-56.5"/>
<text text-anchor="start" x="3144.5" y="-74.5" font-family="Helvetica,sans-Serif" font-size="10.00">src/vdp_set_sprite</text>
<text text-anchor="middle" x="3185" y="-63.5" font-family="Helvetica,sans-Serif" font-size="10.00">_size.c</text>
</a>
</g>
</g>
<!-- Node3&#45;&gt;Node31 -->
<g id="edge32" class="edge">
<title>Node3&#45;&gt;Node31</title>
<path fill="none" stroke="midnightblue" d="M2311.51,-130.76C2468.32,-126.47 2968.5,-111.2 3128,-87 3130.73,-86.59 3133.51,-86.1 3136.31,-85.56"/>
<polygon fill="midnightblue" stroke="midnightblue" points="2311.15,-127.27 2301.25,-131.04 2311.34,-134.27 2311.15,-127.27"/>
</g>
<!-- Node32 -->
<g id="node32" class="node">
<title>Node32</title>
<g id="a_node32"><a xlink:href="vdp__set__sprite__visible_8c.html" target="_top" xlink:title="Copyright (c) 2021 Daishi Mori (mori0091)">
<polygon fill="none" stroke="black" points="3251.5,-56.5 3251.5,-86.5 3348.5,-86.5 3348.5,-56.5 3251.5,-56.5"/>
<text text-anchor="start" x="3259.5" y="-74.5" font-family="Helvetica,sans-Serif" font-size="10.00">src/vdp_set_sprite</text>
<text text-anchor="middle" x="3300" y="-63.5" font-family="Helvetica,sans-Serif" font-size="10.00">_visible.c</text>
</a>
</g>
</g>
<!-- Node3&#45;&gt;Node32 -->
<g id="edge33" class="edge">
<title>Node3&#45;&gt;Node32</title>
<path fill="none" stroke="midnightblue" d="M2311.19,-131.1C2480.9,-127.67 3059.92,-114.21 3243,-87 3245.73,-86.59 3248.51,-86.11 3251.31,-85.58"/>
<polygon fill="midnightblue" stroke="midnightblue" points="2311,-127.6 2301.07,-131.3 2311.14,-134.6 2311,-127.6"/>
</g>
<!-- Node33 -->
<g id="node33" class="node">
<title>Node33</title>
<g id="a_node33"><a xlink:href="vdp__set__visible_8c.html" target="_top" xlink:title="Copyright (c) 2021 Daishi Mori (mori0091)">
<polygon fill="none" stroke="black" points="3367,-62 3367,-81 3475,-81 3475,-62 3367,-62"/>
<text text-anchor="middle" x="3421" y="-69" font-family="Helvetica,sans-Serif" font-size="10.00">src/vdp_set_visible.c</text>
</a>
</g>
</g>
<!-- Node3&#45;&gt;Node33 -->
<g id="edge34" class="edge">
<title>Node3&#45;&gt;Node33</title>
<path fill="none" stroke="midnightblue" d="M2311.18,-131.22C2493.36,-128.04 3151.02,-114.83 3358,-87 3368.23,-85.62 3379.25,-83.36 3389.16,-81.03"/>
<polygon fill="midnightblue" stroke="midnightblue" points="2311.05,-127.72 2301.12,-131.4 2311.18,-134.72 2311.05,-127.72"/>
</g>
<!-- Node34 -->
<g id="node34" class="node">
<title>Node34</title>
<g id="a_node34"><a xlink:href="vdp__set__vscroll_8c.html" target="_top" xlink:title="Copyright (c) 2021 Daishi Mori (mori0091)">
<polygon fill="none" stroke="black" points="3493.5,-62 3493.5,-81 3602.5,-81 3602.5,-62 3493.5,-62"/>
<text text-anchor="middle" x="3548" y="-69" font-family="Helvetica,sans-Serif" font-size="10.00">src/vdp_set_vscroll.c</text>
</a>
</g>
</g>
<!-- Node3&#45;&gt;Node34 -->
<g id="edge35" class="edge">
<title>Node3&#45;&gt;Node34</title>
<path fill="none" stroke="midnightblue" d="M2311.36,-131.43C2506.78,-128.9 3251.06,-117.41 3484,-87 3494.39,-85.64 3505.58,-83.39 3515.65,-81.06"/>
<polygon fill="midnightblue" stroke="midnightblue" points="2311.1,-127.93 2301.14,-131.56 2311.18,-134.93 2311.1,-127.93"/>
</g>
<!-- Node35 -->
<g id="node35" class="node">
<title>Node35</title>
<g id="a_node35"><a xlink:href="vdp__write__control_8c.html" target="_top" xlink:title="Copyright (c) 2021 Daishi Mori (mori0091)">
<polygon fill="none" stroke="black" points="3620.5,-62 3620.5,-81 3737.5,-81 3737.5,-62 3620.5,-62"/>
<text text-anchor="middle" x="3679" y="-69" font-family="Helvetica,sans-Serif" font-size="10.00">src/vdp_write_control.c</text>
</a>
</g>
</g>
<!-- Node3&#45;&gt;Node35 -->
<g id="edge36" class="edge">
<title>Node3&#45;&gt;Node35</title>
<path fill="none" stroke="midnightblue" d="M2311.48,-131.56C2519.6,-129.46 3352.47,-119.15 3612,-87 3622.87,-85.65 3634.58,-83.4 3645.12,-81.07"/>
<polygon fill="midnightblue" stroke="midnightblue" points="2311.16,-128.06 2301.19,-131.66 2311.23,-135.06 2311.16,-128.06"/>
</g>
<!-- Node36 -->
<g id="node36" class="node">
<title>Node36</title>
<g id="a_node36"><a xlink:href="vdp__write__palette_8c.html" target="_top" xlink:title="Copyright (c) 2021 Daishi Mori (mori0091)">
<polygon fill="none" stroke="black" points="3755.5,-62 3755.5,-81 3872.5,-81 3872.5,-62 3755.5,-62"/>
<text text-anchor="middle" x="3814" y="-69" font-family="Helvetica,sans-Serif" font-size="10.00">src/vdp_write_palette.c</text>
</a>
</g>
</g>
<!-- Node3&#45;&gt;Node36 -->
<g id="edge37" class="edge">
<title>Node3&#45;&gt;Node36</title>
<path fill="none" stroke="midnightblue" d="M2311.49,-131.73C2532.24,-130.28 3459.44,-122.18 3747,-87 3757.99,-85.66 3769.83,-83.37 3780.46,-81.01"/>
<polygon fill="midnightblue" stroke="midnightblue" points="2311.2,-128.23 2301.22,-131.79 2311.24,-135.23 2311.2,-128.23"/>
</g>
<!-- Node37 -->
<g id="node37" class="node">
<title>Node37</title>
<g id="a_node37"><a xlink:href="vmem__memset_8c.html" target="_top" xlink:title="Copyright (c) 2021 Daishi Mori (mori0091)">
<polygon fill="none" stroke="black" points="3891,-62 3891,-81 3999,-81 3999,-62 3891,-62"/>
<text text-anchor="middle" x="3945" y="-69" font-family="Helvetica,sans-Serif" font-size="10.00">src/vmem_memset.c</text>
</a>
</g>
</g>
<!-- Node3&#45;&gt;Node37 -->
<g id="edge38" class="edge">
<title>Node3&#45;&gt;Node37</title>
<path fill="none" stroke="midnightblue" d="M2311.25,-131.95C2543.6,-131.51 3566.46,-127.29 3882,-87 3892.35,-85.68 3903.5,-83.4 3913.49,-81.04"/>
<polygon fill="midnightblue" stroke="midnightblue" points="2311.1,-128.45 2301.1,-131.97 2311.11,-135.45 2311.1,-128.45"/>
</g>
<!-- Node38 -->
<g id="node38" class="node">
<title>Node38</title>
<g id="a_node38"><a xlink:href="vmem__read_8c.html" target="_top" xlink:title="Copyright (c) 2021 Daishi Mori (mori0091)">
<polygon fill="none" stroke="black" points="4017,-62 4017,-81 4109,-81 4109,-62 4017,-62"/>
<text text-anchor="middle" x="4063" y="-69" font-family="Helvetica,sans-Serif" font-size="10.00">src/vmem_read.c</text>
</a>
</g>
</g>
<!-- Node3&#45;&gt;Node38 -->
<g id="edge39" class="edge">
<title>Node3&#45;&gt;Node38</title>
<path fill="none" stroke="midnightblue" d="M2311.37,-132.26C2554.82,-133.38 3666.94,-135.68 4008,-87 4017.09,-85.7 4026.84,-83.43 4035.56,-81.07"/>
<polygon fill="midnightblue" stroke="midnightblue" points="2311.11,-128.76 2301.1,-132.21 2311.08,-135.76 2311.11,-128.76"/>
</g>
<!-- Node39 -->
<g id="node39" class="node">
<title>Node39</title>
<g id="a_node39"><a xlink:href="vmem__set__read__address_8c.html" target="_top" xlink:title="Copyright (c) 2021 Daishi Mori (mori0091)">
<polygon fill="none" stroke="black" points="4127,-62 4127,-81 4277,-81 4277,-62 4127,-62"/>
<text text-anchor="middle" x="4202" y="-69" font-family="Helvetica,sans-Serif" font-size="10.00">src/vmem_set_read_address.c</text>
</a>
</g>
</g>
<!-- Node3&#45;&gt;Node39 -->
<g id="edge40" class="edge">
<title>Node3&#45;&gt;Node39</title>
<path fill="none" stroke="midnightblue" d="M2311.42,-131.79C2563.88,-130.54 3752.15,-122.82 4118,-87 4131.7,-85.66 4146.53,-83.38 4159.86,-81.02"/>
<polygon fill="midnightblue" stroke="midnightblue" points="2311.11,-128.29 2301.13,-131.84 2311.15,-135.29 2311.11,-128.29"/>
</g>
<!-- Node40 -->
<g id="node40" class="node">
<title>Node40</title>
<g id="a_node40"><a xlink:href="vmem__set__sprite__color__s_8c.html" target="_top" xlink:title="Copyright (c) 2021 Daishi Mori (mori0091)">
<polygon fill="none" stroke="black" points="4295,-56.5 4295,-86.5 4403,-86.5 4403,-56.5 4295,-56.5"/>
<text text-anchor="start" x="4303" y="-74.5" font-family="Helvetica,sans-Serif" font-size="10.00">src/vmem_set_sprite</text>
<text text-anchor="middle" x="4349" y="-63.5" font-family="Helvetica,sans-Serif" font-size="10.00">_color_s.c</text>
</a>
</g>
</g>
<!-- Node3&#45;&gt;Node40 -->
<g id="edge41" class="edge">
<title>Node3&#45;&gt;Node40</title>
<path fill="none" stroke="midnightblue" d="M2311.46,-132.26C2577.51,-133.5 3886.08,-136.94 4286,-87 4288.9,-86.64 4291.85,-86.2 4294.83,-85.71"/>
<polygon fill="midnightblue" stroke="midnightblue" points="2311.38,-128.76 2301.36,-132.21 2311.34,-135.76 2311.38,-128.76"/>
</g>
<!-- Node41 -->
<g id="node41" class="node">
<title>Node41</title>
<g id="a_node41"><a xlink:href="vmem__set__write__address_8c.html" target="_top" xlink:title="Copyright (c) 2021 Daishi Mori (mori0091)">
<polygon fill="none" stroke="black" points="4421.5,-56.5 4421.5,-86.5 4526.5,-86.5 4526.5,-56.5 4421.5,-56.5"/>
<text text-anchor="start" x="4429.5" y="-74.5" font-family="Helvetica,sans-Serif" font-size="10.00">src/vmem_set_write</text>
<text text-anchor="middle" x="4474" y="-63.5" font-family="Helvetica,sans-Serif" font-size="10.00">_address.c</text>
</a>
</g>
</g>
<!-- Node3&#45;&gt;Node41 -->
<g id="edge42" class="edge">
<title>Node3&#45;&gt;Node41</title>
<path fill="none" stroke="midnightblue" d="M2311.41,-131.6C2607.52,-129.03 4197.35,-114.05 4412,-87 4415.07,-86.61 4418.21,-86.14 4421.37,-85.6"/>
<polygon fill="midnightblue" stroke="midnightblue" points="2311,-128.1 2301.03,-131.69 2311.06,-135.1 2311,-128.1"/>
</g>
<!-- Node42 -->
<g id="node42" class="node">
<title>Node42</title>
<g id="a_node42"><a xlink:href="vmem__write_8c.html" target="_top" xlink:title="Copyright (c) 2021 Daishi Mori (mori0091)">
<polygon fill="none" stroke="black" points="4545,-62 4545,-81 4639,-81 4639,-62 4545,-62"/>
<text text-anchor="middle" x="4592" y="-69" font-family="Helvetica,sans-Serif" font-size="10.00">src/vmem_write.c</text>
</a>
</g>
</g>
<!-- Node3&#45;&gt;Node42 -->
<g id="edge43" class="edge">
<title>Node3&#45;&gt;Node42</title>
<path fill="none" stroke="midnightblue" d="M2311.72,-131.72C2618.58,-129.86 4308.71,-118.24 4536,-87 4545.35,-85.71 4555.39,-83.42 4564.34,-81.03"/>
<polygon fill="midnightblue" stroke="midnightblue" points="2311.37,-128.23 2301.39,-131.79 2311.41,-135.23 2311.37,-128.23"/>
</g>
<!-- Node4&#45;&gt;Node2 -->
<g id="edge4" class="edge">
<title>Node4&#45;&gt;Node2</title>
<path fill="none" stroke="midnightblue" d="M138.41,-57.67C113.57,-46.13 77.77,-29.49 56.31,-19.51"/>
<polygon fill="midnightblue" stroke="midnightblue" points="137.12,-60.93 147.66,-61.98 140.07,-54.59 137.12,-60.93"/>
</g>
<!-- Node5 -->
<g id="node5" class="node">
<title>Node5</title>
<g id="a_node5"><a xlink:href="vmem__set__metasprite__a_8c.html" target="_top" xlink:title="Copyright (c) 2021 Daishi Mori (mori0091)">
<polygon fill="none" stroke="black" points="94,-0.5 94,-19.5 242,-19.5 242,-0.5 94,-0.5"/>
<text text-anchor="middle" x="168" y="-7.5" font-family="Helvetica,sans-Serif" font-size="10.00">src/vmem_set_metasprite_a.c</text>
</a>
</g>
</g>
<!-- Node4&#45;&gt;Node5 -->
<g id="edge5" class="edge">
<title>Node4&#45;&gt;Node5</title>
<path fill="none" stroke="midnightblue" d="M166.63,-51.82C166.99,-41 167.43,-27.9 167.71,-19.51"/>
<polygon fill="midnightblue" stroke="midnightblue" points="163.12,-51.86 166.29,-61.98 170.12,-52.1 163.12,-51.86"/>
</g>
<!-- Node6 -->
<g id="node6" class="node">
<title>Node6</title>
<g id="a_node6"><a xlink:href="vmem__set__metasprite__m_8c.html" target="_top" xlink:title="Copyright (c) 2021 Daishi Mori (mori0091)">
<polygon fill="none" stroke="black" points="260.5,-0.5 260.5,-19.5 411.5,-19.5 411.5,-0.5 260.5,-0.5"/>
<text text-anchor="middle" x="336" y="-7.5" font-family="Helvetica,sans-Serif" font-size="10.00">src/vmem_set_metasprite_m.c</text>
</a>
</g>
</g>
<!-- Node4&#45;&gt;Node6 -->
<g id="edge6" class="edge">
<title>Node4&#45;&gt;Node6</title>
<path fill="none" stroke="midnightblue" d="M200.05,-58.58C233.09,-47.02 282.42,-29.75 311.69,-19.51"/>
<polygon fill="midnightblue" stroke="midnightblue" points="198.64,-55.37 190.36,-61.98 200.95,-61.98 198.64,-55.37"/>
</g>
<!-- Node7 -->
<g id="node7" class="node">
<title>Node7</title>
<g id="a_node7"><a xlink:href="vmem__set__metasprite__s_8c.html" target="_top" xlink:title="Copyright (c) 2021 Daishi Mori (mori0091)">
<polygon fill="none" stroke="black" points="430,-0.5 430,-19.5 578,-19.5 578,-0.5 430,-0.5"/>
<text text-anchor="middle" x="504" y="-7.5" font-family="Helvetica,sans-Serif" font-size="10.00">src/vmem_set_metasprite_s.c</text>
</a>
</g>
</g>
<!-- Node4&#45;&gt;Node7 -->
<g id="edge7" class="edge">
<title>Node4&#45;&gt;Node7</title>
<path fill="none" stroke="midnightblue" d="M210.15,-59.61C215.8,-58.33 221.53,-57.09 227,-56 301.17,-41.18 387.26,-27.78 443.52,-19.54"/>
<polygon fill="midnightblue" stroke="midnightblue" points="209.06,-56.27 200.1,-61.93 210.63,-63.09 209.06,-56.27"/>
</g>
</g>
</svg>
