<?xml version="1.0" encoding="UTF-8" standalone="no"?>
<!DOCTYPE svg PUBLIC "-//W3C//DTD SVG 1.1//EN"
 "http://www.w3.org/Graphics/SVG/1.1/DTD/svg11.dtd">
<!-- Generated by graphviz version 7.0.5 (20221223.1930)
 -->
<!-- Title: include/workarea.h Pages: 1 -->
<svg width="157pt" height="192pt"
 viewBox="0.00 0.00 156.50 192.00" xmlns="http://www.w3.org/2000/svg" xmlns:xlink="http://www.w3.org/1999/xlink">
<g id="graph0" class="graph" transform="scale(1 1) rotate(0) translate(4 188)">
<title>include/workarea.h</title>
<!-- Node1 -->
<g id="node1" class="node">
<title>Node1</title>
<g id="a_node1"><a xlink:title="Definitions of MSX SYSTEM Workarea.">
<polygon fill="#999999" stroke="#666666" points="98,-184 0,-184 0,-165 98,-165 98,-184"/>
<text text-anchor="middle" x="49" y="-172" font-family="Helvetica,sans-Serif" font-size="10.00">include/workarea.h</text>
</a>
</g>
</g>
<!-- Node2 -->
<g id="node2" class="node">
<title>Node2</title>
<g id="a_node2"><a xlink:title=" ">
<polygon fill="#e0e0e0" stroke="#999999" points="86,-19 38,-19 38,0 86,0 86,-19"/>
<text text-anchor="middle" x="62" y="-7" font-family="Helvetica,sans-Serif" font-size="10.00">stdint.h</text>
</a>
</g>
</g>
<!-- Node1&#45;&gt;Node2 -->
<g id="edge1" class="edge">
<title>Node1&#45;&gt;Node2</title>
<path fill="none" stroke="#63b8ff" d="M44.5,-164.65C34.96,-144.64 14.61,-94.58 28,-55 31.41,-44.92 38.12,-35.32 44.69,-27.64"/>
<polygon fill="#63b8ff" stroke="#63b8ff" points="47.14,-30.14 51.37,-20.42 42.01,-25.38 47.14,-30.14"/>
</g>
<!-- Node3 -->
<g id="node3" class="node">
<title>Node3</title>
<g id="a_node3"><a xlink:href="config_8h.html" target="_top" xlink:title="Hack for C Compiler portability.">
<polygon fill="white" stroke="#666666" points="87,-74 37,-74 37,-55 87,-55 87,-74"/>
<text text-anchor="middle" x="62" y="-62" font-family="Helvetica,sans-Serif" font-size="10.00">config.h</text>
</a>
</g>
</g>
<!-- Node1&#45;&gt;Node3 -->
<g id="edge2" class="edge">
<title>Node1&#45;&gt;Node3</title>
<path fill="none" stroke="#63b8ff" d="M50.06,-164.66C52.13,-147.5 56.73,-109.26 59.58,-85.6"/>
<polygon fill="#63b8ff" stroke="#63b8ff" points="63.02,-86.31 60.74,-75.96 56.07,-85.47 63.02,-86.31"/>
</g>
<!-- Node4 -->
<g id="node4" class="node">
<title>Node4</title>
<g id="a_node4"><a xlink:href="bios__const_8h.html" target="_top" xlink:title="Constant variables in the MSX BIOS ROM.">
<polygon fill="white" stroke="#666666" points="148.5,-129 77.5,-129 77.5,-110 148.5,-110 148.5,-129"/>
<text text-anchor="middle" x="113" y="-117" font-family="Helvetica,sans-Serif" font-size="10.00">bios_const.h</text>
</a>
</g>
</g>
<!-- Node1&#45;&gt;Node4 -->
<g id="edge4" class="edge">
<title>Node1&#45;&gt;Node4</title>
<path fill="none" stroke="#63b8ff" d="M59.86,-164.51C69.11,-156.85 82.62,-145.66 93.71,-136.47"/>
<polygon fill="#63b8ff" stroke="#63b8ff" points="95.67,-139.4 101.14,-130.32 91.2,-134.01 95.67,-139.4"/>
</g>
<!-- Node3&#45;&gt;Node2 -->
<g id="edge3" class="edge">
<title>Node3&#45;&gt;Node2</title>
<path fill="none" stroke="#63b8ff" d="M62,-54.75C62,-48.27 62,-39.16 62,-30.9"/>
<polygon fill="#63b8ff" stroke="#63b8ff" points="65.5,-30.96 62,-20.96 58.5,-30.96 65.5,-30.96"/>
</g>
<!-- Node4&#45;&gt;Node2 -->
<g id="edge5" class="edge">
<title>Node4&#45;&gt;Node2</title>
<path fill="none" stroke="#63b8ff" d="M111.79,-109.91C109.79,-97.34 105.06,-73.43 96,-55 91.24,-45.32 84.23,-35.68 77.8,-27.86"/>
<polygon fill="#63b8ff" stroke="#63b8ff" points="80.62,-25.77 71.44,-20.48 75.32,-30.34 80.62,-25.77"/>
</g>
<!-- Node4&#45;&gt;Node3 -->
<g id="edge6" class="edge">
<title>Node4&#45;&gt;Node3</title>
<path fill="none" stroke="#63b8ff" d="M104.58,-109.75C97.53,-102.43 87.27,-91.76 78.59,-82.74"/>
<polygon fill="#63b8ff" stroke="#63b8ff" points="81.11,-80.31 71.65,-75.53 76.07,-85.17 81.11,-80.31"/>
</g>
</g>
</svg>
