<?xml version="1.0" encoding="UTF-8" standalone="no"?>
<!DOCTYPE svg PUBLIC "-//W3C//DTD SVG 1.1//EN"
 "http://www.w3.org/Graphics/SVG/1.1/DTD/svg11.dtd">
<!-- Generated by graphviz version 2.44.0 ()
 -->
<!-- Title: include/workarea.h Pages: 1 -->
<svg width="4509pt" height="207pt"
 viewBox="0.00 0.00 4509.00 207.00" xmlns="http://www.w3.org/2000/svg" xmlns:xlink="http://www.w3.org/1999/xlink">
<g id="graph0" class="graph" transform="scale(1 1) rotate(0) translate(4 203)">
<title>include/workarea.h</title>
<!-- Node1 -->
<g id="node1" class="node">
<title>Node1</title>
<g id="a_node1"><a xlink:title="Copyright (c) 2021 Daishi Mori (mori0091)">
<polygon fill="#bfbfbf" stroke="black" points="1068,-179.5 1068,-198.5 1166,-198.5 1166,-179.5 1068,-179.5"/>
<text text-anchor="middle" x="1117" y="-186.5" font-family="Helvetica,sans-Serif" font-size="10.00">include/workarea.h</text>
</a>
</g>
</g>
<!-- Node2 -->
<g id="node2" class="node">
<title>Node2</title>
<g id="a_node2"><a xlink:href="msx_8h.html" target="_top" xlink:title="Copyright (c) 2021 Daishi Mori (mori0091)">
<polygon fill="none" stroke="black" points="0,-0.5 0,-19.5 76,-19.5 76,-0.5 0,-0.5"/>
<text text-anchor="middle" x="38" y="-7.5" font-family="Helvetica,sans-Serif" font-size="10.00">include/msx.h</text>
</a>
</g>
</g>
<!-- Node1&#45;&gt;Node2 -->
<g id="edge1" class="edge">
<title>Node1&#45;&gt;Node2</title>
<path fill="none" stroke="midnightblue" d="M1057.54,-186.02C846.57,-178.47 142.31,-148.84 64,-87 42.99,-70.41 38.87,-35.95 38.12,-19.76"/>
<polygon fill="midnightblue" stroke="midnightblue" points="1057.68,-189.52 1067.8,-186.38 1057.93,-182.53 1057.68,-189.52"/>
</g>
<!-- Node3 -->
<g id="node3" class="node">
<title>Node3</title>
<g id="a_node3"><a xlink:href="vdp_8h.html" target="_top" xlink:title="Copyright (c) 2021 Daishi Mori (mori0091)">
<polygon fill="none" stroke="black" points="2157,-123.5 2157,-142.5 2231,-142.5 2231,-123.5 2157,-123.5"/>
<text text-anchor="middle" x="2194" y="-130.5" font-family="Helvetica,sans-Serif" font-size="10.00">include/vdp.h</text>
</a>
</g>
</g>
<!-- Node1&#45;&gt;Node3 -->
<g id="edge2" class="edge">
<title>Node1&#45;&gt;Node3</title>
<path fill="none" stroke="midnightblue" d="M1176.19,-185.03C1372.34,-175.2 1997.68,-143.84 2156.86,-135.86"/>
<polygon fill="midnightblue" stroke="midnightblue" points="1175.89,-181.54 1166.08,-185.54 1176.24,-188.53 1175.89,-181.54"/>
</g>
<!-- Node3&#45;&gt;Node2 -->
<g id="edge8" class="edge">
<title>Node3&#45;&gt;Node2</title>
<path fill="none" stroke="midnightblue" d="M2146.81,-132.05C1845.53,-132.27 200.61,-131.42 105,-87 74.05,-72.62 51.53,-36.39 42.44,-19.68"/>
<polygon fill="midnightblue" stroke="midnightblue" points="2146.96,-135.55 2156.96,-132.05 2146.96,-128.55 2146.96,-135.55"/>
</g>
<!-- Node4 -->
<g id="node4" class="node">
<title>Node4</title>
<g id="a_node4"><a xlink:href="metasprite_8h.html" target="_top" xlink:title="Copyright (c) 2021 Daishi Mori (mori0091)">
<polygon fill="none" stroke="black" points="114,-62 114,-81 218,-81 218,-62 114,-62"/>
<text text-anchor="middle" x="166" y="-69" font-family="Helvetica,sans-Serif" font-size="10.00">include/metasprite.h</text>
</a>
</g>
</g>
<!-- Node3&#45;&gt;Node4 -->
<g id="edge3" class="edge">
<title>Node3&#45;&gt;Node4</title>
<path fill="none" stroke="midnightblue" d="M2146.6,-132.27C1884.98,-133.54 615.24,-137.02 227,-87 216.85,-85.69 205.93,-83.39 196.17,-81"/>
<polygon fill="midnightblue" stroke="midnightblue" points="2146.91,-135.77 2156.89,-132.22 2146.88,-128.77 2146.91,-135.77"/>
</g>
<!-- Node8 -->
<g id="node8" class="node">
<title>Node8</title>
<g id="a_node8"><a xlink:href="vdp_8c.html" target="_top" xlink:title="Copyright (c) 2021 Daishi Mori (mori0091)">
<polygon fill="none" stroke="black" points="236,-62 236,-81 292,-81 292,-62 236,-62"/>
<text text-anchor="middle" x="264" y="-69" font-family="Helvetica,sans-Serif" font-size="10.00">src/vdp.c</text>
</a>
</g>
</g>
<!-- Node3&#45;&gt;Node8 -->
<g id="edge9" class="edge">
<title>Node3&#45;&gt;Node8</title>
<path fill="none" stroke="midnightblue" d="M2146.61,-131.86C1871.6,-130.92 486.64,-124.37 301,-87 294.64,-85.72 287.96,-83.43 282.06,-81.03"/>
<polygon fill="midnightblue" stroke="midnightblue" points="2146.65,-135.36 2156.66,-131.89 2146.67,-128.36 2146.65,-135.36"/>
</g>
<!-- Node9 -->
<g id="node9" class="node">
<title>Node9</title>
<g id="a_node9"><a xlink:href="vdp__cmd__execute__HMMM_8c.html" target="_top" xlink:title="Copyright (c) 2021 Daishi Mori (mori0091)">
<polygon fill="none" stroke="black" points="310,-56.5 310,-86.5 422,-86.5 422,-56.5 310,-56.5"/>
<text text-anchor="start" x="318" y="-74.5" font-family="Helvetica,sans-Serif" font-size="10.00">src/vdp_cmd_execute</text>
<text text-anchor="middle" x="366" y="-63.5" font-family="Helvetica,sans-Serif" font-size="10.00">_HMMM.c</text>
</a>
</g>
</g>
<!-- Node3&#45;&gt;Node9 -->
<g id="edge10" class="edge">
<title>Node3&#45;&gt;Node9</title>
<path fill="none" stroke="midnightblue" d="M2146.54,-132.03C1901.42,-132.02 776.84,-129.58 431,-87 428.13,-86.65 425.2,-86.22 422.25,-85.75"/>
<polygon fill="midnightblue" stroke="midnightblue" points="2146.89,-135.53 2156.89,-132.03 2146.89,-128.53 2146.89,-135.53"/>
</g>
<!-- Node10 -->
<g id="node10" class="node">
<title>Node10</title>
<g id="a_node10"><a xlink:href="vdp__cmd__execute__HMMV_8c.html" target="_top" xlink:title="Copyright (c) 2021 Daishi Mori (mori0091)">
<polygon fill="none" stroke="black" points="440,-56.5 440,-86.5 552,-86.5 552,-56.5 440,-56.5"/>
<text text-anchor="start" x="448" y="-74.5" font-family="Helvetica,sans-Serif" font-size="10.00">src/vdp_cmd_execute</text>
<text text-anchor="middle" x="496" y="-63.5" font-family="Helvetica,sans-Serif" font-size="10.00">_HMMV.c</text>
</a>
</g>
</g>
<!-- Node3&#45;&gt;Node10 -->
<g id="edge11" class="edge">
<title>Node3&#45;&gt;Node10</title>
<path fill="none" stroke="midnightblue" d="M2146.7,-131.92C1912.96,-131.35 879.77,-126.58 561,-87 558.13,-86.64 555.2,-86.22 552.25,-85.74"/>
<polygon fill="midnightblue" stroke="midnightblue" points="2146.9,-135.42 2156.9,-131.95 2146.91,-128.42 2146.9,-135.42"/>
</g>
<!-- Node11 -->
<g id="node11" class="node">
<title>Node11</title>
<g id="a_node11"><a xlink:href="vdp__cmd__execute__LMMM_8c.html" target="_top" xlink:title="Copyright (c) 2021 Daishi Mori (mori0091)">
<polygon fill="none" stroke="black" points="570,-56.5 570,-86.5 682,-86.5 682,-56.5 570,-56.5"/>
<text text-anchor="start" x="578" y="-74.5" font-family="Helvetica,sans-Serif" font-size="10.00">src/vdp_cmd_execute</text>
<text text-anchor="middle" x="626" y="-63.5" font-family="Helvetica,sans-Serif" font-size="10.00">_LMMM.c</text>
</a>
</g>
</g>
<!-- Node3&#45;&gt;Node11 -->
<g id="edge12" class="edge">
<title>Node3&#45;&gt;Node11</title>
<path fill="none" stroke="midnightblue" d="M2146.92,-131.79C1925.11,-130.63 982.79,-123.58 691,-87 688.13,-86.64 685.2,-86.21 682.26,-85.73"/>
<polygon fill="midnightblue" stroke="midnightblue" points="2146.92,-135.29 2156.94,-131.84 2146.96,-128.29 2146.92,-135.29"/>
</g>
<!-- Node12 -->
<g id="node12" class="node">
<title>Node12</title>
<g id="a_node12"><a xlink:href="vdp__cmd__execute__LMMV_8c.html" target="_top" xlink:title="Copyright (c) 2021 Daishi Mori (mori0091)">
<polygon fill="none" stroke="black" points="700,-56.5 700,-86.5 812,-86.5 812,-56.5 700,-56.5"/>
<text text-anchor="start" x="708" y="-74.5" font-family="Helvetica,sans-Serif" font-size="10.00">src/vdp_cmd_execute</text>
<text text-anchor="middle" x="756" y="-63.5" font-family="Helvetica,sans-Serif" font-size="10.00">_LMMV.c</text>
</a>
</g>
</g>
<!-- Node3&#45;&gt;Node12 -->
<g id="edge13" class="edge">
<title>Node3&#45;&gt;Node12</title>
<path fill="none" stroke="midnightblue" d="M2146.68,-131.61C1936.55,-129.72 1086.53,-120.11 822,-87 818.74,-86.59 815.4,-86.1 812.05,-85.55"/>
<polygon fill="midnightblue" stroke="midnightblue" points="2146.74,-135.11 2156.77,-131.7 2146.81,-128.11 2146.74,-135.11"/>
</g>
<!-- Node13 -->
<g id="node13" class="node">
<title>Node13</title>
<g id="a_node13"><a xlink:href="vdp__cmd__set__unrestricted_8c.html" target="_top" xlink:title="Copyright (c) 2021 Daishi Mori (mori0091)">
<polygon fill="none" stroke="black" points="830.5,-62 830.5,-81 985.5,-81 985.5,-62 830.5,-62"/>
<text text-anchor="middle" x="908" y="-69" font-family="Helvetica,sans-Serif" font-size="10.00">src/vdp_cmd_set_unrestricted.c</text>
</a>
</g>
</g>
<!-- Node3&#45;&gt;Node13 -->
<g id="edge14" class="edge">
<title>Node3&#45;&gt;Node13</title>
<path fill="none" stroke="midnightblue" d="M2146.49,-132.39C1984.8,-133.25 1441.13,-132.36 995,-87 981.14,-85.59 966.14,-83.35 952.56,-81.05"/>
<polygon fill="midnightblue" stroke="midnightblue" points="2146.61,-135.89 2156.58,-132.33 2146.56,-128.89 2146.61,-135.89"/>
</g>
<!-- Node14 -->
<g id="node14" class="node">
<title>Node14</title>
<g id="a_node14"><a xlink:href="vdp__get__sprite__mode_8c.html" target="_top" xlink:title="Copyright (c) 2021 Daishi Mori (mori0091)">
<polygon fill="none" stroke="black" points="1003.5,-56.5 1003.5,-86.5 1100.5,-86.5 1100.5,-56.5 1003.5,-56.5"/>
<text text-anchor="start" x="1011.5" y="-74.5" font-family="Helvetica,sans-Serif" font-size="10.00">src/vdp_get_sprite</text>
<text text-anchor="middle" x="1052" y="-63.5" font-family="Helvetica,sans-Serif" font-size="10.00">_mode.c</text>
</a>
</g>
</g>
<!-- Node3&#45;&gt;Node14 -->
<g id="edge15" class="edge">
<title>Node3&#45;&gt;Node14</title>
<path fill="none" stroke="midnightblue" d="M2146.93,-131.32C1965.93,-128.51 1314.71,-116.52 1110,-87 1106.92,-86.56 1103.76,-86.02 1100.59,-85.41"/>
<polygon fill="midnightblue" stroke="midnightblue" points="2146.88,-134.82 2156.93,-131.47 2146.99,-127.82 2146.88,-134.82"/>
</g>
<!-- Node15 -->
<g id="node15" class="node">
<title>Node15</title>
<g id="a_node15"><a xlink:href="vdp__get__status_8c.html" target="_top" xlink:title="Copyright (c) 2021 Daishi Mori (mori0091)">
<polygon fill="none" stroke="black" points="1118.5,-62 1118.5,-81 1225.5,-81 1225.5,-62 1118.5,-62"/>
<text text-anchor="middle" x="1172" y="-69" font-family="Helvetica,sans-Serif" font-size="10.00">src/vdp_get_status.c</text>
</a>
</g>
</g>
<!-- Node3&#45;&gt;Node15 -->
<g id="edge16" class="edge">
<title>Node3&#45;&gt;Node15</title>
<path fill="none" stroke="midnightblue" d="M2146.7,-130.9C1979.14,-126.85 1414.24,-111.63 1235,-87 1224.88,-85.61 1214,-83.38 1204.17,-81.07"/>
<polygon fill="midnightblue" stroke="midnightblue" points="2146.85,-134.41 2156.93,-131.15 2147.01,-127.41 2146.85,-134.41"/>
</g>
<!-- Node16 -->
<g id="node16" class="node">
<title>Node16</title>
<g id="a_node16"><a xlink:href="vdp__set__adjust_8c.html" target="_top" xlink:title="Copyright (c) 2021 Daishi Mori (mori0091)">
<polygon fill="none" stroke="black" points="1243.5,-62 1243.5,-81 1350.5,-81 1350.5,-62 1243.5,-62"/>
<text text-anchor="middle" x="1297" y="-69" font-family="Helvetica,sans-Serif" font-size="10.00">src/vdp_set_adjust.c</text>
</a>
</g>
</g>
<!-- Node3&#45;&gt;Node16 -->
<g id="edge17" class="edge">
<title>Node3&#45;&gt;Node16</title>
<path fill="none" stroke="midnightblue" d="M2146.57,-132.29C2018.83,-132.46 1657.12,-128.89 1360,-87 1349.89,-85.57 1339,-83.33 1329.17,-81.03"/>
<polygon fill="midnightblue" stroke="midnightblue" points="2146.79,-135.79 2156.79,-132.27 2146.78,-128.79 2146.79,-135.79"/>
</g>
<!-- Node17 -->
<g id="node17" class="node">
<title>Node17</title>
<g id="a_node17"><a xlink:href="vdp__set__color_8c.html" target="_top" xlink:title="Copyright (c) 2021 Daishi Mori (mori0091)">
<polygon fill="none" stroke="black" points="1368.5,-62 1368.5,-81 1469.5,-81 1469.5,-62 1368.5,-62"/>
<text text-anchor="middle" x="1419" y="-69" font-family="Helvetica,sans-Serif" font-size="10.00">src/vdp_set_color.c</text>
</a>
</g>
</g>
<!-- Node3&#45;&gt;Node17 -->
<g id="edge18" class="edge">
<title>Node3&#45;&gt;Node17</title>
<path fill="none" stroke="midnightblue" d="M2146.71,-131.86C2031.71,-130.91 1728.55,-124.71 1479,-87 1469.46,-85.56 1459.22,-83.34 1449.94,-81.07"/>
<polygon fill="midnightblue" stroke="midnightblue" points="2146.9,-135.36 2156.92,-131.94 2146.95,-128.36 2146.9,-135.36"/>
</g>
<!-- Node18 -->
<g id="node18" class="node">
<title>Node18</title>
<g id="a_node18"><a xlink:href="vdp__set__color__table_8c.html" target="_top" xlink:title="Copyright (c) 2021 Daishi Mori (mori0091)">
<polygon fill="none" stroke="black" points="1488,-62 1488,-81 1616,-81 1616,-62 1488,-62"/>
<text text-anchor="middle" x="1552" y="-69" font-family="Helvetica,sans-Serif" font-size="10.00">src/vdp_set_color_table.c</text>
</a>
</g>
</g>
<!-- Node3&#45;&gt;Node18 -->
<g id="edge19" class="edge">
<title>Node3&#45;&gt;Node18</title>
<path fill="none" stroke="midnightblue" d="M2146.74,-130.14C2048.97,-125.87 1817.49,-113.64 1625,-87 1613.74,-85.44 1601.59,-83.24 1590.5,-81.02"/>
<polygon fill="midnightblue" stroke="midnightblue" points="2146.75,-133.64 2156.89,-130.57 2147.05,-126.65 2146.75,-133.64"/>
</g>
<!-- Node19 -->
<g id="node19" class="node">
<title>Node19</title>
<g id="a_node19"><a xlink:href="vdp__set__control_8c.html" target="_top" xlink:title="Copyright (c) 2021 Daishi Mori (mori0091)">
<polygon fill="none" stroke="black" points="1634,-62 1634,-81 1744,-81 1744,-62 1634,-62"/>
<text text-anchor="middle" x="1689" y="-69" font-family="Helvetica,sans-Serif" font-size="10.00">src/vdp_set_control.c</text>
</a>
</g>
</g>
<!-- Node3&#45;&gt;Node19 -->
<g id="edge20" class="edge">
<title>Node3&#45;&gt;Node19</title>
<path fill="none" stroke="midnightblue" d="M2146.36,-128.97C2065.37,-123.41 1895.82,-109.99 1754,-87 1744.07,-85.39 1733.38,-83.2 1723.6,-81.01"/>
<polygon fill="midnightblue" stroke="midnightblue" points="2146.51,-132.49 2156.72,-129.67 2146.98,-125.51 2146.51,-132.49"/>
</g>
<!-- Node20 -->
<g id="node20" class="node">
<title>Node20</title>
<g id="a_node20"><a xlink:href="vdp__set__hscroll_8c.html" target="_top" xlink:title="Copyright (c) 2021 Daishi Mori (mori0091)">
<polygon fill="none" stroke="black" points="1762.5,-62 1762.5,-81 1871.5,-81 1871.5,-62 1762.5,-62"/>
<text text-anchor="middle" x="1817" y="-69" font-family="Helvetica,sans-Serif" font-size="10.00">src/vdp_set_hscroll.c</text>
</a>
</g>
</g>
<!-- Node3&#45;&gt;Node20 -->
<g id="edge21" class="edge">
<title>Node3&#45;&gt;Node20</title>
<path fill="none" stroke="midnightblue" d="M2146.58,-126.38C2085.09,-118.82 1974.64,-104.31 1881,-87 1871.7,-85.28 1861.71,-83.15 1852.44,-81.06"/>
<polygon fill="midnightblue" stroke="midnightblue" points="2146.39,-129.89 2156.74,-127.62 2147.24,-122.94 2146.39,-129.89"/>
</g>
<!-- Node21 -->
<g id="node21" class="node">
<title>Node21</title>
<g id="a_node21"><a xlink:href="vdp__set__hscroll__dual__page_8c.html" target="_top" xlink:title="Copyright (c) 2021 Daishi Mori (mori0091)">
<polygon fill="none" stroke="black" points="1889.5,-56.5 1889.5,-86.5 1990.5,-86.5 1990.5,-56.5 1889.5,-56.5"/>
<text text-anchor="start" x="1897.5" y="-74.5" font-family="Helvetica,sans-Serif" font-size="10.00">src/vdp_set_hscroll</text>
<text text-anchor="middle" x="1940" y="-63.5" font-family="Helvetica,sans-Serif" font-size="10.00">_dual_page.c</text>
</a>
</g>
</g>
<!-- Node3&#45;&gt;Node21 -->
<g id="edge22" class="edge">
<title>Node3&#45;&gt;Node21</title>
<path fill="none" stroke="midnightblue" d="M2146.95,-121.21C2107.65,-112.17 2050.14,-98.87 2000,-87 1996.98,-86.28 1993.87,-85.54 1990.73,-84.79"/>
<polygon fill="midnightblue" stroke="midnightblue" points="2146.26,-124.65 2156.79,-123.47 2147.82,-117.82 2146.26,-124.65"/>
</g>
<!-- Node22 -->
<g id="node22" class="node">
<title>Node22</title>
<g id="a_node22"><a xlink:href="vdp__set__hscroll__mask_8c.html" target="_top" xlink:title="Copyright (c) 2021 Daishi Mori (mori0091)">
<polygon fill="none" stroke="black" points="2008.5,-56.5 2008.5,-86.5 2109.5,-86.5 2109.5,-56.5 2008.5,-56.5"/>
<text text-anchor="start" x="2016.5" y="-74.5" font-family="Helvetica,sans-Serif" font-size="10.00">src/vdp_set_hscroll</text>
<text text-anchor="middle" x="2059" y="-63.5" font-family="Helvetica,sans-Serif" font-size="10.00">_mask.c</text>
</a>
</g>
</g>
<!-- Node3&#45;&gt;Node22 -->
<g id="edge23" class="edge">
<title>Node3&#45;&gt;Node22</title>
<path fill="none" stroke="midnightblue" d="M2165.25,-119.33C2143.41,-109.7 2113.38,-96.47 2090.82,-86.52"/>
<polygon fill="midnightblue" stroke="midnightblue" points="2164.1,-122.64 2174.66,-123.48 2166.92,-116.24 2164.1,-122.64"/>
</g>
<!-- Node23 -->
<g id="node23" class="node">
<title>Node23</title>
<g id="a_node23"><a xlink:href="vdp__set__image__table_8c.html" target="_top" xlink:title="Copyright (c) 2021 Daishi Mori (mori0091)">
<polygon fill="none" stroke="black" points="2127.5,-62 2127.5,-81 2260.5,-81 2260.5,-62 2127.5,-62"/>
<text text-anchor="middle" x="2194" y="-69" font-family="Helvetica,sans-Serif" font-size="10.00">src/vdp_set_image_table.c</text>
</a>
</g>
</g>
<!-- Node3&#45;&gt;Node23 -->
<g id="edge24" class="edge">
<title>Node3&#45;&gt;Node23</title>
<path fill="none" stroke="midnightblue" d="M2194,-113.32C2194,-102.5 2194,-89.4 2194,-81.01"/>
<polygon fill="midnightblue" stroke="midnightblue" points="2190.5,-113.48 2194,-123.48 2197.5,-113.48 2190.5,-113.48"/>
</g>
<!-- Node24 -->
<g id="node24" class="node">
<title>Node24</title>
<g id="a_node24"><a xlink:href="vdp__set__palette_8c.html" target="_top" xlink:title="Copyright (c) 2021 Daishi Mori (mori0091)">
<polygon fill="none" stroke="black" points="2279,-62 2279,-81 2389,-81 2389,-62 2279,-62"/>
<text text-anchor="middle" x="2334" y="-69" font-family="Helvetica,sans-Serif" font-size="10.00">src/vdp_set_palette.c</text>
</a>
</g>
</g>
<!-- Node3&#45;&gt;Node24 -->
<g id="edge25" class="edge">
<title>Node3&#45;&gt;Node24</title>
<path fill="none" stroke="midnightblue" d="M2223.46,-119.48C2250.65,-107.92 2290.29,-91.08 2313.98,-81.01"/>
<polygon fill="midnightblue" stroke="midnightblue" points="2221.89,-116.34 2214.06,-123.48 2224.63,-122.78 2221.89,-116.34"/>
</g>
<!-- Node25 -->
<g id="node25" class="node">
<title>Node25</title>
<g id="a_node25"><a xlink:href="vdp__set__pattern__table_8c.html" target="_top" xlink:title="Copyright (c) 2021 Daishi Mori (mori0091)">
<polygon fill="none" stroke="black" points="2407.5,-56.5 2407.5,-86.5 2510.5,-86.5 2510.5,-56.5 2407.5,-56.5"/>
<text text-anchor="start" x="2415.5" y="-74.5" font-family="Helvetica,sans-Serif" font-size="10.00">src/vdp_set_pattern</text>
<text text-anchor="middle" x="2459" y="-63.5" font-family="Helvetica,sans-Serif" font-size="10.00">_table.c</text>
</a>
</g>
</g>
<!-- Node3&#45;&gt;Node25 -->
<g id="edge26" class="edge">
<title>Node3&#45;&gt;Node25</title>
<path fill="none" stroke="midnightblue" d="M2241.07,-121.84C2282.45,-112.86 2344.28,-99.31 2398,-87 2401.08,-86.29 2404.24,-85.56 2407.43,-84.82"/>
<polygon fill="midnightblue" stroke="midnightblue" points="2240.3,-118.43 2231.27,-123.97 2241.78,-125.27 2240.3,-118.43"/>
</g>
<!-- Node26 -->
<g id="node26" class="node">
<title>Node26</title>
<g id="a_node26"><a xlink:href="vdp__set__screen__lines_8c.html" target="_top" xlink:title="Copyright (c) 2021 Daishi Mori (mori0091)">
<polygon fill="none" stroke="black" points="2529,-56.5 2529,-86.5 2631,-86.5 2631,-56.5 2529,-56.5"/>
<text text-anchor="start" x="2537" y="-74.5" font-family="Helvetica,sans-Serif" font-size="10.00">src/vdp_set_screen</text>
<text text-anchor="middle" x="2580" y="-63.5" font-family="Helvetica,sans-Serif" font-size="10.00">_lines.c</text>
</a>
</g>
</g>
<!-- Node3&#45;&gt;Node26 -->
<g id="edge27" class="edge">
<title>Node3&#45;&gt;Node26</title>
<path fill="none" stroke="midnightblue" d="M2241.49,-126.95C2305.17,-119.84 2421.62,-105.63 2520,-87 2522.84,-86.46 2525.75,-85.88 2528.69,-85.26"/>
<polygon fill="midnightblue" stroke="midnightblue" points="2240.91,-123.5 2231.35,-128.07 2241.68,-130.45 2240.91,-123.5"/>
</g>
<!-- Node27 -->
<g id="node27" class="node">
<title>Node27</title>
<g id="a_node27"><a xlink:href="vdp__set__screen__mode_8c.html" target="_top" xlink:title="Copyright (c) 2021 Daishi Mori (mori0091)">
<polygon fill="none" stroke="black" points="2649,-56.5 2649,-86.5 2751,-86.5 2751,-56.5 2649,-56.5"/>
<text text-anchor="start" x="2657" y="-74.5" font-family="Helvetica,sans-Serif" font-size="10.00">src/vdp_set_screen</text>
<text text-anchor="middle" x="2700" y="-63.5" font-family="Helvetica,sans-Serif" font-size="10.00">_mode.c</text>
</a>
</g>
</g>
<!-- Node3&#45;&gt;Node27 -->
<g id="edge28" class="edge">
<title>Node3&#45;&gt;Node27</title>
<path fill="none" stroke="midnightblue" d="M2241.46,-129.35C2323.27,-124.3 2495.95,-111.56 2640,-87 2642.85,-86.51 2645.77,-85.97 2648.71,-85.38"/>
<polygon fill="midnightblue" stroke="midnightblue" points="2241,-125.87 2231.23,-129.97 2241.43,-132.86 2241,-125.87"/>
</g>
<!-- Node28 -->
<g id="node28" class="node">
<title>Node28</title>
<g id="a_node28"><a xlink:href="vdp__set__sprite__attribute__table_8c.html" target="_top" xlink:title="Copyright (c) 2021 Daishi Mori (mori0091)">
<polygon fill="none" stroke="black" points="2768.5,-56.5 2768.5,-86.5 2865.5,-86.5 2865.5,-56.5 2768.5,-56.5"/>
<text text-anchor="start" x="2776.5" y="-74.5" font-family="Helvetica,sans-Serif" font-size="10.00">src/vdp_set_sprite</text>
<text text-anchor="middle" x="2817" y="-63.5" font-family="Helvetica,sans-Serif" font-size="10.00">_attribute_table.c</text>
</a>
</g>
</g>
<!-- Node3&#45;&gt;Node28 -->
<g id="edge29" class="edge">
<title>Node3&#45;&gt;Node28</title>
<path fill="none" stroke="midnightblue" d="M2241.13,-130.95C2338.63,-128.19 2569.29,-118.6 2760,-87 2762.72,-86.55 2765.5,-86.03 2768.3,-85.47"/>
<polygon fill="midnightblue" stroke="midnightblue" points="2240.92,-127.46 2231.01,-131.23 2241.11,-134.45 2240.92,-127.46"/>
</g>
<!-- Node29 -->
<g id="node29" class="node">
<title>Node29</title>
<g id="a_node29"><a xlink:href="vdp__set__sprite__pattern__table_8c.html" target="_top" xlink:title="Copyright (c) 2021 Daishi Mori (mori0091)">
<polygon fill="none" stroke="black" points="2883.5,-56.5 2883.5,-86.5 2980.5,-86.5 2980.5,-56.5 2883.5,-56.5"/>
<text text-anchor="start" x="2891.5" y="-74.5" font-family="Helvetica,sans-Serif" font-size="10.00">src/vdp_set_sprite</text>
<text text-anchor="middle" x="2932" y="-63.5" font-family="Helvetica,sans-Serif" font-size="10.00">_pattern_table.c</text>
</a>
</g>
</g>
<!-- Node3&#45;&gt;Node29 -->
<g id="edge30" class="edge">
<title>Node3&#45;&gt;Node29</title>
<path fill="none" stroke="midnightblue" d="M2241.39,-131.84C2352.7,-130.83 2639.21,-124.46 2875,-87 2877.72,-86.57 2880.51,-86.06 2883.3,-85.51"/>
<polygon fill="midnightblue" stroke="midnightblue" points="2241.15,-128.34 2231.18,-131.93 2241.2,-135.34 2241.15,-128.34"/>
</g>
<!-- Node30 -->
<g id="node30" class="node">
<title>Node30</title>
<g id="a_node30"><a xlink:href="vdp__set__sprite__size_8c.html" target="_top" xlink:title="Copyright (c) 2021 Daishi Mori (mori0091)">
<polygon fill="none" stroke="black" points="2998.5,-56.5 2998.5,-86.5 3095.5,-86.5 3095.5,-56.5 2998.5,-56.5"/>
<text text-anchor="start" x="3006.5" y="-74.5" font-family="Helvetica,sans-Serif" font-size="10.00">src/vdp_set_sprite</text>
<text text-anchor="middle" x="3047" y="-63.5" font-family="Helvetica,sans-Serif" font-size="10.00">_size.c</text>
</a>
</g>
</g>
<!-- Node3&#45;&gt;Node30 -->
<g id="edge31" class="edge">
<title>Node3&#45;&gt;Node30</title>
<path fill="none" stroke="midnightblue" d="M2241.43,-132.49C2365.31,-133.08 2708.52,-130.34 2990,-87 2992.72,-86.58 2995.51,-86.09 2998.31,-85.54"/>
<polygon fill="midnightblue" stroke="midnightblue" points="2241.18,-128.99 2231.16,-132.43 2241.14,-135.99 2241.18,-128.99"/>
</g>
<!-- Node31 -->
<g id="node31" class="node">
<title>Node31</title>
<g id="a_node31"><a xlink:href="vdp__set__sprite__visible_8c.html" target="_top" xlink:title="Copyright (c) 2021 Daishi Mori (mori0091)">
<polygon fill="none" stroke="black" points="3113.5,-56.5 3113.5,-86.5 3210.5,-86.5 3210.5,-56.5 3113.5,-56.5"/>
<text text-anchor="start" x="3121.5" y="-74.5" font-family="Helvetica,sans-Serif" font-size="10.00">src/vdp_set_sprite</text>
<text text-anchor="middle" x="3162" y="-63.5" font-family="Helvetica,sans-Serif" font-size="10.00">_visible.c</text>
</a>
</g>
</g>
<!-- Node3&#45;&gt;Node31 -->
<g id="edge32" class="edge">
<title>Node3&#45;&gt;Node31</title>
<path fill="none" stroke="midnightblue" d="M2241.37,-130.91C2403.56,-126.98 2935.87,-112.43 3105,-87 3107.73,-86.59 3110.51,-86.11 3113.31,-85.57"/>
<polygon fill="midnightblue" stroke="midnightblue" points="2241.14,-127.41 2231.23,-131.15 2241.31,-134.41 2241.14,-127.41"/>
</g>
<!-- Node32 -->
<g id="node32" class="node">
<title>Node32</title>
<g id="a_node32"><a xlink:href="vdp__set__visible_8c.html" target="_top" xlink:title="Copyright (c) 2021 Daishi Mori (mori0091)">
<polygon fill="none" stroke="black" points="3229,-62 3229,-81 3337,-81 3337,-62 3229,-62"/>
<text text-anchor="middle" x="3283" y="-69" font-family="Helvetica,sans-Serif" font-size="10.00">src/vdp_set_visible.c</text>
</a>
</g>
</g>
<!-- Node3&#45;&gt;Node32 -->
<g id="edge33" class="edge">
<title>Node3&#45;&gt;Node32</title>
<path fill="none" stroke="midnightblue" d="M2241.38,-131.07C2416.51,-127.45 3027.06,-113.21 3220,-87 3230.23,-85.61 3241.25,-83.35 3251.16,-81.02"/>
<polygon fill="midnightblue" stroke="midnightblue" points="2241.13,-127.57 2231.2,-131.28 2241.27,-134.57 2241.13,-127.57"/>
</g>
<!-- Node33 -->
<g id="node33" class="node">
<title>Node33</title>
<g id="a_node33"><a xlink:href="vdp__set__vscroll_8c.html" target="_top" xlink:title="Copyright (c) 2021 Daishi Mori (mori0091)">
<polygon fill="none" stroke="black" points="3355.5,-62 3355.5,-81 3464.5,-81 3464.5,-62 3355.5,-62"/>
<text text-anchor="middle" x="3410" y="-69" font-family="Helvetica,sans-Serif" font-size="10.00">src/vdp_set_vscroll.c</text>
</a>
</g>
</g>
<!-- Node3&#45;&gt;Node33 -->
<g id="edge34" class="edge">
<title>Node3&#45;&gt;Node33</title>
<path fill="none" stroke="midnightblue" d="M2241.17,-131.31C2429.39,-128.4 3127.02,-115.83 3346,-87 3356.39,-85.63 3367.58,-83.37 3377.65,-81.04"/>
<polygon fill="midnightblue" stroke="midnightblue" points="2241,-127.82 2231.05,-131.47 2241.1,-134.82 2241,-127.82"/>
</g>
<!-- Node34 -->
<g id="node34" class="node">
<title>Node34</title>
<g id="a_node34"><a xlink:href="vdp__write__control_8c.html" target="_top" xlink:title="Copyright (c) 2021 Daishi Mori (mori0091)">
<polygon fill="none" stroke="black" points="3482.5,-62 3482.5,-81 3599.5,-81 3599.5,-62 3482.5,-62"/>
<text text-anchor="middle" x="3541" y="-69" font-family="Helvetica,sans-Serif" font-size="10.00">src/vdp_write_control.c</text>
</a>
</g>
</g>
<!-- Node3&#45;&gt;Node34 -->
<g id="edge35" class="edge">
<title>Node3&#45;&gt;Node34</title>
<path fill="none" stroke="midnightblue" d="M2241.36,-131.46C2442.71,-129.01 3228.51,-117.63 3474,-87 3484.86,-85.64 3496.57,-83.39 3507.12,-81.06"/>
<polygon fill="midnightblue" stroke="midnightblue" points="2241.08,-127.97 2231.12,-131.59 2241.16,-134.97 2241.08,-127.97"/>
</g>
<!-- Node35 -->
<g id="node35" class="node">
<title>Node35</title>
<g id="a_node35"><a xlink:href="vdp__write__palette_8c.html" target="_top" xlink:title="Copyright (c) 2021 Daishi Mori (mori0091)">
<polygon fill="none" stroke="black" points="3617.5,-62 3617.5,-81 3734.5,-81 3734.5,-62 3617.5,-62"/>
<text text-anchor="middle" x="3676" y="-69" font-family="Helvetica,sans-Serif" font-size="10.00">src/vdp_write_palette.c</text>
</a>
</g>
</g>
<!-- Node3&#45;&gt;Node35 -->
<g id="edge36" class="edge">
<title>Node3&#45;&gt;Node35</title>
<path fill="none" stroke="midnightblue" d="M2241.38,-131.65C2455.65,-129.88 3335.52,-120.66 3609,-87 3619.99,-85.65 3631.83,-83.36 3642.46,-81.01"/>
<polygon fill="midnightblue" stroke="midnightblue" points="2241.07,-128.15 2231.1,-131.73 2241.13,-135.15 2241.07,-128.15"/>
</g>
<!-- Node36 -->
<g id="node36" class="node">
<title>Node36</title>
<g id="a_node36"><a xlink:href="vmem__memset_8c.html" target="_top" xlink:title="Copyright (c) 2021 Daishi Mori (mori0091)">
<polygon fill="none" stroke="black" points="3753,-62 3753,-81 3861,-81 3861,-62 3753,-62"/>
<text text-anchor="middle" x="3807" y="-69" font-family="Helvetica,sans-Serif" font-size="10.00">src/vmem_memset.c</text>
</a>
</g>
</g>
<!-- Node3&#45;&gt;Node36 -->
<g id="edge37" class="edge">
<title>Node3&#45;&gt;Node36</title>
<path fill="none" stroke="midnightblue" d="M2241.43,-131.88C2468.15,-131.13 3442.71,-125.66 3744,-87 3754.35,-85.67 3765.5,-83.39 3775.49,-81.03"/>
<polygon fill="midnightblue" stroke="midnightblue" points="2241.2,-128.38 2231.21,-131.92 2241.22,-135.38 2241.2,-128.38"/>
</g>
<!-- Node37 -->
<g id="node37" class="node">
<title>Node37</title>
<g id="a_node37"><a xlink:href="vmem__read_8c.html" target="_top" xlink:title="Copyright (c) 2021 Daishi Mori (mori0091)">
<polygon fill="none" stroke="black" points="3879,-62 3879,-81 3971,-81 3971,-62 3879,-62"/>
<text text-anchor="middle" x="3925" y="-69" font-family="Helvetica,sans-Serif" font-size="10.00">src/vmem_read.c</text>
</a>
</g>
</g>
<!-- Node3&#45;&gt;Node37 -->
<g id="edge38" class="edge">
<title>Node3&#45;&gt;Node37</title>
<path fill="none" stroke="midnightblue" d="M2241.06,-132.2C2478.11,-133 3542.97,-133.86 3870,-87 3879.09,-85.7 3888.84,-83.43 3897.56,-81.07"/>
<polygon fill="midnightblue" stroke="midnightblue" points="2241.05,-128.7 2231.04,-132.17 2241.03,-135.7 2241.05,-128.7"/>
</g>
<!-- Node38 -->
<g id="node38" class="node">
<title>Node38</title>
<g id="a_node38"><a xlink:href="vmem__set__read__address_8c.html" target="_top" xlink:title="Copyright (c) 2021 Daishi Mori (mori0091)">
<polygon fill="none" stroke="black" points="3989,-62 3989,-81 4139,-81 4139,-62 3989,-62"/>
<text text-anchor="middle" x="4064" y="-69" font-family="Helvetica,sans-Serif" font-size="10.00">src/vmem_set_read_address.c</text>
</a>
</g>
</g>
<!-- Node3&#45;&gt;Node38 -->
<g id="edge39" class="edge">
<title>Node3&#45;&gt;Node38</title>
<path fill="none" stroke="midnightblue" d="M2241.27,-131.74C2487.82,-130.26 3628.34,-121.6 3980,-87 3993.7,-85.65 4008.53,-83.37 4021.86,-81.01"/>
<polygon fill="midnightblue" stroke="midnightblue" points="2241.19,-128.24 2231.21,-131.8 2241.23,-135.24 2241.19,-128.24"/>
</g>
<!-- Node39 -->
<g id="node39" class="node">
<title>Node39</title>
<g id="a_node39"><a xlink:href="vmem__set__sprite__color__s_8c.html" target="_top" xlink:title="Copyright (c) 2021 Daishi Mori (mori0091)">
<polygon fill="none" stroke="black" points="4157,-56.5 4157,-86.5 4265,-86.5 4265,-56.5 4157,-56.5"/>
<text text-anchor="start" x="4165" y="-74.5" font-family="Helvetica,sans-Serif" font-size="10.00">src/vmem_set_sprite</text>
<text text-anchor="middle" x="4211" y="-63.5" font-family="Helvetica,sans-Serif" font-size="10.00">_color_s.c</text>
</a>
</g>
</g>
<!-- Node3&#45;&gt;Node39 -->
<g id="edge40" class="edge">
<title>Node3&#45;&gt;Node39</title>
<path fill="none" stroke="midnightblue" d="M2241.5,-132.21C2502.29,-133.19 3762.36,-135.31 4148,-87 4150.9,-86.64 4153.85,-86.2 4156.83,-85.7"/>
<polygon fill="midnightblue" stroke="midnightblue" points="2241.25,-128.71 2231.24,-132.17 2241.22,-135.71 2241.25,-128.71"/>
</g>
<!-- Node40 -->
<g id="node40" class="node">
<title>Node40</title>
<g id="a_node40"><a xlink:href="vmem__set__write__address_8c.html" target="_top" xlink:title="Copyright (c) 2021 Daishi Mori (mori0091)">
<polygon fill="none" stroke="black" points="4283.5,-56.5 4283.5,-86.5 4388.5,-86.5 4388.5,-56.5 4283.5,-56.5"/>
<text text-anchor="start" x="4291.5" y="-74.5" font-family="Helvetica,sans-Serif" font-size="10.00">src/vmem_set_write</text>
<text text-anchor="middle" x="4336" y="-63.5" font-family="Helvetica,sans-Serif" font-size="10.00">_address.c</text>
</a>
</g>
</g>
<!-- Node3&#45;&gt;Node40 -->
<g id="edge41" class="edge">
<title>Node3&#45;&gt;Node40</title>
<path fill="none" stroke="midnightblue" d="M2241.29,-131.57C2531.56,-128.83 4066.48,-113.22 4274,-87 4277.07,-86.61 4280.21,-86.14 4283.37,-85.59"/>
<polygon fill="midnightblue" stroke="midnightblue" points="2241.07,-128.07 2231.1,-131.66 2241.14,-135.07 2241.07,-128.07"/>
</g>
<!-- Node41 -->
<g id="node41" class="node">
<title>Node41</title>
<g id="a_node41"><a xlink:href="vmem__write_8c.html" target="_top" xlink:title="Copyright (c) 2021 Daishi Mori (mori0091)">
<polygon fill="none" stroke="black" points="4407,-62 4407,-81 4501,-81 4501,-62 4407,-62"/>
<text text-anchor="middle" x="4454" y="-69" font-family="Helvetica,sans-Serif" font-size="10.00">src/vmem_write.c</text>
</a>
</g>
</g>
<!-- Node3&#45;&gt;Node41 -->
<g id="edge42" class="edge">
<title>Node3&#45;&gt;Node41</title>
<path fill="none" stroke="midnightblue" d="M2241.24,-131.7C2541.45,-129.68 4177.75,-117.34 4398,-87 4407.35,-85.71 4417.39,-83.41 4426.34,-81.02"/>
<polygon fill="midnightblue" stroke="midnightblue" points="2241.11,-128.2 2231.13,-131.76 2241.15,-135.2 2241.11,-128.2"/>
</g>
<!-- Node4&#45;&gt;Node2 -->
<g id="edge4" class="edge">
<title>Node4&#45;&gt;Node2</title>
<path fill="none" stroke="midnightblue" d="M138.41,-57.67C113.57,-46.13 77.77,-29.49 56.31,-19.51"/>
<polygon fill="midnightblue" stroke="midnightblue" points="137.12,-60.93 147.66,-61.98 140.07,-54.59 137.12,-60.93"/>
</g>
<!-- Node5 -->
<g id="node5" class="node">
<title>Node5</title>
<g id="a_node5"><a xlink:href="vmem__set__metasprite__a_8c.html" target="_top" xlink:title="Copyright (c) 2021 Daishi Mori (mori0091)">
<polygon fill="none" stroke="black" points="94,-0.5 94,-19.5 242,-19.5 242,-0.5 94,-0.5"/>
<text text-anchor="middle" x="168" y="-7.5" font-family="Helvetica,sans-Serif" font-size="10.00">src/vmem_set_metasprite_a.c</text>
</a>
</g>
</g>
<!-- Node4&#45;&gt;Node5 -->
<g id="edge5" class="edge">
<title>Node4&#45;&gt;Node5</title>
<path fill="none" stroke="midnightblue" d="M166.63,-51.82C166.99,-41 167.43,-27.9 167.71,-19.51"/>
<polygon fill="midnightblue" stroke="midnightblue" points="163.12,-51.86 166.29,-61.98 170.12,-52.1 163.12,-51.86"/>
</g>
<!-- Node6 -->
<g id="node6" class="node">
<title>Node6</title>
<g id="a_node6"><a xlink:href="vmem__set__metasprite__m_8c.html" target="_top" xlink:title="Copyright (c) 2021 Daishi Mori (mori0091)">
<polygon fill="none" stroke="black" points="260.5,-0.5 260.5,-19.5 411.5,-19.5 411.5,-0.5 260.5,-0.5"/>
<text text-anchor="middle" x="336" y="-7.5" font-family="Helvetica,sans-Serif" font-size="10.00">src/vmem_set_metasprite_m.c</text>
</a>
</g>
</g>
<!-- Node4&#45;&gt;Node6 -->
<g id="edge6" class="edge">
<title>Node4&#45;&gt;Node6</title>
<path fill="none" stroke="midnightblue" d="M200.05,-58.58C233.09,-47.02 282.42,-29.75 311.69,-19.51"/>
<polygon fill="midnightblue" stroke="midnightblue" points="198.64,-55.37 190.36,-61.98 200.95,-61.98 198.64,-55.37"/>
</g>
<!-- Node7 -->
<g id="node7" class="node">
<title>Node7</title>
<g id="a_node7"><a xlink:href="vmem__set__metasprite__s_8c.html" target="_top" xlink:title="Copyright (c) 2021 Daishi Mori (mori0091)">
<polygon fill="none" stroke="black" points="430,-0.5 430,-19.5 578,-19.5 578,-0.5 430,-0.5"/>
<text text-anchor="middle" x="504" y="-7.5" font-family="Helvetica,sans-Serif" font-size="10.00">src/vmem_set_metasprite_s.c</text>
</a>
</g>
</g>
<!-- Node4&#45;&gt;Node7 -->
<g id="edge7" class="edge">
<title>Node4&#45;&gt;Node7</title>
<path fill="none" stroke="midnightblue" d="M210.15,-59.61C215.8,-58.33 221.53,-57.09 227,-56 301.17,-41.18 387.26,-27.78 443.52,-19.54"/>
<polygon fill="midnightblue" stroke="midnightblue" points="209.06,-56.27 200.1,-61.93 210.63,-63.09 209.06,-56.27"/>
</g>
</g>
</svg>
