<?xml version="1.0" encoding="UTF-8" standalone="no"?>
<!DOCTYPE svg PUBLIC "-//W3C//DTD SVG 1.1//EN"
 "http://www.w3.org/Graphics/SVG/1.1/DTD/svg11.dtd">
<!-- Generated by graphviz version 7.0.5 (20221223.1930)
 -->
<!-- Title: include/xmem.h Pages: 1 -->
<svg width="323pt" height="357pt"
 viewBox="0.00 0.00 323.00 357.00" xmlns="http://www.w3.org/2000/svg" xmlns:xlink="http://www.w3.org/1999/xlink">
<g id="graph0" class="graph" transform="scale(1 1) rotate(0) translate(4 353)">
<title>include/xmem.h</title>
<!-- Node1 -->
<g id="node1" class="node">
<title>Node1</title>
<g id="a_node1"><a xlink:title="Inter&#45;memory transfer functions for ROM / RAM, VRAM, and Banked Memory (MegaROM).">
<polygon fill="#999999" stroke="#666666" points="236,-349 152,-349 152,-330 236,-330 236,-349"/>
<text text-anchor="middle" x="194" y="-337" font-family="Helvetica,sans-Serif" font-size="10.00">include/xmem.h</text>
</a>
</g>
</g>
<!-- Node2 -->
<g id="node2" class="node">
<title>Node2</title>
<g id="a_node2"><a xlink:href="bmem__rd_8h.html" target="_top" xlink:title="Stream like access functions for Banked Memory.">
<polygon fill="white" stroke="#666666" points="142.5,-294 77.5,-294 77.5,-275 142.5,-275 142.5,-294"/>
<text text-anchor="middle" x="110" y="-282" font-family="Helvetica,sans-Serif" font-size="10.00">bmem_rd.h</text>
</a>
</g>
</g>
<!-- Node1&#45;&gt;Node2 -->
<g id="edge1" class="edge">
<title>Node1&#45;&gt;Node2</title>
<path fill="none" stroke="#63b8ff" d="M179.75,-329.51C167.12,-321.54 148.44,-309.75 133.59,-300.38"/>
<polygon fill="#63b8ff" stroke="#63b8ff" points="135.64,-297.54 125.32,-295.17 131.91,-303.46 135.64,-297.54"/>
</g>
<!-- Node10 -->
<g id="node10" class="node">
<title>Node10</title>
<g id="a_node10"><a xlink:href="mem__rw_8h.html" target="_top" xlink:title="Stream like access functions for ROM / RAM.">
<polygon fill="white" stroke="#666666" points="308,-294 246,-294 246,-275 308,-275 308,-294"/>
<text text-anchor="middle" x="277" y="-282" font-family="Helvetica,sans-Serif" font-size="10.00">mem_rw.h</text>
</a>
</g>
</g>
<!-- Node1&#45;&gt;Node10 -->
<g id="edge13" class="edge">
<title>Node1&#45;&gt;Node10</title>
<path fill="none" stroke="#63b8ff" d="M208.08,-329.51C220.56,-321.54 239.02,-309.75 253.69,-300.38"/>
<polygon fill="#63b8ff" stroke="#63b8ff" points="255.31,-303.5 261.85,-295.17 251.54,-297.6 255.31,-303.5"/>
</g>
<!-- Node11 -->
<g id="node11" class="node">
<title>Node11</title>
<g id="a_node11"><a xlink:href="vmem__rw_8h.html" target="_top" xlink:title="Stream like access functions for VRAM.">
<polygon fill="white" stroke="#666666" points="227.5,-294 160.5,-294 160.5,-275 227.5,-275 227.5,-294"/>
<text text-anchor="middle" x="194" y="-282" font-family="Helvetica,sans-Serif" font-size="10.00">vmem_rw.h</text>
</a>
</g>
</g>
<!-- Node1&#45;&gt;Node11 -->
<g id="edge17" class="edge">
<title>Node1&#45;&gt;Node11</title>
<path fill="none" stroke="#63b8ff" d="M194,-329.75C194,-323.27 194,-314.16 194,-305.9"/>
<polygon fill="#63b8ff" stroke="#63b8ff" points="197.5,-305.96 194,-295.96 190.5,-305.96 197.5,-305.96"/>
</g>
<!-- Node3 -->
<g id="node3" class="node">
<title>Node3</title>
<g id="a_node3"><a xlink:href="bmem_8h.html" target="_top" xlink:title="Data types and functions for accessing banked memory.">
<polygon fill="white" stroke="#666666" points="98.5,-239 47.5,-239 47.5,-220 98.5,-220 98.5,-239"/>
<text text-anchor="middle" x="73" y="-227" font-family="Helvetica,sans-Serif" font-size="10.00">bmem.h</text>
</a>
</g>
</g>
<!-- Node2&#45;&gt;Node3 -->
<g id="edge2" class="edge">
<title>Node2&#45;&gt;Node3</title>
<path fill="none" stroke="#63b8ff" d="M103.89,-274.75C98.99,-267.73 91.95,-257.64 85.83,-248.87"/>
<polygon fill="#63b8ff" stroke="#63b8ff" points="88.7,-246.88 80.11,-240.68 82.96,-250.89 88.7,-246.88"/>
</g>
<!-- Node4 -->
<g id="node4" class="node">
<title>Node4</title>
<g id="a_node4"><a xlink:title=" ">
<polygon fill="#e0e0e0" stroke="#999999" points="100,-19 52,-19 52,0 100,0 100,-19"/>
<text text-anchor="middle" x="76" y="-7" font-family="Helvetica,sans-Serif" font-size="10.00">stdint.h</text>
</a>
</g>
</g>
<!-- Node2&#45;&gt;Node4 -->
<g id="edge12" class="edge">
<title>Node2&#45;&gt;Node4</title>
<path fill="none" stroke="#63b8ff" d="M89.31,-274.61C57.45,-259.36 0,-225.01 0,-175.5 0,-175.5 0,-175.5 0,-118.5 0,-80.18 32.39,-45.87 54.88,-26.66"/>
<polygon fill="#63b8ff" stroke="#63b8ff" points="57.09,-29.38 62.62,-20.34 52.66,-23.95 57.09,-29.38"/>
</g>
<!-- Node6 -->
<g id="node6" class="node">
<title>Node6</title>
<g id="a_node6"><a xlink:title=" ">
<polygon fill="#e0e0e0" stroke="#999999" points="205.5,-129 154.5,-129 154.5,-110 205.5,-110 205.5,-129"/>
<text text-anchor="middle" x="180" y="-117" font-family="Helvetica,sans-Serif" font-size="10.00">stddef.h</text>
</a>
</g>
</g>
<!-- Node2&#45;&gt;Node6 -->
<g id="edge11" class="edge">
<title>Node2&#45;&gt;Node6</title>
<path fill="none" stroke="#63b8ff" d="M113.76,-274.74C124.68,-249.31 156.56,-175.08 171.76,-139.69"/>
<polygon fill="#63b8ff" stroke="#63b8ff" points="174.89,-141.27 175.62,-130.7 168.46,-138.51 174.89,-141.27"/>
</g>
<!-- Node9 -->
<g id="node9" class="node">
<title>Node9</title>
<g id="a_node9"><a xlink:title=" ">
<polygon fill="#e0e0e0" stroke="#999999" points="211,-239 155,-239 155,-220 211,-220 211,-239"/>
<text text-anchor="middle" x="183" y="-227" font-family="Helvetica,sans-Serif" font-size="10.00">stdbool.h</text>
</a>
</g>
</g>
<!-- Node2&#45;&gt;Node9 -->
<g id="edge10" class="edge">
<title>Node2&#45;&gt;Node9</title>
<path fill="none" stroke="#63b8ff" d="M122.38,-274.51C133.15,-266.7 148.97,-255.21 161.75,-245.93"/>
<polygon fill="#63b8ff" stroke="#63b8ff" points="163.54,-248.95 169.57,-240.25 159.43,-243.29 163.54,-248.95"/>
</g>
<!-- Node3&#45;&gt;Node4 -->
<g id="edge3" class="edge">
<title>Node3&#45;&gt;Node4</title>
<path fill="none" stroke="#63b8ff" d="M68.74,-219.55C64.8,-210.73 59.23,-196.78 57,-184 47.35,-128.66 61.64,-62.48 70.26,-30.19"/>
<polygon fill="#63b8ff" stroke="#63b8ff" points="73.6,-31.25 72.91,-20.68 66.85,-29.37 73.6,-31.25"/>
</g>
<!-- Node5 -->
<g id="node5" class="node">
<title>Node5</title>
<g id="a_node5"><a xlink:href="vmem_8h.html" target="_top" xlink:title="Data types and functions for VRAM access.">
<polygon fill="white" stroke="#666666" points="117.5,-184 66.5,-184 66.5,-165 117.5,-165 117.5,-184"/>
<text text-anchor="middle" x="92" y="-172" font-family="Helvetica,sans-Serif" font-size="10.00">vmem.h</text>
</a>
</g>
</g>
<!-- Node3&#45;&gt;Node5 -->
<g id="edge4" class="edge">
<title>Node3&#45;&gt;Node5</title>
<path fill="none" stroke="#63b8ff" d="M76.14,-219.75C78.54,-213.04 81.96,-203.52 85,-195.02"/>
<polygon fill="#63b8ff" stroke="#63b8ff" points="88.2,-196.46 88.28,-185.87 81.61,-194.1 88.2,-196.46"/>
</g>
<!-- Node5&#45;&gt;Node4 -->
<g id="edge5" class="edge">
<title>Node5&#45;&gt;Node4</title>
<path fill="none" stroke="#63b8ff" d="M91.14,-164.74C88.67,-139.53 81.48,-66.36 77.98,-30.62"/>
<polygon fill="#63b8ff" stroke="#63b8ff" points="81.47,-30.42 77.01,-20.81 74.51,-31.11 81.47,-30.42"/>
</g>
<!-- Node5&#45;&gt;Node6 -->
<g id="edge6" class="edge">
<title>Node5&#45;&gt;Node6</title>
<path fill="none" stroke="#63b8ff" d="M106.93,-164.51C120.28,-156.47 140.11,-144.53 155.74,-135.11"/>
<polygon fill="#63b8ff" stroke="#63b8ff" points="157.24,-138.3 164,-130.14 153.62,-132.3 157.24,-138.3"/>
</g>
<!-- Node7 -->
<g id="node7" class="node">
<title>Node7</title>
<g id="a_node7"><a xlink:href="io_8h.html" target="_top" xlink:title="Definition of I/O ports.">
<polygon fill="white" stroke="#666666" points="136,-129 104,-129 104,-110 136,-110 136,-129"/>
<text text-anchor="middle" x="120" y="-117" font-family="Helvetica,sans-Serif" font-size="10.00">io.h</text>
</a>
</g>
</g>
<!-- Node5&#45;&gt;Node7 -->
<g id="edge7" class="edge">
<title>Node5&#45;&gt;Node7</title>
<path fill="none" stroke="#63b8ff" d="M96.62,-164.75C100.25,-157.88 105.43,-148.08 109.99,-139.45"/>
<polygon fill="#63b8ff" stroke="#63b8ff" points="112.99,-141.26 114.57,-130.78 106.8,-137.99 112.99,-141.26"/>
</g>
<!-- Node8 -->
<g id="node8" class="node">
<title>Node8</title>
<g id="a_node8"><a xlink:href="config_8h.html" target="_top" xlink:title="Hack for C Compiler portability.">
<polygon fill="white" stroke="#666666" points="154,-74 104,-74 104,-55 154,-55 154,-74"/>
<text text-anchor="middle" x="129" y="-62" font-family="Helvetica,sans-Serif" font-size="10.00">config.h</text>
</a>
</g>
</g>
<!-- Node7&#45;&gt;Node8 -->
<g id="edge8" class="edge">
<title>Node7&#45;&gt;Node8</title>
<path fill="none" stroke="#63b8ff" d="M121.49,-109.75C122.6,-103.19 124.17,-93.95 125.59,-85.6"/>
<polygon fill="#63b8ff" stroke="#63b8ff" points="129,-86.38 127.23,-75.93 122.1,-85.21 129,-86.38"/>
</g>
<!-- Node8&#45;&gt;Node4 -->
<g id="edge9" class="edge">
<title>Node8&#45;&gt;Node4</title>
<path fill="none" stroke="#63b8ff" d="M120.25,-54.75C112.85,-47.35 102.04,-36.54 92.95,-27.45"/>
<polygon fill="#63b8ff" stroke="#63b8ff" points="95.56,-25.11 86.01,-20.51 90.61,-30.06 95.56,-25.11"/>
</g>
<!-- Node10&#45;&gt;Node4 -->
<g id="edge16" class="edge">
<title>Node10&#45;&gt;Node4</title>
<path fill="none" stroke="#63b8ff" d="M282.44,-274.63C292.95,-256.63 315,-214.26 315,-175.5 315,-175.5 315,-175.5 315,-118.5 315,-30.23 177.94,-13.71 111.41,-10.9"/>
<polygon fill="#63b8ff" stroke="#63b8ff" points="111.86,-7.41 101.74,-10.58 111.62,-14.41 111.86,-7.41"/>
</g>
<!-- Node10&#45;&gt;Node6 -->
<g id="edge15" class="edge">
<title>Node10&#45;&gt;Node6</title>
<path fill="none" stroke="#63b8ff" d="M271.78,-274.74C256.52,-249.09 211.71,-173.78 190.88,-138.78"/>
<polygon fill="#63b8ff" stroke="#63b8ff" points="194.14,-137.41 186.01,-130.61 188.12,-140.99 194.14,-137.41"/>
</g>
<!-- Node10&#45;&gt;Node9 -->
<g id="edge14" class="edge">
<title>Node10&#45;&gt;Node9</title>
<path fill="none" stroke="#63b8ff" d="M261.05,-274.51C246.65,-266.39 225.21,-254.3 208.44,-244.85"/>
<polygon fill="#63b8ff" stroke="#63b8ff" points="210.46,-241.96 200.03,-240.1 207.02,-248.06 210.46,-241.96"/>
</g>
<!-- Node11&#45;&gt;Node5 -->
<g id="edge18" class="edge">
<title>Node11&#45;&gt;Node5</title>
<path fill="none" stroke="#63b8ff" d="M202.8,-274.65C214.52,-261.77 232.43,-237.48 220,-220 199.54,-191.22 159.08,-180.89 129.1,-177.27"/>
<polygon fill="#63b8ff" stroke="#63b8ff" points="129.58,-173.8 119.29,-176.3 128.9,-180.77 129.58,-173.8"/>
</g>
<!-- Node11&#45;&gt;Node9 -->
<g id="edge19" class="edge">
<title>Node11&#45;&gt;Node9</title>
<path fill="none" stroke="#63b8ff" d="M192.18,-274.75C190.82,-268.19 188.9,-258.95 187.17,-250.6"/>
<polygon fill="#63b8ff" stroke="#63b8ff" points="190.62,-250 185.16,-240.92 183.77,-251.43 190.62,-250"/>
</g>
</g>
</svg>
