<?xml version="1.0" encoding="UTF-8" standalone="no"?>
<!DOCTYPE svg PUBLIC "-//W3C//DTD SVG 1.1//EN"
 "http://www.w3.org/Graphics/SVG/1.1/DTD/svg11.dtd">
<!-- Generated by graphviz version 12.2.0 (20241103.1931)
 -->
<!-- Title: include/ZX0_decompress.h Pages: 1 -->
<svg width="210pt" height="304pt"
 viewBox="0.00 0.00 210.22 303.50" xmlns="http://www.w3.org/2000/svg" xmlns:xlink="http://www.w3.org/1999/xlink">
<g id="graph0" class="graph" transform="scale(1 1) rotate(0) translate(4 299.5)">
<title>include/ZX0_decompress.h</title>
<!-- Node1 -->
<g id="Node000001" class="node">
<title>Node1</title>
<g id="a_Node000001"><a xlink:title="Decompressor of the ZX0 data compression format version 2.">
<polygon fill="#999999" stroke="#666666" points="197.1,-295.5 63.35,-295.5 63.35,-276.25 197.1,-276.25 197.1,-295.5"/>
<text text-anchor="middle" x="130.22" y="-282" font-family="Helvetica,sans-Serif" font-size="10.00">include/ZX0_decompress.h</text>
</a>
</g>
</g>
<!-- Node2 -->
<g id="Node000002" class="node">
<title>Node2</title>
<g id="a_Node000002"><a xlink:href="bmem_8h.html" target="_top" xlink:title="Data types and functions for accessing banked memory.">
<polygon fill="white" stroke="#666666" points="83.47,-240.25 32.97,-240.25 32.97,-221 83.47,-221 83.47,-240.25"/>
<text text-anchor="middle" x="58.22" y="-226.75" font-family="Helvetica,sans-Serif" font-size="10.00">bmem.h</text>
</a>
</g>
</g>
<!-- Node1&#45;&gt;Node2 -->
<g id="edge1_Node000001_Node000002" class="edge">
<title>Node1&#45;&gt;Node2</title>
<g id="a_edge1_Node000001_Node000002"><a xlink:title=" ">
<path fill="none" stroke="#63b8ff" d="M118.01,-275.84C107.4,-267.99 91.79,-256.45 79.18,-247.12"/>
<polygon fill="#63b8ff" stroke="#63b8ff" points="81.59,-244.56 71.47,-241.42 77.43,-250.19 81.59,-244.56"/>
</a>
</g>
</g>
<!-- Node3 -->
<g id="Node000003" class="node">
<title>Node3</title>
<g id="a_Node000003"><a xlink:title=" ">
<polygon fill="#e0e0e0" stroke="#999999" points="92.97,-19.25 45.47,-19.25 45.47,0 92.97,0 92.97,-19.25"/>
<text text-anchor="middle" x="69.22" y="-5.75" font-family="Helvetica,sans-Serif" font-size="10.00">stdint.h</text>
</a>
</g>
</g>
<!-- Node1&#45;&gt;Node3 -->
<g id="edge10_Node000001_Node000003" class="edge">
<title>Node1&#45;&gt;Node3</title>
<g id="a_edge10_Node000001_Node000003"><a xlink:title=" ">
<path fill="none" stroke="#63b8ff" d="M141.79,-275.79C162.14,-258.7 202.22,-219.55 202.22,-176.38 202.22,-176.38 202.22,-176.38 202.22,-119.12 202.22,-68.43 143.5,-37.2 104.09,-21.95"/>
<polygon fill="#63b8ff" stroke="#63b8ff" points="105.32,-18.68 94.73,-18.51 102.91,-25.24 105.32,-18.68"/>
</a>
</g>
</g>
<!-- Node4 -->
<g id="Node000004" class="node">
<title>Node4</title>
<g id="a_Node000004"><a xlink:href="vmem_8h.html" target="_top" xlink:title="Data types and functions for VRAM access.">
<polygon fill="white" stroke="#666666" points="121.47,-185 70.97,-185 70.97,-165.75 121.47,-165.75 121.47,-185"/>
<text text-anchor="middle" x="96.22" y="-171.5" font-family="Helvetica,sans-Serif" font-size="10.00">vmem.h</text>
</a>
</g>
</g>
<!-- Node1&#45;&gt;Node4 -->
<g id="edge9_Node000001_Node000004" class="edge">
<title>Node1&#45;&gt;Node4</title>
<g id="a_edge9_Node000001_Node000004"><a xlink:title=" ">
<path fill="none" stroke="#63b8ff" d="M127.44,-276C122.01,-258.67 109.89,-219.98 102.45,-196.24"/>
<polygon fill="#63b8ff" stroke="#63b8ff" points="105.83,-195.32 99.5,-186.82 99.15,-197.41 105.83,-195.32"/>
</a>
</g>
</g>
<!-- Node5 -->
<g id="Node000005" class="node">
<title>Node5</title>
<g id="a_Node000005"><a xlink:title=" ">
<polygon fill="#e0e0e0" stroke="#999999" points="174.47,-129.75 123.97,-129.75 123.97,-110.5 174.47,-110.5 174.47,-129.75"/>
<text text-anchor="middle" x="149.22" y="-116.25" font-family="Helvetica,sans-Serif" font-size="10.00">stddef.h</text>
</a>
</g>
</g>
<!-- Node1&#45;&gt;Node5 -->
<g id="edge11_Node000001_Node000005" class="edge">
<title>Node1&#45;&gt;Node5</title>
<g id="a_edge11_Node000001_Node000005"><a xlink:title=" ">
<path fill="none" stroke="#63b8ff" d="M131.24,-276.07C134.18,-250.75 142.71,-177.25 146.88,-141.34"/>
<polygon fill="#63b8ff" stroke="#63b8ff" points="150.35,-141.81 148.02,-131.48 143.39,-141.01 150.35,-141.81"/>
</a>
</g>
</g>
<!-- Node2&#45;&gt;Node3 -->
<g id="edge2_Node000002_Node000003" class="edge">
<title>Node2&#45;&gt;Node3</title>
<g id="a_edge2_Node000002_Node000003"><a xlink:title=" ">
<path fill="none" stroke="#63b8ff" d="M51.45,-220.85C32.04,-194.55 -20.57,-114.54 9.22,-55.25 15.58,-42.6 27.41,-32.63 38.89,-25.35"/>
<polygon fill="#63b8ff" stroke="#63b8ff" points="40.54,-28.44 47.44,-20.41 37.03,-22.38 40.54,-28.44"/>
</a>
</g>
</g>
<!-- Node2&#45;&gt;Node4 -->
<g id="edge3_Node000002_Node000004" class="edge">
<title>Node2&#45;&gt;Node4</title>
<g id="a_edge3_Node000002_Node000004"><a xlink:title=" ">
<path fill="none" stroke="#63b8ff" d="M64.5,-220.83C69.58,-213.71 76.92,-203.43 83.26,-194.55"/>
<polygon fill="#63b8ff" stroke="#63b8ff" points="85.97,-196.76 88.93,-186.59 80.28,-192.7 85.97,-196.76"/>
</a>
</g>
</g>
<!-- Node4&#45;&gt;Node3 -->
<g id="edge4_Node000004_Node000003" class="edge">
<title>Node4&#45;&gt;Node3</title>
<g id="a_edge4_Node000004_Node000003"><a xlink:title=" ">
<path fill="none" stroke="#63b8ff" d="M94.85,-165.4C91.8,-145.53 84.18,-96.34 77.22,-55.25 75.86,-47.2 74.29,-38.34 72.9,-30.66"/>
<polygon fill="#63b8ff" stroke="#63b8ff" points="76.37,-30.21 71.14,-21 69.49,-31.46 76.37,-30.21"/>
</a>
</g>
</g>
<!-- Node4&#45;&gt;Node5 -->
<g id="edge5_Node000004_Node000005" class="edge">
<title>Node4&#45;&gt;Node5</title>
<g id="a_edge5_Node000004_Node000005"><a xlink:title=" ">
<path fill="none" stroke="#63b8ff" d="M104.98,-165.58C112.37,-158.15 123.18,-147.29 132.27,-138.16"/>
<polygon fill="#63b8ff" stroke="#63b8ff" points="134.64,-140.74 139.21,-131.18 129.68,-135.8 134.64,-140.74"/>
</a>
</g>
</g>
<!-- Node6 -->
<g id="Node000006" class="node">
<title>Node6</title>
<g id="a_Node000006"><a xlink:href="io_8h.html" target="_top" xlink:title="Definition of I/O ports.">
<polygon fill="white" stroke="#666666" points="62.72,-129.75 31.72,-129.75 31.72,-110.5 62.72,-110.5 62.72,-129.75"/>
<text text-anchor="middle" x="47.22" y="-116.25" font-family="Helvetica,sans-Serif" font-size="10.00">io.h</text>
</a>
</g>
</g>
<!-- Node4&#45;&gt;Node6 -->
<g id="edge6_Node000004_Node000006" class="edge">
<title>Node4&#45;&gt;Node6</title>
<g id="a_edge6_Node000004_Node000006"><a xlink:title=" ">
<path fill="none" stroke="#63b8ff" d="M88.13,-165.58C81.36,-158.23 71.5,-147.51 63.16,-138.44"/>
<polygon fill="#63b8ff" stroke="#63b8ff" points="65.86,-136.21 56.52,-131.22 60.71,-140.95 65.86,-136.21"/>
</a>
</g>
</g>
<!-- Node7 -->
<g id="Node000007" class="node">
<title>Node7</title>
<g id="a_Node000007"><a xlink:href="config_8h.html" target="_top" xlink:title="Hack for C Compiler portability.">
<polygon fill="white" stroke="#666666" points="67.72,-74.5 18.72,-74.5 18.72,-55.25 67.72,-55.25 67.72,-74.5"/>
<text text-anchor="middle" x="43.22" y="-61" font-family="Helvetica,sans-Serif" font-size="10.00">config.h</text>
</a>
</g>
</g>
<!-- Node6&#45;&gt;Node7 -->
<g id="edge7_Node000006_Node000007" class="edge">
<title>Node6&#45;&gt;Node7</title>
<g id="a_edge7_Node000006_Node000007"><a xlink:title=" ">
<path fill="none" stroke="#63b8ff" d="M46.56,-110.33C46.07,-103.74 45.37,-94.46 44.74,-86.07"/>
<polygon fill="#63b8ff" stroke="#63b8ff" points="48.25,-86.08 44.01,-76.37 41.27,-86.6 48.25,-86.08"/>
</a>
</g>
</g>
<!-- Node7&#45;&gt;Node3 -->
<g id="edge8_Node000007_Node000003" class="edge">
<title>Node7&#45;&gt;Node3</title>
<g id="a_edge8_Node000007_Node000003"><a xlink:title=" ">
<path fill="none" stroke="#63b8ff" d="M47.52,-55.08C50.85,-48.26 55.59,-38.56 59.79,-29.95"/>
<polygon fill="#63b8ff" stroke="#63b8ff" points="62.93,-31.49 64.17,-20.97 56.64,-28.42 62.93,-31.49"/>
</a>
</g>
</g>
</g>
</svg>
