<?xml version="1.0" encoding="UTF-8" standalone="no"?>
<!DOCTYPE svg PUBLIC "-//W3C//DTD SVG 1.1//EN"
 "http://www.w3.org/Graphics/SVG/1.1/DTD/svg11.dtd">
<!-- Generated by graphviz version 7.0.5 (20221223.1930)
 -->
<!-- Title: include/ZX0_decompress.h Pages: 1 -->
<svg width="212pt" height="302pt"
 viewBox="0.00 0.00 212.18 302.00" xmlns="http://www.w3.org/2000/svg" xmlns:xlink="http://www.w3.org/1999/xlink">
<g id="graph0" class="graph" transform="scale(1 1) rotate(0) translate(4 298)">
<title>include/ZX0_decompress.h</title>
<!-- Node1 -->
<g id="node1" class="node">
<title>Node1</title>
<g id="a_node1"><a xlink:title="Decompressor of the ZX0 data compression format version 2.">
<polygon fill="#999999" stroke="#666666" points="198.18,-294 64.18,-294 64.18,-275 198.18,-275 198.18,-294"/>
<text text-anchor="middle" x="131.18" y="-282" font-family="Helvetica,sans-Serif" font-size="10.00">include/ZX0_decompress.h</text>
</a>
</g>
</g>
<!-- Node2 -->
<g id="node2" class="node">
<title>Node2</title>
<g id="a_node2"><a xlink:href="bmem_8h.html" target="_top" xlink:title="Data types and functions for accessing banked memory.">
<polygon fill="white" stroke="#666666" points="83.68,-239 32.68,-239 32.68,-220 83.68,-220 83.68,-239"/>
<text text-anchor="middle" x="58.18" y="-227" font-family="Helvetica,sans-Serif" font-size="10.00">bmem.h</text>
</a>
</g>
</g>
<!-- Node1&#45;&gt;Node2 -->
<g id="edge1" class="edge">
<title>Node1&#45;&gt;Node2</title>
<path fill="none" stroke="#63b8ff" d="M118.8,-274.51C108.03,-266.7 92.21,-255.21 79.43,-245.93"/>
<polygon fill="#63b8ff" stroke="#63b8ff" points="81.75,-243.29 71.61,-240.25 77.64,-248.95 81.75,-243.29"/>
</g>
<!-- Node3 -->
<g id="node3" class="node">
<title>Node3</title>
<g id="a_node3"><a xlink:title=" ">
<polygon fill="#e0e0e0" stroke="#999999" points="93.18,-19 45.18,-19 45.18,0 93.18,0 93.18,-19"/>
<text text-anchor="middle" x="69.18" y="-7" font-family="Helvetica,sans-Serif" font-size="10.00">stdint.h</text>
</a>
</g>
</g>
<!-- Node1&#45;&gt;Node3 -->
<g id="edge10" class="edge">
<title>Node1&#45;&gt;Node3</title>
<path fill="none" stroke="#63b8ff" d="M142.91,-274.51C163.54,-257.57 204.18,-218.73 204.18,-175.5 204.18,-175.5 204.18,-175.5 204.18,-118.5 204.18,-67.33 144.32,-36.42 104.32,-21.48"/>
<polygon fill="#63b8ff" stroke="#63b8ff" points="105.65,-18.23 95.05,-18.19 103.31,-24.83 105.65,-18.23"/>
</g>
<!-- Node4 -->
<g id="node4" class="node">
<title>Node4</title>
<g id="a_node4"><a xlink:href="vmem_8h.html" target="_top" xlink:title="Data types and functions for VRAM access.">
<polygon fill="white" stroke="#666666" points="121.68,-184 70.68,-184 70.68,-165 121.68,-165 121.68,-184"/>
<text text-anchor="middle" x="96.18" y="-172" font-family="Helvetica,sans-Serif" font-size="10.00">vmem.h</text>
</a>
</g>
</g>
<!-- Node1&#45;&gt;Node4 -->
<g id="edge9" class="edge">
<title>Node1&#45;&gt;Node4</title>
<path fill="none" stroke="#63b8ff" d="M128.32,-274.66C122.73,-257.42 110.25,-218.9 102.59,-195.27"/>
<polygon fill="#63b8ff" stroke="#63b8ff" points="105.96,-194.33 99.55,-185.9 99.3,-196.49 105.96,-194.33"/>
</g>
<!-- Node5 -->
<g id="node5" class="node">
<title>Node5</title>
<g id="a_node5"><a xlink:title=" ">
<polygon fill="#e0e0e0" stroke="#999999" points="175.68,-129 124.68,-129 124.68,-110 175.68,-110 175.68,-129"/>
<text text-anchor="middle" x="150.18" y="-117" font-family="Helvetica,sans-Serif" font-size="10.00">stddef.h</text>
</a>
</g>
</g>
<!-- Node1&#45;&gt;Node5 -->
<g id="edge11" class="edge">
<title>Node1&#45;&gt;Node5</title>
<path fill="none" stroke="#63b8ff" d="M132.2,-274.74C135.14,-249.53 143.67,-176.36 147.83,-140.62"/>
<polygon fill="#63b8ff" stroke="#63b8ff" points="151.3,-141.15 148.98,-130.81 144.34,-140.34 151.3,-141.15"/>
</g>
<!-- Node2&#45;&gt;Node3 -->
<g id="edge2" class="edge">
<title>Node2&#45;&gt;Node3</title>
<path fill="none" stroke="#63b8ff" d="M51.42,-219.77C32.03,-193.6 -20.51,-113.99 9.18,-55 15.54,-42.37 27.37,-32.42 38.85,-25.17"/>
<polygon fill="#63b8ff" stroke="#63b8ff" points="40.49,-28.27 47.4,-20.24 36.99,-22.2 40.49,-28.27"/>
</g>
<!-- Node2&#45;&gt;Node4 -->
<g id="edge3" class="edge">
<title>Node2&#45;&gt;Node4</title>
<path fill="none" stroke="#63b8ff" d="M64.46,-219.75C69.54,-212.66 76.88,-202.42 83.21,-193.59"/>
<polygon fill="#63b8ff" stroke="#63b8ff" points="85.9,-195.84 88.89,-185.67 80.22,-191.76 85.9,-195.84"/>
</g>
<!-- Node4&#45;&gt;Node3 -->
<g id="edge4" class="edge">
<title>Node4&#45;&gt;Node3</title>
<path fill="none" stroke="#63b8ff" d="M94.81,-164.57C91.76,-144.81 84.13,-95.88 77.18,-55 75.82,-46.97 74.24,-38.14 72.85,-30.48"/>
<polygon fill="#63b8ff" stroke="#63b8ff" points="76.34,-30.05 71.1,-20.85 69.45,-31.31 76.34,-30.05"/>
</g>
<!-- Node4&#45;&gt;Node5 -->
<g id="edge5" class="edge">
<title>Node4&#45;&gt;Node5</title>
<path fill="none" stroke="#63b8ff" d="M105.1,-164.75C112.63,-157.35 123.65,-146.54 132.91,-137.45"/>
<polygon fill="#63b8ff" stroke="#63b8ff" points="135.3,-140 139.99,-130.5 130.4,-135.01 135.3,-140"/>
</g>
<!-- Node6 -->
<g id="node6" class="node">
<title>Node6</title>
<g id="a_node6"><a xlink:href="io_8h.html" target="_top" xlink:title="Definition of I/O ports.">
<polygon fill="white" stroke="#666666" points="63.18,-129 31.18,-129 31.18,-110 63.18,-110 63.18,-129"/>
<text text-anchor="middle" x="47.18" y="-117" font-family="Helvetica,sans-Serif" font-size="10.00">io.h</text>
</a>
</g>
</g>
<!-- Node4&#45;&gt;Node6 -->
<g id="edge6" class="edge">
<title>Node4&#45;&gt;Node6</title>
<path fill="none" stroke="#63b8ff" d="M88.09,-164.75C81.32,-157.43 71.46,-146.76 63.12,-137.74"/>
<polygon fill="#63b8ff" stroke="#63b8ff" points="65.83,-135.52 56.47,-130.55 60.69,-140.27 65.83,-135.52"/>
</g>
<!-- Node7 -->
<g id="node7" class="node">
<title>Node7</title>
<g id="a_node7"><a xlink:href="config_8h.html" target="_top" xlink:title="Hack for C Compiler portability.">
<polygon fill="white" stroke="#666666" points="68.18,-74 18.18,-74 18.18,-55 68.18,-55 68.18,-74"/>
<text text-anchor="middle" x="43.18" y="-62" font-family="Helvetica,sans-Serif" font-size="10.00">config.h</text>
</a>
</g>
</g>
<!-- Node6&#45;&gt;Node7 -->
<g id="edge7" class="edge">
<title>Node6&#45;&gt;Node7</title>
<path fill="none" stroke="#63b8ff" d="M46.52,-109.75C46.03,-103.27 45.34,-94.16 44.72,-85.9"/>
<polygon fill="#63b8ff" stroke="#63b8ff" points="48.21,-85.66 43.97,-75.95 41.23,-86.19 48.21,-85.66"/>
</g>
<!-- Node7&#45;&gt;Node3 -->
<g id="edge8" class="edge">
<title>Node7&#45;&gt;Node3</title>
<path fill="none" stroke="#63b8ff" d="M47.47,-54.75C50.8,-47.96 55.54,-38.3 59.74,-29.73"/>
<polygon fill="#63b8ff" stroke="#63b8ff" points="62.87,-31.32 64.13,-20.8 56.58,-28.24 62.87,-31.32"/>
</g>
</g>
</svg>
